<?xml version="1.0" encoding="utf-8" standalone="no"?>
<!DOCTYPE svg PUBLIC "-//W3C//DTD SVG 1.1//EN"
  "http://www.w3.org/Graphics/SVG/1.1/DTD/svg11.dtd">
<svg xmlns:xlink="http://www.w3.org/1999/xlink" width="576pt" height="432pt" viewBox="0 0 576 432" xmlns="http://www.w3.org/2000/svg" version="1.1">
 <metadata>
  <rdf:RDF xmlns:dc="http://purl.org/dc/elements/1.1/" xmlns:cc="http://creativecommons.org/ns#" xmlns:rdf="http://www.w3.org/1999/02/22-rdf-syntax-ns#">
   <cc:Work>
    <dc:type rdf:resource="http://purl.org/dc/dcmitype/StillImage"/>
    <dc:date>2023-12-26T13:14:40.579048</dc:date>
    <dc:format>image/svg+xml</dc:format>
    <dc:creator>
     <cc:Agent>
      <dc:title>Matplotlib v3.7.1, https://matplotlib.org/</dc:title>
     </cc:Agent>
    </dc:creator>
   </cc:Work>
  </rdf:RDF>
 </metadata>
 <defs>
  <style type="text/css">*{stroke-linejoin: round; stroke-linecap: butt}</style>
 </defs>
 <g id="figure_1">
  <g id="patch_1">
   <path d="M 0 432 
L 576 432 
L 576 0 
L 0 0 
z
" style="fill: #ffffff"/>
  </g>
  <g id="axes_1">
   <g id="patch_2">
    <path d="M 72 384.48 
L 518.4 384.48 
L 518.4 51.84 
L 72 51.84 
z
" style="fill: #ffffff"/>
   </g>
   <g id="matplotlib.axis_1">
    <g id="xtick_1">
     <g id="line2d_1">
      <defs>
       <path id="m0df2aaa861" d="M 0 0 
L 0 3.5 
" style="stroke: #000000; stroke-width: 0.8"/>
      </defs>
      <g>
       <use xlink:href="#m0df2aaa861" x="92.290909" y="384.48" style="stroke: #000000; stroke-width: 0.8"/>
      </g>
     </g>
     <g id="text_1">
      <!-- 0 -->
      <g transform="translate(89.109659 399.078438) scale(0.1 -0.1)">
       <defs>
        <path id="DejaVuSans-30" d="M 2034 4250 
Q 1547 4250 1301 3770 
Q 1056 3291 1056 2328 
Q 1056 1369 1301 889 
Q 1547 409 2034 409 
Q 2525 409 2770 889 
Q 3016 1369 3016 2328 
Q 3016 3291 2770 3770 
Q 2525 4250 2034 4250 
z
M 2034 4750 
Q 2819 4750 3233 4129 
Q 3647 3509 3647 2328 
Q 3647 1150 3233 529 
Q 2819 -91 2034 -91 
Q 1250 -91 836 529 
Q 422 1150 422 2328 
Q 422 3509 836 4129 
Q 1250 4750 2034 4750 
z
" transform="scale(0.015625)"/>
       </defs>
       <use xlink:href="#DejaVuSans-30"/>
      </g>
     </g>
    </g>
    <g id="xtick_2">
     <g id="line2d_2">
      <g>
       <use xlink:href="#m0df2aaa861" x="142.023529" y="384.48" style="stroke: #000000; stroke-width: 0.8"/>
      </g>
     </g>
     <g id="text_2">
      <!-- 25 -->
      <g transform="translate(135.661029 399.078438) scale(0.1 -0.1)">
       <defs>
        <path id="DejaVuSans-32" d="M 1228 531 
L 3431 531 
L 3431 0 
L 469 0 
L 469 531 
Q 828 903 1448 1529 
Q 2069 2156 2228 2338 
Q 2531 2678 2651 2914 
Q 2772 3150 2772 3378 
Q 2772 3750 2511 3984 
Q 2250 4219 1831 4219 
Q 1534 4219 1204 4116 
Q 875 4013 500 3803 
L 500 4441 
Q 881 4594 1212 4672 
Q 1544 4750 1819 4750 
Q 2544 4750 2975 4387 
Q 3406 4025 3406 3419 
Q 3406 3131 3298 2873 
Q 3191 2616 2906 2266 
Q 2828 2175 2409 1742 
Q 1991 1309 1228 531 
z
" transform="scale(0.015625)"/>
        <path id="DejaVuSans-35" d="M 691 4666 
L 3169 4666 
L 3169 4134 
L 1269 4134 
L 1269 2991 
Q 1406 3038 1543 3061 
Q 1681 3084 1819 3084 
Q 2600 3084 3056 2656 
Q 3513 2228 3513 1497 
Q 3513 744 3044 326 
Q 2575 -91 1722 -91 
Q 1428 -91 1123 -41 
Q 819 9 494 109 
L 494 744 
Q 775 591 1075 516 
Q 1375 441 1709 441 
Q 2250 441 2565 725 
Q 2881 1009 2881 1497 
Q 2881 1984 2565 2268 
Q 2250 2553 1709 2553 
Q 1456 2553 1204 2497 
Q 953 2441 691 2322 
L 691 4666 
z
" transform="scale(0.015625)"/>
       </defs>
       <use xlink:href="#DejaVuSans-32"/>
       <use xlink:href="#DejaVuSans-35" x="63.623047"/>
      </g>
     </g>
    </g>
    <g id="xtick_3">
     <g id="line2d_3">
      <g>
       <use xlink:href="#m0df2aaa861" x="191.75615" y="384.48" style="stroke: #000000; stroke-width: 0.8"/>
      </g>
     </g>
     <g id="text_3">
      <!-- 50 -->
      <g transform="translate(185.39365 399.078438) scale(0.1 -0.1)">
       <use xlink:href="#DejaVuSans-35"/>
       <use xlink:href="#DejaVuSans-30" x="63.623047"/>
      </g>
     </g>
    </g>
    <g id="xtick_4">
     <g id="line2d_4">
      <g>
       <use xlink:href="#m0df2aaa861" x="241.48877" y="384.48" style="stroke: #000000; stroke-width: 0.8"/>
      </g>
     </g>
     <g id="text_4">
      <!-- 75 -->
      <g transform="translate(235.12627 399.078438) scale(0.1 -0.1)">
       <defs>
        <path id="DejaVuSans-37" d="M 525 4666 
L 3525 4666 
L 3525 4397 
L 1831 0 
L 1172 0 
L 2766 4134 
L 525 4134 
L 525 4666 
z
" transform="scale(0.015625)"/>
       </defs>
       <use xlink:href="#DejaVuSans-37"/>
       <use xlink:href="#DejaVuSans-35" x="63.623047"/>
      </g>
     </g>
    </g>
    <g id="xtick_5">
     <g id="line2d_5">
      <g>
       <use xlink:href="#m0df2aaa861" x="291.22139" y="384.48" style="stroke: #000000; stroke-width: 0.8"/>
      </g>
     </g>
     <g id="text_5">
      <!-- 100 -->
      <g transform="translate(281.67764 399.078438) scale(0.1 -0.1)">
       <defs>
        <path id="DejaVuSans-31" d="M 794 531 
L 1825 531 
L 1825 4091 
L 703 3866 
L 703 4441 
L 1819 4666 
L 2450 4666 
L 2450 531 
L 3481 531 
L 3481 0 
L 794 0 
L 794 531 
z
" transform="scale(0.015625)"/>
       </defs>
       <use xlink:href="#DejaVuSans-31"/>
       <use xlink:href="#DejaVuSans-30" x="63.623047"/>
       <use xlink:href="#DejaVuSans-30" x="127.246094"/>
      </g>
     </g>
    </g>
    <g id="xtick_6">
     <g id="line2d_6">
      <g>
       <use xlink:href="#m0df2aaa861" x="340.954011" y="384.48" style="stroke: #000000; stroke-width: 0.8"/>
      </g>
     </g>
     <g id="text_6">
      <!-- 125 -->
      <g transform="translate(331.410261 399.078438) scale(0.1 -0.1)">
       <use xlink:href="#DejaVuSans-31"/>
       <use xlink:href="#DejaVuSans-32" x="63.623047"/>
       <use xlink:href="#DejaVuSans-35" x="127.246094"/>
      </g>
     </g>
    </g>
    <g id="xtick_7">
     <g id="line2d_7">
      <g>
       <use xlink:href="#m0df2aaa861" x="390.686631" y="384.48" style="stroke: #000000; stroke-width: 0.8"/>
      </g>
     </g>
     <g id="text_7">
      <!-- 150 -->
      <g transform="translate(381.142881 399.078438) scale(0.1 -0.1)">
       <use xlink:href="#DejaVuSans-31"/>
       <use xlink:href="#DejaVuSans-35" x="63.623047"/>
       <use xlink:href="#DejaVuSans-30" x="127.246094"/>
      </g>
     </g>
    </g>
    <g id="xtick_8">
     <g id="line2d_8">
      <g>
       <use xlink:href="#m0df2aaa861" x="440.419251" y="384.48" style="stroke: #000000; stroke-width: 0.8"/>
      </g>
     </g>
     <g id="text_8">
      <!-- 175 -->
      <g transform="translate(430.875501 399.078438) scale(0.1 -0.1)">
       <use xlink:href="#DejaVuSans-31"/>
       <use xlink:href="#DejaVuSans-37" x="63.623047"/>
       <use xlink:href="#DejaVuSans-35" x="127.246094"/>
      </g>
     </g>
    </g>
    <g id="xtick_9">
     <g id="line2d_9">
      <g>
       <use xlink:href="#m0df2aaa861" x="490.151872" y="384.48" style="stroke: #000000; stroke-width: 0.8"/>
      </g>
     </g>
     <g id="text_9">
      <!-- 200 -->
      <g transform="translate(480.608122 399.078438) scale(0.1 -0.1)">
       <use xlink:href="#DejaVuSans-32"/>
       <use xlink:href="#DejaVuSans-30" x="63.623047"/>
       <use xlink:href="#DejaVuSans-30" x="127.246094"/>
      </g>
     </g>
    </g>
    <g id="text_10">
     <!-- epoch -->
     <g transform="translate(279.971875 412.756563) scale(0.1 -0.1)">
      <defs>
       <path id="DejaVuSans-65" d="M 3597 1894 
L 3597 1613 
L 953 1613 
Q 991 1019 1311 708 
Q 1631 397 2203 397 
Q 2534 397 2845 478 
Q 3156 559 3463 722 
L 3463 178 
Q 3153 47 2828 -22 
Q 2503 -91 2169 -91 
Q 1331 -91 842 396 
Q 353 884 353 1716 
Q 353 2575 817 3079 
Q 1281 3584 2069 3584 
Q 2775 3584 3186 3129 
Q 3597 2675 3597 1894 
z
M 3022 2063 
Q 3016 2534 2758 2815 
Q 2500 3097 2075 3097 
Q 1594 3097 1305 2825 
Q 1016 2553 972 2059 
L 3022 2063 
z
" transform="scale(0.015625)"/>
       <path id="DejaVuSans-70" d="M 1159 525 
L 1159 -1331 
L 581 -1331 
L 581 3500 
L 1159 3500 
L 1159 2969 
Q 1341 3281 1617 3432 
Q 1894 3584 2278 3584 
Q 2916 3584 3314 3078 
Q 3713 2572 3713 1747 
Q 3713 922 3314 415 
Q 2916 -91 2278 -91 
Q 1894 -91 1617 61 
Q 1341 213 1159 525 
z
M 3116 1747 
Q 3116 2381 2855 2742 
Q 2594 3103 2138 3103 
Q 1681 3103 1420 2742 
Q 1159 2381 1159 1747 
Q 1159 1113 1420 752 
Q 1681 391 2138 391 
Q 2594 391 2855 752 
Q 3116 1113 3116 1747 
z
" transform="scale(0.015625)"/>
       <path id="DejaVuSans-6f" d="M 1959 3097 
Q 1497 3097 1228 2736 
Q 959 2375 959 1747 
Q 959 1119 1226 758 
Q 1494 397 1959 397 
Q 2419 397 2687 759 
Q 2956 1122 2956 1747 
Q 2956 2369 2687 2733 
Q 2419 3097 1959 3097 
z
M 1959 3584 
Q 2709 3584 3137 3096 
Q 3566 2609 3566 1747 
Q 3566 888 3137 398 
Q 2709 -91 1959 -91 
Q 1206 -91 779 398 
Q 353 888 353 1747 
Q 353 2609 779 3096 
Q 1206 3584 1959 3584 
z
" transform="scale(0.015625)"/>
       <path id="DejaVuSans-63" d="M 3122 3366 
L 3122 2828 
Q 2878 2963 2633 3030 
Q 2388 3097 2138 3097 
Q 1578 3097 1268 2742 
Q 959 2388 959 1747 
Q 959 1106 1268 751 
Q 1578 397 2138 397 
Q 2388 397 2633 464 
Q 2878 531 3122 666 
L 3122 134 
Q 2881 22 2623 -34 
Q 2366 -91 2075 -91 
Q 1284 -91 818 406 
Q 353 903 353 1747 
Q 353 2603 823 3093 
Q 1294 3584 2113 3584 
Q 2378 3584 2631 3529 
Q 2884 3475 3122 3366 
z
" transform="scale(0.015625)"/>
       <path id="DejaVuSans-68" d="M 3513 2113 
L 3513 0 
L 2938 0 
L 2938 2094 
Q 2938 2591 2744 2837 
Q 2550 3084 2163 3084 
Q 1697 3084 1428 2787 
Q 1159 2491 1159 1978 
L 1159 0 
L 581 0 
L 581 4863 
L 1159 4863 
L 1159 2956 
Q 1366 3272 1645 3428 
Q 1925 3584 2291 3584 
Q 2894 3584 3203 3211 
Q 3513 2838 3513 2113 
z
" transform="scale(0.015625)"/>
      </defs>
      <use xlink:href="#DejaVuSans-65"/>
      <use xlink:href="#DejaVuSans-70" x="61.523438"/>
      <use xlink:href="#DejaVuSans-6f" x="125"/>
      <use xlink:href="#DejaVuSans-63" x="186.181641"/>
      <use xlink:href="#DejaVuSans-68" x="241.162109"/>
     </g>
    </g>
   </g>
   <g id="matplotlib.axis_2">
    <g id="ytick_1">
     <g id="line2d_10">
      <defs>
       <path id="m011a281106" d="M 0 0 
L -3.5 0 
" style="stroke: #000000; stroke-width: 0.8"/>
      </defs>
      <g>
       <use xlink:href="#m011a281106" x="72" y="384.48" style="stroke: #000000; stroke-width: 0.8"/>
      </g>
     </g>
     <g id="text_11">
      <!-- 0 -->
      <g transform="translate(58.6375 388.279219) scale(0.1 -0.1)">
       <use xlink:href="#DejaVuSans-30"/>
      </g>
     </g>
    </g>
    <g id="ytick_2">
     <g id="line2d_11">
      <g>
       <use xlink:href="#m011a281106" x="72" y="317.952" style="stroke: #000000; stroke-width: 0.8"/>
      </g>
     </g>
     <g id="text_12">
      <!-- 20 -->
      <g transform="translate(52.275 321.751219) scale(0.1 -0.1)">
       <use xlink:href="#DejaVuSans-32"/>
       <use xlink:href="#DejaVuSans-30" x="63.623047"/>
      </g>
     </g>
    </g>
    <g id="ytick_3">
     <g id="line2d_12">
      <g>
       <use xlink:href="#m011a281106" x="72" y="251.424" style="stroke: #000000; stroke-width: 0.8"/>
      </g>
     </g>
     <g id="text_13">
      <!-- 40 -->
      <g transform="translate(52.275 255.223219) scale(0.1 -0.1)">
       <defs>
        <path id="DejaVuSans-34" d="M 2419 4116 
L 825 1625 
L 2419 1625 
L 2419 4116 
z
M 2253 4666 
L 3047 4666 
L 3047 1625 
L 3713 1625 
L 3713 1100 
L 3047 1100 
L 3047 0 
L 2419 0 
L 2419 1100 
L 313 1100 
L 313 1709 
L 2253 4666 
z
" transform="scale(0.015625)"/>
       </defs>
       <use xlink:href="#DejaVuSans-34"/>
       <use xlink:href="#DejaVuSans-30" x="63.623047"/>
      </g>
     </g>
    </g>
    <g id="ytick_4">
     <g id="line2d_13">
      <g>
       <use xlink:href="#m011a281106" x="72" y="184.896" style="stroke: #000000; stroke-width: 0.8"/>
      </g>
     </g>
     <g id="text_14">
      <!-- 60 -->
      <g transform="translate(52.275 188.695219) scale(0.1 -0.1)">
       <defs>
        <path id="DejaVuSans-36" d="M 2113 2584 
Q 1688 2584 1439 2293 
Q 1191 2003 1191 1497 
Q 1191 994 1439 701 
Q 1688 409 2113 409 
Q 2538 409 2786 701 
Q 3034 994 3034 1497 
Q 3034 2003 2786 2293 
Q 2538 2584 2113 2584 
z
M 3366 4563 
L 3366 3988 
Q 3128 4100 2886 4159 
Q 2644 4219 2406 4219 
Q 1781 4219 1451 3797 
Q 1122 3375 1075 2522 
Q 1259 2794 1537 2939 
Q 1816 3084 2150 3084 
Q 2853 3084 3261 2657 
Q 3669 2231 3669 1497 
Q 3669 778 3244 343 
Q 2819 -91 2113 -91 
Q 1303 -91 875 529 
Q 447 1150 447 2328 
Q 447 3434 972 4092 
Q 1497 4750 2381 4750 
Q 2619 4750 2861 4703 
Q 3103 4656 3366 4563 
z
" transform="scale(0.015625)"/>
       </defs>
       <use xlink:href="#DejaVuSans-36"/>
       <use xlink:href="#DejaVuSans-30" x="63.623047"/>
      </g>
     </g>
    </g>
    <g id="ytick_5">
     <g id="line2d_14">
      <g>
       <use xlink:href="#m011a281106" x="72" y="118.368" style="stroke: #000000; stroke-width: 0.8"/>
      </g>
     </g>
     <g id="text_15">
      <!-- 80 -->
      <g transform="translate(52.275 122.167219) scale(0.1 -0.1)">
       <defs>
        <path id="DejaVuSans-38" d="M 2034 2216 
Q 1584 2216 1326 1975 
Q 1069 1734 1069 1313 
Q 1069 891 1326 650 
Q 1584 409 2034 409 
Q 2484 409 2743 651 
Q 3003 894 3003 1313 
Q 3003 1734 2745 1975 
Q 2488 2216 2034 2216 
z
M 1403 2484 
Q 997 2584 770 2862 
Q 544 3141 544 3541 
Q 544 4100 942 4425 
Q 1341 4750 2034 4750 
Q 2731 4750 3128 4425 
Q 3525 4100 3525 3541 
Q 3525 3141 3298 2862 
Q 3072 2584 2669 2484 
Q 3125 2378 3379 2068 
Q 3634 1759 3634 1313 
Q 3634 634 3220 271 
Q 2806 -91 2034 -91 
Q 1263 -91 848 271 
Q 434 634 434 1313 
Q 434 1759 690 2068 
Q 947 2378 1403 2484 
z
M 1172 3481 
Q 1172 3119 1398 2916 
Q 1625 2713 2034 2713 
Q 2441 2713 2670 2916 
Q 2900 3119 2900 3481 
Q 2900 3844 2670 4047 
Q 2441 4250 2034 4250 
Q 1625 4250 1398 4047 
Q 1172 3844 1172 3481 
z
" transform="scale(0.015625)"/>
       </defs>
       <use xlink:href="#DejaVuSans-38"/>
       <use xlink:href="#DejaVuSans-30" x="63.623047"/>
      </g>
     </g>
    </g>
    <g id="ytick_6">
     <g id="line2d_15">
      <g>
       <use xlink:href="#m011a281106" x="72" y="51.84" style="stroke: #000000; stroke-width: 0.8"/>
      </g>
     </g>
     <g id="text_16">
      <!-- 100 -->
      <g transform="translate(45.9125 55.639219) scale(0.1 -0.1)">
       <use xlink:href="#DejaVuSans-31"/>
       <use xlink:href="#DejaVuSans-30" x="63.623047"/>
       <use xlink:href="#DejaVuSans-30" x="127.246094"/>
      </g>
     </g>
    </g>
    <g id="text_17">
     <!-- rate -->
     <g transform="translate(39.832812 228.31625) rotate(-90) scale(0.1 -0.1)">
      <defs>
       <path id="DejaVuSans-72" d="M 2631 2963 
Q 2534 3019 2420 3045 
Q 2306 3072 2169 3072 
Q 1681 3072 1420 2755 
Q 1159 2438 1159 1844 
L 1159 0 
L 581 0 
L 581 3500 
L 1159 3500 
L 1159 2956 
Q 1341 3275 1631 3429 
Q 1922 3584 2338 3584 
Q 2397 3584 2469 3576 
Q 2541 3569 2628 3553 
L 2631 2963 
z
" transform="scale(0.015625)"/>
       <path id="DejaVuSans-61" d="M 2194 1759 
Q 1497 1759 1228 1600 
Q 959 1441 959 1056 
Q 959 750 1161 570 
Q 1363 391 1709 391 
Q 2188 391 2477 730 
Q 2766 1069 2766 1631 
L 2766 1759 
L 2194 1759 
z
M 3341 1997 
L 3341 0 
L 2766 0 
L 2766 531 
Q 2569 213 2275 61 
Q 1981 -91 1556 -91 
Q 1019 -91 701 211 
Q 384 513 384 1019 
Q 384 1609 779 1909 
Q 1175 2209 1959 2209 
L 2766 2209 
L 2766 2266 
Q 2766 2663 2505 2880 
Q 2244 3097 1772 3097 
Q 1472 3097 1187 3025 
Q 903 2953 641 2809 
L 641 3341 
Q 956 3463 1253 3523 
Q 1550 3584 1831 3584 
Q 2591 3584 2966 3190 
Q 3341 2797 3341 1997 
z
" transform="scale(0.015625)"/>
       <path id="DejaVuSans-74" d="M 1172 4494 
L 1172 3500 
L 2356 3500 
L 2356 3053 
L 1172 3053 
L 1172 1153 
Q 1172 725 1289 603 
Q 1406 481 1766 481 
L 2356 481 
L 2356 0 
L 1766 0 
Q 1100 0 847 248 
Q 594 497 594 1153 
L 594 3053 
L 172 3053 
L 172 3500 
L 594 3500 
L 594 4494 
L 1172 4494 
z
" transform="scale(0.015625)"/>
      </defs>
      <use xlink:href="#DejaVuSans-72"/>
      <use xlink:href="#DejaVuSans-61" x="41.113281"/>
      <use xlink:href="#DejaVuSans-74" x="102.392578"/>
      <use xlink:href="#DejaVuSans-65" x="141.601562"/>
     </g>
    </g>
   </g>
   <g id="line2d_16">
    <path d="M 92.290909 315.787392 
L 94.280214 240.105454 
L 96.269519 209.100895 
L 98.258824 191.558304 
L 102.237433 164.823803 
L 104.226738 161.315947 
L 106.216043 151.976791 
L 108.205348 146.730895 
L 112.183957 142.914615 
L 114.173262 137.322988 
L 116.162567 137.226499 
L 118.151872 136.410152 
L 120.141176 131.365176 
L 122.130481 128.208532 
L 124.119786 128.11849 
L 126.109091 127.550546 
L 128.098396 123.761751 
L 130.087701 121.649988 
L 132.077005 120.777985 
L 134.06631 122.034116 
L 136.055615 119.575353 
L 138.04492 121.906538 
L 140.034225 118.866711 
L 142.023529 119.386614 
L 144.012834 119.203534 
L 146.002139 116.960538 
L 147.991444 112.914812 
L 149.980749 111.602418 
L 151.970053 113.696874 
L 153.959358 112.980187 
L 155.948663 113.714131 
L 157.937968 112.40496 
L 159.927273 112.449499 
L 161.916578 111.823515 
L 163.905882 108.48539 
L 165.895187 110.175466 
L 167.884492 110.836345 
L 169.873797 108.027817 
L 171.863102 107.009762 
L 173.852406 107.539334 
L 175.841711 108.658217 
L 177.831016 109.925235 
L 179.820321 108.102252 
L 181.809626 106.445245 
L 183.79893 108.832516 
L 185.788235 106.18339 
L 187.77754 106.936495 
L 189.766845 106.916623 
L 191.75615 105.685339 
L 193.745455 103.221678 
L 195.734759 105.073237 
L 197.724064 104.066982 
L 199.713369 105.817839 
L 201.702674 105.618822 
L 203.691979 101.441839 
L 205.681283 105.912475 
L 207.670588 104.632566 
L 209.659893 104.582012 
L 211.649198 105.582708 
L 213.638503 103.950901 
L 215.627807 103.828552 
L 217.617112 102.635868 
L 219.606417 101.764703 
L 221.595722 103.530178 
L 223.585027 103.629839 
L 225.574332 104.056476 
L 227.563636 101.118771 
L 229.552941 102.430354 
L 231.542246 99.357865 
L 233.531551 100.967313 
L 235.520856 100.151245 
L 237.51016 101.182827 
L 239.499465 101.066137 
L 241.48877 104.066373 
L 243.478075 100.85075 
L 245.46738 104.609649 
L 247.456684 101.045326 
L 249.445989 101.326062 
L 251.435294 105.375468 
L 253.424599 99.256351 
L 255.413904 101.301521 
L 257.403209 101.489905 
L 259.392513 100.481342 
L 261.381818 101.658418 
L 263.371123 101.954762 
L 265.360428 102.539202 
L 267.349733 99.650706 
L 269.339037 99.635225 
L 271.328342 100.121933 
L 273.317647 101.589541 
L 275.306952 97.510214 
L 277.296257 100.532835 
L 279.285561 97.705983 
L 281.274866 98.214491 
L 283.264171 101.191506 
L 285.253476 99.252722 
L 287.242781 102.153932 
L 289.232086 98.96323 
L 291.22139 98.805402 
L 293.210695 100.255245 
L 295.2 102.120077 
L 297.189305 96.68171 
L 299.17861 100.204133 
L 301.167914 100.150001 
L 303.157219 102.509331 
L 305.146524 99.649183 
L 307.135829 100.168654 
L 309.125134 98.40191 
L 311.114439 98.60037 
L 313.103743 101.370373 
L 315.093048 99.533229 
L 317.082353 98.680413 
L 319.071658 101.324514 
L 321.060963 98.280855 
L 323.050267 100.160609 
L 325.039572 98.863823 
L 327.028877 95.524505 
L 329.018182 98.043567 
L 331.007487 98.257 
L 332.996791 96.351715 
L 334.986096 99.770061 
L 336.975401 101.850558 
L 338.964706 100.520754 
L 340.954011 102.086933 
L 342.943316 97.582644 
L 344.93262 99.652457 
L 346.921925 96.56969 
L 350.900535 101.402147 
L 352.88984 98.442287 
L 354.879144 101.50663 
L 356.868449 96.690415 
L 358.857754 99.222674 
L 360.847059 99.788283 
L 362.836364 100.780147 
L 364.825668 98.709268 
L 366.814973 99.933955 
L 368.804278 99.939183 
L 370.793583 96.732899 
L 372.782888 100.019277 
L 374.772193 99.3686 
L 376.761497 98.209872 
L 378.750802 97.952839 
L 380.740107 95.539732 
L 382.729412 99.503435 
L 384.718717 99.569444 
L 386.708021 97.097713 
L 388.697326 95.719056 
L 390.686631 97.932054 
L 392.675936 98.0441 
L 394.665241 97.14479 
L 396.654545 100.298566 
L 398.64385 97.244883 
L 400.633155 96.996454 
L 402.62246 100.450253 
L 404.611765 96.447645 
L 406.60107 99.119993 
L 408.590374 100.866815 
L 410.579679 96.865171 
L 412.568984 98.591817 
L 414.558289 97.418243 
L 418.536898 98.616612 
L 420.526203 96.783808 
L 422.515508 97.358527 
L 424.504813 97.055052 
L 426.494118 97.78354 
L 428.483422 100.339476 
L 430.472727 97.005691 
L 432.462032 99.211939 
L 434.451337 97.600231 
L 436.440642 99.80422 
L 438.429947 95.973703 
L 440.419251 98.325775 
L 442.408556 98.082523 
L 444.397861 97.602262 
L 446.387166 99.325609 
L 448.376471 97.803538 
L 450.365775 98.937547 
L 452.35508 98.019255 
L 454.344385 98.906586 
L 456.33369 98.823014 
L 458.322995 95.998853 
L 460.312299 101.072227 
L 462.301604 95.240166 
L 464.290909 96.900802 
L 466.280214 96.816749 
L 468.269519 98.674703 
L 470.258824 97.481029 
L 472.248128 96.987064 
L 474.237433 101.970827 
L 476.226738 98.29154 
L 478.216043 99.833355 
L 480.205348 97.935861 
L 482.194652 100.711499 
L 484.183957 96.39463 
L 486.173262 99.421514 
L 488.162567 98.792484 
L 490.151872 97.375176 
L 492.141176 97.966138 
L 494.130481 94.825381 
L 496.119786 97.789301 
L 498.109091 96.345599 
L 498.109091 96.345599 
" clip-path="url(#p4aebccb39f)" style="fill: none; stroke: #0000ff; stroke-width: 1.5; stroke-linecap: square"/>
   </g>
   <g id="line2d_17">
    <path d="M 92.290909 237.48649 
L 94.280214 186.467292 
L 96.269519 160.634765 
L 98.258824 149.723695 
L 100.248128 140.709002 
L 102.237433 133.977453 
L 104.226738 130.856212 
L 106.216043 125.056152 
L 108.205348 123.483046 
L 110.194652 121.100748 
L 112.183957 119.845658 
L 114.173262 115.658372 
L 116.162567 115.559167 
L 118.151872 114.178556 
L 120.141176 113.566962 
L 122.130481 112.451022 
L 124.119786 110.55429 
L 126.109091 111.667184 
L 128.098396 108.479782 
L 130.087701 109.934422 
L 132.077005 108.563556 
L 134.06631 106.949615 
L 136.055615 106.565005 
L 138.04492 105.875296 
L 140.034225 108.871929 
L 142.023529 104.772985 
L 144.012834 104.541508 
L 146.002139 103.485385 
L 147.991444 104.712559 
L 149.980749 103.294996 
L 151.970053 102.684747 
L 153.959358 104.140072 
L 155.948663 102.472253 
L 157.937968 102.883561 
L 159.927273 102.149034 
L 161.916578 101.566751 
L 163.905882 102.359142 
L 165.895187 101.474425 
L 167.884492 100.272579 
L 169.873797 100.780655 
L 171.863102 100.891914 
L 173.852406 100.243622 
L 175.841711 100.57745 
L 177.831016 100.494589 
L 181.809626 100.862272 
L 183.79893 101.3755 
L 185.788235 100.364423 
L 187.77754 99.608629 
L 189.766845 99.303073 
L 191.75615 99.808002 
L 193.745455 99.709889 
L 195.734759 99.34482 
L 197.724064 98.245605 
L 199.713369 98.965565 
L 203.691979 98.146223 
L 205.681283 99.508587 
L 207.670588 98.492461 
L 209.659893 97.877922 
L 211.649198 98.452058 
L 213.638503 98.610622 
L 215.627807 97.881171 
L 217.617112 99.932305 
L 219.606417 98.955617 
L 221.595722 97.810948 
L 223.585027 98.103866 
L 225.574332 98.098511 
L 227.563636 97.321348 
L 229.552941 97.180701 
L 231.542246 98.169368 
L 233.531551 97.91401 
L 235.520856 97.384363 
L 237.51016 98.052246 
L 239.499465 97.86668 
L 241.48877 97.382992 
L 243.478075 97.486663 
L 245.46738 96.887732 
L 247.456684 98.334911 
L 249.445989 96.662981 
L 251.435294 97.627691 
L 253.424599 97.548028 
L 255.413904 96.971202 
L 257.403209 98.271922 
L 259.392513 96.788477 
L 261.381818 98.189087 
L 263.371123 97.143775 
L 265.360428 97.368197 
L 267.349733 97.42106 
L 269.339037 97.122457 
L 271.328342 99.209198 
L 273.317647 96.838879 
L 275.306952 98.270602 
L 277.296257 96.818754 
L 279.285561 96.894661 
L 281.274866 96.611209 
L 283.264171 97.013812 
L 287.242781 96.10661 
L 289.232086 97.208084 
L 291.22139 96.524999 
L 293.210695 100.434544 
L 295.2 96.458482 
L 297.189305 96.306287 
L 299.17861 96.697978 
L 303.157219 96.500635 
L 305.146524 96.907198 
L 307.135829 96.67029 
L 309.125134 96.598647 
L 311.114439 97.055154 
L 313.103743 98.072549 
L 315.093048 96.562153 
L 317.082353 96.583471 
L 319.071658 96.788579 
L 321.060963 96.497082 
L 323.050267 97.049165 
L 325.039572 96.893874 
L 327.028877 96.483048 
L 329.018182 96.538525 
L 331.007487 96.87111 
L 332.996791 96.572 
L 334.986096 96.457035 
L 336.975401 95.702281 
L 338.964706 96.247587 
L 340.954011 96.630725 
L 342.943316 96.074735 
L 344.93262 96.478835 
L 346.921925 96.591338 
L 348.91123 96.871084 
L 350.900535 96.75079 
L 352.88984 96.260251 
L 354.879144 96.492261 
L 356.868449 96.413258 
L 358.857754 96.691862 
L 360.847059 95.965734 
L 362.836364 96.758835 
L 364.825668 96.08448 
L 366.814973 96.809338 
L 368.804278 95.93759 
L 370.793583 96.83492 
L 372.782888 96.240938 
L 374.772193 96.82657 
L 376.761497 96.268042 
L 378.750802 96.012659 
L 380.740107 96.211474 
L 382.729412 96.157976 
L 384.718717 96.75881 
L 386.708021 95.889675 
L 388.697326 97.181995 
L 390.686631 98.063844 
L 392.675936 96.503757 
L 394.665241 96.25345 
L 398.64385 96.346715 
L 400.633155 96.032175 
L 402.62246 96.08514 
L 404.611765 95.601275 
L 406.60107 96.001112 
L 408.590374 96.793782 
L 410.579679 96.172061 
L 412.568984 96.720742 
L 414.558289 96.352324 
L 416.547594 97.081243 
L 418.536898 97.018457 
L 420.526203 96.727493 
L 422.515508 96.749953 
L 424.504813 96.135846 
L 426.494118 95.297013 
L 428.483422 95.730121 
L 430.472727 95.794202 
L 432.462032 104.589676 
L 434.451337 96.41643 
L 436.440642 97.005666 
L 438.429947 95.91782 
L 440.419251 96.063746 
L 442.408556 96.509695 
L 444.397861 96.295958 
L 448.376471 96.306567 
L 450.365775 96.758252 
L 452.35508 96.588546 
L 454.344385 96.0942 
L 456.33369 95.855694 
L 460.312299 95.960177 
L 462.301604 96.891818 
L 464.290909 96.195485 
L 466.280214 95.628887 
L 468.269519 96.458558 
L 470.258824 96.181603 
L 472.248128 95.739587 
L 476.226738 95.786969 
L 478.216043 96.333392 
L 480.205348 96.248069 
L 482.194652 96.475282 
L 484.183957 95.673502 
L 488.162567 96.150033 
L 490.151872 96.009918 
L 492.141176 101.378291 
L 494.130481 95.75253 
L 496.119786 96.07306 
L 498.109091 98.551288 
L 498.109091 98.551288 
" clip-path="url(#p4aebccb39f)" style="fill: none; stroke: #008000; stroke-width: 1.5; stroke-linecap: square"/>
   </g>
   <g id="patch_3">
    <path d="M 72 384.48 
L 72 51.84 
" style="fill: none; stroke: #000000; stroke-width: 0.8; stroke-linejoin: miter; stroke-linecap: square"/>
   </g>
   <g id="patch_4">
    <path d="M 518.4 384.48 
L 518.4 51.84 
" style="fill: none; stroke: #000000; stroke-width: 0.8; stroke-linejoin: miter; stroke-linecap: square"/>
   </g>
   <g id="patch_5">
    <path d="M 72 384.48 
L 518.4 384.48 
" style="fill: none; stroke: #000000; stroke-width: 0.8; stroke-linejoin: miter; stroke-linecap: square"/>
   </g>
   <g id="patch_6">
    <path d="M 72 51.84 
L 518.4 51.84 
" style="fill: none; stroke: #000000; stroke-width: 0.8; stroke-linejoin: miter; stroke-linecap: square"/>
   </g>
   <g id="legend_1">
    <g id="patch_7">
     <path d="M 79 89.19625 
L 160.740625 89.19625 
Q 162.740625 89.19625 162.740625 87.19625 
L 162.740625 58.84 
Q 162.740625 56.84 160.740625 56.84 
L 79 56.84 
Q 77 56.84 77 58.84 
L 77 87.19625 
Q 77 89.19625 79 89.19625 
z
" style="fill: #ffffff; opacity: 0.8; stroke: #cccccc; stroke-linejoin: miter"/>
    </g>
    <g id="line2d_18">
     <path d="M 81 64.938437 
L 91 64.938437 
L 101 64.938437 
" style="fill: none; stroke: #0000ff; stroke-width: 1.5; stroke-linecap: square"/>
    </g>
    <g id="text_18">
     <!-- train mAP -->
     <g transform="translate(109 68.438437) scale(0.1 -0.1)">
      <defs>
       <path id="DejaVuSans-69" d="M 603 3500 
L 1178 3500 
L 1178 0 
L 603 0 
L 603 3500 
z
M 603 4863 
L 1178 4863 
L 1178 4134 
L 603 4134 
L 603 4863 
z
" transform="scale(0.015625)"/>
       <path id="DejaVuSans-6e" d="M 3513 2113 
L 3513 0 
L 2938 0 
L 2938 2094 
Q 2938 2591 2744 2837 
Q 2550 3084 2163 3084 
Q 1697 3084 1428 2787 
Q 1159 2491 1159 1978 
L 1159 0 
L 581 0 
L 581 3500 
L 1159 3500 
L 1159 2956 
Q 1366 3272 1645 3428 
Q 1925 3584 2291 3584 
Q 2894 3584 3203 3211 
Q 3513 2838 3513 2113 
z
" transform="scale(0.015625)"/>
       <path id="DejaVuSans-20" transform="scale(0.015625)"/>
       <path id="DejaVuSans-6d" d="M 3328 2828 
Q 3544 3216 3844 3400 
Q 4144 3584 4550 3584 
Q 5097 3584 5394 3201 
Q 5691 2819 5691 2113 
L 5691 0 
L 5113 0 
L 5113 2094 
Q 5113 2597 4934 2840 
Q 4756 3084 4391 3084 
Q 3944 3084 3684 2787 
Q 3425 2491 3425 1978 
L 3425 0 
L 2847 0 
L 2847 2094 
Q 2847 2600 2669 2842 
Q 2491 3084 2119 3084 
Q 1678 3084 1418 2786 
Q 1159 2488 1159 1978 
L 1159 0 
L 581 0 
L 581 3500 
L 1159 3500 
L 1159 2956 
Q 1356 3278 1631 3431 
Q 1906 3584 2284 3584 
Q 2666 3584 2933 3390 
Q 3200 3197 3328 2828 
z
" transform="scale(0.015625)"/>
       <path id="DejaVuSans-41" d="M 2188 4044 
L 1331 1722 
L 3047 1722 
L 2188 4044 
z
M 1831 4666 
L 2547 4666 
L 4325 0 
L 3669 0 
L 3244 1197 
L 1141 1197 
L 716 0 
L 50 0 
L 1831 4666 
z
" transform="scale(0.015625)"/>
       <path id="DejaVuSans-50" d="M 1259 4147 
L 1259 2394 
L 2053 2394 
Q 2494 2394 2734 2622 
Q 2975 2850 2975 3272 
Q 2975 3691 2734 3919 
Q 2494 4147 2053 4147 
L 1259 4147 
z
M 628 4666 
L 2053 4666 
Q 2838 4666 3239 4311 
Q 3641 3956 3641 3272 
Q 3641 2581 3239 2228 
Q 2838 1875 2053 1875 
L 1259 1875 
L 1259 0 
L 628 0 
L 628 4666 
z
" transform="scale(0.015625)"/>
      </defs>
      <use xlink:href="#DejaVuSans-74"/>
      <use xlink:href="#DejaVuSans-72" x="39.208984"/>
      <use xlink:href="#DejaVuSans-61" x="80.322266"/>
      <use xlink:href="#DejaVuSans-69" x="141.601562"/>
      <use xlink:href="#DejaVuSans-6e" x="169.384766"/>
      <use xlink:href="#DejaVuSans-20" x="232.763672"/>
      <use xlink:href="#DejaVuSans-6d" x="264.550781"/>
      <use xlink:href="#DejaVuSans-41" x="361.962891"/>
      <use xlink:href="#DejaVuSans-50" x="430.371094"/>
     </g>
    </g>
    <g id="line2d_19">
     <path d="M 81 79.616562 
L 91 79.616562 
L 101 79.616562 
" style="fill: none; stroke: #008000; stroke-width: 1.5; stroke-linecap: square"/>
    </g>
    <g id="text_19">
     <!-- valid mAP -->
     <g transform="translate(109 83.116562) scale(0.1 -0.1)">
      <defs>
       <path id="DejaVuSans-76" d="M 191 3500 
L 800 3500 
L 1894 563 
L 2988 3500 
L 3597 3500 
L 2284 0 
L 1503 0 
L 191 3500 
z
" transform="scale(0.015625)"/>
       <path id="DejaVuSans-6c" d="M 603 4863 
L 1178 4863 
L 1178 0 
L 603 0 
L 603 4863 
z
" transform="scale(0.015625)"/>
       <path id="DejaVuSans-64" d="M 2906 2969 
L 2906 4863 
L 3481 4863 
L 3481 0 
L 2906 0 
L 2906 525 
Q 2725 213 2448 61 
Q 2172 -91 1784 -91 
Q 1150 -91 751 415 
Q 353 922 353 1747 
Q 353 2572 751 3078 
Q 1150 3584 1784 3584 
Q 2172 3584 2448 3432 
Q 2725 3281 2906 2969 
z
M 947 1747 
Q 947 1113 1208 752 
Q 1469 391 1925 391 
Q 2381 391 2643 752 
Q 2906 1113 2906 1747 
Q 2906 2381 2643 2742 
Q 2381 3103 1925 3103 
Q 1469 3103 1208 2742 
Q 947 2381 947 1747 
z
" transform="scale(0.015625)"/>
      </defs>
      <use xlink:href="#DejaVuSans-76"/>
      <use xlink:href="#DejaVuSans-61" x="59.179688"/>
      <use xlink:href="#DejaVuSans-6c" x="120.458984"/>
      <use xlink:href="#DejaVuSans-69" x="148.242188"/>
      <use xlink:href="#DejaVuSans-64" x="176.025391"/>
      <use xlink:href="#DejaVuSans-20" x="239.501953"/>
      <use xlink:href="#DejaVuSans-6d" x="271.289062"/>
      <use xlink:href="#DejaVuSans-41" x="368.701172"/>
      <use xlink:href="#DejaVuSans-50" x="437.109375"/>
     </g>
    </g>
   </g>
  </g>
  <g id="axes_2">
   <g id="matplotlib.axis_3">
    <g id="ytick_7">
     <g id="line2d_20">
      <defs>
       <path id="m9285314fd5" d="M 0 0 
L 3.5 0 
" style="stroke: #000000; stroke-width: 0.8"/>
      </defs>
      <g>
       <use xlink:href="#m9285314fd5" x="518.4" y="358.160454" style="stroke: #000000; stroke-width: 0.8"/>
      </g>
     </g>
     <g id="text_20">
      <!-- 0.06 -->
      <g transform="translate(525.4 361.959673) scale(0.1 -0.1)">
       <defs>
        <path id="DejaVuSans-2e" d="M 684 794 
L 1344 794 
L 1344 0 
L 684 0 
L 684 794 
z
" transform="scale(0.015625)"/>
       </defs>
       <use xlink:href="#DejaVuSans-30"/>
       <use xlink:href="#DejaVuSans-2e" x="63.623047"/>
       <use xlink:href="#DejaVuSans-30" x="95.410156"/>
       <use xlink:href="#DejaVuSans-36" x="159.033203"/>
      </g>
     </g>
    </g>
    <g id="ytick_8">
     <g id="line2d_21">
      <g>
       <use xlink:href="#m9285314fd5" x="518.4" y="306.441442" style="stroke: #000000; stroke-width: 0.8"/>
      </g>
     </g>
     <g id="text_21">
      <!-- 0.08 -->
      <g transform="translate(525.4 310.240661) scale(0.1 -0.1)">
       <use xlink:href="#DejaVuSans-30"/>
       <use xlink:href="#DejaVuSans-2e" x="63.623047"/>
       <use xlink:href="#DejaVuSans-30" x="95.410156"/>
       <use xlink:href="#DejaVuSans-38" x="159.033203"/>
      </g>
     </g>
    </g>
    <g id="ytick_9">
     <g id="line2d_22">
      <g>
       <use xlink:href="#m9285314fd5" x="518.4" y="254.72243" style="stroke: #000000; stroke-width: 0.8"/>
      </g>
     </g>
     <g id="text_22">
      <!-- 0.10 -->
      <g transform="translate(525.4 258.521649) scale(0.1 -0.1)">
       <use xlink:href="#DejaVuSans-30"/>
       <use xlink:href="#DejaVuSans-2e" x="63.623047"/>
       <use xlink:href="#DejaVuSans-31" x="95.410156"/>
       <use xlink:href="#DejaVuSans-30" x="159.033203"/>
      </g>
     </g>
    </g>
    <g id="ytick_10">
     <g id="line2d_23">
      <g>
       <use xlink:href="#m9285314fd5" x="518.4" y="203.003418" style="stroke: #000000; stroke-width: 0.8"/>
      </g>
     </g>
     <g id="text_23">
      <!-- 0.12 -->
      <g transform="translate(525.4 206.802637) scale(0.1 -0.1)">
       <use xlink:href="#DejaVuSans-30"/>
       <use xlink:href="#DejaVuSans-2e" x="63.623047"/>
       <use xlink:href="#DejaVuSans-31" x="95.410156"/>
       <use xlink:href="#DejaVuSans-32" x="159.033203"/>
      </g>
     </g>
    </g>
    <g id="ytick_11">
     <g id="line2d_24">
      <g>
       <use xlink:href="#m9285314fd5" x="518.4" y="151.284406" style="stroke: #000000; stroke-width: 0.8"/>
      </g>
     </g>
     <g id="text_24">
      <!-- 0.14 -->
      <g transform="translate(525.4 155.083625) scale(0.1 -0.1)">
       <use xlink:href="#DejaVuSans-30"/>
       <use xlink:href="#DejaVuSans-2e" x="63.623047"/>
       <use xlink:href="#DejaVuSans-31" x="95.410156"/>
       <use xlink:href="#DejaVuSans-34" x="159.033203"/>
      </g>
     </g>
    </g>
    <g id="ytick_12">
     <g id="line2d_25">
      <g>
       <use xlink:href="#m9285314fd5" x="518.4" y="99.565394" style="stroke: #000000; stroke-width: 0.8"/>
      </g>
     </g>
     <g id="text_25">
      <!-- 0.16 -->
      <g transform="translate(525.4 103.364613) scale(0.1 -0.1)">
       <use xlink:href="#DejaVuSans-30"/>
       <use xlink:href="#DejaVuSans-2e" x="63.623047"/>
       <use xlink:href="#DejaVuSans-31" x="95.410156"/>
       <use xlink:href="#DejaVuSans-36" x="159.033203"/>
      </g>
     </g>
    </g>
    <g id="text_26">
     <!-- loss -->
     <g transform="translate(559.264063 227.817812) rotate(-90) scale(0.1 -0.1)">
      <defs>
       <path id="DejaVuSans-73" d="M 2834 3397 
L 2834 2853 
Q 2591 2978 2328 3040 
Q 2066 3103 1784 3103 
Q 1356 3103 1142 2972 
Q 928 2841 928 2578 
Q 928 2378 1081 2264 
Q 1234 2150 1697 2047 
L 1894 2003 
Q 2506 1872 2764 1633 
Q 3022 1394 3022 966 
Q 3022 478 2636 193 
Q 2250 -91 1575 -91 
Q 1294 -91 989 -36 
Q 684 19 347 128 
L 347 722 
Q 666 556 975 473 
Q 1284 391 1588 391 
Q 1994 391 2212 530 
Q 2431 669 2431 922 
Q 2431 1156 2273 1281 
Q 2116 1406 1581 1522 
L 1381 1569 
Q 847 1681 609 1914 
Q 372 2147 372 2553 
Q 372 3047 722 3315 
Q 1072 3584 1716 3584 
Q 2034 3584 2315 3537 
Q 2597 3491 2834 3397 
z
" transform="scale(0.015625)"/>
      </defs>
      <use xlink:href="#DejaVuSans-6c"/>
      <use xlink:href="#DejaVuSans-6f" x="27.783203"/>
      <use xlink:href="#DejaVuSans-73" x="88.964844"/>
      <use xlink:href="#DejaVuSans-73" x="141.064453"/>
     </g>
    </g>
   </g>
   <g id="line2d_26">
    <path d="M 92.290909 66.96 
L 94.280214 154.305526 
L 96.269519 220.51995 
L 98.258824 275.692935 
L 100.248128 280.577806 
L 102.237433 299.197412 
L 104.226738 296.912451 
L 106.216043 309.964549 
L 108.205348 309.591224 
L 110.194652 313.141646 
L 112.183957 312.339746 
L 114.173262 318.972823 
L 116.162567 332.112099 
L 118.151872 331.216764 
L 120.141176 332.198573 
L 122.130481 336.362247 
L 124.119786 321.398082 
L 126.109091 311.520464 
L 128.098396 334.757368 
L 134.06631 348.821859 
L 136.055615 340.327231 
L 138.04492 344.401698 
L 140.034225 338.848826 
L 142.023529 346.754788 
L 144.012834 350.26724 
L 146.002139 346.895843 
L 147.991444 351.319189 
L 149.980749 357.615008 
L 151.970053 357.745219 
L 153.959358 345.331883 
L 155.948663 351.366632 
L 157.937968 348.230743 
L 159.927273 353.464977 
L 161.916578 356.789894 
L 163.905882 349.332302 
L 165.895187 354.426956 
L 167.884492 360.301401 
L 169.873797 356.373284 
L 171.863102 357.745353 
L 173.852406 357.838281 
L 175.841711 358.42186 
L 177.831016 356.928324 
L 179.820321 361.533611 
L 181.809626 358.372397 
L 183.79893 355.712115 
L 185.788235 358.565025 
L 187.77754 360.532529 
L 189.766845 359.109532 
L 191.75615 356.820868 
L 193.745455 357.754966 
L 195.734759 359.763809 
L 197.724064 361.999576 
L 199.713369 363.966685 
L 201.702674 362.003713 
L 203.691979 356.904496 
L 205.681283 357.9182 
L 207.670588 365.363759 
L 209.659893 356.620433 
L 211.649198 363.754769 
L 213.638503 360.388784 
L 215.627807 363.974922 
L 217.617112 358.657701 
L 219.606417 357.476359 
L 221.595722 363.788999 
L 223.585027 365.265075 
L 225.574332 364.784675 
L 227.563636 362.18932 
L 229.552941 364.367783 
L 231.542246 364.206732 
L 233.531551 363.605903 
L 235.520856 364.939009 
L 237.51016 363.454597 
L 239.499465 364.354743 
L 241.48877 359.621171 
L 243.478075 361.035508 
L 247.456684 364.951063 
L 249.445989 366.753544 
L 251.435294 363.790115 
L 253.424599 367.601157 
L 255.413904 366.006175 
L 259.392513 366.762637 
L 261.381818 364.822652 
L 263.371123 364.280313 
L 265.360428 364.869034 
L 267.349733 365.893537 
L 269.339037 363.47165 
L 271.328342 361.543656 
L 273.317647 366.187097 
L 277.296257 363.957482 
L 279.285561 365.594158 
L 281.274866 364.043644 
L 283.264171 366.349103 
L 285.253476 368.264046 
L 287.242781 366.31622 
L 289.232086 362.968384 
L 291.22139 366.255579 
L 293.210695 358.705767 
L 295.2 367.497704 
L 297.189305 367.427988 
L 299.17861 365.766535 
L 301.167914 365.036305 
L 303.157219 367.102952 
L 305.146524 364.085512 
L 307.135829 358.227978 
L 309.125134 364.890549 
L 311.114439 365.072569 
L 313.103743 364.221585 
L 315.093048 368.228784 
L 317.082353 368.017678 
L 319.071658 365.427632 
L 321.060963 368.096862 
L 323.050267 365.540849 
L 325.039572 368.192829 
L 327.028877 365.846207 
L 329.018182 367.727008 
L 331.007487 366.896999 
L 332.996791 365.42969 
L 334.986096 368.483974 
L 336.975401 367.870873 
L 338.964706 367.80034 
L 340.954011 364.99085 
L 342.943316 366.50855 
L 346.921925 362.992413 
L 348.91123 365.938581 
L 350.900535 367.464816 
L 352.88984 367.119706 
L 354.879144 363.167233 
L 356.868449 364.572686 
L 358.857754 368.4329 
L 360.847059 366.55483 
L 362.836364 366.550657 
L 364.825668 367.379563 
L 366.814973 364.550286 
L 368.804278 365.862567 
L 370.793583 366.09856 
L 372.782888 366.635153 
L 374.772193 368.0782 
L 376.761497 365.425529 
L 378.750802 366.095745 
L 380.740107 367.462392 
L 382.729412 365.22017 
L 384.718717 367.314841 
L 386.708021 365.18627 
L 388.697326 367.502426 
L 390.686631 365.386981 
L 392.675936 366.898581 
L 394.665241 364.739992 
L 396.654545 367.601166 
L 398.64385 366.317836 
L 400.633155 367.778523 
L 402.62246 367.504343 
L 404.611765 366.323972 
L 406.60107 368.435502 
L 408.590374 364.39583 
L 410.579679 367.134764 
L 412.568984 367.851085 
L 414.558289 366.75017 
L 416.547594 366.476759 
L 418.536898 364.980157 
L 422.515508 367.594748 
L 424.504813 369.36 
L 426.494118 367.172964 
L 428.483422 367.29742 
L 430.472727 367.593662 
L 432.462032 347.626199 
L 434.451337 363.903535 
L 436.440642 366.02228 
L 438.429947 365.161937 
L 440.419251 368.643064 
L 442.408556 366.716383 
L 444.397861 365.033654 
L 446.387166 365.500225 
L 448.376471 365.401163 
L 450.365775 366.053588 
L 452.35508 367.357395 
L 454.344385 365.183672 
L 456.33369 366.246785 
L 458.322995 363.70575 
L 460.312299 365.393574 
L 462.301604 367.844191 
L 464.290909 368.650127 
L 466.280214 364.539692 
L 468.269519 364.963491 
L 470.258824 366.480746 
L 472.248128 368.301512 
L 474.237433 366.64482 
L 476.226738 366.573489 
L 478.216043 365.167456 
L 480.205348 366.682738 
L 482.194652 366.913958 
L 484.183957 364.730535 
L 486.173262 368.23546 
L 488.162567 367.726504 
L 490.151872 366.241389 
L 492.141176 354.004322 
L 494.130481 365.360019 
L 496.119786 368.308466 
L 498.109091 361.169752 
L 498.109091 361.169752 
" clip-path="url(#p4aebccb39f)" style="fill: none; stroke: #ff0000; stroke-width: 1.5; stroke-linecap: square"/>
   </g>
   <g id="patch_8">
    <path d="M 72 384.48 
L 72 51.84 
" style="fill: none; stroke: #000000; stroke-width: 0.8; stroke-linejoin: miter; stroke-linecap: square"/>
   </g>
   <g id="patch_9">
    <path d="M 518.4 384.48 
L 518.4 51.84 
" style="fill: none; stroke: #000000; stroke-width: 0.8; stroke-linejoin: miter; stroke-linecap: square"/>
   </g>
   <g id="patch_10">
    <path d="M 72 384.48 
L 518.4 384.48 
" style="fill: none; stroke: #000000; stroke-width: 0.8; stroke-linejoin: miter; stroke-linecap: square"/>
   </g>
   <g id="patch_11">
    <path d="M 72 51.84 
L 518.4 51.84 
" style="fill: none; stroke: #000000; stroke-width: 0.8; stroke-linejoin: miter; stroke-linecap: square"/>
   </g>
   <g id="text_27">
    <!-- The learning curve on c_gcn_with_agg/guest/10 -->
    <g transform="translate(151.958438 45.84) scale(0.12 -0.12)">
     <defs>
      <path id="DejaVuSans-54" d="M -19 4666 
L 3928 4666 
L 3928 4134 
L 2272 4134 
L 2272 0 
L 1638 0 
L 1638 4134 
L -19 4134 
L -19 4666 
z
" transform="scale(0.015625)"/>
      <path id="DejaVuSans-67" d="M 2906 1791 
Q 2906 2416 2648 2759 
Q 2391 3103 1925 3103 
Q 1463 3103 1205 2759 
Q 947 2416 947 1791 
Q 947 1169 1205 825 
Q 1463 481 1925 481 
Q 2391 481 2648 825 
Q 2906 1169 2906 1791 
z
M 3481 434 
Q 3481 -459 3084 -895 
Q 2688 -1331 1869 -1331 
Q 1566 -1331 1297 -1286 
Q 1028 -1241 775 -1147 
L 775 -588 
Q 1028 -725 1275 -790 
Q 1522 -856 1778 -856 
Q 2344 -856 2625 -561 
Q 2906 -266 2906 331 
L 2906 616 
Q 2728 306 2450 153 
Q 2172 0 1784 0 
Q 1141 0 747 490 
Q 353 981 353 1791 
Q 353 2603 747 3093 
Q 1141 3584 1784 3584 
Q 2172 3584 2450 3431 
Q 2728 3278 2906 2969 
L 2906 3500 
L 3481 3500 
L 3481 434 
z
" transform="scale(0.015625)"/>
      <path id="DejaVuSans-75" d="M 544 1381 
L 544 3500 
L 1119 3500 
L 1119 1403 
Q 1119 906 1312 657 
Q 1506 409 1894 409 
Q 2359 409 2629 706 
Q 2900 1003 2900 1516 
L 2900 3500 
L 3475 3500 
L 3475 0 
L 2900 0 
L 2900 538 
Q 2691 219 2414 64 
Q 2138 -91 1772 -91 
Q 1169 -91 856 284 
Q 544 659 544 1381 
z
M 1991 3584 
L 1991 3584 
z
" transform="scale(0.015625)"/>
      <path id="DejaVuSans-5f" d="M 3263 -1063 
L 3263 -1509 
L -63 -1509 
L -63 -1063 
L 3263 -1063 
z
" transform="scale(0.015625)"/>
      <path id="DejaVuSans-77" d="M 269 3500 
L 844 3500 
L 1563 769 
L 2278 3500 
L 2956 3500 
L 3675 769 
L 4391 3500 
L 4966 3500 
L 4050 0 
L 3372 0 
L 2619 2869 
L 1863 0 
L 1184 0 
L 269 3500 
z
" transform="scale(0.015625)"/>
      <path id="DejaVuSans-2f" d="M 1625 4666 
L 2156 4666 
L 531 -594 
L 0 -594 
L 1625 4666 
z
" transform="scale(0.015625)"/>
     </defs>
     <use xlink:href="#DejaVuSans-54"/>
     <use xlink:href="#DejaVuSans-68" x="61.083984"/>
     <use xlink:href="#DejaVuSans-65" x="124.462891"/>
     <use xlink:href="#DejaVuSans-20" x="185.986328"/>
     <use xlink:href="#DejaVuSans-6c" x="217.773438"/>
     <use xlink:href="#DejaVuSans-65" x="245.556641"/>
     <use xlink:href="#DejaVuSans-61" x="307.080078"/>
     <use xlink:href="#DejaVuSans-72" x="368.359375"/>
     <use xlink:href="#DejaVuSans-6e" x="407.722656"/>
     <use xlink:href="#DejaVuSans-69" x="471.101562"/>
     <use xlink:href="#DejaVuSans-6e" x="498.884766"/>
     <use xlink:href="#DejaVuSans-67" x="562.263672"/>
     <use xlink:href="#DejaVuSans-20" x="625.740234"/>
     <use xlink:href="#DejaVuSans-63" x="657.527344"/>
     <use xlink:href="#DejaVuSans-75" x="712.507812"/>
     <use xlink:href="#DejaVuSans-72" x="775.886719"/>
     <use xlink:href="#DejaVuSans-76" x="817"/>
     <use xlink:href="#DejaVuSans-65" x="876.179688"/>
     <use xlink:href="#DejaVuSans-20" x="937.703125"/>
     <use xlink:href="#DejaVuSans-6f" x="969.490234"/>
     <use xlink:href="#DejaVuSans-6e" x="1030.671875"/>
     <use xlink:href="#DejaVuSans-20" x="1094.050781"/>
     <use xlink:href="#DejaVuSans-63" x="1125.837891"/>
     <use xlink:href="#DejaVuSans-5f" x="1180.818359"/>
     <use xlink:href="#DejaVuSans-67" x="1230.818359"/>
     <use xlink:href="#DejaVuSans-63" x="1294.294922"/>
     <use xlink:href="#DejaVuSans-6e" x="1349.275391"/>
     <use xlink:href="#DejaVuSans-5f" x="1412.654297"/>
     <use xlink:href="#DejaVuSans-77" x="1462.654297"/>
     <use xlink:href="#DejaVuSans-69" x="1544.441406"/>
     <use xlink:href="#DejaVuSans-74" x="1572.224609"/>
     <use xlink:href="#DejaVuSans-68" x="1611.433594"/>
     <use xlink:href="#DejaVuSans-5f" x="1674.8125"/>
     <use xlink:href="#DejaVuSans-61" x="1724.8125"/>
     <use xlink:href="#DejaVuSans-67" x="1786.091797"/>
     <use xlink:href="#DejaVuSans-67" x="1849.568359"/>
     <use xlink:href="#DejaVuSans-2f" x="1913.044922"/>
     <use xlink:href="#DejaVuSans-67" x="1946.736328"/>
     <use xlink:href="#DejaVuSans-75" x="2010.212891"/>
     <use xlink:href="#DejaVuSans-65" x="2073.591797"/>
     <use xlink:href="#DejaVuSans-73" x="2135.115234"/>
     <use xlink:href="#DejaVuSans-74" x="2187.214844"/>
     <use xlink:href="#DejaVuSans-2f" x="2226.423828"/>
     <use xlink:href="#DejaVuSans-31" x="2260.115234"/>
     <use xlink:href="#DejaVuSans-30" x="2323.738281"/>
    </g>
   </g>
   <g id="legend_2">
    <g id="patch_12">
     <path d="M 460.084375 74.518125 
L 511.4 74.518125 
Q 513.4 74.518125 513.4 72.518125 
L 513.4 58.84 
Q 513.4 56.84 511.4 56.84 
L 460.084375 56.84 
Q 458.084375 56.84 458.084375 58.84 
L 458.084375 72.518125 
Q 458.084375 74.518125 460.084375 74.518125 
z
" style="fill: #ffffff; opacity: 0.8; stroke: #cccccc; stroke-linejoin: miter"/>
    </g>
    <g id="line2d_27">
     <path d="M 462.084375 64.938438 
L 472.084375 64.938438 
L 482.084375 64.938438 
" style="fill: none; stroke: #ff0000; stroke-width: 1.5; stroke-linecap: square"/>
    </g>
    <g id="text_28">
     <!-- loss -->
     <g transform="translate(490.084375 68.438438) scale(0.1 -0.1)">
      <use xlink:href="#DejaVuSans-6c"/>
      <use xlink:href="#DejaVuSans-6f" x="27.783203"/>
      <use xlink:href="#DejaVuSans-73" x="88.964844"/>
      <use xlink:href="#DejaVuSans-73" x="141.064453"/>
     </g>
    </g>
   </g>
  </g>
 </g>
 <defs>
  <clipPath id="p4aebccb39f">
   <rect x="72" y="51.84" width="446.4" height="332.64"/>
  </clipPath>
 </defs>
</svg>
