<?xml version="1.0" encoding="utf-8" standalone="no"?>
<!DOCTYPE svg PUBLIC "-//W3C//DTD SVG 1.1//EN"
  "http://www.w3.org/Graphics/SVG/1.1/DTD/svg11.dtd">
<svg xmlns:xlink="http://www.w3.org/1999/xlink" width="576pt" height="432pt" viewBox="0 0 576 432" xmlns="http://www.w3.org/2000/svg" version="1.1">
 <metadata>
  <rdf:RDF xmlns:dc="http://purl.org/dc/elements/1.1/" xmlns:cc="http://creativecommons.org/ns#" xmlns:rdf="http://www.w3.org/1999/02/22-rdf-syntax-ns#">
   <cc:Work>
    <dc:type rdf:resource="http://purl.org/dc/dcmitype/StillImage"/>
    <dc:date>2023-12-26T13:14:40.700282</dc:date>
    <dc:format>image/svg+xml</dc:format>
    <dc:creator>
     <cc:Agent>
      <dc:title>Matplotlib v3.7.1, https://matplotlib.org/</dc:title>
     </cc:Agent>
    </dc:creator>
   </cc:Work>
  </rdf:RDF>
 </metadata>
 <defs>
  <style type="text/css">*{stroke-linejoin: round; stroke-linecap: butt}</style>
 </defs>
 <g id="figure_1">
  <g id="patch_1">
   <path d="M 0 432 
L 576 432 
L 576 0 
L 0 0 
z
" style="fill: #ffffff"/>
  </g>
  <g id="axes_1">
   <g id="patch_2">
    <path d="M 72 384.48 
L 518.4 384.48 
L 518.4 51.84 
L 72 51.84 
z
" style="fill: #ffffff"/>
   </g>
   <g id="matplotlib.axis_1">
    <g id="xtick_1">
     <g id="line2d_1">
      <defs>
       <path id="m927b5e2c4c" d="M 0 0 
L 0 3.5 
" style="stroke: #000000; stroke-width: 0.8"/>
      </defs>
      <g>
       <use xlink:href="#m927b5e2c4c" x="92.290909" y="384.48" style="stroke: #000000; stroke-width: 0.8"/>
      </g>
     </g>
     <g id="text_1">
      <!-- 0 -->
      <g transform="translate(89.109659 399.078438) scale(0.1 -0.1)">
       <defs>
        <path id="DejaVuSans-30" d="M 2034 4250 
Q 1547 4250 1301 3770 
Q 1056 3291 1056 2328 
Q 1056 1369 1301 889 
Q 1547 409 2034 409 
Q 2525 409 2770 889 
Q 3016 1369 3016 2328 
Q 3016 3291 2770 3770 
Q 2525 4250 2034 4250 
z
M 2034 4750 
Q 2819 4750 3233 4129 
Q 3647 3509 3647 2328 
Q 3647 1150 3233 529 
Q 2819 -91 2034 -91 
Q 1250 -91 836 529 
Q 422 1150 422 2328 
Q 422 3509 836 4129 
Q 1250 4750 2034 4750 
z
" transform="scale(0.015625)"/>
       </defs>
       <use xlink:href="#DejaVuSans-30"/>
      </g>
     </g>
    </g>
    <g id="xtick_2">
     <g id="line2d_2">
      <g>
       <use xlink:href="#m927b5e2c4c" x="190.314625" y="384.48" style="stroke: #000000; stroke-width: 0.8"/>
      </g>
     </g>
     <g id="text_2">
      <!-- 50 -->
      <g transform="translate(183.952125 399.078438) scale(0.1 -0.1)">
       <defs>
        <path id="DejaVuSans-35" d="M 691 4666 
L 3169 4666 
L 3169 4134 
L 1269 4134 
L 1269 2991 
Q 1406 3038 1543 3061 
Q 1681 3084 1819 3084 
Q 2600 3084 3056 2656 
Q 3513 2228 3513 1497 
Q 3513 744 3044 326 
Q 2575 -91 1722 -91 
Q 1428 -91 1123 -41 
Q 819 9 494 109 
L 494 744 
Q 775 591 1075 516 
Q 1375 441 1709 441 
Q 2250 441 2565 725 
Q 2881 1009 2881 1497 
Q 2881 1984 2565 2268 
Q 2250 2553 1709 2553 
Q 1456 2553 1204 2497 
Q 953 2441 691 2322 
L 691 4666 
z
" transform="scale(0.015625)"/>
       </defs>
       <use xlink:href="#DejaVuSans-35"/>
       <use xlink:href="#DejaVuSans-30" x="63.623047"/>
      </g>
     </g>
    </g>
    <g id="xtick_3">
     <g id="line2d_3">
      <g>
       <use xlink:href="#m927b5e2c4c" x="288.33834" y="384.48" style="stroke: #000000; stroke-width: 0.8"/>
      </g>
     </g>
     <g id="text_3">
      <!-- 100 -->
      <g transform="translate(278.79459 399.078438) scale(0.1 -0.1)">
       <defs>
        <path id="DejaVuSans-31" d="M 794 531 
L 1825 531 
L 1825 4091 
L 703 3866 
L 703 4441 
L 1819 4666 
L 2450 4666 
L 2450 531 
L 3481 531 
L 3481 0 
L 794 0 
L 794 531 
z
" transform="scale(0.015625)"/>
       </defs>
       <use xlink:href="#DejaVuSans-31"/>
       <use xlink:href="#DejaVuSans-30" x="63.623047"/>
       <use xlink:href="#DejaVuSans-30" x="127.246094"/>
      </g>
     </g>
    </g>
    <g id="xtick_4">
     <g id="line2d_4">
      <g>
       <use xlink:href="#m927b5e2c4c" x="386.362055" y="384.48" style="stroke: #000000; stroke-width: 0.8"/>
      </g>
     </g>
     <g id="text_4">
      <!-- 150 -->
      <g transform="translate(376.818305 399.078438) scale(0.1 -0.1)">
       <use xlink:href="#DejaVuSans-31"/>
       <use xlink:href="#DejaVuSans-35" x="63.623047"/>
       <use xlink:href="#DejaVuSans-30" x="127.246094"/>
      </g>
     </g>
    </g>
    <g id="xtick_5">
     <g id="line2d_5">
      <g>
       <use xlink:href="#m927b5e2c4c" x="484.385771" y="384.48" style="stroke: #000000; stroke-width: 0.8"/>
      </g>
     </g>
     <g id="text_5">
      <!-- 200 -->
      <g transform="translate(474.842021 399.078438) scale(0.1 -0.1)">
       <defs>
        <path id="DejaVuSans-32" d="M 1228 531 
L 3431 531 
L 3431 0 
L 469 0 
L 469 531 
Q 828 903 1448 1529 
Q 2069 2156 2228 2338 
Q 2531 2678 2651 2914 
Q 2772 3150 2772 3378 
Q 2772 3750 2511 3984 
Q 2250 4219 1831 4219 
Q 1534 4219 1204 4116 
Q 875 4013 500 3803 
L 500 4441 
Q 881 4594 1212 4672 
Q 1544 4750 1819 4750 
Q 2544 4750 2975 4387 
Q 3406 4025 3406 3419 
Q 3406 3131 3298 2873 
Q 3191 2616 2906 2266 
Q 2828 2175 2409 1742 
Q 1991 1309 1228 531 
z
" transform="scale(0.015625)"/>
       </defs>
       <use xlink:href="#DejaVuSans-32"/>
       <use xlink:href="#DejaVuSans-30" x="63.623047"/>
       <use xlink:href="#DejaVuSans-30" x="127.246094"/>
      </g>
     </g>
    </g>
    <g id="text_6">
     <!-- epoch -->
     <g transform="translate(279.971875 412.756563) scale(0.1 -0.1)">
      <defs>
       <path id="DejaVuSans-65" d="M 3597 1894 
L 3597 1613 
L 953 1613 
Q 991 1019 1311 708 
Q 1631 397 2203 397 
Q 2534 397 2845 478 
Q 3156 559 3463 722 
L 3463 178 
Q 3153 47 2828 -22 
Q 2503 -91 2169 -91 
Q 1331 -91 842 396 
Q 353 884 353 1716 
Q 353 2575 817 3079 
Q 1281 3584 2069 3584 
Q 2775 3584 3186 3129 
Q 3597 2675 3597 1894 
z
M 3022 2063 
Q 3016 2534 2758 2815 
Q 2500 3097 2075 3097 
Q 1594 3097 1305 2825 
Q 1016 2553 972 2059 
L 3022 2063 
z
" transform="scale(0.015625)"/>
       <path id="DejaVuSans-70" d="M 1159 525 
L 1159 -1331 
L 581 -1331 
L 581 3500 
L 1159 3500 
L 1159 2969 
Q 1341 3281 1617 3432 
Q 1894 3584 2278 3584 
Q 2916 3584 3314 3078 
Q 3713 2572 3713 1747 
Q 3713 922 3314 415 
Q 2916 -91 2278 -91 
Q 1894 -91 1617 61 
Q 1341 213 1159 525 
z
M 3116 1747 
Q 3116 2381 2855 2742 
Q 2594 3103 2138 3103 
Q 1681 3103 1420 2742 
Q 1159 2381 1159 1747 
Q 1159 1113 1420 752 
Q 1681 391 2138 391 
Q 2594 391 2855 752 
Q 3116 1113 3116 1747 
z
" transform="scale(0.015625)"/>
       <path id="DejaVuSans-6f" d="M 1959 3097 
Q 1497 3097 1228 2736 
Q 959 2375 959 1747 
Q 959 1119 1226 758 
Q 1494 397 1959 397 
Q 2419 397 2687 759 
Q 2956 1122 2956 1747 
Q 2956 2369 2687 2733 
Q 2419 3097 1959 3097 
z
M 1959 3584 
Q 2709 3584 3137 3096 
Q 3566 2609 3566 1747 
Q 3566 888 3137 398 
Q 2709 -91 1959 -91 
Q 1206 -91 779 398 
Q 353 888 353 1747 
Q 353 2609 779 3096 
Q 1206 3584 1959 3584 
z
" transform="scale(0.015625)"/>
       <path id="DejaVuSans-63" d="M 3122 3366 
L 3122 2828 
Q 2878 2963 2633 3030 
Q 2388 3097 2138 3097 
Q 1578 3097 1268 2742 
Q 959 2388 959 1747 
Q 959 1106 1268 751 
Q 1578 397 2138 397 
Q 2388 397 2633 464 
Q 2878 531 3122 666 
L 3122 134 
Q 2881 22 2623 -34 
Q 2366 -91 2075 -91 
Q 1284 -91 818 406 
Q 353 903 353 1747 
Q 353 2603 823 3093 
Q 1294 3584 2113 3584 
Q 2378 3584 2631 3529 
Q 2884 3475 3122 3366 
z
" transform="scale(0.015625)"/>
       <path id="DejaVuSans-68" d="M 3513 2113 
L 3513 0 
L 2938 0 
L 2938 2094 
Q 2938 2591 2744 2837 
Q 2550 3084 2163 3084 
Q 1697 3084 1428 2787 
Q 1159 2491 1159 1978 
L 1159 0 
L 581 0 
L 581 4863 
L 1159 4863 
L 1159 2956 
Q 1366 3272 1645 3428 
Q 1925 3584 2291 3584 
Q 2894 3584 3203 3211 
Q 3513 2838 3513 2113 
z
" transform="scale(0.015625)"/>
      </defs>
      <use xlink:href="#DejaVuSans-65"/>
      <use xlink:href="#DejaVuSans-70" x="61.523438"/>
      <use xlink:href="#DejaVuSans-6f" x="125"/>
      <use xlink:href="#DejaVuSans-63" x="186.181641"/>
      <use xlink:href="#DejaVuSans-68" x="241.162109"/>
     </g>
    </g>
   </g>
   <g id="matplotlib.axis_2">
    <g id="ytick_1">
     <g id="line2d_6">
      <defs>
       <path id="m28f044601d" d="M 0 0 
L -3.5 0 
" style="stroke: #000000; stroke-width: 0.8"/>
      </defs>
      <g>
       <use xlink:href="#m28f044601d" x="72" y="384.48" style="stroke: #000000; stroke-width: 0.8"/>
      </g>
     </g>
     <g id="text_7">
      <!-- 0 -->
      <g transform="translate(58.6375 388.279219) scale(0.1 -0.1)">
       <use xlink:href="#DejaVuSans-30"/>
      </g>
     </g>
    </g>
    <g id="ytick_2">
     <g id="line2d_7">
      <g>
       <use xlink:href="#m28f044601d" x="72" y="317.952" style="stroke: #000000; stroke-width: 0.8"/>
      </g>
     </g>
     <g id="text_8">
      <!-- 20 -->
      <g transform="translate(52.275 321.751219) scale(0.1 -0.1)">
       <use xlink:href="#DejaVuSans-32"/>
       <use xlink:href="#DejaVuSans-30" x="63.623047"/>
      </g>
     </g>
    </g>
    <g id="ytick_3">
     <g id="line2d_8">
      <g>
       <use xlink:href="#m28f044601d" x="72" y="251.424" style="stroke: #000000; stroke-width: 0.8"/>
      </g>
     </g>
     <g id="text_9">
      <!-- 40 -->
      <g transform="translate(52.275 255.223219) scale(0.1 -0.1)">
       <defs>
        <path id="DejaVuSans-34" d="M 2419 4116 
L 825 1625 
L 2419 1625 
L 2419 4116 
z
M 2253 4666 
L 3047 4666 
L 3047 1625 
L 3713 1625 
L 3713 1100 
L 3047 1100 
L 3047 0 
L 2419 0 
L 2419 1100 
L 313 1100 
L 313 1709 
L 2253 4666 
z
" transform="scale(0.015625)"/>
       </defs>
       <use xlink:href="#DejaVuSans-34"/>
       <use xlink:href="#DejaVuSans-30" x="63.623047"/>
      </g>
     </g>
    </g>
    <g id="ytick_4">
     <g id="line2d_9">
      <g>
       <use xlink:href="#m28f044601d" x="72" y="184.896" style="stroke: #000000; stroke-width: 0.8"/>
      </g>
     </g>
     <g id="text_10">
      <!-- 60 -->
      <g transform="translate(52.275 188.695219) scale(0.1 -0.1)">
       <defs>
        <path id="DejaVuSans-36" d="M 2113 2584 
Q 1688 2584 1439 2293 
Q 1191 2003 1191 1497 
Q 1191 994 1439 701 
Q 1688 409 2113 409 
Q 2538 409 2786 701 
Q 3034 994 3034 1497 
Q 3034 2003 2786 2293 
Q 2538 2584 2113 2584 
z
M 3366 4563 
L 3366 3988 
Q 3128 4100 2886 4159 
Q 2644 4219 2406 4219 
Q 1781 4219 1451 3797 
Q 1122 3375 1075 2522 
Q 1259 2794 1537 2939 
Q 1816 3084 2150 3084 
Q 2853 3084 3261 2657 
Q 3669 2231 3669 1497 
Q 3669 778 3244 343 
Q 2819 -91 2113 -91 
Q 1303 -91 875 529 
Q 447 1150 447 2328 
Q 447 3434 972 4092 
Q 1497 4750 2381 4750 
Q 2619 4750 2861 4703 
Q 3103 4656 3366 4563 
z
" transform="scale(0.015625)"/>
       </defs>
       <use xlink:href="#DejaVuSans-36"/>
       <use xlink:href="#DejaVuSans-30" x="63.623047"/>
      </g>
     </g>
    </g>
    <g id="ytick_5">
     <g id="line2d_10">
      <g>
       <use xlink:href="#m28f044601d" x="72" y="118.368" style="stroke: #000000; stroke-width: 0.8"/>
      </g>
     </g>
     <g id="text_11">
      <!-- 80 -->
      <g transform="translate(52.275 122.167219) scale(0.1 -0.1)">
       <defs>
        <path id="DejaVuSans-38" d="M 2034 2216 
Q 1584 2216 1326 1975 
Q 1069 1734 1069 1313 
Q 1069 891 1326 650 
Q 1584 409 2034 409 
Q 2484 409 2743 651 
Q 3003 894 3003 1313 
Q 3003 1734 2745 1975 
Q 2488 2216 2034 2216 
z
M 1403 2484 
Q 997 2584 770 2862 
Q 544 3141 544 3541 
Q 544 4100 942 4425 
Q 1341 4750 2034 4750 
Q 2731 4750 3128 4425 
Q 3525 4100 3525 3541 
Q 3525 3141 3298 2862 
Q 3072 2584 2669 2484 
Q 3125 2378 3379 2068 
Q 3634 1759 3634 1313 
Q 3634 634 3220 271 
Q 2806 -91 2034 -91 
Q 1263 -91 848 271 
Q 434 634 434 1313 
Q 434 1759 690 2068 
Q 947 2378 1403 2484 
z
M 1172 3481 
Q 1172 3119 1398 2916 
Q 1625 2713 2034 2713 
Q 2441 2713 2670 2916 
Q 2900 3119 2900 3481 
Q 2900 3844 2670 4047 
Q 2441 4250 2034 4250 
Q 1625 4250 1398 4047 
Q 1172 3844 1172 3481 
z
" transform="scale(0.015625)"/>
       </defs>
       <use xlink:href="#DejaVuSans-38"/>
       <use xlink:href="#DejaVuSans-30" x="63.623047"/>
      </g>
     </g>
    </g>
    <g id="ytick_6">
     <g id="line2d_11">
      <g>
       <use xlink:href="#m28f044601d" x="72" y="51.84" style="stroke: #000000; stroke-width: 0.8"/>
      </g>
     </g>
     <g id="text_12">
      <!-- 100 -->
      <g transform="translate(45.9125 55.639219) scale(0.1 -0.1)">
       <use xlink:href="#DejaVuSans-31"/>
       <use xlink:href="#DejaVuSans-30" x="63.623047"/>
       <use xlink:href="#DejaVuSans-30" x="127.246094"/>
      </g>
     </g>
    </g>
    <g id="text_13">
     <!-- rate -->
     <g transform="translate(39.832812 228.31625) rotate(-90) scale(0.1 -0.1)">
      <defs>
       <path id="DejaVuSans-72" d="M 2631 2963 
Q 2534 3019 2420 3045 
Q 2306 3072 2169 3072 
Q 1681 3072 1420 2755 
Q 1159 2438 1159 1844 
L 1159 0 
L 581 0 
L 581 3500 
L 1159 3500 
L 1159 2956 
Q 1341 3275 1631 3429 
Q 1922 3584 2338 3584 
Q 2397 3584 2469 3576 
Q 2541 3569 2628 3553 
L 2631 2963 
z
" transform="scale(0.015625)"/>
       <path id="DejaVuSans-61" d="M 2194 1759 
Q 1497 1759 1228 1600 
Q 959 1441 959 1056 
Q 959 750 1161 570 
Q 1363 391 1709 391 
Q 2188 391 2477 730 
Q 2766 1069 2766 1631 
L 2766 1759 
L 2194 1759 
z
M 3341 1997 
L 3341 0 
L 2766 0 
L 2766 531 
Q 2569 213 2275 61 
Q 1981 -91 1556 -91 
Q 1019 -91 701 211 
Q 384 513 384 1019 
Q 384 1609 779 1909 
Q 1175 2209 1959 2209 
L 2766 2209 
L 2766 2266 
Q 2766 2663 2505 2880 
Q 2244 3097 1772 3097 
Q 1472 3097 1187 3025 
Q 903 2953 641 2809 
L 641 3341 
Q 956 3463 1253 3523 
Q 1550 3584 1831 3584 
Q 2591 3584 2966 3190 
Q 3341 2797 3341 1997 
z
" transform="scale(0.015625)"/>
       <path id="DejaVuSans-74" d="M 1172 4494 
L 1172 3500 
L 2356 3500 
L 2356 3053 
L 1172 3053 
L 1172 1153 
Q 1172 725 1289 603 
Q 1406 481 1766 481 
L 2356 481 
L 2356 0 
L 1766 0 
Q 1100 0 847 248 
Q 594 497 594 1153 
L 594 3053 
L 172 3053 
L 172 3500 
L 594 3500 
L 594 4494 
L 1172 4494 
z
" transform="scale(0.015625)"/>
      </defs>
      <use xlink:href="#DejaVuSans-72"/>
      <use xlink:href="#DejaVuSans-61" x="41.113281"/>
      <use xlink:href="#DejaVuSans-74" x="102.392578"/>
      <use xlink:href="#DejaVuSans-65" x="141.601562"/>
     </g>
    </g>
   </g>
   <g id="line2d_12">
    <path d="M 92.290909 278.431065 
L 94.251383 289.895867 
L 96.211858 279.54941 
L 98.172332 280.869931 
L 100.132806 277.716942 
L 102.093281 270.559111 
L 104.053755 269.066404 
L 106.014229 240.50623 
L 107.974704 274.937485 
L 109.935178 268.562858 
L 111.895652 230.53137 
L 113.856126 246.184385 
L 115.816601 250.570587 
L 117.777075 242.921012 
L 119.737549 251.703099 
L 121.698024 245.105827 
L 123.658498 278.364485 
L 125.618972 265.75136 
L 127.579447 238.055626 
L 129.539921 248.191297 
L 131.500395 256.353111 
L 133.46087 216.812584 
L 135.421344 250.658016 
L 137.381818 253.255472 
L 139.342292 254.38962 
L 141.302767 234.379854 
L 143.263241 257.210711 
L 145.223715 250.991742 
L 147.18419 269.106831 
L 149.144664 247.919367 
L 151.105138 212.775867 
L 153.065613 237.044132 
L 155.026087 239.438433 
L 156.986561 233.159254 
L 158.947036 204.044638 
L 160.90751 200.77204 
L 162.867984 247.935229 
L 164.828458 238.077325 
L 166.788933 251.878299 
L 168.749407 212.334587 
L 170.709881 250.770392 
L 172.670356 250.168872 
L 176.591304 181.863038 
L 178.551779 246.867356 
L 180.512253 234.456891 
L 182.472727 219.980064 
L 184.433202 219.796616 
L 186.393676 250.512978 
L 188.35415 256.603519 
L 190.314625 186.794927 
L 192.275099 235.046025 
L 194.235573 249.835095 
L 196.196047 204.021798 
L 198.156522 212.0001 
L 200.116996 222.286049 
L 202.07747 242.722641 
L 204.037945 226.750645 
L 205.998419 234.766114 
L 207.958893 178.104926 
L 209.919368 228.199804 
L 211.879842 194.958454 
L 213.840316 229.835532 
L 215.800791 235.796211 
L 217.761265 260.681108 
L 219.721739 236.606823 
L 221.682213 242.160078 
L 223.642688 218.165152 
L 225.603162 237.65971 
L 227.563636 197.459814 
L 229.524111 223.176577 
L 231.484585 229.80089 
L 233.445059 237.757138 
L 235.405534 228.698172 
L 237.366008 211.523899 
L 239.326482 199.559231 
L 241.286957 238.303942 
L 243.247431 216.03575 
L 245.207905 180.02111 
L 247.168379 222.144488 
L 249.128854 226.861689 
L 251.089328 209.388013 
L 253.049802 218.240551 
L 255.010277 225.997312 
L 256.970751 241.936228 
L 258.931225 205.898874 
L 260.8917 212.394125 
L 262.852174 225.358017 
L 264.812648 205.700948 
L 266.773123 241.825946 
L 268.733597 213.557903 
L 270.694071 236.900477 
L 272.654545 210.883398 
L 274.61502 206.713217 
L 276.575494 224.496839 
L 278.535968 217.538711 
L 280.496443 236.591051 
L 282.456917 226.211963 
L 284.417391 221.562637 
L 286.377866 222.590881 
L 288.33834 217.076139 
L 290.298814 188.775891 
L 292.259289 214.1152 
L 294.219763 226.13499 
L 296.180237 232.724547 
L 298.140711 222.619381 
L 300.101186 176.914741 
L 302.06166 227.44628 
L 304.022134 227.517518 
L 305.982609 214.120175 
L 307.943083 236.765933 
L 309.903557 203.831269 
L 311.864032 245.06998 
L 313.824506 228.958631 
L 315.78498 220.781971 
L 317.745455 204.668617 
L 319.705929 224.545578 
L 321.666403 211.501312 
L 323.626877 187.906286 
L 325.587352 195.671346 
L 327.547826 247.28964 
L 329.5083 229.993373 
L 331.468775 220.040109 
L 333.429249 194.772874 
L 335.389723 233.612982 
L 337.350198 221.94245 
L 339.310672 240.209848 
L 341.271146 224.743339 
L 343.231621 235.423326 
L 345.192095 225.464569 
L 349.113043 216.243853 
L 351.073518 233.777066 
L 353.033992 223.383437 
L 354.994466 210.865722 
L 356.954941 220.947718 
L 358.915415 197.530455 
L 360.875889 228.083735 
L 362.836364 215.545871 
L 364.796838 212.230371 
L 366.757312 200.095211 
L 368.717787 199.78402 
L 370.678261 213.438447 
L 372.638735 220.188307 
L 374.599209 196.172037 
L 376.559684 231.512334 
L 378.520158 197.821165 
L 380.480632 199.682012 
L 382.441107 194.057584 
L 384.401581 184.72316 
L 386.362055 198.623262 
L 388.32253 225.758565 
L 390.283004 251.066532 
L 392.243478 188.182619 
L 394.203953 196.772795 
L 396.164427 232.395313 
L 398.124901 190.98158 
L 400.085375 217.024455 
L 402.04585 223.489848 
L 404.006324 216.040826 
L 405.966798 193.484564 
L 407.927273 190.949298 
L 411.848221 229.3279 
L 413.808696 188.888292 
L 415.76917 174.325242 
L 417.729644 210.174579 
L 419.690119 192.42886 
L 421.650593 210.132743 
L 423.611067 218.846435 
L 425.571542 203.480742 
L 427.532016 170.606504 
L 429.49249 238.490904 
L 431.452964 227.666502 
L 433.413439 213.391395 
L 435.373913 191.353209 
L 437.334387 218.930984 
L 439.294862 209.541921 
L 441.255336 199.559726 
L 443.21581 201.714036 
L 445.176285 201.648979 
L 447.136759 221.139947 
L 449.097233 178.377947 
L 451.057708 212.13227 
L 453.018182 225.701907 
L 454.978656 196.098935 
L 456.93913 221.675292 
L 458.899605 227.957605 
L 460.860079 224.538447 
L 462.820553 223.876945 
L 464.781028 225.87089 
L 466.741502 210.120828 
L 468.701976 220.218253 
L 470.662451 192.138912 
L 472.622925 218.170595 
L 474.583399 199.068831 
L 476.543874 239.32173 
L 478.504348 229.028739 
L 480.464822 201.699025 
L 482.425296 238.911323 
L 484.385771 189.018952 
L 486.346245 220.389304 
L 488.306719 219.985127 
L 490.267194 221.874322 
L 492.227668 205.744446 
L 494.188142 220.42609 
L 496.148617 223.707545 
L 498.109091 241.12974 
L 498.109091 241.12974 
" clip-path="url(#pa046f02fd2)" style="fill: none; stroke: #0000ff; stroke-width: 1.5; stroke-linecap: square"/>
   </g>
   <g id="line2d_13">
    <path d="M 92.290909 267.345506 
L 94.251383 265.919163 
L 96.211858 261.689748 
L 98.172332 266.359009 
L 100.132806 207.869483 
L 102.093281 199.23053 
L 104.053755 198.033823 
L 106.014229 213.679935 
L 107.974704 191.78992 
L 109.935178 192.111693 
L 111.895652 179.827384 
L 113.856126 183.12446 
L 115.816601 182.707911 
L 117.777075 181.361256 
L 119.737549 202.71755 
L 121.698024 184.587957 
L 123.658498 178.609208 
L 125.618972 168.600975 
L 127.579447 175.828139 
L 129.539921 167.954992 
L 131.500395 200.074502 
L 133.46087 183.778791 
L 135.421344 172.184991 
L 137.381818 162.884283 
L 139.342292 172.020907 
L 141.302767 177.298628 
L 143.263241 179.800064 
L 145.223715 173.264906 
L 147.18419 174.820489 
L 149.144664 178.286737 
L 151.105138 172.597949 
L 153.065613 171.095292 
L 155.026087 164.102219 
L 156.986561 180.507209 
L 158.947036 177.235715 
L 160.90751 155.079709 
L 162.867984 164.485052 
L 164.828458 174.469607 
L 166.788933 170.063634 
L 168.749407 166.310116 
L 170.709881 179.811345 
L 172.670356 181.934034 
L 174.63083 169.249292 
L 176.591304 172.30951 
L 178.551779 165.883352 
L 180.512253 167.320532 
L 182.472727 142.876928 
L 184.433202 169.868246 
L 186.393676 172.703447 
L 188.35415 167.96187 
L 190.314625 176.198347 
L 192.275099 166.982288 
L 194.235573 136.449311 
L 196.196047 169.052406 
L 198.156522 167.264902 
L 200.116996 161.810573 
L 202.07747 173.927955 
L 204.037945 168.085031 
L 205.998419 163.522956 
L 207.958893 172.391901 
L 209.919368 152.32313 
L 211.879842 162.328445 
L 213.840316 177.091274 
L 215.800791 182.54016 
L 217.761265 167.334312 
L 219.721739 160.938469 
L 221.682213 159.615746 
L 223.642688 164.781751 
L 225.603162 167.476888 
L 227.563636 166.700943 
L 229.524111 159.251261 
L 231.484585 172.359671 
L 233.445059 166.531365 
L 235.405534 172.487387 
L 237.366008 170.011152 
L 239.326482 164.880296 
L 241.286957 167.34657 
L 243.247431 156.023634 
L 245.207905 162.130595 
L 247.168379 152.119139 
L 249.128854 161.872116 
L 251.089328 164.670035 
L 253.049802 163.576987 
L 255.010277 168.340897 
L 256.970751 156.205952 
L 258.931225 158.46887 
L 260.8917 175.156157 
L 262.852174 156.490825 
L 264.812648 159.354754 
L 266.773123 158.847972 
L 268.733597 168.533595 
L 270.694071 157.716425 
L 272.654545 168.585418 
L 274.61502 152.570697 
L 276.575494 153.924153 
L 278.535968 169.828681 
L 282.456917 166.289001 
L 284.417391 166.009305 
L 286.377866 171.233021 
L 288.33834 167.866498 
L 290.298814 145.58917 
L 292.259289 165.121111 
L 294.219763 170.831966 
L 296.180237 158.244727 
L 298.140711 165.464608 
L 300.101186 145.019349 
L 302.06166 157.658486 
L 304.022134 169.293374 
L 305.982609 160.134988 
L 307.943083 157.297732 
L 309.903557 165.851756 
L 311.864032 162.048851 
L 313.824506 179.034664 
L 315.78498 168.982691 
L 317.745455 172.545606 
L 319.705929 167.91426 
L 321.666403 171.170616 
L 323.626877 163.36396 
L 325.587352 149.706108 
L 327.547826 185.926592 
L 329.5083 156.766562 
L 331.468775 150.871383 
L 333.429249 144.610071 
L 335.389723 156.707785 
L 337.350198 160.470719 
L 339.310672 148.44843 
L 341.271146 158.75392 
L 343.231621 176.481202 
L 345.192095 166.875268 
L 347.152569 148.702112 
L 349.113043 149.32802 
L 351.073518 163.286886 
L 353.033992 156.754126 
L 354.994466 150.822784 
L 356.954941 162.587812 
L 358.915415 176.177714 
L 360.875889 158.591574 
L 362.836364 131.070355 
L 364.796838 159.672086 
L 366.757312 179.193305 
L 368.717787 157.393611 
L 370.678261 159.314428 
L 372.638735 147.593812 
L 374.599209 147.382942 
L 376.559684 146.11359 
L 378.520158 160.915654 
L 380.480632 155.204926 
L 382.441107 185.610758 
L 384.401581 155.845579 
L 386.362055 149.605686 
L 388.32253 155.135821 
L 390.283004 169.201961 
L 392.243478 154.452684 
L 394.203953 165.305283 
L 396.164427 165.763617 
L 398.124901 164.700413 
L 400.085375 169.685369 
L 402.04585 164.158178 
L 404.006324 155.529592 
L 405.966798 155.719423 
L 409.887747 173.914594 
L 411.848221 167.178667 
L 413.808696 184.660425 
L 415.76917 162.896591 
L 417.729644 162.301721 
L 419.690119 163.621272 
L 421.650593 173.046576 
L 423.611067 146.296467 
L 425.571542 176.166687 
L 427.532016 127.631808 
L 429.49249 157.528244 
L 431.452964 160.791173 
L 433.413439 172.629849 
L 435.373913 164.820682 
L 437.334387 167.20775 
L 439.294862 187.276432 
L 441.255336 172.196018 
L 443.21581 161.503849 
L 445.176285 163.629089 
L 447.136759 165.204353 
L 449.097233 167.586523 
L 451.057708 155.595271 
L 453.018182 168.378939 
L 454.978656 158.150015 
L 456.93913 144.431432 
L 458.899605 170.572878 
L 460.860079 172.192389 
L 462.820553 145.662108 
L 464.781028 180.050778 
L 466.741502 164.41582 
L 468.701976 161.004859 
L 470.662451 179.743534 
L 472.622925 147.027847 
L 474.583399 159.681831 
L 476.543874 189.496879 
L 478.504348 203.066008 
L 480.464822 172.002013 
L 482.425296 167.846652 
L 484.385771 160.354359 
L 486.346245 148.868925 
L 488.306719 162.807437 
L 490.267194 170.034145 
L 492.227668 154.603508 
L 494.188142 184.578529 
L 496.148617 179.218125 
L 498.109091 153.244316 
L 498.109091 153.244316 
" clip-path="url(#pa046f02fd2)" style="fill: none; stroke: #008000; stroke-width: 1.5; stroke-linecap: square"/>
   </g>
   <g id="patch_3">
    <path d="M 72 384.48 
L 72 51.84 
" style="fill: none; stroke: #000000; stroke-width: 0.8; stroke-linejoin: miter; stroke-linecap: square"/>
   </g>
   <g id="patch_4">
    <path d="M 518.4 384.48 
L 518.4 51.84 
" style="fill: none; stroke: #000000; stroke-width: 0.8; stroke-linejoin: miter; stroke-linecap: square"/>
   </g>
   <g id="patch_5">
    <path d="M 72 384.48 
L 518.4 384.48 
" style="fill: none; stroke: #000000; stroke-width: 0.8; stroke-linejoin: miter; stroke-linecap: square"/>
   </g>
   <g id="patch_6">
    <path d="M 72 51.84 
L 518.4 51.84 
" style="fill: none; stroke: #000000; stroke-width: 0.8; stroke-linejoin: miter; stroke-linecap: square"/>
   </g>
   <g id="legend_1">
    <g id="patch_7">
     <path d="M 79 89.19625 
L 160.740625 89.19625 
Q 162.740625 89.19625 162.740625 87.19625 
L 162.740625 58.84 
Q 162.740625 56.84 160.740625 56.84 
L 79 56.84 
Q 77 56.84 77 58.84 
L 77 87.19625 
Q 77 89.19625 79 89.19625 
z
" style="fill: #ffffff; opacity: 0.8; stroke: #cccccc; stroke-linejoin: miter"/>
    </g>
    <g id="line2d_14">
     <path d="M 81 64.938437 
L 91 64.938437 
L 101 64.938437 
" style="fill: none; stroke: #0000ff; stroke-width: 1.5; stroke-linecap: square"/>
    </g>
    <g id="text_14">
     <!-- train mAP -->
     <g transform="translate(109 68.438437) scale(0.1 -0.1)">
      <defs>
       <path id="DejaVuSans-69" d="M 603 3500 
L 1178 3500 
L 1178 0 
L 603 0 
L 603 3500 
z
M 603 4863 
L 1178 4863 
L 1178 4134 
L 603 4134 
L 603 4863 
z
" transform="scale(0.015625)"/>
       <path id="DejaVuSans-6e" d="M 3513 2113 
L 3513 0 
L 2938 0 
L 2938 2094 
Q 2938 2591 2744 2837 
Q 2550 3084 2163 3084 
Q 1697 3084 1428 2787 
Q 1159 2491 1159 1978 
L 1159 0 
L 581 0 
L 581 3500 
L 1159 3500 
L 1159 2956 
Q 1366 3272 1645 3428 
Q 1925 3584 2291 3584 
Q 2894 3584 3203 3211 
Q 3513 2838 3513 2113 
z
" transform="scale(0.015625)"/>
       <path id="DejaVuSans-20" transform="scale(0.015625)"/>
       <path id="DejaVuSans-6d" d="M 3328 2828 
Q 3544 3216 3844 3400 
Q 4144 3584 4550 3584 
Q 5097 3584 5394 3201 
Q 5691 2819 5691 2113 
L 5691 0 
L 5113 0 
L 5113 2094 
Q 5113 2597 4934 2840 
Q 4756 3084 4391 3084 
Q 3944 3084 3684 2787 
Q 3425 2491 3425 1978 
L 3425 0 
L 2847 0 
L 2847 2094 
Q 2847 2600 2669 2842 
Q 2491 3084 2119 3084 
Q 1678 3084 1418 2786 
Q 1159 2488 1159 1978 
L 1159 0 
L 581 0 
L 581 3500 
L 1159 3500 
L 1159 2956 
Q 1356 3278 1631 3431 
Q 1906 3584 2284 3584 
Q 2666 3584 2933 3390 
Q 3200 3197 3328 2828 
z
" transform="scale(0.015625)"/>
       <path id="DejaVuSans-41" d="M 2188 4044 
L 1331 1722 
L 3047 1722 
L 2188 4044 
z
M 1831 4666 
L 2547 4666 
L 4325 0 
L 3669 0 
L 3244 1197 
L 1141 1197 
L 716 0 
L 50 0 
L 1831 4666 
z
" transform="scale(0.015625)"/>
       <path id="DejaVuSans-50" d="M 1259 4147 
L 1259 2394 
L 2053 2394 
Q 2494 2394 2734 2622 
Q 2975 2850 2975 3272 
Q 2975 3691 2734 3919 
Q 2494 4147 2053 4147 
L 1259 4147 
z
M 628 4666 
L 2053 4666 
Q 2838 4666 3239 4311 
Q 3641 3956 3641 3272 
Q 3641 2581 3239 2228 
Q 2838 1875 2053 1875 
L 1259 1875 
L 1259 0 
L 628 0 
L 628 4666 
z
" transform="scale(0.015625)"/>
      </defs>
      <use xlink:href="#DejaVuSans-74"/>
      <use xlink:href="#DejaVuSans-72" x="39.208984"/>
      <use xlink:href="#DejaVuSans-61" x="80.322266"/>
      <use xlink:href="#DejaVuSans-69" x="141.601562"/>
      <use xlink:href="#DejaVuSans-6e" x="169.384766"/>
      <use xlink:href="#DejaVuSans-20" x="232.763672"/>
      <use xlink:href="#DejaVuSans-6d" x="264.550781"/>
      <use xlink:href="#DejaVuSans-41" x="361.962891"/>
      <use xlink:href="#DejaVuSans-50" x="430.371094"/>
     </g>
    </g>
    <g id="line2d_15">
     <path d="M 81 79.616562 
L 91 79.616562 
L 101 79.616562 
" style="fill: none; stroke: #008000; stroke-width: 1.5; stroke-linecap: square"/>
    </g>
    <g id="text_15">
     <!-- valid mAP -->
     <g transform="translate(109 83.116562) scale(0.1 -0.1)">
      <defs>
       <path id="DejaVuSans-76" d="M 191 3500 
L 800 3500 
L 1894 563 
L 2988 3500 
L 3597 3500 
L 2284 0 
L 1503 0 
L 191 3500 
z
" transform="scale(0.015625)"/>
       <path id="DejaVuSans-6c" d="M 603 4863 
L 1178 4863 
L 1178 0 
L 603 0 
L 603 4863 
z
" transform="scale(0.015625)"/>
       <path id="DejaVuSans-64" d="M 2906 2969 
L 2906 4863 
L 3481 4863 
L 3481 0 
L 2906 0 
L 2906 525 
Q 2725 213 2448 61 
Q 2172 -91 1784 -91 
Q 1150 -91 751 415 
Q 353 922 353 1747 
Q 353 2572 751 3078 
Q 1150 3584 1784 3584 
Q 2172 3584 2448 3432 
Q 2725 3281 2906 2969 
z
M 947 1747 
Q 947 1113 1208 752 
Q 1469 391 1925 391 
Q 2381 391 2643 752 
Q 2906 1113 2906 1747 
Q 2906 2381 2643 2742 
Q 2381 3103 1925 3103 
Q 1469 3103 1208 2742 
Q 947 2381 947 1747 
z
" transform="scale(0.015625)"/>
      </defs>
      <use xlink:href="#DejaVuSans-76"/>
      <use xlink:href="#DejaVuSans-61" x="59.179688"/>
      <use xlink:href="#DejaVuSans-6c" x="120.458984"/>
      <use xlink:href="#DejaVuSans-69" x="148.242188"/>
      <use xlink:href="#DejaVuSans-64" x="176.025391"/>
      <use xlink:href="#DejaVuSans-20" x="239.501953"/>
      <use xlink:href="#DejaVuSans-6d" x="271.289062"/>
      <use xlink:href="#DejaVuSans-41" x="368.701172"/>
      <use xlink:href="#DejaVuSans-50" x="437.109375"/>
     </g>
    </g>
   </g>
  </g>
  <g id="axes_2">
   <g id="matplotlib.axis_3">
    <g id="ytick_7">
     <g id="line2d_16">
      <defs>
       <path id="mb7dd4ba5b4" d="M 0 0 
L 3.5 0 
" style="stroke: #000000; stroke-width: 0.8"/>
      </defs>
      <g>
       <use xlink:href="#mb7dd4ba5b4" x="518.4" y="352.839176" style="stroke: #000000; stroke-width: 0.8"/>
      </g>
     </g>
     <g id="text_16">
      <!-- 0.2 -->
      <g transform="translate(525.4 356.638395) scale(0.1 -0.1)">
       <defs>
        <path id="DejaVuSans-2e" d="M 684 794 
L 1344 794 
L 1344 0 
L 684 0 
L 684 794 
z
" transform="scale(0.015625)"/>
       </defs>
       <use xlink:href="#DejaVuSans-30"/>
       <use xlink:href="#DejaVuSans-2e" x="63.623047"/>
       <use xlink:href="#DejaVuSans-32" x="95.410156"/>
      </g>
     </g>
    </g>
    <g id="ytick_8">
     <g id="line2d_17">
      <g>
       <use xlink:href="#mb7dd4ba5b4" x="518.4" y="293.665082" style="stroke: #000000; stroke-width: 0.8"/>
      </g>
     </g>
     <g id="text_17">
      <!-- 0.4 -->
      <g transform="translate(525.4 297.4643) scale(0.1 -0.1)">
       <use xlink:href="#DejaVuSans-30"/>
       <use xlink:href="#DejaVuSans-2e" x="63.623047"/>
       <use xlink:href="#DejaVuSans-34" x="95.410156"/>
      </g>
     </g>
    </g>
    <g id="ytick_9">
     <g id="line2d_18">
      <g>
       <use xlink:href="#mb7dd4ba5b4" x="518.4" y="234.490987" style="stroke: #000000; stroke-width: 0.8"/>
      </g>
     </g>
     <g id="text_18">
      <!-- 0.6 -->
      <g transform="translate(525.4 238.290206) scale(0.1 -0.1)">
       <use xlink:href="#DejaVuSans-30"/>
       <use xlink:href="#DejaVuSans-2e" x="63.623047"/>
       <use xlink:href="#DejaVuSans-36" x="95.410156"/>
      </g>
     </g>
    </g>
    <g id="ytick_10">
     <g id="line2d_19">
      <g>
       <use xlink:href="#mb7dd4ba5b4" x="518.4" y="175.316892" style="stroke: #000000; stroke-width: 0.8"/>
      </g>
     </g>
     <g id="text_19">
      <!-- 0.8 -->
      <g transform="translate(525.4 179.116111) scale(0.1 -0.1)">
       <use xlink:href="#DejaVuSans-30"/>
       <use xlink:href="#DejaVuSans-2e" x="63.623047"/>
       <use xlink:href="#DejaVuSans-38" x="95.410156"/>
      </g>
     </g>
    </g>
    <g id="ytick_11">
     <g id="line2d_20">
      <g>
       <use xlink:href="#mb7dd4ba5b4" x="518.4" y="116.142798" style="stroke: #000000; stroke-width: 0.8"/>
      </g>
     </g>
     <g id="text_20">
      <!-- 1.0 -->
      <g transform="translate(525.4 119.942016) scale(0.1 -0.1)">
       <use xlink:href="#DejaVuSans-31"/>
       <use xlink:href="#DejaVuSans-2e" x="63.623047"/>
       <use xlink:href="#DejaVuSans-30" x="95.410156"/>
      </g>
     </g>
    </g>
    <g id="ytick_12">
     <g id="line2d_21">
      <g>
       <use xlink:href="#mb7dd4ba5b4" x="518.4" y="56.968703" style="stroke: #000000; stroke-width: 0.8"/>
      </g>
     </g>
     <g id="text_21">
      <!-- 1.2 -->
      <g transform="translate(525.4 60.767922) scale(0.1 -0.1)">
       <use xlink:href="#DejaVuSans-31"/>
       <use xlink:href="#DejaVuSans-2e" x="63.623047"/>
       <use xlink:href="#DejaVuSans-32" x="95.410156"/>
      </g>
     </g>
    </g>
    <g id="text_22">
     <!-- loss -->
     <g transform="translate(552.901563 227.817812) rotate(-90) scale(0.1 -0.1)">
      <defs>
       <path id="DejaVuSans-73" d="M 2834 3397 
L 2834 2853 
Q 2591 2978 2328 3040 
Q 2066 3103 1784 3103 
Q 1356 3103 1142 2972 
Q 928 2841 928 2578 
Q 928 2378 1081 2264 
Q 1234 2150 1697 2047 
L 1894 2003 
Q 2506 1872 2764 1633 
Q 3022 1394 3022 966 
Q 3022 478 2636 193 
Q 2250 -91 1575 -91 
Q 1294 -91 989 -36 
Q 684 19 347 128 
L 347 722 
Q 666 556 975 473 
Q 1284 391 1588 391 
Q 1994 391 2212 530 
Q 2431 669 2431 922 
Q 2431 1156 2273 1281 
Q 2116 1406 1581 1522 
L 1381 1569 
Q 847 1681 609 1914 
Q 372 2147 372 2553 
Q 372 3047 722 3315 
Q 1072 3584 1716 3584 
Q 2034 3584 2315 3537 
Q 2597 3491 2834 3397 
z
" transform="scale(0.015625)"/>
      </defs>
      <use xlink:href="#DejaVuSans-6c"/>
      <use xlink:href="#DejaVuSans-6f" x="27.783203"/>
      <use xlink:href="#DejaVuSans-73" x="88.964844"/>
      <use xlink:href="#DejaVuSans-73" x="141.064453"/>
     </g>
    </g>
   </g>
   <g id="line2d_22">
    <path d="M 92.290909 325.41788 
L 94.251383 243.2889 
L 96.211858 291.505715 
L 98.172332 240.195902 
L 100.132806 349.694829 
L 102.093281 326.883065 
L 104.053755 352.91249 
L 106.014229 321.07457 
L 107.974704 322.379788 
L 109.935178 355.993571 
L 111.895652 361.286702 
L 113.856126 334.506007 
L 115.816601 328.283241 
L 117.777075 344.320298 
L 119.737549 272.477642 
L 121.698024 345.766715 
L 123.658498 359.634266 
L 125.618972 366.061959 
L 127.579447 351.135041 
L 129.539921 353.932418 
L 131.500395 360.607308 
L 133.46087 341.098789 
L 135.421344 363.34275 
L 137.381818 355.315596 
L 139.342292 360.612852 
L 141.302767 339.810448 
L 143.263241 329.360516 
L 145.223715 367.16239 
L 147.18419 358.418584 
L 149.144664 309.659281 
L 151.105138 356.396052 
L 153.065613 356.859464 
L 155.026087 304.319167 
L 156.986561 332.608276 
L 158.947036 340.899477 
L 160.90751 333.547046 
L 162.867984 346.025667 
L 164.828458 347.583335 
L 166.788933 356.556993 
L 168.749407 363.624215 
L 170.709881 324.423535 
L 172.670356 336.122205 
L 174.63083 345.70658 
L 176.591304 352.611478 
L 178.551779 364.365038 
L 180.512253 339.523039 
L 182.472727 311.315656 
L 184.433202 356.602928 
L 186.393676 348.765523 
L 188.35415 356.372355 
L 190.314625 274.393719 
L 192.275099 341.594382 
L 194.235573 361.900927 
L 196.196047 348.094939 
L 198.156522 353.925947 
L 200.116996 365.081012 
L 202.07747 318.462888 
L 204.037945 335.259244 
L 205.998419 354.047811 
L 207.958893 353.32327 
L 209.919368 354.2372 
L 211.879842 303.332013 
L 213.840316 339.403733 
L 215.800791 346.851956 
L 217.761265 339.697873 
L 219.721739 354.565571 
L 221.682213 361.001199 
L 223.642688 361.734043 
L 225.603162 354.424058 
L 227.563636 323.118203 
L 229.524111 346.524493 
L 231.484585 334.635474 
L 233.445059 317.910696 
L 235.405534 337.090846 
L 237.366008 338.20193 
L 239.326482 348.166849 
L 241.286957 340.042049 
L 243.247431 360.305302 
L 245.207905 355.883271 
L 247.168379 357.828423 
L 249.128854 369.36 
L 251.089328 353.363802 
L 253.049802 344.496559 
L 255.010277 330.79975 
L 256.970751 362.809636 
L 258.931225 344.880188 
L 260.8917 182.005294 
L 262.852174 335.903908 
L 264.812648 340.042164 
L 266.773123 356.735845 
L 268.733597 335.087256 
L 270.694071 353.809183 
L 272.654545 343.298247 
L 274.61502 360.076351 
L 276.575494 339.115539 
L 278.535968 326.871029 
L 280.496443 344.319868 
L 282.456917 330.713023 
L 284.417391 340.543276 
L 286.377866 362.52909 
L 288.33834 341.43313 
L 290.298814 336.368959 
L 292.259289 356.44705 
L 294.219763 338.545245 
L 296.180237 355.33667 
L 298.140711 337.764121 
L 300.101186 344.811537 
L 302.06166 350.52365 
L 304.022134 307.272977 
L 305.982609 349.008066 
L 307.943083 360.236125 
L 309.903557 329.606612 
L 311.864032 333.245253 
L 313.824506 349.448986 
L 315.78498 346.982604 
L 317.745455 339.876061 
L 319.705929 343.159461 
L 321.666403 302.507545 
L 323.626877 353.919167 
L 325.587352 360.228817 
L 327.547826 297.679404 
L 329.5083 349.781004 
L 331.468775 353.058291 
L 333.429249 348.741216 
L 335.389723 346.223142 
L 337.350198 323.056236 
L 339.310672 361.347212 
L 341.271146 357.16014 
L 343.231621 298.623336 
L 345.192095 335.739597 
L 347.152569 347.348726 
L 349.113043 286.06772 
L 351.073518 344.703113 
L 353.033992 343.810235 
L 354.994466 363.050693 
L 356.954941 320.439566 
L 358.915415 301.881486 
L 360.875889 358.318596 
L 362.836364 362.378139 
L 364.796838 335.952151 
L 366.757312 247.200896 
L 368.717787 356.901987 
L 370.678261 344.364174 
L 372.638735 366.592919 
L 374.599209 315.617458 
L 376.559684 358.29845 
L 378.520158 341.887646 
L 380.480632 340.907719 
L 382.441107 266.853986 
L 384.401581 333.140506 
L 386.362055 334.257302 
L 388.32253 340.787791 
L 390.283004 304.128181 
L 392.243478 349.838912 
L 394.203953 291.972398 
L 396.164427 322.032803 
L 398.124901 290.607015 
L 400.085375 327.738878 
L 402.04585 349.547564 
L 404.006324 344.880008 
L 405.966798 315.434981 
L 407.927273 249.655313 
L 409.887747 320.933473 
L 411.848221 348.684897 
L 413.808696 140.859773 
L 415.76917 323.711974 
L 417.729644 294.459583 
L 419.690119 338.68036 
L 421.650593 288.599537 
L 423.611067 334.95418 
L 425.571542 267.010629 
L 427.532016 352.520772 
L 429.49249 297.285954 
L 431.452964 291.961596 
L 433.413439 275.96884 
L 435.373913 351.545406 
L 437.334387 282.447023 
L 439.294862 245.802773 
L 441.255336 270.495914 
L 443.21581 358.841564 
L 445.176285 268.812702 
L 447.136759 296.2395 
L 449.097233 347.381182 
L 451.057708 352.2759 
L 453.018182 246.335307 
L 454.978656 288.310907 
L 456.93913 337.899 
L 458.899605 225.801236 
L 460.860079 224.241911 
L 462.820553 288.994709 
L 464.781028 299.793641 
L 466.741502 344.53188 
L 468.701976 221.72089 
L 470.662451 194.64177 
L 472.622925 347.17843 
L 474.583399 307.890976 
L 476.543874 253.75647 
L 478.504348 168.249974 
L 480.464822 290.903421 
L 482.425296 258.696352 
L 484.385771 283.152927 
L 486.346245 283.634694 
L 488.306719 249.379037 
L 490.267194 298.333703 
L 492.227668 258.409063 
L 494.188142 66.96 
L 496.148617 139.621591 
L 498.109091 324.481705 
L 498.109091 324.481705 
" clip-path="url(#pa046f02fd2)" style="fill: none; stroke: #ff0000; stroke-width: 1.5; stroke-linecap: square"/>
   </g>
   <g id="patch_8">
    <path d="M 72 384.48 
L 72 51.84 
" style="fill: none; stroke: #000000; stroke-width: 0.8; stroke-linejoin: miter; stroke-linecap: square"/>
   </g>
   <g id="patch_9">
    <path d="M 518.4 384.48 
L 518.4 51.84 
" style="fill: none; stroke: #000000; stroke-width: 0.8; stroke-linejoin: miter; stroke-linecap: square"/>
   </g>
   <g id="patch_10">
    <path d="M 72 384.48 
L 518.4 384.48 
" style="fill: none; stroke: #000000; stroke-width: 0.8; stroke-linejoin: miter; stroke-linecap: square"/>
   </g>
   <g id="patch_11">
    <path d="M 72 51.84 
L 518.4 51.84 
" style="fill: none; stroke: #000000; stroke-width: 0.8; stroke-linejoin: miter; stroke-linecap: square"/>
   </g>
   <g id="text_23">
    <!-- The learning curve on c_gcn_with_agg/host/1 -->
    <g transform="translate(159.605625 45.84) scale(0.12 -0.12)">
     <defs>
      <path id="DejaVuSans-54" d="M -19 4666 
L 3928 4666 
L 3928 4134 
L 2272 4134 
L 2272 0 
L 1638 0 
L 1638 4134 
L -19 4134 
L -19 4666 
z
" transform="scale(0.015625)"/>
      <path id="DejaVuSans-67" d="M 2906 1791 
Q 2906 2416 2648 2759 
Q 2391 3103 1925 3103 
Q 1463 3103 1205 2759 
Q 947 2416 947 1791 
Q 947 1169 1205 825 
Q 1463 481 1925 481 
Q 2391 481 2648 825 
Q 2906 1169 2906 1791 
z
M 3481 434 
Q 3481 -459 3084 -895 
Q 2688 -1331 1869 -1331 
Q 1566 -1331 1297 -1286 
Q 1028 -1241 775 -1147 
L 775 -588 
Q 1028 -725 1275 -790 
Q 1522 -856 1778 -856 
Q 2344 -856 2625 -561 
Q 2906 -266 2906 331 
L 2906 616 
Q 2728 306 2450 153 
Q 2172 0 1784 0 
Q 1141 0 747 490 
Q 353 981 353 1791 
Q 353 2603 747 3093 
Q 1141 3584 1784 3584 
Q 2172 3584 2450 3431 
Q 2728 3278 2906 2969 
L 2906 3500 
L 3481 3500 
L 3481 434 
z
" transform="scale(0.015625)"/>
      <path id="DejaVuSans-75" d="M 544 1381 
L 544 3500 
L 1119 3500 
L 1119 1403 
Q 1119 906 1312 657 
Q 1506 409 1894 409 
Q 2359 409 2629 706 
Q 2900 1003 2900 1516 
L 2900 3500 
L 3475 3500 
L 3475 0 
L 2900 0 
L 2900 538 
Q 2691 219 2414 64 
Q 2138 -91 1772 -91 
Q 1169 -91 856 284 
Q 544 659 544 1381 
z
M 1991 3584 
L 1991 3584 
z
" transform="scale(0.015625)"/>
      <path id="DejaVuSans-5f" d="M 3263 -1063 
L 3263 -1509 
L -63 -1509 
L -63 -1063 
L 3263 -1063 
z
" transform="scale(0.015625)"/>
      <path id="DejaVuSans-77" d="M 269 3500 
L 844 3500 
L 1563 769 
L 2278 3500 
L 2956 3500 
L 3675 769 
L 4391 3500 
L 4966 3500 
L 4050 0 
L 3372 0 
L 2619 2869 
L 1863 0 
L 1184 0 
L 269 3500 
z
" transform="scale(0.015625)"/>
      <path id="DejaVuSans-2f" d="M 1625 4666 
L 2156 4666 
L 531 -594 
L 0 -594 
L 1625 4666 
z
" transform="scale(0.015625)"/>
     </defs>
     <use xlink:href="#DejaVuSans-54"/>
     <use xlink:href="#DejaVuSans-68" x="61.083984"/>
     <use xlink:href="#DejaVuSans-65" x="124.462891"/>
     <use xlink:href="#DejaVuSans-20" x="185.986328"/>
     <use xlink:href="#DejaVuSans-6c" x="217.773438"/>
     <use xlink:href="#DejaVuSans-65" x="245.556641"/>
     <use xlink:href="#DejaVuSans-61" x="307.080078"/>
     <use xlink:href="#DejaVuSans-72" x="368.359375"/>
     <use xlink:href="#DejaVuSans-6e" x="407.722656"/>
     <use xlink:href="#DejaVuSans-69" x="471.101562"/>
     <use xlink:href="#DejaVuSans-6e" x="498.884766"/>
     <use xlink:href="#DejaVuSans-67" x="562.263672"/>
     <use xlink:href="#DejaVuSans-20" x="625.740234"/>
     <use xlink:href="#DejaVuSans-63" x="657.527344"/>
     <use xlink:href="#DejaVuSans-75" x="712.507812"/>
     <use xlink:href="#DejaVuSans-72" x="775.886719"/>
     <use xlink:href="#DejaVuSans-76" x="817"/>
     <use xlink:href="#DejaVuSans-65" x="876.179688"/>
     <use xlink:href="#DejaVuSans-20" x="937.703125"/>
     <use xlink:href="#DejaVuSans-6f" x="969.490234"/>
     <use xlink:href="#DejaVuSans-6e" x="1030.671875"/>
     <use xlink:href="#DejaVuSans-20" x="1094.050781"/>
     <use xlink:href="#DejaVuSans-63" x="1125.837891"/>
     <use xlink:href="#DejaVuSans-5f" x="1180.818359"/>
     <use xlink:href="#DejaVuSans-67" x="1230.818359"/>
     <use xlink:href="#DejaVuSans-63" x="1294.294922"/>
     <use xlink:href="#DejaVuSans-6e" x="1349.275391"/>
     <use xlink:href="#DejaVuSans-5f" x="1412.654297"/>
     <use xlink:href="#DejaVuSans-77" x="1462.654297"/>
     <use xlink:href="#DejaVuSans-69" x="1544.441406"/>
     <use xlink:href="#DejaVuSans-74" x="1572.224609"/>
     <use xlink:href="#DejaVuSans-68" x="1611.433594"/>
     <use xlink:href="#DejaVuSans-5f" x="1674.8125"/>
     <use xlink:href="#DejaVuSans-61" x="1724.8125"/>
     <use xlink:href="#DejaVuSans-67" x="1786.091797"/>
     <use xlink:href="#DejaVuSans-67" x="1849.568359"/>
     <use xlink:href="#DejaVuSans-2f" x="1913.044922"/>
     <use xlink:href="#DejaVuSans-68" x="1946.736328"/>
     <use xlink:href="#DejaVuSans-6f" x="2010.115234"/>
     <use xlink:href="#DejaVuSans-73" x="2071.296875"/>
     <use xlink:href="#DejaVuSans-74" x="2123.396484"/>
     <use xlink:href="#DejaVuSans-2f" x="2162.605469"/>
     <use xlink:href="#DejaVuSans-31" x="2196.296875"/>
    </g>
   </g>
   <g id="legend_2">
    <g id="patch_12">
     <path d="M 460.084375 74.518125 
L 511.4 74.518125 
Q 513.4 74.518125 513.4 72.518125 
L 513.4 58.84 
Q 513.4 56.84 511.4 56.84 
L 460.084375 56.84 
Q 458.084375 56.84 458.084375 58.84 
L 458.084375 72.518125 
Q 458.084375 74.518125 460.084375 74.518125 
z
" style="fill: #ffffff; opacity: 0.8; stroke: #cccccc; stroke-linejoin: miter"/>
    </g>
    <g id="line2d_23">
     <path d="M 462.084375 64.938438 
L 472.084375 64.938438 
L 482.084375 64.938438 
" style="fill: none; stroke: #ff0000; stroke-width: 1.5; stroke-linecap: square"/>
    </g>
    <g id="text_24">
     <!-- loss -->
     <g transform="translate(490.084375 68.438438) scale(0.1 -0.1)">
      <use xlink:href="#DejaVuSans-6c"/>
      <use xlink:href="#DejaVuSans-6f" x="27.783203"/>
      <use xlink:href="#DejaVuSans-73" x="88.964844"/>
      <use xlink:href="#DejaVuSans-73" x="141.064453"/>
     </g>
    </g>
   </g>
  </g>
 </g>
 <defs>
  <clipPath id="pa046f02fd2">
   <rect x="72" y="51.84" width="446.4" height="332.64"/>
  </clipPath>
 </defs>
</svg>
