<?xml version="1.0" encoding="utf-8" standalone="no"?>
<!DOCTYPE svg PUBLIC "-//W3C//DTD SVG 1.1//EN"
  "http://www.w3.org/Graphics/SVG/1.1/DTD/svg11.dtd">
<svg xmlns:xlink="http://www.w3.org/1999/xlink" width="576pt" height="432pt" viewBox="0 0 576 432" xmlns="http://www.w3.org/2000/svg" version="1.1">
 <metadata>
  <rdf:RDF xmlns:dc="http://purl.org/dc/elements/1.1/" xmlns:cc="http://creativecommons.org/ns#" xmlns:rdf="http://www.w3.org/1999/02/22-rdf-syntax-ns#">
   <cc:Work>
    <dc:type rdf:resource="http://purl.org/dc/dcmitype/StillImage"/>
    <dc:date>2023-12-26T13:14:41.363725</dc:date>
    <dc:format>image/svg+xml</dc:format>
    <dc:creator>
     <cc:Agent>
      <dc:title>Matplotlib v3.7.1, https://matplotlib.org/</dc:title>
     </cc:Agent>
    </dc:creator>
   </cc:Work>
  </rdf:RDF>
 </metadata>
 <defs>
  <style type="text/css">*{stroke-linejoin: round; stroke-linecap: butt}</style>
 </defs>
 <g id="figure_1">
  <g id="patch_1">
   <path d="M 0 432 
L 576 432 
L 576 0 
L 0 0 
z
" style="fill: #ffffff"/>
  </g>
  <g id="axes_1">
   <g id="patch_2">
    <path d="M 72 384.48 
L 518.4 384.48 
L 518.4 51.84 
L 72 51.84 
z
" style="fill: #ffffff"/>
   </g>
   <g id="matplotlib.axis_1">
    <g id="xtick_1">
     <g id="line2d_1">
      <defs>
       <path id="m61c19942b8" d="M 0 0 
L 0 3.5 
" style="stroke: #000000; stroke-width: 0.8"/>
      </defs>
      <g>
       <use xlink:href="#m61c19942b8" x="92.290909" y="384.48" style="stroke: #000000; stroke-width: 0.8"/>
      </g>
     </g>
     <g id="text_1">
      <!-- 0 -->
      <g transform="translate(89.109659 399.078438) scale(0.1 -0.1)">
       <defs>
        <path id="DejaVuSans-30" d="M 2034 4250 
Q 1547 4250 1301 3770 
Q 1056 3291 1056 2328 
Q 1056 1369 1301 889 
Q 1547 409 2034 409 
Q 2525 409 2770 889 
Q 3016 1369 3016 2328 
Q 3016 3291 2770 3770 
Q 2525 4250 2034 4250 
z
M 2034 4750 
Q 2819 4750 3233 4129 
Q 3647 3509 3647 2328 
Q 3647 1150 3233 529 
Q 2819 -91 2034 -91 
Q 1250 -91 836 529 
Q 422 1150 422 2328 
Q 422 3509 836 4129 
Q 1250 4750 2034 4750 
z
" transform="scale(0.015625)"/>
       </defs>
       <use xlink:href="#DejaVuSans-30"/>
      </g>
     </g>
    </g>
    <g id="xtick_2">
     <g id="line2d_2">
      <g>
       <use xlink:href="#m61c19942b8" x="190.314625" y="384.48" style="stroke: #000000; stroke-width: 0.8"/>
      </g>
     </g>
     <g id="text_2">
      <!-- 50 -->
      <g transform="translate(183.952125 399.078438) scale(0.1 -0.1)">
       <defs>
        <path id="DejaVuSans-35" d="M 691 4666 
L 3169 4666 
L 3169 4134 
L 1269 4134 
L 1269 2991 
Q 1406 3038 1543 3061 
Q 1681 3084 1819 3084 
Q 2600 3084 3056 2656 
Q 3513 2228 3513 1497 
Q 3513 744 3044 326 
Q 2575 -91 1722 -91 
Q 1428 -91 1123 -41 
Q 819 9 494 109 
L 494 744 
Q 775 591 1075 516 
Q 1375 441 1709 441 
Q 2250 441 2565 725 
Q 2881 1009 2881 1497 
Q 2881 1984 2565 2268 
Q 2250 2553 1709 2553 
Q 1456 2553 1204 2497 
Q 953 2441 691 2322 
L 691 4666 
z
" transform="scale(0.015625)"/>
       </defs>
       <use xlink:href="#DejaVuSans-35"/>
       <use xlink:href="#DejaVuSans-30" x="63.623047"/>
      </g>
     </g>
    </g>
    <g id="xtick_3">
     <g id="line2d_3">
      <g>
       <use xlink:href="#m61c19942b8" x="288.33834" y="384.48" style="stroke: #000000; stroke-width: 0.8"/>
      </g>
     </g>
     <g id="text_3">
      <!-- 100 -->
      <g transform="translate(278.79459 399.078438) scale(0.1 -0.1)">
       <defs>
        <path id="DejaVuSans-31" d="M 794 531 
L 1825 531 
L 1825 4091 
L 703 3866 
L 703 4441 
L 1819 4666 
L 2450 4666 
L 2450 531 
L 3481 531 
L 3481 0 
L 794 0 
L 794 531 
z
" transform="scale(0.015625)"/>
       </defs>
       <use xlink:href="#DejaVuSans-31"/>
       <use xlink:href="#DejaVuSans-30" x="63.623047"/>
       <use xlink:href="#DejaVuSans-30" x="127.246094"/>
      </g>
     </g>
    </g>
    <g id="xtick_4">
     <g id="line2d_4">
      <g>
       <use xlink:href="#m61c19942b8" x="386.362055" y="384.48" style="stroke: #000000; stroke-width: 0.8"/>
      </g>
     </g>
     <g id="text_4">
      <!-- 150 -->
      <g transform="translate(376.818305 399.078438) scale(0.1 -0.1)">
       <use xlink:href="#DejaVuSans-31"/>
       <use xlink:href="#DejaVuSans-35" x="63.623047"/>
       <use xlink:href="#DejaVuSans-30" x="127.246094"/>
      </g>
     </g>
    </g>
    <g id="xtick_5">
     <g id="line2d_5">
      <g>
       <use xlink:href="#m61c19942b8" x="484.385771" y="384.48" style="stroke: #000000; stroke-width: 0.8"/>
      </g>
     </g>
     <g id="text_5">
      <!-- 200 -->
      <g transform="translate(474.842021 399.078438) scale(0.1 -0.1)">
       <defs>
        <path id="DejaVuSans-32" d="M 1228 531 
L 3431 531 
L 3431 0 
L 469 0 
L 469 531 
Q 828 903 1448 1529 
Q 2069 2156 2228 2338 
Q 2531 2678 2651 2914 
Q 2772 3150 2772 3378 
Q 2772 3750 2511 3984 
Q 2250 4219 1831 4219 
Q 1534 4219 1204 4116 
Q 875 4013 500 3803 
L 500 4441 
Q 881 4594 1212 4672 
Q 1544 4750 1819 4750 
Q 2544 4750 2975 4387 
Q 3406 4025 3406 3419 
Q 3406 3131 3298 2873 
Q 3191 2616 2906 2266 
Q 2828 2175 2409 1742 
Q 1991 1309 1228 531 
z
" transform="scale(0.015625)"/>
       </defs>
       <use xlink:href="#DejaVuSans-32"/>
       <use xlink:href="#DejaVuSans-30" x="63.623047"/>
       <use xlink:href="#DejaVuSans-30" x="127.246094"/>
      </g>
     </g>
    </g>
    <g id="text_6">
     <!-- epoch -->
     <g transform="translate(279.971875 412.756563) scale(0.1 -0.1)">
      <defs>
       <path id="DejaVuSans-65" d="M 3597 1894 
L 3597 1613 
L 953 1613 
Q 991 1019 1311 708 
Q 1631 397 2203 397 
Q 2534 397 2845 478 
Q 3156 559 3463 722 
L 3463 178 
Q 3153 47 2828 -22 
Q 2503 -91 2169 -91 
Q 1331 -91 842 396 
Q 353 884 353 1716 
Q 353 2575 817 3079 
Q 1281 3584 2069 3584 
Q 2775 3584 3186 3129 
Q 3597 2675 3597 1894 
z
M 3022 2063 
Q 3016 2534 2758 2815 
Q 2500 3097 2075 3097 
Q 1594 3097 1305 2825 
Q 1016 2553 972 2059 
L 3022 2063 
z
" transform="scale(0.015625)"/>
       <path id="DejaVuSans-70" d="M 1159 525 
L 1159 -1331 
L 581 -1331 
L 581 3500 
L 1159 3500 
L 1159 2969 
Q 1341 3281 1617 3432 
Q 1894 3584 2278 3584 
Q 2916 3584 3314 3078 
Q 3713 2572 3713 1747 
Q 3713 922 3314 415 
Q 2916 -91 2278 -91 
Q 1894 -91 1617 61 
Q 1341 213 1159 525 
z
M 3116 1747 
Q 3116 2381 2855 2742 
Q 2594 3103 2138 3103 
Q 1681 3103 1420 2742 
Q 1159 2381 1159 1747 
Q 1159 1113 1420 752 
Q 1681 391 2138 391 
Q 2594 391 2855 752 
Q 3116 1113 3116 1747 
z
" transform="scale(0.015625)"/>
       <path id="DejaVuSans-6f" d="M 1959 3097 
Q 1497 3097 1228 2736 
Q 959 2375 959 1747 
Q 959 1119 1226 758 
Q 1494 397 1959 397 
Q 2419 397 2687 759 
Q 2956 1122 2956 1747 
Q 2956 2369 2687 2733 
Q 2419 3097 1959 3097 
z
M 1959 3584 
Q 2709 3584 3137 3096 
Q 3566 2609 3566 1747 
Q 3566 888 3137 398 
Q 2709 -91 1959 -91 
Q 1206 -91 779 398 
Q 353 888 353 1747 
Q 353 2609 779 3096 
Q 1206 3584 1959 3584 
z
" transform="scale(0.015625)"/>
       <path id="DejaVuSans-63" d="M 3122 3366 
L 3122 2828 
Q 2878 2963 2633 3030 
Q 2388 3097 2138 3097 
Q 1578 3097 1268 2742 
Q 959 2388 959 1747 
Q 959 1106 1268 751 
Q 1578 397 2138 397 
Q 2388 397 2633 464 
Q 2878 531 3122 666 
L 3122 134 
Q 2881 22 2623 -34 
Q 2366 -91 2075 -91 
Q 1284 -91 818 406 
Q 353 903 353 1747 
Q 353 2603 823 3093 
Q 1294 3584 2113 3584 
Q 2378 3584 2631 3529 
Q 2884 3475 3122 3366 
z
" transform="scale(0.015625)"/>
       <path id="DejaVuSans-68" d="M 3513 2113 
L 3513 0 
L 2938 0 
L 2938 2094 
Q 2938 2591 2744 2837 
Q 2550 3084 2163 3084 
Q 1697 3084 1428 2787 
Q 1159 2491 1159 1978 
L 1159 0 
L 581 0 
L 581 4863 
L 1159 4863 
L 1159 2956 
Q 1366 3272 1645 3428 
Q 1925 3584 2291 3584 
Q 2894 3584 3203 3211 
Q 3513 2838 3513 2113 
z
" transform="scale(0.015625)"/>
      </defs>
      <use xlink:href="#DejaVuSans-65"/>
      <use xlink:href="#DejaVuSans-70" x="61.523438"/>
      <use xlink:href="#DejaVuSans-6f" x="125"/>
      <use xlink:href="#DejaVuSans-63" x="186.181641"/>
      <use xlink:href="#DejaVuSans-68" x="241.162109"/>
     </g>
    </g>
   </g>
   <g id="matplotlib.axis_2">
    <g id="ytick_1">
     <g id="line2d_6">
      <defs>
       <path id="m87057f0277" d="M 0 0 
L -3.5 0 
" style="stroke: #000000; stroke-width: 0.8"/>
      </defs>
      <g>
       <use xlink:href="#m87057f0277" x="72" y="384.48" style="stroke: #000000; stroke-width: 0.8"/>
      </g>
     </g>
     <g id="text_7">
      <!-- 0 -->
      <g transform="translate(58.6375 388.279219) scale(0.1 -0.1)">
       <use xlink:href="#DejaVuSans-30"/>
      </g>
     </g>
    </g>
    <g id="ytick_2">
     <g id="line2d_7">
      <g>
       <use xlink:href="#m87057f0277" x="72" y="317.952" style="stroke: #000000; stroke-width: 0.8"/>
      </g>
     </g>
     <g id="text_8">
      <!-- 20 -->
      <g transform="translate(52.275 321.751219) scale(0.1 -0.1)">
       <use xlink:href="#DejaVuSans-32"/>
       <use xlink:href="#DejaVuSans-30" x="63.623047"/>
      </g>
     </g>
    </g>
    <g id="ytick_3">
     <g id="line2d_8">
      <g>
       <use xlink:href="#m87057f0277" x="72" y="251.424" style="stroke: #000000; stroke-width: 0.8"/>
      </g>
     </g>
     <g id="text_9">
      <!-- 40 -->
      <g transform="translate(52.275 255.223219) scale(0.1 -0.1)">
       <defs>
        <path id="DejaVuSans-34" d="M 2419 4116 
L 825 1625 
L 2419 1625 
L 2419 4116 
z
M 2253 4666 
L 3047 4666 
L 3047 1625 
L 3713 1625 
L 3713 1100 
L 3047 1100 
L 3047 0 
L 2419 0 
L 2419 1100 
L 313 1100 
L 313 1709 
L 2253 4666 
z
" transform="scale(0.015625)"/>
       </defs>
       <use xlink:href="#DejaVuSans-34"/>
       <use xlink:href="#DejaVuSans-30" x="63.623047"/>
      </g>
     </g>
    </g>
    <g id="ytick_4">
     <g id="line2d_9">
      <g>
       <use xlink:href="#m87057f0277" x="72" y="184.896" style="stroke: #000000; stroke-width: 0.8"/>
      </g>
     </g>
     <g id="text_10">
      <!-- 60 -->
      <g transform="translate(52.275 188.695219) scale(0.1 -0.1)">
       <defs>
        <path id="DejaVuSans-36" d="M 2113 2584 
Q 1688 2584 1439 2293 
Q 1191 2003 1191 1497 
Q 1191 994 1439 701 
Q 1688 409 2113 409 
Q 2538 409 2786 701 
Q 3034 994 3034 1497 
Q 3034 2003 2786 2293 
Q 2538 2584 2113 2584 
z
M 3366 4563 
L 3366 3988 
Q 3128 4100 2886 4159 
Q 2644 4219 2406 4219 
Q 1781 4219 1451 3797 
Q 1122 3375 1075 2522 
Q 1259 2794 1537 2939 
Q 1816 3084 2150 3084 
Q 2853 3084 3261 2657 
Q 3669 2231 3669 1497 
Q 3669 778 3244 343 
Q 2819 -91 2113 -91 
Q 1303 -91 875 529 
Q 447 1150 447 2328 
Q 447 3434 972 4092 
Q 1497 4750 2381 4750 
Q 2619 4750 2861 4703 
Q 3103 4656 3366 4563 
z
" transform="scale(0.015625)"/>
       </defs>
       <use xlink:href="#DejaVuSans-36"/>
       <use xlink:href="#DejaVuSans-30" x="63.623047"/>
      </g>
     </g>
    </g>
    <g id="ytick_5">
     <g id="line2d_10">
      <g>
       <use xlink:href="#m87057f0277" x="72" y="118.368" style="stroke: #000000; stroke-width: 0.8"/>
      </g>
     </g>
     <g id="text_11">
      <!-- 80 -->
      <g transform="translate(52.275 122.167219) scale(0.1 -0.1)">
       <defs>
        <path id="DejaVuSans-38" d="M 2034 2216 
Q 1584 2216 1326 1975 
Q 1069 1734 1069 1313 
Q 1069 891 1326 650 
Q 1584 409 2034 409 
Q 2484 409 2743 651 
Q 3003 894 3003 1313 
Q 3003 1734 2745 1975 
Q 2488 2216 2034 2216 
z
M 1403 2484 
Q 997 2584 770 2862 
Q 544 3141 544 3541 
Q 544 4100 942 4425 
Q 1341 4750 2034 4750 
Q 2731 4750 3128 4425 
Q 3525 4100 3525 3541 
Q 3525 3141 3298 2862 
Q 3072 2584 2669 2484 
Q 3125 2378 3379 2068 
Q 3634 1759 3634 1313 
Q 3634 634 3220 271 
Q 2806 -91 2034 -91 
Q 1263 -91 848 271 
Q 434 634 434 1313 
Q 434 1759 690 2068 
Q 947 2378 1403 2484 
z
M 1172 3481 
Q 1172 3119 1398 2916 
Q 1625 2713 2034 2713 
Q 2441 2713 2670 2916 
Q 2900 3119 2900 3481 
Q 2900 3844 2670 4047 
Q 2441 4250 2034 4250 
Q 1625 4250 1398 4047 
Q 1172 3844 1172 3481 
z
" transform="scale(0.015625)"/>
       </defs>
       <use xlink:href="#DejaVuSans-38"/>
       <use xlink:href="#DejaVuSans-30" x="63.623047"/>
      </g>
     </g>
    </g>
    <g id="ytick_6">
     <g id="line2d_11">
      <g>
       <use xlink:href="#m87057f0277" x="72" y="51.84" style="stroke: #000000; stroke-width: 0.8"/>
      </g>
     </g>
     <g id="text_12">
      <!-- 100 -->
      <g transform="translate(45.9125 55.639219) scale(0.1 -0.1)">
       <use xlink:href="#DejaVuSans-31"/>
       <use xlink:href="#DejaVuSans-30" x="63.623047"/>
       <use xlink:href="#DejaVuSans-30" x="127.246094"/>
      </g>
     </g>
    </g>
    <g id="text_13">
     <!-- rate -->
     <g transform="translate(39.832812 228.31625) rotate(-90) scale(0.1 -0.1)">
      <defs>
       <path id="DejaVuSans-72" d="M 2631 2963 
Q 2534 3019 2420 3045 
Q 2306 3072 2169 3072 
Q 1681 3072 1420 2755 
Q 1159 2438 1159 1844 
L 1159 0 
L 581 0 
L 581 3500 
L 1159 3500 
L 1159 2956 
Q 1341 3275 1631 3429 
Q 1922 3584 2338 3584 
Q 2397 3584 2469 3576 
Q 2541 3569 2628 3553 
L 2631 2963 
z
" transform="scale(0.015625)"/>
       <path id="DejaVuSans-61" d="M 2194 1759 
Q 1497 1759 1228 1600 
Q 959 1441 959 1056 
Q 959 750 1161 570 
Q 1363 391 1709 391 
Q 2188 391 2477 730 
Q 2766 1069 2766 1631 
L 2766 1759 
L 2194 1759 
z
M 3341 1997 
L 3341 0 
L 2766 0 
L 2766 531 
Q 2569 213 2275 61 
Q 1981 -91 1556 -91 
Q 1019 -91 701 211 
Q 384 513 384 1019 
Q 384 1609 779 1909 
Q 1175 2209 1959 2209 
L 2766 2209 
L 2766 2266 
Q 2766 2663 2505 2880 
Q 2244 3097 1772 3097 
Q 1472 3097 1187 3025 
Q 903 2953 641 2809 
L 641 3341 
Q 956 3463 1253 3523 
Q 1550 3584 1831 3584 
Q 2591 3584 2966 3190 
Q 3341 2797 3341 1997 
z
" transform="scale(0.015625)"/>
       <path id="DejaVuSans-74" d="M 1172 4494 
L 1172 3500 
L 2356 3500 
L 2356 3053 
L 1172 3053 
L 1172 1153 
Q 1172 725 1289 603 
Q 1406 481 1766 481 
L 2356 481 
L 2356 0 
L 1766 0 
Q 1100 0 847 248 
Q 594 497 594 1153 
L 594 3053 
L 172 3053 
L 172 3500 
L 594 3500 
L 594 4494 
L 1172 4494 
z
" transform="scale(0.015625)"/>
      </defs>
      <use xlink:href="#DejaVuSans-72"/>
      <use xlink:href="#DejaVuSans-61" x="41.113281"/>
      <use xlink:href="#DejaVuSans-74" x="102.392578"/>
      <use xlink:href="#DejaVuSans-65" x="141.601562"/>
     </g>
    </g>
   </g>
   <g id="line2d_12">
    <path d="M 92.290909 257.887401 
L 94.251383 262.217999 
L 96.211858 259.710269 
L 98.172332 230.885779 
L 100.132806 212.270557 
L 102.093281 227.51989 
L 104.053755 224.083209 
L 106.014229 228.86015 
L 107.974704 241.25733 
L 109.935178 227.888626 
L 111.895652 220.262577 
L 113.856126 222.528412 
L 115.816601 228.110687 
L 117.777075 207.544233 
L 119.737549 213.610462 
L 121.698024 214.440082 
L 123.658498 209.566157 
L 125.618972 200.916659 
L 127.579447 201.921797 
L 129.539921 196.370902 
L 131.500395 185.47761 
L 133.46087 154.08721 
L 135.421344 213.8394 
L 137.381818 223.967013 
L 139.342292 215.446705 
L 141.302767 209.256718 
L 143.263241 191.563849 
L 145.223715 205.810621 
L 147.18419 171.602442 
L 149.144664 219.869858 
L 151.105138 223.786598 
L 153.065613 193.035582 
L 155.026087 216.024825 
L 156.986561 205.352172 
L 158.947036 199.351065 
L 160.90751 187.002701 
L 162.867984 220.383987 
L 164.828458 210.734338 
L 166.788933 184.883844 
L 168.749407 190.404322 
L 170.709881 219.019377 
L 172.670356 180.37651 
L 174.63083 180.647704 
L 176.591304 197.344964 
L 178.551779 198.406607 
L 180.512253 199.85994 
L 182.472727 192.436537 
L 184.433202 197.353897 
L 186.393676 211.051645 
L 188.35415 181.981378 
L 190.314625 167.915681 
L 192.275099 188.406838 
L 194.235573 201.033083 
L 196.196047 212.385293 
L 198.156522 159.948939 
L 200.116996 209.845675 
L 202.07747 160.642227 
L 204.037945 203.751923 
L 205.998419 158.17179 
L 207.958893 202.310125 
L 209.919368 219.603283 
L 211.879842 194.956411 
L 213.840316 196.214622 
L 215.800791 201.73203 
L 217.761265 201.769488 
L 219.721739 132.432465 
L 221.682213 191.529259 
L 223.642688 211.163411 
L 225.603162 198.087714 
L 227.563636 189.646637 
L 229.524111 141.881485 
L 231.484585 202.867498 
L 233.445059 192.226226 
L 235.405534 198.581363 
L 237.366008 182.441564 
L 239.326482 179.920967 
L 241.286957 193.357253 
L 243.247431 205.321667 
L 245.207905 194.595479 
L 247.168379 200.763983 
L 249.128854 216.319506 
L 251.089328 189.095583 
L 253.049802 193.193106 
L 255.010277 166.994343 
L 256.970751 208.791633 
L 258.931225 193.922228 
L 260.8917 212.820723 
L 262.852174 187.867584 
L 264.812648 202.165645 
L 266.773123 207.754823 
L 268.733597 192.105031 
L 270.694071 169.491757 
L 272.654545 198.03961 
L 274.61502 194.689963 
L 276.575494 199.765431 
L 278.535968 160.180517 
L 280.496443 144.431838 
L 282.456917 188.368161 
L 284.417391 218.293935 
L 286.377866 150.487129 
L 288.33834 221.873129 
L 290.298814 200.706551 
L 292.259289 187.555138 
L 294.219763 178.31662 
L 296.180237 193.207419 
L 298.140711 167.690422 
L 300.101186 186.301977 
L 302.06166 189.936814 
L 304.022134 148.567632 
L 305.982609 159.040493 
L 307.943083 203.736278 
L 309.903557 167.150877 
L 311.864032 211.026304 
L 313.824506 170.040134 
L 315.78498 209.070859 
L 317.745455 208.539524 
L 319.705929 165.107712 
L 321.666403 189.447175 
L 323.626877 201.767801 
L 325.587352 184.453159 
L 327.547826 211.223596 
L 329.5083 213.190335 
L 331.468775 167.943394 
L 333.429249 164.761169 
L 335.389723 169.660828 
L 337.350198 220.078177 
L 339.310672 172.17786 
L 341.271146 180.554324 
L 343.231621 215.69974 
L 345.192095 210.152056 
L 347.152569 214.90334 
L 349.113043 157.983304 
L 351.073518 188.95359 
L 353.033992 160.520385 
L 354.994466 165.750471 
L 356.954941 218.402592 
L 358.915415 193.40381 
L 360.875889 200.714799 
L 362.836364 159.123963 
L 364.796838 199.222092 
L 366.757312 198.287392 
L 368.717787 186.034514 
L 370.678261 159.398253 
L 372.638735 187.188661 
L 374.599209 179.48593 
L 376.559684 204.082249 
L 378.520158 186.009351 
L 380.480632 182.410552 
L 382.441107 210.689469 
L 384.401581 202.637316 
L 386.362055 180.914786 
L 388.32253 213.086359 
L 390.283004 200.93582 
L 392.243478 153.257944 
L 394.203953 201.413873 
L 396.164427 185.206048 
L 398.124901 190.562316 
L 400.085375 144.097579 
L 402.04585 178.56576 
L 404.006324 152.91526 
L 405.966798 193.475085 
L 407.927273 183.64511 
L 409.887747 183.0601 
L 411.848221 157.763324 
L 413.808696 185.488345 
L 415.76917 165.117025 
L 417.729644 192.58226 
L 419.690119 138.11109 
L 421.650593 181.709905 
L 423.611067 199.188757 
L 425.571542 210.78795 
L 427.532016 199.891765 
L 429.49249 212.551649 
L 431.452964 202.987754 
L 433.413439 185.864517 
L 435.373913 211.780526 
L 437.334387 160.276041 
L 439.294862 181.273282 
L 441.255336 185.71486 
L 443.21581 205.592544 
L 445.176285 192.30915 
L 447.136759 188.309055 
L 449.097233 183.072294 
L 451.057708 166.465558 
L 453.018182 199.917219 
L 454.978656 183.53946 
L 456.93913 135.638216 
L 458.899605 177.571725 
L 460.860079 168.79616 
L 462.820553 199.14003 
L 464.781028 182.432365 
L 466.741502 187.263185 
L 468.701976 200.286437 
L 470.662451 217.082509 
L 472.622925 133.88005 
L 474.583399 180.635687 
L 476.543874 205.278029 
L 478.504348 176.526642 
L 480.464822 183.495695 
L 482.425296 216.239311 
L 484.385771 195.932922 
L 486.346245 188.060283 
L 488.306719 183.41121 
L 492.227668 198.528271 
L 494.188142 214.289499 
L 496.148617 184.872614 
L 498.109091 211.111106 
L 498.109091 211.111106 
" clip-path="url(#p416ec2213d)" style="fill: none; stroke: #0000ff; stroke-width: 1.5; stroke-linecap: square"/>
   </g>
   <g id="line2d_13">
    <path d="M 92.290909 152.258644 
L 94.251383 149.135246 
L 96.211858 148.138534 
L 98.172332 143.668227 
L 100.132806 103.118413 
L 102.093281 106.450726 
L 104.053755 101.192623 
L 106.014229 107.600496 
L 107.974704 98.249132 
L 109.935178 87.708486 
L 111.895652 81.364008 
L 113.856126 76.843477 
L 115.816601 63.355787 
L 117.777075 75.76893 
L 119.737549 65.718086 
L 121.698024 63.900002 
L 123.658498 70.932438 
L 125.618972 72.996337 
L 127.579447 68.538314 
L 129.539921 62.347528 
L 131.500395 70.542016 
L 133.46087 76.172117 
L 135.421344 67.163565 
L 137.381818 77.492327 
L 139.342292 68.591583 
L 141.302767 70.123145 
L 143.263241 70.45545 
L 145.223715 70.232374 
L 147.18419 68.424974 
L 149.144664 71.719422 
L 151.105138 70.255443 
L 153.065613 68.982385 
L 155.026087 70.770523 
L 156.986561 72.953346 
L 158.947036 70.829706 
L 160.90751 69.525585 
L 162.867984 64.538041 
L 164.828458 73.021919 
L 168.749407 67.889438 
L 170.709881 71.941128 
L 172.670356 70.89437 
L 174.63083 69.648899 
L 176.591304 72.348071 
L 178.551779 68.954698 
L 180.512253 71.073998 
L 182.472727 72.016883 
L 184.433202 75.143555 
L 186.393676 71.545326 
L 188.35415 70.792704 
L 190.314625 71.460791 
L 194.235573 72.530288 
L 196.196047 63.234656 
L 198.156522 64.239311 
L 200.116996 68.311177 
L 202.07747 69.675394 
L 204.037945 73.227916 
L 205.998419 68.584046 
L 207.958893 69.249417 
L 209.919368 69.237007 
L 211.879842 71.666584 
L 213.840316 71.519237 
L 215.800791 71.103437 
L 217.761265 74.579875 
L 219.721739 70.949416 
L 221.682213 71.999829 
L 223.642688 69.927985 
L 225.603162 69.276826 
L 227.563636 67.923826 
L 229.524111 68.696954 
L 231.484585 71.402167 
L 233.445059 70.473875 
L 235.405534 66.698379 
L 237.366008 73.286743 
L 239.326482 71.394122 
L 241.286957 68.1484 
L 243.247431 68.706268 
L 245.207905 68.227149 
L 247.168379 66.779691 
L 249.128854 71.461933 
L 251.089328 71.307251 
L 253.049802 68.047292 
L 255.010277 67.882104 
L 256.970751 71.839082 
L 258.931225 70.673019 
L 260.8917 70.645966 
L 262.852174 73.07633 
L 264.812648 68.845266 
L 266.773123 74.810311 
L 268.733597 71.435945 
L 270.694071 70.286303 
L 272.654545 73.00555 
L 274.61502 72.00828 
L 276.575494 72.230696 
L 278.535968 73.053591 
L 280.496443 70.117841 
L 282.456917 73.622702 
L 284.417391 74.365985 
L 286.377866 71.058695 
L 288.33834 69.916895 
L 290.298814 72.731666 
L 292.259289 70.615588 
L 294.219763 68.18997 
L 296.180237 73.167693 
L 298.140711 70.99096 
L 300.101186 71.953031 
L 302.06166 71.344329 
L 304.022134 73.658866 
L 305.982609 72.336778 
L 307.943083 73.721729 
L 309.903557 67.786833 
L 311.864032 73.269155 
L 313.824506 71.531698 
L 315.78498 67.5549 
L 317.745455 72.060001 
L 319.705929 68.855722 
L 321.666403 71.922551 
L 323.626877 73.594507 
L 325.587352 69.131763 
L 327.547826 68.125915 
L 329.5083 69.864945 
L 331.468775 65.593351 
L 333.429249 65.100198 
L 335.389723 70.508669 
L 337.350198 68.877496 
L 339.310672 69.800433 
L 341.271146 68.531132 
L 343.231621 72.938373 
L 345.192095 68.982258 
L 347.152569 74.319111 
L 349.113043 70.062389 
L 351.073518 73.081507 
L 354.994466 73.411148 
L 356.954941 74.157958 
L 358.915415 67.070325 
L 360.875889 68.192279 
L 362.836364 71.942067 
L 364.796838 71.708637 
L 366.757312 73.20505 
L 368.717787 73.255984 
L 370.678261 68.718526 
L 372.638735 68.519737 
L 374.599209 73.414295 
L 376.559684 73.129803 
L 378.520158 74.121033 
L 380.480632 68.765603 
L 382.441107 72.522522 
L 384.401581 74.899846 
L 386.362055 73.632346 
L 388.32253 71.952498 
L 390.283004 68.989415 
L 392.243478 73.103942 
L 394.203953 72.411187 
L 396.164427 71.890727 
L 398.124901 73.57395 
L 400.085375 74.25701 
L 402.04585 72.850209 
L 404.006324 68.394342 
L 405.966798 72.205673 
L 407.927273 75.106451 
L 409.887747 67.936795 
L 411.848221 73.03707 
L 413.808696 67.584364 
L 415.76917 74.982249 
L 417.729644 74.467397 
L 419.690119 75.025951 
L 421.650593 70.50273 
L 423.611067 73.591512 
L 425.571542 72.470852 
L 427.532016 73.645441 
L 429.49249 74.302285 
L 431.452964 69.497567 
L 433.413439 75.529459 
L 435.373913 72.320789 
L 437.334387 72.003864 
L 439.294862 75.058867 
L 441.255336 68.626072 
L 443.21581 73.611282 
L 445.176285 71.812409 
L 447.136759 73.496445 
L 449.097233 71.891234 
L 451.057708 73.530528 
L 453.018182 73.690031 
L 454.978656 73.176093 
L 456.93913 73.076914 
L 458.899605 73.634427 
L 460.860079 69.516068 
L 462.820553 74.137072 
L 464.781028 73.185813 
L 466.741502 73.813421 
L 468.701976 73.158912 
L 470.662451 67.21384 
L 472.622925 71.9627 
L 474.583399 67.108418 
L 476.543874 73.12965 
L 480.464822 68.119874 
L 482.425296 69.034843 
L 484.385771 74.681921 
L 486.346245 73.150029 
L 488.306719 68.847575 
L 490.267194 78.181833 
L 492.227668 72.805289 
L 494.188142 79.555542 
L 496.148617 72.7725 
L 498.109091 71.759926 
L 498.109091 71.759926 
" clip-path="url(#p416ec2213d)" style="fill: none; stroke: #008000; stroke-width: 1.5; stroke-linecap: square"/>
   </g>
   <g id="patch_3">
    <path d="M 72 384.48 
L 72 51.84 
" style="fill: none; stroke: #000000; stroke-width: 0.8; stroke-linejoin: miter; stroke-linecap: square"/>
   </g>
   <g id="patch_4">
    <path d="M 518.4 384.48 
L 518.4 51.84 
" style="fill: none; stroke: #000000; stroke-width: 0.8; stroke-linejoin: miter; stroke-linecap: square"/>
   </g>
   <g id="patch_5">
    <path d="M 72 384.48 
L 518.4 384.48 
" style="fill: none; stroke: #000000; stroke-width: 0.8; stroke-linejoin: miter; stroke-linecap: square"/>
   </g>
   <g id="patch_6">
    <path d="M 72 51.84 
L 518.4 51.84 
" style="fill: none; stroke: #000000; stroke-width: 0.8; stroke-linejoin: miter; stroke-linecap: square"/>
   </g>
   <g id="legend_1">
    <g id="patch_7">
     <path d="M 79 89.19625 
L 160.740625 89.19625 
Q 162.740625 89.19625 162.740625 87.19625 
L 162.740625 58.84 
Q 162.740625 56.84 160.740625 56.84 
L 79 56.84 
Q 77 56.84 77 58.84 
L 77 87.19625 
Q 77 89.19625 79 89.19625 
z
" style="fill: #ffffff; opacity: 0.8; stroke: #cccccc; stroke-linejoin: miter"/>
    </g>
    <g id="line2d_14">
     <path d="M 81 64.938437 
L 91 64.938437 
L 101 64.938437 
" style="fill: none; stroke: #0000ff; stroke-width: 1.5; stroke-linecap: square"/>
    </g>
    <g id="text_14">
     <!-- train mAP -->
     <g transform="translate(109 68.438437) scale(0.1 -0.1)">
      <defs>
       <path id="DejaVuSans-69" d="M 603 3500 
L 1178 3500 
L 1178 0 
L 603 0 
L 603 3500 
z
M 603 4863 
L 1178 4863 
L 1178 4134 
L 603 4134 
L 603 4863 
z
" transform="scale(0.015625)"/>
       <path id="DejaVuSans-6e" d="M 3513 2113 
L 3513 0 
L 2938 0 
L 2938 2094 
Q 2938 2591 2744 2837 
Q 2550 3084 2163 3084 
Q 1697 3084 1428 2787 
Q 1159 2491 1159 1978 
L 1159 0 
L 581 0 
L 581 3500 
L 1159 3500 
L 1159 2956 
Q 1366 3272 1645 3428 
Q 1925 3584 2291 3584 
Q 2894 3584 3203 3211 
Q 3513 2838 3513 2113 
z
" transform="scale(0.015625)"/>
       <path id="DejaVuSans-20" transform="scale(0.015625)"/>
       <path id="DejaVuSans-6d" d="M 3328 2828 
Q 3544 3216 3844 3400 
Q 4144 3584 4550 3584 
Q 5097 3584 5394 3201 
Q 5691 2819 5691 2113 
L 5691 0 
L 5113 0 
L 5113 2094 
Q 5113 2597 4934 2840 
Q 4756 3084 4391 3084 
Q 3944 3084 3684 2787 
Q 3425 2491 3425 1978 
L 3425 0 
L 2847 0 
L 2847 2094 
Q 2847 2600 2669 2842 
Q 2491 3084 2119 3084 
Q 1678 3084 1418 2786 
Q 1159 2488 1159 1978 
L 1159 0 
L 581 0 
L 581 3500 
L 1159 3500 
L 1159 2956 
Q 1356 3278 1631 3431 
Q 1906 3584 2284 3584 
Q 2666 3584 2933 3390 
Q 3200 3197 3328 2828 
z
" transform="scale(0.015625)"/>
       <path id="DejaVuSans-41" d="M 2188 4044 
L 1331 1722 
L 3047 1722 
L 2188 4044 
z
M 1831 4666 
L 2547 4666 
L 4325 0 
L 3669 0 
L 3244 1197 
L 1141 1197 
L 716 0 
L 50 0 
L 1831 4666 
z
" transform="scale(0.015625)"/>
       <path id="DejaVuSans-50" d="M 1259 4147 
L 1259 2394 
L 2053 2394 
Q 2494 2394 2734 2622 
Q 2975 2850 2975 3272 
Q 2975 3691 2734 3919 
Q 2494 4147 2053 4147 
L 1259 4147 
z
M 628 4666 
L 2053 4666 
Q 2838 4666 3239 4311 
Q 3641 3956 3641 3272 
Q 3641 2581 3239 2228 
Q 2838 1875 2053 1875 
L 1259 1875 
L 1259 0 
L 628 0 
L 628 4666 
z
" transform="scale(0.015625)"/>
      </defs>
      <use xlink:href="#DejaVuSans-74"/>
      <use xlink:href="#DejaVuSans-72" x="39.208984"/>
      <use xlink:href="#DejaVuSans-61" x="80.322266"/>
      <use xlink:href="#DejaVuSans-69" x="141.601562"/>
      <use xlink:href="#DejaVuSans-6e" x="169.384766"/>
      <use xlink:href="#DejaVuSans-20" x="232.763672"/>
      <use xlink:href="#DejaVuSans-6d" x="264.550781"/>
      <use xlink:href="#DejaVuSans-41" x="361.962891"/>
      <use xlink:href="#DejaVuSans-50" x="430.371094"/>
     </g>
    </g>
    <g id="line2d_15">
     <path d="M 81 79.616562 
L 91 79.616562 
L 101 79.616562 
" style="fill: none; stroke: #008000; stroke-width: 1.5; stroke-linecap: square"/>
    </g>
    <g id="text_15">
     <!-- valid mAP -->
     <g transform="translate(109 83.116562) scale(0.1 -0.1)">
      <defs>
       <path id="DejaVuSans-76" d="M 191 3500 
L 800 3500 
L 1894 563 
L 2988 3500 
L 3597 3500 
L 2284 0 
L 1503 0 
L 191 3500 
z
" transform="scale(0.015625)"/>
       <path id="DejaVuSans-6c" d="M 603 4863 
L 1178 4863 
L 1178 0 
L 603 0 
L 603 4863 
z
" transform="scale(0.015625)"/>
       <path id="DejaVuSans-64" d="M 2906 2969 
L 2906 4863 
L 3481 4863 
L 3481 0 
L 2906 0 
L 2906 525 
Q 2725 213 2448 61 
Q 2172 -91 1784 -91 
Q 1150 -91 751 415 
Q 353 922 353 1747 
Q 353 2572 751 3078 
Q 1150 3584 1784 3584 
Q 2172 3584 2448 3432 
Q 2725 3281 2906 2969 
z
M 947 1747 
Q 947 1113 1208 752 
Q 1469 391 1925 391 
Q 2381 391 2643 752 
Q 2906 1113 2906 1747 
Q 2906 2381 2643 2742 
Q 2381 3103 1925 3103 
Q 1469 3103 1208 2742 
Q 947 2381 947 1747 
z
" transform="scale(0.015625)"/>
      </defs>
      <use xlink:href="#DejaVuSans-76"/>
      <use xlink:href="#DejaVuSans-61" x="59.179688"/>
      <use xlink:href="#DejaVuSans-6c" x="120.458984"/>
      <use xlink:href="#DejaVuSans-69" x="148.242188"/>
      <use xlink:href="#DejaVuSans-64" x="176.025391"/>
      <use xlink:href="#DejaVuSans-20" x="239.501953"/>
      <use xlink:href="#DejaVuSans-6d" x="271.289062"/>
      <use xlink:href="#DejaVuSans-41" x="368.701172"/>
      <use xlink:href="#DejaVuSans-50" x="437.109375"/>
     </g>
    </g>
   </g>
  </g>
  <g id="axes_2">
   <g id="matplotlib.axis_3">
    <g id="ytick_7">
     <g id="line2d_16">
      <defs>
       <path id="m66efd08b10" d="M 0 0 
L 3.5 0 
" style="stroke: #000000; stroke-width: 0.8"/>
      </defs>
      <g>
       <use xlink:href="#m66efd08b10" x="518.4" y="323.543953" style="stroke: #000000; stroke-width: 0.8"/>
      </g>
     </g>
     <g id="text_16">
      <!-- 0.2 -->
      <g transform="translate(525.4 327.343172) scale(0.1 -0.1)">
       <defs>
        <path id="DejaVuSans-2e" d="M 684 794 
L 1344 794 
L 1344 0 
L 684 0 
L 684 794 
z
" transform="scale(0.015625)"/>
       </defs>
       <use xlink:href="#DejaVuSans-30"/>
       <use xlink:href="#DejaVuSans-2e" x="63.623047"/>
       <use xlink:href="#DejaVuSans-32" x="95.410156"/>
      </g>
     </g>
    </g>
    <g id="ytick_8">
     <g id="line2d_17">
      <g>
       <use xlink:href="#m66efd08b10" x="518.4" y="258.573253" style="stroke: #000000; stroke-width: 0.8"/>
      </g>
     </g>
     <g id="text_17">
      <!-- 0.4 -->
      <g transform="translate(525.4 262.372472) scale(0.1 -0.1)">
       <use xlink:href="#DejaVuSans-30"/>
       <use xlink:href="#DejaVuSans-2e" x="63.623047"/>
       <use xlink:href="#DejaVuSans-34" x="95.410156"/>
      </g>
     </g>
    </g>
    <g id="ytick_9">
     <g id="line2d_18">
      <g>
       <use xlink:href="#m66efd08b10" x="518.4" y="193.602553" style="stroke: #000000; stroke-width: 0.8"/>
      </g>
     </g>
     <g id="text_18">
      <!-- 0.6 -->
      <g transform="translate(525.4 197.401772) scale(0.1 -0.1)">
       <use xlink:href="#DejaVuSans-30"/>
       <use xlink:href="#DejaVuSans-2e" x="63.623047"/>
       <use xlink:href="#DejaVuSans-36" x="95.410156"/>
      </g>
     </g>
    </g>
    <g id="ytick_10">
     <g id="line2d_19">
      <g>
       <use xlink:href="#m66efd08b10" x="518.4" y="128.631853" style="stroke: #000000; stroke-width: 0.8"/>
      </g>
     </g>
     <g id="text_19">
      <!-- 0.8 -->
      <g transform="translate(525.4 132.431072) scale(0.1 -0.1)">
       <use xlink:href="#DejaVuSans-30"/>
       <use xlink:href="#DejaVuSans-2e" x="63.623047"/>
       <use xlink:href="#DejaVuSans-38" x="95.410156"/>
      </g>
     </g>
    </g>
    <g id="ytick_11">
     <g id="line2d_20">
      <g>
       <use xlink:href="#m66efd08b10" x="518.4" y="63.661153" style="stroke: #000000; stroke-width: 0.8"/>
      </g>
     </g>
     <g id="text_20">
      <!-- 1.0 -->
      <g transform="translate(525.4 67.460372) scale(0.1 -0.1)">
       <use xlink:href="#DejaVuSans-31"/>
       <use xlink:href="#DejaVuSans-2e" x="63.623047"/>
       <use xlink:href="#DejaVuSans-30" x="95.410156"/>
      </g>
     </g>
    </g>
    <g id="text_21">
     <!-- loss -->
     <g transform="translate(552.901563 227.817812) rotate(-90) scale(0.1 -0.1)">
      <defs>
       <path id="DejaVuSans-73" d="M 2834 3397 
L 2834 2853 
Q 2591 2978 2328 3040 
Q 2066 3103 1784 3103 
Q 1356 3103 1142 2972 
Q 928 2841 928 2578 
Q 928 2378 1081 2264 
Q 1234 2150 1697 2047 
L 1894 2003 
Q 2506 1872 2764 1633 
Q 3022 1394 3022 966 
Q 3022 478 2636 193 
Q 2250 -91 1575 -91 
Q 1294 -91 989 -36 
Q 684 19 347 128 
L 347 722 
Q 666 556 975 473 
Q 1284 391 1588 391 
Q 1994 391 2212 530 
Q 2431 669 2431 922 
Q 2431 1156 2273 1281 
Q 2116 1406 1581 1522 
L 1381 1569 
Q 847 1681 609 1914 
Q 372 2147 372 2553 
Q 372 3047 722 3315 
Q 1072 3584 1716 3584 
Q 2034 3584 2315 3537 
Q 2597 3491 2834 3397 
z
" transform="scale(0.015625)"/>
      </defs>
      <use xlink:href="#DejaVuSans-6c"/>
      <use xlink:href="#DejaVuSans-6f" x="27.783203"/>
      <use xlink:href="#DejaVuSans-73" x="88.964844"/>
      <use xlink:href="#DejaVuSans-73" x="141.064453"/>
     </g>
    </g>
   </g>
   <g id="line2d_21">
    <path d="M 92.290909 303.786404 
L 94.251383 290.087481 
L 96.211858 301.020786 
L 98.172332 309.310265 
L 100.132806 354.335197 
L 102.093281 353.388991 
L 104.053755 355.576216 
L 106.014229 349.299825 
L 107.974704 344.037172 
L 109.935178 359.332384 
L 111.895652 356.138888 
L 113.856126 361.586912 
L 115.816601 366.467785 
L 117.777075 364.057754 
L 119.737549 369.36 
L 121.698024 369.32741 
L 123.658498 359.77668 
L 125.618972 368.434379 
L 127.579447 366.347378 
L 129.539921 368.940055 
L 131.500395 366.840775 
L 133.46087 349.601022 
L 135.421344 368.294085 
L 137.381818 329.097972 
L 139.342292 366.915825 
L 141.302767 358.585901 
L 143.263241 351.118212 
L 145.223715 364.664929 
L 147.18419 368.804827 
L 149.144664 351.533033 
L 151.105138 362.472038 
L 153.065613 368.853869 
L 155.026087 360.0035 
L 156.986561 344.085571 
L 158.947036 363.482 
L 160.90751 363.764835 
L 162.867984 368.144156 
L 164.828458 344.96153 
L 166.788933 358.197461 
L 168.749407 367.992536 
L 170.709881 350.432713 
L 172.670356 366.650566 
L 174.63083 363.769192 
L 176.591304 350.006443 
L 178.551779 364.984071 
L 180.512253 363.07106 
L 182.472727 356.352887 
L 184.433202 357.419911 
L 186.393676 348.213929 
L 188.35415 364.707346 
L 190.314625 356.182681 
L 192.275099 360.266287 
L 194.235573 348.96684 
L 196.196047 369.041058 
L 198.156522 369.032874 
L 200.116996 356.378366 
L 202.07747 360.693403 
L 204.037945 325.818718 
L 205.998419 367.871223 
L 207.958893 364.06744 
L 209.919368 356.830605 
L 211.879842 348.821919 
L 213.840316 344.40036 
L 215.800791 347.375442 
L 217.761265 311.660466 
L 219.721739 355.532736 
L 221.682213 351.191383 
L 223.642688 359.315472 
L 225.603162 355.819838 
L 227.563636 361.449807 
L 229.524111 358.629095 
L 231.484585 358.541487 
L 233.445059 350.067011 
L 235.405534 363.199125 
L 237.366008 335.4777 
L 239.326482 344.048517 
L 241.286957 343.852259 
L 243.247431 358.964219 
L 245.207905 362.80465 
L 247.168379 364.929899 
L 249.128854 326.313856 
L 251.089328 346.592342 
L 253.049802 358.26551 
L 255.010277 348.674664 
L 256.970751 334.80361 
L 258.931225 354.206759 
L 260.8917 356.991153 
L 262.852174 337.830955 
L 264.812648 324.397136 
L 266.773123 325.776589 
L 268.733597 356.697134 
L 270.694071 361.681123 
L 272.654545 323.712195 
L 274.61502 347.721956 
L 276.575494 352.852377 
L 278.535968 345.365662 
L 280.496443 327.831219 
L 282.456917 318.567355 
L 284.417391 332.553517 
L 286.377866 358.287655 
L 288.33834 331.300488 
L 290.298814 332.044889 
L 292.259289 346.775951 
L 294.219763 352.758287 
L 296.180237 270.34958 
L 298.140711 330.608905 
L 300.101186 346.238959 
L 302.06166 351.910768 
L 304.022134 239.767973 
L 305.982609 299.385377 
L 307.943083 320.002346 
L 309.903557 352.993204 
L 311.864032 287.350507 
L 313.824506 335.917977 
L 315.78498 354.035258 
L 317.745455 346.883784 
L 319.705929 306.272288 
L 321.666403 327.653224 
L 323.626877 319.00744 
L 325.587352 348.203272 
L 327.547826 307.257252 
L 329.5083 333.825516 
L 331.468775 353.419925 
L 333.429249 353.29058 
L 335.389723 228.95638 
L 337.350198 311.708047 
L 339.310672 345.341618 
L 341.271146 351.321505 
L 343.231621 283.442428 
L 345.192095 326.142345 
L 347.152569 297.023605 
L 349.113043 337.404499 
L 351.073518 244.803962 
L 353.033992 307.702148 
L 354.994466 290.235199 
L 356.954941 307.44465 
L 358.915415 294.74438 
L 360.875889 329.017525 
L 362.836364 322.103935 
L 364.796838 331.571175 
L 366.757312 235.776812 
L 368.717787 291.20921 
L 370.678261 331.180925 
L 372.638735 337.88714 
L 374.599209 224.573471 
L 376.559684 223.706 
L 378.520158 293.044045 
L 380.480632 328.492397 
L 382.441107 228.796038 
L 384.401581 199.092278 
L 386.362055 271.35599 
L 388.32253 306.700755 
L 390.283004 263.792351 
L 392.243478 206.225186 
L 394.203953 306.907198 
L 396.164427 307.598917 
L 398.124901 253.502647 
L 400.085375 255.879494 
L 402.04585 284.247604 
L 404.006324 326.615302 
L 405.966798 185.192806 
L 407.927273 197.368905 
L 409.887747 283.587345 
L 411.848221 271.202566 
L 413.808696 265.361848 
L 415.76917 179.367074 
L 417.729644 167.17368 
L 419.690119 239.554854 
L 421.650593 174.29973 
L 423.611067 213.516966 
L 425.571542 272.747121 
L 427.532016 212.78038 
L 429.49249 177.531043 
L 431.452964 278.751236 
L 433.413439 189.401279 
L 435.373913 285.628654 
L 437.334387 241.528715 
L 439.294862 177.330204 
L 441.255336 287.488902 
L 443.21581 202.162434 
L 445.176285 235.684703 
L 447.136759 231.046655 
L 449.097233 257.083781 
L 451.057708 224.360029 
L 453.018182 164.205696 
L 454.978656 242.909226 
L 456.93913 214.236179 
L 458.899605 250.889377 
L 460.860079 233.340837 
L 462.820553 177.200357 
L 464.781028 251.526253 
L 466.741502 246.398025 
L 468.701976 162.910226 
L 470.662451 264.050795 
L 472.622925 263.361632 
L 474.583399 297.108649 
L 476.543874 230.332587 
L 478.504348 234.40643 
L 480.464822 271.045717 
L 482.425296 263.649541 
L 484.385771 195.13757 
L 486.346245 158.301535 
L 488.306719 262.916716 
L 490.267194 90.065754 
L 492.227668 226.094096 
L 494.188142 66.96 
L 496.148617 131.452794 
L 498.109091 227.869641 
L 498.109091 227.869641 
" clip-path="url(#p416ec2213d)" style="fill: none; stroke: #ff0000; stroke-width: 1.5; stroke-linecap: square"/>
   </g>
   <g id="patch_8">
    <path d="M 72 384.48 
L 72 51.84 
" style="fill: none; stroke: #000000; stroke-width: 0.8; stroke-linejoin: miter; stroke-linecap: square"/>
   </g>
   <g id="patch_9">
    <path d="M 518.4 384.48 
L 518.4 51.84 
" style="fill: none; stroke: #000000; stroke-width: 0.8; stroke-linejoin: miter; stroke-linecap: square"/>
   </g>
   <g id="patch_10">
    <path d="M 72 384.48 
L 518.4 384.48 
" style="fill: none; stroke: #000000; stroke-width: 0.8; stroke-linejoin: miter; stroke-linecap: square"/>
   </g>
   <g id="patch_11">
    <path d="M 72 51.84 
L 518.4 51.84 
" style="fill: none; stroke: #000000; stroke-width: 0.8; stroke-linejoin: miter; stroke-linecap: square"/>
   </g>
   <g id="text_22">
    <!-- The learning curve on c_gcn_with_agg/host/6 -->
    <g transform="translate(159.605625 45.84) scale(0.12 -0.12)">
     <defs>
      <path id="DejaVuSans-54" d="M -19 4666 
L 3928 4666 
L 3928 4134 
L 2272 4134 
L 2272 0 
L 1638 0 
L 1638 4134 
L -19 4134 
L -19 4666 
z
" transform="scale(0.015625)"/>
      <path id="DejaVuSans-67" d="M 2906 1791 
Q 2906 2416 2648 2759 
Q 2391 3103 1925 3103 
Q 1463 3103 1205 2759 
Q 947 2416 947 1791 
Q 947 1169 1205 825 
Q 1463 481 1925 481 
Q 2391 481 2648 825 
Q 2906 1169 2906 1791 
z
M 3481 434 
Q 3481 -459 3084 -895 
Q 2688 -1331 1869 -1331 
Q 1566 -1331 1297 -1286 
Q 1028 -1241 775 -1147 
L 775 -588 
Q 1028 -725 1275 -790 
Q 1522 -856 1778 -856 
Q 2344 -856 2625 -561 
Q 2906 -266 2906 331 
L 2906 616 
Q 2728 306 2450 153 
Q 2172 0 1784 0 
Q 1141 0 747 490 
Q 353 981 353 1791 
Q 353 2603 747 3093 
Q 1141 3584 1784 3584 
Q 2172 3584 2450 3431 
Q 2728 3278 2906 2969 
L 2906 3500 
L 3481 3500 
L 3481 434 
z
" transform="scale(0.015625)"/>
      <path id="DejaVuSans-75" d="M 544 1381 
L 544 3500 
L 1119 3500 
L 1119 1403 
Q 1119 906 1312 657 
Q 1506 409 1894 409 
Q 2359 409 2629 706 
Q 2900 1003 2900 1516 
L 2900 3500 
L 3475 3500 
L 3475 0 
L 2900 0 
L 2900 538 
Q 2691 219 2414 64 
Q 2138 -91 1772 -91 
Q 1169 -91 856 284 
Q 544 659 544 1381 
z
M 1991 3584 
L 1991 3584 
z
" transform="scale(0.015625)"/>
      <path id="DejaVuSans-5f" d="M 3263 -1063 
L 3263 -1509 
L -63 -1509 
L -63 -1063 
L 3263 -1063 
z
" transform="scale(0.015625)"/>
      <path id="DejaVuSans-77" d="M 269 3500 
L 844 3500 
L 1563 769 
L 2278 3500 
L 2956 3500 
L 3675 769 
L 4391 3500 
L 4966 3500 
L 4050 0 
L 3372 0 
L 2619 2869 
L 1863 0 
L 1184 0 
L 269 3500 
z
" transform="scale(0.015625)"/>
      <path id="DejaVuSans-2f" d="M 1625 4666 
L 2156 4666 
L 531 -594 
L 0 -594 
L 1625 4666 
z
" transform="scale(0.015625)"/>
     </defs>
     <use xlink:href="#DejaVuSans-54"/>
     <use xlink:href="#DejaVuSans-68" x="61.083984"/>
     <use xlink:href="#DejaVuSans-65" x="124.462891"/>
     <use xlink:href="#DejaVuSans-20" x="185.986328"/>
     <use xlink:href="#DejaVuSans-6c" x="217.773438"/>
     <use xlink:href="#DejaVuSans-65" x="245.556641"/>
     <use xlink:href="#DejaVuSans-61" x="307.080078"/>
     <use xlink:href="#DejaVuSans-72" x="368.359375"/>
     <use xlink:href="#DejaVuSans-6e" x="407.722656"/>
     <use xlink:href="#DejaVuSans-69" x="471.101562"/>
     <use xlink:href="#DejaVuSans-6e" x="498.884766"/>
     <use xlink:href="#DejaVuSans-67" x="562.263672"/>
     <use xlink:href="#DejaVuSans-20" x="625.740234"/>
     <use xlink:href="#DejaVuSans-63" x="657.527344"/>
     <use xlink:href="#DejaVuSans-75" x="712.507812"/>
     <use xlink:href="#DejaVuSans-72" x="775.886719"/>
     <use xlink:href="#DejaVuSans-76" x="817"/>
     <use xlink:href="#DejaVuSans-65" x="876.179688"/>
     <use xlink:href="#DejaVuSans-20" x="937.703125"/>
     <use xlink:href="#DejaVuSans-6f" x="969.490234"/>
     <use xlink:href="#DejaVuSans-6e" x="1030.671875"/>
     <use xlink:href="#DejaVuSans-20" x="1094.050781"/>
     <use xlink:href="#DejaVuSans-63" x="1125.837891"/>
     <use xlink:href="#DejaVuSans-5f" x="1180.818359"/>
     <use xlink:href="#DejaVuSans-67" x="1230.818359"/>
     <use xlink:href="#DejaVuSans-63" x="1294.294922"/>
     <use xlink:href="#DejaVuSans-6e" x="1349.275391"/>
     <use xlink:href="#DejaVuSans-5f" x="1412.654297"/>
     <use xlink:href="#DejaVuSans-77" x="1462.654297"/>
     <use xlink:href="#DejaVuSans-69" x="1544.441406"/>
     <use xlink:href="#DejaVuSans-74" x="1572.224609"/>
     <use xlink:href="#DejaVuSans-68" x="1611.433594"/>
     <use xlink:href="#DejaVuSans-5f" x="1674.8125"/>
     <use xlink:href="#DejaVuSans-61" x="1724.8125"/>
     <use xlink:href="#DejaVuSans-67" x="1786.091797"/>
     <use xlink:href="#DejaVuSans-67" x="1849.568359"/>
     <use xlink:href="#DejaVuSans-2f" x="1913.044922"/>
     <use xlink:href="#DejaVuSans-68" x="1946.736328"/>
     <use xlink:href="#DejaVuSans-6f" x="2010.115234"/>
     <use xlink:href="#DejaVuSans-73" x="2071.296875"/>
     <use xlink:href="#DejaVuSans-74" x="2123.396484"/>
     <use xlink:href="#DejaVuSans-2f" x="2162.605469"/>
     <use xlink:href="#DejaVuSans-36" x="2196.296875"/>
    </g>
   </g>
   <g id="legend_2">
    <g id="patch_12">
     <path d="M 460.084375 74.518125 
L 511.4 74.518125 
Q 513.4 74.518125 513.4 72.518125 
L 513.4 58.84 
Q 513.4 56.84 511.4 56.84 
L 460.084375 56.84 
Q 458.084375 56.84 458.084375 58.84 
L 458.084375 72.518125 
Q 458.084375 74.518125 460.084375 74.518125 
z
" style="fill: #ffffff; opacity: 0.8; stroke: #cccccc; stroke-linejoin: miter"/>
    </g>
    <g id="line2d_22">
     <path d="M 462.084375 64.938438 
L 472.084375 64.938438 
L 482.084375 64.938438 
" style="fill: none; stroke: #ff0000; stroke-width: 1.5; stroke-linecap: square"/>
    </g>
    <g id="text_23">
     <!-- loss -->
     <g transform="translate(490.084375 68.438438) scale(0.1 -0.1)">
      <use xlink:href="#DejaVuSans-6c"/>
      <use xlink:href="#DejaVuSans-6f" x="27.783203"/>
      <use xlink:href="#DejaVuSans-73" x="88.964844"/>
      <use xlink:href="#DejaVuSans-73" x="141.064453"/>
     </g>
    </g>
   </g>
  </g>
 </g>
 <defs>
  <clipPath id="p416ec2213d">
   <rect x="72" y="51.84" width="446.4" height="332.64"/>
  </clipPath>
 </defs>
</svg>
