<?xml version="1.0" encoding="utf-8" standalone="no"?>
<!DOCTYPE svg PUBLIC "-//W3C//DTD SVG 1.1//EN"
  "http://www.w3.org/Graphics/SVG/1.1/DTD/svg11.dtd">
<svg xmlns:xlink="http://www.w3.org/1999/xlink" width="576pt" height="432pt" viewBox="0 0 576 432" xmlns="http://www.w3.org/2000/svg" version="1.1">
 <metadata>
  <rdf:RDF xmlns:dc="http://purl.org/dc/elements/1.1/" xmlns:cc="http://creativecommons.org/ns#" xmlns:rdf="http://www.w3.org/1999/02/22-rdf-syntax-ns#">
   <cc:Work>
    <dc:type rdf:resource="http://purl.org/dc/dcmitype/StillImage"/>
    <dc:date>2023-12-26T13:14:41.696178</dc:date>
    <dc:format>image/svg+xml</dc:format>
    <dc:creator>
     <cc:Agent>
      <dc:title>Matplotlib v3.7.1, https://matplotlib.org/</dc:title>
     </cc:Agent>
    </dc:creator>
   </cc:Work>
  </rdf:RDF>
 </metadata>
 <defs>
  <style type="text/css">*{stroke-linejoin: round; stroke-linecap: butt}</style>
 </defs>
 <g id="figure_1">
  <g id="patch_1">
   <path d="M 0 432 
L 576 432 
L 576 0 
L 0 0 
z
" style="fill: #ffffff"/>
  </g>
  <g id="axes_1">
   <g id="patch_2">
    <path d="M 72 384.48 
L 518.4 384.48 
L 518.4 51.84 
L 72 51.84 
z
" style="fill: #ffffff"/>
   </g>
   <g id="matplotlib.axis_1">
    <g id="xtick_1">
     <g id="line2d_1">
      <defs>
       <path id="m32f6d7f7f1" d="M 0 0 
L 0 3.5 
" style="stroke: #000000; stroke-width: 0.8"/>
      </defs>
      <g>
       <use xlink:href="#m32f6d7f7f1" x="92.290909" y="384.48" style="stroke: #000000; stroke-width: 0.8"/>
      </g>
     </g>
     <g id="text_1">
      <!-- 0 -->
      <g transform="translate(89.109659 399.078438) scale(0.1 -0.1)">
       <defs>
        <path id="DejaVuSans-30" d="M 2034 4250 
Q 1547 4250 1301 3770 
Q 1056 3291 1056 2328 
Q 1056 1369 1301 889 
Q 1547 409 2034 409 
Q 2525 409 2770 889 
Q 3016 1369 3016 2328 
Q 3016 3291 2770 3770 
Q 2525 4250 2034 4250 
z
M 2034 4750 
Q 2819 4750 3233 4129 
Q 3647 3509 3647 2328 
Q 3647 1150 3233 529 
Q 2819 -91 2034 -91 
Q 1250 -91 836 529 
Q 422 1150 422 2328 
Q 422 3509 836 4129 
Q 1250 4750 2034 4750 
z
" transform="scale(0.015625)"/>
       </defs>
       <use xlink:href="#DejaVuSans-30"/>
      </g>
     </g>
    </g>
    <g id="xtick_2">
     <g id="line2d_2">
      <g>
       <use xlink:href="#m32f6d7f7f1" x="190.314625" y="384.48" style="stroke: #000000; stroke-width: 0.8"/>
      </g>
     </g>
     <g id="text_2">
      <!-- 50 -->
      <g transform="translate(183.952125 399.078438) scale(0.1 -0.1)">
       <defs>
        <path id="DejaVuSans-35" d="M 691 4666 
L 3169 4666 
L 3169 4134 
L 1269 4134 
L 1269 2991 
Q 1406 3038 1543 3061 
Q 1681 3084 1819 3084 
Q 2600 3084 3056 2656 
Q 3513 2228 3513 1497 
Q 3513 744 3044 326 
Q 2575 -91 1722 -91 
Q 1428 -91 1123 -41 
Q 819 9 494 109 
L 494 744 
Q 775 591 1075 516 
Q 1375 441 1709 441 
Q 2250 441 2565 725 
Q 2881 1009 2881 1497 
Q 2881 1984 2565 2268 
Q 2250 2553 1709 2553 
Q 1456 2553 1204 2497 
Q 953 2441 691 2322 
L 691 4666 
z
" transform="scale(0.015625)"/>
       </defs>
       <use xlink:href="#DejaVuSans-35"/>
       <use xlink:href="#DejaVuSans-30" x="63.623047"/>
      </g>
     </g>
    </g>
    <g id="xtick_3">
     <g id="line2d_3">
      <g>
       <use xlink:href="#m32f6d7f7f1" x="288.33834" y="384.48" style="stroke: #000000; stroke-width: 0.8"/>
      </g>
     </g>
     <g id="text_3">
      <!-- 100 -->
      <g transform="translate(278.79459 399.078438) scale(0.1 -0.1)">
       <defs>
        <path id="DejaVuSans-31" d="M 794 531 
L 1825 531 
L 1825 4091 
L 703 3866 
L 703 4441 
L 1819 4666 
L 2450 4666 
L 2450 531 
L 3481 531 
L 3481 0 
L 794 0 
L 794 531 
z
" transform="scale(0.015625)"/>
       </defs>
       <use xlink:href="#DejaVuSans-31"/>
       <use xlink:href="#DejaVuSans-30" x="63.623047"/>
       <use xlink:href="#DejaVuSans-30" x="127.246094"/>
      </g>
     </g>
    </g>
    <g id="xtick_4">
     <g id="line2d_4">
      <g>
       <use xlink:href="#m32f6d7f7f1" x="386.362055" y="384.48" style="stroke: #000000; stroke-width: 0.8"/>
      </g>
     </g>
     <g id="text_4">
      <!-- 150 -->
      <g transform="translate(376.818305 399.078438) scale(0.1 -0.1)">
       <use xlink:href="#DejaVuSans-31"/>
       <use xlink:href="#DejaVuSans-35" x="63.623047"/>
       <use xlink:href="#DejaVuSans-30" x="127.246094"/>
      </g>
     </g>
    </g>
    <g id="xtick_5">
     <g id="line2d_5">
      <g>
       <use xlink:href="#m32f6d7f7f1" x="484.385771" y="384.48" style="stroke: #000000; stroke-width: 0.8"/>
      </g>
     </g>
     <g id="text_5">
      <!-- 200 -->
      <g transform="translate(474.842021 399.078438) scale(0.1 -0.1)">
       <defs>
        <path id="DejaVuSans-32" d="M 1228 531 
L 3431 531 
L 3431 0 
L 469 0 
L 469 531 
Q 828 903 1448 1529 
Q 2069 2156 2228 2338 
Q 2531 2678 2651 2914 
Q 2772 3150 2772 3378 
Q 2772 3750 2511 3984 
Q 2250 4219 1831 4219 
Q 1534 4219 1204 4116 
Q 875 4013 500 3803 
L 500 4441 
Q 881 4594 1212 4672 
Q 1544 4750 1819 4750 
Q 2544 4750 2975 4387 
Q 3406 4025 3406 3419 
Q 3406 3131 3298 2873 
Q 3191 2616 2906 2266 
Q 2828 2175 2409 1742 
Q 1991 1309 1228 531 
z
" transform="scale(0.015625)"/>
       </defs>
       <use xlink:href="#DejaVuSans-32"/>
       <use xlink:href="#DejaVuSans-30" x="63.623047"/>
       <use xlink:href="#DejaVuSans-30" x="127.246094"/>
      </g>
     </g>
    </g>
    <g id="text_6">
     <!-- epoch -->
     <g transform="translate(279.971875 412.756563) scale(0.1 -0.1)">
      <defs>
       <path id="DejaVuSans-65" d="M 3597 1894 
L 3597 1613 
L 953 1613 
Q 991 1019 1311 708 
Q 1631 397 2203 397 
Q 2534 397 2845 478 
Q 3156 559 3463 722 
L 3463 178 
Q 3153 47 2828 -22 
Q 2503 -91 2169 -91 
Q 1331 -91 842 396 
Q 353 884 353 1716 
Q 353 2575 817 3079 
Q 1281 3584 2069 3584 
Q 2775 3584 3186 3129 
Q 3597 2675 3597 1894 
z
M 3022 2063 
Q 3016 2534 2758 2815 
Q 2500 3097 2075 3097 
Q 1594 3097 1305 2825 
Q 1016 2553 972 2059 
L 3022 2063 
z
" transform="scale(0.015625)"/>
       <path id="DejaVuSans-70" d="M 1159 525 
L 1159 -1331 
L 581 -1331 
L 581 3500 
L 1159 3500 
L 1159 2969 
Q 1341 3281 1617 3432 
Q 1894 3584 2278 3584 
Q 2916 3584 3314 3078 
Q 3713 2572 3713 1747 
Q 3713 922 3314 415 
Q 2916 -91 2278 -91 
Q 1894 -91 1617 61 
Q 1341 213 1159 525 
z
M 3116 1747 
Q 3116 2381 2855 2742 
Q 2594 3103 2138 3103 
Q 1681 3103 1420 2742 
Q 1159 2381 1159 1747 
Q 1159 1113 1420 752 
Q 1681 391 2138 391 
Q 2594 391 2855 752 
Q 3116 1113 3116 1747 
z
" transform="scale(0.015625)"/>
       <path id="DejaVuSans-6f" d="M 1959 3097 
Q 1497 3097 1228 2736 
Q 959 2375 959 1747 
Q 959 1119 1226 758 
Q 1494 397 1959 397 
Q 2419 397 2687 759 
Q 2956 1122 2956 1747 
Q 2956 2369 2687 2733 
Q 2419 3097 1959 3097 
z
M 1959 3584 
Q 2709 3584 3137 3096 
Q 3566 2609 3566 1747 
Q 3566 888 3137 398 
Q 2709 -91 1959 -91 
Q 1206 -91 779 398 
Q 353 888 353 1747 
Q 353 2609 779 3096 
Q 1206 3584 1959 3584 
z
" transform="scale(0.015625)"/>
       <path id="DejaVuSans-63" d="M 3122 3366 
L 3122 2828 
Q 2878 2963 2633 3030 
Q 2388 3097 2138 3097 
Q 1578 3097 1268 2742 
Q 959 2388 959 1747 
Q 959 1106 1268 751 
Q 1578 397 2138 397 
Q 2388 397 2633 464 
Q 2878 531 3122 666 
L 3122 134 
Q 2881 22 2623 -34 
Q 2366 -91 2075 -91 
Q 1284 -91 818 406 
Q 353 903 353 1747 
Q 353 2603 823 3093 
Q 1294 3584 2113 3584 
Q 2378 3584 2631 3529 
Q 2884 3475 3122 3366 
z
" transform="scale(0.015625)"/>
       <path id="DejaVuSans-68" d="M 3513 2113 
L 3513 0 
L 2938 0 
L 2938 2094 
Q 2938 2591 2744 2837 
Q 2550 3084 2163 3084 
Q 1697 3084 1428 2787 
Q 1159 2491 1159 1978 
L 1159 0 
L 581 0 
L 581 4863 
L 1159 4863 
L 1159 2956 
Q 1366 3272 1645 3428 
Q 1925 3584 2291 3584 
Q 2894 3584 3203 3211 
Q 3513 2838 3513 2113 
z
" transform="scale(0.015625)"/>
      </defs>
      <use xlink:href="#DejaVuSans-65"/>
      <use xlink:href="#DejaVuSans-70" x="61.523438"/>
      <use xlink:href="#DejaVuSans-6f" x="125"/>
      <use xlink:href="#DejaVuSans-63" x="186.181641"/>
      <use xlink:href="#DejaVuSans-68" x="241.162109"/>
     </g>
    </g>
   </g>
   <g id="matplotlib.axis_2">
    <g id="ytick_1">
     <g id="line2d_6">
      <defs>
       <path id="m66b97dbf83" d="M 0 0 
L -3.5 0 
" style="stroke: #000000; stroke-width: 0.8"/>
      </defs>
      <g>
       <use xlink:href="#m66b97dbf83" x="72" y="384.48" style="stroke: #000000; stroke-width: 0.8"/>
      </g>
     </g>
     <g id="text_7">
      <!-- 0 -->
      <g transform="translate(58.6375 388.279219) scale(0.1 -0.1)">
       <use xlink:href="#DejaVuSans-30"/>
      </g>
     </g>
    </g>
    <g id="ytick_2">
     <g id="line2d_7">
      <g>
       <use xlink:href="#m66b97dbf83" x="72" y="317.952" style="stroke: #000000; stroke-width: 0.8"/>
      </g>
     </g>
     <g id="text_8">
      <!-- 20 -->
      <g transform="translate(52.275 321.751219) scale(0.1 -0.1)">
       <use xlink:href="#DejaVuSans-32"/>
       <use xlink:href="#DejaVuSans-30" x="63.623047"/>
      </g>
     </g>
    </g>
    <g id="ytick_3">
     <g id="line2d_8">
      <g>
       <use xlink:href="#m66b97dbf83" x="72" y="251.424" style="stroke: #000000; stroke-width: 0.8"/>
      </g>
     </g>
     <g id="text_9">
      <!-- 40 -->
      <g transform="translate(52.275 255.223219) scale(0.1 -0.1)">
       <defs>
        <path id="DejaVuSans-34" d="M 2419 4116 
L 825 1625 
L 2419 1625 
L 2419 4116 
z
M 2253 4666 
L 3047 4666 
L 3047 1625 
L 3713 1625 
L 3713 1100 
L 3047 1100 
L 3047 0 
L 2419 0 
L 2419 1100 
L 313 1100 
L 313 1709 
L 2253 4666 
z
" transform="scale(0.015625)"/>
       </defs>
       <use xlink:href="#DejaVuSans-34"/>
       <use xlink:href="#DejaVuSans-30" x="63.623047"/>
      </g>
     </g>
    </g>
    <g id="ytick_4">
     <g id="line2d_9">
      <g>
       <use xlink:href="#m66b97dbf83" x="72" y="184.896" style="stroke: #000000; stroke-width: 0.8"/>
      </g>
     </g>
     <g id="text_10">
      <!-- 60 -->
      <g transform="translate(52.275 188.695219) scale(0.1 -0.1)">
       <defs>
        <path id="DejaVuSans-36" d="M 2113 2584 
Q 1688 2584 1439 2293 
Q 1191 2003 1191 1497 
Q 1191 994 1439 701 
Q 1688 409 2113 409 
Q 2538 409 2786 701 
Q 3034 994 3034 1497 
Q 3034 2003 2786 2293 
Q 2538 2584 2113 2584 
z
M 3366 4563 
L 3366 3988 
Q 3128 4100 2886 4159 
Q 2644 4219 2406 4219 
Q 1781 4219 1451 3797 
Q 1122 3375 1075 2522 
Q 1259 2794 1537 2939 
Q 1816 3084 2150 3084 
Q 2853 3084 3261 2657 
Q 3669 2231 3669 1497 
Q 3669 778 3244 343 
Q 2819 -91 2113 -91 
Q 1303 -91 875 529 
Q 447 1150 447 2328 
Q 447 3434 972 4092 
Q 1497 4750 2381 4750 
Q 2619 4750 2861 4703 
Q 3103 4656 3366 4563 
z
" transform="scale(0.015625)"/>
       </defs>
       <use xlink:href="#DejaVuSans-36"/>
       <use xlink:href="#DejaVuSans-30" x="63.623047"/>
      </g>
     </g>
    </g>
    <g id="ytick_5">
     <g id="line2d_10">
      <g>
       <use xlink:href="#m66b97dbf83" x="72" y="118.368" style="stroke: #000000; stroke-width: 0.8"/>
      </g>
     </g>
     <g id="text_11">
      <!-- 80 -->
      <g transform="translate(52.275 122.167219) scale(0.1 -0.1)">
       <defs>
        <path id="DejaVuSans-38" d="M 2034 2216 
Q 1584 2216 1326 1975 
Q 1069 1734 1069 1313 
Q 1069 891 1326 650 
Q 1584 409 2034 409 
Q 2484 409 2743 651 
Q 3003 894 3003 1313 
Q 3003 1734 2745 1975 
Q 2488 2216 2034 2216 
z
M 1403 2484 
Q 997 2584 770 2862 
Q 544 3141 544 3541 
Q 544 4100 942 4425 
Q 1341 4750 2034 4750 
Q 2731 4750 3128 4425 
Q 3525 4100 3525 3541 
Q 3525 3141 3298 2862 
Q 3072 2584 2669 2484 
Q 3125 2378 3379 2068 
Q 3634 1759 3634 1313 
Q 3634 634 3220 271 
Q 2806 -91 2034 -91 
Q 1263 -91 848 271 
Q 434 634 434 1313 
Q 434 1759 690 2068 
Q 947 2378 1403 2484 
z
M 1172 3481 
Q 1172 3119 1398 2916 
Q 1625 2713 2034 2713 
Q 2441 2713 2670 2916 
Q 2900 3119 2900 3481 
Q 2900 3844 2670 4047 
Q 2441 4250 2034 4250 
Q 1625 4250 1398 4047 
Q 1172 3844 1172 3481 
z
" transform="scale(0.015625)"/>
       </defs>
       <use xlink:href="#DejaVuSans-38"/>
       <use xlink:href="#DejaVuSans-30" x="63.623047"/>
      </g>
     </g>
    </g>
    <g id="ytick_6">
     <g id="line2d_11">
      <g>
       <use xlink:href="#m66b97dbf83" x="72" y="51.84" style="stroke: #000000; stroke-width: 0.8"/>
      </g>
     </g>
     <g id="text_12">
      <!-- 100 -->
      <g transform="translate(45.9125 55.639219) scale(0.1 -0.1)">
       <use xlink:href="#DejaVuSans-31"/>
       <use xlink:href="#DejaVuSans-30" x="63.623047"/>
       <use xlink:href="#DejaVuSans-30" x="127.246094"/>
      </g>
     </g>
    </g>
    <g id="text_13">
     <!-- rate -->
     <g transform="translate(39.832812 228.31625) rotate(-90) scale(0.1 -0.1)">
      <defs>
       <path id="DejaVuSans-72" d="M 2631 2963 
Q 2534 3019 2420 3045 
Q 2306 3072 2169 3072 
Q 1681 3072 1420 2755 
Q 1159 2438 1159 1844 
L 1159 0 
L 581 0 
L 581 3500 
L 1159 3500 
L 1159 2956 
Q 1341 3275 1631 3429 
Q 1922 3584 2338 3584 
Q 2397 3584 2469 3576 
Q 2541 3569 2628 3553 
L 2631 2963 
z
" transform="scale(0.015625)"/>
       <path id="DejaVuSans-61" d="M 2194 1759 
Q 1497 1759 1228 1600 
Q 959 1441 959 1056 
Q 959 750 1161 570 
Q 1363 391 1709 391 
Q 2188 391 2477 730 
Q 2766 1069 2766 1631 
L 2766 1759 
L 2194 1759 
z
M 3341 1997 
L 3341 0 
L 2766 0 
L 2766 531 
Q 2569 213 2275 61 
Q 1981 -91 1556 -91 
Q 1019 -91 701 211 
Q 384 513 384 1019 
Q 384 1609 779 1909 
Q 1175 2209 1959 2209 
L 2766 2209 
L 2766 2266 
Q 2766 2663 2505 2880 
Q 2244 3097 1772 3097 
Q 1472 3097 1187 3025 
Q 903 2953 641 2809 
L 641 3341 
Q 956 3463 1253 3523 
Q 1550 3584 1831 3584 
Q 2591 3584 2966 3190 
Q 3341 2797 3341 1997 
z
" transform="scale(0.015625)"/>
       <path id="DejaVuSans-74" d="M 1172 4494 
L 1172 3500 
L 2356 3500 
L 2356 3053 
L 1172 3053 
L 1172 1153 
Q 1172 725 1289 603 
Q 1406 481 1766 481 
L 2356 481 
L 2356 0 
L 1766 0 
Q 1100 0 847 248 
Q 594 497 594 1153 
L 594 3053 
L 172 3053 
L 172 3500 
L 594 3500 
L 594 4494 
L 1172 4494 
z
" transform="scale(0.015625)"/>
      </defs>
      <use xlink:href="#DejaVuSans-72"/>
      <use xlink:href="#DejaVuSans-61" x="41.113281"/>
      <use xlink:href="#DejaVuSans-74" x="102.392578"/>
      <use xlink:href="#DejaVuSans-65" x="141.601562"/>
     </g>
    </g>
   </g>
   <g id="line2d_12">
    <path d="M 92.290909 96.08113 
L 94.251383 85.658392 
L 96.211858 122.526 
L 98.172332 117.425496 
L 100.132806 113.655608 
L 102.093281 68.472 
L 104.053755 76.677122 
L 106.014229 57.383966 
L 107.974704 91.923105 
L 109.935178 87.765105 
L 111.895652 89.982722 
L 113.856126 75.29113 
L 115.816601 54.057592 
L 117.777075 97.74433 
L 119.737549 64.480305 
L 121.698024 60.045096 
L 123.658498 74.45953 
L 125.618972 62.928034 
L 127.579447 78.894713 
L 129.539921 99.684713 
L 131.500395 64.203096 
L 133.46087 71.133105 
L 135.421344 74.45953 
L 137.381818 54.057592 
L 139.342292 75.568313 
L 141.302767 74.45953 
L 143.263241 103.288347 
L 145.223715 93.309096 
L 147.18419 71.133105 
L 149.144664 63.371522 
L 151.105138 67.806705 
L 153.065613 56.718722 
L 155.026087 75.124825 
L 156.986561 77.508722 
L 158.947036 92.200313 
L 160.90751 64.480305 
L 162.867984 62.262713 
L 164.828458 74.45953 
L 166.788933 104.39713 
L 168.749407 74.45953 
L 170.709881 54.057592 
L 172.670356 81.7776 
L 174.63083 82.221139 
L 176.591304 56.718722 
L 178.551779 51.84 
L 180.512253 76.677096 
L 182.472727 54.057592 
L 184.433202 82.221139 
L 186.393676 56.718722 
L 188.35415 98.4096 
L 190.314625 66.254408 
L 192.275099 54.057592 
L 194.235573 59.601608 
L 196.196047 122.526 
L 198.156522 60.045122 
L 200.116996 56.718722 
L 202.07747 76.677096 
L 204.037945 51.84 
L 205.998419 74.45953 
L 207.958893 57.383966 
L 209.919368 71.133105 
L 211.879842 103.953592 
L 213.840316 64.480305 
L 215.800791 62.928034 
L 217.761265 51.84 
L 219.721739 54.057592 
L 221.682213 54.057592 
L 223.642688 56.718722 
L 225.603162 71.133105 
L 227.563636 70.689592 
L 229.524111 71.133105 
L 231.484585 51.84 
L 233.445059 74.45953 
L 235.405534 61.541966 
L 237.366008 87.765105 
L 239.326482 75.568313 
L 241.286957 56.718722 
L 243.247431 82.221139 
L 245.207905 71.133105 
L 247.168379 71.133105 
L 249.128854 63.759608 
L 251.089328 65.1456 
L 253.049802 64.480305 
L 255.010277 75.568313 
L 256.970751 68.472 
L 258.931225 57.383966 
L 260.8917 60.045096 
L 262.852174 71.133105 
L 264.812648 66.254408 
L 266.773123 71.133105 
L 268.733597 65.1456 
L 270.694071 65.1456 
L 272.654545 57.383966 
L 274.61502 65.1456 
L 276.575494 65.1456 
L 278.535968 54.057592 
L 280.496443 67.806705 
L 282.456917 67.806705 
L 284.417391 104.39713 
L 286.377866 64.480305 
L 288.33834 63.371522 
L 290.298814 76.677096 
L 292.259289 65.1456 
L 294.219763 64.480305 
L 296.180237 63.371522 
L 298.140711 87.765105 
L 300.101186 51.84 
L 302.06166 71.133105 
L 304.022134 64.480305 
L 305.982609 75.568313 
L 307.943083 63.759608 
L 309.903557 56.718722 
L 311.864032 56.718722 
L 313.824506 75.568313 
L 315.78498 63.371522 
L 317.745455 54.057592 
L 319.705929 54.057592 
L 321.666403 64.480305 
L 323.626877 67.806705 
L 325.587352 104.39713 
L 327.547826 74.847592 
L 329.5083 51.84 
L 331.468775 56.718722 
L 333.429249 74.182322 
L 335.389723 66.420739 
L 337.350198 56.718722 
L 339.310672 66.254408 
L 341.271146 60.045122 
L 343.231621 56.718722 
L 345.192095 71.133105 
L 347.152569 67.806705 
L 349.113043 73.350696 
L 351.073518 63.759608 
L 353.033992 56.718722 
L 354.994466 59.601608 
L 356.954941 56.718722 
L 358.915415 56.718722 
L 360.875889 83.052713 
L 362.836364 87.765105 
L 364.796838 64.480305 
L 366.757312 87.765105 
L 368.717787 63.371522 
L 370.678261 56.718722 
L 372.638735 75.568313 
L 374.599209 60.045122 
L 376.559684 74.45953 
L 378.520158 71.133105 
L 380.480632 69.747113 
L 382.441107 70.024322 
L 384.401581 71.133105 
L 388.32253 71.133105 
L 390.283004 56.718722 
L 392.243478 66.254408 
L 394.203953 62.262713 
L 396.164427 62.262713 
L 398.124901 54.057592 
L 400.085375 59.601608 
L 402.04585 81.7776 
L 404.006324 74.45953 
L 405.966798 65.1456 
L 407.927273 59.601608 
L 409.887747 65.1456 
L 411.848221 59.601608 
L 413.808696 51.84 
L 417.729644 89.982722 
L 419.690119 71.133105 
L 421.650593 82.221139 
L 423.611067 56.718722 
L 425.571542 132.117139 
L 427.532016 56.718722 
L 429.49249 82.221139 
L 431.452964 71.133105 
L 433.413439 51.84 
L 435.373913 71.133105 
L 437.334387 76.677096 
L 439.294862 71.133105 
L 441.255336 73.350696 
L 443.21581 51.84 
L 445.176285 61.541966 
L 447.136759 57.383966 
L 449.097233 67.806705 
L 451.057708 54.057592 
L 453.018182 54.057592 
L 454.978656 59.601608 
L 456.93913 73.350696 
L 458.899605 89.705513 
L 460.860079 67.806705 
L 462.820553 81.11233 
L 464.781028 57.383966 
L 468.701976 57.383966 
L 470.662451 60.045122 
L 472.622925 54.057592 
L 474.583399 74.45953 
L 476.543874 75.568313 
L 478.504348 64.480305 
L 480.464822 62.928034 
L 482.425296 51.84 
L 484.385771 61.541966 
L 486.346245 60.045122 
L 488.306719 67.806705 
L 490.267194 64.480305 
L 492.227668 70.689592 
L 494.188142 65.589113 
L 496.148617 81.7776 
L 498.109091 89.982722 
L 498.109091 89.982722 
" clip-path="url(#pd9430ebfa8)" style="fill: none; stroke: #0000ff; stroke-width: 1.5; stroke-linecap: square"/>
   </g>
   <g id="line2d_13">
    <path d="M 92.290909 51.84 
L 94.251383 85.104 
L 96.211858 51.84 
L 100.132806 51.84 
L 102.093281 79.559983 
L 104.053755 79.559983 
L 106.014229 85.104 
L 107.974704 51.84 
L 109.935178 79.559983 
L 111.895652 85.104 
L 113.856126 85.104 
L 115.816601 51.84 
L 117.777075 51.84 
L 119.737549 79.559983 
L 121.698024 51.84 
L 125.618972 51.84 
L 127.579447 79.559983 
L 129.539921 85.104 
L 131.500395 51.84 
L 133.46087 79.559983 
L 135.421344 51.84 
L 137.381818 85.104 
L 139.342292 51.84 
L 145.223715 51.84 
L 147.18419 79.559983 
L 149.144664 51.84 
L 151.105138 79.559983 
L 153.065613 51.84 
L 155.026087 51.84 
L 156.986561 79.559983 
L 158.947036 51.84 
L 160.90751 79.559983 
L 162.867984 51.84 
L 164.828458 51.84 
L 166.788933 79.559983 
L 168.749407 51.84 
L 178.551779 51.84 
L 180.512253 79.559983 
L 186.393676 79.559983 
L 188.35415 51.84 
L 192.275099 51.84 
L 194.235573 79.559983 
L 196.196047 51.84 
L 217.761265 51.84 
L 219.721739 79.559983 
L 221.682213 51.84 
L 223.642688 79.559983 
L 225.603162 51.84 
L 227.563636 79.559983 
L 229.524111 51.84 
L 231.484585 79.559983 
L 235.405534 79.559983 
L 237.366008 51.84 
L 239.326482 79.559983 
L 241.286957 79.559983 
L 243.247431 51.84 
L 245.207905 79.559983 
L 247.168379 51.84 
L 249.128854 79.559983 
L 251.089328 79.559983 
L 253.049802 51.84 
L 255.010277 79.559983 
L 258.931225 79.559983 
L 260.8917 51.84 
L 262.852174 79.559983 
L 264.812648 51.84 
L 266.773123 79.559983 
L 268.733597 51.84 
L 270.694071 79.559983 
L 272.654545 79.559983 
L 274.61502 51.84 
L 286.377866 51.84 
L 288.33834 79.559983 
L 290.298814 51.84 
L 294.219763 51.84 
L 296.180237 79.559983 
L 298.140711 79.559983 
L 300.101186 51.84 
L 307.943083 51.84 
L 309.903557 79.559983 
L 311.864032 51.84 
L 315.78498 51.84 
L 317.745455 79.559983 
L 319.705929 51.84 
L 321.666403 51.84 
L 323.626877 79.559983 
L 325.587352 51.84 
L 327.547826 79.559983 
L 329.5083 51.84 
L 331.468775 79.559983 
L 333.429249 79.559983 
L 335.389723 51.84 
L 341.271146 51.84 
L 343.231621 79.559983 
L 345.192095 51.84 
L 347.152569 79.559983 
L 349.113043 51.84 
L 358.915415 51.84 
L 360.875889 79.559983 
L 362.836364 79.559983 
L 364.796838 51.84 
L 366.757312 79.559983 
L 368.717787 51.84 
L 374.599209 51.84 
L 376.559684 79.559983 
L 378.520158 51.84 
L 380.480632 79.559983 
L 382.441107 51.84 
L 390.283004 51.84 
L 392.243478 79.559983 
L 394.203953 79.559983 
L 396.164427 51.84 
L 398.124901 79.559983 
L 400.085375 51.84 
L 402.04585 79.559983 
L 405.966798 79.559983 
L 407.927273 51.84 
L 409.887747 79.559983 
L 411.848221 51.84 
L 413.808696 51.84 
L 415.76917 79.559983 
L 417.729644 79.559983 
L 419.690119 51.84 
L 421.650593 79.559983 
L 423.611067 51.84 
L 425.571542 51.84 
L 427.532016 79.559983 
L 429.49249 51.84 
L 431.452964 79.559983 
L 433.413439 79.559983 
L 435.373913 51.84 
L 439.294862 51.84 
L 441.255336 79.559983 
L 445.176285 79.559983 
L 447.136759 51.84 
L 451.057708 51.84 
L 453.018182 79.559983 
L 454.978656 51.84 
L 456.93913 79.559983 
L 458.899605 51.84 
L 460.860079 51.84 
L 462.820553 79.559983 
L 464.781028 51.84 
L 466.741502 79.559983 
L 468.701976 51.84 
L 476.543874 51.84 
L 478.504348 79.559983 
L 480.464822 79.559983 
L 482.425296 51.84 
L 484.385771 79.559983 
L 486.346245 51.84 
L 488.306719 51.84 
L 490.267194 79.559983 
L 492.227668 51.84 
L 498.109091 51.84 
L 498.109091 51.84 
" clip-path="url(#pd9430ebfa8)" style="fill: none; stroke: #008000; stroke-width: 1.5; stroke-linecap: square"/>
   </g>
   <g id="patch_3">
    <path d="M 72 384.48 
L 72 51.84 
" style="fill: none; stroke: #000000; stroke-width: 0.8; stroke-linejoin: miter; stroke-linecap: square"/>
   </g>
   <g id="patch_4">
    <path d="M 518.4 384.48 
L 518.4 51.84 
" style="fill: none; stroke: #000000; stroke-width: 0.8; stroke-linejoin: miter; stroke-linecap: square"/>
   </g>
   <g id="patch_5">
    <path d="M 72 384.48 
L 518.4 384.48 
" style="fill: none; stroke: #000000; stroke-width: 0.8; stroke-linejoin: miter; stroke-linecap: square"/>
   </g>
   <g id="patch_6">
    <path d="M 72 51.84 
L 518.4 51.84 
" style="fill: none; stroke: #000000; stroke-width: 0.8; stroke-linejoin: miter; stroke-linecap: square"/>
   </g>
   <g id="legend_1">
    <g id="patch_7">
     <path d="M 79 89.19625 
L 160.740625 89.19625 
Q 162.740625 89.19625 162.740625 87.19625 
L 162.740625 58.84 
Q 162.740625 56.84 160.740625 56.84 
L 79 56.84 
Q 77 56.84 77 58.84 
L 77 87.19625 
Q 77 89.19625 79 89.19625 
z
" style="fill: #ffffff; opacity: 0.8; stroke: #cccccc; stroke-linejoin: miter"/>
    </g>
    <g id="line2d_14">
     <path d="M 81 64.938437 
L 91 64.938437 
L 101 64.938437 
" style="fill: none; stroke: #0000ff; stroke-width: 1.5; stroke-linecap: square"/>
    </g>
    <g id="text_14">
     <!-- train mAP -->
     <g transform="translate(109 68.438437) scale(0.1 -0.1)">
      <defs>
       <path id="DejaVuSans-69" d="M 603 3500 
L 1178 3500 
L 1178 0 
L 603 0 
L 603 3500 
z
M 603 4863 
L 1178 4863 
L 1178 4134 
L 603 4134 
L 603 4863 
z
" transform="scale(0.015625)"/>
       <path id="DejaVuSans-6e" d="M 3513 2113 
L 3513 0 
L 2938 0 
L 2938 2094 
Q 2938 2591 2744 2837 
Q 2550 3084 2163 3084 
Q 1697 3084 1428 2787 
Q 1159 2491 1159 1978 
L 1159 0 
L 581 0 
L 581 3500 
L 1159 3500 
L 1159 2956 
Q 1366 3272 1645 3428 
Q 1925 3584 2291 3584 
Q 2894 3584 3203 3211 
Q 3513 2838 3513 2113 
z
" transform="scale(0.015625)"/>
       <path id="DejaVuSans-20" transform="scale(0.015625)"/>
       <path id="DejaVuSans-6d" d="M 3328 2828 
Q 3544 3216 3844 3400 
Q 4144 3584 4550 3584 
Q 5097 3584 5394 3201 
Q 5691 2819 5691 2113 
L 5691 0 
L 5113 0 
L 5113 2094 
Q 5113 2597 4934 2840 
Q 4756 3084 4391 3084 
Q 3944 3084 3684 2787 
Q 3425 2491 3425 1978 
L 3425 0 
L 2847 0 
L 2847 2094 
Q 2847 2600 2669 2842 
Q 2491 3084 2119 3084 
Q 1678 3084 1418 2786 
Q 1159 2488 1159 1978 
L 1159 0 
L 581 0 
L 581 3500 
L 1159 3500 
L 1159 2956 
Q 1356 3278 1631 3431 
Q 1906 3584 2284 3584 
Q 2666 3584 2933 3390 
Q 3200 3197 3328 2828 
z
" transform="scale(0.015625)"/>
       <path id="DejaVuSans-41" d="M 2188 4044 
L 1331 1722 
L 3047 1722 
L 2188 4044 
z
M 1831 4666 
L 2547 4666 
L 4325 0 
L 3669 0 
L 3244 1197 
L 1141 1197 
L 716 0 
L 50 0 
L 1831 4666 
z
" transform="scale(0.015625)"/>
       <path id="DejaVuSans-50" d="M 1259 4147 
L 1259 2394 
L 2053 2394 
Q 2494 2394 2734 2622 
Q 2975 2850 2975 3272 
Q 2975 3691 2734 3919 
Q 2494 4147 2053 4147 
L 1259 4147 
z
M 628 4666 
L 2053 4666 
Q 2838 4666 3239 4311 
Q 3641 3956 3641 3272 
Q 3641 2581 3239 2228 
Q 2838 1875 2053 1875 
L 1259 1875 
L 1259 0 
L 628 0 
L 628 4666 
z
" transform="scale(0.015625)"/>
      </defs>
      <use xlink:href="#DejaVuSans-74"/>
      <use xlink:href="#DejaVuSans-72" x="39.208984"/>
      <use xlink:href="#DejaVuSans-61" x="80.322266"/>
      <use xlink:href="#DejaVuSans-69" x="141.601562"/>
      <use xlink:href="#DejaVuSans-6e" x="169.384766"/>
      <use xlink:href="#DejaVuSans-20" x="232.763672"/>
      <use xlink:href="#DejaVuSans-6d" x="264.550781"/>
      <use xlink:href="#DejaVuSans-41" x="361.962891"/>
      <use xlink:href="#DejaVuSans-50" x="430.371094"/>
     </g>
    </g>
    <g id="line2d_15">
     <path d="M 81 79.616562 
L 91 79.616562 
L 101 79.616562 
" style="fill: none; stroke: #008000; stroke-width: 1.5; stroke-linecap: square"/>
    </g>
    <g id="text_15">
     <!-- valid mAP -->
     <g transform="translate(109 83.116562) scale(0.1 -0.1)">
      <defs>
       <path id="DejaVuSans-76" d="M 191 3500 
L 800 3500 
L 1894 563 
L 2988 3500 
L 3597 3500 
L 2284 0 
L 1503 0 
L 191 3500 
z
" transform="scale(0.015625)"/>
       <path id="DejaVuSans-6c" d="M 603 4863 
L 1178 4863 
L 1178 0 
L 603 0 
L 603 4863 
z
" transform="scale(0.015625)"/>
       <path id="DejaVuSans-64" d="M 2906 2969 
L 2906 4863 
L 3481 4863 
L 3481 0 
L 2906 0 
L 2906 525 
Q 2725 213 2448 61 
Q 2172 -91 1784 -91 
Q 1150 -91 751 415 
Q 353 922 353 1747 
Q 353 2572 751 3078 
Q 1150 3584 1784 3584 
Q 2172 3584 2448 3432 
Q 2725 3281 2906 2969 
z
M 947 1747 
Q 947 1113 1208 752 
Q 1469 391 1925 391 
Q 2381 391 2643 752 
Q 2906 1113 2906 1747 
Q 2906 2381 2643 2742 
Q 2381 3103 1925 3103 
Q 1469 3103 1208 2742 
Q 947 2381 947 1747 
z
" transform="scale(0.015625)"/>
      </defs>
      <use xlink:href="#DejaVuSans-76"/>
      <use xlink:href="#DejaVuSans-61" x="59.179688"/>
      <use xlink:href="#DejaVuSans-6c" x="120.458984"/>
      <use xlink:href="#DejaVuSans-69" x="148.242188"/>
      <use xlink:href="#DejaVuSans-64" x="176.025391"/>
      <use xlink:href="#DejaVuSans-20" x="239.501953"/>
      <use xlink:href="#DejaVuSans-6d" x="271.289062"/>
      <use xlink:href="#DejaVuSans-41" x="368.701172"/>
      <use xlink:href="#DejaVuSans-50" x="437.109375"/>
     </g>
    </g>
   </g>
  </g>
  <g id="axes_2">
   <g id="matplotlib.axis_3">
    <g id="ytick_7">
     <g id="line2d_16">
      <defs>
       <path id="mb7c06874e7" d="M 0 0 
L 3.5 0 
" style="stroke: #000000; stroke-width: 0.8"/>
      </defs>
      <g>
       <use xlink:href="#mb7c06874e7" x="518.4" y="345.788544" style="stroke: #000000; stroke-width: 0.8"/>
      </g>
     </g>
     <g id="text_16">
      <!-- 0.2 -->
      <g transform="translate(525.4 349.587763) scale(0.1 -0.1)">
       <defs>
        <path id="DejaVuSans-2e" d="M 684 794 
L 1344 794 
L 1344 0 
L 684 0 
L 684 794 
z
" transform="scale(0.015625)"/>
       </defs>
       <use xlink:href="#DejaVuSans-30"/>
       <use xlink:href="#DejaVuSans-2e" x="63.623047"/>
       <use xlink:href="#DejaVuSans-32" x="95.410156"/>
      </g>
     </g>
    </g>
    <g id="ytick_8">
     <g id="line2d_17">
      <g>
       <use xlink:href="#mb7c06874e7" x="518.4" y="289.648909" style="stroke: #000000; stroke-width: 0.8"/>
      </g>
     </g>
     <g id="text_17">
      <!-- 0.4 -->
      <g transform="translate(525.4 293.448128) scale(0.1 -0.1)">
       <use xlink:href="#DejaVuSans-30"/>
       <use xlink:href="#DejaVuSans-2e" x="63.623047"/>
       <use xlink:href="#DejaVuSans-34" x="95.410156"/>
      </g>
     </g>
    </g>
    <g id="ytick_9">
     <g id="line2d_18">
      <g>
       <use xlink:href="#mb7c06874e7" x="518.4" y="233.509273" style="stroke: #000000; stroke-width: 0.8"/>
      </g>
     </g>
     <g id="text_18">
      <!-- 0.6 -->
      <g transform="translate(525.4 237.308492) scale(0.1 -0.1)">
       <use xlink:href="#DejaVuSans-30"/>
       <use xlink:href="#DejaVuSans-2e" x="63.623047"/>
       <use xlink:href="#DejaVuSans-36" x="95.410156"/>
      </g>
     </g>
    </g>
    <g id="ytick_10">
     <g id="line2d_19">
      <g>
       <use xlink:href="#mb7c06874e7" x="518.4" y="177.369638" style="stroke: #000000; stroke-width: 0.8"/>
      </g>
     </g>
     <g id="text_19">
      <!-- 0.8 -->
      <g transform="translate(525.4 181.168857) scale(0.1 -0.1)">
       <use xlink:href="#DejaVuSans-30"/>
       <use xlink:href="#DejaVuSans-2e" x="63.623047"/>
       <use xlink:href="#DejaVuSans-38" x="95.410156"/>
      </g>
     </g>
    </g>
    <g id="ytick_11">
     <g id="line2d_20">
      <g>
       <use xlink:href="#mb7c06874e7" x="518.4" y="121.230003" style="stroke: #000000; stroke-width: 0.8"/>
      </g>
     </g>
     <g id="text_20">
      <!-- 1.0 -->
      <g transform="translate(525.4 125.029221) scale(0.1 -0.1)">
       <use xlink:href="#DejaVuSans-31"/>
       <use xlink:href="#DejaVuSans-2e" x="63.623047"/>
       <use xlink:href="#DejaVuSans-30" x="95.410156"/>
      </g>
     </g>
    </g>
    <g id="ytick_12">
     <g id="line2d_21">
      <g>
       <use xlink:href="#mb7c06874e7" x="518.4" y="65.090367" style="stroke: #000000; stroke-width: 0.8"/>
      </g>
     </g>
     <g id="text_21">
      <!-- 1.2 -->
      <g transform="translate(525.4 68.889586) scale(0.1 -0.1)">
       <use xlink:href="#DejaVuSans-31"/>
       <use xlink:href="#DejaVuSans-2e" x="63.623047"/>
       <use xlink:href="#DejaVuSans-32" x="95.410156"/>
      </g>
     </g>
    </g>
    <g id="text_22">
     <!-- loss -->
     <g transform="translate(552.901563 227.817812) rotate(-90) scale(0.1 -0.1)">
      <defs>
       <path id="DejaVuSans-73" d="M 2834 3397 
L 2834 2853 
Q 2591 2978 2328 3040 
Q 2066 3103 1784 3103 
Q 1356 3103 1142 2972 
Q 928 2841 928 2578 
Q 928 2378 1081 2264 
Q 1234 2150 1697 2047 
L 1894 2003 
Q 2506 1872 2764 1633 
Q 3022 1394 3022 966 
Q 3022 478 2636 193 
Q 2250 -91 1575 -91 
Q 1294 -91 989 -36 
Q 684 19 347 128 
L 347 722 
Q 666 556 975 473 
Q 1284 391 1588 391 
Q 1994 391 2212 530 
Q 2431 669 2431 922 
Q 2431 1156 2273 1281 
Q 2116 1406 1581 1522 
L 1381 1569 
Q 847 1681 609 1914 
Q 372 2147 372 2553 
Q 372 3047 722 3315 
Q 1072 3584 1716 3584 
Q 2034 3584 2315 3537 
Q 2597 3491 2834 3397 
z
" transform="scale(0.015625)"/>
      </defs>
      <use xlink:href="#DejaVuSans-6c"/>
      <use xlink:href="#DejaVuSans-6f" x="27.783203"/>
      <use xlink:href="#DejaVuSans-73" x="88.964844"/>
      <use xlink:href="#DejaVuSans-73" x="141.064453"/>
     </g>
    </g>
   </g>
   <g id="line2d_22">
    <path d="M 92.290909 66.96 
L 94.251383 360.460013 
L 96.211858 239.763684 
L 98.172332 266.076838 
L 100.132806 277.872627 
L 102.093281 238.517733 
L 104.053755 266.630941 
L 106.014229 350.853125 
L 107.974704 319.583869 
L 109.935178 191.750643 
L 111.895652 282.248614 
L 113.856126 343.868784 
L 115.816601 307.571959 
L 117.777075 304.634562 
L 119.737549 220.007351 
L 121.698024 290.14011 
L 123.658498 369.36 
L 125.618972 301.532082 
L 127.579447 219.520733 
L 129.539921 347.164222 
L 131.500395 347.464345 
L 133.46087 270.430055 
L 135.421344 263.067574 
L 137.381818 325.274455 
L 139.342292 296.460975 
L 141.302767 340.771063 
L 143.263241 293.721973 
L 145.223715 324.560522 
L 147.18419 261.767682 
L 149.144664 297.275093 
L 151.105138 215.442154 
L 153.065613 257.969898 
L 155.026087 349.692431 
L 156.986561 264.485452 
L 158.947036 266.75833 
L 160.90751 226.719677 
L 162.867984 341.63816 
L 164.828458 357.302433 
L 166.788933 207.23564 
L 168.749407 246.216163 
L 170.709881 278.869346 
L 172.670356 292.456079 
L 174.63083 339.167849 
L 176.591304 332.551796 
L 178.551779 350.785763 
L 180.512253 254.655086 
L 182.472727 228.476474 
L 184.433202 210.189918 
L 186.393676 244.353393 
L 188.35415 361.676304 
L 190.314625 277.580045 
L 192.275099 258.503146 
L 194.235573 233.735686 
L 196.196047 352.81145 
L 198.156522 275.365859 
L 200.116996 253.000565 
L 202.07747 263.92848 
L 204.037945 284.727408 
L 205.998419 272.711758 
L 207.958893 256.135052 
L 209.919368 271.591205 
L 211.879842 275.565132 
L 213.840316 312.834785 
L 215.800791 234.311397 
L 217.761265 271.080335 
L 219.721739 256.113637 
L 221.682213 352.306147 
L 223.642688 236.688576 
L 225.603162 268.699049 
L 227.563636 251.597812 
L 229.524111 350.645654 
L 231.484585 239.579862 
L 233.445059 229.883426 
L 235.405534 240.090255 
L 237.366008 273.721059 
L 239.326482 222.417406 
L 241.286957 210.819971 
L 243.247431 266.350322 
L 245.207905 234.485148 
L 247.168379 259.523263 
L 249.128854 225.756663 
L 251.089328 236.374771 
L 253.049802 337.224072 
L 255.010277 216.846948 
L 256.970751 222.136795 
L 258.931225 235.684922 
L 260.8917 349.481993 
L 262.852174 246.819329 
L 264.812648 329.429519 
L 266.773123 237.621625 
L 268.733597 275.648963 
L 270.694071 233.821215 
L 272.654545 225.048343 
L 274.61502 343.78994 
L 276.575494 275.328825 
L 278.535968 340.742587 
L 280.496443 253.444135 
L 282.456917 267.041091 
L 284.417391 343.049856 
L 286.377866 341.22939 
L 288.33834 215.367132 
L 290.298814 333.67483 
L 292.259289 337.96787 
L 294.219763 336.390508 
L 296.180237 210.300877 
L 298.140711 218.754574 
L 300.101186 337.019745 
L 302.06166 336.466115 
L 304.022134 240.33364 
L 305.982609 255.048982 
L 307.943083 332.920006 
L 309.903557 234.898702 
L 311.864032 309.644007 
L 313.824506 257.218546 
L 315.78498 258.806377 
L 317.745455 229.649445 
L 319.705929 309.84472 
L 321.666403 320.965843 
L 323.626877 225.949972 
L 325.587352 331.324119 
L 327.547826 189.480157 
L 329.5083 238.972847 
L 331.468775 209.093257 
L 333.429249 216.742313 
L 335.389723 306.978011 
L 337.350198 239.383976 
L 339.310672 252.871955 
L 341.271146 330.66764 
L 343.231621 203.117626 
L 345.192095 315.40641 
L 347.152569 201.594879 
L 349.113043 326.210616 
L 351.073518 228.453117 
L 353.033992 298.882348 
L 354.994466 301.944181 
L 356.954941 244.974494 
L 358.915415 303.810573 
L 360.875889 194.808585 
L 362.836364 190.278205 
L 364.796838 310.051698 
L 366.757312 197.55105 
L 368.717787 302.315398 
L 370.678261 236.183737 
L 372.638735 236.884194 
L 374.599209 306.332984 
L 376.559684 182.61138 
L 378.520158 230.031545 
L 380.480632 185.642303 
L 382.441107 217.603286 
L 384.401581 215.738074 
L 386.362055 288.461154 
L 388.32253 224.975479 
L 390.283004 295.227388 
L 392.243478 167.998231 
L 394.203953 173.085232 
L 396.164427 282.177458 
L 398.124901 187.619043 
L 400.085375 218.377677 
L 402.04585 178.608509 
L 404.006324 181.280737 
L 405.966798 189.575891 
L 407.927273 218.778248 
L 409.887747 165.172814 
L 411.848221 282.353885 
L 413.808696 288.933895 
L 415.76917 171.865281 
L 417.729644 168.110228 
L 419.690119 272.783927 
L 421.650593 187.509991 
L 423.611067 272.189971 
L 425.571542 202.042046 
L 427.532016 158.24993 
L 429.49249 221.550076 
L 431.452964 174.786298 
L 433.413439 171.319686 
L 435.373913 196.047259 
L 437.334387 213.89769 
L 439.294862 196.257968 
L 441.255336 147.844421 
L 443.21581 156.426728 
L 445.176285 179.910843 
L 447.136759 210.352509 
L 449.097233 200.458967 
L 451.057708 259.339273 
L 453.018182 174.385693 
L 454.978656 198.853702 
L 456.93913 149.419369 
L 458.899605 186.142222 
L 460.860079 217.859152 
L 462.820553 152.605622 
L 464.781028 184.390111 
L 466.741502 135.800036 
L 468.701976 290.528075 
L 470.662451 208.670165 
L 472.622925 265.135088 
L 474.583399 186.822066 
L 476.543874 211.690865 
L 478.504348 160.966394 
L 480.464822 146.833121 
L 482.425296 241.925402 
L 484.385771 172.915179 
L 486.346245 264.010478 
L 488.306719 177.975244 
L 490.267194 135.134029 
L 492.227668 277.850726 
L 494.188142 260.644168 
L 496.148617 185.746185 
L 498.109091 176.885793 
L 498.109091 176.885793 
" clip-path="url(#pd9430ebfa8)" style="fill: none; stroke: #ff0000; stroke-width: 1.5; stroke-linecap: square"/>
   </g>
   <g id="patch_8">
    <path d="M 72 384.48 
L 72 51.84 
" style="fill: none; stroke: #000000; stroke-width: 0.8; stroke-linejoin: miter; stroke-linecap: square"/>
   </g>
   <g id="patch_9">
    <path d="M 518.4 384.48 
L 518.4 51.84 
" style="fill: none; stroke: #000000; stroke-width: 0.8; stroke-linejoin: miter; stroke-linecap: square"/>
   </g>
   <g id="patch_10">
    <path d="M 72 384.48 
L 518.4 384.48 
" style="fill: none; stroke: #000000; stroke-width: 0.8; stroke-linejoin: miter; stroke-linecap: square"/>
   </g>
   <g id="patch_11">
    <path d="M 72 51.84 
L 518.4 51.84 
" style="fill: none; stroke: #000000; stroke-width: 0.8; stroke-linejoin: miter; stroke-linecap: square"/>
   </g>
   <g id="text_23">
    <!-- The learning curve on c_gcn_with_agg/host/9 -->
    <g transform="translate(159.605625 45.84) scale(0.12 -0.12)">
     <defs>
      <path id="DejaVuSans-54" d="M -19 4666 
L 3928 4666 
L 3928 4134 
L 2272 4134 
L 2272 0 
L 1638 0 
L 1638 4134 
L -19 4134 
L -19 4666 
z
" transform="scale(0.015625)"/>
      <path id="DejaVuSans-67" d="M 2906 1791 
Q 2906 2416 2648 2759 
Q 2391 3103 1925 3103 
Q 1463 3103 1205 2759 
Q 947 2416 947 1791 
Q 947 1169 1205 825 
Q 1463 481 1925 481 
Q 2391 481 2648 825 
Q 2906 1169 2906 1791 
z
M 3481 434 
Q 3481 -459 3084 -895 
Q 2688 -1331 1869 -1331 
Q 1566 -1331 1297 -1286 
Q 1028 -1241 775 -1147 
L 775 -588 
Q 1028 -725 1275 -790 
Q 1522 -856 1778 -856 
Q 2344 -856 2625 -561 
Q 2906 -266 2906 331 
L 2906 616 
Q 2728 306 2450 153 
Q 2172 0 1784 0 
Q 1141 0 747 490 
Q 353 981 353 1791 
Q 353 2603 747 3093 
Q 1141 3584 1784 3584 
Q 2172 3584 2450 3431 
Q 2728 3278 2906 2969 
L 2906 3500 
L 3481 3500 
L 3481 434 
z
" transform="scale(0.015625)"/>
      <path id="DejaVuSans-75" d="M 544 1381 
L 544 3500 
L 1119 3500 
L 1119 1403 
Q 1119 906 1312 657 
Q 1506 409 1894 409 
Q 2359 409 2629 706 
Q 2900 1003 2900 1516 
L 2900 3500 
L 3475 3500 
L 3475 0 
L 2900 0 
L 2900 538 
Q 2691 219 2414 64 
Q 2138 -91 1772 -91 
Q 1169 -91 856 284 
Q 544 659 544 1381 
z
M 1991 3584 
L 1991 3584 
z
" transform="scale(0.015625)"/>
      <path id="DejaVuSans-5f" d="M 3263 -1063 
L 3263 -1509 
L -63 -1509 
L -63 -1063 
L 3263 -1063 
z
" transform="scale(0.015625)"/>
      <path id="DejaVuSans-77" d="M 269 3500 
L 844 3500 
L 1563 769 
L 2278 3500 
L 2956 3500 
L 3675 769 
L 4391 3500 
L 4966 3500 
L 4050 0 
L 3372 0 
L 2619 2869 
L 1863 0 
L 1184 0 
L 269 3500 
z
" transform="scale(0.015625)"/>
      <path id="DejaVuSans-2f" d="M 1625 4666 
L 2156 4666 
L 531 -594 
L 0 -594 
L 1625 4666 
z
" transform="scale(0.015625)"/>
      <path id="DejaVuSans-39" d="M 703 97 
L 703 672 
Q 941 559 1184 500 
Q 1428 441 1663 441 
Q 2288 441 2617 861 
Q 2947 1281 2994 2138 
Q 2813 1869 2534 1725 
Q 2256 1581 1919 1581 
Q 1219 1581 811 2004 
Q 403 2428 403 3163 
Q 403 3881 828 4315 
Q 1253 4750 1959 4750 
Q 2769 4750 3195 4129 
Q 3622 3509 3622 2328 
Q 3622 1225 3098 567 
Q 2575 -91 1691 -91 
Q 1453 -91 1209 -44 
Q 966 3 703 97 
z
M 1959 2075 
Q 2384 2075 2632 2365 
Q 2881 2656 2881 3163 
Q 2881 3666 2632 3958 
Q 2384 4250 1959 4250 
Q 1534 4250 1286 3958 
Q 1038 3666 1038 3163 
Q 1038 2656 1286 2365 
Q 1534 2075 1959 2075 
z
" transform="scale(0.015625)"/>
     </defs>
     <use xlink:href="#DejaVuSans-54"/>
     <use xlink:href="#DejaVuSans-68" x="61.083984"/>
     <use xlink:href="#DejaVuSans-65" x="124.462891"/>
     <use xlink:href="#DejaVuSans-20" x="185.986328"/>
     <use xlink:href="#DejaVuSans-6c" x="217.773438"/>
     <use xlink:href="#DejaVuSans-65" x="245.556641"/>
     <use xlink:href="#DejaVuSans-61" x="307.080078"/>
     <use xlink:href="#DejaVuSans-72" x="368.359375"/>
     <use xlink:href="#DejaVuSans-6e" x="407.722656"/>
     <use xlink:href="#DejaVuSans-69" x="471.101562"/>
     <use xlink:href="#DejaVuSans-6e" x="498.884766"/>
     <use xlink:href="#DejaVuSans-67" x="562.263672"/>
     <use xlink:href="#DejaVuSans-20" x="625.740234"/>
     <use xlink:href="#DejaVuSans-63" x="657.527344"/>
     <use xlink:href="#DejaVuSans-75" x="712.507812"/>
     <use xlink:href="#DejaVuSans-72" x="775.886719"/>
     <use xlink:href="#DejaVuSans-76" x="817"/>
     <use xlink:href="#DejaVuSans-65" x="876.179688"/>
     <use xlink:href="#DejaVuSans-20" x="937.703125"/>
     <use xlink:href="#DejaVuSans-6f" x="969.490234"/>
     <use xlink:href="#DejaVuSans-6e" x="1030.671875"/>
     <use xlink:href="#DejaVuSans-20" x="1094.050781"/>
     <use xlink:href="#DejaVuSans-63" x="1125.837891"/>
     <use xlink:href="#DejaVuSans-5f" x="1180.818359"/>
     <use xlink:href="#DejaVuSans-67" x="1230.818359"/>
     <use xlink:href="#DejaVuSans-63" x="1294.294922"/>
     <use xlink:href="#DejaVuSans-6e" x="1349.275391"/>
     <use xlink:href="#DejaVuSans-5f" x="1412.654297"/>
     <use xlink:href="#DejaVuSans-77" x="1462.654297"/>
     <use xlink:href="#DejaVuSans-69" x="1544.441406"/>
     <use xlink:href="#DejaVuSans-74" x="1572.224609"/>
     <use xlink:href="#DejaVuSans-68" x="1611.433594"/>
     <use xlink:href="#DejaVuSans-5f" x="1674.8125"/>
     <use xlink:href="#DejaVuSans-61" x="1724.8125"/>
     <use xlink:href="#DejaVuSans-67" x="1786.091797"/>
     <use xlink:href="#DejaVuSans-67" x="1849.568359"/>
     <use xlink:href="#DejaVuSans-2f" x="1913.044922"/>
     <use xlink:href="#DejaVuSans-68" x="1946.736328"/>
     <use xlink:href="#DejaVuSans-6f" x="2010.115234"/>
     <use xlink:href="#DejaVuSans-73" x="2071.296875"/>
     <use xlink:href="#DejaVuSans-74" x="2123.396484"/>
     <use xlink:href="#DejaVuSans-2f" x="2162.605469"/>
     <use xlink:href="#DejaVuSans-39" x="2196.296875"/>
    </g>
   </g>
   <g id="legend_2">
    <g id="patch_12">
     <path d="M 460.084375 74.518125 
L 511.4 74.518125 
Q 513.4 74.518125 513.4 72.518125 
L 513.4 58.84 
Q 513.4 56.84 511.4 56.84 
L 460.084375 56.84 
Q 458.084375 56.84 458.084375 58.84 
L 458.084375 72.518125 
Q 458.084375 74.518125 460.084375 74.518125 
z
" style="fill: #ffffff; opacity: 0.8; stroke: #cccccc; stroke-linejoin: miter"/>
    </g>
    <g id="line2d_23">
     <path d="M 462.084375 64.938438 
L 472.084375 64.938438 
L 482.084375 64.938438 
" style="fill: none; stroke: #ff0000; stroke-width: 1.5; stroke-linecap: square"/>
    </g>
    <g id="text_24">
     <!-- loss -->
     <g transform="translate(490.084375 68.438438) scale(0.1 -0.1)">
      <use xlink:href="#DejaVuSans-6c"/>
      <use xlink:href="#DejaVuSans-6f" x="27.783203"/>
      <use xlink:href="#DejaVuSans-73" x="88.964844"/>
      <use xlink:href="#DejaVuSans-73" x="141.064453"/>
     </g>
    </g>
   </g>
  </g>
 </g>
 <defs>
  <clipPath id="pd9430ebfa8">
   <rect x="72" y="51.84" width="446.4" height="332.64"/>
  </clipPath>
 </defs>
</svg>
