<?xml version="1.0" encoding="utf-8" standalone="no"?>
<!DOCTYPE svg PUBLIC "-//W3C//DTD SVG 1.1//EN"
  "http://www.w3.org/Graphics/SVG/1.1/DTD/svg11.dtd">
<svg xmlns:xlink="http://www.w3.org/1999/xlink" width="460.8pt" height="345.6pt" viewBox="0 0 460.8 345.6" xmlns="http://www.w3.org/2000/svg" version="1.1">
 <metadata>
  <rdf:RDF xmlns:dc="http://purl.org/dc/elements/1.1/" xmlns:cc="http://creativecommons.org/ns#" xmlns:rdf="http://www.w3.org/1999/02/22-rdf-syntax-ns#">
   <cc:Work>
    <dc:type rdf:resource="http://purl.org/dc/dcmitype/StillImage"/>
    <dc:date>2023-04-13T09:22:56.037090</dc:date>
    <dc:format>image/svg+xml</dc:format>
    <dc:creator>
     <cc:Agent>
      <dc:title>Matplotlib v3.7.1, https://matplotlib.org/</dc:title>
     </cc:Agent>
    </dc:creator>
   </cc:Work>
  </rdf:RDF>
 </metadata>
 <defs>
  <style type="text/css">*{stroke-linejoin: round; stroke-linecap: butt}</style>
 </defs>
 <g id="figure_1">
  <g id="patch_1">
   <path d="M 0 345.6 
L 460.8 345.6 
L 460.8 0 
L 0 0 
z
" style="fill: #ffffff"/>
  </g>
  <g id="axes_1">
   <g id="patch_2">
    <path d="M 57.6 307.584 
L 414.72 307.584 
L 414.72 41.472 
L 57.6 41.472 
z
" style="fill: #ffffff"/>
   </g>
   <g id="matplotlib.axis_1">
    <g id="xtick_1">
     <g id="line2d_1">
      <defs>
       <path id="mf58cb332a9" d="M 0 0 
L 0 3.5 
" style="stroke: #000000; stroke-width: 0.8"/>
      </defs>
      <g>
       <use xlink:href="#mf58cb332a9" x="73.832727" y="307.584" style="stroke: #000000; stroke-width: 0.8"/>
      </g>
     </g>
     <g id="text_1">
      <!-- 0 -->
      <g transform="translate(70.651477 322.182437) scale(0.1 -0.1)">
       <defs>
        <path id="DejaVuSans-30" d="M 2034 4250 
Q 1547 4250 1301 3770 
Q 1056 3291 1056 2328 
Q 1056 1369 1301 889 
Q 1547 409 2034 409 
Q 2525 409 2770 889 
Q 3016 1369 3016 2328 
Q 3016 3291 2770 3770 
Q 2525 4250 2034 4250 
z
M 2034 4750 
Q 2819 4750 3233 4129 
Q 3647 3509 3647 2328 
Q 3647 1150 3233 529 
Q 2819 -91 2034 -91 
Q 1250 -91 836 529 
Q 422 1150 422 2328 
Q 422 3509 836 4129 
Q 1250 4750 2034 4750 
z
" transform="scale(0.015625)"/>
       </defs>
       <use xlink:href="#DejaVuSans-30"/>
      </g>
     </g>
    </g>
    <g id="xtick_2">
     <g id="line2d_2">
      <g>
       <use xlink:href="#mf58cb332a9" x="138.893758" y="307.584" style="stroke: #000000; stroke-width: 0.8"/>
      </g>
     </g>
     <g id="text_2">
      <!-- 100 -->
      <g transform="translate(129.350008 322.182437) scale(0.1 -0.1)">
       <defs>
        <path id="DejaVuSans-31" d="M 794 531 
L 1825 531 
L 1825 4091 
L 703 3866 
L 703 4441 
L 1819 4666 
L 2450 4666 
L 2450 531 
L 3481 531 
L 3481 0 
L 794 0 
L 794 531 
z
" transform="scale(0.015625)"/>
       </defs>
       <use xlink:href="#DejaVuSans-31"/>
       <use xlink:href="#DejaVuSans-30" x="63.623047"/>
       <use xlink:href="#DejaVuSans-30" x="127.246094"/>
      </g>
     </g>
    </g>
    <g id="xtick_3">
     <g id="line2d_3">
      <g>
       <use xlink:href="#mf58cb332a9" x="203.95479" y="307.584" style="stroke: #000000; stroke-width: 0.8"/>
      </g>
     </g>
     <g id="text_3">
      <!-- 200 -->
      <g transform="translate(194.41104 322.182437) scale(0.1 -0.1)">
       <defs>
        <path id="DejaVuSans-32" d="M 1228 531 
L 3431 531 
L 3431 0 
L 469 0 
L 469 531 
Q 828 903 1448 1529 
Q 2069 2156 2228 2338 
Q 2531 2678 2651 2914 
Q 2772 3150 2772 3378 
Q 2772 3750 2511 3984 
Q 2250 4219 1831 4219 
Q 1534 4219 1204 4116 
Q 875 4013 500 3803 
L 500 4441 
Q 881 4594 1212 4672 
Q 1544 4750 1819 4750 
Q 2544 4750 2975 4387 
Q 3406 4025 3406 3419 
Q 3406 3131 3298 2873 
Q 3191 2616 2906 2266 
Q 2828 2175 2409 1742 
Q 1991 1309 1228 531 
z
" transform="scale(0.015625)"/>
       </defs>
       <use xlink:href="#DejaVuSans-32"/>
       <use xlink:href="#DejaVuSans-30" x="63.623047"/>
       <use xlink:href="#DejaVuSans-30" x="127.246094"/>
      </g>
     </g>
    </g>
    <g id="xtick_4">
     <g id="line2d_4">
      <g>
       <use xlink:href="#mf58cb332a9" x="269.015821" y="307.584" style="stroke: #000000; stroke-width: 0.8"/>
      </g>
     </g>
     <g id="text_4">
      <!-- 300 -->
      <g transform="translate(259.472071 322.182437) scale(0.1 -0.1)">
       <defs>
        <path id="DejaVuSans-33" d="M 2597 2516 
Q 3050 2419 3304 2112 
Q 3559 1806 3559 1356 
Q 3559 666 3084 287 
Q 2609 -91 1734 -91 
Q 1441 -91 1130 -33 
Q 819 25 488 141 
L 488 750 
Q 750 597 1062 519 
Q 1375 441 1716 441 
Q 2309 441 2620 675 
Q 2931 909 2931 1356 
Q 2931 1769 2642 2001 
Q 2353 2234 1838 2234 
L 1294 2234 
L 1294 2753 
L 1863 2753 
Q 2328 2753 2575 2939 
Q 2822 3125 2822 3475 
Q 2822 3834 2567 4026 
Q 2313 4219 1838 4219 
Q 1578 4219 1281 4162 
Q 984 4106 628 3988 
L 628 4550 
Q 988 4650 1302 4700 
Q 1616 4750 1894 4750 
Q 2613 4750 3031 4423 
Q 3450 4097 3450 3541 
Q 3450 3153 3228 2886 
Q 3006 2619 2597 2516 
z
" transform="scale(0.015625)"/>
       </defs>
       <use xlink:href="#DejaVuSans-33"/>
       <use xlink:href="#DejaVuSans-30" x="63.623047"/>
       <use xlink:href="#DejaVuSans-30" x="127.246094"/>
      </g>
     </g>
    </g>
    <g id="xtick_5">
     <g id="line2d_5">
      <g>
       <use xlink:href="#mf58cb332a9" x="334.076852" y="307.584" style="stroke: #000000; stroke-width: 0.8"/>
      </g>
     </g>
     <g id="text_5">
      <!-- 400 -->
      <g transform="translate(324.533102 322.182437) scale(0.1 -0.1)">
       <defs>
        <path id="DejaVuSans-34" d="M 2419 4116 
L 825 1625 
L 2419 1625 
L 2419 4116 
z
M 2253 4666 
L 3047 4666 
L 3047 1625 
L 3713 1625 
L 3713 1100 
L 3047 1100 
L 3047 0 
L 2419 0 
L 2419 1100 
L 313 1100 
L 313 1709 
L 2253 4666 
z
" transform="scale(0.015625)"/>
       </defs>
       <use xlink:href="#DejaVuSans-34"/>
       <use xlink:href="#DejaVuSans-30" x="63.623047"/>
       <use xlink:href="#DejaVuSans-30" x="127.246094"/>
      </g>
     </g>
    </g>
    <g id="xtick_6">
     <g id="line2d_6">
      <g>
       <use xlink:href="#mf58cb332a9" x="399.137883" y="307.584" style="stroke: #000000; stroke-width: 0.8"/>
      </g>
     </g>
     <g id="text_6">
      <!-- 500 -->
      <g transform="translate(389.594133 322.182437) scale(0.1 -0.1)">
       <defs>
        <path id="DejaVuSans-35" d="M 691 4666 
L 3169 4666 
L 3169 4134 
L 1269 4134 
L 1269 2991 
Q 1406 3038 1543 3061 
Q 1681 3084 1819 3084 
Q 2600 3084 3056 2656 
Q 3513 2228 3513 1497 
Q 3513 744 3044 326 
Q 2575 -91 1722 -91 
Q 1428 -91 1123 -41 
Q 819 9 494 109 
L 494 744 
Q 775 591 1075 516 
Q 1375 441 1709 441 
Q 2250 441 2565 725 
Q 2881 1009 2881 1497 
Q 2881 1984 2565 2268 
Q 2250 2553 1709 2553 
Q 1456 2553 1204 2497 
Q 953 2441 691 2322 
L 691 4666 
z
" transform="scale(0.015625)"/>
       </defs>
       <use xlink:href="#DejaVuSans-35"/>
       <use xlink:href="#DejaVuSans-30" x="63.623047"/>
       <use xlink:href="#DejaVuSans-30" x="127.246094"/>
      </g>
     </g>
    </g>
    <g id="text_7">
     <!-- epoch -->
     <g transform="translate(220.931875 335.860562) scale(0.1 -0.1)">
      <defs>
       <path id="DejaVuSans-65" d="M 3597 1894 
L 3597 1613 
L 953 1613 
Q 991 1019 1311 708 
Q 1631 397 2203 397 
Q 2534 397 2845 478 
Q 3156 559 3463 722 
L 3463 178 
Q 3153 47 2828 -22 
Q 2503 -91 2169 -91 
Q 1331 -91 842 396 
Q 353 884 353 1716 
Q 353 2575 817 3079 
Q 1281 3584 2069 3584 
Q 2775 3584 3186 3129 
Q 3597 2675 3597 1894 
z
M 3022 2063 
Q 3016 2534 2758 2815 
Q 2500 3097 2075 3097 
Q 1594 3097 1305 2825 
Q 1016 2553 972 2059 
L 3022 2063 
z
" transform="scale(0.015625)"/>
       <path id="DejaVuSans-70" d="M 1159 525 
L 1159 -1331 
L 581 -1331 
L 581 3500 
L 1159 3500 
L 1159 2969 
Q 1341 3281 1617 3432 
Q 1894 3584 2278 3584 
Q 2916 3584 3314 3078 
Q 3713 2572 3713 1747 
Q 3713 922 3314 415 
Q 2916 -91 2278 -91 
Q 1894 -91 1617 61 
Q 1341 213 1159 525 
z
M 3116 1747 
Q 3116 2381 2855 2742 
Q 2594 3103 2138 3103 
Q 1681 3103 1420 2742 
Q 1159 2381 1159 1747 
Q 1159 1113 1420 752 
Q 1681 391 2138 391 
Q 2594 391 2855 752 
Q 3116 1113 3116 1747 
z
" transform="scale(0.015625)"/>
       <path id="DejaVuSans-6f" d="M 1959 3097 
Q 1497 3097 1228 2736 
Q 959 2375 959 1747 
Q 959 1119 1226 758 
Q 1494 397 1959 397 
Q 2419 397 2687 759 
Q 2956 1122 2956 1747 
Q 2956 2369 2687 2733 
Q 2419 3097 1959 3097 
z
M 1959 3584 
Q 2709 3584 3137 3096 
Q 3566 2609 3566 1747 
Q 3566 888 3137 398 
Q 2709 -91 1959 -91 
Q 1206 -91 779 398 
Q 353 888 353 1747 
Q 353 2609 779 3096 
Q 1206 3584 1959 3584 
z
" transform="scale(0.015625)"/>
       <path id="DejaVuSans-63" d="M 3122 3366 
L 3122 2828 
Q 2878 2963 2633 3030 
Q 2388 3097 2138 3097 
Q 1578 3097 1268 2742 
Q 959 2388 959 1747 
Q 959 1106 1268 751 
Q 1578 397 2138 397 
Q 2388 397 2633 464 
Q 2878 531 3122 666 
L 3122 134 
Q 2881 22 2623 -34 
Q 2366 -91 2075 -91 
Q 1284 -91 818 406 
Q 353 903 353 1747 
Q 353 2603 823 3093 
Q 1294 3584 2113 3584 
Q 2378 3584 2631 3529 
Q 2884 3475 3122 3366 
z
" transform="scale(0.015625)"/>
       <path id="DejaVuSans-68" d="M 3513 2113 
L 3513 0 
L 2938 0 
L 2938 2094 
Q 2938 2591 2744 2837 
Q 2550 3084 2163 3084 
Q 1697 3084 1428 2787 
Q 1159 2491 1159 1978 
L 1159 0 
L 581 0 
L 581 4863 
L 1159 4863 
L 1159 2956 
Q 1366 3272 1645 3428 
Q 1925 3584 2291 3584 
Q 2894 3584 3203 3211 
Q 3513 2838 3513 2113 
z
" transform="scale(0.015625)"/>
      </defs>
      <use xlink:href="#DejaVuSans-65"/>
      <use xlink:href="#DejaVuSans-70" x="61.523438"/>
      <use xlink:href="#DejaVuSans-6f" x="125"/>
      <use xlink:href="#DejaVuSans-63" x="186.181641"/>
      <use xlink:href="#DejaVuSans-68" x="241.162109"/>
     </g>
    </g>
   </g>
   <g id="matplotlib.axis_2">
    <g id="ytick_1">
     <g id="line2d_7">
      <defs>
       <path id="md817695004" d="M 0 0 
L -3.5 0 
" style="stroke: #000000; stroke-width: 0.8"/>
      </defs>
      <g>
       <use xlink:href="#md817695004" x="57.6" y="305.693779" style="stroke: #000000; stroke-width: 0.8"/>
      </g>
     </g>
     <g id="text_8">
      <!-- 0.0 -->
      <g transform="translate(34.696875 309.492998) scale(0.1 -0.1)">
       <defs>
        <path id="DejaVuSans-2e" d="M 684 794 
L 1344 794 
L 1344 0 
L 684 0 
L 684 794 
z
" transform="scale(0.015625)"/>
       </defs>
       <use xlink:href="#DejaVuSans-30"/>
       <use xlink:href="#DejaVuSans-2e" x="63.623047"/>
       <use xlink:href="#DejaVuSans-30" x="95.410156"/>
      </g>
     </g>
    </g>
    <g id="ytick_2">
     <g id="line2d_8">
      <g>
       <use xlink:href="#md817695004" x="57.6" y="252.970796" style="stroke: #000000; stroke-width: 0.8"/>
      </g>
     </g>
     <g id="text_9">
      <!-- 0.2 -->
      <g transform="translate(34.696875 256.770014) scale(0.1 -0.1)">
       <use xlink:href="#DejaVuSans-30"/>
       <use xlink:href="#DejaVuSans-2e" x="63.623047"/>
       <use xlink:href="#DejaVuSans-32" x="95.410156"/>
      </g>
     </g>
    </g>
    <g id="ytick_3">
     <g id="line2d_9">
      <g>
       <use xlink:href="#md817695004" x="57.6" y="200.247812" style="stroke: #000000; stroke-width: 0.8"/>
      </g>
     </g>
     <g id="text_10">
      <!-- 0.4 -->
      <g transform="translate(34.696875 204.047031) scale(0.1 -0.1)">
       <use xlink:href="#DejaVuSans-30"/>
       <use xlink:href="#DejaVuSans-2e" x="63.623047"/>
       <use xlink:href="#DejaVuSans-34" x="95.410156"/>
      </g>
     </g>
    </g>
    <g id="ytick_4">
     <g id="line2d_10">
      <g>
       <use xlink:href="#md817695004" x="57.6" y="147.524829" style="stroke: #000000; stroke-width: 0.8"/>
      </g>
     </g>
     <g id="text_11">
      <!-- 0.6 -->
      <g transform="translate(34.696875 151.324047) scale(0.1 -0.1)">
       <defs>
        <path id="DejaVuSans-36" d="M 2113 2584 
Q 1688 2584 1439 2293 
Q 1191 2003 1191 1497 
Q 1191 994 1439 701 
Q 1688 409 2113 409 
Q 2538 409 2786 701 
Q 3034 994 3034 1497 
Q 3034 2003 2786 2293 
Q 2538 2584 2113 2584 
z
M 3366 4563 
L 3366 3988 
Q 3128 4100 2886 4159 
Q 2644 4219 2406 4219 
Q 1781 4219 1451 3797 
Q 1122 3375 1075 2522 
Q 1259 2794 1537 2939 
Q 1816 3084 2150 3084 
Q 2853 3084 3261 2657 
Q 3669 2231 3669 1497 
Q 3669 778 3244 343 
Q 2819 -91 2113 -91 
Q 1303 -91 875 529 
Q 447 1150 447 2328 
Q 447 3434 972 4092 
Q 1497 4750 2381 4750 
Q 2619 4750 2861 4703 
Q 3103 4656 3366 4563 
z
" transform="scale(0.015625)"/>
       </defs>
       <use xlink:href="#DejaVuSans-30"/>
       <use xlink:href="#DejaVuSans-2e" x="63.623047"/>
       <use xlink:href="#DejaVuSans-36" x="95.410156"/>
      </g>
     </g>
    </g>
    <g id="ytick_5">
     <g id="line2d_11">
      <g>
       <use xlink:href="#md817695004" x="57.6" y="94.801845" style="stroke: #000000; stroke-width: 0.8"/>
      </g>
     </g>
     <g id="text_12">
      <!-- 0.8 -->
      <g transform="translate(34.696875 98.601064) scale(0.1 -0.1)">
       <defs>
        <path id="DejaVuSans-38" d="M 2034 2216 
Q 1584 2216 1326 1975 
Q 1069 1734 1069 1313 
Q 1069 891 1326 650 
Q 1584 409 2034 409 
Q 2484 409 2743 651 
Q 3003 894 3003 1313 
Q 3003 1734 2745 1975 
Q 2488 2216 2034 2216 
z
M 1403 2484 
Q 997 2584 770 2862 
Q 544 3141 544 3541 
Q 544 4100 942 4425 
Q 1341 4750 2034 4750 
Q 2731 4750 3128 4425 
Q 3525 4100 3525 3541 
Q 3525 3141 3298 2862 
Q 3072 2584 2669 2484 
Q 3125 2378 3379 2068 
Q 3634 1759 3634 1313 
Q 3634 634 3220 271 
Q 2806 -91 2034 -91 
Q 1263 -91 848 271 
Q 434 634 434 1313 
Q 434 1759 690 2068 
Q 947 2378 1403 2484 
z
M 1172 3481 
Q 1172 3119 1398 2916 
Q 1625 2713 2034 2713 
Q 2441 2713 2670 2916 
Q 2900 3119 2900 3481 
Q 2900 3844 2670 4047 
Q 2441 4250 2034 4250 
Q 1625 4250 1398 4047 
Q 1172 3844 1172 3481 
z
" transform="scale(0.015625)"/>
       </defs>
       <use xlink:href="#DejaVuSans-30"/>
       <use xlink:href="#DejaVuSans-2e" x="63.623047"/>
       <use xlink:href="#DejaVuSans-38" x="95.410156"/>
      </g>
     </g>
    </g>
    <g id="ytick_6">
     <g id="line2d_12">
      <g>
       <use xlink:href="#md817695004" x="57.6" y="42.078862" style="stroke: #000000; stroke-width: 0.8"/>
      </g>
     </g>
     <g id="text_13">
      <!-- 1.0 -->
      <g transform="translate(34.696875 45.87808) scale(0.1 -0.1)">
       <use xlink:href="#DejaVuSans-31"/>
       <use xlink:href="#DejaVuSans-2e" x="63.623047"/>
       <use xlink:href="#DejaVuSans-30" x="95.410156"/>
      </g>
     </g>
    </g>
    <g id="text_14">
     <!-- loss value -->
     <g transform="translate(28.617187 199.432687) rotate(-90) scale(0.1 -0.1)">
      <defs>
       <path id="DejaVuSans-6c" d="M 603 4863 
L 1178 4863 
L 1178 0 
L 603 0 
L 603 4863 
z
" transform="scale(0.015625)"/>
       <path id="DejaVuSans-73" d="M 2834 3397 
L 2834 2853 
Q 2591 2978 2328 3040 
Q 2066 3103 1784 3103 
Q 1356 3103 1142 2972 
Q 928 2841 928 2578 
Q 928 2378 1081 2264 
Q 1234 2150 1697 2047 
L 1894 2003 
Q 2506 1872 2764 1633 
Q 3022 1394 3022 966 
Q 3022 478 2636 193 
Q 2250 -91 1575 -91 
Q 1294 -91 989 -36 
Q 684 19 347 128 
L 347 722 
Q 666 556 975 473 
Q 1284 391 1588 391 
Q 1994 391 2212 530 
Q 2431 669 2431 922 
Q 2431 1156 2273 1281 
Q 2116 1406 1581 1522 
L 1381 1569 
Q 847 1681 609 1914 
Q 372 2147 372 2553 
Q 372 3047 722 3315 
Q 1072 3584 1716 3584 
Q 2034 3584 2315 3537 
Q 2597 3491 2834 3397 
z
" transform="scale(0.015625)"/>
       <path id="DejaVuSans-20" transform="scale(0.015625)"/>
       <path id="DejaVuSans-76" d="M 191 3500 
L 800 3500 
L 1894 563 
L 2988 3500 
L 3597 3500 
L 2284 0 
L 1503 0 
L 191 3500 
z
" transform="scale(0.015625)"/>
       <path id="DejaVuSans-61" d="M 2194 1759 
Q 1497 1759 1228 1600 
Q 959 1441 959 1056 
Q 959 750 1161 570 
Q 1363 391 1709 391 
Q 2188 391 2477 730 
Q 2766 1069 2766 1631 
L 2766 1759 
L 2194 1759 
z
M 3341 1997 
L 3341 0 
L 2766 0 
L 2766 531 
Q 2569 213 2275 61 
Q 1981 -91 1556 -91 
Q 1019 -91 701 211 
Q 384 513 384 1019 
Q 384 1609 779 1909 
Q 1175 2209 1959 2209 
L 2766 2209 
L 2766 2266 
Q 2766 2663 2505 2880 
Q 2244 3097 1772 3097 
Q 1472 3097 1187 3025 
Q 903 2953 641 2809 
L 641 3341 
Q 956 3463 1253 3523 
Q 1550 3584 1831 3584 
Q 2591 3584 2966 3190 
Q 3341 2797 3341 1997 
z
" transform="scale(0.015625)"/>
       <path id="DejaVuSans-75" d="M 544 1381 
L 544 3500 
L 1119 3500 
L 1119 1403 
Q 1119 906 1312 657 
Q 1506 409 1894 409 
Q 2359 409 2629 706 
Q 2900 1003 2900 1516 
L 2900 3500 
L 3475 3500 
L 3475 0 
L 2900 0 
L 2900 538 
Q 2691 219 2414 64 
Q 2138 -91 1772 -91 
Q 1169 -91 856 284 
Q 544 659 544 1381 
z
M 1991 3584 
L 1991 3584 
z
" transform="scale(0.015625)"/>
      </defs>
      <use xlink:href="#DejaVuSans-6c"/>
      <use xlink:href="#DejaVuSans-6f" x="27.783203"/>
      <use xlink:href="#DejaVuSans-73" x="88.964844"/>
      <use xlink:href="#DejaVuSans-73" x="141.064453"/>
      <use xlink:href="#DejaVuSans-20" x="193.164062"/>
      <use xlink:href="#DejaVuSans-76" x="224.951172"/>
      <use xlink:href="#DejaVuSans-61" x="284.130859"/>
      <use xlink:href="#DejaVuSans-6c" x="345.410156"/>
      <use xlink:href="#DejaVuSans-75" x="373.193359"/>
      <use xlink:href="#DejaVuSans-65" x="436.572266"/>
     </g>
    </g>
   </g>
   <g id="line2d_13">
    <path d="M 73.832727 85.650734 
L 74.483338 130.398008 
L 75.133948 191.423487 
L 75.784558 238.434667 
L 76.435169 263.430019 
L 77.085779 273.457189 
L 77.736389 277.249873 
L 78.386999 277.495695 
L 79.03761 276.847609 
L 79.68822 276.862606 
L 80.33883 267.280908 
L 80.989441 266.188178 
L 81.640051 265.465368 
L 82.290661 265.493827 
L 83.591882 266.421303 
L 84.242492 267.9393 
L 84.893103 268.703848 
L 85.543713 271.282624 
L 86.194323 272.551084 
L 86.844934 262.524258 
L 87.495544 266.033106 
L 88.146154 268.658391 
L 89.447375 272.79399 
L 90.097985 275.551553 
L 90.748595 277.687922 
L 92.049816 279.880826 
L 92.700426 281.804175 
L 93.351037 269.347411 
L 94.652257 275.641527 
L 95.302868 278.698546 
L 95.953478 280.82382 
L 96.604088 283.465885 
L 97.254698 284.875514 
L 97.905309 284.692571 
L 98.555919 285.024643 
L 99.206529 286.642877 
L 99.85714 275.721876 
L 101.15836 280.745412 
L 102.459581 284.510752 
L 103.760802 286.238506 
L 104.411412 286.772389 
L 105.062022 288.258814 
L 105.712633 289.337875 
L 106.363243 278.888308 
L 107.664463 283.897153 
L 108.315074 285.241103 
L 108.965684 287.375878 
L 109.616294 287.783533 
L 110.266905 288.75525 
L 110.917515 290.00449 
L 111.568125 289.409466 
L 112.218736 289.718525 
L 112.869346 281.212982 
L 114.170567 285.470592 
L 114.821177 285.072486 
L 115.471787 288.842444 
L 116.122398 289.387368 
L 116.773008 290.341938 
L 117.423618 292.659883 
L 118.074228 291.373455 
L 118.724839 292.397877 
L 119.375449 281.805132 
L 120.026059 285.123103 
L 120.67667 286.908541 
L 121.32728 288.232635 
L 121.97789 290.679234 
L 122.628501 290.359347 
L 123.279111 292.403585 
L 123.929721 291.302875 
L 124.580332 293.11321 
L 125.230942 294.244907 
L 125.881552 283.782961 
L 127.182773 288.226057 
L 128.483993 290.949743 
L 129.134604 292.213248 
L 129.785214 294.000821 
L 130.435824 293.700974 
L 131.086435 294.059901 
L 131.737045 294.678241 
L 132.387655 284.769858 
L 133.038266 286.261554 
L 133.688876 288.100059 
L 134.339486 290.942019 
L 134.990097 291.251585 
L 136.291317 294.99212 
L 136.941927 293.81914 
L 137.592538 293.655592 
L 138.243148 295.488 
L 138.893758 285.348414 
L 139.544369 287.614264 
L 140.845589 290.773055 
L 141.4962 291.038634 
L 142.14681 291.80842 
L 142.79742 290.045954 
L 143.448031 292.566055 
L 144.098641 290.983138 
L 144.749251 293.278605 
L 145.399862 286.215801 
L 146.050472 287.481541 
L 146.701082 289.156212 
L 147.351692 289.313574 
L 148.002303 291.078673 
L 148.652913 291.680748 
L 149.303523 291.78324 
L 149.954134 293.309645 
L 150.604744 293.142596 
L 151.255354 293.512629 
L 151.905965 285.390656 
L 152.556575 287.907685 
L 153.207185 288.963663 
L 153.857796 290.873813 
L 154.508406 291.764848 
L 155.159016 293.307855 
L 155.809627 293.691128 
L 156.460237 292.841276 
L 157.110847 294.025368 
L 157.761457 294.27335 
L 158.412068 287.130634 
L 159.062678 288.827489 
L 159.713288 289.858739 
L 160.363899 290.245708 
L 161.014509 291.769576 
L 161.665119 291.705951 
L 162.31573 292.19576 
L 162.96634 293.941904 
L 163.61695 293.399188 
L 164.267561 294.288079 
L 164.918171 285.716747 
L 166.219392 290.441858 
L 166.870002 290.033046 
L 167.520612 291.510792 
L 168.171222 292.563452 
L 168.821833 292.589575 
L 169.472443 293.582423 
L 170.123053 293.840423 
L 170.773664 294.828892 
L 171.424274 287.265298 
L 172.074884 289.453914 
L 172.725495 289.847713 
L 174.026715 293.011446 
L 174.677326 293.655592 
L 175.327936 292.972603 
L 175.978546 293.555881 
L 176.629156 293.494403 
L 177.279767 293.831752 
L 177.930377 288.820513 
L 178.580987 287.754516 
L 179.231598 289.180557 
L 179.882208 291.338696 
L 180.532818 290.547911 
L 181.183429 290.400715 
L 182.484649 294.900029 
L 183.13526 294.115633 
L 183.78587 292.81329 
L 184.43648 288.718251 
L 185.087091 287.756922 
L 186.388311 291.518401 
L 187.038921 293.16315 
L 187.689532 292.578073 
L 188.990752 292.901205 
L 189.641363 293.245253 
L 190.291973 294.47711 
L 190.942583 287.286311 
L 191.593194 289.271581 
L 192.243804 290.599137 
L 192.894414 291.396344 
L 193.545025 291.404971 
L 194.195635 291.662037 
L 194.846245 291.435796 
L 195.496856 293.197261 
L 196.147466 293.276316 
L 196.798076 293.798114 
L 197.448686 289.341911 
L 198.099297 289.34123 
L 198.749907 290.563276 
L 199.400517 292.171178 
L 200.051128 292.284507 
L 201.352348 293.20441 
L 202.002959 294.008584 
L 202.653569 293.363152 
L 203.304179 294.345163 
L 203.95479 288.826454 
L 204.6054 289.263654 
L 205.25601 291.681325 
L 205.906621 290.910096 
L 206.557231 292.17637 
L 207.207841 291.38347 
L 207.858451 293.468897 
L 209.159672 293.92983 
L 209.810282 294.42176 
L 210.460893 288.559665 
L 211.111503 289.829682 
L 211.762113 290.165976 
L 212.412724 290.674461 
L 213.063334 293.522186 
L 213.713944 292.571937 
L 214.364555 291.402719 
L 215.015165 292.925582 
L 215.665775 293.595136 
L 216.316385 294.670728 
L 216.966996 288.314621 
L 217.617606 288.910825 
L 218.268216 291.979773 
L 218.918827 290.937941 
L 219.569437 292.146494 
L 220.220047 293.043021 
L 220.870658 292.63533 
L 221.521268 293.803642 
L 222.171878 293.936111 
L 222.822489 295.034348 
L 223.473099 289.432949 
L 224.123709 289.998118 
L 224.77432 291.674621 
L 225.42493 292.427255 
L 226.07554 291.912249 
L 226.72615 291.979967 
L 228.027371 294.402282 
L 228.677981 293.231041 
L 229.328592 294.482556 
L 229.979202 290.310433 
L 230.629812 289.592758 
L 231.280423 292.620355 
L 231.931033 291.216829 
L 232.581643 291.867861 
L 233.232254 293.208433 
L 233.882864 292.163592 
L 234.533474 293.846381 
L 235.184085 293.955877 
L 235.834695 294.51379 
L 236.485305 290.233454 
L 237.135915 290.76453 
L 237.786526 290.513829 
L 238.437136 291.905501 
L 239.087746 291.932064 
L 239.738357 291.550182 
L 240.388967 293.264405 
L 241.039577 293.697867 
L 241.690188 293.027918 
L 242.340798 293.192497 
L 242.991408 290.034652 
L 243.642019 290.309563 
L 244.292629 289.824686 
L 244.943239 291.263944 
L 245.59385 291.918871 
L 246.24446 292.139114 
L 246.89507 293.391359 
L 247.54568 293.964755 
L 248.196291 293.213871 
L 248.846901 293.576846 
L 249.497511 289.739127 
L 250.148122 289.991497 
L 251.449342 290.906275 
L 252.099953 292.825602 
L 252.750563 292.320386 
L 253.401173 293.616664 
L 254.051784 294.536094 
L 254.702394 293.090032 
L 255.353004 293.511527 
L 256.003615 287.977219 
L 256.654225 288.928993 
L 257.304835 292.051781 
L 257.955445 291.732971 
L 258.606056 292.165132 
L 259.256666 293.278943 
L 259.907276 292.122911 
L 261.208497 292.479921 
L 261.859107 293.440103 
L 262.509718 291.130562 
L 263.160328 289.39227 
L 264.461549 292.843808 
L 265.112159 292.904568 
L 265.762769 293.336866 
L 266.413379 292.978978 
L 267.06399 292.933136 
L 267.7146 293.27532 
L 268.36521 294.287248 
L 269.015821 289.9436 
L 269.666431 289.731248 
L 270.967652 292.237783 
L 271.618262 291.740221 
L 272.268872 292.643163 
L 272.919483 293.002008 
L 273.570093 293.991303 
L 274.220703 294.10974 
L 274.871314 292.53288 
L 275.521924 289.29215 
L 276.172534 290.005049 
L 276.823144 292.033753 
L 277.473755 291.498467 
L 278.124365 291.387584 
L 278.774975 292.173201 
L 279.425586 291.931838 
L 280.076196 293.323596 
L 280.726806 293.583371 
L 281.377417 293.383823 
L 282.028027 290.084049 
L 282.678637 292.113369 
L 283.329248 289.450928 
L 283.979858 292.468839 
L 284.630468 291.939937 
L 285.281079 292.502726 
L 285.931689 293.357663 
L 286.582299 292.275057 
L 287.232909 291.789092 
L 287.88352 291.949683 
L 288.53413 290.172539 
L 289.18474 290.884369 
L 289.835351 289.886125 
L 290.485961 290.921722 
L 291.136571 290.882365 
L 291.787182 292.498081 
L 292.437792 292.915775 
L 293.088402 292.729638 
L 293.739013 292.823306 
L 294.389623 293.214258 
L 295.040233 290.659404 
L 295.690844 289.368153 
L 296.341454 291.103511 
L 296.992064 290.547759 
L 297.642674 290.599977 
L 298.293285 292.338613 
L 298.943895 292.397116 
L 299.594505 293.231491 
L 300.245116 293.324604 
L 300.895726 293.27868 
L 301.546336 291.469825 
L 302.196947 291.027408 
L 302.847557 289.971823 
L 303.498167 291.890722 
L 304.148778 292.46054 
L 304.799388 292.735084 
L 305.449998 292.236658 
L 306.100608 292.109454 
L 306.751219 294.409661 
L 307.401829 292.90961 
L 308.052439 289.46497 
L 309.35366 290.975222 
L 310.00427 291.205503 
L 310.654881 291.715824 
L 311.305491 292.062245 
L 311.956101 292.241459 
L 312.606712 293.360514 
L 313.257322 293.484575 
L 313.907932 292.015163 
L 314.558543 291.561582 
L 315.209153 291.361134 
L 315.859763 291.376238 
L 316.510373 290.503379 
L 317.160984 292.86576 
L 317.811594 291.088691 
L 318.462204 290.846749 
L 319.112815 292.944298 
L 319.763425 292.204286 
L 320.414035 292.335714 
L 321.064646 289.877494 
L 321.715256 290.375243 
L 322.365866 291.379808 
L 323.016477 292.053889 
L 323.667087 291.562418 
L 324.317697 293.148947 
L 324.968308 291.600378 
L 325.618918 293.049016 
L 326.269528 292.49981 
L 326.920138 291.47366 
L 327.570749 289.667279 
L 328.221359 291.381905 
L 328.871969 290.790254 
L 329.52258 291.821257 
L 330.17319 291.665619 
L 330.8238 291.982139 
L 331.474411 291.133672 
L 332.125021 292.653477 
L 332.775631 292.682683 
L 333.426242 293.291868 
L 334.076852 289.2956 
L 334.727462 289.181684 
L 335.378073 290.985886 
L 336.028683 291.528942 
L 336.679293 292.892333 
L 337.329903 291.537738 
L 337.980514 291.930807 
L 338.631124 291.940359 
L 339.281734 293.581414 
L 339.932345 293.25813 
L 340.582955 290.250313 
L 341.884176 290.604486 
L 342.534786 290.923625 
L 343.185396 291.842522 
L 343.836007 290.979647 
L 344.486617 292.453844 
L 345.137227 292.150963 
L 345.787837 291.516412 
L 347.089058 291.565351 
L 347.739668 291.348658 
L 348.390279 290.649333 
L 349.040889 292.121328 
L 349.691499 292.88666 
L 350.34211 292.113566 
L 350.99272 293.958629 
L 351.64333 291.063558 
L 352.293941 291.085697 
L 352.944551 291.858657 
L 353.595161 290.91523 
L 354.245772 289.763857 
L 354.896382 292.276234 
L 355.546992 289.954116 
L 356.197602 290.949774 
L 356.848213 290.118597 
L 357.498823 292.095056 
L 358.149433 291.942372 
L 358.800044 292.089141 
L 359.450654 291.818277 
L 360.101264 290.968959 
L 360.751875 289.596082 
L 361.402485 291.187806 
L 362.053095 290.83919 
L 362.703706 290.872733 
L 363.354316 292.198069 
L 364.004926 292.305459 
L 364.655537 291.246385 
L 365.306147 292.840178 
L 365.956757 292.592809 
L 366.607367 291.057693 
L 367.257978 290.63345 
L 367.908588 289.830697 
L 368.559198 291.902862 
L 369.209809 291.547999 
L 369.860419 291.366058 
L 370.511029 292.687973 
L 371.16164 291.988467 
L 371.81225 291.868946 
L 372.46286 292.821722 
L 373.113471 291.648701 
L 373.764081 289.529716 
L 374.414691 291.597173 
L 375.065302 290.777434 
L 375.715912 292.414908 
L 376.366522 290.569746 
L 377.017132 292.217001 
L 377.667743 292.559655 
L 378.318353 292.503879 
L 378.968963 292.979586 
L 379.619574 289.230794 
L 380.270184 290.527063 
L 380.920794 291.200313 
L 381.571405 291.381372 
L 382.222015 291.886478 
L 383.523236 292.035879 
L 384.173846 291.144555 
L 384.824456 292.633412 
L 386.125677 290.013216 
L 386.776287 289.807568 
L 387.426897 290.238821 
L 388.077508 291.008083 
L 388.728118 291.558024 
L 389.378728 291.589451 
L 390.029339 290.767787 
L 391.330559 290.645388 
L 391.98117 292.437093 
L 392.63178 290.63026 
L 393.28239 290.991298 
L 393.933001 290.458613 
L 395.234221 290.957818 
L 395.884831 290.598749 
L 396.535442 289.734801 
L 397.186052 292.372035 
L 397.836662 292.743516 
L 398.487273 292.291923 
L 398.487273 292.291923 
" clip-path="url(#p496dbac1cf)" style="fill: none; stroke: #0000ff; stroke-width: 1.5; stroke-linecap: square"/>
   </g>
   <g id="line2d_14">
    <path d="M 73.832727 273.611047 
L 79.68822 273.589696 
L 80.33883 285.826292 
L 98.555919 285.806058 
L 398.487273 285.818553 
L 398.487273 285.818553 
" clip-path="url(#p496dbac1cf)" style="fill: none; stroke: #008000; stroke-width: 1.5; stroke-linecap: square"/>
   </g>
   <g id="line2d_15">
    <path d="M 73.832727 53.568 
L 74.483338 98.314599 
L 75.133948 159.338773 
L 75.784558 206.347997 
L 76.435169 231.340819 
L 77.085779 241.365104 
L 77.736389 245.154742 
L 78.386999 245.397487 
L 79.03761 244.746389 
L 79.68822 244.758523 
L 80.33883 247.413423 
L 80.989441 246.31601 
L 81.640051 245.588859 
L 82.290661 245.613359 
L 83.591882 246.534063 
L 84.242492 248.04922 
L 84.893103 248.811253 
L 85.543713 251.387818 
L 86.194323 252.654326 
L 86.844934 242.63303 
L 87.495544 246.141191 
L 88.146154 248.765922 
L 89.447375 252.900689 
L 90.097985 255.657933 
L 90.748595 257.79402 
L 92.049816 259.986417 
L 92.700426 261.909527 
L 93.351037 249.457681 
L 94.652257 255.752626 
L 95.302868 258.810005 
L 95.953478 260.935577 
L 96.604088 263.577875 
L 97.254698 264.987663 
L 97.905309 264.804811 
L 98.555919 265.136922 
L 99.206529 266.75515 
L 99.85714 255.837945 
L 101.15836 260.862261 
L 102.459581 264.628188 
L 103.760802 266.356276 
L 104.411412 266.890248 
L 105.062022 268.37671 
L 105.712633 269.455762 
L 106.363243 259.008999 
L 107.664463 264.018376 
L 108.315074 265.362516 
L 108.965684 267.497433 
L 109.616294 267.905169 
L 110.266905 268.876907 
L 110.917515 270.126116 
L 111.568125 269.531014 
L 112.218736 269.839957 
L 112.869346 261.336474 
L 114.170567 265.594361 
L 114.821177 265.196335 
L 115.471787 268.966316 
L 116.122398 269.511212 
L 116.773008 270.465698 
L 117.423618 272.783516 
L 118.074228 271.496925 
L 118.724839 272.521151 
L 119.375449 261.930095 
L 120.026059 265.248148 
L 120.67667 267.033622 
L 121.32728 268.357694 
L 121.97789 270.804216 
L 122.628501 270.484196 
L 123.279111 272.528265 
L 123.929721 271.427341 
L 124.580332 273.237441 
L 125.230942 274.36887 
L 125.881552 263.908505 
L 127.182773 268.351558 
L 128.483993 271.074988 
L 129.134604 272.338295 
L 129.785214 274.125631 
L 130.435824 273.825512 
L 131.086435 274.184138 
L 131.737045 274.802156 
L 132.387655 264.895437 
L 133.038266 266.387073 
L 133.688876 268.225487 
L 134.339486 271.067313 
L 134.990097 271.376691 
L 136.291317 275.11672 
L 136.941927 273.943427 
L 137.592538 273.779552 
L 138.243148 275.611614 
L 138.893758 265.47364 
L 139.544369 267.739408 
L 140.845589 270.89813 
L 141.4962 271.163671 
L 142.14681 271.933411 
L 142.79742 270.170889 
L 143.448031 272.690939 
L 144.098641 271.107957 
L 144.749251 273.403361 
L 145.399862 266.340984 
L 146.050472 267.60673 
L 146.701082 269.281387 
L 147.351692 269.438726 
L 148.002303 271.203797 
L 148.652913 271.805828 
L 149.303523 271.908275 
L 149.954134 273.434621 
L 150.604744 273.267511 
L 151.255354 273.637476 
L 151.905965 265.515935 
L 152.556575 268.03296 
L 153.207185 269.08893 
L 153.857796 270.999057 
L 154.508406 271.89006 
L 155.159016 273.433017 
L 155.809627 273.816245 
L 156.460237 272.966331 
L 157.110847 274.150363 
L 157.761457 274.398276 
L 158.412068 267.255976 
L 159.062678 268.952827 
L 159.713288 269.984057 
L 160.363899 270.37099 
L 161.014509 271.894821 
L 161.665119 271.831145 
L 162.31573 272.320897 
L 162.96634 274.066984 
L 163.61695 273.524203 
L 164.267561 274.413032 
L 164.918171 265.842095 
L 166.219392 270.567178 
L 166.870002 270.158335 
L 167.520612 271.636049 
L 168.171222 272.68866 
L 168.821833 272.714735 
L 169.472443 273.707533 
L 170.123053 273.965478 
L 170.773664 274.95389 
L 171.424274 267.390626 
L 172.074884 269.579236 
L 172.725495 269.973011 
L 174.026715 273.136684 
L 174.677326 273.780785 
L 175.327936 273.097748 
L 175.978546 273.680971 
L 176.629156 273.61944 
L 177.279767 273.956738 
L 177.930377 268.945795 
L 178.580987 267.879785 
L 179.231598 269.305812 
L 179.882208 271.463924 
L 180.532818 270.673105 
L 181.183429 270.52587 
L 182.484649 275.025096 
L 183.13526 274.240652 
L 183.78587 272.938256 
L 184.43648 268.84349 
L 185.087091 267.882153 
L 186.388311 271.643591 
L 187.038921 273.288303 
L 187.689532 272.703191 
L 188.990752 273.026235 
L 189.641363 273.370237 
L 190.291973 274.60205 
L 190.942583 267.411516 
L 191.593194 269.396777 
L 192.243804 270.724313 
L 192.894414 271.521495 
L 193.545025 271.53009 
L 194.195635 271.787122 
L 194.846245 271.560844 
L 195.496856 273.32227 
L 196.147466 273.401285 
L 196.798076 273.923044 
L 197.448686 269.467071 
L 198.099297 269.46638 
L 198.749907 270.688413 
L 199.400517 272.296287 
L 200.051128 272.409591 
L 201.352348 273.329423 
L 202.002959 274.133558 
L 202.653569 273.488086 
L 203.304179 274.470061 
L 203.95479 268.951574 
L 204.6054 269.388763 
L 205.25601 271.806417 
L 205.906621 271.035165 
L 206.557231 272.30141 
L 207.207841 271.508481 
L 207.858451 273.593877 
L 209.159672 274.054738 
L 209.810282 274.546633 
L 210.460893 268.684753 
L 211.111503 269.954757 
L 211.762113 270.291036 
L 212.412724 270.799498 
L 213.063334 273.647198 
L 213.713944 272.696921 
L 214.364555 271.527671 
L 215.015165 273.0505 
L 215.665775 273.720024 
L 216.316385 274.795586 
L 216.966996 268.439674 
L 217.617606 269.035868 
L 218.268216 272.104805 
L 218.918827 271.062949 
L 219.569437 272.271477 
L 220.220047 273.167979 
L 220.870658 272.760261 
L 221.521268 273.928545 
L 222.171878 274.060986 
L 222.822489 275.159195 
L 223.473099 269.557969 
L 224.123709 270.12313 
L 224.77432 271.799618 
L 225.42493 272.552231 
L 226.07554 272.037201 
L 226.72615 272.104895 
L 228.027371 274.527161 
L 228.677981 273.355891 
L 229.328592 274.607382 
L 229.979202 270.435428 
L 230.629812 269.717739 
L 231.280423 272.745324 
L 231.931033 271.341778 
L 232.581643 271.992789 
L 233.232254 273.33334 
L 233.882864 272.288474 
L 234.533474 273.971239 
L 235.184085 274.080709 
L 235.834695 274.638595 
L 236.485305 270.358416 
L 237.135915 270.889485 
L 237.786526 270.638773 
L 238.437136 272.030425 
L 239.087746 272.056972 
L 239.738357 271.675071 
L 240.388967 273.389273 
L 241.039577 273.822715 
L 241.690188 273.152742 
L 242.340798 273.317301 
L 242.991408 270.159588 
L 243.642019 270.434493 
L 244.292629 269.949607 
L 244.943239 271.388849 
L 245.59385 272.043761 
L 246.24446 272.263986 
L 246.89507 273.516213 
L 247.54568 274.08959 
L 248.196291 273.338686 
L 248.846901 273.701641 
L 249.497511 269.864044 
L 250.148122 270.116409 
L 251.449342 271.031166 
L 252.099953 272.950479 
L 252.750563 272.445247 
L 253.401173 273.741512 
L 254.051784 274.660921 
L 254.702394 273.214842 
L 255.353004 273.636321 
L 256.003615 268.102123 
L 256.654225 269.053891 
L 257.304835 272.176667 
L 257.955445 271.857849 
L 258.606056 272.289998 
L 259.256666 273.403795 
L 259.907276 272.247751 
L 261.208497 272.604727 
L 261.859107 273.564893 
L 262.509718 271.255448 
L 263.160328 269.517155 
L 264.461549 272.968672 
L 265.112159 273.029423 
L 265.762769 273.461704 
L 266.413379 273.103801 
L 267.06399 273.057943 
L 267.7146 273.400114 
L 268.36521 274.412026 
L 269.015821 270.068466 
L 269.666431 269.856113 
L 270.967652 272.362634 
L 271.618262 271.865061 
L 272.268872 272.76799 
L 272.919483 273.126824 
L 273.570093 274.116106 
L 274.220703 274.234528 
L 274.871314 272.657655 
L 275.521924 269.417007 
L 276.172534 270.129902 
L 276.823144 272.158601 
L 277.473755 271.623302 
L 278.124365 271.512414 
L 278.774975 272.298016 
L 279.425586 272.056646 
L 280.076196 273.44839 
L 280.726806 273.708154 
L 281.377417 273.508593 
L 282.028027 270.208894 
L 282.678637 272.238209 
L 283.329248 269.575768 
L 283.979858 272.593665 
L 284.630468 272.064757 
L 285.281079 272.627534 
L 285.931689 273.482461 
L 286.582299 272.399842 
L 287.232909 271.913868 
L 287.88352 272.074448 
L 288.53413 270.297376 
L 289.18474 271.009203 
L 289.835351 270.010954 
L 290.485961 271.046545 
L 291.136571 271.00718 
L 291.787182 272.622887 
L 292.437792 273.040571 
L 293.088402 272.854425 
L 293.739013 272.948084 
L 294.389623 273.339028 
L 295.040233 270.784233 
L 295.690844 269.492981 
L 296.341454 271.228332 
L 296.992064 270.672575 
L 297.642674 270.724788 
L 298.293285 272.463415 
L 298.943895 272.52191 
L 299.594505 273.356276 
L 300.245116 273.449382 
L 300.895726 273.403446 
L 301.546336 271.594646 
L 302.196947 271.152228 
L 302.847557 270.096639 
L 303.498167 272.015533 
L 304.148778 272.585342 
L 304.799388 272.859881 
L 305.449998 272.361448 
L 306.100608 272.234234 
L 306.751219 274.534436 
L 307.401829 273.034374 
L 308.052439 269.589787 
L 309.35366 271.10003 
L 310.00427 271.330308 
L 310.654881 271.840624 
L 311.305491 272.187037 
L 311.956101 272.366248 
L 312.606712 273.485293 
L 313.257322 273.609344 
L 313.907932 272.139923 
L 314.558543 271.686392 
L 315.209153 271.485946 
L 315.859763 271.501045 
L 316.510373 270.628179 
L 317.160984 272.990556 
L 317.811594 271.21348 
L 318.462204 270.971532 
L 319.112815 273.069074 
L 319.763425 272.329052 
L 320.414035 272.460477 
L 321.064646 270.002304 
L 321.715256 270.50005 
L 322.365866 271.504612 
L 323.016477 272.17869 
L 323.667087 271.687217 
L 324.317697 273.273733 
L 324.968308 271.725163 
L 325.618918 273.173793 
L 326.269528 272.62458 
L 326.920138 271.598425 
L 327.570749 269.792088 
L 328.221359 271.50671 
L 328.871969 270.915057 
L 329.52258 271.946056 
L 330.17319 271.790414 
L 330.8238 272.106926 
L 331.474411 271.258457 
L 332.125021 272.778254 
L 332.775631 272.807456 
L 333.426242 273.416636 
L 334.076852 269.420405 
L 334.727462 269.306488 
L 335.378073 271.110688 
L 336.028683 271.653737 
L 336.679293 273.017126 
L 337.329903 271.662528 
L 337.980514 272.055593 
L 338.631124 272.065138 
L 339.281734 273.706189 
L 339.932345 273.382897 
L 340.582955 270.375114 
L 341.884176 270.729282 
L 342.534786 271.048418 
L 343.185396 271.967311 
L 343.836007 271.104434 
L 344.486617 272.578624 
L 345.137227 272.275743 
L 345.787837 271.641187 
L 347.089058 271.690151 
L 347.739668 271.473454 
L 348.390279 270.77413 
L 349.040889 272.246121 
L 349.691499 273.011452 
L 350.34211 272.238355 
L 350.99272 274.083411 
L 351.64333 271.18834 
L 352.293941 271.210471 
L 352.944551 271.983424 
L 353.595161 271.040028 
L 354.245772 269.888658 
L 354.896382 272.401028 
L 355.546992 270.078911 
L 356.197602 271.074564 
L 356.848213 270.243383 
L 357.498823 272.219837 
L 358.149433 272.067149 
L 358.800044 272.213918 
L 359.450654 271.943051 
L 360.101264 271.093757 
L 360.751875 269.720878 
L 361.402485 271.312603 
L 362.053095 270.963982 
L 362.703706 270.997521 
L 363.354316 272.322857 
L 364.004926 272.430242 
L 364.655537 271.371164 
L 365.306147 272.964956 
L 365.956757 272.717583 
L 366.607367 271.182487 
L 367.257978 270.758248 
L 367.908588 269.955492 
L 368.559198 272.027656 
L 369.209809 271.672785 
L 369.860419 271.490848 
L 370.511029 272.812755 
L 371.16164 272.11325 
L 371.81225 271.993724 
L 372.46286 272.946497 
L 373.113471 271.773495 
L 373.764081 269.654508 
L 374.414691 271.721966 
L 375.065302 270.902224 
L 375.715912 272.539696 
L 376.366522 270.69453 
L 377.017132 272.341783 
L 377.667743 272.684438 
L 378.318353 272.628658 
L 378.968963 273.104359 
L 379.619574 269.355586 
L 380.270184 270.651858 
L 380.920794 271.325103 
L 381.571405 271.50616 
L 382.222015 272.011267 
L 383.523236 272.160663 
L 384.173846 271.269338 
L 384.824456 272.758189 
L 386.125677 270.13801 
L 386.776287 269.932359 
L 387.426897 270.363613 
L 388.077508 271.132874 
L 388.728118 271.68281 
L 389.378728 271.714235 
L 390.029339 270.892568 
L 391.330559 270.770166 
L 391.98117 272.561871 
L 392.63178 270.755055 
L 393.28239 271.116093 
L 393.933001 270.583406 
L 395.234221 271.082605 
L 395.884831 270.723535 
L 396.535442 269.859582 
L 397.186052 272.496816 
L 397.836662 272.868295 
L 398.487273 272.416698 
L 398.487273 272.416698 
" clip-path="url(#p496dbac1cf)" style="fill: none; stroke: #ff0000; stroke-width: 1.5; stroke-linecap: square"/>
   </g>
   <g id="patch_3">
    <path d="M 57.6 307.584 
L 57.6 41.472 
" style="fill: none; stroke: #000000; stroke-width: 0.8; stroke-linejoin: miter; stroke-linecap: square"/>
   </g>
   <g id="patch_4">
    <path d="M 414.72 307.584 
L 414.72 41.472 
" style="fill: none; stroke: #000000; stroke-width: 0.8; stroke-linejoin: miter; stroke-linecap: square"/>
   </g>
   <g id="patch_5">
    <path d="M 57.6 307.584 
L 414.72 307.584 
" style="fill: none; stroke: #000000; stroke-width: 0.8; stroke-linejoin: miter; stroke-linecap: square"/>
   </g>
   <g id="patch_6">
    <path d="M 57.6 41.472 
L 414.72 41.472 
" style="fill: none; stroke: #000000; stroke-width: 0.8; stroke-linejoin: miter; stroke-linecap: square"/>
   </g>
   <g id="text_15">
    <!-- The loss curve on λ_0.00025_iid/host/4 -->
    <g transform="translate(119.181562 35.472) scale(0.12 -0.12)">
     <defs>
      <path id="DejaVuSans-54" d="M -19 4666 
L 3928 4666 
L 3928 4134 
L 2272 4134 
L 2272 0 
L 1638 0 
L 1638 4134 
L -19 4134 
L -19 4666 
z
" transform="scale(0.015625)"/>
      <path id="DejaVuSans-72" d="M 2631 2963 
Q 2534 3019 2420 3045 
Q 2306 3072 2169 3072 
Q 1681 3072 1420 2755 
Q 1159 2438 1159 1844 
L 1159 0 
L 581 0 
L 581 3500 
L 1159 3500 
L 1159 2956 
Q 1341 3275 1631 3429 
Q 1922 3584 2338 3584 
Q 2397 3584 2469 3576 
Q 2541 3569 2628 3553 
L 2631 2963 
z
" transform="scale(0.015625)"/>
      <path id="DejaVuSans-6e" d="M 3513 2113 
L 3513 0 
L 2938 0 
L 2938 2094 
Q 2938 2591 2744 2837 
Q 2550 3084 2163 3084 
Q 1697 3084 1428 2787 
Q 1159 2491 1159 1978 
L 1159 0 
L 581 0 
L 581 3500 
L 1159 3500 
L 1159 2956 
Q 1366 3272 1645 3428 
Q 1925 3584 2291 3584 
Q 2894 3584 3203 3211 
Q 3513 2838 3513 2113 
z
" transform="scale(0.015625)"/>
      <path id="DejaVuSans-3bb" d="M 1981 4316 
L 3597 0 
L 2988 0 
L 2006 2588 
L 800 0 
L 191 0 
L 1725 3356 
L 1494 3975 
Q 1347 4369 1013 4369 
L 713 4369 
L 713 4863 
L 1078 4856 
Q 1784 4847 1981 4316 
z
" transform="scale(0.015625)"/>
      <path id="DejaVuSans-5f" d="M 3263 -1063 
L 3263 -1509 
L -63 -1509 
L -63 -1063 
L 3263 -1063 
z
" transform="scale(0.015625)"/>
      <path id="DejaVuSans-69" d="M 603 3500 
L 1178 3500 
L 1178 0 
L 603 0 
L 603 3500 
z
M 603 4863 
L 1178 4863 
L 1178 4134 
L 603 4134 
L 603 4863 
z
" transform="scale(0.015625)"/>
      <path id="DejaVuSans-64" d="M 2906 2969 
L 2906 4863 
L 3481 4863 
L 3481 0 
L 2906 0 
L 2906 525 
Q 2725 213 2448 61 
Q 2172 -91 1784 -91 
Q 1150 -91 751 415 
Q 353 922 353 1747 
Q 353 2572 751 3078 
Q 1150 3584 1784 3584 
Q 2172 3584 2448 3432 
Q 2725 3281 2906 2969 
z
M 947 1747 
Q 947 1113 1208 752 
Q 1469 391 1925 391 
Q 2381 391 2643 752 
Q 2906 1113 2906 1747 
Q 2906 2381 2643 2742 
Q 2381 3103 1925 3103 
Q 1469 3103 1208 2742 
Q 947 2381 947 1747 
z
" transform="scale(0.015625)"/>
      <path id="DejaVuSans-2f" d="M 1625 4666 
L 2156 4666 
L 531 -594 
L 0 -594 
L 1625 4666 
z
" transform="scale(0.015625)"/>
      <path id="DejaVuSans-74" d="M 1172 4494 
L 1172 3500 
L 2356 3500 
L 2356 3053 
L 1172 3053 
L 1172 1153 
Q 1172 725 1289 603 
Q 1406 481 1766 481 
L 2356 481 
L 2356 0 
L 1766 0 
Q 1100 0 847 248 
Q 594 497 594 1153 
L 594 3053 
L 172 3053 
L 172 3500 
L 594 3500 
L 594 4494 
L 1172 4494 
z
" transform="scale(0.015625)"/>
     </defs>
     <use xlink:href="#DejaVuSans-54"/>
     <use xlink:href="#DejaVuSans-68" x="61.083984"/>
     <use xlink:href="#DejaVuSans-65" x="124.462891"/>
     <use xlink:href="#DejaVuSans-20" x="185.986328"/>
     <use xlink:href="#DejaVuSans-6c" x="217.773438"/>
     <use xlink:href="#DejaVuSans-6f" x="245.556641"/>
     <use xlink:href="#DejaVuSans-73" x="306.738281"/>
     <use xlink:href="#DejaVuSans-73" x="358.837891"/>
     <use xlink:href="#DejaVuSans-20" x="410.9375"/>
     <use xlink:href="#DejaVuSans-63" x="442.724609"/>
     <use xlink:href="#DejaVuSans-75" x="497.705078"/>
     <use xlink:href="#DejaVuSans-72" x="561.083984"/>
     <use xlink:href="#DejaVuSans-76" x="602.197266"/>
     <use xlink:href="#DejaVuSans-65" x="661.376953"/>
     <use xlink:href="#DejaVuSans-20" x="722.900391"/>
     <use xlink:href="#DejaVuSans-6f" x="754.6875"/>
     <use xlink:href="#DejaVuSans-6e" x="815.869141"/>
     <use xlink:href="#DejaVuSans-20" x="879.248047"/>
     <use xlink:href="#DejaVuSans-3bb" x="911.035156"/>
     <use xlink:href="#DejaVuSans-5f" x="970.214844"/>
     <use xlink:href="#DejaVuSans-30" x="1020.214844"/>
     <use xlink:href="#DejaVuSans-2e" x="1083.837891"/>
     <use xlink:href="#DejaVuSans-30" x="1115.625"/>
     <use xlink:href="#DejaVuSans-30" x="1179.248047"/>
     <use xlink:href="#DejaVuSans-30" x="1242.871094"/>
     <use xlink:href="#DejaVuSans-32" x="1306.494141"/>
     <use xlink:href="#DejaVuSans-35" x="1370.117188"/>
     <use xlink:href="#DejaVuSans-5f" x="1433.740234"/>
     <use xlink:href="#DejaVuSans-69" x="1483.740234"/>
     <use xlink:href="#DejaVuSans-69" x="1511.523438"/>
     <use xlink:href="#DejaVuSans-64" x="1539.306641"/>
     <use xlink:href="#DejaVuSans-2f" x="1602.783203"/>
     <use xlink:href="#DejaVuSans-68" x="1636.474609"/>
     <use xlink:href="#DejaVuSans-6f" x="1699.853516"/>
     <use xlink:href="#DejaVuSans-73" x="1761.035156"/>
     <use xlink:href="#DejaVuSans-74" x="1813.134766"/>
     <use xlink:href="#DejaVuSans-2f" x="1852.34375"/>
     <use xlink:href="#DejaVuSans-34" x="1886.035156"/>
    </g>
   </g>
   <g id="legend_1">
    <g id="patch_7">
     <path d="M 317.418438 94.34075 
L 407.72 94.34075 
Q 409.72 94.34075 409.72 92.34075 
L 409.72 48.472 
Q 409.72 46.472 407.72 46.472 
L 317.418438 46.472 
Q 315.418438 46.472 315.418438 48.472 
L 315.418438 92.34075 
Q 315.418438 94.34075 317.418438 94.34075 
z
" style="fill: #ffffff; opacity: 0.8; stroke: #cccccc; stroke-linejoin: miter"/>
    </g>
    <g id="line2d_16">
     <path d="M 319.418438 54.570438 
L 329.418438 54.570438 
L 339.418438 54.570438 
" style="fill: none; stroke: #0000ff; stroke-width: 1.5; stroke-linecap: square"/>
    </g>
    <g id="text_16">
     <!-- obj_loss -->
     <g transform="translate(347.418438 58.070438) scale(0.1 -0.1)">
      <defs>
       <path id="DejaVuSans-62" d="M 3116 1747 
Q 3116 2381 2855 2742 
Q 2594 3103 2138 3103 
Q 1681 3103 1420 2742 
Q 1159 2381 1159 1747 
Q 1159 1113 1420 752 
Q 1681 391 2138 391 
Q 2594 391 2855 752 
Q 3116 1113 3116 1747 
z
M 1159 2969 
Q 1341 3281 1617 3432 
Q 1894 3584 2278 3584 
Q 2916 3584 3314 3078 
Q 3713 2572 3713 1747 
Q 3713 922 3314 415 
Q 2916 -91 2278 -91 
Q 1894 -91 1617 61 
Q 1341 213 1159 525 
L 1159 0 
L 581 0 
L 581 4863 
L 1159 4863 
L 1159 2969 
z
" transform="scale(0.015625)"/>
       <path id="DejaVuSans-6a" d="M 603 3500 
L 1178 3500 
L 1178 -63 
Q 1178 -731 923 -1031 
Q 669 -1331 103 -1331 
L -116 -1331 
L -116 -844 
L 38 -844 
Q 366 -844 484 -692 
Q 603 -541 603 -63 
L 603 3500 
z
M 603 4863 
L 1178 4863 
L 1178 4134 
L 603 4134 
L 603 4863 
z
" transform="scale(0.015625)"/>
      </defs>
      <use xlink:href="#DejaVuSans-6f"/>
      <use xlink:href="#DejaVuSans-62" x="61.181641"/>
      <use xlink:href="#DejaVuSans-6a" x="124.658203"/>
      <use xlink:href="#DejaVuSans-5f" x="152.441406"/>
      <use xlink:href="#DejaVuSans-6c" x="202.441406"/>
      <use xlink:href="#DejaVuSans-6f" x="230.224609"/>
      <use xlink:href="#DejaVuSans-73" x="291.40625"/>
      <use xlink:href="#DejaVuSans-73" x="343.505859"/>
     </g>
    </g>
    <g id="line2d_17">
     <path d="M 319.418438 69.526688 
L 329.418438 69.526688 
L 339.418438 69.526688 
" style="fill: none; stroke: #008000; stroke-width: 1.5; stroke-linecap: square"/>
    </g>
    <g id="text_17">
     <!-- reg_loss -->
     <g transform="translate(347.418438 73.026688) scale(0.1 -0.1)">
      <defs>
       <path id="DejaVuSans-67" d="M 2906 1791 
Q 2906 2416 2648 2759 
Q 2391 3103 1925 3103 
Q 1463 3103 1205 2759 
Q 947 2416 947 1791 
Q 947 1169 1205 825 
Q 1463 481 1925 481 
Q 2391 481 2648 825 
Q 2906 1169 2906 1791 
z
M 3481 434 
Q 3481 -459 3084 -895 
Q 2688 -1331 1869 -1331 
Q 1566 -1331 1297 -1286 
Q 1028 -1241 775 -1147 
L 775 -588 
Q 1028 -725 1275 -790 
Q 1522 -856 1778 -856 
Q 2344 -856 2625 -561 
Q 2906 -266 2906 331 
L 2906 616 
Q 2728 306 2450 153 
Q 2172 0 1784 0 
Q 1141 0 747 490 
Q 353 981 353 1791 
Q 353 2603 747 3093 
Q 1141 3584 1784 3584 
Q 2172 3584 2450 3431 
Q 2728 3278 2906 2969 
L 2906 3500 
L 3481 3500 
L 3481 434 
z
" transform="scale(0.015625)"/>
      </defs>
      <use xlink:href="#DejaVuSans-72"/>
      <use xlink:href="#DejaVuSans-65" x="38.863281"/>
      <use xlink:href="#DejaVuSans-67" x="100.386719"/>
      <use xlink:href="#DejaVuSans-5f" x="163.863281"/>
      <use xlink:href="#DejaVuSans-6c" x="213.863281"/>
      <use xlink:href="#DejaVuSans-6f" x="241.646484"/>
      <use xlink:href="#DejaVuSans-73" x="302.828125"/>
      <use xlink:href="#DejaVuSans-73" x="354.927734"/>
     </g>
    </g>
    <g id="line2d_18">
     <path d="M 319.418438 84.482938 
L 329.418438 84.482938 
L 339.418438 84.482938 
" style="fill: none; stroke: #ff0000; stroke-width: 1.5; stroke-linecap: square"/>
    </g>
    <g id="text_18">
     <!-- overall_loss -->
     <g transform="translate(347.418438 87.982938) scale(0.1 -0.1)">
      <use xlink:href="#DejaVuSans-6f"/>
      <use xlink:href="#DejaVuSans-76" x="61.181641"/>
      <use xlink:href="#DejaVuSans-65" x="120.361328"/>
      <use xlink:href="#DejaVuSans-72" x="181.884766"/>
      <use xlink:href="#DejaVuSans-61" x="222.998047"/>
      <use xlink:href="#DejaVuSans-6c" x="284.277344"/>
      <use xlink:href="#DejaVuSans-6c" x="312.060547"/>
      <use xlink:href="#DejaVuSans-5f" x="339.84375"/>
      <use xlink:href="#DejaVuSans-6c" x="389.84375"/>
      <use xlink:href="#DejaVuSans-6f" x="417.626953"/>
      <use xlink:href="#DejaVuSans-73" x="478.808594"/>
      <use xlink:href="#DejaVuSans-73" x="530.908203"/>
     </g>
    </g>
   </g>
  </g>
 </g>
 <defs>
  <clipPath id="p496dbac1cf">
   <rect x="57.6" y="41.472" width="357.12" height="266.112"/>
  </clipPath>
 </defs>
</svg>
