<?xml version="1.0" encoding="utf-8" standalone="no"?>
<!DOCTYPE svg PUBLIC "-//W3C//DTD SVG 1.1//EN"
  "http://www.w3.org/Graphics/SVG/1.1/DTD/svg11.dtd">
<svg xmlns:xlink="http://www.w3.org/1999/xlink" width="576pt" height="432pt" viewBox="0 0 576 432" xmlns="http://www.w3.org/2000/svg" version="1.1">
 <metadata>
  <rdf:RDF xmlns:dc="http://purl.org/dc/elements/1.1/" xmlns:cc="http://creativecommons.org/ns#" xmlns:rdf="http://www.w3.org/1999/02/22-rdf-syntax-ns#">
   <cc:Work>
    <dc:type rdf:resource="http://purl.org/dc/dcmitype/StillImage"/>
    <dc:date>2023-04-13T09:22:54.611214</dc:date>
    <dc:format>image/svg+xml</dc:format>
    <dc:creator>
     <cc:Agent>
      <dc:title>Matplotlib v3.7.1, https://matplotlib.org/</dc:title>
     </cc:Agent>
    </dc:creator>
   </cc:Work>
  </rdf:RDF>
 </metadata>
 <defs>
  <style type="text/css">*{stroke-linejoin: round; stroke-linecap: butt}</style>
 </defs>
 <g id="figure_1">
  <g id="patch_1">
   <path d="M 0 432 
L 576 432 
L 576 0 
L 0 0 
z
" style="fill: #ffffff"/>
  </g>
  <g id="axes_1">
   <g id="patch_2">
    <path d="M 72 384.48 
L 518.4 384.48 
L 518.4 51.84 
L 72 51.84 
z
" style="fill: #ffffff"/>
   </g>
   <g id="matplotlib.axis_1">
    <g id="xtick_1">
     <g id="line2d_1">
      <defs>
       <path id="m15d751e410" d="M 0 0 
L 0 3.5 
" style="stroke: #000000; stroke-width: 0.8"/>
      </defs>
      <g>
       <use xlink:href="#m15d751e410" x="92.290909" y="384.48" style="stroke: #000000; stroke-width: 0.8"/>
      </g>
     </g>
     <g id="text_1">
      <!-- 0 -->
      <g transform="translate(89.109659 399.078438) scale(0.1 -0.1)">
       <defs>
        <path id="DejaVuSans-30" d="M 2034 4250 
Q 1547 4250 1301 3770 
Q 1056 3291 1056 2328 
Q 1056 1369 1301 889 
Q 1547 409 2034 409 
Q 2525 409 2770 889 
Q 3016 1369 3016 2328 
Q 3016 3291 2770 3770 
Q 2525 4250 2034 4250 
z
M 2034 4750 
Q 2819 4750 3233 4129 
Q 3647 3509 3647 2328 
Q 3647 1150 3233 529 
Q 2819 -91 2034 -91 
Q 1250 -91 836 529 
Q 422 1150 422 2328 
Q 422 3509 836 4129 
Q 1250 4750 2034 4750 
z
" transform="scale(0.015625)"/>
       </defs>
       <use xlink:href="#DejaVuSans-30"/>
      </g>
     </g>
    </g>
    <g id="xtick_2">
     <g id="line2d_2">
      <g>
       <use xlink:href="#m15d751e410" x="173.617198" y="384.48" style="stroke: #000000; stroke-width: 0.8"/>
      </g>
     </g>
     <g id="text_2">
      <!-- 100 -->
      <g transform="translate(164.073448 399.078438) scale(0.1 -0.1)">
       <defs>
        <path id="DejaVuSans-31" d="M 794 531 
L 1825 531 
L 1825 4091 
L 703 3866 
L 703 4441 
L 1819 4666 
L 2450 4666 
L 2450 531 
L 3481 531 
L 3481 0 
L 794 0 
L 794 531 
z
" transform="scale(0.015625)"/>
       </defs>
       <use xlink:href="#DejaVuSans-31"/>
       <use xlink:href="#DejaVuSans-30" x="63.623047"/>
       <use xlink:href="#DejaVuSans-30" x="127.246094"/>
      </g>
     </g>
    </g>
    <g id="xtick_3">
     <g id="line2d_3">
      <g>
       <use xlink:href="#m15d751e410" x="254.943487" y="384.48" style="stroke: #000000; stroke-width: 0.8"/>
      </g>
     </g>
     <g id="text_3">
      <!-- 200 -->
      <g transform="translate(245.399737 399.078438) scale(0.1 -0.1)">
       <defs>
        <path id="DejaVuSans-32" d="M 1228 531 
L 3431 531 
L 3431 0 
L 469 0 
L 469 531 
Q 828 903 1448 1529 
Q 2069 2156 2228 2338 
Q 2531 2678 2651 2914 
Q 2772 3150 2772 3378 
Q 2772 3750 2511 3984 
Q 2250 4219 1831 4219 
Q 1534 4219 1204 4116 
Q 875 4013 500 3803 
L 500 4441 
Q 881 4594 1212 4672 
Q 1544 4750 1819 4750 
Q 2544 4750 2975 4387 
Q 3406 4025 3406 3419 
Q 3406 3131 3298 2873 
Q 3191 2616 2906 2266 
Q 2828 2175 2409 1742 
Q 1991 1309 1228 531 
z
" transform="scale(0.015625)"/>
       </defs>
       <use xlink:href="#DejaVuSans-32"/>
       <use xlink:href="#DejaVuSans-30" x="63.623047"/>
       <use xlink:href="#DejaVuSans-30" x="127.246094"/>
      </g>
     </g>
    </g>
    <g id="xtick_4">
     <g id="line2d_4">
      <g>
       <use xlink:href="#m15d751e410" x="336.269776" y="384.48" style="stroke: #000000; stroke-width: 0.8"/>
      </g>
     </g>
     <g id="text_4">
      <!-- 300 -->
      <g transform="translate(326.726026 399.078438) scale(0.1 -0.1)">
       <defs>
        <path id="DejaVuSans-33" d="M 2597 2516 
Q 3050 2419 3304 2112 
Q 3559 1806 3559 1356 
Q 3559 666 3084 287 
Q 2609 -91 1734 -91 
Q 1441 -91 1130 -33 
Q 819 25 488 141 
L 488 750 
Q 750 597 1062 519 
Q 1375 441 1716 441 
Q 2309 441 2620 675 
Q 2931 909 2931 1356 
Q 2931 1769 2642 2001 
Q 2353 2234 1838 2234 
L 1294 2234 
L 1294 2753 
L 1863 2753 
Q 2328 2753 2575 2939 
Q 2822 3125 2822 3475 
Q 2822 3834 2567 4026 
Q 2313 4219 1838 4219 
Q 1578 4219 1281 4162 
Q 984 4106 628 3988 
L 628 4550 
Q 988 4650 1302 4700 
Q 1616 4750 1894 4750 
Q 2613 4750 3031 4423 
Q 3450 4097 3450 3541 
Q 3450 3153 3228 2886 
Q 3006 2619 2597 2516 
z
" transform="scale(0.015625)"/>
       </defs>
       <use xlink:href="#DejaVuSans-33"/>
       <use xlink:href="#DejaVuSans-30" x="63.623047"/>
       <use xlink:href="#DejaVuSans-30" x="127.246094"/>
      </g>
     </g>
    </g>
    <g id="xtick_5">
     <g id="line2d_5">
      <g>
       <use xlink:href="#m15d751e410" x="417.596065" y="384.48" style="stroke: #000000; stroke-width: 0.8"/>
      </g>
     </g>
     <g id="text_5">
      <!-- 400 -->
      <g transform="translate(408.052315 399.078438) scale(0.1 -0.1)">
       <defs>
        <path id="DejaVuSans-34" d="M 2419 4116 
L 825 1625 
L 2419 1625 
L 2419 4116 
z
M 2253 4666 
L 3047 4666 
L 3047 1625 
L 3713 1625 
L 3713 1100 
L 3047 1100 
L 3047 0 
L 2419 0 
L 2419 1100 
L 313 1100 
L 313 1709 
L 2253 4666 
z
" transform="scale(0.015625)"/>
       </defs>
       <use xlink:href="#DejaVuSans-34"/>
       <use xlink:href="#DejaVuSans-30" x="63.623047"/>
       <use xlink:href="#DejaVuSans-30" x="127.246094"/>
      </g>
     </g>
    </g>
    <g id="xtick_6">
     <g id="line2d_6">
      <g>
       <use xlink:href="#m15d751e410" x="498.922354" y="384.48" style="stroke: #000000; stroke-width: 0.8"/>
      </g>
     </g>
     <g id="text_6">
      <!-- 500 -->
      <g transform="translate(489.378604 399.078438) scale(0.1 -0.1)">
       <defs>
        <path id="DejaVuSans-35" d="M 691 4666 
L 3169 4666 
L 3169 4134 
L 1269 4134 
L 1269 2991 
Q 1406 3038 1543 3061 
Q 1681 3084 1819 3084 
Q 2600 3084 3056 2656 
Q 3513 2228 3513 1497 
Q 3513 744 3044 326 
Q 2575 -91 1722 -91 
Q 1428 -91 1123 -41 
Q 819 9 494 109 
L 494 744 
Q 775 591 1075 516 
Q 1375 441 1709 441 
Q 2250 441 2565 725 
Q 2881 1009 2881 1497 
Q 2881 1984 2565 2268 
Q 2250 2553 1709 2553 
Q 1456 2553 1204 2497 
Q 953 2441 691 2322 
L 691 4666 
z
" transform="scale(0.015625)"/>
       </defs>
       <use xlink:href="#DejaVuSans-35"/>
       <use xlink:href="#DejaVuSans-30" x="63.623047"/>
       <use xlink:href="#DejaVuSans-30" x="127.246094"/>
      </g>
     </g>
    </g>
    <g id="text_7">
     <!-- epoch -->
     <g transform="translate(279.971875 412.756563) scale(0.1 -0.1)">
      <defs>
       <path id="DejaVuSans-65" d="M 3597 1894 
L 3597 1613 
L 953 1613 
Q 991 1019 1311 708 
Q 1631 397 2203 397 
Q 2534 397 2845 478 
Q 3156 559 3463 722 
L 3463 178 
Q 3153 47 2828 -22 
Q 2503 -91 2169 -91 
Q 1331 -91 842 396 
Q 353 884 353 1716 
Q 353 2575 817 3079 
Q 1281 3584 2069 3584 
Q 2775 3584 3186 3129 
Q 3597 2675 3597 1894 
z
M 3022 2063 
Q 3016 2534 2758 2815 
Q 2500 3097 2075 3097 
Q 1594 3097 1305 2825 
Q 1016 2553 972 2059 
L 3022 2063 
z
" transform="scale(0.015625)"/>
       <path id="DejaVuSans-70" d="M 1159 525 
L 1159 -1331 
L 581 -1331 
L 581 3500 
L 1159 3500 
L 1159 2969 
Q 1341 3281 1617 3432 
Q 1894 3584 2278 3584 
Q 2916 3584 3314 3078 
Q 3713 2572 3713 1747 
Q 3713 922 3314 415 
Q 2916 -91 2278 -91 
Q 1894 -91 1617 61 
Q 1341 213 1159 525 
z
M 3116 1747 
Q 3116 2381 2855 2742 
Q 2594 3103 2138 3103 
Q 1681 3103 1420 2742 
Q 1159 2381 1159 1747 
Q 1159 1113 1420 752 
Q 1681 391 2138 391 
Q 2594 391 2855 752 
Q 3116 1113 3116 1747 
z
" transform="scale(0.015625)"/>
       <path id="DejaVuSans-6f" d="M 1959 3097 
Q 1497 3097 1228 2736 
Q 959 2375 959 1747 
Q 959 1119 1226 758 
Q 1494 397 1959 397 
Q 2419 397 2687 759 
Q 2956 1122 2956 1747 
Q 2956 2369 2687 2733 
Q 2419 3097 1959 3097 
z
M 1959 3584 
Q 2709 3584 3137 3096 
Q 3566 2609 3566 1747 
Q 3566 888 3137 398 
Q 2709 -91 1959 -91 
Q 1206 -91 779 398 
Q 353 888 353 1747 
Q 353 2609 779 3096 
Q 1206 3584 1959 3584 
z
" transform="scale(0.015625)"/>
       <path id="DejaVuSans-63" d="M 3122 3366 
L 3122 2828 
Q 2878 2963 2633 3030 
Q 2388 3097 2138 3097 
Q 1578 3097 1268 2742 
Q 959 2388 959 1747 
Q 959 1106 1268 751 
Q 1578 397 2138 397 
Q 2388 397 2633 464 
Q 2878 531 3122 666 
L 3122 134 
Q 2881 22 2623 -34 
Q 2366 -91 2075 -91 
Q 1284 -91 818 406 
Q 353 903 353 1747 
Q 353 2603 823 3093 
Q 1294 3584 2113 3584 
Q 2378 3584 2631 3529 
Q 2884 3475 3122 3366 
z
" transform="scale(0.015625)"/>
       <path id="DejaVuSans-68" d="M 3513 2113 
L 3513 0 
L 2938 0 
L 2938 2094 
Q 2938 2591 2744 2837 
Q 2550 3084 2163 3084 
Q 1697 3084 1428 2787 
Q 1159 2491 1159 1978 
L 1159 0 
L 581 0 
L 581 4863 
L 1159 4863 
L 1159 2956 
Q 1366 3272 1645 3428 
Q 1925 3584 2291 3584 
Q 2894 3584 3203 3211 
Q 3513 2838 3513 2113 
z
" transform="scale(0.015625)"/>
      </defs>
      <use xlink:href="#DejaVuSans-65"/>
      <use xlink:href="#DejaVuSans-70" x="61.523438"/>
      <use xlink:href="#DejaVuSans-6f" x="125"/>
      <use xlink:href="#DejaVuSans-63" x="186.181641"/>
      <use xlink:href="#DejaVuSans-68" x="241.162109"/>
     </g>
    </g>
   </g>
   <g id="matplotlib.axis_2">
    <g id="ytick_1">
     <g id="line2d_7">
      <defs>
       <path id="m0479a43a4c" d="M 0 0 
L -3.5 0 
" style="stroke: #000000; stroke-width: 0.8"/>
      </defs>
      <g>
       <use xlink:href="#m0479a43a4c" x="72" y="384.48" style="stroke: #000000; stroke-width: 0.8"/>
      </g>
     </g>
     <g id="text_8">
      <!-- 0.0 -->
      <g transform="translate(49.096875 388.279219) scale(0.1 -0.1)">
       <defs>
        <path id="DejaVuSans-2e" d="M 684 794 
L 1344 794 
L 1344 0 
L 684 0 
L 684 794 
z
" transform="scale(0.015625)"/>
       </defs>
       <use xlink:href="#DejaVuSans-30"/>
       <use xlink:href="#DejaVuSans-2e" x="63.623047"/>
       <use xlink:href="#DejaVuSans-30" x="95.410156"/>
      </g>
     </g>
    </g>
    <g id="ytick_2">
     <g id="line2d_8">
      <g>
       <use xlink:href="#m0479a43a4c" x="72" y="317.952" style="stroke: #000000; stroke-width: 0.8"/>
      </g>
     </g>
     <g id="text_9">
      <!-- 0.2 -->
      <g transform="translate(49.096875 321.751219) scale(0.1 -0.1)">
       <use xlink:href="#DejaVuSans-30"/>
       <use xlink:href="#DejaVuSans-2e" x="63.623047"/>
       <use xlink:href="#DejaVuSans-32" x="95.410156"/>
      </g>
     </g>
    </g>
    <g id="ytick_3">
     <g id="line2d_9">
      <g>
       <use xlink:href="#m0479a43a4c" x="72" y="251.424" style="stroke: #000000; stroke-width: 0.8"/>
      </g>
     </g>
     <g id="text_10">
      <!-- 0.4 -->
      <g transform="translate(49.096875 255.223219) scale(0.1 -0.1)">
       <use xlink:href="#DejaVuSans-30"/>
       <use xlink:href="#DejaVuSans-2e" x="63.623047"/>
       <use xlink:href="#DejaVuSans-34" x="95.410156"/>
      </g>
     </g>
    </g>
    <g id="ytick_4">
     <g id="line2d_10">
      <g>
       <use xlink:href="#m0479a43a4c" x="72" y="184.896" style="stroke: #000000; stroke-width: 0.8"/>
      </g>
     </g>
     <g id="text_11">
      <!-- 0.6 -->
      <g transform="translate(49.096875 188.695219) scale(0.1 -0.1)">
       <defs>
        <path id="DejaVuSans-36" d="M 2113 2584 
Q 1688 2584 1439 2293 
Q 1191 2003 1191 1497 
Q 1191 994 1439 701 
Q 1688 409 2113 409 
Q 2538 409 2786 701 
Q 3034 994 3034 1497 
Q 3034 2003 2786 2293 
Q 2538 2584 2113 2584 
z
M 3366 4563 
L 3366 3988 
Q 3128 4100 2886 4159 
Q 2644 4219 2406 4219 
Q 1781 4219 1451 3797 
Q 1122 3375 1075 2522 
Q 1259 2794 1537 2939 
Q 1816 3084 2150 3084 
Q 2853 3084 3261 2657 
Q 3669 2231 3669 1497 
Q 3669 778 3244 343 
Q 2819 -91 2113 -91 
Q 1303 -91 875 529 
Q 447 1150 447 2328 
Q 447 3434 972 4092 
Q 1497 4750 2381 4750 
Q 2619 4750 2861 4703 
Q 3103 4656 3366 4563 
z
" transform="scale(0.015625)"/>
       </defs>
       <use xlink:href="#DejaVuSans-30"/>
       <use xlink:href="#DejaVuSans-2e" x="63.623047"/>
       <use xlink:href="#DejaVuSans-36" x="95.410156"/>
      </g>
     </g>
    </g>
    <g id="ytick_5">
     <g id="line2d_11">
      <g>
       <use xlink:href="#m0479a43a4c" x="72" y="118.368" style="stroke: #000000; stroke-width: 0.8"/>
      </g>
     </g>
     <g id="text_12">
      <!-- 0.8 -->
      <g transform="translate(49.096875 122.167219) scale(0.1 -0.1)">
       <defs>
        <path id="DejaVuSans-38" d="M 2034 2216 
Q 1584 2216 1326 1975 
Q 1069 1734 1069 1313 
Q 1069 891 1326 650 
Q 1584 409 2034 409 
Q 2484 409 2743 651 
Q 3003 894 3003 1313 
Q 3003 1734 2745 1975 
Q 2488 2216 2034 2216 
z
M 1403 2484 
Q 997 2584 770 2862 
Q 544 3141 544 3541 
Q 544 4100 942 4425 
Q 1341 4750 2034 4750 
Q 2731 4750 3128 4425 
Q 3525 4100 3525 3541 
Q 3525 3141 3298 2862 
Q 3072 2584 2669 2484 
Q 3125 2378 3379 2068 
Q 3634 1759 3634 1313 
Q 3634 634 3220 271 
Q 2806 -91 2034 -91 
Q 1263 -91 848 271 
Q 434 634 434 1313 
Q 434 1759 690 2068 
Q 947 2378 1403 2484 
z
M 1172 3481 
Q 1172 3119 1398 2916 
Q 1625 2713 2034 2713 
Q 2441 2713 2670 2916 
Q 2900 3119 2900 3481 
Q 2900 3844 2670 4047 
Q 2441 4250 2034 4250 
Q 1625 4250 1398 4047 
Q 1172 3844 1172 3481 
z
" transform="scale(0.015625)"/>
       </defs>
       <use xlink:href="#DejaVuSans-30"/>
       <use xlink:href="#DejaVuSans-2e" x="63.623047"/>
       <use xlink:href="#DejaVuSans-38" x="95.410156"/>
      </g>
     </g>
    </g>
    <g id="ytick_6">
     <g id="line2d_12">
      <g>
       <use xlink:href="#m0479a43a4c" x="72" y="51.84" style="stroke: #000000; stroke-width: 0.8"/>
      </g>
     </g>
     <g id="text_13">
      <!-- 1.0 -->
      <g transform="translate(49.096875 55.639219) scale(0.1 -0.1)">
       <use xlink:href="#DejaVuSans-31"/>
       <use xlink:href="#DejaVuSans-2e" x="63.623047"/>
       <use xlink:href="#DejaVuSans-30" x="95.410156"/>
      </g>
     </g>
    </g>
    <g id="text_14">
     <!-- rate -->
     <g transform="translate(43.017187 228.31625) rotate(-90) scale(0.1 -0.1)">
      <defs>
       <path id="DejaVuSans-72" d="M 2631 2963 
Q 2534 3019 2420 3045 
Q 2306 3072 2169 3072 
Q 1681 3072 1420 2755 
Q 1159 2438 1159 1844 
L 1159 0 
L 581 0 
L 581 3500 
L 1159 3500 
L 1159 2956 
Q 1341 3275 1631 3429 
Q 1922 3584 2338 3584 
Q 2397 3584 2469 3576 
Q 2541 3569 2628 3553 
L 2631 2963 
z
" transform="scale(0.015625)"/>
       <path id="DejaVuSans-61" d="M 2194 1759 
Q 1497 1759 1228 1600 
Q 959 1441 959 1056 
Q 959 750 1161 570 
Q 1363 391 1709 391 
Q 2188 391 2477 730 
Q 2766 1069 2766 1631 
L 2766 1759 
L 2194 1759 
z
M 3341 1997 
L 3341 0 
L 2766 0 
L 2766 531 
Q 2569 213 2275 61 
Q 1981 -91 1556 -91 
Q 1019 -91 701 211 
Q 384 513 384 1019 
Q 384 1609 779 1909 
Q 1175 2209 1959 2209 
L 2766 2209 
L 2766 2266 
Q 2766 2663 2505 2880 
Q 2244 3097 1772 3097 
Q 1472 3097 1187 3025 
Q 903 2953 641 2809 
L 641 3341 
Q 956 3463 1253 3523 
Q 1550 3584 1831 3584 
Q 2591 3584 2966 3190 
Q 3341 2797 3341 1997 
z
" transform="scale(0.015625)"/>
       <path id="DejaVuSans-74" d="M 1172 4494 
L 1172 3500 
L 2356 3500 
L 2356 3053 
L 1172 3053 
L 1172 1153 
Q 1172 725 1289 603 
Q 1406 481 1766 481 
L 2356 481 
L 2356 0 
L 1766 0 
Q 1100 0 847 248 
Q 594 497 594 1153 
L 594 3053 
L 172 3053 
L 172 3500 
L 594 3500 
L 594 4494 
L 1172 4494 
z
" transform="scale(0.015625)"/>
      </defs>
      <use xlink:href="#DejaVuSans-72"/>
      <use xlink:href="#DejaVuSans-61" x="41.113281"/>
      <use xlink:href="#DejaVuSans-74" x="102.392578"/>
      <use xlink:href="#DejaVuSans-65" x="141.601562"/>
     </g>
    </g>
   </g>
   <g id="line2d_13">
    <path d="M 92.290909 376.500288 
L 93.104172 372.252894 
L 93.917435 366.045517 
L 94.730698 301.32 
L 95.543961 164.937591 
L 96.357224 174.391587 
L 97.170486 138.960005 
L 97.983749 137.132303 
L 98.797012 152.40559 
L 99.610275 160.141388 
L 100.423538 205.840007 
L 102.050064 130.623155 
L 102.863327 156.383994 
L 103.67659 103.815 
L 104.489852 120.662066 
L 105.303115 102.239992 
L 106.116378 130.108231 
L 106.929641 124.605 
L 107.742904 123.762159 
L 108.556167 181.650727 
L 109.36943 152.40559 
L 110.182693 143.315992 
L 110.995956 146.879994 
L 111.809218 143.315992 
L 112.622481 124.858546 
L 113.435744 119.879995 
L 114.249007 131.039995 
L 115.06227 112.320002 
L 115.875533 122.206145 
L 116.688796 173.537564 
L 117.502059 157.311218 
L 118.315322 152.40559 
L 119.128584 125.759996 
L 119.941847 120.073842 
L 120.75511 104.362103 
L 121.568373 103.583997 
L 122.381636 114.602255 
L 123.194899 110.19789 
L 124.008162 122.399992 
L 124.821425 167.877205 
L 125.634688 142.559993 
L 126.44795 112.320002 
L 127.261213 99.359997 
L 128.074476 116.921743 
L 128.887739 109.412309 
L 129.701002 86.251033 
L 130.514265 99.359997 
L 131.327528 104.869572 
L 132.140791 123.42076 
L 132.954054 160.309559 
L 133.767316 147.935994 
L 134.580579 103.583997 
L 135.393842 110.975996 
L 136.207105 105.299994 
L 137.020368 81.018955 
L 137.833631 107.280007 
L 138.646894 71.407058 
L 139.460157 93.946325 
L 140.27342 82.079991 
L 141.086682 155.79 
L 141.899945 131.039995 
L 142.713208 100.349993 
L 143.526471 99.359997 
L 144.339734 81.018955 
L 145.152997 71.407058 
L 145.96626 81.314435 
L 146.779523 76.480005 
L 147.592786 75.84495 
L 148.406048 77.712008 
L 149.219311 155.327994 
L 150.032574 94.486151 
L 150.845837 88.128005 
L 151.6591 79.105581 
L 152.472363 71.407058 
L 153.285626 66.461538 
L 154.098889 67.679999 
L 154.912152 78.915342 
L 156.538677 64.275147 
L 157.35194 133.302858 
L 158.165203 109.412309 
L 158.978466 90.221546 
L 159.791729 82.640001 
L 160.604992 68.898461 
L 161.418255 64.009764 
L 162.231518 63.310351 
L 163.04478 72.848849 
L 163.858043 64.392443 
L 164.671306 82.357429 
L 165.484569 111.715202 
L 166.297832 107.280007 
L 167.111095 57.675787 
L 167.924358 70.066859 
L 168.737621 65.994892 
L 169.550884 62.686954 
L 170.364146 72.817305 
L 171.177409 63.936008 
L 171.990672 64.159993 
L 172.803935 66.177934 
L 173.617198 154.190763 
L 174.430461 107.280007 
L 175.243724 82.079991 
L 176.056987 79.559993 
L 176.87025 62.746236 
L 177.683512 74.315682 
L 178.496775 67.679999 
L 179.310038 65.325397 
L 180.123301 69.533615 
L 180.936564 61.528548 
L 181.749827 112.320002 
L 182.56309 108.326034 
L 183.376353 96.943734 
L 184.189616 79.559993 
L 185.002878 72.000001 
L 185.816141 69.347361 
L 186.629404 73.440008 
L 187.442667 69.347361 
L 188.25593 77.760009 
L 189.069193 77.149559 
L 189.882456 125.759996 
L 190.695719 90.648003 
L 191.508982 69.347361 
L 192.322244 71.407058 
L 193.135507 56.104625 
L 193.94877 72.893162 
L 194.762033 73.724206 
L 195.575296 62.928009 
L 196.388559 65.279994 
L 197.201822 73.772306 
L 198.015085 136.409494 
L 198.828348 86.251033 
L 199.64161 62.399999 
L 200.454873 77.427691 
L 201.268136 63.719994 
L 202.081399 72.122927 
L 202.894662 70.527636 
L 203.707925 66.790109 
L 204.521188 62.022852 
L 205.334451 76.179509 
L 206.147714 94.175999 
L 206.960976 89.396133 
L 207.774239 88.799998 
L 209.400765 59.666823 
L 210.214028 78.810815 
L 211.027291 55.619996 
L 211.840554 61.528548 
L 212.653817 61.81919 
L 213.46708 62.806153 
L 214.280343 138.838149 
L 215.093605 128.183615 
L 215.906868 62.399999 
L 216.720131 57.0375 
L 217.533394 61.210148 
L 218.346657 71.878561 
L 219.15992 59.953163 
L 219.973183 70.527636 
L 220.786446 78.00269 
L 221.599709 58.560007 
L 222.412971 91.756802 
L 223.226234 89.855998 
L 224.85276 66.096009 
L 226.479286 55.455651 
L 227.292549 59.399993 
L 228.105812 74.519998 
L 228.919075 58.560007 
L 229.732337 67.493646 
L 230.5456 91.986199 
L 231.358863 84.558689 
L 232.172126 80.351998 
L 232.985389 75.26535 
L 233.798652 78.101052 
L 234.611915 71.179544 
L 235.425178 67.870853 
L 236.238441 63.310351 
L 237.051703 76.179509 
L 237.864966 68.81142 
L 238.678229 104.639997 
L 239.491492 84.558689 
L 240.304755 86.593424 
L 241.118018 70.066859 
L 241.931281 68.898461 
L 242.744544 63.719994 
L 243.557807 62.456169 
L 244.371069 66.790109 
L 245.184332 66.147103 
L 245.997595 63.052582 
L 246.810858 112.824001 
L 247.624121 90.974115 
L 248.437384 77.8275 
L 249.250647 78.810815 
L 250.06391 66.096009 
L 250.877173 63.580235 
L 251.690435 64.970536 
L 252.503698 58.917446 
L 253.316961 61.91999 
L 254.130224 59.150769 
L 254.943487 82.079991 
L 255.75675 78.665801 
L 256.570013 86.593424 
L 257.383276 81.628652 
L 258.196539 68.898461 
L 259.009801 66.302605 
L 259.823064 67.133788 
L 260.636327 62.928009 
L 261.44959 72.848849 
L 262.262853 62.928009 
L 263.076116 88.2225 
L 263.889379 99.359997 
L 264.702642 78.665801 
L 265.515905 68.682526 
L 266.329167 65.145607 
L 267.14243 60.155992 
L 267.955693 72.122927 
L 268.768956 60.261273 
L 269.582219 66.960005 
L 270.395482 58.492794 
L 271.208745 85.104008 
L 272.022008 78.665801 
L 272.835271 77.427691 
L 273.648533 70.580276 
L 274.461796 56.104625 
L 275.275059 79.233881 
L 276.088322 59.486894 
L 277.714848 59.071303 
L 278.528111 63.310351 
L 279.341374 100.918034 
L 280.154637 96.522987 
L 280.967899 93.946325 
L 281.781162 64.970536 
L 282.594425 68.266657 
L 283.407688 68.472004 
L 284.220951 59.071303 
L 285.034214 68.682526 
L 285.847477 66.790109 
L 286.66074 58.426929 
L 287.474003 87.662767 
L 288.287265 68.472004 
L 289.100528 72.000001 
L 289.913791 69.82055 
L 290.727054 66.302605 
L 291.540317 69.82055 
L 292.35358 76.480005 
L 293.166843 60.155992 
L 293.980106 56.335132 
L 294.793369 73.072338 
L 295.606631 79.559993 
L 296.419894 82.079991 
L 297.233157 70.580276 
L 298.04642 56.879995 
L 298.859683 64.314008 
L 299.672946 77.427691 
L 300.486209 73.072338 
L 301.299472 55.663457 
L 302.112735 69.533615 
L 302.925997 68.986393 
L 303.73926 90.406947 
L 304.552523 62.746236 
L 305.365786 70.580276 
L 306.179049 68.898461 
L 306.992312 59.486894 
L 307.805575 70.320009 
L 308.618838 72.893162 
L 309.432101 70.320009 
L 310.245363 73.533908 
L 311.058626 67.679999 
L 311.871889 89.497349 
L 312.685152 94.005627 
L 313.498415 66.302605 
L 314.311678 64.633855 
L 315.124941 79.559993 
L 315.938204 67.133788 
L 316.751467 73.440008 
L 317.564729 69.347361 
L 318.377992 66.790109 
L 319.191255 73.300645 
L 320.004518 91.986199 
L 320.817781 75.183148 
L 321.631044 62.235 
L 322.444307 65.325397 
L 323.25757 88.293698 
L 324.070833 68.682526 
L 324.884095 59.953163 
L 325.697358 55.663457 
L 326.510621 68.472004 
L 327.323884 64.314008 
L 328.137147 72.310153 
L 328.95041 62.928009 
L 329.763673 77.760009 
L 330.576936 68.682526 
L 331.390199 56.104625 
L 332.203461 67.679999 
L 333.016724 75.886269 
L 333.829987 62.686954 
L 334.64325 69.580803 
L 335.456513 62.127836 
L 336.269776 82.079991 
L 337.083039 94.608007 
L 337.896302 67.679999 
L 338.709565 65.325397 
L 339.522827 68.898461 
L 340.33609 65.325397 
L 341.149353 72.63 
L 341.962616 67.870853 
L 342.775879 70.116922 
L 343.589142 69.580803 
L 344.402405 84.030977 
L 345.215668 95.865885 
L 346.028931 66.515288 
L 346.842193 83.305947 
L 347.655456 74.315682 
L 348.468719 89.735688 
L 349.281982 73.300645 
L 350.908508 62.928009 
L 351.721771 51.84 
L 352.535034 82.545229 
L 353.348297 86.593424 
L 354.161559 56.879995 
L 354.974822 78.810815 
L 355.788085 70.847999 
L 356.601348 64.314008 
L 357.414611 77.427691 
L 358.227874 63.580235 
L 359.041137 62.022852 
L 359.8544 56.104625 
L 360.667663 79.105581 
L 361.480925 75.183148 
L 362.294188 66.734336 
L 363.107451 66.515288 
L 363.920714 62.235 
L 364.733977 60.480003 
L 365.54724 62.928009 
L 366.360503 67.679999 
L 367.173766 67.870853 
L 367.987029 78.994293 
L 368.800291 93.42 
L 369.613554 82.545229 
L 370.426817 73.724206 
L 371.24008 73.724206 
L 372.053343 69.82055 
L 372.866606 75.320469 
L 373.679869 66.302605 
L 374.493132 70.320009 
L 375.306395 64.800005 
L 376.119657 55.707909 
L 376.93292 93.42 
L 377.746183 80.351998 
L 378.559446 100.048704 
L 379.372709 72.310153 
L 380.185972 73.440008 
L 380.999235 80.351998 
L 381.812498 66.096009 
L 382.625761 60.830265 
L 383.439024 85.860007 
L 384.252286 55.847708 
L 385.065549 79.180269 
L 385.878812 66.096009 
L 386.692075 68.199345 
L 387.505338 73.440008 
L 388.318601 60.830265 
L 389.131864 64.314008 
L 389.945127 73.163086 
L 390.75839 56.216845 
L 391.571652 56.104625 
L 392.384915 64.633855 
L 393.198178 79.559993 
L 394.011441 78.239998 
L 394.824704 67.935488 
L 395.637967 60.830265 
L 396.45123 56.275196 
L 397.264493 68.682526 
L 398.077756 63.863125 
L 398.891018 56.216845 
L 399.704281 71.640004 
L 400.517544 66.623999 
L 401.330807 90.974115 
L 402.14407 88.799998 
L 402.957333 77.92941 
L 403.770596 81.190596 
L 404.583859 74.015999 
L 405.397122 75.944342 
L 406.210384 79.559993 
L 407.023647 71.640004 
L 407.83691 66.461538 
L 408.650173 65.325397 
L 409.463436 74.015999 
L 410.276699 69.045517 
L 411.089962 86.399993 
L 411.903225 75.26535 
L 412.716488 82.88639 
L 413.52975 81.314435 
L 414.343013 64.970536 
L 415.156276 67.493646 
L 415.969539 63.719994 
L 416.782802 64.159993 
L 417.596065 88.2225 
L 418.409328 80.945992 
L 419.222591 92.850413 
L 420.035854 57.293108 
L 420.849116 66.515288 
L 421.662379 71.407058 
L 422.475642 74.015999 
L 423.288905 77.103799 
L 424.102168 60.36923 
L 424.915431 67.870853 
L 425.728694 74.015999 
L 426.541957 84.030977 
L 427.35522 84.558689 
L 429.795008 65.510144 
L 431.421534 64.009764 
L 432.234797 56.335132 
L 433.04806 67.870853 
L 433.861323 70.580276 
L 434.674586 67.679999 
L 435.487848 90.406947 
L 436.301111 62.399999 
L 437.114374 79.950424 
L 437.927637 68.066346 
L 438.7409 76.480005 
L 439.554163 71.699108 
L 440.367426 78.665801 
L 441.180689 68.898461 
L 441.993952 66.734336 
L 442.807214 81.190596 
L 443.620477 79.559993 
L 444.43374 84.635499 
L 445.247003 75.600008 
L 446.060266 56.59201 
L 446.873529 69.580803 
L 448.500055 75.600008 
L 449.313318 56.335132 
L 450.12658 98.6175 
L 450.939843 92.160001 
L 451.753106 72.63 
L 452.566369 83.025 
L 453.379632 56.879995 
L 454.192895 77.427691 
L 455.006158 70.320009 
L 455.819421 61.91999 
L 456.632684 64.633855 
L 457.445946 70.066859 
L 458.259209 92.780305 
L 459.072472 83.025 
L 459.885735 70.847999 
L 460.698998 84.179996 
L 461.512261 83.305947 
L 463.138787 74.623554 
L 463.95205 65.145607 
L 464.765312 73.724206 
L 466.391838 79.559993 
L 467.205101 77.427691 
L 468.018364 70.320009 
L 468.831627 80.351998 
L 469.64489 84.693334 
L 470.458153 66.960005 
L 471.271416 70.847999 
L 472.084678 69.120006 
L 472.897941 90.406947 
L 473.711204 56.160002 
L 474.524467 105.491621 
L 475.33773 89.396133 
L 476.150993 83.736984 
L 476.964256 84.635499 
L 477.777519 68.753903 
L 478.590782 61.210148 
L 479.404044 70.066859 
L 480.217307 66.302605 
L 481.03057 60.710392 
L 481.843833 64.633855 
L 482.657096 82.079991 
L 483.470359 80.945992 
L 484.283622 66.302605 
L 485.096885 69.82055 
L 485.910148 82.477897 
L 486.72341 67.935488 
L 487.536673 90.974115 
L 488.349936 64.159993 
L 489.163199 73.724206 
L 489.976462 62.235 
L 490.789725 67.679999 
L 491.602988 74.015999 
L 492.416251 82.477897 
L 493.229514 71.699108 
L 494.042776 65.325397 
L 494.856039 73.724206 
L 495.669302 70.847999 
L 496.482565 51.84 
L 497.295828 71.123474 
L 498.109091 70.066859 
L 498.109091 70.066859 
" clip-path="url(#pfefe4b5455)" style="fill: none; stroke: #0000ff; stroke-width: 1.5; stroke-linecap: square"/>
   </g>
   <g id="line2d_14">
    <path d="M 92.290909 252.179997 
L 93.104172 237.060002 
L 93.917435 299.430002 
L 94.730698 325.890001 
L 95.543961 322.11 
L 96.357224 339.119999 
L 97.170486 325.890001 
L 97.983749 329.669998 
L 98.797012 327.78 
L 99.610275 329.669998 
L 100.423538 329.669998 
L 101.236801 322.11 
L 102.050064 329.669998 
L 102.863327 339.119999 
L 103.67659 333.449999 
L 104.489852 341.010002 
L 105.303115 331.560001 
L 106.116378 335.340002 
L 106.929641 337.23 
L 107.742904 329.669998 
L 108.556167 337.23 
L 109.36943 327.78 
L 110.182693 329.669998 
L 110.995956 327.78 
L 111.809218 329.669998 
L 113.435744 318.329999 
L 114.249007 323.999998 
L 115.06227 316.44 
L 115.875533 306.99 
L 116.688796 335.340002 
L 118.315322 327.78 
L 119.128584 331.560001 
L 119.941847 325.890001 
L 120.75511 323.999998 
L 121.568373 312.659999 
L 122.381636 303.209998 
L 123.194899 295.649995 
L 124.008162 286.200005 
L 124.821425 331.560001 
L 126.44795 316.44 
L 127.261213 316.44 
L 128.074476 314.550002 
L 128.887739 303.209998 
L 129.701002 286.200005 
L 130.514265 282.419998 
L 132.140791 267.300003 
L 132.954054 325.890001 
L 133.767316 323.999998 
L 134.580579 312.659999 
L 135.393842 314.550002 
L 136.207105 295.649995 
L 137.020368 286.200005 
L 137.833631 289.980001 
L 138.646894 263.519996 
L 139.460157 254.069995 
L 140.27342 233.279995 
L 141.086682 322.11 
L 141.899945 323.999998 
L 142.713208 306.99 
L 143.526471 305.100001 
L 144.339734 286.200005 
L 145.152997 263.519996 
L 145.96626 248.400001 
L 146.779523 242.729996 
L 147.592786 214.380004 
L 148.406048 227.610001 
L 149.219311 325.890001 
L 150.032574 320.220002 
L 150.845837 291.869999 
L 151.6591 278.640002 
L 152.472363 263.519996 
L 153.285626 220.049998 
L 154.098889 233.279995 
L 154.912152 235.170004 
L 155.725414 208.710009 
L 156.538677 189.810007 
L 157.35194 314.550002 
L 158.165203 303.209998 
L 159.791729 291.869999 
L 160.604992 244.620005 
L 163.04478 216.270002 
L 163.858043 191.700005 
L 164.671306 197.37 
L 165.484569 306.99 
L 166.297832 308.879998 
L 167.111095 278.640002 
L 167.924358 254.069995 
L 168.737621 214.380004 
L 169.550884 216.270002 
L 170.364146 187.920009 
L 171.177409 184.139993 
L 171.990672 187.920009 
L 172.803935 174.690002 
L 173.617198 316.44 
L 174.430461 299.430002 
L 176.056987 280.53 
L 176.87025 272.969997 
L 178.496775 233.279995 
L 179.310038 250.289999 
L 180.123301 216.270002 
L 180.936564 195.480002 
L 181.749827 299.430002 
L 182.56309 301.32 
L 183.376353 288.090003 
L 184.189616 280.53 
L 185.002878 267.300003 
L 185.816141 248.400001 
L 187.442667 248.400001 
L 188.25593 250.289999 
L 189.069193 223.830005 
L 189.882456 305.100001 
L 190.695719 284.309996 
L 191.508982 282.419998 
L 192.322244 263.519996 
L 193.135507 238.95 
L 194.762033 250.289999 
L 195.575296 220.049998 
L 196.388559 204.929993 
L 197.201822 223.830005 
L 198.015085 301.32 
L 199.64161 269.190001 
L 200.454873 271.079999 
L 201.268136 231.389997 
L 202.081399 238.95 
L 202.894662 225.720003 
L 203.707925 223.830005 
L 204.521188 204.929993 
L 205.334451 240.839998 
L 206.147714 293.759997 
L 206.960976 280.53 
L 207.774239 278.640002 
L 208.587502 257.850002 
L 209.400765 227.610001 
L 210.214028 255.960004 
L 211.027291 220.049998 
L 211.840554 195.480002 
L 212.653817 201.149996 
L 213.46708 218.16 
L 214.280343 293.759997 
L 215.093605 295.649995 
L 215.906868 269.190001 
L 216.720131 265.410005 
L 217.533394 254.069995 
L 218.346657 237.060002 
L 219.15992 233.279995 
L 219.973183 225.720003 
L 220.786446 229.499999 
L 221.599709 201.149996 
L 222.412971 301.32 
L 223.226234 267.300003 
L 224.039497 274.859995 
L 224.85276 257.850002 
L 225.666023 246.510003 
L 226.479286 212.490005 
L 227.292549 221.939996 
L 228.105812 229.499999 
L 228.919075 201.149996 
L 229.732337 231.389997 
L 230.5456 288.090003 
L 231.358863 280.53 
L 232.172126 263.519996 
L 232.985389 259.74 
L 233.798652 252.179997 
L 234.611915 231.389997 
L 235.425178 235.170004 
L 236.238441 225.720003 
L 237.051703 240.839998 
L 237.864966 208.710009 
L 238.678229 284.309996 
L 239.491492 280.53 
L 240.304755 271.079999 
L 241.118018 254.069995 
L 241.931281 244.620005 
L 242.744544 231.389997 
L 243.557807 212.490005 
L 244.371069 223.830005 
L 245.184332 216.270002 
L 245.997595 221.939996 
L 246.810858 291.869999 
L 247.624121 271.079999 
L 248.437384 272.969997 
L 249.250647 255.960004 
L 250.06391 257.850002 
L 250.877173 229.499999 
L 251.690435 246.510003 
L 252.503698 210.600007 
L 253.316961 203.039995 
L 254.130224 216.270002 
L 254.943487 289.980001 
L 255.75675 276.750004 
L 256.570013 271.079999 
L 257.383276 269.190001 
L 259.009801 218.16 
L 259.823064 227.610001 
L 260.636327 220.049998 
L 261.44959 216.270002 
L 262.262853 220.049998 
L 263.076116 276.750004 
L 263.889379 293.759997 
L 264.702642 276.750004 
L 265.515905 242.729996 
L 266.329167 248.400001 
L 267.14243 237.060002 
L 267.955693 238.95 
L 268.768956 238.95 
L 269.582219 225.720003 
L 270.395482 199.259998 
L 271.208745 282.419998 
L 272.835271 271.079999 
L 273.648533 257.850002 
L 274.461796 238.95 
L 275.275059 237.060002 
L 276.088322 223.830005 
L 276.901585 220.049998 
L 277.714848 214.380004 
L 278.528111 225.720003 
L 279.341374 286.200005 
L 280.154637 274.859995 
L 280.967899 254.069995 
L 282.594425 238.95 
L 283.407688 240.839998 
L 284.220951 214.380004 
L 285.034214 242.729996 
L 285.847477 223.830005 
L 286.66074 197.37 
L 287.474003 274.859995 
L 288.287265 276.750004 
L 289.100528 267.300003 
L 289.913791 252.179997 
L 290.727054 259.74 
L 291.540317 252.179997 
L 292.35358 242.729996 
L 293.166843 237.060002 
L 293.980106 246.510003 
L 294.793369 218.16 
L 295.606631 280.53 
L 296.419894 271.079999 
L 297.233157 257.850002 
L 298.04642 261.629998 
L 298.859683 238.95 
L 299.672946 248.400001 
L 300.486209 218.16 
L 301.299472 221.939996 
L 302.925997 210.600007 
L 303.73926 269.190001 
L 304.552523 272.969997 
L 306.179049 244.620005 
L 306.992312 223.830005 
L 307.805575 255.960004 
L 308.618838 244.620005 
L 309.432101 223.830005 
L 310.245363 221.939996 
L 311.058626 233.279995 
L 311.871889 295.649995 
L 312.685152 267.300003 
L 313.498415 259.74 
L 314.311678 242.729996 
L 315.124941 238.95 
L 315.938204 227.610001 
L 316.751467 248.400001 
L 317.564729 248.400001 
L 318.377992 223.830005 
L 319.191255 220.049998 
L 320.004518 288.090003 
L 320.817781 284.309996 
L 322.444307 250.289999 
L 323.25757 261.629998 
L 324.070833 242.729996 
L 324.884095 233.279995 
L 325.697358 221.939996 
L 326.510621 240.839998 
L 327.323884 238.95 
L 328.137147 269.190001 
L 328.95041 274.859995 
L 329.763673 250.289999 
L 330.576936 242.729996 
L 331.390199 238.95 
L 332.203461 233.279995 
L 333.016724 238.95 
L 333.829987 216.270002 
L 334.64325 250.289999 
L 335.456513 206.819991 
L 336.269776 271.079999 
L 337.083039 269.190001 
L 337.896302 271.079999 
L 338.709565 250.289999 
L 339.522827 244.620005 
L 340.33609 250.289999 
L 341.962616 235.170004 
L 342.775879 221.939996 
L 344.402405 278.640002 
L 345.215668 272.969997 
L 346.028931 261.629998 
L 347.655456 254.069995 
L 348.468719 252.179997 
L 349.281982 220.049998 
L 350.095245 237.060002 
L 350.908508 220.049998 
L 352.535034 272.969997 
L 353.348297 271.079999 
L 354.161559 261.629998 
L 354.974822 255.960004 
L 355.788085 259.74 
L 356.601348 238.95 
L 357.414611 248.400001 
L 358.227874 229.499999 
L 359.041137 204.929993 
L 359.8544 238.95 
L 360.667663 278.640002 
L 361.480925 284.309996 
L 362.294188 263.519996 
L 363.107451 261.629998 
L 363.920714 267.300003 
L 365.54724 220.049998 
L 366.360503 233.279995 
L 367.173766 235.170004 
L 367.987029 214.380004 
L 368.800291 278.640002 
L 369.613554 272.969997 
L 370.426817 250.289999 
L 371.24008 250.289999 
L 372.053343 252.179997 
L 373.679869 218.16 
L 374.493132 255.960004 
L 375.306395 244.620005 
L 376.119657 223.830005 
L 376.93292 265.410005 
L 377.746183 263.519996 
L 378.559446 272.969997 
L 379.372709 269.190001 
L 380.185972 248.400001 
L 380.999235 263.519996 
L 381.812498 257.850002 
L 382.625761 248.400001 
L 383.439024 235.170004 
L 384.252286 229.499999 
L 385.065549 257.850002 
L 385.878812 257.850002 
L 386.692075 274.859995 
L 387.505338 248.400001 
L 388.318601 248.400001 
L 389.131864 238.95 
L 389.945127 246.510003 
L 391.571652 238.95 
L 392.384915 242.729996 
L 393.198178 280.53 
L 394.011441 274.859995 
L 394.824704 272.969997 
L 395.637967 248.400001 
L 396.45123 244.620005 
L 397.264493 242.729996 
L 398.077756 233.279995 
L 398.891018 242.729996 
L 399.704281 235.170004 
L 400.517544 221.939996 
L 401.330807 271.079999 
L 402.14407 263.519996 
L 402.957333 295.649995 
L 403.770596 267.300003 
L 404.583859 252.179997 
L 405.397122 263.519996 
L 406.210384 238.95 
L 407.023647 235.170004 
L 407.83691 220.049998 
L 409.463436 278.640002 
L 410.276699 280.53 
L 411.089962 254.069995 
L 411.903225 259.74 
L 412.716488 255.960004 
L 413.52975 248.400001 
L 414.343013 246.510003 
L 415.156276 231.389997 
L 415.969539 231.389997 
L 416.782802 237.060002 
L 417.596065 276.750004 
L 418.409328 246.510003 
L 419.222591 263.519996 
L 420.035854 271.079999 
L 420.849116 261.629998 
L 421.662379 233.279995 
L 422.475642 252.179997 
L 424.915431 235.170004 
L 425.728694 278.640002 
L 426.541957 278.640002 
L 427.35522 280.53 
L 428.168482 254.069995 
L 428.981745 269.190001 
L 429.795008 252.179997 
L 430.608271 244.620005 
L 431.421534 235.170004 
L 432.234797 246.510003 
L 433.04806 235.170004 
L 433.861323 257.850002 
L 434.674586 271.079999 
L 435.487848 269.190001 
L 436.301111 269.190001 
L 437.114374 261.629998 
L 437.927637 237.060002 
L 438.7409 242.729996 
L 439.554163 265.410005 
L 440.367426 276.750004 
L 441.180689 244.620005 
L 441.993952 263.519996 
L 442.807214 267.300003 
L 443.620477 280.53 
L 444.43374 263.519996 
L 445.247003 261.629998 
L 446.060266 254.069995 
L 446.873529 250.289999 
L 447.686792 271.079999 
L 448.500055 237.060002 
L 449.313318 246.510003 
L 450.12658 280.53 
L 450.939843 274.859995 
L 451.753106 271.079999 
L 452.566369 274.859995 
L 453.379632 261.629998 
L 454.192895 271.079999 
L 455.006158 255.960004 
L 455.819421 263.519996 
L 456.632684 242.729996 
L 457.445946 254.069995 
L 458.259209 276.750004 
L 459.072472 274.859995 
L 459.885735 259.74 
L 460.698998 261.629998 
L 461.512261 257.850002 
L 462.325524 255.960004 
L 463.138787 255.960004 
L 463.95205 248.400001 
L 464.765312 250.289999 
L 465.578575 244.620005 
L 466.391838 259.74 
L 467.205101 271.079999 
L 468.018364 255.960004 
L 468.831627 263.519996 
L 469.64489 246.510003 
L 470.458153 265.410005 
L 471.271416 259.74 
L 472.084678 246.510003 
L 472.897941 269.190001 
L 473.711204 240.839998 
L 474.524467 286.200005 
L 475.33773 280.53 
L 476.150993 259.74 
L 476.964256 263.519996 
L 477.777519 278.640002 
L 478.590782 254.069995 
L 479.404044 254.069995 
L 480.217307 259.74 
L 481.03057 246.510003 
L 481.843833 242.729996 
L 482.657096 271.079999 
L 483.470359 246.510003 
L 484.283622 259.74 
L 485.096885 252.179997 
L 485.910148 254.069995 
L 486.72341 272.969997 
L 487.536673 271.079999 
L 488.349936 237.060002 
L 489.163199 250.289999 
L 489.976462 267.300003 
L 490.789725 271.079999 
L 491.602988 252.179997 
L 492.416251 254.069995 
L 493.229514 265.410005 
L 494.042776 250.289999 
L 494.856039 250.289999 
L 495.669302 259.74 
L 496.482565 261.629998 
L 497.295828 261.629998 
L 498.109091 254.069995 
L 498.109091 254.069995 
" clip-path="url(#pfefe4b5455)" style="fill: none; stroke: #008000; stroke-width: 1.5; stroke-linecap: square"/>
   </g>
   <g id="patch_3">
    <path d="M 72 384.48 
L 72 51.84 
" style="fill: none; stroke: #000000; stroke-width: 0.8; stroke-linejoin: miter; stroke-linecap: square"/>
   </g>
   <g id="patch_4">
    <path d="M 518.4 384.48 
L 518.4 51.84 
" style="fill: none; stroke: #000000; stroke-width: 0.8; stroke-linejoin: miter; stroke-linecap: square"/>
   </g>
   <g id="patch_5">
    <path d="M 72 384.48 
L 518.4 384.48 
" style="fill: none; stroke: #000000; stroke-width: 0.8; stroke-linejoin: miter; stroke-linecap: square"/>
   </g>
   <g id="patch_6">
    <path d="M 72 51.84 
L 518.4 51.84 
" style="fill: none; stroke: #000000; stroke-width: 0.8; stroke-linejoin: miter; stroke-linecap: square"/>
   </g>
   <g id="legend_1">
    <g id="patch_7">
     <path d="M 79 89.19625 
L 156.107812 89.19625 
Q 158.107812 89.19625 158.107812 87.19625 
L 158.107812 58.84 
Q 158.107812 56.84 156.107812 56.84 
L 79 56.84 
Q 77 56.84 77 58.84 
L 77 87.19625 
Q 77 89.19625 79 89.19625 
z
" style="fill: #ffffff; opacity: 0.8; stroke: #cccccc; stroke-linejoin: miter"/>
    </g>
    <g id="line2d_15">
     <path d="M 81 64.938437 
L 91 64.938437 
L 101 64.938437 
" style="fill: none; stroke: #0000ff; stroke-width: 1.5; stroke-linecap: square"/>
    </g>
    <g id="text_15">
     <!-- precision -->
     <g transform="translate(109 68.438437) scale(0.1 -0.1)">
      <defs>
       <path id="DejaVuSans-69" d="M 603 3500 
L 1178 3500 
L 1178 0 
L 603 0 
L 603 3500 
z
M 603 4863 
L 1178 4863 
L 1178 4134 
L 603 4134 
L 603 4863 
z
" transform="scale(0.015625)"/>
       <path id="DejaVuSans-73" d="M 2834 3397 
L 2834 2853 
Q 2591 2978 2328 3040 
Q 2066 3103 1784 3103 
Q 1356 3103 1142 2972 
Q 928 2841 928 2578 
Q 928 2378 1081 2264 
Q 1234 2150 1697 2047 
L 1894 2003 
Q 2506 1872 2764 1633 
Q 3022 1394 3022 966 
Q 3022 478 2636 193 
Q 2250 -91 1575 -91 
Q 1294 -91 989 -36 
Q 684 19 347 128 
L 347 722 
Q 666 556 975 473 
Q 1284 391 1588 391 
Q 1994 391 2212 530 
Q 2431 669 2431 922 
Q 2431 1156 2273 1281 
Q 2116 1406 1581 1522 
L 1381 1569 
Q 847 1681 609 1914 
Q 372 2147 372 2553 
Q 372 3047 722 3315 
Q 1072 3584 1716 3584 
Q 2034 3584 2315 3537 
Q 2597 3491 2834 3397 
z
" transform="scale(0.015625)"/>
       <path id="DejaVuSans-6e" d="M 3513 2113 
L 3513 0 
L 2938 0 
L 2938 2094 
Q 2938 2591 2744 2837 
Q 2550 3084 2163 3084 
Q 1697 3084 1428 2787 
Q 1159 2491 1159 1978 
L 1159 0 
L 581 0 
L 581 3500 
L 1159 3500 
L 1159 2956 
Q 1366 3272 1645 3428 
Q 1925 3584 2291 3584 
Q 2894 3584 3203 3211 
Q 3513 2838 3513 2113 
z
" transform="scale(0.015625)"/>
      </defs>
      <use xlink:href="#DejaVuSans-70"/>
      <use xlink:href="#DejaVuSans-72" x="63.476562"/>
      <use xlink:href="#DejaVuSans-65" x="102.339844"/>
      <use xlink:href="#DejaVuSans-63" x="163.863281"/>
      <use xlink:href="#DejaVuSans-69" x="218.84375"/>
      <use xlink:href="#DejaVuSans-73" x="246.626953"/>
      <use xlink:href="#DejaVuSans-69" x="298.726562"/>
      <use xlink:href="#DejaVuSans-6f" x="326.509766"/>
      <use xlink:href="#DejaVuSans-6e" x="387.691406"/>
     </g>
    </g>
    <g id="line2d_16">
     <path d="M 81 79.616562 
L 91 79.616562 
L 101 79.616562 
" style="fill: none; stroke: #008000; stroke-width: 1.5; stroke-linecap: square"/>
    </g>
    <g id="text_16">
     <!-- recall -->
     <g transform="translate(109 83.116562) scale(0.1 -0.1)">
      <defs>
       <path id="DejaVuSans-6c" d="M 603 4863 
L 1178 4863 
L 1178 0 
L 603 0 
L 603 4863 
z
" transform="scale(0.015625)"/>
      </defs>
      <use xlink:href="#DejaVuSans-72"/>
      <use xlink:href="#DejaVuSans-65" x="38.863281"/>
      <use xlink:href="#DejaVuSans-63" x="100.386719"/>
      <use xlink:href="#DejaVuSans-61" x="155.367188"/>
      <use xlink:href="#DejaVuSans-6c" x="216.646484"/>
      <use xlink:href="#DejaVuSans-6c" x="244.429688"/>
     </g>
    </g>
   </g>
  </g>
  <g id="axes_2">
   <g id="matplotlib.axis_3">
    <g id="ytick_7">
     <g id="line2d_17">
      <defs>
       <path id="mf9cc95dac1" d="M 0 0 
L 3.5 0 
" style="stroke: #000000; stroke-width: 0.8"/>
      </defs>
      <g>
       <use xlink:href="#mf9cc95dac1" x="518.4" y="337.706174" style="stroke: #000000; stroke-width: 0.8"/>
      </g>
     </g>
     <g id="text_17">
      <!-- 0.2 -->
      <g transform="translate(525.4 341.505393) scale(0.1 -0.1)">
       <use xlink:href="#DejaVuSans-30"/>
       <use xlink:href="#DejaVuSans-2e" x="63.623047"/>
       <use xlink:href="#DejaVuSans-32" x="95.410156"/>
      </g>
     </g>
    </g>
    <g id="ytick_8">
     <g id="line2d_18">
      <g>
       <use xlink:href="#mf9cc95dac1" x="518.4" y="264.560872" style="stroke: #000000; stroke-width: 0.8"/>
      </g>
     </g>
     <g id="text_18">
      <!-- 0.4 -->
      <g transform="translate(525.4 268.360091) scale(0.1 -0.1)">
       <use xlink:href="#DejaVuSans-30"/>
       <use xlink:href="#DejaVuSans-2e" x="63.623047"/>
       <use xlink:href="#DejaVuSans-34" x="95.410156"/>
      </g>
     </g>
    </g>
    <g id="ytick_9">
     <g id="line2d_19">
      <g>
       <use xlink:href="#mf9cc95dac1" x="518.4" y="191.415571" style="stroke: #000000; stroke-width: 0.8"/>
      </g>
     </g>
     <g id="text_19">
      <!-- 0.6 -->
      <g transform="translate(525.4 195.21479) scale(0.1 -0.1)">
       <use xlink:href="#DejaVuSans-30"/>
       <use xlink:href="#DejaVuSans-2e" x="63.623047"/>
       <use xlink:href="#DejaVuSans-36" x="95.410156"/>
      </g>
     </g>
    </g>
    <g id="ytick_10">
     <g id="line2d_20">
      <g>
       <use xlink:href="#mf9cc95dac1" x="518.4" y="118.270269" style="stroke: #000000; stroke-width: 0.8"/>
      </g>
     </g>
     <g id="text_20">
      <!-- 0.8 -->
      <g transform="translate(525.4 122.069488) scale(0.1 -0.1)">
       <use xlink:href="#DejaVuSans-30"/>
       <use xlink:href="#DejaVuSans-2e" x="63.623047"/>
       <use xlink:href="#DejaVuSans-38" x="95.410156"/>
      </g>
     </g>
    </g>
    <g id="text_21">
     <!-- loss -->
     <g transform="translate(552.901563 227.817812) rotate(-90) scale(0.1 -0.1)">
      <use xlink:href="#DejaVuSans-6c"/>
      <use xlink:href="#DejaVuSans-6f" x="27.783203"/>
      <use xlink:href="#DejaVuSans-73" x="88.964844"/>
      <use xlink:href="#DejaVuSans-73" x="141.064453"/>
     </g>
    </g>
   </g>
   <g id="line2d_21">
    <path d="M 92.290909 66.96 
L 93.104172 129.615336 
L 93.917435 208.96938 
L 94.730698 273.880215 
L 95.543961 307.124799 
L 96.357224 321.599067 
L 97.170486 327.378151 
L 97.983749 327.461352 
L 98.797012 327.092159 
L 99.610275 325.511579 
L 100.423538 329.122452 
L 101.236801 327.633095 
L 102.050064 327.335795 
L 102.863327 326.583806 
L 103.67659 328.131028 
L 104.489852 328.675464 
L 105.303115 329.424641 
L 106.116378 331.670864 
L 106.929641 332.487384 
L 107.742904 334.51729 
L 108.556167 323.035016 
L 109.36943 327.003949 
L 110.182693 330.063951 
L 111.809218 337.363929 
L 113.435744 342.803809 
L 114.249007 345.227879 
L 115.06227 346.824427 
L 115.875533 350.668484 
L 116.688796 333.145888 
L 117.502059 337.234911 
L 118.315322 342.615171 
L 119.128584 345.639537 
L 119.941847 348.134405 
L 120.75511 351.671352 
L 122.381636 355.041734 
L 123.194899 355.18916 
L 124.008162 355.939493 
L 124.821425 341.070559 
L 125.634688 345.254812 
L 126.44795 350.201353 
L 127.261213 351.279532 
L 128.074476 354.639074 
L 128.887739 355.789728 
L 129.701002 358.796442 
L 130.514265 357.838594 
L 131.327528 360.065248 
L 132.140791 359.836592 
L 132.954054 347.25317 
L 133.767316 349.247549 
L 134.580579 353.338398 
L 135.393842 356.623436 
L 136.207105 357.605405 
L 137.020368 360.696405 
L 137.833631 360.133451 
L 138.646894 360.006946 
L 139.460157 362.44348 
L 140.27342 363.561262 
L 141.086682 350.740453 
L 141.899945 352.781199 
L 143.526471 358.710816 
L 144.339734 361.208534 
L 145.152997 362.735772 
L 145.96626 363.817095 
L 146.779523 363.333517 
L 147.592786 364.506499 
L 148.406048 365.214918 
L 149.219311 350.919053 
L 150.032574 355.366266 
L 151.6591 361.058628 
L 152.472363 362.025403 
L 153.285626 364.976796 
L 154.098889 364.345966 
L 154.912152 364.281179 
L 155.725414 364.833228 
L 156.538677 368.27617 
L 157.35194 353.684299 
L 158.165203 357.170297 
L 158.978466 359.028029 
L 159.791729 359.875449 
L 160.604992 365.037457 
L 161.418255 364.719388 
L 162.231518 366.282671 
L 163.04478 366.695715 
L 163.858043 367.801767 
L 164.671306 366.767906 
L 165.484569 354.563747 
L 166.297832 358.193291 
L 167.924358 364.741852 
L 168.737621 365.997556 
L 169.550884 366.576461 
L 170.364146 368.333777 
L 171.177409 368.621006 
L 171.990672 368.672615 
L 172.803935 369.36 
L 173.617198 355.334396 
L 174.430461 359.024618 
L 175.243724 360.046599 
L 176.056987 362.220199 
L 176.87025 363.197208 
L 177.683512 365.02452 
L 178.496775 363.983176 
L 179.310038 363.494432 
L 180.123301 366.085052 
L 180.936564 368.137321 
L 181.749827 356.151619 
L 182.56309 357.368962 
L 183.376353 360.205028 
L 184.189616 361.155623 
L 185.002878 361.56516 
L 185.816141 364.290204 
L 186.629404 362.199261 
L 187.442667 363.851537 
L 188.25593 365.102887 
L 189.069193 365.986526 
L 189.882456 356.812292 
L 191.508982 361.566708 
L 192.322244 361.913547 
L 193.135507 364.406834 
L 193.94877 364.501387 
L 194.762033 363.783187 
L 196.388559 368.023441 
L 197.201822 365.21943 
L 198.015085 357.065155 
L 198.828348 358.406213 
L 199.64161 362.808537 
L 200.454873 362.276424 
L 201.268136 365.465208 
L 202.081399 364.704325 
L 202.894662 365.228776 
L 203.707925 365.26681 
L 204.521188 366.851494 
L 205.334451 365.409967 
L 206.147714 357.976969 
L 206.960976 359.197206 
L 207.774239 361.433375 
L 209.400765 364.82707 
L 210.214028 363.668377 
L 211.027291 365.083868 
L 211.840554 367.657773 
L 212.653817 367.525246 
L 213.46708 366.581759 
L 214.280343 357.927529 
L 215.093605 358.96309 
L 215.906868 360.806746 
L 216.720131 363.527435 
L 218.346657 364.455228 
L 219.15992 366.190229 
L 219.973183 366.558232 
L 220.786446 366.346964 
L 221.599709 367.587074 
L 222.412971 357.940946 
L 223.226234 361.601679 
L 224.039497 362.271601 
L 224.85276 363.583399 
L 225.666023 364.567226 
L 226.479286 366.069596 
L 227.292549 366.648589 
L 228.105812 365.434891 
L 228.919075 367.756959 
L 229.732337 365.867743 
L 230.5456 358.939504 
L 231.358863 360.436561 
L 232.172126 362.335096 
L 232.985389 363.706291 
L 233.798652 361.91431 
L 234.611915 365.481945 
L 235.425178 364.724816 
L 236.238441 366.625852 
L 237.051703 365.315411 
L 237.864966 366.432182 
L 238.678229 357.843145 
L 239.491492 361.746675 
L 240.304755 362.031081 
L 241.118018 363.730684 
L 241.931281 364.030295 
L 242.744544 366.011655 
L 243.557807 366.631735 
L 244.371069 365.063518 
L 245.184332 367.012027 
L 245.997595 365.62063 
L 246.810858 358.103316 
L 247.624121 359.48595 
L 248.437384 361.215112 
L 249.250647 364.388676 
L 250.06391 363.76166 
L 250.877173 365.073856 
L 251.690435 363.980304 
L 252.503698 366.170757 
L 253.316961 367.398175 
L 254.130224 367.030987 
L 254.943487 359.040531 
L 255.75675 359.79445 
L 256.570013 360.942826 
L 257.383276 362.323379 
L 258.196539 365.16696 
L 259.009801 365.514221 
L 259.823064 365.433237 
L 260.636327 364.745798 
L 262.262853 368.116416 
L 263.076116 359.75689 
L 263.889379 360.132334 
L 265.515905 363.339686 
L 266.329167 364.119387 
L 267.14243 366.078992 
L 267.955693 364.611178 
L 268.768956 366.615874 
L 269.582219 366.404745 
L 270.395482 367.420911 
L 271.208745 361.589406 
L 272.022008 360.31247 
L 272.835271 360.689026 
L 273.648533 362.787408 
L 274.461796 363.319566 
L 275.275059 364.239298 
L 276.901585 366.392685 
L 277.714848 367.120701 
L 278.528111 365.552592 
L 279.341374 359.123542 
L 280.154637 360.965514 
L 280.967899 361.673044 
L 281.781162 365.207675 
L 283.407688 364.316047 
L 284.220951 367.0967 
L 285.034214 365.4615 
L 285.847477 365.424733 
L 286.66074 366.185011 
L 287.474003 360.230364 
L 288.287265 361.313159 
L 289.100528 362.845846 
L 289.913791 363.748107 
L 290.727054 363.314933 
L 291.540317 363.2809 
L 292.35358 363.433422 
L 293.166843 365.007549 
L 293.980106 365.492719 
L 294.793369 365.280525 
L 295.606631 360.179453 
L 296.419894 361.580049 
L 297.233157 361.815037 
L 298.04642 363.764189 
L 298.859683 363.83739 
L 299.672946 364.401248 
L 300.486209 366.247572 
L 301.299472 366.479145 
L 302.112735 366.944761 
L 302.925997 366.680453 
L 303.73926 360.52519 
L 304.552523 361.695295 
L 305.365786 362.404564 
L 306.179049 363.334264 
L 306.992312 364.573793 
L 307.805575 364.15389 
L 308.618838 364.689109 
L 309.432101 365.469871 
L 310.245363 365.311111 
L 311.058626 365.368309 
L 311.871889 360.077493 
L 312.685152 361.265697 
L 313.498415 363.82958 
L 314.311678 364.14772 
L 315.124941 363.96989 
L 315.938204 365.61039 
L 316.751467 363.792479 
L 317.564729 364.668346 
L 318.377992 365.972635 
L 319.191255 366.021113 
L 320.004518 359.041447 
L 320.817781 360.277722 
L 321.631044 361.788431 
L 322.444307 363.671816 
L 323.25757 362.089688 
L 324.070833 365.080358 
L 324.884095 364.943493 
L 325.697358 366.23558 
L 326.510621 365.390814 
L 327.323884 366.028827 
L 328.137147 361.788644 
L 328.95041 361.266983 
L 329.763673 363.360357 
L 330.576936 364.230568 
L 332.203461 364.73698 
L 333.016724 364.283528 
L 333.829987 366.914444 
L 334.64325 363.881424 
L 335.456513 365.399163 
L 336.269776 361.407009 
L 337.083039 362.159537 
L 337.896302 362.311536 
L 338.709565 364.095534 
L 339.522827 364.134815 
L 340.33609 363.883004 
L 341.962616 364.473201 
L 342.775879 365.781784 
L 343.589142 364.727307 
L 344.402405 361.803843 
L 345.215668 362.411626 
L 346.028931 363.487669 
L 346.842193 362.737903 
L 347.655456 362.444543 
L 348.468719 363.001229 
L 349.281982 365.226883 
L 350.095245 365.685961 
L 350.908508 365.792395 
L 351.721771 365.42554 
L 352.535034 361.326881 
L 353.348297 360.927322 
L 354.161559 363.132252 
L 354.974822 363.692121 
L 355.788085 362.508092 
L 356.601348 364.661992 
L 357.414611 364.250737 
L 358.227874 365.876008 
L 359.041137 366.767034 
L 359.8544 366.32465 
L 360.667663 361.993974 
L 361.480925 361.130161 
L 362.294188 363.252991 
L 363.107451 364.382441 
L 363.920714 363.926777 
L 364.733977 364.962393 
L 365.54724 364.912827 
L 366.360503 364.723301 
L 367.173766 365.448832 
L 367.987029 365.411883 
L 368.800291 360.184183 
L 369.613554 361.495981 
L 370.426817 363.163316 
L 371.24008 363.325615 
L 372.053343 363.365899 
L 372.866606 364.244704 
L 373.679869 365.786106 
L 374.493132 364.344614 
L 375.306395 364.739046 
L 376.119657 367.169394 
L 376.93292 361.023597 
L 377.746183 361.779886 
L 378.559446 361.456917 
L 379.372709 363.588298 
L 380.185972 363.805694 
L 380.999235 362.793638 
L 381.812498 362.763778 
L 382.625761 364.962469 
L 383.439024 363.769344 
L 384.252286 365.114353 
L 385.065549 362.360154 
L 385.878812 361.607004 
L 386.692075 361.211635 
L 387.505338 363.64557 
L 388.318601 364.469441 
L 389.131864 363.854066 
L 389.945127 364.715884 
L 390.75839 364.457114 
L 392.384915 364.822116 
L 393.198178 361.003248 
L 394.011441 361.87081 
L 395.637967 362.819398 
L 396.45123 364.098335 
L 397.264493 363.98249 
L 398.077756 365.268298 
L 398.891018 364.917182 
L 399.704281 364.839648 
L 400.517544 365.44754 
L 401.330807 360.187475 
L 402.14407 360.529861 
L 402.957333 359.729723 
L 403.770596 362.406084 
L 404.583859 362.592907 
L 405.397122 361.656912 
L 406.210384 364.703562 
L 407.023647 364.772327 
L 407.83691 365.814908 
L 408.650173 364.745362 
L 409.463436 361.259342 
L 410.276699 360.653379 
L 411.089962 363.517844 
L 411.903225 361.810644 
L 412.716488 363.032887 
L 413.52975 363.213939 
L 414.343013 363.798936 
L 415.156276 365.727036 
L 415.969539 364.379798 
L 416.782802 364.723154 
L 417.596065 360.075831 
L 418.409328 363.215584 
L 419.222591 361.412088 
L 420.035854 364.259206 
L 420.849116 362.150981 
L 421.662379 363.20572 
L 422.475642 363.703762 
L 423.288905 362.376617 
L 424.102168 364.177923 
L 424.915431 364.663844 
L 425.728694 360.645384 
L 426.541957 361.504685 
L 427.35522 361.709448 
L 428.168482 362.43003 
L 428.981745 361.978088 
L 429.795008 363.749911 
L 430.608271 365.155145 
L 431.421534 365.919606 
L 432.234797 364.641599 
L 433.04806 365.243867 
L 433.861323 362.67746 
L 434.674586 362.041932 
L 435.487848 360.813193 
L 436.301111 363.625553 
L 437.114374 362.970531 
L 437.927637 363.034544 
L 438.7409 364.735825 
L 439.554163 363.058888 
L 440.367426 364.20648 
L 441.180689 364.039516 
L 441.993952 362.627627 
L 442.807214 362.582983 
L 443.620477 361.615734 
L 444.43374 362.540965 
L 445.247003 363.118208 
L 446.060266 363.482971 
L 446.873529 362.896611 
L 447.686792 364.103414 
L 448.500055 363.330498 
L 449.313318 363.739409 
L 450.12658 361.032605 
L 450.939843 361.893753 
L 451.753106 361.061625 
L 452.566369 362.332136 
L 453.379632 362.750263 
L 454.192895 362.294261 
L 455.006158 363.927638 
L 455.819421 363.225732 
L 456.632684 364.97181 
L 457.445946 363.548204 
L 458.259209 360.19202 
L 459.072472 360.80849 
L 459.885735 362.093961 
L 460.698998 362.379658 
L 461.512261 361.854199 
L 462.325524 362.447726 
L 463.138787 364.317665 
L 463.95205 364.347792 
L 464.765312 364.087501 
L 465.578575 364.636231 
L 466.391838 362.211577 
L 467.205101 361.803037 
L 468.018364 362.331875 
L 468.831627 360.139293 
L 469.64489 362.081034 
L 470.458153 363.173474 
L 471.271416 362.574912 
L 472.084678 363.735534 
L 472.897941 361.761123 
L 473.711204 364.279027 
L 474.524467 359.155641 
L 475.33773 360.897337 
L 476.150993 362.080549 
L 476.964256 363.035955 
L 477.777519 361.936942 
L 478.590782 363.559818 
L 479.404044 362.749315 
L 480.217307 364.431543 
L 481.03057 363.057749 
L 481.843833 363.688165 
L 482.657096 362.282015 
L 483.470359 362.996793 
L 484.283622 363.095156 
L 485.096885 363.497734 
L 485.910148 362.089181 
L 486.72341 361.451021 
L 487.536673 363.200401 
L 488.349936 364.577956 
L 489.163199 362.978466 
L 489.976462 363.60759 
L 490.789725 362.416695 
L 491.602988 362.410313 
L 492.416251 361.218518 
L 493.229514 362.745075 
L 494.042776 363.07545 
L 495.669302 362.255012 
L 496.482565 363.563159 
L 497.295828 363.455515 
L 498.109091 364.083909 
L 498.109091 364.083909 
" clip-path="url(#pfefe4b5455)" style="fill: none; stroke: #ff0000; stroke-width: 1.5; stroke-linecap: square"/>
   </g>
   <g id="patch_8">
    <path d="M 72 384.48 
L 72 51.84 
" style="fill: none; stroke: #000000; stroke-width: 0.8; stroke-linejoin: miter; stroke-linecap: square"/>
   </g>
   <g id="patch_9">
    <path d="M 518.4 384.48 
L 518.4 51.84 
" style="fill: none; stroke: #000000; stroke-width: 0.8; stroke-linejoin: miter; stroke-linecap: square"/>
   </g>
   <g id="patch_10">
    <path d="M 72 384.48 
L 518.4 384.48 
" style="fill: none; stroke: #000000; stroke-width: 0.8; stroke-linejoin: miter; stroke-linecap: square"/>
   </g>
   <g id="patch_11">
    <path d="M 72 51.84 
L 518.4 51.84 
" style="fill: none; stroke: #000000; stroke-width: 0.8; stroke-linejoin: miter; stroke-linecap: square"/>
   </g>
   <g id="text_22">
    <!-- The learning curve on _0.00025_iid/host/5 -->
    <g transform="translate(165.332812 45.84) scale(0.12 -0.12)">
     <defs>
      <path id="DejaVuSans-54" d="M -19 4666 
L 3928 4666 
L 3928 4134 
L 2272 4134 
L 2272 0 
L 1638 0 
L 1638 4134 
L -19 4134 
L -19 4666 
z
" transform="scale(0.015625)"/>
      <path id="DejaVuSans-20" transform="scale(0.015625)"/>
      <path id="DejaVuSans-67" d="M 2906 1791 
Q 2906 2416 2648 2759 
Q 2391 3103 1925 3103 
Q 1463 3103 1205 2759 
Q 947 2416 947 1791 
Q 947 1169 1205 825 
Q 1463 481 1925 481 
Q 2391 481 2648 825 
Q 2906 1169 2906 1791 
z
M 3481 434 
Q 3481 -459 3084 -895 
Q 2688 -1331 1869 -1331 
Q 1566 -1331 1297 -1286 
Q 1028 -1241 775 -1147 
L 775 -588 
Q 1028 -725 1275 -790 
Q 1522 -856 1778 -856 
Q 2344 -856 2625 -561 
Q 2906 -266 2906 331 
L 2906 616 
Q 2728 306 2450 153 
Q 2172 0 1784 0 
Q 1141 0 747 490 
Q 353 981 353 1791 
Q 353 2603 747 3093 
Q 1141 3584 1784 3584 
Q 2172 3584 2450 3431 
Q 2728 3278 2906 2969 
L 2906 3500 
L 3481 3500 
L 3481 434 
z
" transform="scale(0.015625)"/>
      <path id="DejaVuSans-75" d="M 544 1381 
L 544 3500 
L 1119 3500 
L 1119 1403 
Q 1119 906 1312 657 
Q 1506 409 1894 409 
Q 2359 409 2629 706 
Q 2900 1003 2900 1516 
L 2900 3500 
L 3475 3500 
L 3475 0 
L 2900 0 
L 2900 538 
Q 2691 219 2414 64 
Q 2138 -91 1772 -91 
Q 1169 -91 856 284 
Q 544 659 544 1381 
z
M 1991 3584 
L 1991 3584 
z
" transform="scale(0.015625)"/>
      <path id="DejaVuSans-76" d="M 191 3500 
L 800 3500 
L 1894 563 
L 2988 3500 
L 3597 3500 
L 2284 0 
L 1503 0 
L 191 3500 
z
" transform="scale(0.015625)"/>
      <path id="DejaVuSans-3bb" d="M 1981 4316 
L 3597 0 
L 2988 0 
L 2006 2588 
L 800 0 
L 191 0 
L 1725 3356 
L 1494 3975 
Q 1347 4369 1013 4369 
L 713 4369 
L 713 4863 
L 1078 4856 
Q 1784 4847 1981 4316 
z
" transform="scale(0.015625)"/>
      <path id="DejaVuSans-5f" d="M 3263 -1063 
L 3263 -1509 
L -63 -1509 
L -63 -1063 
L 3263 -1063 
z
" transform="scale(0.015625)"/>
      <path id="DejaVuSans-64" d="M 2906 2969 
L 2906 4863 
L 3481 4863 
L 3481 0 
L 2906 0 
L 2906 525 
Q 2725 213 2448 61 
Q 2172 -91 1784 -91 
Q 1150 -91 751 415 
Q 353 922 353 1747 
Q 353 2572 751 3078 
Q 1150 3584 1784 3584 
Q 2172 3584 2448 3432 
Q 2725 3281 2906 2969 
z
M 947 1747 
Q 947 1113 1208 752 
Q 1469 391 1925 391 
Q 2381 391 2643 752 
Q 2906 1113 2906 1747 
Q 2906 2381 2643 2742 
Q 2381 3103 1925 3103 
Q 1469 3103 1208 2742 
Q 947 2381 947 1747 
z
" transform="scale(0.015625)"/>
      <path id="DejaVuSans-2f" d="M 1625 4666 
L 2156 4666 
L 531 -594 
L 0 -594 
L 1625 4666 
z
" transform="scale(0.015625)"/>
     </defs>
     <use xlink:href="#DejaVuSans-54"/>
     <use xlink:href="#DejaVuSans-68" x="61.083984"/>
     <use xlink:href="#DejaVuSans-65" x="124.462891"/>
     <use xlink:href="#DejaVuSans-20" x="185.986328"/>
     <use xlink:href="#DejaVuSans-6c" x="217.773438"/>
     <use xlink:href="#DejaVuSans-65" x="245.556641"/>
     <use xlink:href="#DejaVuSans-61" x="307.080078"/>
     <use xlink:href="#DejaVuSans-72" x="368.359375"/>
     <use xlink:href="#DejaVuSans-6e" x="407.722656"/>
     <use xlink:href="#DejaVuSans-69" x="471.101562"/>
     <use xlink:href="#DejaVuSans-6e" x="498.884766"/>
     <use xlink:href="#DejaVuSans-67" x="562.263672"/>
     <use xlink:href="#DejaVuSans-20" x="625.740234"/>
     <use xlink:href="#DejaVuSans-63" x="657.527344"/>
     <use xlink:href="#DejaVuSans-75" x="712.507812"/>
     <use xlink:href="#DejaVuSans-72" x="775.886719"/>
     <use xlink:href="#DejaVuSans-76" x="817"/>
     <use xlink:href="#DejaVuSans-65" x="876.179688"/>
     <use xlink:href="#DejaVuSans-20" x="937.703125"/>
     <use xlink:href="#DejaVuSans-6f" x="969.490234"/>
     <use xlink:href="#DejaVuSans-6e" x="1030.671875"/>
     <use xlink:href="#DejaVuSans-20" x="1094.050781"/>
     <use xlink:href="#DejaVuSans-3bb" x="1125.837891"/>
     <use xlink:href="#DejaVuSans-5f" x="1185.017578"/>
     <use xlink:href="#DejaVuSans-30" x="1235.017578"/>
     <use xlink:href="#DejaVuSans-2e" x="1298.640625"/>
     <use xlink:href="#DejaVuSans-30" x="1330.427734"/>
     <use xlink:href="#DejaVuSans-30" x="1394.050781"/>
     <use xlink:href="#DejaVuSans-30" x="1457.673828"/>
     <use xlink:href="#DejaVuSans-32" x="1521.296875"/>
     <use xlink:href="#DejaVuSans-35" x="1584.919922"/>
     <use xlink:href="#DejaVuSans-5f" x="1648.542969"/>
     <use xlink:href="#DejaVuSans-69" x="1698.542969"/>
     <use xlink:href="#DejaVuSans-69" x="1726.326172"/>
     <use xlink:href="#DejaVuSans-64" x="1754.109375"/>
     <use xlink:href="#DejaVuSans-2f" x="1817.585938"/>
     <use xlink:href="#DejaVuSans-68" x="1851.277344"/>
     <use xlink:href="#DejaVuSans-6f" x="1914.65625"/>
     <use xlink:href="#DejaVuSans-73" x="1975.837891"/>
     <use xlink:href="#DejaVuSans-74" x="2027.9375"/>
     <use xlink:href="#DejaVuSans-2f" x="2067.146484"/>
     <use xlink:href="#DejaVuSans-35" x="2100.837891"/>
    </g>
   </g>
   <g id="legend_2">
    <g id="patch_12">
     <path d="M 460.084375 74.518125 
L 511.4 74.518125 
Q 513.4 74.518125 513.4 72.518125 
L 513.4 58.84 
Q 513.4 56.84 511.4 56.84 
L 460.084375 56.84 
Q 458.084375 56.84 458.084375 58.84 
L 458.084375 72.518125 
Q 458.084375 74.518125 460.084375 74.518125 
z
" style="fill: #ffffff; opacity: 0.8; stroke: #cccccc; stroke-linejoin: miter"/>
    </g>
    <g id="line2d_22">
     <path d="M 462.084375 64.938438 
L 472.084375 64.938438 
L 482.084375 64.938438 
" style="fill: none; stroke: #ff0000; stroke-width: 1.5; stroke-linecap: square"/>
    </g>
    <g id="text_23">
     <!-- loss -->
     <g transform="translate(490.084375 68.438438) scale(0.1 -0.1)">
      <use xlink:href="#DejaVuSans-6c"/>
      <use xlink:href="#DejaVuSans-6f" x="27.783203"/>
      <use xlink:href="#DejaVuSans-73" x="88.964844"/>
      <use xlink:href="#DejaVuSans-73" x="141.064453"/>
     </g>
    </g>
   </g>
  </g>
 </g>
 <defs>
  <clipPath id="pfefe4b5455">
   <rect x="72" y="51.84" width="446.4" height="332.64"/>
  </clipPath>
 </defs>
</svg>
