<?xml version="1.0" encoding="utf-8" standalone="no"?>
<!DOCTYPE svg PUBLIC "-//W3C//DTD SVG 1.1//EN"
  "http://www.w3.org/Graphics/SVG/1.1/DTD/svg11.dtd">
<svg xmlns:xlink="http://www.w3.org/1999/xlink" width="576pt" height="432pt" viewBox="0 0 576 432" xmlns="http://www.w3.org/2000/svg" version="1.1">
 <metadata>
  <rdf:RDF xmlns:dc="http://purl.org/dc/elements/1.1/" xmlns:cc="http://creativecommons.org/ns#" xmlns:rdf="http://www.w3.org/1999/02/22-rdf-syntax-ns#">
   <cc:Work>
    <dc:type rdf:resource="http://purl.org/dc/dcmitype/StillImage"/>
    <dc:date>2023-04-13T09:22:55.099941</dc:date>
    <dc:format>image/svg+xml</dc:format>
    <dc:creator>
     <cc:Agent>
      <dc:title>Matplotlib v3.7.1, https://matplotlib.org/</dc:title>
     </cc:Agent>
    </dc:creator>
   </cc:Work>
  </rdf:RDF>
 </metadata>
 <defs>
  <style type="text/css">*{stroke-linejoin: round; stroke-linecap: butt}</style>
 </defs>
 <g id="figure_1">
  <g id="patch_1">
   <path d="M 0 432 
L 576 432 
L 576 0 
L 0 0 
z
" style="fill: #ffffff"/>
  </g>
  <g id="axes_1">
   <g id="patch_2">
    <path d="M 72 384.48 
L 518.4 384.48 
L 518.4 51.84 
L 72 51.84 
z
" style="fill: #ffffff"/>
   </g>
   <g id="matplotlib.axis_1">
    <g id="xtick_1">
     <g id="line2d_1">
      <defs>
       <path id="m40ae421daf" d="M 0 0 
L 0 3.5 
" style="stroke: #000000; stroke-width: 0.8"/>
      </defs>
      <g>
       <use xlink:href="#m40ae421daf" x="92.290909" y="384.48" style="stroke: #000000; stroke-width: 0.8"/>
      </g>
     </g>
     <g id="text_1">
      <!-- 0 -->
      <g transform="translate(89.109659 399.078438) scale(0.1 -0.1)">
       <defs>
        <path id="DejaVuSans-30" d="M 2034 4250 
Q 1547 4250 1301 3770 
Q 1056 3291 1056 2328 
Q 1056 1369 1301 889 
Q 1547 409 2034 409 
Q 2525 409 2770 889 
Q 3016 1369 3016 2328 
Q 3016 3291 2770 3770 
Q 2525 4250 2034 4250 
z
M 2034 4750 
Q 2819 4750 3233 4129 
Q 3647 3509 3647 2328 
Q 3647 1150 3233 529 
Q 2819 -91 2034 -91 
Q 1250 -91 836 529 
Q 422 1150 422 2328 
Q 422 3509 836 4129 
Q 1250 4750 2034 4750 
z
" transform="scale(0.015625)"/>
       </defs>
       <use xlink:href="#DejaVuSans-30"/>
      </g>
     </g>
    </g>
    <g id="xtick_2">
     <g id="line2d_2">
      <g>
       <use xlink:href="#m40ae421daf" x="173.617198" y="384.48" style="stroke: #000000; stroke-width: 0.8"/>
      </g>
     </g>
     <g id="text_2">
      <!-- 100 -->
      <g transform="translate(164.073448 399.078438) scale(0.1 -0.1)">
       <defs>
        <path id="DejaVuSans-31" d="M 794 531 
L 1825 531 
L 1825 4091 
L 703 3866 
L 703 4441 
L 1819 4666 
L 2450 4666 
L 2450 531 
L 3481 531 
L 3481 0 
L 794 0 
L 794 531 
z
" transform="scale(0.015625)"/>
       </defs>
       <use xlink:href="#DejaVuSans-31"/>
       <use xlink:href="#DejaVuSans-30" x="63.623047"/>
       <use xlink:href="#DejaVuSans-30" x="127.246094"/>
      </g>
     </g>
    </g>
    <g id="xtick_3">
     <g id="line2d_3">
      <g>
       <use xlink:href="#m40ae421daf" x="254.943487" y="384.48" style="stroke: #000000; stroke-width: 0.8"/>
      </g>
     </g>
     <g id="text_3">
      <!-- 200 -->
      <g transform="translate(245.399737 399.078438) scale(0.1 -0.1)">
       <defs>
        <path id="DejaVuSans-32" d="M 1228 531 
L 3431 531 
L 3431 0 
L 469 0 
L 469 531 
Q 828 903 1448 1529 
Q 2069 2156 2228 2338 
Q 2531 2678 2651 2914 
Q 2772 3150 2772 3378 
Q 2772 3750 2511 3984 
Q 2250 4219 1831 4219 
Q 1534 4219 1204 4116 
Q 875 4013 500 3803 
L 500 4441 
Q 881 4594 1212 4672 
Q 1544 4750 1819 4750 
Q 2544 4750 2975 4387 
Q 3406 4025 3406 3419 
Q 3406 3131 3298 2873 
Q 3191 2616 2906 2266 
Q 2828 2175 2409 1742 
Q 1991 1309 1228 531 
z
" transform="scale(0.015625)"/>
       </defs>
       <use xlink:href="#DejaVuSans-32"/>
       <use xlink:href="#DejaVuSans-30" x="63.623047"/>
       <use xlink:href="#DejaVuSans-30" x="127.246094"/>
      </g>
     </g>
    </g>
    <g id="xtick_4">
     <g id="line2d_4">
      <g>
       <use xlink:href="#m40ae421daf" x="336.269776" y="384.48" style="stroke: #000000; stroke-width: 0.8"/>
      </g>
     </g>
     <g id="text_4">
      <!-- 300 -->
      <g transform="translate(326.726026 399.078438) scale(0.1 -0.1)">
       <defs>
        <path id="DejaVuSans-33" d="M 2597 2516 
Q 3050 2419 3304 2112 
Q 3559 1806 3559 1356 
Q 3559 666 3084 287 
Q 2609 -91 1734 -91 
Q 1441 -91 1130 -33 
Q 819 25 488 141 
L 488 750 
Q 750 597 1062 519 
Q 1375 441 1716 441 
Q 2309 441 2620 675 
Q 2931 909 2931 1356 
Q 2931 1769 2642 2001 
Q 2353 2234 1838 2234 
L 1294 2234 
L 1294 2753 
L 1863 2753 
Q 2328 2753 2575 2939 
Q 2822 3125 2822 3475 
Q 2822 3834 2567 4026 
Q 2313 4219 1838 4219 
Q 1578 4219 1281 4162 
Q 984 4106 628 3988 
L 628 4550 
Q 988 4650 1302 4700 
Q 1616 4750 1894 4750 
Q 2613 4750 3031 4423 
Q 3450 4097 3450 3541 
Q 3450 3153 3228 2886 
Q 3006 2619 2597 2516 
z
" transform="scale(0.015625)"/>
       </defs>
       <use xlink:href="#DejaVuSans-33"/>
       <use xlink:href="#DejaVuSans-30" x="63.623047"/>
       <use xlink:href="#DejaVuSans-30" x="127.246094"/>
      </g>
     </g>
    </g>
    <g id="xtick_5">
     <g id="line2d_5">
      <g>
       <use xlink:href="#m40ae421daf" x="417.596065" y="384.48" style="stroke: #000000; stroke-width: 0.8"/>
      </g>
     </g>
     <g id="text_5">
      <!-- 400 -->
      <g transform="translate(408.052315 399.078438) scale(0.1 -0.1)">
       <defs>
        <path id="DejaVuSans-34" d="M 2419 4116 
L 825 1625 
L 2419 1625 
L 2419 4116 
z
M 2253 4666 
L 3047 4666 
L 3047 1625 
L 3713 1625 
L 3713 1100 
L 3047 1100 
L 3047 0 
L 2419 0 
L 2419 1100 
L 313 1100 
L 313 1709 
L 2253 4666 
z
" transform="scale(0.015625)"/>
       </defs>
       <use xlink:href="#DejaVuSans-34"/>
       <use xlink:href="#DejaVuSans-30" x="63.623047"/>
       <use xlink:href="#DejaVuSans-30" x="127.246094"/>
      </g>
     </g>
    </g>
    <g id="xtick_6">
     <g id="line2d_6">
      <g>
       <use xlink:href="#m40ae421daf" x="498.922354" y="384.48" style="stroke: #000000; stroke-width: 0.8"/>
      </g>
     </g>
     <g id="text_6">
      <!-- 500 -->
      <g transform="translate(489.378604 399.078438) scale(0.1 -0.1)">
       <defs>
        <path id="DejaVuSans-35" d="M 691 4666 
L 3169 4666 
L 3169 4134 
L 1269 4134 
L 1269 2991 
Q 1406 3038 1543 3061 
Q 1681 3084 1819 3084 
Q 2600 3084 3056 2656 
Q 3513 2228 3513 1497 
Q 3513 744 3044 326 
Q 2575 -91 1722 -91 
Q 1428 -91 1123 -41 
Q 819 9 494 109 
L 494 744 
Q 775 591 1075 516 
Q 1375 441 1709 441 
Q 2250 441 2565 725 
Q 2881 1009 2881 1497 
Q 2881 1984 2565 2268 
Q 2250 2553 1709 2553 
Q 1456 2553 1204 2497 
Q 953 2441 691 2322 
L 691 4666 
z
" transform="scale(0.015625)"/>
       </defs>
       <use xlink:href="#DejaVuSans-35"/>
       <use xlink:href="#DejaVuSans-30" x="63.623047"/>
       <use xlink:href="#DejaVuSans-30" x="127.246094"/>
      </g>
     </g>
    </g>
    <g id="text_7">
     <!-- epoch -->
     <g transform="translate(279.971875 412.756563) scale(0.1 -0.1)">
      <defs>
       <path id="DejaVuSans-65" d="M 3597 1894 
L 3597 1613 
L 953 1613 
Q 991 1019 1311 708 
Q 1631 397 2203 397 
Q 2534 397 2845 478 
Q 3156 559 3463 722 
L 3463 178 
Q 3153 47 2828 -22 
Q 2503 -91 2169 -91 
Q 1331 -91 842 396 
Q 353 884 353 1716 
Q 353 2575 817 3079 
Q 1281 3584 2069 3584 
Q 2775 3584 3186 3129 
Q 3597 2675 3597 1894 
z
M 3022 2063 
Q 3016 2534 2758 2815 
Q 2500 3097 2075 3097 
Q 1594 3097 1305 2825 
Q 1016 2553 972 2059 
L 3022 2063 
z
" transform="scale(0.015625)"/>
       <path id="DejaVuSans-70" d="M 1159 525 
L 1159 -1331 
L 581 -1331 
L 581 3500 
L 1159 3500 
L 1159 2969 
Q 1341 3281 1617 3432 
Q 1894 3584 2278 3584 
Q 2916 3584 3314 3078 
Q 3713 2572 3713 1747 
Q 3713 922 3314 415 
Q 2916 -91 2278 -91 
Q 1894 -91 1617 61 
Q 1341 213 1159 525 
z
M 3116 1747 
Q 3116 2381 2855 2742 
Q 2594 3103 2138 3103 
Q 1681 3103 1420 2742 
Q 1159 2381 1159 1747 
Q 1159 1113 1420 752 
Q 1681 391 2138 391 
Q 2594 391 2855 752 
Q 3116 1113 3116 1747 
z
" transform="scale(0.015625)"/>
       <path id="DejaVuSans-6f" d="M 1959 3097 
Q 1497 3097 1228 2736 
Q 959 2375 959 1747 
Q 959 1119 1226 758 
Q 1494 397 1959 397 
Q 2419 397 2687 759 
Q 2956 1122 2956 1747 
Q 2956 2369 2687 2733 
Q 2419 3097 1959 3097 
z
M 1959 3584 
Q 2709 3584 3137 3096 
Q 3566 2609 3566 1747 
Q 3566 888 3137 398 
Q 2709 -91 1959 -91 
Q 1206 -91 779 398 
Q 353 888 353 1747 
Q 353 2609 779 3096 
Q 1206 3584 1959 3584 
z
" transform="scale(0.015625)"/>
       <path id="DejaVuSans-63" d="M 3122 3366 
L 3122 2828 
Q 2878 2963 2633 3030 
Q 2388 3097 2138 3097 
Q 1578 3097 1268 2742 
Q 959 2388 959 1747 
Q 959 1106 1268 751 
Q 1578 397 2138 397 
Q 2388 397 2633 464 
Q 2878 531 3122 666 
L 3122 134 
Q 2881 22 2623 -34 
Q 2366 -91 2075 -91 
Q 1284 -91 818 406 
Q 353 903 353 1747 
Q 353 2603 823 3093 
Q 1294 3584 2113 3584 
Q 2378 3584 2631 3529 
Q 2884 3475 3122 3366 
z
" transform="scale(0.015625)"/>
       <path id="DejaVuSans-68" d="M 3513 2113 
L 3513 0 
L 2938 0 
L 2938 2094 
Q 2938 2591 2744 2837 
Q 2550 3084 2163 3084 
Q 1697 3084 1428 2787 
Q 1159 2491 1159 1978 
L 1159 0 
L 581 0 
L 581 4863 
L 1159 4863 
L 1159 2956 
Q 1366 3272 1645 3428 
Q 1925 3584 2291 3584 
Q 2894 3584 3203 3211 
Q 3513 2838 3513 2113 
z
" transform="scale(0.015625)"/>
      </defs>
      <use xlink:href="#DejaVuSans-65"/>
      <use xlink:href="#DejaVuSans-70" x="61.523438"/>
      <use xlink:href="#DejaVuSans-6f" x="125"/>
      <use xlink:href="#DejaVuSans-63" x="186.181641"/>
      <use xlink:href="#DejaVuSans-68" x="241.162109"/>
     </g>
    </g>
   </g>
   <g id="matplotlib.axis_2">
    <g id="ytick_1">
     <g id="line2d_7">
      <defs>
       <path id="m88a494f2c8" d="M 0 0 
L -3.5 0 
" style="stroke: #000000; stroke-width: 0.8"/>
      </defs>
      <g>
       <use xlink:href="#m88a494f2c8" x="72" y="384.48" style="stroke: #000000; stroke-width: 0.8"/>
      </g>
     </g>
     <g id="text_8">
      <!-- 0.0 -->
      <g transform="translate(49.096875 388.279219) scale(0.1 -0.1)">
       <defs>
        <path id="DejaVuSans-2e" d="M 684 794 
L 1344 794 
L 1344 0 
L 684 0 
L 684 794 
z
" transform="scale(0.015625)"/>
       </defs>
       <use xlink:href="#DejaVuSans-30"/>
       <use xlink:href="#DejaVuSans-2e" x="63.623047"/>
       <use xlink:href="#DejaVuSans-30" x="95.410156"/>
      </g>
     </g>
    </g>
    <g id="ytick_2">
     <g id="line2d_8">
      <g>
       <use xlink:href="#m88a494f2c8" x="72" y="317.952" style="stroke: #000000; stroke-width: 0.8"/>
      </g>
     </g>
     <g id="text_9">
      <!-- 0.2 -->
      <g transform="translate(49.096875 321.751219) scale(0.1 -0.1)">
       <use xlink:href="#DejaVuSans-30"/>
       <use xlink:href="#DejaVuSans-2e" x="63.623047"/>
       <use xlink:href="#DejaVuSans-32" x="95.410156"/>
      </g>
     </g>
    </g>
    <g id="ytick_3">
     <g id="line2d_9">
      <g>
       <use xlink:href="#m88a494f2c8" x="72" y="251.424" style="stroke: #000000; stroke-width: 0.8"/>
      </g>
     </g>
     <g id="text_10">
      <!-- 0.4 -->
      <g transform="translate(49.096875 255.223219) scale(0.1 -0.1)">
       <use xlink:href="#DejaVuSans-30"/>
       <use xlink:href="#DejaVuSans-2e" x="63.623047"/>
       <use xlink:href="#DejaVuSans-34" x="95.410156"/>
      </g>
     </g>
    </g>
    <g id="ytick_4">
     <g id="line2d_10">
      <g>
       <use xlink:href="#m88a494f2c8" x="72" y="184.896" style="stroke: #000000; stroke-width: 0.8"/>
      </g>
     </g>
     <g id="text_11">
      <!-- 0.6 -->
      <g transform="translate(49.096875 188.695219) scale(0.1 -0.1)">
       <defs>
        <path id="DejaVuSans-36" d="M 2113 2584 
Q 1688 2584 1439 2293 
Q 1191 2003 1191 1497 
Q 1191 994 1439 701 
Q 1688 409 2113 409 
Q 2538 409 2786 701 
Q 3034 994 3034 1497 
Q 3034 2003 2786 2293 
Q 2538 2584 2113 2584 
z
M 3366 4563 
L 3366 3988 
Q 3128 4100 2886 4159 
Q 2644 4219 2406 4219 
Q 1781 4219 1451 3797 
Q 1122 3375 1075 2522 
Q 1259 2794 1537 2939 
Q 1816 3084 2150 3084 
Q 2853 3084 3261 2657 
Q 3669 2231 3669 1497 
Q 3669 778 3244 343 
Q 2819 -91 2113 -91 
Q 1303 -91 875 529 
Q 447 1150 447 2328 
Q 447 3434 972 4092 
Q 1497 4750 2381 4750 
Q 2619 4750 2861 4703 
Q 3103 4656 3366 4563 
z
" transform="scale(0.015625)"/>
       </defs>
       <use xlink:href="#DejaVuSans-30"/>
       <use xlink:href="#DejaVuSans-2e" x="63.623047"/>
       <use xlink:href="#DejaVuSans-36" x="95.410156"/>
      </g>
     </g>
    </g>
    <g id="ytick_5">
     <g id="line2d_11">
      <g>
       <use xlink:href="#m88a494f2c8" x="72" y="118.368" style="stroke: #000000; stroke-width: 0.8"/>
      </g>
     </g>
     <g id="text_12">
      <!-- 0.8 -->
      <g transform="translate(49.096875 122.167219) scale(0.1 -0.1)">
       <defs>
        <path id="DejaVuSans-38" d="M 2034 2216 
Q 1584 2216 1326 1975 
Q 1069 1734 1069 1313 
Q 1069 891 1326 650 
Q 1584 409 2034 409 
Q 2484 409 2743 651 
Q 3003 894 3003 1313 
Q 3003 1734 2745 1975 
Q 2488 2216 2034 2216 
z
M 1403 2484 
Q 997 2584 770 2862 
Q 544 3141 544 3541 
Q 544 4100 942 4425 
Q 1341 4750 2034 4750 
Q 2731 4750 3128 4425 
Q 3525 4100 3525 3541 
Q 3525 3141 3298 2862 
Q 3072 2584 2669 2484 
Q 3125 2378 3379 2068 
Q 3634 1759 3634 1313 
Q 3634 634 3220 271 
Q 2806 -91 2034 -91 
Q 1263 -91 848 271 
Q 434 634 434 1313 
Q 434 1759 690 2068 
Q 947 2378 1403 2484 
z
M 1172 3481 
Q 1172 3119 1398 2916 
Q 1625 2713 2034 2713 
Q 2441 2713 2670 2916 
Q 2900 3119 2900 3481 
Q 2900 3844 2670 4047 
Q 2441 4250 2034 4250 
Q 1625 4250 1398 4047 
Q 1172 3844 1172 3481 
z
" transform="scale(0.015625)"/>
       </defs>
       <use xlink:href="#DejaVuSans-30"/>
       <use xlink:href="#DejaVuSans-2e" x="63.623047"/>
       <use xlink:href="#DejaVuSans-38" x="95.410156"/>
      </g>
     </g>
    </g>
    <g id="ytick_6">
     <g id="line2d_12">
      <g>
       <use xlink:href="#m88a494f2c8" x="72" y="51.84" style="stroke: #000000; stroke-width: 0.8"/>
      </g>
     </g>
     <g id="text_13">
      <!-- 1.0 -->
      <g transform="translate(49.096875 55.639219) scale(0.1 -0.1)">
       <use xlink:href="#DejaVuSans-31"/>
       <use xlink:href="#DejaVuSans-2e" x="63.623047"/>
       <use xlink:href="#DejaVuSans-30" x="95.410156"/>
      </g>
     </g>
    </g>
    <g id="text_14">
     <!-- rate -->
     <g transform="translate(43.017187 228.31625) rotate(-90) scale(0.1 -0.1)">
      <defs>
       <path id="DejaVuSans-72" d="M 2631 2963 
Q 2534 3019 2420 3045 
Q 2306 3072 2169 3072 
Q 1681 3072 1420 2755 
Q 1159 2438 1159 1844 
L 1159 0 
L 581 0 
L 581 3500 
L 1159 3500 
L 1159 2956 
Q 1341 3275 1631 3429 
Q 1922 3584 2338 3584 
Q 2397 3584 2469 3576 
Q 2541 3569 2628 3553 
L 2631 2963 
z
" transform="scale(0.015625)"/>
       <path id="DejaVuSans-61" d="M 2194 1759 
Q 1497 1759 1228 1600 
Q 959 1441 959 1056 
Q 959 750 1161 570 
Q 1363 391 1709 391 
Q 2188 391 2477 730 
Q 2766 1069 2766 1631 
L 2766 1759 
L 2194 1759 
z
M 3341 1997 
L 3341 0 
L 2766 0 
L 2766 531 
Q 2569 213 2275 61 
Q 1981 -91 1556 -91 
Q 1019 -91 701 211 
Q 384 513 384 1019 
Q 384 1609 779 1909 
Q 1175 2209 1959 2209 
L 2766 2209 
L 2766 2266 
Q 2766 2663 2505 2880 
Q 2244 3097 1772 3097 
Q 1472 3097 1187 3025 
Q 903 2953 641 2809 
L 641 3341 
Q 956 3463 1253 3523 
Q 1550 3584 1831 3584 
Q 2591 3584 2966 3190 
Q 3341 2797 3341 1997 
z
" transform="scale(0.015625)"/>
       <path id="DejaVuSans-74" d="M 1172 4494 
L 1172 3500 
L 2356 3500 
L 2356 3053 
L 1172 3053 
L 1172 1153 
Q 1172 725 1289 603 
Q 1406 481 1766 481 
L 2356 481 
L 2356 0 
L 1766 0 
Q 1100 0 847 248 
Q 594 497 594 1153 
L 594 3053 
L 172 3053 
L 172 3500 
L 594 3500 
L 594 4494 
L 1172 4494 
z
" transform="scale(0.015625)"/>
      </defs>
      <use xlink:href="#DejaVuSans-72"/>
      <use xlink:href="#DejaVuSans-61" x="41.113281"/>
      <use xlink:href="#DejaVuSans-74" x="102.392578"/>
      <use xlink:href="#DejaVuSans-65" x="141.601562"/>
     </g>
    </g>
   </g>
   <g id="line2d_13">
    <path d="M 92.290909 374.027155 
L 93.104172 370.456646 
L 93.917435 365.701936 
L 94.730698 316.189671 
L 95.543961 165.424381 
L 96.357224 138.080008 
L 97.170486 158.760008 
L 97.983749 121.139993 
L 98.797012 135 
L 99.610275 94.761289 
L 100.423538 190.440007 
L 101.236801 191.898948 
L 102.050064 195.219318 
L 102.863327 186.063161 
L 103.67659 179.778454 
L 104.489852 157.311218 
L 105.303115 148.130536 
L 106.116378 149.675288 
L 106.929641 140.543995 
L 107.742904 116.221934 
L 108.556167 162.719993 
L 109.36943 156.383994 
L 110.182693 144.240004 
L 110.995956 125.759996 
L 111.809218 120.324712 
L 112.622481 116.221934 
L 113.435744 141.742709 
L 114.249007 151.632004 
L 115.875533 144.97919 
L 116.688796 154.800004 
L 117.502059 139.376845 
L 118.315322 130.623155 
L 119.128584 123.762159 
L 119.941847 135 
L 120.75511 113.115794 
L 121.568373 115.199996 
L 122.381636 114.21 
L 123.194899 142.047448 
L 124.008162 123.485534 
L 124.821425 151.632004 
L 125.634688 135 
L 126.44795 123.762159 
L 127.261213 108.6322 
L 128.074476 86.854742 
L 128.887739 103.583997 
L 129.701002 79.559993 
L 130.514265 104.639997 
L 131.327528 121.58709 
L 132.140791 94.005627 
L 132.954054 150.120005 
L 133.767316 146.879994 
L 134.580579 119.879995 
L 135.393842 106.148565 
L 136.207105 110.975996 
L 137.020368 88.128005 
L 137.833631 83.519998 
L 138.646894 82.545229 
L 139.460157 84.635499 
L 140.27342 78.00269 
L 141.086682 147.935994 
L 141.899945 119.879995 
L 143.526471 88.799998 
L 145.152997 71.407058 
L 145.96626 69.82055 
L 146.779523 77.427691 
L 147.592786 77.712008 
L 148.406048 69.723874 
L 149.219311 145.846954 
L 150.032574 102.459138 
L 150.845837 85.782861 
L 151.6591 96.618454 
L 152.472363 63.310351 
L 153.285626 67.493646 
L 154.098889 63.863125 
L 154.912152 73.533908 
L 155.725414 68.81142 
L 156.538677 76.944906 
L 157.35194 160.309559 
L 158.165203 115.537014 
L 158.978466 116.921743 
L 159.791729 76.66388 
L 160.604992 85.956921 
L 161.418255 55.455651 
L 162.231518 66.147103 
L 163.04478 62.570332 
L 163.858043 70.847999 
L 164.671306 80.42625 
L 165.484569 153.668563 
L 166.297832 104.01882 
L 167.111095 92.690529 
L 167.924358 72.000001 
L 168.737621 67.870853 
L 169.550884 66.790109 
L 170.364146 75.600008 
L 171.177409 74.446599 
L 171.990672 76.710275 
L 172.803935 57.94349 
L 173.617198 135 
L 174.430461 92.690529 
L 175.243724 91.756802 
L 176.056987 80.029831 
L 176.87025 70.847999 
L 177.683512 68.682526 
L 178.496775 73.724206 
L 179.310038 69.82055 
L 180.123301 63.443726 
L 180.936564 58.426929 
L 181.749827 133.302858 
L 182.56309 86.490007 
L 183.376353 99.359997 
L 184.189616 75.26535 
L 185.002878 70.580276 
L 185.816141 77.103799 
L 186.629404 68.266657 
L 187.442667 68.898461 
L 188.25593 58.628568 
L 189.069193 55.166397 
L 189.882456 124.41599 
L 190.695719 120.878497 
L 191.508982 95.227836 
L 192.322244 56.957538 
L 193.135507 65.895202 
L 193.94877 64.159993 
L 194.762033 71.878561 
L 195.575296 55.896581 
L 196.388559 65.557114 
L 197.201822 63.180009 
L 198.015085 119.599999 
L 198.828348 94.959994 
L 199.64161 85.104008 
L 200.454873 66.096009 
L 201.268136 65.510144 
L 202.081399 73.300645 
L 202.894662 69.164993 
L 203.707925 55.495384 
L 204.521188 66.960005 
L 205.334451 67.240001 
L 206.147714 128.603072 
L 206.960976 85.104008 
L 207.774239 74.780682 
L 209.400765 61.080004 
L 210.214028 59.232 
L 211.840554 67.311635 
L 212.653817 72.415671 
L 213.46708 68.145891 
L 214.280343 108.326034 
L 215.093605 91.30576 
L 215.906868 67.4325 
L 216.720131 65.145607 
L 218.346657 55.896581 
L 219.15992 66.461538 
L 219.973183 63.052582 
L 220.786446 62.344425 
L 221.599709 55.378723 
L 222.412971 109.412309 
L 223.226234 74.015999 
L 224.039497 70.320009 
L 224.85276 70.320009 
L 225.666023 60.830265 
L 226.479286 59.760009 
L 227.292549 62.022852 
L 228.105812 69.723874 
L 228.919075 75.600008 
L 229.732337 61.080004 
L 230.5456 112.320002 
L 231.358863 85.104008 
L 232.172126 72.63 
L 232.985389 64.314008 
L 233.798652 71.640004 
L 234.611915 55.753412 
L 235.425178 58.917446 
L 236.238441 58.917446 
L 237.051703 55.234284 
L 237.864966 64.392443 
L 238.678229 87.480003 
L 239.491492 68.753903 
L 240.304755 71.699108 
L 241.118018 70.066859 
L 241.931281 64.970536 
L 242.744544 67.311635 
L 243.557807 59.150769 
L 244.371069 58.842956 
L 245.184332 68.986393 
L 245.997595 58.628568 
L 246.810858 94.175999 
L 247.624121 74.391857 
L 248.437384 76.66388 
L 249.250647 68.682526 
L 250.06391 72.373341 
L 250.877173 59.666823 
L 251.690435 75.047433 
L 252.503698 66.302605 
L 253.316961 68.639997 
L 254.130224 65.145607 
L 254.943487 93.42 
L 255.75675 78.665801 
L 256.570013 67.192614 
L 257.383276 66.096009 
L 258.196539 73.724206 
L 259.009801 59.855416 
L 259.823064 59.486894 
L 260.636327 62.570332 
L 261.44959 55.707909 
L 262.262853 62.686954 
L 263.076116 109.191715 
L 263.889379 98.690701 
L 264.702642 70.066859 
L 265.515905 56.460002 
L 266.329167 68.066346 
L 267.14243 63.719994 
L 267.955693 70.957245 
L 268.768956 73.072338 
L 269.582219 55.378723 
L 270.395482 65.417136 
L 271.208745 99.359997 
L 272.022008 90.011797 
L 272.835271 86.082346 
L 273.648533 59.953163 
L 274.461796 64.314008 
L 275.275059 71.640004 
L 276.088322 58.993542 
L 276.901585 70.320009 
L 277.714848 60.995225 
L 278.528111 61.91999 
L 279.341374 84.558689 
L 280.154637 72.959999 
L 280.967899 56.804772 
L 281.781162 60.830265 
L 282.594425 55.997996 
L 283.407688 63.580235 
L 284.220951 59.760009 
L 285.034214 62.127836 
L 286.66074 55.101186 
L 287.474003 80.029831 
L 288.287265 72.000001 
L 289.100528 73.724206 
L 289.913791 59.760009 
L 290.727054 69.120006 
L 291.540317 63.443726 
L 292.35358 79.559993 
L 293.166843 75.84495 
L 293.980106 62.456169 
L 294.793369 63.052582 
L 295.606631 76.944906 
L 296.419894 65.700007 
L 297.233157 69.580803 
L 298.04642 56.396715 
L 298.859683 55.847708 
L 299.672946 68.266657 
L 300.486209 71.878561 
L 301.299472 59.953163 
L 302.112735 62.686954 
L 302.925997 72.848849 
L 303.73926 70.320009 
L 304.552523 88.799998 
L 305.365786 77.039996 
L 306.179049 51.84 
L 306.992312 55.707909 
L 308.618838 71.179544 
L 309.432101 66.790109 
L 310.245363 51.84 
L 311.058626 62.127836 
L 311.871889 100.048704 
L 312.685152 78.665801 
L 313.498415 74.939991 
L 314.311678 65.510144 
L 315.124941 65.325397 
L 316.751467 55.341468 
L 317.564729 62.928009 
L 318.377992 62.344425 
L 319.191255 62.806153 
L 320.004518 73.300645 
L 320.817781 86.082346 
L 321.631044 74.015999 
L 322.444307 70.320009 
L 323.25757 64.471889 
L 324.070833 60.480003 
L 324.884095 74.265163 
L 325.697358 55.577527 
L 326.510621 58.917446 
L 328.137147 90.011797 
L 328.95041 77.8275 
L 330.576936 65.325397 
L 331.390199 56.160002 
L 332.203461 51.84 
L 333.016724 55.53601 
L 333.829987 70.740002 
L 334.64325 62.235 
L 335.456513 59.399993 
L 336.269776 83.519998 
L 337.083039 77.427691 
L 337.896302 56.957538 
L 338.709565 78.101052 
L 339.522827 68.682526 
L 340.33609 71.179544 
L 341.149353 60.261273 
L 341.962616 63.863125 
L 342.775879 59.150769 
L 344.402405 82.545229 
L 345.215668 89.320573 
L 346.028931 80.76521 
L 346.842193 57.293108 
L 347.655456 60.59369 
L 348.468719 75.600008 
L 349.281982 79.559993 
L 350.095245 60.59369 
L 350.908508 59.953163 
L 351.721771 70.116922 
L 352.535034 85.667805 
L 353.348297 78.239998 
L 354.161559 72.310153 
L 354.974822 65.145607 
L 355.788085 60.155992 
L 356.601348 60.710392 
L 357.414611 75.886269 
L 358.227874 74.015999 
L 359.041137 63.580235 
L 359.8544 65.845893 
L 360.667663 81.628652 
L 361.480925 65.700007 
L 362.294188 70.847999 
L 363.107451 61.343999 
L 363.920714 65.700007 
L 364.733977 74.015999 
L 365.54724 67.493646 
L 366.360503 59.232 
L 367.173766 55.663457 
L 367.987029 63.443726 
L 368.800291 81.540006 
L 369.613554 66.734336 
L 370.426817 56.660868 
L 371.24008 74.939991 
L 372.053343 60.261273 
L 372.866606 66.623999 
L 373.679869 63.443726 
L 374.493132 67.133788 
L 375.306395 59.760009 
L 376.119657 67.870853 
L 376.93292 87.120006 
L 377.746183 62.399999 
L 378.559446 72.63 
L 379.372709 72.63 
L 380.185972 87.120006 
L 380.999235 56.731769 
L 381.812498 70.740002 
L 382.625761 55.663457 
L 383.439024 65.845893 
L 384.252286 67.493646 
L 385.065549 90.974115 
L 385.878812 57.0375 
L 386.692075 86.593424 
L 387.505338 75.600008 
L 388.318601 55.946664 
L 389.131864 69.580803 
L 389.945127 56.104625 
L 390.75839 64.314008 
L 391.571652 55.997996 
L 392.384915 55.896581 
L 393.198178 73.652453 
L 394.011441 75.600008 
L 394.824704 70.580276 
L 395.637967 61.769544 
L 396.45123 69.347361 
L 397.264493 60.480003 
L 398.077756 61.623539 
L 398.891018 63.863125 
L 399.704281 63.580235 
L 400.517544 74.519998 
L 401.330807 74.780682 
L 402.14407 72.000001 
L 402.957333 61.080004 
L 403.770596 60.36923 
L 404.583859 60.59369 
L 405.397122 60.261273 
L 406.210384 55.946664 
L 407.023647 64.009764 
L 407.83691 60.053328 
L 408.650173 70.957245 
L 409.463436 72.63 
L 410.276699 61.343999 
L 411.089962 69.347361 
L 411.903225 75.26535 
L 412.716488 67.679999 
L 413.52975 68.472004 
L 414.343013 55.997996 
L 415.156276 55.997996 
L 415.969539 60.155992 
L 416.782802 72.373341 
L 417.596065 81.190596 
L 418.409328 67.4325 
L 419.222591 70.847999 
L 420.035854 65.700007 
L 420.849116 83.736984 
L 421.662379 80.586669 
L 422.475642 55.896581 
L 423.288905 74.315682 
L 424.102168 55.707909 
L 424.915431 60.261273 
L 425.728694 66.515288 
L 426.541957 71.123474 
L 427.35522 61.481737 
L 428.168482 61.91999 
L 428.981745 64.970536 
L 429.795008 69.82055 
L 430.608271 60.480003 
L 431.421534 74.623554 
L 432.234797 63.719994 
L 433.04806 64.314008 
L 433.861323 81.018955 
L 434.674586 81.190596 
L 435.487848 56.804772 
L 436.301111 63.511574 
L 437.114374 61.080004 
L 437.927637 74.623554 
L 438.7409 64.970536 
L 439.554163 51.84 
L 440.367426 60.710392 
L 441.180689 55.455651 
L 441.993952 81.190596 
L 442.807214 78.810815 
L 443.620477 73.440008 
L 444.43374 70.847999 
L 445.247003 66.302605 
L 446.060266 64.159993 
L 446.873529 65.895202 
L 447.686792 61.080004 
L 448.500055 78.00269 
L 449.313318 56.160002 
L 450.12658 78.239998 
L 450.939843 86.593424 
L 451.753106 70.066859 
L 452.566369 61.080004 
L 453.379632 56.396715 
L 454.192895 64.314008 
L 455.006158 60.36923 
L 455.819421 66.790109 
L 456.632684 77.760009 
L 457.445946 68.682526 
L 459.072472 74.015999 
L 459.885735 80.76521 
L 460.698998 85.525072 
L 461.512261 74.315682 
L 462.325524 60.95343 
L 463.138787 59.760009 
L 463.95205 81.628652 
L 464.765312 64.009764 
L 465.578575 60.830265 
L 466.391838 57.12 
L 467.205101 94.761289 
L 468.018364 66.734336 
L 468.831627 61.343999 
L 469.64489 60.95343 
L 470.458153 68.472004 
L 471.271416 60.59369 
L 472.084678 74.623554 
L 472.897941 64.314008 
L 473.711204 51.84 
L 474.524467 82.477897 
L 475.33773 101.963843 
L 476.150993 67.192614 
L 476.964256 67.192614 
L 478.590782 74.015999 
L 479.404044 71.640004 
L 480.217307 73.163086 
L 481.03057 51.84 
L 481.843833 51.84 
L 482.657096 80.76521 
L 483.470359 75.944342 
L 484.283622 74.623554 
L 485.096885 82.079991 
L 485.910148 76.179509 
L 486.72341 79.559993 
L 487.536673 64.471889 
L 488.349936 82.477897 
L 489.163199 60.59369 
L 489.976462 60.710392 
L 490.789725 67.935488 
L 491.602988 61.080004 
L 492.416251 75.26535 
L 493.229514 76.298827 
L 494.042776 56.335132 
L 494.856039 56.804772 
L 495.669302 76.298827 
L 496.482565 65.145607 
L 497.295828 55.847708 
L 498.109091 70.066859 
L 498.109091 70.066859 
" clip-path="url(#pf8e7fdeb6c)" style="fill: none; stroke: #0000ff; stroke-width: 1.5; stroke-linecap: square"/>
   </g>
   <g id="line2d_14">
    <path d="M 92.290909 195.524731 
L 93.104172 201.429595 
L 93.917435 288.034081 
L 94.730698 323.463195 
L 95.543961 331.336334 
L 96.357224 345.114319 
L 97.170486 347.082604 
L 97.983749 347.082604 
L 98.797012 343.146034 
L 99.610275 331.336334 
L 100.423538 329.368049 
L 101.236801 319.526626 
L 102.050064 319.526626 
L 102.863327 317.558341 
L 103.67659 321.49491 
L 104.489852 329.368049 
L 105.303115 331.336334 
L 106.116378 337.241183 
L 106.929641 341.177752 
L 107.742904 335.272898 
L 108.556167 333.304613 
L 109.36943 337.241183 
L 110.995956 329.368049 
L 111.809218 331.336334 
L 112.622481 335.272898 
L 113.435744 331.336334 
L 114.249007 329.368049 
L 115.06227 331.336334 
L 115.875533 313.621777 
L 116.688796 327.399764 
L 117.502059 329.368049 
L 118.315322 327.399764 
L 119.128584 327.399764 
L 120.75511 323.463195 
L 121.568373 317.558341 
L 122.381636 307.716923 
L 123.194899 299.843789 
L 124.008162 284.097512 
L 124.821425 329.368049 
L 125.634688 325.43148 
L 126.44795 327.399764 
L 127.261213 317.558341 
L 128.074476 317.558341 
L 128.887739 309.685207 
L 129.701002 297.875504 
L 130.514265 280.160942 
L 131.327528 288.034081 
L 132.140791 262.44639 
L 132.954054 323.463195 
L 133.767316 325.43148 
L 134.580579 315.590061 
L 135.393842 303.780353 
L 136.207105 311.653492 
L 137.020368 288.034081 
L 137.833631 272.287814 
L 138.646894 268.351244 
L 139.460157 258.509821 
L 140.27342 223.080707 
L 141.086682 321.49491 
L 141.899945 315.590061 
L 142.713208 311.653492 
L 143.526471 305.748638 
L 144.339734 280.160942 
L 145.152997 258.509821 
L 145.96626 246.700123 
L 146.779523 242.763553 
L 147.592786 221.112422 
L 148.406048 211.271009 
L 149.219311 319.526626 
L 150.032574 307.716923 
L 150.845837 297.875504 
L 151.6591 295.90722 
L 152.472363 274.256098 
L 153.285626 225.048991 
L 154.098889 227.017276 
L 154.912152 215.207578 
L 155.725414 201.429595 
L 156.538677 191.588162 
L 157.35194 323.463195 
L 158.165203 309.685207 
L 158.978466 311.653492 
L 159.791729 262.44639 
L 160.604992 246.700123 
L 161.418255 205.366145 
L 162.231518 209.302714 
L 163.04478 207.334439 
L 163.858043 189.619887 
L 164.671306 154.190763 
L 165.484569 317.558341 
L 166.297832 299.843789 
L 167.111095 286.065796 
L 167.924358 262.44639 
L 168.737621 228.985561 
L 170.364146 205.366145 
L 171.177409 195.524731 
L 171.990672 189.619887 
L 172.803935 173.87361 
L 173.617198 313.621777 
L 174.430461 286.065796 
L 175.243724 297.875504 
L 176.056987 278.192668 
L 176.87025 254.573252 
L 177.683512 236.858699 
L 178.496775 244.731838 
L 179.310038 246.700123 
L 180.123301 221.112422 
L 180.936564 189.619887 
L 181.749827 311.653492 
L 182.56309 299.843789 
L 183.376353 290.002366 
L 184.189616 254.573252 
L 185.002878 252.604967 
L 185.816141 240.795269 
L 186.629404 232.92213 
L 187.442667 238.826984 
L 188.25593 195.524731 
L 189.069193 189.619887 
L 189.882456 299.843789 
L 190.695719 301.812069 
L 191.508982 266.38296 
L 193.135507 250.636682 
L 193.94877 230.953845 
L 194.762033 230.953845 
L 195.575296 225.048991 
L 196.388559 201.429595 
L 197.201822 217.175853 
L 198.015085 299.843789 
L 198.828348 291.97065 
L 199.64161 278.192668 
L 200.454873 252.604967 
L 201.268136 246.700123 
L 202.081399 213.239283 
L 202.894662 205.366145 
L 203.707925 207.334439 
L 204.521188 219.144137 
L 205.334451 181.746748 
L 206.147714 305.748638 
L 206.960976 278.192668 
L 207.774239 278.192668 
L 208.587502 266.38296 
L 209.400765 246.700123 
L 210.214028 211.271009 
L 211.840554 223.080707 
L 212.653817 205.366145 
L 213.46708 193.556457 
L 214.280343 297.875504 
L 215.906868 264.414675 
L 216.720131 242.763553 
L 217.533394 232.92213 
L 218.346657 225.048991 
L 219.15992 213.239283 
L 219.973183 215.207578 
L 220.786446 203.39787 
L 221.599709 201.429595 
L 222.412971 299.843789 
L 224.039497 250.636682 
L 224.85276 250.636682 
L 225.666023 242.763553 
L 226.479286 223.080707 
L 227.292549 197.493026 
L 228.105812 211.271009 
L 228.919075 205.366145 
L 229.732337 177.810179 
L 230.5456 295.90722 
L 231.358863 278.192668 
L 232.172126 266.38296 
L 232.985389 232.92213 
L 233.798652 228.985561 
L 234.611915 219.144137 
L 235.425178 203.39787 
L 236.238441 203.39787 
L 237.864966 183.715023 
L 238.678229 286.065796 
L 239.491492 274.256098 
L 240.304755 260.478106 
L 241.118018 248.668397 
L 241.931281 240.795269 
L 242.744544 223.080707 
L 243.557807 209.302714 
L 244.371069 201.429595 
L 245.184332 203.39787 
L 245.997595 195.524731 
L 246.810858 290.002366 
L 248.437384 262.44639 
L 249.250647 236.858699 
L 250.06391 234.890415 
L 250.877173 221.112422 
L 251.690435 227.017276 
L 252.503698 211.271009 
L 253.316961 199.461301 
L 254.130224 195.524731 
L 254.943487 288.034081 
L 255.75675 272.287814 
L 257.383276 252.604967 
L 258.196539 244.731838 
L 259.009801 225.048991 
L 259.823064 217.175853 
L 260.636327 207.334439 
L 261.44959 217.175853 
L 262.262853 209.302714 
L 263.076116 290.002366 
L 263.889379 264.414675 
L 264.702642 248.668397 
L 265.515905 244.731838 
L 266.329167 230.953845 
L 267.14243 225.048991 
L 267.955693 223.080707 
L 268.768956 211.271009 
L 269.582219 201.429595 
L 270.395482 199.461301 
L 271.208745 278.192668 
L 272.022008 278.192668 
L 272.835271 264.414675 
L 273.648533 227.017276 
L 274.461796 232.92213 
L 275.275059 228.985561 
L 276.088322 205.366145 
L 276.901585 217.175853 
L 277.714848 175.841885 
L 278.528111 195.524731 
L 279.341374 276.224383 
L 280.154637 268.351244 
L 280.967899 254.573252 
L 281.781162 242.763553 
L 282.594425 228.985561 
L 283.407688 223.080707 
L 284.220951 223.080707 
L 285.034214 199.461301 
L 285.847477 189.619887 
L 286.66074 185.683318 
L 287.474003 278.192668 
L 289.100528 244.731838 
L 289.913791 223.080707 
L 290.727054 240.795269 
L 291.540317 221.112422 
L 292.35358 211.271009 
L 293.166843 207.334439 
L 293.980106 205.366145 
L 294.793369 215.207578 
L 295.606631 288.034081 
L 296.419894 248.668397 
L 297.233157 244.731838 
L 298.04642 242.763553 
L 298.859683 223.080707 
L 299.672946 232.92213 
L 300.486209 230.953845 
L 301.299472 227.017276 
L 302.112735 209.302714 
L 302.925997 209.302714 
L 303.73926 284.097512 
L 305.365786 264.414675 
L 306.179049 242.763553 
L 306.992312 217.175853 
L 307.805575 223.080707 
L 308.618838 225.048991 
L 309.432101 217.175853 
L 310.245363 187.651593 
L 311.058626 199.461301 
L 311.871889 268.351244 
L 312.685152 272.287814 
L 313.498415 252.604967 
L 314.311678 246.700123 
L 315.124941 244.731838 
L 315.938204 230.953845 
L 316.751467 199.461301 
L 317.564729 213.239283 
L 318.377992 203.39787 
L 319.191255 211.271009 
L 320.004518 270.319529 
L 320.817781 264.414675 
L 321.631044 274.256098 
L 322.444307 250.636682 
L 323.25757 234.890415 
L 324.070833 236.858699 
L 324.884095 221.112422 
L 325.697358 211.271009 
L 326.510621 203.39787 
L 327.323884 225.048991 
L 328.137147 278.192668 
L 328.95041 268.351244 
L 330.576936 244.731838 
L 332.203461 225.048991 
L 333.016724 209.302714 
L 333.829987 221.112422 
L 334.64325 201.429595 
L 335.456513 215.207578 
L 336.269776 272.287814 
L 337.083039 266.38296 
L 337.896302 258.509821 
L 338.709565 246.700123 
L 339.522827 236.858699 
L 340.33609 225.048991 
L 341.149353 232.92213 
L 341.962616 227.017276 
L 342.775879 209.302714 
L 343.589142 221.112422 
L 344.402405 268.351244 
L 345.215668 260.478106 
L 346.028931 260.478106 
L 346.842193 266.38296 
L 347.655456 238.826984 
L 348.468719 230.953845 
L 349.281982 232.92213 
L 350.095245 238.826984 
L 351.721771 215.207578 
L 352.535034 280.160942 
L 353.348297 270.319529 
L 354.161559 264.414675 
L 354.974822 242.763553 
L 355.788085 230.953845 
L 356.601348 240.795269 
L 357.414611 232.92213 
L 358.227874 219.144137 
L 359.041137 223.080707 
L 359.8544 205.366145 
L 360.667663 264.414675 
L 361.480925 248.668397 
L 362.294188 254.573252 
L 363.107451 250.636682 
L 364.733977 246.700123 
L 365.54724 225.048991 
L 366.360503 211.271009 
L 367.173766 215.207578 
L 367.987029 221.112422 
L 368.800291 284.097512 
L 369.613554 258.509821 
L 370.426817 250.636682 
L 371.24008 252.604967 
L 372.866606 215.207578 
L 373.679869 221.112422 
L 374.493132 221.112422 
L 375.306395 223.080707 
L 376.119657 228.985561 
L 376.93292 268.351244 
L 377.746183 264.414675 
L 378.559446 266.38296 
L 379.372709 266.38296 
L 380.185972 268.351244 
L 380.999235 252.604967 
L 381.812498 221.112422 
L 382.625761 215.207578 
L 383.439024 205.366145 
L 384.252286 225.048991 
L 385.065549 266.38296 
L 385.878812 260.478106 
L 386.692075 266.38296 
L 387.505338 256.541536 
L 388.318601 227.017276 
L 389.131864 244.731838 
L 389.945127 232.92213 
L 390.75839 232.92213 
L 392.384915 225.048991 
L 393.198178 272.287814 
L 394.011441 282.129227 
L 394.824704 252.604967 
L 395.637967 256.541536 
L 396.45123 242.763553 
L 397.264493 236.858699 
L 398.077756 254.573252 
L 398.891018 227.017276 
L 399.704281 223.080707 
L 400.517544 223.080707 
L 401.330807 278.192668 
L 402.957333 246.700123 
L 403.770596 234.890415 
L 404.583859 238.826984 
L 406.210384 227.017276 
L 407.023647 228.985561 
L 407.83691 228.985561 
L 408.650173 223.080707 
L 409.463436 266.38296 
L 410.276699 250.636682 
L 411.089962 242.763553 
L 412.716488 266.38296 
L 413.52975 234.890415 
L 414.343013 228.985561 
L 415.156276 228.985561 
L 415.969539 230.953845 
L 416.782802 234.890415 
L 417.596065 262.44639 
L 418.409328 264.414675 
L 419.222591 254.573252 
L 420.035854 248.668397 
L 420.849116 254.573252 
L 422.475642 225.048991 
L 423.288905 248.668397 
L 424.102168 217.175853 
L 424.915431 232.92213 
L 425.728694 256.541536 
L 426.541957 256.541536 
L 427.35522 252.604967 
L 428.168482 258.509821 
L 428.981745 240.795269 
L 429.795008 246.700123 
L 430.608271 236.858699 
L 431.421534 250.636682 
L 432.234797 225.048991 
L 433.04806 232.92213 
L 433.861323 282.129227 
L 434.674586 262.44639 
L 435.487848 254.573252 
L 436.301111 276.224383 
L 437.114374 246.700123 
L 437.927637 250.636682 
L 439.554163 230.953845 
L 440.367426 240.795269 
L 441.180689 205.366145 
L 441.993952 262.44639 
L 442.807214 250.636682 
L 443.620477 242.763553 
L 444.43374 254.573252 
L 445.247003 254.573252 
L 446.060266 230.953845 
L 446.873529 250.636682 
L 447.686792 246.700123 
L 448.500055 223.080707 
L 449.313318 234.890415 
L 450.12658 270.319529 
L 450.939843 266.38296 
L 451.753106 248.668397 
L 452.566369 246.700123 
L 453.379632 242.763553 
L 454.192895 232.92213 
L 455.006158 234.890415 
L 455.819421 217.175853 
L 456.632684 244.731838 
L 457.445946 236.858699 
L 458.259209 258.509821 
L 459.072472 274.256098 
L 459.885735 260.478106 
L 460.698998 244.731838 
L 461.512261 248.668397 
L 462.325524 244.731838 
L 463.138787 223.080707 
L 463.95205 264.414675 
L 464.765312 228.985561 
L 465.578575 242.763553 
L 466.391838 262.44639 
L 467.205101 278.192668 
L 468.018364 258.509821 
L 468.831627 250.636682 
L 469.64489 244.731838 
L 470.458153 234.890415 
L 471.271416 238.826984 
L 472.084678 250.636682 
L 472.897941 232.92213 
L 473.711204 230.953845 
L 474.524467 248.668397 
L 475.33773 262.44639 
L 476.964256 262.44639 
L 478.590782 246.700123 
L 479.404044 228.985561 
L 480.217307 240.795269 
L 481.03057 227.017276 
L 481.843833 262.44639 
L 483.470359 258.509821 
L 484.283622 250.636682 
L 485.096885 246.700123 
L 485.910148 234.890415 
L 486.72341 232.92213 
L 487.536673 234.890415 
L 488.349936 248.668397 
L 489.163199 238.826984 
L 489.976462 240.795269 
L 490.789725 268.351244 
L 491.602988 246.700123 
L 492.416251 254.573252 
L 493.229514 260.478106 
L 494.042776 240.795269 
L 494.856039 254.573252 
L 495.669302 260.478106 
L 497.295828 223.080707 
L 498.109091 248.668397 
L 498.109091 248.668397 
" clip-path="url(#pf8e7fdeb6c)" style="fill: none; stroke: #008000; stroke-width: 1.5; stroke-linecap: square"/>
   </g>
   <g id="patch_3">
    <path d="M 72 384.48 
L 72 51.84 
" style="fill: none; stroke: #000000; stroke-width: 0.8; stroke-linejoin: miter; stroke-linecap: square"/>
   </g>
   <g id="patch_4">
    <path d="M 518.4 384.48 
L 518.4 51.84 
" style="fill: none; stroke: #000000; stroke-width: 0.8; stroke-linejoin: miter; stroke-linecap: square"/>
   </g>
   <g id="patch_5">
    <path d="M 72 384.48 
L 518.4 384.48 
" style="fill: none; stroke: #000000; stroke-width: 0.8; stroke-linejoin: miter; stroke-linecap: square"/>
   </g>
   <g id="patch_6">
    <path d="M 72 51.84 
L 518.4 51.84 
" style="fill: none; stroke: #000000; stroke-width: 0.8; stroke-linejoin: miter; stroke-linecap: square"/>
   </g>
   <g id="legend_1">
    <g id="patch_7">
     <path d="M 79 89.19625 
L 156.107812 89.19625 
Q 158.107812 89.19625 158.107812 87.19625 
L 158.107812 58.84 
Q 158.107812 56.84 156.107812 56.84 
L 79 56.84 
Q 77 56.84 77 58.84 
L 77 87.19625 
Q 77 89.19625 79 89.19625 
z
" style="fill: #ffffff; opacity: 0.8; stroke: #cccccc; stroke-linejoin: miter"/>
    </g>
    <g id="line2d_15">
     <path d="M 81 64.938437 
L 91 64.938437 
L 101 64.938437 
" style="fill: none; stroke: #0000ff; stroke-width: 1.5; stroke-linecap: square"/>
    </g>
    <g id="text_15">
     <!-- precision -->
     <g transform="translate(109 68.438437) scale(0.1 -0.1)">
      <defs>
       <path id="DejaVuSans-69" d="M 603 3500 
L 1178 3500 
L 1178 0 
L 603 0 
L 603 3500 
z
M 603 4863 
L 1178 4863 
L 1178 4134 
L 603 4134 
L 603 4863 
z
" transform="scale(0.015625)"/>
       <path id="DejaVuSans-73" d="M 2834 3397 
L 2834 2853 
Q 2591 2978 2328 3040 
Q 2066 3103 1784 3103 
Q 1356 3103 1142 2972 
Q 928 2841 928 2578 
Q 928 2378 1081 2264 
Q 1234 2150 1697 2047 
L 1894 2003 
Q 2506 1872 2764 1633 
Q 3022 1394 3022 966 
Q 3022 478 2636 193 
Q 2250 -91 1575 -91 
Q 1294 -91 989 -36 
Q 684 19 347 128 
L 347 722 
Q 666 556 975 473 
Q 1284 391 1588 391 
Q 1994 391 2212 530 
Q 2431 669 2431 922 
Q 2431 1156 2273 1281 
Q 2116 1406 1581 1522 
L 1381 1569 
Q 847 1681 609 1914 
Q 372 2147 372 2553 
Q 372 3047 722 3315 
Q 1072 3584 1716 3584 
Q 2034 3584 2315 3537 
Q 2597 3491 2834 3397 
z
" transform="scale(0.015625)"/>
       <path id="DejaVuSans-6e" d="M 3513 2113 
L 3513 0 
L 2938 0 
L 2938 2094 
Q 2938 2591 2744 2837 
Q 2550 3084 2163 3084 
Q 1697 3084 1428 2787 
Q 1159 2491 1159 1978 
L 1159 0 
L 581 0 
L 581 3500 
L 1159 3500 
L 1159 2956 
Q 1366 3272 1645 3428 
Q 1925 3584 2291 3584 
Q 2894 3584 3203 3211 
Q 3513 2838 3513 2113 
z
" transform="scale(0.015625)"/>
      </defs>
      <use xlink:href="#DejaVuSans-70"/>
      <use xlink:href="#DejaVuSans-72" x="63.476562"/>
      <use xlink:href="#DejaVuSans-65" x="102.339844"/>
      <use xlink:href="#DejaVuSans-63" x="163.863281"/>
      <use xlink:href="#DejaVuSans-69" x="218.84375"/>
      <use xlink:href="#DejaVuSans-73" x="246.626953"/>
      <use xlink:href="#DejaVuSans-69" x="298.726562"/>
      <use xlink:href="#DejaVuSans-6f" x="326.509766"/>
      <use xlink:href="#DejaVuSans-6e" x="387.691406"/>
     </g>
    </g>
    <g id="line2d_16">
     <path d="M 81 79.616562 
L 91 79.616562 
L 101 79.616562 
" style="fill: none; stroke: #008000; stroke-width: 1.5; stroke-linecap: square"/>
    </g>
    <g id="text_16">
     <!-- recall -->
     <g transform="translate(109 83.116562) scale(0.1 -0.1)">
      <defs>
       <path id="DejaVuSans-6c" d="M 603 4863 
L 1178 4863 
L 1178 0 
L 603 0 
L 603 4863 
z
" transform="scale(0.015625)"/>
      </defs>
      <use xlink:href="#DejaVuSans-72"/>
      <use xlink:href="#DejaVuSans-65" x="38.863281"/>
      <use xlink:href="#DejaVuSans-63" x="100.386719"/>
      <use xlink:href="#DejaVuSans-61" x="155.367188"/>
      <use xlink:href="#DejaVuSans-6c" x="216.646484"/>
      <use xlink:href="#DejaVuSans-6c" x="244.429688"/>
     </g>
    </g>
   </g>
  </g>
  <g id="axes_2">
   <g id="matplotlib.axis_3">
    <g id="ytick_7">
     <g id="line2d_17">
      <defs>
       <path id="m70a8a49e20" d="M 0 0 
L 3.5 0 
" style="stroke: #000000; stroke-width: 0.8"/>
      </defs>
      <g>
       <use xlink:href="#m70a8a49e20" x="518.4" y="337.599566" style="stroke: #000000; stroke-width: 0.8"/>
      </g>
     </g>
     <g id="text_17">
      <!-- 0.2 -->
      <g transform="translate(525.4 341.398785) scale(0.1 -0.1)">
       <use xlink:href="#DejaVuSans-30"/>
       <use xlink:href="#DejaVuSans-2e" x="63.623047"/>
       <use xlink:href="#DejaVuSans-32" x="95.410156"/>
      </g>
     </g>
    </g>
    <g id="ytick_8">
     <g id="line2d_18">
      <g>
       <use xlink:href="#m70a8a49e20" x="518.4" y="265.933867" style="stroke: #000000; stroke-width: 0.8"/>
      </g>
     </g>
     <g id="text_18">
      <!-- 0.4 -->
      <g transform="translate(525.4 269.733086) scale(0.1 -0.1)">
       <use xlink:href="#DejaVuSans-30"/>
       <use xlink:href="#DejaVuSans-2e" x="63.623047"/>
       <use xlink:href="#DejaVuSans-34" x="95.410156"/>
      </g>
     </g>
    </g>
    <g id="ytick_9">
     <g id="line2d_19">
      <g>
       <use xlink:href="#m70a8a49e20" x="518.4" y="194.268168" style="stroke: #000000; stroke-width: 0.8"/>
      </g>
     </g>
     <g id="text_19">
      <!-- 0.6 -->
      <g transform="translate(525.4 198.067386) scale(0.1 -0.1)">
       <use xlink:href="#DejaVuSans-30"/>
       <use xlink:href="#DejaVuSans-2e" x="63.623047"/>
       <use xlink:href="#DejaVuSans-36" x="95.410156"/>
      </g>
     </g>
    </g>
    <g id="ytick_10">
     <g id="line2d_20">
      <g>
       <use xlink:href="#m70a8a49e20" x="518.4" y="122.602468" style="stroke: #000000; stroke-width: 0.8"/>
      </g>
     </g>
     <g id="text_20">
      <!-- 0.8 -->
      <g transform="translate(525.4 126.401687) scale(0.1 -0.1)">
       <use xlink:href="#DejaVuSans-30"/>
       <use xlink:href="#DejaVuSans-2e" x="63.623047"/>
       <use xlink:href="#DejaVuSans-38" x="95.410156"/>
      </g>
     </g>
    </g>
    <g id="text_21">
     <!-- loss -->
     <g transform="translate(552.901563 227.817812) rotate(-90) scale(0.1 -0.1)">
      <use xlink:href="#DejaVuSans-6c"/>
      <use xlink:href="#DejaVuSans-6f" x="27.783203"/>
      <use xlink:href="#DejaVuSans-73" x="88.964844"/>
      <use xlink:href="#DejaVuSans-73" x="141.064453"/>
     </g>
    </g>
   </g>
   <g id="line2d_21">
    <path d="M 92.290909 66.96 
L 93.104172 127.856714 
L 93.917435 210.182763 
L 94.730698 274.676566 
L 95.543961 308.561581 
L 96.357224 322.146525 
L 97.170486 328.450308 
L 98.797012 328.633945 
L 99.610275 326.223273 
L 100.423538 332.295343 
L 101.236801 331.128756 
L 102.050064 329.490477 
L 102.863327 329.56429 
L 103.67659 330.714293 
L 104.489852 330.848203 
L 105.303115 332.054537 
L 106.929641 338.275969 
L 107.742904 337.510326 
L 108.556167 328.407966 
L 109.36943 331.07346 
L 110.182693 334.606006 
L 110.995956 334.799841 
L 111.809218 340.680084 
L 112.622481 342.582199 
L 115.06227 349.85614 
L 115.875533 351.142455 
L 116.688796 335.470355 
L 117.502059 340.326918 
L 119.128584 347.569249 
L 119.941847 349.266199 
L 121.568373 353.957162 
L 122.381636 356.089602 
L 123.194899 355.645995 
L 124.008162 357.771799 
L 124.821425 343.163405 
L 125.634688 346.879533 
L 127.261213 352.890172 
L 128.074476 355.880229 
L 128.887739 355.9389 
L 129.701002 359.845131 
L 130.514265 360.587403 
L 131.327528 359.869121 
L 132.140791 361.861036 
L 132.954054 349.542315 
L 133.767316 351.573422 
L 134.580579 354.95871 
L 135.393842 357.203349 
L 136.207105 358.266371 
L 137.020368 359.865832 
L 137.833631 363.751821 
L 138.646894 363.223081 
L 139.460157 363.013378 
L 140.27342 364.167748 
L 141.086682 350.770253 
L 141.899945 352.971039 
L 142.713208 356.868428 
L 143.526471 359.139231 
L 144.339734 362.126666 
L 145.152997 363.825821 
L 145.96626 363.445611 
L 146.779523 364.332861 
L 147.592786 364.912876 
L 148.406048 365.935761 
L 149.219311 352.563074 
L 150.032574 356.292696 
L 150.845837 359.184083 
L 152.472363 362.423778 
L 153.285626 365.750384 
L 154.098889 364.72837 
L 154.912152 366.18176 
L 155.725414 367.053452 
L 156.538677 366.827203 
L 157.35194 351.815932 
L 158.978466 359.560562 
L 160.604992 363.881272 
L 162.231518 367.234309 
L 163.04478 366.695808 
L 163.858043 368.049065 
L 164.671306 367.735662 
L 165.484569 353.778683 
L 166.297832 358.946806 
L 167.111095 360.198975 
L 167.924358 362.8707 
L 168.737621 364.790313 
L 169.550884 365.612868 
L 170.364146 366.775017 
L 171.990672 366.944202 
L 172.803935 368.826818 
L 173.617198 354.020958 
L 174.430461 360.035303 
L 175.243724 360.210465 
L 176.056987 361.004451 
L 176.87025 364.175623 
L 177.683512 365.091739 
L 178.496775 363.860646 
L 179.310038 365.757181 
L 180.123301 365.298309 
L 180.936564 368.347987 
L 181.749827 357.333703 
L 182.56309 359.083466 
L 183.376353 360.478813 
L 184.189616 362.932954 
L 185.002878 362.793486 
L 186.629404 366.15129 
L 187.442667 365.01445 
L 188.25593 368.090371 
L 189.069193 368.341646 
L 189.882456 356.596049 
L 191.508982 360.95569 
L 192.322244 363.853475 
L 193.135507 362.298743 
L 193.94877 365.712244 
L 194.762033 365.746892 
L 195.575296 365.56105 
L 196.388559 365.9359 
L 197.201822 366.782039 
L 198.015085 358.045972 
L 198.828348 359.660806 
L 199.64161 363.116334 
L 200.454873 363.090726 
L 201.268136 363.596644 
L 202.081399 364.633027 
L 202.894662 366.892289 
L 203.707925 366.484882 
L 204.521188 366.534219 
L 205.334451 367.425487 
L 206.147714 358.39264 
L 206.960976 361.181658 
L 207.774239 361.574988 
L 208.587502 363.556486 
L 209.400765 364.077691 
L 210.214028 366.890775 
L 211.840554 365.407993 
L 212.653817 366.484967 
L 213.46708 368.028721 
L 214.280343 359.516991 
L 215.093605 360.920353 
L 215.906868 362.956992 
L 217.533394 364.73274 
L 218.346657 366.625727 
L 219.15992 366.886253 
L 219.973183 367.395626 
L 220.786446 367.489415 
L 221.599709 367.996577 
L 222.412971 358.939491 
L 223.226234 361.166136 
L 224.039497 363.967772 
L 224.85276 363.425278 
L 225.666023 364.343546 
L 226.479286 366.121856 
L 227.292549 366.627001 
L 228.105812 366.012383 
L 228.919075 366.392821 
L 229.732337 368.303642 
L 230.5456 359.949961 
L 231.358863 360.943666 
L 232.172126 362.332953 
L 232.985389 364.972842 
L 233.798652 365.168853 
L 234.611915 366.158889 
L 235.425178 368.02764 
L 236.238441 367.731118 
L 237.051703 368.25281 
L 237.864966 368.5344 
L 238.678229 358.949962 
L 239.491492 361.914116 
L 240.304755 364.166178 
L 241.118018 364.10849 
L 241.931281 365.678354 
L 242.744544 365.401954 
L 243.557807 366.325631 
L 244.371069 368.053737 
L 245.184332 366.546959 
L 245.997595 368.319191 
L 246.810858 359.635016 
L 247.624121 362.049596 
L 248.437384 362.215697 
L 249.250647 365.274853 
L 250.06391 364.888032 
L 250.877173 366.535997 
L 251.690435 365.028525 
L 252.503698 366.318738 
L 253.316961 367.099475 
L 254.130224 367.318262 
L 254.943487 359.431212 
L 255.75675 361.288753 
L 256.570013 363.811629 
L 257.383276 363.126677 
L 258.196539 364.855976 
L 259.009801 367.104532 
L 259.823064 366.190669 
L 260.636327 366.445813 
L 261.44959 368.118 
L 262.262853 367.714368 
L 263.076116 360.260983 
L 263.889379 361.244654 
L 264.702642 362.619706 
L 265.515905 364.265728 
L 266.329167 365.211275 
L 267.955693 366.033271 
L 268.768956 365.380484 
L 269.582219 367.178754 
L 270.395482 367.419798 
L 271.208745 361.208564 
L 272.022008 359.95419 
L 272.835271 361.916231 
L 273.648533 365.446528 
L 274.461796 365.685957 
L 275.275059 364.726309 
L 276.088322 366.695622 
L 276.901585 366.252821 
L 277.714848 368.851291 
L 278.528111 367.233107 
L 279.341374 361.099222 
L 280.154637 362.516451 
L 280.967899 363.467231 
L 281.781162 365.183176 
L 282.594425 366.155792 
L 283.407688 366.034857 
L 284.220951 365.782784 
L 285.034214 366.907461 
L 285.847477 367.201174 
L 286.66074 369.36 
L 287.474003 360.067772 
L 288.287265 361.940931 
L 289.100528 362.524823 
L 289.913791 365.386205 
L 290.727054 364.623221 
L 291.540317 366.498941 
L 292.35358 365.354465 
L 293.166843 366.281195 
L 294.793369 367.131459 
L 295.606631 361.2188 
L 296.419894 362.740689 
L 298.04642 364.680744 
L 299.672946 366.437953 
L 300.486209 365.121641 
L 301.299472 365.97892 
L 302.112735 366.64629 
L 302.925997 366.654956 
L 303.73926 361.10375 
L 304.552523 360.609412 
L 305.365786 363.490116 
L 306.179049 364.989261 
L 306.992312 367.131945 
L 307.805575 365.458206 
L 308.618838 365.283753 
L 309.432101 365.280926 
L 310.245363 368.205721 
L 311.058626 368.272497 
L 311.871889 360.444288 
L 312.685152 360.623332 
L 313.498415 363.648363 
L 314.311678 363.67891 
L 315.124941 365.279754 
L 315.938204 365.431396 
L 316.751467 365.814084 
L 317.564729 366.946563 
L 318.377992 366.501135 
L 319.191255 366.577429 
L 320.004518 362.051988 
L 320.817781 360.09203 
L 321.631044 362.250148 
L 322.444307 362.825186 
L 323.25757 364.97038 
L 324.070833 364.881218 
L 324.884095 365.503952 
L 325.697358 366.859617 
L 326.510621 367.487685 
L 327.323884 365.233842 
L 328.137147 360.497662 
L 328.95041 361.877183 
L 330.576936 365.464437 
L 331.390199 366.57992 
L 332.203461 366.548822 
L 333.016724 366.903086 
L 333.829987 365.588164 
L 334.64325 368.198811 
L 335.456513 366.879685 
L 336.269776 361.686381 
L 337.083039 362.876419 
L 337.896302 364.644577 
L 338.709565 363.274234 
L 339.522827 364.694199 
L 341.149353 366.583847 
L 341.962616 366.02504 
L 342.775879 366.934746 
L 343.589142 366.302991 
L 344.402405 361.391272 
L 345.215668 362.719763 
L 346.028931 362.866888 
L 346.842193 364.234465 
L 348.468719 365.446032 
L 349.281982 364.462051 
L 350.095245 365.536032 
L 350.908508 365.392808 
L 351.721771 366.898443 
L 352.535034 361.460402 
L 353.348297 361.186437 
L 354.161559 363.122223 
L 354.974822 363.742568 
L 355.788085 365.970511 
L 356.601348 364.510229 
L 357.414611 365.908941 
L 358.227874 365.47356 
L 359.041137 366.063287 
L 359.8544 366.814938 
L 360.667663 362.341699 
L 361.480925 362.251958 
L 362.294188 363.470835 
L 363.107451 362.907057 
L 364.733977 363.407423 
L 365.54724 365.64385 
L 366.360503 366.535239 
L 367.173766 366.560433 
L 367.987029 366.055251 
L 368.800291 361.563028 
L 369.613554 363.22904 
L 370.426817 363.70384 
L 371.24008 363.163471 
L 372.053343 364.946878 
L 372.866606 364.947017 
L 373.679869 364.113429 
L 374.493132 366.100464 
L 375.306395 366.829777 
L 376.93292 362.256043 
L 377.746183 363.703637 
L 378.559446 363.028349 
L 379.372709 361.80039 
L 381.812498 365.118592 
L 382.625761 366.745423 
L 383.439024 366.008136 
L 384.252286 366.179139 
L 385.065549 361.472913 
L 385.878812 363.059714 
L 386.692075 361.320843 
L 388.318601 364.694773 
L 389.131864 364.345286 
L 389.945127 366.172259 
L 390.75839 366.239254 
L 391.571652 365.532006 
L 392.384915 366.305346 
L 393.198178 360.320342 
L 394.011441 360.369754 
L 394.824704 363.497233 
L 395.637967 361.715487 
L 396.45123 364.658801 
L 397.264493 365.015299 
L 398.077756 363.983743 
L 398.891018 363.989034 
L 399.704281 365.87433 
L 400.517544 365.702841 
L 401.330807 360.257816 
L 402.14407 362.37953 
L 402.957333 364.040934 
L 403.770596 364.86281 
L 404.583859 364.504452 
L 405.397122 365.407862 
L 406.210384 364.909197 
L 407.023647 364.761483 
L 407.83691 363.334293 
L 408.650173 364.896818 
L 409.463436 361.686536 
L 410.276699 362.039835 
L 411.089962 363.642137 
L 411.903225 364.059932 
L 412.716488 363.57999 
L 413.52975 363.558702 
L 415.156276 366.031645 
L 415.969539 366.18463 
L 416.782802 365.595568 
L 417.596065 362.353932 
L 418.409328 362.154138 
L 419.222591 363.650119 
L 420.035854 363.259214 
L 420.849116 363.291139 
L 421.662379 363.994198 
L 422.475642 366.178858 
L 423.288905 362.895844 
L 424.102168 365.239905 
L 424.915431 364.777584 
L 425.728694 362.18712 
L 426.541957 362.207875 
L 427.35522 362.808549 
L 428.168482 363.896501 
L 428.981745 364.446508 
L 429.795008 364.079849 
L 430.608271 364.653622 
L 431.421534 364.254718 
L 432.234797 365.84979 
L 433.04806 365.131385 
L 433.861323 361.411434 
L 434.674586 362.126442 
L 435.487848 364.177957 
L 436.301111 362.483282 
L 437.114374 364.45527 
L 437.927637 363.260864 
L 438.7409 364.196197 
L 439.554163 365.807015 
L 440.367426 365.803157 
L 441.180689 366.335837 
L 441.993952 363.475379 
L 442.807214 362.447742 
L 443.620477 363.44466 
L 444.43374 363.233942 
L 445.247003 363.289227 
L 446.060266 365.477815 
L 446.873529 363.758757 
L 447.686792 364.799919 
L 448.500055 363.571116 
L 449.313318 366.438415 
L 450.12658 361.634331 
L 450.939843 361.135322 
L 451.753106 363.506471 
L 452.566369 364.856598 
L 453.379632 364.773379 
L 454.192895 364.246901 
L 455.006158 364.567343 
L 455.819421 365.534678 
L 456.632684 364.833467 
L 457.445946 364.927373 
L 458.259209 362.62803 
L 459.072472 360.948653 
L 459.885735 363.411609 
L 460.698998 363.470322 
L 461.512261 362.626936 
L 463.138787 365.689818 
L 463.95205 362.955513 
L 464.765312 366.879885 
L 465.578575 364.339247 
L 466.391838 364.030741 
L 467.205101 361.593057 
L 468.018364 363.912653 
L 468.831627 364.566011 
L 469.64489 364.275018 
L 470.458153 363.552241 
L 471.271416 365.016837 
L 472.084678 363.985889 
L 472.897941 365.246187 
L 473.711204 365.418224 
L 474.524467 363.645309 
L 475.33773 361.376017 
L 476.150993 363.150491 
L 476.964256 363.541653 
L 477.777519 363.072678 
L 478.590782 364.236206 
L 479.404044 364.667101 
L 480.217307 364.170722 
L 481.03057 365.372833 
L 481.843833 363.551851 
L 483.470359 362.425385 
L 484.283622 362.900025 
L 485.096885 363.620224 
L 485.910148 364.809122 
L 486.72341 364.371696 
L 487.536673 364.786688 
L 488.349936 362.631923 
L 489.163199 364.188358 
L 489.976462 364.821496 
L 490.789725 362.910672 
L 491.602988 363.281592 
L 492.416251 362.767226 
L 493.229514 363.933311 
L 494.042776 364.218548 
L 494.856039 363.62394 
L 495.669302 364.113498 
L 496.482565 363.386871 
L 497.295828 367.059501 
L 498.109091 364.181299 
L 498.109091 364.181299 
" clip-path="url(#pf8e7fdeb6c)" style="fill: none; stroke: #ff0000; stroke-width: 1.5; stroke-linecap: square"/>
   </g>
   <g id="patch_8">
    <path d="M 72 384.48 
L 72 51.84 
" style="fill: none; stroke: #000000; stroke-width: 0.8; stroke-linejoin: miter; stroke-linecap: square"/>
   </g>
   <g id="patch_9">
    <path d="M 518.4 384.48 
L 518.4 51.84 
" style="fill: none; stroke: #000000; stroke-width: 0.8; stroke-linejoin: miter; stroke-linecap: square"/>
   </g>
   <g id="patch_10">
    <path d="M 72 384.48 
L 518.4 384.48 
" style="fill: none; stroke: #000000; stroke-width: 0.8; stroke-linejoin: miter; stroke-linecap: square"/>
   </g>
   <g id="patch_11">
    <path d="M 72 51.84 
L 518.4 51.84 
" style="fill: none; stroke: #000000; stroke-width: 0.8; stroke-linejoin: miter; stroke-linecap: square"/>
   </g>
   <g id="text_22">
    <!-- The learning curve on _0.00025_iid/host/7 -->
    <g transform="translate(165.332812 45.84) scale(0.12 -0.12)">
     <defs>
      <path id="DejaVuSans-54" d="M -19 4666 
L 3928 4666 
L 3928 4134 
L 2272 4134 
L 2272 0 
L 1638 0 
L 1638 4134 
L -19 4134 
L -19 4666 
z
" transform="scale(0.015625)"/>
      <path id="DejaVuSans-20" transform="scale(0.015625)"/>
      <path id="DejaVuSans-67" d="M 2906 1791 
Q 2906 2416 2648 2759 
Q 2391 3103 1925 3103 
Q 1463 3103 1205 2759 
Q 947 2416 947 1791 
Q 947 1169 1205 825 
Q 1463 481 1925 481 
Q 2391 481 2648 825 
Q 2906 1169 2906 1791 
z
M 3481 434 
Q 3481 -459 3084 -895 
Q 2688 -1331 1869 -1331 
Q 1566 -1331 1297 -1286 
Q 1028 -1241 775 -1147 
L 775 -588 
Q 1028 -725 1275 -790 
Q 1522 -856 1778 -856 
Q 2344 -856 2625 -561 
Q 2906 -266 2906 331 
L 2906 616 
Q 2728 306 2450 153 
Q 2172 0 1784 0 
Q 1141 0 747 490 
Q 353 981 353 1791 
Q 353 2603 747 3093 
Q 1141 3584 1784 3584 
Q 2172 3584 2450 3431 
Q 2728 3278 2906 2969 
L 2906 3500 
L 3481 3500 
L 3481 434 
z
" transform="scale(0.015625)"/>
      <path id="DejaVuSans-75" d="M 544 1381 
L 544 3500 
L 1119 3500 
L 1119 1403 
Q 1119 906 1312 657 
Q 1506 409 1894 409 
Q 2359 409 2629 706 
Q 2900 1003 2900 1516 
L 2900 3500 
L 3475 3500 
L 3475 0 
L 2900 0 
L 2900 538 
Q 2691 219 2414 64 
Q 2138 -91 1772 -91 
Q 1169 -91 856 284 
Q 544 659 544 1381 
z
M 1991 3584 
L 1991 3584 
z
" transform="scale(0.015625)"/>
      <path id="DejaVuSans-76" d="M 191 3500 
L 800 3500 
L 1894 563 
L 2988 3500 
L 3597 3500 
L 2284 0 
L 1503 0 
L 191 3500 
z
" transform="scale(0.015625)"/>
      <path id="DejaVuSans-3bb" d="M 1981 4316 
L 3597 0 
L 2988 0 
L 2006 2588 
L 800 0 
L 191 0 
L 1725 3356 
L 1494 3975 
Q 1347 4369 1013 4369 
L 713 4369 
L 713 4863 
L 1078 4856 
Q 1784 4847 1981 4316 
z
" transform="scale(0.015625)"/>
      <path id="DejaVuSans-5f" d="M 3263 -1063 
L 3263 -1509 
L -63 -1509 
L -63 -1063 
L 3263 -1063 
z
" transform="scale(0.015625)"/>
      <path id="DejaVuSans-64" d="M 2906 2969 
L 2906 4863 
L 3481 4863 
L 3481 0 
L 2906 0 
L 2906 525 
Q 2725 213 2448 61 
Q 2172 -91 1784 -91 
Q 1150 -91 751 415 
Q 353 922 353 1747 
Q 353 2572 751 3078 
Q 1150 3584 1784 3584 
Q 2172 3584 2448 3432 
Q 2725 3281 2906 2969 
z
M 947 1747 
Q 947 1113 1208 752 
Q 1469 391 1925 391 
Q 2381 391 2643 752 
Q 2906 1113 2906 1747 
Q 2906 2381 2643 2742 
Q 2381 3103 1925 3103 
Q 1469 3103 1208 2742 
Q 947 2381 947 1747 
z
" transform="scale(0.015625)"/>
      <path id="DejaVuSans-2f" d="M 1625 4666 
L 2156 4666 
L 531 -594 
L 0 -594 
L 1625 4666 
z
" transform="scale(0.015625)"/>
      <path id="DejaVuSans-37" d="M 525 4666 
L 3525 4666 
L 3525 4397 
L 1831 0 
L 1172 0 
L 2766 4134 
L 525 4134 
L 525 4666 
z
" transform="scale(0.015625)"/>
     </defs>
     <use xlink:href="#DejaVuSans-54"/>
     <use xlink:href="#DejaVuSans-68" x="61.083984"/>
     <use xlink:href="#DejaVuSans-65" x="124.462891"/>
     <use xlink:href="#DejaVuSans-20" x="185.986328"/>
     <use xlink:href="#DejaVuSans-6c" x="217.773438"/>
     <use xlink:href="#DejaVuSans-65" x="245.556641"/>
     <use xlink:href="#DejaVuSans-61" x="307.080078"/>
     <use xlink:href="#DejaVuSans-72" x="368.359375"/>
     <use xlink:href="#DejaVuSans-6e" x="407.722656"/>
     <use xlink:href="#DejaVuSans-69" x="471.101562"/>
     <use xlink:href="#DejaVuSans-6e" x="498.884766"/>
     <use xlink:href="#DejaVuSans-67" x="562.263672"/>
     <use xlink:href="#DejaVuSans-20" x="625.740234"/>
     <use xlink:href="#DejaVuSans-63" x="657.527344"/>
     <use xlink:href="#DejaVuSans-75" x="712.507812"/>
     <use xlink:href="#DejaVuSans-72" x="775.886719"/>
     <use xlink:href="#DejaVuSans-76" x="817"/>
     <use xlink:href="#DejaVuSans-65" x="876.179688"/>
     <use xlink:href="#DejaVuSans-20" x="937.703125"/>
     <use xlink:href="#DejaVuSans-6f" x="969.490234"/>
     <use xlink:href="#DejaVuSans-6e" x="1030.671875"/>
     <use xlink:href="#DejaVuSans-20" x="1094.050781"/>
     <use xlink:href="#DejaVuSans-3bb" x="1125.837891"/>
     <use xlink:href="#DejaVuSans-5f" x="1185.017578"/>
     <use xlink:href="#DejaVuSans-30" x="1235.017578"/>
     <use xlink:href="#DejaVuSans-2e" x="1298.640625"/>
     <use xlink:href="#DejaVuSans-30" x="1330.427734"/>
     <use xlink:href="#DejaVuSans-30" x="1394.050781"/>
     <use xlink:href="#DejaVuSans-30" x="1457.673828"/>
     <use xlink:href="#DejaVuSans-32" x="1521.296875"/>
     <use xlink:href="#DejaVuSans-35" x="1584.919922"/>
     <use xlink:href="#DejaVuSans-5f" x="1648.542969"/>
     <use xlink:href="#DejaVuSans-69" x="1698.542969"/>
     <use xlink:href="#DejaVuSans-69" x="1726.326172"/>
     <use xlink:href="#DejaVuSans-64" x="1754.109375"/>
     <use xlink:href="#DejaVuSans-2f" x="1817.585938"/>
     <use xlink:href="#DejaVuSans-68" x="1851.277344"/>
     <use xlink:href="#DejaVuSans-6f" x="1914.65625"/>
     <use xlink:href="#DejaVuSans-73" x="1975.837891"/>
     <use xlink:href="#DejaVuSans-74" x="2027.9375"/>
     <use xlink:href="#DejaVuSans-2f" x="2067.146484"/>
     <use xlink:href="#DejaVuSans-37" x="2100.837891"/>
    </g>
   </g>
   <g id="legend_2">
    <g id="patch_12">
     <path d="M 460.084375 74.518125 
L 511.4 74.518125 
Q 513.4 74.518125 513.4 72.518125 
L 513.4 58.84 
Q 513.4 56.84 511.4 56.84 
L 460.084375 56.84 
Q 458.084375 56.84 458.084375 58.84 
L 458.084375 72.518125 
Q 458.084375 74.518125 460.084375 74.518125 
z
" style="fill: #ffffff; opacity: 0.8; stroke: #cccccc; stroke-linejoin: miter"/>
    </g>
    <g id="line2d_22">
     <path d="M 462.084375 64.938438 
L 472.084375 64.938438 
L 482.084375 64.938438 
" style="fill: none; stroke: #ff0000; stroke-width: 1.5; stroke-linecap: square"/>
    </g>
    <g id="text_23">
     <!-- loss -->
     <g transform="translate(490.084375 68.438438) scale(0.1 -0.1)">
      <use xlink:href="#DejaVuSans-6c"/>
      <use xlink:href="#DejaVuSans-6f" x="27.783203"/>
      <use xlink:href="#DejaVuSans-73" x="88.964844"/>
      <use xlink:href="#DejaVuSans-73" x="141.064453"/>
     </g>
    </g>
   </g>
  </g>
 </g>
 <defs>
  <clipPath id="pf8e7fdeb6c">
   <rect x="72" y="51.84" width="446.4" height="332.64"/>
  </clipPath>
 </defs>
</svg>
