<?xml version="1.0" encoding="utf-8" standalone="no"?>
<!DOCTYPE svg PUBLIC "-//W3C//DTD SVG 1.1//EN"
  "http://www.w3.org/Graphics/SVG/1.1/DTD/svg11.dtd">
<svg xmlns:xlink="http://www.w3.org/1999/xlink" width="576pt" height="432pt" viewBox="0 0 576 432" xmlns="http://www.w3.org/2000/svg" version="1.1">
 <metadata>
  <rdf:RDF xmlns:dc="http://purl.org/dc/elements/1.1/" xmlns:cc="http://creativecommons.org/ns#" xmlns:rdf="http://www.w3.org/1999/02/22-rdf-syntax-ns#">
   <cc:Work>
    <dc:type rdf:resource="http://purl.org/dc/dcmitype/StillImage"/>
    <dc:date>2023-04-13T09:22:55.325783</dc:date>
    <dc:format>image/svg+xml</dc:format>
    <dc:creator>
     <cc:Agent>
      <dc:title>Matplotlib v3.7.1, https://matplotlib.org/</dc:title>
     </cc:Agent>
    </dc:creator>
   </cc:Work>
  </rdf:RDF>
 </metadata>
 <defs>
  <style type="text/css">*{stroke-linejoin: round; stroke-linecap: butt}</style>
 </defs>
 <g id="figure_1">
  <g id="patch_1">
   <path d="M 0 432 
L 576 432 
L 576 0 
L 0 0 
z
" style="fill: #ffffff"/>
  </g>
  <g id="axes_1">
   <g id="patch_2">
    <path d="M 72 384.48 
L 518.4 384.48 
L 518.4 51.84 
L 72 51.84 
z
" style="fill: #ffffff"/>
   </g>
   <g id="matplotlib.axis_1">
    <g id="xtick_1">
     <g id="line2d_1">
      <defs>
       <path id="m74d8485f1b" d="M 0 0 
L 0 3.5 
" style="stroke: #000000; stroke-width: 0.8"/>
      </defs>
      <g>
       <use xlink:href="#m74d8485f1b" x="92.290909" y="384.48" style="stroke: #000000; stroke-width: 0.8"/>
      </g>
     </g>
     <g id="text_1">
      <!-- 0 -->
      <g transform="translate(89.109659 399.078438) scale(0.1 -0.1)">
       <defs>
        <path id="DejaVuSans-30" d="M 2034 4250 
Q 1547 4250 1301 3770 
Q 1056 3291 1056 2328 
Q 1056 1369 1301 889 
Q 1547 409 2034 409 
Q 2525 409 2770 889 
Q 3016 1369 3016 2328 
Q 3016 3291 2770 3770 
Q 2525 4250 2034 4250 
z
M 2034 4750 
Q 2819 4750 3233 4129 
Q 3647 3509 3647 2328 
Q 3647 1150 3233 529 
Q 2819 -91 2034 -91 
Q 1250 -91 836 529 
Q 422 1150 422 2328 
Q 422 3509 836 4129 
Q 1250 4750 2034 4750 
z
" transform="scale(0.015625)"/>
       </defs>
       <use xlink:href="#DejaVuSans-30"/>
      </g>
     </g>
    </g>
    <g id="xtick_2">
     <g id="line2d_2">
      <g>
       <use xlink:href="#m74d8485f1b" x="173.617198" y="384.48" style="stroke: #000000; stroke-width: 0.8"/>
      </g>
     </g>
     <g id="text_2">
      <!-- 100 -->
      <g transform="translate(164.073448 399.078438) scale(0.1 -0.1)">
       <defs>
        <path id="DejaVuSans-31" d="M 794 531 
L 1825 531 
L 1825 4091 
L 703 3866 
L 703 4441 
L 1819 4666 
L 2450 4666 
L 2450 531 
L 3481 531 
L 3481 0 
L 794 0 
L 794 531 
z
" transform="scale(0.015625)"/>
       </defs>
       <use xlink:href="#DejaVuSans-31"/>
       <use xlink:href="#DejaVuSans-30" x="63.623047"/>
       <use xlink:href="#DejaVuSans-30" x="127.246094"/>
      </g>
     </g>
    </g>
    <g id="xtick_3">
     <g id="line2d_3">
      <g>
       <use xlink:href="#m74d8485f1b" x="254.943487" y="384.48" style="stroke: #000000; stroke-width: 0.8"/>
      </g>
     </g>
     <g id="text_3">
      <!-- 200 -->
      <g transform="translate(245.399737 399.078438) scale(0.1 -0.1)">
       <defs>
        <path id="DejaVuSans-32" d="M 1228 531 
L 3431 531 
L 3431 0 
L 469 0 
L 469 531 
Q 828 903 1448 1529 
Q 2069 2156 2228 2338 
Q 2531 2678 2651 2914 
Q 2772 3150 2772 3378 
Q 2772 3750 2511 3984 
Q 2250 4219 1831 4219 
Q 1534 4219 1204 4116 
Q 875 4013 500 3803 
L 500 4441 
Q 881 4594 1212 4672 
Q 1544 4750 1819 4750 
Q 2544 4750 2975 4387 
Q 3406 4025 3406 3419 
Q 3406 3131 3298 2873 
Q 3191 2616 2906 2266 
Q 2828 2175 2409 1742 
Q 1991 1309 1228 531 
z
" transform="scale(0.015625)"/>
       </defs>
       <use xlink:href="#DejaVuSans-32"/>
       <use xlink:href="#DejaVuSans-30" x="63.623047"/>
       <use xlink:href="#DejaVuSans-30" x="127.246094"/>
      </g>
     </g>
    </g>
    <g id="xtick_4">
     <g id="line2d_4">
      <g>
       <use xlink:href="#m74d8485f1b" x="336.269776" y="384.48" style="stroke: #000000; stroke-width: 0.8"/>
      </g>
     </g>
     <g id="text_4">
      <!-- 300 -->
      <g transform="translate(326.726026 399.078438) scale(0.1 -0.1)">
       <defs>
        <path id="DejaVuSans-33" d="M 2597 2516 
Q 3050 2419 3304 2112 
Q 3559 1806 3559 1356 
Q 3559 666 3084 287 
Q 2609 -91 1734 -91 
Q 1441 -91 1130 -33 
Q 819 25 488 141 
L 488 750 
Q 750 597 1062 519 
Q 1375 441 1716 441 
Q 2309 441 2620 675 
Q 2931 909 2931 1356 
Q 2931 1769 2642 2001 
Q 2353 2234 1838 2234 
L 1294 2234 
L 1294 2753 
L 1863 2753 
Q 2328 2753 2575 2939 
Q 2822 3125 2822 3475 
Q 2822 3834 2567 4026 
Q 2313 4219 1838 4219 
Q 1578 4219 1281 4162 
Q 984 4106 628 3988 
L 628 4550 
Q 988 4650 1302 4700 
Q 1616 4750 1894 4750 
Q 2613 4750 3031 4423 
Q 3450 4097 3450 3541 
Q 3450 3153 3228 2886 
Q 3006 2619 2597 2516 
z
" transform="scale(0.015625)"/>
       </defs>
       <use xlink:href="#DejaVuSans-33"/>
       <use xlink:href="#DejaVuSans-30" x="63.623047"/>
       <use xlink:href="#DejaVuSans-30" x="127.246094"/>
      </g>
     </g>
    </g>
    <g id="xtick_5">
     <g id="line2d_5">
      <g>
       <use xlink:href="#m74d8485f1b" x="417.596065" y="384.48" style="stroke: #000000; stroke-width: 0.8"/>
      </g>
     </g>
     <g id="text_5">
      <!-- 400 -->
      <g transform="translate(408.052315 399.078438) scale(0.1 -0.1)">
       <defs>
        <path id="DejaVuSans-34" d="M 2419 4116 
L 825 1625 
L 2419 1625 
L 2419 4116 
z
M 2253 4666 
L 3047 4666 
L 3047 1625 
L 3713 1625 
L 3713 1100 
L 3047 1100 
L 3047 0 
L 2419 0 
L 2419 1100 
L 313 1100 
L 313 1709 
L 2253 4666 
z
" transform="scale(0.015625)"/>
       </defs>
       <use xlink:href="#DejaVuSans-34"/>
       <use xlink:href="#DejaVuSans-30" x="63.623047"/>
       <use xlink:href="#DejaVuSans-30" x="127.246094"/>
      </g>
     </g>
    </g>
    <g id="xtick_6">
     <g id="line2d_6">
      <g>
       <use xlink:href="#m74d8485f1b" x="498.922354" y="384.48" style="stroke: #000000; stroke-width: 0.8"/>
      </g>
     </g>
     <g id="text_6">
      <!-- 500 -->
      <g transform="translate(489.378604 399.078438) scale(0.1 -0.1)">
       <defs>
        <path id="DejaVuSans-35" d="M 691 4666 
L 3169 4666 
L 3169 4134 
L 1269 4134 
L 1269 2991 
Q 1406 3038 1543 3061 
Q 1681 3084 1819 3084 
Q 2600 3084 3056 2656 
Q 3513 2228 3513 1497 
Q 3513 744 3044 326 
Q 2575 -91 1722 -91 
Q 1428 -91 1123 -41 
Q 819 9 494 109 
L 494 744 
Q 775 591 1075 516 
Q 1375 441 1709 441 
Q 2250 441 2565 725 
Q 2881 1009 2881 1497 
Q 2881 1984 2565 2268 
Q 2250 2553 1709 2553 
Q 1456 2553 1204 2497 
Q 953 2441 691 2322 
L 691 4666 
z
" transform="scale(0.015625)"/>
       </defs>
       <use xlink:href="#DejaVuSans-35"/>
       <use xlink:href="#DejaVuSans-30" x="63.623047"/>
       <use xlink:href="#DejaVuSans-30" x="127.246094"/>
      </g>
     </g>
    </g>
    <g id="text_7">
     <!-- epoch -->
     <g transform="translate(279.971875 412.756563) scale(0.1 -0.1)">
      <defs>
       <path id="DejaVuSans-65" d="M 3597 1894 
L 3597 1613 
L 953 1613 
Q 991 1019 1311 708 
Q 1631 397 2203 397 
Q 2534 397 2845 478 
Q 3156 559 3463 722 
L 3463 178 
Q 3153 47 2828 -22 
Q 2503 -91 2169 -91 
Q 1331 -91 842 396 
Q 353 884 353 1716 
Q 353 2575 817 3079 
Q 1281 3584 2069 3584 
Q 2775 3584 3186 3129 
Q 3597 2675 3597 1894 
z
M 3022 2063 
Q 3016 2534 2758 2815 
Q 2500 3097 2075 3097 
Q 1594 3097 1305 2825 
Q 1016 2553 972 2059 
L 3022 2063 
z
" transform="scale(0.015625)"/>
       <path id="DejaVuSans-70" d="M 1159 525 
L 1159 -1331 
L 581 -1331 
L 581 3500 
L 1159 3500 
L 1159 2969 
Q 1341 3281 1617 3432 
Q 1894 3584 2278 3584 
Q 2916 3584 3314 3078 
Q 3713 2572 3713 1747 
Q 3713 922 3314 415 
Q 2916 -91 2278 -91 
Q 1894 -91 1617 61 
Q 1341 213 1159 525 
z
M 3116 1747 
Q 3116 2381 2855 2742 
Q 2594 3103 2138 3103 
Q 1681 3103 1420 2742 
Q 1159 2381 1159 1747 
Q 1159 1113 1420 752 
Q 1681 391 2138 391 
Q 2594 391 2855 752 
Q 3116 1113 3116 1747 
z
" transform="scale(0.015625)"/>
       <path id="DejaVuSans-6f" d="M 1959 3097 
Q 1497 3097 1228 2736 
Q 959 2375 959 1747 
Q 959 1119 1226 758 
Q 1494 397 1959 397 
Q 2419 397 2687 759 
Q 2956 1122 2956 1747 
Q 2956 2369 2687 2733 
Q 2419 3097 1959 3097 
z
M 1959 3584 
Q 2709 3584 3137 3096 
Q 3566 2609 3566 1747 
Q 3566 888 3137 398 
Q 2709 -91 1959 -91 
Q 1206 -91 779 398 
Q 353 888 353 1747 
Q 353 2609 779 3096 
Q 1206 3584 1959 3584 
z
" transform="scale(0.015625)"/>
       <path id="DejaVuSans-63" d="M 3122 3366 
L 3122 2828 
Q 2878 2963 2633 3030 
Q 2388 3097 2138 3097 
Q 1578 3097 1268 2742 
Q 959 2388 959 1747 
Q 959 1106 1268 751 
Q 1578 397 2138 397 
Q 2388 397 2633 464 
Q 2878 531 3122 666 
L 3122 134 
Q 2881 22 2623 -34 
Q 2366 -91 2075 -91 
Q 1284 -91 818 406 
Q 353 903 353 1747 
Q 353 2603 823 3093 
Q 1294 3584 2113 3584 
Q 2378 3584 2631 3529 
Q 2884 3475 3122 3366 
z
" transform="scale(0.015625)"/>
       <path id="DejaVuSans-68" d="M 3513 2113 
L 3513 0 
L 2938 0 
L 2938 2094 
Q 2938 2591 2744 2837 
Q 2550 3084 2163 3084 
Q 1697 3084 1428 2787 
Q 1159 2491 1159 1978 
L 1159 0 
L 581 0 
L 581 4863 
L 1159 4863 
L 1159 2956 
Q 1366 3272 1645 3428 
Q 1925 3584 2291 3584 
Q 2894 3584 3203 3211 
Q 3513 2838 3513 2113 
z
" transform="scale(0.015625)"/>
      </defs>
      <use xlink:href="#DejaVuSans-65"/>
      <use xlink:href="#DejaVuSans-70" x="61.523438"/>
      <use xlink:href="#DejaVuSans-6f" x="125"/>
      <use xlink:href="#DejaVuSans-63" x="186.181641"/>
      <use xlink:href="#DejaVuSans-68" x="241.162109"/>
     </g>
    </g>
   </g>
   <g id="matplotlib.axis_2">
    <g id="ytick_1">
     <g id="line2d_7">
      <defs>
       <path id="m6582626971" d="M 0 0 
L -3.5 0 
" style="stroke: #000000; stroke-width: 0.8"/>
      </defs>
      <g>
       <use xlink:href="#m6582626971" x="72" y="384.48" style="stroke: #000000; stroke-width: 0.8"/>
      </g>
     </g>
     <g id="text_8">
      <!-- 0.0 -->
      <g transform="translate(49.096875 388.279219) scale(0.1 -0.1)">
       <defs>
        <path id="DejaVuSans-2e" d="M 684 794 
L 1344 794 
L 1344 0 
L 684 0 
L 684 794 
z
" transform="scale(0.015625)"/>
       </defs>
       <use xlink:href="#DejaVuSans-30"/>
       <use xlink:href="#DejaVuSans-2e" x="63.623047"/>
       <use xlink:href="#DejaVuSans-30" x="95.410156"/>
      </g>
     </g>
    </g>
    <g id="ytick_2">
     <g id="line2d_8">
      <g>
       <use xlink:href="#m6582626971" x="72" y="317.952" style="stroke: #000000; stroke-width: 0.8"/>
      </g>
     </g>
     <g id="text_9">
      <!-- 0.2 -->
      <g transform="translate(49.096875 321.751219) scale(0.1 -0.1)">
       <use xlink:href="#DejaVuSans-30"/>
       <use xlink:href="#DejaVuSans-2e" x="63.623047"/>
       <use xlink:href="#DejaVuSans-32" x="95.410156"/>
      </g>
     </g>
    </g>
    <g id="ytick_3">
     <g id="line2d_9">
      <g>
       <use xlink:href="#m6582626971" x="72" y="251.424" style="stroke: #000000; stroke-width: 0.8"/>
      </g>
     </g>
     <g id="text_10">
      <!-- 0.4 -->
      <g transform="translate(49.096875 255.223219) scale(0.1 -0.1)">
       <use xlink:href="#DejaVuSans-30"/>
       <use xlink:href="#DejaVuSans-2e" x="63.623047"/>
       <use xlink:href="#DejaVuSans-34" x="95.410156"/>
      </g>
     </g>
    </g>
    <g id="ytick_4">
     <g id="line2d_10">
      <g>
       <use xlink:href="#m6582626971" x="72" y="184.896" style="stroke: #000000; stroke-width: 0.8"/>
      </g>
     </g>
     <g id="text_11">
      <!-- 0.6 -->
      <g transform="translate(49.096875 188.695219) scale(0.1 -0.1)">
       <defs>
        <path id="DejaVuSans-36" d="M 2113 2584 
Q 1688 2584 1439 2293 
Q 1191 2003 1191 1497 
Q 1191 994 1439 701 
Q 1688 409 2113 409 
Q 2538 409 2786 701 
Q 3034 994 3034 1497 
Q 3034 2003 2786 2293 
Q 2538 2584 2113 2584 
z
M 3366 4563 
L 3366 3988 
Q 3128 4100 2886 4159 
Q 2644 4219 2406 4219 
Q 1781 4219 1451 3797 
Q 1122 3375 1075 2522 
Q 1259 2794 1537 2939 
Q 1816 3084 2150 3084 
Q 2853 3084 3261 2657 
Q 3669 2231 3669 1497 
Q 3669 778 3244 343 
Q 2819 -91 2113 -91 
Q 1303 -91 875 529 
Q 447 1150 447 2328 
Q 447 3434 972 4092 
Q 1497 4750 2381 4750 
Q 2619 4750 2861 4703 
Q 3103 4656 3366 4563 
z
" transform="scale(0.015625)"/>
       </defs>
       <use xlink:href="#DejaVuSans-30"/>
       <use xlink:href="#DejaVuSans-2e" x="63.623047"/>
       <use xlink:href="#DejaVuSans-36" x="95.410156"/>
      </g>
     </g>
    </g>
    <g id="ytick_5">
     <g id="line2d_11">
      <g>
       <use xlink:href="#m6582626971" x="72" y="118.368" style="stroke: #000000; stroke-width: 0.8"/>
      </g>
     </g>
     <g id="text_12">
      <!-- 0.8 -->
      <g transform="translate(49.096875 122.167219) scale(0.1 -0.1)">
       <defs>
        <path id="DejaVuSans-38" d="M 2034 2216 
Q 1584 2216 1326 1975 
Q 1069 1734 1069 1313 
Q 1069 891 1326 650 
Q 1584 409 2034 409 
Q 2484 409 2743 651 
Q 3003 894 3003 1313 
Q 3003 1734 2745 1975 
Q 2488 2216 2034 2216 
z
M 1403 2484 
Q 997 2584 770 2862 
Q 544 3141 544 3541 
Q 544 4100 942 4425 
Q 1341 4750 2034 4750 
Q 2731 4750 3128 4425 
Q 3525 4100 3525 3541 
Q 3525 3141 3298 2862 
Q 3072 2584 2669 2484 
Q 3125 2378 3379 2068 
Q 3634 1759 3634 1313 
Q 3634 634 3220 271 
Q 2806 -91 2034 -91 
Q 1263 -91 848 271 
Q 434 634 434 1313 
Q 434 1759 690 2068 
Q 947 2378 1403 2484 
z
M 1172 3481 
Q 1172 3119 1398 2916 
Q 1625 2713 2034 2713 
Q 2441 2713 2670 2916 
Q 2900 3119 2900 3481 
Q 2900 3844 2670 4047 
Q 2441 4250 2034 4250 
Q 1625 4250 1398 4047 
Q 1172 3844 1172 3481 
z
" transform="scale(0.015625)"/>
       </defs>
       <use xlink:href="#DejaVuSans-30"/>
       <use xlink:href="#DejaVuSans-2e" x="63.623047"/>
       <use xlink:href="#DejaVuSans-38" x="95.410156"/>
      </g>
     </g>
    </g>
    <g id="ytick_6">
     <g id="line2d_12">
      <g>
       <use xlink:href="#m6582626971" x="72" y="51.84" style="stroke: #000000; stroke-width: 0.8"/>
      </g>
     </g>
     <g id="text_13">
      <!-- 1.0 -->
      <g transform="translate(49.096875 55.639219) scale(0.1 -0.1)">
       <use xlink:href="#DejaVuSans-31"/>
       <use xlink:href="#DejaVuSans-2e" x="63.623047"/>
       <use xlink:href="#DejaVuSans-30" x="95.410156"/>
      </g>
     </g>
    </g>
    <g id="text_14">
     <!-- rate -->
     <g transform="translate(43.017187 228.31625) rotate(-90) scale(0.1 -0.1)">
      <defs>
       <path id="DejaVuSans-72" d="M 2631 2963 
Q 2534 3019 2420 3045 
Q 2306 3072 2169 3072 
Q 1681 3072 1420 2755 
Q 1159 2438 1159 1844 
L 1159 0 
L 581 0 
L 581 3500 
L 1159 3500 
L 1159 2956 
Q 1341 3275 1631 3429 
Q 1922 3584 2338 3584 
Q 2397 3584 2469 3576 
Q 2541 3569 2628 3553 
L 2631 2963 
z
" transform="scale(0.015625)"/>
       <path id="DejaVuSans-61" d="M 2194 1759 
Q 1497 1759 1228 1600 
Q 959 1441 959 1056 
Q 959 750 1161 570 
Q 1363 391 1709 391 
Q 2188 391 2477 730 
Q 2766 1069 2766 1631 
L 2766 1759 
L 2194 1759 
z
M 3341 1997 
L 3341 0 
L 2766 0 
L 2766 531 
Q 2569 213 2275 61 
Q 1981 -91 1556 -91 
Q 1019 -91 701 211 
Q 384 513 384 1019 
Q 384 1609 779 1909 
Q 1175 2209 1959 2209 
L 2766 2209 
L 2766 2266 
Q 2766 2663 2505 2880 
Q 2244 3097 1772 3097 
Q 1472 3097 1187 3025 
Q 903 2953 641 2809 
L 641 3341 
Q 956 3463 1253 3523 
Q 1550 3584 1831 3584 
Q 2591 3584 2966 3190 
Q 3341 2797 3341 1997 
z
" transform="scale(0.015625)"/>
       <path id="DejaVuSans-74" d="M 1172 4494 
L 1172 3500 
L 2356 3500 
L 2356 3053 
L 1172 3053 
L 1172 1153 
Q 1172 725 1289 603 
Q 1406 481 1766 481 
L 2356 481 
L 2356 0 
L 1766 0 
Q 1100 0 847 248 
Q 594 497 594 1153 
L 594 3053 
L 172 3053 
L 172 3500 
L 594 3500 
L 594 4494 
L 1172 4494 
z
" transform="scale(0.015625)"/>
      </defs>
      <use xlink:href="#DejaVuSans-72"/>
      <use xlink:href="#DejaVuSans-61" x="41.113281"/>
      <use xlink:href="#DejaVuSans-74" x="102.392578"/>
      <use xlink:href="#DejaVuSans-65" x="141.601562"/>
     </g>
    </g>
   </g>
   <g id="line2d_13">
    <path d="M 92.290909 372.311671 
L 93.104172 373.190201 
L 93.917435 363.770895 
L 94.730698 301.32 
L 95.543961 207.071991 
L 96.357224 156.884206 
L 97.170486 137.132303 
L 97.983749 149.675288 
L 98.797012 127.871995 
L 99.610275 118.367996 
L 100.423538 212.000004 
L 101.236801 191.548806 
L 102.050064 179.778454 
L 102.863327 174.034287 
L 103.67659 162.719993 
L 104.489852 162.719993 
L 105.303115 167.877205 
L 106.116378 139.376845 
L 106.929641 145.661533 
L 107.742904 137.375995 
L 108.556167 157.311218 
L 109.36943 151.632004 
L 110.182693 156.884206 
L 110.995956 146.879994 
L 111.809218 131.039995 
L 112.622481 126.684008 
L 113.435744 137.132303 
L 115.06227 110.052004 
L 115.875533 123.911991 
L 116.688796 171.590405 
L 117.502059 155.327994 
L 118.315322 144.240004 
L 119.128584 123.762159 
L 119.941847 115.199996 
L 120.75511 131.384349 
L 121.568373 105.062409 
L 122.381636 105.062409 
L 123.194899 111.82427 
L 124.008162 130.623155 
L 124.821425 167.877205 
L 125.634688 142.559993 
L 126.44795 142.559993 
L 127.261213 133.151995 
L 128.074476 98.409595 
L 128.887739 106.371142 
L 129.701002 107.280007 
L 130.514265 86.854742 
L 131.327528 98.040002 
L 132.140791 94.887527 
L 132.954054 152.40559 
L 133.767316 141.929993 
L 134.580579 110.541173 
L 135.393842 94.959994 
L 136.207105 103.815 
L 137.020368 92.780305 
L 137.833631 89.320573 
L 138.646894 83.305947 
L 139.460157 73.724206 
L 140.27342 68.898461 
L 141.086682 150.924263 
L 141.899945 141.929993 
L 142.713208 103.015382 
L 143.526471 111.239992 
L 144.339734 88.799998 
L 145.152997 77.103799 
L 145.96626 75.600008 
L 146.779523 76.179509 
L 147.592786 87.22723 
L 148.406048 64.633855 
L 149.219311 140.543995 
L 150.032574 131.384349 
L 150.845837 116.033677 
L 151.6591 96.943734 
L 152.472363 82.079991 
L 153.285626 69.82055 
L 154.098889 63.580235 
L 154.912152 87.060704 
L 155.725414 74.015999 
L 156.538677 75.389744 
L 157.35194 151.632004 
L 158.978466 72.959999 
L 159.791729 87.662767 
L 160.604992 78.451194 
L 161.418255 63.719994 
L 162.231518 65.279994 
L 163.04478 74.894251 
L 163.858043 76.253939 
L 164.671306 81.190596 
L 165.484569 136.409494 
L 166.297832 111.715202 
L 167.111095 91.986199 
L 167.924358 82.079991 
L 168.737621 69.347361 
L 170.364146 63.82702 
L 171.177409 64.159993 
L 171.990672 62.836369 
L 172.803935 59.575818 
L 173.617198 100.349993 
L 174.430461 93.42 
L 175.243724 77.039996 
L 176.87025 85.104008 
L 177.683512 72.373341 
L 179.310038 80.76521 
L 180.123301 61.623539 
L 180.936564 62.127836 
L 181.749827 115.809237 
L 182.56309 82.079991 
L 183.376353 115.809237 
L 184.189616 84.693334 
L 185.002878 69.82055 
L 186.629404 72.122927 
L 187.442667 63.180009 
L 188.25593 58.769993 
L 189.069193 83.824618 
L 189.882456 126.397232 
L 190.695719 76.944906 
L 191.508982 67.935488 
L 192.322244 64.970536 
L 193.135507 59.855416 
L 193.94877 78.101052 
L 194.762033 69.164993 
L 195.575296 65.845893 
L 196.388559 74.668244 
L 197.201822 76.350317 
L 198.015085 116.033677 
L 198.828348 118.367996 
L 199.64161 74.939991 
L 200.454873 78.101052 
L 201.268136 78.915342 
L 202.081399 79.233881 
L 202.894662 73.772306 
L 203.707925 75.886269 
L 204.521188 59.315054 
L 205.334451 59.575818 
L 206.147714 113.440003 
L 206.960976 74.391857 
L 207.774239 76.66388 
L 208.587502 72.122927 
L 209.400765 76.480005 
L 210.214028 65.325397 
L 211.027291 70.957245 
L 211.840554 70.116922 
L 212.653817 66.790109 
L 213.46708 58.842956 
L 214.280343 126.51429 
L 215.093605 75.183148 
L 215.906868 96.791344 
L 216.720131 74.315682 
L 217.533394 61.080004 
L 218.346657 71.179544 
L 219.15992 55.341468 
L 219.973183 68.986393 
L 220.786446 66.302605 
L 221.599709 66.623999 
L 222.412971 97.496468 
L 223.226234 79.559993 
L 224.039497 75.944342 
L 224.85276 70.320009 
L 225.666023 68.898461 
L 226.479286 63.310351 
L 227.292549 76.480005 
L 228.105812 63.310351 
L 228.919075 65.279994 
L 229.732337 66.461538 
L 230.5456 105.491621 
L 231.358863 94.175999 
L 232.172126 84.635499 
L 232.985389 56.275196 
L 233.798652 71.878561 
L 234.611915 81.740218 
L 235.425178 67.870853 
L 236.238441 68.986393 
L 237.051703 59.315054 
L 237.864966 55.234284 
L 238.678229 114.21 
L 239.491492 83.519998 
L 240.304755 92.850413 
L 241.118018 78.810815 
L 241.931281 66.960005 
L 242.744544 62.928009 
L 243.557807 69.918257 
L 244.371069 62.456169 
L 245.184332 67.133788 
L 245.997595 59.486894 
L 246.810858 112.320002 
L 247.624121 100.918034 
L 248.437384 100.627193 
L 249.250647 73.163086 
L 250.06391 81.740218 
L 250.877173 71.640004 
L 251.690435 76.611061 
L 252.503698 55.53601 
L 253.316961 55.341468 
L 254.130224 72.848849 
L 254.943487 93.42 
L 255.75675 97.721384 
L 256.570013 76.66388 
L 257.383276 69.580803 
L 258.196539 68.898461 
L 259.009801 76.179509 
L 259.823064 58.993542 
L 260.636327 62.127836 
L 261.44959 76.611061 
L 262.262853 70.740002 
L 263.076116 90.648003 
L 263.889379 74.015999 
L 264.702642 86.082346 
L 265.515905 66.515288 
L 266.329167 77.149559 
L 267.14243 59.071303 
L 267.955693 55.53601 
L 268.768956 59.071303 
L 269.582219 61.080004 
L 270.395482 65.013857 
L 271.208745 67.4325 
L 272.022008 85.586079 
L 272.835271 69.347361 
L 273.648533 69.347361 
L 274.461796 70.116922 
L 275.275059 71.407058 
L 276.088322 64.159993 
L 277.714848 59.486894 
L 278.528111 55.341468 
L 279.341374 92.780305 
L 280.154637 93.42 
L 280.967899 70.580276 
L 281.781162 103.940246 
L 282.594425 67.679999 
L 283.407688 59.232 
L 284.220951 73.072338 
L 285.034214 72.122927 
L 285.847477 55.455651 
L 286.66074 62.022852 
L 287.474003 76.944906 
L 288.287265 84.635499 
L 289.100528 75.26535 
L 289.913791 64.009764 
L 290.727054 56.275196 
L 291.540317 55.896581 
L 292.35358 64.009764 
L 293.166843 76.095007 
L 293.980106 51.84 
L 294.793369 63.052582 
L 295.606631 96.191997 
L 296.419894 67.4325 
L 297.233157 87.321606 
L 298.04642 67.870853 
L 298.859683 62.570332 
L 299.672946 68.266657 
L 300.486209 71.217096 
L 301.299472 69.533615 
L 302.112735 78.00269 
L 302.925997 58.993542 
L 303.73926 83.025 
L 304.552523 83.025 
L 305.365786 83.305947 
L 306.179049 77.103799 
L 307.805575 55.341468 
L 308.618838 71.179544 
L 309.432101 51.84 
L 310.245363 72.373341 
L 311.058626 55.341468 
L 311.871889 76.298827 
L 312.685152 79.180269 
L 313.498415 68.266657 
L 314.311678 69.347361 
L 315.124941 73.440008 
L 315.938204 85.525072 
L 316.751467 67.987574 
L 317.564729 55.416771 
L 318.377992 61.81919 
L 319.191255 55.200003 
L 320.004518 94.761289 
L 320.817781 80.351998 
L 321.631044 56.460002 
L 322.444307 69.347361 
L 323.25757 85.525072 
L 324.070833 75.320469 
L 325.697358 58.917446 
L 326.510621 67.133788 
L 327.323884 72.205705 
L 328.137147 72.310153 
L 328.95041 94.079997 
L 329.763673 68.472004 
L 330.576936 96.191997 
L 331.390199 67.493646 
L 332.203461 59.666823 
L 333.016724 55.53601 
L 333.829987 55.997996 
L 334.64325 58.560007 
L 335.456513 66.960005 
L 336.269776 94.079997 
L 337.083039 100.048704 
L 337.896302 82.477897 
L 338.709565 80.945992 
L 339.522827 68.898461 
L 340.33609 69.347361 
L 341.149353 63.052582 
L 341.962616 73.772306 
L 342.775879 58.917446 
L 343.589142 67.311635 
L 344.402405 83.519998 
L 345.215668 74.623554 
L 346.028931 72.63 
L 346.842193 80.586669 
L 347.655456 59.760009 
L 348.468719 77.712008 
L 349.281982 60.480003 
L 350.095245 69.723874 
L 350.908508 65.700007 
L 351.721771 55.133464 
L 352.535034 73.300645 
L 353.348297 71.699108 
L 354.161559 70.847999 
L 354.974822 59.760009 
L 355.788085 69.347361 
L 356.601348 80.586669 
L 357.414611 79.893977 
L 358.227874 69.164993 
L 359.041137 55.663457 
L 359.8544 63.310351 
L 360.667663 103.815 
L 361.480925 82.079991 
L 362.294188 83.305947 
L 363.107451 72.893162 
L 363.920714 66.147103 
L 364.733977 67.493646 
L 365.54724 63.180009 
L 367.173766 82.703507 
L 367.987029 73.772306 
L 368.800291 92.296212 
L 369.613554 87.801079 
L 370.426817 73.440008 
L 371.24008 72.893162 
L 372.053343 56.731769 
L 372.866606 60.710392 
L 373.679869 66.302605 
L 374.493132 68.472004 
L 375.306395 63.180009 
L 376.119657 59.760009 
L 376.93292 76.298827 
L 377.746183 67.4325 
L 378.559446 76.787996 
L 379.372709 64.009764 
L 380.185972 64.471889 
L 380.999235 71.640004 
L 381.812498 75.320469 
L 382.625761 61.720393 
L 383.439024 68.472004 
L 384.252286 66.147103 
L 385.065549 72.959999 
L 385.878812 74.939991 
L 386.692075 78.810815 
L 387.505338 65.145607 
L 388.318601 68.682526 
L 389.131864 66.960005 
L 390.75839 51.84 
L 391.571652 69.533615 
L 392.384915 60.261273 
L 393.198178 108.219662 
L 394.011441 64.800005 
L 394.824704 68.898461 
L 395.637967 60.830265 
L 396.45123 56.460002 
L 397.264493 70.957245 
L 398.077756 78.299995 
L 398.891018 77.103799 
L 399.704281 62.456169 
L 400.517544 69.580803 
L 401.330807 103.375775 
L 402.14407 85.956921 
L 402.957333 74.939991 
L 403.770596 76.480005 
L 404.583859 82.477897 
L 405.397122 79.559993 
L 407.023647 63.863125 
L 407.83691 72.373341 
L 408.650173 59.760009 
L 409.463436 94.608007 
L 410.276699 72.310153 
L 411.089962 81.628652 
L 411.903225 72.122927 
L 412.716488 74.015999 
L 413.52975 66.096009 
L 414.343013 59.399993 
L 415.156276 64.800005 
L 415.969539 59.232 
L 416.782802 71.407058 
L 417.596065 94.608007 
L 418.409328 70.580276 
L 419.222591 93.42 
L 420.035854 84.292692 
L 420.849116 64.970536 
L 421.662379 70.527636 
L 422.475642 79.559993 
L 423.288905 72.893162 
L 424.102168 68.682526 
L 424.915431 55.495384 
L 425.728694 90.406947 
L 426.541957 92.160001 
L 427.35522 81.314435 
L 428.168482 65.510144 
L 428.981745 67.870853 
L 429.795008 79.950424 
L 430.608271 55.896581 
L 431.421534 70.740002 
L 432.234797 70.847999 
L 433.04806 72.373341 
L 433.861323 96.191997 
L 434.674586 110.856777 
L 435.487848 78.239998 
L 436.301111 83.025 
L 437.114374 63.863125 
L 438.7409 70.116922 
L 439.554163 60.155992 
L 440.367426 74.623554 
L 441.180689 70.740002 
L 441.993952 85.104008 
L 442.807214 78.665801 
L 443.620477 64.633855 
L 444.43374 80.351998 
L 445.247003 89.855998 
L 446.060266 86.399993 
L 446.873529 72.122927 
L 447.686792 71.407058 
L 448.500055 68.066346 
L 449.313318 55.53601 
L 450.12658 78.239998 
L 450.939843 74.623554 
L 451.753106 85.586079 
L 452.566369 61.343999 
L 453.379632 89.320573 
L 454.192895 74.315682 
L 455.006158 68.066346 
L 455.819421 67.870853 
L 456.632684 73.072338 
L 457.445946 59.855416 
L 458.259209 82.545229 
L 459.072472 82.079991 
L 459.885735 82.477897 
L 460.698998 90.974115 
L 461.512261 71.640004 
L 462.325524 71.179544 
L 463.138787 71.123474 
L 463.95205 69.347361 
L 464.765312 78.604139 
L 465.578575 63.443726 
L 466.391838 82.545229 
L 467.205101 83.305947 
L 468.018364 79.180269 
L 468.831627 78.239998 
L 469.64489 77.760009 
L 470.458153 85.956921 
L 471.271416 79.559993 
L 472.084678 86.854742 
L 472.897941 71.878561 
L 473.711204 75.84495 
L 474.524467 86.593424 
L 475.33773 72.959999 
L 476.150993 81.628652 
L 476.964256 74.623554 
L 477.777519 69.580803 
L 478.590782 83.305947 
L 479.404044 60.155992 
L 480.217307 95.399992 
L 481.03057 67.133788 
L 481.843833 72.63 
L 482.657096 86.399993 
L 483.470359 75.600008 
L 484.283622 80.23609 
L 485.096885 90.406947 
L 485.910148 75.26535 
L 486.72341 90.719994 
L 487.536673 69.580803 
L 488.349936 69.347361 
L 489.163199 72.373341 
L 489.976462 65.510144 
L 490.789725 93.42 
L 491.602988 84.179996 
L 492.416251 68.472004 
L 493.229514 68.472004 
L 494.042776 66.096009 
L 494.856039 80.586669 
L 495.669302 64.314008 
L 496.482565 59.575818 
L 497.295828 63.580235 
L 498.109091 60.36923 
L 498.109091 60.36923 
" clip-path="url(#pf2371a4084)" style="fill: none; stroke: #0000ff; stroke-width: 1.5; stroke-linecap: square"/>
   </g>
   <g id="line2d_14">
    <path d="M 92.290909 177.326938 
L 93.104172 247.041918 
L 93.917435 288.870895 
L 94.730698 316.756889 
L 95.543961 336.675447 
L 96.357224 332.691735 
L 97.170486 326.716168 
L 97.983749 336.675447 
L 98.797012 330.699881 
L 99.610275 328.708022 
L 100.423538 328.708022 
L 101.236801 326.716168 
L 102.050064 320.740596 
L 103.67659 324.724309 
L 104.489852 324.724309 
L 105.303115 328.708022 
L 106.929641 328.708022 
L 107.742904 332.691735 
L 108.556167 328.708022 
L 109.36943 328.708022 
L 110.182693 332.691735 
L 110.995956 324.724309 
L 111.809218 320.740596 
L 112.622481 322.732455 
L 113.435744 326.716168 
L 114.249007 312.773176 
L 115.06227 318.748743 
L 115.875533 290.862753 
L 116.688796 320.740596 
L 117.502059 322.732455 
L 118.315322 332.691735 
L 119.128584 326.716168 
L 119.941847 316.756889 
L 120.75511 314.76503 
L 121.568373 300.822038 
L 122.381636 300.822038 
L 124.008162 268.952336 
L 124.821425 328.708022 
L 125.634688 320.740596 
L 126.44795 320.740596 
L 127.261213 316.756889 
L 128.887739 282.895328 
L 129.701002 274.927903 
L 130.514265 249.033777 
L 131.327528 260.984911 
L 132.140791 237.082634 
L 132.954054 324.724309 
L 133.767316 314.76503 
L 134.580579 300.822038 
L 135.393842 290.862753 
L 136.207105 276.919761 
L 137.020368 270.944195 
L 137.833631 258.993052 
L 139.460157 243.058201 
L 140.27342 237.082634 
L 141.086682 318.748743 
L 141.899945 314.76503 
L 142.713208 296.83832 
L 143.526471 292.854612 
L 144.339734 272.936044 
L 145.152997 239.074493 
L 145.96626 229.115209 
L 146.779523 233.098926 
L 147.592786 217.164076 
L 148.406048 185.294374 
L 149.219311 318.748743 
L 150.032574 314.76503 
L 150.845837 292.854612 
L 151.6591 282.895328 
L 153.285626 245.05006 
L 154.098889 221.147783 
L 154.912152 233.098926 
L 155.725414 189.278091 
L 156.538677 175.335089 
L 157.35194 314.76503 
L 158.165203 298.830179 
L 158.978466 266.960477 
L 159.791729 268.952336 
L 161.418255 223.139642 
L 162.231518 195.253658 
L 163.04478 197.245507 
L 163.858043 183.302525 
L 164.671306 199.237356 
L 165.484569 296.83832 
L 166.297832 302.813892 
L 168.737621 241.066352 
L 169.550884 213.180358 
L 170.364146 171.351372 
L 171.177409 177.326938 
L 171.990672 151.432823 
L 172.803935 133.506103 
L 173.617198 302.813892 
L 174.430461 286.879046 
L 175.243724 262.976769 
L 176.87025 258.993052 
L 177.683512 233.098926 
L 178.496775 235.090775 
L 179.310038 217.164076 
L 180.123301 187.286223 
L 180.936564 197.245507 
L 181.749827 300.822038 
L 182.56309 284.887187 
L 183.376353 300.822038 
L 184.189616 239.074493 
L 185.002878 245.05006 
L 185.816141 221.147783 
L 186.629404 231.107068 
L 188.25593 197.245507 
L 189.069193 197.245507 
L 189.882456 294.846471 
L 190.695719 286.879046 
L 191.508982 266.960477 
L 192.322244 239.074493 
L 193.135507 223.139642 
L 193.94877 245.05006 
L 194.762033 203.221074 
L 195.575296 203.221074 
L 196.388559 195.253658 
L 197.201822 209.19664 
L 198.015085 292.854612 
L 198.828348 288.870895 
L 199.64161 251.025626 
L 200.454873 245.05006 
L 201.268136 227.12335 
L 202.081399 229.115209 
L 202.894662 215.172207 
L 203.707925 231.107068 
L 204.521188 211.188509 
L 205.334451 217.164076 
L 206.147714 296.83832 
L 206.960976 274.927903 
L 207.774239 260.984911 
L 208.587502 231.107068 
L 209.400765 235.090775 
L 210.214028 243.058201 
L 211.027291 221.147783 
L 211.840554 213.180358 
L 212.653817 215.172207 
L 213.46708 199.237356 
L 214.280343 308.789463 
L 215.093605 278.91162 
L 215.906868 257.001193 
L 216.720131 247.041918 
L 217.533394 245.05006 
L 218.346657 223.139642 
L 219.15992 197.245507 
L 219.973183 201.229225 
L 220.786446 209.19664 
L 221.599709 213.180358 
L 222.412971 296.83832 
L 223.226234 274.927903 
L 224.039497 257.001193 
L 224.85276 249.033777 
L 225.666023 237.082634 
L 226.479286 217.164076 
L 227.292549 235.090775 
L 228.105812 217.164076 
L 228.919075 195.253658 
L 229.732337 211.188509 
L 230.5456 280.903469 
L 231.358863 288.870895 
L 232.172126 257.001193 
L 232.985389 237.082634 
L 233.798652 229.115209 
L 234.611915 223.139642 
L 235.425178 227.12335 
L 236.238441 201.229225 
L 237.051703 211.188509 
L 237.864966 191.26994 
L 238.678229 280.903469 
L 239.491492 270.944195 
L 240.304755 257.001193 
L 241.118018 249.033777 
L 241.931281 217.164076 
L 242.744544 211.188509 
L 243.557807 211.188509 
L 244.371069 203.221074 
L 245.184332 219.155924 
L 245.997595 215.172207 
L 246.810858 294.846471 
L 247.624121 280.903469 
L 248.437384 257.001193 
L 250.06391 223.139642 
L 250.877173 227.12335 
L 251.690435 211.188509 
L 252.503698 207.204791 
L 253.316961 197.245507 
L 254.130224 207.204791 
L 254.943487 272.936044 
L 255.75675 284.887187 
L 256.570013 260.984911 
L 257.383276 243.058201 
L 258.196539 237.082634 
L 259.009801 233.098926 
L 259.823064 203.221074 
L 260.636327 197.245507 
L 261.44959 211.188509 
L 262.262853 219.155924 
L 263.076116 278.91162 
L 263.889379 272.936044 
L 264.702642 262.976769 
L 265.515905 255.009344 
L 266.329167 215.172207 
L 267.14243 205.212942 
L 267.955693 207.204791 
L 268.768956 205.212942 
L 269.582219 175.335089 
L 270.395482 191.26994 
L 271.208745 262.976769 
L 272.022008 260.984911 
L 272.835271 241.066352 
L 273.648533 241.066352 
L 274.461796 213.180358 
L 275.275059 225.131501 
L 276.088322 229.115209 
L 276.901585 193.261789 
L 277.714848 215.172207 
L 278.528111 197.245507 
L 279.341374 270.944195 
L 280.154637 272.936044 
L 280.967899 251.025626 
L 281.781162 245.05006 
L 282.594425 225.131501 
L 283.407688 209.19664 
L 284.220951 209.19664 
L 285.034214 231.107068 
L 285.847477 203.221074 
L 286.66074 195.253658 
L 287.474003 286.879046 
L 288.287265 257.001193 
L 289.100528 253.017485 
L 289.913791 227.12335 
L 290.727054 237.082634 
L 291.540317 223.139642 
L 292.35358 227.12335 
L 293.166843 207.204791 
L 293.980106 203.221074 
L 294.793369 213.180358 
L 295.606631 280.903469 
L 296.419894 262.976769 
L 297.233157 251.025626 
L 298.859683 205.212942 
L 299.672946 231.107068 
L 300.486209 191.26994 
L 302.112735 221.147783 
L 302.925997 203.221074 
L 303.73926 268.952336 
L 304.552523 268.952336 
L 305.365786 251.025626 
L 306.179049 239.074493 
L 306.992312 249.033777 
L 307.805575 197.245507 
L 308.618838 223.139642 
L 309.432101 211.188509 
L 310.245363 233.098926 
L 311.058626 197.245507 
L 311.871889 258.993052 
L 312.685152 251.025626 
L 313.498415 231.107068 
L 314.311678 241.066352 
L 315.124941 241.066352 
L 315.938204 243.058201 
L 316.751467 189.278091 
L 317.564729 201.229225 
L 318.377992 191.26994 
L 319.191255 189.278091 
L 320.004518 276.919761 
L 320.817781 257.001193 
L 321.631044 243.058201 
L 322.444307 241.066352 
L 323.25757 243.058201 
L 324.884095 213.180358 
L 325.697358 201.229225 
L 326.510621 219.155924 
L 327.323884 201.229225 
L 328.137147 262.976769 
L 328.95041 274.927903 
L 329.763673 233.098926 
L 330.576936 255.009344 
L 331.390199 223.139642 
L 332.203461 219.155924 
L 333.016724 207.204791 
L 333.829987 227.12335 
L 334.64325 191.26994 
L 335.456513 217.164076 
L 336.269776 274.927903 
L 337.083039 266.960477 
L 337.896302 247.041918 
L 338.709565 239.074493 
L 339.522827 237.082634 
L 340.33609 241.066352 
L 341.149353 213.180358 
L 341.962616 215.172207 
L 342.775879 201.229225 
L 343.589142 221.147783 
L 344.402405 270.944195 
L 345.215668 249.033777 
L 346.028931 235.090775 
L 346.842193 237.082634 
L 347.655456 221.147783 
L 348.468719 219.155924 
L 349.281982 235.090775 
L 350.095245 209.19664 
L 350.908508 201.229225 
L 351.721771 185.294374 
L 352.535034 268.952336 
L 353.348297 258.993052 
L 354.161559 253.017485 
L 354.974822 221.147783 
L 355.788085 241.066352 
L 357.414611 233.098926 
L 358.227874 203.221074 
L 359.041137 213.180358 
L 359.8544 217.164076 
L 360.667663 276.919761 
L 361.480925 245.05006 
L 362.294188 251.025626 
L 363.107451 237.082634 
L 363.920714 207.204791 
L 364.733977 223.139642 
L 365.54724 215.172207 
L 366.360503 235.090775 
L 367.173766 209.19664 
L 367.987029 215.172207 
L 368.800291 255.009344 
L 369.613554 253.017485 
L 370.426817 241.066352 
L 371.24008 237.082634 
L 372.053343 251.025626 
L 372.866606 239.074493 
L 373.679869 209.19664 
L 374.493132 233.098926 
L 375.306395 215.172207 
L 376.119657 221.147783 
L 376.93292 258.993052 
L 377.746183 262.976769 
L 378.559446 237.082634 
L 379.372709 227.12335 
L 380.185972 233.098926 
L 380.999235 227.12335 
L 381.812498 227.12335 
L 382.625761 189.278091 
L 383.439024 233.098926 
L 384.252286 207.204791 
L 385.065549 266.960477 
L 385.878812 251.025626 
L 386.692075 249.033777 
L 387.505338 241.066352 
L 388.318601 235.090775 
L 389.131864 217.164076 
L 389.945127 209.19664 
L 390.75839 207.204791 
L 391.571652 207.204791 
L 392.384915 231.107068 
L 393.198178 286.879046 
L 394.011441 237.082634 
L 394.824704 237.082634 
L 395.637967 241.066352 
L 396.45123 243.058201 
L 397.264493 221.147783 
L 398.077756 223.139642 
L 398.891018 239.074493 
L 399.704281 203.221074 
L 400.517544 243.058201 
L 401.330807 264.968618 
L 402.14407 245.05006 
L 402.957333 251.025626 
L 403.770596 235.090775 
L 404.583859 247.041918 
L 405.397122 231.107068 
L 406.210384 231.107068 
L 407.023647 225.131501 
L 407.83691 233.098926 
L 408.650173 221.147783 
L 409.463436 262.976769 
L 411.089962 262.976769 
L 411.903225 231.107068 
L 412.716488 245.05006 
L 413.52975 251.025626 
L 414.343013 213.180358 
L 415.156276 237.082634 
L 415.969539 209.19664 
L 416.782802 225.131501 
L 417.596065 262.976769 
L 418.409328 251.025626 
L 419.222591 258.993052 
L 420.035854 237.082634 
L 420.849116 239.074493 
L 421.662379 217.164076 
L 422.475642 231.107068 
L 423.288905 237.082634 
L 424.102168 235.090775 
L 424.915431 205.212942 
L 425.728694 262.976769 
L 426.541957 268.952336 
L 427.35522 241.066352 
L 428.168482 245.05006 
L 428.981745 227.12335 
L 429.795008 255.009344 
L 430.608271 223.139642 
L 431.421534 219.155924 
L 432.234797 253.017485 
L 433.04806 233.098926 
L 433.861323 255.009344 
L 434.674586 282.895328 
L 435.487848 268.952336 
L 436.301111 268.952336 
L 437.114374 225.131501 
L 438.7409 213.180358 
L 439.554163 229.115209 
L 440.367426 249.033777 
L 441.180689 219.155924 
L 441.993952 258.993052 
L 442.807214 270.944195 
L 443.620477 235.090775 
L 444.43374 257.001193 
L 445.247003 260.984911 
L 446.060266 247.041918 
L 446.873529 231.107068 
L 447.686792 225.131501 
L 448.500055 229.115209 
L 449.313318 207.204791 
L 450.12658 268.952336 
L 450.939843 249.033777 
L 451.753106 260.984911 
L 452.566369 249.033777 
L 453.379632 258.993052 
L 454.192895 247.041918 
L 455.006158 229.115209 
L 455.819421 227.12335 
L 456.632684 209.19664 
L 457.445946 223.139642 
L 458.259209 266.960477 
L 459.072472 264.968618 
L 459.885735 247.041918 
L 460.698998 264.968618 
L 461.512261 227.12335 
L 462.325524 223.139642 
L 463.138787 255.009344 
L 463.95205 241.066352 
L 464.765312 225.131501 
L 465.578575 219.155924 
L 466.391838 266.960477 
L 467.205101 251.025626 
L 468.018364 251.025626 
L 468.831627 268.952336 
L 469.64489 243.058201 
L 470.458153 245.05006 
L 471.271416 231.107068 
L 472.084678 249.033777 
L 472.897941 229.115209 
L 473.711204 205.212942 
L 474.524467 264.968618 
L 475.33773 266.960477 
L 476.150993 262.976769 
L 476.964256 249.033777 
L 477.777519 243.058201 
L 478.590782 251.025626 
L 479.404044 229.115209 
L 480.217307 239.074493 
L 481.03057 219.155924 
L 481.843833 235.090775 
L 482.657096 247.041918 
L 483.470359 255.009344 
L 484.283622 235.090775 
L 485.096885 262.976769 
L 485.910148 253.017485 
L 486.72341 249.033777 
L 487.536673 243.058201 
L 488.349936 241.066352 
L 489.163199 233.098926 
L 489.976462 245.05006 
L 490.789725 258.993052 
L 491.602988 255.009344 
L 492.416251 233.098926 
L 493.229514 233.098926 
L 494.042776 251.025626 
L 494.856039 237.082634 
L 495.669302 231.107068 
L 496.482565 217.164076 
L 497.295828 221.147783 
L 498.109091 233.098926 
L 498.109091 233.098926 
" clip-path="url(#pf2371a4084)" style="fill: none; stroke: #008000; stroke-width: 1.5; stroke-linecap: square"/>
   </g>
   <g id="patch_3">
    <path d="M 72 384.48 
L 72 51.84 
" style="fill: none; stroke: #000000; stroke-width: 0.8; stroke-linejoin: miter; stroke-linecap: square"/>
   </g>
   <g id="patch_4">
    <path d="M 518.4 384.48 
L 518.4 51.84 
" style="fill: none; stroke: #000000; stroke-width: 0.8; stroke-linejoin: miter; stroke-linecap: square"/>
   </g>
   <g id="patch_5">
    <path d="M 72 384.48 
L 518.4 384.48 
" style="fill: none; stroke: #000000; stroke-width: 0.8; stroke-linejoin: miter; stroke-linecap: square"/>
   </g>
   <g id="patch_6">
    <path d="M 72 51.84 
L 518.4 51.84 
" style="fill: none; stroke: #000000; stroke-width: 0.8; stroke-linejoin: miter; stroke-linecap: square"/>
   </g>
   <g id="legend_1">
    <g id="patch_7">
     <path d="M 79 89.19625 
L 156.107812 89.19625 
Q 158.107812 89.19625 158.107812 87.19625 
L 158.107812 58.84 
Q 158.107812 56.84 156.107812 56.84 
L 79 56.84 
Q 77 56.84 77 58.84 
L 77 87.19625 
Q 77 89.19625 79 89.19625 
z
" style="fill: #ffffff; opacity: 0.8; stroke: #cccccc; stroke-linejoin: miter"/>
    </g>
    <g id="line2d_15">
     <path d="M 81 64.938437 
L 91 64.938437 
L 101 64.938437 
" style="fill: none; stroke: #0000ff; stroke-width: 1.5; stroke-linecap: square"/>
    </g>
    <g id="text_15">
     <!-- precision -->
     <g transform="translate(109 68.438437) scale(0.1 -0.1)">
      <defs>
       <path id="DejaVuSans-69" d="M 603 3500 
L 1178 3500 
L 1178 0 
L 603 0 
L 603 3500 
z
M 603 4863 
L 1178 4863 
L 1178 4134 
L 603 4134 
L 603 4863 
z
" transform="scale(0.015625)"/>
       <path id="DejaVuSans-73" d="M 2834 3397 
L 2834 2853 
Q 2591 2978 2328 3040 
Q 2066 3103 1784 3103 
Q 1356 3103 1142 2972 
Q 928 2841 928 2578 
Q 928 2378 1081 2264 
Q 1234 2150 1697 2047 
L 1894 2003 
Q 2506 1872 2764 1633 
Q 3022 1394 3022 966 
Q 3022 478 2636 193 
Q 2250 -91 1575 -91 
Q 1294 -91 989 -36 
Q 684 19 347 128 
L 347 722 
Q 666 556 975 473 
Q 1284 391 1588 391 
Q 1994 391 2212 530 
Q 2431 669 2431 922 
Q 2431 1156 2273 1281 
Q 2116 1406 1581 1522 
L 1381 1569 
Q 847 1681 609 1914 
Q 372 2147 372 2553 
Q 372 3047 722 3315 
Q 1072 3584 1716 3584 
Q 2034 3584 2315 3537 
Q 2597 3491 2834 3397 
z
" transform="scale(0.015625)"/>
       <path id="DejaVuSans-6e" d="M 3513 2113 
L 3513 0 
L 2938 0 
L 2938 2094 
Q 2938 2591 2744 2837 
Q 2550 3084 2163 3084 
Q 1697 3084 1428 2787 
Q 1159 2491 1159 1978 
L 1159 0 
L 581 0 
L 581 3500 
L 1159 3500 
L 1159 2956 
Q 1366 3272 1645 3428 
Q 1925 3584 2291 3584 
Q 2894 3584 3203 3211 
Q 3513 2838 3513 2113 
z
" transform="scale(0.015625)"/>
      </defs>
      <use xlink:href="#DejaVuSans-70"/>
      <use xlink:href="#DejaVuSans-72" x="63.476562"/>
      <use xlink:href="#DejaVuSans-65" x="102.339844"/>
      <use xlink:href="#DejaVuSans-63" x="163.863281"/>
      <use xlink:href="#DejaVuSans-69" x="218.84375"/>
      <use xlink:href="#DejaVuSans-73" x="246.626953"/>
      <use xlink:href="#DejaVuSans-69" x="298.726562"/>
      <use xlink:href="#DejaVuSans-6f" x="326.509766"/>
      <use xlink:href="#DejaVuSans-6e" x="387.691406"/>
     </g>
    </g>
    <g id="line2d_16">
     <path d="M 81 79.616562 
L 91 79.616562 
L 101 79.616562 
" style="fill: none; stroke: #008000; stroke-width: 1.5; stroke-linecap: square"/>
    </g>
    <g id="text_16">
     <!-- recall -->
     <g transform="translate(109 83.116562) scale(0.1 -0.1)">
      <defs>
       <path id="DejaVuSans-6c" d="M 603 4863 
L 1178 4863 
L 1178 0 
L 603 0 
L 603 4863 
z
" transform="scale(0.015625)"/>
      </defs>
      <use xlink:href="#DejaVuSans-72"/>
      <use xlink:href="#DejaVuSans-65" x="38.863281"/>
      <use xlink:href="#DejaVuSans-63" x="100.386719"/>
      <use xlink:href="#DejaVuSans-61" x="155.367188"/>
      <use xlink:href="#DejaVuSans-6c" x="216.646484"/>
      <use xlink:href="#DejaVuSans-6c" x="244.429688"/>
     </g>
    </g>
   </g>
  </g>
  <g id="axes_2">
   <g id="matplotlib.axis_3">
    <g id="ytick_7">
     <g id="line2d_17">
      <defs>
       <path id="ma668873ab7" d="M 0 0 
L 3.5 0 
" style="stroke: #000000; stroke-width: 0.8"/>
      </defs>
      <g>
       <use xlink:href="#ma668873ab7" x="518.4" y="372.17623" style="stroke: #000000; stroke-width: 0.8"/>
      </g>
     </g>
     <g id="text_17">
      <!-- 0.1 -->
      <g transform="translate(525.4 375.975449) scale(0.1 -0.1)">
       <use xlink:href="#DejaVuSans-30"/>
       <use xlink:href="#DejaVuSans-2e" x="63.623047"/>
       <use xlink:href="#DejaVuSans-31" x="95.410156"/>
      </g>
     </g>
    </g>
    <g id="ytick_8">
     <g id="line2d_18">
      <g>
       <use xlink:href="#ma668873ab7" x="518.4" y="334.083628" style="stroke: #000000; stroke-width: 0.8"/>
      </g>
     </g>
     <g id="text_18">
      <!-- 0.2 -->
      <g transform="translate(525.4 337.882846) scale(0.1 -0.1)">
       <use xlink:href="#DejaVuSans-30"/>
       <use xlink:href="#DejaVuSans-2e" x="63.623047"/>
       <use xlink:href="#DejaVuSans-32" x="95.410156"/>
      </g>
     </g>
    </g>
    <g id="ytick_9">
     <g id="line2d_19">
      <g>
       <use xlink:href="#ma668873ab7" x="518.4" y="295.991025" style="stroke: #000000; stroke-width: 0.8"/>
      </g>
     </g>
     <g id="text_19">
      <!-- 0.3 -->
      <g transform="translate(525.4 299.790244) scale(0.1 -0.1)">
       <use xlink:href="#DejaVuSans-30"/>
       <use xlink:href="#DejaVuSans-2e" x="63.623047"/>
       <use xlink:href="#DejaVuSans-33" x="95.410156"/>
      </g>
     </g>
    </g>
    <g id="ytick_10">
     <g id="line2d_20">
      <g>
       <use xlink:href="#ma668873ab7" x="518.4" y="257.898423" style="stroke: #000000; stroke-width: 0.8"/>
      </g>
     </g>
     <g id="text_20">
      <!-- 0.4 -->
      <g transform="translate(525.4 261.697641) scale(0.1 -0.1)">
       <use xlink:href="#DejaVuSans-30"/>
       <use xlink:href="#DejaVuSans-2e" x="63.623047"/>
       <use xlink:href="#DejaVuSans-34" x="95.410156"/>
      </g>
     </g>
    </g>
    <g id="ytick_11">
     <g id="line2d_21">
      <g>
       <use xlink:href="#ma668873ab7" x="518.4" y="219.80582" style="stroke: #000000; stroke-width: 0.8"/>
      </g>
     </g>
     <g id="text_21">
      <!-- 0.5 -->
      <g transform="translate(525.4 223.605039) scale(0.1 -0.1)">
       <use xlink:href="#DejaVuSans-30"/>
       <use xlink:href="#DejaVuSans-2e" x="63.623047"/>
       <use xlink:href="#DejaVuSans-35" x="95.410156"/>
      </g>
     </g>
    </g>
    <g id="ytick_12">
     <g id="line2d_22">
      <g>
       <use xlink:href="#ma668873ab7" x="518.4" y="181.713218" style="stroke: #000000; stroke-width: 0.8"/>
      </g>
     </g>
     <g id="text_22">
      <!-- 0.6 -->
      <g transform="translate(525.4 185.512436) scale(0.1 -0.1)">
       <use xlink:href="#DejaVuSans-30"/>
       <use xlink:href="#DejaVuSans-2e" x="63.623047"/>
       <use xlink:href="#DejaVuSans-36" x="95.410156"/>
      </g>
     </g>
    </g>
    <g id="ytick_13">
     <g id="line2d_23">
      <g>
       <use xlink:href="#ma668873ab7" x="518.4" y="143.620615" style="stroke: #000000; stroke-width: 0.8"/>
      </g>
     </g>
     <g id="text_23">
      <!-- 0.7 -->
      <g transform="translate(525.4 147.419834) scale(0.1 -0.1)">
       <defs>
        <path id="DejaVuSans-37" d="M 525 4666 
L 3525 4666 
L 3525 4397 
L 1831 0 
L 1172 0 
L 2766 4134 
L 525 4134 
L 525 4666 
z
" transform="scale(0.015625)"/>
       </defs>
       <use xlink:href="#DejaVuSans-30"/>
       <use xlink:href="#DejaVuSans-2e" x="63.623047"/>
       <use xlink:href="#DejaVuSans-37" x="95.410156"/>
      </g>
     </g>
    </g>
    <g id="ytick_14">
     <g id="line2d_24">
      <g>
       <use xlink:href="#ma668873ab7" x="518.4" y="105.528013" style="stroke: #000000; stroke-width: 0.8"/>
      </g>
     </g>
     <g id="text_24">
      <!-- 0.8 -->
      <g transform="translate(525.4 109.327231) scale(0.1 -0.1)">
       <use xlink:href="#DejaVuSans-30"/>
       <use xlink:href="#DejaVuSans-2e" x="63.623047"/>
       <use xlink:href="#DejaVuSans-38" x="95.410156"/>
      </g>
     </g>
    </g>
    <g id="ytick_15">
     <g id="line2d_25">
      <g>
       <use xlink:href="#ma668873ab7" x="518.4" y="67.43541" style="stroke: #000000; stroke-width: 0.8"/>
      </g>
     </g>
     <g id="text_25">
      <!-- 0.9 -->
      <g transform="translate(525.4 71.234629) scale(0.1 -0.1)">
       <defs>
        <path id="DejaVuSans-39" d="M 703 97 
L 703 672 
Q 941 559 1184 500 
Q 1428 441 1663 441 
Q 2288 441 2617 861 
Q 2947 1281 2994 2138 
Q 2813 1869 2534 1725 
Q 2256 1581 1919 1581 
Q 1219 1581 811 2004 
Q 403 2428 403 3163 
Q 403 3881 828 4315 
Q 1253 4750 1959 4750 
Q 2769 4750 3195 4129 
Q 3622 3509 3622 2328 
Q 3622 1225 3098 567 
Q 2575 -91 1691 -91 
Q 1453 -91 1209 -44 
Q 966 3 703 97 
z
M 1959 2075 
Q 2384 2075 2632 2365 
Q 2881 2656 2881 3163 
Q 2881 3666 2632 3958 
Q 2384 4250 1959 4250 
Q 1534 4250 1286 3958 
Q 1038 3666 1038 3163 
Q 1038 2656 1286 2365 
Q 1534 2075 1959 2075 
z
" transform="scale(0.015625)"/>
       </defs>
       <use xlink:href="#DejaVuSans-30"/>
       <use xlink:href="#DejaVuSans-2e" x="63.623047"/>
       <use xlink:href="#DejaVuSans-39" x="95.410156"/>
      </g>
     </g>
    </g>
    <g id="text_26">
     <!-- loss -->
     <g transform="translate(552.901563 227.817812) rotate(-90) scale(0.1 -0.1)">
      <use xlink:href="#DejaVuSans-6c"/>
      <use xlink:href="#DejaVuSans-6f" x="27.783203"/>
      <use xlink:href="#DejaVuSans-73" x="88.964844"/>
      <use xlink:href="#DejaVuSans-73" x="141.064453"/>
     </g>
    </g>
   </g>
   <g id="line2d_26">
    <path d="M 92.290909 66.96 
L 93.104172 123.711821 
L 93.917435 204.512735 
L 94.730698 269.001543 
L 95.543961 302.665019 
L 96.357224 317.989505 
L 97.170486 324.904743 
L 97.983749 326.09924 
L 98.797012 325.304158 
L 99.610275 324.055425 
L 100.423538 327.019302 
L 101.236801 326.073016 
L 102.050064 325.686509 
L 102.863327 325.761504 
L 103.67659 325.421196 
L 106.116378 328.967501 
L 106.929641 330.931241 
L 107.742904 334.107915 
L 108.556167 322.633407 
L 110.182693 328.546829 
L 110.995956 332.609195 
L 112.622481 337.80476 
L 113.435744 341.607307 
L 114.249007 344.807878 
L 115.06227 346.177526 
L 115.875533 348.657004 
L 116.688796 331.970442 
L 117.502059 336.423254 
L 118.315322 339.59055 
L 119.128584 343.376426 
L 120.75511 348.872826 
L 121.568373 352.260803 
L 122.381636 352.95914 
L 123.194899 354.736479 
L 124.008162 356.23533 
L 124.821425 339.345178 
L 125.634688 344.568647 
L 126.44795 346.994422 
L 127.261213 350.07246 
L 128.074476 354.199807 
L 129.701002 357.544146 
L 130.514265 358.860942 
L 131.327528 358.921326 
L 132.140791 360.688578 
L 132.954054 345.911089 
L 134.580579 353.406462 
L 135.393842 355.680988 
L 136.207105 356.815674 
L 137.020368 358.834588 
L 138.646894 360.781004 
L 139.460157 362.310785 
L 140.27342 361.031264 
L 141.086682 349.411433 
L 142.713208 353.726641 
L 143.526471 357.911455 
L 144.339734 359.339347 
L 145.152997 362.648289 
L 145.96626 363.627012 
L 146.779523 363.06262 
L 147.592786 363.155208 
L 148.406048 365.444637 
L 149.219311 350.258158 
L 150.845837 355.559391 
L 151.6591 357.806967 
L 152.472363 359.376067 
L 153.285626 362.838551 
L 154.098889 362.1053 
L 154.912152 363.795 
L 155.725414 366.043254 
L 156.538677 365.74736 
L 157.35194 352.970209 
L 158.165203 354.697534 
L 158.978466 358.854676 
L 160.604992 362.969374 
L 162.231518 366.48906 
L 163.04478 364.016189 
L 163.858043 367.41494 
L 164.671306 365.415592 
L 165.484569 353.206136 
L 166.297832 355.818569 
L 167.111095 359.155766 
L 167.924358 360.580758 
L 168.737621 362.905306 
L 169.550884 365.92174 
L 170.364146 367.26024 
L 171.177409 366.382642 
L 171.990672 368.698485 
L 172.803935 369.36 
L 173.617198 353.550071 
L 174.430461 358.167391 
L 175.243724 360.169486 
L 176.056987 361.372633 
L 176.87025 359.960686 
L 177.683512 363.366884 
L 178.496775 365.078009 
L 179.310038 365.33365 
L 180.123301 367.13784 
L 180.936564 366.429488 
L 181.749827 357.015881 
L 182.56309 358.248635 
L 183.376353 356.655893 
L 184.189616 362.14614 
L 185.002878 363.102502 
L 185.816141 364.5551 
L 186.629404 363.125873 
L 187.442667 364.997568 
L 188.25593 366.041681 
L 189.069193 364.87757 
L 189.882456 354.218323 
L 190.695719 358.393964 
L 191.508982 359.284861 
L 192.322244 362.966652 
L 193.135507 364.541014 
L 193.94877 362.69539 
L 194.762033 366.98377 
L 195.575296 365.906439 
L 196.388559 365.876696 
L 197.201822 364.46879 
L 198.015085 355.746038 
L 198.828348 356.978009 
L 199.64161 361.656372 
L 200.454873 361.817605 
L 201.268136 363.420328 
L 202.081399 362.587451 
L 202.894662 364.121974 
L 203.707925 363.273816 
L 204.521188 365.744473 
L 205.334451 366.001803 
L 206.147714 354.989139 
L 206.960976 358.009756 
L 207.774239 361.639116 
L 208.587502 363.775153 
L 209.400765 362.685048 
L 211.027291 364.170563 
L 211.840554 365.574737 
L 212.653817 365.530774 
L 213.46708 366.083555 
L 214.280343 355.393872 
L 215.093605 358.963637 
L 215.906868 360.112094 
L 216.720131 361.4693 
L 217.533394 361.889495 
L 218.346657 364.532959 
L 219.15992 366.100192 
L 219.973183 365.852498 
L 220.786446 364.211792 
L 221.599709 365.303265 
L 222.412971 356.567719 
L 223.226234 358.112269 
L 224.039497 361.209129 
L 225.666023 363.566699 
L 226.479286 364.797557 
L 227.292549 363.061692 
L 228.105812 363.954656 
L 228.919075 366.962271 
L 229.732337 366.11535 
L 230.5456 358.573963 
L 231.358863 358.207199 
L 232.172126 361.259869 
L 232.985389 362.056126 
L 233.798652 362.495155 
L 234.611915 363.901333 
L 235.425178 364.488747 
L 236.238441 365.608391 
L 237.051703 365.291393 
L 237.864966 366.701675 
L 238.678229 358.249475 
L 241.931281 364.16762 
L 242.744544 363.866086 
L 243.557807 364.381225 
L 244.371069 364.27716 
L 245.184332 364.338094 
L 245.997595 365.109978 
L 246.810858 355.572458 
L 247.624121 359.564126 
L 249.250647 362.035902 
L 250.06391 364.440147 
L 250.877173 362.796504 
L 251.690435 364.575534 
L 252.503698 365.62643 
L 253.316961 366.213439 
L 254.130224 364.857101 
L 254.943487 359.328551 
L 255.75675 358.560567 
L 256.570013 361.864695 
L 257.383276 359.284941 
L 258.196539 363.138126 
L 259.823064 365.111936 
L 260.636327 365.143433 
L 261.44959 365.485262 
L 262.262853 365.700057 
L 263.076116 358.224545 
L 263.889379 359.572085 
L 264.702642 361.841911 
L 265.515905 362.340103 
L 266.329167 363.787462 
L 267.14243 366.213558 
L 267.955693 365.890075 
L 268.768956 364.359658 
L 269.582219 366.491444 
L 270.395482 365.567783 
L 271.208745 361.49415 
L 272.022008 360.359163 
L 272.835271 362.843935 
L 273.648533 363.308589 
L 275.275059 363.393318 
L 276.088322 364.175143 
L 276.901585 365.448015 
L 277.714848 364.840334 
L 278.528111 366.250936 
L 279.341374 357.397812 
L 280.154637 359.119206 
L 280.967899 363.356354 
L 281.781162 361.007333 
L 282.594425 363.768915 
L 283.407688 365.570338 
L 284.220951 364.168326 
L 285.847477 365.198936 
L 286.66074 366.665869 
L 287.474003 359.856765 
L 288.287265 361.795184 
L 289.100528 362.078724 
L 289.913791 363.877921 
L 290.727054 363.3806 
L 291.540317 363.505503 
L 292.35358 364.264698 
L 293.166843 365.384918 
L 293.980106 365.97599 
L 294.793369 365.761644 
L 295.606631 358.391716 
L 296.419894 360.464162 
L 297.233157 360.302571 
L 298.04642 362.579777 
L 298.859683 364.471997 
L 299.672946 363.071856 
L 300.486209 365.674928 
L 301.299472 363.460942 
L 302.112735 364.306716 
L 302.925997 366.510085 
L 303.73926 359.479216 
L 304.552523 359.753037 
L 305.365786 361.216293 
L 306.179049 363.247904 
L 306.992312 362.611268 
L 307.805575 365.589728 
L 308.618838 363.795017 
L 309.432101 365.698286 
L 310.245363 364.145786 
L 311.058626 365.380093 
L 311.871889 359.877427 
L 312.685152 359.454904 
L 313.498415 360.653834 
L 314.311678 363.259796 
L 315.124941 362.513393 
L 315.938204 361.986995 
L 316.751467 365.010893 
L 317.564729 366.014271 
L 318.377992 365.84395 
L 319.191255 367.585079 
L 320.004518 359.238855 
L 321.631044 362.470027 
L 322.444307 362.997548 
L 323.25757 362.67247 
L 324.070833 364.326603 
L 324.884095 363.351978 
L 325.697358 366.494117 
L 326.510621 365.271035 
L 327.323884 365.416699 
L 328.137147 359.271108 
L 328.95041 360.1252 
L 329.763673 363.63789 
L 330.576936 361.455279 
L 331.390199 363.890721 
L 332.203461 365.043566 
L 333.016724 365.001854 
L 333.829987 366.009784 
L 334.64325 365.204933 
L 335.456513 365.811095 
L 336.269776 359.432818 
L 337.083039 359.455608 
L 337.896302 361.88954 
L 338.709565 362.034125 
L 339.522827 363.842451 
L 340.33609 362.991395 
L 341.149353 365.708259 
L 341.962616 364.577021 
L 342.775879 365.782544 
L 343.589142 362.701955 
L 344.402405 360.274763 
L 345.215668 361.793243 
L 346.028931 362.831603 
L 346.842193 361.671039 
L 347.655456 363.852123 
L 348.468719 362.670599 
L 349.281982 364.881569 
L 350.908508 365.299805 
L 351.721771 365.788112 
L 352.535034 360.833691 
L 354.974822 363.397013 
L 355.788085 363.783293 
L 356.601348 362.602538 
L 357.414611 363.842428 
L 358.227874 365.870554 
L 359.041137 365.148531 
L 359.8544 365.073093 
L 360.667663 358.284498 
L 361.480925 361.998121 
L 362.294188 361.919687 
L 363.107451 363.916582 
L 363.920714 364.108354 
L 364.733977 363.825172 
L 365.54724 364.187242 
L 366.360503 362.667923 
L 367.173766 364.643169 
L 367.987029 364.000761 
L 368.800291 362.076987 
L 369.613554 360.851066 
L 370.426817 362.662922 
L 371.24008 362.12247 
L 372.053343 362.953801 
L 372.866606 363.615174 
L 373.679869 363.356593 
L 374.493132 361.52025 
L 375.306395 364.5231 
L 376.119657 365.118376 
L 376.93292 360.380546 
L 377.746183 360.735112 
L 378.559446 363.251503 
L 379.372709 363.817515 
L 380.185972 362.919199 
L 380.999235 362.665459 
L 382.625761 365.848465 
L 383.439024 364.126149 
L 384.252286 364.748583 
L 385.065549 360.284328 
L 385.878812 361.631016 
L 386.692075 359.328937 
L 387.505338 362.677956 
L 388.318601 363.938686 
L 389.131864 364.02092 
L 389.945127 364.437735 
L 390.75839 365.104946 
L 391.571652 364.479958 
L 392.384915 364.293924 
L 393.198178 358.602026 
L 394.011441 362.500888 
L 394.824704 363.110352 
L 395.637967 361.278317 
L 396.45123 363.813507 
L 397.264493 365.060895 
L 398.077756 363.380646 
L 398.891018 363.263656 
L 399.704281 365.024042 
L 400.517544 363.350931 
L 401.330807 358.78672 
L 402.14407 361.354549 
L 402.957333 360.590794 
L 403.770596 363.019254 
L 404.583859 363.413506 
L 405.397122 362.21828 
L 406.210384 362.611433 
L 407.023647 362.668522 
L 407.83691 363.246638 
L 408.650173 364.733799 
L 409.463436 360.598843 
L 410.276699 361.170247 
L 411.089962 359.874032 
L 411.903225 362.984331 
L 412.716488 361.429413 
L 413.52975 361.75805 
L 414.343013 364.458079 
L 415.156276 362.898966 
L 415.969539 365.129376 
L 416.782802 364.428625 
L 417.596065 360.699261 
L 418.409328 361.121448 
L 419.222591 361.364232 
L 420.849116 363.359295 
L 421.662379 362.620254 
L 422.475642 362.260482 
L 423.288905 362.601636 
L 424.102168 363.08163 
L 424.915431 365.824977 
L 425.728694 360.235228 
L 426.541957 360.564081 
L 427.35522 361.882973 
L 428.168482 361.923615 
L 428.981745 362.867954 
L 429.795008 360.927843 
L 430.608271 364.120495 
L 431.421534 365.230192 
L 432.234797 361.471162 
L 433.04806 363.620637 
L 433.861323 360.758947 
L 434.674586 356.967315 
L 435.487848 360.1503 
L 436.301111 360.705965 
L 437.114374 362.653579 
L 438.7409 364.586719 
L 439.554163 362.273441 
L 440.367426 361.786988 
L 441.180689 363.635938 
L 441.993952 360.555862 
L 442.807214 359.797681 
L 443.620477 362.630522 
L 444.43374 361.653778 
L 445.247003 359.903293 
L 446.873529 363.888769 
L 447.686792 364.354447 
L 448.500055 361.895688 
L 449.313318 364.915464 
L 450.12658 361.083662 
L 450.939843 362.644088 
L 451.753106 360.477087 
L 452.566369 363.150137 
L 453.379632 361.021109 
L 455.006158 363.80753 
L 455.819421 363.467265 
L 456.632684 364.848201 
L 457.445946 363.214216 
L 458.259209 360.817565 
L 459.072472 361.252229 
L 459.885735 361.532283 
L 460.698998 359.576319 
L 461.512261 362.511894 
L 462.325524 364.964731 
L 463.138787 361.108325 
L 464.765312 364.628519 
L 465.578575 363.568223 
L 466.391838 360.447236 
L 467.205101 361.57242 
L 468.018364 361.681392 
L 468.831627 361.244328 
L 469.64489 363.247564 
L 470.458153 360.92102 
L 471.271416 361.946581 
L 472.084678 361.624108 
L 472.897941 363.688309 
L 473.711204 363.614524 
L 474.524467 360.110215 
L 475.33773 361.213659 
L 476.150993 361.108802 
L 476.964256 362.379025 
L 477.777519 361.266635 
L 478.590782 361.04021 
L 479.404044 363.224711 
L 480.217307 361.076175 
L 481.03057 363.395529 
L 481.843833 363.857382 
L 482.657096 361.595006 
L 483.470359 361.270609 
L 485.096885 362.410085 
L 485.910148 362.74579 
L 486.72341 361.756654 
L 487.536673 362.720831 
L 488.349936 363.06161 
L 489.163199 361.655798 
L 489.976462 362.75746 
L 491.602988 359.753418 
L 492.416251 363.231188 
L 493.229514 362.470469 
L 494.042776 362.765231 
L 494.856039 363.603802 
L 495.669302 363.404795 
L 496.482565 364.535854 
L 497.295828 363.66825 
L 498.109091 362.561834 
L 498.109091 362.561834 
" clip-path="url(#pf2371a4084)" style="fill: none; stroke: #ff0000; stroke-width: 1.5; stroke-linecap: square"/>
   </g>
   <g id="patch_8">
    <path d="M 72 384.48 
L 72 51.84 
" style="fill: none; stroke: #000000; stroke-width: 0.8; stroke-linejoin: miter; stroke-linecap: square"/>
   </g>
   <g id="patch_9">
    <path d="M 518.4 384.48 
L 518.4 51.84 
" style="fill: none; stroke: #000000; stroke-width: 0.8; stroke-linejoin: miter; stroke-linecap: square"/>
   </g>
   <g id="patch_10">
    <path d="M 72 384.48 
L 518.4 384.48 
" style="fill: none; stroke: #000000; stroke-width: 0.8; stroke-linejoin: miter; stroke-linecap: square"/>
   </g>
   <g id="patch_11">
    <path d="M 72 51.84 
L 518.4 51.84 
" style="fill: none; stroke: #000000; stroke-width: 0.8; stroke-linejoin: miter; stroke-linecap: square"/>
   </g>
   <g id="text_27">
    <!-- The learning curve on _0.00025_iid/host/8 -->
    <g transform="translate(165.332812 45.84) scale(0.12 -0.12)">
     <defs>
      <path id="DejaVuSans-54" d="M -19 4666 
L 3928 4666 
L 3928 4134 
L 2272 4134 
L 2272 0 
L 1638 0 
L 1638 4134 
L -19 4134 
L -19 4666 
z
" transform="scale(0.015625)"/>
      <path id="DejaVuSans-20" transform="scale(0.015625)"/>
      <path id="DejaVuSans-67" d="M 2906 1791 
Q 2906 2416 2648 2759 
Q 2391 3103 1925 3103 
Q 1463 3103 1205 2759 
Q 947 2416 947 1791 
Q 947 1169 1205 825 
Q 1463 481 1925 481 
Q 2391 481 2648 825 
Q 2906 1169 2906 1791 
z
M 3481 434 
Q 3481 -459 3084 -895 
Q 2688 -1331 1869 -1331 
Q 1566 -1331 1297 -1286 
Q 1028 -1241 775 -1147 
L 775 -588 
Q 1028 -725 1275 -790 
Q 1522 -856 1778 -856 
Q 2344 -856 2625 -561 
Q 2906 -266 2906 331 
L 2906 616 
Q 2728 306 2450 153 
Q 2172 0 1784 0 
Q 1141 0 747 490 
Q 353 981 353 1791 
Q 353 2603 747 3093 
Q 1141 3584 1784 3584 
Q 2172 3584 2450 3431 
Q 2728 3278 2906 2969 
L 2906 3500 
L 3481 3500 
L 3481 434 
z
" transform="scale(0.015625)"/>
      <path id="DejaVuSans-75" d="M 544 1381 
L 544 3500 
L 1119 3500 
L 1119 1403 
Q 1119 906 1312 657 
Q 1506 409 1894 409 
Q 2359 409 2629 706 
Q 2900 1003 2900 1516 
L 2900 3500 
L 3475 3500 
L 3475 0 
L 2900 0 
L 2900 538 
Q 2691 219 2414 64 
Q 2138 -91 1772 -91 
Q 1169 -91 856 284 
Q 544 659 544 1381 
z
M 1991 3584 
L 1991 3584 
z
" transform="scale(0.015625)"/>
      <path id="DejaVuSans-76" d="M 191 3500 
L 800 3500 
L 1894 563 
L 2988 3500 
L 3597 3500 
L 2284 0 
L 1503 0 
L 191 3500 
z
" transform="scale(0.015625)"/>
      <path id="DejaVuSans-3bb" d="M 1981 4316 
L 3597 0 
L 2988 0 
L 2006 2588 
L 800 0 
L 191 0 
L 1725 3356 
L 1494 3975 
Q 1347 4369 1013 4369 
L 713 4369 
L 713 4863 
L 1078 4856 
Q 1784 4847 1981 4316 
z
" transform="scale(0.015625)"/>
      <path id="DejaVuSans-5f" d="M 3263 -1063 
L 3263 -1509 
L -63 -1509 
L -63 -1063 
L 3263 -1063 
z
" transform="scale(0.015625)"/>
      <path id="DejaVuSans-64" d="M 2906 2969 
L 2906 4863 
L 3481 4863 
L 3481 0 
L 2906 0 
L 2906 525 
Q 2725 213 2448 61 
Q 2172 -91 1784 -91 
Q 1150 -91 751 415 
Q 353 922 353 1747 
Q 353 2572 751 3078 
Q 1150 3584 1784 3584 
Q 2172 3584 2448 3432 
Q 2725 3281 2906 2969 
z
M 947 1747 
Q 947 1113 1208 752 
Q 1469 391 1925 391 
Q 2381 391 2643 752 
Q 2906 1113 2906 1747 
Q 2906 2381 2643 2742 
Q 2381 3103 1925 3103 
Q 1469 3103 1208 2742 
Q 947 2381 947 1747 
z
" transform="scale(0.015625)"/>
      <path id="DejaVuSans-2f" d="M 1625 4666 
L 2156 4666 
L 531 -594 
L 0 -594 
L 1625 4666 
z
" transform="scale(0.015625)"/>
     </defs>
     <use xlink:href="#DejaVuSans-54"/>
     <use xlink:href="#DejaVuSans-68" x="61.083984"/>
     <use xlink:href="#DejaVuSans-65" x="124.462891"/>
     <use xlink:href="#DejaVuSans-20" x="185.986328"/>
     <use xlink:href="#DejaVuSans-6c" x="217.773438"/>
     <use xlink:href="#DejaVuSans-65" x="245.556641"/>
     <use xlink:href="#DejaVuSans-61" x="307.080078"/>
     <use xlink:href="#DejaVuSans-72" x="368.359375"/>
     <use xlink:href="#DejaVuSans-6e" x="407.722656"/>
     <use xlink:href="#DejaVuSans-69" x="471.101562"/>
     <use xlink:href="#DejaVuSans-6e" x="498.884766"/>
     <use xlink:href="#DejaVuSans-67" x="562.263672"/>
     <use xlink:href="#DejaVuSans-20" x="625.740234"/>
     <use xlink:href="#DejaVuSans-63" x="657.527344"/>
     <use xlink:href="#DejaVuSans-75" x="712.507812"/>
     <use xlink:href="#DejaVuSans-72" x="775.886719"/>
     <use xlink:href="#DejaVuSans-76" x="817"/>
     <use xlink:href="#DejaVuSans-65" x="876.179688"/>
     <use xlink:href="#DejaVuSans-20" x="937.703125"/>
     <use xlink:href="#DejaVuSans-6f" x="969.490234"/>
     <use xlink:href="#DejaVuSans-6e" x="1030.671875"/>
     <use xlink:href="#DejaVuSans-20" x="1094.050781"/>
     <use xlink:href="#DejaVuSans-3bb" x="1125.837891"/>
     <use xlink:href="#DejaVuSans-5f" x="1185.017578"/>
     <use xlink:href="#DejaVuSans-30" x="1235.017578"/>
     <use xlink:href="#DejaVuSans-2e" x="1298.640625"/>
     <use xlink:href="#DejaVuSans-30" x="1330.427734"/>
     <use xlink:href="#DejaVuSans-30" x="1394.050781"/>
     <use xlink:href="#DejaVuSans-30" x="1457.673828"/>
     <use xlink:href="#DejaVuSans-32" x="1521.296875"/>
     <use xlink:href="#DejaVuSans-35" x="1584.919922"/>
     <use xlink:href="#DejaVuSans-5f" x="1648.542969"/>
     <use xlink:href="#DejaVuSans-69" x="1698.542969"/>
     <use xlink:href="#DejaVuSans-69" x="1726.326172"/>
     <use xlink:href="#DejaVuSans-64" x="1754.109375"/>
     <use xlink:href="#DejaVuSans-2f" x="1817.585938"/>
     <use xlink:href="#DejaVuSans-68" x="1851.277344"/>
     <use xlink:href="#DejaVuSans-6f" x="1914.65625"/>
     <use xlink:href="#DejaVuSans-73" x="1975.837891"/>
     <use xlink:href="#DejaVuSans-74" x="2027.9375"/>
     <use xlink:href="#DejaVuSans-2f" x="2067.146484"/>
     <use xlink:href="#DejaVuSans-38" x="2100.837891"/>
    </g>
   </g>
   <g id="legend_2">
    <g id="patch_12">
     <path d="M 460.084375 74.518125 
L 511.4 74.518125 
Q 513.4 74.518125 513.4 72.518125 
L 513.4 58.84 
Q 513.4 56.84 511.4 56.84 
L 460.084375 56.84 
Q 458.084375 56.84 458.084375 58.84 
L 458.084375 72.518125 
Q 458.084375 74.518125 460.084375 74.518125 
z
" style="fill: #ffffff; opacity: 0.8; stroke: #cccccc; stroke-linejoin: miter"/>
    </g>
    <g id="line2d_27">
     <path d="M 462.084375 64.938438 
L 472.084375 64.938438 
L 482.084375 64.938438 
" style="fill: none; stroke: #ff0000; stroke-width: 1.5; stroke-linecap: square"/>
    </g>
    <g id="text_28">
     <!-- loss -->
     <g transform="translate(490.084375 68.438438) scale(0.1 -0.1)">
      <use xlink:href="#DejaVuSans-6c"/>
      <use xlink:href="#DejaVuSans-6f" x="27.783203"/>
      <use xlink:href="#DejaVuSans-73" x="88.964844"/>
      <use xlink:href="#DejaVuSans-73" x="141.064453"/>
     </g>
    </g>
   </g>
  </g>
 </g>
 <defs>
  <clipPath id="pf2371a4084">
   <rect x="72" y="51.84" width="446.4" height="332.64"/>
  </clipPath>
 </defs>
</svg>
