<?xml version="1.0" encoding="utf-8" standalone="no"?>
<!DOCTYPE svg PUBLIC "-//W3C//DTD SVG 1.1//EN"
  "http://www.w3.org/Graphics/SVG/1.1/DTD/svg11.dtd">
<svg xmlns:xlink="http://www.w3.org/1999/xlink" width="460.8pt" height="345.6pt" viewBox="0 0 460.8 345.6" xmlns="http://www.w3.org/2000/svg" version="1.1">
 <metadata>
  <rdf:RDF xmlns:dc="http://purl.org/dc/elements/1.1/" xmlns:cc="http://creativecommons.org/ns#" xmlns:rdf="http://www.w3.org/1999/02/22-rdf-syntax-ns#">
   <cc:Work>
    <dc:type rdf:resource="http://purl.org/dc/dcmitype/StillImage"/>
    <dc:date>2023-04-13T09:22:56.448063</dc:date>
    <dc:format>image/svg+xml</dc:format>
    <dc:creator>
     <cc:Agent>
      <dc:title>Matplotlib v3.7.1, https://matplotlib.org/</dc:title>
     </cc:Agent>
    </dc:creator>
   </cc:Work>
  </rdf:RDF>
 </metadata>
 <defs>
  <style type="text/css">*{stroke-linejoin: round; stroke-linecap: butt}</style>
 </defs>
 <g id="figure_1">
  <g id="patch_1">
   <path d="M 0 345.6 
L 460.8 345.6 
L 460.8 0 
L 0 0 
z
" style="fill: #ffffff"/>
  </g>
  <g id="axes_1">
   <g id="patch_2">
    <path d="M 57.6 307.584 
L 414.72 307.584 
L 414.72 41.472 
L 57.6 41.472 
z
" style="fill: #ffffff"/>
   </g>
   <g id="matplotlib.axis_1">
    <g id="xtick_1">
     <g id="line2d_1">
      <defs>
       <path id="md0abe5b259" d="M 0 0 
L 0 3.5 
" style="stroke: #000000; stroke-width: 0.8"/>
      </defs>
      <g>
       <use xlink:href="#md0abe5b259" x="73.832727" y="307.584" style="stroke: #000000; stroke-width: 0.8"/>
      </g>
     </g>
     <g id="text_1">
      <!-- 0 -->
      <g transform="translate(70.651477 322.182437) scale(0.1 -0.1)">
       <defs>
        <path id="DejaVuSans-30" d="M 2034 4250 
Q 1547 4250 1301 3770 
Q 1056 3291 1056 2328 
Q 1056 1369 1301 889 
Q 1547 409 2034 409 
Q 2525 409 2770 889 
Q 3016 1369 3016 2328 
Q 3016 3291 2770 3770 
Q 2525 4250 2034 4250 
z
M 2034 4750 
Q 2819 4750 3233 4129 
Q 3647 3509 3647 2328 
Q 3647 1150 3233 529 
Q 2819 -91 2034 -91 
Q 1250 -91 836 529 
Q 422 1150 422 2328 
Q 422 3509 836 4129 
Q 1250 4750 2034 4750 
z
" transform="scale(0.015625)"/>
       </defs>
       <use xlink:href="#DejaVuSans-30"/>
      </g>
     </g>
    </g>
    <g id="xtick_2">
     <g id="line2d_2">
      <g>
       <use xlink:href="#md0abe5b259" x="138.893758" y="307.584" style="stroke: #000000; stroke-width: 0.8"/>
      </g>
     </g>
     <g id="text_2">
      <!-- 100 -->
      <g transform="translate(129.350008 322.182437) scale(0.1 -0.1)">
       <defs>
        <path id="DejaVuSans-31" d="M 794 531 
L 1825 531 
L 1825 4091 
L 703 3866 
L 703 4441 
L 1819 4666 
L 2450 4666 
L 2450 531 
L 3481 531 
L 3481 0 
L 794 0 
L 794 531 
z
" transform="scale(0.015625)"/>
       </defs>
       <use xlink:href="#DejaVuSans-31"/>
       <use xlink:href="#DejaVuSans-30" x="63.623047"/>
       <use xlink:href="#DejaVuSans-30" x="127.246094"/>
      </g>
     </g>
    </g>
    <g id="xtick_3">
     <g id="line2d_3">
      <g>
       <use xlink:href="#md0abe5b259" x="203.95479" y="307.584" style="stroke: #000000; stroke-width: 0.8"/>
      </g>
     </g>
     <g id="text_3">
      <!-- 200 -->
      <g transform="translate(194.41104 322.182437) scale(0.1 -0.1)">
       <defs>
        <path id="DejaVuSans-32" d="M 1228 531 
L 3431 531 
L 3431 0 
L 469 0 
L 469 531 
Q 828 903 1448 1529 
Q 2069 2156 2228 2338 
Q 2531 2678 2651 2914 
Q 2772 3150 2772 3378 
Q 2772 3750 2511 3984 
Q 2250 4219 1831 4219 
Q 1534 4219 1204 4116 
Q 875 4013 500 3803 
L 500 4441 
Q 881 4594 1212 4672 
Q 1544 4750 1819 4750 
Q 2544 4750 2975 4387 
Q 3406 4025 3406 3419 
Q 3406 3131 3298 2873 
Q 3191 2616 2906 2266 
Q 2828 2175 2409 1742 
Q 1991 1309 1228 531 
z
" transform="scale(0.015625)"/>
       </defs>
       <use xlink:href="#DejaVuSans-32"/>
       <use xlink:href="#DejaVuSans-30" x="63.623047"/>
       <use xlink:href="#DejaVuSans-30" x="127.246094"/>
      </g>
     </g>
    </g>
    <g id="xtick_4">
     <g id="line2d_4">
      <g>
       <use xlink:href="#md0abe5b259" x="269.015821" y="307.584" style="stroke: #000000; stroke-width: 0.8"/>
      </g>
     </g>
     <g id="text_4">
      <!-- 300 -->
      <g transform="translate(259.472071 322.182437) scale(0.1 -0.1)">
       <defs>
        <path id="DejaVuSans-33" d="M 2597 2516 
Q 3050 2419 3304 2112 
Q 3559 1806 3559 1356 
Q 3559 666 3084 287 
Q 2609 -91 1734 -91 
Q 1441 -91 1130 -33 
Q 819 25 488 141 
L 488 750 
Q 750 597 1062 519 
Q 1375 441 1716 441 
Q 2309 441 2620 675 
Q 2931 909 2931 1356 
Q 2931 1769 2642 2001 
Q 2353 2234 1838 2234 
L 1294 2234 
L 1294 2753 
L 1863 2753 
Q 2328 2753 2575 2939 
Q 2822 3125 2822 3475 
Q 2822 3834 2567 4026 
Q 2313 4219 1838 4219 
Q 1578 4219 1281 4162 
Q 984 4106 628 3988 
L 628 4550 
Q 988 4650 1302 4700 
Q 1616 4750 1894 4750 
Q 2613 4750 3031 4423 
Q 3450 4097 3450 3541 
Q 3450 3153 3228 2886 
Q 3006 2619 2597 2516 
z
" transform="scale(0.015625)"/>
       </defs>
       <use xlink:href="#DejaVuSans-33"/>
       <use xlink:href="#DejaVuSans-30" x="63.623047"/>
       <use xlink:href="#DejaVuSans-30" x="127.246094"/>
      </g>
     </g>
    </g>
    <g id="xtick_5">
     <g id="line2d_5">
      <g>
       <use xlink:href="#md0abe5b259" x="334.076852" y="307.584" style="stroke: #000000; stroke-width: 0.8"/>
      </g>
     </g>
     <g id="text_5">
      <!-- 400 -->
      <g transform="translate(324.533102 322.182437) scale(0.1 -0.1)">
       <defs>
        <path id="DejaVuSans-34" d="M 2419 4116 
L 825 1625 
L 2419 1625 
L 2419 4116 
z
M 2253 4666 
L 3047 4666 
L 3047 1625 
L 3713 1625 
L 3713 1100 
L 3047 1100 
L 3047 0 
L 2419 0 
L 2419 1100 
L 313 1100 
L 313 1709 
L 2253 4666 
z
" transform="scale(0.015625)"/>
       </defs>
       <use xlink:href="#DejaVuSans-34"/>
       <use xlink:href="#DejaVuSans-30" x="63.623047"/>
       <use xlink:href="#DejaVuSans-30" x="127.246094"/>
      </g>
     </g>
    </g>
    <g id="xtick_6">
     <g id="line2d_6">
      <g>
       <use xlink:href="#md0abe5b259" x="399.137883" y="307.584" style="stroke: #000000; stroke-width: 0.8"/>
      </g>
     </g>
     <g id="text_6">
      <!-- 500 -->
      <g transform="translate(389.594133 322.182437) scale(0.1 -0.1)">
       <defs>
        <path id="DejaVuSans-35" d="M 691 4666 
L 3169 4666 
L 3169 4134 
L 1269 4134 
L 1269 2991 
Q 1406 3038 1543 3061 
Q 1681 3084 1819 3084 
Q 2600 3084 3056 2656 
Q 3513 2228 3513 1497 
Q 3513 744 3044 326 
Q 2575 -91 1722 -91 
Q 1428 -91 1123 -41 
Q 819 9 494 109 
L 494 744 
Q 775 591 1075 516 
Q 1375 441 1709 441 
Q 2250 441 2565 725 
Q 2881 1009 2881 1497 
Q 2881 1984 2565 2268 
Q 2250 2553 1709 2553 
Q 1456 2553 1204 2497 
Q 953 2441 691 2322 
L 691 4666 
z
" transform="scale(0.015625)"/>
       </defs>
       <use xlink:href="#DejaVuSans-35"/>
       <use xlink:href="#DejaVuSans-30" x="63.623047"/>
       <use xlink:href="#DejaVuSans-30" x="127.246094"/>
      </g>
     </g>
    </g>
    <g id="text_7">
     <!-- epoch -->
     <g transform="translate(220.931875 335.860562) scale(0.1 -0.1)">
      <defs>
       <path id="DejaVuSans-65" d="M 3597 1894 
L 3597 1613 
L 953 1613 
Q 991 1019 1311 708 
Q 1631 397 2203 397 
Q 2534 397 2845 478 
Q 3156 559 3463 722 
L 3463 178 
Q 3153 47 2828 -22 
Q 2503 -91 2169 -91 
Q 1331 -91 842 396 
Q 353 884 353 1716 
Q 353 2575 817 3079 
Q 1281 3584 2069 3584 
Q 2775 3584 3186 3129 
Q 3597 2675 3597 1894 
z
M 3022 2063 
Q 3016 2534 2758 2815 
Q 2500 3097 2075 3097 
Q 1594 3097 1305 2825 
Q 1016 2553 972 2059 
L 3022 2063 
z
" transform="scale(0.015625)"/>
       <path id="DejaVuSans-70" d="M 1159 525 
L 1159 -1331 
L 581 -1331 
L 581 3500 
L 1159 3500 
L 1159 2969 
Q 1341 3281 1617 3432 
Q 1894 3584 2278 3584 
Q 2916 3584 3314 3078 
Q 3713 2572 3713 1747 
Q 3713 922 3314 415 
Q 2916 -91 2278 -91 
Q 1894 -91 1617 61 
Q 1341 213 1159 525 
z
M 3116 1747 
Q 3116 2381 2855 2742 
Q 2594 3103 2138 3103 
Q 1681 3103 1420 2742 
Q 1159 2381 1159 1747 
Q 1159 1113 1420 752 
Q 1681 391 2138 391 
Q 2594 391 2855 752 
Q 3116 1113 3116 1747 
z
" transform="scale(0.015625)"/>
       <path id="DejaVuSans-6f" d="M 1959 3097 
Q 1497 3097 1228 2736 
Q 959 2375 959 1747 
Q 959 1119 1226 758 
Q 1494 397 1959 397 
Q 2419 397 2687 759 
Q 2956 1122 2956 1747 
Q 2956 2369 2687 2733 
Q 2419 3097 1959 3097 
z
M 1959 3584 
Q 2709 3584 3137 3096 
Q 3566 2609 3566 1747 
Q 3566 888 3137 398 
Q 2709 -91 1959 -91 
Q 1206 -91 779 398 
Q 353 888 353 1747 
Q 353 2609 779 3096 
Q 1206 3584 1959 3584 
z
" transform="scale(0.015625)"/>
       <path id="DejaVuSans-63" d="M 3122 3366 
L 3122 2828 
Q 2878 2963 2633 3030 
Q 2388 3097 2138 3097 
Q 1578 3097 1268 2742 
Q 959 2388 959 1747 
Q 959 1106 1268 751 
Q 1578 397 2138 397 
Q 2388 397 2633 464 
Q 2878 531 3122 666 
L 3122 134 
Q 2881 22 2623 -34 
Q 2366 -91 2075 -91 
Q 1284 -91 818 406 
Q 353 903 353 1747 
Q 353 2603 823 3093 
Q 1294 3584 2113 3584 
Q 2378 3584 2631 3529 
Q 2884 3475 3122 3366 
z
" transform="scale(0.015625)"/>
       <path id="DejaVuSans-68" d="M 3513 2113 
L 3513 0 
L 2938 0 
L 2938 2094 
Q 2938 2591 2744 2837 
Q 2550 3084 2163 3084 
Q 1697 3084 1428 2787 
Q 1159 2491 1159 1978 
L 1159 0 
L 581 0 
L 581 4863 
L 1159 4863 
L 1159 2956 
Q 1366 3272 1645 3428 
Q 1925 3584 2291 3584 
Q 2894 3584 3203 3211 
Q 3513 2838 3513 2113 
z
" transform="scale(0.015625)"/>
      </defs>
      <use xlink:href="#DejaVuSans-65"/>
      <use xlink:href="#DejaVuSans-70" x="61.523438"/>
      <use xlink:href="#DejaVuSans-6f" x="125"/>
      <use xlink:href="#DejaVuSans-63" x="186.181641"/>
      <use xlink:href="#DejaVuSans-68" x="241.162109"/>
     </g>
    </g>
   </g>
   <g id="matplotlib.axis_2">
    <g id="ytick_1">
     <g id="line2d_7">
      <defs>
       <path id="m1071a0449a" d="M 0 0 
L -3.5 0 
" style="stroke: #000000; stroke-width: 0.8"/>
      </defs>
      <g>
       <use xlink:href="#m1071a0449a" x="57.6" y="304.949861" style="stroke: #000000; stroke-width: 0.8"/>
      </g>
     </g>
     <g id="text_8">
      <!-- 0.0 -->
      <g transform="translate(34.696875 308.74908) scale(0.1 -0.1)">
       <defs>
        <path id="DejaVuSans-2e" d="M 684 794 
L 1344 794 
L 1344 0 
L 684 0 
L 684 794 
z
" transform="scale(0.015625)"/>
       </defs>
       <use xlink:href="#DejaVuSans-30"/>
       <use xlink:href="#DejaVuSans-2e" x="63.623047"/>
       <use xlink:href="#DejaVuSans-30" x="95.410156"/>
      </g>
     </g>
    </g>
    <g id="ytick_2">
     <g id="line2d_8">
      <g>
       <use xlink:href="#m1071a0449a" x="57.6" y="251.29185" style="stroke: #000000; stroke-width: 0.8"/>
      </g>
     </g>
     <g id="text_9">
      <!-- 0.2 -->
      <g transform="translate(34.696875 255.091068) scale(0.1 -0.1)">
       <use xlink:href="#DejaVuSans-30"/>
       <use xlink:href="#DejaVuSans-2e" x="63.623047"/>
       <use xlink:href="#DejaVuSans-32" x="95.410156"/>
      </g>
     </g>
    </g>
    <g id="ytick_3">
     <g id="line2d_9">
      <g>
       <use xlink:href="#m1071a0449a" x="57.6" y="197.633838" style="stroke: #000000; stroke-width: 0.8"/>
      </g>
     </g>
     <g id="text_10">
      <!-- 0.4 -->
      <g transform="translate(34.696875 201.433057) scale(0.1 -0.1)">
       <use xlink:href="#DejaVuSans-30"/>
       <use xlink:href="#DejaVuSans-2e" x="63.623047"/>
       <use xlink:href="#DejaVuSans-34" x="95.410156"/>
      </g>
     </g>
    </g>
    <g id="ytick_4">
     <g id="line2d_10">
      <g>
       <use xlink:href="#m1071a0449a" x="57.6" y="143.975826" style="stroke: #000000; stroke-width: 0.8"/>
      </g>
     </g>
     <g id="text_11">
      <!-- 0.6 -->
      <g transform="translate(34.696875 147.775045) scale(0.1 -0.1)">
       <defs>
        <path id="DejaVuSans-36" d="M 2113 2584 
Q 1688 2584 1439 2293 
Q 1191 2003 1191 1497 
Q 1191 994 1439 701 
Q 1688 409 2113 409 
Q 2538 409 2786 701 
Q 3034 994 3034 1497 
Q 3034 2003 2786 2293 
Q 2538 2584 2113 2584 
z
M 3366 4563 
L 3366 3988 
Q 3128 4100 2886 4159 
Q 2644 4219 2406 4219 
Q 1781 4219 1451 3797 
Q 1122 3375 1075 2522 
Q 1259 2794 1537 2939 
Q 1816 3084 2150 3084 
Q 2853 3084 3261 2657 
Q 3669 2231 3669 1497 
Q 3669 778 3244 343 
Q 2819 -91 2113 -91 
Q 1303 -91 875 529 
Q 447 1150 447 2328 
Q 447 3434 972 4092 
Q 1497 4750 2381 4750 
Q 2619 4750 2861 4703 
Q 3103 4656 3366 4563 
z
" transform="scale(0.015625)"/>
       </defs>
       <use xlink:href="#DejaVuSans-30"/>
       <use xlink:href="#DejaVuSans-2e" x="63.623047"/>
       <use xlink:href="#DejaVuSans-36" x="95.410156"/>
      </g>
     </g>
    </g>
    <g id="ytick_5">
     <g id="line2d_11">
      <g>
       <use xlink:href="#m1071a0449a" x="57.6" y="90.317815" style="stroke: #000000; stroke-width: 0.8"/>
      </g>
     </g>
     <g id="text_12">
      <!-- 0.8 -->
      <g transform="translate(34.696875 94.117034) scale(0.1 -0.1)">
       <defs>
        <path id="DejaVuSans-38" d="M 2034 2216 
Q 1584 2216 1326 1975 
Q 1069 1734 1069 1313 
Q 1069 891 1326 650 
Q 1584 409 2034 409 
Q 2484 409 2743 651 
Q 3003 894 3003 1313 
Q 3003 1734 2745 1975 
Q 2488 2216 2034 2216 
z
M 1403 2484 
Q 997 2584 770 2862 
Q 544 3141 544 3541 
Q 544 4100 942 4425 
Q 1341 4750 2034 4750 
Q 2731 4750 3128 4425 
Q 3525 4100 3525 3541 
Q 3525 3141 3298 2862 
Q 3072 2584 2669 2484 
Q 3125 2378 3379 2068 
Q 3634 1759 3634 1313 
Q 3634 634 3220 271 
Q 2806 -91 2034 -91 
Q 1263 -91 848 271 
Q 434 634 434 1313 
Q 434 1759 690 2068 
Q 947 2378 1403 2484 
z
M 1172 3481 
Q 1172 3119 1398 2916 
Q 1625 2713 2034 2713 
Q 2441 2713 2670 2916 
Q 2900 3119 2900 3481 
Q 2900 3844 2670 4047 
Q 2441 4250 2034 4250 
Q 1625 4250 1398 4047 
Q 1172 3844 1172 3481 
z
" transform="scale(0.015625)"/>
       </defs>
       <use xlink:href="#DejaVuSans-30"/>
       <use xlink:href="#DejaVuSans-2e" x="63.623047"/>
       <use xlink:href="#DejaVuSans-38" x="95.410156"/>
      </g>
     </g>
    </g>
    <g id="text_13">
     <!-- loss value -->
     <g transform="translate(28.617187 199.432687) rotate(-90) scale(0.1 -0.1)">
      <defs>
       <path id="DejaVuSans-6c" d="M 603 4863 
L 1178 4863 
L 1178 0 
L 603 0 
L 603 4863 
z
" transform="scale(0.015625)"/>
       <path id="DejaVuSans-73" d="M 2834 3397 
L 2834 2853 
Q 2591 2978 2328 3040 
Q 2066 3103 1784 3103 
Q 1356 3103 1142 2972 
Q 928 2841 928 2578 
Q 928 2378 1081 2264 
Q 1234 2150 1697 2047 
L 1894 2003 
Q 2506 1872 2764 1633 
Q 3022 1394 3022 966 
Q 3022 478 2636 193 
Q 2250 -91 1575 -91 
Q 1294 -91 989 -36 
Q 684 19 347 128 
L 347 722 
Q 666 556 975 473 
Q 1284 391 1588 391 
Q 1994 391 2212 530 
Q 2431 669 2431 922 
Q 2431 1156 2273 1281 
Q 2116 1406 1581 1522 
L 1381 1569 
Q 847 1681 609 1914 
Q 372 2147 372 2553 
Q 372 3047 722 3315 
Q 1072 3584 1716 3584 
Q 2034 3584 2315 3537 
Q 2597 3491 2834 3397 
z
" transform="scale(0.015625)"/>
       <path id="DejaVuSans-20" transform="scale(0.015625)"/>
       <path id="DejaVuSans-76" d="M 191 3500 
L 800 3500 
L 1894 563 
L 2988 3500 
L 3597 3500 
L 2284 0 
L 1503 0 
L 191 3500 
z
" transform="scale(0.015625)"/>
       <path id="DejaVuSans-61" d="M 2194 1759 
Q 1497 1759 1228 1600 
Q 959 1441 959 1056 
Q 959 750 1161 570 
Q 1363 391 1709 391 
Q 2188 391 2477 730 
Q 2766 1069 2766 1631 
L 2766 1759 
L 2194 1759 
z
M 3341 1997 
L 3341 0 
L 2766 0 
L 2766 531 
Q 2569 213 2275 61 
Q 1981 -91 1556 -91 
Q 1019 -91 701 211 
Q 384 513 384 1019 
Q 384 1609 779 1909 
Q 1175 2209 1959 2209 
L 2766 2209 
L 2766 2266 
Q 2766 2663 2505 2880 
Q 2244 3097 1772 3097 
Q 1472 3097 1187 3025 
Q 903 2953 641 2809 
L 641 3341 
Q 956 3463 1253 3523 
Q 1550 3584 1831 3584 
Q 2591 3584 2966 3190 
Q 3341 2797 3341 1997 
z
" transform="scale(0.015625)"/>
       <path id="DejaVuSans-75" d="M 544 1381 
L 544 3500 
L 1119 3500 
L 1119 1403 
Q 1119 906 1312 657 
Q 1506 409 1894 409 
Q 2359 409 2629 706 
Q 2900 1003 2900 1516 
L 2900 3500 
L 3475 3500 
L 3475 0 
L 2900 0 
L 2900 538 
Q 2691 219 2414 64 
Q 2138 -91 1772 -91 
Q 1169 -91 856 284 
Q 544 659 544 1381 
z
M 1991 3584 
L 1991 3584 
z
" transform="scale(0.015625)"/>
      </defs>
      <use xlink:href="#DejaVuSans-6c"/>
      <use xlink:href="#DejaVuSans-6f" x="27.783203"/>
      <use xlink:href="#DejaVuSans-73" x="88.964844"/>
      <use xlink:href="#DejaVuSans-73" x="141.064453"/>
      <use xlink:href="#DejaVuSans-20" x="193.164062"/>
      <use xlink:href="#DejaVuSans-76" x="224.951172"/>
      <use xlink:href="#DejaVuSans-61" x="284.130859"/>
      <use xlink:href="#DejaVuSans-6c" x="345.410156"/>
      <use xlink:href="#DejaVuSans-75" x="373.193359"/>
      <use xlink:href="#DejaVuSans-65" x="436.572266"/>
     </g>
    </g>
   </g>
   <g id="line2d_12">
    <path d="M 73.832727 86.216898 
L 74.483338 130.826562 
L 75.133948 190.776001 
L 75.784558 235.935311 
L 76.435169 261.562579 
L 77.085779 271.693039 
L 77.736389 276.385092 
L 78.386999 276.284226 
L 79.03761 277.231635 
L 79.68822 275.409197 
L 80.33883 265.174189 
L 80.989441 264.020355 
L 81.640051 263.632421 
L 82.941272 264.559007 
L 84.242492 267.29195 
L 84.893103 268.267577 
L 85.543713 269.6203 
L 86.194323 272.153905 
L 86.844934 261.085589 
L 87.495544 263.019769 
L 88.146154 266.914698 
L 90.097985 273.416518 
L 90.748595 275.960498 
L 91.399206 277.583678 
L 92.049816 279.700891 
L 92.700426 280.406314 
L 93.351037 267.864647 
L 96.604088 283.203982 
L 97.254698 282.33708 
L 97.905309 284.185966 
L 98.555919 284.706242 
L 99.206529 285.376671 
L 99.85714 275.795611 
L 100.50775 277.540164 
L 101.808971 282.883614 
L 102.459581 284.863663 
L 103.110191 285.797703 
L 103.760802 286.451077 
L 105.062022 288.149418 
L 105.712633 288.534713 
L 106.363243 278.726187 
L 108.315074 286.370446 
L 108.965684 287.65594 
L 109.616294 287.562744 
L 110.266905 290.022595 
L 110.917515 289.021325 
L 111.568125 290.946234 
L 112.218736 289.795757 
L 112.869346 280.47642 
L 113.519956 283.246241 
L 114.170567 284.931844 
L 114.821177 285.987298 
L 116.122398 289.871797 
L 116.773008 291.207778 
L 117.423618 291.351573 
L 118.074228 292.734348 
L 118.724839 293.431733 
L 119.375449 282.556259 
L 120.026059 284.612109 
L 120.67667 287.624912 
L 121.32728 289.872996 
L 121.97789 291.323497 
L 122.628501 291.173987 
L 123.279111 291.275099 
L 123.929721 290.404495 
L 124.580332 291.642522 
L 125.230942 293.988417 
L 125.881552 284.132461 
L 126.532163 286.325065 
L 127.182773 289.247047 
L 127.833383 290.782284 
L 128.483993 290.448968 
L 129.134604 292.123663 
L 130.435824 294.157609 
L 131.086435 294.637697 
L 131.737045 293.957066 
L 132.387655 284.335805 
L 133.038266 286.488096 
L 133.688876 290.28331 
L 134.339486 290.985287 
L 134.990097 290.803702 
L 135.640707 293.441592 
L 136.291317 292.435401 
L 136.941927 295.488 
L 137.592538 293.754131 
L 138.243148 294.519973 
L 138.893758 285.369451 
L 139.544369 288.771584 
L 140.194979 287.470882 
L 140.845589 289.820936 
L 141.4962 291.459423 
L 142.14681 291.004603 
L 142.79742 292.503698 
L 143.448031 291.937427 
L 144.098641 292.972526 
L 144.749251 293.266735 
L 145.399862 285.74802 
L 147.351692 290.082442 
L 148.002303 289.952701 
L 148.652913 291.680774 
L 149.303523 291.173168 
L 149.954134 292.748814 
L 150.604744 290.729365 
L 151.255354 293.151812 
L 151.905965 286.583473 
L 152.556575 287.366402 
L 153.207185 288.920088 
L 154.508406 290.54702 
L 155.159016 291.912962 
L 155.809627 292.252294 
L 156.460237 293.902877 
L 157.110847 292.765919 
L 157.761457 293.503715 
L 158.412068 286.973293 
L 159.062678 288.231928 
L 159.713288 288.704397 
L 161.014509 292.230281 
L 161.665119 293.13568 
L 162.31573 291.704697 
L 162.96634 293.448537 
L 163.61695 292.955253 
L 164.267561 293.80147 
L 164.918171 285.798296 
L 165.568781 288.160276 
L 166.219392 288.18004 
L 166.870002 290.909924 
L 167.520612 290.998658 
L 168.171222 291.355647 
L 169.472443 292.852664 
L 170.123053 293.248017 
L 170.773664 293.222114 
L 171.424274 286.07242 
L 172.725495 290.478495 
L 173.376105 289.628688 
L 174.026715 291.918925 
L 174.677326 291.619573 
L 175.327936 292.574351 
L 175.978546 292.142368 
L 176.629156 293.47477 
L 177.279767 293.740552 
L 177.930377 286.535479 
L 179.882208 290.050304 
L 180.532818 292.125902 
L 181.183429 292.412222 
L 182.484649 291.696871 
L 183.13526 290.567989 
L 183.78587 292.116714 
L 184.43648 287.260976 
L 185.087091 288.612846 
L 185.737701 290.960487 
L 187.038921 290.796772 
L 187.689532 292.181674 
L 188.340142 292.005002 
L 188.990752 292.71329 
L 189.641363 293.028296 
L 190.291973 292.926927 
L 190.942583 287.705257 
L 191.593194 288.11948 
L 192.243804 289.357392 
L 192.894414 291.037437 
L 193.545025 291.972011 
L 194.195635 291.250238 
L 195.496856 293.964704 
L 196.147466 292.027245 
L 196.798076 293.926228 
L 197.448686 286.987296 
L 198.749907 290.924001 
L 199.400517 290.695681 
L 200.051128 291.964722 
L 200.701738 291.87429 
L 201.352348 291.905532 
L 202.002959 293.146446 
L 202.653569 293.890012 
L 203.304179 293.554902 
L 203.95479 287.31502 
L 205.25601 289.691023 
L 205.906621 290.497477 
L 206.557231 290.861752 
L 207.207841 292.946544 
L 207.858451 293.784049 
L 208.509062 292.738646 
L 209.159672 292.67162 
L 209.810282 293.353343 
L 210.460893 288.134176 
L 211.111503 288.117717 
L 211.762113 291.527171 
L 212.412724 289.836729 
L 213.063334 292.252995 
L 213.713944 291.749223 
L 214.364555 290.838994 
L 215.015165 292.836203 
L 215.665775 293.865843 
L 216.316385 291.895226 
L 216.966996 287.888476 
L 217.617606 289.077005 
L 218.268216 290.791814 
L 218.918827 291.195202 
L 219.569437 292.356194 
L 220.220047 292.393981 
L 220.870658 291.79626 
L 221.521268 293.080421 
L 222.171878 292.923989 
L 222.822489 291.715391 
L 223.473099 288.610981 
L 224.123709 288.91423 
L 224.77432 290.667107 
L 225.42493 291.291908 
L 226.07554 292.088028 
L 226.72615 292.09193 
L 227.376761 293.008382 
L 228.027371 293.304091 
L 228.677981 293.008765 
L 229.328592 293.099064 
L 229.979202 287.234646 
L 230.629812 289.314721 
L 231.931033 292.232219 
L 232.581643 291.695263 
L 233.232254 291.79166 
L 233.882864 292.758128 
L 234.533474 292.138125 
L 235.184085 293.084343 
L 235.834695 291.094888 
L 236.485305 287.690525 
L 237.135915 290.01096 
L 237.786526 290.092157 
L 238.437136 291.375484 
L 239.087746 290.811903 
L 239.738357 292.338163 
L 240.388967 292.750494 
L 241.690188 293.190541 
L 242.991408 289.393466 
L 243.642019 289.540394 
L 244.292629 289.960427 
L 244.943239 290.833079 
L 246.24446 291.533988 
L 246.89507 293.03357 
L 247.54568 292.184616 
L 248.196291 294.252392 
L 248.846901 292.044194 
L 249.497511 288.675231 
L 250.148122 289.845841 
L 250.798732 290.271193 
L 251.449342 291.293043 
L 252.099953 291.286904 
L 252.750563 291.599922 
L 253.401173 292.98278 
L 254.051784 291.71387 
L 254.702394 292.655552 
L 255.353004 292.469679 
L 256.003615 289.568768 
L 256.654225 289.290057 
L 257.304835 289.166766 
L 257.955445 291.94607 
L 258.606056 290.988966 
L 259.907276 292.196493 
L 260.557887 293.249712 
L 261.208497 293.596224 
L 261.859107 292.827088 
L 262.509718 288.58999 
L 263.160328 289.349889 
L 263.810938 290.68008 
L 264.461549 290.954183 
L 265.112159 290.494783 
L 265.762769 292.064199 
L 266.413379 292.525736 
L 267.06399 292.099112 
L 267.7146 291.10015 
L 268.36521 293.652748 
L 269.015821 288.121431 
L 269.666431 289.303376 
L 270.317041 290.764383 
L 270.967652 290.929266 
L 272.268872 290.677686 
L 272.919483 292.44343 
L 273.570093 292.0261 
L 274.220703 293.118567 
L 274.871314 292.662251 
L 275.521924 288.401654 
L 276.172534 290.035414 
L 276.823144 290.555863 
L 277.473755 290.114519 
L 278.124365 291.618664 
L 278.774975 290.883989 
L 279.425586 293.655823 
L 280.076196 292.985365 
L 280.726806 292.526018 
L 281.377417 292.997477 
L 282.028027 288.488541 
L 282.678637 289.176667 
L 283.329248 289.14337 
L 283.979858 290.604175 
L 284.630468 290.271764 
L 285.281079 291.549427 
L 285.931689 291.643491 
L 286.582299 291.870701 
L 287.232909 291.520514 
L 287.88352 293.27831 
L 288.53413 288.338511 
L 289.18474 289.966175 
L 289.835351 290.106245 
L 290.485961 290.851596 
L 291.136571 290.558236 
L 291.787182 290.858673 
L 292.437792 291.373374 
L 293.088402 292.442673 
L 293.739013 292.869246 
L 294.389623 291.849309 
L 295.040233 289.418879 
L 295.690844 289.450334 
L 296.341454 290.654641 
L 296.992064 290.794159 
L 297.642674 291.733281 
L 298.293285 291.619206 
L 298.943895 290.688139 
L 299.594505 290.729371 
L 300.245116 292.677594 
L 300.895726 292.389373 
L 301.546336 289.59817 
L 302.196947 289.236424 
L 302.847557 289.802687 
L 303.498167 289.393819 
L 304.148778 291.452628 
L 305.449998 291.96911 
L 306.100608 292.518694 
L 306.751219 292.145341 
L 307.401829 291.306466 
L 308.052439 290.232 
L 308.70305 289.561444 
L 309.35366 289.398023 
L 310.654881 290.979444 
L 311.305491 290.548487 
L 311.956101 292.091884 
L 312.606712 291.116594 
L 313.907932 292.78662 
L 314.558543 288.445781 
L 315.209153 287.890642 
L 315.859763 289.517948 
L 316.510373 291.660713 
L 317.160984 291.206162 
L 317.811594 291.102907 
L 318.462204 291.238096 
L 319.112815 291.71447 
L 319.763425 291.143665 
L 320.414035 292.122685 
L 321.064646 288.732662 
L 321.715256 289.362878 
L 322.365866 290.264952 
L 323.016477 290.711787 
L 323.667087 290.876979 
L 324.317697 291.617842 
L 325.618918 290.907191 
L 326.269528 292.269047 
L 326.920138 292.162944 
L 327.570749 288.893289 
L 328.221359 289.919631 
L 328.871969 289.084019 
L 329.52258 290.737682 
L 330.17319 290.483276 
L 330.8238 290.928245 
L 331.474411 291.582651 
L 332.125021 291.248215 
L 332.775631 291.765465 
L 333.426242 291.147321 
L 334.076852 288.615627 
L 334.727462 288.241369 
L 335.378073 291.349792 
L 336.028683 291.096487 
L 336.679293 291.78836 
L 337.329903 290.510647 
L 337.980514 291.835356 
L 338.631124 291.214123 
L 339.281734 291.73371 
L 339.932345 290.609662 
L 340.582955 287.857356 
L 341.233565 289.186743 
L 341.884176 289.196139 
L 342.534786 291.105311 
L 343.185396 290.214225 
L 344.486617 290.009287 
L 345.137227 289.573167 
L 345.787837 291.310742 
L 346.438448 291.243739 
L 347.089058 288.146796 
L 347.739668 290.304836 
L 348.390279 291.429957 
L 349.040889 291.23128 
L 349.691499 290.816364 
L 350.34211 290.115455 
L 350.99272 290.793967 
L 352.293941 293.067946 
L 353.595161 289.527018 
L 354.245772 289.537787 
L 354.896382 289.937777 
L 355.546992 290.842324 
L 356.197602 289.629601 
L 356.848213 291.488401 
L 357.498823 291.911817 
L 358.149433 290.57894 
L 358.800044 290.238458 
L 359.450654 290.795629 
L 360.101264 289.625009 
L 360.751875 288.221431 
L 361.402485 290.345677 
L 362.053095 291.259011 
L 363.354316 290.999532 
L 364.004926 291.142253 
L 364.655537 290.963992 
L 365.306147 291.639045 
L 365.956757 292.928702 
L 366.607367 288.832766 
L 367.257978 290.226295 
L 367.908588 288.284159 
L 368.559198 289.786787 
L 369.209809 289.985263 
L 369.860419 291.189171 
L 370.511029 290.449059 
L 371.16164 290.807719 
L 371.81225 292.00644 
L 372.46286 291.245349 
L 373.113471 291.082555 
L 373.764081 289.729439 
L 374.414691 290.214198 
L 375.065302 290.123802 
L 376.366522 290.688988 
L 377.017132 290.394515 
L 378.318353 291.567199 
L 378.968963 292.261577 
L 379.619574 290.109082 
L 380.270184 289.132547 
L 380.920794 289.076014 
L 381.571405 290.697975 
L 382.222015 290.441045 
L 382.872625 290.858739 
L 383.523236 290.019959 
L 384.173846 290.357492 
L 384.824456 290.247748 
L 385.475066 292.211898 
L 386.125677 289.676702 
L 386.776287 290.313555 
L 387.426897 289.827656 
L 388.077508 289.812141 
L 388.728118 290.393232 
L 389.378728 289.665557 
L 390.679949 291.565149 
L 391.330559 291.301615 
L 391.98117 290.137462 
L 392.63178 289.337088 
L 393.28239 289.835126 
L 393.933001 289.475352 
L 394.583611 289.819717 
L 395.234221 291.500995 
L 395.884831 290.264231 
L 396.535442 291.288919 
L 397.186052 290.62735 
L 397.836662 291.259344 
L 398.487273 291.001872 
L 398.487273 291.001872 
" clip-path="url(#p842f5bbabb)" style="fill: none; stroke: #0000ff; stroke-width: 1.5; stroke-linecap: square"/>
   </g>
   <g id="line2d_13">
    <path d="M 73.832727 272.300967 
L 79.68822 272.279651 
L 80.33883 284.730029 
L 98.555919 284.709832 
L 398.487273 284.722147 
L 398.487273 284.722147 
" clip-path="url(#p842f5bbabb)" style="fill: none; stroke: #008000; stroke-width: 1.5; stroke-linecap: square"/>
   </g>
   <g id="line2d_14">
    <path d="M 73.832727 53.568 
L 74.483338 98.176992 
L 75.133948 158.125144 
L 75.784558 203.282495 
L 76.435169 228.907248 
L 77.085779 239.034835 
L 77.736389 243.723842 
L 78.386999 243.619895 
L 79.03761 244.564299 
L 79.68822 242.738984 
L 80.33883 244.954359 
L 80.989441 243.795843 
L 81.640051 243.403576 
L 82.941272 244.322618 
L 84.242492 247.0495 
L 84.893103 248.022601 
L 85.543713 249.373089 
L 86.194323 251.904725 
L 86.844934 240.841596 
L 87.495544 242.775104 
L 88.146154 246.669502 
L 90.097985 253.170235 
L 90.748595 255.713952 
L 91.399206 257.336889 
L 92.049816 259.453885 
L 92.700426 260.159095 
L 93.351037 247.622178 
L 96.604088 262.963463 
L 97.254698 262.096781 
L 97.905309 263.945827 
L 98.555919 264.466213 
L 99.206529 265.136694 
L 99.85714 255.559044 
L 100.50775 257.304039 
L 101.808971 262.648246 
L 102.459581 264.628593 
L 103.110191 265.562855 
L 103.760802 266.216381 
L 105.062022 267.914848 
L 105.712633 268.300131 
L 106.363243 258.494325 
L 108.315074 266.139274 
L 108.965684 267.424874 
L 109.616294 267.331728 
L 110.266905 269.791567 
L 110.917515 268.790234 
L 111.568125 270.715031 
L 112.218736 269.564402 
L 112.869346 260.247407 
L 113.519956 263.017346 
L 114.170567 264.703029 
L 114.821177 265.758525 
L 116.122398 269.642952 
L 116.773008 270.97882 
L 117.423618 271.122458 
L 118.074228 272.505032 
L 118.724839 273.202183 
L 119.375449 262.328743 
L 120.026059 264.384605 
L 120.67667 267.397385 
L 121.32728 269.645394 
L 121.97789 271.095768 
L 122.628501 270.946081 
L 123.279111 271.046979 
L 123.929721 270.176119 
L 124.580332 271.413876 
L 125.230942 273.759465 
L 125.881552 263.905537 
L 126.532163 266.098093 
L 127.182773 269.019989 
L 127.833383 270.555081 
L 128.483993 270.22157 
L 129.134604 271.896039 
L 130.435824 273.929417 
L 131.086435 274.409169 
L 131.737045 273.728178 
L 132.387655 264.108915 
L 133.038266 266.261104 
L 133.688876 270.05618 
L 134.339486 270.757967 
L 134.990097 270.576146 
L 135.640707 273.213768 
L 136.291317 272.20727 
L 136.941927 275.259536 
L 137.592538 273.525304 
L 138.243148 274.290769 
L 138.893758 265.142203 
L 139.544369 268.544215 
L 140.194979 267.243464 
L 140.845589 269.59347 
L 141.4962 271.231906 
L 142.14681 270.777025 
L 142.79742 272.276063 
L 143.448031 271.709721 
L 144.098641 272.744753 
L 144.749251 273.038885 
L 145.399862 265.520726 
L 147.351692 269.855089 
L 148.002303 269.725299 
L 148.652913 271.453314 
L 149.303523 270.945646 
L 149.954134 272.521216 
L 150.604744 270.501694 
L 151.255354 272.924065 
L 151.905965 266.356281 
L 152.556575 267.1392 
L 153.207185 268.692866 
L 154.508406 270.319721 
L 155.159016 271.685607 
L 155.809627 272.024877 
L 156.460237 273.675394 
L 157.110847 272.538366 
L 157.761457 273.276091 
L 158.412068 266.746161 
L 159.062678 268.004787 
L 159.713288 268.477231 
L 161.014509 272.003029 
L 161.665119 272.90837 
L 162.31573 271.477319 
L 162.96634 273.221092 
L 163.61695 272.727736 
L 164.267561 273.573881 
L 164.918171 265.57117 
L 165.568781 267.93313 
L 166.219392 267.952871 
L 166.870002 270.682716 
L 167.520612 270.771404 
L 168.171222 271.128339 
L 169.472443 272.625243 
L 170.123053 273.020531 
L 170.773664 272.994567 
L 171.424274 265.845278 
L 172.725495 270.25131 
L 173.376105 269.401462 
L 174.026715 271.691657 
L 174.677326 271.392256 
L 175.327936 272.346974 
L 175.978546 271.914936 
L 176.629156 273.24728 
L 177.279767 273.513002 
L 177.930377 266.308291 
L 179.882208 269.823038 
L 180.532818 271.898593 
L 181.183429 272.184868 
L 182.484649 271.469414 
L 183.13526 270.340486 
L 183.78587 271.889158 
L 184.43648 267.033742 
L 185.087091 268.385601 
L 185.737701 270.733221 
L 187.038921 270.569433 
L 187.689532 271.954295 
L 188.340142 271.777575 
L 188.990752 272.485815 
L 189.641363 272.800774 
L 190.291973 272.699361 
L 190.942583 267.477989 
L 191.593194 267.892192 
L 192.243804 269.130086 
L 192.894414 270.810099 
L 193.545025 271.744641 
L 194.195635 271.022824 
L 195.496856 273.737205 
L 196.147466 271.799699 
L 196.798076 273.698638 
L 197.448686 266.759982 
L 198.749907 270.696653 
L 199.400517 270.468308 
L 200.051128 271.737313 
L 200.701738 271.646842 
L 201.352348 271.678045 
L 202.002959 272.918918 
L 202.653569 273.662441 
L 203.304179 273.327291 
L 203.95479 267.087664 
L 205.25601 269.463637 
L 205.906621 270.270064 
L 206.557231 270.63431 
L 207.207841 272.71907 
L 207.858451 273.556539 
L 208.509062 272.511101 
L 209.159672 272.444038 
L 209.810282 273.125728 
L 210.460893 267.906784 
L 211.111503 267.890317 
L 211.762113 271.29975 
L 212.412724 269.609282 
L 213.063334 272.025516 
L 213.713944 271.521713 
L 214.364555 270.611447 
L 215.015165 272.608628 
L 215.665775 273.638238 
L 216.316385 271.667586 
L 216.966996 267.661054 
L 217.617606 268.84957 
L 218.268216 270.56436 
L 218.918827 270.96773 
L 219.569437 272.128694 
L 220.220047 272.166452 
L 220.870658 271.568704 
L 221.521268 272.852832 
L 222.171878 272.696367 
L 222.822489 271.48774 
L 223.473099 268.383526 
L 224.123709 268.686762 
L 224.77432 270.439624 
L 225.42493 271.064401 
L 226.07554 271.860498 
L 226.72615 271.864376 
L 227.376761 272.780799 
L 228.027371 273.076477 
L 228.677981 272.781125 
L 229.328592 272.871394 
L 229.979202 267.00716 
L 230.629812 269.087225 
L 231.931033 272.004688 
L 232.581643 271.467711 
L 233.232254 271.56408 
L 233.882864 272.530521 
L 234.533474 271.910495 
L 235.184085 272.856682 
L 235.834695 270.867204 
L 236.485305 267.463009 
L 237.135915 269.783435 
L 237.786526 269.864619 
L 238.437136 271.147924 
L 239.087746 270.584325 
L 239.738357 272.110562 
L 240.388967 272.522871 
L 241.690188 272.962872 
L 242.991408 269.165922 
L 243.642019 269.312846 
L 244.292629 269.732867 
L 244.943239 270.605498 
L 246.24446 271.30637 
L 246.89507 272.805933 
L 247.54568 271.956961 
L 248.196291 274.024717 
L 248.846901 271.816494 
L 249.497511 268.447667 
L 250.148122 269.618273 
L 250.798732 270.04361 
L 251.449342 271.065449 
L 252.099953 271.059292 
L 252.750563 271.37229 
L 253.401173 272.755133 
L 254.051784 271.486199 
L 254.702394 272.427864 
L 255.353004 272.241973 
L 256.003615 269.341191 
L 256.654225 269.062474 
L 257.304835 268.939173 
L 257.955445 271.718463 
L 258.606056 270.761341 
L 259.907276 271.968837 
L 260.557887 273.022036 
L 261.208497 273.368533 
L 261.859107 272.599377 
L 262.509718 268.362398 
L 263.160328 269.12229 
L 263.810938 270.452473 
L 264.461549 270.72656 
L 265.112159 270.267145 
L 265.762769 271.836545 
L 266.413379 272.298067 
L 267.06399 271.871424 
L 267.7146 270.872445 
L 268.36521 273.42503 
L 269.015821 267.893819 
L 269.666431 269.075759 
L 270.317041 270.536759 
L 270.967652 270.70163 
L 272.268872 270.450022 
L 272.919483 272.215749 
L 273.570093 271.798407 
L 274.220703 272.890857 
L 274.871314 272.434527 
L 275.521924 268.174032 
L 276.172534 269.807786 
L 276.823144 270.328224 
L 277.473755 269.886871 
L 278.124365 271.391004 
L 278.774975 270.656314 
L 279.425586 273.428136 
L 280.076196 272.757666 
L 280.726806 272.298303 
L 281.377417 272.769749 
L 282.028027 268.260905 
L 282.678637 268.949028 
L 283.329248 268.915726 
L 283.979858 270.376518 
L 284.630468 270.044094 
L 285.281079 271.321746 
L 285.931689 271.415797 
L 286.582299 271.642996 
L 287.232909 271.292793 
L 287.88352 273.050581 
L 288.53413 268.110866 
L 289.18474 269.738524 
L 289.835351 269.878592 
L 290.485961 270.623936 
L 291.136571 270.330563 
L 291.787182 270.630992 
L 292.437792 271.145681 
L 293.088402 272.21497 
L 293.739013 272.641532 
L 294.389623 271.621583 
L 295.040233 269.191224 
L 295.690844 269.222679 
L 296.341454 270.426983 
L 296.992064 270.566487 
L 297.642674 271.505598 
L 298.293285 271.391516 
L 298.943895 270.460437 
L 299.594505 270.501658 
L 300.245116 272.449874 
L 300.895726 272.161643 
L 301.546336 269.370511 
L 302.196947 269.008763 
L 302.847557 269.57502 
L 303.498167 269.166146 
L 304.148778 271.224946 
L 305.449998 271.741408 
L 306.100608 272.290982 
L 306.751219 271.917621 
L 307.401829 271.078737 
L 308.052439 270.004336 
L 308.70305 269.333775 
L 309.35366 269.170348 
L 310.654881 270.751755 
L 311.305491 270.320792 
L 311.956101 271.86418 
L 312.606712 270.88888 
L 313.907932 272.558887 
L 314.558543 268.218112 
L 315.209153 267.662973 
L 315.859763 269.290275 
L 316.510373 271.433033 
L 317.160984 270.978472 
L 317.811594 270.875212 
L 318.462204 271.01039 
L 319.112815 271.486756 
L 319.763425 270.915946 
L 320.414035 271.894957 
L 321.064646 268.504988 
L 321.715256 269.135207 
L 322.365866 270.03727 
L 323.016477 270.484104 
L 323.667087 270.64929 
L 324.317697 271.390145 
L 325.618918 270.679478 
L 326.269528 272.041326 
L 326.920138 271.935217 
L 327.570749 268.665613 
L 328.221359 269.691953 
L 328.871969 268.856334 
L 329.52258 270.509994 
L 330.17319 270.255584 
L 330.8238 270.700546 
L 331.474411 271.354948 
L 332.125021 271.020505 
L 332.775631 271.537745 
L 333.426242 270.919596 
L 334.076852 268.387952 
L 334.727462 268.013691 
L 335.378073 271.122106 
L 336.028683 270.868799 
L 336.679293 271.560664 
L 337.329903 270.282949 
L 337.980514 271.607651 
L 338.631124 270.986411 
L 339.281734 271.505992 
L 339.932345 270.381935 
L 340.582955 267.629679 
L 341.233565 268.959062 
L 341.884176 268.968453 
L 342.534786 270.877622 
L 343.185396 269.986529 
L 344.486617 269.78158 
L 345.137227 269.345457 
L 345.787837 271.083027 
L 346.438448 271.016019 
L 347.089058 267.919114 
L 347.739668 270.077152 
L 348.390279 271.202274 
L 349.040889 271.003586 
L 349.691499 270.588671 
L 350.34211 269.887755 
L 350.99272 270.566263 
L 352.293941 272.840235 
L 353.595161 269.299334 
L 354.245772 269.310104 
L 354.896382 269.710091 
L 355.546992 270.614633 
L 356.197602 269.401906 
L 356.848213 271.260703 
L 357.498823 271.684113 
L 358.149433 270.351232 
L 358.800044 270.010748 
L 359.450654 270.56791 
L 360.101264 269.397325 
L 360.751875 267.993745 
L 361.402485 270.11799 
L 362.053095 271.031319 
L 363.354316 270.771832 
L 364.004926 270.914546 
L 364.655537 270.736287 
L 365.306147 271.411333 
L 365.956757 272.700984 
L 366.607367 268.605078 
L 367.257978 269.998611 
L 367.908588 268.056471 
L 368.559198 269.559097 
L 369.209809 269.757565 
L 369.860419 270.961473 
L 370.511029 270.221354 
L 371.16164 270.580016 
L 371.81225 271.77873 
L 372.46286 271.017635 
L 373.113471 270.854867 
L 373.764081 269.501748 
L 374.414691 269.986509 
L 375.065302 269.896106 
L 376.366522 270.461288 
L 377.017132 270.166816 
L 378.318353 271.339488 
L 378.968963 272.033864 
L 379.619574 269.881394 
L 380.270184 268.90486 
L 380.920794 268.848322 
L 381.571405 270.470283 
L 382.222015 270.213346 
L 382.872625 270.631036 
L 383.523236 269.792255 
L 384.173846 270.129784 
L 384.824456 270.020035 
L 385.475066 271.984181 
L 386.125677 269.449013 
L 386.776287 270.085868 
L 387.426897 269.599963 
L 388.077508 269.584447 
L 388.728118 270.165536 
L 389.378728 269.437859 
L 390.679949 271.337441 
L 391.330559 271.073904 
L 391.98117 269.909747 
L 392.63178 269.109401 
L 393.28239 269.607439 
L 393.933001 269.247658 
L 394.583611 269.592023 
L 395.234221 271.273296 
L 395.884831 270.036534 
L 396.535442 271.061215 
L 397.186052 270.399645 
L 397.836662 271.031635 
L 398.487273 270.774159 
L 398.487273 270.774159 
" clip-path="url(#p842f5bbabb)" style="fill: none; stroke: #ff0000; stroke-width: 1.5; stroke-linecap: square"/>
   </g>
   <g id="patch_3">
    <path d="M 57.6 307.584 
L 57.6 41.472 
" style="fill: none; stroke: #000000; stroke-width: 0.8; stroke-linejoin: miter; stroke-linecap: square"/>
   </g>
   <g id="patch_4">
    <path d="M 414.72 307.584 
L 414.72 41.472 
" style="fill: none; stroke: #000000; stroke-width: 0.8; stroke-linejoin: miter; stroke-linecap: square"/>
   </g>
   <g id="patch_5">
    <path d="M 57.6 307.584 
L 414.72 307.584 
" style="fill: none; stroke: #000000; stroke-width: 0.8; stroke-linejoin: miter; stroke-linecap: square"/>
   </g>
   <g id="patch_6">
    <path d="M 57.6 41.472 
L 414.72 41.472 
" style="fill: none; stroke: #000000; stroke-width: 0.8; stroke-linejoin: miter; stroke-linecap: square"/>
   </g>
   <g id="text_14">
    <!-- The loss curve on λ_0.00025_iid/host/9 -->
    <g transform="translate(119.181562 35.472) scale(0.12 -0.12)">
     <defs>
      <path id="DejaVuSans-54" d="M -19 4666 
L 3928 4666 
L 3928 4134 
L 2272 4134 
L 2272 0 
L 1638 0 
L 1638 4134 
L -19 4134 
L -19 4666 
z
" transform="scale(0.015625)"/>
      <path id="DejaVuSans-72" d="M 2631 2963 
Q 2534 3019 2420 3045 
Q 2306 3072 2169 3072 
Q 1681 3072 1420 2755 
Q 1159 2438 1159 1844 
L 1159 0 
L 581 0 
L 581 3500 
L 1159 3500 
L 1159 2956 
Q 1341 3275 1631 3429 
Q 1922 3584 2338 3584 
Q 2397 3584 2469 3576 
Q 2541 3569 2628 3553 
L 2631 2963 
z
" transform="scale(0.015625)"/>
      <path id="DejaVuSans-6e" d="M 3513 2113 
L 3513 0 
L 2938 0 
L 2938 2094 
Q 2938 2591 2744 2837 
Q 2550 3084 2163 3084 
Q 1697 3084 1428 2787 
Q 1159 2491 1159 1978 
L 1159 0 
L 581 0 
L 581 3500 
L 1159 3500 
L 1159 2956 
Q 1366 3272 1645 3428 
Q 1925 3584 2291 3584 
Q 2894 3584 3203 3211 
Q 3513 2838 3513 2113 
z
" transform="scale(0.015625)"/>
      <path id="DejaVuSans-3bb" d="M 1981 4316 
L 3597 0 
L 2988 0 
L 2006 2588 
L 800 0 
L 191 0 
L 1725 3356 
L 1494 3975 
Q 1347 4369 1013 4369 
L 713 4369 
L 713 4863 
L 1078 4856 
Q 1784 4847 1981 4316 
z
" transform="scale(0.015625)"/>
      <path id="DejaVuSans-5f" d="M 3263 -1063 
L 3263 -1509 
L -63 -1509 
L -63 -1063 
L 3263 -1063 
z
" transform="scale(0.015625)"/>
      <path id="DejaVuSans-69" d="M 603 3500 
L 1178 3500 
L 1178 0 
L 603 0 
L 603 3500 
z
M 603 4863 
L 1178 4863 
L 1178 4134 
L 603 4134 
L 603 4863 
z
" transform="scale(0.015625)"/>
      <path id="DejaVuSans-64" d="M 2906 2969 
L 2906 4863 
L 3481 4863 
L 3481 0 
L 2906 0 
L 2906 525 
Q 2725 213 2448 61 
Q 2172 -91 1784 -91 
Q 1150 -91 751 415 
Q 353 922 353 1747 
Q 353 2572 751 3078 
Q 1150 3584 1784 3584 
Q 2172 3584 2448 3432 
Q 2725 3281 2906 2969 
z
M 947 1747 
Q 947 1113 1208 752 
Q 1469 391 1925 391 
Q 2381 391 2643 752 
Q 2906 1113 2906 1747 
Q 2906 2381 2643 2742 
Q 2381 3103 1925 3103 
Q 1469 3103 1208 2742 
Q 947 2381 947 1747 
z
" transform="scale(0.015625)"/>
      <path id="DejaVuSans-2f" d="M 1625 4666 
L 2156 4666 
L 531 -594 
L 0 -594 
L 1625 4666 
z
" transform="scale(0.015625)"/>
      <path id="DejaVuSans-74" d="M 1172 4494 
L 1172 3500 
L 2356 3500 
L 2356 3053 
L 1172 3053 
L 1172 1153 
Q 1172 725 1289 603 
Q 1406 481 1766 481 
L 2356 481 
L 2356 0 
L 1766 0 
Q 1100 0 847 248 
Q 594 497 594 1153 
L 594 3053 
L 172 3053 
L 172 3500 
L 594 3500 
L 594 4494 
L 1172 4494 
z
" transform="scale(0.015625)"/>
      <path id="DejaVuSans-39" d="M 703 97 
L 703 672 
Q 941 559 1184 500 
Q 1428 441 1663 441 
Q 2288 441 2617 861 
Q 2947 1281 2994 2138 
Q 2813 1869 2534 1725 
Q 2256 1581 1919 1581 
Q 1219 1581 811 2004 
Q 403 2428 403 3163 
Q 403 3881 828 4315 
Q 1253 4750 1959 4750 
Q 2769 4750 3195 4129 
Q 3622 3509 3622 2328 
Q 3622 1225 3098 567 
Q 2575 -91 1691 -91 
Q 1453 -91 1209 -44 
Q 966 3 703 97 
z
M 1959 2075 
Q 2384 2075 2632 2365 
Q 2881 2656 2881 3163 
Q 2881 3666 2632 3958 
Q 2384 4250 1959 4250 
Q 1534 4250 1286 3958 
Q 1038 3666 1038 3163 
Q 1038 2656 1286 2365 
Q 1534 2075 1959 2075 
z
" transform="scale(0.015625)"/>
     </defs>
     <use xlink:href="#DejaVuSans-54"/>
     <use xlink:href="#DejaVuSans-68" x="61.083984"/>
     <use xlink:href="#DejaVuSans-65" x="124.462891"/>
     <use xlink:href="#DejaVuSans-20" x="185.986328"/>
     <use xlink:href="#DejaVuSans-6c" x="217.773438"/>
     <use xlink:href="#DejaVuSans-6f" x="245.556641"/>
     <use xlink:href="#DejaVuSans-73" x="306.738281"/>
     <use xlink:href="#DejaVuSans-73" x="358.837891"/>
     <use xlink:href="#DejaVuSans-20" x="410.9375"/>
     <use xlink:href="#DejaVuSans-63" x="442.724609"/>
     <use xlink:href="#DejaVuSans-75" x="497.705078"/>
     <use xlink:href="#DejaVuSans-72" x="561.083984"/>
     <use xlink:href="#DejaVuSans-76" x="602.197266"/>
     <use xlink:href="#DejaVuSans-65" x="661.376953"/>
     <use xlink:href="#DejaVuSans-20" x="722.900391"/>
     <use xlink:href="#DejaVuSans-6f" x="754.6875"/>
     <use xlink:href="#DejaVuSans-6e" x="815.869141"/>
     <use xlink:href="#DejaVuSans-20" x="879.248047"/>
     <use xlink:href="#DejaVuSans-3bb" x="911.035156"/>
     <use xlink:href="#DejaVuSans-5f" x="970.214844"/>
     <use xlink:href="#DejaVuSans-30" x="1020.214844"/>
     <use xlink:href="#DejaVuSans-2e" x="1083.837891"/>
     <use xlink:href="#DejaVuSans-30" x="1115.625"/>
     <use xlink:href="#DejaVuSans-30" x="1179.248047"/>
     <use xlink:href="#DejaVuSans-30" x="1242.871094"/>
     <use xlink:href="#DejaVuSans-32" x="1306.494141"/>
     <use xlink:href="#DejaVuSans-35" x="1370.117188"/>
     <use xlink:href="#DejaVuSans-5f" x="1433.740234"/>
     <use xlink:href="#DejaVuSans-69" x="1483.740234"/>
     <use xlink:href="#DejaVuSans-69" x="1511.523438"/>
     <use xlink:href="#DejaVuSans-64" x="1539.306641"/>
     <use xlink:href="#DejaVuSans-2f" x="1602.783203"/>
     <use xlink:href="#DejaVuSans-68" x="1636.474609"/>
     <use xlink:href="#DejaVuSans-6f" x="1699.853516"/>
     <use xlink:href="#DejaVuSans-73" x="1761.035156"/>
     <use xlink:href="#DejaVuSans-74" x="1813.134766"/>
     <use xlink:href="#DejaVuSans-2f" x="1852.34375"/>
     <use xlink:href="#DejaVuSans-39" x="1886.035156"/>
    </g>
   </g>
   <g id="legend_1">
    <g id="patch_7">
     <path d="M 317.418438 94.34075 
L 407.72 94.34075 
Q 409.72 94.34075 409.72 92.34075 
L 409.72 48.472 
Q 409.72 46.472 407.72 46.472 
L 317.418438 46.472 
Q 315.418438 46.472 315.418438 48.472 
L 315.418438 92.34075 
Q 315.418438 94.34075 317.418438 94.34075 
z
" style="fill: #ffffff; opacity: 0.8; stroke: #cccccc; stroke-linejoin: miter"/>
    </g>
    <g id="line2d_15">
     <path d="M 319.418438 54.570438 
L 329.418438 54.570438 
L 339.418438 54.570438 
" style="fill: none; stroke: #0000ff; stroke-width: 1.5; stroke-linecap: square"/>
    </g>
    <g id="text_15">
     <!-- obj_loss -->
     <g transform="translate(347.418438 58.070438) scale(0.1 -0.1)">
      <defs>
       <path id="DejaVuSans-62" d="M 3116 1747 
Q 3116 2381 2855 2742 
Q 2594 3103 2138 3103 
Q 1681 3103 1420 2742 
Q 1159 2381 1159 1747 
Q 1159 1113 1420 752 
Q 1681 391 2138 391 
Q 2594 391 2855 752 
Q 3116 1113 3116 1747 
z
M 1159 2969 
Q 1341 3281 1617 3432 
Q 1894 3584 2278 3584 
Q 2916 3584 3314 3078 
Q 3713 2572 3713 1747 
Q 3713 922 3314 415 
Q 2916 -91 2278 -91 
Q 1894 -91 1617 61 
Q 1341 213 1159 525 
L 1159 0 
L 581 0 
L 581 4863 
L 1159 4863 
L 1159 2969 
z
" transform="scale(0.015625)"/>
       <path id="DejaVuSans-6a" d="M 603 3500 
L 1178 3500 
L 1178 -63 
Q 1178 -731 923 -1031 
Q 669 -1331 103 -1331 
L -116 -1331 
L -116 -844 
L 38 -844 
Q 366 -844 484 -692 
Q 603 -541 603 -63 
L 603 3500 
z
M 603 4863 
L 1178 4863 
L 1178 4134 
L 603 4134 
L 603 4863 
z
" transform="scale(0.015625)"/>
      </defs>
      <use xlink:href="#DejaVuSans-6f"/>
      <use xlink:href="#DejaVuSans-62" x="61.181641"/>
      <use xlink:href="#DejaVuSans-6a" x="124.658203"/>
      <use xlink:href="#DejaVuSans-5f" x="152.441406"/>
      <use xlink:href="#DejaVuSans-6c" x="202.441406"/>
      <use xlink:href="#DejaVuSans-6f" x="230.224609"/>
      <use xlink:href="#DejaVuSans-73" x="291.40625"/>
      <use xlink:href="#DejaVuSans-73" x="343.505859"/>
     </g>
    </g>
    <g id="line2d_16">
     <path d="M 319.418438 69.526688 
L 329.418438 69.526688 
L 339.418438 69.526688 
" style="fill: none; stroke: #008000; stroke-width: 1.5; stroke-linecap: square"/>
    </g>
    <g id="text_16">
     <!-- reg_loss -->
     <g transform="translate(347.418438 73.026688) scale(0.1 -0.1)">
      <defs>
       <path id="DejaVuSans-67" d="M 2906 1791 
Q 2906 2416 2648 2759 
Q 2391 3103 1925 3103 
Q 1463 3103 1205 2759 
Q 947 2416 947 1791 
Q 947 1169 1205 825 
Q 1463 481 1925 481 
Q 2391 481 2648 825 
Q 2906 1169 2906 1791 
z
M 3481 434 
Q 3481 -459 3084 -895 
Q 2688 -1331 1869 -1331 
Q 1566 -1331 1297 -1286 
Q 1028 -1241 775 -1147 
L 775 -588 
Q 1028 -725 1275 -790 
Q 1522 -856 1778 -856 
Q 2344 -856 2625 -561 
Q 2906 -266 2906 331 
L 2906 616 
Q 2728 306 2450 153 
Q 2172 0 1784 0 
Q 1141 0 747 490 
Q 353 981 353 1791 
Q 353 2603 747 3093 
Q 1141 3584 1784 3584 
Q 2172 3584 2450 3431 
Q 2728 3278 2906 2969 
L 2906 3500 
L 3481 3500 
L 3481 434 
z
" transform="scale(0.015625)"/>
      </defs>
      <use xlink:href="#DejaVuSans-72"/>
      <use xlink:href="#DejaVuSans-65" x="38.863281"/>
      <use xlink:href="#DejaVuSans-67" x="100.386719"/>
      <use xlink:href="#DejaVuSans-5f" x="163.863281"/>
      <use xlink:href="#DejaVuSans-6c" x="213.863281"/>
      <use xlink:href="#DejaVuSans-6f" x="241.646484"/>
      <use xlink:href="#DejaVuSans-73" x="302.828125"/>
      <use xlink:href="#DejaVuSans-73" x="354.927734"/>
     </g>
    </g>
    <g id="line2d_17">
     <path d="M 319.418438 84.482938 
L 329.418438 84.482938 
L 339.418438 84.482938 
" style="fill: none; stroke: #ff0000; stroke-width: 1.5; stroke-linecap: square"/>
    </g>
    <g id="text_17">
     <!-- overall_loss -->
     <g transform="translate(347.418438 87.982938) scale(0.1 -0.1)">
      <use xlink:href="#DejaVuSans-6f"/>
      <use xlink:href="#DejaVuSans-76" x="61.181641"/>
      <use xlink:href="#DejaVuSans-65" x="120.361328"/>
      <use xlink:href="#DejaVuSans-72" x="181.884766"/>
      <use xlink:href="#DejaVuSans-61" x="222.998047"/>
      <use xlink:href="#DejaVuSans-6c" x="284.277344"/>
      <use xlink:href="#DejaVuSans-6c" x="312.060547"/>
      <use xlink:href="#DejaVuSans-5f" x="339.84375"/>
      <use xlink:href="#DejaVuSans-6c" x="389.84375"/>
      <use xlink:href="#DejaVuSans-6f" x="417.626953"/>
      <use xlink:href="#DejaVuSans-73" x="478.808594"/>
      <use xlink:href="#DejaVuSans-73" x="530.908203"/>
     </g>
    </g>
   </g>
  </g>
 </g>
 <defs>
  <clipPath id="p842f5bbabb">
   <rect x="57.6" y="41.472" width="357.12" height="266.112"/>
  </clipPath>
 </defs>
</svg>
