<?xml version="1.0" encoding="utf-8" standalone="no"?>
<!DOCTYPE svg PUBLIC "-//W3C//DTD SVG 1.1//EN"
  "http://www.w3.org/Graphics/SVG/1.1/DTD/svg11.dtd">
<svg xmlns:xlink="http://www.w3.org/1999/xlink" width="460.8pt" height="345.6pt" viewBox="0 0 460.8 345.6" xmlns="http://www.w3.org/2000/svg" version="1.1">
 <metadata>
  <rdf:RDF xmlns:dc="http://purl.org/dc/elements/1.1/" xmlns:cc="http://creativecommons.org/ns#" xmlns:rdf="http://www.w3.org/1999/02/22-rdf-syntax-ns#">
   <cc:Work>
    <dc:type rdf:resource="http://purl.org/dc/dcmitype/StillImage"/>
    <dc:date>2023-10-19T23:25:36.380630</dc:date>
    <dc:format>image/svg+xml</dc:format>
    <dc:creator>
     <cc:Agent>
      <dc:title>Matplotlib v3.7.1, https://matplotlib.org/</dc:title>
     </cc:Agent>
    </dc:creator>
   </cc:Work>
  </rdf:RDF>
 </metadata>
 <defs>
  <style type="text/css">*{stroke-linejoin: round; stroke-linecap: butt}</style>
 </defs>
 <g id="figure_1">
  <g id="patch_1">
   <path d="M 0 345.6 
L 460.8 345.6 
L 460.8 0 
L 0 0 
z
" style="fill: #ffffff"/>
  </g>
  <g id="axes_1">
   <g id="patch_2">
    <path d="M 57.6 307.584 
L 414.72 307.584 
L 414.72 41.472 
L 57.6 41.472 
z
" style="fill: #ffffff"/>
   </g>
   <g id="matplotlib.axis_1">
    <g id="xtick_1">
     <g id="line2d_1">
      <defs>
       <path id="m384bbc2409" d="M 0 0 
L 0 3.5 
" style="stroke: #000000; stroke-width: 0.8"/>
      </defs>
      <g>
       <use xlink:href="#m384bbc2409" x="73.832727" y="307.584" style="stroke: #000000; stroke-width: 0.8"/>
      </g>
     </g>
     <g id="text_1">
      <!-- 0 -->
      <g transform="translate(70.651477 322.182437) scale(0.1 -0.1)">
       <defs>
        <path id="DejaVuSans-30" d="M 2034 4250 
Q 1547 4250 1301 3770 
Q 1056 3291 1056 2328 
Q 1056 1369 1301 889 
Q 1547 409 2034 409 
Q 2525 409 2770 889 
Q 3016 1369 3016 2328 
Q 3016 3291 2770 3770 
Q 2525 4250 2034 4250 
z
M 2034 4750 
Q 2819 4750 3233 4129 
Q 3647 3509 3647 2328 
Q 3647 1150 3233 529 
Q 2819 -91 2034 -91 
Q 1250 -91 836 529 
Q 422 1150 422 2328 
Q 422 3509 836 4129 
Q 1250 4750 2034 4750 
z
" transform="scale(0.015625)"/>
       </defs>
       <use xlink:href="#DejaVuSans-30"/>
      </g>
     </g>
    </g>
    <g id="xtick_2">
     <g id="line2d_2">
      <g>
       <use xlink:href="#m384bbc2409" x="114.618474" y="307.584" style="stroke: #000000; stroke-width: 0.8"/>
      </g>
     </g>
     <g id="text_2">
      <!-- 25 -->
      <g transform="translate(108.255974 322.182437) scale(0.1 -0.1)">
       <defs>
        <path id="DejaVuSans-32" d="M 1228 531 
L 3431 531 
L 3431 0 
L 469 0 
L 469 531 
Q 828 903 1448 1529 
Q 2069 2156 2228 2338 
Q 2531 2678 2651 2914 
Q 2772 3150 2772 3378 
Q 2772 3750 2511 3984 
Q 2250 4219 1831 4219 
Q 1534 4219 1204 4116 
Q 875 4013 500 3803 
L 500 4441 
Q 881 4594 1212 4672 
Q 1544 4750 1819 4750 
Q 2544 4750 2975 4387 
Q 3406 4025 3406 3419 
Q 3406 3131 3298 2873 
Q 3191 2616 2906 2266 
Q 2828 2175 2409 1742 
Q 1991 1309 1228 531 
z
" transform="scale(0.015625)"/>
        <path id="DejaVuSans-35" d="M 691 4666 
L 3169 4666 
L 3169 4134 
L 1269 4134 
L 1269 2991 
Q 1406 3038 1543 3061 
Q 1681 3084 1819 3084 
Q 2600 3084 3056 2656 
Q 3513 2228 3513 1497 
Q 3513 744 3044 326 
Q 2575 -91 1722 -91 
Q 1428 -91 1123 -41 
Q 819 9 494 109 
L 494 744 
Q 775 591 1075 516 
Q 1375 441 1709 441 
Q 2250 441 2565 725 
Q 2881 1009 2881 1497 
Q 2881 1984 2565 2268 
Q 2250 2553 1709 2553 
Q 1456 2553 1204 2497 
Q 953 2441 691 2322 
L 691 4666 
z
" transform="scale(0.015625)"/>
       </defs>
       <use xlink:href="#DejaVuSans-32"/>
       <use xlink:href="#DejaVuSans-35" x="63.623047"/>
      </g>
     </g>
    </g>
    <g id="xtick_3">
     <g id="line2d_3">
      <g>
       <use xlink:href="#m384bbc2409" x="155.404221" y="307.584" style="stroke: #000000; stroke-width: 0.8"/>
      </g>
     </g>
     <g id="text_3">
      <!-- 50 -->
      <g transform="translate(149.041721 322.182437) scale(0.1 -0.1)">
       <use xlink:href="#DejaVuSans-35"/>
       <use xlink:href="#DejaVuSans-30" x="63.623047"/>
      </g>
     </g>
    </g>
    <g id="xtick_4">
     <g id="line2d_4">
      <g>
       <use xlink:href="#m384bbc2409" x="196.189968" y="307.584" style="stroke: #000000; stroke-width: 0.8"/>
      </g>
     </g>
     <g id="text_4">
      <!-- 75 -->
      <g transform="translate(189.827468 322.182437) scale(0.1 -0.1)">
       <defs>
        <path id="DejaVuSans-37" d="M 525 4666 
L 3525 4666 
L 3525 4397 
L 1831 0 
L 1172 0 
L 2766 4134 
L 525 4134 
L 525 4666 
z
" transform="scale(0.015625)"/>
       </defs>
       <use xlink:href="#DejaVuSans-37"/>
       <use xlink:href="#DejaVuSans-35" x="63.623047"/>
      </g>
     </g>
    </g>
    <g id="xtick_5">
     <g id="line2d_5">
      <g>
       <use xlink:href="#m384bbc2409" x="236.975715" y="307.584" style="stroke: #000000; stroke-width: 0.8"/>
      </g>
     </g>
     <g id="text_5">
      <!-- 100 -->
      <g transform="translate(227.431965 322.182437) scale(0.1 -0.1)">
       <defs>
        <path id="DejaVuSans-31" d="M 794 531 
L 1825 531 
L 1825 4091 
L 703 3866 
L 703 4441 
L 1819 4666 
L 2450 4666 
L 2450 531 
L 3481 531 
L 3481 0 
L 794 0 
L 794 531 
z
" transform="scale(0.015625)"/>
       </defs>
       <use xlink:href="#DejaVuSans-31"/>
       <use xlink:href="#DejaVuSans-30" x="63.623047"/>
       <use xlink:href="#DejaVuSans-30" x="127.246094"/>
      </g>
     </g>
    </g>
    <g id="xtick_6">
     <g id="line2d_6">
      <g>
       <use xlink:href="#m384bbc2409" x="277.761462" y="307.584" style="stroke: #000000; stroke-width: 0.8"/>
      </g>
     </g>
     <g id="text_6">
      <!-- 125 -->
      <g transform="translate(268.217712 322.182437) scale(0.1 -0.1)">
       <use xlink:href="#DejaVuSans-31"/>
       <use xlink:href="#DejaVuSans-32" x="63.623047"/>
       <use xlink:href="#DejaVuSans-35" x="127.246094"/>
      </g>
     </g>
    </g>
    <g id="xtick_7">
     <g id="line2d_7">
      <g>
       <use xlink:href="#m384bbc2409" x="318.547209" y="307.584" style="stroke: #000000; stroke-width: 0.8"/>
      </g>
     </g>
     <g id="text_7">
      <!-- 150 -->
      <g transform="translate(309.003459 322.182437) scale(0.1 -0.1)">
       <use xlink:href="#DejaVuSans-31"/>
       <use xlink:href="#DejaVuSans-35" x="63.623047"/>
       <use xlink:href="#DejaVuSans-30" x="127.246094"/>
      </g>
     </g>
    </g>
    <g id="xtick_8">
     <g id="line2d_8">
      <g>
       <use xlink:href="#m384bbc2409" x="359.332956" y="307.584" style="stroke: #000000; stroke-width: 0.8"/>
      </g>
     </g>
     <g id="text_8">
      <!-- 175 -->
      <g transform="translate(349.789206 322.182437) scale(0.1 -0.1)">
       <use xlink:href="#DejaVuSans-31"/>
       <use xlink:href="#DejaVuSans-37" x="63.623047"/>
       <use xlink:href="#DejaVuSans-35" x="127.246094"/>
      </g>
     </g>
    </g>
    <g id="xtick_9">
     <g id="line2d_9">
      <g>
       <use xlink:href="#m384bbc2409" x="400.118703" y="307.584" style="stroke: #000000; stroke-width: 0.8"/>
      </g>
     </g>
     <g id="text_9">
      <!-- 200 -->
      <g transform="translate(390.574953 322.182437) scale(0.1 -0.1)">
       <use xlink:href="#DejaVuSans-32"/>
       <use xlink:href="#DejaVuSans-30" x="63.623047"/>
       <use xlink:href="#DejaVuSans-30" x="127.246094"/>
      </g>
     </g>
    </g>
    <g id="text_10">
     <!-- epoch -->
     <g transform="translate(220.931875 335.860562) scale(0.1 -0.1)">
      <defs>
       <path id="DejaVuSans-65" d="M 3597 1894 
L 3597 1613 
L 953 1613 
Q 991 1019 1311 708 
Q 1631 397 2203 397 
Q 2534 397 2845 478 
Q 3156 559 3463 722 
L 3463 178 
Q 3153 47 2828 -22 
Q 2503 -91 2169 -91 
Q 1331 -91 842 396 
Q 353 884 353 1716 
Q 353 2575 817 3079 
Q 1281 3584 2069 3584 
Q 2775 3584 3186 3129 
Q 3597 2675 3597 1894 
z
M 3022 2063 
Q 3016 2534 2758 2815 
Q 2500 3097 2075 3097 
Q 1594 3097 1305 2825 
Q 1016 2553 972 2059 
L 3022 2063 
z
" transform="scale(0.015625)"/>
       <path id="DejaVuSans-70" d="M 1159 525 
L 1159 -1331 
L 581 -1331 
L 581 3500 
L 1159 3500 
L 1159 2969 
Q 1341 3281 1617 3432 
Q 1894 3584 2278 3584 
Q 2916 3584 3314 3078 
Q 3713 2572 3713 1747 
Q 3713 922 3314 415 
Q 2916 -91 2278 -91 
Q 1894 -91 1617 61 
Q 1341 213 1159 525 
z
M 3116 1747 
Q 3116 2381 2855 2742 
Q 2594 3103 2138 3103 
Q 1681 3103 1420 2742 
Q 1159 2381 1159 1747 
Q 1159 1113 1420 752 
Q 1681 391 2138 391 
Q 2594 391 2855 752 
Q 3116 1113 3116 1747 
z
" transform="scale(0.015625)"/>
       <path id="DejaVuSans-6f" d="M 1959 3097 
Q 1497 3097 1228 2736 
Q 959 2375 959 1747 
Q 959 1119 1226 758 
Q 1494 397 1959 397 
Q 2419 397 2687 759 
Q 2956 1122 2956 1747 
Q 2956 2369 2687 2733 
Q 2419 3097 1959 3097 
z
M 1959 3584 
Q 2709 3584 3137 3096 
Q 3566 2609 3566 1747 
Q 3566 888 3137 398 
Q 2709 -91 1959 -91 
Q 1206 -91 779 398 
Q 353 888 353 1747 
Q 353 2609 779 3096 
Q 1206 3584 1959 3584 
z
" transform="scale(0.015625)"/>
       <path id="DejaVuSans-63" d="M 3122 3366 
L 3122 2828 
Q 2878 2963 2633 3030 
Q 2388 3097 2138 3097 
Q 1578 3097 1268 2742 
Q 959 2388 959 1747 
Q 959 1106 1268 751 
Q 1578 397 2138 397 
Q 2388 397 2633 464 
Q 2878 531 3122 666 
L 3122 134 
Q 2881 22 2623 -34 
Q 2366 -91 2075 -91 
Q 1284 -91 818 406 
Q 353 903 353 1747 
Q 353 2603 823 3093 
Q 1294 3584 2113 3584 
Q 2378 3584 2631 3529 
Q 2884 3475 3122 3366 
z
" transform="scale(0.015625)"/>
       <path id="DejaVuSans-68" d="M 3513 2113 
L 3513 0 
L 2938 0 
L 2938 2094 
Q 2938 2591 2744 2837 
Q 2550 3084 2163 3084 
Q 1697 3084 1428 2787 
Q 1159 2491 1159 1978 
L 1159 0 
L 581 0 
L 581 4863 
L 1159 4863 
L 1159 2956 
Q 1366 3272 1645 3428 
Q 1925 3584 2291 3584 
Q 2894 3584 3203 3211 
Q 3513 2838 3513 2113 
z
" transform="scale(0.015625)"/>
      </defs>
      <use xlink:href="#DejaVuSans-65"/>
      <use xlink:href="#DejaVuSans-70" x="61.523438"/>
      <use xlink:href="#DejaVuSans-6f" x="125"/>
      <use xlink:href="#DejaVuSans-63" x="186.181641"/>
      <use xlink:href="#DejaVuSans-68" x="241.162109"/>
     </g>
    </g>
   </g>
   <g id="matplotlib.axis_2">
    <g id="ytick_1">
     <g id="line2d_10">
      <defs>
       <path id="m8f02ce4237" d="M 0 0 
L -3.5 0 
" style="stroke: #000000; stroke-width: 0.8"/>
      </defs>
      <g>
       <use xlink:href="#m8f02ce4237" x="57.6" y="279.415303" style="stroke: #000000; stroke-width: 0.8"/>
      </g>
     </g>
     <g id="text_11">
      <!-- 62.5 -->
      <g transform="translate(28.334375 283.214522) scale(0.1 -0.1)">
       <defs>
        <path id="DejaVuSans-36" d="M 2113 2584 
Q 1688 2584 1439 2293 
Q 1191 2003 1191 1497 
Q 1191 994 1439 701 
Q 1688 409 2113 409 
Q 2538 409 2786 701 
Q 3034 994 3034 1497 
Q 3034 2003 2786 2293 
Q 2538 2584 2113 2584 
z
M 3366 4563 
L 3366 3988 
Q 3128 4100 2886 4159 
Q 2644 4219 2406 4219 
Q 1781 4219 1451 3797 
Q 1122 3375 1075 2522 
Q 1259 2794 1537 2939 
Q 1816 3084 2150 3084 
Q 2853 3084 3261 2657 
Q 3669 2231 3669 1497 
Q 3669 778 3244 343 
Q 2819 -91 2113 -91 
Q 1303 -91 875 529 
Q 447 1150 447 2328 
Q 447 3434 972 4092 
Q 1497 4750 2381 4750 
Q 2619 4750 2861 4703 
Q 3103 4656 3366 4563 
z
" transform="scale(0.015625)"/>
        <path id="DejaVuSans-2e" d="M 684 794 
L 1344 794 
L 1344 0 
L 684 0 
L 684 794 
z
" transform="scale(0.015625)"/>
       </defs>
       <use xlink:href="#DejaVuSans-36"/>
       <use xlink:href="#DejaVuSans-32" x="63.623047"/>
       <use xlink:href="#DejaVuSans-2e" x="127.246094"/>
       <use xlink:href="#DejaVuSans-35" x="159.033203"/>
      </g>
     </g>
    </g>
    <g id="ytick_2">
     <g id="line2d_11">
      <g>
       <use xlink:href="#m8f02ce4237" x="57.6" y="248.199856" style="stroke: #000000; stroke-width: 0.8"/>
      </g>
     </g>
     <g id="text_12">
      <!-- 65.0 -->
      <g transform="translate(28.334375 251.999075) scale(0.1 -0.1)">
       <use xlink:href="#DejaVuSans-36"/>
       <use xlink:href="#DejaVuSans-35" x="63.623047"/>
       <use xlink:href="#DejaVuSans-2e" x="127.246094"/>
       <use xlink:href="#DejaVuSans-30" x="159.033203"/>
      </g>
     </g>
    </g>
    <g id="ytick_3">
     <g id="line2d_12">
      <g>
       <use xlink:href="#m8f02ce4237" x="57.6" y="216.984409" style="stroke: #000000; stroke-width: 0.8"/>
      </g>
     </g>
     <g id="text_13">
      <!-- 67.5 -->
      <g transform="translate(28.334375 220.783628) scale(0.1 -0.1)">
       <use xlink:href="#DejaVuSans-36"/>
       <use xlink:href="#DejaVuSans-37" x="63.623047"/>
       <use xlink:href="#DejaVuSans-2e" x="127.246094"/>
       <use xlink:href="#DejaVuSans-35" x="159.033203"/>
      </g>
     </g>
    </g>
    <g id="ytick_4">
     <g id="line2d_13">
      <g>
       <use xlink:href="#m8f02ce4237" x="57.6" y="185.768962" style="stroke: #000000; stroke-width: 0.8"/>
      </g>
     </g>
     <g id="text_14">
      <!-- 70.0 -->
      <g transform="translate(28.334375 189.568181) scale(0.1 -0.1)">
       <use xlink:href="#DejaVuSans-37"/>
       <use xlink:href="#DejaVuSans-30" x="63.623047"/>
       <use xlink:href="#DejaVuSans-2e" x="127.246094"/>
       <use xlink:href="#DejaVuSans-30" x="159.033203"/>
      </g>
     </g>
    </g>
    <g id="ytick_5">
     <g id="line2d_14">
      <g>
       <use xlink:href="#m8f02ce4237" x="57.6" y="154.553515" style="stroke: #000000; stroke-width: 0.8"/>
      </g>
     </g>
     <g id="text_15">
      <!-- 72.5 -->
      <g transform="translate(28.334375 158.352734) scale(0.1 -0.1)">
       <use xlink:href="#DejaVuSans-37"/>
       <use xlink:href="#DejaVuSans-32" x="63.623047"/>
       <use xlink:href="#DejaVuSans-2e" x="127.246094"/>
       <use xlink:href="#DejaVuSans-35" x="159.033203"/>
      </g>
     </g>
    </g>
    <g id="ytick_6">
     <g id="line2d_15">
      <g>
       <use xlink:href="#m8f02ce4237" x="57.6" y="123.338068" style="stroke: #000000; stroke-width: 0.8"/>
      </g>
     </g>
     <g id="text_16">
      <!-- 75.0 -->
      <g transform="translate(28.334375 127.137287) scale(0.1 -0.1)">
       <use xlink:href="#DejaVuSans-37"/>
       <use xlink:href="#DejaVuSans-35" x="63.623047"/>
       <use xlink:href="#DejaVuSans-2e" x="127.246094"/>
       <use xlink:href="#DejaVuSans-30" x="159.033203"/>
      </g>
     </g>
    </g>
    <g id="ytick_7">
     <g id="line2d_16">
      <g>
       <use xlink:href="#m8f02ce4237" x="57.6" y="92.122621" style="stroke: #000000; stroke-width: 0.8"/>
      </g>
     </g>
     <g id="text_17">
      <!-- 77.5 -->
      <g transform="translate(28.334375 95.92184) scale(0.1 -0.1)">
       <use xlink:href="#DejaVuSans-37"/>
       <use xlink:href="#DejaVuSans-37" x="63.623047"/>
       <use xlink:href="#DejaVuSans-2e" x="127.246094"/>
       <use xlink:href="#DejaVuSans-35" x="159.033203"/>
      </g>
     </g>
    </g>
    <g id="ytick_8">
     <g id="line2d_17">
      <g>
       <use xlink:href="#m8f02ce4237" x="57.6" y="60.907174" style="stroke: #000000; stroke-width: 0.8"/>
      </g>
     </g>
     <g id="text_18">
      <!-- 80.0 -->
      <g transform="translate(28.334375 64.706393) scale(0.1 -0.1)">
       <defs>
        <path id="DejaVuSans-38" d="M 2034 2216 
Q 1584 2216 1326 1975 
Q 1069 1734 1069 1313 
Q 1069 891 1326 650 
Q 1584 409 2034 409 
Q 2484 409 2743 651 
Q 3003 894 3003 1313 
Q 3003 1734 2745 1975 
Q 2488 2216 2034 2216 
z
M 1403 2484 
Q 997 2584 770 2862 
Q 544 3141 544 3541 
Q 544 4100 942 4425 
Q 1341 4750 2034 4750 
Q 2731 4750 3128 4425 
Q 3525 4100 3525 3541 
Q 3525 3141 3298 2862 
Q 3072 2584 2669 2484 
Q 3125 2378 3379 2068 
Q 3634 1759 3634 1313 
Q 3634 634 3220 271 
Q 2806 -91 2034 -91 
Q 1263 -91 848 271 
Q 434 634 434 1313 
Q 434 1759 690 2068 
Q 947 2378 1403 2484 
z
M 1172 3481 
Q 1172 3119 1398 2916 
Q 1625 2713 2034 2713 
Q 2441 2713 2670 2916 
Q 2900 3119 2900 3481 
Q 2900 3844 2670 4047 
Q 2441 4250 2034 4250 
Q 1625 4250 1398 4047 
Q 1172 3844 1172 3481 
z
" transform="scale(0.015625)"/>
       </defs>
       <use xlink:href="#DejaVuSans-38"/>
       <use xlink:href="#DejaVuSans-30" x="63.623047"/>
       <use xlink:href="#DejaVuSans-2e" x="127.246094"/>
       <use xlink:href="#DejaVuSans-30" x="159.033203"/>
      </g>
     </g>
    </g>
    <g id="text_19">
     <!-- valid mAP -->
     <g transform="translate(22.254687 199.398313) rotate(-90) scale(0.1 -0.1)">
      <defs>
       <path id="DejaVuSans-76" d="M 191 3500 
L 800 3500 
L 1894 563 
L 2988 3500 
L 3597 3500 
L 2284 0 
L 1503 0 
L 191 3500 
z
" transform="scale(0.015625)"/>
       <path id="DejaVuSans-61" d="M 2194 1759 
Q 1497 1759 1228 1600 
Q 959 1441 959 1056 
Q 959 750 1161 570 
Q 1363 391 1709 391 
Q 2188 391 2477 730 
Q 2766 1069 2766 1631 
L 2766 1759 
L 2194 1759 
z
M 3341 1997 
L 3341 0 
L 2766 0 
L 2766 531 
Q 2569 213 2275 61 
Q 1981 -91 1556 -91 
Q 1019 -91 701 211 
Q 384 513 384 1019 
Q 384 1609 779 1909 
Q 1175 2209 1959 2209 
L 2766 2209 
L 2766 2266 
Q 2766 2663 2505 2880 
Q 2244 3097 1772 3097 
Q 1472 3097 1187 3025 
Q 903 2953 641 2809 
L 641 3341 
Q 956 3463 1253 3523 
Q 1550 3584 1831 3584 
Q 2591 3584 2966 3190 
Q 3341 2797 3341 1997 
z
" transform="scale(0.015625)"/>
       <path id="DejaVuSans-6c" d="M 603 4863 
L 1178 4863 
L 1178 0 
L 603 0 
L 603 4863 
z
" transform="scale(0.015625)"/>
       <path id="DejaVuSans-69" d="M 603 3500 
L 1178 3500 
L 1178 0 
L 603 0 
L 603 3500 
z
M 603 4863 
L 1178 4863 
L 1178 4134 
L 603 4134 
L 603 4863 
z
" transform="scale(0.015625)"/>
       <path id="DejaVuSans-64" d="M 2906 2969 
L 2906 4863 
L 3481 4863 
L 3481 0 
L 2906 0 
L 2906 525 
Q 2725 213 2448 61 
Q 2172 -91 1784 -91 
Q 1150 -91 751 415 
Q 353 922 353 1747 
Q 353 2572 751 3078 
Q 1150 3584 1784 3584 
Q 2172 3584 2448 3432 
Q 2725 3281 2906 2969 
z
M 947 1747 
Q 947 1113 1208 752 
Q 1469 391 1925 391 
Q 2381 391 2643 752 
Q 2906 1113 2906 1747 
Q 2906 2381 2643 2742 
Q 2381 3103 1925 3103 
Q 1469 3103 1208 2742 
Q 947 2381 947 1747 
z
" transform="scale(0.015625)"/>
       <path id="DejaVuSans-20" transform="scale(0.015625)"/>
       <path id="DejaVuSans-6d" d="M 3328 2828 
Q 3544 3216 3844 3400 
Q 4144 3584 4550 3584 
Q 5097 3584 5394 3201 
Q 5691 2819 5691 2113 
L 5691 0 
L 5113 0 
L 5113 2094 
Q 5113 2597 4934 2840 
Q 4756 3084 4391 3084 
Q 3944 3084 3684 2787 
Q 3425 2491 3425 1978 
L 3425 0 
L 2847 0 
L 2847 2094 
Q 2847 2600 2669 2842 
Q 2491 3084 2119 3084 
Q 1678 3084 1418 2786 
Q 1159 2488 1159 1978 
L 1159 0 
L 581 0 
L 581 3500 
L 1159 3500 
L 1159 2956 
Q 1356 3278 1631 3431 
Q 1906 3584 2284 3584 
Q 2666 3584 2933 3390 
Q 3200 3197 3328 2828 
z
" transform="scale(0.015625)"/>
       <path id="DejaVuSans-41" d="M 2188 4044 
L 1331 1722 
L 3047 1722 
L 2188 4044 
z
M 1831 4666 
L 2547 4666 
L 4325 0 
L 3669 0 
L 3244 1197 
L 1141 1197 
L 716 0 
L 50 0 
L 1831 4666 
z
" transform="scale(0.015625)"/>
       <path id="DejaVuSans-50" d="M 1259 4147 
L 1259 2394 
L 2053 2394 
Q 2494 2394 2734 2622 
Q 2975 2850 2975 3272 
Q 2975 3691 2734 3919 
Q 2494 4147 2053 4147 
L 1259 4147 
z
M 628 4666 
L 2053 4666 
Q 2838 4666 3239 4311 
Q 3641 3956 3641 3272 
Q 3641 2581 3239 2228 
Q 2838 1875 2053 1875 
L 1259 1875 
L 1259 0 
L 628 0 
L 628 4666 
z
" transform="scale(0.015625)"/>
      </defs>
      <use xlink:href="#DejaVuSans-76"/>
      <use xlink:href="#DejaVuSans-61" x="59.179688"/>
      <use xlink:href="#DejaVuSans-6c" x="120.458984"/>
      <use xlink:href="#DejaVuSans-69" x="148.242188"/>
      <use xlink:href="#DejaVuSans-64" x="176.025391"/>
      <use xlink:href="#DejaVuSans-20" x="239.501953"/>
      <use xlink:href="#DejaVuSans-6d" x="271.289062"/>
      <use xlink:href="#DejaVuSans-41" x="368.701172"/>
      <use xlink:href="#DejaVuSans-50" x="437.109375"/>
     </g>
    </g>
   </g>
   <g id="line2d_18">
    <path d="M 73.832727 223.613786 
L 75.464157 196.747715 
L 77.095587 159.775015 
L 78.727017 174.722192 
L 80.358447 124.397286 
L 81.989877 157.152166 
L 83.621307 152.718483 
L 85.252736 140.605636 
L 86.884166 119.931404 
L 88.515596 136.852123 
L 90.147026 120.379231 
L 91.778456 110.940768 
L 93.409886 91.027298 
L 95.041316 114.43736 
L 96.672746 101.90536 
L 98.304175 117.176904 
L 99.935605 99.848082 
L 101.567035 87.275119 
L 103.198465 94.308026 
L 104.829895 88.021878 
L 106.461325 99.452935 
L 108.092755 89.963889 
L 109.724185 89.836619 
L 111.355614 84.979972 
L 112.987044 71.342934 
L 114.618474 85.822565 
L 116.249904 87.433731 
L 117.881334 99.898285 
L 119.512764 101.368558 
L 121.144194 98.773813 
L 122.775624 84.429644 
L 124.407053 112.077339 
L 126.038483 80.765582 
L 127.669913 78.308395 
L 129.301343 76.663125 
L 130.932773 77.920774 
L 132.564203 77.724915 
L 134.195633 82.797425 
L 135.827063 78.221992 
L 137.458492 65.850699 
L 139.089922 79.26492 
L 140.721352 86.795285 
L 142.352782 74.879725 
L 143.984212 77.851613 
L 145.615642 78.53026 
L 147.247072 85.311103 
L 148.878502 74.941074 
L 150.509931 77.143817 
L 152.141361 74.105436 
L 153.772791 62.548633 
L 155.404221 68.942046 
L 157.035651 83.219531 
L 158.667081 74.683486 
L 160.298511 81.976457 
L 161.929941 80.564389 
L 163.56137 87.223678 
L 165.1928 71.585852 
L 166.82423 71.194611 
L 168.45566 79.051248 
L 170.08709 70.349065 
L 171.71852 75.707742 
L 173.34995 72.611823 
L 174.98138 64.622296 
L 176.61281 79.152987 
L 178.244239 72.663836 
L 179.875669 71.520502 
L 181.507099 72.774721 
L 183.138529 73.523671 
L 184.769959 75.858256 
L 186.401389 60.484592 
L 188.032819 76.870987 
L 189.664249 70.913778 
L 191.295678 70.263044 
L 192.927108 70.783555 
L 194.558538 88.027689 
L 196.189968 69.457032 
L 197.821398 68.904608 
L 199.452828 74.218226 
L 201.084258 67.17827 
L 202.715688 65.734194 
L 204.347117 73.623696 
L 205.978547 75.819008 
L 207.609977 74.5304 
L 209.241407 71.860397 
L 210.872837 74.835333 
L 212.504267 69.151146 
L 214.135697 69.30528 
L 215.767127 66.433512 
L 217.398556 65.413066 
L 219.029986 69.716621 
L 220.661416 70.358306 
L 222.292846 71.904979 
L 223.924276 71.126594 
L 225.555706 73.763255 
L 227.187136 74.813804 
L 228.818566 81.016026 
L 230.449995 63.661198 
L 232.081425 67.123209 
L 233.712855 74.646715 
L 235.344285 78.578462 
L 236.975715 64.549611 
L 238.607145 65.478034 
L 240.238575 75.08692 
L 241.870005 66.346824 
L 243.501434 69.361961 
L 245.132864 71.812289 
L 246.764294 70.625325 
L 248.395724 70.611322 
L 250.027154 80.569438 
L 251.658584 68.705796 
L 253.290014 68.800582 
L 254.921444 69.118757 
L 256.552873 77.117144 
L 258.184303 61.804637 
L 259.815733 66.462757 
L 261.447163 59.601037 
L 263.078593 79.103356 
L 264.710023 76.90147 
L 266.341453 67.379368 
L 267.972883 62.145103 
L 269.604312 76.611683 
L 271.235742 71.113448 
L 272.867172 63.227089 
L 274.498602 65.297322 
L 276.130032 65.722762 
L 277.761462 72.429587 
L 279.392892 75.509121 
L 281.024322 71.066102 
L 282.655751 62.334008 
L 284.287181 74.456953 
L 285.918611 69.248504 
L 287.550041 74.047898 
L 289.181471 67.343931 
L 290.812901 62.117096 
L 292.444331 67.53255 
L 294.075761 70.55807 
L 295.70719 73.345341 
L 297.33862 66.881624 
L 298.97005 71.367225 
L 300.60148 68.985009 
L 302.23291 75.024238 
L 303.86434 70.819279 
L 305.49577 73.221024 
L 307.1272 74.056948 
L 308.75863 70.645616 
L 310.390059 70.522728 
L 312.021489 66.77655 
L 313.652919 63.447335 
L 315.284349 72.687747 
L 316.915779 63.973371 
L 318.547209 63.407134 
L 320.178639 67.086723 
L 321.810069 68.83278 
L 323.441498 68.542327 
L 325.072928 65.060311 
L 326.704358 72.923235 
L 328.335788 54.011635 
L 329.967218 78.369172 
L 331.598648 67.328975 
L 333.230078 66.751973 
L 334.861508 66.000165 
L 336.492937 63.482391 
L 338.124367 63.169455 
L 339.755797 66.908012 
L 341.387227 66.129341 
L 343.018657 66.529917 
L 344.650087 72.640783 
L 346.281517 74.397033 
L 347.912947 68.416867 
L 349.544376 65.060501 
L 351.175806 69.668037 
L 352.807236 75.019951 
L 354.438666 62.793075 
L 356.070096 66.784743 
L 357.701526 67.12559 
L 359.332956 74.1725 
L 362.595815 64.031576 
L 364.227245 63.857533 
L 365.858675 64.904557 
L 367.490105 56.100349 
L 369.121535 61.595632 
L 372.384395 68.133938 
L 374.015825 64.709937 
L 375.647254 63.060761 
L 377.278684 60.206998 
L 378.910114 70.017458 
L 380.541544 69.319283 
L 382.172974 68.834305 
L 383.804404 62.99465 
L 385.435834 64.660305 
L 387.067264 68.894129 
L 388.698693 74.711778 
L 390.330123 64.903414 
L 391.961553 59.180646 
L 393.592983 73.252174 
L 395.224413 74.377409 
L 396.855843 70.390314 
L 398.487273 53.568 
L 398.487273 53.568 
" clip-path="url(#p92f22c1072)" style="fill: none; stroke: #008000; stroke-width: 1.5; stroke-linecap: square"/>
   </g>
   <g id="line2d_19">
    <path d="M 73.832727 178.09037 
L 75.464157 169.21281 
L 77.095587 138.063856 
L 78.727017 182.979405 
L 80.358447 144.58311 
L 81.989877 131.677111 
L 83.621307 141.592836 
L 85.252736 152.90996 
L 86.884166 132.909706 
L 88.515596 140.618592 
L 90.147026 128.87498 
L 91.778456 101.087536 
L 93.409886 119.529589 
L 95.041316 129.404256 
L 96.672746 128.997582 
L 98.304175 103.544818 
L 99.935605 105.143029 
L 101.567035 106.230349 
L 104.829895 89.083763 
L 106.461325 91.01701 
L 108.092755 99.212208 
L 109.724185 89.644761 
L 111.355614 103.485375 
L 112.987044 94.566758 
L 114.618474 86.596949 
L 116.249904 95.87861 
L 117.881334 91.748717 
L 119.512764 90.176323 
L 121.144194 95.636359 
L 122.775624 88.839893 
L 124.407053 89.234849 
L 126.038483 91.779582 
L 127.669913 88.920865 
L 129.301343 83.350897 
L 130.932773 86.165698 
L 132.564203 85.10267 
L 134.195633 78.722403 
L 135.827063 83.601055 
L 137.458492 67.573893 
L 139.089922 78.863867 
L 140.721352 80.543812 
L 142.352782 96.660806 
L 143.984212 91.681177 
L 145.615642 82.401421 
L 147.247072 86.236097 
L 148.878502 85.351494 
L 150.509931 76.658076 
L 152.141361 65.859368 
L 153.772791 76.291889 
L 155.404221 66.220887 
L 157.035651 79.477164 
L 158.667081 70.346589 
L 160.298511 77.171252 
L 161.929941 79.739611 
L 163.56137 75.8232 
L 165.1928 74.949552 
L 166.82423 74.847241 
L 168.45566 74.558978 
L 170.08709 75.082062 
L 171.71852 69.663179 
L 173.34995 77.716532 
L 174.98138 65.141188 
L 176.61281 60.459538 
L 178.244239 66.982983 
L 179.875669 62.617603 
L 181.507099 65.660652 
L 183.138529 74.409798 
L 184.769959 78.988089 
L 186.401389 76.051352 
L 188.032819 56.42043 
L 189.664249 65.815262 
L 191.295678 71.686544 
L 192.927108 66.887721 
L 194.558538 64.184758 
L 196.189968 77.481425 
L 197.821398 78.895399 
L 199.452828 70.814896 
L 201.084258 68.291597 
L 202.715688 68.864122 
L 204.347117 76.33952 
L 205.978547 71.969757 
L 207.609977 78.478628 
L 209.241407 61.893326 
L 210.872837 68.890033 
L 212.504267 71.84868 
L 214.135697 63.254143 
L 215.767127 71.655583 
L 217.398556 73.101184 
L 219.029986 68.092214 
L 220.661416 70.88701 
L 222.292846 62.471185 
L 223.924276 69.130474 
L 225.555706 76.64493 
L 227.187136 64.037006 
L 228.818566 62.338009 
L 230.449995 74.466384 
L 232.081425 78.37403 
L 233.712855 67.990379 
L 235.344285 64.544753 
L 236.975715 80.013775 
L 238.607145 64.936184 
L 240.238575 67.80014 
L 241.870005 72.662312 
L 243.501434 59.778319 
L 245.132864 82.727312 
L 246.764294 65.810499 
L 248.395724 65.628834 
L 250.027154 68.186618 
L 251.658584 70.139489 
L 253.290014 73.896907 
L 254.921444 68.880221 
L 256.552873 66.966884 
L 258.184303 59.514539 
L 261.447163 67.142833 
L 263.078593 64.216289 
L 264.710023 66.465044 
L 266.341453 72.469692 
L 267.972883 70.052801 
L 269.604312 78.551503 
L 271.235742 71.394756 
L 274.498602 63.80009 
L 276.130032 63.220325 
L 277.761462 66.591266 
L 279.392892 78.002127 
L 281.024322 63.033421 
L 282.655751 77.037123 
L 284.287181 77.982027 
L 285.918611 75.348986 
L 287.550041 67.877493 
L 289.181471 76.012009 
L 290.812901 61.573055 
L 292.444331 75.989623 
L 294.075761 70.987511 
L 295.70719 73.97226 
L 297.33862 65.700662 
L 298.97005 63.465911 
L 300.60148 70.061755 
L 302.23291 69.065791 
L 303.86434 74.529733 
L 305.49577 65.862226 
L 307.1272 62.571877 
L 308.75863 75.653919 
L 310.390059 59.998851 
L 312.021489 73.311046 
L 313.652919 73.233122 
L 315.284349 69.269271 
L 316.915779 66.487621 
L 318.547209 71.287967 
L 320.178639 69.030639 
L 321.810069 75.394616 
L 323.441498 63.97842 
L 325.072928 63.915261 
L 326.704358 70.874721 
L 328.335788 69.89438 
L 329.967218 63.700636 
L 333.230078 70.300005 
L 334.861508 74.123155 
L 336.492937 72.505416 
L 338.124367 65.727907 
L 339.755797 75.937133 
L 341.387227 61.624497 
L 343.018657 61.823118 
L 344.650087 81.391072 
L 346.281517 68.444969 
L 347.912947 62.439558 
L 349.544376 70.163876 
L 351.175806 77.18478 
L 352.807236 78.670771 
L 354.438666 62.010689 
L 356.070096 68.211386 
L 357.701526 64.461684 
L 359.332956 68.350469 
L 360.964386 69.820647 
L 362.595815 63.16374 
L 364.227245 68.691221 
L 365.858675 59.645048 
L 367.490105 70.207792 
L 369.121535 79.251869 
L 370.752965 76.499465 
L 372.384395 65.635979 
L 374.015825 78.082624 
L 375.647254 73.804694 
L 377.278684 68.436395 
L 378.910114 73.751728 
L 380.541544 74.089432 
L 382.172974 63.946507 
L 383.804404 66.421223 
L 385.435834 66.840757 
L 387.067264 68.88908 
L 388.698693 65.28208 
L 390.330123 74.092195 
L 391.961553 65.676465 
L 393.592983 71.295588 
L 395.224413 65.492419 
L 396.855843 58.690713 
L 398.487273 61.266311 
L 398.487273 61.266311 
" clip-path="url(#p92f22c1072)" style="fill: none; stroke: #0000ff; stroke-width: 1.5; stroke-linecap: square"/>
   </g>
   <g id="line2d_20">
    <path d="M 73.832727 295.488 
L 75.464157 273.604465 
L 77.095587 265.955975 
L 78.727017 263.006712 
L 80.358447 207.465069 
L 81.989877 198.089766 
L 83.621307 181.441019 
L 85.252736 213.179169 
L 86.884166 203.103023 
L 88.515596 169.764853 
L 90.147026 154.542845 
L 91.778456 160.932162 
L 93.409886 155.431926 
L 95.041316 159.928767 
L 96.672746 169.12555 
L 98.304175 127.613997 
L 99.935605 167.985359 
L 101.567035 144.570059 
L 103.198465 128.277306 
L 104.829895 125.132137 
L 106.461325 110.180197 
L 108.092755 114.859942 
L 109.724185 114.108801 
L 111.355614 122.048125 
L 112.987044 106.233302 
L 114.618474 99.031306 
L 116.249904 120.158223 
L 117.881334 122.355821 
L 119.512764 113.668786 
L 121.144194 117.229393 
L 122.775624 92.179016 
L 124.407053 102.667075 
L 126.038483 107.844182 
L 127.669913 110.258883 
L 129.301343 97.408232 
L 130.932773 101.841248 
L 132.564203 103.078035 
L 134.195633 110.436642 
L 135.827063 112.229377 
L 137.458492 99.897809 
L 139.089922 92.698861 
L 140.721352 98.15823 
L 142.352782 82.234713 
L 143.984212 101.764277 
L 145.615642 94.925705 
L 147.247072 103.191682 
L 148.878502 104.078667 
L 150.509931 91.865223 
L 152.141361 104.650524 
L 153.772791 89.770793 
L 155.404221 88.782545 
L 157.035651 92.041648 
L 158.667081 97.957036 
L 160.298511 81.557019 
L 161.929941 98.563284 
L 163.56137 93.626045 
L 165.1928 77.817795 
L 166.82423 89.633044 
L 168.45566 90.026 
L 170.08709 95.137758 
L 171.71852 93.244045 
L 173.34995 88.210116 
L 174.98138 99.249551 
L 176.61281 88.581447 
L 178.244239 90.540129 
L 179.875669 91.412252 
L 181.507099 101.231762 
L 183.138529 83.517796 
L 184.769959 84.206921 
L 186.401389 89.221227 
L 188.032819 100.321915 
L 189.664249 83.625919 
L 191.295678 81.06099 
L 192.927108 87.552427 
L 194.558538 92.517005 
L 196.189968 81.773359 
L 197.821398 86.939321 
L 199.452828 86.416428 
L 201.084258 92.022596 
L 202.715688 80.470365 
L 204.347117 105.151412 
L 205.978547 86.580755 
L 207.609977 81.823371 
L 209.241407 80.659841 
L 210.872837 69.25803 
L 212.504267 81.308957 
L 214.135697 91.534283 
L 215.767127 80.395013 
L 217.398556 89.641237 
L 219.029986 82.5265 
L 220.661416 84.697235 
L 222.292846 87.120414 
L 223.924276 77.554968 
L 225.555706 84.18282 
L 227.187136 84.738388 
L 228.818566 87.499176 
L 230.449995 87.103457 
L 232.081425 91.837121 
L 233.712855 91.728903 
L 235.344285 84.511855 
L 236.975715 82.677395 
L 238.607145 83.757475 
L 240.238575 81.284189 
L 241.870005 86.702214 
L 243.501434 88.512954 
L 245.132864 81.233223 
L 246.764294 86.84987 
L 248.395724 93.56965 
L 250.027154 83.800439 
L 251.658584 92.386115 
L 253.290014 86.447579 
L 254.921444 84.406495 
L 256.552873 78.220373 
L 258.184303 85.221843 
L 259.815733 85.699105 
L 261.447163 79.863928 
L 263.078593 82.494016 
L 264.710023 91.851219 
L 266.341453 91.083408 
L 267.972883 80.733003 
L 269.604312 92.453847 
L 271.235742 90.803909 
L 272.867172 93.80228 
L 274.498602 84.197776 
L 276.130032 93.666532 
L 277.761462 82.458197 
L 279.392892 78.931218 
L 281.024322 80.756342 
L 282.655751 90.170703 
L 284.287181 85.073139 
L 285.918611 84.987212 
L 287.550041 81.225126 
L 289.181471 85.043226 
L 290.812901 90.527268 
L 292.444331 94.979337 
L 294.075761 88.755776 
L 295.70719 93.271195 
L 297.33862 102.870554 
L 298.97005 83.443492 
L 300.60148 89.12968 
L 302.23291 90.318073 
L 303.86434 88.20259 
L 305.49577 73.436125 
L 307.1272 82.313875 
L 308.75863 87.434016 
L 310.390059 83.335941 
L 312.021489 84.739817 
L 313.652919 81.209503 
L 315.284349 82.2591 
L 316.915779 103.753061 
L 318.547209 86.007754 
L 320.178639 78.323541 
L 321.810069 85.450757 
L 323.441498 87.252161 
L 325.072928 85.433801 
L 326.704358 84.194442 
L 328.335788 82.639576 
L 328.335788 82.639576 
" clip-path="url(#p92f22c1072)" style="fill: none; stroke: #ff0000; stroke-width: 1.5; stroke-linecap: square"/>
   </g>
   <g id="patch_3">
    <path d="M 57.6 307.584 
L 57.6 41.472 
" style="fill: none; stroke: #000000; stroke-width: 0.8; stroke-linejoin: miter; stroke-linecap: square"/>
   </g>
   <g id="patch_4">
    <path d="M 414.72 307.584 
L 414.72 41.472 
" style="fill: none; stroke: #000000; stroke-width: 0.8; stroke-linejoin: miter; stroke-linecap: square"/>
   </g>
   <g id="patch_5">
    <path d="M 57.6 307.584 
L 414.72 307.584 
" style="fill: none; stroke: #000000; stroke-width: 0.8; stroke-linejoin: miter; stroke-linecap: square"/>
   </g>
   <g id="patch_6">
    <path d="M 57.6 41.472 
L 414.72 41.472 
" style="fill: none; stroke: #000000; stroke-width: 0.8; stroke-linejoin: miter; stroke-linecap: square"/>
   </g>
   <g id="text_20">
    <!-- The relation between mAP and total epochs of guest/10 -->
    <g transform="translate(68.745 35.472) scale(0.12 -0.12)">
     <defs>
      <path id="DejaVuSans-54" d="M -19 4666 
L 3928 4666 
L 3928 4134 
L 2272 4134 
L 2272 0 
L 1638 0 
L 1638 4134 
L -19 4134 
L -19 4666 
z
" transform="scale(0.015625)"/>
      <path id="DejaVuSans-72" d="M 2631 2963 
Q 2534 3019 2420 3045 
Q 2306 3072 2169 3072 
Q 1681 3072 1420 2755 
Q 1159 2438 1159 1844 
L 1159 0 
L 581 0 
L 581 3500 
L 1159 3500 
L 1159 2956 
Q 1341 3275 1631 3429 
Q 1922 3584 2338 3584 
Q 2397 3584 2469 3576 
Q 2541 3569 2628 3553 
L 2631 2963 
z
" transform="scale(0.015625)"/>
      <path id="DejaVuSans-74" d="M 1172 4494 
L 1172 3500 
L 2356 3500 
L 2356 3053 
L 1172 3053 
L 1172 1153 
Q 1172 725 1289 603 
Q 1406 481 1766 481 
L 2356 481 
L 2356 0 
L 1766 0 
Q 1100 0 847 248 
Q 594 497 594 1153 
L 594 3053 
L 172 3053 
L 172 3500 
L 594 3500 
L 594 4494 
L 1172 4494 
z
" transform="scale(0.015625)"/>
      <path id="DejaVuSans-6e" d="M 3513 2113 
L 3513 0 
L 2938 0 
L 2938 2094 
Q 2938 2591 2744 2837 
Q 2550 3084 2163 3084 
Q 1697 3084 1428 2787 
Q 1159 2491 1159 1978 
L 1159 0 
L 581 0 
L 581 3500 
L 1159 3500 
L 1159 2956 
Q 1366 3272 1645 3428 
Q 1925 3584 2291 3584 
Q 2894 3584 3203 3211 
Q 3513 2838 3513 2113 
z
" transform="scale(0.015625)"/>
      <path id="DejaVuSans-62" d="M 3116 1747 
Q 3116 2381 2855 2742 
Q 2594 3103 2138 3103 
Q 1681 3103 1420 2742 
Q 1159 2381 1159 1747 
Q 1159 1113 1420 752 
Q 1681 391 2138 391 
Q 2594 391 2855 752 
Q 3116 1113 3116 1747 
z
M 1159 2969 
Q 1341 3281 1617 3432 
Q 1894 3584 2278 3584 
Q 2916 3584 3314 3078 
Q 3713 2572 3713 1747 
Q 3713 922 3314 415 
Q 2916 -91 2278 -91 
Q 1894 -91 1617 61 
Q 1341 213 1159 525 
L 1159 0 
L 581 0 
L 581 4863 
L 1159 4863 
L 1159 2969 
z
" transform="scale(0.015625)"/>
      <path id="DejaVuSans-77" d="M 269 3500 
L 844 3500 
L 1563 769 
L 2278 3500 
L 2956 3500 
L 3675 769 
L 4391 3500 
L 4966 3500 
L 4050 0 
L 3372 0 
L 2619 2869 
L 1863 0 
L 1184 0 
L 269 3500 
z
" transform="scale(0.015625)"/>
      <path id="DejaVuSans-73" d="M 2834 3397 
L 2834 2853 
Q 2591 2978 2328 3040 
Q 2066 3103 1784 3103 
Q 1356 3103 1142 2972 
Q 928 2841 928 2578 
Q 928 2378 1081 2264 
Q 1234 2150 1697 2047 
L 1894 2003 
Q 2506 1872 2764 1633 
Q 3022 1394 3022 966 
Q 3022 478 2636 193 
Q 2250 -91 1575 -91 
Q 1294 -91 989 -36 
Q 684 19 347 128 
L 347 722 
Q 666 556 975 473 
Q 1284 391 1588 391 
Q 1994 391 2212 530 
Q 2431 669 2431 922 
Q 2431 1156 2273 1281 
Q 2116 1406 1581 1522 
L 1381 1569 
Q 847 1681 609 1914 
Q 372 2147 372 2553 
Q 372 3047 722 3315 
Q 1072 3584 1716 3584 
Q 2034 3584 2315 3537 
Q 2597 3491 2834 3397 
z
" transform="scale(0.015625)"/>
      <path id="DejaVuSans-66" d="M 2375 4863 
L 2375 4384 
L 1825 4384 
Q 1516 4384 1395 4259 
Q 1275 4134 1275 3809 
L 1275 3500 
L 2222 3500 
L 2222 3053 
L 1275 3053 
L 1275 0 
L 697 0 
L 697 3053 
L 147 3053 
L 147 3500 
L 697 3500 
L 697 3744 
Q 697 4328 969 4595 
Q 1241 4863 1831 4863 
L 2375 4863 
z
" transform="scale(0.015625)"/>
      <path id="DejaVuSans-67" d="M 2906 1791 
Q 2906 2416 2648 2759 
Q 2391 3103 1925 3103 
Q 1463 3103 1205 2759 
Q 947 2416 947 1791 
Q 947 1169 1205 825 
Q 1463 481 1925 481 
Q 2391 481 2648 825 
Q 2906 1169 2906 1791 
z
M 3481 434 
Q 3481 -459 3084 -895 
Q 2688 -1331 1869 -1331 
Q 1566 -1331 1297 -1286 
Q 1028 -1241 775 -1147 
L 775 -588 
Q 1028 -725 1275 -790 
Q 1522 -856 1778 -856 
Q 2344 -856 2625 -561 
Q 2906 -266 2906 331 
L 2906 616 
Q 2728 306 2450 153 
Q 2172 0 1784 0 
Q 1141 0 747 490 
Q 353 981 353 1791 
Q 353 2603 747 3093 
Q 1141 3584 1784 3584 
Q 2172 3584 2450 3431 
Q 2728 3278 2906 2969 
L 2906 3500 
L 3481 3500 
L 3481 434 
z
" transform="scale(0.015625)"/>
      <path id="DejaVuSans-75" d="M 544 1381 
L 544 3500 
L 1119 3500 
L 1119 1403 
Q 1119 906 1312 657 
Q 1506 409 1894 409 
Q 2359 409 2629 706 
Q 2900 1003 2900 1516 
L 2900 3500 
L 3475 3500 
L 3475 0 
L 2900 0 
L 2900 538 
Q 2691 219 2414 64 
Q 2138 -91 1772 -91 
Q 1169 -91 856 284 
Q 544 659 544 1381 
z
M 1991 3584 
L 1991 3584 
z
" transform="scale(0.015625)"/>
      <path id="DejaVuSans-2f" d="M 1625 4666 
L 2156 4666 
L 531 -594 
L 0 -594 
L 1625 4666 
z
" transform="scale(0.015625)"/>
     </defs>
     <use xlink:href="#DejaVuSans-54"/>
     <use xlink:href="#DejaVuSans-68" x="61.083984"/>
     <use xlink:href="#DejaVuSans-65" x="124.462891"/>
     <use xlink:href="#DejaVuSans-20" x="185.986328"/>
     <use xlink:href="#DejaVuSans-72" x="217.773438"/>
     <use xlink:href="#DejaVuSans-65" x="256.636719"/>
     <use xlink:href="#DejaVuSans-6c" x="318.160156"/>
     <use xlink:href="#DejaVuSans-61" x="345.943359"/>
     <use xlink:href="#DejaVuSans-74" x="407.222656"/>
     <use xlink:href="#DejaVuSans-69" x="446.431641"/>
     <use xlink:href="#DejaVuSans-6f" x="474.214844"/>
     <use xlink:href="#DejaVuSans-6e" x="535.396484"/>
     <use xlink:href="#DejaVuSans-20" x="598.775391"/>
     <use xlink:href="#DejaVuSans-62" x="630.5625"/>
     <use xlink:href="#DejaVuSans-65" x="694.039062"/>
     <use xlink:href="#DejaVuSans-74" x="755.5625"/>
     <use xlink:href="#DejaVuSans-77" x="794.771484"/>
     <use xlink:href="#DejaVuSans-65" x="876.558594"/>
     <use xlink:href="#DejaVuSans-65" x="938.082031"/>
     <use xlink:href="#DejaVuSans-6e" x="999.605469"/>
     <use xlink:href="#DejaVuSans-20" x="1062.984375"/>
     <use xlink:href="#DejaVuSans-6d" x="1094.771484"/>
     <use xlink:href="#DejaVuSans-41" x="1192.183594"/>
     <use xlink:href="#DejaVuSans-50" x="1260.591797"/>
     <use xlink:href="#DejaVuSans-20" x="1320.894531"/>
     <use xlink:href="#DejaVuSans-61" x="1352.681641"/>
     <use xlink:href="#DejaVuSans-6e" x="1413.960938"/>
     <use xlink:href="#DejaVuSans-64" x="1477.339844"/>
     <use xlink:href="#DejaVuSans-20" x="1540.816406"/>
     <use xlink:href="#DejaVuSans-74" x="1572.603516"/>
     <use xlink:href="#DejaVuSans-6f" x="1611.8125"/>
     <use xlink:href="#DejaVuSans-74" x="1672.994141"/>
     <use xlink:href="#DejaVuSans-61" x="1712.203125"/>
     <use xlink:href="#DejaVuSans-6c" x="1773.482422"/>
     <use xlink:href="#DejaVuSans-20" x="1801.265625"/>
     <use xlink:href="#DejaVuSans-65" x="1833.052734"/>
     <use xlink:href="#DejaVuSans-70" x="1894.576172"/>
     <use xlink:href="#DejaVuSans-6f" x="1958.052734"/>
     <use xlink:href="#DejaVuSans-63" x="2019.234375"/>
     <use xlink:href="#DejaVuSans-68" x="2074.214844"/>
     <use xlink:href="#DejaVuSans-73" x="2137.59375"/>
     <use xlink:href="#DejaVuSans-20" x="2189.693359"/>
     <use xlink:href="#DejaVuSans-6f" x="2221.480469"/>
     <use xlink:href="#DejaVuSans-66" x="2282.662109"/>
     <use xlink:href="#DejaVuSans-20" x="2317.867188"/>
     <use xlink:href="#DejaVuSans-67" x="2349.654297"/>
     <use xlink:href="#DejaVuSans-75" x="2413.130859"/>
     <use xlink:href="#DejaVuSans-65" x="2476.509766"/>
     <use xlink:href="#DejaVuSans-73" x="2538.033203"/>
     <use xlink:href="#DejaVuSans-74" x="2590.132812"/>
     <use xlink:href="#DejaVuSans-2f" x="2629.341797"/>
     <use xlink:href="#DejaVuSans-31" x="2663.033203"/>
     <use xlink:href="#DejaVuSans-30" x="2726.65625"/>
    </g>
   </g>
   <g id="legend_1">
    <g id="patch_7">
     <path d="M 279.42625 302.584 
L 407.72 302.584 
Q 409.72 302.584 409.72 300.584 
L 409.72 257.549625 
Q 409.72 255.549625 407.72 255.549625 
L 279.42625 255.549625 
Q 277.42625 255.549625 277.42625 257.549625 
L 277.42625 300.584 
Q 277.42625 302.584 279.42625 302.584 
z
" style="fill: #ffffff; opacity: 0.8; stroke: #cccccc; stroke-linejoin: miter"/>
    </g>
    <g id="line2d_21">
     <path d="M 281.42625 263.648062 
L 291.42625 263.648062 
L 301.42625 263.648062 
" style="fill: none; stroke: #008000; stroke-width: 1.5; stroke-linecap: square"/>
    </g>
    <g id="text_21">
     <!-- FPSL -->
     <g transform="translate(309.42625 267.148062) scale(0.1 -0.1)">
      <defs>
       <path id="DejaVuSans-46" d="M 628 4666 
L 3309 4666 
L 3309 4134 
L 1259 4134 
L 1259 2759 
L 3109 2759 
L 3109 2228 
L 1259 2228 
L 1259 0 
L 628 0 
L 628 4666 
z
" transform="scale(0.015625)"/>
       <path id="DejaVuSans-53" d="M 3425 4513 
L 3425 3897 
Q 3066 4069 2747 4153 
Q 2428 4238 2131 4238 
Q 1616 4238 1336 4038 
Q 1056 3838 1056 3469 
Q 1056 3159 1242 3001 
Q 1428 2844 1947 2747 
L 2328 2669 
Q 3034 2534 3370 2195 
Q 3706 1856 3706 1288 
Q 3706 609 3251 259 
Q 2797 -91 1919 -91 
Q 1588 -91 1214 -16 
Q 841 59 441 206 
L 441 856 
Q 825 641 1194 531 
Q 1563 422 1919 422 
Q 2459 422 2753 634 
Q 3047 847 3047 1241 
Q 3047 1584 2836 1778 
Q 2625 1972 2144 2069 
L 1759 2144 
Q 1053 2284 737 2584 
Q 422 2884 422 3419 
Q 422 4038 858 4394 
Q 1294 4750 2059 4750 
Q 2388 4750 2728 4690 
Q 3069 4631 3425 4513 
z
" transform="scale(0.015625)"/>
       <path id="DejaVuSans-4c" d="M 628 4666 
L 1259 4666 
L 1259 531 
L 3531 531 
L 3531 0 
L 628 0 
L 628 4666 
z
" transform="scale(0.015625)"/>
      </defs>
      <use xlink:href="#DejaVuSans-46"/>
      <use xlink:href="#DejaVuSans-50" x="57.519531"/>
      <use xlink:href="#DejaVuSans-53" x="117.822266"/>
      <use xlink:href="#DejaVuSans-4c" x="181.298828"/>
     </g>
    </g>
    <g id="line2d_22">
     <path d="M 281.42625 278.326188 
L 291.42625 278.326188 
L 301.42625 278.326188 
" style="fill: none; stroke: #0000ff; stroke-width: 1.5; stroke-linecap: square"/>
    </g>
    <g id="text_22">
     <!-- FPSL Weight Decay -->
     <g transform="translate(309.42625 281.826188) scale(0.1 -0.1)">
      <defs>
       <path id="DejaVuSans-57" d="M 213 4666 
L 850 4666 
L 1831 722 
L 2809 4666 
L 3519 4666 
L 4500 722 
L 5478 4666 
L 6119 4666 
L 4947 0 
L 4153 0 
L 3169 4050 
L 2175 0 
L 1381 0 
L 213 4666 
z
" transform="scale(0.015625)"/>
       <path id="DejaVuSans-44" d="M 1259 4147 
L 1259 519 
L 2022 519 
Q 2988 519 3436 956 
Q 3884 1394 3884 2338 
Q 3884 3275 3436 3711 
Q 2988 4147 2022 4147 
L 1259 4147 
z
M 628 4666 
L 1925 4666 
Q 3281 4666 3915 4102 
Q 4550 3538 4550 2338 
Q 4550 1131 3912 565 
Q 3275 0 1925 0 
L 628 0 
L 628 4666 
z
" transform="scale(0.015625)"/>
       <path id="DejaVuSans-79" d="M 2059 -325 
Q 1816 -950 1584 -1140 
Q 1353 -1331 966 -1331 
L 506 -1331 
L 506 -850 
L 844 -850 
Q 1081 -850 1212 -737 
Q 1344 -625 1503 -206 
L 1606 56 
L 191 3500 
L 800 3500 
L 1894 763 
L 2988 3500 
L 3597 3500 
L 2059 -325 
z
" transform="scale(0.015625)"/>
      </defs>
      <use xlink:href="#DejaVuSans-46"/>
      <use xlink:href="#DejaVuSans-50" x="57.519531"/>
      <use xlink:href="#DejaVuSans-53" x="117.822266"/>
      <use xlink:href="#DejaVuSans-4c" x="181.298828"/>
      <use xlink:href="#DejaVuSans-20" x="237.011719"/>
      <use xlink:href="#DejaVuSans-57" x="268.798828"/>
      <use xlink:href="#DejaVuSans-65" x="361.800781"/>
      <use xlink:href="#DejaVuSans-69" x="423.324219"/>
      <use xlink:href="#DejaVuSans-67" x="451.107422"/>
      <use xlink:href="#DejaVuSans-68" x="514.583984"/>
      <use xlink:href="#DejaVuSans-74" x="577.962891"/>
      <use xlink:href="#DejaVuSans-20" x="617.171875"/>
      <use xlink:href="#DejaVuSans-44" x="648.958984"/>
      <use xlink:href="#DejaVuSans-65" x="725.960938"/>
      <use xlink:href="#DejaVuSans-63" x="787.484375"/>
      <use xlink:href="#DejaVuSans-61" x="842.464844"/>
      <use xlink:href="#DejaVuSans-79" x="903.744141"/>
     </g>
    </g>
    <g id="line2d_23">
     <path d="M 281.42625 293.004312 
L 291.42625 293.004312 
L 301.42625 293.004312 
" style="fill: none; stroke: #ff0000; stroke-width: 1.5; stroke-linecap: square"/>
    </g>
    <g id="text_23">
     <!-- Interactive -->
     <g transform="translate(309.42625 296.504312) scale(0.1 -0.1)">
      <defs>
       <path id="DejaVuSans-49" d="M 628 4666 
L 1259 4666 
L 1259 0 
L 628 0 
L 628 4666 
z
" transform="scale(0.015625)"/>
      </defs>
      <use xlink:href="#DejaVuSans-49"/>
      <use xlink:href="#DejaVuSans-6e" x="29.492188"/>
      <use xlink:href="#DejaVuSans-74" x="92.871094"/>
      <use xlink:href="#DejaVuSans-65" x="132.080078"/>
      <use xlink:href="#DejaVuSans-72" x="193.603516"/>
      <use xlink:href="#DejaVuSans-61" x="234.716797"/>
      <use xlink:href="#DejaVuSans-63" x="295.996094"/>
      <use xlink:href="#DejaVuSans-74" x="350.976562"/>
      <use xlink:href="#DejaVuSans-69" x="390.185547"/>
      <use xlink:href="#DejaVuSans-76" x="417.96875"/>
      <use xlink:href="#DejaVuSans-65" x="477.148438"/>
     </g>
    </g>
   </g>
  </g>
 </g>
 <defs>
  <clipPath id="p92f22c1072">
   <rect x="57.6" y="41.472" width="357.12" height="266.112"/>
  </clipPath>
 </defs>
</svg>
