<?xml version="1.0" encoding="utf-8" standalone="no"?>
<!DOCTYPE svg PUBLIC "-//W3C//DTD SVG 1.1//EN"
  "http://www.w3.org/Graphics/SVG/1.1/DTD/svg11.dtd">
<svg xmlns:xlink="http://www.w3.org/1999/xlink" width="460.8pt" height="345.6pt" viewBox="0 0 460.8 345.6" xmlns="http://www.w3.org/2000/svg" version="1.1">
 <metadata>
  <rdf:RDF xmlns:dc="http://purl.org/dc/elements/1.1/" xmlns:cc="http://creativecommons.org/ns#" xmlns:rdf="http://www.w3.org/1999/02/22-rdf-syntax-ns#">
   <cc:Work>
    <dc:type rdf:resource="http://purl.org/dc/dcmitype/StillImage"/>
    <dc:date>2023-10-19T23:25:36.613379</dc:date>
    <dc:format>image/svg+xml</dc:format>
    <dc:creator>
     <cc:Agent>
      <dc:title>Matplotlib v3.7.1, https://matplotlib.org/</dc:title>
     </cc:Agent>
    </dc:creator>
   </cc:Work>
  </rdf:RDF>
 </metadata>
 <defs>
  <style type="text/css">*{stroke-linejoin: round; stroke-linecap: butt}</style>
 </defs>
 <g id="figure_1">
  <g id="patch_1">
   <path d="M 0 345.6 
L 460.8 345.6 
L 460.8 0 
L 0 0 
z
" style="fill: #ffffff"/>
  </g>
  <g id="axes_1">
   <g id="patch_2">
    <path d="M 57.6 307.584 
L 414.72 307.584 
L 414.72 41.472 
L 57.6 41.472 
z
" style="fill: #ffffff"/>
   </g>
   <g id="matplotlib.axis_1">
    <g id="xtick_1">
     <g id="line2d_1">
      <defs>
       <path id="m0517911461" d="M 0 0 
L 0 3.5 
" style="stroke: #000000; stroke-width: 0.8"/>
      </defs>
      <g>
       <use xlink:href="#m0517911461" x="73.832727" y="307.584" style="stroke: #000000; stroke-width: 0.8"/>
      </g>
     </g>
     <g id="text_1">
      <!-- 0 -->
      <g transform="translate(70.651477 322.182437) scale(0.1 -0.1)">
       <defs>
        <path id="DejaVuSans-30" d="M 2034 4250 
Q 1547 4250 1301 3770 
Q 1056 3291 1056 2328 
Q 1056 1369 1301 889 
Q 1547 409 2034 409 
Q 2525 409 2770 889 
Q 3016 1369 3016 2328 
Q 3016 3291 2770 3770 
Q 2525 4250 2034 4250 
z
M 2034 4750 
Q 2819 4750 3233 4129 
Q 3647 3509 3647 2328 
Q 3647 1150 3233 529 
Q 2819 -91 2034 -91 
Q 1250 -91 836 529 
Q 422 1150 422 2328 
Q 422 3509 836 4129 
Q 1250 4750 2034 4750 
z
" transform="scale(0.015625)"/>
       </defs>
       <use xlink:href="#DejaVuSans-30"/>
      </g>
     </g>
    </g>
    <g id="xtick_2">
     <g id="line2d_2">
      <g>
       <use xlink:href="#m0517911461" x="114.618474" y="307.584" style="stroke: #000000; stroke-width: 0.8"/>
      </g>
     </g>
     <g id="text_2">
      <!-- 25 -->
      <g transform="translate(108.255974 322.182437) scale(0.1 -0.1)">
       <defs>
        <path id="DejaVuSans-32" d="M 1228 531 
L 3431 531 
L 3431 0 
L 469 0 
L 469 531 
Q 828 903 1448 1529 
Q 2069 2156 2228 2338 
Q 2531 2678 2651 2914 
Q 2772 3150 2772 3378 
Q 2772 3750 2511 3984 
Q 2250 4219 1831 4219 
Q 1534 4219 1204 4116 
Q 875 4013 500 3803 
L 500 4441 
Q 881 4594 1212 4672 
Q 1544 4750 1819 4750 
Q 2544 4750 2975 4387 
Q 3406 4025 3406 3419 
Q 3406 3131 3298 2873 
Q 3191 2616 2906 2266 
Q 2828 2175 2409 1742 
Q 1991 1309 1228 531 
z
" transform="scale(0.015625)"/>
        <path id="DejaVuSans-35" d="M 691 4666 
L 3169 4666 
L 3169 4134 
L 1269 4134 
L 1269 2991 
Q 1406 3038 1543 3061 
Q 1681 3084 1819 3084 
Q 2600 3084 3056 2656 
Q 3513 2228 3513 1497 
Q 3513 744 3044 326 
Q 2575 -91 1722 -91 
Q 1428 -91 1123 -41 
Q 819 9 494 109 
L 494 744 
Q 775 591 1075 516 
Q 1375 441 1709 441 
Q 2250 441 2565 725 
Q 2881 1009 2881 1497 
Q 2881 1984 2565 2268 
Q 2250 2553 1709 2553 
Q 1456 2553 1204 2497 
Q 953 2441 691 2322 
L 691 4666 
z
" transform="scale(0.015625)"/>
       </defs>
       <use xlink:href="#DejaVuSans-32"/>
       <use xlink:href="#DejaVuSans-35" x="63.623047"/>
      </g>
     </g>
    </g>
    <g id="xtick_3">
     <g id="line2d_3">
      <g>
       <use xlink:href="#m0517911461" x="155.404221" y="307.584" style="stroke: #000000; stroke-width: 0.8"/>
      </g>
     </g>
     <g id="text_3">
      <!-- 50 -->
      <g transform="translate(149.041721 322.182437) scale(0.1 -0.1)">
       <use xlink:href="#DejaVuSans-35"/>
       <use xlink:href="#DejaVuSans-30" x="63.623047"/>
      </g>
     </g>
    </g>
    <g id="xtick_4">
     <g id="line2d_4">
      <g>
       <use xlink:href="#m0517911461" x="196.189968" y="307.584" style="stroke: #000000; stroke-width: 0.8"/>
      </g>
     </g>
     <g id="text_4">
      <!-- 75 -->
      <g transform="translate(189.827468 322.182437) scale(0.1 -0.1)">
       <defs>
        <path id="DejaVuSans-37" d="M 525 4666 
L 3525 4666 
L 3525 4397 
L 1831 0 
L 1172 0 
L 2766 4134 
L 525 4134 
L 525 4666 
z
" transform="scale(0.015625)"/>
       </defs>
       <use xlink:href="#DejaVuSans-37"/>
       <use xlink:href="#DejaVuSans-35" x="63.623047"/>
      </g>
     </g>
    </g>
    <g id="xtick_5">
     <g id="line2d_5">
      <g>
       <use xlink:href="#m0517911461" x="236.975715" y="307.584" style="stroke: #000000; stroke-width: 0.8"/>
      </g>
     </g>
     <g id="text_5">
      <!-- 100 -->
      <g transform="translate(227.431965 322.182437) scale(0.1 -0.1)">
       <defs>
        <path id="DejaVuSans-31" d="M 794 531 
L 1825 531 
L 1825 4091 
L 703 3866 
L 703 4441 
L 1819 4666 
L 2450 4666 
L 2450 531 
L 3481 531 
L 3481 0 
L 794 0 
L 794 531 
z
" transform="scale(0.015625)"/>
       </defs>
       <use xlink:href="#DejaVuSans-31"/>
       <use xlink:href="#DejaVuSans-30" x="63.623047"/>
       <use xlink:href="#DejaVuSans-30" x="127.246094"/>
      </g>
     </g>
    </g>
    <g id="xtick_6">
     <g id="line2d_6">
      <g>
       <use xlink:href="#m0517911461" x="277.761462" y="307.584" style="stroke: #000000; stroke-width: 0.8"/>
      </g>
     </g>
     <g id="text_6">
      <!-- 125 -->
      <g transform="translate(268.217712 322.182437) scale(0.1 -0.1)">
       <use xlink:href="#DejaVuSans-31"/>
       <use xlink:href="#DejaVuSans-32" x="63.623047"/>
       <use xlink:href="#DejaVuSans-35" x="127.246094"/>
      </g>
     </g>
    </g>
    <g id="xtick_7">
     <g id="line2d_7">
      <g>
       <use xlink:href="#m0517911461" x="318.547209" y="307.584" style="stroke: #000000; stroke-width: 0.8"/>
      </g>
     </g>
     <g id="text_7">
      <!-- 150 -->
      <g transform="translate(309.003459 322.182437) scale(0.1 -0.1)">
       <use xlink:href="#DejaVuSans-31"/>
       <use xlink:href="#DejaVuSans-35" x="63.623047"/>
       <use xlink:href="#DejaVuSans-30" x="127.246094"/>
      </g>
     </g>
    </g>
    <g id="xtick_8">
     <g id="line2d_8">
      <g>
       <use xlink:href="#m0517911461" x="359.332956" y="307.584" style="stroke: #000000; stroke-width: 0.8"/>
      </g>
     </g>
     <g id="text_8">
      <!-- 175 -->
      <g transform="translate(349.789206 322.182437) scale(0.1 -0.1)">
       <use xlink:href="#DejaVuSans-31"/>
       <use xlink:href="#DejaVuSans-37" x="63.623047"/>
       <use xlink:href="#DejaVuSans-35" x="127.246094"/>
      </g>
     </g>
    </g>
    <g id="xtick_9">
     <g id="line2d_9">
      <g>
       <use xlink:href="#m0517911461" x="400.118703" y="307.584" style="stroke: #000000; stroke-width: 0.8"/>
      </g>
     </g>
     <g id="text_9">
      <!-- 200 -->
      <g transform="translate(390.574953 322.182437) scale(0.1 -0.1)">
       <use xlink:href="#DejaVuSans-32"/>
       <use xlink:href="#DejaVuSans-30" x="63.623047"/>
       <use xlink:href="#DejaVuSans-30" x="127.246094"/>
      </g>
     </g>
    </g>
    <g id="text_10">
     <!-- epoch -->
     <g transform="translate(220.931875 335.860562) scale(0.1 -0.1)">
      <defs>
       <path id="DejaVuSans-65" d="M 3597 1894 
L 3597 1613 
L 953 1613 
Q 991 1019 1311 708 
Q 1631 397 2203 397 
Q 2534 397 2845 478 
Q 3156 559 3463 722 
L 3463 178 
Q 3153 47 2828 -22 
Q 2503 -91 2169 -91 
Q 1331 -91 842 396 
Q 353 884 353 1716 
Q 353 2575 817 3079 
Q 1281 3584 2069 3584 
Q 2775 3584 3186 3129 
Q 3597 2675 3597 1894 
z
M 3022 2063 
Q 3016 2534 2758 2815 
Q 2500 3097 2075 3097 
Q 1594 3097 1305 2825 
Q 1016 2553 972 2059 
L 3022 2063 
z
" transform="scale(0.015625)"/>
       <path id="DejaVuSans-70" d="M 1159 525 
L 1159 -1331 
L 581 -1331 
L 581 3500 
L 1159 3500 
L 1159 2969 
Q 1341 3281 1617 3432 
Q 1894 3584 2278 3584 
Q 2916 3584 3314 3078 
Q 3713 2572 3713 1747 
Q 3713 922 3314 415 
Q 2916 -91 2278 -91 
Q 1894 -91 1617 61 
Q 1341 213 1159 525 
z
M 3116 1747 
Q 3116 2381 2855 2742 
Q 2594 3103 2138 3103 
Q 1681 3103 1420 2742 
Q 1159 2381 1159 1747 
Q 1159 1113 1420 752 
Q 1681 391 2138 391 
Q 2594 391 2855 752 
Q 3116 1113 3116 1747 
z
" transform="scale(0.015625)"/>
       <path id="DejaVuSans-6f" d="M 1959 3097 
Q 1497 3097 1228 2736 
Q 959 2375 959 1747 
Q 959 1119 1226 758 
Q 1494 397 1959 397 
Q 2419 397 2687 759 
Q 2956 1122 2956 1747 
Q 2956 2369 2687 2733 
Q 2419 3097 1959 3097 
z
M 1959 3584 
Q 2709 3584 3137 3096 
Q 3566 2609 3566 1747 
Q 3566 888 3137 398 
Q 2709 -91 1959 -91 
Q 1206 -91 779 398 
Q 353 888 353 1747 
Q 353 2609 779 3096 
Q 1206 3584 1959 3584 
z
" transform="scale(0.015625)"/>
       <path id="DejaVuSans-63" d="M 3122 3366 
L 3122 2828 
Q 2878 2963 2633 3030 
Q 2388 3097 2138 3097 
Q 1578 3097 1268 2742 
Q 959 2388 959 1747 
Q 959 1106 1268 751 
Q 1578 397 2138 397 
Q 2388 397 2633 464 
Q 2878 531 3122 666 
L 3122 134 
Q 2881 22 2623 -34 
Q 2366 -91 2075 -91 
Q 1284 -91 818 406 
Q 353 903 353 1747 
Q 353 2603 823 3093 
Q 1294 3584 2113 3584 
Q 2378 3584 2631 3529 
Q 2884 3475 3122 3366 
z
" transform="scale(0.015625)"/>
       <path id="DejaVuSans-68" d="M 3513 2113 
L 3513 0 
L 2938 0 
L 2938 2094 
Q 2938 2591 2744 2837 
Q 2550 3084 2163 3084 
Q 1697 3084 1428 2787 
Q 1159 2491 1159 1978 
L 1159 0 
L 581 0 
L 581 4863 
L 1159 4863 
L 1159 2956 
Q 1366 3272 1645 3428 
Q 1925 3584 2291 3584 
Q 2894 3584 3203 3211 
Q 3513 2838 3513 2113 
z
" transform="scale(0.015625)"/>
      </defs>
      <use xlink:href="#DejaVuSans-65"/>
      <use xlink:href="#DejaVuSans-70" x="61.523438"/>
      <use xlink:href="#DejaVuSans-6f" x="125"/>
      <use xlink:href="#DejaVuSans-63" x="186.181641"/>
      <use xlink:href="#DejaVuSans-68" x="241.162109"/>
     </g>
    </g>
   </g>
   <g id="matplotlib.axis_2">
    <g id="ytick_1">
     <g id="line2d_10">
      <defs>
       <path id="m812bef42db" d="M 0 0 
L -3.5 0 
" style="stroke: #000000; stroke-width: 0.8"/>
      </defs>
      <g>
       <use xlink:href="#m812bef42db" x="57.6" y="283.572356" style="stroke: #000000; stroke-width: 0.8"/>
      </g>
     </g>
     <g id="text_11">
      <!-- 65 -->
      <g transform="translate(37.875 287.371575) scale(0.1 -0.1)">
       <defs>
        <path id="DejaVuSans-36" d="M 2113 2584 
Q 1688 2584 1439 2293 
Q 1191 2003 1191 1497 
Q 1191 994 1439 701 
Q 1688 409 2113 409 
Q 2538 409 2786 701 
Q 3034 994 3034 1497 
Q 3034 2003 2786 2293 
Q 2538 2584 2113 2584 
z
M 3366 4563 
L 3366 3988 
Q 3128 4100 2886 4159 
Q 2644 4219 2406 4219 
Q 1781 4219 1451 3797 
Q 1122 3375 1075 2522 
Q 1259 2794 1537 2939 
Q 1816 3084 2150 3084 
Q 2853 3084 3261 2657 
Q 3669 2231 3669 1497 
Q 3669 778 3244 343 
Q 2819 -91 2113 -91 
Q 1303 -91 875 529 
Q 447 1150 447 2328 
Q 447 3434 972 4092 
Q 1497 4750 2381 4750 
Q 2619 4750 2861 4703 
Q 3103 4656 3366 4563 
z
" transform="scale(0.015625)"/>
       </defs>
       <use xlink:href="#DejaVuSans-36"/>
       <use xlink:href="#DejaVuSans-35" x="63.623047"/>
      </g>
     </g>
    </g>
    <g id="ytick_2">
     <g id="line2d_11">
      <g>
       <use xlink:href="#m812bef42db" x="57.6" y="247.664696" style="stroke: #000000; stroke-width: 0.8"/>
      </g>
     </g>
     <g id="text_12">
      <!-- 70 -->
      <g transform="translate(37.875 251.463914) scale(0.1 -0.1)">
       <use xlink:href="#DejaVuSans-37"/>
       <use xlink:href="#DejaVuSans-30" x="63.623047"/>
      </g>
     </g>
    </g>
    <g id="ytick_3">
     <g id="line2d_12">
      <g>
       <use xlink:href="#m812bef42db" x="57.6" y="211.757035" style="stroke: #000000; stroke-width: 0.8"/>
      </g>
     </g>
     <g id="text_13">
      <!-- 75 -->
      <g transform="translate(37.875 215.556254) scale(0.1 -0.1)">
       <use xlink:href="#DejaVuSans-37"/>
       <use xlink:href="#DejaVuSans-35" x="63.623047"/>
      </g>
     </g>
    </g>
    <g id="ytick_4">
     <g id="line2d_13">
      <g>
       <use xlink:href="#m812bef42db" x="57.6" y="175.849375" style="stroke: #000000; stroke-width: 0.8"/>
      </g>
     </g>
     <g id="text_14">
      <!-- 80 -->
      <g transform="translate(37.875 179.648593) scale(0.1 -0.1)">
       <defs>
        <path id="DejaVuSans-38" d="M 2034 2216 
Q 1584 2216 1326 1975 
Q 1069 1734 1069 1313 
Q 1069 891 1326 650 
Q 1584 409 2034 409 
Q 2484 409 2743 651 
Q 3003 894 3003 1313 
Q 3003 1734 2745 1975 
Q 2488 2216 2034 2216 
z
M 1403 2484 
Q 997 2584 770 2862 
Q 544 3141 544 3541 
Q 544 4100 942 4425 
Q 1341 4750 2034 4750 
Q 2731 4750 3128 4425 
Q 3525 4100 3525 3541 
Q 3525 3141 3298 2862 
Q 3072 2584 2669 2484 
Q 3125 2378 3379 2068 
Q 3634 1759 3634 1313 
Q 3634 634 3220 271 
Q 2806 -91 2034 -91 
Q 1263 -91 848 271 
Q 434 634 434 1313 
Q 434 1759 690 2068 
Q 947 2378 1403 2484 
z
M 1172 3481 
Q 1172 3119 1398 2916 
Q 1625 2713 2034 2713 
Q 2441 2713 2670 2916 
Q 2900 3119 2900 3481 
Q 2900 3844 2670 4047 
Q 2441 4250 2034 4250 
Q 1625 4250 1398 4047 
Q 1172 3844 1172 3481 
z
" transform="scale(0.015625)"/>
       </defs>
       <use xlink:href="#DejaVuSans-38"/>
       <use xlink:href="#DejaVuSans-30" x="63.623047"/>
      </g>
     </g>
    </g>
    <g id="ytick_5">
     <g id="line2d_14">
      <g>
       <use xlink:href="#m812bef42db" x="57.6" y="139.941714" style="stroke: #000000; stroke-width: 0.8"/>
      </g>
     </g>
     <g id="text_15">
      <!-- 85 -->
      <g transform="translate(37.875 143.740933) scale(0.1 -0.1)">
       <use xlink:href="#DejaVuSans-38"/>
       <use xlink:href="#DejaVuSans-35" x="63.623047"/>
      </g>
     </g>
    </g>
    <g id="ytick_6">
     <g id="line2d_15">
      <g>
       <use xlink:href="#m812bef42db" x="57.6" y="104.034054" style="stroke: #000000; stroke-width: 0.8"/>
      </g>
     </g>
     <g id="text_16">
      <!-- 90 -->
      <g transform="translate(37.875 107.833272) scale(0.1 -0.1)">
       <defs>
        <path id="DejaVuSans-39" d="M 703 97 
L 703 672 
Q 941 559 1184 500 
Q 1428 441 1663 441 
Q 2288 441 2617 861 
Q 2947 1281 2994 2138 
Q 2813 1869 2534 1725 
Q 2256 1581 1919 1581 
Q 1219 1581 811 2004 
Q 403 2428 403 3163 
Q 403 3881 828 4315 
Q 1253 4750 1959 4750 
Q 2769 4750 3195 4129 
Q 3622 3509 3622 2328 
Q 3622 1225 3098 567 
Q 2575 -91 1691 -91 
Q 1453 -91 1209 -44 
Q 966 3 703 97 
z
M 1959 2075 
Q 2384 2075 2632 2365 
Q 2881 2656 2881 3163 
Q 2881 3666 2632 3958 
Q 2384 4250 1959 4250 
Q 1534 4250 1286 3958 
Q 1038 3666 1038 3163 
Q 1038 2656 1286 2365 
Q 1534 2075 1959 2075 
z
" transform="scale(0.015625)"/>
       </defs>
       <use xlink:href="#DejaVuSans-39"/>
       <use xlink:href="#DejaVuSans-30" x="63.623047"/>
      </g>
     </g>
    </g>
    <g id="ytick_7">
     <g id="line2d_16">
      <g>
       <use xlink:href="#m812bef42db" x="57.6" y="68.126393" style="stroke: #000000; stroke-width: 0.8"/>
      </g>
     </g>
     <g id="text_17">
      <!-- 95 -->
      <g transform="translate(37.875 71.925612) scale(0.1 -0.1)">
       <use xlink:href="#DejaVuSans-39"/>
       <use xlink:href="#DejaVuSans-35" x="63.623047"/>
      </g>
     </g>
    </g>
    <g id="text_18">
     <!-- valid mAP -->
     <g transform="translate(31.795312 199.398313) rotate(-90) scale(0.1 -0.1)">
      <defs>
       <path id="DejaVuSans-76" d="M 191 3500 
L 800 3500 
L 1894 563 
L 2988 3500 
L 3597 3500 
L 2284 0 
L 1503 0 
L 191 3500 
z
" transform="scale(0.015625)"/>
       <path id="DejaVuSans-61" d="M 2194 1759 
Q 1497 1759 1228 1600 
Q 959 1441 959 1056 
Q 959 750 1161 570 
Q 1363 391 1709 391 
Q 2188 391 2477 730 
Q 2766 1069 2766 1631 
L 2766 1759 
L 2194 1759 
z
M 3341 1997 
L 3341 0 
L 2766 0 
L 2766 531 
Q 2569 213 2275 61 
Q 1981 -91 1556 -91 
Q 1019 -91 701 211 
Q 384 513 384 1019 
Q 384 1609 779 1909 
Q 1175 2209 1959 2209 
L 2766 2209 
L 2766 2266 
Q 2766 2663 2505 2880 
Q 2244 3097 1772 3097 
Q 1472 3097 1187 3025 
Q 903 2953 641 2809 
L 641 3341 
Q 956 3463 1253 3523 
Q 1550 3584 1831 3584 
Q 2591 3584 2966 3190 
Q 3341 2797 3341 1997 
z
" transform="scale(0.015625)"/>
       <path id="DejaVuSans-6c" d="M 603 4863 
L 1178 4863 
L 1178 0 
L 603 0 
L 603 4863 
z
" transform="scale(0.015625)"/>
       <path id="DejaVuSans-69" d="M 603 3500 
L 1178 3500 
L 1178 0 
L 603 0 
L 603 3500 
z
M 603 4863 
L 1178 4863 
L 1178 4134 
L 603 4134 
L 603 4863 
z
" transform="scale(0.015625)"/>
       <path id="DejaVuSans-64" d="M 2906 2969 
L 2906 4863 
L 3481 4863 
L 3481 0 
L 2906 0 
L 2906 525 
Q 2725 213 2448 61 
Q 2172 -91 1784 -91 
Q 1150 -91 751 415 
Q 353 922 353 1747 
Q 353 2572 751 3078 
Q 1150 3584 1784 3584 
Q 2172 3584 2448 3432 
Q 2725 3281 2906 2969 
z
M 947 1747 
Q 947 1113 1208 752 
Q 1469 391 1925 391 
Q 2381 391 2643 752 
Q 2906 1113 2906 1747 
Q 2906 2381 2643 2742 
Q 2381 3103 1925 3103 
Q 1469 3103 1208 2742 
Q 947 2381 947 1747 
z
" transform="scale(0.015625)"/>
       <path id="DejaVuSans-20" transform="scale(0.015625)"/>
       <path id="DejaVuSans-6d" d="M 3328 2828 
Q 3544 3216 3844 3400 
Q 4144 3584 4550 3584 
Q 5097 3584 5394 3201 
Q 5691 2819 5691 2113 
L 5691 0 
L 5113 0 
L 5113 2094 
Q 5113 2597 4934 2840 
Q 4756 3084 4391 3084 
Q 3944 3084 3684 2787 
Q 3425 2491 3425 1978 
L 3425 0 
L 2847 0 
L 2847 2094 
Q 2847 2600 2669 2842 
Q 2491 3084 2119 3084 
Q 1678 3084 1418 2786 
Q 1159 2488 1159 1978 
L 1159 0 
L 581 0 
L 581 3500 
L 1159 3500 
L 1159 2956 
Q 1356 3278 1631 3431 
Q 1906 3584 2284 3584 
Q 2666 3584 2933 3390 
Q 3200 3197 3328 2828 
z
" transform="scale(0.015625)"/>
       <path id="DejaVuSans-41" d="M 2188 4044 
L 1331 1722 
L 3047 1722 
L 2188 4044 
z
M 1831 4666 
L 2547 4666 
L 4325 0 
L 3669 0 
L 3244 1197 
L 1141 1197 
L 716 0 
L 50 0 
L 1831 4666 
z
" transform="scale(0.015625)"/>
       <path id="DejaVuSans-50" d="M 1259 4147 
L 1259 2394 
L 2053 2394 
Q 2494 2394 2734 2622 
Q 2975 2850 2975 3272 
Q 2975 3691 2734 3919 
Q 2494 4147 2053 4147 
L 1259 4147 
z
M 628 4666 
L 2053 4666 
Q 2838 4666 3239 4311 
Q 3641 3956 3641 3272 
Q 3641 2581 3239 2228 
Q 2838 1875 2053 1875 
L 1259 1875 
L 1259 0 
L 628 0 
L 628 4666 
z
" transform="scale(0.015625)"/>
      </defs>
      <use xlink:href="#DejaVuSans-76"/>
      <use xlink:href="#DejaVuSans-61" x="59.179688"/>
      <use xlink:href="#DejaVuSans-6c" x="120.458984"/>
      <use xlink:href="#DejaVuSans-69" x="148.242188"/>
      <use xlink:href="#DejaVuSans-64" x="176.025391"/>
      <use xlink:href="#DejaVuSans-20" x="239.501953"/>
      <use xlink:href="#DejaVuSans-6d" x="271.289062"/>
      <use xlink:href="#DejaVuSans-41" x="368.701172"/>
      <use xlink:href="#DejaVuSans-50" x="437.109375"/>
     </g>
    </g>
   </g>
   <g id="line2d_17">
    <path d="M 73.832727 206.557942 
L 75.464157 227.416229 
L 77.095587 277.672763 
L 78.727017 242.34835 
L 80.358447 94.440852 
L 81.989877 89.441088 
L 83.621307 131.882599 
L 85.252736 132.609836 
L 88.515596 70.191949 
L 90.147026 169.719989 
L 91.778456 175.151669 
L 93.409886 108.43501 
L 95.041316 82.539317 
L 96.672746 134.13395 
L 98.304175 63.588076 
L 99.935605 92.365379 
L 101.567035 112.941823 
L 103.198465 122.102944 
L 104.829895 130.492886 
L 106.461325 90.629499 
L 108.092755 176.121411 
L 109.724185 185.605469 
L 111.355614 82.023846 
L 112.987044 79.323922 
L 114.618474 54.673348 
L 116.249904 224.171905 
L 117.881334 167.688513 
L 119.512764 179.681056 
L 121.144194 71.784497 
L 122.775624 209.400321 
L 124.407053 226.325839 
L 126.038483 117.078414 
L 127.669913 112.657897 
L 129.301343 146.382311 
L 130.932773 141.875499 
L 132.564203 94.047564 
L 134.195633 193.535333 
L 135.827063 196.367959 
L 137.458492 154.547173 
L 139.089922 147.615158 
L 140.721352 264.744668 
L 142.352782 201.748958 
L 143.984212 205.243676 
L 145.615642 117.888221 
L 147.247072 214.220153 
L 148.878502 247.123089 
L 150.509931 226.817092 
L 152.141361 196.492006 
L 153.772791 130.770566 
L 155.404221 177.942819 
L 157.035651 215.214879 
L 158.667081 218.653546 
L 160.298511 135.729895 
L 161.929941 170.467664 
L 163.56137 168.492786 
L 165.1928 105.589672 
L 166.82423 207.568557 
L 168.45566 103.287146 
L 170.08709 203.634691 
L 171.71852 146.074661 
L 173.34995 167.121483 
L 174.98138 140.250898 
L 176.61281 88.619281 
L 178.244239 201.839637 
L 179.875669 105.93973 
L 181.507099 136.554605 
L 183.138529 159.85004 
L 184.769959 124.634825 
L 186.401389 211.832098 
L 188.032819 207.304301 
L 189.664249 149.22343 
L 191.295678 210.323435 
L 192.927108 175.352039 
L 194.558538 210.706642 
L 196.189968 232.647101 
L 197.821398 204.987036 
L 199.452828 166.092568 
L 201.084258 114.489168 
L 202.715688 179.132162 
L 204.347117 162.167579 
L 205.978547 96.074986 
L 207.609977 213.520311 
L 209.241407 150.639333 
L 210.872837 144.821268 
L 212.504267 157.530967 
L 214.135697 186.220769 
L 215.767127 226.902456 
L 217.398556 213.504641 
L 219.029986 239.860302 
L 220.661416 146.907097 
L 222.292846 210.618538 
L 223.924276 194.02823 
L 225.555706 158.510351 
L 227.187136 109.218408 
L 228.818566 97.460918 
L 230.449995 177.929341 
L 232.081425 185.963636 
L 233.712855 86.339438 
L 235.344285 147.656689 
L 236.975715 200.625036 
L 238.607145 186.045767 
L 240.238575 142.121564 
L 241.870005 135.60152 
L 243.501434 193.549798 
L 245.132864 187.782634 
L 246.764294 241.121366 
L 248.395724 218.363374 
L 250.027154 121.55942 
L 251.658584 217.871353 
L 253.290014 157.926227 
L 254.921444 117.364422 
L 256.552873 190.967346 
L 258.184303 222.313567 
L 259.815733 225.697827 
L 261.447163 102.240753 
L 263.078593 187.145691 
L 264.710023 105.811246 
L 266.341453 92.48422 
L 267.972883 154.028359 
L 269.604312 156.47367 
L 271.235742 116.131192 
L 272.867172 253.376521 
L 274.498602 226.546919 
L 276.130032 142.373546 
L 277.761462 97.276657 
L 279.392892 218.36047 
L 281.024322 127.887751 
L 282.655751 173.740205 
L 284.287181 120.67318 
L 285.918611 148.39598 
L 287.550041 101.741993 
L 289.181471 209.876562 
L 290.812901 174.935575 
L 292.444331 226.381013 
L 294.075761 179.619745 
L 295.70719 175.57564 
L 297.33862 115.176299 
L 298.97005 164.731785 
L 300.60148 114.663129 
L 302.23291 189.489365 
L 303.86434 218.351375 
L 305.49577 141.142672 
L 307.1272 233.7576 
L 308.75863 123.596102 
L 310.390059 220.892734 
L 312.021489 168.500621 
L 313.652919 166.903088 
L 315.284349 147.448046 
L 316.915779 171.98471 
L 318.547209 104.06249 
L 320.178639 265.97083 
L 321.810069 217.884832 
L 323.441498 193.913773 
L 325.072928 247.55484 
L 326.704358 133.702199 
L 328.335788 106.180755 
L 329.967218 249.096432 
L 331.598648 116.623158 
L 333.230078 144.656677 
L 334.861508 158.161499 
L 336.492937 102.497338 
L 338.124367 109.885705 
L 339.755797 154.996237 
L 341.387227 113.993257 
L 343.018657 220.498405 
L 344.650087 132.474503 
L 346.281517 212.226756 
L 347.912947 198.95074 
L 349.544376 179.013759 
L 351.175806 114.00438 
L 352.807236 108.573467 
L 354.438666 195.470213 
L 356.070096 112.812681 
L 357.701526 165.540771 
L 359.332956 191.908979 
L 360.964386 195.382932 
L 362.595815 127.259411 
L 364.227245 195.547742 
L 365.858675 114.79512 
L 367.490105 158.642397 
L 369.121535 231.066607 
L 370.752965 163.009603 
L 372.384395 179.278344 
L 374.015825 179.300369 
L 375.647254 158.79351 
L 377.278684 220.747319 
L 378.910114 114.177464 
L 380.541544 170.964451 
L 382.172974 115.362533 
L 383.804404 165.342538 
L 385.435834 208.114327 
L 387.067264 90.495097 
L 388.698693 131.644423 
L 390.330123 110.171822 
L 391.961553 190.205316 
L 393.592983 169.940467 
L 395.224413 229.188819 
L 396.855843 187.04652 
L 398.487273 128.845164 
L 398.487273 128.845164 
" clip-path="url(#pf57cfc3eb7)" style="fill: none; stroke: #008000; stroke-width: 1.5; stroke-linecap: square"/>
   </g>
   <g id="line2d_18">
    <path d="M 73.832727 269.046673 
L 75.464157 260.713933 
L 77.095587 236.994911 
L 78.727017 285.725358 
L 80.358447 125.108545 
L 81.989877 111.395354 
L 83.621307 138.325552 
L 85.252736 240.046591 
L 86.884166 104.152456 
L 88.515596 154.376171 
L 90.147026 76.15247 
L 91.778456 165.334319 
L 93.409886 151.555982 
L 95.041316 78.670707 
L 96.672746 98.661876 
L 98.304175 199.227817 
L 99.935605 75.662805 
L 101.567035 109.9943 
L 103.198465 118.473113 
L 104.829895 79.543359 
L 106.461325 89.415226 
L 108.092755 100.969881 
L 109.724185 207.40402 
L 111.355614 182.432537 
L 112.987044 187.353348 
L 114.618474 85.113112 
L 116.249904 166.522675 
L 117.881334 201.146534 
L 119.512764 125.728831 
L 121.144194 88.655005 
L 122.775624 118.818239 
L 124.407053 181.669247 
L 126.038483 125.686369 
L 129.301343 163.888117 
L 130.932773 230.518864 
L 132.564203 114.800434 
L 134.195633 111.521263 
L 135.827063 190.959237 
L 137.458492 72.649533 
L 139.089922 75.723568 
L 140.721352 160.177579 
L 142.352782 197.095307 
L 143.984212 169.540878 
L 145.615642 144.441787 
L 147.247072 89.608966 
L 148.878502 117.682701 
L 150.509931 142.080909 
L 152.141361 237.589171 
L 153.772791 136.882418 
L 155.404221 152.635578 
L 157.035651 122.403526 
L 158.667081 140.81475 
L 160.298511 187.941417 
L 161.929941 104.652477 
L 163.56137 181.098218 
L 165.1928 149.105247 
L 166.82423 197.724907 
L 168.45566 142.282375 
L 170.08709 154.436112 
L 171.71852 116.743807 
L 173.34995 195.570809 
L 174.98138 140.896826 
L 178.244239 115.169834 
L 179.875669 187.635466 
L 181.507099 129.975826 
L 183.138529 110.292197 
L 184.769959 118.531958 
L 186.401389 169.014394 
L 188.032819 133.187659 
L 189.664249 82.849213 
L 191.295678 170.896566 
L 192.927108 110.625654 
L 194.558538 111.460226 
L 196.189968 112.038707 
L 197.821398 200.939535 
L 199.452828 170.984724 
L 201.084258 171.272814 
L 202.715688 101.589181 
L 204.347117 170.524262 
L 205.978547 249.226999 
L 207.609977 143.740137 
L 209.241407 223.721032 
L 210.872837 150.739983 
L 212.504267 220.057778 
L 214.135697 211.031441 
L 215.767127 184.813469 
L 217.398556 68.375143 
L 219.029986 177.20687 
L 220.661416 122.908368 
L 222.292846 119.942765 
L 223.924276 121.80817 
L 225.555706 185.49123 
L 227.187136 98.680834 
L 228.818566 89.06988 
L 230.449995 96.307737 
L 232.081425 148.190625 
L 233.712855 186.853054 
L 235.344285 184.104203 
L 236.975715 228.315181 
L 238.607145 107.213615 
L 240.238575 124.819689 
L 241.870005 119.212459 
L 243.501434 168.160042 
L 245.132864 110.756275 
L 246.764294 145.520234 
L 248.395724 123.686287 
L 250.027154 124.424593 
L 251.658584 198.04872 
L 253.290014 226.818079 
L 254.921444 206.309794 
L 256.552873 163.571208 
L 258.184303 148.271715 
L 259.815733 180.910834 
L 261.447163 100.773785 
L 263.078593 164.468516 
L 264.710023 236.05777 
L 266.341453 187.143281 
L 267.972883 188.971429 
L 269.604312 133.983002 
L 271.235742 201.064677 
L 272.867172 183.123284 
L 274.498602 96.683273 
L 276.130032 141.97319 
L 277.761462 156.59136 
L 279.392892 162.674722 
L 281.024322 96.855973 
L 282.655751 121.26766 
L 284.287181 150.128518 
L 285.918611 153.117189 
L 287.550041 118.735067 
L 289.181471 125.117586 
L 290.812901 196.399464 
L 292.444331 124.454399 
L 294.075761 96.490574 
L 295.70719 169.750782 
L 297.33862 202.212762 
L 298.97005 136.082912 
L 300.60148 130.615508 
L 302.23291 186.783031 
L 303.86434 194.100719 
L 305.49577 180.189678 
L 307.1272 189.781236 
L 308.75863 101.80407 
L 310.390059 234.663565 
L 312.021489 125.824715 
L 313.652919 126.186992 
L 315.284349 156.856438 
L 316.915779 134.0556 
L 318.547209 172.037966 
L 320.178639 214.235768 
L 321.810069 169.320674 
L 323.441498 91.711068 
L 325.072928 100.900681 
L 326.704358 92.786829 
L 328.335788 111.779273 
L 329.967218 192.034998 
L 331.598648 170.975026 
L 333.230078 120.917163 
L 334.861508 157.237453 
L 336.492937 206.594158 
L 338.124367 194.565508 
L 339.755797 206.331272 
L 341.387227 102.702365 
L 343.018657 125.067124 
L 344.650087 121.659907 
L 346.281517 156.13446 
L 347.912947 125.909641 
L 349.544376 201.385805 
L 351.175806 187.988209 
L 352.807236 160.016658 
L 354.438666 139.41923 
L 356.070096 115.87373 
L 357.701526 124.459823 
L 359.332956 109.727634 
L 362.595815 215.332953 
L 364.227245 171.787079 
L 365.858675 167.782479 
L 367.490105 186.257698 
L 369.121535 93.809115 
L 370.752965 94.094027 
L 372.384395 128.819413 
L 374.015825 182.908449 
L 375.647254 158.471012 
L 377.278684 141.11462 
L 378.910114 113.448637 
L 380.541544 138.991588 
L 382.172974 146.103207 
L 383.804404 121.861317 
L 385.435834 113.417735 
L 387.067264 111.258761 
L 388.698693 126.255535 
L 390.330123 170.781889 
L 391.961553 164.730251 
L 393.592983 137.673651 
L 395.224413 214.311051 
L 396.855843 158.440055 
L 398.487273 136.03486 
L 398.487273 136.03486 
" clip-path="url(#pf57cfc3eb7)" style="fill: none; stroke: #0000ff; stroke-width: 1.5; stroke-linecap: square"/>
   </g>
   <g id="line2d_19">
    <path d="M 73.832727 263.706603 
L 75.464157 295.488 
L 77.095587 247.043643 
L 78.727017 245.237192 
L 80.358447 128.385087 
L 81.989877 147.455114 
L 83.621307 171.698592 
L 85.252736 134.514143 
L 86.884166 159.602824 
L 88.515596 164.087391 
L 90.147026 122.937243 
L 91.778456 120.038155 
L 93.409886 86.532466 
L 95.041316 175.532849 
L 96.672746 205.868291 
L 98.304175 130.984633 
L 99.935605 103.595783 
L 101.567035 101.929267 
L 103.198465 151.054263 
L 104.829895 149.175817 
L 106.461325 126.374705 
L 108.092755 184.482423 
L 109.724185 86.341575 
L 111.355614 163.680625 
L 112.987044 150.336504 
L 114.618474 165.004479 
L 116.249904 233.499262 
L 117.881334 114.505112 
L 119.512764 107.874227 
L 121.144194 202.118303 
L 122.775624 131.01833 
L 124.407053 165.883487 
L 126.038483 174.0255 
L 127.669913 156.517283 
L 129.301343 221.190302 
L 130.932773 142.966985 
L 132.564203 77.779481 
L 134.195633 192.290159 
L 135.827063 130.850834 
L 137.458492 126.915051 
L 139.089922 92.610458 
L 140.721352 123.002663 
L 142.352782 132.18718 
L 143.984212 106.127717 
L 145.615642 131.578401 
L 147.247072 93.135518 
L 148.878502 205.807528 
L 150.509931 154.973171 
L 153.772791 201.19201 
L 155.404221 124.147735 
L 157.035651 214.852602 
L 158.667081 67.007183 
L 160.298511 207.904588 
L 161.929941 166.226586 
L 163.56137 115.182655 
L 165.1928 76.700651 
L 166.82423 220.36866 
L 168.45566 193.357592 
L 171.71852 161.889735 
L 173.34995 219.917459 
L 174.98138 205.936779 
L 176.61281 104.969277 
L 178.244239 82.529729 
L 179.875669 107.093678 
L 181.507099 180.796212 
L 183.138529 86.46743 
L 184.769959 145.630582 
L 186.401389 119.662948 
L 189.664249 227.48921 
L 191.295678 171.652459 
L 192.927108 163.57592 
L 194.558538 105.421684 
L 196.189968 97.388813 
L 197.821398 143.745561 
L 199.452828 197.356384 
L 201.084258 164.646257 
L 202.715688 160.51624 
L 204.347117 78.848284 
L 205.978547 136.670323 
L 207.609977 150.292069 
L 209.241407 168.147824 
L 210.872837 154.77028 
L 212.504267 144.535753 
L 214.135697 104.959634 
L 215.767127 187.86745 
L 217.398556 91.601048 
L 219.029986 137.759125 
L 220.661416 87.531027 
L 222.292846 56.168259 
L 223.924276 144.758587 
L 225.555706 99.776375 
L 227.187136 175.851238 
L 228.818566 182.644194 
L 230.449995 183.361131 
L 232.081425 87.53952 
L 233.712855 132.674708 
L 235.344285 142.152795 
L 236.975715 179.302835 
L 238.607145 59.398228 
L 240.238575 212.002443 
L 241.870005 151.153324 
L 243.501434 53.568 
L 245.132864 141.478868 
L 246.764294 158.112297 
L 248.395724 120.891138 
L 250.027154 123.026442 
L 251.658584 149.894178 
L 253.290014 112.135961 
L 254.921444 121.374556 
L 256.552873 111.08754 
L 258.184303 178.977816 
L 259.815733 230.8315 
L 261.447163 161.978989 
L 263.078593 130.354868 
L 264.710023 170.326632 
L 266.341453 100.975251 
L 267.972883 136.228436 
L 269.604312 123.276124 
L 271.235742 54.801175 
L 272.867172 134.869078 
L 274.498602 125.338557 
L 276.130032 180.683617 
L 277.761462 93.411992 
L 279.392892 76.539238 
L 281.024322 143.30592 
L 282.655751 84.300456 
L 284.287181 114.831227 
L 285.918611 129.997304 
L 287.550041 175.488852 
L 289.181471 108.505964 
L 290.812901 205.194364 
L 292.444331 168.271377 
L 294.075761 60.218281 
L 295.70719 133.021808 
L 297.33862 149.036813 
L 298.97005 106.148812 
L 300.60148 125.299546 
L 302.23291 119.276071 
L 303.86434 65.050003 
L 305.49577 138.499457 
L 307.1272 196.806231 
L 308.75863 147.894536 
L 310.390059 128.365143 
L 312.021489 124.337366 
L 313.652919 105.455654 
L 315.284349 68.398429 
L 316.915779 174.539876 
L 318.547209 66.320216 
L 320.178639 207.716218 
L 321.810069 85.072019 
L 323.441498 115.224186 
L 325.072928 158.067916 
L 326.704358 134.993179 
L 328.335788 121.410828 
L 329.967218 83.455692 
L 331.598648 184.754514 
L 333.230078 89.093933 
L 333.230078 89.093933 
" clip-path="url(#pf57cfc3eb7)" style="fill: none; stroke: #ff0000; stroke-width: 1.5; stroke-linecap: square"/>
   </g>
   <g id="patch_3">
    <path d="M 57.6 307.584 
L 57.6 41.472 
" style="fill: none; stroke: #000000; stroke-width: 0.8; stroke-linejoin: miter; stroke-linecap: square"/>
   </g>
   <g id="patch_4">
    <path d="M 414.72 307.584 
L 414.72 41.472 
" style="fill: none; stroke: #000000; stroke-width: 0.8; stroke-linejoin: miter; stroke-linecap: square"/>
   </g>
   <g id="patch_5">
    <path d="M 57.6 307.584 
L 414.72 307.584 
" style="fill: none; stroke: #000000; stroke-width: 0.8; stroke-linejoin: miter; stroke-linecap: square"/>
   </g>
   <g id="patch_6">
    <path d="M 57.6 41.472 
L 414.72 41.472 
" style="fill: none; stroke: #000000; stroke-width: 0.8; stroke-linejoin: miter; stroke-linecap: square"/>
   </g>
   <g id="text_19">
    <!-- The relation between mAP and total epochs of host/2 -->
    <g transform="translate(76.392188 35.472) scale(0.12 -0.12)">
     <defs>
      <path id="DejaVuSans-54" d="M -19 4666 
L 3928 4666 
L 3928 4134 
L 2272 4134 
L 2272 0 
L 1638 0 
L 1638 4134 
L -19 4134 
L -19 4666 
z
" transform="scale(0.015625)"/>
      <path id="DejaVuSans-72" d="M 2631 2963 
Q 2534 3019 2420 3045 
Q 2306 3072 2169 3072 
Q 1681 3072 1420 2755 
Q 1159 2438 1159 1844 
L 1159 0 
L 581 0 
L 581 3500 
L 1159 3500 
L 1159 2956 
Q 1341 3275 1631 3429 
Q 1922 3584 2338 3584 
Q 2397 3584 2469 3576 
Q 2541 3569 2628 3553 
L 2631 2963 
z
" transform="scale(0.015625)"/>
      <path id="DejaVuSans-74" d="M 1172 4494 
L 1172 3500 
L 2356 3500 
L 2356 3053 
L 1172 3053 
L 1172 1153 
Q 1172 725 1289 603 
Q 1406 481 1766 481 
L 2356 481 
L 2356 0 
L 1766 0 
Q 1100 0 847 248 
Q 594 497 594 1153 
L 594 3053 
L 172 3053 
L 172 3500 
L 594 3500 
L 594 4494 
L 1172 4494 
z
" transform="scale(0.015625)"/>
      <path id="DejaVuSans-6e" d="M 3513 2113 
L 3513 0 
L 2938 0 
L 2938 2094 
Q 2938 2591 2744 2837 
Q 2550 3084 2163 3084 
Q 1697 3084 1428 2787 
Q 1159 2491 1159 1978 
L 1159 0 
L 581 0 
L 581 3500 
L 1159 3500 
L 1159 2956 
Q 1366 3272 1645 3428 
Q 1925 3584 2291 3584 
Q 2894 3584 3203 3211 
Q 3513 2838 3513 2113 
z
" transform="scale(0.015625)"/>
      <path id="DejaVuSans-62" d="M 3116 1747 
Q 3116 2381 2855 2742 
Q 2594 3103 2138 3103 
Q 1681 3103 1420 2742 
Q 1159 2381 1159 1747 
Q 1159 1113 1420 752 
Q 1681 391 2138 391 
Q 2594 391 2855 752 
Q 3116 1113 3116 1747 
z
M 1159 2969 
Q 1341 3281 1617 3432 
Q 1894 3584 2278 3584 
Q 2916 3584 3314 3078 
Q 3713 2572 3713 1747 
Q 3713 922 3314 415 
Q 2916 -91 2278 -91 
Q 1894 -91 1617 61 
Q 1341 213 1159 525 
L 1159 0 
L 581 0 
L 581 4863 
L 1159 4863 
L 1159 2969 
z
" transform="scale(0.015625)"/>
      <path id="DejaVuSans-77" d="M 269 3500 
L 844 3500 
L 1563 769 
L 2278 3500 
L 2956 3500 
L 3675 769 
L 4391 3500 
L 4966 3500 
L 4050 0 
L 3372 0 
L 2619 2869 
L 1863 0 
L 1184 0 
L 269 3500 
z
" transform="scale(0.015625)"/>
      <path id="DejaVuSans-73" d="M 2834 3397 
L 2834 2853 
Q 2591 2978 2328 3040 
Q 2066 3103 1784 3103 
Q 1356 3103 1142 2972 
Q 928 2841 928 2578 
Q 928 2378 1081 2264 
Q 1234 2150 1697 2047 
L 1894 2003 
Q 2506 1872 2764 1633 
Q 3022 1394 3022 966 
Q 3022 478 2636 193 
Q 2250 -91 1575 -91 
Q 1294 -91 989 -36 
Q 684 19 347 128 
L 347 722 
Q 666 556 975 473 
Q 1284 391 1588 391 
Q 1994 391 2212 530 
Q 2431 669 2431 922 
Q 2431 1156 2273 1281 
Q 2116 1406 1581 1522 
L 1381 1569 
Q 847 1681 609 1914 
Q 372 2147 372 2553 
Q 372 3047 722 3315 
Q 1072 3584 1716 3584 
Q 2034 3584 2315 3537 
Q 2597 3491 2834 3397 
z
" transform="scale(0.015625)"/>
      <path id="DejaVuSans-66" d="M 2375 4863 
L 2375 4384 
L 1825 4384 
Q 1516 4384 1395 4259 
Q 1275 4134 1275 3809 
L 1275 3500 
L 2222 3500 
L 2222 3053 
L 1275 3053 
L 1275 0 
L 697 0 
L 697 3053 
L 147 3053 
L 147 3500 
L 697 3500 
L 697 3744 
Q 697 4328 969 4595 
Q 1241 4863 1831 4863 
L 2375 4863 
z
" transform="scale(0.015625)"/>
      <path id="DejaVuSans-2f" d="M 1625 4666 
L 2156 4666 
L 531 -594 
L 0 -594 
L 1625 4666 
z
" transform="scale(0.015625)"/>
     </defs>
     <use xlink:href="#DejaVuSans-54"/>
     <use xlink:href="#DejaVuSans-68" x="61.083984"/>
     <use xlink:href="#DejaVuSans-65" x="124.462891"/>
     <use xlink:href="#DejaVuSans-20" x="185.986328"/>
     <use xlink:href="#DejaVuSans-72" x="217.773438"/>
     <use xlink:href="#DejaVuSans-65" x="256.636719"/>
     <use xlink:href="#DejaVuSans-6c" x="318.160156"/>
     <use xlink:href="#DejaVuSans-61" x="345.943359"/>
     <use xlink:href="#DejaVuSans-74" x="407.222656"/>
     <use xlink:href="#DejaVuSans-69" x="446.431641"/>
     <use xlink:href="#DejaVuSans-6f" x="474.214844"/>
     <use xlink:href="#DejaVuSans-6e" x="535.396484"/>
     <use xlink:href="#DejaVuSans-20" x="598.775391"/>
     <use xlink:href="#DejaVuSans-62" x="630.5625"/>
     <use xlink:href="#DejaVuSans-65" x="694.039062"/>
     <use xlink:href="#DejaVuSans-74" x="755.5625"/>
     <use xlink:href="#DejaVuSans-77" x="794.771484"/>
     <use xlink:href="#DejaVuSans-65" x="876.558594"/>
     <use xlink:href="#DejaVuSans-65" x="938.082031"/>
     <use xlink:href="#DejaVuSans-6e" x="999.605469"/>
     <use xlink:href="#DejaVuSans-20" x="1062.984375"/>
     <use xlink:href="#DejaVuSans-6d" x="1094.771484"/>
     <use xlink:href="#DejaVuSans-41" x="1192.183594"/>
     <use xlink:href="#DejaVuSans-50" x="1260.591797"/>
     <use xlink:href="#DejaVuSans-20" x="1320.894531"/>
     <use xlink:href="#DejaVuSans-61" x="1352.681641"/>
     <use xlink:href="#DejaVuSans-6e" x="1413.960938"/>
     <use xlink:href="#DejaVuSans-64" x="1477.339844"/>
     <use xlink:href="#DejaVuSans-20" x="1540.816406"/>
     <use xlink:href="#DejaVuSans-74" x="1572.603516"/>
     <use xlink:href="#DejaVuSans-6f" x="1611.8125"/>
     <use xlink:href="#DejaVuSans-74" x="1672.994141"/>
     <use xlink:href="#DejaVuSans-61" x="1712.203125"/>
     <use xlink:href="#DejaVuSans-6c" x="1773.482422"/>
     <use xlink:href="#DejaVuSans-20" x="1801.265625"/>
     <use xlink:href="#DejaVuSans-65" x="1833.052734"/>
     <use xlink:href="#DejaVuSans-70" x="1894.576172"/>
     <use xlink:href="#DejaVuSans-6f" x="1958.052734"/>
     <use xlink:href="#DejaVuSans-63" x="2019.234375"/>
     <use xlink:href="#DejaVuSans-68" x="2074.214844"/>
     <use xlink:href="#DejaVuSans-73" x="2137.59375"/>
     <use xlink:href="#DejaVuSans-20" x="2189.693359"/>
     <use xlink:href="#DejaVuSans-6f" x="2221.480469"/>
     <use xlink:href="#DejaVuSans-66" x="2282.662109"/>
     <use xlink:href="#DejaVuSans-20" x="2317.867188"/>
     <use xlink:href="#DejaVuSans-68" x="2349.654297"/>
     <use xlink:href="#DejaVuSans-6f" x="2413.033203"/>
     <use xlink:href="#DejaVuSans-73" x="2474.214844"/>
     <use xlink:href="#DejaVuSans-74" x="2526.314453"/>
     <use xlink:href="#DejaVuSans-2f" x="2565.523438"/>
     <use xlink:href="#DejaVuSans-32" x="2599.214844"/>
    </g>
   </g>
   <g id="legend_1">
    <g id="patch_7">
     <path d="M 172.013125 302.584 
L 300.306875 302.584 
Q 302.306875 302.584 302.306875 300.584 
L 302.306875 257.549625 
Q 302.306875 255.549625 300.306875 255.549625 
L 172.013125 255.549625 
Q 170.013125 255.549625 170.013125 257.549625 
L 170.013125 300.584 
Q 170.013125 302.584 172.013125 302.584 
z
" style="fill: #ffffff; opacity: 0.8; stroke: #cccccc; stroke-linejoin: miter"/>
    </g>
    <g id="line2d_20">
     <path d="M 174.013125 263.648062 
L 184.013125 263.648062 
L 194.013125 263.648062 
" style="fill: none; stroke: #008000; stroke-width: 1.5; stroke-linecap: square"/>
    </g>
    <g id="text_20">
     <!-- FPSL -->
     <g transform="translate(202.013125 267.148062) scale(0.1 -0.1)">
      <defs>
       <path id="DejaVuSans-46" d="M 628 4666 
L 3309 4666 
L 3309 4134 
L 1259 4134 
L 1259 2759 
L 3109 2759 
L 3109 2228 
L 1259 2228 
L 1259 0 
L 628 0 
L 628 4666 
z
" transform="scale(0.015625)"/>
       <path id="DejaVuSans-53" d="M 3425 4513 
L 3425 3897 
Q 3066 4069 2747 4153 
Q 2428 4238 2131 4238 
Q 1616 4238 1336 4038 
Q 1056 3838 1056 3469 
Q 1056 3159 1242 3001 
Q 1428 2844 1947 2747 
L 2328 2669 
Q 3034 2534 3370 2195 
Q 3706 1856 3706 1288 
Q 3706 609 3251 259 
Q 2797 -91 1919 -91 
Q 1588 -91 1214 -16 
Q 841 59 441 206 
L 441 856 
Q 825 641 1194 531 
Q 1563 422 1919 422 
Q 2459 422 2753 634 
Q 3047 847 3047 1241 
Q 3047 1584 2836 1778 
Q 2625 1972 2144 2069 
L 1759 2144 
Q 1053 2284 737 2584 
Q 422 2884 422 3419 
Q 422 4038 858 4394 
Q 1294 4750 2059 4750 
Q 2388 4750 2728 4690 
Q 3069 4631 3425 4513 
z
" transform="scale(0.015625)"/>
       <path id="DejaVuSans-4c" d="M 628 4666 
L 1259 4666 
L 1259 531 
L 3531 531 
L 3531 0 
L 628 0 
L 628 4666 
z
" transform="scale(0.015625)"/>
      </defs>
      <use xlink:href="#DejaVuSans-46"/>
      <use xlink:href="#DejaVuSans-50" x="57.519531"/>
      <use xlink:href="#DejaVuSans-53" x="117.822266"/>
      <use xlink:href="#DejaVuSans-4c" x="181.298828"/>
     </g>
    </g>
    <g id="line2d_21">
     <path d="M 174.013125 278.326188 
L 184.013125 278.326188 
L 194.013125 278.326188 
" style="fill: none; stroke: #0000ff; stroke-width: 1.5; stroke-linecap: square"/>
    </g>
    <g id="text_21">
     <!-- FPSL Weight Decay -->
     <g transform="translate(202.013125 281.826188) scale(0.1 -0.1)">
      <defs>
       <path id="DejaVuSans-57" d="M 213 4666 
L 850 4666 
L 1831 722 
L 2809 4666 
L 3519 4666 
L 4500 722 
L 5478 4666 
L 6119 4666 
L 4947 0 
L 4153 0 
L 3169 4050 
L 2175 0 
L 1381 0 
L 213 4666 
z
" transform="scale(0.015625)"/>
       <path id="DejaVuSans-67" d="M 2906 1791 
Q 2906 2416 2648 2759 
Q 2391 3103 1925 3103 
Q 1463 3103 1205 2759 
Q 947 2416 947 1791 
Q 947 1169 1205 825 
Q 1463 481 1925 481 
Q 2391 481 2648 825 
Q 2906 1169 2906 1791 
z
M 3481 434 
Q 3481 -459 3084 -895 
Q 2688 -1331 1869 -1331 
Q 1566 -1331 1297 -1286 
Q 1028 -1241 775 -1147 
L 775 -588 
Q 1028 -725 1275 -790 
Q 1522 -856 1778 -856 
Q 2344 -856 2625 -561 
Q 2906 -266 2906 331 
L 2906 616 
Q 2728 306 2450 153 
Q 2172 0 1784 0 
Q 1141 0 747 490 
Q 353 981 353 1791 
Q 353 2603 747 3093 
Q 1141 3584 1784 3584 
Q 2172 3584 2450 3431 
Q 2728 3278 2906 2969 
L 2906 3500 
L 3481 3500 
L 3481 434 
z
" transform="scale(0.015625)"/>
       <path id="DejaVuSans-44" d="M 1259 4147 
L 1259 519 
L 2022 519 
Q 2988 519 3436 956 
Q 3884 1394 3884 2338 
Q 3884 3275 3436 3711 
Q 2988 4147 2022 4147 
L 1259 4147 
z
M 628 4666 
L 1925 4666 
Q 3281 4666 3915 4102 
Q 4550 3538 4550 2338 
Q 4550 1131 3912 565 
Q 3275 0 1925 0 
L 628 0 
L 628 4666 
z
" transform="scale(0.015625)"/>
       <path id="DejaVuSans-79" d="M 2059 -325 
Q 1816 -950 1584 -1140 
Q 1353 -1331 966 -1331 
L 506 -1331 
L 506 -850 
L 844 -850 
Q 1081 -850 1212 -737 
Q 1344 -625 1503 -206 
L 1606 56 
L 191 3500 
L 800 3500 
L 1894 763 
L 2988 3500 
L 3597 3500 
L 2059 -325 
z
" transform="scale(0.015625)"/>
      </defs>
      <use xlink:href="#DejaVuSans-46"/>
      <use xlink:href="#DejaVuSans-50" x="57.519531"/>
      <use xlink:href="#DejaVuSans-53" x="117.822266"/>
      <use xlink:href="#DejaVuSans-4c" x="181.298828"/>
      <use xlink:href="#DejaVuSans-20" x="237.011719"/>
      <use xlink:href="#DejaVuSans-57" x="268.798828"/>
      <use xlink:href="#DejaVuSans-65" x="361.800781"/>
      <use xlink:href="#DejaVuSans-69" x="423.324219"/>
      <use xlink:href="#DejaVuSans-67" x="451.107422"/>
      <use xlink:href="#DejaVuSans-68" x="514.583984"/>
      <use xlink:href="#DejaVuSans-74" x="577.962891"/>
      <use xlink:href="#DejaVuSans-20" x="617.171875"/>
      <use xlink:href="#DejaVuSans-44" x="648.958984"/>
      <use xlink:href="#DejaVuSans-65" x="725.960938"/>
      <use xlink:href="#DejaVuSans-63" x="787.484375"/>
      <use xlink:href="#DejaVuSans-61" x="842.464844"/>
      <use xlink:href="#DejaVuSans-79" x="903.744141"/>
     </g>
    </g>
    <g id="line2d_22">
     <path d="M 174.013125 293.004312 
L 184.013125 293.004312 
L 194.013125 293.004312 
" style="fill: none; stroke: #ff0000; stroke-width: 1.5; stroke-linecap: square"/>
    </g>
    <g id="text_22">
     <!-- Interactive -->
     <g transform="translate(202.013125 296.504312) scale(0.1 -0.1)">
      <defs>
       <path id="DejaVuSans-49" d="M 628 4666 
L 1259 4666 
L 1259 0 
L 628 0 
L 628 4666 
z
" transform="scale(0.015625)"/>
      </defs>
      <use xlink:href="#DejaVuSans-49"/>
      <use xlink:href="#DejaVuSans-6e" x="29.492188"/>
      <use xlink:href="#DejaVuSans-74" x="92.871094"/>
      <use xlink:href="#DejaVuSans-65" x="132.080078"/>
      <use xlink:href="#DejaVuSans-72" x="193.603516"/>
      <use xlink:href="#DejaVuSans-61" x="234.716797"/>
      <use xlink:href="#DejaVuSans-63" x="295.996094"/>
      <use xlink:href="#DejaVuSans-74" x="350.976562"/>
      <use xlink:href="#DejaVuSans-69" x="390.185547"/>
      <use xlink:href="#DejaVuSans-76" x="417.96875"/>
      <use xlink:href="#DejaVuSans-65" x="477.148438"/>
     </g>
    </g>
   </g>
  </g>
 </g>
 <defs>
  <clipPath id="pf57cfc3eb7">
   <rect x="57.6" y="41.472" width="357.12" height="266.112"/>
  </clipPath>
 </defs>
</svg>
