<?xml version="1.0" encoding="utf-8" standalone="no"?>
<!DOCTYPE svg PUBLIC "-//W3C//DTD SVG 1.1//EN"
  "http://www.w3.org/Graphics/SVG/1.1/DTD/svg11.dtd">
<svg xmlns:xlink="http://www.w3.org/1999/xlink" width="460.8pt" height="345.6pt" viewBox="0 0 460.8 345.6" xmlns="http://www.w3.org/2000/svg" version="1.1">
 <metadata>
  <rdf:RDF xmlns:dc="http://purl.org/dc/elements/1.1/" xmlns:cc="http://creativecommons.org/ns#" xmlns:rdf="http://www.w3.org/1999/02/22-rdf-syntax-ns#">
   <cc:Work>
    <dc:type rdf:resource="http://purl.org/dc/dcmitype/StillImage"/>
    <dc:date>2023-10-19T23:25:36.707929</dc:date>
    <dc:format>image/svg+xml</dc:format>
    <dc:creator>
     <cc:Agent>
      <dc:title>Matplotlib v3.7.1, https://matplotlib.org/</dc:title>
     </cc:Agent>
    </dc:creator>
   </cc:Work>
  </rdf:RDF>
 </metadata>
 <defs>
  <style type="text/css">*{stroke-linejoin: round; stroke-linecap: butt}</style>
 </defs>
 <g id="figure_1">
  <g id="patch_1">
   <path d="M 0 345.6 
L 460.8 345.6 
L 460.8 0 
L 0 0 
z
" style="fill: #ffffff"/>
  </g>
  <g id="axes_1">
   <g id="patch_2">
    <path d="M 57.6 307.584 
L 414.72 307.584 
L 414.72 41.472 
L 57.6 41.472 
z
" style="fill: #ffffff"/>
   </g>
   <g id="matplotlib.axis_1">
    <g id="xtick_1">
     <g id="line2d_1">
      <defs>
       <path id="m69bb2b4882" d="M 0 0 
L 0 3.5 
" style="stroke: #000000; stroke-width: 0.8"/>
      </defs>
      <g>
       <use xlink:href="#m69bb2b4882" x="73.832727" y="307.584" style="stroke: #000000; stroke-width: 0.8"/>
      </g>
     </g>
     <g id="text_1">
      <!-- 0 -->
      <g transform="translate(70.651477 322.182437) scale(0.1 -0.1)">
       <defs>
        <path id="DejaVuSans-30" d="M 2034 4250 
Q 1547 4250 1301 3770 
Q 1056 3291 1056 2328 
Q 1056 1369 1301 889 
Q 1547 409 2034 409 
Q 2525 409 2770 889 
Q 3016 1369 3016 2328 
Q 3016 3291 2770 3770 
Q 2525 4250 2034 4250 
z
M 2034 4750 
Q 2819 4750 3233 4129 
Q 3647 3509 3647 2328 
Q 3647 1150 3233 529 
Q 2819 -91 2034 -91 
Q 1250 -91 836 529 
Q 422 1150 422 2328 
Q 422 3509 836 4129 
Q 1250 4750 2034 4750 
z
" transform="scale(0.015625)"/>
       </defs>
       <use xlink:href="#DejaVuSans-30"/>
      </g>
     </g>
    </g>
    <g id="xtick_2">
     <g id="line2d_2">
      <g>
       <use xlink:href="#m69bb2b4882" x="114.618474" y="307.584" style="stroke: #000000; stroke-width: 0.8"/>
      </g>
     </g>
     <g id="text_2">
      <!-- 25 -->
      <g transform="translate(108.255974 322.182437) scale(0.1 -0.1)">
       <defs>
        <path id="DejaVuSans-32" d="M 1228 531 
L 3431 531 
L 3431 0 
L 469 0 
L 469 531 
Q 828 903 1448 1529 
Q 2069 2156 2228 2338 
Q 2531 2678 2651 2914 
Q 2772 3150 2772 3378 
Q 2772 3750 2511 3984 
Q 2250 4219 1831 4219 
Q 1534 4219 1204 4116 
Q 875 4013 500 3803 
L 500 4441 
Q 881 4594 1212 4672 
Q 1544 4750 1819 4750 
Q 2544 4750 2975 4387 
Q 3406 4025 3406 3419 
Q 3406 3131 3298 2873 
Q 3191 2616 2906 2266 
Q 2828 2175 2409 1742 
Q 1991 1309 1228 531 
z
" transform="scale(0.015625)"/>
        <path id="DejaVuSans-35" d="M 691 4666 
L 3169 4666 
L 3169 4134 
L 1269 4134 
L 1269 2991 
Q 1406 3038 1543 3061 
Q 1681 3084 1819 3084 
Q 2600 3084 3056 2656 
Q 3513 2228 3513 1497 
Q 3513 744 3044 326 
Q 2575 -91 1722 -91 
Q 1428 -91 1123 -41 
Q 819 9 494 109 
L 494 744 
Q 775 591 1075 516 
Q 1375 441 1709 441 
Q 2250 441 2565 725 
Q 2881 1009 2881 1497 
Q 2881 1984 2565 2268 
Q 2250 2553 1709 2553 
Q 1456 2553 1204 2497 
Q 953 2441 691 2322 
L 691 4666 
z
" transform="scale(0.015625)"/>
       </defs>
       <use xlink:href="#DejaVuSans-32"/>
       <use xlink:href="#DejaVuSans-35" x="63.623047"/>
      </g>
     </g>
    </g>
    <g id="xtick_3">
     <g id="line2d_3">
      <g>
       <use xlink:href="#m69bb2b4882" x="155.404221" y="307.584" style="stroke: #000000; stroke-width: 0.8"/>
      </g>
     </g>
     <g id="text_3">
      <!-- 50 -->
      <g transform="translate(149.041721 322.182437) scale(0.1 -0.1)">
       <use xlink:href="#DejaVuSans-35"/>
       <use xlink:href="#DejaVuSans-30" x="63.623047"/>
      </g>
     </g>
    </g>
    <g id="xtick_4">
     <g id="line2d_4">
      <g>
       <use xlink:href="#m69bb2b4882" x="196.189968" y="307.584" style="stroke: #000000; stroke-width: 0.8"/>
      </g>
     </g>
     <g id="text_4">
      <!-- 75 -->
      <g transform="translate(189.827468 322.182437) scale(0.1 -0.1)">
       <defs>
        <path id="DejaVuSans-37" d="M 525 4666 
L 3525 4666 
L 3525 4397 
L 1831 0 
L 1172 0 
L 2766 4134 
L 525 4134 
L 525 4666 
z
" transform="scale(0.015625)"/>
       </defs>
       <use xlink:href="#DejaVuSans-37"/>
       <use xlink:href="#DejaVuSans-35" x="63.623047"/>
      </g>
     </g>
    </g>
    <g id="xtick_5">
     <g id="line2d_5">
      <g>
       <use xlink:href="#m69bb2b4882" x="236.975715" y="307.584" style="stroke: #000000; stroke-width: 0.8"/>
      </g>
     </g>
     <g id="text_5">
      <!-- 100 -->
      <g transform="translate(227.431965 322.182437) scale(0.1 -0.1)">
       <defs>
        <path id="DejaVuSans-31" d="M 794 531 
L 1825 531 
L 1825 4091 
L 703 3866 
L 703 4441 
L 1819 4666 
L 2450 4666 
L 2450 531 
L 3481 531 
L 3481 0 
L 794 0 
L 794 531 
z
" transform="scale(0.015625)"/>
       </defs>
       <use xlink:href="#DejaVuSans-31"/>
       <use xlink:href="#DejaVuSans-30" x="63.623047"/>
       <use xlink:href="#DejaVuSans-30" x="127.246094"/>
      </g>
     </g>
    </g>
    <g id="xtick_6">
     <g id="line2d_6">
      <g>
       <use xlink:href="#m69bb2b4882" x="277.761462" y="307.584" style="stroke: #000000; stroke-width: 0.8"/>
      </g>
     </g>
     <g id="text_6">
      <!-- 125 -->
      <g transform="translate(268.217712 322.182437) scale(0.1 -0.1)">
       <use xlink:href="#DejaVuSans-31"/>
       <use xlink:href="#DejaVuSans-32" x="63.623047"/>
       <use xlink:href="#DejaVuSans-35" x="127.246094"/>
      </g>
     </g>
    </g>
    <g id="xtick_7">
     <g id="line2d_7">
      <g>
       <use xlink:href="#m69bb2b4882" x="318.547209" y="307.584" style="stroke: #000000; stroke-width: 0.8"/>
      </g>
     </g>
     <g id="text_7">
      <!-- 150 -->
      <g transform="translate(309.003459 322.182437) scale(0.1 -0.1)">
       <use xlink:href="#DejaVuSans-31"/>
       <use xlink:href="#DejaVuSans-35" x="63.623047"/>
       <use xlink:href="#DejaVuSans-30" x="127.246094"/>
      </g>
     </g>
    </g>
    <g id="xtick_8">
     <g id="line2d_8">
      <g>
       <use xlink:href="#m69bb2b4882" x="359.332956" y="307.584" style="stroke: #000000; stroke-width: 0.8"/>
      </g>
     </g>
     <g id="text_8">
      <!-- 175 -->
      <g transform="translate(349.789206 322.182437) scale(0.1 -0.1)">
       <use xlink:href="#DejaVuSans-31"/>
       <use xlink:href="#DejaVuSans-37" x="63.623047"/>
       <use xlink:href="#DejaVuSans-35" x="127.246094"/>
      </g>
     </g>
    </g>
    <g id="xtick_9">
     <g id="line2d_9">
      <g>
       <use xlink:href="#m69bb2b4882" x="400.118703" y="307.584" style="stroke: #000000; stroke-width: 0.8"/>
      </g>
     </g>
     <g id="text_9">
      <!-- 200 -->
      <g transform="translate(390.574953 322.182437) scale(0.1 -0.1)">
       <use xlink:href="#DejaVuSans-32"/>
       <use xlink:href="#DejaVuSans-30" x="63.623047"/>
       <use xlink:href="#DejaVuSans-30" x="127.246094"/>
      </g>
     </g>
    </g>
    <g id="text_10">
     <!-- epoch -->
     <g transform="translate(220.931875 335.860562) scale(0.1 -0.1)">
      <defs>
       <path id="DejaVuSans-65" d="M 3597 1894 
L 3597 1613 
L 953 1613 
Q 991 1019 1311 708 
Q 1631 397 2203 397 
Q 2534 397 2845 478 
Q 3156 559 3463 722 
L 3463 178 
Q 3153 47 2828 -22 
Q 2503 -91 2169 -91 
Q 1331 -91 842 396 
Q 353 884 353 1716 
Q 353 2575 817 3079 
Q 1281 3584 2069 3584 
Q 2775 3584 3186 3129 
Q 3597 2675 3597 1894 
z
M 3022 2063 
Q 3016 2534 2758 2815 
Q 2500 3097 2075 3097 
Q 1594 3097 1305 2825 
Q 1016 2553 972 2059 
L 3022 2063 
z
" transform="scale(0.015625)"/>
       <path id="DejaVuSans-70" d="M 1159 525 
L 1159 -1331 
L 581 -1331 
L 581 3500 
L 1159 3500 
L 1159 2969 
Q 1341 3281 1617 3432 
Q 1894 3584 2278 3584 
Q 2916 3584 3314 3078 
Q 3713 2572 3713 1747 
Q 3713 922 3314 415 
Q 2916 -91 2278 -91 
Q 1894 -91 1617 61 
Q 1341 213 1159 525 
z
M 3116 1747 
Q 3116 2381 2855 2742 
Q 2594 3103 2138 3103 
Q 1681 3103 1420 2742 
Q 1159 2381 1159 1747 
Q 1159 1113 1420 752 
Q 1681 391 2138 391 
Q 2594 391 2855 752 
Q 3116 1113 3116 1747 
z
" transform="scale(0.015625)"/>
       <path id="DejaVuSans-6f" d="M 1959 3097 
Q 1497 3097 1228 2736 
Q 959 2375 959 1747 
Q 959 1119 1226 758 
Q 1494 397 1959 397 
Q 2419 397 2687 759 
Q 2956 1122 2956 1747 
Q 2956 2369 2687 2733 
Q 2419 3097 1959 3097 
z
M 1959 3584 
Q 2709 3584 3137 3096 
Q 3566 2609 3566 1747 
Q 3566 888 3137 398 
Q 2709 -91 1959 -91 
Q 1206 -91 779 398 
Q 353 888 353 1747 
Q 353 2609 779 3096 
Q 1206 3584 1959 3584 
z
" transform="scale(0.015625)"/>
       <path id="DejaVuSans-63" d="M 3122 3366 
L 3122 2828 
Q 2878 2963 2633 3030 
Q 2388 3097 2138 3097 
Q 1578 3097 1268 2742 
Q 959 2388 959 1747 
Q 959 1106 1268 751 
Q 1578 397 2138 397 
Q 2388 397 2633 464 
Q 2878 531 3122 666 
L 3122 134 
Q 2881 22 2623 -34 
Q 2366 -91 2075 -91 
Q 1284 -91 818 406 
Q 353 903 353 1747 
Q 353 2603 823 3093 
Q 1294 3584 2113 3584 
Q 2378 3584 2631 3529 
Q 2884 3475 3122 3366 
z
" transform="scale(0.015625)"/>
       <path id="DejaVuSans-68" d="M 3513 2113 
L 3513 0 
L 2938 0 
L 2938 2094 
Q 2938 2591 2744 2837 
Q 2550 3084 2163 3084 
Q 1697 3084 1428 2787 
Q 1159 2491 1159 1978 
L 1159 0 
L 581 0 
L 581 4863 
L 1159 4863 
L 1159 2956 
Q 1366 3272 1645 3428 
Q 1925 3584 2291 3584 
Q 2894 3584 3203 3211 
Q 3513 2838 3513 2113 
z
" transform="scale(0.015625)"/>
      </defs>
      <use xlink:href="#DejaVuSans-65"/>
      <use xlink:href="#DejaVuSans-70" x="61.523438"/>
      <use xlink:href="#DejaVuSans-6f" x="125"/>
      <use xlink:href="#DejaVuSans-63" x="186.181641"/>
      <use xlink:href="#DejaVuSans-68" x="241.162109"/>
     </g>
    </g>
   </g>
   <g id="matplotlib.axis_2">
    <g id="ytick_1">
     <g id="line2d_10">
      <defs>
       <path id="mfd3c0fe2b2" d="M 0 0 
L -3.5 0 
" style="stroke: #000000; stroke-width: 0.8"/>
      </defs>
      <g>
       <use xlink:href="#mfd3c0fe2b2" x="57.6" y="263.455034" style="stroke: #000000; stroke-width: 0.8"/>
      </g>
     </g>
     <g id="text_11">
      <!-- 40 -->
      <g transform="translate(37.875 267.254253) scale(0.1 -0.1)">
       <defs>
        <path id="DejaVuSans-34" d="M 2419 4116 
L 825 1625 
L 2419 1625 
L 2419 4116 
z
M 2253 4666 
L 3047 4666 
L 3047 1625 
L 3713 1625 
L 3713 1100 
L 3047 1100 
L 3047 0 
L 2419 0 
L 2419 1100 
L 313 1100 
L 313 1709 
L 2253 4666 
z
" transform="scale(0.015625)"/>
       </defs>
       <use xlink:href="#DejaVuSans-34"/>
       <use xlink:href="#DejaVuSans-30" x="63.623047"/>
      </g>
     </g>
    </g>
    <g id="ytick_2">
     <g id="line2d_11">
      <g>
       <use xlink:href="#mfd3c0fe2b2" x="57.6" y="219.024906" style="stroke: #000000; stroke-width: 0.8"/>
      </g>
     </g>
     <g id="text_12">
      <!-- 50 -->
      <g transform="translate(37.875 222.824125) scale(0.1 -0.1)">
       <use xlink:href="#DejaVuSans-35"/>
       <use xlink:href="#DejaVuSans-30" x="63.623047"/>
      </g>
     </g>
    </g>
    <g id="ytick_3">
     <g id="line2d_12">
      <g>
       <use xlink:href="#mfd3c0fe2b2" x="57.6" y="174.594778" style="stroke: #000000; stroke-width: 0.8"/>
      </g>
     </g>
     <g id="text_13">
      <!-- 60 -->
      <g transform="translate(37.875 178.393997) scale(0.1 -0.1)">
       <defs>
        <path id="DejaVuSans-36" d="M 2113 2584 
Q 1688 2584 1439 2293 
Q 1191 2003 1191 1497 
Q 1191 994 1439 701 
Q 1688 409 2113 409 
Q 2538 409 2786 701 
Q 3034 994 3034 1497 
Q 3034 2003 2786 2293 
Q 2538 2584 2113 2584 
z
M 3366 4563 
L 3366 3988 
Q 3128 4100 2886 4159 
Q 2644 4219 2406 4219 
Q 1781 4219 1451 3797 
Q 1122 3375 1075 2522 
Q 1259 2794 1537 2939 
Q 1816 3084 2150 3084 
Q 2853 3084 3261 2657 
Q 3669 2231 3669 1497 
Q 3669 778 3244 343 
Q 2819 -91 2113 -91 
Q 1303 -91 875 529 
Q 447 1150 447 2328 
Q 447 3434 972 4092 
Q 1497 4750 2381 4750 
Q 2619 4750 2861 4703 
Q 3103 4656 3366 4563 
z
" transform="scale(0.015625)"/>
       </defs>
       <use xlink:href="#DejaVuSans-36"/>
       <use xlink:href="#DejaVuSans-30" x="63.623047"/>
      </g>
     </g>
    </g>
    <g id="ytick_4">
     <g id="line2d_13">
      <g>
       <use xlink:href="#mfd3c0fe2b2" x="57.6" y="130.16465" style="stroke: #000000; stroke-width: 0.8"/>
      </g>
     </g>
     <g id="text_14">
      <!-- 70 -->
      <g transform="translate(37.875 133.963869) scale(0.1 -0.1)">
       <use xlink:href="#DejaVuSans-37"/>
       <use xlink:href="#DejaVuSans-30" x="63.623047"/>
      </g>
     </g>
    </g>
    <g id="ytick_5">
     <g id="line2d_14">
      <g>
       <use xlink:href="#mfd3c0fe2b2" x="57.6" y="85.734522" style="stroke: #000000; stroke-width: 0.8"/>
      </g>
     </g>
     <g id="text_15">
      <!-- 80 -->
      <g transform="translate(37.875 89.533741) scale(0.1 -0.1)">
       <defs>
        <path id="DejaVuSans-38" d="M 2034 2216 
Q 1584 2216 1326 1975 
Q 1069 1734 1069 1313 
Q 1069 891 1326 650 
Q 1584 409 2034 409 
Q 2484 409 2743 651 
Q 3003 894 3003 1313 
Q 3003 1734 2745 1975 
Q 2488 2216 2034 2216 
z
M 1403 2484 
Q 997 2584 770 2862 
Q 544 3141 544 3541 
Q 544 4100 942 4425 
Q 1341 4750 2034 4750 
Q 2731 4750 3128 4425 
Q 3525 4100 3525 3541 
Q 3525 3141 3298 2862 
Q 3072 2584 2669 2484 
Q 3125 2378 3379 2068 
Q 3634 1759 3634 1313 
Q 3634 634 3220 271 
Q 2806 -91 2034 -91 
Q 1263 -91 848 271 
Q 434 634 434 1313 
Q 434 1759 690 2068 
Q 947 2378 1403 2484 
z
M 1172 3481 
Q 1172 3119 1398 2916 
Q 1625 2713 2034 2713 
Q 2441 2713 2670 2916 
Q 2900 3119 2900 3481 
Q 2900 3844 2670 4047 
Q 2441 4250 2034 4250 
Q 1625 4250 1398 4047 
Q 1172 3844 1172 3481 
z
" transform="scale(0.015625)"/>
       </defs>
       <use xlink:href="#DejaVuSans-38"/>
       <use xlink:href="#DejaVuSans-30" x="63.623047"/>
      </g>
     </g>
    </g>
    <g id="text_16">
     <!-- valid mAP -->
     <g transform="translate(31.795312 199.398313) rotate(-90) scale(0.1 -0.1)">
      <defs>
       <path id="DejaVuSans-76" d="M 191 3500 
L 800 3500 
L 1894 563 
L 2988 3500 
L 3597 3500 
L 2284 0 
L 1503 0 
L 191 3500 
z
" transform="scale(0.015625)"/>
       <path id="DejaVuSans-61" d="M 2194 1759 
Q 1497 1759 1228 1600 
Q 959 1441 959 1056 
Q 959 750 1161 570 
Q 1363 391 1709 391 
Q 2188 391 2477 730 
Q 2766 1069 2766 1631 
L 2766 1759 
L 2194 1759 
z
M 3341 1997 
L 3341 0 
L 2766 0 
L 2766 531 
Q 2569 213 2275 61 
Q 1981 -91 1556 -91 
Q 1019 -91 701 211 
Q 384 513 384 1019 
Q 384 1609 779 1909 
Q 1175 2209 1959 2209 
L 2766 2209 
L 2766 2266 
Q 2766 2663 2505 2880 
Q 2244 3097 1772 3097 
Q 1472 3097 1187 3025 
Q 903 2953 641 2809 
L 641 3341 
Q 956 3463 1253 3523 
Q 1550 3584 1831 3584 
Q 2591 3584 2966 3190 
Q 3341 2797 3341 1997 
z
" transform="scale(0.015625)"/>
       <path id="DejaVuSans-6c" d="M 603 4863 
L 1178 4863 
L 1178 0 
L 603 0 
L 603 4863 
z
" transform="scale(0.015625)"/>
       <path id="DejaVuSans-69" d="M 603 3500 
L 1178 3500 
L 1178 0 
L 603 0 
L 603 3500 
z
M 603 4863 
L 1178 4863 
L 1178 4134 
L 603 4134 
L 603 4863 
z
" transform="scale(0.015625)"/>
       <path id="DejaVuSans-64" d="M 2906 2969 
L 2906 4863 
L 3481 4863 
L 3481 0 
L 2906 0 
L 2906 525 
Q 2725 213 2448 61 
Q 2172 -91 1784 -91 
Q 1150 -91 751 415 
Q 353 922 353 1747 
Q 353 2572 751 3078 
Q 1150 3584 1784 3584 
Q 2172 3584 2448 3432 
Q 2725 3281 2906 2969 
z
M 947 1747 
Q 947 1113 1208 752 
Q 1469 391 1925 391 
Q 2381 391 2643 752 
Q 2906 1113 2906 1747 
Q 2906 2381 2643 2742 
Q 2381 3103 1925 3103 
Q 1469 3103 1208 2742 
Q 947 2381 947 1747 
z
" transform="scale(0.015625)"/>
       <path id="DejaVuSans-20" transform="scale(0.015625)"/>
       <path id="DejaVuSans-6d" d="M 3328 2828 
Q 3544 3216 3844 3400 
Q 4144 3584 4550 3584 
Q 5097 3584 5394 3201 
Q 5691 2819 5691 2113 
L 5691 0 
L 5113 0 
L 5113 2094 
Q 5113 2597 4934 2840 
Q 4756 3084 4391 3084 
Q 3944 3084 3684 2787 
Q 3425 2491 3425 1978 
L 3425 0 
L 2847 0 
L 2847 2094 
Q 2847 2600 2669 2842 
Q 2491 3084 2119 3084 
Q 1678 3084 1418 2786 
Q 1159 2488 1159 1978 
L 1159 0 
L 581 0 
L 581 3500 
L 1159 3500 
L 1159 2956 
Q 1356 3278 1631 3431 
Q 1906 3584 2284 3584 
Q 2666 3584 2933 3390 
Q 3200 3197 3328 2828 
z
" transform="scale(0.015625)"/>
       <path id="DejaVuSans-41" d="M 2188 4044 
L 1331 1722 
L 3047 1722 
L 2188 4044 
z
M 1831 4666 
L 2547 4666 
L 4325 0 
L 3669 0 
L 3244 1197 
L 1141 1197 
L 716 0 
L 50 0 
L 1831 4666 
z
" transform="scale(0.015625)"/>
       <path id="DejaVuSans-50" d="M 1259 4147 
L 1259 2394 
L 2053 2394 
Q 2494 2394 2734 2622 
Q 2975 2850 2975 3272 
Q 2975 3691 2734 3919 
Q 2494 4147 2053 4147 
L 1259 4147 
z
M 628 4666 
L 2053 4666 
Q 2838 4666 3239 4311 
Q 3641 3956 3641 3272 
Q 3641 2581 3239 2228 
Q 2838 1875 2053 1875 
L 1259 1875 
L 1259 0 
L 628 0 
L 628 4666 
z
" transform="scale(0.015625)"/>
      </defs>
      <use xlink:href="#DejaVuSans-76"/>
      <use xlink:href="#DejaVuSans-61" x="59.179688"/>
      <use xlink:href="#DejaVuSans-6c" x="120.458984"/>
      <use xlink:href="#DejaVuSans-69" x="148.242188"/>
      <use xlink:href="#DejaVuSans-64" x="176.025391"/>
      <use xlink:href="#DejaVuSans-20" x="239.501953"/>
      <use xlink:href="#DejaVuSans-6d" x="271.289062"/>
      <use xlink:href="#DejaVuSans-41" x="368.701172"/>
      <use xlink:href="#DejaVuSans-50" x="437.109375"/>
     </g>
    </g>
   </g>
   <g id="line2d_15">
    <path d="M 73.832727 245.384905 
L 75.464157 262.768457 
L 77.095587 250.106945 
L 78.727017 240.018474 
L 80.358447 130.627351 
L 81.989877 203.75605 
L 83.621307 197.0717 
L 85.252736 142.317106 
L 86.884166 185.36625 
L 88.515596 133.838868 
L 90.147026 109.573446 
L 91.778456 161.629087 
L 93.409886 82.09166 
L 95.041316 158.668666 
L 96.672746 123.463894 
L 98.304175 131.225981 
L 99.935605 175.26666 
L 101.567035 180.082224 
L 103.198465 86.366541 
L 104.829895 266.587604 
L 106.461325 103.442202 
L 108.092755 146.924522 
L 109.724185 175.406369 
L 111.355614 113.90741 
L 112.987044 136.915065 
L 114.618474 140.544267 
L 116.249904 143.216373 
L 117.881334 114.088491 
L 119.512764 148.87312 
L 121.144194 118.608383 
L 122.775624 125.362934 
L 124.407053 164.667726 
L 126.038483 170.470046 
L 127.669913 191.942704 
L 129.301343 139.143453 
L 130.932773 142.003859 
L 132.564203 90.514306 
L 134.195633 128.919527 
L 135.827063 102.647 
L 137.458492 149.65866 
L 139.089922 152.264496 
L 140.721352 162.085008 
L 142.352782 127.122994 
L 143.984212 145.750482 
L 145.615642 61.890581 
L 147.247072 175.903255 
L 148.878502 87.259842 
L 150.509931 152.613234 
L 152.141361 170.046259 
L 153.772791 92.195927 
L 155.404221 136.023765 
L 157.035651 156.078643 
L 158.667081 100.011843 
L 160.298511 144.135877 
L 161.929941 179.299666 
L 163.56137 187.645789 
L 165.1928 125.235886 
L 166.82423 198.721797 
L 168.45566 174.574473 
L 170.08709 190.931084 
L 171.71852 91.675804 
L 173.34995 163.525465 
L 174.98138 140.160344 
L 176.61281 92.477582 
L 178.244239 149.629881 
L 179.875669 149.738421 
L 181.507099 163.037053 
L 183.138529 142.465781 
L 184.769959 160.751532 
L 186.401389 145.421575 
L 188.032819 168.743155 
L 189.664249 158.725698 
L 191.295678 101.391505 
L 192.927108 137.668607 
L 194.558538 115.692351 
L 196.189968 136.832661 
L 197.821398 84.701089 
L 199.452828 87.388686 
L 201.084258 138.862375 
L 202.715688 136.631648 
L 204.347117 89.264743 
L 205.978547 156.250876 
L 207.609977 170.234729 
L 209.241407 102.021015 
L 210.872837 129.355313 
L 212.504267 101.402183 
L 214.135697 167.406543 
L 215.767127 109.982351 
L 217.398556 98.359679 
L 219.029986 109.754051 
L 220.661416 98.706213 
L 222.292846 145.287747 
L 223.924276 144.775556 
L 225.555706 87.314349 
L 227.187136 96.666329 
L 228.818566 148.638515 
L 230.449995 115.715706 
L 232.081425 112.524494 
L 233.712855 141.896981 
L 235.344285 112.27389 
L 236.975715 100.419087 
L 238.607145 115.417374 
L 240.238575 176.035252 
L 241.870005 168.828322 
L 243.501434 94.614209 
L 245.132864 150.479895 
L 246.764294 173.68263 
L 248.395724 119.430601 
L 250.027154 145.813498 
L 251.658584 112.069251 
L 253.290014 131.343232 
L 254.921444 157.14099 
L 256.552873 66.083634 
L 258.184303 135.550318 
L 259.815733 176.745066 
L 261.447163 150.027872 
L 263.078593 205.72424 
L 264.710023 91.068327 
L 266.341453 199.740247 
L 267.972883 149.423784 
L 269.604312 90.915822 
L 271.235742 131.66797 
L 272.867172 159.546289 
L 274.498602 160.545333 
L 276.130032 147.458509 
L 277.761462 100.978972 
L 279.392892 167.202463 
L 281.024322 116.706394 
L 282.655751 137.041944 
L 284.287181 135.978952 
L 285.918611 96.929374 
L 287.550041 179.963582 
L 289.181471 132.174161 
L 290.812901 148.056088 
L 292.444331 96.324337 
L 294.075761 154.685015 
L 295.70719 156.925267 
L 297.33862 123.588739 
L 298.97005 95.515102 
L 300.60148 133.836698 
L 302.23291 142.388291 
L 303.86434 95.687573 
L 305.49577 163.119662 
L 307.1272 112.259009 
L 308.75863 131.2592 
L 310.390059 107.435734 
L 312.021489 164.145705 
L 313.652919 111.006903 
L 315.284349 147.546643 
L 316.915779 83.73379 
L 318.547209 110.478441 
L 320.178639 115.390663 
L 321.810069 129.543546 
L 323.441498 147.779857 
L 325.072928 59.880324 
L 326.704358 106.26288 
L 328.335788 140.201326 
L 329.967218 96.454029 
L 331.598648 147.815416 
L 333.230078 170.008972 
L 334.861508 150.845852 
L 336.492937 139.561545 
L 338.124367 63.096112 
L 339.755797 188.613664 
L 341.387227 95.317006 
L 343.018657 157.783297 
L 344.650087 85.730081 
L 346.281517 107.725693 
L 347.912947 94.816543 
L 349.544376 123.237662 
L 351.175806 197.287187 
L 352.807236 153.930016 
L 354.438666 165.037785 
L 356.070096 124.333602 
L 357.701526 174.571677 
L 359.332956 164.469799 
L 360.964386 124.757457 
L 362.595815 94.552346 
L 364.227245 160.903986 
L 365.858675 150.764159 
L 367.490105 107.529155 
L 369.121535 165.784225 
L 370.752965 204.921039 
L 372.384395 152.719774 
L 374.015825 152.06362 
L 375.647254 89.275522 
L 377.278684 102.445242 
L 378.910114 171.298653 
L 380.541544 92.669509 
L 382.172974 168.759205 
L 383.804404 162.682096 
L 385.435834 199.345426 
L 387.067264 133.131359 
L 388.698693 83.305359 
L 390.330123 160.844987 
L 391.961553 156.310807 
L 393.592983 120.695892 
L 395.224413 138.521197 
L 396.855843 100.00286 
L 398.487273 133.335524 
L 398.487273 133.335524 
" clip-path="url(#p6a3bcdf79a)" style="fill: none; stroke: #008000; stroke-width: 1.5; stroke-linecap: square"/>
   </g>
   <g id="line2d_16">
    <path d="M 73.832727 287.24579 
L 75.464157 295.488 
L 77.095587 293.680958 
L 78.727017 276.606535 
L 80.358447 144.193536 
L 81.989877 209.723636 
L 83.621307 155.646416 
L 85.252736 147.160618 
L 86.884166 183.983368 
L 88.515596 133.657787 
L 90.147026 129.385245 
L 91.778456 78.076637 
L 93.409886 156.202979 
L 95.041316 158.93571 
L 96.672746 147.426137 
L 98.304175 209.789499 
L 99.935605 133.777377 
L 101.567035 118.422048 
L 103.198465 113.313458 
L 104.829895 140.154209 
L 106.461325 135.609537 
L 108.092755 159.604288 
L 109.724185 163.616819 
L 111.355614 114.450618 
L 112.987044 210.579497 
L 114.618474 141.169269 
L 116.249904 117.162756 
L 117.881334 174.538949 
L 119.512764 93.720433 
L 121.144194 148.961694 
L 122.775624 113.784362 
L 124.407053 135.435982 
L 126.038483 142.149687 
L 127.669913 115.772789 
L 129.301343 190.77846 
L 130.932773 162.080652 
L 132.564203 140.219766 
L 134.195633 154.169129 
L 135.827063 118.157038 
L 137.458492 153.010411 
L 139.089922 128.866105 
L 140.721352 71.786447 
L 142.352782 123.158546 
L 143.984212 103.707619 
L 145.615642 53.568 
L 147.247072 82.3264 
L 148.878502 129.528631 
L 150.509931 147.458035 
L 152.141361 99.566294 
L 153.772791 98.630757 
L 155.404221 83.945954 
L 157.035651 108.714991 
L 158.667081 123.036176 
L 160.298511 121.802476 
L 161.929941 107.465021 
L 163.56137 152.604726 
L 165.1928 142.998378 
L 166.82423 199.557946 
L 168.45566 104.814847 
L 170.08709 139.23762 
L 171.71852 84.844509 
L 173.34995 95.566525 
L 174.98138 165.421708 
L 176.61281 146.696087 
L 178.244239 83.649453 
L 179.875669 161.498548 
L 181.507099 128.799428 
L 183.138529 85.295143 
L 184.769959 74.147306 
L 186.401389 129.958824 
L 188.032819 167.652113 
L 189.664249 149.326973 
L 191.295678 90.268007 
L 192.927108 103.656366 
L 194.558538 122.790487 
L 196.189968 115.032604 
L 197.821398 110.7644 
L 199.452828 130.121159 
L 201.084258 169.458189 
L 202.715688 163.663089 
L 204.347117 128.501062 
L 205.978547 98.761737 
L 207.609977 101.108766 
L 209.241407 104.334757 
L 210.872837 114.251876 
L 212.504267 155.276052 
L 214.135697 149.14691 
L 215.767127 146.591174 
L 217.398556 119.582055 
L 219.029986 88.549065 
L 220.661416 137.04791 
L 222.292846 89.469687 
L 223.924276 88.625673 
L 225.555706 95.145281 
L 227.187136 75.891875 
L 228.818566 141.679698 
L 230.449995 86.380744 
L 232.081425 95.154975 
L 233.712855 153.77402 
L 235.344285 115.333613 
L 236.975715 89.31142 
L 238.607145 88.126499 
L 240.238575 117.262584 
L 241.870005 90.836977 
L 243.501434 130.214513 
L 245.132864 111.607431 
L 246.764294 150.185732 
L 248.395724 124.206961 
L 250.027154 110.389189 
L 251.658584 135.044025 
L 253.290014 92.049016 
L 254.921444 121.488484 
L 256.552873 112.960178 
L 258.184303 235.700729 
L 259.815733 89.286166 
L 261.447163 77.977249 
L 263.078593 129.29023 
L 264.710023 137.772537 
L 266.341453 165.437623 
L 267.972883 56.840092 
L 269.604312 76.531521 
L 271.235742 113.87914 
L 272.867172 111.114968 
L 274.498602 93.59186 
L 276.130032 130.662909 
L 277.761462 105.924007 
L 279.392892 152.458695 
L 281.024322 73.52322 
L 282.655751 64.08541 
L 284.287181 87.992536 
L 285.918611 84.824883 
L 287.550041 109.54809 
L 289.181471 93.537828 
L 290.812901 101.165951 
L 292.444331 182.102328 
L 294.075761 65.359516 
L 295.70719 152.58737 
L 297.33862 136.279521 
L 298.97005 73.608709 
L 300.60148 149.01715 
L 302.23291 142.631268 
L 303.86434 156.092575 
L 305.49577 144.340245 
L 307.1272 173.814644 
L 308.75863 114.004357 
L 310.390059 108.704348 
L 312.021489 166.731372 
L 313.652919 100.77874 
L 315.284349 103.373763 
L 316.915779 110.028553 
L 318.547209 108.315204 
L 320.178639 167.912514 
L 321.810069 106.801986 
L 323.441498 97.2734 
L 325.072928 181.671287 
L 326.704358 91.470555 
L 328.335788 155.873224 
L 329.967218 159.96594 
L 331.598648 147.699656 
L 333.230078 153.541924 
L 334.861508 66.371593 
L 336.492937 146.535107 
L 338.124367 138.502587 
L 339.755797 140.521522 
L 341.387227 141.308893 
L 343.018657 158.531957 
L 344.650087 127.101672 
L 346.281517 161.143997 
L 347.912947 123.485216 
L 349.544376 61.311883 
L 351.175806 104.793356 
L 352.807236 88.412729 
L 354.438666 91.004668 
L 356.070096 102.235247 
L 357.701526 126.049765 
L 359.332956 188.004137 
L 360.964386 202.884223 
L 362.595815 115.109653 
L 364.227245 136.065696 
L 365.858675 120.318952 
L 367.490105 164.322616 
L 369.121535 137.449561 
L 370.752965 139.974518 
L 372.384395 85.591373 
L 374.015825 105.850788 
L 375.647254 135.670044 
L 377.278684 130.764398 
L 378.910114 137.976905 
L 380.541544 121.919524 
L 382.172974 157.943463 
L 383.804404 140.411592 
L 385.435834 204.561369 
L 387.067264 115.239412 
L 388.698693 169.379801 
L 390.330123 164.865823 
L 391.961553 188.176065 
L 393.592983 95.602694 
L 395.224413 95.330598 
L 396.855843 215.176879 
L 398.487273 194.473457 
L 398.487273 194.473457 
" clip-path="url(#p6a3bcdf79a)" style="fill: none; stroke: #0000ff; stroke-width: 1.5; stroke-linecap: square"/>
   </g>
   <g id="line2d_17">
    <path d="M 73.832727 286.198018 
L 75.464157 285.474527 
L 77.095587 280.480019 
L 78.727017 267.803676 
L 80.358447 139.126606 
L 81.989877 211.383986 
L 83.621307 168.300403 
L 85.252736 196.898179 
L 86.884166 207.739972 
L 88.515596 194.53171 
L 90.147026 143.771512 
L 91.778456 204.86521 
L 93.409886 116.909474 
L 95.041316 118.506351 
L 96.672746 160.832886 
L 98.304175 177.247037 
L 99.935605 155.704686 
L 101.567035 138.596483 
L 103.198465 147.888262 
L 104.829895 206.211974 
L 106.461325 109.156913 
L 108.092755 101.985253 
L 109.724185 70.848063 
L 111.355614 144.431327 
L 112.987044 89.803544 
L 114.618474 151.100422 
L 116.249904 105.032028 
L 117.881334 220.949081 
L 119.512764 164.176603 
L 121.144194 132.643405 
L 122.775624 166.503378 
L 124.407053 149.643745 
L 126.038483 80.738404 
L 127.669913 139.995704 
L 129.301343 144.594713 
L 130.932773 144.182316 
L 132.564203 89.751409 
L 135.827063 207.247322 
L 137.458492 103.196648 
L 139.089922 128.450962 
L 142.352782 196.428444 
L 143.984212 96.268271 
L 145.615642 194.387883 
L 147.247072 186.608966 
L 148.878502 163.173491 
L 150.509931 162.796008 
L 152.141361 160.951984 
L 153.772791 141.566887 
L 155.404221 184.198278 
L 157.035651 183.182438 
L 158.667081 91.887697 
L 160.298511 89.57443 
L 161.929941 160.674364 
L 163.56137 107.727557 
L 165.1928 163.032833 
L 166.82423 144.203672 
L 168.45566 166.992942 
L 170.08709 176.274874 
L 171.71852 97.647967 
L 173.34995 125.922107 
L 174.98138 158.407604 
L 176.61281 145.585876 
L 178.244239 124.526106 
L 179.875669 70.806301 
L 181.507099 132.421206 
L 183.138529 164.210347 
L 184.769959 155.172393 
L 186.401389 133.801207 
L 188.032819 139.444124 
L 189.664249 86.490199 
L 191.295678 126.812594 
L 192.927108 90.354954 
L 194.558538 139.188943 
L 196.189968 115.37829 
L 197.821398 140.02672 
L 199.452828 139.620357 
L 201.084258 150.179631 
L 202.715688 83.805585 
L 204.347117 125.704892 
L 205.978547 101.686142 
L 207.609977 106.950864 
L 209.241407 85.142773 
L 210.872837 115.189515 
L 212.504267 135.879361 
L 214.135697 90.56 
L 215.767127 125.87743 
L 217.398556 99.331181 
L 219.029986 106.122443 
L 220.661416 148.40608 
L 222.292846 130.879108 
L 223.924276 131.804645 
L 225.555706 80.404378 
L 227.187136 149.785844 
L 228.818566 137.758367 
L 230.449995 146.459143 
L 232.081425 121.271506 
L 233.712855 156.767135 
L 235.344285 144.827352 
L 236.975715 148.360793 
L 238.607145 135.852921 
L 240.238575 183.946877 
L 241.870005 128.012972 
L 243.501434 101.196764 
L 245.132864 131.852576 
L 246.764294 141.014459 
L 248.395724 139.07176 
L 250.027154 160.011261 
L 251.658584 96.571281 
L 253.290014 148.20639 
L 254.921444 115.616047 
L 256.552873 133.279627 
L 258.184303 163.920761 
L 259.815733 156.654663 
L 261.447163 159.975414 
L 263.078593 117.244653 
L 264.710023 118.829395 
L 266.341453 150.444641 
L 267.972883 163.746104 
L 269.604312 122.404869 
L 271.235742 95.959499 
L 272.867172 143.75636 
L 274.498602 181.04315 
L 276.130032 85.917263 
L 277.761462 153.994794 
L 279.392892 152.527066 
L 281.024322 93.68718 
L 282.655751 179.756028 
L 284.287181 169.020623 
L 285.918611 135.899598 
L 287.550041 122.512731 
L 289.181471 159.693557 
L 290.812901 136.742934 
L 292.444331 124.838845 
L 294.075761 147.683521 
L 295.70719 91.591738 
L 297.33862 108.303645 
L 298.97005 146.245758 
L 300.60148 111.817358 
L 302.23291 176.721626 
L 303.86434 132.724996 
L 307.1272 111.328692 
L 308.75863 113.973239 
L 310.390059 113.583994 
L 312.021489 102.58029 
L 313.652919 117.295329 
L 315.284349 137.244176 
L 316.915779 121.861187 
L 318.547209 137.730673 
L 320.178639 122.632151 
L 321.810069 116.772461 
L 323.441498 133.910222 
L 325.072928 162.788161 
L 326.704358 91.897358 
L 328.335788 127.789249 
L 329.967218 111.911424 
L 331.598648 101.403166 
L 333.230078 133.237526 
L 333.230078 133.237526 
" clip-path="url(#p6a3bcdf79a)" style="fill: none; stroke: #ff0000; stroke-width: 1.5; stroke-linecap: square"/>
   </g>
   <g id="patch_3">
    <path d="M 57.6 307.584 
L 57.6 41.472 
" style="fill: none; stroke: #000000; stroke-width: 0.8; stroke-linejoin: miter; stroke-linecap: square"/>
   </g>
   <g id="patch_4">
    <path d="M 414.72 307.584 
L 414.72 41.472 
" style="fill: none; stroke: #000000; stroke-width: 0.8; stroke-linejoin: miter; stroke-linecap: square"/>
   </g>
   <g id="patch_5">
    <path d="M 57.6 307.584 
L 414.72 307.584 
" style="fill: none; stroke: #000000; stroke-width: 0.8; stroke-linejoin: miter; stroke-linecap: square"/>
   </g>
   <g id="patch_6">
    <path d="M 57.6 41.472 
L 414.72 41.472 
" style="fill: none; stroke: #000000; stroke-width: 0.8; stroke-linejoin: miter; stroke-linecap: square"/>
   </g>
   <g id="text_17">
    <!-- The relation between mAP and total epochs of host/3 -->
    <g transform="translate(76.392188 35.472) scale(0.12 -0.12)">
     <defs>
      <path id="DejaVuSans-54" d="M -19 4666 
L 3928 4666 
L 3928 4134 
L 2272 4134 
L 2272 0 
L 1638 0 
L 1638 4134 
L -19 4134 
L -19 4666 
z
" transform="scale(0.015625)"/>
      <path id="DejaVuSans-72" d="M 2631 2963 
Q 2534 3019 2420 3045 
Q 2306 3072 2169 3072 
Q 1681 3072 1420 2755 
Q 1159 2438 1159 1844 
L 1159 0 
L 581 0 
L 581 3500 
L 1159 3500 
L 1159 2956 
Q 1341 3275 1631 3429 
Q 1922 3584 2338 3584 
Q 2397 3584 2469 3576 
Q 2541 3569 2628 3553 
L 2631 2963 
z
" transform="scale(0.015625)"/>
      <path id="DejaVuSans-74" d="M 1172 4494 
L 1172 3500 
L 2356 3500 
L 2356 3053 
L 1172 3053 
L 1172 1153 
Q 1172 725 1289 603 
Q 1406 481 1766 481 
L 2356 481 
L 2356 0 
L 1766 0 
Q 1100 0 847 248 
Q 594 497 594 1153 
L 594 3053 
L 172 3053 
L 172 3500 
L 594 3500 
L 594 4494 
L 1172 4494 
z
" transform="scale(0.015625)"/>
      <path id="DejaVuSans-6e" d="M 3513 2113 
L 3513 0 
L 2938 0 
L 2938 2094 
Q 2938 2591 2744 2837 
Q 2550 3084 2163 3084 
Q 1697 3084 1428 2787 
Q 1159 2491 1159 1978 
L 1159 0 
L 581 0 
L 581 3500 
L 1159 3500 
L 1159 2956 
Q 1366 3272 1645 3428 
Q 1925 3584 2291 3584 
Q 2894 3584 3203 3211 
Q 3513 2838 3513 2113 
z
" transform="scale(0.015625)"/>
      <path id="DejaVuSans-62" d="M 3116 1747 
Q 3116 2381 2855 2742 
Q 2594 3103 2138 3103 
Q 1681 3103 1420 2742 
Q 1159 2381 1159 1747 
Q 1159 1113 1420 752 
Q 1681 391 2138 391 
Q 2594 391 2855 752 
Q 3116 1113 3116 1747 
z
M 1159 2969 
Q 1341 3281 1617 3432 
Q 1894 3584 2278 3584 
Q 2916 3584 3314 3078 
Q 3713 2572 3713 1747 
Q 3713 922 3314 415 
Q 2916 -91 2278 -91 
Q 1894 -91 1617 61 
Q 1341 213 1159 525 
L 1159 0 
L 581 0 
L 581 4863 
L 1159 4863 
L 1159 2969 
z
" transform="scale(0.015625)"/>
      <path id="DejaVuSans-77" d="M 269 3500 
L 844 3500 
L 1563 769 
L 2278 3500 
L 2956 3500 
L 3675 769 
L 4391 3500 
L 4966 3500 
L 4050 0 
L 3372 0 
L 2619 2869 
L 1863 0 
L 1184 0 
L 269 3500 
z
" transform="scale(0.015625)"/>
      <path id="DejaVuSans-73" d="M 2834 3397 
L 2834 2853 
Q 2591 2978 2328 3040 
Q 2066 3103 1784 3103 
Q 1356 3103 1142 2972 
Q 928 2841 928 2578 
Q 928 2378 1081 2264 
Q 1234 2150 1697 2047 
L 1894 2003 
Q 2506 1872 2764 1633 
Q 3022 1394 3022 966 
Q 3022 478 2636 193 
Q 2250 -91 1575 -91 
Q 1294 -91 989 -36 
Q 684 19 347 128 
L 347 722 
Q 666 556 975 473 
Q 1284 391 1588 391 
Q 1994 391 2212 530 
Q 2431 669 2431 922 
Q 2431 1156 2273 1281 
Q 2116 1406 1581 1522 
L 1381 1569 
Q 847 1681 609 1914 
Q 372 2147 372 2553 
Q 372 3047 722 3315 
Q 1072 3584 1716 3584 
Q 2034 3584 2315 3537 
Q 2597 3491 2834 3397 
z
" transform="scale(0.015625)"/>
      <path id="DejaVuSans-66" d="M 2375 4863 
L 2375 4384 
L 1825 4384 
Q 1516 4384 1395 4259 
Q 1275 4134 1275 3809 
L 1275 3500 
L 2222 3500 
L 2222 3053 
L 1275 3053 
L 1275 0 
L 697 0 
L 697 3053 
L 147 3053 
L 147 3500 
L 697 3500 
L 697 3744 
Q 697 4328 969 4595 
Q 1241 4863 1831 4863 
L 2375 4863 
z
" transform="scale(0.015625)"/>
      <path id="DejaVuSans-2f" d="M 1625 4666 
L 2156 4666 
L 531 -594 
L 0 -594 
L 1625 4666 
z
" transform="scale(0.015625)"/>
      <path id="DejaVuSans-33" d="M 2597 2516 
Q 3050 2419 3304 2112 
Q 3559 1806 3559 1356 
Q 3559 666 3084 287 
Q 2609 -91 1734 -91 
Q 1441 -91 1130 -33 
Q 819 25 488 141 
L 488 750 
Q 750 597 1062 519 
Q 1375 441 1716 441 
Q 2309 441 2620 675 
Q 2931 909 2931 1356 
Q 2931 1769 2642 2001 
Q 2353 2234 1838 2234 
L 1294 2234 
L 1294 2753 
L 1863 2753 
Q 2328 2753 2575 2939 
Q 2822 3125 2822 3475 
Q 2822 3834 2567 4026 
Q 2313 4219 1838 4219 
Q 1578 4219 1281 4162 
Q 984 4106 628 3988 
L 628 4550 
Q 988 4650 1302 4700 
Q 1616 4750 1894 4750 
Q 2613 4750 3031 4423 
Q 3450 4097 3450 3541 
Q 3450 3153 3228 2886 
Q 3006 2619 2597 2516 
z
" transform="scale(0.015625)"/>
     </defs>
     <use xlink:href="#DejaVuSans-54"/>
     <use xlink:href="#DejaVuSans-68" x="61.083984"/>
     <use xlink:href="#DejaVuSans-65" x="124.462891"/>
     <use xlink:href="#DejaVuSans-20" x="185.986328"/>
     <use xlink:href="#DejaVuSans-72" x="217.773438"/>
     <use xlink:href="#DejaVuSans-65" x="256.636719"/>
     <use xlink:href="#DejaVuSans-6c" x="318.160156"/>
     <use xlink:href="#DejaVuSans-61" x="345.943359"/>
     <use xlink:href="#DejaVuSans-74" x="407.222656"/>
     <use xlink:href="#DejaVuSans-69" x="446.431641"/>
     <use xlink:href="#DejaVuSans-6f" x="474.214844"/>
     <use xlink:href="#DejaVuSans-6e" x="535.396484"/>
     <use xlink:href="#DejaVuSans-20" x="598.775391"/>
     <use xlink:href="#DejaVuSans-62" x="630.5625"/>
     <use xlink:href="#DejaVuSans-65" x="694.039062"/>
     <use xlink:href="#DejaVuSans-74" x="755.5625"/>
     <use xlink:href="#DejaVuSans-77" x="794.771484"/>
     <use xlink:href="#DejaVuSans-65" x="876.558594"/>
     <use xlink:href="#DejaVuSans-65" x="938.082031"/>
     <use xlink:href="#DejaVuSans-6e" x="999.605469"/>
     <use xlink:href="#DejaVuSans-20" x="1062.984375"/>
     <use xlink:href="#DejaVuSans-6d" x="1094.771484"/>
     <use xlink:href="#DejaVuSans-41" x="1192.183594"/>
     <use xlink:href="#DejaVuSans-50" x="1260.591797"/>
     <use xlink:href="#DejaVuSans-20" x="1320.894531"/>
     <use xlink:href="#DejaVuSans-61" x="1352.681641"/>
     <use xlink:href="#DejaVuSans-6e" x="1413.960938"/>
     <use xlink:href="#DejaVuSans-64" x="1477.339844"/>
     <use xlink:href="#DejaVuSans-20" x="1540.816406"/>
     <use xlink:href="#DejaVuSans-74" x="1572.603516"/>
     <use xlink:href="#DejaVuSans-6f" x="1611.8125"/>
     <use xlink:href="#DejaVuSans-74" x="1672.994141"/>
     <use xlink:href="#DejaVuSans-61" x="1712.203125"/>
     <use xlink:href="#DejaVuSans-6c" x="1773.482422"/>
     <use xlink:href="#DejaVuSans-20" x="1801.265625"/>
     <use xlink:href="#DejaVuSans-65" x="1833.052734"/>
     <use xlink:href="#DejaVuSans-70" x="1894.576172"/>
     <use xlink:href="#DejaVuSans-6f" x="1958.052734"/>
     <use xlink:href="#DejaVuSans-63" x="2019.234375"/>
     <use xlink:href="#DejaVuSans-68" x="2074.214844"/>
     <use xlink:href="#DejaVuSans-73" x="2137.59375"/>
     <use xlink:href="#DejaVuSans-20" x="2189.693359"/>
     <use xlink:href="#DejaVuSans-6f" x="2221.480469"/>
     <use xlink:href="#DejaVuSans-66" x="2282.662109"/>
     <use xlink:href="#DejaVuSans-20" x="2317.867188"/>
     <use xlink:href="#DejaVuSans-68" x="2349.654297"/>
     <use xlink:href="#DejaVuSans-6f" x="2413.033203"/>
     <use xlink:href="#DejaVuSans-73" x="2474.214844"/>
     <use xlink:href="#DejaVuSans-74" x="2526.314453"/>
     <use xlink:href="#DejaVuSans-2f" x="2565.523438"/>
     <use xlink:href="#DejaVuSans-33" x="2599.214844"/>
    </g>
   </g>
   <g id="legend_1">
    <g id="patch_7">
     <path d="M 279.42625 302.584 
L 407.72 302.584 
Q 409.72 302.584 409.72 300.584 
L 409.72 257.549625 
Q 409.72 255.549625 407.72 255.549625 
L 279.42625 255.549625 
Q 277.42625 255.549625 277.42625 257.549625 
L 277.42625 300.584 
Q 277.42625 302.584 279.42625 302.584 
z
" style="fill: #ffffff; opacity: 0.8; stroke: #cccccc; stroke-linejoin: miter"/>
    </g>
    <g id="line2d_18">
     <path d="M 281.42625 263.648062 
L 291.42625 263.648062 
L 301.42625 263.648062 
" style="fill: none; stroke: #008000; stroke-width: 1.5; stroke-linecap: square"/>
    </g>
    <g id="text_18">
     <!-- FPSL -->
     <g transform="translate(309.42625 267.148062) scale(0.1 -0.1)">
      <defs>
       <path id="DejaVuSans-46" d="M 628 4666 
L 3309 4666 
L 3309 4134 
L 1259 4134 
L 1259 2759 
L 3109 2759 
L 3109 2228 
L 1259 2228 
L 1259 0 
L 628 0 
L 628 4666 
z
" transform="scale(0.015625)"/>
       <path id="DejaVuSans-53" d="M 3425 4513 
L 3425 3897 
Q 3066 4069 2747 4153 
Q 2428 4238 2131 4238 
Q 1616 4238 1336 4038 
Q 1056 3838 1056 3469 
Q 1056 3159 1242 3001 
Q 1428 2844 1947 2747 
L 2328 2669 
Q 3034 2534 3370 2195 
Q 3706 1856 3706 1288 
Q 3706 609 3251 259 
Q 2797 -91 1919 -91 
Q 1588 -91 1214 -16 
Q 841 59 441 206 
L 441 856 
Q 825 641 1194 531 
Q 1563 422 1919 422 
Q 2459 422 2753 634 
Q 3047 847 3047 1241 
Q 3047 1584 2836 1778 
Q 2625 1972 2144 2069 
L 1759 2144 
Q 1053 2284 737 2584 
Q 422 2884 422 3419 
Q 422 4038 858 4394 
Q 1294 4750 2059 4750 
Q 2388 4750 2728 4690 
Q 3069 4631 3425 4513 
z
" transform="scale(0.015625)"/>
       <path id="DejaVuSans-4c" d="M 628 4666 
L 1259 4666 
L 1259 531 
L 3531 531 
L 3531 0 
L 628 0 
L 628 4666 
z
" transform="scale(0.015625)"/>
      </defs>
      <use xlink:href="#DejaVuSans-46"/>
      <use xlink:href="#DejaVuSans-50" x="57.519531"/>
      <use xlink:href="#DejaVuSans-53" x="117.822266"/>
      <use xlink:href="#DejaVuSans-4c" x="181.298828"/>
     </g>
    </g>
    <g id="line2d_19">
     <path d="M 281.42625 278.326188 
L 291.42625 278.326188 
L 301.42625 278.326188 
" style="fill: none; stroke: #0000ff; stroke-width: 1.5; stroke-linecap: square"/>
    </g>
    <g id="text_19">
     <!-- FPSL Weight Decay -->
     <g transform="translate(309.42625 281.826188) scale(0.1 -0.1)">
      <defs>
       <path id="DejaVuSans-57" d="M 213 4666 
L 850 4666 
L 1831 722 
L 2809 4666 
L 3519 4666 
L 4500 722 
L 5478 4666 
L 6119 4666 
L 4947 0 
L 4153 0 
L 3169 4050 
L 2175 0 
L 1381 0 
L 213 4666 
z
" transform="scale(0.015625)"/>
       <path id="DejaVuSans-67" d="M 2906 1791 
Q 2906 2416 2648 2759 
Q 2391 3103 1925 3103 
Q 1463 3103 1205 2759 
Q 947 2416 947 1791 
Q 947 1169 1205 825 
Q 1463 481 1925 481 
Q 2391 481 2648 825 
Q 2906 1169 2906 1791 
z
M 3481 434 
Q 3481 -459 3084 -895 
Q 2688 -1331 1869 -1331 
Q 1566 -1331 1297 -1286 
Q 1028 -1241 775 -1147 
L 775 -588 
Q 1028 -725 1275 -790 
Q 1522 -856 1778 -856 
Q 2344 -856 2625 -561 
Q 2906 -266 2906 331 
L 2906 616 
Q 2728 306 2450 153 
Q 2172 0 1784 0 
Q 1141 0 747 490 
Q 353 981 353 1791 
Q 353 2603 747 3093 
Q 1141 3584 1784 3584 
Q 2172 3584 2450 3431 
Q 2728 3278 2906 2969 
L 2906 3500 
L 3481 3500 
L 3481 434 
z
" transform="scale(0.015625)"/>
       <path id="DejaVuSans-44" d="M 1259 4147 
L 1259 519 
L 2022 519 
Q 2988 519 3436 956 
Q 3884 1394 3884 2338 
Q 3884 3275 3436 3711 
Q 2988 4147 2022 4147 
L 1259 4147 
z
M 628 4666 
L 1925 4666 
Q 3281 4666 3915 4102 
Q 4550 3538 4550 2338 
Q 4550 1131 3912 565 
Q 3275 0 1925 0 
L 628 0 
L 628 4666 
z
" transform="scale(0.015625)"/>
       <path id="DejaVuSans-79" d="M 2059 -325 
Q 1816 -950 1584 -1140 
Q 1353 -1331 966 -1331 
L 506 -1331 
L 506 -850 
L 844 -850 
Q 1081 -850 1212 -737 
Q 1344 -625 1503 -206 
L 1606 56 
L 191 3500 
L 800 3500 
L 1894 763 
L 2988 3500 
L 3597 3500 
L 2059 -325 
z
" transform="scale(0.015625)"/>
      </defs>
      <use xlink:href="#DejaVuSans-46"/>
      <use xlink:href="#DejaVuSans-50" x="57.519531"/>
      <use xlink:href="#DejaVuSans-53" x="117.822266"/>
      <use xlink:href="#DejaVuSans-4c" x="181.298828"/>
      <use xlink:href="#DejaVuSans-20" x="237.011719"/>
      <use xlink:href="#DejaVuSans-57" x="268.798828"/>
      <use xlink:href="#DejaVuSans-65" x="361.800781"/>
      <use xlink:href="#DejaVuSans-69" x="423.324219"/>
      <use xlink:href="#DejaVuSans-67" x="451.107422"/>
      <use xlink:href="#DejaVuSans-68" x="514.583984"/>
      <use xlink:href="#DejaVuSans-74" x="577.962891"/>
      <use xlink:href="#DejaVuSans-20" x="617.171875"/>
      <use xlink:href="#DejaVuSans-44" x="648.958984"/>
      <use xlink:href="#DejaVuSans-65" x="725.960938"/>
      <use xlink:href="#DejaVuSans-63" x="787.484375"/>
      <use xlink:href="#DejaVuSans-61" x="842.464844"/>
      <use xlink:href="#DejaVuSans-79" x="903.744141"/>
     </g>
    </g>
    <g id="line2d_20">
     <path d="M 281.42625 293.004312 
L 291.42625 293.004312 
L 301.42625 293.004312 
" style="fill: none; stroke: #ff0000; stroke-width: 1.5; stroke-linecap: square"/>
    </g>
    <g id="text_20">
     <!-- Interactive -->
     <g transform="translate(309.42625 296.504312) scale(0.1 -0.1)">
      <defs>
       <path id="DejaVuSans-49" d="M 628 4666 
L 1259 4666 
L 1259 0 
L 628 0 
L 628 4666 
z
" transform="scale(0.015625)"/>
      </defs>
      <use xlink:href="#DejaVuSans-49"/>
      <use xlink:href="#DejaVuSans-6e" x="29.492188"/>
      <use xlink:href="#DejaVuSans-74" x="92.871094"/>
      <use xlink:href="#DejaVuSans-65" x="132.080078"/>
      <use xlink:href="#DejaVuSans-72" x="193.603516"/>
      <use xlink:href="#DejaVuSans-61" x="234.716797"/>
      <use xlink:href="#DejaVuSans-63" x="295.996094"/>
      <use xlink:href="#DejaVuSans-74" x="350.976562"/>
      <use xlink:href="#DejaVuSans-69" x="390.185547"/>
      <use xlink:href="#DejaVuSans-76" x="417.96875"/>
      <use xlink:href="#DejaVuSans-65" x="477.148438"/>
     </g>
    </g>
   </g>
  </g>
 </g>
 <defs>
  <clipPath id="p6a3bcdf79a">
   <rect x="57.6" y="41.472" width="357.12" height="266.112"/>
  </clipPath>
 </defs>
</svg>
