<?xml version="1.0" encoding="utf-8" standalone="no"?>
<!DOCTYPE svg PUBLIC "-//W3C//DTD SVG 1.1//EN"
  "http://www.w3.org/Graphics/SVG/1.1/DTD/svg11.dtd">
<svg xmlns:xlink="http://www.w3.org/1999/xlink" width="460.8pt" height="345.6pt" viewBox="0 0 460.8 345.6" xmlns="http://www.w3.org/2000/svg" version="1.1">
 <metadata>
  <rdf:RDF xmlns:dc="http://purl.org/dc/elements/1.1/" xmlns:cc="http://creativecommons.org/ns#" xmlns:rdf="http://www.w3.org/1999/02/22-rdf-syntax-ns#">
   <cc:Work>
    <dc:type rdf:resource="http://purl.org/dc/dcmitype/StillImage"/>
    <dc:date>2023-10-19T23:25:36.795162</dc:date>
    <dc:format>image/svg+xml</dc:format>
    <dc:creator>
     <cc:Agent>
      <dc:title>Matplotlib v3.7.1, https://matplotlib.org/</dc:title>
     </cc:Agent>
    </dc:creator>
   </cc:Work>
  </rdf:RDF>
 </metadata>
 <defs>
  <style type="text/css">*{stroke-linejoin: round; stroke-linecap: butt}</style>
 </defs>
 <g id="figure_1">
  <g id="patch_1">
   <path d="M 0 345.6 
L 460.8 345.6 
L 460.8 0 
L 0 0 
z
" style="fill: #ffffff"/>
  </g>
  <g id="axes_1">
   <g id="patch_2">
    <path d="M 57.6 307.584 
L 414.72 307.584 
L 414.72 41.472 
L 57.6 41.472 
z
" style="fill: #ffffff"/>
   </g>
   <g id="matplotlib.axis_1">
    <g id="xtick_1">
     <g id="line2d_1">
      <defs>
       <path id="m80cbac845a" d="M 0 0 
L 0 3.5 
" style="stroke: #000000; stroke-width: 0.8"/>
      </defs>
      <g>
       <use xlink:href="#m80cbac845a" x="73.832727" y="307.584" style="stroke: #000000; stroke-width: 0.8"/>
      </g>
     </g>
     <g id="text_1">
      <!-- 0 -->
      <g transform="translate(70.651477 322.182437) scale(0.1 -0.1)">
       <defs>
        <path id="DejaVuSans-30" d="M 2034 4250 
Q 1547 4250 1301 3770 
Q 1056 3291 1056 2328 
Q 1056 1369 1301 889 
Q 1547 409 2034 409 
Q 2525 409 2770 889 
Q 3016 1369 3016 2328 
Q 3016 3291 2770 3770 
Q 2525 4250 2034 4250 
z
M 2034 4750 
Q 2819 4750 3233 4129 
Q 3647 3509 3647 2328 
Q 3647 1150 3233 529 
Q 2819 -91 2034 -91 
Q 1250 -91 836 529 
Q 422 1150 422 2328 
Q 422 3509 836 4129 
Q 1250 4750 2034 4750 
z
" transform="scale(0.015625)"/>
       </defs>
       <use xlink:href="#DejaVuSans-30"/>
      </g>
     </g>
    </g>
    <g id="xtick_2">
     <g id="line2d_2">
      <g>
       <use xlink:href="#m80cbac845a" x="114.618474" y="307.584" style="stroke: #000000; stroke-width: 0.8"/>
      </g>
     </g>
     <g id="text_2">
      <!-- 25 -->
      <g transform="translate(108.255974 322.182437) scale(0.1 -0.1)">
       <defs>
        <path id="DejaVuSans-32" d="M 1228 531 
L 3431 531 
L 3431 0 
L 469 0 
L 469 531 
Q 828 903 1448 1529 
Q 2069 2156 2228 2338 
Q 2531 2678 2651 2914 
Q 2772 3150 2772 3378 
Q 2772 3750 2511 3984 
Q 2250 4219 1831 4219 
Q 1534 4219 1204 4116 
Q 875 4013 500 3803 
L 500 4441 
Q 881 4594 1212 4672 
Q 1544 4750 1819 4750 
Q 2544 4750 2975 4387 
Q 3406 4025 3406 3419 
Q 3406 3131 3298 2873 
Q 3191 2616 2906 2266 
Q 2828 2175 2409 1742 
Q 1991 1309 1228 531 
z
" transform="scale(0.015625)"/>
        <path id="DejaVuSans-35" d="M 691 4666 
L 3169 4666 
L 3169 4134 
L 1269 4134 
L 1269 2991 
Q 1406 3038 1543 3061 
Q 1681 3084 1819 3084 
Q 2600 3084 3056 2656 
Q 3513 2228 3513 1497 
Q 3513 744 3044 326 
Q 2575 -91 1722 -91 
Q 1428 -91 1123 -41 
Q 819 9 494 109 
L 494 744 
Q 775 591 1075 516 
Q 1375 441 1709 441 
Q 2250 441 2565 725 
Q 2881 1009 2881 1497 
Q 2881 1984 2565 2268 
Q 2250 2553 1709 2553 
Q 1456 2553 1204 2497 
Q 953 2441 691 2322 
L 691 4666 
z
" transform="scale(0.015625)"/>
       </defs>
       <use xlink:href="#DejaVuSans-32"/>
       <use xlink:href="#DejaVuSans-35" x="63.623047"/>
      </g>
     </g>
    </g>
    <g id="xtick_3">
     <g id="line2d_3">
      <g>
       <use xlink:href="#m80cbac845a" x="155.404221" y="307.584" style="stroke: #000000; stroke-width: 0.8"/>
      </g>
     </g>
     <g id="text_3">
      <!-- 50 -->
      <g transform="translate(149.041721 322.182437) scale(0.1 -0.1)">
       <use xlink:href="#DejaVuSans-35"/>
       <use xlink:href="#DejaVuSans-30" x="63.623047"/>
      </g>
     </g>
    </g>
    <g id="xtick_4">
     <g id="line2d_4">
      <g>
       <use xlink:href="#m80cbac845a" x="196.189968" y="307.584" style="stroke: #000000; stroke-width: 0.8"/>
      </g>
     </g>
     <g id="text_4">
      <!-- 75 -->
      <g transform="translate(189.827468 322.182437) scale(0.1 -0.1)">
       <defs>
        <path id="DejaVuSans-37" d="M 525 4666 
L 3525 4666 
L 3525 4397 
L 1831 0 
L 1172 0 
L 2766 4134 
L 525 4134 
L 525 4666 
z
" transform="scale(0.015625)"/>
       </defs>
       <use xlink:href="#DejaVuSans-37"/>
       <use xlink:href="#DejaVuSans-35" x="63.623047"/>
      </g>
     </g>
    </g>
    <g id="xtick_5">
     <g id="line2d_5">
      <g>
       <use xlink:href="#m80cbac845a" x="236.975715" y="307.584" style="stroke: #000000; stroke-width: 0.8"/>
      </g>
     </g>
     <g id="text_5">
      <!-- 100 -->
      <g transform="translate(227.431965 322.182437) scale(0.1 -0.1)">
       <defs>
        <path id="DejaVuSans-31" d="M 794 531 
L 1825 531 
L 1825 4091 
L 703 3866 
L 703 4441 
L 1819 4666 
L 2450 4666 
L 2450 531 
L 3481 531 
L 3481 0 
L 794 0 
L 794 531 
z
" transform="scale(0.015625)"/>
       </defs>
       <use xlink:href="#DejaVuSans-31"/>
       <use xlink:href="#DejaVuSans-30" x="63.623047"/>
       <use xlink:href="#DejaVuSans-30" x="127.246094"/>
      </g>
     </g>
    </g>
    <g id="xtick_6">
     <g id="line2d_6">
      <g>
       <use xlink:href="#m80cbac845a" x="277.761462" y="307.584" style="stroke: #000000; stroke-width: 0.8"/>
      </g>
     </g>
     <g id="text_6">
      <!-- 125 -->
      <g transform="translate(268.217712 322.182437) scale(0.1 -0.1)">
       <use xlink:href="#DejaVuSans-31"/>
       <use xlink:href="#DejaVuSans-32" x="63.623047"/>
       <use xlink:href="#DejaVuSans-35" x="127.246094"/>
      </g>
     </g>
    </g>
    <g id="xtick_7">
     <g id="line2d_7">
      <g>
       <use xlink:href="#m80cbac845a" x="318.547209" y="307.584" style="stroke: #000000; stroke-width: 0.8"/>
      </g>
     </g>
     <g id="text_7">
      <!-- 150 -->
      <g transform="translate(309.003459 322.182437) scale(0.1 -0.1)">
       <use xlink:href="#DejaVuSans-31"/>
       <use xlink:href="#DejaVuSans-35" x="63.623047"/>
       <use xlink:href="#DejaVuSans-30" x="127.246094"/>
      </g>
     </g>
    </g>
    <g id="xtick_8">
     <g id="line2d_8">
      <g>
       <use xlink:href="#m80cbac845a" x="359.332956" y="307.584" style="stroke: #000000; stroke-width: 0.8"/>
      </g>
     </g>
     <g id="text_8">
      <!-- 175 -->
      <g transform="translate(349.789206 322.182437) scale(0.1 -0.1)">
       <use xlink:href="#DejaVuSans-31"/>
       <use xlink:href="#DejaVuSans-37" x="63.623047"/>
       <use xlink:href="#DejaVuSans-35" x="127.246094"/>
      </g>
     </g>
    </g>
    <g id="xtick_9">
     <g id="line2d_9">
      <g>
       <use xlink:href="#m80cbac845a" x="400.118703" y="307.584" style="stroke: #000000; stroke-width: 0.8"/>
      </g>
     </g>
     <g id="text_9">
      <!-- 200 -->
      <g transform="translate(390.574953 322.182437) scale(0.1 -0.1)">
       <use xlink:href="#DejaVuSans-32"/>
       <use xlink:href="#DejaVuSans-30" x="63.623047"/>
       <use xlink:href="#DejaVuSans-30" x="127.246094"/>
      </g>
     </g>
    </g>
    <g id="text_10">
     <!-- epoch -->
     <g transform="translate(220.931875 335.860562) scale(0.1 -0.1)">
      <defs>
       <path id="DejaVuSans-65" d="M 3597 1894 
L 3597 1613 
L 953 1613 
Q 991 1019 1311 708 
Q 1631 397 2203 397 
Q 2534 397 2845 478 
Q 3156 559 3463 722 
L 3463 178 
Q 3153 47 2828 -22 
Q 2503 -91 2169 -91 
Q 1331 -91 842 396 
Q 353 884 353 1716 
Q 353 2575 817 3079 
Q 1281 3584 2069 3584 
Q 2775 3584 3186 3129 
Q 3597 2675 3597 1894 
z
M 3022 2063 
Q 3016 2534 2758 2815 
Q 2500 3097 2075 3097 
Q 1594 3097 1305 2825 
Q 1016 2553 972 2059 
L 3022 2063 
z
" transform="scale(0.015625)"/>
       <path id="DejaVuSans-70" d="M 1159 525 
L 1159 -1331 
L 581 -1331 
L 581 3500 
L 1159 3500 
L 1159 2969 
Q 1341 3281 1617 3432 
Q 1894 3584 2278 3584 
Q 2916 3584 3314 3078 
Q 3713 2572 3713 1747 
Q 3713 922 3314 415 
Q 2916 -91 2278 -91 
Q 1894 -91 1617 61 
Q 1341 213 1159 525 
z
M 3116 1747 
Q 3116 2381 2855 2742 
Q 2594 3103 2138 3103 
Q 1681 3103 1420 2742 
Q 1159 2381 1159 1747 
Q 1159 1113 1420 752 
Q 1681 391 2138 391 
Q 2594 391 2855 752 
Q 3116 1113 3116 1747 
z
" transform="scale(0.015625)"/>
       <path id="DejaVuSans-6f" d="M 1959 3097 
Q 1497 3097 1228 2736 
Q 959 2375 959 1747 
Q 959 1119 1226 758 
Q 1494 397 1959 397 
Q 2419 397 2687 759 
Q 2956 1122 2956 1747 
Q 2956 2369 2687 2733 
Q 2419 3097 1959 3097 
z
M 1959 3584 
Q 2709 3584 3137 3096 
Q 3566 2609 3566 1747 
Q 3566 888 3137 398 
Q 2709 -91 1959 -91 
Q 1206 -91 779 398 
Q 353 888 353 1747 
Q 353 2609 779 3096 
Q 1206 3584 1959 3584 
z
" transform="scale(0.015625)"/>
       <path id="DejaVuSans-63" d="M 3122 3366 
L 3122 2828 
Q 2878 2963 2633 3030 
Q 2388 3097 2138 3097 
Q 1578 3097 1268 2742 
Q 959 2388 959 1747 
Q 959 1106 1268 751 
Q 1578 397 2138 397 
Q 2388 397 2633 464 
Q 2878 531 3122 666 
L 3122 134 
Q 2881 22 2623 -34 
Q 2366 -91 2075 -91 
Q 1284 -91 818 406 
Q 353 903 353 1747 
Q 353 2603 823 3093 
Q 1294 3584 2113 3584 
Q 2378 3584 2631 3529 
Q 2884 3475 3122 3366 
z
" transform="scale(0.015625)"/>
       <path id="DejaVuSans-68" d="M 3513 2113 
L 3513 0 
L 2938 0 
L 2938 2094 
Q 2938 2591 2744 2837 
Q 2550 3084 2163 3084 
Q 1697 3084 1428 2787 
Q 1159 2491 1159 1978 
L 1159 0 
L 581 0 
L 581 4863 
L 1159 4863 
L 1159 2956 
Q 1366 3272 1645 3428 
Q 1925 3584 2291 3584 
Q 2894 3584 3203 3211 
Q 3513 2838 3513 2113 
z
" transform="scale(0.015625)"/>
      </defs>
      <use xlink:href="#DejaVuSans-65"/>
      <use xlink:href="#DejaVuSans-70" x="61.523438"/>
      <use xlink:href="#DejaVuSans-6f" x="125"/>
      <use xlink:href="#DejaVuSans-63" x="186.181641"/>
      <use xlink:href="#DejaVuSans-68" x="241.162109"/>
     </g>
    </g>
   </g>
   <g id="matplotlib.axis_2">
    <g id="ytick_1">
     <g id="line2d_10">
      <defs>
       <path id="me62678c288" d="M 0 0 
L -3.5 0 
" style="stroke: #000000; stroke-width: 0.8"/>
      </defs>
      <g>
       <use xlink:href="#me62678c288" x="57.6" y="277.428108" style="stroke: #000000; stroke-width: 0.8"/>
      </g>
     </g>
     <g id="text_11">
      <!-- 30 -->
      <g transform="translate(37.875 281.227326) scale(0.1 -0.1)">
       <defs>
        <path id="DejaVuSans-33" d="M 2597 2516 
Q 3050 2419 3304 2112 
Q 3559 1806 3559 1356 
Q 3559 666 3084 287 
Q 2609 -91 1734 -91 
Q 1441 -91 1130 -33 
Q 819 25 488 141 
L 488 750 
Q 750 597 1062 519 
Q 1375 441 1716 441 
Q 2309 441 2620 675 
Q 2931 909 2931 1356 
Q 2931 1769 2642 2001 
Q 2353 2234 1838 2234 
L 1294 2234 
L 1294 2753 
L 1863 2753 
Q 2328 2753 2575 2939 
Q 2822 3125 2822 3475 
Q 2822 3834 2567 4026 
Q 2313 4219 1838 4219 
Q 1578 4219 1281 4162 
Q 984 4106 628 3988 
L 628 4550 
Q 988 4650 1302 4700 
Q 1616 4750 1894 4750 
Q 2613 4750 3031 4423 
Q 3450 4097 3450 3541 
Q 3450 3153 3228 2886 
Q 3006 2619 2597 2516 
z
" transform="scale(0.015625)"/>
       </defs>
       <use xlink:href="#DejaVuSans-33"/>
       <use xlink:href="#DejaVuSans-30" x="63.623047"/>
      </g>
     </g>
    </g>
    <g id="ytick_2">
     <g id="line2d_11">
      <g>
       <use xlink:href="#me62678c288" x="57.6" y="220.964807" style="stroke: #000000; stroke-width: 0.8"/>
      </g>
     </g>
     <g id="text_12">
      <!-- 40 -->
      <g transform="translate(37.875 224.764026) scale(0.1 -0.1)">
       <defs>
        <path id="DejaVuSans-34" d="M 2419 4116 
L 825 1625 
L 2419 1625 
L 2419 4116 
z
M 2253 4666 
L 3047 4666 
L 3047 1625 
L 3713 1625 
L 3713 1100 
L 3047 1100 
L 3047 0 
L 2419 0 
L 2419 1100 
L 313 1100 
L 313 1709 
L 2253 4666 
z
" transform="scale(0.015625)"/>
       </defs>
       <use xlink:href="#DejaVuSans-34"/>
       <use xlink:href="#DejaVuSans-30" x="63.623047"/>
      </g>
     </g>
    </g>
    <g id="ytick_3">
     <g id="line2d_12">
      <g>
       <use xlink:href="#me62678c288" x="57.6" y="164.501507" style="stroke: #000000; stroke-width: 0.8"/>
      </g>
     </g>
     <g id="text_13">
      <!-- 50 -->
      <g transform="translate(37.875 168.300726) scale(0.1 -0.1)">
       <use xlink:href="#DejaVuSans-35"/>
       <use xlink:href="#DejaVuSans-30" x="63.623047"/>
      </g>
     </g>
    </g>
    <g id="ytick_4">
     <g id="line2d_13">
      <g>
       <use xlink:href="#me62678c288" x="57.6" y="108.038207" style="stroke: #000000; stroke-width: 0.8"/>
      </g>
     </g>
     <g id="text_14">
      <!-- 60 -->
      <g transform="translate(37.875 111.837426) scale(0.1 -0.1)">
       <defs>
        <path id="DejaVuSans-36" d="M 2113 2584 
Q 1688 2584 1439 2293 
Q 1191 2003 1191 1497 
Q 1191 994 1439 701 
Q 1688 409 2113 409 
Q 2538 409 2786 701 
Q 3034 994 3034 1497 
Q 3034 2003 2786 2293 
Q 2538 2584 2113 2584 
z
M 3366 4563 
L 3366 3988 
Q 3128 4100 2886 4159 
Q 2644 4219 2406 4219 
Q 1781 4219 1451 3797 
Q 1122 3375 1075 2522 
Q 1259 2794 1537 2939 
Q 1816 3084 2150 3084 
Q 2853 3084 3261 2657 
Q 3669 2231 3669 1497 
Q 3669 778 3244 343 
Q 2819 -91 2113 -91 
Q 1303 -91 875 529 
Q 447 1150 447 2328 
Q 447 3434 972 4092 
Q 1497 4750 2381 4750 
Q 2619 4750 2861 4703 
Q 3103 4656 3366 4563 
z
" transform="scale(0.015625)"/>
       </defs>
       <use xlink:href="#DejaVuSans-36"/>
       <use xlink:href="#DejaVuSans-30" x="63.623047"/>
      </g>
     </g>
    </g>
    <g id="ytick_5">
     <g id="line2d_14">
      <g>
       <use xlink:href="#me62678c288" x="57.6" y="51.574906" style="stroke: #000000; stroke-width: 0.8"/>
      </g>
     </g>
     <g id="text_15">
      <!-- 70 -->
      <g transform="translate(37.875 55.374125) scale(0.1 -0.1)">
       <use xlink:href="#DejaVuSans-37"/>
       <use xlink:href="#DejaVuSans-30" x="63.623047"/>
      </g>
     </g>
    </g>
    <g id="text_16">
     <!-- valid mAP -->
     <g transform="translate(31.795312 199.398313) rotate(-90) scale(0.1 -0.1)">
      <defs>
       <path id="DejaVuSans-76" d="M 191 3500 
L 800 3500 
L 1894 563 
L 2988 3500 
L 3597 3500 
L 2284 0 
L 1503 0 
L 191 3500 
z
" transform="scale(0.015625)"/>
       <path id="DejaVuSans-61" d="M 2194 1759 
Q 1497 1759 1228 1600 
Q 959 1441 959 1056 
Q 959 750 1161 570 
Q 1363 391 1709 391 
Q 2188 391 2477 730 
Q 2766 1069 2766 1631 
L 2766 1759 
L 2194 1759 
z
M 3341 1997 
L 3341 0 
L 2766 0 
L 2766 531 
Q 2569 213 2275 61 
Q 1981 -91 1556 -91 
Q 1019 -91 701 211 
Q 384 513 384 1019 
Q 384 1609 779 1909 
Q 1175 2209 1959 2209 
L 2766 2209 
L 2766 2266 
Q 2766 2663 2505 2880 
Q 2244 3097 1772 3097 
Q 1472 3097 1187 3025 
Q 903 2953 641 2809 
L 641 3341 
Q 956 3463 1253 3523 
Q 1550 3584 1831 3584 
Q 2591 3584 2966 3190 
Q 3341 2797 3341 1997 
z
" transform="scale(0.015625)"/>
       <path id="DejaVuSans-6c" d="M 603 4863 
L 1178 4863 
L 1178 0 
L 603 0 
L 603 4863 
z
" transform="scale(0.015625)"/>
       <path id="DejaVuSans-69" d="M 603 3500 
L 1178 3500 
L 1178 0 
L 603 0 
L 603 3500 
z
M 603 4863 
L 1178 4863 
L 1178 4134 
L 603 4134 
L 603 4863 
z
" transform="scale(0.015625)"/>
       <path id="DejaVuSans-64" d="M 2906 2969 
L 2906 4863 
L 3481 4863 
L 3481 0 
L 2906 0 
L 2906 525 
Q 2725 213 2448 61 
Q 2172 -91 1784 -91 
Q 1150 -91 751 415 
Q 353 922 353 1747 
Q 353 2572 751 3078 
Q 1150 3584 1784 3584 
Q 2172 3584 2448 3432 
Q 2725 3281 2906 2969 
z
M 947 1747 
Q 947 1113 1208 752 
Q 1469 391 1925 391 
Q 2381 391 2643 752 
Q 2906 1113 2906 1747 
Q 2906 2381 2643 2742 
Q 2381 3103 1925 3103 
Q 1469 3103 1208 2742 
Q 947 2381 947 1747 
z
" transform="scale(0.015625)"/>
       <path id="DejaVuSans-20" transform="scale(0.015625)"/>
       <path id="DejaVuSans-6d" d="M 3328 2828 
Q 3544 3216 3844 3400 
Q 4144 3584 4550 3584 
Q 5097 3584 5394 3201 
Q 5691 2819 5691 2113 
L 5691 0 
L 5113 0 
L 5113 2094 
Q 5113 2597 4934 2840 
Q 4756 3084 4391 3084 
Q 3944 3084 3684 2787 
Q 3425 2491 3425 1978 
L 3425 0 
L 2847 0 
L 2847 2094 
Q 2847 2600 2669 2842 
Q 2491 3084 2119 3084 
Q 1678 3084 1418 2786 
Q 1159 2488 1159 1978 
L 1159 0 
L 581 0 
L 581 3500 
L 1159 3500 
L 1159 2956 
Q 1356 3278 1631 3431 
Q 1906 3584 2284 3584 
Q 2666 3584 2933 3390 
Q 3200 3197 3328 2828 
z
" transform="scale(0.015625)"/>
       <path id="DejaVuSans-41" d="M 2188 4044 
L 1331 1722 
L 3047 1722 
L 2188 4044 
z
M 1831 4666 
L 2547 4666 
L 4325 0 
L 3669 0 
L 3244 1197 
L 1141 1197 
L 716 0 
L 50 0 
L 1831 4666 
z
" transform="scale(0.015625)"/>
       <path id="DejaVuSans-50" d="M 1259 4147 
L 1259 2394 
L 2053 2394 
Q 2494 2394 2734 2622 
Q 2975 2850 2975 3272 
Q 2975 3691 2734 3919 
Q 2494 4147 2053 4147 
L 1259 4147 
z
M 628 4666 
L 2053 4666 
Q 2838 4666 3239 4311 
Q 3641 3956 3641 3272 
Q 3641 2581 3239 2228 
Q 2838 1875 2053 1875 
L 1259 1875 
L 1259 0 
L 628 0 
L 628 4666 
z
" transform="scale(0.015625)"/>
      </defs>
      <use xlink:href="#DejaVuSans-76"/>
      <use xlink:href="#DejaVuSans-61" x="59.179688"/>
      <use xlink:href="#DejaVuSans-6c" x="120.458984"/>
      <use xlink:href="#DejaVuSans-69" x="148.242188"/>
      <use xlink:href="#DejaVuSans-64" x="176.025391"/>
      <use xlink:href="#DejaVuSans-20" x="239.501953"/>
      <use xlink:href="#DejaVuSans-6d" x="271.289062"/>
      <use xlink:href="#DejaVuSans-41" x="368.701172"/>
      <use xlink:href="#DejaVuSans-50" x="437.109375"/>
     </g>
    </g>
   </g>
   <g id="line2d_15">
    <path d="M 73.832727 265.551567 
L 75.464157 264.368579 
L 77.095587 228.748198 
L 78.727017 270.738276 
L 80.358447 88.766431 
L 81.989877 125.994787 
L 83.621307 84.41281 
L 85.252736 169.969149 
L 86.884166 124.399541 
L 88.515596 134.735373 
L 90.147026 99.641772 
L 91.778456 145.777146 
L 93.409886 142.770339 
L 95.041316 172.807908 
L 96.672746 91.939756 
L 98.304175 154.956309 
L 99.935605 145.072259 
L 101.567035 123.578473 
L 103.198465 81.203234 
L 104.829895 92.946469 
L 106.461325 124.883265 
L 108.092755 101.606499 
L 109.724185 171.767702 
L 111.355614 113.850237 
L 112.987044 106.330527 
L 114.618474 100.062279 
L 116.249904 131.705864 
L 117.881334 103.257035 
L 119.512764 142.90694 
L 121.144194 123.508471 
L 122.775624 132.995751 
L 124.407053 123.749945 
L 126.038483 106.684435 
L 127.669913 135.97083 
L 129.301343 80.729246 
L 130.932773 75.340178 
L 134.195633 85.204197 
L 135.827063 86.645589 
L 137.458492 73.276351 
L 139.089922 97.845718 
L 140.721352 146.516646 
L 142.352782 90.606576 
L 143.984212 64.604862 
L 145.615642 114.294738 
L 147.247072 129.538067 
L 148.878502 122.080605 
L 150.509931 172.514741 
L 152.141361 83.94524 
L 153.772791 73.057729 
L 155.404221 104.562732 
L 157.035651 104.779716 
L 158.667081 130.220036 
L 160.298511 168.35958 
L 161.929941 185.165114 
L 163.56137 93.006262 
L 165.1928 175.505845 
L 166.82423 196.162323 
L 168.45566 165.05883 
L 170.08709 81.902865 
L 171.71852 148.937828 
L 173.34995 127.907282 
L 174.98138 156.062317 
L 176.61281 124.907303 
L 178.244239 114.013287 
L 179.875669 104.609622 
L 181.507099 193.636655 
L 183.138529 119.559482 
L 184.769959 156.404444 
L 186.401389 132.864599 
L 188.032819 78.563582 
L 189.664249 131.959593 
L 191.295678 146.862455 
L 192.927108 139.42832 
L 194.558538 130.770789 
L 196.189968 110.262306 
L 197.821398 153.515821 
L 199.452828 146.504089 
L 201.084258 129.511272 
L 202.715688 143.545335 
L 204.347117 117.424468 
L 205.978547 116.462104 
L 207.609977 116.219703 
L 209.241407 153.988969 
L 210.872837 116.815559 
L 212.504267 122.536048 
L 214.135697 143.339702 
L 215.767127 193.151424 
L 217.398556 117.517258 
L 219.029986 172.440431 
L 220.661416 123.20602 
L 222.292846 140.478951 
L 223.924276 162.132385 
L 225.555706 119.216559 
L 227.187136 131.916472 
L 228.818566 140.227182 
L 230.449995 121.75263 
L 232.081425 137.261794 
L 233.712855 82.276481 
L 235.344285 89.016219 
L 236.975715 146.430963 
L 238.607145 130.432303 
L 240.238575 123.684833 
L 241.870005 112.319414 
L 243.501434 190.701767 
L 245.132864 177.186171 
L 246.764294 102.925205 
L 248.395724 141.548774 
L 250.027154 103.845762 
L 251.658584 133.10196 
L 253.290014 143.342825 
L 254.921444 141.297693 
L 256.552873 166.877909 
L 258.184303 104.088981 
L 259.815733 90.346944 
L 261.447163 157.877714 
L 263.078593 122.75999 
L 264.710023 116.893703 
L 266.341453 161.350776 
L 267.972883 214.621517 
L 269.604312 111.567895 
L 271.235742 144.465698 
L 272.867172 130.774365 
L 274.498602 107.548861 
L 276.130032 136.906034 
L 277.761462 99.225229 
L 279.392892 106.764539 
L 281.024322 113.436816 
L 282.655751 133.685258 
L 284.287181 95.565746 
L 285.918611 116.734379 
L 287.550041 129.194972 
L 289.181471 134.95044 
L 290.812901 134.447611 
L 292.444331 109.164311 
L 294.075761 141.279234 
L 295.70719 105.049988 
L 297.33862 81.267291 
L 298.97005 127.335829 
L 300.60148 120.173797 
L 302.23291 91.937602 
L 303.86434 96.917988 
L 305.49577 168.445348 
L 307.1272 110.040088 
L 308.75863 140.762857 
L 310.390059 162.426996 
L 312.021489 133.999728 
L 313.652919 140.626903 
L 315.284349 152.253591 
L 316.915779 186.28243 
L 318.547209 168.119183 
L 320.178639 187.840026 
L 321.810069 123.557106 
L 323.441498 132.810149 
L 325.072928 90.902005 
L 326.704358 122.969091 
L 328.335788 126.474935 
L 329.967218 98.0596 
L 331.598648 118.677674 
L 333.230078 107.240573 
L 334.861508 140.842961 
L 336.492937 132.90296 
L 338.124367 123.641216 
L 339.755797 117.345829 
L 341.387227 110.074443 
L 343.018657 150.133524 
L 344.650087 124.704793 
L 346.281517 133.288703 
L 347.912947 125.519248 
L 349.544376 96.264386 
L 351.175806 146.453299 
L 352.807236 145.120679 
L 354.438666 181.316605 
L 356.070096 122.453597 
L 357.701526 196.629268 
L 359.332956 134.420989 
L 360.964386 176.825693 
L 362.595815 147.739116 
L 364.227245 106.060277 
L 365.858675 165.097708 
L 367.490105 158.88503 
L 369.121535 104.31947 
L 370.752965 126.004587 
L 372.384395 155.556688 
L 374.015825 122.559009 
L 375.647254 97.010606 
L 377.278684 149.778604 
L 378.910114 147.512094 
L 380.541544 125.968359 
L 382.172974 168.990738 
L 383.804404 129.669067 
L 385.435834 142.499443 
L 387.067264 87.534096 
L 388.698693 161.09976 
L 390.330123 161.899397 
L 391.961553 124.29232 
L 393.592983 99.643215 
L 395.224413 160.706371 
L 396.855843 144.382299 
L 398.487273 152.566854 
L 398.487273 152.566854 
" clip-path="url(#pd30940f4a3)" style="fill: none; stroke: #008000; stroke-width: 1.5; stroke-linecap: square"/>
   </g>
   <g id="line2d_16">
    <path d="M 73.832727 265.250688 
L 75.464157 239.518364 
L 77.095587 247.60231 
L 78.727017 237.878812 
L 80.358447 130.106461 
L 81.989877 122.024324 
L 83.621307 150.414157 
L 85.252736 147.213003 
L 86.884166 156.616366 
L 88.515596 97.614238 
L 90.147026 102.823498 
L 91.778456 139.867566 
L 95.041316 163.452362 
L 96.672746 137.618524 
L 98.304175 165.099108 
L 99.935605 89.252783 
L 101.567035 141.490403 
L 103.198465 111.808206 
L 104.829895 91.979991 
L 106.461325 101.029963 
L 108.092755 140.484982 
L 109.724185 128.338342 
L 111.355614 136.485204 
L 112.987044 130.72812 
L 114.618474 99.890182 
L 116.249904 127.892506 
L 117.881334 187.375386 
L 119.512764 83.529709 
L 121.144194 106.835919 
L 122.775624 135.014023 
L 124.407053 99.670958 
L 126.038483 140.736515 
L 127.669913 53.568 
L 129.301343 128.809423 
L 130.932773 116.901672 
L 132.564203 106.332983 
L 134.195633 121.362817 
L 135.827063 70.684903 
L 137.458492 175.908259 
L 139.089922 119.40117 
L 140.721352 103.883994 
L 142.352782 100.997353 
L 143.984212 168.652425 
L 145.615642 120.751754 
L 147.247072 90.361138 
L 148.878502 124.502326 
L 150.509931 100.198384 
L 152.141361 160.578106 
L 153.772791 115.561513 
L 155.404221 101.663017 
L 157.035651 96.29131 
L 158.667081 107.80244 
L 160.298511 85.98867 
L 161.929941 190.298169 
L 163.56137 115.885547 
L 165.1928 133.606921 
L 166.82423 155.863706 
L 168.45566 78.915142 
L 170.08709 108.880297 
L 171.71852 147.030481 
L 173.34995 151.894772 
L 174.98138 88.461158 
L 176.61281 188.878401 
L 178.244239 182.704279 
L 179.875669 136.29243 
L 181.507099 65.509847 
L 183.138529 109.566294 
L 184.769959 126.770236 
L 186.401389 167.693808 
L 188.032819 153.302542 
L 189.664249 131.524893 
L 191.295678 130.092417 
L 192.927108 105.274188 
L 194.558538 129.070088 
L 196.189968 134.490021 
L 197.821398 179.03786 
L 199.452828 143.145743 
L 201.084258 146.073114 
L 202.715688 186.909281 
L 204.347117 130.16593 
L 205.978547 78.636211 
L 207.609977 122.389927 
L 209.241407 160.00995 
L 210.872837 178.397526 
L 212.504267 144.061798 
L 214.135697 120.195401 
L 215.767127 117.592839 
L 217.398556 143.583395 
L 219.029986 126.869445 
L 220.661416 117.334909 
L 222.292846 206.078122 
L 223.924276 175.042476 
L 225.555706 91.187893 
L 227.187136 134.413752 
L 228.818566 99.797499 
L 230.449995 151.505583 
L 232.081425 163.399721 
L 233.712855 127.268391 
L 235.344285 124.275455 
L 236.975715 106.687838 
L 238.607145 170.093688 
L 240.238575 133.303393 
L 241.870005 83.484778 
L 243.501434 111.801335 
L 245.132864 98.629265 
L 246.764294 135.119284 
L 248.395724 175.668551 
L 250.027154 117.109632 
L 251.658584 131.531096 
L 253.290014 114.777298 
L 254.921444 100.981608 
L 256.552873 99.307615 
L 258.184303 115.009985 
L 259.815733 133.398186 
L 261.447163 194.425243 
L 263.078593 145.272874 
L 264.710023 120.53925 
L 266.341453 160.668807 
L 267.972883 116.578414 
L 269.604312 131.277107 
L 271.235742 87.504222 
L 272.867172 101.66278 
L 274.498602 121.419464 
L 276.130032 114.060371 
L 277.761462 129.211061 
L 279.392892 130.573707 
L 281.024322 84.544499 
L 282.655751 110.91369 
L 284.287181 97.226643 
L 285.918611 123.831923 
L 287.550041 169.638676 
L 289.181471 157.885683 
L 290.812901 142.898044 
L 292.444331 139.340785 
L 294.075761 131.663798 
L 295.70719 128.285033 
L 297.33862 106.210705 
L 298.97005 124.742486 
L 300.60148 95.008359 
L 302.23291 143.358678 
L 303.86434 117.084733 
L 305.49577 93.031979 
L 307.1272 132.952543 
L 308.75863 124.366436 
L 310.390059 132.194326 
L 312.021489 179.077277 
L 313.652919 106.630587 
L 315.284349 118.329775 
L 316.915779 108.436937 
L 318.547209 110.038904 
L 320.178639 97.450713 
L 321.810069 121.161922 
L 323.441498 150.936758 
L 325.072928 148.688147 
L 326.704358 106.207841 
L 328.335788 168.849895 
L 329.967218 155.490348 
L 331.598648 92.84586 
L 333.230078 124.404861 
L 334.861508 159.358566 
L 336.492937 151.053844 
L 338.124367 119.273422 
L 339.755797 119.057666 
L 341.387227 171.05588 
L 343.018657 179.337899 
L 344.650087 133.47325 
L 346.281517 81.209868 
L 347.912947 101.301484 
L 349.544376 132.67189 
L 351.175806 92.792121 
L 352.807236 165.469148 
L 354.438666 186.340112 
L 356.070096 99.784576 
L 357.701526 127.144972 
L 359.332956 162.642623 
L 360.964386 175.560361 
L 362.595815 154.463302 
L 364.227245 161.766394 
L 365.858675 142.59247 
L 367.490105 130.843591 
L 369.121535 208.629938 
L 370.752965 124.057588 
L 372.384395 143.713598 
L 374.015825 166.305359 
L 375.647254 130.47116 
L 377.278684 148.110772 
L 378.910114 206.512284 
L 383.804404 110.166092 
L 385.435834 176.751491 
L 387.067264 134.651263 
L 390.330123 184.863223 
L 391.961553 152.63033 
L 393.592983 172.577441 
L 395.224413 165.067402 
L 396.855843 129.340274 
L 398.487273 99.717654 
L 398.487273 99.717654 
" clip-path="url(#pd30940f4a3)" style="fill: none; stroke: #0000ff; stroke-width: 1.5; stroke-linecap: square"/>
   </g>
   <g id="line2d_17">
    <path d="M 73.832727 274.777104 
L 75.464157 284.166671 
L 77.095587 295.488 
L 78.727017 244.487162 
L 80.358447 241.308258 
L 81.989877 246.734674 
L 83.621307 237.725433 
L 85.252736 213.324501 
L 86.884166 258.488076 
L 88.515596 181.562387 
L 90.147026 155.343409 
L 91.778456 162.206092 
L 93.409886 259.062156 
L 95.041316 264.167296 
L 96.672746 180.986153 
L 98.304175 245.721284 
L 99.935605 237.211296 
L 101.567035 158.132585 
L 103.198465 203.083807 
L 104.829895 230.201609 
L 106.461325 181.170268 
L 108.092755 150.936866 
L 109.724185 223.855713 
L 111.355614 245.523965 
L 112.987044 224.618388 
L 114.618474 209.091045 
L 116.249904 192.013818 
L 117.881334 182.282889 
L 119.512764 162.020317 
L 121.144194 115.373413 
L 122.775624 203.568285 
L 124.407053 171.888902 
L 126.038483 161.518479 
L 127.669913 136.788108 
L 129.301343 127.071136 
L 130.932773 180.690508 
L 132.564203 212.512608 
L 134.195633 184.390355 
L 135.827063 142.032799 
L 137.458492 217.229292 
L 139.089922 171.145267 
L 140.721352 209.892642 
L 142.352782 181.814006 
L 143.984212 137.604373 
L 145.615642 142.485313 
L 147.247072 104.235619 
L 148.878502 127.098361 
L 150.509931 85.723848 
L 152.141361 134.140141 
L 153.772791 124.44738 
L 155.404221 249.596524 
L 157.035651 194.049386 
L 158.667081 152.563451 
L 160.298511 126.59452 
L 161.929941 142.434632 
L 163.56137 131.036107 
L 165.1928 102.613815 
L 166.82423 141.190407 
L 168.45566 110.720722 
L 170.08709 92.874163 
L 171.71852 111.777039 
L 173.34995 106.744981 
L 174.98138 119.029471 
L 176.61281 102.352094 
L 178.244239 128.90413 
L 179.875669 133.607632 
L 181.507099 116.637798 
L 183.138529 98.009608 
L 184.769959 191.574551 
L 186.401389 103.511153 
L 188.032819 131.60099 
L 189.664249 118.519793 
L 191.295678 135.268248 
L 192.927108 120.892749 
L 194.558538 138.156203 
L 196.189968 85.713207 
L 197.821398 145.813892 
L 199.452828 90.200371 
L 201.084258 119.216021 
L 202.715688 133.211162 
L 204.347117 165.473952 
L 205.978547 104.544467 
L 207.609977 161.352306 
L 209.241407 120.608046 
L 210.872837 108.412577 
L 212.504267 169.456326 
L 214.135697 93.118243 
L 215.767127 119.160321 
L 217.398556 120.575931 
L 219.029986 122.840632 
L 220.661416 129.909378 
L 222.292846 97.618244 
L 223.924276 159.493723 
L 225.555706 153.27159 
L 227.187136 116.507745 
L 228.818566 91.472057 
L 230.449995 123.24311 
L 232.081425 145.359418 
L 233.712855 151.253318 
L 235.344285 161.110788 
L 236.975715 91.512895 
L 238.607145 171.184619 
L 240.238575 177.738152 
L 241.870005 99.107367 
L 243.501434 171.069729 
L 245.132864 158.99391 
L 246.764294 140.819828 
L 248.395724 161.879667 
L 250.027154 118.292319 
L 251.658584 94.021397 
L 253.290014 126.875454 
L 254.921444 114.915062 
L 256.552873 150.606974 
L 258.184303 89.386454 
L 259.815733 91.84884 
L 261.447163 153.81922 
L 263.078593 188.00844 
L 264.710023 130.499785 
L 266.341453 124.798703 
L 267.972883 122.815582 
L 269.604312 161.781256 
L 271.235742 110.950543 
L 272.867172 145.619136 
L 274.498602 105.95368 
L 276.130032 92.666397 
L 277.761462 212.352142 
L 279.392892 194.435883 
L 281.024322 156.508305 
L 282.655751 131.705282 
L 284.287181 190.726063 
L 285.918611 164.217386 
L 287.550041 193.768646 
L 289.181471 163.949268 
L 290.812901 147.06307 
L 292.444331 120.826387 
L 294.075761 89.714386 
L 295.70719 176.634103 
L 297.33862 151.352893 
L 298.97005 166.283776 
L 300.60148 183.453363 
L 302.23291 164.130303 
L 303.86434 149.240925 
L 305.49577 156.683611 
L 307.1272 176.032561 
L 308.75863 80.196844 
L 310.390059 169.438083 
L 312.021489 100.389435 
L 313.652919 129.093544 
L 315.284349 160.982093 
L 316.915779 147.023158 
L 318.547209 113.782281 
L 320.178639 144.473603 
L 321.810069 145.560657 
L 323.441498 132.005385 
L 325.072928 108.702126 
L 326.704358 126.343978 
L 328.335788 95.662908 
L 329.967218 129.259632 
L 331.598648 131.526982 
L 333.230078 86.97938 
L 333.230078 86.97938 
" clip-path="url(#pd30940f4a3)" style="fill: none; stroke: #ff0000; stroke-width: 1.5; stroke-linecap: square"/>
   </g>
   <g id="patch_3">
    <path d="M 57.6 307.584 
L 57.6 41.472 
" style="fill: none; stroke: #000000; stroke-width: 0.8; stroke-linejoin: miter; stroke-linecap: square"/>
   </g>
   <g id="patch_4">
    <path d="M 414.72 307.584 
L 414.72 41.472 
" style="fill: none; stroke: #000000; stroke-width: 0.8; stroke-linejoin: miter; stroke-linecap: square"/>
   </g>
   <g id="patch_5">
    <path d="M 57.6 307.584 
L 414.72 307.584 
" style="fill: none; stroke: #000000; stroke-width: 0.8; stroke-linejoin: miter; stroke-linecap: square"/>
   </g>
   <g id="patch_6">
    <path d="M 57.6 41.472 
L 414.72 41.472 
" style="fill: none; stroke: #000000; stroke-width: 0.8; stroke-linejoin: miter; stroke-linecap: square"/>
   </g>
   <g id="text_17">
    <!-- The relation between mAP and total epochs of host/4 -->
    <g transform="translate(76.392188 35.472) scale(0.12 -0.12)">
     <defs>
      <path id="DejaVuSans-54" d="M -19 4666 
L 3928 4666 
L 3928 4134 
L 2272 4134 
L 2272 0 
L 1638 0 
L 1638 4134 
L -19 4134 
L -19 4666 
z
" transform="scale(0.015625)"/>
      <path id="DejaVuSans-72" d="M 2631 2963 
Q 2534 3019 2420 3045 
Q 2306 3072 2169 3072 
Q 1681 3072 1420 2755 
Q 1159 2438 1159 1844 
L 1159 0 
L 581 0 
L 581 3500 
L 1159 3500 
L 1159 2956 
Q 1341 3275 1631 3429 
Q 1922 3584 2338 3584 
Q 2397 3584 2469 3576 
Q 2541 3569 2628 3553 
L 2631 2963 
z
" transform="scale(0.015625)"/>
      <path id="DejaVuSans-74" d="M 1172 4494 
L 1172 3500 
L 2356 3500 
L 2356 3053 
L 1172 3053 
L 1172 1153 
Q 1172 725 1289 603 
Q 1406 481 1766 481 
L 2356 481 
L 2356 0 
L 1766 0 
Q 1100 0 847 248 
Q 594 497 594 1153 
L 594 3053 
L 172 3053 
L 172 3500 
L 594 3500 
L 594 4494 
L 1172 4494 
z
" transform="scale(0.015625)"/>
      <path id="DejaVuSans-6e" d="M 3513 2113 
L 3513 0 
L 2938 0 
L 2938 2094 
Q 2938 2591 2744 2837 
Q 2550 3084 2163 3084 
Q 1697 3084 1428 2787 
Q 1159 2491 1159 1978 
L 1159 0 
L 581 0 
L 581 3500 
L 1159 3500 
L 1159 2956 
Q 1366 3272 1645 3428 
Q 1925 3584 2291 3584 
Q 2894 3584 3203 3211 
Q 3513 2838 3513 2113 
z
" transform="scale(0.015625)"/>
      <path id="DejaVuSans-62" d="M 3116 1747 
Q 3116 2381 2855 2742 
Q 2594 3103 2138 3103 
Q 1681 3103 1420 2742 
Q 1159 2381 1159 1747 
Q 1159 1113 1420 752 
Q 1681 391 2138 391 
Q 2594 391 2855 752 
Q 3116 1113 3116 1747 
z
M 1159 2969 
Q 1341 3281 1617 3432 
Q 1894 3584 2278 3584 
Q 2916 3584 3314 3078 
Q 3713 2572 3713 1747 
Q 3713 922 3314 415 
Q 2916 -91 2278 -91 
Q 1894 -91 1617 61 
Q 1341 213 1159 525 
L 1159 0 
L 581 0 
L 581 4863 
L 1159 4863 
L 1159 2969 
z
" transform="scale(0.015625)"/>
      <path id="DejaVuSans-77" d="M 269 3500 
L 844 3500 
L 1563 769 
L 2278 3500 
L 2956 3500 
L 3675 769 
L 4391 3500 
L 4966 3500 
L 4050 0 
L 3372 0 
L 2619 2869 
L 1863 0 
L 1184 0 
L 269 3500 
z
" transform="scale(0.015625)"/>
      <path id="DejaVuSans-73" d="M 2834 3397 
L 2834 2853 
Q 2591 2978 2328 3040 
Q 2066 3103 1784 3103 
Q 1356 3103 1142 2972 
Q 928 2841 928 2578 
Q 928 2378 1081 2264 
Q 1234 2150 1697 2047 
L 1894 2003 
Q 2506 1872 2764 1633 
Q 3022 1394 3022 966 
Q 3022 478 2636 193 
Q 2250 -91 1575 -91 
Q 1294 -91 989 -36 
Q 684 19 347 128 
L 347 722 
Q 666 556 975 473 
Q 1284 391 1588 391 
Q 1994 391 2212 530 
Q 2431 669 2431 922 
Q 2431 1156 2273 1281 
Q 2116 1406 1581 1522 
L 1381 1569 
Q 847 1681 609 1914 
Q 372 2147 372 2553 
Q 372 3047 722 3315 
Q 1072 3584 1716 3584 
Q 2034 3584 2315 3537 
Q 2597 3491 2834 3397 
z
" transform="scale(0.015625)"/>
      <path id="DejaVuSans-66" d="M 2375 4863 
L 2375 4384 
L 1825 4384 
Q 1516 4384 1395 4259 
Q 1275 4134 1275 3809 
L 1275 3500 
L 2222 3500 
L 2222 3053 
L 1275 3053 
L 1275 0 
L 697 0 
L 697 3053 
L 147 3053 
L 147 3500 
L 697 3500 
L 697 3744 
Q 697 4328 969 4595 
Q 1241 4863 1831 4863 
L 2375 4863 
z
" transform="scale(0.015625)"/>
      <path id="DejaVuSans-2f" d="M 1625 4666 
L 2156 4666 
L 531 -594 
L 0 -594 
L 1625 4666 
z
" transform="scale(0.015625)"/>
     </defs>
     <use xlink:href="#DejaVuSans-54"/>
     <use xlink:href="#DejaVuSans-68" x="61.083984"/>
     <use xlink:href="#DejaVuSans-65" x="124.462891"/>
     <use xlink:href="#DejaVuSans-20" x="185.986328"/>
     <use xlink:href="#DejaVuSans-72" x="217.773438"/>
     <use xlink:href="#DejaVuSans-65" x="256.636719"/>
     <use xlink:href="#DejaVuSans-6c" x="318.160156"/>
     <use xlink:href="#DejaVuSans-61" x="345.943359"/>
     <use xlink:href="#DejaVuSans-74" x="407.222656"/>
     <use xlink:href="#DejaVuSans-69" x="446.431641"/>
     <use xlink:href="#DejaVuSans-6f" x="474.214844"/>
     <use xlink:href="#DejaVuSans-6e" x="535.396484"/>
     <use xlink:href="#DejaVuSans-20" x="598.775391"/>
     <use xlink:href="#DejaVuSans-62" x="630.5625"/>
     <use xlink:href="#DejaVuSans-65" x="694.039062"/>
     <use xlink:href="#DejaVuSans-74" x="755.5625"/>
     <use xlink:href="#DejaVuSans-77" x="794.771484"/>
     <use xlink:href="#DejaVuSans-65" x="876.558594"/>
     <use xlink:href="#DejaVuSans-65" x="938.082031"/>
     <use xlink:href="#DejaVuSans-6e" x="999.605469"/>
     <use xlink:href="#DejaVuSans-20" x="1062.984375"/>
     <use xlink:href="#DejaVuSans-6d" x="1094.771484"/>
     <use xlink:href="#DejaVuSans-41" x="1192.183594"/>
     <use xlink:href="#DejaVuSans-50" x="1260.591797"/>
     <use xlink:href="#DejaVuSans-20" x="1320.894531"/>
     <use xlink:href="#DejaVuSans-61" x="1352.681641"/>
     <use xlink:href="#DejaVuSans-6e" x="1413.960938"/>
     <use xlink:href="#DejaVuSans-64" x="1477.339844"/>
     <use xlink:href="#DejaVuSans-20" x="1540.816406"/>
     <use xlink:href="#DejaVuSans-74" x="1572.603516"/>
     <use xlink:href="#DejaVuSans-6f" x="1611.8125"/>
     <use xlink:href="#DejaVuSans-74" x="1672.994141"/>
     <use xlink:href="#DejaVuSans-61" x="1712.203125"/>
     <use xlink:href="#DejaVuSans-6c" x="1773.482422"/>
     <use xlink:href="#DejaVuSans-20" x="1801.265625"/>
     <use xlink:href="#DejaVuSans-65" x="1833.052734"/>
     <use xlink:href="#DejaVuSans-70" x="1894.576172"/>
     <use xlink:href="#DejaVuSans-6f" x="1958.052734"/>
     <use xlink:href="#DejaVuSans-63" x="2019.234375"/>
     <use xlink:href="#DejaVuSans-68" x="2074.214844"/>
     <use xlink:href="#DejaVuSans-73" x="2137.59375"/>
     <use xlink:href="#DejaVuSans-20" x="2189.693359"/>
     <use xlink:href="#DejaVuSans-6f" x="2221.480469"/>
     <use xlink:href="#DejaVuSans-66" x="2282.662109"/>
     <use xlink:href="#DejaVuSans-20" x="2317.867188"/>
     <use xlink:href="#DejaVuSans-68" x="2349.654297"/>
     <use xlink:href="#DejaVuSans-6f" x="2413.033203"/>
     <use xlink:href="#DejaVuSans-73" x="2474.214844"/>
     <use xlink:href="#DejaVuSans-74" x="2526.314453"/>
     <use xlink:href="#DejaVuSans-2f" x="2565.523438"/>
     <use xlink:href="#DejaVuSans-34" x="2599.214844"/>
    </g>
   </g>
   <g id="legend_1">
    <g id="patch_7">
     <path d="M 279.42625 302.584 
L 407.72 302.584 
Q 409.72 302.584 409.72 300.584 
L 409.72 257.549625 
Q 409.72 255.549625 407.72 255.549625 
L 279.42625 255.549625 
Q 277.42625 255.549625 277.42625 257.549625 
L 277.42625 300.584 
Q 277.42625 302.584 279.42625 302.584 
z
" style="fill: #ffffff; opacity: 0.8; stroke: #cccccc; stroke-linejoin: miter"/>
    </g>
    <g id="line2d_18">
     <path d="M 281.42625 263.648062 
L 291.42625 263.648062 
L 301.42625 263.648062 
" style="fill: none; stroke: #008000; stroke-width: 1.5; stroke-linecap: square"/>
    </g>
    <g id="text_18">
     <!-- FPSL -->
     <g transform="translate(309.42625 267.148062) scale(0.1 -0.1)">
      <defs>
       <path id="DejaVuSans-46" d="M 628 4666 
L 3309 4666 
L 3309 4134 
L 1259 4134 
L 1259 2759 
L 3109 2759 
L 3109 2228 
L 1259 2228 
L 1259 0 
L 628 0 
L 628 4666 
z
" transform="scale(0.015625)"/>
       <path id="DejaVuSans-53" d="M 3425 4513 
L 3425 3897 
Q 3066 4069 2747 4153 
Q 2428 4238 2131 4238 
Q 1616 4238 1336 4038 
Q 1056 3838 1056 3469 
Q 1056 3159 1242 3001 
Q 1428 2844 1947 2747 
L 2328 2669 
Q 3034 2534 3370 2195 
Q 3706 1856 3706 1288 
Q 3706 609 3251 259 
Q 2797 -91 1919 -91 
Q 1588 -91 1214 -16 
Q 841 59 441 206 
L 441 856 
Q 825 641 1194 531 
Q 1563 422 1919 422 
Q 2459 422 2753 634 
Q 3047 847 3047 1241 
Q 3047 1584 2836 1778 
Q 2625 1972 2144 2069 
L 1759 2144 
Q 1053 2284 737 2584 
Q 422 2884 422 3419 
Q 422 4038 858 4394 
Q 1294 4750 2059 4750 
Q 2388 4750 2728 4690 
Q 3069 4631 3425 4513 
z
" transform="scale(0.015625)"/>
       <path id="DejaVuSans-4c" d="M 628 4666 
L 1259 4666 
L 1259 531 
L 3531 531 
L 3531 0 
L 628 0 
L 628 4666 
z
" transform="scale(0.015625)"/>
      </defs>
      <use xlink:href="#DejaVuSans-46"/>
      <use xlink:href="#DejaVuSans-50" x="57.519531"/>
      <use xlink:href="#DejaVuSans-53" x="117.822266"/>
      <use xlink:href="#DejaVuSans-4c" x="181.298828"/>
     </g>
    </g>
    <g id="line2d_19">
     <path d="M 281.42625 278.326188 
L 291.42625 278.326188 
L 301.42625 278.326188 
" style="fill: none; stroke: #0000ff; stroke-width: 1.5; stroke-linecap: square"/>
    </g>
    <g id="text_19">
     <!-- FPSL Weight Decay -->
     <g transform="translate(309.42625 281.826188) scale(0.1 -0.1)">
      <defs>
       <path id="DejaVuSans-57" d="M 213 4666 
L 850 4666 
L 1831 722 
L 2809 4666 
L 3519 4666 
L 4500 722 
L 5478 4666 
L 6119 4666 
L 4947 0 
L 4153 0 
L 3169 4050 
L 2175 0 
L 1381 0 
L 213 4666 
z
" transform="scale(0.015625)"/>
       <path id="DejaVuSans-67" d="M 2906 1791 
Q 2906 2416 2648 2759 
Q 2391 3103 1925 3103 
Q 1463 3103 1205 2759 
Q 947 2416 947 1791 
Q 947 1169 1205 825 
Q 1463 481 1925 481 
Q 2391 481 2648 825 
Q 2906 1169 2906 1791 
z
M 3481 434 
Q 3481 -459 3084 -895 
Q 2688 -1331 1869 -1331 
Q 1566 -1331 1297 -1286 
Q 1028 -1241 775 -1147 
L 775 -588 
Q 1028 -725 1275 -790 
Q 1522 -856 1778 -856 
Q 2344 -856 2625 -561 
Q 2906 -266 2906 331 
L 2906 616 
Q 2728 306 2450 153 
Q 2172 0 1784 0 
Q 1141 0 747 490 
Q 353 981 353 1791 
Q 353 2603 747 3093 
Q 1141 3584 1784 3584 
Q 2172 3584 2450 3431 
Q 2728 3278 2906 2969 
L 2906 3500 
L 3481 3500 
L 3481 434 
z
" transform="scale(0.015625)"/>
       <path id="DejaVuSans-44" d="M 1259 4147 
L 1259 519 
L 2022 519 
Q 2988 519 3436 956 
Q 3884 1394 3884 2338 
Q 3884 3275 3436 3711 
Q 2988 4147 2022 4147 
L 1259 4147 
z
M 628 4666 
L 1925 4666 
Q 3281 4666 3915 4102 
Q 4550 3538 4550 2338 
Q 4550 1131 3912 565 
Q 3275 0 1925 0 
L 628 0 
L 628 4666 
z
" transform="scale(0.015625)"/>
       <path id="DejaVuSans-79" d="M 2059 -325 
Q 1816 -950 1584 -1140 
Q 1353 -1331 966 -1331 
L 506 -1331 
L 506 -850 
L 844 -850 
Q 1081 -850 1212 -737 
Q 1344 -625 1503 -206 
L 1606 56 
L 191 3500 
L 800 3500 
L 1894 763 
L 2988 3500 
L 3597 3500 
L 2059 -325 
z
" transform="scale(0.015625)"/>
      </defs>
      <use xlink:href="#DejaVuSans-46"/>
      <use xlink:href="#DejaVuSans-50" x="57.519531"/>
      <use xlink:href="#DejaVuSans-53" x="117.822266"/>
      <use xlink:href="#DejaVuSans-4c" x="181.298828"/>
      <use xlink:href="#DejaVuSans-20" x="237.011719"/>
      <use xlink:href="#DejaVuSans-57" x="268.798828"/>
      <use xlink:href="#DejaVuSans-65" x="361.800781"/>
      <use xlink:href="#DejaVuSans-69" x="423.324219"/>
      <use xlink:href="#DejaVuSans-67" x="451.107422"/>
      <use xlink:href="#DejaVuSans-68" x="514.583984"/>
      <use xlink:href="#DejaVuSans-74" x="577.962891"/>
      <use xlink:href="#DejaVuSans-20" x="617.171875"/>
      <use xlink:href="#DejaVuSans-44" x="648.958984"/>
      <use xlink:href="#DejaVuSans-65" x="725.960938"/>
      <use xlink:href="#DejaVuSans-63" x="787.484375"/>
      <use xlink:href="#DejaVuSans-61" x="842.464844"/>
      <use xlink:href="#DejaVuSans-79" x="903.744141"/>
     </g>
    </g>
    <g id="line2d_20">
     <path d="M 281.42625 293.004312 
L 291.42625 293.004312 
L 301.42625 293.004312 
" style="fill: none; stroke: #ff0000; stroke-width: 1.5; stroke-linecap: square"/>
    </g>
    <g id="text_20">
     <!-- Interactive -->
     <g transform="translate(309.42625 296.504312) scale(0.1 -0.1)">
      <defs>
       <path id="DejaVuSans-49" d="M 628 4666 
L 1259 4666 
L 1259 0 
L 628 0 
L 628 4666 
z
" transform="scale(0.015625)"/>
      </defs>
      <use xlink:href="#DejaVuSans-49"/>
      <use xlink:href="#DejaVuSans-6e" x="29.492188"/>
      <use xlink:href="#DejaVuSans-74" x="92.871094"/>
      <use xlink:href="#DejaVuSans-65" x="132.080078"/>
      <use xlink:href="#DejaVuSans-72" x="193.603516"/>
      <use xlink:href="#DejaVuSans-61" x="234.716797"/>
      <use xlink:href="#DejaVuSans-63" x="295.996094"/>
      <use xlink:href="#DejaVuSans-74" x="350.976562"/>
      <use xlink:href="#DejaVuSans-69" x="390.185547"/>
      <use xlink:href="#DejaVuSans-76" x="417.96875"/>
      <use xlink:href="#DejaVuSans-65" x="477.148438"/>
     </g>
    </g>
   </g>
  </g>
 </g>
 <defs>
  <clipPath id="pd30940f4a3">
   <rect x="57.6" y="41.472" width="357.12" height="266.112"/>
  </clipPath>
 </defs>
</svg>
