<?xml version="1.0" encoding="utf-8" standalone="no"?>
<!DOCTYPE svg PUBLIC "-//W3C//DTD SVG 1.1//EN"
  "http://www.w3.org/Graphics/SVG/1.1/DTD/svg11.dtd">
<svg xmlns:xlink="http://www.w3.org/1999/xlink" width="460.8pt" height="345.6pt" viewBox="0 0 460.8 345.6" xmlns="http://www.w3.org/2000/svg" version="1.1">
 <metadata>
  <rdf:RDF xmlns:dc="http://purl.org/dc/elements/1.1/" xmlns:cc="http://creativecommons.org/ns#" xmlns:rdf="http://www.w3.org/1999/02/22-rdf-syntax-ns#">
   <cc:Work>
    <dc:type rdf:resource="http://purl.org/dc/dcmitype/StillImage"/>
    <dc:date>2023-10-19T23:25:37.057459</dc:date>
    <dc:format>image/svg+xml</dc:format>
    <dc:creator>
     <cc:Agent>
      <dc:title>Matplotlib v3.7.1, https://matplotlib.org/</dc:title>
     </cc:Agent>
    </dc:creator>
   </cc:Work>
  </rdf:RDF>
 </metadata>
 <defs>
  <style type="text/css">*{stroke-linejoin: round; stroke-linecap: butt}</style>
 </defs>
 <g id="figure_1">
  <g id="patch_1">
   <path d="M 0 345.6 
L 460.8 345.6 
L 460.8 0 
L 0 0 
z
" style="fill: #ffffff"/>
  </g>
  <g id="axes_1">
   <g id="patch_2">
    <path d="M 57.6 307.584 
L 414.72 307.584 
L 414.72 41.472 
L 57.6 41.472 
z
" style="fill: #ffffff"/>
   </g>
   <g id="matplotlib.axis_1">
    <g id="xtick_1">
     <g id="line2d_1">
      <defs>
       <path id="m42631076da" d="M 0 0 
L 0 3.5 
" style="stroke: #000000; stroke-width: 0.8"/>
      </defs>
      <g>
       <use xlink:href="#m42631076da" x="73.832727" y="307.584" style="stroke: #000000; stroke-width: 0.8"/>
      </g>
     </g>
     <g id="text_1">
      <!-- 0 -->
      <g transform="translate(70.651477 322.182437) scale(0.1 -0.1)">
       <defs>
        <path id="DejaVuSans-30" d="M 2034 4250 
Q 1547 4250 1301 3770 
Q 1056 3291 1056 2328 
Q 1056 1369 1301 889 
Q 1547 409 2034 409 
Q 2525 409 2770 889 
Q 3016 1369 3016 2328 
Q 3016 3291 2770 3770 
Q 2525 4250 2034 4250 
z
M 2034 4750 
Q 2819 4750 3233 4129 
Q 3647 3509 3647 2328 
Q 3647 1150 3233 529 
Q 2819 -91 2034 -91 
Q 1250 -91 836 529 
Q 422 1150 422 2328 
Q 422 3509 836 4129 
Q 1250 4750 2034 4750 
z
" transform="scale(0.015625)"/>
       </defs>
       <use xlink:href="#DejaVuSans-30"/>
      </g>
     </g>
    </g>
    <g id="xtick_2">
     <g id="line2d_2">
      <g>
       <use xlink:href="#m42631076da" x="114.618474" y="307.584" style="stroke: #000000; stroke-width: 0.8"/>
      </g>
     </g>
     <g id="text_2">
      <!-- 25 -->
      <g transform="translate(108.255974 322.182437) scale(0.1 -0.1)">
       <defs>
        <path id="DejaVuSans-32" d="M 1228 531 
L 3431 531 
L 3431 0 
L 469 0 
L 469 531 
Q 828 903 1448 1529 
Q 2069 2156 2228 2338 
Q 2531 2678 2651 2914 
Q 2772 3150 2772 3378 
Q 2772 3750 2511 3984 
Q 2250 4219 1831 4219 
Q 1534 4219 1204 4116 
Q 875 4013 500 3803 
L 500 4441 
Q 881 4594 1212 4672 
Q 1544 4750 1819 4750 
Q 2544 4750 2975 4387 
Q 3406 4025 3406 3419 
Q 3406 3131 3298 2873 
Q 3191 2616 2906 2266 
Q 2828 2175 2409 1742 
Q 1991 1309 1228 531 
z
" transform="scale(0.015625)"/>
        <path id="DejaVuSans-35" d="M 691 4666 
L 3169 4666 
L 3169 4134 
L 1269 4134 
L 1269 2991 
Q 1406 3038 1543 3061 
Q 1681 3084 1819 3084 
Q 2600 3084 3056 2656 
Q 3513 2228 3513 1497 
Q 3513 744 3044 326 
Q 2575 -91 1722 -91 
Q 1428 -91 1123 -41 
Q 819 9 494 109 
L 494 744 
Q 775 591 1075 516 
Q 1375 441 1709 441 
Q 2250 441 2565 725 
Q 2881 1009 2881 1497 
Q 2881 1984 2565 2268 
Q 2250 2553 1709 2553 
Q 1456 2553 1204 2497 
Q 953 2441 691 2322 
L 691 4666 
z
" transform="scale(0.015625)"/>
       </defs>
       <use xlink:href="#DejaVuSans-32"/>
       <use xlink:href="#DejaVuSans-35" x="63.623047"/>
      </g>
     </g>
    </g>
    <g id="xtick_3">
     <g id="line2d_3">
      <g>
       <use xlink:href="#m42631076da" x="155.404221" y="307.584" style="stroke: #000000; stroke-width: 0.8"/>
      </g>
     </g>
     <g id="text_3">
      <!-- 50 -->
      <g transform="translate(149.041721 322.182437) scale(0.1 -0.1)">
       <use xlink:href="#DejaVuSans-35"/>
       <use xlink:href="#DejaVuSans-30" x="63.623047"/>
      </g>
     </g>
    </g>
    <g id="xtick_4">
     <g id="line2d_4">
      <g>
       <use xlink:href="#m42631076da" x="196.189968" y="307.584" style="stroke: #000000; stroke-width: 0.8"/>
      </g>
     </g>
     <g id="text_4">
      <!-- 75 -->
      <g transform="translate(189.827468 322.182437) scale(0.1 -0.1)">
       <defs>
        <path id="DejaVuSans-37" d="M 525 4666 
L 3525 4666 
L 3525 4397 
L 1831 0 
L 1172 0 
L 2766 4134 
L 525 4134 
L 525 4666 
z
" transform="scale(0.015625)"/>
       </defs>
       <use xlink:href="#DejaVuSans-37"/>
       <use xlink:href="#DejaVuSans-35" x="63.623047"/>
      </g>
     </g>
    </g>
    <g id="xtick_5">
     <g id="line2d_5">
      <g>
       <use xlink:href="#m42631076da" x="236.975715" y="307.584" style="stroke: #000000; stroke-width: 0.8"/>
      </g>
     </g>
     <g id="text_5">
      <!-- 100 -->
      <g transform="translate(227.431965 322.182437) scale(0.1 -0.1)">
       <defs>
        <path id="DejaVuSans-31" d="M 794 531 
L 1825 531 
L 1825 4091 
L 703 3866 
L 703 4441 
L 1819 4666 
L 2450 4666 
L 2450 531 
L 3481 531 
L 3481 0 
L 794 0 
L 794 531 
z
" transform="scale(0.015625)"/>
       </defs>
       <use xlink:href="#DejaVuSans-31"/>
       <use xlink:href="#DejaVuSans-30" x="63.623047"/>
       <use xlink:href="#DejaVuSans-30" x="127.246094"/>
      </g>
     </g>
    </g>
    <g id="xtick_6">
     <g id="line2d_6">
      <g>
       <use xlink:href="#m42631076da" x="277.761462" y="307.584" style="stroke: #000000; stroke-width: 0.8"/>
      </g>
     </g>
     <g id="text_6">
      <!-- 125 -->
      <g transform="translate(268.217712 322.182437) scale(0.1 -0.1)">
       <use xlink:href="#DejaVuSans-31"/>
       <use xlink:href="#DejaVuSans-32" x="63.623047"/>
       <use xlink:href="#DejaVuSans-35" x="127.246094"/>
      </g>
     </g>
    </g>
    <g id="xtick_7">
     <g id="line2d_7">
      <g>
       <use xlink:href="#m42631076da" x="318.547209" y="307.584" style="stroke: #000000; stroke-width: 0.8"/>
      </g>
     </g>
     <g id="text_7">
      <!-- 150 -->
      <g transform="translate(309.003459 322.182437) scale(0.1 -0.1)">
       <use xlink:href="#DejaVuSans-31"/>
       <use xlink:href="#DejaVuSans-35" x="63.623047"/>
       <use xlink:href="#DejaVuSans-30" x="127.246094"/>
      </g>
     </g>
    </g>
    <g id="xtick_8">
     <g id="line2d_8">
      <g>
       <use xlink:href="#m42631076da" x="359.332956" y="307.584" style="stroke: #000000; stroke-width: 0.8"/>
      </g>
     </g>
     <g id="text_8">
      <!-- 175 -->
      <g transform="translate(349.789206 322.182437) scale(0.1 -0.1)">
       <use xlink:href="#DejaVuSans-31"/>
       <use xlink:href="#DejaVuSans-37" x="63.623047"/>
       <use xlink:href="#DejaVuSans-35" x="127.246094"/>
      </g>
     </g>
    </g>
    <g id="xtick_9">
     <g id="line2d_9">
      <g>
       <use xlink:href="#m42631076da" x="400.118703" y="307.584" style="stroke: #000000; stroke-width: 0.8"/>
      </g>
     </g>
     <g id="text_9">
      <!-- 200 -->
      <g transform="translate(390.574953 322.182437) scale(0.1 -0.1)">
       <use xlink:href="#DejaVuSans-32"/>
       <use xlink:href="#DejaVuSans-30" x="63.623047"/>
       <use xlink:href="#DejaVuSans-30" x="127.246094"/>
      </g>
     </g>
    </g>
    <g id="text_10">
     <!-- epoch -->
     <g transform="translate(220.931875 335.860562) scale(0.1 -0.1)">
      <defs>
       <path id="DejaVuSans-65" d="M 3597 1894 
L 3597 1613 
L 953 1613 
Q 991 1019 1311 708 
Q 1631 397 2203 397 
Q 2534 397 2845 478 
Q 3156 559 3463 722 
L 3463 178 
Q 3153 47 2828 -22 
Q 2503 -91 2169 -91 
Q 1331 -91 842 396 
Q 353 884 353 1716 
Q 353 2575 817 3079 
Q 1281 3584 2069 3584 
Q 2775 3584 3186 3129 
Q 3597 2675 3597 1894 
z
M 3022 2063 
Q 3016 2534 2758 2815 
Q 2500 3097 2075 3097 
Q 1594 3097 1305 2825 
Q 1016 2553 972 2059 
L 3022 2063 
z
" transform="scale(0.015625)"/>
       <path id="DejaVuSans-70" d="M 1159 525 
L 1159 -1331 
L 581 -1331 
L 581 3500 
L 1159 3500 
L 1159 2969 
Q 1341 3281 1617 3432 
Q 1894 3584 2278 3584 
Q 2916 3584 3314 3078 
Q 3713 2572 3713 1747 
Q 3713 922 3314 415 
Q 2916 -91 2278 -91 
Q 1894 -91 1617 61 
Q 1341 213 1159 525 
z
M 3116 1747 
Q 3116 2381 2855 2742 
Q 2594 3103 2138 3103 
Q 1681 3103 1420 2742 
Q 1159 2381 1159 1747 
Q 1159 1113 1420 752 
Q 1681 391 2138 391 
Q 2594 391 2855 752 
Q 3116 1113 3116 1747 
z
" transform="scale(0.015625)"/>
       <path id="DejaVuSans-6f" d="M 1959 3097 
Q 1497 3097 1228 2736 
Q 959 2375 959 1747 
Q 959 1119 1226 758 
Q 1494 397 1959 397 
Q 2419 397 2687 759 
Q 2956 1122 2956 1747 
Q 2956 2369 2687 2733 
Q 2419 3097 1959 3097 
z
M 1959 3584 
Q 2709 3584 3137 3096 
Q 3566 2609 3566 1747 
Q 3566 888 3137 398 
Q 2709 -91 1959 -91 
Q 1206 -91 779 398 
Q 353 888 353 1747 
Q 353 2609 779 3096 
Q 1206 3584 1959 3584 
z
" transform="scale(0.015625)"/>
       <path id="DejaVuSans-63" d="M 3122 3366 
L 3122 2828 
Q 2878 2963 2633 3030 
Q 2388 3097 2138 3097 
Q 1578 3097 1268 2742 
Q 959 2388 959 1747 
Q 959 1106 1268 751 
Q 1578 397 2138 397 
Q 2388 397 2633 464 
Q 2878 531 3122 666 
L 3122 134 
Q 2881 22 2623 -34 
Q 2366 -91 2075 -91 
Q 1284 -91 818 406 
Q 353 903 353 1747 
Q 353 2603 823 3093 
Q 1294 3584 2113 3584 
Q 2378 3584 2631 3529 
Q 2884 3475 3122 3366 
z
" transform="scale(0.015625)"/>
       <path id="DejaVuSans-68" d="M 3513 2113 
L 3513 0 
L 2938 0 
L 2938 2094 
Q 2938 2591 2744 2837 
Q 2550 3084 2163 3084 
Q 1697 3084 1428 2787 
Q 1159 2491 1159 1978 
L 1159 0 
L 581 0 
L 581 4863 
L 1159 4863 
L 1159 2956 
Q 1366 3272 1645 3428 
Q 1925 3584 2291 3584 
Q 2894 3584 3203 3211 
Q 3513 2838 3513 2113 
z
" transform="scale(0.015625)"/>
      </defs>
      <use xlink:href="#DejaVuSans-65"/>
      <use xlink:href="#DejaVuSans-70" x="61.523438"/>
      <use xlink:href="#DejaVuSans-6f" x="125"/>
      <use xlink:href="#DejaVuSans-63" x="186.181641"/>
      <use xlink:href="#DejaVuSans-68" x="241.162109"/>
     </g>
    </g>
   </g>
   <g id="matplotlib.axis_2">
    <g id="ytick_1">
     <g id="line2d_10">
      <defs>
       <path id="m3f05034005" d="M 0 0 
L -3.5 0 
" style="stroke: #000000; stroke-width: 0.8"/>
      </defs>
      <g>
       <use xlink:href="#m3f05034005" x="57.6" y="282.908498" style="stroke: #000000; stroke-width: 0.8"/>
      </g>
     </g>
     <g id="text_11">
      <!-- 60 -->
      <g transform="translate(37.875 286.707717) scale(0.1 -0.1)">
       <defs>
        <path id="DejaVuSans-36" d="M 2113 2584 
Q 1688 2584 1439 2293 
Q 1191 2003 1191 1497 
Q 1191 994 1439 701 
Q 1688 409 2113 409 
Q 2538 409 2786 701 
Q 3034 994 3034 1497 
Q 3034 2003 2786 2293 
Q 2538 2584 2113 2584 
z
M 3366 4563 
L 3366 3988 
Q 3128 4100 2886 4159 
Q 2644 4219 2406 4219 
Q 1781 4219 1451 3797 
Q 1122 3375 1075 2522 
Q 1259 2794 1537 2939 
Q 1816 3084 2150 3084 
Q 2853 3084 3261 2657 
Q 3669 2231 3669 1497 
Q 3669 778 3244 343 
Q 2819 -91 2113 -91 
Q 1303 -91 875 529 
Q 447 1150 447 2328 
Q 447 3434 972 4092 
Q 1497 4750 2381 4750 
Q 2619 4750 2861 4703 
Q 3103 4656 3366 4563 
z
" transform="scale(0.015625)"/>
       </defs>
       <use xlink:href="#DejaVuSans-36"/>
       <use xlink:href="#DejaVuSans-30" x="63.623047"/>
      </g>
     </g>
    </g>
    <g id="ytick_2">
     <g id="line2d_11">
      <g>
       <use xlink:href="#m3f05034005" x="57.6" y="224.63033" style="stroke: #000000; stroke-width: 0.8"/>
      </g>
     </g>
     <g id="text_12">
      <!-- 70 -->
      <g transform="translate(37.875 228.429549) scale(0.1 -0.1)">
       <use xlink:href="#DejaVuSans-37"/>
       <use xlink:href="#DejaVuSans-30" x="63.623047"/>
      </g>
     </g>
    </g>
    <g id="ytick_3">
     <g id="line2d_12">
      <g>
       <use xlink:href="#m3f05034005" x="57.6" y="166.352163" style="stroke: #000000; stroke-width: 0.8"/>
      </g>
     </g>
     <g id="text_13">
      <!-- 80 -->
      <g transform="translate(37.875 170.151382) scale(0.1 -0.1)">
       <defs>
        <path id="DejaVuSans-38" d="M 2034 2216 
Q 1584 2216 1326 1975 
Q 1069 1734 1069 1313 
Q 1069 891 1326 650 
Q 1584 409 2034 409 
Q 2484 409 2743 651 
Q 3003 894 3003 1313 
Q 3003 1734 2745 1975 
Q 2488 2216 2034 2216 
z
M 1403 2484 
Q 997 2584 770 2862 
Q 544 3141 544 3541 
Q 544 4100 942 4425 
Q 1341 4750 2034 4750 
Q 2731 4750 3128 4425 
Q 3525 4100 3525 3541 
Q 3525 3141 3298 2862 
Q 3072 2584 2669 2484 
Q 3125 2378 3379 2068 
Q 3634 1759 3634 1313 
Q 3634 634 3220 271 
Q 2806 -91 2034 -91 
Q 1263 -91 848 271 
Q 434 634 434 1313 
Q 434 1759 690 2068 
Q 947 2378 1403 2484 
z
M 1172 3481 
Q 1172 3119 1398 2916 
Q 1625 2713 2034 2713 
Q 2441 2713 2670 2916 
Q 2900 3119 2900 3481 
Q 2900 3844 2670 4047 
Q 2441 4250 2034 4250 
Q 1625 4250 1398 4047 
Q 1172 3844 1172 3481 
z
" transform="scale(0.015625)"/>
       </defs>
       <use xlink:href="#DejaVuSans-38"/>
       <use xlink:href="#DejaVuSans-30" x="63.623047"/>
      </g>
     </g>
    </g>
    <g id="ytick_4">
     <g id="line2d_13">
      <g>
       <use xlink:href="#m3f05034005" x="57.6" y="108.073995" style="stroke: #000000; stroke-width: 0.8"/>
      </g>
     </g>
     <g id="text_14">
      <!-- 90 -->
      <g transform="translate(37.875 111.873214) scale(0.1 -0.1)">
       <defs>
        <path id="DejaVuSans-39" d="M 703 97 
L 703 672 
Q 941 559 1184 500 
Q 1428 441 1663 441 
Q 2288 441 2617 861 
Q 2947 1281 2994 2138 
Q 2813 1869 2534 1725 
Q 2256 1581 1919 1581 
Q 1219 1581 811 2004 
Q 403 2428 403 3163 
Q 403 3881 828 4315 
Q 1253 4750 1959 4750 
Q 2769 4750 3195 4129 
Q 3622 3509 3622 2328 
Q 3622 1225 3098 567 
Q 2575 -91 1691 -91 
Q 1453 -91 1209 -44 
Q 966 3 703 97 
z
M 1959 2075 
Q 2384 2075 2632 2365 
Q 2881 2656 2881 3163 
Q 2881 3666 2632 3958 
Q 2384 4250 1959 4250 
Q 1534 4250 1286 3958 
Q 1038 3666 1038 3163 
Q 1038 2656 1286 2365 
Q 1534 2075 1959 2075 
z
" transform="scale(0.015625)"/>
       </defs>
       <use xlink:href="#DejaVuSans-39"/>
       <use xlink:href="#DejaVuSans-30" x="63.623047"/>
      </g>
     </g>
    </g>
    <g id="ytick_5">
     <g id="line2d_14">
      <g>
       <use xlink:href="#m3f05034005" x="57.6" y="49.795828" style="stroke: #000000; stroke-width: 0.8"/>
      </g>
     </g>
     <g id="text_15">
      <!-- 100 -->
      <g transform="translate(31.5125 53.595047) scale(0.1 -0.1)">
       <use xlink:href="#DejaVuSans-31"/>
       <use xlink:href="#DejaVuSans-30" x="63.623047"/>
       <use xlink:href="#DejaVuSans-30" x="127.246094"/>
      </g>
     </g>
    </g>
    <g id="text_16">
     <!-- valid mAP -->
     <g transform="translate(25.432812 199.398313) rotate(-90) scale(0.1 -0.1)">
      <defs>
       <path id="DejaVuSans-76" d="M 191 3500 
L 800 3500 
L 1894 563 
L 2988 3500 
L 3597 3500 
L 2284 0 
L 1503 0 
L 191 3500 
z
" transform="scale(0.015625)"/>
       <path id="DejaVuSans-61" d="M 2194 1759 
Q 1497 1759 1228 1600 
Q 959 1441 959 1056 
Q 959 750 1161 570 
Q 1363 391 1709 391 
Q 2188 391 2477 730 
Q 2766 1069 2766 1631 
L 2766 1759 
L 2194 1759 
z
M 3341 1997 
L 3341 0 
L 2766 0 
L 2766 531 
Q 2569 213 2275 61 
Q 1981 -91 1556 -91 
Q 1019 -91 701 211 
Q 384 513 384 1019 
Q 384 1609 779 1909 
Q 1175 2209 1959 2209 
L 2766 2209 
L 2766 2266 
Q 2766 2663 2505 2880 
Q 2244 3097 1772 3097 
Q 1472 3097 1187 3025 
Q 903 2953 641 2809 
L 641 3341 
Q 956 3463 1253 3523 
Q 1550 3584 1831 3584 
Q 2591 3584 2966 3190 
Q 3341 2797 3341 1997 
z
" transform="scale(0.015625)"/>
       <path id="DejaVuSans-6c" d="M 603 4863 
L 1178 4863 
L 1178 0 
L 603 0 
L 603 4863 
z
" transform="scale(0.015625)"/>
       <path id="DejaVuSans-69" d="M 603 3500 
L 1178 3500 
L 1178 0 
L 603 0 
L 603 3500 
z
M 603 4863 
L 1178 4863 
L 1178 4134 
L 603 4134 
L 603 4863 
z
" transform="scale(0.015625)"/>
       <path id="DejaVuSans-64" d="M 2906 2969 
L 2906 4863 
L 3481 4863 
L 3481 0 
L 2906 0 
L 2906 525 
Q 2725 213 2448 61 
Q 2172 -91 1784 -91 
Q 1150 -91 751 415 
Q 353 922 353 1747 
Q 353 2572 751 3078 
Q 1150 3584 1784 3584 
Q 2172 3584 2448 3432 
Q 2725 3281 2906 2969 
z
M 947 1747 
Q 947 1113 1208 752 
Q 1469 391 1925 391 
Q 2381 391 2643 752 
Q 2906 1113 2906 1747 
Q 2906 2381 2643 2742 
Q 2381 3103 1925 3103 
Q 1469 3103 1208 2742 
Q 947 2381 947 1747 
z
" transform="scale(0.015625)"/>
       <path id="DejaVuSans-20" transform="scale(0.015625)"/>
       <path id="DejaVuSans-6d" d="M 3328 2828 
Q 3544 3216 3844 3400 
Q 4144 3584 4550 3584 
Q 5097 3584 5394 3201 
Q 5691 2819 5691 2113 
L 5691 0 
L 5113 0 
L 5113 2094 
Q 5113 2597 4934 2840 
Q 4756 3084 4391 3084 
Q 3944 3084 3684 2787 
Q 3425 2491 3425 1978 
L 3425 0 
L 2847 0 
L 2847 2094 
Q 2847 2600 2669 2842 
Q 2491 3084 2119 3084 
Q 1678 3084 1418 2786 
Q 1159 2488 1159 1978 
L 1159 0 
L 581 0 
L 581 3500 
L 1159 3500 
L 1159 2956 
Q 1356 3278 1631 3431 
Q 1906 3584 2284 3584 
Q 2666 3584 2933 3390 
Q 3200 3197 3328 2828 
z
" transform="scale(0.015625)"/>
       <path id="DejaVuSans-41" d="M 2188 4044 
L 1331 1722 
L 3047 1722 
L 2188 4044 
z
M 1831 4666 
L 2547 4666 
L 4325 0 
L 3669 0 
L 3244 1197 
L 1141 1197 
L 716 0 
L 50 0 
L 1831 4666 
z
" transform="scale(0.015625)"/>
       <path id="DejaVuSans-50" d="M 1259 4147 
L 1259 2394 
L 2053 2394 
Q 2494 2394 2734 2622 
Q 2975 2850 2975 3272 
Q 2975 3691 2734 3919 
Q 2494 4147 2053 4147 
L 1259 4147 
z
M 628 4666 
L 2053 4666 
Q 2838 4666 3239 4311 
Q 3641 3956 3641 3272 
Q 3641 2581 3239 2228 
Q 2838 1875 2053 1875 
L 1259 1875 
L 1259 0 
L 628 0 
L 628 4666 
z
" transform="scale(0.015625)"/>
      </defs>
      <use xlink:href="#DejaVuSans-76"/>
      <use xlink:href="#DejaVuSans-61" x="59.179688"/>
      <use xlink:href="#DejaVuSans-6c" x="120.458984"/>
      <use xlink:href="#DejaVuSans-69" x="148.242188"/>
      <use xlink:href="#DejaVuSans-64" x="176.025391"/>
      <use xlink:href="#DejaVuSans-20" x="239.501953"/>
      <use xlink:href="#DejaVuSans-6d" x="271.289062"/>
      <use xlink:href="#DejaVuSans-41" x="368.701172"/>
      <use xlink:href="#DejaVuSans-50" x="437.109375"/>
     </g>
    </g>
   </g>
   <g id="line2d_15">
    <path d="M 73.832727 177.457215 
L 75.464157 245.569823 
L 77.095587 289.033281 
L 78.727017 288.319321 
L 80.358447 194.989174 
L 81.989877 180.643146 
L 83.621307 214.85378 
L 85.252736 196.126308 
L 86.884166 129.420989 
L 88.515596 57.133643 
L 90.147026 205.338048 
L 91.778456 179.590847 
L 93.409886 174.99896 
L 95.041316 199.240787 
L 96.672746 142.840947 
L 98.304175 211.028075 
L 99.935605 184.800098 
L 101.567035 136.78148 
L 103.198465 194.854185 
L 104.829895 180.388241 
L 106.461325 201.391493 
L 108.092755 181.744354 
L 109.724185 195.997143 
L 111.355614 173.98979 
L 112.987044 197.409546 
L 114.618474 214.389367 
L 116.249904 208.008523 
L 117.881334 194.402488 
L 119.512764 61.584405 
L 121.144194 73.968515 
L 122.775624 170.816975 
L 124.407053 64.228958 
L 126.038483 180.145341 
L 127.669913 184.727535 
L 129.301343 203.712269 
L 130.932773 204.248489 
L 132.564203 168.800991 
L 134.195633 63.208005 
L 135.827063 197.904238 
L 137.458492 201.180206 
L 139.089922 201.494069 
L 140.721352 198.565843 
L 142.352782 82.890626 
L 143.984212 149.291775 
L 145.615642 151.222257 
L 147.247072 163.073883 
L 148.878502 200.970165 
L 150.509931 153.633915 
L 152.141361 57.708857 
L 153.772791 191.553184 
L 155.404221 183.199574 
L 157.035651 140.566857 
L 158.667081 195.631527 
L 160.298511 153.764591 
L 161.929941 187.975225 
L 163.56137 197.91073 
L 165.1928 200.485299 
L 166.82423 154.273956 
L 168.45566 168.764932 
L 170.08709 187.266178 
L 171.71852 59.056877 
L 173.34995 194.153408 
L 174.98138 66.974886 
L 176.61281 195.244479 
L 178.244239 187.805378 
L 179.875669 211.523523 
L 181.507099 183.915691 
L 183.138529 202.753831 
L 184.769959 176.438396 
L 186.401389 196.599836 
L 188.032819 136.897394 
L 189.664249 189.504076 
L 191.295678 219.572163 
L 192.927108 58.582772 
L 194.558538 206.94662 
L 196.189968 206.39466 
L 197.821398 206.498881 
L 199.452828 57.629269 
L 201.084258 157.112189 
L 202.715688 184.603529 
L 204.347117 206.71697 
L 205.978547 207.487376 
L 207.609977 174.681763 
L 209.241407 64.528815 
L 210.872837 196.248091 
L 212.504267 159.360668 
L 214.135697 66.221866 
L 215.767127 201.622299 
L 217.398556 209.423104 
L 219.029986 196.382991 
L 220.661416 167.45266 
L 222.292846 64.412945 
L 223.924276 63.714391 
L 225.555706 195.909063 
L 227.187136 205.842255 
L 228.818566 197.954259 
L 230.449995 66.646574 
L 232.081425 201.32182 
L 233.712855 197.148995 
L 235.344285 204.866743 
L 236.975715 61.679955 
L 238.607145 199.524237 
L 240.238575 195.322288 
L 241.870005 195.371375 
L 243.501434 172.605532 
L 245.132864 192.589832 
L 246.764294 198.041495 
L 248.395724 216.17459 
L 250.027154 200.264097 
L 251.658584 63.265451 
L 253.290014 68.185473 
L 254.921444 215.585503 
L 256.552873 126.979674 
L 258.184303 207.385067 
L 259.815733 198.727643 
L 261.447163 70.187051 
L 263.078593 180.014132 
L 264.710023 174.093166 
L 266.341453 196.604726 
L 267.972883 193.188612 
L 269.604312 191.641309 
L 271.235742 204.217276 
L 272.867172 195.827874 
L 274.498602 199.043106 
L 276.130032 163.814765 
L 277.761462 61.971853 
L 279.392892 199.355101 
L 281.024322 207.940584 
L 282.655751 137.139894 
L 284.287181 193.161623 
L 285.918611 145.296756 
L 287.550041 57.10363 
L 289.181471 196.718373 
L 290.812901 186.409826 
L 292.444331 197.004491 
L 294.075761 63.898067 
L 295.70719 59.340149 
L 297.33862 203.849214 
L 298.97005 196.583251 
L 300.60148 137.863747 
L 302.23291 185.616612 
L 303.86434 176.758972 
L 305.49577 150.282894 
L 307.1272 64.421837 
L 308.75863 71.615949 
L 310.390059 190.513868 
L 312.021489 195.405656 
L 313.652919 202.821814 
L 315.284349 186.018377 
L 316.915779 195.255683 
L 318.547209 197.340006 
L 320.178639 211.044971 
L 321.810069 205.017205 
L 323.441498 191.351546 
L 325.072928 206.128195 
L 326.704358 146.969799 
L 328.335788 160.813398 
L 329.967218 135.058416 
L 331.598648 207.55278 
L 333.230078 196.323678 
L 334.861508 191.911909 
L 336.492937 191.655448 
L 338.124367 189.918379 
L 339.755797 202.852582 
L 341.387227 206.657524 
L 343.018657 192.695431 
L 344.650087 189.449609 
L 346.281517 192.909742 
L 347.912947 188.539768 
L 349.544376 140.214757 
L 351.175806 206.627778 
L 352.807236 204.80245 
L 354.438666 71.653609 
L 356.070096 68.812664 
L 357.701526 192.791649 
L 359.332956 141.956539 
L 360.964386 181.615457 
L 362.595815 209.120669 
L 364.227245 194.812746 
L 365.858675 200.665595 
L 367.490105 192.145339 
L 369.121535 138.177564 
L 370.752965 208.875279 
L 372.384395 205.694684 
L 374.015825 60.740725 
L 375.647254 60.924712 
L 377.278684 64.760955 
L 378.910114 193.221203 
L 380.541544 176.834559 
L 382.172974 64.575634 
L 383.804404 156.541776 
L 385.435834 72.065778 
L 387.067264 64.075251 
L 388.698693 192.249337 
L 390.330123 207.905859 
L 391.961553 192.712861 
L 393.592983 206.427562 
L 395.224413 202.222012 
L 396.855843 199.051554 
L 398.487273 211.545176 
L 398.487273 211.545176 
" clip-path="url(#pc1de30a253)" style="fill: none; stroke: #008000; stroke-width: 1.5; stroke-linecap: square"/>
   </g>
   <g id="line2d_16">
    <path d="M 73.832727 295.488 
L 75.464157 286.487791 
L 77.095587 276.727892 
L 78.727017 232.765895 
L 80.358447 205.578325 
L 81.989877 209.715713 
L 83.621307 135.067753 
L 85.252736 165.231169 
L 86.884166 188.605929 
L 90.147026 74.835939 
L 91.778456 81.864026 
L 93.409886 205.108621 
L 95.041316 197.848971 
L 96.672746 91.426177 
L 98.304175 196.156987 
L 99.935605 183.759938 
L 103.198465 201.446716 
L 104.829895 176.955453 
L 106.461325 184.453734 
L 108.092755 152.40381 
L 109.724185 153.117036 
L 111.355614 189.298613 
L 112.987044 187.099621 
L 114.618474 177.105826 
L 116.249904 130.475333 
L 117.881334 150.776119 
L 119.512764 200.740915 
L 121.144194 186.434148 
L 122.775624 183.310998 
L 124.407053 205.232805 
L 126.038483 202.963117 
L 127.669913 186.954761 
L 129.301343 203.389514 
L 132.564203 72.137941 
L 134.195633 167.933168 
L 135.827063 88.238512 
L 137.458492 208.90498 
L 139.089922 71.519776 
L 140.721352 213.006354 
L 142.352782 190.503864 
L 143.984212 214.227701 
L 145.615642 165.841242 
L 147.247072 217.617627 
L 148.878502 177.98432 
L 150.509931 183.844417 
L 152.141361 196.952692 
L 153.772791 137.42899 
L 155.404221 141.125665 
L 157.035651 138.254885 
L 158.667081 198.960228 
L 160.298511 190.34611 
L 161.929941 164.626565 
L 163.56137 204.163654 
L 165.1928 156.088168 
L 166.82423 201.931849 
L 168.45566 146.692041 
L 170.08709 136.982851 
L 171.71852 204.022441 
L 173.34995 186.432502 
L 174.98138 82.945715 
L 176.61281 223.960277 
L 178.244239 189.993966 
L 179.875669 168.179225 
L 181.507099 139.596859 
L 183.138529 197.392784 
L 184.769959 140.051312 
L 186.401389 173.98979 
L 188.032819 161.953422 
L 189.664249 197.038193 
L 191.295678 179.384807 
L 192.927108 71.50537 
L 194.558538 202.543656 
L 196.189968 176.380772 
L 197.821398 190.456867 
L 199.452828 70.974841 
L 201.084258 189.048333 
L 202.715688 178.902164 
L 204.347117 62.764312 
L 205.978547 205.862797 
L 207.609977 139.152898 
L 209.241407 207.226824 
L 210.872837 65.516954 
L 212.504267 190.430856 
L 214.135697 177.132059 
L 215.767127 135.931086 
L 217.398556 57.861097 
L 219.029986 197.219824 
L 220.661416 193.05349 
L 222.292846 71.212139 
L 223.924276 55.999888 
L 225.555706 141.518137 
L 227.187136 135.720377 
L 228.818566 196.608639 
L 230.449995 184.332795 
L 232.081425 81.036931 
L 233.712855 165.590517 
L 235.344285 210.668861 
L 236.975715 66.901834 
L 238.607145 61.46978 
L 240.238575 59.835108 
L 241.870005 194.917233 
L 243.501434 201.811488 
L 245.132864 217.105772 
L 246.764294 62.477839 
L 248.395724 205.805885 
L 250.027154 59.276523 
L 251.658584 181.642134 
L 253.290014 191.46786 
L 254.921444 142.956595 
L 256.552873 204.326788 
L 258.184303 133.412984 
L 259.815733 163.187085 
L 261.447163 140.285141 
L 263.078593 197.297144 
L 264.710023 84.652905 
L 266.341453 228.604363 
L 267.972883 188.605173 
L 269.604312 210.422982 
L 271.235742 73.486451 
L 272.867172 206.193377 
L 274.498602 197.868979 
L 276.130032 66.286337 
L 277.761462 181.816695 
L 279.392892 200.671019 
L 281.024322 151.454042 
L 282.655751 61.184152 
L 284.287181 196.108389 
L 285.918611 66.205993 
L 287.550041 195.12434 
L 289.181471 79.195463 
L 290.812901 55.683536 
L 292.444331 211.276977 
L 294.075761 199.118159 
L 295.70719 201.614963 
L 297.33862 213.765689 
L 298.97005 193.045709 
L 300.60148 175.362887 
L 302.23291 135.656262 
L 303.86434 203.467635 
L 305.49577 192.011195 
L 307.1272 208.69147 
L 308.75863 186.861701 
L 310.390059 198.012549 
L 312.021489 165.711455 
L 313.652919 191.38267 
L 315.284349 72.992114 
L 316.915779 203.080498 
L 318.547209 128.043445 
L 320.178639 207.863219 
L 321.810069 59.056877 
L 323.441498 202.458109 
L 325.072928 71.141443 
L 326.704358 195.995276 
L 328.335788 58.675743 
L 329.967218 204.182551 
L 331.598648 205.227692 
L 333.230078 192.033915 
L 334.861508 173.688422 
L 336.492937 214.50288 
L 338.124367 152.442448 
L 339.755797 202.587896 
L 341.387227 68.889495 
L 343.018657 142.757046 
L 344.650087 185.563212 
L 346.281517 178.792385 
L 347.912947 53.568 
L 349.544376 69.97234 
L 351.175806 195.56132 
L 352.807236 222.092488 
L 354.438666 159.212029 
L 356.070096 186.863124 
L 357.701526 73.552344 
L 359.332956 215.034121 
L 360.964386 174.327484 
L 362.595815 221.626919 
L 364.227245 184.593525 
L 365.858675 190.376834 
L 367.490105 169.652941 
L 369.121535 189.287231 
L 370.752965 205.98627 
L 372.384395 70.909036 
L 374.015825 67.077951 
L 375.647254 197.862221 
L 377.278684 216.055118 
L 378.910114 210.368871 
L 380.541544 75.601008 
L 382.172974 184.877864 
L 383.804404 199.800795 
L 385.435834 189.425821 
L 387.067264 223.106149 
L 388.698693 67.285014 
L 390.330123 205.426351 
L 391.961553 200.039693 
L 393.592983 195.991675 
L 395.224413 69.241329 
L 396.855843 209.053664 
L 398.487273 81.426735 
L 398.487273 81.426735 
" clip-path="url(#pc1de30a253)" style="fill: none; stroke: #0000ff; stroke-width: 1.5; stroke-linecap: square"/>
   </g>
   <g id="line2d_17">
    <path d="M 73.832727 265.525778 
L 75.464157 282.088694 
L 77.095587 249.992796 
L 78.727017 280.966567 
L 80.358447 168.496466 
L 81.989877 192.804543 
L 83.621307 165.298486 
L 85.252736 212.603167 
L 86.884166 133.431392 
L 88.515596 168.232447 
L 90.147026 76.441043 
L 91.778456 142.653003 
L 93.409886 156.432265 
L 95.041316 206.477805 
L 96.672746 151.997287 
L 98.304175 211.731208 
L 99.935605 200.222702 
L 101.567035 206.835641 
L 103.198465 210.010812 
L 104.829895 203.220156 
L 106.461325 186.840804 
L 108.092755 58.776095 
L 109.724185 82.062019 
L 111.355614 176.291714 
L 112.987044 73.862472 
L 114.618474 201.098217 
L 116.249904 158.524547 
L 117.881334 168.930067 
L 119.512764 192.230929 
L 121.144194 175.062631 
L 122.775624 142.416862 
L 124.407053 98.737937 
L 126.038483 184.990354 
L 127.669913 174.902343 
L 129.301343 204.173925 
L 130.932773 95.698422 
L 132.564203 170.865528 
L 134.195633 206.444681 
L 135.827063 194.708925 
L 137.458492 159.342794 
L 139.089922 199.089481 
L 140.721352 188.067174 
L 142.352782 70.526835 
L 143.984212 147.214922 
L 145.615642 179.833702 
L 147.247072 202.142157 
L 148.878502 202.062569 
L 150.509931 188.352714 
L 152.141361 196.988128 
L 153.772791 71.85498 
L 155.404221 177.18368 
L 157.035651 189.590556 
L 158.667081 206.457352 
L 160.298511 183.480312 
L 161.929941 201.820425 
L 163.56137 87.482824 
L 165.1928 139.047833 
L 166.82423 59.931326 
L 168.45566 185.585221 
L 170.08709 154.055244 
L 171.71852 133.869839 
L 173.34995 167.493121 
L 174.98138 186.74383 
L 176.61281 202.560774 
L 178.244239 138.132613 
L 179.875669 162.531304 
L 181.507099 212.488497 
L 183.138529 169.485228 
L 184.769959 197.947812 
L 186.401389 58.49269 
L 188.032819 175.282677 
L 189.664249 212.828059 
L 191.295678 140.228941 
L 192.927108 172.750925 
L 194.558538 61.441546 
L 196.189968 135.659908 
L 197.821398 198.90127 
L 199.452828 201.788367 
L 201.084258 134.557677 
L 202.715688 169.792199 
L 204.347117 209.582014 
L 207.609977 158.080898 
L 209.241407 142.084325 
L 210.872837 57.394417 
L 212.504267 96.057325 
L 214.135697 196.681247 
L 217.398556 196.382591 
L 219.029986 197.201594 
L 220.661416 71.351129 
L 222.292846 226.810693 
L 223.924276 193.323556 
L 225.555706 176.37726 
L 227.187136 194.373899 
L 228.818566 189.867203 
L 230.449995 186.928395 
L 232.081425 69.028708 
L 233.712855 60.068582 
L 235.344285 69.311624 
L 236.975715 201.637995 
L 238.607145 217.398692 
L 240.238575 176.735185 
L 241.870005 195.439803 
L 243.501434 146.226027 
L 245.132864 136.822474 
L 246.764294 178.393733 
L 248.395724 190.472473 
L 250.027154 206.667839 
L 251.658584 143.100743 
L 253.290014 189.60714 
L 254.921444 205.546578 
L 256.552873 76.412898 
L 258.184303 188.305761 
L 259.815733 196.976079 
L 261.447163 199.999677 
L 263.078593 64.046261 
L 264.710023 194.297289 
L 266.341453 209.558227 
L 267.972883 200.211986 
L 269.604312 142.159334 
L 271.235742 193.611674 
L 272.867172 169.603988 
L 274.498602 76.717956 
L 276.130032 216.304999 
L 277.761462 192.806944 
L 279.392892 67.424805 
L 281.024322 189.922247 
L 282.655751 197.009204 
L 284.287181 62.766046 
L 285.918611 183.243236 
L 287.550041 164.404251 
L 289.181471 144.233608 
L 290.812901 196.916188 
L 292.444331 172.11373 
L 294.075761 194.585052 
L 295.70719 187.19237 
L 297.33862 178.146565 
L 298.97005 212.593207 
L 300.60148 63.000142 
L 302.23291 179.171964 
L 303.86434 199.792659 
L 305.49577 180.453913 
L 307.1272 204.853227 
L 310.390059 71.559615 
L 312.021489 199.267643 
L 313.652919 191.818226 
L 315.284349 133.595459 
L 316.915779 200.211364 
L 318.547209 68.094947 
L 320.178639 153.797182 
L 321.810069 64.187786 
L 323.441498 176.219195 
L 325.072928 203.758866 
L 326.704358 182.71293 
L 328.335788 134.352304 
L 329.967218 206.589184 
L 331.598648 159.02622 
L 333.230078 209.04366 
L 333.230078 209.04366 
" clip-path="url(#pc1de30a253)" style="fill: none; stroke: #ff0000; stroke-width: 1.5; stroke-linecap: square"/>
   </g>
   <g id="patch_3">
    <path d="M 57.6 307.584 
L 57.6 41.472 
" style="fill: none; stroke: #000000; stroke-width: 0.8; stroke-linejoin: miter; stroke-linecap: square"/>
   </g>
   <g id="patch_4">
    <path d="M 414.72 307.584 
L 414.72 41.472 
" style="fill: none; stroke: #000000; stroke-width: 0.8; stroke-linejoin: miter; stroke-linecap: square"/>
   </g>
   <g id="patch_5">
    <path d="M 57.6 307.584 
L 414.72 307.584 
" style="fill: none; stroke: #000000; stroke-width: 0.8; stroke-linejoin: miter; stroke-linecap: square"/>
   </g>
   <g id="patch_6">
    <path d="M 57.6 41.472 
L 414.72 41.472 
" style="fill: none; stroke: #000000; stroke-width: 0.8; stroke-linejoin: miter; stroke-linecap: square"/>
   </g>
   <g id="text_17">
    <!-- The relation between mAP and total epochs of host/7 -->
    <g transform="translate(76.392188 35.472) scale(0.12 -0.12)">
     <defs>
      <path id="DejaVuSans-54" d="M -19 4666 
L 3928 4666 
L 3928 4134 
L 2272 4134 
L 2272 0 
L 1638 0 
L 1638 4134 
L -19 4134 
L -19 4666 
z
" transform="scale(0.015625)"/>
      <path id="DejaVuSans-72" d="M 2631 2963 
Q 2534 3019 2420 3045 
Q 2306 3072 2169 3072 
Q 1681 3072 1420 2755 
Q 1159 2438 1159 1844 
L 1159 0 
L 581 0 
L 581 3500 
L 1159 3500 
L 1159 2956 
Q 1341 3275 1631 3429 
Q 1922 3584 2338 3584 
Q 2397 3584 2469 3576 
Q 2541 3569 2628 3553 
L 2631 2963 
z
" transform="scale(0.015625)"/>
      <path id="DejaVuSans-74" d="M 1172 4494 
L 1172 3500 
L 2356 3500 
L 2356 3053 
L 1172 3053 
L 1172 1153 
Q 1172 725 1289 603 
Q 1406 481 1766 481 
L 2356 481 
L 2356 0 
L 1766 0 
Q 1100 0 847 248 
Q 594 497 594 1153 
L 594 3053 
L 172 3053 
L 172 3500 
L 594 3500 
L 594 4494 
L 1172 4494 
z
" transform="scale(0.015625)"/>
      <path id="DejaVuSans-6e" d="M 3513 2113 
L 3513 0 
L 2938 0 
L 2938 2094 
Q 2938 2591 2744 2837 
Q 2550 3084 2163 3084 
Q 1697 3084 1428 2787 
Q 1159 2491 1159 1978 
L 1159 0 
L 581 0 
L 581 3500 
L 1159 3500 
L 1159 2956 
Q 1366 3272 1645 3428 
Q 1925 3584 2291 3584 
Q 2894 3584 3203 3211 
Q 3513 2838 3513 2113 
z
" transform="scale(0.015625)"/>
      <path id="DejaVuSans-62" d="M 3116 1747 
Q 3116 2381 2855 2742 
Q 2594 3103 2138 3103 
Q 1681 3103 1420 2742 
Q 1159 2381 1159 1747 
Q 1159 1113 1420 752 
Q 1681 391 2138 391 
Q 2594 391 2855 752 
Q 3116 1113 3116 1747 
z
M 1159 2969 
Q 1341 3281 1617 3432 
Q 1894 3584 2278 3584 
Q 2916 3584 3314 3078 
Q 3713 2572 3713 1747 
Q 3713 922 3314 415 
Q 2916 -91 2278 -91 
Q 1894 -91 1617 61 
Q 1341 213 1159 525 
L 1159 0 
L 581 0 
L 581 4863 
L 1159 4863 
L 1159 2969 
z
" transform="scale(0.015625)"/>
      <path id="DejaVuSans-77" d="M 269 3500 
L 844 3500 
L 1563 769 
L 2278 3500 
L 2956 3500 
L 3675 769 
L 4391 3500 
L 4966 3500 
L 4050 0 
L 3372 0 
L 2619 2869 
L 1863 0 
L 1184 0 
L 269 3500 
z
" transform="scale(0.015625)"/>
      <path id="DejaVuSans-73" d="M 2834 3397 
L 2834 2853 
Q 2591 2978 2328 3040 
Q 2066 3103 1784 3103 
Q 1356 3103 1142 2972 
Q 928 2841 928 2578 
Q 928 2378 1081 2264 
Q 1234 2150 1697 2047 
L 1894 2003 
Q 2506 1872 2764 1633 
Q 3022 1394 3022 966 
Q 3022 478 2636 193 
Q 2250 -91 1575 -91 
Q 1294 -91 989 -36 
Q 684 19 347 128 
L 347 722 
Q 666 556 975 473 
Q 1284 391 1588 391 
Q 1994 391 2212 530 
Q 2431 669 2431 922 
Q 2431 1156 2273 1281 
Q 2116 1406 1581 1522 
L 1381 1569 
Q 847 1681 609 1914 
Q 372 2147 372 2553 
Q 372 3047 722 3315 
Q 1072 3584 1716 3584 
Q 2034 3584 2315 3537 
Q 2597 3491 2834 3397 
z
" transform="scale(0.015625)"/>
      <path id="DejaVuSans-66" d="M 2375 4863 
L 2375 4384 
L 1825 4384 
Q 1516 4384 1395 4259 
Q 1275 4134 1275 3809 
L 1275 3500 
L 2222 3500 
L 2222 3053 
L 1275 3053 
L 1275 0 
L 697 0 
L 697 3053 
L 147 3053 
L 147 3500 
L 697 3500 
L 697 3744 
Q 697 4328 969 4595 
Q 1241 4863 1831 4863 
L 2375 4863 
z
" transform="scale(0.015625)"/>
      <path id="DejaVuSans-2f" d="M 1625 4666 
L 2156 4666 
L 531 -594 
L 0 -594 
L 1625 4666 
z
" transform="scale(0.015625)"/>
     </defs>
     <use xlink:href="#DejaVuSans-54"/>
     <use xlink:href="#DejaVuSans-68" x="61.083984"/>
     <use xlink:href="#DejaVuSans-65" x="124.462891"/>
     <use xlink:href="#DejaVuSans-20" x="185.986328"/>
     <use xlink:href="#DejaVuSans-72" x="217.773438"/>
     <use xlink:href="#DejaVuSans-65" x="256.636719"/>
     <use xlink:href="#DejaVuSans-6c" x="318.160156"/>
     <use xlink:href="#DejaVuSans-61" x="345.943359"/>
     <use xlink:href="#DejaVuSans-74" x="407.222656"/>
     <use xlink:href="#DejaVuSans-69" x="446.431641"/>
     <use xlink:href="#DejaVuSans-6f" x="474.214844"/>
     <use xlink:href="#DejaVuSans-6e" x="535.396484"/>
     <use xlink:href="#DejaVuSans-20" x="598.775391"/>
     <use xlink:href="#DejaVuSans-62" x="630.5625"/>
     <use xlink:href="#DejaVuSans-65" x="694.039062"/>
     <use xlink:href="#DejaVuSans-74" x="755.5625"/>
     <use xlink:href="#DejaVuSans-77" x="794.771484"/>
     <use xlink:href="#DejaVuSans-65" x="876.558594"/>
     <use xlink:href="#DejaVuSans-65" x="938.082031"/>
     <use xlink:href="#DejaVuSans-6e" x="999.605469"/>
     <use xlink:href="#DejaVuSans-20" x="1062.984375"/>
     <use xlink:href="#DejaVuSans-6d" x="1094.771484"/>
     <use xlink:href="#DejaVuSans-41" x="1192.183594"/>
     <use xlink:href="#DejaVuSans-50" x="1260.591797"/>
     <use xlink:href="#DejaVuSans-20" x="1320.894531"/>
     <use xlink:href="#DejaVuSans-61" x="1352.681641"/>
     <use xlink:href="#DejaVuSans-6e" x="1413.960938"/>
     <use xlink:href="#DejaVuSans-64" x="1477.339844"/>
     <use xlink:href="#DejaVuSans-20" x="1540.816406"/>
     <use xlink:href="#DejaVuSans-74" x="1572.603516"/>
     <use xlink:href="#DejaVuSans-6f" x="1611.8125"/>
     <use xlink:href="#DejaVuSans-74" x="1672.994141"/>
     <use xlink:href="#DejaVuSans-61" x="1712.203125"/>
     <use xlink:href="#DejaVuSans-6c" x="1773.482422"/>
     <use xlink:href="#DejaVuSans-20" x="1801.265625"/>
     <use xlink:href="#DejaVuSans-65" x="1833.052734"/>
     <use xlink:href="#DejaVuSans-70" x="1894.576172"/>
     <use xlink:href="#DejaVuSans-6f" x="1958.052734"/>
     <use xlink:href="#DejaVuSans-63" x="2019.234375"/>
     <use xlink:href="#DejaVuSans-68" x="2074.214844"/>
     <use xlink:href="#DejaVuSans-73" x="2137.59375"/>
     <use xlink:href="#DejaVuSans-20" x="2189.693359"/>
     <use xlink:href="#DejaVuSans-6f" x="2221.480469"/>
     <use xlink:href="#DejaVuSans-66" x="2282.662109"/>
     <use xlink:href="#DejaVuSans-20" x="2317.867188"/>
     <use xlink:href="#DejaVuSans-68" x="2349.654297"/>
     <use xlink:href="#DejaVuSans-6f" x="2413.033203"/>
     <use xlink:href="#DejaVuSans-73" x="2474.214844"/>
     <use xlink:href="#DejaVuSans-74" x="2526.314453"/>
     <use xlink:href="#DejaVuSans-2f" x="2565.523438"/>
     <use xlink:href="#DejaVuSans-37" x="2599.214844"/>
    </g>
   </g>
   <g id="legend_1">
    <g id="patch_7">
     <path d="M 279.42625 302.584 
L 407.72 302.584 
Q 409.72 302.584 409.72 300.584 
L 409.72 257.549625 
Q 409.72 255.549625 407.72 255.549625 
L 279.42625 255.549625 
Q 277.42625 255.549625 277.42625 257.549625 
L 277.42625 300.584 
Q 277.42625 302.584 279.42625 302.584 
z
" style="fill: #ffffff; opacity: 0.8; stroke: #cccccc; stroke-linejoin: miter"/>
    </g>
    <g id="line2d_18">
     <path d="M 281.42625 263.648062 
L 291.42625 263.648062 
L 301.42625 263.648062 
" style="fill: none; stroke: #008000; stroke-width: 1.5; stroke-linecap: square"/>
    </g>
    <g id="text_18">
     <!-- FPSL -->
     <g transform="translate(309.42625 267.148062) scale(0.1 -0.1)">
      <defs>
       <path id="DejaVuSans-46" d="M 628 4666 
L 3309 4666 
L 3309 4134 
L 1259 4134 
L 1259 2759 
L 3109 2759 
L 3109 2228 
L 1259 2228 
L 1259 0 
L 628 0 
L 628 4666 
z
" transform="scale(0.015625)"/>
       <path id="DejaVuSans-53" d="M 3425 4513 
L 3425 3897 
Q 3066 4069 2747 4153 
Q 2428 4238 2131 4238 
Q 1616 4238 1336 4038 
Q 1056 3838 1056 3469 
Q 1056 3159 1242 3001 
Q 1428 2844 1947 2747 
L 2328 2669 
Q 3034 2534 3370 2195 
Q 3706 1856 3706 1288 
Q 3706 609 3251 259 
Q 2797 -91 1919 -91 
Q 1588 -91 1214 -16 
Q 841 59 441 206 
L 441 856 
Q 825 641 1194 531 
Q 1563 422 1919 422 
Q 2459 422 2753 634 
Q 3047 847 3047 1241 
Q 3047 1584 2836 1778 
Q 2625 1972 2144 2069 
L 1759 2144 
Q 1053 2284 737 2584 
Q 422 2884 422 3419 
Q 422 4038 858 4394 
Q 1294 4750 2059 4750 
Q 2388 4750 2728 4690 
Q 3069 4631 3425 4513 
z
" transform="scale(0.015625)"/>
       <path id="DejaVuSans-4c" d="M 628 4666 
L 1259 4666 
L 1259 531 
L 3531 531 
L 3531 0 
L 628 0 
L 628 4666 
z
" transform="scale(0.015625)"/>
      </defs>
      <use xlink:href="#DejaVuSans-46"/>
      <use xlink:href="#DejaVuSans-50" x="57.519531"/>
      <use xlink:href="#DejaVuSans-53" x="117.822266"/>
      <use xlink:href="#DejaVuSans-4c" x="181.298828"/>
     </g>
    </g>
    <g id="line2d_19">
     <path d="M 281.42625 278.326188 
L 291.42625 278.326188 
L 301.42625 278.326188 
" style="fill: none; stroke: #0000ff; stroke-width: 1.5; stroke-linecap: square"/>
    </g>
    <g id="text_19">
     <!-- FPSL Weight Decay -->
     <g transform="translate(309.42625 281.826188) scale(0.1 -0.1)">
      <defs>
       <path id="DejaVuSans-57" d="M 213 4666 
L 850 4666 
L 1831 722 
L 2809 4666 
L 3519 4666 
L 4500 722 
L 5478 4666 
L 6119 4666 
L 4947 0 
L 4153 0 
L 3169 4050 
L 2175 0 
L 1381 0 
L 213 4666 
z
" transform="scale(0.015625)"/>
       <path id="DejaVuSans-67" d="M 2906 1791 
Q 2906 2416 2648 2759 
Q 2391 3103 1925 3103 
Q 1463 3103 1205 2759 
Q 947 2416 947 1791 
Q 947 1169 1205 825 
Q 1463 481 1925 481 
Q 2391 481 2648 825 
Q 2906 1169 2906 1791 
z
M 3481 434 
Q 3481 -459 3084 -895 
Q 2688 -1331 1869 -1331 
Q 1566 -1331 1297 -1286 
Q 1028 -1241 775 -1147 
L 775 -588 
Q 1028 -725 1275 -790 
Q 1522 -856 1778 -856 
Q 2344 -856 2625 -561 
Q 2906 -266 2906 331 
L 2906 616 
Q 2728 306 2450 153 
Q 2172 0 1784 0 
Q 1141 0 747 490 
Q 353 981 353 1791 
Q 353 2603 747 3093 
Q 1141 3584 1784 3584 
Q 2172 3584 2450 3431 
Q 2728 3278 2906 2969 
L 2906 3500 
L 3481 3500 
L 3481 434 
z
" transform="scale(0.015625)"/>
       <path id="DejaVuSans-44" d="M 1259 4147 
L 1259 519 
L 2022 519 
Q 2988 519 3436 956 
Q 3884 1394 3884 2338 
Q 3884 3275 3436 3711 
Q 2988 4147 2022 4147 
L 1259 4147 
z
M 628 4666 
L 1925 4666 
Q 3281 4666 3915 4102 
Q 4550 3538 4550 2338 
Q 4550 1131 3912 565 
Q 3275 0 1925 0 
L 628 0 
L 628 4666 
z
" transform="scale(0.015625)"/>
       <path id="DejaVuSans-79" d="M 2059 -325 
Q 1816 -950 1584 -1140 
Q 1353 -1331 966 -1331 
L 506 -1331 
L 506 -850 
L 844 -850 
Q 1081 -850 1212 -737 
Q 1344 -625 1503 -206 
L 1606 56 
L 191 3500 
L 800 3500 
L 1894 763 
L 2988 3500 
L 3597 3500 
L 2059 -325 
z
" transform="scale(0.015625)"/>
      </defs>
      <use xlink:href="#DejaVuSans-46"/>
      <use xlink:href="#DejaVuSans-50" x="57.519531"/>
      <use xlink:href="#DejaVuSans-53" x="117.822266"/>
      <use xlink:href="#DejaVuSans-4c" x="181.298828"/>
      <use xlink:href="#DejaVuSans-20" x="237.011719"/>
      <use xlink:href="#DejaVuSans-57" x="268.798828"/>
      <use xlink:href="#DejaVuSans-65" x="361.800781"/>
      <use xlink:href="#DejaVuSans-69" x="423.324219"/>
      <use xlink:href="#DejaVuSans-67" x="451.107422"/>
      <use xlink:href="#DejaVuSans-68" x="514.583984"/>
      <use xlink:href="#DejaVuSans-74" x="577.962891"/>
      <use xlink:href="#DejaVuSans-20" x="617.171875"/>
      <use xlink:href="#DejaVuSans-44" x="648.958984"/>
      <use xlink:href="#DejaVuSans-65" x="725.960938"/>
      <use xlink:href="#DejaVuSans-63" x="787.484375"/>
      <use xlink:href="#DejaVuSans-61" x="842.464844"/>
      <use xlink:href="#DejaVuSans-79" x="903.744141"/>
     </g>
    </g>
    <g id="line2d_20">
     <path d="M 281.42625 293.004312 
L 291.42625 293.004312 
L 301.42625 293.004312 
" style="fill: none; stroke: #ff0000; stroke-width: 1.5; stroke-linecap: square"/>
    </g>
    <g id="text_20">
     <!-- Interactive -->
     <g transform="translate(309.42625 296.504312) scale(0.1 -0.1)">
      <defs>
       <path id="DejaVuSans-49" d="M 628 4666 
L 1259 4666 
L 1259 0 
L 628 0 
L 628 4666 
z
" transform="scale(0.015625)"/>
      </defs>
      <use xlink:href="#DejaVuSans-49"/>
      <use xlink:href="#DejaVuSans-6e" x="29.492188"/>
      <use xlink:href="#DejaVuSans-74" x="92.871094"/>
      <use xlink:href="#DejaVuSans-65" x="132.080078"/>
      <use xlink:href="#DejaVuSans-72" x="193.603516"/>
      <use xlink:href="#DejaVuSans-61" x="234.716797"/>
      <use xlink:href="#DejaVuSans-63" x="295.996094"/>
      <use xlink:href="#DejaVuSans-74" x="350.976562"/>
      <use xlink:href="#DejaVuSans-69" x="390.185547"/>
      <use xlink:href="#DejaVuSans-76" x="417.96875"/>
      <use xlink:href="#DejaVuSans-65" x="477.148438"/>
     </g>
    </g>
   </g>
  </g>
 </g>
 <defs>
  <clipPath id="pc1de30a253">
   <rect x="57.6" y="41.472" width="357.12" height="266.112"/>
  </clipPath>
 </defs>
</svg>
