<?xml version="1.0" encoding="utf-8" standalone="no"?>
<!DOCTYPE svg PUBLIC "-//W3C//DTD SVG 1.1//EN"
  "http://www.w3.org/Graphics/SVG/1.1/DTD/svg11.dtd">
<svg xmlns:xlink="http://www.w3.org/1999/xlink" width="460.8pt" height="345.6pt" viewBox="0 0 460.8 345.6" xmlns="http://www.w3.org/2000/svg" version="1.1">
 <metadata>
  <rdf:RDF xmlns:dc="http://purl.org/dc/elements/1.1/" xmlns:cc="http://creativecommons.org/ns#" xmlns:rdf="http://www.w3.org/1999/02/22-rdf-syntax-ns#">
   <cc:Work>
    <dc:type rdf:resource="http://purl.org/dc/dcmitype/StillImage"/>
    <dc:date>2023-10-19T23:25:37.237823</dc:date>
    <dc:format>image/svg+xml</dc:format>
    <dc:creator>
     <cc:Agent>
      <dc:title>Matplotlib v3.7.1, https://matplotlib.org/</dc:title>
     </cc:Agent>
    </dc:creator>
   </cc:Work>
  </rdf:RDF>
 </metadata>
 <defs>
  <style type="text/css">*{stroke-linejoin: round; stroke-linecap: butt}</style>
 </defs>
 <g id="figure_1">
  <g id="patch_1">
   <path d="M 0 345.6 
L 460.8 345.6 
L 460.8 0 
L 0 0 
z
" style="fill: #ffffff"/>
  </g>
  <g id="axes_1">
   <g id="patch_2">
    <path d="M 57.6 307.584 
L 414.72 307.584 
L 414.72 41.472 
L 57.6 41.472 
z
" style="fill: #ffffff"/>
   </g>
   <g id="matplotlib.axis_1">
    <g id="xtick_1">
     <g id="line2d_1">
      <defs>
       <path id="m0de80243b4" d="M 0 0 
L 0 3.5 
" style="stroke: #000000; stroke-width: 0.8"/>
      </defs>
      <g>
       <use xlink:href="#m0de80243b4" x="73.832727" y="307.584" style="stroke: #000000; stroke-width: 0.8"/>
      </g>
     </g>
     <g id="text_1">
      <!-- 0 -->
      <g transform="translate(70.651477 322.182437) scale(0.1 -0.1)">
       <defs>
        <path id="DejaVuSans-30" d="M 2034 4250 
Q 1547 4250 1301 3770 
Q 1056 3291 1056 2328 
Q 1056 1369 1301 889 
Q 1547 409 2034 409 
Q 2525 409 2770 889 
Q 3016 1369 3016 2328 
Q 3016 3291 2770 3770 
Q 2525 4250 2034 4250 
z
M 2034 4750 
Q 2819 4750 3233 4129 
Q 3647 3509 3647 2328 
Q 3647 1150 3233 529 
Q 2819 -91 2034 -91 
Q 1250 -91 836 529 
Q 422 1150 422 2328 
Q 422 3509 836 4129 
Q 1250 4750 2034 4750 
z
" transform="scale(0.015625)"/>
       </defs>
       <use xlink:href="#DejaVuSans-30"/>
      </g>
     </g>
    </g>
    <g id="xtick_2">
     <g id="line2d_2">
      <g>
       <use xlink:href="#m0de80243b4" x="114.618474" y="307.584" style="stroke: #000000; stroke-width: 0.8"/>
      </g>
     </g>
     <g id="text_2">
      <!-- 25 -->
      <g transform="translate(108.255974 322.182437) scale(0.1 -0.1)">
       <defs>
        <path id="DejaVuSans-32" d="M 1228 531 
L 3431 531 
L 3431 0 
L 469 0 
L 469 531 
Q 828 903 1448 1529 
Q 2069 2156 2228 2338 
Q 2531 2678 2651 2914 
Q 2772 3150 2772 3378 
Q 2772 3750 2511 3984 
Q 2250 4219 1831 4219 
Q 1534 4219 1204 4116 
Q 875 4013 500 3803 
L 500 4441 
Q 881 4594 1212 4672 
Q 1544 4750 1819 4750 
Q 2544 4750 2975 4387 
Q 3406 4025 3406 3419 
Q 3406 3131 3298 2873 
Q 3191 2616 2906 2266 
Q 2828 2175 2409 1742 
Q 1991 1309 1228 531 
z
" transform="scale(0.015625)"/>
        <path id="DejaVuSans-35" d="M 691 4666 
L 3169 4666 
L 3169 4134 
L 1269 4134 
L 1269 2991 
Q 1406 3038 1543 3061 
Q 1681 3084 1819 3084 
Q 2600 3084 3056 2656 
Q 3513 2228 3513 1497 
Q 3513 744 3044 326 
Q 2575 -91 1722 -91 
Q 1428 -91 1123 -41 
Q 819 9 494 109 
L 494 744 
Q 775 591 1075 516 
Q 1375 441 1709 441 
Q 2250 441 2565 725 
Q 2881 1009 2881 1497 
Q 2881 1984 2565 2268 
Q 2250 2553 1709 2553 
Q 1456 2553 1204 2497 
Q 953 2441 691 2322 
L 691 4666 
z
" transform="scale(0.015625)"/>
       </defs>
       <use xlink:href="#DejaVuSans-32"/>
       <use xlink:href="#DejaVuSans-35" x="63.623047"/>
      </g>
     </g>
    </g>
    <g id="xtick_3">
     <g id="line2d_3">
      <g>
       <use xlink:href="#m0de80243b4" x="155.404221" y="307.584" style="stroke: #000000; stroke-width: 0.8"/>
      </g>
     </g>
     <g id="text_3">
      <!-- 50 -->
      <g transform="translate(149.041721 322.182437) scale(0.1 -0.1)">
       <use xlink:href="#DejaVuSans-35"/>
       <use xlink:href="#DejaVuSans-30" x="63.623047"/>
      </g>
     </g>
    </g>
    <g id="xtick_4">
     <g id="line2d_4">
      <g>
       <use xlink:href="#m0de80243b4" x="196.189968" y="307.584" style="stroke: #000000; stroke-width: 0.8"/>
      </g>
     </g>
     <g id="text_4">
      <!-- 75 -->
      <g transform="translate(189.827468 322.182437) scale(0.1 -0.1)">
       <defs>
        <path id="DejaVuSans-37" d="M 525 4666 
L 3525 4666 
L 3525 4397 
L 1831 0 
L 1172 0 
L 2766 4134 
L 525 4134 
L 525 4666 
z
" transform="scale(0.015625)"/>
       </defs>
       <use xlink:href="#DejaVuSans-37"/>
       <use xlink:href="#DejaVuSans-35" x="63.623047"/>
      </g>
     </g>
    </g>
    <g id="xtick_5">
     <g id="line2d_5">
      <g>
       <use xlink:href="#m0de80243b4" x="236.975715" y="307.584" style="stroke: #000000; stroke-width: 0.8"/>
      </g>
     </g>
     <g id="text_5">
      <!-- 100 -->
      <g transform="translate(227.431965 322.182437) scale(0.1 -0.1)">
       <defs>
        <path id="DejaVuSans-31" d="M 794 531 
L 1825 531 
L 1825 4091 
L 703 3866 
L 703 4441 
L 1819 4666 
L 2450 4666 
L 2450 531 
L 3481 531 
L 3481 0 
L 794 0 
L 794 531 
z
" transform="scale(0.015625)"/>
       </defs>
       <use xlink:href="#DejaVuSans-31"/>
       <use xlink:href="#DejaVuSans-30" x="63.623047"/>
       <use xlink:href="#DejaVuSans-30" x="127.246094"/>
      </g>
     </g>
    </g>
    <g id="xtick_6">
     <g id="line2d_6">
      <g>
       <use xlink:href="#m0de80243b4" x="277.761462" y="307.584" style="stroke: #000000; stroke-width: 0.8"/>
      </g>
     </g>
     <g id="text_6">
      <!-- 125 -->
      <g transform="translate(268.217712 322.182437) scale(0.1 -0.1)">
       <use xlink:href="#DejaVuSans-31"/>
       <use xlink:href="#DejaVuSans-32" x="63.623047"/>
       <use xlink:href="#DejaVuSans-35" x="127.246094"/>
      </g>
     </g>
    </g>
    <g id="xtick_7">
     <g id="line2d_7">
      <g>
       <use xlink:href="#m0de80243b4" x="318.547209" y="307.584" style="stroke: #000000; stroke-width: 0.8"/>
      </g>
     </g>
     <g id="text_7">
      <!-- 150 -->
      <g transform="translate(309.003459 322.182437) scale(0.1 -0.1)">
       <use xlink:href="#DejaVuSans-31"/>
       <use xlink:href="#DejaVuSans-35" x="63.623047"/>
       <use xlink:href="#DejaVuSans-30" x="127.246094"/>
      </g>
     </g>
    </g>
    <g id="xtick_8">
     <g id="line2d_8">
      <g>
       <use xlink:href="#m0de80243b4" x="359.332956" y="307.584" style="stroke: #000000; stroke-width: 0.8"/>
      </g>
     </g>
     <g id="text_8">
      <!-- 175 -->
      <g transform="translate(349.789206 322.182437) scale(0.1 -0.1)">
       <use xlink:href="#DejaVuSans-31"/>
       <use xlink:href="#DejaVuSans-37" x="63.623047"/>
       <use xlink:href="#DejaVuSans-35" x="127.246094"/>
      </g>
     </g>
    </g>
    <g id="xtick_9">
     <g id="line2d_9">
      <g>
       <use xlink:href="#m0de80243b4" x="400.118703" y="307.584" style="stroke: #000000; stroke-width: 0.8"/>
      </g>
     </g>
     <g id="text_9">
      <!-- 200 -->
      <g transform="translate(390.574953 322.182437) scale(0.1 -0.1)">
       <use xlink:href="#DejaVuSans-32"/>
       <use xlink:href="#DejaVuSans-30" x="63.623047"/>
       <use xlink:href="#DejaVuSans-30" x="127.246094"/>
      </g>
     </g>
    </g>
    <g id="text_10">
     <!-- epoch -->
     <g transform="translate(220.931875 335.860562) scale(0.1 -0.1)">
      <defs>
       <path id="DejaVuSans-65" d="M 3597 1894 
L 3597 1613 
L 953 1613 
Q 991 1019 1311 708 
Q 1631 397 2203 397 
Q 2534 397 2845 478 
Q 3156 559 3463 722 
L 3463 178 
Q 3153 47 2828 -22 
Q 2503 -91 2169 -91 
Q 1331 -91 842 396 
Q 353 884 353 1716 
Q 353 2575 817 3079 
Q 1281 3584 2069 3584 
Q 2775 3584 3186 3129 
Q 3597 2675 3597 1894 
z
M 3022 2063 
Q 3016 2534 2758 2815 
Q 2500 3097 2075 3097 
Q 1594 3097 1305 2825 
Q 1016 2553 972 2059 
L 3022 2063 
z
" transform="scale(0.015625)"/>
       <path id="DejaVuSans-70" d="M 1159 525 
L 1159 -1331 
L 581 -1331 
L 581 3500 
L 1159 3500 
L 1159 2969 
Q 1341 3281 1617 3432 
Q 1894 3584 2278 3584 
Q 2916 3584 3314 3078 
Q 3713 2572 3713 1747 
Q 3713 922 3314 415 
Q 2916 -91 2278 -91 
Q 1894 -91 1617 61 
Q 1341 213 1159 525 
z
M 3116 1747 
Q 3116 2381 2855 2742 
Q 2594 3103 2138 3103 
Q 1681 3103 1420 2742 
Q 1159 2381 1159 1747 
Q 1159 1113 1420 752 
Q 1681 391 2138 391 
Q 2594 391 2855 752 
Q 3116 1113 3116 1747 
z
" transform="scale(0.015625)"/>
       <path id="DejaVuSans-6f" d="M 1959 3097 
Q 1497 3097 1228 2736 
Q 959 2375 959 1747 
Q 959 1119 1226 758 
Q 1494 397 1959 397 
Q 2419 397 2687 759 
Q 2956 1122 2956 1747 
Q 2956 2369 2687 2733 
Q 2419 3097 1959 3097 
z
M 1959 3584 
Q 2709 3584 3137 3096 
Q 3566 2609 3566 1747 
Q 3566 888 3137 398 
Q 2709 -91 1959 -91 
Q 1206 -91 779 398 
Q 353 888 353 1747 
Q 353 2609 779 3096 
Q 1206 3584 1959 3584 
z
" transform="scale(0.015625)"/>
       <path id="DejaVuSans-63" d="M 3122 3366 
L 3122 2828 
Q 2878 2963 2633 3030 
Q 2388 3097 2138 3097 
Q 1578 3097 1268 2742 
Q 959 2388 959 1747 
Q 959 1106 1268 751 
Q 1578 397 2138 397 
Q 2388 397 2633 464 
Q 2878 531 3122 666 
L 3122 134 
Q 2881 22 2623 -34 
Q 2366 -91 2075 -91 
Q 1284 -91 818 406 
Q 353 903 353 1747 
Q 353 2603 823 3093 
Q 1294 3584 2113 3584 
Q 2378 3584 2631 3529 
Q 2884 3475 3122 3366 
z
" transform="scale(0.015625)"/>
       <path id="DejaVuSans-68" d="M 3513 2113 
L 3513 0 
L 2938 0 
L 2938 2094 
Q 2938 2591 2744 2837 
Q 2550 3084 2163 3084 
Q 1697 3084 1428 2787 
Q 1159 2491 1159 1978 
L 1159 0 
L 581 0 
L 581 4863 
L 1159 4863 
L 1159 2956 
Q 1366 3272 1645 3428 
Q 1925 3584 2291 3584 
Q 2894 3584 3203 3211 
Q 3513 2838 3513 2113 
z
" transform="scale(0.015625)"/>
      </defs>
      <use xlink:href="#DejaVuSans-65"/>
      <use xlink:href="#DejaVuSans-70" x="61.523438"/>
      <use xlink:href="#DejaVuSans-6f" x="125"/>
      <use xlink:href="#DejaVuSans-63" x="186.181641"/>
      <use xlink:href="#DejaVuSans-68" x="241.162109"/>
     </g>
    </g>
   </g>
   <g id="matplotlib.axis_2">
    <g id="ytick_1">
     <g id="line2d_10">
      <defs>
       <path id="m146ad8a804" d="M 0 0 
L -3.5 0 
" style="stroke: #000000; stroke-width: 0.8"/>
      </defs>
      <g>
       <use xlink:href="#m146ad8a804" x="57.6" y="295.488" style="stroke: #000000; stroke-width: 0.8"/>
      </g>
     </g>
     <g id="text_11">
      <!-- 75 -->
      <g transform="translate(37.875 299.287219) scale(0.1 -0.1)">
       <use xlink:href="#DejaVuSans-37"/>
       <use xlink:href="#DejaVuSans-35" x="63.623047"/>
      </g>
     </g>
    </g>
    <g id="ytick_2">
     <g id="line2d_11">
      <g>
       <use xlink:href="#m146ad8a804" x="57.6" y="247.104" style="stroke: #000000; stroke-width: 0.8"/>
      </g>
     </g>
     <g id="text_12">
      <!-- 80 -->
      <g transform="translate(37.875 250.903219) scale(0.1 -0.1)">
       <defs>
        <path id="DejaVuSans-38" d="M 2034 2216 
Q 1584 2216 1326 1975 
Q 1069 1734 1069 1313 
Q 1069 891 1326 650 
Q 1584 409 2034 409 
Q 2484 409 2743 651 
Q 3003 894 3003 1313 
Q 3003 1734 2745 1975 
Q 2488 2216 2034 2216 
z
M 1403 2484 
Q 997 2584 770 2862 
Q 544 3141 544 3541 
Q 544 4100 942 4425 
Q 1341 4750 2034 4750 
Q 2731 4750 3128 4425 
Q 3525 4100 3525 3541 
Q 3525 3141 3298 2862 
Q 3072 2584 2669 2484 
Q 3125 2378 3379 2068 
Q 3634 1759 3634 1313 
Q 3634 634 3220 271 
Q 2806 -91 2034 -91 
Q 1263 -91 848 271 
Q 434 634 434 1313 
Q 434 1759 690 2068 
Q 947 2378 1403 2484 
z
M 1172 3481 
Q 1172 3119 1398 2916 
Q 1625 2713 2034 2713 
Q 2441 2713 2670 2916 
Q 2900 3119 2900 3481 
Q 2900 3844 2670 4047 
Q 2441 4250 2034 4250 
Q 1625 4250 1398 4047 
Q 1172 3844 1172 3481 
z
" transform="scale(0.015625)"/>
       </defs>
       <use xlink:href="#DejaVuSans-38"/>
       <use xlink:href="#DejaVuSans-30" x="63.623047"/>
      </g>
     </g>
    </g>
    <g id="ytick_3">
     <g id="line2d_12">
      <g>
       <use xlink:href="#m146ad8a804" x="57.6" y="198.72" style="stroke: #000000; stroke-width: 0.8"/>
      </g>
     </g>
     <g id="text_13">
      <!-- 85 -->
      <g transform="translate(37.875 202.519219) scale(0.1 -0.1)">
       <use xlink:href="#DejaVuSans-38"/>
       <use xlink:href="#DejaVuSans-35" x="63.623047"/>
      </g>
     </g>
    </g>
    <g id="ytick_4">
     <g id="line2d_13">
      <g>
       <use xlink:href="#m146ad8a804" x="57.6" y="150.336" style="stroke: #000000; stroke-width: 0.8"/>
      </g>
     </g>
     <g id="text_14">
      <!-- 90 -->
      <g transform="translate(37.875 154.135219) scale(0.1 -0.1)">
       <defs>
        <path id="DejaVuSans-39" d="M 703 97 
L 703 672 
Q 941 559 1184 500 
Q 1428 441 1663 441 
Q 2288 441 2617 861 
Q 2947 1281 2994 2138 
Q 2813 1869 2534 1725 
Q 2256 1581 1919 1581 
Q 1219 1581 811 2004 
Q 403 2428 403 3163 
Q 403 3881 828 4315 
Q 1253 4750 1959 4750 
Q 2769 4750 3195 4129 
Q 3622 3509 3622 2328 
Q 3622 1225 3098 567 
Q 2575 -91 1691 -91 
Q 1453 -91 1209 -44 
Q 966 3 703 97 
z
M 1959 2075 
Q 2384 2075 2632 2365 
Q 2881 2656 2881 3163 
Q 2881 3666 2632 3958 
Q 2384 4250 1959 4250 
Q 1534 4250 1286 3958 
Q 1038 3666 1038 3163 
Q 1038 2656 1286 2365 
Q 1534 2075 1959 2075 
z
" transform="scale(0.015625)"/>
       </defs>
       <use xlink:href="#DejaVuSans-39"/>
       <use xlink:href="#DejaVuSans-30" x="63.623047"/>
      </g>
     </g>
    </g>
    <g id="ytick_5">
     <g id="line2d_14">
      <g>
       <use xlink:href="#m146ad8a804" x="57.6" y="101.952" style="stroke: #000000; stroke-width: 0.8"/>
      </g>
     </g>
     <g id="text_15">
      <!-- 95 -->
      <g transform="translate(37.875 105.751219) scale(0.1 -0.1)">
       <use xlink:href="#DejaVuSans-39"/>
       <use xlink:href="#DejaVuSans-35" x="63.623047"/>
      </g>
     </g>
    </g>
    <g id="ytick_6">
     <g id="line2d_15">
      <g>
       <use xlink:href="#m146ad8a804" x="57.6" y="53.568" style="stroke: #000000; stroke-width: 0.8"/>
      </g>
     </g>
     <g id="text_16">
      <!-- 100 -->
      <g transform="translate(31.5125 57.367219) scale(0.1 -0.1)">
       <use xlink:href="#DejaVuSans-31"/>
       <use xlink:href="#DejaVuSans-30" x="63.623047"/>
       <use xlink:href="#DejaVuSans-30" x="127.246094"/>
      </g>
     </g>
    </g>
    <g id="text_17">
     <!-- valid mAP -->
     <g transform="translate(25.432812 199.398313) rotate(-90) scale(0.1 -0.1)">
      <defs>
       <path id="DejaVuSans-76" d="M 191 3500 
L 800 3500 
L 1894 563 
L 2988 3500 
L 3597 3500 
L 2284 0 
L 1503 0 
L 191 3500 
z
" transform="scale(0.015625)"/>
       <path id="DejaVuSans-61" d="M 2194 1759 
Q 1497 1759 1228 1600 
Q 959 1441 959 1056 
Q 959 750 1161 570 
Q 1363 391 1709 391 
Q 2188 391 2477 730 
Q 2766 1069 2766 1631 
L 2766 1759 
L 2194 1759 
z
M 3341 1997 
L 3341 0 
L 2766 0 
L 2766 531 
Q 2569 213 2275 61 
Q 1981 -91 1556 -91 
Q 1019 -91 701 211 
Q 384 513 384 1019 
Q 384 1609 779 1909 
Q 1175 2209 1959 2209 
L 2766 2209 
L 2766 2266 
Q 2766 2663 2505 2880 
Q 2244 3097 1772 3097 
Q 1472 3097 1187 3025 
Q 903 2953 641 2809 
L 641 3341 
Q 956 3463 1253 3523 
Q 1550 3584 1831 3584 
Q 2591 3584 2966 3190 
Q 3341 2797 3341 1997 
z
" transform="scale(0.015625)"/>
       <path id="DejaVuSans-6c" d="M 603 4863 
L 1178 4863 
L 1178 0 
L 603 0 
L 603 4863 
z
" transform="scale(0.015625)"/>
       <path id="DejaVuSans-69" d="M 603 3500 
L 1178 3500 
L 1178 0 
L 603 0 
L 603 3500 
z
M 603 4863 
L 1178 4863 
L 1178 4134 
L 603 4134 
L 603 4863 
z
" transform="scale(0.015625)"/>
       <path id="DejaVuSans-64" d="M 2906 2969 
L 2906 4863 
L 3481 4863 
L 3481 0 
L 2906 0 
L 2906 525 
Q 2725 213 2448 61 
Q 2172 -91 1784 -91 
Q 1150 -91 751 415 
Q 353 922 353 1747 
Q 353 2572 751 3078 
Q 1150 3584 1784 3584 
Q 2172 3584 2448 3432 
Q 2725 3281 2906 2969 
z
M 947 1747 
Q 947 1113 1208 752 
Q 1469 391 1925 391 
Q 2381 391 2643 752 
Q 2906 1113 2906 1747 
Q 2906 2381 2643 2742 
Q 2381 3103 1925 3103 
Q 1469 3103 1208 2742 
Q 947 2381 947 1747 
z
" transform="scale(0.015625)"/>
       <path id="DejaVuSans-20" transform="scale(0.015625)"/>
       <path id="DejaVuSans-6d" d="M 3328 2828 
Q 3544 3216 3844 3400 
Q 4144 3584 4550 3584 
Q 5097 3584 5394 3201 
Q 5691 2819 5691 2113 
L 5691 0 
L 5113 0 
L 5113 2094 
Q 5113 2597 4934 2840 
Q 4756 3084 4391 3084 
Q 3944 3084 3684 2787 
Q 3425 2491 3425 1978 
L 3425 0 
L 2847 0 
L 2847 2094 
Q 2847 2600 2669 2842 
Q 2491 3084 2119 3084 
Q 1678 3084 1418 2786 
Q 1159 2488 1159 1978 
L 1159 0 
L 581 0 
L 581 3500 
L 1159 3500 
L 1159 2956 
Q 1356 3278 1631 3431 
Q 1906 3584 2284 3584 
Q 2666 3584 2933 3390 
Q 3200 3197 3328 2828 
z
" transform="scale(0.015625)"/>
       <path id="DejaVuSans-41" d="M 2188 4044 
L 1331 1722 
L 3047 1722 
L 2188 4044 
z
M 1831 4666 
L 2547 4666 
L 4325 0 
L 3669 0 
L 3244 1197 
L 1141 1197 
L 716 0 
L 50 0 
L 1831 4666 
z
" transform="scale(0.015625)"/>
       <path id="DejaVuSans-50" d="M 1259 4147 
L 1259 2394 
L 2053 2394 
Q 2494 2394 2734 2622 
Q 2975 2850 2975 3272 
Q 2975 3691 2734 3919 
Q 2494 4147 2053 4147 
L 1259 4147 
z
M 628 4666 
L 2053 4666 
Q 2838 4666 3239 4311 
Q 3641 3956 3641 3272 
Q 3641 2581 3239 2228 
Q 2838 1875 2053 1875 
L 1259 1875 
L 1259 0 
L 628 0 
L 628 4666 
z
" transform="scale(0.015625)"/>
      </defs>
      <use xlink:href="#DejaVuSans-76"/>
      <use xlink:href="#DejaVuSans-61" x="59.179688"/>
      <use xlink:href="#DejaVuSans-6c" x="120.458984"/>
      <use xlink:href="#DejaVuSans-69" x="148.242188"/>
      <use xlink:href="#DejaVuSans-64" x="176.025391"/>
      <use xlink:href="#DejaVuSans-20" x="239.501953"/>
      <use xlink:href="#DejaVuSans-6d" x="271.289062"/>
      <use xlink:href="#DejaVuSans-41" x="368.701172"/>
      <use xlink:href="#DejaVuSans-50" x="437.109375"/>
     </g>
    </g>
   </g>
   <g id="line2d_16">
    <path d="M 73.832727 80.448082 
L 75.464157 187.968041 
L 77.095587 80.448082 
L 78.727017 201.408082 
L 80.358447 255.167951 
L 81.989877 120.768057 
L 83.621307 134.207951 
L 85.252736 201.408082 
L 86.884166 147.648066 
L 88.515596 120.768057 
L 90.147026 120.768057 
L 91.778456 228.288016 
L 93.409886 187.968041 
L 95.041316 120.768057 
L 96.672746 120.768057 
L 98.304175 228.288016 
L 99.935605 120.768057 
L 104.829895 120.768057 
L 106.461325 80.448082 
L 108.092755 187.968041 
L 109.724185 80.448082 
L 111.355614 120.768057 
L 112.987044 120.768057 
L 114.618474 147.648066 
L 116.249904 147.648066 
L 117.881334 120.768057 
L 119.512764 147.648066 
L 121.144194 201.408082 
L 122.775624 120.768057 
L 126.038483 120.768057 
L 127.669913 147.648066 
L 129.301343 147.648066 
L 130.932773 120.768057 
L 132.564203 80.448082 
L 134.195633 80.448082 
L 135.827063 120.768057 
L 137.458492 107.328016 
L 139.089922 120.768057 
L 140.721352 80.448082 
L 142.352782 120.768057 
L 147.247072 120.768057 
L 148.878502 201.408082 
L 150.509931 120.768057 
L 157.035651 120.768057 
L 158.667081 201.408082 
L 160.298511 120.768057 
L 163.56137 120.768057 
L 165.1928 80.448082 
L 166.82423 80.448082 
L 168.45566 107.328016 
L 170.08709 80.448082 
L 171.71852 80.448082 
L 173.34995 228.288016 
L 174.98138 147.648066 
L 176.61281 120.768057 
L 178.244239 80.448082 
L 179.875669 255.167951 
L 181.507099 80.448082 
L 183.138529 80.448082 
L 184.769959 120.768057 
L 189.664249 120.768057 
L 191.295678 80.448082 
L 192.927108 228.288016 
L 194.558538 80.448082 
L 197.821398 80.448082 
L 199.452828 147.648066 
L 201.084258 80.448082 
L 202.715688 80.448082 
L 204.347117 120.768057 
L 205.978547 147.648066 
L 207.609977 147.648066 
L 209.241407 201.408082 
L 210.872837 161.088033 
L 212.504267 80.448082 
L 214.135697 120.768057 
L 215.767127 80.448082 
L 217.398556 80.448082 
L 219.029986 228.288016 
L 220.661416 80.448082 
L 222.292846 147.648066 
L 223.924276 53.568 
L 225.555706 120.768057 
L 227.187136 80.448082 
L 228.818566 120.768057 
L 230.449995 80.448082 
L 235.344285 80.448082 
L 236.975715 147.648066 
L 238.607145 107.328016 
L 240.238575 107.328016 
L 241.870005 120.768057 
L 243.501434 80.448082 
L 245.132864 120.768057 
L 246.764294 80.448082 
L 248.395724 147.648066 
L 250.027154 80.448082 
L 251.658584 80.448082 
L 253.290014 120.768057 
L 256.552873 120.768057 
L 258.184303 147.648066 
L 259.815733 80.448082 
L 263.078593 161.088033 
L 264.710023 80.448082 
L 266.341453 107.328016 
L 267.972883 147.648066 
L 269.604312 80.448082 
L 271.235742 214.848049 
L 274.498602 80.448082 
L 276.130032 80.448082 
L 277.761462 161.088033 
L 279.392892 228.288016 
L 281.024322 120.768057 
L 282.655751 107.328016 
L 284.287181 53.568 
L 285.918611 107.328016 
L 287.550041 80.448082 
L 289.181471 80.448082 
L 290.812901 120.768057 
L 292.444331 80.448082 
L 294.075761 80.448082 
L 295.70719 120.768057 
L 297.33862 120.768057 
L 298.97005 201.408082 
L 300.60148 147.648066 
L 302.23291 120.768057 
L 303.86434 80.448082 
L 307.1272 161.088033 
L 310.390059 80.448082 
L 312.021489 107.328016 
L 313.652919 201.408082 
L 315.284349 80.448082 
L 316.915779 80.448082 
L 318.547209 120.768057 
L 320.178639 120.768057 
L 321.810069 80.448082 
L 323.441498 120.768057 
L 325.072928 80.448082 
L 326.704358 147.648066 
L 328.335788 147.648066 
L 329.967218 120.768057 
L 336.492937 120.768057 
L 338.124367 80.448082 
L 339.755797 107.328016 
L 341.387227 120.768057 
L 343.018657 80.448082 
L 344.650087 120.768057 
L 346.281517 80.448082 
L 347.912947 228.288016 
L 349.544376 147.648066 
L 351.175806 147.648066 
L 352.807236 80.448082 
L 354.438666 120.768057 
L 356.070096 120.768057 
L 357.701526 80.448082 
L 359.332956 201.408082 
L 360.964386 120.768057 
L 362.595815 80.448082 
L 364.227245 120.768057 
L 365.858675 80.448082 
L 367.490105 120.768057 
L 369.121535 80.448082 
L 370.752965 201.408082 
L 372.384395 147.648066 
L 374.015825 80.448082 
L 375.647254 120.768057 
L 377.278684 80.448082 
L 378.910114 107.328016 
L 380.541544 120.768057 
L 382.172974 201.408082 
L 383.804404 120.768057 
L 385.435834 120.768057 
L 387.067264 80.448082 
L 388.698693 80.448082 
L 390.330123 120.768057 
L 391.961553 107.328016 
L 393.592983 120.768057 
L 395.224413 80.448082 
L 396.855843 107.328016 
L 398.487273 107.328016 
L 398.487273 107.328016 
" clip-path="url(#p3da2aeee21)" style="fill: none; stroke: #008000; stroke-width: 1.5; stroke-linecap: square"/>
   </g>
   <g id="line2d_17">
    <path d="M 73.832727 228.288016 
L 75.464157 255.167951 
L 77.095587 255.167951 
L 78.727017 187.968041 
L 80.358447 147.648066 
L 81.989877 120.768057 
L 83.621307 120.768057 
L 85.252736 80.448082 
L 86.884166 187.968041 
L 88.515596 147.648066 
L 90.147026 120.768057 
L 91.778456 120.768057 
L 93.409886 228.288016 
L 95.041316 120.768057 
L 96.672746 107.328016 
L 98.304175 120.768057 
L 99.935605 120.768057 
L 101.567035 147.648066 
L 103.198465 228.288016 
L 104.829895 228.288016 
L 106.461325 201.408082 
L 109.724185 201.408082 
L 111.355614 120.768057 
L 114.618474 120.768057 
L 116.249904 147.648066 
L 117.881334 120.768057 
L 119.512764 147.648066 
L 121.144194 120.768057 
L 122.775624 53.568 
L 124.407053 201.408082 
L 126.038483 228.288016 
L 127.669913 147.648066 
L 129.301343 147.648066 
L 130.932773 228.288016 
L 132.564203 120.768057 
L 135.827063 120.768057 
L 137.458492 201.408082 
L 139.089922 201.408082 
L 140.721352 120.768057 
L 143.984212 120.768057 
L 145.615642 201.408082 
L 147.247072 107.328016 
L 148.878502 120.768057 
L 150.509931 147.648066 
L 152.141361 147.648066 
L 153.772791 161.088033 
L 155.404221 80.448082 
L 157.035651 147.648066 
L 158.667081 228.288016 
L 160.298511 228.288016 
L 161.929941 80.448082 
L 163.56137 120.768057 
L 165.1928 201.408082 
L 166.82423 201.408082 
L 168.45566 228.288016 
L 170.08709 80.448082 
L 171.71852 107.328016 
L 173.34995 161.088033 
L 174.98138 80.448082 
L 176.61281 228.288016 
L 178.244239 187.968041 
L 179.875669 161.088033 
L 183.138529 80.448082 
L 184.769959 120.768057 
L 186.401389 228.288016 
L 188.032819 228.288016 
L 189.664249 147.648066 
L 191.295678 120.768057 
L 192.927108 120.768057 
L 194.558538 201.408082 
L 196.189968 120.768057 
L 197.821398 228.288016 
L 199.452828 80.448082 
L 201.084258 120.768057 
L 202.715688 228.288016 
L 204.347117 120.768057 
L 205.978547 80.448082 
L 207.609977 255.167951 
L 209.241407 228.288016 
L 210.872837 228.288016 
L 212.504267 120.768057 
L 214.135697 120.768057 
L 215.767127 201.408082 
L 217.398556 201.408082 
L 219.029986 120.768057 
L 220.661416 80.448082 
L 222.292846 295.488 
L 223.924276 228.288016 
L 225.555706 80.448082 
L 227.187136 147.648066 
L 228.818566 201.408082 
L 230.449995 201.408082 
L 232.081425 147.648066 
L 233.712855 107.328016 
L 235.344285 120.768057 
L 236.975715 120.768057 
L 238.607145 147.648066 
L 240.238575 120.768057 
L 241.870005 107.328016 
L 243.501434 80.448082 
L 245.132864 147.648066 
L 246.764294 80.448082 
L 248.395724 201.408082 
L 250.027154 147.648066 
L 251.658584 201.408082 
L 253.290014 80.448082 
L 254.921444 201.408082 
L 256.552873 80.448082 
L 258.184303 201.408082 
L 259.815733 161.088033 
L 261.447163 201.408082 
L 263.078593 255.167951 
L 264.710023 147.648066 
L 266.341453 80.448082 
L 267.972883 120.768057 
L 269.604312 80.448082 
L 271.235742 147.648066 
L 272.867172 147.648066 
L 274.498602 161.088033 
L 276.130032 120.768057 
L 277.761462 107.328016 
L 279.392892 80.448082 
L 281.024322 228.288016 
L 282.655751 120.768057 
L 284.287181 120.768057 
L 285.918611 228.288016 
L 287.550041 120.768057 
L 289.181471 120.768057 
L 290.812901 201.408082 
L 292.444331 201.408082 
L 294.075761 120.768057 
L 295.70719 161.088033 
L 297.33862 161.088033 
L 298.97005 187.968041 
L 300.60148 80.448082 
L 302.23291 80.448082 
L 303.86434 268.608066 
L 305.49577 255.167951 
L 307.1272 120.768057 
L 308.75863 187.968041 
L 310.390059 80.448082 
L 312.021489 201.408082 
L 313.652919 187.968041 
L 315.284349 120.768057 
L 316.915779 120.768057 
L 318.547209 80.448082 
L 320.178639 228.288016 
L 321.810069 228.288016 
L 325.072928 147.648066 
L 326.704358 295.488 
L 328.335788 228.288016 
L 329.967218 147.648066 
L 331.598648 147.648066 
L 333.230078 120.768057 
L 334.861508 201.408082 
L 336.492937 161.088033 
L 338.124367 187.968041 
L 339.755797 120.768057 
L 341.387227 120.768057 
L 343.018657 214.848049 
L 344.650087 80.448082 
L 346.281517 255.167951 
L 347.912947 201.408082 
L 349.544376 228.288016 
L 351.175806 201.408082 
L 352.807236 120.768057 
L 354.438666 161.088033 
L 356.070096 228.288016 
L 357.701526 268.608066 
L 359.332956 187.968041 
L 360.964386 120.768057 
L 362.595815 147.648066 
L 364.227245 201.408082 
L 365.858675 107.328016 
L 367.490105 214.848049 
L 369.121535 201.408082 
L 370.752965 107.328016 
L 372.384395 120.768057 
L 375.647254 201.408082 
L 377.278684 201.408082 
L 378.910114 147.648066 
L 380.541544 255.167951 
L 382.172974 161.088033 
L 383.804404 201.408082 
L 385.435834 120.768057 
L 387.067264 187.968041 
L 388.698693 201.408082 
L 390.330123 228.288016 
L 391.961553 134.207951 
L 393.592983 201.408082 
L 395.224413 228.288016 
L 396.855843 268.608066 
L 398.487273 120.768057 
L 398.487273 120.768057 
" clip-path="url(#p3da2aeee21)" style="fill: none; stroke: #0000ff; stroke-width: 1.5; stroke-linecap: square"/>
   </g>
   <g id="line2d_18">
    <path d="M 73.832727 255.167951 
L 75.464157 255.167951 
L 77.095587 228.288016 
L 78.727017 255.167951 
L 80.358447 147.648066 
L 85.252736 147.648066 
L 86.884166 53.568 
L 88.515596 120.768057 
L 90.147026 147.648066 
L 91.778456 147.648066 
L 95.041316 228.288016 
L 96.672746 228.288016 
L 99.935605 147.648066 
L 101.567035 201.408082 
L 103.198465 120.768057 
L 104.829895 120.768057 
L 106.461325 147.648066 
L 109.724185 147.648066 
L 111.355614 187.968041 
L 112.987044 120.768057 
L 114.618474 228.288016 
L 116.249904 120.768057 
L 117.881334 201.408082 
L 119.512764 161.088033 
L 121.144194 255.167951 
L 122.775624 120.768057 
L 124.407053 268.608066 
L 126.038483 187.968041 
L 127.669913 187.968041 
L 129.301343 53.568 
L 130.932773 187.968041 
L 132.564203 187.968041 
L 134.195633 147.648066 
L 135.827063 120.768057 
L 137.458492 161.088033 
L 139.089922 228.288016 
L 140.721352 147.648066 
L 143.984212 147.648066 
L 145.615642 255.167951 
L 147.247072 147.648066 
L 148.878502 120.768057 
L 150.509931 147.648066 
L 152.141361 201.408082 
L 153.772791 120.768057 
L 155.404221 147.648066 
L 157.035651 268.608066 
L 158.667081 228.288016 
L 160.298511 120.768057 
L 161.929941 228.288016 
L 163.56137 147.648066 
L 165.1928 120.768057 
L 166.82423 120.768057 
L 168.45566 228.288016 
L 170.08709 147.648066 
L 171.71852 120.768057 
L 173.34995 255.167951 
L 174.98138 255.167951 
L 176.61281 120.768057 
L 179.875669 120.768057 
L 181.507099 80.448082 
L 183.138529 147.648066 
L 184.769959 201.408082 
L 186.401389 80.448082 
L 188.032819 120.768057 
L 189.664249 187.968041 
L 191.295678 187.968041 
L 192.927108 147.648066 
L 194.558538 120.768057 
L 196.189968 228.288016 
L 197.821398 147.648066 
L 199.452828 120.768057 
L 201.084258 120.768057 
L 202.715688 255.167951 
L 204.347117 147.648066 
L 205.978547 147.648066 
L 207.609977 255.167951 
L 209.241407 255.167951 
L 210.872837 268.608066 
L 212.504267 201.408082 
L 214.135697 80.448082 
L 215.767127 147.648066 
L 217.398556 201.408082 
L 219.029986 120.768057 
L 220.661416 228.288016 
L 222.292846 80.448082 
L 223.924276 80.448082 
L 225.555706 147.648066 
L 227.187136 228.288016 
L 228.818566 107.328016 
L 230.449995 80.448082 
L 232.081425 228.288016 
L 233.712855 147.648066 
L 235.344285 161.088033 
L 236.975715 228.288016 
L 238.607145 147.648066 
L 240.238575 255.167951 
L 241.870005 107.328016 
L 243.501434 120.768057 
L 245.132864 255.167951 
L 246.764294 228.288016 
L 248.395724 228.288016 
L 250.027154 255.167951 
L 251.658584 161.088033 
L 253.290014 295.488 
L 254.921444 80.448082 
L 256.552873 107.328016 
L 258.184303 147.648066 
L 259.815733 255.167951 
L 261.447163 107.328016 
L 263.078593 120.768057 
L 264.710023 120.768057 
L 266.341453 161.088033 
L 267.972883 228.288016 
L 269.604312 255.167951 
L 271.235742 147.648066 
L 272.867172 80.448082 
L 274.498602 80.448082 
L 276.130032 228.288016 
L 277.761462 187.968041 
L 279.392892 187.968041 
L 281.024322 201.408082 
L 282.655751 295.488 
L 284.287181 187.968041 
L 285.918611 53.568 
L 287.550041 120.768057 
L 289.181471 201.408082 
L 290.812901 120.768057 
L 292.444331 187.968041 
L 294.075761 107.328016 
L 295.70719 120.768057 
L 297.33862 107.328016 
L 298.97005 147.648066 
L 300.60148 147.648066 
L 302.23291 228.288016 
L 303.86434 187.968041 
L 305.49577 120.768057 
L 307.1272 201.408082 
L 308.75863 120.768057 
L 310.390059 161.088033 
L 312.021489 187.968041 
L 313.652919 228.288016 
L 315.284349 120.768057 
L 316.915779 147.648066 
L 318.547209 120.768057 
L 320.178639 255.167951 
L 321.810069 147.648066 
L 323.441498 228.288016 
L 325.072928 120.768057 
L 326.704358 201.408082 
L 328.335788 147.648066 
L 329.967218 295.488 
L 331.598648 147.648066 
L 333.230078 120.768057 
L 333.230078 120.768057 
" clip-path="url(#p3da2aeee21)" style="fill: none; stroke: #ff0000; stroke-width: 1.5; stroke-linecap: square"/>
   </g>
   <g id="patch_3">
    <path d="M 57.6 307.584 
L 57.6 41.472 
" style="fill: none; stroke: #000000; stroke-width: 0.8; stroke-linejoin: miter; stroke-linecap: square"/>
   </g>
   <g id="patch_4">
    <path d="M 414.72 307.584 
L 414.72 41.472 
" style="fill: none; stroke: #000000; stroke-width: 0.8; stroke-linejoin: miter; stroke-linecap: square"/>
   </g>
   <g id="patch_5">
    <path d="M 57.6 307.584 
L 414.72 307.584 
" style="fill: none; stroke: #000000; stroke-width: 0.8; stroke-linejoin: miter; stroke-linecap: square"/>
   </g>
   <g id="patch_6">
    <path d="M 57.6 41.472 
L 414.72 41.472 
" style="fill: none; stroke: #000000; stroke-width: 0.8; stroke-linejoin: miter; stroke-linecap: square"/>
   </g>
   <g id="text_18">
    <!-- The relation between mAP and total epochs of host/9 -->
    <g transform="translate(76.392188 35.472) scale(0.12 -0.12)">
     <defs>
      <path id="DejaVuSans-54" d="M -19 4666 
L 3928 4666 
L 3928 4134 
L 2272 4134 
L 2272 0 
L 1638 0 
L 1638 4134 
L -19 4134 
L -19 4666 
z
" transform="scale(0.015625)"/>
      <path id="DejaVuSans-72" d="M 2631 2963 
Q 2534 3019 2420 3045 
Q 2306 3072 2169 3072 
Q 1681 3072 1420 2755 
Q 1159 2438 1159 1844 
L 1159 0 
L 581 0 
L 581 3500 
L 1159 3500 
L 1159 2956 
Q 1341 3275 1631 3429 
Q 1922 3584 2338 3584 
Q 2397 3584 2469 3576 
Q 2541 3569 2628 3553 
L 2631 2963 
z
" transform="scale(0.015625)"/>
      <path id="DejaVuSans-74" d="M 1172 4494 
L 1172 3500 
L 2356 3500 
L 2356 3053 
L 1172 3053 
L 1172 1153 
Q 1172 725 1289 603 
Q 1406 481 1766 481 
L 2356 481 
L 2356 0 
L 1766 0 
Q 1100 0 847 248 
Q 594 497 594 1153 
L 594 3053 
L 172 3053 
L 172 3500 
L 594 3500 
L 594 4494 
L 1172 4494 
z
" transform="scale(0.015625)"/>
      <path id="DejaVuSans-6e" d="M 3513 2113 
L 3513 0 
L 2938 0 
L 2938 2094 
Q 2938 2591 2744 2837 
Q 2550 3084 2163 3084 
Q 1697 3084 1428 2787 
Q 1159 2491 1159 1978 
L 1159 0 
L 581 0 
L 581 3500 
L 1159 3500 
L 1159 2956 
Q 1366 3272 1645 3428 
Q 1925 3584 2291 3584 
Q 2894 3584 3203 3211 
Q 3513 2838 3513 2113 
z
" transform="scale(0.015625)"/>
      <path id="DejaVuSans-62" d="M 3116 1747 
Q 3116 2381 2855 2742 
Q 2594 3103 2138 3103 
Q 1681 3103 1420 2742 
Q 1159 2381 1159 1747 
Q 1159 1113 1420 752 
Q 1681 391 2138 391 
Q 2594 391 2855 752 
Q 3116 1113 3116 1747 
z
M 1159 2969 
Q 1341 3281 1617 3432 
Q 1894 3584 2278 3584 
Q 2916 3584 3314 3078 
Q 3713 2572 3713 1747 
Q 3713 922 3314 415 
Q 2916 -91 2278 -91 
Q 1894 -91 1617 61 
Q 1341 213 1159 525 
L 1159 0 
L 581 0 
L 581 4863 
L 1159 4863 
L 1159 2969 
z
" transform="scale(0.015625)"/>
      <path id="DejaVuSans-77" d="M 269 3500 
L 844 3500 
L 1563 769 
L 2278 3500 
L 2956 3500 
L 3675 769 
L 4391 3500 
L 4966 3500 
L 4050 0 
L 3372 0 
L 2619 2869 
L 1863 0 
L 1184 0 
L 269 3500 
z
" transform="scale(0.015625)"/>
      <path id="DejaVuSans-73" d="M 2834 3397 
L 2834 2853 
Q 2591 2978 2328 3040 
Q 2066 3103 1784 3103 
Q 1356 3103 1142 2972 
Q 928 2841 928 2578 
Q 928 2378 1081 2264 
Q 1234 2150 1697 2047 
L 1894 2003 
Q 2506 1872 2764 1633 
Q 3022 1394 3022 966 
Q 3022 478 2636 193 
Q 2250 -91 1575 -91 
Q 1294 -91 989 -36 
Q 684 19 347 128 
L 347 722 
Q 666 556 975 473 
Q 1284 391 1588 391 
Q 1994 391 2212 530 
Q 2431 669 2431 922 
Q 2431 1156 2273 1281 
Q 2116 1406 1581 1522 
L 1381 1569 
Q 847 1681 609 1914 
Q 372 2147 372 2553 
Q 372 3047 722 3315 
Q 1072 3584 1716 3584 
Q 2034 3584 2315 3537 
Q 2597 3491 2834 3397 
z
" transform="scale(0.015625)"/>
      <path id="DejaVuSans-66" d="M 2375 4863 
L 2375 4384 
L 1825 4384 
Q 1516 4384 1395 4259 
Q 1275 4134 1275 3809 
L 1275 3500 
L 2222 3500 
L 2222 3053 
L 1275 3053 
L 1275 0 
L 697 0 
L 697 3053 
L 147 3053 
L 147 3500 
L 697 3500 
L 697 3744 
Q 697 4328 969 4595 
Q 1241 4863 1831 4863 
L 2375 4863 
z
" transform="scale(0.015625)"/>
      <path id="DejaVuSans-2f" d="M 1625 4666 
L 2156 4666 
L 531 -594 
L 0 -594 
L 1625 4666 
z
" transform="scale(0.015625)"/>
     </defs>
     <use xlink:href="#DejaVuSans-54"/>
     <use xlink:href="#DejaVuSans-68" x="61.083984"/>
     <use xlink:href="#DejaVuSans-65" x="124.462891"/>
     <use xlink:href="#DejaVuSans-20" x="185.986328"/>
     <use xlink:href="#DejaVuSans-72" x="217.773438"/>
     <use xlink:href="#DejaVuSans-65" x="256.636719"/>
     <use xlink:href="#DejaVuSans-6c" x="318.160156"/>
     <use xlink:href="#DejaVuSans-61" x="345.943359"/>
     <use xlink:href="#DejaVuSans-74" x="407.222656"/>
     <use xlink:href="#DejaVuSans-69" x="446.431641"/>
     <use xlink:href="#DejaVuSans-6f" x="474.214844"/>
     <use xlink:href="#DejaVuSans-6e" x="535.396484"/>
     <use xlink:href="#DejaVuSans-20" x="598.775391"/>
     <use xlink:href="#DejaVuSans-62" x="630.5625"/>
     <use xlink:href="#DejaVuSans-65" x="694.039062"/>
     <use xlink:href="#DejaVuSans-74" x="755.5625"/>
     <use xlink:href="#DejaVuSans-77" x="794.771484"/>
     <use xlink:href="#DejaVuSans-65" x="876.558594"/>
     <use xlink:href="#DejaVuSans-65" x="938.082031"/>
     <use xlink:href="#DejaVuSans-6e" x="999.605469"/>
     <use xlink:href="#DejaVuSans-20" x="1062.984375"/>
     <use xlink:href="#DejaVuSans-6d" x="1094.771484"/>
     <use xlink:href="#DejaVuSans-41" x="1192.183594"/>
     <use xlink:href="#DejaVuSans-50" x="1260.591797"/>
     <use xlink:href="#DejaVuSans-20" x="1320.894531"/>
     <use xlink:href="#DejaVuSans-61" x="1352.681641"/>
     <use xlink:href="#DejaVuSans-6e" x="1413.960938"/>
     <use xlink:href="#DejaVuSans-64" x="1477.339844"/>
     <use xlink:href="#DejaVuSans-20" x="1540.816406"/>
     <use xlink:href="#DejaVuSans-74" x="1572.603516"/>
     <use xlink:href="#DejaVuSans-6f" x="1611.8125"/>
     <use xlink:href="#DejaVuSans-74" x="1672.994141"/>
     <use xlink:href="#DejaVuSans-61" x="1712.203125"/>
     <use xlink:href="#DejaVuSans-6c" x="1773.482422"/>
     <use xlink:href="#DejaVuSans-20" x="1801.265625"/>
     <use xlink:href="#DejaVuSans-65" x="1833.052734"/>
     <use xlink:href="#DejaVuSans-70" x="1894.576172"/>
     <use xlink:href="#DejaVuSans-6f" x="1958.052734"/>
     <use xlink:href="#DejaVuSans-63" x="2019.234375"/>
     <use xlink:href="#DejaVuSans-68" x="2074.214844"/>
     <use xlink:href="#DejaVuSans-73" x="2137.59375"/>
     <use xlink:href="#DejaVuSans-20" x="2189.693359"/>
     <use xlink:href="#DejaVuSans-6f" x="2221.480469"/>
     <use xlink:href="#DejaVuSans-66" x="2282.662109"/>
     <use xlink:href="#DejaVuSans-20" x="2317.867188"/>
     <use xlink:href="#DejaVuSans-68" x="2349.654297"/>
     <use xlink:href="#DejaVuSans-6f" x="2413.033203"/>
     <use xlink:href="#DejaVuSans-73" x="2474.214844"/>
     <use xlink:href="#DejaVuSans-74" x="2526.314453"/>
     <use xlink:href="#DejaVuSans-2f" x="2565.523438"/>
     <use xlink:href="#DejaVuSans-39" x="2599.214844"/>
    </g>
   </g>
   <g id="legend_1">
    <g id="patch_7">
     <path d="M 64.6 302.584 
L 192.89375 302.584 
Q 194.89375 302.584 194.89375 300.584 
L 194.89375 257.549625 
Q 194.89375 255.549625 192.89375 255.549625 
L 64.6 255.549625 
Q 62.6 255.549625 62.6 257.549625 
L 62.6 300.584 
Q 62.6 302.584 64.6 302.584 
z
" style="fill: #ffffff; opacity: 0.8; stroke: #cccccc; stroke-linejoin: miter"/>
    </g>
    <g id="line2d_19">
     <path d="M 66.6 263.648062 
L 76.6 263.648062 
L 86.6 263.648062 
" style="fill: none; stroke: #008000; stroke-width: 1.5; stroke-linecap: square"/>
    </g>
    <g id="text_19">
     <!-- FPSL -->
     <g transform="translate(94.6 267.148062) scale(0.1 -0.1)">
      <defs>
       <path id="DejaVuSans-46" d="M 628 4666 
L 3309 4666 
L 3309 4134 
L 1259 4134 
L 1259 2759 
L 3109 2759 
L 3109 2228 
L 1259 2228 
L 1259 0 
L 628 0 
L 628 4666 
z
" transform="scale(0.015625)"/>
       <path id="DejaVuSans-53" d="M 3425 4513 
L 3425 3897 
Q 3066 4069 2747 4153 
Q 2428 4238 2131 4238 
Q 1616 4238 1336 4038 
Q 1056 3838 1056 3469 
Q 1056 3159 1242 3001 
Q 1428 2844 1947 2747 
L 2328 2669 
Q 3034 2534 3370 2195 
Q 3706 1856 3706 1288 
Q 3706 609 3251 259 
Q 2797 -91 1919 -91 
Q 1588 -91 1214 -16 
Q 841 59 441 206 
L 441 856 
Q 825 641 1194 531 
Q 1563 422 1919 422 
Q 2459 422 2753 634 
Q 3047 847 3047 1241 
Q 3047 1584 2836 1778 
Q 2625 1972 2144 2069 
L 1759 2144 
Q 1053 2284 737 2584 
Q 422 2884 422 3419 
Q 422 4038 858 4394 
Q 1294 4750 2059 4750 
Q 2388 4750 2728 4690 
Q 3069 4631 3425 4513 
z
" transform="scale(0.015625)"/>
       <path id="DejaVuSans-4c" d="M 628 4666 
L 1259 4666 
L 1259 531 
L 3531 531 
L 3531 0 
L 628 0 
L 628 4666 
z
" transform="scale(0.015625)"/>
      </defs>
      <use xlink:href="#DejaVuSans-46"/>
      <use xlink:href="#DejaVuSans-50" x="57.519531"/>
      <use xlink:href="#DejaVuSans-53" x="117.822266"/>
      <use xlink:href="#DejaVuSans-4c" x="181.298828"/>
     </g>
    </g>
    <g id="line2d_20">
     <path d="M 66.6 278.326188 
L 76.6 278.326188 
L 86.6 278.326188 
" style="fill: none; stroke: #0000ff; stroke-width: 1.5; stroke-linecap: square"/>
    </g>
    <g id="text_20">
     <!-- FPSL Weight Decay -->
     <g transform="translate(94.6 281.826188) scale(0.1 -0.1)">
      <defs>
       <path id="DejaVuSans-57" d="M 213 4666 
L 850 4666 
L 1831 722 
L 2809 4666 
L 3519 4666 
L 4500 722 
L 5478 4666 
L 6119 4666 
L 4947 0 
L 4153 0 
L 3169 4050 
L 2175 0 
L 1381 0 
L 213 4666 
z
" transform="scale(0.015625)"/>
       <path id="DejaVuSans-67" d="M 2906 1791 
Q 2906 2416 2648 2759 
Q 2391 3103 1925 3103 
Q 1463 3103 1205 2759 
Q 947 2416 947 1791 
Q 947 1169 1205 825 
Q 1463 481 1925 481 
Q 2391 481 2648 825 
Q 2906 1169 2906 1791 
z
M 3481 434 
Q 3481 -459 3084 -895 
Q 2688 -1331 1869 -1331 
Q 1566 -1331 1297 -1286 
Q 1028 -1241 775 -1147 
L 775 -588 
Q 1028 -725 1275 -790 
Q 1522 -856 1778 -856 
Q 2344 -856 2625 -561 
Q 2906 -266 2906 331 
L 2906 616 
Q 2728 306 2450 153 
Q 2172 0 1784 0 
Q 1141 0 747 490 
Q 353 981 353 1791 
Q 353 2603 747 3093 
Q 1141 3584 1784 3584 
Q 2172 3584 2450 3431 
Q 2728 3278 2906 2969 
L 2906 3500 
L 3481 3500 
L 3481 434 
z
" transform="scale(0.015625)"/>
       <path id="DejaVuSans-44" d="M 1259 4147 
L 1259 519 
L 2022 519 
Q 2988 519 3436 956 
Q 3884 1394 3884 2338 
Q 3884 3275 3436 3711 
Q 2988 4147 2022 4147 
L 1259 4147 
z
M 628 4666 
L 1925 4666 
Q 3281 4666 3915 4102 
Q 4550 3538 4550 2338 
Q 4550 1131 3912 565 
Q 3275 0 1925 0 
L 628 0 
L 628 4666 
z
" transform="scale(0.015625)"/>
       <path id="DejaVuSans-79" d="M 2059 -325 
Q 1816 -950 1584 -1140 
Q 1353 -1331 966 -1331 
L 506 -1331 
L 506 -850 
L 844 -850 
Q 1081 -850 1212 -737 
Q 1344 -625 1503 -206 
L 1606 56 
L 191 3500 
L 800 3500 
L 1894 763 
L 2988 3500 
L 3597 3500 
L 2059 -325 
z
" transform="scale(0.015625)"/>
      </defs>
      <use xlink:href="#DejaVuSans-46"/>
      <use xlink:href="#DejaVuSans-50" x="57.519531"/>
      <use xlink:href="#DejaVuSans-53" x="117.822266"/>
      <use xlink:href="#DejaVuSans-4c" x="181.298828"/>
      <use xlink:href="#DejaVuSans-20" x="237.011719"/>
      <use xlink:href="#DejaVuSans-57" x="268.798828"/>
      <use xlink:href="#DejaVuSans-65" x="361.800781"/>
      <use xlink:href="#DejaVuSans-69" x="423.324219"/>
      <use xlink:href="#DejaVuSans-67" x="451.107422"/>
      <use xlink:href="#DejaVuSans-68" x="514.583984"/>
      <use xlink:href="#DejaVuSans-74" x="577.962891"/>
      <use xlink:href="#DejaVuSans-20" x="617.171875"/>
      <use xlink:href="#DejaVuSans-44" x="648.958984"/>
      <use xlink:href="#DejaVuSans-65" x="725.960938"/>
      <use xlink:href="#DejaVuSans-63" x="787.484375"/>
      <use xlink:href="#DejaVuSans-61" x="842.464844"/>
      <use xlink:href="#DejaVuSans-79" x="903.744141"/>
     </g>
    </g>
    <g id="line2d_21">
     <path d="M 66.6 293.004312 
L 76.6 293.004312 
L 86.6 293.004312 
" style="fill: none; stroke: #ff0000; stroke-width: 1.5; stroke-linecap: square"/>
    </g>
    <g id="text_21">
     <!-- Interactive -->
     <g transform="translate(94.6 296.504312) scale(0.1 -0.1)">
      <defs>
       <path id="DejaVuSans-49" d="M 628 4666 
L 1259 4666 
L 1259 0 
L 628 0 
L 628 4666 
z
" transform="scale(0.015625)"/>
      </defs>
      <use xlink:href="#DejaVuSans-49"/>
      <use xlink:href="#DejaVuSans-6e" x="29.492188"/>
      <use xlink:href="#DejaVuSans-74" x="92.871094"/>
      <use xlink:href="#DejaVuSans-65" x="132.080078"/>
      <use xlink:href="#DejaVuSans-72" x="193.603516"/>
      <use xlink:href="#DejaVuSans-61" x="234.716797"/>
      <use xlink:href="#DejaVuSans-63" x="295.996094"/>
      <use xlink:href="#DejaVuSans-74" x="350.976562"/>
      <use xlink:href="#DejaVuSans-69" x="390.185547"/>
      <use xlink:href="#DejaVuSans-76" x="417.96875"/>
      <use xlink:href="#DejaVuSans-65" x="477.148438"/>
     </g>
    </g>
   </g>
  </g>
 </g>
 <defs>
  <clipPath id="p3da2aeee21">
   <rect x="57.6" y="41.472" width="357.12" height="266.112"/>
  </clipPath>
 </defs>
</svg>
