<?xml version="1.0" encoding="utf-8" standalone="no"?>
<!DOCTYPE svg PUBLIC "-//W3C//DTD SVG 1.1//EN"
  "http://www.w3.org/Graphics/SVG/1.1/DTD/svg11.dtd">
<!-- Created with matplotlib (https://matplotlib.org/) -->
<svg height="432pt" version="1.1" viewBox="0 0 576 432" width="576pt" xmlns="http://www.w3.org/2000/svg" xmlns:xlink="http://www.w3.org/1999/xlink">
 <metadata>
  <rdf:RDF xmlns:cc="http://creativecommons.org/ns#" xmlns:dc="http://purl.org/dc/elements/1.1/" xmlns:rdf="http://www.w3.org/1999/02/22-rdf-syntax-ns#">
   <cc:Work>
    <dc:type rdf:resource="http://purl.org/dc/dcmitype/StillImage"/>
    <dc:date>2023-03-28T10:09:00.136301</dc:date>
    <dc:format>image/svg+xml</dc:format>
    <dc:creator>
     <cc:Agent>
      <dc:title>Matplotlib v3.3.4, https://matplotlib.org/</dc:title>
     </cc:Agent>
    </dc:creator>
   </cc:Work>
  </rdf:RDF>
 </metadata>
 <defs>
  <style type="text/css">*{stroke-linecap:butt;stroke-linejoin:round;}</style>
 </defs>
 <g id="figure_1">
  <g id="patch_1">
   <path d="M 0 432 
L 576 432 
L 576 0 
L 0 0 
z
" style="fill:#ffffff;"/>
  </g>
  <g id="axes_1">
   <g id="patch_2">
    <path d="M 72 384.48 
L 518.4 384.48 
L 518.4 51.84 
L 72 51.84 
z
" style="fill:#ffffff;"/>
   </g>
   <g id="matplotlib.axis_1">
    <g id="xtick_1">
     <g id="line2d_1">
      <defs>
       <path d="M 0 0 
L 0 3.5 
" id="m94a774c13e" style="stroke:#000000;stroke-width:0.8;"/>
      </defs>
      <g>
       <use style="stroke:#000000;stroke-width:0.8;" x="92.290909" xlink:href="#m94a774c13e" y="384.48"/>
      </g>
     </g>
     <g id="text_1">
      <!-- 0 -->
      <g transform="translate(89.790909 398.315938)scale(0.1 -0.1)">
       <defs>
        <path d="M 46.484375 35.15625 
Q 46.484375 21.09375 41.40625 10.9375 
Q 36.328125 0.78125 25 0.78125 
Q 13.671875 0.78125 8.390625 10.9375 
Q 3.125 21.09375 3.125 35.15625 
Q 3.125 49.21875 8.390625 59.171875 
Q 13.671875 69.140625 25 69.140625 
Q 36.328125 69.140625 41.40625 59.171875 
Q 46.484375 49.21875 46.484375 35.15625 
z
M 37.109375 35.15625 
Q 37.109375 47.65625 34.171875 54.6875 
Q 31.25 61.71875 25 61.71875 
Q 18.75 61.71875 15.625 54.6875 
Q 12.5 47.65625 12.5 35.15625 
Q 12.5 22.65625 15.625 15.421875 
Q 18.75 8.203125 25 8.203125 
Q 31.25 8.203125 34.171875 15.421875 
Q 37.109375 22.65625 37.109375 35.15625 
z
" id="SimHei-48"/>
       </defs>
       <use xlink:href="#SimHei-48"/>
      </g>
     </g>
    </g>
    <g id="xtick_2">
     <g id="line2d_2">
      <g>
       <use style="stroke:#000000;stroke-width:0.8;" x="173.53579" xlink:href="#m94a774c13e" y="384.48"/>
      </g>
     </g>
     <g id="text_2">
      <!-- 200 -->
      <g transform="translate(166.03579 398.315938)scale(0.1 -0.1)">
       <defs>
        <path d="M 44.53125 1.5625 
L 4.6875 1.5625 
L 4.6875 7.8125 
Q 7.03125 14.0625 11.125 19.328125 
Q 15.234375 24.609375 23.046875 31.25 
Q 28.90625 36.328125 31.4375 40.625 
Q 33.984375 44.921875 33.984375 50 
Q 33.984375 55.078125 31.828125 58.390625 
Q 29.6875 61.71875 25 61.71875 
Q 21.09375 61.71875 18.15625 58.203125 
Q 15.234375 54.6875 15.234375 45.703125 
L 6.25 45.703125 
Q 6.640625 57.03125 11.515625 63.078125 
Q 16.40625 69.140625 25.390625 69.140625 
Q 33.984375 69.140625 38.671875 63.859375 
Q 43.359375 58.59375 43.359375 49.609375 
Q 43.359375 42.1875 39.0625 36.71875 
Q 34.765625 31.25 28.515625 25.78125 
Q 21.484375 19.53125 18.75 16.40625 
Q 16.015625 13.28125 13.671875 8.984375 
L 44.53125 8.984375 
z
" id="SimHei-50"/>
       </defs>
       <use xlink:href="#SimHei-50"/>
       <use x="50" xlink:href="#SimHei-48"/>
       <use x="100" xlink:href="#SimHei-48"/>
      </g>
     </g>
    </g>
    <g id="xtick_3">
     <g id="line2d_3">
      <g>
       <use style="stroke:#000000;stroke-width:0.8;" x="254.780672" xlink:href="#m94a774c13e" y="384.48"/>
      </g>
     </g>
     <g id="text_3">
      <!-- 400 -->
      <g transform="translate(247.280672 398.315938)scale(0.1 -0.1)">
       <defs>
        <path d="M 46.484375 18.75 
L 38.28125 18.75 
L 38.28125 1.5625 
L 29.296875 1.5625 
L 29.296875 18.75 
L 3.125 18.75 
L 3.125 26.171875 
L 29.296875 69.140625 
L 38.28125 69.140625 
L 38.28125 26.171875 
L 46.484375 26.171875 
z
M 29.296875 26.171875 
L 29.296875 55.078125 
L 11.71875 26.171875 
z
" id="SimHei-52"/>
       </defs>
       <use xlink:href="#SimHei-52"/>
       <use x="50" xlink:href="#SimHei-48"/>
       <use x="100" xlink:href="#SimHei-48"/>
      </g>
     </g>
    </g>
    <g id="xtick_4">
     <g id="line2d_4">
      <g>
       <use style="stroke:#000000;stroke-width:0.8;" x="336.025553" xlink:href="#m94a774c13e" y="384.48"/>
      </g>
     </g>
     <g id="text_4">
      <!-- 600 -->
      <g transform="translate(328.525553 398.315938)scale(0.1 -0.1)">
       <defs>
        <path d="M 44.53125 24.21875 
Q 44.53125 13.28125 39.84375 7.03125 
Q 35.15625 0.78125 25.78125 0.78125 
Q 16.40625 0.78125 10.9375 8.59375 
Q 5.46875 16.40625 5.46875 33.984375 
Q 5.46875 50 11.125 59.5625 
Q 16.796875 69.140625 27.34375 69.140625 
Q 34.765625 69.140625 39.25 63.671875 
Q 43.75 58.203125 43.75 51.5625 
L 34.765625 51.5625 
Q 34.765625 55.46875 32.609375 58.59375 
Q 30.46875 61.71875 26.953125 61.71875 
Q 21.09375 61.71875 17.96875 55.65625 
Q 14.84375 49.609375 14.453125 37.109375 
Q 17.1875 42.1875 20.3125 44.140625 
Q 23.4375 46.09375 27.734375 46.09375 
Q 35.15625 46.09375 39.84375 40.234375 
Q 44.53125 34.375 44.53125 24.21875 
z
M 35.15625 24.21875 
Q 35.15625 31.25 32.8125 35.15625 
Q 30.46875 39.0625 26.171875 39.0625 
Q 21.09375 39.0625 18.15625 35.15625 
Q 15.234375 31.25 15.234375 25.78125 
Q 15.234375 17.1875 18.15625 12.5 
Q 21.09375 7.8125 26.171875 7.8125 
Q 29.6875 7.8125 32.421875 11.328125 
Q 35.15625 14.84375 35.15625 24.21875 
z
" id="SimHei-54"/>
       </defs>
       <use xlink:href="#SimHei-54"/>
       <use x="50" xlink:href="#SimHei-48"/>
       <use x="100" xlink:href="#SimHei-48"/>
      </g>
     </g>
    </g>
    <g id="xtick_5">
     <g id="line2d_5">
      <g>
       <use style="stroke:#000000;stroke-width:0.8;" x="417.270434" xlink:href="#m94a774c13e" y="384.48"/>
      </g>
     </g>
     <g id="text_5">
      <!-- 800 -->
      <g transform="translate(409.770434 398.315938)scale(0.1 -0.1)">
       <defs>
        <path d="M 44.921875 20.703125 
Q 44.921875 10.9375 39.453125 5.859375 
Q 33.984375 0.78125 24.609375 0.78125 
Q 15.234375 0.78125 9.765625 5.859375 
Q 4.296875 10.9375 4.296875 20.703125 
Q 4.296875 25.78125 7.421875 29.875 
Q 10.546875 33.984375 16.015625 35.9375 
Q 11.328125 37.890625 8.78125 41.40625 
Q 6.25 44.921875 6.25 50.390625 
Q 6.25 58.984375 11.71875 64.0625 
Q 17.1875 69.140625 24.609375 69.140625 
Q 32.03125 69.140625 37.5 64.0625 
Q 42.96875 58.984375 42.96875 50.390625 
Q 42.96875 44.921875 40.421875 41.40625 
Q 37.890625 37.890625 33.203125 35.9375 
Q 38.671875 33.984375 41.796875 29.875 
Q 44.921875 25.78125 44.921875 20.703125 
z
M 34.375 50.390625 
Q 34.375 56.640625 31.640625 59.375 
Q 28.90625 62.109375 24.609375 62.109375 
Q 20.3125 62.109375 17.578125 59.375 
Q 14.84375 56.640625 14.84375 50.390625 
Q 14.84375 44.140625 17.765625 41.59375 
Q 20.703125 39.0625 24.609375 39.0625 
Q 28.515625 39.0625 31.4375 41.59375 
Q 34.375 44.140625 34.375 50.390625 
z
M 35.9375 20.703125 
Q 35.9375 26.171875 33 29.296875 
Q 30.078125 32.421875 24.609375 32.421875 
Q 19.140625 32.421875 16.203125 29.296875 
Q 13.28125 26.171875 13.28125 20.703125 
Q 13.28125 14.453125 16.40625 11.125 
Q 19.53125 7.8125 24.609375 7.8125 
Q 29.6875 7.8125 32.8125 11.125 
Q 35.9375 14.453125 35.9375 20.703125 
z
" id="SimHei-56"/>
       </defs>
       <use xlink:href="#SimHei-56"/>
       <use x="50" xlink:href="#SimHei-48"/>
       <use x="100" xlink:href="#SimHei-48"/>
      </g>
     </g>
    </g>
    <g id="xtick_6">
     <g id="line2d_6">
      <g>
       <use style="stroke:#000000;stroke-width:0.8;" x="498.515315" xlink:href="#m94a774c13e" y="384.48"/>
      </g>
     </g>
     <g id="text_6">
      <!-- 1000 -->
      <g transform="translate(488.515315 398.315938)scale(0.1 -0.1)">
       <defs>
        <path d="M 30.46875 1.5625 
L 21.484375 1.5625 
L 21.484375 53.515625 
L 9.765625 53.515625 
L 9.765625 58.203125 
Q 16.796875 58.203125 20.703125 60.9375 
Q 24.609375 63.671875 25.78125 69.140625 
L 30.46875 69.140625 
z
" id="SimHei-49"/>
       </defs>
       <use xlink:href="#SimHei-49"/>
       <use x="50" xlink:href="#SimHei-48"/>
       <use x="100" xlink:href="#SimHei-48"/>
       <use x="150" xlink:href="#SimHei-48"/>
      </g>
     </g>
    </g>
    <g id="text_7">
     <!-- epoch -->
     <g transform="translate(282.7 410.440938)scale(0.1 -0.1)">
      <defs>
       <path d="M 44.921875 16.40625 
Q 44.140625 9.375 38.671875 5.078125 
Q 33.203125 0.78125 25.78125 0.78125 
Q 16.40625 0.78125 10.34375 6.828125 
Q 4.296875 12.890625 4.296875 23.4375 
Q 4.296875 33.984375 10.34375 40.03125 
Q 16.40625 46.09375 25.78125 46.09375 
Q 33.984375 46.09375 39.25 40.8125 
Q 44.53125 35.546875 44.53125 23.4375 
L 12.890625 23.4375 
Q 12.890625 14.84375 16.59375 11.328125 
Q 20.3125 7.8125 25.78125 7.8125 
Q 30.078125 7.8125 32.8125 9.953125 
Q 35.546875 12.109375 36.328125 16.40625 
z
M 35.546875 29.6875 
Q 34.765625 35.15625 32.03125 37.296875 
Q 29.296875 39.453125 25 39.453125 
Q 21.09375 39.453125 17.96875 37.296875 
Q 14.84375 35.15625 13.28125 29.6875 
z
" id="SimHei-101"/>
       <path d="M 44.53125 23.4375 
Q 44.53125 12.109375 39.0625 6.25 
Q 33.59375 0.390625 25.78125 0.390625 
Q 21.484375 0.390625 18.359375 2.140625 
Q 15.234375 3.90625 12.890625 7.421875 
L 12.890625 -12.890625 
L 5.078125 -12.890625 
L 5.078125 45.3125 
L 12.890625 45.3125 
L 12.890625 39.453125 
Q 15.234375 42.96875 18.359375 44.53125 
Q 21.484375 46.09375 25.78125 46.09375 
Q 33.59375 46.09375 39.0625 40.421875 
Q 44.53125 34.765625 44.53125 23.4375 
z
M 35.9375 23.4375 
Q 35.9375 30.859375 33 34.953125 
Q 30.078125 39.0625 24.21875 39.0625 
Q 19.53125 39.0625 16.203125 34.953125 
Q 12.890625 30.859375 12.890625 23.4375 
Q 12.890625 16.015625 16.203125 11.71875 
Q 19.53125 7.421875 24.21875 7.421875 
Q 30.078125 7.421875 33 11.71875 
Q 35.9375 16.015625 35.9375 23.4375 
z
" id="SimHei-112"/>
       <path d="M 46.09375 23.4375 
Q 46.09375 13.28125 39.84375 7.03125 
Q 33.59375 0.78125 25 0.78125 
Q 16.40625 0.78125 10.15625 7.03125 
Q 3.90625 13.28125 3.90625 23.4375 
Q 3.90625 33.59375 10.15625 39.84375 
Q 16.40625 46.09375 25 46.09375 
Q 33.59375 46.09375 39.84375 39.84375 
Q 46.09375 33.59375 46.09375 23.4375 
z
M 37.5 23.4375 
Q 37.5 31.25 33.59375 35.15625 
Q 29.6875 39.0625 25 39.0625 
Q 20.3125 39.0625 16.40625 35.15625 
Q 12.5 31.25 12.5 23.4375 
Q 12.5 15.625 16.40625 11.71875 
Q 20.3125 7.8125 25 7.8125 
Q 29.6875 7.8125 33.59375 11.71875 
Q 37.5 15.625 37.5 23.4375 
z
" id="SimHei-111"/>
       <path d="M 44.921875 19.140625 
Q 44.921875 10.9375 39.25 5.859375 
Q 33.59375 0.78125 25 0.78125 
Q 16.40625 0.78125 10.15625 6.828125 
Q 3.90625 12.890625 3.90625 23.4375 
Q 3.90625 33.984375 10.15625 40.03125 
Q 16.40625 46.09375 25 46.09375 
Q 33.59375 46.09375 38.671875 41.59375 
Q 43.75 37.109375 43.75 30.859375 
L 35.15625 30.859375 
Q 34.765625 35.546875 31.828125 37.296875 
Q 28.90625 39.0625 25 39.0625 
Q 20.3125 39.0625 16.40625 35.34375 
Q 12.5 31.640625 12.5 23.4375 
Q 12.5 15.234375 16.40625 11.515625 
Q 20.3125 7.8125 25 7.8125 
Q 30.078125 7.8125 33.203125 10.546875 
Q 36.328125 13.28125 36.328125 19.140625 
z
" id="SimHei-99"/>
       <path d="M 44.140625 1.5625 
L 36.328125 1.5625 
L 36.328125 29.6875 
Q 36.328125 34.375 33.984375 37.109375 
Q 31.640625 39.84375 27.734375 39.84375 
Q 22.65625 39.84375 18.15625 34.5625 
Q 13.671875 29.296875 13.671875 21.484375 
L 13.671875 1.5625 
L 5.859375 1.5625 
L 5.859375 68.359375 
L 13.671875 68.359375 
L 13.671875 37.109375 
Q 16.796875 41.40625 20.5 43.75 
Q 24.21875 46.09375 30.078125 46.09375 
Q 37.109375 46.09375 40.625 42.1875 
Q 44.140625 38.28125 44.140625 32.421875 
z
" id="SimHei-104"/>
      </defs>
      <use xlink:href="#SimHei-101"/>
      <use x="50" xlink:href="#SimHei-112"/>
      <use x="100" xlink:href="#SimHei-111"/>
      <use x="150" xlink:href="#SimHei-99"/>
      <use x="200" xlink:href="#SimHei-104"/>
     </g>
    </g>
   </g>
   <g id="matplotlib.axis_2">
    <g id="ytick_1">
     <g id="line2d_7">
      <defs>
       <path d="M 0 0 
L -3.5 0 
" id="m662aa7e1ce" style="stroke:#000000;stroke-width:0.8;"/>
      </defs>
      <g>
       <use style="stroke:#000000;stroke-width:0.8;" x="72" xlink:href="#m662aa7e1ce" y="384.48"/>
      </g>
     </g>
     <g id="text_8">
      <!-- 0.0 -->
      <g transform="translate(50 387.897969)scale(0.1 -0.1)">
       <defs>
        <path d="M 17.1875 1.5625 
L 8.203125 1.5625 
L 8.203125 10.15625 
L 17.1875 10.15625 
z
" id="SimHei-46"/>
       </defs>
       <use xlink:href="#SimHei-48"/>
       <use x="50" xlink:href="#SimHei-46"/>
       <use x="100" xlink:href="#SimHei-48"/>
      </g>
     </g>
    </g>
    <g id="ytick_2">
     <g id="line2d_8">
      <g>
       <use style="stroke:#000000;stroke-width:0.8;" x="72" xlink:href="#m662aa7e1ce" y="317.952"/>
      </g>
     </g>
     <g id="text_9">
      <!-- 0.2 -->
      <g transform="translate(50 321.369969)scale(0.1 -0.1)">
       <use xlink:href="#SimHei-48"/>
       <use x="50" xlink:href="#SimHei-46"/>
       <use x="100" xlink:href="#SimHei-50"/>
      </g>
     </g>
    </g>
    <g id="ytick_3">
     <g id="line2d_9">
      <g>
       <use style="stroke:#000000;stroke-width:0.8;" x="72" xlink:href="#m662aa7e1ce" y="251.424"/>
      </g>
     </g>
     <g id="text_10">
      <!-- 0.4 -->
      <g transform="translate(50 254.841969)scale(0.1 -0.1)">
       <use xlink:href="#SimHei-48"/>
       <use x="50" xlink:href="#SimHei-46"/>
       <use x="100" xlink:href="#SimHei-52"/>
      </g>
     </g>
    </g>
    <g id="ytick_4">
     <g id="line2d_10">
      <g>
       <use style="stroke:#000000;stroke-width:0.8;" x="72" xlink:href="#m662aa7e1ce" y="184.896"/>
      </g>
     </g>
     <g id="text_11">
      <!-- 0.6 -->
      <g transform="translate(50 188.313969)scale(0.1 -0.1)">
       <use xlink:href="#SimHei-48"/>
       <use x="50" xlink:href="#SimHei-46"/>
       <use x="100" xlink:href="#SimHei-54"/>
      </g>
     </g>
    </g>
    <g id="ytick_5">
     <g id="line2d_11">
      <g>
       <use style="stroke:#000000;stroke-width:0.8;" x="72" xlink:href="#m662aa7e1ce" y="118.368"/>
      </g>
     </g>
     <g id="text_12">
      <!-- 0.8 -->
      <g transform="translate(50 121.785969)scale(0.1 -0.1)">
       <use xlink:href="#SimHei-48"/>
       <use x="50" xlink:href="#SimHei-46"/>
       <use x="100" xlink:href="#SimHei-56"/>
      </g>
     </g>
    </g>
    <g id="ytick_6">
     <g id="line2d_12">
      <g>
       <use style="stroke:#000000;stroke-width:0.8;" x="72" xlink:href="#m662aa7e1ce" y="51.84"/>
      </g>
     </g>
     <g id="text_13">
      <!-- 1.0 -->
      <g transform="translate(50 55.257969)scale(0.1 -0.1)">
       <use xlink:href="#SimHei-49"/>
       <use x="50" xlink:href="#SimHei-46"/>
       <use x="100" xlink:href="#SimHei-48"/>
      </g>
     </g>
    </g>
    <g id="text_14">
     <!-- rate -->
     <g transform="translate(44.710938 228.16)rotate(-90)scale(0.1 -0.1)">
      <defs>
       <path d="M 39.453125 37.5 
Q 32.03125 38.671875 26.953125 35.34375 
Q 21.875 32.03125 18.359375 23.828125 
L 18.359375 1.5625 
L 10.546875 1.5625 
L 10.546875 45.3125 
L 18.359375 45.3125 
L 18.359375 33.984375 
Q 21.875 40.234375 27.140625 43.15625 
Q 32.421875 46.09375 39.453125 46.09375 
z
" id="SimHei-114"/>
       <path d="M 45.3125 1.5625 
L 35.9375 1.5625 
Q 35.15625 2.34375 34.765625 3.703125 
Q 34.375 5.078125 34.375 7.03125 
Q 31.640625 3.90625 27.734375 2.34375 
Q 23.828125 0.78125 19.53125 0.78125 
Q 13.28125 0.78125 8.984375 3.90625 
Q 4.6875 7.03125 4.6875 12.890625 
Q 4.6875 18.75 8.59375 22.265625 
Q 12.5 25.78125 20.703125 26.953125 
Q 26.171875 27.734375 30.265625 28.90625 
Q 34.375 30.078125 34.375 32.03125 
Q 34.375 34.375 32.609375 36.71875 
Q 30.859375 39.0625 25 39.0625 
Q 20.3125 39.0625 18.15625 37.296875 
Q 16.015625 35.546875 15.234375 32.421875 
L 6.640625 32.421875 
Q 7.421875 38.671875 12.296875 42.375 
Q 17.1875 46.09375 25 46.09375 
Q 33.59375 46.09375 37.890625 42.1875 
Q 42.1875 38.28125 42.1875 31.25 
L 42.1875 9.765625 
Q 42.1875 7.421875 42.96875 5.46875 
Q 43.75 3.515625 45.3125 1.5625 
z
M 34.375 16.015625 
L 34.375 23.828125 
Q 32.03125 23.046875 29.875 22.453125 
Q 27.734375 21.875 22.65625 21.09375 
Q 16.796875 20.3125 15.03125 18.359375 
Q 13.28125 16.40625 13.28125 13.671875 
Q 13.28125 11.328125 15.03125 9.5625 
Q 16.796875 7.8125 20.3125 7.8125 
Q 23.828125 7.8125 27.921875 9.765625 
Q 32.03125 11.71875 34.375 16.015625 
z
" id="SimHei-97"/>
       <path d="M 43.359375 2.734375 
Q 41.40625 1.953125 38.859375 1.359375 
Q 36.328125 0.78125 32.03125 0.78125 
Q 25 0.78125 20.703125 4.6875 
Q 16.40625 8.59375 16.40625 15.625 
L 16.40625 39.0625 
L 3.125 39.0625 
L 3.125 45.3125 
L 16.40625 45.3125 
L 16.40625 60.546875 
L 24.21875 60.546875 
L 24.21875 45.3125 
L 40.234375 45.3125 
L 40.234375 39.0625 
L 24.21875 39.0625 
L 24.21875 15.234375 
Q 24.21875 12.109375 25.78125 9.953125 
Q 27.34375 7.8125 31.640625 7.8125 
Q 35.9375 7.8125 38.671875 8.59375 
Q 41.40625 9.375 43.359375 10.546875 
z
" id="SimHei-116"/>
      </defs>
      <use xlink:href="#SimHei-114"/>
      <use x="50" xlink:href="#SimHei-97"/>
      <use x="100" xlink:href="#SimHei-116"/>
      <use x="150" xlink:href="#SimHei-101"/>
     </g>
    </g>
   </g>
   <g id="line2d_13">
    <path clip-path="url(#p76fd92f5a0)" d="M 92.290909 283.337085 
L 92.697133 366.000938 
L 93.103358 351.085991 
L 93.509582 359.985154 
L 93.915807 361.259699 
L 94.322031 357.657745 
L 94.728256 355.709219 
L 95.13448 316.061865 
L 95.540704 347.178608 
L 95.946929 363.888632 
L 96.353153 363.578531 
L 96.759378 365.6392 
L 97.165602 353.635772 
L 97.571826 357.477079 
L 98.384275 348.589219 
L 98.7905 362.449959 
L 99.196724 334.340309 
L 99.602948 331.403195 
L 100.009173 350.831363 
L 100.415397 349.870851 
L 100.821622 366.863918 
L 101.227846 346.688466 
L 101.63407 337.818075 
L 102.040295 363.4597 
L 102.446519 300.138711 
L 102.852744 340.239729 
L 103.258968 338.5606 
L 103.665192 376.333592 
L 104.477641 338.309888 
L 104.883866 338.795512 
L 105.29009 298.306731 
L 105.696314 344.852285 
L 106.102539 371.18733 
L 106.508763 345.294583 
L 106.914988 367.933719 
L 107.321212 360.815823 
L 107.727437 311.864447 
L 108.133661 288.314186 
L 108.539885 354.291648 
L 108.94611 302.143685 
L 109.352334 352.927435 
L 109.758559 364.50466 
L 110.164783 361.931508 
L 110.571007 362.882887 
L 110.977232 344.94946 
L 111.383456 306.732497 
L 111.789681 287.971667 
L 112.195905 367.570841 
L 112.602129 345.336406 
L 113.008354 306.901653 
L 113.414578 323.699275 
L 113.820803 355.952329 
L 114.227027 369.5514 
L 114.633251 328.286482 
L 115.039476 324.877721 
L 115.851925 359.610623 
L 116.258149 359.652267 
L 117.070598 364.254053 
L 117.476822 348.765108 
L 117.883047 352.866702 
L 118.289271 362.434013 
L 118.695495 346.422496 
L 119.10172 356.303246 
L 119.507944 328.728397 
L 119.914169 340.481846 
L 120.320393 361.671294 
L 120.726618 368.620233 
L 121.132842 302.704598 
L 121.945291 341.868318 
L 122.351515 352.385501 
L 122.75774 367.40372 
L 123.163964 356.817319 
L 123.570188 357.587833 
L 123.976413 318.541326 
L 124.382637 364.378909 
L 124.788862 356.816035 
L 125.195086 368.370207 
L 125.60131 367.713416 
L 126.007535 359.159062 
L 126.413759 369.035842 
L 126.819984 307.431602 
L 127.226208 372.343726 
L 127.632432 365.035644 
L 128.038657 351.344262 
L 128.444881 360.755117 
L 128.851106 323.226762 
L 129.25733 299.932351 
L 129.663554 342.637196 
L 130.069779 367.478439 
L 130.476003 368.50975 
L 130.882228 338.786428 
L 131.288452 368.996009 
L 131.694676 372.498951 
L 132.100901 351.101855 
L 132.507125 354.51111 
L 132.91335 367.217342 
L 133.319574 360.728503 
L 133.725799 318.240582 
L 134.132023 372.521727 
L 134.538247 322.928596 
L 134.944472 365.261434 
L 135.350696 358.62061 
L 135.756921 369.151272 
L 136.163145 367.697861 
L 136.569369 340.786454 
L 136.975594 363.064234 
L 137.381818 301.193333 
L 137.788043 319.263281 
L 138.194267 289.911648 
L 138.600491 357.582105 
L 139.006716 343.347051 
L 139.41294 365.669184 
L 139.819165 328.789508 
L 140.225389 334.926838 
L 140.631613 302.267212 
L 141.037838 365.228685 
L 141.444062 331.415187 
L 141.850287 335.49978 
L 142.256511 375.04739 
L 143.06896 355.278617 
L 143.475184 365.665473 
L 143.881409 350.62993 
L 144.287633 365.678212 
L 144.693857 361.427855 
L 145.100082 359.331275 
L 145.506306 356.24865 
L 145.912531 302.99645 
L 146.318755 371.736565 
L 146.72498 318.158328 
L 147.131204 368.029738 
L 147.537428 308.60063 
L 147.943653 292.435524 
L 148.349877 357.418817 
L 148.756102 358.947699 
L 149.162326 368.001226 
L 149.56855 370.437464 
L 150.380999 330.134186 
L 150.787224 334.808533 
L 151.193448 322.348839 
L 151.599672 326.73356 
L 152.005897 352.968139 
L 152.412121 340.41335 
L 152.818346 366.327927 
L 153.22457 371.191192 
L 153.630794 364.43037 
L 154.037019 349.242281 
L 154.443243 369.702906 
L 154.849468 371.203738 
L 155.255692 365.826152 
L 155.661916 339.960876 
L 156.068141 325.047444 
L 156.474365 320.489468 
L 156.88059 300.094178 
L 157.286814 369.081185 
L 157.693038 354.066057 
L 158.099263 348.702297 
L 158.505487 356.939144 
L 158.911712 326.575734 
L 159.317936 342.418585 
L 159.724161 352.599396 
L 160.130385 365.71385 
L 160.536609 339.624898 
L 160.942834 362.718189 
L 161.349058 340.259594 
L 161.755283 285.040278 
L 162.161507 322.043949 
L 162.567731 320.103005 
L 162.973956 369.942473 
L 163.38018 366.606396 
L 163.786405 370.246928 
L 164.192629 368.045201 
L 165.005078 311.611328 
L 165.411302 359.154627 
L 165.817527 329.491097 
L 166.223751 371.858481 
L 166.629975 364.282112 
L 167.0362 367.40503 
L 167.442424 366.71923 
L 167.848649 324.093052 
L 168.254873 321.442799 
L 168.661097 356.104541 
L 169.067322 368.738095 
L 169.473546 370.274653 
L 169.879771 358.581514 
L 170.285995 350.732134 
L 170.692219 358.595638 
L 171.098444 349.908976 
L 171.504668 366.734238 
L 171.910893 350.767004 
L 172.317117 364.570238 
L 172.723342 372.704158 
L 173.129566 339.741276 
L 173.53579 366.720621 
L 173.942015 367.414523 
L 174.348239 362.997255 
L 174.754464 319.587992 
L 175.160688 331.566052 
L 175.566912 333.397734 
L 175.973137 356.208495 
L 176.785586 308.903382 
L 177.19181 336.804102 
L 177.598034 376.10293 
L 178.004259 317.945471 
L 178.410483 330.044111 
L 178.816708 371.747546 
L 179.222932 371.792368 
L 179.629156 372.357758 
L 180.035381 370.416211 
L 180.441605 364.819111 
L 180.84783 356.233572 
L 181.254054 361.011571 
L 181.660278 364.306939 
L 182.066503 356.034988 
L 182.472727 368.045857 
L 182.878952 365.059406 
L 183.285176 359.609699 
L 183.6914 371.045057 
L 184.097625 360.573848 
L 184.503849 342.687771 
L 184.910074 363.857211 
L 185.316298 317.940367 
L 185.722523 365.308731 
L 186.128747 308.653146 
L 186.941196 338.322129 
L 187.34742 299.007265 
L 187.753645 321.781924 
L 188.159869 377.530224 
L 188.566093 368.963787 
L 188.972318 340.082825 
L 189.378542 362.320126 
L 189.784767 308.773441 
L 190.190991 331.16339 
L 190.597215 367.429746 
L 191.00344 324.812944 
L 191.409664 367.824518 
L 191.815889 350.674962 
L 192.222113 285.769475 
L 192.628337 342.932743 
L 193.034562 354.828413 
L 193.440786 300.916726 
L 193.847011 361.507278 
L 194.253235 317.419004 
L 194.659459 287.488686 
L 195.065684 351.568854 
L 195.471908 358.137229 
L 195.878133 338.659086 
L 196.284357 302.361307 
L 196.690581 320.062433 
L 197.096806 320.817013 
L 197.50303 301.406623 
L 197.909255 323.803998 
L 198.315479 365.058918 
L 198.721704 368.420909 
L 199.127928 333.47605 
L 199.534152 310.496936 
L 199.940377 347.599821 
L 200.346601 356.103679 
L 200.752826 345.372026 
L 201.15905 300.127893 
L 201.565274 340.432686 
L 201.971499 330.780275 
L 202.377723 333.070715 
L 202.783948 362.70691 
L 203.190172 347.326915 
L 203.596396 318.156943 
L 204.002621 344.511186 
L 204.408845 324.205495 
L 204.81507 365.436963 
L 205.221294 286.445896 
L 205.627518 332.479581 
L 206.033743 363.029682 
L 206.439967 347.096661 
L 206.846192 321.227964 
L 207.252416 364.096241 
L 207.65864 365.603294 
L 208.064865 340.29417 
L 208.471089 350.639662 
L 208.877314 364.628993 
L 209.283538 370.257527 
L 209.689762 352.246244 
L 210.095987 367.063597 
L 210.502211 363.846312 
L 210.908436 370.688326 
L 211.31466 358.157233 
L 211.720885 349.360604 
L 212.127109 335.789369 
L 212.533333 341.944096 
L 212.939558 359.889074 
L 213.345782 340.057795 
L 214.158231 360.208371 
L 214.564455 329.996563 
L 214.97068 352.434632 
L 215.376904 353.131045 
L 215.783129 345.235249 
L 216.189353 362.358415 
L 217.001802 287.332467 
L 217.408026 341.038328 
L 217.814251 368.821041 
L 218.220475 366.698613 
L 218.626699 339.460045 
L 219.032924 331.908392 
L 219.439148 343.74583 
L 219.845373 366.562257 
L 220.251597 312.791747 
L 220.657821 350.251611 
L 221.064046 294.826519 
L 221.47027 366.945829 
L 221.876495 347.557251 
L 222.282719 337.323839 
L 222.688943 361.314847 
L 223.095168 308.567889 
L 223.501392 345.461335 
L 223.907617 367.557119 
L 224.313841 363.998961 
L 224.720066 364.254649 
L 225.12629 340.176206 
L 225.532514 343.091525 
L 225.938739 320.496338 
L 226.344963 358.545922 
L 226.751188 332.574977 
L 227.157412 342.607953 
L 227.563636 358.690017 
L 227.969861 304.469657 
L 228.376085 340.610736 
L 228.78231 360.489843 
L 229.188534 324.75895 
L 229.594758 365.87734 
L 230.000983 331.209536 
L 230.407207 372.409759 
L 230.813432 361.263013 
L 231.219656 319.309516 
L 231.62588 295.004835 
L 232.032105 331.877161 
L 232.438329 345.439392 
L 232.844554 328.385123 
L 233.250778 371.85155 
L 233.657002 352.172553 
L 234.063227 352.201514 
L 234.469451 347.24905 
L 234.875676 360.350673 
L 235.2819 350.036099 
L 235.688124 367.833551 
L 236.094349 370.295678 
L 236.500573 369.547386 
L 236.906798 357.594771 
L 237.313022 354.770133 
L 237.719247 330.469022 
L 238.125471 371.943024 
L 238.531695 363.976343 
L 238.93792 300.050693 
L 239.344144 329.409661 
L 239.750369 290.01773 
L 240.156593 358.747186 
L 240.562817 316.253178 
L 240.969042 360.956053 
L 241.375266 375.409233 
L 241.781491 329.41039 
L 242.593939 353.235661 
L 243.406388 284.479754 
L 243.812613 357.713066 
L 244.218837 348.16315 
L 244.625061 359.659037 
L 245.031286 365.267176 
L 245.43751 360.778123 
L 245.843735 369.293105 
L 246.249959 308.884098 
L 246.656183 368.230516 
L 247.062408 319.4697 
L 247.468632 352.451849 
L 247.874857 319.477187 
L 248.281081 367.061126 
L 249.09353 295.763139 
L 249.499754 351.073032 
L 249.905979 353.633281 
L 250.312203 351.466195 
L 250.718428 334.024513 
L 251.124652 343.165139 
L 251.530876 360.995898 
L 251.937101 340.399888 
L 252.343325 336.84478 
L 252.74955 293.604108 
L 253.155774 353.429209 
L 253.561998 349.982714 
L 253.968223 360.273016 
L 254.374447 366.159828 
L 254.780672 365.885748 
L 255.186896 362.68296 
L 255.59312 371.847696 
L 255.999345 358.578762 
L 256.405569 369.738195 
L 256.811794 367.357201 
L 257.218018 363.311354 
L 258.030467 314.821867 
L 258.436691 346.396717 
L 258.842916 367.522061 
L 259.24914 361.729506 
L 259.655364 366.047618 
L 260.061589 340.52611 
L 260.467813 340.454978 
L 260.874038 348.195661 
L 261.280262 363.828001 
L 261.686486 373.046312 
L 262.092711 373.116016 
L 262.498935 367.189862 
L 262.90516 342.034741 
L 263.311384 341.834486 
L 263.717609 354.972056 
L 264.123833 345.459854 
L 264.530057 303.154956 
L 264.936282 367.782873 
L 265.342506 340.798215 
L 265.748731 335.343349 
L 266.561179 304.508502 
L 266.967404 363.001332 
L 267.373628 365.252216 
L 267.779853 341.877649 
L 268.186077 326.277652 
L 268.592301 372.255794 
L 268.998526 309.763177 
L 269.40475 344.17314 
L 269.810975 316.638736 
L 270.217199 364.835848 
L 270.623423 364.915834 
L 271.029648 372.974937 
L 271.435872 376.330626 
L 271.842097 354.28776 
L 272.248321 314.57857 
L 272.654545 333.590247 
L 273.06077 341.037559 
L 273.466994 344.010586 
L 273.873219 318.623103 
L 274.279443 362.036393 
L 275.091892 364.874079 
L 275.498116 362.825093 
L 275.904341 333.950761 
L 276.310565 313.347618 
L 276.71679 317.662521 
L 277.123014 343.900888 
L 277.529238 346.250356 
L 277.935463 369.677122 
L 278.341687 372.571 
L 278.747912 355.523366 
L 279.154136 364.877251 
L 279.56036 316.343854 
L 279.966585 320.629925 
L 280.372809 363.804844 
L 280.779034 360.245723 
L 281.185258 364.189463 
L 281.591482 355.123042 
L 281.997707 292.206385 
L 282.810156 361.504679 
L 283.21638 373.158842 
L 283.622604 368.944317 
L 284.028829 313.242558 
L 284.435053 350.508223 
L 284.841278 364.532329 
L 285.247502 367.008757 
L 285.653726 347.047275 
L 286.059951 369.830467 
L 286.466175 359.917839 
L 286.8724 346.448439 
L 287.278624 370.156342 
L 287.684848 376.02461 
L 288.497297 294.675368 
L 288.903522 362.759901 
L 289.309746 370.923478 
L 289.715971 348.506036 
L 290.122195 369.197563 
L 290.528419 351.522093 
L 290.934644 351.025017 
L 291.340868 366.346405 
L 291.747093 363.903103 
L 292.153317 368.339104 
L 292.559541 371.329254 
L 292.965766 349.985535 
L 293.37199 369.057038 
L 293.778215 357.829953 
L 294.184439 340.841175 
L 294.590663 364.873776 
L 294.996888 372.70098 
L 295.403112 354.094731 
L 295.809337 349.7588 
L 296.215561 328.782561 
L 296.621785 372.548672 
L 297.02801 368.008982 
L 297.434234 375.614152 
L 297.840459 331.001419 
L 298.246683 338.951085 
L 298.652907 333.563258 
L 299.059132 366.844124 
L 299.465356 364.079933 
L 299.871581 375.070712 
L 300.277805 364.132233 
L 300.684029 364.206641 
L 301.090254 364.509579 
L 301.496478 323.278533 
L 301.902703 322.230366 
L 302.308927 373.560187 
L 302.715152 372.975211 
L 303.121376 378.872917 
L 303.5276 372.377339 
L 303.933825 292.617674 
L 304.746274 349.908136 
L 305.152498 340.521878 
L 305.558722 310.050127 
L 305.964947 347.182355 
L 306.777396 296.619635 
L 307.18362 353.720365 
L 307.589844 362.777743 
L 307.996069 290.33165 
L 308.402293 352.951013 
L 308.808518 357.612615 
L 309.214742 358.261617 
L 309.620966 351.674429 
L 310.027191 364.957681 
L 310.433415 368.419715 
L 310.83964 310.901861 
L 311.245864 365.725936 
L 311.652088 351.445982 
L 312.058313 362.578042 
L 312.464537 352.375499 
L 312.870762 355.973316 
L 313.276986 303.710105 
L 313.68321 330.671326 
L 314.901884 368.353659 
L 315.308108 361.378154 
L 315.714333 323.61223 
L 316.120557 337.866668 
L 316.526781 357.41171 
L 316.933006 357.862346 
L 317.33923 318.657344 
L 317.745455 365.741547 
L 318.151679 344.809456 
L 318.557903 350.234518 
L 318.964128 306.38206 
L 319.370352 372.047314 
L 319.776577 338.376057 
L 320.182801 363.32073 
L 320.589025 365.707454 
L 320.99525 348.077951 
L 321.401474 343.68712 
L 321.807699 369.306569 
L 322.213923 352.897912 
L 322.620147 321.517093 
L 323.026372 361.538405 
L 323.432596 363.423594 
L 323.838821 359.405556 
L 324.245045 345.682971 
L 324.651269 327.55565 
L 325.463718 367.284078 
L 325.869943 368.23818 
L 326.276167 366.756966 
L 326.682391 369.717007 
L 327.49484 356.362376 
L 327.901065 296.434131 
L 328.307289 337.647771 
L 328.713514 349.283552 
L 329.119738 318.108661 
L 329.525962 353.68949 
L 329.932187 316.407343 
L 330.338411 327.041853 
L 330.744636 371.07885 
L 331.15086 369.671433 
L 331.557084 361.204646 
L 331.963309 345.256683 
L 332.369533 338.440224 
L 333.181982 363.411591 
L 333.588206 362.403073 
L 333.994431 363.968429 
L 334.400655 350.864302 
L 334.80688 369.483534 
L 335.213104 378.581742 
L 335.619328 368.48155 
L 336.025553 368.784573 
L 336.431777 350.507988 
L 336.838002 370.543678 
L 337.244226 360.128229 
L 337.65045 323.196986 
L 338.056675 370.32363 
L 338.462899 363.195085 
L 338.869124 318.183983 
L 339.275348 354.249886 
L 339.681572 341.718179 
L 340.087797 359.777856 
L 340.494021 340.076137 
L 341.30647 361.011812 
L 341.712695 330.011558 
L 342.118919 343.151968 
L 342.525143 365.322903 
L 342.931368 361.131544 
L 343.337592 338.216184 
L 343.743817 355.146888 
L 344.150041 356.5704 
L 344.556265 318.967484 
L 344.96249 355.283267 
L 345.368714 324.711923 
L 345.774939 344.884323 
L 346.181163 350.687425 
L 346.587387 304.636345 
L 346.993612 286.889592 
L 347.399836 364.741244 
L 347.806061 320.948475 
L 348.212285 336.680363 
L 348.618509 341.004631 
L 349.024734 364.133541 
L 349.430958 353.714025 
L 349.837183 307.067522 
L 350.243407 348.857767 
L 350.649631 340.37929 
L 351.055856 320.572029 
L 351.46208 361.070016 
L 351.868305 353.440036 
L 352.274529 365.184072 
L 352.680753 292.11456 
L 353.086978 371.529555 
L 353.493202 334.138736 
L 353.899427 371.962608 
L 354.305651 308.66193 
L 354.711876 367.925378 
L 355.1181 368.636576 
L 355.524324 362.38308 
L 356.336773 330.53938 
L 356.742998 322.158213 
L 357.149222 336.842457 
L 357.555446 336.401092 
L 357.961671 359.324831 
L 358.367895 370.8616 
L 358.77412 366.807733 
L 359.180344 371.082232 
L 359.992793 376.26711 
L 360.399017 372.900155 
L 360.805242 353.217376 
L 361.211466 315.560886 
L 361.61769 371.84877 
L 362.023915 340.00409 
L 362.430139 349.795513 
L 362.836364 298.762556 
L 363.242588 354.08368 
L 363.648812 319.21142 
L 364.055037 369.332719 
L 364.461261 360.909271 
L 364.867486 363.049675 
L 365.27371 357.857583 
L 365.679934 361.550653 
L 366.086159 366.275831 
L 366.492383 352.810822 
L 366.898608 356.933661 
L 367.304832 367.434198 
L 367.711057 364.401392 
L 368.117281 370.690048 
L 368.523505 369.506233 
L 368.92973 327.183448 
L 369.335954 302.627871 
L 369.742179 344.232661 
L 370.148403 336.926198 
L 370.554627 336.759552 
L 370.960852 372.164699 
L 371.367076 299.989964 
L 371.773301 355.292891 
L 372.179525 354.611508 
L 372.585749 375.099849 
L 372.991974 345.212483 
L 373.398198 337.396799 
L 373.804423 286.220253 
L 374.210647 343.819045 
L 374.616871 331.891281 
L 375.023096 331.60316 
L 375.42932 339.09628 
L 375.835545 319.428744 
L 376.647993 358.769483 
L 377.054218 321.05195 
L 377.460442 366.19105 
L 377.866667 362.49924 
L 378.272891 359.993317 
L 378.679115 370.347663 
L 379.08534 373.381897 
L 379.491564 348.763689 
L 379.897789 340.20528 
L 380.710238 370.72853 
L 381.116462 356.171051 
L 381.522686 359.543883 
L 381.928911 377.180291 
L 382.335135 370.640117 
L 382.74136 349.827295 
L 383.147584 320.691421 
L 383.553808 364.032724 
L 383.960033 372.786573 
L 384.772482 361.808727 
L 385.178706 374.114111 
L 385.58493 372.780972 
L 385.991155 369.451064 
L 386.397379 317.515437 
L 386.803604 372.693591 
L 387.209828 339.500615 
L 388.022277 372.788278 
L 388.428501 367.971035 
L 388.834726 329.739459 
L 389.24095 323.773745 
L 389.647174 367.395164 
L 390.053399 356.060848 
L 390.459623 307.851154 
L 390.865848 346.550858 
L 391.272072 349.223907 
L 391.678296 372.137536 
L 392.084521 360.286984 
L 392.490745 367.404599 
L 392.89697 352.86933 
L 393.303194 299.5448 
L 393.709419 370.117092 
L 394.115643 371.516758 
L 394.928092 306.884953 
L 395.334316 361.73828 
L 395.740541 355.003708 
L 396.146765 361.99257 
L 396.552989 363.200083 
L 396.959214 371.475426 
L 397.365438 344.485244 
L 397.771663 362.386755 
L 398.177887 369.784567 
L 398.584111 346.850734 
L 398.990336 349.159792 
L 399.39656 362.679946 
L 399.802785 326.890854 
L 400.209009 318.472615 
L 400.615233 325.905343 
L 401.021458 366.645579 
L 401.427682 364.799646 
L 401.833907 369.005457 
L 402.240131 335.481894 
L 402.646355 323.37147 
L 403.05258 365.910477 
L 403.458804 308.520607 
L 403.865029 355.224525 
L 404.271253 371.239862 
L 404.677477 372.503722 
L 405.896151 305.754879 
L 406.302375 371.935079 
L 406.7086 361.094806 
L 407.114824 338.23145 
L 407.521048 288.903515 
L 407.927273 356.437277 
L 408.333497 321.668856 
L 408.739722 333.604712 
L 409.145946 369.782469 
L 409.55217 352.01773 
L 409.958395 372.482054 
L 410.770844 342.57707 
L 411.177068 372.335167 
L 411.583292 349.296395 
L 412.395741 355.588423 
L 412.801966 362.896898 
L 413.20819 363.569335 
L 413.614414 358.658755 
L 414.020639 377.474163 
L 414.426863 337.195519 
L 414.833088 320.489605 
L 415.239312 371.846799 
L 415.645536 356.915605 
L 416.051761 372.046661 
L 416.457985 345.583075 
L 416.86421 286.711596 
L 417.270434 206.844306 
L 417.676658 201.903472 
L 498.109091 201.903472 
L 498.109091 201.903472 
" style="fill:none;stroke:#0000ff;stroke-linecap:square;stroke-width:1.5;"/>
   </g>
   <g id="line2d_14">
    <path clip-path="url(#p76fd92f5a0)" d="M 92.290909 284.99448 
L 92.697133 225.628179 
L 93.103358 219.501462 
L 93.509582 225.102796 
L 93.915807 220.307338 
L 94.322031 221.21762 
L 94.728256 223.954654 
L 95.13448 224.959906 
L 95.540704 227.884236 
L 95.946929 225.858659 
L 96.353153 227.436311 
L 96.759378 224.061987 
L 97.165602 226.548268 
L 97.571826 225.66892 
L 97.978051 223.836286 
L 98.384275 228.083345 
L 98.7905 220.865616 
L 99.196724 229.513596 
L 99.602948 226.099769 
L 100.009173 220.597555 
L 100.415397 227.882511 
L 100.821622 227.690791 
L 101.63407 224.250286 
L 102.040295 226.185938 
L 102.446519 225.479121 
L 102.852744 226.16738 
L 103.258968 225.937812 
L 103.665192 223.317172 
L 104.071417 224.879879 
L 104.477641 225.897752 
L 104.883866 223.928263 
L 105.29009 226.065117 
L 105.696314 223.96893 
L 106.102539 223.014201 
L 106.508763 228.307297 
L 106.914988 224.739644 
L 107.321212 222.318423 
L 107.727437 225.471536 
L 108.133661 221.874087 
L 108.539885 225.417439 
L 108.94611 222.319262 
L 109.352334 228.304076 
L 109.758559 223.455265 
L 110.164783 225.792472 
L 110.571007 229.882546 
L 110.977232 228.833823 
L 111.383456 228.201593 
L 111.789681 219.689079 
L 112.195905 226.261993 
L 112.602129 223.068363 
L 113.008354 225.133934 
L 113.414578 225.224812 
L 113.820803 224.512887 
L 114.227027 228.169973 
L 114.633251 220.502033 
L 115.039476 220.848318 
L 115.4457 213.595019 
L 115.851925 228.470482 
L 116.258149 221.141681 
L 117.070598 225.6751 
L 117.883047 229.299806 
L 118.289271 227.347791 
L 118.695495 228.659585 
L 119.10172 223.760127 
L 119.507944 229.146027 
L 119.914169 219.556413 
L 120.320393 227.794023 
L 120.726618 228.55189 
L 121.132842 222.720986 
L 121.539066 228.650155 
L 122.351515 227.805527 
L 122.75774 226.165609 
L 123.163964 225.48765 
L 123.570188 231.5399 
L 123.976413 221.530405 
L 124.382637 228.609929 
L 124.788862 227.646458 
L 125.195086 227.513764 
L 125.60131 225.073011 
L 126.007535 224.755298 
L 126.413759 227.256817 
L 126.819984 225.350215 
L 127.226208 227.235941 
L 127.632432 228.061714 
L 128.444881 221.055273 
L 128.851106 224.723973 
L 129.25733 226.183332 
L 129.663554 223.292172 
L 130.069779 222.452169 
L 130.476003 222.593292 
L 130.882228 222.107063 
L 131.288452 228.499163 
L 131.694676 224.591702 
L 132.100901 223.929912 
L 132.507125 226.301969 
L 132.91335 224.725626 
L 133.319574 225.705103 
L 134.132023 221.410358 
L 134.538247 221.282873 
L 134.944472 229.18507 
L 135.350696 220.987998 
L 135.756921 222.345376 
L 136.163145 224.402393 
L 136.569369 221.712989 
L 136.975594 226.089104 
L 137.381818 224.759029 
L 137.788043 224.948943 
L 138.194267 219.792661 
L 138.600491 220.937525 
L 139.006716 223.286837 
L 139.41294 224.195309 
L 139.819165 221.262819 
L 140.225389 227.267837 
L 140.631613 223.31869 
L 141.037838 224.9489 
L 141.444062 224.626205 
L 141.850287 225.636589 
L 142.256511 223.08861 
L 142.662735 231.595652 
L 143.475184 226.963715 
L 144.287633 220.018498 
L 144.693857 225.615075 
L 145.100082 222.403879 
L 145.912531 226.941091 
L 146.318755 223.407281 
L 146.72498 226.7627 
L 147.131204 221.230672 
L 147.537428 227.056612 
L 147.943653 226.895015 
L 148.349877 220.137275 
L 148.756102 225.94438 
L 149.162326 222.08283 
L 149.56855 230.116831 
L 149.974775 221.362313 
L 150.380999 219.076013 
L 150.787224 231.665521 
L 151.193448 219.912231 
L 151.599672 226.743478 
L 152.005897 222.821087 
L 152.412121 224.057358 
L 152.818346 228.136112 
L 153.22457 220.069877 
L 153.630794 222.307204 
L 154.037019 225.329456 
L 154.443243 227.507976 
L 154.849468 222.600133 
L 155.255692 223.303068 
L 155.661916 227.564606 
L 156.068141 219.522322 
L 156.474365 228.084484 
L 156.88059 227.314433 
L 157.286814 222.028821 
L 157.693038 226.689847 
L 158.099263 224.414775 
L 158.505487 225.960601 
L 158.911712 222.684398 
L 159.317936 225.814364 
L 159.724161 227.98488 
L 160.130385 225.133695 
L 160.536609 220.299211 
L 160.942834 227.903973 
L 161.349058 221.924821 
L 161.755283 227.138777 
L 162.161507 224.090095 
L 162.567731 219.323506 
L 162.973956 228.821686 
L 163.38018 222.519685 
L 163.786405 223.555403 
L 164.192629 223.335555 
L 164.598853 219.795536 
L 165.005078 222.715229 
L 165.411302 227.160144 
L 165.817527 228.048489 
L 166.223751 221.614711 
L 166.629975 225.102147 
L 167.0362 229.926904 
L 167.442424 225.961236 
L 167.848649 228.584076 
L 168.254873 220.258839 
L 168.661097 225.650404 
L 169.067322 224.074707 
L 169.473546 223.511044 
L 169.879771 224.290513 
L 170.285995 227.350374 
L 170.692219 223.42202 
L 171.098444 229.108906 
L 171.504668 223.81922 
L 171.910893 226.977783 
L 172.317117 222.003844 
L 172.723342 224.318828 
L 173.53579 230.472481 
L 173.942015 223.52847 
L 174.348239 225.624332 
L 174.754464 221.311857 
L 175.160688 224.402607 
L 175.566912 225.306218 
L 175.973137 225.706965 
L 176.379361 229.411275 
L 176.785586 220.988133 
L 177.19181 226.29981 
L 177.598034 219.725646 
L 178.004259 228.40891 
L 178.410483 229.169859 
L 178.816708 223.239221 
L 179.222932 229.614717 
L 179.629156 218.459501 
L 180.035381 228.625785 
L 180.441605 225.419065 
L 180.84783 226.183011 
L 181.254054 226.496731 
L 181.660278 222.756789 
L 182.066503 224.194719 
L 182.472727 226.881434 
L 182.878952 224.047836 
L 183.285176 225.9322 
L 183.6914 223.882798 
L 184.097625 224.901431 
L 184.503849 225.020853 
L 184.910074 221.683558 
L 185.316298 227.888063 
L 185.722523 221.008243 
L 186.128747 224.341636 
L 186.534971 223.209735 
L 186.941196 224.27757 
L 187.34742 221.628042 
L 188.159869 230.04489 
L 188.566093 222.986015 
L 188.972318 225.057568 
L 189.378542 224.791236 
L 189.784767 223.731451 
L 190.190991 224.17515 
L 190.597215 226.726963 
L 191.00344 225.080302 
L 191.409664 221.70135 
L 191.815889 226.005726 
L 192.222113 222.306122 
L 192.628337 225.288944 
L 193.034562 225.280216 
L 193.440786 220.061406 
L 193.847011 219.431351 
L 194.253235 228.933967 
L 194.659459 220.151396 
L 195.065684 221.587372 
L 195.471908 228.536022 
L 195.878133 226.191573 
L 196.284357 224.859012 
L 196.690581 223.982227 
L 197.096806 219.656318 
L 197.50303 219.635544 
L 197.909255 229.842658 
L 198.315479 222.945642 
L 198.721704 223.898323 
L 199.127928 221.718831 
L 199.534152 225.389433 
L 199.940377 226.412888 
L 200.346601 223.974542 
L 200.752826 225.596135 
L 201.15905 219.724473 
L 201.565274 225.628982 
L 201.971499 220.263463 
L 202.377723 222.647427 
L 202.783948 222.77088 
L 203.190172 225.77638 
L 203.596396 222.193548 
L 204.002621 229.669572 
L 204.408845 222.413587 
L 204.81507 225.041639 
L 205.221294 218.974065 
L 205.627518 226.700147 
L 206.439967 224.102994 
L 206.846192 225.310625 
L 207.252416 223.980862 
L 207.65864 225.08003 
L 208.064865 220.402652 
L 208.471089 227.7716 
L 208.877314 223.905735 
L 209.283538 222.086232 
L 209.689762 229.878204 
L 210.095987 223.729356 
L 210.502211 228.169408 
L 210.908436 222.427498 
L 211.31466 220.24943 
L 211.720885 229.351111 
L 212.127109 224.515837 
L 212.533333 225.742121 
L 212.939558 225.174072 
L 213.345782 226.510764 
L 213.752007 226.643718 
L 214.158231 222.688848 
L 214.564455 225.523422 
L 214.97068 226.579799 
L 215.376904 225.334858 
L 215.783129 225.592021 
L 216.189353 221.998652 
L 216.595577 227.121073 
L 217.001802 222.432095 
L 217.408026 223.688747 
L 217.814251 230.716629 
L 218.220475 223.206039 
L 218.626699 226.723711 
L 219.032924 223.464195 
L 219.439148 222.399601 
L 219.845373 227.034611 
L 220.251597 227.947626 
L 220.657821 223.187647 
L 221.064046 225.428828 
L 221.47027 219.972166 
L 222.688943 227.359932 
L 223.095168 222.654012 
L 223.501392 224.7722 
L 223.907617 222.579667 
L 224.313841 221.459771 
L 224.720066 226.638256 
L 225.12629 223.556196 
L 225.532514 219.321846 
L 225.938739 225.71335 
L 226.344963 220.460802 
L 226.751188 223.064603 
L 227.157412 224.488142 
L 227.563636 226.621042 
L 227.969861 221.766623 
L 228.376085 221.76372 
L 228.78231 224.897085 
L 229.188534 221.437273 
L 229.594758 223.75913 
L 230.000983 221.352804 
L 230.813432 230.248313 
L 231.219656 219.434336 
L 231.62588 227.269326 
L 232.032105 222.956617 
L 232.438329 226.445024 
L 232.844554 223.319497 
L 233.250778 226.575783 
L 233.657002 227.784715 
L 234.063227 225.891524 
L 234.469451 222.403085 
L 234.875676 224.487132 
L 235.2819 224.818922 
L 235.688124 224.802627 
L 236.094349 221.986508 
L 236.500573 229.659917 
L 236.906798 224.362163 
L 237.313022 226.465217 
L 237.719247 224.815759 
L 238.125471 226.422389 
L 238.531695 223.057102 
L 238.93792 222.331091 
L 239.344144 226.682955 
L 239.750369 219.362714 
L 240.156593 230.463304 
L 240.562817 223.814759 
L 241.375266 224.351715 
L 241.781491 225.747134 
L 242.187715 225.582384 
L 242.593939 227.590983 
L 243.000164 223.653777 
L 243.406388 221.994023 
L 244.218837 226.508592 
L 244.625061 224.780693 
L 245.031286 221.394701 
L 245.43751 224.406646 
L 245.843735 223.869217 
L 246.249959 227.226774 
L 246.656183 226.187493 
L 247.062408 221.734405 
L 247.468632 224.002786 
L 247.874857 223.918894 
L 248.281081 219.858248 
L 248.687305 230.660632 
L 249.09353 220.66 
L 249.499754 224.802164 
L 249.905979 222.755755 
L 250.312203 224.149951 
L 250.718428 222.771079 
L 251.124652 225.351141 
L 251.530876 225.548061 
L 251.937101 227.434316 
L 252.343325 222.373995 
L 252.74955 221.891998 
L 253.155774 226.112473 
L 253.561998 222.676294 
L 253.968223 225.982785 
L 254.374447 221.339395 
L 254.780672 224.509007 
L 255.186896 225.994666 
L 255.59312 225.079848 
L 255.999345 221.100277 
L 256.405569 220.784881 
L 256.811794 224.192355 
L 257.218018 220.066983 
L 257.624242 228.366543 
L 258.030467 222.906144 
L 258.436691 223.750686 
L 258.842916 227.672999 
L 259.24914 225.902061 
L 259.655364 222.332491 
L 260.061589 223.168819 
L 260.467813 226.145743 
L 260.874038 218.309426 
L 261.280262 224.964949 
L 261.686486 227.447167 
L 262.092711 226.486134 
L 262.498935 223.983058 
L 262.90516 223.618611 
L 263.717609 224.469965 
L 264.123833 220.153553 
L 264.530057 226.538242 
L 264.936282 225.140565 
L 265.342506 226.133815 
L 266.154955 222.077209 
L 266.561179 225.511083 
L 266.967404 224.003975 
L 267.373628 222.038552 
L 267.779853 224.618806 
L 268.186077 226.068759 
L 268.592301 223.645123 
L 268.998526 225.31342 
L 269.40475 222.965492 
L 269.810975 227.195102 
L 270.217199 220.770232 
L 270.623423 225.442931 
L 271.029648 221.269968 
L 271.435872 233.32978 
L 271.842097 224.18624 
L 272.248321 223.258366 
L 272.654545 222.615478 
L 273.06077 220.783476 
L 273.466994 224.068386 
L 273.873219 224.172496 
L 274.279443 224.628908 
L 274.685667 222.865158 
L 275.091892 222.768178 
L 275.498116 226.095067 
L 275.904341 225.900462 
L 276.310565 225.205552 
L 276.71679 222.410476 
L 277.123014 230.469198 
L 277.529238 224.197289 
L 277.935463 226.725358 
L 278.341687 227.103145 
L 278.747912 223.473811 
L 279.154136 224.533472 
L 279.56036 226.747535 
L 279.966585 219.589804 
L 280.372809 224.095861 
L 280.779034 227.021708 
L 281.185258 222.56457 
L 281.591482 228.63677 
L 281.997707 222.611646 
L 282.403931 224.322192 
L 282.810156 223.151353 
L 283.622604 228.233262 
L 284.028829 224.905314 
L 284.435053 225.401882 
L 284.841278 226.108172 
L 285.247502 224.533885 
L 285.653726 225.49029 
L 286.059951 219.976813 
L 286.466175 226.036442 
L 286.8724 224.264966 
L 287.278624 225.873582 
L 287.684848 223.667258 
L 288.091073 225.459787 
L 288.497297 226.612578 
L 288.903522 228.81768 
L 289.309746 219.968712 
L 289.715971 233.041627 
L 290.122195 224.774237 
L 290.528419 225.512727 
L 290.934644 225.999787 
L 291.340868 224.863411 
L 291.747093 228.234277 
L 292.153317 223.369041 
L 292.559541 224.067594 
L 292.965766 227.599042 
L 293.37199 223.100173 
L 293.778215 225.704037 
L 294.590663 220.686766 
L 294.996888 229.939435 
L 295.403112 225.012924 
L 295.809337 226.632887 
L 296.215561 229.832836 
L 296.621785 222.218541 
L 297.02801 224.574904 
L 297.434234 230.278085 
L 297.840459 222.884675 
L 298.246683 219.276755 
L 298.652907 229.366001 
L 299.059132 222.958407 
L 299.871581 226.255698 
L 300.277805 226.068358 
L 300.684029 222.280232 
L 301.090254 226.129093 
L 301.496478 223.66388 
L 301.902703 227.207805 
L 302.308927 225.101126 
L 302.715152 225.686516 
L 303.121376 229.562888 
L 303.5276 227.569329 
L 303.933825 221.323689 
L 304.340049 222.215292 
L 304.746274 223.454575 
L 305.152498 228.409939 
L 305.558722 223.81255 
L 305.964947 226.332774 
L 306.371171 225.791941 
L 306.777396 221.899627 
L 307.18362 224.784631 
L 307.589844 219.588918 
L 307.996069 225.225459 
L 308.402293 222.847676 
L 308.808518 224.52407 
L 309.214742 227.307398 
L 309.620966 222.568615 
L 310.027191 227.16572 
L 310.433415 227.838129 
L 310.83964 220.396325 
L 311.245864 223.610545 
L 311.652088 228.311291 
L 312.058313 225.127687 
L 312.464537 224.116431 
L 312.870762 223.820972 
L 313.276986 219.866014 
L 313.68321 225.3231 
L 314.089435 226.379043 
L 314.495659 222.650322 
L 314.901884 227.17144 
L 315.308108 222.681466 
L 315.714333 222.133738 
L 316.120557 222.851735 
L 316.526781 224.121058 
L 316.933006 223.841552 
L 317.33923 220.837528 
L 318.151679 223.928966 
L 318.557903 227.87224 
L 318.964128 222.426891 
L 319.370352 224.559312 
L 319.776577 224.48264 
L 320.589025 228.514118 
L 320.99525 219.335209 
L 321.401474 227.86809 
L 321.807699 226.290533 
L 322.213923 224.170318 
L 322.620147 226.989884 
L 323.026372 228.73086 
L 323.432596 222.266138 
L 323.838821 228.354196 
L 324.245045 222.225701 
L 324.651269 221.208167 
L 325.057494 224.168164 
L 325.463718 225.289579 
L 326.276167 223.604225 
L 326.682391 225.752745 
L 327.088616 222.399263 
L 327.49484 225.389028 
L 327.901065 223.017598 
L 328.307289 226.37555 
L 328.713514 221.285076 
L 329.119738 226.76242 
L 329.525962 220.609539 
L 329.932187 227.155128 
L 330.338411 226.357469 
L 330.744636 226.096615 
L 331.15086 228.116478 
L 331.557084 224.289081 
L 331.963309 227.328949 
L 332.369533 222.5123 
L 333.181982 226.193213 
L 333.588206 227.046698 
L 333.994431 225.054993 
L 334.400655 229.204557 
L 334.80688 221.704908 
L 335.213104 228.187777 
L 335.619328 223.727742 
L 336.025553 225.194555 
L 336.431777 222.299103 
L 336.838002 226.770764 
L 337.244226 224.533241 
L 337.65045 226.954776 
L 338.462899 222.535003 
L 338.869124 226.209024 
L 339.275348 228.16455 
L 339.681572 224.4404 
L 340.087797 228.099248 
L 340.494021 225.50246 
L 340.900246 226.130497 
L 341.30647 224.278902 
L 341.712695 226.560684 
L 342.118919 231.041188 
L 342.525143 222.40829 
L 342.931368 224.309818 
L 343.337592 225.017714 
L 343.743817 222.395519 
L 344.150041 225.474923 
L 344.556265 225.238272 
L 344.96249 222.319395 
L 345.368714 224.074984 
L 345.774939 226.367334 
L 346.181163 231.403661 
L 346.587387 225.610309 
L 346.993612 221.584887 
L 347.399836 227.344583 
L 347.806061 222.116243 
L 348.212285 222.619289 
L 348.618509 225.571814 
L 349.024734 226.270478 
L 349.430958 233.930071 
L 349.837183 222.634969 
L 350.243407 229.317077 
L 350.649631 226.654593 
L 351.055856 219.398069 
L 351.46208 228.390183 
L 351.868305 225.164459 
L 352.274529 226.456631 
L 352.680753 223.249914 
L 353.086978 223.245006 
L 353.493202 223.879789 
L 353.899427 221.340635 
L 354.305651 225.820187 
L 354.711876 225.521518 
L 355.1181 227.811236 
L 355.524324 221.287376 
L 355.930549 227.929332 
L 356.336773 223.993317 
L 356.742998 225.003295 
L 357.149222 225.08284 
L 357.555446 226.059569 
L 357.961671 224.690735 
L 358.367895 229.190829 
L 358.77412 225.955854 
L 359.180344 228.66517 
L 359.586568 223.684993 
L 359.992793 225.790586 
L 360.399017 229.02832 
L 360.805242 221.348342 
L 361.211466 225.147109 
L 362.023915 228.237842 
L 362.430139 228.417296 
L 362.836364 221.980141 
L 363.242588 226.418933 
L 363.648812 221.91534 
L 364.055037 227.15905 
L 364.461261 227.959981 
L 364.867486 226.721496 
L 365.27371 227.711887 
L 365.679934 224.268733 
L 366.086159 228.164608 
L 366.492383 225.283832 
L 366.898608 226.780029 
L 367.304832 224.597237 
L 367.711057 228.328486 
L 368.117281 226.903267 
L 368.523505 227.964745 
L 368.92973 222.82842 
L 369.335954 224.295917 
L 369.742179 226.197199 
L 370.554627 223.695559 
L 370.960852 220.061479 
L 371.367076 226.430074 
L 371.773301 229.081403 
L 372.179525 225.068011 
L 372.585749 228.84331 
L 372.991974 224.339805 
L 373.398198 226.776392 
L 373.804423 222.346662 
L 374.210647 220.688687 
L 374.616871 227.705447 
L 375.023096 227.117672 
L 375.42932 224.613533 
L 375.835545 221.284161 
L 376.241769 230.998441 
L 376.647993 222.90361 
L 377.054218 223.407869 
L 377.460442 224.418176 
L 378.272891 224.910757 
L 378.679115 227.297469 
L 379.08534 225.42692 
L 379.491564 232.113368 
L 379.897789 226.48361 
L 380.304013 225.26 
L 380.710238 222.077137 
L 381.116462 227.481817 
L 381.522686 225.836366 
L 382.335135 226.266392 
L 382.74136 231.182764 
L 383.147584 221.941025 
L 383.553808 228.596506 
L 383.960033 224.887239 
L 384.366257 224.481003 
L 384.772482 230.273437 
L 385.178706 225.486179 
L 385.58493 225.586434 
L 385.991155 228.898614 
L 386.397379 224.126106 
L 386.803604 225.085629 
L 387.209828 225.562809 
L 387.616052 226.723442 
L 388.022277 224.270304 
L 388.428501 226.234063 
L 388.834726 222.170948 
L 389.24095 227.986618 
L 389.647174 224.493723 
L 390.053399 231.203733 
L 390.459623 220.261306 
L 390.865848 229.628068 
L 391.272072 233.314823 
L 391.678296 222.45471 
L 392.084521 226.331672 
L 392.89697 224.527085 
L 393.303194 224.675004 
L 393.709419 228.64631 
L 394.115643 228.048163 
L 394.928092 223.716184 
L 395.334316 228.246996 
L 395.740541 225.535775 
L 396.146765 225.847236 
L 396.552989 230.106046 
L 396.959214 228.48827 
L 397.365438 228.561087 
L 397.771663 223.588453 
L 398.177887 225.38354 
L 398.584111 228.956661 
L 398.990336 226.213102 
L 399.802785 227.879308 
L 400.209009 224.821687 
L 400.615233 227.855216 
L 401.021458 228.939408 
L 401.427682 228.43535 
L 401.833907 225.802019 
L 402.240131 227.482819 
L 402.646355 226.367413 
L 403.05258 224.585878 
L 403.458804 224.310816 
L 404.271253 229.470007 
L 404.677477 228.785502 
L 405.083702 225.857704 
L 405.489926 224.789908 
L 405.896151 225.14128 
L 406.302375 223.387264 
L 406.7086 229.093048 
L 407.114824 230.462783 
L 407.521048 220.775131 
L 407.927273 230.435618 
L 408.333497 224.673712 
L 408.739722 225.673621 
L 409.145946 227.304428 
L 409.55217 224.913049 
L 409.958395 230.624426 
L 410.364619 225.241202 
L 410.770844 235.130708 
L 411.989517 224.033718 
L 412.395741 228.773821 
L 412.801966 223.07397 
L 413.20819 230.209152 
L 413.614414 222.986741 
L 414.020639 231.176289 
L 414.426863 223.545409 
L 414.833088 228.961686 
L 415.239312 229.030278 
L 415.645536 227.70211 
L 416.051761 230.23934 
L 416.86421 225.825092 
L 417.270434 321.747985 
L 417.676658 322.375464 
L 498.109091 322.375464 
L 498.109091 322.375464 
" style="fill:none;stroke:#008000;stroke-linecap:square;stroke-width:1.5;"/>
   </g>
   <g id="patch_3">
    <path d="M 72 384.48 
L 72 51.84 
" style="fill:none;stroke:#000000;stroke-linecap:square;stroke-linejoin:miter;stroke-width:0.8;"/>
   </g>
   <g id="patch_4">
    <path d="M 518.4 384.48 
L 518.4 51.84 
" style="fill:none;stroke:#000000;stroke-linecap:square;stroke-linejoin:miter;stroke-width:0.8;"/>
   </g>
   <g id="patch_5">
    <path d="M 72 384.48 
L 518.4 384.48 
" style="fill:none;stroke:#000000;stroke-linecap:square;stroke-linejoin:miter;stroke-width:0.8;"/>
   </g>
   <g id="patch_6">
    <path d="M 72 51.84 
L 518.4 51.84 
" style="fill:none;stroke:#000000;stroke-linecap:square;stroke-linejoin:miter;stroke-width:0.8;"/>
   </g>
   <g id="legend_1">
    <g id="patch_7">
     <path d="M 79 86.418125 
L 156 86.418125 
Q 158 86.418125 158 84.418125 
L 158 58.84 
Q 158 56.84 156 56.84 
L 79 56.84 
Q 77 56.84 77 58.84 
L 77 84.418125 
Q 77 86.418125 79 86.418125 
z
" style="fill:#ffffff;opacity:0.8;stroke:#cccccc;stroke-linejoin:miter;"/>
    </g>
    <g id="line2d_15">
     <path d="M 81 64.34 
L 101 64.34 
" style="fill:none;stroke:#0000ff;stroke-linecap:square;stroke-width:1.5;"/>
    </g>
    <g id="line2d_16"/>
    <g id="text_15">
     <!-- precision -->
     <g transform="translate(109 67.84)scale(0.1 -0.1)">
      <defs>
       <path d="M 28.515625 57.8125 
L 20.703125 57.8125 
L 20.703125 67.96875 
L 28.515625 67.96875 
z
M 28.515625 1.5625 
L 20.703125 1.5625 
L 20.703125 45.3125 
L 28.515625 45.3125 
z
" id="SimHei-105"/>
       <path d="M 43.359375 13.671875 
Q 43.359375 7.421875 38.46875 4.09375 
Q 33.59375 0.78125 26.171875 0.78125 
Q 16.796875 0.78125 11.71875 4.484375 
Q 6.640625 8.203125 6.640625 15.234375 
L 14.453125 15.234375 
Q 14.453125 10.546875 17.765625 8.984375 
Q 21.09375 7.421875 25.78125 7.421875 
Q 30.46875 7.421875 32.8125 9.171875 
Q 35.15625 10.9375 35.15625 13.671875 
Q 35.15625 15.625 33.203125 17.578125 
Q 31.25 19.53125 23.4375 20.703125 
Q 14.453125 21.875 11.125 25.1875 
Q 7.8125 28.515625 7.8125 33.984375 
Q 7.8125 38.671875 12.296875 42.375 
Q 16.796875 46.09375 25.390625 46.09375 
Q 33.203125 46.09375 37.6875 42.578125 
Q 42.1875 39.0625 42.1875 33.203125 
L 34.375 33.203125 
Q 34.375 36.71875 31.828125 38.078125 
Q 29.296875 39.453125 25.390625 39.453125 
Q 20.3125 39.453125 18.15625 37.6875 
Q 16.015625 35.9375 16.015625 33.59375 
Q 16.015625 30.859375 17.96875 29.296875 
Q 19.921875 27.734375 26.171875 26.953125 
Q 36.328125 25.390625 39.84375 22.0625 
Q 43.359375 18.75 43.359375 13.671875 
z
" id="SimHei-115"/>
       <path d="M 44.140625 1.5625 
L 36.328125 1.5625 
L 36.328125 29.6875 
Q 36.328125 34.375 33.984375 37.109375 
Q 31.640625 39.84375 27.734375 39.84375 
Q 22.65625 39.84375 18.15625 34.5625 
Q 13.671875 29.296875 13.671875 21.484375 
L 13.671875 1.5625 
L 5.859375 1.5625 
L 5.859375 45.3125 
L 13.671875 45.3125 
L 13.671875 37.109375 
Q 16.796875 41.40625 20.5 43.75 
Q 24.21875 46.09375 30.078125 46.09375 
Q 37.109375 46.09375 40.625 42.1875 
Q 44.140625 38.28125 44.140625 32.421875 
z
" id="SimHei-110"/>
      </defs>
      <use xlink:href="#SimHei-112"/>
      <use x="50" xlink:href="#SimHei-114"/>
      <use x="100" xlink:href="#SimHei-101"/>
      <use x="150" xlink:href="#SimHei-99"/>
      <use x="200" xlink:href="#SimHei-105"/>
      <use x="250" xlink:href="#SimHei-115"/>
      <use x="300" xlink:href="#SimHei-105"/>
      <use x="350" xlink:href="#SimHei-111"/>
      <use x="400" xlink:href="#SimHei-110"/>
     </g>
    </g>
    <g id="line2d_17">
     <path d="M 81 77.629062 
L 101 77.629062 
" style="fill:none;stroke:#008000;stroke-linecap:square;stroke-width:1.5;"/>
    </g>
    <g id="line2d_18"/>
    <g id="text_16">
     <!-- recall -->
     <g transform="translate(109 81.129062)scale(0.1 -0.1)">
      <defs>
       <path d="M 28.90625 1.5625 
L 21.09375 1.5625 
L 21.09375 68.359375 
L 28.90625 68.359375 
z
" id="SimHei-108"/>
      </defs>
      <use xlink:href="#SimHei-114"/>
      <use x="50" xlink:href="#SimHei-101"/>
      <use x="100" xlink:href="#SimHei-99"/>
      <use x="150" xlink:href="#SimHei-97"/>
      <use x="200" xlink:href="#SimHei-108"/>
      <use x="250" xlink:href="#SimHei-108"/>
     </g>
    </g>
   </g>
  </g>
  <g id="axes_2">
   <g id="matplotlib.axis_3">
    <g id="ytick_7">
     <g id="line2d_19">
      <defs>
       <path d="M 0 0 
L 3.5 0 
" id="m8a0166b1fd" style="stroke:#000000;stroke-width:0.8;"/>
      </defs>
      <g>
       <use style="stroke:#000000;stroke-width:0.8;" x="518.4" xlink:href="#m8a0166b1fd" y="370.277551"/>
      </g>
     </g>
     <g id="text_17">
      <!-- 0 -->
      <g transform="translate(525.4 373.69552)scale(0.1 -0.1)">
       <use xlink:href="#SimHei-48"/>
      </g>
     </g>
    </g>
    <g id="ytick_8">
     <g id="line2d_20">
      <g>
       <use style="stroke:#000000;stroke-width:0.8;" x="518.4" xlink:href="#m8a0166b1fd" y="302.809355"/>
      </g>
     </g>
     <g id="text_18">
      <!-- 50 -->
      <g transform="translate(525.4 306.227324)scale(0.1 -0.1)">
       <defs>
        <path d="M 44.140625 25.78125 
Q 44.140625 14.0625 38.46875 7.421875 
Q 32.8125 0.78125 23.4375 0.78125 
Q 15.234375 0.78125 9.953125 6.25 
Q 4.6875 11.71875 4.296875 21.09375 
L 13.28125 21.09375 
Q 13.28125 15.234375 16.015625 11.71875 
Q 18.75 8.203125 23.828125 8.203125 
Q 28.90625 8.203125 31.828125 12.5 
Q 34.765625 16.796875 34.765625 25.78125 
Q 34.765625 33.59375 32.21875 37.296875 
Q 29.6875 41.015625 25.390625 41.015625 
Q 21.875 41.015625 19.328125 39.453125 
Q 16.796875 37.890625 14.453125 33.984375 
L 6.640625 33.984375 
L 8.984375 68.359375 
L 42.578125 68.359375 
L 42.578125 60.9375 
L 16.40625 60.9375 
L 14.84375 42.96875 
Q 17.1875 45.3125 19.921875 46.484375 
Q 22.65625 47.65625 27.34375 47.65625 
Q 34.765625 47.65625 39.453125 41.984375 
Q 44.140625 36.328125 44.140625 25.78125 
z
" id="SimHei-53"/>
       </defs>
       <use xlink:href="#SimHei-53"/>
       <use x="50" xlink:href="#SimHei-48"/>
      </g>
     </g>
    </g>
    <g id="ytick_9">
     <g id="line2d_21">
      <g>
       <use style="stroke:#000000;stroke-width:0.8;" x="518.4" xlink:href="#m8a0166b1fd" y="235.34116"/>
      </g>
     </g>
     <g id="text_19">
      <!-- 100 -->
      <g transform="translate(525.4 238.759129)scale(0.1 -0.1)">
       <use xlink:href="#SimHei-49"/>
       <use x="50" xlink:href="#SimHei-48"/>
       <use x="100" xlink:href="#SimHei-48"/>
      </g>
     </g>
    </g>
    <g id="ytick_10">
     <g id="line2d_22">
      <g>
       <use style="stroke:#000000;stroke-width:0.8;" x="518.4" xlink:href="#m8a0166b1fd" y="167.872964"/>
      </g>
     </g>
     <g id="text_20">
      <!-- 150 -->
      <g transform="translate(525.4 171.290933)scale(0.1 -0.1)">
       <use xlink:href="#SimHei-49"/>
       <use x="50" xlink:href="#SimHei-53"/>
       <use x="100" xlink:href="#SimHei-48"/>
      </g>
     </g>
    </g>
    <g id="ytick_11">
     <g id="line2d_23">
      <g>
       <use style="stroke:#000000;stroke-width:0.8;" x="518.4" xlink:href="#m8a0166b1fd" y="100.404769"/>
      </g>
     </g>
     <g id="text_21">
      <!-- 200 -->
      <g transform="translate(525.4 103.822738)scale(0.1 -0.1)">
       <use xlink:href="#SimHei-50"/>
       <use x="50" xlink:href="#SimHei-48"/>
       <use x="100" xlink:href="#SimHei-48"/>
      </g>
     </g>
    </g>
    <g id="text_22">
     <!-- loss -->
     <g transform="translate(551.235937 228.16)rotate(-90)scale(0.1 -0.1)">
      <use xlink:href="#SimHei-108"/>
      <use x="50" xlink:href="#SimHei-111"/>
      <use x="100" xlink:href="#SimHei-115"/>
      <use x="150" xlink:href="#SimHei-115"/>
     </g>
    </g>
   </g>
   <g id="line2d_24">
    <path clip-path="url(#p76fd92f5a0)" d="M 92.290909 66.96 
L 92.697133 357.04258 
L 93.103358 365.373467 
L 93.509582 365.579213 
L 93.915807 365.415733 
L 95.13448 365.492326 
L 95.540704 365.405182 
L 95.946929 365.459283 
L 96.353153 366.610974 
L 96.759378 366.524465 
L 97.978051 366.649143 
L 100.009173 366.605448 
L 100.415397 367.053546 
L 104.071417 366.933613 
L 104.477641 367.23104 
L 105.29009 367.217107 
L 107.321212 367.236568 
L 107.727437 367.147905 
L 110.571007 367.392766 
L 112.195905 367.363529 
L 112.602129 367.469159 
L 113.008354 367.365575 
L 115.039476 367.417663 
L 115.851925 367.364684 
L 117.070598 367.389963 
L 122.75774 367.411747 
L 123.163964 367.463357 
L 123.976413 367.405945 
L 127.632432 367.558845 
L 128.444881 367.515269 
L 128.851106 367.619856 
L 130.069779 367.548916 
L 131.694676 367.481836 
L 132.100901 367.527506 
L 132.91335 367.426584 
L 133.319574 368.124123 
L 134.538247 368.201512 
L 136.569369 368.283861 
L 136.975594 368.174045 
L 137.788043 368.272887 
L 141.444062 368.335958 
L 146.72498 368.564053 
L 148.349877 368.596425 
L 151.193448 368.724734 
L 152.818346 368.753362 
L 156.068141 368.78029 
L 164.598853 368.920674 
L 189.784767 369.139391 
L 193.440786 369.158225 
L 275.498116 369.319277 
L 349.024734 369.338445 
L 498.109091 369.36 
L 498.109091 369.36 
" style="fill:none;stroke:#ff0000;stroke-linecap:square;stroke-width:1.5;"/>
   </g>
   <g id="patch_8">
    <path d="M 72 384.48 
L 72 51.84 
" style="fill:none;stroke:#000000;stroke-linecap:square;stroke-linejoin:miter;stroke-width:0.8;"/>
   </g>
   <g id="patch_9">
    <path d="M 518.4 384.48 
L 518.4 51.84 
" style="fill:none;stroke:#000000;stroke-linecap:square;stroke-linejoin:miter;stroke-width:0.8;"/>
   </g>
   <g id="patch_10">
    <path d="M 72 384.48 
L 518.4 384.48 
" style="fill:none;stroke:#000000;stroke-linecap:square;stroke-linejoin:miter;stroke-width:0.8;"/>
   </g>
   <g id="patch_11">
    <path d="M 72 51.84 
L 518.4 51.84 
" style="fill:none;stroke:#000000;stroke-linecap:square;stroke-linejoin:miter;stroke-width:0.8;"/>
   </g>
   <g id="text_23">
    <!-- The learning curve on 8clients_iid/host/4 -->
    <g transform="translate(172.2 45.84)scale(0.12 -0.12)">
     <defs>
      <path d="M 44.921875 60.9375 
L 29.296875 60.9375 
L 29.296875 1.5625 
L 20.3125 1.5625 
L 20.3125 60.9375 
L 4.6875 60.9375 
L 4.6875 68.359375 
L 44.921875 68.359375 
z
" id="SimHei-84"/>
      <path id="SimHei-32"/>
      <path d="M 46.875 38.671875 
Q 44.140625 39.453125 41.59375 39.640625 
Q 39.0625 39.84375 36.328125 39.0625 
Q 37.5 37.890625 38.28125 36.125 
Q 39.0625 34.375 39.0625 30.859375 
Q 39.0625 24.21875 34.5625 19.921875 
Q 30.078125 15.625 23.4375 15.625 
Q 21.875 15.625 19.328125 16.203125 
Q 16.796875 16.796875 15.234375 17.578125 
Q 14.0625 16.796875 13.671875 16.015625 
Q 13.28125 15.234375 13.28125 14.0625 
Q 13.28125 12.109375 16.015625 11.125 
Q 18.75 10.15625 25.78125 10.15625 
Q 37.109375 10.15625 41.203125 7.03125 
Q 45.3125 3.90625 45.3125 -0.78125 
Q 45.3125 -7.03125 39.25 -9.953125 
Q 33.203125 -12.890625 25 -12.890625 
Q 14.453125 -12.890625 9.375 -10.15625 
Q 4.296875 -7.421875 4.296875 -2.734375 
Q 4.296875 -0.390625 6.25 1.953125 
Q 8.203125 4.296875 11.328125 5.859375 
Q 8.984375 7.03125 7.609375 8.78125 
Q 6.25 10.546875 6.25 13.28125 
Q 6.25 15.625 8 17.375 
Q 9.765625 19.140625 12.109375 20.3125 
Q 10.15625 22.265625 8.984375 25 
Q 7.8125 27.734375 7.8125 30.859375 
Q 7.8125 37.5 12.296875 41.796875 
Q 16.796875 46.09375 23.4375 46.09375 
Q 26.953125 46.09375 29.484375 45.109375 
Q 32.03125 44.140625 33.984375 42.1875 
Q 37.109375 44.53125 40.234375 45.5 
Q 43.359375 46.484375 46.875 46.09375 
z
M 31.25 30.859375 
Q 31.25 34.765625 29.296875 37.109375 
Q 27.34375 39.453125 23.4375 39.453125 
Q 19.53125 39.453125 17.578125 37.109375 
Q 15.625 34.765625 15.625 30.859375 
Q 15.625 26.953125 17.578125 24.609375 
Q 19.53125 22.265625 23.4375 22.265625 
Q 27.34375 22.265625 29.296875 24.609375 
Q 31.25 26.953125 31.25 30.859375 
z
M 37.890625 -1.5625 
Q 37.890625 0 36.125 1.5625 
Q 34.375 3.125 27.34375 3.125 
Q 25.78125 3.125 23.046875 3.3125 
Q 20.3125 3.515625 16.796875 3.90625 
Q 13.671875 2.734375 12.5 1.171875 
Q 11.328125 -0.390625 11.328125 -1.953125 
Q 11.328125 -4.296875 14.453125 -5.859375 
Q 17.578125 -7.421875 25.390625 -7.421875 
Q 32.03125 -7.421875 34.953125 -5.65625 
Q 37.890625 -3.90625 37.890625 -1.5625 
z
" id="SimHei-103"/>
      <path d="M 44.140625 1.5625 
L 36.328125 1.5625 
L 36.328125 9.765625 
Q 33.203125 5.46875 29.484375 3.125 
Q 25.78125 0.78125 19.921875 0.78125 
Q 12.890625 0.78125 9.375 4.6875 
Q 5.859375 8.59375 5.859375 14.453125 
L 5.859375 45.3125 
L 13.671875 45.3125 
L 13.671875 17.1875 
Q 13.671875 12.5 16.015625 9.765625 
Q 18.359375 7.03125 22.265625 7.03125 
Q 27.34375 7.03125 31.828125 12.296875 
Q 36.328125 17.578125 36.328125 25.390625 
L 36.328125 45.3125 
L 44.140625 45.3125 
z
" id="SimHei-117"/>
      <path d="M 45.3125 45.3125 
L 28.90625 0.78125 
L 20.3125 0.78125 
L 3.90625 45.3125 
L 12.109375 45.3125 
L 24.21875 11.328125 
L 25 11.328125 
L 37.109375 45.3125 
z
" id="SimHei-118"/>
      <path d="M 49.609375 -13.671875 
L 0 -13.671875 
L 0 -8.984375 
L 49.609375 -8.984375 
z
" id="SimHei-95"/>
      <path d="M 43.359375 1.5625 
L 35.546875 1.5625 
L 35.546875 7.421875 
Q 33.203125 3.90625 30.078125 2.34375 
Q 26.953125 0.78125 22.65625 0.78125 
Q 14.84375 0.78125 9.375 6.4375 
Q 3.90625 12.109375 3.90625 23.4375 
Q 3.90625 34.765625 9.375 40.625 
Q 14.84375 46.484375 22.65625 46.484375 
Q 26.953125 46.484375 30.078125 44.71875 
Q 33.203125 42.96875 35.546875 39.453125 
L 35.546875 68.359375 
L 43.359375 68.359375 
z
M 35.546875 23.4375 
Q 35.546875 30.859375 32.21875 35.15625 
Q 28.90625 39.453125 24.21875 39.453125 
Q 18.359375 39.453125 15.421875 35.15625 
Q 12.5 30.859375 12.5 23.4375 
Q 12.5 16.015625 15.421875 11.90625 
Q 18.359375 7.8125 24.21875 7.8125 
Q 28.90625 7.8125 32.21875 11.90625 
Q 35.546875 16.015625 35.546875 23.4375 
z
" id="SimHei-100"/>
      <path d="M 47.265625 70.703125 
L 5.859375 -3.125 
L 1.953125 -0.78125 
L 43.359375 73.046875 
z
" id="SimHei-47"/>
     </defs>
     <use xlink:href="#SimHei-84"/>
     <use x="50" xlink:href="#SimHei-104"/>
     <use x="100" xlink:href="#SimHei-101"/>
     <use x="150" xlink:href="#SimHei-32"/>
     <use x="200" xlink:href="#SimHei-108"/>
     <use x="250" xlink:href="#SimHei-101"/>
     <use x="300" xlink:href="#SimHei-97"/>
     <use x="350" xlink:href="#SimHei-114"/>
     <use x="400" xlink:href="#SimHei-110"/>
     <use x="450" xlink:href="#SimHei-105"/>
     <use x="500" xlink:href="#SimHei-110"/>
     <use x="550" xlink:href="#SimHei-103"/>
     <use x="600" xlink:href="#SimHei-32"/>
     <use x="650" xlink:href="#SimHei-99"/>
     <use x="700" xlink:href="#SimHei-117"/>
     <use x="750" xlink:href="#SimHei-114"/>
     <use x="800" xlink:href="#SimHei-118"/>
     <use x="850" xlink:href="#SimHei-101"/>
     <use x="900" xlink:href="#SimHei-32"/>
     <use x="950" xlink:href="#SimHei-111"/>
     <use x="1000" xlink:href="#SimHei-110"/>
     <use x="1050" xlink:href="#SimHei-32"/>
     <use x="1100" xlink:href="#SimHei-56"/>
     <use x="1150" xlink:href="#SimHei-99"/>
     <use x="1200" xlink:href="#SimHei-108"/>
     <use x="1250" xlink:href="#SimHei-105"/>
     <use x="1300" xlink:href="#SimHei-101"/>
     <use x="1350" xlink:href="#SimHei-110"/>
     <use x="1400" xlink:href="#SimHei-116"/>
     <use x="1450" xlink:href="#SimHei-115"/>
     <use x="1500" xlink:href="#SimHei-95"/>
     <use x="1550" xlink:href="#SimHei-105"/>
     <use x="1600" xlink:href="#SimHei-105"/>
     <use x="1650" xlink:href="#SimHei-100"/>
     <use x="1700" xlink:href="#SimHei-47"/>
     <use x="1750" xlink:href="#SimHei-104"/>
     <use x="1800" xlink:href="#SimHei-111"/>
     <use x="1850" xlink:href="#SimHei-115"/>
     <use x="1900" xlink:href="#SimHei-116"/>
     <use x="1950" xlink:href="#SimHei-47"/>
     <use x="2000" xlink:href="#SimHei-52"/>
    </g>
   </g>
   <g id="legend_2">
    <g id="patch_12">
     <path d="M 459.4 73.129062 
L 511.4 73.129062 
Q 513.4 73.129062 513.4 71.129062 
L 513.4 58.84 
Q 513.4 56.84 511.4 56.84 
L 459.4 56.84 
Q 457.4 56.84 457.4 58.84 
L 457.4 71.129062 
Q 457.4 73.129062 459.4 73.129062 
z
" style="fill:#ffffff;opacity:0.8;stroke:#cccccc;stroke-linejoin:miter;"/>
    </g>
    <g id="line2d_25">
     <path d="M 461.4 64.34 
L 481.4 64.34 
" style="fill:none;stroke:#ff0000;stroke-linecap:square;stroke-width:1.5;"/>
    </g>
    <g id="line2d_26"/>
    <g id="text_24">
     <!-- loss -->
     <g transform="translate(489.4 67.84)scale(0.1 -0.1)">
      <use xlink:href="#SimHei-108"/>
      <use x="50" xlink:href="#SimHei-111"/>
      <use x="100" xlink:href="#SimHei-115"/>
      <use x="150" xlink:href="#SimHei-115"/>
     </g>
    </g>
   </g>
  </g>
 </g>
 <defs>
  <clipPath id="p76fd92f5a0">
   <rect height="332.64" width="446.4" x="72" y="51.84"/>
  </clipPath>
 </defs>
</svg>
