<?xml version="1.0" encoding="utf-8" standalone="no"?>
<!DOCTYPE svg PUBLIC "-//W3C//DTD SVG 1.1//EN"
  "http://www.w3.org/Graphics/SVG/1.1/DTD/svg11.dtd">
<!-- Created with matplotlib (https://matplotlib.org/) -->
<svg height="432pt" version="1.1" viewBox="0 0 576 432" width="576pt" xmlns="http://www.w3.org/2000/svg" xmlns:xlink="http://www.w3.org/1999/xlink">
 <metadata>
  <rdf:RDF xmlns:cc="http://creativecommons.org/ns#" xmlns:dc="http://purl.org/dc/elements/1.1/" xmlns:rdf="http://www.w3.org/1999/02/22-rdf-syntax-ns#">
   <cc:Work>
    <dc:type rdf:resource="http://purl.org/dc/dcmitype/StillImage"/>
    <dc:date>2023-03-28T10:09:00.420878</dc:date>
    <dc:format>image/svg+xml</dc:format>
    <dc:creator>
     <cc:Agent>
      <dc:title>Matplotlib v3.3.4, https://matplotlib.org/</dc:title>
     </cc:Agent>
    </dc:creator>
   </cc:Work>
  </rdf:RDF>
 </metadata>
 <defs>
  <style type="text/css">*{stroke-linecap:butt;stroke-linejoin:round;}</style>
 </defs>
 <g id="figure_1">
  <g id="patch_1">
   <path d="M 0 432 
L 576 432 
L 576 0 
L 0 0 
z
" style="fill:#ffffff;"/>
  </g>
  <g id="axes_1">
   <g id="patch_2">
    <path d="M 72 384.48 
L 518.4 384.48 
L 518.4 51.84 
L 72 51.84 
z
" style="fill:#ffffff;"/>
   </g>
   <g id="matplotlib.axis_1">
    <g id="xtick_1">
     <g id="line2d_1">
      <defs>
       <path d="M 0 0 
L 0 3.5 
" id="mdd1eacd7af" style="stroke:#000000;stroke-width:0.8;"/>
      </defs>
      <g>
       <use style="stroke:#000000;stroke-width:0.8;" x="92.290909" xlink:href="#mdd1eacd7af" y="384.48"/>
      </g>
     </g>
     <g id="text_1">
      <!-- 0 -->
      <g transform="translate(89.790909 398.315938)scale(0.1 -0.1)">
       <defs>
        <path d="M 46.484375 35.15625 
Q 46.484375 21.09375 41.40625 10.9375 
Q 36.328125 0.78125 25 0.78125 
Q 13.671875 0.78125 8.390625 10.9375 
Q 3.125 21.09375 3.125 35.15625 
Q 3.125 49.21875 8.390625 59.171875 
Q 13.671875 69.140625 25 69.140625 
Q 36.328125 69.140625 41.40625 59.171875 
Q 46.484375 49.21875 46.484375 35.15625 
z
M 37.109375 35.15625 
Q 37.109375 47.65625 34.171875 54.6875 
Q 31.25 61.71875 25 61.71875 
Q 18.75 61.71875 15.625 54.6875 
Q 12.5 47.65625 12.5 35.15625 
Q 12.5 22.65625 15.625 15.421875 
Q 18.75 8.203125 25 8.203125 
Q 31.25 8.203125 34.171875 15.421875 
Q 37.109375 22.65625 37.109375 35.15625 
z
" id="SimHei-48"/>
       </defs>
       <use xlink:href="#SimHei-48"/>
      </g>
     </g>
    </g>
    <g id="xtick_2">
     <g id="line2d_2">
      <g>
       <use style="stroke:#000000;stroke-width:0.8;" x="173.53579" xlink:href="#mdd1eacd7af" y="384.48"/>
      </g>
     </g>
     <g id="text_2">
      <!-- 200 -->
      <g transform="translate(166.03579 398.315938)scale(0.1 -0.1)">
       <defs>
        <path d="M 44.53125 1.5625 
L 4.6875 1.5625 
L 4.6875 7.8125 
Q 7.03125 14.0625 11.125 19.328125 
Q 15.234375 24.609375 23.046875 31.25 
Q 28.90625 36.328125 31.4375 40.625 
Q 33.984375 44.921875 33.984375 50 
Q 33.984375 55.078125 31.828125 58.390625 
Q 29.6875 61.71875 25 61.71875 
Q 21.09375 61.71875 18.15625 58.203125 
Q 15.234375 54.6875 15.234375 45.703125 
L 6.25 45.703125 
Q 6.640625 57.03125 11.515625 63.078125 
Q 16.40625 69.140625 25.390625 69.140625 
Q 33.984375 69.140625 38.671875 63.859375 
Q 43.359375 58.59375 43.359375 49.609375 
Q 43.359375 42.1875 39.0625 36.71875 
Q 34.765625 31.25 28.515625 25.78125 
Q 21.484375 19.53125 18.75 16.40625 
Q 16.015625 13.28125 13.671875 8.984375 
L 44.53125 8.984375 
z
" id="SimHei-50"/>
       </defs>
       <use xlink:href="#SimHei-50"/>
       <use x="50" xlink:href="#SimHei-48"/>
       <use x="100" xlink:href="#SimHei-48"/>
      </g>
     </g>
    </g>
    <g id="xtick_3">
     <g id="line2d_3">
      <g>
       <use style="stroke:#000000;stroke-width:0.8;" x="254.780672" xlink:href="#mdd1eacd7af" y="384.48"/>
      </g>
     </g>
     <g id="text_3">
      <!-- 400 -->
      <g transform="translate(247.280672 398.315938)scale(0.1 -0.1)">
       <defs>
        <path d="M 46.484375 18.75 
L 38.28125 18.75 
L 38.28125 1.5625 
L 29.296875 1.5625 
L 29.296875 18.75 
L 3.125 18.75 
L 3.125 26.171875 
L 29.296875 69.140625 
L 38.28125 69.140625 
L 38.28125 26.171875 
L 46.484375 26.171875 
z
M 29.296875 26.171875 
L 29.296875 55.078125 
L 11.71875 26.171875 
z
" id="SimHei-52"/>
       </defs>
       <use xlink:href="#SimHei-52"/>
       <use x="50" xlink:href="#SimHei-48"/>
       <use x="100" xlink:href="#SimHei-48"/>
      </g>
     </g>
    </g>
    <g id="xtick_4">
     <g id="line2d_4">
      <g>
       <use style="stroke:#000000;stroke-width:0.8;" x="336.025553" xlink:href="#mdd1eacd7af" y="384.48"/>
      </g>
     </g>
     <g id="text_4">
      <!-- 600 -->
      <g transform="translate(328.525553 398.315938)scale(0.1 -0.1)">
       <defs>
        <path d="M 44.53125 24.21875 
Q 44.53125 13.28125 39.84375 7.03125 
Q 35.15625 0.78125 25.78125 0.78125 
Q 16.40625 0.78125 10.9375 8.59375 
Q 5.46875 16.40625 5.46875 33.984375 
Q 5.46875 50 11.125 59.5625 
Q 16.796875 69.140625 27.34375 69.140625 
Q 34.765625 69.140625 39.25 63.671875 
Q 43.75 58.203125 43.75 51.5625 
L 34.765625 51.5625 
Q 34.765625 55.46875 32.609375 58.59375 
Q 30.46875 61.71875 26.953125 61.71875 
Q 21.09375 61.71875 17.96875 55.65625 
Q 14.84375 49.609375 14.453125 37.109375 
Q 17.1875 42.1875 20.3125 44.140625 
Q 23.4375 46.09375 27.734375 46.09375 
Q 35.15625 46.09375 39.84375 40.234375 
Q 44.53125 34.375 44.53125 24.21875 
z
M 35.15625 24.21875 
Q 35.15625 31.25 32.8125 35.15625 
Q 30.46875 39.0625 26.171875 39.0625 
Q 21.09375 39.0625 18.15625 35.15625 
Q 15.234375 31.25 15.234375 25.78125 
Q 15.234375 17.1875 18.15625 12.5 
Q 21.09375 7.8125 26.171875 7.8125 
Q 29.6875 7.8125 32.421875 11.328125 
Q 35.15625 14.84375 35.15625 24.21875 
z
" id="SimHei-54"/>
       </defs>
       <use xlink:href="#SimHei-54"/>
       <use x="50" xlink:href="#SimHei-48"/>
       <use x="100" xlink:href="#SimHei-48"/>
      </g>
     </g>
    </g>
    <g id="xtick_5">
     <g id="line2d_5">
      <g>
       <use style="stroke:#000000;stroke-width:0.8;" x="417.270434" xlink:href="#mdd1eacd7af" y="384.48"/>
      </g>
     </g>
     <g id="text_5">
      <!-- 800 -->
      <g transform="translate(409.770434 398.315938)scale(0.1 -0.1)">
       <defs>
        <path d="M 44.921875 20.703125 
Q 44.921875 10.9375 39.453125 5.859375 
Q 33.984375 0.78125 24.609375 0.78125 
Q 15.234375 0.78125 9.765625 5.859375 
Q 4.296875 10.9375 4.296875 20.703125 
Q 4.296875 25.78125 7.421875 29.875 
Q 10.546875 33.984375 16.015625 35.9375 
Q 11.328125 37.890625 8.78125 41.40625 
Q 6.25 44.921875 6.25 50.390625 
Q 6.25 58.984375 11.71875 64.0625 
Q 17.1875 69.140625 24.609375 69.140625 
Q 32.03125 69.140625 37.5 64.0625 
Q 42.96875 58.984375 42.96875 50.390625 
Q 42.96875 44.921875 40.421875 41.40625 
Q 37.890625 37.890625 33.203125 35.9375 
Q 38.671875 33.984375 41.796875 29.875 
Q 44.921875 25.78125 44.921875 20.703125 
z
M 34.375 50.390625 
Q 34.375 56.640625 31.640625 59.375 
Q 28.90625 62.109375 24.609375 62.109375 
Q 20.3125 62.109375 17.578125 59.375 
Q 14.84375 56.640625 14.84375 50.390625 
Q 14.84375 44.140625 17.765625 41.59375 
Q 20.703125 39.0625 24.609375 39.0625 
Q 28.515625 39.0625 31.4375 41.59375 
Q 34.375 44.140625 34.375 50.390625 
z
M 35.9375 20.703125 
Q 35.9375 26.171875 33 29.296875 
Q 30.078125 32.421875 24.609375 32.421875 
Q 19.140625 32.421875 16.203125 29.296875 
Q 13.28125 26.171875 13.28125 20.703125 
Q 13.28125 14.453125 16.40625 11.125 
Q 19.53125 7.8125 24.609375 7.8125 
Q 29.6875 7.8125 32.8125 11.125 
Q 35.9375 14.453125 35.9375 20.703125 
z
" id="SimHei-56"/>
       </defs>
       <use xlink:href="#SimHei-56"/>
       <use x="50" xlink:href="#SimHei-48"/>
       <use x="100" xlink:href="#SimHei-48"/>
      </g>
     </g>
    </g>
    <g id="xtick_6">
     <g id="line2d_6">
      <g>
       <use style="stroke:#000000;stroke-width:0.8;" x="498.515315" xlink:href="#mdd1eacd7af" y="384.48"/>
      </g>
     </g>
     <g id="text_6">
      <!-- 1000 -->
      <g transform="translate(488.515315 398.315938)scale(0.1 -0.1)">
       <defs>
        <path d="M 30.46875 1.5625 
L 21.484375 1.5625 
L 21.484375 53.515625 
L 9.765625 53.515625 
L 9.765625 58.203125 
Q 16.796875 58.203125 20.703125 60.9375 
Q 24.609375 63.671875 25.78125 69.140625 
L 30.46875 69.140625 
z
" id="SimHei-49"/>
       </defs>
       <use xlink:href="#SimHei-49"/>
       <use x="50" xlink:href="#SimHei-48"/>
       <use x="100" xlink:href="#SimHei-48"/>
       <use x="150" xlink:href="#SimHei-48"/>
      </g>
     </g>
    </g>
    <g id="text_7">
     <!-- epoch -->
     <g transform="translate(282.7 410.440938)scale(0.1 -0.1)">
      <defs>
       <path d="M 44.921875 16.40625 
Q 44.140625 9.375 38.671875 5.078125 
Q 33.203125 0.78125 25.78125 0.78125 
Q 16.40625 0.78125 10.34375 6.828125 
Q 4.296875 12.890625 4.296875 23.4375 
Q 4.296875 33.984375 10.34375 40.03125 
Q 16.40625 46.09375 25.78125 46.09375 
Q 33.984375 46.09375 39.25 40.8125 
Q 44.53125 35.546875 44.53125 23.4375 
L 12.890625 23.4375 
Q 12.890625 14.84375 16.59375 11.328125 
Q 20.3125 7.8125 25.78125 7.8125 
Q 30.078125 7.8125 32.8125 9.953125 
Q 35.546875 12.109375 36.328125 16.40625 
z
M 35.546875 29.6875 
Q 34.765625 35.15625 32.03125 37.296875 
Q 29.296875 39.453125 25 39.453125 
Q 21.09375 39.453125 17.96875 37.296875 
Q 14.84375 35.15625 13.28125 29.6875 
z
" id="SimHei-101"/>
       <path d="M 44.53125 23.4375 
Q 44.53125 12.109375 39.0625 6.25 
Q 33.59375 0.390625 25.78125 0.390625 
Q 21.484375 0.390625 18.359375 2.140625 
Q 15.234375 3.90625 12.890625 7.421875 
L 12.890625 -12.890625 
L 5.078125 -12.890625 
L 5.078125 45.3125 
L 12.890625 45.3125 
L 12.890625 39.453125 
Q 15.234375 42.96875 18.359375 44.53125 
Q 21.484375 46.09375 25.78125 46.09375 
Q 33.59375 46.09375 39.0625 40.421875 
Q 44.53125 34.765625 44.53125 23.4375 
z
M 35.9375 23.4375 
Q 35.9375 30.859375 33 34.953125 
Q 30.078125 39.0625 24.21875 39.0625 
Q 19.53125 39.0625 16.203125 34.953125 
Q 12.890625 30.859375 12.890625 23.4375 
Q 12.890625 16.015625 16.203125 11.71875 
Q 19.53125 7.421875 24.21875 7.421875 
Q 30.078125 7.421875 33 11.71875 
Q 35.9375 16.015625 35.9375 23.4375 
z
" id="SimHei-112"/>
       <path d="M 46.09375 23.4375 
Q 46.09375 13.28125 39.84375 7.03125 
Q 33.59375 0.78125 25 0.78125 
Q 16.40625 0.78125 10.15625 7.03125 
Q 3.90625 13.28125 3.90625 23.4375 
Q 3.90625 33.59375 10.15625 39.84375 
Q 16.40625 46.09375 25 46.09375 
Q 33.59375 46.09375 39.84375 39.84375 
Q 46.09375 33.59375 46.09375 23.4375 
z
M 37.5 23.4375 
Q 37.5 31.25 33.59375 35.15625 
Q 29.6875 39.0625 25 39.0625 
Q 20.3125 39.0625 16.40625 35.15625 
Q 12.5 31.25 12.5 23.4375 
Q 12.5 15.625 16.40625 11.71875 
Q 20.3125 7.8125 25 7.8125 
Q 29.6875 7.8125 33.59375 11.71875 
Q 37.5 15.625 37.5 23.4375 
z
" id="SimHei-111"/>
       <path d="M 44.921875 19.140625 
Q 44.921875 10.9375 39.25 5.859375 
Q 33.59375 0.78125 25 0.78125 
Q 16.40625 0.78125 10.15625 6.828125 
Q 3.90625 12.890625 3.90625 23.4375 
Q 3.90625 33.984375 10.15625 40.03125 
Q 16.40625 46.09375 25 46.09375 
Q 33.59375 46.09375 38.671875 41.59375 
Q 43.75 37.109375 43.75 30.859375 
L 35.15625 30.859375 
Q 34.765625 35.546875 31.828125 37.296875 
Q 28.90625 39.0625 25 39.0625 
Q 20.3125 39.0625 16.40625 35.34375 
Q 12.5 31.640625 12.5 23.4375 
Q 12.5 15.234375 16.40625 11.515625 
Q 20.3125 7.8125 25 7.8125 
Q 30.078125 7.8125 33.203125 10.546875 
Q 36.328125 13.28125 36.328125 19.140625 
z
" id="SimHei-99"/>
       <path d="M 44.140625 1.5625 
L 36.328125 1.5625 
L 36.328125 29.6875 
Q 36.328125 34.375 33.984375 37.109375 
Q 31.640625 39.84375 27.734375 39.84375 
Q 22.65625 39.84375 18.15625 34.5625 
Q 13.671875 29.296875 13.671875 21.484375 
L 13.671875 1.5625 
L 5.859375 1.5625 
L 5.859375 68.359375 
L 13.671875 68.359375 
L 13.671875 37.109375 
Q 16.796875 41.40625 20.5 43.75 
Q 24.21875 46.09375 30.078125 46.09375 
Q 37.109375 46.09375 40.625 42.1875 
Q 44.140625 38.28125 44.140625 32.421875 
z
" id="SimHei-104"/>
      </defs>
      <use xlink:href="#SimHei-101"/>
      <use x="50" xlink:href="#SimHei-112"/>
      <use x="100" xlink:href="#SimHei-111"/>
      <use x="150" xlink:href="#SimHei-99"/>
      <use x="200" xlink:href="#SimHei-104"/>
     </g>
    </g>
   </g>
   <g id="matplotlib.axis_2">
    <g id="ytick_1">
     <g id="line2d_7">
      <defs>
       <path d="M 0 0 
L -3.5 0 
" id="md770ce727f" style="stroke:#000000;stroke-width:0.8;"/>
      </defs>
      <g>
       <use style="stroke:#000000;stroke-width:0.8;" x="72" xlink:href="#md770ce727f" y="384.48"/>
      </g>
     </g>
     <g id="text_8">
      <!-- 0.0 -->
      <g transform="translate(50 387.897969)scale(0.1 -0.1)">
       <defs>
        <path d="M 17.1875 1.5625 
L 8.203125 1.5625 
L 8.203125 10.15625 
L 17.1875 10.15625 
z
" id="SimHei-46"/>
       </defs>
       <use xlink:href="#SimHei-48"/>
       <use x="50" xlink:href="#SimHei-46"/>
       <use x="100" xlink:href="#SimHei-48"/>
      </g>
     </g>
    </g>
    <g id="ytick_2">
     <g id="line2d_8">
      <g>
       <use style="stroke:#000000;stroke-width:0.8;" x="72" xlink:href="#md770ce727f" y="317.952"/>
      </g>
     </g>
     <g id="text_9">
      <!-- 0.2 -->
      <g transform="translate(50 321.369969)scale(0.1 -0.1)">
       <use xlink:href="#SimHei-48"/>
       <use x="50" xlink:href="#SimHei-46"/>
       <use x="100" xlink:href="#SimHei-50"/>
      </g>
     </g>
    </g>
    <g id="ytick_3">
     <g id="line2d_9">
      <g>
       <use style="stroke:#000000;stroke-width:0.8;" x="72" xlink:href="#md770ce727f" y="251.424"/>
      </g>
     </g>
     <g id="text_10">
      <!-- 0.4 -->
      <g transform="translate(50 254.841969)scale(0.1 -0.1)">
       <use xlink:href="#SimHei-48"/>
       <use x="50" xlink:href="#SimHei-46"/>
       <use x="100" xlink:href="#SimHei-52"/>
      </g>
     </g>
    </g>
    <g id="ytick_4">
     <g id="line2d_10">
      <g>
       <use style="stroke:#000000;stroke-width:0.8;" x="72" xlink:href="#md770ce727f" y="184.896"/>
      </g>
     </g>
     <g id="text_11">
      <!-- 0.6 -->
      <g transform="translate(50 188.313969)scale(0.1 -0.1)">
       <use xlink:href="#SimHei-48"/>
       <use x="50" xlink:href="#SimHei-46"/>
       <use x="100" xlink:href="#SimHei-54"/>
      </g>
     </g>
    </g>
    <g id="ytick_5">
     <g id="line2d_11">
      <g>
       <use style="stroke:#000000;stroke-width:0.8;" x="72" xlink:href="#md770ce727f" y="118.368"/>
      </g>
     </g>
     <g id="text_12">
      <!-- 0.8 -->
      <g transform="translate(50 121.785969)scale(0.1 -0.1)">
       <use xlink:href="#SimHei-48"/>
       <use x="50" xlink:href="#SimHei-46"/>
       <use x="100" xlink:href="#SimHei-56"/>
      </g>
     </g>
    </g>
    <g id="ytick_6">
     <g id="line2d_12">
      <g>
       <use style="stroke:#000000;stroke-width:0.8;" x="72" xlink:href="#md770ce727f" y="51.84"/>
      </g>
     </g>
     <g id="text_13">
      <!-- 1.0 -->
      <g transform="translate(50 55.257969)scale(0.1 -0.1)">
       <use xlink:href="#SimHei-49"/>
       <use x="50" xlink:href="#SimHei-46"/>
       <use x="100" xlink:href="#SimHei-48"/>
      </g>
     </g>
    </g>
    <g id="text_14">
     <!-- rate -->
     <g transform="translate(44.710938 228.16)rotate(-90)scale(0.1 -0.1)">
      <defs>
       <path d="M 39.453125 37.5 
Q 32.03125 38.671875 26.953125 35.34375 
Q 21.875 32.03125 18.359375 23.828125 
L 18.359375 1.5625 
L 10.546875 1.5625 
L 10.546875 45.3125 
L 18.359375 45.3125 
L 18.359375 33.984375 
Q 21.875 40.234375 27.140625 43.15625 
Q 32.421875 46.09375 39.453125 46.09375 
z
" id="SimHei-114"/>
       <path d="M 45.3125 1.5625 
L 35.9375 1.5625 
Q 35.15625 2.34375 34.765625 3.703125 
Q 34.375 5.078125 34.375 7.03125 
Q 31.640625 3.90625 27.734375 2.34375 
Q 23.828125 0.78125 19.53125 0.78125 
Q 13.28125 0.78125 8.984375 3.90625 
Q 4.6875 7.03125 4.6875 12.890625 
Q 4.6875 18.75 8.59375 22.265625 
Q 12.5 25.78125 20.703125 26.953125 
Q 26.171875 27.734375 30.265625 28.90625 
Q 34.375 30.078125 34.375 32.03125 
Q 34.375 34.375 32.609375 36.71875 
Q 30.859375 39.0625 25 39.0625 
Q 20.3125 39.0625 18.15625 37.296875 
Q 16.015625 35.546875 15.234375 32.421875 
L 6.640625 32.421875 
Q 7.421875 38.671875 12.296875 42.375 
Q 17.1875 46.09375 25 46.09375 
Q 33.59375 46.09375 37.890625 42.1875 
Q 42.1875 38.28125 42.1875 31.25 
L 42.1875 9.765625 
Q 42.1875 7.421875 42.96875 5.46875 
Q 43.75 3.515625 45.3125 1.5625 
z
M 34.375 16.015625 
L 34.375 23.828125 
Q 32.03125 23.046875 29.875 22.453125 
Q 27.734375 21.875 22.65625 21.09375 
Q 16.796875 20.3125 15.03125 18.359375 
Q 13.28125 16.40625 13.28125 13.671875 
Q 13.28125 11.328125 15.03125 9.5625 
Q 16.796875 7.8125 20.3125 7.8125 
Q 23.828125 7.8125 27.921875 9.765625 
Q 32.03125 11.71875 34.375 16.015625 
z
" id="SimHei-97"/>
       <path d="M 43.359375 2.734375 
Q 41.40625 1.953125 38.859375 1.359375 
Q 36.328125 0.78125 32.03125 0.78125 
Q 25 0.78125 20.703125 4.6875 
Q 16.40625 8.59375 16.40625 15.625 
L 16.40625 39.0625 
L 3.125 39.0625 
L 3.125 45.3125 
L 16.40625 45.3125 
L 16.40625 60.546875 
L 24.21875 60.546875 
L 24.21875 45.3125 
L 40.234375 45.3125 
L 40.234375 39.0625 
L 24.21875 39.0625 
L 24.21875 15.234375 
Q 24.21875 12.109375 25.78125 9.953125 
Q 27.34375 7.8125 31.640625 7.8125 
Q 35.9375 7.8125 38.671875 8.59375 
Q 41.40625 9.375 43.359375 10.546875 
z
" id="SimHei-116"/>
      </defs>
      <use xlink:href="#SimHei-114"/>
      <use x="50" xlink:href="#SimHei-97"/>
      <use x="100" xlink:href="#SimHei-116"/>
      <use x="150" xlink:href="#SimHei-101"/>
     </g>
    </g>
   </g>
   <g id="line2d_13">
    <path clip-path="url(#pf6ff0c5503)" d="M 92.290909 293.182312 
L 92.697133 328.756363 
L 93.103358 346.27965 
L 93.509582 373.154663 
L 93.915807 375.402494 
L 94.728256 324.489999 
L 95.13448 371.405091 
L 95.540704 361.231947 
L 95.946929 372.431099 
L 96.353153 368.296458 
L 96.759378 368.24189 
L 97.165602 373.436345 
L 97.571826 362.968876 
L 97.978051 303.742538 
L 98.384275 362.166488 
L 98.7905 348.123218 
L 99.196724 357.531797 
L 99.602948 359.776238 
L 100.009173 342.436957 
L 100.415397 361.95576 
L 100.821622 351.52993 
L 101.227846 367.9789 
L 101.63407 356.497596 
L 102.040295 321.208823 
L 102.446519 369.98716 
L 102.852744 354.964181 
L 103.258968 354.983675 
L 103.665192 364.974376 
L 104.071417 327.63556 
L 104.477641 334.201072 
L 104.883866 331.491931 
L 105.29009 346.129654 
L 105.696314 325.050574 
L 106.508763 305.81383 
L 106.914988 346.588766 
L 107.321212 343.943882 
L 107.727437 339.321523 
L 108.133661 357.363422 
L 108.539885 353.663959 
L 108.94611 296.402037 
L 109.352334 310.765844 
L 109.758559 371.292209 
L 110.164783 353.350899 
L 110.571007 365.42844 
L 110.977232 346.546021 
L 111.383456 315.786737 
L 111.789681 369.608417 
L 112.195905 365.62291 
L 112.602129 352.124035 
L 113.008354 331.179532 
L 113.414578 365.932537 
L 113.820803 361.226586 
L 114.227027 347.763743 
L 114.633251 312.093796 
L 115.039476 370.82898 
L 115.4457 342.921796 
L 115.851925 364.447349 
L 116.258149 354.669447 
L 116.664373 371.684681 
L 117.070598 371.410863 
L 117.476822 350.942032 
L 117.883047 347.099479 
L 118.289271 349.917006 
L 118.695495 326.429833 
L 119.10172 364.098079 
L 119.507944 370.25022 
L 119.914169 310.249194 
L 120.320393 322.833843 
L 120.726618 367.688741 
L 121.132842 332.086977 
L 121.539066 283.030829 
L 121.945291 357.749592 
L 122.351515 339.64637 
L 123.163964 296.557381 
L 123.570188 340.163451 
L 123.976413 292.198362 
L 124.788862 330.288466 
L 125.195086 321.777652 
L 125.60131 367.724416 
L 126.413759 338.122192 
L 126.819984 350.315452 
L 127.226208 366.849949 
L 127.632432 361.661768 
L 128.038657 289.933127 
L 128.444881 371.167869 
L 128.851106 365.499284 
L 129.25733 371.681817 
L 129.663554 358.339717 
L 130.069779 355.669808 
L 130.476003 360.36518 
L 130.882228 328.112393 
L 131.288452 350.513202 
L 131.694676 360.678352 
L 132.100901 287.999112 
L 132.507125 333.895997 
L 132.91335 359.819249 
L 133.319574 339.394335 
L 133.725799 289.979517 
L 134.132023 367.907775 
L 134.538247 367.612346 
L 134.944472 360.339385 
L 135.350696 300.833116 
L 135.756921 330.233333 
L 136.163145 370.577876 
L 136.569369 368.088049 
L 136.975594 321.38537 
L 137.381818 348.612097 
L 137.788043 357.351372 
L 138.194267 357.129976 
L 138.600491 335.330734 
L 139.006716 360.833505 
L 139.41294 368.1932 
L 139.819165 362.429071 
L 140.225389 360.872345 
L 140.631613 363.873801 
L 141.037838 358.297873 
L 141.444062 326.67211 
L 141.850287 316.02861 
L 142.256511 362.821476 
L 142.662735 373.575684 
L 143.06896 364.186096 
L 143.475184 371.510997 
L 143.881409 319.661603 
L 144.287633 370.383116 
L 144.693857 336.804912 
L 145.100082 372.097774 
L 145.506306 367.044386 
L 145.912531 359.326954 
L 146.318755 362.043115 
L 147.131204 296.229771 
L 147.943653 373.642422 
L 148.349877 369.087263 
L 148.756102 359.616088 
L 149.162326 364.819988 
L 149.56855 337.694707 
L 149.974775 340.408922 
L 150.380999 325.620596 
L 150.787224 362.687674 
L 151.193448 360.082982 
L 151.599672 367.102792 
L 152.005897 344.186361 
L 152.412121 372.283464 
L 152.818346 375.010641 
L 153.22457 370.478739 
L 153.630794 320.473199 
L 154.443243 356.855915 
L 154.849468 365.29949 
L 155.255692 365.128404 
L 156.068141 347.17451 
L 156.474365 317.422241 
L 156.88059 312.623283 
L 157.286814 372.445532 
L 157.693038 370.026022 
L 158.099263 359.420556 
L 158.505487 369.130788 
L 158.911712 365.179068 
L 159.724161 309.787645 
L 160.130385 372.250961 
L 160.536609 371.042316 
L 160.942834 372.326322 
L 161.349058 357.583789 
L 161.755283 349.799466 
L 162.161507 334.243889 
L 162.567731 295.6684 
L 162.973956 345.967303 
L 163.38018 369.185691 
L 163.786405 359.70934 
L 164.192629 342.299552 
L 164.598853 344.621133 
L 165.005078 334.711714 
L 165.411302 361.873718 
L 165.817527 327.024221 
L 166.223751 337.060059 
L 166.629975 332.319071 
L 167.0362 364.919098 
L 167.442424 353.326343 
L 167.848649 304.881705 
L 168.254873 350.863312 
L 168.661097 284.195791 
L 169.067322 322.358626 
L 169.473546 338.294266 
L 169.879771 366.667244 
L 170.692219 305.547337 
L 171.098444 357.690799 
L 171.504668 352.918417 
L 171.910893 365.331237 
L 172.317117 356.539296 
L 172.723342 310.415528 
L 173.129566 311.477936 
L 173.53579 326.477743 
L 173.942015 334.051753 
L 174.348239 337.600995 
L 174.754464 329.232538 
L 175.160688 334.217683 
L 175.566912 354.447856 
L 175.973137 355.73043 
L 176.379361 370.975507 
L 176.785586 345.440773 
L 177.598034 372.233429 
L 178.004259 371.861351 
L 178.410483 368.406762 
L 178.816708 363.838858 
L 179.222932 294.029586 
L 179.629156 337.017993 
L 180.035381 302.998772 
L 180.441605 365.986811 
L 180.84783 296.455514 
L 181.254054 347.468654 
L 181.660278 370.971744 
L 182.066503 357.488112 
L 182.472727 371.329222 
L 182.878952 351.319232 
L 183.285176 324.865247 
L 183.6914 356.502792 
L 184.097625 339.402488 
L 184.503849 369.608268 
L 184.910074 303.561899 
L 185.316298 342.804436 
L 185.722523 368.224328 
L 186.128747 322.633579 
L 186.534971 349.685414 
L 186.941196 322.722855 
L 187.34742 321.913123 
L 187.753645 333.486691 
L 188.159869 319.615275 
L 188.566093 373.709543 
L 188.972318 373.087817 
L 189.378542 355.616051 
L 189.784767 367.800719 
L 190.190991 368.944447 
L 190.597215 371.12614 
L 191.00344 370.958744 
L 191.409664 352.22577 
L 191.815889 293.300685 
L 192.222113 358.996413 
L 192.628337 346.869261 
L 193.440786 294.800852 
L 193.847011 348.484487 
L 194.253235 285.854203 
L 194.659459 290.964764 
L 195.065684 340.439195 
L 195.471908 366.540663 
L 195.878133 331.344038 
L 196.284357 339.533582 
L 196.690581 284.330639 
L 197.096806 348.382809 
L 197.50303 347.201814 
L 197.909255 371.497129 
L 198.315479 326.187192 
L 198.721704 323.887137 
L 199.534152 350.468015 
L 199.940377 335.515439 
L 200.346601 329.791914 
L 200.752826 359.50914 
L 201.15905 318.959028 
L 201.565274 334.011685 
L 201.971499 337.876886 
L 202.377723 332.872693 
L 203.190172 373.28349 
L 203.596396 368.612513 
L 204.002621 299.415794 
L 204.408845 357.788128 
L 204.81507 367.871783 
L 205.221294 350.646699 
L 205.627518 352.737595 
L 206.033743 368.311735 
L 206.439967 374.404639 
L 206.846192 355.882586 
L 207.252416 310.083431 
L 207.65864 364.375891 
L 208.064865 358.419786 
L 208.471089 366.122759 
L 208.877314 301.763857 
L 209.283538 355.923549 
L 209.689762 323.053716 
L 210.095987 370.093028 
L 210.502211 332.829302 
L 210.908436 367.559296 
L 211.31466 340.952238 
L 211.720885 336.767169 
L 212.127109 345.175199 
L 212.533333 369.450863 
L 212.939558 373.064798 
L 213.345782 338.492302 
L 213.752007 328.612829 
L 214.158231 369.233119 
L 214.564455 363.605386 
L 214.97068 361.398608 
L 215.376904 368.179136 
L 215.783129 367.032761 
L 216.189353 335.348036 
L 216.595577 349.896595 
L 217.001802 348.969857 
L 217.408026 371.672131 
L 217.814251 364.574057 
L 218.220475 332.706851 
L 218.626699 369.64357 
L 219.032924 375.248493 
L 219.845373 329.643233 
L 220.251597 363.656122 
L 220.657821 359.068559 
L 221.064046 372.153544 
L 221.47027 354.215625 
L 221.876495 355.156077 
L 222.282719 350.709213 
L 222.688943 344.586283 
L 223.095168 362.659435 
L 223.907617 342.339552 
L 224.313841 368.567937 
L 224.720066 321.012246 
L 225.12629 329.535923 
L 225.532514 352.132261 
L 225.938739 322.72143 
L 226.344963 338.420264 
L 226.751188 348.556222 
L 227.157412 323.843916 
L 227.563636 367.454699 
L 228.376085 348.413354 
L 228.78231 363.559462 
L 229.188534 364.853509 
L 229.594758 349.880649 
L 230.000983 349.745007 
L 230.407207 367.445903 
L 230.813432 350.055753 
L 231.219656 370.275451 
L 231.62588 360.601458 
L 232.032105 300.448891 
L 232.844554 342.080567 
L 233.250778 286.322303 
L 233.657002 351.550825 
L 234.063227 357.087424 
L 234.469451 343.275118 
L 234.875676 354.370754 
L 235.2819 331.324551 
L 235.688124 373.130779 
L 236.094349 369.956562 
L 236.500573 365.523274 
L 236.906798 315.751351 
L 237.313022 319.109355 
L 237.719247 328.613044 
L 238.125471 356.830739 
L 238.531695 336.164655 
L 238.93792 348.391388 
L 239.344144 328.247871 
L 239.750369 352.582037 
L 240.156593 336.698415 
L 240.562817 348.718901 
L 240.969042 301.838818 
L 241.375266 317.772706 
L 241.781491 373.130709 
L 242.187715 360.576959 
L 242.593939 355.325335 
L 243.000164 367.51361 
L 243.406388 364.48164 
L 243.812613 346.042658 
L 244.218837 370.910235 
L 244.625061 352.726879 
L 245.031286 361.989822 
L 245.43751 340.069189 
L 245.843735 347.667539 
L 246.249959 344.074098 
L 246.656183 356.962829 
L 247.062408 288.640287 
L 247.874857 366.195286 
L 248.281081 369.144142 
L 249.09353 330.962175 
L 249.499754 354.594297 
L 249.905979 366.197818 
L 250.312203 370.707419 
L 250.718428 364.601423 
L 251.124652 363.780063 
L 251.530876 361.941169 
L 251.937101 345.997417 
L 252.343325 357.814834 
L 252.74955 340.704822 
L 253.155774 342.097349 
L 253.561998 368.386597 
L 253.968223 299.325804 
L 254.374447 342.985572 
L 254.780672 362.818823 
L 255.186896 372.58144 
L 255.59312 370.27 
L 255.999345 340.444616 
L 256.405569 349.988571 
L 256.811794 309.999095 
L 257.218018 371.88345 
L 257.624242 364.665046 
L 258.030467 362.718511 
L 258.436691 362.560831 
L 258.842916 370.104516 
L 259.24914 358.08399 
L 259.655364 334.964037 
L 260.061589 351.728185 
L 260.467813 355.962374 
L 260.874038 354.012071 
L 261.280262 357.197954 
L 261.686486 358.953222 
L 262.092711 369.499768 
L 262.498935 354.606111 
L 262.90516 362.669786 
L 263.311384 347.414347 
L 263.717609 341.70525 
L 264.123833 369.923921 
L 264.530057 336.611973 
L 264.936282 365.560338 
L 265.342506 343.183565 
L 265.748731 287.33244 
L 266.154955 351.313844 
L 266.561179 368.531186 
L 266.967404 369.263477 
L 267.373628 368.578005 
L 267.779853 370.177227 
L 268.186077 318.137847 
L 268.592301 341.095864 
L 268.998526 355.996722 
L 269.40475 357.120232 
L 269.810975 373.853594 
L 270.217199 360.205764 
L 270.623423 326.922244 
L 271.029648 341.640096 
L 271.435872 336.44893 
L 271.842097 364.946465 
L 272.248321 362.021277 
L 272.654545 371.457825 
L 273.06077 376.274595 
L 273.466994 355.698286 
L 273.873219 346.853544 
L 274.279443 349.977788 
L 274.685667 345.820628 
L 275.091892 369.193571 
L 275.498116 371.251821 
L 275.904341 357.005835 
L 276.310565 326.208523 
L 276.71679 326.691664 
L 277.123014 298.09344 
L 277.935463 342.642049 
L 278.341687 349.442289 
L 278.747912 376.85281 
L 279.154136 349.08606 
L 279.56036 367.825119 
L 279.966585 371.065947 
L 280.779034 308.075647 
L 281.185258 300.483772 
L 281.591482 365.667374 
L 281.997707 361.168751 
L 282.403931 347.185868 
L 283.21638 365.965658 
L 283.622604 330.945048 
L 284.028829 314.186343 
L 284.435053 348.669274 
L 284.841278 337.637413 
L 285.247502 350.186183 
L 285.653726 374.761303 
L 286.059951 371.654099 
L 286.466175 366.653262 
L 286.8724 371.041852 
L 287.278624 367.0639 
L 287.684848 313.420407 
L 288.091073 343.701328 
L 288.497297 361.69651 
L 288.903522 357.352849 
L 289.309746 301.144614 
L 289.715971 318.483613 
L 290.122195 346.05989 
L 290.528419 312.643622 
L 290.934644 359.601973 
L 291.340868 355.585989 
L 291.747093 338.07164 
L 292.153317 342.639889 
L 292.559541 361.334572 
L 292.965766 330.641157 
L 293.37199 370.054736 
L 293.778215 340.258767 
L 294.590663 376.583242 
L 294.996888 370.568134 
L 295.403112 368.065609 
L 295.809337 354.83201 
L 296.215561 373.868923 
L 296.621785 361.455453 
L 297.02801 362.476876 
L 297.434234 374.782205 
L 297.840459 372.582323 
L 298.246683 366.272091 
L 298.652907 337.831114 
L 299.059132 362.015916 
L 299.465356 368.17328 
L 299.871581 321.778798 
L 300.277805 299.471527 
L 300.684029 359.922481 
L 301.090254 355.348852 
L 301.496478 369.211229 
L 301.902703 359.904067 
L 302.308927 354.527552 
L 303.121376 376.242231 
L 303.5276 373.435021 
L 303.933825 362.149193 
L 304.340049 368.735476 
L 304.746274 332.238994 
L 305.152498 318.948969 
L 305.558722 338.584011 
L 305.964947 352.434722 
L 306.371171 320.07838 
L 306.777396 302.536173 
L 307.18362 335.384944 
L 307.589844 337.693602 
L 307.996069 344.361438 
L 308.402293 345.208839 
L 308.808518 355.948966 
L 309.214742 370.915498 
L 309.620966 331.233763 
L 310.433415 369.16884 
L 310.83964 331.819973 
L 311.652088 368.583417 
L 312.058313 353.756374 
L 312.464537 324.250798 
L 312.870762 349.653719 
L 313.276986 366.188236 
L 313.68321 331.66625 
L 314.089435 354.916295 
L 314.495659 343.173846 
L 314.901884 326.07659 
L 315.308108 326.518265 
L 315.714333 372.618367 
L 316.120557 364.967112 
L 316.526781 362.669825 
L 316.933006 364.982581 
L 317.33923 360.7226 
L 317.745455 347.974892 
L 318.151679 295.227965 
L 318.557903 372.719391 
L 318.964128 311.056885 
L 319.370352 373.110557 
L 319.776577 357.349277 
L 320.182801 377.110474 
L 320.589025 365.6612 
L 320.99525 372.127587 
L 321.401474 369.053762 
L 321.807699 361.681251 
L 322.213923 371.635642 
L 322.620147 340.195338 
L 323.026372 335.811587 
L 323.432596 297.175897 
L 323.838821 318.785701 
L 324.245045 319.083209 
L 324.651269 358.106924 
L 325.057494 343.335907 
L 325.463718 360.334854 
L 325.869943 354.347144 
L 326.276167 332.959866 
L 326.682391 369.599934 
L 327.088616 370.594407 
L 327.49484 370.148391 
L 327.901065 360.524225 
L 328.307289 369.546195 
L 328.713514 348.310131 
L 329.119738 373.09176 
L 329.525962 376.419592 
L 329.932187 366.971638 
L 330.338411 354.202467 
L 330.744636 371.254344 
L 331.15086 334.696953 
L 331.557084 360.555378 
L 331.963309 361.142252 
L 332.369533 354.029765 
L 332.775758 309.803942 
L 333.181982 371.580656 
L 333.588206 355.24314 
L 333.994431 317.274788 
L 334.400655 303.651609 
L 334.80688 323.568826 
L 335.213104 358.004845 
L 335.619328 350.975834 
L 336.025553 357.629127 
L 336.431777 350.444052 
L 336.838002 365.650789 
L 337.244226 376.209209 
L 337.65045 364.8987 
L 338.056675 346.198856 
L 338.462899 342.680302 
L 338.869124 363.888961 
L 339.275348 371.134182 
L 339.681572 328.973936 
L 340.087797 326.255687 
L 340.494021 354.307909 
L 340.900246 327.42566 
L 341.30647 371.01219 
L 341.712695 373.198832 
L 342.525143 357.261371 
L 342.931368 313.481797 
L 343.337592 323.471855 
L 343.743817 368.110129 
L 344.150041 370.312408 
L 344.556265 355.433693 
L 344.96249 349.208525 
L 345.368714 287.90638 
L 345.774939 291.353802 
L 346.181163 335.476024 
L 346.587387 315.405182 
L 346.993612 343.628107 
L 347.399836 362.993826 
L 347.806061 371.556338 
L 348.212285 366.329636 
L 348.618509 349.811195 
L 349.024734 359.644251 
L 349.430958 296.621576 
L 349.837183 343.690395 
L 350.243407 371.123354 
L 350.649631 289.59678 
L 351.055856 349.51615 
L 351.46208 361.55685 
L 351.868305 353.468269 
L 352.274529 363.645256 
L 352.680753 307.561374 
L 353.086978 356.407731 
L 353.493202 372.115445 
L 353.899427 359.502917 
L 354.305651 369.65946 
L 354.711876 349.287637 
L 355.1181 311.652574 
L 355.524324 368.075816 
L 355.930549 365.417924 
L 356.742998 297.188935 
L 357.149222 343.712372 
L 357.555446 373.278864 
L 358.367895 304.41542 
L 358.77412 304.711762 
L 359.180344 365.535684 
L 359.586568 365.672133 
L 359.992793 356.094087 
L 360.399017 351.333856 
L 360.805242 369.341553 
L 361.211466 371.467477 
L 361.61769 369.419463 
L 362.023915 363.583401 
L 362.430139 324.478711 
L 362.836364 301.69934 
L 363.242588 363.719498 
L 363.648812 365.100169 
L 364.055037 363.176133 
L 364.461261 373.096459 
L 364.867486 286.132711 
L 365.27371 356.848662 
L 366.086159 312.425422 
L 366.492383 343.206589 
L 366.898608 343.610083 
L 367.304832 366.890417 
L 367.711057 359.975257 
L 368.117281 333.508214 
L 368.523505 342.576924 
L 368.92973 332.806718 
L 369.335954 365.763625 
L 369.742179 361.274753 
L 370.148403 365.123448 
L 370.554627 364.111491 
L 370.960852 325.585406 
L 371.773301 361.081479 
L 372.179525 351.521253 
L 372.585749 369.353767 
L 372.991974 363.569415 
L 373.398198 311.60262 
L 373.804423 362.316033 
L 374.210647 319.21643 
L 374.616871 317.009535 
L 375.023096 325.715938 
L 375.42932 348.199615 
L 375.835545 361.132235 
L 376.241769 368.018989 
L 376.647993 372.345232 
L 377.054218 372.73664 
L 377.460442 339.81955 
L 377.866667 372.747921 
L 378.272891 348.345451 
L 378.679115 368.709014 
L 379.08534 352.36288 
L 379.491564 368.677521 
L 379.897789 356.92501 
L 380.304013 363.42945 
L 380.710238 358.028118 
L 381.116462 360.043633 
L 381.522686 372.248425 
L 381.928911 368.810343 
L 382.335135 351.7186 
L 382.74136 379.171848 
L 383.147584 351.513073 
L 383.553808 369.339428 
L 383.960033 365.901943 
L 384.366257 325.838296 
L 384.772482 358.039452 
L 385.178706 366.334177 
L 385.58493 362.141094 
L 385.991155 333.968867 
L 386.397379 358.113464 
L 386.803604 307.429054 
L 387.209828 357.778406 
L 387.616052 371.548402 
L 388.022277 368.121689 
L 388.428501 347.883547 
L 388.834726 339.649781 
L 389.647174 354.150841 
L 390.053399 315.827917 
L 390.459623 338.167855 
L 390.865848 329.604196 
L 391.272072 343.75148 
L 391.678296 328.562184 
L 392.084521 359.054668 
L 392.490745 314.473678 
L 392.89697 347.050114 
L 393.303194 315.517385 
L 393.709419 323.625697 
L 394.521867 368.218885 
L 394.928092 318.597915 
L 395.334316 316.616206 
L 395.740541 369.073024 
L 396.552989 346.058798 
L 396.959214 372.489483 
L 397.365438 355.702701 
L 397.771663 365.908417 
L 398.177887 370.568956 
L 398.584111 373.829931 
L 398.990336 357.150897 
L 399.39656 355.224911 
L 400.209009 301.903563 
L 400.615233 368.396833 
L 401.021458 367.728956 
L 401.427682 358.783491 
L 401.833907 365.759191 
L 402.240131 351.16308 
L 402.646355 363.522532 
L 403.05258 308.269501 
L 403.458804 306.250966 
L 403.865029 310.317888 
L 404.271253 378.842835 
L 404.677477 325.774461 
L 405.083702 353.51606 
L 405.489926 358.8171 
L 405.896151 369.285297 
L 406.302375 366.987748 
L 406.7086 373.182515 
L 407.114824 367.008408 
L 407.521048 351.605248 
L 407.927273 361.206654 
L 408.333497 376.528745 
L 408.739722 324.17811 
L 409.145946 373.294634 
L 409.55217 357.220076 
L 409.958395 311.905539 
L 410.364619 338.828262 
L 410.770844 358.385758 
L 411.177068 340.657199 
L 411.583292 357.629068 
L 411.989517 329.241023 
L 412.395741 333.951547 
L 412.801966 370.056419 
L 413.20819 360.977517 
L 413.614414 344.901535 
L 414.020639 338.538084 
L 414.426863 324.903073 
L 414.833088 365.667758 
L 415.239312 321.742543 
L 416.051761 370.827338 
L 416.86421 377.205094 
L 417.270434 202.08625 
L 498.109091 202.08625 
L 498.109091 202.08625 
" style="fill:none;stroke:#0000ff;stroke-linecap:square;stroke-width:1.5;"/>
   </g>
   <g id="line2d_14">
    <path clip-path="url(#pf6ff0c5503)" d="M 92.290909 286.956896 
L 92.697133 222.709121 
L 93.103358 220.950717 
L 93.509582 224.918512 
L 93.915807 222.787566 
L 94.322031 230.668633 
L 94.728256 223.805465 
L 95.13448 229.479557 
L 95.540704 224.633328 
L 95.946929 223.853828 
L 96.353153 226.120264 
L 96.759378 226.591215 
L 97.165602 226.619954 
L 97.571826 229.039819 
L 97.978051 220.556018 
L 98.384275 230.723203 
L 98.7905 229.698783 
L 99.196724 225.063625 
L 99.602948 228.287665 
L 100.009173 223.021663 
L 100.415397 224.260653 
L 100.821622 224.229582 
L 101.227846 227.297884 
L 101.63407 223.01598 
L 102.040295 229.391312 
L 102.446519 228.72269 
L 102.852744 224.885977 
L 103.258968 226.814135 
L 103.665192 230.668886 
L 104.071417 226.274868 
L 104.477641 223.540114 
L 104.883866 224.530366 
L 105.29009 227.235331 
L 105.696314 226.030327 
L 106.102539 228.713246 
L 106.508763 224.519402 
L 106.914988 222.506462 
L 107.321212 227.876982 
L 107.727437 225.1937 
L 108.133661 223.293362 
L 108.539885 227.884029 
L 108.94611 222.0312 
L 109.352334 227.118973 
L 109.758559 226.089405 
L 110.164783 225.925461 
L 110.571007 225.984972 
L 110.977232 227.317975 
L 111.383456 222.996073 
L 111.789681 230.332034 
L 112.195905 229.037472 
L 112.602129 229.269215 
L 113.008354 225.523215 
L 113.414578 223.671661 
L 113.820803 226.3868 
L 114.227027 223.317918 
L 114.633251 226.550207 
L 115.039476 227.106306 
L 115.4457 222.968921 
L 115.851925 227.330164 
L 116.258149 228.491934 
L 116.664373 223.964303 
L 117.476822 229.11617 
L 117.883047 224.86313 
L 118.289271 225.273231 
L 118.695495 226.997411 
L 119.10172 231.270778 
L 119.507944 231.837274 
L 119.914169 221.903968 
L 120.320393 220.875194 
L 120.726618 237.043764 
L 121.132842 220.515732 
L 121.539066 226.83245 
L 121.945291 226.328339 
L 122.351515 219.323405 
L 122.75774 228.742463 
L 123.163964 222.455207 
L 123.570188 225.364956 
L 123.976413 223.854169 
L 124.382637 219.87853 
L 124.788862 230.365153 
L 125.195086 223.862262 
L 125.60131 230.917632 
L 126.007535 224.269601 
L 126.413759 223.55863 
L 126.819984 224.864001 
L 127.226208 227.351571 
L 127.632432 223.26909 
L 128.038657 221.913783 
L 128.444881 224.171576 
L 128.851106 222.499918 
L 129.25733 221.332445 
L 129.663554 222.943929 
L 130.069779 235.002925 
L 130.882228 222.446087 
L 131.288452 224.95286 
L 131.694676 224.033288 
L 132.100901 226.460774 
L 132.507125 225.214085 
L 132.91335 229.688108 
L 133.319574 224.624115 
L 133.725799 223.124947 
L 134.132023 227.926498 
L 134.538247 224.917182 
L 134.944472 226.875306 
L 135.350696 224.354022 
L 135.756921 225.172196 
L 136.163145 223.475305 
L 136.569369 223.957979 
L 136.975594 223.178136 
L 137.381818 225.600777 
L 138.194267 228.027684 
L 138.600491 228.384177 
L 139.006716 227.035833 
L 139.41294 224.548768 
L 139.819165 227.31155 
L 140.225389 225.499076 
L 140.631613 227.551548 
L 141.037838 221.365828 
L 141.444062 229.137702 
L 141.850287 222.423807 
L 142.256511 226.136961 
L 142.662735 222.7327 
L 143.06896 225.064032 
L 143.475184 225.544421 
L 143.881409 224.205142 
L 144.287633 221.463646 
L 144.693857 224.437969 
L 145.100082 225.447145 
L 145.506306 232.422257 
L 145.912531 221.742547 
L 146.72498 226.224718 
L 147.131204 223.836991 
L 147.537428 225.942573 
L 147.943653 221.091867 
L 148.349877 224.568868 
L 148.756102 226.968973 
L 149.162326 217.781108 
L 149.56855 235.027702 
L 149.974775 223.814367 
L 150.380999 226.41972 
L 150.787224 226.428636 
L 151.193448 224.896625 
L 151.599672 221.836999 
L 152.005897 225.473544 
L 152.412121 222.962896 
L 152.818346 229.695003 
L 153.22457 225.626948 
L 153.630794 225.319 
L 154.037019 221.551657 
L 154.443243 225.022662 
L 154.849468 227.5218 
L 155.255692 228.571837 
L 155.661916 224.330033 
L 156.068141 230.135531 
L 156.474365 226.064278 
L 156.88059 223.823051 
L 157.286814 225.348602 
L 157.693038 230.108724 
L 158.099263 219.447195 
L 158.505487 227.308998 
L 158.911712 225.006527 
L 159.317936 224.18153 
L 159.724161 223.783424 
L 160.130385 226.081896 
L 160.536609 231.121466 
L 160.942834 222.537312 
L 161.349058 226.077921 
L 161.755283 223.470306 
L 162.161507 223.231276 
L 162.567731 222.311948 
L 162.973956 228.247376 
L 163.38018 223.472897 
L 163.786405 229.800762 
L 164.192629 225.224456 
L 164.598853 222.861832 
L 165.005078 223.995143 
L 165.411302 226.141333 
L 165.817527 220.564672 
L 166.223751 226.265226 
L 166.629975 221.218259 
L 167.0362 222.786515 
L 167.442424 222.77978 
L 167.848649 225.861871 
L 168.254873 219.664577 
L 168.661097 228.050048 
L 169.067322 222.346241 
L 169.473546 226.10442 
L 169.879771 218.781412 
L 170.285995 228.094316 
L 170.692219 223.364807 
L 171.098444 221.57956 
L 171.910893 228.308949 
L 172.317117 213.832758 
L 172.723342 226.988436 
L 173.129566 226.362473 
L 173.53579 221.754117 
L 173.942015 227.399744 
L 174.348239 227.625059 
L 174.754464 220.595782 
L 175.160688 223.179908 
L 175.566912 227.248171 
L 175.973137 222.745138 
L 176.379361 229.858173 
L 176.785586 218.608871 
L 177.19181 228.031801 
L 177.598034 227.088179 
L 178.004259 222.548979 
L 178.410483 222.042334 
L 178.816708 228.3973 
L 179.222932 220.204206 
L 179.629156 230.442416 
L 180.035381 219.053641 
L 180.441605 222.635861 
L 180.84783 223.960854 
L 181.254054 223.548772 
L 181.660278 227.473379 
L 182.066503 225.338588 
L 182.878952 223.541414 
L 183.285176 224.851248 
L 183.6914 225.785892 
L 184.097625 223.445126 
L 184.503849 227.55817 
L 184.910074 221.261814 
L 185.316298 223.135703 
L 185.722523 223.453978 
L 186.128747 224.268374 
L 186.534971 224.283896 
L 186.941196 220.813328 
L 187.753645 228.09117 
L 188.159869 221.946442 
L 188.566093 225.213856 
L 188.972318 222.649015 
L 189.378542 229.005897 
L 189.784767 225.652957 
L 190.190991 227.40895 
L 190.597215 223.900169 
L 191.00344 227.447238 
L 191.409664 223.526088 
L 191.815889 225.733797 
L 192.222113 223.090216 
L 192.628337 227.926563 
L 193.034562 224.107769 
L 193.440786 224.506151 
L 193.847011 223.401881 
L 194.253235 220.049616 
L 194.659459 225.794666 
L 195.065684 222.120932 
L 195.471908 225.550927 
L 195.878133 223.073895 
L 196.284357 224.923099 
L 196.690581 227.574579 
L 197.096806 225.376467 
L 197.50303 221.346963 
L 198.315479 225.425964 
L 198.721704 224.170815 
L 199.127928 226.23983 
L 199.534152 221.005931 
L 199.940377 221.548191 
L 200.346601 227.588923 
L 200.752826 225.56808 
L 201.15905 221.239372 
L 201.565274 227.336019 
L 201.971499 222.280726 
L 202.377723 227.41606 
L 202.783948 222.06229 
L 203.190172 226.405115 
L 203.596396 228.198999 
L 204.002621 220.139913 
L 204.408845 224.012476 
L 204.81507 223.803145 
L 205.221294 223.959095 
L 205.627518 222.928309 
L 206.033743 223.188451 
L 206.439967 228.615129 
L 206.846192 223.496385 
L 207.252416 223.539311 
L 207.65864 222.099325 
L 208.064865 226.121825 
L 208.471089 224.319738 
L 208.877314 223.848402 
L 209.283538 225.033825 
L 209.689762 223.399288 
L 210.095987 223.5066 
L 210.502211 222.904076 
L 210.908436 226.980718 
L 211.31466 223.051516 
L 211.720885 226.6301 
L 212.127109 223.964837 
L 212.533333 224.16712 
L 212.939558 226.738137 
L 213.345782 221.194117 
L 213.752007 223.991656 
L 214.158231 223.484491 
L 214.564455 224.719188 
L 214.97068 225.437612 
L 215.376904 225.437109 
L 215.783129 225.132826 
L 216.189353 224.300044 
L 216.595577 221.495455 
L 217.001802 226.615398 
L 217.408026 223.873117 
L 217.814251 218.959808 
L 218.220475 224.43007 
L 218.626699 223.178496 
L 219.032924 229.976496 
L 219.439148 220.168646 
L 219.845373 221.77083 
L 220.251597 225.848996 
L 220.657821 220.171796 
L 221.064046 224.587261 
L 221.47027 226.491478 
L 221.876495 219.634007 
L 222.688943 225.353578 
L 223.095168 221.132215 
L 223.501392 223.957275 
L 223.907617 221.97502 
L 224.313841 223.021306 
L 224.720066 220.690674 
L 225.12629 225.788752 
L 225.532514 220.607852 
L 225.938739 226.415224 
L 226.344963 226.463683 
L 226.751188 223.315618 
L 227.157412 225.214591 
L 227.563636 223.678874 
L 227.969861 225.414276 
L 228.376085 222.660253 
L 228.78231 225.800055 
L 229.188534 224.502105 
L 229.594758 222.194633 
L 230.000983 223.247413 
L 230.407207 219.927897 
L 230.813432 233.168126 
L 231.219656 222.8951 
L 231.62588 226.393055 
L 232.032105 223.204165 
L 232.438329 229.394538 
L 232.844554 224.174605 
L 233.250778 221.270007 
L 233.657002 223.545242 
L 234.063227 224.654375 
L 234.469451 223.264544 
L 234.875676 222.774342 
L 235.2819 225.350025 
L 235.688124 231.992314 
L 236.094349 222.772005 
L 236.906798 223.902615 
L 237.313022 223.616817 
L 237.719247 223.043348 
L 238.125471 222.98662 
L 238.531695 223.628452 
L 238.93792 221.05575 
L 239.344144 227.01413 
L 239.750369 227.061656 
L 240.562817 219.281634 
L 240.969042 225.316374 
L 241.375266 223.746895 
L 241.781491 222.831532 
L 242.187715 224.808068 
L 242.593939 221.972834 
L 243.406388 224.692854 
L 243.812613 223.04807 
L 244.625061 224.755315 
L 245.031286 222.970868 
L 245.43751 226.305372 
L 245.843735 223.259537 
L 246.249959 221.885779 
L 246.656183 223.802007 
L 247.062408 224.537879 
L 247.468632 223.889293 
L 247.874857 227.658847 
L 248.281081 224.02272 
L 248.687305 227.238768 
L 249.09353 226.668404 
L 249.499754 217.970528 
L 249.905979 224.4623 
L 250.312203 221.799486 
L 250.718428 224.658662 
L 251.124652 221.971392 
L 251.530876 224.466006 
L 251.937101 224.670257 
L 252.343325 225.481821 
L 252.74955 225.535172 
L 253.155774 223.883463 
L 253.561998 223.048492 
L 253.968223 224.6775 
L 254.374447 220.814144 
L 254.780672 225.294569 
L 255.186896 226.587636 
L 255.999345 224.26311 
L 256.405569 228.156004 
L 256.811794 223.866639 
L 257.218018 224.22488 
L 257.624242 225.858696 
L 258.030467 224.923778 
L 258.436691 220.720913 
L 258.842916 222.366949 
L 259.24914 223.495291 
L 259.655364 226.589401 
L 260.061589 219.708123 
L 260.467813 225.43301 
L 260.874038 228.349507 
L 261.280262 219.169337 
L 261.686486 225.416336 
L 262.092711 220.160879 
L 262.498935 230.923986 
L 262.90516 221.857611 
L 263.311384 226.100712 
L 263.717609 223.205847 
L 264.123833 223.293583 
L 264.530057 224.260172 
L 265.342506 222.170306 
L 265.748731 226.975382 
L 266.154955 222.28153 
L 266.561179 224.473639 
L 266.967404 223.22322 
L 267.373628 228.86202 
L 267.779853 222.849837 
L 268.186077 224.638452 
L 268.592301 228.313982 
L 269.40475 221.357783 
L 269.810975 224.186031 
L 270.217199 229.837102 
L 270.623423 220.726038 
L 271.029648 219.522881 
L 271.435872 224.595546 
L 271.842097 227.474904 
L 272.248321 222.836374 
L 272.654545 225.788662 
L 273.06077 225.207439 
L 273.466994 226.57775 
L 273.873219 222.715952 
L 274.279443 229.665134 
L 275.091892 220.784191 
L 275.498116 224.640479 
L 276.310565 224.444483 
L 276.71679 226.466204 
L 277.123014 224.095805 
L 277.529238 223.116095 
L 277.935463 220.992649 
L 278.341687 227.075888 
L 278.747912 222.434372 
L 279.154136 223.97978 
L 279.966585 228.402304 
L 280.372809 224.2394 
L 280.779034 226.132668 
L 281.185258 220.303731 
L 281.591482 221.697363 
L 281.997707 227.567763 
L 282.403931 224.489556 
L 282.810156 222.770075 
L 283.21638 226.890381 
L 283.622604 223.020779 
L 284.028829 222.58555 
L 284.435053 226.305527 
L 284.841278 223.772441 
L 285.247502 224.76492 
L 285.653726 227.15703 
L 286.059951 222.886208 
L 286.466175 222.904758 
L 286.8724 222.563382 
L 287.278624 225.771138 
L 287.684848 227.125054 
L 288.497297 228.352845 
L 288.903522 223.065131 
L 289.309746 225.030414 
L 289.715971 221.599368 
L 290.528419 224.77478 
L 290.934644 222.441225 
L 291.340868 227.890139 
L 291.747093 225.866783 
L 292.153317 221.127446 
L 292.559541 228.344919 
L 292.965766 221.835398 
L 293.37199 224.498789 
L 293.778215 222.31604 
L 294.590663 225.752436 
L 294.996888 226.467629 
L 295.403112 223.44146 
L 295.809337 227.274878 
L 296.215561 221.204796 
L 296.621785 222.22927 
L 297.02801 226.570874 
L 297.434234 222.452824 
L 297.840459 236.22592 
L 298.246683 219.291723 
L 298.652907 228.822701 
L 299.059132 224.420922 
L 299.465356 224.473776 
L 299.871581 227.505847 
L 300.277805 223.719143 
L 300.684029 226.494346 
L 301.090254 226.366675 
L 301.496478 223.075312 
L 301.902703 225.365241 
L 302.308927 225.097204 
L 302.715152 223.636799 
L 303.121376 225.814661 
L 303.5276 223.257116 
L 303.933825 222.548437 
L 304.340049 225.645692 
L 304.746274 219.363103 
L 305.152498 230.924236 
L 305.558722 222.962148 
L 305.964947 225.059581 
L 306.371171 224.687889 
L 306.777396 220.982273 
L 307.18362 226.679927 
L 307.589844 223.425221 
L 307.996069 223.460502 
L 308.402293 219.425921 
L 308.808518 228.355486 
L 309.214742 220.915363 
L 309.620966 227.966006 
L 310.027191 217.220236 
L 310.433415 229.856778 
L 310.83964 223.119721 
L 311.245864 225.504553 
L 311.652088 222.05707 
L 312.058313 225.683311 
L 312.464537 224.27462 
L 312.870762 223.520178 
L 313.276986 227.06618 
L 313.68321 223.830459 
L 314.089435 223.392531 
L 314.495659 229.549668 
L 314.901884 222.102933 
L 315.308108 223.488709 
L 315.714333 227.704691 
L 316.120557 223.580739 
L 316.526781 226.718345 
L 316.933006 226.952076 
L 317.33923 225.520095 
L 317.745455 219.88903 
L 318.151679 223.758673 
L 318.557903 224.970018 
L 318.964128 227.531034 
L 319.370352 227.002129 
L 319.776577 221.672119 
L 320.182801 227.721277 
L 320.589025 224.363387 
L 320.99525 227.311283 
L 321.401474 223.160988 
L 321.807699 223.00876 
L 322.213923 230.297583 
L 322.620147 222.10896 
L 323.026372 225.913674 
L 323.432596 223.572541 
L 323.838821 223.961885 
L 324.245045 219.861764 
L 324.651269 227.335514 
L 325.057494 224.788902 
L 325.463718 223.459714 
L 325.869943 221.526239 
L 326.276167 227.568973 
L 326.682391 229.257546 
L 327.49484 223.611764 
L 327.901065 229.416324 
L 328.307289 222.252835 
L 328.713514 227.951997 
L 329.119738 221.719208 
L 329.525962 229.538417 
L 329.932187 225.999335 
L 330.338411 225.101883 
L 330.744636 222.642236 
L 331.15086 227.710303 
L 331.557084 222.307699 
L 331.963309 225.829139 
L 332.775758 224.208604 
L 333.181982 226.889108 
L 333.588206 224.305075 
L 333.994431 222.591579 
L 334.400655 223.640334 
L 335.213104 226.850692 
L 335.619328 223.268001 
L 336.025553 226.733962 
L 336.431777 225.456521 
L 336.838002 223.717976 
L 337.244226 225.981116 
L 337.65045 227.478951 
L 338.056675 225.302533 
L 338.462899 230.242398 
L 338.869124 225.266953 
L 339.275348 221.903412 
L 339.681572 226.663123 
L 340.087797 229.790012 
L 340.494021 226.341298 
L 340.900246 224.545895 
L 341.30647 226.377012 
L 341.712695 224.825157 
L 342.118919 227.171342 
L 342.525143 225.576193 
L 342.931368 220.304572 
L 343.337592 224.386842 
L 343.743817 223.654551 
L 344.150041 222.549771 
L 344.556265 228.723711 
L 344.96249 221.593945 
L 345.368714 223.90034 
L 345.774939 222.060065 
L 346.181163 226.093412 
L 346.587387 225.765479 
L 346.993612 222.076447 
L 347.399836 224.973301 
L 347.806061 232.62749 
L 348.212285 222.988276 
L 348.618509 224.819505 
L 349.024734 224.256982 
L 349.430958 222.347155 
L 349.837183 230.631947 
L 350.243407 222.734595 
L 350.649631 223.161238 
L 351.055856 229.95123 
L 351.46208 221.27194 
L 351.868305 230.056403 
L 352.274529 226.927687 
L 352.680753 222.218659 
L 353.086978 221.954689 
L 353.493202 225.349382 
L 353.899427 226.18975 
L 354.711876 224.196377 
L 355.1181 224.32071 
L 355.524324 225.683101 
L 355.930549 226.37874 
L 356.336773 218.893421 
L 356.742998 225.260479 
L 357.149222 225.130849 
L 357.555446 222.30433 
L 357.961671 226.111906 
L 358.367895 223.395537 
L 358.77412 226.855292 
L 359.180344 222.180283 
L 359.586568 232.748401 
L 359.992793 224.989837 
L 360.399017 227.533244 
L 360.805242 221.699383 
L 361.211466 225.242265 
L 361.61769 221.891494 
L 362.023915 227.253319 
L 362.430139 220.096114 
L 362.836364 220.89694 
L 363.648812 227.488566 
L 364.055037 223.965111 
L 364.461261 227.711429 
L 364.867486 221.94945 
L 365.27371 221.694291 
L 365.679934 225.898253 
L 366.086159 226.916935 
L 366.898608 223.374365 
L 367.304832 223.869704 
L 367.711057 223.384409 
L 368.117281 228.6613 
L 368.523505 222.053392 
L 368.92973 229.299662 
L 369.335954 226.064963 
L 369.742179 224.974324 
L 370.148403 225.666334 
L 370.554627 217.434658 
L 370.960852 227.572981 
L 371.367076 225.069439 
L 371.773301 225.001749 
L 372.179525 226.08471 
L 372.585749 226.016985 
L 372.991974 225.774232 
L 373.398198 224.873455 
L 373.804423 231.075743 
L 374.210647 222.167022 
L 374.616871 227.957912 
L 375.023096 224.402118 
L 375.42932 225.419594 
L 375.835545 222.949981 
L 376.241769 229.460487 
L 376.647993 225.521788 
L 377.054218 223.531872 
L 377.460442 232.672288 
L 377.866667 225.184495 
L 378.272891 228.050333 
L 378.679115 225.92918 
L 379.08534 225.711817 
L 379.491564 227.798614 
L 380.304013 221.938335 
L 380.710238 224.492592 
L 381.116462 225.476643 
L 381.522686 227.259176 
L 381.928911 227.493154 
L 382.335135 228.632914 
L 382.74136 220.213333 
L 383.147584 228.188746 
L 383.553808 226.917061 
L 383.960033 226.898788 
L 384.366257 226.222896 
L 384.772482 228.307087 
L 385.178706 224.969259 
L 385.991155 226.919594 
L 386.397379 231.307207 
L 386.803604 222.843836 
L 387.209828 226.592546 
L 387.616052 223.423966 
L 388.022277 227.322671 
L 388.428501 224.186052 
L 388.834726 232.178605 
L 389.24095 224.022773 
L 389.647174 227.719499 
L 390.053399 221.569742 
L 390.459623 218.614133 
L 390.865848 233.08692 
L 391.272072 225.841875 
L 391.678296 225.604933 
L 392.084521 224.377887 
L 392.490745 225.141702 
L 393.303194 232.929287 
L 393.709419 225.970139 
L 394.115643 223.046811 
L 394.521867 229.306025 
L 395.334316 224.033196 
L 395.740541 228.641284 
L 396.146765 225.503567 
L 396.552989 228.326622 
L 396.959214 228.465811 
L 397.365438 229.413124 
L 397.771663 228.782443 
L 398.177887 223.068175 
L 398.584111 230.803608 
L 398.990336 223.45721 
L 399.39656 231.801725 
L 399.802785 221.082738 
L 400.209009 226.256468 
L 400.615233 224.793514 
L 401.021458 227.09686 
L 401.427682 233.83294 
L 401.833907 226.650272 
L 402.240131 226.176535 
L 402.646355 227.962692 
L 403.05258 228.438446 
L 403.458804 224.318311 
L 403.865029 222.533504 
L 404.271253 232.779553 
L 404.677477 220.551741 
L 405.083702 229.514283 
L 405.489926 225.856859 
L 405.896151 227.417019 
L 406.302375 223.217872 
L 406.7086 232.062132 
L 407.114824 228.745429 
L 407.521048 229.31493 
L 407.927273 226.666951 
L 408.333497 226.493429 
L 408.739722 225.995758 
L 409.145946 230.618953 
L 409.55217 225.727383 
L 409.958395 228.988614 
L 410.364619 226.15316 
L 410.770844 225.273134 
L 411.177068 225.22739 
L 411.583292 228.85961 
L 411.989517 222.577087 
L 412.395741 231.391049 
L 412.801966 226.724733 
L 413.20819 225.180731 
L 413.614414 229.130842 
L 414.020639 226.124006 
L 414.426863 228.382716 
L 414.833088 228.9244 
L 415.239312 225.362794 
L 415.645536 231.564244 
L 416.051761 228.385075 
L 416.457985 226.810507 
L 416.86421 225.925236 
L 417.270434 321.96896 
L 498.109091 321.96896 
L 498.109091 321.96896 
" style="fill:none;stroke:#008000;stroke-linecap:square;stroke-width:1.5;"/>
   </g>
   <g id="patch_3">
    <path d="M 72 384.48 
L 72 51.84 
" style="fill:none;stroke:#000000;stroke-linecap:square;stroke-linejoin:miter;stroke-width:0.8;"/>
   </g>
   <g id="patch_4">
    <path d="M 518.4 384.48 
L 518.4 51.84 
" style="fill:none;stroke:#000000;stroke-linecap:square;stroke-linejoin:miter;stroke-width:0.8;"/>
   </g>
   <g id="patch_5">
    <path d="M 72 384.48 
L 518.4 384.48 
" style="fill:none;stroke:#000000;stroke-linecap:square;stroke-linejoin:miter;stroke-width:0.8;"/>
   </g>
   <g id="patch_6">
    <path d="M 72 51.84 
L 518.4 51.84 
" style="fill:none;stroke:#000000;stroke-linecap:square;stroke-linejoin:miter;stroke-width:0.8;"/>
   </g>
   <g id="legend_1">
    <g id="patch_7">
     <path d="M 79 86.418125 
L 156 86.418125 
Q 158 86.418125 158 84.418125 
L 158 58.84 
Q 158 56.84 156 56.84 
L 79 56.84 
Q 77 56.84 77 58.84 
L 77 84.418125 
Q 77 86.418125 79 86.418125 
z
" style="fill:#ffffff;opacity:0.8;stroke:#cccccc;stroke-linejoin:miter;"/>
    </g>
    <g id="line2d_15">
     <path d="M 81 64.34 
L 101 64.34 
" style="fill:none;stroke:#0000ff;stroke-linecap:square;stroke-width:1.5;"/>
    </g>
    <g id="line2d_16"/>
    <g id="text_15">
     <!-- precision -->
     <g transform="translate(109 67.84)scale(0.1 -0.1)">
      <defs>
       <path d="M 28.515625 57.8125 
L 20.703125 57.8125 
L 20.703125 67.96875 
L 28.515625 67.96875 
z
M 28.515625 1.5625 
L 20.703125 1.5625 
L 20.703125 45.3125 
L 28.515625 45.3125 
z
" id="SimHei-105"/>
       <path d="M 43.359375 13.671875 
Q 43.359375 7.421875 38.46875 4.09375 
Q 33.59375 0.78125 26.171875 0.78125 
Q 16.796875 0.78125 11.71875 4.484375 
Q 6.640625 8.203125 6.640625 15.234375 
L 14.453125 15.234375 
Q 14.453125 10.546875 17.765625 8.984375 
Q 21.09375 7.421875 25.78125 7.421875 
Q 30.46875 7.421875 32.8125 9.171875 
Q 35.15625 10.9375 35.15625 13.671875 
Q 35.15625 15.625 33.203125 17.578125 
Q 31.25 19.53125 23.4375 20.703125 
Q 14.453125 21.875 11.125 25.1875 
Q 7.8125 28.515625 7.8125 33.984375 
Q 7.8125 38.671875 12.296875 42.375 
Q 16.796875 46.09375 25.390625 46.09375 
Q 33.203125 46.09375 37.6875 42.578125 
Q 42.1875 39.0625 42.1875 33.203125 
L 34.375 33.203125 
Q 34.375 36.71875 31.828125 38.078125 
Q 29.296875 39.453125 25.390625 39.453125 
Q 20.3125 39.453125 18.15625 37.6875 
Q 16.015625 35.9375 16.015625 33.59375 
Q 16.015625 30.859375 17.96875 29.296875 
Q 19.921875 27.734375 26.171875 26.953125 
Q 36.328125 25.390625 39.84375 22.0625 
Q 43.359375 18.75 43.359375 13.671875 
z
" id="SimHei-115"/>
       <path d="M 44.140625 1.5625 
L 36.328125 1.5625 
L 36.328125 29.6875 
Q 36.328125 34.375 33.984375 37.109375 
Q 31.640625 39.84375 27.734375 39.84375 
Q 22.65625 39.84375 18.15625 34.5625 
Q 13.671875 29.296875 13.671875 21.484375 
L 13.671875 1.5625 
L 5.859375 1.5625 
L 5.859375 45.3125 
L 13.671875 45.3125 
L 13.671875 37.109375 
Q 16.796875 41.40625 20.5 43.75 
Q 24.21875 46.09375 30.078125 46.09375 
Q 37.109375 46.09375 40.625 42.1875 
Q 44.140625 38.28125 44.140625 32.421875 
z
" id="SimHei-110"/>
      </defs>
      <use xlink:href="#SimHei-112"/>
      <use x="50" xlink:href="#SimHei-114"/>
      <use x="100" xlink:href="#SimHei-101"/>
      <use x="150" xlink:href="#SimHei-99"/>
      <use x="200" xlink:href="#SimHei-105"/>
      <use x="250" xlink:href="#SimHei-115"/>
      <use x="300" xlink:href="#SimHei-105"/>
      <use x="350" xlink:href="#SimHei-111"/>
      <use x="400" xlink:href="#SimHei-110"/>
     </g>
    </g>
    <g id="line2d_17">
     <path d="M 81 77.629062 
L 101 77.629062 
" style="fill:none;stroke:#008000;stroke-linecap:square;stroke-width:1.5;"/>
    </g>
    <g id="line2d_18"/>
    <g id="text_16">
     <!-- recall -->
     <g transform="translate(109 81.129062)scale(0.1 -0.1)">
      <defs>
       <path d="M 28.90625 1.5625 
L 21.09375 1.5625 
L 21.09375 68.359375 
L 28.90625 68.359375 
z
" id="SimHei-108"/>
      </defs>
      <use xlink:href="#SimHei-114"/>
      <use x="50" xlink:href="#SimHei-101"/>
      <use x="100" xlink:href="#SimHei-99"/>
      <use x="150" xlink:href="#SimHei-97"/>
      <use x="200" xlink:href="#SimHei-108"/>
      <use x="250" xlink:href="#SimHei-108"/>
     </g>
    </g>
   </g>
  </g>
  <g id="axes_2">
   <g id="matplotlib.axis_3">
    <g id="ytick_7">
     <g id="line2d_19">
      <defs>
       <path d="M 0 0 
L 3.5 0 
" id="mf5773eb5b4" style="stroke:#000000;stroke-width:0.8;"/>
      </defs>
      <g>
       <use style="stroke:#000000;stroke-width:0.8;" x="518.4" xlink:href="#mf5773eb5b4" y="370.278183"/>
      </g>
     </g>
     <g id="text_17">
      <!-- 0 -->
      <g transform="translate(525.4 373.696152)scale(0.1 -0.1)">
       <use xlink:href="#SimHei-48"/>
      </g>
     </g>
    </g>
    <g id="ytick_8">
     <g id="line2d_20">
      <g>
       <use style="stroke:#000000;stroke-width:0.8;" x="518.4" xlink:href="#mf5773eb5b4" y="302.76289"/>
      </g>
     </g>
     <g id="text_18">
      <!-- 50 -->
      <g transform="translate(525.4 306.180859)scale(0.1 -0.1)">
       <defs>
        <path d="M 44.140625 25.78125 
Q 44.140625 14.0625 38.46875 7.421875 
Q 32.8125 0.78125 23.4375 0.78125 
Q 15.234375 0.78125 9.953125 6.25 
Q 4.6875 11.71875 4.296875 21.09375 
L 13.28125 21.09375 
Q 13.28125 15.234375 16.015625 11.71875 
Q 18.75 8.203125 23.828125 8.203125 
Q 28.90625 8.203125 31.828125 12.5 
Q 34.765625 16.796875 34.765625 25.78125 
Q 34.765625 33.59375 32.21875 37.296875 
Q 29.6875 41.015625 25.390625 41.015625 
Q 21.875 41.015625 19.328125 39.453125 
Q 16.796875 37.890625 14.453125 33.984375 
L 6.640625 33.984375 
L 8.984375 68.359375 
L 42.578125 68.359375 
L 42.578125 60.9375 
L 16.40625 60.9375 
L 14.84375 42.96875 
Q 17.1875 45.3125 19.921875 46.484375 
Q 22.65625 47.65625 27.34375 47.65625 
Q 34.765625 47.65625 39.453125 41.984375 
Q 44.140625 36.328125 44.140625 25.78125 
z
" id="SimHei-53"/>
       </defs>
       <use xlink:href="#SimHei-53"/>
       <use x="50" xlink:href="#SimHei-48"/>
      </g>
     </g>
    </g>
    <g id="ytick_9">
     <g id="line2d_21">
      <g>
       <use style="stroke:#000000;stroke-width:0.8;" x="518.4" xlink:href="#mf5773eb5b4" y="235.247598"/>
      </g>
     </g>
     <g id="text_19">
      <!-- 100 -->
      <g transform="translate(525.4 238.665567)scale(0.1 -0.1)">
       <use xlink:href="#SimHei-49"/>
       <use x="50" xlink:href="#SimHei-48"/>
       <use x="100" xlink:href="#SimHei-48"/>
      </g>
     </g>
    </g>
    <g id="ytick_10">
     <g id="line2d_22">
      <g>
       <use style="stroke:#000000;stroke-width:0.8;" x="518.4" xlink:href="#mf5773eb5b4" y="167.732305"/>
      </g>
     </g>
     <g id="text_20">
      <!-- 150 -->
      <g transform="translate(525.4 171.150274)scale(0.1 -0.1)">
       <use xlink:href="#SimHei-49"/>
       <use x="50" xlink:href="#SimHei-53"/>
       <use x="100" xlink:href="#SimHei-48"/>
      </g>
     </g>
    </g>
    <g id="ytick_11">
     <g id="line2d_23">
      <g>
       <use style="stroke:#000000;stroke-width:0.8;" x="518.4" xlink:href="#mf5773eb5b4" y="100.217012"/>
      </g>
     </g>
     <g id="text_21">
      <!-- 200 -->
      <g transform="translate(525.4 103.634981)scale(0.1 -0.1)">
       <use xlink:href="#SimHei-50"/>
       <use x="50" xlink:href="#SimHei-48"/>
       <use x="100" xlink:href="#SimHei-48"/>
      </g>
     </g>
    </g>
    <g id="text_22">
     <!-- loss -->
     <g transform="translate(551.235937 228.16)rotate(-90)scale(0.1 -0.1)">
      <use xlink:href="#SimHei-108"/>
      <use x="50" xlink:href="#SimHei-111"/>
      <use x="100" xlink:href="#SimHei-115"/>
      <use x="150" xlink:href="#SimHei-115"/>
     </g>
    </g>
   </g>
   <g id="line2d_24">
    <path clip-path="url(#pf6ff0c5503)" d="M 92.290909 66.96 
L 92.697133 357.775868 
L 93.103358 365.930605 
L 93.915807 366.089515 
L 94.322031 365.971405 
L 95.946929 366.041739 
L 96.353153 366.799934 
L 97.165602 366.834706 
L 97.571826 366.759716 
L 99.602948 366.866108 
L 100.009173 366.83999 
L 100.415397 367.168504 
L 104.071417 367.22254 
L 106.102539 367.138684 
L 106.914988 367.085721 
L 108.133661 367.178301 
L 108.539885 367.267096 
L 109.758559 367.21144 
L 111.383456 367.268901 
L 112.195905 367.23424 
L 112.602129 367.397794 
L 114.227027 367.317989 
L 115.039476 367.384525 
L 115.4457 367.300427 
L 115.851925 367.373724 
L 116.258149 367.331732 
L 116.664373 367.465504 
L 118.289271 367.345483 
L 121.132842 367.421194 
L 122.351515 367.369731 
L 123.163964 367.42814 
L 123.976413 367.380739 
L 125.60131 367.469074 
L 126.413759 367.403303 
L 127.226208 367.524397 
L 128.038657 367.419089 
L 128.851106 367.414259 
L 129.25733 367.182272 
L 130.069779 367.354442 
L 132.100901 367.239931 
L 132.91335 367.503869 
L 133.319574 368.250662 
L 134.132023 368.358032 
L 139.41294 368.311317 
L 144.693857 368.521051 
L 146.72498 368.543143 
L 149.974775 368.597215 
L 152.005897 368.609324 
L 184.503849 369.126434 
L 219.439148 369.238366 
L 256.811794 369.303692 
L 274.279443 369.315835 
L 357.961671 369.339169 
L 498.109091 369.36 
L 498.109091 369.36 
" style="fill:none;stroke:#ff0000;stroke-linecap:square;stroke-width:1.5;"/>
   </g>
   <g id="patch_8">
    <path d="M 72 384.48 
L 72 51.84 
" style="fill:none;stroke:#000000;stroke-linecap:square;stroke-linejoin:miter;stroke-width:0.8;"/>
   </g>
   <g id="patch_9">
    <path d="M 518.4 384.48 
L 518.4 51.84 
" style="fill:none;stroke:#000000;stroke-linecap:square;stroke-linejoin:miter;stroke-width:0.8;"/>
   </g>
   <g id="patch_10">
    <path d="M 72 384.48 
L 518.4 384.48 
" style="fill:none;stroke:#000000;stroke-linecap:square;stroke-linejoin:miter;stroke-width:0.8;"/>
   </g>
   <g id="patch_11">
    <path d="M 72 51.84 
L 518.4 51.84 
" style="fill:none;stroke:#000000;stroke-linecap:square;stroke-linejoin:miter;stroke-width:0.8;"/>
   </g>
   <g id="text_23">
    <!-- The learning curve on 8clients_iid/host/5 -->
    <g transform="translate(172.2 45.84)scale(0.12 -0.12)">
     <defs>
      <path d="M 44.921875 60.9375 
L 29.296875 60.9375 
L 29.296875 1.5625 
L 20.3125 1.5625 
L 20.3125 60.9375 
L 4.6875 60.9375 
L 4.6875 68.359375 
L 44.921875 68.359375 
z
" id="SimHei-84"/>
      <path id="SimHei-32"/>
      <path d="M 46.875 38.671875 
Q 44.140625 39.453125 41.59375 39.640625 
Q 39.0625 39.84375 36.328125 39.0625 
Q 37.5 37.890625 38.28125 36.125 
Q 39.0625 34.375 39.0625 30.859375 
Q 39.0625 24.21875 34.5625 19.921875 
Q 30.078125 15.625 23.4375 15.625 
Q 21.875 15.625 19.328125 16.203125 
Q 16.796875 16.796875 15.234375 17.578125 
Q 14.0625 16.796875 13.671875 16.015625 
Q 13.28125 15.234375 13.28125 14.0625 
Q 13.28125 12.109375 16.015625 11.125 
Q 18.75 10.15625 25.78125 10.15625 
Q 37.109375 10.15625 41.203125 7.03125 
Q 45.3125 3.90625 45.3125 -0.78125 
Q 45.3125 -7.03125 39.25 -9.953125 
Q 33.203125 -12.890625 25 -12.890625 
Q 14.453125 -12.890625 9.375 -10.15625 
Q 4.296875 -7.421875 4.296875 -2.734375 
Q 4.296875 -0.390625 6.25 1.953125 
Q 8.203125 4.296875 11.328125 5.859375 
Q 8.984375 7.03125 7.609375 8.78125 
Q 6.25 10.546875 6.25 13.28125 
Q 6.25 15.625 8 17.375 
Q 9.765625 19.140625 12.109375 20.3125 
Q 10.15625 22.265625 8.984375 25 
Q 7.8125 27.734375 7.8125 30.859375 
Q 7.8125 37.5 12.296875 41.796875 
Q 16.796875 46.09375 23.4375 46.09375 
Q 26.953125 46.09375 29.484375 45.109375 
Q 32.03125 44.140625 33.984375 42.1875 
Q 37.109375 44.53125 40.234375 45.5 
Q 43.359375 46.484375 46.875 46.09375 
z
M 31.25 30.859375 
Q 31.25 34.765625 29.296875 37.109375 
Q 27.34375 39.453125 23.4375 39.453125 
Q 19.53125 39.453125 17.578125 37.109375 
Q 15.625 34.765625 15.625 30.859375 
Q 15.625 26.953125 17.578125 24.609375 
Q 19.53125 22.265625 23.4375 22.265625 
Q 27.34375 22.265625 29.296875 24.609375 
Q 31.25 26.953125 31.25 30.859375 
z
M 37.890625 -1.5625 
Q 37.890625 0 36.125 1.5625 
Q 34.375 3.125 27.34375 3.125 
Q 25.78125 3.125 23.046875 3.3125 
Q 20.3125 3.515625 16.796875 3.90625 
Q 13.671875 2.734375 12.5 1.171875 
Q 11.328125 -0.390625 11.328125 -1.953125 
Q 11.328125 -4.296875 14.453125 -5.859375 
Q 17.578125 -7.421875 25.390625 -7.421875 
Q 32.03125 -7.421875 34.953125 -5.65625 
Q 37.890625 -3.90625 37.890625 -1.5625 
z
" id="SimHei-103"/>
      <path d="M 44.140625 1.5625 
L 36.328125 1.5625 
L 36.328125 9.765625 
Q 33.203125 5.46875 29.484375 3.125 
Q 25.78125 0.78125 19.921875 0.78125 
Q 12.890625 0.78125 9.375 4.6875 
Q 5.859375 8.59375 5.859375 14.453125 
L 5.859375 45.3125 
L 13.671875 45.3125 
L 13.671875 17.1875 
Q 13.671875 12.5 16.015625 9.765625 
Q 18.359375 7.03125 22.265625 7.03125 
Q 27.34375 7.03125 31.828125 12.296875 
Q 36.328125 17.578125 36.328125 25.390625 
L 36.328125 45.3125 
L 44.140625 45.3125 
z
" id="SimHei-117"/>
      <path d="M 45.3125 45.3125 
L 28.90625 0.78125 
L 20.3125 0.78125 
L 3.90625 45.3125 
L 12.109375 45.3125 
L 24.21875 11.328125 
L 25 11.328125 
L 37.109375 45.3125 
z
" id="SimHei-118"/>
      <path d="M 49.609375 -13.671875 
L 0 -13.671875 
L 0 -8.984375 
L 49.609375 -8.984375 
z
" id="SimHei-95"/>
      <path d="M 43.359375 1.5625 
L 35.546875 1.5625 
L 35.546875 7.421875 
Q 33.203125 3.90625 30.078125 2.34375 
Q 26.953125 0.78125 22.65625 0.78125 
Q 14.84375 0.78125 9.375 6.4375 
Q 3.90625 12.109375 3.90625 23.4375 
Q 3.90625 34.765625 9.375 40.625 
Q 14.84375 46.484375 22.65625 46.484375 
Q 26.953125 46.484375 30.078125 44.71875 
Q 33.203125 42.96875 35.546875 39.453125 
L 35.546875 68.359375 
L 43.359375 68.359375 
z
M 35.546875 23.4375 
Q 35.546875 30.859375 32.21875 35.15625 
Q 28.90625 39.453125 24.21875 39.453125 
Q 18.359375 39.453125 15.421875 35.15625 
Q 12.5 30.859375 12.5 23.4375 
Q 12.5 16.015625 15.421875 11.90625 
Q 18.359375 7.8125 24.21875 7.8125 
Q 28.90625 7.8125 32.21875 11.90625 
Q 35.546875 16.015625 35.546875 23.4375 
z
" id="SimHei-100"/>
      <path d="M 47.265625 70.703125 
L 5.859375 -3.125 
L 1.953125 -0.78125 
L 43.359375 73.046875 
z
" id="SimHei-47"/>
     </defs>
     <use xlink:href="#SimHei-84"/>
     <use x="50" xlink:href="#SimHei-104"/>
     <use x="100" xlink:href="#SimHei-101"/>
     <use x="150" xlink:href="#SimHei-32"/>
     <use x="200" xlink:href="#SimHei-108"/>
     <use x="250" xlink:href="#SimHei-101"/>
     <use x="300" xlink:href="#SimHei-97"/>
     <use x="350" xlink:href="#SimHei-114"/>
     <use x="400" xlink:href="#SimHei-110"/>
     <use x="450" xlink:href="#SimHei-105"/>
     <use x="500" xlink:href="#SimHei-110"/>
     <use x="550" xlink:href="#SimHei-103"/>
     <use x="600" xlink:href="#SimHei-32"/>
     <use x="650" xlink:href="#SimHei-99"/>
     <use x="700" xlink:href="#SimHei-117"/>
     <use x="750" xlink:href="#SimHei-114"/>
     <use x="800" xlink:href="#SimHei-118"/>
     <use x="850" xlink:href="#SimHei-101"/>
     <use x="900" xlink:href="#SimHei-32"/>
     <use x="950" xlink:href="#SimHei-111"/>
     <use x="1000" xlink:href="#SimHei-110"/>
     <use x="1050" xlink:href="#SimHei-32"/>
     <use x="1100" xlink:href="#SimHei-56"/>
     <use x="1150" xlink:href="#SimHei-99"/>
     <use x="1200" xlink:href="#SimHei-108"/>
     <use x="1250" xlink:href="#SimHei-105"/>
     <use x="1300" xlink:href="#SimHei-101"/>
     <use x="1350" xlink:href="#SimHei-110"/>
     <use x="1400" xlink:href="#SimHei-116"/>
     <use x="1450" xlink:href="#SimHei-115"/>
     <use x="1500" xlink:href="#SimHei-95"/>
     <use x="1550" xlink:href="#SimHei-105"/>
     <use x="1600" xlink:href="#SimHei-105"/>
     <use x="1650" xlink:href="#SimHei-100"/>
     <use x="1700" xlink:href="#SimHei-47"/>
     <use x="1750" xlink:href="#SimHei-104"/>
     <use x="1800" xlink:href="#SimHei-111"/>
     <use x="1850" xlink:href="#SimHei-115"/>
     <use x="1900" xlink:href="#SimHei-116"/>
     <use x="1950" xlink:href="#SimHei-47"/>
     <use x="2000" xlink:href="#SimHei-53"/>
    </g>
   </g>
   <g id="legend_2">
    <g id="patch_12">
     <path d="M 459.4 73.129062 
L 511.4 73.129062 
Q 513.4 73.129062 513.4 71.129062 
L 513.4 58.84 
Q 513.4 56.84 511.4 56.84 
L 459.4 56.84 
Q 457.4 56.84 457.4 58.84 
L 457.4 71.129062 
Q 457.4 73.129062 459.4 73.129062 
z
" style="fill:#ffffff;opacity:0.8;stroke:#cccccc;stroke-linejoin:miter;"/>
    </g>
    <g id="line2d_25">
     <path d="M 461.4 64.34 
L 481.4 64.34 
" style="fill:none;stroke:#ff0000;stroke-linecap:square;stroke-width:1.5;"/>
    </g>
    <g id="line2d_26"/>
    <g id="text_24">
     <!-- loss -->
     <g transform="translate(489.4 67.84)scale(0.1 -0.1)">
      <use xlink:href="#SimHei-108"/>
      <use x="50" xlink:href="#SimHei-111"/>
      <use x="100" xlink:href="#SimHei-115"/>
      <use x="150" xlink:href="#SimHei-115"/>
     </g>
    </g>
   </g>
  </g>
 </g>
 <defs>
  <clipPath id="pf6ff0c5503">
   <rect height="332.64" width="446.4" x="72" y="51.84"/>
  </clipPath>
 </defs>
</svg>
