<?xml version="1.0" encoding="utf-8" standalone="no"?>
<!DOCTYPE svg PUBLIC "-//W3C//DTD SVG 1.1//EN"
  "http://www.w3.org/Graphics/SVG/1.1/DTD/svg11.dtd">
<!-- Created with matplotlib (https://matplotlib.org/) -->
<svg height="432pt" version="1.1" viewBox="0 0 576 432" width="576pt" xmlns="http://www.w3.org/2000/svg" xmlns:xlink="http://www.w3.org/1999/xlink">
 <metadata>
  <rdf:RDF xmlns:cc="http://creativecommons.org/ns#" xmlns:dc="http://purl.org/dc/elements/1.1/" xmlns:rdf="http://www.w3.org/1999/02/22-rdf-syntax-ns#">
   <cc:Work>
    <dc:type rdf:resource="http://purl.org/dc/dcmitype/StillImage"/>
    <dc:date>2023-03-28T10:09:00.699728</dc:date>
    <dc:format>image/svg+xml</dc:format>
    <dc:creator>
     <cc:Agent>
      <dc:title>Matplotlib v3.3.4, https://matplotlib.org/</dc:title>
     </cc:Agent>
    </dc:creator>
   </cc:Work>
  </rdf:RDF>
 </metadata>
 <defs>
  <style type="text/css">*{stroke-linecap:butt;stroke-linejoin:round;}</style>
 </defs>
 <g id="figure_1">
  <g id="patch_1">
   <path d="M 0 432 
L 576 432 
L 576 0 
L 0 0 
z
" style="fill:#ffffff;"/>
  </g>
  <g id="axes_1">
   <g id="patch_2">
    <path d="M 72 384.48 
L 518.4 384.48 
L 518.4 51.84 
L 72 51.84 
z
" style="fill:#ffffff;"/>
   </g>
   <g id="matplotlib.axis_1">
    <g id="xtick_1">
     <g id="line2d_1">
      <defs>
       <path d="M 0 0 
L 0 3.5 
" id="mf1d7d7d4e6" style="stroke:#000000;stroke-width:0.8;"/>
      </defs>
      <g>
       <use style="stroke:#000000;stroke-width:0.8;" x="92.290909" xlink:href="#mf1d7d7d4e6" y="384.48"/>
      </g>
     </g>
     <g id="text_1">
      <!-- 0 -->
      <g transform="translate(89.790909 398.315938)scale(0.1 -0.1)">
       <defs>
        <path d="M 46.484375 35.15625 
Q 46.484375 21.09375 41.40625 10.9375 
Q 36.328125 0.78125 25 0.78125 
Q 13.671875 0.78125 8.390625 10.9375 
Q 3.125 21.09375 3.125 35.15625 
Q 3.125 49.21875 8.390625 59.171875 
Q 13.671875 69.140625 25 69.140625 
Q 36.328125 69.140625 41.40625 59.171875 
Q 46.484375 49.21875 46.484375 35.15625 
z
M 37.109375 35.15625 
Q 37.109375 47.65625 34.171875 54.6875 
Q 31.25 61.71875 25 61.71875 
Q 18.75 61.71875 15.625 54.6875 
Q 12.5 47.65625 12.5 35.15625 
Q 12.5 22.65625 15.625 15.421875 
Q 18.75 8.203125 25 8.203125 
Q 31.25 8.203125 34.171875 15.421875 
Q 37.109375 22.65625 37.109375 35.15625 
z
" id="SimHei-48"/>
       </defs>
       <use xlink:href="#SimHei-48"/>
      </g>
     </g>
    </g>
    <g id="xtick_2">
     <g id="line2d_2">
      <g>
       <use style="stroke:#000000;stroke-width:0.8;" x="173.53579" xlink:href="#mf1d7d7d4e6" y="384.48"/>
      </g>
     </g>
     <g id="text_2">
      <!-- 200 -->
      <g transform="translate(166.03579 398.315938)scale(0.1 -0.1)">
       <defs>
        <path d="M 44.53125 1.5625 
L 4.6875 1.5625 
L 4.6875 7.8125 
Q 7.03125 14.0625 11.125 19.328125 
Q 15.234375 24.609375 23.046875 31.25 
Q 28.90625 36.328125 31.4375 40.625 
Q 33.984375 44.921875 33.984375 50 
Q 33.984375 55.078125 31.828125 58.390625 
Q 29.6875 61.71875 25 61.71875 
Q 21.09375 61.71875 18.15625 58.203125 
Q 15.234375 54.6875 15.234375 45.703125 
L 6.25 45.703125 
Q 6.640625 57.03125 11.515625 63.078125 
Q 16.40625 69.140625 25.390625 69.140625 
Q 33.984375 69.140625 38.671875 63.859375 
Q 43.359375 58.59375 43.359375 49.609375 
Q 43.359375 42.1875 39.0625 36.71875 
Q 34.765625 31.25 28.515625 25.78125 
Q 21.484375 19.53125 18.75 16.40625 
Q 16.015625 13.28125 13.671875 8.984375 
L 44.53125 8.984375 
z
" id="SimHei-50"/>
       </defs>
       <use xlink:href="#SimHei-50"/>
       <use x="50" xlink:href="#SimHei-48"/>
       <use x="100" xlink:href="#SimHei-48"/>
      </g>
     </g>
    </g>
    <g id="xtick_3">
     <g id="line2d_3">
      <g>
       <use style="stroke:#000000;stroke-width:0.8;" x="254.780672" xlink:href="#mf1d7d7d4e6" y="384.48"/>
      </g>
     </g>
     <g id="text_3">
      <!-- 400 -->
      <g transform="translate(247.280672 398.315938)scale(0.1 -0.1)">
       <defs>
        <path d="M 46.484375 18.75 
L 38.28125 18.75 
L 38.28125 1.5625 
L 29.296875 1.5625 
L 29.296875 18.75 
L 3.125 18.75 
L 3.125 26.171875 
L 29.296875 69.140625 
L 38.28125 69.140625 
L 38.28125 26.171875 
L 46.484375 26.171875 
z
M 29.296875 26.171875 
L 29.296875 55.078125 
L 11.71875 26.171875 
z
" id="SimHei-52"/>
       </defs>
       <use xlink:href="#SimHei-52"/>
       <use x="50" xlink:href="#SimHei-48"/>
       <use x="100" xlink:href="#SimHei-48"/>
      </g>
     </g>
    </g>
    <g id="xtick_4">
     <g id="line2d_4">
      <g>
       <use style="stroke:#000000;stroke-width:0.8;" x="336.025553" xlink:href="#mf1d7d7d4e6" y="384.48"/>
      </g>
     </g>
     <g id="text_4">
      <!-- 600 -->
      <g transform="translate(328.525553 398.315938)scale(0.1 -0.1)">
       <defs>
        <path d="M 44.53125 24.21875 
Q 44.53125 13.28125 39.84375 7.03125 
Q 35.15625 0.78125 25.78125 0.78125 
Q 16.40625 0.78125 10.9375 8.59375 
Q 5.46875 16.40625 5.46875 33.984375 
Q 5.46875 50 11.125 59.5625 
Q 16.796875 69.140625 27.34375 69.140625 
Q 34.765625 69.140625 39.25 63.671875 
Q 43.75 58.203125 43.75 51.5625 
L 34.765625 51.5625 
Q 34.765625 55.46875 32.609375 58.59375 
Q 30.46875 61.71875 26.953125 61.71875 
Q 21.09375 61.71875 17.96875 55.65625 
Q 14.84375 49.609375 14.453125 37.109375 
Q 17.1875 42.1875 20.3125 44.140625 
Q 23.4375 46.09375 27.734375 46.09375 
Q 35.15625 46.09375 39.84375 40.234375 
Q 44.53125 34.375 44.53125 24.21875 
z
M 35.15625 24.21875 
Q 35.15625 31.25 32.8125 35.15625 
Q 30.46875 39.0625 26.171875 39.0625 
Q 21.09375 39.0625 18.15625 35.15625 
Q 15.234375 31.25 15.234375 25.78125 
Q 15.234375 17.1875 18.15625 12.5 
Q 21.09375 7.8125 26.171875 7.8125 
Q 29.6875 7.8125 32.421875 11.328125 
Q 35.15625 14.84375 35.15625 24.21875 
z
" id="SimHei-54"/>
       </defs>
       <use xlink:href="#SimHei-54"/>
       <use x="50" xlink:href="#SimHei-48"/>
       <use x="100" xlink:href="#SimHei-48"/>
      </g>
     </g>
    </g>
    <g id="xtick_5">
     <g id="line2d_5">
      <g>
       <use style="stroke:#000000;stroke-width:0.8;" x="417.270434" xlink:href="#mf1d7d7d4e6" y="384.48"/>
      </g>
     </g>
     <g id="text_5">
      <!-- 800 -->
      <g transform="translate(409.770434 398.315938)scale(0.1 -0.1)">
       <defs>
        <path d="M 44.921875 20.703125 
Q 44.921875 10.9375 39.453125 5.859375 
Q 33.984375 0.78125 24.609375 0.78125 
Q 15.234375 0.78125 9.765625 5.859375 
Q 4.296875 10.9375 4.296875 20.703125 
Q 4.296875 25.78125 7.421875 29.875 
Q 10.546875 33.984375 16.015625 35.9375 
Q 11.328125 37.890625 8.78125 41.40625 
Q 6.25 44.921875 6.25 50.390625 
Q 6.25 58.984375 11.71875 64.0625 
Q 17.1875 69.140625 24.609375 69.140625 
Q 32.03125 69.140625 37.5 64.0625 
Q 42.96875 58.984375 42.96875 50.390625 
Q 42.96875 44.921875 40.421875 41.40625 
Q 37.890625 37.890625 33.203125 35.9375 
Q 38.671875 33.984375 41.796875 29.875 
Q 44.921875 25.78125 44.921875 20.703125 
z
M 34.375 50.390625 
Q 34.375 56.640625 31.640625 59.375 
Q 28.90625 62.109375 24.609375 62.109375 
Q 20.3125 62.109375 17.578125 59.375 
Q 14.84375 56.640625 14.84375 50.390625 
Q 14.84375 44.140625 17.765625 41.59375 
Q 20.703125 39.0625 24.609375 39.0625 
Q 28.515625 39.0625 31.4375 41.59375 
Q 34.375 44.140625 34.375 50.390625 
z
M 35.9375 20.703125 
Q 35.9375 26.171875 33 29.296875 
Q 30.078125 32.421875 24.609375 32.421875 
Q 19.140625 32.421875 16.203125 29.296875 
Q 13.28125 26.171875 13.28125 20.703125 
Q 13.28125 14.453125 16.40625 11.125 
Q 19.53125 7.8125 24.609375 7.8125 
Q 29.6875 7.8125 32.8125 11.125 
Q 35.9375 14.453125 35.9375 20.703125 
z
" id="SimHei-56"/>
       </defs>
       <use xlink:href="#SimHei-56"/>
       <use x="50" xlink:href="#SimHei-48"/>
       <use x="100" xlink:href="#SimHei-48"/>
      </g>
     </g>
    </g>
    <g id="xtick_6">
     <g id="line2d_6">
      <g>
       <use style="stroke:#000000;stroke-width:0.8;" x="498.515315" xlink:href="#mf1d7d7d4e6" y="384.48"/>
      </g>
     </g>
     <g id="text_6">
      <!-- 1000 -->
      <g transform="translate(488.515315 398.315938)scale(0.1 -0.1)">
       <defs>
        <path d="M 30.46875 1.5625 
L 21.484375 1.5625 
L 21.484375 53.515625 
L 9.765625 53.515625 
L 9.765625 58.203125 
Q 16.796875 58.203125 20.703125 60.9375 
Q 24.609375 63.671875 25.78125 69.140625 
L 30.46875 69.140625 
z
" id="SimHei-49"/>
       </defs>
       <use xlink:href="#SimHei-49"/>
       <use x="50" xlink:href="#SimHei-48"/>
       <use x="100" xlink:href="#SimHei-48"/>
       <use x="150" xlink:href="#SimHei-48"/>
      </g>
     </g>
    </g>
    <g id="text_7">
     <!-- epoch -->
     <g transform="translate(282.7 410.440938)scale(0.1 -0.1)">
      <defs>
       <path d="M 44.921875 16.40625 
Q 44.140625 9.375 38.671875 5.078125 
Q 33.203125 0.78125 25.78125 0.78125 
Q 16.40625 0.78125 10.34375 6.828125 
Q 4.296875 12.890625 4.296875 23.4375 
Q 4.296875 33.984375 10.34375 40.03125 
Q 16.40625 46.09375 25.78125 46.09375 
Q 33.984375 46.09375 39.25 40.8125 
Q 44.53125 35.546875 44.53125 23.4375 
L 12.890625 23.4375 
Q 12.890625 14.84375 16.59375 11.328125 
Q 20.3125 7.8125 25.78125 7.8125 
Q 30.078125 7.8125 32.8125 9.953125 
Q 35.546875 12.109375 36.328125 16.40625 
z
M 35.546875 29.6875 
Q 34.765625 35.15625 32.03125 37.296875 
Q 29.296875 39.453125 25 39.453125 
Q 21.09375 39.453125 17.96875 37.296875 
Q 14.84375 35.15625 13.28125 29.6875 
z
" id="SimHei-101"/>
       <path d="M 44.53125 23.4375 
Q 44.53125 12.109375 39.0625 6.25 
Q 33.59375 0.390625 25.78125 0.390625 
Q 21.484375 0.390625 18.359375 2.140625 
Q 15.234375 3.90625 12.890625 7.421875 
L 12.890625 -12.890625 
L 5.078125 -12.890625 
L 5.078125 45.3125 
L 12.890625 45.3125 
L 12.890625 39.453125 
Q 15.234375 42.96875 18.359375 44.53125 
Q 21.484375 46.09375 25.78125 46.09375 
Q 33.59375 46.09375 39.0625 40.421875 
Q 44.53125 34.765625 44.53125 23.4375 
z
M 35.9375 23.4375 
Q 35.9375 30.859375 33 34.953125 
Q 30.078125 39.0625 24.21875 39.0625 
Q 19.53125 39.0625 16.203125 34.953125 
Q 12.890625 30.859375 12.890625 23.4375 
Q 12.890625 16.015625 16.203125 11.71875 
Q 19.53125 7.421875 24.21875 7.421875 
Q 30.078125 7.421875 33 11.71875 
Q 35.9375 16.015625 35.9375 23.4375 
z
" id="SimHei-112"/>
       <path d="M 46.09375 23.4375 
Q 46.09375 13.28125 39.84375 7.03125 
Q 33.59375 0.78125 25 0.78125 
Q 16.40625 0.78125 10.15625 7.03125 
Q 3.90625 13.28125 3.90625 23.4375 
Q 3.90625 33.59375 10.15625 39.84375 
Q 16.40625 46.09375 25 46.09375 
Q 33.59375 46.09375 39.84375 39.84375 
Q 46.09375 33.59375 46.09375 23.4375 
z
M 37.5 23.4375 
Q 37.5 31.25 33.59375 35.15625 
Q 29.6875 39.0625 25 39.0625 
Q 20.3125 39.0625 16.40625 35.15625 
Q 12.5 31.25 12.5 23.4375 
Q 12.5 15.625 16.40625 11.71875 
Q 20.3125 7.8125 25 7.8125 
Q 29.6875 7.8125 33.59375 11.71875 
Q 37.5 15.625 37.5 23.4375 
z
" id="SimHei-111"/>
       <path d="M 44.921875 19.140625 
Q 44.921875 10.9375 39.25 5.859375 
Q 33.59375 0.78125 25 0.78125 
Q 16.40625 0.78125 10.15625 6.828125 
Q 3.90625 12.890625 3.90625 23.4375 
Q 3.90625 33.984375 10.15625 40.03125 
Q 16.40625 46.09375 25 46.09375 
Q 33.59375 46.09375 38.671875 41.59375 
Q 43.75 37.109375 43.75 30.859375 
L 35.15625 30.859375 
Q 34.765625 35.546875 31.828125 37.296875 
Q 28.90625 39.0625 25 39.0625 
Q 20.3125 39.0625 16.40625 35.34375 
Q 12.5 31.640625 12.5 23.4375 
Q 12.5 15.234375 16.40625 11.515625 
Q 20.3125 7.8125 25 7.8125 
Q 30.078125 7.8125 33.203125 10.546875 
Q 36.328125 13.28125 36.328125 19.140625 
z
" id="SimHei-99"/>
       <path d="M 44.140625 1.5625 
L 36.328125 1.5625 
L 36.328125 29.6875 
Q 36.328125 34.375 33.984375 37.109375 
Q 31.640625 39.84375 27.734375 39.84375 
Q 22.65625 39.84375 18.15625 34.5625 
Q 13.671875 29.296875 13.671875 21.484375 
L 13.671875 1.5625 
L 5.859375 1.5625 
L 5.859375 68.359375 
L 13.671875 68.359375 
L 13.671875 37.109375 
Q 16.796875 41.40625 20.5 43.75 
Q 24.21875 46.09375 30.078125 46.09375 
Q 37.109375 46.09375 40.625 42.1875 
Q 44.140625 38.28125 44.140625 32.421875 
z
" id="SimHei-104"/>
      </defs>
      <use xlink:href="#SimHei-101"/>
      <use x="50" xlink:href="#SimHei-112"/>
      <use x="100" xlink:href="#SimHei-111"/>
      <use x="150" xlink:href="#SimHei-99"/>
      <use x="200" xlink:href="#SimHei-104"/>
     </g>
    </g>
   </g>
   <g id="matplotlib.axis_2">
    <g id="ytick_1">
     <g id="line2d_7">
      <defs>
       <path d="M 0 0 
L -3.5 0 
" id="m9f40180d56" style="stroke:#000000;stroke-width:0.8;"/>
      </defs>
      <g>
       <use style="stroke:#000000;stroke-width:0.8;" x="72" xlink:href="#m9f40180d56" y="384.48"/>
      </g>
     </g>
     <g id="text_8">
      <!-- 0.0 -->
      <g transform="translate(50 387.897969)scale(0.1 -0.1)">
       <defs>
        <path d="M 17.1875 1.5625 
L 8.203125 1.5625 
L 8.203125 10.15625 
L 17.1875 10.15625 
z
" id="SimHei-46"/>
       </defs>
       <use xlink:href="#SimHei-48"/>
       <use x="50" xlink:href="#SimHei-46"/>
       <use x="100" xlink:href="#SimHei-48"/>
      </g>
     </g>
    </g>
    <g id="ytick_2">
     <g id="line2d_8">
      <g>
       <use style="stroke:#000000;stroke-width:0.8;" x="72" xlink:href="#m9f40180d56" y="317.952"/>
      </g>
     </g>
     <g id="text_9">
      <!-- 0.2 -->
      <g transform="translate(50 321.369969)scale(0.1 -0.1)">
       <use xlink:href="#SimHei-48"/>
       <use x="50" xlink:href="#SimHei-46"/>
       <use x="100" xlink:href="#SimHei-50"/>
      </g>
     </g>
    </g>
    <g id="ytick_3">
     <g id="line2d_9">
      <g>
       <use style="stroke:#000000;stroke-width:0.8;" x="72" xlink:href="#m9f40180d56" y="251.424"/>
      </g>
     </g>
     <g id="text_10">
      <!-- 0.4 -->
      <g transform="translate(50 254.841969)scale(0.1 -0.1)">
       <use xlink:href="#SimHei-48"/>
       <use x="50" xlink:href="#SimHei-46"/>
       <use x="100" xlink:href="#SimHei-52"/>
      </g>
     </g>
    </g>
    <g id="ytick_4">
     <g id="line2d_10">
      <g>
       <use style="stroke:#000000;stroke-width:0.8;" x="72" xlink:href="#m9f40180d56" y="184.896"/>
      </g>
     </g>
     <g id="text_11">
      <!-- 0.6 -->
      <g transform="translate(50 188.313969)scale(0.1 -0.1)">
       <use xlink:href="#SimHei-48"/>
       <use x="50" xlink:href="#SimHei-46"/>
       <use x="100" xlink:href="#SimHei-54"/>
      </g>
     </g>
    </g>
    <g id="ytick_5">
     <g id="line2d_11">
      <g>
       <use style="stroke:#000000;stroke-width:0.8;" x="72" xlink:href="#m9f40180d56" y="118.368"/>
      </g>
     </g>
     <g id="text_12">
      <!-- 0.8 -->
      <g transform="translate(50 121.785969)scale(0.1 -0.1)">
       <use xlink:href="#SimHei-48"/>
       <use x="50" xlink:href="#SimHei-46"/>
       <use x="100" xlink:href="#SimHei-56"/>
      </g>
     </g>
    </g>
    <g id="ytick_6">
     <g id="line2d_12">
      <g>
       <use style="stroke:#000000;stroke-width:0.8;" x="72" xlink:href="#m9f40180d56" y="51.84"/>
      </g>
     </g>
     <g id="text_13">
      <!-- 1.0 -->
      <g transform="translate(50 55.257969)scale(0.1 -0.1)">
       <use xlink:href="#SimHei-49"/>
       <use x="50" xlink:href="#SimHei-46"/>
       <use x="100" xlink:href="#SimHei-48"/>
      </g>
     </g>
    </g>
    <g id="text_14">
     <!-- rate -->
     <g transform="translate(44.710938 228.16)rotate(-90)scale(0.1 -0.1)">
      <defs>
       <path d="M 39.453125 37.5 
Q 32.03125 38.671875 26.953125 35.34375 
Q 21.875 32.03125 18.359375 23.828125 
L 18.359375 1.5625 
L 10.546875 1.5625 
L 10.546875 45.3125 
L 18.359375 45.3125 
L 18.359375 33.984375 
Q 21.875 40.234375 27.140625 43.15625 
Q 32.421875 46.09375 39.453125 46.09375 
z
" id="SimHei-114"/>
       <path d="M 45.3125 1.5625 
L 35.9375 1.5625 
Q 35.15625 2.34375 34.765625 3.703125 
Q 34.375 5.078125 34.375 7.03125 
Q 31.640625 3.90625 27.734375 2.34375 
Q 23.828125 0.78125 19.53125 0.78125 
Q 13.28125 0.78125 8.984375 3.90625 
Q 4.6875 7.03125 4.6875 12.890625 
Q 4.6875 18.75 8.59375 22.265625 
Q 12.5 25.78125 20.703125 26.953125 
Q 26.171875 27.734375 30.265625 28.90625 
Q 34.375 30.078125 34.375 32.03125 
Q 34.375 34.375 32.609375 36.71875 
Q 30.859375 39.0625 25 39.0625 
Q 20.3125 39.0625 18.15625 37.296875 
Q 16.015625 35.546875 15.234375 32.421875 
L 6.640625 32.421875 
Q 7.421875 38.671875 12.296875 42.375 
Q 17.1875 46.09375 25 46.09375 
Q 33.59375 46.09375 37.890625 42.1875 
Q 42.1875 38.28125 42.1875 31.25 
L 42.1875 9.765625 
Q 42.1875 7.421875 42.96875 5.46875 
Q 43.75 3.515625 45.3125 1.5625 
z
M 34.375 16.015625 
L 34.375 23.828125 
Q 32.03125 23.046875 29.875 22.453125 
Q 27.734375 21.875 22.65625 21.09375 
Q 16.796875 20.3125 15.03125 18.359375 
Q 13.28125 16.40625 13.28125 13.671875 
Q 13.28125 11.328125 15.03125 9.5625 
Q 16.796875 7.8125 20.3125 7.8125 
Q 23.828125 7.8125 27.921875 9.765625 
Q 32.03125 11.71875 34.375 16.015625 
z
" id="SimHei-97"/>
       <path d="M 43.359375 2.734375 
Q 41.40625 1.953125 38.859375 1.359375 
Q 36.328125 0.78125 32.03125 0.78125 
Q 25 0.78125 20.703125 4.6875 
Q 16.40625 8.59375 16.40625 15.625 
L 16.40625 39.0625 
L 3.125 39.0625 
L 3.125 45.3125 
L 16.40625 45.3125 
L 16.40625 60.546875 
L 24.21875 60.546875 
L 24.21875 45.3125 
L 40.234375 45.3125 
L 40.234375 39.0625 
L 24.21875 39.0625 
L 24.21875 15.234375 
Q 24.21875 12.109375 25.78125 9.953125 
Q 27.34375 7.8125 31.640625 7.8125 
Q 35.9375 7.8125 38.671875 8.59375 
Q 41.40625 9.375 43.359375 10.546875 
z
" id="SimHei-116"/>
      </defs>
      <use xlink:href="#SimHei-114"/>
      <use x="50" xlink:href="#SimHei-97"/>
      <use x="100" xlink:href="#SimHei-116"/>
      <use x="150" xlink:href="#SimHei-101"/>
     </g>
    </g>
   </g>
   <g id="line2d_13">
    <path clip-path="url(#p44ada3b2df)" d="M 92.290909 283.823289 
L 92.697133 353.797202 
L 93.103358 360.44674 
L 93.509582 327.552211 
L 94.322031 370.806746 
L 94.728256 371.397608 
L 95.13448 301.526222 
L 95.540704 354.723124 
L 95.946929 360.548275 
L 96.353153 354.08723 
L 96.759378 301.526585 
L 97.165602 303.954952 
L 97.571826 312.953382 
L 97.978051 365.566376 
L 98.384275 331.496181 
L 98.7905 365.56414 
L 99.196724 350.467376 
L 99.602948 368.076866 
L 100.009173 365.050838 
L 100.415397 306.44098 
L 100.821622 346.685001 
L 101.227846 345.050705 
L 101.63407 336.856941 
L 102.040295 349.495421 
L 102.446519 355.12308 
L 102.852744 300.165539 
L 103.258968 339.801581 
L 103.665192 350.025826 
L 104.071417 364.652089 
L 104.477641 362.279973 
L 104.883866 340.007852 
L 105.29009 362.881746 
L 105.696314 361.085652 
L 106.102539 358.45576 
L 106.914988 326.654982 
L 107.321212 303.096108 
L 107.727437 361.444457 
L 108.133661 345.731981 
L 108.539885 370.202781 
L 108.94611 369.669811 
L 109.352334 354.179917 
L 109.758559 374.827497 
L 110.164783 371.607965 
L 110.571007 365.717482 
L 110.977232 375.762244 
L 111.383456 349.222467 
L 111.789681 350.662816 
L 112.195905 350.034052 
L 112.602129 364.683615 
L 113.008354 371.109182 
L 113.414578 360.549466 
L 113.820803 357.913828 
L 114.227027 367.471489 
L 114.633251 347.320681 
L 115.039476 365.363366 
L 115.4457 359.432773 
L 115.851925 368.333628 
L 116.258149 332.802213 
L 116.664373 370.511505 
L 117.070598 356.869836 
L 117.476822 369.006985 
L 117.883047 334.460589 
L 118.289271 370.255648 
L 118.695495 350.197175 
L 119.10172 314.334734 
L 119.507944 366.989487 
L 119.914169 374.359023 
L 120.320393 370.890104 
L 120.726618 357.376433 
L 121.132842 367.01493 
L 121.539066 344.103128 
L 121.945291 371.315766 
L 122.351515 361.078646 
L 122.75774 360.755802 
L 123.163964 337.614384 
L 123.570188 367.593021 
L 123.976413 368.765342 
L 124.382637 372.012568 
L 124.788862 370.588321 
L 125.195086 360.24887 
L 125.60131 364.820518 
L 126.007535 345.486061 
L 126.413759 303.693347 
L 126.819984 345.735773 
L 127.226208 367.689598 
L 127.632432 369.332037 
L 128.038657 365.645143 
L 128.444881 379.358439 
L 128.851106 329.32919 
L 129.25733 374.794132 
L 129.663554 368.676631 
L 130.069779 346.10597 
L 130.476003 358.018989 
L 130.882228 356.036045 
L 131.288452 362.869319 
L 131.694676 335.776812 
L 132.100901 322.078911 
L 132.507125 329.549413 
L 133.319574 368.408444 
L 133.725799 348.698736 
L 134.132023 343.18906 
L 134.944472 347.892123 
L 135.350696 352.953291 
L 135.756921 359.809534 
L 136.163145 359.19727 
L 136.569369 365.206529 
L 136.975594 366.909068 
L 137.381818 369.424729 
L 137.788043 367.869585 
L 138.194267 352.059402 
L 138.600491 360.14794 
L 139.006716 346.920766 
L 139.41294 338.711289 
L 139.819165 340.32381 
L 140.225389 316.763661 
L 141.037838 369.174298 
L 141.444062 345.994298 
L 141.850287 313.25733 
L 142.256511 351.840002 
L 142.662735 363.417015 
L 143.06896 364.42721 
L 143.475184 344.139993 
L 143.881409 359.957906 
L 144.287633 365.607727 
L 144.693857 349.879061 
L 145.100082 346.589296 
L 145.506306 363.727311 
L 146.318755 356.471822 
L 146.72498 308.785884 
L 147.131204 331.699453 
L 147.537428 362.040266 
L 147.943653 370.559576 
L 148.756102 340.364525 
L 149.162326 371.471958 
L 149.56855 369.223244 
L 149.974775 352.309005 
L 150.380999 364.448463 
L 150.787224 345.945168 
L 151.193448 366.62739 
L 151.599672 371.969596 
L 152.412121 346.57513 
L 152.818346 323.126949 
L 153.22457 336.887061 
L 153.630794 310.492024 
L 154.037019 341.067521 
L 154.443243 295.069321 
L 154.849468 339.759696 
L 155.255692 312.767861 
L 155.661916 363.496896 
L 156.068141 373.216315 
L 156.474365 338.016964 
L 156.88059 292.77196 
L 157.286814 350.138158 
L 157.693038 292.38443 
L 158.099263 334.51859 
L 158.505487 359.234448 
L 158.911712 317.127332 
L 159.317936 369.906874 
L 160.130385 328.470748 
L 160.536609 368.321387 
L 160.942834 354.429277 
L 161.349058 369.115147 
L 161.755283 326.972798 
L 162.161507 311.91466 
L 162.567731 358.575523 
L 162.973956 357.077223 
L 163.38018 347.534012 
L 164.192629 352.679877 
L 164.598853 366.989515 
L 165.005078 365.692575 
L 165.817527 362.63411 
L 166.223751 281.684263 
L 166.629975 364.78659 
L 167.0362 378.098543 
L 167.442424 370.918274 
L 168.254873 352.969208 
L 168.661097 345.764838 
L 169.067322 376.608989 
L 169.473546 367.925018 
L 169.879771 316.171752 
L 170.285995 320.10711 
L 170.692219 289.543128 
L 171.098444 341.315607 
L 171.504668 369.028323 
L 171.910893 339.628531 
L 172.317117 318.67616 
L 172.723342 360.239116 
L 173.129566 328.179043 
L 173.53579 354.666301 
L 173.942015 369.392624 
L 174.754464 302.748168 
L 175.160688 359.169578 
L 175.973137 351.356115 
L 176.379361 290.714486 
L 176.785586 356.578744 
L 177.19181 356.286888 
L 177.598034 355.622607 
L 178.004259 361.118307 
L 178.410483 339.453528 
L 178.816708 369.814806 
L 179.222932 365.607226 
L 179.629156 336.738355 
L 180.035381 328.220601 
L 180.441605 332.654573 
L 180.84783 360.232665 
L 181.254054 363.345085 
L 181.660278 362.741425 
L 182.066503 364.581097 
L 182.472727 362.271737 
L 182.878952 365.007063 
L 183.285176 347.558906 
L 183.6914 348.023169 
L 184.097625 367.271911 
L 184.503849 346.737417 
L 184.910074 369.8505 
L 185.316298 334.922943 
L 185.722523 359.581971 
L 186.128747 348.782867 
L 186.534971 350.453965 
L 186.941196 364.335709 
L 187.34742 366.382816 
L 187.753645 366.481111 
L 188.159869 301.131456 
L 188.566093 312.830575 
L 188.972318 331.070279 
L 189.378542 362.278804 
L 189.784767 344.143006 
L 190.190991 341.461077 
L 190.597215 359.070974 
L 191.00344 320.429715 
L 191.409664 360.676474 
L 191.815889 366.207243 
L 192.222113 352.289637 
L 192.628337 367.384326 
L 193.034562 370.075685 
L 193.440786 368.792512 
L 193.847011 336.633532 
L 194.253235 315.885533 
L 194.659459 358.218855 
L 195.065684 360.442653 
L 195.471908 292.501677 
L 195.878133 346.773909 
L 196.284357 339.447884 
L 196.690581 321.132616 
L 197.096806 357.55615 
L 197.50303 378.426869 
L 198.315479 325.506711 
L 198.721704 364.474199 
L 199.127928 364.597019 
L 199.534152 363.964025 
L 199.940377 371.845073 
L 200.346601 350.137576 
L 201.15905 330.484871 
L 201.565274 360.849328 
L 201.971499 367.841263 
L 202.377723 312.102227 
L 202.783948 347.906963 
L 203.190172 363.463969 
L 203.596396 362.030303 
L 204.002621 361.05304 
L 204.408845 376.697999 
L 204.81507 371.910042 
L 205.221294 329.605975 
L 205.627518 302.398317 
L 206.033743 367.371313 
L 206.846192 358.168459 
L 207.252416 369.601422 
L 207.65864 372.662677 
L 208.064865 354.015256 
L 208.471089 374.978054 
L 208.877314 344.133731 
L 209.283538 345.343762 
L 209.689762 359.445526 
L 210.095987 362.004261 
L 210.502211 370.151527 
L 210.908436 368.657919 
L 211.31466 368.841371 
L 211.720885 366.930067 
L 212.127109 366.358067 
L 212.533333 359.467279 
L 212.939558 350.249616 
L 213.345782 336.967928 
L 213.752007 333.811423 
L 214.158231 359.628769 
L 214.564455 364.831326 
L 214.97068 301.033264 
L 215.376904 343.382029 
L 215.783129 364.591567 
L 216.189353 372.475182 
L 216.595577 337.2234 
L 217.001802 338.647695 
L 217.408026 351.78344 
L 217.814251 349.661715 
L 218.220475 355.773734 
L 218.626699 303.368206 
L 219.032924 349.806969 
L 219.439148 363.838909 
L 219.845373 373.261165 
L 220.251597 348.161494 
L 220.657821 314.965442 
L 221.064046 363.283673 
L 221.47027 354.525903 
L 221.876495 362.873626 
L 222.282719 315.642333 
L 222.688943 351.769255 
L 223.095168 299.244454 
L 223.501392 289.026987 
L 223.907617 359.814097 
L 224.313841 339.175178 
L 224.720066 370.172055 
L 225.12629 348.149208 
L 225.532514 356.371936 
L 225.938739 359.366388 
L 226.344963 327.210456 
L 226.751188 358.141718 
L 227.157412 331.334731 
L 227.563636 323.5104 
L 227.969861 356.009892 
L 228.376085 365.651311 
L 228.78231 369.548695 
L 229.188534 370.991576 
L 229.594758 375.377172 
L 230.000983 369.308115 
L 230.407207 367.65114 
L 230.813432 297.598897 
L 231.219656 318.549265 
L 231.62588 348.310697 
L 232.032105 304.562367 
L 232.438329 325.900212 
L 232.844554 314.308645 
L 233.250778 336.2253 
L 233.657002 325.077446 
L 234.063227 357.790434 
L 234.469451 355.567458 
L 234.875676 358.953261 
L 235.2819 348.262468 
L 235.688124 367.127965 
L 236.094349 308.050674 
L 236.500573 373.859444 
L 237.313022 362.870379 
L 237.719247 371.897968 
L 238.125471 360.062449 
L 238.531695 366.317176 
L 239.344144 326.663482 
L 239.750369 358.585939 
L 240.156593 351.299919 
L 240.562817 372.739786 
L 240.969042 349.098952 
L 241.375266 355.409848 
L 241.781491 310.051646 
L 242.187715 366.568161 
L 242.593939 288.945067 
L 243.000164 323.698977 
L 243.406388 371.262321 
L 243.812613 349.17914 
L 244.625061 379.139033 
L 245.031286 371.041377 
L 245.43751 335.2856 
L 245.843735 341.082287 
L 246.249959 332.64318 
L 246.656183 356.924248 
L 247.062408 325.535903 
L 247.874857 314.620803 
L 248.281081 297.37566 
L 248.687305 363.562146 
L 249.09353 364.48938 
L 249.499754 376.572149 
L 249.905979 348.447934 
L 250.312203 347.27178 
L 250.718428 353.843591 
L 251.124652 369.140832 
L 251.530876 372.365527 
L 251.937101 362.241358 
L 252.343325 343.386012 
L 252.74955 371.359773 
L 253.155774 331.105212 
L 253.561998 378.217824 
L 254.374447 359.562422 
L 254.780672 356.15471 
L 255.186896 346.557549 
L 255.59312 353.182186 
L 255.999345 327.983869 
L 256.405569 359.715739 
L 256.811794 362.086684 
L 257.218018 355.207553 
L 257.624242 329.4257 
L 258.030467 363.608154 
L 258.436691 358.828145 
L 258.842916 347.432892 
L 259.655364 298.594363 
L 260.061589 370.560755 
L 260.467813 342.239314 
L 260.874038 342.933301 
L 261.280262 373.060015 
L 261.686486 351.709541 
L 262.092711 309.200135 
L 262.498935 346.214136 
L 262.90516 367.430749 
L 263.311384 368.613087 
L 263.717609 348.394888 
L 264.123833 368.796554 
L 264.530057 370.707679 
L 264.936282 356.892539 
L 265.342506 336.974802 
L 265.748731 333.000779 
L 266.154955 369.189096 
L 266.561179 355.923991 
L 266.967404 368.788948 
L 267.373628 340.335055 
L 267.779853 323.377034 
L 268.186077 347.659797 
L 268.592301 348.971999 
L 268.998526 370.802939 
L 269.40475 370.985475 
L 269.810975 359.839746 
L 270.217199 343.998902 
L 270.623423 314.946462 
L 271.029648 372.188047 
L 271.435872 342.778453 
L 271.842097 325.780194 
L 272.654545 366.005368 
L 273.06077 368.952999 
L 273.466994 373.546692 
L 273.873219 351.950071 
L 274.279443 350.120788 
L 274.685667 362.49214 
L 275.091892 357.792046 
L 275.498116 348.228345 
L 275.904341 352.54295 
L 276.310565 359.011387 
L 276.71679 356.948614 
L 277.123014 364.161132 
L 277.529238 336.386541 
L 277.935463 363.461196 
L 278.341687 369.666498 
L 279.154136 371.50977 
L 279.56036 337.344732 
L 279.966585 373.843001 
L 280.372809 362.541611 
L 280.779034 300.619784 
L 281.185258 303.923515 
L 281.591482 352.438914 
L 281.997707 305.791271 
L 282.403931 356.471676 
L 282.810156 361.746429 
L 283.21638 363.554717 
L 283.622604 372.376949 
L 284.028829 368.929235 
L 284.435053 313.214084 
L 284.841278 328.644497 
L 285.247502 328.215315 
L 285.653726 354.108592 
L 286.059951 370.365338 
L 286.466175 366.528124 
L 286.8724 367.842033 
L 287.278624 343.133913 
L 287.684848 308.28059 
L 288.091073 364.392474 
L 288.497297 349.806629 
L 288.903522 341.112065 
L 289.309746 325.327894 
L 290.122195 351.673166 
L 290.528419 343.773215 
L 290.934644 359.420264 
L 291.340868 364.008669 
L 291.747093 328.30474 
L 292.153317 328.605281 
L 292.559541 361.909789 
L 292.965766 328.539487 
L 293.37199 360.575037 
L 293.778215 322.577776 
L 294.184439 355.121692 
L 294.590663 285.383727 
L 294.996888 352.812723 
L 295.403112 357.115641 
L 295.809337 333.725203 
L 296.215561 367.281508 
L 296.621785 369.979489 
L 297.02801 369.392218 
L 297.434234 368.330251 
L 297.840459 360.456837 
L 298.246683 361.916447 
L 298.652907 368.422162 
L 299.059132 356.131768 
L 299.465356 350.704675 
L 299.871581 364.501771 
L 300.277805 349.049949 
L 300.684029 369.257995 
L 301.090254 346.856399 
L 301.496478 296.089013 
L 301.902703 360.365048 
L 302.308927 369.306306 
L 302.715152 370.24734 
L 303.121376 374.9968 
L 303.5276 357.732697 
L 303.933825 372.136211 
L 304.340049 350.503154 
L 304.746274 373.619405 
L 305.558722 344.538304 
L 305.964947 285.560756 
L 306.371171 356.009256 
L 306.777396 288.276663 
L 307.18362 339.131765 
L 307.589844 367.648723 
L 307.996069 329.86789 
L 308.402293 362.808781 
L 308.808518 297.348362 
L 309.214742 369.412803 
L 309.620966 368.902816 
L 310.027191 319.972593 
L 310.433415 361.847192 
L 310.83964 365.759051 
L 311.245864 332.791535 
L 311.652088 363.706451 
L 312.058313 368.83994 
L 312.464537 345.03866 
L 312.870762 338.842412 
L 313.276986 327.892963 
L 313.68321 351.672761 
L 314.089435 356.575793 
L 314.495659 358.179661 
L 314.901884 355.788374 
L 315.308108 333.466116 
L 315.714333 362.473213 
L 316.120557 367.918792 
L 316.526781 318.368182 
L 316.933006 368.720039 
L 317.33923 368.803969 
L 317.745455 296.311168 
L 318.151679 360.181017 
L 318.557903 339.283854 
L 318.964128 367.585392 
L 319.776577 343.667353 
L 320.182801 372.962448 
L 320.99525 362.647035 
L 321.401474 348.798433 
L 321.807699 366.628745 
L 322.213923 368.656513 
L 322.620147 350.608536 
L 323.026372 368.364379 
L 323.432596 366.788951 
L 323.838821 366.798445 
L 324.245045 372.746578 
L 324.651269 341.575545 
L 325.463718 366.562037 
L 325.869943 335.364586 
L 326.276167 343.716368 
L 326.682391 347.300359 
L 327.088616 352.117192 
L 327.49484 364.953813 
L 327.901065 300.374281 
L 328.307289 330.768251 
L 328.713514 336.367299 
L 329.119738 369.165818 
L 329.525962 362.314613 
L 329.932187 379.161727 
L 330.338411 342.163912 
L 330.744636 338.35427 
L 331.15086 373.627993 
L 331.557084 339.998717 
L 331.963309 367.169167 
L 332.369533 352.895467 
L 332.775758 364.196701 
L 333.181982 350.876659 
L 333.588206 328.854738 
L 333.994431 318.486607 
L 334.400655 367.968999 
L 334.80688 365.921195 
L 335.213104 366.999179 
L 335.619328 330.051261 
L 336.025553 366.996767 
L 336.431777 304.990082 
L 336.838002 366.900266 
L 337.244226 316.79542 
L 337.65045 361.010569 
L 338.056675 359.605147 
L 338.462899 323.206046 
L 338.869124 372.16443 
L 339.275348 350.139474 
L 339.681572 373.688605 
L 340.087797 368.408107 
L 340.494021 331.213565 
L 340.900246 351.336318 
L 341.30647 334.878179 
L 341.712695 344.22308 
L 342.118919 371.175335 
L 342.525143 357.805921 
L 342.931368 370.584845 
L 343.337592 352.489455 
L 343.743817 290.689056 
L 344.150041 356.534449 
L 344.556265 358.438163 
L 344.96249 345.246798 
L 345.368714 360.276937 
L 345.774939 317.884897 
L 346.181163 368.581031 
L 346.587387 320.457049 
L 346.993612 375.647995 
L 347.399836 370.268764 
L 347.806061 356.28051 
L 348.212285 368.423795 
L 348.618509 371.769296 
L 349.024734 369.13663 
L 349.430958 370.537507 
L 349.837183 356.659717 
L 350.243407 303.260336 
L 350.649631 370.699636 
L 351.055856 343.69199 
L 351.46208 328.876531 
L 351.868305 373.170247 
L 352.274529 373.172177 
L 352.680753 335.084257 
L 353.086978 363.609919 
L 353.493202 357.476582 
L 353.899427 373.23096 
L 354.305651 364.36082 
L 354.711876 375.685504 
L 355.524324 366.461929 
L 355.930549 330.812416 
L 356.742998 372.259255 
L 357.149222 376.127331 
L 357.555446 351.402132 
L 357.961671 348.690213 
L 358.367895 325.968136 
L 358.77412 370.381892 
L 359.586568 317.533877 
L 359.992793 302.512071 
L 360.399017 358.914617 
L 360.805242 325.048978 
L 361.211466 365.190703 
L 361.61769 344.539081 
L 362.023915 346.406918 
L 362.430139 296.188186 
L 362.836364 343.89962 
L 363.242588 315.437304 
L 363.648812 366.555675 
L 364.055037 326.06486 
L 364.461261 330.55358 
L 364.867486 301.523638 
L 365.27371 347.628746 
L 365.679934 352.151207 
L 366.086159 345.704277 
L 366.898608 320.692462 
L 367.304832 370.01137 
L 367.711057 358.704652 
L 368.117281 328.53732 
L 368.523505 373.380305 
L 368.92973 375.205588 
L 369.335954 287.438955 
L 369.742179 360.771358 
L 370.148403 362.58071 
L 370.554627 349.581245 
L 370.960852 319.830501 
L 371.367076 370.206249 
L 371.773301 367.239428 
L 372.179525 366.729871 
L 372.585749 353.489731 
L 372.991974 311.662135 
L 373.398198 348.014028 
L 373.804423 338.309142 
L 374.210647 347.241757 
L 374.616871 368.453785 
L 375.023096 344.459463 
L 375.42932 361.402354 
L 375.835545 372.315681 
L 376.241769 340.050245 
L 376.647993 339.16308 
L 377.054218 354.07491 
L 377.460442 373.301073 
L 377.866667 372.978122 
L 378.272891 338.398612 
L 378.679115 360.171278 
L 379.08534 355.097174 
L 379.491564 354.524569 
L 379.897789 349.230023 
L 380.304013 324.387295 
L 380.710238 337.638125 
L 381.116462 329.985097 
L 381.522686 298.221004 
L 381.928911 358.635455 
L 382.335135 371.570735 
L 382.74136 342.124345 
L 383.147584 354.471809 
L 383.553808 337.580849 
L 383.960033 369.693475 
L 384.366257 360.528677 
L 384.772482 359.265724 
L 385.178706 372.437608 
L 385.58493 359.146716 
L 385.991155 339.856787 
L 386.397379 367.372397 
L 386.803604 323.823562 
L 387.209828 356.870836 
L 387.616052 363.311088 
L 388.022277 367.76241 
L 388.428501 360.477637 
L 388.834726 371.188303 
L 389.24095 357.27928 
L 389.647174 359.26983 
L 390.053399 368.504307 
L 390.459623 370.383316 
L 390.865848 367.346482 
L 391.272072 331.042334 
L 391.678296 361.916668 
L 392.084521 326.652748 
L 392.490745 356.585953 
L 392.89697 314.837014 
L 393.303194 343.729919 
L 393.709419 347.939787 
L 394.115643 313.037992 
L 394.521867 364.468756 
L 394.928092 355.678142 
L 395.334316 359.892561 
L 395.740541 296.260881 
L 396.146765 364.906536 
L 396.552989 343.135517 
L 396.959214 356.695437 
L 397.365438 348.453521 
L 397.771663 368.689224 
L 398.584111 309.826046 
L 398.990336 327.298371 
L 399.39656 364.623069 
L 399.802785 306.49408 
L 400.209009 369.75927 
L 400.615233 370.452206 
L 401.021458 302.984765 
L 401.427682 310.829657 
L 401.833907 363.854897 
L 402.646355 377.24061 
L 403.05258 370.962894 
L 403.458804 326.65707 
L 403.865029 366.907072 
L 404.271253 344.642543 
L 404.677477 344.55485 
L 405.083702 342.716623 
L 405.489926 362.062605 
L 405.896151 326.628485 
L 406.302375 341.551929 
L 406.7086 367.106046 
L 407.521048 306.228729 
L 407.927273 350.28641 
L 408.333497 366.929257 
L 408.739722 348.184222 
L 409.145946 367.924207 
L 409.55217 343.950074 
L 409.958395 331.794589 
L 410.364619 312.513396 
L 410.770844 372.496743 
L 411.177068 353.692185 
L 411.583292 328.965191 
L 411.989517 374.778227 
L 412.395741 366.718831 
L 413.20819 341.990524 
L 413.614414 362.308498 
L 414.020639 363.648149 
L 414.426863 354.920927 
L 414.833088 359.757707 
L 415.239312 301.836449 
L 415.645536 361.48089 
L 416.051761 324.073695 
L 416.457985 370.309191 
L 416.86421 352.023249 
L 417.270434 203.316576 
L 498.109091 203.316576 
L 498.109091 203.316576 
" style="fill:none;stroke:#0000ff;stroke-linecap:square;stroke-width:1.5;"/>
   </g>
   <g id="line2d_14">
    <path clip-path="url(#p44ada3b2df)" d="M 92.290909 288.120255 
L 92.697133 219.846003 
L 93.103358 224.335527 
L 93.509582 219.726906 
L 94.322031 228.810824 
L 94.728256 224.03321 
L 95.13448 222.607061 
L 95.540704 225.773399 
L 95.946929 220.801392 
L 96.353153 223.633033 
L 96.759378 219.692478 
L 97.165602 227.496087 
L 97.571826 221.790299 
L 97.978051 224.71705 
L 98.384275 225.971386 
L 98.7905 226.551614 
L 99.196724 224.555937 
L 99.602948 221.436506 
L 100.009173 225.614835 
L 100.415397 226.312333 
L 100.821622 228.135567 
L 102.040295 223.393261 
L 102.446519 226.331376 
L 103.258968 223.267259 
L 103.665192 219.655652 
L 104.071417 222.68916 
L 104.477641 228.707344 
L 104.883866 222.574744 
L 105.29009 224.428002 
L 105.696314 222.546247 
L 106.102539 227.205733 
L 106.508763 224.862599 
L 106.914988 220.481818 
L 107.321212 224.563469 
L 107.727437 226.931512 
L 108.133661 227.533797 
L 108.539885 218.911476 
L 108.94611 228.346654 
L 109.352334 224.791866 
L 109.758559 228.604729 
L 110.164783 225.663345 
L 110.571007 223.809316 
L 110.977232 225.578698 
L 111.383456 219.338716 
L 111.789681 226.436879 
L 112.195905 227.180174 
L 112.602129 219.042116 
L 113.008354 224.231114 
L 113.414578 220.532879 
L 113.820803 224.452532 
L 114.227027 224.656263 
L 114.633251 227.475738 
L 115.039476 225.954718 
L 115.4457 229.002519 
L 115.851925 222.89977 
L 116.258149 226.921087 
L 116.664373 228.161256 
L 117.070598 224.589797 
L 117.476822 224.559941 
L 117.883047 223.891983 
L 118.289271 223.896371 
L 118.695495 223.559433 
L 119.10172 222.473425 
L 119.507944 222.748517 
L 119.914169 232.002196 
L 120.320393 223.7005 
L 120.726618 228.705049 
L 121.132842 224.327958 
L 121.945291 227.005916 
L 122.351515 217.395128 
L 122.75774 224.011112 
L 123.163964 227.48831 
L 123.976413 221.199369 
L 124.382637 225.296628 
L 124.788862 226.593286 
L 125.195086 222.337081 
L 126.007535 227.600737 
L 126.413759 220.0358 
L 126.819984 224.48229 
L 127.226208 225.563161 
L 127.632432 222.372874 
L 128.038657 223.243124 
L 128.444881 228.668883 
L 128.851106 222.450975 
L 129.25733 224.533309 
L 129.663554 234.564055 
L 130.069779 221.512724 
L 130.476003 226.91236 
L 130.882228 227.831276 
L 131.288452 224.537108 
L 131.694676 232.963068 
L 132.100901 220.944613 
L 132.507125 225.432652 
L 132.91335 233.240029 
L 133.319574 226.745662 
L 133.725799 224.854398 
L 134.132023 226.95771 
L 134.944472 221.607377 
L 135.350696 233.685855 
L 135.756921 222.136273 
L 136.163145 225.943159 
L 136.569369 224.413582 
L 137.381818 225.321569 
L 137.788043 229.811483 
L 138.600491 221.778549 
L 139.006716 224.275999 
L 139.41294 225.545192 
L 139.819165 229.133805 
L 140.225389 220.217783 
L 141.037838 228.197319 
L 141.444062 226.560489 
L 141.850287 222.364433 
L 142.256511 227.746123 
L 142.662735 221.215454 
L 143.06896 223.266008 
L 143.475184 227.800889 
L 143.881409 221.994013 
L 144.287633 228.406812 
L 144.693857 226.625306 
L 145.100082 223.227574 
L 145.506306 224.638569 
L 145.912531 227.083333 
L 146.318755 222.30869 
L 146.72498 227.791231 
L 147.131204 221.309516 
L 147.537428 229.325772 
L 147.943653 222.157671 
L 148.349877 224.639566 
L 148.756102 222.575413 
L 149.162326 230.055852 
L 149.56855 226.963333 
L 149.974775 218.549579 
L 150.380999 231.452367 
L 150.787224 221.972112 
L 151.193448 220.246109 
L 151.599672 225.065382 
L 152.005897 224.997231 
L 152.412121 223.963891 
L 152.818346 223.832607 
L 153.22457 226.959124 
L 153.630794 226.516501 
L 154.037019 221.059731 
L 154.443243 223.072061 
L 154.849468 221.399373 
L 155.255692 223.279992 
L 155.661916 222.921157 
L 156.068141 224.939797 
L 156.474365 233.160928 
L 156.88059 217.893377 
L 157.286814 227.184334 
L 157.693038 222.429268 
L 158.099263 226.548123 
L 158.505487 228.072572 
L 158.911712 220.802375 
L 159.317936 228.592861 
L 159.724161 227.38387 
L 160.130385 223.025006 
L 160.536609 227.370084 
L 160.942834 224.6396 
L 161.755283 222.990766 
L 162.161507 224.483784 
L 162.567731 228.442658 
L 162.973956 222.88277 
L 163.38018 226.954754 
L 163.786405 224.651966 
L 164.192629 225.910435 
L 164.598853 229.26665 
L 165.005078 225.360406 
L 165.411302 222.677765 
L 165.817527 222.469744 
L 166.223751 226.867047 
L 166.629975 222.574883 
L 167.0362 228.401354 
L 167.442424 227.617777 
L 167.848649 228.355823 
L 168.254873 223.998993 
L 168.661097 228.496514 
L 169.067322 221.090653 
L 169.473546 224.349737 
L 169.879771 223.466203 
L 170.285995 227.952147 
L 170.692219 220.105444 
L 171.098444 224.552698 
L 171.504668 223.083798 
L 171.910893 226.253034 
L 172.317117 219.231415 
L 172.723342 229.699032 
L 173.129566 220.577238 
L 173.53579 222.985562 
L 173.942015 222.299905 
L 174.348239 227.618388 
L 175.160688 219.927268 
L 175.973137 226.890709 
L 176.379361 224.026916 
L 176.785586 222.509814 
L 177.19181 222.467047 
L 177.598034 224.980027 
L 178.004259 223.781992 
L 178.816708 224.510041 
L 179.222932 223.960043 
L 179.629156 223.752914 
L 180.441605 227.116894 
L 180.84783 220.748464 
L 181.254054 226.762399 
L 181.660278 230.594338 
L 182.066503 223.141412 
L 182.472727 221.886812 
L 182.878952 222.656031 
L 183.285176 225.440081 
L 183.6914 226.363438 
L 184.097625 221.051409 
L 184.503849 230.390182 
L 185.316298 225.604091 
L 185.722523 221.718851 
L 186.128747 227.342752 
L 186.534971 218.341057 
L 186.941196 224.998867 
L 187.34742 224.644311 
L 187.753645 225.549574 
L 188.159869 224.807824 
L 188.566093 218.212796 
L 188.972318 227.082773 
L 189.378542 226.528008 
L 189.784767 223.627887 
L 190.190991 227.657183 
L 190.597215 226.674331 
L 191.00344 223.558389 
L 191.409664 221.651508 
L 191.815889 222.259028 
L 192.222113 222.455959 
L 192.628337 223.674309 
L 193.034562 227.106842 
L 193.440786 221.702681 
L 193.847011 224.572864 
L 194.253235 223.336455 
L 194.659459 228.125784 
L 195.065684 222.345773 
L 195.471908 224.378454 
L 195.878133 228.542501 
L 196.284357 223.732094 
L 196.690581 225.996635 
L 197.096806 224.826153 
L 197.50303 224.519083 
L 197.909255 225.172208 
L 198.315479 225.219429 
L 198.721704 223.450218 
L 199.127928 227.807222 
L 199.534152 225.262375 
L 199.940377 224.768591 
L 200.346601 230.205258 
L 200.752826 220.390326 
L 201.565274 228.462748 
L 201.971499 224.989319 
L 202.377723 224.234171 
L 202.783948 225.490554 
L 203.190172 220.577189 
L 203.596396 224.029804 
L 204.002621 220.992478 
L 204.408845 225.229622 
L 204.81507 228.103429 
L 205.221294 223.839597 
L 205.627518 226.615439 
L 206.033743 220.170441 
L 206.439967 227.945167 
L 206.846192 223.232113 
L 207.252416 221.029644 
L 207.65864 225.876208 
L 208.064865 221.526885 
L 208.471089 231.545807 
L 208.877314 225.306093 
L 209.283538 225.079724 
L 210.095987 218.678534 
L 210.502211 224.145201 
L 210.908436 225.315008 
L 211.31466 219.714925 
L 211.720885 225.09492 
L 212.127109 223.974964 
L 212.533333 226.323199 
L 212.939558 227.425267 
L 213.345782 224.761155 
L 213.752007 225.368493 
L 214.158231 226.989445 
L 214.564455 227.331029 
L 215.376904 219.886671 
L 215.783129 225.266701 
L 216.595577 221.513891 
L 217.001802 224.865164 
L 217.408026 226.830778 
L 217.814251 227.338047 
L 218.220475 225.573977 
L 218.626699 226.69473 
L 219.032924 222.198695 
L 219.439148 222.83446 
L 219.845373 229.390032 
L 220.251597 219.31909 
L 220.657821 227.524492 
L 221.064046 220.948449 
L 221.47027 218.644372 
L 221.876495 226.451758 
L 222.282719 221.313834 
L 222.688943 223.847484 
L 223.095168 222.956658 
L 223.501392 224.346131 
L 223.907617 224.205779 
L 224.313841 224.648205 
L 224.720066 224.050219 
L 225.12629 224.210554 
L 225.532514 221.528031 
L 226.344963 222.756122 
L 226.751188 224.282443 
L 227.157412 224.535202 
L 227.563636 227.520505 
L 227.969861 217.036868 
L 228.376085 228.129338 
L 228.78231 220.818883 
L 229.188534 228.690465 
L 229.594758 224.614655 
L 230.000983 227.589888 
L 230.407207 225.559158 
L 230.813432 226.916896 
L 231.219656 221.172289 
L 231.62588 225.65828 
L 232.032105 223.139539 
L 232.438329 224.896891 
L 232.844554 217.342551 
L 233.250778 228.526057 
L 233.657002 223.583299 
L 234.063227 227.518687 
L 234.469451 223.760834 
L 234.875676 218.786952 
L 235.2819 227.077346 
L 235.688124 223.389791 
L 236.500573 226.345948 
L 236.906798 222.581452 
L 237.313022 224.927448 
L 237.719247 221.487194 
L 238.125471 223.911754 
L 238.531695 224.706201 
L 238.93792 222.223334 
L 239.344144 225.278389 
L 239.750369 223.874686 
L 240.562817 227.028198 
L 240.969042 223.343385 
L 241.375266 223.739254 
L 241.781491 220.831963 
L 242.187715 229.332228 
L 242.593939 221.98858 
L 243.000164 222.523386 
L 243.406388 226.016243 
L 243.812613 224.926154 
L 244.218837 225.955125 
L 244.625061 224.862954 
L 245.031286 225.203453 
L 245.843735 224.142638 
L 246.249959 225.878156 
L 246.656183 221.269302 
L 247.062408 224.532223 
L 247.468632 223.267734 
L 247.874857 226.882426 
L 248.281081 224.808798 
L 248.687305 225.200487 
L 249.09353 226.781811 
L 249.499754 222.180067 
L 249.905979 220.143561 
L 250.312203 226.836046 
L 250.718428 218.935151 
L 251.124652 226.161705 
L 251.530876 222.697954 
L 251.937101 228.91586 
L 252.343325 220.27509 
L 252.74955 229.151411 
L 253.155774 221.111619 
L 253.968223 229.811191 
L 254.374447 224.110004 
L 254.780672 221.097838 
L 255.186896 227.056843 
L 255.59312 225.259997 
L 255.999345 226.122264 
L 256.405569 222.971307 
L 256.811794 225.089029 
L 257.218018 223.686201 
L 257.624242 227.651138 
L 258.030467 222.184271 
L 258.436691 222.247168 
L 259.24914 228.090897 
L 259.655364 224.173491 
L 260.061589 222.058146 
L 260.467813 224.729261 
L 260.874038 225.600708 
L 261.280262 222.428056 
L 261.686486 221.650848 
L 262.092711 225.886135 
L 262.498935 225.658072 
L 262.90516 219.860553 
L 263.311384 225.365948 
L 263.717609 221.937116 
L 264.123833 222.862688 
L 264.530057 225.08445 
L 264.936282 221.355594 
L 265.748731 225.617535 
L 266.154955 221.996895 
L 266.561179 223.09727 
L 266.967404 227.540874 
L 267.373628 221.735679 
L 267.779853 222.644549 
L 268.592301 228.399293 
L 268.998526 220.017727 
L 269.40475 229.740914 
L 269.810975 229.294329 
L 270.217199 224.219029 
L 270.623423 223.693499 
L 271.029648 219.955695 
L 271.435872 230.080824 
L 271.842097 224.208432 
L 272.248321 222.814966 
L 272.654545 223.466177 
L 273.06077 222.979615 
L 273.466994 225.232368 
L 273.873219 225.298313 
L 274.279443 226.719639 
L 274.685667 225.122186 
L 275.091892 224.429087 
L 275.498116 222.871791 
L 275.904341 226.455727 
L 276.310565 227.004116 
L 276.71679 230.610138 
L 277.123014 223.812028 
L 277.529238 222.906139 
L 277.935463 229.758657 
L 278.341687 224.625901 
L 278.747912 226.1516 
L 279.154136 224.597366 
L 279.56036 224.434545 
L 279.966585 226.993168 
L 280.372809 220.073733 
L 280.779034 227.582404 
L 281.185258 222.191283 
L 281.591482 223.700742 
L 281.997707 226.058521 
L 282.403931 223.677883 
L 282.810156 228.173928 
L 283.622604 223.459895 
L 284.028829 227.935142 
L 284.435053 224.112509 
L 284.841278 223.447592 
L 285.247502 227.141385 
L 286.466175 223.903846 
L 286.8724 224.151892 
L 287.278624 224.228114 
L 287.684848 224.499456 
L 288.091073 227.060057 
L 288.497297 221.336311 
L 288.903522 223.752209 
L 289.309746 226.923866 
L 289.715971 223.967952 
L 290.122195 227.674245 
L 290.528419 223.250317 
L 290.934644 230.257167 
L 291.340868 222.835775 
L 291.747093 224.057237 
L 292.153317 226.797276 
L 292.559541 221.517517 
L 292.965766 223.409668 
L 293.37199 220.791776 
L 293.778215 221.066863 
L 294.184439 230.733185 
L 294.590663 223.92239 
L 294.996888 225.710014 
L 295.403112 223.992086 
L 295.809337 228.312097 
L 296.215561 220.452869 
L 296.621785 224.697997 
L 297.02801 225.591469 
L 297.434234 222.435942 
L 297.840459 223.850473 
L 298.246683 226.692156 
L 298.652907 222.647788 
L 299.059132 224.180144 
L 299.465356 225.23812 
L 299.871581 227.972293 
L 300.277805 216.967001 
L 300.684029 230.194507 
L 301.090254 223.706827 
L 301.496478 222.846651 
L 301.902703 228.662707 
L 302.308927 224.995079 
L 302.715152 224.910959 
L 303.121376 225.35389 
L 303.5276 223.562488 
L 304.340049 228.942991 
L 304.746274 225.137301 
L 305.152498 227.459933 
L 305.558722 222.033781 
L 305.964947 225.943408 
L 306.371171 225.842546 
L 306.777396 224.385454 
L 307.18362 224.011499 
L 307.589844 224.852206 
L 307.996069 224.737759 
L 308.402293 228.646939 
L 308.808518 219.290963 
L 309.214742 224.521612 
L 309.620966 227.828456 
L 310.027191 222.601895 
L 310.433415 222.580508 
L 310.83964 226.831098 
L 311.245864 221.586232 
L 311.652088 224.775987 
L 312.058313 229.22242 
L 312.464537 224.055233 
L 312.870762 223.004943 
L 313.68321 227.887517 
L 314.089435 222.44666 
L 314.495659 227.565777 
L 314.901884 221.748404 
L 315.308108 221.23657 
L 315.714333 228.042331 
L 316.120557 223.623154 
L 316.526781 225.825997 
L 316.933006 221.605361 
L 317.33923 229.850932 
L 317.745455 222.636295 
L 318.151679 223.544814 
L 318.557903 229.571699 
L 318.964128 223.082502 
L 319.370352 225.99195 
L 319.776577 222.897797 
L 320.589025 228.941373 
L 320.99525 224.449243 
L 321.401474 221.957574 
L 321.807699 227.649878 
L 322.213923 227.122332 
L 322.620147 222.570869 
L 323.026372 227.062083 
L 323.432596 226.863731 
L 323.838821 222.500598 
L 324.245045 225.892572 
L 324.651269 226.618266 
L 325.057494 228.6245 
L 325.463718 218.925816 
L 325.869943 228.074448 
L 326.276167 226.915358 
L 326.682391 225.018802 
L 327.088616 226.604282 
L 327.49484 225.621869 
L 327.901065 222.727464 
L 328.713514 228.728988 
L 329.119738 226.528517 
L 329.525962 225.189571 
L 329.932187 228.451653 
L 330.338411 224.758608 
L 330.744636 225.23929 
L 331.15086 228.544385 
L 331.557084 226.139813 
L 331.963309 224.623405 
L 332.369533 227.180718 
L 332.775758 222.847411 
L 333.588206 224.666457 
L 334.400655 220.075347 
L 334.80688 222.490658 
L 335.213104 219.394014 
L 335.619328 226.96415 
L 336.025553 225.5257 
L 336.431777 222.504963 
L 336.838002 227.849068 
L 337.244226 223.229505 
L 337.65045 224.303808 
L 338.056675 228.136 
L 338.869124 224.590026 
L 339.681572 227.392367 
L 340.087797 222.226246 
L 340.900246 225.581188 
L 341.30647 230.377124 
L 341.712695 220.166089 
L 342.118919 228.081521 
L 342.525143 222.682102 
L 342.931368 225.548113 
L 343.337592 227.330876 
L 343.743817 219.595919 
L 344.556265 227.736308 
L 344.96249 225.567172 
L 345.368714 222.575964 
L 345.774939 223.97163 
L 346.181163 224.013304 
L 346.587387 223.280408 
L 346.993612 232.608798 
L 347.399836 223.828808 
L 347.806061 219.284809 
L 348.212285 226.874962 
L 348.618509 224.80894 
L 349.024734 225.11119 
L 349.430958 222.617059 
L 349.837183 225.39456 
L 350.649631 219.759804 
L 351.055856 232.349177 
L 351.46208 222.496921 
L 351.868305 225.860895 
L 352.274529 225.16252 
L 352.680753 226.541525 
L 353.086978 226.359934 
L 353.493202 229.980393 
L 353.899427 223.381128 
L 354.305651 234.374968 
L 354.711876 215.383543 
L 355.1181 226.172288 
L 355.524324 224.514702 
L 356.336773 228.366429 
L 356.742998 226.82112 
L 357.149222 226.229971 
L 357.555446 224.438205 
L 357.961671 222.031855 
L 358.367895 222.388604 
L 358.77412 234.571096 
L 359.180344 226.030218 
L 359.586568 221.706189 
L 359.992793 226.1762 
L 360.399017 222.855337 
L 361.211466 227.503166 
L 361.61769 225.584473 
L 362.023915 229.591758 
L 362.430139 223.973752 
L 362.836364 228.024586 
L 363.242588 224.331536 
L 363.648812 227.203445 
L 364.055037 226.355907 
L 364.461261 223.881634 
L 364.867486 225.946455 
L 365.27371 225.979151 
L 365.679934 223.132531 
L 366.086159 228.982252 
L 366.898608 223.261461 
L 367.304832 226.349116 
L 367.711057 224.637744 
L 368.117281 223.615065 
L 368.523505 224.553465 
L 368.92973 228.262031 
L 369.335954 221.462558 
L 369.742179 230.000303 
L 370.148403 225.665961 
L 370.554627 224.303788 
L 370.960852 224.590549 
L 371.367076 225.70251 
L 371.773301 227.691821 
L 372.179525 224.683532 
L 372.585749 228.01855 
L 372.991974 221.232081 
L 373.804423 229.442036 
L 374.210647 223.083218 
L 374.616871 229.482833 
L 375.023096 228.401641 
L 375.42932 228.064144 
L 376.241769 224.417629 
L 376.647993 224.158523 
L 377.054218 223.719977 
L 377.460442 232.79987 
L 377.866667 223.092705 
L 378.272891 225.328666 
L 378.679115 229.474288 
L 379.08534 222.842718 
L 379.491564 225.309075 
L 379.897789 221.266536 
L 380.304013 227.39359 
L 380.710238 220.765097 
L 381.116462 222.954331 
L 381.928911 232.775589 
L 382.335135 225.114026 
L 382.74136 226.522389 
L 383.147584 230.914587 
L 383.553808 224.626237 
L 383.960033 224.601292 
L 384.366257 225.372279 
L 384.772482 225.302441 
L 385.178706 226.498088 
L 385.58493 225.344619 
L 385.991155 233.638738 
L 386.397379 223.819765 
L 386.803604 224.130439 
L 387.209828 228.255029 
L 387.616052 224.317945 
L 388.022277 229.367113 
L 388.428501 225.222741 
L 389.24095 226.898877 
L 389.647174 230.118405 
L 390.053399 223.244649 
L 390.459623 233.277272 
L 390.865848 225.772721 
L 391.272072 226.331612 
L 391.678296 224.961705 
L 392.084521 226.325969 
L 392.490745 226.747057 
L 392.89697 226.607647 
L 393.303194 227.073619 
L 393.709419 225.777045 
L 394.115643 226.184949 
L 394.521867 228.817766 
L 394.928092 228.823536 
L 395.334316 227.736033 
L 395.740541 223.02194 
L 396.146765 227.029516 
L 396.552989 226.080153 
L 396.959214 222.136092 
L 397.365438 227.231461 
L 397.771663 225.626097 
L 398.177887 230.040906 
L 398.584111 219.416837 
L 398.990336 228.244197 
L 399.39656 226.933136 
L 399.802785 224.35077 
L 400.209009 228.592388 
L 400.615233 226.101759 
L 401.021458 222.347279 
L 401.427682 226.567389 
L 401.833907 223.695106 
L 402.240131 226.820013 
L 402.646355 232.855679 
L 403.05258 219.328893 
L 403.458804 229.473716 
L 403.865029 230.516358 
L 404.271253 229.376738 
L 404.677477 225.836356 
L 405.083702 227.118807 
L 405.489926 226.89402 
L 405.896151 226.091048 
L 406.302375 229.155014 
L 406.7086 226.724551 
L 407.114824 227.996985 
L 407.521048 225.48417 
L 407.927273 229.523842 
L 408.333497 235.426306 
L 408.739722 228.551342 
L 409.145946 226.383384 
L 409.55217 229.982155 
L 409.958395 239.937213 
L 410.364619 221.407109 
L 410.770844 229.147331 
L 411.177068 228.473185 
L 411.583292 226.427033 
L 411.989517 230.287209 
L 412.395741 231.371319 
L 412.801966 227.620777 
L 413.20819 225.233484 
L 413.614414 227.648513 
L 414.020639 230.7989 
L 414.426863 230.3919 
L 414.833088 225.94376 
L 415.239312 224.363514 
L 415.645536 234.239107 
L 416.051761 230.573707 
L 416.457985 229.420026 
L 416.86421 238.611342 
L 417.270434 322.541711 
L 498.109091 322.541711 
L 498.109091 322.541711 
" style="fill:none;stroke:#008000;stroke-linecap:square;stroke-width:1.5;"/>
   </g>
   <g id="patch_3">
    <path d="M 72 384.48 
L 72 51.84 
" style="fill:none;stroke:#000000;stroke-linecap:square;stroke-linejoin:miter;stroke-width:0.8;"/>
   </g>
   <g id="patch_4">
    <path d="M 518.4 384.48 
L 518.4 51.84 
" style="fill:none;stroke:#000000;stroke-linecap:square;stroke-linejoin:miter;stroke-width:0.8;"/>
   </g>
   <g id="patch_5">
    <path d="M 72 384.48 
L 518.4 384.48 
" style="fill:none;stroke:#000000;stroke-linecap:square;stroke-linejoin:miter;stroke-width:0.8;"/>
   </g>
   <g id="patch_6">
    <path d="M 72 51.84 
L 518.4 51.84 
" style="fill:none;stroke:#000000;stroke-linecap:square;stroke-linejoin:miter;stroke-width:0.8;"/>
   </g>
   <g id="legend_1">
    <g id="patch_7">
     <path d="M 79 86.418125 
L 156 86.418125 
Q 158 86.418125 158 84.418125 
L 158 58.84 
Q 158 56.84 156 56.84 
L 79 56.84 
Q 77 56.84 77 58.84 
L 77 84.418125 
Q 77 86.418125 79 86.418125 
z
" style="fill:#ffffff;opacity:0.8;stroke:#cccccc;stroke-linejoin:miter;"/>
    </g>
    <g id="line2d_15">
     <path d="M 81 64.34 
L 101 64.34 
" style="fill:none;stroke:#0000ff;stroke-linecap:square;stroke-width:1.5;"/>
    </g>
    <g id="line2d_16"/>
    <g id="text_15">
     <!-- precision -->
     <g transform="translate(109 67.84)scale(0.1 -0.1)">
      <defs>
       <path d="M 28.515625 57.8125 
L 20.703125 57.8125 
L 20.703125 67.96875 
L 28.515625 67.96875 
z
M 28.515625 1.5625 
L 20.703125 1.5625 
L 20.703125 45.3125 
L 28.515625 45.3125 
z
" id="SimHei-105"/>
       <path d="M 43.359375 13.671875 
Q 43.359375 7.421875 38.46875 4.09375 
Q 33.59375 0.78125 26.171875 0.78125 
Q 16.796875 0.78125 11.71875 4.484375 
Q 6.640625 8.203125 6.640625 15.234375 
L 14.453125 15.234375 
Q 14.453125 10.546875 17.765625 8.984375 
Q 21.09375 7.421875 25.78125 7.421875 
Q 30.46875 7.421875 32.8125 9.171875 
Q 35.15625 10.9375 35.15625 13.671875 
Q 35.15625 15.625 33.203125 17.578125 
Q 31.25 19.53125 23.4375 20.703125 
Q 14.453125 21.875 11.125 25.1875 
Q 7.8125 28.515625 7.8125 33.984375 
Q 7.8125 38.671875 12.296875 42.375 
Q 16.796875 46.09375 25.390625 46.09375 
Q 33.203125 46.09375 37.6875 42.578125 
Q 42.1875 39.0625 42.1875 33.203125 
L 34.375 33.203125 
Q 34.375 36.71875 31.828125 38.078125 
Q 29.296875 39.453125 25.390625 39.453125 
Q 20.3125 39.453125 18.15625 37.6875 
Q 16.015625 35.9375 16.015625 33.59375 
Q 16.015625 30.859375 17.96875 29.296875 
Q 19.921875 27.734375 26.171875 26.953125 
Q 36.328125 25.390625 39.84375 22.0625 
Q 43.359375 18.75 43.359375 13.671875 
z
" id="SimHei-115"/>
       <path d="M 44.140625 1.5625 
L 36.328125 1.5625 
L 36.328125 29.6875 
Q 36.328125 34.375 33.984375 37.109375 
Q 31.640625 39.84375 27.734375 39.84375 
Q 22.65625 39.84375 18.15625 34.5625 
Q 13.671875 29.296875 13.671875 21.484375 
L 13.671875 1.5625 
L 5.859375 1.5625 
L 5.859375 45.3125 
L 13.671875 45.3125 
L 13.671875 37.109375 
Q 16.796875 41.40625 20.5 43.75 
Q 24.21875 46.09375 30.078125 46.09375 
Q 37.109375 46.09375 40.625 42.1875 
Q 44.140625 38.28125 44.140625 32.421875 
z
" id="SimHei-110"/>
      </defs>
      <use xlink:href="#SimHei-112"/>
      <use x="50" xlink:href="#SimHei-114"/>
      <use x="100" xlink:href="#SimHei-101"/>
      <use x="150" xlink:href="#SimHei-99"/>
      <use x="200" xlink:href="#SimHei-105"/>
      <use x="250" xlink:href="#SimHei-115"/>
      <use x="300" xlink:href="#SimHei-105"/>
      <use x="350" xlink:href="#SimHei-111"/>
      <use x="400" xlink:href="#SimHei-110"/>
     </g>
    </g>
    <g id="line2d_17">
     <path d="M 81 77.629062 
L 101 77.629062 
" style="fill:none;stroke:#008000;stroke-linecap:square;stroke-width:1.5;"/>
    </g>
    <g id="line2d_18"/>
    <g id="text_16">
     <!-- recall -->
     <g transform="translate(109 81.129062)scale(0.1 -0.1)">
      <defs>
       <path d="M 28.90625 1.5625 
L 21.09375 1.5625 
L 21.09375 68.359375 
L 28.90625 68.359375 
z
" id="SimHei-108"/>
      </defs>
      <use xlink:href="#SimHei-114"/>
      <use x="50" xlink:href="#SimHei-101"/>
      <use x="100" xlink:href="#SimHei-99"/>
      <use x="150" xlink:href="#SimHei-97"/>
      <use x="200" xlink:href="#SimHei-108"/>
      <use x="250" xlink:href="#SimHei-108"/>
     </g>
    </g>
   </g>
  </g>
  <g id="axes_2">
   <g id="matplotlib.axis_3">
    <g id="ytick_7">
     <g id="line2d_19">
      <defs>
       <path d="M 0 0 
L 3.5 0 
" id="mefc7725b53" style="stroke:#000000;stroke-width:0.8;"/>
      </defs>
      <g>
       <use style="stroke:#000000;stroke-width:0.8;" x="518.4" xlink:href="#mefc7725b53" y="370.277491"/>
      </g>
     </g>
     <g id="text_17">
      <!-- 0 -->
      <g transform="translate(525.4 373.69546)scale(0.1 -0.1)">
       <use xlink:href="#SimHei-48"/>
      </g>
     </g>
    </g>
    <g id="ytick_8">
     <g id="line2d_20">
      <g>
       <use style="stroke:#000000;stroke-width:0.8;" x="518.4" xlink:href="#mefc7725b53" y="302.813327"/>
      </g>
     </g>
     <g id="text_18">
      <!-- 50 -->
      <g transform="translate(525.4 306.231296)scale(0.1 -0.1)">
       <defs>
        <path d="M 44.140625 25.78125 
Q 44.140625 14.0625 38.46875 7.421875 
Q 32.8125 0.78125 23.4375 0.78125 
Q 15.234375 0.78125 9.953125 6.25 
Q 4.6875 11.71875 4.296875 21.09375 
L 13.28125 21.09375 
Q 13.28125 15.234375 16.015625 11.71875 
Q 18.75 8.203125 23.828125 8.203125 
Q 28.90625 8.203125 31.828125 12.5 
Q 34.765625 16.796875 34.765625 25.78125 
Q 34.765625 33.59375 32.21875 37.296875 
Q 29.6875 41.015625 25.390625 41.015625 
Q 21.875 41.015625 19.328125 39.453125 
Q 16.796875 37.890625 14.453125 33.984375 
L 6.640625 33.984375 
L 8.984375 68.359375 
L 42.578125 68.359375 
L 42.578125 60.9375 
L 16.40625 60.9375 
L 14.84375 42.96875 
Q 17.1875 45.3125 19.921875 46.484375 
Q 22.65625 47.65625 27.34375 47.65625 
Q 34.765625 47.65625 39.453125 41.984375 
Q 44.140625 36.328125 44.140625 25.78125 
z
" id="SimHei-53"/>
       </defs>
       <use xlink:href="#SimHei-53"/>
       <use x="50" xlink:href="#SimHei-48"/>
      </g>
     </g>
    </g>
    <g id="ytick_9">
     <g id="line2d_21">
      <g>
       <use style="stroke:#000000;stroke-width:0.8;" x="518.4" xlink:href="#mefc7725b53" y="235.349163"/>
      </g>
     </g>
     <g id="text_19">
      <!-- 100 -->
      <g transform="translate(525.4 238.767132)scale(0.1 -0.1)">
       <use xlink:href="#SimHei-49"/>
       <use x="50" xlink:href="#SimHei-48"/>
       <use x="100" xlink:href="#SimHei-48"/>
      </g>
     </g>
    </g>
    <g id="ytick_10">
     <g id="line2d_22">
      <g>
       <use style="stroke:#000000;stroke-width:0.8;" x="518.4" xlink:href="#mefc7725b53" y="167.884999"/>
      </g>
     </g>
     <g id="text_20">
      <!-- 150 -->
      <g transform="translate(525.4 171.302968)scale(0.1 -0.1)">
       <use xlink:href="#SimHei-49"/>
       <use x="50" xlink:href="#SimHei-53"/>
       <use x="100" xlink:href="#SimHei-48"/>
      </g>
     </g>
    </g>
    <g id="ytick_11">
     <g id="line2d_23">
      <g>
       <use style="stroke:#000000;stroke-width:0.8;" x="518.4" xlink:href="#mefc7725b53" y="100.420835"/>
      </g>
     </g>
     <g id="text_21">
      <!-- 200 -->
      <g transform="translate(525.4 103.838804)scale(0.1 -0.1)">
       <use xlink:href="#SimHei-50"/>
       <use x="50" xlink:href="#SimHei-48"/>
       <use x="100" xlink:href="#SimHei-48"/>
      </g>
     </g>
    </g>
    <g id="text_22">
     <!-- loss -->
     <g transform="translate(551.235937 228.16)rotate(-90)scale(0.1 -0.1)">
      <use xlink:href="#SimHei-108"/>
      <use x="50" xlink:href="#SimHei-111"/>
      <use x="100" xlink:href="#SimHei-115"/>
      <use x="150" xlink:href="#SimHei-115"/>
     </g>
    </g>
   </g>
   <g id="line2d_24">
    <path clip-path="url(#p44ada3b2df)" d="M 92.290909 66.96 
L 92.697133 357.94074 
L 93.103358 365.993896 
L 94.728256 366.178647 
L 95.13448 366.097901 
L 95.540704 366.200269 
L 95.946929 366.091573 
L 96.353153 366.734922 
L 97.165602 366.880012 
L 97.978051 366.893597 
L 98.384275 366.773271 
L 99.602948 366.801136 
L 100.821622 367.198379 
L 101.63407 367.095132 
L 102.040295 367.234487 
L 103.665192 367.118833 
L 104.071417 367.121946 
L 104.477641 367.368167 
L 106.508763 367.499169 
L 107.321212 367.437351 
L 108.133661 367.488631 
L 110.571007 367.242839 
L 110.977232 367.340751 
L 111.383456 367.26529 
L 112.195905 367.322208 
L 113.008354 367.214424 
L 113.820803 367.32278 
L 115.851925 367.244167 
L 117.070598 367.478116 
L 117.883047 367.339929 
L 118.695495 367.446501 
L 119.10172 367.279478 
L 119.507944 367.403238 
L 120.320393 367.392948 
L 121.132842 367.652971 
L 121.539066 367.545218 
L 123.570188 367.630317 
L 126.413759 367.279984 
L 127.226208 367.384437 
L 127.632432 367.186343 
L 128.444881 367.3973 
L 130.882228 367.425365 
L 131.694676 367.336007 
L 132.91335 367.438401 
L 133.319574 368.126218 
L 134.132023 368.223381 
L 136.569369 368.254606 
L 136.975594 368.163206 
L 138.194267 368.198205 
L 140.631613 368.32831 
L 141.037838 368.457534 
L 143.06896 368.452347 
L 143.881409 368.506074 
L 146.318755 368.586259 
L 148.756102 368.635893 
L 154.849468 368.830914 
L 227.157412 369.262784 
L 260.874038 369.309348 
L 346.993612 369.338225 
L 498.109091 369.36 
L 498.109091 369.36 
" style="fill:none;stroke:#ff0000;stroke-linecap:square;stroke-width:1.5;"/>
   </g>
   <g id="patch_8">
    <path d="M 72 384.48 
L 72 51.84 
" style="fill:none;stroke:#000000;stroke-linecap:square;stroke-linejoin:miter;stroke-width:0.8;"/>
   </g>
   <g id="patch_9">
    <path d="M 518.4 384.48 
L 518.4 51.84 
" style="fill:none;stroke:#000000;stroke-linecap:square;stroke-linejoin:miter;stroke-width:0.8;"/>
   </g>
   <g id="patch_10">
    <path d="M 72 384.48 
L 518.4 384.48 
" style="fill:none;stroke:#000000;stroke-linecap:square;stroke-linejoin:miter;stroke-width:0.8;"/>
   </g>
   <g id="patch_11">
    <path d="M 72 51.84 
L 518.4 51.84 
" style="fill:none;stroke:#000000;stroke-linecap:square;stroke-linejoin:miter;stroke-width:0.8;"/>
   </g>
   <g id="text_23">
    <!-- The learning curve on 8clients_iid/host/6 -->
    <g transform="translate(172.2 45.84)scale(0.12 -0.12)">
     <defs>
      <path d="M 44.921875 60.9375 
L 29.296875 60.9375 
L 29.296875 1.5625 
L 20.3125 1.5625 
L 20.3125 60.9375 
L 4.6875 60.9375 
L 4.6875 68.359375 
L 44.921875 68.359375 
z
" id="SimHei-84"/>
      <path id="SimHei-32"/>
      <path d="M 46.875 38.671875 
Q 44.140625 39.453125 41.59375 39.640625 
Q 39.0625 39.84375 36.328125 39.0625 
Q 37.5 37.890625 38.28125 36.125 
Q 39.0625 34.375 39.0625 30.859375 
Q 39.0625 24.21875 34.5625 19.921875 
Q 30.078125 15.625 23.4375 15.625 
Q 21.875 15.625 19.328125 16.203125 
Q 16.796875 16.796875 15.234375 17.578125 
Q 14.0625 16.796875 13.671875 16.015625 
Q 13.28125 15.234375 13.28125 14.0625 
Q 13.28125 12.109375 16.015625 11.125 
Q 18.75 10.15625 25.78125 10.15625 
Q 37.109375 10.15625 41.203125 7.03125 
Q 45.3125 3.90625 45.3125 -0.78125 
Q 45.3125 -7.03125 39.25 -9.953125 
Q 33.203125 -12.890625 25 -12.890625 
Q 14.453125 -12.890625 9.375 -10.15625 
Q 4.296875 -7.421875 4.296875 -2.734375 
Q 4.296875 -0.390625 6.25 1.953125 
Q 8.203125 4.296875 11.328125 5.859375 
Q 8.984375 7.03125 7.609375 8.78125 
Q 6.25 10.546875 6.25 13.28125 
Q 6.25 15.625 8 17.375 
Q 9.765625 19.140625 12.109375 20.3125 
Q 10.15625 22.265625 8.984375 25 
Q 7.8125 27.734375 7.8125 30.859375 
Q 7.8125 37.5 12.296875 41.796875 
Q 16.796875 46.09375 23.4375 46.09375 
Q 26.953125 46.09375 29.484375 45.109375 
Q 32.03125 44.140625 33.984375 42.1875 
Q 37.109375 44.53125 40.234375 45.5 
Q 43.359375 46.484375 46.875 46.09375 
z
M 31.25 30.859375 
Q 31.25 34.765625 29.296875 37.109375 
Q 27.34375 39.453125 23.4375 39.453125 
Q 19.53125 39.453125 17.578125 37.109375 
Q 15.625 34.765625 15.625 30.859375 
Q 15.625 26.953125 17.578125 24.609375 
Q 19.53125 22.265625 23.4375 22.265625 
Q 27.34375 22.265625 29.296875 24.609375 
Q 31.25 26.953125 31.25 30.859375 
z
M 37.890625 -1.5625 
Q 37.890625 0 36.125 1.5625 
Q 34.375 3.125 27.34375 3.125 
Q 25.78125 3.125 23.046875 3.3125 
Q 20.3125 3.515625 16.796875 3.90625 
Q 13.671875 2.734375 12.5 1.171875 
Q 11.328125 -0.390625 11.328125 -1.953125 
Q 11.328125 -4.296875 14.453125 -5.859375 
Q 17.578125 -7.421875 25.390625 -7.421875 
Q 32.03125 -7.421875 34.953125 -5.65625 
Q 37.890625 -3.90625 37.890625 -1.5625 
z
" id="SimHei-103"/>
      <path d="M 44.140625 1.5625 
L 36.328125 1.5625 
L 36.328125 9.765625 
Q 33.203125 5.46875 29.484375 3.125 
Q 25.78125 0.78125 19.921875 0.78125 
Q 12.890625 0.78125 9.375 4.6875 
Q 5.859375 8.59375 5.859375 14.453125 
L 5.859375 45.3125 
L 13.671875 45.3125 
L 13.671875 17.1875 
Q 13.671875 12.5 16.015625 9.765625 
Q 18.359375 7.03125 22.265625 7.03125 
Q 27.34375 7.03125 31.828125 12.296875 
Q 36.328125 17.578125 36.328125 25.390625 
L 36.328125 45.3125 
L 44.140625 45.3125 
z
" id="SimHei-117"/>
      <path d="M 45.3125 45.3125 
L 28.90625 0.78125 
L 20.3125 0.78125 
L 3.90625 45.3125 
L 12.109375 45.3125 
L 24.21875 11.328125 
L 25 11.328125 
L 37.109375 45.3125 
z
" id="SimHei-118"/>
      <path d="M 49.609375 -13.671875 
L 0 -13.671875 
L 0 -8.984375 
L 49.609375 -8.984375 
z
" id="SimHei-95"/>
      <path d="M 43.359375 1.5625 
L 35.546875 1.5625 
L 35.546875 7.421875 
Q 33.203125 3.90625 30.078125 2.34375 
Q 26.953125 0.78125 22.65625 0.78125 
Q 14.84375 0.78125 9.375 6.4375 
Q 3.90625 12.109375 3.90625 23.4375 
Q 3.90625 34.765625 9.375 40.625 
Q 14.84375 46.484375 22.65625 46.484375 
Q 26.953125 46.484375 30.078125 44.71875 
Q 33.203125 42.96875 35.546875 39.453125 
L 35.546875 68.359375 
L 43.359375 68.359375 
z
M 35.546875 23.4375 
Q 35.546875 30.859375 32.21875 35.15625 
Q 28.90625 39.453125 24.21875 39.453125 
Q 18.359375 39.453125 15.421875 35.15625 
Q 12.5 30.859375 12.5 23.4375 
Q 12.5 16.015625 15.421875 11.90625 
Q 18.359375 7.8125 24.21875 7.8125 
Q 28.90625 7.8125 32.21875 11.90625 
Q 35.546875 16.015625 35.546875 23.4375 
z
" id="SimHei-100"/>
      <path d="M 47.265625 70.703125 
L 5.859375 -3.125 
L 1.953125 -0.78125 
L 43.359375 73.046875 
z
" id="SimHei-47"/>
     </defs>
     <use xlink:href="#SimHei-84"/>
     <use x="50" xlink:href="#SimHei-104"/>
     <use x="100" xlink:href="#SimHei-101"/>
     <use x="150" xlink:href="#SimHei-32"/>
     <use x="200" xlink:href="#SimHei-108"/>
     <use x="250" xlink:href="#SimHei-101"/>
     <use x="300" xlink:href="#SimHei-97"/>
     <use x="350" xlink:href="#SimHei-114"/>
     <use x="400" xlink:href="#SimHei-110"/>
     <use x="450" xlink:href="#SimHei-105"/>
     <use x="500" xlink:href="#SimHei-110"/>
     <use x="550" xlink:href="#SimHei-103"/>
     <use x="600" xlink:href="#SimHei-32"/>
     <use x="650" xlink:href="#SimHei-99"/>
     <use x="700" xlink:href="#SimHei-117"/>
     <use x="750" xlink:href="#SimHei-114"/>
     <use x="800" xlink:href="#SimHei-118"/>
     <use x="850" xlink:href="#SimHei-101"/>
     <use x="900" xlink:href="#SimHei-32"/>
     <use x="950" xlink:href="#SimHei-111"/>
     <use x="1000" xlink:href="#SimHei-110"/>
     <use x="1050" xlink:href="#SimHei-32"/>
     <use x="1100" xlink:href="#SimHei-56"/>
     <use x="1150" xlink:href="#SimHei-99"/>
     <use x="1200" xlink:href="#SimHei-108"/>
     <use x="1250" xlink:href="#SimHei-105"/>
     <use x="1300" xlink:href="#SimHei-101"/>
     <use x="1350" xlink:href="#SimHei-110"/>
     <use x="1400" xlink:href="#SimHei-116"/>
     <use x="1450" xlink:href="#SimHei-115"/>
     <use x="1500" xlink:href="#SimHei-95"/>
     <use x="1550" xlink:href="#SimHei-105"/>
     <use x="1600" xlink:href="#SimHei-105"/>
     <use x="1650" xlink:href="#SimHei-100"/>
     <use x="1700" xlink:href="#SimHei-47"/>
     <use x="1750" xlink:href="#SimHei-104"/>
     <use x="1800" xlink:href="#SimHei-111"/>
     <use x="1850" xlink:href="#SimHei-115"/>
     <use x="1900" xlink:href="#SimHei-116"/>
     <use x="1950" xlink:href="#SimHei-47"/>
     <use x="2000" xlink:href="#SimHei-54"/>
    </g>
   </g>
   <g id="legend_2">
    <g id="patch_12">
     <path d="M 459.4 73.129062 
L 511.4 73.129062 
Q 513.4 73.129062 513.4 71.129062 
L 513.4 58.84 
Q 513.4 56.84 511.4 56.84 
L 459.4 56.84 
Q 457.4 56.84 457.4 58.84 
L 457.4 71.129062 
Q 457.4 73.129062 459.4 73.129062 
z
" style="fill:#ffffff;opacity:0.8;stroke:#cccccc;stroke-linejoin:miter;"/>
    </g>
    <g id="line2d_25">
     <path d="M 461.4 64.34 
L 481.4 64.34 
" style="fill:none;stroke:#ff0000;stroke-linecap:square;stroke-width:1.5;"/>
    </g>
    <g id="line2d_26"/>
    <g id="text_24">
     <!-- loss -->
     <g transform="translate(489.4 67.84)scale(0.1 -0.1)">
      <use xlink:href="#SimHei-108"/>
      <use x="50" xlink:href="#SimHei-111"/>
      <use x="100" xlink:href="#SimHei-115"/>
      <use x="150" xlink:href="#SimHei-115"/>
     </g>
    </g>
   </g>
  </g>
 </g>
 <defs>
  <clipPath id="p44ada3b2df">
   <rect height="332.64" width="446.4" x="72" y="51.84"/>
  </clipPath>
 </defs>
</svg>
