<?xml version="1.0" encoding="utf-8" standalone="no"?>
<!DOCTYPE svg PUBLIC "-//W3C//DTD SVG 1.1//EN"
  "http://www.w3.org/Graphics/SVG/1.1/DTD/svg11.dtd">
<!-- Created with matplotlib (https://matplotlib.org/) -->
<svg height="432pt" version="1.1" viewBox="0 0 576 432" width="576pt" xmlns="http://www.w3.org/2000/svg" xmlns:xlink="http://www.w3.org/1999/xlink">
 <metadata>
  <rdf:RDF xmlns:cc="http://creativecommons.org/ns#" xmlns:dc="http://purl.org/dc/elements/1.1/" xmlns:rdf="http://www.w3.org/1999/02/22-rdf-syntax-ns#">
   <cc:Work>
    <dc:type rdf:resource="http://purl.org/dc/dcmitype/StillImage"/>
    <dc:date>2023-03-28T10:09:01.569859</dc:date>
    <dc:format>image/svg+xml</dc:format>
    <dc:creator>
     <cc:Agent>
      <dc:title>Matplotlib v3.3.4, https://matplotlib.org/</dc:title>
     </cc:Agent>
    </dc:creator>
   </cc:Work>
  </rdf:RDF>
 </metadata>
 <defs>
  <style type="text/css">*{stroke-linecap:butt;stroke-linejoin:round;}</style>
 </defs>
 <g id="figure_1">
  <g id="patch_1">
   <path d="M 0 432 
L 576 432 
L 576 0 
L 0 0 
z
" style="fill:#ffffff;"/>
  </g>
  <g id="axes_1">
   <g id="patch_2">
    <path d="M 72 384.48 
L 518.4 384.48 
L 518.4 51.84 
L 72 51.84 
z
" style="fill:#ffffff;"/>
   </g>
   <g id="matplotlib.axis_1">
    <g id="xtick_1">
     <g id="line2d_1">
      <defs>
       <path d="M 0 0 
L 0 3.5 
" id="m94f15062a6" style="stroke:#000000;stroke-width:0.8;"/>
      </defs>
      <g>
       <use style="stroke:#000000;stroke-width:0.8;" x="92.290909" xlink:href="#m94f15062a6" y="384.48"/>
      </g>
     </g>
     <g id="text_1">
      <!-- 0 -->
      <g transform="translate(89.790909 398.315938)scale(0.1 -0.1)">
       <defs>
        <path d="M 46.484375 35.15625 
Q 46.484375 21.09375 41.40625 10.9375 
Q 36.328125 0.78125 25 0.78125 
Q 13.671875 0.78125 8.390625 10.9375 
Q 3.125 21.09375 3.125 35.15625 
Q 3.125 49.21875 8.390625 59.171875 
Q 13.671875 69.140625 25 69.140625 
Q 36.328125 69.140625 41.40625 59.171875 
Q 46.484375 49.21875 46.484375 35.15625 
z
M 37.109375 35.15625 
Q 37.109375 47.65625 34.171875 54.6875 
Q 31.25 61.71875 25 61.71875 
Q 18.75 61.71875 15.625 54.6875 
Q 12.5 47.65625 12.5 35.15625 
Q 12.5 22.65625 15.625 15.421875 
Q 18.75 8.203125 25 8.203125 
Q 31.25 8.203125 34.171875 15.421875 
Q 37.109375 22.65625 37.109375 35.15625 
z
" id="SimHei-48"/>
       </defs>
       <use xlink:href="#SimHei-48"/>
      </g>
     </g>
    </g>
    <g id="xtick_2">
     <g id="line2d_2">
      <g>
       <use style="stroke:#000000;stroke-width:0.8;" x="173.53579" xlink:href="#m94f15062a6" y="384.48"/>
      </g>
     </g>
     <g id="text_2">
      <!-- 200 -->
      <g transform="translate(166.03579 398.315938)scale(0.1 -0.1)">
       <defs>
        <path d="M 44.53125 1.5625 
L 4.6875 1.5625 
L 4.6875 7.8125 
Q 7.03125 14.0625 11.125 19.328125 
Q 15.234375 24.609375 23.046875 31.25 
Q 28.90625 36.328125 31.4375 40.625 
Q 33.984375 44.921875 33.984375 50 
Q 33.984375 55.078125 31.828125 58.390625 
Q 29.6875 61.71875 25 61.71875 
Q 21.09375 61.71875 18.15625 58.203125 
Q 15.234375 54.6875 15.234375 45.703125 
L 6.25 45.703125 
Q 6.640625 57.03125 11.515625 63.078125 
Q 16.40625 69.140625 25.390625 69.140625 
Q 33.984375 69.140625 38.671875 63.859375 
Q 43.359375 58.59375 43.359375 49.609375 
Q 43.359375 42.1875 39.0625 36.71875 
Q 34.765625 31.25 28.515625 25.78125 
Q 21.484375 19.53125 18.75 16.40625 
Q 16.015625 13.28125 13.671875 8.984375 
L 44.53125 8.984375 
z
" id="SimHei-50"/>
       </defs>
       <use xlink:href="#SimHei-50"/>
       <use x="50" xlink:href="#SimHei-48"/>
       <use x="100" xlink:href="#SimHei-48"/>
      </g>
     </g>
    </g>
    <g id="xtick_3">
     <g id="line2d_3">
      <g>
       <use style="stroke:#000000;stroke-width:0.8;" x="254.780672" xlink:href="#m94f15062a6" y="384.48"/>
      </g>
     </g>
     <g id="text_3">
      <!-- 400 -->
      <g transform="translate(247.280672 398.315938)scale(0.1 -0.1)">
       <defs>
        <path d="M 46.484375 18.75 
L 38.28125 18.75 
L 38.28125 1.5625 
L 29.296875 1.5625 
L 29.296875 18.75 
L 3.125 18.75 
L 3.125 26.171875 
L 29.296875 69.140625 
L 38.28125 69.140625 
L 38.28125 26.171875 
L 46.484375 26.171875 
z
M 29.296875 26.171875 
L 29.296875 55.078125 
L 11.71875 26.171875 
z
" id="SimHei-52"/>
       </defs>
       <use xlink:href="#SimHei-52"/>
       <use x="50" xlink:href="#SimHei-48"/>
       <use x="100" xlink:href="#SimHei-48"/>
      </g>
     </g>
    </g>
    <g id="xtick_4">
     <g id="line2d_4">
      <g>
       <use style="stroke:#000000;stroke-width:0.8;" x="336.025553" xlink:href="#m94f15062a6" y="384.48"/>
      </g>
     </g>
     <g id="text_4">
      <!-- 600 -->
      <g transform="translate(328.525553 398.315938)scale(0.1 -0.1)">
       <defs>
        <path d="M 44.53125 24.21875 
Q 44.53125 13.28125 39.84375 7.03125 
Q 35.15625 0.78125 25.78125 0.78125 
Q 16.40625 0.78125 10.9375 8.59375 
Q 5.46875 16.40625 5.46875 33.984375 
Q 5.46875 50 11.125 59.5625 
Q 16.796875 69.140625 27.34375 69.140625 
Q 34.765625 69.140625 39.25 63.671875 
Q 43.75 58.203125 43.75 51.5625 
L 34.765625 51.5625 
Q 34.765625 55.46875 32.609375 58.59375 
Q 30.46875 61.71875 26.953125 61.71875 
Q 21.09375 61.71875 17.96875 55.65625 
Q 14.84375 49.609375 14.453125 37.109375 
Q 17.1875 42.1875 20.3125 44.140625 
Q 23.4375 46.09375 27.734375 46.09375 
Q 35.15625 46.09375 39.84375 40.234375 
Q 44.53125 34.375 44.53125 24.21875 
z
M 35.15625 24.21875 
Q 35.15625 31.25 32.8125 35.15625 
Q 30.46875 39.0625 26.171875 39.0625 
Q 21.09375 39.0625 18.15625 35.15625 
Q 15.234375 31.25 15.234375 25.78125 
Q 15.234375 17.1875 18.15625 12.5 
Q 21.09375 7.8125 26.171875 7.8125 
Q 29.6875 7.8125 32.421875 11.328125 
Q 35.15625 14.84375 35.15625 24.21875 
z
" id="SimHei-54"/>
       </defs>
       <use xlink:href="#SimHei-54"/>
       <use x="50" xlink:href="#SimHei-48"/>
       <use x="100" xlink:href="#SimHei-48"/>
      </g>
     </g>
    </g>
    <g id="xtick_5">
     <g id="line2d_5">
      <g>
       <use style="stroke:#000000;stroke-width:0.8;" x="417.270434" xlink:href="#m94f15062a6" y="384.48"/>
      </g>
     </g>
     <g id="text_5">
      <!-- 800 -->
      <g transform="translate(409.770434 398.315938)scale(0.1 -0.1)">
       <defs>
        <path d="M 44.921875 20.703125 
Q 44.921875 10.9375 39.453125 5.859375 
Q 33.984375 0.78125 24.609375 0.78125 
Q 15.234375 0.78125 9.765625 5.859375 
Q 4.296875 10.9375 4.296875 20.703125 
Q 4.296875 25.78125 7.421875 29.875 
Q 10.546875 33.984375 16.015625 35.9375 
Q 11.328125 37.890625 8.78125 41.40625 
Q 6.25 44.921875 6.25 50.390625 
Q 6.25 58.984375 11.71875 64.0625 
Q 17.1875 69.140625 24.609375 69.140625 
Q 32.03125 69.140625 37.5 64.0625 
Q 42.96875 58.984375 42.96875 50.390625 
Q 42.96875 44.921875 40.421875 41.40625 
Q 37.890625 37.890625 33.203125 35.9375 
Q 38.671875 33.984375 41.796875 29.875 
Q 44.921875 25.78125 44.921875 20.703125 
z
M 34.375 50.390625 
Q 34.375 56.640625 31.640625 59.375 
Q 28.90625 62.109375 24.609375 62.109375 
Q 20.3125 62.109375 17.578125 59.375 
Q 14.84375 56.640625 14.84375 50.390625 
Q 14.84375 44.140625 17.765625 41.59375 
Q 20.703125 39.0625 24.609375 39.0625 
Q 28.515625 39.0625 31.4375 41.59375 
Q 34.375 44.140625 34.375 50.390625 
z
M 35.9375 20.703125 
Q 35.9375 26.171875 33 29.296875 
Q 30.078125 32.421875 24.609375 32.421875 
Q 19.140625 32.421875 16.203125 29.296875 
Q 13.28125 26.171875 13.28125 20.703125 
Q 13.28125 14.453125 16.40625 11.125 
Q 19.53125 7.8125 24.609375 7.8125 
Q 29.6875 7.8125 32.8125 11.125 
Q 35.9375 14.453125 35.9375 20.703125 
z
" id="SimHei-56"/>
       </defs>
       <use xlink:href="#SimHei-56"/>
       <use x="50" xlink:href="#SimHei-48"/>
       <use x="100" xlink:href="#SimHei-48"/>
      </g>
     </g>
    </g>
    <g id="xtick_6">
     <g id="line2d_6">
      <g>
       <use style="stroke:#000000;stroke-width:0.8;" x="498.515315" xlink:href="#m94f15062a6" y="384.48"/>
      </g>
     </g>
     <g id="text_6">
      <!-- 1000 -->
      <g transform="translate(488.515315 398.315938)scale(0.1 -0.1)">
       <defs>
        <path d="M 30.46875 1.5625 
L 21.484375 1.5625 
L 21.484375 53.515625 
L 9.765625 53.515625 
L 9.765625 58.203125 
Q 16.796875 58.203125 20.703125 60.9375 
Q 24.609375 63.671875 25.78125 69.140625 
L 30.46875 69.140625 
z
" id="SimHei-49"/>
       </defs>
       <use xlink:href="#SimHei-49"/>
       <use x="50" xlink:href="#SimHei-48"/>
       <use x="100" xlink:href="#SimHei-48"/>
       <use x="150" xlink:href="#SimHei-48"/>
      </g>
     </g>
    </g>
    <g id="text_7">
     <!-- epoch -->
     <g transform="translate(282.7 410.440938)scale(0.1 -0.1)">
      <defs>
       <path d="M 44.921875 16.40625 
Q 44.140625 9.375 38.671875 5.078125 
Q 33.203125 0.78125 25.78125 0.78125 
Q 16.40625 0.78125 10.34375 6.828125 
Q 4.296875 12.890625 4.296875 23.4375 
Q 4.296875 33.984375 10.34375 40.03125 
Q 16.40625 46.09375 25.78125 46.09375 
Q 33.984375 46.09375 39.25 40.8125 
Q 44.53125 35.546875 44.53125 23.4375 
L 12.890625 23.4375 
Q 12.890625 14.84375 16.59375 11.328125 
Q 20.3125 7.8125 25.78125 7.8125 
Q 30.078125 7.8125 32.8125 9.953125 
Q 35.546875 12.109375 36.328125 16.40625 
z
M 35.546875 29.6875 
Q 34.765625 35.15625 32.03125 37.296875 
Q 29.296875 39.453125 25 39.453125 
Q 21.09375 39.453125 17.96875 37.296875 
Q 14.84375 35.15625 13.28125 29.6875 
z
" id="SimHei-101"/>
       <path d="M 44.53125 23.4375 
Q 44.53125 12.109375 39.0625 6.25 
Q 33.59375 0.390625 25.78125 0.390625 
Q 21.484375 0.390625 18.359375 2.140625 
Q 15.234375 3.90625 12.890625 7.421875 
L 12.890625 -12.890625 
L 5.078125 -12.890625 
L 5.078125 45.3125 
L 12.890625 45.3125 
L 12.890625 39.453125 
Q 15.234375 42.96875 18.359375 44.53125 
Q 21.484375 46.09375 25.78125 46.09375 
Q 33.59375 46.09375 39.0625 40.421875 
Q 44.53125 34.765625 44.53125 23.4375 
z
M 35.9375 23.4375 
Q 35.9375 30.859375 33 34.953125 
Q 30.078125 39.0625 24.21875 39.0625 
Q 19.53125 39.0625 16.203125 34.953125 
Q 12.890625 30.859375 12.890625 23.4375 
Q 12.890625 16.015625 16.203125 11.71875 
Q 19.53125 7.421875 24.21875 7.421875 
Q 30.078125 7.421875 33 11.71875 
Q 35.9375 16.015625 35.9375 23.4375 
z
" id="SimHei-112"/>
       <path d="M 46.09375 23.4375 
Q 46.09375 13.28125 39.84375 7.03125 
Q 33.59375 0.78125 25 0.78125 
Q 16.40625 0.78125 10.15625 7.03125 
Q 3.90625 13.28125 3.90625 23.4375 
Q 3.90625 33.59375 10.15625 39.84375 
Q 16.40625 46.09375 25 46.09375 
Q 33.59375 46.09375 39.84375 39.84375 
Q 46.09375 33.59375 46.09375 23.4375 
z
M 37.5 23.4375 
Q 37.5 31.25 33.59375 35.15625 
Q 29.6875 39.0625 25 39.0625 
Q 20.3125 39.0625 16.40625 35.15625 
Q 12.5 31.25 12.5 23.4375 
Q 12.5 15.625 16.40625 11.71875 
Q 20.3125 7.8125 25 7.8125 
Q 29.6875 7.8125 33.59375 11.71875 
Q 37.5 15.625 37.5 23.4375 
z
" id="SimHei-111"/>
       <path d="M 44.921875 19.140625 
Q 44.921875 10.9375 39.25 5.859375 
Q 33.59375 0.78125 25 0.78125 
Q 16.40625 0.78125 10.15625 6.828125 
Q 3.90625 12.890625 3.90625 23.4375 
Q 3.90625 33.984375 10.15625 40.03125 
Q 16.40625 46.09375 25 46.09375 
Q 33.59375 46.09375 38.671875 41.59375 
Q 43.75 37.109375 43.75 30.859375 
L 35.15625 30.859375 
Q 34.765625 35.546875 31.828125 37.296875 
Q 28.90625 39.0625 25 39.0625 
Q 20.3125 39.0625 16.40625 35.34375 
Q 12.5 31.640625 12.5 23.4375 
Q 12.5 15.234375 16.40625 11.515625 
Q 20.3125 7.8125 25 7.8125 
Q 30.078125 7.8125 33.203125 10.546875 
Q 36.328125 13.28125 36.328125 19.140625 
z
" id="SimHei-99"/>
       <path d="M 44.140625 1.5625 
L 36.328125 1.5625 
L 36.328125 29.6875 
Q 36.328125 34.375 33.984375 37.109375 
Q 31.640625 39.84375 27.734375 39.84375 
Q 22.65625 39.84375 18.15625 34.5625 
Q 13.671875 29.296875 13.671875 21.484375 
L 13.671875 1.5625 
L 5.859375 1.5625 
L 5.859375 68.359375 
L 13.671875 68.359375 
L 13.671875 37.109375 
Q 16.796875 41.40625 20.5 43.75 
Q 24.21875 46.09375 30.078125 46.09375 
Q 37.109375 46.09375 40.625 42.1875 
Q 44.140625 38.28125 44.140625 32.421875 
z
" id="SimHei-104"/>
      </defs>
      <use xlink:href="#SimHei-101"/>
      <use x="50" xlink:href="#SimHei-112"/>
      <use x="100" xlink:href="#SimHei-111"/>
      <use x="150" xlink:href="#SimHei-99"/>
      <use x="200" xlink:href="#SimHei-104"/>
     </g>
    </g>
   </g>
   <g id="matplotlib.axis_2">
    <g id="ytick_1">
     <g id="line2d_7">
      <defs>
       <path d="M 0 0 
L -3.5 0 
" id="m7ffe31d8d0" style="stroke:#000000;stroke-width:0.8;"/>
      </defs>
      <g>
       <use style="stroke:#000000;stroke-width:0.8;" x="72" xlink:href="#m7ffe31d8d0" y="384.48"/>
      </g>
     </g>
     <g id="text_8">
      <!-- 0.0 -->
      <g transform="translate(50 387.897969)scale(0.1 -0.1)">
       <defs>
        <path d="M 17.1875 1.5625 
L 8.203125 1.5625 
L 8.203125 10.15625 
L 17.1875 10.15625 
z
" id="SimHei-46"/>
       </defs>
       <use xlink:href="#SimHei-48"/>
       <use x="50" xlink:href="#SimHei-46"/>
       <use x="100" xlink:href="#SimHei-48"/>
      </g>
     </g>
    </g>
    <g id="ytick_2">
     <g id="line2d_8">
      <g>
       <use style="stroke:#000000;stroke-width:0.8;" x="72" xlink:href="#m7ffe31d8d0" y="317.952"/>
      </g>
     </g>
     <g id="text_9">
      <!-- 0.2 -->
      <g transform="translate(50 321.369969)scale(0.1 -0.1)">
       <use xlink:href="#SimHei-48"/>
       <use x="50" xlink:href="#SimHei-46"/>
       <use x="100" xlink:href="#SimHei-50"/>
      </g>
     </g>
    </g>
    <g id="ytick_3">
     <g id="line2d_9">
      <g>
       <use style="stroke:#000000;stroke-width:0.8;" x="72" xlink:href="#m7ffe31d8d0" y="251.424"/>
      </g>
     </g>
     <g id="text_10">
      <!-- 0.4 -->
      <g transform="translate(50 254.841969)scale(0.1 -0.1)">
       <use xlink:href="#SimHei-48"/>
       <use x="50" xlink:href="#SimHei-46"/>
       <use x="100" xlink:href="#SimHei-52"/>
      </g>
     </g>
    </g>
    <g id="ytick_4">
     <g id="line2d_10">
      <g>
       <use style="stroke:#000000;stroke-width:0.8;" x="72" xlink:href="#m7ffe31d8d0" y="184.896"/>
      </g>
     </g>
     <g id="text_11">
      <!-- 0.6 -->
      <g transform="translate(50 188.313969)scale(0.1 -0.1)">
       <use xlink:href="#SimHei-48"/>
       <use x="50" xlink:href="#SimHei-46"/>
       <use x="100" xlink:href="#SimHei-54"/>
      </g>
     </g>
    </g>
    <g id="ytick_5">
     <g id="line2d_11">
      <g>
       <use style="stroke:#000000;stroke-width:0.8;" x="72" xlink:href="#m7ffe31d8d0" y="118.368"/>
      </g>
     </g>
     <g id="text_12">
      <!-- 0.8 -->
      <g transform="translate(50 121.785969)scale(0.1 -0.1)">
       <use xlink:href="#SimHei-48"/>
       <use x="50" xlink:href="#SimHei-46"/>
       <use x="100" xlink:href="#SimHei-56"/>
      </g>
     </g>
    </g>
    <g id="ytick_6">
     <g id="line2d_12">
      <g>
       <use style="stroke:#000000;stroke-width:0.8;" x="72" xlink:href="#m7ffe31d8d0" y="51.84"/>
      </g>
     </g>
     <g id="text_13">
      <!-- 1.0 -->
      <g transform="translate(50 55.257969)scale(0.1 -0.1)">
       <use xlink:href="#SimHei-49"/>
       <use x="50" xlink:href="#SimHei-46"/>
       <use x="100" xlink:href="#SimHei-48"/>
      </g>
     </g>
    </g>
    <g id="text_14">
     <!-- rate -->
     <g transform="translate(44.710938 228.16)rotate(-90)scale(0.1 -0.1)">
      <defs>
       <path d="M 39.453125 37.5 
Q 32.03125 38.671875 26.953125 35.34375 
Q 21.875 32.03125 18.359375 23.828125 
L 18.359375 1.5625 
L 10.546875 1.5625 
L 10.546875 45.3125 
L 18.359375 45.3125 
L 18.359375 33.984375 
Q 21.875 40.234375 27.140625 43.15625 
Q 32.421875 46.09375 39.453125 46.09375 
z
" id="SimHei-114"/>
       <path d="M 45.3125 1.5625 
L 35.9375 1.5625 
Q 35.15625 2.34375 34.765625 3.703125 
Q 34.375 5.078125 34.375 7.03125 
Q 31.640625 3.90625 27.734375 2.34375 
Q 23.828125 0.78125 19.53125 0.78125 
Q 13.28125 0.78125 8.984375 3.90625 
Q 4.6875 7.03125 4.6875 12.890625 
Q 4.6875 18.75 8.59375 22.265625 
Q 12.5 25.78125 20.703125 26.953125 
Q 26.171875 27.734375 30.265625 28.90625 
Q 34.375 30.078125 34.375 32.03125 
Q 34.375 34.375 32.609375 36.71875 
Q 30.859375 39.0625 25 39.0625 
Q 20.3125 39.0625 18.15625 37.296875 
Q 16.015625 35.546875 15.234375 32.421875 
L 6.640625 32.421875 
Q 7.421875 38.671875 12.296875 42.375 
Q 17.1875 46.09375 25 46.09375 
Q 33.59375 46.09375 37.890625 42.1875 
Q 42.1875 38.28125 42.1875 31.25 
L 42.1875 9.765625 
Q 42.1875 7.421875 42.96875 5.46875 
Q 43.75 3.515625 45.3125 1.5625 
z
M 34.375 16.015625 
L 34.375 23.828125 
Q 32.03125 23.046875 29.875 22.453125 
Q 27.734375 21.875 22.65625 21.09375 
Q 16.796875 20.3125 15.03125 18.359375 
Q 13.28125 16.40625 13.28125 13.671875 
Q 13.28125 11.328125 15.03125 9.5625 
Q 16.796875 7.8125 20.3125 7.8125 
Q 23.828125 7.8125 27.921875 9.765625 
Q 32.03125 11.71875 34.375 16.015625 
z
" id="SimHei-97"/>
       <path d="M 43.359375 2.734375 
Q 41.40625 1.953125 38.859375 1.359375 
Q 36.328125 0.78125 32.03125 0.78125 
Q 25 0.78125 20.703125 4.6875 
Q 16.40625 8.59375 16.40625 15.625 
L 16.40625 39.0625 
L 3.125 39.0625 
L 3.125 45.3125 
L 16.40625 45.3125 
L 16.40625 60.546875 
L 24.21875 60.546875 
L 24.21875 45.3125 
L 40.234375 45.3125 
L 40.234375 39.0625 
L 24.21875 39.0625 
L 24.21875 15.234375 
Q 24.21875 12.109375 25.78125 9.953125 
Q 27.34375 7.8125 31.640625 7.8125 
Q 35.9375 7.8125 38.671875 8.59375 
Q 41.40625 9.375 43.359375 10.546875 
z
" id="SimHei-116"/>
      </defs>
      <use xlink:href="#SimHei-114"/>
      <use x="50" xlink:href="#SimHei-97"/>
      <use x="100" xlink:href="#SimHei-116"/>
      <use x="150" xlink:href="#SimHei-101"/>
     </g>
    </g>
   </g>
   <g id="line2d_13">
    <path clip-path="url(#p13dbf66c35)" d="M 92.290909 283.698073 
L 92.697133 340.818262 
L 93.509582 363.736215 
L 93.915807 373.287292 
L 94.728256 358.710191 
L 95.13448 367.503173 
L 95.540704 355.586122 
L 95.946929 358.808136 
L 96.353153 342.487985 
L 96.759378 297.828745 
L 97.165602 350.643233 
L 97.571826 333.88915 
L 97.978051 343.268345 
L 98.384275 364.43823 
L 98.7905 339.072715 
L 99.196724 345.599565 
L 99.602948 370.162959 
L 100.009173 367.830377 
L 100.415397 328.011747 
L 100.821622 360.319194 
L 101.227846 367.665402 
L 101.63407 354.259644 
L 102.040295 359.474004 
L 102.446519 348.568281 
L 102.852744 360.795806 
L 103.258968 367.780905 
L 103.665192 368.669119 
L 104.071417 366.864336 
L 104.477641 360.840203 
L 104.883866 362.294975 
L 105.29009 351.039613 
L 105.696314 367.181255 
L 106.102539 346.004419 
L 106.508763 290.636905 
L 106.914988 344.423025 
L 107.321212 348.863002 
L 107.727437 358.9361 
L 108.94611 367.895682 
L 109.352334 370.250956 
L 109.758559 327.156626 
L 110.164783 328.305803 
L 110.571007 363.186885 
L 110.977232 310.741466 
L 111.789681 356.597774 
L 112.195905 353.166249 
L 112.602129 366.447257 
L 113.008354 366.713819 
L 113.414578 362.711607 
L 113.820803 346.312811 
L 114.227027 365.360801 
L 114.633251 374.595745 
L 115.039476 334.807075 
L 115.851925 284.815036 
L 116.258149 339.327057 
L 116.664373 340.66043 
L 117.476822 302.949427 
L 117.883047 361.132932 
L 118.289271 363.103346 
L 119.10172 303.573861 
L 119.507944 355.385265 
L 119.914169 361.425851 
L 120.320393 372.718304 
L 120.726618 369.671294 
L 121.132842 362.827116 
L 121.539066 294.567097 
L 121.945291 366.777043 
L 122.351515 360.642219 
L 122.75774 363.407026 
L 123.163964 304.997758 
L 123.976413 373.072256 
L 124.382637 320.112999 
L 124.788862 372.263351 
L 125.195086 364.146283 
L 125.60131 325.833668 
L 126.007535 360.005615 
L 126.413759 369.757557 
L 126.819984 338.931951 
L 127.226208 329.795999 
L 127.632432 361.10203 
L 128.038657 352.346572 
L 128.444881 314.474935 
L 128.851106 352.471736 
L 129.25733 366.193202 
L 129.663554 347.795147 
L 130.069779 335.881011 
L 130.476003 347.389024 
L 130.882228 332.763982 
L 131.288452 331.485298 
L 131.694676 359.728838 
L 132.100901 363.389 
L 132.507125 360.201884 
L 132.91335 354.393175 
L 133.319574 353.604835 
L 133.725799 351.204726 
L 134.132023 362.994527 
L 134.538247 354.78135 
L 134.944472 354.041929 
L 135.350696 293.060988 
L 135.756921 347.372965 
L 136.163145 345.424761 
L 136.569369 356.259055 
L 136.975594 361.839509 
L 137.381818 356.874412 
L 137.788043 315.70898 
L 138.194267 367.872768 
L 138.600491 353.423377 
L 139.006716 351.285628 
L 139.41294 364.124267 
L 140.225389 337.300504 
L 140.631613 347.212461 
L 141.037838 369.719851 
L 141.444062 338.106598 
L 141.850287 339.928433 
L 142.256511 281.66438 
L 142.662735 321.154254 
L 143.06896 308.304629 
L 143.475184 373.43526 
L 143.881409 346.154891 
L 144.287633 378.916274 
L 144.693857 369.615245 
L 145.100082 344.437759 
L 145.506306 348.149055 
L 145.912531 344.394551 
L 146.318755 329.272855 
L 146.72498 366.890678 
L 147.131204 291.312923 
L 147.537428 338.233141 
L 147.943653 360.852522 
L 148.349877 363.122344 
L 148.756102 369.883597 
L 149.162326 367.775613 
L 149.56855 354.623627 
L 150.380999 311.521137 
L 150.787224 369.271626 
L 151.193448 343.998056 
L 151.599672 367.485339 
L 152.005897 373.483812 
L 152.412121 352.8139 
L 152.818346 347.971986 
L 153.22457 353.888689 
L 153.630794 363.354287 
L 154.037019 329.147659 
L 154.443243 333.163713 
L 154.849468 367.017942 
L 155.661916 353.433895 
L 156.068141 356.326271 
L 156.474365 283.165092 
L 156.88059 311.135744 
L 157.286814 352.588455 
L 157.693038 367.397911 
L 158.099263 342.034894 
L 158.505487 303.602129 
L 158.911712 355.943712 
L 159.317936 358.516516 
L 159.724161 335.931237 
L 160.130385 356.826157 
L 160.536609 365.369998 
L 160.942834 360.383916 
L 161.349058 360.683615 
L 161.755283 362.602943 
L 162.161507 369.839875 
L 162.567731 336.751306 
L 162.973956 318.297468 
L 163.38018 336.823668 
L 163.786405 327.939204 
L 164.192629 329.214796 
L 164.598853 314.651226 
L 165.005078 364.192418 
L 165.411302 370.66415 
L 165.817527 319.32733 
L 166.223751 366.060695 
L 166.629975 366.335422 
L 167.0362 363.63765 
L 167.442424 352.256821 
L 167.848649 361.754168 
L 168.254873 291.153557 
L 168.661097 363.053514 
L 169.067322 335.282261 
L 169.473546 347.977312 
L 169.879771 343.966174 
L 170.692219 312.931965 
L 171.098444 368.883033 
L 171.504668 369.796185 
L 171.910893 360.985189 
L 172.317117 370.533978 
L 172.723342 338.402015 
L 173.129566 365.490499 
L 173.53579 364.663591 
L 173.942015 361.613194 
L 174.348239 284.125877 
L 174.754464 335.480778 
L 175.160688 346.452452 
L 175.566912 372.656663 
L 175.973137 367.41875 
L 176.785586 377.279299 
L 177.19181 372.614572 
L 177.598034 354.990583 
L 178.004259 284.229601 
L 178.410483 341.559537 
L 178.816708 339.739772 
L 179.222932 301.512073 
L 179.629156 355.340241 
L 180.035381 360.860843 
L 180.441605 323.730052 
L 180.84783 302.8368 
L 181.254054 352.919828 
L 181.660278 365.82138 
L 182.066503 369.844466 
L 182.472727 369.485618 
L 182.878952 294.985201 
L 183.285176 365.908872 
L 183.6914 372.056537 
L 184.097625 339.497395 
L 184.503849 355.519966 
L 184.910074 361.740499 
L 185.316298 371.78143 
L 185.722523 364.33547 
L 186.128747 291.177598 
L 186.534971 348.465357 
L 186.941196 288.595137 
L 187.34742 363.008913 
L 187.753645 358.445431 
L 188.159869 363.901978 
L 188.566093 331.715549 
L 188.972318 360.217424 
L 189.378542 299.687133 
L 189.784767 353.976436 
L 190.190991 355.527463 
L 190.597215 330.808545 
L 191.00344 323.358241 
L 191.409664 356.9771 
L 191.815889 354.166574 
L 192.222113 361.78131 
L 192.628337 359.208111 
L 193.034562 331.470557 
L 193.440786 312.728062 
L 193.847011 344.685598 
L 194.253235 361.967352 
L 194.659459 335.906867 
L 195.065684 352.83298 
L 195.471908 299.600677 
L 195.878133 369.611163 
L 196.284357 326.977584 
L 196.690581 327.721922 
L 197.096806 370.224928 
L 197.50303 366.940751 
L 197.909255 310.734441 
L 198.315479 349.906401 
L 198.721704 338.949919 
L 199.127928 338.440409 
L 199.534152 361.079396 
L 199.940377 325.665867 
L 200.346601 359.409729 
L 200.752826 342.135013 
L 201.15905 313.793319 
L 201.565274 361.148565 
L 201.971499 371.063399 
L 202.377723 354.676578 
L 202.783948 350.746326 
L 203.190172 362.592882 
L 203.596396 294.101889 
L 204.002621 341.963298 
L 204.408845 347.387909 
L 204.81507 326.027034 
L 205.221294 329.132772 
L 205.627518 360.565074 
L 206.033743 317.120369 
L 206.439967 353.133483 
L 206.846192 351.510201 
L 207.252416 360.671238 
L 207.65864 338.955921 
L 208.064865 338.527688 
L 208.471089 358.929842 
L 208.877314 333.193188 
L 209.283538 360.905147 
L 209.689762 329.874719 
L 210.095987 366.929379 
L 210.502211 353.190614 
L 210.908436 349.907572 
L 211.31466 329.046477 
L 211.720885 336.630131 
L 212.127109 299.838803 
L 212.533333 364.524034 
L 212.939558 356.810473 
L 213.345782 372.267409 
L 213.752007 356.34183 
L 214.158231 351.980522 
L 214.564455 367.694884 
L 214.97068 371.252532 
L 215.376904 367.316429 
L 215.783129 296.644034 
L 216.189353 357.710901 
L 216.595577 307.828726 
L 217.001802 281.66438 
L 217.408026 359.523612 
L 217.814251 356.27222 
L 218.220475 365.891523 
L 218.626699 364.782 
L 219.032924 298.87267 
L 219.439148 377.56533 
L 219.845373 348.214976 
L 220.251597 286.758714 
L 220.657821 350.35392 
L 221.064046 338.295439 
L 221.47027 367.146686 
L 221.876495 300.351559 
L 222.282719 346.665827 
L 222.688943 307.46897 
L 223.095168 362.082847 
L 223.501392 358.423355 
L 223.907617 344.368917 
L 224.313841 315.523614 
L 224.720066 304.35463 
L 225.12629 286.744819 
L 225.532514 307.428095 
L 225.938739 343.819421 
L 226.344963 365.528992 
L 226.751188 371.300371 
L 227.157412 354.306857 
L 227.563636 309.147845 
L 227.969861 371.075201 
L 228.376085 311.207832 
L 228.78231 309.482658 
L 229.188534 366.07413 
L 229.594758 366.348016 
L 230.407207 370.350405 
L 230.813432 365.17879 
L 231.219656 367.573144 
L 231.62588 360.969969 
L 232.032105 372.270043 
L 232.438329 354.819715 
L 232.844554 323.890956 
L 233.250778 371.746316 
L 233.657002 372.421624 
L 234.063227 336.004871 
L 234.469451 337.737785 
L 234.875676 370.142908 
L 235.2819 363.090248 
L 235.688124 352.11917 
L 236.094349 366.936362 
L 236.500573 331.500448 
L 236.906798 321.235087 
L 237.313022 350.80429 
L 237.719247 362.80811 
L 238.125471 340.41018 
L 238.531695 359.139493 
L 238.93792 359.557549 
L 239.344144 334.543248 
L 239.750369 300.770407 
L 240.156593 367.087099 
L 240.562817 337.258265 
L 240.969042 344.295786 
L 241.781491 338.168722 
L 242.187715 353.763002 
L 242.593939 363.323088 
L 243.406388 313.676403 
L 243.812613 333.26928 
L 244.218837 344.235878 
L 244.625061 366.643756 
L 245.031286 378.095848 
L 245.43751 366.221142 
L 245.843735 374.230378 
L 246.249959 361.345309 
L 246.656183 370.165837 
L 247.062408 360.68925 
L 247.468632 367.303853 
L 247.874857 363.102678 
L 248.281081 333.708478 
L 248.687305 375.345216 
L 249.09353 345.186444 
L 249.499754 289.936164 
L 249.905979 336.068821 
L 250.312203 301.029936 
L 250.718428 317.762954 
L 251.124652 359.453986 
L 251.530876 368.145169 
L 251.937101 347.463059 
L 252.343325 355.38003 
L 252.74955 359.429598 
L 253.155774 329.814464 
L 253.561998 337.181466 
L 253.968223 302.045245 
L 254.374447 339.875182 
L 254.780672 362.36813 
L 255.59312 318.883195 
L 255.999345 338.295522 
L 256.405569 319.698247 
L 257.624242 376.572689 
L 258.030467 350.197083 
L 258.436691 357.62503 
L 258.842916 335.594146 
L 259.24914 359.882333 
L 259.655364 370.65381 
L 260.061589 338.778202 
L 260.467813 357.960554 
L 260.874038 349.909861 
L 261.280262 366.493776 
L 261.686486 359.147791 
L 262.092711 360.018968 
L 262.498935 303.905965 
L 262.90516 357.914887 
L 263.311384 370.351522 
L 263.717609 295.54205 
L 264.123833 336.387025 
L 264.530057 350.124139 
L 264.936282 348.031268 
L 265.342506 327.060813 
L 265.748731 298.120734 
L 266.154955 324.338833 
L 266.561179 371.766329 
L 266.967404 370.65585 
L 267.373628 355.727387 
L 267.779853 355.025216 
L 268.186077 354.655937 
L 268.592301 322.416738 
L 268.998526 360.696062 
L 269.40475 360.064768 
L 269.810975 361.416185 
L 270.217199 356.505977 
L 270.623423 343.326763 
L 271.029648 359.42837 
L 271.435872 357.640669 
L 271.842097 346.588714 
L 272.654545 373.651617 
L 273.06077 332.207281 
L 273.466994 372.646128 
L 274.279443 363.864286 
L 274.685667 334.977834 
L 275.091892 352.341212 
L 275.498116 319.035973 
L 275.904341 360.65996 
L 276.310565 353.626749 
L 277.123014 374.758482 
L 277.529238 343.360449 
L 277.935463 351.593274 
L 278.341687 323.09136 
L 278.747912 315.097957 
L 279.154136 363.119198 
L 279.56036 361.824406 
L 279.966585 334.733098 
L 280.372809 345.307753 
L 280.779034 370.304536 
L 281.185258 362.566777 
L 281.591482 352.421657 
L 281.997707 347.108829 
L 282.403931 365.893094 
L 282.810156 361.261539 
L 283.21638 360.892087 
L 283.622604 374.861362 
L 284.028829 343.706162 
L 284.435053 360.469331 
L 284.841278 333.901331 
L 285.247502 365.232619 
L 285.653726 365.271886 
L 286.466175 326.240836 
L 286.8724 356.831515 
L 287.278624 330.024362 
L 287.684848 290.502969 
L 288.091073 363.018079 
L 288.497297 357.831998 
L 288.903522 336.242059 
L 289.309746 351.228363 
L 289.715971 356.104489 
L 290.122195 368.992316 
L 290.528419 372.240747 
L 290.934644 370.18347 
L 291.340868 370.151049 
L 291.747093 362.962613 
L 292.153317 367.532312 
L 292.559541 355.392694 
L 292.965766 356.588328 
L 293.37199 339.595275 
L 293.778215 337.045863 
L 294.184439 311.923043 
L 294.590663 323.797211 
L 294.996888 317.04593 
L 295.403112 360.839627 
L 295.809337 311.3961 
L 296.215561 353.125189 
L 296.621785 359.527231 
L 297.02801 345.274346 
L 297.434234 309.462205 
L 297.840459 349.764584 
L 298.246683 351.171533 
L 298.652907 291.722206 
L 299.059132 353.755435 
L 299.871581 369.627649 
L 300.277805 324.688769 
L 300.684029 323.399927 
L 301.090254 368.116031 
L 301.496478 312.924526 
L 301.902703 355.70523 
L 302.308927 362.838303 
L 302.715152 354.900167 
L 303.121376 367.435959 
L 303.5276 365.894455 
L 303.933825 369.525574 
L 304.340049 340.960919 
L 304.746274 355.862565 
L 305.152498 357.789572 
L 305.964947 346.863445 
L 306.371171 341.180799 
L 306.777396 319.244126 
L 307.18362 304.835055 
L 307.589844 316.858803 
L 307.996069 297.326463 
L 308.808518 358.881979 
L 309.214742 323.66554 
L 309.620966 335.024969 
L 310.027191 331.772711 
L 310.433415 360.194279 
L 310.83964 363.277717 
L 311.245864 305.902282 
L 311.652088 368.021277 
L 312.058313 362.690531 
L 312.464537 348.820626 
L 312.870762 302.798433 
L 313.276986 336.775805 
L 313.68321 351.428954 
L 314.089435 348.101921 
L 314.495659 359.570482 
L 314.901884 364.860887 
L 315.308108 373.107828 
L 315.714333 365.698666 
L 316.120557 373.986458 
L 316.526781 359.591936 
L 316.933006 362.390216 
L 317.745455 317.270856 
L 318.151679 352.080561 
L 318.557903 377.35331 
L 319.370352 303.609117 
L 320.182801 338.412791 
L 320.589025 349.192727 
L 321.401474 286.807727 
L 321.807699 349.515681 
L 322.213923 358.449072 
L 322.620147 361.754333 
L 323.026372 357.240789 
L 323.432596 363.711162 
L 323.838821 320.600849 
L 324.245045 307.733864 
L 324.651269 348.397345 
L 325.057494 367.041742 
L 325.869943 306.036687 
L 326.276167 353.265675 
L 326.682391 355.198312 
L 327.088616 361.622835 
L 327.49484 357.590157 
L 327.901065 336.874937 
L 328.307289 355.993633 
L 328.713514 366.840935 
L 329.119738 371.114867 
L 329.525962 357.69844 
L 329.932187 349.764316 
L 330.338411 352.110144 
L 330.744636 333.577778 
L 331.15086 292.470395 
L 331.557084 369.503616 
L 331.963309 334.31515 
L 332.369533 288.710219 
L 332.775758 324.208451 
L 333.588206 358.86551 
L 333.994431 359.922191 
L 334.400655 339.679236 
L 334.80688 336.928361 
L 335.213104 358.905099 
L 335.619328 326.017321 
L 336.025553 371.767702 
L 336.431777 362.127547 
L 336.838002 362.268863 
L 337.244226 350.907264 
L 337.65045 308.481785 
L 338.056675 341.311019 
L 338.462899 348.884508 
L 338.869124 350.121323 
L 339.275348 360.626561 
L 339.681572 365.859375 
L 340.087797 357.659814 
L 340.494021 284.426142 
L 340.900246 357.849929 
L 341.30647 330.764753 
L 341.712695 357.16986 
L 342.118919 357.022036 
L 342.525143 313.187227 
L 342.931368 357.692948 
L 343.337592 372.538142 
L 343.743817 355.767723 
L 344.150041 327.91012 
L 344.556265 341.202252 
L 344.96249 360.872943 
L 345.368714 349.279844 
L 345.774939 357.962215 
L 346.181163 299.508714 
L 346.587387 363.514999 
L 346.993612 341.993178 
L 347.399836 340.248818 
L 347.806061 356.798829 
L 348.212285 337.921583 
L 348.618509 358.344732 
L 349.024734 365.898412 
L 349.430958 314.381248 
L 349.837183 330.962192 
L 350.243407 359.363883 
L 350.649631 371.167321 
L 351.055856 344.117157 
L 351.46208 357.499572 
L 351.868305 363.152613 
L 352.274529 354.555859 
L 352.680753 364.6576 
L 353.086978 300.180635 
L 353.493202 357.332346 
L 353.899427 370.853176 
L 354.305651 369.861565 
L 354.711876 367.752059 
L 355.524324 373.947038 
L 355.930549 333.004255 
L 356.742998 367.896812 
L 357.149222 318.735815 
L 357.555446 370.263151 
L 357.961671 359.535389 
L 358.367895 339.415515 
L 358.77412 350.477944 
L 359.180344 342.175524 
L 359.586568 342.543624 
L 359.992793 300.898669 
L 360.399017 371.730263 
L 360.805242 331.636264 
L 361.211466 356.019448 
L 361.61769 355.946499 
L 362.023915 368.365095 
L 362.430139 369.290845 
L 362.836364 363.811652 
L 363.242588 348.606773 
L 363.648812 375.54966 
L 364.055037 354.704566 
L 364.461261 359.624432 
L 364.867486 370.946434 
L 365.27371 327.937632 
L 365.679934 340.189647 
L 366.086159 339.399114 
L 366.492383 327.243155 
L 366.898608 299.562308 
L 367.304832 370.191146 
L 367.711057 358.794639 
L 368.117281 362.449699 
L 368.523505 353.267779 
L 368.92973 326.93458 
L 369.335954 359.997331 
L 369.742179 367.447883 
L 370.148403 357.590587 
L 370.554627 312.767371 
L 370.960852 354.192336 
L 371.367076 372.31345 
L 371.773301 362.711873 
L 372.179525 369.490793 
L 372.585749 361.840552 
L 372.991974 334.769968 
L 373.398198 356.79818 
L 373.804423 296.777956 
L 374.210647 359.876332 
L 374.616871 351.317149 
L 375.023096 360.974525 
L 375.42932 363.686962 
L 375.835545 361.382745 
L 376.241769 349.127141 
L 376.647993 369.797619 
L 377.054218 355.019341 
L 377.460442 354.862383 
L 377.866667 367.931542 
L 378.272891 350.81004 
L 378.679115 353.49315 
L 379.08534 336.532527 
L 379.491564 283.348307 
L 379.897789 367.408004 
L 380.304013 337.758775 
L 380.710238 368.072724 
L 381.116462 352.784644 
L 381.522686 362.444955 
L 381.928911 342.158843 
L 382.335135 343.600267 
L 382.74136 319.43839 
L 383.553808 368.018188 
L 383.960033 363.358736 
L 384.366257 346.494048 
L 384.772482 360.638086 
L 385.58493 358.137456 
L 385.991155 308.956943 
L 386.397379 344.994358 
L 386.803604 318.33341 
L 387.616052 352.302982 
L 388.022277 358.05224 
L 388.428501 342.851588 
L 388.834726 359.379141 
L 389.24095 348.329054 
L 389.647174 369.561003 
L 390.053399 336.710274 
L 390.459623 371.525215 
L 390.865848 368.065771 
L 391.272072 359.071803 
L 391.678296 372.233127 
L 392.084521 357.67645 
L 392.490745 330.312369 
L 392.89697 341.13339 
L 393.303194 289.712821 
L 393.709419 330.327575 
L 394.115643 356.327848 
L 394.521867 304.101988 
L 394.928092 366.760408 
L 395.334316 321.697933 
L 395.740541 349.538096 
L 396.146765 342.475331 
L 396.552989 367.319476 
L 397.365438 334.077597 
L 397.771663 316.921858 
L 398.177887 338.179973 
L 398.584111 376.372 
L 398.990336 372.662203 
L 399.39656 364.602203 
L 399.802785 362.996506 
L 400.209009 356.502883 
L 400.615233 356.803504 
L 401.021458 368.804666 
L 401.427682 366.050414 
L 402.240131 338.210606 
L 402.646355 353.350048 
L 403.05258 324.267306 
L 403.458804 368.685756 
L 404.271253 357.47099 
L 405.083702 371.424468 
L 405.489926 364.717224 
L 405.896151 306.904148 
L 406.302375 346.237443 
L 406.7086 360.050212 
L 407.114824 365.253678 
L 407.521048 356.239189 
L 407.927273 341.187373 
L 408.333497 351.246533 
L 408.739722 356.423927 
L 409.145946 370.749419 
L 409.55217 366.166194 
L 409.958395 371.037121 
L 410.364619 363.407436 
L 410.770844 345.933449 
L 411.177068 319.285818 
L 411.583292 376.063516 
L 411.989517 368.117214 
L 412.395741 366.102045 
L 412.801966 290.375668 
L 413.20819 350.809756 
L 414.020639 308.709955 
L 414.426863 350.558808 
L 414.833088 311.571063 
L 415.239312 375.346666 
L 415.645536 367.471005 
L 416.051761 334.029494 
L 416.86421 351.126673 
L 417.676658 384.48 
L 418.082883 233.69475 
L 418.489107 199.173083 
L 498.109091 199.173083 
L 498.109091 199.173083 
" style="fill:none;stroke:#0000ff;stroke-linecap:square;stroke-width:1.5;"/>
   </g>
   <g id="line2d_14">
    <path clip-path="url(#p13dbf66c35)" d="M 92.290909 285.969304 
L 92.697133 224.828395 
L 93.103358 222.687099 
L 93.509582 227.918359 
L 93.915807 224.332681 
L 94.322031 225.348865 
L 94.728256 224.645105 
L 95.13448 224.687552 
L 95.540704 227.609548 
L 95.946929 223.026209 
L 96.353153 225.623462 
L 96.759378 224.087829 
L 97.165602 230.243473 
L 97.571826 220.016106 
L 97.978051 226.482176 
L 98.384275 222.987561 
L 98.7905 226.10637 
L 99.196724 222.975927 
L 100.009173 226.506248 
L 100.415397 224.22676 
L 100.821622 225.890107 
L 101.227846 228.399433 
L 101.63407 218.73136 
L 102.040295 224.532083 
L 102.446519 226.02171 
L 102.852744 220.204914 
L 103.258968 230.086452 
L 103.665192 223.694916 
L 104.071417 227.4273 
L 104.477641 223.03277 
L 104.883866 227.630838 
L 105.29009 222.431527 
L 105.696314 227.744776 
L 106.102539 228.966196 
L 106.508763 218.960819 
L 106.914988 226.072344 
L 107.321212 227.309889 
L 108.133661 221.633425 
L 108.539885 226.053719 
L 108.94611 226.522245 
L 109.352334 223.52778 
L 109.758559 222.559866 
L 110.164783 223.121423 
L 110.571007 226.625059 
L 110.977232 224.733584 
L 111.383456 225.084347 
L 111.789681 226.556514 
L 112.195905 219.440676 
L 112.602129 229.536708 
L 113.008354 226.49884 
L 113.414578 235.370075 
L 113.820803 221.714185 
L 114.227027 224.945535 
L 114.633251 231.245886 
L 115.039476 222.754098 
L 115.4457 226.565262 
L 115.851925 222.749208 
L 116.258149 223.624515 
L 116.664373 221.871552 
L 117.070598 228.381992 
L 117.476822 226.116671 
L 117.883047 221.476491 
L 118.289271 229.540403 
L 118.695495 222.361813 
L 119.507944 227.272271 
L 119.914169 228.73596 
L 120.320393 225.585809 
L 120.726618 231.753873 
L 121.132842 222.546387 
L 121.539066 224.909495 
L 121.945291 224.312633 
L 122.351515 231.13944 
L 122.75774 224.728293 
L 123.163964 222.992418 
L 123.570188 223.49883 
L 123.976413 228.866198 
L 124.382637 225.118721 
L 124.788862 225.052047 
L 125.195086 229.43211 
L 126.007535 223.263574 
L 126.413759 228.918375 
L 126.819984 224.634258 
L 127.226208 229.546391 
L 127.632432 229.538727 
L 128.038657 226.601805 
L 128.444881 221.975808 
L 128.851106 222.456587 
L 129.25733 227.253895 
L 129.663554 226.830224 
L 130.069779 224.986367 
L 130.476003 225.782766 
L 130.882228 223.437505 
L 131.288452 229.449399 
L 131.694676 228.764768 
L 132.100901 231.952128 
L 132.507125 233.082365 
L 132.91335 226.198443 
L 133.319574 222.863394 
L 133.725799 225.487273 
L 134.132023 222.353999 
L 134.944472 221.219648 
L 135.350696 227.460803 
L 135.756921 223.421959 
L 136.163145 223.517649 
L 136.569369 225.145129 
L 136.975594 223.07676 
L 137.381818 226.726906 
L 137.788043 223.173429 
L 138.194267 222.575483 
L 138.600491 226.839201 
L 139.41294 221.393112 
L 139.819165 228.785672 
L 140.225389 221.675907 
L 140.631613 228.392674 
L 141.037838 221.435596 
L 141.850287 226.610128 
L 142.256511 224.518743 
L 142.662735 225.803466 
L 143.06896 221.858742 
L 143.475184 229.825206 
L 143.881409 220.812373 
L 144.693857 229.911234 
L 145.100082 221.092252 
L 145.506306 227.640368 
L 145.912531 222.486194 
L 146.318755 224.073818 
L 146.72498 224.905637 
L 147.131204 225.416831 
L 147.537428 222.657198 
L 147.943653 228.975473 
L 148.349877 226.507969 
L 149.162326 224.534921 
L 149.56855 225.42126 
L 149.974775 223.609787 
L 150.380999 224.224926 
L 150.787224 223.1847 
L 151.193448 227.2088 
L 151.599672 224.438508 
L 152.005897 225.138711 
L 152.412121 224.976228 
L 152.818346 225.757383 
L 153.22457 225.878682 
L 153.630794 225.516742 
L 154.037019 222.515951 
L 154.443243 226.742786 
L 154.849468 222.585377 
L 155.255692 232.288414 
L 155.661916 224.339835 
L 156.068141 225.224854 
L 156.474365 223.656493 
L 156.88059 225.551415 
L 157.286814 223.23234 
L 157.693038 222.853577 
L 158.099263 225.304496 
L 158.505487 220.805155 
L 158.911712 227.468123 
L 159.317936 224.641067 
L 159.724161 225.399455 
L 160.130385 225.03257 
L 160.536609 225.102708 
L 160.942834 223.256343 
L 161.349058 226.585779 
L 161.755283 219.242106 
L 162.161507 229.10719 
L 162.567731 224.395532 
L 162.973956 225.876584 
L 163.38018 222.152057 
L 163.786405 225.10624 
L 164.192629 222.975009 
L 164.598853 227.434008 
L 165.005078 222.321757 
L 165.411302 221.698822 
L 165.817527 223.268584 
L 166.223751 222.836488 
L 166.629975 224.875056 
L 167.0362 222.655251 
L 167.442424 225.843615 
L 167.848649 225.258807 
L 168.254873 222.019981 
L 168.661097 224.151093 
L 169.067322 224.52179 
L 169.473546 223.623024 
L 169.879771 221.558805 
L 170.285995 226.970063 
L 170.692219 222.158542 
L 171.098444 226.583432 
L 171.504668 223.729669 
L 171.910893 222.863296 
L 172.317117 230.495236 
L 172.723342 226.164734 
L 173.129566 225.820056 
L 173.53579 224.929281 
L 173.942015 219.477705 
L 174.348239 228.273085 
L 174.754464 222.669215 
L 175.160688 223.564405 
L 175.566912 227.552535 
L 175.973137 224.450627 
L 176.379361 225.313996 
L 176.785586 222.909268 
L 177.19181 227.789438 
L 177.598034 228.980601 
L 178.004259 221.779792 
L 178.410483 227.819566 
L 178.816708 221.820913 
L 179.222932 221.037214 
L 179.629156 218.305529 
L 180.035381 225.027193 
L 180.441605 223.292002 
L 180.84783 222.754391 
L 181.254054 224.092908 
L 181.660278 222.719715 
L 182.066503 227.133425 
L 182.472727 219.978761 
L 182.878952 226.134645 
L 183.285176 225.339386 
L 183.6914 225.495988 
L 184.097625 227.641749 
L 184.503849 218.848601 
L 184.910074 227.763958 
L 185.316298 225.381917 
L 185.722523 226.610206 
L 186.128747 219.776294 
L 186.534971 224.791138 
L 186.941196 222.353383 
L 187.34742 220.643325 
L 187.753645 226.10168 
L 188.159869 219.780065 
L 188.566093 228.992784 
L 188.972318 223.987653 
L 189.378542 222.640948 
L 190.190991 225.620205 
L 190.597215 223.548717 
L 191.00344 224.0801 
L 191.409664 226.270316 
L 191.815889 222.331505 
L 192.222113 226.225224 
L 192.628337 221.210878 
L 193.034562 228.135911 
L 193.440786 225.343505 
L 193.847011 220.232332 
L 194.253235 221.494526 
L 194.659459 229.665588 
L 195.065684 219.737719 
L 195.878133 228.13326 
L 196.284357 224.824508 
L 196.690581 224.859787 
L 197.096806 223.30192 
L 197.909255 225.059492 
L 198.315479 226.692004 
L 198.721704 226.998286 
L 199.127928 219.206061 
L 199.534152 230.013862 
L 199.940377 221.83092 
L 200.346601 224.369917 
L 200.752826 223.244685 
L 201.15905 226.885527 
L 201.565274 223.883172 
L 201.971499 219.614006 
L 202.377723 229.15565 
L 202.783948 224.239546 
L 203.190172 228.9519 
L 203.596396 222.745368 
L 204.002621 227.606479 
L 204.408845 223.306365 
L 204.81507 224.853471 
L 205.221294 223.280078 
L 205.627518 224.653967 
L 206.033743 222.650797 
L 206.439967 223.500663 
L 206.846192 224.959894 
L 207.252416 222.885164 
L 207.65864 227.155082 
L 208.064865 222.976142 
L 208.471089 227.033479 
L 208.877314 222.488634 
L 209.283538 216.375755 
L 209.689762 228.516483 
L 210.095987 225.362028 
L 210.502211 225.346491 
L 210.908436 227.077834 
L 211.31466 226.841505 
L 211.720885 221.864189 
L 212.127109 225.173748 
L 212.533333 222.893536 
L 212.939558 226.118676 
L 213.345782 226.903819 
L 213.752007 223.25397 
L 214.158231 221.063642 
L 214.564455 225.725678 
L 214.97068 227.520543 
L 215.376904 225.759478 
L 215.783129 219.996545 
L 216.189353 225.840374 
L 216.595577 225.349714 
L 217.001802 224.518743 
L 217.408026 228.46568 
L 217.814251 219.507198 
L 218.220475 227.625824 
L 219.032924 223.027425 
L 219.439148 228.524814 
L 219.845373 221.790675 
L 220.657821 223.992224 
L 221.064046 226.69144 
L 221.47027 225.058594 
L 221.876495 223.909307 
L 222.282719 224.965155 
L 223.095168 221.750411 
L 223.907617 223.801205 
L 224.313841 220.79506 
L 224.720066 228.61603 
L 225.12629 219.525679 
L 225.532514 226.602476 
L 225.938739 223.807418 
L 226.344963 224.51431 
L 226.751188 223.390679 
L 227.157412 225.11788 
L 227.563636 223.092501 
L 228.376085 228.057185 
L 228.78231 224.141931 
L 229.188534 224.930653 
L 229.594758 224.062008 
L 230.000983 228.021859 
L 230.407207 228.390699 
L 230.813432 221.778661 
L 231.219656 227.056963 
L 231.62588 226.857546 
L 232.032105 222.521227 
L 232.438329 232.794165 
L 232.844554 222.465231 
L 233.250778 229.22988 
L 233.657002 221.864514 
L 234.063227 228.938671 
L 234.469451 221.798284 
L 234.875676 226.416391 
L 235.2819 224.481277 
L 236.094349 227.109382 
L 236.500573 223.972738 
L 236.906798 225.276956 
L 237.313022 225.799615 
L 237.719247 227.626218 
L 238.125471 223.053329 
L 238.531695 221.53124 
L 238.93792 223.019269 
L 239.344144 228.621081 
L 239.750369 222.819638 
L 240.156593 222.690284 
L 240.562817 228.07025 
L 240.969042 222.643904 
L 241.375266 226.021717 
L 241.781491 226.877364 
L 242.187715 223.69189 
L 242.593939 223.925086 
L 243.000164 225.790412 
L 243.406388 224.926831 
L 243.812613 221.952713 
L 244.218837 222.886655 
L 244.625061 225.245333 
L 245.031286 225.24138 
L 245.43751 224.976808 
L 245.843735 225.096992 
L 246.249959 226.901466 
L 246.656183 224.003014 
L 247.062408 224.416861 
L 247.468632 221.261456 
L 247.874857 225.880211 
L 248.281081 224.603843 
L 248.687305 224.777909 
L 249.09353 225.431018 
L 249.499754 224.841843 
L 249.905979 222.63395 
L 250.312203 226.865717 
L 250.718428 220.734825 
L 251.124652 224.221711 
L 251.530876 225.736414 
L 251.937101 222.303584 
L 252.343325 226.967795 
L 252.74955 229.090949 
L 253.155774 221.54464 
L 253.561998 221.909105 
L 253.968223 222.660786 
L 254.374447 220.537895 
L 254.780672 226.635305 
L 255.186896 224.491584 
L 255.59312 220.925326 
L 255.999345 224.770542 
L 256.405569 226.398156 
L 256.811794 224.092069 
L 257.218018 220.148553 
L 257.624242 230.100845 
L 258.030467 225.224087 
L 258.436691 223.99093 
L 258.842916 223.411665 
L 259.24914 227.218983 
L 259.655364 224.679843 
L 260.061589 221.190249 
L 260.467813 229.496148 
L 260.874038 224.128764 
L 261.280262 226.120699 
L 261.686486 224.366625 
L 262.092711 223.324713 
L 262.498935 229.37668 
L 262.90516 225.033094 
L 263.311384 227.055282 
L 263.717609 222.413619 
L 264.123833 219.854463 
L 264.530057 226.495469 
L 264.936282 228.351353 
L 265.342506 222.837133 
L 265.748731 224.99733 
L 266.154955 225.097279 
L 266.561179 221.935595 
L 266.967404 225.209385 
L 267.373628 224.388898 
L 267.779853 224.385956 
L 268.186077 226.189187 
L 268.592301 225.291368 
L 268.998526 222.693039 
L 269.40475 228.255378 
L 269.810975 222.835217 
L 270.623423 225.797754 
L 271.029648 222.25178 
L 271.435872 221.790509 
L 271.842097 222.747268 
L 272.248321 227.215793 
L 272.654545 225.015317 
L 273.06077 224.050955 
L 273.466994 224.008802 
L 273.873219 224.352178 
L 275.091892 226.192826 
L 275.498116 223.699157 
L 275.904341 222.121399 
L 276.310565 224.65405 
L 276.71679 223.32168 
L 277.123014 227.46732 
L 277.529238 227.497216 
L 277.935463 225.817061 
L 278.341687 222.71718 
L 278.747912 224.978676 
L 279.154136 225.238719 
L 279.56036 224.700214 
L 279.966585 221.736807 
L 280.372809 224.760037 
L 280.779034 223.652112 
L 281.185258 221.925036 
L 281.591482 225.59387 
L 281.997707 226.098742 
L 282.403931 222.949145 
L 282.810156 224.648295 
L 283.21638 229.031659 
L 283.622604 221.910103 
L 284.028829 228.950074 
L 284.435053 221.072829 
L 284.841278 218.542741 
L 285.247502 228.882913 
L 285.653726 226.032403 
L 286.059951 221.608852 
L 286.466175 225.728112 
L 287.278624 222.194203 
L 287.684848 224.875494 
L 288.091073 225.157951 
L 288.497297 223.879412 
L 288.903522 224.496739 
L 289.309746 224.879228 
L 289.715971 221.925256 
L 290.122195 220.621632 
L 290.528419 227.994249 
L 290.934644 221.707488 
L 291.340868 225.88701 
L 292.153317 224.996408 
L 292.559541 218.580495 
L 292.965766 227.055455 
L 293.37199 225.368976 
L 294.184439 226.885471 
L 294.590663 222.38728 
L 294.996888 224.454846 
L 295.403112 225.261181 
L 295.809337 222.482198 
L 296.215561 223.943231 
L 296.621785 223.853894 
L 297.02801 225.529927 
L 297.434234 221.829778 
L 297.840459 224.643898 
L 298.246683 226.128996 
L 298.652907 222.842525 
L 299.059132 224.217401 
L 299.465356 223.915087 
L 299.871581 227.990175 
L 300.277805 224.058778 
L 300.684029 224.558249 
L 301.090254 225.814256 
L 301.496478 228.78902 
L 301.902703 222.454118 
L 302.308927 223.706082 
L 302.715152 223.887585 
L 303.121376 221.701459 
L 303.5276 225.596698 
L 303.933825 223.170158 
L 304.746274 225.597145 
L 305.152498 222.059438 
L 305.558722 225.424686 
L 305.964947 225.831518 
L 306.371171 223.924457 
L 306.777396 224.62518 
L 307.18362 226.524 
L 307.589844 221.726551 
L 307.996069 224.279313 
L 308.402293 222.674874 
L 308.808518 224.359637 
L 309.214742 224.32638 
L 309.620966 226.750973 
L 310.027191 224.790423 
L 310.433415 227.327936 
L 310.83964 223.067297 
L 311.245864 224.287065 
L 311.652088 221.114547 
L 312.058313 224.76576 
L 312.464537 221.546308 
L 312.870762 224.937979 
L 313.276986 224.0735 
L 313.68321 220.606048 
L 314.089435 227.14149 
L 314.495659 225.867307 
L 314.901884 221.519143 
L 315.308108 226.608491 
L 315.714333 224.02298 
L 316.120557 225.758412 
L 316.526781 223.72773 
L 316.933006 228.329436 
L 317.33923 223.275721 
L 317.745455 220.934669 
L 318.151679 227.397979 
L 318.557903 221.035486 
L 318.964128 231.264665 
L 319.370352 223.130504 
L 319.776577 224.772045 
L 320.182801 225.308143 
L 320.589025 222.571988 
L 320.99525 225.9051 
L 321.401474 221.115046 
L 321.807699 223.366489 
L 322.213923 219.504696 
L 322.620147 227.303067 
L 323.026372 220.043484 
L 323.432596 227.574046 
L 323.838821 219.859976 
L 324.245045 229.752172 
L 324.651269 221.094084 
L 325.057494 224.865033 
L 325.463718 224.923232 
L 325.869943 222.684495 
L 326.276167 225.454312 
L 326.682391 225.039261 
L 327.088616 223.636927 
L 327.49484 223.741389 
L 327.901065 222.148586 
L 328.307289 227.08737 
L 328.713514 225.729162 
L 329.119738 225.096274 
L 329.525962 225.280026 
L 329.932187 223.772923 
L 330.338411 224.246997 
L 330.744636 226.870586 
L 331.15086 223.949354 
L 331.557084 231.47469 
L 331.963309 220.916064 
L 332.369533 223.99137 
L 332.775758 225.86516 
L 333.181982 224.908189 
L 333.588206 222.666196 
L 333.994431 222.861775 
L 334.400655 224.353728 
L 334.80688 221.96129 
L 335.213104 227.410423 
L 335.619328 225.117367 
L 336.025553 221.712434 
L 336.431777 223.185428 
L 336.838002 231.876069 
L 337.244226 220.920039 
L 337.65045 225.27 
L 338.056675 224.053922 
L 338.462899 224.35439 
L 338.869124 225.593076 
L 339.275348 224.710174 
L 339.681572 222.144145 
L 340.087797 222.859013 
L 340.494021 221.551255 
L 340.900246 227.88563 
L 341.30647 224.388506 
L 341.712695 226.735267 
L 342.118919 227.886665 
L 342.525143 219.195223 
L 342.931368 231.235111 
L 343.337592 222.132778 
L 343.743817 224.84392 
L 344.150041 220.721333 
L 344.556265 227.862837 
L 344.96249 227.508477 
L 345.368714 226.599338 
L 345.774939 226.164513 
L 346.181163 222.644185 
L 346.587387 225.525641 
L 346.993612 221.422858 
L 347.399836 229.610759 
L 348.212285 221.714577 
L 348.618509 227.116568 
L 349.024734 223.89441 
L 349.430958 222.097968 
L 349.837183 229.064231 
L 350.243407 222.204902 
L 350.649631 223.895637 
L 351.055856 222.417918 
L 351.46208 227.426439 
L 351.868305 221.165382 
L 352.274529 229.882203 
L 352.680753 221.774565 
L 353.086978 229.333994 
L 353.493202 224.470014 
L 353.899427 229.899095 
L 354.305651 224.58613 
L 354.711876 226.207724 
L 355.1181 224.230135 
L 355.524324 233.473791 
L 355.930549 223.41407 
L 356.336773 226.247615 
L 356.742998 223.51076 
L 357.149222 227.071146 
L 357.555446 218.35053 
L 357.961671 224.082746 
L 358.367895 225.368794 
L 358.77412 227.747127 
L 359.180344 222.750783 
L 359.586568 226.281041 
L 359.992793 225.702017 
L 360.399017 227.063234 
L 360.805242 229.507416 
L 361.211466 227.113818 
L 361.61769 223.598451 
L 362.023915 227.930656 
L 362.430139 224.934924 
L 362.836364 225.32696 
L 363.242588 225.079772 
L 363.648812 226.366966 
L 364.461261 224.971142 
L 364.867486 228.661172 
L 365.27371 225.843116 
L 365.679934 226.050984 
L 366.086159 223.682408 
L 366.492383 225.765692 
L 366.898608 221.473226 
L 367.304832 225.848339 
L 367.711057 227.961114 
L 368.117281 218.6221 
L 368.523505 229.782129 
L 368.92973 222.795956 
L 369.335954 227.910447 
L 369.742179 227.637767 
L 370.148403 222.305751 
L 370.554627 226.671676 
L 370.960852 227.063245 
L 371.367076 222.906519 
L 371.773301 227.002785 
L 372.179525 222.389705 
L 372.585749 222.359894 
L 372.991974 225.25655 
L 373.398198 224.104726 
L 373.804423 225.580534 
L 374.210647 226.548165 
L 374.616871 226.092535 
L 375.023096 228.75377 
L 375.42932 230.099127 
L 375.835545 225.604357 
L 376.241769 223.196327 
L 377.054218 230.416543 
L 377.460442 224.04078 
L 377.866667 222.834698 
L 378.272891 230.225785 
L 379.08534 222.884485 
L 379.491564 226.953126 
L 379.897789 222.121679 
L 380.304013 223.00447 
L 380.710238 224.616724 
L 381.116462 228.586409 
L 381.522686 222.147368 
L 381.928911 227.064524 
L 382.335135 226.005967 
L 382.74136 224.437545 
L 383.147584 227.713682 
L 383.553808 227.471952 
L 383.960033 226.011381 
L 384.366257 226.770645 
L 384.772482 224.796289 
L 385.178706 223.589 
L 385.58493 229.599009 
L 385.991155 223.154295 
L 386.397379 229.869852 
L 386.803604 222.030001 
L 387.209828 236.859303 
L 387.616052 221.86728 
L 388.022277 228.37568 
L 388.428501 228.881786 
L 388.834726 229.689134 
L 389.24095 224.520008 
L 389.647174 232.090756 
L 390.053399 225.507568 
L 390.459623 224.623523 
L 390.865848 223.394387 
L 391.272072 227.750754 
L 391.678296 226.41001 
L 392.084521 224.624337 
L 392.490745 227.022552 
L 392.89697 224.604032 
L 393.303194 227.445962 
L 393.709419 224.295805 
L 394.115643 222.819492 
L 394.521867 226.615386 
L 394.928092 225.533835 
L 395.740541 227.802528 
L 396.146765 224.991498 
L 396.552989 226.148788 
L 396.959214 230.494248 
L 397.365438 229.267706 
L 397.771663 225.677166 
L 398.177887 220.807166 
L 398.584111 233.602441 
L 398.990336 225.56274 
L 399.39656 223.410042 
L 400.209009 226.487081 
L 400.615233 225.997679 
L 401.021458 224.225434 
L 401.427682 229.899375 
L 401.833907 226.097353 
L 402.240131 225.497813 
L 402.646355 231.189091 
L 403.05258 230.341387 
L 403.458804 227.744146 
L 403.865029 223.270313 
L 404.271253 230.5907 
L 405.083702 228.177435 
L 405.489926 231.206702 
L 405.896151 224.403526 
L 406.7086 231.395778 
L 407.114824 226.616007 
L 407.521048 229.339771 
L 407.927273 227.577838 
L 408.333497 233.706499 
L 408.739722 227.168044 
L 409.145946 226.079207 
L 409.55217 228.626977 
L 409.958395 227.732884 
L 410.364619 233.053399 
L 410.770844 223.601951 
L 411.177068 227.982655 
L 411.583292 222.565442 
L 411.989517 231.663606 
L 412.395741 227.767383 
L 412.801966 225.423323 
L 413.20819 229.111029 
L 413.614414 229.778475 
L 414.020639 224.745768 
L 414.426863 227.033091 
L 414.833088 227.769693 
L 415.239312 229.931224 
L 415.645536 226.741709 
L 416.051761 225.10849 
L 416.86421 228.361303 
L 417.270434 293.190119 
L 417.676658 384.48 
L 418.082883 333.687098 
L 418.489107 322.074062 
L 498.109091 322.074062 
L 498.109091 322.074062 
" style="fill:none;stroke:#008000;stroke-linecap:square;stroke-width:1.5;"/>
   </g>
   <g id="patch_3">
    <path d="M 72 384.48 
L 72 51.84 
" style="fill:none;stroke:#000000;stroke-linecap:square;stroke-linejoin:miter;stroke-width:0.8;"/>
   </g>
   <g id="patch_4">
    <path d="M 518.4 384.48 
L 518.4 51.84 
" style="fill:none;stroke:#000000;stroke-linecap:square;stroke-linejoin:miter;stroke-width:0.8;"/>
   </g>
   <g id="patch_5">
    <path d="M 72 384.48 
L 518.4 384.48 
" style="fill:none;stroke:#000000;stroke-linecap:square;stroke-linejoin:miter;stroke-width:0.8;"/>
   </g>
   <g id="patch_6">
    <path d="M 72 51.84 
L 518.4 51.84 
" style="fill:none;stroke:#000000;stroke-linecap:square;stroke-linejoin:miter;stroke-width:0.8;"/>
   </g>
   <g id="legend_1">
    <g id="patch_7">
     <path d="M 79 86.418125 
L 156 86.418125 
Q 158 86.418125 158 84.418125 
L 158 58.84 
Q 158 56.84 156 56.84 
L 79 56.84 
Q 77 56.84 77 58.84 
L 77 84.418125 
Q 77 86.418125 79 86.418125 
z
" style="fill:#ffffff;opacity:0.8;stroke:#cccccc;stroke-linejoin:miter;"/>
    </g>
    <g id="line2d_15">
     <path d="M 81 64.34 
L 101 64.34 
" style="fill:none;stroke:#0000ff;stroke-linecap:square;stroke-width:1.5;"/>
    </g>
    <g id="line2d_16"/>
    <g id="text_15">
     <!-- precision -->
     <g transform="translate(109 67.84)scale(0.1 -0.1)">
      <defs>
       <path d="M 28.515625 57.8125 
L 20.703125 57.8125 
L 20.703125 67.96875 
L 28.515625 67.96875 
z
M 28.515625 1.5625 
L 20.703125 1.5625 
L 20.703125 45.3125 
L 28.515625 45.3125 
z
" id="SimHei-105"/>
       <path d="M 43.359375 13.671875 
Q 43.359375 7.421875 38.46875 4.09375 
Q 33.59375 0.78125 26.171875 0.78125 
Q 16.796875 0.78125 11.71875 4.484375 
Q 6.640625 8.203125 6.640625 15.234375 
L 14.453125 15.234375 
Q 14.453125 10.546875 17.765625 8.984375 
Q 21.09375 7.421875 25.78125 7.421875 
Q 30.46875 7.421875 32.8125 9.171875 
Q 35.15625 10.9375 35.15625 13.671875 
Q 35.15625 15.625 33.203125 17.578125 
Q 31.25 19.53125 23.4375 20.703125 
Q 14.453125 21.875 11.125 25.1875 
Q 7.8125 28.515625 7.8125 33.984375 
Q 7.8125 38.671875 12.296875 42.375 
Q 16.796875 46.09375 25.390625 46.09375 
Q 33.203125 46.09375 37.6875 42.578125 
Q 42.1875 39.0625 42.1875 33.203125 
L 34.375 33.203125 
Q 34.375 36.71875 31.828125 38.078125 
Q 29.296875 39.453125 25.390625 39.453125 
Q 20.3125 39.453125 18.15625 37.6875 
Q 16.015625 35.9375 16.015625 33.59375 
Q 16.015625 30.859375 17.96875 29.296875 
Q 19.921875 27.734375 26.171875 26.953125 
Q 36.328125 25.390625 39.84375 22.0625 
Q 43.359375 18.75 43.359375 13.671875 
z
" id="SimHei-115"/>
       <path d="M 44.140625 1.5625 
L 36.328125 1.5625 
L 36.328125 29.6875 
Q 36.328125 34.375 33.984375 37.109375 
Q 31.640625 39.84375 27.734375 39.84375 
Q 22.65625 39.84375 18.15625 34.5625 
Q 13.671875 29.296875 13.671875 21.484375 
L 13.671875 1.5625 
L 5.859375 1.5625 
L 5.859375 45.3125 
L 13.671875 45.3125 
L 13.671875 37.109375 
Q 16.796875 41.40625 20.5 43.75 
Q 24.21875 46.09375 30.078125 46.09375 
Q 37.109375 46.09375 40.625 42.1875 
Q 44.140625 38.28125 44.140625 32.421875 
z
" id="SimHei-110"/>
      </defs>
      <use xlink:href="#SimHei-112"/>
      <use x="50" xlink:href="#SimHei-114"/>
      <use x="100" xlink:href="#SimHei-101"/>
      <use x="150" xlink:href="#SimHei-99"/>
      <use x="200" xlink:href="#SimHei-105"/>
      <use x="250" xlink:href="#SimHei-115"/>
      <use x="300" xlink:href="#SimHei-105"/>
      <use x="350" xlink:href="#SimHei-111"/>
      <use x="400" xlink:href="#SimHei-110"/>
     </g>
    </g>
    <g id="line2d_17">
     <path d="M 81 77.629062 
L 101 77.629062 
" style="fill:none;stroke:#008000;stroke-linecap:square;stroke-width:1.5;"/>
    </g>
    <g id="line2d_18"/>
    <g id="text_16">
     <!-- recall -->
     <g transform="translate(109 81.129062)scale(0.1 -0.1)">
      <defs>
       <path d="M 28.90625 1.5625 
L 21.09375 1.5625 
L 21.09375 68.359375 
L 28.90625 68.359375 
z
" id="SimHei-108"/>
      </defs>
      <use xlink:href="#SimHei-114"/>
      <use x="50" xlink:href="#SimHei-101"/>
      <use x="100" xlink:href="#SimHei-99"/>
      <use x="150" xlink:href="#SimHei-97"/>
      <use x="200" xlink:href="#SimHei-108"/>
      <use x="250" xlink:href="#SimHei-108"/>
     </g>
    </g>
   </g>
  </g>
  <g id="axes_2">
   <g id="matplotlib.axis_3">
    <g id="ytick_7">
     <g id="line2d_19">
      <defs>
       <path d="M 0 0 
L 3.5 0 
" id="m2c03b978f7" style="stroke:#000000;stroke-width:0.8;"/>
      </defs>
      <g>
       <use style="stroke:#000000;stroke-width:0.8;" x="518.4" xlink:href="#m2c03b978f7" y="370.277144"/>
      </g>
     </g>
     <g id="text_17">
      <!-- 0 -->
      <g transform="translate(525.4 373.695113)scale(0.1 -0.1)">
       <use xlink:href="#SimHei-48"/>
      </g>
     </g>
    </g>
    <g id="ytick_8">
     <g id="line2d_20">
      <g>
       <use style="stroke:#000000;stroke-width:0.8;" x="518.4" xlink:href="#m2c03b978f7" y="302.839475"/>
      </g>
     </g>
     <g id="text_18">
      <!-- 50 -->
      <g transform="translate(525.4 306.257444)scale(0.1 -0.1)">
       <defs>
        <path d="M 44.140625 25.78125 
Q 44.140625 14.0625 38.46875 7.421875 
Q 32.8125 0.78125 23.4375 0.78125 
Q 15.234375 0.78125 9.953125 6.25 
Q 4.6875 11.71875 4.296875 21.09375 
L 13.28125 21.09375 
Q 13.28125 15.234375 16.015625 11.71875 
Q 18.75 8.203125 23.828125 8.203125 
Q 28.90625 8.203125 31.828125 12.5 
Q 34.765625 16.796875 34.765625 25.78125 
Q 34.765625 33.59375 32.21875 37.296875 
Q 29.6875 41.015625 25.390625 41.015625 
Q 21.875 41.015625 19.328125 39.453125 
Q 16.796875 37.890625 14.453125 33.984375 
L 6.640625 33.984375 
L 8.984375 68.359375 
L 42.578125 68.359375 
L 42.578125 60.9375 
L 16.40625 60.9375 
L 14.84375 42.96875 
Q 17.1875 45.3125 19.921875 46.484375 
Q 22.65625 47.65625 27.34375 47.65625 
Q 34.765625 47.65625 39.453125 41.984375 
Q 44.140625 36.328125 44.140625 25.78125 
z
" id="SimHei-53"/>
       </defs>
       <use xlink:href="#SimHei-53"/>
       <use x="50" xlink:href="#SimHei-48"/>
      </g>
     </g>
    </g>
    <g id="ytick_9">
     <g id="line2d_21">
      <g>
       <use style="stroke:#000000;stroke-width:0.8;" x="518.4" xlink:href="#m2c03b978f7" y="235.401806"/>
      </g>
     </g>
     <g id="text_19">
      <!-- 100 -->
      <g transform="translate(525.4 238.819775)scale(0.1 -0.1)">
       <use xlink:href="#SimHei-49"/>
       <use x="50" xlink:href="#SimHei-48"/>
       <use x="100" xlink:href="#SimHei-48"/>
      </g>
     </g>
    </g>
    <g id="ytick_10">
     <g id="line2d_22">
      <g>
       <use style="stroke:#000000;stroke-width:0.8;" x="518.4" xlink:href="#m2c03b978f7" y="167.964138"/>
      </g>
     </g>
     <g id="text_20">
      <!-- 150 -->
      <g transform="translate(525.4 171.382107)scale(0.1 -0.1)">
       <use xlink:href="#SimHei-49"/>
       <use x="50" xlink:href="#SimHei-53"/>
       <use x="100" xlink:href="#SimHei-48"/>
      </g>
     </g>
    </g>
    <g id="ytick_11">
     <g id="line2d_23">
      <g>
       <use style="stroke:#000000;stroke-width:0.8;" x="518.4" xlink:href="#m2c03b978f7" y="100.526469"/>
      </g>
     </g>
     <g id="text_21">
      <!-- 200 -->
      <g transform="translate(525.4 103.944438)scale(0.1 -0.1)">
       <use xlink:href="#SimHei-50"/>
       <use x="50" xlink:href="#SimHei-48"/>
       <use x="100" xlink:href="#SimHei-48"/>
      </g>
     </g>
    </g>
    <g id="text_22">
     <!-- loss -->
     <g transform="translate(551.235937 228.16)rotate(-90)scale(0.1 -0.1)">
      <use xlink:href="#SimHei-108"/>
      <use x="50" xlink:href="#SimHei-111"/>
      <use x="100" xlink:href="#SimHei-115"/>
      <use x="150" xlink:href="#SimHei-115"/>
     </g>
    </g>
   </g>
   <g id="line2d_24">
    <path clip-path="url(#p13dbf66c35)" d="M 92.290909 66.96 
L 92.697133 357.941578 
L 93.103358 365.909035 
L 93.509582 365.988631 
L 93.915807 365.938769 
L 94.322031 366.065923 
L 95.946929 365.930373 
L 96.353153 366.907747 
L 96.759378 366.756644 
L 97.978051 366.840943 
L 98.384275 366.700625 
L 104.071417 366.653485 
L 104.477641 367.115335 
L 104.883866 367.14481 
L 105.29009 367.00577 
L 106.914988 367.118551 
L 107.727437 366.910411 
L 108.94611 366.972286 
L 110.164783 366.934378 
L 111.383456 367.022156 
L 112.195905 366.943608 
L 113.008354 367.120236 
L 116.258149 367.093223 
L 116.664373 367.382104 
L 118.289271 367.446384 
L 118.695495 367.36999 
L 119.914169 367.451931 
L 120.726618 367.394824 
L 123.163964 367.4157 
L 123.570188 367.359626 
L 124.382637 367.412857 
L 125.195086 367.397025 
L 129.663554 367.409922 
L 130.476003 367.382037 
L 132.507125 367.41328 
L 132.91335 367.605503 
L 133.319574 368.193596 
L 134.538247 368.264635 
L 135.350696 368.247301 
L 136.569369 368.280445 
L 136.975594 368.059283 
L 137.381818 368.281043 
L 143.06896 368.357155 
L 143.881409 368.453333 
L 149.162326 368.563277 
L 150.380999 368.614029 
L 152.818346 368.641801 
L 153.630794 368.827912 
L 158.099263 368.825545 
L 161.349058 368.887707 
L 162.567731 368.916432 
L 236.906798 369.280977 
L 287.684848 369.32479 
L 426.207371 369.344283 
L 498.109091 369.36 
L 498.109091 369.36 
" style="fill:none;stroke:#ff0000;stroke-linecap:square;stroke-width:1.5;"/>
   </g>
   <g id="patch_8">
    <path d="M 72 384.48 
L 72 51.84 
" style="fill:none;stroke:#000000;stroke-linecap:square;stroke-linejoin:miter;stroke-width:0.8;"/>
   </g>
   <g id="patch_9">
    <path d="M 518.4 384.48 
L 518.4 51.84 
" style="fill:none;stroke:#000000;stroke-linecap:square;stroke-linejoin:miter;stroke-width:0.8;"/>
   </g>
   <g id="patch_10">
    <path d="M 72 384.48 
L 518.4 384.48 
" style="fill:none;stroke:#000000;stroke-linecap:square;stroke-linejoin:miter;stroke-width:0.8;"/>
   </g>
   <g id="patch_11">
    <path d="M 72 51.84 
L 518.4 51.84 
" style="fill:none;stroke:#000000;stroke-linecap:square;stroke-linejoin:miter;stroke-width:0.8;"/>
   </g>
   <g id="text_23">
    <!-- The learning curve on 8clients_iid/host/9 -->
    <g transform="translate(172.2 45.84)scale(0.12 -0.12)">
     <defs>
      <path d="M 44.921875 60.9375 
L 29.296875 60.9375 
L 29.296875 1.5625 
L 20.3125 1.5625 
L 20.3125 60.9375 
L 4.6875 60.9375 
L 4.6875 68.359375 
L 44.921875 68.359375 
z
" id="SimHei-84"/>
      <path id="SimHei-32"/>
      <path d="M 46.875 38.671875 
Q 44.140625 39.453125 41.59375 39.640625 
Q 39.0625 39.84375 36.328125 39.0625 
Q 37.5 37.890625 38.28125 36.125 
Q 39.0625 34.375 39.0625 30.859375 
Q 39.0625 24.21875 34.5625 19.921875 
Q 30.078125 15.625 23.4375 15.625 
Q 21.875 15.625 19.328125 16.203125 
Q 16.796875 16.796875 15.234375 17.578125 
Q 14.0625 16.796875 13.671875 16.015625 
Q 13.28125 15.234375 13.28125 14.0625 
Q 13.28125 12.109375 16.015625 11.125 
Q 18.75 10.15625 25.78125 10.15625 
Q 37.109375 10.15625 41.203125 7.03125 
Q 45.3125 3.90625 45.3125 -0.78125 
Q 45.3125 -7.03125 39.25 -9.953125 
Q 33.203125 -12.890625 25 -12.890625 
Q 14.453125 -12.890625 9.375 -10.15625 
Q 4.296875 -7.421875 4.296875 -2.734375 
Q 4.296875 -0.390625 6.25 1.953125 
Q 8.203125 4.296875 11.328125 5.859375 
Q 8.984375 7.03125 7.609375 8.78125 
Q 6.25 10.546875 6.25 13.28125 
Q 6.25 15.625 8 17.375 
Q 9.765625 19.140625 12.109375 20.3125 
Q 10.15625 22.265625 8.984375 25 
Q 7.8125 27.734375 7.8125 30.859375 
Q 7.8125 37.5 12.296875 41.796875 
Q 16.796875 46.09375 23.4375 46.09375 
Q 26.953125 46.09375 29.484375 45.109375 
Q 32.03125 44.140625 33.984375 42.1875 
Q 37.109375 44.53125 40.234375 45.5 
Q 43.359375 46.484375 46.875 46.09375 
z
M 31.25 30.859375 
Q 31.25 34.765625 29.296875 37.109375 
Q 27.34375 39.453125 23.4375 39.453125 
Q 19.53125 39.453125 17.578125 37.109375 
Q 15.625 34.765625 15.625 30.859375 
Q 15.625 26.953125 17.578125 24.609375 
Q 19.53125 22.265625 23.4375 22.265625 
Q 27.34375 22.265625 29.296875 24.609375 
Q 31.25 26.953125 31.25 30.859375 
z
M 37.890625 -1.5625 
Q 37.890625 0 36.125 1.5625 
Q 34.375 3.125 27.34375 3.125 
Q 25.78125 3.125 23.046875 3.3125 
Q 20.3125 3.515625 16.796875 3.90625 
Q 13.671875 2.734375 12.5 1.171875 
Q 11.328125 -0.390625 11.328125 -1.953125 
Q 11.328125 -4.296875 14.453125 -5.859375 
Q 17.578125 -7.421875 25.390625 -7.421875 
Q 32.03125 -7.421875 34.953125 -5.65625 
Q 37.890625 -3.90625 37.890625 -1.5625 
z
" id="SimHei-103"/>
      <path d="M 44.140625 1.5625 
L 36.328125 1.5625 
L 36.328125 9.765625 
Q 33.203125 5.46875 29.484375 3.125 
Q 25.78125 0.78125 19.921875 0.78125 
Q 12.890625 0.78125 9.375 4.6875 
Q 5.859375 8.59375 5.859375 14.453125 
L 5.859375 45.3125 
L 13.671875 45.3125 
L 13.671875 17.1875 
Q 13.671875 12.5 16.015625 9.765625 
Q 18.359375 7.03125 22.265625 7.03125 
Q 27.34375 7.03125 31.828125 12.296875 
Q 36.328125 17.578125 36.328125 25.390625 
L 36.328125 45.3125 
L 44.140625 45.3125 
z
" id="SimHei-117"/>
      <path d="M 45.3125 45.3125 
L 28.90625 0.78125 
L 20.3125 0.78125 
L 3.90625 45.3125 
L 12.109375 45.3125 
L 24.21875 11.328125 
L 25 11.328125 
L 37.109375 45.3125 
z
" id="SimHei-118"/>
      <path d="M 49.609375 -13.671875 
L 0 -13.671875 
L 0 -8.984375 
L 49.609375 -8.984375 
z
" id="SimHei-95"/>
      <path d="M 43.359375 1.5625 
L 35.546875 1.5625 
L 35.546875 7.421875 
Q 33.203125 3.90625 30.078125 2.34375 
Q 26.953125 0.78125 22.65625 0.78125 
Q 14.84375 0.78125 9.375 6.4375 
Q 3.90625 12.109375 3.90625 23.4375 
Q 3.90625 34.765625 9.375 40.625 
Q 14.84375 46.484375 22.65625 46.484375 
Q 26.953125 46.484375 30.078125 44.71875 
Q 33.203125 42.96875 35.546875 39.453125 
L 35.546875 68.359375 
L 43.359375 68.359375 
z
M 35.546875 23.4375 
Q 35.546875 30.859375 32.21875 35.15625 
Q 28.90625 39.453125 24.21875 39.453125 
Q 18.359375 39.453125 15.421875 35.15625 
Q 12.5 30.859375 12.5 23.4375 
Q 12.5 16.015625 15.421875 11.90625 
Q 18.359375 7.8125 24.21875 7.8125 
Q 28.90625 7.8125 32.21875 11.90625 
Q 35.546875 16.015625 35.546875 23.4375 
z
" id="SimHei-100"/>
      <path d="M 47.265625 70.703125 
L 5.859375 -3.125 
L 1.953125 -0.78125 
L 43.359375 73.046875 
z
" id="SimHei-47"/>
      <path d="M 44.140625 35.9375 
Q 44.140625 19.921875 38.46875 10.34375 
Q 32.8125 0.78125 22.265625 0.78125 
Q 14.84375 0.78125 10.34375 6.25 
Q 5.859375 11.71875 5.859375 18.359375 
L 14.84375 18.359375 
Q 14.84375 14.453125 16.984375 11.328125 
Q 19.140625 8.203125 22.65625 8.203125 
Q 28.515625 8.203125 31.4375 14.84375 
Q 34.375 21.484375 35.15625 34.375 
Q 33.203125 30.078125 29.6875 27.734375 
Q 26.171875 25.390625 21.875 25.390625 
Q 14.453125 25.390625 9.765625 30.859375 
Q 5.078125 36.328125 5.078125 46.484375 
Q 5.078125 56.640625 9.765625 62.890625 
Q 14.453125 69.140625 23.828125 69.140625 
Q 33.203125 69.140625 38.671875 61.328125 
Q 44.140625 53.515625 44.140625 35.9375 
z
M 34.375 44.921875 
Q 34.375 53.515625 31.4375 57.8125 
Q 28.515625 62.109375 23.4375 62.109375 
Q 19.921875 62.109375 17.1875 58.78125 
Q 14.453125 55.46875 14.453125 46.484375 
Q 14.453125 39.84375 16.59375 36.125 
Q 18.75 32.421875 23.4375 32.421875 
Q 28.515625 32.421875 31.4375 35.9375 
Q 34.375 39.453125 34.375 44.921875 
z
" id="SimHei-57"/>
     </defs>
     <use xlink:href="#SimHei-84"/>
     <use x="50" xlink:href="#SimHei-104"/>
     <use x="100" xlink:href="#SimHei-101"/>
     <use x="150" xlink:href="#SimHei-32"/>
     <use x="200" xlink:href="#SimHei-108"/>
     <use x="250" xlink:href="#SimHei-101"/>
     <use x="300" xlink:href="#SimHei-97"/>
     <use x="350" xlink:href="#SimHei-114"/>
     <use x="400" xlink:href="#SimHei-110"/>
     <use x="450" xlink:href="#SimHei-105"/>
     <use x="500" xlink:href="#SimHei-110"/>
     <use x="550" xlink:href="#SimHei-103"/>
     <use x="600" xlink:href="#SimHei-32"/>
     <use x="650" xlink:href="#SimHei-99"/>
     <use x="700" xlink:href="#SimHei-117"/>
     <use x="750" xlink:href="#SimHei-114"/>
     <use x="800" xlink:href="#SimHei-118"/>
     <use x="850" xlink:href="#SimHei-101"/>
     <use x="900" xlink:href="#SimHei-32"/>
     <use x="950" xlink:href="#SimHei-111"/>
     <use x="1000" xlink:href="#SimHei-110"/>
     <use x="1050" xlink:href="#SimHei-32"/>
     <use x="1100" xlink:href="#SimHei-56"/>
     <use x="1150" xlink:href="#SimHei-99"/>
     <use x="1200" xlink:href="#SimHei-108"/>
     <use x="1250" xlink:href="#SimHei-105"/>
     <use x="1300" xlink:href="#SimHei-101"/>
     <use x="1350" xlink:href="#SimHei-110"/>
     <use x="1400" xlink:href="#SimHei-116"/>
     <use x="1450" xlink:href="#SimHei-115"/>
     <use x="1500" xlink:href="#SimHei-95"/>
     <use x="1550" xlink:href="#SimHei-105"/>
     <use x="1600" xlink:href="#SimHei-105"/>
     <use x="1650" xlink:href="#SimHei-100"/>
     <use x="1700" xlink:href="#SimHei-47"/>
     <use x="1750" xlink:href="#SimHei-104"/>
     <use x="1800" xlink:href="#SimHei-111"/>
     <use x="1850" xlink:href="#SimHei-115"/>
     <use x="1900" xlink:href="#SimHei-116"/>
     <use x="1950" xlink:href="#SimHei-47"/>
     <use x="2000" xlink:href="#SimHei-57"/>
    </g>
   </g>
   <g id="legend_2">
    <g id="patch_12">
     <path d="M 459.4 73.129062 
L 511.4 73.129062 
Q 513.4 73.129062 513.4 71.129062 
L 513.4 58.84 
Q 513.4 56.84 511.4 56.84 
L 459.4 56.84 
Q 457.4 56.84 457.4 58.84 
L 457.4 71.129062 
Q 457.4 73.129062 459.4 73.129062 
z
" style="fill:#ffffff;opacity:0.8;stroke:#cccccc;stroke-linejoin:miter;"/>
    </g>
    <g id="line2d_25">
     <path d="M 461.4 64.34 
L 481.4 64.34 
" style="fill:none;stroke:#ff0000;stroke-linecap:square;stroke-width:1.5;"/>
    </g>
    <g id="line2d_26"/>
    <g id="text_24">
     <!-- loss -->
     <g transform="translate(489.4 67.84)scale(0.1 -0.1)">
      <use xlink:href="#SimHei-108"/>
      <use x="50" xlink:href="#SimHei-111"/>
      <use x="100" xlink:href="#SimHei-115"/>
      <use x="150" xlink:href="#SimHei-115"/>
     </g>
    </g>
   </g>
  </g>
 </g>
 <defs>
  <clipPath id="p13dbf66c35">
   <rect height="332.64" width="446.4" x="72" y="51.84"/>
  </clipPath>
 </defs>
</svg>
