<?xml version="1.0" encoding="utf-8" standalone="no"?>
<!DOCTYPE svg PUBLIC "-//W3C//DTD SVG 1.1//EN"
  "http://www.w3.org/Graphics/SVG/1.1/DTD/svg11.dtd">
<svg xmlns:xlink="http://www.w3.org/1999/xlink" width="576pt" height="432pt" viewBox="0 0 576 432" xmlns="http://www.w3.org/2000/svg" version="1.1">
 <metadata>
  <rdf:RDF xmlns:dc="http://purl.org/dc/elements/1.1/" xmlns:cc="http://creativecommons.org/ns#" xmlns:rdf="http://www.w3.org/1999/02/22-rdf-syntax-ns#">
   <cc:Work>
    <dc:type rdf:resource="http://purl.org/dc/dcmitype/StillImage"/>
    <dc:date>2023-12-26T13:14:42.549853</dc:date>
    <dc:format>image/svg+xml</dc:format>
    <dc:creator>
     <cc:Agent>
      <dc:title>Matplotlib v3.7.1, https://matplotlib.org/</dc:title>
     </cc:Agent>
    </dc:creator>
   </cc:Work>
  </rdf:RDF>
 </metadata>
 <defs>
  <style type="text/css">*{stroke-linejoin: round; stroke-linecap: butt}</style>
 </defs>
 <g id="figure_1">
  <g id="patch_1">
   <path d="M 0 432 
L 576 432 
L 576 0 
L 0 0 
z
" style="fill: #ffffff"/>
  </g>
  <g id="axes_1">
   <g id="patch_2">
    <path d="M 72 384.48 
L 518.4 384.48 
L 518.4 51.84 
L 72 51.84 
z
" style="fill: #ffffff"/>
   </g>
   <g id="matplotlib.axis_1">
    <g id="xtick_1">
     <g id="line2d_1">
      <defs>
       <path id="m761081cd74" d="M 0 0 
L 0 3.5 
" style="stroke: #000000; stroke-width: 0.8"/>
      </defs>
      <g>
       <use xlink:href="#m761081cd74" x="92.290909" y="384.48" style="stroke: #000000; stroke-width: 0.8"/>
      </g>
     </g>
     <g id="text_1">
      <!-- 0 -->
      <g transform="translate(89.109659 399.078438) scale(0.1 -0.1)">
       <defs>
        <path id="DejaVuSans-30" d="M 2034 4250 
Q 1547 4250 1301 3770 
Q 1056 3291 1056 2328 
Q 1056 1369 1301 889 
Q 1547 409 2034 409 
Q 2525 409 2770 889 
Q 3016 1369 3016 2328 
Q 3016 3291 2770 3770 
Q 2525 4250 2034 4250 
z
M 2034 4750 
Q 2819 4750 3233 4129 
Q 3647 3509 3647 2328 
Q 3647 1150 3233 529 
Q 2819 -91 2034 -91 
Q 1250 -91 836 529 
Q 422 1150 422 2328 
Q 422 3509 836 4129 
Q 1250 4750 2034 4750 
z
" transform="scale(0.015625)"/>
       </defs>
       <use xlink:href="#DejaVuSans-30"/>
      </g>
     </g>
    </g>
    <g id="xtick_2">
     <g id="line2d_2">
      <g>
       <use xlink:href="#m761081cd74" x="168.286823" y="384.48" style="stroke: #000000; stroke-width: 0.8"/>
      </g>
     </g>
     <g id="text_2">
      <!-- 50 -->
      <g transform="translate(161.924323 399.078438) scale(0.1 -0.1)">
       <defs>
        <path id="DejaVuSans-35" d="M 691 4666 
L 3169 4666 
L 3169 4134 
L 1269 4134 
L 1269 2991 
Q 1406 3038 1543 3061 
Q 1681 3084 1819 3084 
Q 2600 3084 3056 2656 
Q 3513 2228 3513 1497 
Q 3513 744 3044 326 
Q 2575 -91 1722 -91 
Q 1428 -91 1123 -41 
Q 819 9 494 109 
L 494 744 
Q 775 591 1075 516 
Q 1375 441 1709 441 
Q 2250 441 2565 725 
Q 2881 1009 2881 1497 
Q 2881 1984 2565 2268 
Q 2250 2553 1709 2553 
Q 1456 2553 1204 2497 
Q 953 2441 691 2322 
L 691 4666 
z
" transform="scale(0.015625)"/>
       </defs>
       <use xlink:href="#DejaVuSans-35"/>
       <use xlink:href="#DejaVuSans-30" x="63.623047"/>
      </g>
     </g>
    </g>
    <g id="xtick_3">
     <g id="line2d_3">
      <g>
       <use xlink:href="#m761081cd74" x="244.282737" y="384.48" style="stroke: #000000; stroke-width: 0.8"/>
      </g>
     </g>
     <g id="text_3">
      <!-- 100 -->
      <g transform="translate(234.738987 399.078438) scale(0.1 -0.1)">
       <defs>
        <path id="DejaVuSans-31" d="M 794 531 
L 1825 531 
L 1825 4091 
L 703 3866 
L 703 4441 
L 1819 4666 
L 2450 4666 
L 2450 531 
L 3481 531 
L 3481 0 
L 794 0 
L 794 531 
z
" transform="scale(0.015625)"/>
       </defs>
       <use xlink:href="#DejaVuSans-31"/>
       <use xlink:href="#DejaVuSans-30" x="63.623047"/>
       <use xlink:href="#DejaVuSans-30" x="127.246094"/>
      </g>
     </g>
    </g>
    <g id="xtick_4">
     <g id="line2d_4">
      <g>
       <use xlink:href="#m761081cd74" x="320.278652" y="384.48" style="stroke: #000000; stroke-width: 0.8"/>
      </g>
     </g>
     <g id="text_4">
      <!-- 150 -->
      <g transform="translate(310.734902 399.078438) scale(0.1 -0.1)">
       <use xlink:href="#DejaVuSans-31"/>
       <use xlink:href="#DejaVuSans-35" x="63.623047"/>
       <use xlink:href="#DejaVuSans-30" x="127.246094"/>
      </g>
     </g>
    </g>
    <g id="xtick_5">
     <g id="line2d_5">
      <g>
       <use xlink:href="#m761081cd74" x="396.274566" y="384.48" style="stroke: #000000; stroke-width: 0.8"/>
      </g>
     </g>
     <g id="text_5">
      <!-- 200 -->
      <g transform="translate(386.730816 399.078438) scale(0.1 -0.1)">
       <defs>
        <path id="DejaVuSans-32" d="M 1228 531 
L 3431 531 
L 3431 0 
L 469 0 
L 469 531 
Q 828 903 1448 1529 
Q 2069 2156 2228 2338 
Q 2531 2678 2651 2914 
Q 2772 3150 2772 3378 
Q 2772 3750 2511 3984 
Q 2250 4219 1831 4219 
Q 1534 4219 1204 4116 
Q 875 4013 500 3803 
L 500 4441 
Q 881 4594 1212 4672 
Q 1544 4750 1819 4750 
Q 2544 4750 2975 4387 
Q 3406 4025 3406 3419 
Q 3406 3131 3298 2873 
Q 3191 2616 2906 2266 
Q 2828 2175 2409 1742 
Q 1991 1309 1228 531 
z
" transform="scale(0.015625)"/>
       </defs>
       <use xlink:href="#DejaVuSans-32"/>
       <use xlink:href="#DejaVuSans-30" x="63.623047"/>
       <use xlink:href="#DejaVuSans-30" x="127.246094"/>
      </g>
     </g>
    </g>
    <g id="xtick_6">
     <g id="line2d_6">
      <g>
       <use xlink:href="#m761081cd74" x="472.27048" y="384.48" style="stroke: #000000; stroke-width: 0.8"/>
      </g>
     </g>
     <g id="text_6">
      <!-- 250 -->
      <g transform="translate(462.72673 399.078438) scale(0.1 -0.1)">
       <use xlink:href="#DejaVuSans-32"/>
       <use xlink:href="#DejaVuSans-35" x="63.623047"/>
       <use xlink:href="#DejaVuSans-30" x="127.246094"/>
      </g>
     </g>
    </g>
    <g id="text_7">
     <!-- epoch -->
     <g transform="translate(279.971875 412.756563) scale(0.1 -0.1)">
      <defs>
       <path id="DejaVuSans-65" d="M 3597 1894 
L 3597 1613 
L 953 1613 
Q 991 1019 1311 708 
Q 1631 397 2203 397 
Q 2534 397 2845 478 
Q 3156 559 3463 722 
L 3463 178 
Q 3153 47 2828 -22 
Q 2503 -91 2169 -91 
Q 1331 -91 842 396 
Q 353 884 353 1716 
Q 353 2575 817 3079 
Q 1281 3584 2069 3584 
Q 2775 3584 3186 3129 
Q 3597 2675 3597 1894 
z
M 3022 2063 
Q 3016 2534 2758 2815 
Q 2500 3097 2075 3097 
Q 1594 3097 1305 2825 
Q 1016 2553 972 2059 
L 3022 2063 
z
" transform="scale(0.015625)"/>
       <path id="DejaVuSans-70" d="M 1159 525 
L 1159 -1331 
L 581 -1331 
L 581 3500 
L 1159 3500 
L 1159 2969 
Q 1341 3281 1617 3432 
Q 1894 3584 2278 3584 
Q 2916 3584 3314 3078 
Q 3713 2572 3713 1747 
Q 3713 922 3314 415 
Q 2916 -91 2278 -91 
Q 1894 -91 1617 61 
Q 1341 213 1159 525 
z
M 3116 1747 
Q 3116 2381 2855 2742 
Q 2594 3103 2138 3103 
Q 1681 3103 1420 2742 
Q 1159 2381 1159 1747 
Q 1159 1113 1420 752 
Q 1681 391 2138 391 
Q 2594 391 2855 752 
Q 3116 1113 3116 1747 
z
" transform="scale(0.015625)"/>
       <path id="DejaVuSans-6f" d="M 1959 3097 
Q 1497 3097 1228 2736 
Q 959 2375 959 1747 
Q 959 1119 1226 758 
Q 1494 397 1959 397 
Q 2419 397 2687 759 
Q 2956 1122 2956 1747 
Q 2956 2369 2687 2733 
Q 2419 3097 1959 3097 
z
M 1959 3584 
Q 2709 3584 3137 3096 
Q 3566 2609 3566 1747 
Q 3566 888 3137 398 
Q 2709 -91 1959 -91 
Q 1206 -91 779 398 
Q 353 888 353 1747 
Q 353 2609 779 3096 
Q 1206 3584 1959 3584 
z
" transform="scale(0.015625)"/>
       <path id="DejaVuSans-63" d="M 3122 3366 
L 3122 2828 
Q 2878 2963 2633 3030 
Q 2388 3097 2138 3097 
Q 1578 3097 1268 2742 
Q 959 2388 959 1747 
Q 959 1106 1268 751 
Q 1578 397 2138 397 
Q 2388 397 2633 464 
Q 2878 531 3122 666 
L 3122 134 
Q 2881 22 2623 -34 
Q 2366 -91 2075 -91 
Q 1284 -91 818 406 
Q 353 903 353 1747 
Q 353 2603 823 3093 
Q 1294 3584 2113 3584 
Q 2378 3584 2631 3529 
Q 2884 3475 3122 3366 
z
" transform="scale(0.015625)"/>
       <path id="DejaVuSans-68" d="M 3513 2113 
L 3513 0 
L 2938 0 
L 2938 2094 
Q 2938 2591 2744 2837 
Q 2550 3084 2163 3084 
Q 1697 3084 1428 2787 
Q 1159 2491 1159 1978 
L 1159 0 
L 581 0 
L 581 4863 
L 1159 4863 
L 1159 2956 
Q 1366 3272 1645 3428 
Q 1925 3584 2291 3584 
Q 2894 3584 3203 3211 
Q 3513 2838 3513 2113 
z
" transform="scale(0.015625)"/>
      </defs>
      <use xlink:href="#DejaVuSans-65"/>
      <use xlink:href="#DejaVuSans-70" x="61.523438"/>
      <use xlink:href="#DejaVuSans-6f" x="125"/>
      <use xlink:href="#DejaVuSans-63" x="186.181641"/>
      <use xlink:href="#DejaVuSans-68" x="241.162109"/>
     </g>
    </g>
   </g>
   <g id="matplotlib.axis_2">
    <g id="ytick_1">
     <g id="line2d_7">
      <defs>
       <path id="m09e966f582" d="M 0 0 
L -3.5 0 
" style="stroke: #000000; stroke-width: 0.8"/>
      </defs>
      <g>
       <use xlink:href="#m09e966f582" x="72" y="384.48" style="stroke: #000000; stroke-width: 0.8"/>
      </g>
     </g>
     <g id="text_8">
      <!-- 0 -->
      <g transform="translate(58.6375 388.279219) scale(0.1 -0.1)">
       <use xlink:href="#DejaVuSans-30"/>
      </g>
     </g>
    </g>
    <g id="ytick_2">
     <g id="line2d_8">
      <g>
       <use xlink:href="#m09e966f582" x="72" y="317.952" style="stroke: #000000; stroke-width: 0.8"/>
      </g>
     </g>
     <g id="text_9">
      <!-- 20 -->
      <g transform="translate(52.275 321.751219) scale(0.1 -0.1)">
       <use xlink:href="#DejaVuSans-32"/>
       <use xlink:href="#DejaVuSans-30" x="63.623047"/>
      </g>
     </g>
    </g>
    <g id="ytick_3">
     <g id="line2d_9">
      <g>
       <use xlink:href="#m09e966f582" x="72" y="251.424" style="stroke: #000000; stroke-width: 0.8"/>
      </g>
     </g>
     <g id="text_10">
      <!-- 40 -->
      <g transform="translate(52.275 255.223219) scale(0.1 -0.1)">
       <defs>
        <path id="DejaVuSans-34" d="M 2419 4116 
L 825 1625 
L 2419 1625 
L 2419 4116 
z
M 2253 4666 
L 3047 4666 
L 3047 1625 
L 3713 1625 
L 3713 1100 
L 3047 1100 
L 3047 0 
L 2419 0 
L 2419 1100 
L 313 1100 
L 313 1709 
L 2253 4666 
z
" transform="scale(0.015625)"/>
       </defs>
       <use xlink:href="#DejaVuSans-34"/>
       <use xlink:href="#DejaVuSans-30" x="63.623047"/>
      </g>
     </g>
    </g>
    <g id="ytick_4">
     <g id="line2d_10">
      <g>
       <use xlink:href="#m09e966f582" x="72" y="184.896" style="stroke: #000000; stroke-width: 0.8"/>
      </g>
     </g>
     <g id="text_11">
      <!-- 60 -->
      <g transform="translate(52.275 188.695219) scale(0.1 -0.1)">
       <defs>
        <path id="DejaVuSans-36" d="M 2113 2584 
Q 1688 2584 1439 2293 
Q 1191 2003 1191 1497 
Q 1191 994 1439 701 
Q 1688 409 2113 409 
Q 2538 409 2786 701 
Q 3034 994 3034 1497 
Q 3034 2003 2786 2293 
Q 2538 2584 2113 2584 
z
M 3366 4563 
L 3366 3988 
Q 3128 4100 2886 4159 
Q 2644 4219 2406 4219 
Q 1781 4219 1451 3797 
Q 1122 3375 1075 2522 
Q 1259 2794 1537 2939 
Q 1816 3084 2150 3084 
Q 2853 3084 3261 2657 
Q 3669 2231 3669 1497 
Q 3669 778 3244 343 
Q 2819 -91 2113 -91 
Q 1303 -91 875 529 
Q 447 1150 447 2328 
Q 447 3434 972 4092 
Q 1497 4750 2381 4750 
Q 2619 4750 2861 4703 
Q 3103 4656 3366 4563 
z
" transform="scale(0.015625)"/>
       </defs>
       <use xlink:href="#DejaVuSans-36"/>
       <use xlink:href="#DejaVuSans-30" x="63.623047"/>
      </g>
     </g>
    </g>
    <g id="ytick_5">
     <g id="line2d_11">
      <g>
       <use xlink:href="#m09e966f582" x="72" y="118.368" style="stroke: #000000; stroke-width: 0.8"/>
      </g>
     </g>
     <g id="text_12">
      <!-- 80 -->
      <g transform="translate(52.275 122.167219) scale(0.1 -0.1)">
       <defs>
        <path id="DejaVuSans-38" d="M 2034 2216 
Q 1584 2216 1326 1975 
Q 1069 1734 1069 1313 
Q 1069 891 1326 650 
Q 1584 409 2034 409 
Q 2484 409 2743 651 
Q 3003 894 3003 1313 
Q 3003 1734 2745 1975 
Q 2488 2216 2034 2216 
z
M 1403 2484 
Q 997 2584 770 2862 
Q 544 3141 544 3541 
Q 544 4100 942 4425 
Q 1341 4750 2034 4750 
Q 2731 4750 3128 4425 
Q 3525 4100 3525 3541 
Q 3525 3141 3298 2862 
Q 3072 2584 2669 2484 
Q 3125 2378 3379 2068 
Q 3634 1759 3634 1313 
Q 3634 634 3220 271 
Q 2806 -91 2034 -91 
Q 1263 -91 848 271 
Q 434 634 434 1313 
Q 434 1759 690 2068 
Q 947 2378 1403 2484 
z
M 1172 3481 
Q 1172 3119 1398 2916 
Q 1625 2713 2034 2713 
Q 2441 2713 2670 2916 
Q 2900 3119 2900 3481 
Q 2900 3844 2670 4047 
Q 2441 4250 2034 4250 
Q 1625 4250 1398 4047 
Q 1172 3844 1172 3481 
z
" transform="scale(0.015625)"/>
       </defs>
       <use xlink:href="#DejaVuSans-38"/>
       <use xlink:href="#DejaVuSans-30" x="63.623047"/>
      </g>
     </g>
    </g>
    <g id="ytick_6">
     <g id="line2d_12">
      <g>
       <use xlink:href="#m09e966f582" x="72" y="51.84" style="stroke: #000000; stroke-width: 0.8"/>
      </g>
     </g>
     <g id="text_13">
      <!-- 100 -->
      <g transform="translate(45.9125 55.639219) scale(0.1 -0.1)">
       <use xlink:href="#DejaVuSans-31"/>
       <use xlink:href="#DejaVuSans-30" x="63.623047"/>
       <use xlink:href="#DejaVuSans-30" x="127.246094"/>
      </g>
     </g>
    </g>
    <g id="text_14">
     <!-- rate -->
     <g transform="translate(39.832812 228.31625) rotate(-90) scale(0.1 -0.1)">
      <defs>
       <path id="DejaVuSans-72" d="M 2631 2963 
Q 2534 3019 2420 3045 
Q 2306 3072 2169 3072 
Q 1681 3072 1420 2755 
Q 1159 2438 1159 1844 
L 1159 0 
L 581 0 
L 581 3500 
L 1159 3500 
L 1159 2956 
Q 1341 3275 1631 3429 
Q 1922 3584 2338 3584 
Q 2397 3584 2469 3576 
Q 2541 3569 2628 3553 
L 2631 2963 
z
" transform="scale(0.015625)"/>
       <path id="DejaVuSans-61" d="M 2194 1759 
Q 1497 1759 1228 1600 
Q 959 1441 959 1056 
Q 959 750 1161 570 
Q 1363 391 1709 391 
Q 2188 391 2477 730 
Q 2766 1069 2766 1631 
L 2766 1759 
L 2194 1759 
z
M 3341 1997 
L 3341 0 
L 2766 0 
L 2766 531 
Q 2569 213 2275 61 
Q 1981 -91 1556 -91 
Q 1019 -91 701 211 
Q 384 513 384 1019 
Q 384 1609 779 1909 
Q 1175 2209 1959 2209 
L 2766 2209 
L 2766 2266 
Q 2766 2663 2505 2880 
Q 2244 3097 1772 3097 
Q 1472 3097 1187 3025 
Q 903 2953 641 2809 
L 641 3341 
Q 956 3463 1253 3523 
Q 1550 3584 1831 3584 
Q 2591 3584 2966 3190 
Q 3341 2797 3341 1997 
z
" transform="scale(0.015625)"/>
       <path id="DejaVuSans-74" d="M 1172 4494 
L 1172 3500 
L 2356 3500 
L 2356 3053 
L 1172 3053 
L 1172 1153 
Q 1172 725 1289 603 
Q 1406 481 1766 481 
L 2356 481 
L 2356 0 
L 1766 0 
Q 1100 0 847 248 
Q 594 497 594 1153 
L 594 3053 
L 172 3053 
L 172 3500 
L 594 3500 
L 594 4494 
L 1172 4494 
z
" transform="scale(0.015625)"/>
      </defs>
      <use xlink:href="#DejaVuSans-72"/>
      <use xlink:href="#DejaVuSans-61" x="41.113281"/>
      <use xlink:href="#DejaVuSans-74" x="102.392578"/>
      <use xlink:href="#DejaVuSans-65" x="141.601562"/>
     </g>
    </g>
   </g>
   <g id="line2d_13">
    <path d="M 92.290909 203.58874 
L 93.810827 200.872514 
L 95.330746 218.249484 
L 96.850664 213.132612 
L 98.370582 151.026268 
L 99.890501 126.182193 
L 101.410419 121.188837 
L 102.930337 120.60059 
L 104.450255 109.708935 
L 105.970174 177.666158 
L 107.490092 122.311654 
L 109.01001 116.59887 
L 110.529928 154.637997 
L 113.569765 98.594862 
L 115.089683 113.438877 
L 116.609602 140.156539 
L 118.12952 114.574485 
L 119.649438 55.590879 
L 121.169356 140.102483 
L 124.209193 74.934411 
L 125.729111 66.642013 
L 127.24903 116.495377 
L 128.768948 111.434388 
L 130.288866 97.458087 
L 131.808784 81.77892 
L 133.328703 60.815712 
L 134.848621 194.077506 
L 136.368539 87.890779 
L 137.888458 162.163079 
L 139.408376 81.096037 
L 140.928294 189.055675 
L 142.448212 74.487116 
L 143.968131 75.380183 
L 145.488049 144.257286 
L 147.007967 148.505252 
L 148.527886 111.284833 
L 150.047804 64.496471 
L 151.567722 109.173805 
L 153.08764 130.599052 
L 154.607559 69.308193 
L 156.127477 119.119582 
L 157.647395 120.067466 
L 159.167314 160.08814 
L 160.687232 124.294064 
L 162.20715 85.475692 
L 163.727068 70.656879 
L 165.246987 76.946996 
L 166.766905 68.317522 
L 168.286823 98.457311 
L 169.806742 60.373189 
L 171.32666 147.922107 
L 174.366496 77.523213 
L 175.886415 128.176505 
L 177.406333 126.470847 
L 178.926251 107.446499 
L 180.44617 141.286209 
L 181.966088 57.387519 
L 183.486006 110.899157 
L 185.005924 119.238759 
L 186.525843 118.815675 
L 188.045761 138.050105 
L 189.565679 94.630119 
L 191.085598 83.103952 
L 192.605516 73.658105 
L 194.125434 65.079921 
L 195.645352 80.875803 
L 197.165271 119.401714 
L 198.685189 118.58694 
L 200.205107 108.790337 
L 201.725026 76.057939 
L 203.244944 74.09068 
L 204.764862 75.00141 
L 206.28478 175.115703 
L 207.804699 65.302261 
L 209.324617 96.580247 
L 210.844535 73.316207 
L 212.364454 120.88696 
L 213.884372 133.957531 
L 215.40429 140.852035 
L 216.924208 85.704276 
L 218.444127 109.451039 
L 221.483963 175.547073 
L 223.003882 62.416506 
L 224.5238 93.858641 
L 226.043718 111.331935 
L 227.563636 70.20395 
L 229.083555 85.041696 
L 230.603473 66.305318 
L 232.123391 106.222904 
L 233.643309 125.638485 
L 235.163228 65.600559 
L 236.683146 63.337565 
L 238.203064 65.955425 
L 239.722983 119.971358 
L 241.242901 65.909262 
L 242.762819 121.880272 
L 244.282737 69.934685 
L 245.802656 98.379679 
L 247.322574 93.474817 
L 248.842492 110.391969 
L 250.362411 65.917282 
L 251.882329 71.710997 
L 253.402247 66.545677 
L 254.922165 60.664203 
L 256.442084 88.619977 
L 257.962002 121.889103 
L 259.48192 105.270731 
L 261.001839 63.826125 
L 262.521757 105.478073 
L 264.041675 116.708556 
L 265.561593 129.28846 
L 267.081512 102.36272 
L 268.60143 70.196641 
L 270.121348 97.743645 
L 271.641267 64.022047 
L 273.161185 102.271941 
L 274.681103 132.68965 
L 276.201021 72.737021 
L 277.72094 98.478502 
L 279.240858 56.473414 
L 280.760776 70.910891 
L 282.280695 78.270734 
L 283.800613 63.312162 
L 285.320531 70.039143 
L 286.840449 136.833007 
L 288.360368 63.601044 
L 289.880286 116.009381 
L 291.400204 118.636859 
L 292.920123 68.848387 
L 294.440041 57.680335 
L 295.959959 91.923257 
L 297.479877 67.317434 
L 298.999796 100.602778 
L 300.519714 61.189409 
L 302.039632 127.465605 
L 303.559551 75.435305 
L 305.079469 60.876747 
L 306.599387 119.16676 
L 308.119305 68.543796 
L 309.639224 133.191483 
L 311.159142 59.055516 
L 312.67906 111.883027 
L 314.198979 99.007642 
L 315.718897 134.654828 
L 317.238815 112.142547 
L 318.758733 63.323683 
L 320.278652 100.271031 
L 321.79857 97.942739 
L 323.318488 59.795601 
L 324.838407 69.525915 
L 326.358325 71.709296 
L 327.878243 59.085183 
L 329.398161 71.18211 
L 330.91808 118.50413 
L 332.437998 86.147916 
L 333.957916 81.831732 
L 335.477835 100.727335 
L 336.997753 125.482839 
L 338.517671 84.85014 
L 340.037589 107.972746 
L 341.557508 94.868143 
L 343.077426 144.724578 
L 344.597344 107.926304 
L 346.117263 129.155579 
L 347.637181 64.593797 
L 349.157099 94.422651 
L 350.677017 64.764112 
L 352.196936 138.527093 
L 353.716854 98.362396 
L 355.236772 93.702462 
L 356.756691 56.889036 
L 358.276609 65.856703 
L 359.796527 62.621234 
L 361.316445 72.000361 
L 362.836364 103.345144 
L 364.356282 121.378896 
L 365.8762 73.472183 
L 367.396118 86.811155 
L 368.916037 122.572493 
L 370.435955 62.274971 
L 371.955873 80.393334 
L 373.475792 55.849663 
L 374.99571 92.551094 
L 376.515628 64.14531 
L 378.035546 78.180514 
L 379.555465 96.635725 
L 381.075383 59.044349 
L 382.595301 96.532511 
L 384.11522 117.016904 
L 385.635138 78.843423 
L 387.155056 66.128481 
L 388.674974 117.934664 
L 390.194893 92.387606 
L 391.714811 97.674489 
L 393.234729 83.09474 
L 394.754648 64.598111 
L 396.274566 61.702256 
L 397.794484 116.12333 
L 399.314402 119.732166 
L 400.834321 126.276854 
L 402.354239 66.514157 
L 403.874157 65.963216 
L 405.394076 113.347032 
L 406.913994 96.537992 
L 408.433912 71.694678 
L 409.95383 138.853687 
L 411.473749 65.860307 
L 412.993667 124.59363 
L 414.513585 99.626165 
L 416.033504 115.820311 
L 417.553422 92.126843 
L 419.07334 63.562875 
L 420.593258 102.832906 
L 422.113177 71.240582 
L 423.633095 154.513339 
L 425.153013 102.68226 
L 426.672932 105.516978 
L 428.19285 109.060135 
L 429.712768 64.87367 
L 431.232686 135.547666 
L 432.752605 70.648529 
L 434.272523 105.748734 
L 435.792441 59.711243 
L 437.31236 127.065945 
L 438.832278 107.133076 
L 440.352196 67.318043 
L 441.872114 66.905593 
L 443.392033 63.199811 
L 444.911951 79.006556 
L 446.431869 67.647151 
L 447.951788 72.414233 
L 449.471706 105.465815 
L 450.991624 66.927825 
L 452.511542 89.296921 
L 454.031461 118.84113 
L 455.551379 57.453833 
L 457.071297 127.322496 
L 458.591216 64.484213 
L 460.111134 110.773407 
L 461.631052 66.964395 
L 463.15097 75.245677 
L 464.670889 106.458416 
L 466.190807 120.818058 
L 467.710725 55.112801 
L 469.230644 93.031431 
L 470.750562 118.735099 
L 472.27048 98.881689 
L 473.790398 66.40305 
L 475.310317 111.345183 
L 476.830235 138.884294 
L 478.350153 129.973043 
L 479.870072 104.400176 
L 481.38999 66.67833 
L 482.909908 55.710006 
L 484.429826 74.242494 
L 485.949745 76.478333 
L 487.469663 89.888542 
L 488.989581 59.308335 
L 490.509499 117.66111 
L 492.029418 69.874158 
L 493.549336 117.928243 
L 495.069254 90.107254 
L 496.589173 152.712232 
L 498.109091 118.931604 
L 498.109091 118.931604 
" clip-path="url(#pfa06cc9bfb)" style="fill: none; stroke: #0000ff; stroke-width: 1.5; stroke-linecap: square"/>
   </g>
   <g id="line2d_14">
    <path d="M 92.290909 219.025429 
L 93.810827 215.532484 
L 95.330746 219.288413 
L 96.850664 215.592859 
L 98.370582 184.699305 
L 99.890501 181.778794 
L 101.410419 182.68016 
L 102.930337 185.208142 
L 104.450255 169.919383 
L 105.970174 171.865299 
L 107.490092 183.360733 
L 109.01001 184.650578 
L 110.529928 74.928117 
L 112.049847 153.785206 
L 113.569765 181.238805 
L 115.089683 165.44324 
L 116.609602 82.012909 
L 118.12952 127.671703 
L 119.649438 135.832717 
L 121.169356 160.654002 
L 122.689275 87.204089 
L 125.729111 162.653162 
L 127.24903 159.95673 
L 128.768948 100.602092 
L 130.288866 68.663201 
L 131.808784 118.674368 
L 133.328703 125.511974 
L 134.848621 73.54375 
L 136.368539 101.49757 
L 137.888458 134.779893 
L 139.408376 121.164093 
L 140.928294 68.49517 
L 142.448212 97.601196 
L 143.968131 109.816742 
L 145.488049 84.37602 
L 147.007967 71.520582 
L 148.527886 105.420134 
L 150.047804 67.048702 
L 151.567722 113.277775 
L 153.08764 73.50251 
L 154.607559 73.565195 
L 156.127477 74.134991 
L 157.647395 87.207769 
L 159.167314 67.15118 
L 160.687232 98.070494 
L 162.20715 114.729039 
L 163.727068 115.132252 
L 165.246987 70.239125 
L 166.766905 101.773306 
L 168.286823 103.026163 
L 169.806742 125.598159 
L 171.32666 67.760516 
L 172.846578 81.803181 
L 174.366496 75.233394 
L 175.886415 66.36285 
L 177.406333 78.205765 
L 178.926251 91.965131 
L 180.44617 76.750719 
L 181.966088 117.994963 
L 183.486006 74.59599 
L 185.005924 95.743978 
L 186.525843 104.715299 
L 188.045761 74.874137 
L 189.565679 80.869002 
L 191.085598 72.912487 
L 192.605516 116.862349 
L 194.125434 72.616169 
L 195.645352 77.815318 
L 197.165271 116.855396 
L 198.685189 84.961576 
L 200.205107 118.921782 
L 201.725026 71.940443 
L 203.244944 89.490507 
L 204.764862 85.527185 
L 206.28478 98.579001 
L 207.804699 69.461276 
L 209.324617 122.739788 
L 210.844535 98.606968 
L 212.364454 109.060034 
L 213.884372 63.78519 
L 215.40429 74.730115 
L 216.924208 101.371744 
L 218.444127 84.814458 
L 219.964045 75.361758 
L 221.483963 102.954392 
L 223.003882 107.629503 
L 224.5238 86.967791 
L 226.043718 75.43698 
L 227.563636 69.272486 
L 229.083555 70.117308 
L 230.603473 117.246401 
L 232.123391 76.419201 
L 233.643309 69.272486 
L 235.163228 82.300954 
L 236.683146 125.542986 
L 238.203064 70.929341 
L 239.722983 113.313 
L 241.242901 111.945966 
L 242.762819 118.17685 
L 244.282737 75.567983 
L 245.802656 71.424373 
L 247.322574 70.931219 
L 248.842492 64.164166 
L 250.362411 76.624944 
L 251.882329 77.731443 
L 253.402247 102.585187 
L 254.922165 111.823566 
L 256.442084 93.53471 
L 257.962002 109.650184 
L 259.48192 103.516042 
L 261.001839 126.298984 
L 262.521757 80.191297 
L 264.041675 73.527533 
L 265.561593 69.65537 
L 267.081512 78.387779 
L 268.60143 68.346377 
L 270.121348 111.486211 
L 271.641267 103.79754 
L 273.161185 103.40392 
L 274.681103 65.017439 
L 276.201021 123.390592 
L 277.72094 123.874685 
L 279.240858 64.755204 
L 280.760776 83.372481 
L 282.280695 74.968748 
L 283.800613 109.840725 
L 285.320531 116.425409 
L 286.840449 70.041985 
L 288.360368 69.98298 
L 289.880286 73.51025 
L 291.400204 103.159272 
L 292.920123 79.841227 
L 294.440041 112.489572 
L 295.959959 122.475801 
L 297.479877 105.564639 
L 298.999796 77.64541 
L 300.519714 111.154007 
L 302.039632 114.45612 
L 303.559551 119.530814 
L 305.079469 77.977639 
L 306.599387 75.221898 
L 308.119305 117.963773 
L 309.639224 125.147895 
L 311.159142 77.229787 
L 312.67906 112.762009 
L 314.198979 153.26873 
L 315.718897 122.501891 
L 317.238815 114.681988 
L 318.758733 110.915628 
L 320.278652 119.714021 
L 321.79857 117.855559 
L 323.318488 77.229787 
L 324.838407 79.757427 
L 326.358325 129.215852 
L 327.878243 123.005906 
L 329.398161 79.936726 
L 330.91808 91.355669 
L 332.437998 124.985219 
L 333.957916 111.758826 
L 335.477835 116.064401 
L 336.997753 116.797127 
L 338.517671 124.058958 
L 340.037589 74.618526 
L 341.557508 81.668524 
L 343.077426 76.048727 
L 344.597344 86.735629 
L 346.117263 121.705998 
L 347.637181 76.829215 
L 349.157099 84.518571 
L 350.677017 124.081316 
L 352.196936 128.917149 
L 353.716854 74.225186 
L 355.236772 130.378006 
L 356.756691 123.069276 
L 358.276609 123.580524 
L 359.796527 77.051428 
L 361.316445 125.60897 
L 362.836364 110.820966 
L 364.356282 126.637761 
L 365.8762 76.683213 
L 367.396118 79.07155 
L 368.916037 117.047612 
L 370.435955 107.808979 
L 371.955873 81.736995 
L 373.475792 118.071555 
L 374.99571 123.399576 
L 376.515628 129.25458 
L 378.035546 71.44597 
L 379.555465 73.950997 
L 381.075383 112.939125 
L 382.595301 125.75482 
L 384.11522 85.862561 
L 385.635138 111.757125 
L 387.155056 111.781159 
L 388.674974 112.37514 
L 390.194893 72.084161 
L 391.714811 72.295309 
L 393.234729 119.087224 
L 394.754648 136.163956 
L 396.274566 77.733752 
L 397.794484 116.697999 
L 399.314402 79.534605 
L 400.834321 125.045214 
L 402.354239 90.298404 
L 403.874157 131.818739 
L 405.394076 122.895561 
L 406.913994 130.112954 
L 408.433912 76.023221 
L 409.95383 132.162566 
L 411.473749 114.711173 
L 412.993667 124.444025 
L 414.513585 82.250527 
L 416.033504 112.127016 
L 417.553422 135.609539 
L 419.07334 112.879156 
L 420.593258 80.584967 
L 422.113177 126.600353 
L 423.633095 135.130014 
L 425.153013 130.871211 
L 426.672932 78.120621 
L 428.19285 117.701207 
L 429.712768 112.406001 
L 431.232686 113.165247 
L 432.752605 78.725414 
L 434.272523 124.908399 
L 435.792441 124.908399 
L 437.31236 125.212026 
L 438.832278 69.282714 
L 440.352196 116.504209 
L 441.872114 112.654988 
L 443.392033 111.253161 
L 444.911951 79.825771 
L 446.431869 109.572145 
L 447.951788 120.385432 
L 449.471706 130.378006 
L 450.991624 80.914023 
L 452.511542 83.624997 
L 454.031461 133.884416 
L 455.551379 129.253565 
L 457.071297 74.583377 
L 458.591216 78.365218 
L 460.111134 71.674147 
L 461.631052 84.07861 
L 463.15097 81.174152 
L 464.670889 131.929668 
L 466.190807 123.799616 
L 467.710725 118.682083 
L 469.230644 79.872163 
L 470.750562 116.316409 
L 472.27048 130.90603 
L 473.790398 105.628516 
L 475.310317 73.333414 
L 476.830235 88.499607 
L 478.350153 136.590415 
L 479.870072 130.025957 
L 481.38999 68.740072 
L 482.909908 141.378155 
L 484.429826 109.475225 
L 485.949745 116.692517 
L 487.469663 94.176505 
L 488.989581 112.567889 
L 490.509499 135.590632 
L 492.029418 131.046423 
L 493.549336 69.788379 
L 495.069254 105.851415 
L 496.589173 127.154947 
L 498.109091 106.878556 
L 498.109091 106.878556 
" clip-path="url(#pfa06cc9bfb)" style="fill: none; stroke: #008000; stroke-width: 1.5; stroke-linecap: square"/>
   </g>
   <g id="patch_3">
    <path d="M 72 384.48 
L 72 51.84 
" style="fill: none; stroke: #000000; stroke-width: 0.8; stroke-linejoin: miter; stroke-linecap: square"/>
   </g>
   <g id="patch_4">
    <path d="M 518.4 384.48 
L 518.4 51.84 
" style="fill: none; stroke: #000000; stroke-width: 0.8; stroke-linejoin: miter; stroke-linecap: square"/>
   </g>
   <g id="patch_5">
    <path d="M 72 384.48 
L 518.4 384.48 
" style="fill: none; stroke: #000000; stroke-width: 0.8; stroke-linejoin: miter; stroke-linecap: square"/>
   </g>
   <g id="patch_6">
    <path d="M 72 51.84 
L 518.4 51.84 
" style="fill: none; stroke: #000000; stroke-width: 0.8; stroke-linejoin: miter; stroke-linecap: square"/>
   </g>
   <g id="legend_1">
    <g id="patch_7">
     <path d="M 79 89.19625 
L 160.740625 89.19625 
Q 162.740625 89.19625 162.740625 87.19625 
L 162.740625 58.84 
Q 162.740625 56.84 160.740625 56.84 
L 79 56.84 
Q 77 56.84 77 58.84 
L 77 87.19625 
Q 77 89.19625 79 89.19625 
z
" style="fill: #ffffff; opacity: 0.8; stroke: #cccccc; stroke-linejoin: miter"/>
    </g>
    <g id="line2d_15">
     <path d="M 81 64.938437 
L 91 64.938437 
L 101 64.938437 
" style="fill: none; stroke: #0000ff; stroke-width: 1.5; stroke-linecap: square"/>
    </g>
    <g id="text_15">
     <!-- train mAP -->
     <g transform="translate(109 68.438437) scale(0.1 -0.1)">
      <defs>
       <path id="DejaVuSans-69" d="M 603 3500 
L 1178 3500 
L 1178 0 
L 603 0 
L 603 3500 
z
M 603 4863 
L 1178 4863 
L 1178 4134 
L 603 4134 
L 603 4863 
z
" transform="scale(0.015625)"/>
       <path id="DejaVuSans-6e" d="M 3513 2113 
L 3513 0 
L 2938 0 
L 2938 2094 
Q 2938 2591 2744 2837 
Q 2550 3084 2163 3084 
Q 1697 3084 1428 2787 
Q 1159 2491 1159 1978 
L 1159 0 
L 581 0 
L 581 3500 
L 1159 3500 
L 1159 2956 
Q 1366 3272 1645 3428 
Q 1925 3584 2291 3584 
Q 2894 3584 3203 3211 
Q 3513 2838 3513 2113 
z
" transform="scale(0.015625)"/>
       <path id="DejaVuSans-20" transform="scale(0.015625)"/>
       <path id="DejaVuSans-6d" d="M 3328 2828 
Q 3544 3216 3844 3400 
Q 4144 3584 4550 3584 
Q 5097 3584 5394 3201 
Q 5691 2819 5691 2113 
L 5691 0 
L 5113 0 
L 5113 2094 
Q 5113 2597 4934 2840 
Q 4756 3084 4391 3084 
Q 3944 3084 3684 2787 
Q 3425 2491 3425 1978 
L 3425 0 
L 2847 0 
L 2847 2094 
Q 2847 2600 2669 2842 
Q 2491 3084 2119 3084 
Q 1678 3084 1418 2786 
Q 1159 2488 1159 1978 
L 1159 0 
L 581 0 
L 581 3500 
L 1159 3500 
L 1159 2956 
Q 1356 3278 1631 3431 
Q 1906 3584 2284 3584 
Q 2666 3584 2933 3390 
Q 3200 3197 3328 2828 
z
" transform="scale(0.015625)"/>
       <path id="DejaVuSans-41" d="M 2188 4044 
L 1331 1722 
L 3047 1722 
L 2188 4044 
z
M 1831 4666 
L 2547 4666 
L 4325 0 
L 3669 0 
L 3244 1197 
L 1141 1197 
L 716 0 
L 50 0 
L 1831 4666 
z
" transform="scale(0.015625)"/>
       <path id="DejaVuSans-50" d="M 1259 4147 
L 1259 2394 
L 2053 2394 
Q 2494 2394 2734 2622 
Q 2975 2850 2975 3272 
Q 2975 3691 2734 3919 
Q 2494 4147 2053 4147 
L 1259 4147 
z
M 628 4666 
L 2053 4666 
Q 2838 4666 3239 4311 
Q 3641 3956 3641 3272 
Q 3641 2581 3239 2228 
Q 2838 1875 2053 1875 
L 1259 1875 
L 1259 0 
L 628 0 
L 628 4666 
z
" transform="scale(0.015625)"/>
      </defs>
      <use xlink:href="#DejaVuSans-74"/>
      <use xlink:href="#DejaVuSans-72" x="39.208984"/>
      <use xlink:href="#DejaVuSans-61" x="80.322266"/>
      <use xlink:href="#DejaVuSans-69" x="141.601562"/>
      <use xlink:href="#DejaVuSans-6e" x="169.384766"/>
      <use xlink:href="#DejaVuSans-20" x="232.763672"/>
      <use xlink:href="#DejaVuSans-6d" x="264.550781"/>
      <use xlink:href="#DejaVuSans-41" x="361.962891"/>
      <use xlink:href="#DejaVuSans-50" x="430.371094"/>
     </g>
    </g>
    <g id="line2d_16">
     <path d="M 81 79.616562 
L 91 79.616562 
L 101 79.616562 
" style="fill: none; stroke: #008000; stroke-width: 1.5; stroke-linecap: square"/>
    </g>
    <g id="text_16">
     <!-- valid mAP -->
     <g transform="translate(109 83.116562) scale(0.1 -0.1)">
      <defs>
       <path id="DejaVuSans-76" d="M 191 3500 
L 800 3500 
L 1894 563 
L 2988 3500 
L 3597 3500 
L 2284 0 
L 1503 0 
L 191 3500 
z
" transform="scale(0.015625)"/>
       <path id="DejaVuSans-6c" d="M 603 4863 
L 1178 4863 
L 1178 0 
L 603 0 
L 603 4863 
z
" transform="scale(0.015625)"/>
       <path id="DejaVuSans-64" d="M 2906 2969 
L 2906 4863 
L 3481 4863 
L 3481 0 
L 2906 0 
L 2906 525 
Q 2725 213 2448 61 
Q 2172 -91 1784 -91 
Q 1150 -91 751 415 
Q 353 922 353 1747 
Q 353 2572 751 3078 
Q 1150 3584 1784 3584 
Q 2172 3584 2448 3432 
Q 2725 3281 2906 2969 
z
M 947 1747 
Q 947 1113 1208 752 
Q 1469 391 1925 391 
Q 2381 391 2643 752 
Q 2906 1113 2906 1747 
Q 2906 2381 2643 2742 
Q 2381 3103 1925 3103 
Q 1469 3103 1208 2742 
Q 947 2381 947 1747 
z
" transform="scale(0.015625)"/>
      </defs>
      <use xlink:href="#DejaVuSans-76"/>
      <use xlink:href="#DejaVuSans-61" x="59.179688"/>
      <use xlink:href="#DejaVuSans-6c" x="120.458984"/>
      <use xlink:href="#DejaVuSans-69" x="148.242188"/>
      <use xlink:href="#DejaVuSans-64" x="176.025391"/>
      <use xlink:href="#DejaVuSans-20" x="239.501953"/>
      <use xlink:href="#DejaVuSans-6d" x="271.289062"/>
      <use xlink:href="#DejaVuSans-41" x="368.701172"/>
      <use xlink:href="#DejaVuSans-50" x="437.109375"/>
     </g>
    </g>
   </g>
  </g>
  <g id="axes_2">
   <g id="matplotlib.axis_3">
    <g id="ytick_7">
     <g id="line2d_17">
      <defs>
       <path id="m99b8f4b52e" d="M 0 0 
L 3.5 0 
" style="stroke: #000000; stroke-width: 0.8"/>
      </defs>
      <g>
       <use xlink:href="#m99b8f4b52e" x="518.4" y="335.026085" style="stroke: #000000; stroke-width: 0.8"/>
      </g>
     </g>
     <g id="text_17">
      <!-- 0.2 -->
      <g transform="translate(525.4 338.825303) scale(0.1 -0.1)">
       <defs>
        <path id="DejaVuSans-2e" d="M 684 794 
L 1344 794 
L 1344 0 
L 684 0 
L 684 794 
z
" transform="scale(0.015625)"/>
       </defs>
       <use xlink:href="#DejaVuSans-30"/>
       <use xlink:href="#DejaVuSans-2e" x="63.623047"/>
       <use xlink:href="#DejaVuSans-32" x="95.410156"/>
      </g>
     </g>
    </g>
    <g id="ytick_8">
     <g id="line2d_18">
      <g>
       <use xlink:href="#m99b8f4b52e" x="518.4" y="274.435159" style="stroke: #000000; stroke-width: 0.8"/>
      </g>
     </g>
     <g id="text_18">
      <!-- 0.4 -->
      <g transform="translate(525.4 278.234378) scale(0.1 -0.1)">
       <use xlink:href="#DejaVuSans-30"/>
       <use xlink:href="#DejaVuSans-2e" x="63.623047"/>
       <use xlink:href="#DejaVuSans-34" x="95.410156"/>
      </g>
     </g>
    </g>
    <g id="ytick_9">
     <g id="line2d_19">
      <g>
       <use xlink:href="#m99b8f4b52e" x="518.4" y="213.844233" style="stroke: #000000; stroke-width: 0.8"/>
      </g>
     </g>
     <g id="text_19">
      <!-- 0.6 -->
      <g transform="translate(525.4 217.643452) scale(0.1 -0.1)">
       <use xlink:href="#DejaVuSans-30"/>
       <use xlink:href="#DejaVuSans-2e" x="63.623047"/>
       <use xlink:href="#DejaVuSans-36" x="95.410156"/>
      </g>
     </g>
    </g>
    <g id="ytick_10">
     <g id="line2d_20">
      <g>
       <use xlink:href="#m99b8f4b52e" x="518.4" y="153.253307" style="stroke: #000000; stroke-width: 0.8"/>
      </g>
     </g>
     <g id="text_20">
      <!-- 0.8 -->
      <g transform="translate(525.4 157.052526) scale(0.1 -0.1)">
       <use xlink:href="#DejaVuSans-30"/>
       <use xlink:href="#DejaVuSans-2e" x="63.623047"/>
       <use xlink:href="#DejaVuSans-38" x="95.410156"/>
      </g>
     </g>
    </g>
    <g id="ytick_11">
     <g id="line2d_21">
      <g>
       <use xlink:href="#m99b8f4b52e" x="518.4" y="92.662382" style="stroke: #000000; stroke-width: 0.8"/>
      </g>
     </g>
     <g id="text_21">
      <!-- 1.0 -->
      <g transform="translate(525.4 96.4616) scale(0.1 -0.1)">
       <use xlink:href="#DejaVuSans-31"/>
       <use xlink:href="#DejaVuSans-2e" x="63.623047"/>
       <use xlink:href="#DejaVuSans-30" x="95.410156"/>
      </g>
     </g>
    </g>
    <g id="text_22">
     <!-- loss -->
     <g transform="translate(552.901563 227.817812) rotate(-90) scale(0.1 -0.1)">
      <defs>
       <path id="DejaVuSans-73" d="M 2834 3397 
L 2834 2853 
Q 2591 2978 2328 3040 
Q 2066 3103 1784 3103 
Q 1356 3103 1142 2972 
Q 928 2841 928 2578 
Q 928 2378 1081 2264 
Q 1234 2150 1697 2047 
L 1894 2003 
Q 2506 1872 2764 1633 
Q 3022 1394 3022 966 
Q 3022 478 2636 193 
Q 2250 -91 1575 -91 
Q 1294 -91 989 -36 
Q 684 19 347 128 
L 347 722 
Q 666 556 975 473 
Q 1284 391 1588 391 
Q 1994 391 2212 530 
Q 2431 669 2431 922 
Q 2431 1156 2273 1281 
Q 2116 1406 1581 1522 
L 1381 1569 
Q 847 1681 609 1914 
Q 372 2147 372 2553 
Q 372 3047 722 3315 
Q 1072 3584 1716 3584 
Q 2034 3584 2315 3537 
Q 2597 3491 2834 3397 
z
" transform="scale(0.015625)"/>
      </defs>
      <use xlink:href="#DejaVuSans-6c"/>
      <use xlink:href="#DejaVuSans-6f" x="27.783203"/>
      <use xlink:href="#DejaVuSans-73" x="88.964844"/>
      <use xlink:href="#DejaVuSans-73" x="141.064453"/>
     </g>
    </g>
   </g>
   <g id="line2d_22">
    <path d="M 92.290909 298.780824 
L 93.810827 336.089322 
L 95.330746 260.252666 
L 96.850664 305.945436 
L 98.370582 362.381462 
L 99.890501 351.107213 
L 101.410419 355.248282 
L 104.450255 342.035089 
L 105.970174 359.714423 
L 107.490092 348.462787 
L 109.01001 335.047031 
L 110.529928 347.059219 
L 112.049847 369.36 
L 113.569765 349.302846 
L 115.089683 350.496383 
L 116.609602 339.317527 
L 118.12952 363.59846 
L 119.649438 360.368235 
L 121.169356 362.218054 
L 122.689275 332.805031 
L 124.209193 368.745393 
L 125.729111 357.211518 
L 127.24903 350.384643 
L 128.768948 327.677067 
L 130.288866 369.243358 
L 131.808784 362.324091 
L 133.328703 363.813492 
L 134.848621 336.76999 
L 136.368539 361.220291 
L 137.888458 363.596494 
L 139.408376 366.825786 
L 140.928294 336.351236 
L 142.448212 368.435835 
L 143.968131 362.344691 
L 145.488049 368.104659 
L 147.007967 342.144308 
L 148.527886 367.291738 
L 150.047804 366.047731 
L 151.567722 361.937318 
L 153.08764 346.721845 
L 154.607559 367.023961 
L 156.127477 361.465909 
L 157.647395 365.346416 
L 159.167314 343.064773 
L 160.687232 363.451292 
L 162.20715 362.079114 
L 163.727068 363.73901 
L 165.246987 348.078581 
L 166.766905 361.734903 
L 168.286823 357.600381 
L 169.806742 351.409188 
L 171.32666 339.744119 
L 172.846578 354.483078 
L 174.366496 354.967552 
L 175.886415 359.319847 
L 177.406333 343.53444 
L 178.926251 355.545799 
L 180.44617 364.686443 
L 181.966088 359.90148 
L 183.486006 340.802603 
L 185.005924 350.16693 
L 186.525843 358.814492 
L 188.045761 350.058149 
L 189.565679 333.472597 
L 191.085598 354.986542 
L 192.605516 359.970382 
L 194.125434 356.867758 
L 195.645352 330.778633 
L 197.165271 350.603737 
L 198.685189 360.094767 
L 200.205107 364.764886 
L 201.725026 319.988935 
L 203.244944 351.413831 
L 204.764862 361.248336 
L 206.28478 362.522457 
L 207.804699 316.598967 
L 209.324617 352.438881 
L 210.844535 363.469838 
L 212.364454 354.521693 
L 213.884372 316.655878 
L 215.40429 350.909302 
L 216.924208 361.160742 
L 218.444127 360.958959 
L 219.964045 319.316353 
L 221.483963 345.625654 
L 223.003882 356.886874 
L 224.5238 347.560601 
L 226.043718 292.078023 
L 227.563636 345.328597 
L 229.083555 356.312946 
L 230.603473 358.422986 
L 232.123391 304.35139 
L 233.643309 341.27641 
L 235.163228 352.033719 
L 236.683146 359.171668 
L 238.203064 303.545691 
L 241.242901 349.333583 
L 242.762819 353.18328 
L 244.282737 291.981875 
L 245.802656 325.543536 
L 247.322574 335.913154 
L 248.842492 359.861402 
L 250.362411 299.712448 
L 251.882329 312.999341 
L 253.402247 347.525405 
L 254.922165 356.027691 
L 256.442084 300.679419 
L 257.962002 317.089473 
L 259.48192 340.799386 
L 261.001839 350.177348 
L 262.521757 294.69832 
L 264.041675 313.432003 
L 265.561593 338.889443 
L 267.081512 350.094043 
L 268.60143 294.305545 
L 270.121348 304.12848 
L 271.641267 323.463722 
L 273.161185 349.292307 
L 274.681103 279.874096 
L 276.201021 249.961625 
L 277.72094 309.704262 
L 279.240858 332.974451 
L 280.760776 288.771326 
L 282.280695 302.568834 
L 283.800613 318.505163 
L 286.840449 297.342836 
L 288.360368 305.190727 
L 289.880286 316.177684 
L 291.400204 340.313926 
L 292.920123 294.226582 
L 294.440041 281.662427 
L 295.959959 289.862327 
L 297.479877 323.868724 
L 298.999796 273.072529 
L 300.519714 268.777806 
L 303.559551 305.678784 
L 305.079469 284.371824 
L 306.599387 273.280655 
L 308.119305 271.498014 
L 309.639224 305.640037 
L 311.159142 282.764848 
L 312.67906 272.048077 
L 314.198979 256.74392 
L 315.718897 297.619649 
L 317.238815 258.694729 
L 318.758733 248.675379 
L 320.278652 254.43733 
L 323.318488 283.178073 
L 324.838407 271.854775 
L 326.358325 219.630343 
L 327.878243 284.783693 
L 329.398161 273.393755 
L 330.91808 270.064402 
L 332.437998 239.670498 
L 333.957916 271.034877 
L 335.477835 251.43258 
L 336.997753 242.018604 
L 338.517671 241.733657 
L 340.037589 302.030651 
L 341.557508 282.759409 
L 343.077426 259.963291 
L 344.597344 275.026009 
L 346.117263 257.570625 
L 347.637181 279.823454 
L 349.157099 269.190573 
L 350.677017 271.135851 
L 352.196936 239.422899 
L 353.716854 282.277659 
L 355.236772 203.457715 
L 356.756691 232.461506 
L 358.276609 273.501529 
L 359.796527 271.601521 
L 361.316445 248.849906 
L 364.356282 210.611016 
L 365.8762 280.718015 
L 367.396118 261.970777 
L 368.916037 249.960423 
L 370.435955 265.729428 
L 371.955873 269.515331 
L 373.475792 207.167984 
L 374.99571 232.96316 
L 376.515628 222.300911 
L 378.035546 276.010443 
L 379.555465 250.353465 
L 381.075383 210.242418 
L 382.595301 159.556641 
L 384.11522 268.269908 
L 385.635138 221.593749 
L 387.155056 227.215199 
L 388.674974 209.547373 
L 390.194893 273.224388 
L 391.714811 253.300102 
L 393.234729 207.232653 
L 394.754648 169.251123 
L 396.274566 270.450544 
L 397.794484 204.717884 
L 399.314402 228.130053 
L 400.834321 214.763417 
L 402.354239 270.740468 
L 403.874157 237.888754 
L 405.394076 229.431124 
L 406.913994 173.604058 
L 408.433912 276.013712 
L 409.95383 194.600188 
L 411.473749 256.490484 
L 412.993667 216.608517 
L 414.513585 264.297104 
L 416.033504 217.310405 
L 417.553422 177.015098 
L 419.07334 199.444172 
L 420.593258 266.050702 
L 422.113177 230.134243 
L 423.633095 187.76286 
L 425.153013 182.579909 
L 426.672932 253.27189 
L 428.19285 209.914606 
L 429.712768 201.030087 
L 431.232686 209.294235 
L 432.752605 259.436379 
L 435.792441 66.96 
L 437.31236 145.47088 
L 438.832278 264.497718 
L 440.352196 213.966842 
L 441.872114 223.104274 
L 443.392033 205.736072 
L 444.911951 262.281224 
L 446.431869 241.525984 
L 447.951788 216.41339 
L 449.471706 164.15431 
L 450.991624 249.941812 
L 452.511542 243.149791 
L 454.031461 195.711036 
L 455.551379 199.63751 
L 457.071297 263.418209 
L 458.591216 225.458716 
L 460.111134 231.686729 
L 461.631052 248.183531 
L 463.15097 269.085022 
L 464.670889 190.717654 
L 466.190807 164.682715 
L 467.710725 186.662915 
L 469.230644 265.741468 
L 470.750562 220.266969 
L 472.27048 136.436568 
L 473.790398 187.264964 
L 475.310317 256.727701 
L 476.830235 198.809355 
L 478.350153 117.812812 
L 479.870072 77.847838 
L 481.38999 266.484791 
L 482.909908 203.128685 
L 484.429826 209.865581 
L 485.949745 203.239379 
L 487.469663 263.207781 
L 488.989581 185.492216 
L 490.509499 164.563888 
L 492.029418 76.116877 
L 493.549336 265.485459 
L 495.069254 244.054763 
L 496.589173 212.110404 
L 498.109091 210.121243 
L 498.109091 210.121243 
" clip-path="url(#pfa06cc9bfb)" style="fill: none; stroke: #ff0000; stroke-width: 1.5; stroke-linecap: square"/>
   </g>
   <g id="patch_8">
    <path d="M 72 384.48 
L 72 51.84 
" style="fill: none; stroke: #000000; stroke-width: 0.8; stroke-linejoin: miter; stroke-linecap: square"/>
   </g>
   <g id="patch_9">
    <path d="M 518.4 384.48 
L 518.4 51.84 
" style="fill: none; stroke: #000000; stroke-width: 0.8; stroke-linejoin: miter; stroke-linecap: square"/>
   </g>
   <g id="patch_10">
    <path d="M 72 384.48 
L 518.4 384.48 
" style="fill: none; stroke: #000000; stroke-width: 0.8; stroke-linejoin: miter; stroke-linecap: square"/>
   </g>
   <g id="patch_11">
    <path d="M 72 51.84 
L 518.4 51.84 
" style="fill: none; stroke: #000000; stroke-width: 0.8; stroke-linejoin: miter; stroke-linecap: square"/>
   </g>
   <g id="text_23">
    <!-- The learning curve on c_gcn_without_agg/host/5 -->
    <g transform="translate(149.779687 45.84) scale(0.12 -0.12)">
     <defs>
      <path id="DejaVuSans-54" d="M -19 4666 
L 3928 4666 
L 3928 4134 
L 2272 4134 
L 2272 0 
L 1638 0 
L 1638 4134 
L -19 4134 
L -19 4666 
z
" transform="scale(0.015625)"/>
      <path id="DejaVuSans-67" d="M 2906 1791 
Q 2906 2416 2648 2759 
Q 2391 3103 1925 3103 
Q 1463 3103 1205 2759 
Q 947 2416 947 1791 
Q 947 1169 1205 825 
Q 1463 481 1925 481 
Q 2391 481 2648 825 
Q 2906 1169 2906 1791 
z
M 3481 434 
Q 3481 -459 3084 -895 
Q 2688 -1331 1869 -1331 
Q 1566 -1331 1297 -1286 
Q 1028 -1241 775 -1147 
L 775 -588 
Q 1028 -725 1275 -790 
Q 1522 -856 1778 -856 
Q 2344 -856 2625 -561 
Q 2906 -266 2906 331 
L 2906 616 
Q 2728 306 2450 153 
Q 2172 0 1784 0 
Q 1141 0 747 490 
Q 353 981 353 1791 
Q 353 2603 747 3093 
Q 1141 3584 1784 3584 
Q 2172 3584 2450 3431 
Q 2728 3278 2906 2969 
L 2906 3500 
L 3481 3500 
L 3481 434 
z
" transform="scale(0.015625)"/>
      <path id="DejaVuSans-75" d="M 544 1381 
L 544 3500 
L 1119 3500 
L 1119 1403 
Q 1119 906 1312 657 
Q 1506 409 1894 409 
Q 2359 409 2629 706 
Q 2900 1003 2900 1516 
L 2900 3500 
L 3475 3500 
L 3475 0 
L 2900 0 
L 2900 538 
Q 2691 219 2414 64 
Q 2138 -91 1772 -91 
Q 1169 -91 856 284 
Q 544 659 544 1381 
z
M 1991 3584 
L 1991 3584 
z
" transform="scale(0.015625)"/>
      <path id="DejaVuSans-5f" d="M 3263 -1063 
L 3263 -1509 
L -63 -1509 
L -63 -1063 
L 3263 -1063 
z
" transform="scale(0.015625)"/>
      <path id="DejaVuSans-77" d="M 269 3500 
L 844 3500 
L 1563 769 
L 2278 3500 
L 2956 3500 
L 3675 769 
L 4391 3500 
L 4966 3500 
L 4050 0 
L 3372 0 
L 2619 2869 
L 1863 0 
L 1184 0 
L 269 3500 
z
" transform="scale(0.015625)"/>
      <path id="DejaVuSans-2f" d="M 1625 4666 
L 2156 4666 
L 531 -594 
L 0 -594 
L 1625 4666 
z
" transform="scale(0.015625)"/>
     </defs>
     <use xlink:href="#DejaVuSans-54"/>
     <use xlink:href="#DejaVuSans-68" x="61.083984"/>
     <use xlink:href="#DejaVuSans-65" x="124.462891"/>
     <use xlink:href="#DejaVuSans-20" x="185.986328"/>
     <use xlink:href="#DejaVuSans-6c" x="217.773438"/>
     <use xlink:href="#DejaVuSans-65" x="245.556641"/>
     <use xlink:href="#DejaVuSans-61" x="307.080078"/>
     <use xlink:href="#DejaVuSans-72" x="368.359375"/>
     <use xlink:href="#DejaVuSans-6e" x="407.722656"/>
     <use xlink:href="#DejaVuSans-69" x="471.101562"/>
     <use xlink:href="#DejaVuSans-6e" x="498.884766"/>
     <use xlink:href="#DejaVuSans-67" x="562.263672"/>
     <use xlink:href="#DejaVuSans-20" x="625.740234"/>
     <use xlink:href="#DejaVuSans-63" x="657.527344"/>
     <use xlink:href="#DejaVuSans-75" x="712.507812"/>
     <use xlink:href="#DejaVuSans-72" x="775.886719"/>
     <use xlink:href="#DejaVuSans-76" x="817"/>
     <use xlink:href="#DejaVuSans-65" x="876.179688"/>
     <use xlink:href="#DejaVuSans-20" x="937.703125"/>
     <use xlink:href="#DejaVuSans-6f" x="969.490234"/>
     <use xlink:href="#DejaVuSans-6e" x="1030.671875"/>
     <use xlink:href="#DejaVuSans-20" x="1094.050781"/>
     <use xlink:href="#DejaVuSans-63" x="1125.837891"/>
     <use xlink:href="#DejaVuSans-5f" x="1180.818359"/>
     <use xlink:href="#DejaVuSans-67" x="1230.818359"/>
     <use xlink:href="#DejaVuSans-63" x="1294.294922"/>
     <use xlink:href="#DejaVuSans-6e" x="1349.275391"/>
     <use xlink:href="#DejaVuSans-5f" x="1412.654297"/>
     <use xlink:href="#DejaVuSans-77" x="1462.654297"/>
     <use xlink:href="#DejaVuSans-69" x="1544.441406"/>
     <use xlink:href="#DejaVuSans-74" x="1572.224609"/>
     <use xlink:href="#DejaVuSans-68" x="1611.433594"/>
     <use xlink:href="#DejaVuSans-6f" x="1674.8125"/>
     <use xlink:href="#DejaVuSans-75" x="1735.994141"/>
     <use xlink:href="#DejaVuSans-74" x="1799.373047"/>
     <use xlink:href="#DejaVuSans-5f" x="1838.582031"/>
     <use xlink:href="#DejaVuSans-61" x="1888.582031"/>
     <use xlink:href="#DejaVuSans-67" x="1949.861328"/>
     <use xlink:href="#DejaVuSans-67" x="2013.337891"/>
     <use xlink:href="#DejaVuSans-2f" x="2076.814453"/>
     <use xlink:href="#DejaVuSans-68" x="2110.505859"/>
     <use xlink:href="#DejaVuSans-6f" x="2173.884766"/>
     <use xlink:href="#DejaVuSans-73" x="2235.066406"/>
     <use xlink:href="#DejaVuSans-74" x="2287.166016"/>
     <use xlink:href="#DejaVuSans-2f" x="2326.375"/>
     <use xlink:href="#DejaVuSans-35" x="2360.066406"/>
    </g>
   </g>
   <g id="legend_2">
    <g id="patch_12">
     <path d="M 460.084375 74.518125 
L 511.4 74.518125 
Q 513.4 74.518125 513.4 72.518125 
L 513.4 58.84 
Q 513.4 56.84 511.4 56.84 
L 460.084375 56.84 
Q 458.084375 56.84 458.084375 58.84 
L 458.084375 72.518125 
Q 458.084375 74.518125 460.084375 74.518125 
z
" style="fill: #ffffff; opacity: 0.8; stroke: #cccccc; stroke-linejoin: miter"/>
    </g>
    <g id="line2d_23">
     <path d="M 462.084375 64.938438 
L 472.084375 64.938438 
L 482.084375 64.938438 
" style="fill: none; stroke: #ff0000; stroke-width: 1.5; stroke-linecap: square"/>
    </g>
    <g id="text_24">
     <!-- loss -->
     <g transform="translate(490.084375 68.438438) scale(0.1 -0.1)">
      <use xlink:href="#DejaVuSans-6c"/>
      <use xlink:href="#DejaVuSans-6f" x="27.783203"/>
      <use xlink:href="#DejaVuSans-73" x="88.964844"/>
      <use xlink:href="#DejaVuSans-73" x="141.064453"/>
     </g>
    </g>
   </g>
  </g>
 </g>
 <defs>
  <clipPath id="pfa06cc9bfb">
   <rect x="72" y="51.84" width="446.4" height="332.64"/>
  </clipPath>
 </defs>
</svg>
