<?xml version="1.0" encoding="utf-8" standalone="no"?>
<!DOCTYPE svg PUBLIC "-//W3C//DTD SVG 1.1//EN"
  "http://www.w3.org/Graphics/SVG/1.1/DTD/svg11.dtd">
<svg xmlns:xlink="http://www.w3.org/1999/xlink" width="576pt" height="432pt" viewBox="0 0 576 432" xmlns="http://www.w3.org/2000/svg" version="1.1">
 <metadata>
  <rdf:RDF xmlns:dc="http://purl.org/dc/elements/1.1/" xmlns:cc="http://creativecommons.org/ns#" xmlns:rdf="http://www.w3.org/1999/02/22-rdf-syntax-ns#">
   <cc:Work>
    <dc:type rdf:resource="http://purl.org/dc/dcmitype/StillImage"/>
    <dc:date>2023-12-26T13:14:42.666292</dc:date>
    <dc:format>image/svg+xml</dc:format>
    <dc:creator>
     <cc:Agent>
      <dc:title>Matplotlib v3.7.1, https://matplotlib.org/</dc:title>
     </cc:Agent>
    </dc:creator>
   </cc:Work>
  </rdf:RDF>
 </metadata>
 <defs>
  <style type="text/css">*{stroke-linejoin: round; stroke-linecap: butt}</style>
 </defs>
 <g id="figure_1">
  <g id="patch_1">
   <path d="M 0 432 
L 576 432 
L 576 0 
L 0 0 
z
" style="fill: #ffffff"/>
  </g>
  <g id="axes_1">
   <g id="patch_2">
    <path d="M 72 384.48 
L 518.4 384.48 
L 518.4 51.84 
L 72 51.84 
z
" style="fill: #ffffff"/>
   </g>
   <g id="matplotlib.axis_1">
    <g id="xtick_1">
     <g id="line2d_1">
      <defs>
       <path id="mf3cc57572a" d="M 0 0 
L 0 3.5 
" style="stroke: #000000; stroke-width: 0.8"/>
      </defs>
      <g>
       <use xlink:href="#mf3cc57572a" x="92.290909" y="384.48" style="stroke: #000000; stroke-width: 0.8"/>
      </g>
     </g>
     <g id="text_1">
      <!-- 0 -->
      <g transform="translate(89.109659 399.078438) scale(0.1 -0.1)">
       <defs>
        <path id="DejaVuSans-30" d="M 2034 4250 
Q 1547 4250 1301 3770 
Q 1056 3291 1056 2328 
Q 1056 1369 1301 889 
Q 1547 409 2034 409 
Q 2525 409 2770 889 
Q 3016 1369 3016 2328 
Q 3016 3291 2770 3770 
Q 2525 4250 2034 4250 
z
M 2034 4750 
Q 2819 4750 3233 4129 
Q 3647 3509 3647 2328 
Q 3647 1150 3233 529 
Q 2819 -91 2034 -91 
Q 1250 -91 836 529 
Q 422 1150 422 2328 
Q 422 3509 836 4129 
Q 1250 4750 2034 4750 
z
" transform="scale(0.015625)"/>
       </defs>
       <use xlink:href="#DejaVuSans-30"/>
      </g>
     </g>
    </g>
    <g id="xtick_2">
     <g id="line2d_2">
      <g>
       <use xlink:href="#mf3cc57572a" x="168.286823" y="384.48" style="stroke: #000000; stroke-width: 0.8"/>
      </g>
     </g>
     <g id="text_2">
      <!-- 50 -->
      <g transform="translate(161.924323 399.078438) scale(0.1 -0.1)">
       <defs>
        <path id="DejaVuSans-35" d="M 691 4666 
L 3169 4666 
L 3169 4134 
L 1269 4134 
L 1269 2991 
Q 1406 3038 1543 3061 
Q 1681 3084 1819 3084 
Q 2600 3084 3056 2656 
Q 3513 2228 3513 1497 
Q 3513 744 3044 326 
Q 2575 -91 1722 -91 
Q 1428 -91 1123 -41 
Q 819 9 494 109 
L 494 744 
Q 775 591 1075 516 
Q 1375 441 1709 441 
Q 2250 441 2565 725 
Q 2881 1009 2881 1497 
Q 2881 1984 2565 2268 
Q 2250 2553 1709 2553 
Q 1456 2553 1204 2497 
Q 953 2441 691 2322 
L 691 4666 
z
" transform="scale(0.015625)"/>
       </defs>
       <use xlink:href="#DejaVuSans-35"/>
       <use xlink:href="#DejaVuSans-30" x="63.623047"/>
      </g>
     </g>
    </g>
    <g id="xtick_3">
     <g id="line2d_3">
      <g>
       <use xlink:href="#mf3cc57572a" x="244.282737" y="384.48" style="stroke: #000000; stroke-width: 0.8"/>
      </g>
     </g>
     <g id="text_3">
      <!-- 100 -->
      <g transform="translate(234.738987 399.078438) scale(0.1 -0.1)">
       <defs>
        <path id="DejaVuSans-31" d="M 794 531 
L 1825 531 
L 1825 4091 
L 703 3866 
L 703 4441 
L 1819 4666 
L 2450 4666 
L 2450 531 
L 3481 531 
L 3481 0 
L 794 0 
L 794 531 
z
" transform="scale(0.015625)"/>
       </defs>
       <use xlink:href="#DejaVuSans-31"/>
       <use xlink:href="#DejaVuSans-30" x="63.623047"/>
       <use xlink:href="#DejaVuSans-30" x="127.246094"/>
      </g>
     </g>
    </g>
    <g id="xtick_4">
     <g id="line2d_4">
      <g>
       <use xlink:href="#mf3cc57572a" x="320.278652" y="384.48" style="stroke: #000000; stroke-width: 0.8"/>
      </g>
     </g>
     <g id="text_4">
      <!-- 150 -->
      <g transform="translate(310.734902 399.078438) scale(0.1 -0.1)">
       <use xlink:href="#DejaVuSans-31"/>
       <use xlink:href="#DejaVuSans-35" x="63.623047"/>
       <use xlink:href="#DejaVuSans-30" x="127.246094"/>
      </g>
     </g>
    </g>
    <g id="xtick_5">
     <g id="line2d_5">
      <g>
       <use xlink:href="#mf3cc57572a" x="396.274566" y="384.48" style="stroke: #000000; stroke-width: 0.8"/>
      </g>
     </g>
     <g id="text_5">
      <!-- 200 -->
      <g transform="translate(386.730816 399.078438) scale(0.1 -0.1)">
       <defs>
        <path id="DejaVuSans-32" d="M 1228 531 
L 3431 531 
L 3431 0 
L 469 0 
L 469 531 
Q 828 903 1448 1529 
Q 2069 2156 2228 2338 
Q 2531 2678 2651 2914 
Q 2772 3150 2772 3378 
Q 2772 3750 2511 3984 
Q 2250 4219 1831 4219 
Q 1534 4219 1204 4116 
Q 875 4013 500 3803 
L 500 4441 
Q 881 4594 1212 4672 
Q 1544 4750 1819 4750 
Q 2544 4750 2975 4387 
Q 3406 4025 3406 3419 
Q 3406 3131 3298 2873 
Q 3191 2616 2906 2266 
Q 2828 2175 2409 1742 
Q 1991 1309 1228 531 
z
" transform="scale(0.015625)"/>
       </defs>
       <use xlink:href="#DejaVuSans-32"/>
       <use xlink:href="#DejaVuSans-30" x="63.623047"/>
       <use xlink:href="#DejaVuSans-30" x="127.246094"/>
      </g>
     </g>
    </g>
    <g id="xtick_6">
     <g id="line2d_6">
      <g>
       <use xlink:href="#mf3cc57572a" x="472.27048" y="384.48" style="stroke: #000000; stroke-width: 0.8"/>
      </g>
     </g>
     <g id="text_6">
      <!-- 250 -->
      <g transform="translate(462.72673 399.078438) scale(0.1 -0.1)">
       <use xlink:href="#DejaVuSans-32"/>
       <use xlink:href="#DejaVuSans-35" x="63.623047"/>
       <use xlink:href="#DejaVuSans-30" x="127.246094"/>
      </g>
     </g>
    </g>
    <g id="text_7">
     <!-- epoch -->
     <g transform="translate(279.971875 412.756563) scale(0.1 -0.1)">
      <defs>
       <path id="DejaVuSans-65" d="M 3597 1894 
L 3597 1613 
L 953 1613 
Q 991 1019 1311 708 
Q 1631 397 2203 397 
Q 2534 397 2845 478 
Q 3156 559 3463 722 
L 3463 178 
Q 3153 47 2828 -22 
Q 2503 -91 2169 -91 
Q 1331 -91 842 396 
Q 353 884 353 1716 
Q 353 2575 817 3079 
Q 1281 3584 2069 3584 
Q 2775 3584 3186 3129 
Q 3597 2675 3597 1894 
z
M 3022 2063 
Q 3016 2534 2758 2815 
Q 2500 3097 2075 3097 
Q 1594 3097 1305 2825 
Q 1016 2553 972 2059 
L 3022 2063 
z
" transform="scale(0.015625)"/>
       <path id="DejaVuSans-70" d="M 1159 525 
L 1159 -1331 
L 581 -1331 
L 581 3500 
L 1159 3500 
L 1159 2969 
Q 1341 3281 1617 3432 
Q 1894 3584 2278 3584 
Q 2916 3584 3314 3078 
Q 3713 2572 3713 1747 
Q 3713 922 3314 415 
Q 2916 -91 2278 -91 
Q 1894 -91 1617 61 
Q 1341 213 1159 525 
z
M 3116 1747 
Q 3116 2381 2855 2742 
Q 2594 3103 2138 3103 
Q 1681 3103 1420 2742 
Q 1159 2381 1159 1747 
Q 1159 1113 1420 752 
Q 1681 391 2138 391 
Q 2594 391 2855 752 
Q 3116 1113 3116 1747 
z
" transform="scale(0.015625)"/>
       <path id="DejaVuSans-6f" d="M 1959 3097 
Q 1497 3097 1228 2736 
Q 959 2375 959 1747 
Q 959 1119 1226 758 
Q 1494 397 1959 397 
Q 2419 397 2687 759 
Q 2956 1122 2956 1747 
Q 2956 2369 2687 2733 
Q 2419 3097 1959 3097 
z
M 1959 3584 
Q 2709 3584 3137 3096 
Q 3566 2609 3566 1747 
Q 3566 888 3137 398 
Q 2709 -91 1959 -91 
Q 1206 -91 779 398 
Q 353 888 353 1747 
Q 353 2609 779 3096 
Q 1206 3584 1959 3584 
z
" transform="scale(0.015625)"/>
       <path id="DejaVuSans-63" d="M 3122 3366 
L 3122 2828 
Q 2878 2963 2633 3030 
Q 2388 3097 2138 3097 
Q 1578 3097 1268 2742 
Q 959 2388 959 1747 
Q 959 1106 1268 751 
Q 1578 397 2138 397 
Q 2388 397 2633 464 
Q 2878 531 3122 666 
L 3122 134 
Q 2881 22 2623 -34 
Q 2366 -91 2075 -91 
Q 1284 -91 818 406 
Q 353 903 353 1747 
Q 353 2603 823 3093 
Q 1294 3584 2113 3584 
Q 2378 3584 2631 3529 
Q 2884 3475 3122 3366 
z
" transform="scale(0.015625)"/>
       <path id="DejaVuSans-68" d="M 3513 2113 
L 3513 0 
L 2938 0 
L 2938 2094 
Q 2938 2591 2744 2837 
Q 2550 3084 2163 3084 
Q 1697 3084 1428 2787 
Q 1159 2491 1159 1978 
L 1159 0 
L 581 0 
L 581 4863 
L 1159 4863 
L 1159 2956 
Q 1366 3272 1645 3428 
Q 1925 3584 2291 3584 
Q 2894 3584 3203 3211 
Q 3513 2838 3513 2113 
z
" transform="scale(0.015625)"/>
      </defs>
      <use xlink:href="#DejaVuSans-65"/>
      <use xlink:href="#DejaVuSans-70" x="61.523438"/>
      <use xlink:href="#DejaVuSans-6f" x="125"/>
      <use xlink:href="#DejaVuSans-63" x="186.181641"/>
      <use xlink:href="#DejaVuSans-68" x="241.162109"/>
     </g>
    </g>
   </g>
   <g id="matplotlib.axis_2">
    <g id="ytick_1">
     <g id="line2d_7">
      <defs>
       <path id="m2d0614ec5c" d="M 0 0 
L -3.5 0 
" style="stroke: #000000; stroke-width: 0.8"/>
      </defs>
      <g>
       <use xlink:href="#m2d0614ec5c" x="72" y="384.48" style="stroke: #000000; stroke-width: 0.8"/>
      </g>
     </g>
     <g id="text_8">
      <!-- 0 -->
      <g transform="translate(58.6375 388.279219) scale(0.1 -0.1)">
       <use xlink:href="#DejaVuSans-30"/>
      </g>
     </g>
    </g>
    <g id="ytick_2">
     <g id="line2d_8">
      <g>
       <use xlink:href="#m2d0614ec5c" x="72" y="317.952" style="stroke: #000000; stroke-width: 0.8"/>
      </g>
     </g>
     <g id="text_9">
      <!-- 20 -->
      <g transform="translate(52.275 321.751219) scale(0.1 -0.1)">
       <use xlink:href="#DejaVuSans-32"/>
       <use xlink:href="#DejaVuSans-30" x="63.623047"/>
      </g>
     </g>
    </g>
    <g id="ytick_3">
     <g id="line2d_9">
      <g>
       <use xlink:href="#m2d0614ec5c" x="72" y="251.424" style="stroke: #000000; stroke-width: 0.8"/>
      </g>
     </g>
     <g id="text_10">
      <!-- 40 -->
      <g transform="translate(52.275 255.223219) scale(0.1 -0.1)">
       <defs>
        <path id="DejaVuSans-34" d="M 2419 4116 
L 825 1625 
L 2419 1625 
L 2419 4116 
z
M 2253 4666 
L 3047 4666 
L 3047 1625 
L 3713 1625 
L 3713 1100 
L 3047 1100 
L 3047 0 
L 2419 0 
L 2419 1100 
L 313 1100 
L 313 1709 
L 2253 4666 
z
" transform="scale(0.015625)"/>
       </defs>
       <use xlink:href="#DejaVuSans-34"/>
       <use xlink:href="#DejaVuSans-30" x="63.623047"/>
      </g>
     </g>
    </g>
    <g id="ytick_4">
     <g id="line2d_10">
      <g>
       <use xlink:href="#m2d0614ec5c" x="72" y="184.896" style="stroke: #000000; stroke-width: 0.8"/>
      </g>
     </g>
     <g id="text_11">
      <!-- 60 -->
      <g transform="translate(52.275 188.695219) scale(0.1 -0.1)">
       <defs>
        <path id="DejaVuSans-36" d="M 2113 2584 
Q 1688 2584 1439 2293 
Q 1191 2003 1191 1497 
Q 1191 994 1439 701 
Q 1688 409 2113 409 
Q 2538 409 2786 701 
Q 3034 994 3034 1497 
Q 3034 2003 2786 2293 
Q 2538 2584 2113 2584 
z
M 3366 4563 
L 3366 3988 
Q 3128 4100 2886 4159 
Q 2644 4219 2406 4219 
Q 1781 4219 1451 3797 
Q 1122 3375 1075 2522 
Q 1259 2794 1537 2939 
Q 1816 3084 2150 3084 
Q 2853 3084 3261 2657 
Q 3669 2231 3669 1497 
Q 3669 778 3244 343 
Q 2819 -91 2113 -91 
Q 1303 -91 875 529 
Q 447 1150 447 2328 
Q 447 3434 972 4092 
Q 1497 4750 2381 4750 
Q 2619 4750 2861 4703 
Q 3103 4656 3366 4563 
z
" transform="scale(0.015625)"/>
       </defs>
       <use xlink:href="#DejaVuSans-36"/>
       <use xlink:href="#DejaVuSans-30" x="63.623047"/>
      </g>
     </g>
    </g>
    <g id="ytick_5">
     <g id="line2d_11">
      <g>
       <use xlink:href="#m2d0614ec5c" x="72" y="118.368" style="stroke: #000000; stroke-width: 0.8"/>
      </g>
     </g>
     <g id="text_12">
      <!-- 80 -->
      <g transform="translate(52.275 122.167219) scale(0.1 -0.1)">
       <defs>
        <path id="DejaVuSans-38" d="M 2034 2216 
Q 1584 2216 1326 1975 
Q 1069 1734 1069 1313 
Q 1069 891 1326 650 
Q 1584 409 2034 409 
Q 2484 409 2743 651 
Q 3003 894 3003 1313 
Q 3003 1734 2745 1975 
Q 2488 2216 2034 2216 
z
M 1403 2484 
Q 997 2584 770 2862 
Q 544 3141 544 3541 
Q 544 4100 942 4425 
Q 1341 4750 2034 4750 
Q 2731 4750 3128 4425 
Q 3525 4100 3525 3541 
Q 3525 3141 3298 2862 
Q 3072 2584 2669 2484 
Q 3125 2378 3379 2068 
Q 3634 1759 3634 1313 
Q 3634 634 3220 271 
Q 2806 -91 2034 -91 
Q 1263 -91 848 271 
Q 434 634 434 1313 
Q 434 1759 690 2068 
Q 947 2378 1403 2484 
z
M 1172 3481 
Q 1172 3119 1398 2916 
Q 1625 2713 2034 2713 
Q 2441 2713 2670 2916 
Q 2900 3119 2900 3481 
Q 2900 3844 2670 4047 
Q 2441 4250 2034 4250 
Q 1625 4250 1398 4047 
Q 1172 3844 1172 3481 
z
" transform="scale(0.015625)"/>
       </defs>
       <use xlink:href="#DejaVuSans-38"/>
       <use xlink:href="#DejaVuSans-30" x="63.623047"/>
      </g>
     </g>
    </g>
    <g id="ytick_6">
     <g id="line2d_12">
      <g>
       <use xlink:href="#m2d0614ec5c" x="72" y="51.84" style="stroke: #000000; stroke-width: 0.8"/>
      </g>
     </g>
     <g id="text_13">
      <!-- 100 -->
      <g transform="translate(45.9125 55.639219) scale(0.1 -0.1)">
       <use xlink:href="#DejaVuSans-31"/>
       <use xlink:href="#DejaVuSans-30" x="63.623047"/>
       <use xlink:href="#DejaVuSans-30" x="127.246094"/>
      </g>
     </g>
    </g>
    <g id="text_14">
     <!-- rate -->
     <g transform="translate(39.832812 228.31625) rotate(-90) scale(0.1 -0.1)">
      <defs>
       <path id="DejaVuSans-72" d="M 2631 2963 
Q 2534 3019 2420 3045 
Q 2306 3072 2169 3072 
Q 1681 3072 1420 2755 
Q 1159 2438 1159 1844 
L 1159 0 
L 581 0 
L 581 3500 
L 1159 3500 
L 1159 2956 
Q 1341 3275 1631 3429 
Q 1922 3584 2338 3584 
Q 2397 3584 2469 3576 
Q 2541 3569 2628 3553 
L 2631 2963 
z
" transform="scale(0.015625)"/>
       <path id="DejaVuSans-61" d="M 2194 1759 
Q 1497 1759 1228 1600 
Q 959 1441 959 1056 
Q 959 750 1161 570 
Q 1363 391 1709 391 
Q 2188 391 2477 730 
Q 2766 1069 2766 1631 
L 2766 1759 
L 2194 1759 
z
M 3341 1997 
L 3341 0 
L 2766 0 
L 2766 531 
Q 2569 213 2275 61 
Q 1981 -91 1556 -91 
Q 1019 -91 701 211 
Q 384 513 384 1019 
Q 384 1609 779 1909 
Q 1175 2209 1959 2209 
L 2766 2209 
L 2766 2266 
Q 2766 2663 2505 2880 
Q 2244 3097 1772 3097 
Q 1472 3097 1187 3025 
Q 903 2953 641 2809 
L 641 3341 
Q 956 3463 1253 3523 
Q 1550 3584 1831 3584 
Q 2591 3584 2966 3190 
Q 3341 2797 3341 1997 
z
" transform="scale(0.015625)"/>
       <path id="DejaVuSans-74" d="M 1172 4494 
L 1172 3500 
L 2356 3500 
L 2356 3053 
L 1172 3053 
L 1172 1153 
Q 1172 725 1289 603 
Q 1406 481 1766 481 
L 2356 481 
L 2356 0 
L 1766 0 
Q 1100 0 847 248 
Q 594 497 594 1153 
L 594 3053 
L 172 3053 
L 172 3500 
L 594 3500 
L 594 4494 
L 1172 4494 
z
" transform="scale(0.015625)"/>
      </defs>
      <use xlink:href="#DejaVuSans-72"/>
      <use xlink:href="#DejaVuSans-61" x="41.113281"/>
      <use xlink:href="#DejaVuSans-74" x="102.392578"/>
      <use xlink:href="#DejaVuSans-65" x="141.601562"/>
     </g>
    </g>
   </g>
   <g id="line2d_13">
    <path d="M 92.290909 259.147147 
L 93.810827 268.467207 
L 95.330746 263.095281 
L 96.850664 251.672632 
L 98.370582 208.324416 
L 99.890501 207.171754 
L 101.410419 216.019965 
L 102.930337 217.637687 
L 104.450255 235.555522 
L 105.970174 211.805904 
L 107.490092 225.692023 
L 109.01001 220.174564 
L 110.529928 238.302977 
L 112.049847 201.347255 
L 113.569765 219.889463 
L 115.089683 212.874792 
L 116.609602 226.700523 
L 119.649438 204.659341 
L 121.169356 208.360974 
L 122.689275 171.29261 
L 124.209193 204.749613 
L 125.729111 224.908908 
L 127.24903 207.357435 
L 128.768948 226.10564 
L 130.288866 213.007648 
L 131.808784 208.47736 
L 133.328703 190.542825 
L 134.848621 215.057628 
L 136.368539 215.656939 
L 137.888458 202.1182 
L 139.408376 184.381072 
L 140.928294 213.202986 
L 142.448212 204.503175 
L 143.968131 213.113882 
L 145.488049 190.610433 
L 147.007967 183.783816 
L 148.527886 206.175854 
L 150.047804 198.921687 
L 151.567722 193.160507 
L 153.08764 151.386768 
L 154.607559 211.144314 
L 156.127477 210.28377 
L 157.647395 196.873877 
L 159.167314 221.877887 
L 160.687232 167.750087 
L 162.20715 194.213623 
L 163.727068 195.635169 
L 165.246987 220.434059 
L 166.766905 216.073463 
L 168.286823 203.953225 
L 169.806742 203.911706 
L 171.32666 218.368306 
L 172.846578 221.171416 
L 174.366496 212.307991 
L 175.886415 185.897902 
L 177.406333 223.308215 
L 178.926251 212.984097 
L 180.44617 166.840854 
L 181.966088 201.049655 
L 183.486006 174.800554 
L 185.005924 217.410347 
L 186.525843 217.158961 
L 188.045761 213.356563 
L 189.565679 194.515842 
L 191.085598 192.188336 
L 192.605516 211.93791 
L 194.125434 160.699785 
L 195.645352 173.623313 
L 197.165271 208.850346 
L 198.685189 179.575643 
L 200.205107 218.596839 
L 201.725026 200.348335 
L 203.244944 209.044529 
L 204.764862 180.907997 
L 206.28478 221.757797 
L 207.804699 209.816033 
L 209.324617 124.243256 
L 210.844535 216.049746 
L 212.364454 199.521735 
L 213.884372 162.326364 
L 215.40429 186.42288 
L 216.924208 170.330539 
L 218.444127 176.957149 
L 219.964045 209.970727 
L 221.483963 104.957663 
L 223.003882 194.292334 
L 224.5238 206.320752 
L 226.043718 198.613568 
L 227.563636 158.922585 
L 229.083555 202.296192 
L 230.603473 193.892865 
L 232.123391 195.413476 
L 233.643309 205.850376 
L 235.163228 176.935412 
L 236.683146 220.82316 
L 238.203064 223.01125 
L 239.722983 192.558734 
L 241.242901 200.774299 
L 242.762819 189.897782 
L 244.282737 139.240784 
L 245.802656 192.965652 
L 247.322574 213.102056 
L 248.842492 149.972378 
L 250.362411 213.924837 
L 251.882329 191.041333 
L 253.402247 200.983633 
L 254.922165 208.189391 
L 256.442084 205.399198 
L 257.962002 200.182563 
L 259.48192 198.565006 
L 261.001839 169.410089 
L 262.521757 200.649285 
L 264.041675 199.03419 
L 265.561593 195.208419 
L 267.081512 182.517979 
L 268.60143 214.283231 
L 270.121348 199.674919 
L 271.641267 200.834763 
L 274.681103 193.241705 
L 276.201021 186.106703 
L 277.72094 211.243264 
L 279.240858 212.227275 
L 280.760776 209.517063 
L 282.280695 205.631195 
L 283.800613 218.515552 
L 285.320531 165.161641 
L 286.840449 212.331529 
L 288.360368 156.099617 
L 289.880286 209.435039 
L 291.400204 142.953342 
L 292.920123 203.700545 
L 294.440041 217.137529 
L 295.959959 206.216764 
L 297.479877 149.383218 
L 298.999796 155.378261 
L 300.519714 219.062444 
L 302.039632 195.801868 
L 303.559551 195.368696 
L 305.079469 221.29058 
L 306.599387 184.49091 
L 308.119305 213.887087 
L 309.639224 158.954917 
L 311.159142 181.159827 
L 312.67906 192.92261 
L 314.198979 194.729693 
L 315.718897 204.937184 
L 317.238815 188.583294 
L 320.278652 171.166073 
L 321.79857 212.966967 
L 323.318488 185.194273 
L 324.838407 221.936499 
L 326.358325 150.203322 
L 327.878243 182.904517 
L 329.398161 158.070581 
L 332.437998 197.913453 
L 333.957916 172.063695 
L 335.477835 203.695507 
L 336.997753 191.086126 
L 338.517671 210.366034 
L 340.037589 186.491122 
L 341.557508 200.749974 
L 343.077426 207.054189 
L 344.597344 204.73672 
L 346.117263 178.028359 
L 347.637181 211.210234 
L 349.157099 212.993132 
L 350.677017 208.732336 
L 352.196936 198.006618 
L 355.236772 211.332749 
L 356.756691 202.156941 
L 358.276609 190.843965 
L 359.796527 223.839715 
L 361.316445 182.442415 
L 362.836364 213.764991 
L 364.356282 201.577526 
L 365.8762 212.431431 
L 367.396118 180.689578 
L 368.916037 213.028306 
L 370.435955 185.765338 
L 371.955873 186.441952 
L 373.475792 218.991663 
L 374.99571 183.02136 
L 376.515628 178.072035 
L 378.035546 188.761387 
L 379.555465 186.11372 
L 381.075383 192.336039 
L 382.595301 144.129505 
L 384.11522 163.10104 
L 385.635138 165.691973 
L 387.155056 187.274529 
L 388.674974 120.044448 
L 390.194893 183.763539 
L 391.714811 179.36353 
L 393.234729 159.780985 
L 394.754648 161.6196 
L 396.274566 178.814189 
L 397.794484 205.483138 
L 399.314402 210.362024 
L 400.834321 210.171369 
L 402.354239 191.457666 
L 403.874157 203.865314 
L 405.394076 180.721466 
L 406.913994 211.167078 
L 408.433912 166.107266 
L 409.95383 217.104816 
L 411.473749 155.011923 
L 412.993667 204.930573 
L 414.513585 213.848981 
L 416.033504 165.941976 
L 417.553422 175.347637 
L 419.07334 208.021474 
L 420.593258 210.288541 
L 422.113177 134.224512 
L 423.633095 145.182456 
L 425.153013 185.003947 
L 426.672932 162.746986 
L 428.19285 210.215959 
L 429.712768 192.823038 
L 431.232686 153.193712 
L 432.752605 215.945517 
L 434.272523 173.340267 
L 435.792441 202.999352 
L 437.31236 194.343941 
L 438.832278 174.560804 
L 440.352196 193.838657 
L 441.872114 165.459126 
L 443.392033 158.887563 
L 444.911951 203.763318 
L 446.431869 215.919187 
L 447.951788 183.053337 
L 449.471706 192.561678 
L 450.991624 188.010503 
L 452.511542 214.361168 
L 454.031461 213.719158 
L 455.551379 202.870912 
L 457.071297 172.507881 
L 458.591216 159.875037 
L 460.111134 182.54587 
L 461.631052 212.494877 
L 463.15097 188.904318 
L 464.670889 211.767963 
L 466.190807 205.70681 
L 467.710725 179.007243 
L 469.230644 202.629677 
L 470.750562 158.118927 
L 472.27048 204.428766 
L 473.790398 184.85457 
L 475.310317 199.191155 
L 476.830235 190.759582 
L 478.350153 162.195513 
L 479.870072 203.462876 
L 481.38999 175.895519 
L 482.909908 212.907378 
L 484.429826 205.748507 
L 485.949745 207.140729 
L 487.469663 161.784611 
L 488.989581 188.868801 
L 490.509499 207.205698 
L 492.029418 178.669938 
L 493.549336 204.302864 
L 495.069254 136.365054 
L 496.589173 189.127547 
L 498.109091 176.580431 
L 498.109091 176.580431 
" clip-path="url(#pd2bc98fafc)" style="fill: none; stroke: #0000ff; stroke-width: 1.5; stroke-linecap: square"/>
   </g>
   <g id="line2d_14">
    <path d="M 92.290909 142.326851 
L 93.810827 135.640551 
L 95.330746 122.139512 
L 96.850664 126.590125 
L 98.370582 105.150209 
L 99.890501 89.563978 
L 101.410419 79.195219 
L 102.930337 87.944936 
L 104.450255 75.097087 
L 105.970174 78.440617 
L 107.490092 73.668992 
L 109.01001 73.975462 
L 110.529928 79.367006 
L 112.049847 84.170303 
L 113.569765 73.475177 
L 115.089683 78.833018 
L 116.609602 79.875361 
L 118.12952 83.882765 
L 119.649438 75.211518 
L 121.169356 81.678776 
L 122.689275 80.107522 
L 124.209193 80.916688 
L 125.729111 78.341794 
L 127.24903 78.310198 
L 128.768948 81.083881 
L 130.288866 82.571513 
L 131.808784 79.56379 
L 133.328703 81.585562 
L 134.848621 83.188462 
L 136.368539 80.285349 
L 137.888458 76.719656 
L 139.408376 80.255453 
L 140.928294 74.319873 
L 142.448212 77.918329 
L 143.968131 83.956236 
L 145.488049 77.031354 
L 147.007967 77.837651 
L 148.527886 80.57276 
L 150.047804 77.131091 
L 151.567722 79.765548 
L 153.08764 77.140049 
L 154.607559 81.2092 
L 156.127477 67.191735 
L 157.647395 80.835147 
L 159.167314 68.987157 
L 160.687232 78.374456 
L 162.20715 82.146425 
L 163.727068 84.314528 
L 165.246987 77.325667 
L 166.766905 82.397849 
L 168.286823 80.703687 
L 169.806742 77.151317 
L 171.32666 71.921993 
L 172.846578 80.404095 
L 174.366496 77.482886 
L 175.886415 76.960421 
L 177.406333 79.880132 
L 178.926251 79.699869 
L 180.44617 81.416947 
L 181.966088 78.084583 
L 183.486006 77.756745 
L 185.005924 78.224901 
L 186.525843 80.875067 
L 188.045761 82.560879 
L 189.565679 77.450072 
L 191.085598 77.446722 
L 192.605516 80.181094 
L 194.125434 73.041993 
L 195.645352 77.557068 
L 197.165271 75.491645 
L 198.685189 75.321483 
L 200.205107 76.299694 
L 201.725026 76.701104 
L 203.244944 73.880674 
L 204.764862 78.669657 
L 206.28478 76.857359 
L 207.804699 77.582065 
L 209.324617 76.436255 
L 210.844535 74.842262 
L 212.364454 80.002202 
L 213.884372 76.487418 
L 215.40429 74.068423 
L 216.924208 69.787084 
L 218.444127 78.897251 
L 221.483963 71.232842 
L 223.003882 70.846202 
L 224.5238 74.810742 
L 226.043718 73.885851 
L 227.563636 79.479305 
L 229.083555 76.283401 
L 230.603473 80.756474 
L 232.123391 69.802337 
L 233.643309 74.895481 
L 235.163228 73.991146 
L 236.683146 74.159913 
L 238.203064 69.639864 
L 239.722983 72.342564 
L 241.242901 75.326558 
L 242.762819 73.521645 
L 244.282737 68.996293 
L 245.802656 77.560215 
L 247.322574 79.731617 
L 248.842492 75.615771 
L 250.362411 71.099732 
L 251.882329 69.704122 
L 253.402247 76.116309 
L 254.922165 74.81965 
L 256.442084 69.466834 
L 257.962002 73.402544 
L 259.48192 75.245551 
L 261.001839 70.951142 
L 262.521757 72.17763 
L 264.041675 71.613848 
L 265.561593 62.374201 
L 267.081512 71.708713 
L 268.60143 69.897633 
L 270.121348 70.7354 
L 271.641267 74.994177 
L 273.161185 72.657383 
L 274.681103 69.360549 
L 276.201021 70.551279 
L 277.72094 76.646769 
L 279.240858 71.097727 
L 280.760776 72.789656 
L 282.280695 70.136976 
L 283.800613 75.625745 
L 285.320531 74.809042 
L 286.840449 73.101633 
L 288.360368 63.357589 
L 289.880286 69.517109 
L 291.400204 74.180139 
L 292.920123 74.952125 
L 294.440041 70.806611 
L 295.959959 69.761934 
L 297.479877 73.876309 
L 298.999796 71.919176 
L 300.519714 71.586642 
L 302.039632 65.762143 
L 303.559551 72.129741 
L 305.079469 69.964809 
L 306.599387 68.891378 
L 308.119305 68.939597 
L 309.639224 73.046054 
L 311.159142 74.160623 
L 312.67906 70.969084 
L 314.198979 71.11133 
L 315.718897 69.559846 
L 317.238815 72.883556 
L 318.758733 66.205606 
L 320.278652 69.199853 
L 321.79857 63.30635 
L 323.318488 71.338492 
L 324.838407 83.828963 
L 326.358325 69.45818 
L 327.878243 69.160288 
L 329.398161 72.839423 
L 330.91808 70.234683 
L 332.437998 70.676877 
L 333.957916 69.745667 
L 335.477835 72.453925 
L 336.997753 69.973032 
L 338.517671 81.08548 
L 340.037589 70.271812 
L 341.557508 74.175571 
L 343.077426 73.143964 
L 344.597344 79.538741 
L 346.117263 68.881303 
L 347.637181 72.158367 
L 349.157099 70.909572 
L 350.677017 67.252846 
L 352.196936 70.267828 
L 353.716854 67.651059 
L 355.236772 65.597869 
L 356.756691 70.071703 
L 358.276609 70.584829 
L 359.796527 72.571046 
L 361.316445 75.614553 
L 362.836364 70.426671 
L 364.356282 69.59733 
L 365.8762 69.758381 
L 367.396118 72.598175 
L 368.916037 71.430565 
L 370.435955 67.653851 
L 371.955873 72.441438 
L 373.475792 78.758863 
L 374.99571 73.565499 
L 376.515628 77.290087 
L 378.035546 66.809866 
L 379.555465 80.254159 
L 381.075383 67.65583 
L 382.595301 71.765763 
L 384.11522 72.261708 
L 385.635138 72.124563 
L 387.155056 73.044252 
L 388.674974 73.521087 
L 390.194893 68.206694 
L 391.714811 70.791384 
L 393.234729 68.659851 
L 394.754648 67.33289 
L 396.274566 71.91613 
L 397.794484 72.596323 
L 399.314402 73.53804 
L 400.834321 77.243847 
L 402.354239 72.248918 
L 403.874157 64.12087 
L 405.394076 71.591769 
L 406.913994 72.807953 
L 408.433912 70.664188 
L 409.95383 73.45221 
L 411.473749 79.405479 
L 412.993667 72.807725 
L 414.513585 67.695826 
L 416.033504 72.584141 
L 417.553422 75.469617 
L 419.07334 72.587897 
L 420.593258 71.305653 
L 422.113177 69.627962 
L 423.633095 69.97963 
L 425.153013 73.702796 
L 426.672932 73.261364 
L 428.19285 72.965224 
L 429.712768 76.314286 
L 431.232686 74.68654 
L 432.752605 71.241217 
L 434.272523 71.224721 
L 435.792441 70.425225 
L 437.31236 73.274206 
L 438.832278 70.454765 
L 440.352196 73.396961 
L 441.872114 73.003088 
L 443.392033 67.455899 
L 444.911951 74.246605 
L 446.431869 72.015157 
L 447.951788 73.562885 
L 449.471706 72.32952 
L 450.991624 73.969346 
L 452.511542 78.319892 
L 454.031461 72.671012 
L 455.551379 66.230375 
L 457.071297 68.54844 
L 458.591216 74.33812 
L 460.111134 74.190011 
L 461.631052 71.71021 
L 463.15097 69.774243 
L 464.670889 74.250387 
L 466.190807 73.283393 
L 467.710725 69.328928 
L 469.230644 74.272491 
L 470.750562 74.777141 
L 472.27048 75.044528 
L 473.790398 66.324732 
L 475.310317 69.215105 
L 476.830235 80.676253 
L 478.350153 68.388074 
L 479.870072 78.564794 
L 481.38999 73.95752 
L 482.909908 75.851003 
L 484.429826 74.223612 
L 485.949745 77.656043 
L 487.469663 68.096704 
L 488.989581 73.157643 
L 490.509499 72.041373 
L 492.029418 74.645275 
L 493.549336 71.3826 
L 495.069254 72.043048 
L 496.589173 73.762664 
L 498.109091 74.176256 
L 498.109091 74.176256 
" clip-path="url(#pd2bc98fafc)" style="fill: none; stroke: #008000; stroke-width: 1.5; stroke-linecap: square"/>
   </g>
   <g id="patch_3">
    <path d="M 72 384.48 
L 72 51.84 
" style="fill: none; stroke: #000000; stroke-width: 0.8; stroke-linejoin: miter; stroke-linecap: square"/>
   </g>
   <g id="patch_4">
    <path d="M 518.4 384.48 
L 518.4 51.84 
" style="fill: none; stroke: #000000; stroke-width: 0.8; stroke-linejoin: miter; stroke-linecap: square"/>
   </g>
   <g id="patch_5">
    <path d="M 72 384.48 
L 518.4 384.48 
" style="fill: none; stroke: #000000; stroke-width: 0.8; stroke-linejoin: miter; stroke-linecap: square"/>
   </g>
   <g id="patch_6">
    <path d="M 72 51.84 
L 518.4 51.84 
" style="fill: none; stroke: #000000; stroke-width: 0.8; stroke-linejoin: miter; stroke-linecap: square"/>
   </g>
   <g id="legend_1">
    <g id="patch_7">
     <path d="M 79 89.19625 
L 160.740625 89.19625 
Q 162.740625 89.19625 162.740625 87.19625 
L 162.740625 58.84 
Q 162.740625 56.84 160.740625 56.84 
L 79 56.84 
Q 77 56.84 77 58.84 
L 77 87.19625 
Q 77 89.19625 79 89.19625 
z
" style="fill: #ffffff; opacity: 0.8; stroke: #cccccc; stroke-linejoin: miter"/>
    </g>
    <g id="line2d_15">
     <path d="M 81 64.938437 
L 91 64.938437 
L 101 64.938437 
" style="fill: none; stroke: #0000ff; stroke-width: 1.5; stroke-linecap: square"/>
    </g>
    <g id="text_15">
     <!-- train mAP -->
     <g transform="translate(109 68.438437) scale(0.1 -0.1)">
      <defs>
       <path id="DejaVuSans-69" d="M 603 3500 
L 1178 3500 
L 1178 0 
L 603 0 
L 603 3500 
z
M 603 4863 
L 1178 4863 
L 1178 4134 
L 603 4134 
L 603 4863 
z
" transform="scale(0.015625)"/>
       <path id="DejaVuSans-6e" d="M 3513 2113 
L 3513 0 
L 2938 0 
L 2938 2094 
Q 2938 2591 2744 2837 
Q 2550 3084 2163 3084 
Q 1697 3084 1428 2787 
Q 1159 2491 1159 1978 
L 1159 0 
L 581 0 
L 581 3500 
L 1159 3500 
L 1159 2956 
Q 1366 3272 1645 3428 
Q 1925 3584 2291 3584 
Q 2894 3584 3203 3211 
Q 3513 2838 3513 2113 
z
" transform="scale(0.015625)"/>
       <path id="DejaVuSans-20" transform="scale(0.015625)"/>
       <path id="DejaVuSans-6d" d="M 3328 2828 
Q 3544 3216 3844 3400 
Q 4144 3584 4550 3584 
Q 5097 3584 5394 3201 
Q 5691 2819 5691 2113 
L 5691 0 
L 5113 0 
L 5113 2094 
Q 5113 2597 4934 2840 
Q 4756 3084 4391 3084 
Q 3944 3084 3684 2787 
Q 3425 2491 3425 1978 
L 3425 0 
L 2847 0 
L 2847 2094 
Q 2847 2600 2669 2842 
Q 2491 3084 2119 3084 
Q 1678 3084 1418 2786 
Q 1159 2488 1159 1978 
L 1159 0 
L 581 0 
L 581 3500 
L 1159 3500 
L 1159 2956 
Q 1356 3278 1631 3431 
Q 1906 3584 2284 3584 
Q 2666 3584 2933 3390 
Q 3200 3197 3328 2828 
z
" transform="scale(0.015625)"/>
       <path id="DejaVuSans-41" d="M 2188 4044 
L 1331 1722 
L 3047 1722 
L 2188 4044 
z
M 1831 4666 
L 2547 4666 
L 4325 0 
L 3669 0 
L 3244 1197 
L 1141 1197 
L 716 0 
L 50 0 
L 1831 4666 
z
" transform="scale(0.015625)"/>
       <path id="DejaVuSans-50" d="M 1259 4147 
L 1259 2394 
L 2053 2394 
Q 2494 2394 2734 2622 
Q 2975 2850 2975 3272 
Q 2975 3691 2734 3919 
Q 2494 4147 2053 4147 
L 1259 4147 
z
M 628 4666 
L 2053 4666 
Q 2838 4666 3239 4311 
Q 3641 3956 3641 3272 
Q 3641 2581 3239 2228 
Q 2838 1875 2053 1875 
L 1259 1875 
L 1259 0 
L 628 0 
L 628 4666 
z
" transform="scale(0.015625)"/>
      </defs>
      <use xlink:href="#DejaVuSans-74"/>
      <use xlink:href="#DejaVuSans-72" x="39.208984"/>
      <use xlink:href="#DejaVuSans-61" x="80.322266"/>
      <use xlink:href="#DejaVuSans-69" x="141.601562"/>
      <use xlink:href="#DejaVuSans-6e" x="169.384766"/>
      <use xlink:href="#DejaVuSans-20" x="232.763672"/>
      <use xlink:href="#DejaVuSans-6d" x="264.550781"/>
      <use xlink:href="#DejaVuSans-41" x="361.962891"/>
      <use xlink:href="#DejaVuSans-50" x="430.371094"/>
     </g>
    </g>
    <g id="line2d_16">
     <path d="M 81 79.616562 
L 91 79.616562 
L 101 79.616562 
" style="fill: none; stroke: #008000; stroke-width: 1.5; stroke-linecap: square"/>
    </g>
    <g id="text_16">
     <!-- valid mAP -->
     <g transform="translate(109 83.116562) scale(0.1 -0.1)">
      <defs>
       <path id="DejaVuSans-76" d="M 191 3500 
L 800 3500 
L 1894 563 
L 2988 3500 
L 3597 3500 
L 2284 0 
L 1503 0 
L 191 3500 
z
" transform="scale(0.015625)"/>
       <path id="DejaVuSans-6c" d="M 603 4863 
L 1178 4863 
L 1178 0 
L 603 0 
L 603 4863 
z
" transform="scale(0.015625)"/>
       <path id="DejaVuSans-64" d="M 2906 2969 
L 2906 4863 
L 3481 4863 
L 3481 0 
L 2906 0 
L 2906 525 
Q 2725 213 2448 61 
Q 2172 -91 1784 -91 
Q 1150 -91 751 415 
Q 353 922 353 1747 
Q 353 2572 751 3078 
Q 1150 3584 1784 3584 
Q 2172 3584 2448 3432 
Q 2725 3281 2906 2969 
z
M 947 1747 
Q 947 1113 1208 752 
Q 1469 391 1925 391 
Q 2381 391 2643 752 
Q 2906 1113 2906 1747 
Q 2906 2381 2643 2742 
Q 2381 3103 1925 3103 
Q 1469 3103 1208 2742 
Q 947 2381 947 1747 
z
" transform="scale(0.015625)"/>
      </defs>
      <use xlink:href="#DejaVuSans-76"/>
      <use xlink:href="#DejaVuSans-61" x="59.179688"/>
      <use xlink:href="#DejaVuSans-6c" x="120.458984"/>
      <use xlink:href="#DejaVuSans-69" x="148.242188"/>
      <use xlink:href="#DejaVuSans-64" x="176.025391"/>
      <use xlink:href="#DejaVuSans-20" x="239.501953"/>
      <use xlink:href="#DejaVuSans-6d" x="271.289062"/>
      <use xlink:href="#DejaVuSans-41" x="368.701172"/>
      <use xlink:href="#DejaVuSans-50" x="437.109375"/>
     </g>
    </g>
   </g>
  </g>
  <g id="axes_2">
   <g id="matplotlib.axis_3">
    <g id="ytick_7">
     <g id="line2d_17">
      <defs>
       <path id="me629962009" d="M 0 0 
L 3.5 0 
" style="stroke: #000000; stroke-width: 0.8"/>
      </defs>
      <g>
       <use xlink:href="#me629962009" x="518.4" y="324.017836" style="stroke: #000000; stroke-width: 0.8"/>
      </g>
     </g>
     <g id="text_17">
      <!-- 0.2 -->
      <g transform="translate(525.4 327.817055) scale(0.1 -0.1)">
       <defs>
        <path id="DejaVuSans-2e" d="M 684 794 
L 1344 794 
L 1344 0 
L 684 0 
L 684 794 
z
" transform="scale(0.015625)"/>
       </defs>
       <use xlink:href="#DejaVuSans-30"/>
       <use xlink:href="#DejaVuSans-2e" x="63.623047"/>
       <use xlink:href="#DejaVuSans-32" x="95.410156"/>
      </g>
     </g>
    </g>
    <g id="ytick_8">
     <g id="line2d_18">
      <g>
       <use xlink:href="#me629962009" x="518.4" y="257.418184" style="stroke: #000000; stroke-width: 0.8"/>
      </g>
     </g>
     <g id="text_18">
      <!-- 0.4 -->
      <g transform="translate(525.4 261.217403) scale(0.1 -0.1)">
       <use xlink:href="#DejaVuSans-30"/>
       <use xlink:href="#DejaVuSans-2e" x="63.623047"/>
       <use xlink:href="#DejaVuSans-34" x="95.410156"/>
      </g>
     </g>
    </g>
    <g id="ytick_9">
     <g id="line2d_19">
      <g>
       <use xlink:href="#me629962009" x="518.4" y="190.818532" style="stroke: #000000; stroke-width: 0.8"/>
      </g>
     </g>
     <g id="text_19">
      <!-- 0.6 -->
      <g transform="translate(525.4 194.617751) scale(0.1 -0.1)">
       <use xlink:href="#DejaVuSans-30"/>
       <use xlink:href="#DejaVuSans-2e" x="63.623047"/>
       <use xlink:href="#DejaVuSans-36" x="95.410156"/>
      </g>
     </g>
    </g>
    <g id="ytick_10">
     <g id="line2d_20">
      <g>
       <use xlink:href="#me629962009" x="518.4" y="124.218881" style="stroke: #000000; stroke-width: 0.8"/>
      </g>
     </g>
     <g id="text_20">
      <!-- 0.8 -->
      <g transform="translate(525.4 128.018099) scale(0.1 -0.1)">
       <use xlink:href="#DejaVuSans-30"/>
       <use xlink:href="#DejaVuSans-2e" x="63.623047"/>
       <use xlink:href="#DejaVuSans-38" x="95.410156"/>
      </g>
     </g>
    </g>
    <g id="ytick_11">
     <g id="line2d_21">
      <g>
       <use xlink:href="#me629962009" x="518.4" y="57.619229" style="stroke: #000000; stroke-width: 0.8"/>
      </g>
     </g>
     <g id="text_21">
      <!-- 1.0 -->
      <g transform="translate(525.4 61.418447) scale(0.1 -0.1)">
       <use xlink:href="#DejaVuSans-31"/>
       <use xlink:href="#DejaVuSans-2e" x="63.623047"/>
       <use xlink:href="#DejaVuSans-30" x="95.410156"/>
      </g>
     </g>
    </g>
    <g id="text_22">
     <!-- loss -->
     <g transform="translate(552.901563 227.817812) rotate(-90) scale(0.1 -0.1)">
      <defs>
       <path id="DejaVuSans-73" d="M 2834 3397 
L 2834 2853 
Q 2591 2978 2328 3040 
Q 2066 3103 1784 3103 
Q 1356 3103 1142 2972 
Q 928 2841 928 2578 
Q 928 2378 1081 2264 
Q 1234 2150 1697 2047 
L 1894 2003 
Q 2506 1872 2764 1633 
Q 3022 1394 3022 966 
Q 3022 478 2636 193 
Q 2250 -91 1575 -91 
Q 1294 -91 989 -36 
Q 684 19 347 128 
L 347 722 
Q 666 556 975 473 
Q 1284 391 1588 391 
Q 1994 391 2212 530 
Q 2431 669 2431 922 
Q 2431 1156 2273 1281 
Q 2116 1406 1581 1522 
L 1381 1569 
Q 847 1681 609 1914 
Q 372 2147 372 2553 
Q 372 3047 722 3315 
Q 1072 3584 1716 3584 
Q 2034 3584 2315 3537 
Q 2597 3491 2834 3397 
z
" transform="scale(0.015625)"/>
      </defs>
      <use xlink:href="#DejaVuSans-6c"/>
      <use xlink:href="#DejaVuSans-6f" x="27.783203"/>
      <use xlink:href="#DejaVuSans-73" x="88.964844"/>
      <use xlink:href="#DejaVuSans-73" x="141.064453"/>
     </g>
    </g>
   </g>
   <g id="line2d_22">
    <path d="M 92.290909 315.543055 
L 93.810827 245.438 
L 95.330746 322.345132 
L 96.850664 227.549234 
L 98.370582 334.802246 
L 99.890501 356.836771 
L 101.410419 346.184343 
L 104.450255 365.258947 
L 105.970174 357.411507 
L 107.490092 364.071756 
L 109.01001 352.249646 
L 110.529928 354.057974 
L 112.049847 354.5888 
L 113.569765 365.198162 
L 115.089683 359.734489 
L 116.609602 356.180158 
L 118.12952 354.268816 
L 119.649438 366.333818 
L 121.169356 355.944714 
L 122.689275 363.900021 
L 124.209193 355.063796 
L 125.729111 361.595552 
L 127.24903 351.075486 
L 128.768948 358.119909 
L 130.288866 362.44437 
L 131.808784 363.1602 
L 133.328703 359.649501 
L 134.848621 354.352897 
L 137.888458 358.276293 
L 139.408376 358.00997 
L 140.928294 362.934786 
L 142.448212 345.97609 
L 143.968131 339.2298 
L 145.488049 367.288626 
L 147.007967 355.514137 
L 148.527886 352.771076 
L 150.047804 364.285902 
L 151.567722 360.155169 
L 153.08764 327.102044 
L 154.607559 338.098303 
L 156.127477 369.36 
L 157.647395 344.782139 
L 159.167314 358.51447 
L 160.687232 364.635653 
L 162.20715 362.604368 
L 163.727068 354.177979 
L 165.246987 360.758547 
L 166.766905 353.619843 
L 168.286823 316.521316 
L 169.806742 365.516667 
L 171.32666 358.087067 
L 172.846578 352.6118 
L 174.366496 362.861527 
L 175.886415 362.79683 
L 177.406333 353.010248 
L 178.926251 357.431025 
L 180.44617 357.186889 
L 181.966088 357.183511 
L 183.486006 347.282925 
L 185.005924 351.891457 
L 186.525843 354.686828 
L 188.045761 358.955502 
L 189.565679 349.454141 
L 191.085598 360.875497 
L 192.605516 334.314274 
L 194.125434 365.050591 
L 195.645352 331.777282 
L 197.165271 359.696232 
L 198.685189 354.188222 
L 200.205107 356.751634 
L 201.725026 340.709223 
L 203.244944 357.090959 
L 204.764862 352.898284 
L 206.28478 349.396789 
L 207.804699 334.142806 
L 209.324617 351.771779 
L 210.844535 356.784128 
L 212.364454 350.362114 
L 213.884372 332.33325 
L 215.40429 349.40943 
L 216.924208 365.018384 
L 218.444127 353.979496 
L 219.964045 328.096203 
L 221.483963 356.016712 
L 223.003882 359.651338 
L 224.5238 355.307372 
L 226.043718 329.049825 
L 227.563636 310.642096 
L 229.083555 352.93505 
L 230.603473 331.008942 
L 232.123391 329.690704 
L 233.643309 352.004601 
L 235.163228 348.282631 
L 236.683146 346.197466 
L 238.203064 293.64604 
L 239.722983 344.893759 
L 241.242901 357.051232 
L 242.762819 359.617426 
L 244.282737 331.991162 
L 245.802656 337.526623 
L 247.322574 333.78042 
L 248.842492 356.708188 
L 250.362411 316.861439 
L 251.882329 345.395411 
L 253.402247 346.280039 
L 254.922165 349.712546 
L 256.442084 305.2662 
L 257.962002 303.763257 
L 259.48192 325.499307 
L 261.001839 350.66513 
L 262.521757 262.529152 
L 264.041675 339.782686 
L 265.561593 357.075544 
L 267.081512 351.057669 
L 268.60143 309.179098 
L 270.121348 338.230694 
L 271.641267 339.966268 
L 273.161185 352.488306 
L 274.681103 296.045475 
L 276.201021 292.208595 
L 277.72094 334.119081 
L 279.240858 352.855596 
L 280.760776 276.265502 
L 282.280695 290.323656 
L 283.800613 321.968683 
L 285.320531 334.342371 
L 286.840449 269.375652 
L 288.360368 336.084928 
L 289.880286 339.140032 
L 291.400204 334.340748 
L 292.920123 263.09922 
L 295.959959 335.114812 
L 297.479877 322.718674 
L 298.999796 260.236396 
L 300.519714 316.086269 
L 302.039632 334.904896 
L 303.559551 337.00313 
L 305.079469 274.931643 
L 306.599387 303.303902 
L 308.119305 315.119002 
L 309.639224 329.548044 
L 311.159142 243.054534 
L 312.67906 306.450732 
L 314.198979 305.831464 
L 315.718897 335.396463 
L 317.238815 216.603421 
L 318.758733 313.17827 
L 320.278652 308.104123 
L 321.79857 344.146004 
L 323.318488 221.617881 
L 324.838407 202.216343 
L 326.358325 325.819815 
L 327.878243 319.706279 
L 329.398161 253.043582 
L 330.91808 280.41744 
L 332.437998 314.870023 
L 333.957916 321.832087 
L 335.477835 234.693043 
L 336.997753 264.978895 
L 338.517671 197.296244 
L 340.037589 318.559039 
L 341.557508 203.314323 
L 343.077426 260.845622 
L 344.597344 222.60899 
L 346.117263 315.32367 
L 347.637181 232.01697 
L 349.157099 281.431053 
L 350.677017 311.198429 
L 352.196936 318.751078 
L 353.716854 271.435158 
L 355.236772 268.526545 
L 356.756691 302.473856 
L 358.276609 305.61065 
L 359.796527 240.435665 
L 361.316445 234.215914 
L 362.836364 288.392036 
L 364.356282 311.492489 
L 365.8762 254.695591 
L 367.396118 225.599841 
L 368.916037 272.782091 
L 370.435955 301.731988 
L 373.475792 164.429569 
L 374.99571 266.7097 
L 376.515628 237.597989 
L 378.035546 263.123603 
L 379.555465 154.363039 
L 381.075383 283.81251 
L 382.595301 288.791561 
L 384.11522 233.060391 
L 385.635138 249.526599 
L 387.155056 269.615698 
L 388.674974 248.925794 
L 390.194893 254.290232 
L 391.714811 241.098573 
L 393.234729 285.145492 
L 394.754648 288.513256 
L 396.274566 238.067711 
L 397.794484 243.932406 
L 399.314402 215.090929 
L 400.834321 180.379031 
L 402.354239 239.006958 
L 403.874157 276.656441 
L 405.394076 250.817805 
L 406.913994 275.039137 
L 408.433912 234.258804 
L 409.95383 220.578594 
L 411.473749 171.335462 
L 412.993667 232.270651 
L 414.513585 246.001509 
L 416.033504 195.88066 
L 417.553422 203.485285 
L 419.07334 274.980412 
L 420.593258 236.016057 
L 422.113177 246.508249 
L 423.633095 253.091881 
L 425.153013 198.905935 
L 426.672932 213.537365 
L 428.19285 177.360263 
L 429.712768 241.799459 
L 431.232686 220.001662 
L 432.752605 232.652946 
L 434.272523 223.827783 
L 437.31236 256.214143 
L 438.832278 244.117148 
L 440.352196 220.457445 
L 441.872114 218.44308 
L 443.392033 275.093809 
L 444.911951 185.221051 
L 446.431869 214.253459 
L 447.951788 238.415344 
L 449.471706 256.024487 
L 450.991624 187.290291 
L 452.511542 149.063799 
L 454.031461 208.227676 
L 455.551379 257.737677 
L 457.071297 235.594517 
L 458.591216 179.514972 
L 460.111134 202.854081 
L 461.631052 238.577793 
L 463.15097 201.759657 
L 464.670889 168.460773 
L 466.190807 200.140747 
L 467.710725 247.592629 
L 469.230644 189.451603 
L 470.750562 194.402424 
L 472.27048 139.19858 
L 473.790398 260.521694 
L 475.310317 242.179856 
L 476.830235 66.96 
L 478.350153 242.600958 
L 479.870072 153.327877 
L 481.38999 166.210261 
L 482.909908 130.783013 
L 484.429826 212.066137 
L 485.949745 110.083352 
L 487.469663 246.51288 
L 488.989581 201.890002 
L 490.509499 215.551595 
L 492.029418 199.311303 
L 493.549336 228.827762 
L 495.069254 205.330984 
L 496.589173 189.221327 
L 498.109091 179.13584 
L 498.109091 179.13584 
" clip-path="url(#pd2bc98fafc)" style="fill: none; stroke: #ff0000; stroke-width: 1.5; stroke-linecap: square"/>
   </g>
   <g id="patch_8">
    <path d="M 72 384.48 
L 72 51.84 
" style="fill: none; stroke: #000000; stroke-width: 0.8; stroke-linejoin: miter; stroke-linecap: square"/>
   </g>
   <g id="patch_9">
    <path d="M 518.4 384.48 
L 518.4 51.84 
" style="fill: none; stroke: #000000; stroke-width: 0.8; stroke-linejoin: miter; stroke-linecap: square"/>
   </g>
   <g id="patch_10">
    <path d="M 72 384.48 
L 518.4 384.48 
" style="fill: none; stroke: #000000; stroke-width: 0.8; stroke-linejoin: miter; stroke-linecap: square"/>
   </g>
   <g id="patch_11">
    <path d="M 72 51.84 
L 518.4 51.84 
" style="fill: none; stroke: #000000; stroke-width: 0.8; stroke-linejoin: miter; stroke-linecap: square"/>
   </g>
   <g id="text_23">
    <!-- The learning curve on c_gcn_without_agg/host/6 -->
    <g transform="translate(149.779687 45.84) scale(0.12 -0.12)">
     <defs>
      <path id="DejaVuSans-54" d="M -19 4666 
L 3928 4666 
L 3928 4134 
L 2272 4134 
L 2272 0 
L 1638 0 
L 1638 4134 
L -19 4134 
L -19 4666 
z
" transform="scale(0.015625)"/>
      <path id="DejaVuSans-67" d="M 2906 1791 
Q 2906 2416 2648 2759 
Q 2391 3103 1925 3103 
Q 1463 3103 1205 2759 
Q 947 2416 947 1791 
Q 947 1169 1205 825 
Q 1463 481 1925 481 
Q 2391 481 2648 825 
Q 2906 1169 2906 1791 
z
M 3481 434 
Q 3481 -459 3084 -895 
Q 2688 -1331 1869 -1331 
Q 1566 -1331 1297 -1286 
Q 1028 -1241 775 -1147 
L 775 -588 
Q 1028 -725 1275 -790 
Q 1522 -856 1778 -856 
Q 2344 -856 2625 -561 
Q 2906 -266 2906 331 
L 2906 616 
Q 2728 306 2450 153 
Q 2172 0 1784 0 
Q 1141 0 747 490 
Q 353 981 353 1791 
Q 353 2603 747 3093 
Q 1141 3584 1784 3584 
Q 2172 3584 2450 3431 
Q 2728 3278 2906 2969 
L 2906 3500 
L 3481 3500 
L 3481 434 
z
" transform="scale(0.015625)"/>
      <path id="DejaVuSans-75" d="M 544 1381 
L 544 3500 
L 1119 3500 
L 1119 1403 
Q 1119 906 1312 657 
Q 1506 409 1894 409 
Q 2359 409 2629 706 
Q 2900 1003 2900 1516 
L 2900 3500 
L 3475 3500 
L 3475 0 
L 2900 0 
L 2900 538 
Q 2691 219 2414 64 
Q 2138 -91 1772 -91 
Q 1169 -91 856 284 
Q 544 659 544 1381 
z
M 1991 3584 
L 1991 3584 
z
" transform="scale(0.015625)"/>
      <path id="DejaVuSans-5f" d="M 3263 -1063 
L 3263 -1509 
L -63 -1509 
L -63 -1063 
L 3263 -1063 
z
" transform="scale(0.015625)"/>
      <path id="DejaVuSans-77" d="M 269 3500 
L 844 3500 
L 1563 769 
L 2278 3500 
L 2956 3500 
L 3675 769 
L 4391 3500 
L 4966 3500 
L 4050 0 
L 3372 0 
L 2619 2869 
L 1863 0 
L 1184 0 
L 269 3500 
z
" transform="scale(0.015625)"/>
      <path id="DejaVuSans-2f" d="M 1625 4666 
L 2156 4666 
L 531 -594 
L 0 -594 
L 1625 4666 
z
" transform="scale(0.015625)"/>
     </defs>
     <use xlink:href="#DejaVuSans-54"/>
     <use xlink:href="#DejaVuSans-68" x="61.083984"/>
     <use xlink:href="#DejaVuSans-65" x="124.462891"/>
     <use xlink:href="#DejaVuSans-20" x="185.986328"/>
     <use xlink:href="#DejaVuSans-6c" x="217.773438"/>
     <use xlink:href="#DejaVuSans-65" x="245.556641"/>
     <use xlink:href="#DejaVuSans-61" x="307.080078"/>
     <use xlink:href="#DejaVuSans-72" x="368.359375"/>
     <use xlink:href="#DejaVuSans-6e" x="407.722656"/>
     <use xlink:href="#DejaVuSans-69" x="471.101562"/>
     <use xlink:href="#DejaVuSans-6e" x="498.884766"/>
     <use xlink:href="#DejaVuSans-67" x="562.263672"/>
     <use xlink:href="#DejaVuSans-20" x="625.740234"/>
     <use xlink:href="#DejaVuSans-63" x="657.527344"/>
     <use xlink:href="#DejaVuSans-75" x="712.507812"/>
     <use xlink:href="#DejaVuSans-72" x="775.886719"/>
     <use xlink:href="#DejaVuSans-76" x="817"/>
     <use xlink:href="#DejaVuSans-65" x="876.179688"/>
     <use xlink:href="#DejaVuSans-20" x="937.703125"/>
     <use xlink:href="#DejaVuSans-6f" x="969.490234"/>
     <use xlink:href="#DejaVuSans-6e" x="1030.671875"/>
     <use xlink:href="#DejaVuSans-20" x="1094.050781"/>
     <use xlink:href="#DejaVuSans-63" x="1125.837891"/>
     <use xlink:href="#DejaVuSans-5f" x="1180.818359"/>
     <use xlink:href="#DejaVuSans-67" x="1230.818359"/>
     <use xlink:href="#DejaVuSans-63" x="1294.294922"/>
     <use xlink:href="#DejaVuSans-6e" x="1349.275391"/>
     <use xlink:href="#DejaVuSans-5f" x="1412.654297"/>
     <use xlink:href="#DejaVuSans-77" x="1462.654297"/>
     <use xlink:href="#DejaVuSans-69" x="1544.441406"/>
     <use xlink:href="#DejaVuSans-74" x="1572.224609"/>
     <use xlink:href="#DejaVuSans-68" x="1611.433594"/>
     <use xlink:href="#DejaVuSans-6f" x="1674.8125"/>
     <use xlink:href="#DejaVuSans-75" x="1735.994141"/>
     <use xlink:href="#DejaVuSans-74" x="1799.373047"/>
     <use xlink:href="#DejaVuSans-5f" x="1838.582031"/>
     <use xlink:href="#DejaVuSans-61" x="1888.582031"/>
     <use xlink:href="#DejaVuSans-67" x="1949.861328"/>
     <use xlink:href="#DejaVuSans-67" x="2013.337891"/>
     <use xlink:href="#DejaVuSans-2f" x="2076.814453"/>
     <use xlink:href="#DejaVuSans-68" x="2110.505859"/>
     <use xlink:href="#DejaVuSans-6f" x="2173.884766"/>
     <use xlink:href="#DejaVuSans-73" x="2235.066406"/>
     <use xlink:href="#DejaVuSans-74" x="2287.166016"/>
     <use xlink:href="#DejaVuSans-2f" x="2326.375"/>
     <use xlink:href="#DejaVuSans-36" x="2360.066406"/>
    </g>
   </g>
   <g id="legend_2">
    <g id="patch_12">
     <path d="M 460.084375 74.518125 
L 511.4 74.518125 
Q 513.4 74.518125 513.4 72.518125 
L 513.4 58.84 
Q 513.4 56.84 511.4 56.84 
L 460.084375 56.84 
Q 458.084375 56.84 458.084375 58.84 
L 458.084375 72.518125 
Q 458.084375 74.518125 460.084375 74.518125 
z
" style="fill: #ffffff; opacity: 0.8; stroke: #cccccc; stroke-linejoin: miter"/>
    </g>
    <g id="line2d_23">
     <path d="M 462.084375 64.938438 
L 472.084375 64.938438 
L 482.084375 64.938438 
" style="fill: none; stroke: #ff0000; stroke-width: 1.5; stroke-linecap: square"/>
    </g>
    <g id="text_24">
     <!-- loss -->
     <g transform="translate(490.084375 68.438438) scale(0.1 -0.1)">
      <use xlink:href="#DejaVuSans-6c"/>
      <use xlink:href="#DejaVuSans-6f" x="27.783203"/>
      <use xlink:href="#DejaVuSans-73" x="88.964844"/>
      <use xlink:href="#DejaVuSans-73" x="141.064453"/>
     </g>
    </g>
   </g>
  </g>
 </g>
 <defs>
  <clipPath id="pd2bc98fafc">
   <rect x="72" y="51.84" width="446.4" height="332.64"/>
  </clipPath>
 </defs>
</svg>
