<?xml version="1.0" encoding="utf-8" standalone="no"?>
<!DOCTYPE svg PUBLIC "-//W3C//DTD SVG 1.1//EN"
  "http://www.w3.org/Graphics/SVG/1.1/DTD/svg11.dtd">
<svg xmlns:xlink="http://www.w3.org/1999/xlink" width="576pt" height="432pt" viewBox="0 0 576 432" xmlns="http://www.w3.org/2000/svg" version="1.1">
 <metadata>
  <rdf:RDF xmlns:dc="http://purl.org/dc/elements/1.1/" xmlns:cc="http://creativecommons.org/ns#" xmlns:rdf="http://www.w3.org/1999/02/22-rdf-syntax-ns#">
   <cc:Work>
    <dc:type rdf:resource="http://purl.org/dc/dcmitype/StillImage"/>
    <dc:date>2023-04-13T09:22:56.533393</dc:date>
    <dc:format>image/svg+xml</dc:format>
    <dc:creator>
     <cc:Agent>
      <dc:title>Matplotlib v3.7.1, https://matplotlib.org/</dc:title>
     </cc:Agent>
    </dc:creator>
   </cc:Work>
  </rdf:RDF>
 </metadata>
 <defs>
  <style type="text/css">*{stroke-linejoin: round; stroke-linecap: butt}</style>
 </defs>
 <g id="figure_1">
  <g id="patch_1">
   <path d="M 0 432 
L 576 432 
L 576 0 
L 0 0 
z
" style="fill: #ffffff"/>
  </g>
  <g id="axes_1">
   <g id="patch_2">
    <path d="M 72 384.48 
L 518.4 384.48 
L 518.4 51.84 
L 72 51.84 
z
" style="fill: #ffffff"/>
   </g>
   <g id="matplotlib.axis_1">
    <g id="xtick_1">
     <g id="line2d_1">
      <defs>
       <path id="m7529916067" d="M 0 0 
L 0 3.5 
" style="stroke: #000000; stroke-width: 0.8"/>
      </defs>
      <g>
       <use xlink:href="#m7529916067" x="92.290909" y="384.48" style="stroke: #000000; stroke-width: 0.8"/>
      </g>
     </g>
     <g id="text_1">
      <!-- 0 -->
      <g transform="translate(89.109659 399.078438) scale(0.1 -0.1)">
       <defs>
        <path id="DejaVuSans-30" d="M 2034 4250 
Q 1547 4250 1301 3770 
Q 1056 3291 1056 2328 
Q 1056 1369 1301 889 
Q 1547 409 2034 409 
Q 2525 409 2770 889 
Q 3016 1369 3016 2328 
Q 3016 3291 2770 3770 
Q 2525 4250 2034 4250 
z
M 2034 4750 
Q 2819 4750 3233 4129 
Q 3647 3509 3647 2328 
Q 3647 1150 3233 529 
Q 2819 -91 2034 -91 
Q 1250 -91 836 529 
Q 422 1150 422 2328 
Q 422 3509 836 4129 
Q 1250 4750 2034 4750 
z
" transform="scale(0.015625)"/>
       </defs>
       <use xlink:href="#DejaVuSans-30"/>
      </g>
     </g>
    </g>
    <g id="xtick_2">
     <g id="line2d_2">
      <g>
       <use xlink:href="#m7529916067" x="173.617198" y="384.48" style="stroke: #000000; stroke-width: 0.8"/>
      </g>
     </g>
     <g id="text_2">
      <!-- 100 -->
      <g transform="translate(164.073448 399.078438) scale(0.1 -0.1)">
       <defs>
        <path id="DejaVuSans-31" d="M 794 531 
L 1825 531 
L 1825 4091 
L 703 3866 
L 703 4441 
L 1819 4666 
L 2450 4666 
L 2450 531 
L 3481 531 
L 3481 0 
L 794 0 
L 794 531 
z
" transform="scale(0.015625)"/>
       </defs>
       <use xlink:href="#DejaVuSans-31"/>
       <use xlink:href="#DejaVuSans-30" x="63.623047"/>
       <use xlink:href="#DejaVuSans-30" x="127.246094"/>
      </g>
     </g>
    </g>
    <g id="xtick_3">
     <g id="line2d_3">
      <g>
       <use xlink:href="#m7529916067" x="254.943487" y="384.48" style="stroke: #000000; stroke-width: 0.8"/>
      </g>
     </g>
     <g id="text_3">
      <!-- 200 -->
      <g transform="translate(245.399737 399.078438) scale(0.1 -0.1)">
       <defs>
        <path id="DejaVuSans-32" d="M 1228 531 
L 3431 531 
L 3431 0 
L 469 0 
L 469 531 
Q 828 903 1448 1529 
Q 2069 2156 2228 2338 
Q 2531 2678 2651 2914 
Q 2772 3150 2772 3378 
Q 2772 3750 2511 3984 
Q 2250 4219 1831 4219 
Q 1534 4219 1204 4116 
Q 875 4013 500 3803 
L 500 4441 
Q 881 4594 1212 4672 
Q 1544 4750 1819 4750 
Q 2544 4750 2975 4387 
Q 3406 4025 3406 3419 
Q 3406 3131 3298 2873 
Q 3191 2616 2906 2266 
Q 2828 2175 2409 1742 
Q 1991 1309 1228 531 
z
" transform="scale(0.015625)"/>
       </defs>
       <use xlink:href="#DejaVuSans-32"/>
       <use xlink:href="#DejaVuSans-30" x="63.623047"/>
       <use xlink:href="#DejaVuSans-30" x="127.246094"/>
      </g>
     </g>
    </g>
    <g id="xtick_4">
     <g id="line2d_4">
      <g>
       <use xlink:href="#m7529916067" x="336.269776" y="384.48" style="stroke: #000000; stroke-width: 0.8"/>
      </g>
     </g>
     <g id="text_4">
      <!-- 300 -->
      <g transform="translate(326.726026 399.078438) scale(0.1 -0.1)">
       <defs>
        <path id="DejaVuSans-33" d="M 2597 2516 
Q 3050 2419 3304 2112 
Q 3559 1806 3559 1356 
Q 3559 666 3084 287 
Q 2609 -91 1734 -91 
Q 1441 -91 1130 -33 
Q 819 25 488 141 
L 488 750 
Q 750 597 1062 519 
Q 1375 441 1716 441 
Q 2309 441 2620 675 
Q 2931 909 2931 1356 
Q 2931 1769 2642 2001 
Q 2353 2234 1838 2234 
L 1294 2234 
L 1294 2753 
L 1863 2753 
Q 2328 2753 2575 2939 
Q 2822 3125 2822 3475 
Q 2822 3834 2567 4026 
Q 2313 4219 1838 4219 
Q 1578 4219 1281 4162 
Q 984 4106 628 3988 
L 628 4550 
Q 988 4650 1302 4700 
Q 1616 4750 1894 4750 
Q 2613 4750 3031 4423 
Q 3450 4097 3450 3541 
Q 3450 3153 3228 2886 
Q 3006 2619 2597 2516 
z
" transform="scale(0.015625)"/>
       </defs>
       <use xlink:href="#DejaVuSans-33"/>
       <use xlink:href="#DejaVuSans-30" x="63.623047"/>
       <use xlink:href="#DejaVuSans-30" x="127.246094"/>
      </g>
     </g>
    </g>
    <g id="xtick_5">
     <g id="line2d_5">
      <g>
       <use xlink:href="#m7529916067" x="417.596065" y="384.48" style="stroke: #000000; stroke-width: 0.8"/>
      </g>
     </g>
     <g id="text_5">
      <!-- 400 -->
      <g transform="translate(408.052315 399.078438) scale(0.1 -0.1)">
       <defs>
        <path id="DejaVuSans-34" d="M 2419 4116 
L 825 1625 
L 2419 1625 
L 2419 4116 
z
M 2253 4666 
L 3047 4666 
L 3047 1625 
L 3713 1625 
L 3713 1100 
L 3047 1100 
L 3047 0 
L 2419 0 
L 2419 1100 
L 313 1100 
L 313 1709 
L 2253 4666 
z
" transform="scale(0.015625)"/>
       </defs>
       <use xlink:href="#DejaVuSans-34"/>
       <use xlink:href="#DejaVuSans-30" x="63.623047"/>
       <use xlink:href="#DejaVuSans-30" x="127.246094"/>
      </g>
     </g>
    </g>
    <g id="xtick_6">
     <g id="line2d_6">
      <g>
       <use xlink:href="#m7529916067" x="498.922354" y="384.48" style="stroke: #000000; stroke-width: 0.8"/>
      </g>
     </g>
     <g id="text_6">
      <!-- 500 -->
      <g transform="translate(489.378604 399.078438) scale(0.1 -0.1)">
       <defs>
        <path id="DejaVuSans-35" d="M 691 4666 
L 3169 4666 
L 3169 4134 
L 1269 4134 
L 1269 2991 
Q 1406 3038 1543 3061 
Q 1681 3084 1819 3084 
Q 2600 3084 3056 2656 
Q 3513 2228 3513 1497 
Q 3513 744 3044 326 
Q 2575 -91 1722 -91 
Q 1428 -91 1123 -41 
Q 819 9 494 109 
L 494 744 
Q 775 591 1075 516 
Q 1375 441 1709 441 
Q 2250 441 2565 725 
Q 2881 1009 2881 1497 
Q 2881 1984 2565 2268 
Q 2250 2553 1709 2553 
Q 1456 2553 1204 2497 
Q 953 2441 691 2322 
L 691 4666 
z
" transform="scale(0.015625)"/>
       </defs>
       <use xlink:href="#DejaVuSans-35"/>
       <use xlink:href="#DejaVuSans-30" x="63.623047"/>
       <use xlink:href="#DejaVuSans-30" x="127.246094"/>
      </g>
     </g>
    </g>
    <g id="text_7">
     <!-- epoch -->
     <g transform="translate(279.971875 412.756563) scale(0.1 -0.1)">
      <defs>
       <path id="DejaVuSans-65" d="M 3597 1894 
L 3597 1613 
L 953 1613 
Q 991 1019 1311 708 
Q 1631 397 2203 397 
Q 2534 397 2845 478 
Q 3156 559 3463 722 
L 3463 178 
Q 3153 47 2828 -22 
Q 2503 -91 2169 -91 
Q 1331 -91 842 396 
Q 353 884 353 1716 
Q 353 2575 817 3079 
Q 1281 3584 2069 3584 
Q 2775 3584 3186 3129 
Q 3597 2675 3597 1894 
z
M 3022 2063 
Q 3016 2534 2758 2815 
Q 2500 3097 2075 3097 
Q 1594 3097 1305 2825 
Q 1016 2553 972 2059 
L 3022 2063 
z
" transform="scale(0.015625)"/>
       <path id="DejaVuSans-70" d="M 1159 525 
L 1159 -1331 
L 581 -1331 
L 581 3500 
L 1159 3500 
L 1159 2969 
Q 1341 3281 1617 3432 
Q 1894 3584 2278 3584 
Q 2916 3584 3314 3078 
Q 3713 2572 3713 1747 
Q 3713 922 3314 415 
Q 2916 -91 2278 -91 
Q 1894 -91 1617 61 
Q 1341 213 1159 525 
z
M 3116 1747 
Q 3116 2381 2855 2742 
Q 2594 3103 2138 3103 
Q 1681 3103 1420 2742 
Q 1159 2381 1159 1747 
Q 1159 1113 1420 752 
Q 1681 391 2138 391 
Q 2594 391 2855 752 
Q 3116 1113 3116 1747 
z
" transform="scale(0.015625)"/>
       <path id="DejaVuSans-6f" d="M 1959 3097 
Q 1497 3097 1228 2736 
Q 959 2375 959 1747 
Q 959 1119 1226 758 
Q 1494 397 1959 397 
Q 2419 397 2687 759 
Q 2956 1122 2956 1747 
Q 2956 2369 2687 2733 
Q 2419 3097 1959 3097 
z
M 1959 3584 
Q 2709 3584 3137 3096 
Q 3566 2609 3566 1747 
Q 3566 888 3137 398 
Q 2709 -91 1959 -91 
Q 1206 -91 779 398 
Q 353 888 353 1747 
Q 353 2609 779 3096 
Q 1206 3584 1959 3584 
z
" transform="scale(0.015625)"/>
       <path id="DejaVuSans-63" d="M 3122 3366 
L 3122 2828 
Q 2878 2963 2633 3030 
Q 2388 3097 2138 3097 
Q 1578 3097 1268 2742 
Q 959 2388 959 1747 
Q 959 1106 1268 751 
Q 1578 397 2138 397 
Q 2388 397 2633 464 
Q 2878 531 3122 666 
L 3122 134 
Q 2881 22 2623 -34 
Q 2366 -91 2075 -91 
Q 1284 -91 818 406 
Q 353 903 353 1747 
Q 353 2603 823 3093 
Q 1294 3584 2113 3584 
Q 2378 3584 2631 3529 
Q 2884 3475 3122 3366 
z
" transform="scale(0.015625)"/>
       <path id="DejaVuSans-68" d="M 3513 2113 
L 3513 0 
L 2938 0 
L 2938 2094 
Q 2938 2591 2744 2837 
Q 2550 3084 2163 3084 
Q 1697 3084 1428 2787 
Q 1159 2491 1159 1978 
L 1159 0 
L 581 0 
L 581 4863 
L 1159 4863 
L 1159 2956 
Q 1366 3272 1645 3428 
Q 1925 3584 2291 3584 
Q 2894 3584 3203 3211 
Q 3513 2838 3513 2113 
z
" transform="scale(0.015625)"/>
      </defs>
      <use xlink:href="#DejaVuSans-65"/>
      <use xlink:href="#DejaVuSans-70" x="61.523438"/>
      <use xlink:href="#DejaVuSans-6f" x="125"/>
      <use xlink:href="#DejaVuSans-63" x="186.181641"/>
      <use xlink:href="#DejaVuSans-68" x="241.162109"/>
     </g>
    </g>
   </g>
   <g id="matplotlib.axis_2">
    <g id="ytick_1">
     <g id="line2d_7">
      <defs>
       <path id="meff7cd28c2" d="M 0 0 
L -3.5 0 
" style="stroke: #000000; stroke-width: 0.8"/>
      </defs>
      <g>
       <use xlink:href="#meff7cd28c2" x="72" y="384.48" style="stroke: #000000; stroke-width: 0.8"/>
      </g>
     </g>
     <g id="text_8">
      <!-- 0.0 -->
      <g transform="translate(49.096875 388.279219) scale(0.1 -0.1)">
       <defs>
        <path id="DejaVuSans-2e" d="M 684 794 
L 1344 794 
L 1344 0 
L 684 0 
L 684 794 
z
" transform="scale(0.015625)"/>
       </defs>
       <use xlink:href="#DejaVuSans-30"/>
       <use xlink:href="#DejaVuSans-2e" x="63.623047"/>
       <use xlink:href="#DejaVuSans-30" x="95.410156"/>
      </g>
     </g>
    </g>
    <g id="ytick_2">
     <g id="line2d_8">
      <g>
       <use xlink:href="#meff7cd28c2" x="72" y="317.952" style="stroke: #000000; stroke-width: 0.8"/>
      </g>
     </g>
     <g id="text_9">
      <!-- 0.2 -->
      <g transform="translate(49.096875 321.751219) scale(0.1 -0.1)">
       <use xlink:href="#DejaVuSans-30"/>
       <use xlink:href="#DejaVuSans-2e" x="63.623047"/>
       <use xlink:href="#DejaVuSans-32" x="95.410156"/>
      </g>
     </g>
    </g>
    <g id="ytick_3">
     <g id="line2d_9">
      <g>
       <use xlink:href="#meff7cd28c2" x="72" y="251.424" style="stroke: #000000; stroke-width: 0.8"/>
      </g>
     </g>
     <g id="text_10">
      <!-- 0.4 -->
      <g transform="translate(49.096875 255.223219) scale(0.1 -0.1)">
       <use xlink:href="#DejaVuSans-30"/>
       <use xlink:href="#DejaVuSans-2e" x="63.623047"/>
       <use xlink:href="#DejaVuSans-34" x="95.410156"/>
      </g>
     </g>
    </g>
    <g id="ytick_4">
     <g id="line2d_10">
      <g>
       <use xlink:href="#meff7cd28c2" x="72" y="184.896" style="stroke: #000000; stroke-width: 0.8"/>
      </g>
     </g>
     <g id="text_11">
      <!-- 0.6 -->
      <g transform="translate(49.096875 188.695219) scale(0.1 -0.1)">
       <defs>
        <path id="DejaVuSans-36" d="M 2113 2584 
Q 1688 2584 1439 2293 
Q 1191 2003 1191 1497 
Q 1191 994 1439 701 
Q 1688 409 2113 409 
Q 2538 409 2786 701 
Q 3034 994 3034 1497 
Q 3034 2003 2786 2293 
Q 2538 2584 2113 2584 
z
M 3366 4563 
L 3366 3988 
Q 3128 4100 2886 4159 
Q 2644 4219 2406 4219 
Q 1781 4219 1451 3797 
Q 1122 3375 1075 2522 
Q 1259 2794 1537 2939 
Q 1816 3084 2150 3084 
Q 2853 3084 3261 2657 
Q 3669 2231 3669 1497 
Q 3669 778 3244 343 
Q 2819 -91 2113 -91 
Q 1303 -91 875 529 
Q 447 1150 447 2328 
Q 447 3434 972 4092 
Q 1497 4750 2381 4750 
Q 2619 4750 2861 4703 
Q 3103 4656 3366 4563 
z
" transform="scale(0.015625)"/>
       </defs>
       <use xlink:href="#DejaVuSans-30"/>
       <use xlink:href="#DejaVuSans-2e" x="63.623047"/>
       <use xlink:href="#DejaVuSans-36" x="95.410156"/>
      </g>
     </g>
    </g>
    <g id="ytick_5">
     <g id="line2d_11">
      <g>
       <use xlink:href="#meff7cd28c2" x="72" y="118.368" style="stroke: #000000; stroke-width: 0.8"/>
      </g>
     </g>
     <g id="text_12">
      <!-- 0.8 -->
      <g transform="translate(49.096875 122.167219) scale(0.1 -0.1)">
       <defs>
        <path id="DejaVuSans-38" d="M 2034 2216 
Q 1584 2216 1326 1975 
Q 1069 1734 1069 1313 
Q 1069 891 1326 650 
Q 1584 409 2034 409 
Q 2484 409 2743 651 
Q 3003 894 3003 1313 
Q 3003 1734 2745 1975 
Q 2488 2216 2034 2216 
z
M 1403 2484 
Q 997 2584 770 2862 
Q 544 3141 544 3541 
Q 544 4100 942 4425 
Q 1341 4750 2034 4750 
Q 2731 4750 3128 4425 
Q 3525 4100 3525 3541 
Q 3525 3141 3298 2862 
Q 3072 2584 2669 2484 
Q 3125 2378 3379 2068 
Q 3634 1759 3634 1313 
Q 3634 634 3220 271 
Q 2806 -91 2034 -91 
Q 1263 -91 848 271 
Q 434 634 434 1313 
Q 434 1759 690 2068 
Q 947 2378 1403 2484 
z
M 1172 3481 
Q 1172 3119 1398 2916 
Q 1625 2713 2034 2713 
Q 2441 2713 2670 2916 
Q 2900 3119 2900 3481 
Q 2900 3844 2670 4047 
Q 2441 4250 2034 4250 
Q 1625 4250 1398 4047 
Q 1172 3844 1172 3481 
z
" transform="scale(0.015625)"/>
       </defs>
       <use xlink:href="#DejaVuSans-30"/>
       <use xlink:href="#DejaVuSans-2e" x="63.623047"/>
       <use xlink:href="#DejaVuSans-38" x="95.410156"/>
      </g>
     </g>
    </g>
    <g id="ytick_6">
     <g id="line2d_12">
      <g>
       <use xlink:href="#meff7cd28c2" x="72" y="51.84" style="stroke: #000000; stroke-width: 0.8"/>
      </g>
     </g>
     <g id="text_13">
      <!-- 1.0 -->
      <g transform="translate(49.096875 55.639219) scale(0.1 -0.1)">
       <use xlink:href="#DejaVuSans-31"/>
       <use xlink:href="#DejaVuSans-2e" x="63.623047"/>
       <use xlink:href="#DejaVuSans-30" x="95.410156"/>
      </g>
     </g>
    </g>
    <g id="text_14">
     <!-- rate -->
     <g transform="translate(43.017187 228.31625) rotate(-90) scale(0.1 -0.1)">
      <defs>
       <path id="DejaVuSans-72" d="M 2631 2963 
Q 2534 3019 2420 3045 
Q 2306 3072 2169 3072 
Q 1681 3072 1420 2755 
Q 1159 2438 1159 1844 
L 1159 0 
L 581 0 
L 581 3500 
L 1159 3500 
L 1159 2956 
Q 1341 3275 1631 3429 
Q 1922 3584 2338 3584 
Q 2397 3584 2469 3576 
Q 2541 3569 2628 3553 
L 2631 2963 
z
" transform="scale(0.015625)"/>
       <path id="DejaVuSans-61" d="M 2194 1759 
Q 1497 1759 1228 1600 
Q 959 1441 959 1056 
Q 959 750 1161 570 
Q 1363 391 1709 391 
Q 2188 391 2477 730 
Q 2766 1069 2766 1631 
L 2766 1759 
L 2194 1759 
z
M 3341 1997 
L 3341 0 
L 2766 0 
L 2766 531 
Q 2569 213 2275 61 
Q 1981 -91 1556 -91 
Q 1019 -91 701 211 
Q 384 513 384 1019 
Q 384 1609 779 1909 
Q 1175 2209 1959 2209 
L 2766 2209 
L 2766 2266 
Q 2766 2663 2505 2880 
Q 2244 3097 1772 3097 
Q 1472 3097 1187 3025 
Q 903 2953 641 2809 
L 641 3341 
Q 956 3463 1253 3523 
Q 1550 3584 1831 3584 
Q 2591 3584 2966 3190 
Q 3341 2797 3341 1997 
z
" transform="scale(0.015625)"/>
       <path id="DejaVuSans-74" d="M 1172 4494 
L 1172 3500 
L 2356 3500 
L 2356 3053 
L 1172 3053 
L 1172 1153 
Q 1172 725 1289 603 
Q 1406 481 1766 481 
L 2356 481 
L 2356 0 
L 1766 0 
Q 1100 0 847 248 
Q 594 497 594 1153 
L 594 3053 
L 172 3053 
L 172 3500 
L 594 3500 
L 594 4494 
L 1172 4494 
z
" transform="scale(0.015625)"/>
      </defs>
      <use xlink:href="#DejaVuSans-72"/>
      <use xlink:href="#DejaVuSans-61" x="41.113281"/>
      <use xlink:href="#DejaVuSans-74" x="102.392578"/>
      <use xlink:href="#DejaVuSans-65" x="141.601562"/>
     </g>
    </g>
   </g>
   <g id="line2d_13">
    <path d="M 92.290909 374.46269 
L 93.104172 372.349456 
L 93.917435 365.430132 
L 94.730698 325.001325 
L 95.543961 186.311493 
L 96.357224 173.537564 
L 97.170486 154.190763 
L 97.983749 144.669772 
L 98.797012 152.40559 
L 99.610275 114.771894 
L 100.423538 357.184089 
L 101.236801 345.986724 
L 102.050064 310.931456 
L 102.863327 195.131068 
L 104.489852 104.362103 
L 105.303115 142.559993 
L 106.116378 88.799998 
L 106.929641 151.632004 
L 107.742904 121.869464 
L 108.556167 353.098867 
L 109.36943 288.275295 
L 110.182693 174.134115 
L 110.995956 167.540862 
L 111.809218 153.480009 
L 112.622481 162.719993 
L 113.435744 143.43652 
L 114.249007 148.860007 
L 115.06227 148.257388 
L 115.875533 138.239991 
L 116.688796 345.893761 
L 117.502059 309.87736 
L 118.315322 156.559997 
L 119.128584 110.78887 
L 119.941847 77.039996 
L 120.75511 62.928009 
L 121.568373 79.105581 
L 122.381636 77.427691 
L 123.194899 78.239998 
L 124.008162 78.239998 
L 124.821425 334.512616 
L 125.634688 278.879996 
L 126.44795 140.151502 
L 128.074476 89.640004 
L 128.887739 102.71435 
L 129.701002 87.060704 
L 130.514265 87.060704 
L 131.327528 78.299995 
L 132.140791 77.712008 
L 132.954054 336.707235 
L 133.767316 283.412393 
L 134.580579 122.116051 
L 135.393842 72.63 
L 136.207105 79.851786 
L 137.020368 73.772306 
L 137.833631 66.302605 
L 138.646894 66.623999 
L 139.460157 74.519998 
L 140.27342 72.205705 
L 141.086682 331.257601 
L 141.899945 266.446455 
L 142.713208 121.757958 
L 143.526471 78.810815 
L 144.339734 78.810815 
L 145.152997 67.832309 
L 145.96626 82.079991 
L 147.592786 55.53601 
L 148.406048 58.698557 
L 149.219311 329.46646 
L 150.032574 266.005475 
L 150.845837 106.148565 
L 151.6591 74.202352 
L 152.472363 64.159993 
L 153.285626 72.63 
L 154.098889 55.008 
L 154.912152 55.133464 
L 155.725414 62.022852 
L 156.538677 54.978121 
L 157.35194 328.069988 
L 158.165203 256.686104 
L 158.978466 107.652078 
L 159.791729 62.570332 
L 160.604992 66.55859 
L 161.418255 57.383995 
L 162.231518 67.240001 
L 163.04478 54.783718 
L 163.858043 60.671154 
L 164.671306 65.013857 
L 165.484569 325.428967 
L 166.297832 269.584843 
L 167.111095 92.405855 
L 167.924358 67.311635 
L 168.737621 79.79294 
L 169.550884 57.12 
L 170.364146 61.720393 
L 171.177409 54.863997 
L 171.990672 57.999996 
L 172.803935 54.891735 
L 173.617198 324.081953 
L 176.056987 116.881336 
L 176.87025 84.693334 
L 177.683512 74.164839 
L 179.310038 61.481737 
L 180.123301 64.536188 
L 180.936564 66.198554 
L 181.749827 331.108657 
L 182.56309 300.357821 
L 183.376353 255.369053 
L 184.189616 159.988958 
L 185.002878 82.640001 
L 186.629404 58.582709 
L 187.442667 59.760009 
L 188.25593 59.232 
L 189.069193 51.84 
L 189.882456 326.207301 
L 190.695719 300.351417 
L 191.508982 234.322761 
L 192.322244 140.091426 
L 193.135507 89.977061 
L 193.94877 56.731769 
L 195.575296 62.570332 
L 196.388559 65.700007 
L 197.201822 59.887734 
L 198.015085 325.095369 
L 198.828348 298.808954 
L 199.64161 242.910005 
L 200.454873 152.591546 
L 201.268136 95.32235 
L 202.081399 63.47077 
L 202.894662 56.304976 
L 204.521188 56.804772 
L 205.334451 59.516317 
L 206.147714 322.770419 
L 206.960976 298.452417 
L 207.774239 244.37089 
L 209.400765 90.61398 
L 210.214028 60.480003 
L 211.027291 66.623999 
L 211.840554 51.84 
L 212.653817 64.936057 
L 213.46708 54.683077 
L 214.280343 325.587691 
L 215.093605 306.211764 
L 215.906868 259.520001 
L 216.720131 168.480002 
L 217.533394 94.175999 
L 218.346657 80.668792 
L 219.15992 58.968005 
L 219.973183 66.408183 
L 220.786446 64.536188 
L 221.599709 65.79692 
L 222.412971 320.351642 
L 223.226234 303.80651 
L 224.039497 255.549765 
L 224.85276 188.728887 
L 225.666023 101.460339 
L 226.479286 70.44924 
L 227.292549 59.63625 
L 228.105812 61.210148 
L 228.919075 56.804772 
L 229.732337 61.696006 
L 230.5456 322.739999 
L 231.358863 301.86 
L 232.172126 258.22248 
L 233.798652 124.383831 
L 234.611915 81.692316 
L 235.425178 75.755293 
L 236.238441 58.405258 
L 237.051703 63.980143 
L 237.864966 54.341043 
L 238.678229 324.661384 
L 239.491492 306.459843 
L 240.304755 263.589995 
L 242.744544 86.963473 
L 243.557807 67.788492 
L 244.371069 66.302605 
L 245.184332 58.917446 
L 245.997595 54.268021 
L 246.810858 321.457869 
L 247.624121 308.927696 
L 248.437384 278.937772 
L 249.250647 223.704005 
L 250.06391 139.551044 
L 250.877173 105.839999 
L 251.690435 81.852636 
L 252.503698 65.604421 
L 253.316961 65.234907 
L 254.130224 54.304006 
L 254.943487 325.754668 
L 255.75675 309.533333 
L 256.570013 280.573589 
L 257.383276 229.73924 
L 258.196539 145.541402 
L 259.009801 108.160003 
L 259.823064 77.103799 
L 260.636327 56.304976 
L 261.44959 63.077841 
L 262.262853 58.81847 
L 263.076116 322.757259 
L 263.889379 307.452744 
L 264.702642 277.732178 
L 265.515905 226.08 
L 266.329167 187.25097 
L 267.14243 113.306092 
L 267.955693 82.079991 
L 268.768956 65.057477 
L 269.582219 63.892171 
L 270.395482 56.396715 
L 271.208745 324.295746 
L 272.022008 309.855486 
L 273.648533 251.609835 
L 274.461796 188.03905 
L 276.088322 89.685268 
L 276.901585 66.302605 
L 277.714848 58.278187 
L 278.528111 54.250434 
L 279.341374 327.054935 
L 280.154637 310.559999 
L 280.967899 290.010237 
L 282.594425 207.618598 
L 283.407688 154.958401 
L 284.220951 119.879995 
L 285.034214 71.179544 
L 285.847477 64.552347 
L 286.66074 67.898491 
L 287.474003 323.366118 
L 288.287265 306.815156 
L 289.100528 286.497864 
L 289.913791 257.366949 
L 291.540317 173.068797 
L 292.35358 109.690441 
L 293.166843 75.886269 
L 293.980106 80.149784 
L 294.793369 62.366591 
L 295.606631 320.381864 
L 296.419894 315.691818 
L 297.233157 301.473713 
L 298.859683 233.369207 
L 300.486209 128.103811 
L 302.112735 66.766158 
L 302.925997 75.101541 
L 303.73926 323.290666 
L 304.552523 314.654693 
L 305.365786 297.288906 
L 306.179049 270.623356 
L 306.992312 234.642162 
L 307.805575 212.870662 
L 308.618838 147.103106 
L 309.432101 122.34521 
L 310.245363 82.264381 
L 311.058626 71.154582 
L 311.871889 326.114942 
L 312.685152 318.049691 
L 313.498415 297.499933 
L 314.311678 282.347462 
L 315.938204 215.242097 
L 316.751467 176.947967 
L 317.564729 132.84559 
L 318.377992 112.143166 
L 319.191255 87.182996 
L 320.004518 324.150261 
L 320.817781 310.35148 
L 321.631044 304.12946 
L 322.444307 280.573589 
L 323.25757 249.023507 
L 324.070833 226.68923 
L 326.510621 102.34555 
L 327.323884 91.589443 
L 328.137147 321.43601 
L 328.95041 313.068364 
L 329.763673 306.993147 
L 330.576936 284.623162 
L 331.390199 267.218415 
L 332.203461 243.417761 
L 333.829987 154.91155 
L 334.64325 129.8025 
L 335.456513 95.809656 
L 336.269776 322.392682 
L 337.083039 313.627219 
L 337.896302 300.008332 
L 338.709565 288.538289 
L 340.33609 238.005001 
L 341.149353 228.386799 
L 341.962616 173.671118 
L 342.775879 144.240004 
L 343.589142 129.456005 
L 344.402405 321.063021 
L 345.215668 317.860741 
L 347.655456 276.596762 
L 348.468719 259.520001 
L 349.281982 234.050449 
L 350.095245 195.306873 
L 350.908508 166.644964 
L 351.721771 148.044705 
L 352.535034 321.63869 
L 353.348297 318.226155 
L 354.161559 311.730678 
L 354.974822 298.218113 
L 355.788085 276.924024 
L 356.601348 265.263157 
L 357.414611 243.674995 
L 358.227874 208.919996 
L 359.8544 158.163279 
L 360.667663 320.826665 
L 361.480925 317.415483 
L 362.294188 306.447159 
L 363.107451 299.587497 
L 364.733977 260.689311 
L 366.360503 244.527809 
L 367.173766 198.627758 
L 367.987029 179.778454 
L 368.800291 322.955954 
L 370.426817 310.727239 
L 371.24008 301.6 
L 372.053343 285.587026 
L 372.866606 276.774976 
L 374.493132 252.927461 
L 376.119657 193.079997 
L 376.93292 323.468142 
L 377.746183 315.995293 
L 378.559446 309.745902 
L 379.372709 308.879998 
L 380.185972 298.462787 
L 380.999235 278.858226 
L 381.812498 263.373208 
L 382.625761 255.716133 
L 383.439024 230.57194 
L 384.252286 211.602574 
L 385.065549 323.018428 
L 385.878812 317.775297 
L 386.692075 310.720696 
L 387.505338 306.864 
L 388.318601 290.460109 
L 389.131864 288.062612 
L 392.384915 227.823854 
L 393.198178 317.789339 
L 394.011441 323.842498 
L 394.824704 315.378568 
L 395.637967 301.839752 
L 396.45123 295.35973 
L 397.264493 292.459958 
L 398.077756 276.195059 
L 398.891018 272.081098 
L 399.704281 256.077518 
L 400.517544 235.433592 
L 401.330807 325.682077 
L 402.14407 320.112 
L 402.957333 312.870001 
L 403.770596 312.013796 
L 404.583859 303.445041 
L 406.210384 280.653997 
L 407.023647 279.399163 
L 407.83691 260.143685 
L 408.650173 252.120626 
L 409.463436 324.620867 
L 410.276699 322.028685 
L 411.089962 317.411855 
L 411.903225 309.270047 
L 412.716488 303.309475 
L 413.52975 295.854778 
L 414.343013 290.866491 
L 415.156276 273.124122 
L 415.969539 274.344159 
L 416.782802 256.926317 
L 417.596065 324.374256 
L 418.409328 318.125474 
L 419.222591 309.89909 
L 420.035854 314.276941 
L 420.849116 311.38395 
L 421.662379 301.6 
L 422.475642 293.262451 
L 423.288905 290.010237 
L 424.102168 273.841042 
L 424.915431 269.425693 
L 425.728694 319.643391 
L 426.541957 325.830317 
L 427.35522 315.254918 
L 428.168482 312.610338 
L 428.981745 311.411614 
L 429.795008 299.53898 
L 430.608271 299.98111 
L 431.421534 290.336607 
L 432.234797 283.123436 
L 433.04806 278.120855 
L 433.861323 322.727523 
L 434.674586 319.455958 
L 435.487848 313.589508 
L 436.301111 313.167136 
L 437.114374 311.885918 
L 437.927637 307.593708 
L 438.7409 299.333247 
L 439.554163 286.283694 
L 440.367426 290.445229 
L 441.180689 271.927242 
L 441.993952 322.517646 
L 442.807214 322.191107 
L 443.620477 317.070833 
L 444.43374 312.964753 
L 445.247003 309.552481 
L 446.060266 303.824027 
L 446.873529 302.909046 
L 447.686792 290.17485 
L 448.500055 287.712003 
L 449.313318 287.354197 
L 450.12658 323.000639 
L 450.939843 322.244129 
L 451.753106 317.686596 
L 452.566369 314.523677 
L 453.379632 313.234384 
L 454.192895 314.749565 
L 455.006158 303.049728 
L 455.819421 305.3596 
L 456.632684 299.98111 
L 457.445946 288.822854 
L 458.259209 317.204496 
L 459.072472 322.426601 
L 459.885735 316.280002 
L 460.698998 315.982128 
L 461.512261 310.136388 
L 462.325524 311.202782 
L 463.138787 303.824027 
L 463.95205 305.356893 
L 464.765312 302.847146 
L 465.578575 294.183678 
L 466.391838 321.981507 
L 467.205101 319.416993 
L 468.018364 319.542309 
L 468.831627 315.595425 
L 469.64489 310.50895 
L 470.458153 309.539301 
L 471.271416 310.89148 
L 472.084678 303.12223 
L 472.897941 305.739131 
L 473.711204 292.274527 
L 474.524467 323.851034 
L 475.33773 325.504284 
L 476.150993 321.203698 
L 476.964256 316.234564 
L 477.777519 316.66909 
L 478.590782 308.966899 
L 479.404044 310.670827 
L 480.217307 308.302901 
L 481.03057 311.026372 
L 481.843833 300.086986 
L 482.657096 324.702395 
L 483.470359 321.790153 
L 484.283622 319.360001 
L 485.096885 312.629758 
L 485.910148 320.367821 
L 487.536673 310.667912 
L 488.349936 302.965478 
L 489.163199 308.78638 
L 489.976462 302.648436 
L 490.789725 321.299323 
L 491.602988 322.941599 
L 492.416251 316.135241 
L 493.229514 319.997648 
L 494.042776 316.695059 
L 494.856039 312.469943 
L 495.669302 313.977352 
L 496.482565 308.503659 
L 497.295828 306.541377 
L 498.109091 305.997748 
L 498.109091 305.997748 
" clip-path="url(#pf4db1a54f3)" style="fill: none; stroke: #0000ff; stroke-width: 1.5; stroke-linecap: square"/>
   </g>
   <g id="line2d_14">
    <path d="M 92.290909 213.514183 
L 93.104172 230.239106 
L 93.917435 287.847153 
L 94.730698 334.305252 
L 95.543961 332.446927 
L 96.357224 336.163577 
L 97.170486 334.305252 
L 97.983749 326.871958 
L 98.797012 328.730278 
L 99.610275 328.730278 
L 100.423538 274.83888 
L 101.236801 285.988828 
L 102.050064 302.713741 
L 102.863327 315.722009 
L 103.67659 315.722009 
L 104.489852 354.746817 
L 105.303115 369.613408 
L 106.116378 369.613408 
L 106.929641 371.471732 
L 107.742904 356.605139 
L 108.556167 272.980555 
L 109.36943 274.83888 
L 110.182693 304.572066 
L 110.995956 300.855416 
L 111.809218 291.563803 
L 112.622481 295.280442 
L 113.435744 291.563803 
L 114.249007 289.705478 
L 115.06227 293.422127 
L 115.875533 278.555529 
L 116.688796 222.805807 
L 117.502059 226.522456 
L 118.315322 246.964019 
L 119.128584 263.688941 
L 119.941847 271.12223 
L 120.75511 276.697205 
L 121.568373 280.413854 
L 122.381636 295.280442 
L 123.194899 276.697205 
L 124.008162 276.697205 
L 124.821425 189.355971 
L 125.634688 198.647605 
L 127.261213 259.972292 
L 128.074476 239.53073 
L 128.887739 250.680668 
L 129.701002 243.247379 
L 130.514265 243.247379 
L 131.327528 233.955755 
L 132.140791 230.239106 
L 132.954054 183.781007 
L 133.767316 193.072621 
L 134.580579 176.347708 
L 135.393842 217.230833 
L 136.207105 222.805807 
L 137.020368 226.522456 
L 137.833631 220.947482 
L 138.646894 224.664132 
L 139.460157 232.097431 
L 140.27342 213.514183 
L 141.086682 168.914409 
L 141.899945 159.622795 
L 142.713208 154.047831 
L 143.526471 194.930956 
L 144.339734 194.930956 
L 145.152997 200.50592 
L 145.96626 235.81408 
L 146.779523 213.514183 
L 147.592786 219.089157 
L 148.406048 207.939219 
L 149.219311 144.756197 
L 150.032574 142.897883 
L 150.845837 155.906146 
L 151.6591 178.206043 
L 152.472363 191.214306 
L 153.285626 189.355971 
L 154.098889 191.214306 
L 154.912152 198.647605 
L 155.725414 207.939219 
L 156.538677 189.355971 
L 157.35194 150.331182 
L 158.165203 131.747934 
L 158.978466 154.047831 
L 159.791729 161.48111 
L 160.604992 183.781007 
L 161.418255 165.19776 
L 162.231518 193.072621 
L 163.04478 176.347708 
L 163.858043 180.064358 
L 164.671306 204.222569 
L 165.484569 126.17297 
L 166.297832 154.047831 
L 167.111095 116.881336 
L 167.924358 155.906146 
L 168.737621 181.922672 
L 169.550884 154.047831 
L 170.364146 202.364255 
L 171.177409 181.922672 
L 171.990672 187.497657 
L 172.803935 183.781007 
L 173.617198 135.464584 
L 174.430461 131.747934 
L 175.243724 115.023021 
L 176.056987 116.881336 
L 176.87025 113.164687 
L 177.683512 126.17297 
L 178.496775 165.19776 
L 179.310038 135.464584 
L 180.123301 150.331182 
L 180.936564 137.322898 
L 181.749827 144.756197 
L 182.56309 100.156423 
L 183.376353 116.881336 
L 184.189616 129.8896 
L 185.002878 111.306372 
L 185.816141 141.039548 
L 186.629404 115.023021 
L 187.442667 155.906146 
L 188.25593 139.181233 
L 189.069193 167.056094 
L 189.882456 116.881336 
L 190.695719 102.014758 
L 191.508982 116.881336 
L 192.322244 116.881336 
L 193.94877 135.464584 
L 195.575296 161.48111 
L 196.388559 170.772744 
L 197.201822 159.622795 
L 198.015085 128.031285 
L 198.828348 115.023021 
L 199.64161 118.739671 
L 200.454873 115.023021 
L 201.268136 137.322898 
L 202.081399 128.031285 
L 202.894662 111.306372 
L 204.521188 139.181233 
L 205.334451 148.472847 
L 206.147714 113.164687 
L 206.960976 105.731388 
L 207.774239 111.306372 
L 208.587502 124.314635 
L 209.400765 116.881336 
L 210.214028 105.731388 
L 211.027291 144.756197 
L 211.840554 111.306372 
L 212.653817 157.764461 
L 213.46708 168.914409 
L 214.280343 115.023021 
L 215.093605 124.314635 
L 215.906868 120.597986 
L 216.720131 105.731388 
L 217.533394 116.881336 
L 218.346657 129.8896 
L 219.15992 129.8896 
L 219.973183 141.039548 
L 220.786446 150.331182 
L 221.599709 129.8896 
L 222.412971 96.439774 
L 223.226234 113.164687 
L 224.039497 105.731388 
L 224.85276 118.739671 
L 225.666023 98.298109 
L 226.479286 133.606249 
L 227.292549 152.189496 
L 228.105812 128.031285 
L 228.919075 139.181233 
L 229.732337 141.039548 
L 230.5456 111.306372 
L 231.358863 100.156423 
L 232.172126 94.581459 
L 232.985389 105.731388 
L 233.798652 111.306372 
L 234.611915 120.597986 
L 235.425178 120.597986 
L 236.238441 107.589722 
L 237.051703 139.181233 
L 237.864966 139.181233 
L 238.678229 109.448037 
L 239.491492 109.448037 
L 240.304755 92.723125 
L 241.118018 103.873073 
L 241.931281 103.873073 
L 242.744544 116.881336 
L 243.557807 126.17297 
L 244.371069 139.181233 
L 245.184332 128.031285 
L 245.997595 131.747934 
L 246.810858 103.873073 
L 247.624121 116.881336 
L 248.437384 115.023021 
L 249.250647 115.023021 
L 250.06391 109.448037 
L 250.877173 144.756197 
L 251.690435 159.622795 
L 252.503698 126.17297 
L 253.316961 118.739671 
L 254.130224 135.464584 
L 254.943487 118.739671 
L 256.570013 107.589722 
L 257.383276 111.306372 
L 258.196539 100.156423 
L 259.009801 92.723125 
L 259.823064 113.164687 
L 260.636327 111.306372 
L 261.44959 118.739671 
L 262.262853 124.314635 
L 263.889379 92.723125 
L 264.702642 96.439774 
L 265.515905 87.14816 
L 266.329167 135.464584 
L 267.14243 105.731388 
L 267.955693 142.897883 
L 268.768956 115.023021 
L 269.582219 137.322898 
L 270.395482 116.881336 
L 271.208745 109.448037 
L 272.022008 100.156423 
L 272.835271 81.573176 
L 273.648533 118.739671 
L 274.461796 105.731388 
L 275.275059 128.031285 
L 276.088322 109.448037 
L 276.901585 139.181233 
L 277.714848 102.014758 
L 278.528111 129.8896 
L 279.341374 133.606249 
L 280.154637 113.164687 
L 280.967899 120.597986 
L 281.781162 96.439774 
L 282.594425 103.873073 
L 283.407688 128.031285 
L 284.220951 124.314635 
L 285.034214 83.431511 
L 285.847477 103.873073 
L 286.66074 128.031285 
L 288.287265 89.006475 
L 289.100528 92.723125 
L 289.913791 98.298109 
L 290.727054 120.597986 
L 291.540317 118.739671 
L 292.35358 102.014758 
L 293.166843 98.298109 
L 293.980106 144.756197 
L 294.793369 100.156423 
L 295.606631 100.156423 
L 296.419894 124.314635 
L 297.233157 133.606249 
L 298.04642 98.298109 
L 298.859683 98.298109 
L 299.672946 100.156423 
L 300.486209 90.86481 
L 301.299472 122.45632 
L 302.112735 107.589722 
L 302.925997 137.322898 
L 303.73926 107.589722 
L 304.552523 116.881336 
L 305.365786 113.164687 
L 306.179049 100.156423 
L 306.992312 105.731388 
L 307.805575 113.164687 
L 308.618838 102.014758 
L 309.432101 115.023021 
L 310.245363 107.589722 
L 311.871889 118.739671 
L 312.685152 131.747934 
L 313.498415 109.448037 
L 314.311678 116.881336 
L 315.124941 100.156423 
L 315.938204 115.023021 
L 316.751467 122.45632 
L 317.564729 113.164687 
L 318.377992 124.314635 
L 320.004518 113.164687 
L 320.817781 90.86481 
L 321.631044 118.739671 
L 322.444307 107.589722 
L 323.25757 90.86481 
L 324.070833 109.448037 
L 324.884095 96.439774 
L 325.697358 115.023021 
L 326.510621 83.431511 
L 327.323884 124.314635 
L 328.137147 102.014758 
L 328.95041 96.439774 
L 329.763673 124.314635 
L 330.576936 98.298109 
L 331.390199 111.306372 
L 332.203461 109.448037 
L 333.016724 98.298109 
L 333.829987 111.306372 
L 334.64325 111.306372 
L 335.456513 103.873073 
L 336.269776 103.873073 
L 337.083039 98.298109 
L 337.896302 85.289826 
L 338.709565 102.014758 
L 339.522827 94.581459 
L 340.33609 96.439774 
L 341.149353 115.023021 
L 341.962616 98.298109 
L 342.775879 94.581459 
L 343.589142 128.031285 
L 344.402405 89.006475 
L 345.215668 113.164687 
L 346.028931 92.723125 
L 346.842193 94.581459 
L 347.655456 94.581459 
L 348.468719 120.597986 
L 349.281982 120.597986 
L 350.095245 107.589722 
L 350.908508 109.448037 
L 351.721771 115.023021 
L 352.535034 105.731388 
L 353.348297 115.023021 
L 354.161559 115.023021 
L 354.974822 113.164687 
L 355.788085 103.873073 
L 356.601348 118.739671 
L 357.414611 107.589722 
L 358.227874 102.014758 
L 359.041137 115.023021 
L 359.8544 107.589722 
L 360.667663 96.439774 
L 361.480925 105.731388 
L 362.294188 94.581459 
L 363.107451 111.306372 
L 364.733977 81.573176 
L 365.54724 116.881336 
L 366.360503 128.031285 
L 367.173766 92.723125 
L 367.987029 116.881336 
L 368.800291 105.731388 
L 369.613554 102.014758 
L 370.426817 111.306372 
L 371.24008 109.448037 
L 372.053343 98.298109 
L 372.866606 111.306372 
L 373.679869 109.448037 
L 374.493132 124.314635 
L 375.306395 120.597986 
L 376.119657 115.023021 
L 376.93292 113.164687 
L 377.746183 98.298109 
L 378.559446 100.156423 
L 379.372709 133.606249 
L 380.185972 118.739671 
L 380.999235 98.298109 
L 381.812498 105.731388 
L 382.625761 116.881336 
L 383.439024 96.439774 
L 384.252286 115.023021 
L 385.878812 103.873073 
L 386.692075 100.156423 
L 387.505338 111.306372 
L 388.318601 90.86481 
L 389.131864 124.314635 
L 389.945127 103.873073 
L 390.75839 109.448037 
L 391.571652 100.156423 
L 392.384915 98.298109 
L 393.198178 79.714861 
L 394.011441 124.314635 
L 394.824704 115.023021 
L 395.637967 89.006475 
L 396.45123 92.723125 
L 397.264493 109.448037 
L 398.077756 100.156423 
L 398.891018 109.448037 
L 399.704281 107.589722 
L 400.517544 103.873073 
L 401.330807 118.739671 
L 402.957333 96.439774 
L 403.770596 116.881336 
L 404.583859 118.739671 
L 405.397122 96.439774 
L 406.210384 92.723125 
L 407.023647 103.873073 
L 407.83691 98.298109 
L 408.650173 102.014758 
L 409.463436 107.589722 
L 410.276699 116.881336 
L 411.089962 107.589722 
L 411.903225 107.589722 
L 412.716488 100.156423 
L 413.52975 105.731388 
L 414.343013 105.731388 
L 415.156276 94.581459 
L 415.969539 109.448037 
L 416.782802 100.156423 
L 417.596065 113.164687 
L 418.409328 100.156423 
L 419.222591 81.573176 
L 420.035854 107.589722 
L 420.849116 128.031285 
L 421.662379 109.448037 
L 422.475642 105.731388 
L 423.288905 120.597986 
L 424.102168 100.156423 
L 424.915431 111.306372 
L 425.728694 85.289826 
L 426.541957 135.464584 
L 427.35522 98.298109 
L 428.168482 109.448037 
L 428.981745 118.739671 
L 429.795008 96.439774 
L 430.608271 120.597986 
L 431.421534 105.731388 
L 432.234797 107.589722 
L 433.04806 107.589722 
L 433.861323 105.731388 
L 434.674586 111.306372 
L 435.487848 94.581459 
L 436.301111 96.439774 
L 437.114374 113.164687 
L 437.927637 116.881336 
L 438.7409 105.731388 
L 439.554163 87.14816 
L 440.367426 111.306372 
L 441.180689 92.723125 
L 441.993952 102.014758 
L 442.807214 116.881336 
L 443.620477 100.156423 
L 444.43374 102.014758 
L 445.247003 92.723125 
L 446.060266 100.156423 
L 446.873529 98.298109 
L 447.686792 77.856527 
L 448.500055 87.14816 
L 449.313318 100.156423 
L 450.12658 103.873073 
L 450.939843 115.023021 
L 451.753106 103.873073 
L 452.566369 103.873073 
L 453.379632 109.448037 
L 454.192895 133.606249 
L 455.006158 100.156423 
L 455.819421 120.597986 
L 456.632684 120.597986 
L 457.445946 96.439774 
L 458.259209 83.431511 
L 459.072472 111.306372 
L 459.885735 96.439774 
L 460.698998 100.156423 
L 461.512261 94.581459 
L 462.325524 102.014758 
L 463.138787 100.156423 
L 463.95205 111.306372 
L 464.765312 111.306372 
L 465.578575 96.439774 
L 466.391838 102.014758 
L 467.205101 103.873073 
L 468.018364 111.306372 
L 468.831627 102.014758 
L 469.64489 85.289826 
L 470.458153 96.439774 
L 471.271416 109.448037 
L 472.084678 90.86481 
L 472.897941 111.306372 
L 473.711204 90.86481 
L 475.33773 126.17297 
L 476.150993 116.881336 
L 476.964256 103.873073 
L 477.777519 109.448037 
L 478.590782 90.86481 
L 479.404044 109.448037 
L 480.217307 105.731388 
L 481.03057 124.314635 
L 481.843833 98.298109 
L 482.657096 111.306372 
L 483.470359 111.306372 
L 484.283622 109.448037 
L 485.096885 83.431511 
L 485.910148 128.031285 
L 486.72341 105.731388 
L 487.536673 102.014758 
L 488.349936 85.289826 
L 489.163199 111.306372 
L 489.976462 98.298109 
L 491.602988 109.448037 
L 492.416251 90.86481 
L 493.229514 115.023021 
L 494.042776 103.873073 
L 494.856039 96.439774 
L 495.669302 107.589722 
L 496.482565 94.581459 
L 497.295828 100.156423 
L 498.109091 103.873073 
L 498.109091 103.873073 
" clip-path="url(#pf4db1a54f3)" style="fill: none; stroke: #008000; stroke-width: 1.5; stroke-linecap: square"/>
   </g>
   <g id="patch_3">
    <path d="M 72 384.48 
L 72 51.84 
" style="fill: none; stroke: #000000; stroke-width: 0.8; stroke-linejoin: miter; stroke-linecap: square"/>
   </g>
   <g id="patch_4">
    <path d="M 518.4 384.48 
L 518.4 51.84 
" style="fill: none; stroke: #000000; stroke-width: 0.8; stroke-linejoin: miter; stroke-linecap: square"/>
   </g>
   <g id="patch_5">
    <path d="M 72 384.48 
L 518.4 384.48 
" style="fill: none; stroke: #000000; stroke-width: 0.8; stroke-linejoin: miter; stroke-linecap: square"/>
   </g>
   <g id="patch_6">
    <path d="M 72 51.84 
L 518.4 51.84 
" style="fill: none; stroke: #000000; stroke-width: 0.8; stroke-linejoin: miter; stroke-linecap: square"/>
   </g>
   <g id="legend_1">
    <g id="patch_7">
     <path d="M 79 89.19625 
L 156.107812 89.19625 
Q 158.107812 89.19625 158.107812 87.19625 
L 158.107812 58.84 
Q 158.107812 56.84 156.107812 56.84 
L 79 56.84 
Q 77 56.84 77 58.84 
L 77 87.19625 
Q 77 89.19625 79 89.19625 
z
" style="fill: #ffffff; opacity: 0.8; stroke: #cccccc; stroke-linejoin: miter"/>
    </g>
    <g id="line2d_15">
     <path d="M 81 64.938437 
L 91 64.938437 
L 101 64.938437 
" style="fill: none; stroke: #0000ff; stroke-width: 1.5; stroke-linecap: square"/>
    </g>
    <g id="text_15">
     <!-- precision -->
     <g transform="translate(109 68.438437) scale(0.1 -0.1)">
      <defs>
       <path id="DejaVuSans-69" d="M 603 3500 
L 1178 3500 
L 1178 0 
L 603 0 
L 603 3500 
z
M 603 4863 
L 1178 4863 
L 1178 4134 
L 603 4134 
L 603 4863 
z
" transform="scale(0.015625)"/>
       <path id="DejaVuSans-73" d="M 2834 3397 
L 2834 2853 
Q 2591 2978 2328 3040 
Q 2066 3103 1784 3103 
Q 1356 3103 1142 2972 
Q 928 2841 928 2578 
Q 928 2378 1081 2264 
Q 1234 2150 1697 2047 
L 1894 2003 
Q 2506 1872 2764 1633 
Q 3022 1394 3022 966 
Q 3022 478 2636 193 
Q 2250 -91 1575 -91 
Q 1294 -91 989 -36 
Q 684 19 347 128 
L 347 722 
Q 666 556 975 473 
Q 1284 391 1588 391 
Q 1994 391 2212 530 
Q 2431 669 2431 922 
Q 2431 1156 2273 1281 
Q 2116 1406 1581 1522 
L 1381 1569 
Q 847 1681 609 1914 
Q 372 2147 372 2553 
Q 372 3047 722 3315 
Q 1072 3584 1716 3584 
Q 2034 3584 2315 3537 
Q 2597 3491 2834 3397 
z
" transform="scale(0.015625)"/>
       <path id="DejaVuSans-6e" d="M 3513 2113 
L 3513 0 
L 2938 0 
L 2938 2094 
Q 2938 2591 2744 2837 
Q 2550 3084 2163 3084 
Q 1697 3084 1428 2787 
Q 1159 2491 1159 1978 
L 1159 0 
L 581 0 
L 581 3500 
L 1159 3500 
L 1159 2956 
Q 1366 3272 1645 3428 
Q 1925 3584 2291 3584 
Q 2894 3584 3203 3211 
Q 3513 2838 3513 2113 
z
" transform="scale(0.015625)"/>
      </defs>
      <use xlink:href="#DejaVuSans-70"/>
      <use xlink:href="#DejaVuSans-72" x="63.476562"/>
      <use xlink:href="#DejaVuSans-65" x="102.339844"/>
      <use xlink:href="#DejaVuSans-63" x="163.863281"/>
      <use xlink:href="#DejaVuSans-69" x="218.84375"/>
      <use xlink:href="#DejaVuSans-73" x="246.626953"/>
      <use xlink:href="#DejaVuSans-69" x="298.726562"/>
      <use xlink:href="#DejaVuSans-6f" x="326.509766"/>
      <use xlink:href="#DejaVuSans-6e" x="387.691406"/>
     </g>
    </g>
    <g id="line2d_16">
     <path d="M 81 79.616562 
L 91 79.616562 
L 101 79.616562 
" style="fill: none; stroke: #008000; stroke-width: 1.5; stroke-linecap: square"/>
    </g>
    <g id="text_16">
     <!-- recall -->
     <g transform="translate(109 83.116562) scale(0.1 -0.1)">
      <defs>
       <path id="DejaVuSans-6c" d="M 603 4863 
L 1178 4863 
L 1178 0 
L 603 0 
L 603 4863 
z
" transform="scale(0.015625)"/>
      </defs>
      <use xlink:href="#DejaVuSans-72"/>
      <use xlink:href="#DejaVuSans-65" x="38.863281"/>
      <use xlink:href="#DejaVuSans-63" x="100.386719"/>
      <use xlink:href="#DejaVuSans-61" x="155.367188"/>
      <use xlink:href="#DejaVuSans-6c" x="216.646484"/>
      <use xlink:href="#DejaVuSans-6c" x="244.429688"/>
     </g>
    </g>
   </g>
  </g>
  <g id="axes_2">
   <g id="matplotlib.axis_3">
    <g id="ytick_7">
     <g id="line2d_17">
      <defs>
       <path id="m3299693ee4" d="M 0 0 
L 3.5 0 
" style="stroke: #000000; stroke-width: 0.8"/>
      </defs>
      <g>
       <use xlink:href="#m3299693ee4" x="518.4" y="353.131871" style="stroke: #000000; stroke-width: 0.8"/>
      </g>
     </g>
     <g id="text_17">
      <!-- 0.2 -->
      <g transform="translate(525.4 356.93109) scale(0.1 -0.1)">
       <use xlink:href="#DejaVuSans-30"/>
       <use xlink:href="#DejaVuSans-2e" x="63.623047"/>
       <use xlink:href="#DejaVuSans-32" x="95.410156"/>
      </g>
     </g>
    </g>
    <g id="ytick_8">
     <g id="line2d_18">
      <g>
       <use xlink:href="#m3299693ee4" x="518.4" y="279.263201" style="stroke: #000000; stroke-width: 0.8"/>
      </g>
     </g>
     <g id="text_18">
      <!-- 0.4 -->
      <g transform="translate(525.4 283.06242) scale(0.1 -0.1)">
       <use xlink:href="#DejaVuSans-30"/>
       <use xlink:href="#DejaVuSans-2e" x="63.623047"/>
       <use xlink:href="#DejaVuSans-34" x="95.410156"/>
      </g>
     </g>
    </g>
    <g id="ytick_9">
     <g id="line2d_19">
      <g>
       <use xlink:href="#m3299693ee4" x="518.4" y="205.39453" style="stroke: #000000; stroke-width: 0.8"/>
      </g>
     </g>
     <g id="text_19">
      <!-- 0.6 -->
      <g transform="translate(525.4 209.193749) scale(0.1 -0.1)">
       <use xlink:href="#DejaVuSans-30"/>
       <use xlink:href="#DejaVuSans-2e" x="63.623047"/>
       <use xlink:href="#DejaVuSans-36" x="95.410156"/>
      </g>
     </g>
    </g>
    <g id="ytick_10">
     <g id="line2d_20">
      <g>
       <use xlink:href="#m3299693ee4" x="518.4" y="131.52586" style="stroke: #000000; stroke-width: 0.8"/>
      </g>
     </g>
     <g id="text_20">
      <!-- 0.8 -->
      <g transform="translate(525.4 135.325078) scale(0.1 -0.1)">
       <use xlink:href="#DejaVuSans-30"/>
       <use xlink:href="#DejaVuSans-2e" x="63.623047"/>
       <use xlink:href="#DejaVuSans-38" x="95.410156"/>
      </g>
     </g>
    </g>
    <g id="ytick_11">
     <g id="line2d_21">
      <g>
       <use xlink:href="#m3299693ee4" x="518.4" y="57.657189" style="stroke: #000000; stroke-width: 0.8"/>
      </g>
     </g>
     <g id="text_21">
      <!-- 1.0 -->
      <g transform="translate(525.4 61.456408) scale(0.1 -0.1)">
       <use xlink:href="#DejaVuSans-31"/>
       <use xlink:href="#DejaVuSans-2e" x="63.623047"/>
       <use xlink:href="#DejaVuSans-30" x="95.410156"/>
      </g>
     </g>
    </g>
    <g id="text_22">
     <!-- loss -->
     <g transform="translate(552.901563 227.817812) rotate(-90) scale(0.1 -0.1)">
      <use xlink:href="#DejaVuSans-6c"/>
      <use xlink:href="#DejaVuSans-6f" x="27.783203"/>
      <use xlink:href="#DejaVuSans-73" x="88.964844"/>
      <use xlink:href="#DejaVuSans-73" x="141.064453"/>
     </g>
    </g>
   </g>
   <g id="line2d_22">
    <path d="M 92.290909 66.96 
L 93.104172 131.741972 
L 93.917435 220.073689 
L 94.730698 286.342768 
L 95.543961 320.955807 
L 96.357224 336.404065 
L 97.170486 340.538727 
L 97.983749 341.692732 
L 98.797012 339.919077 
L 99.610275 341.120622 
L 100.423538 214.125768 
L 101.236801 268.028476 
L 102.050064 309.479563 
L 102.863327 330.13243 
L 103.67659 337.01449 
L 105.303115 338.483303 
L 106.116378 337.623419 
L 106.929641 337.945603 
L 107.742904 338.046121 
L 108.556167 243.876237 
L 109.36943 292.764762 
L 110.182693 324.25817 
L 110.995956 341.141745 
L 112.622481 349.826508 
L 113.435744 349.332792 
L 114.249007 350.581476 
L 115.06227 348.856744 
L 115.875533 350.809018 
L 116.688796 241.794374 
L 117.502059 294.351364 
L 118.315322 332.208834 
L 119.128584 348.494042 
L 119.941847 354.631228 
L 120.75511 357.335439 
L 121.568373 357.939045 
L 122.381636 357.00336 
L 123.194899 358.468623 
L 124.008162 357.669235 
L 124.821425 253.047412 
L 125.634688 302.037996 
L 126.44795 336.438628 
L 127.261213 349.607573 
L 128.074476 358.75157 
L 128.887739 359.373609 
L 130.514265 360.847832 
L 131.327528 362.657216 
L 132.140791 359.81062 
L 132.954054 252.679196 
L 133.767316 303.082511 
L 134.580579 338.932384 
L 135.393842 355.453792 
L 136.207105 360.601786 
L 137.020368 363.590276 
L 137.833631 364.462538 
L 138.646894 364.654241 
L 139.460157 361.873348 
L 140.27342 363.381005 
L 141.086682 255.849241 
L 141.899945 306.664151 
L 142.713208 342.385822 
L 143.526471 358.144166 
L 144.339734 364.14588 
L 145.152997 366.764327 
L 145.96626 363.848931 
L 146.779523 365.554857 
L 147.592786 363.451925 
L 148.406048 366.307013 
L 149.219311 253.717998 
L 150.032574 307.42 
L 150.845837 341.354219 
L 151.6591 358.279798 
L 152.472363 363.782161 
L 153.285626 367.602538 
L 154.098889 367.808434 
L 154.912152 368.396427 
L 155.725414 364.565698 
L 156.538677 366.607946 
L 157.35194 257.256093 
L 158.165203 309.232185 
L 158.978466 343.091395 
L 159.791729 359.633491 
L 160.604992 365.010128 
L 161.418255 369.196035 
L 162.231518 367.058128 
L 163.04478 368.277114 
L 163.858043 368.751418 
L 164.671306 366.511044 
L 165.484569 257.222565 
L 166.297832 308.26504 
L 167.111095 346.535174 
L 167.924358 359.72653 
L 168.737621 365.97997 
L 169.550884 369.212866 
L 170.364146 367.4528 
L 171.177409 369.36 
L 171.990672 368.550194 
L 172.803935 368.888635 
L 173.617198 258.475393 
L 174.430461 309.65744 
L 175.243724 326.566773 
L 176.056987 340.254255 
L 176.87025 350.401281 
L 177.683512 356.336054 
L 178.496775 359.773696 
L 179.310038 365.652998 
L 180.123301 365.671105 
L 180.936564 367.625042 
L 181.749827 254.187217 
L 182.56309 285.121344 
L 183.376353 309.684122 
L 185.002878 344.693137 
L 185.816141 352.370056 
L 186.629404 361.633152 
L 187.442667 363.387945 
L 188.25593 366.660875 
L 189.069193 366.728036 
L 189.882456 256.275872 
L 190.695719 285.759745 
L 191.508982 310.358869 
L 192.322244 329.425916 
L 193.135507 344.003464 
L 193.94877 354.182742 
L 194.762033 359.343686 
L 196.388559 365.565253 
L 197.201822 367.989163 
L 198.015085 258.014782 
L 199.64161 308.728183 
L 200.454873 328.506885 
L 201.268136 340.779908 
L 202.894662 360.251237 
L 203.707925 363.279039 
L 205.334451 367.217393 
L 206.147714 258.500115 
L 207.774239 306.726199 
L 209.400765 340.573923 
L 210.214028 351.096507 
L 211.027291 355.203151 
L 211.840554 362.70535 
L 212.653817 362.13443 
L 213.46708 363.852095 
L 214.280343 256.257248 
L 215.093605 281.836692 
L 216.720131 323.584084 
L 217.533394 336.923427 
L 218.346657 346.317615 
L 219.15992 354.026801 
L 219.973183 359.348953 
L 220.786446 361.475726 
L 221.599709 365.387667 
L 222.412971 259.68363 
L 224.039497 302.943896 
L 225.666023 335.366253 
L 226.479286 343.943486 
L 228.105812 357.365026 
L 228.919075 360.043925 
L 229.732337 363.202797 
L 230.5456 259.083623 
L 232.172126 301.460004 
L 232.985389 318.645102 
L 233.798652 331.562123 
L 234.611915 341.925827 
L 236.238441 356.684214 
L 237.051703 358.690722 
L 237.864966 362.051187 
L 238.678229 259.391452 
L 240.304755 299.413539 
L 241.118018 315.735985 
L 241.931281 328.515999 
L 242.744544 338.943199 
L 243.557807 347.080993 
L 244.371069 351.82836 
L 245.184332 357.567148 
L 245.997595 361.043492 
L 246.810858 258.950566 
L 248.437384 295.838482 
L 250.06391 326.203191 
L 253.316961 355.529043 
L 254.130224 358.204205 
L 254.943487 258.594756 
L 256.570013 294.576529 
L 258.196539 324.831297 
L 259.009801 333.871607 
L 260.636327 348.245393 
L 261.44959 353.35583 
L 262.262853 356.290418 
L 263.076116 258.880483 
L 263.889379 277.677555 
L 265.515905 308.828724 
L 266.329167 318.261145 
L 267.14243 330.250693 
L 268.768956 345.337064 
L 269.582219 347.766719 
L 270.395482 354.921155 
L 271.208745 260.062105 
L 273.648533 303.703267 
L 274.461796 317.7099 
L 276.088322 336.102905 
L 276.901585 340.845346 
L 277.714848 348.199487 
L 278.528111 352.005351 
L 279.341374 257.235741 
L 280.967899 288.397719 
L 281.781162 303.61085 
L 282.594425 315.337433 
L 284.220951 331.981215 
L 285.034214 341.229848 
L 286.66074 348.89206 
L 287.474003 259.583012 
L 288.287265 276.29844 
L 289.913791 301.391076 
L 292.35358 330.518896 
L 293.166843 337.499037 
L 293.980106 340.478672 
L 294.793369 347.705183 
L 295.606631 259.669441 
L 297.233157 284.558486 
L 298.04642 298.415189 
L 299.672946 318.554413 
L 300.486209 326.856991 
L 302.112735 339.772543 
L 302.925997 342.171961 
L 303.73926 259.315513 
L 306.179049 296.80315 
L 306.992312 307.150255 
L 308.618838 323.163506 
L 309.432101 329.267951 
L 310.245363 336.542322 
L 311.058626 340.850679 
L 311.871889 258.993726 
L 312.685152 270.44363 
L 313.498415 283.513895 
L 314.311678 292.845369 
L 315.124941 304.217979 
L 316.751467 319.983918 
L 317.564729 326.861405 
L 318.377992 331.377256 
L 319.191255 337.538867 
L 320.004518 260.511125 
L 320.817781 272.367011 
L 321.631044 280.343069 
L 323.25757 302.397847 
L 324.070833 309.108078 
L 324.884095 317.794326 
L 325.697358 323.664679 
L 326.510621 331.453195 
L 327.323884 333.498338 
L 328.137147 260.368393 
L 328.95041 271.085795 
L 329.763673 278.838317 
L 330.576936 290.205699 
L 331.390199 297.731637 
L 332.203461 307.008371 
L 333.016724 314.99536 
L 335.456513 332.153126 
L 336.269776 260.271089 
L 339.522827 297.704393 
L 341.149353 310.275786 
L 341.962616 318.497285 
L 342.775879 324.176936 
L 343.589142 326.556118 
L 344.402405 261.100521 
L 345.215668 268.543695 
L 346.028931 279.306336 
L 347.655456 295.286455 
L 349.281982 306.677393 
L 350.095245 314.063449 
L 351.721771 323.863206 
L 352.535034 260.87824 
L 354.974822 284.601844 
L 355.788085 293.267014 
L 356.601348 298.19599 
L 357.414611 304.097097 
L 358.227874 311.52398 
L 359.8544 320.126815 
L 360.667663 260.856952 
L 361.480925 268.082973 
L 362.294188 277.239398 
L 363.107451 282.614291 
L 363.920714 290.929561 
L 364.733977 297.098563 
L 365.54724 301.194717 
L 366.360503 306.410334 
L 367.173766 313.613857 
L 367.987029 317.425263 
L 368.800291 260.454041 
L 370.426817 274.112723 
L 371.24008 280.60775 
L 372.053343 288.467362 
L 373.679869 298.57988 
L 374.493132 304.280974 
L 376.119657 313.779736 
L 376.93292 259.286234 
L 377.746183 267.718643 
L 378.559446 274.21924 
L 379.372709 277.538753 
L 380.999235 291.89654 
L 381.812498 297.071188 
L 382.625761 300.912127 
L 383.439024 306.47793 
L 384.252286 310.077501 
L 385.065549 260.165892 
L 385.878812 267.000021 
L 387.505338 278.229691 
L 388.318601 285.097304 
L 389.131864 288.27731 
L 389.945127 294.870941 
L 390.75839 298.836658 
L 391.571652 304.246521 
L 392.384915 307.863098 
L 393.198178 262.648774 
L 394.011441 264.332702 
L 394.824704 272.164752 
L 395.637967 278.659834 
L 396.45123 282.248519 
L 398.077756 292.819589 
L 398.891018 296.095623 
L 399.704281 301.203699 
L 400.517544 304.77781 
L 401.330807 258.854264 
L 402.957333 271.551536 
L 403.770596 274.361642 
L 405.397122 286.402296 
L 407.83691 298.078014 
L 408.650173 301.573203 
L 409.463436 259.933011 
L 410.276699 265.047526 
L 411.089962 269.427646 
L 411.903225 275.450472 
L 412.716488 279.209549 
L 413.52975 284.384725 
L 414.343013 287.954224 
L 415.156276 293.207717 
L 415.969539 295.247423 
L 416.782802 298.903142 
L 417.596065 260.884679 
L 419.222591 271.406195 
L 420.035854 272.559583 
L 420.849116 276.017809 
L 422.475642 286.129381 
L 423.288905 288.848611 
L 424.102168 293.540138 
L 424.915431 295.640494 
L 425.728694 261.576675 
L 426.541957 262.483125 
L 427.35522 269.006826 
L 428.981745 274.687369 
L 429.795008 281.249948 
L 430.608271 282.112865 
L 431.421534 287.467229 
L 432.234797 290.47606 
L 433.04806 292.900999 
L 433.861323 260.497344 
L 434.674586 263.532604 
L 435.487848 269.120399 
L 437.114374 274.504483 
L 437.927637 277.577553 
L 438.7409 282.05151 
L 439.554163 287.325994 
L 440.367426 287.504312 
L 441.180689 291.866953 
L 441.993952 261.199058 
L 443.620477 266.726336 
L 444.43374 270.811659 
L 446.060266 278.267259 
L 446.873529 280.086709 
L 447.686792 284.835408 
L 448.500055 286.655045 
L 449.313318 287.438544 
L 450.12658 260.251155 
L 451.753106 266.11487 
L 453.379632 272.159182 
L 454.192895 273.85262 
L 455.006158 278.973355 
L 455.819421 280.590315 
L 456.632684 281.952302 
L 457.445946 285.792228 
L 458.259209 262.457423 
L 459.072472 263.238049 
L 461.512261 272.298655 
L 462.325524 274.56105 
L 463.138787 277.930678 
L 464.765312 280.986929 
L 465.578575 284.231482 
L 466.391838 261.58001 
L 467.205101 264.589326 
L 468.018364 265.703208 
L 469.64489 271.819849 
L 470.458153 273.14188 
L 472.084678 278.270869 
L 472.897941 279.64306 
L 473.711204 283.401114 
L 474.524467 259.978372 
L 475.33773 261.829754 
L 476.150993 264.33356 
L 476.964256 267.45809 
L 477.777519 269.626184 
L 478.590782 273.229575 
L 479.404044 272.447958 
L 480.217307 276.979769 
L 481.03057 276.619193 
L 481.843833 281.431844 
L 482.657096 259.352608 
L 483.470359 262.667915 
L 484.283622 265.074219 
L 485.096885 268.594328 
L 485.910148 268.513931 
L 486.72341 271.690436 
L 487.536673 273.209608 
L 488.349936 276.494788 
L 489.163199 274.782604 
L 489.976462 279.637237 
L 490.789725 259.853065 
L 491.602988 262.066422 
L 492.416251 266.448963 
L 493.229514 265.911301 
L 494.042776 267.894176 
L 494.856039 270.558117 
L 495.669302 272.282365 
L 496.482565 274.970994 
L 497.295828 276.419443 
L 498.109091 277.079209 
L 498.109091 277.079209 
" clip-path="url(#pf4db1a54f3)" style="fill: none; stroke: #ff0000; stroke-width: 1.5; stroke-linecap: square"/>
   </g>
   <g id="patch_8">
    <path d="M 72 384.48 
L 72 51.84 
" style="fill: none; stroke: #000000; stroke-width: 0.8; stroke-linejoin: miter; stroke-linecap: square"/>
   </g>
   <g id="patch_9">
    <path d="M 518.4 384.48 
L 518.4 51.84 
" style="fill: none; stroke: #000000; stroke-width: 0.8; stroke-linejoin: miter; stroke-linecap: square"/>
   </g>
   <g id="patch_10">
    <path d="M 72 384.48 
L 518.4 384.48 
" style="fill: none; stroke: #000000; stroke-width: 0.8; stroke-linejoin: miter; stroke-linecap: square"/>
   </g>
   <g id="patch_11">
    <path d="M 72 51.84 
L 518.4 51.84 
" style="fill: none; stroke: #000000; stroke-width: 0.8; stroke-linejoin: miter; stroke-linecap: square"/>
   </g>
   <g id="text_23">
    <!-- The learning curve on _0.00025_non_iid/guest/2 -->
    <g transform="translate(147.226875 45.84) scale(0.12 -0.12)">
     <defs>
      <path id="DejaVuSans-54" d="M -19 4666 
L 3928 4666 
L 3928 4134 
L 2272 4134 
L 2272 0 
L 1638 0 
L 1638 4134 
L -19 4134 
L -19 4666 
z
" transform="scale(0.015625)"/>
      <path id="DejaVuSans-20" transform="scale(0.015625)"/>
      <path id="DejaVuSans-67" d="M 2906 1791 
Q 2906 2416 2648 2759 
Q 2391 3103 1925 3103 
Q 1463 3103 1205 2759 
Q 947 2416 947 1791 
Q 947 1169 1205 825 
Q 1463 481 1925 481 
Q 2391 481 2648 825 
Q 2906 1169 2906 1791 
z
M 3481 434 
Q 3481 -459 3084 -895 
Q 2688 -1331 1869 -1331 
Q 1566 -1331 1297 -1286 
Q 1028 -1241 775 -1147 
L 775 -588 
Q 1028 -725 1275 -790 
Q 1522 -856 1778 -856 
Q 2344 -856 2625 -561 
Q 2906 -266 2906 331 
L 2906 616 
Q 2728 306 2450 153 
Q 2172 0 1784 0 
Q 1141 0 747 490 
Q 353 981 353 1791 
Q 353 2603 747 3093 
Q 1141 3584 1784 3584 
Q 2172 3584 2450 3431 
Q 2728 3278 2906 2969 
L 2906 3500 
L 3481 3500 
L 3481 434 
z
" transform="scale(0.015625)"/>
      <path id="DejaVuSans-75" d="M 544 1381 
L 544 3500 
L 1119 3500 
L 1119 1403 
Q 1119 906 1312 657 
Q 1506 409 1894 409 
Q 2359 409 2629 706 
Q 2900 1003 2900 1516 
L 2900 3500 
L 3475 3500 
L 3475 0 
L 2900 0 
L 2900 538 
Q 2691 219 2414 64 
Q 2138 -91 1772 -91 
Q 1169 -91 856 284 
Q 544 659 544 1381 
z
M 1991 3584 
L 1991 3584 
z
" transform="scale(0.015625)"/>
      <path id="DejaVuSans-76" d="M 191 3500 
L 800 3500 
L 1894 563 
L 2988 3500 
L 3597 3500 
L 2284 0 
L 1503 0 
L 191 3500 
z
" transform="scale(0.015625)"/>
      <path id="DejaVuSans-3bb" d="M 1981 4316 
L 3597 0 
L 2988 0 
L 2006 2588 
L 800 0 
L 191 0 
L 1725 3356 
L 1494 3975 
Q 1347 4369 1013 4369 
L 713 4369 
L 713 4863 
L 1078 4856 
Q 1784 4847 1981 4316 
z
" transform="scale(0.015625)"/>
      <path id="DejaVuSans-5f" d="M 3263 -1063 
L 3263 -1509 
L -63 -1509 
L -63 -1063 
L 3263 -1063 
z
" transform="scale(0.015625)"/>
      <path id="DejaVuSans-64" d="M 2906 2969 
L 2906 4863 
L 3481 4863 
L 3481 0 
L 2906 0 
L 2906 525 
Q 2725 213 2448 61 
Q 2172 -91 1784 -91 
Q 1150 -91 751 415 
Q 353 922 353 1747 
Q 353 2572 751 3078 
Q 1150 3584 1784 3584 
Q 2172 3584 2448 3432 
Q 2725 3281 2906 2969 
z
M 947 1747 
Q 947 1113 1208 752 
Q 1469 391 1925 391 
Q 2381 391 2643 752 
Q 2906 1113 2906 1747 
Q 2906 2381 2643 2742 
Q 2381 3103 1925 3103 
Q 1469 3103 1208 2742 
Q 947 2381 947 1747 
z
" transform="scale(0.015625)"/>
      <path id="DejaVuSans-2f" d="M 1625 4666 
L 2156 4666 
L 531 -594 
L 0 -594 
L 1625 4666 
z
" transform="scale(0.015625)"/>
     </defs>
     <use xlink:href="#DejaVuSans-54"/>
     <use xlink:href="#DejaVuSans-68" x="61.083984"/>
     <use xlink:href="#DejaVuSans-65" x="124.462891"/>
     <use xlink:href="#DejaVuSans-20" x="185.986328"/>
     <use xlink:href="#DejaVuSans-6c" x="217.773438"/>
     <use xlink:href="#DejaVuSans-65" x="245.556641"/>
     <use xlink:href="#DejaVuSans-61" x="307.080078"/>
     <use xlink:href="#DejaVuSans-72" x="368.359375"/>
     <use xlink:href="#DejaVuSans-6e" x="407.722656"/>
     <use xlink:href="#DejaVuSans-69" x="471.101562"/>
     <use xlink:href="#DejaVuSans-6e" x="498.884766"/>
     <use xlink:href="#DejaVuSans-67" x="562.263672"/>
     <use xlink:href="#DejaVuSans-20" x="625.740234"/>
     <use xlink:href="#DejaVuSans-63" x="657.527344"/>
     <use xlink:href="#DejaVuSans-75" x="712.507812"/>
     <use xlink:href="#DejaVuSans-72" x="775.886719"/>
     <use xlink:href="#DejaVuSans-76" x="817"/>
     <use xlink:href="#DejaVuSans-65" x="876.179688"/>
     <use xlink:href="#DejaVuSans-20" x="937.703125"/>
     <use xlink:href="#DejaVuSans-6f" x="969.490234"/>
     <use xlink:href="#DejaVuSans-6e" x="1030.671875"/>
     <use xlink:href="#DejaVuSans-20" x="1094.050781"/>
     <use xlink:href="#DejaVuSans-3bb" x="1125.837891"/>
     <use xlink:href="#DejaVuSans-5f" x="1185.017578"/>
     <use xlink:href="#DejaVuSans-30" x="1235.017578"/>
     <use xlink:href="#DejaVuSans-2e" x="1298.640625"/>
     <use xlink:href="#DejaVuSans-30" x="1330.427734"/>
     <use xlink:href="#DejaVuSans-30" x="1394.050781"/>
     <use xlink:href="#DejaVuSans-30" x="1457.673828"/>
     <use xlink:href="#DejaVuSans-32" x="1521.296875"/>
     <use xlink:href="#DejaVuSans-35" x="1584.919922"/>
     <use xlink:href="#DejaVuSans-5f" x="1648.542969"/>
     <use xlink:href="#DejaVuSans-6e" x="1698.542969"/>
     <use xlink:href="#DejaVuSans-6f" x="1761.921875"/>
     <use xlink:href="#DejaVuSans-6e" x="1823.103516"/>
     <use xlink:href="#DejaVuSans-5f" x="1886.482422"/>
     <use xlink:href="#DejaVuSans-69" x="1936.482422"/>
     <use xlink:href="#DejaVuSans-69" x="1964.265625"/>
     <use xlink:href="#DejaVuSans-64" x="1992.048828"/>
     <use xlink:href="#DejaVuSans-2f" x="2055.525391"/>
     <use xlink:href="#DejaVuSans-67" x="2089.216797"/>
     <use xlink:href="#DejaVuSans-75" x="2152.693359"/>
     <use xlink:href="#DejaVuSans-65" x="2216.072266"/>
     <use xlink:href="#DejaVuSans-73" x="2277.595703"/>
     <use xlink:href="#DejaVuSans-74" x="2329.695312"/>
     <use xlink:href="#DejaVuSans-2f" x="2368.904297"/>
     <use xlink:href="#DejaVuSans-32" x="2402.595703"/>
    </g>
   </g>
   <g id="legend_2">
    <g id="patch_12">
     <path d="M 460.084375 74.518125 
L 511.4 74.518125 
Q 513.4 74.518125 513.4 72.518125 
L 513.4 58.84 
Q 513.4 56.84 511.4 56.84 
L 460.084375 56.84 
Q 458.084375 56.84 458.084375 58.84 
L 458.084375 72.518125 
Q 458.084375 74.518125 460.084375 74.518125 
z
" style="fill: #ffffff; opacity: 0.8; stroke: #cccccc; stroke-linejoin: miter"/>
    </g>
    <g id="line2d_23">
     <path d="M 462.084375 64.938438 
L 472.084375 64.938438 
L 482.084375 64.938438 
" style="fill: none; stroke: #ff0000; stroke-width: 1.5; stroke-linecap: square"/>
    </g>
    <g id="text_24">
     <!-- loss -->
     <g transform="translate(490.084375 68.438438) scale(0.1 -0.1)">
      <use xlink:href="#DejaVuSans-6c"/>
      <use xlink:href="#DejaVuSans-6f" x="27.783203"/>
      <use xlink:href="#DejaVuSans-73" x="88.964844"/>
      <use xlink:href="#DejaVuSans-73" x="141.064453"/>
     </g>
    </g>
   </g>
  </g>
 </g>
 <defs>
  <clipPath id="pf4db1a54f3">
   <rect x="72" y="51.84" width="446.4" height="332.64"/>
  </clipPath>
 </defs>
</svg>
