<?xml version="1.0" encoding="utf-8" standalone="no"?>
<!DOCTYPE svg PUBLIC "-//W3C//DTD SVG 1.1//EN"
  "http://www.w3.org/Graphics/SVG/1.1/DTD/svg11.dtd">
<svg xmlns:xlink="http://www.w3.org/1999/xlink" width="576pt" height="432pt" viewBox="0 0 576 432" xmlns="http://www.w3.org/2000/svg" version="1.1">
 <metadata>
  <rdf:RDF xmlns:dc="http://purl.org/dc/elements/1.1/" xmlns:cc="http://creativecommons.org/ns#" xmlns:rdf="http://www.w3.org/1999/02/22-rdf-syntax-ns#">
   <cc:Work>
    <dc:type rdf:resource="http://purl.org/dc/dcmitype/StillImage"/>
    <dc:date>2023-10-19T23:28:33.734596</dc:date>
    <dc:format>image/svg+xml</dc:format>
    <dc:creator>
     <cc:Agent>
      <dc:title>Matplotlib v3.7.1, https://matplotlib.org/</dc:title>
     </cc:Agent>
    </dc:creator>
   </cc:Work>
  </rdf:RDF>
 </metadata>
 <defs>
  <style type="text/css">*{stroke-linejoin: round; stroke-linecap: butt}</style>
 </defs>
 <g id="figure_1">
  <g id="patch_1">
   <path d="M 0 432 
L 576 432 
L 576 0 
L 0 0 
z
" style="fill: #ffffff"/>
  </g>
  <g id="axes_1">
   <g id="patch_2">
    <path d="M 72 384.48 
L 518.4 384.48 
L 518.4 51.84 
L 72 51.84 
z
" style="fill: #ffffff"/>
   </g>
   <g id="matplotlib.axis_1">
    <g id="xtick_1">
     <g id="line2d_1">
      <defs>
       <path id="m1002e8239c" d="M 0 0 
L 0 3.5 
" style="stroke: #000000; stroke-width: 0.8"/>
      </defs>
      <g>
       <use xlink:href="#m1002e8239c" x="92.290909" y="384.48" style="stroke: #000000; stroke-width: 0.8"/>
      </g>
     </g>
     <g id="text_1">
      <!-- 0 -->
      <g transform="translate(89.109659 399.078438) scale(0.1 -0.1)">
       <defs>
        <path id="DejaVuSans-30" d="M 2034 4250 
Q 1547 4250 1301 3770 
Q 1056 3291 1056 2328 
Q 1056 1369 1301 889 
Q 1547 409 2034 409 
Q 2525 409 2770 889 
Q 3016 1369 3016 2328 
Q 3016 3291 2770 3770 
Q 2525 4250 2034 4250 
z
M 2034 4750 
Q 2819 4750 3233 4129 
Q 3647 3509 3647 2328 
Q 3647 1150 3233 529 
Q 2819 -91 2034 -91 
Q 1250 -91 836 529 
Q 422 1150 422 2328 
Q 422 3509 836 4129 
Q 1250 4750 2034 4750 
z
" transform="scale(0.015625)"/>
       </defs>
       <use xlink:href="#DejaVuSans-30"/>
      </g>
     </g>
    </g>
    <g id="xtick_2">
     <g id="line2d_2">
      <g>
       <use xlink:href="#m1002e8239c" x="143.273093" y="384.48" style="stroke: #000000; stroke-width: 0.8"/>
      </g>
     </g>
     <g id="text_2">
      <!-- 25 -->
      <g transform="translate(136.910593 399.078438) scale(0.1 -0.1)">
       <defs>
        <path id="DejaVuSans-32" d="M 1228 531 
L 3431 531 
L 3431 0 
L 469 0 
L 469 531 
Q 828 903 1448 1529 
Q 2069 2156 2228 2338 
Q 2531 2678 2651 2914 
Q 2772 3150 2772 3378 
Q 2772 3750 2511 3984 
Q 2250 4219 1831 4219 
Q 1534 4219 1204 4116 
Q 875 4013 500 3803 
L 500 4441 
Q 881 4594 1212 4672 
Q 1544 4750 1819 4750 
Q 2544 4750 2975 4387 
Q 3406 4025 3406 3419 
Q 3406 3131 3298 2873 
Q 3191 2616 2906 2266 
Q 2828 2175 2409 1742 
Q 1991 1309 1228 531 
z
" transform="scale(0.015625)"/>
        <path id="DejaVuSans-35" d="M 691 4666 
L 3169 4666 
L 3169 4134 
L 1269 4134 
L 1269 2991 
Q 1406 3038 1543 3061 
Q 1681 3084 1819 3084 
Q 2600 3084 3056 2656 
Q 3513 2228 3513 1497 
Q 3513 744 3044 326 
Q 2575 -91 1722 -91 
Q 1428 -91 1123 -41 
Q 819 9 494 109 
L 494 744 
Q 775 591 1075 516 
Q 1375 441 1709 441 
Q 2250 441 2565 725 
Q 2881 1009 2881 1497 
Q 2881 1984 2565 2268 
Q 2250 2553 1709 2553 
Q 1456 2553 1204 2497 
Q 953 2441 691 2322 
L 691 4666 
z
" transform="scale(0.015625)"/>
       </defs>
       <use xlink:href="#DejaVuSans-32"/>
       <use xlink:href="#DejaVuSans-35" x="63.623047"/>
      </g>
     </g>
    </g>
    <g id="xtick_3">
     <g id="line2d_3">
      <g>
       <use xlink:href="#m1002e8239c" x="194.255276" y="384.48" style="stroke: #000000; stroke-width: 0.8"/>
      </g>
     </g>
     <g id="text_3">
      <!-- 50 -->
      <g transform="translate(187.892776 399.078438) scale(0.1 -0.1)">
       <use xlink:href="#DejaVuSans-35"/>
       <use xlink:href="#DejaVuSans-30" x="63.623047"/>
      </g>
     </g>
    </g>
    <g id="xtick_4">
     <g id="line2d_4">
      <g>
       <use xlink:href="#m1002e8239c" x="245.23746" y="384.48" style="stroke: #000000; stroke-width: 0.8"/>
      </g>
     </g>
     <g id="text_4">
      <!-- 75 -->
      <g transform="translate(238.87496 399.078438) scale(0.1 -0.1)">
       <defs>
        <path id="DejaVuSans-37" d="M 525 4666 
L 3525 4666 
L 3525 4397 
L 1831 0 
L 1172 0 
L 2766 4134 
L 525 4134 
L 525 4666 
z
" transform="scale(0.015625)"/>
       </defs>
       <use xlink:href="#DejaVuSans-37"/>
       <use xlink:href="#DejaVuSans-35" x="63.623047"/>
      </g>
     </g>
    </g>
    <g id="xtick_5">
     <g id="line2d_5">
      <g>
       <use xlink:href="#m1002e8239c" x="296.219644" y="384.48" style="stroke: #000000; stroke-width: 0.8"/>
      </g>
     </g>
     <g id="text_5">
      <!-- 100 -->
      <g transform="translate(286.675894 399.078438) scale(0.1 -0.1)">
       <defs>
        <path id="DejaVuSans-31" d="M 794 531 
L 1825 531 
L 1825 4091 
L 703 3866 
L 703 4441 
L 1819 4666 
L 2450 4666 
L 2450 531 
L 3481 531 
L 3481 0 
L 794 0 
L 794 531 
z
" transform="scale(0.015625)"/>
       </defs>
       <use xlink:href="#DejaVuSans-31"/>
       <use xlink:href="#DejaVuSans-30" x="63.623047"/>
       <use xlink:href="#DejaVuSans-30" x="127.246094"/>
      </g>
     </g>
    </g>
    <g id="xtick_6">
     <g id="line2d_6">
      <g>
       <use xlink:href="#m1002e8239c" x="347.201827" y="384.48" style="stroke: #000000; stroke-width: 0.8"/>
      </g>
     </g>
     <g id="text_6">
      <!-- 125 -->
      <g transform="translate(337.658077 399.078438) scale(0.1 -0.1)">
       <use xlink:href="#DejaVuSans-31"/>
       <use xlink:href="#DejaVuSans-32" x="63.623047"/>
       <use xlink:href="#DejaVuSans-35" x="127.246094"/>
      </g>
     </g>
    </g>
    <g id="xtick_7">
     <g id="line2d_7">
      <g>
       <use xlink:href="#m1002e8239c" x="398.184011" y="384.48" style="stroke: #000000; stroke-width: 0.8"/>
      </g>
     </g>
     <g id="text_7">
      <!-- 150 -->
      <g transform="translate(388.640261 399.078438) scale(0.1 -0.1)">
       <use xlink:href="#DejaVuSans-31"/>
       <use xlink:href="#DejaVuSans-35" x="63.623047"/>
       <use xlink:href="#DejaVuSans-30" x="127.246094"/>
      </g>
     </g>
    </g>
    <g id="xtick_8">
     <g id="line2d_8">
      <g>
       <use xlink:href="#m1002e8239c" x="449.166195" y="384.48" style="stroke: #000000; stroke-width: 0.8"/>
      </g>
     </g>
     <g id="text_8">
      <!-- 175 -->
      <g transform="translate(439.622445 399.078438) scale(0.1 -0.1)">
       <use xlink:href="#DejaVuSans-31"/>
       <use xlink:href="#DejaVuSans-37" x="63.623047"/>
       <use xlink:href="#DejaVuSans-35" x="127.246094"/>
      </g>
     </g>
    </g>
    <g id="xtick_9">
     <g id="line2d_9">
      <g>
       <use xlink:href="#m1002e8239c" x="500.148378" y="384.48" style="stroke: #000000; stroke-width: 0.8"/>
      </g>
     </g>
     <g id="text_9">
      <!-- 200 -->
      <g transform="translate(490.604628 399.078438) scale(0.1 -0.1)">
       <use xlink:href="#DejaVuSans-32"/>
       <use xlink:href="#DejaVuSans-30" x="63.623047"/>
       <use xlink:href="#DejaVuSans-30" x="127.246094"/>
      </g>
     </g>
    </g>
    <g id="text_10">
     <!-- epoch -->
     <g transform="translate(279.971875 412.756563) scale(0.1 -0.1)">
      <defs>
       <path id="DejaVuSans-65" d="M 3597 1894 
L 3597 1613 
L 953 1613 
Q 991 1019 1311 708 
Q 1631 397 2203 397 
Q 2534 397 2845 478 
Q 3156 559 3463 722 
L 3463 178 
Q 3153 47 2828 -22 
Q 2503 -91 2169 -91 
Q 1331 -91 842 396 
Q 353 884 353 1716 
Q 353 2575 817 3079 
Q 1281 3584 2069 3584 
Q 2775 3584 3186 3129 
Q 3597 2675 3597 1894 
z
M 3022 2063 
Q 3016 2534 2758 2815 
Q 2500 3097 2075 3097 
Q 1594 3097 1305 2825 
Q 1016 2553 972 2059 
L 3022 2063 
z
" transform="scale(0.015625)"/>
       <path id="DejaVuSans-70" d="M 1159 525 
L 1159 -1331 
L 581 -1331 
L 581 3500 
L 1159 3500 
L 1159 2969 
Q 1341 3281 1617 3432 
Q 1894 3584 2278 3584 
Q 2916 3584 3314 3078 
Q 3713 2572 3713 1747 
Q 3713 922 3314 415 
Q 2916 -91 2278 -91 
Q 1894 -91 1617 61 
Q 1341 213 1159 525 
z
M 3116 1747 
Q 3116 2381 2855 2742 
Q 2594 3103 2138 3103 
Q 1681 3103 1420 2742 
Q 1159 2381 1159 1747 
Q 1159 1113 1420 752 
Q 1681 391 2138 391 
Q 2594 391 2855 752 
Q 3116 1113 3116 1747 
z
" transform="scale(0.015625)"/>
       <path id="DejaVuSans-6f" d="M 1959 3097 
Q 1497 3097 1228 2736 
Q 959 2375 959 1747 
Q 959 1119 1226 758 
Q 1494 397 1959 397 
Q 2419 397 2687 759 
Q 2956 1122 2956 1747 
Q 2956 2369 2687 2733 
Q 2419 3097 1959 3097 
z
M 1959 3584 
Q 2709 3584 3137 3096 
Q 3566 2609 3566 1747 
Q 3566 888 3137 398 
Q 2709 -91 1959 -91 
Q 1206 -91 779 398 
Q 353 888 353 1747 
Q 353 2609 779 3096 
Q 1206 3584 1959 3584 
z
" transform="scale(0.015625)"/>
       <path id="DejaVuSans-63" d="M 3122 3366 
L 3122 2828 
Q 2878 2963 2633 3030 
Q 2388 3097 2138 3097 
Q 1578 3097 1268 2742 
Q 959 2388 959 1747 
Q 959 1106 1268 751 
Q 1578 397 2138 397 
Q 2388 397 2633 464 
Q 2878 531 3122 666 
L 3122 134 
Q 2881 22 2623 -34 
Q 2366 -91 2075 -91 
Q 1284 -91 818 406 
Q 353 903 353 1747 
Q 353 2603 823 3093 
Q 1294 3584 2113 3584 
Q 2378 3584 2631 3529 
Q 2884 3475 3122 3366 
z
" transform="scale(0.015625)"/>
       <path id="DejaVuSans-68" d="M 3513 2113 
L 3513 0 
L 2938 0 
L 2938 2094 
Q 2938 2591 2744 2837 
Q 2550 3084 2163 3084 
Q 1697 3084 1428 2787 
Q 1159 2491 1159 1978 
L 1159 0 
L 581 0 
L 581 4863 
L 1159 4863 
L 1159 2956 
Q 1366 3272 1645 3428 
Q 1925 3584 2291 3584 
Q 2894 3584 3203 3211 
Q 3513 2838 3513 2113 
z
" transform="scale(0.015625)"/>
      </defs>
      <use xlink:href="#DejaVuSans-65"/>
      <use xlink:href="#DejaVuSans-70" x="61.523438"/>
      <use xlink:href="#DejaVuSans-6f" x="125"/>
      <use xlink:href="#DejaVuSans-63" x="186.181641"/>
      <use xlink:href="#DejaVuSans-68" x="241.162109"/>
     </g>
    </g>
   </g>
   <g id="matplotlib.axis_2">
    <g id="ytick_1">
     <g id="line2d_10">
      <defs>
       <path id="m3a2e92e315" d="M 0 0 
L -3.5 0 
" style="stroke: #000000; stroke-width: 0.8"/>
      </defs>
      <g>
       <use xlink:href="#m3a2e92e315" x="72" y="384.48" style="stroke: #000000; stroke-width: 0.8"/>
      </g>
     </g>
     <g id="text_11">
      <!-- 0 -->
      <g transform="translate(58.6375 388.279219) scale(0.1 -0.1)">
       <use xlink:href="#DejaVuSans-30"/>
      </g>
     </g>
    </g>
    <g id="ytick_2">
     <g id="line2d_11">
      <g>
       <use xlink:href="#m3a2e92e315" x="72" y="317.952" style="stroke: #000000; stroke-width: 0.8"/>
      </g>
     </g>
     <g id="text_12">
      <!-- 20 -->
      <g transform="translate(52.275 321.751219) scale(0.1 -0.1)">
       <use xlink:href="#DejaVuSans-32"/>
       <use xlink:href="#DejaVuSans-30" x="63.623047"/>
      </g>
     </g>
    </g>
    <g id="ytick_3">
     <g id="line2d_12">
      <g>
       <use xlink:href="#m3a2e92e315" x="72" y="251.424" style="stroke: #000000; stroke-width: 0.8"/>
      </g>
     </g>
     <g id="text_13">
      <!-- 40 -->
      <g transform="translate(52.275 255.223219) scale(0.1 -0.1)">
       <defs>
        <path id="DejaVuSans-34" d="M 2419 4116 
L 825 1625 
L 2419 1625 
L 2419 4116 
z
M 2253 4666 
L 3047 4666 
L 3047 1625 
L 3713 1625 
L 3713 1100 
L 3047 1100 
L 3047 0 
L 2419 0 
L 2419 1100 
L 313 1100 
L 313 1709 
L 2253 4666 
z
" transform="scale(0.015625)"/>
       </defs>
       <use xlink:href="#DejaVuSans-34"/>
       <use xlink:href="#DejaVuSans-30" x="63.623047"/>
      </g>
     </g>
    </g>
    <g id="ytick_4">
     <g id="line2d_13">
      <g>
       <use xlink:href="#m3a2e92e315" x="72" y="184.896" style="stroke: #000000; stroke-width: 0.8"/>
      </g>
     </g>
     <g id="text_14">
      <!-- 60 -->
      <g transform="translate(52.275 188.695219) scale(0.1 -0.1)">
       <defs>
        <path id="DejaVuSans-36" d="M 2113 2584 
Q 1688 2584 1439 2293 
Q 1191 2003 1191 1497 
Q 1191 994 1439 701 
Q 1688 409 2113 409 
Q 2538 409 2786 701 
Q 3034 994 3034 1497 
Q 3034 2003 2786 2293 
Q 2538 2584 2113 2584 
z
M 3366 4563 
L 3366 3988 
Q 3128 4100 2886 4159 
Q 2644 4219 2406 4219 
Q 1781 4219 1451 3797 
Q 1122 3375 1075 2522 
Q 1259 2794 1537 2939 
Q 1816 3084 2150 3084 
Q 2853 3084 3261 2657 
Q 3669 2231 3669 1497 
Q 3669 778 3244 343 
Q 2819 -91 2113 -91 
Q 1303 -91 875 529 
Q 447 1150 447 2328 
Q 447 3434 972 4092 
Q 1497 4750 2381 4750 
Q 2619 4750 2861 4703 
Q 3103 4656 3366 4563 
z
" transform="scale(0.015625)"/>
       </defs>
       <use xlink:href="#DejaVuSans-36"/>
       <use xlink:href="#DejaVuSans-30" x="63.623047"/>
      </g>
     </g>
    </g>
    <g id="ytick_5">
     <g id="line2d_14">
      <g>
       <use xlink:href="#m3a2e92e315" x="72" y="118.368" style="stroke: #000000; stroke-width: 0.8"/>
      </g>
     </g>
     <g id="text_15">
      <!-- 80 -->
      <g transform="translate(52.275 122.167219) scale(0.1 -0.1)">
       <defs>
        <path id="DejaVuSans-38" d="M 2034 2216 
Q 1584 2216 1326 1975 
Q 1069 1734 1069 1313 
Q 1069 891 1326 650 
Q 1584 409 2034 409 
Q 2484 409 2743 651 
Q 3003 894 3003 1313 
Q 3003 1734 2745 1975 
Q 2488 2216 2034 2216 
z
M 1403 2484 
Q 997 2584 770 2862 
Q 544 3141 544 3541 
Q 544 4100 942 4425 
Q 1341 4750 2034 4750 
Q 2731 4750 3128 4425 
Q 3525 4100 3525 3541 
Q 3525 3141 3298 2862 
Q 3072 2584 2669 2484 
Q 3125 2378 3379 2068 
Q 3634 1759 3634 1313 
Q 3634 634 3220 271 
Q 2806 -91 2034 -91 
Q 1263 -91 848 271 
Q 434 634 434 1313 
Q 434 1759 690 2068 
Q 947 2378 1403 2484 
z
M 1172 3481 
Q 1172 3119 1398 2916 
Q 1625 2713 2034 2713 
Q 2441 2713 2670 2916 
Q 2900 3119 2900 3481 
Q 2900 3844 2670 4047 
Q 2441 4250 2034 4250 
Q 1625 4250 1398 4047 
Q 1172 3844 1172 3481 
z
" transform="scale(0.015625)"/>
       </defs>
       <use xlink:href="#DejaVuSans-38"/>
       <use xlink:href="#DejaVuSans-30" x="63.623047"/>
      </g>
     </g>
    </g>
    <g id="ytick_6">
     <g id="line2d_15">
      <g>
       <use xlink:href="#m3a2e92e315" x="72" y="51.84" style="stroke: #000000; stroke-width: 0.8"/>
      </g>
     </g>
     <g id="text_16">
      <!-- 100 -->
      <g transform="translate(45.9125 55.639219) scale(0.1 -0.1)">
       <use xlink:href="#DejaVuSans-31"/>
       <use xlink:href="#DejaVuSans-30" x="63.623047"/>
       <use xlink:href="#DejaVuSans-30" x="127.246094"/>
      </g>
     </g>
    </g>
    <g id="text_17">
     <!-- rate -->
     <g transform="translate(39.832812 228.31625) rotate(-90) scale(0.1 -0.1)">
      <defs>
       <path id="DejaVuSans-72" d="M 2631 2963 
Q 2534 3019 2420 3045 
Q 2306 3072 2169 3072 
Q 1681 3072 1420 2755 
Q 1159 2438 1159 1844 
L 1159 0 
L 581 0 
L 581 3500 
L 1159 3500 
L 1159 2956 
Q 1341 3275 1631 3429 
Q 1922 3584 2338 3584 
Q 2397 3584 2469 3576 
Q 2541 3569 2628 3553 
L 2631 2963 
z
" transform="scale(0.015625)"/>
       <path id="DejaVuSans-61" d="M 2194 1759 
Q 1497 1759 1228 1600 
Q 959 1441 959 1056 
Q 959 750 1161 570 
Q 1363 391 1709 391 
Q 2188 391 2477 730 
Q 2766 1069 2766 1631 
L 2766 1759 
L 2194 1759 
z
M 3341 1997 
L 3341 0 
L 2766 0 
L 2766 531 
Q 2569 213 2275 61 
Q 1981 -91 1556 -91 
Q 1019 -91 701 211 
Q 384 513 384 1019 
Q 384 1609 779 1909 
Q 1175 2209 1959 2209 
L 2766 2209 
L 2766 2266 
Q 2766 2663 2505 2880 
Q 2244 3097 1772 3097 
Q 1472 3097 1187 3025 
Q 903 2953 641 2809 
L 641 3341 
Q 956 3463 1253 3523 
Q 1550 3584 1831 3584 
Q 2591 3584 2966 3190 
Q 3341 2797 3341 1997 
z
" transform="scale(0.015625)"/>
       <path id="DejaVuSans-74" d="M 1172 4494 
L 1172 3500 
L 2356 3500 
L 2356 3053 
L 1172 3053 
L 1172 1153 
Q 1172 725 1289 603 
Q 1406 481 1766 481 
L 2356 481 
L 2356 0 
L 1766 0 
Q 1100 0 847 248 
Q 594 497 594 1153 
L 594 3053 
L 172 3053 
L 172 3500 
L 594 3500 
L 594 4494 
L 1172 4494 
z
" transform="scale(0.015625)"/>
      </defs>
      <use xlink:href="#DejaVuSans-72"/>
      <use xlink:href="#DejaVuSans-61" x="41.113281"/>
      <use xlink:href="#DejaVuSans-74" x="102.392578"/>
      <use xlink:href="#DejaVuSans-65" x="141.601562"/>
     </g>
    </g>
   </g>
   <g id="line2d_16">
    <path d="M 92.290909 286.994302 
L 94.330196 235.456458 
L 96.369484 228.838629 
L 98.408771 249.829677 
L 100.448058 251.368548 
L 102.487346 240.9343 
L 104.526633 198.174293 
L 106.565921 172.762566 
L 108.605208 253.089801 
L 110.644495 189.791611 
L 112.683783 177.722448 
L 114.72307 154.116395 
L 116.762357 210.011345 
L 118.801645 222.525342 
L 120.840932 151.243355 
L 122.880219 156.476689 
L 124.919507 254.509939 
L 126.958794 189.532256 
L 128.998081 198.057793 
L 131.037369 111.893179 
L 133.076656 207.311005 
L 135.115943 203.20894 
L 137.155231 150.29372 
L 139.194518 114.398815 
L 141.233805 245.170745 
L 143.273093 214.957129 
L 145.31238 148.907728 
L 147.351667 130.231751 
L 149.390955 250.970805 
L 151.430242 205.836088 
L 153.469529 129.07683 
L 155.508817 121.722672 
L 157.548104 242.35907 
L 159.587392 203.786184 
L 161.626679 205.723903 
L 163.665966 133.534193 
L 165.705254 253.195883 
L 167.744541 172.122712 
L 169.783828 178.964188 
L 171.823116 153.160847 
L 173.862403 235.365248 
L 175.90169 177.684443 
L 177.940978 183.335532 
L 179.980265 190.862694 
L 182.019552 221.42987 
L 184.05884 222.582126 
L 186.098127 155.632882 
L 188.137414 137.418157 
L 190.176702 233.099298 
L 192.215989 200.233295 
L 194.255276 198.58116 
L 196.294564 185.730544 
L 198.333851 258.46948 
L 200.373138 214.417534 
L 202.412426 182.876233 
L 204.451713 153.307077 
L 206.491 229.405469 
L 208.530288 184.520869 
L 210.569575 197.494633 
L 212.608862 163.841532 
L 214.64815 245.51914 
L 216.687437 198.026527 
L 218.726725 185.653698 
L 220.766012 163.83105 
L 222.805299 225.260983 
L 224.844587 198.803703 
L 226.883874 189.401913 
L 228.923161 170.774332 
L 230.962449 216.434483 
L 233.001736 221.208506 
L 235.041023 221.124047 
L 237.080311 147.650228 
L 239.119598 228.45539 
L 241.158885 225.141209 
L 243.198173 182.307211 
L 245.23746 186.064663 
L 247.276747 223.025601 
L 249.316035 214.738076 
L 251.355322 223.453088 
L 253.394609 190.89391 
L 255.433897 242.54602 
L 257.473184 215.377041 
L 259.512471 217.263571 
L 261.551759 178.360195 
L 263.591046 232.316462 
L 265.630333 204.080828 
L 267.669621 207.420031 
L 269.708908 217.160027 
L 271.748196 218.002908 
L 273.787483 206.187338 
L 275.82677 198.083489 
L 277.866058 172.351753 
L 279.905345 188.235381 
L 281.944632 218.962021 
L 283.98392 213.966178 
L 286.023207 228.728703 
L 288.062494 213.313636 
L 290.101782 239.828017 
L 292.141069 220.082174 
L 294.180356 202.996712 
L 296.219644 218.414101 
L 298.258931 222.35301 
L 300.298218 206.028596 
L 302.337506 196.409224 
L 304.376793 213.253261 
L 306.41608 243.568479 
L 308.455368 217.505491 
L 310.494655 187.266281 
L 312.533942 218.893855 
L 314.57323 229.555113 
L 316.612517 195.989845 
L 318.651804 240.107066 
L 320.691092 200.37502 
L 322.730379 177.2632 
L 324.769667 215.637423 
L 326.808954 217.231086 
L 328.848241 230.556989 
L 330.887529 175.02292 
L 332.926816 236.757787 
L 334.966103 201.091847 
L 337.005391 234.33359 
L 339.044678 215.653501 
L 341.083965 228.30902 
L 343.123253 210.220705 
L 345.16254 228.465617 
L 347.201827 191.636178 
L 351.280402 204.250241 
L 353.319689 207.03537 
L 355.358977 219.083203 
L 357.398264 207.481548 
L 359.437551 212.653365 
L 361.476839 234.740558 
L 363.516126 222.586186 
L 365.555413 215.306476 
L 367.594701 206.504302 
L 369.633988 236.280254 
L 371.673275 197.858395 
L 373.712563 222.365546 
L 375.75185 220.016165 
L 377.791138 203.337278 
L 379.830425 225.832086 
L 381.869712 209.102087 
L 383.909 232.792028 
L 385.948287 236.054323 
L 387.987574 229.690494 
L 390.026862 190.252191 
L 392.066149 215.682813 
L 394.105436 229.246029 
L 396.144724 216.524082 
L 398.184011 221.333914 
L 400.223298 224.252508 
L 402.262586 215.870118 
L 404.301873 194.909816 
L 406.34116 235.949979 
L 408.380448 215.125769 
L 410.419735 212.557181 
L 412.459022 218.156472 
L 414.49831 239.122776 
L 416.537597 227.778788 
L 418.576884 196.001443 
L 420.616172 195.657033 
L 422.655459 202.030214 
L 424.694746 220.816004 
L 426.734034 192.597969 
L 428.773321 227.114749 
L 430.812608 210.8282 
L 432.851896 208.699801 
L 434.891183 244.25296 
L 436.930471 217.508841 
L 438.969758 231.990476 
L 441.009045 196.713765 
L 443.048333 207.659337 
L 445.08762 236.508964 
L 447.126907 195.23381 
L 449.166195 175.076671 
L 451.205482 209.627205 
L 453.244769 223.688752 
L 455.284057 227.884946 
L 457.323344 222.006442 
L 459.362631 199.783868 
L 461.401919 202.132374 
L 463.441206 238.652045 
L 465.480493 206.86734 
L 467.519781 215.839842 
L 469.559068 189.300615 
L 471.598355 218.675753 
L 473.637643 223.772539 
L 475.67693 188.273499 
L 477.716217 211.256334 
L 479.755505 240.468873 
L 481.794792 239.186501 
L 483.834079 224.948092 
L 485.873367 224.424637 
L 487.912654 230.619801 
L 489.951942 208.889822 
L 491.991229 223.291338 
L 494.030516 200.948636 
L 496.069804 228.224103 
L 498.109091 184.133404 
L 498.109091 184.133404 
" clip-path="url(#p2f44ce1182)" style="fill: none; stroke: #0000ff; stroke-width: 1.5; stroke-linecap: square"/>
   </g>
   <g id="line2d_17">
    <path d="M 92.290909 254.55538 
L 94.330196 268.531553 
L 96.369484 252.954839 
L 98.408771 258.943067 
L 100.448058 223.30215 
L 102.487346 202.286091 
L 104.526633 224.52143 
L 106.565921 206.259717 
L 108.605208 229.988081 
L 110.644495 217.115018 
L 112.683783 234.932685 
L 114.72307 226.078688 
L 116.762357 223.825085 
L 118.801645 211.578044 
L 120.840932 216.921774 
L 122.880219 227.574314 
L 124.919507 240.979956 
L 126.958794 219.717854 
L 128.998081 216.906014 
L 131.037369 222.194141 
L 133.076656 214.252561 
L 135.115943 231.70167 
L 137.155231 237.586329 
L 139.194518 216.815223 
L 141.233805 222.812943 
L 143.273093 239.192922 
L 145.31238 240.834487 
L 147.351667 233.875065 
L 149.390955 242.676567 
L 151.430242 244.606101 
L 153.469529 236.276498 
L 155.508817 234.349502 
L 157.548104 245.054081 
L 159.587392 246.641488 
L 161.626679 244.315061 
L 163.665966 243.013567 
L 165.705254 243.737689 
L 167.744541 250.212016 
L 169.783828 211.243264 
L 171.823116 227.461571 
L 173.862403 250.802495 
L 175.90169 251.097684 
L 177.940978 246.979135 
L 182.019552 246.088518 
L 184.05884 238.211196 
L 186.098127 241.250109 
L 188.137414 242.795655 
L 190.176702 245.533542 
L 192.215989 227.569784 
L 194.255276 228.705519 
L 196.294564 209.04076 
L 198.333851 208.336623 
L 200.373138 245.201085 
L 202.412426 242.420207 
L 204.451713 244.110777 
L 206.491 235.320341 
L 208.530288 243.999912 
L 210.569575 234.032932 
L 212.608862 239.690656 
L 214.64815 255.580363 
L 216.687437 260.296422 
L 218.726725 249.410502 
L 220.766012 242.512153 
L 222.805299 241.220671 
L 224.844587 228.381742 
L 226.883874 246.433613 
L 228.923161 230.179498 
L 230.962449 246.500739 
L 233.001736 219.49526 
L 235.041023 229.864958 
L 237.080311 238.582216 
L 239.119598 231.455537 
L 241.158885 229.333699 
L 243.198173 231.981264 
L 245.23746 221.923277 
L 247.276747 217.856347 
L 249.316035 221.350905 
L 251.355322 227.907229 
L 253.394609 234.989406 
L 255.433897 212.903927 
L 257.473184 214.361511 
L 259.512471 237.804482 
L 261.551759 226.549953 
L 263.591046 232.603721 
L 265.630333 217.349553 
L 267.669621 230.282852 
L 269.708908 224.763744 
L 271.748196 229.119987 
L 273.787483 219.751709 
L 275.82677 230.916563 
L 277.866058 238.381282 
L 279.905345 233.482854 
L 281.944632 230.258146 
L 283.98392 244.479805 
L 286.023207 240.136555 
L 288.062494 206.253512 
L 290.101782 230.237526 
L 292.141069 233.617487 
L 294.180356 225.063386 
L 296.219644 212.017585 
L 298.258931 219.723387 
L 300.298218 235.640921 
L 302.337506 239.951737 
L 304.376793 201.267338 
L 306.41608 238.687498 
L 308.455368 221.392297 
L 310.494655 235.904653 
L 312.533942 229.89498 
L 314.57323 229.046149 
L 316.612517 234.857337 
L 318.651804 211.49243 
L 320.691092 239.161618 
L 322.730379 238.744003 
L 324.769667 227.469387 
L 326.808954 234.097532 
L 328.848241 246.205258 
L 330.887529 214.647627 
L 332.926816 241.520872 
L 334.966103 235.10116 
L 337.005391 232.419486 
L 339.044678 240.203732 
L 341.083965 221.749219 
L 343.123253 218.346696 
L 345.16254 244.203028 
L 347.201827 246.807881 
L 349.241115 229.799101 
L 351.280402 227.888499 
L 353.319689 225.35987 
L 355.358977 224.119347 
L 357.398264 230.609129 
L 359.437551 225.647928 
L 361.476839 219.747813 
L 363.516126 229.619967 
L 365.555413 233.054099 
L 367.594701 240.20896 
L 369.633988 223.084009 
L 371.673275 208.220428 
L 373.712563 234.78681 
L 375.75185 225.638563 
L 377.791138 227.571624 
L 379.830425 227.692971 
L 381.869712 223.447099 
L 385.948287 214.157938 
L 387.987574 236.993806 
L 390.026862 217.338513 
L 392.066149 226.525932 
L 394.105436 221.942184 
L 396.144724 229.125596 
L 398.184011 235.172892 
L 400.223298 234.995027 
L 402.262586 224.845678 
L 404.301873 235.564303 
L 406.34116 230.806802 
L 408.380448 219.59251 
L 410.419735 243.338258 
L 412.459022 212.128502 
L 414.49831 231.952688 
L 416.537597 230.831368 
L 418.576884 237.20399 
L 420.616172 221.935852 
L 422.655459 220.545939 
L 424.694746 228.582155 
L 426.734034 228.42571 
L 428.773321 237.548591 
L 430.812608 215.852252 
L 432.851896 216.330749 
L 434.891183 226.702832 
L 436.930471 230.823945 
L 438.969758 213.471819 
L 441.009045 239.256533 
L 443.048333 225.965018 
L 445.08762 216.167617 
L 447.126907 236.427867 
L 449.166195 232.112458 
L 451.205482 229.627264 
L 453.244769 219.74355 
L 455.284057 217.09851 
L 457.323344 230.229976 
L 459.362631 218.650996 
L 461.401919 236.848096 
L 463.441206 221.063139 
L 465.480493 236.663849 
L 467.519781 226.300952 
L 469.559068 234.319923 
L 471.598355 235.407833 
L 473.637643 231.732797 
L 475.67693 216.77128 
L 477.716217 230.216804 
L 479.755505 212.772086 
L 481.794792 234.631025 
L 483.834079 217.314658 
L 485.873367 212.489091 
L 487.912654 240.517054 
L 489.951942 235.935996 
L 491.991229 237.208812 
L 494.030516 225.759948 
L 496.069804 223.839144 
L 498.109091 216.489745 
L 498.109091 216.489745 
" clip-path="url(#p2f44ce1182)" style="fill: none; stroke: #008000; stroke-width: 1.5; stroke-linecap: square"/>
   </g>
   <g id="patch_3">
    <path d="M 72 384.48 
L 72 51.84 
" style="fill: none; stroke: #000000; stroke-width: 0.8; stroke-linejoin: miter; stroke-linecap: square"/>
   </g>
   <g id="patch_4">
    <path d="M 518.4 384.48 
L 518.4 51.84 
" style="fill: none; stroke: #000000; stroke-width: 0.8; stroke-linejoin: miter; stroke-linecap: square"/>
   </g>
   <g id="patch_5">
    <path d="M 72 384.48 
L 518.4 384.48 
" style="fill: none; stroke: #000000; stroke-width: 0.8; stroke-linejoin: miter; stroke-linecap: square"/>
   </g>
   <g id="patch_6">
    <path d="M 72 51.84 
L 518.4 51.84 
" style="fill: none; stroke: #000000; stroke-width: 0.8; stroke-linejoin: miter; stroke-linecap: square"/>
   </g>
   <g id="legend_1">
    <g id="patch_7">
     <path d="M 79 89.19625 
L 160.740625 89.19625 
Q 162.740625 89.19625 162.740625 87.19625 
L 162.740625 58.84 
Q 162.740625 56.84 160.740625 56.84 
L 79 56.84 
Q 77 56.84 77 58.84 
L 77 87.19625 
Q 77 89.19625 79 89.19625 
z
" style="fill: #ffffff; opacity: 0.8; stroke: #cccccc; stroke-linejoin: miter"/>
    </g>
    <g id="line2d_18">
     <path d="M 81 64.938437 
L 91 64.938437 
L 101 64.938437 
" style="fill: none; stroke: #0000ff; stroke-width: 1.5; stroke-linecap: square"/>
    </g>
    <g id="text_18">
     <!-- train mAP -->
     <g transform="translate(109 68.438437) scale(0.1 -0.1)">
      <defs>
       <path id="DejaVuSans-69" d="M 603 3500 
L 1178 3500 
L 1178 0 
L 603 0 
L 603 3500 
z
M 603 4863 
L 1178 4863 
L 1178 4134 
L 603 4134 
L 603 4863 
z
" transform="scale(0.015625)"/>
       <path id="DejaVuSans-6e" d="M 3513 2113 
L 3513 0 
L 2938 0 
L 2938 2094 
Q 2938 2591 2744 2837 
Q 2550 3084 2163 3084 
Q 1697 3084 1428 2787 
Q 1159 2491 1159 1978 
L 1159 0 
L 581 0 
L 581 3500 
L 1159 3500 
L 1159 2956 
Q 1366 3272 1645 3428 
Q 1925 3584 2291 3584 
Q 2894 3584 3203 3211 
Q 3513 2838 3513 2113 
z
" transform="scale(0.015625)"/>
       <path id="DejaVuSans-20" transform="scale(0.015625)"/>
       <path id="DejaVuSans-6d" d="M 3328 2828 
Q 3544 3216 3844 3400 
Q 4144 3584 4550 3584 
Q 5097 3584 5394 3201 
Q 5691 2819 5691 2113 
L 5691 0 
L 5113 0 
L 5113 2094 
Q 5113 2597 4934 2840 
Q 4756 3084 4391 3084 
Q 3944 3084 3684 2787 
Q 3425 2491 3425 1978 
L 3425 0 
L 2847 0 
L 2847 2094 
Q 2847 2600 2669 2842 
Q 2491 3084 2119 3084 
Q 1678 3084 1418 2786 
Q 1159 2488 1159 1978 
L 1159 0 
L 581 0 
L 581 3500 
L 1159 3500 
L 1159 2956 
Q 1356 3278 1631 3431 
Q 1906 3584 2284 3584 
Q 2666 3584 2933 3390 
Q 3200 3197 3328 2828 
z
" transform="scale(0.015625)"/>
       <path id="DejaVuSans-41" d="M 2188 4044 
L 1331 1722 
L 3047 1722 
L 2188 4044 
z
M 1831 4666 
L 2547 4666 
L 4325 0 
L 3669 0 
L 3244 1197 
L 1141 1197 
L 716 0 
L 50 0 
L 1831 4666 
z
" transform="scale(0.015625)"/>
       <path id="DejaVuSans-50" d="M 1259 4147 
L 1259 2394 
L 2053 2394 
Q 2494 2394 2734 2622 
Q 2975 2850 2975 3272 
Q 2975 3691 2734 3919 
Q 2494 4147 2053 4147 
L 1259 4147 
z
M 628 4666 
L 2053 4666 
Q 2838 4666 3239 4311 
Q 3641 3956 3641 3272 
Q 3641 2581 3239 2228 
Q 2838 1875 2053 1875 
L 1259 1875 
L 1259 0 
L 628 0 
L 628 4666 
z
" transform="scale(0.015625)"/>
      </defs>
      <use xlink:href="#DejaVuSans-74"/>
      <use xlink:href="#DejaVuSans-72" x="39.208984"/>
      <use xlink:href="#DejaVuSans-61" x="80.322266"/>
      <use xlink:href="#DejaVuSans-69" x="141.601562"/>
      <use xlink:href="#DejaVuSans-6e" x="169.384766"/>
      <use xlink:href="#DejaVuSans-20" x="232.763672"/>
      <use xlink:href="#DejaVuSans-6d" x="264.550781"/>
      <use xlink:href="#DejaVuSans-41" x="361.962891"/>
      <use xlink:href="#DejaVuSans-50" x="430.371094"/>
     </g>
    </g>
    <g id="line2d_19">
     <path d="M 81 79.616562 
L 91 79.616562 
L 101 79.616562 
" style="fill: none; stroke: #008000; stroke-width: 1.5; stroke-linecap: square"/>
    </g>
    <g id="text_19">
     <!-- valid mAP -->
     <g transform="translate(109 83.116562) scale(0.1 -0.1)">
      <defs>
       <path id="DejaVuSans-76" d="M 191 3500 
L 800 3500 
L 1894 563 
L 2988 3500 
L 3597 3500 
L 2284 0 
L 1503 0 
L 191 3500 
z
" transform="scale(0.015625)"/>
       <path id="DejaVuSans-6c" d="M 603 4863 
L 1178 4863 
L 1178 0 
L 603 0 
L 603 4863 
z
" transform="scale(0.015625)"/>
       <path id="DejaVuSans-64" d="M 2906 2969 
L 2906 4863 
L 3481 4863 
L 3481 0 
L 2906 0 
L 2906 525 
Q 2725 213 2448 61 
Q 2172 -91 1784 -91 
Q 1150 -91 751 415 
Q 353 922 353 1747 
Q 353 2572 751 3078 
Q 1150 3584 1784 3584 
Q 2172 3584 2448 3432 
Q 2725 3281 2906 2969 
z
M 947 1747 
Q 947 1113 1208 752 
Q 1469 391 1925 391 
Q 2381 391 2643 752 
Q 2906 1113 2906 1747 
Q 2906 2381 2643 2742 
Q 2381 3103 1925 3103 
Q 1469 3103 1208 2742 
Q 947 2381 947 1747 
z
" transform="scale(0.015625)"/>
      </defs>
      <use xlink:href="#DejaVuSans-76"/>
      <use xlink:href="#DejaVuSans-61" x="59.179688"/>
      <use xlink:href="#DejaVuSans-6c" x="120.458984"/>
      <use xlink:href="#DejaVuSans-69" x="148.242188"/>
      <use xlink:href="#DejaVuSans-64" x="176.025391"/>
      <use xlink:href="#DejaVuSans-20" x="239.501953"/>
      <use xlink:href="#DejaVuSans-6d" x="271.289062"/>
      <use xlink:href="#DejaVuSans-41" x="368.701172"/>
      <use xlink:href="#DejaVuSans-50" x="437.109375"/>
     </g>
    </g>
   </g>
  </g>
  <g id="axes_2">
   <g id="matplotlib.axis_3">
    <g id="ytick_7">
     <g id="line2d_20">
      <defs>
       <path id="mcada82b8bc" d="M 0 0 
L 3.5 0 
" style="stroke: #000000; stroke-width: 0.8"/>
      </defs>
      <g>
       <use xlink:href="#mcada82b8bc" x="518.4" y="366.648946" style="stroke: #000000; stroke-width: 0.8"/>
      </g>
     </g>
     <g id="text_20">
      <!-- 1 -->
      <g transform="translate(525.4 370.448165) scale(0.1 -0.1)">
       <use xlink:href="#DejaVuSans-31"/>
      </g>
     </g>
    </g>
    <g id="ytick_8">
     <g id="line2d_21">
      <g>
       <use xlink:href="#mcada82b8bc" x="518.4" y="324.878485" style="stroke: #000000; stroke-width: 0.8"/>
      </g>
     </g>
     <g id="text_21">
      <!-- 2 -->
      <g transform="translate(525.4 328.677704) scale(0.1 -0.1)">
       <use xlink:href="#DejaVuSans-32"/>
      </g>
     </g>
    </g>
    <g id="ytick_9">
     <g id="line2d_22">
      <g>
       <use xlink:href="#mcada82b8bc" x="518.4" y="283.108025" style="stroke: #000000; stroke-width: 0.8"/>
      </g>
     </g>
     <g id="text_22">
      <!-- 3 -->
      <g transform="translate(525.4 286.907243) scale(0.1 -0.1)">
       <defs>
        <path id="DejaVuSans-33" d="M 2597 2516 
Q 3050 2419 3304 2112 
Q 3559 1806 3559 1356 
Q 3559 666 3084 287 
Q 2609 -91 1734 -91 
Q 1441 -91 1130 -33 
Q 819 25 488 141 
L 488 750 
Q 750 597 1062 519 
Q 1375 441 1716 441 
Q 2309 441 2620 675 
Q 2931 909 2931 1356 
Q 2931 1769 2642 2001 
Q 2353 2234 1838 2234 
L 1294 2234 
L 1294 2753 
L 1863 2753 
Q 2328 2753 2575 2939 
Q 2822 3125 2822 3475 
Q 2822 3834 2567 4026 
Q 2313 4219 1838 4219 
Q 1578 4219 1281 4162 
Q 984 4106 628 3988 
L 628 4550 
Q 988 4650 1302 4700 
Q 1616 4750 1894 4750 
Q 2613 4750 3031 4423 
Q 3450 4097 3450 3541 
Q 3450 3153 3228 2886 
Q 3006 2619 2597 2516 
z
" transform="scale(0.015625)"/>
       </defs>
       <use xlink:href="#DejaVuSans-33"/>
      </g>
     </g>
    </g>
    <g id="ytick_10">
     <g id="line2d_23">
      <g>
       <use xlink:href="#mcada82b8bc" x="518.4" y="241.337564" style="stroke: #000000; stroke-width: 0.8"/>
      </g>
     </g>
     <g id="text_23">
      <!-- 4 -->
      <g transform="translate(525.4 245.136783) scale(0.1 -0.1)">
       <use xlink:href="#DejaVuSans-34"/>
      </g>
     </g>
    </g>
    <g id="ytick_11">
     <g id="line2d_24">
      <g>
       <use xlink:href="#mcada82b8bc" x="518.4" y="199.567103" style="stroke: #000000; stroke-width: 0.8"/>
      </g>
     </g>
     <g id="text_24">
      <!-- 5 -->
      <g transform="translate(525.4 203.366322) scale(0.1 -0.1)">
       <use xlink:href="#DejaVuSans-35"/>
      </g>
     </g>
    </g>
    <g id="ytick_12">
     <g id="line2d_25">
      <g>
       <use xlink:href="#mcada82b8bc" x="518.4" y="157.796642" style="stroke: #000000; stroke-width: 0.8"/>
      </g>
     </g>
     <g id="text_25">
      <!-- 6 -->
      <g transform="translate(525.4 161.595861) scale(0.1 -0.1)">
       <use xlink:href="#DejaVuSans-36"/>
      </g>
     </g>
    </g>
    <g id="ytick_13">
     <g id="line2d_26">
      <g>
       <use xlink:href="#mcada82b8bc" x="518.4" y="116.026182" style="stroke: #000000; stroke-width: 0.8"/>
      </g>
     </g>
     <g id="text_26">
      <!-- 7 -->
      <g transform="translate(525.4 119.8254) scale(0.1 -0.1)">
       <use xlink:href="#DejaVuSans-37"/>
      </g>
     </g>
    </g>
    <g id="ytick_14">
     <g id="line2d_27">
      <g>
       <use xlink:href="#mcada82b8bc" x="518.4" y="74.255721" style="stroke: #000000; stroke-width: 0.8"/>
      </g>
     </g>
     <g id="text_27">
      <!-- 8 -->
      <g transform="translate(525.4 78.05494) scale(0.1 -0.1)">
       <use xlink:href="#DejaVuSans-38"/>
      </g>
     </g>
    </g>
    <g id="text_28">
     <!-- loss -->
     <g transform="translate(543.360937 227.817812) rotate(-90) scale(0.1 -0.1)">
      <defs>
       <path id="DejaVuSans-73" d="M 2834 3397 
L 2834 2853 
Q 2591 2978 2328 3040 
Q 2066 3103 1784 3103 
Q 1356 3103 1142 2972 
Q 928 2841 928 2578 
Q 928 2378 1081 2264 
Q 1234 2150 1697 2047 
L 1894 2003 
Q 2506 1872 2764 1633 
Q 3022 1394 3022 966 
Q 3022 478 2636 193 
Q 2250 -91 1575 -91 
Q 1294 -91 989 -36 
Q 684 19 347 128 
L 347 722 
Q 666 556 975 473 
Q 1284 391 1588 391 
Q 1994 391 2212 530 
Q 2431 669 2431 922 
Q 2431 1156 2273 1281 
Q 2116 1406 1581 1522 
L 1381 1569 
Q 847 1681 609 1914 
Q 372 2147 372 2553 
Q 372 3047 722 3315 
Q 1072 3584 1716 3584 
Q 2034 3584 2315 3537 
Q 2597 3491 2834 3397 
z
" transform="scale(0.015625)"/>
      </defs>
      <use xlink:href="#DejaVuSans-6c"/>
      <use xlink:href="#DejaVuSans-6f" x="27.783203"/>
      <use xlink:href="#DejaVuSans-73" x="88.964844"/>
      <use xlink:href="#DejaVuSans-73" x="141.064453"/>
     </g>
    </g>
   </g>
   <g id="line2d_28">
    <path d="M 92.290909 347.574637 
L 94.330196 341.986036 
L 96.369484 332.32351 
L 98.408771 327.145748 
L 100.448058 367.080297 
L 102.487346 368.917941 
L 104.526633 366.417884 
L 106.565921 359.58621 
L 108.605208 361.1636 
L 110.644495 363.497247 
L 112.683783 361.109 
L 114.72307 362.687902 
L 116.762357 363.926967 
L 118.801645 368.341696 
L 120.840932 367.979208 
L 122.880219 369.36 
L 124.919507 358.059089 
L 126.958794 362.354118 
L 128.998081 364.586272 
L 131.037369 358.294041 
L 133.076656 353.533254 
L 135.115943 363.062982 
L 137.155231 362.98927 
L 139.194518 361.16367 
L 141.233805 357.016311 
L 143.273093 360.373564 
L 145.31238 359.561667 
L 147.351667 362.994934 
L 149.390955 354.891899 
L 151.430242 360.460905 
L 153.469529 354.143321 
L 155.508817 362.221996 
L 157.548104 353.102126 
L 159.587392 357.785215 
L 161.626679 358.889423 
L 163.665966 358.627263 
L 165.705254 347.039339 
L 167.744541 347.075734 
L 169.783828 364.225172 
L 171.823116 353.461381 
L 173.862403 336.393865 
L 175.90169 339.704306 
L 177.940978 332.323487 
L 179.980265 340.668559 
L 182.019552 328.867483 
L 184.05884 330.734775 
L 186.098127 345.257636 
L 188.137414 346.516108 
L 190.176702 333.596535 
L 192.215989 347.14715 
L 194.255276 350.730728 
L 196.294564 356.495362 
L 198.333851 268.541335 
L 200.373138 312.298326 
L 202.412426 345.031395 
L 204.451713 317.45307 
L 206.491 296.538877 
L 208.530288 336.098558 
L 210.569575 305.76205 
L 212.608862 343.170019 
L 214.64815 217.649927 
L 216.687437 206.138878 
L 218.726725 290.758765 
L 220.766012 342.745066 
L 222.805299 252.737043 
L 224.844587 320.547125 
L 226.883874 334.561334 
L 228.923161 342.728156 
L 230.962449 310.924923 
L 233.001736 325.988156 
L 235.041023 342.594657 
L 237.080311 331.801034 
L 239.119598 292.2794 
L 241.158885 326.937762 
L 243.198173 339.126972 
L 245.23746 349.782532 
L 247.276747 298.670106 
L 249.316035 333.584775 
L 251.355322 325.268563 
L 253.394609 321.393836 
L 255.433897 276.606693 
L 257.473184 301.882527 
L 259.512471 291.198239 
L 261.551759 337.023159 
L 263.591046 227.4797 
L 265.630333 316.020493 
L 267.669621 308.192731 
L 269.708908 333.111388 
L 271.748196 245.08637 
L 273.787483 275.03394 
L 275.82677 296.339299 
L 277.866058 305.594991 
L 279.905345 234.016517 
L 281.944632 259.42125 
L 283.98392 278.165471 
L 286.023207 277.563576 
L 288.062494 264.070293 
L 290.101782 259.441451 
L 292.141069 300.420799 
L 294.180356 306.449895 
L 296.219644 223.993746 
L 298.258931 276.960166 
L 300.298218 302.870296 
L 302.337506 287.789412 
L 304.376793 231.612847 
L 306.41608 248.4799 
L 308.455368 276.265008 
L 310.494655 309.448243 
L 312.533942 177.180357 
L 314.57323 244.963555 
L 316.612517 226.049676 
L 318.651804 291.207492 
L 320.691092 159.7548 
L 322.730379 229.384289 
L 324.769667 249.509487 
L 326.808954 268.438765 
L 328.848241 174.138905 
L 330.887529 229.087321 
L 332.926816 247.087838 
L 334.966103 274.914241 
L 337.005391 176.376136 
L 339.044678 187.88683 
L 341.083965 220.94032 
L 343.123253 243.395122 
L 345.16254 149.347146 
L 347.201827 199.719318 
L 349.241115 227.577029 
L 351.280402 248.128544 
L 353.319689 161.347291 
L 355.358977 189.560174 
L 357.398264 203.696289 
L 359.437551 233.79511 
L 361.476839 166.461941 
L 363.516126 145.367063 
L 365.555413 193.478787 
L 367.594701 171.588225 
L 369.633988 156.271215 
L 371.673275 155.019707 
L 373.712563 201.56824 
L 375.75185 217.011703 
L 377.791138 161.156515 
L 379.830425 176.796508 
L 381.869712 177.249529 
L 383.909 178.945242 
L 385.948287 157.453438 
L 387.987574 160.581305 
L 390.026862 174.678765 
L 392.066149 166.503635 
L 394.105436 165.550177 
L 396.144724 173.9562 
L 398.184011 139.040291 
L 400.223298 149.906001 
L 402.262586 132.470853 
L 404.301873 133.067781 
L 408.380448 138.735803 
L 410.419735 104.812982 
L 412.459022 159.26892 
L 414.49831 124.600987 
L 416.537597 147.238916 
L 418.576884 149.5531 
L 420.616172 131.732327 
L 422.655459 126.521044 
L 424.694746 124.196999 
L 426.734034 154.378981 
L 428.773321 139.217577 
L 430.812608 136.990652 
L 432.851896 151.685271 
L 434.891183 153.961275 
L 436.930471 124.230254 
L 438.969758 118.877189 
L 441.009045 148.470027 
L 443.048333 113.955395 
L 445.08762 165.635278 
L 447.126907 137.475629 
L 449.166195 141.440422 
L 451.205482 117.394454 
L 453.244769 135.526487 
L 455.284057 144.042278 
L 457.323344 142.349508 
L 459.362631 134.829646 
L 461.401919 66.96 
L 465.480493 163.870393 
L 467.519781 131.921129 
L 469.559068 120.656552 
L 471.598355 154.01635 
L 473.637643 134.808937 
L 475.67693 117.786877 
L 477.716217 125.366087 
L 479.755505 108.906435 
L 481.794792 112.282515 
L 483.834079 150.499875 
L 485.873367 135.31124 
L 487.912654 124.491208 
L 489.951942 112.096049 
L 491.991229 111.643618 
L 494.030516 128.677043 
L 496.069804 94.710443 
L 498.109091 126.677493 
L 498.109091 126.677493 
" clip-path="url(#p2f44ce1182)" style="fill: none; stroke: #ff0000; stroke-width: 1.5; stroke-linecap: square"/>
   </g>
   <g id="patch_8">
    <path d="M 72 384.48 
L 72 51.84 
" style="fill: none; stroke: #000000; stroke-width: 0.8; stroke-linejoin: miter; stroke-linecap: square"/>
   </g>
   <g id="patch_9">
    <path d="M 518.4 384.48 
L 518.4 51.84 
" style="fill: none; stroke: #000000; stroke-width: 0.8; stroke-linejoin: miter; stroke-linecap: square"/>
   </g>
   <g id="patch_10">
    <path d="M 72 384.48 
L 518.4 384.48 
" style="fill: none; stroke: #000000; stroke-width: 0.8; stroke-linejoin: miter; stroke-linecap: square"/>
   </g>
   <g id="patch_11">
    <path d="M 72 51.84 
L 518.4 51.84 
" style="fill: none; stroke: #000000; stroke-width: 0.8; stroke-linejoin: miter; stroke-linecap: square"/>
   </g>
   <g id="text_29">
    <!-- The learning curve on voc/voc_fpsl_plateau_200/host/1 -->
    <g transform="translate(129.931875 45.84) scale(0.12 -0.12)">
     <defs>
      <path id="DejaVuSans-54" d="M -19 4666 
L 3928 4666 
L 3928 4134 
L 2272 4134 
L 2272 0 
L 1638 0 
L 1638 4134 
L -19 4134 
L -19 4666 
z
" transform="scale(0.015625)"/>
      <path id="DejaVuSans-67" d="M 2906 1791 
Q 2906 2416 2648 2759 
Q 2391 3103 1925 3103 
Q 1463 3103 1205 2759 
Q 947 2416 947 1791 
Q 947 1169 1205 825 
Q 1463 481 1925 481 
Q 2391 481 2648 825 
Q 2906 1169 2906 1791 
z
M 3481 434 
Q 3481 -459 3084 -895 
Q 2688 -1331 1869 -1331 
Q 1566 -1331 1297 -1286 
Q 1028 -1241 775 -1147 
L 775 -588 
Q 1028 -725 1275 -790 
Q 1522 -856 1778 -856 
Q 2344 -856 2625 -561 
Q 2906 -266 2906 331 
L 2906 616 
Q 2728 306 2450 153 
Q 2172 0 1784 0 
Q 1141 0 747 490 
Q 353 981 353 1791 
Q 353 2603 747 3093 
Q 1141 3584 1784 3584 
Q 2172 3584 2450 3431 
Q 2728 3278 2906 2969 
L 2906 3500 
L 3481 3500 
L 3481 434 
z
" transform="scale(0.015625)"/>
      <path id="DejaVuSans-75" d="M 544 1381 
L 544 3500 
L 1119 3500 
L 1119 1403 
Q 1119 906 1312 657 
Q 1506 409 1894 409 
Q 2359 409 2629 706 
Q 2900 1003 2900 1516 
L 2900 3500 
L 3475 3500 
L 3475 0 
L 2900 0 
L 2900 538 
Q 2691 219 2414 64 
Q 2138 -91 1772 -91 
Q 1169 -91 856 284 
Q 544 659 544 1381 
z
M 1991 3584 
L 1991 3584 
z
" transform="scale(0.015625)"/>
      <path id="DejaVuSans-2f" d="M 1625 4666 
L 2156 4666 
L 531 -594 
L 0 -594 
L 1625 4666 
z
" transform="scale(0.015625)"/>
      <path id="DejaVuSans-5f" d="M 3263 -1063 
L 3263 -1509 
L -63 -1509 
L -63 -1063 
L 3263 -1063 
z
" transform="scale(0.015625)"/>
      <path id="DejaVuSans-66" d="M 2375 4863 
L 2375 4384 
L 1825 4384 
Q 1516 4384 1395 4259 
Q 1275 4134 1275 3809 
L 1275 3500 
L 2222 3500 
L 2222 3053 
L 1275 3053 
L 1275 0 
L 697 0 
L 697 3053 
L 147 3053 
L 147 3500 
L 697 3500 
L 697 3744 
Q 697 4328 969 4595 
Q 1241 4863 1831 4863 
L 2375 4863 
z
" transform="scale(0.015625)"/>
     </defs>
     <use xlink:href="#DejaVuSans-54"/>
     <use xlink:href="#DejaVuSans-68" x="61.083984"/>
     <use xlink:href="#DejaVuSans-65" x="124.462891"/>
     <use xlink:href="#DejaVuSans-20" x="185.986328"/>
     <use xlink:href="#DejaVuSans-6c" x="217.773438"/>
     <use xlink:href="#DejaVuSans-65" x="245.556641"/>
     <use xlink:href="#DejaVuSans-61" x="307.080078"/>
     <use xlink:href="#DejaVuSans-72" x="368.359375"/>
     <use xlink:href="#DejaVuSans-6e" x="407.722656"/>
     <use xlink:href="#DejaVuSans-69" x="471.101562"/>
     <use xlink:href="#DejaVuSans-6e" x="498.884766"/>
     <use xlink:href="#DejaVuSans-67" x="562.263672"/>
     <use xlink:href="#DejaVuSans-20" x="625.740234"/>
     <use xlink:href="#DejaVuSans-63" x="657.527344"/>
     <use xlink:href="#DejaVuSans-75" x="712.507812"/>
     <use xlink:href="#DejaVuSans-72" x="775.886719"/>
     <use xlink:href="#DejaVuSans-76" x="817"/>
     <use xlink:href="#DejaVuSans-65" x="876.179688"/>
     <use xlink:href="#DejaVuSans-20" x="937.703125"/>
     <use xlink:href="#DejaVuSans-6f" x="969.490234"/>
     <use xlink:href="#DejaVuSans-6e" x="1030.671875"/>
     <use xlink:href="#DejaVuSans-20" x="1094.050781"/>
     <use xlink:href="#DejaVuSans-76" x="1125.837891"/>
     <use xlink:href="#DejaVuSans-6f" x="1185.017578"/>
     <use xlink:href="#DejaVuSans-63" x="1246.199219"/>
     <use xlink:href="#DejaVuSans-2f" x="1301.179688"/>
     <use xlink:href="#DejaVuSans-76" x="1334.871094"/>
     <use xlink:href="#DejaVuSans-6f" x="1394.050781"/>
     <use xlink:href="#DejaVuSans-63" x="1455.232422"/>
     <use xlink:href="#DejaVuSans-5f" x="1510.212891"/>
     <use xlink:href="#DejaVuSans-66" x="1560.212891"/>
     <use xlink:href="#DejaVuSans-70" x="1595.417969"/>
     <use xlink:href="#DejaVuSans-73" x="1658.894531"/>
     <use xlink:href="#DejaVuSans-6c" x="1710.994141"/>
     <use xlink:href="#DejaVuSans-5f" x="1738.777344"/>
     <use xlink:href="#DejaVuSans-70" x="1788.777344"/>
     <use xlink:href="#DejaVuSans-6c" x="1852.253906"/>
     <use xlink:href="#DejaVuSans-61" x="1880.037109"/>
     <use xlink:href="#DejaVuSans-74" x="1941.316406"/>
     <use xlink:href="#DejaVuSans-65" x="1980.525391"/>
     <use xlink:href="#DejaVuSans-61" x="2042.048828"/>
     <use xlink:href="#DejaVuSans-75" x="2103.328125"/>
     <use xlink:href="#DejaVuSans-5f" x="2166.707031"/>
     <use xlink:href="#DejaVuSans-32" x="2216.707031"/>
     <use xlink:href="#DejaVuSans-30" x="2280.330078"/>
     <use xlink:href="#DejaVuSans-30" x="2343.953125"/>
     <use xlink:href="#DejaVuSans-2f" x="2407.576172"/>
     <use xlink:href="#DejaVuSans-68" x="2441.267578"/>
     <use xlink:href="#DejaVuSans-6f" x="2504.646484"/>
     <use xlink:href="#DejaVuSans-73" x="2565.828125"/>
     <use xlink:href="#DejaVuSans-74" x="2617.927734"/>
     <use xlink:href="#DejaVuSans-2f" x="2657.136719"/>
     <use xlink:href="#DejaVuSans-31" x="2690.828125"/>
    </g>
   </g>
   <g id="legend_2">
    <g id="patch_12">
     <path d="M 460.084375 74.518125 
L 511.4 74.518125 
Q 513.4 74.518125 513.4 72.518125 
L 513.4 58.84 
Q 513.4 56.84 511.4 56.84 
L 460.084375 56.84 
Q 458.084375 56.84 458.084375 58.84 
L 458.084375 72.518125 
Q 458.084375 74.518125 460.084375 74.518125 
z
" style="fill: #ffffff; opacity: 0.8; stroke: #cccccc; stroke-linejoin: miter"/>
    </g>
    <g id="line2d_29">
     <path d="M 462.084375 64.938438 
L 472.084375 64.938438 
L 482.084375 64.938438 
" style="fill: none; stroke: #ff0000; stroke-width: 1.5; stroke-linecap: square"/>
    </g>
    <g id="text_30">
     <!-- loss -->
     <g transform="translate(490.084375 68.438438) scale(0.1 -0.1)">
      <use xlink:href="#DejaVuSans-6c"/>
      <use xlink:href="#DejaVuSans-6f" x="27.783203"/>
      <use xlink:href="#DejaVuSans-73" x="88.964844"/>
      <use xlink:href="#DejaVuSans-73" x="141.064453"/>
     </g>
    </g>
   </g>
  </g>
 </g>
 <defs>
  <clipPath id="p2f44ce1182">
   <rect x="72" y="51.84" width="446.4" height="332.64"/>
  </clipPath>
 </defs>
</svg>
