<?xml version="1.0" encoding="utf-8" standalone="no"?>
<!DOCTYPE svg PUBLIC "-//W3C//DTD SVG 1.1//EN"
  "http://www.w3.org/Graphics/SVG/1.1/DTD/svg11.dtd">
<svg xmlns:xlink="http://www.w3.org/1999/xlink" width="576pt" height="432pt" viewBox="0 0 576 432" xmlns="http://www.w3.org/2000/svg" version="1.1">
 <metadata>
  <rdf:RDF xmlns:dc="http://purl.org/dc/elements/1.1/" xmlns:cc="http://creativecommons.org/ns#" xmlns:rdf="http://www.w3.org/1999/02/22-rdf-syntax-ns#">
   <cc:Work>
    <dc:type rdf:resource="http://purl.org/dc/dcmitype/StillImage"/>
    <dc:date>2023-10-19T23:28:34.096562</dc:date>
    <dc:format>image/svg+xml</dc:format>
    <dc:creator>
     <cc:Agent>
      <dc:title>Matplotlib v3.7.1, https://matplotlib.org/</dc:title>
     </cc:Agent>
    </dc:creator>
   </cc:Work>
  </rdf:RDF>
 </metadata>
 <defs>
  <style type="text/css">*{stroke-linejoin: round; stroke-linecap: butt}</style>
 </defs>
 <g id="figure_1">
  <g id="patch_1">
   <path d="M 0 432 
L 576 432 
L 576 0 
L 0 0 
z
" style="fill: #ffffff"/>
  </g>
  <g id="axes_1">
   <g id="patch_2">
    <path d="M 72 384.48 
L 518.4 384.48 
L 518.4 51.84 
L 72 51.84 
z
" style="fill: #ffffff"/>
   </g>
   <g id="matplotlib.axis_1">
    <g id="xtick_1">
     <g id="line2d_1">
      <defs>
       <path id="m555089134b" d="M 0 0 
L 0 3.5 
" style="stroke: #000000; stroke-width: 0.8"/>
      </defs>
      <g>
       <use xlink:href="#m555089134b" x="92.290909" y="384.48" style="stroke: #000000; stroke-width: 0.8"/>
      </g>
     </g>
     <g id="text_1">
      <!-- 0 -->
      <g transform="translate(89.109659 399.078438) scale(0.1 -0.1)">
       <defs>
        <path id="DejaVuSans-30" d="M 2034 4250 
Q 1547 4250 1301 3770 
Q 1056 3291 1056 2328 
Q 1056 1369 1301 889 
Q 1547 409 2034 409 
Q 2525 409 2770 889 
Q 3016 1369 3016 2328 
Q 3016 3291 2770 3770 
Q 2525 4250 2034 4250 
z
M 2034 4750 
Q 2819 4750 3233 4129 
Q 3647 3509 3647 2328 
Q 3647 1150 3233 529 
Q 2819 -91 2034 -91 
Q 1250 -91 836 529 
Q 422 1150 422 2328 
Q 422 3509 836 4129 
Q 1250 4750 2034 4750 
z
" transform="scale(0.015625)"/>
       </defs>
       <use xlink:href="#DejaVuSans-30"/>
      </g>
     </g>
    </g>
    <g id="xtick_2">
     <g id="line2d_2">
      <g>
       <use xlink:href="#m555089134b" x="143.273093" y="384.48" style="stroke: #000000; stroke-width: 0.8"/>
      </g>
     </g>
     <g id="text_2">
      <!-- 25 -->
      <g transform="translate(136.910593 399.078438) scale(0.1 -0.1)">
       <defs>
        <path id="DejaVuSans-32" d="M 1228 531 
L 3431 531 
L 3431 0 
L 469 0 
L 469 531 
Q 828 903 1448 1529 
Q 2069 2156 2228 2338 
Q 2531 2678 2651 2914 
Q 2772 3150 2772 3378 
Q 2772 3750 2511 3984 
Q 2250 4219 1831 4219 
Q 1534 4219 1204 4116 
Q 875 4013 500 3803 
L 500 4441 
Q 881 4594 1212 4672 
Q 1544 4750 1819 4750 
Q 2544 4750 2975 4387 
Q 3406 4025 3406 3419 
Q 3406 3131 3298 2873 
Q 3191 2616 2906 2266 
Q 2828 2175 2409 1742 
Q 1991 1309 1228 531 
z
" transform="scale(0.015625)"/>
        <path id="DejaVuSans-35" d="M 691 4666 
L 3169 4666 
L 3169 4134 
L 1269 4134 
L 1269 2991 
Q 1406 3038 1543 3061 
Q 1681 3084 1819 3084 
Q 2600 3084 3056 2656 
Q 3513 2228 3513 1497 
Q 3513 744 3044 326 
Q 2575 -91 1722 -91 
Q 1428 -91 1123 -41 
Q 819 9 494 109 
L 494 744 
Q 775 591 1075 516 
Q 1375 441 1709 441 
Q 2250 441 2565 725 
Q 2881 1009 2881 1497 
Q 2881 1984 2565 2268 
Q 2250 2553 1709 2553 
Q 1456 2553 1204 2497 
Q 953 2441 691 2322 
L 691 4666 
z
" transform="scale(0.015625)"/>
       </defs>
       <use xlink:href="#DejaVuSans-32"/>
       <use xlink:href="#DejaVuSans-35" x="63.623047"/>
      </g>
     </g>
    </g>
    <g id="xtick_3">
     <g id="line2d_3">
      <g>
       <use xlink:href="#m555089134b" x="194.255276" y="384.48" style="stroke: #000000; stroke-width: 0.8"/>
      </g>
     </g>
     <g id="text_3">
      <!-- 50 -->
      <g transform="translate(187.892776 399.078438) scale(0.1 -0.1)">
       <use xlink:href="#DejaVuSans-35"/>
       <use xlink:href="#DejaVuSans-30" x="63.623047"/>
      </g>
     </g>
    </g>
    <g id="xtick_4">
     <g id="line2d_4">
      <g>
       <use xlink:href="#m555089134b" x="245.23746" y="384.48" style="stroke: #000000; stroke-width: 0.8"/>
      </g>
     </g>
     <g id="text_4">
      <!-- 75 -->
      <g transform="translate(238.87496 399.078438) scale(0.1 -0.1)">
       <defs>
        <path id="DejaVuSans-37" d="M 525 4666 
L 3525 4666 
L 3525 4397 
L 1831 0 
L 1172 0 
L 2766 4134 
L 525 4134 
L 525 4666 
z
" transform="scale(0.015625)"/>
       </defs>
       <use xlink:href="#DejaVuSans-37"/>
       <use xlink:href="#DejaVuSans-35" x="63.623047"/>
      </g>
     </g>
    </g>
    <g id="xtick_5">
     <g id="line2d_5">
      <g>
       <use xlink:href="#m555089134b" x="296.219644" y="384.48" style="stroke: #000000; stroke-width: 0.8"/>
      </g>
     </g>
     <g id="text_5">
      <!-- 100 -->
      <g transform="translate(286.675894 399.078438) scale(0.1 -0.1)">
       <defs>
        <path id="DejaVuSans-31" d="M 794 531 
L 1825 531 
L 1825 4091 
L 703 3866 
L 703 4441 
L 1819 4666 
L 2450 4666 
L 2450 531 
L 3481 531 
L 3481 0 
L 794 0 
L 794 531 
z
" transform="scale(0.015625)"/>
       </defs>
       <use xlink:href="#DejaVuSans-31"/>
       <use xlink:href="#DejaVuSans-30" x="63.623047"/>
       <use xlink:href="#DejaVuSans-30" x="127.246094"/>
      </g>
     </g>
    </g>
    <g id="xtick_6">
     <g id="line2d_6">
      <g>
       <use xlink:href="#m555089134b" x="347.201827" y="384.48" style="stroke: #000000; stroke-width: 0.8"/>
      </g>
     </g>
     <g id="text_6">
      <!-- 125 -->
      <g transform="translate(337.658077 399.078438) scale(0.1 -0.1)">
       <use xlink:href="#DejaVuSans-31"/>
       <use xlink:href="#DejaVuSans-32" x="63.623047"/>
       <use xlink:href="#DejaVuSans-35" x="127.246094"/>
      </g>
     </g>
    </g>
    <g id="xtick_7">
     <g id="line2d_7">
      <g>
       <use xlink:href="#m555089134b" x="398.184011" y="384.48" style="stroke: #000000; stroke-width: 0.8"/>
      </g>
     </g>
     <g id="text_7">
      <!-- 150 -->
      <g transform="translate(388.640261 399.078438) scale(0.1 -0.1)">
       <use xlink:href="#DejaVuSans-31"/>
       <use xlink:href="#DejaVuSans-35" x="63.623047"/>
       <use xlink:href="#DejaVuSans-30" x="127.246094"/>
      </g>
     </g>
    </g>
    <g id="xtick_8">
     <g id="line2d_8">
      <g>
       <use xlink:href="#m555089134b" x="449.166195" y="384.48" style="stroke: #000000; stroke-width: 0.8"/>
      </g>
     </g>
     <g id="text_8">
      <!-- 175 -->
      <g transform="translate(439.622445 399.078438) scale(0.1 -0.1)">
       <use xlink:href="#DejaVuSans-31"/>
       <use xlink:href="#DejaVuSans-37" x="63.623047"/>
       <use xlink:href="#DejaVuSans-35" x="127.246094"/>
      </g>
     </g>
    </g>
    <g id="xtick_9">
     <g id="line2d_9">
      <g>
       <use xlink:href="#m555089134b" x="500.148378" y="384.48" style="stroke: #000000; stroke-width: 0.8"/>
      </g>
     </g>
     <g id="text_9">
      <!-- 200 -->
      <g transform="translate(490.604628 399.078438) scale(0.1 -0.1)">
       <use xlink:href="#DejaVuSans-32"/>
       <use xlink:href="#DejaVuSans-30" x="63.623047"/>
       <use xlink:href="#DejaVuSans-30" x="127.246094"/>
      </g>
     </g>
    </g>
    <g id="text_10">
     <!-- epoch -->
     <g transform="translate(279.971875 412.756563) scale(0.1 -0.1)">
      <defs>
       <path id="DejaVuSans-65" d="M 3597 1894 
L 3597 1613 
L 953 1613 
Q 991 1019 1311 708 
Q 1631 397 2203 397 
Q 2534 397 2845 478 
Q 3156 559 3463 722 
L 3463 178 
Q 3153 47 2828 -22 
Q 2503 -91 2169 -91 
Q 1331 -91 842 396 
Q 353 884 353 1716 
Q 353 2575 817 3079 
Q 1281 3584 2069 3584 
Q 2775 3584 3186 3129 
Q 3597 2675 3597 1894 
z
M 3022 2063 
Q 3016 2534 2758 2815 
Q 2500 3097 2075 3097 
Q 1594 3097 1305 2825 
Q 1016 2553 972 2059 
L 3022 2063 
z
" transform="scale(0.015625)"/>
       <path id="DejaVuSans-70" d="M 1159 525 
L 1159 -1331 
L 581 -1331 
L 581 3500 
L 1159 3500 
L 1159 2969 
Q 1341 3281 1617 3432 
Q 1894 3584 2278 3584 
Q 2916 3584 3314 3078 
Q 3713 2572 3713 1747 
Q 3713 922 3314 415 
Q 2916 -91 2278 -91 
Q 1894 -91 1617 61 
Q 1341 213 1159 525 
z
M 3116 1747 
Q 3116 2381 2855 2742 
Q 2594 3103 2138 3103 
Q 1681 3103 1420 2742 
Q 1159 2381 1159 1747 
Q 1159 1113 1420 752 
Q 1681 391 2138 391 
Q 2594 391 2855 752 
Q 3116 1113 3116 1747 
z
" transform="scale(0.015625)"/>
       <path id="DejaVuSans-6f" d="M 1959 3097 
Q 1497 3097 1228 2736 
Q 959 2375 959 1747 
Q 959 1119 1226 758 
Q 1494 397 1959 397 
Q 2419 397 2687 759 
Q 2956 1122 2956 1747 
Q 2956 2369 2687 2733 
Q 2419 3097 1959 3097 
z
M 1959 3584 
Q 2709 3584 3137 3096 
Q 3566 2609 3566 1747 
Q 3566 888 3137 398 
Q 2709 -91 1959 -91 
Q 1206 -91 779 398 
Q 353 888 353 1747 
Q 353 2609 779 3096 
Q 1206 3584 1959 3584 
z
" transform="scale(0.015625)"/>
       <path id="DejaVuSans-63" d="M 3122 3366 
L 3122 2828 
Q 2878 2963 2633 3030 
Q 2388 3097 2138 3097 
Q 1578 3097 1268 2742 
Q 959 2388 959 1747 
Q 959 1106 1268 751 
Q 1578 397 2138 397 
Q 2388 397 2633 464 
Q 2878 531 3122 666 
L 3122 134 
Q 2881 22 2623 -34 
Q 2366 -91 2075 -91 
Q 1284 -91 818 406 
Q 353 903 353 1747 
Q 353 2603 823 3093 
Q 1294 3584 2113 3584 
Q 2378 3584 2631 3529 
Q 2884 3475 3122 3366 
z
" transform="scale(0.015625)"/>
       <path id="DejaVuSans-68" d="M 3513 2113 
L 3513 0 
L 2938 0 
L 2938 2094 
Q 2938 2591 2744 2837 
Q 2550 3084 2163 3084 
Q 1697 3084 1428 2787 
Q 1159 2491 1159 1978 
L 1159 0 
L 581 0 
L 581 4863 
L 1159 4863 
L 1159 2956 
Q 1366 3272 1645 3428 
Q 1925 3584 2291 3584 
Q 2894 3584 3203 3211 
Q 3513 2838 3513 2113 
z
" transform="scale(0.015625)"/>
      </defs>
      <use xlink:href="#DejaVuSans-65"/>
      <use xlink:href="#DejaVuSans-70" x="61.523438"/>
      <use xlink:href="#DejaVuSans-6f" x="125"/>
      <use xlink:href="#DejaVuSans-63" x="186.181641"/>
      <use xlink:href="#DejaVuSans-68" x="241.162109"/>
     </g>
    </g>
   </g>
   <g id="matplotlib.axis_2">
    <g id="ytick_1">
     <g id="line2d_10">
      <defs>
       <path id="mf1e139b29a" d="M 0 0 
L -3.5 0 
" style="stroke: #000000; stroke-width: 0.8"/>
      </defs>
      <g>
       <use xlink:href="#mf1e139b29a" x="72" y="384.48" style="stroke: #000000; stroke-width: 0.8"/>
      </g>
     </g>
     <g id="text_11">
      <!-- 0 -->
      <g transform="translate(58.6375 388.279219) scale(0.1 -0.1)">
       <use xlink:href="#DejaVuSans-30"/>
      </g>
     </g>
    </g>
    <g id="ytick_2">
     <g id="line2d_11">
      <g>
       <use xlink:href="#mf1e139b29a" x="72" y="317.952" style="stroke: #000000; stroke-width: 0.8"/>
      </g>
     </g>
     <g id="text_12">
      <!-- 20 -->
      <g transform="translate(52.275 321.751219) scale(0.1 -0.1)">
       <use xlink:href="#DejaVuSans-32"/>
       <use xlink:href="#DejaVuSans-30" x="63.623047"/>
      </g>
     </g>
    </g>
    <g id="ytick_3">
     <g id="line2d_12">
      <g>
       <use xlink:href="#mf1e139b29a" x="72" y="251.424" style="stroke: #000000; stroke-width: 0.8"/>
      </g>
     </g>
     <g id="text_13">
      <!-- 40 -->
      <g transform="translate(52.275 255.223219) scale(0.1 -0.1)">
       <defs>
        <path id="DejaVuSans-34" d="M 2419 4116 
L 825 1625 
L 2419 1625 
L 2419 4116 
z
M 2253 4666 
L 3047 4666 
L 3047 1625 
L 3713 1625 
L 3713 1100 
L 3047 1100 
L 3047 0 
L 2419 0 
L 2419 1100 
L 313 1100 
L 313 1709 
L 2253 4666 
z
" transform="scale(0.015625)"/>
       </defs>
       <use xlink:href="#DejaVuSans-34"/>
       <use xlink:href="#DejaVuSans-30" x="63.623047"/>
      </g>
     </g>
    </g>
    <g id="ytick_4">
     <g id="line2d_13">
      <g>
       <use xlink:href="#mf1e139b29a" x="72" y="184.896" style="stroke: #000000; stroke-width: 0.8"/>
      </g>
     </g>
     <g id="text_14">
      <!-- 60 -->
      <g transform="translate(52.275 188.695219) scale(0.1 -0.1)">
       <defs>
        <path id="DejaVuSans-36" d="M 2113 2584 
Q 1688 2584 1439 2293 
Q 1191 2003 1191 1497 
Q 1191 994 1439 701 
Q 1688 409 2113 409 
Q 2538 409 2786 701 
Q 3034 994 3034 1497 
Q 3034 2003 2786 2293 
Q 2538 2584 2113 2584 
z
M 3366 4563 
L 3366 3988 
Q 3128 4100 2886 4159 
Q 2644 4219 2406 4219 
Q 1781 4219 1451 3797 
Q 1122 3375 1075 2522 
Q 1259 2794 1537 2939 
Q 1816 3084 2150 3084 
Q 2853 3084 3261 2657 
Q 3669 2231 3669 1497 
Q 3669 778 3244 343 
Q 2819 -91 2113 -91 
Q 1303 -91 875 529 
Q 447 1150 447 2328 
Q 447 3434 972 4092 
Q 1497 4750 2381 4750 
Q 2619 4750 2861 4703 
Q 3103 4656 3366 4563 
z
" transform="scale(0.015625)"/>
       </defs>
       <use xlink:href="#DejaVuSans-36"/>
       <use xlink:href="#DejaVuSans-30" x="63.623047"/>
      </g>
     </g>
    </g>
    <g id="ytick_5">
     <g id="line2d_14">
      <g>
       <use xlink:href="#mf1e139b29a" x="72" y="118.368" style="stroke: #000000; stroke-width: 0.8"/>
      </g>
     </g>
     <g id="text_15">
      <!-- 80 -->
      <g transform="translate(52.275 122.167219) scale(0.1 -0.1)">
       <defs>
        <path id="DejaVuSans-38" d="M 2034 2216 
Q 1584 2216 1326 1975 
Q 1069 1734 1069 1313 
Q 1069 891 1326 650 
Q 1584 409 2034 409 
Q 2484 409 2743 651 
Q 3003 894 3003 1313 
Q 3003 1734 2745 1975 
Q 2488 2216 2034 2216 
z
M 1403 2484 
Q 997 2584 770 2862 
Q 544 3141 544 3541 
Q 544 4100 942 4425 
Q 1341 4750 2034 4750 
Q 2731 4750 3128 4425 
Q 3525 4100 3525 3541 
Q 3525 3141 3298 2862 
Q 3072 2584 2669 2484 
Q 3125 2378 3379 2068 
Q 3634 1759 3634 1313 
Q 3634 634 3220 271 
Q 2806 -91 2034 -91 
Q 1263 -91 848 271 
Q 434 634 434 1313 
Q 434 1759 690 2068 
Q 947 2378 1403 2484 
z
M 1172 3481 
Q 1172 3119 1398 2916 
Q 1625 2713 2034 2713 
Q 2441 2713 2670 2916 
Q 2900 3119 2900 3481 
Q 2900 3844 2670 4047 
Q 2441 4250 2034 4250 
Q 1625 4250 1398 4047 
Q 1172 3844 1172 3481 
z
" transform="scale(0.015625)"/>
       </defs>
       <use xlink:href="#DejaVuSans-38"/>
       <use xlink:href="#DejaVuSans-30" x="63.623047"/>
      </g>
     </g>
    </g>
    <g id="ytick_6">
     <g id="line2d_15">
      <g>
       <use xlink:href="#mf1e139b29a" x="72" y="51.84" style="stroke: #000000; stroke-width: 0.8"/>
      </g>
     </g>
     <g id="text_16">
      <!-- 100 -->
      <g transform="translate(45.9125 55.639219) scale(0.1 -0.1)">
       <use xlink:href="#DejaVuSans-31"/>
       <use xlink:href="#DejaVuSans-30" x="63.623047"/>
       <use xlink:href="#DejaVuSans-30" x="127.246094"/>
      </g>
     </g>
    </g>
    <g id="text_17">
     <!-- rate -->
     <g transform="translate(39.832812 228.31625) rotate(-90) scale(0.1 -0.1)">
      <defs>
       <path id="DejaVuSans-72" d="M 2631 2963 
Q 2534 3019 2420 3045 
Q 2306 3072 2169 3072 
Q 1681 3072 1420 2755 
Q 1159 2438 1159 1844 
L 1159 0 
L 581 0 
L 581 3500 
L 1159 3500 
L 1159 2956 
Q 1341 3275 1631 3429 
Q 1922 3584 2338 3584 
Q 2397 3584 2469 3576 
Q 2541 3569 2628 3553 
L 2631 2963 
z
" transform="scale(0.015625)"/>
       <path id="DejaVuSans-61" d="M 2194 1759 
Q 1497 1759 1228 1600 
Q 959 1441 959 1056 
Q 959 750 1161 570 
Q 1363 391 1709 391 
Q 2188 391 2477 730 
Q 2766 1069 2766 1631 
L 2766 1759 
L 2194 1759 
z
M 3341 1997 
L 3341 0 
L 2766 0 
L 2766 531 
Q 2569 213 2275 61 
Q 1981 -91 1556 -91 
Q 1019 -91 701 211 
Q 384 513 384 1019 
Q 384 1609 779 1909 
Q 1175 2209 1959 2209 
L 2766 2209 
L 2766 2266 
Q 2766 2663 2505 2880 
Q 2244 3097 1772 3097 
Q 1472 3097 1187 3025 
Q 903 2953 641 2809 
L 641 3341 
Q 956 3463 1253 3523 
Q 1550 3584 1831 3584 
Q 2591 3584 2966 3190 
Q 3341 2797 3341 1997 
z
" transform="scale(0.015625)"/>
       <path id="DejaVuSans-74" d="M 1172 4494 
L 1172 3500 
L 2356 3500 
L 2356 3053 
L 1172 3053 
L 1172 1153 
Q 1172 725 1289 603 
Q 1406 481 1766 481 
L 2356 481 
L 2356 0 
L 1766 0 
Q 1100 0 847 248 
Q 594 497 594 1153 
L 594 3053 
L 172 3053 
L 172 3500 
L 594 3500 
L 594 4494 
L 1172 4494 
z
" transform="scale(0.015625)"/>
      </defs>
      <use xlink:href="#DejaVuSans-72"/>
      <use xlink:href="#DejaVuSans-61" x="41.113281"/>
      <use xlink:href="#DejaVuSans-74" x="102.392578"/>
      <use xlink:href="#DejaVuSans-65" x="141.601562"/>
     </g>
    </g>
   </g>
   <g id="line2d_16">
    <path d="M 92.290909 278.083927 
L 94.330196 273.231104 
L 96.369484 266.407342 
L 98.408771 237.282841 
L 100.448058 257.088526 
L 102.487346 176.957707 
L 104.526633 191.589405 
L 106.565921 176.659384 
L 108.605208 250.232813 
L 110.644495 153.641717 
L 112.683783 142.095856 
L 114.72307 134.692667 
L 116.762357 180.262015 
L 118.801645 222.477212 
L 120.840932 149.002136 
L 122.880219 121.96369 
L 124.919507 209.715154 
L 126.958794 162.909611 
L 128.998081 137.007737 
L 131.037369 122.706212 
L 133.076656 224.890445 
L 135.115943 153.776223 
L 137.155231 134.632317 
L 139.194518 116.77822 
L 141.233805 209.272541 
L 143.273093 147.687229 
L 145.31238 118.093456 
L 147.351667 99.99532 
L 149.390955 178.374406 
L 151.430242 144.238835 
L 153.469529 128.561495 
L 155.508817 94.349155 
L 157.548104 185.04789 
L 159.587392 131.568026 
L 161.626679 119.906161 
L 163.665966 89.322832 
L 165.705254 194.998666 
L 167.744541 131.53313 
L 169.783828 100.34572 
L 171.823116 110.506172 
L 173.862403 184.659511 
L 175.90169 156.098475 
L 177.940978 104.875006 
L 179.980265 121.845402 
L 182.019552 191.565068 
L 184.05884 141.740203 
L 186.098127 115.662331 
L 188.137414 99.889365 
L 190.176702 169.376463 
L 192.215989 159.466115 
L 194.255276 114.996579 
L 196.294564 97.413167 
L 198.333851 185.144975 
L 200.373138 169.040123 
L 202.412426 177.655563 
L 204.451713 109.363991 
L 206.491 199.952609 
L 208.530288 128.02426 
L 210.569575 145.346806 
L 212.608862 96.155717 
L 214.64815 162.723358 
L 216.687437 134.055897 
L 218.726725 158.325355 
L 220.766012 103.407854 
L 222.805299 185.641618 
L 224.844587 158.427148 
L 226.883874 152.967514 
L 228.923161 93.046227 
L 230.962449 170.473623 
L 233.001736 167.083675 
L 235.041023 121.562432 
L 237.080311 124.870103 
L 239.119598 169.279594 
L 241.158885 140.047031 
L 243.198173 130.412597 
L 245.23746 128.524697 
L 247.276747 170.529049 
L 249.316035 116.362344 
L 251.355322 120.845086 
L 253.394609 144.491985 
L 255.433897 186.464995 
L 257.473184 146.911487 
L 259.512471 133.601649 
L 261.551759 107.349122 
L 263.591046 179.668173 
L 267.669621 151.023273 
L 269.708908 116.831362 
L 271.748196 169.820255 
L 273.787483 144.896213 
L 275.82677 163.088148 
L 277.866058 131.962432 
L 281.944632 148.255097 
L 283.98392 159.057446 
L 286.023207 129.121724 
L 288.062494 151.696284 
L 290.101782 163.263056 
L 292.141069 122.758136 
L 294.180356 138.095355 
L 296.219644 180.060054 
L 298.258931 139.067577 
L 300.298218 156.299066 
L 302.337506 119.466885 
L 304.376793 129.894243 
L 306.41608 169.049386 
L 308.455368 127.027522 
L 310.494655 118.156471 
L 312.533942 206.635102 
L 314.57323 155.410034 
L 316.612517 140.305333 
L 318.651804 122.276987 
L 320.691092 168.440456 
L 322.730379 135.77696 
L 324.769667 154.053456 
L 326.808954 149.732045 
L 328.848241 128.83345 
L 330.887529 142.726865 
L 332.926816 159.538164 
L 334.966103 171.746249 
L 337.005391 157.877273 
L 339.044678 172.262421 
L 341.083965 152.161191 
L 343.123253 147.559271 
L 345.16254 183.907523 
L 347.201827 166.548825 
L 349.241115 137.394301 
L 351.280402 128.742088 
L 353.319689 182.086558 
L 355.358977 153.235358 
L 357.398264 130.384072 
L 359.437551 144.033499 
L 361.476839 130.158052 
L 363.516126 144.19554 
L 365.555413 162.956789 
L 367.594701 143.683835 
L 369.633988 175.934398 
L 371.673275 175.361772 
L 373.712563 172.652614 
L 375.75185 176.512252 
L 377.791138 172.496359 
L 379.830425 131.7021 
L 381.869712 161.012726 
L 383.909 162.401535 
L 385.948287 151.002894 
L 387.987574 152.935968 
L 390.026862 146.807385 
L 392.066149 162.229824 
L 394.105436 142.917407 
L 396.144724 167.267643 
L 398.184011 172.059926 
L 400.223298 151.411766 
L 402.262586 179.087134 
L 404.301873 177.449744 
L 406.34116 162.918112 
L 408.380448 182.454571 
L 410.419735 161.560088 
L 412.459022 163.406292 
L 414.49831 150.726701 
L 416.537597 162.137878 
L 418.576884 162.926437 
L 420.616172 120.691394 
L 422.655459 168.754336 
L 424.694746 133.263583 
L 426.734034 137.834642 
L 428.773321 195.150404 
L 430.812608 156.841859 
L 432.851896 161.207556 
L 434.891183 142.687681 
L 436.930471 181.829348 
L 438.969758 148.758503 
L 441.009045 167.996892 
L 443.048333 140.165016 
L 445.08762 154.063658 
L 447.126907 191.330013 
L 449.166195 166.2789 
L 451.205482 168.339805 
L 453.244769 162.414072 
L 455.284057 145.411572 
L 457.323344 183.22742 
L 459.362631 157.208095 
L 461.401919 182.316969 
L 463.441206 160.467395 
L 465.480493 161.517376 
L 467.519781 175.314226 
L 469.559068 153.850074 
L 471.598355 156.43951 
L 473.637643 135.891747 
L 475.67693 175.207764 
L 477.716217 171.240229 
L 479.755505 168.291434 
L 481.794792 159.612802 
L 483.834079 144.388847 
L 485.873367 164.104909 
L 487.912654 125.558264 
L 489.951942 182.654362 
L 491.991229 188.739409 
L 494.030516 159.894807 
L 496.069804 162.000124 
L 498.109091 149.097204 
L 498.109091 149.097204 
" clip-path="url(#p8dd342719f)" style="fill: none; stroke: #0000ff; stroke-width: 1.5; stroke-linecap: square"/>
   </g>
   <g id="line2d_17">
    <path d="M 92.290909 277.691221 
L 94.330196 276.994291 
L 96.369484 256.009398 
L 98.408771 280.746846 
L 100.448058 173.542495 
L 102.487346 195.474689 
L 104.526633 170.977663 
L 106.565921 221.38113 
L 108.605208 194.534888 
L 110.644495 200.623995 
L 112.683783 179.949442 
L 114.72307 207.128991 
L 116.762357 205.357603 
L 118.801645 223.053517 
L 120.840932 175.411984 
L 122.880219 212.536676 
L 124.919507 206.713724 
L 126.958794 194.051175 
L 128.998081 169.086819 
L 131.037369 176.005065 
L 133.076656 194.819862 
L 135.115943 181.106913 
L 137.155231 222.440705 
L 139.194518 188.320018 
L 141.233805 183.889961 
L 143.273093 180.197173 
L 145.31238 198.839233 
L 147.351667 182.079287 
L 149.390955 205.438078 
L 151.430242 194.009936 
L 153.469529 199.599139 
L 155.508817 194.152194 
L 157.548104 184.098458 
L 159.587392 201.351836 
L 161.626679 168.80758 
L 163.665966 165.63274 
L 167.744541 171.44389 
L 169.783828 172.293052 
L 171.823116 164.416886 
L 173.862403 178.891339 
L 175.90169 207.56465 
L 177.940978 174.626572 
L 179.980265 159.308286 
L 182.019552 188.581885 
L 184.05884 197.562127 
L 186.098127 193.168742 
L 188.137414 222.880804 
L 190.176702 170.702206 
L 192.215989 164.28809 
L 194.255276 182.848507 
L 196.294564 182.976338 
L 198.333851 197.963893 
L 200.373138 220.432891 
L 202.412426 230.333469 
L 204.451713 176.04029 
L 206.491 224.642942 
L 208.530288 236.812211 
L 210.569575 218.488333 
L 212.608862 169.49899 
L 214.64815 208.991031 
L 216.687437 196.601389 
L 218.726725 213.188254 
L 220.766012 194.834024 
L 222.805299 188.416075 
L 224.844587 182.876132 
L 226.883874 235.324274 
L 228.923161 191.683483 
L 230.962449 213.389809 
L 233.001736 199.521874 
L 235.041023 167.531731 
L 237.080311 198.988712 
L 239.119598 207.768375 
L 241.158885 203.388733 
L 243.198173 198.288356 
L 245.23746 186.206275 
L 247.276747 211.688047 
L 249.316035 207.557252 
L 251.355322 197.546342 
L 253.394609 205.814174 
L 255.433897 190.425691 
L 257.473184 189.858737 
L 259.512471 189.715933 
L 261.551759 211.96679 
L 263.591046 190.066967 
L 265.630333 193.437056 
L 267.669621 205.69303 
L 269.708908 235.038412 
L 271.748196 190.480356 
L 273.787483 222.837027 
L 275.82677 193.831754 
L 277.866058 204.007687 
L 279.905345 216.764289 
L 281.944632 191.481458 
L 283.98392 198.963308 
L 286.023207 203.859363 
L 288.062494 192.975524 
L 290.101782 202.112376 
L 292.141069 169.719097 
L 294.180356 173.689652 
L 296.219644 207.514172 
L 298.258931 198.088945 
L 300.298218 194.113835 
L 302.337506 187.418171 
L 304.376793 233.595255 
L 306.41608 225.632866 
L 308.455368 181.883798 
L 310.494655 204.637947 
L 312.533942 182.426122 
L 314.57323 199.661709 
L 316.612517 205.69487 
L 318.651804 204.490029 
L 320.691092 219.56 
L 322.730379 182.569408 
L 324.769667 174.473617 
L 326.808954 214.257751 
L 328.848241 193.568986 
L 330.887529 190.113003 
L 332.926816 216.303823 
L 334.966103 247.687003 
L 337.005391 186.975431 
L 339.044678 206.356384 
L 341.083965 198.290463 
L 343.123253 184.607714 
L 345.16254 201.902788 
L 347.201827 179.704045 
L 349.241115 184.145649 
L 351.280402 188.076461 
L 353.319689 200.005346 
L 355.358977 177.548149 
L 357.398264 190.019141 
L 359.437551 197.360001 
L 361.476839 200.750697 
L 363.516126 200.454468 
L 365.555413 185.559417 
L 367.594701 204.479155 
L 369.633988 183.135563 
L 371.673275 169.124557 
L 373.712563 196.264732 
L 375.75185 192.045392 
L 377.791138 175.410715 
L 379.830425 178.34479 
L 381.869712 220.48342 
L 383.909 186.07536 
L 385.948287 204.174944 
L 387.987574 216.937852 
L 390.026862 200.190608 
L 392.066149 204.094849 
L 394.105436 210.944434 
L 396.144724 230.991709 
L 398.184011 220.291267 
L 400.223298 231.909329 
L 402.262586 194.038588 
L 404.301873 199.489796 
L 406.34116 174.800618 
L 408.380448 193.692172 
L 410.419735 195.757557 
L 412.459022 179.017343 
L 414.49831 191.163987 
L 416.537597 184.426093 
L 418.576884 204.222135 
L 420.616172 199.544474 
L 422.655459 194.088139 
L 424.694746 190.379362 
L 426.734034 186.0956 
L 428.773321 209.695447 
L 430.812608 194.71472 
L 432.851896 199.771725 
L 434.891183 195.194537 
L 436.930471 177.959736 
L 438.969758 207.527331 
L 441.009045 206.74225 
L 443.048333 228.066212 
L 445.08762 193.388482 
L 447.126907 237.0873 
L 449.166195 200.438784 
L 451.205482 225.420499 
L 453.244769 208.284839 
L 455.284057 183.73075 
L 457.323344 218.511237 
L 459.362631 214.851187 
L 461.401919 182.705195 
L 463.441206 195.480463 
L 465.480493 212.890375 
L 467.519781 193.450583 
L 469.559068 178.399353 
L 471.598355 209.486355 
L 473.637643 208.151095 
L 475.67693 195.459119 
L 477.716217 220.804723 
L 479.755505 197.639303 
L 481.794792 205.198011 
L 483.834079 172.816495 
L 485.873367 216.155942 
L 487.912654 216.627029 
L 489.951942 194.471721 
L 491.991229 179.950292 
L 494.030516 215.924187 
L 496.069804 206.307251 
L 498.109091 211.128985 
L 498.109091 211.128985 
" clip-path="url(#p8dd342719f)" style="fill: none; stroke: #008000; stroke-width: 1.5; stroke-linecap: square"/>
   </g>
   <g id="patch_3">
    <path d="M 72 384.48 
L 72 51.84 
" style="fill: none; stroke: #000000; stroke-width: 0.8; stroke-linejoin: miter; stroke-linecap: square"/>
   </g>
   <g id="patch_4">
    <path d="M 518.4 384.48 
L 518.4 51.84 
" style="fill: none; stroke: #000000; stroke-width: 0.8; stroke-linejoin: miter; stroke-linecap: square"/>
   </g>
   <g id="patch_5">
    <path d="M 72 384.48 
L 518.4 384.48 
" style="fill: none; stroke: #000000; stroke-width: 0.8; stroke-linejoin: miter; stroke-linecap: square"/>
   </g>
   <g id="patch_6">
    <path d="M 72 51.84 
L 518.4 51.84 
" style="fill: none; stroke: #000000; stroke-width: 0.8; stroke-linejoin: miter; stroke-linecap: square"/>
   </g>
   <g id="legend_1">
    <g id="patch_7">
     <path d="M 79 89.19625 
L 160.740625 89.19625 
Q 162.740625 89.19625 162.740625 87.19625 
L 162.740625 58.84 
Q 162.740625 56.84 160.740625 56.84 
L 79 56.84 
Q 77 56.84 77 58.84 
L 77 87.19625 
Q 77 89.19625 79 89.19625 
z
" style="fill: #ffffff; opacity: 0.8; stroke: #cccccc; stroke-linejoin: miter"/>
    </g>
    <g id="line2d_18">
     <path d="M 81 64.938437 
L 91 64.938437 
L 101 64.938437 
" style="fill: none; stroke: #0000ff; stroke-width: 1.5; stroke-linecap: square"/>
    </g>
    <g id="text_18">
     <!-- train mAP -->
     <g transform="translate(109 68.438437) scale(0.1 -0.1)">
      <defs>
       <path id="DejaVuSans-69" d="M 603 3500 
L 1178 3500 
L 1178 0 
L 603 0 
L 603 3500 
z
M 603 4863 
L 1178 4863 
L 1178 4134 
L 603 4134 
L 603 4863 
z
" transform="scale(0.015625)"/>
       <path id="DejaVuSans-6e" d="M 3513 2113 
L 3513 0 
L 2938 0 
L 2938 2094 
Q 2938 2591 2744 2837 
Q 2550 3084 2163 3084 
Q 1697 3084 1428 2787 
Q 1159 2491 1159 1978 
L 1159 0 
L 581 0 
L 581 3500 
L 1159 3500 
L 1159 2956 
Q 1366 3272 1645 3428 
Q 1925 3584 2291 3584 
Q 2894 3584 3203 3211 
Q 3513 2838 3513 2113 
z
" transform="scale(0.015625)"/>
       <path id="DejaVuSans-20" transform="scale(0.015625)"/>
       <path id="DejaVuSans-6d" d="M 3328 2828 
Q 3544 3216 3844 3400 
Q 4144 3584 4550 3584 
Q 5097 3584 5394 3201 
Q 5691 2819 5691 2113 
L 5691 0 
L 5113 0 
L 5113 2094 
Q 5113 2597 4934 2840 
Q 4756 3084 4391 3084 
Q 3944 3084 3684 2787 
Q 3425 2491 3425 1978 
L 3425 0 
L 2847 0 
L 2847 2094 
Q 2847 2600 2669 2842 
Q 2491 3084 2119 3084 
Q 1678 3084 1418 2786 
Q 1159 2488 1159 1978 
L 1159 0 
L 581 0 
L 581 3500 
L 1159 3500 
L 1159 2956 
Q 1356 3278 1631 3431 
Q 1906 3584 2284 3584 
Q 2666 3584 2933 3390 
Q 3200 3197 3328 2828 
z
" transform="scale(0.015625)"/>
       <path id="DejaVuSans-41" d="M 2188 4044 
L 1331 1722 
L 3047 1722 
L 2188 4044 
z
M 1831 4666 
L 2547 4666 
L 4325 0 
L 3669 0 
L 3244 1197 
L 1141 1197 
L 716 0 
L 50 0 
L 1831 4666 
z
" transform="scale(0.015625)"/>
       <path id="DejaVuSans-50" d="M 1259 4147 
L 1259 2394 
L 2053 2394 
Q 2494 2394 2734 2622 
Q 2975 2850 2975 3272 
Q 2975 3691 2734 3919 
Q 2494 4147 2053 4147 
L 1259 4147 
z
M 628 4666 
L 2053 4666 
Q 2838 4666 3239 4311 
Q 3641 3956 3641 3272 
Q 3641 2581 3239 2228 
Q 2838 1875 2053 1875 
L 1259 1875 
L 1259 0 
L 628 0 
L 628 4666 
z
" transform="scale(0.015625)"/>
      </defs>
      <use xlink:href="#DejaVuSans-74"/>
      <use xlink:href="#DejaVuSans-72" x="39.208984"/>
      <use xlink:href="#DejaVuSans-61" x="80.322266"/>
      <use xlink:href="#DejaVuSans-69" x="141.601562"/>
      <use xlink:href="#DejaVuSans-6e" x="169.384766"/>
      <use xlink:href="#DejaVuSans-20" x="232.763672"/>
      <use xlink:href="#DejaVuSans-6d" x="264.550781"/>
      <use xlink:href="#DejaVuSans-41" x="361.962891"/>
      <use xlink:href="#DejaVuSans-50" x="430.371094"/>
     </g>
    </g>
    <g id="line2d_19">
     <path d="M 81 79.616562 
L 91 79.616562 
L 101 79.616562 
" style="fill: none; stroke: #008000; stroke-width: 1.5; stroke-linecap: square"/>
    </g>
    <g id="text_19">
     <!-- valid mAP -->
     <g transform="translate(109 83.116562) scale(0.1 -0.1)">
      <defs>
       <path id="DejaVuSans-76" d="M 191 3500 
L 800 3500 
L 1894 563 
L 2988 3500 
L 3597 3500 
L 2284 0 
L 1503 0 
L 191 3500 
z
" transform="scale(0.015625)"/>
       <path id="DejaVuSans-6c" d="M 603 4863 
L 1178 4863 
L 1178 0 
L 603 0 
L 603 4863 
z
" transform="scale(0.015625)"/>
       <path id="DejaVuSans-64" d="M 2906 2969 
L 2906 4863 
L 3481 4863 
L 3481 0 
L 2906 0 
L 2906 525 
Q 2725 213 2448 61 
Q 2172 -91 1784 -91 
Q 1150 -91 751 415 
Q 353 922 353 1747 
Q 353 2572 751 3078 
Q 1150 3584 1784 3584 
Q 2172 3584 2448 3432 
Q 2725 3281 2906 2969 
z
M 947 1747 
Q 947 1113 1208 752 
Q 1469 391 1925 391 
Q 2381 391 2643 752 
Q 2906 1113 2906 1747 
Q 2906 2381 2643 2742 
Q 2381 3103 1925 3103 
Q 1469 3103 1208 2742 
Q 947 2381 947 1747 
z
" transform="scale(0.015625)"/>
      </defs>
      <use xlink:href="#DejaVuSans-76"/>
      <use xlink:href="#DejaVuSans-61" x="59.179688"/>
      <use xlink:href="#DejaVuSans-6c" x="120.458984"/>
      <use xlink:href="#DejaVuSans-69" x="148.242188"/>
      <use xlink:href="#DejaVuSans-64" x="176.025391"/>
      <use xlink:href="#DejaVuSans-20" x="239.501953"/>
      <use xlink:href="#DejaVuSans-6d" x="271.289062"/>
      <use xlink:href="#DejaVuSans-41" x="368.701172"/>
      <use xlink:href="#DejaVuSans-50" x="437.109375"/>
     </g>
    </g>
   </g>
  </g>
  <g id="axes_2">
   <g id="matplotlib.axis_3">
    <g id="ytick_7">
     <g id="line2d_20">
      <defs>
       <path id="md2913c10cc" d="M 0 0 
L 3.5 0 
" style="stroke: #000000; stroke-width: 0.8"/>
      </defs>
      <g>
       <use xlink:href="#md2913c10cc" x="518.4" y="329.450628" style="stroke: #000000; stroke-width: 0.8"/>
      </g>
     </g>
     <g id="text_20">
      <!-- 2 -->
      <g transform="translate(525.4 333.249847) scale(0.1 -0.1)">
       <use xlink:href="#DejaVuSans-32"/>
      </g>
     </g>
    </g>
    <g id="ytick_8">
     <g id="line2d_21">
      <g>
       <use xlink:href="#md2913c10cc" x="518.4" y="264.222051" style="stroke: #000000; stroke-width: 0.8"/>
      </g>
     </g>
     <g id="text_21">
      <!-- 4 -->
      <g transform="translate(525.4 268.02127) scale(0.1 -0.1)">
       <use xlink:href="#DejaVuSans-34"/>
      </g>
     </g>
    </g>
    <g id="ytick_9">
     <g id="line2d_22">
      <g>
       <use xlink:href="#md2913c10cc" x="518.4" y="198.993474" style="stroke: #000000; stroke-width: 0.8"/>
      </g>
     </g>
     <g id="text_22">
      <!-- 6 -->
      <g transform="translate(525.4 202.792693) scale(0.1 -0.1)">
       <use xlink:href="#DejaVuSans-36"/>
      </g>
     </g>
    </g>
    <g id="ytick_10">
     <g id="line2d_23">
      <g>
       <use xlink:href="#md2913c10cc" x="518.4" y="133.764897" style="stroke: #000000; stroke-width: 0.8"/>
      </g>
     </g>
     <g id="text_23">
      <!-- 8 -->
      <g transform="translate(525.4 137.564116) scale(0.1 -0.1)">
       <use xlink:href="#DejaVuSans-38"/>
      </g>
     </g>
    </g>
    <g id="ytick_11">
     <g id="line2d_24">
      <g>
       <use xlink:href="#md2913c10cc" x="518.4" y="68.53632" style="stroke: #000000; stroke-width: 0.8"/>
      </g>
     </g>
     <g id="text_24">
      <!-- 10 -->
      <g transform="translate(525.4 72.335539) scale(0.1 -0.1)">
       <use xlink:href="#DejaVuSans-31"/>
       <use xlink:href="#DejaVuSans-30" x="63.623047"/>
      </g>
     </g>
    </g>
    <g id="text_25">
     <!-- loss -->
     <g transform="translate(549.723438 227.817812) rotate(-90) scale(0.1 -0.1)">
      <defs>
       <path id="DejaVuSans-73" d="M 2834 3397 
L 2834 2853 
Q 2591 2978 2328 3040 
Q 2066 3103 1784 3103 
Q 1356 3103 1142 2972 
Q 928 2841 928 2578 
Q 928 2378 1081 2264 
Q 1234 2150 1697 2047 
L 1894 2003 
Q 2506 1872 2764 1633 
Q 3022 1394 3022 966 
Q 3022 478 2636 193 
Q 2250 -91 1575 -91 
Q 1294 -91 989 -36 
Q 684 19 347 128 
L 347 722 
Q 666 556 975 473 
Q 1284 391 1588 391 
Q 1994 391 2212 530 
Q 2431 669 2431 922 
Q 2431 1156 2273 1281 
Q 2116 1406 1581 1522 
L 1381 1569 
Q 847 1681 609 1914 
Q 372 2147 372 2553 
Q 372 3047 722 3315 
Q 1072 3584 1716 3584 
Q 2034 3584 2315 3537 
Q 2597 3491 2834 3397 
z
" transform="scale(0.015625)"/>
      </defs>
      <use xlink:href="#DejaVuSans-6c"/>
      <use xlink:href="#DejaVuSans-6f" x="27.783203"/>
      <use xlink:href="#DejaVuSans-73" x="88.964844"/>
      <use xlink:href="#DejaVuSans-73" x="141.064453"/>
     </g>
    </g>
   </g>
   <g id="line2d_25">
    <path d="M 92.290909 343.009192 
L 94.330196 344.625984 
L 96.369484 355.426119 
L 98.408771 66.96 
L 100.448058 367.04997 
L 102.487346 356.529806 
L 104.526633 367.427473 
L 106.565921 362.91781 
L 108.605208 368.221553 
L 110.644495 369.36 
L 112.683783 363.748653 
L 114.72307 365.840219 
L 116.762357 362.0989 
L 118.801645 361.895517 
L 120.840932 368.73788 
L 122.880219 366.58378 
L 124.919507 361.597026 
L 126.958794 361.42395 
L 128.998081 362.277718 
L 131.037369 354.495333 
L 133.076656 356.395933 
L 135.115943 358.834462 
L 137.155231 360.832776 
L 139.194518 353.788055 
L 141.233805 351.678002 
L 143.273093 347.464207 
L 145.31238 359.410746 
L 147.351667 350.609615 
L 149.390955 363.31238 
L 151.430242 365.758621 
L 153.469529 359.400686 
L 155.508817 354.66028 
L 157.548104 352.765454 
L 159.587392 365.212082 
L 161.626679 361.502113 
L 163.665966 364.419116 
L 165.705254 360.846525 
L 167.744541 360.827687 
L 169.783828 361.721178 
L 171.823116 358.12771 
L 173.862403 345.100217 
L 175.90169 350.054998 
L 177.940978 364.927264 
L 179.980265 357.863422 
L 182.019552 354.808202 
L 184.05884 357.507667 
L 186.098127 354.354365 
L 188.137414 357.489799 
L 190.176702 352.75446 
L 192.215989 359.053967 
L 194.255276 358.649712 
L 196.294564 363.049777 
L 198.333851 339.434351 
L 200.373138 342.302645 
L 202.412426 347.294168 
L 204.451713 349.64611 
L 206.491 346.46554 
L 208.530288 347.746906 
L 210.569575 348.838426 
L 212.608862 351.5124 
L 214.64815 345.299636 
L 216.687437 350.193486 
L 218.726725 340.140871 
L 220.766012 352.714722 
L 222.805299 341.078754 
L 224.844587 338.608701 
L 226.883874 340.798673 
L 228.923161 341.717283 
L 230.962449 348.639779 
L 233.001736 332.879496 
L 235.041023 351.323906 
L 237.080311 354.545096 
L 239.119598 341.459242 
L 241.158885 351.9218 
L 243.198173 343.458705 
L 245.23746 355.353531 
L 247.276747 335.357816 
L 249.316035 342.946906 
L 251.355322 345.669175 
L 253.394609 345.642525 
L 255.433897 340.335878 
L 257.473184 333.282492 
L 259.512471 345.430971 
L 261.551759 336.890164 
L 263.591046 334.268562 
L 265.630333 330.365545 
L 267.669621 342.665081 
L 269.708908 333.759192 
L 271.748196 332.901938 
L 273.787483 340.532989 
L 275.82677 339.955136 
L 277.866058 346.653228 
L 279.905345 320.155986 
L 281.944632 330.531828 
L 283.98392 342.542808 
L 286.023207 338.599692 
L 288.062494 330.266751 
L 290.101782 333.334239 
L 292.141069 344.662572 
L 294.180356 340.450183 
L 296.219644 329.091828 
L 298.258931 336.514404 
L 300.298218 335.047658 
L 302.337506 336.266761 
L 304.376793 323.070391 
L 306.41608 325.268316 
L 308.455368 334.115844 
L 310.494655 338.163664 
L 312.533942 316.03859 
L 314.57323 329.543411 
L 316.612517 340.968323 
L 318.651804 329.574237 
L 320.691092 319.653786 
L 322.730379 336.666844 
L 324.769667 320.298259 
L 326.808954 331.105705 
L 328.848241 320.833524 
L 330.887529 316.720092 
L 332.926816 319.674684 
L 334.966103 314.934842 
L 337.005391 315.976936 
L 339.044678 331.914034 
L 341.083965 328.56373 
L 343.123253 331.734898 
L 345.16254 313.152346 
L 347.201827 326.047426 
L 349.241115 332.803543 
L 351.280402 329.799121 
L 353.319689 309.900167 
L 355.358977 320.154411 
L 357.398264 318.699442 
L 359.437551 333.836389 
L 361.476839 303.395522 
L 363.516126 316.367384 
L 365.555413 319.472229 
L 367.594701 325.177679 
L 369.633988 299.988946 
L 375.75185 329.438297 
L 377.791138 299.663023 
L 379.830425 307.430771 
L 381.869712 311.139294 
L 383.909 326.595129 
L 385.948287 299.00903 
L 387.987574 302.280175 
L 390.026862 315.351212 
L 392.066149 314.75933 
L 394.105436 282.912218 
L 396.144724 288.197996 
L 398.184011 305.270821 
L 400.223298 315.016722 
L 402.262586 283.133975 
L 404.301873 290.989503 
L 406.34116 305.60809 
L 408.380448 308.987999 
L 410.419735 283.866809 
L 412.459022 284.772474 
L 414.49831 295.528754 
L 416.537597 309.394508 
L 418.576884 265.759274 
L 420.616172 276.846233 
L 422.655459 297.469895 
L 424.694746 307.932748 
L 426.734034 284.195883 
L 428.773321 281.369291 
L 430.812608 291.882028 
L 432.851896 292.221522 
L 434.891183 282.592534 
L 436.930471 290.79091 
L 438.969758 290.405112 
L 441.009045 285.338931 
L 443.048333 266.232842 
L 445.08762 274.771181 
L 447.126907 282.520782 
L 449.166195 288.617856 
L 451.205482 268.284192 
L 453.244769 275.048343 
L 455.284057 270.123186 
L 457.323344 289.421006 
L 459.362631 267.406748 
L 461.401919 297.620923 
L 463.441206 293.955255 
L 467.519781 263.172454 
L 469.559068 289.579729 
L 471.598355 271.411679 
L 473.637643 280.533178 
L 475.67693 245.473784 
L 477.716217 266.443371 
L 479.755505 271.337167 
L 481.794792 270.702991 
L 483.834079 258.71801 
L 485.873367 279.134637 
L 487.912654 261.232092 
L 489.951942 288.506672 
L 491.991229 250.003455 
L 494.030516 269.233569 
L 496.069804 275.987404 
L 498.109091 274.810583 
L 498.109091 274.810583 
" clip-path="url(#p8dd342719f)" style="fill: none; stroke: #ff0000; stroke-width: 1.5; stroke-linecap: square"/>
   </g>
   <g id="patch_8">
    <path d="M 72 384.48 
L 72 51.84 
" style="fill: none; stroke: #000000; stroke-width: 0.8; stroke-linejoin: miter; stroke-linecap: square"/>
   </g>
   <g id="patch_9">
    <path d="M 518.4 384.48 
L 518.4 51.84 
" style="fill: none; stroke: #000000; stroke-width: 0.8; stroke-linejoin: miter; stroke-linecap: square"/>
   </g>
   <g id="patch_10">
    <path d="M 72 384.48 
L 518.4 384.48 
" style="fill: none; stroke: #000000; stroke-width: 0.8; stroke-linejoin: miter; stroke-linecap: square"/>
   </g>
   <g id="patch_11">
    <path d="M 72 51.84 
L 518.4 51.84 
" style="fill: none; stroke: #000000; stroke-width: 0.8; stroke-linejoin: miter; stroke-linecap: square"/>
   </g>
   <g id="text_26">
    <!-- The learning curve on voc/voc_fpsl_plateau_200/host/4 -->
    <g transform="translate(129.931875 45.84) scale(0.12 -0.12)">
     <defs>
      <path id="DejaVuSans-54" d="M -19 4666 
L 3928 4666 
L 3928 4134 
L 2272 4134 
L 2272 0 
L 1638 0 
L 1638 4134 
L -19 4134 
L -19 4666 
z
" transform="scale(0.015625)"/>
      <path id="DejaVuSans-67" d="M 2906 1791 
Q 2906 2416 2648 2759 
Q 2391 3103 1925 3103 
Q 1463 3103 1205 2759 
Q 947 2416 947 1791 
Q 947 1169 1205 825 
Q 1463 481 1925 481 
Q 2391 481 2648 825 
Q 2906 1169 2906 1791 
z
M 3481 434 
Q 3481 -459 3084 -895 
Q 2688 -1331 1869 -1331 
Q 1566 -1331 1297 -1286 
Q 1028 -1241 775 -1147 
L 775 -588 
Q 1028 -725 1275 -790 
Q 1522 -856 1778 -856 
Q 2344 -856 2625 -561 
Q 2906 -266 2906 331 
L 2906 616 
Q 2728 306 2450 153 
Q 2172 0 1784 0 
Q 1141 0 747 490 
Q 353 981 353 1791 
Q 353 2603 747 3093 
Q 1141 3584 1784 3584 
Q 2172 3584 2450 3431 
Q 2728 3278 2906 2969 
L 2906 3500 
L 3481 3500 
L 3481 434 
z
" transform="scale(0.015625)"/>
      <path id="DejaVuSans-75" d="M 544 1381 
L 544 3500 
L 1119 3500 
L 1119 1403 
Q 1119 906 1312 657 
Q 1506 409 1894 409 
Q 2359 409 2629 706 
Q 2900 1003 2900 1516 
L 2900 3500 
L 3475 3500 
L 3475 0 
L 2900 0 
L 2900 538 
Q 2691 219 2414 64 
Q 2138 -91 1772 -91 
Q 1169 -91 856 284 
Q 544 659 544 1381 
z
M 1991 3584 
L 1991 3584 
z
" transform="scale(0.015625)"/>
      <path id="DejaVuSans-2f" d="M 1625 4666 
L 2156 4666 
L 531 -594 
L 0 -594 
L 1625 4666 
z
" transform="scale(0.015625)"/>
      <path id="DejaVuSans-5f" d="M 3263 -1063 
L 3263 -1509 
L -63 -1509 
L -63 -1063 
L 3263 -1063 
z
" transform="scale(0.015625)"/>
      <path id="DejaVuSans-66" d="M 2375 4863 
L 2375 4384 
L 1825 4384 
Q 1516 4384 1395 4259 
Q 1275 4134 1275 3809 
L 1275 3500 
L 2222 3500 
L 2222 3053 
L 1275 3053 
L 1275 0 
L 697 0 
L 697 3053 
L 147 3053 
L 147 3500 
L 697 3500 
L 697 3744 
Q 697 4328 969 4595 
Q 1241 4863 1831 4863 
L 2375 4863 
z
" transform="scale(0.015625)"/>
     </defs>
     <use xlink:href="#DejaVuSans-54"/>
     <use xlink:href="#DejaVuSans-68" x="61.083984"/>
     <use xlink:href="#DejaVuSans-65" x="124.462891"/>
     <use xlink:href="#DejaVuSans-20" x="185.986328"/>
     <use xlink:href="#DejaVuSans-6c" x="217.773438"/>
     <use xlink:href="#DejaVuSans-65" x="245.556641"/>
     <use xlink:href="#DejaVuSans-61" x="307.080078"/>
     <use xlink:href="#DejaVuSans-72" x="368.359375"/>
     <use xlink:href="#DejaVuSans-6e" x="407.722656"/>
     <use xlink:href="#DejaVuSans-69" x="471.101562"/>
     <use xlink:href="#DejaVuSans-6e" x="498.884766"/>
     <use xlink:href="#DejaVuSans-67" x="562.263672"/>
     <use xlink:href="#DejaVuSans-20" x="625.740234"/>
     <use xlink:href="#DejaVuSans-63" x="657.527344"/>
     <use xlink:href="#DejaVuSans-75" x="712.507812"/>
     <use xlink:href="#DejaVuSans-72" x="775.886719"/>
     <use xlink:href="#DejaVuSans-76" x="817"/>
     <use xlink:href="#DejaVuSans-65" x="876.179688"/>
     <use xlink:href="#DejaVuSans-20" x="937.703125"/>
     <use xlink:href="#DejaVuSans-6f" x="969.490234"/>
     <use xlink:href="#DejaVuSans-6e" x="1030.671875"/>
     <use xlink:href="#DejaVuSans-20" x="1094.050781"/>
     <use xlink:href="#DejaVuSans-76" x="1125.837891"/>
     <use xlink:href="#DejaVuSans-6f" x="1185.017578"/>
     <use xlink:href="#DejaVuSans-63" x="1246.199219"/>
     <use xlink:href="#DejaVuSans-2f" x="1301.179688"/>
     <use xlink:href="#DejaVuSans-76" x="1334.871094"/>
     <use xlink:href="#DejaVuSans-6f" x="1394.050781"/>
     <use xlink:href="#DejaVuSans-63" x="1455.232422"/>
     <use xlink:href="#DejaVuSans-5f" x="1510.212891"/>
     <use xlink:href="#DejaVuSans-66" x="1560.212891"/>
     <use xlink:href="#DejaVuSans-70" x="1595.417969"/>
     <use xlink:href="#DejaVuSans-73" x="1658.894531"/>
     <use xlink:href="#DejaVuSans-6c" x="1710.994141"/>
     <use xlink:href="#DejaVuSans-5f" x="1738.777344"/>
     <use xlink:href="#DejaVuSans-70" x="1788.777344"/>
     <use xlink:href="#DejaVuSans-6c" x="1852.253906"/>
     <use xlink:href="#DejaVuSans-61" x="1880.037109"/>
     <use xlink:href="#DejaVuSans-74" x="1941.316406"/>
     <use xlink:href="#DejaVuSans-65" x="1980.525391"/>
     <use xlink:href="#DejaVuSans-61" x="2042.048828"/>
     <use xlink:href="#DejaVuSans-75" x="2103.328125"/>
     <use xlink:href="#DejaVuSans-5f" x="2166.707031"/>
     <use xlink:href="#DejaVuSans-32" x="2216.707031"/>
     <use xlink:href="#DejaVuSans-30" x="2280.330078"/>
     <use xlink:href="#DejaVuSans-30" x="2343.953125"/>
     <use xlink:href="#DejaVuSans-2f" x="2407.576172"/>
     <use xlink:href="#DejaVuSans-68" x="2441.267578"/>
     <use xlink:href="#DejaVuSans-6f" x="2504.646484"/>
     <use xlink:href="#DejaVuSans-73" x="2565.828125"/>
     <use xlink:href="#DejaVuSans-74" x="2617.927734"/>
     <use xlink:href="#DejaVuSans-2f" x="2657.136719"/>
     <use xlink:href="#DejaVuSans-34" x="2690.828125"/>
    </g>
   </g>
   <g id="legend_2">
    <g id="patch_12">
     <path d="M 460.084375 74.518125 
L 511.4 74.518125 
Q 513.4 74.518125 513.4 72.518125 
L 513.4 58.84 
Q 513.4 56.84 511.4 56.84 
L 460.084375 56.84 
Q 458.084375 56.84 458.084375 58.84 
L 458.084375 72.518125 
Q 458.084375 74.518125 460.084375 74.518125 
z
" style="fill: #ffffff; opacity: 0.8; stroke: #cccccc; stroke-linejoin: miter"/>
    </g>
    <g id="line2d_26">
     <path d="M 462.084375 64.938438 
L 472.084375 64.938438 
L 482.084375 64.938438 
" style="fill: none; stroke: #ff0000; stroke-width: 1.5; stroke-linecap: square"/>
    </g>
    <g id="text_27">
     <!-- loss -->
     <g transform="translate(490.084375 68.438438) scale(0.1 -0.1)">
      <use xlink:href="#DejaVuSans-6c"/>
      <use xlink:href="#DejaVuSans-6f" x="27.783203"/>
      <use xlink:href="#DejaVuSans-73" x="88.964844"/>
      <use xlink:href="#DejaVuSans-73" x="141.064453"/>
     </g>
    </g>
   </g>
  </g>
 </g>
 <defs>
  <clipPath id="p8dd342719f">
   <rect x="72" y="51.84" width="446.4" height="332.64"/>
  </clipPath>
 </defs>
</svg>
