<?xml version="1.0" encoding="utf-8" standalone="no"?>
<!DOCTYPE svg PUBLIC "-//W3C//DTD SVG 1.1//EN"
  "http://www.w3.org/Graphics/SVG/1.1/DTD/svg11.dtd">
<svg xmlns:xlink="http://www.w3.org/1999/xlink" width="576pt" height="432pt" viewBox="0 0 576 432" xmlns="http://www.w3.org/2000/svg" version="1.1">
 <metadata>
  <rdf:RDF xmlns:dc="http://purl.org/dc/elements/1.1/" xmlns:cc="http://creativecommons.org/ns#" xmlns:rdf="http://www.w3.org/1999/02/22-rdf-syntax-ns#">
   <cc:Work>
    <dc:type rdf:resource="http://purl.org/dc/dcmitype/StillImage"/>
    <dc:date>2023-10-19T23:28:34.338503</dc:date>
    <dc:format>image/svg+xml</dc:format>
    <dc:creator>
     <cc:Agent>
      <dc:title>Matplotlib v3.7.1, https://matplotlib.org/</dc:title>
     </cc:Agent>
    </dc:creator>
   </cc:Work>
  </rdf:RDF>
 </metadata>
 <defs>
  <style type="text/css">*{stroke-linejoin: round; stroke-linecap: butt}</style>
 </defs>
 <g id="figure_1">
  <g id="patch_1">
   <path d="M 0 432 
L 576 432 
L 576 0 
L 0 0 
z
" style="fill: #ffffff"/>
  </g>
  <g id="axes_1">
   <g id="patch_2">
    <path d="M 72 384.48 
L 518.4 384.48 
L 518.4 51.84 
L 72 51.84 
z
" style="fill: #ffffff"/>
   </g>
   <g id="matplotlib.axis_1">
    <g id="xtick_1">
     <g id="line2d_1">
      <defs>
       <path id="m9a860ebe82" d="M 0 0 
L 0 3.5 
" style="stroke: #000000; stroke-width: 0.8"/>
      </defs>
      <g>
       <use xlink:href="#m9a860ebe82" x="92.290909" y="384.48" style="stroke: #000000; stroke-width: 0.8"/>
      </g>
     </g>
     <g id="text_1">
      <!-- 0 -->
      <g transform="translate(89.109659 399.078438) scale(0.1 -0.1)">
       <defs>
        <path id="DejaVuSans-30" d="M 2034 4250 
Q 1547 4250 1301 3770 
Q 1056 3291 1056 2328 
Q 1056 1369 1301 889 
Q 1547 409 2034 409 
Q 2525 409 2770 889 
Q 3016 1369 3016 2328 
Q 3016 3291 2770 3770 
Q 2525 4250 2034 4250 
z
M 2034 4750 
Q 2819 4750 3233 4129 
Q 3647 3509 3647 2328 
Q 3647 1150 3233 529 
Q 2819 -91 2034 -91 
Q 1250 -91 836 529 
Q 422 1150 422 2328 
Q 422 3509 836 4129 
Q 1250 4750 2034 4750 
z
" transform="scale(0.015625)"/>
       </defs>
       <use xlink:href="#DejaVuSans-30"/>
      </g>
     </g>
    </g>
    <g id="xtick_2">
     <g id="line2d_2">
      <g>
       <use xlink:href="#m9a860ebe82" x="143.273093" y="384.48" style="stroke: #000000; stroke-width: 0.8"/>
      </g>
     </g>
     <g id="text_2">
      <!-- 25 -->
      <g transform="translate(136.910593 399.078438) scale(0.1 -0.1)">
       <defs>
        <path id="DejaVuSans-32" d="M 1228 531 
L 3431 531 
L 3431 0 
L 469 0 
L 469 531 
Q 828 903 1448 1529 
Q 2069 2156 2228 2338 
Q 2531 2678 2651 2914 
Q 2772 3150 2772 3378 
Q 2772 3750 2511 3984 
Q 2250 4219 1831 4219 
Q 1534 4219 1204 4116 
Q 875 4013 500 3803 
L 500 4441 
Q 881 4594 1212 4672 
Q 1544 4750 1819 4750 
Q 2544 4750 2975 4387 
Q 3406 4025 3406 3419 
Q 3406 3131 3298 2873 
Q 3191 2616 2906 2266 
Q 2828 2175 2409 1742 
Q 1991 1309 1228 531 
z
" transform="scale(0.015625)"/>
        <path id="DejaVuSans-35" d="M 691 4666 
L 3169 4666 
L 3169 4134 
L 1269 4134 
L 1269 2991 
Q 1406 3038 1543 3061 
Q 1681 3084 1819 3084 
Q 2600 3084 3056 2656 
Q 3513 2228 3513 1497 
Q 3513 744 3044 326 
Q 2575 -91 1722 -91 
Q 1428 -91 1123 -41 
Q 819 9 494 109 
L 494 744 
Q 775 591 1075 516 
Q 1375 441 1709 441 
Q 2250 441 2565 725 
Q 2881 1009 2881 1497 
Q 2881 1984 2565 2268 
Q 2250 2553 1709 2553 
Q 1456 2553 1204 2497 
Q 953 2441 691 2322 
L 691 4666 
z
" transform="scale(0.015625)"/>
       </defs>
       <use xlink:href="#DejaVuSans-32"/>
       <use xlink:href="#DejaVuSans-35" x="63.623047"/>
      </g>
     </g>
    </g>
    <g id="xtick_3">
     <g id="line2d_3">
      <g>
       <use xlink:href="#m9a860ebe82" x="194.255276" y="384.48" style="stroke: #000000; stroke-width: 0.8"/>
      </g>
     </g>
     <g id="text_3">
      <!-- 50 -->
      <g transform="translate(187.892776 399.078438) scale(0.1 -0.1)">
       <use xlink:href="#DejaVuSans-35"/>
       <use xlink:href="#DejaVuSans-30" x="63.623047"/>
      </g>
     </g>
    </g>
    <g id="xtick_4">
     <g id="line2d_4">
      <g>
       <use xlink:href="#m9a860ebe82" x="245.23746" y="384.48" style="stroke: #000000; stroke-width: 0.8"/>
      </g>
     </g>
     <g id="text_4">
      <!-- 75 -->
      <g transform="translate(238.87496 399.078438) scale(0.1 -0.1)">
       <defs>
        <path id="DejaVuSans-37" d="M 525 4666 
L 3525 4666 
L 3525 4397 
L 1831 0 
L 1172 0 
L 2766 4134 
L 525 4134 
L 525 4666 
z
" transform="scale(0.015625)"/>
       </defs>
       <use xlink:href="#DejaVuSans-37"/>
       <use xlink:href="#DejaVuSans-35" x="63.623047"/>
      </g>
     </g>
    </g>
    <g id="xtick_5">
     <g id="line2d_5">
      <g>
       <use xlink:href="#m9a860ebe82" x="296.219644" y="384.48" style="stroke: #000000; stroke-width: 0.8"/>
      </g>
     </g>
     <g id="text_5">
      <!-- 100 -->
      <g transform="translate(286.675894 399.078438) scale(0.1 -0.1)">
       <defs>
        <path id="DejaVuSans-31" d="M 794 531 
L 1825 531 
L 1825 4091 
L 703 3866 
L 703 4441 
L 1819 4666 
L 2450 4666 
L 2450 531 
L 3481 531 
L 3481 0 
L 794 0 
L 794 531 
z
" transform="scale(0.015625)"/>
       </defs>
       <use xlink:href="#DejaVuSans-31"/>
       <use xlink:href="#DejaVuSans-30" x="63.623047"/>
       <use xlink:href="#DejaVuSans-30" x="127.246094"/>
      </g>
     </g>
    </g>
    <g id="xtick_6">
     <g id="line2d_6">
      <g>
       <use xlink:href="#m9a860ebe82" x="347.201827" y="384.48" style="stroke: #000000; stroke-width: 0.8"/>
      </g>
     </g>
     <g id="text_6">
      <!-- 125 -->
      <g transform="translate(337.658077 399.078438) scale(0.1 -0.1)">
       <use xlink:href="#DejaVuSans-31"/>
       <use xlink:href="#DejaVuSans-32" x="63.623047"/>
       <use xlink:href="#DejaVuSans-35" x="127.246094"/>
      </g>
     </g>
    </g>
    <g id="xtick_7">
     <g id="line2d_7">
      <g>
       <use xlink:href="#m9a860ebe82" x="398.184011" y="384.48" style="stroke: #000000; stroke-width: 0.8"/>
      </g>
     </g>
     <g id="text_7">
      <!-- 150 -->
      <g transform="translate(388.640261 399.078438) scale(0.1 -0.1)">
       <use xlink:href="#DejaVuSans-31"/>
       <use xlink:href="#DejaVuSans-35" x="63.623047"/>
       <use xlink:href="#DejaVuSans-30" x="127.246094"/>
      </g>
     </g>
    </g>
    <g id="xtick_8">
     <g id="line2d_8">
      <g>
       <use xlink:href="#m9a860ebe82" x="449.166195" y="384.48" style="stroke: #000000; stroke-width: 0.8"/>
      </g>
     </g>
     <g id="text_8">
      <!-- 175 -->
      <g transform="translate(439.622445 399.078438) scale(0.1 -0.1)">
       <use xlink:href="#DejaVuSans-31"/>
       <use xlink:href="#DejaVuSans-37" x="63.623047"/>
       <use xlink:href="#DejaVuSans-35" x="127.246094"/>
      </g>
     </g>
    </g>
    <g id="xtick_9">
     <g id="line2d_9">
      <g>
       <use xlink:href="#m9a860ebe82" x="500.148378" y="384.48" style="stroke: #000000; stroke-width: 0.8"/>
      </g>
     </g>
     <g id="text_9">
      <!-- 200 -->
      <g transform="translate(490.604628 399.078438) scale(0.1 -0.1)">
       <use xlink:href="#DejaVuSans-32"/>
       <use xlink:href="#DejaVuSans-30" x="63.623047"/>
       <use xlink:href="#DejaVuSans-30" x="127.246094"/>
      </g>
     </g>
    </g>
    <g id="text_10">
     <!-- epoch -->
     <g transform="translate(279.971875 412.756563) scale(0.1 -0.1)">
      <defs>
       <path id="DejaVuSans-65" d="M 3597 1894 
L 3597 1613 
L 953 1613 
Q 991 1019 1311 708 
Q 1631 397 2203 397 
Q 2534 397 2845 478 
Q 3156 559 3463 722 
L 3463 178 
Q 3153 47 2828 -22 
Q 2503 -91 2169 -91 
Q 1331 -91 842 396 
Q 353 884 353 1716 
Q 353 2575 817 3079 
Q 1281 3584 2069 3584 
Q 2775 3584 3186 3129 
Q 3597 2675 3597 1894 
z
M 3022 2063 
Q 3016 2534 2758 2815 
Q 2500 3097 2075 3097 
Q 1594 3097 1305 2825 
Q 1016 2553 972 2059 
L 3022 2063 
z
" transform="scale(0.015625)"/>
       <path id="DejaVuSans-70" d="M 1159 525 
L 1159 -1331 
L 581 -1331 
L 581 3500 
L 1159 3500 
L 1159 2969 
Q 1341 3281 1617 3432 
Q 1894 3584 2278 3584 
Q 2916 3584 3314 3078 
Q 3713 2572 3713 1747 
Q 3713 922 3314 415 
Q 2916 -91 2278 -91 
Q 1894 -91 1617 61 
Q 1341 213 1159 525 
z
M 3116 1747 
Q 3116 2381 2855 2742 
Q 2594 3103 2138 3103 
Q 1681 3103 1420 2742 
Q 1159 2381 1159 1747 
Q 1159 1113 1420 752 
Q 1681 391 2138 391 
Q 2594 391 2855 752 
Q 3116 1113 3116 1747 
z
" transform="scale(0.015625)"/>
       <path id="DejaVuSans-6f" d="M 1959 3097 
Q 1497 3097 1228 2736 
Q 959 2375 959 1747 
Q 959 1119 1226 758 
Q 1494 397 1959 397 
Q 2419 397 2687 759 
Q 2956 1122 2956 1747 
Q 2956 2369 2687 2733 
Q 2419 3097 1959 3097 
z
M 1959 3584 
Q 2709 3584 3137 3096 
Q 3566 2609 3566 1747 
Q 3566 888 3137 398 
Q 2709 -91 1959 -91 
Q 1206 -91 779 398 
Q 353 888 353 1747 
Q 353 2609 779 3096 
Q 1206 3584 1959 3584 
z
" transform="scale(0.015625)"/>
       <path id="DejaVuSans-63" d="M 3122 3366 
L 3122 2828 
Q 2878 2963 2633 3030 
Q 2388 3097 2138 3097 
Q 1578 3097 1268 2742 
Q 959 2388 959 1747 
Q 959 1106 1268 751 
Q 1578 397 2138 397 
Q 2388 397 2633 464 
Q 2878 531 3122 666 
L 3122 134 
Q 2881 22 2623 -34 
Q 2366 -91 2075 -91 
Q 1284 -91 818 406 
Q 353 903 353 1747 
Q 353 2603 823 3093 
Q 1294 3584 2113 3584 
Q 2378 3584 2631 3529 
Q 2884 3475 3122 3366 
z
" transform="scale(0.015625)"/>
       <path id="DejaVuSans-68" d="M 3513 2113 
L 3513 0 
L 2938 0 
L 2938 2094 
Q 2938 2591 2744 2837 
Q 2550 3084 2163 3084 
Q 1697 3084 1428 2787 
Q 1159 2491 1159 1978 
L 1159 0 
L 581 0 
L 581 4863 
L 1159 4863 
L 1159 2956 
Q 1366 3272 1645 3428 
Q 1925 3584 2291 3584 
Q 2894 3584 3203 3211 
Q 3513 2838 3513 2113 
z
" transform="scale(0.015625)"/>
      </defs>
      <use xlink:href="#DejaVuSans-65"/>
      <use xlink:href="#DejaVuSans-70" x="61.523438"/>
      <use xlink:href="#DejaVuSans-6f" x="125"/>
      <use xlink:href="#DejaVuSans-63" x="186.181641"/>
      <use xlink:href="#DejaVuSans-68" x="241.162109"/>
     </g>
    </g>
   </g>
   <g id="matplotlib.axis_2">
    <g id="ytick_1">
     <g id="line2d_10">
      <defs>
       <path id="m6a6237eaad" d="M 0 0 
L -3.5 0 
" style="stroke: #000000; stroke-width: 0.8"/>
      </defs>
      <g>
       <use xlink:href="#m6a6237eaad" x="72" y="384.48" style="stroke: #000000; stroke-width: 0.8"/>
      </g>
     </g>
     <g id="text_11">
      <!-- 0 -->
      <g transform="translate(58.6375 388.279219) scale(0.1 -0.1)">
       <use xlink:href="#DejaVuSans-30"/>
      </g>
     </g>
    </g>
    <g id="ytick_2">
     <g id="line2d_11">
      <g>
       <use xlink:href="#m6a6237eaad" x="72" y="317.952" style="stroke: #000000; stroke-width: 0.8"/>
      </g>
     </g>
     <g id="text_12">
      <!-- 20 -->
      <g transform="translate(52.275 321.751219) scale(0.1 -0.1)">
       <use xlink:href="#DejaVuSans-32"/>
       <use xlink:href="#DejaVuSans-30" x="63.623047"/>
      </g>
     </g>
    </g>
    <g id="ytick_3">
     <g id="line2d_12">
      <g>
       <use xlink:href="#m6a6237eaad" x="72" y="251.424" style="stroke: #000000; stroke-width: 0.8"/>
      </g>
     </g>
     <g id="text_13">
      <!-- 40 -->
      <g transform="translate(52.275 255.223219) scale(0.1 -0.1)">
       <defs>
        <path id="DejaVuSans-34" d="M 2419 4116 
L 825 1625 
L 2419 1625 
L 2419 4116 
z
M 2253 4666 
L 3047 4666 
L 3047 1625 
L 3713 1625 
L 3713 1100 
L 3047 1100 
L 3047 0 
L 2419 0 
L 2419 1100 
L 313 1100 
L 313 1709 
L 2253 4666 
z
" transform="scale(0.015625)"/>
       </defs>
       <use xlink:href="#DejaVuSans-34"/>
       <use xlink:href="#DejaVuSans-30" x="63.623047"/>
      </g>
     </g>
    </g>
    <g id="ytick_4">
     <g id="line2d_13">
      <g>
       <use xlink:href="#m6a6237eaad" x="72" y="184.896" style="stroke: #000000; stroke-width: 0.8"/>
      </g>
     </g>
     <g id="text_14">
      <!-- 60 -->
      <g transform="translate(52.275 188.695219) scale(0.1 -0.1)">
       <defs>
        <path id="DejaVuSans-36" d="M 2113 2584 
Q 1688 2584 1439 2293 
Q 1191 2003 1191 1497 
Q 1191 994 1439 701 
Q 1688 409 2113 409 
Q 2538 409 2786 701 
Q 3034 994 3034 1497 
Q 3034 2003 2786 2293 
Q 2538 2584 2113 2584 
z
M 3366 4563 
L 3366 3988 
Q 3128 4100 2886 4159 
Q 2644 4219 2406 4219 
Q 1781 4219 1451 3797 
Q 1122 3375 1075 2522 
Q 1259 2794 1537 2939 
Q 1816 3084 2150 3084 
Q 2853 3084 3261 2657 
Q 3669 2231 3669 1497 
Q 3669 778 3244 343 
Q 2819 -91 2113 -91 
Q 1303 -91 875 529 
Q 447 1150 447 2328 
Q 447 3434 972 4092 
Q 1497 4750 2381 4750 
Q 2619 4750 2861 4703 
Q 3103 4656 3366 4563 
z
" transform="scale(0.015625)"/>
       </defs>
       <use xlink:href="#DejaVuSans-36"/>
       <use xlink:href="#DejaVuSans-30" x="63.623047"/>
      </g>
     </g>
    </g>
    <g id="ytick_5">
     <g id="line2d_14">
      <g>
       <use xlink:href="#m6a6237eaad" x="72" y="118.368" style="stroke: #000000; stroke-width: 0.8"/>
      </g>
     </g>
     <g id="text_15">
      <!-- 80 -->
      <g transform="translate(52.275 122.167219) scale(0.1 -0.1)">
       <defs>
        <path id="DejaVuSans-38" d="M 2034 2216 
Q 1584 2216 1326 1975 
Q 1069 1734 1069 1313 
Q 1069 891 1326 650 
Q 1584 409 2034 409 
Q 2484 409 2743 651 
Q 3003 894 3003 1313 
Q 3003 1734 2745 1975 
Q 2488 2216 2034 2216 
z
M 1403 2484 
Q 997 2584 770 2862 
Q 544 3141 544 3541 
Q 544 4100 942 4425 
Q 1341 4750 2034 4750 
Q 2731 4750 3128 4425 
Q 3525 4100 3525 3541 
Q 3525 3141 3298 2862 
Q 3072 2584 2669 2484 
Q 3125 2378 3379 2068 
Q 3634 1759 3634 1313 
Q 3634 634 3220 271 
Q 2806 -91 2034 -91 
Q 1263 -91 848 271 
Q 434 634 434 1313 
Q 434 1759 690 2068 
Q 947 2378 1403 2484 
z
M 1172 3481 
Q 1172 3119 1398 2916 
Q 1625 2713 2034 2713 
Q 2441 2713 2670 2916 
Q 2900 3119 2900 3481 
Q 2900 3844 2670 4047 
Q 2441 4250 2034 4250 
Q 1625 4250 1398 4047 
Q 1172 3844 1172 3481 
z
" transform="scale(0.015625)"/>
       </defs>
       <use xlink:href="#DejaVuSans-38"/>
       <use xlink:href="#DejaVuSans-30" x="63.623047"/>
      </g>
     </g>
    </g>
    <g id="ytick_6">
     <g id="line2d_15">
      <g>
       <use xlink:href="#m6a6237eaad" x="72" y="51.84" style="stroke: #000000; stroke-width: 0.8"/>
      </g>
     </g>
     <g id="text_16">
      <!-- 100 -->
      <g transform="translate(45.9125 55.639219) scale(0.1 -0.1)">
       <use xlink:href="#DejaVuSans-31"/>
       <use xlink:href="#DejaVuSans-30" x="63.623047"/>
       <use xlink:href="#DejaVuSans-30" x="127.246094"/>
      </g>
     </g>
    </g>
    <g id="text_17">
     <!-- rate -->
     <g transform="translate(39.832812 228.31625) rotate(-90) scale(0.1 -0.1)">
      <defs>
       <path id="DejaVuSans-72" d="M 2631 2963 
Q 2534 3019 2420 3045 
Q 2306 3072 2169 3072 
Q 1681 3072 1420 2755 
Q 1159 2438 1159 1844 
L 1159 0 
L 581 0 
L 581 3500 
L 1159 3500 
L 1159 2956 
Q 1341 3275 1631 3429 
Q 1922 3584 2338 3584 
Q 2397 3584 2469 3576 
Q 2541 3569 2628 3553 
L 2631 2963 
z
" transform="scale(0.015625)"/>
       <path id="DejaVuSans-61" d="M 2194 1759 
Q 1497 1759 1228 1600 
Q 959 1441 959 1056 
Q 959 750 1161 570 
Q 1363 391 1709 391 
Q 2188 391 2477 730 
Q 2766 1069 2766 1631 
L 2766 1759 
L 2194 1759 
z
M 3341 1997 
L 3341 0 
L 2766 0 
L 2766 531 
Q 2569 213 2275 61 
Q 1981 -91 1556 -91 
Q 1019 -91 701 211 
Q 384 513 384 1019 
Q 384 1609 779 1909 
Q 1175 2209 1959 2209 
L 2766 2209 
L 2766 2266 
Q 2766 2663 2505 2880 
Q 2244 3097 1772 3097 
Q 1472 3097 1187 3025 
Q 903 2953 641 2809 
L 641 3341 
Q 956 3463 1253 3523 
Q 1550 3584 1831 3584 
Q 2591 3584 2966 3190 
Q 3341 2797 3341 1997 
z
" transform="scale(0.015625)"/>
       <path id="DejaVuSans-74" d="M 1172 4494 
L 1172 3500 
L 2356 3500 
L 2356 3053 
L 1172 3053 
L 1172 1153 
Q 1172 725 1289 603 
Q 1406 481 1766 481 
L 2356 481 
L 2356 0 
L 1766 0 
Q 1100 0 847 248 
Q 594 497 594 1153 
L 594 3053 
L 172 3053 
L 172 3500 
L 594 3500 
L 594 4494 
L 1172 4494 
z
" transform="scale(0.015625)"/>
      </defs>
      <use xlink:href="#DejaVuSans-72"/>
      <use xlink:href="#DejaVuSans-61" x="41.113281"/>
      <use xlink:href="#DejaVuSans-74" x="102.392578"/>
      <use xlink:href="#DejaVuSans-65" x="141.601562"/>
     </g>
    </g>
   </g>
   <g id="line2d_16">
    <path d="M 92.290909 218.446307 
L 94.330196 206.36472 
L 96.369484 177.961753 
L 98.408771 140.688877 
L 100.448058 168.944954 
L 102.487346 166.170484 
L 104.526633 212.222465 
L 106.565921 164.347425 
L 108.605208 219.425178 
L 110.644495 210.787417 
L 112.683783 159.380589 
L 114.72307 134.205782 
L 116.762357 198.170118 
L 118.801645 170.494306 
L 120.840932 137.266445 
L 122.880219 99.90411 
L 124.919507 226.021955 
L 126.958794 144.092377 
L 128.998081 143.694494 
L 131.037369 106.328834 
L 133.076656 168.640844 
L 137.155231 189.208364 
L 139.194518 109.28547 
L 141.233805 216.07831 
L 143.273093 213.00388 
L 145.31238 176.269089 
L 147.351667 165.660707 
L 149.390955 189.163178 
L 151.430242 198.308342 
L 153.469529 169.074434 
L 155.508817 128.405418 
L 157.548104 225.165192 
L 159.587392 130.595728 
L 161.626679 155.049838 
L 163.665966 90.975449 
L 165.705254 221.304373 
L 167.744541 176.853072 
L 169.783828 95.973856 
L 171.823116 95.77933 
L 173.862403 224.74051 
L 175.90169 187.773304 
L 177.940978 159.0024 
L 179.980265 135.812592 
L 182.019552 219.984404 
L 184.05884 183.061407 
L 186.098127 209.110158 
L 188.137414 115.32056 
L 190.176702 196.122232 
L 192.215989 171.7765 
L 194.255276 144.11943 
L 196.294564 128.219293 
L 198.333851 188.045893 
L 200.373138 214.178507 
L 202.412426 157.1246 
L 204.451713 115.106112 
L 206.491 194.325706 
L 208.530288 160.084688 
L 210.569575 177.56736 
L 212.608862 124.548863 
L 214.64815 171.108819 
L 216.687437 208.053616 
L 218.726725 197.865932 
L 220.766012 174.865028 
L 222.805299 179.749422 
L 224.844587 206.454052 
L 226.883874 194.731596 
L 228.923161 148.404627 
L 230.962449 182.830451 
L 233.001736 175.764376 
L 235.041023 195.67462 
L 237.080311 175.239563 
L 239.119598 224.062183 
L 241.158885 201.401298 
L 243.198173 147.595943 
L 245.23746 192.265169 
L 247.276747 193.953189 
L 249.316035 207.256823 
L 251.355322 201.659448 
L 253.394609 198.263815 
L 255.433897 168.432234 
L 257.473184 173.153393 
L 259.512471 200.266921 
L 261.551759 135.48587 
L 263.591046 160.955295 
L 265.630333 206.099884 
L 267.669621 195.737952 
L 269.708908 155.508046 
L 271.748196 161.997713 
L 273.787483 204.539505 
L 275.82677 200.541731 
L 277.866058 216.857199 
L 279.905345 174.226012 
L 281.944632 159.966882 
L 283.98392 171.407142 
L 286.023207 156.119031 
L 288.062494 193.780109 
L 290.101782 192.284406 
L 292.141069 190.60806 
L 294.180356 218.820118 
L 296.219644 202.90049 
L 298.258931 181.60697 
L 300.298218 157.033695 
L 302.337506 147.657791 
L 304.376793 177.436547 
L 306.41608 191.016437 
L 308.455368 171.304867 
L 310.494655 178.760438 
L 312.533942 212.296634 
L 314.57323 196.053393 
L 316.612517 208.290156 
L 318.651804 164.593494 
L 320.691092 210.839938 
L 322.730379 158.249778 
L 324.769667 209.65436 
L 326.808954 216.382635 
L 328.848241 185.409608 
L 330.887529 201.289912 
L 332.926816 223.175016 
L 334.966103 204.664392 
L 337.005391 164.83464 
L 339.044678 205.562889 
L 341.083965 165.409664 
L 343.123253 208.2227 
L 345.16254 156.515569 
L 347.201827 211.058408 
L 349.241115 206.289042 
L 351.280402 216.170827 
L 353.319689 157.59938 
L 355.358977 165.354415 
L 357.398264 207.536379 
L 359.437551 188.541775 
L 361.476839 181.317135 
L 363.516126 220.795485 
L 365.555413 203.051175 
L 367.594701 206.092715 
L 369.633988 212.612024 
L 371.673275 163.485853 
L 373.712563 204.769078 
L 375.75185 147.449231 
L 377.791138 219.47346 
L 379.830425 164.30616 
L 381.869712 229.470793 
L 383.909 207.122951 
L 385.948287 151.383165 
L 387.987574 147.393373 
L 390.026862 206.146694 
L 392.066149 157.663968 
L 394.105436 210.399572 
L 396.144724 143.434822 
L 398.184011 164.815987 
L 400.223298 171.169397 
L 402.262586 202.94154 
L 404.301873 209.152717 
L 406.34116 197.296885 
L 408.380448 187.119479 
L 410.419735 157.978356 
L 412.459022 206.578216 
L 414.49831 154.107005 
L 416.537597 219.797479 
L 418.576884 171.359279 
L 420.616172 217.478107 
L 422.655459 164.331081 
L 424.694746 162.578549 
L 426.734034 205.744218 
L 428.773321 212.851178 
L 430.812608 219.198764 
L 432.851896 190.20972 
L 434.891183 187.524341 
L 436.930471 196.936448 
L 438.969758 173.712086 
L 441.009045 219.094053 
L 443.048333 204.92164 
L 445.08762 164.871667 
L 449.166195 156.802193 
L 451.205482 192.83579 
L 453.244769 172.136341 
L 455.284057 164.233907 
L 457.323344 209.119319 
L 459.362631 162.238758 
L 461.401919 222.207211 
L 463.441206 194.593601 
L 465.480493 202.933825 
L 467.519781 190.284828 
L 469.559068 215.171577 
L 471.598355 196.350714 
L 473.637643 148.010221 
L 475.67693 139.617603 
L 477.716217 163.795191 
L 479.755505 221.25538 
L 481.794792 209.757637 
L 483.834079 165.831758 
L 485.873367 219.975267 
L 487.912654 207.643475 
L 489.951942 205.344749 
L 491.991229 169.733436 
L 494.030516 163.588864 
L 496.069804 220.841243 
L 498.109091 202.08682 
L 498.109091 202.08682 
" clip-path="url(#p74727c8678)" style="fill: none; stroke: #0000ff; stroke-width: 1.5; stroke-linecap: square"/>
   </g>
   <g id="line2d_17">
    <path d="M 92.290909 177.415305 
L 94.330196 184.143225 
L 96.369484 152.619195 
L 98.408771 155.322403 
L 100.448058 140.438037 
L 102.487346 140.046219 
L 104.526633 140.91774 
L 106.565921 135.547412 
L 108.605208 154.89069 
L 110.644495 149.069516 
L 112.683783 147.978269 
L 114.72307 141.185304 
L 116.762357 145.893381 
L 118.801645 145.600768 
L 120.840932 139.701124 
L 122.880219 140.12304 
L 124.919507 146.425415 
L 126.958794 145.781082 
L 128.998081 151.957757 
L 131.037369 142.378775 
L 133.076656 154.865261 
L 135.115943 135.226705 
L 137.155231 138.152685 
L 139.194518 144.108187 
L 141.233805 147.588279 
L 143.273093 143.629804 
L 145.31238 142.61015 
L 147.351667 146.908823 
L 149.390955 154.674695 
L 151.430242 147.104465 
L 153.469529 142.757472 
L 155.508817 147.608074 
L 157.548104 149.616471 
L 159.587392 150.254459 
L 161.626679 140.527318 
L 163.665966 145.6582 
L 165.705254 148.451602 
L 167.744541 149.946213 
L 169.783828 146.235178 
L 171.823116 148.317477 
L 173.862403 143.404215 
L 175.90169 153.232262 
L 177.940978 150.743197 
L 179.980265 146.291645 
L 182.019552 149.004496 
L 184.05884 148.063744 
L 186.098127 146.171123 
L 188.137414 144.471048 
L 190.176702 141.211063 
L 192.215989 148.110465 
L 194.255276 143.025798 
L 196.294564 142.893703 
L 198.333851 153.514952 
L 200.373138 145.645257 
L 202.412426 143.489817 
L 204.451713 146.151328 
L 206.491 144.485031 
L 208.530288 155.146251 
L 210.569575 163.908683 
L 212.608862 152.983781 
L 214.64815 143.771873 
L 216.687437 149.426336 
L 218.726725 151.447194 
L 220.766012 147.31272 
L 222.805299 149.090504 
L 224.844587 150.054807 
L 226.883874 145.280645 
L 228.923161 147.905433 
L 230.962449 143.997081 
L 233.001736 144.893472 
L 235.041023 145.99525 
L 237.080311 134.906861 
L 239.119598 145.355486 
L 241.158885 148.629759 
L 243.198173 148.859103 
L 245.23746 155.731021 
L 247.276747 143.189996 
L 249.316035 149.377914 
L 251.355322 145.966725 
L 253.394609 144.469678 
L 255.433897 144.126561 
L 257.473184 142.262085 
L 259.512471 147.790773 
L 261.551759 149.332005 
L 263.591046 145.147434 
L 265.630333 146.143181 
L 267.669621 145.255799 
L 269.708908 148.454419 
L 271.748196 145.629116 
L 273.787483 147.175245 
L 275.82677 144.077809 
L 277.866058 152.107795 
L 279.905345 145.364241 
L 281.944632 150.359881 
L 283.98392 145.338584 
L 286.023207 144.663873 
L 288.062494 151.104484 
L 290.101782 149.606269 
L 292.141069 151.161814 
L 294.180356 153.294997 
L 296.219644 140.277823 
L 298.258931 145.884448 
L 300.298218 139.418966 
L 302.337506 142.960068 
L 304.376793 151.033678 
L 306.41608 134.502126 
L 308.455368 152.44279 
L 310.494655 145.369571 
L 312.533942 144.86119 
L 314.57323 145.551737 
L 316.612517 139.790126 
L 318.651804 148.961937 
L 320.691092 147.260872 
L 322.730379 152.466899 
L 324.769667 143.000039 
L 326.808954 140.420982 
L 328.848241 145.652946 
L 330.887529 149.316803 
L 332.926816 139.773579 
L 334.966103 143.754387 
L 337.005391 153.498151 
L 339.044678 146.391687 
L 341.083965 144.151889 
L 343.123253 154.599245 
L 345.16254 146.147369 
L 347.201827 144.908648 
L 349.241115 151.496099 
L 351.280402 142.648954 
L 353.319689 143.434466 
L 355.358977 142.494018 
L 357.398264 147.161617 
L 359.437551 147.227525 
L 361.476839 143.891126 
L 363.516126 143.092213 
L 365.555413 152.717663 
L 367.594701 146.138004 
L 369.633988 143.642544 
L 371.673275 143.390105 
L 373.712563 147.230596 
L 375.75185 145.935789 
L 377.791138 141.984902 
L 379.830425 152.72378 
L 381.869712 144.563857 
L 383.909 148.591006 
L 385.948287 149.575536 
L 387.987574 145.113249 
L 390.026862 145.419236 
L 392.066149 147.980807 
L 394.105436 143.702133 
L 396.144724 149.377508 
L 398.184011 143.405662 
L 400.223298 146.315399 
L 402.262586 143.806996 
L 404.301873 149.45707 
L 406.34116 141.973761 
L 408.380448 141.681554 
L 410.419735 144.626643 
L 412.459022 146.921766 
L 414.49831 142.648979 
L 416.537597 148.017377 
L 418.576884 145.765906 
L 420.616172 143.210477 
L 422.655459 143.810803 
L 424.694746 150.519258 
L 426.734034 145.095662 
L 428.773321 144.285811 
L 430.812608 145.789634 
L 432.851896 143.418427 
L 434.891183 144.423413 
L 436.930471 147.480954 
L 438.969758 143.385207 
L 441.009045 141.423151 
L 443.048333 154.050183 
L 445.08762 145.885945 
L 447.126907 144.310504 
L 449.166195 150.900416 
L 451.205482 140.516431 
L 453.244769 143.37701 
L 455.284057 146.666966 
L 457.323344 146.391407 
L 459.362631 143.77134 
L 461.401919 141.958432 
L 463.441206 144.66768 
L 465.480493 147.677484 
L 467.519781 140.735396 
L 469.559068 150.761571 
L 471.598355 141.6964 
L 473.637643 145.758191 
L 477.716217 142.853301 
L 479.755505 138.450094 
L 481.794792 143.300062 
L 485.873367 146.738432 
L 487.912654 150.519765 
L 489.951942 144.785055 
L 491.991229 147.892541 
L 494.030516 149.052893 
L 498.109091 146.257815 
L 498.109091 146.257815 
" clip-path="url(#p74727c8678)" style="fill: none; stroke: #008000; stroke-width: 1.5; stroke-linecap: square"/>
   </g>
   <g id="patch_3">
    <path d="M 72 384.48 
L 72 51.84 
" style="fill: none; stroke: #000000; stroke-width: 0.8; stroke-linejoin: miter; stroke-linecap: square"/>
   </g>
   <g id="patch_4">
    <path d="M 518.4 384.48 
L 518.4 51.84 
" style="fill: none; stroke: #000000; stroke-width: 0.8; stroke-linejoin: miter; stroke-linecap: square"/>
   </g>
   <g id="patch_5">
    <path d="M 72 384.48 
L 518.4 384.48 
" style="fill: none; stroke: #000000; stroke-width: 0.8; stroke-linejoin: miter; stroke-linecap: square"/>
   </g>
   <g id="patch_6">
    <path d="M 72 51.84 
L 518.4 51.84 
" style="fill: none; stroke: #000000; stroke-width: 0.8; stroke-linejoin: miter; stroke-linecap: square"/>
   </g>
   <g id="legend_1">
    <g id="patch_7">
     <path d="M 79 89.19625 
L 160.740625 89.19625 
Q 162.740625 89.19625 162.740625 87.19625 
L 162.740625 58.84 
Q 162.740625 56.84 160.740625 56.84 
L 79 56.84 
Q 77 56.84 77 58.84 
L 77 87.19625 
Q 77 89.19625 79 89.19625 
z
" style="fill: #ffffff; opacity: 0.8; stroke: #cccccc; stroke-linejoin: miter"/>
    </g>
    <g id="line2d_18">
     <path d="M 81 64.938437 
L 91 64.938437 
L 101 64.938437 
" style="fill: none; stroke: #0000ff; stroke-width: 1.5; stroke-linecap: square"/>
    </g>
    <g id="text_18">
     <!-- train mAP -->
     <g transform="translate(109 68.438437) scale(0.1 -0.1)">
      <defs>
       <path id="DejaVuSans-69" d="M 603 3500 
L 1178 3500 
L 1178 0 
L 603 0 
L 603 3500 
z
M 603 4863 
L 1178 4863 
L 1178 4134 
L 603 4134 
L 603 4863 
z
" transform="scale(0.015625)"/>
       <path id="DejaVuSans-6e" d="M 3513 2113 
L 3513 0 
L 2938 0 
L 2938 2094 
Q 2938 2591 2744 2837 
Q 2550 3084 2163 3084 
Q 1697 3084 1428 2787 
Q 1159 2491 1159 1978 
L 1159 0 
L 581 0 
L 581 3500 
L 1159 3500 
L 1159 2956 
Q 1366 3272 1645 3428 
Q 1925 3584 2291 3584 
Q 2894 3584 3203 3211 
Q 3513 2838 3513 2113 
z
" transform="scale(0.015625)"/>
       <path id="DejaVuSans-20" transform="scale(0.015625)"/>
       <path id="DejaVuSans-6d" d="M 3328 2828 
Q 3544 3216 3844 3400 
Q 4144 3584 4550 3584 
Q 5097 3584 5394 3201 
Q 5691 2819 5691 2113 
L 5691 0 
L 5113 0 
L 5113 2094 
Q 5113 2597 4934 2840 
Q 4756 3084 4391 3084 
Q 3944 3084 3684 2787 
Q 3425 2491 3425 1978 
L 3425 0 
L 2847 0 
L 2847 2094 
Q 2847 2600 2669 2842 
Q 2491 3084 2119 3084 
Q 1678 3084 1418 2786 
Q 1159 2488 1159 1978 
L 1159 0 
L 581 0 
L 581 3500 
L 1159 3500 
L 1159 2956 
Q 1356 3278 1631 3431 
Q 1906 3584 2284 3584 
Q 2666 3584 2933 3390 
Q 3200 3197 3328 2828 
z
" transform="scale(0.015625)"/>
       <path id="DejaVuSans-41" d="M 2188 4044 
L 1331 1722 
L 3047 1722 
L 2188 4044 
z
M 1831 4666 
L 2547 4666 
L 4325 0 
L 3669 0 
L 3244 1197 
L 1141 1197 
L 716 0 
L 50 0 
L 1831 4666 
z
" transform="scale(0.015625)"/>
       <path id="DejaVuSans-50" d="M 1259 4147 
L 1259 2394 
L 2053 2394 
Q 2494 2394 2734 2622 
Q 2975 2850 2975 3272 
Q 2975 3691 2734 3919 
Q 2494 4147 2053 4147 
L 1259 4147 
z
M 628 4666 
L 2053 4666 
Q 2838 4666 3239 4311 
Q 3641 3956 3641 3272 
Q 3641 2581 3239 2228 
Q 2838 1875 2053 1875 
L 1259 1875 
L 1259 0 
L 628 0 
L 628 4666 
z
" transform="scale(0.015625)"/>
      </defs>
      <use xlink:href="#DejaVuSans-74"/>
      <use xlink:href="#DejaVuSans-72" x="39.208984"/>
      <use xlink:href="#DejaVuSans-61" x="80.322266"/>
      <use xlink:href="#DejaVuSans-69" x="141.601562"/>
      <use xlink:href="#DejaVuSans-6e" x="169.384766"/>
      <use xlink:href="#DejaVuSans-20" x="232.763672"/>
      <use xlink:href="#DejaVuSans-6d" x="264.550781"/>
      <use xlink:href="#DejaVuSans-41" x="361.962891"/>
      <use xlink:href="#DejaVuSans-50" x="430.371094"/>
     </g>
    </g>
    <g id="line2d_19">
     <path d="M 81 79.616562 
L 91 79.616562 
L 101 79.616562 
" style="fill: none; stroke: #008000; stroke-width: 1.5; stroke-linecap: square"/>
    </g>
    <g id="text_19">
     <!-- valid mAP -->
     <g transform="translate(109 83.116562) scale(0.1 -0.1)">
      <defs>
       <path id="DejaVuSans-76" d="M 191 3500 
L 800 3500 
L 1894 563 
L 2988 3500 
L 3597 3500 
L 2284 0 
L 1503 0 
L 191 3500 
z
" transform="scale(0.015625)"/>
       <path id="DejaVuSans-6c" d="M 603 4863 
L 1178 4863 
L 1178 0 
L 603 0 
L 603 4863 
z
" transform="scale(0.015625)"/>
       <path id="DejaVuSans-64" d="M 2906 2969 
L 2906 4863 
L 3481 4863 
L 3481 0 
L 2906 0 
L 2906 525 
Q 2725 213 2448 61 
Q 2172 -91 1784 -91 
Q 1150 -91 751 415 
Q 353 922 353 1747 
Q 353 2572 751 3078 
Q 1150 3584 1784 3584 
Q 2172 3584 2448 3432 
Q 2725 3281 2906 2969 
z
M 947 1747 
Q 947 1113 1208 752 
Q 1469 391 1925 391 
Q 2381 391 2643 752 
Q 2906 1113 2906 1747 
Q 2906 2381 2643 2742 
Q 2381 3103 1925 3103 
Q 1469 3103 1208 2742 
Q 947 2381 947 1747 
z
" transform="scale(0.015625)"/>
      </defs>
      <use xlink:href="#DejaVuSans-76"/>
      <use xlink:href="#DejaVuSans-61" x="59.179688"/>
      <use xlink:href="#DejaVuSans-6c" x="120.458984"/>
      <use xlink:href="#DejaVuSans-69" x="148.242188"/>
      <use xlink:href="#DejaVuSans-64" x="176.025391"/>
      <use xlink:href="#DejaVuSans-20" x="239.501953"/>
      <use xlink:href="#DejaVuSans-6d" x="271.289062"/>
      <use xlink:href="#DejaVuSans-41" x="368.701172"/>
      <use xlink:href="#DejaVuSans-50" x="437.109375"/>
     </g>
    </g>
   </g>
  </g>
  <g id="axes_2">
   <g id="matplotlib.axis_3">
    <g id="ytick_7">
     <g id="line2d_20">
      <defs>
       <path id="maf66eadf1e" d="M 0 0 
L 3.5 0 
" style="stroke: #000000; stroke-width: 0.8"/>
      </defs>
      <g>
       <use xlink:href="#maf66eadf1e" x="518.4" y="339.497552" style="stroke: #000000; stroke-width: 0.8"/>
      </g>
     </g>
     <g id="text_20">
      <!-- 1 -->
      <g transform="translate(525.4 343.296771) scale(0.1 -0.1)">
       <use xlink:href="#DejaVuSans-31"/>
      </g>
     </g>
    </g>
    <g id="ytick_8">
     <g id="line2d_21">
      <g>
       <use xlink:href="#maf66eadf1e" x="518.4" y="280.321783" style="stroke: #000000; stroke-width: 0.8"/>
      </g>
     </g>
     <g id="text_21">
      <!-- 2 -->
      <g transform="translate(525.4 284.121002) scale(0.1 -0.1)">
       <use xlink:href="#DejaVuSans-32"/>
      </g>
     </g>
    </g>
    <g id="ytick_9">
     <g id="line2d_22">
      <g>
       <use xlink:href="#maf66eadf1e" x="518.4" y="221.146015" style="stroke: #000000; stroke-width: 0.8"/>
      </g>
     </g>
     <g id="text_22">
      <!-- 3 -->
      <g transform="translate(525.4 224.945234) scale(0.1 -0.1)">
       <defs>
        <path id="DejaVuSans-33" d="M 2597 2516 
Q 3050 2419 3304 2112 
Q 3559 1806 3559 1356 
Q 3559 666 3084 287 
Q 2609 -91 1734 -91 
Q 1441 -91 1130 -33 
Q 819 25 488 141 
L 488 750 
Q 750 597 1062 519 
Q 1375 441 1716 441 
Q 2309 441 2620 675 
Q 2931 909 2931 1356 
Q 2931 1769 2642 2001 
Q 2353 2234 1838 2234 
L 1294 2234 
L 1294 2753 
L 1863 2753 
Q 2328 2753 2575 2939 
Q 2822 3125 2822 3475 
Q 2822 3834 2567 4026 
Q 2313 4219 1838 4219 
Q 1578 4219 1281 4162 
Q 984 4106 628 3988 
L 628 4550 
Q 988 4650 1302 4700 
Q 1616 4750 1894 4750 
Q 2613 4750 3031 4423 
Q 3450 4097 3450 3541 
Q 3450 3153 3228 2886 
Q 3006 2619 2597 2516 
z
" transform="scale(0.015625)"/>
       </defs>
       <use xlink:href="#DejaVuSans-33"/>
      </g>
     </g>
    </g>
    <g id="ytick_10">
     <g id="line2d_23">
      <g>
       <use xlink:href="#maf66eadf1e" x="518.4" y="161.970246" style="stroke: #000000; stroke-width: 0.8"/>
      </g>
     </g>
     <g id="text_23">
      <!-- 4 -->
      <g transform="translate(525.4 165.769465) scale(0.1 -0.1)">
       <use xlink:href="#DejaVuSans-34"/>
      </g>
     </g>
    </g>
    <g id="ytick_11">
     <g id="line2d_24">
      <g>
       <use xlink:href="#maf66eadf1e" x="518.4" y="102.794477" style="stroke: #000000; stroke-width: 0.8"/>
      </g>
     </g>
     <g id="text_24">
      <!-- 5 -->
      <g transform="translate(525.4 106.593696) scale(0.1 -0.1)">
       <use xlink:href="#DejaVuSans-35"/>
      </g>
     </g>
    </g>
    <g id="text_25">
     <!-- loss -->
     <g transform="translate(543.360937 227.817812) rotate(-90) scale(0.1 -0.1)">
      <defs>
       <path id="DejaVuSans-73" d="M 2834 3397 
L 2834 2853 
Q 2591 2978 2328 3040 
Q 2066 3103 1784 3103 
Q 1356 3103 1142 2972 
Q 928 2841 928 2578 
Q 928 2378 1081 2264 
Q 1234 2150 1697 2047 
L 1894 2003 
Q 2506 1872 2764 1633 
Q 3022 1394 3022 966 
Q 3022 478 2636 193 
Q 2250 -91 1575 -91 
Q 1294 -91 989 -36 
Q 684 19 347 128 
L 347 722 
Q 666 556 975 473 
Q 1284 391 1588 391 
Q 1994 391 2212 530 
Q 2431 669 2431 922 
Q 2431 1156 2273 1281 
Q 2116 1406 1581 1522 
L 1381 1569 
Q 847 1681 609 1914 
Q 372 2147 372 2553 
Q 372 3047 722 3315 
Q 1072 3584 1716 3584 
Q 2034 3584 2315 3537 
Q 2597 3491 2834 3397 
z
" transform="scale(0.015625)"/>
      </defs>
      <use xlink:href="#DejaVuSans-6c"/>
      <use xlink:href="#DejaVuSans-6f" x="27.783203"/>
      <use xlink:href="#DejaVuSans-73" x="88.964844"/>
      <use xlink:href="#DejaVuSans-73" x="141.064453"/>
     </g>
    </g>
   </g>
   <g id="line2d_25">
    <path d="M 92.290909 339.309409 
L 94.330196 186.9494 
L 96.369484 341.05179 
L 98.408771 340.45894 
L 100.448058 362.726493 
L 102.487346 364.197848 
L 104.526633 366.714444 
L 106.565921 365.553682 
L 108.605208 360.711852 
L 110.644495 365.204289 
L 112.683783 362.640345 
L 114.72307 369.36 
L 116.762357 357.865312 
L 118.801645 356.028151 
L 120.840932 361.169676 
L 122.880219 368.101927 
L 124.919507 352.711677 
L 126.958794 341.249319 
L 128.998081 341.609607 
L 131.037369 359.389969 
L 133.076656 345.171049 
L 135.115943 366.142014 
L 137.155231 365.490144 
L 139.194518 350.926219 
L 141.233805 346.747275 
L 143.273093 355.671753 
L 145.31238 366.419298 
L 147.351667 362.13066 
L 149.390955 330.655025 
L 151.430242 327.317952 
L 153.469529 353.353044 
L 155.508817 346.891659 
L 157.548104 325.278615 
L 159.587392 329.329923 
L 161.626679 360.605358 
L 163.665966 356.493268 
L 165.705254 331.206316 
L 169.783828 352.532654 
L 171.823116 349.118804 
L 173.862403 335.886784 
L 175.90169 331.949814 
L 177.940978 339.613524 
L 179.980265 352.107751 
L 182.019552 307.290568 
L 184.05884 343.386488 
L 186.098127 350.918337 
L 188.137414 341.10111 
L 190.176702 330.37355 
L 192.215989 328.811464 
L 194.255276 335.360643 
L 196.294564 323.803744 
L 198.333851 248.480503 
L 200.373138 320.898218 
L 202.412426 298.516418 
L 204.451713 308.806866 
L 206.491 299.272538 
L 208.530288 293.882057 
L 210.569575 290.497659 
L 212.608862 300.204032 
L 214.64815 248.004912 
L 216.687437 269.687284 
L 218.726725 213.518284 
L 220.766012 337.2419 
L 222.805299 254.576718 
L 224.844587 286.757615 
L 226.883874 280.596348 
L 228.923161 326.782951 
L 230.962449 282.351421 
L 233.001736 275.748798 
L 235.041023 311.21419 
L 237.080311 314.531465 
L 239.119598 282.794462 
L 241.158885 270.846334 
L 243.198173 293.484579 
L 245.23746 261.245307 
L 247.276747 279.631194 
L 249.316035 274.149922 
L 251.355322 312.183992 
L 253.394609 318.942356 
L 255.433897 220.181343 
L 257.473184 277.085573 
L 259.512471 289.405987 
L 261.551759 287.174086 
L 263.591046 220.172504 
L 265.630333 253.903861 
L 267.669621 279.733691 
L 269.708908 294.779508 
L 271.748196 226.367187 
L 273.787483 245.272393 
L 275.82677 285.464912 
L 277.866058 255.431044 
L 279.905345 233.115682 
L 281.944632 267.902278 
L 283.98392 285.314472 
L 286.023207 291.330742 
L 288.062494 192.013279 
L 290.101782 252.412089 
L 292.141069 258.012091 
L 294.180356 253.267027 
L 296.219644 252.676143 
L 298.258931 247.166763 
L 300.298218 258.392249 
L 302.337506 279.460917 
L 304.376793 154.17954 
L 306.41608 173.050232 
L 308.455368 202.372479 
L 310.494655 265.575534 
L 312.533942 192.07269 
L 314.57323 191.799913 
L 316.612517 247.450774 
L 318.651804 214.398055 
L 320.691092 166.621033 
L 322.730379 113.704003 
L 324.769667 223.251119 
L 326.808954 248.132023 
L 328.848241 153.449379 
L 330.887529 127.299679 
L 332.926816 200.810835 
L 334.966103 259.054298 
L 337.005391 123.19023 
L 339.044678 157.024349 
L 341.083965 225.837428 
L 343.123253 168.656087 
L 345.16254 161.59141 
L 347.201827 165.830817 
L 349.241115 115.24003 
L 351.280402 226.377685 
L 353.319689 206.756978 
L 355.358977 130.810813 
L 357.398264 132.582349 
L 359.437551 194.795332 
L 361.476839 164.881312 
L 363.516126 138.012407 
L 365.555413 131.461239 
L 367.594701 144.430187 
L 369.633988 158.698155 
L 371.673275 183.23512 
L 373.712563 191.113645 
L 375.75185 186.15702 
L 377.791138 193.780165 
L 379.830425 152.562671 
L 381.869712 174.324427 
L 383.909 163.018457 
L 385.948287 95.791787 
L 387.987574 141.267209 
L 390.026862 143.078699 
L 392.066149 151.182436 
L 396.144724 87.962802 
L 398.184011 109.798814 
L 400.223298 168.274582 
L 402.262586 121.352221 
L 404.301873 135.253407 
L 406.34116 132.12336 
L 408.380448 168.827118 
L 410.419735 103.869185 
L 412.459022 148.177807 
L 414.49831 111.056857 
L 416.537597 107.223134 
L 418.576884 124.500321 
L 420.616172 159.169316 
L 422.655459 129.951054 
L 424.694746 133.266822 
L 426.734034 130.63886 
L 428.773321 182.138181 
L 430.812608 147.211731 
L 432.851896 90.074166 
L 434.891183 112.817354 
L 436.930471 119.011422 
L 438.969758 126.053665 
L 441.009045 149.918344 
L 443.048333 94.141402 
L 445.08762 66.96 
L 447.126907 103.310555 
L 449.166195 149.573565 
L 451.205482 123.959185 
L 453.244769 130.832474 
L 455.284057 78.533864 
L 457.323344 106.063986 
L 459.362631 125.155896 
L 461.401919 121.492802 
L 463.441206 120.906444 
L 465.480493 125.219059 
L 467.519781 90.741458 
L 469.559068 92.621257 
L 471.598355 76.080239 
L 475.67693 140.909434 
L 477.716217 137.005068 
L 479.755505 101.589212 
L 481.794792 106.746056 
L 483.834079 80.912699 
L 485.873367 125.392098 
L 487.912654 79.087676 
L 489.951942 112.599136 
L 491.991229 117.810385 
L 494.030516 100.194072 
L 496.069804 105.619525 
L 498.109091 90.784226 
L 498.109091 90.784226 
" clip-path="url(#p74727c8678)" style="fill: none; stroke: #ff0000; stroke-width: 1.5; stroke-linecap: square"/>
   </g>
   <g id="patch_8">
    <path d="M 72 384.48 
L 72 51.84 
" style="fill: none; stroke: #000000; stroke-width: 0.8; stroke-linejoin: miter; stroke-linecap: square"/>
   </g>
   <g id="patch_9">
    <path d="M 518.4 384.48 
L 518.4 51.84 
" style="fill: none; stroke: #000000; stroke-width: 0.8; stroke-linejoin: miter; stroke-linecap: square"/>
   </g>
   <g id="patch_10">
    <path d="M 72 384.48 
L 518.4 384.48 
" style="fill: none; stroke: #000000; stroke-width: 0.8; stroke-linejoin: miter; stroke-linecap: square"/>
   </g>
   <g id="patch_11">
    <path d="M 72 51.84 
L 518.4 51.84 
" style="fill: none; stroke: #000000; stroke-width: 0.8; stroke-linejoin: miter; stroke-linecap: square"/>
   </g>
   <g id="text_26">
    <!-- The learning curve on voc/voc_fpsl_plateau_200/host/6 -->
    <g transform="translate(129.931875 45.84) scale(0.12 -0.12)">
     <defs>
      <path id="DejaVuSans-54" d="M -19 4666 
L 3928 4666 
L 3928 4134 
L 2272 4134 
L 2272 0 
L 1638 0 
L 1638 4134 
L -19 4134 
L -19 4666 
z
" transform="scale(0.015625)"/>
      <path id="DejaVuSans-67" d="M 2906 1791 
Q 2906 2416 2648 2759 
Q 2391 3103 1925 3103 
Q 1463 3103 1205 2759 
Q 947 2416 947 1791 
Q 947 1169 1205 825 
Q 1463 481 1925 481 
Q 2391 481 2648 825 
Q 2906 1169 2906 1791 
z
M 3481 434 
Q 3481 -459 3084 -895 
Q 2688 -1331 1869 -1331 
Q 1566 -1331 1297 -1286 
Q 1028 -1241 775 -1147 
L 775 -588 
Q 1028 -725 1275 -790 
Q 1522 -856 1778 -856 
Q 2344 -856 2625 -561 
Q 2906 -266 2906 331 
L 2906 616 
Q 2728 306 2450 153 
Q 2172 0 1784 0 
Q 1141 0 747 490 
Q 353 981 353 1791 
Q 353 2603 747 3093 
Q 1141 3584 1784 3584 
Q 2172 3584 2450 3431 
Q 2728 3278 2906 2969 
L 2906 3500 
L 3481 3500 
L 3481 434 
z
" transform="scale(0.015625)"/>
      <path id="DejaVuSans-75" d="M 544 1381 
L 544 3500 
L 1119 3500 
L 1119 1403 
Q 1119 906 1312 657 
Q 1506 409 1894 409 
Q 2359 409 2629 706 
Q 2900 1003 2900 1516 
L 2900 3500 
L 3475 3500 
L 3475 0 
L 2900 0 
L 2900 538 
Q 2691 219 2414 64 
Q 2138 -91 1772 -91 
Q 1169 -91 856 284 
Q 544 659 544 1381 
z
M 1991 3584 
L 1991 3584 
z
" transform="scale(0.015625)"/>
      <path id="DejaVuSans-2f" d="M 1625 4666 
L 2156 4666 
L 531 -594 
L 0 -594 
L 1625 4666 
z
" transform="scale(0.015625)"/>
      <path id="DejaVuSans-5f" d="M 3263 -1063 
L 3263 -1509 
L -63 -1509 
L -63 -1063 
L 3263 -1063 
z
" transform="scale(0.015625)"/>
      <path id="DejaVuSans-66" d="M 2375 4863 
L 2375 4384 
L 1825 4384 
Q 1516 4384 1395 4259 
Q 1275 4134 1275 3809 
L 1275 3500 
L 2222 3500 
L 2222 3053 
L 1275 3053 
L 1275 0 
L 697 0 
L 697 3053 
L 147 3053 
L 147 3500 
L 697 3500 
L 697 3744 
Q 697 4328 969 4595 
Q 1241 4863 1831 4863 
L 2375 4863 
z
" transform="scale(0.015625)"/>
     </defs>
     <use xlink:href="#DejaVuSans-54"/>
     <use xlink:href="#DejaVuSans-68" x="61.083984"/>
     <use xlink:href="#DejaVuSans-65" x="124.462891"/>
     <use xlink:href="#DejaVuSans-20" x="185.986328"/>
     <use xlink:href="#DejaVuSans-6c" x="217.773438"/>
     <use xlink:href="#DejaVuSans-65" x="245.556641"/>
     <use xlink:href="#DejaVuSans-61" x="307.080078"/>
     <use xlink:href="#DejaVuSans-72" x="368.359375"/>
     <use xlink:href="#DejaVuSans-6e" x="407.722656"/>
     <use xlink:href="#DejaVuSans-69" x="471.101562"/>
     <use xlink:href="#DejaVuSans-6e" x="498.884766"/>
     <use xlink:href="#DejaVuSans-67" x="562.263672"/>
     <use xlink:href="#DejaVuSans-20" x="625.740234"/>
     <use xlink:href="#DejaVuSans-63" x="657.527344"/>
     <use xlink:href="#DejaVuSans-75" x="712.507812"/>
     <use xlink:href="#DejaVuSans-72" x="775.886719"/>
     <use xlink:href="#DejaVuSans-76" x="817"/>
     <use xlink:href="#DejaVuSans-65" x="876.179688"/>
     <use xlink:href="#DejaVuSans-20" x="937.703125"/>
     <use xlink:href="#DejaVuSans-6f" x="969.490234"/>
     <use xlink:href="#DejaVuSans-6e" x="1030.671875"/>
     <use xlink:href="#DejaVuSans-20" x="1094.050781"/>
     <use xlink:href="#DejaVuSans-76" x="1125.837891"/>
     <use xlink:href="#DejaVuSans-6f" x="1185.017578"/>
     <use xlink:href="#DejaVuSans-63" x="1246.199219"/>
     <use xlink:href="#DejaVuSans-2f" x="1301.179688"/>
     <use xlink:href="#DejaVuSans-76" x="1334.871094"/>
     <use xlink:href="#DejaVuSans-6f" x="1394.050781"/>
     <use xlink:href="#DejaVuSans-63" x="1455.232422"/>
     <use xlink:href="#DejaVuSans-5f" x="1510.212891"/>
     <use xlink:href="#DejaVuSans-66" x="1560.212891"/>
     <use xlink:href="#DejaVuSans-70" x="1595.417969"/>
     <use xlink:href="#DejaVuSans-73" x="1658.894531"/>
     <use xlink:href="#DejaVuSans-6c" x="1710.994141"/>
     <use xlink:href="#DejaVuSans-5f" x="1738.777344"/>
     <use xlink:href="#DejaVuSans-70" x="1788.777344"/>
     <use xlink:href="#DejaVuSans-6c" x="1852.253906"/>
     <use xlink:href="#DejaVuSans-61" x="1880.037109"/>
     <use xlink:href="#DejaVuSans-74" x="1941.316406"/>
     <use xlink:href="#DejaVuSans-65" x="1980.525391"/>
     <use xlink:href="#DejaVuSans-61" x="2042.048828"/>
     <use xlink:href="#DejaVuSans-75" x="2103.328125"/>
     <use xlink:href="#DejaVuSans-5f" x="2166.707031"/>
     <use xlink:href="#DejaVuSans-32" x="2216.707031"/>
     <use xlink:href="#DejaVuSans-30" x="2280.330078"/>
     <use xlink:href="#DejaVuSans-30" x="2343.953125"/>
     <use xlink:href="#DejaVuSans-2f" x="2407.576172"/>
     <use xlink:href="#DejaVuSans-68" x="2441.267578"/>
     <use xlink:href="#DejaVuSans-6f" x="2504.646484"/>
     <use xlink:href="#DejaVuSans-73" x="2565.828125"/>
     <use xlink:href="#DejaVuSans-74" x="2617.927734"/>
     <use xlink:href="#DejaVuSans-2f" x="2657.136719"/>
     <use xlink:href="#DejaVuSans-36" x="2690.828125"/>
    </g>
   </g>
   <g id="legend_2">
    <g id="patch_12">
     <path d="M 460.084375 74.518125 
L 511.4 74.518125 
Q 513.4 74.518125 513.4 72.518125 
L 513.4 58.84 
Q 513.4 56.84 511.4 56.84 
L 460.084375 56.84 
Q 458.084375 56.84 458.084375 58.84 
L 458.084375 72.518125 
Q 458.084375 74.518125 460.084375 74.518125 
z
" style="fill: #ffffff; opacity: 0.8; stroke: #cccccc; stroke-linejoin: miter"/>
    </g>
    <g id="line2d_26">
     <path d="M 462.084375 64.938438 
L 472.084375 64.938438 
L 482.084375 64.938438 
" style="fill: none; stroke: #ff0000; stroke-width: 1.5; stroke-linecap: square"/>
    </g>
    <g id="text_27">
     <!-- loss -->
     <g transform="translate(490.084375 68.438438) scale(0.1 -0.1)">
      <use xlink:href="#DejaVuSans-6c"/>
      <use xlink:href="#DejaVuSans-6f" x="27.783203"/>
      <use xlink:href="#DejaVuSans-73" x="88.964844"/>
      <use xlink:href="#DejaVuSans-73" x="141.064453"/>
     </g>
    </g>
   </g>
  </g>
 </g>
 <defs>
  <clipPath id="p74727c8678">
   <rect x="72" y="51.84" width="446.4" height="332.64"/>
  </clipPath>
 </defs>
</svg>
