<?xml version="1.0" encoding="utf-8" standalone="no"?>
<!DOCTYPE svg PUBLIC "-//W3C//DTD SVG 1.1//EN"
  "http://www.w3.org/Graphics/SVG/1.1/DTD/svg11.dtd">
<svg xmlns:xlink="http://www.w3.org/1999/xlink" width="576pt" height="432pt" viewBox="0 0 576 432" xmlns="http://www.w3.org/2000/svg" version="1.1">
 <metadata>
  <rdf:RDF xmlns:dc="http://purl.org/dc/elements/1.1/" xmlns:cc="http://creativecommons.org/ns#" xmlns:rdf="http://www.w3.org/1999/02/22-rdf-syntax-ns#">
   <cc:Work>
    <dc:type rdf:resource="http://purl.org/dc/dcmitype/StillImage"/>
    <dc:date>2023-10-19T23:28:34.705823</dc:date>
    <dc:format>image/svg+xml</dc:format>
    <dc:creator>
     <cc:Agent>
      <dc:title>Matplotlib v3.7.1, https://matplotlib.org/</dc:title>
     </cc:Agent>
    </dc:creator>
   </cc:Work>
  </rdf:RDF>
 </metadata>
 <defs>
  <style type="text/css">*{stroke-linejoin: round; stroke-linecap: butt}</style>
 </defs>
 <g id="figure_1">
  <g id="patch_1">
   <path d="M 0 432 
L 576 432 
L 576 0 
L 0 0 
z
" style="fill: #ffffff"/>
  </g>
  <g id="axes_1">
   <g id="patch_2">
    <path d="M 72 384.48 
L 518.4 384.48 
L 518.4 51.84 
L 72 51.84 
z
" style="fill: #ffffff"/>
   </g>
   <g id="matplotlib.axis_1">
    <g id="xtick_1">
     <g id="line2d_1">
      <defs>
       <path id="mc2de1ae9ba" d="M 0 0 
L 0 3.5 
" style="stroke: #000000; stroke-width: 0.8"/>
      </defs>
      <g>
       <use xlink:href="#mc2de1ae9ba" x="92.290909" y="384.48" style="stroke: #000000; stroke-width: 0.8"/>
      </g>
     </g>
     <g id="text_1">
      <!-- 0 -->
      <g transform="translate(89.109659 399.078438) scale(0.1 -0.1)">
       <defs>
        <path id="DejaVuSans-30" d="M 2034 4250 
Q 1547 4250 1301 3770 
Q 1056 3291 1056 2328 
Q 1056 1369 1301 889 
Q 1547 409 2034 409 
Q 2525 409 2770 889 
Q 3016 1369 3016 2328 
Q 3016 3291 2770 3770 
Q 2525 4250 2034 4250 
z
M 2034 4750 
Q 2819 4750 3233 4129 
Q 3647 3509 3647 2328 
Q 3647 1150 3233 529 
Q 2819 -91 2034 -91 
Q 1250 -91 836 529 
Q 422 1150 422 2328 
Q 422 3509 836 4129 
Q 1250 4750 2034 4750 
z
" transform="scale(0.015625)"/>
       </defs>
       <use xlink:href="#DejaVuSans-30"/>
      </g>
     </g>
    </g>
    <g id="xtick_2">
     <g id="line2d_2">
      <g>
       <use xlink:href="#mc2de1ae9ba" x="143.273093" y="384.48" style="stroke: #000000; stroke-width: 0.8"/>
      </g>
     </g>
     <g id="text_2">
      <!-- 25 -->
      <g transform="translate(136.910593 399.078438) scale(0.1 -0.1)">
       <defs>
        <path id="DejaVuSans-32" d="M 1228 531 
L 3431 531 
L 3431 0 
L 469 0 
L 469 531 
Q 828 903 1448 1529 
Q 2069 2156 2228 2338 
Q 2531 2678 2651 2914 
Q 2772 3150 2772 3378 
Q 2772 3750 2511 3984 
Q 2250 4219 1831 4219 
Q 1534 4219 1204 4116 
Q 875 4013 500 3803 
L 500 4441 
Q 881 4594 1212 4672 
Q 1544 4750 1819 4750 
Q 2544 4750 2975 4387 
Q 3406 4025 3406 3419 
Q 3406 3131 3298 2873 
Q 3191 2616 2906 2266 
Q 2828 2175 2409 1742 
Q 1991 1309 1228 531 
z
" transform="scale(0.015625)"/>
        <path id="DejaVuSans-35" d="M 691 4666 
L 3169 4666 
L 3169 4134 
L 1269 4134 
L 1269 2991 
Q 1406 3038 1543 3061 
Q 1681 3084 1819 3084 
Q 2600 3084 3056 2656 
Q 3513 2228 3513 1497 
Q 3513 744 3044 326 
Q 2575 -91 1722 -91 
Q 1428 -91 1123 -41 
Q 819 9 494 109 
L 494 744 
Q 775 591 1075 516 
Q 1375 441 1709 441 
Q 2250 441 2565 725 
Q 2881 1009 2881 1497 
Q 2881 1984 2565 2268 
Q 2250 2553 1709 2553 
Q 1456 2553 1204 2497 
Q 953 2441 691 2322 
L 691 4666 
z
" transform="scale(0.015625)"/>
       </defs>
       <use xlink:href="#DejaVuSans-32"/>
       <use xlink:href="#DejaVuSans-35" x="63.623047"/>
      </g>
     </g>
    </g>
    <g id="xtick_3">
     <g id="line2d_3">
      <g>
       <use xlink:href="#mc2de1ae9ba" x="194.255276" y="384.48" style="stroke: #000000; stroke-width: 0.8"/>
      </g>
     </g>
     <g id="text_3">
      <!-- 50 -->
      <g transform="translate(187.892776 399.078438) scale(0.1 -0.1)">
       <use xlink:href="#DejaVuSans-35"/>
       <use xlink:href="#DejaVuSans-30" x="63.623047"/>
      </g>
     </g>
    </g>
    <g id="xtick_4">
     <g id="line2d_4">
      <g>
       <use xlink:href="#mc2de1ae9ba" x="245.23746" y="384.48" style="stroke: #000000; stroke-width: 0.8"/>
      </g>
     </g>
     <g id="text_4">
      <!-- 75 -->
      <g transform="translate(238.87496 399.078438) scale(0.1 -0.1)">
       <defs>
        <path id="DejaVuSans-37" d="M 525 4666 
L 3525 4666 
L 3525 4397 
L 1831 0 
L 1172 0 
L 2766 4134 
L 525 4134 
L 525 4666 
z
" transform="scale(0.015625)"/>
       </defs>
       <use xlink:href="#DejaVuSans-37"/>
       <use xlink:href="#DejaVuSans-35" x="63.623047"/>
      </g>
     </g>
    </g>
    <g id="xtick_5">
     <g id="line2d_5">
      <g>
       <use xlink:href="#mc2de1ae9ba" x="296.219644" y="384.48" style="stroke: #000000; stroke-width: 0.8"/>
      </g>
     </g>
     <g id="text_5">
      <!-- 100 -->
      <g transform="translate(286.675894 399.078438) scale(0.1 -0.1)">
       <defs>
        <path id="DejaVuSans-31" d="M 794 531 
L 1825 531 
L 1825 4091 
L 703 3866 
L 703 4441 
L 1819 4666 
L 2450 4666 
L 2450 531 
L 3481 531 
L 3481 0 
L 794 0 
L 794 531 
z
" transform="scale(0.015625)"/>
       </defs>
       <use xlink:href="#DejaVuSans-31"/>
       <use xlink:href="#DejaVuSans-30" x="63.623047"/>
       <use xlink:href="#DejaVuSans-30" x="127.246094"/>
      </g>
     </g>
    </g>
    <g id="xtick_6">
     <g id="line2d_6">
      <g>
       <use xlink:href="#mc2de1ae9ba" x="347.201827" y="384.48" style="stroke: #000000; stroke-width: 0.8"/>
      </g>
     </g>
     <g id="text_6">
      <!-- 125 -->
      <g transform="translate(337.658077 399.078438) scale(0.1 -0.1)">
       <use xlink:href="#DejaVuSans-31"/>
       <use xlink:href="#DejaVuSans-32" x="63.623047"/>
       <use xlink:href="#DejaVuSans-35" x="127.246094"/>
      </g>
     </g>
    </g>
    <g id="xtick_7">
     <g id="line2d_7">
      <g>
       <use xlink:href="#mc2de1ae9ba" x="398.184011" y="384.48" style="stroke: #000000; stroke-width: 0.8"/>
      </g>
     </g>
     <g id="text_7">
      <!-- 150 -->
      <g transform="translate(388.640261 399.078438) scale(0.1 -0.1)">
       <use xlink:href="#DejaVuSans-31"/>
       <use xlink:href="#DejaVuSans-35" x="63.623047"/>
       <use xlink:href="#DejaVuSans-30" x="127.246094"/>
      </g>
     </g>
    </g>
    <g id="xtick_8">
     <g id="line2d_8">
      <g>
       <use xlink:href="#mc2de1ae9ba" x="449.166195" y="384.48" style="stroke: #000000; stroke-width: 0.8"/>
      </g>
     </g>
     <g id="text_8">
      <!-- 175 -->
      <g transform="translate(439.622445 399.078438) scale(0.1 -0.1)">
       <use xlink:href="#DejaVuSans-31"/>
       <use xlink:href="#DejaVuSans-37" x="63.623047"/>
       <use xlink:href="#DejaVuSans-35" x="127.246094"/>
      </g>
     </g>
    </g>
    <g id="xtick_9">
     <g id="line2d_9">
      <g>
       <use xlink:href="#mc2de1ae9ba" x="500.148378" y="384.48" style="stroke: #000000; stroke-width: 0.8"/>
      </g>
     </g>
     <g id="text_9">
      <!-- 200 -->
      <g transform="translate(490.604628 399.078438) scale(0.1 -0.1)">
       <use xlink:href="#DejaVuSans-32"/>
       <use xlink:href="#DejaVuSans-30" x="63.623047"/>
       <use xlink:href="#DejaVuSans-30" x="127.246094"/>
      </g>
     </g>
    </g>
    <g id="text_10">
     <!-- epoch -->
     <g transform="translate(279.971875 412.756563) scale(0.1 -0.1)">
      <defs>
       <path id="DejaVuSans-65" d="M 3597 1894 
L 3597 1613 
L 953 1613 
Q 991 1019 1311 708 
Q 1631 397 2203 397 
Q 2534 397 2845 478 
Q 3156 559 3463 722 
L 3463 178 
Q 3153 47 2828 -22 
Q 2503 -91 2169 -91 
Q 1331 -91 842 396 
Q 353 884 353 1716 
Q 353 2575 817 3079 
Q 1281 3584 2069 3584 
Q 2775 3584 3186 3129 
Q 3597 2675 3597 1894 
z
M 3022 2063 
Q 3016 2534 2758 2815 
Q 2500 3097 2075 3097 
Q 1594 3097 1305 2825 
Q 1016 2553 972 2059 
L 3022 2063 
z
" transform="scale(0.015625)"/>
       <path id="DejaVuSans-70" d="M 1159 525 
L 1159 -1331 
L 581 -1331 
L 581 3500 
L 1159 3500 
L 1159 2969 
Q 1341 3281 1617 3432 
Q 1894 3584 2278 3584 
Q 2916 3584 3314 3078 
Q 3713 2572 3713 1747 
Q 3713 922 3314 415 
Q 2916 -91 2278 -91 
Q 1894 -91 1617 61 
Q 1341 213 1159 525 
z
M 3116 1747 
Q 3116 2381 2855 2742 
Q 2594 3103 2138 3103 
Q 1681 3103 1420 2742 
Q 1159 2381 1159 1747 
Q 1159 1113 1420 752 
Q 1681 391 2138 391 
Q 2594 391 2855 752 
Q 3116 1113 3116 1747 
z
" transform="scale(0.015625)"/>
       <path id="DejaVuSans-6f" d="M 1959 3097 
Q 1497 3097 1228 2736 
Q 959 2375 959 1747 
Q 959 1119 1226 758 
Q 1494 397 1959 397 
Q 2419 397 2687 759 
Q 2956 1122 2956 1747 
Q 2956 2369 2687 2733 
Q 2419 3097 1959 3097 
z
M 1959 3584 
Q 2709 3584 3137 3096 
Q 3566 2609 3566 1747 
Q 3566 888 3137 398 
Q 2709 -91 1959 -91 
Q 1206 -91 779 398 
Q 353 888 353 1747 
Q 353 2609 779 3096 
Q 1206 3584 1959 3584 
z
" transform="scale(0.015625)"/>
       <path id="DejaVuSans-63" d="M 3122 3366 
L 3122 2828 
Q 2878 2963 2633 3030 
Q 2388 3097 2138 3097 
Q 1578 3097 1268 2742 
Q 959 2388 959 1747 
Q 959 1106 1268 751 
Q 1578 397 2138 397 
Q 2388 397 2633 464 
Q 2878 531 3122 666 
L 3122 134 
Q 2881 22 2623 -34 
Q 2366 -91 2075 -91 
Q 1284 -91 818 406 
Q 353 903 353 1747 
Q 353 2603 823 3093 
Q 1294 3584 2113 3584 
Q 2378 3584 2631 3529 
Q 2884 3475 3122 3366 
z
" transform="scale(0.015625)"/>
       <path id="DejaVuSans-68" d="M 3513 2113 
L 3513 0 
L 2938 0 
L 2938 2094 
Q 2938 2591 2744 2837 
Q 2550 3084 2163 3084 
Q 1697 3084 1428 2787 
Q 1159 2491 1159 1978 
L 1159 0 
L 581 0 
L 581 4863 
L 1159 4863 
L 1159 2956 
Q 1366 3272 1645 3428 
Q 1925 3584 2291 3584 
Q 2894 3584 3203 3211 
Q 3513 2838 3513 2113 
z
" transform="scale(0.015625)"/>
      </defs>
      <use xlink:href="#DejaVuSans-65"/>
      <use xlink:href="#DejaVuSans-70" x="61.523438"/>
      <use xlink:href="#DejaVuSans-6f" x="125"/>
      <use xlink:href="#DejaVuSans-63" x="186.181641"/>
      <use xlink:href="#DejaVuSans-68" x="241.162109"/>
     </g>
    </g>
   </g>
   <g id="matplotlib.axis_2">
    <g id="ytick_1">
     <g id="line2d_10">
      <defs>
       <path id="m7a4d51eee3" d="M 0 0 
L -3.5 0 
" style="stroke: #000000; stroke-width: 0.8"/>
      </defs>
      <g>
       <use xlink:href="#m7a4d51eee3" x="72" y="384.48" style="stroke: #000000; stroke-width: 0.8"/>
      </g>
     </g>
     <g id="text_11">
      <!-- 0 -->
      <g transform="translate(58.6375 388.279219) scale(0.1 -0.1)">
       <use xlink:href="#DejaVuSans-30"/>
      </g>
     </g>
    </g>
    <g id="ytick_2">
     <g id="line2d_11">
      <g>
       <use xlink:href="#m7a4d51eee3" x="72" y="317.952" style="stroke: #000000; stroke-width: 0.8"/>
      </g>
     </g>
     <g id="text_12">
      <!-- 20 -->
      <g transform="translate(52.275 321.751219) scale(0.1 -0.1)">
       <use xlink:href="#DejaVuSans-32"/>
       <use xlink:href="#DejaVuSans-30" x="63.623047"/>
      </g>
     </g>
    </g>
    <g id="ytick_3">
     <g id="line2d_12">
      <g>
       <use xlink:href="#m7a4d51eee3" x="72" y="251.424" style="stroke: #000000; stroke-width: 0.8"/>
      </g>
     </g>
     <g id="text_13">
      <!-- 40 -->
      <g transform="translate(52.275 255.223219) scale(0.1 -0.1)">
       <defs>
        <path id="DejaVuSans-34" d="M 2419 4116 
L 825 1625 
L 2419 1625 
L 2419 4116 
z
M 2253 4666 
L 3047 4666 
L 3047 1625 
L 3713 1625 
L 3713 1100 
L 3047 1100 
L 3047 0 
L 2419 0 
L 2419 1100 
L 313 1100 
L 313 1709 
L 2253 4666 
z
" transform="scale(0.015625)"/>
       </defs>
       <use xlink:href="#DejaVuSans-34"/>
       <use xlink:href="#DejaVuSans-30" x="63.623047"/>
      </g>
     </g>
    </g>
    <g id="ytick_4">
     <g id="line2d_13">
      <g>
       <use xlink:href="#m7a4d51eee3" x="72" y="184.896" style="stroke: #000000; stroke-width: 0.8"/>
      </g>
     </g>
     <g id="text_14">
      <!-- 60 -->
      <g transform="translate(52.275 188.695219) scale(0.1 -0.1)">
       <defs>
        <path id="DejaVuSans-36" d="M 2113 2584 
Q 1688 2584 1439 2293 
Q 1191 2003 1191 1497 
Q 1191 994 1439 701 
Q 1688 409 2113 409 
Q 2538 409 2786 701 
Q 3034 994 3034 1497 
Q 3034 2003 2786 2293 
Q 2538 2584 2113 2584 
z
M 3366 4563 
L 3366 3988 
Q 3128 4100 2886 4159 
Q 2644 4219 2406 4219 
Q 1781 4219 1451 3797 
Q 1122 3375 1075 2522 
Q 1259 2794 1537 2939 
Q 1816 3084 2150 3084 
Q 2853 3084 3261 2657 
Q 3669 2231 3669 1497 
Q 3669 778 3244 343 
Q 2819 -91 2113 -91 
Q 1303 -91 875 529 
Q 447 1150 447 2328 
Q 447 3434 972 4092 
Q 1497 4750 2381 4750 
Q 2619 4750 2861 4703 
Q 3103 4656 3366 4563 
z
" transform="scale(0.015625)"/>
       </defs>
       <use xlink:href="#DejaVuSans-36"/>
       <use xlink:href="#DejaVuSans-30" x="63.623047"/>
      </g>
     </g>
    </g>
    <g id="ytick_5">
     <g id="line2d_14">
      <g>
       <use xlink:href="#m7a4d51eee3" x="72" y="118.368" style="stroke: #000000; stroke-width: 0.8"/>
      </g>
     </g>
     <g id="text_15">
      <!-- 80 -->
      <g transform="translate(52.275 122.167219) scale(0.1 -0.1)">
       <defs>
        <path id="DejaVuSans-38" d="M 2034 2216 
Q 1584 2216 1326 1975 
Q 1069 1734 1069 1313 
Q 1069 891 1326 650 
Q 1584 409 2034 409 
Q 2484 409 2743 651 
Q 3003 894 3003 1313 
Q 3003 1734 2745 1975 
Q 2488 2216 2034 2216 
z
M 1403 2484 
Q 997 2584 770 2862 
Q 544 3141 544 3541 
Q 544 4100 942 4425 
Q 1341 4750 2034 4750 
Q 2731 4750 3128 4425 
Q 3525 4100 3525 3541 
Q 3525 3141 3298 2862 
Q 3072 2584 2669 2484 
Q 3125 2378 3379 2068 
Q 3634 1759 3634 1313 
Q 3634 634 3220 271 
Q 2806 -91 2034 -91 
Q 1263 -91 848 271 
Q 434 634 434 1313 
Q 434 1759 690 2068 
Q 947 2378 1403 2484 
z
M 1172 3481 
Q 1172 3119 1398 2916 
Q 1625 2713 2034 2713 
Q 2441 2713 2670 2916 
Q 2900 3119 2900 3481 
Q 2900 3844 2670 4047 
Q 2441 4250 2034 4250 
Q 1625 4250 1398 4047 
Q 1172 3844 1172 3481 
z
" transform="scale(0.015625)"/>
       </defs>
       <use xlink:href="#DejaVuSans-38"/>
       <use xlink:href="#DejaVuSans-30" x="63.623047"/>
      </g>
     </g>
    </g>
    <g id="ytick_6">
     <g id="line2d_15">
      <g>
       <use xlink:href="#m7a4d51eee3" x="72" y="51.84" style="stroke: #000000; stroke-width: 0.8"/>
      </g>
     </g>
     <g id="text_16">
      <!-- 100 -->
      <g transform="translate(45.9125 55.639219) scale(0.1 -0.1)">
       <use xlink:href="#DejaVuSans-31"/>
       <use xlink:href="#DejaVuSans-30" x="63.623047"/>
       <use xlink:href="#DejaVuSans-30" x="127.246094"/>
      </g>
     </g>
    </g>
    <g id="text_17">
     <!-- rate -->
     <g transform="translate(39.832812 228.31625) rotate(-90) scale(0.1 -0.1)">
      <defs>
       <path id="DejaVuSans-72" d="M 2631 2963 
Q 2534 3019 2420 3045 
Q 2306 3072 2169 3072 
Q 1681 3072 1420 2755 
Q 1159 2438 1159 1844 
L 1159 0 
L 581 0 
L 581 3500 
L 1159 3500 
L 1159 2956 
Q 1341 3275 1631 3429 
Q 1922 3584 2338 3584 
Q 2397 3584 2469 3576 
Q 2541 3569 2628 3553 
L 2631 2963 
z
" transform="scale(0.015625)"/>
       <path id="DejaVuSans-61" d="M 2194 1759 
Q 1497 1759 1228 1600 
Q 959 1441 959 1056 
Q 959 750 1161 570 
Q 1363 391 1709 391 
Q 2188 391 2477 730 
Q 2766 1069 2766 1631 
L 2766 1759 
L 2194 1759 
z
M 3341 1997 
L 3341 0 
L 2766 0 
L 2766 531 
Q 2569 213 2275 61 
Q 1981 -91 1556 -91 
Q 1019 -91 701 211 
Q 384 513 384 1019 
Q 384 1609 779 1909 
Q 1175 2209 1959 2209 
L 2766 2209 
L 2766 2266 
Q 2766 2663 2505 2880 
Q 2244 3097 1772 3097 
Q 1472 3097 1187 3025 
Q 903 2953 641 2809 
L 641 3341 
Q 956 3463 1253 3523 
Q 1550 3584 1831 3584 
Q 2591 3584 2966 3190 
Q 3341 2797 3341 1997 
z
" transform="scale(0.015625)"/>
       <path id="DejaVuSans-74" d="M 1172 4494 
L 1172 3500 
L 2356 3500 
L 2356 3053 
L 1172 3053 
L 1172 1153 
Q 1172 725 1289 603 
Q 1406 481 1766 481 
L 2356 481 
L 2356 0 
L 1766 0 
Q 1100 0 847 248 
Q 594 497 594 1153 
L 594 3053 
L 172 3053 
L 172 3500 
L 594 3500 
L 594 4494 
L 1172 4494 
z
" transform="scale(0.015625)"/>
      </defs>
      <use xlink:href="#DejaVuSans-72"/>
      <use xlink:href="#DejaVuSans-61" x="41.113281"/>
      <use xlink:href="#DejaVuSans-74" x="102.392578"/>
      <use xlink:href="#DejaVuSans-65" x="141.601562"/>
     </g>
    </g>
   </g>
   <g id="line2d_16">
    <path d="M 92.290909 107.612626 
L 94.330196 69.580783 
L 96.369484 57.383966 
L 98.408771 60.045122 
L 100.448058 83.773435 
L 102.487346 89.760965 
L 104.526633 76.399913 
L 106.565921 54.057592 
L 108.605208 76.45539 
L 110.644495 64.480305 
L 112.683783 68.250269 
L 114.72307 76.677096 
L 116.762357 72.685452 
L 118.801645 74.237774 
L 120.840932 73.128965 
L 122.880219 74.62581 
L 124.919507 78.229469 
L 126.958794 62.262713 
L 128.998081 58.936313 
L 131.037369 59.601608 
L 133.076656 70.46786 
L 135.115943 67.141435 
L 137.155231 68.250269 
L 139.194518 78.229443 
L 141.233805 79.338252 
L 143.273093 74.903043 
L 145.31238 66.697922 
L 147.351667 54.057592 
L 149.390955 66.697922 
L 151.430242 58.4928 
L 153.469529 67.141435 
L 155.508817 54.057592 
L 157.548104 67.141435 
L 159.587392 63.815035 
L 161.626679 60.045122 
L 163.665966 58.936313 
L 165.705254 80.835096 
L 167.744541 84.882218 
L 169.783828 66.697922 
L 171.823116 59.601608 
L 173.862403 74.237774 
L 175.90169 74.903043 
L 177.940978 63.815035 
L 179.980265 62.262713 
L 182.019552 69.359026 
L 184.05884 59.601608 
L 186.098127 78.894713 
L 188.137414 58.936313 
L 190.176702 72.685452 
L 192.215989 71.576643 
L 194.255276 61.597418 
L 196.294564 54.057592 
L 198.333851 66.697922 
L 200.373138 69.359026 
L 202.412426 73.350696 
L 204.451713 71.576643 
L 206.491 74.903043 
L 208.530288 61.15393 
L 210.569575 62.262713 
L 212.608862 79.338252 
L 214.64815 65.589139 
L 216.687437 68.915513 
L 218.726725 95.304931 
L 220.766012 51.84 
L 222.805299 79.338252 
L 224.844587 56.718722 
L 226.883874 69.802565 
L 228.923161 51.84 
L 230.962449 62.262713 
L 233.001736 56.718722 
L 235.041023 51.84 
L 237.080311 67.141435 
L 239.119598 91.701348 
L 241.158885 62.262713 
L 243.198173 64.480305 
L 245.23746 91.978557 
L 247.276747 68.250269 
L 249.316035 67.141435 
L 251.355322 68.915513 
L 253.394609 51.84 
L 255.433897 93.75266 
L 257.473184 78.229443 
L 259.512471 85.991052 
L 261.551759 54.057592 
L 263.591046 78.229469 
L 265.630333 67.141435 
L 267.669621 58.936313 
L 269.708908 67.806705 
L 271.748196 72.685452 
L 273.787483 78.229443 
L 275.82677 56.275183 
L 277.866058 70.024322 
L 279.905345 80.890574 
L 281.944632 60.045122 
L 283.98392 67.141435 
L 286.023207 78.229443 
L 288.062494 84.216948 
L 290.101782 68.250269 
L 292.141069 60.045122 
L 294.180356 56.275183 
L 296.219644 62.262713 
L 298.258931 61.597418 
L 300.298218 84.216948 
L 302.337506 69.802565 
L 304.376793 73.350696 
L 306.41608 64.480305 
L 308.455368 61.15393 
L 310.494655 58.936313 
L 312.533942 67.806705 
L 314.57323 71.576643 
L 316.612517 62.262713 
L 318.651804 72.685452 
L 320.691092 92.643826 
L 322.730379 69.359026 
L 324.769667 73.350696 
L 326.808954 67.141435 
L 328.848241 72.241939 
L 330.887529 66.697922 
L 332.926816 59.601608 
L 334.966103 58.936313 
L 337.005391 95.304931 
L 339.044678 54.057592 
L 341.083965 62.262713 
L 343.123253 74.45953 
L 345.16254 71.576643 
L 347.201827 64.923843 
L 349.241115 67.141435 
L 351.280402 54.057592 
L 353.319689 72.241939 
L 355.358977 68.915513 
L 357.398264 69.359026 
L 359.437551 71.576643 
L 361.476839 71.576643 
L 363.516126 58.936313 
L 365.555413 75.568313 
L 367.594701 69.359026 
L 369.633988 91.535018 
L 371.673275 71.576643 
L 373.712563 56.718722 
L 375.75185 72.685452 
L 377.791138 73.350696 
L 379.830425 74.903018 
L 381.869712 58.936313 
L 383.909 73.350696 
L 385.948287 62.262713 
L 387.987574 74.45953 
L 390.026862 80.169826 
L 392.066149 62.262713 
L 394.105436 51.84 
L 396.144724 64.923843 
L 398.184011 81.555843 
L 400.223298 58.936313 
L 402.262586 69.802565 
L 404.301873 68.250218 
L 406.34116 76.011826 
L 408.380448 63.371522 
L 410.419735 64.923843 
L 412.459022 71.576643 
L 414.49831 67.141435 
L 416.537597 58.4928 
L 418.576884 56.718722 
L 420.616172 65.589139 
L 422.655459 72.685452 
L 424.694746 55.166425 
L 426.734034 64.923843 
L 428.773321 63.815035 
L 430.812608 79.338252 
L 432.851896 64.923843 
L 434.891183 61.819175 
L 436.930471 67.141435 
L 438.969758 62.262713 
L 441.009045 81.555843 
L 443.048333 78.229443 
L 445.08762 64.923843 
L 447.126907 91.978557 
L 449.166195 72.241939 
L 451.205482 71.576643 
L 453.244769 79.338252 
L 455.284057 73.350696 
L 457.323344 69.359026 
L 459.362631 64.923843 
L 461.401919 75.568313 
L 463.441206 68.250269 
L 465.480493 87.543374 
L 469.559068 58.936313 
L 471.598355 61.597418 
L 473.637643 80.890574 
L 475.67693 62.262713 
L 477.716217 65.589139 
L 479.755505 73.794235 
L 481.794792 74.903043 
L 483.834079 72.685426 
L 485.873367 59.601608 
L 487.912654 77.12066 
L 489.951942 66.47614 
L 491.991229 66.697922 
L 494.030516 56.718722 
L 496.069804 78.229443 
L 498.109091 84.216948 
L 498.109091 84.216948 
" clip-path="url(#p15751f309f)" style="fill: none; stroke: #0000ff; stroke-width: 1.5; stroke-linecap: square"/>
   </g>
   <g id="line2d_17">
    <path d="M 92.290909 61.080028 
L 94.330196 98.040014 
L 96.369484 61.080028 
L 98.408771 102.660028 
L 100.448058 121.139983 
L 102.487346 74.94002 
L 104.526633 79.559983 
L 106.565921 102.660028 
L 108.605208 84.180023 
L 110.644495 74.94002 
L 112.683783 74.94002 
L 114.72307 111.900006 
L 116.762357 98.040014 
L 118.801645 74.94002 
L 120.840932 74.94002 
L 122.880219 111.900006 
L 124.919507 74.94002 
L 131.037369 74.94002 
L 133.076656 61.080028 
L 135.115943 98.040014 
L 137.155231 61.080028 
L 139.194518 74.94002 
L 141.233805 74.94002 
L 143.273093 84.180023 
L 145.31238 84.180023 
L 147.351667 74.94002 
L 149.390955 84.180023 
L 151.430242 102.660028 
L 153.469529 74.94002 
L 157.548104 74.94002 
L 159.587392 84.180023 
L 161.626679 84.180023 
L 163.665966 74.94002 
L 165.705254 61.080028 
L 167.744541 61.080028 
L 169.783828 74.94002 
L 171.823116 70.320006 
L 173.862403 74.94002 
L 175.90169 61.080028 
L 177.940978 74.94002 
L 184.05884 74.94002 
L 186.098127 102.660028 
L 188.137414 74.94002 
L 196.294564 74.94002 
L 198.333851 102.660028 
L 200.373138 74.94002 
L 204.451713 74.94002 
L 206.491 61.080028 
L 208.530288 61.080028 
L 210.569575 70.320006 
L 212.608862 61.080028 
L 214.64815 61.080028 
L 216.687437 111.900006 
L 218.726725 84.180023 
L 220.766012 74.94002 
L 222.805299 61.080028 
L 224.844587 121.139983 
L 226.883874 61.080028 
L 228.923161 61.080028 
L 230.962449 74.94002 
L 237.080311 74.94002 
L 239.119598 61.080028 
L 241.158885 111.900006 
L 243.198173 61.080028 
L 247.276747 61.080028 
L 249.316035 84.180023 
L 251.355322 61.080028 
L 253.394609 61.080028 
L 255.433897 74.94002 
L 257.473184 84.180023 
L 259.512471 84.180023 
L 261.551759 102.660028 
L 263.591046 88.800011 
L 265.630333 61.080028 
L 267.669621 74.94002 
L 269.708908 61.080028 
L 271.748196 61.080028 
L 273.787483 111.900006 
L 275.82677 61.080028 
L 277.866058 84.180023 
L 279.905345 51.84 
L 281.944632 74.94002 
L 283.98392 61.080028 
L 286.023207 74.94002 
L 288.062494 61.080028 
L 294.180356 61.080028 
L 296.219644 84.180023 
L 298.258931 70.320006 
L 300.298218 70.320006 
L 302.337506 74.94002 
L 304.376793 61.080028 
L 306.41608 74.94002 
L 308.455368 61.080028 
L 310.494655 84.180023 
L 312.533942 61.080028 
L 314.57323 61.080028 
L 316.612517 74.94002 
L 320.691092 74.94002 
L 322.730379 84.180023 
L 324.769667 61.080028 
L 328.848241 88.800011 
L 330.887529 61.080028 
L 332.926816 70.320006 
L 334.966103 84.180023 
L 337.005391 61.080028 
L 339.044678 107.280017 
L 343.123253 61.080028 
L 345.16254 61.080028 
L 347.201827 88.800011 
L 349.241115 111.900006 
L 351.280402 74.94002 
L 353.319689 70.320006 
L 355.358977 51.84 
L 357.398264 70.320006 
L 359.437551 61.080028 
L 361.476839 61.080028 
L 363.516126 74.94002 
L 365.555413 61.080028 
L 367.594701 61.080028 
L 369.633988 74.94002 
L 371.673275 74.94002 
L 373.712563 102.660028 
L 375.75185 84.180023 
L 377.791138 74.94002 
L 379.830425 61.080028 
L 383.909 88.800011 
L 387.987574 61.080028 
L 390.026862 70.320006 
L 392.066149 102.660028 
L 394.105436 61.080028 
L 396.144724 61.080028 
L 398.184011 74.94002 
L 400.223298 74.94002 
L 402.262586 61.080028 
L 404.301873 74.94002 
L 406.34116 61.080028 
L 408.380448 84.180023 
L 410.419735 84.180023 
L 412.459022 74.94002 
L 420.616172 74.94002 
L 422.655459 61.080028 
L 424.694746 70.320006 
L 426.734034 74.94002 
L 428.773321 61.080028 
L 430.812608 74.94002 
L 432.851896 61.080028 
L 434.891183 111.900006 
L 436.930471 84.180023 
L 438.969758 84.180023 
L 441.009045 61.080028 
L 443.048333 74.94002 
L 445.08762 74.94002 
L 447.126907 61.080028 
L 449.166195 102.660028 
L 451.205482 74.94002 
L 453.244769 61.080028 
L 455.284057 74.94002 
L 457.323344 61.080028 
L 459.362631 74.94002 
L 461.401919 61.080028 
L 463.441206 102.660028 
L 465.480493 84.180023 
L 467.519781 61.080028 
L 469.559068 74.94002 
L 471.598355 61.080028 
L 473.637643 70.320006 
L 475.67693 74.94002 
L 477.716217 102.660028 
L 479.755505 74.94002 
L 481.794792 74.94002 
L 483.834079 61.080028 
L 485.873367 61.080028 
L 487.912654 74.94002 
L 489.951942 70.320006 
L 491.991229 74.94002 
L 494.030516 61.080028 
L 496.069804 70.320006 
L 498.109091 70.320006 
L 498.109091 70.320006 
" clip-path="url(#p15751f309f)" style="fill: none; stroke: #008000; stroke-width: 1.5; stroke-linecap: square"/>
   </g>
   <g id="patch_3">
    <path d="M 72 384.48 
L 72 51.84 
" style="fill: none; stroke: #000000; stroke-width: 0.8; stroke-linejoin: miter; stroke-linecap: square"/>
   </g>
   <g id="patch_4">
    <path d="M 518.4 384.48 
L 518.4 51.84 
" style="fill: none; stroke: #000000; stroke-width: 0.8; stroke-linejoin: miter; stroke-linecap: square"/>
   </g>
   <g id="patch_5">
    <path d="M 72 384.48 
L 518.4 384.48 
" style="fill: none; stroke: #000000; stroke-width: 0.8; stroke-linejoin: miter; stroke-linecap: square"/>
   </g>
   <g id="patch_6">
    <path d="M 72 51.84 
L 518.4 51.84 
" style="fill: none; stroke: #000000; stroke-width: 0.8; stroke-linejoin: miter; stroke-linecap: square"/>
   </g>
   <g id="legend_1">
    <g id="patch_7">
     <path d="M 79 89.19625 
L 160.740625 89.19625 
Q 162.740625 89.19625 162.740625 87.19625 
L 162.740625 58.84 
Q 162.740625 56.84 160.740625 56.84 
L 79 56.84 
Q 77 56.84 77 58.84 
L 77 87.19625 
Q 77 89.19625 79 89.19625 
z
" style="fill: #ffffff; opacity: 0.8; stroke: #cccccc; stroke-linejoin: miter"/>
    </g>
    <g id="line2d_18">
     <path d="M 81 64.938437 
L 91 64.938437 
L 101 64.938437 
" style="fill: none; stroke: #0000ff; stroke-width: 1.5; stroke-linecap: square"/>
    </g>
    <g id="text_18">
     <!-- train mAP -->
     <g transform="translate(109 68.438437) scale(0.1 -0.1)">
      <defs>
       <path id="DejaVuSans-69" d="M 603 3500 
L 1178 3500 
L 1178 0 
L 603 0 
L 603 3500 
z
M 603 4863 
L 1178 4863 
L 1178 4134 
L 603 4134 
L 603 4863 
z
" transform="scale(0.015625)"/>
       <path id="DejaVuSans-6e" d="M 3513 2113 
L 3513 0 
L 2938 0 
L 2938 2094 
Q 2938 2591 2744 2837 
Q 2550 3084 2163 3084 
Q 1697 3084 1428 2787 
Q 1159 2491 1159 1978 
L 1159 0 
L 581 0 
L 581 3500 
L 1159 3500 
L 1159 2956 
Q 1366 3272 1645 3428 
Q 1925 3584 2291 3584 
Q 2894 3584 3203 3211 
Q 3513 2838 3513 2113 
z
" transform="scale(0.015625)"/>
       <path id="DejaVuSans-20" transform="scale(0.015625)"/>
       <path id="DejaVuSans-6d" d="M 3328 2828 
Q 3544 3216 3844 3400 
Q 4144 3584 4550 3584 
Q 5097 3584 5394 3201 
Q 5691 2819 5691 2113 
L 5691 0 
L 5113 0 
L 5113 2094 
Q 5113 2597 4934 2840 
Q 4756 3084 4391 3084 
Q 3944 3084 3684 2787 
Q 3425 2491 3425 1978 
L 3425 0 
L 2847 0 
L 2847 2094 
Q 2847 2600 2669 2842 
Q 2491 3084 2119 3084 
Q 1678 3084 1418 2786 
Q 1159 2488 1159 1978 
L 1159 0 
L 581 0 
L 581 3500 
L 1159 3500 
L 1159 2956 
Q 1356 3278 1631 3431 
Q 1906 3584 2284 3584 
Q 2666 3584 2933 3390 
Q 3200 3197 3328 2828 
z
" transform="scale(0.015625)"/>
       <path id="DejaVuSans-41" d="M 2188 4044 
L 1331 1722 
L 3047 1722 
L 2188 4044 
z
M 1831 4666 
L 2547 4666 
L 4325 0 
L 3669 0 
L 3244 1197 
L 1141 1197 
L 716 0 
L 50 0 
L 1831 4666 
z
" transform="scale(0.015625)"/>
       <path id="DejaVuSans-50" d="M 1259 4147 
L 1259 2394 
L 2053 2394 
Q 2494 2394 2734 2622 
Q 2975 2850 2975 3272 
Q 2975 3691 2734 3919 
Q 2494 4147 2053 4147 
L 1259 4147 
z
M 628 4666 
L 2053 4666 
Q 2838 4666 3239 4311 
Q 3641 3956 3641 3272 
Q 3641 2581 3239 2228 
Q 2838 1875 2053 1875 
L 1259 1875 
L 1259 0 
L 628 0 
L 628 4666 
z
" transform="scale(0.015625)"/>
      </defs>
      <use xlink:href="#DejaVuSans-74"/>
      <use xlink:href="#DejaVuSans-72" x="39.208984"/>
      <use xlink:href="#DejaVuSans-61" x="80.322266"/>
      <use xlink:href="#DejaVuSans-69" x="141.601562"/>
      <use xlink:href="#DejaVuSans-6e" x="169.384766"/>
      <use xlink:href="#DejaVuSans-20" x="232.763672"/>
      <use xlink:href="#DejaVuSans-6d" x="264.550781"/>
      <use xlink:href="#DejaVuSans-41" x="361.962891"/>
      <use xlink:href="#DejaVuSans-50" x="430.371094"/>
     </g>
    </g>
    <g id="line2d_19">
     <path d="M 81 79.616562 
L 91 79.616562 
L 101 79.616562 
" style="fill: none; stroke: #008000; stroke-width: 1.5; stroke-linecap: square"/>
    </g>
    <g id="text_19">
     <!-- valid mAP -->
     <g transform="translate(109 83.116562) scale(0.1 -0.1)">
      <defs>
       <path id="DejaVuSans-76" d="M 191 3500 
L 800 3500 
L 1894 563 
L 2988 3500 
L 3597 3500 
L 2284 0 
L 1503 0 
L 191 3500 
z
" transform="scale(0.015625)"/>
       <path id="DejaVuSans-6c" d="M 603 4863 
L 1178 4863 
L 1178 0 
L 603 0 
L 603 4863 
z
" transform="scale(0.015625)"/>
       <path id="DejaVuSans-64" d="M 2906 2969 
L 2906 4863 
L 3481 4863 
L 3481 0 
L 2906 0 
L 2906 525 
Q 2725 213 2448 61 
Q 2172 -91 1784 -91 
Q 1150 -91 751 415 
Q 353 922 353 1747 
Q 353 2572 751 3078 
Q 1150 3584 1784 3584 
Q 2172 3584 2448 3432 
Q 2725 3281 2906 2969 
z
M 947 1747 
Q 947 1113 1208 752 
Q 1469 391 1925 391 
Q 2381 391 2643 752 
Q 2906 1113 2906 1747 
Q 2906 2381 2643 2742 
Q 2381 3103 1925 3103 
Q 1469 3103 1208 2742 
Q 947 2381 947 1747 
z
" transform="scale(0.015625)"/>
      </defs>
      <use xlink:href="#DejaVuSans-76"/>
      <use xlink:href="#DejaVuSans-61" x="59.179688"/>
      <use xlink:href="#DejaVuSans-6c" x="120.458984"/>
      <use xlink:href="#DejaVuSans-69" x="148.242188"/>
      <use xlink:href="#DejaVuSans-64" x="176.025391"/>
      <use xlink:href="#DejaVuSans-20" x="239.501953"/>
      <use xlink:href="#DejaVuSans-6d" x="271.289062"/>
      <use xlink:href="#DejaVuSans-41" x="368.701172"/>
      <use xlink:href="#DejaVuSans-50" x="437.109375"/>
     </g>
    </g>
   </g>
  </g>
  <g id="axes_2">
   <g id="matplotlib.axis_3">
    <g id="ytick_7">
     <g id="line2d_20">
      <defs>
       <path id="m222baa17ef" d="M 0 0 
L 3.5 0 
" style="stroke: #000000; stroke-width: 0.8"/>
      </defs>
      <g>
       <use xlink:href="#m222baa17ef" x="518.4" y="375.92835" style="stroke: #000000; stroke-width: 0.8"/>
      </g>
     </g>
     <g id="text_20">
      <!-- 1 -->
      <g transform="translate(525.4 379.727569) scale(0.1 -0.1)">
       <use xlink:href="#DejaVuSans-31"/>
      </g>
     </g>
    </g>
    <g id="ytick_8">
     <g id="line2d_21">
      <g>
       <use xlink:href="#m222baa17ef" x="518.4" y="338.370419" style="stroke: #000000; stroke-width: 0.8"/>
      </g>
     </g>
     <g id="text_21">
      <!-- 2 -->
      <g transform="translate(525.4 342.169638) scale(0.1 -0.1)">
       <use xlink:href="#DejaVuSans-32"/>
      </g>
     </g>
    </g>
    <g id="ytick_9">
     <g id="line2d_22">
      <g>
       <use xlink:href="#m222baa17ef" x="518.4" y="300.812488" style="stroke: #000000; stroke-width: 0.8"/>
      </g>
     </g>
     <g id="text_22">
      <!-- 3 -->
      <g transform="translate(525.4 304.611707) scale(0.1 -0.1)">
       <defs>
        <path id="DejaVuSans-33" d="M 2597 2516 
Q 3050 2419 3304 2112 
Q 3559 1806 3559 1356 
Q 3559 666 3084 287 
Q 2609 -91 1734 -91 
Q 1441 -91 1130 -33 
Q 819 25 488 141 
L 488 750 
Q 750 597 1062 519 
Q 1375 441 1716 441 
Q 2309 441 2620 675 
Q 2931 909 2931 1356 
Q 2931 1769 2642 2001 
Q 2353 2234 1838 2234 
L 1294 2234 
L 1294 2753 
L 1863 2753 
Q 2328 2753 2575 2939 
Q 2822 3125 2822 3475 
Q 2822 3834 2567 4026 
Q 2313 4219 1838 4219 
Q 1578 4219 1281 4162 
Q 984 4106 628 3988 
L 628 4550 
Q 988 4650 1302 4700 
Q 1616 4750 1894 4750 
Q 2613 4750 3031 4423 
Q 3450 4097 3450 3541 
Q 3450 3153 3228 2886 
Q 3006 2619 2597 2516 
z
" transform="scale(0.015625)"/>
       </defs>
       <use xlink:href="#DejaVuSans-33"/>
      </g>
     </g>
    </g>
    <g id="ytick_10">
     <g id="line2d_23">
      <g>
       <use xlink:href="#m222baa17ef" x="518.4" y="263.254557" style="stroke: #000000; stroke-width: 0.8"/>
      </g>
     </g>
     <g id="text_23">
      <!-- 4 -->
      <g transform="translate(525.4 267.053776) scale(0.1 -0.1)">
       <use xlink:href="#DejaVuSans-34"/>
      </g>
     </g>
    </g>
    <g id="ytick_11">
     <g id="line2d_24">
      <g>
       <use xlink:href="#m222baa17ef" x="518.4" y="225.696626" style="stroke: #000000; stroke-width: 0.8"/>
      </g>
     </g>
     <g id="text_24">
      <!-- 5 -->
      <g transform="translate(525.4 229.495845) scale(0.1 -0.1)">
       <use xlink:href="#DejaVuSans-35"/>
      </g>
     </g>
    </g>
    <g id="ytick_12">
     <g id="line2d_25">
      <g>
       <use xlink:href="#m222baa17ef" x="518.4" y="188.138696" style="stroke: #000000; stroke-width: 0.8"/>
      </g>
     </g>
     <g id="text_25">
      <!-- 6 -->
      <g transform="translate(525.4 191.937914) scale(0.1 -0.1)">
       <use xlink:href="#DejaVuSans-36"/>
      </g>
     </g>
    </g>
    <g id="ytick_13">
     <g id="line2d_26">
      <g>
       <use xlink:href="#m222baa17ef" x="518.4" y="150.580765" style="stroke: #000000; stroke-width: 0.8"/>
      </g>
     </g>
     <g id="text_26">
      <!-- 7 -->
      <g transform="translate(525.4 154.379983) scale(0.1 -0.1)">
       <use xlink:href="#DejaVuSans-37"/>
      </g>
     </g>
    </g>
    <g id="ytick_14">
     <g id="line2d_27">
      <g>
       <use xlink:href="#m222baa17ef" x="518.4" y="113.022834" style="stroke: #000000; stroke-width: 0.8"/>
      </g>
     </g>
     <g id="text_27">
      <!-- 8 -->
      <g transform="translate(525.4 116.822052) scale(0.1 -0.1)">
       <use xlink:href="#DejaVuSans-38"/>
      </g>
     </g>
    </g>
    <g id="ytick_15">
     <g id="line2d_28">
      <g>
       <use xlink:href="#m222baa17ef" x="518.4" y="75.464903" style="stroke: #000000; stroke-width: 0.8"/>
      </g>
     </g>
     <g id="text_28">
      <!-- 9 -->
      <g transform="translate(525.4 79.264121) scale(0.1 -0.1)">
       <defs>
        <path id="DejaVuSans-39" d="M 703 97 
L 703 672 
Q 941 559 1184 500 
Q 1428 441 1663 441 
Q 2288 441 2617 861 
Q 2947 1281 2994 2138 
Q 2813 1869 2534 1725 
Q 2256 1581 1919 1581 
Q 1219 1581 811 2004 
Q 403 2428 403 3163 
Q 403 3881 828 4315 
Q 1253 4750 1959 4750 
Q 2769 4750 3195 4129 
Q 3622 3509 3622 2328 
Q 3622 1225 3098 567 
Q 2575 -91 1691 -91 
Q 1453 -91 1209 -44 
Q 966 3 703 97 
z
M 1959 2075 
Q 2384 2075 2632 2365 
Q 2881 2656 2881 3163 
Q 2881 3666 2632 3958 
Q 2384 4250 1959 4250 
Q 1534 4250 1286 3958 
Q 1038 3666 1038 3163 
Q 1038 2656 1286 2365 
Q 1534 2075 1959 2075 
z
" transform="scale(0.015625)"/>
       </defs>
       <use xlink:href="#DejaVuSans-39"/>
      </g>
     </g>
    </g>
    <g id="text_29">
     <!-- loss -->
     <g transform="translate(543.360937 227.817812) rotate(-90) scale(0.1 -0.1)">
      <defs>
       <path id="DejaVuSans-73" d="M 2834 3397 
L 2834 2853 
Q 2591 2978 2328 3040 
Q 2066 3103 1784 3103 
Q 1356 3103 1142 2972 
Q 928 2841 928 2578 
Q 928 2378 1081 2264 
Q 1234 2150 1697 2047 
L 1894 2003 
Q 2506 1872 2764 1633 
Q 3022 1394 3022 966 
Q 3022 478 2636 193 
Q 2250 -91 1575 -91 
Q 1294 -91 989 -36 
Q 684 19 347 128 
L 347 722 
Q 666 556 975 473 
Q 1284 391 1588 391 
Q 1994 391 2212 530 
Q 2431 669 2431 922 
Q 2431 1156 2273 1281 
Q 2116 1406 1581 1522 
L 1381 1569 
Q 847 1681 609 1914 
Q 372 2147 372 2553 
Q 372 3047 722 3315 
Q 1072 3584 1716 3584 
Q 2034 3584 2315 3537 
Q 2597 3491 2834 3397 
z
" transform="scale(0.015625)"/>
      </defs>
      <use xlink:href="#DejaVuSans-6c"/>
      <use xlink:href="#DejaVuSans-6f" x="27.783203"/>
      <use xlink:href="#DejaVuSans-73" x="88.964844"/>
      <use xlink:href="#DejaVuSans-73" x="141.064453"/>
     </g>
    </g>
   </g>
   <g id="line2d_29">
    <path d="M 92.290909 333.829024 
L 96.369484 369.36 
L 98.408771 367.419306 
L 100.448058 336.978365 
L 102.487346 351.585884 
L 104.526633 364.010599 
L 106.565921 358.046705 
L 108.605208 287.344254 
L 110.644495 342.834148 
L 112.683783 352.396247 
L 114.72307 344.711311 
L 116.762357 285.132083 
L 118.801645 329.240163 
L 120.840932 348.66045 
L 122.880219 320.070471 
L 124.919507 335.507167 
L 126.958794 333.809969 
L 128.998081 343.219684 
L 131.037369 357.893209 
L 133.076656 323.649994 
L 135.115943 298.602718 
L 137.155231 357.820025 
L 139.194518 334.361608 
L 141.233805 312.920423 
L 143.273093 288.352022 
L 145.31238 332.536902 
L 147.351667 327.585875 
L 149.390955 272.403746 
L 151.430242 277.866455 
L 153.469529 326.65333 
L 155.508817 339.777689 
L 157.548104 290.587373 
L 159.587392 296.232346 
L 161.626679 331.142103 
L 163.665966 313.903335 
L 165.705254 279.040595 
L 167.744541 310.042207 
L 169.783828 321.563688 
L 171.823116 320.712279 
L 173.862403 273.648664 
L 175.90169 259.142064 
L 177.940978 314.107197 
L 179.980265 327.224966 
L 182.019552 332.593102 
L 184.05884 305.516328 
L 186.098127 297.036824 
L 188.137414 313.596449 
L 190.176702 267.998449 
L 192.215989 257.337597 
L 194.255276 253.656596 
L 196.294564 266.650698 
L 198.333851 282.074696 
L 200.373138 279.748225 
L 202.412426 286.933345 
L 204.451713 303.117057 
L 206.491 287.088943 
L 210.569575 259.110242 
L 212.608862 285.390498 
L 214.64815 278.46358 
L 216.687437 185.623661 
L 218.726725 242.632512 
L 220.766012 217.688144 
L 222.805299 159.032551 
L 224.844587 201.96411 
L 226.883874 233.845791 
L 228.923161 250.441336 
L 230.962449 292.055127 
L 233.001736 198.077421 
L 235.041023 294.501866 
L 237.080311 290.686375 
L 239.119598 285.555877 
L 241.158885 231.89882 
L 243.198173 195.408095 
L 245.23746 285.266922 
L 247.276747 219.752187 
L 249.316035 189.962849 
L 251.355322 224.931188 
L 253.394609 220.640318 
L 255.433897 182.171321 
L 257.473184 263.380368 
L 259.512471 229.168374 
L 261.551759 198.787979 
L 263.591046 216.083075 
L 265.630333 219.326268 
L 267.669621 234.35738 
L 269.708908 238.286057 
L 271.748196 240.192476 
L 273.787483 222.77096 
L 275.82677 268.519799 
L 277.866058 231.228937 
L 279.905345 197.285883 
L 283.98392 293.726703 
L 286.023207 187.62999 
L 288.062494 249.799459 
L 290.101782 220.51878 
L 292.141069 72.832559 
L 294.180356 154.760425 
L 296.219644 189.435265 
L 298.258931 143.175225 
L 300.298218 140.286093 
L 302.337506 186.61706 
L 304.376793 226.732139 
L 306.41608 220.864702 
L 308.455368 193.092417 
L 310.494655 200.771143 
L 312.533942 239.497136 
L 314.57323 206.908026 
L 316.612517 155.111124 
L 318.651804 129.327657 
L 320.691092 224.376566 
L 322.730379 204.381516 
L 324.769667 261.671445 
L 326.808954 156.344965 
L 328.848241 208.957883 
L 330.887529 191.717275 
L 332.926816 124.232347 
L 334.966103 105.615691 
L 337.005391 283.296749 
L 339.044678 76.318017 
L 341.083965 142.074272 
L 343.123253 186.803444 
L 345.16254 200.980576 
L 347.201827 160.302357 
L 349.241115 134.546472 
L 351.280402 156.73411 
L 353.319689 220.190401 
L 355.358977 198.065794 
L 357.398264 171.735231 
L 359.437551 247.151665 
L 361.476839 244.508278 
L 363.516126 215.496094 
L 365.555413 131.329865 
L 367.594701 105.180636 
L 369.633988 252.121224 
L 371.673275 154.492421 
L 373.712563 154.139089 
L 375.75185 127.59288 
L 377.791138 253.008545 
L 379.830425 208.137625 
L 381.869712 210.497942 
L 383.909 70.585134 
L 385.948287 251.346129 
L 387.987574 200.657197 
L 390.026862 120.602619 
L 392.066149 204.65543 
L 394.105436 213.456959 
L 396.144724 164.013351 
L 398.184011 224.3514 
L 400.223298 110.447786 
L 402.262586 188.15861 
L 404.301873 172.717559 
L 406.34116 148.506905 
L 408.380448 80.033368 
L 410.419735 159.749125 
L 412.459022 204.479354 
L 414.49831 140.50285 
L 416.537597 183.547589 
L 418.576884 236.152287 
L 420.616172 200.665457 
L 422.655459 198.580539 
L 424.694746 118.344693 
L 426.734034 215.07362 
L 428.773321 173.954253 
L 430.812608 159.236233 
L 432.851896 133.107357 
L 434.891183 184.746728 
L 436.930471 196.459617 
L 438.969758 148.537552 
L 441.009045 106.214542 
L 443.048333 145.69377 
L 445.08762 143.657873 
L 447.126907 120.010323 
L 449.166195 114.969866 
L 451.205482 203.370892 
L 453.244769 129.411209 
L 455.284057 168.70383 
L 457.323344 94.944003 
L 459.362631 214.006265 
L 461.401919 227.007797 
L 463.441206 136.123603 
L 465.480493 141.072133 
L 467.519781 153.119905 
L 469.559068 153.567527 
L 471.598355 165.470518 
L 473.637643 140.350337 
L 475.67693 214.698305 
L 477.716217 171.813856 
L 479.755505 170.85173 
L 481.794792 66.96 
L 483.834079 234.885215 
L 485.873367 151.024053 
L 487.912654 154.100742 
L 489.951942 96.858674 
L 491.991229 233.810526 
L 494.030516 180.756608 
L 496.069804 120.10833 
L 498.109091 101.766403 
L 498.109091 101.766403 
" clip-path="url(#p15751f309f)" style="fill: none; stroke: #ff0000; stroke-width: 1.5; stroke-linecap: square"/>
   </g>
   <g id="patch_8">
    <path d="M 72 384.48 
L 72 51.84 
" style="fill: none; stroke: #000000; stroke-width: 0.8; stroke-linejoin: miter; stroke-linecap: square"/>
   </g>
   <g id="patch_9">
    <path d="M 518.4 384.48 
L 518.4 51.84 
" style="fill: none; stroke: #000000; stroke-width: 0.8; stroke-linejoin: miter; stroke-linecap: square"/>
   </g>
   <g id="patch_10">
    <path d="M 72 384.48 
L 518.4 384.48 
" style="fill: none; stroke: #000000; stroke-width: 0.8; stroke-linejoin: miter; stroke-linecap: square"/>
   </g>
   <g id="patch_11">
    <path d="M 72 51.84 
L 518.4 51.84 
" style="fill: none; stroke: #000000; stroke-width: 0.8; stroke-linejoin: miter; stroke-linecap: square"/>
   </g>
   <g id="text_30">
    <!-- The learning curve on voc/voc_fpsl_plateau_200/host/9 -->
    <g transform="translate(129.931875 45.84) scale(0.12 -0.12)">
     <defs>
      <path id="DejaVuSans-54" d="M -19 4666 
L 3928 4666 
L 3928 4134 
L 2272 4134 
L 2272 0 
L 1638 0 
L 1638 4134 
L -19 4134 
L -19 4666 
z
" transform="scale(0.015625)"/>
      <path id="DejaVuSans-67" d="M 2906 1791 
Q 2906 2416 2648 2759 
Q 2391 3103 1925 3103 
Q 1463 3103 1205 2759 
Q 947 2416 947 1791 
Q 947 1169 1205 825 
Q 1463 481 1925 481 
Q 2391 481 2648 825 
Q 2906 1169 2906 1791 
z
M 3481 434 
Q 3481 -459 3084 -895 
Q 2688 -1331 1869 -1331 
Q 1566 -1331 1297 -1286 
Q 1028 -1241 775 -1147 
L 775 -588 
Q 1028 -725 1275 -790 
Q 1522 -856 1778 -856 
Q 2344 -856 2625 -561 
Q 2906 -266 2906 331 
L 2906 616 
Q 2728 306 2450 153 
Q 2172 0 1784 0 
Q 1141 0 747 490 
Q 353 981 353 1791 
Q 353 2603 747 3093 
Q 1141 3584 1784 3584 
Q 2172 3584 2450 3431 
Q 2728 3278 2906 2969 
L 2906 3500 
L 3481 3500 
L 3481 434 
z
" transform="scale(0.015625)"/>
      <path id="DejaVuSans-75" d="M 544 1381 
L 544 3500 
L 1119 3500 
L 1119 1403 
Q 1119 906 1312 657 
Q 1506 409 1894 409 
Q 2359 409 2629 706 
Q 2900 1003 2900 1516 
L 2900 3500 
L 3475 3500 
L 3475 0 
L 2900 0 
L 2900 538 
Q 2691 219 2414 64 
Q 2138 -91 1772 -91 
Q 1169 -91 856 284 
Q 544 659 544 1381 
z
M 1991 3584 
L 1991 3584 
z
" transform="scale(0.015625)"/>
      <path id="DejaVuSans-2f" d="M 1625 4666 
L 2156 4666 
L 531 -594 
L 0 -594 
L 1625 4666 
z
" transform="scale(0.015625)"/>
      <path id="DejaVuSans-5f" d="M 3263 -1063 
L 3263 -1509 
L -63 -1509 
L -63 -1063 
L 3263 -1063 
z
" transform="scale(0.015625)"/>
      <path id="DejaVuSans-66" d="M 2375 4863 
L 2375 4384 
L 1825 4384 
Q 1516 4384 1395 4259 
Q 1275 4134 1275 3809 
L 1275 3500 
L 2222 3500 
L 2222 3053 
L 1275 3053 
L 1275 0 
L 697 0 
L 697 3053 
L 147 3053 
L 147 3500 
L 697 3500 
L 697 3744 
Q 697 4328 969 4595 
Q 1241 4863 1831 4863 
L 2375 4863 
z
" transform="scale(0.015625)"/>
     </defs>
     <use xlink:href="#DejaVuSans-54"/>
     <use xlink:href="#DejaVuSans-68" x="61.083984"/>
     <use xlink:href="#DejaVuSans-65" x="124.462891"/>
     <use xlink:href="#DejaVuSans-20" x="185.986328"/>
     <use xlink:href="#DejaVuSans-6c" x="217.773438"/>
     <use xlink:href="#DejaVuSans-65" x="245.556641"/>
     <use xlink:href="#DejaVuSans-61" x="307.080078"/>
     <use xlink:href="#DejaVuSans-72" x="368.359375"/>
     <use xlink:href="#DejaVuSans-6e" x="407.722656"/>
     <use xlink:href="#DejaVuSans-69" x="471.101562"/>
     <use xlink:href="#DejaVuSans-6e" x="498.884766"/>
     <use xlink:href="#DejaVuSans-67" x="562.263672"/>
     <use xlink:href="#DejaVuSans-20" x="625.740234"/>
     <use xlink:href="#DejaVuSans-63" x="657.527344"/>
     <use xlink:href="#DejaVuSans-75" x="712.507812"/>
     <use xlink:href="#DejaVuSans-72" x="775.886719"/>
     <use xlink:href="#DejaVuSans-76" x="817"/>
     <use xlink:href="#DejaVuSans-65" x="876.179688"/>
     <use xlink:href="#DejaVuSans-20" x="937.703125"/>
     <use xlink:href="#DejaVuSans-6f" x="969.490234"/>
     <use xlink:href="#DejaVuSans-6e" x="1030.671875"/>
     <use xlink:href="#DejaVuSans-20" x="1094.050781"/>
     <use xlink:href="#DejaVuSans-76" x="1125.837891"/>
     <use xlink:href="#DejaVuSans-6f" x="1185.017578"/>
     <use xlink:href="#DejaVuSans-63" x="1246.199219"/>
     <use xlink:href="#DejaVuSans-2f" x="1301.179688"/>
     <use xlink:href="#DejaVuSans-76" x="1334.871094"/>
     <use xlink:href="#DejaVuSans-6f" x="1394.050781"/>
     <use xlink:href="#DejaVuSans-63" x="1455.232422"/>
     <use xlink:href="#DejaVuSans-5f" x="1510.212891"/>
     <use xlink:href="#DejaVuSans-66" x="1560.212891"/>
     <use xlink:href="#DejaVuSans-70" x="1595.417969"/>
     <use xlink:href="#DejaVuSans-73" x="1658.894531"/>
     <use xlink:href="#DejaVuSans-6c" x="1710.994141"/>
     <use xlink:href="#DejaVuSans-5f" x="1738.777344"/>
     <use xlink:href="#DejaVuSans-70" x="1788.777344"/>
     <use xlink:href="#DejaVuSans-6c" x="1852.253906"/>
     <use xlink:href="#DejaVuSans-61" x="1880.037109"/>
     <use xlink:href="#DejaVuSans-74" x="1941.316406"/>
     <use xlink:href="#DejaVuSans-65" x="1980.525391"/>
     <use xlink:href="#DejaVuSans-61" x="2042.048828"/>
     <use xlink:href="#DejaVuSans-75" x="2103.328125"/>
     <use xlink:href="#DejaVuSans-5f" x="2166.707031"/>
     <use xlink:href="#DejaVuSans-32" x="2216.707031"/>
     <use xlink:href="#DejaVuSans-30" x="2280.330078"/>
     <use xlink:href="#DejaVuSans-30" x="2343.953125"/>
     <use xlink:href="#DejaVuSans-2f" x="2407.576172"/>
     <use xlink:href="#DejaVuSans-68" x="2441.267578"/>
     <use xlink:href="#DejaVuSans-6f" x="2504.646484"/>
     <use xlink:href="#DejaVuSans-73" x="2565.828125"/>
     <use xlink:href="#DejaVuSans-74" x="2617.927734"/>
     <use xlink:href="#DejaVuSans-2f" x="2657.136719"/>
     <use xlink:href="#DejaVuSans-39" x="2690.828125"/>
    </g>
   </g>
   <g id="legend_2">
    <g id="patch_12">
     <path d="M 460.084375 74.518125 
L 511.4 74.518125 
Q 513.4 74.518125 513.4 72.518125 
L 513.4 58.84 
Q 513.4 56.84 511.4 56.84 
L 460.084375 56.84 
Q 458.084375 56.84 458.084375 58.84 
L 458.084375 72.518125 
Q 458.084375 74.518125 460.084375 74.518125 
z
" style="fill: #ffffff; opacity: 0.8; stroke: #cccccc; stroke-linejoin: miter"/>
    </g>
    <g id="line2d_30">
     <path d="M 462.084375 64.938438 
L 472.084375 64.938438 
L 482.084375 64.938438 
" style="fill: none; stroke: #ff0000; stroke-width: 1.5; stroke-linecap: square"/>
    </g>
    <g id="text_31">
     <!-- loss -->
     <g transform="translate(490.084375 68.438438) scale(0.1 -0.1)">
      <use xlink:href="#DejaVuSans-6c"/>
      <use xlink:href="#DejaVuSans-6f" x="27.783203"/>
      <use xlink:href="#DejaVuSans-73" x="88.964844"/>
      <use xlink:href="#DejaVuSans-73" x="141.064453"/>
     </g>
    </g>
   </g>
  </g>
 </g>
 <defs>
  <clipPath id="p15751f309f">
   <rect x="72" y="51.84" width="446.4" height="332.64"/>
  </clipPath>
 </defs>
</svg>
