<?xml version="1.0" encoding="utf-8" standalone="no"?>
<!DOCTYPE svg PUBLIC "-//W3C//DTD SVG 1.1//EN"
  "http://www.w3.org/Graphics/SVG/1.1/DTD/svg11.dtd">
<svg xmlns:xlink="http://www.w3.org/1999/xlink" width="576pt" height="432pt" viewBox="0 0 576 432" xmlns="http://www.w3.org/2000/svg" version="1.1">
 <metadata>
  <rdf:RDF xmlns:dc="http://purl.org/dc/elements/1.1/" xmlns:cc="http://creativecommons.org/ns#" xmlns:rdf="http://www.w3.org/1999/02/22-rdf-syntax-ns#">
   <cc:Work>
    <dc:type rdf:resource="http://purl.org/dc/dcmitype/StillImage"/>
    <dc:date>2023-06-19T00:36:23.627533</dc:date>
    <dc:format>image/svg+xml</dc:format>
    <dc:creator>
     <cc:Agent>
      <dc:title>Matplotlib v3.7.1, https://matplotlib.org/</dc:title>
     </cc:Agent>
    </dc:creator>
   </cc:Work>
  </rdf:RDF>
 </metadata>
 <defs>
  <style type="text/css">*{stroke-linejoin: round; stroke-linecap: butt}</style>
 </defs>
 <g id="figure_1">
  <g id="patch_1">
   <path d="M 0 432 
L 576 432 
L 576 0 
L 0 0 
z
" style="fill: #ffffff"/>
  </g>
  <g id="axes_1">
   <g id="patch_2">
    <path d="M 72 384.48 
L 518.4 384.48 
L 518.4 51.84 
L 72 51.84 
z
" style="fill: #ffffff"/>
   </g>
   <g id="matplotlib.axis_1">
    <g id="xtick_1">
     <g id="line2d_1">
      <defs>
       <path id="mf459fdb1f9" d="M 0 0 
L 0 3.5 
" style="stroke: #000000; stroke-width: 0.8"/>
      </defs>
      <g>
       <use xlink:href="#mf459fdb1f9" x="92.290909" y="384.48" style="stroke: #000000; stroke-width: 0.8"/>
      </g>
     </g>
     <g id="text_1">
      <!-- 0 -->
      <g transform="translate(89.109659 399.078438) scale(0.1 -0.1)">
       <defs>
        <path id="DejaVuSans-30" d="M 2034 4250 
Q 1547 4250 1301 3770 
Q 1056 3291 1056 2328 
Q 1056 1369 1301 889 
Q 1547 409 2034 409 
Q 2525 409 2770 889 
Q 3016 1369 3016 2328 
Q 3016 3291 2770 3770 
Q 2525 4250 2034 4250 
z
M 2034 4750 
Q 2819 4750 3233 4129 
Q 3647 3509 3647 2328 
Q 3647 1150 3233 529 
Q 2819 -91 2034 -91 
Q 1250 -91 836 529 
Q 422 1150 422 2328 
Q 422 3509 836 4129 
Q 1250 4750 2034 4750 
z
" transform="scale(0.015625)"/>
       </defs>
       <use xlink:href="#DejaVuSans-30"/>
      </g>
     </g>
    </g>
    <g id="xtick_2">
     <g id="line2d_2">
      <g>
       <use xlink:href="#mf459fdb1f9" x="173.617198" y="384.48" style="stroke: #000000; stroke-width: 0.8"/>
      </g>
     </g>
     <g id="text_2">
      <!-- 100 -->
      <g transform="translate(164.073448 399.078438) scale(0.1 -0.1)">
       <defs>
        <path id="DejaVuSans-31" d="M 794 531 
L 1825 531 
L 1825 4091 
L 703 3866 
L 703 4441 
L 1819 4666 
L 2450 4666 
L 2450 531 
L 3481 531 
L 3481 0 
L 794 0 
L 794 531 
z
" transform="scale(0.015625)"/>
       </defs>
       <use xlink:href="#DejaVuSans-31"/>
       <use xlink:href="#DejaVuSans-30" x="63.623047"/>
       <use xlink:href="#DejaVuSans-30" x="127.246094"/>
      </g>
     </g>
    </g>
    <g id="xtick_3">
     <g id="line2d_3">
      <g>
       <use xlink:href="#mf459fdb1f9" x="254.943487" y="384.48" style="stroke: #000000; stroke-width: 0.8"/>
      </g>
     </g>
     <g id="text_3">
      <!-- 200 -->
      <g transform="translate(245.399737 399.078438) scale(0.1 -0.1)">
       <defs>
        <path id="DejaVuSans-32" d="M 1228 531 
L 3431 531 
L 3431 0 
L 469 0 
L 469 531 
Q 828 903 1448 1529 
Q 2069 2156 2228 2338 
Q 2531 2678 2651 2914 
Q 2772 3150 2772 3378 
Q 2772 3750 2511 3984 
Q 2250 4219 1831 4219 
Q 1534 4219 1204 4116 
Q 875 4013 500 3803 
L 500 4441 
Q 881 4594 1212 4672 
Q 1544 4750 1819 4750 
Q 2544 4750 2975 4387 
Q 3406 4025 3406 3419 
Q 3406 3131 3298 2873 
Q 3191 2616 2906 2266 
Q 2828 2175 2409 1742 
Q 1991 1309 1228 531 
z
" transform="scale(0.015625)"/>
       </defs>
       <use xlink:href="#DejaVuSans-32"/>
       <use xlink:href="#DejaVuSans-30" x="63.623047"/>
       <use xlink:href="#DejaVuSans-30" x="127.246094"/>
      </g>
     </g>
    </g>
    <g id="xtick_4">
     <g id="line2d_4">
      <g>
       <use xlink:href="#mf459fdb1f9" x="336.269776" y="384.48" style="stroke: #000000; stroke-width: 0.8"/>
      </g>
     </g>
     <g id="text_4">
      <!-- 300 -->
      <g transform="translate(326.726026 399.078438) scale(0.1 -0.1)">
       <defs>
        <path id="DejaVuSans-33" d="M 2597 2516 
Q 3050 2419 3304 2112 
Q 3559 1806 3559 1356 
Q 3559 666 3084 287 
Q 2609 -91 1734 -91 
Q 1441 -91 1130 -33 
Q 819 25 488 141 
L 488 750 
Q 750 597 1062 519 
Q 1375 441 1716 441 
Q 2309 441 2620 675 
Q 2931 909 2931 1356 
Q 2931 1769 2642 2001 
Q 2353 2234 1838 2234 
L 1294 2234 
L 1294 2753 
L 1863 2753 
Q 2328 2753 2575 2939 
Q 2822 3125 2822 3475 
Q 2822 3834 2567 4026 
Q 2313 4219 1838 4219 
Q 1578 4219 1281 4162 
Q 984 4106 628 3988 
L 628 4550 
Q 988 4650 1302 4700 
Q 1616 4750 1894 4750 
Q 2613 4750 3031 4423 
Q 3450 4097 3450 3541 
Q 3450 3153 3228 2886 
Q 3006 2619 2597 2516 
z
" transform="scale(0.015625)"/>
       </defs>
       <use xlink:href="#DejaVuSans-33"/>
       <use xlink:href="#DejaVuSans-30" x="63.623047"/>
       <use xlink:href="#DejaVuSans-30" x="127.246094"/>
      </g>
     </g>
    </g>
    <g id="xtick_5">
     <g id="line2d_5">
      <g>
       <use xlink:href="#mf459fdb1f9" x="417.596065" y="384.48" style="stroke: #000000; stroke-width: 0.8"/>
      </g>
     </g>
     <g id="text_5">
      <!-- 400 -->
      <g transform="translate(408.052315 399.078438) scale(0.1 -0.1)">
       <defs>
        <path id="DejaVuSans-34" d="M 2419 4116 
L 825 1625 
L 2419 1625 
L 2419 4116 
z
M 2253 4666 
L 3047 4666 
L 3047 1625 
L 3713 1625 
L 3713 1100 
L 3047 1100 
L 3047 0 
L 2419 0 
L 2419 1100 
L 313 1100 
L 313 1709 
L 2253 4666 
z
" transform="scale(0.015625)"/>
       </defs>
       <use xlink:href="#DejaVuSans-34"/>
       <use xlink:href="#DejaVuSans-30" x="63.623047"/>
       <use xlink:href="#DejaVuSans-30" x="127.246094"/>
      </g>
     </g>
    </g>
    <g id="xtick_6">
     <g id="line2d_6">
      <g>
       <use xlink:href="#mf459fdb1f9" x="498.922354" y="384.48" style="stroke: #000000; stroke-width: 0.8"/>
      </g>
     </g>
     <g id="text_6">
      <!-- 500 -->
      <g transform="translate(489.378604 399.078438) scale(0.1 -0.1)">
       <defs>
        <path id="DejaVuSans-35" d="M 691 4666 
L 3169 4666 
L 3169 4134 
L 1269 4134 
L 1269 2991 
Q 1406 3038 1543 3061 
Q 1681 3084 1819 3084 
Q 2600 3084 3056 2656 
Q 3513 2228 3513 1497 
Q 3513 744 3044 326 
Q 2575 -91 1722 -91 
Q 1428 -91 1123 -41 
Q 819 9 494 109 
L 494 744 
Q 775 591 1075 516 
Q 1375 441 1709 441 
Q 2250 441 2565 725 
Q 2881 1009 2881 1497 
Q 2881 1984 2565 2268 
Q 2250 2553 1709 2553 
Q 1456 2553 1204 2497 
Q 953 2441 691 2322 
L 691 4666 
z
" transform="scale(0.015625)"/>
       </defs>
       <use xlink:href="#DejaVuSans-35"/>
       <use xlink:href="#DejaVuSans-30" x="63.623047"/>
       <use xlink:href="#DejaVuSans-30" x="127.246094"/>
      </g>
     </g>
    </g>
    <g id="text_7">
     <!-- epoch -->
     <g transform="translate(279.971875 412.756563) scale(0.1 -0.1)">
      <defs>
       <path id="DejaVuSans-65" d="M 3597 1894 
L 3597 1613 
L 953 1613 
Q 991 1019 1311 708 
Q 1631 397 2203 397 
Q 2534 397 2845 478 
Q 3156 559 3463 722 
L 3463 178 
Q 3153 47 2828 -22 
Q 2503 -91 2169 -91 
Q 1331 -91 842 396 
Q 353 884 353 1716 
Q 353 2575 817 3079 
Q 1281 3584 2069 3584 
Q 2775 3584 3186 3129 
Q 3597 2675 3597 1894 
z
M 3022 2063 
Q 3016 2534 2758 2815 
Q 2500 3097 2075 3097 
Q 1594 3097 1305 2825 
Q 1016 2553 972 2059 
L 3022 2063 
z
" transform="scale(0.015625)"/>
       <path id="DejaVuSans-70" d="M 1159 525 
L 1159 -1331 
L 581 -1331 
L 581 3500 
L 1159 3500 
L 1159 2969 
Q 1341 3281 1617 3432 
Q 1894 3584 2278 3584 
Q 2916 3584 3314 3078 
Q 3713 2572 3713 1747 
Q 3713 922 3314 415 
Q 2916 -91 2278 -91 
Q 1894 -91 1617 61 
Q 1341 213 1159 525 
z
M 3116 1747 
Q 3116 2381 2855 2742 
Q 2594 3103 2138 3103 
Q 1681 3103 1420 2742 
Q 1159 2381 1159 1747 
Q 1159 1113 1420 752 
Q 1681 391 2138 391 
Q 2594 391 2855 752 
Q 3116 1113 3116 1747 
z
" transform="scale(0.015625)"/>
       <path id="DejaVuSans-6f" d="M 1959 3097 
Q 1497 3097 1228 2736 
Q 959 2375 959 1747 
Q 959 1119 1226 758 
Q 1494 397 1959 397 
Q 2419 397 2687 759 
Q 2956 1122 2956 1747 
Q 2956 2369 2687 2733 
Q 2419 3097 1959 3097 
z
M 1959 3584 
Q 2709 3584 3137 3096 
Q 3566 2609 3566 1747 
Q 3566 888 3137 398 
Q 2709 -91 1959 -91 
Q 1206 -91 779 398 
Q 353 888 353 1747 
Q 353 2609 779 3096 
Q 1206 3584 1959 3584 
z
" transform="scale(0.015625)"/>
       <path id="DejaVuSans-63" d="M 3122 3366 
L 3122 2828 
Q 2878 2963 2633 3030 
Q 2388 3097 2138 3097 
Q 1578 3097 1268 2742 
Q 959 2388 959 1747 
Q 959 1106 1268 751 
Q 1578 397 2138 397 
Q 2388 397 2633 464 
Q 2878 531 3122 666 
L 3122 134 
Q 2881 22 2623 -34 
Q 2366 -91 2075 -91 
Q 1284 -91 818 406 
Q 353 903 353 1747 
Q 353 2603 823 3093 
Q 1294 3584 2113 3584 
Q 2378 3584 2631 3529 
Q 2884 3475 3122 3366 
z
" transform="scale(0.015625)"/>
       <path id="DejaVuSans-68" d="M 3513 2113 
L 3513 0 
L 2938 0 
L 2938 2094 
Q 2938 2591 2744 2837 
Q 2550 3084 2163 3084 
Q 1697 3084 1428 2787 
Q 1159 2491 1159 1978 
L 1159 0 
L 581 0 
L 581 4863 
L 1159 4863 
L 1159 2956 
Q 1366 3272 1645 3428 
Q 1925 3584 2291 3584 
Q 2894 3584 3203 3211 
Q 3513 2838 3513 2113 
z
" transform="scale(0.015625)"/>
      </defs>
      <use xlink:href="#DejaVuSans-65"/>
      <use xlink:href="#DejaVuSans-70" x="61.523438"/>
      <use xlink:href="#DejaVuSans-6f" x="125"/>
      <use xlink:href="#DejaVuSans-63" x="186.181641"/>
      <use xlink:href="#DejaVuSans-68" x="241.162109"/>
     </g>
    </g>
   </g>
   <g id="matplotlib.axis_2">
    <g id="ytick_1">
     <g id="line2d_7">
      <defs>
       <path id="m5fd8cf5398" d="M 0 0 
L -3.5 0 
" style="stroke: #000000; stroke-width: 0.8"/>
      </defs>
      <g>
       <use xlink:href="#m5fd8cf5398" x="72" y="384.48" style="stroke: #000000; stroke-width: 0.8"/>
      </g>
     </g>
     <g id="text_8">
      <!-- 0.0 -->
      <g transform="translate(49.096875 388.279219) scale(0.1 -0.1)">
       <defs>
        <path id="DejaVuSans-2e" d="M 684 794 
L 1344 794 
L 1344 0 
L 684 0 
L 684 794 
z
" transform="scale(0.015625)"/>
       </defs>
       <use xlink:href="#DejaVuSans-30"/>
       <use xlink:href="#DejaVuSans-2e" x="63.623047"/>
       <use xlink:href="#DejaVuSans-30" x="95.410156"/>
      </g>
     </g>
    </g>
    <g id="ytick_2">
     <g id="line2d_8">
      <g>
       <use xlink:href="#m5fd8cf5398" x="72" y="317.952" style="stroke: #000000; stroke-width: 0.8"/>
      </g>
     </g>
     <g id="text_9">
      <!-- 0.2 -->
      <g transform="translate(49.096875 321.751219) scale(0.1 -0.1)">
       <use xlink:href="#DejaVuSans-30"/>
       <use xlink:href="#DejaVuSans-2e" x="63.623047"/>
       <use xlink:href="#DejaVuSans-32" x="95.410156"/>
      </g>
     </g>
    </g>
    <g id="ytick_3">
     <g id="line2d_9">
      <g>
       <use xlink:href="#m5fd8cf5398" x="72" y="251.424" style="stroke: #000000; stroke-width: 0.8"/>
      </g>
     </g>
     <g id="text_10">
      <!-- 0.4 -->
      <g transform="translate(49.096875 255.223219) scale(0.1 -0.1)">
       <use xlink:href="#DejaVuSans-30"/>
       <use xlink:href="#DejaVuSans-2e" x="63.623047"/>
       <use xlink:href="#DejaVuSans-34" x="95.410156"/>
      </g>
     </g>
    </g>
    <g id="ytick_4">
     <g id="line2d_10">
      <g>
       <use xlink:href="#m5fd8cf5398" x="72" y="184.896" style="stroke: #000000; stroke-width: 0.8"/>
      </g>
     </g>
     <g id="text_11">
      <!-- 0.6 -->
      <g transform="translate(49.096875 188.695219) scale(0.1 -0.1)">
       <defs>
        <path id="DejaVuSans-36" d="M 2113 2584 
Q 1688 2584 1439 2293 
Q 1191 2003 1191 1497 
Q 1191 994 1439 701 
Q 1688 409 2113 409 
Q 2538 409 2786 701 
Q 3034 994 3034 1497 
Q 3034 2003 2786 2293 
Q 2538 2584 2113 2584 
z
M 3366 4563 
L 3366 3988 
Q 3128 4100 2886 4159 
Q 2644 4219 2406 4219 
Q 1781 4219 1451 3797 
Q 1122 3375 1075 2522 
Q 1259 2794 1537 2939 
Q 1816 3084 2150 3084 
Q 2853 3084 3261 2657 
Q 3669 2231 3669 1497 
Q 3669 778 3244 343 
Q 2819 -91 2113 -91 
Q 1303 -91 875 529 
Q 447 1150 447 2328 
Q 447 3434 972 4092 
Q 1497 4750 2381 4750 
Q 2619 4750 2861 4703 
Q 3103 4656 3366 4563 
z
" transform="scale(0.015625)"/>
       </defs>
       <use xlink:href="#DejaVuSans-30"/>
       <use xlink:href="#DejaVuSans-2e" x="63.623047"/>
       <use xlink:href="#DejaVuSans-36" x="95.410156"/>
      </g>
     </g>
    </g>
    <g id="ytick_5">
     <g id="line2d_11">
      <g>
       <use xlink:href="#m5fd8cf5398" x="72" y="118.368" style="stroke: #000000; stroke-width: 0.8"/>
      </g>
     </g>
     <g id="text_12">
      <!-- 0.8 -->
      <g transform="translate(49.096875 122.167219) scale(0.1 -0.1)">
       <defs>
        <path id="DejaVuSans-38" d="M 2034 2216 
Q 1584 2216 1326 1975 
Q 1069 1734 1069 1313 
Q 1069 891 1326 650 
Q 1584 409 2034 409 
Q 2484 409 2743 651 
Q 3003 894 3003 1313 
Q 3003 1734 2745 1975 
Q 2488 2216 2034 2216 
z
M 1403 2484 
Q 997 2584 770 2862 
Q 544 3141 544 3541 
Q 544 4100 942 4425 
Q 1341 4750 2034 4750 
Q 2731 4750 3128 4425 
Q 3525 4100 3525 3541 
Q 3525 3141 3298 2862 
Q 3072 2584 2669 2484 
Q 3125 2378 3379 2068 
Q 3634 1759 3634 1313 
Q 3634 634 3220 271 
Q 2806 -91 2034 -91 
Q 1263 -91 848 271 
Q 434 634 434 1313 
Q 434 1759 690 2068 
Q 947 2378 1403 2484 
z
M 1172 3481 
Q 1172 3119 1398 2916 
Q 1625 2713 2034 2713 
Q 2441 2713 2670 2916 
Q 2900 3119 2900 3481 
Q 2900 3844 2670 4047 
Q 2441 4250 2034 4250 
Q 1625 4250 1398 4047 
Q 1172 3844 1172 3481 
z
" transform="scale(0.015625)"/>
       </defs>
       <use xlink:href="#DejaVuSans-30"/>
       <use xlink:href="#DejaVuSans-2e" x="63.623047"/>
       <use xlink:href="#DejaVuSans-38" x="95.410156"/>
      </g>
     </g>
    </g>
    <g id="ytick_6">
     <g id="line2d_12">
      <g>
       <use xlink:href="#m5fd8cf5398" x="72" y="51.84" style="stroke: #000000; stroke-width: 0.8"/>
      </g>
     </g>
     <g id="text_13">
      <!-- 1.0 -->
      <g transform="translate(49.096875 55.639219) scale(0.1 -0.1)">
       <use xlink:href="#DejaVuSans-31"/>
       <use xlink:href="#DejaVuSans-2e" x="63.623047"/>
       <use xlink:href="#DejaVuSans-30" x="95.410156"/>
      </g>
     </g>
    </g>
    <g id="text_14">
     <!-- rate -->
     <g transform="translate(43.017187 228.31625) rotate(-90) scale(0.1 -0.1)">
      <defs>
       <path id="DejaVuSans-72" d="M 2631 2963 
Q 2534 3019 2420 3045 
Q 2306 3072 2169 3072 
Q 1681 3072 1420 2755 
Q 1159 2438 1159 1844 
L 1159 0 
L 581 0 
L 581 3500 
L 1159 3500 
L 1159 2956 
Q 1341 3275 1631 3429 
Q 1922 3584 2338 3584 
Q 2397 3584 2469 3576 
Q 2541 3569 2628 3553 
L 2631 2963 
z
" transform="scale(0.015625)"/>
       <path id="DejaVuSans-61" d="M 2194 1759 
Q 1497 1759 1228 1600 
Q 959 1441 959 1056 
Q 959 750 1161 570 
Q 1363 391 1709 391 
Q 2188 391 2477 730 
Q 2766 1069 2766 1631 
L 2766 1759 
L 2194 1759 
z
M 3341 1997 
L 3341 0 
L 2766 0 
L 2766 531 
Q 2569 213 2275 61 
Q 1981 -91 1556 -91 
Q 1019 -91 701 211 
Q 384 513 384 1019 
Q 384 1609 779 1909 
Q 1175 2209 1959 2209 
L 2766 2209 
L 2766 2266 
Q 2766 2663 2505 2880 
Q 2244 3097 1772 3097 
Q 1472 3097 1187 3025 
Q 903 2953 641 2809 
L 641 3341 
Q 956 3463 1253 3523 
Q 1550 3584 1831 3584 
Q 2591 3584 2966 3190 
Q 3341 2797 3341 1997 
z
" transform="scale(0.015625)"/>
       <path id="DejaVuSans-74" d="M 1172 4494 
L 1172 3500 
L 2356 3500 
L 2356 3053 
L 1172 3053 
L 1172 1153 
Q 1172 725 1289 603 
Q 1406 481 1766 481 
L 2356 481 
L 2356 0 
L 1766 0 
Q 1100 0 847 248 
Q 594 497 594 1153 
L 594 3053 
L 172 3053 
L 172 3500 
L 594 3500 
L 594 4494 
L 1172 4494 
z
" transform="scale(0.015625)"/>
      </defs>
      <use xlink:href="#DejaVuSans-72"/>
      <use xlink:href="#DejaVuSans-61" x="41.113281"/>
      <use xlink:href="#DejaVuSans-74" x="102.392578"/>
      <use xlink:href="#DejaVuSans-65" x="141.601562"/>
     </g>
    </g>
   </g>
   <g id="line2d_13">
    <path d="M 92.290909 348.533924 
L 93.104172 330.11731 
L 93.917435 321.244803 
L 94.730698 315.585932 
L 95.543961 308.465772 
L 96.357224 341.591394 
L 97.170486 321.321643 
L 97.983749 317.235826 
L 98.797012 310.738369 
L 99.610275 310.342527 
L 100.423538 328.462093 
L 101.236801 315.039404 
L 102.050064 314.074083 
L 102.863327 306.83118 
L 103.67659 301.168981 
L 104.489852 324.567212 
L 105.303115 308.654047 
L 106.116378 297.873184 
L 107.742904 297.176636 
L 108.556167 318.69412 
L 109.36943 308.718246 
L 110.182693 303.375715 
L 110.995956 283.978812 
L 111.809218 295.98512 
L 112.622481 316.047969 
L 113.435744 303.219042 
L 114.249007 297.686241 
L 115.06227 296.720254 
L 115.875533 287.112946 
L 116.688796 312.275498 
L 117.502059 296.2183 
L 118.315322 297.534224 
L 119.128584 290.330905 
L 119.941847 284.154445 
L 120.75511 310.546103 
L 121.568373 297.812644 
L 122.381636 295.022127 
L 123.194899 289.19128 
L 124.008162 280.860312 
L 124.821425 305.842573 
L 125.634688 292.12583 
L 126.44795 288.045003 
L 127.261213 282.84085 
L 128.074476 278.743723 
L 128.887739 301.24316 
L 129.701002 290.011571 
L 130.514265 283.874695 
L 131.327528 271.746973 
L 132.140791 281.09449 
L 132.954054 294.693479 
L 133.767316 290.577724 
L 135.393842 279.889335 
L 136.207105 271.978491 
L 137.020368 300.041332 
L 137.833631 282.488917 
L 138.646894 280.165094 
L 139.460157 283.097981 
L 140.27342 274.988218 
L 141.086682 288.686 
L 141.899945 285.252823 
L 142.713208 276.356699 
L 143.526471 270.597037 
L 144.339734 273.062565 
L 145.152997 293.046911 
L 145.96626 287.813818 
L 146.779523 277.171001 
L 147.592786 277.681271 
L 148.406048 267.135252 
L 149.219311 288.634774 
L 150.032574 284.975401 
L 150.845837 277.379899 
L 151.6591 273.219571 
L 152.472363 267.799535 
L 153.285626 291.444916 
L 154.098889 282.692825 
L 154.912152 275.918279 
L 155.725414 267.860408 
L 156.538677 268.321447 
L 157.35194 287.755939 
L 158.165203 277.161687 
L 158.978466 268.477455 
L 159.791729 272.539655 
L 160.604992 269.764106 
L 161.418255 279.673785 
L 163.04478 273.932418 
L 163.858043 272.257908 
L 164.671306 267.094338 
L 165.484569 292.862628 
L 167.111095 266.053507 
L 167.924358 261.177005 
L 168.737621 267.984482 
L 169.550884 288.379639 
L 170.364146 272.769176 
L 171.990672 266.379162 
L 172.803935 261.33268 
L 173.617198 279.940229 
L 174.430461 274.759361 
L 176.056987 270.144979 
L 176.87025 255.85044 
L 177.683512 278.931997 
L 178.496775 277.150045 
L 179.310038 271.746973 
L 180.123301 272.213335 
L 180.936564 270.568097 
L 181.749827 277.22256 
L 182.56309 274.177907 
L 183.376353 257.036967 
L 184.189616 270.385811 
L 185.002878 271.196122 
L 185.816141 274.886762 
L 186.629404 266.180243 
L 187.442667 272.598199 
L 188.25593 265.758456 
L 189.069193 267.438953 
L 189.882456 278.234119 
L 190.695719 275.411668 
L 191.508982 266.775003 
L 192.322244 272.534332 
L 193.135507 268.265231 
L 193.94877 281.337317 
L 194.762033 273.203604 
L 195.575296 266.606688 
L 196.388559 272.619821 
L 197.201822 269.059575 
L 198.015085 273.029966 
L 198.828348 276.331418 
L 199.64161 254.558799 
L 200.454873 270.471299 
L 201.268136 264.845026 
L 202.081399 275.653165 
L 202.894662 272.371671 
L 203.707925 268.534669 
L 204.521188 277.259816 
L 205.334451 265.089516 
L 206.147714 271.701402 
L 206.960976 265.50831 
L 207.774239 272.54664 
L 208.587502 274.953956 
L 209.400765 259.158878 
L 210.214028 266.104068 
L 211.027291 272.067971 
L 211.840554 275.804184 
L 212.653817 264.455837 
L 213.46708 269.360614 
L 214.280343 281.042598 
L 215.093605 277.048922 
L 215.906868 268.18706 
L 216.720131 269.393545 
L 217.533394 265.680618 
L 218.346657 277.840938 
L 219.15992 273.23454 
L 219.973183 259.705405 
L 220.786446 272.224644 
L 221.599709 267.180159 
L 222.412971 273.56718 
L 223.226234 266.654255 
L 224.039497 274.027221 
L 224.85276 270.751382 
L 225.666023 266.887768 
L 226.479286 277.08385 
L 227.292549 268.486104 
L 228.105812 267.765605 
L 228.919075 264.652428 
L 229.732337 260.76187 
L 230.5456 295.650484 
L 231.358863 282.147628 
L 232.172126 278.282019 
L 232.985389 284.178396 
L 233.798652 277.384556 
L 234.611915 283.210413 
L 235.425178 267.148891 
L 236.238441 274.635287 
L 237.051703 278.726093 
L 237.864966 269.648015 
L 238.678229 280.905551 
L 239.491492 275.252334 
L 240.304755 279.088338 
L 241.118018 263.605277 
L 241.931281 269.049596 
L 242.744544 281.032619 
L 243.557807 282.269375 
L 244.371069 271.448595 
L 245.184332 276.738237 
L 245.997595 270.814251 
L 246.810858 277.258818 
L 247.624121 275.803518 
L 248.437384 267.134255 
L 249.250647 274.226139 
L 250.06391 269.38656 
L 250.877173 276.810087 
L 251.690435 277.053912 
L 252.503698 277.47071 
L 253.316961 269.605437 
L 254.130224 273.268801 
L 254.943487 274.377158 
L 255.75675 275.250671 
L 256.570013 271.451589 
L 257.383276 271.047099 
L 258.196539 271.812504 
L 259.009801 277.378236 
L 259.823064 279.372413 
L 260.636327 267.678454 
L 261.44959 268.345397 
L 262.262853 272.626474 
L 263.076116 274.523187 
L 263.889379 273.537242 
L 264.702642 271.806183 
L 265.515905 263.960869 
L 266.329167 269.199949 
L 267.14243 278.032872 
L 267.955693 274.986222 
L 268.768956 277.296407 
L 269.582219 262.290684 
L 270.395482 268.908556 
L 271.208745 280.157111 
L 272.022008 274.872459 
L 272.835271 266.588392 
L 273.648533 274.65591 
L 274.461796 264.645442 
L 275.275059 279.557693 
L 276.088322 261.136423 
L 276.901585 274.243104 
L 277.714848 253.286119 
L 278.528111 269.854917 
L 279.341374 283.337814 
L 280.154637 273.619737 
L 280.967899 281.67528 
L 281.781162 270.191881 
L 282.594425 272.772835 
L 283.407688 275.844433 
L 284.220951 274.807261 
L 285.034214 275.117282 
L 285.847477 268.099243 
L 286.66074 268.983733 
L 287.474003 275.920608 
L 288.287265 273.413832 
L 289.100528 269.830967 
L 289.913791 275.040775 
L 290.727054 267.489181 
L 291.540317 276.735576 
L 292.35358 262.65692 
L 293.166843 264.080619 
L 293.980106 268.973088 
L 294.793369 276.085264 
L 295.606631 273.569508 
L 296.419894 274.288676 
L 297.233157 277.399192 
L 298.04642 265.309724 
L 298.859683 270.344896 
L 299.672946 276.96543 
L 300.486209 271.60294 
L 301.299472 273.333999 
L 302.112735 260.450519 
L 302.925997 268.41126 
L 303.73926 270.000613 
L 304.552523 279.488504 
L 305.365786 277.62572 
L 306.179049 273.935412 
L 306.992312 275.408342 
L 307.805575 275.343144 
L 308.618838 269.199284 
L 309.432101 274.975577 
L 310.245363 274.254081 
L 311.058626 276.147801 
L 311.871889 263.349144 
L 312.685152 272.748552 
L 313.498415 258.135012 
L 314.311678 265.177333 
L 315.124941 266.32095 
L 315.938204 276.136158 
L 316.751467 277.162353 
L 317.564729 274.400775 
L 318.377992 251.71506 
L 319.191255 273.100153 
L 320.004518 268.107559 
L 320.817781 277.817653 
L 321.631044 276.50173 
L 322.444307 270.55712 
L 323.25757 268.458494 
L 324.070833 274.052169 
L 324.884095 274.191545 
L 325.697358 261.130103 
L 326.510621 274.127678 
L 327.323884 275.46223 
L 328.137147 257.068568 
L 328.95041 263.23904 
L 329.763673 276.310129 
L 330.576936 269.81999 
L 331.390199 273.444435 
L 332.203461 276.006429 
L 333.016724 268.909887 
L 334.64325 276.564266 
L 335.456513 273.31903 
L 336.269776 277.837279 
L 337.083039 272.443854 
L 337.896302 271.966516 
L 338.709565 269.07654 
L 339.522827 268.824398 
L 340.33609 261.035965 
L 341.149353 273.008677 
L 341.962616 266.951968 
L 343.589142 275.716699 
L 344.402405 278.810916 
L 345.215668 269.132756 
L 346.028931 273.577159 
L 346.842193 273.613084 
L 347.655456 263.078708 
L 348.468719 262.518542 
L 349.281982 266.49359 
L 350.095245 276.148799 
L 350.908508 266.606022 
L 351.721771 268.819409 
L 352.535034 259.617588 
L 353.348297 276.695991 
L 354.161559 272.574249 
L 354.974822 277.244182 
L 355.788085 275.61857 
L 356.601348 271.052421 
L 357.414611 269.725188 
L 358.227874 276.190046 
L 359.041137 277.926094 
L 359.8544 271.896661 
L 360.667663 267.425315 
L 361.480925 279.142559 
L 362.294188 268.315459 
L 363.107451 275.420317 
L 363.920714 270.847515 
L 364.733977 269.225562 
L 365.54724 262.798625 
L 366.360503 258.696841 
L 367.173766 276.066304 
L 367.987029 265.170681 
L 368.800291 274.142314 
L 369.613554 268.712299 
L 370.426817 273.606764 
L 371.24008 270.974583 
L 372.053343 269.937079 
L 372.866606 284.603842 
L 373.679869 281.951371 
L 374.493132 273.69325 
L 375.306395 281.562515 
L 376.119657 274.271046 
L 376.93292 279.775572 
L 377.746183 276.948798 
L 378.559446 276.201688 
L 379.372709 273.960027 
L 380.185972 271.140238 
L 380.999235 273.289092 
L 381.812498 270.954625 
L 382.625761 281.272785 
L 383.439024 277.37491 
L 384.252286 251.171194 
L 385.065549 280.68368 
L 385.878812 271.408013 
L 386.692075 275.419984 
L 387.505338 277.007675 
L 388.318601 278.110044 
L 389.131864 277.292748 
L 389.945127 275.979152 
L 390.75839 274.028219 
L 391.571652 275.286928 
L 392.384915 269.16602 
L 393.198178 273.298406 
L 394.011441 272.339405 
L 394.824704 278.004264 
L 395.637967 274.48194 
L 397.264493 274.646264 
L 398.891018 284.460142 
L 399.704281 277.100482 
L 400.517544 266.465981 
L 401.330807 275.931917 
L 402.14407 267.63521 
L 402.957333 278.696156 
L 403.770596 267.004525 
L 404.583859 275.386055 
L 405.397122 276.100233 
L 406.210384 274.048842 
L 407.023647 274.64327 
L 407.83691 278.765677 
L 408.650173 268.55995 
L 409.463436 269.999616 
L 410.276699 276.54331 
L 411.089962 274.611336 
L 411.903225 275.862063 
L 412.716488 279.517444 
L 413.52975 278.095408 
L 414.343013 265.339329 
L 415.156276 278.273038 
L 415.969539 271.337494 
L 416.782802 272.259239 
L 417.596065 279.646841 
L 418.409328 272.940486 
L 419.222591 272.945143 
L 420.035854 272.797118 
L 420.849116 275.56934 
L 421.662379 276.4199 
L 422.475642 270.079116 
L 423.288905 277.316032 
L 424.102168 274.386139 
L 424.915431 273.103812 
L 425.728694 279.917277 
L 426.541957 270.074127 
L 427.35522 276.126179 
L 428.168482 270.184231 
L 428.981745 272.112545 
L 430.608271 261.636048 
L 431.421534 267.059743 
L 432.234797 271.183481 
L 433.04806 272.825392 
L 433.861323 275.840774 
L 434.674586 276.987051 
L 435.487848 269.973337 
L 436.301111 264.655421 
L 437.114374 270.522858 
L 437.927637 277.755117 
L 438.7409 260.867982 
L 439.554163 264.737583 
L 440.367426 264.166108 
L 441.180689 272.988719 
L 441.993952 278.441353 
L 442.807214 275.224392 
L 443.620477 276.09857 
L 444.43374 276.680357 
L 445.247003 271.005519 
L 446.060266 274.493582 
L 446.873529 268.681696 
L 447.686792 272.220985 
L 448.500055 261.842285 
L 449.313318 267.455252 
L 450.12658 271.106641 
L 450.939843 259.549397 
L 451.753106 273.357949 
L 452.566369 275.479527 
L 453.379632 266.0412 
L 454.192895 268.955126 
L 455.006158 270.525852 
L 455.819421 264.579247 
L 456.632684 285.457064 
L 457.445946 271.20976 
L 458.259209 270.454667 
L 459.072472 276.893247 
L 459.885735 269.210926 
L 460.698998 277.32335 
L 461.512261 275.876034 
L 462.325524 270.446018 
L 463.138787 272.218324 
L 463.95205 273.409841 
L 464.765312 280.2742 
L 465.578575 270.997868 
L 466.391838 277.243517 
L 467.205101 275.699735 
L 468.018364 278.478276 
L 468.831627 269.061238 
L 469.64489 270.122692 
L 470.458153 277.678943 
L 471.271416 268.35338 
L 472.084678 266.891427 
L 472.897941 268.894253 
L 473.711204 273.971004 
L 474.524467 275.934246 
L 475.33773 270.885436 
L 476.150993 267.413007 
L 476.964256 263.401368 
L 477.777519 271.099323 
L 478.590782 277.431791 
L 479.404044 271.188471 
L 480.217307 274.588717 
L 481.03057 277.214577 
L 481.843833 269.252173 
L 482.657096 271.132255 
L 483.470359 267.650512 
L 484.283622 270.599365 
L 485.096885 280.125177 
L 485.910148 270.170925 
L 486.72341 271.568678 
L 487.536673 272.412919 
L 488.349936 270.941319 
L 489.163199 270.857827 
L 490.789725 278.279025 
L 491.602988 275.20776 
L 492.416251 276.215327 
L 493.229514 275.793539 
L 494.856039 267.532092 
L 495.669302 267.601281 
L 496.482565 269.053255 
L 497.295828 271.834125 
L 498.109091 273.391213 
L 498.109091 273.391213 
" clip-path="url(#pe77d10a628)" style="fill: none; stroke: #0000ff; stroke-width: 1.5; stroke-linecap: square"/>
   </g>
   <g id="line2d_14">
    <path d="M 92.290909 329.998225 
L 93.104172 317.59674 
L 93.917435 311.295874 
L 94.730698 306.960244 
L 95.543961 301.473347 
L 96.357224 313.732129 
L 97.170486 306.532801 
L 98.797012 300.543618 
L 99.610275 297.780045 
L 100.423538 303.510102 
L 101.236801 299.219046 
L 102.050064 296.631107 
L 102.863327 293.57481 
L 103.67659 288.967746 
L 104.489852 300.791768 
L 105.303115 297.35859 
L 106.116378 291.947203 
L 106.929641 284.175069 
L 107.742904 282.912035 
L 108.556167 295.288572 
L 109.36943 291.717348 
L 110.995956 288.131822 
L 111.809218 284.677688 
L 112.622481 291.341133 
L 114.249007 283.195444 
L 115.06227 282.920018 
L 115.875533 285.31802 
L 116.688796 288.421884 
L 117.502059 286.485587 
L 119.128584 279.431955 
L 119.941847 281.166673 
L 120.75511 287.714026 
L 121.568373 277.055575 
L 122.381636 283.135902 
L 123.194899 276.611168 
L 124.008162 275.081357 
L 124.821425 284.813738 
L 125.634688 275.697406 
L 126.44795 277.233205 
L 127.261213 275.607261 
L 128.074476 275.059735 
L 128.887739 282.397774 
L 129.701002 280.161435 
L 130.514265 274.550131 
L 131.327528 273.75878 
L 132.140791 270.397453 
L 132.954054 280.84002 
L 133.767316 276.460482 
L 134.580579 277.89782 
L 135.393842 271.981485 
L 136.207105 272.193376 
L 137.020368 279.25233 
L 137.833631 273.765766 
L 138.646894 271.799531 
L 139.460157 272.076287 
L 140.27342 271.85109 
L 141.086682 278.514534 
L 141.899945 274.368509 
L 142.713208 272.538324 
L 143.526471 270.360197 
L 144.339734 269.346643 
L 145.152997 278.648256 
L 145.96626 271.390716 
L 146.779523 269.362943 
L 147.592786 267.941904 
L 148.406048 267.990803 
L 149.219311 278.175574 
L 150.032574 272.239613 
L 150.845837 269.625063 
L 151.6591 268.605189 
L 152.472363 268.370345 
L 153.285626 272.864976 
L 154.912152 269.519283 
L 155.725414 267.056749 
L 156.538677 267.078038 
L 157.35194 271.458575 
L 158.165203 269.480364 
L 158.978466 269.54157 
L 159.791729 268.170761 
L 160.604992 267.096334 
L 161.418255 271.673793 
L 162.231518 271.741651 
L 163.04478 267.607934 
L 163.858043 267.204109 
L 164.671306 265.067895 
L 165.484569 269.57683 
L 167.111095 268.293172 
L 167.924358 265.289433 
L 168.737621 264.385983 
L 169.550884 270.19554 
L 171.177409 266.075794 
L 171.990672 264.701991 
L 172.803935 263.105319 
L 173.617198 270.5029 
L 174.430461 267.999451 
L 175.243724 267.880699 
L 176.056987 266.822238 
L 176.87025 266.591719 
L 177.683512 271.59662 
L 178.496775 269.791383 
L 179.310038 269.148057 
L 180.123301 266.988891 
L 180.936564 267.654171 
L 181.749827 269.810676 
L 183.376353 268.429555 
L 184.189616 266.390804 
L 185.002878 266.989556 
L 185.816141 269.388556 
L 186.629404 269.410177 
L 187.442667 268.160116 
L 189.069193 266.362197 
L 189.882456 270.58107 
L 190.695719 270.389802 
L 191.508982 268.093256 
L 192.322244 267.503818 
L 193.135507 265.564859 
L 193.94877 270.055166 
L 194.762033 268.280532 
L 195.575296 265.94174 
L 196.388559 265.644693 
L 197.201822 264.433218 
L 198.015085 270.254085 
L 198.828348 268.859991 
L 199.64161 268.498744 
L 200.454873 266.272384 
L 201.268136 266.638621 
L 202.081399 269.870884 
L 202.894662 269.824314 
L 203.707925 268.85733 
L 205.334451 265.637375 
L 206.147714 269.878202 
L 206.960976 268.899242 
L 208.587502 266.153964 
L 209.400765 266.135669 
L 210.214028 270.368181 
L 211.027291 268.750552 
L 212.653817 266.374837 
L 213.46708 265.780077 
L 214.280343 269.325687 
L 215.093605 268.328432 
L 216.720131 267.291593 
L 217.533394 267.017831 
L 218.346657 268.096915 
L 219.15992 267.003527 
L 219.973183 267.59363 
L 221.599709 266.936334 
L 222.412971 268.185397 
L 223.226234 267.45126 
L 224.039497 268.147143 
L 224.85276 266.29068 
L 225.666023 265.237209 
L 226.479286 268.5197 
L 227.292549 267.486188 
L 228.105812 268.304149 
L 228.919075 266.703153 
L 230.5456 267.494504 
L 232.172126 266.381158 
L 232.985389 262.328272 
L 233.798652 260.899916 
L 234.611915 261.840622 
L 235.425178 259.535094 
L 236.238441 260.082952 
L 237.051703 258.227486 
L 237.864966 259.316549 
L 238.678229 263.458915 
L 239.491492 262.6985 
L 240.304755 260.785155 
L 241.118018 259.218753 
L 241.931281 259.104325 
L 242.744544 262.600371 
L 243.557807 261.40952 
L 245.184332 257.986987 
L 245.997595 257.178339 
L 246.810858 263.312554 
L 247.624121 261.523616 
L 248.437384 261.37426 
L 249.250647 258.111395 
L 250.06391 258.741082 
L 250.877173 260.188731 
L 252.503698 260.705654 
L 253.316961 260.005447 
L 254.130224 258.897756 
L 254.943487 261.482368 
L 255.75675 262.858167 
L 258.196539 258.767361 
L 259.009801 261.436464 
L 259.823064 262.569436 
L 260.636327 258.360209 
L 261.44959 258.942995 
L 262.262853 258.064492 
L 263.076116 262.15663 
L 263.889379 258.827901 
L 264.702642 258.239794 
L 265.515905 259.627235 
L 266.329167 259.937921 
L 267.955693 261.92478 
L 268.768956 260.115551 
L 269.582219 257.540917 
L 270.395482 258.659918 
L 271.208745 261.760123 
L 272.022008 260.098919 
L 272.835271 261.137753 
L 273.648533 259.201456 
L 274.461796 258.53418 
L 275.275059 260.176091 
L 276.088322 260.29318 
L 276.901585 258.933015 
L 277.714848 258.491269 
L 278.528111 258.351561 
L 279.341374 260.57792 
L 280.154637 260.414261 
L 280.967899 258.7647 
L 281.781162 259.595302 
L 282.594425 258.773681 
L 283.407688 261.355965 
L 284.220951 260.219334 
L 285.847477 260.529687 
L 286.66074 259.595967 
L 287.474003 263.858416 
L 288.287265 260.663741 
L 289.100528 260.176424 
L 289.913791 258.277715 
L 290.727054 259.307568 
L 291.540317 260.920207 
L 292.35358 261.910809 
L 293.980106 257.863578 
L 294.793369 258.088775 
L 295.606631 261.326693 
L 296.419894 260.100914 
L 297.233157 260.332099 
L 298.04642 258.633972 
L 298.859683 259.015177 
L 299.672946 260.714968 
L 300.486209 260.813762 
L 301.299472 260.316465 
L 302.112735 257.888526 
L 302.925997 259.931933 
L 304.552523 262.032888 
L 305.365786 259.432308 
L 306.992312 259.338504 
L 307.805575 260.462827 
L 308.618838 259.683784 
L 309.432101 259.601622 
L 310.245363 260.747899 
L 311.058626 260.517712 
L 311.871889 259.754304 
L 312.685152 259.743326 
L 313.498415 260.196715 
L 314.311678 258.5568 
L 315.124941 258.726446 
L 315.938204 261.829644 
L 316.751467 260.439542 
L 317.564729 260.939167 
L 318.377992 258.352226 
L 319.191255 260.245945 
L 320.004518 260.646777 
L 320.817781 258.725448 
L 321.631044 260.778169 
L 322.444307 259.169855 
L 323.25757 259.551726 
L 324.070833 258.725781 
L 324.884095 259.674803 
L 325.697358 260.81609 
L 326.510621 259.484865 
L 327.323884 259.184824 
L 328.137147 259.601954 
L 328.95041 260.39264 
L 329.763673 258.683203 
L 330.576936 257.809025 
L 331.390199 259.811518 
L 332.203461 260.527359 
L 333.016724 259.769272 
L 333.829987 260.282203 
L 334.64325 259.60262 
L 335.456513 257.511645 
L 336.269776 259.839127 
L 337.083039 260.252598 
L 337.896302 257.778755 
L 338.709565 259.250687 
L 339.522827 257.661665 
L 340.33609 259.993139 
L 341.962616 260.348066 
L 342.775879 260.084282 
L 343.589142 258.038546 
L 344.402405 261.011683 
L 345.215668 260.29318 
L 346.028931 259.897339 
L 346.842193 260.081289 
L 347.655456 259.769272 
L 348.468719 260.904573 
L 349.281982 261.707898 
L 350.095245 259.544075 
L 350.908508 259.014512 
L 351.721771 258.627319 
L 352.535034 260.585238 
L 353.348297 260.711641 
L 354.161559 259.62657 
L 354.974822 260.629479 
L 355.788085 259.063078 
L 356.601348 259.209439 
L 357.414611 260.27422 
L 358.227874 260.757213 
L 359.041137 260.337089 
L 359.8544 257.493017 
L 360.667663 260.003784 
L 361.480925 259.419335 
L 362.294188 260.263908 
L 363.920714 259.417672 
L 364.733977 260.976423 
L 366.360503 258.711144 
L 367.173766 259.593638 
L 367.987029 259.266321 
L 368.800291 258.591727 
L 369.613554 259.742994 
L 370.426817 260.229646 
L 371.24008 259.850769 
L 372.053343 259.177173 
L 372.866606 265.73384 
L 373.679869 265.673632 
L 374.493132 266.036875 
L 375.306395 265.131429 
L 376.119657 263.064404 
L 376.93292 262.940329 
L 378.559446 259.499501 
L 379.372709 263.020828 
L 380.185972 262.387814 
L 380.999235 264.252594 
L 381.812498 259.390063 
L 382.625761 259.368774 
L 383.439024 256.844036 
L 384.252286 259.594304 
L 385.065549 259.214096 
L 385.878812 259.526445 
L 386.692075 262.41243 
L 387.505338 259.259003 
L 388.318601 260.60686 
L 389.131864 259.951226 
L 389.945127 258.12969 
L 390.75839 257.858921 
L 391.571652 263.075381 
L 392.384915 262.497253 
L 393.198178 260.864988 
L 394.011441 262.078459 
L 394.824704 261.547233 
L 395.637967 258.104076 
L 396.45123 257.016011 
L 397.264493 259.716383 
L 398.077756 258.636633 
L 398.891018 262.259415 
L 399.704281 257.839295 
L 400.517544 256.43123 
L 401.330807 259.855426 
L 402.14407 257.791728 
L 402.957333 259.505489 
L 403.770596 262.333594 
L 404.583859 256.714307 
L 405.397122 262.331931 
L 406.210384 259.804865 
L 407.023647 257.68362 
L 407.83691 262.974591 
L 408.650173 261.844946 
L 409.463436 262.613677 
L 410.276699 258.493931 
L 411.089962 259.392391 
L 411.903225 259.031477 
L 412.716488 258.261083 
L 413.52975 256.690024 
L 414.343013 256.932851 
L 415.156276 256.979753 
L 415.969539 258.867818 
L 416.782802 258.817257 
L 417.596065 256.810107 
L 418.409328 255.509484 
L 419.222591 259.119959 
L 420.035854 260.137172 
L 420.849116 258.35655 
L 421.662379 259.427651 
L 422.475642 258.304991 
L 423.288905 258.853514 
L 424.102168 260.117214 
L 424.915431 260.3158 
L 425.728694 260.956464 
L 426.541957 257.858256 
L 427.35522 258.450022 
L 428.168482 257.533266 
L 428.981745 258.53418 
L 429.795008 256.551646 
L 430.608271 257.864908 
L 431.421534 258.424741 
L 432.234797 257.091188 
L 433.04806 256.775845 
L 433.861323 259.521123 
L 434.674586 257.196967 
L 435.487848 256.757217 
L 436.301111 256.995387 
L 437.114374 258.070147 
L 437.927637 256.721625 
L 438.7409 258.739752 
L 439.554163 255.730357 
L 440.367426 258.649273 
L 441.180689 256.847695 
L 442.807214 261.476713 
L 443.620477 259.28894 
L 444.43374 255.30225 
L 445.247003 258.684201 
L 446.060266 257.158381 
L 446.873529 256.687695 
L 447.686792 261.429479 
L 448.500055 255.717384 
L 449.313318 253.158385 
L 450.12658 259.677796 
L 450.939843 256.998714 
L 451.753106 257.044618 
L 453.379632 256.415263 
L 454.192895 257.632393 
L 455.006158 255.181501 
L 455.819421 258.346904 
L 456.632684 255.430981 
L 457.445946 256.169775 
L 459.072472 259.093348 
L 459.885735 256.345741 
L 460.698998 255.062084 
L 462.325524 258.621664 
L 463.138787 255.936594 
L 463.95205 255.066075 
L 464.765312 255.023497 
L 465.578575 257.687944 
L 466.391838 255.190483 
L 467.205101 255.507156 
L 468.018364 255.571356 
L 468.831627 254.943996 
L 469.64489 257.279795 
L 470.458153 255.164537 
L 471.271416 258.268401 
L 472.084678 255.210774 
L 472.897941 253.470401 
L 473.711204 254.92304 
L 474.524467 255.379755 
L 475.33773 255.422333 
L 476.150993 257.3889 
L 476.964256 254.696845 
L 477.777519 255.11198 
L 478.590782 256.964119 
L 479.404044 256.172103 
L 480.217307 257.786073 
L 481.03057 256.104577 
L 481.843833 256.231313 
L 482.657096 255.249693 
L 483.470359 255.868736 
L 484.283622 255.852436 
L 485.096885 258.026904 
L 485.910148 258.000625 
L 486.72341 260.983741 
L 487.536673 255.081044 
L 488.349936 260.357712 
L 489.163199 254.969942 
L 489.976462 257.946738 
L 490.789725 255.737343 
L 491.602988 255.754308 
L 492.416251 256.209026 
L 493.229514 253.522626 
L 494.042776 255.870399 
L 494.856039 255.336179 
L 495.669302 256.766198 
L 496.482565 254.096762 
L 497.295828 256.794473 
L 498.109091 255.116969 
L 498.109091 255.116969 
" clip-path="url(#pe77d10a628)" style="fill: none; stroke: #008000; stroke-width: 1.5; stroke-linecap: square"/>
   </g>
   <g id="patch_3">
    <path d="M 72 384.48 
L 72 51.84 
" style="fill: none; stroke: #000000; stroke-width: 0.8; stroke-linejoin: miter; stroke-linecap: square"/>
   </g>
   <g id="patch_4">
    <path d="M 518.4 384.48 
L 518.4 51.84 
" style="fill: none; stroke: #000000; stroke-width: 0.8; stroke-linejoin: miter; stroke-linecap: square"/>
   </g>
   <g id="patch_5">
    <path d="M 72 384.48 
L 518.4 384.48 
" style="fill: none; stroke: #000000; stroke-width: 0.8; stroke-linejoin: miter; stroke-linecap: square"/>
   </g>
   <g id="patch_6">
    <path d="M 72 51.84 
L 518.4 51.84 
" style="fill: none; stroke: #000000; stroke-width: 0.8; stroke-linejoin: miter; stroke-linecap: square"/>
   </g>
   <g id="legend_1">
    <g id="patch_7">
     <path d="M 79 89.19625 
L 160.740625 89.19625 
Q 162.740625 89.19625 162.740625 87.19625 
L 162.740625 58.84 
Q 162.740625 56.84 160.740625 56.84 
L 79 56.84 
Q 77 56.84 77 58.84 
L 77 87.19625 
Q 77 89.19625 79 89.19625 
z
" style="fill: #ffffff; opacity: 0.8; stroke: #cccccc; stroke-linejoin: miter"/>
    </g>
    <g id="line2d_15">
     <path d="M 81 64.938437 
L 91 64.938437 
L 101 64.938437 
" style="fill: none; stroke: #0000ff; stroke-width: 1.5; stroke-linecap: square"/>
    </g>
    <g id="text_15">
     <!-- train mAP -->
     <g transform="translate(109 68.438437) scale(0.1 -0.1)">
      <defs>
       <path id="DejaVuSans-69" d="M 603 3500 
L 1178 3500 
L 1178 0 
L 603 0 
L 603 3500 
z
M 603 4863 
L 1178 4863 
L 1178 4134 
L 603 4134 
L 603 4863 
z
" transform="scale(0.015625)"/>
       <path id="DejaVuSans-6e" d="M 3513 2113 
L 3513 0 
L 2938 0 
L 2938 2094 
Q 2938 2591 2744 2837 
Q 2550 3084 2163 3084 
Q 1697 3084 1428 2787 
Q 1159 2491 1159 1978 
L 1159 0 
L 581 0 
L 581 3500 
L 1159 3500 
L 1159 2956 
Q 1366 3272 1645 3428 
Q 1925 3584 2291 3584 
Q 2894 3584 3203 3211 
Q 3513 2838 3513 2113 
z
" transform="scale(0.015625)"/>
       <path id="DejaVuSans-20" transform="scale(0.015625)"/>
       <path id="DejaVuSans-6d" d="M 3328 2828 
Q 3544 3216 3844 3400 
Q 4144 3584 4550 3584 
Q 5097 3584 5394 3201 
Q 5691 2819 5691 2113 
L 5691 0 
L 5113 0 
L 5113 2094 
Q 5113 2597 4934 2840 
Q 4756 3084 4391 3084 
Q 3944 3084 3684 2787 
Q 3425 2491 3425 1978 
L 3425 0 
L 2847 0 
L 2847 2094 
Q 2847 2600 2669 2842 
Q 2491 3084 2119 3084 
Q 1678 3084 1418 2786 
Q 1159 2488 1159 1978 
L 1159 0 
L 581 0 
L 581 3500 
L 1159 3500 
L 1159 2956 
Q 1356 3278 1631 3431 
Q 1906 3584 2284 3584 
Q 2666 3584 2933 3390 
Q 3200 3197 3328 2828 
z
" transform="scale(0.015625)"/>
       <path id="DejaVuSans-41" d="M 2188 4044 
L 1331 1722 
L 3047 1722 
L 2188 4044 
z
M 1831 4666 
L 2547 4666 
L 4325 0 
L 3669 0 
L 3244 1197 
L 1141 1197 
L 716 0 
L 50 0 
L 1831 4666 
z
" transform="scale(0.015625)"/>
       <path id="DejaVuSans-50" d="M 1259 4147 
L 1259 2394 
L 2053 2394 
Q 2494 2394 2734 2622 
Q 2975 2850 2975 3272 
Q 2975 3691 2734 3919 
Q 2494 4147 2053 4147 
L 1259 4147 
z
M 628 4666 
L 2053 4666 
Q 2838 4666 3239 4311 
Q 3641 3956 3641 3272 
Q 3641 2581 3239 2228 
Q 2838 1875 2053 1875 
L 1259 1875 
L 1259 0 
L 628 0 
L 628 4666 
z
" transform="scale(0.015625)"/>
      </defs>
      <use xlink:href="#DejaVuSans-74"/>
      <use xlink:href="#DejaVuSans-72" x="39.208984"/>
      <use xlink:href="#DejaVuSans-61" x="80.322266"/>
      <use xlink:href="#DejaVuSans-69" x="141.601562"/>
      <use xlink:href="#DejaVuSans-6e" x="169.384766"/>
      <use xlink:href="#DejaVuSans-20" x="232.763672"/>
      <use xlink:href="#DejaVuSans-6d" x="264.550781"/>
      <use xlink:href="#DejaVuSans-41" x="361.962891"/>
      <use xlink:href="#DejaVuSans-50" x="430.371094"/>
     </g>
    </g>
    <g id="line2d_16">
     <path d="M 81 79.616562 
L 91 79.616562 
L 101 79.616562 
" style="fill: none; stroke: #008000; stroke-width: 1.5; stroke-linecap: square"/>
    </g>
    <g id="text_16">
     <!-- valid mAP -->
     <g transform="translate(109 83.116562) scale(0.1 -0.1)">
      <defs>
       <path id="DejaVuSans-76" d="M 191 3500 
L 800 3500 
L 1894 563 
L 2988 3500 
L 3597 3500 
L 2284 0 
L 1503 0 
L 191 3500 
z
" transform="scale(0.015625)"/>
       <path id="DejaVuSans-6c" d="M 603 4863 
L 1178 4863 
L 1178 0 
L 603 0 
L 603 4863 
z
" transform="scale(0.015625)"/>
       <path id="DejaVuSans-64" d="M 2906 2969 
L 2906 4863 
L 3481 4863 
L 3481 0 
L 2906 0 
L 2906 525 
Q 2725 213 2448 61 
Q 2172 -91 1784 -91 
Q 1150 -91 751 415 
Q 353 922 353 1747 
Q 353 2572 751 3078 
Q 1150 3584 1784 3584 
Q 2172 3584 2448 3432 
Q 2725 3281 2906 2969 
z
M 947 1747 
Q 947 1113 1208 752 
Q 1469 391 1925 391 
Q 2381 391 2643 752 
Q 2906 1113 2906 1747 
Q 2906 2381 2643 2742 
Q 2381 3103 1925 3103 
Q 1469 3103 1208 2742 
Q 947 2381 947 1747 
z
" transform="scale(0.015625)"/>
      </defs>
      <use xlink:href="#DejaVuSans-76"/>
      <use xlink:href="#DejaVuSans-61" x="59.179688"/>
      <use xlink:href="#DejaVuSans-6c" x="120.458984"/>
      <use xlink:href="#DejaVuSans-69" x="148.242188"/>
      <use xlink:href="#DejaVuSans-64" x="176.025391"/>
      <use xlink:href="#DejaVuSans-20" x="239.501953"/>
      <use xlink:href="#DejaVuSans-6d" x="271.289062"/>
      <use xlink:href="#DejaVuSans-41" x="368.701172"/>
      <use xlink:href="#DejaVuSans-50" x="437.109375"/>
     </g>
    </g>
   </g>
  </g>
  <g id="axes_2">
   <g id="matplotlib.axis_3">
    <g id="ytick_7">
     <g id="line2d_17">
      <defs>
       <path id="m209bcaaa54" d="M 0 0 
L 3.5 0 
" style="stroke: #000000; stroke-width: 0.8"/>
      </defs>
      <g>
       <use xlink:href="#m209bcaaa54" x="518.4" y="369.666513" style="stroke: #000000; stroke-width: 0.8"/>
      </g>
     </g>
     <g id="text_17">
      <!-- 0.12 -->
      <g transform="translate(525.4 373.465732) scale(0.1 -0.1)">
       <use xlink:href="#DejaVuSans-30"/>
       <use xlink:href="#DejaVuSans-2e" x="63.623047"/>
       <use xlink:href="#DejaVuSans-31" x="95.410156"/>
       <use xlink:href="#DejaVuSans-32" x="159.033203"/>
      </g>
     </g>
    </g>
    <g id="ytick_8">
     <g id="line2d_18">
      <g>
       <use xlink:href="#m209bcaaa54" x="518.4" y="306.076329" style="stroke: #000000; stroke-width: 0.8"/>
      </g>
     </g>
     <g id="text_18">
      <!-- 0.14 -->
      <g transform="translate(525.4 309.875548) scale(0.1 -0.1)">
       <use xlink:href="#DejaVuSans-30"/>
       <use xlink:href="#DejaVuSans-2e" x="63.623047"/>
       <use xlink:href="#DejaVuSans-31" x="95.410156"/>
       <use xlink:href="#DejaVuSans-34" x="159.033203"/>
      </g>
     </g>
    </g>
    <g id="ytick_9">
     <g id="line2d_19">
      <g>
       <use xlink:href="#m209bcaaa54" x="518.4" y="242.486145" style="stroke: #000000; stroke-width: 0.8"/>
      </g>
     </g>
     <g id="text_19">
      <!-- 0.16 -->
      <g transform="translate(525.4 246.285364) scale(0.1 -0.1)">
       <use xlink:href="#DejaVuSans-30"/>
       <use xlink:href="#DejaVuSans-2e" x="63.623047"/>
       <use xlink:href="#DejaVuSans-31" x="95.410156"/>
       <use xlink:href="#DejaVuSans-36" x="159.033203"/>
      </g>
     </g>
    </g>
    <g id="ytick_10">
     <g id="line2d_20">
      <g>
       <use xlink:href="#m209bcaaa54" x="518.4" y="178.895961" style="stroke: #000000; stroke-width: 0.8"/>
      </g>
     </g>
     <g id="text_20">
      <!-- 0.18 -->
      <g transform="translate(525.4 182.69518) scale(0.1 -0.1)">
       <use xlink:href="#DejaVuSans-30"/>
       <use xlink:href="#DejaVuSans-2e" x="63.623047"/>
       <use xlink:href="#DejaVuSans-31" x="95.410156"/>
       <use xlink:href="#DejaVuSans-38" x="159.033203"/>
      </g>
     </g>
    </g>
    <g id="ytick_11">
     <g id="line2d_21">
      <g>
       <use xlink:href="#m209bcaaa54" x="518.4" y="115.305777" style="stroke: #000000; stroke-width: 0.8"/>
      </g>
     </g>
     <g id="text_21">
      <!-- 0.20 -->
      <g transform="translate(525.4 119.104995) scale(0.1 -0.1)">
       <use xlink:href="#DejaVuSans-30"/>
       <use xlink:href="#DejaVuSans-2e" x="63.623047"/>
       <use xlink:href="#DejaVuSans-32" x="95.410156"/>
       <use xlink:href="#DejaVuSans-30" x="159.033203"/>
      </g>
     </g>
    </g>
    <g id="text_22">
     <!-- loss -->
     <g transform="translate(559.264063 227.817812) rotate(-90) scale(0.1 -0.1)">
      <defs>
       <path id="DejaVuSans-73" d="M 2834 3397 
L 2834 2853 
Q 2591 2978 2328 3040 
Q 2066 3103 1784 3103 
Q 1356 3103 1142 2972 
Q 928 2841 928 2578 
Q 928 2378 1081 2264 
Q 1234 2150 1697 2047 
L 1894 2003 
Q 2506 1872 2764 1633 
Q 3022 1394 3022 966 
Q 3022 478 2636 193 
Q 2250 -91 1575 -91 
Q 1294 -91 989 -36 
Q 684 19 347 128 
L 347 722 
Q 666 556 975 473 
Q 1284 391 1588 391 
Q 1994 391 2212 530 
Q 2431 669 2431 922 
Q 2431 1156 2273 1281 
Q 2116 1406 1581 1522 
L 1381 1569 
Q 847 1681 609 1914 
Q 372 2147 372 2553 
Q 372 3047 722 3315 
Q 1072 3584 1716 3584 
Q 2034 3584 2315 3537 
Q 2597 3491 2834 3397 
z
" transform="scale(0.015625)"/>
      </defs>
      <use xlink:href="#DejaVuSans-6c"/>
      <use xlink:href="#DejaVuSans-6f" x="27.783203"/>
      <use xlink:href="#DejaVuSans-73" x="88.964844"/>
      <use xlink:href="#DejaVuSans-73" x="141.064453"/>
     </g>
    </g>
   </g>
   <g id="line2d_22">
    <path d="M 92.290909 257.317623 
L 93.104172 293.40579 
L 93.917435 303.913931 
L 94.730698 316.332472 
L 95.543961 326.485298 
L 96.357224 289.300635 
L 97.983749 314.420207 
L 98.797012 322.830242 
L 99.610275 327.428013 
L 100.423538 304.757661 
L 102.050064 328.25096 
L 102.863327 328.31736 
L 103.67659 335.935846 
L 104.489852 316.745259 
L 106.116378 331.825575 
L 107.742904 340.073831 
L 108.556167 319.506372 
L 109.36943 334.05471 
L 110.182693 338.320877 
L 110.995956 343.269163 
L 111.809218 346.624094 
L 112.622481 330.200489 
L 114.249007 341.238 
L 115.06227 348.825978 
L 115.875533 346.356745 
L 116.688796 334.878079 
L 117.502059 339.85805 
L 118.315322 339.410468 
L 119.128584 348.288047 
L 119.941847 348.914415 
L 120.75511 337.457755 
L 121.568373 347.112879 
L 122.381636 347.642808 
L 123.194899 349.253602 
L 124.008162 352.296774 
L 124.821425 343.892333 
L 126.44795 350.956544 
L 127.261213 354.3874 
L 128.074476 354.57926 
L 128.887739 341.301544 
L 129.701002 349.214065 
L 130.514265 353.268783 
L 132.140791 355.280391 
L 132.954054 347.794799 
L 133.767316 347.152278 
L 136.207105 358.27371 
L 137.020368 348.923954 
L 137.833631 354.166438 
L 138.646894 353.504022 
L 139.460157 358.939007 
L 140.27342 361.157335 
L 141.086682 353.0163 
L 141.899945 351.259235 
L 142.713208 357.738914 
L 143.526471 362.907862 
L 144.339734 362.778786 
L 145.152997 348.435973 
L 145.96626 357.147386 
L 146.779523 361.057795 
L 148.406048 358.574322 
L 149.219311 353.610157 
L 150.032574 356.493599 
L 150.845837 362.343591 
L 151.6591 364.368459 
L 152.472363 363.547469 
L 153.285626 352.768097 
L 154.098889 357.680856 
L 154.912152 361.583658 
L 155.725414 364.55585 
L 156.538677 363.756666 
L 157.35194 357.479695 
L 158.165203 358.474871 
L 158.978466 359.08165 
L 159.791729 366.291608 
L 160.604992 364.392933 
L 161.418255 351.590995 
L 162.231518 359.348742 
L 163.04478 365.109441 
L 163.858043 366.665455 
L 164.671306 364.253459 
L 165.484569 355.185918 
L 166.297832 361.522132 
L 167.111095 362.421998 
L 167.924358 365.402179 
L 168.737621 369.36 
L 169.550884 356.837441 
L 170.364146 361.030724 
L 171.177409 363.563008 
L 171.990672 367.953339 
L 172.803935 365.466264 
L 173.617198 360.147838 
L 174.430461 359.738703 
L 175.243724 364.38238 
L 176.056987 359.59378 
L 176.87025 363.265872 
L 177.683512 345.563313 
L 178.496775 353.271497 
L 179.310038 357.430243 
L 180.123301 363.695623 
L 180.936564 358.83608 
L 181.749827 350.899745 
L 182.56309 357.184465 
L 183.376353 360.328384 
L 184.189616 362.845349 
L 185.002878 361.876322 
L 185.816141 349.676817 
L 187.442667 356.14187 
L 188.25593 359.973419 
L 189.069193 362.613878 
L 189.882456 346.975901 
L 190.695719 353.451013 
L 191.508982 355.134494 
L 192.322244 357.183311 
L 193.135507 362.876581 
L 193.94877 347.228434 
L 194.762033 347.123087 
L 195.575296 355.581566 
L 196.388559 354.507825 
L 197.201822 362.256306 
L 198.015085 344.554737 
L 198.828348 353.079496 
L 199.64161 357.398744 
L 200.454873 359.660577 
L 201.268136 360.490931 
L 202.081399 344.737236 
L 202.894662 353.647092 
L 205.334451 361.766781 
L 206.147714 342.754128 
L 206.960976 354.72074 
L 207.774239 356.545999 
L 208.587502 360.976249 
L 209.400765 359.529288 
L 210.214028 339.221942 
L 211.027291 351.265685 
L 211.840554 357.327839 
L 212.653817 358.848483 
L 213.46708 359.592082 
L 214.280343 338.165214 
L 215.093605 351.470641 
L 215.906868 353.767057 
L 216.720131 355.455894 
L 217.533394 357.557496 
L 218.346657 341.083189 
L 219.15992 352.33288 
L 219.973183 356.890781 
L 220.786446 358.182265 
L 221.599709 358.108705 
L 222.412971 339.318645 
L 223.226234 351.703462 
L 224.039497 356.088036 
L 224.85276 355.055626 
L 225.666023 362.799215 
L 226.479286 339.99348 
L 227.292549 347.708865 
L 228.105812 351.098562 
L 228.919075 358.042932 
L 229.732337 355.180978 
L 230.5456 285.813517 
L 231.358863 321.609513 
L 232.172126 338.390927 
L 232.985389 342.899797 
L 233.798652 346.389428 
L 234.611915 324.436392 
L 235.425178 337.520632 
L 236.238441 347.500321 
L 237.864966 354.871963 
L 238.678229 326.629566 
L 239.491492 340.008345 
L 240.304755 348.855763 
L 241.118018 354.174697 
L 241.931281 354.102573 
L 242.744544 327.648154 
L 243.557807 341.555427 
L 244.371069 346.456291 
L 245.184332 347.246288 
L 245.997595 352.13562 
L 246.810858 322.531492 
L 247.624121 337.768131 
L 249.250647 350.894701 
L 250.06391 350.810422 
L 250.877173 322.95088 
L 251.690435 337.037008 
L 252.503698 347.133228 
L 253.316961 348.297642 
L 254.130224 351.421768 
L 254.943487 324.510467 
L 256.570013 347.506659 
L 257.383276 345.510403 
L 258.196539 353.239329 
L 259.009801 317.878932 
L 259.823064 334.409935 
L 260.636327 347.933691 
L 261.44959 348.793728 
L 262.262853 348.006231 
L 263.076116 315.499073 
L 263.889379 336.079974 
L 265.515905 348.699969 
L 266.329167 350.549418 
L 267.14243 318.268216 
L 267.955693 331.679957 
L 268.768956 342.841219 
L 269.582219 347.448997 
L 270.395482 350.138983 
L 271.208745 306.433658 
L 272.022008 335.282323 
L 272.835271 342.843238 
L 273.648533 346.623532 
L 274.461796 349.004975 
L 275.275059 313.028017 
L 276.088322 332.734588 
L 277.714848 348.442577 
L 278.528111 344.410332 
L 279.341374 311.136659 
L 280.154637 334.936997 
L 280.967899 338.51627 
L 281.781162 346.422188 
L 282.594425 349.588979 
L 283.407688 309.066596 
L 284.220951 334.427154 
L 285.847477 346.503447 
L 286.66074 350.614666 
L 287.474003 299.777946 
L 288.287265 330.022573 
L 289.913791 343.278412 
L 290.727054 343.006276 
L 291.540317 304.599554 
L 292.35358 333.406332 
L 293.166843 336.565456 
L 293.980106 345.212487 
L 294.793369 341.30352 
L 295.606631 307.745311 
L 296.419894 327.399909 
L 297.233157 338.389734 
L 298.04642 339.525185 
L 298.859683 343.455063 
L 299.672946 301.667343 
L 300.486209 327.954676 
L 301.299472 337.794903 
L 302.112735 341.552605 
L 302.925997 343.525483 
L 303.73926 300.6463 
L 304.552523 322.236929 
L 305.365786 338.145259 
L 306.179049 340.501246 
L 306.992312 347.064619 
L 307.805575 300.35887 
L 308.618838 322.529675 
L 309.432101 332.831068 
L 310.245363 334.963728 
L 311.058626 340.70394 
L 311.871889 296.413715 
L 312.685152 322.298831 
L 313.498415 333.486467 
L 314.311678 338.846874 
L 315.124941 343.347665 
L 315.938204 304.905219 
L 316.751467 321.408711 
L 317.564729 330.639607 
L 318.377992 338.448193 
L 319.191255 344.608635 
L 320.004518 298.5578 
L 320.817781 322.63752 
L 321.631044 333.655756 
L 322.444307 338.700073 
L 323.25757 341.220476 
L 324.070833 298.062854 
L 324.884095 323.301015 
L 325.697358 331.744646 
L 326.510621 335.966763 
L 327.323884 342.691507 
L 328.137147 289.704481 
L 328.95041 315.218161 
L 329.763673 327.425614 
L 331.390199 339.719295 
L 332.203461 289.644173 
L 333.016724 316.617581 
L 333.829987 327.70344 
L 334.64325 330.434948 
L 335.456513 342.185746 
L 336.269776 284.124444 
L 337.083039 312.649837 
L 337.896302 324.010159 
L 338.709565 333.17813 
L 339.522827 338.261947 
L 340.33609 285.696745 
L 341.962616 325.789531 
L 342.775879 333.867689 
L 343.589142 340.111385 
L 344.402405 274.882217 
L 345.215668 303.962687 
L 346.028931 321.282611 
L 346.842193 324.823636 
L 347.655456 333.937444 
L 348.468719 279.642943 
L 349.281982 307.289696 
L 351.721771 335.133829 
L 352.535034 278.009087 
L 353.348297 304.84409 
L 354.161559 319.104661 
L 355.788085 335.231141 
L 356.601348 277.372366 
L 357.414611 304.801288 
L 358.227874 315.544859 
L 359.041137 324.16343 
L 359.8544 335.738631 
L 360.667663 283.708492 
L 361.480925 306.354555 
L 362.294188 320.546861 
L 363.107451 323.907698 
L 363.920714 330.496552 
L 364.733977 281.585161 
L 366.360503 320.975399 
L 367.173766 328.378676 
L 367.987029 330.081391 
L 368.800291 288.562997 
L 369.613554 297.042312 
L 370.426817 312.919474 
L 371.24008 318.399364 
L 372.053343 330.575073 
L 372.866606 66.96 
L 373.679869 144.526973 
L 374.493132 210.196638 
L 375.306395 251.930346 
L 376.119657 284.208603 
L 376.93292 180.544016 
L 378.559446 268.846598 
L 379.372709 290.263972 
L 380.185972 298.409126 
L 380.999235 206.484724 
L 381.812498 251.588189 
L 382.625761 282.333664 
L 383.439024 296.581149 
L 384.252286 316.512193 
L 385.065549 213.03295 
L 385.878812 259.091696 
L 386.692075 283.78889 
L 387.505338 299.103094 
L 388.318601 309.826149 
L 389.131864 232.787257 
L 389.945127 266.787478 
L 390.75839 283.86376 
L 391.571652 298.361533 
L 392.384915 306.725833 
L 393.198178 244.485548 
L 394.011441 266.649451 
L 395.637967 298.957096 
L 396.45123 313.315382 
L 397.264493 243.876866 
L 398.077756 275.786795 
L 398.891018 287.956657 
L 399.704281 306.941808 
L 400.517544 308.116206 
L 401.330807 255.464329 
L 403.770596 302.942672 
L 404.583859 312.837799 
L 405.397122 249.775572 
L 406.210384 273.884553 
L 407.023647 285.215809 
L 407.83691 302.666585 
L 408.650173 307.693254 
L 409.463436 252.732622 
L 410.276699 267.341467 
L 411.089962 286.087371 
L 411.903225 289.821843 
L 412.716488 307.731427 
L 413.52975 258.074577 
L 414.343013 277.386495 
L 415.156276 285.089803 
L 415.969539 300.801275 
L 416.782802 306.291535 
L 417.596065 258.120644 
L 418.409328 279.352424 
L 419.222591 286.128585 
L 420.035854 302.209401 
L 420.849116 308.665051 
L 421.662379 258.06968 
L 423.288905 284.078127 
L 424.915431 305.135893 
L 425.728694 255.468999 
L 426.541957 285.101703 
L 427.35522 287.572239 
L 428.168482 303.148001 
L 428.981745 304.695193 
L 429.795008 256.714719 
L 430.608271 282.465519 
L 431.421534 288.036592 
L 432.234797 297.601027 
L 433.04806 305.526115 
L 433.861323 260.77924 
L 434.674586 279.656371 
L 435.487848 286.170916 
L 436.301111 302.426731 
L 437.114374 299.962014 
L 437.927637 265.021984 
L 439.554163 289.822284 
L 440.367426 299.889537 
L 441.180689 308.141252 
L 441.993952 263.215248 
L 442.807214 282.504886 
L 443.620477 290.958264 
L 445.247003 311.442263 
L 446.060266 264.030017 
L 446.873529 281.022408 
L 447.686792 293.338229 
L 448.500055 300.562463 
L 449.313318 306.002073 
L 450.12658 258.829644 
L 450.939843 283.547779 
L 451.753106 292.955757 
L 452.566369 300.582124 
L 453.379632 304.599106 
L 454.192895 263.98217 
L 455.006158 287.833645 
L 455.819421 285.103349 
L 456.632684 304.990092 
L 457.445946 311.228186 
L 458.259209 273.55991 
L 459.885735 295.030384 
L 460.698998 307.480146 
L 461.512261 314.713737 
L 462.325524 265.060134 
L 463.138787 286.527462 
L 463.95205 300.203817 
L 464.765312 308.047144 
L 465.578575 309.497003 
L 466.391838 276.257341 
L 467.205101 285.576856 
L 468.018364 300.730247 
L 468.831627 308.460438 
L 469.64489 310.434978 
L 470.458153 275.979576 
L 471.271416 281.464241 
L 472.897941 309.38209 
L 473.711204 317.737654 
L 474.524467 270.249275 
L 475.33773 288.749269 
L 476.150993 297.313367 
L 476.964256 310.988512 
L 477.777519 315.077684 
L 478.590782 276.772099 
L 480.217307 300.865571 
L 481.843833 317.174747 
L 482.657096 274.132016 
L 483.470359 297.582682 
L 484.283622 300.096751 
L 485.096885 310.401087 
L 485.910148 311.256311 
L 486.72341 274.052227 
L 487.536673 291.125323 
L 488.349936 294.987945 
L 489.163199 307.761655 
L 489.976462 318.168618 
L 490.789725 284.33544 
L 491.602988 287.241611 
L 492.416251 301.316787 
L 493.229514 308.256378 
L 494.042776 311.488574 
L 494.856039 271.981814 
L 495.669302 288.865522 
L 496.482565 302.703593 
L 497.295828 310.193242 
L 498.109091 316.601204 
L 498.109091 316.601204 
" clip-path="url(#pe77d10a628)" style="fill: none; stroke: #ff0000; stroke-width: 1.5; stroke-linecap: square"/>
   </g>
   <g id="patch_8">
    <path d="M 72 384.48 
L 72 51.84 
" style="fill: none; stroke: #000000; stroke-width: 0.8; stroke-linejoin: miter; stroke-linecap: square"/>
   </g>
   <g id="patch_9">
    <path d="M 518.4 384.48 
L 518.4 51.84 
" style="fill: none; stroke: #000000; stroke-width: 0.8; stroke-linejoin: miter; stroke-linecap: square"/>
   </g>
   <g id="patch_10">
    <path d="M 72 384.48 
L 518.4 384.48 
" style="fill: none; stroke: #000000; stroke-width: 0.8; stroke-linejoin: miter; stroke-linecap: square"/>
   </g>
   <g id="patch_11">
    <path d="M 72 51.84 
L 518.4 51.84 
" style="fill: none; stroke: #000000; stroke-width: 0.8; stroke-linejoin: miter; stroke-linecap: square"/>
   </g>
   <g id="text_23">
    <!-- The learning curve on flag_resnet/host/5 -->
    <g transform="translate(173.578125 45.84) scale(0.12 -0.12)">
     <defs>
      <path id="DejaVuSans-54" d="M -19 4666 
L 3928 4666 
L 3928 4134 
L 2272 4134 
L 2272 0 
L 1638 0 
L 1638 4134 
L -19 4134 
L -19 4666 
z
" transform="scale(0.015625)"/>
      <path id="DejaVuSans-67" d="M 2906 1791 
Q 2906 2416 2648 2759 
Q 2391 3103 1925 3103 
Q 1463 3103 1205 2759 
Q 947 2416 947 1791 
Q 947 1169 1205 825 
Q 1463 481 1925 481 
Q 2391 481 2648 825 
Q 2906 1169 2906 1791 
z
M 3481 434 
Q 3481 -459 3084 -895 
Q 2688 -1331 1869 -1331 
Q 1566 -1331 1297 -1286 
Q 1028 -1241 775 -1147 
L 775 -588 
Q 1028 -725 1275 -790 
Q 1522 -856 1778 -856 
Q 2344 -856 2625 -561 
Q 2906 -266 2906 331 
L 2906 616 
Q 2728 306 2450 153 
Q 2172 0 1784 0 
Q 1141 0 747 490 
Q 353 981 353 1791 
Q 353 2603 747 3093 
Q 1141 3584 1784 3584 
Q 2172 3584 2450 3431 
Q 2728 3278 2906 2969 
L 2906 3500 
L 3481 3500 
L 3481 434 
z
" transform="scale(0.015625)"/>
      <path id="DejaVuSans-75" d="M 544 1381 
L 544 3500 
L 1119 3500 
L 1119 1403 
Q 1119 906 1312 657 
Q 1506 409 1894 409 
Q 2359 409 2629 706 
Q 2900 1003 2900 1516 
L 2900 3500 
L 3475 3500 
L 3475 0 
L 2900 0 
L 2900 538 
Q 2691 219 2414 64 
Q 2138 -91 1772 -91 
Q 1169 -91 856 284 
Q 544 659 544 1381 
z
M 1991 3584 
L 1991 3584 
z
" transform="scale(0.015625)"/>
      <path id="DejaVuSans-66" d="M 2375 4863 
L 2375 4384 
L 1825 4384 
Q 1516 4384 1395 4259 
Q 1275 4134 1275 3809 
L 1275 3500 
L 2222 3500 
L 2222 3053 
L 1275 3053 
L 1275 0 
L 697 0 
L 697 3053 
L 147 3053 
L 147 3500 
L 697 3500 
L 697 3744 
Q 697 4328 969 4595 
Q 1241 4863 1831 4863 
L 2375 4863 
z
" transform="scale(0.015625)"/>
      <path id="DejaVuSans-5f" d="M 3263 -1063 
L 3263 -1509 
L -63 -1509 
L -63 -1063 
L 3263 -1063 
z
" transform="scale(0.015625)"/>
      <path id="DejaVuSans-2f" d="M 1625 4666 
L 2156 4666 
L 531 -594 
L 0 -594 
L 1625 4666 
z
" transform="scale(0.015625)"/>
     </defs>
     <use xlink:href="#DejaVuSans-54"/>
     <use xlink:href="#DejaVuSans-68" x="61.083984"/>
     <use xlink:href="#DejaVuSans-65" x="124.462891"/>
     <use xlink:href="#DejaVuSans-20" x="185.986328"/>
     <use xlink:href="#DejaVuSans-6c" x="217.773438"/>
     <use xlink:href="#DejaVuSans-65" x="245.556641"/>
     <use xlink:href="#DejaVuSans-61" x="307.080078"/>
     <use xlink:href="#DejaVuSans-72" x="368.359375"/>
     <use xlink:href="#DejaVuSans-6e" x="407.722656"/>
     <use xlink:href="#DejaVuSans-69" x="471.101562"/>
     <use xlink:href="#DejaVuSans-6e" x="498.884766"/>
     <use xlink:href="#DejaVuSans-67" x="562.263672"/>
     <use xlink:href="#DejaVuSans-20" x="625.740234"/>
     <use xlink:href="#DejaVuSans-63" x="657.527344"/>
     <use xlink:href="#DejaVuSans-75" x="712.507812"/>
     <use xlink:href="#DejaVuSans-72" x="775.886719"/>
     <use xlink:href="#DejaVuSans-76" x="817"/>
     <use xlink:href="#DejaVuSans-65" x="876.179688"/>
     <use xlink:href="#DejaVuSans-20" x="937.703125"/>
     <use xlink:href="#DejaVuSans-6f" x="969.490234"/>
     <use xlink:href="#DejaVuSans-6e" x="1030.671875"/>
     <use xlink:href="#DejaVuSans-20" x="1094.050781"/>
     <use xlink:href="#DejaVuSans-66" x="1125.837891"/>
     <use xlink:href="#DejaVuSans-6c" x="1161.042969"/>
     <use xlink:href="#DejaVuSans-61" x="1188.826172"/>
     <use xlink:href="#DejaVuSans-67" x="1250.105469"/>
     <use xlink:href="#DejaVuSans-5f" x="1313.582031"/>
     <use xlink:href="#DejaVuSans-72" x="1363.582031"/>
     <use xlink:href="#DejaVuSans-65" x="1402.445312"/>
     <use xlink:href="#DejaVuSans-73" x="1463.96875"/>
     <use xlink:href="#DejaVuSans-6e" x="1516.068359"/>
     <use xlink:href="#DejaVuSans-65" x="1579.447266"/>
     <use xlink:href="#DejaVuSans-74" x="1640.970703"/>
     <use xlink:href="#DejaVuSans-2f" x="1680.179688"/>
     <use xlink:href="#DejaVuSans-68" x="1713.871094"/>
     <use xlink:href="#DejaVuSans-6f" x="1777.25"/>
     <use xlink:href="#DejaVuSans-73" x="1838.431641"/>
     <use xlink:href="#DejaVuSans-74" x="1890.53125"/>
     <use xlink:href="#DejaVuSans-2f" x="1929.740234"/>
     <use xlink:href="#DejaVuSans-35" x="1963.431641"/>
    </g>
   </g>
   <g id="legend_2">
    <g id="patch_12">
     <path d="M 460.084375 74.518125 
L 511.4 74.518125 
Q 513.4 74.518125 513.4 72.518125 
L 513.4 58.84 
Q 513.4 56.84 511.4 56.84 
L 460.084375 56.84 
Q 458.084375 56.84 458.084375 58.84 
L 458.084375 72.518125 
Q 458.084375 74.518125 460.084375 74.518125 
z
" style="fill: #ffffff; opacity: 0.8; stroke: #cccccc; stroke-linejoin: miter"/>
    </g>
    <g id="line2d_23">
     <path d="M 462.084375 64.938438 
L 472.084375 64.938438 
L 482.084375 64.938438 
" style="fill: none; stroke: #ff0000; stroke-width: 1.5; stroke-linecap: square"/>
    </g>
    <g id="text_24">
     <!-- loss -->
     <g transform="translate(490.084375 68.438438) scale(0.1 -0.1)">
      <use xlink:href="#DejaVuSans-6c"/>
      <use xlink:href="#DejaVuSans-6f" x="27.783203"/>
      <use xlink:href="#DejaVuSans-73" x="88.964844"/>
      <use xlink:href="#DejaVuSans-73" x="141.064453"/>
     </g>
    </g>
   </g>
  </g>
 </g>
 <defs>
  <clipPath id="pe77d10a628">
   <rect x="72" y="51.84" width="446.4" height="332.64"/>
  </clipPath>
 </defs>
</svg>
