<?xml version="1.0" encoding="utf-8" standalone="no"?>
<!DOCTYPE svg PUBLIC "-//W3C//DTD SVG 1.1//EN"
  "http://www.w3.org/Graphics/SVG/1.1/DTD/svg11.dtd">
<svg xmlns:xlink="http://www.w3.org/1999/xlink" width="576pt" height="432pt" viewBox="0 0 576 432" xmlns="http://www.w3.org/2000/svg" version="1.1">
 <metadata>
  <rdf:RDF xmlns:dc="http://purl.org/dc/elements/1.1/" xmlns:cc="http://creativecommons.org/ns#" xmlns:rdf="http://www.w3.org/1999/02/22-rdf-syntax-ns#">
   <cc:Work>
    <dc:type rdf:resource="http://purl.org/dc/dcmitype/StillImage"/>
    <dc:date>2023-06-19T00:36:23.858412</dc:date>
    <dc:format>image/svg+xml</dc:format>
    <dc:creator>
     <cc:Agent>
      <dc:title>Matplotlib v3.7.1, https://matplotlib.org/</dc:title>
     </cc:Agent>
    </dc:creator>
   </cc:Work>
  </rdf:RDF>
 </metadata>
 <defs>
  <style type="text/css">*{stroke-linejoin: round; stroke-linecap: butt}</style>
 </defs>
 <g id="figure_1">
  <g id="patch_1">
   <path d="M 0 432 
L 576 432 
L 576 0 
L 0 0 
z
" style="fill: #ffffff"/>
  </g>
  <g id="axes_1">
   <g id="patch_2">
    <path d="M 72 384.48 
L 518.4 384.48 
L 518.4 51.84 
L 72 51.84 
z
" style="fill: #ffffff"/>
   </g>
   <g id="matplotlib.axis_1">
    <g id="xtick_1">
     <g id="line2d_1">
      <defs>
       <path id="m0ef628c98a" d="M 0 0 
L 0 3.5 
" style="stroke: #000000; stroke-width: 0.8"/>
      </defs>
      <g>
       <use xlink:href="#m0ef628c98a" x="92.290909" y="384.48" style="stroke: #000000; stroke-width: 0.8"/>
      </g>
     </g>
     <g id="text_1">
      <!-- 0 -->
      <g transform="translate(89.109659 399.078438) scale(0.1 -0.1)">
       <defs>
        <path id="DejaVuSans-30" d="M 2034 4250 
Q 1547 4250 1301 3770 
Q 1056 3291 1056 2328 
Q 1056 1369 1301 889 
Q 1547 409 2034 409 
Q 2525 409 2770 889 
Q 3016 1369 3016 2328 
Q 3016 3291 2770 3770 
Q 2525 4250 2034 4250 
z
M 2034 4750 
Q 2819 4750 3233 4129 
Q 3647 3509 3647 2328 
Q 3647 1150 3233 529 
Q 2819 -91 2034 -91 
Q 1250 -91 836 529 
Q 422 1150 422 2328 
Q 422 3509 836 4129 
Q 1250 4750 2034 4750 
z
" transform="scale(0.015625)"/>
       </defs>
       <use xlink:href="#DejaVuSans-30"/>
      </g>
     </g>
    </g>
    <g id="xtick_2">
     <g id="line2d_2">
      <g>
       <use xlink:href="#m0ef628c98a" x="173.617198" y="384.48" style="stroke: #000000; stroke-width: 0.8"/>
      </g>
     </g>
     <g id="text_2">
      <!-- 100 -->
      <g transform="translate(164.073448 399.078438) scale(0.1 -0.1)">
       <defs>
        <path id="DejaVuSans-31" d="M 794 531 
L 1825 531 
L 1825 4091 
L 703 3866 
L 703 4441 
L 1819 4666 
L 2450 4666 
L 2450 531 
L 3481 531 
L 3481 0 
L 794 0 
L 794 531 
z
" transform="scale(0.015625)"/>
       </defs>
       <use xlink:href="#DejaVuSans-31"/>
       <use xlink:href="#DejaVuSans-30" x="63.623047"/>
       <use xlink:href="#DejaVuSans-30" x="127.246094"/>
      </g>
     </g>
    </g>
    <g id="xtick_3">
     <g id="line2d_3">
      <g>
       <use xlink:href="#m0ef628c98a" x="254.943487" y="384.48" style="stroke: #000000; stroke-width: 0.8"/>
      </g>
     </g>
     <g id="text_3">
      <!-- 200 -->
      <g transform="translate(245.399737 399.078438) scale(0.1 -0.1)">
       <defs>
        <path id="DejaVuSans-32" d="M 1228 531 
L 3431 531 
L 3431 0 
L 469 0 
L 469 531 
Q 828 903 1448 1529 
Q 2069 2156 2228 2338 
Q 2531 2678 2651 2914 
Q 2772 3150 2772 3378 
Q 2772 3750 2511 3984 
Q 2250 4219 1831 4219 
Q 1534 4219 1204 4116 
Q 875 4013 500 3803 
L 500 4441 
Q 881 4594 1212 4672 
Q 1544 4750 1819 4750 
Q 2544 4750 2975 4387 
Q 3406 4025 3406 3419 
Q 3406 3131 3298 2873 
Q 3191 2616 2906 2266 
Q 2828 2175 2409 1742 
Q 1991 1309 1228 531 
z
" transform="scale(0.015625)"/>
       </defs>
       <use xlink:href="#DejaVuSans-32"/>
       <use xlink:href="#DejaVuSans-30" x="63.623047"/>
       <use xlink:href="#DejaVuSans-30" x="127.246094"/>
      </g>
     </g>
    </g>
    <g id="xtick_4">
     <g id="line2d_4">
      <g>
       <use xlink:href="#m0ef628c98a" x="336.269776" y="384.48" style="stroke: #000000; stroke-width: 0.8"/>
      </g>
     </g>
     <g id="text_4">
      <!-- 300 -->
      <g transform="translate(326.726026 399.078438) scale(0.1 -0.1)">
       <defs>
        <path id="DejaVuSans-33" d="M 2597 2516 
Q 3050 2419 3304 2112 
Q 3559 1806 3559 1356 
Q 3559 666 3084 287 
Q 2609 -91 1734 -91 
Q 1441 -91 1130 -33 
Q 819 25 488 141 
L 488 750 
Q 750 597 1062 519 
Q 1375 441 1716 441 
Q 2309 441 2620 675 
Q 2931 909 2931 1356 
Q 2931 1769 2642 2001 
Q 2353 2234 1838 2234 
L 1294 2234 
L 1294 2753 
L 1863 2753 
Q 2328 2753 2575 2939 
Q 2822 3125 2822 3475 
Q 2822 3834 2567 4026 
Q 2313 4219 1838 4219 
Q 1578 4219 1281 4162 
Q 984 4106 628 3988 
L 628 4550 
Q 988 4650 1302 4700 
Q 1616 4750 1894 4750 
Q 2613 4750 3031 4423 
Q 3450 4097 3450 3541 
Q 3450 3153 3228 2886 
Q 3006 2619 2597 2516 
z
" transform="scale(0.015625)"/>
       </defs>
       <use xlink:href="#DejaVuSans-33"/>
       <use xlink:href="#DejaVuSans-30" x="63.623047"/>
       <use xlink:href="#DejaVuSans-30" x="127.246094"/>
      </g>
     </g>
    </g>
    <g id="xtick_5">
     <g id="line2d_5">
      <g>
       <use xlink:href="#m0ef628c98a" x="417.596065" y="384.48" style="stroke: #000000; stroke-width: 0.8"/>
      </g>
     </g>
     <g id="text_5">
      <!-- 400 -->
      <g transform="translate(408.052315 399.078438) scale(0.1 -0.1)">
       <defs>
        <path id="DejaVuSans-34" d="M 2419 4116 
L 825 1625 
L 2419 1625 
L 2419 4116 
z
M 2253 4666 
L 3047 4666 
L 3047 1625 
L 3713 1625 
L 3713 1100 
L 3047 1100 
L 3047 0 
L 2419 0 
L 2419 1100 
L 313 1100 
L 313 1709 
L 2253 4666 
z
" transform="scale(0.015625)"/>
       </defs>
       <use xlink:href="#DejaVuSans-34"/>
       <use xlink:href="#DejaVuSans-30" x="63.623047"/>
       <use xlink:href="#DejaVuSans-30" x="127.246094"/>
      </g>
     </g>
    </g>
    <g id="xtick_6">
     <g id="line2d_6">
      <g>
       <use xlink:href="#m0ef628c98a" x="498.922354" y="384.48" style="stroke: #000000; stroke-width: 0.8"/>
      </g>
     </g>
     <g id="text_6">
      <!-- 500 -->
      <g transform="translate(489.378604 399.078438) scale(0.1 -0.1)">
       <defs>
        <path id="DejaVuSans-35" d="M 691 4666 
L 3169 4666 
L 3169 4134 
L 1269 4134 
L 1269 2991 
Q 1406 3038 1543 3061 
Q 1681 3084 1819 3084 
Q 2600 3084 3056 2656 
Q 3513 2228 3513 1497 
Q 3513 744 3044 326 
Q 2575 -91 1722 -91 
Q 1428 -91 1123 -41 
Q 819 9 494 109 
L 494 744 
Q 775 591 1075 516 
Q 1375 441 1709 441 
Q 2250 441 2565 725 
Q 2881 1009 2881 1497 
Q 2881 1984 2565 2268 
Q 2250 2553 1709 2553 
Q 1456 2553 1204 2497 
Q 953 2441 691 2322 
L 691 4666 
z
" transform="scale(0.015625)"/>
       </defs>
       <use xlink:href="#DejaVuSans-35"/>
       <use xlink:href="#DejaVuSans-30" x="63.623047"/>
       <use xlink:href="#DejaVuSans-30" x="127.246094"/>
      </g>
     </g>
    </g>
    <g id="text_7">
     <!-- epoch -->
     <g transform="translate(279.971875 412.756563) scale(0.1 -0.1)">
      <defs>
       <path id="DejaVuSans-65" d="M 3597 1894 
L 3597 1613 
L 953 1613 
Q 991 1019 1311 708 
Q 1631 397 2203 397 
Q 2534 397 2845 478 
Q 3156 559 3463 722 
L 3463 178 
Q 3153 47 2828 -22 
Q 2503 -91 2169 -91 
Q 1331 -91 842 396 
Q 353 884 353 1716 
Q 353 2575 817 3079 
Q 1281 3584 2069 3584 
Q 2775 3584 3186 3129 
Q 3597 2675 3597 1894 
z
M 3022 2063 
Q 3016 2534 2758 2815 
Q 2500 3097 2075 3097 
Q 1594 3097 1305 2825 
Q 1016 2553 972 2059 
L 3022 2063 
z
" transform="scale(0.015625)"/>
       <path id="DejaVuSans-70" d="M 1159 525 
L 1159 -1331 
L 581 -1331 
L 581 3500 
L 1159 3500 
L 1159 2969 
Q 1341 3281 1617 3432 
Q 1894 3584 2278 3584 
Q 2916 3584 3314 3078 
Q 3713 2572 3713 1747 
Q 3713 922 3314 415 
Q 2916 -91 2278 -91 
Q 1894 -91 1617 61 
Q 1341 213 1159 525 
z
M 3116 1747 
Q 3116 2381 2855 2742 
Q 2594 3103 2138 3103 
Q 1681 3103 1420 2742 
Q 1159 2381 1159 1747 
Q 1159 1113 1420 752 
Q 1681 391 2138 391 
Q 2594 391 2855 752 
Q 3116 1113 3116 1747 
z
" transform="scale(0.015625)"/>
       <path id="DejaVuSans-6f" d="M 1959 3097 
Q 1497 3097 1228 2736 
Q 959 2375 959 1747 
Q 959 1119 1226 758 
Q 1494 397 1959 397 
Q 2419 397 2687 759 
Q 2956 1122 2956 1747 
Q 2956 2369 2687 2733 
Q 2419 3097 1959 3097 
z
M 1959 3584 
Q 2709 3584 3137 3096 
Q 3566 2609 3566 1747 
Q 3566 888 3137 398 
Q 2709 -91 1959 -91 
Q 1206 -91 779 398 
Q 353 888 353 1747 
Q 353 2609 779 3096 
Q 1206 3584 1959 3584 
z
" transform="scale(0.015625)"/>
       <path id="DejaVuSans-63" d="M 3122 3366 
L 3122 2828 
Q 2878 2963 2633 3030 
Q 2388 3097 2138 3097 
Q 1578 3097 1268 2742 
Q 959 2388 959 1747 
Q 959 1106 1268 751 
Q 1578 397 2138 397 
Q 2388 397 2633 464 
Q 2878 531 3122 666 
L 3122 134 
Q 2881 22 2623 -34 
Q 2366 -91 2075 -91 
Q 1284 -91 818 406 
Q 353 903 353 1747 
Q 353 2603 823 3093 
Q 1294 3584 2113 3584 
Q 2378 3584 2631 3529 
Q 2884 3475 3122 3366 
z
" transform="scale(0.015625)"/>
       <path id="DejaVuSans-68" d="M 3513 2113 
L 3513 0 
L 2938 0 
L 2938 2094 
Q 2938 2591 2744 2837 
Q 2550 3084 2163 3084 
Q 1697 3084 1428 2787 
Q 1159 2491 1159 1978 
L 1159 0 
L 581 0 
L 581 4863 
L 1159 4863 
L 1159 2956 
Q 1366 3272 1645 3428 
Q 1925 3584 2291 3584 
Q 2894 3584 3203 3211 
Q 3513 2838 3513 2113 
z
" transform="scale(0.015625)"/>
      </defs>
      <use xlink:href="#DejaVuSans-65"/>
      <use xlink:href="#DejaVuSans-70" x="61.523438"/>
      <use xlink:href="#DejaVuSans-6f" x="125"/>
      <use xlink:href="#DejaVuSans-63" x="186.181641"/>
      <use xlink:href="#DejaVuSans-68" x="241.162109"/>
     </g>
    </g>
   </g>
   <g id="matplotlib.axis_2">
    <g id="ytick_1">
     <g id="line2d_7">
      <defs>
       <path id="m840ef7003b" d="M 0 0 
L -3.5 0 
" style="stroke: #000000; stroke-width: 0.8"/>
      </defs>
      <g>
       <use xlink:href="#m840ef7003b" x="72" y="384.48" style="stroke: #000000; stroke-width: 0.8"/>
      </g>
     </g>
     <g id="text_8">
      <!-- 0.0 -->
      <g transform="translate(49.096875 388.279219) scale(0.1 -0.1)">
       <defs>
        <path id="DejaVuSans-2e" d="M 684 794 
L 1344 794 
L 1344 0 
L 684 0 
L 684 794 
z
" transform="scale(0.015625)"/>
       </defs>
       <use xlink:href="#DejaVuSans-30"/>
       <use xlink:href="#DejaVuSans-2e" x="63.623047"/>
       <use xlink:href="#DejaVuSans-30" x="95.410156"/>
      </g>
     </g>
    </g>
    <g id="ytick_2">
     <g id="line2d_8">
      <g>
       <use xlink:href="#m840ef7003b" x="72" y="317.952" style="stroke: #000000; stroke-width: 0.8"/>
      </g>
     </g>
     <g id="text_9">
      <!-- 0.2 -->
      <g transform="translate(49.096875 321.751219) scale(0.1 -0.1)">
       <use xlink:href="#DejaVuSans-30"/>
       <use xlink:href="#DejaVuSans-2e" x="63.623047"/>
       <use xlink:href="#DejaVuSans-32" x="95.410156"/>
      </g>
     </g>
    </g>
    <g id="ytick_3">
     <g id="line2d_9">
      <g>
       <use xlink:href="#m840ef7003b" x="72" y="251.424" style="stroke: #000000; stroke-width: 0.8"/>
      </g>
     </g>
     <g id="text_10">
      <!-- 0.4 -->
      <g transform="translate(49.096875 255.223219) scale(0.1 -0.1)">
       <use xlink:href="#DejaVuSans-30"/>
       <use xlink:href="#DejaVuSans-2e" x="63.623047"/>
       <use xlink:href="#DejaVuSans-34" x="95.410156"/>
      </g>
     </g>
    </g>
    <g id="ytick_4">
     <g id="line2d_10">
      <g>
       <use xlink:href="#m840ef7003b" x="72" y="184.896" style="stroke: #000000; stroke-width: 0.8"/>
      </g>
     </g>
     <g id="text_11">
      <!-- 0.6 -->
      <g transform="translate(49.096875 188.695219) scale(0.1 -0.1)">
       <defs>
        <path id="DejaVuSans-36" d="M 2113 2584 
Q 1688 2584 1439 2293 
Q 1191 2003 1191 1497 
Q 1191 994 1439 701 
Q 1688 409 2113 409 
Q 2538 409 2786 701 
Q 3034 994 3034 1497 
Q 3034 2003 2786 2293 
Q 2538 2584 2113 2584 
z
M 3366 4563 
L 3366 3988 
Q 3128 4100 2886 4159 
Q 2644 4219 2406 4219 
Q 1781 4219 1451 3797 
Q 1122 3375 1075 2522 
Q 1259 2794 1537 2939 
Q 1816 3084 2150 3084 
Q 2853 3084 3261 2657 
Q 3669 2231 3669 1497 
Q 3669 778 3244 343 
Q 2819 -91 2113 -91 
Q 1303 -91 875 529 
Q 447 1150 447 2328 
Q 447 3434 972 4092 
Q 1497 4750 2381 4750 
Q 2619 4750 2861 4703 
Q 3103 4656 3366 4563 
z
" transform="scale(0.015625)"/>
       </defs>
       <use xlink:href="#DejaVuSans-30"/>
       <use xlink:href="#DejaVuSans-2e" x="63.623047"/>
       <use xlink:href="#DejaVuSans-36" x="95.410156"/>
      </g>
     </g>
    </g>
    <g id="ytick_5">
     <g id="line2d_11">
      <g>
       <use xlink:href="#m840ef7003b" x="72" y="118.368" style="stroke: #000000; stroke-width: 0.8"/>
      </g>
     </g>
     <g id="text_12">
      <!-- 0.8 -->
      <g transform="translate(49.096875 122.167219) scale(0.1 -0.1)">
       <defs>
        <path id="DejaVuSans-38" d="M 2034 2216 
Q 1584 2216 1326 1975 
Q 1069 1734 1069 1313 
Q 1069 891 1326 650 
Q 1584 409 2034 409 
Q 2484 409 2743 651 
Q 3003 894 3003 1313 
Q 3003 1734 2745 1975 
Q 2488 2216 2034 2216 
z
M 1403 2484 
Q 997 2584 770 2862 
Q 544 3141 544 3541 
Q 544 4100 942 4425 
Q 1341 4750 2034 4750 
Q 2731 4750 3128 4425 
Q 3525 4100 3525 3541 
Q 3525 3141 3298 2862 
Q 3072 2584 2669 2484 
Q 3125 2378 3379 2068 
Q 3634 1759 3634 1313 
Q 3634 634 3220 271 
Q 2806 -91 2034 -91 
Q 1263 -91 848 271 
Q 434 634 434 1313 
Q 434 1759 690 2068 
Q 947 2378 1403 2484 
z
M 1172 3481 
Q 1172 3119 1398 2916 
Q 1625 2713 2034 2713 
Q 2441 2713 2670 2916 
Q 2900 3119 2900 3481 
Q 2900 3844 2670 4047 
Q 2441 4250 2034 4250 
Q 1625 4250 1398 4047 
Q 1172 3844 1172 3481 
z
" transform="scale(0.015625)"/>
       </defs>
       <use xlink:href="#DejaVuSans-30"/>
       <use xlink:href="#DejaVuSans-2e" x="63.623047"/>
       <use xlink:href="#DejaVuSans-38" x="95.410156"/>
      </g>
     </g>
    </g>
    <g id="ytick_6">
     <g id="line2d_12">
      <g>
       <use xlink:href="#m840ef7003b" x="72" y="51.84" style="stroke: #000000; stroke-width: 0.8"/>
      </g>
     </g>
     <g id="text_13">
      <!-- 1.0 -->
      <g transform="translate(49.096875 55.639219) scale(0.1 -0.1)">
       <use xlink:href="#DejaVuSans-31"/>
       <use xlink:href="#DejaVuSans-2e" x="63.623047"/>
       <use xlink:href="#DejaVuSans-30" x="95.410156"/>
      </g>
     </g>
    </g>
    <g id="text_14">
     <!-- rate -->
     <g transform="translate(43.017187 228.31625) rotate(-90) scale(0.1 -0.1)">
      <defs>
       <path id="DejaVuSans-72" d="M 2631 2963 
Q 2534 3019 2420 3045 
Q 2306 3072 2169 3072 
Q 1681 3072 1420 2755 
Q 1159 2438 1159 1844 
L 1159 0 
L 581 0 
L 581 3500 
L 1159 3500 
L 1159 2956 
Q 1341 3275 1631 3429 
Q 1922 3584 2338 3584 
Q 2397 3584 2469 3576 
Q 2541 3569 2628 3553 
L 2631 2963 
z
" transform="scale(0.015625)"/>
       <path id="DejaVuSans-61" d="M 2194 1759 
Q 1497 1759 1228 1600 
Q 959 1441 959 1056 
Q 959 750 1161 570 
Q 1363 391 1709 391 
Q 2188 391 2477 730 
Q 2766 1069 2766 1631 
L 2766 1759 
L 2194 1759 
z
M 3341 1997 
L 3341 0 
L 2766 0 
L 2766 531 
Q 2569 213 2275 61 
Q 1981 -91 1556 -91 
Q 1019 -91 701 211 
Q 384 513 384 1019 
Q 384 1609 779 1909 
Q 1175 2209 1959 2209 
L 2766 2209 
L 2766 2266 
Q 2766 2663 2505 2880 
Q 2244 3097 1772 3097 
Q 1472 3097 1187 3025 
Q 903 2953 641 2809 
L 641 3341 
Q 956 3463 1253 3523 
Q 1550 3584 1831 3584 
Q 2591 3584 2966 3190 
Q 3341 2797 3341 1997 
z
" transform="scale(0.015625)"/>
       <path id="DejaVuSans-74" d="M 1172 4494 
L 1172 3500 
L 2356 3500 
L 2356 3053 
L 1172 3053 
L 1172 1153 
Q 1172 725 1289 603 
Q 1406 481 1766 481 
L 2356 481 
L 2356 0 
L 1766 0 
Q 1100 0 847 248 
Q 594 497 594 1153 
L 594 3053 
L 172 3053 
L 172 3500 
L 594 3500 
L 594 4494 
L 1172 4494 
z
" transform="scale(0.015625)"/>
      </defs>
      <use xlink:href="#DejaVuSans-72"/>
      <use xlink:href="#DejaVuSans-61" x="41.113281"/>
      <use xlink:href="#DejaVuSans-74" x="102.392578"/>
      <use xlink:href="#DejaVuSans-65" x="141.601562"/>
     </g>
    </g>
   </g>
   <g id="line2d_13">
    <path d="M 92.290909 337.733103 
L 93.104172 331.925208 
L 93.917435 327.267251 
L 94.730698 324.162056 
L 95.543961 317.800316 
L 96.357224 335.533022 
L 97.170486 329.624005 
L 97.983749 324.902513 
L 98.797012 321.638982 
L 99.610275 317.373872 
L 100.423538 331.461841 
L 102.050064 317.987925 
L 102.863327 314.607305 
L 103.67659 314.079072 
L 104.489852 324.398231 
L 105.303115 319.444888 
L 106.116378 309.326312 
L 106.929641 314.848469 
L 107.742904 303.899623 
L 108.556167 324.033324 
L 109.36943 315.195412 
L 110.182693 309.491302 
L 110.995956 311.495125 
L 111.809218 305.815962 
L 112.622481 318.790918 
L 113.435744 318.292291 
L 114.249007 307.835087 
L 115.06227 306.018207 
L 115.875533 302.977212 
L 116.688796 314.698448 
L 117.502059 308.850304 
L 118.315322 306.876419 
L 119.128584 299.640168 
L 119.941847 300.413223 
L 120.75511 307.719661 
L 121.568373 309.294379 
L 122.381636 306.757001 
L 123.194899 297.658964 
L 124.008162 300.500042 
L 124.821425 309.651301 
L 125.634688 306.303945 
L 126.44795 301.43842 
L 127.261213 299.337466 
L 128.074476 286.874775 
L 128.887739 305.044237 
L 129.701002 302.61397 
L 130.514265 303.563657 
L 131.327528 297.047904 
L 132.140791 297.29805 
L 132.954054 308.064941 
L 133.767316 302.261704 
L 134.580579 298.875429 
L 135.393842 290.571404 
L 136.207105 295.302875 
L 137.020368 305.451056 
L 139.460157 291.084002 
L 140.27342 290.917017 
L 141.086682 303.993095 
L 141.899945 299.484492 
L 142.713208 293.530236 
L 143.526471 296.196013 
L 144.339734 287.097644 
L 145.152997 306.249392 
L 145.96626 293.972315 
L 146.779523 287.91361 
L 147.592786 292.719925 
L 148.406048 285.84592 
L 149.219311 299.698047 
L 150.032574 287.010825 
L 150.845837 290.159263 
L 151.6591 287.234359 
L 152.472363 281.820976 
L 153.285626 297.473018 
L 154.098889 296.14645 
L 154.912152 286.394443 
L 155.725414 286.22646 
L 156.538677 281.831953 
L 157.35194 299.75127 
L 158.165203 285.368249 
L 158.978466 287.041761 
L 159.791729 285.010328 
L 160.604992 284.031036 
L 161.418255 294.509861 
L 162.231518 286.83885 
L 163.04478 282.180892 
L 163.858043 287.452904 
L 164.671306 279.23603 
L 165.484569 293.128407 
L 166.297832 288.135814 
L 167.111095 281.233866 
L 167.924358 272.365351 
L 168.737621 278.956613 
L 169.550884 294.692481 
L 170.364146 291.232692 
L 171.177409 288.598183 
L 171.990672 282.968916 
L 172.803935 267.917289 
L 173.617198 292.400258 
L 174.430461 286.279682 
L 175.243724 290.774979 
L 176.056987 272.929841 
L 176.87025 276.560607 
L 177.683512 278.4989 
L 178.496775 287.982799 
L 179.310038 288.269868 
L 180.936564 284.688 
L 181.749827 285.061222 
L 182.56309 282.196194 
L 183.376353 288.08625 
L 184.189616 268.118869 
L 185.002878 271.568346 
L 185.816141 292.512358 
L 186.629404 288.517352 
L 187.442667 287.87835 
L 188.25593 281.578149 
L 189.069193 281.671953 
L 189.882456 288.313776 
L 190.695719 282.451994 
L 191.508982 285.322012 
L 192.322244 282.648917 
L 193.135507 281.271455 
L 193.94877 285.208582 
L 194.762033 285.360931 
L 195.575296 288.373984 
L 196.388559 280.779813 
L 197.201822 286.872114 
L 198.015085 281.915446 
L 198.828348 283.178812 
L 199.64161 278.887091 
L 200.454873 285.611741 
L 201.268136 285.297064 
L 202.081399 289.002008 
L 202.894662 284.600183 
L 203.707925 284.530661 
L 204.521188 279.481186 
L 205.334451 279.571664 
L 206.147714 288.332404 
L 206.960976 278.320938 
L 207.774239 286.035192 
L 208.587502 274.64826 
L 210.214028 289.742132 
L 211.027291 288.806083 
L 211.840554 280.976736 
L 212.653817 289.667953 
L 213.46708 276.843351 
L 214.280343 293.673604 
L 215.093605 289.965999 
L 215.906868 284.52667 
L 216.720131 283.579311 
L 217.533394 287.778558 
L 218.346657 285.262802 
L 219.15992 277.074868 
L 219.973183 284.12351 
L 220.786446 278.610335 
L 221.599709 283.655485 
L 222.412971 279.67578 
L 223.226234 284.316108 
L 224.039497 281.140394 
L 224.85276 279.819148 
L 225.666023 285.765754 
L 226.479286 285.663966 
L 227.292549 275.356117 
L 228.105812 283.447918 
L 228.919075 280.353701 
L 229.732337 282.272701 
L 230.5456 276.658736 
L 231.358863 287.642176 
L 232.172126 280.181061 
L 232.985389 276.069298 
L 233.798652 282.847503 
L 234.611915 281.666964 
L 235.425178 277.2515 
L 237.051703 277.36992 
L 237.864966 277.423808 
L 238.678229 278.733744 
L 239.491492 278.559441 
L 240.304755 288.339057 
L 241.118018 276.149131 
L 241.931281 284.106213 
L 242.744544 283.785548 
L 243.557807 287.922591 
L 244.371069 285.618394 
L 245.184332 286.467291 
L 245.997595 281.752452 
L 246.810858 280.15079 
L 248.437384 289.42313 
L 249.250647 283.466879 
L 250.06391 272.280528 
L 250.877173 279.943556 
L 251.690435 285.833612 
L 252.503698 276.804432 
L 254.130224 282.031204 
L 255.75675 277.12044 
L 256.570013 277.680606 
L 257.383276 281.359937 
L 258.196539 279.979481 
L 259.009801 267.212758 
L 259.823064 277.340315 
L 260.636327 279.298899 
L 261.44959 276.859318 
L 262.262853 271.199781 
L 263.076116 285.16301 
L 263.889379 272.963771 
L 264.702642 274.724101 
L 265.515905 278.727091 
L 266.329167 279.342143 
L 267.14243 283.175486 
L 267.955693 281.242515 
L 268.768956 287.142551 
L 269.582219 279.744304 
L 270.395482 273.554872 
L 271.208745 275.791211 
L 272.022008 282.146963 
L 272.835271 289.794689 
L 273.648533 271.753626 
L 274.461796 275.293581 
L 275.275059 281.258814 
L 276.088322 285.497313 
L 276.901585 286.764006 
L 277.714848 283.25532 
L 278.528111 278.430709 
L 279.341374 279.723681 
L 280.967899 273.695246 
L 281.781162 284.419227 
L 282.594425 280.682682 
L 283.407688 282.791952 
L 284.220951 278.014576 
L 285.034214 279.196114 
L 285.847477 273.391546 
L 286.66074 280.112869 
L 287.474003 284.114196 
L 288.287265 282.22979 
L 289.100528 288.732902 
L 289.913791 282.179229 
L 290.727054 283.090663 
L 291.540317 278.43836 
L 292.35358 283.355444 
L 293.166843 282.610663 
L 293.980106 276.037364 
L 294.793369 279.988462 
L 295.606631 288.280512 
L 296.419894 280.021061 
L 297.233157 285.080183 
L 298.04642 284.255568 
L 298.859683 284.162096 
L 299.672946 297.581126 
L 300.486209 283.525423 
L 301.299472 284.364341 
L 302.925997 287.727332 
L 303.73926 282.114697 
L 304.552523 283.994778 
L 305.365786 281.486673 
L 306.992312 278.190876 
L 307.805575 283.499477 
L 308.618838 287.770575 
L 309.432101 287.764587 
L 310.245363 288.809742 
L 311.058626 281.682265 
L 311.871889 278.51653 
L 312.685152 283.636858 
L 313.498415 293.530902 
L 314.311678 284.200017 
L 315.124941 285.489662 
L 315.938204 281.498648 
L 316.751467 283.883676 
L 317.564729 284.649746 
L 318.377992 285.573488 
L 319.191255 280.165094 
L 320.004518 281.160353 
L 320.817781 287.239681 
L 321.631044 274.177907 
L 322.444307 283.122264 
L 323.25757 282.97058 
L 324.070833 281.163679 
L 324.884095 285.15802 
L 325.697358 285.404839 
L 326.510621 283.986795 
L 327.323884 276.893247 
L 328.137147 280.916195 
L 328.95041 289.255147 
L 329.763673 287.121594 
L 330.576936 277.371916 
L 331.390199 286.008581 
L 332.203461 281.279771 
L 333.016724 283.078688 
L 333.829987 284.462137 
L 334.64325 289.13706 
L 335.456513 282.537815 
L 336.269776 285.981304 
L 337.083039 279.791872 
L 337.896302 286.868455 
L 338.709565 282.71611 
L 339.522827 276.139817 
L 340.33609 281.923096 
L 341.149353 286.047832 
L 341.962616 276.053664 
L 342.775879 288.898557 
L 343.589142 284.594528 
L 344.402405 288.13914 
L 346.028931 281.719521 
L 346.842193 285.622053 
L 347.655456 283.77324 
L 348.468719 286.827873 
L 349.281982 278.203516 
L 350.095245 282.641931 
L 350.908508 283.787544 
L 351.721771 285.179642 
L 352.535034 282.828542 
L 353.348297 285.149704 
L 354.161559 288.771821 
L 354.974822 289.863878 
L 355.788085 289.750116 
L 356.601348 282.885756 
L 357.414611 284.055319 
L 358.227874 286.39278 
L 359.041137 273.888842 
L 359.8544 284.906212 
L 360.667663 280.22131 
L 361.480925 286.217811 
L 362.294188 286.829869 
L 363.107451 282.762347 
L 363.920714 287.40966 
L 364.733977 286.027874 
L 365.54724 281.488668 
L 366.360503 284.001764 
L 367.173766 285.383883 
L 367.987029 289.159014 
L 368.800291 284.669372 
L 369.613554 288.194358 
L 370.426817 290.008577 
L 371.24008 285.904464 
L 372.053343 286.747042 
L 372.866606 283.758936 
L 373.679869 282.756692 
L 374.493132 284.268208 
L 376.119657 281.320685 
L 376.93292 284.417231 
L 377.746183 285.176316 
L 378.559446 281.746132 
L 379.372709 288.82837 
L 380.999235 280.139148 
L 381.812498 290.507204 
L 382.625761 285.640348 
L 383.439024 288.519015 
L 385.065549 279.163848 
L 385.878812 286.901387 
L 386.692075 286.187208 
L 387.505338 284.039352 
L 388.318601 280.898565 
L 389.131864 285.225546 
L 389.945127 280.693326 
L 390.75839 284.425214 
L 391.571652 284.891243 
L 392.384915 276.676698 
L 393.198178 282.362514 
L 394.011441 280.295156 
L 394.824704 284.281847 
L 395.637967 282.158273 
L 396.45123 282.623636 
L 397.264493 278.520522 
L 398.077756 280.629459 
L 398.891018 280.49973 
L 399.704281 279.029461 
L 400.517544 286.791948 
L 401.330807 284.221639 
L 402.14407 278.926675 
L 402.957333 287.633195 
L 403.770596 282.53848 
L 404.583859 280.543971 
L 405.397122 283.769581 
L 406.210384 285.478685 
L 407.023647 284.388291 
L 407.83691 279.905967 
L 408.650173 283.261972 
L 409.463436 282.851495 
L 410.276699 287.909618 
L 411.089962 284.659393 
L 411.903225 287.952529 
L 412.716488 289.997932 
L 413.52975 282.727752 
L 414.343013 284.043011 
L 415.156276 271.509136 
L 415.969539 280.703305 
L 416.782802 286.527832 
L 417.596065 278.388464 
L 418.409328 283.737315 
L 419.222591 285.230536 
L 420.035854 282.695154 
L 420.849116 281.766423 
L 421.662379 286.306626 
L 422.475642 284.686669 
L 423.288905 285.504631 
L 424.102168 291.688741 
L 424.915431 281.394531 
L 425.728694 286.677187 
L 426.541957 285.059226 
L 427.35522 283.98613 
L 428.168482 273.198282 
L 428.981745 286.819224 
L 429.795008 288.789451 
L 430.608271 282.885424 
L 431.421534 283.06139 
L 432.234797 283.776234 
L 433.04806 286.36384 
L 433.861323 287.438933 
L 434.674586 285.336981 
L 435.487848 290.572734 
L 436.301111 282.216485 
L 437.114374 284.130828 
L 437.927637 282.842513 
L 438.7409 277.079525 
L 439.554163 284.24326 
L 440.367426 289.753775 
L 441.180689 275.965847 
L 441.993952 280.118524 
L 442.807214 282.708792 
L 443.620477 280.444179 
L 444.43374 284.213655 
L 445.247003 278.797944 
L 446.060266 289.275106 
L 446.873529 286.179225 
L 447.686792 284.949455 
L 448.500055 281.093825 
L 449.313318 284.0001 
L 450.12658 287.476521 
L 450.939843 281.077525 
L 451.753106 276.517031 
L 452.566369 284.336732 
L 453.379632 274.068135 
L 454.192895 281.310706 
L 455.006158 283.815485 
L 455.819421 282.078772 
L 456.632684 283.024135 
L 457.445946 285.668623 
L 458.259209 282.969582 
L 459.072472 277.848922 
L 459.885735 279.899647 
L 460.698998 283.967502 
L 461.512261 285.258145 
L 462.325524 279.157527 
L 463.138787 286.86912 
L 463.95205 282.953282 
L 464.765312 280.062641 
L 465.578575 288.143464 
L 466.391838 285.510619 
L 467.205101 279.315199 
L 468.018364 278.823224 
L 468.831627 274.434705 
L 469.64489 277.042935 
L 470.458153 277.520606 
L 471.271416 281.458731 
L 472.084678 280.944469 
L 472.897941 282.512534 
L 473.711204 287.390035 
L 474.524467 280.706299 
L 475.33773 278.772663 
L 476.150993 280.18605 
L 476.964256 283.712367 
L 477.777519 282.300975 
L 478.590782 283.250995 
L 479.404044 286.59436 
L 480.217307 279.885011 
L 481.03057 283.439269 
L 481.843833 286.425711 
L 482.657096 283.978146 
L 483.470359 278.884097 
L 484.283622 284.231951 
L 485.096885 281.342307 
L 485.910148 274.598364 
L 486.72341 280.908544 
L 487.536673 284.061639 
L 488.349936 282.338564 
L 489.163199 287.017478 
L 489.976462 273.915121 
L 490.789725 280.986049 
L 491.602988 284.006753 
L 492.416251 281.476361 
L 493.229514 280.519688 
L 494.042776 289.406498 
L 494.856039 282.149292 
L 495.669302 289.854897 
L 496.482565 287.700388 
L 497.295828 289.983296 
L 498.109091 283.838105 
L 498.109091 283.838105 
" clip-path="url(#pa5e5e2f4ee)" style="fill: none; stroke: #0000ff; stroke-width: 1.5; stroke-linecap: square"/>
   </g>
   <g id="line2d_14">
    <path d="M 92.290909 323.295196 
L 93.104172 316.98435 
L 93.917435 315.565641 
L 94.730698 312.037328 
L 95.543961 307.80149 
L 96.357224 316.230921 
L 97.983749 309.52257 
L 98.797012 307.6049 
L 99.610275 303.392347 
L 100.423538 309.900449 
L 101.236801 306.129642 
L 102.863327 301.48133 
L 103.67659 300.254554 
L 104.489852 300.223951 
L 105.303115 299.088984 
L 106.116378 297.293393 
L 106.929641 297.757758 
L 107.742904 295.287574 
L 108.556167 296.786449 
L 109.36943 296.80541 
L 110.182693 292.14213 
L 110.995956 292.965746 
L 111.809218 291.300218 
L 112.622481 287.313195 
L 113.435744 292.518346 
L 114.249007 291.646829 
L 115.06227 288.311448 
L 115.875533 287.255316 
L 117.502059 279.395365 
L 118.315322 278.580397 
L 119.128584 281.329334 
L 119.941847 276.836033 
L 120.75511 280.529002 
L 121.568373 276.158778 
L 122.381636 281.0416 
L 123.194899 281.830955 
L 124.008162 278.435033 
L 124.821425 278.777985 
L 125.634688 276.915534 
L 126.44795 275.703061 
L 127.261213 276.097905 
L 128.074476 275.758944 
L 128.887739 275.642188 
L 129.701002 273.762107 
L 130.514265 276.132167 
L 131.327528 275.772583 
L 132.140791 273.648344 
L 132.954054 275.490171 
L 134.580579 272.111547 
L 135.393842 274.317615 
L 136.207105 272.51138 
L 137.020368 274.012917 
L 137.833631 273.938738 
L 138.646894 271.977493 
L 139.460157 272.929509 
L 140.27342 270.193545 
L 141.086682 271.38872 
L 141.899945 269.559865 
L 142.713208 271.546724 
L 143.526471 271.382733 
L 144.339734 269.313712 
L 145.152997 272.371671 
L 146.779523 269.976331 
L 147.592786 269.879865 
L 148.406048 271.448263 
L 149.219311 267.760283 
L 150.032574 269.052589 
L 150.845837 269.862235 
L 151.6591 267.543734 
L 152.472363 269.460073 
L 153.285626 269.525271 
L 154.098889 267.773256 
L 154.912152 268.455833 
L 155.725414 267.36178 
L 156.538677 266.592717 
L 157.35194 270.589719 
L 158.165203 269.760115 
L 158.978466 267.733672 
L 159.791729 267.218745 
L 160.604992 267.575003 
L 161.418255 267.599285 
L 162.231518 265.117791 
L 163.04478 267.442279 
L 163.858043 265.971678 
L 164.671306 264.920203 
L 165.484569 265.926106 
L 166.297832 264.461825 
L 167.111095 265.367604 
L 167.924358 263.76827 
L 168.737621 263.242034 
L 169.550884 265.431138 
L 170.364146 264.098249 
L 171.177409 264.234299 
L 171.990672 263.61193 
L 172.803935 263.388728 
L 173.617198 265.977 
L 174.430461 265.357624 
L 175.243724 265.025982 
L 176.056987 264.13617 
L 176.87025 262.032555 
L 177.683512 265.775753 
L 178.496775 264.132844 
L 179.310038 264.336087 
L 180.123301 264.17143 
L 180.936564 264.980078 
L 181.749827 264.689351 
L 182.56309 266.448351 
L 183.376353 264.14116 
L 184.189616 263.575339 
L 185.816141 264.542989 
L 186.629404 263.790225 
L 187.442667 263.933925 
L 188.25593 263.302907 
L 189.069193 263.225402 
L 189.882456 265.668975 
L 190.695719 265.751803 
L 191.508982 263.977501 
L 192.322244 264.170765 
L 193.135507 262.686525 
L 193.94877 266.107395 
L 194.762033 266.137332 
L 195.575296 265.149392 
L 196.388559 262.989228 
L 197.201822 263.754965 
L 198.015085 265.369932 
L 198.828348 264.261908 
L 199.64161 263.886358 
L 200.454873 262.357212 
L 201.268136 264.115214 
L 202.081399 264.852344 
L 202.894662 263.184155 
L 203.707925 262.991889 
L 204.521188 262.964612 
L 205.334451 263.203448 
L 206.960976 264.550972 
L 207.774239 262.630974 
L 208.587502 261.901162 
L 209.400765 262.10374 
L 210.214028 264.484777 
L 211.027291 262.001952 
L 211.840554 262.875132 
L 213.46708 262.072472 
L 214.280343 263.76827 
L 215.093605 262.91771 
L 215.906868 264.146482 
L 216.720131 263.416337 
L 217.533394 261.20162 
L 218.346657 263.835131 
L 219.15992 262.368854 
L 219.973183 262.670891 
L 220.786446 263.631555 
L 221.599709 262.001952 
L 222.412971 263.613925 
L 223.226234 263.121618 
L 224.039497 262.873469 
L 224.85276 262.27139 
L 225.666023 262.017253 
L 226.479286 264.284528 
L 227.292549 261.933428 
L 228.919075 261.579167 
L 229.732337 260.787483 
L 230.5456 262.748396 
L 231.358863 261.79006 
L 232.172126 262.160621 
L 233.798652 260.334095 
L 234.611915 263.714383 
L 235.425178 259.113306 
L 236.238441 261.808688 
L 237.051703 261.191308 
L 237.864966 261.298418 
L 238.678229 257.966364 
L 239.491492 262.619332 
L 240.304755 262.18191 
L 241.118018 262.176921 
L 241.931281 257.578505 
L 242.744544 258.460999 
L 243.557807 257.063246 
L 244.371069 260.488773 
L 245.184332 260.468814 
L 245.997595 259.41867 
L 246.810858 256.826739 
L 247.624121 257.292768 
L 248.437384 257.415512 
L 249.250647 261.394219 
L 250.06391 259.02815 
L 250.877173 262.653594 
L 251.690435 255.744661 
L 252.503698 262.467315 
L 253.316961 260.457172 
L 254.130224 260.940165 
L 254.943487 257.72653 
L 255.75675 258.011603 
L 256.570013 257.144743 
L 257.383276 260.499084 
L 258.196539 257.533266 
L 259.009801 255.565701 
L 259.823064 257.949399 
L 260.636327 257.669649 
L 261.44959 258.056176 
L 262.262853 256.234307 
L 263.076116 257.786073 
L 263.889379 257.443121 
L 264.702642 262.807939 
L 265.515905 255.252686 
L 266.329167 259.819168 
L 267.14243 256.488111 
L 267.955693 253.960047 
L 268.768956 255.759297 
L 269.582219 257.206946 
L 270.395482 255.144246 
L 271.208745 255.648528 
L 272.022008 255.02383 
L 272.835271 256.714639 
L 273.648533 261.41451 
L 275.275059 257.209608 
L 276.088322 256.396303 
L 276.901585 255.212437 
L 277.714848 254.661252 
L 278.528111 255.980503 
L 279.341374 257.008028 
L 280.154637 256.462165 
L 280.967899 257.863578 
L 281.781162 255.294266 
L 282.594425 254.928695 
L 283.407688 256.92387 
L 284.220951 256.776843 
L 285.034214 259.332849 
L 285.847477 259.481539 
L 287.474003 255.064412 
L 288.287265 255.568694 
L 289.100528 255.453268 
L 289.913791 255.034142 
L 290.727054 256.246615 
L 292.35358 255.258674 
L 293.166843 254.444039 
L 293.980106 255.17751 
L 294.793369 254.254101 
L 295.606631 257.938422 
L 296.419894 254.997552 
L 297.233157 255.897343 
L 298.04642 257.236219 
L 298.859683 255.905991 
L 299.672946 255.589651 
L 300.486209 256.202041 
L 301.299472 254.146658 
L 302.112735 255.45227 
L 302.925997 255.719048 
L 303.73926 255.844453 
L 304.552523 254.606034 
L 305.365786 257.035637 
L 306.179049 254.60304 
L 306.992312 255.321543 
L 307.805575 256.363371 
L 308.618838 256.243954 
L 309.432101 254.008613 
L 310.245363 254.660587 
L 311.058626 256.552644 
L 311.871889 257.168028 
L 312.685152 256.047696 
L 313.498415 255.227406 
L 314.311678 252.755225 
L 315.124941 256.814431 
L 315.938204 257.676301 
L 316.751467 252.703333 
L 317.564729 256.294848 
L 318.377992 255.514807 
L 319.191255 255.294599 
L 320.004518 255.595638 
L 320.817781 254.271398 
L 321.631044 254.434059 
L 322.444307 255.026491 
L 323.25757 255.115639 
L 324.070833 253.153395 
L 324.884095 252.010112 
L 325.697358 255.863081 
L 326.510621 256.391313 
L 327.323884 255.815181 
L 328.137147 255.023165 
L 328.95041 254.047864 
L 329.763673 253.925453 
L 330.576936 255.672478 
L 331.390199 255.391397 
L 332.203461 254.900753 
L 333.016724 253.7751 
L 333.829987 253.324705 
L 334.64325 255.003206 
L 335.456513 255.981168 
L 336.269776 256.703995 
L 337.083039 254.903747 
L 337.896302 256.288195 
L 338.709565 255.76595 
L 339.522827 255.084371 
L 340.33609 256.420253 
L 341.149353 255.264661 
L 341.962616 253.515308 
L 342.775879 253.519965 
L 343.589142 253.639715 
L 344.402405 255.469235 
L 345.215668 254.872146 
L 346.028931 252.76587 
L 346.842193 253.496015 
L 347.655456 255.96753 
L 348.468719 255.320212 
L 349.281982 251.570029 
L 350.095245 250.635643 
L 350.908508 252.972107 
L 351.721771 253.463083 
L 352.535034 254.823581 
L 353.348297 254.653934 
L 354.161559 255.291938 
L 355.788085 253.810027 
L 356.601348 252.261588 
L 357.414611 254.459007 
L 358.227874 255.315888 
L 359.041137 254.513893 
L 359.8544 253.953062 
L 360.667663 253.815682 
L 361.480925 254.554142 
L 362.294188 256.09859 
L 363.107451 253.035641 
L 363.920714 256.289193 
L 364.733977 253.073894 
L 365.54724 254.443373 
L 366.360503 255.568029 
L 367.173766 254.966283 
L 367.987029 255.148903 
L 368.800291 255.601958 
L 369.613554 254.203207 
L 370.426817 253.672314 
L 371.24008 256.226656 
L 372.053343 251.821172 
L 372.866606 254.119049 
L 373.679869 252.978759 
L 374.493132 251.594644 
L 375.306395 252.731608 
L 376.119657 255.848445 
L 376.93292 257.05626 
L 377.746183 255.062084 
L 378.559446 254.637635 
L 379.372709 251.615933 
L 380.185972 252.218012 
L 380.999235 254.568446 
L 381.812498 254.770691 
L 382.625761 253.406867 
L 383.439024 254.245452 
L 384.252286 252.22533 
L 385.065549 251.220092 
L 385.878812 251.793563 
L 386.692075 253.247532 
L 387.505338 253.097844 
L 388.318601 253.199965 
L 389.131864 254.832229 
L 389.945127 255.11963 
L 391.571652 253.783416 
L 392.384915 256.945824 
L 393.198178 254.343581 
L 394.011441 251.271651 
L 395.637967 254.122043 
L 396.45123 253.315724 
L 397.264493 251.600964 
L 398.077756 253.130776 
L 398.891018 252.453521 
L 399.704281 255.020836 
L 400.517544 255.194142 
L 401.330807 255.194807 
L 402.14407 250.967618 
L 402.957333 251.770944 
L 403.770596 253.210942 
L 404.583859 254.212854 
L 405.397122 253.557553 
L 406.210384 254.15697 
L 407.023647 253.600464 
L 407.83691 255.201127 
L 408.650173 255.362125 
L 409.463436 253.06458 
L 411.089962 253.444788 
L 411.903225 252.76587 
L 412.716488 255.20279 
L 413.52975 255.31489 
L 414.343013 251.713397 
L 415.156276 253.761794 
L 415.969539 253.370609 
L 416.782802 254.108737 
L 417.596065 253.94907 
L 418.409328 254.282708 
L 419.222591 253.080547 
L 420.035854 255.480545 
L 420.849116 254.128031 
L 421.662379 253.225246 
L 422.475642 253.694933 
L 423.288905 252.085954 
L 424.102168 254.685868 
L 424.915431 254.642292 
L 425.728694 254.465993 
L 426.541957 254.549485 
L 427.35522 254.266741 
L 428.168482 255.443622 
L 428.981745 254.831897 
L 429.795008 250.580092 
L 430.608271 251.491526 
L 431.421534 254.816595 
L 432.234797 253.94275 
L 433.04806 253.232896 
L 433.861323 253.999964 
L 434.674586 255.746989 
L 435.487848 252.761213 
L 436.301111 253.985328 
L 437.114374 251.932274 
L 437.927637 254.041544 
L 438.7409 254.044871 
L 439.554163 253.026327 
L 440.367426 253.272813 
L 441.180689 251.451942 
L 441.993952 253.222252 
L 442.807214 253.114144 
L 443.620477 254.619672 
L 444.43374 249.50633 
L 445.247003 252.734934 
L 446.060266 252.193729 
L 446.873529 251.265663 
L 447.686792 251.35348 
L 448.500055 251.174853 
L 449.313318 252.69535 
L 450.12658 250.143003 
L 450.939843 254.517885 
L 451.753106 252.247949 
L 452.566369 250.346246 
L 453.379632 253.096847 
L 454.192895 254.765701 
L 455.006158 253.55589 
L 455.819421 253.716555 
L 456.632684 253.019674 
L 457.445946 253.835307 
L 458.259209 253.17036 
L 459.072472 254.221835 
L 459.885735 251.978844 
L 460.698998 255.078383 
L 462.325524 254.103083 
L 463.138787 252.24928 
L 463.95205 253.691607 
L 464.765312 253.714892 
L 465.578575 253.427823 
L 466.391838 251.219094 
L 467.205101 253.529279 
L 468.831627 254.040214 
L 469.64489 252.990069 
L 470.458153 253.508655 
L 471.271416 254.583415 
L 472.084678 253.848946 
L 472.897941 250.044209 
L 473.711204 252.767866 
L 474.524467 253.217928 
L 475.33773 251.118304 
L 476.150993 248.328785 
L 476.964256 255.599297 
L 477.777519 255.781917 
L 478.590782 255.084371 
L 479.404044 255.696096 
L 480.217307 251.298595 
L 481.03057 251.570362 
L 481.843833 253.212938 
L 482.657096 251.981505 
L 483.470359 253.309736 
L 484.283622 252.810776 
L 485.096885 254.209195 
L 485.910148 252.611192 
L 486.72341 252.117554 
L 487.536673 252.603541 
L 488.349936 252.039051 
L 489.163199 252.160132 
L 489.976462 253.348322 
L 490.789725 255.306241 
L 491.602988 254.730109 
L 492.416251 251.416017 
L 493.229514 252.906909 
L 494.042776 253.516306 
L 494.856039 255.063082 
L 495.669302 251.584 
L 496.482565 251.751318 
L 497.295828 251.004874 
L 498.109091 254.38749 
L 498.109091 254.38749 
" clip-path="url(#pa5e5e2f4ee)" style="fill: none; stroke: #008000; stroke-width: 1.5; stroke-linecap: square"/>
   </g>
   <g id="patch_3">
    <path d="M 72 384.48 
L 72 51.84 
" style="fill: none; stroke: #000000; stroke-width: 0.8; stroke-linejoin: miter; stroke-linecap: square"/>
   </g>
   <g id="patch_4">
    <path d="M 518.4 384.48 
L 518.4 51.84 
" style="fill: none; stroke: #000000; stroke-width: 0.8; stroke-linejoin: miter; stroke-linecap: square"/>
   </g>
   <g id="patch_5">
    <path d="M 72 384.48 
L 518.4 384.48 
" style="fill: none; stroke: #000000; stroke-width: 0.8; stroke-linejoin: miter; stroke-linecap: square"/>
   </g>
   <g id="patch_6">
    <path d="M 72 51.84 
L 518.4 51.84 
" style="fill: none; stroke: #000000; stroke-width: 0.8; stroke-linejoin: miter; stroke-linecap: square"/>
   </g>
   <g id="legend_1">
    <g id="patch_7">
     <path d="M 79 89.19625 
L 160.740625 89.19625 
Q 162.740625 89.19625 162.740625 87.19625 
L 162.740625 58.84 
Q 162.740625 56.84 160.740625 56.84 
L 79 56.84 
Q 77 56.84 77 58.84 
L 77 87.19625 
Q 77 89.19625 79 89.19625 
z
" style="fill: #ffffff; opacity: 0.8; stroke: #cccccc; stroke-linejoin: miter"/>
    </g>
    <g id="line2d_15">
     <path d="M 81 64.938437 
L 91 64.938437 
L 101 64.938437 
" style="fill: none; stroke: #0000ff; stroke-width: 1.5; stroke-linecap: square"/>
    </g>
    <g id="text_15">
     <!-- train mAP -->
     <g transform="translate(109 68.438437) scale(0.1 -0.1)">
      <defs>
       <path id="DejaVuSans-69" d="M 603 3500 
L 1178 3500 
L 1178 0 
L 603 0 
L 603 3500 
z
M 603 4863 
L 1178 4863 
L 1178 4134 
L 603 4134 
L 603 4863 
z
" transform="scale(0.015625)"/>
       <path id="DejaVuSans-6e" d="M 3513 2113 
L 3513 0 
L 2938 0 
L 2938 2094 
Q 2938 2591 2744 2837 
Q 2550 3084 2163 3084 
Q 1697 3084 1428 2787 
Q 1159 2491 1159 1978 
L 1159 0 
L 581 0 
L 581 3500 
L 1159 3500 
L 1159 2956 
Q 1366 3272 1645 3428 
Q 1925 3584 2291 3584 
Q 2894 3584 3203 3211 
Q 3513 2838 3513 2113 
z
" transform="scale(0.015625)"/>
       <path id="DejaVuSans-20" transform="scale(0.015625)"/>
       <path id="DejaVuSans-6d" d="M 3328 2828 
Q 3544 3216 3844 3400 
Q 4144 3584 4550 3584 
Q 5097 3584 5394 3201 
Q 5691 2819 5691 2113 
L 5691 0 
L 5113 0 
L 5113 2094 
Q 5113 2597 4934 2840 
Q 4756 3084 4391 3084 
Q 3944 3084 3684 2787 
Q 3425 2491 3425 1978 
L 3425 0 
L 2847 0 
L 2847 2094 
Q 2847 2600 2669 2842 
Q 2491 3084 2119 3084 
Q 1678 3084 1418 2786 
Q 1159 2488 1159 1978 
L 1159 0 
L 581 0 
L 581 3500 
L 1159 3500 
L 1159 2956 
Q 1356 3278 1631 3431 
Q 1906 3584 2284 3584 
Q 2666 3584 2933 3390 
Q 3200 3197 3328 2828 
z
" transform="scale(0.015625)"/>
       <path id="DejaVuSans-41" d="M 2188 4044 
L 1331 1722 
L 3047 1722 
L 2188 4044 
z
M 1831 4666 
L 2547 4666 
L 4325 0 
L 3669 0 
L 3244 1197 
L 1141 1197 
L 716 0 
L 50 0 
L 1831 4666 
z
" transform="scale(0.015625)"/>
       <path id="DejaVuSans-50" d="M 1259 4147 
L 1259 2394 
L 2053 2394 
Q 2494 2394 2734 2622 
Q 2975 2850 2975 3272 
Q 2975 3691 2734 3919 
Q 2494 4147 2053 4147 
L 1259 4147 
z
M 628 4666 
L 2053 4666 
Q 2838 4666 3239 4311 
Q 3641 3956 3641 3272 
Q 3641 2581 3239 2228 
Q 2838 1875 2053 1875 
L 1259 1875 
L 1259 0 
L 628 0 
L 628 4666 
z
" transform="scale(0.015625)"/>
      </defs>
      <use xlink:href="#DejaVuSans-74"/>
      <use xlink:href="#DejaVuSans-72" x="39.208984"/>
      <use xlink:href="#DejaVuSans-61" x="80.322266"/>
      <use xlink:href="#DejaVuSans-69" x="141.601562"/>
      <use xlink:href="#DejaVuSans-6e" x="169.384766"/>
      <use xlink:href="#DejaVuSans-20" x="232.763672"/>
      <use xlink:href="#DejaVuSans-6d" x="264.550781"/>
      <use xlink:href="#DejaVuSans-41" x="361.962891"/>
      <use xlink:href="#DejaVuSans-50" x="430.371094"/>
     </g>
    </g>
    <g id="line2d_16">
     <path d="M 81 79.616562 
L 91 79.616562 
L 101 79.616562 
" style="fill: none; stroke: #008000; stroke-width: 1.5; stroke-linecap: square"/>
    </g>
    <g id="text_16">
     <!-- valid mAP -->
     <g transform="translate(109 83.116562) scale(0.1 -0.1)">
      <defs>
       <path id="DejaVuSans-76" d="M 191 3500 
L 800 3500 
L 1894 563 
L 2988 3500 
L 3597 3500 
L 2284 0 
L 1503 0 
L 191 3500 
z
" transform="scale(0.015625)"/>
       <path id="DejaVuSans-6c" d="M 603 4863 
L 1178 4863 
L 1178 0 
L 603 0 
L 603 4863 
z
" transform="scale(0.015625)"/>
       <path id="DejaVuSans-64" d="M 2906 2969 
L 2906 4863 
L 3481 4863 
L 3481 0 
L 2906 0 
L 2906 525 
Q 2725 213 2448 61 
Q 2172 -91 1784 -91 
Q 1150 -91 751 415 
Q 353 922 353 1747 
Q 353 2572 751 3078 
Q 1150 3584 1784 3584 
Q 2172 3584 2448 3432 
Q 2725 3281 2906 2969 
z
M 947 1747 
Q 947 1113 1208 752 
Q 1469 391 1925 391 
Q 2381 391 2643 752 
Q 2906 1113 2906 1747 
Q 2906 2381 2643 2742 
Q 2381 3103 1925 3103 
Q 1469 3103 1208 2742 
Q 947 2381 947 1747 
z
" transform="scale(0.015625)"/>
      </defs>
      <use xlink:href="#DejaVuSans-76"/>
      <use xlink:href="#DejaVuSans-61" x="59.179688"/>
      <use xlink:href="#DejaVuSans-6c" x="120.458984"/>
      <use xlink:href="#DejaVuSans-69" x="148.242188"/>
      <use xlink:href="#DejaVuSans-64" x="176.025391"/>
      <use xlink:href="#DejaVuSans-20" x="239.501953"/>
      <use xlink:href="#DejaVuSans-6d" x="271.289062"/>
      <use xlink:href="#DejaVuSans-41" x="368.701172"/>
      <use xlink:href="#DejaVuSans-50" x="437.109375"/>
     </g>
    </g>
   </g>
  </g>
  <g id="axes_2">
   <g id="matplotlib.axis_3">
    <g id="ytick_7">
     <g id="line2d_17">
      <defs>
       <path id="m50506bf50f" d="M 0 0 
L 3.5 0 
" style="stroke: #000000; stroke-width: 0.8"/>
      </defs>
      <g>
       <use xlink:href="#m50506bf50f" x="518.4" y="345.370138" style="stroke: #000000; stroke-width: 0.8"/>
      </g>
     </g>
     <g id="text_17">
      <!-- 0.14 -->
      <g transform="translate(525.4 349.169357) scale(0.1 -0.1)">
       <use xlink:href="#DejaVuSans-30"/>
       <use xlink:href="#DejaVuSans-2e" x="63.623047"/>
       <use xlink:href="#DejaVuSans-31" x="95.410156"/>
       <use xlink:href="#DejaVuSans-34" x="159.033203"/>
      </g>
     </g>
    </g>
    <g id="ytick_8">
     <g id="line2d_18">
      <g>
       <use xlink:href="#m50506bf50f" x="518.4" y="285.215937" style="stroke: #000000; stroke-width: 0.8"/>
      </g>
     </g>
     <g id="text_18">
      <!-- 0.15 -->
      <g transform="translate(525.4 289.015156) scale(0.1 -0.1)">
       <use xlink:href="#DejaVuSans-30"/>
       <use xlink:href="#DejaVuSans-2e" x="63.623047"/>
       <use xlink:href="#DejaVuSans-31" x="95.410156"/>
       <use xlink:href="#DejaVuSans-35" x="159.033203"/>
      </g>
     </g>
    </g>
    <g id="ytick_9">
     <g id="line2d_19">
      <g>
       <use xlink:href="#m50506bf50f" x="518.4" y="225.061736" style="stroke: #000000; stroke-width: 0.8"/>
      </g>
     </g>
     <g id="text_19">
      <!-- 0.16 -->
      <g transform="translate(525.4 228.860955) scale(0.1 -0.1)">
       <use xlink:href="#DejaVuSans-30"/>
       <use xlink:href="#DejaVuSans-2e" x="63.623047"/>
       <use xlink:href="#DejaVuSans-31" x="95.410156"/>
       <use xlink:href="#DejaVuSans-36" x="159.033203"/>
      </g>
     </g>
    </g>
    <g id="ytick_10">
     <g id="line2d_20">
      <g>
       <use xlink:href="#m50506bf50f" x="518.4" y="164.907535" style="stroke: #000000; stroke-width: 0.8"/>
      </g>
     </g>
     <g id="text_20">
      <!-- 0.17 -->
      <g transform="translate(525.4 168.706754) scale(0.1 -0.1)">
       <defs>
        <path id="DejaVuSans-37" d="M 525 4666 
L 3525 4666 
L 3525 4397 
L 1831 0 
L 1172 0 
L 2766 4134 
L 525 4134 
L 525 4666 
z
" transform="scale(0.015625)"/>
       </defs>
       <use xlink:href="#DejaVuSans-30"/>
       <use xlink:href="#DejaVuSans-2e" x="63.623047"/>
       <use xlink:href="#DejaVuSans-31" x="95.410156"/>
       <use xlink:href="#DejaVuSans-37" x="159.033203"/>
      </g>
     </g>
    </g>
    <g id="ytick_11">
     <g id="line2d_21">
      <g>
       <use xlink:href="#m50506bf50f" x="518.4" y="104.753335" style="stroke: #000000; stroke-width: 0.8"/>
      </g>
     </g>
     <g id="text_21">
      <!-- 0.18 -->
      <g transform="translate(525.4 108.552553) scale(0.1 -0.1)">
       <use xlink:href="#DejaVuSans-30"/>
       <use xlink:href="#DejaVuSans-2e" x="63.623047"/>
       <use xlink:href="#DejaVuSans-31" x="95.410156"/>
       <use xlink:href="#DejaVuSans-38" x="159.033203"/>
      </g>
     </g>
    </g>
    <g id="text_22">
     <!-- loss -->
     <g transform="translate(559.264063 227.817812) rotate(-90) scale(0.1 -0.1)">
      <defs>
       <path id="DejaVuSans-73" d="M 2834 3397 
L 2834 2853 
Q 2591 2978 2328 3040 
Q 2066 3103 1784 3103 
Q 1356 3103 1142 2972 
Q 928 2841 928 2578 
Q 928 2378 1081 2264 
Q 1234 2150 1697 2047 
L 1894 2003 
Q 2506 1872 2764 1633 
Q 3022 1394 3022 966 
Q 3022 478 2636 193 
Q 2250 -91 1575 -91 
Q 1294 -91 989 -36 
Q 684 19 347 128 
L 347 722 
Q 666 556 975 473 
Q 1284 391 1588 391 
Q 1994 391 2212 530 
Q 2431 669 2431 922 
Q 2431 1156 2273 1281 
Q 2116 1406 1581 1522 
L 1381 1569 
Q 847 1681 609 1914 
Q 372 2147 372 2553 
Q 372 3047 722 3315 
Q 1072 3584 1716 3584 
Q 2034 3584 2315 3537 
Q 2597 3491 2834 3397 
z
" transform="scale(0.015625)"/>
      </defs>
      <use xlink:href="#DejaVuSans-6c"/>
      <use xlink:href="#DejaVuSans-6f" x="27.783203"/>
      <use xlink:href="#DejaVuSans-73" x="88.964844"/>
      <use xlink:href="#DejaVuSans-73" x="141.064453"/>
     </g>
    </g>
   </g>
   <g id="line2d_22">
    <path d="M 92.290909 154.674514 
L 93.104172 228.129112 
L 93.917435 258.725883 
L 94.730698 261.188792 
L 95.543961 288.5228 
L 96.357224 236.329425 
L 97.170486 238.545251 
L 98.797012 285.227116 
L 99.610275 272.691527 
L 100.423538 254.502638 
L 101.236801 277.830018 
L 103.67659 301.831242 
L 104.489852 276.756503 
L 106.116378 293.734734 
L 106.929641 308.389355 
L 107.742904 311.411538 
L 108.556167 256.722811 
L 109.36943 287.100081 
L 110.182693 299.256223 
L 110.995956 318.652519 
L 112.622481 309.041704 
L 113.435744 301.171429 
L 114.249007 302.078386 
L 115.06227 302.083112 
L 115.875533 329.475209 
L 116.688796 310.027101 
L 117.502059 330.887063 
L 118.315322 328.817754 
L 119.128584 316.106123 
L 119.941847 329.046235 
L 120.75511 294.677832 
L 121.568373 313.503846 
L 122.381636 316.643007 
L 123.194899 316.126779 
L 124.008162 335.26519 
L 124.821425 312.976187 
L 125.634688 329.716501 
L 126.44795 308.295366 
L 127.261213 335.611748 
L 128.887739 328.974673 
L 129.701002 299.766161 
L 130.514265 325.577993 
L 131.327528 338.173664 
L 132.140791 346.916162 
L 132.954054 327.332209 
L 133.767316 339.214162 
L 134.580579 344.997774 
L 135.393842 338.180752 
L 136.207105 352.805179 
L 137.020368 336.098132 
L 137.833631 333.784795 
L 138.646894 337.102096 
L 139.460157 335.577076 
L 140.27342 343.670313 
L 141.086682 320.224194 
L 141.899945 339.740526 
L 142.713208 356.143411 
L 143.526471 356.076661 
L 144.339734 344.180107 
L 145.152997 336.834794 
L 145.96626 341.371579 
L 146.779523 360.362191 
L 147.592786 344.048476 
L 148.406048 355.707637 
L 149.219311 332.216744 
L 150.032574 338.349874 
L 150.845837 354.200228 
L 151.6591 357.365516 
L 152.472363 335.365917 
L 153.285626 338.120452 
L 154.098889 345.644279 
L 154.912152 318.85624 
L 155.725414 363.105228 
L 156.538677 363.336787 
L 157.35194 325.944134 
L 158.165203 335.63788 
L 160.604992 356.790996 
L 161.418255 336.096086 
L 162.231518 362.169174 
L 163.04478 340.554338 
L 163.858043 346.031255 
L 164.671306 356.390357 
L 165.484569 350.01332 
L 166.297832 361.523951 
L 167.111095 348.442738 
L 167.924358 350.206286 
L 168.737621 365.491037 
L 169.550884 341.724292 
L 170.364146 357.171624 
L 171.177409 359.633295 
L 171.990672 368.49142 
L 172.803935 369.36 
L 173.617198 337.851658 
L 174.430461 359.831659 
L 175.243724 336.041556 
L 176.056987 362.00654 
L 176.87025 335.470471 
L 177.683512 315.346409 
L 178.496775 322.525448 
L 179.310038 345.790026 
L 180.123301 327.070987 
L 180.936564 356.490554 
L 181.749827 331.038469 
L 182.56309 332.787558 
L 183.376353 357.934831 
L 184.189616 358.094257 
L 185.002878 311.49744 
L 185.816141 310.535553 
L 186.629404 319.234266 
L 187.442667 351.421257 
L 188.25593 348.031367 
L 189.069193 359.629279 
L 189.882456 314.911748 
L 190.695719 338.505033 
L 191.508982 337.185879 
L 192.322244 320.772719 
L 193.135507 358.021216 
L 193.94877 301.306549 
L 194.762033 343.485161 
L 195.575296 351.079724 
L 196.388559 348.779752 
L 197.201822 350.113724 
L 198.015085 307.122992 
L 198.828348 311.635398 
L 199.64161 349.802502 
L 200.454873 351.656745 
L 201.268136 338.058077 
L 202.081399 318.051711 
L 203.707925 360.303666 
L 204.521188 339.330969 
L 205.334451 337.823707 
L 206.147714 300.5314 
L 207.774239 353.197472 
L 208.587502 358.145983 
L 209.400765 348.916214 
L 210.214028 268.215382 
L 211.027291 346.165392 
L 211.840554 338.147412 
L 212.653817 340.667589 
L 213.46708 356.534232 
L 214.280343 311.553796 
L 215.093605 335.778819 
L 215.906868 349.285408 
L 216.720131 349.915649 
L 217.533394 354.472487 
L 218.346657 311.784656 
L 219.15992 309.718188 
L 219.973183 326.225464 
L 220.786446 348.238147 
L 221.599709 350.022887 
L 222.412971 282.696352 
L 224.039497 348.537128 
L 224.85276 351.028061 
L 225.666023 339.805212 
L 226.479286 273.391289 
L 227.292549 324.135917 
L 228.105812 311.917009 
L 228.919075 342.315822 
L 229.732337 343.243652 
L 230.5456 290.682398 
L 231.358863 336.821287 
L 232.172126 352.654514 
L 232.985389 362.852328 
L 233.798652 367.18717 
L 234.611915 266.254145 
L 235.425178 328.583299 
L 236.238441 342.514223 
L 237.051703 340.000794 
L 237.864966 363.773913 
L 238.678229 271.721782 
L 239.491492 308.269387 
L 240.304755 337.472062 
L 241.118018 346.261089 
L 241.931281 359.783648 
L 242.744544 282.764849 
L 243.557807 322.631319 
L 244.371069 348.282796 
L 245.184332 354.027476 
L 245.997595 355.797418 
L 246.810858 249.265068 
L 247.624121 313.304965 
L 248.437384 341.916329 
L 249.250647 344.148147 
L 250.06391 360.985433 
L 250.877173 268.5601 
L 251.690435 307.93783 
L 252.503698 339.041432 
L 253.316961 356.434038 
L 254.130224 347.628019 
L 254.943487 269.478314 
L 255.75675 308.989177 
L 256.570013 341.540569 
L 257.383276 339.348415 
L 258.196539 348.980675 
L 259.009801 283.254015 
L 259.823064 313.649909 
L 260.636327 337.056055 
L 261.44959 319.056272 
L 262.262853 312.032701 
L 263.076116 262.378839 
L 263.889379 311.898121 
L 264.702642 322.63362 
L 265.515905 331.797804 
L 266.329167 346.460332 
L 267.14243 243.093093 
L 267.955693 309.416179 
L 268.768956 343.540183 
L 269.582219 341.448816 
L 270.395482 335.171873 
L 271.208745 251.284741 
L 272.022008 307.296955 
L 272.835271 335.631237 
L 273.648533 337.339601 
L 274.461796 359.317592 
L 275.275059 244.426153 
L 276.088322 294.940014 
L 276.901585 317.119917 
L 277.714848 328.619024 
L 278.528111 347.217919 
L 279.341374 232.388894 
L 280.154637 271.869857 
L 280.967899 303.455918 
L 281.781162 324.027028 
L 282.594425 353.20655 
L 283.407688 224.453757 
L 285.034214 327.30717 
L 285.847477 335.252315 
L 286.66074 350.832615 
L 287.474003 224.405458 
L 288.287265 307.90822 
L 289.100528 318.575212 
L 289.913791 339.694333 
L 290.727054 332.064416 
L 291.540317 235.004462 
L 292.35358 289.844877 
L 293.166843 318.946612 
L 293.980106 324.735119 
L 294.793369 336.09677 
L 295.606631 98.865836 
L 296.419894 253.454954 
L 297.233157 283.096605 
L 298.04642 304.572175 
L 298.859683 334.048384 
L 299.672946 153.168124 
L 300.486209 268.814775 
L 301.299472 295.578539 
L 302.112735 315.969997 
L 302.925997 327.781438 
L 303.73926 194.886753 
L 304.552523 246.645185 
L 305.365786 285.928743 
L 306.179049 331.37373 
L 306.992312 318.212342 
L 307.805575 194.159191 
L 309.432101 278.703702 
L 310.245363 302.998821 
L 311.058626 335.951469 
L 311.871889 165.118365 
L 312.685152 248.889152 
L 313.498415 276.316188 
L 314.311678 318.661691 
L 315.124941 308.767344 
L 315.938204 180.876774 
L 316.751467 240.744672 
L 317.564729 285.729042 
L 318.377992 292.816418 
L 319.191255 332.876132 
L 320.004518 160.08945 
L 320.817781 260.147728 
L 321.631044 290.943313 
L 322.444307 289.505174 
L 323.25757 294.18539 
L 324.070833 163.073149 
L 324.884095 230.436626 
L 325.697358 272.610595 
L 326.510621 304.120161 
L 327.323884 310.141843 
L 328.137147 177.145719 
L 328.95041 231.869345 
L 329.763673 264.459393 
L 330.576936 273.004733 
L 331.390199 296.804269 
L 332.203461 188.574324 
L 333.016724 200.040602 
L 333.829987 274.774217 
L 335.456513 316.174576 
L 336.269776 184.654783 
L 337.083039 219.022841 
L 337.896302 273.869717 
L 338.709565 297.706906 
L 339.522827 300.305468 
L 340.33609 181.146501 
L 341.149353 245.770079 
L 341.962616 277.000609 
L 342.775879 293.894576 
L 343.589142 299.770011 
L 344.402405 160.004704 
L 345.215668 226.201678 
L 346.028931 259.912659 
L 346.842193 287.256482 
L 347.655456 293.185783 
L 348.468719 98.074931 
L 350.095245 263.747314 
L 350.908508 265.927195 
L 351.721771 308.193439 
L 352.535034 156.861267 
L 353.348297 219.479191 
L 354.974822 293.359574 
L 355.788085 283.082447 
L 356.601348 162.487676 
L 357.414611 208.970678 
L 359.041137 277.910024 
L 359.8544 288.517133 
L 360.667663 117.723838 
L 361.480925 195.177126 
L 362.294188 244.732564 
L 363.107451 251.162818 
L 363.920714 285.909028 
L 364.733977 132.651548 
L 365.54724 195.141705 
L 366.360503 228.108317 
L 367.173766 249.089291 
L 367.987029 256.197176 
L 368.800291 163.869158 
L 369.613554 198.126758 
L 370.426817 244.561176 
L 371.24008 257.999532 
L 372.053343 265.788312 
L 372.866606 155.629106 
L 373.679869 189.266161 
L 374.493132 246.724215 
L 375.306395 257.654316 
L 376.119657 277.83948 
L 376.93292 133.244361 
L 377.746183 178.685868 
L 378.559446 206.878626 
L 379.372709 239.305286 
L 380.185972 281.69321 
L 380.999235 142.279391 
L 381.812498 182.702659 
L 382.625761 231.056708 
L 383.439024 235.894493 
L 384.252286 269.356816 
L 385.065549 124.586621 
L 386.692075 214.50732 
L 387.505338 252.499446 
L 388.318601 254.576743 
L 389.131864 145.787509 
L 389.945127 164.75564 
L 390.75839 226.567444 
L 391.571652 226.957007 
L 392.384915 267.919715 
L 393.198178 120.963947 
L 394.011441 161.873271 
L 394.824704 186.353141 
L 395.637967 190.88759 
L 396.45123 242.828737 
L 397.264493 129.954612 
L 398.077756 175.276932 
L 398.891018 204.737831 
L 399.704281 214.019258 
L 400.517544 251.880474 
L 401.330807 149.190279 
L 402.14407 179.916874 
L 402.957333 197.374591 
L 403.770596 234.05679 
L 404.583859 251.302068 
L 405.397122 127.862655 
L 406.210384 148.859037 
L 407.023647 192.304413 
L 408.650173 243.770411 
L 409.463436 112.771582 
L 410.276699 153.378267 
L 411.089962 200.440491 
L 411.903225 205.697014 
L 412.716488 217.841608 
L 413.52975 92.746913 
L 414.343013 152.70776 
L 415.156276 180.003259 
L 415.969539 163.92656 
L 416.782802 219.133776 
L 417.596065 99.085256 
L 419.222591 173.708832 
L 420.035854 200.680295 
L 420.849116 211.912112 
L 421.662379 102.775357 
L 422.475642 146.772906 
L 423.288905 150.803103 
L 424.102168 177.364941 
L 424.915431 224.56398 
L 425.728694 82.061361 
L 426.541957 118.871328 
L 427.35522 161.094891 
L 428.168482 193.413862 
L 428.981745 213.110526 
L 429.795008 98.685352 
L 430.608271 137.728195 
L 431.421534 163.611606 
L 432.234797 183.288152 
L 433.04806 199.254742 
L 433.861323 82.503514 
L 434.674586 132.295675 
L 435.487848 141.981219 
L 436.301111 202.780394 
L 437.114374 208.654394 
L 437.927637 77.486561 
L 438.7409 99.494244 
L 439.554163 154.904532 
L 440.367426 187.075947 
L 441.180689 207.872473 
L 441.993952 89.927145 
L 442.807214 146.424831 
L 443.620477 147.541825 
L 445.247003 224.092476 
L 446.060266 96.948391 
L 446.873529 120.820807 
L 447.686792 155.258144 
L 448.500055 212.96265 
L 449.313318 220.664817 
L 450.12658 70.954084 
L 451.753106 126.307209 
L 453.379632 194.614611 
L 454.192895 89.885374 
L 455.819421 157.697339 
L 456.632684 185.655667 
L 457.445946 223.359671 
L 458.259209 81.264082 
L 459.072472 114.511038 
L 459.885735 163.058617 
L 460.698998 171.673804 
L 461.512261 206.999595 
L 462.325524 77.291885 
L 463.138787 77.41284 
L 463.95205 109.977829 
L 464.765312 165.526875 
L 465.578575 195.653944 
L 466.391838 70.216941 
L 467.205101 127.027176 
L 468.018364 147.829322 
L 468.831627 181.916177 
L 469.64489 189.164911 
L 470.458153 72.566131 
L 471.271416 127.446776 
L 472.084678 138.819701 
L 473.711204 211.395182 
L 474.524467 73.678174 
L 475.33773 124.803054 
L 476.150993 161.539932 
L 476.964256 173.602618 
L 477.777519 191.679769 
L 478.590782 82.21593 
L 479.404044 131.506902 
L 480.217307 173.961354 
L 481.03057 184.710079 
L 481.843833 212.16555 
L 482.657096 66.96 
L 483.470359 111.602918 
L 484.283622 179.162506 
L 485.096885 156.036067 
L 485.910148 223.007109 
L 486.72341 92.138752 
L 487.536673 140.28703 
L 488.349936 173.480104 
L 489.976462 230.303192 
L 490.789725 101.901887 
L 491.602988 136.353914 
L 492.416251 187.109042 
L 493.229514 210.209298 
L 494.042776 203.604693 
L 494.856039 134.122238 
L 495.669302 163.341511 
L 497.295828 229.525742 
L 498.109091 219.50164 
L 498.109091 219.50164 
" clip-path="url(#pa5e5e2f4ee)" style="fill: none; stroke: #ff0000; stroke-width: 1.5; stroke-linecap: square"/>
   </g>
   <g id="patch_8">
    <path d="M 72 384.48 
L 72 51.84 
" style="fill: none; stroke: #000000; stroke-width: 0.8; stroke-linejoin: miter; stroke-linecap: square"/>
   </g>
   <g id="patch_9">
    <path d="M 518.4 384.48 
L 518.4 51.84 
" style="fill: none; stroke: #000000; stroke-width: 0.8; stroke-linejoin: miter; stroke-linecap: square"/>
   </g>
   <g id="patch_10">
    <path d="M 72 384.48 
L 518.4 384.48 
" style="fill: none; stroke: #000000; stroke-width: 0.8; stroke-linejoin: miter; stroke-linecap: square"/>
   </g>
   <g id="patch_11">
    <path d="M 72 51.84 
L 518.4 51.84 
" style="fill: none; stroke: #000000; stroke-width: 0.8; stroke-linejoin: miter; stroke-linecap: square"/>
   </g>
   <g id="text_23">
    <!-- The learning curve on flag_resnet/host/7 -->
    <g transform="translate(173.578125 45.84) scale(0.12 -0.12)">
     <defs>
      <path id="DejaVuSans-54" d="M -19 4666 
L 3928 4666 
L 3928 4134 
L 2272 4134 
L 2272 0 
L 1638 0 
L 1638 4134 
L -19 4134 
L -19 4666 
z
" transform="scale(0.015625)"/>
      <path id="DejaVuSans-67" d="M 2906 1791 
Q 2906 2416 2648 2759 
Q 2391 3103 1925 3103 
Q 1463 3103 1205 2759 
Q 947 2416 947 1791 
Q 947 1169 1205 825 
Q 1463 481 1925 481 
Q 2391 481 2648 825 
Q 2906 1169 2906 1791 
z
M 3481 434 
Q 3481 -459 3084 -895 
Q 2688 -1331 1869 -1331 
Q 1566 -1331 1297 -1286 
Q 1028 -1241 775 -1147 
L 775 -588 
Q 1028 -725 1275 -790 
Q 1522 -856 1778 -856 
Q 2344 -856 2625 -561 
Q 2906 -266 2906 331 
L 2906 616 
Q 2728 306 2450 153 
Q 2172 0 1784 0 
Q 1141 0 747 490 
Q 353 981 353 1791 
Q 353 2603 747 3093 
Q 1141 3584 1784 3584 
Q 2172 3584 2450 3431 
Q 2728 3278 2906 2969 
L 2906 3500 
L 3481 3500 
L 3481 434 
z
" transform="scale(0.015625)"/>
      <path id="DejaVuSans-75" d="M 544 1381 
L 544 3500 
L 1119 3500 
L 1119 1403 
Q 1119 906 1312 657 
Q 1506 409 1894 409 
Q 2359 409 2629 706 
Q 2900 1003 2900 1516 
L 2900 3500 
L 3475 3500 
L 3475 0 
L 2900 0 
L 2900 538 
Q 2691 219 2414 64 
Q 2138 -91 1772 -91 
Q 1169 -91 856 284 
Q 544 659 544 1381 
z
M 1991 3584 
L 1991 3584 
z
" transform="scale(0.015625)"/>
      <path id="DejaVuSans-66" d="M 2375 4863 
L 2375 4384 
L 1825 4384 
Q 1516 4384 1395 4259 
Q 1275 4134 1275 3809 
L 1275 3500 
L 2222 3500 
L 2222 3053 
L 1275 3053 
L 1275 0 
L 697 0 
L 697 3053 
L 147 3053 
L 147 3500 
L 697 3500 
L 697 3744 
Q 697 4328 969 4595 
Q 1241 4863 1831 4863 
L 2375 4863 
z
" transform="scale(0.015625)"/>
      <path id="DejaVuSans-5f" d="M 3263 -1063 
L 3263 -1509 
L -63 -1509 
L -63 -1063 
L 3263 -1063 
z
" transform="scale(0.015625)"/>
      <path id="DejaVuSans-2f" d="M 1625 4666 
L 2156 4666 
L 531 -594 
L 0 -594 
L 1625 4666 
z
" transform="scale(0.015625)"/>
     </defs>
     <use xlink:href="#DejaVuSans-54"/>
     <use xlink:href="#DejaVuSans-68" x="61.083984"/>
     <use xlink:href="#DejaVuSans-65" x="124.462891"/>
     <use xlink:href="#DejaVuSans-20" x="185.986328"/>
     <use xlink:href="#DejaVuSans-6c" x="217.773438"/>
     <use xlink:href="#DejaVuSans-65" x="245.556641"/>
     <use xlink:href="#DejaVuSans-61" x="307.080078"/>
     <use xlink:href="#DejaVuSans-72" x="368.359375"/>
     <use xlink:href="#DejaVuSans-6e" x="407.722656"/>
     <use xlink:href="#DejaVuSans-69" x="471.101562"/>
     <use xlink:href="#DejaVuSans-6e" x="498.884766"/>
     <use xlink:href="#DejaVuSans-67" x="562.263672"/>
     <use xlink:href="#DejaVuSans-20" x="625.740234"/>
     <use xlink:href="#DejaVuSans-63" x="657.527344"/>
     <use xlink:href="#DejaVuSans-75" x="712.507812"/>
     <use xlink:href="#DejaVuSans-72" x="775.886719"/>
     <use xlink:href="#DejaVuSans-76" x="817"/>
     <use xlink:href="#DejaVuSans-65" x="876.179688"/>
     <use xlink:href="#DejaVuSans-20" x="937.703125"/>
     <use xlink:href="#DejaVuSans-6f" x="969.490234"/>
     <use xlink:href="#DejaVuSans-6e" x="1030.671875"/>
     <use xlink:href="#DejaVuSans-20" x="1094.050781"/>
     <use xlink:href="#DejaVuSans-66" x="1125.837891"/>
     <use xlink:href="#DejaVuSans-6c" x="1161.042969"/>
     <use xlink:href="#DejaVuSans-61" x="1188.826172"/>
     <use xlink:href="#DejaVuSans-67" x="1250.105469"/>
     <use xlink:href="#DejaVuSans-5f" x="1313.582031"/>
     <use xlink:href="#DejaVuSans-72" x="1363.582031"/>
     <use xlink:href="#DejaVuSans-65" x="1402.445312"/>
     <use xlink:href="#DejaVuSans-73" x="1463.96875"/>
     <use xlink:href="#DejaVuSans-6e" x="1516.068359"/>
     <use xlink:href="#DejaVuSans-65" x="1579.447266"/>
     <use xlink:href="#DejaVuSans-74" x="1640.970703"/>
     <use xlink:href="#DejaVuSans-2f" x="1680.179688"/>
     <use xlink:href="#DejaVuSans-68" x="1713.871094"/>
     <use xlink:href="#DejaVuSans-6f" x="1777.25"/>
     <use xlink:href="#DejaVuSans-73" x="1838.431641"/>
     <use xlink:href="#DejaVuSans-74" x="1890.53125"/>
     <use xlink:href="#DejaVuSans-2f" x="1929.740234"/>
     <use xlink:href="#DejaVuSans-37" x="1963.431641"/>
    </g>
   </g>
   <g id="legend_2">
    <g id="patch_12">
     <path d="M 460.084375 74.518125 
L 511.4 74.518125 
Q 513.4 74.518125 513.4 72.518125 
L 513.4 58.84 
Q 513.4 56.84 511.4 56.84 
L 460.084375 56.84 
Q 458.084375 56.84 458.084375 58.84 
L 458.084375 72.518125 
Q 458.084375 74.518125 460.084375 74.518125 
z
" style="fill: #ffffff; opacity: 0.8; stroke: #cccccc; stroke-linejoin: miter"/>
    </g>
    <g id="line2d_23">
     <path d="M 462.084375 64.938438 
L 472.084375 64.938438 
L 482.084375 64.938438 
" style="fill: none; stroke: #ff0000; stroke-width: 1.5; stroke-linecap: square"/>
    </g>
    <g id="text_24">
     <!-- loss -->
     <g transform="translate(490.084375 68.438438) scale(0.1 -0.1)">
      <use xlink:href="#DejaVuSans-6c"/>
      <use xlink:href="#DejaVuSans-6f" x="27.783203"/>
      <use xlink:href="#DejaVuSans-73" x="88.964844"/>
      <use xlink:href="#DejaVuSans-73" x="141.064453"/>
     </g>
    </g>
   </g>
  </g>
 </g>
 <defs>
  <clipPath id="pa5e5e2f4ee">
   <rect x="72" y="51.84" width="446.4" height="332.64"/>
  </clipPath>
 </defs>
</svg>
