<?xml version="1.0" encoding="utf-8" standalone="no"?>
<!DOCTYPE svg PUBLIC "-//W3C//DTD SVG 1.1//EN"
  "http://www.w3.org/Graphics/SVG/1.1/DTD/svg11.dtd">
<svg xmlns:xlink="http://www.w3.org/1999/xlink" width="460.8pt" height="345.6pt" viewBox="0 0 460.8 345.6" xmlns="http://www.w3.org/2000/svg" version="1.1">
 <metadata>
  <rdf:RDF xmlns:dc="http://purl.org/dc/elements/1.1/" xmlns:cc="http://creativecommons.org/ns#" xmlns:rdf="http://www.w3.org/1999/02/22-rdf-syntax-ns#">
   <cc:Work>
    <dc:type rdf:resource="http://purl.org/dc/dcmitype/StillImage"/>
    <dc:date>2023-06-19T00:39:03.925316</dc:date>
    <dc:format>image/svg+xml</dc:format>
    <dc:creator>
     <cc:Agent>
      <dc:title>Matplotlib v3.7.1, https://matplotlib.org/</dc:title>
     </cc:Agent>
    </dc:creator>
   </cc:Work>
  </rdf:RDF>
 </metadata>
 <defs>
  <style type="text/css">*{stroke-linejoin: round; stroke-linecap: butt}</style>
 </defs>
 <g id="figure_1">
  <g id="patch_1">
   <path d="M 0 345.6 
L 460.8 345.6 
L 460.8 0 
L 0 0 
z
" style="fill: #ffffff"/>
  </g>
  <g id="axes_1">
   <g id="patch_2">
    <path d="M 57.6 307.584 
L 414.72 307.584 
L 414.72 41.472 
L 57.6 41.472 
z
" style="fill: #ffffff"/>
   </g>
   <g id="matplotlib.axis_1">
    <g id="xtick_1">
     <g id="line2d_1">
      <defs>
       <path id="me8d46c77b7" d="M 0 0 
L 0 3.5 
" style="stroke: #000000; stroke-width: 0.8"/>
      </defs>
      <g>
       <use xlink:href="#me8d46c77b7" x="73.832727" y="307.584" style="stroke: #000000; stroke-width: 0.8"/>
      </g>
     </g>
     <g id="text_1">
      <!-- 0 -->
      <g transform="translate(70.651477 322.182437) scale(0.1 -0.1)">
       <defs>
        <path id="DejaVuSans-30" d="M 2034 4250 
Q 1547 4250 1301 3770 
Q 1056 3291 1056 2328 
Q 1056 1369 1301 889 
Q 1547 409 2034 409 
Q 2525 409 2770 889 
Q 3016 1369 3016 2328 
Q 3016 3291 2770 3770 
Q 2525 4250 2034 4250 
z
M 2034 4750 
Q 2819 4750 3233 4129 
Q 3647 3509 3647 2328 
Q 3647 1150 3233 529 
Q 2819 -91 2034 -91 
Q 1250 -91 836 529 
Q 422 1150 422 2328 
Q 422 3509 836 4129 
Q 1250 4750 2034 4750 
z
" transform="scale(0.015625)"/>
       </defs>
       <use xlink:href="#DejaVuSans-30"/>
      </g>
     </g>
    </g>
    <g id="xtick_2">
     <g id="line2d_2">
      <g>
       <use xlink:href="#me8d46c77b7" x="138.893758" y="307.584" style="stroke: #000000; stroke-width: 0.8"/>
      </g>
     </g>
     <g id="text_2">
      <!-- 100 -->
      <g transform="translate(129.350008 322.182437) scale(0.1 -0.1)">
       <defs>
        <path id="DejaVuSans-31" d="M 794 531 
L 1825 531 
L 1825 4091 
L 703 3866 
L 703 4441 
L 1819 4666 
L 2450 4666 
L 2450 531 
L 3481 531 
L 3481 0 
L 794 0 
L 794 531 
z
" transform="scale(0.015625)"/>
       </defs>
       <use xlink:href="#DejaVuSans-31"/>
       <use xlink:href="#DejaVuSans-30" x="63.623047"/>
       <use xlink:href="#DejaVuSans-30" x="127.246094"/>
      </g>
     </g>
    </g>
    <g id="xtick_3">
     <g id="line2d_3">
      <g>
       <use xlink:href="#me8d46c77b7" x="203.95479" y="307.584" style="stroke: #000000; stroke-width: 0.8"/>
      </g>
     </g>
     <g id="text_3">
      <!-- 200 -->
      <g transform="translate(194.41104 322.182437) scale(0.1 -0.1)">
       <defs>
        <path id="DejaVuSans-32" d="M 1228 531 
L 3431 531 
L 3431 0 
L 469 0 
L 469 531 
Q 828 903 1448 1529 
Q 2069 2156 2228 2338 
Q 2531 2678 2651 2914 
Q 2772 3150 2772 3378 
Q 2772 3750 2511 3984 
Q 2250 4219 1831 4219 
Q 1534 4219 1204 4116 
Q 875 4013 500 3803 
L 500 4441 
Q 881 4594 1212 4672 
Q 1544 4750 1819 4750 
Q 2544 4750 2975 4387 
Q 3406 4025 3406 3419 
Q 3406 3131 3298 2873 
Q 3191 2616 2906 2266 
Q 2828 2175 2409 1742 
Q 1991 1309 1228 531 
z
" transform="scale(0.015625)"/>
       </defs>
       <use xlink:href="#DejaVuSans-32"/>
       <use xlink:href="#DejaVuSans-30" x="63.623047"/>
       <use xlink:href="#DejaVuSans-30" x="127.246094"/>
      </g>
     </g>
    </g>
    <g id="xtick_4">
     <g id="line2d_4">
      <g>
       <use xlink:href="#me8d46c77b7" x="269.015821" y="307.584" style="stroke: #000000; stroke-width: 0.8"/>
      </g>
     </g>
     <g id="text_4">
      <!-- 300 -->
      <g transform="translate(259.472071 322.182437) scale(0.1 -0.1)">
       <defs>
        <path id="DejaVuSans-33" d="M 2597 2516 
Q 3050 2419 3304 2112 
Q 3559 1806 3559 1356 
Q 3559 666 3084 287 
Q 2609 -91 1734 -91 
Q 1441 -91 1130 -33 
Q 819 25 488 141 
L 488 750 
Q 750 597 1062 519 
Q 1375 441 1716 441 
Q 2309 441 2620 675 
Q 2931 909 2931 1356 
Q 2931 1769 2642 2001 
Q 2353 2234 1838 2234 
L 1294 2234 
L 1294 2753 
L 1863 2753 
Q 2328 2753 2575 2939 
Q 2822 3125 2822 3475 
Q 2822 3834 2567 4026 
Q 2313 4219 1838 4219 
Q 1578 4219 1281 4162 
Q 984 4106 628 3988 
L 628 4550 
Q 988 4650 1302 4700 
Q 1616 4750 1894 4750 
Q 2613 4750 3031 4423 
Q 3450 4097 3450 3541 
Q 3450 3153 3228 2886 
Q 3006 2619 2597 2516 
z
" transform="scale(0.015625)"/>
       </defs>
       <use xlink:href="#DejaVuSans-33"/>
       <use xlink:href="#DejaVuSans-30" x="63.623047"/>
       <use xlink:href="#DejaVuSans-30" x="127.246094"/>
      </g>
     </g>
    </g>
    <g id="xtick_5">
     <g id="line2d_5">
      <g>
       <use xlink:href="#me8d46c77b7" x="334.076852" y="307.584" style="stroke: #000000; stroke-width: 0.8"/>
      </g>
     </g>
     <g id="text_5">
      <!-- 400 -->
      <g transform="translate(324.533102 322.182437) scale(0.1 -0.1)">
       <defs>
        <path id="DejaVuSans-34" d="M 2419 4116 
L 825 1625 
L 2419 1625 
L 2419 4116 
z
M 2253 4666 
L 3047 4666 
L 3047 1625 
L 3713 1625 
L 3713 1100 
L 3047 1100 
L 3047 0 
L 2419 0 
L 2419 1100 
L 313 1100 
L 313 1709 
L 2253 4666 
z
" transform="scale(0.015625)"/>
       </defs>
       <use xlink:href="#DejaVuSans-34"/>
       <use xlink:href="#DejaVuSans-30" x="63.623047"/>
       <use xlink:href="#DejaVuSans-30" x="127.246094"/>
      </g>
     </g>
    </g>
    <g id="xtick_6">
     <g id="line2d_6">
      <g>
       <use xlink:href="#me8d46c77b7" x="399.137883" y="307.584" style="stroke: #000000; stroke-width: 0.8"/>
      </g>
     </g>
     <g id="text_6">
      <!-- 500 -->
      <g transform="translate(389.594133 322.182437) scale(0.1 -0.1)">
       <defs>
        <path id="DejaVuSans-35" d="M 691 4666 
L 3169 4666 
L 3169 4134 
L 1269 4134 
L 1269 2991 
Q 1406 3038 1543 3061 
Q 1681 3084 1819 3084 
Q 2600 3084 3056 2656 
Q 3513 2228 3513 1497 
Q 3513 744 3044 326 
Q 2575 -91 1722 -91 
Q 1428 -91 1123 -41 
Q 819 9 494 109 
L 494 744 
Q 775 591 1075 516 
Q 1375 441 1709 441 
Q 2250 441 2565 725 
Q 2881 1009 2881 1497 
Q 2881 1984 2565 2268 
Q 2250 2553 1709 2553 
Q 1456 2553 1204 2497 
Q 953 2441 691 2322 
L 691 4666 
z
" transform="scale(0.015625)"/>
       </defs>
       <use xlink:href="#DejaVuSans-35"/>
       <use xlink:href="#DejaVuSans-30" x="63.623047"/>
       <use xlink:href="#DejaVuSans-30" x="127.246094"/>
      </g>
     </g>
    </g>
    <g id="text_7">
     <!-- epoch -->
     <g transform="translate(220.931875 335.860562) scale(0.1 -0.1)">
      <defs>
       <path id="DejaVuSans-65" d="M 3597 1894 
L 3597 1613 
L 953 1613 
Q 991 1019 1311 708 
Q 1631 397 2203 397 
Q 2534 397 2845 478 
Q 3156 559 3463 722 
L 3463 178 
Q 3153 47 2828 -22 
Q 2503 -91 2169 -91 
Q 1331 -91 842 396 
Q 353 884 353 1716 
Q 353 2575 817 3079 
Q 1281 3584 2069 3584 
Q 2775 3584 3186 3129 
Q 3597 2675 3597 1894 
z
M 3022 2063 
Q 3016 2534 2758 2815 
Q 2500 3097 2075 3097 
Q 1594 3097 1305 2825 
Q 1016 2553 972 2059 
L 3022 2063 
z
" transform="scale(0.015625)"/>
       <path id="DejaVuSans-70" d="M 1159 525 
L 1159 -1331 
L 581 -1331 
L 581 3500 
L 1159 3500 
L 1159 2969 
Q 1341 3281 1617 3432 
Q 1894 3584 2278 3584 
Q 2916 3584 3314 3078 
Q 3713 2572 3713 1747 
Q 3713 922 3314 415 
Q 2916 -91 2278 -91 
Q 1894 -91 1617 61 
Q 1341 213 1159 525 
z
M 3116 1747 
Q 3116 2381 2855 2742 
Q 2594 3103 2138 3103 
Q 1681 3103 1420 2742 
Q 1159 2381 1159 1747 
Q 1159 1113 1420 752 
Q 1681 391 2138 391 
Q 2594 391 2855 752 
Q 3116 1113 3116 1747 
z
" transform="scale(0.015625)"/>
       <path id="DejaVuSans-6f" d="M 1959 3097 
Q 1497 3097 1228 2736 
Q 959 2375 959 1747 
Q 959 1119 1226 758 
Q 1494 397 1959 397 
Q 2419 397 2687 759 
Q 2956 1122 2956 1747 
Q 2956 2369 2687 2733 
Q 2419 3097 1959 3097 
z
M 1959 3584 
Q 2709 3584 3137 3096 
Q 3566 2609 3566 1747 
Q 3566 888 3137 398 
Q 2709 -91 1959 -91 
Q 1206 -91 779 398 
Q 353 888 353 1747 
Q 353 2609 779 3096 
Q 1206 3584 1959 3584 
z
" transform="scale(0.015625)"/>
       <path id="DejaVuSans-63" d="M 3122 3366 
L 3122 2828 
Q 2878 2963 2633 3030 
Q 2388 3097 2138 3097 
Q 1578 3097 1268 2742 
Q 959 2388 959 1747 
Q 959 1106 1268 751 
Q 1578 397 2138 397 
Q 2388 397 2633 464 
Q 2878 531 3122 666 
L 3122 134 
Q 2881 22 2623 -34 
Q 2366 -91 2075 -91 
Q 1284 -91 818 406 
Q 353 903 353 1747 
Q 353 2603 823 3093 
Q 1294 3584 2113 3584 
Q 2378 3584 2631 3529 
Q 2884 3475 3122 3366 
z
" transform="scale(0.015625)"/>
       <path id="DejaVuSans-68" d="M 3513 2113 
L 3513 0 
L 2938 0 
L 2938 2094 
Q 2938 2591 2744 2837 
Q 2550 3084 2163 3084 
Q 1697 3084 1428 2787 
Q 1159 2491 1159 1978 
L 1159 0 
L 581 0 
L 581 4863 
L 1159 4863 
L 1159 2956 
Q 1366 3272 1645 3428 
Q 1925 3584 2291 3584 
Q 2894 3584 3203 3211 
Q 3513 2838 3513 2113 
z
" transform="scale(0.015625)"/>
      </defs>
      <use xlink:href="#DejaVuSans-65"/>
      <use xlink:href="#DejaVuSans-70" x="61.523438"/>
      <use xlink:href="#DejaVuSans-6f" x="125"/>
      <use xlink:href="#DejaVuSans-63" x="186.181641"/>
      <use xlink:href="#DejaVuSans-68" x="241.162109"/>
     </g>
    </g>
   </g>
   <g id="matplotlib.axis_2">
    <g id="ytick_1">
     <g id="line2d_7">
      <defs>
       <path id="m3d8e304da4" d="M 0 0 
L -3.5 0 
" style="stroke: #000000; stroke-width: 0.8"/>
      </defs>
      <g>
       <use xlink:href="#m3d8e304da4" x="57.6" y="296.560712" style="stroke: #000000; stroke-width: 0.8"/>
      </g>
     </g>
     <g id="text_8">
      <!-- 0.10 -->
      <g transform="translate(28.334375 300.359931) scale(0.1 -0.1)">
       <defs>
        <path id="DejaVuSans-2e" d="M 684 794 
L 1344 794 
L 1344 0 
L 684 0 
L 684 794 
z
" transform="scale(0.015625)"/>
       </defs>
       <use xlink:href="#DejaVuSans-30"/>
       <use xlink:href="#DejaVuSans-2e" x="63.623047"/>
       <use xlink:href="#DejaVuSans-31" x="95.410156"/>
       <use xlink:href="#DejaVuSans-30" x="159.033203"/>
      </g>
     </g>
    </g>
    <g id="ytick_2">
     <g id="line2d_8">
      <g>
       <use xlink:href="#m3d8e304da4" x="57.6" y="240.465699" style="stroke: #000000; stroke-width: 0.8"/>
      </g>
     </g>
     <g id="text_9">
      <!-- 0.15 -->
      <g transform="translate(28.334375 244.264918) scale(0.1 -0.1)">
       <use xlink:href="#DejaVuSans-30"/>
       <use xlink:href="#DejaVuSans-2e" x="63.623047"/>
       <use xlink:href="#DejaVuSans-31" x="95.410156"/>
       <use xlink:href="#DejaVuSans-35" x="159.033203"/>
      </g>
     </g>
    </g>
    <g id="ytick_3">
     <g id="line2d_9">
      <g>
       <use xlink:href="#m3d8e304da4" x="57.6" y="184.370687" style="stroke: #000000; stroke-width: 0.8"/>
      </g>
     </g>
     <g id="text_10">
      <!-- 0.20 -->
      <g transform="translate(28.334375 188.169905) scale(0.1 -0.1)">
       <use xlink:href="#DejaVuSans-30"/>
       <use xlink:href="#DejaVuSans-2e" x="63.623047"/>
       <use xlink:href="#DejaVuSans-32" x="95.410156"/>
       <use xlink:href="#DejaVuSans-30" x="159.033203"/>
      </g>
     </g>
    </g>
    <g id="ytick_4">
     <g id="line2d_10">
      <g>
       <use xlink:href="#m3d8e304da4" x="57.6" y="128.275674" style="stroke: #000000; stroke-width: 0.8"/>
      </g>
     </g>
     <g id="text_11">
      <!-- 0.25 -->
      <g transform="translate(28.334375 132.074893) scale(0.1 -0.1)">
       <use xlink:href="#DejaVuSans-30"/>
       <use xlink:href="#DejaVuSans-2e" x="63.623047"/>
       <use xlink:href="#DejaVuSans-32" x="95.410156"/>
       <use xlink:href="#DejaVuSans-35" x="159.033203"/>
      </g>
     </g>
    </g>
    <g id="ytick_5">
     <g id="line2d_11">
      <g>
       <use xlink:href="#m3d8e304da4" x="57.6" y="72.180661" style="stroke: #000000; stroke-width: 0.8"/>
      </g>
     </g>
     <g id="text_12">
      <!-- 0.30 -->
      <g transform="translate(28.334375 75.97988) scale(0.1 -0.1)">
       <use xlink:href="#DejaVuSans-30"/>
       <use xlink:href="#DejaVuSans-2e" x="63.623047"/>
       <use xlink:href="#DejaVuSans-33" x="95.410156"/>
       <use xlink:href="#DejaVuSans-30" x="159.033203"/>
      </g>
     </g>
    </g>
    <g id="text_13">
     <!-- loss value -->
     <g transform="translate(22.254687 199.432687) rotate(-90) scale(0.1 -0.1)">
      <defs>
       <path id="DejaVuSans-6c" d="M 603 4863 
L 1178 4863 
L 1178 0 
L 603 0 
L 603 4863 
z
" transform="scale(0.015625)"/>
       <path id="DejaVuSans-73" d="M 2834 3397 
L 2834 2853 
Q 2591 2978 2328 3040 
Q 2066 3103 1784 3103 
Q 1356 3103 1142 2972 
Q 928 2841 928 2578 
Q 928 2378 1081 2264 
Q 1234 2150 1697 2047 
L 1894 2003 
Q 2506 1872 2764 1633 
Q 3022 1394 3022 966 
Q 3022 478 2636 193 
Q 2250 -91 1575 -91 
Q 1294 -91 989 -36 
Q 684 19 347 128 
L 347 722 
Q 666 556 975 473 
Q 1284 391 1588 391 
Q 1994 391 2212 530 
Q 2431 669 2431 922 
Q 2431 1156 2273 1281 
Q 2116 1406 1581 1522 
L 1381 1569 
Q 847 1681 609 1914 
Q 372 2147 372 2553 
Q 372 3047 722 3315 
Q 1072 3584 1716 3584 
Q 2034 3584 2315 3537 
Q 2597 3491 2834 3397 
z
" transform="scale(0.015625)"/>
       <path id="DejaVuSans-20" transform="scale(0.015625)"/>
       <path id="DejaVuSans-76" d="M 191 3500 
L 800 3500 
L 1894 563 
L 2988 3500 
L 3597 3500 
L 2284 0 
L 1503 0 
L 191 3500 
z
" transform="scale(0.015625)"/>
       <path id="DejaVuSans-61" d="M 2194 1759 
Q 1497 1759 1228 1600 
Q 959 1441 959 1056 
Q 959 750 1161 570 
Q 1363 391 1709 391 
Q 2188 391 2477 730 
Q 2766 1069 2766 1631 
L 2766 1759 
L 2194 1759 
z
M 3341 1997 
L 3341 0 
L 2766 0 
L 2766 531 
Q 2569 213 2275 61 
Q 1981 -91 1556 -91 
Q 1019 -91 701 211 
Q 384 513 384 1019 
Q 384 1609 779 1909 
Q 1175 2209 1959 2209 
L 2766 2209 
L 2766 2266 
Q 2766 2663 2505 2880 
Q 2244 3097 1772 3097 
Q 1472 3097 1187 3025 
Q 903 2953 641 2809 
L 641 3341 
Q 956 3463 1253 3523 
Q 1550 3584 1831 3584 
Q 2591 3584 2966 3190 
Q 3341 2797 3341 1997 
z
" transform="scale(0.015625)"/>
       <path id="DejaVuSans-75" d="M 544 1381 
L 544 3500 
L 1119 3500 
L 1119 1403 
Q 1119 906 1312 657 
Q 1506 409 1894 409 
Q 2359 409 2629 706 
Q 2900 1003 2900 1516 
L 2900 3500 
L 3475 3500 
L 3475 0 
L 2900 0 
L 2900 538 
Q 2691 219 2414 64 
Q 2138 -91 1772 -91 
Q 1169 -91 856 284 
Q 544 659 544 1381 
z
M 1991 3584 
L 1991 3584 
z
" transform="scale(0.015625)"/>
      </defs>
      <use xlink:href="#DejaVuSans-6c"/>
      <use xlink:href="#DejaVuSans-6f" x="27.783203"/>
      <use xlink:href="#DejaVuSans-73" x="88.964844"/>
      <use xlink:href="#DejaVuSans-73" x="141.064453"/>
      <use xlink:href="#DejaVuSans-20" x="193.164062"/>
      <use xlink:href="#DejaVuSans-76" x="224.951172"/>
      <use xlink:href="#DejaVuSans-61" x="284.130859"/>
      <use xlink:href="#DejaVuSans-6c" x="345.410156"/>
      <use xlink:href="#DejaVuSans-75" x="373.193359"/>
      <use xlink:href="#DejaVuSans-65" x="436.572266"/>
     </g>
    </g>
   </g>
   <g id="line2d_12">
    <path d="M 73.832727 87.66786 
L 74.483338 259.070024 
L 75.133948 269.704516 
L 76.435169 276.823553 
L 77.085779 246.107158 
L 77.736389 268.072596 
L 78.386999 272.761084 
L 79.03761 275.940772 
L 79.68822 276.964242 
L 80.33883 258.768552 
L 80.989441 272.81705 
L 81.640051 276.8594 
L 82.290661 277.294641 
L 82.941272 279.91006 
L 83.591882 263.980597 
L 84.242492 274.194042 
L 84.893103 277.486589 
L 85.543713 276.988491 
L 86.194323 279.576576 
L 86.844934 263.250987 
L 87.495544 277.15595 
L 88.146154 278.934326 
L 88.796764 281.760198 
L 89.447375 282.486057 
L 90.097985 264.157293 
L 90.748595 278.277755 
L 91.399206 279.332376 
L 92.700426 284.710262 
L 93.351037 266.253046 
L 94.001647 280.146994 
L 94.652257 281.734083 
L 95.302868 282.76453 
L 95.953478 284.301479 
L 96.604088 267.759577 
L 97.254698 280.181969 
L 97.905309 280.00436 
L 98.555919 284.409833 
L 99.206529 286.134216 
L 99.85714 266.841563 
L 100.50775 283.139622 
L 101.15836 284.07874 
L 102.459581 287.495502 
L 103.110191 269.99788 
L 103.760802 282.101558 
L 104.411412 284.723994 
L 105.062022 286.503457 
L 105.712633 287.65749 
L 106.363243 273.010248 
L 107.013853 283.644517 
L 107.664463 285.977921 
L 108.315074 286.790456 
L 108.965684 289.124643 
L 109.616294 270.859092 
L 110.266905 283.223247 
L 111.568125 287.740117 
L 112.218736 288.907982 
L 112.869346 273.800544 
L 113.519956 284.763725 
L 114.170567 287.752305 
L 114.821177 287.968203 
L 115.471787 290.567563 
L 116.122398 274.104076 
L 116.773008 286.37985 
L 117.423618 286.29796 
L 118.074228 288.159508 
L 118.724839 290.802863 
L 119.375449 273.972335 
L 120.026059 287.906973 
L 120.67667 287.501895 
L 121.32728 289.960325 
L 121.97789 290.08702 
L 122.628501 276.282906 
L 123.279111 287.961806 
L 123.929721 288.987432 
L 124.580332 290.922029 
L 125.230942 291.605719 
L 125.881552 273.047625 
L 126.532163 287.473786 
L 127.182773 290.008666 
L 127.833383 290.908583 
L 128.483993 292.921918 
L 129.134604 275.900599 
L 129.785214 288.065248 
L 131.086435 290.988839 
L 131.737045 289.542486 
L 132.387655 278.235086 
L 133.038266 286.903837 
L 133.688876 290.34194 
L 134.339486 292.16915 
L 134.990097 293.505392 
L 135.640707 273.476964 
L 136.291317 288.351905 
L 136.941927 291.730368 
L 137.592538 292.646222 
L 138.243148 295.488 
L 138.893758 276.363025 
L 139.544369 290.610203 
L 140.845589 289.842475 
L 141.4962 291.366193 
L 142.14681 270.710295 
L 142.79742 287.436693 
L 143.448031 289.979276 
L 144.098641 290.075877 
L 144.749251 288.341037 
L 145.399862 266.81804 
L 146.050472 285.499488 
L 146.701082 288.423985 
L 148.002303 291.883379 
L 148.652913 266.837841 
L 149.303523 287.126563 
L 149.954134 290.116544 
L 150.604744 288.644364 
L 151.255354 291.296019 
L 151.905965 263.688667 
L 152.556575 286.235856 
L 153.207185 286.84501 
L 153.857796 290.896433 
L 154.508406 290.73056 
L 155.159016 260.693282 
L 155.809627 283.663726 
L 156.460237 288.099961 
L 157.110847 290.672128 
L 157.761457 292.08548 
L 158.412068 266.959614 
L 159.062678 285.679716 
L 159.713288 287.733627 
L 160.363899 290.357176 
L 161.014509 291.025193 
L 161.665119 263.221161 
L 162.31573 285.116736 
L 162.96634 287.883574 
L 163.61695 289.098447 
L 164.267561 289.180669 
L 164.918171 264.287184 
L 165.568781 283.847142 
L 166.219392 289.040416 
L 166.870002 289.254166 
L 167.520612 291.745407 
L 168.171222 265.385077 
L 168.821833 284.503644 
L 169.472443 288.874727 
L 170.773664 292.348767 
L 171.424274 262.672105 
L 172.074884 282.546714 
L 172.725495 287.666912 
L 173.376105 289.174597 
L 174.026715 290.086665 
L 174.677326 261.400016 
L 175.327936 284.476812 
L 175.978546 287.495383 
L 176.629156 289.972374 
L 177.279767 290.352131 
L 177.930377 258.71665 
L 178.580987 281.965346 
L 179.231598 286.466524 
L 179.882208 288.439967 
L 180.532818 291.631042 
L 181.183429 264.060355 
L 181.834039 283.098956 
L 182.484649 287.331421 
L 183.13526 288.653153 
L 183.78587 289.586634 
L 184.43648 261.060604 
L 185.087091 279.747469 
L 185.737701 286.936134 
L 187.038921 290.288433 
L 187.689532 257.475268 
L 188.340142 280.8253 
L 188.990752 285.748587 
L 189.641363 288.59642 
L 190.291973 288.815236 
L 190.942583 261.767512 
L 191.593194 281.169629 
L 192.894414 288.45359 
L 193.545025 290.152115 
L 194.195635 259.089163 
L 194.846245 278.398869 
L 195.496856 285.267495 
L 196.147466 289.272423 
L 196.798076 288.383153 
L 197.448686 256.95417 
L 198.099297 277.608717 
L 198.749907 283.036893 
L 200.051128 290.088863 
L 200.701738 257.059922 
L 201.352348 277.717648 
L 202.002959 285.488646 
L 202.653569 285.971295 
L 203.304179 289.17856 
L 203.95479 259.520969 
L 204.6054 275.915197 
L 205.25601 283.772004 
L 205.906621 287.800562 
L 206.557231 289.630576 
L 207.207841 259.425981 
L 207.858451 279.008891 
L 208.509062 285.331505 
L 209.159672 286.608718 
L 209.810282 289.854318 
L 210.460893 254.318412 
L 211.111503 276.11084 
L 211.762113 283.061274 
L 212.412724 287.168215 
L 213.063334 289.954372 
L 213.713944 257.182523 
L 214.364555 275.400352 
L 215.015165 282.707174 
L 215.665775 286.300126 
L 216.316385 289.155166 
L 216.966996 257.563791 
L 217.617606 277.646777 
L 218.268216 283.689551 
L 218.918827 286.811762 
L 219.569437 288.994428 
L 220.220047 253.770223 
L 220.870658 271.75724 
L 221.521268 280.876546 
L 222.171878 284.825604 
L 222.822489 286.23579 
L 223.473099 259.229895 
L 224.123709 273.328971 
L 224.77432 281.653889 
L 225.42493 283.640323 
L 226.07554 286.277969 
L 226.72615 257.742429 
L 227.376761 272.571783 
L 228.027371 280.887141 
L 228.677981 284.367207 
L 229.328592 286.736702 
L 229.979202 253.837415 
L 230.629812 272.326849 
L 231.280423 280.32617 
L 231.931033 284.727016 
L 232.581643 286.135057 
L 233.232254 253.404565 
L 233.882864 271.497695 
L 234.533474 279.464009 
L 235.834695 285.775618 
L 236.485305 221.961393 
L 237.135915 255.813628 
L 237.786526 270.811609 
L 238.437136 278.684963 
L 239.087746 283.084204 
L 239.738357 234.249027 
L 240.388967 260.720414 
L 241.039577 272.251959 
L 241.690188 279.132588 
L 242.340798 281.298781 
L 242.991408 241.815886 
L 243.642019 262.404172 
L 244.292629 272.873918 
L 244.943239 277.853809 
L 245.59385 280.838796 
L 246.24446 247.529151 
L 246.89507 263.189729 
L 247.54568 271.776549 
L 248.196291 278.121769 
L 248.846901 280.341501 
L 249.497511 245.655375 
L 250.148122 263.139753 
L 251.449342 277.561142 
L 252.099953 280.353572 
L 252.750563 243.581023 
L 253.401173 262.041828 
L 254.051784 270.138248 
L 254.702394 276.810791 
L 255.353004 279.513268 
L 256.003615 243.661354 
L 256.654225 259.863993 
L 257.304835 270.571669 
L 257.955445 274.702112 
L 258.606056 278.051315 
L 259.256666 241.698151 
L 259.907276 259.395975 
L 260.557887 268.254467 
L 261.859107 278.298656 
L 262.509718 244.333912 
L 263.160328 257.165726 
L 264.461549 273.481287 
L 265.112159 274.473919 
L 265.762769 243.632623 
L 266.413379 258.645455 
L 267.06399 266.671835 
L 267.7146 272.712892 
L 268.36521 276.157796 
L 269.015821 243.553608 
L 269.666431 257.974848 
L 270.317041 266.006924 
L 271.618262 276.961684 
L 272.268872 244.954731 
L 272.919483 258.261306 
L 273.570093 266.107278 
L 274.220703 272.177088 
L 274.871314 273.685486 
L 275.521924 243.666805 
L 276.823144 265.002799 
L 277.473755 268.633169 
L 278.124365 275.107887 
L 278.774975 241.40948 
L 280.076196 264.321647 
L 281.377417 272.872091 
L 282.028027 242.323894 
L 282.678637 254.031611 
L 283.329248 263.025163 
L 283.979858 268.635229 
L 284.630468 273.104917 
L 285.281079 243.106427 
L 285.931689 253.068782 
L 287.232909 268.131865 
L 287.88352 270.587841 
L 288.53413 238.406049 
L 289.18474 250.44924 
L 289.835351 259.196078 
L 290.485961 265.55881 
L 291.136571 270.734387 
L 291.787182 240.705465 
L 292.437792 251.68392 
L 293.088402 257.303064 
L 293.739013 264.687939 
L 294.389623 268.003613 
L 295.040233 240.35375 
L 295.690844 248.831719 
L 296.341454 260.030829 
L 296.992064 264.637073 
L 297.642674 270.199077 
L 298.293285 242.193623 
L 299.594505 260.074456 
L 300.245116 265.153933 
L 300.895726 269.139332 
L 301.546336 239.309472 
L 302.847557 257.286841 
L 303.498167 261.075674 
L 304.148778 268.54788 
L 304.799388 242.468649 
L 305.449998 252.10552 
L 306.100608 256.623183 
L 306.751219 263.556294 
L 307.401829 267.620861 
L 308.052439 240.913311 
L 308.70305 249.933797 
L 309.35366 256.496019 
L 310.00427 260.745922 
L 310.654881 264.050079 
L 311.305491 240.695558 
L 312.606712 255.440799 
L 313.257322 261.293027 
L 313.907932 265.095987 
L 314.558543 236.919232 
L 315.859763 253.521101 
L 316.510373 257.885646 
L 317.160984 263.129072 
L 317.811594 242.656692 
L 318.462204 248.031347 
L 319.763425 260.618992 
L 320.414035 264.309787 
L 321.064646 241.047416 
L 323.016477 258.924098 
L 323.667087 261.643541 
L 324.317697 238.522215 
L 325.618918 252.156213 
L 326.920138 261.080217 
L 327.570749 241.368397 
L 329.52258 257.232766 
L 330.17319 259.816459 
L 330.8238 236.483432 
L 332.775631 254.868324 
L 333.426242 257.658609 
L 334.076852 235.649937 
L 335.378073 248.40465 
L 336.679293 256.868779 
L 337.329903 232.776297 
L 338.631124 247.282937 
L 339.932345 258.591788 
L 340.582955 231.314275 
L 341.884176 245.443975 
L 342.534786 250.956111 
L 343.185396 254.669315 
L 343.836007 229.218371 
L 344.486617 237.027734 
L 345.137227 243.09176 
L 345.787837 250.361473 
L 346.438448 254.951416 
L 347.089058 234.522164 
L 349.040889 253.020628 
L 349.691499 257.603179 
L 350.34211 228.514412 
L 352.944551 255.321508 
L 353.595161 232.761795 
L 354.245772 240.653286 
L 354.896382 246.790182 
L 355.546992 250.753207 
L 356.197602 257.812575 
L 356.848213 231.923348 
L 357.498823 238.311882 
L 358.149433 247.256707 
L 359.450654 256.146942 
L 360.101264 228.192291 
L 361.402485 243.842268 
L 362.703706 254.345581 
L 363.354316 231.26123 
L 364.655537 244.588662 
L 365.956757 256.119075 
L 366.607367 231.773064 
L 367.257978 240.13005 
L 367.908588 246.095816 
L 368.559198 250.411335 
L 369.209809 255.902391 
L 369.860419 227.642439 
L 370.511029 236.962927 
L 371.81225 249.626284 
L 372.46286 255.095582 
L 373.113471 229.671178 
L 373.764081 237.686849 
L 375.715912 256.468303 
L 376.366522 230.475112 
L 377.017132 238.677211 
L 377.667743 243.696173 
L 378.318353 250.157928 
L 378.968963 254.249513 
L 379.619574 231.492688 
L 380.920794 245.676492 
L 381.571405 251.822022 
L 382.222015 254.749139 
L 382.872625 231.876167 
L 384.173846 244.996317 
L 384.824456 251.331084 
L 385.475066 255.250033 
L 386.125677 233.377728 
L 386.776287 240.441856 
L 388.077508 251.619984 
L 388.728118 255.24029 
L 389.378728 236.018218 
L 390.029339 245.507842 
L 390.679949 249.125255 
L 391.330559 254.187815 
L 391.98117 258.271387 
L 392.63178 237.378887 
L 393.28239 244.815919 
L 393.933001 250.311799 
L 394.583611 254.228444 
L 395.234221 259.248789 
L 395.884831 239.445583 
L 396.535442 246.797963 
L 397.836662 256.125615 
L 398.487273 259.28067 
L 398.487273 259.28067 
" clip-path="url(#p7eb6bbbb62)" style="fill: none; stroke: #0000ff; stroke-width: 1.5; stroke-linecap: square"/>
   </g>
   <g id="line2d_13">
    <path d="M 73.832727 53.568 
L 74.483338 224.982904 
L 75.133948 235.632175 
L 76.435169 242.780894 
L 77.085779 212.211981 
L 77.736389 234.192052 
L 78.386999 238.895283 
L 79.03761 242.089724 
L 79.68822 243.127974 
L 80.33883 224.911598 
L 80.989441 238.974805 
L 81.640051 243.031909 
L 82.290661 243.481916 
L 82.941272 246.112106 
L 83.591882 230.17694 
L 84.242492 240.405121 
L 84.893103 243.712479 
L 85.543713 243.229198 
L 86.194323 245.832078 
L 86.844934 229.475913 
L 87.495544 243.395563 
L 88.146154 245.188678 
L 88.796764 248.029313 
L 89.447375 248.769935 
L 90.097985 230.422898 
L 90.748595 244.558094 
L 91.399206 245.627453 
L 92.700426 251.034932 
L 93.351037 232.571799 
L 94.001647 246.480452 
L 94.652257 248.082297 
L 95.302868 249.127522 
L 95.953478 250.679269 
L 96.604088 234.101705 
L 97.254698 246.538769 
L 97.905309 246.375903 
L 98.555919 250.796129 
L 99.206529 252.535255 
L 99.85714 233.225389 
L 100.50775 249.538155 
L 101.15836 250.492006 
L 102.459581 253.938259 
L 103.110191 236.425399 
L 103.760802 248.543765 
L 104.411412 251.180929 
L 105.062022 252.975124 
L 105.712633 254.14387 
L 106.363243 239.465009 
L 107.013853 250.113875 
L 107.664463 252.462 
L 108.315074 253.289256 
L 108.965684 255.63821 
L 109.616294 237.347386 
L 110.266905 249.726254 
L 111.568125 254.272569 
L 112.218736 255.455147 
L 112.869346 240.332273 
L 113.519956 251.310107 
L 114.170567 254.313384 
L 114.821177 254.543993 
L 115.471787 257.158054 
L 116.122398 240.657167 
L 116.773008 252.94755 
L 117.423618 252.880322 
L 118.074228 254.756529 
L 118.724839 257.41454 
L 119.375449 240.565779 
L 120.026059 254.515029 
L 120.67667 254.124594 
L 121.32728 256.597687 
L 121.97789 256.738983 
L 122.628501 242.91479 
L 123.279111 254.608295 
L 123.929721 255.648533 
L 124.580332 257.597781 
L 125.230942 258.296102 
L 125.881552 239.701437 
L 126.532163 254.142108 
L 127.182773 256.691584 
L 127.833383 257.606112 
L 128.483993 259.634045 
L 129.134604 242.587864 
L 129.785214 254.767048 
L 131.086435 257.719872 
L 131.737045 256.288075 
L 132.387655 244.951288 
L 133.038266 253.634571 
L 133.688876 257.087323 
L 134.339486 258.929122 
L 134.990097 260.279955 
L 135.640707 240.22067 
L 136.291317 255.110051 
L 136.941927 258.50306 
L 137.592538 259.433459 
L 138.243148 262.28975 
L 138.893758 243.131716 
L 139.544369 257.388873 
L 140.845589 256.631728 
L 141.4962 258.160733 
L 142.14681 237.500809 
L 142.79742 254.232315 
L 143.448031 256.779889 
L 144.098641 256.881506 
L 144.749251 255.151696 
L 145.399862 233.628107 
L 146.050472 252.314415 
L 146.701082 255.243644 
L 148.002303 258.712538 
L 148.652913 233.661956 
L 149.303523 253.955278 
L 149.954134 256.949761 
L 150.604744 255.482077 
L 151.255354 258.138281 
L 151.905965 230.539889 
L 152.556575 253.091443 
L 153.207185 253.704884 
L 153.857796 257.760601 
L 154.508406 257.599026 
L 155.159016 227.563158 
L 155.809627 250.537775 
L 156.460237 254.978069 
L 157.110847 257.554319 
L 157.761457 258.971754 
L 158.412068 233.840014 
L 159.062678 252.564063 
L 159.713288 254.62185 
L 160.363899 257.249289 
L 161.014509 257.921195 
L 161.665119 230.126394 
L 162.31573 252.025748 
L 162.96634 254.796267 
L 163.61695 256.014842 
L 164.267561 256.100758 
L 164.918171 231.216876 
L 165.568781 250.780415 
L 166.219392 255.977183 
L 166.870002 256.194447 
L 167.520612 258.689208 
L 168.171222 232.317108 
L 168.821833 251.439075 
L 169.472443 255.813464 
L 170.773664 259.294155 
L 171.424274 229.623965 
L 172.074884 249.501808 
L 172.725495 254.625164 
L 173.376105 256.136009 
L 174.026715 257.051251 
L 174.677326 228.371123 
L 175.327936 251.450991 
L 175.978546 254.472549 
L 176.629156 256.952551 
L 177.279767 257.335319 
L 177.930377 225.702327 
L 178.580987 248.953938 
L 179.231598 253.457953 
L 179.882208 255.434253 
L 180.532818 258.628184 
L 181.183429 231.050241 
L 181.834039 250.09161 
L 182.484649 254.326777 
L 183.13526 255.651213 
L 183.78587 256.587405 
L 184.43648 228.061804 
L 185.087091 246.751303 
L 185.737701 253.942549 
L 187.038921 257.300016 
L 187.689532 224.487317 
L 188.340142 247.83986 
L 188.990752 252.765585 
L 189.641363 255.615869 
L 190.291973 255.837132 
L 190.942583 228.782887 
L 191.593194 248.18737 
L 192.894414 255.475967 
L 193.545025 257.17682 
L 194.195635 226.112168 
L 194.846245 245.424139 
L 195.496856 252.294967 
L 196.147466 256.3021 
L 196.798076 255.415037 
L 197.448686 223.986653 
L 198.099297 244.643349 
L 198.749907 250.073619 
L 200.051128 257.129777 
L 200.701738 224.097494 
L 201.352348 244.757279 
L 202.002959 252.530258 
L 202.653569 253.0149 
L 203.304179 256.224169 
L 203.95479 226.562824 
L 204.6054 242.959002 
L 205.25601 250.817711 
L 205.906621 254.84817 
L 206.557231 256.680086 
L 207.207841 226.476084 
L 207.858451 246.060849 
L 208.509062 252.385255 
L 209.159672 253.664263 
L 209.810282 256.911672 
L 210.460893 221.373797 
L 211.111503 243.167984 
L 211.762113 250.120123 
L 212.412724 254.228777 
L 213.063334 257.016646 
L 213.713944 224.241402 
L 214.364555 242.460904 
L 215.015165 249.769343 
L 215.665775 253.36392 
L 216.316385 256.220582 
L 216.966996 224.629214 
L 217.617606 244.713791 
L 218.268216 250.758104 
L 218.918827 253.881863 
L 219.569437 256.066077 
L 220.220047 220.840322 
L 220.870658 238.828854 
L 221.521268 247.949628 
L 222.171878 251.900152 
L 222.822489 253.311807 
L 223.473099 226.303766 
L 224.123709 240.404277 
L 224.77432 248.730589 
L 225.42493 250.718416 
L 226.07554 253.357456 
L 226.72615 224.822293 
L 227.376761 239.653012 
L 228.027371 247.969695 
L 228.677981 251.451082 
L 229.328592 253.821912 
L 229.979202 220.923838 
L 230.629812 239.414581 
L 231.280423 247.41516 
L 231.931033 251.817268 
L 232.581643 253.226566 
L 233.232254 220.492611 
L 233.882864 238.586976 
L 234.533474 246.55449 
L 235.834695 252.868491 
L 236.485305 189.080782 
L 237.135915 222.934277 
L 237.786526 237.933445 
L 238.437136 245.807974 
L 239.087746 250.20838 
L 239.738357 201.373404 
L 240.388967 227.845968 
L 241.039577 239.378625 
L 241.690188 246.26036 
L 242.340798 248.427657 
L 242.991408 208.944575 
L 243.642019 229.533956 
L 244.292629 240.004751 
L 244.943239 244.985686 
L 245.59385 247.971714 
L 246.24446 214.66043 
L 246.89507 230.322039 
L 247.54568 238.909846 
L 248.196291 245.25605 
L 248.846901 247.476772 
L 249.497511 212.791489 
L 250.148122 230.27684 
L 251.449342 244.700098 
L 252.099953 247.493459 
L 252.750563 210.721898 
L 253.401173 229.18363 
L 254.051784 237.280937 
L 254.702394 243.954364 
L 255.353004 246.65773 
L 256.003615 210.803968 
L 256.654225 227.007485 
L 257.304835 237.716007 
L 257.955445 241.847284 
L 258.606056 245.197331 
L 259.256666 208.844281 
L 259.907276 226.54294 
L 260.557887 235.402231 
L 261.859107 245.448011 
L 262.509718 211.484119 
L 263.160328 224.316722 
L 264.461549 240.633811 
L 265.112159 241.627201 
L 265.762769 210.784447 
L 266.413379 225.798029 
L 267.06399 233.825129 
L 267.7146 239.866907 
L 268.36521 243.312529 
L 269.015821 210.708273 
L 269.666431 225.130225 
L 270.317041 233.162996 
L 271.618262 244.11912 
L 272.268872 212.11311 
L 272.919483 225.420365 
L 273.570093 233.266989 
L 274.220703 239.337447 
L 274.871314 240.846496 
L 275.521924 210.826254 
L 276.823144 232.163513 
L 277.473755 235.794495 
L 278.124365 242.269834 
L 278.774975 208.57173 
L 280.076196 231.485099 
L 281.377417 240.036719 
L 282.028027 209.489709 
L 282.678637 221.19801 
L 283.329248 230.192127 
L 283.979858 235.802749 
L 284.630468 240.272992 
L 285.281079 210.273017 
L 285.931689 220.235925 
L 287.232909 235.300076 
L 287.88352 237.756579 
L 288.53413 205.57542 
L 289.18474 217.619139 
L 289.835351 226.366486 
L 290.485961 232.729726 
L 291.136571 237.9058 
L 291.787182 207.878099 
L 292.437792 218.857062 
L 293.088402 224.476683 
L 293.739013 231.862046 
L 294.389623 235.178191 
L 295.040233 207.526782 
L 295.690844 216.005235 
L 296.341454 227.204801 
L 296.992064 231.811506 
L 297.642674 237.373958 
L 298.293285 209.369001 
L 299.594505 227.25073 
L 300.245116 232.330635 
L 300.895726 236.316476 
L 301.546336 206.487757 
L 302.847557 224.465973 
L 303.498167 228.255232 
L 304.148778 235.727845 
L 304.799388 209.647122 
L 305.449998 219.284398 
L 306.100608 223.802454 
L 306.751219 230.73596 
L 307.401829 234.800919 
L 308.052439 208.09395 
L 308.70305 217.114824 
L 309.35366 223.677425 
L 310.00427 227.927701 
L 310.654881 231.232226 
L 311.305491 207.878695 
L 312.606712 222.624671 
L 313.257322 228.47725 
L 313.907932 232.280573 
L 314.558543 204.104048 
L 315.859763 220.706614 
L 316.510373 225.071502 
L 317.160984 230.315263 
L 317.811594 209.842455 
L 318.462204 215.217453 
L 319.763425 227.805737 
L 320.414035 231.496858 
L 321.064646 208.235109 
L 323.016477 226.112733 
L 323.667087 228.832479 
L 324.317697 205.712211 
L 325.618918 219.34682 
L 326.920138 228.271411 
L 327.570749 208.558566 
L 329.52258 224.423786 
L 330.17319 227.007766 
L 330.8238 203.675325 
L 332.775631 222.061027 
L 333.426242 224.851581 
L 334.076852 202.843853 
L 335.378073 215.599114 
L 336.679293 224.063765 
L 337.329903 199.970347 
L 338.631124 214.477535 
L 339.932345 225.786917 
L 340.582955 198.510048 
L 341.884176 212.640287 
L 342.534786 218.152691 
L 343.185396 221.866158 
L 343.836007 196.416008 
L 344.486617 204.225639 
L 345.137227 210.28994 
L 345.787837 217.559922 
L 346.438448 222.150126 
L 347.089058 201.720657 
L 349.040889 220.219916 
L 349.691499 224.802733 
L 350.34211 195.714001 
L 352.944551 222.522158 
L 353.595161 199.962194 
L 354.245772 207.853956 
L 354.896382 213.991117 
L 355.546992 217.954411 
L 356.197602 225.014046 
L 356.848213 199.125153 
L 357.498823 205.51396 
L 358.149433 214.459057 
L 359.450654 223.349817 
L 360.101264 195.395252 
L 361.402485 211.045782 
L 362.703706 221.549618 
L 363.354316 198.465017 
L 364.655537 211.792977 
L 365.956757 223.323929 
L 366.607367 198.978115 
L 367.257978 207.335369 
L 367.908588 213.301412 
L 368.559198 217.61719 
L 369.209809 223.108513 
L 369.860419 194.848513 
L 370.511029 204.169275 
L 371.81225 216.833164 
L 372.46286 222.302729 
L 373.113471 196.878079 
L 373.764081 204.894025 
L 375.715912 223.676271 
L 376.366522 197.683186 
L 377.017132 205.885557 
L 377.667743 210.90479 
L 378.318353 217.366805 
L 378.968963 221.458658 
L 379.619574 198.702079 
L 380.920794 212.886428 
L 381.571405 219.032222 
L 382.222015 221.959601 
L 382.872625 199.085798 
L 384.173846 212.206494 
L 384.824456 218.541519 
L 385.475066 222.460741 
L 386.125677 200.588463 
L 386.776287 207.652872 
L 388.077508 218.83152 
L 388.728118 222.452099 
L 389.378728 203.22952 
L 390.029339 212.719411 
L 390.679949 216.337093 
L 391.330559 221.399917 
L 391.98117 225.483753 
L 392.63178 204.590846 
L 393.28239 212.028145 
L 393.933001 217.524289 
L 394.583611 221.441196 
L 395.234221 226.461811 
L 395.884831 206.658059 
L 396.535442 214.010696 
L 397.836662 223.338887 
L 398.487273 226.494204 
L 398.487273 226.494204 
" clip-path="url(#p7eb6bbbb62)" style="fill: none; stroke: #008000; stroke-width: 1.5; stroke-linecap: square"/>
   </g>
   <g id="line2d_14">
    <path d="M 0 0 
" clip-path="url(#p7eb6bbbb62)" style="fill: none; stroke: #ff0000; stroke-width: 1.5; stroke-linecap: square"/>
   </g>
   <g id="patch_3">
    <path d="M 57.6 307.584 
L 57.6 41.472 
" style="fill: none; stroke: #000000; stroke-width: 0.8; stroke-linejoin: miter; stroke-linecap: square"/>
   </g>
   <g id="patch_4">
    <path d="M 414.72 307.584 
L 414.72 41.472 
" style="fill: none; stroke: #000000; stroke-width: 0.8; stroke-linejoin: miter; stroke-linecap: square"/>
   </g>
   <g id="patch_5">
    <path d="M 57.6 307.584 
L 414.72 307.584 
" style="fill: none; stroke: #000000; stroke-width: 0.8; stroke-linejoin: miter; stroke-linecap: square"/>
   </g>
   <g id="patch_6">
    <path d="M 57.6 41.472 
L 414.72 41.472 
" style="fill: none; stroke: #000000; stroke-width: 0.8; stroke-linejoin: miter; stroke-linecap: square"/>
   </g>
   <g id="text_14">
    <!-- The loss curve on flag_resnet/host/7 -->
    <g transform="translate(127.426875 35.472) scale(0.12 -0.12)">
     <defs>
      <path id="DejaVuSans-54" d="M -19 4666 
L 3928 4666 
L 3928 4134 
L 2272 4134 
L 2272 0 
L 1638 0 
L 1638 4134 
L -19 4134 
L -19 4666 
z
" transform="scale(0.015625)"/>
      <path id="DejaVuSans-72" d="M 2631 2963 
Q 2534 3019 2420 3045 
Q 2306 3072 2169 3072 
Q 1681 3072 1420 2755 
Q 1159 2438 1159 1844 
L 1159 0 
L 581 0 
L 581 3500 
L 1159 3500 
L 1159 2956 
Q 1341 3275 1631 3429 
Q 1922 3584 2338 3584 
Q 2397 3584 2469 3576 
Q 2541 3569 2628 3553 
L 2631 2963 
z
" transform="scale(0.015625)"/>
      <path id="DejaVuSans-6e" d="M 3513 2113 
L 3513 0 
L 2938 0 
L 2938 2094 
Q 2938 2591 2744 2837 
Q 2550 3084 2163 3084 
Q 1697 3084 1428 2787 
Q 1159 2491 1159 1978 
L 1159 0 
L 581 0 
L 581 3500 
L 1159 3500 
L 1159 2956 
Q 1366 3272 1645 3428 
Q 1925 3584 2291 3584 
Q 2894 3584 3203 3211 
Q 3513 2838 3513 2113 
z
" transform="scale(0.015625)"/>
      <path id="DejaVuSans-66" d="M 2375 4863 
L 2375 4384 
L 1825 4384 
Q 1516 4384 1395 4259 
Q 1275 4134 1275 3809 
L 1275 3500 
L 2222 3500 
L 2222 3053 
L 1275 3053 
L 1275 0 
L 697 0 
L 697 3053 
L 147 3053 
L 147 3500 
L 697 3500 
L 697 3744 
Q 697 4328 969 4595 
Q 1241 4863 1831 4863 
L 2375 4863 
z
" transform="scale(0.015625)"/>
      <path id="DejaVuSans-67" d="M 2906 1791 
Q 2906 2416 2648 2759 
Q 2391 3103 1925 3103 
Q 1463 3103 1205 2759 
Q 947 2416 947 1791 
Q 947 1169 1205 825 
Q 1463 481 1925 481 
Q 2391 481 2648 825 
Q 2906 1169 2906 1791 
z
M 3481 434 
Q 3481 -459 3084 -895 
Q 2688 -1331 1869 -1331 
Q 1566 -1331 1297 -1286 
Q 1028 -1241 775 -1147 
L 775 -588 
Q 1028 -725 1275 -790 
Q 1522 -856 1778 -856 
Q 2344 -856 2625 -561 
Q 2906 -266 2906 331 
L 2906 616 
Q 2728 306 2450 153 
Q 2172 0 1784 0 
Q 1141 0 747 490 
Q 353 981 353 1791 
Q 353 2603 747 3093 
Q 1141 3584 1784 3584 
Q 2172 3584 2450 3431 
Q 2728 3278 2906 2969 
L 2906 3500 
L 3481 3500 
L 3481 434 
z
" transform="scale(0.015625)"/>
      <path id="DejaVuSans-5f" d="M 3263 -1063 
L 3263 -1509 
L -63 -1509 
L -63 -1063 
L 3263 -1063 
z
" transform="scale(0.015625)"/>
      <path id="DejaVuSans-74" d="M 1172 4494 
L 1172 3500 
L 2356 3500 
L 2356 3053 
L 1172 3053 
L 1172 1153 
Q 1172 725 1289 603 
Q 1406 481 1766 481 
L 2356 481 
L 2356 0 
L 1766 0 
Q 1100 0 847 248 
Q 594 497 594 1153 
L 594 3053 
L 172 3053 
L 172 3500 
L 594 3500 
L 594 4494 
L 1172 4494 
z
" transform="scale(0.015625)"/>
      <path id="DejaVuSans-2f" d="M 1625 4666 
L 2156 4666 
L 531 -594 
L 0 -594 
L 1625 4666 
z
" transform="scale(0.015625)"/>
      <path id="DejaVuSans-37" d="M 525 4666 
L 3525 4666 
L 3525 4397 
L 1831 0 
L 1172 0 
L 2766 4134 
L 525 4134 
L 525 4666 
z
" transform="scale(0.015625)"/>
     </defs>
     <use xlink:href="#DejaVuSans-54"/>
     <use xlink:href="#DejaVuSans-68" x="61.083984"/>
     <use xlink:href="#DejaVuSans-65" x="124.462891"/>
     <use xlink:href="#DejaVuSans-20" x="185.986328"/>
     <use xlink:href="#DejaVuSans-6c" x="217.773438"/>
     <use xlink:href="#DejaVuSans-6f" x="245.556641"/>
     <use xlink:href="#DejaVuSans-73" x="306.738281"/>
     <use xlink:href="#DejaVuSans-73" x="358.837891"/>
     <use xlink:href="#DejaVuSans-20" x="410.9375"/>
     <use xlink:href="#DejaVuSans-63" x="442.724609"/>
     <use xlink:href="#DejaVuSans-75" x="497.705078"/>
     <use xlink:href="#DejaVuSans-72" x="561.083984"/>
     <use xlink:href="#DejaVuSans-76" x="602.197266"/>
     <use xlink:href="#DejaVuSans-65" x="661.376953"/>
     <use xlink:href="#DejaVuSans-20" x="722.900391"/>
     <use xlink:href="#DejaVuSans-6f" x="754.6875"/>
     <use xlink:href="#DejaVuSans-6e" x="815.869141"/>
     <use xlink:href="#DejaVuSans-20" x="879.248047"/>
     <use xlink:href="#DejaVuSans-66" x="911.035156"/>
     <use xlink:href="#DejaVuSans-6c" x="946.240234"/>
     <use xlink:href="#DejaVuSans-61" x="974.023438"/>
     <use xlink:href="#DejaVuSans-67" x="1035.302734"/>
     <use xlink:href="#DejaVuSans-5f" x="1098.779297"/>
     <use xlink:href="#DejaVuSans-72" x="1148.779297"/>
     <use xlink:href="#DejaVuSans-65" x="1187.642578"/>
     <use xlink:href="#DejaVuSans-73" x="1249.166016"/>
     <use xlink:href="#DejaVuSans-6e" x="1301.265625"/>
     <use xlink:href="#DejaVuSans-65" x="1364.644531"/>
     <use xlink:href="#DejaVuSans-74" x="1426.167969"/>
     <use xlink:href="#DejaVuSans-2f" x="1465.376953"/>
     <use xlink:href="#DejaVuSans-68" x="1499.068359"/>
     <use xlink:href="#DejaVuSans-6f" x="1562.447266"/>
     <use xlink:href="#DejaVuSans-73" x="1623.628906"/>
     <use xlink:href="#DejaVuSans-74" x="1675.728516"/>
     <use xlink:href="#DejaVuSans-2f" x="1714.9375"/>
     <use xlink:href="#DejaVuSans-37" x="1748.628906"/>
    </g>
   </g>
   <g id="legend_1">
    <g id="patch_7">
     <path d="M 317.418438 94.34075 
L 407.72 94.34075 
Q 409.72 94.34075 409.72 92.34075 
L 409.72 48.472 
Q 409.72 46.472 407.72 46.472 
L 317.418438 46.472 
Q 315.418438 46.472 315.418438 48.472 
L 315.418438 92.34075 
Q 315.418438 94.34075 317.418438 94.34075 
z
" style="fill: #ffffff; opacity: 0.8; stroke: #cccccc; stroke-linejoin: miter"/>
    </g>
    <g id="line2d_15">
     <path d="M 319.418438 54.570438 
L 329.418438 54.570438 
L 339.418438 54.570438 
" style="fill: none; stroke: #0000ff; stroke-width: 1.5; stroke-linecap: square"/>
    </g>
    <g id="text_15">
     <!-- obj_loss -->
     <g transform="translate(347.418438 58.070438) scale(0.1 -0.1)">
      <defs>
       <path id="DejaVuSans-62" d="M 3116 1747 
Q 3116 2381 2855 2742 
Q 2594 3103 2138 3103 
Q 1681 3103 1420 2742 
Q 1159 2381 1159 1747 
Q 1159 1113 1420 752 
Q 1681 391 2138 391 
Q 2594 391 2855 752 
Q 3116 1113 3116 1747 
z
M 1159 2969 
Q 1341 3281 1617 3432 
Q 1894 3584 2278 3584 
Q 2916 3584 3314 3078 
Q 3713 2572 3713 1747 
Q 3713 922 3314 415 
Q 2916 -91 2278 -91 
Q 1894 -91 1617 61 
Q 1341 213 1159 525 
L 1159 0 
L 581 0 
L 581 4863 
L 1159 4863 
L 1159 2969 
z
" transform="scale(0.015625)"/>
       <path id="DejaVuSans-6a" d="M 603 3500 
L 1178 3500 
L 1178 -63 
Q 1178 -731 923 -1031 
Q 669 -1331 103 -1331 
L -116 -1331 
L -116 -844 
L 38 -844 
Q 366 -844 484 -692 
Q 603 -541 603 -63 
L 603 3500 
z
M 603 4863 
L 1178 4863 
L 1178 4134 
L 603 4134 
L 603 4863 
z
" transform="scale(0.015625)"/>
      </defs>
      <use xlink:href="#DejaVuSans-6f"/>
      <use xlink:href="#DejaVuSans-62" x="61.181641"/>
      <use xlink:href="#DejaVuSans-6a" x="124.658203"/>
      <use xlink:href="#DejaVuSans-5f" x="152.441406"/>
      <use xlink:href="#DejaVuSans-6c" x="202.441406"/>
      <use xlink:href="#DejaVuSans-6f" x="230.224609"/>
      <use xlink:href="#DejaVuSans-73" x="291.40625"/>
      <use xlink:href="#DejaVuSans-73" x="343.505859"/>
     </g>
    </g>
    <g id="line2d_16">
     <path d="M 319.418438 69.526688 
L 329.418438 69.526688 
L 339.418438 69.526688 
" style="fill: none; stroke: #008000; stroke-width: 1.5; stroke-linecap: square"/>
    </g>
    <g id="text_16">
     <!-- reg_loss -->
     <g transform="translate(347.418438 73.026688) scale(0.1 -0.1)">
      <use xlink:href="#DejaVuSans-72"/>
      <use xlink:href="#DejaVuSans-65" x="38.863281"/>
      <use xlink:href="#DejaVuSans-67" x="100.386719"/>
      <use xlink:href="#DejaVuSans-5f" x="163.863281"/>
      <use xlink:href="#DejaVuSans-6c" x="213.863281"/>
      <use xlink:href="#DejaVuSans-6f" x="241.646484"/>
      <use xlink:href="#DejaVuSans-73" x="302.828125"/>
      <use xlink:href="#DejaVuSans-73" x="354.927734"/>
     </g>
    </g>
    <g id="line2d_17">
     <path d="M 319.418438 84.482938 
L 329.418438 84.482938 
L 339.418438 84.482938 
" style="fill: none; stroke: #ff0000; stroke-width: 1.5; stroke-linecap: square"/>
    </g>
    <g id="text_17">
     <!-- overall_loss -->
     <g transform="translate(347.418438 87.982938) scale(0.1 -0.1)">
      <use xlink:href="#DejaVuSans-6f"/>
      <use xlink:href="#DejaVuSans-76" x="61.181641"/>
      <use xlink:href="#DejaVuSans-65" x="120.361328"/>
      <use xlink:href="#DejaVuSans-72" x="181.884766"/>
      <use xlink:href="#DejaVuSans-61" x="222.998047"/>
      <use xlink:href="#DejaVuSans-6c" x="284.277344"/>
      <use xlink:href="#DejaVuSans-6c" x="312.060547"/>
      <use xlink:href="#DejaVuSans-5f" x="339.84375"/>
      <use xlink:href="#DejaVuSans-6c" x="389.84375"/>
      <use xlink:href="#DejaVuSans-6f" x="417.626953"/>
      <use xlink:href="#DejaVuSans-73" x="478.808594"/>
      <use xlink:href="#DejaVuSans-73" x="530.908203"/>
     </g>
    </g>
   </g>
  </g>
 </g>
 <defs>
  <clipPath id="p7eb6bbbb62">
   <rect x="57.6" y="41.472" width="357.12" height="266.112"/>
  </clipPath>
 </defs>
</svg>
