<?xml version="1.0" encoding="utf-8" standalone="no"?>
<!DOCTYPE svg PUBLIC "-//W3C//DTD SVG 1.1//EN"
  "http://www.w3.org/Graphics/SVG/1.1/DTD/svg11.dtd">
<svg xmlns:xlink="http://www.w3.org/1999/xlink" width="460.8pt" height="345.6pt" viewBox="0 0 460.8 345.6" xmlns="http://www.w3.org/2000/svg" version="1.1">
 <metadata>
  <rdf:RDF xmlns:dc="http://purl.org/dc/elements/1.1/" xmlns:cc="http://creativecommons.org/ns#" xmlns:rdf="http://www.w3.org/1999/02/22-rdf-syntax-ns#">
   <cc:Work>
    <dc:type rdf:resource="http://purl.org/dc/dcmitype/StillImage"/>
    <dc:date>2023-06-19T00:39:04.001923</dc:date>
    <dc:format>image/svg+xml</dc:format>
    <dc:creator>
     <cc:Agent>
      <dc:title>Matplotlib v3.7.1, https://matplotlib.org/</dc:title>
     </cc:Agent>
    </dc:creator>
   </cc:Work>
  </rdf:RDF>
 </metadata>
 <defs>
  <style type="text/css">*{stroke-linejoin: round; stroke-linecap: butt}</style>
 </defs>
 <g id="figure_1">
  <g id="patch_1">
   <path d="M 0 345.6 
L 460.8 345.6 
L 460.8 0 
L 0 0 
z
" style="fill: #ffffff"/>
  </g>
  <g id="axes_1">
   <g id="patch_2">
    <path d="M 57.6 307.584 
L 414.72 307.584 
L 414.72 41.472 
L 57.6 41.472 
z
" style="fill: #ffffff"/>
   </g>
   <g id="matplotlib.axis_1">
    <g id="xtick_1">
     <g id="line2d_1">
      <defs>
       <path id="mca0999dab1" d="M 0 0 
L 0 3.5 
" style="stroke: #000000; stroke-width: 0.8"/>
      </defs>
      <g>
       <use xlink:href="#mca0999dab1" x="73.832727" y="307.584" style="stroke: #000000; stroke-width: 0.8"/>
      </g>
     </g>
     <g id="text_1">
      <!-- 0 -->
      <g transform="translate(70.651477 322.182437) scale(0.1 -0.1)">
       <defs>
        <path id="DejaVuSans-30" d="M 2034 4250 
Q 1547 4250 1301 3770 
Q 1056 3291 1056 2328 
Q 1056 1369 1301 889 
Q 1547 409 2034 409 
Q 2525 409 2770 889 
Q 3016 1369 3016 2328 
Q 3016 3291 2770 3770 
Q 2525 4250 2034 4250 
z
M 2034 4750 
Q 2819 4750 3233 4129 
Q 3647 3509 3647 2328 
Q 3647 1150 3233 529 
Q 2819 -91 2034 -91 
Q 1250 -91 836 529 
Q 422 1150 422 2328 
Q 422 3509 836 4129 
Q 1250 4750 2034 4750 
z
" transform="scale(0.015625)"/>
       </defs>
       <use xlink:href="#DejaVuSans-30"/>
      </g>
     </g>
    </g>
    <g id="xtick_2">
     <g id="line2d_2">
      <g>
       <use xlink:href="#mca0999dab1" x="138.893758" y="307.584" style="stroke: #000000; stroke-width: 0.8"/>
      </g>
     </g>
     <g id="text_2">
      <!-- 100 -->
      <g transform="translate(129.350008 322.182437) scale(0.1 -0.1)">
       <defs>
        <path id="DejaVuSans-31" d="M 794 531 
L 1825 531 
L 1825 4091 
L 703 3866 
L 703 4441 
L 1819 4666 
L 2450 4666 
L 2450 531 
L 3481 531 
L 3481 0 
L 794 0 
L 794 531 
z
" transform="scale(0.015625)"/>
       </defs>
       <use xlink:href="#DejaVuSans-31"/>
       <use xlink:href="#DejaVuSans-30" x="63.623047"/>
       <use xlink:href="#DejaVuSans-30" x="127.246094"/>
      </g>
     </g>
    </g>
    <g id="xtick_3">
     <g id="line2d_3">
      <g>
       <use xlink:href="#mca0999dab1" x="203.95479" y="307.584" style="stroke: #000000; stroke-width: 0.8"/>
      </g>
     </g>
     <g id="text_3">
      <!-- 200 -->
      <g transform="translate(194.41104 322.182437) scale(0.1 -0.1)">
       <defs>
        <path id="DejaVuSans-32" d="M 1228 531 
L 3431 531 
L 3431 0 
L 469 0 
L 469 531 
Q 828 903 1448 1529 
Q 2069 2156 2228 2338 
Q 2531 2678 2651 2914 
Q 2772 3150 2772 3378 
Q 2772 3750 2511 3984 
Q 2250 4219 1831 4219 
Q 1534 4219 1204 4116 
Q 875 4013 500 3803 
L 500 4441 
Q 881 4594 1212 4672 
Q 1544 4750 1819 4750 
Q 2544 4750 2975 4387 
Q 3406 4025 3406 3419 
Q 3406 3131 3298 2873 
Q 3191 2616 2906 2266 
Q 2828 2175 2409 1742 
Q 1991 1309 1228 531 
z
" transform="scale(0.015625)"/>
       </defs>
       <use xlink:href="#DejaVuSans-32"/>
       <use xlink:href="#DejaVuSans-30" x="63.623047"/>
       <use xlink:href="#DejaVuSans-30" x="127.246094"/>
      </g>
     </g>
    </g>
    <g id="xtick_4">
     <g id="line2d_4">
      <g>
       <use xlink:href="#mca0999dab1" x="269.015821" y="307.584" style="stroke: #000000; stroke-width: 0.8"/>
      </g>
     </g>
     <g id="text_4">
      <!-- 300 -->
      <g transform="translate(259.472071 322.182437) scale(0.1 -0.1)">
       <defs>
        <path id="DejaVuSans-33" d="M 2597 2516 
Q 3050 2419 3304 2112 
Q 3559 1806 3559 1356 
Q 3559 666 3084 287 
Q 2609 -91 1734 -91 
Q 1441 -91 1130 -33 
Q 819 25 488 141 
L 488 750 
Q 750 597 1062 519 
Q 1375 441 1716 441 
Q 2309 441 2620 675 
Q 2931 909 2931 1356 
Q 2931 1769 2642 2001 
Q 2353 2234 1838 2234 
L 1294 2234 
L 1294 2753 
L 1863 2753 
Q 2328 2753 2575 2939 
Q 2822 3125 2822 3475 
Q 2822 3834 2567 4026 
Q 2313 4219 1838 4219 
Q 1578 4219 1281 4162 
Q 984 4106 628 3988 
L 628 4550 
Q 988 4650 1302 4700 
Q 1616 4750 1894 4750 
Q 2613 4750 3031 4423 
Q 3450 4097 3450 3541 
Q 3450 3153 3228 2886 
Q 3006 2619 2597 2516 
z
" transform="scale(0.015625)"/>
       </defs>
       <use xlink:href="#DejaVuSans-33"/>
       <use xlink:href="#DejaVuSans-30" x="63.623047"/>
       <use xlink:href="#DejaVuSans-30" x="127.246094"/>
      </g>
     </g>
    </g>
    <g id="xtick_5">
     <g id="line2d_5">
      <g>
       <use xlink:href="#mca0999dab1" x="334.076852" y="307.584" style="stroke: #000000; stroke-width: 0.8"/>
      </g>
     </g>
     <g id="text_5">
      <!-- 400 -->
      <g transform="translate(324.533102 322.182437) scale(0.1 -0.1)">
       <defs>
        <path id="DejaVuSans-34" d="M 2419 4116 
L 825 1625 
L 2419 1625 
L 2419 4116 
z
M 2253 4666 
L 3047 4666 
L 3047 1625 
L 3713 1625 
L 3713 1100 
L 3047 1100 
L 3047 0 
L 2419 0 
L 2419 1100 
L 313 1100 
L 313 1709 
L 2253 4666 
z
" transform="scale(0.015625)"/>
       </defs>
       <use xlink:href="#DejaVuSans-34"/>
       <use xlink:href="#DejaVuSans-30" x="63.623047"/>
       <use xlink:href="#DejaVuSans-30" x="127.246094"/>
      </g>
     </g>
    </g>
    <g id="xtick_6">
     <g id="line2d_6">
      <g>
       <use xlink:href="#mca0999dab1" x="399.137883" y="307.584" style="stroke: #000000; stroke-width: 0.8"/>
      </g>
     </g>
     <g id="text_6">
      <!-- 500 -->
      <g transform="translate(389.594133 322.182437) scale(0.1 -0.1)">
       <defs>
        <path id="DejaVuSans-35" d="M 691 4666 
L 3169 4666 
L 3169 4134 
L 1269 4134 
L 1269 2991 
Q 1406 3038 1543 3061 
Q 1681 3084 1819 3084 
Q 2600 3084 3056 2656 
Q 3513 2228 3513 1497 
Q 3513 744 3044 326 
Q 2575 -91 1722 -91 
Q 1428 -91 1123 -41 
Q 819 9 494 109 
L 494 744 
Q 775 591 1075 516 
Q 1375 441 1709 441 
Q 2250 441 2565 725 
Q 2881 1009 2881 1497 
Q 2881 1984 2565 2268 
Q 2250 2553 1709 2553 
Q 1456 2553 1204 2497 
Q 953 2441 691 2322 
L 691 4666 
z
" transform="scale(0.015625)"/>
       </defs>
       <use xlink:href="#DejaVuSans-35"/>
       <use xlink:href="#DejaVuSans-30" x="63.623047"/>
       <use xlink:href="#DejaVuSans-30" x="127.246094"/>
      </g>
     </g>
    </g>
    <g id="text_7">
     <!-- epoch -->
     <g transform="translate(220.931875 335.860562) scale(0.1 -0.1)">
      <defs>
       <path id="DejaVuSans-65" d="M 3597 1894 
L 3597 1613 
L 953 1613 
Q 991 1019 1311 708 
Q 1631 397 2203 397 
Q 2534 397 2845 478 
Q 3156 559 3463 722 
L 3463 178 
Q 3153 47 2828 -22 
Q 2503 -91 2169 -91 
Q 1331 -91 842 396 
Q 353 884 353 1716 
Q 353 2575 817 3079 
Q 1281 3584 2069 3584 
Q 2775 3584 3186 3129 
Q 3597 2675 3597 1894 
z
M 3022 2063 
Q 3016 2534 2758 2815 
Q 2500 3097 2075 3097 
Q 1594 3097 1305 2825 
Q 1016 2553 972 2059 
L 3022 2063 
z
" transform="scale(0.015625)"/>
       <path id="DejaVuSans-70" d="M 1159 525 
L 1159 -1331 
L 581 -1331 
L 581 3500 
L 1159 3500 
L 1159 2969 
Q 1341 3281 1617 3432 
Q 1894 3584 2278 3584 
Q 2916 3584 3314 3078 
Q 3713 2572 3713 1747 
Q 3713 922 3314 415 
Q 2916 -91 2278 -91 
Q 1894 -91 1617 61 
Q 1341 213 1159 525 
z
M 3116 1747 
Q 3116 2381 2855 2742 
Q 2594 3103 2138 3103 
Q 1681 3103 1420 2742 
Q 1159 2381 1159 1747 
Q 1159 1113 1420 752 
Q 1681 391 2138 391 
Q 2594 391 2855 752 
Q 3116 1113 3116 1747 
z
" transform="scale(0.015625)"/>
       <path id="DejaVuSans-6f" d="M 1959 3097 
Q 1497 3097 1228 2736 
Q 959 2375 959 1747 
Q 959 1119 1226 758 
Q 1494 397 1959 397 
Q 2419 397 2687 759 
Q 2956 1122 2956 1747 
Q 2956 2369 2687 2733 
Q 2419 3097 1959 3097 
z
M 1959 3584 
Q 2709 3584 3137 3096 
Q 3566 2609 3566 1747 
Q 3566 888 3137 398 
Q 2709 -91 1959 -91 
Q 1206 -91 779 398 
Q 353 888 353 1747 
Q 353 2609 779 3096 
Q 1206 3584 1959 3584 
z
" transform="scale(0.015625)"/>
       <path id="DejaVuSans-63" d="M 3122 3366 
L 3122 2828 
Q 2878 2963 2633 3030 
Q 2388 3097 2138 3097 
Q 1578 3097 1268 2742 
Q 959 2388 959 1747 
Q 959 1106 1268 751 
Q 1578 397 2138 397 
Q 2388 397 2633 464 
Q 2878 531 3122 666 
L 3122 134 
Q 2881 22 2623 -34 
Q 2366 -91 2075 -91 
Q 1284 -91 818 406 
Q 353 903 353 1747 
Q 353 2603 823 3093 
Q 1294 3584 2113 3584 
Q 2378 3584 2631 3529 
Q 2884 3475 3122 3366 
z
" transform="scale(0.015625)"/>
       <path id="DejaVuSans-68" d="M 3513 2113 
L 3513 0 
L 2938 0 
L 2938 2094 
Q 2938 2591 2744 2837 
Q 2550 3084 2163 3084 
Q 1697 3084 1428 2787 
Q 1159 2491 1159 1978 
L 1159 0 
L 581 0 
L 581 4863 
L 1159 4863 
L 1159 2956 
Q 1366 3272 1645 3428 
Q 1925 3584 2291 3584 
Q 2894 3584 3203 3211 
Q 3513 2838 3513 2113 
z
" transform="scale(0.015625)"/>
      </defs>
      <use xlink:href="#DejaVuSans-65"/>
      <use xlink:href="#DejaVuSans-70" x="61.523438"/>
      <use xlink:href="#DejaVuSans-6f" x="125"/>
      <use xlink:href="#DejaVuSans-63" x="186.181641"/>
      <use xlink:href="#DejaVuSans-68" x="241.162109"/>
     </g>
    </g>
   </g>
   <g id="matplotlib.axis_2">
    <g id="ytick_1">
     <g id="line2d_7">
      <defs>
       <path id="m8210d7b298" d="M 0 0 
L -3.5 0 
" style="stroke: #000000; stroke-width: 0.8"/>
      </defs>
      <g>
       <use xlink:href="#m8210d7b298" x="57.6" y="258.422067" style="stroke: #000000; stroke-width: 0.8"/>
      </g>
     </g>
     <g id="text_8">
      <!-- 0.2 -->
      <g transform="translate(34.696875 262.221286) scale(0.1 -0.1)">
       <defs>
        <path id="DejaVuSans-2e" d="M 684 794 
L 1344 794 
L 1344 0 
L 684 0 
L 684 794 
z
" transform="scale(0.015625)"/>
       </defs>
       <use xlink:href="#DejaVuSans-30"/>
       <use xlink:href="#DejaVuSans-2e" x="63.623047"/>
       <use xlink:href="#DejaVuSans-32" x="95.410156"/>
      </g>
     </g>
    </g>
    <g id="ytick_2">
     <g id="line2d_8">
      <g>
       <use xlink:href="#m8210d7b298" x="57.6" y="207.817665" style="stroke: #000000; stroke-width: 0.8"/>
      </g>
     </g>
     <g id="text_9">
      <!-- 0.3 -->
      <g transform="translate(34.696875 211.616884) scale(0.1 -0.1)">
       <use xlink:href="#DejaVuSans-30"/>
       <use xlink:href="#DejaVuSans-2e" x="63.623047"/>
       <use xlink:href="#DejaVuSans-33" x="95.410156"/>
      </g>
     </g>
    </g>
    <g id="ytick_3">
     <g id="line2d_9">
      <g>
       <use xlink:href="#m8210d7b298" x="57.6" y="157.213262" style="stroke: #000000; stroke-width: 0.8"/>
      </g>
     </g>
     <g id="text_10">
      <!-- 0.4 -->
      <g transform="translate(34.696875 161.012481) scale(0.1 -0.1)">
       <use xlink:href="#DejaVuSans-30"/>
       <use xlink:href="#DejaVuSans-2e" x="63.623047"/>
       <use xlink:href="#DejaVuSans-34" x="95.410156"/>
      </g>
     </g>
    </g>
    <g id="ytick_4">
     <g id="line2d_10">
      <g>
       <use xlink:href="#m8210d7b298" x="57.6" y="106.60886" style="stroke: #000000; stroke-width: 0.8"/>
      </g>
     </g>
     <g id="text_11">
      <!-- 0.5 -->
      <g transform="translate(34.696875 110.408078) scale(0.1 -0.1)">
       <use xlink:href="#DejaVuSans-30"/>
       <use xlink:href="#DejaVuSans-2e" x="63.623047"/>
       <use xlink:href="#DejaVuSans-35" x="95.410156"/>
      </g>
     </g>
    </g>
    <g id="ytick_5">
     <g id="line2d_11">
      <g>
       <use xlink:href="#m8210d7b298" x="57.6" y="56.004457" style="stroke: #000000; stroke-width: 0.8"/>
      </g>
     </g>
     <g id="text_12">
      <!-- 0.6 -->
      <g transform="translate(34.696875 59.803676) scale(0.1 -0.1)">
       <defs>
        <path id="DejaVuSans-36" d="M 2113 2584 
Q 1688 2584 1439 2293 
Q 1191 2003 1191 1497 
Q 1191 994 1439 701 
Q 1688 409 2113 409 
Q 2538 409 2786 701 
Q 3034 994 3034 1497 
Q 3034 2003 2786 2293 
Q 2538 2584 2113 2584 
z
M 3366 4563 
L 3366 3988 
Q 3128 4100 2886 4159 
Q 2644 4219 2406 4219 
Q 1781 4219 1451 3797 
Q 1122 3375 1075 2522 
Q 1259 2794 1537 2939 
Q 1816 3084 2150 3084 
Q 2853 3084 3261 2657 
Q 3669 2231 3669 1497 
Q 3669 778 3244 343 
Q 2819 -91 2113 -91 
Q 1303 -91 875 529 
Q 447 1150 447 2328 
Q 447 3434 972 4092 
Q 1497 4750 2381 4750 
Q 2619 4750 2861 4703 
Q 3103 4656 3366 4563 
z
" transform="scale(0.015625)"/>
       </defs>
       <use xlink:href="#DejaVuSans-30"/>
       <use xlink:href="#DejaVuSans-2e" x="63.623047"/>
       <use xlink:href="#DejaVuSans-36" x="95.410156"/>
      </g>
     </g>
    </g>
    <g id="text_13">
     <!-- loss value -->
     <g transform="translate(28.617187 199.432687) rotate(-90) scale(0.1 -0.1)">
      <defs>
       <path id="DejaVuSans-6c" d="M 603 4863 
L 1178 4863 
L 1178 0 
L 603 0 
L 603 4863 
z
" transform="scale(0.015625)"/>
       <path id="DejaVuSans-73" d="M 2834 3397 
L 2834 2853 
Q 2591 2978 2328 3040 
Q 2066 3103 1784 3103 
Q 1356 3103 1142 2972 
Q 928 2841 928 2578 
Q 928 2378 1081 2264 
Q 1234 2150 1697 2047 
L 1894 2003 
Q 2506 1872 2764 1633 
Q 3022 1394 3022 966 
Q 3022 478 2636 193 
Q 2250 -91 1575 -91 
Q 1294 -91 989 -36 
Q 684 19 347 128 
L 347 722 
Q 666 556 975 473 
Q 1284 391 1588 391 
Q 1994 391 2212 530 
Q 2431 669 2431 922 
Q 2431 1156 2273 1281 
Q 2116 1406 1581 1522 
L 1381 1569 
Q 847 1681 609 1914 
Q 372 2147 372 2553 
Q 372 3047 722 3315 
Q 1072 3584 1716 3584 
Q 2034 3584 2315 3537 
Q 2597 3491 2834 3397 
z
" transform="scale(0.015625)"/>
       <path id="DejaVuSans-20" transform="scale(0.015625)"/>
       <path id="DejaVuSans-76" d="M 191 3500 
L 800 3500 
L 1894 563 
L 2988 3500 
L 3597 3500 
L 2284 0 
L 1503 0 
L 191 3500 
z
" transform="scale(0.015625)"/>
       <path id="DejaVuSans-61" d="M 2194 1759 
Q 1497 1759 1228 1600 
Q 959 1441 959 1056 
Q 959 750 1161 570 
Q 1363 391 1709 391 
Q 2188 391 2477 730 
Q 2766 1069 2766 1631 
L 2766 1759 
L 2194 1759 
z
M 3341 1997 
L 3341 0 
L 2766 0 
L 2766 531 
Q 2569 213 2275 61 
Q 1981 -91 1556 -91 
Q 1019 -91 701 211 
Q 384 513 384 1019 
Q 384 1609 779 1909 
Q 1175 2209 1959 2209 
L 2766 2209 
L 2766 2266 
Q 2766 2663 2505 2880 
Q 2244 3097 1772 3097 
Q 1472 3097 1187 3025 
Q 903 2953 641 2809 
L 641 3341 
Q 956 3463 1253 3523 
Q 1550 3584 1831 3584 
Q 2591 3584 2966 3190 
Q 3341 2797 3341 1997 
z
" transform="scale(0.015625)"/>
       <path id="DejaVuSans-75" d="M 544 1381 
L 544 3500 
L 1119 3500 
L 1119 1403 
Q 1119 906 1312 657 
Q 1506 409 1894 409 
Q 2359 409 2629 706 
Q 2900 1003 2900 1516 
L 2900 3500 
L 3475 3500 
L 3475 0 
L 2900 0 
L 2900 538 
Q 2691 219 2414 64 
Q 2138 -91 1772 -91 
Q 1169 -91 856 284 
Q 544 659 544 1381 
z
M 1991 3584 
L 1991 3584 
z
" transform="scale(0.015625)"/>
      </defs>
      <use xlink:href="#DejaVuSans-6c"/>
      <use xlink:href="#DejaVuSans-6f" x="27.783203"/>
      <use xlink:href="#DejaVuSans-73" x="88.964844"/>
      <use xlink:href="#DejaVuSans-73" x="141.064453"/>
      <use xlink:href="#DejaVuSans-20" x="193.164062"/>
      <use xlink:href="#DejaVuSans-76" x="224.951172"/>
      <use xlink:href="#DejaVuSans-61" x="284.130859"/>
      <use xlink:href="#DejaVuSans-6c" x="345.410156"/>
      <use xlink:href="#DejaVuSans-75" x="373.193359"/>
      <use xlink:href="#DejaVuSans-65" x="436.572266"/>
     </g>
    </g>
   </g>
   <g id="line2d_12">
    <path d="M 73.832727 68.95181 
L 74.483338 238.606689 
L 75.133948 271.719905 
L 75.784558 280.446416 
L 76.435169 279.525461 
L 77.085779 282.488447 
L 77.736389 283.14783 
L 78.386999 285.184611 
L 79.03761 289.888296 
L 79.68822 288.758145 
L 80.33883 283.6189 
L 80.989441 282.802329 
L 81.640051 284.199462 
L 82.290661 288.821548 
L 82.941272 289.65935 
L 83.591882 274.669287 
L 84.242492 284.959465 
L 84.893103 286.556419 
L 85.543713 286.040239 
L 86.194323 285.873072 
L 86.844934 267.36726 
L 87.495544 283.395381 
L 88.146154 286.795519 
L 88.796764 284.881713 
L 89.447375 286.999771 
L 90.097985 263.15832 
L 90.748595 282.485673 
L 91.399206 285.732554 
L 92.700426 287.759703 
L 93.351037 265.61385 
L 94.001647 283.895009 
L 94.652257 285.527113 
L 95.302868 284.630671 
L 95.953478 288.618401 
L 96.604088 260.478995 
L 97.254698 284.508647 
L 97.905309 288.035463 
L 98.555919 287.865594 
L 99.206529 288.849997 
L 99.85714 269.451114 
L 100.50775 286.03674 
L 101.15836 288.444101 
L 101.808971 289.92361 
L 102.459581 289.551088 
L 103.110191 266.367917 
L 103.760802 285.875015 
L 104.411412 287.975894 
L 105.062022 288.213276 
L 105.712633 289.963945 
L 106.363243 263.460724 
L 107.013853 287.444353 
L 107.664463 285.004766 
L 108.315074 287.755483 
L 108.965684 291.323541 
L 109.616294 263.409517 
L 110.266905 285.945638 
L 110.917515 287.296045 
L 112.218736 291.353637 
L 112.869346 262.34284 
L 113.519956 284.361426 
L 114.170567 288.846784 
L 114.821177 290.56989 
L 115.471787 291.532538 
L 116.122398 266.629988 
L 116.773008 283.960264 
L 117.423618 289.360318 
L 118.074228 289.64191 
L 118.724839 293.26467 
L 119.375449 260.450398 
L 120.026059 287.991795 
L 120.67667 290.610557 
L 121.32728 290.40483 
L 121.97789 290.977143 
L 122.628501 260.861467 
L 123.279111 284.284523 
L 123.929721 289.633367 
L 124.580332 291.635035 
L 125.230942 291.53199 
L 125.881552 266.912876 
L 126.532163 285.713626 
L 127.182773 291.721106 
L 127.833383 288.800738 
L 128.483993 292.380081 
L 129.134604 266.628369 
L 129.785214 287.432492 
L 130.435824 289.954349 
L 131.086435 291.969449 
L 131.737045 292.493999 
L 132.387655 265.576171 
L 133.038266 284.460629 
L 133.688876 289.851283 
L 134.339486 293.162726 
L 134.990097 295.488 
L 135.640707 267.776496 
L 136.291317 289.60593 
L 136.941927 290.358355 
L 137.592538 292.507523 
L 138.243148 293.985134 
L 138.893758 264.713572 
L 139.544369 283.954081 
L 140.194979 289.190787 
L 140.845589 291.085826 
L 141.4962 291.971482 
L 142.14681 256.155438 
L 142.79742 274.886643 
L 143.448031 283.985585 
L 144.098641 289.801857 
L 144.749251 291.863431 
L 145.399862 256.827772 
L 146.050472 273.127653 
L 146.701082 286.30052 
L 147.351692 289.212368 
L 148.002303 286.231376 
L 148.652913 258.855934 
L 149.303523 275.515637 
L 149.954134 282.424591 
L 150.604744 286.503658 
L 151.255354 291.567883 
L 151.905965 259.151702 
L 152.556575 273.160484 
L 153.207185 283.650249 
L 153.857796 288.504542 
L 154.508406 291.315427 
L 155.159016 253.90296 
L 155.809627 272.536308 
L 156.460237 282.086254 
L 157.110847 288.79835 
L 157.761457 286.723758 
L 158.412068 256.752659 
L 159.713288 283.799026 
L 160.363899 287.078027 
L 161.014509 291.088646 
L 161.665119 259.597529 
L 162.31573 269.49924 
L 162.96634 281.786159 
L 163.61695 286.277838 
L 164.267561 285.2112 
L 164.918171 256.175767 
L 165.568781 271.363068 
L 166.219392 278.322846 
L 166.870002 286.882345 
L 167.520612 288.716367 
L 168.171222 256.131289 
L 168.821833 273.215527 
L 169.472443 280.505362 
L 170.123053 285.888307 
L 170.773664 288.912772 
L 171.424274 256.313631 
L 172.074884 269.749067 
L 172.725495 280.573818 
L 173.376105 286.068368 
L 174.026715 285.781215 
L 174.677326 255.811429 
L 175.327936 271.060046 
L 175.978546 279.28701 
L 176.629156 285.911267 
L 177.279767 288.263013 
L 177.930377 257.621685 
L 179.231598 277.699737 
L 179.882208 284.572099 
L 180.532818 285.695265 
L 181.183429 257.829301 
L 181.834039 271.864078 
L 182.484649 280.520801 
L 183.13526 281.608878 
L 183.78587 283.974872 
L 184.43648 251.761397 
L 185.087091 264.652954 
L 186.388311 283.022437 
L 187.038921 285.661647 
L 187.689532 253.650506 
L 189.641363 283.506325 
L 190.291973 285.739935 
L 190.942583 258.372843 
L 192.243804 272.92183 
L 192.894414 283.853942 
L 193.545025 286.448253 
L 194.195635 252.610593 
L 194.846245 264.31188 
L 195.496856 268.378433 
L 196.147466 278.923458 
L 196.798076 284.634176 
L 197.448686 252.078482 
L 198.099297 264.539871 
L 199.400517 282.429027 
L 200.051128 283.619102 
L 200.701738 252.597626 
L 201.352348 262.861866 
L 202.653569 278.849376 
L 203.304179 281.76211 
L 203.95479 257.01867 
L 205.25601 273.927396 
L 205.906621 281.477805 
L 206.557231 283.41722 
L 207.207841 251.145796 
L 207.858451 263.135586 
L 208.509062 270.989054 
L 209.810282 281.193525 
L 210.460893 249.806336 
L 211.111503 256.516036 
L 211.762113 267.44696 
L 212.412724 275.218625 
L 213.063334 280.043783 
L 213.713944 255.419774 
L 214.364555 265.954016 
L 215.015165 273.098341 
L 215.665775 277.2311 
L 216.316385 279.889033 
L 216.966996 249.89169 
L 217.617606 256.318367 
L 218.268216 265.670153 
L 218.918827 271.317054 
L 219.569437 279.766292 
L 220.220047 250.268949 
L 220.870658 261.859838 
L 221.521268 265.965629 
L 222.171878 274.481935 
L 222.822489 279.286828 
L 223.473099 251.180842 
L 224.77432 267.966394 
L 225.42493 271.342318 
L 226.07554 278.869688 
L 226.72615 250.414807 
L 227.376761 256.964966 
L 228.027371 265.44184 
L 228.677981 269.442323 
L 229.328592 275.47557 
L 229.979202 256.768381 
L 230.629812 263.168564 
L 231.280423 267.640266 
L 231.931033 277.317255 
L 232.581643 275.844847 
L 233.232254 252.967952 
L 233.882864 261.480762 
L 234.533474 267.540763 
L 235.184085 269.303729 
L 235.834695 277.860395 
L 236.485305 245.524244 
L 237.135915 255.634071 
L 237.786526 260.146889 
L 238.437136 268.144321 
L 239.087746 272.583868 
L 239.738357 257.569876 
L 241.690188 272.093703 
L 242.340798 275.818528 
L 242.991408 251.635316 
L 243.642019 258.385357 
L 244.292629 263.208909 
L 244.943239 270.64391 
L 245.59385 269.344215 
L 246.24446 255.496954 
L 246.89507 262.585661 
L 248.196291 269.859754 
L 248.846901 275.590892 
L 249.497511 249.965321 
L 250.148122 256.275965 
L 250.798732 261.08653 
L 251.449342 262.055707 
L 252.099953 268.608159 
L 252.750563 249.282017 
L 253.401173 258.036273 
L 254.051784 263.02934 
L 254.702394 264.60897 
L 255.353004 270.462078 
L 256.003615 255.39596 
L 257.304835 262.485837 
L 258.606056 273.136487 
L 259.256666 251.511679 
L 259.907276 253.674061 
L 260.557887 260.174721 
L 261.859107 266.372976 
L 262.509718 256.717275 
L 263.160328 260.365843 
L 263.810938 265.585776 
L 265.112159 273.136014 
L 265.762769 253.367345 
L 267.06399 263.565062 
L 267.7146 267.229996 
L 268.36521 268.89361 
L 269.015821 249.380063 
L 269.666431 255.515789 
L 270.317041 257.424521 
L 270.967652 263.667392 
L 271.618262 267.327239 
L 272.268872 253.965176 
L 272.919483 258.355583 
L 274.220703 265.301556 
L 274.871314 266.692288 
L 275.521924 249.34614 
L 276.172534 255.361314 
L 276.823144 256.269705 
L 277.473755 259.175513 
L 278.124365 265.59593 
L 278.774975 257.631169 
L 279.425586 261.64464 
L 280.076196 263.517153 
L 280.726806 265.874313 
L 281.377417 267.524519 
L 282.028027 248.875668 
L 282.678637 252.364343 
L 283.329248 252.086315 
L 283.979858 257.949564 
L 284.630468 261.016823 
L 285.281079 246.78811 
L 285.931689 247.611477 
L 286.582299 254.251778 
L 287.232909 256.207641 
L 287.88352 261.498454 
L 288.53413 255.959045 
L 289.18474 257.719532 
L 289.835351 260.009578 
L 290.485961 265.823906 
L 291.136571 266.250965 
L 291.787182 246.864563 
L 292.437792 249.982972 
L 293.088402 256.396084 
L 293.739013 254.526454 
L 294.389623 260.599936 
L 295.040233 245.621517 
L 296.341454 253.76166 
L 296.992064 254.313994 
L 297.642674 256.963561 
L 298.293285 254.164095 
L 298.943895 256.350196 
L 299.594505 259.212436 
L 300.245116 260.66096 
L 300.895726 262.829862 
L 301.546336 249.102923 
L 302.196947 252.072989 
L 304.148778 259.087201 
L 304.799388 253.076254 
L 305.449998 253.295667 
L 306.100608 253.250628 
L 306.751219 258.861239 
L 307.401829 258.867834 
L 308.052439 245.46585 
L 308.70305 252.388514 
L 309.35366 253.142601 
L 310.00427 255.580775 
L 310.654881 259.741569 
L 311.305491 247.066774 
L 311.956101 245.624699 
L 313.257322 255.419247 
L 313.907932 257.9517 
L 314.558543 251.887643 
L 315.209153 252.088356 
L 316.510373 257.644572 
L 317.160984 259.893768 
L 317.811594 246.453241 
L 318.462204 250.775982 
L 319.112815 252.064155 
L 319.763425 251.9097 
L 320.414035 252.778555 
L 321.064646 246.664485 
L 321.715256 250.436859 
L 323.016477 251.145661 
L 323.667087 254.343905 
L 324.317697 251.995741 
L 325.618918 254.944579 
L 326.269528 255.700342 
L 326.920138 258.717369 
L 327.570749 245.997736 
L 328.221359 246.680561 
L 328.871969 246.793213 
L 329.52258 252.207422 
L 330.17319 253.492845 
L 330.8238 246.965535 
L 331.474411 245.551739 
L 332.125021 249.017256 
L 332.775631 248.086712 
L 333.426242 250.278847 
L 334.076852 249.409793 
L 334.727462 246.457613 
L 335.378073 250.781674 
L 336.679293 255.74396 
L 337.329903 243.771497 
L 337.980514 249.482592 
L 338.631124 250.211968 
L 339.281734 254.654557 
L 339.932345 256.085987 
L 340.582955 245.479271 
L 341.233565 248.970369 
L 341.884176 247.937187 
L 342.534786 254.204725 
L 343.836007 247.159751 
L 344.486617 248.700546 
L 345.137227 251.78322 
L 345.787837 251.837907 
L 346.438448 257.799046 
L 347.089058 248.89666 
L 347.739668 248.630519 
L 348.390279 248.572233 
L 349.040889 254.138573 
L 349.691499 256.605326 
L 350.34211 249.292248 
L 350.99272 250.368905 
L 351.64333 252.46751 
L 352.293941 255.903274 
L 352.944551 257.025774 
L 353.595161 252.096324 
L 354.245772 252.503591 
L 354.896382 254.20743 
L 355.546992 251.895644 
L 356.197602 256.742146 
L 356.848213 254.618185 
L 357.498823 251.370106 
L 358.149433 258.146957 
L 358.800044 259.643541 
L 359.450654 260.463816 
L 360.101264 252.19856 
L 360.751875 253.271761 
L 361.402485 249.719567 
L 362.053095 253.082599 
L 362.703706 253.737525 
L 363.354316 243.252335 
L 364.004926 247.376132 
L 364.655537 247.573745 
L 365.306147 249.984388 
L 365.956757 250.195182 
L 366.607367 254.349252 
L 367.257978 253.144775 
L 367.908588 258.356315 
L 368.559198 258.706169 
L 369.209809 261.056214 
L 369.860419 250.834217 
L 370.511029 246.940664 
L 371.16164 252.452647 
L 371.81225 253.548271 
L 372.46286 256.732237 
L 373.113471 246.056056 
L 373.764081 249.465387 
L 374.414691 250.156712 
L 375.065302 251.585691 
L 375.715912 252.28165 
L 376.366522 249.352848 
L 377.017132 248.930952 
L 377.667743 255.627571 
L 378.318353 256.423828 
L 378.968963 259.58303 
L 379.619574 250.639099 
L 380.270184 251.636476 
L 380.920794 251.719456 
L 381.571405 256.211159 
L 382.222015 257.364195 
L 382.872625 249.006076 
L 383.523236 252.437768 
L 384.173846 252.846582 
L 384.824456 254.456737 
L 385.475066 255.537581 
L 386.125677 248.776863 
L 386.776287 245.800233 
L 387.426897 252.573662 
L 388.077508 252.859147 
L 388.728118 256.065734 
L 389.378728 255.031878 
L 390.029339 258.242966 
L 390.679949 259.448562 
L 391.330559 261.635073 
L 391.98117 263.102695 
L 392.63178 246.829063 
L 393.28239 251.833209 
L 393.933001 249.448231 
L 394.583611 249.499461 
L 395.234221 253.259946 
L 395.884831 248.333789 
L 396.535442 249.402306 
L 397.186052 253.005442 
L 397.836662 254.400979 
L 398.487273 254.300162 
L 398.487273 254.300162 
" clip-path="url(#p9fdd396db8)" style="fill: none; stroke: #0000ff; stroke-width: 1.5; stroke-linecap: square"/>
   </g>
   <g id="line2d_13">
    <path d="M 73.832727 53.568 
L 74.483338 223.223899 
L 75.133948 256.338468 
L 75.784558 265.066634 
L 76.435169 264.147477 
L 77.085779 267.112329 
L 77.736389 267.773593 
L 78.386999 269.812272 
L 79.03761 274.517854 
L 79.68822 273.389598 
L 80.33883 268.270841 
L 80.989441 267.456167 
L 81.640051 268.855183 
L 82.290661 273.47915 
L 82.941272 274.318832 
L 83.591882 259.375095 
L 84.242492 269.667146 
L 84.893103 271.265973 
L 85.543713 270.751669 
L 86.194323 270.586381 
L 86.844934 252.091043 
L 87.495544 268.121047 
L 88.146154 271.523048 
L 88.796764 269.611126 
L 89.447375 271.731069 
L 90.097985 247.885086 
L 90.748595 267.214351 
L 91.399206 270.463106 
L 92.700426 272.494035 
L 93.351037 250.346184 
L 94.001647 268.629243 
L 94.652257 270.263234 
L 95.302868 269.368696 
L 95.953478 273.358322 
L 96.604088 245.228527 
L 97.254698 269.26009 
L 97.905309 272.788774 
L 98.555919 272.620795 
L 99.206529 273.607102 
L 99.85714 254.2026 
L 100.50775 270.790128 
L 101.15836 273.199358 
L 101.808971 274.680757 
L 102.459581 274.310128 
L 103.110191 251.128078 
L 103.760802 270.637081 
L 104.411412 272.739836 
L 105.062022 272.979116 
L 105.712633 274.731688 
L 106.363243 248.23305 
L 107.013853 272.218592 
L 107.664463 269.780876 
L 108.315074 272.533486 
L 108.965684 276.103451 
L 109.616294 248.188822 
L 110.266905 270.726864 
L 110.917515 272.079142 
L 112.218736 276.140521 
L 112.869346 247.127265 
L 113.519956 269.14776 
L 114.170567 273.634985 
L 114.821177 275.359985 
L 115.471787 276.324525 
L 116.122398 251.420213 
L 116.773008 268.752398 
L 117.423618 274.154337 
L 118.074228 274.437824 
L 118.724839 278.06248 
L 119.375449 245.255274 
L 120.026059 272.798594 
L 120.67667 275.419224 
L 121.32728 275.215384 
L 121.97789 275.789595 
L 122.628501 245.67421 
L 123.279111 269.099191 
L 123.929721 274.449913 
L 124.580332 276.453473 
L 125.230942 276.352305 
L 125.881552 251.729355 
L 126.532163 270.531998 
L 127.182773 276.541335 
L 127.833383 273.622849 
L 128.483993 277.204084 
L 129.134604 251.461158 
L 129.785214 272.267185 
L 130.435824 274.790905 
L 131.086435 276.807893 
L 131.737045 277.334341 
L 132.387655 250.413004 
L 133.038266 269.299362 
L 133.688876 274.691888 
L 134.339486 278.005213 
L 134.990097 280.332373 
L 135.640707 252.617228 
L 136.291317 274.44856 
L 136.941927 275.202849 
L 137.592538 277.353917 
L 138.243148 278.833429 
L 138.893758 249.56772 
L 139.544369 268.809593 
L 140.194979 274.046986 
L 140.845589 275.942705 
L 141.4962 276.829043 
L 142.14681 241.01503 
L 142.79742 259.746939 
L 143.448031 268.846548 
L 144.098641 274.663472 
L 144.749251 276.725693 
L 145.399862 241.690979 
L 146.050472 257.991527 
L 146.701082 271.165021 
L 147.351692 274.077486 
L 148.002303 271.097109 
L 148.652913 243.722125 
L 149.303523 260.382465 
L 149.954134 267.292019 
L 150.604744 271.371674 
L 151.255354 276.436487 
L 151.905965 244.030323 
L 152.556575 258.039711 
L 153.207185 268.530052 
L 153.857796 273.384909 
L 154.508406 276.196353 
L 155.159016 238.789083 
L 155.809627 257.42301 
L 156.460237 266.973501 
L 157.110847 273.686129 
L 157.761457 271.612067 
L 158.412068 241.643811 
L 159.713288 268.691251 
L 160.363899 271.970759 
L 161.014509 275.981882 
L 161.665119 244.497793 
L 162.31573 254.400027 
L 162.96634 266.687444 
L 163.61695 271.179608 
L 164.267561 270.113449 
L 164.918171 241.079049 
L 165.568781 256.266851 
L 166.219392 263.227099 
L 166.870002 271.787062 
L 167.520612 273.621545 
L 168.171222 241.038417 
L 168.821833 258.123122 
L 169.472443 265.413407 
L 170.123053 270.796787 
L 170.773664 273.821686 
L 171.424274 241.23439 
L 172.074884 254.670277 
L 172.725495 265.495459 
L 173.376105 270.990429 
L 174.026715 270.703689 
L 174.677326 240.735607 
L 175.327936 255.984655 
L 175.978546 264.212031 
L 176.629156 270.836685 
L 177.279767 273.188824 
L 177.930377 242.550132 
L 179.231598 262.628977 
L 179.882208 269.501721 
L 180.532818 270.625262 
L 181.183429 242.764919 
L 181.834039 256.80008 
L 182.484649 265.457176 
L 183.13526 266.545611 
L 183.78587 268.911967 
L 184.43648 236.707344 
L 185.087091 249.599275 
L 186.388311 267.969457 
L 187.038921 270.609005 
L 187.689532 238.601124 
L 189.641363 268.457964 
L 190.291973 270.691898 
L 190.942583 243.323406 
L 192.243804 257.873047 
L 192.894414 268.805471 
L 193.545025 271.40009 
L 194.195635 237.573649 
L 194.846245 249.275258 
L 195.496856 253.342117 
L 196.147466 263.887447 
L 196.798076 269.598456 
L 197.448686 237.043252 
L 198.099297 249.504949 
L 199.400517 267.39468 
L 200.051128 268.585032 
L 200.701738 237.568168 
L 201.352348 247.832699 
L 202.653569 263.820762 
L 203.304179 266.733762 
L 203.95479 241.996238 
L 205.25601 258.905498 
L 205.906621 266.456167 
L 206.557231 268.395835 
L 207.207841 236.129323 
L 207.858451 248.119383 
L 208.509062 255.973097 
L 209.810282 266.178053 
L 210.460893 234.795297 
L 211.111503 241.505251 
L 211.762113 252.436415 
L 212.412724 260.208319 
L 213.063334 265.033707 
L 213.713944 240.413179 
L 214.364555 250.94766 
L 215.015165 258.092216 
L 215.665775 262.225195 
L 216.316385 264.883347 
L 216.966996 234.896046 
L 217.617606 241.322956 
L 218.268216 250.674963 
L 218.918827 256.32208 
L 219.569437 264.771524 
L 220.220047 235.273495 
L 220.870658 246.864603 
L 221.521268 250.970603 
L 222.171878 259.48711 
L 222.822489 264.292204 
L 223.473099 236.196527 
L 224.77432 252.982485 
L 225.42493 256.358603 
L 226.07554 263.886163 
L 226.72615 235.433788 
L 227.376761 241.984143 
L 228.027371 250.461207 
L 228.677981 254.461873 
L 229.328592 260.495305 
L 229.979202 241.790092 
L 230.629812 248.190456 
L 231.280423 252.662341 
L 231.931033 262.339504 
L 232.581643 260.867267 
L 233.232254 237.989964 
L 233.882864 246.502952 
L 234.533474 252.563121 
L 235.184085 254.326252 
L 235.834695 262.883086 
L 236.485305 230.556881 
L 237.135915 240.666882 
L 237.786526 245.179861 
L 238.437136 253.177456 
L 239.087746 257.617161 
L 239.738357 242.603643 
L 241.690188 257.127931 
L 242.340798 260.852909 
L 242.991408 236.670016 
L 243.642019 243.420213 
L 244.292629 248.243909 
L 244.943239 255.679059 
L 245.59385 254.379505 
L 246.24446 240.540108 
L 246.89507 247.628959 
L 248.196291 254.903331 
L 248.846901 260.634598 
L 249.497511 235.012309 
L 250.148122 241.323095 
L 250.798732 246.133792 
L 251.449342 247.103103 
L 252.099953 253.655684 
L 252.750563 234.328927 
L 253.401173 243.083313 
L 254.051784 248.07651 
L 254.702394 249.656262 
L 255.353004 255.509494 
L 256.003615 240.451198 
L 257.304835 247.541321 
L 258.606056 258.192202 
L 259.256666 236.571474 
L 259.907276 238.733972 
L 260.557887 245.234755 
L 261.859107 251.433232 
L 262.509718 241.776837 
L 263.160328 245.42552 
L 263.810938 250.645555 
L 265.112159 258.196007 
L 265.762769 238.427564 
L 267.06399 248.625492 
L 267.7146 252.290532 
L 268.36521 253.954244 
L 269.015821 234.447202 
L 269.666431 240.583036 
L 270.317041 242.491869 
L 270.967652 248.734835 
L 271.618262 252.394779 
L 272.268872 239.036953 
L 272.919483 243.427456 
L 274.220703 250.373618 
L 274.871314 251.764444 
L 275.521924 234.41705 
L 276.172534 240.43232 
L 276.823144 241.3408 
L 277.473755 244.246695 
L 278.124365 250.667204 
L 278.774975 242.703508 
L 279.425586 246.71707 
L 280.076196 248.589662 
L 280.726806 250.946906 
L 281.377417 252.597198 
L 282.028027 233.957422 
L 282.678637 237.44618 
L 283.329248 237.168237 
L 283.979858 243.031567 
L 284.630468 246.098906 
L 285.281079 231.869622 
L 285.931689 232.69307 
L 286.582299 239.333451 
L 287.232909 241.289392 
L 287.88352 246.580284 
L 288.53413 241.041696 
L 289.18474 242.802255 
L 289.835351 245.092368 
L 290.485961 250.906773 
L 291.136571 251.333904 
L 291.787182 231.9541 
L 292.437792 235.072582 
L 293.088402 241.485769 
L 293.739013 239.616206 
L 294.389623 245.68976 
L 295.040233 230.715122 
L 296.341454 238.855408 
L 296.992064 239.407812 
L 297.642674 242.057444 
L 298.293285 239.256882 
L 298.943895 241.44305 
L 299.594505 244.305355 
L 300.245116 245.753937 
L 300.895726 247.922902 
L 301.546336 234.196306 
L 302.196947 237.166429 
L 304.148778 244.180821 
L 304.799388 238.17777 
L 305.449998 238.397245 
L 306.100608 238.352258 
L 306.751219 243.96293 
L 307.401829 243.969575 
L 308.052439 230.567138 
L 308.70305 237.489862 
L 309.35366 238.244007 
L 310.00427 240.682231 
L 310.654881 244.843081 
L 311.305491 232.167751 
L 311.956101 230.725731 
L 313.257322 240.520383 
L 313.907932 243.052894 
L 314.558543 236.995989 
L 315.209153 237.19675 
L 316.510373 242.753062 
L 317.160984 245.002305 
L 317.811594 231.56222 
L 318.462204 235.885008 
L 319.112815 237.173232 
L 319.763425 237.018822 
L 320.414035 237.887725 
L 321.064646 231.773249 
L 321.715256 235.545668 
L 323.016477 236.254564 
L 323.667087 239.45285 
L 324.317697 237.105526 
L 325.618918 240.05445 
L 326.269528 240.810254 
L 326.920138 243.827331 
L 327.570749 231.111046 
L 328.221359 231.793912 
L 328.871969 231.906607 
L 329.52258 237.320857 
L 330.17319 238.606324 
L 330.8238 232.080178 
L 331.474411 230.666421 
L 332.125021 234.131978 
L 332.775631 233.201472 
L 333.426242 235.39365 
L 334.076852 234.525114 
L 334.727462 231.57297 
L 335.378073 235.897069 
L 336.679293 240.859438 
L 337.329903 228.887262 
L 337.980514 234.598401 
L 338.631124 235.327814 
L 339.281734 239.770435 
L 339.932345 241.201898 
L 340.582955 230.599163 
L 341.233565 234.090297 
L 341.884176 233.057155 
L 342.534786 239.324731 
L 343.836007 232.279486 
L 344.486617 233.820318 
L 345.137227 236.903029 
L 345.787837 236.957758 
L 346.438448 242.918935 
L 347.089058 234.016718 
L 347.739668 233.750612 
L 348.390279 233.692365 
L 349.040889 239.258744 
L 349.691499 241.725534 
L 350.34211 234.415481 
L 350.99272 235.492181 
L 351.64333 237.590825 
L 352.293941 241.02663 
L 352.944551 242.149163 
L 353.595161 237.220607 
L 354.245772 237.627914 
L 354.896382 239.331789 
L 355.546992 237.020046 
L 356.197602 241.86658 
L 356.848213 239.743988 
L 357.498823 236.495944 
L 358.149433 243.272834 
L 358.800044 244.76946 
L 359.450654 245.589774 
L 360.101264 237.326009 
L 360.751875 238.399248 
L 361.402485 234.847091 
L 362.053095 238.210161 
L 362.703706 238.865129 
L 363.354316 228.381413 
L 364.004926 232.50525 
L 364.655537 232.702902 
L 365.306147 235.113587 
L 365.956757 235.324417 
L 366.607367 239.478568 
L 367.257978 238.274125 
L 367.908588 243.485702 
L 368.559198 243.8356 
L 369.209809 246.185679 
L 369.860419 235.965579 
L 370.511029 232.072072 
L 371.16164 237.584087 
L 371.81225 238.679753 
L 372.46286 241.863756 
L 373.113471 231.188859 
L 373.764081 234.598224 
L 374.414691 235.28959 
L 375.065302 236.718609 
L 375.715912 237.414604 
L 376.366522 234.486294 
L 377.017132 234.064435 
L 377.667743 240.761092 
L 378.318353 241.557387 
L 378.968963 244.716624 
L 379.619574 235.773299 
L 380.270184 236.770713 
L 380.920794 236.853733 
L 381.571405 241.34547 
L 382.222015 242.498544 
L 382.872625 234.143074 
L 383.523236 237.574801 
L 384.173846 237.983654 
L 384.824456 239.59385 
L 385.475066 240.674735 
L 386.125677 233.91411 
L 386.776287 230.937517 
L 387.426897 237.71099 
L 388.077508 237.996513 
L 388.728118 241.203138 
L 389.378728 240.169661 
L 390.029339 243.380786 
L 390.679949 244.586421 
L 391.330559 246.77297 
L 391.98117 248.240629 
L 392.63178 231.969787 
L 393.28239 236.973967 
L 393.933001 234.589028 
L 394.583611 234.640299 
L 395.234221 238.400821 
L 395.884831 233.474352 
L 396.535442 234.542907 
L 397.186052 238.14608 
L 397.836662 239.541652 
L 398.487273 239.440877 
L 398.487273 239.440877 
" clip-path="url(#p9fdd396db8)" style="fill: none; stroke: #008000; stroke-width: 1.5; stroke-linecap: square"/>
   </g>
   <g id="line2d_14">
    <path d="M 0 0 
" clip-path="url(#p9fdd396db8)" style="fill: none; stroke: #ff0000; stroke-width: 1.5; stroke-linecap: square"/>
   </g>
   <g id="patch_3">
    <path d="M 57.6 307.584 
L 57.6 41.472 
" style="fill: none; stroke: #000000; stroke-width: 0.8; stroke-linejoin: miter; stroke-linecap: square"/>
   </g>
   <g id="patch_4">
    <path d="M 414.72 307.584 
L 414.72 41.472 
" style="fill: none; stroke: #000000; stroke-width: 0.8; stroke-linejoin: miter; stroke-linecap: square"/>
   </g>
   <g id="patch_5">
    <path d="M 57.6 307.584 
L 414.72 307.584 
" style="fill: none; stroke: #000000; stroke-width: 0.8; stroke-linejoin: miter; stroke-linecap: square"/>
   </g>
   <g id="patch_6">
    <path d="M 57.6 41.472 
L 414.72 41.472 
" style="fill: none; stroke: #000000; stroke-width: 0.8; stroke-linejoin: miter; stroke-linecap: square"/>
   </g>
   <g id="text_14">
    <!-- The loss curve on flag_resnet/host/8 -->
    <g transform="translate(127.426875 35.472) scale(0.12 -0.12)">
     <defs>
      <path id="DejaVuSans-54" d="M -19 4666 
L 3928 4666 
L 3928 4134 
L 2272 4134 
L 2272 0 
L 1638 0 
L 1638 4134 
L -19 4134 
L -19 4666 
z
" transform="scale(0.015625)"/>
      <path id="DejaVuSans-72" d="M 2631 2963 
Q 2534 3019 2420 3045 
Q 2306 3072 2169 3072 
Q 1681 3072 1420 2755 
Q 1159 2438 1159 1844 
L 1159 0 
L 581 0 
L 581 3500 
L 1159 3500 
L 1159 2956 
Q 1341 3275 1631 3429 
Q 1922 3584 2338 3584 
Q 2397 3584 2469 3576 
Q 2541 3569 2628 3553 
L 2631 2963 
z
" transform="scale(0.015625)"/>
      <path id="DejaVuSans-6e" d="M 3513 2113 
L 3513 0 
L 2938 0 
L 2938 2094 
Q 2938 2591 2744 2837 
Q 2550 3084 2163 3084 
Q 1697 3084 1428 2787 
Q 1159 2491 1159 1978 
L 1159 0 
L 581 0 
L 581 3500 
L 1159 3500 
L 1159 2956 
Q 1366 3272 1645 3428 
Q 1925 3584 2291 3584 
Q 2894 3584 3203 3211 
Q 3513 2838 3513 2113 
z
" transform="scale(0.015625)"/>
      <path id="DejaVuSans-66" d="M 2375 4863 
L 2375 4384 
L 1825 4384 
Q 1516 4384 1395 4259 
Q 1275 4134 1275 3809 
L 1275 3500 
L 2222 3500 
L 2222 3053 
L 1275 3053 
L 1275 0 
L 697 0 
L 697 3053 
L 147 3053 
L 147 3500 
L 697 3500 
L 697 3744 
Q 697 4328 969 4595 
Q 1241 4863 1831 4863 
L 2375 4863 
z
" transform="scale(0.015625)"/>
      <path id="DejaVuSans-67" d="M 2906 1791 
Q 2906 2416 2648 2759 
Q 2391 3103 1925 3103 
Q 1463 3103 1205 2759 
Q 947 2416 947 1791 
Q 947 1169 1205 825 
Q 1463 481 1925 481 
Q 2391 481 2648 825 
Q 2906 1169 2906 1791 
z
M 3481 434 
Q 3481 -459 3084 -895 
Q 2688 -1331 1869 -1331 
Q 1566 -1331 1297 -1286 
Q 1028 -1241 775 -1147 
L 775 -588 
Q 1028 -725 1275 -790 
Q 1522 -856 1778 -856 
Q 2344 -856 2625 -561 
Q 2906 -266 2906 331 
L 2906 616 
Q 2728 306 2450 153 
Q 2172 0 1784 0 
Q 1141 0 747 490 
Q 353 981 353 1791 
Q 353 2603 747 3093 
Q 1141 3584 1784 3584 
Q 2172 3584 2450 3431 
Q 2728 3278 2906 2969 
L 2906 3500 
L 3481 3500 
L 3481 434 
z
" transform="scale(0.015625)"/>
      <path id="DejaVuSans-5f" d="M 3263 -1063 
L 3263 -1509 
L -63 -1509 
L -63 -1063 
L 3263 -1063 
z
" transform="scale(0.015625)"/>
      <path id="DejaVuSans-74" d="M 1172 4494 
L 1172 3500 
L 2356 3500 
L 2356 3053 
L 1172 3053 
L 1172 1153 
Q 1172 725 1289 603 
Q 1406 481 1766 481 
L 2356 481 
L 2356 0 
L 1766 0 
Q 1100 0 847 248 
Q 594 497 594 1153 
L 594 3053 
L 172 3053 
L 172 3500 
L 594 3500 
L 594 4494 
L 1172 4494 
z
" transform="scale(0.015625)"/>
      <path id="DejaVuSans-2f" d="M 1625 4666 
L 2156 4666 
L 531 -594 
L 0 -594 
L 1625 4666 
z
" transform="scale(0.015625)"/>
      <path id="DejaVuSans-38" d="M 2034 2216 
Q 1584 2216 1326 1975 
Q 1069 1734 1069 1313 
Q 1069 891 1326 650 
Q 1584 409 2034 409 
Q 2484 409 2743 651 
Q 3003 894 3003 1313 
Q 3003 1734 2745 1975 
Q 2488 2216 2034 2216 
z
M 1403 2484 
Q 997 2584 770 2862 
Q 544 3141 544 3541 
Q 544 4100 942 4425 
Q 1341 4750 2034 4750 
Q 2731 4750 3128 4425 
Q 3525 4100 3525 3541 
Q 3525 3141 3298 2862 
Q 3072 2584 2669 2484 
Q 3125 2378 3379 2068 
Q 3634 1759 3634 1313 
Q 3634 634 3220 271 
Q 2806 -91 2034 -91 
Q 1263 -91 848 271 
Q 434 634 434 1313 
Q 434 1759 690 2068 
Q 947 2378 1403 2484 
z
M 1172 3481 
Q 1172 3119 1398 2916 
Q 1625 2713 2034 2713 
Q 2441 2713 2670 2916 
Q 2900 3119 2900 3481 
Q 2900 3844 2670 4047 
Q 2441 4250 2034 4250 
Q 1625 4250 1398 4047 
Q 1172 3844 1172 3481 
z
" transform="scale(0.015625)"/>
     </defs>
     <use xlink:href="#DejaVuSans-54"/>
     <use xlink:href="#DejaVuSans-68" x="61.083984"/>
     <use xlink:href="#DejaVuSans-65" x="124.462891"/>
     <use xlink:href="#DejaVuSans-20" x="185.986328"/>
     <use xlink:href="#DejaVuSans-6c" x="217.773438"/>
     <use xlink:href="#DejaVuSans-6f" x="245.556641"/>
     <use xlink:href="#DejaVuSans-73" x="306.738281"/>
     <use xlink:href="#DejaVuSans-73" x="358.837891"/>
     <use xlink:href="#DejaVuSans-20" x="410.9375"/>
     <use xlink:href="#DejaVuSans-63" x="442.724609"/>
     <use xlink:href="#DejaVuSans-75" x="497.705078"/>
     <use xlink:href="#DejaVuSans-72" x="561.083984"/>
     <use xlink:href="#DejaVuSans-76" x="602.197266"/>
     <use xlink:href="#DejaVuSans-65" x="661.376953"/>
     <use xlink:href="#DejaVuSans-20" x="722.900391"/>
     <use xlink:href="#DejaVuSans-6f" x="754.6875"/>
     <use xlink:href="#DejaVuSans-6e" x="815.869141"/>
     <use xlink:href="#DejaVuSans-20" x="879.248047"/>
     <use xlink:href="#DejaVuSans-66" x="911.035156"/>
     <use xlink:href="#DejaVuSans-6c" x="946.240234"/>
     <use xlink:href="#DejaVuSans-61" x="974.023438"/>
     <use xlink:href="#DejaVuSans-67" x="1035.302734"/>
     <use xlink:href="#DejaVuSans-5f" x="1098.779297"/>
     <use xlink:href="#DejaVuSans-72" x="1148.779297"/>
     <use xlink:href="#DejaVuSans-65" x="1187.642578"/>
     <use xlink:href="#DejaVuSans-73" x="1249.166016"/>
     <use xlink:href="#DejaVuSans-6e" x="1301.265625"/>
     <use xlink:href="#DejaVuSans-65" x="1364.644531"/>
     <use xlink:href="#DejaVuSans-74" x="1426.167969"/>
     <use xlink:href="#DejaVuSans-2f" x="1465.376953"/>
     <use xlink:href="#DejaVuSans-68" x="1499.068359"/>
     <use xlink:href="#DejaVuSans-6f" x="1562.447266"/>
     <use xlink:href="#DejaVuSans-73" x="1623.628906"/>
     <use xlink:href="#DejaVuSans-74" x="1675.728516"/>
     <use xlink:href="#DejaVuSans-2f" x="1714.9375"/>
     <use xlink:href="#DejaVuSans-38" x="1748.628906"/>
    </g>
   </g>
   <g id="legend_1">
    <g id="patch_7">
     <path d="M 317.418438 94.34075 
L 407.72 94.34075 
Q 409.72 94.34075 409.72 92.34075 
L 409.72 48.472 
Q 409.72 46.472 407.72 46.472 
L 317.418438 46.472 
Q 315.418438 46.472 315.418438 48.472 
L 315.418438 92.34075 
Q 315.418438 94.34075 317.418438 94.34075 
z
" style="fill: #ffffff; opacity: 0.8; stroke: #cccccc; stroke-linejoin: miter"/>
    </g>
    <g id="line2d_15">
     <path d="M 319.418438 54.570438 
L 329.418438 54.570438 
L 339.418438 54.570438 
" style="fill: none; stroke: #0000ff; stroke-width: 1.5; stroke-linecap: square"/>
    </g>
    <g id="text_15">
     <!-- obj_loss -->
     <g transform="translate(347.418438 58.070438) scale(0.1 -0.1)">
      <defs>
       <path id="DejaVuSans-62" d="M 3116 1747 
Q 3116 2381 2855 2742 
Q 2594 3103 2138 3103 
Q 1681 3103 1420 2742 
Q 1159 2381 1159 1747 
Q 1159 1113 1420 752 
Q 1681 391 2138 391 
Q 2594 391 2855 752 
Q 3116 1113 3116 1747 
z
M 1159 2969 
Q 1341 3281 1617 3432 
Q 1894 3584 2278 3584 
Q 2916 3584 3314 3078 
Q 3713 2572 3713 1747 
Q 3713 922 3314 415 
Q 2916 -91 2278 -91 
Q 1894 -91 1617 61 
Q 1341 213 1159 525 
L 1159 0 
L 581 0 
L 581 4863 
L 1159 4863 
L 1159 2969 
z
" transform="scale(0.015625)"/>
       <path id="DejaVuSans-6a" d="M 603 3500 
L 1178 3500 
L 1178 -63 
Q 1178 -731 923 -1031 
Q 669 -1331 103 -1331 
L -116 -1331 
L -116 -844 
L 38 -844 
Q 366 -844 484 -692 
Q 603 -541 603 -63 
L 603 3500 
z
M 603 4863 
L 1178 4863 
L 1178 4134 
L 603 4134 
L 603 4863 
z
" transform="scale(0.015625)"/>
      </defs>
      <use xlink:href="#DejaVuSans-6f"/>
      <use xlink:href="#DejaVuSans-62" x="61.181641"/>
      <use xlink:href="#DejaVuSans-6a" x="124.658203"/>
      <use xlink:href="#DejaVuSans-5f" x="152.441406"/>
      <use xlink:href="#DejaVuSans-6c" x="202.441406"/>
      <use xlink:href="#DejaVuSans-6f" x="230.224609"/>
      <use xlink:href="#DejaVuSans-73" x="291.40625"/>
      <use xlink:href="#DejaVuSans-73" x="343.505859"/>
     </g>
    </g>
    <g id="line2d_16">
     <path d="M 319.418438 69.526688 
L 329.418438 69.526688 
L 339.418438 69.526688 
" style="fill: none; stroke: #008000; stroke-width: 1.5; stroke-linecap: square"/>
    </g>
    <g id="text_16">
     <!-- reg_loss -->
     <g transform="translate(347.418438 73.026688) scale(0.1 -0.1)">
      <use xlink:href="#DejaVuSans-72"/>
      <use xlink:href="#DejaVuSans-65" x="38.863281"/>
      <use xlink:href="#DejaVuSans-67" x="100.386719"/>
      <use xlink:href="#DejaVuSans-5f" x="163.863281"/>
      <use xlink:href="#DejaVuSans-6c" x="213.863281"/>
      <use xlink:href="#DejaVuSans-6f" x="241.646484"/>
      <use xlink:href="#DejaVuSans-73" x="302.828125"/>
      <use xlink:href="#DejaVuSans-73" x="354.927734"/>
     </g>
    </g>
    <g id="line2d_17">
     <path d="M 319.418438 84.482938 
L 329.418438 84.482938 
L 339.418438 84.482938 
" style="fill: none; stroke: #ff0000; stroke-width: 1.5; stroke-linecap: square"/>
    </g>
    <g id="text_17">
     <!-- overall_loss -->
     <g transform="translate(347.418438 87.982938) scale(0.1 -0.1)">
      <use xlink:href="#DejaVuSans-6f"/>
      <use xlink:href="#DejaVuSans-76" x="61.181641"/>
      <use xlink:href="#DejaVuSans-65" x="120.361328"/>
      <use xlink:href="#DejaVuSans-72" x="181.884766"/>
      <use xlink:href="#DejaVuSans-61" x="222.998047"/>
      <use xlink:href="#DejaVuSans-6c" x="284.277344"/>
      <use xlink:href="#DejaVuSans-6c" x="312.060547"/>
      <use xlink:href="#DejaVuSans-5f" x="339.84375"/>
      <use xlink:href="#DejaVuSans-6c" x="389.84375"/>
      <use xlink:href="#DejaVuSans-6f" x="417.626953"/>
      <use xlink:href="#DejaVuSans-73" x="478.808594"/>
      <use xlink:href="#DejaVuSans-73" x="530.908203"/>
     </g>
    </g>
   </g>
  </g>
 </g>
 <defs>
  <clipPath id="p9fdd396db8">
   <rect x="57.6" y="41.472" width="357.12" height="266.112"/>
  </clipPath>
 </defs>
</svg>
