<?xml version="1.0" encoding="utf-8" standalone="no"?>
<!DOCTYPE svg PUBLIC "-//W3C//DTD SVG 1.1//EN"
  "http://www.w3.org/Graphics/SVG/1.1/DTD/svg11.dtd">
<svg xmlns:xlink="http://www.w3.org/1999/xlink" width="576pt" height="432pt" viewBox="0 0 576 432" xmlns="http://www.w3.org/2000/svg" version="1.1">
 <metadata>
  <rdf:RDF xmlns:dc="http://purl.org/dc/elements/1.1/" xmlns:cc="http://creativecommons.org/ns#" xmlns:rdf="http://www.w3.org/1999/02/22-rdf-syntax-ns#">
   <cc:Work>
    <dc:type rdf:resource="http://purl.org/dc/dcmitype/StillImage"/>
    <dc:date>2023-04-13T09:22:59.186093</dc:date>
    <dc:format>image/svg+xml</dc:format>
    <dc:creator>
     <cc:Agent>
      <dc:title>Matplotlib v3.7.1, https://matplotlib.org/</dc:title>
     </cc:Agent>
    </dc:creator>
   </cc:Work>
  </rdf:RDF>
 </metadata>
 <defs>
  <style type="text/css">*{stroke-linejoin: round; stroke-linecap: butt}</style>
 </defs>
 <g id="figure_1">
  <g id="patch_1">
   <path d="M 0 432 
L 576 432 
L 576 0 
L 0 0 
z
" style="fill: #ffffff"/>
  </g>
  <g id="axes_1">
   <g id="patch_2">
    <path d="M 72 384.48 
L 518.4 384.48 
L 518.4 51.84 
L 72 51.84 
z
" style="fill: #ffffff"/>
   </g>
   <g id="matplotlib.axis_1">
    <g id="xtick_1">
     <g id="line2d_1">
      <defs>
       <path id="m691b2530c7" d="M 0 0 
L 0 3.5 
" style="stroke: #000000; stroke-width: 0.8"/>
      </defs>
      <g>
       <use xlink:href="#m691b2530c7" x="92.290909" y="384.48" style="stroke: #000000; stroke-width: 0.8"/>
      </g>
     </g>
     <g id="text_1">
      <!-- 0 -->
      <g transform="translate(89.109659 399.078438) scale(0.1 -0.1)">
       <defs>
        <path id="DejaVuSans-30" d="M 2034 4250 
Q 1547 4250 1301 3770 
Q 1056 3291 1056 2328 
Q 1056 1369 1301 889 
Q 1547 409 2034 409 
Q 2525 409 2770 889 
Q 3016 1369 3016 2328 
Q 3016 3291 2770 3770 
Q 2525 4250 2034 4250 
z
M 2034 4750 
Q 2819 4750 3233 4129 
Q 3647 3509 3647 2328 
Q 3647 1150 3233 529 
Q 2819 -91 2034 -91 
Q 1250 -91 836 529 
Q 422 1150 422 2328 
Q 422 3509 836 4129 
Q 1250 4750 2034 4750 
z
" transform="scale(0.015625)"/>
       </defs>
       <use xlink:href="#DejaVuSans-30"/>
      </g>
     </g>
    </g>
    <g id="xtick_2">
     <g id="line2d_2">
      <g>
       <use xlink:href="#m691b2530c7" x="173.617198" y="384.48" style="stroke: #000000; stroke-width: 0.8"/>
      </g>
     </g>
     <g id="text_2">
      <!-- 100 -->
      <g transform="translate(164.073448 399.078438) scale(0.1 -0.1)">
       <defs>
        <path id="DejaVuSans-31" d="M 794 531 
L 1825 531 
L 1825 4091 
L 703 3866 
L 703 4441 
L 1819 4666 
L 2450 4666 
L 2450 531 
L 3481 531 
L 3481 0 
L 794 0 
L 794 531 
z
" transform="scale(0.015625)"/>
       </defs>
       <use xlink:href="#DejaVuSans-31"/>
       <use xlink:href="#DejaVuSans-30" x="63.623047"/>
       <use xlink:href="#DejaVuSans-30" x="127.246094"/>
      </g>
     </g>
    </g>
    <g id="xtick_3">
     <g id="line2d_3">
      <g>
       <use xlink:href="#m691b2530c7" x="254.943487" y="384.48" style="stroke: #000000; stroke-width: 0.8"/>
      </g>
     </g>
     <g id="text_3">
      <!-- 200 -->
      <g transform="translate(245.399737 399.078438) scale(0.1 -0.1)">
       <defs>
        <path id="DejaVuSans-32" d="M 1228 531 
L 3431 531 
L 3431 0 
L 469 0 
L 469 531 
Q 828 903 1448 1529 
Q 2069 2156 2228 2338 
Q 2531 2678 2651 2914 
Q 2772 3150 2772 3378 
Q 2772 3750 2511 3984 
Q 2250 4219 1831 4219 
Q 1534 4219 1204 4116 
Q 875 4013 500 3803 
L 500 4441 
Q 881 4594 1212 4672 
Q 1544 4750 1819 4750 
Q 2544 4750 2975 4387 
Q 3406 4025 3406 3419 
Q 3406 3131 3298 2873 
Q 3191 2616 2906 2266 
Q 2828 2175 2409 1742 
Q 1991 1309 1228 531 
z
" transform="scale(0.015625)"/>
       </defs>
       <use xlink:href="#DejaVuSans-32"/>
       <use xlink:href="#DejaVuSans-30" x="63.623047"/>
       <use xlink:href="#DejaVuSans-30" x="127.246094"/>
      </g>
     </g>
    </g>
    <g id="xtick_4">
     <g id="line2d_4">
      <g>
       <use xlink:href="#m691b2530c7" x="336.269776" y="384.48" style="stroke: #000000; stroke-width: 0.8"/>
      </g>
     </g>
     <g id="text_4">
      <!-- 300 -->
      <g transform="translate(326.726026 399.078438) scale(0.1 -0.1)">
       <defs>
        <path id="DejaVuSans-33" d="M 2597 2516 
Q 3050 2419 3304 2112 
Q 3559 1806 3559 1356 
Q 3559 666 3084 287 
Q 2609 -91 1734 -91 
Q 1441 -91 1130 -33 
Q 819 25 488 141 
L 488 750 
Q 750 597 1062 519 
Q 1375 441 1716 441 
Q 2309 441 2620 675 
Q 2931 909 2931 1356 
Q 2931 1769 2642 2001 
Q 2353 2234 1838 2234 
L 1294 2234 
L 1294 2753 
L 1863 2753 
Q 2328 2753 2575 2939 
Q 2822 3125 2822 3475 
Q 2822 3834 2567 4026 
Q 2313 4219 1838 4219 
Q 1578 4219 1281 4162 
Q 984 4106 628 3988 
L 628 4550 
Q 988 4650 1302 4700 
Q 1616 4750 1894 4750 
Q 2613 4750 3031 4423 
Q 3450 4097 3450 3541 
Q 3450 3153 3228 2886 
Q 3006 2619 2597 2516 
z
" transform="scale(0.015625)"/>
       </defs>
       <use xlink:href="#DejaVuSans-33"/>
       <use xlink:href="#DejaVuSans-30" x="63.623047"/>
       <use xlink:href="#DejaVuSans-30" x="127.246094"/>
      </g>
     </g>
    </g>
    <g id="xtick_5">
     <g id="line2d_5">
      <g>
       <use xlink:href="#m691b2530c7" x="417.596065" y="384.48" style="stroke: #000000; stroke-width: 0.8"/>
      </g>
     </g>
     <g id="text_5">
      <!-- 400 -->
      <g transform="translate(408.052315 399.078438) scale(0.1 -0.1)">
       <defs>
        <path id="DejaVuSans-34" d="M 2419 4116 
L 825 1625 
L 2419 1625 
L 2419 4116 
z
M 2253 4666 
L 3047 4666 
L 3047 1625 
L 3713 1625 
L 3713 1100 
L 3047 1100 
L 3047 0 
L 2419 0 
L 2419 1100 
L 313 1100 
L 313 1709 
L 2253 4666 
z
" transform="scale(0.015625)"/>
       </defs>
       <use xlink:href="#DejaVuSans-34"/>
       <use xlink:href="#DejaVuSans-30" x="63.623047"/>
       <use xlink:href="#DejaVuSans-30" x="127.246094"/>
      </g>
     </g>
    </g>
    <g id="xtick_6">
     <g id="line2d_6">
      <g>
       <use xlink:href="#m691b2530c7" x="498.922354" y="384.48" style="stroke: #000000; stroke-width: 0.8"/>
      </g>
     </g>
     <g id="text_6">
      <!-- 500 -->
      <g transform="translate(489.378604 399.078438) scale(0.1 -0.1)">
       <defs>
        <path id="DejaVuSans-35" d="M 691 4666 
L 3169 4666 
L 3169 4134 
L 1269 4134 
L 1269 2991 
Q 1406 3038 1543 3061 
Q 1681 3084 1819 3084 
Q 2600 3084 3056 2656 
Q 3513 2228 3513 1497 
Q 3513 744 3044 326 
Q 2575 -91 1722 -91 
Q 1428 -91 1123 -41 
Q 819 9 494 109 
L 494 744 
Q 775 591 1075 516 
Q 1375 441 1709 441 
Q 2250 441 2565 725 
Q 2881 1009 2881 1497 
Q 2881 1984 2565 2268 
Q 2250 2553 1709 2553 
Q 1456 2553 1204 2497 
Q 953 2441 691 2322 
L 691 4666 
z
" transform="scale(0.015625)"/>
       </defs>
       <use xlink:href="#DejaVuSans-35"/>
       <use xlink:href="#DejaVuSans-30" x="63.623047"/>
       <use xlink:href="#DejaVuSans-30" x="127.246094"/>
      </g>
     </g>
    </g>
    <g id="text_7">
     <!-- epoch -->
     <g transform="translate(279.971875 412.756563) scale(0.1 -0.1)">
      <defs>
       <path id="DejaVuSans-65" d="M 3597 1894 
L 3597 1613 
L 953 1613 
Q 991 1019 1311 708 
Q 1631 397 2203 397 
Q 2534 397 2845 478 
Q 3156 559 3463 722 
L 3463 178 
Q 3153 47 2828 -22 
Q 2503 -91 2169 -91 
Q 1331 -91 842 396 
Q 353 884 353 1716 
Q 353 2575 817 3079 
Q 1281 3584 2069 3584 
Q 2775 3584 3186 3129 
Q 3597 2675 3597 1894 
z
M 3022 2063 
Q 3016 2534 2758 2815 
Q 2500 3097 2075 3097 
Q 1594 3097 1305 2825 
Q 1016 2553 972 2059 
L 3022 2063 
z
" transform="scale(0.015625)"/>
       <path id="DejaVuSans-70" d="M 1159 525 
L 1159 -1331 
L 581 -1331 
L 581 3500 
L 1159 3500 
L 1159 2969 
Q 1341 3281 1617 3432 
Q 1894 3584 2278 3584 
Q 2916 3584 3314 3078 
Q 3713 2572 3713 1747 
Q 3713 922 3314 415 
Q 2916 -91 2278 -91 
Q 1894 -91 1617 61 
Q 1341 213 1159 525 
z
M 3116 1747 
Q 3116 2381 2855 2742 
Q 2594 3103 2138 3103 
Q 1681 3103 1420 2742 
Q 1159 2381 1159 1747 
Q 1159 1113 1420 752 
Q 1681 391 2138 391 
Q 2594 391 2855 752 
Q 3116 1113 3116 1747 
z
" transform="scale(0.015625)"/>
       <path id="DejaVuSans-6f" d="M 1959 3097 
Q 1497 3097 1228 2736 
Q 959 2375 959 1747 
Q 959 1119 1226 758 
Q 1494 397 1959 397 
Q 2419 397 2687 759 
Q 2956 1122 2956 1747 
Q 2956 2369 2687 2733 
Q 2419 3097 1959 3097 
z
M 1959 3584 
Q 2709 3584 3137 3096 
Q 3566 2609 3566 1747 
Q 3566 888 3137 398 
Q 2709 -91 1959 -91 
Q 1206 -91 779 398 
Q 353 888 353 1747 
Q 353 2609 779 3096 
Q 1206 3584 1959 3584 
z
" transform="scale(0.015625)"/>
       <path id="DejaVuSans-63" d="M 3122 3366 
L 3122 2828 
Q 2878 2963 2633 3030 
Q 2388 3097 2138 3097 
Q 1578 3097 1268 2742 
Q 959 2388 959 1747 
Q 959 1106 1268 751 
Q 1578 397 2138 397 
Q 2388 397 2633 464 
Q 2878 531 3122 666 
L 3122 134 
Q 2881 22 2623 -34 
Q 2366 -91 2075 -91 
Q 1284 -91 818 406 
Q 353 903 353 1747 
Q 353 2603 823 3093 
Q 1294 3584 2113 3584 
Q 2378 3584 2631 3529 
Q 2884 3475 3122 3366 
z
" transform="scale(0.015625)"/>
       <path id="DejaVuSans-68" d="M 3513 2113 
L 3513 0 
L 2938 0 
L 2938 2094 
Q 2938 2591 2744 2837 
Q 2550 3084 2163 3084 
Q 1697 3084 1428 2787 
Q 1159 2491 1159 1978 
L 1159 0 
L 581 0 
L 581 4863 
L 1159 4863 
L 1159 2956 
Q 1366 3272 1645 3428 
Q 1925 3584 2291 3584 
Q 2894 3584 3203 3211 
Q 3513 2838 3513 2113 
z
" transform="scale(0.015625)"/>
      </defs>
      <use xlink:href="#DejaVuSans-65"/>
      <use xlink:href="#DejaVuSans-70" x="61.523438"/>
      <use xlink:href="#DejaVuSans-6f" x="125"/>
      <use xlink:href="#DejaVuSans-63" x="186.181641"/>
      <use xlink:href="#DejaVuSans-68" x="241.162109"/>
     </g>
    </g>
   </g>
   <g id="matplotlib.axis_2">
    <g id="ytick_1">
     <g id="line2d_7">
      <defs>
       <path id="m911966568d" d="M 0 0 
L -3.5 0 
" style="stroke: #000000; stroke-width: 0.8"/>
      </defs>
      <g>
       <use xlink:href="#m911966568d" x="72" y="384.48" style="stroke: #000000; stroke-width: 0.8"/>
      </g>
     </g>
     <g id="text_8">
      <!-- 0.0 -->
      <g transform="translate(49.096875 388.279219) scale(0.1 -0.1)">
       <defs>
        <path id="DejaVuSans-2e" d="M 684 794 
L 1344 794 
L 1344 0 
L 684 0 
L 684 794 
z
" transform="scale(0.015625)"/>
       </defs>
       <use xlink:href="#DejaVuSans-30"/>
       <use xlink:href="#DejaVuSans-2e" x="63.623047"/>
       <use xlink:href="#DejaVuSans-30" x="95.410156"/>
      </g>
     </g>
    </g>
    <g id="ytick_2">
     <g id="line2d_8">
      <g>
       <use xlink:href="#m911966568d" x="72" y="317.952" style="stroke: #000000; stroke-width: 0.8"/>
      </g>
     </g>
     <g id="text_9">
      <!-- 0.2 -->
      <g transform="translate(49.096875 321.751219) scale(0.1 -0.1)">
       <use xlink:href="#DejaVuSans-30"/>
       <use xlink:href="#DejaVuSans-2e" x="63.623047"/>
       <use xlink:href="#DejaVuSans-32" x="95.410156"/>
      </g>
     </g>
    </g>
    <g id="ytick_3">
     <g id="line2d_9">
      <g>
       <use xlink:href="#m911966568d" x="72" y="251.424" style="stroke: #000000; stroke-width: 0.8"/>
      </g>
     </g>
     <g id="text_10">
      <!-- 0.4 -->
      <g transform="translate(49.096875 255.223219) scale(0.1 -0.1)">
       <use xlink:href="#DejaVuSans-30"/>
       <use xlink:href="#DejaVuSans-2e" x="63.623047"/>
       <use xlink:href="#DejaVuSans-34" x="95.410156"/>
      </g>
     </g>
    </g>
    <g id="ytick_4">
     <g id="line2d_10">
      <g>
       <use xlink:href="#m911966568d" x="72" y="184.896" style="stroke: #000000; stroke-width: 0.8"/>
      </g>
     </g>
     <g id="text_11">
      <!-- 0.6 -->
      <g transform="translate(49.096875 188.695219) scale(0.1 -0.1)">
       <defs>
        <path id="DejaVuSans-36" d="M 2113 2584 
Q 1688 2584 1439 2293 
Q 1191 2003 1191 1497 
Q 1191 994 1439 701 
Q 1688 409 2113 409 
Q 2538 409 2786 701 
Q 3034 994 3034 1497 
Q 3034 2003 2786 2293 
Q 2538 2584 2113 2584 
z
M 3366 4563 
L 3366 3988 
Q 3128 4100 2886 4159 
Q 2644 4219 2406 4219 
Q 1781 4219 1451 3797 
Q 1122 3375 1075 2522 
Q 1259 2794 1537 2939 
Q 1816 3084 2150 3084 
Q 2853 3084 3261 2657 
Q 3669 2231 3669 1497 
Q 3669 778 3244 343 
Q 2819 -91 2113 -91 
Q 1303 -91 875 529 
Q 447 1150 447 2328 
Q 447 3434 972 4092 
Q 1497 4750 2381 4750 
Q 2619 4750 2861 4703 
Q 3103 4656 3366 4563 
z
" transform="scale(0.015625)"/>
       </defs>
       <use xlink:href="#DejaVuSans-30"/>
       <use xlink:href="#DejaVuSans-2e" x="63.623047"/>
       <use xlink:href="#DejaVuSans-36" x="95.410156"/>
      </g>
     </g>
    </g>
    <g id="ytick_5">
     <g id="line2d_11">
      <g>
       <use xlink:href="#m911966568d" x="72" y="118.368" style="stroke: #000000; stroke-width: 0.8"/>
      </g>
     </g>
     <g id="text_12">
      <!-- 0.8 -->
      <g transform="translate(49.096875 122.167219) scale(0.1 -0.1)">
       <defs>
        <path id="DejaVuSans-38" d="M 2034 2216 
Q 1584 2216 1326 1975 
Q 1069 1734 1069 1313 
Q 1069 891 1326 650 
Q 1584 409 2034 409 
Q 2484 409 2743 651 
Q 3003 894 3003 1313 
Q 3003 1734 2745 1975 
Q 2488 2216 2034 2216 
z
M 1403 2484 
Q 997 2584 770 2862 
Q 544 3141 544 3541 
Q 544 4100 942 4425 
Q 1341 4750 2034 4750 
Q 2731 4750 3128 4425 
Q 3525 4100 3525 3541 
Q 3525 3141 3298 2862 
Q 3072 2584 2669 2484 
Q 3125 2378 3379 2068 
Q 3634 1759 3634 1313 
Q 3634 634 3220 271 
Q 2806 -91 2034 -91 
Q 1263 -91 848 271 
Q 434 634 434 1313 
Q 434 1759 690 2068 
Q 947 2378 1403 2484 
z
M 1172 3481 
Q 1172 3119 1398 2916 
Q 1625 2713 2034 2713 
Q 2441 2713 2670 2916 
Q 2900 3119 2900 3481 
Q 2900 3844 2670 4047 
Q 2441 4250 2034 4250 
Q 1625 4250 1398 4047 
Q 1172 3844 1172 3481 
z
" transform="scale(0.015625)"/>
       </defs>
       <use xlink:href="#DejaVuSans-30"/>
       <use xlink:href="#DejaVuSans-2e" x="63.623047"/>
       <use xlink:href="#DejaVuSans-38" x="95.410156"/>
      </g>
     </g>
    </g>
    <g id="ytick_6">
     <g id="line2d_12">
      <g>
       <use xlink:href="#m911966568d" x="72" y="51.84" style="stroke: #000000; stroke-width: 0.8"/>
      </g>
     </g>
     <g id="text_13">
      <!-- 1.0 -->
      <g transform="translate(49.096875 55.639219) scale(0.1 -0.1)">
       <use xlink:href="#DejaVuSans-31"/>
       <use xlink:href="#DejaVuSans-2e" x="63.623047"/>
       <use xlink:href="#DejaVuSans-30" x="95.410156"/>
      </g>
     </g>
    </g>
    <g id="text_14">
     <!-- rate -->
     <g transform="translate(43.017187 228.31625) rotate(-90) scale(0.1 -0.1)">
      <defs>
       <path id="DejaVuSans-72" d="M 2631 2963 
Q 2534 3019 2420 3045 
Q 2306 3072 2169 3072 
Q 1681 3072 1420 2755 
Q 1159 2438 1159 1844 
L 1159 0 
L 581 0 
L 581 3500 
L 1159 3500 
L 1159 2956 
Q 1341 3275 1631 3429 
Q 1922 3584 2338 3584 
Q 2397 3584 2469 3576 
Q 2541 3569 2628 3553 
L 2631 2963 
z
" transform="scale(0.015625)"/>
       <path id="DejaVuSans-61" d="M 2194 1759 
Q 1497 1759 1228 1600 
Q 959 1441 959 1056 
Q 959 750 1161 570 
Q 1363 391 1709 391 
Q 2188 391 2477 730 
Q 2766 1069 2766 1631 
L 2766 1759 
L 2194 1759 
z
M 3341 1997 
L 3341 0 
L 2766 0 
L 2766 531 
Q 2569 213 2275 61 
Q 1981 -91 1556 -91 
Q 1019 -91 701 211 
Q 384 513 384 1019 
Q 384 1609 779 1909 
Q 1175 2209 1959 2209 
L 2766 2209 
L 2766 2266 
Q 2766 2663 2505 2880 
Q 2244 3097 1772 3097 
Q 1472 3097 1187 3025 
Q 903 2953 641 2809 
L 641 3341 
Q 956 3463 1253 3523 
Q 1550 3584 1831 3584 
Q 2591 3584 2966 3190 
Q 3341 2797 3341 1997 
z
" transform="scale(0.015625)"/>
       <path id="DejaVuSans-74" d="M 1172 4494 
L 1172 3500 
L 2356 3500 
L 2356 3053 
L 1172 3053 
L 1172 1153 
Q 1172 725 1289 603 
Q 1406 481 1766 481 
L 2356 481 
L 2356 0 
L 1766 0 
Q 1100 0 847 248 
Q 594 497 594 1153 
L 594 3053 
L 172 3053 
L 172 3500 
L 594 3500 
L 594 4494 
L 1172 4494 
z
" transform="scale(0.015625)"/>
      </defs>
      <use xlink:href="#DejaVuSans-72"/>
      <use xlink:href="#DejaVuSans-61" x="41.113281"/>
      <use xlink:href="#DejaVuSans-74" x="102.392578"/>
      <use xlink:href="#DejaVuSans-65" x="141.601562"/>
     </g>
    </g>
   </g>
   <g id="line2d_13">
    <path d="M 92.290909 374.37889 
L 93.104172 370.606398 
L 93.917435 363.638918 
L 94.730698 303.839998 
L 95.543961 184.895992 
L 96.357224 172.800004 
L 97.170486 164.937591 
L 97.983749 160.457151 
L 98.797012 146.879994 
L 99.610275 167.245719 
L 100.423538 358.683428 
L 101.236801 346.296158 
L 102.050064 301.779448 
L 102.863327 195.131068 
L 103.67659 160.309559 
L 104.489852 162.719993 
L 105.303115 51.84 
L 106.116378 107.280007 
L 106.929641 51.84 
L 107.742904 88.799998 
L 108.556167 351.378793 
L 109.36943 298.897868 
L 110.182693 178.3369 
L 110.995956 174.871239 
L 111.809218 149.675288 
L 112.622481 161.201095 
L 113.435744 150.400001 
L 114.249007 145.661533 
L 115.06227 149.414406 
L 115.875533 140.263286 
L 116.688796 345.931876 
L 117.502059 305.069919 
L 118.315322 155.79 
L 119.128584 113.115794 
L 119.941847 95.227836 
L 120.75511 82.545229 
L 121.568373 67.935488 
L 122.381636 83.519998 
L 123.194899 71.407058 
L 124.008162 86.082346 
L 124.821425 338.564935 
L 125.634688 288.189474 
L 126.44795 135 
L 127.261213 103.015382 
L 128.074476 85.860007 
L 128.887739 97.843399 
L 129.701002 67.311635 
L 130.514265 74.015999 
L 131.327528 70.527636 
L 132.140791 72.122927 
L 132.954054 335.021687 
L 133.767316 275.511725 
L 134.580579 127.108898 
L 135.393842 83.824618 
L 136.207105 73.806785 
L 137.020368 65.845893 
L 137.833631 59.666823 
L 138.646894 62.456169 
L 139.460157 66.461538 
L 140.27342 72.63 
L 141.086682 328.355554 
L 141.899945 261.777064 
L 142.713208 121.869464 
L 143.526471 72.959999 
L 144.339734 74.015999 
L 145.152997 84.774644 
L 145.96626 62.344425 
L 146.779523 58.492794 
L 147.592786 61.81919 
L 148.406048 61.343999 
L 149.219311 330.339373 
L 150.032574 261.207527 
L 150.845837 110.052004 
L 151.6591 66.846318 
L 152.472363 71.407058 
L 153.285626 57.675787 
L 154.098889 61.343999 
L 154.912152 61.343999 
L 155.725414 51.84 
L 156.538677 70.320009 
L 157.35194 326.846604 
L 158.165203 261.130212 
L 158.978466 115.633967 
L 159.791729 72.63 
L 160.604992 64.83375 
L 161.418255 54.948777 
L 162.231518 60.911991 
L 163.04478 54.732525 
L 163.858043 51.84 
L 164.671306 68.145891 
L 165.484569 322.347749 
L 166.297832 259.164098 
L 167.111095 96.333244 
L 167.924358 67.311635 
L 168.737621 62.484482 
L 169.550884 54.522578 
L 170.364146 64.159993 
L 171.177409 54.635294 
L 171.990672 60.517575 
L 172.803935 71.407058 
L 173.617198 320.286318 
L 174.430461 239.328 
L 176.056987 129.772799 
L 176.87025 90.688469 
L 177.683512 70.320009 
L 178.496775 56.525074 
L 179.310038 61.769544 
L 180.123301 61.996939 
L 180.936564 61.696006 
L 181.749827 324.670345 
L 182.56309 295.054525 
L 183.376353 252.402356 
L 184.189616 177.160194 
L 185.002878 82.264381 
L 185.816141 72.63 
L 186.629404 56.918479 
L 187.442667 62.075076 
L 188.25593 57.526154 
L 189.069193 57.205156 
L 189.882456 328.053521 
L 190.695719 301.045546 
L 193.135507 79.209117 
L 193.94877 69.82055 
L 194.762033 59.124082 
L 195.575296 58.769993 
L 196.388559 57.0375 
L 197.201822 51.84 
L 198.015085 319.811741 
L 198.828348 297.579241 
L 200.454873 158.350345 
L 201.268136 75.101541 
L 202.081399 71.123474 
L 202.894662 54.268021 
L 203.707925 54.43875 
L 204.521188 60.750006 
L 205.334451 59.63625 
L 206.147714 326.772937 
L 206.960976 300.881548 
L 207.774239 250.871135 
L 209.400765 85.956921 
L 210.214028 64.716395 
L 211.027291 56.460002 
L 211.840554 56.4923 
L 212.653817 61.481737 
L 213.46708 60.296941 
L 214.280343 324.073219 
L 215.093605 303.522916 
L 215.906868 245.154349 
L 217.533394 109.858612 
L 218.346657 78.867004 
L 219.15992 62.928009 
L 219.973183 61.552122 
L 220.786446 65.25291 
L 221.599709 61.276588 
L 222.412971 328.293561 
L 223.226234 305.43683 
L 224.039497 266.1699 
L 224.85276 191.898948 
L 225.666023 103.298113 
L 226.479286 65.417136 
L 227.292549 65.325397 
L 228.105812 56.731769 
L 228.919075 60.019662 
L 229.732337 51.84 
L 230.5456 327.83324 
L 231.358863 301.448929 
L 232.172126 262.220909 
L 232.985389 188.371348 
L 233.798652 131.605716 
L 234.611915 83.824618 
L 236.238441 56.365706 
L 237.051703 54.087576 
L 237.864966 56.731769 
L 238.678229 321.100777 
L 239.491492 313.125049 
L 240.304755 274.110965 
L 241.931281 119.057417 
L 242.744544 83.147292 
L 243.557807 70.90853 
L 244.371069 64.970536 
L 245.184332 54.13407 
L 245.997595 63.719994 
L 246.810858 324.848197 
L 247.624121 307.796637 
L 248.437384 271.146905 
L 249.250647 216.996915 
L 250.877173 93.897927 
L 251.690435 74.709008 
L 252.503698 70.434787 
L 253.316961 58.917446 
L 254.130224 55.921464 
L 254.943487 323.332942 
L 255.75675 308.669025 
L 256.570013 275.254927 
L 257.383276 246.730309 
L 258.196539 166.807743 
L 259.009801 100.979993 
L 259.823064 89.043155 
L 260.636327 66.198554 
L 261.44959 61.276588 
L 262.262853 63.552675 
L 263.076116 325.094829 
L 263.889379 310.447318 
L 264.702642 284.619127 
L 265.515905 235.641081 
L 267.14243 112.320002 
L 267.955693 68.789809 
L 268.768956 72.205705 
L 269.582219 60.891431 
L 270.395482 59.019277 
L 271.208745 325.281356 
L 272.835271 284.621873 
L 273.648533 247.738774 
L 275.275059 132.84559 
L 276.088322 95.309998 
L 276.901585 70.668684 
L 277.714848 60.53647 
L 278.528111 62.366591 
L 279.341374 324.915207 
L 280.967899 288.453737 
L 283.407688 146.194618 
L 284.220951 95.399992 
L 285.034214 85.739618 
L 285.847477 64.884705 
L 286.66074 59.697634 
L 287.474003 323.257912 
L 288.287265 311.366989 
L 289.100528 296.190506 
L 289.913791 264.111492 
L 291.540317 173.208656 
L 292.35358 108.288006 
L 293.166843 79.893977 
L 293.980106 68.898461 
L 294.793369 68.066346 
L 295.606631 324.655713 
L 297.233157 293.870562 
L 298.04642 265.070766 
L 298.859683 227.515496 
L 299.672946 172.071326 
L 300.486209 137.375995 
L 301.299472 84.153606 
L 302.112735 76.787996 
L 302.925997 73.37785 
L 303.73926 321.536844 
L 304.552523 314.846731 
L 306.179049 276.125744 
L 306.992312 241.511515 
L 307.805575 192.920787 
L 308.618838 133.43094 
L 309.432101 139.089831 
L 310.245363 77.128424 
L 311.058626 77.592769 
L 311.871889 319.788405 
L 312.685152 313.934159 
L 313.498415 296.375352 
L 314.311678 276.263055 
L 315.124941 234.978872 
L 315.938204 214.646199 
L 318.377992 82.427596 
L 319.191255 81.897822 
L 320.004518 320.229241 
L 320.817781 318.140196 
L 322.444307 274.54567 
L 323.25757 247.35447 
L 324.884095 185.16534 
L 325.697358 121.069648 
L 326.510621 117.636919 
L 327.323884 80.23609 
L 328.137147 322.212416 
L 328.95041 316.501796 
L 329.763673 300.772897 
L 330.576936 289.905878 
L 331.390199 259.045345 
L 332.203461 233.453798 
L 333.016724 200.954483 
L 334.64325 124.153046 
L 335.456513 100.18884 
L 336.269776 324.859727 
L 337.083039 315.592852 
L 337.896302 302.557089 
L 338.709565 281.224357 
L 339.522827 270.18427 
L 340.33609 238.005001 
L 341.149353 222.080004 
L 342.775879 146.397566 
L 343.589142 112.320002 
L 344.402405 324.181513 
L 345.215668 319.08119 
L 346.842193 292.654331 
L 347.655456 273.836422 
L 348.468719 258.128371 
L 349.281982 225.742982 
L 350.095245 183.076875 
L 350.908508 165.173095 
L 351.721771 139.989595 
L 352.535034 319.184002 
L 353.348297 314.643977 
L 354.974822 294.302907 
L 355.788085 279.096209 
L 356.601348 256.106792 
L 358.227874 229.687125 
L 359.041137 189.262706 
L 359.8544 141.994768 
L 360.667663 321.580801 
L 361.480925 318.592571 
L 362.294188 306.036539 
L 363.920714 286.22919 
L 364.733977 266.857298 
L 365.54724 241.389054 
L 366.360503 230.791899 
L 367.173766 211.740628 
L 367.987029 176.58 
L 368.800291 323.585755 
L 369.613554 319.140001 
L 370.426817 307.529603 
L 371.24008 298.36508 
L 372.053343 287.843475 
L 372.866606 278.937772 
L 373.679869 258.128371 
L 374.493132 244.889997 
L 375.306395 203.871336 
L 376.119657 198.943739 
L 376.93292 320.765375 
L 377.746183 313.360756 
L 378.559446 304.820204 
L 379.372709 299.515188 
L 380.185972 291.678263 
L 380.999235 276.287997 
L 381.812498 266.275349 
L 382.625761 243.99172 
L 383.439024 230.72193 
L 384.252286 212.829224 
L 385.065549 319.462094 
L 385.878812 314.79652 
L 386.692075 311.566075 
L 387.505338 305.655357 
L 388.318601 295.624111 
L 389.945127 271.411574 
L 390.75839 255.445843 
L 391.571652 244.176536 
L 392.384915 219.261453 
L 393.198178 320.205771 
L 394.011441 319.163174 
L 394.824704 311.096431 
L 395.637967 309.76394 
L 396.45123 295.221596 
L 397.264493 290.431876 
L 398.077756 278.200826 
L 398.891018 273.599997 
L 399.704281 251.249839 
L 400.517544 242.048784 
L 401.330807 322.469333 
L 402.957333 311.670385 
L 403.770596 307.869005 
L 405.397122 292.77924 
L 407.023647 270.473237 
L 407.83691 263.447133 
L 408.650173 244.133264 
L 409.463436 319.869472 
L 410.276699 316.728095 
L 411.089962 311.069793 
L 411.903225 309.211097 
L 412.716488 301.184781 
L 414.343013 288.287459 
L 415.156276 293.261192 
L 415.969539 270.783191 
L 416.782802 262.565827 
L 417.596065 326.520001 
L 418.409328 317.778752 
L 419.222591 310.662524 
L 420.035854 311.699733 
L 421.662379 297.971278 
L 422.475642 289.353441 
L 423.288905 287.059421 
L 424.102168 287.104616 
L 424.915431 259.83738 
L 425.728694 323.031722 
L 426.541957 315.539067 
L 427.35522 310.254546 
L 428.168482 314.846731 
L 428.981745 303.732273 
L 429.795008 301.32 
L 430.608271 297.464899 
L 431.421534 288.479115 
L 432.234797 285.353277 
L 433.04806 275.524167 
L 433.861323 318.941262 
L 434.674586 316.932416 
L 435.487848 317.165204 
L 436.301111 311.033847 
L 437.114374 312.102293 
L 437.927637 299.448233 
L 438.7409 297.704349 
L 439.554163 293.003998 
L 440.367426 284.371202 
L 441.180689 278.890951 
L 441.993952 321.670958 
L 442.807214 318.618946 
L 443.620477 314.080001 
L 444.43374 315.257431 
L 445.247003 311.473256 
L 446.060266 305.643303 
L 446.873529 302.797802 
L 447.686792 293.049114 
L 448.500055 297.841828 
L 449.313318 292.650812 
L 450.12658 323.661494 
L 450.939843 315.569922 
L 451.753106 317.244253 
L 452.566369 316.660193 
L 453.379632 310.130856 
L 454.192895 305.919283 
L 455.006158 303.567566 
L 455.819421 299.057147 
L 457.445946 288.383996 
L 458.259209 317.951999 
L 459.072472 320.084307 
L 459.885735 318.304933 
L 460.698998 311.928888 
L 461.512261 313.060235 
L 462.325524 310.275692 
L 465.578575 296.275633 
L 466.391838 322.33846 
L 467.205101 320.041887 
L 468.018364 321.14052 
L 468.831627 318.132538 
L 469.64489 316.651172 
L 470.458153 309.948632 
L 471.271416 313.857969 
L 472.084678 305.457976 
L 473.711204 296.296917 
L 474.524467 315.852817 
L 475.33773 320.301034 
L 476.150993 316.469726 
L 476.964256 316.348916 
L 477.777519 310.714644 
L 478.590782 309.565324 
L 479.404044 308.740431 
L 480.217307 305.303713 
L 481.03057 304.390114 
L 481.843833 303.975529 
L 482.657096 323.063198 
L 483.470359 325.018446 
L 484.283622 313.516798 
L 485.096885 316.801916 
L 485.910148 312.084667 
L 486.72341 312.415955 
L 487.536673 310.842136 
L 488.349936 315.809079 
L 489.163199 307.353689 
L 489.976462 304.261349 
L 490.789725 323.366118 
L 491.602988 318.122148 
L 492.416251 325.353451 
L 493.229514 317.595284 
L 494.042776 312.385184 
L 494.856039 311.686206 
L 495.669302 312.595933 
L 496.482565 313.980177 
L 497.295828 306.181662 
L 498.109091 302.494946 
L 498.109091 302.494946 
" clip-path="url(#pa3d01653ac)" style="fill: none; stroke: #0000ff; stroke-width: 1.5; stroke-linecap: square"/>
   </g>
   <g id="line2d_14">
    <path d="M 92.290909 222.805807 
L 93.104172 226.522456 
L 93.917435 289.705478 
L 94.730698 325.013633 
L 96.357224 332.446927 
L 97.170486 323.155308 
L 97.983749 323.155308 
L 98.797012 328.730278 
L 99.610275 325.013633 
L 100.423538 278.555529 
L 101.236801 287.847153 
L 102.050064 300.855416 
L 102.863327 315.722009 
L 103.67659 326.871958 
L 104.489852 362.180111 
L 105.303115 369.613408 
L 106.116378 375.18838 
L 106.929641 369.613408 
L 107.742904 354.746817 
L 108.556167 271.12223 
L 110.182693 302.713741 
L 111.809218 295.280442 
L 112.622481 293.422127 
L 113.435744 278.555529 
L 114.249007 280.413854 
L 115.06227 285.988828 
L 115.875533 276.697205 
L 116.688796 219.089157 
L 117.502059 217.230833 
L 118.315322 241.389054 
L 119.128584 269.263916 
L 119.941847 272.980555 
L 120.75511 274.83888 
L 121.568373 274.83888 
L 122.381636 278.555529 
L 123.194899 265.547266 
L 124.008162 271.12223 
L 124.821425 209.797534 
L 125.634688 220.947482 
L 126.44795 222.805807 
L 127.261213 241.389054 
L 128.887739 233.955755 
L 129.701002 232.097431 
L 130.514265 228.380781 
L 131.327528 228.380781 
L 132.140791 241.389054 
L 132.954054 174.489393 
L 133.767316 172.631059 
L 134.580579 187.497657 
L 135.393842 209.797534 
L 136.207105 200.50592 
L 137.833631 230.239106 
L 138.646894 215.372518 
L 139.460157 222.805807 
L 140.27342 217.230833 
L 141.086682 155.906146 
L 141.899945 146.614532 
L 142.713208 161.48111 
L 143.526471 165.19776 
L 144.339734 202.364255 
L 145.152997 215.372518 
L 145.96626 213.514183 
L 146.779523 202.364255 
L 147.592786 204.222569 
L 148.406048 194.930956 
L 149.219311 152.189496 
L 150.032574 150.331182 
L 150.845837 139.181233 
L 151.6591 148.472847 
L 152.472363 176.347708 
L 153.285626 176.347708 
L 154.098889 194.930956 
L 154.912152 194.930956 
L 155.725414 181.922672 
L 156.538677 194.930956 
L 157.35194 148.472847 
L 158.165203 157.764461 
L 158.978466 165.19776 
L 159.791729 133.606249 
L 160.604992 155.906146 
L 161.418255 187.497657 
L 162.231518 185.639322 
L 163.04478 172.631059 
L 163.858043 185.639322 
L 164.671306 204.222569 
L 165.484569 111.306372 
L 166.297832 131.747934 
L 167.111095 131.747934 
L 167.924358 155.906146 
L 168.737621 159.622795 
L 169.550884 155.906146 
L 170.364146 191.214306 
L 171.177409 165.19776 
L 171.990672 176.347708 
L 172.803935 206.080884 
L 173.617198 118.739671 
L 174.430461 116.881336 
L 175.243724 111.306372 
L 176.87025 159.622795 
L 177.683512 131.747934 
L 178.496775 124.314635 
L 179.310038 142.897883 
L 180.123301 148.472847 
L 180.936564 141.039548 
L 181.749827 113.164687 
L 182.56309 92.723125 
L 183.376353 133.606249 
L 184.189616 135.464584 
L 185.002878 107.589722 
L 185.816141 133.606249 
L 186.629404 144.756197 
L 187.442667 150.331182 
L 188.25593 170.772744 
L 189.069193 157.764461 
L 189.882456 118.739671 
L 190.695719 102.014758 
L 191.508982 92.723125 
L 192.322244 129.8896 
L 193.135507 115.023021 
L 193.94877 124.314635 
L 194.762033 135.464584 
L 195.575296 122.45632 
L 196.388559 150.331182 
L 197.201822 137.322898 
L 198.015085 100.156423 
L 198.828348 103.873073 
L 199.64161 90.86481 
L 200.454873 128.031285 
L 201.268136 137.322898 
L 202.081399 142.897883 
L 202.894662 131.747934 
L 203.707925 148.472847 
L 204.521188 181.922672 
L 206.147714 124.314635 
L 206.960976 118.739671 
L 207.774239 115.023021 
L 208.587502 115.023021 
L 209.400765 124.314635 
L 210.214028 107.589722 
L 211.027291 120.597986 
L 211.840554 122.45632 
L 212.653817 135.464584 
L 213.46708 170.772744 
L 214.280343 105.731388 
L 215.093605 111.306372 
L 215.906868 87.14816 
L 216.720131 122.45632 
L 217.533394 120.597986 
L 218.346657 111.306372 
L 219.15992 115.023021 
L 219.973183 137.322898 
L 220.786446 163.339445 
L 221.599709 129.8896 
L 222.412971 128.031285 
L 223.226234 116.881336 
L 224.039497 128.031285 
L 224.85276 118.739671 
L 225.666023 100.156423 
L 226.479286 122.45632 
L 227.292549 120.597986 
L 228.105812 135.464584 
L 228.919075 163.339445 
L 229.732337 128.031285 
L 230.5456 137.322898 
L 231.358863 85.289826 
L 232.172126 98.298109 
L 232.985389 90.86481 
L 234.611915 122.45632 
L 235.425178 124.314635 
L 236.238441 115.023021 
L 237.051703 111.306372 
L 237.864966 135.464584 
L 238.678229 92.723125 
L 239.491492 131.747934 
L 240.304755 116.881336 
L 241.118018 115.023021 
L 241.931281 98.298109 
L 242.744544 98.298109 
L 243.557807 109.448037 
L 245.184332 116.881336 
L 245.997595 133.606249 
L 246.810858 111.306372 
L 247.624121 109.448037 
L 248.437384 98.298109 
L 249.250647 116.881336 
L 250.06391 124.314635 
L 250.877173 102.014758 
L 251.690435 107.589722 
L 252.503698 102.014758 
L 253.316961 128.031285 
L 254.130224 85.289826 
L 254.943487 105.731388 
L 255.75675 111.306372 
L 256.570013 98.298109 
L 257.383276 133.606249 
L 258.196539 120.597986 
L 259.009801 105.731388 
L 259.823064 133.606249 
L 260.636327 137.322898 
L 261.44959 129.8896 
L 262.262853 129.8896 
L 263.076116 118.739671 
L 263.889379 113.164687 
L 264.702642 115.023021 
L 266.329167 100.156423 
L 267.14243 100.156423 
L 267.955693 107.589722 
L 268.768956 128.031285 
L 269.582219 118.739671 
L 270.395482 131.747934 
L 271.208745 111.306372 
L 272.022008 96.439774 
L 272.835271 103.873073 
L 273.648533 122.45632 
L 274.461796 107.589722 
L 275.275059 113.164687 
L 276.088322 100.156423 
L 276.901585 105.731388 
L 277.714848 107.589722 
L 278.528111 100.156423 
L 279.341374 120.597986 
L 280.154637 90.86481 
L 280.967899 100.156423 
L 281.781162 87.14816 
L 282.594425 100.156423 
L 283.407688 107.589722 
L 284.220951 113.164687 
L 285.034214 122.45632 
L 285.847477 111.306372 
L 286.66074 154.047831 
L 287.474003 105.731388 
L 288.287265 103.873073 
L 289.100528 120.597986 
L 289.913791 109.448037 
L 290.727054 105.731388 
L 291.540317 122.45632 
L 292.35358 129.8896 
L 293.166843 102.014758 
L 293.980106 109.448037 
L 294.793369 94.581459 
L 295.606631 122.45632 
L 296.419894 96.439774 
L 297.233157 107.589722 
L 298.04642 98.298109 
L 298.859683 103.873073 
L 299.672946 89.006475 
L 300.486209 94.581459 
L 301.299472 90.86481 
L 302.112735 109.448037 
L 302.925997 142.897883 
L 303.73926 103.873073 
L 304.552523 109.448037 
L 305.365786 98.298109 
L 306.179049 118.739671 
L 306.992312 105.731388 
L 307.805575 109.448037 
L 308.618838 87.14816 
L 309.432101 133.606249 
L 310.245363 90.86481 
L 311.058626 118.739671 
L 311.871889 96.439774 
L 313.498415 111.306372 
L 314.311678 107.589722 
L 315.124941 87.14816 
L 315.938204 115.023021 
L 317.564729 129.8896 
L 318.377992 90.86481 
L 319.191255 103.873073 
L 320.004518 90.86481 
L 320.817781 122.45632 
L 321.631044 94.581459 
L 322.444307 96.439774 
L 323.25757 96.439774 
L 324.070833 113.164687 
L 324.884095 109.448037 
L 325.697358 94.581459 
L 326.510621 113.164687 
L 327.323884 105.731388 
L 328.137147 102.014758 
L 328.95041 105.731388 
L 329.763673 100.156423 
L 330.576936 115.023021 
L 331.390199 90.86481 
L 332.203461 90.86481 
L 333.016724 116.881336 
L 333.829987 102.014758 
L 334.64325 116.881336 
L 335.456513 111.306372 
L 336.269776 115.023021 
L 337.083039 113.164687 
L 337.896302 107.589722 
L 338.709565 90.86481 
L 339.522827 115.023021 
L 340.33609 96.439774 
L 341.149353 115.023021 
L 341.962616 115.023021 
L 342.775879 122.45632 
L 343.589142 83.431511 
L 345.215668 126.17297 
L 346.028931 105.731388 
L 346.842193 103.873073 
L 347.655456 94.581459 
L 348.468719 111.306372 
L 349.281982 92.723125 
L 350.095245 96.439774 
L 350.908508 107.589722 
L 351.721771 111.306372 
L 352.535034 89.006475 
L 353.348297 102.014758 
L 354.161559 100.156423 
L 354.974822 103.873073 
L 355.788085 111.306372 
L 356.601348 89.006475 
L 358.227874 122.45632 
L 359.041137 102.014758 
L 359.8544 94.581459 
L 360.667663 94.581459 
L 361.480925 116.881336 
L 362.294188 90.86481 
L 363.107451 98.298109 
L 363.920714 100.156423 
L 364.733977 92.723125 
L 365.54724 98.298109 
L 366.360503 113.164687 
L 367.173766 109.448037 
L 367.987029 115.023021 
L 368.800291 111.306372 
L 369.613554 118.739671 
L 370.426817 90.86481 
L 371.24008 100.156423 
L 372.053343 111.306372 
L 372.866606 115.023021 
L 373.679869 111.306372 
L 374.493132 122.45632 
L 375.306395 90.86481 
L 376.119657 124.314635 
L 376.93292 98.298109 
L 377.746183 90.86481 
L 378.559446 77.856527 
L 379.372709 100.156423 
L 380.185972 98.298109 
L 380.999235 85.289826 
L 381.812498 94.581459 
L 382.625761 96.439774 
L 383.439024 100.156423 
L 384.252286 85.289826 
L 385.065549 96.439774 
L 385.878812 89.006475 
L 386.692075 100.156423 
L 387.505338 105.731388 
L 388.318601 94.581459 
L 389.131864 98.298109 
L 389.945127 96.439774 
L 390.75839 98.298109 
L 391.571652 103.873073 
L 392.384915 105.731388 
L 393.198178 98.298109 
L 394.011441 103.873073 
L 394.824704 102.014758 
L 395.637967 113.164687 
L 396.45123 85.289826 
L 397.264493 107.589722 
L 398.077756 98.298109 
L 398.891018 113.164687 
L 399.704281 100.156423 
L 400.517544 90.86481 
L 401.330807 103.873073 
L 402.14407 96.439774 
L 402.957333 100.156423 
L 403.770596 96.439774 
L 405.397122 100.156423 
L 406.210384 94.581459 
L 407.023647 90.86481 
L 407.83691 103.873073 
L 408.650173 98.298109 
L 409.463436 96.439774 
L 410.276699 96.439774 
L 411.089962 87.14816 
L 411.903225 96.439774 
L 412.716488 98.298109 
L 413.52975 98.298109 
L 414.343013 96.439774 
L 415.156276 137.322898 
L 415.969539 109.448037 
L 416.782802 103.873073 
L 417.596065 128.031285 
L 418.409328 98.298109 
L 419.222591 87.14816 
L 420.035854 107.589722 
L 420.849116 98.298109 
L 421.662379 96.439774 
L 422.475642 92.723125 
L 423.288905 102.014758 
L 424.102168 129.8896 
L 424.915431 87.14816 
L 425.728694 105.731388 
L 426.541957 87.14816 
L 427.35522 83.431511 
L 428.168482 109.448037 
L 428.981745 89.006475 
L 429.795008 109.448037 
L 430.608271 90.86481 
L 431.421534 92.723125 
L 432.234797 107.589722 
L 433.04806 103.873073 
L 433.861323 89.006475 
L 434.674586 89.006475 
L 435.487848 98.298109 
L 436.301111 96.439774 
L 437.114374 113.164687 
L 437.927637 89.006475 
L 438.7409 105.731388 
L 440.367426 90.86481 
L 441.180689 100.156423 
L 441.993952 102.014758 
L 442.807214 90.86481 
L 443.620477 87.14816 
L 444.43374 107.589722 
L 445.247003 103.873073 
L 446.060266 96.439774 
L 446.873529 102.014758 
L 447.686792 102.014758 
L 448.500055 129.8896 
L 449.313318 118.739671 
L 450.12658 111.306372 
L 450.939843 83.431511 
L 451.753106 102.014758 
L 452.566369 111.306372 
L 453.379632 98.298109 
L 454.192895 90.86481 
L 455.006158 100.156423 
L 455.819421 103.873073 
L 456.632684 90.86481 
L 457.445946 94.581459 
L 458.259209 89.006475 
L 459.072472 103.873073 
L 459.885735 105.731388 
L 460.698998 89.006475 
L 461.512261 113.164687 
L 462.325524 115.023021 
L 463.138787 100.156423 
L 464.765312 103.873073 
L 465.578575 100.156423 
L 466.391838 100.156423 
L 467.205101 109.448037 
L 468.018364 111.306372 
L 468.831627 111.306372 
L 469.64489 113.164687 
L 470.458153 107.589722 
L 471.271416 128.031285 
L 472.084678 109.448037 
L 472.897941 103.873073 
L 473.711204 90.86481 
L 474.524467 68.564913 
L 475.33773 100.156423 
L 476.150993 94.581459 
L 476.964256 100.156423 
L 477.777519 89.006475 
L 478.590782 89.006475 
L 479.404044 109.448037 
L 480.217307 89.006475 
L 481.03057 105.731388 
L 481.843833 116.881336 
L 482.657096 107.589722 
L 483.470359 128.031285 
L 484.283622 87.14816 
L 485.096885 100.156423 
L 485.910148 100.156423 
L 486.72341 103.873073 
L 487.536673 115.023021 
L 488.349936 122.45632 
L 489.163199 111.306372 
L 489.976462 105.731388 
L 490.789725 107.589722 
L 491.602988 94.581459 
L 492.416251 126.17297 
L 493.229514 105.731388 
L 494.042776 90.86481 
L 494.856039 90.86481 
L 495.669302 100.156423 
L 496.482565 120.597986 
L 497.295828 100.156423 
L 498.109091 92.723125 
L 498.109091 92.723125 
" clip-path="url(#pa3d01653ac)" style="fill: none; stroke: #008000; stroke-width: 1.5; stroke-linecap: square"/>
   </g>
   <g id="patch_3">
    <path d="M 72 384.48 
L 72 51.84 
" style="fill: none; stroke: #000000; stroke-width: 0.8; stroke-linejoin: miter; stroke-linecap: square"/>
   </g>
   <g id="patch_4">
    <path d="M 518.4 384.48 
L 518.4 51.84 
" style="fill: none; stroke: #000000; stroke-width: 0.8; stroke-linejoin: miter; stroke-linecap: square"/>
   </g>
   <g id="patch_5">
    <path d="M 72 384.48 
L 518.4 384.48 
" style="fill: none; stroke: #000000; stroke-width: 0.8; stroke-linejoin: miter; stroke-linecap: square"/>
   </g>
   <g id="patch_6">
    <path d="M 72 51.84 
L 518.4 51.84 
" style="fill: none; stroke: #000000; stroke-width: 0.8; stroke-linejoin: miter; stroke-linecap: square"/>
   </g>
   <g id="legend_1">
    <g id="patch_7">
     <path d="M 79 89.19625 
L 156.107812 89.19625 
Q 158.107812 89.19625 158.107812 87.19625 
L 158.107812 58.84 
Q 158.107812 56.84 156.107812 56.84 
L 79 56.84 
Q 77 56.84 77 58.84 
L 77 87.19625 
Q 77 89.19625 79 89.19625 
z
" style="fill: #ffffff; opacity: 0.8; stroke: #cccccc; stroke-linejoin: miter"/>
    </g>
    <g id="line2d_15">
     <path d="M 81 64.938437 
L 91 64.938437 
L 101 64.938437 
" style="fill: none; stroke: #0000ff; stroke-width: 1.5; stroke-linecap: square"/>
    </g>
    <g id="text_15">
     <!-- precision -->
     <g transform="translate(109 68.438437) scale(0.1 -0.1)">
      <defs>
       <path id="DejaVuSans-69" d="M 603 3500 
L 1178 3500 
L 1178 0 
L 603 0 
L 603 3500 
z
M 603 4863 
L 1178 4863 
L 1178 4134 
L 603 4134 
L 603 4863 
z
" transform="scale(0.015625)"/>
       <path id="DejaVuSans-73" d="M 2834 3397 
L 2834 2853 
Q 2591 2978 2328 3040 
Q 2066 3103 1784 3103 
Q 1356 3103 1142 2972 
Q 928 2841 928 2578 
Q 928 2378 1081 2264 
Q 1234 2150 1697 2047 
L 1894 2003 
Q 2506 1872 2764 1633 
Q 3022 1394 3022 966 
Q 3022 478 2636 193 
Q 2250 -91 1575 -91 
Q 1294 -91 989 -36 
Q 684 19 347 128 
L 347 722 
Q 666 556 975 473 
Q 1284 391 1588 391 
Q 1994 391 2212 530 
Q 2431 669 2431 922 
Q 2431 1156 2273 1281 
Q 2116 1406 1581 1522 
L 1381 1569 
Q 847 1681 609 1914 
Q 372 2147 372 2553 
Q 372 3047 722 3315 
Q 1072 3584 1716 3584 
Q 2034 3584 2315 3537 
Q 2597 3491 2834 3397 
z
" transform="scale(0.015625)"/>
       <path id="DejaVuSans-6e" d="M 3513 2113 
L 3513 0 
L 2938 0 
L 2938 2094 
Q 2938 2591 2744 2837 
Q 2550 3084 2163 3084 
Q 1697 3084 1428 2787 
Q 1159 2491 1159 1978 
L 1159 0 
L 581 0 
L 581 3500 
L 1159 3500 
L 1159 2956 
Q 1366 3272 1645 3428 
Q 1925 3584 2291 3584 
Q 2894 3584 3203 3211 
Q 3513 2838 3513 2113 
z
" transform="scale(0.015625)"/>
      </defs>
      <use xlink:href="#DejaVuSans-70"/>
      <use xlink:href="#DejaVuSans-72" x="63.476562"/>
      <use xlink:href="#DejaVuSans-65" x="102.339844"/>
      <use xlink:href="#DejaVuSans-63" x="163.863281"/>
      <use xlink:href="#DejaVuSans-69" x="218.84375"/>
      <use xlink:href="#DejaVuSans-73" x="246.626953"/>
      <use xlink:href="#DejaVuSans-69" x="298.726562"/>
      <use xlink:href="#DejaVuSans-6f" x="326.509766"/>
      <use xlink:href="#DejaVuSans-6e" x="387.691406"/>
     </g>
    </g>
    <g id="line2d_16">
     <path d="M 81 79.616562 
L 91 79.616562 
L 101 79.616562 
" style="fill: none; stroke: #008000; stroke-width: 1.5; stroke-linecap: square"/>
    </g>
    <g id="text_16">
     <!-- recall -->
     <g transform="translate(109 83.116562) scale(0.1 -0.1)">
      <defs>
       <path id="DejaVuSans-6c" d="M 603 4863 
L 1178 4863 
L 1178 0 
L 603 0 
L 603 4863 
z
" transform="scale(0.015625)"/>
      </defs>
      <use xlink:href="#DejaVuSans-72"/>
      <use xlink:href="#DejaVuSans-65" x="38.863281"/>
      <use xlink:href="#DejaVuSans-63" x="100.386719"/>
      <use xlink:href="#DejaVuSans-61" x="155.367188"/>
      <use xlink:href="#DejaVuSans-6c" x="216.646484"/>
      <use xlink:href="#DejaVuSans-6c" x="244.429688"/>
     </g>
    </g>
   </g>
  </g>
  <g id="axes_2">
   <g id="matplotlib.axis_3">
    <g id="ytick_7">
     <g id="line2d_17">
      <defs>
       <path id="m589404764e" d="M 0 0 
L 3.5 0 
" style="stroke: #000000; stroke-width: 0.8"/>
      </defs>
      <g>
       <use xlink:href="#m589404764e" x="518.4" y="351.600854" style="stroke: #000000; stroke-width: 0.8"/>
      </g>
     </g>
     <g id="text_17">
      <!-- 0.2 -->
      <g transform="translate(525.4 355.400073) scale(0.1 -0.1)">
       <use xlink:href="#DejaVuSans-30"/>
       <use xlink:href="#DejaVuSans-2e" x="63.623047"/>
       <use xlink:href="#DejaVuSans-32" x="95.410156"/>
      </g>
     </g>
    </g>
    <g id="ytick_8">
     <g id="line2d_18">
      <g>
       <use xlink:href="#m589404764e" x="518.4" y="312.636266" style="stroke: #000000; stroke-width: 0.8"/>
      </g>
     </g>
     <g id="text_18">
      <!-- 0.3 -->
      <g transform="translate(525.4 316.435485) scale(0.1 -0.1)">
       <use xlink:href="#DejaVuSans-30"/>
       <use xlink:href="#DejaVuSans-2e" x="63.623047"/>
       <use xlink:href="#DejaVuSans-33" x="95.410156"/>
      </g>
     </g>
    </g>
    <g id="ytick_9">
     <g id="line2d_19">
      <g>
       <use xlink:href="#m589404764e" x="518.4" y="273.671678" style="stroke: #000000; stroke-width: 0.8"/>
      </g>
     </g>
     <g id="text_19">
      <!-- 0.4 -->
      <g transform="translate(525.4 277.470897) scale(0.1 -0.1)">
       <use xlink:href="#DejaVuSans-30"/>
       <use xlink:href="#DejaVuSans-2e" x="63.623047"/>
       <use xlink:href="#DejaVuSans-34" x="95.410156"/>
      </g>
     </g>
    </g>
    <g id="ytick_10">
     <g id="line2d_20">
      <g>
       <use xlink:href="#m589404764e" x="518.4" y="234.707091" style="stroke: #000000; stroke-width: 0.8"/>
      </g>
     </g>
     <g id="text_20">
      <!-- 0.5 -->
      <g transform="translate(525.4 238.506309) scale(0.1 -0.1)">
       <use xlink:href="#DejaVuSans-30"/>
       <use xlink:href="#DejaVuSans-2e" x="63.623047"/>
       <use xlink:href="#DejaVuSans-35" x="95.410156"/>
      </g>
     </g>
    </g>
    <g id="ytick_11">
     <g id="line2d_21">
      <g>
       <use xlink:href="#m589404764e" x="518.4" y="195.742503" style="stroke: #000000; stroke-width: 0.8"/>
      </g>
     </g>
     <g id="text_21">
      <!-- 0.6 -->
      <g transform="translate(525.4 199.541722) scale(0.1 -0.1)">
       <use xlink:href="#DejaVuSans-30"/>
       <use xlink:href="#DejaVuSans-2e" x="63.623047"/>
       <use xlink:href="#DejaVuSans-36" x="95.410156"/>
      </g>
     </g>
    </g>
    <g id="ytick_12">
     <g id="line2d_22">
      <g>
       <use xlink:href="#m589404764e" x="518.4" y="156.777915" style="stroke: #000000; stroke-width: 0.8"/>
      </g>
     </g>
     <g id="text_22">
      <!-- 0.7 -->
      <g transform="translate(525.4 160.577134) scale(0.1 -0.1)">
       <defs>
        <path id="DejaVuSans-37" d="M 525 4666 
L 3525 4666 
L 3525 4397 
L 1831 0 
L 1172 0 
L 2766 4134 
L 525 4134 
L 525 4666 
z
" transform="scale(0.015625)"/>
       </defs>
       <use xlink:href="#DejaVuSans-30"/>
       <use xlink:href="#DejaVuSans-2e" x="63.623047"/>
       <use xlink:href="#DejaVuSans-37" x="95.410156"/>
      </g>
     </g>
    </g>
    <g id="ytick_13">
     <g id="line2d_23">
      <g>
       <use xlink:href="#m589404764e" x="518.4" y="117.813328" style="stroke: #000000; stroke-width: 0.8"/>
      </g>
     </g>
     <g id="text_23">
      <!-- 0.8 -->
      <g transform="translate(525.4 121.612546) scale(0.1 -0.1)">
       <use xlink:href="#DejaVuSans-30"/>
       <use xlink:href="#DejaVuSans-2e" x="63.623047"/>
       <use xlink:href="#DejaVuSans-38" x="95.410156"/>
      </g>
     </g>
    </g>
    <g id="ytick_14">
     <g id="line2d_24">
      <g>
       <use xlink:href="#m589404764e" x="518.4" y="78.84874" style="stroke: #000000; stroke-width: 0.8"/>
      </g>
     </g>
     <g id="text_24">
      <!-- 0.9 -->
      <g transform="translate(525.4 82.647959) scale(0.1 -0.1)">
       <defs>
        <path id="DejaVuSans-39" d="M 703 97 
L 703 672 
Q 941 559 1184 500 
Q 1428 441 1663 441 
Q 2288 441 2617 861 
Q 2947 1281 2994 2138 
Q 2813 1869 2534 1725 
Q 2256 1581 1919 1581 
Q 1219 1581 811 2004 
Q 403 2428 403 3163 
Q 403 3881 828 4315 
Q 1253 4750 1959 4750 
Q 2769 4750 3195 4129 
Q 3622 3509 3622 2328 
Q 3622 1225 3098 567 
Q 2575 -91 1691 -91 
Q 1453 -91 1209 -44 
Q 966 3 703 97 
z
M 1959 2075 
Q 2384 2075 2632 2365 
Q 2881 2656 2881 3163 
Q 2881 3666 2632 3958 
Q 2384 4250 1959 4250 
Q 1534 4250 1286 3958 
Q 1038 3666 1038 3163 
Q 1038 2656 1286 2365 
Q 1534 2075 1959 2075 
z
" transform="scale(0.015625)"/>
       </defs>
       <use xlink:href="#DejaVuSans-30"/>
       <use xlink:href="#DejaVuSans-2e" x="63.623047"/>
       <use xlink:href="#DejaVuSans-39" x="95.410156"/>
      </g>
     </g>
    </g>
    <g id="text_25">
     <!-- loss -->
     <g transform="translate(552.901563 227.817812) rotate(-90) scale(0.1 -0.1)">
      <use xlink:href="#DejaVuSans-6c"/>
      <use xlink:href="#DejaVuSans-6f" x="27.783203"/>
      <use xlink:href="#DejaVuSans-73" x="88.964844"/>
      <use xlink:href="#DejaVuSans-73" x="141.064453"/>
     </g>
    </g>
   </g>
   <g id="line2d_25">
    <path d="M 92.290909 66.96 
L 93.104172 132.352081 
L 93.917435 216.728592 
L 94.730698 283.755738 
L 95.543961 319.582469 
L 96.357224 334.310763 
L 97.170486 337.530311 
L 97.983749 339.455099 
L 98.797012 339.503052 
L 99.610275 337.155603 
L 100.423538 204.048995 
L 101.236801 260.487313 
L 102.050064 305.034328 
L 102.863327 325.868095 
L 103.67659 334.798668 
L 104.489852 333.94916 
L 105.303115 336.016809 
L 106.116378 334.546006 
L 107.742904 336.956359 
L 108.556167 234.656879 
L 109.36943 287.911311 
L 110.182693 323.446223 
L 110.995956 339.443783 
L 111.809218 344.942284 
L 112.622481 348.371632 
L 113.435744 347.045095 
L 114.249007 349.063571 
L 115.06227 349.473313 
L 115.875533 350.617937 
L 116.688796 234.34453 
L 117.502059 291.405096 
L 118.315322 329.286145 
L 119.128584 347.746353 
L 119.941847 353.879608 
L 120.75511 355.204253 
L 121.568373 356.83148 
L 122.381636 354.486342 
L 123.194899 358.195728 
L 124.008162 355.660252 
L 124.821425 245.059294 
L 125.634688 296.231608 
L 126.44795 334.116268 
L 127.261213 351.059316 
L 128.074476 358.893532 
L 128.887739 358.801573 
L 129.701002 361.218139 
L 130.514265 360.995077 
L 131.327528 359.750012 
L 132.140791 360.132616 
L 132.954054 246.059698 
L 133.767316 299.015762 
L 134.580579 337.256852 
L 135.393842 354.465463 
L 136.207105 362.004713 
L 137.020368 363.822139 
L 137.833631 363.20363 
L 138.646894 364.394895 
L 139.460157 362.705367 
L 140.27342 363.189312 
L 141.086682 249.138039 
L 141.899945 302.94645 
L 142.713208 339.745007 
L 143.526471 358.184272 
L 144.339734 362.299667 
L 145.152997 361.695505 
L 145.96626 364.58939 
L 146.779523 365.456908 
L 147.592786 365.309008 
L 148.406048 365.420184 
L 149.219311 248.517301 
L 150.032574 302.261322 
L 150.845837 341.28877 
L 151.6591 358.846478 
L 152.472363 363.771498 
L 153.285626 367.875396 
L 154.098889 366.449695 
L 154.912152 366.185618 
L 155.725414 367.89754 
L 156.538677 366.88146 
L 157.35194 249.708345 
L 158.165203 304.481174 
L 158.978466 340.203538 
L 159.791729 360.12134 
L 160.604992 365.315847 
L 161.418255 367.990584 
L 162.231518 368.121903 
L 163.04478 369.190535 
L 163.858043 367.347568 
L 164.671306 366.086321 
L 165.484569 251.815604 
L 166.297832 303.972588 
L 167.111095 342.225847 
L 167.924358 359.241356 
L 168.737621 366.672333 
L 169.550884 369.36 
L 170.364146 367.011762 
L 171.177409 368.237782 
L 172.803935 365.99272 
L 173.617198 253.471827 
L 174.430461 307.319279 
L 175.243724 323.539946 
L 176.056987 335.935923 
L 177.683512 354.969393 
L 178.496775 361.017518 
L 179.310038 363.965215 
L 180.123301 365.5414 
L 180.936564 367.524221 
L 181.749827 251.004109 
L 182.56309 279.632749 
L 184.189616 324.319379 
L 185.002878 343.195194 
L 185.816141 351.281426 
L 186.629404 358.042091 
L 187.442667 361.697636 
L 188.25593 364.361196 
L 189.069193 367.568841 
L 189.882456 249.165468 
L 191.508982 308.125977 
L 193.135507 343.131477 
L 193.94877 352.455435 
L 194.762033 359.568918 
L 195.575296 364.129849 
L 196.388559 365.708885 
L 197.201822 369.02384 
L 198.015085 252.611967 
L 199.64161 306.243569 
L 200.454873 324.955283 
L 201.268136 339.503284 
L 202.081399 349.15424 
L 202.894662 356.998256 
L 203.707925 360.206993 
L 204.521188 362.661537 
L 205.334451 366.662776 
L 206.147714 251.148532 
L 207.774239 302.849894 
L 208.587502 321.227138 
L 209.400765 336.948004 
L 210.214028 349.086447 
L 211.027291 355.849493 
L 211.840554 360.272771 
L 212.653817 363.653493 
L 213.46708 362.922112 
L 214.280343 251.295661 
L 215.906868 302.076546 
L 216.720131 320.052235 
L 218.346657 346.19071 
L 219.15992 353.3458 
L 219.973183 357.847804 
L 220.786446 359.830416 
L 221.599709 363.98805 
L 222.412971 250.577843 
L 224.039497 296.609648 
L 225.666023 332.868288 
L 226.479286 342.251916 
L 227.292549 350.314163 
L 228.105812 355.9431 
L 228.919075 359.015937 
L 229.732337 364.135318 
L 230.5456 250.363909 
L 231.358863 276.195354 
L 232.985389 315.661581 
L 233.798652 328.508756 
L 234.611915 339.27873 
L 235.425178 347.754058 
L 236.238441 354.980947 
L 237.051703 359.247766 
L 237.864966 361.419015 
L 238.678229 252.913482 
L 239.491492 271.370445 
L 240.304755 293.647906 
L 241.118018 311.812435 
L 241.931281 327.1007 
L 242.744544 337.928092 
L 243.557807 346.429849 
L 244.371069 352.021841 
L 245.184332 356.416193 
L 245.997595 358.921006 
L 246.810858 252.09963 
L 248.437384 293.245863 
L 249.250647 308.810247 
L 250.877173 334.127683 
L 251.690435 343.210621 
L 252.503698 349.58615 
L 253.316961 353.292825 
L 254.130224 359.175967 
L 254.943487 252.637189 
L 256.570013 290.707624 
L 257.383276 303.785524 
L 258.196539 318.92435 
L 259.009801 331.880065 
L 261.44959 351.302891 
L 262.262853 355.263034 
L 263.076116 251.112011 
L 264.702642 287.942874 
L 265.515905 304.685156 
L 266.329167 317.523529 
L 267.14243 328.36539 
L 267.955693 337.404282 
L 269.582219 348.161454 
L 270.395482 351.673529 
L 271.208745 253.004534 
L 272.022008 271.559505 
L 273.648533 301.450396 
L 275.275059 325.362017 
L 276.088322 334.36105 
L 276.901585 341.306299 
L 278.528111 351.87761 
L 279.341374 253.196231 
L 280.154637 270.138212 
L 281.781162 300.484876 
L 282.594425 311.664726 
L 284.220951 329.725173 
L 285.034214 337.235229 
L 285.847477 342.791026 
L 286.66074 345.779372 
L 287.474003 253.968569 
L 289.913791 296.252951 
L 291.540317 317.963091 
L 292.35358 325.666307 
L 293.166843 335.469072 
L 293.980106 340.177765 
L 294.793369 346.211879 
L 295.606631 252.749167 
L 296.419894 268.876948 
L 298.859683 305.657923 
L 299.672946 316.969422 
L 301.299472 332.608775 
L 302.112735 337.110791 
L 302.925997 340.56528 
L 303.73926 254.027292 
L 304.552523 265.8327 
L 305.365786 280.366871 
L 306.179049 289.408794 
L 306.992312 302.963718 
L 308.618838 321.909758 
L 309.432101 324.749117 
L 310.245363 335.269711 
L 311.058626 338.772136 
L 311.871889 253.984547 
L 312.685152 266.789093 
L 314.311678 289.595729 
L 315.124941 301.290634 
L 315.938204 308.262539 
L 316.751467 316.8474 
L 317.564729 323.202085 
L 318.377992 332.016522 
L 319.191255 335.535971 
L 320.004518 255.771421 
L 320.817781 263.562775 
L 321.631044 277.284314 
L 322.444307 288.596951 
L 323.25757 298.196557 
L 324.884095 314.170509 
L 325.697358 322.218078 
L 326.510621 326.624849 
L 327.323884 332.32735 
L 328.137147 253.212825 
L 329.763673 276.487056 
L 330.576936 284.914616 
L 331.390199 295.39812 
L 332.203461 303.813661 
L 333.016724 309.632041 
L 333.829987 317.711939 
L 334.64325 323.950002 
L 335.456513 328.396058 
L 336.269776 252.881908 
L 337.896302 274.572516 
L 338.709565 285.520792 
L 339.522827 291.351215 
L 340.33609 301.548068 
L 341.149353 306.221285 
L 341.962616 313.207055 
L 342.775879 318.131157 
L 343.589142 326.6026 
L 344.402405 252.487704 
L 345.215668 261.003099 
L 346.028931 272.935186 
L 346.842193 280.772664 
L 347.655456 290.812286 
L 348.468719 296.017511 
L 349.281982 305.24529 
L 350.095245 311.22125 
L 351.721771 321.491319 
L 352.535034 254.809013 
L 353.348297 262.656141 
L 354.974822 280.580085 
L 355.788085 287.041999 
L 356.601348 295.419591 
L 357.414611 300.096152 
L 359.041137 312.144873 
L 359.8544 319.321876 
L 360.667663 253.818467 
L 361.480925 261.093107 
L 362.294188 270.998408 
L 364.733977 293.2081 
L 365.54724 299.154913 
L 366.360503 302.595966 
L 367.173766 308.694379 
L 367.987029 313.807936 
L 368.800291 253.294994 
L 371.24008 276.819007 
L 373.679869 295.154725 
L 374.493132 299.594011 
L 375.306395 307.184703 
L 376.119657 310.252129 
L 376.93292 255.036301 
L 378.559446 270.500761 
L 379.372709 274.565932 
L 380.999235 287.616903 
L 381.812498 292.841695 
L 382.625761 299.834805 
L 383.439024 303.595128 
L 384.252286 308.39118 
L 385.065549 254.758371 
L 385.878812 261.893558 
L 386.692075 267.80385 
L 387.505338 272.676405 
L 388.318601 279.453547 
L 390.75839 295.562295 
L 391.571652 300.015864 
L 392.384915 303.802281 
L 393.198178 254.283995 
L 394.011441 259.894515 
L 394.824704 266.509619 
L 395.637967 271.422352 
L 396.45123 279.116487 
L 397.264493 282.133841 
L 398.077756 287.477288 
L 398.891018 291.334238 
L 399.704281 296.612911 
L 400.517544 300.772107 
L 401.330807 254.208387 
L 402.957333 266.137559 
L 406.210384 286.107344 
L 407.023647 290.087547 
L 407.83691 292.704251 
L 408.650173 298.154451 
L 409.463436 254.832923 
L 411.089962 265.229217 
L 411.903225 268.544741 
L 412.716488 274.67863 
L 413.52975 278.429814 
L 414.343013 283.110533 
L 415.156276 284.083683 
L 415.969539 291.587329 
L 416.782802 294.647938 
L 417.596065 252.196826 
L 419.222591 264.40942 
L 420.035854 269.218165 
L 422.475642 281.541681 
L 423.288905 284.110588 
L 424.102168 285.963177 
L 424.915431 293.105981 
L 425.728694 253.551221 
L 426.541957 260.769761 
L 427.35522 264.428987 
L 428.168482 266.477836 
L 428.981745 272.213281 
L 429.795008 274.517508 
L 431.421534 282.755195 
L 432.234797 285.07367 
L 433.04806 288.814729 
L 433.861323 256.200974 
L 434.674586 259.678327 
L 435.487848 262.022246 
L 436.301111 267.302289 
L 437.114374 269.366269 
L 437.927637 274.531292 
L 438.7409 275.903907 
L 439.554163 280.443245 
L 441.180689 287.030491 
L 441.993952 255.187064 
L 443.620477 263.002328 
L 445.247003 267.856942 
L 446.060266 272.409262 
L 446.873529 274.285389 
L 447.686792 278.075742 
L 448.500055 279.034481 
L 449.313318 282.051591 
L 450.12658 253.902494 
L 450.939843 258.932408 
L 452.566369 263.440346 
L 453.379632 266.762745 
L 454.192895 270.980943 
L 455.006158 273.914839 
L 455.819421 275.174558 
L 456.632684 280.113268 
L 457.445946 282.115273 
L 458.259209 256.437703 
L 459.072472 256.832035 
L 459.885735 259.855311 
L 460.698998 264.18565 
L 461.512261 265.149835 
L 462.325524 268.881291 
L 463.95205 274.22994 
L 465.578575 279.462791 
L 466.391838 254.902295 
L 467.205101 257.056943 
L 468.018364 259.641423 
L 468.831627 261.694301 
L 470.458153 267.80954 
L 471.271416 268.195721 
L 472.084678 272.734641 
L 472.897941 274.711086 
L 473.711204 278.22359 
L 474.524467 256.186505 
L 475.33773 255.666271 
L 476.150993 260.467956 
L 478.590782 267.501476 
L 479.404044 269.23124 
L 480.217307 272.896679 
L 481.03057 273.376838 
L 481.843833 275.124799 
L 482.657096 254.007888 
L 483.470359 255.652987 
L 484.283622 261.510292 
L 485.096885 259.694364 
L 485.910148 264.010373 
L 486.72341 267.273421 
L 488.349936 267.027309 
L 489.163199 271.955684 
L 489.976462 274.182445 
L 490.789725 253.709706 
L 491.602988 258.094728 
L 492.416251 256.165881 
L 493.229514 260.613923 
L 494.042776 263.26097 
L 494.856039 264.798364 
L 495.669302 267.094289 
L 496.482565 266.718815 
L 497.295828 269.836848 
L 498.109091 273.57923 
L 498.109091 273.57923 
" clip-path="url(#pa3d01653ac)" style="fill: none; stroke: #ff0000; stroke-width: 1.5; stroke-linecap: square"/>
   </g>
   <g id="patch_8">
    <path d="M 72 384.48 
L 72 51.84 
" style="fill: none; stroke: #000000; stroke-width: 0.8; stroke-linejoin: miter; stroke-linecap: square"/>
   </g>
   <g id="patch_9">
    <path d="M 518.4 384.48 
L 518.4 51.84 
" style="fill: none; stroke: #000000; stroke-width: 0.8; stroke-linejoin: miter; stroke-linecap: square"/>
   </g>
   <g id="patch_10">
    <path d="M 72 384.48 
L 518.4 384.48 
" style="fill: none; stroke: #000000; stroke-width: 0.8; stroke-linejoin: miter; stroke-linecap: square"/>
   </g>
   <g id="patch_11">
    <path d="M 72 51.84 
L 518.4 51.84 
" style="fill: none; stroke: #000000; stroke-width: 0.8; stroke-linejoin: miter; stroke-linecap: square"/>
   </g>
   <g id="text_26">
    <!-- The learning curve on _0.00025_non_iid_agg/guest/2 -->
    <g transform="translate(132.931875 45.84) scale(0.12 -0.12)">
     <defs>
      <path id="DejaVuSans-54" d="M -19 4666 
L 3928 4666 
L 3928 4134 
L 2272 4134 
L 2272 0 
L 1638 0 
L 1638 4134 
L -19 4134 
L -19 4666 
z
" transform="scale(0.015625)"/>
      <path id="DejaVuSans-20" transform="scale(0.015625)"/>
      <path id="DejaVuSans-67" d="M 2906 1791 
Q 2906 2416 2648 2759 
Q 2391 3103 1925 3103 
Q 1463 3103 1205 2759 
Q 947 2416 947 1791 
Q 947 1169 1205 825 
Q 1463 481 1925 481 
Q 2391 481 2648 825 
Q 2906 1169 2906 1791 
z
M 3481 434 
Q 3481 -459 3084 -895 
Q 2688 -1331 1869 -1331 
Q 1566 -1331 1297 -1286 
Q 1028 -1241 775 -1147 
L 775 -588 
Q 1028 -725 1275 -790 
Q 1522 -856 1778 -856 
Q 2344 -856 2625 -561 
Q 2906 -266 2906 331 
L 2906 616 
Q 2728 306 2450 153 
Q 2172 0 1784 0 
Q 1141 0 747 490 
Q 353 981 353 1791 
Q 353 2603 747 3093 
Q 1141 3584 1784 3584 
Q 2172 3584 2450 3431 
Q 2728 3278 2906 2969 
L 2906 3500 
L 3481 3500 
L 3481 434 
z
" transform="scale(0.015625)"/>
      <path id="DejaVuSans-75" d="M 544 1381 
L 544 3500 
L 1119 3500 
L 1119 1403 
Q 1119 906 1312 657 
Q 1506 409 1894 409 
Q 2359 409 2629 706 
Q 2900 1003 2900 1516 
L 2900 3500 
L 3475 3500 
L 3475 0 
L 2900 0 
L 2900 538 
Q 2691 219 2414 64 
Q 2138 -91 1772 -91 
Q 1169 -91 856 284 
Q 544 659 544 1381 
z
M 1991 3584 
L 1991 3584 
z
" transform="scale(0.015625)"/>
      <path id="DejaVuSans-76" d="M 191 3500 
L 800 3500 
L 1894 563 
L 2988 3500 
L 3597 3500 
L 2284 0 
L 1503 0 
L 191 3500 
z
" transform="scale(0.015625)"/>
      <path id="DejaVuSans-3bb" d="M 1981 4316 
L 3597 0 
L 2988 0 
L 2006 2588 
L 800 0 
L 191 0 
L 1725 3356 
L 1494 3975 
Q 1347 4369 1013 4369 
L 713 4369 
L 713 4863 
L 1078 4856 
Q 1784 4847 1981 4316 
z
" transform="scale(0.015625)"/>
      <path id="DejaVuSans-5f" d="M 3263 -1063 
L 3263 -1509 
L -63 -1509 
L -63 -1063 
L 3263 -1063 
z
" transform="scale(0.015625)"/>
      <path id="DejaVuSans-64" d="M 2906 2969 
L 2906 4863 
L 3481 4863 
L 3481 0 
L 2906 0 
L 2906 525 
Q 2725 213 2448 61 
Q 2172 -91 1784 -91 
Q 1150 -91 751 415 
Q 353 922 353 1747 
Q 353 2572 751 3078 
Q 1150 3584 1784 3584 
Q 2172 3584 2448 3432 
Q 2725 3281 2906 2969 
z
M 947 1747 
Q 947 1113 1208 752 
Q 1469 391 1925 391 
Q 2381 391 2643 752 
Q 2906 1113 2906 1747 
Q 2906 2381 2643 2742 
Q 2381 3103 1925 3103 
Q 1469 3103 1208 2742 
Q 947 2381 947 1747 
z
" transform="scale(0.015625)"/>
      <path id="DejaVuSans-2f" d="M 1625 4666 
L 2156 4666 
L 531 -594 
L 0 -594 
L 1625 4666 
z
" transform="scale(0.015625)"/>
     </defs>
     <use xlink:href="#DejaVuSans-54"/>
     <use xlink:href="#DejaVuSans-68" x="61.083984"/>
     <use xlink:href="#DejaVuSans-65" x="124.462891"/>
     <use xlink:href="#DejaVuSans-20" x="185.986328"/>
     <use xlink:href="#DejaVuSans-6c" x="217.773438"/>
     <use xlink:href="#DejaVuSans-65" x="245.556641"/>
     <use xlink:href="#DejaVuSans-61" x="307.080078"/>
     <use xlink:href="#DejaVuSans-72" x="368.359375"/>
     <use xlink:href="#DejaVuSans-6e" x="407.722656"/>
     <use xlink:href="#DejaVuSans-69" x="471.101562"/>
     <use xlink:href="#DejaVuSans-6e" x="498.884766"/>
     <use xlink:href="#DejaVuSans-67" x="562.263672"/>
     <use xlink:href="#DejaVuSans-20" x="625.740234"/>
     <use xlink:href="#DejaVuSans-63" x="657.527344"/>
     <use xlink:href="#DejaVuSans-75" x="712.507812"/>
     <use xlink:href="#DejaVuSans-72" x="775.886719"/>
     <use xlink:href="#DejaVuSans-76" x="817"/>
     <use xlink:href="#DejaVuSans-65" x="876.179688"/>
     <use xlink:href="#DejaVuSans-20" x="937.703125"/>
     <use xlink:href="#DejaVuSans-6f" x="969.490234"/>
     <use xlink:href="#DejaVuSans-6e" x="1030.671875"/>
     <use xlink:href="#DejaVuSans-20" x="1094.050781"/>
     <use xlink:href="#DejaVuSans-3bb" x="1125.837891"/>
     <use xlink:href="#DejaVuSans-5f" x="1185.017578"/>
     <use xlink:href="#DejaVuSans-30" x="1235.017578"/>
     <use xlink:href="#DejaVuSans-2e" x="1298.640625"/>
     <use xlink:href="#DejaVuSans-30" x="1330.427734"/>
     <use xlink:href="#DejaVuSans-30" x="1394.050781"/>
     <use xlink:href="#DejaVuSans-30" x="1457.673828"/>
     <use xlink:href="#DejaVuSans-32" x="1521.296875"/>
     <use xlink:href="#DejaVuSans-35" x="1584.919922"/>
     <use xlink:href="#DejaVuSans-5f" x="1648.542969"/>
     <use xlink:href="#DejaVuSans-6e" x="1698.542969"/>
     <use xlink:href="#DejaVuSans-6f" x="1761.921875"/>
     <use xlink:href="#DejaVuSans-6e" x="1823.103516"/>
     <use xlink:href="#DejaVuSans-5f" x="1886.482422"/>
     <use xlink:href="#DejaVuSans-69" x="1936.482422"/>
     <use xlink:href="#DejaVuSans-69" x="1964.265625"/>
     <use xlink:href="#DejaVuSans-64" x="1992.048828"/>
     <use xlink:href="#DejaVuSans-5f" x="2055.525391"/>
     <use xlink:href="#DejaVuSans-61" x="2105.525391"/>
     <use xlink:href="#DejaVuSans-67" x="2166.804688"/>
     <use xlink:href="#DejaVuSans-67" x="2230.28125"/>
     <use xlink:href="#DejaVuSans-2f" x="2293.757812"/>
     <use xlink:href="#DejaVuSans-67" x="2327.449219"/>
     <use xlink:href="#DejaVuSans-75" x="2390.925781"/>
     <use xlink:href="#DejaVuSans-65" x="2454.304688"/>
     <use xlink:href="#DejaVuSans-73" x="2515.828125"/>
     <use xlink:href="#DejaVuSans-74" x="2567.927734"/>
     <use xlink:href="#DejaVuSans-2f" x="2607.136719"/>
     <use xlink:href="#DejaVuSans-32" x="2640.828125"/>
    </g>
   </g>
   <g id="legend_2">
    <g id="patch_12">
     <path d="M 460.084375 74.518125 
L 511.4 74.518125 
Q 513.4 74.518125 513.4 72.518125 
L 513.4 58.84 
Q 513.4 56.84 511.4 56.84 
L 460.084375 56.84 
Q 458.084375 56.84 458.084375 58.84 
L 458.084375 72.518125 
Q 458.084375 74.518125 460.084375 74.518125 
z
" style="fill: #ffffff; opacity: 0.8; stroke: #cccccc; stroke-linejoin: miter"/>
    </g>
    <g id="line2d_26">
     <path d="M 462.084375 64.938438 
L 472.084375 64.938438 
L 482.084375 64.938438 
" style="fill: none; stroke: #ff0000; stroke-width: 1.5; stroke-linecap: square"/>
    </g>
    <g id="text_27">
     <!-- loss -->
     <g transform="translate(490.084375 68.438438) scale(0.1 -0.1)">
      <use xlink:href="#DejaVuSans-6c"/>
      <use xlink:href="#DejaVuSans-6f" x="27.783203"/>
      <use xlink:href="#DejaVuSans-73" x="88.964844"/>
      <use xlink:href="#DejaVuSans-73" x="141.064453"/>
     </g>
    </g>
   </g>
  </g>
 </g>
 <defs>
  <clipPath id="pa3d01653ac">
   <rect x="72" y="51.84" width="446.4" height="332.64"/>
  </clipPath>
 </defs>
</svg>
