<?xml version="1.0" encoding="utf-8" standalone="no"?>
<!DOCTYPE svg PUBLIC "-//W3C//DTD SVG 1.1//EN"
  "http://www.w3.org/Graphics/SVG/1.1/DTD/svg11.dtd">
<!-- Created with matplotlib (https://matplotlib.org/) -->
<svg height="432pt" version="1.1" viewBox="0 0 576 432" width="576pt" xmlns="http://www.w3.org/2000/svg" xmlns:xlink="http://www.w3.org/1999/xlink">
 <metadata>
  <rdf:RDF xmlns:cc="http://creativecommons.org/ns#" xmlns:dc="http://purl.org/dc/elements/1.1/" xmlns:rdf="http://www.w3.org/1999/02/22-rdf-syntax-ns#">
   <cc:Work>
    <dc:type rdf:resource="http://purl.org/dc/dcmitype/StillImage"/>
    <dc:date>2023-03-29T12:28:06.850919</dc:date>
    <dc:format>image/svg+xml</dc:format>
    <dc:creator>
     <cc:Agent>
      <dc:title>Matplotlib v3.3.4, https://matplotlib.org/</dc:title>
     </cc:Agent>
    </dc:creator>
   </cc:Work>
  </rdf:RDF>
 </metadata>
 <defs>
  <style type="text/css">*{stroke-linecap:butt;stroke-linejoin:round;}</style>
 </defs>
 <g id="figure_1">
  <g id="patch_1">
   <path d="M 0 432 
L 576 432 
L 576 0 
L 0 0 
z
" style="fill:#ffffff;"/>
  </g>
  <g id="axes_1">
   <g id="patch_2">
    <path d="M 72 384.48 
L 518.4 384.48 
L 518.4 51.84 
L 72 51.84 
z
" style="fill:#ffffff;"/>
   </g>
   <g id="matplotlib.axis_1">
    <g id="xtick_1">
     <g id="line2d_1">
      <defs>
       <path d="M 0 0 
L 0 3.5 
" id="m3e1d9506be" style="stroke:#000000;stroke-width:0.8;"/>
      </defs>
      <g>
       <use style="stroke:#000000;stroke-width:0.8;" x="92.290909" xlink:href="#m3e1d9506be" y="384.48"/>
      </g>
     </g>
     <g id="text_1">
      <!-- 0 -->
      <g transform="translate(89.109659 399.078438)scale(0.1 -0.1)">
       <defs>
        <path d="M 31.78125 66.40625 
Q 24.171875 66.40625 20.328125 58.90625 
Q 16.5 51.421875 16.5 36.375 
Q 16.5 21.390625 20.328125 13.890625 
Q 24.171875 6.390625 31.78125 6.390625 
Q 39.453125 6.390625 43.28125 13.890625 
Q 47.125 21.390625 47.125 36.375 
Q 47.125 51.421875 43.28125 58.90625 
Q 39.453125 66.40625 31.78125 66.40625 
z
M 31.78125 74.21875 
Q 44.046875 74.21875 50.515625 64.515625 
Q 56.984375 54.828125 56.984375 36.375 
Q 56.984375 17.96875 50.515625 8.265625 
Q 44.046875 -1.421875 31.78125 -1.421875 
Q 19.53125 -1.421875 13.0625 8.265625 
Q 6.59375 17.96875 6.59375 36.375 
Q 6.59375 54.828125 13.0625 64.515625 
Q 19.53125 74.21875 31.78125 74.21875 
z
" id="DejaVuSans-48"/>
       </defs>
       <use xlink:href="#DejaVuSans-48"/>
      </g>
     </g>
    </g>
    <g id="xtick_2">
     <g id="line2d_2">
      <g>
       <use style="stroke:#000000;stroke-width:0.8;" x="173.53579" xlink:href="#m3e1d9506be" y="384.48"/>
      </g>
     </g>
     <g id="text_2">
      <!-- 200 -->
      <g transform="translate(163.99204 399.078438)scale(0.1 -0.1)">
       <defs>
        <path d="M 19.1875 8.296875 
L 53.609375 8.296875 
L 53.609375 0 
L 7.328125 0 
L 7.328125 8.296875 
Q 12.9375 14.109375 22.625 23.890625 
Q 32.328125 33.6875 34.8125 36.53125 
Q 39.546875 41.84375 41.421875 45.53125 
Q 43.3125 49.21875 43.3125 52.78125 
Q 43.3125 58.59375 39.234375 62.25 
Q 35.15625 65.921875 28.609375 65.921875 
Q 23.96875 65.921875 18.8125 64.3125 
Q 13.671875 62.703125 7.8125 59.421875 
L 7.8125 69.390625 
Q 13.765625 71.78125 18.9375 73 
Q 24.125 74.21875 28.421875 74.21875 
Q 39.75 74.21875 46.484375 68.546875 
Q 53.21875 62.890625 53.21875 53.421875 
Q 53.21875 48.921875 51.53125 44.890625 
Q 49.859375 40.875 45.40625 35.40625 
Q 44.1875 33.984375 37.640625 27.21875 
Q 31.109375 20.453125 19.1875 8.296875 
z
" id="DejaVuSans-50"/>
       </defs>
       <use xlink:href="#DejaVuSans-50"/>
       <use x="63.623047" xlink:href="#DejaVuSans-48"/>
       <use x="127.246094" xlink:href="#DejaVuSans-48"/>
      </g>
     </g>
    </g>
    <g id="xtick_3">
     <g id="line2d_3">
      <g>
       <use style="stroke:#000000;stroke-width:0.8;" x="254.780672" xlink:href="#m3e1d9506be" y="384.48"/>
      </g>
     </g>
     <g id="text_3">
      <!-- 400 -->
      <g transform="translate(245.236922 399.078438)scale(0.1 -0.1)">
       <defs>
        <path d="M 37.796875 64.3125 
L 12.890625 25.390625 
L 37.796875 25.390625 
z
M 35.203125 72.90625 
L 47.609375 72.90625 
L 47.609375 25.390625 
L 58.015625 25.390625 
L 58.015625 17.1875 
L 47.609375 17.1875 
L 47.609375 0 
L 37.796875 0 
L 37.796875 17.1875 
L 4.890625 17.1875 
L 4.890625 26.703125 
z
" id="DejaVuSans-52"/>
       </defs>
       <use xlink:href="#DejaVuSans-52"/>
       <use x="63.623047" xlink:href="#DejaVuSans-48"/>
       <use x="127.246094" xlink:href="#DejaVuSans-48"/>
      </g>
     </g>
    </g>
    <g id="xtick_4">
     <g id="line2d_4">
      <g>
       <use style="stroke:#000000;stroke-width:0.8;" x="336.025553" xlink:href="#m3e1d9506be" y="384.48"/>
      </g>
     </g>
     <g id="text_4">
      <!-- 600 -->
      <g transform="translate(326.481803 399.078438)scale(0.1 -0.1)">
       <defs>
        <path d="M 33.015625 40.375 
Q 26.375 40.375 22.484375 35.828125 
Q 18.609375 31.296875 18.609375 23.390625 
Q 18.609375 15.53125 22.484375 10.953125 
Q 26.375 6.390625 33.015625 6.390625 
Q 39.65625 6.390625 43.53125 10.953125 
Q 47.40625 15.53125 47.40625 23.390625 
Q 47.40625 31.296875 43.53125 35.828125 
Q 39.65625 40.375 33.015625 40.375 
z
M 52.59375 71.296875 
L 52.59375 62.3125 
Q 48.875 64.0625 45.09375 64.984375 
Q 41.3125 65.921875 37.59375 65.921875 
Q 27.828125 65.921875 22.671875 59.328125 
Q 17.53125 52.734375 16.796875 39.40625 
Q 19.671875 43.65625 24.015625 45.921875 
Q 28.375 48.1875 33.59375 48.1875 
Q 44.578125 48.1875 50.953125 41.515625 
Q 57.328125 34.859375 57.328125 23.390625 
Q 57.328125 12.15625 50.6875 5.359375 
Q 44.046875 -1.421875 33.015625 -1.421875 
Q 20.359375 -1.421875 13.671875 8.265625 
Q 6.984375 17.96875 6.984375 36.375 
Q 6.984375 53.65625 15.1875 63.9375 
Q 23.390625 74.21875 37.203125 74.21875 
Q 40.921875 74.21875 44.703125 73.484375 
Q 48.484375 72.75 52.59375 71.296875 
z
" id="DejaVuSans-54"/>
       </defs>
       <use xlink:href="#DejaVuSans-54"/>
       <use x="63.623047" xlink:href="#DejaVuSans-48"/>
       <use x="127.246094" xlink:href="#DejaVuSans-48"/>
      </g>
     </g>
    </g>
    <g id="xtick_5">
     <g id="line2d_5">
      <g>
       <use style="stroke:#000000;stroke-width:0.8;" x="417.270434" xlink:href="#m3e1d9506be" y="384.48"/>
      </g>
     </g>
     <g id="text_5">
      <!-- 800 -->
      <g transform="translate(407.726684 399.078438)scale(0.1 -0.1)">
       <defs>
        <path d="M 31.78125 34.625 
Q 24.75 34.625 20.71875 30.859375 
Q 16.703125 27.09375 16.703125 20.515625 
Q 16.703125 13.921875 20.71875 10.15625 
Q 24.75 6.390625 31.78125 6.390625 
Q 38.8125 6.390625 42.859375 10.171875 
Q 46.921875 13.96875 46.921875 20.515625 
Q 46.921875 27.09375 42.890625 30.859375 
Q 38.875 34.625 31.78125 34.625 
z
M 21.921875 38.8125 
Q 15.578125 40.375 12.03125 44.71875 
Q 8.5 49.078125 8.5 55.328125 
Q 8.5 64.0625 14.71875 69.140625 
Q 20.953125 74.21875 31.78125 74.21875 
Q 42.671875 74.21875 48.875 69.140625 
Q 55.078125 64.0625 55.078125 55.328125 
Q 55.078125 49.078125 51.53125 44.71875 
Q 48 40.375 41.703125 38.8125 
Q 48.828125 37.15625 52.796875 32.3125 
Q 56.78125 27.484375 56.78125 20.515625 
Q 56.78125 9.90625 50.3125 4.234375 
Q 43.84375 -1.421875 31.78125 -1.421875 
Q 19.734375 -1.421875 13.25 4.234375 
Q 6.78125 9.90625 6.78125 20.515625 
Q 6.78125 27.484375 10.78125 32.3125 
Q 14.796875 37.15625 21.921875 38.8125 
z
M 18.3125 54.390625 
Q 18.3125 48.734375 21.84375 45.5625 
Q 25.390625 42.390625 31.78125 42.390625 
Q 38.140625 42.390625 41.71875 45.5625 
Q 45.3125 48.734375 45.3125 54.390625 
Q 45.3125 60.0625 41.71875 63.234375 
Q 38.140625 66.40625 31.78125 66.40625 
Q 25.390625 66.40625 21.84375 63.234375 
Q 18.3125 60.0625 18.3125 54.390625 
z
" id="DejaVuSans-56"/>
       </defs>
       <use xlink:href="#DejaVuSans-56"/>
       <use x="63.623047" xlink:href="#DejaVuSans-48"/>
       <use x="127.246094" xlink:href="#DejaVuSans-48"/>
      </g>
     </g>
    </g>
    <g id="xtick_6">
     <g id="line2d_6">
      <g>
       <use style="stroke:#000000;stroke-width:0.8;" x="498.515315" xlink:href="#m3e1d9506be" y="384.48"/>
      </g>
     </g>
     <g id="text_6">
      <!-- 1000 -->
      <g transform="translate(485.790315 399.078438)scale(0.1 -0.1)">
       <defs>
        <path d="M 12.40625 8.296875 
L 28.515625 8.296875 
L 28.515625 63.921875 
L 10.984375 60.40625 
L 10.984375 69.390625 
L 28.421875 72.90625 
L 38.28125 72.90625 
L 38.28125 8.296875 
L 54.390625 8.296875 
L 54.390625 0 
L 12.40625 0 
z
" id="DejaVuSans-49"/>
       </defs>
       <use xlink:href="#DejaVuSans-49"/>
       <use x="63.623047" xlink:href="#DejaVuSans-48"/>
       <use x="127.246094" xlink:href="#DejaVuSans-48"/>
       <use x="190.869141" xlink:href="#DejaVuSans-48"/>
      </g>
     </g>
    </g>
    <g id="text_7">
     <!-- epoch -->
     <g transform="translate(279.971875 412.756563)scale(0.1 -0.1)">
      <defs>
       <path d="M 56.203125 29.59375 
L 56.203125 25.203125 
L 14.890625 25.203125 
Q 15.484375 15.921875 20.484375 11.0625 
Q 25.484375 6.203125 34.421875 6.203125 
Q 39.59375 6.203125 44.453125 7.46875 
Q 49.3125 8.734375 54.109375 11.28125 
L 54.109375 2.78125 
Q 49.265625 0.734375 44.1875 -0.34375 
Q 39.109375 -1.421875 33.890625 -1.421875 
Q 20.796875 -1.421875 13.15625 6.1875 
Q 5.515625 13.8125 5.515625 26.8125 
Q 5.515625 40.234375 12.765625 48.109375 
Q 20.015625 56 32.328125 56 
Q 43.359375 56 49.78125 48.890625 
Q 56.203125 41.796875 56.203125 29.59375 
z
M 47.21875 32.234375 
Q 47.125 39.59375 43.09375 43.984375 
Q 39.0625 48.390625 32.421875 48.390625 
Q 24.90625 48.390625 20.390625 44.140625 
Q 15.875 39.890625 15.1875 32.171875 
z
" id="DejaVuSans-101"/>
       <path d="M 18.109375 8.203125 
L 18.109375 -20.796875 
L 9.078125 -20.796875 
L 9.078125 54.6875 
L 18.109375 54.6875 
L 18.109375 46.390625 
Q 20.953125 51.265625 25.265625 53.625 
Q 29.59375 56 35.59375 56 
Q 45.5625 56 51.78125 48.09375 
Q 58.015625 40.1875 58.015625 27.296875 
Q 58.015625 14.40625 51.78125 6.484375 
Q 45.5625 -1.421875 35.59375 -1.421875 
Q 29.59375 -1.421875 25.265625 0.953125 
Q 20.953125 3.328125 18.109375 8.203125 
z
M 48.6875 27.296875 
Q 48.6875 37.203125 44.609375 42.84375 
Q 40.53125 48.484375 33.40625 48.484375 
Q 26.265625 48.484375 22.1875 42.84375 
Q 18.109375 37.203125 18.109375 27.296875 
Q 18.109375 17.390625 22.1875 11.75 
Q 26.265625 6.109375 33.40625 6.109375 
Q 40.53125 6.109375 44.609375 11.75 
Q 48.6875 17.390625 48.6875 27.296875 
z
" id="DejaVuSans-112"/>
       <path d="M 30.609375 48.390625 
Q 23.390625 48.390625 19.1875 42.75 
Q 14.984375 37.109375 14.984375 27.296875 
Q 14.984375 17.484375 19.15625 11.84375 
Q 23.34375 6.203125 30.609375 6.203125 
Q 37.796875 6.203125 41.984375 11.859375 
Q 46.1875 17.53125 46.1875 27.296875 
Q 46.1875 37.015625 41.984375 42.703125 
Q 37.796875 48.390625 30.609375 48.390625 
z
M 30.609375 56 
Q 42.328125 56 49.015625 48.375 
Q 55.71875 40.765625 55.71875 27.296875 
Q 55.71875 13.875 49.015625 6.21875 
Q 42.328125 -1.421875 30.609375 -1.421875 
Q 18.84375 -1.421875 12.171875 6.21875 
Q 5.515625 13.875 5.515625 27.296875 
Q 5.515625 40.765625 12.171875 48.375 
Q 18.84375 56 30.609375 56 
z
" id="DejaVuSans-111"/>
       <path d="M 48.78125 52.59375 
L 48.78125 44.1875 
Q 44.96875 46.296875 41.140625 47.34375 
Q 37.3125 48.390625 33.40625 48.390625 
Q 24.65625 48.390625 19.8125 42.84375 
Q 14.984375 37.3125 14.984375 27.296875 
Q 14.984375 17.28125 19.8125 11.734375 
Q 24.65625 6.203125 33.40625 6.203125 
Q 37.3125 6.203125 41.140625 7.25 
Q 44.96875 8.296875 48.78125 10.40625 
L 48.78125 2.09375 
Q 45.015625 0.34375 40.984375 -0.53125 
Q 36.96875 -1.421875 32.421875 -1.421875 
Q 20.0625 -1.421875 12.78125 6.34375 
Q 5.515625 14.109375 5.515625 27.296875 
Q 5.515625 40.671875 12.859375 48.328125 
Q 20.21875 56 33.015625 56 
Q 37.15625 56 41.109375 55.140625 
Q 45.0625 54.296875 48.78125 52.59375 
z
" id="DejaVuSans-99"/>
       <path d="M 54.890625 33.015625 
L 54.890625 0 
L 45.90625 0 
L 45.90625 32.71875 
Q 45.90625 40.484375 42.875 44.328125 
Q 39.84375 48.1875 33.796875 48.1875 
Q 26.515625 48.1875 22.3125 43.546875 
Q 18.109375 38.921875 18.109375 30.90625 
L 18.109375 0 
L 9.078125 0 
L 9.078125 75.984375 
L 18.109375 75.984375 
L 18.109375 46.1875 
Q 21.34375 51.125 25.703125 53.5625 
Q 30.078125 56 35.796875 56 
Q 45.21875 56 50.046875 50.171875 
Q 54.890625 44.34375 54.890625 33.015625 
z
" id="DejaVuSans-104"/>
      </defs>
      <use xlink:href="#DejaVuSans-101"/>
      <use x="61.523438" xlink:href="#DejaVuSans-112"/>
      <use x="125" xlink:href="#DejaVuSans-111"/>
      <use x="186.181641" xlink:href="#DejaVuSans-99"/>
      <use x="241.162109" xlink:href="#DejaVuSans-104"/>
     </g>
    </g>
   </g>
   <g id="matplotlib.axis_2">
    <g id="ytick_1">
     <g id="line2d_7">
      <defs>
       <path d="M 0 0 
L -3.5 0 
" id="m2191a96a4d" style="stroke:#000000;stroke-width:0.8;"/>
      </defs>
      <g>
       <use style="stroke:#000000;stroke-width:0.8;" x="72" xlink:href="#m2191a96a4d" y="384.48"/>
      </g>
     </g>
     <g id="text_8">
      <!-- 0.0 -->
      <g transform="translate(49.096875 388.279219)scale(0.1 -0.1)">
       <defs>
        <path d="M 10.6875 12.40625 
L 21 12.40625 
L 21 0 
L 10.6875 0 
z
" id="DejaVuSans-46"/>
       </defs>
       <use xlink:href="#DejaVuSans-48"/>
       <use x="63.623047" xlink:href="#DejaVuSans-46"/>
       <use x="95.410156" xlink:href="#DejaVuSans-48"/>
      </g>
     </g>
    </g>
    <g id="ytick_2">
     <g id="line2d_8">
      <g>
       <use style="stroke:#000000;stroke-width:0.8;" x="72" xlink:href="#m2191a96a4d" y="317.952"/>
      </g>
     </g>
     <g id="text_9">
      <!-- 0.2 -->
      <g transform="translate(49.096875 321.751219)scale(0.1 -0.1)">
       <use xlink:href="#DejaVuSans-48"/>
       <use x="63.623047" xlink:href="#DejaVuSans-46"/>
       <use x="95.410156" xlink:href="#DejaVuSans-50"/>
      </g>
     </g>
    </g>
    <g id="ytick_3">
     <g id="line2d_9">
      <g>
       <use style="stroke:#000000;stroke-width:0.8;" x="72" xlink:href="#m2191a96a4d" y="251.424"/>
      </g>
     </g>
     <g id="text_10">
      <!-- 0.4 -->
      <g transform="translate(49.096875 255.223219)scale(0.1 -0.1)">
       <use xlink:href="#DejaVuSans-48"/>
       <use x="63.623047" xlink:href="#DejaVuSans-46"/>
       <use x="95.410156" xlink:href="#DejaVuSans-52"/>
      </g>
     </g>
    </g>
    <g id="ytick_4">
     <g id="line2d_10">
      <g>
       <use style="stroke:#000000;stroke-width:0.8;" x="72" xlink:href="#m2191a96a4d" y="184.896"/>
      </g>
     </g>
     <g id="text_11">
      <!-- 0.6 -->
      <g transform="translate(49.096875 188.695219)scale(0.1 -0.1)">
       <use xlink:href="#DejaVuSans-48"/>
       <use x="63.623047" xlink:href="#DejaVuSans-46"/>
       <use x="95.410156" xlink:href="#DejaVuSans-54"/>
      </g>
     </g>
    </g>
    <g id="ytick_5">
     <g id="line2d_11">
      <g>
       <use style="stroke:#000000;stroke-width:0.8;" x="72" xlink:href="#m2191a96a4d" y="118.368"/>
      </g>
     </g>
     <g id="text_12">
      <!-- 0.8 -->
      <g transform="translate(49.096875 122.167219)scale(0.1 -0.1)">
       <use xlink:href="#DejaVuSans-48"/>
       <use x="63.623047" xlink:href="#DejaVuSans-46"/>
       <use x="95.410156" xlink:href="#DejaVuSans-56"/>
      </g>
     </g>
    </g>
    <g id="ytick_6">
     <g id="line2d_12">
      <g>
       <use style="stroke:#000000;stroke-width:0.8;" x="72" xlink:href="#m2191a96a4d" y="51.84"/>
      </g>
     </g>
     <g id="text_13">
      <!-- 1.0 -->
      <g transform="translate(49.096875 55.639219)scale(0.1 -0.1)">
       <use xlink:href="#DejaVuSans-49"/>
       <use x="63.623047" xlink:href="#DejaVuSans-46"/>
       <use x="95.410156" xlink:href="#DejaVuSans-48"/>
      </g>
     </g>
    </g>
    <g id="text_14">
     <!-- rate -->
     <g transform="translate(43.017187 228.31625)rotate(-90)scale(0.1 -0.1)">
      <defs>
       <path d="M 41.109375 46.296875 
Q 39.59375 47.171875 37.8125 47.578125 
Q 36.03125 48 33.890625 48 
Q 26.265625 48 22.1875 43.046875 
Q 18.109375 38.09375 18.109375 28.8125 
L 18.109375 0 
L 9.078125 0 
L 9.078125 54.6875 
L 18.109375 54.6875 
L 18.109375 46.1875 
Q 20.953125 51.171875 25.484375 53.578125 
Q 30.03125 56 36.53125 56 
Q 37.453125 56 38.578125 55.875 
Q 39.703125 55.765625 41.0625 55.515625 
z
" id="DejaVuSans-114"/>
       <path d="M 34.28125 27.484375 
Q 23.390625 27.484375 19.1875 25 
Q 14.984375 22.515625 14.984375 16.5 
Q 14.984375 11.71875 18.140625 8.90625 
Q 21.296875 6.109375 26.703125 6.109375 
Q 34.1875 6.109375 38.703125 11.40625 
Q 43.21875 16.703125 43.21875 25.484375 
L 43.21875 27.484375 
z
M 52.203125 31.203125 
L 52.203125 0 
L 43.21875 0 
L 43.21875 8.296875 
Q 40.140625 3.328125 35.546875 0.953125 
Q 30.953125 -1.421875 24.3125 -1.421875 
Q 15.921875 -1.421875 10.953125 3.296875 
Q 6 8.015625 6 15.921875 
Q 6 25.140625 12.171875 29.828125 
Q 18.359375 34.515625 30.609375 34.515625 
L 43.21875 34.515625 
L 43.21875 35.40625 
Q 43.21875 41.609375 39.140625 45 
Q 35.0625 48.390625 27.6875 48.390625 
Q 23 48.390625 18.546875 47.265625 
Q 14.109375 46.140625 10.015625 43.890625 
L 10.015625 52.203125 
Q 14.9375 54.109375 19.578125 55.046875 
Q 24.21875 56 28.609375 56 
Q 40.484375 56 46.34375 49.84375 
Q 52.203125 43.703125 52.203125 31.203125 
z
" id="DejaVuSans-97"/>
       <path d="M 18.3125 70.21875 
L 18.3125 54.6875 
L 36.8125 54.6875 
L 36.8125 47.703125 
L 18.3125 47.703125 
L 18.3125 18.015625 
Q 18.3125 11.328125 20.140625 9.421875 
Q 21.96875 7.515625 27.59375 7.515625 
L 36.8125 7.515625 
L 36.8125 0 
L 27.59375 0 
Q 17.1875 0 13.234375 3.875 
Q 9.28125 7.765625 9.28125 18.015625 
L 9.28125 47.703125 
L 2.6875 47.703125 
L 2.6875 54.6875 
L 9.28125 54.6875 
L 9.28125 70.21875 
z
" id="DejaVuSans-116"/>
      </defs>
      <use xlink:href="#DejaVuSans-114"/>
      <use x="41.113281" xlink:href="#DejaVuSans-97"/>
      <use x="102.392578" xlink:href="#DejaVuSans-116"/>
      <use x="141.601562" xlink:href="#DejaVuSans-101"/>
     </g>
    </g>
   </g>
   <g id="line2d_13">
    <path clip-path="url(#p899bea6ee0)" d="M 92.290909 344.920163 
L 92.697133 365.35605 
L 93.103358 344.841377 
L 93.509582 347.039257 
L 93.915807 339.813475 
L 94.322031 350.64597 
L 94.728256 364.488172 
L 95.13448 352.343253 
L 95.540704 327.795293 
L 95.946929 344.253788 
L 96.353153 343.894789 
L 96.759378 337.765084 
L 97.165602 336.589265 
L 97.571826 366.095678 
L 97.978051 360.549536 
L 98.384275 359.760341 
L 98.7905 370.803599 
L 99.602948 350.785457 
L 100.009173 360.65389 
L 100.415397 340.708612 
L 100.821622 365.803331 
L 101.227846 341.835908 
L 102.040295 344.232448 
L 102.852744 355.903384 
L 103.258968 359.85843 
L 103.665192 352.338308 
L 104.071417 355.175034 
L 104.477641 342.53942 
L 104.883866 349.118505 
L 105.29009 352.823204 
L 105.696314 351.810534 
L 106.102539 365.125124 
L 106.508763 363.021495 
L 106.914988 341.967023 
L 107.321212 337.653296 
L 107.727437 349.050703 
L 108.133661 344.699825 
L 108.539885 328.778167 
L 108.94611 349.728114 
L 109.352334 338.17012 
L 109.758559 361.212888 
L 110.164783 344.312148 
L 110.571007 338.594277 
L 110.977232 363.575704 
L 111.383456 340.296375 
L 111.789681 337.304554 
L 112.195905 355.248144 
L 112.602129 338.757167 
L 113.008354 366.140345 
L 113.414578 343.273397 
L 113.820803 358.285082 
L 114.227027 346.184791 
L 115.039476 345.749478 
L 115.4457 354.273882 
L 115.851925 354.637835 
L 116.258149 356.747529 
L 116.664373 342.545322 
L 117.070598 336.293297 
L 117.476822 346.079775 
L 117.883047 341.926369 
L 118.289271 352.481236 
L 119.10172 344.823505 
L 119.507944 337.816154 
L 119.914169 353.229481 
L 120.320393 343.600471 
L 120.726618 338.684858 
L 121.132842 341.182989 
L 121.539066 358.41908 
L 121.945291 342.44092 
L 122.351515 347.894264 
L 122.75774 341.927705 
L 123.163964 345.044441 
L 123.570188 350.923186 
L 123.976413 338.747554 
L 124.382637 340.952875 
L 124.788862 340.689357 
L 125.195086 356.109381 
L 125.60131 333.606115 
L 126.007535 344.482068 
L 126.413759 349.752801 
L 126.819984 362.231083 
L 127.226208 357.728161 
L 127.632432 361.201027 
L 128.038657 352.105052 
L 128.444881 336.876533 
L 128.851106 347.122364 
L 129.25733 337.881344 
L 129.663554 338.989083 
L 130.069779 333.632109 
L 130.882228 361.678851 
L 131.288452 338.568927 
L 131.694676 357.870558 
L 132.100901 343.192774 
L 132.507125 356.178831 
L 132.91335 339.481867 
L 133.319574 364.170175 
L 134.132023 334.807982 
L 134.538247 340.349646 
L 134.944472 350.320965 
L 135.350696 338.011602 
L 135.756921 337.035387 
L 136.163145 354.275351 
L 136.569369 341.308314 
L 137.788043 352.463426 
L 138.194267 332.208903 
L 138.600491 347.925447 
L 139.006716 347.941769 
L 139.41294 345.233672 
L 139.819165 350.705557 
L 140.225389 342.034643 
L 140.631613 355.797717 
L 141.037838 358.850725 
L 141.444062 351.657422 
L 141.850287 347.116107 
L 142.256511 359.00089 
L 143.06896 340.423149 
L 143.475184 352.835227 
L 143.881409 348.54617 
L 144.287633 351.974104 
L 144.693857 337.381917 
L 145.100082 360.972796 
L 145.506306 350.954876 
L 145.912531 331.14444 
L 146.318755 363.873551 
L 146.72498 350.601733 
L 147.131204 351.41366 
L 147.537428 351.960446 
L 147.943653 358.75011 
L 148.349877 340.4196 
L 148.756102 352.761434 
L 149.162326 354.790122 
L 149.56855 330.109307 
L 149.974775 333.765462 
L 150.380999 357.316418 
L 150.787224 355.120222 
L 151.193448 354.696964 
L 151.599672 325.171912 
L 152.005897 337.114163 
L 152.412121 336.252243 
L 152.818346 366.279325 
L 153.630794 356.851788 
L 154.037019 365.055678 
L 154.443243 365.003824 
L 154.849468 353.967942 
L 155.255692 346.870239 
L 155.661916 351.21257 
L 156.068141 351.076771 
L 156.474365 323.062909 
L 156.88059 341.349028 
L 157.286814 345.597501 
L 157.693038 332.735817 
L 158.099263 350.220488 
L 158.505487 352.030562 
L 158.911712 343.056992 
L 159.317936 330.586526 
L 159.724161 353.760901 
L 160.130385 340.377726 
L 160.536609 349.07073 
L 160.942834 346.441061 
L 161.349058 351.694987 
L 161.755283 351.419194 
L 162.161507 345.74305 
L 162.567731 350.384169 
L 162.973956 338.78748 
L 163.38018 338.164169 
L 163.786405 336.888746 
L 164.192629 338.167399 
L 164.598853 341.745807 
L 165.005078 358.022713 
L 165.411302 351.446423 
L 165.817527 355.416075 
L 166.223751 343.682866 
L 166.629975 354.596023 
L 167.0362 337.921855 
L 167.442424 367.875383 
L 167.848649 355.411197 
L 168.254873 360.047559 
L 168.661097 354.378809 
L 169.067322 345.705766 
L 169.473546 333.098677 
L 169.879771 338.397625 
L 170.285995 348.292374 
L 170.692219 336.2889 
L 171.098444 340.960387 
L 171.504668 348.216392 
L 171.910893 346.36029 
L 172.317117 354.4557 
L 172.723342 358.856734 
L 173.129566 328.218255 
L 173.53579 351.472507 
L 173.942015 347.393511 
L 174.348239 359.601646 
L 174.754464 351.879889 
L 175.160688 362.38196 
L 175.566912 334.654545 
L 175.973137 346.848585 
L 176.379361 345.370969 
L 176.785586 366.866046 
L 177.19181 351.579504 
L 177.598034 352.035583 
L 178.004259 347.949164 
L 178.410483 342.416785 
L 178.816708 327.711665 
L 179.222932 343.648122 
L 179.629156 346.649804 
L 180.035381 362.118572 
L 180.441605 348.00496 
L 180.84783 340.263577 
L 181.254054 355.9881 
L 181.660278 364.677648 
L 182.066503 331.698766 
L 182.472727 329.051613 
L 182.878952 361.740205 
L 183.285176 339.326068 
L 183.6914 333.156596 
L 184.097625 359.387229 
L 184.503849 354.469501 
L 184.910074 362.813236 
L 185.316298 359.239325 
L 185.722523 361.840801 
L 186.128747 353.8298 
L 186.534971 342.263463 
L 186.941196 354.131607 
L 187.34742 351.107047 
L 188.159869 347.844779 
L 188.566093 337.950816 
L 188.972318 340.963332 
L 189.378542 340.564739 
L 189.784767 339.479673 
L 190.190991 321.397189 
L 190.597215 348.342875 
L 191.00344 338.313652 
L 191.409664 337.982399 
L 191.815889 352.761001 
L 192.222113 363.422633 
L 192.628337 368.154069 
L 193.034562 329.753347 
L 193.440786 351.826014 
L 193.847011 349.085833 
L 194.253235 347.457606 
L 194.659459 345.234769 
L 195.065684 332.896251 
L 195.471908 353.186659 
L 196.284357 347.79481 
L 196.690581 374.259855 
L 197.50303 374.190277 
L 197.909255 359.149795 
L 198.315479 358.783277 
L 198.721704 341.133219 
L 199.127928 365.288399 
L 199.534152 345.826332 
L 199.940377 353.84692 
L 200.346601 335.75014 
L 200.752826 345.006921 
L 201.15905 341.85002 
L 201.565274 351.117278 
L 201.971499 329.803529 
L 202.377723 348.969108 
L 202.783948 346.438515 
L 203.190172 350.810063 
L 203.596396 336.324966 
L 204.002621 340.43744 
L 204.408845 340.823365 
L 204.81507 345.922291 
L 205.221294 354.938978 
L 205.627518 360.168213 
L 206.033743 363.837602 
L 206.439967 346.374095 
L 206.846192 337.056851 
L 207.252416 347.27519 
L 207.65864 345.534957 
L 208.064865 351.413266 
L 208.471089 344.161754 
L 208.877314 327.402717 
L 209.283538 333.588463 
L 209.689762 351.867545 
L 210.095987 331.147464 
L 210.502211 330.26994 
L 210.908436 348.113765 
L 211.31466 347.3847 
L 211.720885 341.132211 
L 212.127109 354.184008 
L 212.533333 350.50931 
L 212.939558 360.865054 
L 213.345782 347.516218 
L 213.752007 344.587881 
L 214.158231 354.855021 
L 214.564455 351.042092 
L 214.97068 349.388507 
L 215.376904 354.059686 
L 215.783129 312.609983 
L 216.189353 352.126926 
L 216.595577 346.105576 
L 217.001802 347.470906 
L 217.408026 367.055085 
L 217.814251 342.634607 
L 218.220475 348.51542 
L 218.626699 356.24153 
L 219.032924 352.008095 
L 219.439148 359.584172 
L 219.845373 341.35787 
L 220.251597 358.212259 
L 220.657821 338.577938 
L 221.064046 324.672553 
L 221.47027 345.557313 
L 221.876495 339.94807 
L 222.282719 353.1078 
L 222.688943 357.171137 
L 223.095168 365.530138 
L 223.501392 349.86535 
L 223.907617 343.776993 
L 224.313841 344.003519 
L 224.720066 343.08699 
L 225.12629 330.640891 
L 225.532514 345.927315 
L 225.938739 341.226376 
L 226.751188 353.258161 
L 227.157412 348.590266 
L 227.969861 356.928904 
L 228.376085 364.60709 
L 228.78231 341.620353 
L 229.188534 355.840912 
L 229.594758 353.798811 
L 230.000983 361.587009 
L 230.407207 361.850749 
L 230.813432 338.800244 
L 231.219656 336.575762 
L 231.62588 358.071018 
L 232.032105 339.59683 
L 232.438329 336.143195 
L 232.844554 324.010943 
L 233.250778 339.452675 
L 233.657002 337.948758 
L 234.063227 353.069503 
L 234.469451 349.856405 
L 234.875676 347.803947 
L 235.2819 338.290692 
L 235.688124 344.080684 
L 236.094349 353.168898 
L 236.500573 339.565036 
L 236.906798 355.627074 
L 237.313022 358.922408 
L 237.719247 350.02325 
L 238.125471 345.127555 
L 238.531695 350.858107 
L 238.93792 340.755533 
L 239.344144 342.042195 
L 239.750369 365.956053 
L 240.156593 366.455151 
L 240.562817 356.062622 
L 240.969042 358.950786 
L 241.375266 357.358717 
L 241.781491 342.108103 
L 242.187715 332.427882 
L 242.593939 356.189523 
L 243.000164 347.42667 
L 243.406388 350.558426 
L 243.812613 357.714786 
L 244.218837 338.846248 
L 244.625061 348.283261 
L 245.031286 353.010322 
L 245.43751 347.312005 
L 245.843735 344.232495 
L 246.249959 353.955217 
L 246.656183 338.443669 
L 247.062408 353.851846 
L 247.468632 364.894495 
L 247.874857 355.076236 
L 248.281081 338.706922 
L 248.687305 358.619493 
L 249.09353 343.340933 
L 249.499754 357.135742 
L 249.905979 352.593154 
L 250.312203 362.172602 
L 250.718428 343.819467 
L 251.124652 352.163943 
L 251.530876 351.593667 
L 251.937101 345.249171 
L 252.343325 350.634223 
L 252.74955 346.877969 
L 253.155774 339.781358 
L 253.561998 354.061567 
L 253.968223 344.723092 
L 254.374447 350.882055 
L 254.780672 335.940639 
L 255.186896 361.221303 
L 255.999345 346.765498 
L 256.405569 344.220634 
L 256.811794 344.888126 
L 257.218018 351.230528 
L 257.624242 350.024891 
L 258.030467 333.114066 
L 258.436691 356.079857 
L 258.842916 349.729992 
L 259.24914 335.106957 
L 259.655364 348.299887 
L 260.061589 352.582556 
L 260.467813 345.013942 
L 260.874038 362.5789 
L 261.280262 340.258256 
L 261.686486 349.798925 
L 262.092711 345.444166 
L 262.498935 363.104916 
L 262.90516 341.032429 
L 263.311384 342.297473 
L 263.717609 336.287337 
L 264.123833 359.52673 
L 264.530057 343.335827 
L 264.936282 347.249144 
L 265.342506 332.103908 
L 265.748731 345.957269 
L 266.154955 342.607559 
L 266.561179 366.357909 
L 266.967404 349.887792 
L 267.373628 355.531953 
L 267.779853 338.026191 
L 268.592301 348.387714 
L 268.998526 359.151426 
L 269.40475 341.204285 
L 269.810975 331.482692 
L 270.217199 351.480819 
L 270.623423 357.422916 
L 271.029648 332.358673 
L 271.435872 352.94369 
L 271.842097 352.622851 
L 272.248321 342.52415 
L 272.654545 335.452629 
L 273.06077 365.438464 
L 273.466994 350.502338 
L 273.873219 347.683502 
L 274.279443 347.686043 
L 274.685667 352.494121 
L 275.091892 347.084645 
L 275.498116 339.090018 
L 275.904341 353.318421 
L 276.310565 352.333621 
L 276.71679 364.260387 
L 277.123014 335.78318 
L 277.529238 353.03756 
L 277.935463 340.919793 
L 278.341687 337.071736 
L 278.747912 345.489643 
L 279.154136 350.590197 
L 279.56036 342.350673 
L 279.966585 330.038717 
L 280.372809 361.403802 
L 280.779034 345.313239 
L 281.185258 355.253061 
L 281.591482 339.51617 
L 281.997707 362.654162 
L 282.403931 349.069473 
L 282.810156 341.538404 
L 283.21638 327.213967 
L 283.622604 366.025847 
L 284.028829 340.056347 
L 284.435053 338.180308 
L 284.841278 353.83183 
L 285.247502 352.54235 
L 285.653726 351.820574 
L 286.059951 348.500215 
L 286.8724 337.870398 
L 287.278624 344.607061 
L 287.684848 343.23781 
L 288.091073 354.952925 
L 288.497297 356.713021 
L 288.903522 341.559966 
L 289.309746 350.77976 
L 289.715971 346.019772 
L 290.122195 346.780503 
L 290.528419 352.76744 
L 290.934644 329.843769 
L 291.340868 322.227621 
L 291.747093 367.190159 
L 292.153317 353.590323 
L 292.559541 365.09572 
L 292.965766 335.318295 
L 293.37199 348.965323 
L 293.778215 351.012532 
L 294.184439 358.684934 
L 294.590663 341.813657 
L 294.996888 337.180829 
L 295.403112 340.49069 
L 295.809337 336.25235 
L 296.215561 326.658211 
L 296.621785 349.905791 
L 297.02801 354.719109 
L 297.434234 336.829447 
L 297.840459 350.839535 
L 298.246683 348.015427 
L 298.652907 353.350648 
L 299.465356 342.786579 
L 299.871581 330.733016 
L 300.277805 367.488803 
L 300.684029 335.524402 
L 301.090254 352.350152 
L 301.496478 343.452368 
L 301.902703 343.396559 
L 302.308927 341.965319 
L 302.715152 342.65835 
L 303.121376 349.698621 
L 303.5276 340.705926 
L 303.933825 362.174775 
L 304.340049 363.469331 
L 304.746274 357.742335 
L 305.152498 338.585519 
L 305.964947 350.117788 
L 306.371171 345.5989 
L 306.777396 351.511453 
L 307.18362 350.739548 
L 307.589844 338.82093 
L 307.996069 350.991948 
L 308.402293 358.676691 
L 308.808518 341.628072 
L 309.214742 346.99461 
L 309.620966 340.696463 
L 310.027191 346.423549 
L 310.433415 342.853056 
L 310.83964 347.84222 
L 311.245864 348.989552 
L 311.652088 345.015161 
L 312.058313 361.299054 
L 312.464537 355.282012 
L 312.870762 343.800998 
L 313.276986 353.020238 
L 313.68321 350.465415 
L 314.089435 339.99414 
L 314.495659 348.273032 
L 314.901884 333.223724 
L 315.308108 361.368422 
L 315.714333 338.49259 
L 316.120557 353.706565 
L 316.526781 346.361414 
L 316.933006 352.150768 
L 317.33923 350.511383 
L 317.745455 341.521939 
L 318.151679 366.312976 
L 318.557903 351.006879 
L 318.964128 340.906574 
L 319.370352 348.60678 
L 319.776577 349.954957 
L 320.182801 360.598248 
L 320.589025 343.860433 
L 320.99525 345.842111 
L 321.401474 345.313934 
L 322.213923 335.537462 
L 322.620147 345.504377 
L 323.026372 361.034022 
L 323.432596 350.732647 
L 323.838821 348.792391 
L 324.245045 353.809651 
L 324.651269 362.586707 
L 325.057494 348.602188 
L 325.463718 348.239744 
L 325.869943 333.678032 
L 326.276167 354.680388 
L 326.682391 327.709643 
L 327.49484 348.828765 
L 327.901065 353.6316 
L 328.307289 347.033289 
L 328.713514 357.847694 
L 329.119738 346.702902 
L 329.525962 350.09079 
L 329.932187 349.328064 
L 330.338411 339.76197 
L 330.744636 336.119618 
L 331.15086 345.805017 
L 331.557084 345.323312 
L 331.963309 362.136041 
L 332.369533 343.779927 
L 332.775758 340.30792 
L 333.181982 353.367254 
L 333.588206 330.759126 
L 333.994431 349.431717 
L 334.400655 339.945542 
L 334.80688 352.748704 
L 335.213104 357.110459 
L 335.619328 349.887772 
L 336.025553 349.797326 
L 336.431777 354.74353 
L 336.838002 342.152258 
L 337.244226 340.012263 
L 337.65045 357.562096 
L 338.056675 346.899725 
L 338.462899 364.844868 
L 338.869124 350.614689 
L 339.275348 346.427862 
L 339.681572 333.236425 
L 340.087797 355.103612 
L 340.494021 334.32372 
L 340.900246 352.303527 
L 341.712695 339.771757 
L 342.118919 349.70325 
L 342.525143 343.881216 
L 342.931368 350.613602 
L 343.337592 320.834628 
L 343.743817 359.958523 
L 344.150041 347.464256 
L 344.556265 355.364913 
L 344.96249 341.678973 
L 345.368714 343.408663 
L 345.774939 341.850963 
L 346.181163 354.00337 
L 346.587387 351.521379 
L 346.993612 335.913026 
L 347.399836 351.860731 
L 347.806061 334.923341 
L 348.212285 329.556183 
L 348.618509 343.978516 
L 349.024734 348.629689 
L 349.430958 346.203022 
L 349.837183 340.649716 
L 350.243407 346.670167 
L 350.649631 330.118298 
L 351.055856 339.048484 
L 351.46208 351.410842 
L 351.868305 354.593017 
L 352.274529 348.965904 
L 352.680753 348.233182 
L 353.086978 330.716559 
L 353.493202 351.726491 
L 353.899427 344.678543 
L 354.305651 335.364458 
L 355.1181 361.564989 
L 355.524324 343.172626 
L 355.930549 357.941984 
L 356.336773 348.179172 
L 356.742998 345.563492 
L 357.149222 359.123221 
L 357.555446 343.237473 
L 357.961671 354.28709 
L 358.367895 342.686368 
L 358.77412 335.272496 
L 359.180344 341.345412 
L 359.586568 353.514936 
L 359.992793 350.822125 
L 360.805242 354.877071 
L 361.211466 351.872742 
L 361.61769 340.447664 
L 362.023915 346.784221 
L 362.430139 343.759558 
L 362.836364 345.239069 
L 363.242588 364.726268 
L 363.648812 346.486769 
L 364.461261 348.667757 
L 364.867486 359.280676 
L 365.679934 351.186687 
L 366.086159 343.703108 
L 366.492383 353.914596 
L 366.898608 348.082562 
L 367.304832 353.586829 
L 367.711057 345.55155 
L 368.117281 360.789199 
L 368.523505 352.144174 
L 368.92973 365.252539 
L 369.335954 338.55638 
L 369.742179 347.588391 
L 370.148403 344.73958 
L 370.554627 350.795779 
L 370.960852 339.882464 
L 371.367076 342.292806 
L 371.773301 348.418157 
L 372.179525 338.41591 
L 372.585749 341.795761 
L 372.991974 350.055051 
L 373.398198 364.109438 
L 373.804423 363.384634 
L 374.210647 352.931885 
L 374.616871 337.377562 
L 375.023096 350.345146 
L 375.42932 350.043063 
L 375.835545 348.891147 
L 376.241769 352.247617 
L 376.647993 346.999307 
L 377.054218 334.96515 
L 377.460442 353.860101 
L 377.866667 360.877188 
L 378.272891 338.252883 
L 378.679115 342.558625 
L 379.08534 343.274846 
L 379.491564 357.082003 
L 379.897789 341.504867 
L 380.304013 346.20421 
L 381.116462 353.594279 
L 381.522686 336.709548 
L 381.928911 342.462519 
L 382.335135 358.718132 
L 382.74136 367.793578 
L 383.147584 352.27041 
L 383.553808 332.249866 
L 383.960033 339.304885 
L 384.366257 354.462365 
L 384.772482 363.696138 
L 385.178706 353.819745 
L 385.58493 325.447585 
L 385.991155 348.81139 
L 386.397379 337.741631 
L 386.803604 339.039508 
L 387.209828 358.997714 
L 387.616052 334.399626 
L 388.022277 360.872086 
L 388.428501 362.887674 
L 388.834726 352.47698 
L 389.24095 328.599553 
L 389.647174 344.419739 
L 390.053399 352.024974 
L 390.459623 363.831216 
L 390.865848 330.160272 
L 391.272072 352.465269 
L 391.678296 356.373115 
L 392.084521 349.570464 
L 392.490745 347.287259 
L 392.89697 356.570244 
L 393.303194 350.211997 
L 393.709419 356.400539 
L 394.115643 354.55341 
L 394.521867 333.501546 
L 394.928092 345.211699 
L 395.334316 335.738487 
L 395.740541 362.502745 
L 396.146765 340.728296 
L 396.552989 345.641105 
L 396.959214 345.324521 
L 397.365438 330.947005 
L 397.771663 335.366274 
L 398.177887 352.418559 
L 398.584111 351.376783 
L 398.990336 342.207101 
L 399.39656 354.812406 
L 399.802785 356.345974 
L 400.209009 349.844141 
L 400.615233 348.451647 
L 401.021458 329.977204 
L 401.427682 359.432307 
L 401.833907 350.002179 
L 402.240131 352.095609 
L 402.646355 361.075065 
L 403.05258 349.585671 
L 403.458804 350.06439 
L 403.865029 360.004861 
L 404.271253 352.423336 
L 404.677477 337.559605 
L 405.083702 348.944011 
L 405.489926 345.828802 
L 405.896151 360.748862 
L 406.302375 359.244694 
L 406.7086 351.702516 
L 407.114824 331.652731 
L 407.521048 332.776438 
L 407.927273 338.852037 
L 408.333497 363.588909 
L 408.739722 344.36317 
L 409.145946 355.303784 
L 409.55217 343.2693 
L 409.958395 337.297771 
L 410.364619 353.717597 
L 410.770844 351.899157 
L 411.177068 352.17536 
L 411.989517 360.716071 
L 412.395741 330.583279 
L 412.801966 337.933911 
L 413.20819 337.006486 
L 413.614414 343.332884 
L 414.020639 352.899285 
L 414.426863 321.382004 
L 414.833088 363.973626 
L 415.239312 352.700821 
L 415.645536 369.074272 
L 416.457985 359.736175 
L 416.86421 354.027612 
L 417.270434 201.826072 
L 417.676658 195.551313 
L 498.109091 195.551313 
L 498.109091 195.551313 
" style="fill:none;stroke:#0000ff;stroke-linecap:square;stroke-width:1.5;"/>
   </g>
   <g id="line2d_14">
    <path clip-path="url(#p899bea6ee0)" d="M 92.290909 231.380624 
L 92.697133 226.465746 
L 93.103358 224.483734 
L 93.509582 223.943176 
L 93.915807 223.869021 
L 94.322031 224.870913 
L 94.728256 226.244936 
L 95.13448 226.374055 
L 95.946929 224.499902 
L 96.353153 224.572815 
L 96.759378 222.455026 
L 97.571826 226.005601 
L 97.978051 224.256602 
L 98.7905 227.560973 
L 99.196724 223.828599 
L 99.602948 226.115743 
L 100.009173 224.390479 
L 100.415397 224.655929 
L 100.821622 225.538424 
L 101.63407 224.663564 
L 102.040295 225.759792 
L 102.446519 223.964356 
L 102.852744 224.865024 
L 103.258968 224.903509 
L 103.665192 227.299312 
L 104.071417 225.046019 
L 104.477641 223.515018 
L 105.29009 225.42359 
L 106.102539 225.464835 
L 106.508763 225.078211 
L 106.914988 222.992614 
L 107.727437 224.920432 
L 108.133661 224.863053 
L 108.539885 223.091664 
L 108.94611 224.106369 
L 109.352334 223.886445 
L 109.758559 224.660189 
L 110.571007 222.96195 
L 110.977232 226.278133 
L 111.383456 225.11276 
L 111.789681 222.792699 
L 112.195905 224.068699 
L 112.602129 226.388765 
L 113.008354 225.747637 
L 113.414578 223.66639 
L 113.820803 227.468047 
L 114.227027 225.385278 
L 114.633251 226.281152 
L 115.039476 223.224476 
L 115.4457 226.051852 
L 115.851925 223.612273 
L 116.258149 224.689036 
L 116.664373 225.240286 
L 117.070598 225.527526 
L 117.476822 224.847986 
L 117.883047 225.409416 
L 118.695495 222.394323 
L 119.10172 225.009443 
L 119.507944 224.390604 
L 119.914169 226.282678 
L 120.320393 223.601708 
L 120.726618 224.697733 
L 121.132842 224.074567 
L 121.539066 223.146988 
L 121.945291 225.575654 
L 122.351515 223.769838 
L 122.75774 223.07055 
L 123.163964 224.609756 
L 123.570188 225.634133 
L 123.976413 225.015087 
L 124.382637 223.84571 
L 124.788862 224.269551 
L 125.195086 224.016259 
L 125.60131 224.86051 
L 126.007535 222.561376 
L 126.413759 227.114433 
L 126.819984 222.618085 
L 127.226208 223.3746 
L 127.632432 224.969882 
L 128.038657 225.401703 
L 128.444881 224.47431 
L 128.851106 227.277859 
L 129.25733 225.392979 
L 129.663554 224.283316 
L 130.069779 224.43899 
L 130.476003 223.132787 
L 130.882228 226.169623 
L 131.288452 225.803541 
L 131.694676 225.850184 
L 132.100901 225.100721 
L 132.507125 224.071969 
L 132.91335 223.980324 
L 133.319574 224.279482 
L 133.725799 223.512221 
L 134.132023 225.291282 
L 134.538247 224.945108 
L 134.944472 225.850619 
L 135.350696 224.370488 
L 135.756921 224.130078 
L 136.163145 223.516838 
L 136.569369 224.535289 
L 136.975594 224.022403 
L 137.381818 224.895987 
L 137.788043 224.476468 
L 138.194267 223.579304 
L 138.600491 224.50817 
L 139.006716 223.705864 
L 139.41294 225.255229 
L 139.819165 223.770052 
L 141.037838 224.761264 
L 141.444062 223.754031 
L 141.850287 224.555328 
L 142.256511 224.464271 
L 142.662735 225.379006 
L 143.06896 223.404932 
L 143.475184 225.746184 
L 143.881409 224.425917 
L 144.287633 225.641953 
L 144.693857 224.341091 
L 145.100082 225.699474 
L 145.506306 223.692062 
L 146.318755 222.99158 
L 146.72498 225.521648 
L 147.131204 224.333884 
L 147.537428 224.784752 
L 147.943653 226.068125 
L 148.349877 223.810284 
L 148.756102 223.488371 
L 149.162326 223.676968 
L 149.56855 223.424428 
L 149.974775 222.557973 
L 150.787224 224.850195 
L 151.193448 224.099861 
L 151.599672 222.934618 
L 152.005897 223.435503 
L 152.412121 222.489312 
L 152.818346 224.85973 
L 153.22457 222.751533 
L 153.630794 224.393719 
L 154.037019 224.29273 
L 154.849468 224.678733 
L 155.255692 224.135085 
L 155.661916 225.369887 
L 156.068141 225.547709 
L 156.474365 224.408514 
L 156.88059 222.472371 
L 157.286814 224.987462 
L 157.693038 223.884457 
L 158.099263 223.645117 
L 158.505487 224.970088 
L 158.911712 224.713632 
L 159.317936 223.473065 
L 159.724161 224.972144 
L 160.130385 225.557054 
L 160.536609 223.656621 
L 161.349058 225.149309 
L 161.755283 225.209544 
L 162.161507 224.563781 
L 162.567731 224.908496 
L 162.973956 224.608192 
L 163.38018 222.822068 
L 163.786405 224.144149 
L 164.598853 224.500113 
L 165.005078 224.727325 
L 165.411302 224.376182 
L 165.817527 224.622624 
L 166.223751 222.518305 
L 166.629975 224.329968 
L 167.0362 224.000456 
L 167.442424 224.453137 
L 167.848649 222.80936 
L 168.254873 225.563972 
L 168.661097 224.549677 
L 169.067322 224.067584 
L 169.473546 222.400444 
L 169.879771 224.944603 
L 170.285995 223.917392 
L 170.692219 224.940231 
L 171.098444 223.518701 
L 171.504668 224.945528 
L 171.910893 225.661801 
L 172.723342 223.395259 
L 173.129566 223.49607 
L 173.53579 224.616599 
L 173.942015 225.138434 
L 174.348239 225.170344 
L 174.754464 224.626166 
L 175.160688 225.414203 
L 175.566912 225.055952 
L 175.973137 223.091416 
L 176.379361 223.589565 
L 176.785586 225.408357 
L 177.19181 225.598756 
L 177.598034 224.692504 
L 178.004259 224.563867 
L 178.410483 224.140999 
L 178.816708 223.092757 
L 179.222932 222.890251 
L 179.629156 223.645102 
L 180.035381 224.811767 
L 180.441605 225.244381 
L 180.84783 224.80153 
L 181.660278 225.128564 
L 182.066503 223.432718 
L 182.472727 223.799308 
L 182.878952 224.692252 
L 183.285176 224.590937 
L 183.6914 222.968536 
L 184.097625 226.130654 
L 184.503849 222.678357 
L 184.910074 224.748571 
L 185.316298 223.86285 
L 185.722523 225.233169 
L 186.128747 224.920891 
L 186.534971 224.10975 
L 186.941196 224.798433 
L 187.34742 223.689574 
L 187.753645 223.711692 
L 188.972318 225.029224 
L 189.378542 223.322644 
L 189.784767 224.084124 
L 191.00344 223.263119 
L 191.409664 223.927652 
L 191.815889 223.114783 
L 192.222113 225.597709 
L 192.628337 225.502323 
L 193.034562 224.329462 
L 193.440786 224.489217 
L 193.847011 223.819736 
L 194.253235 224.817056 
L 195.065684 223.492325 
L 195.471908 224.724881 
L 195.878133 225.445199 
L 196.284357 223.283119 
L 197.096806 221.54687 
L 197.50303 220.342913 
L 197.909255 224.132949 
L 198.315479 224.339218 
L 198.721704 225.467993 
L 199.127928 225.136964 
L 199.534152 223.895314 
L 199.940377 224.488763 
L 200.346601 223.715527 
L 200.752826 224.368215 
L 201.15905 224.433126 
L 201.565274 222.662731 
L 201.971499 223.615033 
L 202.377723 221.557965 
L 202.783948 224.03068 
L 203.190172 224.704034 
L 203.596396 223.501665 
L 204.002621 223.036992 
L 204.408845 223.585001 
L 204.81507 224.761094 
L 205.221294 224.315768 
L 206.033743 224.914564 
L 206.439967 224.382455 
L 206.846192 224.370289 
L 207.252416 225.333333 
L 208.064865 223.001827 
L 208.471089 224.182537 
L 208.877314 224.421853 
L 209.689762 222.945802 
L 210.502211 224.073507 
L 210.908436 223.313457 
L 211.31466 224.483571 
L 211.720885 223.711812 
L 212.127109 225.101392 
L 212.533333 223.293921 
L 212.939558 225.537705 
L 213.345782 224.491779 
L 213.752007 223.920707 
L 214.564455 225.804041 
L 215.376904 224.2298 
L 216.189353 224.718702 
L 216.595577 224.413822 
L 217.001802 223.894355 
L 217.408026 224.3931 
L 217.814251 223.367654 
L 218.220475 224.604877 
L 218.626699 224.215142 
L 219.032924 223.616609 
L 219.439148 225.390499 
L 219.845373 223.654706 
L 220.251597 224.709952 
L 220.657821 224.058976 
L 221.064046 222.89192 
L 221.47027 223.517056 
L 221.876495 224.533926 
L 222.282719 223.668962 
L 222.688943 225.214339 
L 223.095168 225.290157 
L 223.501392 224.531947 
L 223.907617 224.389764 
L 224.313841 225.948628 
L 224.720066 224.148911 
L 225.532514 223.429382 
L 225.938739 224.026887 
L 226.344963 223.887038 
L 226.751188 224.312543 
L 227.157412 225.111599 
L 227.563636 223.017244 
L 227.969861 224.362068 
L 228.376085 223.982646 
L 228.78231 223.357855 
L 229.188534 224.042623 
L 229.594758 225.489806 
L 230.000983 224.928202 
L 230.407207 225.118539 
L 230.813432 222.871732 
L 231.219656 224.002018 
L 231.62588 224.431464 
L 232.032105 224.258399 
L 232.438329 222.969255 
L 232.844554 224.816246 
L 233.250778 223.882678 
L 233.657002 224.623902 
L 234.063227 224.253805 
L 234.469451 224.509171 
L 234.875676 224.237228 
L 235.2819 223.344847 
L 235.688124 224.411682 
L 236.094349 224.523849 
L 236.906798 223.650019 
L 237.313022 224.316549 
L 237.719247 224.632837 
L 238.125471 223.223728 
L 238.531695 224.593621 
L 238.93792 224.449269 
L 239.344144 223.448393 
L 239.750369 225.371555 
L 240.156593 223.81476 
L 240.562817 224.928326 
L 240.969042 225.499802 
L 241.375266 224.811332 
L 241.781491 224.734762 
L 242.187715 224.136647 
L 242.593939 225.697213 
L 243.406388 222.984289 
L 243.812613 224.685324 
L 244.218837 224.403748 
L 244.625061 225.275354 
L 245.031286 224.52709 
L 245.43751 225.116284 
L 245.843735 223.866658 
L 246.249959 226.189413 
L 246.656183 224.914959 
L 247.062408 224.716215 
L 247.468632 224.91932 
L 247.874857 224.868495 
L 248.281081 223.550941 
L 248.687305 224.081158 
L 249.09353 225.018514 
L 249.499754 224.148256 
L 249.905979 224.026283 
L 250.312203 226.203361 
L 251.124652 222.899244 
L 251.530876 223.263289 
L 251.937101 224.150219 
L 252.343325 223.959278 
L 252.74955 224.362546 
L 253.155774 223.34131 
L 253.561998 225.378212 
L 253.968223 224.222165 
L 254.374447 223.636212 
L 254.780672 223.993021 
L 255.186896 225.119045 
L 255.59312 222.429643 
L 255.999345 225.043447 
L 256.405569 223.56338 
L 256.811794 224.347997 
L 257.218018 224.296397 
L 257.624242 222.877448 
L 258.030467 224.653776 
L 259.24914 222.726178 
L 259.655364 224.359079 
L 260.061589 224.620786 
L 260.467813 223.244206 
L 260.874038 225.419386 
L 261.280262 223.403182 
L 261.686486 224.508681 
L 262.092711 224.311137 
L 262.498935 226.019289 
L 262.90516 223.974636 
L 263.311384 224.29981 
L 263.717609 223.353422 
L 264.123833 224.778216 
L 264.530057 224.307863 
L 264.936282 224.525171 
L 265.342506 224.140045 
L 265.748731 224.027798 
L 266.154955 224.961595 
L 266.561179 224.894924 
L 266.967404 223.808886 
L 267.373628 224.005554 
L 267.779853 223.11268 
L 268.186077 222.934346 
L 268.998526 224.188522 
L 269.40475 225.522271 
L 269.810975 223.125402 
L 270.217199 224.398829 
L 270.623423 222.942433 
L 271.029648 224.393478 
L 271.435872 223.428417 
L 271.842097 224.618923 
L 272.248321 223.081176 
L 272.654545 224.389468 
L 273.06077 224.324827 
L 273.466994 225.462384 
L 273.873219 224.287679 
L 274.279443 224.376666 
L 274.685667 224.626604 
L 275.091892 223.762442 
L 275.498116 224.64701 
L 275.904341 223.968093 
L 276.310565 224.489777 
L 276.71679 224.682841 
L 277.123014 224.672489 
L 277.529238 224.922047 
L 277.935463 222.707685 
L 278.341687 222.948135 
L 278.747912 224.533182 
L 279.154136 225.042639 
L 279.966585 223.066093 
L 280.372809 224.588497 
L 280.779034 223.496459 
L 281.185258 222.849213 
L 281.997707 224.798337 
L 282.403931 225.082487 
L 282.810156 223.841767 
L 283.21638 224.311492 
L 283.622604 224.14831 
L 284.028829 223.41385 
L 284.435053 223.488216 
L 284.841278 222.597378 
L 285.247502 224.468993 
L 285.653726 224.411616 
L 286.059951 223.459217 
L 286.466175 224.575095 
L 286.8724 222.959688 
L 287.278624 223.990722 
L 287.684848 222.850583 
L 288.091073 224.434721 
L 288.497297 223.735837 
L 288.903522 223.925674 
L 289.309746 225.540163 
L 289.715971 223.563233 
L 290.122195 223.585764 
L 290.528419 224.890518 
L 290.934644 225.100309 
L 291.340868 223.038605 
L 291.747093 226.004835 
L 292.153317 224.993902 
L 292.559541 224.911466 
L 292.965766 224.315231 
L 293.37199 224.336421 
L 293.778215 225.623273 
L 294.590663 224.133046 
L 294.996888 224.491555 
L 295.403112 224.207 
L 295.809337 223.760882 
L 296.215561 224.23795 
L 296.621785 225.231237 
L 297.02801 225.024033 
L 297.434234 224.98313 
L 297.840459 225.350845 
L 298.246683 223.974808 
L 298.652907 224.849889 
L 299.059132 225.24047 
L 299.465356 224.94622 
L 299.871581 223.50459 
L 300.277805 224.308088 
L 300.684029 225.922713 
L 301.090254 223.934715 
L 301.496478 224.152339 
L 301.902703 224.995613 
L 302.308927 224.011195 
L 302.715152 224.510609 
L 303.121376 223.444963 
L 303.5276 224.890538 
L 303.933825 224.271585 
L 304.340049 225.438521 
L 304.746274 223.162307 
L 305.152498 225.102032 
L 305.558722 224.318443 
L 305.964947 224.901336 
L 306.371171 224.270327 
L 306.777396 224.741109 
L 307.18362 224.533284 
L 307.589844 224.523826 
L 307.996069 225.001086 
L 308.402293 225.051948 
L 308.808518 224.858122 
L 309.214742 224.003527 
L 309.620966 223.839481 
L 310.027191 224.667771 
L 310.433415 224.414412 
L 310.83964 224.552645 
L 311.245864 223.744712 
L 311.652088 225.006808 
L 312.058313 223.898265 
L 312.464537 224.809064 
L 312.870762 225.361625 
L 313.276986 223.7272 
L 313.68321 224.77528 
L 314.089435 224.144695 
L 314.495659 226.189964 
L 314.901884 222.520427 
L 315.308108 224.997435 
L 315.714333 224.763351 
L 316.120557 223.823052 
L 316.526781 224.898978 
L 316.933006 224.175109 
L 317.33923 224.298485 
L 317.745455 224.273291 
L 318.151679 226.174634 
L 318.557903 225.250472 
L 318.964128 225.360341 
L 319.776577 224.034848 
L 320.182801 225.220475 
L 320.589025 224.958483 
L 320.99525 224.338945 
L 321.401474 222.025175 
L 321.807699 223.77472 
L 322.213923 224.683392 
L 322.620147 224.642494 
L 323.026372 225.306498 
L 323.432596 224.019924 
L 323.838821 226.305166 
L 324.245045 223.149958 
L 324.651269 225.85043 
L 325.057494 223.70793 
L 325.463718 224.696425 
L 325.869943 224.549272 
L 326.276167 225.529628 
L 326.682391 224.138445 
L 327.088616 224.068345 
L 327.49484 224.162159 
L 327.901065 224.920738 
L 328.307289 224.734105 
L 328.713514 225.897422 
L 329.119738 224.633283 
L 329.525962 224.285904 
L 329.932187 224.365305 
L 330.338411 223.528279 
L 330.744636 224.725159 
L 331.557084 224.590114 
L 331.963309 224.714968 
L 332.369533 225.359134 
L 332.775758 223.751511 
L 333.181982 224.467786 
L 333.588206 224.208707 
L 333.994431 223.767669 
L 334.400655 224.174613 
L 334.80688 224.095152 
L 335.213104 224.748059 
L 335.619328 222.724805 
L 336.025553 224.787884 
L 336.431777 225.926257 
L 336.838002 224.28649 
L 337.244226 225.259527 
L 337.65045 224.558694 
L 338.056675 224.974055 
L 338.462899 226.019755 
L 338.869124 224.964294 
L 339.275348 225.184815 
L 339.681572 224.60454 
L 340.087797 222.742328 
L 340.494021 224.181119 
L 340.900246 224.933282 
L 341.30647 225.064827 
L 341.712695 224.24432 
L 342.118919 225.236853 
L 342.525143 224.554955 
L 343.337592 224.246813 
L 343.743817 224.385226 
L 344.150041 224.815002 
L 344.556265 225.031069 
L 344.96249 224.760317 
L 345.368714 224.152194 
L 345.774939 223.942857 
L 346.181163 225.665405 
L 347.806061 224.387727 
L 348.212285 224.523721 
L 348.618509 225.948484 
L 349.024734 225.628906 
L 349.430958 223.689056 
L 349.837183 224.434923 
L 350.243407 224.731126 
L 350.649631 226.364935 
L 351.055856 224.601708 
L 351.46208 225.08931 
L 351.868305 225.193376 
L 352.274529 224.734947 
L 352.680753 224.009614 
L 353.086978 224.49188 
L 353.493202 225.649148 
L 353.899427 225.860315 
L 354.711876 225.687449 
L 355.1181 225.119704 
L 355.524324 223.468089 
L 355.930549 223.583054 
L 356.336773 224.683877 
L 356.742998 224.955388 
L 357.149222 225.638739 
L 357.555446 224.643655 
L 357.961671 225.802352 
L 358.367895 224.487493 
L 359.180344 224.91571 
L 359.586568 225.480803 
L 359.992793 225.460809 
L 360.399017 224.916051 
L 360.805242 224.593097 
L 361.211466 225.653613 
L 361.61769 225.153562 
L 362.023915 223.611751 
L 362.430139 225.326659 
L 362.836364 225.917775 
L 363.242588 224.177843 
L 363.648812 224.981742 
L 364.055037 225.262351 
L 364.461261 224.953175 
L 364.867486 225.784497 
L 365.27371 226.048721 
L 365.679934 224.587792 
L 366.086159 225.533569 
L 366.492383 226.180323 
L 366.898608 225.497966 
L 367.304832 226.313923 
L 367.711057 224.975872 
L 368.117281 227.445967 
L 368.523505 225.495284 
L 368.92973 226.877288 
L 369.335954 224.921767 
L 369.742179 225.577967 
L 370.148403 225.034997 
L 370.554627 224.96594 
L 370.960852 224.26821 
L 371.367076 224.809995 
L 371.773301 225.805292 
L 372.179525 225.82793 
L 372.585749 224.393128 
L 372.991974 223.766485 
L 373.398198 226.600942 
L 373.804423 225.702993 
L 374.210647 226.232147 
L 374.616871 224.701394 
L 375.023096 225.227192 
L 375.42932 225.359199 
L 375.835545 224.600934 
L 376.241769 225.849826 
L 376.647993 225.215978 
L 377.460442 226.148378 
L 377.866667 224.721453 
L 378.272891 224.936462 
L 378.679115 224.939333 
L 379.08534 226.327029 
L 379.491564 225.720912 
L 379.897789 226.405847 
L 380.304013 226.741651 
L 380.710238 225.218994 
L 382.335135 225.212614 
L 382.74136 227.720935 
L 383.553808 225.731444 
L 383.960033 225.348294 
L 384.366257 226.160965 
L 384.772482 225.305867 
L 385.178706 227.148462 
L 385.58493 225.47425 
L 385.991155 225.30639 
L 386.397379 226.216974 
L 386.803604 225.499139 
L 387.209828 226.202223 
L 387.616052 225.382197 
L 388.022277 225.502249 
L 388.428501 226.649292 
L 388.834726 225.940566 
L 389.24095 225.782572 
L 389.647174 225.926604 
L 390.053399 227.042969 
L 390.459623 226.642823 
L 390.865848 225.575096 
L 391.272072 225.94059 
L 391.678296 226.7504 
L 392.084521 225.946512 
L 392.490745 227.145374 
L 392.89697 226.869852 
L 393.303194 227.303249 
L 394.115643 227.77262 
L 394.521867 226.020248 
L 394.928092 227.56322 
L 395.334316 224.460262 
L 395.740541 227.493731 
L 396.146765 226.24668 
L 396.552989 226.513745 
L 396.959214 227.781511 
L 397.365438 225.504855 
L 398.177887 227.865971 
L 398.584111 228.472908 
L 398.990336 226.154384 
L 399.39656 227.211624 
L 400.209009 226.38939 
L 400.615233 226.705979 
L 401.021458 225.668466 
L 401.427682 226.470367 
L 401.833907 226.936649 
L 402.646355 226.944756 
L 403.05258 225.605364 
L 403.458804 225.623679 
L 403.865029 226.926565 
L 404.271253 227.852157 
L 404.677477 226.221169 
L 405.083702 228.151834 
L 405.489926 227.821074 
L 405.896151 227.091729 
L 406.302375 225.096448 
L 406.7086 227.349756 
L 407.114824 226.093833 
L 407.521048 226.339511 
L 407.927273 226.879464 
L 408.333497 226.881576 
L 408.739722 226.365086 
L 409.145946 229.870482 
L 409.55217 225.987223 
L 409.958395 227.585972 
L 410.364619 226.920623 
L 411.177068 228.534824 
L 411.583292 227.272152 
L 411.989517 227.717618 
L 412.395741 228.652544 
L 412.801966 228.103536 
L 413.20819 226.630673 
L 413.614414 227.336568 
L 414.020639 228.61537 
L 414.426863 226.292145 
L 415.239312 228.188167 
L 415.645536 228.481777 
L 416.051761 227.380771 
L 416.457985 228.244374 
L 416.86421 227.105534 
L 417.270434 311.708676 
L 417.676658 313.215016 
L 498.109091 313.215016 
L 498.109091 313.215016 
" style="fill:none;stroke:#008000;stroke-linecap:square;stroke-width:1.5;"/>
   </g>
   <g id="patch_3">
    <path d="M 72 384.48 
L 72 51.84 
" style="fill:none;stroke:#000000;stroke-linecap:square;stroke-linejoin:miter;stroke-width:0.8;"/>
   </g>
   <g id="patch_4">
    <path d="M 518.4 384.48 
L 518.4 51.84 
" style="fill:none;stroke:#000000;stroke-linecap:square;stroke-linejoin:miter;stroke-width:0.8;"/>
   </g>
   <g id="patch_5">
    <path d="M 72 384.48 
L 518.4 384.48 
" style="fill:none;stroke:#000000;stroke-linecap:square;stroke-linejoin:miter;stroke-width:0.8;"/>
   </g>
   <g id="patch_6">
    <path d="M 72 51.84 
L 518.4 51.84 
" style="fill:none;stroke:#000000;stroke-linecap:square;stroke-linejoin:miter;stroke-width:0.8;"/>
   </g>
   <g id="legend_1">
    <g id="patch_7">
     <path d="M 79 89.19625 
L 156.107812 89.19625 
Q 158.107812 89.19625 158.107812 87.19625 
L 158.107812 58.84 
Q 158.107812 56.84 156.107812 56.84 
L 79 56.84 
Q 77 56.84 77 58.84 
L 77 87.19625 
Q 77 89.19625 79 89.19625 
z
" style="fill:#ffffff;opacity:0.8;stroke:#cccccc;stroke-linejoin:miter;"/>
    </g>
    <g id="line2d_15">
     <path d="M 81 64.938437 
L 101 64.938437 
" style="fill:none;stroke:#0000ff;stroke-linecap:square;stroke-width:1.5;"/>
    </g>
    <g id="line2d_16"/>
    <g id="text_15">
     <!-- precision -->
     <g transform="translate(109 68.438437)scale(0.1 -0.1)">
      <defs>
       <path d="M 9.421875 54.6875 
L 18.40625 54.6875 
L 18.40625 0 
L 9.421875 0 
z
M 9.421875 75.984375 
L 18.40625 75.984375 
L 18.40625 64.59375 
L 9.421875 64.59375 
z
" id="DejaVuSans-105"/>
       <path d="M 44.28125 53.078125 
L 44.28125 44.578125 
Q 40.484375 46.53125 36.375 47.5 
Q 32.28125 48.484375 27.875 48.484375 
Q 21.1875 48.484375 17.84375 46.4375 
Q 14.5 44.390625 14.5 40.28125 
Q 14.5 37.15625 16.890625 35.375 
Q 19.28125 33.59375 26.515625 31.984375 
L 29.59375 31.296875 
Q 39.15625 29.25 43.1875 25.515625 
Q 47.21875 21.78125 47.21875 15.09375 
Q 47.21875 7.46875 41.1875 3.015625 
Q 35.15625 -1.421875 24.609375 -1.421875 
Q 20.21875 -1.421875 15.453125 -0.5625 
Q 10.6875 0.296875 5.421875 2 
L 5.421875 11.28125 
Q 10.40625 8.6875 15.234375 7.390625 
Q 20.0625 6.109375 24.8125 6.109375 
Q 31.15625 6.109375 34.5625 8.28125 
Q 37.984375 10.453125 37.984375 14.40625 
Q 37.984375 18.0625 35.515625 20.015625 
Q 33.0625 21.96875 24.703125 23.78125 
L 21.578125 24.515625 
Q 13.234375 26.265625 9.515625 29.90625 
Q 5.8125 33.546875 5.8125 39.890625 
Q 5.8125 47.609375 11.28125 51.796875 
Q 16.75 56 26.8125 56 
Q 31.78125 56 36.171875 55.265625 
Q 40.578125 54.546875 44.28125 53.078125 
z
" id="DejaVuSans-115"/>
       <path d="M 54.890625 33.015625 
L 54.890625 0 
L 45.90625 0 
L 45.90625 32.71875 
Q 45.90625 40.484375 42.875 44.328125 
Q 39.84375 48.1875 33.796875 48.1875 
Q 26.515625 48.1875 22.3125 43.546875 
Q 18.109375 38.921875 18.109375 30.90625 
L 18.109375 0 
L 9.078125 0 
L 9.078125 54.6875 
L 18.109375 54.6875 
L 18.109375 46.1875 
Q 21.34375 51.125 25.703125 53.5625 
Q 30.078125 56 35.796875 56 
Q 45.21875 56 50.046875 50.171875 
Q 54.890625 44.34375 54.890625 33.015625 
z
" id="DejaVuSans-110"/>
      </defs>
      <use xlink:href="#DejaVuSans-112"/>
      <use x="63.476562" xlink:href="#DejaVuSans-114"/>
      <use x="102.339844" xlink:href="#DejaVuSans-101"/>
      <use x="163.863281" xlink:href="#DejaVuSans-99"/>
      <use x="218.84375" xlink:href="#DejaVuSans-105"/>
      <use x="246.626953" xlink:href="#DejaVuSans-115"/>
      <use x="298.726562" xlink:href="#DejaVuSans-105"/>
      <use x="326.509766" xlink:href="#DejaVuSans-111"/>
      <use x="387.691406" xlink:href="#DejaVuSans-110"/>
     </g>
    </g>
    <g id="line2d_17">
     <path d="M 81 79.616562 
L 101 79.616562 
" style="fill:none;stroke:#008000;stroke-linecap:square;stroke-width:1.5;"/>
    </g>
    <g id="line2d_18"/>
    <g id="text_16">
     <!-- recall -->
     <g transform="translate(109 83.116562)scale(0.1 -0.1)">
      <defs>
       <path d="M 9.421875 75.984375 
L 18.40625 75.984375 
L 18.40625 0 
L 9.421875 0 
z
" id="DejaVuSans-108"/>
      </defs>
      <use xlink:href="#DejaVuSans-114"/>
      <use x="38.863281" xlink:href="#DejaVuSans-101"/>
      <use x="100.386719" xlink:href="#DejaVuSans-99"/>
      <use x="155.367188" xlink:href="#DejaVuSans-97"/>
      <use x="216.646484" xlink:href="#DejaVuSans-108"/>
      <use x="244.429688" xlink:href="#DejaVuSans-108"/>
     </g>
    </g>
   </g>
  </g>
  <g id="axes_2">
   <g id="matplotlib.axis_3">
    <g id="ytick_7">
     <g id="line2d_19">
      <defs>
       <path d="M 0 0 
L 3.5 0 
" id="mdcdec85e12" style="stroke:#000000;stroke-width:0.8;"/>
      </defs>
      <g>
       <use style="stroke:#000000;stroke-width:0.8;" x="518.4" xlink:href="#mdcdec85e12" y="374.935615"/>
      </g>
     </g>
     <g id="text_17">
      <!-- 0 -->
      <g transform="translate(525.4 378.734833)scale(0.1 -0.1)">
       <use xlink:href="#DejaVuSans-48"/>
      </g>
     </g>
    </g>
    <g id="ytick_8">
     <g id="line2d_20">
      <g>
       <use style="stroke:#000000;stroke-width:0.8;" x="518.4" xlink:href="#mdcdec85e12" y="330.380087"/>
      </g>
     </g>
     <g id="text_18">
      <!-- 5 -->
      <g transform="translate(525.4 334.179306)scale(0.1 -0.1)">
       <defs>
        <path d="M 10.796875 72.90625 
L 49.515625 72.90625 
L 49.515625 64.59375 
L 19.828125 64.59375 
L 19.828125 46.734375 
Q 21.96875 47.46875 24.109375 47.828125 
Q 26.265625 48.1875 28.421875 48.1875 
Q 40.625 48.1875 47.75 41.5 
Q 54.890625 34.8125 54.890625 23.390625 
Q 54.890625 11.625 47.5625 5.09375 
Q 40.234375 -1.421875 26.90625 -1.421875 
Q 22.3125 -1.421875 17.546875 -0.640625 
Q 12.796875 0.140625 7.71875 1.703125 
L 7.71875 11.625 
Q 12.109375 9.234375 16.796875 8.0625 
Q 21.484375 6.890625 26.703125 6.890625 
Q 35.15625 6.890625 40.078125 11.328125 
Q 45.015625 15.765625 45.015625 23.390625 
Q 45.015625 31 40.078125 35.4375 
Q 35.15625 39.890625 26.703125 39.890625 
Q 22.75 39.890625 18.8125 39.015625 
Q 14.890625 38.140625 10.796875 36.28125 
z
" id="DejaVuSans-53"/>
       </defs>
       <use xlink:href="#DejaVuSans-53"/>
      </g>
     </g>
    </g>
    <g id="ytick_9">
     <g id="line2d_21">
      <g>
       <use style="stroke:#000000;stroke-width:0.8;" x="518.4" xlink:href="#mdcdec85e12" y="285.82456"/>
      </g>
     </g>
     <g id="text_19">
      <!-- 10 -->
      <g transform="translate(525.4 289.623778)scale(0.1 -0.1)">
       <use xlink:href="#DejaVuSans-49"/>
       <use x="63.623047" xlink:href="#DejaVuSans-48"/>
      </g>
     </g>
    </g>
    <g id="ytick_10">
     <g id="line2d_22">
      <g>
       <use style="stroke:#000000;stroke-width:0.8;" x="518.4" xlink:href="#mdcdec85e12" y="241.269032"/>
      </g>
     </g>
     <g id="text_20">
      <!-- 15 -->
      <g transform="translate(525.4 245.068251)scale(0.1 -0.1)">
       <use xlink:href="#DejaVuSans-49"/>
       <use x="63.623047" xlink:href="#DejaVuSans-53"/>
      </g>
     </g>
    </g>
    <g id="ytick_11">
     <g id="line2d_23">
      <g>
       <use style="stroke:#000000;stroke-width:0.8;" x="518.4" xlink:href="#mdcdec85e12" y="196.713505"/>
      </g>
     </g>
     <g id="text_21">
      <!-- 20 -->
      <g transform="translate(525.4 200.512723)scale(0.1 -0.1)">
       <use xlink:href="#DejaVuSans-50"/>
       <use x="63.623047" xlink:href="#DejaVuSans-48"/>
      </g>
     </g>
    </g>
    <g id="ytick_12">
     <g id="line2d_24">
      <g>
       <use style="stroke:#000000;stroke-width:0.8;" x="518.4" xlink:href="#mdcdec85e12" y="152.157977"/>
      </g>
     </g>
     <g id="text_22">
      <!-- 25 -->
      <g transform="translate(525.4 155.957196)scale(0.1 -0.1)">
       <use xlink:href="#DejaVuSans-50"/>
       <use x="63.623047" xlink:href="#DejaVuSans-53"/>
      </g>
     </g>
    </g>
    <g id="ytick_13">
     <g id="line2d_25">
      <g>
       <use style="stroke:#000000;stroke-width:0.8;" x="518.4" xlink:href="#mdcdec85e12" y="107.60245"/>
      </g>
     </g>
     <g id="text_23">
      <!-- 30 -->
      <g transform="translate(525.4 111.401668)scale(0.1 -0.1)">
       <defs>
        <path d="M 40.578125 39.3125 
Q 47.65625 37.796875 51.625 33 
Q 55.609375 28.21875 55.609375 21.1875 
Q 55.609375 10.40625 48.1875 4.484375 
Q 40.765625 -1.421875 27.09375 -1.421875 
Q 22.515625 -1.421875 17.65625 -0.515625 
Q 12.796875 0.390625 7.625 2.203125 
L 7.625 11.71875 
Q 11.71875 9.328125 16.59375 8.109375 
Q 21.484375 6.890625 26.8125 6.890625 
Q 36.078125 6.890625 40.9375 10.546875 
Q 45.796875 14.203125 45.796875 21.1875 
Q 45.796875 27.640625 41.28125 31.265625 
Q 36.765625 34.90625 28.71875 34.90625 
L 20.21875 34.90625 
L 20.21875 43.015625 
L 29.109375 43.015625 
Q 36.375 43.015625 40.234375 45.921875 
Q 44.09375 48.828125 44.09375 54.296875 
Q 44.09375 59.90625 40.109375 62.90625 
Q 36.140625 65.921875 28.71875 65.921875 
Q 24.65625 65.921875 20.015625 65.03125 
Q 15.375 64.15625 9.8125 62.3125 
L 9.8125 71.09375 
Q 15.4375 72.65625 20.34375 73.4375 
Q 25.25 74.21875 29.59375 74.21875 
Q 40.828125 74.21875 47.359375 69.109375 
Q 53.90625 64.015625 53.90625 55.328125 
Q 53.90625 49.265625 50.4375 45.09375 
Q 46.96875 40.921875 40.578125 39.3125 
z
" id="DejaVuSans-51"/>
       </defs>
       <use xlink:href="#DejaVuSans-51"/>
       <use x="63.623047" xlink:href="#DejaVuSans-48"/>
      </g>
     </g>
    </g>
    <g id="ytick_14">
     <g id="line2d_26">
      <g>
       <use style="stroke:#000000;stroke-width:0.8;" x="518.4" xlink:href="#mdcdec85e12" y="63.046922"/>
      </g>
     </g>
     <g id="text_24">
      <!-- 35 -->
      <g transform="translate(525.4 66.846141)scale(0.1 -0.1)">
       <use xlink:href="#DejaVuSans-51"/>
       <use x="63.623047" xlink:href="#DejaVuSans-53"/>
      </g>
     </g>
    </g>
    <g id="text_25">
     <!-- loss -->
     <g transform="translate(549.723438 227.817812)rotate(-90)scale(0.1 -0.1)">
      <use xlink:href="#DejaVuSans-108"/>
      <use x="27.783203" xlink:href="#DejaVuSans-111"/>
      <use x="88.964844" xlink:href="#DejaVuSans-115"/>
      <use x="141.064453" xlink:href="#DejaVuSans-115"/>
     </g>
    </g>
   </g>
   <g id="line2d_27">
    <path clip-path="url(#p899bea6ee0)" d="M 92.290909 66.96 
L 92.697133 344.191345 
L 93.103358 343.753853 
L 93.509582 344.174053 
L 93.915807 344.222893 
L 94.322031 344.018531 
L 94.728256 344.457739 
L 95.540704 344.691338 
L 95.946929 344.789014 
L 96.353153 346.034947 
L 97.571826 346.674316 
L 97.978051 346.457443 
L 98.7905 346.468343 
L 99.602948 346.409286 
L 100.009173 346.632122 
L 100.415397 345.756562 
L 100.821622 345.387373 
L 101.227846 345.772342 
L 101.63407 345.348181 
L 102.040295 345.288121 
L 102.446519 344.62294 
L 102.852744 345.624435 
L 103.258968 346.099029 
L 103.665192 346.364103 
L 104.071417 345.989387 
L 104.477641 347.777865 
L 105.29009 347.030865 
L 105.696314 346.87431 
L 106.102539 346.954831 
L 106.914988 347.893539 
L 107.321212 347.792807 
L 108.133661 347.862516 
L 108.539885 349.516119 
L 108.94611 348.788969 
L 109.352334 349.14348 
L 109.758559 348.75642 
L 110.164783 348.891762 
L 110.977232 349.521256 
L 111.383456 349.230384 
L 111.789681 349.266257 
L 112.195905 348.808271 
L 112.602129 347.053749 
L 113.008354 347.242298 
L 113.414578 347.934713 
L 113.820803 347.888155 
L 114.227027 347.015564 
L 114.633251 347.088309 
L 115.4457 347.845498 
L 115.851925 347.532077 
L 116.258149 346.722279 
L 116.664373 349.858276 
L 117.070598 350.294496 
L 117.476822 350.504848 
L 117.883047 350.588384 
L 118.289271 350.186022 
L 118.695495 349.965266 
L 119.10172 350.202613 
L 119.507944 350.078987 
L 120.320393 350.80343 
L 120.726618 350.820144 
L 121.132842 350.989687 
L 121.539066 350.454517 
L 121.945291 350.872162 
L 122.351515 350.91279 
L 122.75774 350.834178 
L 123.976413 351.31602 
L 124.382637 350.99576 
L 124.788862 350.482558 
L 125.60131 350.991162 
L 126.007535 351.231231 
L 126.413759 351.228525 
L 126.819984 350.755424 
L 127.226208 350.640847 
L 127.632432 351.120318 
L 128.038657 351.24805 
L 128.444881 350.912441 
L 128.851106 351.309948 
L 129.663554 350.830504 
L 130.069779 350.370079 
L 130.476003 350.752452 
L 130.882228 351.364466 
L 131.288452 351.125694 
L 131.694676 351.342644 
L 132.507125 350.399338 
L 132.91335 351.113176 
L 133.319574 360.795413 
L 134.132023 360.737277 
L 134.538247 360.817113 
L 134.944472 360.645514 
L 135.756921 361.522636 
L 136.975594 361.723134 
L 137.381818 362.106749 
L 141.037838 362.453667 
L 141.444062 363.681758 
L 144.693857 363.839329 
L 145.100082 363.695167 
L 145.506306 363.9872 
L 146.318755 364.033772 
L 147.131204 364.022932 
L 147.537428 364.207859 
L 148.349877 364.223203 
L 149.162326 364.201986 
L 149.56855 364.456363 
L 153.630794 364.74778 
L 154.037019 364.877718 
L 155.255692 364.884616 
L 155.661916 365.117064 
L 158.911712 365.084013 
L 159.317936 365.096356 
L 159.724161 365.250299 
L 161.349058 365.288519 
L 161.755283 365.470011 
L 162.567731 365.431222 
L 162.973956 365.28867 
L 165.411302 365.702683 
L 165.817527 365.892333 
L 166.629975 365.896055 
L 169.067322 366.075762 
L 169.473546 366.061841 
L 170.285995 366.194998 
L 171.504668 366.191875 
L 171.910893 366.472797 
L 173.129566 366.480185 
L 173.53579 366.433142 
L 174.348239 366.567719 
L 179.629156 366.714552 
L 180.035381 366.964709 
L 181.254054 366.983782 
L 181.660278 366.891418 
L 182.066503 366.994475 
L 183.285176 366.967009 
L 185.722523 367.012708 
L 186.534971 367.172617 
L 188.566093 367.24779 
L 189.378542 367.273557 
L 189.784767 367.159905 
L 190.190991 367.293014 
L 193.440786 367.300844 
L 194.659459 367.439773 
L 204.002621 367.678588 
L 204.81507 367.734699 
L 208.064865 367.805046 
L 209.283538 367.859251 
L 216.189353 367.945358 
L 219.032924 368.087073 
L 222.688943 368.149698 
L 252.343325 368.450426 
L 300.277805 368.669952 
L 326.682391 368.711427 
L 439.612776 368.941165 
L 473.735627 369.194391 
L 478.610319 369.219421 
L 498.109091 369.36 
L 498.109091 369.36 
" style="fill:none;stroke:#ff0000;stroke-linecap:square;stroke-width:1.5;"/>
   </g>
   <g id="patch_8">
    <path d="M 72 384.48 
L 72 51.84 
" style="fill:none;stroke:#000000;stroke-linecap:square;stroke-linejoin:miter;stroke-width:0.8;"/>
   </g>
   <g id="patch_9">
    <path d="M 518.4 384.48 
L 518.4 51.84 
" style="fill:none;stroke:#000000;stroke-linecap:square;stroke-linejoin:miter;stroke-width:0.8;"/>
   </g>
   <g id="patch_10">
    <path d="M 72 384.48 
L 518.4 384.48 
" style="fill:none;stroke:#000000;stroke-linecap:square;stroke-linejoin:miter;stroke-width:0.8;"/>
   </g>
   <g id="patch_11">
    <path d="M 72 51.84 
L 518.4 51.84 
" style="fill:none;stroke:#000000;stroke-linecap:square;stroke-linejoin:miter;stroke-width:0.8;"/>
   </g>
   <g id="text_26">
    <!-- The learning curve on 8clients_non_iid_agg/guest/2 -->
    <g transform="translate(140.8725 45.84)scale(0.12 -0.12)">
     <defs>
      <path d="M -0.296875 72.90625 
L 61.375 72.90625 
L 61.375 64.59375 
L 35.5 64.59375 
L 35.5 0 
L 25.59375 0 
L 25.59375 64.59375 
L -0.296875 64.59375 
z
" id="DejaVuSans-84"/>
      <path id="DejaVuSans-32"/>
      <path d="M 45.40625 27.984375 
Q 45.40625 37.75 41.375 43.109375 
Q 37.359375 48.484375 30.078125 48.484375 
Q 22.859375 48.484375 18.828125 43.109375 
Q 14.796875 37.75 14.796875 27.984375 
Q 14.796875 18.265625 18.828125 12.890625 
Q 22.859375 7.515625 30.078125 7.515625 
Q 37.359375 7.515625 41.375 12.890625 
Q 45.40625 18.265625 45.40625 27.984375 
z
M 54.390625 6.78125 
Q 54.390625 -7.171875 48.1875 -13.984375 
Q 42 -20.796875 29.203125 -20.796875 
Q 24.46875 -20.796875 20.265625 -20.09375 
Q 16.0625 -19.390625 12.109375 -17.921875 
L 12.109375 -9.1875 
Q 16.0625 -11.328125 19.921875 -12.34375 
Q 23.78125 -13.375 27.78125 -13.375 
Q 36.625 -13.375 41.015625 -8.765625 
Q 45.40625 -4.15625 45.40625 5.171875 
L 45.40625 9.625 
Q 42.625 4.78125 38.28125 2.390625 
Q 33.9375 0 27.875 0 
Q 17.828125 0 11.671875 7.65625 
Q 5.515625 15.328125 5.515625 27.984375 
Q 5.515625 40.671875 11.671875 48.328125 
Q 17.828125 56 27.875 56 
Q 33.9375 56 38.28125 53.609375 
Q 42.625 51.21875 45.40625 46.390625 
L 45.40625 54.6875 
L 54.390625 54.6875 
z
" id="DejaVuSans-103"/>
      <path d="M 8.5 21.578125 
L 8.5 54.6875 
L 17.484375 54.6875 
L 17.484375 21.921875 
Q 17.484375 14.15625 20.5 10.265625 
Q 23.53125 6.390625 29.59375 6.390625 
Q 36.859375 6.390625 41.078125 11.03125 
Q 45.3125 15.671875 45.3125 23.6875 
L 45.3125 54.6875 
L 54.296875 54.6875 
L 54.296875 0 
L 45.3125 0 
L 45.3125 8.40625 
Q 42.046875 3.421875 37.71875 1 
Q 33.40625 -1.421875 27.6875 -1.421875 
Q 18.265625 -1.421875 13.375 4.4375 
Q 8.5 10.296875 8.5 21.578125 
z
M 31.109375 56 
z
" id="DejaVuSans-117"/>
      <path d="M 2.984375 54.6875 
L 12.5 54.6875 
L 29.59375 8.796875 
L 46.6875 54.6875 
L 56.203125 54.6875 
L 35.6875 0 
L 23.484375 0 
z
" id="DejaVuSans-118"/>
      <path d="M 50.984375 -16.609375 
L 50.984375 -23.578125 
L -0.984375 -23.578125 
L -0.984375 -16.609375 
z
" id="DejaVuSans-95"/>
      <path d="M 45.40625 46.390625 
L 45.40625 75.984375 
L 54.390625 75.984375 
L 54.390625 0 
L 45.40625 0 
L 45.40625 8.203125 
Q 42.578125 3.328125 38.25 0.953125 
Q 33.9375 -1.421875 27.875 -1.421875 
Q 17.96875 -1.421875 11.734375 6.484375 
Q 5.515625 14.40625 5.515625 27.296875 
Q 5.515625 40.1875 11.734375 48.09375 
Q 17.96875 56 27.875 56 
Q 33.9375 56 38.25 53.625 
Q 42.578125 51.265625 45.40625 46.390625 
z
M 14.796875 27.296875 
Q 14.796875 17.390625 18.875 11.75 
Q 22.953125 6.109375 30.078125 6.109375 
Q 37.203125 6.109375 41.296875 11.75 
Q 45.40625 17.390625 45.40625 27.296875 
Q 45.40625 37.203125 41.296875 42.84375 
Q 37.203125 48.484375 30.078125 48.484375 
Q 22.953125 48.484375 18.875 42.84375 
Q 14.796875 37.203125 14.796875 27.296875 
z
" id="DejaVuSans-100"/>
      <path d="M 25.390625 72.90625 
L 33.6875 72.90625 
L 8.296875 -9.28125 
L 0 -9.28125 
z
" id="DejaVuSans-47"/>
     </defs>
     <use xlink:href="#DejaVuSans-84"/>
     <use x="61.083984" xlink:href="#DejaVuSans-104"/>
     <use x="124.462891" xlink:href="#DejaVuSans-101"/>
     <use x="185.986328" xlink:href="#DejaVuSans-32"/>
     <use x="217.773438" xlink:href="#DejaVuSans-108"/>
     <use x="245.556641" xlink:href="#DejaVuSans-101"/>
     <use x="307.080078" xlink:href="#DejaVuSans-97"/>
     <use x="368.359375" xlink:href="#DejaVuSans-114"/>
     <use x="407.722656" xlink:href="#DejaVuSans-110"/>
     <use x="471.101562" xlink:href="#DejaVuSans-105"/>
     <use x="498.884766" xlink:href="#DejaVuSans-110"/>
     <use x="562.263672" xlink:href="#DejaVuSans-103"/>
     <use x="625.740234" xlink:href="#DejaVuSans-32"/>
     <use x="657.527344" xlink:href="#DejaVuSans-99"/>
     <use x="712.507812" xlink:href="#DejaVuSans-117"/>
     <use x="775.886719" xlink:href="#DejaVuSans-114"/>
     <use x="817" xlink:href="#DejaVuSans-118"/>
     <use x="876.179688" xlink:href="#DejaVuSans-101"/>
     <use x="937.703125" xlink:href="#DejaVuSans-32"/>
     <use x="969.490234" xlink:href="#DejaVuSans-111"/>
     <use x="1030.671875" xlink:href="#DejaVuSans-110"/>
     <use x="1094.050781" xlink:href="#DejaVuSans-32"/>
     <use x="1125.837891" xlink:href="#DejaVuSans-56"/>
     <use x="1189.460938" xlink:href="#DejaVuSans-99"/>
     <use x="1244.441406" xlink:href="#DejaVuSans-108"/>
     <use x="1272.224609" xlink:href="#DejaVuSans-105"/>
     <use x="1300.007812" xlink:href="#DejaVuSans-101"/>
     <use x="1361.53125" xlink:href="#DejaVuSans-110"/>
     <use x="1424.910156" xlink:href="#DejaVuSans-116"/>
     <use x="1464.119141" xlink:href="#DejaVuSans-115"/>
     <use x="1516.21875" xlink:href="#DejaVuSans-95"/>
     <use x="1566.21875" xlink:href="#DejaVuSans-110"/>
     <use x="1629.597656" xlink:href="#DejaVuSans-111"/>
     <use x="1690.779297" xlink:href="#DejaVuSans-110"/>
     <use x="1754.158203" xlink:href="#DejaVuSans-95"/>
     <use x="1804.158203" xlink:href="#DejaVuSans-105"/>
     <use x="1831.941406" xlink:href="#DejaVuSans-105"/>
     <use x="1859.724609" xlink:href="#DejaVuSans-100"/>
     <use x="1923.201172" xlink:href="#DejaVuSans-95"/>
     <use x="1973.201172" xlink:href="#DejaVuSans-97"/>
     <use x="2034.480469" xlink:href="#DejaVuSans-103"/>
     <use x="2097.957031" xlink:href="#DejaVuSans-103"/>
     <use x="2161.433594" xlink:href="#DejaVuSans-47"/>
     <use x="2195.125" xlink:href="#DejaVuSans-103"/>
     <use x="2258.601562" xlink:href="#DejaVuSans-117"/>
     <use x="2321.980469" xlink:href="#DejaVuSans-101"/>
     <use x="2383.503906" xlink:href="#DejaVuSans-115"/>
     <use x="2435.603516" xlink:href="#DejaVuSans-116"/>
     <use x="2474.8125" xlink:href="#DejaVuSans-47"/>
     <use x="2508.503906" xlink:href="#DejaVuSans-50"/>
    </g>
   </g>
   <g id="legend_2">
    <g id="patch_12">
     <path d="M 460.084375 74.518125 
L 511.4 74.518125 
Q 513.4 74.518125 513.4 72.518125 
L 513.4 58.84 
Q 513.4 56.84 511.4 56.84 
L 460.084375 56.84 
Q 458.084375 56.84 458.084375 58.84 
L 458.084375 72.518125 
Q 458.084375 74.518125 460.084375 74.518125 
z
" style="fill:#ffffff;opacity:0.8;stroke:#cccccc;stroke-linejoin:miter;"/>
    </g>
    <g id="line2d_28">
     <path d="M 462.084375 64.938438 
L 482.084375 64.938438 
" style="fill:none;stroke:#ff0000;stroke-linecap:square;stroke-width:1.5;"/>
    </g>
    <g id="line2d_29"/>
    <g id="text_27">
     <!-- loss -->
     <g transform="translate(490.084375 68.438438)scale(0.1 -0.1)">
      <use xlink:href="#DejaVuSans-108"/>
      <use x="27.783203" xlink:href="#DejaVuSans-111"/>
      <use x="88.964844" xlink:href="#DejaVuSans-115"/>
      <use x="141.064453" xlink:href="#DejaVuSans-115"/>
     </g>
    </g>
   </g>
  </g>
 </g>
 <defs>
  <clipPath id="p899bea6ee0">
   <rect height="332.64" width="446.4" x="72" y="51.84"/>
  </clipPath>
 </defs>
</svg>
