<?xml version="1.0" encoding="utf-8" standalone="no"?>
<!DOCTYPE svg PUBLIC "-//W3C//DTD SVG 1.1//EN"
  "http://www.w3.org/Graphics/SVG/1.1/DTD/svg11.dtd">
<!-- Created with matplotlib (https://matplotlib.org/) -->
<svg height="432pt" version="1.1" viewBox="0 0 576 432" width="576pt" xmlns="http://www.w3.org/2000/svg" xmlns:xlink="http://www.w3.org/1999/xlink">
 <metadata>
  <rdf:RDF xmlns:cc="http://creativecommons.org/ns#" xmlns:dc="http://purl.org/dc/elements/1.1/" xmlns:rdf="http://www.w3.org/1999/02/22-rdf-syntax-ns#">
   <cc:Work>
    <dc:type rdf:resource="http://purl.org/dc/dcmitype/StillImage"/>
    <dc:date>2023-03-28T10:18:51.714211</dc:date>
    <dc:format>image/svg+xml</dc:format>
    <dc:creator>
     <cc:Agent>
      <dc:title>Matplotlib v3.3.4, https://matplotlib.org/</dc:title>
     </cc:Agent>
    </dc:creator>
   </cc:Work>
  </rdf:RDF>
 </metadata>
 <defs>
  <style type="text/css">*{stroke-linecap:butt;stroke-linejoin:round;}</style>
 </defs>
 <g id="figure_1">
  <g id="patch_1">
   <path d="M 0 432 
L 576 432 
L 576 0 
L 0 0 
z
" style="fill:#ffffff;"/>
  </g>
  <g id="axes_1">
   <g id="patch_2">
    <path d="M 72 384.48 
L 518.4 384.48 
L 518.4 51.84 
L 72 51.84 
z
" style="fill:#ffffff;"/>
   </g>
   <g id="matplotlib.axis_1">
    <g id="xtick_1">
     <g id="line2d_1">
      <defs>
       <path d="M 0 0 
L 0 3.5 
" id="m809a004872" style="stroke:#000000;stroke-width:0.8;"/>
      </defs>
      <g>
       <use style="stroke:#000000;stroke-width:0.8;" x="92.290909" xlink:href="#m809a004872" y="384.48"/>
      </g>
     </g>
     <g id="text_1">
      <!-- 0 -->
      <g transform="translate(89.790909 398.315938)scale(0.1 -0.1)">
       <defs>
        <path d="M 46.484375 35.15625 
Q 46.484375 21.09375 41.40625 10.9375 
Q 36.328125 0.78125 25 0.78125 
Q 13.671875 0.78125 8.390625 10.9375 
Q 3.125 21.09375 3.125 35.15625 
Q 3.125 49.21875 8.390625 59.171875 
Q 13.671875 69.140625 25 69.140625 
Q 36.328125 69.140625 41.40625 59.171875 
Q 46.484375 49.21875 46.484375 35.15625 
z
M 37.109375 35.15625 
Q 37.109375 47.65625 34.171875 54.6875 
Q 31.25 61.71875 25 61.71875 
Q 18.75 61.71875 15.625 54.6875 
Q 12.5 47.65625 12.5 35.15625 
Q 12.5 22.65625 15.625 15.421875 
Q 18.75 8.203125 25 8.203125 
Q 31.25 8.203125 34.171875 15.421875 
Q 37.109375 22.65625 37.109375 35.15625 
z
" id="SimHei-48"/>
       </defs>
       <use xlink:href="#SimHei-48"/>
      </g>
     </g>
    </g>
    <g id="xtick_2">
     <g id="line2d_2">
      <g>
       <use style="stroke:#000000;stroke-width:0.8;" x="174.27438" xlink:href="#m809a004872" y="384.48"/>
      </g>
     </g>
     <g id="text_2">
      <!-- 20 -->
      <g transform="translate(169.27438 398.315938)scale(0.1 -0.1)">
       <defs>
        <path d="M 44.53125 1.5625 
L 4.6875 1.5625 
L 4.6875 7.8125 
Q 7.03125 14.0625 11.125 19.328125 
Q 15.234375 24.609375 23.046875 31.25 
Q 28.90625 36.328125 31.4375 40.625 
Q 33.984375 44.921875 33.984375 50 
Q 33.984375 55.078125 31.828125 58.390625 
Q 29.6875 61.71875 25 61.71875 
Q 21.09375 61.71875 18.15625 58.203125 
Q 15.234375 54.6875 15.234375 45.703125 
L 6.25 45.703125 
Q 6.640625 57.03125 11.515625 63.078125 
Q 16.40625 69.140625 25.390625 69.140625 
Q 33.984375 69.140625 38.671875 63.859375 
Q 43.359375 58.59375 43.359375 49.609375 
Q 43.359375 42.1875 39.0625 36.71875 
Q 34.765625 31.25 28.515625 25.78125 
Q 21.484375 19.53125 18.75 16.40625 
Q 16.015625 13.28125 13.671875 8.984375 
L 44.53125 8.984375 
z
" id="SimHei-50"/>
       </defs>
       <use xlink:href="#SimHei-50"/>
       <use x="50" xlink:href="#SimHei-48"/>
      </g>
     </g>
    </g>
    <g id="xtick_3">
     <g id="line2d_3">
      <g>
       <use style="stroke:#000000;stroke-width:0.8;" x="256.257851" xlink:href="#m809a004872" y="384.48"/>
      </g>
     </g>
     <g id="text_3">
      <!-- 40 -->
      <g transform="translate(251.257851 398.315938)scale(0.1 -0.1)">
       <defs>
        <path d="M 46.484375 18.75 
L 38.28125 18.75 
L 38.28125 1.5625 
L 29.296875 1.5625 
L 29.296875 18.75 
L 3.125 18.75 
L 3.125 26.171875 
L 29.296875 69.140625 
L 38.28125 69.140625 
L 38.28125 26.171875 
L 46.484375 26.171875 
z
M 29.296875 26.171875 
L 29.296875 55.078125 
L 11.71875 26.171875 
z
" id="SimHei-52"/>
       </defs>
       <use xlink:href="#SimHei-52"/>
       <use x="50" xlink:href="#SimHei-48"/>
      </g>
     </g>
    </g>
    <g id="xtick_4">
     <g id="line2d_4">
      <g>
       <use style="stroke:#000000;stroke-width:0.8;" x="338.241322" xlink:href="#m809a004872" y="384.48"/>
      </g>
     </g>
     <g id="text_4">
      <!-- 60 -->
      <g transform="translate(333.241322 398.315938)scale(0.1 -0.1)">
       <defs>
        <path d="M 44.53125 24.21875 
Q 44.53125 13.28125 39.84375 7.03125 
Q 35.15625 0.78125 25.78125 0.78125 
Q 16.40625 0.78125 10.9375 8.59375 
Q 5.46875 16.40625 5.46875 33.984375 
Q 5.46875 50 11.125 59.5625 
Q 16.796875 69.140625 27.34375 69.140625 
Q 34.765625 69.140625 39.25 63.671875 
Q 43.75 58.203125 43.75 51.5625 
L 34.765625 51.5625 
Q 34.765625 55.46875 32.609375 58.59375 
Q 30.46875 61.71875 26.953125 61.71875 
Q 21.09375 61.71875 17.96875 55.65625 
Q 14.84375 49.609375 14.453125 37.109375 
Q 17.1875 42.1875 20.3125 44.140625 
Q 23.4375 46.09375 27.734375 46.09375 
Q 35.15625 46.09375 39.84375 40.234375 
Q 44.53125 34.375 44.53125 24.21875 
z
M 35.15625 24.21875 
Q 35.15625 31.25 32.8125 35.15625 
Q 30.46875 39.0625 26.171875 39.0625 
Q 21.09375 39.0625 18.15625 35.15625 
Q 15.234375 31.25 15.234375 25.78125 
Q 15.234375 17.1875 18.15625 12.5 
Q 21.09375 7.8125 26.171875 7.8125 
Q 29.6875 7.8125 32.421875 11.328125 
Q 35.15625 14.84375 35.15625 24.21875 
z
" id="SimHei-54"/>
       </defs>
       <use xlink:href="#SimHei-54"/>
       <use x="50" xlink:href="#SimHei-48"/>
      </g>
     </g>
    </g>
    <g id="xtick_5">
     <g id="line2d_5">
      <g>
       <use style="stroke:#000000;stroke-width:0.8;" x="420.224793" xlink:href="#m809a004872" y="384.48"/>
      </g>
     </g>
     <g id="text_5">
      <!-- 80 -->
      <g transform="translate(415.224793 398.315938)scale(0.1 -0.1)">
       <defs>
        <path d="M 44.921875 20.703125 
Q 44.921875 10.9375 39.453125 5.859375 
Q 33.984375 0.78125 24.609375 0.78125 
Q 15.234375 0.78125 9.765625 5.859375 
Q 4.296875 10.9375 4.296875 20.703125 
Q 4.296875 25.78125 7.421875 29.875 
Q 10.546875 33.984375 16.015625 35.9375 
Q 11.328125 37.890625 8.78125 41.40625 
Q 6.25 44.921875 6.25 50.390625 
Q 6.25 58.984375 11.71875 64.0625 
Q 17.1875 69.140625 24.609375 69.140625 
Q 32.03125 69.140625 37.5 64.0625 
Q 42.96875 58.984375 42.96875 50.390625 
Q 42.96875 44.921875 40.421875 41.40625 
Q 37.890625 37.890625 33.203125 35.9375 
Q 38.671875 33.984375 41.796875 29.875 
Q 44.921875 25.78125 44.921875 20.703125 
z
M 34.375 50.390625 
Q 34.375 56.640625 31.640625 59.375 
Q 28.90625 62.109375 24.609375 62.109375 
Q 20.3125 62.109375 17.578125 59.375 
Q 14.84375 56.640625 14.84375 50.390625 
Q 14.84375 44.140625 17.765625 41.59375 
Q 20.703125 39.0625 24.609375 39.0625 
Q 28.515625 39.0625 31.4375 41.59375 
Q 34.375 44.140625 34.375 50.390625 
z
M 35.9375 20.703125 
Q 35.9375 26.171875 33 29.296875 
Q 30.078125 32.421875 24.609375 32.421875 
Q 19.140625 32.421875 16.203125 29.296875 
Q 13.28125 26.171875 13.28125 20.703125 
Q 13.28125 14.453125 16.40625 11.125 
Q 19.53125 7.8125 24.609375 7.8125 
Q 29.6875 7.8125 32.8125 11.125 
Q 35.9375 14.453125 35.9375 20.703125 
z
" id="SimHei-56"/>
       </defs>
       <use xlink:href="#SimHei-56"/>
       <use x="50" xlink:href="#SimHei-48"/>
      </g>
     </g>
    </g>
    <g id="xtick_6">
     <g id="line2d_6">
      <g>
       <use style="stroke:#000000;stroke-width:0.8;" x="502.208264" xlink:href="#m809a004872" y="384.48"/>
      </g>
     </g>
     <g id="text_6">
      <!-- 100 -->
      <g transform="translate(494.708264 398.315938)scale(0.1 -0.1)">
       <defs>
        <path d="M 30.46875 1.5625 
L 21.484375 1.5625 
L 21.484375 53.515625 
L 9.765625 53.515625 
L 9.765625 58.203125 
Q 16.796875 58.203125 20.703125 60.9375 
Q 24.609375 63.671875 25.78125 69.140625 
L 30.46875 69.140625 
z
" id="SimHei-49"/>
       </defs>
       <use xlink:href="#SimHei-49"/>
       <use x="50" xlink:href="#SimHei-48"/>
       <use x="100" xlink:href="#SimHei-48"/>
      </g>
     </g>
    </g>
    <g id="text_7">
     <!-- agg_iter -->
     <g transform="translate(275.2 410.401875)scale(0.1 -0.1)">
      <defs>
       <path d="M 45.3125 1.5625 
L 35.9375 1.5625 
Q 35.15625 2.34375 34.765625 3.703125 
Q 34.375 5.078125 34.375 7.03125 
Q 31.640625 3.90625 27.734375 2.34375 
Q 23.828125 0.78125 19.53125 0.78125 
Q 13.28125 0.78125 8.984375 3.90625 
Q 4.6875 7.03125 4.6875 12.890625 
Q 4.6875 18.75 8.59375 22.265625 
Q 12.5 25.78125 20.703125 26.953125 
Q 26.171875 27.734375 30.265625 28.90625 
Q 34.375 30.078125 34.375 32.03125 
Q 34.375 34.375 32.609375 36.71875 
Q 30.859375 39.0625 25 39.0625 
Q 20.3125 39.0625 18.15625 37.296875 
Q 16.015625 35.546875 15.234375 32.421875 
L 6.640625 32.421875 
Q 7.421875 38.671875 12.296875 42.375 
Q 17.1875 46.09375 25 46.09375 
Q 33.59375 46.09375 37.890625 42.1875 
Q 42.1875 38.28125 42.1875 31.25 
L 42.1875 9.765625 
Q 42.1875 7.421875 42.96875 5.46875 
Q 43.75 3.515625 45.3125 1.5625 
z
M 34.375 16.015625 
L 34.375 23.828125 
Q 32.03125 23.046875 29.875 22.453125 
Q 27.734375 21.875 22.65625 21.09375 
Q 16.796875 20.3125 15.03125 18.359375 
Q 13.28125 16.40625 13.28125 13.671875 
Q 13.28125 11.328125 15.03125 9.5625 
Q 16.796875 7.8125 20.3125 7.8125 
Q 23.828125 7.8125 27.921875 9.765625 
Q 32.03125 11.71875 34.375 16.015625 
z
" id="SimHei-97"/>
       <path d="M 46.875 38.671875 
Q 44.140625 39.453125 41.59375 39.640625 
Q 39.0625 39.84375 36.328125 39.0625 
Q 37.5 37.890625 38.28125 36.125 
Q 39.0625 34.375 39.0625 30.859375 
Q 39.0625 24.21875 34.5625 19.921875 
Q 30.078125 15.625 23.4375 15.625 
Q 21.875 15.625 19.328125 16.203125 
Q 16.796875 16.796875 15.234375 17.578125 
Q 14.0625 16.796875 13.671875 16.015625 
Q 13.28125 15.234375 13.28125 14.0625 
Q 13.28125 12.109375 16.015625 11.125 
Q 18.75 10.15625 25.78125 10.15625 
Q 37.109375 10.15625 41.203125 7.03125 
Q 45.3125 3.90625 45.3125 -0.78125 
Q 45.3125 -7.03125 39.25 -9.953125 
Q 33.203125 -12.890625 25 -12.890625 
Q 14.453125 -12.890625 9.375 -10.15625 
Q 4.296875 -7.421875 4.296875 -2.734375 
Q 4.296875 -0.390625 6.25 1.953125 
Q 8.203125 4.296875 11.328125 5.859375 
Q 8.984375 7.03125 7.609375 8.78125 
Q 6.25 10.546875 6.25 13.28125 
Q 6.25 15.625 8 17.375 
Q 9.765625 19.140625 12.109375 20.3125 
Q 10.15625 22.265625 8.984375 25 
Q 7.8125 27.734375 7.8125 30.859375 
Q 7.8125 37.5 12.296875 41.796875 
Q 16.796875 46.09375 23.4375 46.09375 
Q 26.953125 46.09375 29.484375 45.109375 
Q 32.03125 44.140625 33.984375 42.1875 
Q 37.109375 44.53125 40.234375 45.5 
Q 43.359375 46.484375 46.875 46.09375 
z
M 31.25 30.859375 
Q 31.25 34.765625 29.296875 37.109375 
Q 27.34375 39.453125 23.4375 39.453125 
Q 19.53125 39.453125 17.578125 37.109375 
Q 15.625 34.765625 15.625 30.859375 
Q 15.625 26.953125 17.578125 24.609375 
Q 19.53125 22.265625 23.4375 22.265625 
Q 27.34375 22.265625 29.296875 24.609375 
Q 31.25 26.953125 31.25 30.859375 
z
M 37.890625 -1.5625 
Q 37.890625 0 36.125 1.5625 
Q 34.375 3.125 27.34375 3.125 
Q 25.78125 3.125 23.046875 3.3125 
Q 20.3125 3.515625 16.796875 3.90625 
Q 13.671875 2.734375 12.5 1.171875 
Q 11.328125 -0.390625 11.328125 -1.953125 
Q 11.328125 -4.296875 14.453125 -5.859375 
Q 17.578125 -7.421875 25.390625 -7.421875 
Q 32.03125 -7.421875 34.953125 -5.65625 
Q 37.890625 -3.90625 37.890625 -1.5625 
z
" id="SimHei-103"/>
       <path d="M 49.609375 -13.671875 
L 0 -13.671875 
L 0 -8.984375 
L 49.609375 -8.984375 
z
" id="SimHei-95"/>
       <path d="M 28.515625 57.8125 
L 20.703125 57.8125 
L 20.703125 67.96875 
L 28.515625 67.96875 
z
M 28.515625 1.5625 
L 20.703125 1.5625 
L 20.703125 45.3125 
L 28.515625 45.3125 
z
" id="SimHei-105"/>
       <path d="M 43.359375 2.734375 
Q 41.40625 1.953125 38.859375 1.359375 
Q 36.328125 0.78125 32.03125 0.78125 
Q 25 0.78125 20.703125 4.6875 
Q 16.40625 8.59375 16.40625 15.625 
L 16.40625 39.0625 
L 3.125 39.0625 
L 3.125 45.3125 
L 16.40625 45.3125 
L 16.40625 60.546875 
L 24.21875 60.546875 
L 24.21875 45.3125 
L 40.234375 45.3125 
L 40.234375 39.0625 
L 24.21875 39.0625 
L 24.21875 15.234375 
Q 24.21875 12.109375 25.78125 9.953125 
Q 27.34375 7.8125 31.640625 7.8125 
Q 35.9375 7.8125 38.671875 8.59375 
Q 41.40625 9.375 43.359375 10.546875 
z
" id="SimHei-116"/>
       <path d="M 44.921875 16.40625 
Q 44.140625 9.375 38.671875 5.078125 
Q 33.203125 0.78125 25.78125 0.78125 
Q 16.40625 0.78125 10.34375 6.828125 
Q 4.296875 12.890625 4.296875 23.4375 
Q 4.296875 33.984375 10.34375 40.03125 
Q 16.40625 46.09375 25.78125 46.09375 
Q 33.984375 46.09375 39.25 40.8125 
Q 44.53125 35.546875 44.53125 23.4375 
L 12.890625 23.4375 
Q 12.890625 14.84375 16.59375 11.328125 
Q 20.3125 7.8125 25.78125 7.8125 
Q 30.078125 7.8125 32.8125 9.953125 
Q 35.546875 12.109375 36.328125 16.40625 
z
M 35.546875 29.6875 
Q 34.765625 35.15625 32.03125 37.296875 
Q 29.296875 39.453125 25 39.453125 
Q 21.09375 39.453125 17.96875 37.296875 
Q 14.84375 35.15625 13.28125 29.6875 
z
" id="SimHei-101"/>
       <path d="M 39.453125 37.5 
Q 32.03125 38.671875 26.953125 35.34375 
Q 21.875 32.03125 18.359375 23.828125 
L 18.359375 1.5625 
L 10.546875 1.5625 
L 10.546875 45.3125 
L 18.359375 45.3125 
L 18.359375 33.984375 
Q 21.875 40.234375 27.140625 43.15625 
Q 32.421875 46.09375 39.453125 46.09375 
z
" id="SimHei-114"/>
      </defs>
      <use xlink:href="#SimHei-97"/>
      <use x="50" xlink:href="#SimHei-103"/>
      <use x="100" xlink:href="#SimHei-103"/>
      <use x="150" xlink:href="#SimHei-95"/>
      <use x="200" xlink:href="#SimHei-105"/>
      <use x="250" xlink:href="#SimHei-116"/>
      <use x="300" xlink:href="#SimHei-101"/>
      <use x="350" xlink:href="#SimHei-114"/>
     </g>
    </g>
   </g>
   <g id="matplotlib.axis_2">
    <g id="ytick_1">
     <g id="line2d_7">
      <defs>
       <path d="M 0 0 
L -3.5 0 
" id="m8d55b13a01" style="stroke:#000000;stroke-width:0.8;"/>
      </defs>
      <g>
       <use style="stroke:#000000;stroke-width:0.8;" x="72" xlink:href="#m8d55b13a01" y="384.48"/>
      </g>
     </g>
     <g id="text_8">
      <!-- 0.0 -->
      <g transform="translate(50 387.897969)scale(0.1 -0.1)">
       <defs>
        <path d="M 17.1875 1.5625 
L 8.203125 1.5625 
L 8.203125 10.15625 
L 17.1875 10.15625 
z
" id="SimHei-46"/>
       </defs>
       <use xlink:href="#SimHei-48"/>
       <use x="50" xlink:href="#SimHei-46"/>
       <use x="100" xlink:href="#SimHei-48"/>
      </g>
     </g>
    </g>
    <g id="ytick_2">
     <g id="line2d_8">
      <g>
       <use style="stroke:#000000;stroke-width:0.8;" x="72" xlink:href="#m8d55b13a01" y="317.952"/>
      </g>
     </g>
     <g id="text_9">
      <!-- 0.2 -->
      <g transform="translate(50 321.369969)scale(0.1 -0.1)">
       <use xlink:href="#SimHei-48"/>
       <use x="50" xlink:href="#SimHei-46"/>
       <use x="100" xlink:href="#SimHei-50"/>
      </g>
     </g>
    </g>
    <g id="ytick_3">
     <g id="line2d_9">
      <g>
       <use style="stroke:#000000;stroke-width:0.8;" x="72" xlink:href="#m8d55b13a01" y="251.424"/>
      </g>
     </g>
     <g id="text_10">
      <!-- 0.4 -->
      <g transform="translate(50 254.841969)scale(0.1 -0.1)">
       <use xlink:href="#SimHei-48"/>
       <use x="50" xlink:href="#SimHei-46"/>
       <use x="100" xlink:href="#SimHei-52"/>
      </g>
     </g>
    </g>
    <g id="ytick_4">
     <g id="line2d_10">
      <g>
       <use style="stroke:#000000;stroke-width:0.8;" x="72" xlink:href="#m8d55b13a01" y="184.896"/>
      </g>
     </g>
     <g id="text_11">
      <!-- 0.6 -->
      <g transform="translate(50 188.313969)scale(0.1 -0.1)">
       <use xlink:href="#SimHei-48"/>
       <use x="50" xlink:href="#SimHei-46"/>
       <use x="100" xlink:href="#SimHei-54"/>
      </g>
     </g>
    </g>
    <g id="ytick_5">
     <g id="line2d_11">
      <g>
       <use style="stroke:#000000;stroke-width:0.8;" x="72" xlink:href="#m8d55b13a01" y="118.368"/>
      </g>
     </g>
     <g id="text_12">
      <!-- 0.8 -->
      <g transform="translate(50 121.785969)scale(0.1 -0.1)">
       <use xlink:href="#SimHei-48"/>
       <use x="50" xlink:href="#SimHei-46"/>
       <use x="100" xlink:href="#SimHei-56"/>
      </g>
     </g>
    </g>
    <g id="ytick_6">
     <g id="line2d_12">
      <g>
       <use style="stroke:#000000;stroke-width:0.8;" x="72" xlink:href="#m8d55b13a01" y="51.84"/>
      </g>
     </g>
     <g id="text_13">
      <!-- 1.0 -->
      <g transform="translate(50 55.257969)scale(0.1 -0.1)">
       <use xlink:href="#SimHei-49"/>
       <use x="50" xlink:href="#SimHei-46"/>
       <use x="100" xlink:href="#SimHei-48"/>
      </g>
     </g>
    </g>
    <g id="text_14">
     <!-- rate -->
     <g transform="translate(44.710938 228.16)rotate(-90)scale(0.1 -0.1)">
      <use xlink:href="#SimHei-114"/>
      <use x="50" xlink:href="#SimHei-97"/>
      <use x="100" xlink:href="#SimHei-116"/>
      <use x="150" xlink:href="#SimHei-101"/>
     </g>
    </g>
   </g>
   <g id="line2d_13">
    <path clip-path="url(#p6bcb4485f0)" d="M 92.290909 207.122494 
L 96.390083 374.079341 
L 100.489256 366.059992 
L 104.58843 370.809766 
L 108.687603 374.670685 
L 112.786777 366.825313 
L 116.88595 355.787292 
L 120.985124 369.066916 
L 125.084298 359.555462 
L 129.183471 364.50316 
L 133.282645 205.616663 
L 137.381818 375.030458 
L 141.480992 370.838788 
L 145.580165 368.221449 
L 149.679339 374.486164 
L 153.778512 372.134784 
L 157.877686 367.065203 
L 161.97686 373.693573 
L 166.076033 368.733478 
L 170.175207 374.81789 
L 174.27438 382.340756 
L 178.373554 370.74808 
L 182.472727 368.721385 
L 186.571901 210.557107 
L 190.671074 379.607451 
L 194.770248 373.020606 
L 198.869421 373.109153 
L 202.968595 373.815796 
L 207.067769 373.317224 
L 211.166942 288.495601 
L 215.266116 374.216679 
L 219.365289 373.124325 
L 223.464463 370.207964 
L 227.563636 360.892958 
L 231.66281 371.510062 
L 235.761983 371.381218 
L 239.861157 375.126582 
L 243.960331 362.653222 
L 248.059504 367.672778 
L 252.158678 366.700703 
L 256.257851 372.736192 
L 260.357025 367.484054 
L 264.456198 370.310072 
L 268.555372 367.141801 
L 272.654545 369.485 
L 276.753719 382.64467 
L 280.852893 366.11098 
L 284.952066 367.762667 
L 289.05124 371.081692 
L 293.150413 364.073456 
L 297.249587 376.559998 
L 301.34876 203.297634 
L 305.447934 368.487343 
L 309.547107 377.905653 
L 313.646281 376.366724 
L 317.745455 356.567569 
L 321.844628 365.111381 
L 325.943802 368.231452 
L 330.042975 364.047972 
L 334.142149 211.001047 
L 338.241322 282.233309 
L 342.340496 206.7656 
L 346.439669 373.638914 
L 350.538843 373.980355 
L 354.638017 368.990981 
L 358.73719 370.645569 
L 362.836364 371.753695 
L 366.935537 203.289257 
L 371.034711 367.478876 
L 375.133884 375.738425 
L 379.233058 377.815818 
L 383.332231 372.626532 
L 387.431405 370.357454 
L 391.530579 206.178924 
L 395.629752 361.030294 
L 399.728926 371.15308 
L 403.828099 371.974312 
L 407.927273 370.115786 
L 412.026446 368.989226 
L 416.12562 206.777109 
L 420.224793 195.979562 
L 424.323967 205.198345 
L 428.42314 205.198345 
L 432.522314 205.198345 
L 436.621488 205.198345 
L 440.720661 205.198345 
L 444.819835 205.198345 
L 448.919008 205.198345 
L 453.018182 205.198345 
L 457.117355 205.198345 
L 461.216529 205.198345 
L 465.315702 205.198345 
L 469.414876 205.198345 
L 473.51405 205.198345 
L 477.613223 205.198345 
L 481.712397 205.198345 
L 485.81157 205.198345 
L 489.910744 205.198345 
L 494.009917 205.198345 
L 498.109091 205.198345 
" style="fill:none;stroke:#0000ff;stroke-linecap:square;stroke-width:1.5;"/>
   </g>
   <g id="line2d_14">
    <path clip-path="url(#p6bcb4485f0)" d="M 92.290909 305.208756 
L 96.390083 207.008593 
L 100.489256 341.648788 
L 104.58843 147.082796 
L 108.687603 198.46994 
L 112.786777 106.504875 
L 116.88595 270.594342 
L 120.985124 191.283145 
L 125.084298 260.376596 
L 129.183471 130.127018 
L 133.282645 307.020666 
L 137.381818 331.916024 
L 141.480992 110.862822 
L 145.580165 233.991713 
L 149.679339 233.172573 
L 153.778512 128.148317 
L 157.877686 193.929791 
L 161.97686 211.857674 
L 166.076033 124.948763 
L 170.175207 273.665337 
L 174.27438 369.194022 
L 178.373554 130.790754 
L 182.472727 81.58991 
L 186.571901 308.782721 
L 190.671074 377.246128 
L 194.770248 126.248737 
L 198.869421 80.722815 
L 202.968595 188.522206 
L 207.067769 283.981621 
L 211.166942 299.072981 
L 215.266116 129.720506 
L 219.365289 62.242095 
L 223.464463 128.176511 
L 227.563636 225.704661 
L 231.66281 223.716673 
L 235.761983 73.953215 
L 239.861157 189.838231 
L 243.960331 197.192533 
L 248.059504 183.350815 
L 252.158678 130.665596 
L 256.257851 149.122896 
L 260.357025 116.171044 
L 264.456198 140.371949 
L 268.555372 282.585661 
L 272.654545 242.834433 
L 276.753719 369.955931 
L 280.852893 147.327851 
L 284.952066 208.695871 
L 289.05124 63.39464 
L 293.150413 258.430898 
L 297.249587 184.967554 
L 301.34876 307.39109 
L 305.447934 95.647544 
L 309.547107 372.012095 
L 313.646281 176.613436 
L 317.745455 270.179419 
L 321.844628 113.456979 
L 325.943802 222.82387 
L 330.042975 206.547838 
L 334.142149 306.495257 
L 338.241322 304.085488 
L 342.340496 305.03495 
L 346.439669 180.079006 
L 350.538843 126.501162 
L 354.638017 90.476762 
L 358.73719 126.344855 
L 362.836364 65.302347 
L 366.935537 308.721277 
L 371.034711 63.709132 
L 375.133884 265.219657 
L 379.233058 373.356311 
L 383.332231 126.883663 
L 387.431405 312.664266 
L 391.530579 308.009846 
L 395.629752 203.206953 
L 399.728926 271.59999 
L 403.828099 194.818402 
L 407.927273 233.538355 
L 412.026446 343.031123 
L 416.12562 311.802245 
L 420.224793 306.090844 
L 424.323967 318.084677 
L 428.42314 318.084677 
L 432.522314 318.084677 
L 436.621488 318.084677 
L 440.720661 318.084677 
L 444.819835 318.084677 
L 448.919008 318.084677 
L 453.018182 318.084677 
L 457.117355 318.084677 
L 461.216529 318.084677 
L 465.315702 318.084677 
L 469.414876 318.084677 
L 473.51405 318.084677 
L 477.613223 318.084677 
L 481.712397 318.084677 
L 485.81157 318.084677 
L 489.910744 318.084677 
L 494.009917 318.084677 
L 498.109091 318.084677 
" style="fill:none;stroke:#008000;stroke-linecap:square;stroke-width:1.5;"/>
   </g>
   <g id="patch_3">
    <path d="M 72 384.48 
L 72 51.84 
" style="fill:none;stroke:#000000;stroke-linecap:square;stroke-linejoin:miter;stroke-width:0.8;"/>
   </g>
   <g id="patch_4">
    <path d="M 518.4 384.48 
L 518.4 51.84 
" style="fill:none;stroke:#000000;stroke-linecap:square;stroke-linejoin:miter;stroke-width:0.8;"/>
   </g>
   <g id="patch_5">
    <path d="M 72 384.48 
L 518.4 384.48 
" style="fill:none;stroke:#000000;stroke-linecap:square;stroke-linejoin:miter;stroke-width:0.8;"/>
   </g>
   <g id="patch_6">
    <path d="M 72 51.84 
L 518.4 51.84 
" style="fill:none;stroke:#000000;stroke-linecap:square;stroke-linejoin:miter;stroke-width:0.8;"/>
   </g>
   <g id="legend_1">
    <g id="patch_7">
     <path d="M 79 86.418125 
L 156 86.418125 
Q 158 86.418125 158 84.418125 
L 158 58.84 
Q 158 56.84 156 56.84 
L 79 56.84 
Q 77 56.84 77 58.84 
L 77 84.418125 
Q 77 86.418125 79 86.418125 
z
" style="fill:#ffffff;opacity:0.8;stroke:#cccccc;stroke-linejoin:miter;"/>
    </g>
    <g id="line2d_15">
     <path d="M 81 64.34 
L 101 64.34 
" style="fill:none;stroke:#0000ff;stroke-linecap:square;stroke-width:1.5;"/>
    </g>
    <g id="line2d_16"/>
    <g id="text_15">
     <!-- precision -->
     <g transform="translate(109 67.84)scale(0.1 -0.1)">
      <defs>
       <path d="M 44.53125 23.4375 
Q 44.53125 12.109375 39.0625 6.25 
Q 33.59375 0.390625 25.78125 0.390625 
Q 21.484375 0.390625 18.359375 2.140625 
Q 15.234375 3.90625 12.890625 7.421875 
L 12.890625 -12.890625 
L 5.078125 -12.890625 
L 5.078125 45.3125 
L 12.890625 45.3125 
L 12.890625 39.453125 
Q 15.234375 42.96875 18.359375 44.53125 
Q 21.484375 46.09375 25.78125 46.09375 
Q 33.59375 46.09375 39.0625 40.421875 
Q 44.53125 34.765625 44.53125 23.4375 
z
M 35.9375 23.4375 
Q 35.9375 30.859375 33 34.953125 
Q 30.078125 39.0625 24.21875 39.0625 
Q 19.53125 39.0625 16.203125 34.953125 
Q 12.890625 30.859375 12.890625 23.4375 
Q 12.890625 16.015625 16.203125 11.71875 
Q 19.53125 7.421875 24.21875 7.421875 
Q 30.078125 7.421875 33 11.71875 
Q 35.9375 16.015625 35.9375 23.4375 
z
" id="SimHei-112"/>
       <path d="M 44.921875 19.140625 
Q 44.921875 10.9375 39.25 5.859375 
Q 33.59375 0.78125 25 0.78125 
Q 16.40625 0.78125 10.15625 6.828125 
Q 3.90625 12.890625 3.90625 23.4375 
Q 3.90625 33.984375 10.15625 40.03125 
Q 16.40625 46.09375 25 46.09375 
Q 33.59375 46.09375 38.671875 41.59375 
Q 43.75 37.109375 43.75 30.859375 
L 35.15625 30.859375 
Q 34.765625 35.546875 31.828125 37.296875 
Q 28.90625 39.0625 25 39.0625 
Q 20.3125 39.0625 16.40625 35.34375 
Q 12.5 31.640625 12.5 23.4375 
Q 12.5 15.234375 16.40625 11.515625 
Q 20.3125 7.8125 25 7.8125 
Q 30.078125 7.8125 33.203125 10.546875 
Q 36.328125 13.28125 36.328125 19.140625 
z
" id="SimHei-99"/>
       <path d="M 43.359375 13.671875 
Q 43.359375 7.421875 38.46875 4.09375 
Q 33.59375 0.78125 26.171875 0.78125 
Q 16.796875 0.78125 11.71875 4.484375 
Q 6.640625 8.203125 6.640625 15.234375 
L 14.453125 15.234375 
Q 14.453125 10.546875 17.765625 8.984375 
Q 21.09375 7.421875 25.78125 7.421875 
Q 30.46875 7.421875 32.8125 9.171875 
Q 35.15625 10.9375 35.15625 13.671875 
Q 35.15625 15.625 33.203125 17.578125 
Q 31.25 19.53125 23.4375 20.703125 
Q 14.453125 21.875 11.125 25.1875 
Q 7.8125 28.515625 7.8125 33.984375 
Q 7.8125 38.671875 12.296875 42.375 
Q 16.796875 46.09375 25.390625 46.09375 
Q 33.203125 46.09375 37.6875 42.578125 
Q 42.1875 39.0625 42.1875 33.203125 
L 34.375 33.203125 
Q 34.375 36.71875 31.828125 38.078125 
Q 29.296875 39.453125 25.390625 39.453125 
Q 20.3125 39.453125 18.15625 37.6875 
Q 16.015625 35.9375 16.015625 33.59375 
Q 16.015625 30.859375 17.96875 29.296875 
Q 19.921875 27.734375 26.171875 26.953125 
Q 36.328125 25.390625 39.84375 22.0625 
Q 43.359375 18.75 43.359375 13.671875 
z
" id="SimHei-115"/>
       <path d="M 46.09375 23.4375 
Q 46.09375 13.28125 39.84375 7.03125 
Q 33.59375 0.78125 25 0.78125 
Q 16.40625 0.78125 10.15625 7.03125 
Q 3.90625 13.28125 3.90625 23.4375 
Q 3.90625 33.59375 10.15625 39.84375 
Q 16.40625 46.09375 25 46.09375 
Q 33.59375 46.09375 39.84375 39.84375 
Q 46.09375 33.59375 46.09375 23.4375 
z
M 37.5 23.4375 
Q 37.5 31.25 33.59375 35.15625 
Q 29.6875 39.0625 25 39.0625 
Q 20.3125 39.0625 16.40625 35.15625 
Q 12.5 31.25 12.5 23.4375 
Q 12.5 15.625 16.40625 11.71875 
Q 20.3125 7.8125 25 7.8125 
Q 29.6875 7.8125 33.59375 11.71875 
Q 37.5 15.625 37.5 23.4375 
z
" id="SimHei-111"/>
       <path d="M 44.140625 1.5625 
L 36.328125 1.5625 
L 36.328125 29.6875 
Q 36.328125 34.375 33.984375 37.109375 
Q 31.640625 39.84375 27.734375 39.84375 
Q 22.65625 39.84375 18.15625 34.5625 
Q 13.671875 29.296875 13.671875 21.484375 
L 13.671875 1.5625 
L 5.859375 1.5625 
L 5.859375 45.3125 
L 13.671875 45.3125 
L 13.671875 37.109375 
Q 16.796875 41.40625 20.5 43.75 
Q 24.21875 46.09375 30.078125 46.09375 
Q 37.109375 46.09375 40.625 42.1875 
Q 44.140625 38.28125 44.140625 32.421875 
z
" id="SimHei-110"/>
      </defs>
      <use xlink:href="#SimHei-112"/>
      <use x="50" xlink:href="#SimHei-114"/>
      <use x="100" xlink:href="#SimHei-101"/>
      <use x="150" xlink:href="#SimHei-99"/>
      <use x="200" xlink:href="#SimHei-105"/>
      <use x="250" xlink:href="#SimHei-115"/>
      <use x="300" xlink:href="#SimHei-105"/>
      <use x="350" xlink:href="#SimHei-111"/>
      <use x="400" xlink:href="#SimHei-110"/>
     </g>
    </g>
    <g id="line2d_17">
     <path d="M 81 77.629062 
L 101 77.629062 
" style="fill:none;stroke:#008000;stroke-linecap:square;stroke-width:1.5;"/>
    </g>
    <g id="line2d_18"/>
    <g id="text_16">
     <!-- recall -->
     <g transform="translate(109 81.129062)scale(0.1 -0.1)">
      <defs>
       <path d="M 28.90625 1.5625 
L 21.09375 1.5625 
L 21.09375 68.359375 
L 28.90625 68.359375 
z
" id="SimHei-108"/>
      </defs>
      <use xlink:href="#SimHei-114"/>
      <use x="50" xlink:href="#SimHei-101"/>
      <use x="100" xlink:href="#SimHei-99"/>
      <use x="150" xlink:href="#SimHei-97"/>
      <use x="200" xlink:href="#SimHei-108"/>
      <use x="250" xlink:href="#SimHei-108"/>
     </g>
    </g>
   </g>
  </g>
  <g id="axes_2">
   <g id="matplotlib.axis_3">
    <g id="ytick_7">
     <g id="line2d_19">
      <defs>
       <path d="M 0 0 
L 3.5 0 
" id="m032294852e" style="stroke:#000000;stroke-width:0.8;"/>
      </defs>
      <g>
       <use style="stroke:#000000;stroke-width:0.8;" x="518.4" xlink:href="#m032294852e" y="351.511649"/>
      </g>
     </g>
     <g id="text_17">
      <!-- 1 -->
      <g transform="translate(525.4 354.929618)scale(0.1 -0.1)">
       <use xlink:href="#SimHei-49"/>
      </g>
     </g>
    </g>
    <g id="ytick_8">
     <g id="line2d_20">
      <g>
       <use style="stroke:#000000;stroke-width:0.8;" x="518.4" xlink:href="#m032294852e" y="305.685039"/>
      </g>
     </g>
     <g id="text_18">
      <!-- 2 -->
      <g transform="translate(525.4 309.103008)scale(0.1 -0.1)">
       <use xlink:href="#SimHei-50"/>
      </g>
     </g>
    </g>
    <g id="ytick_9">
     <g id="line2d_21">
      <g>
       <use style="stroke:#000000;stroke-width:0.8;" x="518.4" xlink:href="#m032294852e" y="259.858429"/>
      </g>
     </g>
     <g id="text_19">
      <!-- 3 -->
      <g transform="translate(525.4 263.276398)scale(0.1 -0.1)">
       <defs>
        <path d="M 44.140625 20.3125 
Q 44.140625 11.328125 38.46875 6.046875 
Q 32.8125 0.78125 24.21875 0.78125 
Q 15.625 0.78125 9.953125 6.046875 
Q 4.296875 11.328125 4.296875 22.265625 
L 13.28125 22.265625 
Q 13.28125 14.84375 16.203125 11.515625 
Q 19.140625 8.203125 24.21875 8.203125 
Q 29.296875 8.203125 32.03125 11.328125 
Q 34.765625 14.453125 34.765625 21.09375 
Q 34.765625 26.5625 31.828125 29.6875 
Q 28.90625 32.8125 21.484375 32.8125 
L 21.484375 39.453125 
Q 27.734375 39.453125 30.65625 42.578125 
Q 33.59375 45.703125 33.59375 51.953125 
Q 33.59375 56.640625 31.4375 59.375 
Q 29.296875 62.109375 24.609375 62.109375 
Q 19.921875 62.109375 17.375 58.78125 
Q 14.84375 55.46875 14.453125 49.21875 
L 5.859375 49.21875 
Q 6.640625 58.203125 11.515625 63.671875 
Q 16.40625 69.140625 24.609375 69.140625 
Q 33.203125 69.140625 37.890625 64.25 
Q 42.578125 59.375 42.578125 52.34375 
Q 42.578125 45.703125 40.234375 41.984375 
Q 37.890625 38.28125 32.421875 36.328125 
Q 37.890625 35.15625 41.015625 30.859375 
Q 44.140625 26.5625 44.140625 20.3125 
z
" id="SimHei-51"/>
       </defs>
       <use xlink:href="#SimHei-51"/>
      </g>
     </g>
    </g>
    <g id="ytick_10">
     <g id="line2d_22">
      <g>
       <use style="stroke:#000000;stroke-width:0.8;" x="518.4" xlink:href="#m032294852e" y="214.031819"/>
      </g>
     </g>
     <g id="text_20">
      <!-- 4 -->
      <g transform="translate(525.4 217.449787)scale(0.1 -0.1)">
       <use xlink:href="#SimHei-52"/>
      </g>
     </g>
    </g>
    <g id="ytick_11">
     <g id="line2d_23">
      <g>
       <use style="stroke:#000000;stroke-width:0.8;" x="518.4" xlink:href="#m032294852e" y="168.205208"/>
      </g>
     </g>
     <g id="text_21">
      <!-- 5 -->
      <g transform="translate(525.4 171.623177)scale(0.1 -0.1)">
       <defs>
        <path d="M 44.140625 25.78125 
Q 44.140625 14.0625 38.46875 7.421875 
Q 32.8125 0.78125 23.4375 0.78125 
Q 15.234375 0.78125 9.953125 6.25 
Q 4.6875 11.71875 4.296875 21.09375 
L 13.28125 21.09375 
Q 13.28125 15.234375 16.015625 11.71875 
Q 18.75 8.203125 23.828125 8.203125 
Q 28.90625 8.203125 31.828125 12.5 
Q 34.765625 16.796875 34.765625 25.78125 
Q 34.765625 33.59375 32.21875 37.296875 
Q 29.6875 41.015625 25.390625 41.015625 
Q 21.875 41.015625 19.328125 39.453125 
Q 16.796875 37.890625 14.453125 33.984375 
L 6.640625 33.984375 
L 8.984375 68.359375 
L 42.578125 68.359375 
L 42.578125 60.9375 
L 16.40625 60.9375 
L 14.84375 42.96875 
Q 17.1875 45.3125 19.921875 46.484375 
Q 22.65625 47.65625 27.34375 47.65625 
Q 34.765625 47.65625 39.453125 41.984375 
Q 44.140625 36.328125 44.140625 25.78125 
z
" id="SimHei-53"/>
       </defs>
       <use xlink:href="#SimHei-53"/>
      </g>
     </g>
    </g>
    <g id="ytick_12">
     <g id="line2d_24">
      <g>
       <use style="stroke:#000000;stroke-width:0.8;" x="518.4" xlink:href="#m032294852e" y="122.378598"/>
      </g>
     </g>
     <g id="text_22">
      <!-- 6 -->
      <g transform="translate(525.4 125.796567)scale(0.1 -0.1)">
       <use xlink:href="#SimHei-54"/>
      </g>
     </g>
    </g>
    <g id="ytick_13">
     <g id="line2d_25">
      <g>
       <use style="stroke:#000000;stroke-width:0.8;" x="518.4" xlink:href="#m032294852e" y="76.551988"/>
      </g>
     </g>
     <g id="text_23">
      <!-- 7 -->
      <g transform="translate(525.4 79.969957)scale(0.1 -0.1)">
       <defs>
        <path d="M 43.359375 60.15625 
L 25 1.5625 
L 16.015625 1.5625 
L 34.765625 60.9375 
L 6.25 60.9375 
L 6.25 68.359375 
L 43.359375 68.359375 
z
" id="SimHei-55"/>
       </defs>
       <use xlink:href="#SimHei-55"/>
      </g>
     </g>
    </g>
    <g id="text_24">
     <!-- loss -->
     <g transform="translate(541.235937 228.16)rotate(-90)scale(0.1 -0.1)">
      <use xlink:href="#SimHei-108"/>
      <use x="50" xlink:href="#SimHei-111"/>
      <use x="100" xlink:href="#SimHei-115"/>
      <use x="150" xlink:href="#SimHei-115"/>
     </g>
    </g>
   </g>
   <g id="line2d_26">
    <path clip-path="url(#p6bcb4485f0)" d="M 92.290909 66.96 
L 96.390083 241.712709 
L 100.489256 279.417631 
L 104.58843 256.904797 
L 108.687603 244.455192 
L 112.786777 261.424597 
L 116.88595 260.638362 
L 120.985124 273.552502 
L 125.084298 282.794072 
L 129.183471 276.706434 
L 133.282645 323.555973 
L 137.381818 342.248024 
L 141.480992 339.645204 
L 145.580165 338.63165 
L 149.679339 344.703611 
L 153.778512 348.187657 
L 157.877686 343.251152 
L 161.97686 351.828483 
L 166.076033 353.552691 
L 170.175207 354.6851 
L 174.27438 356.345319 
L 178.373554 357.17057 
L 182.472727 357.123943 
L 186.571901 357.700117 
L 190.671074 358.848712 
L 194.770248 359.625176 
L 198.869421 359.679666 
L 202.968595 360.849383 
L 207.067769 361.463692 
L 211.166942 361.265045 
L 215.266116 362.448614 
L 219.365289 362.277356 
L 223.464463 362.990001 
L 227.563636 362.852894 
L 231.66281 363.113665 
L 235.761983 363.278572 
L 239.861157 363.698358 
L 243.960331 363.643388 
L 248.059504 364.070757 
L 252.158678 364.080541 
L 256.257851 364.416622 
L 260.357025 364.266252 
L 264.456198 364.687526 
L 268.555372 364.602435 
L 272.654545 364.831504 
L 276.753719 364.711294 
L 280.852893 364.864767 
L 284.952066 364.88624 
L 289.05124 365.073346 
L 293.150413 364.950953 
L 297.249587 365.119056 
L 301.34876 365.097635 
L 305.447934 365.147798 
L 309.547107 365.191031 
L 313.646281 365.32019 
L 317.745455 365.24118 
L 321.844628 365.378843 
L 325.943802 365.346478 
L 330.042975 365.366304 
L 334.142149 365.37944 
L 338.241322 365.444539 
L 342.340496 365.364154 
L 346.439669 365.441613 
L 350.538843 365.454937 
L 354.638017 365.468332 
L 358.73719 365.469925 
L 362.836364 365.483612 
L 366.935537 365.475286 
L 371.034711 365.503636 
L 375.133884 365.504502 
L 379.233058 365.503481 
L 383.332231 365.505266 
L 387.431405 365.531056 
L 391.530579 365.517798 
L 395.629752 365.53618 
L 399.728926 365.533449 
L 403.828099 365.542415 
L 407.927273 365.534903 
L 412.026446 365.549664 
L 416.12562 365.542546 
L 420.224793 365.784219 
L 424.323967 365.990248 
L 428.42314 366.19418 
L 432.522314 366.396031 
L 436.621488 366.595827 
L 440.720661 366.793585 
L 444.819835 366.989328 
L 448.919008 367.183073 
L 453.018182 367.37485 
L 457.117355 367.56468 
L 461.216529 367.752573 
L 465.315702 367.938547 
L 469.414876 368.122636 
L 473.51405 368.304877 
L 477.613223 368.485226 
L 481.712397 368.663765 
L 485.81157 368.840504 
L 489.910744 369.015424 
L 494.009917 369.188621 
L 498.109091 369.36 
" style="fill:none;stroke:#ff0000;stroke-linecap:square;stroke-width:1.5;"/>
   </g>
   <g id="patch_8">
    <path d="M 72 384.48 
L 72 51.84 
" style="fill:none;stroke:#000000;stroke-linecap:square;stroke-linejoin:miter;stroke-width:0.8;"/>
   </g>
   <g id="patch_9">
    <path d="M 518.4 384.48 
L 518.4 51.84 
" style="fill:none;stroke:#000000;stroke-linecap:square;stroke-linejoin:miter;stroke-width:0.8;"/>
   </g>
   <g id="patch_10">
    <path d="M 72 384.48 
L 518.4 384.48 
" style="fill:none;stroke:#000000;stroke-linecap:square;stroke-linejoin:miter;stroke-width:0.8;"/>
   </g>
   <g id="patch_11">
    <path d="M 72 51.84 
L 518.4 51.84 
" style="fill:none;stroke:#000000;stroke-linecap:square;stroke-linejoin:miter;stroke-width:0.8;"/>
   </g>
   <g id="text_25">
    <!-- The learning curve on 8clients_non_iid/arbiter/1 -->
    <g transform="translate(151.2 45.84)scale(0.12 -0.12)">
     <defs>
      <path d="M 44.921875 60.9375 
L 29.296875 60.9375 
L 29.296875 1.5625 
L 20.3125 1.5625 
L 20.3125 60.9375 
L 4.6875 60.9375 
L 4.6875 68.359375 
L 44.921875 68.359375 
z
" id="SimHei-84"/>
      <path d="M 44.140625 1.5625 
L 36.328125 1.5625 
L 36.328125 29.6875 
Q 36.328125 34.375 33.984375 37.109375 
Q 31.640625 39.84375 27.734375 39.84375 
Q 22.65625 39.84375 18.15625 34.5625 
Q 13.671875 29.296875 13.671875 21.484375 
L 13.671875 1.5625 
L 5.859375 1.5625 
L 5.859375 68.359375 
L 13.671875 68.359375 
L 13.671875 37.109375 
Q 16.796875 41.40625 20.5 43.75 
Q 24.21875 46.09375 30.078125 46.09375 
Q 37.109375 46.09375 40.625 42.1875 
Q 44.140625 38.28125 44.140625 32.421875 
z
" id="SimHei-104"/>
      <path id="SimHei-32"/>
      <path d="M 44.140625 1.5625 
L 36.328125 1.5625 
L 36.328125 9.765625 
Q 33.203125 5.46875 29.484375 3.125 
Q 25.78125 0.78125 19.921875 0.78125 
Q 12.890625 0.78125 9.375 4.6875 
Q 5.859375 8.59375 5.859375 14.453125 
L 5.859375 45.3125 
L 13.671875 45.3125 
L 13.671875 17.1875 
Q 13.671875 12.5 16.015625 9.765625 
Q 18.359375 7.03125 22.265625 7.03125 
Q 27.34375 7.03125 31.828125 12.296875 
Q 36.328125 17.578125 36.328125 25.390625 
L 36.328125 45.3125 
L 44.140625 45.3125 
z
" id="SimHei-117"/>
      <path d="M 45.3125 45.3125 
L 28.90625 0.78125 
L 20.3125 0.78125 
L 3.90625 45.3125 
L 12.109375 45.3125 
L 24.21875 11.328125 
L 25 11.328125 
L 37.109375 45.3125 
z
" id="SimHei-118"/>
      <path d="M 43.359375 1.5625 
L 35.546875 1.5625 
L 35.546875 7.421875 
Q 33.203125 3.90625 30.078125 2.34375 
Q 26.953125 0.78125 22.65625 0.78125 
Q 14.84375 0.78125 9.375 6.4375 
Q 3.90625 12.109375 3.90625 23.4375 
Q 3.90625 34.765625 9.375 40.625 
Q 14.84375 46.484375 22.65625 46.484375 
Q 26.953125 46.484375 30.078125 44.71875 
Q 33.203125 42.96875 35.546875 39.453125 
L 35.546875 68.359375 
L 43.359375 68.359375 
z
M 35.546875 23.4375 
Q 35.546875 30.859375 32.21875 35.15625 
Q 28.90625 39.453125 24.21875 39.453125 
Q 18.359375 39.453125 15.421875 35.15625 
Q 12.5 30.859375 12.5 23.4375 
Q 12.5 16.015625 15.421875 11.90625 
Q 18.359375 7.8125 24.21875 7.8125 
Q 28.90625 7.8125 32.21875 11.90625 
Q 35.546875 16.015625 35.546875 23.4375 
z
" id="SimHei-100"/>
      <path d="M 47.265625 70.703125 
L 5.859375 -3.125 
L 1.953125 -0.78125 
L 43.359375 73.046875 
z
" id="SimHei-47"/>
      <path d="M 44.53125 23.4375 
Q 44.53125 12.109375 39.0625 6.4375 
Q 33.59375 0.78125 25.78125 0.78125 
Q 21.484375 0.78125 18.359375 2.34375 
Q 15.234375 3.90625 12.890625 7.421875 
L 12.890625 1.5625 
L 5.078125 1.5625 
L 5.078125 68.359375 
L 12.890625 68.359375 
L 12.890625 39.453125 
Q 15.234375 42.96875 18.359375 44.71875 
Q 21.484375 46.484375 25.78125 46.484375 
Q 33.59375 46.484375 39.0625 40.625 
Q 44.53125 34.765625 44.53125 23.4375 
z
M 35.9375 23.4375 
Q 35.9375 30.859375 33 35.15625 
Q 30.078125 39.453125 24.21875 39.453125 
Q 19.53125 39.453125 16.203125 35.15625 
Q 12.890625 30.859375 12.890625 23.4375 
Q 12.890625 16.015625 16.203125 11.90625 
Q 19.53125 7.8125 24.21875 7.8125 
Q 30.078125 7.8125 33 11.90625 
Q 35.9375 16.015625 35.9375 23.4375 
z
" id="SimHei-98"/>
     </defs>
     <use xlink:href="#SimHei-84"/>
     <use x="50" xlink:href="#SimHei-104"/>
     <use x="100" xlink:href="#SimHei-101"/>
     <use x="150" xlink:href="#SimHei-32"/>
     <use x="200" xlink:href="#SimHei-108"/>
     <use x="250" xlink:href="#SimHei-101"/>
     <use x="300" xlink:href="#SimHei-97"/>
     <use x="350" xlink:href="#SimHei-114"/>
     <use x="400" xlink:href="#SimHei-110"/>
     <use x="450" xlink:href="#SimHei-105"/>
     <use x="500" xlink:href="#SimHei-110"/>
     <use x="550" xlink:href="#SimHei-103"/>
     <use x="600" xlink:href="#SimHei-32"/>
     <use x="650" xlink:href="#SimHei-99"/>
     <use x="700" xlink:href="#SimHei-117"/>
     <use x="750" xlink:href="#SimHei-114"/>
     <use x="800" xlink:href="#SimHei-118"/>
     <use x="850" xlink:href="#SimHei-101"/>
     <use x="900" xlink:href="#SimHei-32"/>
     <use x="950" xlink:href="#SimHei-111"/>
     <use x="1000" xlink:href="#SimHei-110"/>
     <use x="1050" xlink:href="#SimHei-32"/>
     <use x="1100" xlink:href="#SimHei-56"/>
     <use x="1150" xlink:href="#SimHei-99"/>
     <use x="1200" xlink:href="#SimHei-108"/>
     <use x="1250" xlink:href="#SimHei-105"/>
     <use x="1300" xlink:href="#SimHei-101"/>
     <use x="1350" xlink:href="#SimHei-110"/>
     <use x="1400" xlink:href="#SimHei-116"/>
     <use x="1450" xlink:href="#SimHei-115"/>
     <use x="1500" xlink:href="#SimHei-95"/>
     <use x="1550" xlink:href="#SimHei-110"/>
     <use x="1600" xlink:href="#SimHei-111"/>
     <use x="1650" xlink:href="#SimHei-110"/>
     <use x="1700" xlink:href="#SimHei-95"/>
     <use x="1750" xlink:href="#SimHei-105"/>
     <use x="1800" xlink:href="#SimHei-105"/>
     <use x="1850" xlink:href="#SimHei-100"/>
     <use x="1900" xlink:href="#SimHei-47"/>
     <use x="1950" xlink:href="#SimHei-97"/>
     <use x="2000" xlink:href="#SimHei-114"/>
     <use x="2050" xlink:href="#SimHei-98"/>
     <use x="2100" xlink:href="#SimHei-105"/>
     <use x="2150" xlink:href="#SimHei-116"/>
     <use x="2200" xlink:href="#SimHei-101"/>
     <use x="2250" xlink:href="#SimHei-114"/>
     <use x="2300" xlink:href="#SimHei-47"/>
     <use x="2350" xlink:href="#SimHei-49"/>
    </g>
   </g>
   <g id="legend_2">
    <g id="patch_12">
     <path d="M 459.4 73.129062 
L 511.4 73.129062 
Q 513.4 73.129062 513.4 71.129062 
L 513.4 58.84 
Q 513.4 56.84 511.4 56.84 
L 459.4 56.84 
Q 457.4 56.84 457.4 58.84 
L 457.4 71.129062 
Q 457.4 73.129062 459.4 73.129062 
z
" style="fill:#ffffff;opacity:0.8;stroke:#cccccc;stroke-linejoin:miter;"/>
    </g>
    <g id="line2d_27">
     <path d="M 461.4 64.34 
L 481.4 64.34 
" style="fill:none;stroke:#ff0000;stroke-linecap:square;stroke-width:1.5;"/>
    </g>
    <g id="line2d_28"/>
    <g id="text_26">
     <!-- loss -->
     <g transform="translate(489.4 67.84)scale(0.1 -0.1)">
      <use xlink:href="#SimHei-108"/>
      <use x="50" xlink:href="#SimHei-111"/>
      <use x="100" xlink:href="#SimHei-115"/>
      <use x="150" xlink:href="#SimHei-115"/>
     </g>
    </g>
   </g>
  </g>
 </g>
 <defs>
  <clipPath id="p6bcb4485f0">
   <rect height="332.64" width="446.4" x="72" y="51.84"/>
  </clipPath>
 </defs>
</svg>
