<?xml version="1.0" encoding="utf-8" standalone="no"?>
<!DOCTYPE svg PUBLIC "-//W3C//DTD SVG 1.1//EN"
  "http://www.w3.org/Graphics/SVG/1.1/DTD/svg11.dtd">
<svg xmlns:xlink="http://www.w3.org/1999/xlink" width="460.8pt" height="345.6pt" viewBox="0 0 460.8 345.6" xmlns="http://www.w3.org/2000/svg" version="1.1">
 <metadata>
  <rdf:RDF xmlns:dc="http://purl.org/dc/elements/1.1/" xmlns:cc="http://creativecommons.org/ns#" xmlns:rdf="http://www.w3.org/1999/02/22-rdf-syntax-ns#">
   <cc:Work>
    <dc:type rdf:resource="http://purl.org/dc/dcmitype/StillImage"/>
    <dc:date>2023-10-19T23:02:32.221485</dc:date>
    <dc:format>image/svg+xml</dc:format>
    <dc:creator>
     <cc:Agent>
      <dc:title>Matplotlib v3.7.1, https://matplotlib.org/</dc:title>
     </cc:Agent>
    </dc:creator>
   </cc:Work>
  </rdf:RDF>
 </metadata>
 <defs>
  <style type="text/css">*{stroke-linejoin: round; stroke-linecap: butt}</style>
 </defs>
 <g id="figure_1">
  <g id="patch_1">
   <path d="M 0 345.6 
L 460.8 345.6 
L 460.8 0 
L 0 0 
z
" style="fill: #ffffff"/>
  </g>
  <g id="axes_1">
   <g id="patch_2">
    <path d="M 57.6 307.584 
L 414.72 307.584 
L 414.72 41.472 
L 57.6 41.472 
z
" style="fill: #ffffff"/>
   </g>
   <g id="matplotlib.axis_1">
    <g id="xtick_1">
     <g id="line2d_1">
      <defs>
       <path id="m0e3febc064" d="M 0 0 
L 0 3.5 
" style="stroke: #000000; stroke-width: 0.8"/>
      </defs>
      <g>
       <use xlink:href="#m0e3febc064" x="73.832727" y="307.584" style="stroke: #000000; stroke-width: 0.8"/>
      </g>
     </g>
     <g id="text_1">
      <!-- 0 -->
      <g transform="translate(70.651477 322.182437) scale(0.1 -0.1)">
       <defs>
        <path id="DejaVuSans-30" d="M 2034 4250 
Q 1547 4250 1301 3770 
Q 1056 3291 1056 2328 
Q 1056 1369 1301 889 
Q 1547 409 2034 409 
Q 2525 409 2770 889 
Q 3016 1369 3016 2328 
Q 3016 3291 2770 3770 
Q 2525 4250 2034 4250 
z
M 2034 4750 
Q 2819 4750 3233 4129 
Q 3647 3509 3647 2328 
Q 3647 1150 3233 529 
Q 2819 -91 2034 -91 
Q 1250 -91 836 529 
Q 422 1150 422 2328 
Q 422 3509 836 4129 
Q 1250 4750 2034 4750 
z
" transform="scale(0.015625)"/>
       </defs>
       <use xlink:href="#DejaVuSans-30"/>
      </g>
     </g>
    </g>
    <g id="xtick_2">
     <g id="line2d_2">
      <g>
       <use xlink:href="#m0e3febc064" x="115.455105" y="307.584" style="stroke: #000000; stroke-width: 0.8"/>
      </g>
     </g>
     <g id="text_2">
      <!-- 20 -->
      <g transform="translate(109.092605 322.182437) scale(0.1 -0.1)">
       <defs>
        <path id="DejaVuSans-32" d="M 1228 531 
L 3431 531 
L 3431 0 
L 469 0 
L 469 531 
Q 828 903 1448 1529 
Q 2069 2156 2228 2338 
Q 2531 2678 2651 2914 
Q 2772 3150 2772 3378 
Q 2772 3750 2511 3984 
Q 2250 4219 1831 4219 
Q 1534 4219 1204 4116 
Q 875 4013 500 3803 
L 500 4441 
Q 881 4594 1212 4672 
Q 1544 4750 1819 4750 
Q 2544 4750 2975 4387 
Q 3406 4025 3406 3419 
Q 3406 3131 3298 2873 
Q 3191 2616 2906 2266 
Q 2828 2175 2409 1742 
Q 1991 1309 1228 531 
z
" transform="scale(0.015625)"/>
       </defs>
       <use xlink:href="#DejaVuSans-32"/>
       <use xlink:href="#DejaVuSans-30" x="63.623047"/>
      </g>
     </g>
    </g>
    <g id="xtick_3">
     <g id="line2d_3">
      <g>
       <use xlink:href="#m0e3febc064" x="157.077483" y="307.584" style="stroke: #000000; stroke-width: 0.8"/>
      </g>
     </g>
     <g id="text_3">
      <!-- 40 -->
      <g transform="translate(150.714983 322.182437) scale(0.1 -0.1)">
       <defs>
        <path id="DejaVuSans-34" d="M 2419 4116 
L 825 1625 
L 2419 1625 
L 2419 4116 
z
M 2253 4666 
L 3047 4666 
L 3047 1625 
L 3713 1625 
L 3713 1100 
L 3047 1100 
L 3047 0 
L 2419 0 
L 2419 1100 
L 313 1100 
L 313 1709 
L 2253 4666 
z
" transform="scale(0.015625)"/>
       </defs>
       <use xlink:href="#DejaVuSans-34"/>
       <use xlink:href="#DejaVuSans-30" x="63.623047"/>
      </g>
     </g>
    </g>
    <g id="xtick_4">
     <g id="line2d_4">
      <g>
       <use xlink:href="#m0e3febc064" x="198.69986" y="307.584" style="stroke: #000000; stroke-width: 0.8"/>
      </g>
     </g>
     <g id="text_4">
      <!-- 60 -->
      <g transform="translate(192.33736 322.182437) scale(0.1 -0.1)">
       <defs>
        <path id="DejaVuSans-36" d="M 2113 2584 
Q 1688 2584 1439 2293 
Q 1191 2003 1191 1497 
Q 1191 994 1439 701 
Q 1688 409 2113 409 
Q 2538 409 2786 701 
Q 3034 994 3034 1497 
Q 3034 2003 2786 2293 
Q 2538 2584 2113 2584 
z
M 3366 4563 
L 3366 3988 
Q 3128 4100 2886 4159 
Q 2644 4219 2406 4219 
Q 1781 4219 1451 3797 
Q 1122 3375 1075 2522 
Q 1259 2794 1537 2939 
Q 1816 3084 2150 3084 
Q 2853 3084 3261 2657 
Q 3669 2231 3669 1497 
Q 3669 778 3244 343 
Q 2819 -91 2113 -91 
Q 1303 -91 875 529 
Q 447 1150 447 2328 
Q 447 3434 972 4092 
Q 1497 4750 2381 4750 
Q 2619 4750 2861 4703 
Q 3103 4656 3366 4563 
z
" transform="scale(0.015625)"/>
       </defs>
       <use xlink:href="#DejaVuSans-36"/>
       <use xlink:href="#DejaVuSans-30" x="63.623047"/>
      </g>
     </g>
    </g>
    <g id="xtick_5">
     <g id="line2d_5">
      <g>
       <use xlink:href="#m0e3febc064" x="240.322238" y="307.584" style="stroke: #000000; stroke-width: 0.8"/>
      </g>
     </g>
     <g id="text_5">
      <!-- 80 -->
      <g transform="translate(233.959738 322.182437) scale(0.1 -0.1)">
       <defs>
        <path id="DejaVuSans-38" d="M 2034 2216 
Q 1584 2216 1326 1975 
Q 1069 1734 1069 1313 
Q 1069 891 1326 650 
Q 1584 409 2034 409 
Q 2484 409 2743 651 
Q 3003 894 3003 1313 
Q 3003 1734 2745 1975 
Q 2488 2216 2034 2216 
z
M 1403 2484 
Q 997 2584 770 2862 
Q 544 3141 544 3541 
Q 544 4100 942 4425 
Q 1341 4750 2034 4750 
Q 2731 4750 3128 4425 
Q 3525 4100 3525 3541 
Q 3525 3141 3298 2862 
Q 3072 2584 2669 2484 
Q 3125 2378 3379 2068 
Q 3634 1759 3634 1313 
Q 3634 634 3220 271 
Q 2806 -91 2034 -91 
Q 1263 -91 848 271 
Q 434 634 434 1313 
Q 434 1759 690 2068 
Q 947 2378 1403 2484 
z
M 1172 3481 
Q 1172 3119 1398 2916 
Q 1625 2713 2034 2713 
Q 2441 2713 2670 2916 
Q 2900 3119 2900 3481 
Q 2900 3844 2670 4047 
Q 2441 4250 2034 4250 
Q 1625 4250 1398 4047 
Q 1172 3844 1172 3481 
z
" transform="scale(0.015625)"/>
       </defs>
       <use xlink:href="#DejaVuSans-38"/>
       <use xlink:href="#DejaVuSans-30" x="63.623047"/>
      </g>
     </g>
    </g>
    <g id="xtick_6">
     <g id="line2d_6">
      <g>
       <use xlink:href="#m0e3febc064" x="281.944615" y="307.584" style="stroke: #000000; stroke-width: 0.8"/>
      </g>
     </g>
     <g id="text_6">
      <!-- 100 -->
      <g transform="translate(272.400865 322.182437) scale(0.1 -0.1)">
       <defs>
        <path id="DejaVuSans-31" d="M 794 531 
L 1825 531 
L 1825 4091 
L 703 3866 
L 703 4441 
L 1819 4666 
L 2450 4666 
L 2450 531 
L 3481 531 
L 3481 0 
L 794 0 
L 794 531 
z
" transform="scale(0.015625)"/>
       </defs>
       <use xlink:href="#DejaVuSans-31"/>
       <use xlink:href="#DejaVuSans-30" x="63.623047"/>
       <use xlink:href="#DejaVuSans-30" x="127.246094"/>
      </g>
     </g>
    </g>
    <g id="xtick_7">
     <g id="line2d_7">
      <g>
       <use xlink:href="#m0e3febc064" x="323.566993" y="307.584" style="stroke: #000000; stroke-width: 0.8"/>
      </g>
     </g>
     <g id="text_7">
      <!-- 120 -->
      <g transform="translate(314.023243 322.182437) scale(0.1 -0.1)">
       <use xlink:href="#DejaVuSans-31"/>
       <use xlink:href="#DejaVuSans-32" x="63.623047"/>
       <use xlink:href="#DejaVuSans-30" x="127.246094"/>
      </g>
     </g>
    </g>
    <g id="xtick_8">
     <g id="line2d_8">
      <g>
       <use xlink:href="#m0e3febc064" x="365.189371" y="307.584" style="stroke: #000000; stroke-width: 0.8"/>
      </g>
     </g>
     <g id="text_8">
      <!-- 140 -->
      <g transform="translate(355.645621 322.182437) scale(0.1 -0.1)">
       <use xlink:href="#DejaVuSans-31"/>
       <use xlink:href="#DejaVuSans-34" x="63.623047"/>
       <use xlink:href="#DejaVuSans-30" x="127.246094"/>
      </g>
     </g>
    </g>
    <g id="xtick_9">
     <g id="line2d_9">
      <g>
       <use xlink:href="#m0e3febc064" x="406.811748" y="307.584" style="stroke: #000000; stroke-width: 0.8"/>
      </g>
     </g>
     <g id="text_9">
      <!-- 160 -->
      <g transform="translate(397.267998 322.182437) scale(0.1 -0.1)">
       <use xlink:href="#DejaVuSans-31"/>
       <use xlink:href="#DejaVuSans-36" x="63.623047"/>
       <use xlink:href="#DejaVuSans-30" x="127.246094"/>
      </g>
     </g>
    </g>
    <g id="text_10">
     <!-- epoch -->
     <g transform="translate(220.931875 335.860562) scale(0.1 -0.1)">
      <defs>
       <path id="DejaVuSans-65" d="M 3597 1894 
L 3597 1613 
L 953 1613 
Q 991 1019 1311 708 
Q 1631 397 2203 397 
Q 2534 397 2845 478 
Q 3156 559 3463 722 
L 3463 178 
Q 3153 47 2828 -22 
Q 2503 -91 2169 -91 
Q 1331 -91 842 396 
Q 353 884 353 1716 
Q 353 2575 817 3079 
Q 1281 3584 2069 3584 
Q 2775 3584 3186 3129 
Q 3597 2675 3597 1894 
z
M 3022 2063 
Q 3016 2534 2758 2815 
Q 2500 3097 2075 3097 
Q 1594 3097 1305 2825 
Q 1016 2553 972 2059 
L 3022 2063 
z
" transform="scale(0.015625)"/>
       <path id="DejaVuSans-70" d="M 1159 525 
L 1159 -1331 
L 581 -1331 
L 581 3500 
L 1159 3500 
L 1159 2969 
Q 1341 3281 1617 3432 
Q 1894 3584 2278 3584 
Q 2916 3584 3314 3078 
Q 3713 2572 3713 1747 
Q 3713 922 3314 415 
Q 2916 -91 2278 -91 
Q 1894 -91 1617 61 
Q 1341 213 1159 525 
z
M 3116 1747 
Q 3116 2381 2855 2742 
Q 2594 3103 2138 3103 
Q 1681 3103 1420 2742 
Q 1159 2381 1159 1747 
Q 1159 1113 1420 752 
Q 1681 391 2138 391 
Q 2594 391 2855 752 
Q 3116 1113 3116 1747 
z
" transform="scale(0.015625)"/>
       <path id="DejaVuSans-6f" d="M 1959 3097 
Q 1497 3097 1228 2736 
Q 959 2375 959 1747 
Q 959 1119 1226 758 
Q 1494 397 1959 397 
Q 2419 397 2687 759 
Q 2956 1122 2956 1747 
Q 2956 2369 2687 2733 
Q 2419 3097 1959 3097 
z
M 1959 3584 
Q 2709 3584 3137 3096 
Q 3566 2609 3566 1747 
Q 3566 888 3137 398 
Q 2709 -91 1959 -91 
Q 1206 -91 779 398 
Q 353 888 353 1747 
Q 353 2609 779 3096 
Q 1206 3584 1959 3584 
z
" transform="scale(0.015625)"/>
       <path id="DejaVuSans-63" d="M 3122 3366 
L 3122 2828 
Q 2878 2963 2633 3030 
Q 2388 3097 2138 3097 
Q 1578 3097 1268 2742 
Q 959 2388 959 1747 
Q 959 1106 1268 751 
Q 1578 397 2138 397 
Q 2388 397 2633 464 
Q 2878 531 3122 666 
L 3122 134 
Q 2881 22 2623 -34 
Q 2366 -91 2075 -91 
Q 1284 -91 818 406 
Q 353 903 353 1747 
Q 353 2603 823 3093 
Q 1294 3584 2113 3584 
Q 2378 3584 2631 3529 
Q 2884 3475 3122 3366 
z
" transform="scale(0.015625)"/>
       <path id="DejaVuSans-68" d="M 3513 2113 
L 3513 0 
L 2938 0 
L 2938 2094 
Q 2938 2591 2744 2837 
Q 2550 3084 2163 3084 
Q 1697 3084 1428 2787 
Q 1159 2491 1159 1978 
L 1159 0 
L 581 0 
L 581 4863 
L 1159 4863 
L 1159 2956 
Q 1366 3272 1645 3428 
Q 1925 3584 2291 3584 
Q 2894 3584 3203 3211 
Q 3513 2838 3513 2113 
z
" transform="scale(0.015625)"/>
      </defs>
      <use xlink:href="#DejaVuSans-65"/>
      <use xlink:href="#DejaVuSans-70" x="61.523438"/>
      <use xlink:href="#DejaVuSans-6f" x="125"/>
      <use xlink:href="#DejaVuSans-63" x="186.181641"/>
      <use xlink:href="#DejaVuSans-68" x="241.162109"/>
     </g>
    </g>
   </g>
   <g id="matplotlib.axis_2">
    <g id="ytick_1">
     <g id="line2d_10">
      <defs>
       <path id="mc0f59691f7" d="M 0 0 
L -3.5 0 
" style="stroke: #000000; stroke-width: 0.8"/>
      </defs>
      <g>
       <use xlink:href="#mc0f59691f7" x="57.6" y="303.639918" style="stroke: #000000; stroke-width: 0.8"/>
      </g>
     </g>
     <g id="text_11">
      <!-- 0 -->
      <g transform="translate(44.2375 307.439137) scale(0.1 -0.1)">
       <use xlink:href="#DejaVuSans-30"/>
      </g>
     </g>
    </g>
    <g id="ytick_2">
     <g id="line2d_11">
      <g>
       <use xlink:href="#mc0f59691f7" x="57.6" y="264.444051" style="stroke: #000000; stroke-width: 0.8"/>
      </g>
     </g>
     <g id="text_12">
      <!-- 2 -->
      <g transform="translate(44.2375 268.243269) scale(0.1 -0.1)">
       <use xlink:href="#DejaVuSans-32"/>
      </g>
     </g>
    </g>
    <g id="ytick_3">
     <g id="line2d_12">
      <g>
       <use xlink:href="#mc0f59691f7" x="57.6" y="225.248183" style="stroke: #000000; stroke-width: 0.8"/>
      </g>
     </g>
     <g id="text_13">
      <!-- 4 -->
      <g transform="translate(44.2375 229.047401) scale(0.1 -0.1)">
       <use xlink:href="#DejaVuSans-34"/>
      </g>
     </g>
    </g>
    <g id="ytick_4">
     <g id="line2d_13">
      <g>
       <use xlink:href="#mc0f59691f7" x="57.6" y="186.052315" style="stroke: #000000; stroke-width: 0.8"/>
      </g>
     </g>
     <g id="text_14">
      <!-- 6 -->
      <g transform="translate(44.2375 189.851533) scale(0.1 -0.1)">
       <use xlink:href="#DejaVuSans-36"/>
      </g>
     </g>
    </g>
    <g id="ytick_5">
     <g id="line2d_14">
      <g>
       <use xlink:href="#mc0f59691f7" x="57.6" y="146.856447" style="stroke: #000000; stroke-width: 0.8"/>
      </g>
     </g>
     <g id="text_15">
      <!-- 8 -->
      <g transform="translate(44.2375 150.655665) scale(0.1 -0.1)">
       <use xlink:href="#DejaVuSans-38"/>
      </g>
     </g>
    </g>
    <g id="ytick_6">
     <g id="line2d_15">
      <g>
       <use xlink:href="#mc0f59691f7" x="57.6" y="107.660579" style="stroke: #000000; stroke-width: 0.8"/>
      </g>
     </g>
     <g id="text_16">
      <!-- 10 -->
      <g transform="translate(37.875 111.459797) scale(0.1 -0.1)">
       <use xlink:href="#DejaVuSans-31"/>
       <use xlink:href="#DejaVuSans-30" x="63.623047"/>
      </g>
     </g>
    </g>
    <g id="ytick_7">
     <g id="line2d_16">
      <g>
       <use xlink:href="#mc0f59691f7" x="57.6" y="68.464711" style="stroke: #000000; stroke-width: 0.8"/>
      </g>
     </g>
     <g id="text_17">
      <!-- 12 -->
      <g transform="translate(37.875 72.263929) scale(0.1 -0.1)">
       <use xlink:href="#DejaVuSans-31"/>
       <use xlink:href="#DejaVuSans-32" x="63.623047"/>
      </g>
     </g>
    </g>
    <g id="text_18">
     <!-- loss value -->
     <g transform="translate(31.795312 199.432687) rotate(-90) scale(0.1 -0.1)">
      <defs>
       <path id="DejaVuSans-6c" d="M 603 4863 
L 1178 4863 
L 1178 0 
L 603 0 
L 603 4863 
z
" transform="scale(0.015625)"/>
       <path id="DejaVuSans-73" d="M 2834 3397 
L 2834 2853 
Q 2591 2978 2328 3040 
Q 2066 3103 1784 3103 
Q 1356 3103 1142 2972 
Q 928 2841 928 2578 
Q 928 2378 1081 2264 
Q 1234 2150 1697 2047 
L 1894 2003 
Q 2506 1872 2764 1633 
Q 3022 1394 3022 966 
Q 3022 478 2636 193 
Q 2250 -91 1575 -91 
Q 1294 -91 989 -36 
Q 684 19 347 128 
L 347 722 
Q 666 556 975 473 
Q 1284 391 1588 391 
Q 1994 391 2212 530 
Q 2431 669 2431 922 
Q 2431 1156 2273 1281 
Q 2116 1406 1581 1522 
L 1381 1569 
Q 847 1681 609 1914 
Q 372 2147 372 2553 
Q 372 3047 722 3315 
Q 1072 3584 1716 3584 
Q 2034 3584 2315 3537 
Q 2597 3491 2834 3397 
z
" transform="scale(0.015625)"/>
       <path id="DejaVuSans-20" transform="scale(0.015625)"/>
       <path id="DejaVuSans-76" d="M 191 3500 
L 800 3500 
L 1894 563 
L 2988 3500 
L 3597 3500 
L 2284 0 
L 1503 0 
L 191 3500 
z
" transform="scale(0.015625)"/>
       <path id="DejaVuSans-61" d="M 2194 1759 
Q 1497 1759 1228 1600 
Q 959 1441 959 1056 
Q 959 750 1161 570 
Q 1363 391 1709 391 
Q 2188 391 2477 730 
Q 2766 1069 2766 1631 
L 2766 1759 
L 2194 1759 
z
M 3341 1997 
L 3341 0 
L 2766 0 
L 2766 531 
Q 2569 213 2275 61 
Q 1981 -91 1556 -91 
Q 1019 -91 701 211 
Q 384 513 384 1019 
Q 384 1609 779 1909 
Q 1175 2209 1959 2209 
L 2766 2209 
L 2766 2266 
Q 2766 2663 2505 2880 
Q 2244 3097 1772 3097 
Q 1472 3097 1187 3025 
Q 903 2953 641 2809 
L 641 3341 
Q 956 3463 1253 3523 
Q 1550 3584 1831 3584 
Q 2591 3584 2966 3190 
Q 3341 2797 3341 1997 
z
" transform="scale(0.015625)"/>
       <path id="DejaVuSans-75" d="M 544 1381 
L 544 3500 
L 1119 3500 
L 1119 1403 
Q 1119 906 1312 657 
Q 1506 409 1894 409 
Q 2359 409 2629 706 
Q 2900 1003 2900 1516 
L 2900 3500 
L 3475 3500 
L 3475 0 
L 2900 0 
L 2900 538 
Q 2691 219 2414 64 
Q 2138 -91 1772 -91 
Q 1169 -91 856 284 
Q 544 659 544 1381 
z
M 1991 3584 
L 1991 3584 
z
" transform="scale(0.015625)"/>
      </defs>
      <use xlink:href="#DejaVuSans-6c"/>
      <use xlink:href="#DejaVuSans-6f" x="27.783203"/>
      <use xlink:href="#DejaVuSans-73" x="88.964844"/>
      <use xlink:href="#DejaVuSans-73" x="141.064453"/>
      <use xlink:href="#DejaVuSans-20" x="193.164062"/>
      <use xlink:href="#DejaVuSans-76" x="224.951172"/>
      <use xlink:href="#DejaVuSans-61" x="284.130859"/>
      <use xlink:href="#DejaVuSans-6c" x="345.410156"/>
      <use xlink:href="#DejaVuSans-75" x="373.193359"/>
      <use xlink:href="#DejaVuSans-65" x="436.572266"/>
     </g>
    </g>
   </g>
   <g id="line2d_17">
    <path d="M 73.832727 147.04172 
L 75.913846 154.062223 
L 80.076084 177.129717 
L 82.157203 188.984037 
L 84.238322 188.641909 
L 86.319441 195.296787 
L 88.400559 197.158728 
L 90.481678 205.137381 
L 92.562797 209.246942 
L 94.643916 210.782228 
L 96.725035 217.783585 
L 98.806154 223.708287 
L 100.887273 223.030737 
L 102.968392 228.520615 
L 105.04951 229.506589 
L 107.130629 233.044319 
L 109.211748 239.390494 
L 111.292867 239.211423 
L 113.373986 241.609037 
L 115.455105 246.535348 
L 117.536224 246.474743 
L 119.617343 250.854896 
L 121.698462 252.80584 
L 123.77958 252.548519 
L 125.860699 257.705322 
L 127.941818 257.085359 
L 130.022937 256.88382 
L 132.104056 263.094384 
L 134.185175 262.366466 
L 136.266294 261.200276 
L 138.347413 266.787923 
L 140.428531 270.225122 
L 142.50965 269.266434 
L 144.590769 269.258652 
L 146.671888 268.355022 
L 148.753007 273.515905 
L 150.834126 272.650857 
L 152.915245 274.839851 
L 154.996364 271.972308 
L 157.077483 277.111866 
L 159.158601 274.251804 
L 161.23972 276.654294 
L 163.320839 275.828942 
L 165.401958 278.270897 
L 167.483077 278.384475 
L 169.564196 281.828101 
L 171.645315 278.899088 
L 173.726434 279.912952 
L 175.807552 281.396658 
L 177.888671 281.147659 
L 179.96979 283.623575 
L 182.050909 281.59089 
L 184.132028 281.990825 
L 186.213147 284.17135 
L 190.375385 284.469539 
L 192.456503 285.046844 
L 194.537622 285.422892 
L 196.618741 286.412738 
L 198.69986 285.610502 
L 200.780979 285.476368 
L 202.862098 286.333157 
L 204.943217 287.739861 
L 207.024336 287.225801 
L 209.105455 287.419128 
L 211.186573 288.79121 
L 213.267692 287.744193 
L 215.348811 288.499448 
L 217.42993 287.530396 
L 219.511049 289.559114 
L 221.592168 287.968241 
L 223.673287 288.901345 
L 225.754406 289.468725 
L 227.835524 290.826276 
L 229.916643 289.590271 
L 231.997762 288.686431 
L 234.078881 288.64474 
L 236.16 289.569753 
L 238.241119 290.066437 
L 240.322238 290.40588 
L 242.403357 291.383901 
L 244.484476 288.986224 
L 246.565594 290.29934 
L 248.646713 290.715567 
L 250.727832 290.555105 
L 252.808951 292.107847 
L 254.89007 290.699491 
L 256.971189 290.316939 
L 259.052308 291.159407 
L 261.133427 291.351234 
L 263.214545 290.559811 
L 265.295664 291.57298 
L 267.376783 291.383818 
L 271.539021 292.039765 
L 273.62014 291.436271 
L 275.701259 292.658632 
L 277.782378 291.270943 
L 279.863497 292.500658 
L 281.944615 292.533658 
L 284.025734 292.112949 
L 286.106853 293.902401 
L 288.187972 293.082908 
L 290.269091 292.05186 
L 292.35021 293.333512 
L 294.431329 292.111714 
L 298.593566 292.048741 
L 302.755804 292.510286 
L 304.836923 293.119172 
L 306.918042 293.160439 
L 308.999161 293.064198 
L 311.08028 292.844035 
L 313.161399 293.479059 
L 315.242517 292.915207 
L 317.323636 294.227001 
L 319.404755 294.221372 
L 321.485874 293.07047 
L 323.566993 294.546625 
L 325.648112 291.939059 
L 327.729231 293.885604 
L 329.81035 293.750986 
L 331.891469 294.678976 
L 333.972587 294.694097 
L 336.053706 293.109162 
L 338.134825 294.061635 
L 340.215944 294.325707 
L 342.297063 293.741217 
L 344.378182 293.946274 
L 346.459301 293.007447 
L 350.621538 292.448723 
L 352.702657 293.809923 
L 354.783776 293.478588 
L 356.864895 294.461851 
L 358.946014 294.546361 
L 361.027133 295.011937 
L 363.108252 293.956593 
L 365.189371 294.214365 
L 367.27049 292.759021 
L 369.351608 293.647098 
L 371.432727 294.321733 
L 373.513846 293.175361 
L 375.594965 292.936662 
L 377.676084 293.923576 
L 379.757203 293.796299 
L 381.838322 293.092068 
L 383.919441 292.885805 
L 386.000559 292.121417 
L 388.081678 294.884948 
L 390.162797 295.488 
L 392.243916 293.583298 
L 394.325035 295.088264 
L 396.406154 293.165821 
L 398.487273 294.562306 
L 398.487273 294.562306 
" clip-path="url(#p6bb42b9de9)" style="fill: none; stroke: #0000ff; stroke-width: 1.5; stroke-linecap: square"/>
   </g>
   <g id="line2d_18">
    <path d="M 73.832727 210.166198 
L 75.913846 219.394209 
L 77.994965 224.24186 
L 80.076084 227.665615 
L 82.157203 226.155922 
L 84.238322 230.792631 
L 86.319441 236.345119 
L 88.400559 234.782565 
L 90.481678 236.866826 
L 92.562797 239.301903 
L 94.643916 241.127815 
L 96.725035 243.569319 
L 98.806154 243.543234 
L 100.887273 246.520129 
L 102.968392 247.214881 
L 105.04951 246.720243 
L 107.130629 248.083333 
L 109.211748 251.07152 
L 111.292867 252.344173 
L 113.373986 253.383657 
L 115.455105 250.869098 
L 117.536224 256.393877 
L 121.698462 257.590938 
L 123.77958 255.492935 
L 125.860699 259.209657 
L 127.941818 260.800108 
L 130.022937 259.642527 
L 132.104056 259.527833 
L 134.185175 261.761252 
L 136.266294 262.256978 
L 138.347413 263.456678 
L 140.428531 264.094631 
L 142.50965 266.355225 
L 144.590769 264.794516 
L 146.671888 266.496541 
L 148.753007 265.513419 
L 150.834126 266.450392 
L 152.915245 265.794059 
L 154.996364 267.301377 
L 157.077483 265.761858 
L 159.158601 268.35113 
L 161.23972 267.336238 
L 163.320839 267.945565 
L 165.401958 267.325357 
L 167.483077 270.271102 
L 169.564196 271.284485 
L 171.645315 271.595035 
L 173.726434 269.852393 
L 175.807552 266.883615 
L 177.888671 269.853072 
L 179.96979 270.934541 
L 182.050909 270.813847 
L 184.132028 271.985 
L 186.213147 272.026382 
L 188.294266 270.442608 
L 190.375385 270.455205 
L 192.456503 271.546419 
L 194.537622 270.012141 
L 196.618741 271.443653 
L 198.69986 269.07263 
L 200.780979 269.192951 
L 202.862098 272.641825 
L 204.943217 270.389865 
L 207.024336 270.299073 
L 209.105455 270.771024 
L 211.186573 270.415483 
L 213.267692 269.144107 
L 215.348811 269.30437 
L 217.42993 272.790955 
L 219.511049 272.652535 
L 221.592168 271.753048 
L 225.754406 272.573484 
L 227.835524 268.86111 
L 229.916643 269.679796 
L 231.997762 269.84064 
L 234.078881 272.828262 
L 236.16 271.987216 
L 238.241119 269.592294 
L 240.322238 272.4243 
L 242.403357 269.755812 
L 244.484476 269.998987 
L 246.565594 268.635017 
L 248.646713 272.125289 
L 250.727832 274.344906 
L 252.808951 269.446467 
L 254.89007 270.81857 
L 256.971189 270.584203 
L 259.052308 272.355871 
L 261.133427 269.203369 
L 263.214545 269.43937 
L 265.295664 273.214981 
L 267.376783 270.730627 
L 269.457902 273.192725 
L 271.539021 270.127241 
L 273.62014 271.827419 
L 275.701259 272.309086 
L 277.782378 272.23929 
L 279.863497 270.324874 
L 281.944615 273.691735 
L 284.025734 271.729419 
L 286.106853 272.121098 
L 288.187972 271.471242 
L 290.269091 273.58052 
L 294.431329 270.172892 
L 296.512448 272.390036 
L 298.593566 270.248666 
L 300.674685 271.197527 
L 302.755804 269.523956 
L 304.836923 272.112244 
L 306.918042 272.773796 
L 308.999161 271.298486 
L 311.08028 270.236232 
L 313.161399 272.490043 
L 315.242517 272.64265 
L 317.323636 274.777233 
L 319.404755 271.225178 
L 321.485874 269.727288 
L 323.566993 273.819931 
L 325.648112 271.67592 
L 327.729231 273.008929 
L 329.81035 271.529162 
L 331.891469 272.076868 
L 333.972587 266.359874 
L 336.053706 273.122705 
L 338.134825 270.216119 
L 340.215944 272.603323 
L 342.297063 273.216165 
L 344.378182 270.829492 
L 346.459301 272.054392 
L 348.54042 271.586504 
L 350.621538 272.291378 
L 352.702657 273.667141 
L 354.783776 273.666448 
L 356.864895 273.231253 
L 358.946014 273.361069 
L 361.027133 267.983999 
L 363.108252 273.304653 
L 365.189371 271.615621 
L 367.27049 272.209773 
L 369.351608 271.982396 
L 371.432727 274.057601 
L 373.513846 271.338934 
L 375.594965 271.887223 
L 377.676084 272.562376 
L 379.757203 269.524429 
L 381.838322 271.427252 
L 383.919441 274.757061 
L 386.000559 273.667064 
L 388.081678 273.154322 
L 390.162797 275.364188 
L 392.243916 271.090944 
L 394.325035 268.028794 
L 396.406154 272.23006 
L 398.487273 272.43207 
L 398.487273 272.43207 
" clip-path="url(#p6bb42b9de9)" style="fill: none; stroke: #008000; stroke-width: 1.5; stroke-linecap: square"/>
   </g>
   <g id="line2d_19">
    <path d="M 73.832727 53.568 
L 77.994965 85.904103 
L 80.076084 101.155414 
L 82.157203 111.50004 
L 84.238322 115.794622 
L 86.319441 128.001987 
L 88.400559 128.301374 
L 90.481678 138.364288 
L 92.562797 144.908927 
L 94.643916 148.270125 
L 96.725035 157.712985 
L 98.806154 163.611603 
L 100.887273 165.910948 
L 102.968392 172.095578 
L 105.04951 172.586913 
L 107.130629 177.487734 
L 109.211748 186.822095 
L 111.292867 187.915677 
L 113.373986 191.352776 
L 115.455105 193.764528 
L 117.536224 199.228702 
L 119.617343 204.188742 
L 121.698462 206.756859 
L 123.77958 204.401536 
L 125.860699 213.27506 
L 127.941818 214.245548 
L 130.022937 212.886429 
L 132.104056 218.982299 
L 134.185175 220.487799 
L 136.266294 219.817335 
L 138.347413 226.604683 
L 140.428531 230.679835 
L 142.50965 231.981741 
L 144.590769 230.41325 
L 146.671888 231.211644 
L 148.753007 235.389406 
L 150.834126 235.46133 
L 152.915245 236.993992 
L 154.996364 235.633767 
L 157.077483 239.233806 
L 159.158601 238.963016 
L 161.23972 240.350614 
L 163.320839 240.134589 
L 165.401958 241.956335 
L 167.483077 245.015658 
L 169.564196 249.472667 
L 171.645315 246.854204 
L 173.726434 246.125427 
L 175.807552 244.640355 
L 177.888671 247.360813 
L 179.96979 250.918198 
L 182.050909 248.764818 
L 184.132028 250.335907 
L 186.213147 252.557813 
L 188.294266 251.113513 
L 190.375385 251.284826 
L 192.456503 252.953344 
L 194.537622 251.795114 
L 196.618741 254.216472 
L 198.69986 251.043213 
L 200.780979 251.0294 
L 202.862098 255.335063 
L 204.943217 254.489808 
L 207.024336 253.884956 
L 209.105455 254.550234 
L 211.186573 255.566774 
L 213.267692 253.248382 
L 215.348811 254.163899 
L 217.42993 256.681432 
L 219.511049 258.571731 
L 221.592168 256.081371 
L 223.673287 257.479902 
L 225.754406 258.402291 
L 227.835524 256.047468 
L 229.916643 255.630148 
L 231.997762 254.887153 
L 234.078881 257.833083 
L 236.16 257.91705 
L 238.241119 256.018812 
L 240.322238 259.190262 
L 242.403357 257.499794 
L 244.484476 255.345293 
L 246.565594 255.294439 
L 248.646713 259.200937 
L 250.727832 261.260092 
L 252.808951 257.914395 
L 254.89007 257.878142 
L 256.971189 257.261223 
L 259.052308 259.87536 
L 261.133427 256.914684 
L 263.214545 256.359263 
L 265.295664 261.148042 
L 267.376783 258.474527 
L 269.457902 261.273719 
L 271.539021 258.527088 
L 273.62014 259.623772 
L 275.701259 261.327799 
L 277.782378 259.870315 
L 279.863497 259.185614 
L 281.944615 262.585475 
L 284.025734 260.202449 
L 286.106853 262.38358 
L 288.187972 260.914231 
L 290.269091 261.992462 
L 292.35021 261.552856 
L 294.431329 258.644688 
L 296.512448 260.804164 
L 298.593566 258.657489 
L 300.674685 259.850233 
L 302.755804 258.394324 
L 304.836923 261.591498 
L 306.918042 262.294317 
L 308.999161 260.722765 
L 311.08028 259.440348 
L 313.161399 262.329184 
L 315.242517 261.917939 
L 317.323636 265.364315 
L 319.404755 261.806631 
L 321.485874 259.15784 
L 323.566993 264.726638 
L 325.648112 259.97506 
L 327.729231 263.254615 
L 329.81035 261.64023 
L 331.891469 263.115926 
L 333.972587 257.414052 
L 336.053706 262.591948 
L 338.134825 260.637835 
L 340.215944 263.289111 
L 342.297063 263.317463 
L 344.378182 261.135847 
L 346.459301 261.421921 
L 348.54042 260.70449 
L 350.621538 261.100183 
L 352.702657 263.837146 
L 354.783776 263.505117 
L 356.864895 264.053186 
L 358.946014 264.267512 
L 361.027133 259.356017 
L 363.108252 263.621328 
L 365.189371 262.190068 
L 367.27049 261.328875 
L 369.351608 261.989576 
L 371.432727 264.739415 
L 373.513846 260.874377 
L 375.594965 261.183967 
L 377.676084 262.846033 
L 379.757203 259.68081 
L 381.838322 260.879402 
L 383.919441 264.002948 
L 386.000559 262.148563 
L 388.081678 264.399352 
L 390.162797 267.21227 
L 392.243916 261.034323 
L 394.325035 259.47714 
L 396.406154 261.755962 
L 398.487273 263.354458 
L 398.487273 263.354458 
" clip-path="url(#p6bb42b9de9)" style="fill: none; stroke: #ff0000; stroke-width: 1.5; stroke-linecap: square"/>
   </g>
   <g id="patch_3">
    <path d="M 57.6 307.584 
L 57.6 41.472 
" style="fill: none; stroke: #000000; stroke-width: 0.8; stroke-linejoin: miter; stroke-linecap: square"/>
   </g>
   <g id="patch_4">
    <path d="M 414.72 307.584 
L 414.72 41.472 
" style="fill: none; stroke: #000000; stroke-width: 0.8; stroke-linejoin: miter; stroke-linecap: square"/>
   </g>
   <g id="patch_5">
    <path d="M 57.6 307.584 
L 414.72 307.584 
" style="fill: none; stroke: #000000; stroke-width: 0.8; stroke-linejoin: miter; stroke-linecap: square"/>
   </g>
   <g id="patch_6">
    <path d="M 57.6 41.472 
L 414.72 41.472 
" style="fill: none; stroke: #000000; stroke-width: 0.8; stroke-linejoin: miter; stroke-linecap: square"/>
   </g>
   <g id="text_19">
    <!-- The loss curve on voc/voc_fixed_interactive/guest/10 -->
    <g transform="translate(77.114062 35.472) scale(0.12 -0.12)">
     <defs>
      <path id="DejaVuSans-54" d="M -19 4666 
L 3928 4666 
L 3928 4134 
L 2272 4134 
L 2272 0 
L 1638 0 
L 1638 4134 
L -19 4134 
L -19 4666 
z
" transform="scale(0.015625)"/>
      <path id="DejaVuSans-72" d="M 2631 2963 
Q 2534 3019 2420 3045 
Q 2306 3072 2169 3072 
Q 1681 3072 1420 2755 
Q 1159 2438 1159 1844 
L 1159 0 
L 581 0 
L 581 3500 
L 1159 3500 
L 1159 2956 
Q 1341 3275 1631 3429 
Q 1922 3584 2338 3584 
Q 2397 3584 2469 3576 
Q 2541 3569 2628 3553 
L 2631 2963 
z
" transform="scale(0.015625)"/>
      <path id="DejaVuSans-6e" d="M 3513 2113 
L 3513 0 
L 2938 0 
L 2938 2094 
Q 2938 2591 2744 2837 
Q 2550 3084 2163 3084 
Q 1697 3084 1428 2787 
Q 1159 2491 1159 1978 
L 1159 0 
L 581 0 
L 581 3500 
L 1159 3500 
L 1159 2956 
Q 1366 3272 1645 3428 
Q 1925 3584 2291 3584 
Q 2894 3584 3203 3211 
Q 3513 2838 3513 2113 
z
" transform="scale(0.015625)"/>
      <path id="DejaVuSans-2f" d="M 1625 4666 
L 2156 4666 
L 531 -594 
L 0 -594 
L 1625 4666 
z
" transform="scale(0.015625)"/>
      <path id="DejaVuSans-5f" d="M 3263 -1063 
L 3263 -1509 
L -63 -1509 
L -63 -1063 
L 3263 -1063 
z
" transform="scale(0.015625)"/>
      <path id="DejaVuSans-66" d="M 2375 4863 
L 2375 4384 
L 1825 4384 
Q 1516 4384 1395 4259 
Q 1275 4134 1275 3809 
L 1275 3500 
L 2222 3500 
L 2222 3053 
L 1275 3053 
L 1275 0 
L 697 0 
L 697 3053 
L 147 3053 
L 147 3500 
L 697 3500 
L 697 3744 
Q 697 4328 969 4595 
Q 1241 4863 1831 4863 
L 2375 4863 
z
" transform="scale(0.015625)"/>
      <path id="DejaVuSans-69" d="M 603 3500 
L 1178 3500 
L 1178 0 
L 603 0 
L 603 3500 
z
M 603 4863 
L 1178 4863 
L 1178 4134 
L 603 4134 
L 603 4863 
z
" transform="scale(0.015625)"/>
      <path id="DejaVuSans-78" d="M 3513 3500 
L 2247 1797 
L 3578 0 
L 2900 0 
L 1881 1375 
L 863 0 
L 184 0 
L 1544 1831 
L 300 3500 
L 978 3500 
L 1906 2253 
L 2834 3500 
L 3513 3500 
z
" transform="scale(0.015625)"/>
      <path id="DejaVuSans-64" d="M 2906 2969 
L 2906 4863 
L 3481 4863 
L 3481 0 
L 2906 0 
L 2906 525 
Q 2725 213 2448 61 
Q 2172 -91 1784 -91 
Q 1150 -91 751 415 
Q 353 922 353 1747 
Q 353 2572 751 3078 
Q 1150 3584 1784 3584 
Q 2172 3584 2448 3432 
Q 2725 3281 2906 2969 
z
M 947 1747 
Q 947 1113 1208 752 
Q 1469 391 1925 391 
Q 2381 391 2643 752 
Q 2906 1113 2906 1747 
Q 2906 2381 2643 2742 
Q 2381 3103 1925 3103 
Q 1469 3103 1208 2742 
Q 947 2381 947 1747 
z
" transform="scale(0.015625)"/>
      <path id="DejaVuSans-74" d="M 1172 4494 
L 1172 3500 
L 2356 3500 
L 2356 3053 
L 1172 3053 
L 1172 1153 
Q 1172 725 1289 603 
Q 1406 481 1766 481 
L 2356 481 
L 2356 0 
L 1766 0 
Q 1100 0 847 248 
Q 594 497 594 1153 
L 594 3053 
L 172 3053 
L 172 3500 
L 594 3500 
L 594 4494 
L 1172 4494 
z
" transform="scale(0.015625)"/>
      <path id="DejaVuSans-67" d="M 2906 1791 
Q 2906 2416 2648 2759 
Q 2391 3103 1925 3103 
Q 1463 3103 1205 2759 
Q 947 2416 947 1791 
Q 947 1169 1205 825 
Q 1463 481 1925 481 
Q 2391 481 2648 825 
Q 2906 1169 2906 1791 
z
M 3481 434 
Q 3481 -459 3084 -895 
Q 2688 -1331 1869 -1331 
Q 1566 -1331 1297 -1286 
Q 1028 -1241 775 -1147 
L 775 -588 
Q 1028 -725 1275 -790 
Q 1522 -856 1778 -856 
Q 2344 -856 2625 -561 
Q 2906 -266 2906 331 
L 2906 616 
Q 2728 306 2450 153 
Q 2172 0 1784 0 
Q 1141 0 747 490 
Q 353 981 353 1791 
Q 353 2603 747 3093 
Q 1141 3584 1784 3584 
Q 2172 3584 2450 3431 
Q 2728 3278 2906 2969 
L 2906 3500 
L 3481 3500 
L 3481 434 
z
" transform="scale(0.015625)"/>
     </defs>
     <use xlink:href="#DejaVuSans-54"/>
     <use xlink:href="#DejaVuSans-68" x="61.083984"/>
     <use xlink:href="#DejaVuSans-65" x="124.462891"/>
     <use xlink:href="#DejaVuSans-20" x="185.986328"/>
     <use xlink:href="#DejaVuSans-6c" x="217.773438"/>
     <use xlink:href="#DejaVuSans-6f" x="245.556641"/>
     <use xlink:href="#DejaVuSans-73" x="306.738281"/>
     <use xlink:href="#DejaVuSans-73" x="358.837891"/>
     <use xlink:href="#DejaVuSans-20" x="410.9375"/>
     <use xlink:href="#DejaVuSans-63" x="442.724609"/>
     <use xlink:href="#DejaVuSans-75" x="497.705078"/>
     <use xlink:href="#DejaVuSans-72" x="561.083984"/>
     <use xlink:href="#DejaVuSans-76" x="602.197266"/>
     <use xlink:href="#DejaVuSans-65" x="661.376953"/>
     <use xlink:href="#DejaVuSans-20" x="722.900391"/>
     <use xlink:href="#DejaVuSans-6f" x="754.6875"/>
     <use xlink:href="#DejaVuSans-6e" x="815.869141"/>
     <use xlink:href="#DejaVuSans-20" x="879.248047"/>
     <use xlink:href="#DejaVuSans-76" x="911.035156"/>
     <use xlink:href="#DejaVuSans-6f" x="970.214844"/>
     <use xlink:href="#DejaVuSans-63" x="1031.396484"/>
     <use xlink:href="#DejaVuSans-2f" x="1086.376953"/>
     <use xlink:href="#DejaVuSans-76" x="1120.068359"/>
     <use xlink:href="#DejaVuSans-6f" x="1179.248047"/>
     <use xlink:href="#DejaVuSans-63" x="1240.429688"/>
     <use xlink:href="#DejaVuSans-5f" x="1295.410156"/>
     <use xlink:href="#DejaVuSans-66" x="1345.410156"/>
     <use xlink:href="#DejaVuSans-69" x="1380.615234"/>
     <use xlink:href="#DejaVuSans-78" x="1408.398438"/>
     <use xlink:href="#DejaVuSans-65" x="1464.453125"/>
     <use xlink:href="#DejaVuSans-64" x="1525.976562"/>
     <use xlink:href="#DejaVuSans-5f" x="1589.453125"/>
     <use xlink:href="#DejaVuSans-69" x="1639.453125"/>
     <use xlink:href="#DejaVuSans-6e" x="1667.236328"/>
     <use xlink:href="#DejaVuSans-74" x="1730.615234"/>
     <use xlink:href="#DejaVuSans-65" x="1769.824219"/>
     <use xlink:href="#DejaVuSans-72" x="1831.347656"/>
     <use xlink:href="#DejaVuSans-61" x="1872.460938"/>
     <use xlink:href="#DejaVuSans-63" x="1933.740234"/>
     <use xlink:href="#DejaVuSans-74" x="1988.720703"/>
     <use xlink:href="#DejaVuSans-69" x="2027.929688"/>
     <use xlink:href="#DejaVuSans-76" x="2055.712891"/>
     <use xlink:href="#DejaVuSans-65" x="2114.892578"/>
     <use xlink:href="#DejaVuSans-2f" x="2176.416016"/>
     <use xlink:href="#DejaVuSans-67" x="2210.107422"/>
     <use xlink:href="#DejaVuSans-75" x="2273.583984"/>
     <use xlink:href="#DejaVuSans-65" x="2336.962891"/>
     <use xlink:href="#DejaVuSans-73" x="2398.486328"/>
     <use xlink:href="#DejaVuSans-74" x="2450.585938"/>
     <use xlink:href="#DejaVuSans-2f" x="2489.794922"/>
     <use xlink:href="#DejaVuSans-31" x="2523.486328"/>
     <use xlink:href="#DejaVuSans-30" x="2587.109375"/>
    </g>
   </g>
   <g id="legend_1">
    <g id="patch_7">
     <path d="M 312.721563 94.34075 
L 407.72 94.34075 
Q 409.72 94.34075 409.72 92.34075 
L 409.72 48.472 
Q 409.72 46.472 407.72 46.472 
L 312.721563 46.472 
Q 310.721563 46.472 310.721563 48.472 
L 310.721563 92.34075 
Q 310.721563 94.34075 312.721563 94.34075 
z
" style="fill: #ffffff; opacity: 0.8; stroke: #cccccc; stroke-linejoin: miter"/>
    </g>
    <g id="line2d_20">
     <path d="M 314.721563 54.570438 
L 324.721563 54.570438 
L 334.721563 54.570438 
" style="fill: none; stroke: #0000ff; stroke-width: 1.5; stroke-linecap: square"/>
    </g>
    <g id="text_20">
     <!-- entropy_loss -->
     <g transform="translate(342.721563 58.070438) scale(0.1 -0.1)">
      <defs>
       <path id="DejaVuSans-79" d="M 2059 -325 
Q 1816 -950 1584 -1140 
Q 1353 -1331 966 -1331 
L 506 -1331 
L 506 -850 
L 844 -850 
Q 1081 -850 1212 -737 
Q 1344 -625 1503 -206 
L 1606 56 
L 191 3500 
L 800 3500 
L 1894 763 
L 2988 3500 
L 3597 3500 
L 2059 -325 
z
" transform="scale(0.015625)"/>
      </defs>
      <use xlink:href="#DejaVuSans-65"/>
      <use xlink:href="#DejaVuSans-6e" x="61.523438"/>
      <use xlink:href="#DejaVuSans-74" x="124.902344"/>
      <use xlink:href="#DejaVuSans-72" x="164.111328"/>
      <use xlink:href="#DejaVuSans-6f" x="202.974609"/>
      <use xlink:href="#DejaVuSans-70" x="264.15625"/>
      <use xlink:href="#DejaVuSans-79" x="327.632812"/>
      <use xlink:href="#DejaVuSans-5f" x="386.8125"/>
      <use xlink:href="#DejaVuSans-6c" x="436.8125"/>
      <use xlink:href="#DejaVuSans-6f" x="464.595703"/>
      <use xlink:href="#DejaVuSans-73" x="525.777344"/>
      <use xlink:href="#DejaVuSans-73" x="577.876953"/>
     </g>
    </g>
    <g id="line2d_21">
     <path d="M 314.721563 69.526688 
L 324.721563 69.526688 
L 334.721563 69.526688 
" style="fill: none; stroke: #008000; stroke-width: 1.5; stroke-linecap: square"/>
    </g>
    <g id="text_21">
     <!-- relation_loss -->
     <g transform="translate(342.721563 73.026688) scale(0.1 -0.1)">
      <use xlink:href="#DejaVuSans-72"/>
      <use xlink:href="#DejaVuSans-65" x="38.863281"/>
      <use xlink:href="#DejaVuSans-6c" x="100.386719"/>
      <use xlink:href="#DejaVuSans-61" x="128.169922"/>
      <use xlink:href="#DejaVuSans-74" x="189.449219"/>
      <use xlink:href="#DejaVuSans-69" x="228.658203"/>
      <use xlink:href="#DejaVuSans-6f" x="256.441406"/>
      <use xlink:href="#DejaVuSans-6e" x="317.623047"/>
      <use xlink:href="#DejaVuSans-5f" x="381.001953"/>
      <use xlink:href="#DejaVuSans-6c" x="431.001953"/>
      <use xlink:href="#DejaVuSans-6f" x="458.785156"/>
      <use xlink:href="#DejaVuSans-73" x="519.966797"/>
      <use xlink:href="#DejaVuSans-73" x="572.066406"/>
     </g>
    </g>
    <g id="line2d_22">
     <path d="M 314.721563 84.482938 
L 324.721563 84.482938 
L 334.721563 84.482938 
" style="fill: none; stroke: #ff0000; stroke-width: 1.5; stroke-linecap: square"/>
    </g>
    <g id="text_22">
     <!-- overall_loss -->
     <g transform="translate(342.721563 87.982938) scale(0.1 -0.1)">
      <use xlink:href="#DejaVuSans-6f"/>
      <use xlink:href="#DejaVuSans-76" x="61.181641"/>
      <use xlink:href="#DejaVuSans-65" x="120.361328"/>
      <use xlink:href="#DejaVuSans-72" x="181.884766"/>
      <use xlink:href="#DejaVuSans-61" x="222.998047"/>
      <use xlink:href="#DejaVuSans-6c" x="284.277344"/>
      <use xlink:href="#DejaVuSans-6c" x="312.060547"/>
      <use xlink:href="#DejaVuSans-5f" x="339.84375"/>
      <use xlink:href="#DejaVuSans-6c" x="389.84375"/>
      <use xlink:href="#DejaVuSans-6f" x="417.626953"/>
      <use xlink:href="#DejaVuSans-73" x="478.808594"/>
      <use xlink:href="#DejaVuSans-73" x="530.908203"/>
     </g>
    </g>
   </g>
  </g>
 </g>
 <defs>
  <clipPath id="p6bb42b9de9">
   <rect x="57.6" y="41.472" width="357.12" height="266.112"/>
  </clipPath>
 </defs>
</svg>
