<?xml version="1.0" encoding="utf-8" standalone="no"?>
<!DOCTYPE svg PUBLIC "-//W3C//DTD SVG 1.1//EN"
  "http://www.w3.org/Graphics/SVG/1.1/DTD/svg11.dtd">
<svg xmlns:xlink="http://www.w3.org/1999/xlink" width="460.8pt" height="345.6pt" viewBox="0 0 460.8 345.6" xmlns="http://www.w3.org/2000/svg" version="1.1">
 <metadata>
  <rdf:RDF xmlns:dc="http://purl.org/dc/elements/1.1/" xmlns:cc="http://creativecommons.org/ns#" xmlns:rdf="http://www.w3.org/1999/02/22-rdf-syntax-ns#">
   <cc:Work>
    <dc:type rdf:resource="http://purl.org/dc/dcmitype/StillImage"/>
    <dc:date>2023-06-19T00:39:03.604142</dc:date>
    <dc:format>image/svg+xml</dc:format>
    <dc:creator>
     <cc:Agent>
      <dc:title>Matplotlib v3.7.1, https://matplotlib.org/</dc:title>
     </cc:Agent>
    </dc:creator>
   </cc:Work>
  </rdf:RDF>
 </metadata>
 <defs>
  <style type="text/css">*{stroke-linejoin: round; stroke-linecap: butt}</style>
 </defs>
 <g id="figure_1">
  <g id="patch_1">
   <path d="M 0 345.6 
L 460.8 345.6 
L 460.8 0 
L 0 0 
z
" style="fill: #ffffff"/>
  </g>
  <g id="axes_1">
   <g id="patch_2">
    <path d="M 57.6 307.584 
L 414.72 307.584 
L 414.72 41.472 
L 57.6 41.472 
z
" style="fill: #ffffff"/>
   </g>
   <g id="matplotlib.axis_1">
    <g id="xtick_1">
     <g id="line2d_1">
      <defs>
       <path id="m357de1482c" d="M 0 0 
L 0 3.5 
" style="stroke: #000000; stroke-width: 0.8"/>
      </defs>
      <g>
       <use xlink:href="#m357de1482c" x="73.832727" y="307.584" style="stroke: #000000; stroke-width: 0.8"/>
      </g>
     </g>
     <g id="text_1">
      <!-- 0 -->
      <g transform="translate(70.651477 322.182437) scale(0.1 -0.1)">
       <defs>
        <path id="DejaVuSans-30" d="M 2034 4250 
Q 1547 4250 1301 3770 
Q 1056 3291 1056 2328 
Q 1056 1369 1301 889 
Q 1547 409 2034 409 
Q 2525 409 2770 889 
Q 3016 1369 3016 2328 
Q 3016 3291 2770 3770 
Q 2525 4250 2034 4250 
z
M 2034 4750 
Q 2819 4750 3233 4129 
Q 3647 3509 3647 2328 
Q 3647 1150 3233 529 
Q 2819 -91 2034 -91 
Q 1250 -91 836 529 
Q 422 1150 422 2328 
Q 422 3509 836 4129 
Q 1250 4750 2034 4750 
z
" transform="scale(0.015625)"/>
       </defs>
       <use xlink:href="#DejaVuSans-30"/>
      </g>
     </g>
    </g>
    <g id="xtick_2">
     <g id="line2d_2">
      <g>
       <use xlink:href="#m357de1482c" x="138.893758" y="307.584" style="stroke: #000000; stroke-width: 0.8"/>
      </g>
     </g>
     <g id="text_2">
      <!-- 100 -->
      <g transform="translate(129.350008 322.182437) scale(0.1 -0.1)">
       <defs>
        <path id="DejaVuSans-31" d="M 794 531 
L 1825 531 
L 1825 4091 
L 703 3866 
L 703 4441 
L 1819 4666 
L 2450 4666 
L 2450 531 
L 3481 531 
L 3481 0 
L 794 0 
L 794 531 
z
" transform="scale(0.015625)"/>
       </defs>
       <use xlink:href="#DejaVuSans-31"/>
       <use xlink:href="#DejaVuSans-30" x="63.623047"/>
       <use xlink:href="#DejaVuSans-30" x="127.246094"/>
      </g>
     </g>
    </g>
    <g id="xtick_3">
     <g id="line2d_3">
      <g>
       <use xlink:href="#m357de1482c" x="203.95479" y="307.584" style="stroke: #000000; stroke-width: 0.8"/>
      </g>
     </g>
     <g id="text_3">
      <!-- 200 -->
      <g transform="translate(194.41104 322.182437) scale(0.1 -0.1)">
       <defs>
        <path id="DejaVuSans-32" d="M 1228 531 
L 3431 531 
L 3431 0 
L 469 0 
L 469 531 
Q 828 903 1448 1529 
Q 2069 2156 2228 2338 
Q 2531 2678 2651 2914 
Q 2772 3150 2772 3378 
Q 2772 3750 2511 3984 
Q 2250 4219 1831 4219 
Q 1534 4219 1204 4116 
Q 875 4013 500 3803 
L 500 4441 
Q 881 4594 1212 4672 
Q 1544 4750 1819 4750 
Q 2544 4750 2975 4387 
Q 3406 4025 3406 3419 
Q 3406 3131 3298 2873 
Q 3191 2616 2906 2266 
Q 2828 2175 2409 1742 
Q 1991 1309 1228 531 
z
" transform="scale(0.015625)"/>
       </defs>
       <use xlink:href="#DejaVuSans-32"/>
       <use xlink:href="#DejaVuSans-30" x="63.623047"/>
       <use xlink:href="#DejaVuSans-30" x="127.246094"/>
      </g>
     </g>
    </g>
    <g id="xtick_4">
     <g id="line2d_4">
      <g>
       <use xlink:href="#m357de1482c" x="269.015821" y="307.584" style="stroke: #000000; stroke-width: 0.8"/>
      </g>
     </g>
     <g id="text_4">
      <!-- 300 -->
      <g transform="translate(259.472071 322.182437) scale(0.1 -0.1)">
       <defs>
        <path id="DejaVuSans-33" d="M 2597 2516 
Q 3050 2419 3304 2112 
Q 3559 1806 3559 1356 
Q 3559 666 3084 287 
Q 2609 -91 1734 -91 
Q 1441 -91 1130 -33 
Q 819 25 488 141 
L 488 750 
Q 750 597 1062 519 
Q 1375 441 1716 441 
Q 2309 441 2620 675 
Q 2931 909 2931 1356 
Q 2931 1769 2642 2001 
Q 2353 2234 1838 2234 
L 1294 2234 
L 1294 2753 
L 1863 2753 
Q 2328 2753 2575 2939 
Q 2822 3125 2822 3475 
Q 2822 3834 2567 4026 
Q 2313 4219 1838 4219 
Q 1578 4219 1281 4162 
Q 984 4106 628 3988 
L 628 4550 
Q 988 4650 1302 4700 
Q 1616 4750 1894 4750 
Q 2613 4750 3031 4423 
Q 3450 4097 3450 3541 
Q 3450 3153 3228 2886 
Q 3006 2619 2597 2516 
z
" transform="scale(0.015625)"/>
       </defs>
       <use xlink:href="#DejaVuSans-33"/>
       <use xlink:href="#DejaVuSans-30" x="63.623047"/>
       <use xlink:href="#DejaVuSans-30" x="127.246094"/>
      </g>
     </g>
    </g>
    <g id="xtick_5">
     <g id="line2d_5">
      <g>
       <use xlink:href="#m357de1482c" x="334.076852" y="307.584" style="stroke: #000000; stroke-width: 0.8"/>
      </g>
     </g>
     <g id="text_5">
      <!-- 400 -->
      <g transform="translate(324.533102 322.182437) scale(0.1 -0.1)">
       <defs>
        <path id="DejaVuSans-34" d="M 2419 4116 
L 825 1625 
L 2419 1625 
L 2419 4116 
z
M 2253 4666 
L 3047 4666 
L 3047 1625 
L 3713 1625 
L 3713 1100 
L 3047 1100 
L 3047 0 
L 2419 0 
L 2419 1100 
L 313 1100 
L 313 1709 
L 2253 4666 
z
" transform="scale(0.015625)"/>
       </defs>
       <use xlink:href="#DejaVuSans-34"/>
       <use xlink:href="#DejaVuSans-30" x="63.623047"/>
       <use xlink:href="#DejaVuSans-30" x="127.246094"/>
      </g>
     </g>
    </g>
    <g id="xtick_6">
     <g id="line2d_6">
      <g>
       <use xlink:href="#m357de1482c" x="399.137883" y="307.584" style="stroke: #000000; stroke-width: 0.8"/>
      </g>
     </g>
     <g id="text_6">
      <!-- 500 -->
      <g transform="translate(389.594133 322.182437) scale(0.1 -0.1)">
       <defs>
        <path id="DejaVuSans-35" d="M 691 4666 
L 3169 4666 
L 3169 4134 
L 1269 4134 
L 1269 2991 
Q 1406 3038 1543 3061 
Q 1681 3084 1819 3084 
Q 2600 3084 3056 2656 
Q 3513 2228 3513 1497 
Q 3513 744 3044 326 
Q 2575 -91 1722 -91 
Q 1428 -91 1123 -41 
Q 819 9 494 109 
L 494 744 
Q 775 591 1075 516 
Q 1375 441 1709 441 
Q 2250 441 2565 725 
Q 2881 1009 2881 1497 
Q 2881 1984 2565 2268 
Q 2250 2553 1709 2553 
Q 1456 2553 1204 2497 
Q 953 2441 691 2322 
L 691 4666 
z
" transform="scale(0.015625)"/>
       </defs>
       <use xlink:href="#DejaVuSans-35"/>
       <use xlink:href="#DejaVuSans-30" x="63.623047"/>
       <use xlink:href="#DejaVuSans-30" x="127.246094"/>
      </g>
     </g>
    </g>
    <g id="text_7">
     <!-- epoch -->
     <g transform="translate(220.931875 335.860562) scale(0.1 -0.1)">
      <defs>
       <path id="DejaVuSans-65" d="M 3597 1894 
L 3597 1613 
L 953 1613 
Q 991 1019 1311 708 
Q 1631 397 2203 397 
Q 2534 397 2845 478 
Q 3156 559 3463 722 
L 3463 178 
Q 3153 47 2828 -22 
Q 2503 -91 2169 -91 
Q 1331 -91 842 396 
Q 353 884 353 1716 
Q 353 2575 817 3079 
Q 1281 3584 2069 3584 
Q 2775 3584 3186 3129 
Q 3597 2675 3597 1894 
z
M 3022 2063 
Q 3016 2534 2758 2815 
Q 2500 3097 2075 3097 
Q 1594 3097 1305 2825 
Q 1016 2553 972 2059 
L 3022 2063 
z
" transform="scale(0.015625)"/>
       <path id="DejaVuSans-70" d="M 1159 525 
L 1159 -1331 
L 581 -1331 
L 581 3500 
L 1159 3500 
L 1159 2969 
Q 1341 3281 1617 3432 
Q 1894 3584 2278 3584 
Q 2916 3584 3314 3078 
Q 3713 2572 3713 1747 
Q 3713 922 3314 415 
Q 2916 -91 2278 -91 
Q 1894 -91 1617 61 
Q 1341 213 1159 525 
z
M 3116 1747 
Q 3116 2381 2855 2742 
Q 2594 3103 2138 3103 
Q 1681 3103 1420 2742 
Q 1159 2381 1159 1747 
Q 1159 1113 1420 752 
Q 1681 391 2138 391 
Q 2594 391 2855 752 
Q 3116 1113 3116 1747 
z
" transform="scale(0.015625)"/>
       <path id="DejaVuSans-6f" d="M 1959 3097 
Q 1497 3097 1228 2736 
Q 959 2375 959 1747 
Q 959 1119 1226 758 
Q 1494 397 1959 397 
Q 2419 397 2687 759 
Q 2956 1122 2956 1747 
Q 2956 2369 2687 2733 
Q 2419 3097 1959 3097 
z
M 1959 3584 
Q 2709 3584 3137 3096 
Q 3566 2609 3566 1747 
Q 3566 888 3137 398 
Q 2709 -91 1959 -91 
Q 1206 -91 779 398 
Q 353 888 353 1747 
Q 353 2609 779 3096 
Q 1206 3584 1959 3584 
z
" transform="scale(0.015625)"/>
       <path id="DejaVuSans-63" d="M 3122 3366 
L 3122 2828 
Q 2878 2963 2633 3030 
Q 2388 3097 2138 3097 
Q 1578 3097 1268 2742 
Q 959 2388 959 1747 
Q 959 1106 1268 751 
Q 1578 397 2138 397 
Q 2388 397 2633 464 
Q 2878 531 3122 666 
L 3122 134 
Q 2881 22 2623 -34 
Q 2366 -91 2075 -91 
Q 1284 -91 818 406 
Q 353 903 353 1747 
Q 353 2603 823 3093 
Q 1294 3584 2113 3584 
Q 2378 3584 2631 3529 
Q 2884 3475 3122 3366 
z
" transform="scale(0.015625)"/>
       <path id="DejaVuSans-68" d="M 3513 2113 
L 3513 0 
L 2938 0 
L 2938 2094 
Q 2938 2591 2744 2837 
Q 2550 3084 2163 3084 
Q 1697 3084 1428 2787 
Q 1159 2491 1159 1978 
L 1159 0 
L 581 0 
L 581 4863 
L 1159 4863 
L 1159 2956 
Q 1366 3272 1645 3428 
Q 1925 3584 2291 3584 
Q 2894 3584 3203 3211 
Q 3513 2838 3513 2113 
z
" transform="scale(0.015625)"/>
      </defs>
      <use xlink:href="#DejaVuSans-65"/>
      <use xlink:href="#DejaVuSans-70" x="61.523438"/>
      <use xlink:href="#DejaVuSans-6f" x="125"/>
      <use xlink:href="#DejaVuSans-63" x="186.181641"/>
      <use xlink:href="#DejaVuSans-68" x="241.162109"/>
     </g>
    </g>
   </g>
   <g id="matplotlib.axis_2">
    <g id="ytick_1">
     <g id="line2d_7">
      <defs>
       <path id="m42eb69aeec" d="M 0 0 
L -3.5 0 
" style="stroke: #000000; stroke-width: 0.8"/>
      </defs>
      <g>
       <use xlink:href="#m42eb69aeec" x="57.6" y="307.437009" style="stroke: #000000; stroke-width: 0.8"/>
      </g>
     </g>
     <g id="text_8">
      <!-- 0.10 -->
      <g transform="translate(28.334375 311.236228) scale(0.1 -0.1)">
       <defs>
        <path id="DejaVuSans-2e" d="M 684 794 
L 1344 794 
L 1344 0 
L 684 0 
L 684 794 
z
" transform="scale(0.015625)"/>
       </defs>
       <use xlink:href="#DejaVuSans-30"/>
       <use xlink:href="#DejaVuSans-2e" x="63.623047"/>
       <use xlink:href="#DejaVuSans-31" x="95.410156"/>
       <use xlink:href="#DejaVuSans-30" x="159.033203"/>
      </g>
     </g>
    </g>
    <g id="ytick_2">
     <g id="line2d_8">
      <g>
       <use xlink:href="#m42eb69aeec" x="57.6" y="250.079495" style="stroke: #000000; stroke-width: 0.8"/>
      </g>
     </g>
     <g id="text_9">
      <!-- 0.15 -->
      <g transform="translate(28.334375 253.878714) scale(0.1 -0.1)">
       <use xlink:href="#DejaVuSans-30"/>
       <use xlink:href="#DejaVuSans-2e" x="63.623047"/>
       <use xlink:href="#DejaVuSans-31" x="95.410156"/>
       <use xlink:href="#DejaVuSans-35" x="159.033203"/>
      </g>
     </g>
    </g>
    <g id="ytick_3">
     <g id="line2d_9">
      <g>
       <use xlink:href="#m42eb69aeec" x="57.6" y="192.721981" style="stroke: #000000; stroke-width: 0.8"/>
      </g>
     </g>
     <g id="text_10">
      <!-- 0.20 -->
      <g transform="translate(28.334375 196.5212) scale(0.1 -0.1)">
       <use xlink:href="#DejaVuSans-30"/>
       <use xlink:href="#DejaVuSans-2e" x="63.623047"/>
       <use xlink:href="#DejaVuSans-32" x="95.410156"/>
       <use xlink:href="#DejaVuSans-30" x="159.033203"/>
      </g>
     </g>
    </g>
    <g id="ytick_4">
     <g id="line2d_10">
      <g>
       <use xlink:href="#m42eb69aeec" x="57.6" y="135.364467" style="stroke: #000000; stroke-width: 0.8"/>
      </g>
     </g>
     <g id="text_11">
      <!-- 0.25 -->
      <g transform="translate(28.334375 139.163685) scale(0.1 -0.1)">
       <use xlink:href="#DejaVuSans-30"/>
       <use xlink:href="#DejaVuSans-2e" x="63.623047"/>
       <use xlink:href="#DejaVuSans-32" x="95.410156"/>
       <use xlink:href="#DejaVuSans-35" x="159.033203"/>
      </g>
     </g>
    </g>
    <g id="ytick_5">
     <g id="line2d_11">
      <g>
       <use xlink:href="#m42eb69aeec" x="57.6" y="78.006952" style="stroke: #000000; stroke-width: 0.8"/>
      </g>
     </g>
     <g id="text_12">
      <!-- 0.30 -->
      <g transform="translate(28.334375 81.806171) scale(0.1 -0.1)">
       <use xlink:href="#DejaVuSans-30"/>
       <use xlink:href="#DejaVuSans-2e" x="63.623047"/>
       <use xlink:href="#DejaVuSans-33" x="95.410156"/>
       <use xlink:href="#DejaVuSans-30" x="159.033203"/>
      </g>
     </g>
    </g>
    <g id="text_13">
     <!-- loss value -->
     <g transform="translate(22.254687 199.432687) rotate(-90) scale(0.1 -0.1)">
      <defs>
       <path id="DejaVuSans-6c" d="M 603 4863 
L 1178 4863 
L 1178 0 
L 603 0 
L 603 4863 
z
" transform="scale(0.015625)"/>
       <path id="DejaVuSans-73" d="M 2834 3397 
L 2834 2853 
Q 2591 2978 2328 3040 
Q 2066 3103 1784 3103 
Q 1356 3103 1142 2972 
Q 928 2841 928 2578 
Q 928 2378 1081 2264 
Q 1234 2150 1697 2047 
L 1894 2003 
Q 2506 1872 2764 1633 
Q 3022 1394 3022 966 
Q 3022 478 2636 193 
Q 2250 -91 1575 -91 
Q 1294 -91 989 -36 
Q 684 19 347 128 
L 347 722 
Q 666 556 975 473 
Q 1284 391 1588 391 
Q 1994 391 2212 530 
Q 2431 669 2431 922 
Q 2431 1156 2273 1281 
Q 2116 1406 1581 1522 
L 1381 1569 
Q 847 1681 609 1914 
Q 372 2147 372 2553 
Q 372 3047 722 3315 
Q 1072 3584 1716 3584 
Q 2034 3584 2315 3537 
Q 2597 3491 2834 3397 
z
" transform="scale(0.015625)"/>
       <path id="DejaVuSans-20" transform="scale(0.015625)"/>
       <path id="DejaVuSans-76" d="M 191 3500 
L 800 3500 
L 1894 563 
L 2988 3500 
L 3597 3500 
L 2284 0 
L 1503 0 
L 191 3500 
z
" transform="scale(0.015625)"/>
       <path id="DejaVuSans-61" d="M 2194 1759 
Q 1497 1759 1228 1600 
Q 959 1441 959 1056 
Q 959 750 1161 570 
Q 1363 391 1709 391 
Q 2188 391 2477 730 
Q 2766 1069 2766 1631 
L 2766 1759 
L 2194 1759 
z
M 3341 1997 
L 3341 0 
L 2766 0 
L 2766 531 
Q 2569 213 2275 61 
Q 1981 -91 1556 -91 
Q 1019 -91 701 211 
Q 384 513 384 1019 
Q 384 1609 779 1909 
Q 1175 2209 1959 2209 
L 2766 2209 
L 2766 2266 
Q 2766 2663 2505 2880 
Q 2244 3097 1772 3097 
Q 1472 3097 1187 3025 
Q 903 2953 641 2809 
L 641 3341 
Q 956 3463 1253 3523 
Q 1550 3584 1831 3584 
Q 2591 3584 2966 3190 
Q 3341 2797 3341 1997 
z
" transform="scale(0.015625)"/>
       <path id="DejaVuSans-75" d="M 544 1381 
L 544 3500 
L 1119 3500 
L 1119 1403 
Q 1119 906 1312 657 
Q 1506 409 1894 409 
Q 2359 409 2629 706 
Q 2900 1003 2900 1516 
L 2900 3500 
L 3475 3500 
L 3475 0 
L 2900 0 
L 2900 538 
Q 2691 219 2414 64 
Q 2138 -91 1772 -91 
Q 1169 -91 856 284 
Q 544 659 544 1381 
z
M 1991 3584 
L 1991 3584 
z
" transform="scale(0.015625)"/>
      </defs>
      <use xlink:href="#DejaVuSans-6c"/>
      <use xlink:href="#DejaVuSans-6f" x="27.783203"/>
      <use xlink:href="#DejaVuSans-73" x="88.964844"/>
      <use xlink:href="#DejaVuSans-73" x="141.064453"/>
      <use xlink:href="#DejaVuSans-20" x="193.164062"/>
      <use xlink:href="#DejaVuSans-76" x="224.951172"/>
      <use xlink:href="#DejaVuSans-61" x="284.130859"/>
      <use xlink:href="#DejaVuSans-6c" x="345.410156"/>
      <use xlink:href="#DejaVuSans-75" x="373.193359"/>
      <use xlink:href="#DejaVuSans-65" x="436.572266"/>
     </g>
    </g>
   </g>
   <g id="line2d_12">
    <path d="M 73.832727 88.435302 
L 74.483338 258.237325 
L 75.133948 270.310907 
L 75.784558 275.683792 
L 76.435169 279.932953 
L 77.085779 219.3297 
L 77.736389 263.582834 
L 78.386999 271.30666 
L 79.03761 276.916049 
L 79.68822 279.83449 
L 80.33883 232.012203 
L 80.989441 265.879191 
L 81.640051 272.633455 
L 82.290661 277.530926 
L 82.941272 280.644113 
L 83.591882 234.248234 
L 84.242492 270.490912 
L 84.893103 276.297064 
L 86.194323 282.34391 
L 86.844934 237.473573 
L 87.495544 273.357587 
L 88.796764 280.910246 
L 89.447375 283.361145 
L 90.097985 244.016594 
L 90.748595 275.582549 
L 91.399206 279.848885 
L 92.049816 282.456847 
L 92.700426 283.767524 
L 93.351037 243.174962 
L 94.001647 277.840239 
L 95.302868 284.680342 
L 95.953478 286.09939 
L 96.604088 246.620237 
L 97.254698 279.380503 
L 98.555919 284.583005 
L 99.206529 286.07135 
L 99.85714 246.009629 
L 100.50775 279.917064 
L 101.15836 283.204887 
L 101.808971 284.785544 
L 102.459581 288.572264 
L 103.110191 247.310787 
L 103.760802 281.082595 
L 105.062022 288.383151 
L 105.712633 287.286502 
L 106.363243 251.801456 
L 107.013853 283.17742 
L 107.664463 286.274559 
L 108.315074 288.201365 
L 108.965684 289.384698 
L 109.616294 248.546543 
L 110.266905 282.035351 
L 110.917515 286.407337 
L 111.568125 288.603121 
L 112.218736 290.075819 
L 112.869346 253.591612 
L 113.519956 285.085785 
L 114.170567 287.418754 
L 114.821177 288.783634 
L 115.471787 290.590369 
L 116.122398 251.684691 
L 116.773008 284.594022 
L 117.423618 287.579672 
L 118.724839 291.292236 
L 119.375449 252.431903 
L 120.026059 286.867459 
L 120.67667 289.394923 
L 121.97789 292.091817 
L 122.628501 254.603084 
L 123.279111 286.01294 
L 123.929721 289.132522 
L 124.580332 291.534269 
L 125.230942 293.078615 
L 125.881552 255.917491 
L 126.532163 285.457208 
L 127.182773 288.708366 
L 127.833383 292.88372 
L 128.483993 293.030611 
L 129.134604 254.07491 
L 129.785214 289.196352 
L 130.435824 290.354691 
L 131.086435 291.80051 
L 131.737045 294.06699 
L 132.387655 258.555984 
L 133.038266 288.327766 
L 133.688876 291.424238 
L 134.339486 293.028903 
L 134.990097 294.019983 
L 135.640707 258.791645 
L 136.291317 289.145156 
L 136.941927 292.578701 
L 137.592538 293.524758 
L 138.243148 295.488 
L 138.893758 257.664049 
L 139.544369 289.775376 
L 140.194979 290.796342 
L 140.845589 291.575005 
L 141.4962 293.687534 
L 142.14681 236.296012 
L 142.79742 284.308559 
L 143.448031 286.88129 
L 144.098641 289.982196 
L 144.749251 290.888311 
L 145.399862 235.976018 
L 146.050472 283.896826 
L 146.701082 287.859428 
L 147.351692 288.811487 
L 148.002303 290.644739 
L 148.652913 231.356598 
L 149.303523 282.311203 
L 149.954134 288.306802 
L 150.604744 290.510253 
L 151.255354 290.88257 
L 151.905965 233.707031 
L 152.556575 280.705355 
L 153.207185 288.142791 
L 153.857796 289.675858 
L 154.508406 290.816593 
L 155.159016 240.939344 
L 155.809627 283.481462 
L 156.460237 287.470348 
L 157.110847 290.023231 
L 157.761457 291.329849 
L 158.412068 229.829186 
L 159.062678 281.73096 
L 160.363899 290.07966 
L 161.014509 291.786603 
L 161.665119 227.861743 
L 162.31573 279.585661 
L 162.96634 287.903447 
L 163.61695 289.53642 
L 164.267561 290.241802 
L 164.918171 229.453031 
L 165.568781 279.058084 
L 166.219392 286.764107 
L 166.870002 288.791072 
L 167.520612 291.453238 
L 168.171222 229.930233 
L 168.821833 279.759897 
L 169.472443 287.024881 
L 170.123053 288.587448 
L 170.773664 290.465482 
L 171.424274 229.238231 
L 172.074884 276.419967 
L 172.725495 285.988447 
L 173.376105 289.368339 
L 174.026715 290.813714 
L 174.677326 227.337773 
L 175.327936 276.340392 
L 175.978546 285.376562 
L 176.629156 289.27421 
L 177.279767 288.485341 
L 177.930377 227.982859 
L 178.580987 276.531528 
L 179.231598 284.335614 
L 179.882208 288.37204 
L 180.532818 289.1982 
L 181.183429 227.479216 
L 181.834039 275.682524 
L 182.484649 285.384127 
L 183.13526 289.171213 
L 183.78587 290.295927 
L 184.43648 228.046012 
L 185.087091 273.599245 
L 185.737701 285.05233 
L 186.388311 288.374252 
L 187.038921 289.728492 
L 187.689532 229.543445 
L 188.340142 275.55632 
L 188.990752 284.262598 
L 189.641363 288.554541 
L 190.291973 291.923781 
L 190.942583 232.032039 
L 191.593194 273.548259 
L 192.243804 285.325795 
L 192.894414 287.408975 
L 193.545025 291.024804 
L 194.195635 227.726517 
L 194.846245 272.860385 
L 195.496856 284.673244 
L 196.147466 286.31598 
L 196.798076 289.899008 
L 197.448686 226.256679 
L 198.099297 271.300627 
L 198.749907 282.97703 
L 199.400517 288.001241 
L 200.051128 289.250742 
L 200.701738 231.642656 
L 201.352348 269.545728 
L 202.002959 281.831586 
L 202.653569 286.21465 
L 203.304179 289.056912 
L 203.95479 221.449341 
L 204.6054 266.529419 
L 205.25601 280.290776 
L 205.906621 286.236522 
L 206.557231 288.449474 
L 207.207841 224.069635 
L 207.858451 266.002663 
L 208.509062 279.863363 
L 209.159672 284.58586 
L 209.810282 287.375853 
L 210.460893 226.951412 
L 211.111503 265.670181 
L 211.762113 279.474863 
L 213.063334 288.636489 
L 213.713944 224.580407 
L 214.364555 265.322658 
L 215.015165 278.381006 
L 215.665775 283.457947 
L 216.316385 286.581412 
L 216.966996 223.457423 
L 217.617606 263.298747 
L 218.268216 277.564938 
L 218.918827 283.010281 
L 219.569437 286.586332 
L 220.220047 221.748643 
L 220.870658 261.320275 
L 221.521268 276.181827 
L 222.171878 282.84903 
L 222.822489 286.63262 
L 223.473099 227.375082 
L 224.123709 262.223642 
L 224.77432 277.021189 
L 225.42493 282.006751 
L 226.07554 285.43913 
L 226.72615 222.111942 
L 227.376761 259.005525 
L 228.027371 274.552142 
L 228.677981 281.284807 
L 229.328592 285.404335 
L 229.979202 221.448214 
L 230.629812 258.445751 
L 231.280423 274.420271 
L 231.931033 280.782514 
L 232.581643 285.770289 
L 233.232254 164.463489 
L 233.882864 221.855909 
L 234.533474 253.037969 
L 235.184085 268.42227 
L 235.834695 275.00231 
L 236.485305 205.869844 
L 237.135915 244.681429 
L 237.786526 263.845003 
L 238.437136 274.05769 
L 239.087746 279.867708 
L 239.738357 205.782012 
L 240.388967 243.402785 
L 241.039577 262.38731 
L 241.690188 273.046415 
L 242.340798 278.140691 
L 242.991408 207.503136 
L 243.642019 243.220308 
L 244.292629 261.24033 
L 244.943239 272.251118 
L 245.59385 276.684358 
L 246.24446 210.616524 
L 246.89507 244.692888 
L 247.54568 263.328101 
L 248.846901 277.001305 
L 249.497511 210.317364 
L 250.148122 242.050049 
L 250.798732 261.687075 
L 251.449342 270.967731 
L 252.099953 275.689266 
L 252.750563 214.121189 
L 253.401173 243.761725 
L 254.051784 261.659355 
L 254.702394 269.687503 
L 255.353004 275.395448 
L 256.003615 214.805483 
L 256.654225 242.60629 
L 257.304835 259.271356 
L 257.955445 267.686063 
L 258.606056 273.118983 
L 259.256666 214.169443 
L 259.907276 241.425983 
L 260.557887 257.084369 
L 261.208497 267.723794 
L 261.859107 272.249267 
L 262.509718 214.898767 
L 263.160328 241.633165 
L 263.810938 256.128915 
L 264.461549 266.969509 
L 265.112159 273.289699 
L 265.762769 214.80989 
L 266.413379 239.507058 
L 267.06399 256.52549 
L 267.7146 265.17764 
L 268.36521 271.545851 
L 269.015821 212.516731 
L 269.666431 238.320708 
L 270.317041 252.987268 
L 270.967652 263.685169 
L 271.618262 270.318074 
L 272.268872 212.864383 
L 272.919483 236.4836 
L 273.570093 253.56004 
L 274.871314 269.948466 
L 275.521924 214.06595 
L 276.172534 237.62683 
L 276.823144 251.692784 
L 277.473755 260.584062 
L 278.124365 267.867678 
L 278.774975 213.038593 
L 279.425586 233.914526 
L 280.076196 249.780266 
L 280.726806 259.232681 
L 281.377417 266.214486 
L 282.028027 219.46226 
L 282.678637 238.279071 
L 283.329248 251.529451 
L 283.979858 260.948759 
L 284.630468 266.9052 
L 285.281079 212.248187 
L 285.931689 232.230641 
L 286.582299 246.826683 
L 287.88352 265.353811 
L 288.53413 211.276313 
L 289.18474 231.257333 
L 289.835351 244.540605 
L 290.485961 255.037918 
L 291.136571 261.621341 
L 291.787182 213.412994 
L 293.088402 246.468113 
L 294.389623 263.105586 
L 295.040233 210.584175 
L 295.690844 229.060917 
L 296.341454 243.250723 
L 296.992064 254.036037 
L 297.642674 260.425836 
L 298.293285 210.285689 
L 298.943895 228.210176 
L 299.594505 241.698739 
L 300.245116 250.947271 
L 300.895726 257.917815 
L 301.546336 210.627413 
L 302.847557 241.111561 
L 304.148778 256.960389 
L 304.799388 208.412679 
L 305.449998 224.829913 
L 306.100608 237.834837 
L 306.751219 246.582286 
L 307.401829 253.656902 
L 308.052439 208.749074 
L 309.35366 236.501303 
L 310.654881 253.707183 
L 311.305491 207.56979 
L 311.956101 224.279515 
L 313.257322 245.583792 
L 313.907932 252.748211 
L 314.558543 208.175846 
L 315.859763 234.312731 
L 316.510373 242.193705 
L 317.160984 251.75922 
L 317.811594 206.510945 
L 319.112815 232.110866 
L 320.414035 247.834985 
L 321.064646 205.822593 
L 321.715256 218.931412 
L 323.016477 240.353735 
L 323.667087 245.54096 
L 324.317697 204.182116 
L 325.618918 229.216957 
L 326.920138 245.363994 
L 327.570749 202.362778 
L 328.871969 227.854141 
L 330.17319 242.846624 
L 330.8238 207.805295 
L 332.125021 229.544553 
L 333.426242 244.639292 
L 334.076852 205.741822 
L 335.378073 229.082626 
L 336.028683 235.48016 
L 336.679293 243.265167 
L 337.329903 208.685219 
L 337.980514 220.559717 
L 338.631124 230.06321 
L 339.932345 245.247425 
L 340.582955 209.980613 
L 341.233565 220.90693 
L 342.534786 238.537988 
L 343.185396 244.018353 
L 343.836007 211.010707 
L 345.137227 232.475302 
L 346.438448 245.72974 
L 347.089058 211.922147 
L 347.739668 223.482791 
L 349.040889 240.58568 
L 349.691499 246.233996 
L 350.34211 207.957179 
L 350.99272 220.118568 
L 352.944551 245.1826 
L 353.595161 215.544884 
L 354.245772 224.246786 
L 354.896382 234.841501 
L 356.197602 247.551768 
L 356.848213 210.477814 
L 357.498823 222.597384 
L 359.450654 245.919405 
L 360.101264 217.609408 
L 361.402485 236.314537 
L 362.053095 244.57394 
L 362.703706 250.136057 
L 363.354316 212.20258 
L 364.004926 224.346994 
L 365.306147 240.157825 
L 365.956757 245.713233 
L 366.607367 216.494696 
L 367.908588 234.542779 
L 368.559198 243.60989 
L 369.209809 248.246896 
L 369.860419 214.549137 
L 370.511029 225.433029 
L 372.46286 248.189107 
L 373.113471 220.158843 
L 374.414691 238.840183 
L 375.065302 243.65881 
L 375.715912 252.501365 
L 376.366522 215.589581 
L 378.318353 242.280616 
L 378.968963 247.593852 
L 379.619574 220.739899 
L 381.571405 245.062926 
L 382.222015 249.006988 
L 382.872625 216.168701 
L 384.173846 235.676545 
L 385.475066 249.259783 
L 386.125677 213.665331 
L 386.776287 225.086111 
L 388.077508 242.556263 
L 388.728118 247.120919 
L 389.378728 218.481455 
L 390.029339 229.912226 
L 390.679949 236.547136 
L 391.330559 245.310667 
L 391.98117 249.935565 
L 392.63178 216.754986 
L 393.933001 235.167467 
L 394.583611 243.652708 
L 395.234221 249.314699 
L 395.884831 217.950883 
L 396.535442 229.020472 
L 397.836662 244.094104 
L 398.487273 249.696399 
L 398.487273 249.696399 
" clip-path="url(#p9e2ffdaa04)" style="fill: none; stroke: #0000ff; stroke-width: 1.5; stroke-linecap: square"/>
   </g>
   <g id="line2d_13">
    <path d="M 73.832727 53.568 
L 74.483338 223.385317 
L 75.133948 235.476091 
L 75.784558 240.866295 
L 76.435169 245.132791 
L 77.085779 184.585491 
L 77.736389 228.855738 
L 78.386999 236.596741 
L 79.03761 242.223343 
L 79.68822 245.159019 
L 80.33883 197.38688 
L 80.989441 231.270938 
L 81.640051 238.04228 
L 82.290661 242.956835 
L 82.941272 246.087139 
L 83.591882 199.652736 
L 84.242492 235.912478 
L 84.893103 241.735665 
L 86.194323 247.816812 
L 86.844934 202.921372 
L 87.495544 238.822479 
L 88.796764 246.409312 
L 89.447375 248.877384 
L 90.097985 209.515163 
L 90.748595 241.098179 
L 91.399206 245.381623 
L 92.049816 248.00668 
L 92.700426 249.334489 
L 93.351037 208.69817 
L 94.001647 243.380533 
L 95.302868 250.254758 
L 95.953478 251.690962 
L 96.604088 212.187108 
L 97.254698 244.964418 
L 98.555919 250.201037 
L 99.206529 251.706536 
L 99.85714 211.6064 
L 100.50775 245.530927 
L 101.15836 248.835748 
L 101.808971 250.433543 
L 102.459581 254.237369 
L 103.110191 212.951604 
L 103.760802 246.740457 
L 105.062022 254.075143 
L 105.712633 252.99561 
L 106.363243 217.487973 
L 107.013853 248.88087 
L 107.664463 251.995014 
L 108.315074 253.938894 
L 108.965684 255.139351 
L 109.616294 214.261951 
L 110.266905 247.767763 
L 110.917515 252.156763 
L 111.568125 254.369601 
L 112.218736 255.859424 
L 112.869346 219.344796 
L 113.519956 250.85597 
L 114.170567 253.205884 
L 114.821177 254.587797 
L 115.471787 256.411619 
L 116.122398 217.47065 
L 116.773008 250.396896 
L 117.423618 253.39953 
L 118.724839 257.14617 
L 119.375449 218.261164 
L 120.026059 252.713633 
L 120.67667 255.258068 
L 121.97789 257.989053 
L 122.628501 220.454555 
L 123.279111 251.881301 
L 123.929721 255.017879 
L 124.580332 257.436607 
L 125.230942 258.997892 
L 125.881552 221.806416 
L 126.532163 251.363028 
L 127.182773 254.631056 
L 127.833383 258.823354 
L 128.483993 258.987268 
L 129.134604 219.997892 
L 129.785214 255.136193 
L 130.435824 256.31144 
L 131.086435 257.77424 
L 131.737045 260.057707 
L 132.387655 224.505443 
L 133.038266 254.294065 
L 133.688876 257.407446 
L 134.339486 259.029024 
L 134.990097 260.037044 
L 135.640707 224.773383 
L 136.291317 255.143724 
L 136.941927 258.594175 
L 137.592538 259.557102 
L 138.243148 261.537259 
L 138.893758 223.682087 
L 139.544369 255.804984 
L 140.194979 256.832087 
L 140.845589 257.616892 
L 141.4962 259.735552 
L 142.14681 202.323515 
L 142.79742 250.342051 
L 143.448031 252.920588 
L 144.098641 256.027311 
L 144.749251 256.939248 
L 145.399862 202.025677 
L 146.050472 249.952198 
L 146.701082 253.920317 
L 147.351692 254.877892 
L 148.002303 256.716679 
L 148.652913 197.432642 
L 149.303523 248.392633 
L 149.954134 254.393465 
L 150.604744 256.602159 
L 151.255354 256.97972 
L 151.905965 199.814843 
L 152.556575 246.818311 
L 153.207185 254.260716 
L 153.857796 255.798759 
L 154.508406 256.944487 
L 155.159016 207.064647 
L 155.809627 249.611618 
L 156.460237 253.605221 
L 157.110847 256.162837 
L 157.761457 257.474204 
L 158.412068 195.966334 
L 159.062678 247.872756 
L 160.363899 256.230463 
L 161.014509 257.941893 
L 161.665119 194.020942 
L 162.31573 245.749287 
L 162.96634 254.071342 
L 163.61695 255.708586 
L 164.267561 256.418248 
L 164.918171 195.636693 
L 165.568781 245.245952 
L 166.219392 252.956031 
L 166.870002 254.987064 
L 167.520612 257.653293 
L 168.171222 196.120414 
L 168.821833 245.954075 
L 169.472443 253.22291 
L 170.123053 254.789346 
L 170.773664 256.671248 
L 171.424274 195.447066 
L 172.074884 242.632594 
L 172.725495 252.204731 
L 173.376105 255.588296 
L 174.026715 257.037346 
L 174.677326 193.564739 
L 175.327936 242.570984 
L 175.978546 251.610632 
L 176.629156 255.51177 
L 177.279767 254.72639 
L 177.930377 194.228164 
L 178.580987 242.780282 
L 179.231598 250.587682 
L 179.882208 254.627415 
L 180.532818 255.456905 
L 181.183429 193.728216 
L 181.834039 241.934804 
L 182.484649 251.639529 
L 183.13526 255.42976 
L 183.78587 256.557641 
L 184.43648 194.305621 
L 185.087091 239.861967 
L 185.737701 251.318035 
L 186.388311 254.642946 
L 187.038921 256.000181 
L 187.689532 195.813224 
L 188.340142 241.829063 
L 188.990752 250.538177 
L 189.641363 254.832957 
L 190.291973 258.205043 
L 190.942583 198.303936 
L 191.593194 239.822956 
L 192.243804 251.603192 
L 192.894414 253.689064 
L 193.545025 257.307605 
L 194.195635 194.00693 
L 194.846245 239.143473 
L 195.496856 250.95889 
L 196.147466 252.604194 
L 196.798076 256.189795 
L 197.448686 192.547101 
L 198.099297 237.593603 
L 198.749907 249.272445 
L 199.400517 254.2991 
L 200.051128 255.551042 
L 200.701738 197.93914 
L 201.352348 235.844631 
L 202.002959 248.132809 
L 202.653569 252.518184 
L 203.304179 255.362771 
L 203.95479 187.750655 
L 204.6054 232.833039 
L 205.25601 246.596582 
L 205.906621 252.544527 
L 206.557231 254.759688 
L 207.207841 190.37841 
L 207.858451 232.313641 
L 208.509062 246.176442 
L 209.159672 250.901033 
L 209.810282 253.693127 
L 210.460893 193.266466 
L 211.111503 231.987324 
L 211.762113 245.793998 
L 213.063334 254.959593 
L 213.713944 190.901913 
L 214.364555 231.646162 
L 215.015165 244.706405 
L 215.665775 249.785239 
L 216.316385 252.910604 
L 216.966996 189.783122 
L 217.617606 229.626349 
L 218.268216 243.894341 
L 218.918827 249.341477 
L 219.569437 252.919322 
L 220.220047 188.080728 
L 220.870658 227.654165 
L 221.521268 242.517434 
L 222.171878 249.186348 
L 222.822489 252.971644 
L 223.473099 193.712397 
L 224.123709 228.562666 
L 224.77432 243.361833 
L 225.42493 248.349016 
L 226.07554 251.78302 
L 226.72615 188.452669 
L 227.376761 225.347893 
L 228.027371 240.896062 
L 228.677981 247.630272 
L 229.328592 251.751341 
L 229.979202 187.793915 
L 230.629812 224.793008 
L 231.280423 240.769005 
L 231.931033 247.132716 
L 232.581643 252.121958 
L 233.232254 130.82326 
L 233.882864 188.217361 
L 234.533474 219.400962 
L 235.184085 234.786751 
L 235.834695 241.368265 
L 236.485305 172.249613 
L 237.135915 211.062704 
L 237.786526 230.227677 
L 238.437136 240.441737 
L 239.087746 246.25311 
L 239.738357 172.166914 
L 240.388967 209.789095 
L 241.039577 228.77493 
L 241.690188 239.435333 
L 242.340798 244.530894 
L 242.991408 173.894142 
L 243.642019 209.612638 
L 244.292629 227.633896 
L 244.943239 238.64591 
L 245.59385 243.080368 
L 246.24446 177.008885 
L 246.89507 211.086497 
L 247.54568 229.722884 
L 248.846901 243.398394 
L 249.497511 176.714173 
L 250.148122 208.448035 
L 250.798732 228.086174 
L 251.449342 237.367923 
L 252.099953 242.090545 
L 252.750563 180.523033 
L 253.401173 210.16468 
L 254.051784 228.063372 
L 254.702394 236.092556 
L 255.353004 241.801537 
L 256.003615 181.208271 
L 256.654225 209.010135 
L 257.304835 225.676199 
L 257.955445 234.091898 
L 258.606056 239.525798 
L 259.256666 180.576106 
L 259.907276 207.833648 
L 260.557887 223.49299 
L 261.208497 234.13335 
L 261.859107 238.65976 
L 262.509718 181.309903 
L 263.160328 208.045256 
L 263.810938 222.541912 
L 264.461549 233.383405 
L 265.112159 239.704479 
L 265.762769 181.221549 
L 266.413379 205.919619 
L 267.06399 222.938909 
L 267.7146 231.59191 
L 268.36521 237.960958 
L 269.015821 178.932108 
L 269.666431 204.736957 
L 270.317041 219.404326 
L 270.967652 230.10304 
L 271.618262 236.736747 
L 272.268872 179.284005 
L 272.919483 202.90405 
L 273.570093 219.981267 
L 274.871314 236.371225 
L 275.521924 180.485996 
L 276.172534 204.047648 
L 276.823144 218.114336 
L 277.473755 227.006348 
L 278.124365 234.290688 
L 278.774975 179.46178 
L 279.425586 200.338455 
L 280.076196 216.2049 
L 280.726806 225.658009 
L 281.377417 232.640507 
L 282.028027 185.888212 
L 282.678637 204.70573 
L 283.329248 217.956775 
L 283.979858 227.376742 
L 284.630468 233.333842 
L 285.281079 178.675466 
L 285.931689 198.658587 
L 286.582299 213.255273 
L 287.88352 231.783656 
L 288.53413 177.70683 
L 289.18474 197.688489 
L 289.835351 210.972372 
L 290.485961 221.470286 
L 291.136571 228.054307 
L 291.787182 179.843952 
L 293.088402 212.900255 
L 294.389623 229.53886 
L 295.040233 177.017678 
L 295.690844 195.494996 
L 296.341454 209.685361 
L 296.992064 220.471215 
L 297.642674 226.861556 
L 298.293285 176.722608 
L 298.943895 194.64764 
L 299.594505 208.13673 
L 300.245116 217.385782 
L 300.895726 224.356838 
L 301.546336 177.064601 
L 302.847557 207.549771 
L 304.148778 223.399582 
L 304.799388 174.852095 
L 305.449998 191.269835 
L 306.100608 204.275231 
L 306.751219 213.023153 
L 307.401829 220.098234 
L 308.052439 175.191389 
L 309.35366 202.94455 
L 310.654881 220.151317 
L 311.305491 174.012261 
L 311.956101 190.722439 
L 313.257322 212.027577 
L 313.907932 219.192415 
L 314.558543 174.62044 
L 315.859763 200.758166 
L 316.510373 208.639549 
L 317.160984 218.205474 
L 317.811594 172.95814 
L 319.112815 198.558866 
L 320.414035 214.283752 
L 321.064646 172.270096 
L 321.715256 185.379313 
L 323.016477 206.802376 
L 323.667087 211.989965 
L 324.317697 170.631377 
L 325.618918 195.666949 
L 326.920138 211.814681 
L 327.570749 168.81431 
L 328.871969 194.306376 
L 330.17319 209.299521 
L 330.8238 174.256861 
L 332.125021 195.996781 
L 333.426242 211.092158 
L 334.076852 172.195382 
L 335.378073 195.536837 
L 336.028683 201.934685 
L 336.679293 209.720019 
L 337.329903 175.139035 
L 337.980514 187.013855 
L 338.631124 196.517659 
L 339.932345 211.702516 
L 340.582955 176.43619 
L 341.233565 187.362843 
L 342.534786 204.994533 
L 343.185396 210.475214 
L 343.836007 177.466638 
L 345.137227 198.931868 
L 346.438448 212.186935 
L 347.089058 178.379683 
L 347.739668 189.940653 
L 349.040889 207.044182 
L 349.691499 212.692812 
L 350.34211 174.415757 
L 350.99272 186.577469 
L 352.944551 211.642453 
L 353.595161 182.004331 
L 354.245772 190.706558 
L 354.896382 201.30159 
L 356.197602 214.012478 
L 356.848213 176.938192 
L 357.498823 189.058079 
L 359.450654 212.381058 
L 360.101264 184.07075 
L 361.402485 202.776516 
L 362.053095 211.036241 
L 362.703706 216.598668 
L 363.354316 178.664721 
L 364.004926 190.809458 
L 365.306147 206.620933 
L 365.956757 212.176647 
L 366.607367 182.957776 
L 367.908588 201.006503 
L 368.559198 210.073924 
L 369.209809 214.711247 
L 369.860419 181.012989 
L 370.511029 191.897209 
L 372.46286 214.654231 
L 373.113471 186.623635 
L 374.414691 205.305621 
L 375.065302 210.124561 
L 375.715912 218.967415 
L 376.366522 182.055115 
L 378.318353 208.747107 
L 378.968963 214.060659 
L 379.619574 187.206375 
L 381.571405 211.530359 
L 382.222015 215.474721 
L 382.872625 182.635819 
L 384.173846 202.144307 
L 385.475066 215.728176 
L 386.125677 180.133877 
L 386.776287 191.554974 
L 388.077508 209.025772 
L 388.728118 213.590735 
L 389.378728 184.950203 
L 390.029339 196.381294 
L 390.679949 203.01652 
L 391.330559 211.780365 
L 391.98117 216.405573 
L 392.63178 183.224995 
L 393.933001 201.638119 
L 394.583611 210.123675 
L 395.234221 215.785981 
L 395.884831 184.421149 
L 396.535442 195.491059 
L 397.836662 210.56532 
L 398.487273 216.167929 
L 398.487273 216.167929 
" clip-path="url(#p9e2ffdaa04)" style="fill: none; stroke: #008000; stroke-width: 1.5; stroke-linecap: square"/>
   </g>
   <g id="line2d_14">
    <path d="M 0 0 
" clip-path="url(#p9e2ffdaa04)" style="fill: none; stroke: #ff0000; stroke-width: 1.5; stroke-linecap: square"/>
   </g>
   <g id="patch_3">
    <path d="M 57.6 307.584 
L 57.6 41.472 
" style="fill: none; stroke: #000000; stroke-width: 0.8; stroke-linejoin: miter; stroke-linecap: square"/>
   </g>
   <g id="patch_4">
    <path d="M 414.72 307.584 
L 414.72 41.472 
" style="fill: none; stroke: #000000; stroke-width: 0.8; stroke-linejoin: miter; stroke-linecap: square"/>
   </g>
   <g id="patch_5">
    <path d="M 57.6 307.584 
L 414.72 307.584 
" style="fill: none; stroke: #000000; stroke-width: 0.8; stroke-linejoin: miter; stroke-linecap: square"/>
   </g>
   <g id="patch_6">
    <path d="M 57.6 41.472 
L 414.72 41.472 
" style="fill: none; stroke: #000000; stroke-width: 0.8; stroke-linejoin: miter; stroke-linecap: square"/>
   </g>
   <g id="text_14">
    <!-- The loss curve on flag_resnet/host/3 -->
    <g transform="translate(127.426875 35.472) scale(0.12 -0.12)">
     <defs>
      <path id="DejaVuSans-54" d="M -19 4666 
L 3928 4666 
L 3928 4134 
L 2272 4134 
L 2272 0 
L 1638 0 
L 1638 4134 
L -19 4134 
L -19 4666 
z
" transform="scale(0.015625)"/>
      <path id="DejaVuSans-72" d="M 2631 2963 
Q 2534 3019 2420 3045 
Q 2306 3072 2169 3072 
Q 1681 3072 1420 2755 
Q 1159 2438 1159 1844 
L 1159 0 
L 581 0 
L 581 3500 
L 1159 3500 
L 1159 2956 
Q 1341 3275 1631 3429 
Q 1922 3584 2338 3584 
Q 2397 3584 2469 3576 
Q 2541 3569 2628 3553 
L 2631 2963 
z
" transform="scale(0.015625)"/>
      <path id="DejaVuSans-6e" d="M 3513 2113 
L 3513 0 
L 2938 0 
L 2938 2094 
Q 2938 2591 2744 2837 
Q 2550 3084 2163 3084 
Q 1697 3084 1428 2787 
Q 1159 2491 1159 1978 
L 1159 0 
L 581 0 
L 581 3500 
L 1159 3500 
L 1159 2956 
Q 1366 3272 1645 3428 
Q 1925 3584 2291 3584 
Q 2894 3584 3203 3211 
Q 3513 2838 3513 2113 
z
" transform="scale(0.015625)"/>
      <path id="DejaVuSans-66" d="M 2375 4863 
L 2375 4384 
L 1825 4384 
Q 1516 4384 1395 4259 
Q 1275 4134 1275 3809 
L 1275 3500 
L 2222 3500 
L 2222 3053 
L 1275 3053 
L 1275 0 
L 697 0 
L 697 3053 
L 147 3053 
L 147 3500 
L 697 3500 
L 697 3744 
Q 697 4328 969 4595 
Q 1241 4863 1831 4863 
L 2375 4863 
z
" transform="scale(0.015625)"/>
      <path id="DejaVuSans-67" d="M 2906 1791 
Q 2906 2416 2648 2759 
Q 2391 3103 1925 3103 
Q 1463 3103 1205 2759 
Q 947 2416 947 1791 
Q 947 1169 1205 825 
Q 1463 481 1925 481 
Q 2391 481 2648 825 
Q 2906 1169 2906 1791 
z
M 3481 434 
Q 3481 -459 3084 -895 
Q 2688 -1331 1869 -1331 
Q 1566 -1331 1297 -1286 
Q 1028 -1241 775 -1147 
L 775 -588 
Q 1028 -725 1275 -790 
Q 1522 -856 1778 -856 
Q 2344 -856 2625 -561 
Q 2906 -266 2906 331 
L 2906 616 
Q 2728 306 2450 153 
Q 2172 0 1784 0 
Q 1141 0 747 490 
Q 353 981 353 1791 
Q 353 2603 747 3093 
Q 1141 3584 1784 3584 
Q 2172 3584 2450 3431 
Q 2728 3278 2906 2969 
L 2906 3500 
L 3481 3500 
L 3481 434 
z
" transform="scale(0.015625)"/>
      <path id="DejaVuSans-5f" d="M 3263 -1063 
L 3263 -1509 
L -63 -1509 
L -63 -1063 
L 3263 -1063 
z
" transform="scale(0.015625)"/>
      <path id="DejaVuSans-74" d="M 1172 4494 
L 1172 3500 
L 2356 3500 
L 2356 3053 
L 1172 3053 
L 1172 1153 
Q 1172 725 1289 603 
Q 1406 481 1766 481 
L 2356 481 
L 2356 0 
L 1766 0 
Q 1100 0 847 248 
Q 594 497 594 1153 
L 594 3053 
L 172 3053 
L 172 3500 
L 594 3500 
L 594 4494 
L 1172 4494 
z
" transform="scale(0.015625)"/>
      <path id="DejaVuSans-2f" d="M 1625 4666 
L 2156 4666 
L 531 -594 
L 0 -594 
L 1625 4666 
z
" transform="scale(0.015625)"/>
     </defs>
     <use xlink:href="#DejaVuSans-54"/>
     <use xlink:href="#DejaVuSans-68" x="61.083984"/>
     <use xlink:href="#DejaVuSans-65" x="124.462891"/>
     <use xlink:href="#DejaVuSans-20" x="185.986328"/>
     <use xlink:href="#DejaVuSans-6c" x="217.773438"/>
     <use xlink:href="#DejaVuSans-6f" x="245.556641"/>
     <use xlink:href="#DejaVuSans-73" x="306.738281"/>
     <use xlink:href="#DejaVuSans-73" x="358.837891"/>
     <use xlink:href="#DejaVuSans-20" x="410.9375"/>
     <use xlink:href="#DejaVuSans-63" x="442.724609"/>
     <use xlink:href="#DejaVuSans-75" x="497.705078"/>
     <use xlink:href="#DejaVuSans-72" x="561.083984"/>
     <use xlink:href="#DejaVuSans-76" x="602.197266"/>
     <use xlink:href="#DejaVuSans-65" x="661.376953"/>
     <use xlink:href="#DejaVuSans-20" x="722.900391"/>
     <use xlink:href="#DejaVuSans-6f" x="754.6875"/>
     <use xlink:href="#DejaVuSans-6e" x="815.869141"/>
     <use xlink:href="#DejaVuSans-20" x="879.248047"/>
     <use xlink:href="#DejaVuSans-66" x="911.035156"/>
     <use xlink:href="#DejaVuSans-6c" x="946.240234"/>
     <use xlink:href="#DejaVuSans-61" x="974.023438"/>
     <use xlink:href="#DejaVuSans-67" x="1035.302734"/>
     <use xlink:href="#DejaVuSans-5f" x="1098.779297"/>
     <use xlink:href="#DejaVuSans-72" x="1148.779297"/>
     <use xlink:href="#DejaVuSans-65" x="1187.642578"/>
     <use xlink:href="#DejaVuSans-73" x="1249.166016"/>
     <use xlink:href="#DejaVuSans-6e" x="1301.265625"/>
     <use xlink:href="#DejaVuSans-65" x="1364.644531"/>
     <use xlink:href="#DejaVuSans-74" x="1426.167969"/>
     <use xlink:href="#DejaVuSans-2f" x="1465.376953"/>
     <use xlink:href="#DejaVuSans-68" x="1499.068359"/>
     <use xlink:href="#DejaVuSans-6f" x="1562.447266"/>
     <use xlink:href="#DejaVuSans-73" x="1623.628906"/>
     <use xlink:href="#DejaVuSans-74" x="1675.728516"/>
     <use xlink:href="#DejaVuSans-2f" x="1714.9375"/>
     <use xlink:href="#DejaVuSans-33" x="1748.628906"/>
    </g>
   </g>
   <g id="legend_1">
    <g id="patch_7">
     <path d="M 317.418438 94.34075 
L 407.72 94.34075 
Q 409.72 94.34075 409.72 92.34075 
L 409.72 48.472 
Q 409.72 46.472 407.72 46.472 
L 317.418438 46.472 
Q 315.418438 46.472 315.418438 48.472 
L 315.418438 92.34075 
Q 315.418438 94.34075 317.418438 94.34075 
z
" style="fill: #ffffff; opacity: 0.8; stroke: #cccccc; stroke-linejoin: miter"/>
    </g>
    <g id="line2d_15">
     <path d="M 319.418438 54.570438 
L 329.418438 54.570438 
L 339.418438 54.570438 
" style="fill: none; stroke: #0000ff; stroke-width: 1.5; stroke-linecap: square"/>
    </g>
    <g id="text_15">
     <!-- obj_loss -->
     <g transform="translate(347.418438 58.070438) scale(0.1 -0.1)">
      <defs>
       <path id="DejaVuSans-62" d="M 3116 1747 
Q 3116 2381 2855 2742 
Q 2594 3103 2138 3103 
Q 1681 3103 1420 2742 
Q 1159 2381 1159 1747 
Q 1159 1113 1420 752 
Q 1681 391 2138 391 
Q 2594 391 2855 752 
Q 3116 1113 3116 1747 
z
M 1159 2969 
Q 1341 3281 1617 3432 
Q 1894 3584 2278 3584 
Q 2916 3584 3314 3078 
Q 3713 2572 3713 1747 
Q 3713 922 3314 415 
Q 2916 -91 2278 -91 
Q 1894 -91 1617 61 
Q 1341 213 1159 525 
L 1159 0 
L 581 0 
L 581 4863 
L 1159 4863 
L 1159 2969 
z
" transform="scale(0.015625)"/>
       <path id="DejaVuSans-6a" d="M 603 3500 
L 1178 3500 
L 1178 -63 
Q 1178 -731 923 -1031 
Q 669 -1331 103 -1331 
L -116 -1331 
L -116 -844 
L 38 -844 
Q 366 -844 484 -692 
Q 603 -541 603 -63 
L 603 3500 
z
M 603 4863 
L 1178 4863 
L 1178 4134 
L 603 4134 
L 603 4863 
z
" transform="scale(0.015625)"/>
      </defs>
      <use xlink:href="#DejaVuSans-6f"/>
      <use xlink:href="#DejaVuSans-62" x="61.181641"/>
      <use xlink:href="#DejaVuSans-6a" x="124.658203"/>
      <use xlink:href="#DejaVuSans-5f" x="152.441406"/>
      <use xlink:href="#DejaVuSans-6c" x="202.441406"/>
      <use xlink:href="#DejaVuSans-6f" x="230.224609"/>
      <use xlink:href="#DejaVuSans-73" x="291.40625"/>
      <use xlink:href="#DejaVuSans-73" x="343.505859"/>
     </g>
    </g>
    <g id="line2d_16">
     <path d="M 319.418438 69.526688 
L 329.418438 69.526688 
L 339.418438 69.526688 
" style="fill: none; stroke: #008000; stroke-width: 1.5; stroke-linecap: square"/>
    </g>
    <g id="text_16">
     <!-- reg_loss -->
     <g transform="translate(347.418438 73.026688) scale(0.1 -0.1)">
      <use xlink:href="#DejaVuSans-72"/>
      <use xlink:href="#DejaVuSans-65" x="38.863281"/>
      <use xlink:href="#DejaVuSans-67" x="100.386719"/>
      <use xlink:href="#DejaVuSans-5f" x="163.863281"/>
      <use xlink:href="#DejaVuSans-6c" x="213.863281"/>
      <use xlink:href="#DejaVuSans-6f" x="241.646484"/>
      <use xlink:href="#DejaVuSans-73" x="302.828125"/>
      <use xlink:href="#DejaVuSans-73" x="354.927734"/>
     </g>
    </g>
    <g id="line2d_17">
     <path d="M 319.418438 84.482938 
L 329.418438 84.482938 
L 339.418438 84.482938 
" style="fill: none; stroke: #ff0000; stroke-width: 1.5; stroke-linecap: square"/>
    </g>
    <g id="text_17">
     <!-- overall_loss -->
     <g transform="translate(347.418438 87.982938) scale(0.1 -0.1)">
      <use xlink:href="#DejaVuSans-6f"/>
      <use xlink:href="#DejaVuSans-76" x="61.181641"/>
      <use xlink:href="#DejaVuSans-65" x="120.361328"/>
      <use xlink:href="#DejaVuSans-72" x="181.884766"/>
      <use xlink:href="#DejaVuSans-61" x="222.998047"/>
      <use xlink:href="#DejaVuSans-6c" x="284.277344"/>
      <use xlink:href="#DejaVuSans-6c" x="312.060547"/>
      <use xlink:href="#DejaVuSans-5f" x="339.84375"/>
      <use xlink:href="#DejaVuSans-6c" x="389.84375"/>
      <use xlink:href="#DejaVuSans-6f" x="417.626953"/>
      <use xlink:href="#DejaVuSans-73" x="478.808594"/>
      <use xlink:href="#DejaVuSans-73" x="530.908203"/>
     </g>
    </g>
   </g>
  </g>
 </g>
 <defs>
  <clipPath id="p9e2ffdaa04">
   <rect x="57.6" y="41.472" width="357.12" height="266.112"/>
  </clipPath>
 </defs>
</svg>
