<?xml version="1.0" encoding="utf-8" standalone="no"?>
<!DOCTYPE svg PUBLIC "-//W3C//DTD SVG 1.1//EN"
  "http://www.w3.org/Graphics/SVG/1.1/DTD/svg11.dtd">
<svg xmlns:xlink="http://www.w3.org/1999/xlink" width="460.8pt" height="345.6pt" viewBox="0 0 460.8 345.6" xmlns="http://www.w3.org/2000/svg" version="1.1">
 <metadata>
  <rdf:RDF xmlns:dc="http://purl.org/dc/elements/1.1/" xmlns:cc="http://creativecommons.org/ns#" xmlns:rdf="http://www.w3.org/1999/02/22-rdf-syntax-ns#">
   <cc:Work>
    <dc:type rdf:resource="http://purl.org/dc/dcmitype/StillImage"/>
    <dc:date>2023-06-19T00:39:03.683255</dc:date>
    <dc:format>image/svg+xml</dc:format>
    <dc:creator>
     <cc:Agent>
      <dc:title>Matplotlib v3.7.1, https://matplotlib.org/</dc:title>
     </cc:Agent>
    </dc:creator>
   </cc:Work>
  </rdf:RDF>
 </metadata>
 <defs>
  <style type="text/css">*{stroke-linejoin: round; stroke-linecap: butt}</style>
 </defs>
 <g id="figure_1">
  <g id="patch_1">
   <path d="M 0 345.6 
L 460.8 345.6 
L 460.8 0 
L 0 0 
z
" style="fill: #ffffff"/>
  </g>
  <g id="axes_1">
   <g id="patch_2">
    <path d="M 57.6 307.584 
L 414.72 307.584 
L 414.72 41.472 
L 57.6 41.472 
z
" style="fill: #ffffff"/>
   </g>
   <g id="matplotlib.axis_1">
    <g id="xtick_1">
     <g id="line2d_1">
      <defs>
       <path id="md35ecb47e8" d="M 0 0 
L 0 3.5 
" style="stroke: #000000; stroke-width: 0.8"/>
      </defs>
      <g>
       <use xlink:href="#md35ecb47e8" x="73.832727" y="307.584" style="stroke: #000000; stroke-width: 0.8"/>
      </g>
     </g>
     <g id="text_1">
      <!-- 0 -->
      <g transform="translate(70.651477 322.182437) scale(0.1 -0.1)">
       <defs>
        <path id="DejaVuSans-30" d="M 2034 4250 
Q 1547 4250 1301 3770 
Q 1056 3291 1056 2328 
Q 1056 1369 1301 889 
Q 1547 409 2034 409 
Q 2525 409 2770 889 
Q 3016 1369 3016 2328 
Q 3016 3291 2770 3770 
Q 2525 4250 2034 4250 
z
M 2034 4750 
Q 2819 4750 3233 4129 
Q 3647 3509 3647 2328 
Q 3647 1150 3233 529 
Q 2819 -91 2034 -91 
Q 1250 -91 836 529 
Q 422 1150 422 2328 
Q 422 3509 836 4129 
Q 1250 4750 2034 4750 
z
" transform="scale(0.015625)"/>
       </defs>
       <use xlink:href="#DejaVuSans-30"/>
      </g>
     </g>
    </g>
    <g id="xtick_2">
     <g id="line2d_2">
      <g>
       <use xlink:href="#md35ecb47e8" x="138.893758" y="307.584" style="stroke: #000000; stroke-width: 0.8"/>
      </g>
     </g>
     <g id="text_2">
      <!-- 100 -->
      <g transform="translate(129.350008 322.182437) scale(0.1 -0.1)">
       <defs>
        <path id="DejaVuSans-31" d="M 794 531 
L 1825 531 
L 1825 4091 
L 703 3866 
L 703 4441 
L 1819 4666 
L 2450 4666 
L 2450 531 
L 3481 531 
L 3481 0 
L 794 0 
L 794 531 
z
" transform="scale(0.015625)"/>
       </defs>
       <use xlink:href="#DejaVuSans-31"/>
       <use xlink:href="#DejaVuSans-30" x="63.623047"/>
       <use xlink:href="#DejaVuSans-30" x="127.246094"/>
      </g>
     </g>
    </g>
    <g id="xtick_3">
     <g id="line2d_3">
      <g>
       <use xlink:href="#md35ecb47e8" x="203.95479" y="307.584" style="stroke: #000000; stroke-width: 0.8"/>
      </g>
     </g>
     <g id="text_3">
      <!-- 200 -->
      <g transform="translate(194.41104 322.182437) scale(0.1 -0.1)">
       <defs>
        <path id="DejaVuSans-32" d="M 1228 531 
L 3431 531 
L 3431 0 
L 469 0 
L 469 531 
Q 828 903 1448 1529 
Q 2069 2156 2228 2338 
Q 2531 2678 2651 2914 
Q 2772 3150 2772 3378 
Q 2772 3750 2511 3984 
Q 2250 4219 1831 4219 
Q 1534 4219 1204 4116 
Q 875 4013 500 3803 
L 500 4441 
Q 881 4594 1212 4672 
Q 1544 4750 1819 4750 
Q 2544 4750 2975 4387 
Q 3406 4025 3406 3419 
Q 3406 3131 3298 2873 
Q 3191 2616 2906 2266 
Q 2828 2175 2409 1742 
Q 1991 1309 1228 531 
z
" transform="scale(0.015625)"/>
       </defs>
       <use xlink:href="#DejaVuSans-32"/>
       <use xlink:href="#DejaVuSans-30" x="63.623047"/>
       <use xlink:href="#DejaVuSans-30" x="127.246094"/>
      </g>
     </g>
    </g>
    <g id="xtick_4">
     <g id="line2d_4">
      <g>
       <use xlink:href="#md35ecb47e8" x="269.015821" y="307.584" style="stroke: #000000; stroke-width: 0.8"/>
      </g>
     </g>
     <g id="text_4">
      <!-- 300 -->
      <g transform="translate(259.472071 322.182437) scale(0.1 -0.1)">
       <defs>
        <path id="DejaVuSans-33" d="M 2597 2516 
Q 3050 2419 3304 2112 
Q 3559 1806 3559 1356 
Q 3559 666 3084 287 
Q 2609 -91 1734 -91 
Q 1441 -91 1130 -33 
Q 819 25 488 141 
L 488 750 
Q 750 597 1062 519 
Q 1375 441 1716 441 
Q 2309 441 2620 675 
Q 2931 909 2931 1356 
Q 2931 1769 2642 2001 
Q 2353 2234 1838 2234 
L 1294 2234 
L 1294 2753 
L 1863 2753 
Q 2328 2753 2575 2939 
Q 2822 3125 2822 3475 
Q 2822 3834 2567 4026 
Q 2313 4219 1838 4219 
Q 1578 4219 1281 4162 
Q 984 4106 628 3988 
L 628 4550 
Q 988 4650 1302 4700 
Q 1616 4750 1894 4750 
Q 2613 4750 3031 4423 
Q 3450 4097 3450 3541 
Q 3450 3153 3228 2886 
Q 3006 2619 2597 2516 
z
" transform="scale(0.015625)"/>
       </defs>
       <use xlink:href="#DejaVuSans-33"/>
       <use xlink:href="#DejaVuSans-30" x="63.623047"/>
       <use xlink:href="#DejaVuSans-30" x="127.246094"/>
      </g>
     </g>
    </g>
    <g id="xtick_5">
     <g id="line2d_5">
      <g>
       <use xlink:href="#md35ecb47e8" x="334.076852" y="307.584" style="stroke: #000000; stroke-width: 0.8"/>
      </g>
     </g>
     <g id="text_5">
      <!-- 400 -->
      <g transform="translate(324.533102 322.182437) scale(0.1 -0.1)">
       <defs>
        <path id="DejaVuSans-34" d="M 2419 4116 
L 825 1625 
L 2419 1625 
L 2419 4116 
z
M 2253 4666 
L 3047 4666 
L 3047 1625 
L 3713 1625 
L 3713 1100 
L 3047 1100 
L 3047 0 
L 2419 0 
L 2419 1100 
L 313 1100 
L 313 1709 
L 2253 4666 
z
" transform="scale(0.015625)"/>
       </defs>
       <use xlink:href="#DejaVuSans-34"/>
       <use xlink:href="#DejaVuSans-30" x="63.623047"/>
       <use xlink:href="#DejaVuSans-30" x="127.246094"/>
      </g>
     </g>
    </g>
    <g id="xtick_6">
     <g id="line2d_6">
      <g>
       <use xlink:href="#md35ecb47e8" x="399.137883" y="307.584" style="stroke: #000000; stroke-width: 0.8"/>
      </g>
     </g>
     <g id="text_6">
      <!-- 500 -->
      <g transform="translate(389.594133 322.182437) scale(0.1 -0.1)">
       <defs>
        <path id="DejaVuSans-35" d="M 691 4666 
L 3169 4666 
L 3169 4134 
L 1269 4134 
L 1269 2991 
Q 1406 3038 1543 3061 
Q 1681 3084 1819 3084 
Q 2600 3084 3056 2656 
Q 3513 2228 3513 1497 
Q 3513 744 3044 326 
Q 2575 -91 1722 -91 
Q 1428 -91 1123 -41 
Q 819 9 494 109 
L 494 744 
Q 775 591 1075 516 
Q 1375 441 1709 441 
Q 2250 441 2565 725 
Q 2881 1009 2881 1497 
Q 2881 1984 2565 2268 
Q 2250 2553 1709 2553 
Q 1456 2553 1204 2497 
Q 953 2441 691 2322 
L 691 4666 
z
" transform="scale(0.015625)"/>
       </defs>
       <use xlink:href="#DejaVuSans-35"/>
       <use xlink:href="#DejaVuSans-30" x="63.623047"/>
       <use xlink:href="#DejaVuSans-30" x="127.246094"/>
      </g>
     </g>
    </g>
    <g id="text_7">
     <!-- epoch -->
     <g transform="translate(220.931875 335.860562) scale(0.1 -0.1)">
      <defs>
       <path id="DejaVuSans-65" d="M 3597 1894 
L 3597 1613 
L 953 1613 
Q 991 1019 1311 708 
Q 1631 397 2203 397 
Q 2534 397 2845 478 
Q 3156 559 3463 722 
L 3463 178 
Q 3153 47 2828 -22 
Q 2503 -91 2169 -91 
Q 1331 -91 842 396 
Q 353 884 353 1716 
Q 353 2575 817 3079 
Q 1281 3584 2069 3584 
Q 2775 3584 3186 3129 
Q 3597 2675 3597 1894 
z
M 3022 2063 
Q 3016 2534 2758 2815 
Q 2500 3097 2075 3097 
Q 1594 3097 1305 2825 
Q 1016 2553 972 2059 
L 3022 2063 
z
" transform="scale(0.015625)"/>
       <path id="DejaVuSans-70" d="M 1159 525 
L 1159 -1331 
L 581 -1331 
L 581 3500 
L 1159 3500 
L 1159 2969 
Q 1341 3281 1617 3432 
Q 1894 3584 2278 3584 
Q 2916 3584 3314 3078 
Q 3713 2572 3713 1747 
Q 3713 922 3314 415 
Q 2916 -91 2278 -91 
Q 1894 -91 1617 61 
Q 1341 213 1159 525 
z
M 3116 1747 
Q 3116 2381 2855 2742 
Q 2594 3103 2138 3103 
Q 1681 3103 1420 2742 
Q 1159 2381 1159 1747 
Q 1159 1113 1420 752 
Q 1681 391 2138 391 
Q 2594 391 2855 752 
Q 3116 1113 3116 1747 
z
" transform="scale(0.015625)"/>
       <path id="DejaVuSans-6f" d="M 1959 3097 
Q 1497 3097 1228 2736 
Q 959 2375 959 1747 
Q 959 1119 1226 758 
Q 1494 397 1959 397 
Q 2419 397 2687 759 
Q 2956 1122 2956 1747 
Q 2956 2369 2687 2733 
Q 2419 3097 1959 3097 
z
M 1959 3584 
Q 2709 3584 3137 3096 
Q 3566 2609 3566 1747 
Q 3566 888 3137 398 
Q 2709 -91 1959 -91 
Q 1206 -91 779 398 
Q 353 888 353 1747 
Q 353 2609 779 3096 
Q 1206 3584 1959 3584 
z
" transform="scale(0.015625)"/>
       <path id="DejaVuSans-63" d="M 3122 3366 
L 3122 2828 
Q 2878 2963 2633 3030 
Q 2388 3097 2138 3097 
Q 1578 3097 1268 2742 
Q 959 2388 959 1747 
Q 959 1106 1268 751 
Q 1578 397 2138 397 
Q 2388 397 2633 464 
Q 2878 531 3122 666 
L 3122 134 
Q 2881 22 2623 -34 
Q 2366 -91 2075 -91 
Q 1284 -91 818 406 
Q 353 903 353 1747 
Q 353 2603 823 3093 
Q 1294 3584 2113 3584 
Q 2378 3584 2631 3529 
Q 2884 3475 3122 3366 
z
" transform="scale(0.015625)"/>
       <path id="DejaVuSans-68" d="M 3513 2113 
L 3513 0 
L 2938 0 
L 2938 2094 
Q 2938 2591 2744 2837 
Q 2550 3084 2163 3084 
Q 1697 3084 1428 2787 
Q 1159 2491 1159 1978 
L 1159 0 
L 581 0 
L 581 4863 
L 1159 4863 
L 1159 2956 
Q 1366 3272 1645 3428 
Q 1925 3584 2291 3584 
Q 2894 3584 3203 3211 
Q 3513 2838 3513 2113 
z
" transform="scale(0.015625)"/>
      </defs>
      <use xlink:href="#DejaVuSans-65"/>
      <use xlink:href="#DejaVuSans-70" x="61.523438"/>
      <use xlink:href="#DejaVuSans-6f" x="125"/>
      <use xlink:href="#DejaVuSans-63" x="186.181641"/>
      <use xlink:href="#DejaVuSans-68" x="241.162109"/>
     </g>
    </g>
   </g>
   <g id="matplotlib.axis_2">
    <g id="ytick_1">
     <g id="line2d_7">
      <defs>
       <path id="mf1282c067e" d="M 0 0 
L -3.5 0 
" style="stroke: #000000; stroke-width: 0.8"/>
      </defs>
      <g>
       <use xlink:href="#mf1282c067e" x="57.6" y="266.929639" style="stroke: #000000; stroke-width: 0.8"/>
      </g>
     </g>
     <g id="text_8">
      <!-- 0.15 -->
      <g transform="translate(28.334375 270.728858) scale(0.1 -0.1)">
       <defs>
        <path id="DejaVuSans-2e" d="M 684 794 
L 1344 794 
L 1344 0 
L 684 0 
L 684 794 
z
" transform="scale(0.015625)"/>
       </defs>
       <use xlink:href="#DejaVuSans-30"/>
       <use xlink:href="#DejaVuSans-2e" x="63.623047"/>
       <use xlink:href="#DejaVuSans-31" x="95.410156"/>
       <use xlink:href="#DejaVuSans-35" x="159.033203"/>
      </g>
     </g>
    </g>
    <g id="ytick_2">
     <g id="line2d_8">
      <g>
       <use xlink:href="#mf1282c067e" x="57.6" y="218.476974" style="stroke: #000000; stroke-width: 0.8"/>
      </g>
     </g>
     <g id="text_9">
      <!-- 0.20 -->
      <g transform="translate(28.334375 222.276193) scale(0.1 -0.1)">
       <use xlink:href="#DejaVuSans-30"/>
       <use xlink:href="#DejaVuSans-2e" x="63.623047"/>
       <use xlink:href="#DejaVuSans-32" x="95.410156"/>
       <use xlink:href="#DejaVuSans-30" x="159.033203"/>
      </g>
     </g>
    </g>
    <g id="ytick_3">
     <g id="line2d_9">
      <g>
       <use xlink:href="#mf1282c067e" x="57.6" y="170.024309" style="stroke: #000000; stroke-width: 0.8"/>
      </g>
     </g>
     <g id="text_10">
      <!-- 0.25 -->
      <g transform="translate(28.334375 173.823528) scale(0.1 -0.1)">
       <use xlink:href="#DejaVuSans-30"/>
       <use xlink:href="#DejaVuSans-2e" x="63.623047"/>
       <use xlink:href="#DejaVuSans-32" x="95.410156"/>
       <use xlink:href="#DejaVuSans-35" x="159.033203"/>
      </g>
     </g>
    </g>
    <g id="ytick_4">
     <g id="line2d_10">
      <g>
       <use xlink:href="#mf1282c067e" x="57.6" y="121.571644" style="stroke: #000000; stroke-width: 0.8"/>
      </g>
     </g>
     <g id="text_11">
      <!-- 0.30 -->
      <g transform="translate(28.334375 125.370863) scale(0.1 -0.1)">
       <use xlink:href="#DejaVuSans-30"/>
       <use xlink:href="#DejaVuSans-2e" x="63.623047"/>
       <use xlink:href="#DejaVuSans-33" x="95.410156"/>
       <use xlink:href="#DejaVuSans-30" x="159.033203"/>
      </g>
     </g>
    </g>
    <g id="ytick_5">
     <g id="line2d_11">
      <g>
       <use xlink:href="#mf1282c067e" x="57.6" y="73.118979" style="stroke: #000000; stroke-width: 0.8"/>
      </g>
     </g>
     <g id="text_12">
      <!-- 0.35 -->
      <g transform="translate(28.334375 76.918198) scale(0.1 -0.1)">
       <use xlink:href="#DejaVuSans-30"/>
       <use xlink:href="#DejaVuSans-2e" x="63.623047"/>
       <use xlink:href="#DejaVuSans-33" x="95.410156"/>
       <use xlink:href="#DejaVuSans-35" x="159.033203"/>
      </g>
     </g>
    </g>
    <g id="text_13">
     <!-- loss value -->
     <g transform="translate(22.254687 199.432687) rotate(-90) scale(0.1 -0.1)">
      <defs>
       <path id="DejaVuSans-6c" d="M 603 4863 
L 1178 4863 
L 1178 0 
L 603 0 
L 603 4863 
z
" transform="scale(0.015625)"/>
       <path id="DejaVuSans-73" d="M 2834 3397 
L 2834 2853 
Q 2591 2978 2328 3040 
Q 2066 3103 1784 3103 
Q 1356 3103 1142 2972 
Q 928 2841 928 2578 
Q 928 2378 1081 2264 
Q 1234 2150 1697 2047 
L 1894 2003 
Q 2506 1872 2764 1633 
Q 3022 1394 3022 966 
Q 3022 478 2636 193 
Q 2250 -91 1575 -91 
Q 1294 -91 989 -36 
Q 684 19 347 128 
L 347 722 
Q 666 556 975 473 
Q 1284 391 1588 391 
Q 1994 391 2212 530 
Q 2431 669 2431 922 
Q 2431 1156 2273 1281 
Q 2116 1406 1581 1522 
L 1381 1569 
Q 847 1681 609 1914 
Q 372 2147 372 2553 
Q 372 3047 722 3315 
Q 1072 3584 1716 3584 
Q 2034 3584 2315 3537 
Q 2597 3491 2834 3397 
z
" transform="scale(0.015625)"/>
       <path id="DejaVuSans-20" transform="scale(0.015625)"/>
       <path id="DejaVuSans-76" d="M 191 3500 
L 800 3500 
L 1894 563 
L 2988 3500 
L 3597 3500 
L 2284 0 
L 1503 0 
L 191 3500 
z
" transform="scale(0.015625)"/>
       <path id="DejaVuSans-61" d="M 2194 1759 
Q 1497 1759 1228 1600 
Q 959 1441 959 1056 
Q 959 750 1161 570 
Q 1363 391 1709 391 
Q 2188 391 2477 730 
Q 2766 1069 2766 1631 
L 2766 1759 
L 2194 1759 
z
M 3341 1997 
L 3341 0 
L 2766 0 
L 2766 531 
Q 2569 213 2275 61 
Q 1981 -91 1556 -91 
Q 1019 -91 701 211 
Q 384 513 384 1019 
Q 384 1609 779 1909 
Q 1175 2209 1959 2209 
L 2766 2209 
L 2766 2266 
Q 2766 2663 2505 2880 
Q 2244 3097 1772 3097 
Q 1472 3097 1187 3025 
Q 903 2953 641 2809 
L 641 3341 
Q 956 3463 1253 3523 
Q 1550 3584 1831 3584 
Q 2591 3584 2966 3190 
Q 3341 2797 3341 1997 
z
" transform="scale(0.015625)"/>
       <path id="DejaVuSans-75" d="M 544 1381 
L 544 3500 
L 1119 3500 
L 1119 1403 
Q 1119 906 1312 657 
Q 1506 409 1894 409 
Q 2359 409 2629 706 
Q 2900 1003 2900 1516 
L 2900 3500 
L 3475 3500 
L 3475 0 
L 2900 0 
L 2900 538 
Q 2691 219 2414 64 
Q 2138 -91 1772 -91 
Q 1169 -91 856 284 
Q 544 659 544 1381 
z
M 1991 3584 
L 1991 3584 
z
" transform="scale(0.015625)"/>
      </defs>
      <use xlink:href="#DejaVuSans-6c"/>
      <use xlink:href="#DejaVuSans-6f" x="27.783203"/>
      <use xlink:href="#DejaVuSans-73" x="88.964844"/>
      <use xlink:href="#DejaVuSans-73" x="141.064453"/>
      <use xlink:href="#DejaVuSans-20" x="193.164062"/>
      <use xlink:href="#DejaVuSans-76" x="224.951172"/>
      <use xlink:href="#DejaVuSans-61" x="284.130859"/>
      <use xlink:href="#DejaVuSans-6c" x="345.410156"/>
      <use xlink:href="#DejaVuSans-75" x="373.193359"/>
      <use xlink:href="#DejaVuSans-65" x="436.572266"/>
     </g>
    </g>
   </g>
   <g id="line2d_12">
    <path d="M 73.832727 83.024311 
L 74.483338 262.975123 
L 75.133948 272.059768 
L 75.784558 275.049841 
L 76.435169 279.140985 
L 77.085779 244.804785 
L 77.736389 271.966904 
L 78.386999 275.241905 
L 79.03761 277.317605 
L 79.68822 282.443884 
L 80.33883 259.780093 
L 80.989441 275.264527 
L 81.640051 278.912259 
L 82.290661 279.71725 
L 82.941272 282.07185 
L 83.591882 263.265708 
L 84.242492 277.095635 
L 84.893103 279.414709 
L 85.543713 281.069284 
L 86.194323 283.457618 
L 86.844934 265.321353 
L 87.495544 279.66309 
L 88.146154 282.631723 
L 89.447375 284.409795 
L 90.097985 266.913716 
L 90.748595 280.924224 
L 91.399206 283.158564 
L 92.049816 283.375865 
L 92.700426 286.212167 
L 93.351037 269.781574 
L 94.001647 282.730569 
L 94.652257 284.320913 
L 95.302868 286.724572 
L 95.953478 286.541038 
L 96.604088 271.824521 
L 97.254698 284.304134 
L 97.905309 285.06537 
L 99.206529 288.043041 
L 99.85714 270.686193 
L 100.50775 284.376616 
L 101.15836 287.025834 
L 101.808971 286.722621 
L 102.459581 288.740328 
L 103.110191 269.537613 
L 103.760802 284.068134 
L 105.712633 289.945867 
L 106.363243 272.253925 
L 107.013853 287.075418 
L 107.664463 288.273964 
L 108.315074 289.777657 
L 108.965684 289.808083 
L 109.616294 274.745415 
L 110.266905 287.46214 
L 111.568125 290.40501 
L 112.218736 291.381272 
L 112.869346 274.970102 
L 113.519956 287.23798 
L 114.170567 289.166327 
L 114.821177 290.59951 
L 115.471787 291.450493 
L 116.122398 272.079848 
L 116.773008 289.064201 
L 117.423618 289.909753 
L 118.074228 292.15694 
L 118.724839 292.872935 
L 119.375449 273.152972 
L 120.026059 289.836134 
L 120.67667 291.287722 
L 121.32728 291.944771 
L 121.97789 293.353392 
L 122.628501 279.893578 
L 123.279111 290.21726 
L 123.929721 291.976088 
L 124.580332 290.862839 
L 125.230942 294.658307 
L 125.881552 275.396404 
L 126.532163 290.626521 
L 127.182773 292.71522 
L 127.833383 292.827737 
L 128.483993 295.09284 
L 129.134604 277.254932 
L 129.785214 290.995064 
L 130.435824 292.588922 
L 131.737045 293.743115 
L 132.387655 279.237577 
L 133.038266 290.876527 
L 133.688876 292.886561 
L 134.339486 294.364323 
L 134.990097 295.401223 
L 135.640707 277.919891 
L 136.291317 289.516491 
L 136.941927 294.543959 
L 137.592538 294.062097 
L 138.243148 295.488 
L 138.893758 278.416019 
L 139.544369 291.209709 
L 140.194979 293.496987 
L 140.845589 294.442351 
L 141.4962 294.423605 
L 142.14681 268.156068 
L 142.79742 290.038051 
L 143.448031 291.196823 
L 144.098641 293.238506 
L 144.749251 292.469186 
L 145.399862 274.41398 
L 146.050472 290.018044 
L 146.701082 292.347786 
L 147.351692 292.952458 
L 148.002303 293.230793 
L 148.652913 267.742926 
L 149.303523 289.09746 
L 149.954134 291.927707 
L 150.604744 293.117731 
L 151.255354 292.718895 
L 151.905965 265.416784 
L 152.556575 289.971756 
L 153.207185 290.912487 
L 153.857796 293.561503 
L 154.508406 294.333822 
L 155.159016 266.70174 
L 155.809627 289.974102 
L 156.460237 292.167204 
L 157.110847 292.998506 
L 157.761457 294.598547 
L 158.412068 270.653703 
L 159.062678 290.841453 
L 159.713288 292.518454 
L 160.363899 293.779372 
L 161.014509 294.614899 
L 161.665119 267.42887 
L 162.31573 288.21158 
L 162.96634 293.672405 
L 163.61695 293.93278 
L 164.267561 293.78878 
L 164.918171 262.16197 
L 165.568781 287.806862 
L 166.219392 292.122813 
L 167.520612 293.793995 
L 168.171222 262.926053 
L 168.821833 288.447286 
L 169.472443 291.134062 
L 170.123053 292.689819 
L 170.773664 293.364953 
L 171.424274 263.495916 
L 172.074884 286.187124 
L 172.725495 291.412132 
L 173.376105 292.388138 
L 174.026715 294.111562 
L 174.677326 264.526701 
L 175.327936 287.688916 
L 175.978546 292.905884 
L 176.629156 292.365367 
L 177.279767 291.337314 
L 177.930377 267.282685 
L 178.580987 286.040674 
L 179.231598 292.701836 
L 179.882208 293.223029 
L 180.532818 292.548804 
L 181.183429 262.94012 
L 181.834039 285.769911 
L 182.484649 290.465073 
L 183.13526 292.834118 
L 183.78587 293.703123 
L 184.43648 263.391887 
L 185.087091 285.145053 
L 185.737701 290.797993 
L 186.388311 292.933433 
L 187.038921 293.144204 
L 187.689532 266.505533 
L 188.340142 285.529345 
L 188.990752 291.823217 
L 189.641363 292.317419 
L 190.291973 293.304958 
L 190.942583 258.702662 
L 191.593194 282.195137 
L 192.243804 289.592328 
L 192.894414 291.700712 
L 193.545025 292.922859 
L 194.195635 259.15953 
L 194.846245 281.015179 
L 195.496856 289.352596 
L 196.147466 292.231133 
L 196.798076 293.24314 
L 197.448686 257.547277 
L 198.099297 281.461432 
L 198.749907 289.073522 
L 199.400517 290.865274 
L 200.051128 293.980533 
L 200.701738 260.436848 
L 201.352348 279.987509 
L 202.002959 288.932387 
L 202.653569 291.508365 
L 203.304179 292.507701 
L 203.95479 262.481926 
L 204.6054 281.556906 
L 205.25601 290.244106 
L 205.906621 292.970783 
L 206.557231 291.999753 
L 207.207841 262.110152 
L 207.858451 279.577266 
L 208.509062 288.501899 
L 209.159672 292.944274 
L 209.810282 292.866096 
L 210.460893 256.857854 
L 211.111503 277.79654 
L 211.762113 286.636128 
L 212.412724 290.549275 
L 213.063334 293.110794 
L 213.713944 256.504201 
L 214.364555 276.668404 
L 215.015165 286.031294 
L 215.665775 291.146308 
L 216.316385 291.173172 
L 216.966996 259.049979 
L 217.617606 278.025389 
L 218.268216 286.10737 
L 218.918827 289.406525 
L 219.569437 291.696728 
L 220.220047 253.86137 
L 220.870658 274.524928 
L 221.521268 285.667281 
L 222.171878 286.901391 
L 222.822489 290.624253 
L 223.473099 261.718009 
L 224.123709 276.393459 
L 224.77432 285.548742 
L 225.42493 289.618652 
L 226.07554 290.967404 
L 226.72615 258.786584 
L 227.376761 276.215396 
L 228.027371 285.577757 
L 228.677981 287.644411 
L 229.328592 291.736976 
L 229.979202 258.379044 
L 230.629812 274.995919 
L 231.280423 284.197889 
L 231.931033 288.423425 
L 232.581643 289.808345 
L 233.232254 260.068571 
L 233.882864 273.174013 
L 234.533474 282.633691 
L 235.184085 288.244898 
L 235.834695 289.23328 
L 236.485305 253.731229 
L 237.135915 270.632088 
L 237.786526 281.095614 
L 238.437136 285.445664 
L 239.087746 287.782778 
L 239.738357 260.347944 
L 240.388967 273.205282 
L 241.039577 282.181555 
L 241.690188 287.927822 
L 242.340798 289.216279 
L 242.991408 253.375674 
L 243.642019 269.053063 
L 244.292629 279.576692 
L 244.943239 282.378065 
L 245.59385 288.041519 
L 246.24446 256.874544 
L 246.89507 271.132082 
L 248.196291 284.742944 
L 248.846901 289.386051 
L 249.497511 253.995737 
L 250.148122 268.30148 
L 250.798732 278.165864 
L 251.449342 284.730107 
L 252.099953 286.658059 
L 252.750563 246.221959 
L 254.051784 274.0211 
L 254.702394 281.339015 
L 255.353004 285.206861 
L 256.003615 255.901131 
L 256.654225 268.499716 
L 257.304835 277.271815 
L 258.606056 287.978317 
L 259.256666 251.771798 
L 260.557887 275.852492 
L 261.208497 280.918843 
L 261.859107 284.815512 
L 262.509718 252.12749 
L 263.160328 266.001309 
L 263.810938 274.353845 
L 264.461549 281.259627 
L 265.112159 284.060448 
L 265.762769 247.377659 
L 266.413379 261.520003 
L 267.06399 271.434497 
L 267.7146 278.644843 
L 268.36521 282.628478 
L 269.015821 249.757141 
L 269.666431 262.303904 
L 270.967652 278.020762 
L 271.618262 282.270042 
L 272.268872 254.533984 
L 273.570093 274.438809 
L 274.220703 279.137465 
L 274.871314 285.862464 
L 275.521924 248.804457 
L 276.823144 271.244665 
L 277.473755 275.331564 
L 278.124365 281.312366 
L 278.774975 175.360566 
L 280.076196 227.048257 
L 280.726806 243.806288 
L 281.377417 255.394622 
L 282.028027 207.448501 
L 282.678637 228.542883 
L 283.329248 244.717722 
L 283.979858 256.431684 
L 284.630468 265.119171 
L 285.281079 225.529676 
L 285.931689 240.681843 
L 286.582299 252.626056 
L 287.232909 262.493783 
L 287.88352 270.616543 
L 288.53413 229.88169 
L 289.835351 253.890272 
L 290.485961 262.983226 
L 291.136571 269.484073 
L 291.787182 235.419414 
L 292.437792 248.164966 
L 293.739013 266.161629 
L 294.389623 270.48094 
L 295.040233 234.925425 
L 296.341454 256.133869 
L 296.992064 263.997034 
L 297.642674 269.121176 
L 298.293285 241.058493 
L 299.594505 259.15868 
L 300.895726 270.271368 
L 301.546336 242.213708 
L 302.196947 251.32865 
L 303.498167 265.562609 
L 304.148778 270.098499 
L 304.799388 245.885128 
L 305.449998 254.786689 
L 306.751219 268.025838 
L 307.401829 270.546168 
L 308.052439 241.976494 
L 309.35366 257.923885 
L 310.00427 264.705442 
L 310.654881 268.03342 
L 311.305491 244.047696 
L 312.606712 258.342744 
L 313.257322 265.008708 
L 313.907932 267.744995 
L 314.558543 236.050552 
L 315.209153 246.140227 
L 316.510373 259.02609 
L 317.160984 264.307891 
L 317.811594 245.612411 
L 319.112815 258.185214 
L 320.414035 268.410654 
L 321.064646 241.347355 
L 321.715256 246.808739 
L 322.365866 253.987651 
L 323.016477 259.628269 
L 323.667087 264.00846 
L 324.317697 241.404148 
L 324.968308 249.639566 
L 325.618918 255.708498 
L 326.920138 262.613629 
L 327.570749 236.023109 
L 328.871969 251.138164 
L 330.17319 259.867879 
L 330.8238 243.81959 
L 331.474411 247.96609 
L 332.775631 259.271989 
L 333.426242 263.641 
L 334.076852 238.830353 
L 334.727462 246.520667 
L 335.378073 249.712813 
L 336.028683 256.364234 
L 336.679293 260.539769 
L 337.329903 242.982935 
L 339.281734 259.164934 
L 339.932345 262.523519 
L 340.582955 236.144805 
L 341.233565 243.100657 
L 341.884176 248.798915 
L 342.534786 253.123014 
L 343.185396 258.709826 
L 343.836007 236.631476 
L 345.137227 250.660499 
L 345.787837 254.103706 
L 346.438448 258.883605 
L 347.089058 240.401573 
L 349.040889 257.262338 
L 349.691499 260.417237 
L 350.34211 241.214913 
L 350.99272 248.958776 
L 351.64333 253.812669 
L 352.944551 261.729117 
L 353.595161 240.182535 
L 354.896382 252.665762 
L 355.546992 257.945949 
L 356.197602 260.884131 
L 356.848213 241.002348 
L 357.498823 247.985264 
L 358.800044 256.231514 
L 359.450654 261.02917 
L 360.101264 237.57979 
L 360.751875 242.554499 
L 361.402485 249.040341 
L 362.053095 254.140987 
L 362.703706 258.304935 
L 363.354316 241.34197 
L 364.655537 254.067386 
L 365.306147 257.828405 
L 365.956757 262.786449 
L 366.607367 241.909166 
L 367.257978 246.269716 
L 367.908588 253.900908 
L 369.209809 262.158277 
L 369.860419 239.634517 
L 370.511029 247.59496 
L 371.81225 256.63223 
L 372.46286 261.113601 
L 373.113471 236.75932 
L 374.414691 249.521975 
L 375.065302 255.134357 
L 375.715912 258.588612 
L 376.366522 244.766913 
L 377.017132 251.438123 
L 377.667743 256.163943 
L 378.318353 259.710843 
L 378.968963 264.110406 
L 379.619574 240.520564 
L 380.270184 244.759438 
L 381.571405 255.772467 
L 382.222015 259.930533 
L 382.872625 240.026871 
L 383.523236 246.903034 
L 385.475066 261.761574 
L 386.125677 240.745351 
L 386.776287 245.304668 
L 387.426897 252.059011 
L 388.728118 260.965229 
L 389.378728 242.397335 
L 390.679949 254.124348 
L 391.330559 259.187297 
L 391.98117 262.363119 
L 392.63178 238.827969 
L 393.28239 244.73284 
L 393.933001 252.430814 
L 394.583611 257.859188 
L 395.234221 260.347811 
L 395.884831 242.578695 
L 396.535442 248.065319 
L 397.186052 255.407636 
L 397.836662 258.315319 
L 398.487273 262.046216 
L 398.487273 262.046216 
" clip-path="url(#pac71cd2064)" style="fill: none; stroke: #0000ff; stroke-width: 1.5; stroke-linecap: square"/>
   </g>
   <g id="line2d_13">
    <path d="M 73.832727 53.568 
L 74.483338 233.526442 
L 75.133948 242.620596 
L 75.784558 245.620359 
L 76.435169 249.721259 
L 77.085779 215.419741 
L 77.736389 242.591532 
L 78.386999 245.87628 
L 79.03761 247.961733 
L 79.68822 253.097774 
L 80.33883 230.534906 
L 80.989441 246.029002 
L 81.640051 249.686418 
L 82.290661 250.501071 
L 82.941272 252.865364 
L 83.591882 234.030247 
L 84.242492 247.869875 
L 84.893103 250.198683 
L 85.543713 251.86296 
L 86.194323 254.260994 
L 86.844934 236.119377 
L 87.495544 250.47081 
L 88.146154 253.449185 
L 89.447375 255.246633 
L 90.097985 237.727748 
L 90.748595 251.74794 
L 91.399206 253.991985 
L 92.049816 254.218978 
L 92.700426 257.064988 
L 93.351037 240.624212 
L 94.001647 253.582932 
L 94.652257 255.182996 
L 95.302868 257.596369 
L 95.953478 257.422549 
L 96.604088 242.689559 
L 97.254698 255.178884 
L 97.905309 255.949863 
L 99.206529 258.946931 
L 99.85714 241.571508 
L 100.50775 255.271616 
L 101.15836 257.930567 
L 101.808971 257.63705 
L 102.459581 259.664476 
L 103.110191 240.45335 
L 103.760802 254.99358 
L 105.712633 260.900401 
L 106.363243 243.192832 
L 107.013853 258.024013 
L 107.664463 259.232267 
L 108.315074 260.745636 
L 108.965684 260.785707 
L 109.616294 245.710636 
L 110.266905 258.437032 
L 111.568125 261.399292 
L 112.218736 262.385246 
L 112.869346 245.954073 
L 113.519956 258.231613 
L 114.170567 260.169657 
L 114.821177 261.612525 
L 115.471787 262.473185 
L 116.122398 243.09331 
L 116.773008 260.08731 
L 117.423618 260.94253 
L 118.074228 263.199397 
L 118.724839 263.925026 
L 119.375449 244.188676 
L 120.026059 260.881518 
L 120.67667 262.342766 
L 121.32728 263.009468 
L 121.97789 264.427763 
L 122.628501 250.949811 
L 123.279111 261.283157 
L 123.929721 263.051661 
L 124.580332 261.948052 
L 125.230942 265.753163 
L 125.881552 246.474597 
L 126.532163 261.714331 
L 127.182773 263.812632 
L 127.833383 263.934736 
L 128.483993 266.20948 
L 129.134604 248.35714 
L 129.785214 262.106862 
L 130.435824 263.710348 
L 131.737045 264.883786 
L 132.387655 250.359076 
L 133.038266 262.007647 
L 133.688876 264.027323 
L 134.339486 265.514695 
L 134.990097 266.561195 
L 135.640707 249.059115 
L 136.291317 260.665298 
L 136.941927 265.702416 
L 137.592538 265.230135 
L 138.243148 266.665629 
L 138.893758 249.576372 
L 139.544369 262.376689 
L 140.194979 264.667474 
L 140.845589 265.616329 
L 141.4962 265.60107 
L 142.14681 239.338992 
L 142.79742 261.224372 
L 143.448031 262.386463 
L 144.098641 264.431477 
L 144.749251 263.665474 
L 145.399862 245.606976 
L 146.050472 261.214274 
L 146.701082 263.547166 
L 147.351692 264.154992 
L 148.002303 264.436482 
L 148.652913 238.959277 
L 149.303523 260.316878 
L 149.954134 263.150105 
L 150.604744 264.343125 
L 151.255354 263.947285 
L 151.905965 236.650418 
L 152.556575 261.208313 
L 153.207185 262.151874 
L 153.857796 264.803741 
L 154.508406 265.578902 
L 155.159016 237.958094 
L 155.809627 261.233237 
L 156.460237 263.429026 
L 157.110847 264.263042 
L 157.761457 265.865799 
L 158.412068 241.923476 
L 159.062678 262.113856 
L 159.713288 263.793418 
L 160.363899 265.056907 
L 161.014509 265.895001 
L 161.665119 238.713649 
L 162.31573 259.498883 
L 162.96634 264.962153 
L 163.61695 265.224984 
L 164.267561 265.083435 
L 164.918171 233.466487 
L 165.568781 259.113765 
L 166.219392 263.432027 
L 167.520612 265.107852 
L 168.171222 234.244707 
L 168.821833 259.768207 
L 169.472443 262.457176 
L 170.123053 264.015139 
L 170.773664 264.692489 
L 171.424274 234.837189 
L 172.074884 257.530568 
L 172.725495 262.757667 
L 173.376105 263.73577 
L 174.026715 265.461291 
L 174.677326 235.882278 
L 175.327936 259.046545 
L 175.978546 264.265493 
L 176.629156 263.726966 
L 177.279767 262.70091 
L 177.930377 238.648565 
L 178.580987 257.408506 
L 179.231598 264.071557 
L 179.882208 264.594639 
L 180.532818 263.922306 
L 181.183429 234.329263 
L 181.834039 257.160919 
L 182.484649 261.857878 
L 183.13526 264.228723 
L 183.78587 265.099527 
L 184.43648 234.787258 
L 185.087091 256.542198 
L 185.737701 262.196838 
L 186.388311 264.333986 
L 187.038921 264.546461 
L 187.689532 237.917308 
L 188.340142 256.9428 
L 188.990752 263.238295 
L 189.641363 263.734125 
L 190.291973 264.723294 
L 190.942583 230.128178 
L 191.593194 253.62226 
L 192.243804 261.020983 
L 192.894414 263.130906 
L 193.545025 264.354594 
L 194.195635 230.592247 
L 194.846245 252.449414 
L 195.496856 260.788297 
L 196.147466 263.668302 
L 196.798076 264.681775 
L 197.448686 229.003443 
L 198.099297 252.919055 
L 198.749907 260.532546 
L 199.400517 262.325691 
L 200.051128 265.442348 
L 200.701738 231.891967 
L 201.352348 251.443999 
L 202.002959 260.390199 
L 202.653569 262.967494 
L 203.304179 263.968159 
L 203.95479 233.951148 
L 204.6054 253.027438 
L 205.25601 261.715899 
L 205.906621 264.443839 
L 206.557231 263.47407 
L 207.207841 233.592189 
L 207.858451 251.060548 
L 208.509062 259.986373 
L 209.159672 264.429933 
L 209.810282 264.352942 
L 210.460893 228.343101 
L 211.111503 249.282976 
L 211.762113 258.123699 
L 212.412724 262.037979 
L 213.063334 264.600631 
L 213.713944 227.997104 
L 214.364555 248.162433 
L 215.015165 257.526407 
L 215.665775 262.642494 
L 216.316385 262.670429 
L 216.966996 230.54712 
L 217.617606 249.523599 
L 218.268216 257.606601 
L 218.918827 260.906782 
L 219.569437 263.198011 
L 220.220047 225.366675 
L 220.870658 246.031259 
L 221.521268 257.174583 
L 222.171878 258.409656 
L 222.822489 262.133501 
L 223.473099 233.224007 
L 224.123709 247.900425 
L 224.77432 257.056634 
L 225.42493 261.127469 
L 226.07554 262.477149 
L 226.72615 230.300835 
L 227.376761 247.730569 
L 228.027371 257.093814 
L 228.677981 259.161351 
L 229.328592 263.254799 
L 229.979202 229.89621 
L 230.629812 246.513961 
L 231.280423 255.716768 
L 231.931033 259.943138 
L 232.581643 261.328889 
L 233.232254 231.5915 
L 233.882864 244.697777 
L 234.533474 254.158251 
L 235.184085 259.770256 
L 235.834695 260.759432 
L 236.485305 225.259444 
L 237.135915 242.161097 
L 237.786526 252.625386 
L 238.437136 256.976191 
L 239.087746 259.314057 
L 239.738357 231.879522 
L 240.388967 244.737616 
L 241.039577 253.71461 
L 241.690188 259.461599 
L 242.340798 260.750776 
L 242.991408 224.911862 
L 243.642019 240.589972 
L 244.292629 251.114291 
L 244.943239 253.916344 
L 245.59385 259.580481 
L 246.24446 228.41342 
L 246.89507 242.671641 
L 248.196291 256.283811 
L 248.846901 260.927561 
L 249.497511 225.540761 
L 250.148122 239.847155 
L 250.798732 249.712167 
L 251.449342 256.27703 
L 252.099953 258.205599 
L 252.750563 217.771556 
L 254.051784 245.571924 
L 254.702394 252.890426 
L 255.353004 256.758857 
L 256.003615 227.453604 
L 256.654225 240.05278 
L 257.304835 248.825447 
L 258.606056 259.533067 
L 259.256666 223.330156 
L 260.557887 247.411951 
L 261.208497 252.47883 
L 261.859107 256.376033 
L 262.509718 223.686373 
L 263.160328 237.560732 
L 263.810938 245.91377 
L 264.461549 252.820065 
L 265.112159 255.62139 
L 265.762769 218.942048 
L 266.413379 233.084909 
L 267.06399 242.999888 
L 267.7146 250.210719 
L 268.36521 254.194839 
L 269.015821 221.32314 
L 269.666431 233.870382 
L 270.967652 249.588167 
L 271.618262 253.837902 
L 272.268872 226.103738 
L 273.570093 246.009465 
L 274.220703 250.70856 
L 274.871314 257.43399 
L 275.521924 220.378165 
L 276.823144 242.819236 
L 277.473755 246.906553 
L 278.124365 252.887769 
L 278.774975 146.956309 
L 280.076196 198.644943 
L 280.726806 215.403414 
L 281.377417 226.992181 
L 282.028027 179.05027 
L 282.678637 200.145093 
L 283.329248 216.320345 
L 283.979858 228.034706 
L 284.630468 236.722593 
L 285.281079 197.133103 
L 285.931689 212.285672 
L 286.582299 224.230271 
L 287.232909 234.098376 
L 287.88352 242.221502 
L 288.53413 201.488267 
L 289.835351 225.497583 
L 290.485961 234.590899 
L 291.136571 241.092098 
L 291.787182 207.028088 
L 292.437792 219.773992 
L 293.739013 237.771325 
L 294.389623 242.090977 
L 295.040233 206.536914 
L 296.341454 227.746022 
L 296.992064 235.6095 
L 297.642674 240.73396 
L 298.293285 212.671874 
L 299.594505 230.772681 
L 300.895726 241.885964 
L 301.546336 213.831029 
L 302.196947 222.946277 
L 303.498167 237.180801 
L 304.148778 241.716976 
L 304.799388 217.502585 
L 305.449998 226.404428 
L 306.751219 239.644114 
L 307.401829 242.164715 
L 308.052439 213.597897 
L 309.35366 229.545823 
L 310.00427 236.327633 
L 310.654881 239.655865 
L 311.305491 215.669681 
L 312.606712 229.965231 
L 313.257322 236.631439 
L 313.907932 239.367974 
L 314.558543 207.675962 
L 315.209153 217.765881 
L 316.510373 230.652216 
L 317.160984 235.934245 
L 317.811594 217.237927 
L 319.112815 229.811192 
L 320.414035 240.037062 
L 321.064646 212.976445 
L 321.715256 218.438047 
L 322.365866 225.617169 
L 323.016477 231.257993 
L 323.667087 235.6384 
L 324.317697 213.033723 
L 324.968308 221.269346 
L 325.618918 227.338485 
L 326.920138 234.244008 
L 327.570749 207.655629 
L 328.871969 222.771078 
L 330.17319 231.501173 
L 330.8238 215.452301 
L 331.474411 219.598987 
L 332.775631 230.905243 
L 333.426242 235.274444 
L 334.076852 210.46608 
L 334.727462 218.156571 
L 335.378073 221.348905 
L 336.028683 228.000505 
L 336.679293 232.17622 
L 337.329903 214.619143 
L 339.281734 230.801686 
L 339.932345 234.160446 
L 340.582955 207.78383 
L 341.233565 214.739862 
L 341.884176 220.438299 
L 342.534786 224.76259 
L 343.185396 230.34958 
L 343.836007 208.270856 
L 345.137227 222.300244 
L 345.787837 225.743633 
L 346.438448 230.523707 
L 347.089058 212.043533 
L 349.040889 228.904852 
L 349.691499 232.059922 
L 350.34211 212.857011 
L 350.99272 220.601065 
L 351.64333 225.455149 
L 352.944551 233.371944 
L 353.595161 211.827083 
L 354.896382 224.31067 
L 355.546992 229.591035 
L 356.197602 232.529391 
L 356.848213 212.647062 
L 357.498823 219.630156 
L 358.800044 227.87676 
L 359.450654 232.674601 
L 360.101264 209.227056 
L 360.751875 214.201961 
L 361.402485 220.687984 
L 362.053095 225.788809 
L 362.703706 229.952931 
L 363.354316 212.989404 
L 364.655537 225.71519 
L 365.306147 229.476379 
L 365.956757 234.43461 
L 366.607367 213.558664 
L 367.257978 217.91939 
L 367.908588 225.550769 
L 369.209809 233.808497 
L 369.860419 211.284242 
L 370.511029 219.244868 
L 371.81225 228.282502 
L 372.46286 232.764053 
L 373.113471 208.411242 
L 374.414691 221.174261 
L 375.065302 226.786821 
L 375.715912 230.241252 
L 376.366522 216.418878 
L 377.017132 223.090273 
L 377.667743 227.816267 
L 378.318353 231.363347 
L 378.968963 235.763089 
L 379.619574 212.174774 
L 380.270184 216.413834 
L 381.571405 227.427224 
L 382.222015 231.585465 
L 382.872625 211.681138 
L 383.523236 218.557481 
L 385.475066 233.416561 
L 386.125677 212.40147 
L 386.776287 216.960966 
L 387.426897 223.715489 
L 388.728118 232.622063 
L 389.378728 214.053535 
L 390.679949 225.780909 
L 391.330559 230.84404 
L 391.98117 234.02004 
L 392.63178 210.485969 
L 393.28239 216.391033 
L 393.933001 224.089194 
L 394.583611 229.517737 
L 395.234221 232.006545 
L 395.884831 214.236802 
L 396.535442 219.72361 
L 397.186052 227.066113 
L 397.836662 229.973982 
L 398.487273 233.705048 
L 398.487273 233.705048 
" clip-path="url(#pac71cd2064)" style="fill: none; stroke: #008000; stroke-width: 1.5; stroke-linecap: square"/>
   </g>
   <g id="line2d_14">
    <path d="M 0 0 
" clip-path="url(#pac71cd2064)" style="fill: none; stroke: #ff0000; stroke-width: 1.5; stroke-linecap: square"/>
   </g>
   <g id="patch_3">
    <path d="M 57.6 307.584 
L 57.6 41.472 
" style="fill: none; stroke: #000000; stroke-width: 0.8; stroke-linejoin: miter; stroke-linecap: square"/>
   </g>
   <g id="patch_4">
    <path d="M 414.72 307.584 
L 414.72 41.472 
" style="fill: none; stroke: #000000; stroke-width: 0.8; stroke-linejoin: miter; stroke-linecap: square"/>
   </g>
   <g id="patch_5">
    <path d="M 57.6 307.584 
L 414.72 307.584 
" style="fill: none; stroke: #000000; stroke-width: 0.8; stroke-linejoin: miter; stroke-linecap: square"/>
   </g>
   <g id="patch_6">
    <path d="M 57.6 41.472 
L 414.72 41.472 
" style="fill: none; stroke: #000000; stroke-width: 0.8; stroke-linejoin: miter; stroke-linecap: square"/>
   </g>
   <g id="text_14">
    <!-- The loss curve on flag_resnet/host/4 -->
    <g transform="translate(127.426875 35.472) scale(0.12 -0.12)">
     <defs>
      <path id="DejaVuSans-54" d="M -19 4666 
L 3928 4666 
L 3928 4134 
L 2272 4134 
L 2272 0 
L 1638 0 
L 1638 4134 
L -19 4134 
L -19 4666 
z
" transform="scale(0.015625)"/>
      <path id="DejaVuSans-72" d="M 2631 2963 
Q 2534 3019 2420 3045 
Q 2306 3072 2169 3072 
Q 1681 3072 1420 2755 
Q 1159 2438 1159 1844 
L 1159 0 
L 581 0 
L 581 3500 
L 1159 3500 
L 1159 2956 
Q 1341 3275 1631 3429 
Q 1922 3584 2338 3584 
Q 2397 3584 2469 3576 
Q 2541 3569 2628 3553 
L 2631 2963 
z
" transform="scale(0.015625)"/>
      <path id="DejaVuSans-6e" d="M 3513 2113 
L 3513 0 
L 2938 0 
L 2938 2094 
Q 2938 2591 2744 2837 
Q 2550 3084 2163 3084 
Q 1697 3084 1428 2787 
Q 1159 2491 1159 1978 
L 1159 0 
L 581 0 
L 581 3500 
L 1159 3500 
L 1159 2956 
Q 1366 3272 1645 3428 
Q 1925 3584 2291 3584 
Q 2894 3584 3203 3211 
Q 3513 2838 3513 2113 
z
" transform="scale(0.015625)"/>
      <path id="DejaVuSans-66" d="M 2375 4863 
L 2375 4384 
L 1825 4384 
Q 1516 4384 1395 4259 
Q 1275 4134 1275 3809 
L 1275 3500 
L 2222 3500 
L 2222 3053 
L 1275 3053 
L 1275 0 
L 697 0 
L 697 3053 
L 147 3053 
L 147 3500 
L 697 3500 
L 697 3744 
Q 697 4328 969 4595 
Q 1241 4863 1831 4863 
L 2375 4863 
z
" transform="scale(0.015625)"/>
      <path id="DejaVuSans-67" d="M 2906 1791 
Q 2906 2416 2648 2759 
Q 2391 3103 1925 3103 
Q 1463 3103 1205 2759 
Q 947 2416 947 1791 
Q 947 1169 1205 825 
Q 1463 481 1925 481 
Q 2391 481 2648 825 
Q 2906 1169 2906 1791 
z
M 3481 434 
Q 3481 -459 3084 -895 
Q 2688 -1331 1869 -1331 
Q 1566 -1331 1297 -1286 
Q 1028 -1241 775 -1147 
L 775 -588 
Q 1028 -725 1275 -790 
Q 1522 -856 1778 -856 
Q 2344 -856 2625 -561 
Q 2906 -266 2906 331 
L 2906 616 
Q 2728 306 2450 153 
Q 2172 0 1784 0 
Q 1141 0 747 490 
Q 353 981 353 1791 
Q 353 2603 747 3093 
Q 1141 3584 1784 3584 
Q 2172 3584 2450 3431 
Q 2728 3278 2906 2969 
L 2906 3500 
L 3481 3500 
L 3481 434 
z
" transform="scale(0.015625)"/>
      <path id="DejaVuSans-5f" d="M 3263 -1063 
L 3263 -1509 
L -63 -1509 
L -63 -1063 
L 3263 -1063 
z
" transform="scale(0.015625)"/>
      <path id="DejaVuSans-74" d="M 1172 4494 
L 1172 3500 
L 2356 3500 
L 2356 3053 
L 1172 3053 
L 1172 1153 
Q 1172 725 1289 603 
Q 1406 481 1766 481 
L 2356 481 
L 2356 0 
L 1766 0 
Q 1100 0 847 248 
Q 594 497 594 1153 
L 594 3053 
L 172 3053 
L 172 3500 
L 594 3500 
L 594 4494 
L 1172 4494 
z
" transform="scale(0.015625)"/>
      <path id="DejaVuSans-2f" d="M 1625 4666 
L 2156 4666 
L 531 -594 
L 0 -594 
L 1625 4666 
z
" transform="scale(0.015625)"/>
     </defs>
     <use xlink:href="#DejaVuSans-54"/>
     <use xlink:href="#DejaVuSans-68" x="61.083984"/>
     <use xlink:href="#DejaVuSans-65" x="124.462891"/>
     <use xlink:href="#DejaVuSans-20" x="185.986328"/>
     <use xlink:href="#DejaVuSans-6c" x="217.773438"/>
     <use xlink:href="#DejaVuSans-6f" x="245.556641"/>
     <use xlink:href="#DejaVuSans-73" x="306.738281"/>
     <use xlink:href="#DejaVuSans-73" x="358.837891"/>
     <use xlink:href="#DejaVuSans-20" x="410.9375"/>
     <use xlink:href="#DejaVuSans-63" x="442.724609"/>
     <use xlink:href="#DejaVuSans-75" x="497.705078"/>
     <use xlink:href="#DejaVuSans-72" x="561.083984"/>
     <use xlink:href="#DejaVuSans-76" x="602.197266"/>
     <use xlink:href="#DejaVuSans-65" x="661.376953"/>
     <use xlink:href="#DejaVuSans-20" x="722.900391"/>
     <use xlink:href="#DejaVuSans-6f" x="754.6875"/>
     <use xlink:href="#DejaVuSans-6e" x="815.869141"/>
     <use xlink:href="#DejaVuSans-20" x="879.248047"/>
     <use xlink:href="#DejaVuSans-66" x="911.035156"/>
     <use xlink:href="#DejaVuSans-6c" x="946.240234"/>
     <use xlink:href="#DejaVuSans-61" x="974.023438"/>
     <use xlink:href="#DejaVuSans-67" x="1035.302734"/>
     <use xlink:href="#DejaVuSans-5f" x="1098.779297"/>
     <use xlink:href="#DejaVuSans-72" x="1148.779297"/>
     <use xlink:href="#DejaVuSans-65" x="1187.642578"/>
     <use xlink:href="#DejaVuSans-73" x="1249.166016"/>
     <use xlink:href="#DejaVuSans-6e" x="1301.265625"/>
     <use xlink:href="#DejaVuSans-65" x="1364.644531"/>
     <use xlink:href="#DejaVuSans-74" x="1426.167969"/>
     <use xlink:href="#DejaVuSans-2f" x="1465.376953"/>
     <use xlink:href="#DejaVuSans-68" x="1499.068359"/>
     <use xlink:href="#DejaVuSans-6f" x="1562.447266"/>
     <use xlink:href="#DejaVuSans-73" x="1623.628906"/>
     <use xlink:href="#DejaVuSans-74" x="1675.728516"/>
     <use xlink:href="#DejaVuSans-2f" x="1714.9375"/>
     <use xlink:href="#DejaVuSans-34" x="1748.628906"/>
    </g>
   </g>
   <g id="legend_1">
    <g id="patch_7">
     <path d="M 317.418438 94.34075 
L 407.72 94.34075 
Q 409.72 94.34075 409.72 92.34075 
L 409.72 48.472 
Q 409.72 46.472 407.72 46.472 
L 317.418438 46.472 
Q 315.418438 46.472 315.418438 48.472 
L 315.418438 92.34075 
Q 315.418438 94.34075 317.418438 94.34075 
z
" style="fill: #ffffff; opacity: 0.8; stroke: #cccccc; stroke-linejoin: miter"/>
    </g>
    <g id="line2d_15">
     <path d="M 319.418438 54.570438 
L 329.418438 54.570438 
L 339.418438 54.570438 
" style="fill: none; stroke: #0000ff; stroke-width: 1.5; stroke-linecap: square"/>
    </g>
    <g id="text_15">
     <!-- obj_loss -->
     <g transform="translate(347.418438 58.070438) scale(0.1 -0.1)">
      <defs>
       <path id="DejaVuSans-62" d="M 3116 1747 
Q 3116 2381 2855 2742 
Q 2594 3103 2138 3103 
Q 1681 3103 1420 2742 
Q 1159 2381 1159 1747 
Q 1159 1113 1420 752 
Q 1681 391 2138 391 
Q 2594 391 2855 752 
Q 3116 1113 3116 1747 
z
M 1159 2969 
Q 1341 3281 1617 3432 
Q 1894 3584 2278 3584 
Q 2916 3584 3314 3078 
Q 3713 2572 3713 1747 
Q 3713 922 3314 415 
Q 2916 -91 2278 -91 
Q 1894 -91 1617 61 
Q 1341 213 1159 525 
L 1159 0 
L 581 0 
L 581 4863 
L 1159 4863 
L 1159 2969 
z
" transform="scale(0.015625)"/>
       <path id="DejaVuSans-6a" d="M 603 3500 
L 1178 3500 
L 1178 -63 
Q 1178 -731 923 -1031 
Q 669 -1331 103 -1331 
L -116 -1331 
L -116 -844 
L 38 -844 
Q 366 -844 484 -692 
Q 603 -541 603 -63 
L 603 3500 
z
M 603 4863 
L 1178 4863 
L 1178 4134 
L 603 4134 
L 603 4863 
z
" transform="scale(0.015625)"/>
      </defs>
      <use xlink:href="#DejaVuSans-6f"/>
      <use xlink:href="#DejaVuSans-62" x="61.181641"/>
      <use xlink:href="#DejaVuSans-6a" x="124.658203"/>
      <use xlink:href="#DejaVuSans-5f" x="152.441406"/>
      <use xlink:href="#DejaVuSans-6c" x="202.441406"/>
      <use xlink:href="#DejaVuSans-6f" x="230.224609"/>
      <use xlink:href="#DejaVuSans-73" x="291.40625"/>
      <use xlink:href="#DejaVuSans-73" x="343.505859"/>
     </g>
    </g>
    <g id="line2d_16">
     <path d="M 319.418438 69.526688 
L 329.418438 69.526688 
L 339.418438 69.526688 
" style="fill: none; stroke: #008000; stroke-width: 1.5; stroke-linecap: square"/>
    </g>
    <g id="text_16">
     <!-- reg_loss -->
     <g transform="translate(347.418438 73.026688) scale(0.1 -0.1)">
      <use xlink:href="#DejaVuSans-72"/>
      <use xlink:href="#DejaVuSans-65" x="38.863281"/>
      <use xlink:href="#DejaVuSans-67" x="100.386719"/>
      <use xlink:href="#DejaVuSans-5f" x="163.863281"/>
      <use xlink:href="#DejaVuSans-6c" x="213.863281"/>
      <use xlink:href="#DejaVuSans-6f" x="241.646484"/>
      <use xlink:href="#DejaVuSans-73" x="302.828125"/>
      <use xlink:href="#DejaVuSans-73" x="354.927734"/>
     </g>
    </g>
    <g id="line2d_17">
     <path d="M 319.418438 84.482938 
L 329.418438 84.482938 
L 339.418438 84.482938 
" style="fill: none; stroke: #ff0000; stroke-width: 1.5; stroke-linecap: square"/>
    </g>
    <g id="text_17">
     <!-- overall_loss -->
     <g transform="translate(347.418438 87.982938) scale(0.1 -0.1)">
      <use xlink:href="#DejaVuSans-6f"/>
      <use xlink:href="#DejaVuSans-76" x="61.181641"/>
      <use xlink:href="#DejaVuSans-65" x="120.361328"/>
      <use xlink:href="#DejaVuSans-72" x="181.884766"/>
      <use xlink:href="#DejaVuSans-61" x="222.998047"/>
      <use xlink:href="#DejaVuSans-6c" x="284.277344"/>
      <use xlink:href="#DejaVuSans-6c" x="312.060547"/>
      <use xlink:href="#DejaVuSans-5f" x="339.84375"/>
      <use xlink:href="#DejaVuSans-6c" x="389.84375"/>
      <use xlink:href="#DejaVuSans-6f" x="417.626953"/>
      <use xlink:href="#DejaVuSans-73" x="478.808594"/>
      <use xlink:href="#DejaVuSans-73" x="530.908203"/>
     </g>
    </g>
   </g>
  </g>
 </g>
 <defs>
  <clipPath id="pac71cd2064">
   <rect x="57.6" y="41.472" width="357.12" height="266.112"/>
  </clipPath>
 </defs>
</svg>
