<?xml version="1.0" encoding="utf-8" standalone="no"?>
<!DOCTYPE svg PUBLIC "-//W3C//DTD SVG 1.1//EN"
  "http://www.w3.org/Graphics/SVG/1.1/DTD/svg11.dtd">
<svg xmlns:xlink="http://www.w3.org/1999/xlink" width="576pt" height="432pt" viewBox="0 0 576 432" xmlns="http://www.w3.org/2000/svg" version="1.1">
 <metadata>
  <rdf:RDF xmlns:dc="http://purl.org/dc/elements/1.1/" xmlns:cc="http://creativecommons.org/ns#" xmlns:rdf="http://www.w3.org/1999/02/22-rdf-syntax-ns#">
   <cc:Work>
    <dc:type rdf:resource="http://purl.org/dc/dcmitype/StillImage"/>
    <dc:date>2023-06-19T00:36:23.741236</dc:date>
    <dc:format>image/svg+xml</dc:format>
    <dc:creator>
     <cc:Agent>
      <dc:title>Matplotlib v3.7.1, https://matplotlib.org/</dc:title>
     </cc:Agent>
    </dc:creator>
   </cc:Work>
  </rdf:RDF>
 </metadata>
 <defs>
  <style type="text/css">*{stroke-linejoin: round; stroke-linecap: butt}</style>
 </defs>
 <g id="figure_1">
  <g id="patch_1">
   <path d="M 0 432 
L 576 432 
L 576 0 
L 0 0 
z
" style="fill: #ffffff"/>
  </g>
  <g id="axes_1">
   <g id="patch_2">
    <path d="M 72 384.48 
L 518.4 384.48 
L 518.4 51.84 
L 72 51.84 
z
" style="fill: #ffffff"/>
   </g>
   <g id="matplotlib.axis_1">
    <g id="xtick_1">
     <g id="line2d_1">
      <defs>
       <path id="mf28696fcc6" d="M 0 0 
L 0 3.5 
" style="stroke: #000000; stroke-width: 0.8"/>
      </defs>
      <g>
       <use xlink:href="#mf28696fcc6" x="92.290909" y="384.48" style="stroke: #000000; stroke-width: 0.8"/>
      </g>
     </g>
     <g id="text_1">
      <!-- 0 -->
      <g transform="translate(89.109659 399.078438) scale(0.1 -0.1)">
       <defs>
        <path id="DejaVuSans-30" d="M 2034 4250 
Q 1547 4250 1301 3770 
Q 1056 3291 1056 2328 
Q 1056 1369 1301 889 
Q 1547 409 2034 409 
Q 2525 409 2770 889 
Q 3016 1369 3016 2328 
Q 3016 3291 2770 3770 
Q 2525 4250 2034 4250 
z
M 2034 4750 
Q 2819 4750 3233 4129 
Q 3647 3509 3647 2328 
Q 3647 1150 3233 529 
Q 2819 -91 2034 -91 
Q 1250 -91 836 529 
Q 422 1150 422 2328 
Q 422 3509 836 4129 
Q 1250 4750 2034 4750 
z
" transform="scale(0.015625)"/>
       </defs>
       <use xlink:href="#DejaVuSans-30"/>
      </g>
     </g>
    </g>
    <g id="xtick_2">
     <g id="line2d_2">
      <g>
       <use xlink:href="#mf28696fcc6" x="173.617198" y="384.48" style="stroke: #000000; stroke-width: 0.8"/>
      </g>
     </g>
     <g id="text_2">
      <!-- 100 -->
      <g transform="translate(164.073448 399.078438) scale(0.1 -0.1)">
       <defs>
        <path id="DejaVuSans-31" d="M 794 531 
L 1825 531 
L 1825 4091 
L 703 3866 
L 703 4441 
L 1819 4666 
L 2450 4666 
L 2450 531 
L 3481 531 
L 3481 0 
L 794 0 
L 794 531 
z
" transform="scale(0.015625)"/>
       </defs>
       <use xlink:href="#DejaVuSans-31"/>
       <use xlink:href="#DejaVuSans-30" x="63.623047"/>
       <use xlink:href="#DejaVuSans-30" x="127.246094"/>
      </g>
     </g>
    </g>
    <g id="xtick_3">
     <g id="line2d_3">
      <g>
       <use xlink:href="#mf28696fcc6" x="254.943487" y="384.48" style="stroke: #000000; stroke-width: 0.8"/>
      </g>
     </g>
     <g id="text_3">
      <!-- 200 -->
      <g transform="translate(245.399737 399.078438) scale(0.1 -0.1)">
       <defs>
        <path id="DejaVuSans-32" d="M 1228 531 
L 3431 531 
L 3431 0 
L 469 0 
L 469 531 
Q 828 903 1448 1529 
Q 2069 2156 2228 2338 
Q 2531 2678 2651 2914 
Q 2772 3150 2772 3378 
Q 2772 3750 2511 3984 
Q 2250 4219 1831 4219 
Q 1534 4219 1204 4116 
Q 875 4013 500 3803 
L 500 4441 
Q 881 4594 1212 4672 
Q 1544 4750 1819 4750 
Q 2544 4750 2975 4387 
Q 3406 4025 3406 3419 
Q 3406 3131 3298 2873 
Q 3191 2616 2906 2266 
Q 2828 2175 2409 1742 
Q 1991 1309 1228 531 
z
" transform="scale(0.015625)"/>
       </defs>
       <use xlink:href="#DejaVuSans-32"/>
       <use xlink:href="#DejaVuSans-30" x="63.623047"/>
       <use xlink:href="#DejaVuSans-30" x="127.246094"/>
      </g>
     </g>
    </g>
    <g id="xtick_4">
     <g id="line2d_4">
      <g>
       <use xlink:href="#mf28696fcc6" x="336.269776" y="384.48" style="stroke: #000000; stroke-width: 0.8"/>
      </g>
     </g>
     <g id="text_4">
      <!-- 300 -->
      <g transform="translate(326.726026 399.078438) scale(0.1 -0.1)">
       <defs>
        <path id="DejaVuSans-33" d="M 2597 2516 
Q 3050 2419 3304 2112 
Q 3559 1806 3559 1356 
Q 3559 666 3084 287 
Q 2609 -91 1734 -91 
Q 1441 -91 1130 -33 
Q 819 25 488 141 
L 488 750 
Q 750 597 1062 519 
Q 1375 441 1716 441 
Q 2309 441 2620 675 
Q 2931 909 2931 1356 
Q 2931 1769 2642 2001 
Q 2353 2234 1838 2234 
L 1294 2234 
L 1294 2753 
L 1863 2753 
Q 2328 2753 2575 2939 
Q 2822 3125 2822 3475 
Q 2822 3834 2567 4026 
Q 2313 4219 1838 4219 
Q 1578 4219 1281 4162 
Q 984 4106 628 3988 
L 628 4550 
Q 988 4650 1302 4700 
Q 1616 4750 1894 4750 
Q 2613 4750 3031 4423 
Q 3450 4097 3450 3541 
Q 3450 3153 3228 2886 
Q 3006 2619 2597 2516 
z
" transform="scale(0.015625)"/>
       </defs>
       <use xlink:href="#DejaVuSans-33"/>
       <use xlink:href="#DejaVuSans-30" x="63.623047"/>
       <use xlink:href="#DejaVuSans-30" x="127.246094"/>
      </g>
     </g>
    </g>
    <g id="xtick_5">
     <g id="line2d_5">
      <g>
       <use xlink:href="#mf28696fcc6" x="417.596065" y="384.48" style="stroke: #000000; stroke-width: 0.8"/>
      </g>
     </g>
     <g id="text_5">
      <!-- 400 -->
      <g transform="translate(408.052315 399.078438) scale(0.1 -0.1)">
       <defs>
        <path id="DejaVuSans-34" d="M 2419 4116 
L 825 1625 
L 2419 1625 
L 2419 4116 
z
M 2253 4666 
L 3047 4666 
L 3047 1625 
L 3713 1625 
L 3713 1100 
L 3047 1100 
L 3047 0 
L 2419 0 
L 2419 1100 
L 313 1100 
L 313 1709 
L 2253 4666 
z
" transform="scale(0.015625)"/>
       </defs>
       <use xlink:href="#DejaVuSans-34"/>
       <use xlink:href="#DejaVuSans-30" x="63.623047"/>
       <use xlink:href="#DejaVuSans-30" x="127.246094"/>
      </g>
     </g>
    </g>
    <g id="xtick_6">
     <g id="line2d_6">
      <g>
       <use xlink:href="#mf28696fcc6" x="498.922354" y="384.48" style="stroke: #000000; stroke-width: 0.8"/>
      </g>
     </g>
     <g id="text_6">
      <!-- 500 -->
      <g transform="translate(489.378604 399.078438) scale(0.1 -0.1)">
       <defs>
        <path id="DejaVuSans-35" d="M 691 4666 
L 3169 4666 
L 3169 4134 
L 1269 4134 
L 1269 2991 
Q 1406 3038 1543 3061 
Q 1681 3084 1819 3084 
Q 2600 3084 3056 2656 
Q 3513 2228 3513 1497 
Q 3513 744 3044 326 
Q 2575 -91 1722 -91 
Q 1428 -91 1123 -41 
Q 819 9 494 109 
L 494 744 
Q 775 591 1075 516 
Q 1375 441 1709 441 
Q 2250 441 2565 725 
Q 2881 1009 2881 1497 
Q 2881 1984 2565 2268 
Q 2250 2553 1709 2553 
Q 1456 2553 1204 2497 
Q 953 2441 691 2322 
L 691 4666 
z
" transform="scale(0.015625)"/>
       </defs>
       <use xlink:href="#DejaVuSans-35"/>
       <use xlink:href="#DejaVuSans-30" x="63.623047"/>
       <use xlink:href="#DejaVuSans-30" x="127.246094"/>
      </g>
     </g>
    </g>
    <g id="text_7">
     <!-- epoch -->
     <g transform="translate(279.971875 412.756563) scale(0.1 -0.1)">
      <defs>
       <path id="DejaVuSans-65" d="M 3597 1894 
L 3597 1613 
L 953 1613 
Q 991 1019 1311 708 
Q 1631 397 2203 397 
Q 2534 397 2845 478 
Q 3156 559 3463 722 
L 3463 178 
Q 3153 47 2828 -22 
Q 2503 -91 2169 -91 
Q 1331 -91 842 396 
Q 353 884 353 1716 
Q 353 2575 817 3079 
Q 1281 3584 2069 3584 
Q 2775 3584 3186 3129 
Q 3597 2675 3597 1894 
z
M 3022 2063 
Q 3016 2534 2758 2815 
Q 2500 3097 2075 3097 
Q 1594 3097 1305 2825 
Q 1016 2553 972 2059 
L 3022 2063 
z
" transform="scale(0.015625)"/>
       <path id="DejaVuSans-70" d="M 1159 525 
L 1159 -1331 
L 581 -1331 
L 581 3500 
L 1159 3500 
L 1159 2969 
Q 1341 3281 1617 3432 
Q 1894 3584 2278 3584 
Q 2916 3584 3314 3078 
Q 3713 2572 3713 1747 
Q 3713 922 3314 415 
Q 2916 -91 2278 -91 
Q 1894 -91 1617 61 
Q 1341 213 1159 525 
z
M 3116 1747 
Q 3116 2381 2855 2742 
Q 2594 3103 2138 3103 
Q 1681 3103 1420 2742 
Q 1159 2381 1159 1747 
Q 1159 1113 1420 752 
Q 1681 391 2138 391 
Q 2594 391 2855 752 
Q 3116 1113 3116 1747 
z
" transform="scale(0.015625)"/>
       <path id="DejaVuSans-6f" d="M 1959 3097 
Q 1497 3097 1228 2736 
Q 959 2375 959 1747 
Q 959 1119 1226 758 
Q 1494 397 1959 397 
Q 2419 397 2687 759 
Q 2956 1122 2956 1747 
Q 2956 2369 2687 2733 
Q 2419 3097 1959 3097 
z
M 1959 3584 
Q 2709 3584 3137 3096 
Q 3566 2609 3566 1747 
Q 3566 888 3137 398 
Q 2709 -91 1959 -91 
Q 1206 -91 779 398 
Q 353 888 353 1747 
Q 353 2609 779 3096 
Q 1206 3584 1959 3584 
z
" transform="scale(0.015625)"/>
       <path id="DejaVuSans-63" d="M 3122 3366 
L 3122 2828 
Q 2878 2963 2633 3030 
Q 2388 3097 2138 3097 
Q 1578 3097 1268 2742 
Q 959 2388 959 1747 
Q 959 1106 1268 751 
Q 1578 397 2138 397 
Q 2388 397 2633 464 
Q 2878 531 3122 666 
L 3122 134 
Q 2881 22 2623 -34 
Q 2366 -91 2075 -91 
Q 1284 -91 818 406 
Q 353 903 353 1747 
Q 353 2603 823 3093 
Q 1294 3584 2113 3584 
Q 2378 3584 2631 3529 
Q 2884 3475 3122 3366 
z
" transform="scale(0.015625)"/>
       <path id="DejaVuSans-68" d="M 3513 2113 
L 3513 0 
L 2938 0 
L 2938 2094 
Q 2938 2591 2744 2837 
Q 2550 3084 2163 3084 
Q 1697 3084 1428 2787 
Q 1159 2491 1159 1978 
L 1159 0 
L 581 0 
L 581 4863 
L 1159 4863 
L 1159 2956 
Q 1366 3272 1645 3428 
Q 1925 3584 2291 3584 
Q 2894 3584 3203 3211 
Q 3513 2838 3513 2113 
z
" transform="scale(0.015625)"/>
      </defs>
      <use xlink:href="#DejaVuSans-65"/>
      <use xlink:href="#DejaVuSans-70" x="61.523438"/>
      <use xlink:href="#DejaVuSans-6f" x="125"/>
      <use xlink:href="#DejaVuSans-63" x="186.181641"/>
      <use xlink:href="#DejaVuSans-68" x="241.162109"/>
     </g>
    </g>
   </g>
   <g id="matplotlib.axis_2">
    <g id="ytick_1">
     <g id="line2d_7">
      <defs>
       <path id="me39fc4069e" d="M 0 0 
L -3.5 0 
" style="stroke: #000000; stroke-width: 0.8"/>
      </defs>
      <g>
       <use xlink:href="#me39fc4069e" x="72" y="384.48" style="stroke: #000000; stroke-width: 0.8"/>
      </g>
     </g>
     <g id="text_8">
      <!-- 0.0 -->
      <g transform="translate(49.096875 388.279219) scale(0.1 -0.1)">
       <defs>
        <path id="DejaVuSans-2e" d="M 684 794 
L 1344 794 
L 1344 0 
L 684 0 
L 684 794 
z
" transform="scale(0.015625)"/>
       </defs>
       <use xlink:href="#DejaVuSans-30"/>
       <use xlink:href="#DejaVuSans-2e" x="63.623047"/>
       <use xlink:href="#DejaVuSans-30" x="95.410156"/>
      </g>
     </g>
    </g>
    <g id="ytick_2">
     <g id="line2d_8">
      <g>
       <use xlink:href="#me39fc4069e" x="72" y="317.952" style="stroke: #000000; stroke-width: 0.8"/>
      </g>
     </g>
     <g id="text_9">
      <!-- 0.2 -->
      <g transform="translate(49.096875 321.751219) scale(0.1 -0.1)">
       <use xlink:href="#DejaVuSans-30"/>
       <use xlink:href="#DejaVuSans-2e" x="63.623047"/>
       <use xlink:href="#DejaVuSans-32" x="95.410156"/>
      </g>
     </g>
    </g>
    <g id="ytick_3">
     <g id="line2d_9">
      <g>
       <use xlink:href="#me39fc4069e" x="72" y="251.424" style="stroke: #000000; stroke-width: 0.8"/>
      </g>
     </g>
     <g id="text_10">
      <!-- 0.4 -->
      <g transform="translate(49.096875 255.223219) scale(0.1 -0.1)">
       <use xlink:href="#DejaVuSans-30"/>
       <use xlink:href="#DejaVuSans-2e" x="63.623047"/>
       <use xlink:href="#DejaVuSans-34" x="95.410156"/>
      </g>
     </g>
    </g>
    <g id="ytick_4">
     <g id="line2d_10">
      <g>
       <use xlink:href="#me39fc4069e" x="72" y="184.896" style="stroke: #000000; stroke-width: 0.8"/>
      </g>
     </g>
     <g id="text_11">
      <!-- 0.6 -->
      <g transform="translate(49.096875 188.695219) scale(0.1 -0.1)">
       <defs>
        <path id="DejaVuSans-36" d="M 2113 2584 
Q 1688 2584 1439 2293 
Q 1191 2003 1191 1497 
Q 1191 994 1439 701 
Q 1688 409 2113 409 
Q 2538 409 2786 701 
Q 3034 994 3034 1497 
Q 3034 2003 2786 2293 
Q 2538 2584 2113 2584 
z
M 3366 4563 
L 3366 3988 
Q 3128 4100 2886 4159 
Q 2644 4219 2406 4219 
Q 1781 4219 1451 3797 
Q 1122 3375 1075 2522 
Q 1259 2794 1537 2939 
Q 1816 3084 2150 3084 
Q 2853 3084 3261 2657 
Q 3669 2231 3669 1497 
Q 3669 778 3244 343 
Q 2819 -91 2113 -91 
Q 1303 -91 875 529 
Q 447 1150 447 2328 
Q 447 3434 972 4092 
Q 1497 4750 2381 4750 
Q 2619 4750 2861 4703 
Q 3103 4656 3366 4563 
z
" transform="scale(0.015625)"/>
       </defs>
       <use xlink:href="#DejaVuSans-30"/>
       <use xlink:href="#DejaVuSans-2e" x="63.623047"/>
       <use xlink:href="#DejaVuSans-36" x="95.410156"/>
      </g>
     </g>
    </g>
    <g id="ytick_5">
     <g id="line2d_11">
      <g>
       <use xlink:href="#me39fc4069e" x="72" y="118.368" style="stroke: #000000; stroke-width: 0.8"/>
      </g>
     </g>
     <g id="text_12">
      <!-- 0.8 -->
      <g transform="translate(49.096875 122.167219) scale(0.1 -0.1)">
       <defs>
        <path id="DejaVuSans-38" d="M 2034 2216 
Q 1584 2216 1326 1975 
Q 1069 1734 1069 1313 
Q 1069 891 1326 650 
Q 1584 409 2034 409 
Q 2484 409 2743 651 
Q 3003 894 3003 1313 
Q 3003 1734 2745 1975 
Q 2488 2216 2034 2216 
z
M 1403 2484 
Q 997 2584 770 2862 
Q 544 3141 544 3541 
Q 544 4100 942 4425 
Q 1341 4750 2034 4750 
Q 2731 4750 3128 4425 
Q 3525 4100 3525 3541 
Q 3525 3141 3298 2862 
Q 3072 2584 2669 2484 
Q 3125 2378 3379 2068 
Q 3634 1759 3634 1313 
Q 3634 634 3220 271 
Q 2806 -91 2034 -91 
Q 1263 -91 848 271 
Q 434 634 434 1313 
Q 434 1759 690 2068 
Q 947 2378 1403 2484 
z
M 1172 3481 
Q 1172 3119 1398 2916 
Q 1625 2713 2034 2713 
Q 2441 2713 2670 2916 
Q 2900 3119 2900 3481 
Q 2900 3844 2670 4047 
Q 2441 4250 2034 4250 
Q 1625 4250 1398 4047 
Q 1172 3844 1172 3481 
z
" transform="scale(0.015625)"/>
       </defs>
       <use xlink:href="#DejaVuSans-30"/>
       <use xlink:href="#DejaVuSans-2e" x="63.623047"/>
       <use xlink:href="#DejaVuSans-38" x="95.410156"/>
      </g>
     </g>
    </g>
    <g id="ytick_6">
     <g id="line2d_12">
      <g>
       <use xlink:href="#me39fc4069e" x="72" y="51.84" style="stroke: #000000; stroke-width: 0.8"/>
      </g>
     </g>
     <g id="text_13">
      <!-- 1.0 -->
      <g transform="translate(49.096875 55.639219) scale(0.1 -0.1)">
       <use xlink:href="#DejaVuSans-31"/>
       <use xlink:href="#DejaVuSans-2e" x="63.623047"/>
       <use xlink:href="#DejaVuSans-30" x="95.410156"/>
      </g>
     </g>
    </g>
    <g id="text_14">
     <!-- rate -->
     <g transform="translate(43.017187 228.31625) rotate(-90) scale(0.1 -0.1)">
      <defs>
       <path id="DejaVuSans-72" d="M 2631 2963 
Q 2534 3019 2420 3045 
Q 2306 3072 2169 3072 
Q 1681 3072 1420 2755 
Q 1159 2438 1159 1844 
L 1159 0 
L 581 0 
L 581 3500 
L 1159 3500 
L 1159 2956 
Q 1341 3275 1631 3429 
Q 1922 3584 2338 3584 
Q 2397 3584 2469 3576 
Q 2541 3569 2628 3553 
L 2631 2963 
z
" transform="scale(0.015625)"/>
       <path id="DejaVuSans-61" d="M 2194 1759 
Q 1497 1759 1228 1600 
Q 959 1441 959 1056 
Q 959 750 1161 570 
Q 1363 391 1709 391 
Q 2188 391 2477 730 
Q 2766 1069 2766 1631 
L 2766 1759 
L 2194 1759 
z
M 3341 1997 
L 3341 0 
L 2766 0 
L 2766 531 
Q 2569 213 2275 61 
Q 1981 -91 1556 -91 
Q 1019 -91 701 211 
Q 384 513 384 1019 
Q 384 1609 779 1909 
Q 1175 2209 1959 2209 
L 2766 2209 
L 2766 2266 
Q 2766 2663 2505 2880 
Q 2244 3097 1772 3097 
Q 1472 3097 1187 3025 
Q 903 2953 641 2809 
L 641 3341 
Q 956 3463 1253 3523 
Q 1550 3584 1831 3584 
Q 2591 3584 2966 3190 
Q 3341 2797 3341 1997 
z
" transform="scale(0.015625)"/>
       <path id="DejaVuSans-74" d="M 1172 4494 
L 1172 3500 
L 2356 3500 
L 2356 3053 
L 1172 3053 
L 1172 1153 
Q 1172 725 1289 603 
Q 1406 481 1766 481 
L 2356 481 
L 2356 0 
L 1766 0 
Q 1100 0 847 248 
Q 594 497 594 1153 
L 594 3053 
L 172 3053 
L 172 3500 
L 594 3500 
L 594 4494 
L 1172 4494 
z
" transform="scale(0.015625)"/>
      </defs>
      <use xlink:href="#DejaVuSans-72"/>
      <use xlink:href="#DejaVuSans-61" x="41.113281"/>
      <use xlink:href="#DejaVuSans-74" x="102.392578"/>
      <use xlink:href="#DejaVuSans-65" x="141.601562"/>
     </g>
    </g>
   </g>
   <g id="line2d_13">
    <path d="M 92.290909 346.730017 
L 93.104172 333.946662 
L 94.730698 313.427098 
L 95.543961 308.574213 
L 96.357224 337.113727 
L 97.170486 327.596564 
L 97.983749 321.430084 
L 98.797012 314.003563 
L 99.610275 310.399741 
L 100.423538 332.03631 
L 102.050064 310.100365 
L 102.863327 309.213547 
L 103.67659 298.075097 
L 104.489852 319.579608 
L 105.303115 310.905354 
L 106.116378 306.471928 
L 106.929641 303.407981 
L 107.742904 292.325747 
L 108.556167 316.931793 
L 109.36943 307.517748 
L 110.995956 299.51942 
L 111.809218 291.976808 
L 112.622481 311.463857 
L 113.435744 303.485819 
L 114.249007 293.855226 
L 115.06227 292.513356 
L 115.875533 293.82429 
L 116.688796 309.393838 
L 117.502059 295.897303 
L 118.315322 299.161499 
L 119.128584 295.783872 
L 119.941847 287.403673 
L 120.75511 305.677584 
L 121.568373 292.360674 
L 122.381636 291.911943 
L 123.194899 287.879016 
L 124.008162 286.486252 
L 124.821425 299.114597 
L 125.634688 293.745787 
L 126.44795 279.578317 
L 127.261213 285.446419 
L 128.074476 279.800853 
L 128.887739 300.72025 
L 129.701002 292.291152 
L 130.514265 280.878939 
L 131.327528 276.960108 
L 132.140791 268.35338 
L 132.954054 295.422625 
L 133.767316 288.227955 
L 134.580579 279.289253 
L 135.393842 273.774747 
L 136.207105 273.20693 
L 137.020368 295.313852 
L 137.833631 286.831532 
L 139.460157 272.829384 
L 140.27342 276.055659 
L 141.086682 288.966748 
L 141.899945 279.828462 
L 142.713208 272.173751 
L 144.339734 271.481859 
L 145.152997 290.665208 
L 145.96626 283.349124 
L 146.779523 274.860484 
L 147.592786 274.365516 
L 148.406048 271.260986 
L 149.219311 285.434444 
L 150.032574 280.235946 
L 150.845837 264.967105 
L 151.6591 267.227394 
L 152.472363 265.511969 
L 153.285626 278.155616 
L 154.098889 271.6545 
L 154.912152 266.325274 
L 155.725414 267.932923 
L 156.538677 259.118296 
L 157.35194 285.068873 
L 158.165203 274.092751 
L 158.978466 273.219238 
L 159.791729 269.536248 
L 160.604992 258.976924 
L 161.418255 277.790044 
L 162.231518 271.327514 
L 163.04478 261.641703 
L 163.858043 266.693839 
L 164.671306 258.005615 
L 165.484569 280.663056 
L 167.111095 266.384817 
L 167.924358 255.063747 
L 169.550884 271.43662 
L 170.364146 264.167771 
L 171.177409 262.250101 
L 171.990672 263.874715 
L 172.803935 256.689026 
L 173.617198 276.862977 
L 174.430461 264.852344 
L 175.243724 261.814676 
L 176.056987 263.692096 
L 176.87025 264.408602 
L 177.683512 266.97492 
L 178.496775 271.557701 
L 179.310038 265.057583 
L 180.123301 265.605108 
L 180.936564 262.911057 
L 181.749827 270.641611 
L 182.56309 272.231963 
L 183.376353 265.360285 
L 184.189616 265.235213 
L 185.002878 262.393137 
L 185.816141 268.583567 
L 186.629404 259.475884 
L 187.442667 269.038286 
L 188.25593 261.686942 
L 189.069193 262.061495 
L 189.882456 264.201368 
L 190.695719 263.791223 
L 191.508982 259.867401 
L 192.322244 268.867642 
L 193.135507 260.161122 
L 194.762033 267.249348 
L 195.575296 265.158706 
L 196.388559 266.068476 
L 197.201822 258.74208 
L 198.015085 270.590717 
L 198.828348 266.803278 
L 199.64161 269.840281 
L 200.454873 262.479956 
L 201.268136 263.783572 
L 202.081399 263.670142 
L 202.894662 265.968684 
L 203.707925 264.525026 
L 204.521188 265.95804 
L 205.334451 261.828647 
L 206.147714 266.537498 
L 206.960976 265.495005 
L 207.774239 264.789808 
L 208.587502 262.633303 
L 209.400765 259.008192 
L 210.214028 272.511048 
L 211.027291 258.957631 
L 211.840554 262.085112 
L 212.653817 267.617913 
L 213.46708 254.915057 
L 214.280343 259.963867 
L 215.093605 268.158453 
L 215.906868 261.105487 
L 216.720131 267.876042 
L 217.533394 259.883035 
L 218.346657 264.892261 
L 219.15992 264.505733 
L 219.973183 260.122536 
L 220.786446 263.018832 
L 221.599709 259.404699 
L 222.412971 261.804364 
L 223.226234 267.132591 
L 224.039497 265.700909 
L 224.85276 267.017831 
L 225.666023 262.072139 
L 226.479286 255.481543 
L 227.292549 266.962945 
L 228.105812 257.369607 
L 228.919075 261.280123 
L 229.732337 255.171522 
L 230.5456 260.396964 
L 231.358863 260.482785 
L 232.172126 263.939247 
L 232.985389 255.898341 
L 233.798652 263.929933 
L 234.611915 261.34898 
L 235.425178 263.272637 
L 236.238441 262.277378 
L 237.051703 259.839127 
L 237.864966 259.806861 
L 238.678229 266.991552 
L 239.491492 266.315295 
L 240.304755 261.33767 
L 241.118018 270.13999 
L 241.931281 259.249023 
L 242.744544 266.119037 
L 243.557807 258.716134 
L 244.371069 263.331847 
L 245.184332 259.441955 
L 245.997595 259.085364 
L 246.810858 261.978667 
L 247.624121 264.00012 
L 248.437384 262.914716 
L 249.250647 258.892766 
L 250.06391 261.116132 
L 250.877173 267.41467 
L 251.690435 262.938334 
L 252.503698 262.393137 
L 253.316961 250.6403 
L 254.130224 255.350815 
L 254.943487 253.628738 
L 255.75675 265.959703 
L 256.570013 267.130928 
L 257.383276 252.90325 
L 258.196539 261.002036 
L 259.009801 259.777588 
L 259.823064 257.01967 
L 260.636327 262.185237 
L 261.44959 256.848693 
L 262.262853 258.843203 
L 263.076116 260.070977 
L 263.889379 263.160537 
L 264.702642 263.868062 
L 265.515905 259.352142 
L 266.329167 266.064484 
L 267.14243 258.000625 
L 267.955693 259.950561 
L 268.768956 252.470153 
L 270.395482 262.68087 
L 271.208745 263.832803 
L 272.022008 260.297505 
L 272.835271 261.917461 
L 273.648533 262.681536 
L 274.461796 250.560799 
L 275.275059 264.552303 
L 276.088322 252.316473 
L 276.901585 259.850436 
L 277.714848 260.519043 
L 278.528111 252.654768 
L 279.341374 256.773849 
L 280.154637 268.485771 
L 280.967899 256.671063 
L 281.781162 256.851354 
L 282.594425 253.797054 
L 283.407688 265.782406 
L 284.220951 259.3884 
L 285.034214 256.832726 
L 285.847477 265.897832 
L 286.66074 258.121706 
L 287.474003 264.06931 
L 288.287265 267.566354 
L 289.100528 259.822827 
L 289.913791 265.344319 
L 290.727054 255.458591 
L 291.540317 259.908981 
L 292.35358 261.511973 
L 293.980106 262.373844 
L 294.793369 257.388235 
L 295.606631 262.232804 
L 296.419894 251.794561 
L 297.233157 249.683628 
L 298.04642 255.791563 
L 298.859683 263.359788 
L 299.672946 266.674546 
L 300.486209 255.047115 
L 301.299472 259.530104 
L 302.112735 259.881372 
L 302.925997 252.122211 
L 303.73926 267.553381 
L 304.552523 264.899246 
L 305.365786 267.306895 
L 306.992312 259.195136 
L 307.805575 265.172011 
L 308.618838 268.315792 
L 309.432101 259.755967 
L 310.245363 260.554968 
L 311.058626 256.239629 
L 311.871889 270.383815 
L 312.685152 262.819914 
L 313.498415 261.918792 
L 314.311678 267.400367 
L 315.124941 263.271972 
L 315.938204 265.887187 
L 316.751467 262.221494 
L 317.564729 259.878378 
L 318.377992 259.738669 
L 319.191255 257.577507 
L 320.004518 264.857334 
L 320.817781 267.146562 
L 321.631044 257.636385 
L 322.444307 259.806528 
L 323.25757 264.803446 
L 324.070833 261.154718 
L 324.884095 263.74931 
L 325.697358 257.223246 
L 326.510621 263.377086 
L 327.323884 263.342824 
L 328.137147 268.549305 
L 328.95041 258.978587 
L 329.763673 256.2536 
L 330.576936 263.122949 
L 331.390199 265.200286 
L 332.203461 263.50116 
L 333.016724 271.124937 
L 333.829987 264.280203 
L 334.64325 266.348226 
L 335.456513 262.281702 
L 336.269776 265.461075 
L 337.083039 263.657834 
L 337.896302 260.321455 
L 338.709565 265.564194 
L 339.522827 267.150554 
L 340.33609 257.250522 
L 341.149353 256.773516 
L 341.962616 265.712884 
L 342.775879 253.229903 
L 344.402405 263.687772 
L 345.215668 259.646861 
L 346.028931 261.307732 
L 346.842193 268.852008 
L 347.655456 259.552724 
L 348.468719 262.639623 
L 349.281982 262.09742 
L 350.095245 259.897006 
L 350.908508 263.551722 
L 351.721771 257.333017 
L 352.535034 257.444784 
L 354.161559 260.687691 
L 354.974822 260.933845 
L 355.788085 270.506559 
L 356.601348 265.013675 
L 357.414611 261.082202 
L 358.227874 255.407031 
L 359.041137 264.71696 
L 359.8544 264.303156 
L 360.667663 263.335838 
L 361.480925 261.222909 
L 362.294188 259.494179 
L 363.107451 258.353556 
L 363.920714 263.115298 
L 365.54724 258.812267 
L 366.360503 259.196799 
L 367.173766 258.791311 
L 367.987029 267.782237 
L 368.800291 259.788233 
L 369.613554 262.299997 
L 370.426817 262.951307 
L 371.24008 259.813181 
L 372.053343 263.93958 
L 372.866606 260.913221 
L 373.679869 263.512803 
L 374.493132 255.491855 
L 375.306395 260.069979 
L 376.119657 256.68204 
L 376.93292 256.656427 
L 377.746183 252.601213 
L 378.559446 256.135513 
L 379.372709 261.029978 
L 380.185972 261.664655 
L 380.999235 262.632305 
L 381.812498 269.64236 
L 382.625761 260.840373 
L 383.439024 263.582657 
L 385.065549 255.92096 
L 385.878812 258.207195 
L 386.692075 262.088771 
L 387.505338 259.948898 
L 388.318601 266.307644 
L 389.131864 264.679704 
L 389.945127 265.969349 
L 390.75839 264.253925 
L 391.571652 265.371263 
L 392.384915 259.081373 
L 393.198178 268.283193 
L 394.011441 262.925361 
L 394.824704 259.093015 
L 395.637967 254.651606 
L 396.45123 260.714968 
L 397.264493 262.262409 
L 398.077756 258.316301 
L 398.891018 261.346984 
L 399.704281 254.777344 
L 400.517544 269.188639 
L 401.330807 258.382829 
L 402.14407 259.007859 
L 402.957333 261.843948 
L 403.770596 258.456675 
L 404.583859 263.104321 
L 405.397122 260.165447 
L 406.210384 264.009767 
L 407.023647 259.179834 
L 407.83691 260.615841 
L 408.650173 256.295845 
L 409.463436 259.431643 
L 410.276699 261.458086 
L 411.089962 262.46532 
L 411.903225 265.165026 
L 412.716488 259.311892 
L 413.52975 260.212681 
L 414.343013 258.948317 
L 415.156276 261.726193 
L 415.969539 256.946489 
L 416.782802 258.503577 
L 417.596065 253.556555 
L 418.409328 265.211595 
L 419.222591 259.114969 
L 420.849116 270.265395 
L 421.662379 260.693346 
L 422.475642 262.552139 
L 423.288905 265.331678 
L 424.102168 260.530353 
L 424.915431 267.148225 
L 425.728694 259.042454 
L 426.541957 262.258085 
L 427.35522 261.376589 
L 428.168482 263.108645 
L 428.981745 262.051515 
L 429.795008 256.839047 
L 430.608271 253.755141 
L 431.421534 261.223574 
L 432.234797 261.447774 
L 433.04806 263.873052 
L 433.861323 268.951134 
L 434.674586 261.799707 
L 435.487848 261.127441 
L 436.301111 259.970187 
L 437.114374 262.576754 
L 437.927637 263.186816 
L 438.7409 259.504158 
L 439.554163 259.146238 
L 440.367426 260.20869 
L 441.180689 265.269807 
L 441.993952 264.913883 
L 442.807214 262.551473 
L 443.620477 263.553385 
L 444.43374 260.37002 
L 445.247003 262.178251 
L 446.060266 260.39896 
L 446.873529 253.549237 
L 447.686792 261.720539 
L 448.500055 257.577507 
L 449.313318 261.704572 
L 450.12658 263.495173 
L 450.939843 254.623997 
L 451.753106 258.786986 
L 452.566369 266.388808 
L 453.379632 259.31289 
L 454.192895 265.913798 
L 455.006158 268.774502 
L 455.819421 267.966852 
L 456.632684 261.250518 
L 457.445946 257.209275 
L 458.259209 266.444692 
L 459.072472 262.425403 
L 459.885735 266.634297 
L 460.698998 259.464241 
L 461.512261 258.794304 
L 462.325524 264.268561 
L 463.138787 252.929529 
L 463.95205 258.65393 
L 464.765312 261.845944 
L 465.578575 267.256001 
L 466.391838 260.656756 
L 467.205101 264.962115 
L 468.018364 259.058088 
L 468.831627 262.029228 
L 469.64489 259.084034 
L 470.458153 259.563368 
L 471.271416 258.762038 
L 472.084678 255.330524 
L 472.897941 258.464326 
L 473.711204 256.331771 
L 474.524467 254.847531 
L 475.33773 263.288271 
L 476.150993 256.117218 
L 476.964256 260.645446 
L 477.777519 269.585811 
L 478.590782 260.3637 
L 479.404044 257.759129 
L 480.217307 265.319703 
L 481.03057 264.205027 
L 481.843833 263.546732 
L 482.657096 256.314473 
L 483.470359 265.362947 
L 484.283622 260.190062 
L 485.096885 265.812676 
L 485.910148 259.65052 
L 486.72341 260.869978 
L 487.536673 255.833808 
L 488.349936 258.861165 
L 489.163199 261.425487 
L 489.976462 257.228568 
L 490.789725 257.275803 
L 492.416251 265.06723 
L 493.229514 262.018917 
L 494.042776 255.133601 
L 494.856039 266.983236 
L 495.669302 260.644448 
L 496.482565 257.609441 
L 497.295828 260.215675 
L 498.109091 254.970275 
L 498.109091 254.970275 
" clip-path="url(#pd68ecd588a)" style="fill: none; stroke: #0000ff; stroke-width: 1.5; stroke-linecap: square"/>
   </g>
   <g id="line2d_14">
    <path d="M 92.290909 331.432901 
L 93.104172 323.013783 
L 95.543961 310.052133 
L 96.357224 322.182516 
L 97.170486 315.981773 
L 98.797012 306.168893 
L 99.610275 304.342034 
L 100.423538 313.76373 
L 101.236801 308.141781 
L 102.863327 302.490228 
L 103.67659 300.952433 
L 104.489852 303.32848 
L 106.116378 296.965077 
L 106.929641 294.694809 
L 107.742904 293.337638 
L 108.556167 301.231185 
L 109.36943 296.25988 
L 110.182693 292.900882 
L 110.995956 291.569656 
L 111.809218 288.937143 
L 112.622481 295.448239 
L 113.435744 292.233606 
L 114.249007 290.260718 
L 115.875533 284.361015 
L 116.688796 290.278348 
L 117.502059 291.054397 
L 118.315322 286.751699 
L 119.128584 284.014404 
L 119.941847 283.1369 
L 120.75511 287.065378 
L 121.568373 284.686669 
L 123.194899 282.064468 
L 124.008162 279.972495 
L 124.821425 281.52792 
L 128.074476 272.994373 
L 128.887739 279.050085 
L 129.701002 277.706884 
L 131.327528 275.589298 
L 132.140791 276.114204 
L 132.954054 275.959194 
L 133.767316 277.046261 
L 135.393842 273.453084 
L 136.207105 272.749218 
L 137.020368 273.953042 
L 137.833631 273.745142 
L 138.646894 272.508719 
L 139.460157 271.742982 
L 140.27342 268.671051 
L 141.086682 273.22955 
L 141.899945 270.123358 
L 142.713208 269.751799 
L 143.526471 270.655914 
L 144.339734 269.364938 
L 145.152997 271.833792 
L 145.96626 271.825476 
L 146.779523 271.415331 
L 148.406048 269.002693 
L 149.219311 269.762443 
L 150.032574 269.24918 
L 150.845837 267.850761 
L 151.6591 267.821156 
L 152.472363 263.668478 
L 153.285626 268.55496 
L 154.098889 268.659409 
L 154.912152 267.961198 
L 155.725414 268.055335 
L 156.538677 266.916375 
L 157.35194 266.196542 
L 158.165203 265.21592 
L 158.978466 265.12777 
L 159.791729 265.715878 
L 160.604992 263.287938 
L 161.418255 267.854753 
L 162.231518 266.454006 
L 163.04478 263.389726 
L 163.858043 263.848437 
L 164.671306 264.885276 
L 165.484569 262.610351 
L 166.297832 261.721869 
L 167.111095 263.84511 
L 167.924358 262.647274 
L 168.737621 261.208273 
L 169.550884 264.518706 
L 170.364146 264.092927 
L 171.177409 263.240371 
L 171.990672 261.405528 
L 172.803935 261.281121 
L 173.617198 263.297252 
L 174.430461 261.837628 
L 175.243724 262.088771 
L 176.056987 262.06349 
L 176.87025 263.093011 
L 177.683512 264.508394 
L 178.496775 264.715629 
L 179.310038 263.193136 
L 180.123301 262.517877 
L 180.936564 262.166941 
L 181.749827 264.142823 
L 182.56309 263.377751 
L 183.376353 263.975838 
L 184.189616 263.019498 
L 185.002878 263.110641 
L 185.816141 262.384155 
L 186.629404 262.684529 
L 187.442667 260.921537 
L 188.25593 261.443782 
L 189.069193 261.399541 
L 189.882456 261.073554 
L 190.695719 261.441786 
L 191.508982 260.881953 
L 192.322244 261.750476 
L 193.135507 261.431807 
L 193.94877 260.781496 
L 194.762033 261.461412 
L 195.575296 261.426485 
L 196.388559 261.133429 
L 197.201822 260.717296 
L 198.015085 259.96686 
L 198.828348 260.355717 
L 199.64161 259.800208 
L 200.454873 261.085529 
L 201.268136 260.467484 
L 202.081399 259.386404 
L 202.894662 258.869148 
L 203.707925 260.500415 
L 204.521188 260.733928 
L 205.334451 258.400459 
L 206.147714 260.903575 
L 206.960976 259.096009 
L 207.774239 258.80129 
L 208.587502 256.894597 
L 209.400765 259.420998 
L 210.214028 259.462246 
L 211.027291 258.39181 
L 211.840554 259.967193 
L 212.653817 258.934346 
L 213.46708 260.827733 
L 214.280343 260.420581 
L 215.093605 259.175177 
L 215.906868 259.866071 
L 216.720131 258.941331 
L 217.533394 258.951976 
L 218.346657 260.075966 
L 219.15992 259.327194 
L 219.973183 260.388648 
L 220.786446 260.034719 
L 221.599709 258.494596 
L 222.412971 258.441706 
L 223.226234 257.824992 
L 224.85276 257.860917 
L 225.666023 258.167278 
L 226.479286 257.401541 
L 227.292549 257.716884 
L 228.105812 256.042706 
L 228.919075 255.542416 
L 229.732337 258.189565 
L 230.5456 258.051519 
L 231.358863 257.425158 
L 232.172126 258.006613 
L 232.985389 255.188487 
L 233.798652 255.73568 
L 234.611915 257.09784 
L 235.425178 257.105491 
L 236.238441 256.823745 
L 237.051703 256.854015 
L 237.864966 257.111811 
L 238.678229 256.631147 
L 239.491492 256.64046 
L 240.304755 257.1494 
L 241.118018 255.708736 
L 241.931281 257.806696 
L 242.744544 256.421583 
L 243.557807 256.407612 
L 244.371069 255.812187 
L 245.184332 257.995968 
L 245.997595 256.161126 
L 246.810858 256.244952 
L 247.624121 258.132018 
L 248.437384 255.762624 
L 249.250647 256.087945 
L 250.06391 254.439049 
L 250.877173 254.461003 
L 252.503698 255.786241 
L 253.316961 255.963538 
L 254.130224 257.722206 
L 254.943487 255.832811 
L 255.75675 255.053102 
L 257.383276 256.963454 
L 258.196539 254.544496 
L 259.009801 256.249941 
L 259.823064 254.60171 
L 260.636327 257.456094 
L 261.44959 255.062084 
L 262.262853 256.455845 
L 263.076116 254.749402 
L 264.702642 253.862916 
L 265.515905 254.813602 
L 266.329167 255.175181 
L 267.14243 254.179257 
L 267.955693 256.237301 
L 268.768956 254.092105 
L 269.582219 253.343998 
L 270.395482 252.863333 
L 271.208745 254.028239 
L 272.022008 254.003623 
L 272.835271 255.034142 
L 273.648533 253.972355 
L 274.461796 254.561128 
L 275.275059 253.737511 
L 276.088322 255.472561 
L 276.901585 252.686369 
L 277.714848 255.113976 
L 278.528111 252.514394 
L 279.341374 254.197885 
L 280.154637 254.362874 
L 280.967899 253.234227 
L 281.781162 254.11539 
L 282.594425 253.18932 
L 283.407688 252.045039 
L 284.220951 253.418509 
L 285.034214 254.521211 
L 285.847477 254.564787 
L 286.66074 254.157303 
L 287.474003 252.152482 
L 288.287265 254.970275 
L 289.100528 252.882959 
L 289.913791 253.665328 
L 290.727054 254.81593 
L 291.540317 254.824579 
L 292.35358 255.459256 
L 293.166843 252.361047 
L 293.980106 255.500503 
L 294.793369 254.239132 
L 295.606631 253.748156 
L 296.419894 254.290359 
L 297.233157 252.766868 
L 298.04642 252.356057 
L 298.859683 252.714311 
L 299.672946 254.464662 
L 300.486209 253.204622 
L 301.299472 253.967033 
L 302.112735 252.471483 
L 302.925997 253.520963 
L 303.73926 255.655181 
L 305.365786 255.983496 
L 306.179049 254.838217 
L 306.992312 253.962043 
L 307.805575 253.797719 
L 308.618838 254.465328 
L 309.432101 255.520794 
L 310.245363 255.11331 
L 311.058626 254.172272 
L 311.871889 255.791563 
L 312.685152 254.224829 
L 313.498415 253.909486 
L 314.311678 254.20487 
L 315.124941 254.951647 
L 315.938204 254.305993 
L 316.751467 253.361295 
L 317.564729 253.129778 
L 318.377992 253.709902 
L 319.191255 253.711565 
L 320.004518 253.334352 
L 320.817781 253.879548 
L 321.631044 253.543249 
L 322.444307 253.898509 
L 323.25757 252.685038 
L 324.070833 253.11747 
L 324.884095 254.209195 
L 325.697358 253.15905 
L 326.510621 253.11115 
L 327.323884 254.354226 
L 328.137147 252.642128 
L 328.95041 253.522626 
L 329.763673 253.363624 
L 330.576936 252.90957 
L 331.390199 253.244206 
L 332.203461 254.131357 
L 333.016724 253.535266 
L 333.829987 253.78275 
L 334.64325 252.517055 
L 335.456513 253.340672 
L 336.269776 252.42691 
L 337.083039 253.163375 
L 337.896302 252.475475 
L 339.522827 253.134435 
L 340.33609 253.935099 
L 341.149353 252.819092 
L 341.962616 253.184996 
L 342.775879 253.72354 
L 343.589142 253.372938 
L 344.402405 253.452106 
L 345.215668 253.364954 
L 346.028931 253.098177 
L 346.842193 253.788738 
L 347.655456 252.606203 
L 348.468719 253.399549 
L 349.281982 251.628241 
L 350.095245 251.719052 
L 350.908508 251.367784 
L 351.721771 251.293605 
L 352.535034 252.286868 
L 353.348297 251.87639 
L 354.161559 252.781171 
L 354.974822 250.73477 
L 355.788085 250.768367 
L 356.601348 251.156557 
L 357.414611 252.847699 
L 358.227874 251.705413 
L 359.041137 252.562627 
L 359.8544 251.666162 
L 360.667663 252.533354 
L 361.480925 252.151151 
L 362.294188 252.805787 
L 363.920714 250.518887 
L 364.733977 249.392568 
L 365.54724 250.462005 
L 366.360503 252.003459 
L 367.173766 252.973437 
L 367.987029 251.424333 
L 368.800291 252.242627 
L 370.426817 251.281963 
L 371.24008 251.246038 
L 372.053343 251.604291 
L 372.866606 252.15348 
L 373.679869 253.145079 
L 374.493132 251.351152 
L 375.306395 251.646536 
L 376.119657 252.572606 
L 376.93292 250.718803 
L 377.746183 251.60296 
L 378.559446 252.657096 
L 379.372709 250.567119 
L 380.185972 252.778843 
L 380.999235 251.856432 
L 381.812498 252.533687 
L 382.625761 249.883212 
L 383.439024 251.1519 
L 384.252286 251.198137 
L 385.065549 249.453773 
L 385.878812 250.14633 
L 386.692075 250.130363 
L 387.505338 252.370361 
L 388.318601 251.330196 
L 389.131864 250.090446 
L 389.945127 250.95398 
L 390.75839 252.350402 
L 391.571652 250.993231 
L 392.384915 253.02666 
L 393.198178 250.929364 
L 394.011441 251.208117 
L 394.824704 251.353813 
L 395.637967 251.619592 
L 397.264493 252.374685 
L 398.077756 252.023417 
L 398.891018 250.689198 
L 399.704281 251.078054 
L 400.517544 250.541506 
L 401.330807 248.929865 
L 402.14407 250.868159 
L 402.957333 250.762379 
L 403.770596 248.910572 
L 404.583859 248.154149 
L 405.397122 250.914396 
L 406.210384 250.013274 
L 407.023647 250.910404 
L 407.83691 250.505914 
L 408.650173 250.903751 
L 409.463436 250.618679 
L 410.276699 249.954064 
L 411.089962 249.976018 
L 411.903225 251.068408 
L 412.716488 250.095436 
L 413.52975 250.437057 
L 414.343013 249.153399 
L 415.156276 252.19007 
L 415.969539 251.002878 
L 416.782802 251.61294 
L 418.409328 248.774855 
L 419.222591 251.112982 
L 420.035854 251.21111 
L 420.849116 248.806456 
L 421.662379 249.088867 
L 422.475642 251.566703 
L 423.288905 250.602047 
L 424.102168 250.624666 
L 425.728694 250.047868 
L 426.541957 249.698596 
L 427.35522 250.252775 
L 428.168482 252.132523 
L 428.981745 250.228159 
L 429.795008 249.283794 
L 430.608271 251.54874 
L 431.421534 250.451693 
L 432.234797 251.257347 
L 433.04806 250.684209 
L 433.861323 247.984502 
L 434.674586 249.582505 
L 437.114374 252.004457 
L 437.927637 250.391153 
L 438.7409 252.565953 
L 439.554163 250.137348 
L 441.180689 251.948241 
L 441.993952 249.974355 
L 442.807214 250.157307 
L 443.620477 250.644624 
L 444.43374 250.660924 
L 446.060266 249.721881 
L 446.873529 249.813357 
L 447.686792 251.041797 
L 448.500055 250.724125 
L 449.313318 249.252526 
L 450.12658 250.666246 
L 450.939843 251.030487 
L 451.753106 250.15897 
L 452.566369 250.197889 
L 453.379632 251.450279 
L 454.192895 250.402463 
L 455.819421 251.624582 
L 456.632684 249.812027 
L 457.445946 248.920551 
L 458.259209 250.495934 
L 459.072472 251.52612 
L 459.885735 249.603461 
L 460.698998 249.919802 
L 461.512261 250.659261 
L 462.325524 249.62974 
L 463.138787 250.563128 
L 463.95205 250.784001 
L 465.578575 251.629904 
L 466.391838 249.979677 
L 467.205101 250.291693 
L 468.018364 250.416433 
L 468.831627 250.289032 
L 469.64489 248.077974 
L 470.458153 251.601297 
L 471.271416 249.994313 
L 472.084678 251.924623 
L 472.897941 249.524293 
L 473.711204 250.673232 
L 474.524467 248.64313 
L 475.33773 251.943584 
L 476.150993 250.178263 
L 476.964256 250.500259 
L 477.777519 251.065414 
L 478.590782 250.129365 
L 479.404044 251.084707 
L 480.217307 249.730862 
L 481.03057 250.658928 
L 481.843833 250.986246 
L 482.657096 250.356558 
L 483.470359 248.719969 
L 484.283622 250.526205 
L 485.096885 251.284624 
L 485.910148 251.055102 
L 486.72341 251.143917 
L 487.536673 250.196891 
L 488.349936 250.882462 
L 489.976462 250.030904 
L 490.789725 248.696685 
L 491.602988 250.958637 
L 492.416251 248.06866 
L 493.229514 248.320136 
L 494.042776 250.186579 
L 494.856039 248.523712 
L 495.669302 250.859177 
L 496.482565 249.995311 
L 497.295828 251.374104 
L 498.109091 251.15057 
L 498.109091 251.15057 
" clip-path="url(#pd68ecd588a)" style="fill: none; stroke: #008000; stroke-width: 1.5; stroke-linecap: square"/>
   </g>
   <g id="patch_3">
    <path d="M 72 384.48 
L 72 51.84 
" style="fill: none; stroke: #000000; stroke-width: 0.8; stroke-linejoin: miter; stroke-linecap: square"/>
   </g>
   <g id="patch_4">
    <path d="M 518.4 384.48 
L 518.4 51.84 
" style="fill: none; stroke: #000000; stroke-width: 0.8; stroke-linejoin: miter; stroke-linecap: square"/>
   </g>
   <g id="patch_5">
    <path d="M 72 384.48 
L 518.4 384.48 
" style="fill: none; stroke: #000000; stroke-width: 0.8; stroke-linejoin: miter; stroke-linecap: square"/>
   </g>
   <g id="patch_6">
    <path d="M 72 51.84 
L 518.4 51.84 
" style="fill: none; stroke: #000000; stroke-width: 0.8; stroke-linejoin: miter; stroke-linecap: square"/>
   </g>
   <g id="legend_1">
    <g id="patch_7">
     <path d="M 79 89.19625 
L 160.740625 89.19625 
Q 162.740625 89.19625 162.740625 87.19625 
L 162.740625 58.84 
Q 162.740625 56.84 160.740625 56.84 
L 79 56.84 
Q 77 56.84 77 58.84 
L 77 87.19625 
Q 77 89.19625 79 89.19625 
z
" style="fill: #ffffff; opacity: 0.8; stroke: #cccccc; stroke-linejoin: miter"/>
    </g>
    <g id="line2d_15">
     <path d="M 81 64.938437 
L 91 64.938437 
L 101 64.938437 
" style="fill: none; stroke: #0000ff; stroke-width: 1.5; stroke-linecap: square"/>
    </g>
    <g id="text_15">
     <!-- train mAP -->
     <g transform="translate(109 68.438437) scale(0.1 -0.1)">
      <defs>
       <path id="DejaVuSans-69" d="M 603 3500 
L 1178 3500 
L 1178 0 
L 603 0 
L 603 3500 
z
M 603 4863 
L 1178 4863 
L 1178 4134 
L 603 4134 
L 603 4863 
z
" transform="scale(0.015625)"/>
       <path id="DejaVuSans-6e" d="M 3513 2113 
L 3513 0 
L 2938 0 
L 2938 2094 
Q 2938 2591 2744 2837 
Q 2550 3084 2163 3084 
Q 1697 3084 1428 2787 
Q 1159 2491 1159 1978 
L 1159 0 
L 581 0 
L 581 3500 
L 1159 3500 
L 1159 2956 
Q 1366 3272 1645 3428 
Q 1925 3584 2291 3584 
Q 2894 3584 3203 3211 
Q 3513 2838 3513 2113 
z
" transform="scale(0.015625)"/>
       <path id="DejaVuSans-20" transform="scale(0.015625)"/>
       <path id="DejaVuSans-6d" d="M 3328 2828 
Q 3544 3216 3844 3400 
Q 4144 3584 4550 3584 
Q 5097 3584 5394 3201 
Q 5691 2819 5691 2113 
L 5691 0 
L 5113 0 
L 5113 2094 
Q 5113 2597 4934 2840 
Q 4756 3084 4391 3084 
Q 3944 3084 3684 2787 
Q 3425 2491 3425 1978 
L 3425 0 
L 2847 0 
L 2847 2094 
Q 2847 2600 2669 2842 
Q 2491 3084 2119 3084 
Q 1678 3084 1418 2786 
Q 1159 2488 1159 1978 
L 1159 0 
L 581 0 
L 581 3500 
L 1159 3500 
L 1159 2956 
Q 1356 3278 1631 3431 
Q 1906 3584 2284 3584 
Q 2666 3584 2933 3390 
Q 3200 3197 3328 2828 
z
" transform="scale(0.015625)"/>
       <path id="DejaVuSans-41" d="M 2188 4044 
L 1331 1722 
L 3047 1722 
L 2188 4044 
z
M 1831 4666 
L 2547 4666 
L 4325 0 
L 3669 0 
L 3244 1197 
L 1141 1197 
L 716 0 
L 50 0 
L 1831 4666 
z
" transform="scale(0.015625)"/>
       <path id="DejaVuSans-50" d="M 1259 4147 
L 1259 2394 
L 2053 2394 
Q 2494 2394 2734 2622 
Q 2975 2850 2975 3272 
Q 2975 3691 2734 3919 
Q 2494 4147 2053 4147 
L 1259 4147 
z
M 628 4666 
L 2053 4666 
Q 2838 4666 3239 4311 
Q 3641 3956 3641 3272 
Q 3641 2581 3239 2228 
Q 2838 1875 2053 1875 
L 1259 1875 
L 1259 0 
L 628 0 
L 628 4666 
z
" transform="scale(0.015625)"/>
      </defs>
      <use xlink:href="#DejaVuSans-74"/>
      <use xlink:href="#DejaVuSans-72" x="39.208984"/>
      <use xlink:href="#DejaVuSans-61" x="80.322266"/>
      <use xlink:href="#DejaVuSans-69" x="141.601562"/>
      <use xlink:href="#DejaVuSans-6e" x="169.384766"/>
      <use xlink:href="#DejaVuSans-20" x="232.763672"/>
      <use xlink:href="#DejaVuSans-6d" x="264.550781"/>
      <use xlink:href="#DejaVuSans-41" x="361.962891"/>
      <use xlink:href="#DejaVuSans-50" x="430.371094"/>
     </g>
    </g>
    <g id="line2d_16">
     <path d="M 81 79.616562 
L 91 79.616562 
L 101 79.616562 
" style="fill: none; stroke: #008000; stroke-width: 1.5; stroke-linecap: square"/>
    </g>
    <g id="text_16">
     <!-- valid mAP -->
     <g transform="translate(109 83.116562) scale(0.1 -0.1)">
      <defs>
       <path id="DejaVuSans-76" d="M 191 3500 
L 800 3500 
L 1894 563 
L 2988 3500 
L 3597 3500 
L 2284 0 
L 1503 0 
L 191 3500 
z
" transform="scale(0.015625)"/>
       <path id="DejaVuSans-6c" d="M 603 4863 
L 1178 4863 
L 1178 0 
L 603 0 
L 603 4863 
z
" transform="scale(0.015625)"/>
       <path id="DejaVuSans-64" d="M 2906 2969 
L 2906 4863 
L 3481 4863 
L 3481 0 
L 2906 0 
L 2906 525 
Q 2725 213 2448 61 
Q 2172 -91 1784 -91 
Q 1150 -91 751 415 
Q 353 922 353 1747 
Q 353 2572 751 3078 
Q 1150 3584 1784 3584 
Q 2172 3584 2448 3432 
Q 2725 3281 2906 2969 
z
M 947 1747 
Q 947 1113 1208 752 
Q 1469 391 1925 391 
Q 2381 391 2643 752 
Q 2906 1113 2906 1747 
Q 2906 2381 2643 2742 
Q 2381 3103 1925 3103 
Q 1469 3103 1208 2742 
Q 947 2381 947 1747 
z
" transform="scale(0.015625)"/>
      </defs>
      <use xlink:href="#DejaVuSans-76"/>
      <use xlink:href="#DejaVuSans-61" x="59.179688"/>
      <use xlink:href="#DejaVuSans-6c" x="120.458984"/>
      <use xlink:href="#DejaVuSans-69" x="148.242188"/>
      <use xlink:href="#DejaVuSans-64" x="176.025391"/>
      <use xlink:href="#DejaVuSans-20" x="239.501953"/>
      <use xlink:href="#DejaVuSans-6d" x="271.289062"/>
      <use xlink:href="#DejaVuSans-41" x="368.701172"/>
      <use xlink:href="#DejaVuSans-50" x="437.109375"/>
     </g>
    </g>
   </g>
  </g>
  <g id="axes_2">
   <g id="matplotlib.axis_3">
    <g id="ytick_7">
     <g id="line2d_17">
      <defs>
       <path id="m37478f0302" d="M 0 0 
L 3.5 0 
" style="stroke: #000000; stroke-width: 0.8"/>
      </defs>
      <g>
       <use xlink:href="#m37478f0302" x="518.4" y="341.406547" style="stroke: #000000; stroke-width: 0.8"/>
      </g>
     </g>
     <g id="text_17">
      <!-- 0.14 -->
      <g transform="translate(525.4 345.205766) scale(0.1 -0.1)">
       <use xlink:href="#DejaVuSans-30"/>
       <use xlink:href="#DejaVuSans-2e" x="63.623047"/>
       <use xlink:href="#DejaVuSans-31" x="95.410156"/>
       <use xlink:href="#DejaVuSans-34" x="159.033203"/>
      </g>
     </g>
    </g>
    <g id="ytick_8">
     <g id="line2d_18">
      <g>
       <use xlink:href="#m37478f0302" x="518.4" y="280.798438" style="stroke: #000000; stroke-width: 0.8"/>
      </g>
     </g>
     <g id="text_18">
      <!-- 0.15 -->
      <g transform="translate(525.4 284.597657) scale(0.1 -0.1)">
       <use xlink:href="#DejaVuSans-30"/>
       <use xlink:href="#DejaVuSans-2e" x="63.623047"/>
       <use xlink:href="#DejaVuSans-31" x="95.410156"/>
       <use xlink:href="#DejaVuSans-35" x="159.033203"/>
      </g>
     </g>
    </g>
    <g id="ytick_9">
     <g id="line2d_19">
      <g>
       <use xlink:href="#m37478f0302" x="518.4" y="220.190329" style="stroke: #000000; stroke-width: 0.8"/>
      </g>
     </g>
     <g id="text_19">
      <!-- 0.16 -->
      <g transform="translate(525.4 223.989548) scale(0.1 -0.1)">
       <use xlink:href="#DejaVuSans-30"/>
       <use xlink:href="#DejaVuSans-2e" x="63.623047"/>
       <use xlink:href="#DejaVuSans-31" x="95.410156"/>
       <use xlink:href="#DejaVuSans-36" x="159.033203"/>
      </g>
     </g>
    </g>
    <g id="ytick_10">
     <g id="line2d_20">
      <g>
       <use xlink:href="#m37478f0302" x="518.4" y="159.58222" style="stroke: #000000; stroke-width: 0.8"/>
      </g>
     </g>
     <g id="text_20">
      <!-- 0.17 -->
      <g transform="translate(525.4 163.381439) scale(0.1 -0.1)">
       <defs>
        <path id="DejaVuSans-37" d="M 525 4666 
L 3525 4666 
L 3525 4397 
L 1831 0 
L 1172 0 
L 2766 4134 
L 525 4134 
L 525 4666 
z
" transform="scale(0.015625)"/>
       </defs>
       <use xlink:href="#DejaVuSans-30"/>
       <use xlink:href="#DejaVuSans-2e" x="63.623047"/>
       <use xlink:href="#DejaVuSans-31" x="95.410156"/>
       <use xlink:href="#DejaVuSans-37" x="159.033203"/>
      </g>
     </g>
    </g>
    <g id="ytick_11">
     <g id="line2d_21">
      <g>
       <use xlink:href="#m37478f0302" x="518.4" y="98.974111" style="stroke: #000000; stroke-width: 0.8"/>
      </g>
     </g>
     <g id="text_21">
      <!-- 0.18 -->
      <g transform="translate(525.4 102.773329) scale(0.1 -0.1)">
       <use xlink:href="#DejaVuSans-30"/>
       <use xlink:href="#DejaVuSans-2e" x="63.623047"/>
       <use xlink:href="#DejaVuSans-31" x="95.410156"/>
       <use xlink:href="#DejaVuSans-38" x="159.033203"/>
      </g>
     </g>
    </g>
    <g id="text_22">
     <!-- loss -->
     <g transform="translate(559.264063 227.817812) rotate(-90) scale(0.1 -0.1)">
      <defs>
       <path id="DejaVuSans-73" d="M 2834 3397 
L 2834 2853 
Q 2591 2978 2328 3040 
Q 2066 3103 1784 3103 
Q 1356 3103 1142 2972 
Q 928 2841 928 2578 
Q 928 2378 1081 2264 
Q 1234 2150 1697 2047 
L 1894 2003 
Q 2506 1872 2764 1633 
Q 3022 1394 3022 966 
Q 3022 478 2636 193 
Q 2250 -91 1575 -91 
Q 1294 -91 989 -36 
Q 684 19 347 128 
L 347 722 
Q 666 556 975 473 
Q 1284 391 1588 391 
Q 1994 391 2212 530 
Q 2431 669 2431 922 
Q 2431 1156 2273 1281 
Q 2116 1406 1581 1522 
L 1381 1569 
Q 847 1681 609 1914 
Q 372 2147 372 2553 
Q 372 3047 722 3315 
Q 1072 3584 1716 3584 
Q 2034 3584 2315 3537 
Q 2597 3491 2834 3397 
z
" transform="scale(0.015625)"/>
      </defs>
      <use xlink:href="#DejaVuSans-6c"/>
      <use xlink:href="#DejaVuSans-6f" x="27.783203"/>
      <use xlink:href="#DejaVuSans-73" x="88.964844"/>
      <use xlink:href="#DejaVuSans-73" x="141.064453"/>
     </g>
    </g>
   </g>
   <g id="line2d_22">
    <path d="M 92.290909 66.96 
L 93.104172 159.530258 
L 93.917435 200.287953 
L 94.730698 226.758059 
L 95.543961 244.000029 
L 96.357224 177.733404 
L 97.170486 215.157094 
L 99.610275 265.536106 
L 100.423538 208.935184 
L 101.236801 234.69137 
L 102.050064 249.183293 
L 102.863327 267.703456 
L 103.67659 272.779123 
L 104.489852 243.12244 
L 105.303115 261.649051 
L 106.929641 288.925791 
L 107.742904 288.842554 
L 108.556167 255.493983 
L 109.36943 273.600866 
L 110.182693 284.080163 
L 110.995956 289.696683 
L 111.809218 300.075567 
L 112.622481 274.226406 
L 113.435744 285.450085 
L 114.249007 288.479905 
L 115.06227 300.974778 
L 115.875533 304.781906 
L 116.688796 282.072523 
L 117.502059 293.847482 
L 118.315322 299.759434 
L 119.128584 300.668635 
L 119.941847 306.646017 
L 120.75511 292.742099 
L 121.568373 303.329148 
L 122.381636 309.851415 
L 123.194899 312.44596 
L 124.008162 318.027377 
L 124.821425 298.073745 
L 125.634688 314.135875 
L 126.44795 316.771852 
L 127.261213 320.938397 
L 128.074476 324.433276 
L 128.887739 308.325947 
L 129.701002 314.586495 
L 130.514265 317.681406 
L 131.327528 324.741528 
L 132.140791 326.048949 
L 132.954054 312.524753 
L 133.767316 324.404976 
L 134.580579 329.637007 
L 135.393842 329.225652 
L 136.207105 336.785043 
L 137.020368 323.154612 
L 137.833631 323.222833 
L 138.646894 333.092657 
L 139.460157 333.798364 
L 140.27342 340.223173 
L 141.086682 325.980327 
L 141.899945 328.370981 
L 144.339734 338.590068 
L 145.152997 329.412281 
L 145.96626 334.805796 
L 146.779523 338.44452 
L 147.592786 336.840822 
L 148.406048 341.504602 
L 149.219311 333.219468 
L 150.032574 340.441473 
L 150.845837 342.36459 
L 151.6591 342.893788 
L 152.472363 343.806872 
L 153.285626 336.490811 
L 154.098889 342.743762 
L 154.912152 345.242707 
L 155.725414 346.828874 
L 156.538677 344.792085 
L 157.35194 340.415798 
L 158.165203 350.686487 
L 158.978466 351.799427 
L 159.791729 351.687218 
L 160.604992 349.017591 
L 161.418255 344.317088 
L 162.231518 348.76439 
L 163.04478 348.316801 
L 163.858043 348.552205 
L 164.671306 349.826789 
L 165.484569 340.24819 
L 166.297832 353.228802 
L 167.111095 355.186976 
L 167.924358 355.16066 
L 168.737621 357.85218 
L 169.550884 345.637586 
L 170.364146 348.086038 
L 171.177409 356.616797 
L 171.990672 353.585693 
L 173.617198 350.382831 
L 174.430461 351.463754 
L 175.243724 353.348998 
L 176.056987 354.44325 
L 176.87025 356.462383 
L 177.683512 342.998179 
L 178.496775 351.095035 
L 179.310038 353.60375 
L 180.936564 356.298707 
L 181.749827 345.123027 
L 182.56309 351.510207 
L 183.376353 352.295368 
L 184.189616 352.397539 
L 185.002878 357.844434 
L 185.816141 348.391256 
L 186.629404 358.453073 
L 187.442667 355.320124 
L 189.069193 361.575848 
L 189.882456 345.33955 
L 190.695719 354.069447 
L 191.508982 359.713366 
L 192.322244 357.119953 
L 193.135507 358.798316 
L 193.94877 345.549873 
L 194.762033 358.545934 
L 195.575296 355.126596 
L 196.388559 354.328816 
L 197.201822 358.471213 
L 198.015085 345.616136 
L 198.828348 356.071428 
L 199.64161 359.633474 
L 200.454873 361.998705 
L 201.268136 361.099415 
L 202.081399 342.396434 
L 202.894662 355.155297 
L 203.707925 359.191056 
L 204.521188 359.222278 
L 205.334451 362.847165 
L 206.147714 345.923549 
L 206.960976 356.072268 
L 207.774239 362.923365 
L 208.587502 361.636053 
L 209.400765 364.18611 
L 210.214028 343.194972 
L 211.027291 362.034472 
L 211.840554 359.068783 
L 212.653817 360.08438 
L 213.46708 365.786788 
L 214.280343 341.690297 
L 215.093605 356.695078 
L 215.906868 361.38983 
L 216.720131 366.981875 
L 217.533394 367.430758 
L 218.346657 340.694563 
L 219.15992 357.258918 
L 219.973183 362.881221 
L 220.786446 363.712891 
L 221.599709 365.38507 
L 222.412971 334.491903 
L 223.226234 358.231963 
L 224.039497 356.895073 
L 224.85276 358.359538 
L 225.666023 365.005085 
L 226.479286 342.36229 
L 227.292549 355.496763 
L 228.105812 363.566089 
L 228.919075 362.759407 
L 229.732337 363.942344 
L 230.5456 332.004655 
L 231.358863 356.073357 
L 232.172126 360.30871 
L 232.985389 359.735753 
L 233.798652 367.034971 
L 234.611915 332.550853 
L 235.425178 353.635816 
L 236.238441 368.346368 
L 237.051703 365.227598 
L 237.864966 367.143198 
L 238.678229 330.979612 
L 239.491492 357.138321 
L 240.304755 360.800051 
L 241.118018 367.254889 
L 241.931281 369.36 
L 242.744544 331.081443 
L 243.557807 349.136571 
L 244.371069 361.906769 
L 245.184332 366.530086 
L 245.997595 369.251515 
L 246.810858 321.035675 
L 247.624121 352.259915 
L 248.437384 361.27717 
L 249.250647 363.89004 
L 250.06391 369.336731 
L 250.877173 320.911914 
L 251.690435 354.533218 
L 252.503698 361.942235 
L 253.316961 363.057074 
L 254.130224 367.748886 
L 254.943487 323.48782 
L 255.75675 354.597186 
L 256.570013 357.196401 
L 257.383276 363.62623 
L 258.196539 364.445694 
L 259.009801 321.216535 
L 259.823064 350.971109 
L 260.636327 361.796781 
L 262.262853 364.673055 
L 263.076116 313.666943 
L 263.889379 350.90785 
L 264.702642 359.829278 
L 265.515905 360.489421 
L 266.329167 366.114409 
L 267.14243 314.842156 
L 267.955693 347.777443 
L 268.768956 357.486739 
L 269.582219 360.763928 
L 270.395482 366.041086 
L 271.208745 308.517204 
L 272.022008 345.837932 
L 273.648533 359.398025 
L 274.461796 364.206008 
L 275.275059 318.554827 
L 276.088322 343.805361 
L 276.901585 355.317548 
L 277.714848 360.026362 
L 278.528111 363.462189 
L 279.341374 306.900068 
L 280.154637 339.957748 
L 280.967899 353.212102 
L 281.781162 358.844727 
L 282.594425 362.31462 
L 283.407688 299.753447 
L 284.220951 333.397592 
L 285.034214 349.766887 
L 285.847477 356.898721 
L 286.66074 362.03976 
L 287.474003 305.000772 
L 288.287265 333.560097 
L 289.100528 353.040791 
L 289.913791 355.301164 
L 290.727054 360.667962 
L 291.540317 306.307842 
L 292.35358 332.073527 
L 293.166843 344.075976 
L 293.980106 360.013939 
L 294.793369 363.185021 
L 295.606631 296.185266 
L 296.419894 328.547448 
L 297.233157 347.084128 
L 298.04642 355.844248 
L 298.859683 361.977816 
L 299.672946 304.952784 
L 300.486209 329.841337 
L 302.112735 358.496309 
L 302.925997 360.757274 
L 303.73926 176.562552 
L 304.552523 251.845317 
L 305.365786 295.652673 
L 306.179049 327.834683 
L 306.992312 329.88349 
L 307.805575 248.136619 
L 308.618838 297.806267 
L 309.432101 311.94039 
L 310.245363 336.86357 
L 311.058626 341.011139 
L 311.871889 258.840472 
L 312.685152 304.269225 
L 313.498415 323.414738 
L 314.311678 328.137875 
L 315.124941 340.280333 
L 315.938204 262.807593 
L 316.751467 305.621298 
L 317.564729 317.775202 
L 318.377992 334.938573 
L 319.191255 341.710755 
L 320.004518 274.392253 
L 320.817781 301.361095 
L 321.631044 320.521555 
L 322.444307 334.112032 
L 323.25757 338.615562 
L 324.070833 267.43385 
L 324.884095 296.982173 
L 325.697358 320.681802 
L 326.510621 331.173992 
L 327.323884 339.783231 
L 328.137147 273.120559 
L 328.95041 302.065962 
L 330.576936 332.6145 
L 331.390199 337.87368 
L 332.203461 265.246732 
L 333.016724 298.325262 
L 333.829987 317.085191 
L 335.456513 338.619417 
L 336.269776 270.984017 
L 337.083039 294.900001 
L 338.709565 329.072953 
L 339.522827 338.072425 
L 340.33609 265.999896 
L 341.149353 297.321155 
L 341.962616 314.32225 
L 343.589142 336.033285 
L 344.402405 261.550721 
L 345.215668 292.780961 
L 346.028931 305.637118 
L 346.842193 320.567649 
L 347.655456 329.208311 
L 348.468719 265.894782 
L 349.281982 290.357413 
L 350.095245 310.54562 
L 351.721771 331.038422 
L 352.535034 265.340238 
L 353.348297 288.062929 
L 354.161559 303.855416 
L 354.974822 314.027276 
L 355.788085 328.643514 
L 356.601348 252.874658 
L 357.414611 280.353227 
L 358.227874 302.168821 
L 359.8544 326.441606 
L 360.667663 252.758739 
L 361.480925 280.998817 
L 363.107451 310.916191 
L 363.920714 321.929419 
L 364.733977 256.526947 
L 365.54724 282.590894 
L 366.360503 304.025523 
L 367.173766 307.490423 
L 367.987029 323.665429 
L 368.800291 253.233472 
L 369.613554 280.211951 
L 370.426817 290.999481 
L 371.24008 304.325554 
L 372.053343 323.762361 
L 372.866606 248.02589 
L 374.493132 287.044834 
L 375.306395 299.671002 
L 376.119657 304.454404 
L 376.93292 244.1238 
L 378.559446 294.126849 
L 379.372709 303.944704 
L 380.185972 311.400498 
L 380.999235 249.919788 
L 381.812498 272.821538 
L 382.625761 283.756518 
L 383.439024 301.417201 
L 384.252286 315.172826 
L 385.065549 237.994589 
L 385.878812 272.379136 
L 386.692075 286.93241 
L 387.505338 294.444204 
L 388.318601 310.534847 
L 389.131864 242.164399 
L 389.945127 270.207504 
L 390.75839 287.256773 
L 391.571652 300.795634 
L 392.384915 307.459557 
L 393.198178 251.915947 
L 394.824704 281.289599 
L 395.637967 295.476414 
L 396.45123 299.096552 
L 397.264493 246.409577 
L 398.891018 282.404621 
L 400.517544 300.616713 
L 401.330807 239.731687 
L 402.14407 264.485196 
L 402.957333 274.989047 
L 403.770596 289.952253 
L 404.583859 300.079929 
L 405.397122 248.97184 
L 407.023647 276.277975 
L 407.83691 281.604935 
L 408.650173 295.080726 
L 409.463436 242.135344 
L 410.276699 258.179847 
L 411.903225 283.484845 
L 412.716488 290.822382 
L 413.52975 232.686823 
L 414.343013 253.384906 
L 415.156276 270.908021 
L 415.969539 276.407431 
L 416.782802 290.338118 
L 417.596065 238.356851 
L 418.409328 248.281816 
L 420.035854 278.789105 
L 420.849116 285.869972 
L 421.662379 233.412048 
L 422.475642 254.621898 
L 423.288905 265.361977 
L 424.102168 280.257176 
L 424.915431 291.738997 
L 425.728694 238.324232 
L 426.541957 255.084461 
L 428.168482 278.548245 
L 428.981745 286.562355 
L 429.795008 222.851724 
L 430.608271 245.771903 
L 431.421534 260.237626 
L 432.234797 271.101084 
L 433.04806 285.912191 
L 433.861323 221.314234 
L 434.674586 247.221652 
L 435.487848 265.688698 
L 436.301111 278.919182 
L 437.114374 281.451482 
L 437.927637 226.386973 
L 438.7409 247.096483 
L 441.180689 285.657301 
L 441.993952 224.441522 
L 442.807214 248.642545 
L 443.620477 256.572545 
L 444.43374 277.370041 
L 445.247003 283.828338 
L 446.060266 224.664431 
L 446.873529 235.349264 
L 447.686792 258.255514 
L 448.500055 276.240171 
L 449.313318 279.082389 
L 450.12658 220.623365 
L 450.939843 249.118254 
L 451.753106 261.440326 
L 452.566369 269.201857 
L 453.379632 280.399733 
L 454.192895 217.33635 
L 455.006158 247.245266 
L 455.819421 260.838697 
L 456.632684 266.398835 
L 457.445946 280.0083 
L 458.259209 221.624799 
L 459.072472 245.592881 
L 459.885735 253.090655 
L 460.698998 257.217678 
L 461.512261 276.346778 
L 462.325524 227.468966 
L 463.138787 240.274788 
L 463.95205 263.189686 
L 464.765312 276.368426 
L 465.578575 291.781673 
L 466.391838 214.0235 
L 467.205101 241.147569 
L 468.018364 248.900132 
L 469.64489 280.261719 
L 470.458153 222.26709 
L 471.271416 242.876714 
L 472.084678 252.873957 
L 472.897941 271.969906 
L 473.711204 280.34775 
L 474.524467 231.86645 
L 476.150993 256.158486 
L 476.964256 271.5593 
L 477.777519 294.097208 
L 478.590782 227.480165 
L 479.404044 237.75834 
L 481.03057 266.406783 
L 481.843833 274.527675 
L 482.657096 218.008093 
L 483.470359 239.696869 
L 484.283622 251.288112 
L 485.096885 271.155447 
L 485.910148 278.045993 
L 486.72341 221.152451 
L 487.536673 239.746785 
L 488.349936 262.919209 
L 489.163199 264.848125 
L 489.976462 278.803969 
L 490.789725 220.580971 
L 492.416251 253.413275 
L 493.229514 264.742764 
L 494.042776 280.551682 
L 494.856039 215.90044 
L 496.482565 259.195923 
L 498.109091 283.921828 
L 498.109091 283.921828 
" clip-path="url(#pd68ecd588a)" style="fill: none; stroke: #ff0000; stroke-width: 1.5; stroke-linecap: square"/>
   </g>
   <g id="patch_8">
    <path d="M 72 384.48 
L 72 51.84 
" style="fill: none; stroke: #000000; stroke-width: 0.8; stroke-linejoin: miter; stroke-linecap: square"/>
   </g>
   <g id="patch_9">
    <path d="M 518.4 384.48 
L 518.4 51.84 
" style="fill: none; stroke: #000000; stroke-width: 0.8; stroke-linejoin: miter; stroke-linecap: square"/>
   </g>
   <g id="patch_10">
    <path d="M 72 384.48 
L 518.4 384.48 
" style="fill: none; stroke: #000000; stroke-width: 0.8; stroke-linejoin: miter; stroke-linecap: square"/>
   </g>
   <g id="patch_11">
    <path d="M 72 51.84 
L 518.4 51.84 
" style="fill: none; stroke: #000000; stroke-width: 0.8; stroke-linejoin: miter; stroke-linecap: square"/>
   </g>
   <g id="text_23">
    <!-- The learning curve on flag_resnet/host/6 -->
    <g transform="translate(173.578125 45.84) scale(0.12 -0.12)">
     <defs>
      <path id="DejaVuSans-54" d="M -19 4666 
L 3928 4666 
L 3928 4134 
L 2272 4134 
L 2272 0 
L 1638 0 
L 1638 4134 
L -19 4134 
L -19 4666 
z
" transform="scale(0.015625)"/>
      <path id="DejaVuSans-67" d="M 2906 1791 
Q 2906 2416 2648 2759 
Q 2391 3103 1925 3103 
Q 1463 3103 1205 2759 
Q 947 2416 947 1791 
Q 947 1169 1205 825 
Q 1463 481 1925 481 
Q 2391 481 2648 825 
Q 2906 1169 2906 1791 
z
M 3481 434 
Q 3481 -459 3084 -895 
Q 2688 -1331 1869 -1331 
Q 1566 -1331 1297 -1286 
Q 1028 -1241 775 -1147 
L 775 -588 
Q 1028 -725 1275 -790 
Q 1522 -856 1778 -856 
Q 2344 -856 2625 -561 
Q 2906 -266 2906 331 
L 2906 616 
Q 2728 306 2450 153 
Q 2172 0 1784 0 
Q 1141 0 747 490 
Q 353 981 353 1791 
Q 353 2603 747 3093 
Q 1141 3584 1784 3584 
Q 2172 3584 2450 3431 
Q 2728 3278 2906 2969 
L 2906 3500 
L 3481 3500 
L 3481 434 
z
" transform="scale(0.015625)"/>
      <path id="DejaVuSans-75" d="M 544 1381 
L 544 3500 
L 1119 3500 
L 1119 1403 
Q 1119 906 1312 657 
Q 1506 409 1894 409 
Q 2359 409 2629 706 
Q 2900 1003 2900 1516 
L 2900 3500 
L 3475 3500 
L 3475 0 
L 2900 0 
L 2900 538 
Q 2691 219 2414 64 
Q 2138 -91 1772 -91 
Q 1169 -91 856 284 
Q 544 659 544 1381 
z
M 1991 3584 
L 1991 3584 
z
" transform="scale(0.015625)"/>
      <path id="DejaVuSans-66" d="M 2375 4863 
L 2375 4384 
L 1825 4384 
Q 1516 4384 1395 4259 
Q 1275 4134 1275 3809 
L 1275 3500 
L 2222 3500 
L 2222 3053 
L 1275 3053 
L 1275 0 
L 697 0 
L 697 3053 
L 147 3053 
L 147 3500 
L 697 3500 
L 697 3744 
Q 697 4328 969 4595 
Q 1241 4863 1831 4863 
L 2375 4863 
z
" transform="scale(0.015625)"/>
      <path id="DejaVuSans-5f" d="M 3263 -1063 
L 3263 -1509 
L -63 -1509 
L -63 -1063 
L 3263 -1063 
z
" transform="scale(0.015625)"/>
      <path id="DejaVuSans-2f" d="M 1625 4666 
L 2156 4666 
L 531 -594 
L 0 -594 
L 1625 4666 
z
" transform="scale(0.015625)"/>
     </defs>
     <use xlink:href="#DejaVuSans-54"/>
     <use xlink:href="#DejaVuSans-68" x="61.083984"/>
     <use xlink:href="#DejaVuSans-65" x="124.462891"/>
     <use xlink:href="#DejaVuSans-20" x="185.986328"/>
     <use xlink:href="#DejaVuSans-6c" x="217.773438"/>
     <use xlink:href="#DejaVuSans-65" x="245.556641"/>
     <use xlink:href="#DejaVuSans-61" x="307.080078"/>
     <use xlink:href="#DejaVuSans-72" x="368.359375"/>
     <use xlink:href="#DejaVuSans-6e" x="407.722656"/>
     <use xlink:href="#DejaVuSans-69" x="471.101562"/>
     <use xlink:href="#DejaVuSans-6e" x="498.884766"/>
     <use xlink:href="#DejaVuSans-67" x="562.263672"/>
     <use xlink:href="#DejaVuSans-20" x="625.740234"/>
     <use xlink:href="#DejaVuSans-63" x="657.527344"/>
     <use xlink:href="#DejaVuSans-75" x="712.507812"/>
     <use xlink:href="#DejaVuSans-72" x="775.886719"/>
     <use xlink:href="#DejaVuSans-76" x="817"/>
     <use xlink:href="#DejaVuSans-65" x="876.179688"/>
     <use xlink:href="#DejaVuSans-20" x="937.703125"/>
     <use xlink:href="#DejaVuSans-6f" x="969.490234"/>
     <use xlink:href="#DejaVuSans-6e" x="1030.671875"/>
     <use xlink:href="#DejaVuSans-20" x="1094.050781"/>
     <use xlink:href="#DejaVuSans-66" x="1125.837891"/>
     <use xlink:href="#DejaVuSans-6c" x="1161.042969"/>
     <use xlink:href="#DejaVuSans-61" x="1188.826172"/>
     <use xlink:href="#DejaVuSans-67" x="1250.105469"/>
     <use xlink:href="#DejaVuSans-5f" x="1313.582031"/>
     <use xlink:href="#DejaVuSans-72" x="1363.582031"/>
     <use xlink:href="#DejaVuSans-65" x="1402.445312"/>
     <use xlink:href="#DejaVuSans-73" x="1463.96875"/>
     <use xlink:href="#DejaVuSans-6e" x="1516.068359"/>
     <use xlink:href="#DejaVuSans-65" x="1579.447266"/>
     <use xlink:href="#DejaVuSans-74" x="1640.970703"/>
     <use xlink:href="#DejaVuSans-2f" x="1680.179688"/>
     <use xlink:href="#DejaVuSans-68" x="1713.871094"/>
     <use xlink:href="#DejaVuSans-6f" x="1777.25"/>
     <use xlink:href="#DejaVuSans-73" x="1838.431641"/>
     <use xlink:href="#DejaVuSans-74" x="1890.53125"/>
     <use xlink:href="#DejaVuSans-2f" x="1929.740234"/>
     <use xlink:href="#DejaVuSans-36" x="1963.431641"/>
    </g>
   </g>
   <g id="legend_2">
    <g id="patch_12">
     <path d="M 460.084375 74.518125 
L 511.4 74.518125 
Q 513.4 74.518125 513.4 72.518125 
L 513.4 58.84 
Q 513.4 56.84 511.4 56.84 
L 460.084375 56.84 
Q 458.084375 56.84 458.084375 58.84 
L 458.084375 72.518125 
Q 458.084375 74.518125 460.084375 74.518125 
z
" style="fill: #ffffff; opacity: 0.8; stroke: #cccccc; stroke-linejoin: miter"/>
    </g>
    <g id="line2d_23">
     <path d="M 462.084375 64.938438 
L 472.084375 64.938438 
L 482.084375 64.938438 
" style="fill: none; stroke: #ff0000; stroke-width: 1.5; stroke-linecap: square"/>
    </g>
    <g id="text_24">
     <!-- loss -->
     <g transform="translate(490.084375 68.438438) scale(0.1 -0.1)">
      <use xlink:href="#DejaVuSans-6c"/>
      <use xlink:href="#DejaVuSans-6f" x="27.783203"/>
      <use xlink:href="#DejaVuSans-73" x="88.964844"/>
      <use xlink:href="#DejaVuSans-73" x="141.064453"/>
     </g>
    </g>
   </g>
  </g>
 </g>
 <defs>
  <clipPath id="pd68ecd588a">
   <rect x="72" y="51.84" width="446.4" height="332.64"/>
  </clipPath>
 </defs>
</svg>
