<?xml version="1.0" encoding="utf-8" standalone="no"?>
<!DOCTYPE svg PUBLIC "-//W3C//DTD SVG 1.1//EN"
  "http://www.w3.org/Graphics/SVG/1.1/DTD/svg11.dtd">
<svg xmlns:xlink="http://www.w3.org/1999/xlink" width="460.8pt" height="345.6pt" viewBox="0 0 460.8 345.6" xmlns="http://www.w3.org/2000/svg" version="1.1">
 <metadata>
  <rdf:RDF xmlns:dc="http://purl.org/dc/elements/1.1/" xmlns:cc="http://creativecommons.org/ns#" xmlns:rdf="http://www.w3.org/1999/02/22-rdf-syntax-ns#">
   <cc:Work>
    <dc:type rdf:resource="http://purl.org/dc/dcmitype/StillImage"/>
    <dc:date>2023-06-19T00:39:03.847645</dc:date>
    <dc:format>image/svg+xml</dc:format>
    <dc:creator>
     <cc:Agent>
      <dc:title>Matplotlib v3.7.1, https://matplotlib.org/</dc:title>
     </cc:Agent>
    </dc:creator>
   </cc:Work>
  </rdf:RDF>
 </metadata>
 <defs>
  <style type="text/css">*{stroke-linejoin: round; stroke-linecap: butt}</style>
 </defs>
 <g id="figure_1">
  <g id="patch_1">
   <path d="M 0 345.6 
L 460.8 345.6 
L 460.8 0 
L 0 0 
z
" style="fill: #ffffff"/>
  </g>
  <g id="axes_1">
   <g id="patch_2">
    <path d="M 57.6 307.584 
L 414.72 307.584 
L 414.72 41.472 
L 57.6 41.472 
z
" style="fill: #ffffff"/>
   </g>
   <g id="matplotlib.axis_1">
    <g id="xtick_1">
     <g id="line2d_1">
      <defs>
       <path id="m87d1aecddc" d="M 0 0 
L 0 3.5 
" style="stroke: #000000; stroke-width: 0.8"/>
      </defs>
      <g>
       <use xlink:href="#m87d1aecddc" x="73.832727" y="307.584" style="stroke: #000000; stroke-width: 0.8"/>
      </g>
     </g>
     <g id="text_1">
      <!-- 0 -->
      <g transform="translate(70.651477 322.182437) scale(0.1 -0.1)">
       <defs>
        <path id="DejaVuSans-30" d="M 2034 4250 
Q 1547 4250 1301 3770 
Q 1056 3291 1056 2328 
Q 1056 1369 1301 889 
Q 1547 409 2034 409 
Q 2525 409 2770 889 
Q 3016 1369 3016 2328 
Q 3016 3291 2770 3770 
Q 2525 4250 2034 4250 
z
M 2034 4750 
Q 2819 4750 3233 4129 
Q 3647 3509 3647 2328 
Q 3647 1150 3233 529 
Q 2819 -91 2034 -91 
Q 1250 -91 836 529 
Q 422 1150 422 2328 
Q 422 3509 836 4129 
Q 1250 4750 2034 4750 
z
" transform="scale(0.015625)"/>
       </defs>
       <use xlink:href="#DejaVuSans-30"/>
      </g>
     </g>
    </g>
    <g id="xtick_2">
     <g id="line2d_2">
      <g>
       <use xlink:href="#m87d1aecddc" x="138.893758" y="307.584" style="stroke: #000000; stroke-width: 0.8"/>
      </g>
     </g>
     <g id="text_2">
      <!-- 100 -->
      <g transform="translate(129.350008 322.182437) scale(0.1 -0.1)">
       <defs>
        <path id="DejaVuSans-31" d="M 794 531 
L 1825 531 
L 1825 4091 
L 703 3866 
L 703 4441 
L 1819 4666 
L 2450 4666 
L 2450 531 
L 3481 531 
L 3481 0 
L 794 0 
L 794 531 
z
" transform="scale(0.015625)"/>
       </defs>
       <use xlink:href="#DejaVuSans-31"/>
       <use xlink:href="#DejaVuSans-30" x="63.623047"/>
       <use xlink:href="#DejaVuSans-30" x="127.246094"/>
      </g>
     </g>
    </g>
    <g id="xtick_3">
     <g id="line2d_3">
      <g>
       <use xlink:href="#m87d1aecddc" x="203.95479" y="307.584" style="stroke: #000000; stroke-width: 0.8"/>
      </g>
     </g>
     <g id="text_3">
      <!-- 200 -->
      <g transform="translate(194.41104 322.182437) scale(0.1 -0.1)">
       <defs>
        <path id="DejaVuSans-32" d="M 1228 531 
L 3431 531 
L 3431 0 
L 469 0 
L 469 531 
Q 828 903 1448 1529 
Q 2069 2156 2228 2338 
Q 2531 2678 2651 2914 
Q 2772 3150 2772 3378 
Q 2772 3750 2511 3984 
Q 2250 4219 1831 4219 
Q 1534 4219 1204 4116 
Q 875 4013 500 3803 
L 500 4441 
Q 881 4594 1212 4672 
Q 1544 4750 1819 4750 
Q 2544 4750 2975 4387 
Q 3406 4025 3406 3419 
Q 3406 3131 3298 2873 
Q 3191 2616 2906 2266 
Q 2828 2175 2409 1742 
Q 1991 1309 1228 531 
z
" transform="scale(0.015625)"/>
       </defs>
       <use xlink:href="#DejaVuSans-32"/>
       <use xlink:href="#DejaVuSans-30" x="63.623047"/>
       <use xlink:href="#DejaVuSans-30" x="127.246094"/>
      </g>
     </g>
    </g>
    <g id="xtick_4">
     <g id="line2d_4">
      <g>
       <use xlink:href="#m87d1aecddc" x="269.015821" y="307.584" style="stroke: #000000; stroke-width: 0.8"/>
      </g>
     </g>
     <g id="text_4">
      <!-- 300 -->
      <g transform="translate(259.472071 322.182437) scale(0.1 -0.1)">
       <defs>
        <path id="DejaVuSans-33" d="M 2597 2516 
Q 3050 2419 3304 2112 
Q 3559 1806 3559 1356 
Q 3559 666 3084 287 
Q 2609 -91 1734 -91 
Q 1441 -91 1130 -33 
Q 819 25 488 141 
L 488 750 
Q 750 597 1062 519 
Q 1375 441 1716 441 
Q 2309 441 2620 675 
Q 2931 909 2931 1356 
Q 2931 1769 2642 2001 
Q 2353 2234 1838 2234 
L 1294 2234 
L 1294 2753 
L 1863 2753 
Q 2328 2753 2575 2939 
Q 2822 3125 2822 3475 
Q 2822 3834 2567 4026 
Q 2313 4219 1838 4219 
Q 1578 4219 1281 4162 
Q 984 4106 628 3988 
L 628 4550 
Q 988 4650 1302 4700 
Q 1616 4750 1894 4750 
Q 2613 4750 3031 4423 
Q 3450 4097 3450 3541 
Q 3450 3153 3228 2886 
Q 3006 2619 2597 2516 
z
" transform="scale(0.015625)"/>
       </defs>
       <use xlink:href="#DejaVuSans-33"/>
       <use xlink:href="#DejaVuSans-30" x="63.623047"/>
       <use xlink:href="#DejaVuSans-30" x="127.246094"/>
      </g>
     </g>
    </g>
    <g id="xtick_5">
     <g id="line2d_5">
      <g>
       <use xlink:href="#m87d1aecddc" x="334.076852" y="307.584" style="stroke: #000000; stroke-width: 0.8"/>
      </g>
     </g>
     <g id="text_5">
      <!-- 400 -->
      <g transform="translate(324.533102 322.182437) scale(0.1 -0.1)">
       <defs>
        <path id="DejaVuSans-34" d="M 2419 4116 
L 825 1625 
L 2419 1625 
L 2419 4116 
z
M 2253 4666 
L 3047 4666 
L 3047 1625 
L 3713 1625 
L 3713 1100 
L 3047 1100 
L 3047 0 
L 2419 0 
L 2419 1100 
L 313 1100 
L 313 1709 
L 2253 4666 
z
" transform="scale(0.015625)"/>
       </defs>
       <use xlink:href="#DejaVuSans-34"/>
       <use xlink:href="#DejaVuSans-30" x="63.623047"/>
       <use xlink:href="#DejaVuSans-30" x="127.246094"/>
      </g>
     </g>
    </g>
    <g id="xtick_6">
     <g id="line2d_6">
      <g>
       <use xlink:href="#m87d1aecddc" x="399.137883" y="307.584" style="stroke: #000000; stroke-width: 0.8"/>
      </g>
     </g>
     <g id="text_6">
      <!-- 500 -->
      <g transform="translate(389.594133 322.182437) scale(0.1 -0.1)">
       <defs>
        <path id="DejaVuSans-35" d="M 691 4666 
L 3169 4666 
L 3169 4134 
L 1269 4134 
L 1269 2991 
Q 1406 3038 1543 3061 
Q 1681 3084 1819 3084 
Q 2600 3084 3056 2656 
Q 3513 2228 3513 1497 
Q 3513 744 3044 326 
Q 2575 -91 1722 -91 
Q 1428 -91 1123 -41 
Q 819 9 494 109 
L 494 744 
Q 775 591 1075 516 
Q 1375 441 1709 441 
Q 2250 441 2565 725 
Q 2881 1009 2881 1497 
Q 2881 1984 2565 2268 
Q 2250 2553 1709 2553 
Q 1456 2553 1204 2497 
Q 953 2441 691 2322 
L 691 4666 
z
" transform="scale(0.015625)"/>
       </defs>
       <use xlink:href="#DejaVuSans-35"/>
       <use xlink:href="#DejaVuSans-30" x="63.623047"/>
       <use xlink:href="#DejaVuSans-30" x="127.246094"/>
      </g>
     </g>
    </g>
    <g id="text_7">
     <!-- epoch -->
     <g transform="translate(220.931875 335.860562) scale(0.1 -0.1)">
      <defs>
       <path id="DejaVuSans-65" d="M 3597 1894 
L 3597 1613 
L 953 1613 
Q 991 1019 1311 708 
Q 1631 397 2203 397 
Q 2534 397 2845 478 
Q 3156 559 3463 722 
L 3463 178 
Q 3153 47 2828 -22 
Q 2503 -91 2169 -91 
Q 1331 -91 842 396 
Q 353 884 353 1716 
Q 353 2575 817 3079 
Q 1281 3584 2069 3584 
Q 2775 3584 3186 3129 
Q 3597 2675 3597 1894 
z
M 3022 2063 
Q 3016 2534 2758 2815 
Q 2500 3097 2075 3097 
Q 1594 3097 1305 2825 
Q 1016 2553 972 2059 
L 3022 2063 
z
" transform="scale(0.015625)"/>
       <path id="DejaVuSans-70" d="M 1159 525 
L 1159 -1331 
L 581 -1331 
L 581 3500 
L 1159 3500 
L 1159 2969 
Q 1341 3281 1617 3432 
Q 1894 3584 2278 3584 
Q 2916 3584 3314 3078 
Q 3713 2572 3713 1747 
Q 3713 922 3314 415 
Q 2916 -91 2278 -91 
Q 1894 -91 1617 61 
Q 1341 213 1159 525 
z
M 3116 1747 
Q 3116 2381 2855 2742 
Q 2594 3103 2138 3103 
Q 1681 3103 1420 2742 
Q 1159 2381 1159 1747 
Q 1159 1113 1420 752 
Q 1681 391 2138 391 
Q 2594 391 2855 752 
Q 3116 1113 3116 1747 
z
" transform="scale(0.015625)"/>
       <path id="DejaVuSans-6f" d="M 1959 3097 
Q 1497 3097 1228 2736 
Q 959 2375 959 1747 
Q 959 1119 1226 758 
Q 1494 397 1959 397 
Q 2419 397 2687 759 
Q 2956 1122 2956 1747 
Q 2956 2369 2687 2733 
Q 2419 3097 1959 3097 
z
M 1959 3584 
Q 2709 3584 3137 3096 
Q 3566 2609 3566 1747 
Q 3566 888 3137 398 
Q 2709 -91 1959 -91 
Q 1206 -91 779 398 
Q 353 888 353 1747 
Q 353 2609 779 3096 
Q 1206 3584 1959 3584 
z
" transform="scale(0.015625)"/>
       <path id="DejaVuSans-63" d="M 3122 3366 
L 3122 2828 
Q 2878 2963 2633 3030 
Q 2388 3097 2138 3097 
Q 1578 3097 1268 2742 
Q 959 2388 959 1747 
Q 959 1106 1268 751 
Q 1578 397 2138 397 
Q 2388 397 2633 464 
Q 2878 531 3122 666 
L 3122 134 
Q 2881 22 2623 -34 
Q 2366 -91 2075 -91 
Q 1284 -91 818 406 
Q 353 903 353 1747 
Q 353 2603 823 3093 
Q 1294 3584 2113 3584 
Q 2378 3584 2631 3529 
Q 2884 3475 3122 3366 
z
" transform="scale(0.015625)"/>
       <path id="DejaVuSans-68" d="M 3513 2113 
L 3513 0 
L 2938 0 
L 2938 2094 
Q 2938 2591 2744 2837 
Q 2550 3084 2163 3084 
Q 1697 3084 1428 2787 
Q 1159 2491 1159 1978 
L 1159 0 
L 581 0 
L 581 4863 
L 1159 4863 
L 1159 2956 
Q 1366 3272 1645 3428 
Q 1925 3584 2291 3584 
Q 2894 3584 3203 3211 
Q 3513 2838 3513 2113 
z
" transform="scale(0.015625)"/>
      </defs>
      <use xlink:href="#DejaVuSans-65"/>
      <use xlink:href="#DejaVuSans-70" x="61.523438"/>
      <use xlink:href="#DejaVuSans-6f" x="125"/>
      <use xlink:href="#DejaVuSans-63" x="186.181641"/>
      <use xlink:href="#DejaVuSans-68" x="241.162109"/>
     </g>
    </g>
   </g>
   <g id="matplotlib.axis_2">
    <g id="ytick_1">
     <g id="line2d_7">
      <defs>
       <path id="me8694d23d3" d="M 0 0 
L -3.5 0 
" style="stroke: #000000; stroke-width: 0.8"/>
      </defs>
      <g>
       <use xlink:href="#me8694d23d3" x="57.6" y="298.041329" style="stroke: #000000; stroke-width: 0.8"/>
      </g>
     </g>
     <g id="text_8">
      <!-- 0.10 -->
      <g transform="translate(28.334375 301.840548) scale(0.1 -0.1)">
       <defs>
        <path id="DejaVuSans-2e" d="M 684 794 
L 1344 794 
L 1344 0 
L 684 0 
L 684 794 
z
" transform="scale(0.015625)"/>
       </defs>
       <use xlink:href="#DejaVuSans-30"/>
       <use xlink:href="#DejaVuSans-2e" x="63.623047"/>
       <use xlink:href="#DejaVuSans-31" x="95.410156"/>
       <use xlink:href="#DejaVuSans-30" x="159.033203"/>
      </g>
     </g>
    </g>
    <g id="ytick_2">
     <g id="line2d_8">
      <g>
       <use xlink:href="#me8694d23d3" x="57.6" y="245.745493" style="stroke: #000000; stroke-width: 0.8"/>
      </g>
     </g>
     <g id="text_9">
      <!-- 0.15 -->
      <g transform="translate(28.334375 249.544712) scale(0.1 -0.1)">
       <use xlink:href="#DejaVuSans-30"/>
       <use xlink:href="#DejaVuSans-2e" x="63.623047"/>
       <use xlink:href="#DejaVuSans-31" x="95.410156"/>
       <use xlink:href="#DejaVuSans-35" x="159.033203"/>
      </g>
     </g>
    </g>
    <g id="ytick_3">
     <g id="line2d_9">
      <g>
       <use xlink:href="#me8694d23d3" x="57.6" y="193.449656" style="stroke: #000000; stroke-width: 0.8"/>
      </g>
     </g>
     <g id="text_10">
      <!-- 0.20 -->
      <g transform="translate(28.334375 197.248875) scale(0.1 -0.1)">
       <use xlink:href="#DejaVuSans-30"/>
       <use xlink:href="#DejaVuSans-2e" x="63.623047"/>
       <use xlink:href="#DejaVuSans-32" x="95.410156"/>
       <use xlink:href="#DejaVuSans-30" x="159.033203"/>
      </g>
     </g>
    </g>
    <g id="ytick_4">
     <g id="line2d_10">
      <g>
       <use xlink:href="#me8694d23d3" x="57.6" y="141.15382" style="stroke: #000000; stroke-width: 0.8"/>
      </g>
     </g>
     <g id="text_11">
      <!-- 0.25 -->
      <g transform="translate(28.334375 144.953039) scale(0.1 -0.1)">
       <use xlink:href="#DejaVuSans-30"/>
       <use xlink:href="#DejaVuSans-2e" x="63.623047"/>
       <use xlink:href="#DejaVuSans-32" x="95.410156"/>
       <use xlink:href="#DejaVuSans-35" x="159.033203"/>
      </g>
     </g>
    </g>
    <g id="ytick_5">
     <g id="line2d_11">
      <g>
       <use xlink:href="#me8694d23d3" x="57.6" y="88.857983" style="stroke: #000000; stroke-width: 0.8"/>
      </g>
     </g>
     <g id="text_12">
      <!-- 0.30 -->
      <g transform="translate(28.334375 92.657202) scale(0.1 -0.1)">
       <use xlink:href="#DejaVuSans-30"/>
       <use xlink:href="#DejaVuSans-2e" x="63.623047"/>
       <use xlink:href="#DejaVuSans-33" x="95.410156"/>
       <use xlink:href="#DejaVuSans-30" x="159.033203"/>
      </g>
     </g>
    </g>
    <g id="text_13">
     <!-- loss value -->
     <g transform="translate(22.254687 199.432687) rotate(-90) scale(0.1 -0.1)">
      <defs>
       <path id="DejaVuSans-6c" d="M 603 4863 
L 1178 4863 
L 1178 0 
L 603 0 
L 603 4863 
z
" transform="scale(0.015625)"/>
       <path id="DejaVuSans-73" d="M 2834 3397 
L 2834 2853 
Q 2591 2978 2328 3040 
Q 2066 3103 1784 3103 
Q 1356 3103 1142 2972 
Q 928 2841 928 2578 
Q 928 2378 1081 2264 
Q 1234 2150 1697 2047 
L 1894 2003 
Q 2506 1872 2764 1633 
Q 3022 1394 3022 966 
Q 3022 478 2636 193 
Q 2250 -91 1575 -91 
Q 1294 -91 989 -36 
Q 684 19 347 128 
L 347 722 
Q 666 556 975 473 
Q 1284 391 1588 391 
Q 1994 391 2212 530 
Q 2431 669 2431 922 
Q 2431 1156 2273 1281 
Q 2116 1406 1581 1522 
L 1381 1569 
Q 847 1681 609 1914 
Q 372 2147 372 2553 
Q 372 3047 722 3315 
Q 1072 3584 1716 3584 
Q 2034 3584 2315 3537 
Q 2597 3491 2834 3397 
z
" transform="scale(0.015625)"/>
       <path id="DejaVuSans-20" transform="scale(0.015625)"/>
       <path id="DejaVuSans-76" d="M 191 3500 
L 800 3500 
L 1894 563 
L 2988 3500 
L 3597 3500 
L 2284 0 
L 1503 0 
L 191 3500 
z
" transform="scale(0.015625)"/>
       <path id="DejaVuSans-61" d="M 2194 1759 
Q 1497 1759 1228 1600 
Q 959 1441 959 1056 
Q 959 750 1161 570 
Q 1363 391 1709 391 
Q 2188 391 2477 730 
Q 2766 1069 2766 1631 
L 2766 1759 
L 2194 1759 
z
M 3341 1997 
L 3341 0 
L 2766 0 
L 2766 531 
Q 2569 213 2275 61 
Q 1981 -91 1556 -91 
Q 1019 -91 701 211 
Q 384 513 384 1019 
Q 384 1609 779 1909 
Q 1175 2209 1959 2209 
L 2766 2209 
L 2766 2266 
Q 2766 2663 2505 2880 
Q 2244 3097 1772 3097 
Q 1472 3097 1187 3025 
Q 903 2953 641 2809 
L 641 3341 
Q 956 3463 1253 3523 
Q 1550 3584 1831 3584 
Q 2591 3584 2966 3190 
Q 3341 2797 3341 1997 
z
" transform="scale(0.015625)"/>
       <path id="DejaVuSans-75" d="M 544 1381 
L 544 3500 
L 1119 3500 
L 1119 1403 
Q 1119 906 1312 657 
Q 1506 409 1894 409 
Q 2359 409 2629 706 
Q 2900 1003 2900 1516 
L 2900 3500 
L 3475 3500 
L 3475 0 
L 2900 0 
L 2900 538 
Q 2691 219 2414 64 
Q 2138 -91 1772 -91 
Q 1169 -91 856 284 
Q 544 659 544 1381 
z
M 1991 3584 
L 1991 3584 
z
" transform="scale(0.015625)"/>
      </defs>
      <use xlink:href="#DejaVuSans-6c"/>
      <use xlink:href="#DejaVuSans-6f" x="27.783203"/>
      <use xlink:href="#DejaVuSans-73" x="88.964844"/>
      <use xlink:href="#DejaVuSans-73" x="141.064453"/>
      <use xlink:href="#DejaVuSans-20" x="193.164062"/>
      <use xlink:href="#DejaVuSans-76" x="224.951172"/>
      <use xlink:href="#DejaVuSans-61" x="284.130859"/>
      <use xlink:href="#DejaVuSans-6c" x="345.410156"/>
      <use xlink:href="#DejaVuSans-75" x="373.193359"/>
      <use xlink:href="#DejaVuSans-65" x="436.572266"/>
     </g>
    </g>
   </g>
   <g id="line2d_12">
    <path d="M 73.832727 85.360583 
L 74.483338 254.623232 
L 75.133948 265.122057 
L 75.784558 271.407691 
L 76.435169 275.6793 
L 77.085779 249.432999 
L 77.736389 262.640376 
L 78.386999 268.178396 
L 79.03761 272.468441 
L 79.68822 274.600672 
L 80.33883 256.97416 
L 80.989441 267.360175 
L 81.640051 271.757476 
L 82.290661 274.432065 
L 82.941272 277.943289 
L 83.591882 263.329626 
L 84.242492 272.140237 
L 84.893103 275.771452 
L 85.543713 277.771807 
L 86.194323 280.362968 
L 86.844934 265.910087 
L 87.495544 273.726757 
L 88.146154 277.120815 
L 88.796764 279.905805 
L 89.447375 281.657526 
L 90.097985 268.763753 
L 90.748595 276.150228 
L 91.399206 279.590044 
L 92.049816 280.885767 
L 92.700426 281.865937 
L 93.351037 268.955551 
L 94.001647 278.003115 
L 94.652257 280.648163 
L 95.953478 283.618024 
L 96.604088 272.066375 
L 97.254698 280.451787 
L 99.206529 285.724147 
L 99.85714 274.167603 
L 100.50775 281.549892 
L 101.15836 284.299558 
L 101.808971 284.652381 
L 102.459581 287.36886 
L 103.110191 274.410081 
L 103.760802 283.028137 
L 105.062022 287.096768 
L 105.712633 288.313514 
L 106.363243 276.559347 
L 107.013853 283.671673 
L 107.664463 286.256583 
L 108.315074 287.464564 
L 108.965684 289.485729 
L 109.616294 276.806245 
L 110.266905 284.837657 
L 111.568125 288.605841 
L 112.218736 289.787167 
L 112.869346 278.00708 
L 113.519956 285.328442 
L 114.170567 287.048212 
L 114.821177 289.314611 
L 115.471787 290.644742 
L 116.122398 279.746308 
L 116.773008 285.870495 
L 117.423618 289.646911 
L 118.074228 288.659119 
L 118.724839 290.737317 
L 119.375449 280.020452 
L 120.026059 287.231489 
L 120.67667 289.691677 
L 121.32728 291.082226 
L 121.97789 291.920622 
L 122.628501 280.892559 
L 123.279111 287.556489 
L 123.929721 290.431917 
L 124.580332 291.998801 
L 125.230942 293.130416 
L 125.881552 280.145828 
L 126.532163 288.756753 
L 127.833383 293.294845 
L 128.483993 293.907057 
L 129.134604 283.931385 
L 129.785214 289.200429 
L 130.435824 292.579525 
L 131.086435 293.057783 
L 131.737045 294.090009 
L 132.387655 283.377316 
L 133.038266 289.868375 
L 134.339486 293.784074 
L 134.990097 295.129828 
L 135.640707 284.370616 
L 136.291317 290.844862 
L 136.941927 293.135489 
L 137.592538 293.778121 
L 138.243148 295.488 
L 138.893758 283.118751 
L 139.544369 291.475974 
L 140.194979 292.921995 
L 140.845589 292.753876 
L 141.4962 294.403387 
L 142.14681 280.805895 
L 142.79742 289.823264 
L 143.448031 291.391039 
L 144.098641 291.22182 
L 144.749251 291.820773 
L 145.399862 280.547792 
L 146.050472 289.391229 
L 146.701082 290.815878 
L 147.351692 291.593507 
L 148.002303 293.29727 
L 148.652913 281.467378 
L 149.303523 289.399916 
L 149.954134 290.158284 
L 150.604744 292.145949 
L 151.255354 293.351128 
L 151.905965 280.937496 
L 152.556575 289.8248 
L 153.207185 290.389973 
L 153.857796 291.834238 
L 154.508406 292.938784 
L 155.159016 279.662978 
L 155.809627 288.992657 
L 156.460237 291.814356 
L 157.110847 291.628013 
L 157.761457 293.258136 
L 158.412068 279.584385 
L 159.062678 289.315225 
L 160.363899 292.577429 
L 161.014509 293.511476 
L 161.665119 280.260466 
L 162.31573 288.638546 
L 162.96634 291.5404 
L 163.61695 291.873975 
L 164.267561 293.131139 
L 164.918171 279.614364 
L 165.568781 289.528001 
L 166.219392 291.603961 
L 166.870002 292.722272 
L 167.520612 294.064868 
L 168.171222 280.332302 
L 168.821833 289.595909 
L 169.472443 291.450448 
L 170.123053 294.013798 
L 170.773664 293.365736 
L 171.424274 280.252606 
L 172.074884 287.520923 
L 172.725495 291.11856 
L 173.376105 292.006588 
L 174.026715 293.166442 
L 174.677326 278.930751 
L 175.327936 287.985295 
L 175.978546 292.232653 
L 176.629156 291.703871 
L 177.279767 292.949617 
L 177.930377 278.080045 
L 178.580987 287.799233 
L 179.231598 291.133535 
L 179.882208 292.308973 
L 180.532818 293.250031 
L 181.183429 280.160907 
L 181.834039 288.058949 
L 182.484649 291.178518 
L 183.13526 292.428108 
L 183.78587 293.373744 
L 184.43648 279.40262 
L 185.087091 288.440991 
L 185.737701 290.392445 
L 186.388311 292.697794 
L 187.038921 292.983121 
L 187.689532 277.082192 
L 188.340142 287.842167 
L 188.990752 290.922171 
L 189.641363 292.099647 
L 190.291973 292.061988 
L 190.942583 277.51444 
L 191.593194 287.025126 
L 192.243804 290.754119 
L 192.894414 291.105656 
L 193.545025 292.258155 
L 194.195635 276.472532 
L 194.846245 286.528114 
L 195.496856 290.954322 
L 196.147466 291.621047 
L 196.798076 292.050916 
L 197.448686 276.215369 
L 198.099297 287.470723 
L 198.749907 289.321367 
L 199.400517 291.989182 
L 200.051128 292.29221 
L 200.701738 277.156412 
L 201.352348 285.959915 
L 202.002959 289.14984 
L 202.653569 293.153289 
L 203.304179 293.011118 
L 203.95479 277.44075 
L 204.6054 286.457877 
L 205.25601 289.062238 
L 205.906621 292.376946 
L 206.557231 292.478231 
L 207.207841 277.441851 
L 207.858451 286.934604 
L 208.509062 289.703707 
L 209.159672 290.962963 
L 209.810282 293.047061 
L 210.460893 275.569416 
L 211.111503 284.67425 
L 211.762113 289.748732 
L 212.412724 290.01127 
L 213.063334 291.394596 
L 213.713944 276.335359 
L 214.364555 285.44019 
L 215.015165 289.906762 
L 215.665775 290.694059 
L 216.316385 291.003182 
L 216.966996 276.198415 
L 217.617606 284.814749 
L 218.918827 291.007155 
L 219.569437 292.747369 
L 220.220047 277.133025 
L 220.870658 286.198378 
L 221.521268 288.005516 
L 222.171878 289.269313 
L 222.822489 292.838664 
L 223.473099 274.785178 
L 224.123709 282.781143 
L 224.77432 288.501043 
L 225.42493 290.746637 
L 226.07554 291.632309 
L 226.72615 274.228025 
L 227.376761 283.432356 
L 228.027371 287.018384 
L 228.677981 289.084825 
L 229.328592 291.860469 
L 229.979202 274.594055 
L 230.629812 282.94184 
L 231.280423 288.333939 
L 231.931033 288.54311 
L 232.581643 290.404419 
L 233.232254 274.722841 
L 233.882864 282.713388 
L 234.533474 286.667944 
L 235.184085 289.730293 
L 235.834695 291.176761 
L 236.485305 274.338205 
L 237.135915 282.794164 
L 237.786526 287.797927 
L 238.437136 288.84229 
L 239.087746 289.35865 
L 239.738357 273.646623 
L 240.388967 281.404256 
L 241.039577 286.285273 
L 241.690188 289.04078 
L 242.340798 290.677472 
L 242.991408 249.41748 
L 243.642019 266.374562 
L 244.292629 274.732525 
L 244.943239 280.390374 
L 245.59385 283.261176 
L 246.24446 262.841539 
L 246.89507 273.321954 
L 247.54568 279.592744 
L 248.846901 285.371565 
L 249.497511 265.640708 
L 250.148122 274.250403 
L 250.798732 279.337564 
L 251.449342 282.059435 
L 252.099953 284.239277 
L 252.750563 267.520236 
L 253.401173 275.764325 
L 254.051784 280.010548 
L 254.702394 281.909176 
L 255.353004 285.054181 
L 256.003615 268.647602 
L 256.654225 276.09692 
L 257.955445 283.593213 
L 258.606056 285.005617 
L 259.256666 269.745598 
L 259.907276 275.693564 
L 260.557887 279.232385 
L 261.208497 281.223498 
L 261.859107 284.212715 
L 262.509718 267.077206 
L 263.160328 275.006862 
L 263.810938 279.318828 
L 265.112159 284.28711 
L 265.762769 267.468174 
L 266.413379 273.98135 
L 267.06399 279.045785 
L 267.7146 281.511916 
L 268.36521 283.386043 
L 269.015821 268.153453 
L 269.666431 273.695924 
L 270.317041 277.985703 
L 271.618262 282.690463 
L 272.268872 267.788892 
L 273.570093 277.70464 
L 274.220703 280.700017 
L 274.871314 282.886434 
L 275.521924 266.987648 
L 276.172534 272.999095 
L 276.823144 277.152931 
L 278.124365 281.787564 
L 278.774975 266.697011 
L 280.076196 277.229136 
L 281.377417 281.767035 
L 282.028027 266.98433 
L 282.678637 272.508106 
L 283.979858 278.819997 
L 284.630468 279.76009 
L 285.281079 267.077015 
L 286.582299 276.690361 
L 287.232909 278.13576 
L 287.88352 281.09901 
L 288.53413 266.273373 
L 289.835351 276.023515 
L 291.136571 280.63404 
L 291.787182 266.813619 
L 292.437792 271.624037 
L 293.088402 275.332031 
L 293.739013 278.056439 
L 294.389623 279.274173 
L 295.040233 265.755436 
L 295.690844 271.128465 
L 296.992064 277.52702 
L 297.642674 279.075442 
L 298.293285 264.453237 
L 298.943895 270.158951 
L 299.594505 273.689843 
L 300.245116 275.907517 
L 300.895726 278.612493 
L 301.546336 265.529163 
L 302.847557 273.939708 
L 303.498167 275.981008 
L 304.148778 278.438927 
L 304.799388 265.501984 
L 306.100608 272.502385 
L 306.751219 274.833505 
L 307.401829 277.606672 
L 308.052439 265.260241 
L 308.70305 268.387381 
L 309.35366 272.559427 
L 310.00427 275.632876 
L 310.654881 276.432584 
L 311.305491 265.064252 
L 311.956101 269.343417 
L 312.606712 271.468836 
L 313.257322 274.882911 
L 313.907932 277.283415 
L 314.558543 263.664287 
L 315.209153 268.951242 
L 315.859763 272.55288 
L 317.160984 277.454201 
L 317.811594 264.48587 
L 319.112815 272.063548 
L 319.763425 274.830288 
L 320.414035 275.673965 
L 321.064646 266.341479 
L 322.365866 271.02184 
L 323.016477 273.956147 
L 323.667087 275.10637 
L 324.317697 264.01659 
L 324.968308 268.623973 
L 325.618918 271.287584 
L 326.269528 272.863067 
L 326.920138 276.10316 
L 327.570749 265.111535 
L 330.17319 275.655656 
L 330.8238 264.682613 
L 331.474411 267.676747 
L 332.125021 269.395031 
L 332.775631 272.45124 
L 333.426242 272.805886 
L 334.076852 264.332094 
L 334.727462 267.860804 
L 335.378073 269.407264 
L 336.028683 271.577537 
L 336.679293 272.761485 
L 337.329903 263.771583 
L 339.281734 272.828573 
L 339.932345 273.283116 
L 340.582955 263.6529 
L 341.884176 269.511093 
L 342.534786 271.636169 
L 343.185396 274.216648 
L 343.836007 263.511652 
L 344.486617 265.798888 
L 345.137227 269.301127 
L 345.787837 271.910333 
L 346.438448 273.958299 
L 347.089058 261.490339 
L 347.739668 264.62645 
L 348.390279 269.224485 
L 349.040889 271.087996 
L 349.691499 273.978774 
L 350.34211 261.532682 
L 352.293941 271.852541 
L 352.944551 272.60041 
L 353.595161 261.898571 
L 354.245772 265.512864 
L 354.896382 268.068154 
L 355.546992 271.231203 
L 356.197602 273.185344 
L 356.848213 261.169975 
L 358.800044 270.908356 
L 359.450654 272.5151 
L 360.101264 261.941083 
L 360.751875 266.269917 
L 361.402485 268.903547 
L 362.053095 270.953498 
L 362.703706 273.372096 
L 363.354316 260.311617 
L 364.655537 267.400369 
L 365.306147 271.396859 
L 365.956757 273.305198 
L 366.607367 260.451704 
L 368.559198 270.498209 
L 369.209809 271.964424 
L 369.860419 262.129234 
L 370.511029 266.304112 
L 371.16164 268.155914 
L 371.81225 271.285536 
L 372.46286 272.577516 
L 373.113471 260.056409 
L 373.764081 263.142358 
L 374.414691 266.968817 
L 375.065302 270.07564 
L 375.715912 271.361071 
L 376.366522 261.979898 
L 377.017132 264.524382 
L 377.667743 268.327058 
L 378.968963 273.506305 
L 379.619574 262.48465 
L 381.571405 271.712439 
L 382.222015 272.005244 
L 382.872625 259.940317 
L 383.523236 264.313557 
L 384.173846 266.524822 
L 384.824456 269.366555 
L 385.475066 270.904341 
L 386.125677 260.398119 
L 387.426897 268.152991 
L 388.077508 270.739904 
L 388.728118 272.371612 
L 389.378728 260.844222 
L 390.029339 265.096406 
L 391.330559 270.078678 
L 391.98117 272.749963 
L 392.63178 262.073429 
L 393.933001 267.986785 
L 394.583611 269.096629 
L 395.234221 273.924242 
L 395.884831 261.239159 
L 397.186052 266.543116 
L 397.836662 270.327773 
L 398.487273 272.086379 
L 398.487273 272.086379 
" clip-path="url(#p7dca59e424)" style="fill: none; stroke: #0000ff; stroke-width: 1.5; stroke-linecap: square"/>
   </g>
   <g id="line2d_13">
    <path d="M 73.832727 53.568 
L 74.483338 222.841199 
L 75.133948 233.352419 
L 75.784558 239.65056 
L 76.435169 243.934693 
L 77.085779 217.781505 
L 77.736389 231.001289 
L 78.386999 236.55175 
L 79.03761 240.85425 
L 79.68822 242.998914 
L 80.33883 225.401716 
L 80.989441 235.800175 
L 81.640051 240.209864 
L 82.290661 242.896827 
L 82.941272 246.420455 
L 83.591882 231.812393 
L 84.242492 240.635467 
L 84.893103 244.279106 
L 85.543713 246.291831 
L 86.194323 248.89537 
L 86.844934 234.415662 
L 87.495544 242.244824 
L 88.146154 245.651319 
L 88.796764 248.448731 
L 89.447375 250.212831 
L 90.097985 237.308559 
L 90.748595 244.707497 
L 91.399206 248.159716 
L 92.049816 249.467824 
L 92.700426 250.460413 
L 93.351037 237.528333 
L 94.001647 246.588308 
L 94.652257 249.245728 
L 95.953478 252.240407 
L 96.604088 240.679306 
L 97.254698 249.077148 
L 99.206529 254.386757 
L 99.85714 242.822349 
L 100.50775 250.217103 
L 101.15836 252.979201 
L 101.808971 253.344391 
L 102.459581 256.073238 
L 103.110191 243.087891 
L 103.760802 251.718305 
L 105.062022 255.811671 
L 105.712633 257.040758 
L 106.363243 245.277633 
L 107.013853 252.402324 
L 107.664463 254.99961 
L 108.315074 256.219923 
L 108.965684 258.253401 
L 109.616294 245.559741 
L 110.266905 253.60351 
L 111.568125 257.396421 
L 112.218736 258.590073 
L 112.869346 246.785238 
L 113.519956 254.118961 
L 114.170567 255.851104 
L 114.821177 258.129794 
L 115.471787 259.472237 
L 116.122398 248.553764 
L 116.773008 254.690302 
L 117.423618 258.479048 
L 118.074228 257.503582 
L 118.724839 259.594079 
L 119.375449 248.866786 
L 120.026059 256.090147 
L 120.67667 258.562639 
L 121.32728 259.965463 
L 121.97789 260.816159 
L 122.628501 249.761372 
L 123.279111 256.437612 
L 123.929721 259.325393 
L 124.580332 260.904566 
L 125.230942 262.04846 
L 125.881552 249.047421 
L 126.532163 257.67062 
L 127.833383 262.233261 
L 128.483993 262.857755 
L 129.134604 252.862476 
L 129.785214 258.14375 
L 130.435824 261.535119 
L 131.086435 262.02559 
L 131.737045 263.070023 
L 132.387655 252.3349 
L 133.038266 258.838198 
L 134.339486 262.778389 
L 134.990097 264.136341 
L 135.640707 253.345736 
L 136.291317 259.832236 
L 136.941927 262.135095 
L 137.592538 262.789987 
L 138.243148 264.512091 
L 138.893758 252.127485 
L 139.544369 260.493146 
L 140.194979 261.943627 
L 140.845589 261.779967 
L 141.4962 263.433932 
L 142.14681 249.827132 
L 142.79742 258.848809 
L 143.448031 260.420794 
L 144.098641 260.255784 
L 144.749251 260.858972 
L 145.399862 249.592126 
L 146.050472 258.439677 
L 146.701082 259.868315 
L 147.351692 260.649961 
L 148.002303 262.357747 
L 148.652913 250.533655 
L 149.303523 258.470079 
L 149.954134 259.232261 
L 150.604744 261.223723 
L 151.255354 262.432716 
L 151.905965 250.010011 
L 152.556575 258.901007 
L 153.207185 259.469785 
L 153.857796 260.917668 
L 154.508406 262.025838 
L 155.159016 248.758358 
L 155.809627 258.091555 
L 156.460237 260.916669 
L 157.110847 260.73377 
L 157.761457 262.367335 
L 158.412068 248.707505 
L 159.062678 258.441685 
L 160.363899 261.710412 
L 161.014509 262.647728 
L 161.665119 249.387155 
L 162.31573 257.768405 
L 162.96634 260.673358 
L 163.61695 261.010048 
L 164.267561 262.270324 
L 164.918171 248.760268 
L 165.568781 258.676911 
L 166.219392 260.755822 
L 166.870002 261.877088 
L 167.520612 263.222643 
L 168.171222 249.502233 
L 168.821833 258.76871 
L 169.472443 260.626047 
L 170.123053 263.192203 
L 170.773664 262.546947 
L 171.424274 249.422099 
L 172.074884 256.693135 
L 172.725495 260.293429 
L 173.376105 261.184125 
L 174.026715 262.346642 
L 174.677326 248.120813 
L 175.327936 257.177947 
L 175.978546 261.42783 
L 176.629156 260.90158 
L 177.279767 262.149858 
L 177.930377 247.284576 
L 178.580987 257.006224 
L 179.231598 260.342917 
L 179.882208 261.520752 
L 180.532818 262.464214 
L 181.183429 249.369175 
L 181.834039 257.26955 
L 182.484649 260.391389 
L 183.13526 261.643249 
L 183.78587 262.591165 
L 184.43648 248.625665 
L 185.087091 257.666256 
L 185.737701 259.619872 
L 186.388311 261.927387 
L 187.038921 262.214896 
L 187.689532 246.315265 
L 188.340142 257.077353 
L 188.990752 260.159402 
L 189.641363 261.338932 
L 190.291973 261.30334 
L 190.942583 246.752044 
L 191.593194 256.264728 
L 192.243804 259.995667 
L 192.894414 260.349162 
L 193.545025 261.503624 
L 194.195635 245.718341 
L 194.846245 255.775829 
L 195.496856 260.203888 
L 196.147466 260.872465 
L 196.798076 261.304196 
L 197.448686 245.469276 
L 198.099297 256.72644 
L 198.749907 258.578837 
L 199.400517 261.248416 
L 200.051128 261.553211 
L 200.701738 246.413452 
L 201.352348 255.218673 
L 202.002959 258.410268 
L 202.653569 262.415391 
L 203.304179 262.2749 
L 203.95479 246.705509 
L 204.6054 255.724271 
L 205.25601 258.33022 
L 205.906621 261.646519 
L 206.557231 261.749402 
L 207.207841 246.714555 
L 207.858451 256.208865 
L 208.509062 258.979484 
L 209.159672 260.240256 
L 209.810282 262.325873 
L 210.460893 244.844851 
L 211.111503 253.951162 
L 211.762113 259.027079 
L 212.412724 259.291059 
L 213.063334 260.675831 
L 213.713944 245.617128 
L 214.364555 254.723362 
L 215.015165 259.191306 
L 215.665775 259.979968 
L 216.316385 260.290463 
L 216.966996 245.485165 
L 217.617606 254.102832 
L 218.918827 260.297839 
L 219.569437 262.039351 
L 220.220047 246.423214 
L 220.870658 255.489836 
L 221.521268 257.298205 
L 222.171878 258.563241 
L 222.822489 262.133832 
L 223.473099 244.081504 
L 224.123709 252.078676 
L 224.77432 257.799751 
L 225.42493 260.046519 
L 226.07554 260.933368 
L 226.72615 243.528503 
L 227.376761 252.733994 
L 228.027371 256.321134 
L 228.677981 258.388686 
L 229.328592 261.165451 
L 229.979202 243.898101 
L 230.629812 252.246977 
L 231.280423 257.640134 
L 231.931033 257.850362 
L 232.581643 259.712737 
L 233.232254 244.032193 
L 233.882864 252.023777 
L 234.533474 255.979338 
L 235.184085 259.042696 
L 235.834695 260.490168 
L 236.485305 243.653661 
L 237.135915 252.110613 
L 237.786526 257.115332 
L 238.437136 258.160649 
L 239.087746 258.677967 
L 239.738357 242.962958 
L 240.388967 250.721523 
L 241.039577 255.603453 
L 241.690188 258.359871 
L 242.340798 259.997471 
L 242.991408 218.762708 
L 243.642019 235.720753 
L 244.292629 244.079635 
L 244.943239 249.738386 
L 245.59385 252.610086 
L 246.24446 232.192175 
L 246.89507 242.673481 
L 247.54568 248.945128 
L 248.846901 254.725647 
L 249.497511 234.993074 
L 250.148122 243.603603 
L 250.798732 248.691566 
L 251.449342 251.414234 
L 252.099953 253.594877 
L 252.750563 236.87692 
L 253.401173 245.121795 
L 254.051784 249.368773 
L 254.702394 251.268162 
L 255.353004 254.413922 
L 256.003615 238.009117 
L 256.654225 245.459178 
L 257.955445 252.956895 
L 258.606056 254.37002 
L 259.256666 239.107977 
L 259.907276 245.056647 
L 260.557887 248.596146 
L 261.208497 250.587939 
L 261.859107 253.577834 
L 262.509718 236.443397 
L 263.160328 244.373718 
L 263.810938 248.686326 
L 265.112159 253.655889 
L 265.762769 236.839182 
L 266.413379 243.352988 
L 267.06399 248.418034 
L 267.7146 250.884776 
L 268.36521 252.75951 
L 269.015821 237.525069 
L 269.666431 243.068136 
L 270.317041 247.358502 
L 271.618262 252.064418 
L 272.268872 237.163801 
L 273.570093 247.08067 
L 274.220703 250.076597 
L 274.871314 252.263564 
L 275.521924 236.366907 
L 276.172534 242.3789 
L 276.823144 246.533258 
L 278.124365 251.168938 
L 278.774975 236.076749 
L 280.076196 246.609881 
L 281.377417 251.148769 
L 282.028027 236.367022 
L 282.678637 241.891284 
L 283.979858 248.204119 
L 284.630468 249.14468 
L 285.281079 236.463376 
L 286.582299 246.077636 
L 287.232909 247.52348 
L 287.88352 250.487182 
L 288.53413 235.659877 
L 289.835351 245.410886 
L 291.136571 250.022269 
L 291.787182 236.203045 
L 292.437792 241.013885 
L 293.088402 244.72228 
L 293.739013 247.447094 
L 294.389623 248.665236 
L 295.040233 235.145842 
L 295.690844 240.519269 
L 296.992064 246.918592 
L 297.642674 248.467402 
L 298.293285 233.846023 
L 298.943895 239.552123 
L 299.594505 243.083373 
L 300.245116 245.301415 
L 300.895726 248.00676 
L 301.546336 234.924908 
L 302.847557 243.336163 
L 303.498167 245.377806 
L 304.148778 247.836068 
L 304.799388 234.898417 
L 306.100608 241.899485 
L 306.751219 244.230933 
L 307.401829 247.004442 
L 308.052439 234.658658 
L 308.70305 237.786127 
L 309.35366 241.958489 
L 310.00427 245.032252 
L 310.654881 245.832274 
L 311.305491 234.465101 
L 311.956101 238.744575 
L 312.606712 240.870303 
L 313.257322 244.284666 
L 313.907932 246.685463 
L 314.558543 233.065762 
L 315.209153 238.353011 
L 315.859763 241.954924 
L 317.160984 246.856821 
L 317.811594 233.889255 
L 319.112815 241.467482 
L 319.763425 244.234488 
L 320.414035 245.078443 
L 321.064646 235.747256 
L 322.365866 240.42814 
L 323.016477 243.362701 
L 323.667087 244.513184 
L 324.317697 233.422696 
L 324.968308 238.030333 
L 325.618918 240.694182 
L 326.269528 242.269915 
L 326.920138 245.510248 
L 327.570749 234.519468 
L 330.17319 245.064524 
L 330.8238 234.092735 
L 331.474411 237.087102 
L 332.125021 238.8056 
L 332.775631 241.862034 
L 333.426242 242.216897 
L 334.076852 233.742337 
L 334.727462 237.27127 
L 335.378073 238.817956 
L 336.028683 240.988452 
L 336.679293 242.172613 
L 337.329903 233.183459 
L 339.281734 242.241119 
L 339.932345 242.695883 
L 340.582955 233.066868 
L 341.884176 238.925507 
L 342.534786 241.05079 
L 343.185396 243.631502 
L 343.836007 232.925922 
L 344.486617 235.213378 
L 345.137227 238.715829 
L 345.787837 241.325269 
L 346.438448 243.373455 
L 347.089058 230.906078 
L 347.739668 234.042416 
L 348.390279 238.640681 
L 349.040889 240.504404 
L 349.691499 243.395402 
L 350.34211 230.9502 
L 352.293941 241.270732 
L 352.944551 242.018821 
L 353.595161 231.316215 
L 354.245772 234.930732 
L 354.896382 237.486252 
L 355.546992 240.649524 
L 356.197602 242.603874 
L 356.848213 230.589165 
L 358.800044 240.328214 
L 359.450654 241.935173 
L 360.101264 231.361243 
L 360.751875 235.690301 
L 361.402485 238.324149 
L 362.053095 240.374323 
L 362.703706 242.793144 
L 363.354316 229.732708 
L 364.655537 236.82191 
L 365.306147 240.818618 
L 365.956757 242.727174 
L 366.607367 229.8742 
L 368.559198 239.921378 
L 369.209809 241.387816 
L 369.860419 231.552423 
L 370.511029 235.727529 
L 371.16164 237.579555 
L 371.81225 240.709398 
L 372.46286 242.001601 
L 373.113471 229.480621 
L 373.764081 232.566795 
L 374.414691 236.393486 
L 375.065302 239.500531 
L 375.715912 240.786177 
L 376.366522 231.404803 
L 377.017132 233.9495 
L 377.667743 237.752404 
L 378.968963 242.932097 
L 379.619574 231.910792 
L 381.571405 241.13925 
L 382.222015 241.432269 
L 382.872625 229.36738 
L 383.523236 233.740846 
L 384.173846 235.95233 
L 384.824456 238.794295 
L 385.475066 240.33229 
L 386.125677 229.825945 
L 387.426897 237.581258 
L 388.077508 240.168398 
L 388.728118 241.800326 
L 389.378728 230.273147 
L 390.029339 234.525561 
L 391.330559 239.50827 
L 391.98117 242.179783 
L 392.63178 231.502693 
L 393.933001 237.416497 
L 394.583611 238.526562 
L 395.234221 243.354401 
L 395.884831 230.669435 
L 397.186052 235.97385 
L 397.836662 239.758725 
L 398.487273 241.517547 
L 398.487273 241.517547 
" clip-path="url(#p7dca59e424)" style="fill: none; stroke: #008000; stroke-width: 1.5; stroke-linecap: square"/>
   </g>
   <g id="line2d_14">
    <path d="M 0 0 
" clip-path="url(#p7dca59e424)" style="fill: none; stroke: #ff0000; stroke-width: 1.5; stroke-linecap: square"/>
   </g>
   <g id="patch_3">
    <path d="M 57.6 307.584 
L 57.6 41.472 
" style="fill: none; stroke: #000000; stroke-width: 0.8; stroke-linejoin: miter; stroke-linecap: square"/>
   </g>
   <g id="patch_4">
    <path d="M 414.72 307.584 
L 414.72 41.472 
" style="fill: none; stroke: #000000; stroke-width: 0.8; stroke-linejoin: miter; stroke-linecap: square"/>
   </g>
   <g id="patch_5">
    <path d="M 57.6 307.584 
L 414.72 307.584 
" style="fill: none; stroke: #000000; stroke-width: 0.8; stroke-linejoin: miter; stroke-linecap: square"/>
   </g>
   <g id="patch_6">
    <path d="M 57.6 41.472 
L 414.72 41.472 
" style="fill: none; stroke: #000000; stroke-width: 0.8; stroke-linejoin: miter; stroke-linecap: square"/>
   </g>
   <g id="text_14">
    <!-- The loss curve on flag_resnet/host/6 -->
    <g transform="translate(127.426875 35.472) scale(0.12 -0.12)">
     <defs>
      <path id="DejaVuSans-54" d="M -19 4666 
L 3928 4666 
L 3928 4134 
L 2272 4134 
L 2272 0 
L 1638 0 
L 1638 4134 
L -19 4134 
L -19 4666 
z
" transform="scale(0.015625)"/>
      <path id="DejaVuSans-72" d="M 2631 2963 
Q 2534 3019 2420 3045 
Q 2306 3072 2169 3072 
Q 1681 3072 1420 2755 
Q 1159 2438 1159 1844 
L 1159 0 
L 581 0 
L 581 3500 
L 1159 3500 
L 1159 2956 
Q 1341 3275 1631 3429 
Q 1922 3584 2338 3584 
Q 2397 3584 2469 3576 
Q 2541 3569 2628 3553 
L 2631 2963 
z
" transform="scale(0.015625)"/>
      <path id="DejaVuSans-6e" d="M 3513 2113 
L 3513 0 
L 2938 0 
L 2938 2094 
Q 2938 2591 2744 2837 
Q 2550 3084 2163 3084 
Q 1697 3084 1428 2787 
Q 1159 2491 1159 1978 
L 1159 0 
L 581 0 
L 581 3500 
L 1159 3500 
L 1159 2956 
Q 1366 3272 1645 3428 
Q 1925 3584 2291 3584 
Q 2894 3584 3203 3211 
Q 3513 2838 3513 2113 
z
" transform="scale(0.015625)"/>
      <path id="DejaVuSans-66" d="M 2375 4863 
L 2375 4384 
L 1825 4384 
Q 1516 4384 1395 4259 
Q 1275 4134 1275 3809 
L 1275 3500 
L 2222 3500 
L 2222 3053 
L 1275 3053 
L 1275 0 
L 697 0 
L 697 3053 
L 147 3053 
L 147 3500 
L 697 3500 
L 697 3744 
Q 697 4328 969 4595 
Q 1241 4863 1831 4863 
L 2375 4863 
z
" transform="scale(0.015625)"/>
      <path id="DejaVuSans-67" d="M 2906 1791 
Q 2906 2416 2648 2759 
Q 2391 3103 1925 3103 
Q 1463 3103 1205 2759 
Q 947 2416 947 1791 
Q 947 1169 1205 825 
Q 1463 481 1925 481 
Q 2391 481 2648 825 
Q 2906 1169 2906 1791 
z
M 3481 434 
Q 3481 -459 3084 -895 
Q 2688 -1331 1869 -1331 
Q 1566 -1331 1297 -1286 
Q 1028 -1241 775 -1147 
L 775 -588 
Q 1028 -725 1275 -790 
Q 1522 -856 1778 -856 
Q 2344 -856 2625 -561 
Q 2906 -266 2906 331 
L 2906 616 
Q 2728 306 2450 153 
Q 2172 0 1784 0 
Q 1141 0 747 490 
Q 353 981 353 1791 
Q 353 2603 747 3093 
Q 1141 3584 1784 3584 
Q 2172 3584 2450 3431 
Q 2728 3278 2906 2969 
L 2906 3500 
L 3481 3500 
L 3481 434 
z
" transform="scale(0.015625)"/>
      <path id="DejaVuSans-5f" d="M 3263 -1063 
L 3263 -1509 
L -63 -1509 
L -63 -1063 
L 3263 -1063 
z
" transform="scale(0.015625)"/>
      <path id="DejaVuSans-74" d="M 1172 4494 
L 1172 3500 
L 2356 3500 
L 2356 3053 
L 1172 3053 
L 1172 1153 
Q 1172 725 1289 603 
Q 1406 481 1766 481 
L 2356 481 
L 2356 0 
L 1766 0 
Q 1100 0 847 248 
Q 594 497 594 1153 
L 594 3053 
L 172 3053 
L 172 3500 
L 594 3500 
L 594 4494 
L 1172 4494 
z
" transform="scale(0.015625)"/>
      <path id="DejaVuSans-2f" d="M 1625 4666 
L 2156 4666 
L 531 -594 
L 0 -594 
L 1625 4666 
z
" transform="scale(0.015625)"/>
      <path id="DejaVuSans-36" d="M 2113 2584 
Q 1688 2584 1439 2293 
Q 1191 2003 1191 1497 
Q 1191 994 1439 701 
Q 1688 409 2113 409 
Q 2538 409 2786 701 
Q 3034 994 3034 1497 
Q 3034 2003 2786 2293 
Q 2538 2584 2113 2584 
z
M 3366 4563 
L 3366 3988 
Q 3128 4100 2886 4159 
Q 2644 4219 2406 4219 
Q 1781 4219 1451 3797 
Q 1122 3375 1075 2522 
Q 1259 2794 1537 2939 
Q 1816 3084 2150 3084 
Q 2853 3084 3261 2657 
Q 3669 2231 3669 1497 
Q 3669 778 3244 343 
Q 2819 -91 2113 -91 
Q 1303 -91 875 529 
Q 447 1150 447 2328 
Q 447 3434 972 4092 
Q 1497 4750 2381 4750 
Q 2619 4750 2861 4703 
Q 3103 4656 3366 4563 
z
" transform="scale(0.015625)"/>
     </defs>
     <use xlink:href="#DejaVuSans-54"/>
     <use xlink:href="#DejaVuSans-68" x="61.083984"/>
     <use xlink:href="#DejaVuSans-65" x="124.462891"/>
     <use xlink:href="#DejaVuSans-20" x="185.986328"/>
     <use xlink:href="#DejaVuSans-6c" x="217.773438"/>
     <use xlink:href="#DejaVuSans-6f" x="245.556641"/>
     <use xlink:href="#DejaVuSans-73" x="306.738281"/>
     <use xlink:href="#DejaVuSans-73" x="358.837891"/>
     <use xlink:href="#DejaVuSans-20" x="410.9375"/>
     <use xlink:href="#DejaVuSans-63" x="442.724609"/>
     <use xlink:href="#DejaVuSans-75" x="497.705078"/>
     <use xlink:href="#DejaVuSans-72" x="561.083984"/>
     <use xlink:href="#DejaVuSans-76" x="602.197266"/>
     <use xlink:href="#DejaVuSans-65" x="661.376953"/>
     <use xlink:href="#DejaVuSans-20" x="722.900391"/>
     <use xlink:href="#DejaVuSans-6f" x="754.6875"/>
     <use xlink:href="#DejaVuSans-6e" x="815.869141"/>
     <use xlink:href="#DejaVuSans-20" x="879.248047"/>
     <use xlink:href="#DejaVuSans-66" x="911.035156"/>
     <use xlink:href="#DejaVuSans-6c" x="946.240234"/>
     <use xlink:href="#DejaVuSans-61" x="974.023438"/>
     <use xlink:href="#DejaVuSans-67" x="1035.302734"/>
     <use xlink:href="#DejaVuSans-5f" x="1098.779297"/>
     <use xlink:href="#DejaVuSans-72" x="1148.779297"/>
     <use xlink:href="#DejaVuSans-65" x="1187.642578"/>
     <use xlink:href="#DejaVuSans-73" x="1249.166016"/>
     <use xlink:href="#DejaVuSans-6e" x="1301.265625"/>
     <use xlink:href="#DejaVuSans-65" x="1364.644531"/>
     <use xlink:href="#DejaVuSans-74" x="1426.167969"/>
     <use xlink:href="#DejaVuSans-2f" x="1465.376953"/>
     <use xlink:href="#DejaVuSans-68" x="1499.068359"/>
     <use xlink:href="#DejaVuSans-6f" x="1562.447266"/>
     <use xlink:href="#DejaVuSans-73" x="1623.628906"/>
     <use xlink:href="#DejaVuSans-74" x="1675.728516"/>
     <use xlink:href="#DejaVuSans-2f" x="1714.9375"/>
     <use xlink:href="#DejaVuSans-36" x="1748.628906"/>
    </g>
   </g>
   <g id="legend_1">
    <g id="patch_7">
     <path d="M 317.418438 94.34075 
L 407.72 94.34075 
Q 409.72 94.34075 409.72 92.34075 
L 409.72 48.472 
Q 409.72 46.472 407.72 46.472 
L 317.418438 46.472 
Q 315.418438 46.472 315.418438 48.472 
L 315.418438 92.34075 
Q 315.418438 94.34075 317.418438 94.34075 
z
" style="fill: #ffffff; opacity: 0.8; stroke: #cccccc; stroke-linejoin: miter"/>
    </g>
    <g id="line2d_15">
     <path d="M 319.418438 54.570438 
L 329.418438 54.570438 
L 339.418438 54.570438 
" style="fill: none; stroke: #0000ff; stroke-width: 1.5; stroke-linecap: square"/>
    </g>
    <g id="text_15">
     <!-- obj_loss -->
     <g transform="translate(347.418438 58.070438) scale(0.1 -0.1)">
      <defs>
       <path id="DejaVuSans-62" d="M 3116 1747 
Q 3116 2381 2855 2742 
Q 2594 3103 2138 3103 
Q 1681 3103 1420 2742 
Q 1159 2381 1159 1747 
Q 1159 1113 1420 752 
Q 1681 391 2138 391 
Q 2594 391 2855 752 
Q 3116 1113 3116 1747 
z
M 1159 2969 
Q 1341 3281 1617 3432 
Q 1894 3584 2278 3584 
Q 2916 3584 3314 3078 
Q 3713 2572 3713 1747 
Q 3713 922 3314 415 
Q 2916 -91 2278 -91 
Q 1894 -91 1617 61 
Q 1341 213 1159 525 
L 1159 0 
L 581 0 
L 581 4863 
L 1159 4863 
L 1159 2969 
z
" transform="scale(0.015625)"/>
       <path id="DejaVuSans-6a" d="M 603 3500 
L 1178 3500 
L 1178 -63 
Q 1178 -731 923 -1031 
Q 669 -1331 103 -1331 
L -116 -1331 
L -116 -844 
L 38 -844 
Q 366 -844 484 -692 
Q 603 -541 603 -63 
L 603 3500 
z
M 603 4863 
L 1178 4863 
L 1178 4134 
L 603 4134 
L 603 4863 
z
" transform="scale(0.015625)"/>
      </defs>
      <use xlink:href="#DejaVuSans-6f"/>
      <use xlink:href="#DejaVuSans-62" x="61.181641"/>
      <use xlink:href="#DejaVuSans-6a" x="124.658203"/>
      <use xlink:href="#DejaVuSans-5f" x="152.441406"/>
      <use xlink:href="#DejaVuSans-6c" x="202.441406"/>
      <use xlink:href="#DejaVuSans-6f" x="230.224609"/>
      <use xlink:href="#DejaVuSans-73" x="291.40625"/>
      <use xlink:href="#DejaVuSans-73" x="343.505859"/>
     </g>
    </g>
    <g id="line2d_16">
     <path d="M 319.418438 69.526688 
L 329.418438 69.526688 
L 339.418438 69.526688 
" style="fill: none; stroke: #008000; stroke-width: 1.5; stroke-linecap: square"/>
    </g>
    <g id="text_16">
     <!-- reg_loss -->
     <g transform="translate(347.418438 73.026688) scale(0.1 -0.1)">
      <use xlink:href="#DejaVuSans-72"/>
      <use xlink:href="#DejaVuSans-65" x="38.863281"/>
      <use xlink:href="#DejaVuSans-67" x="100.386719"/>
      <use xlink:href="#DejaVuSans-5f" x="163.863281"/>
      <use xlink:href="#DejaVuSans-6c" x="213.863281"/>
      <use xlink:href="#DejaVuSans-6f" x="241.646484"/>
      <use xlink:href="#DejaVuSans-73" x="302.828125"/>
      <use xlink:href="#DejaVuSans-73" x="354.927734"/>
     </g>
    </g>
    <g id="line2d_17">
     <path d="M 319.418438 84.482938 
L 329.418438 84.482938 
L 339.418438 84.482938 
" style="fill: none; stroke: #ff0000; stroke-width: 1.5; stroke-linecap: square"/>
    </g>
    <g id="text_17">
     <!-- overall_loss -->
     <g transform="translate(347.418438 87.982938) scale(0.1 -0.1)">
      <use xlink:href="#DejaVuSans-6f"/>
      <use xlink:href="#DejaVuSans-76" x="61.181641"/>
      <use xlink:href="#DejaVuSans-65" x="120.361328"/>
      <use xlink:href="#DejaVuSans-72" x="181.884766"/>
      <use xlink:href="#DejaVuSans-61" x="222.998047"/>
      <use xlink:href="#DejaVuSans-6c" x="284.277344"/>
      <use xlink:href="#DejaVuSans-6c" x="312.060547"/>
      <use xlink:href="#DejaVuSans-5f" x="339.84375"/>
      <use xlink:href="#DejaVuSans-6c" x="389.84375"/>
      <use xlink:href="#DejaVuSans-6f" x="417.626953"/>
      <use xlink:href="#DejaVuSans-73" x="478.808594"/>
      <use xlink:href="#DejaVuSans-73" x="530.908203"/>
     </g>
    </g>
   </g>
  </g>
 </g>
 <defs>
  <clipPath id="p7dca59e424">
   <rect x="57.6" y="41.472" width="357.12" height="266.112"/>
  </clipPath>
 </defs>
</svg>
