<?xml version="1.0" encoding="utf-8" standalone="no"?>
<!DOCTYPE svg PUBLIC "-//W3C//DTD SVG 1.1//EN"
  "http://www.w3.org/Graphics/SVG/1.1/DTD/svg11.dtd">
<svg xmlns:xlink="http://www.w3.org/1999/xlink" width="460.8pt" height="345.6pt" viewBox="0 0 460.8 345.6" xmlns="http://www.w3.org/2000/svg" version="1.1">
 <metadata>
  <rdf:RDF xmlns:dc="http://purl.org/dc/elements/1.1/" xmlns:cc="http://creativecommons.org/ns#" xmlns:rdf="http://www.w3.org/1999/02/22-rdf-syntax-ns#">
   <cc:Work>
    <dc:type rdf:resource="http://purl.org/dc/dcmitype/StillImage"/>
    <dc:date>2023-06-19T00:39:04.078998</dc:date>
    <dc:format>image/svg+xml</dc:format>
    <dc:creator>
     <cc:Agent>
      <dc:title>Matplotlib v3.7.1, https://matplotlib.org/</dc:title>
     </cc:Agent>
    </dc:creator>
   </cc:Work>
  </rdf:RDF>
 </metadata>
 <defs>
  <style type="text/css">*{stroke-linejoin: round; stroke-linecap: butt}</style>
 </defs>
 <g id="figure_1">
  <g id="patch_1">
   <path d="M 0 345.6 
L 460.8 345.6 
L 460.8 0 
L 0 0 
z
" style="fill: #ffffff"/>
  </g>
  <g id="axes_1">
   <g id="patch_2">
    <path d="M 57.6 307.584 
L 414.72 307.584 
L 414.72 41.472 
L 57.6 41.472 
z
" style="fill: #ffffff"/>
   </g>
   <g id="matplotlib.axis_1">
    <g id="xtick_1">
     <g id="line2d_1">
      <defs>
       <path id="m53e265ed37" d="M 0 0 
L 0 3.5 
" style="stroke: #000000; stroke-width: 0.8"/>
      </defs>
      <g>
       <use xlink:href="#m53e265ed37" x="73.832727" y="307.584" style="stroke: #000000; stroke-width: 0.8"/>
      </g>
     </g>
     <g id="text_1">
      <!-- 0 -->
      <g transform="translate(70.651477 322.182437) scale(0.1 -0.1)">
       <defs>
        <path id="DejaVuSans-30" d="M 2034 4250 
Q 1547 4250 1301 3770 
Q 1056 3291 1056 2328 
Q 1056 1369 1301 889 
Q 1547 409 2034 409 
Q 2525 409 2770 889 
Q 3016 1369 3016 2328 
Q 3016 3291 2770 3770 
Q 2525 4250 2034 4250 
z
M 2034 4750 
Q 2819 4750 3233 4129 
Q 3647 3509 3647 2328 
Q 3647 1150 3233 529 
Q 2819 -91 2034 -91 
Q 1250 -91 836 529 
Q 422 1150 422 2328 
Q 422 3509 836 4129 
Q 1250 4750 2034 4750 
z
" transform="scale(0.015625)"/>
       </defs>
       <use xlink:href="#DejaVuSans-30"/>
      </g>
     </g>
    </g>
    <g id="xtick_2">
     <g id="line2d_2">
      <g>
       <use xlink:href="#m53e265ed37" x="138.893758" y="307.584" style="stroke: #000000; stroke-width: 0.8"/>
      </g>
     </g>
     <g id="text_2">
      <!-- 100 -->
      <g transform="translate(129.350008 322.182437) scale(0.1 -0.1)">
       <defs>
        <path id="DejaVuSans-31" d="M 794 531 
L 1825 531 
L 1825 4091 
L 703 3866 
L 703 4441 
L 1819 4666 
L 2450 4666 
L 2450 531 
L 3481 531 
L 3481 0 
L 794 0 
L 794 531 
z
" transform="scale(0.015625)"/>
       </defs>
       <use xlink:href="#DejaVuSans-31"/>
       <use xlink:href="#DejaVuSans-30" x="63.623047"/>
       <use xlink:href="#DejaVuSans-30" x="127.246094"/>
      </g>
     </g>
    </g>
    <g id="xtick_3">
     <g id="line2d_3">
      <g>
       <use xlink:href="#m53e265ed37" x="203.95479" y="307.584" style="stroke: #000000; stroke-width: 0.8"/>
      </g>
     </g>
     <g id="text_3">
      <!-- 200 -->
      <g transform="translate(194.41104 322.182437) scale(0.1 -0.1)">
       <defs>
        <path id="DejaVuSans-32" d="M 1228 531 
L 3431 531 
L 3431 0 
L 469 0 
L 469 531 
Q 828 903 1448 1529 
Q 2069 2156 2228 2338 
Q 2531 2678 2651 2914 
Q 2772 3150 2772 3378 
Q 2772 3750 2511 3984 
Q 2250 4219 1831 4219 
Q 1534 4219 1204 4116 
Q 875 4013 500 3803 
L 500 4441 
Q 881 4594 1212 4672 
Q 1544 4750 1819 4750 
Q 2544 4750 2975 4387 
Q 3406 4025 3406 3419 
Q 3406 3131 3298 2873 
Q 3191 2616 2906 2266 
Q 2828 2175 2409 1742 
Q 1991 1309 1228 531 
z
" transform="scale(0.015625)"/>
       </defs>
       <use xlink:href="#DejaVuSans-32"/>
       <use xlink:href="#DejaVuSans-30" x="63.623047"/>
       <use xlink:href="#DejaVuSans-30" x="127.246094"/>
      </g>
     </g>
    </g>
    <g id="xtick_4">
     <g id="line2d_4">
      <g>
       <use xlink:href="#m53e265ed37" x="269.015821" y="307.584" style="stroke: #000000; stroke-width: 0.8"/>
      </g>
     </g>
     <g id="text_4">
      <!-- 300 -->
      <g transform="translate(259.472071 322.182437) scale(0.1 -0.1)">
       <defs>
        <path id="DejaVuSans-33" d="M 2597 2516 
Q 3050 2419 3304 2112 
Q 3559 1806 3559 1356 
Q 3559 666 3084 287 
Q 2609 -91 1734 -91 
Q 1441 -91 1130 -33 
Q 819 25 488 141 
L 488 750 
Q 750 597 1062 519 
Q 1375 441 1716 441 
Q 2309 441 2620 675 
Q 2931 909 2931 1356 
Q 2931 1769 2642 2001 
Q 2353 2234 1838 2234 
L 1294 2234 
L 1294 2753 
L 1863 2753 
Q 2328 2753 2575 2939 
Q 2822 3125 2822 3475 
Q 2822 3834 2567 4026 
Q 2313 4219 1838 4219 
Q 1578 4219 1281 4162 
Q 984 4106 628 3988 
L 628 4550 
Q 988 4650 1302 4700 
Q 1616 4750 1894 4750 
Q 2613 4750 3031 4423 
Q 3450 4097 3450 3541 
Q 3450 3153 3228 2886 
Q 3006 2619 2597 2516 
z
" transform="scale(0.015625)"/>
       </defs>
       <use xlink:href="#DejaVuSans-33"/>
       <use xlink:href="#DejaVuSans-30" x="63.623047"/>
       <use xlink:href="#DejaVuSans-30" x="127.246094"/>
      </g>
     </g>
    </g>
    <g id="xtick_5">
     <g id="line2d_5">
      <g>
       <use xlink:href="#m53e265ed37" x="334.076852" y="307.584" style="stroke: #000000; stroke-width: 0.8"/>
      </g>
     </g>
     <g id="text_5">
      <!-- 400 -->
      <g transform="translate(324.533102 322.182437) scale(0.1 -0.1)">
       <defs>
        <path id="DejaVuSans-34" d="M 2419 4116 
L 825 1625 
L 2419 1625 
L 2419 4116 
z
M 2253 4666 
L 3047 4666 
L 3047 1625 
L 3713 1625 
L 3713 1100 
L 3047 1100 
L 3047 0 
L 2419 0 
L 2419 1100 
L 313 1100 
L 313 1709 
L 2253 4666 
z
" transform="scale(0.015625)"/>
       </defs>
       <use xlink:href="#DejaVuSans-34"/>
       <use xlink:href="#DejaVuSans-30" x="63.623047"/>
       <use xlink:href="#DejaVuSans-30" x="127.246094"/>
      </g>
     </g>
    </g>
    <g id="xtick_6">
     <g id="line2d_6">
      <g>
       <use xlink:href="#m53e265ed37" x="399.137883" y="307.584" style="stroke: #000000; stroke-width: 0.8"/>
      </g>
     </g>
     <g id="text_6">
      <!-- 500 -->
      <g transform="translate(389.594133 322.182437) scale(0.1 -0.1)">
       <defs>
        <path id="DejaVuSans-35" d="M 691 4666 
L 3169 4666 
L 3169 4134 
L 1269 4134 
L 1269 2991 
Q 1406 3038 1543 3061 
Q 1681 3084 1819 3084 
Q 2600 3084 3056 2656 
Q 3513 2228 3513 1497 
Q 3513 744 3044 326 
Q 2575 -91 1722 -91 
Q 1428 -91 1123 -41 
Q 819 9 494 109 
L 494 744 
Q 775 591 1075 516 
Q 1375 441 1709 441 
Q 2250 441 2565 725 
Q 2881 1009 2881 1497 
Q 2881 1984 2565 2268 
Q 2250 2553 1709 2553 
Q 1456 2553 1204 2497 
Q 953 2441 691 2322 
L 691 4666 
z
" transform="scale(0.015625)"/>
       </defs>
       <use xlink:href="#DejaVuSans-35"/>
       <use xlink:href="#DejaVuSans-30" x="63.623047"/>
       <use xlink:href="#DejaVuSans-30" x="127.246094"/>
      </g>
     </g>
    </g>
    <g id="text_7">
     <!-- epoch -->
     <g transform="translate(220.931875 335.860562) scale(0.1 -0.1)">
      <defs>
       <path id="DejaVuSans-65" d="M 3597 1894 
L 3597 1613 
L 953 1613 
Q 991 1019 1311 708 
Q 1631 397 2203 397 
Q 2534 397 2845 478 
Q 3156 559 3463 722 
L 3463 178 
Q 3153 47 2828 -22 
Q 2503 -91 2169 -91 
Q 1331 -91 842 396 
Q 353 884 353 1716 
Q 353 2575 817 3079 
Q 1281 3584 2069 3584 
Q 2775 3584 3186 3129 
Q 3597 2675 3597 1894 
z
M 3022 2063 
Q 3016 2534 2758 2815 
Q 2500 3097 2075 3097 
Q 1594 3097 1305 2825 
Q 1016 2553 972 2059 
L 3022 2063 
z
" transform="scale(0.015625)"/>
       <path id="DejaVuSans-70" d="M 1159 525 
L 1159 -1331 
L 581 -1331 
L 581 3500 
L 1159 3500 
L 1159 2969 
Q 1341 3281 1617 3432 
Q 1894 3584 2278 3584 
Q 2916 3584 3314 3078 
Q 3713 2572 3713 1747 
Q 3713 922 3314 415 
Q 2916 -91 2278 -91 
Q 1894 -91 1617 61 
Q 1341 213 1159 525 
z
M 3116 1747 
Q 3116 2381 2855 2742 
Q 2594 3103 2138 3103 
Q 1681 3103 1420 2742 
Q 1159 2381 1159 1747 
Q 1159 1113 1420 752 
Q 1681 391 2138 391 
Q 2594 391 2855 752 
Q 3116 1113 3116 1747 
z
" transform="scale(0.015625)"/>
       <path id="DejaVuSans-6f" d="M 1959 3097 
Q 1497 3097 1228 2736 
Q 959 2375 959 1747 
Q 959 1119 1226 758 
Q 1494 397 1959 397 
Q 2419 397 2687 759 
Q 2956 1122 2956 1747 
Q 2956 2369 2687 2733 
Q 2419 3097 1959 3097 
z
M 1959 3584 
Q 2709 3584 3137 3096 
Q 3566 2609 3566 1747 
Q 3566 888 3137 398 
Q 2709 -91 1959 -91 
Q 1206 -91 779 398 
Q 353 888 353 1747 
Q 353 2609 779 3096 
Q 1206 3584 1959 3584 
z
" transform="scale(0.015625)"/>
       <path id="DejaVuSans-63" d="M 3122 3366 
L 3122 2828 
Q 2878 2963 2633 3030 
Q 2388 3097 2138 3097 
Q 1578 3097 1268 2742 
Q 959 2388 959 1747 
Q 959 1106 1268 751 
Q 1578 397 2138 397 
Q 2388 397 2633 464 
Q 2878 531 3122 666 
L 3122 134 
Q 2881 22 2623 -34 
Q 2366 -91 2075 -91 
Q 1284 -91 818 406 
Q 353 903 353 1747 
Q 353 2603 823 3093 
Q 1294 3584 2113 3584 
Q 2378 3584 2631 3529 
Q 2884 3475 3122 3366 
z
" transform="scale(0.015625)"/>
       <path id="DejaVuSans-68" d="M 3513 2113 
L 3513 0 
L 2938 0 
L 2938 2094 
Q 2938 2591 2744 2837 
Q 2550 3084 2163 3084 
Q 1697 3084 1428 2787 
Q 1159 2491 1159 1978 
L 1159 0 
L 581 0 
L 581 4863 
L 1159 4863 
L 1159 2956 
Q 1366 3272 1645 3428 
Q 1925 3584 2291 3584 
Q 2894 3584 3203 3211 
Q 3513 2838 3513 2113 
z
" transform="scale(0.015625)"/>
      </defs>
      <use xlink:href="#DejaVuSans-65"/>
      <use xlink:href="#DejaVuSans-70" x="61.523438"/>
      <use xlink:href="#DejaVuSans-6f" x="125"/>
      <use xlink:href="#DejaVuSans-63" x="186.181641"/>
      <use xlink:href="#DejaVuSans-68" x="241.162109"/>
     </g>
    </g>
   </g>
   <g id="matplotlib.axis_2">
    <g id="ytick_1">
     <g id="line2d_7">
      <defs>
       <path id="mcd91d2efe3" d="M 0 0 
L -3.5 0 
" style="stroke: #000000; stroke-width: 0.8"/>
      </defs>
      <g>
       <use xlink:href="#mcd91d2efe3" x="57.6" y="287.285932" style="stroke: #000000; stroke-width: 0.8"/>
      </g>
     </g>
     <g id="text_8">
      <!-- 0.1 -->
      <g transform="translate(34.696875 291.085151) scale(0.1 -0.1)">
       <defs>
        <path id="DejaVuSans-2e" d="M 684 794 
L 1344 794 
L 1344 0 
L 684 0 
L 684 794 
z
" transform="scale(0.015625)"/>
       </defs>
       <use xlink:href="#DejaVuSans-30"/>
       <use xlink:href="#DejaVuSans-2e" x="63.623047"/>
       <use xlink:href="#DejaVuSans-31" x="95.410156"/>
      </g>
     </g>
    </g>
    <g id="ytick_2">
     <g id="line2d_8">
      <g>
       <use xlink:href="#mcd91d2efe3" x="57.6" y="230.169313" style="stroke: #000000; stroke-width: 0.8"/>
      </g>
     </g>
     <g id="text_9">
      <!-- 0.2 -->
      <g transform="translate(34.696875 233.968531) scale(0.1 -0.1)">
       <use xlink:href="#DejaVuSans-30"/>
       <use xlink:href="#DejaVuSans-2e" x="63.623047"/>
       <use xlink:href="#DejaVuSans-32" x="95.410156"/>
      </g>
     </g>
    </g>
    <g id="ytick_3">
     <g id="line2d_9">
      <g>
       <use xlink:href="#mcd91d2efe3" x="57.6" y="173.052693" style="stroke: #000000; stroke-width: 0.8"/>
      </g>
     </g>
     <g id="text_10">
      <!-- 0.3 -->
      <g transform="translate(34.696875 176.851912) scale(0.1 -0.1)">
       <use xlink:href="#DejaVuSans-30"/>
       <use xlink:href="#DejaVuSans-2e" x="63.623047"/>
       <use xlink:href="#DejaVuSans-33" x="95.410156"/>
      </g>
     </g>
    </g>
    <g id="ytick_4">
     <g id="line2d_10">
      <g>
       <use xlink:href="#mcd91d2efe3" x="57.6" y="115.936073" style="stroke: #000000; stroke-width: 0.8"/>
      </g>
     </g>
     <g id="text_11">
      <!-- 0.4 -->
      <g transform="translate(34.696875 119.735292) scale(0.1 -0.1)">
       <use xlink:href="#DejaVuSans-30"/>
       <use xlink:href="#DejaVuSans-2e" x="63.623047"/>
       <use xlink:href="#DejaVuSans-34" x="95.410156"/>
      </g>
     </g>
    </g>
    <g id="ytick_5">
     <g id="line2d_11">
      <g>
       <use xlink:href="#mcd91d2efe3" x="57.6" y="58.819453" style="stroke: #000000; stroke-width: 0.8"/>
      </g>
     </g>
     <g id="text_12">
      <!-- 0.5 -->
      <g transform="translate(34.696875 62.618672) scale(0.1 -0.1)">
       <use xlink:href="#DejaVuSans-30"/>
       <use xlink:href="#DejaVuSans-2e" x="63.623047"/>
       <use xlink:href="#DejaVuSans-35" x="95.410156"/>
      </g>
     </g>
    </g>
    <g id="text_13">
     <!-- loss value -->
     <g transform="translate(28.617187 199.432687) rotate(-90) scale(0.1 -0.1)">
      <defs>
       <path id="DejaVuSans-6c" d="M 603 4863 
L 1178 4863 
L 1178 0 
L 603 0 
L 603 4863 
z
" transform="scale(0.015625)"/>
       <path id="DejaVuSans-73" d="M 2834 3397 
L 2834 2853 
Q 2591 2978 2328 3040 
Q 2066 3103 1784 3103 
Q 1356 3103 1142 2972 
Q 928 2841 928 2578 
Q 928 2378 1081 2264 
Q 1234 2150 1697 2047 
L 1894 2003 
Q 2506 1872 2764 1633 
Q 3022 1394 3022 966 
Q 3022 478 2636 193 
Q 2250 -91 1575 -91 
Q 1294 -91 989 -36 
Q 684 19 347 128 
L 347 722 
Q 666 556 975 473 
Q 1284 391 1588 391 
Q 1994 391 2212 530 
Q 2431 669 2431 922 
Q 2431 1156 2273 1281 
Q 2116 1406 1581 1522 
L 1381 1569 
Q 847 1681 609 1914 
Q 372 2147 372 2553 
Q 372 3047 722 3315 
Q 1072 3584 1716 3584 
Q 2034 3584 2315 3537 
Q 2597 3491 2834 3397 
z
" transform="scale(0.015625)"/>
       <path id="DejaVuSans-20" transform="scale(0.015625)"/>
       <path id="DejaVuSans-76" d="M 191 3500 
L 800 3500 
L 1894 563 
L 2988 3500 
L 3597 3500 
L 2284 0 
L 1503 0 
L 191 3500 
z
" transform="scale(0.015625)"/>
       <path id="DejaVuSans-61" d="M 2194 1759 
Q 1497 1759 1228 1600 
Q 959 1441 959 1056 
Q 959 750 1161 570 
Q 1363 391 1709 391 
Q 2188 391 2477 730 
Q 2766 1069 2766 1631 
L 2766 1759 
L 2194 1759 
z
M 3341 1997 
L 3341 0 
L 2766 0 
L 2766 531 
Q 2569 213 2275 61 
Q 1981 -91 1556 -91 
Q 1019 -91 701 211 
Q 384 513 384 1019 
Q 384 1609 779 1909 
Q 1175 2209 1959 2209 
L 2766 2209 
L 2766 2266 
Q 2766 2663 2505 2880 
Q 2244 3097 1772 3097 
Q 1472 3097 1187 3025 
Q 903 2953 641 2809 
L 641 3341 
Q 956 3463 1253 3523 
Q 1550 3584 1831 3584 
Q 2591 3584 2966 3190 
Q 3341 2797 3341 1997 
z
" transform="scale(0.015625)"/>
       <path id="DejaVuSans-75" d="M 544 1381 
L 544 3500 
L 1119 3500 
L 1119 1403 
Q 1119 906 1312 657 
Q 1506 409 1894 409 
Q 2359 409 2629 706 
Q 2900 1003 2900 1516 
L 2900 3500 
L 3475 3500 
L 3475 0 
L 2900 0 
L 2900 538 
Q 2691 219 2414 64 
Q 2138 -91 1772 -91 
Q 1169 -91 856 284 
Q 544 659 544 1381 
z
M 1991 3584 
L 1991 3584 
z
" transform="scale(0.015625)"/>
      </defs>
      <use xlink:href="#DejaVuSans-6c"/>
      <use xlink:href="#DejaVuSans-6f" x="27.783203"/>
      <use xlink:href="#DejaVuSans-73" x="88.964844"/>
      <use xlink:href="#DejaVuSans-73" x="141.064453"/>
      <use xlink:href="#DejaVuSans-20" x="193.164062"/>
      <use xlink:href="#DejaVuSans-76" x="224.951172"/>
      <use xlink:href="#DejaVuSans-61" x="284.130859"/>
      <use xlink:href="#DejaVuSans-6c" x="345.410156"/>
      <use xlink:href="#DejaVuSans-75" x="373.193359"/>
      <use xlink:href="#DejaVuSans-65" x="436.572266"/>
     </g>
    </g>
   </g>
   <g id="line2d_12">
    <path d="M 73.832727 70.930584 
L 74.483338 264.294921 
L 75.133948 280.353093 
L 75.784558 284.352863 
L 76.435169 286.88891 
L 77.085779 239.635386 
L 77.736389 279.512792 
L 78.386999 283.269156 
L 79.03761 285.84545 
L 79.68822 287.404023 
L 80.33883 252.798293 
L 80.989441 281.511062 
L 81.640051 284.686269 
L 82.290661 286.819009 
L 82.941272 287.969919 
L 83.591882 267.917686 
L 84.242492 283.745311 
L 84.893103 285.900818 
L 85.543713 287.608915 
L 86.194323 288.898777 
L 86.844934 268.264923 
L 87.495544 283.845421 
L 88.146154 286.766577 
L 88.796764 288.548269 
L 89.447375 289.27756 
L 90.097985 270.876333 
L 90.748595 285.305519 
L 92.049816 288.910923 
L 92.700426 290.107177 
L 93.351037 273.07288 
L 94.001647 286.699851 
L 94.652257 288.712407 
L 95.302868 290.098051 
L 95.953478 291.069501 
L 96.604088 272.517327 
L 97.254698 286.685198 
L 97.905309 288.882858 
L 99.206529 291.531538 
L 99.85714 274.066482 
L 100.50775 287.919657 
L 101.15836 289.039564 
L 101.808971 291.102956 
L 102.459581 291.909773 
L 103.110191 271.476249 
L 103.760802 287.136342 
L 104.411412 289.706204 
L 105.062022 291.357392 
L 105.712633 291.837863 
L 106.363243 274.821371 
L 107.013853 288.312608 
L 108.315074 291.921867 
L 108.965684 293.016099 
L 109.616294 272.542555 
L 110.266905 287.873156 
L 110.917515 290.217517 
L 111.568125 291.601107 
L 112.218736 292.539582 
L 112.869346 276.939659 
L 113.519956 289.436252 
L 114.170567 291.376507 
L 114.821177 292.83825 
L 115.471787 293.775186 
L 116.122398 273.969596 
L 116.773008 289.104573 
L 117.423618 291.35271 
L 118.724839 293.886239 
L 119.375449 276.371809 
L 120.026059 289.541696 
L 120.67667 291.709914 
L 121.32728 293.047793 
L 121.97789 293.693271 
L 122.628501 274.332759 
L 123.279111 289.173349 
L 123.929721 292.027599 
L 125.230942 293.968291 
L 125.881552 277.167848 
L 126.532163 290.389606 
L 127.833383 293.351952 
L 128.483993 294.111469 
L 129.134604 275.299415 
L 129.785214 290.551063 
L 130.435824 292.371764 
L 131.086435 293.733132 
L 131.737045 294.432106 
L 132.387655 274.00511 
L 133.038266 290.627247 
L 133.688876 292.816727 
L 134.990097 295.110493 
L 135.640707 276.72241 
L 136.291317 291.133743 
L 136.941927 293.105796 
L 138.243148 295.488 
L 138.893758 276.590806 
L 139.544369 290.331534 
L 140.194979 291.834407 
L 141.4962 292.92219 
L 142.14681 271.529332 
L 142.79742 286.198215 
L 143.448031 291.069609 
L 144.098641 292.024388 
L 144.749251 292.581237 
L 145.399862 266.377863 
L 146.050472 283.554674 
L 146.701082 289.171486 
L 147.351692 290.763959 
L 148.002303 291.902916 
L 148.652913 267.687203 
L 149.303523 283.855824 
L 149.954134 289.701587 
L 150.604744 291.290412 
L 151.255354 292.246591 
L 151.905965 269.744244 
L 152.556575 283.687679 
L 153.207185 289.930869 
L 154.508406 292.462268 
L 155.159016 271.103305 
L 155.809627 284.785923 
L 156.460237 290.050993 
L 157.110847 291.427576 
L 157.761457 292.381981 
L 158.412068 267.622823 
L 159.062678 282.67297 
L 159.713288 288.93779 
L 160.363899 290.914052 
L 161.014509 291.502813 
L 161.665119 269.001125 
L 162.31573 283.224129 
L 162.96634 289.215402 
L 163.61695 290.953088 
L 164.267561 292.188047 
L 164.918171 267.836046 
L 165.568781 280.944102 
L 166.219392 288.182141 
L 166.870002 291.36901 
L 167.520612 291.922697 
L 168.171222 269.092208 
L 168.821833 280.649707 
L 169.472443 288.346997 
L 170.123053 291.22295 
L 170.773664 291.966039 
L 171.424274 267.69697 
L 172.074884 280.428144 
L 172.725495 287.558061 
L 173.376105 290.63277 
L 174.026715 291.549445 
L 174.677326 269.114039 
L 175.327936 280.798576 
L 175.978546 288.119815 
L 176.629156 290.593095 
L 177.279767 290.987035 
L 177.930377 269.87788 
L 178.580987 281.445663 
L 179.231598 287.851254 
L 179.882208 290.729665 
L 180.532818 291.223346 
L 181.183429 269.500581 
L 181.834039 279.676579 
L 182.484649 286.353711 
L 183.13526 289.501984 
L 183.78587 291.108809 
L 184.43648 270.277262 
L 185.087091 280.719581 
L 185.737701 287.049666 
L 186.388311 290.0241 
L 187.038921 291.858261 
L 187.689532 272.413174 
L 188.340142 281.276884 
L 188.990752 287.269742 
L 189.641363 289.893354 
L 190.291973 290.982068 
L 190.942583 263.519461 
L 191.593194 275.373002 
L 192.243804 283.099504 
L 192.894414 287.265979 
L 193.545025 289.759629 
L 194.195635 266.703191 
L 194.846245 277.542236 
L 195.496856 284.268747 
L 196.147466 288.120841 
L 196.798076 291.009657 
L 197.448686 269.186231 
L 198.099297 277.990022 
L 198.749907 284.400202 
L 199.400517 288.41742 
L 200.051128 289.884692 
L 200.701738 261.589386 
L 201.352348 272.97762 
L 202.002959 281.609794 
L 202.653569 285.878921 
L 203.304179 288.386117 
L 203.95479 269.035229 
L 204.6054 277.453511 
L 205.25601 283.838012 
L 205.906621 287.492456 
L 206.557231 289.355591 
L 207.207841 265.11253 
L 207.858451 274.716967 
L 208.509062 281.47438 
L 209.159672 285.822573 
L 209.810282 288.117689 
L 210.460893 263.770745 
L 211.111503 273.800625 
L 211.762113 280.240805 
L 212.412724 284.819072 
L 213.063334 287.213141 
L 213.713944 267.887648 
L 215.015165 282.137085 
L 215.665775 286.357301 
L 216.316385 289.0842 
L 216.966996 265.049148 
L 217.617606 274.199862 
L 218.268216 280.244333 
L 218.918827 284.64583 
L 219.569437 287.607119 
L 220.220047 264.64539 
L 220.870658 273.167401 
L 222.171878 284.336159 
L 222.822489 287.145772 
L 223.473099 265.425797 
L 224.77432 279.712262 
L 225.42493 283.802524 
L 226.07554 286.147099 
L 226.72615 268.094344 
L 227.376761 275.295176 
L 228.027371 280.224305 
L 228.677981 284.144716 
L 229.328592 286.816168 
L 229.979202 259.837827 
L 230.629812 268.087811 
L 231.280423 274.511651 
L 231.931033 279.817622 
L 232.581643 283.966215 
L 233.232254 267.95464 
L 233.882864 274.632823 
L 234.533474 279.559894 
L 235.184085 282.372482 
L 235.834695 285.82235 
L 236.485305 267.30491 
L 237.786526 278.728755 
L 239.087746 284.660705 
L 239.738357 261.766843 
L 240.388967 269.268663 
L 241.690188 279.07346 
L 242.340798 282.623557 
L 242.991408 266.468878 
L 243.642019 272.842756 
L 244.292629 276.348129 
L 244.943239 280.973347 
L 245.59385 283.483676 
L 246.24446 264.870311 
L 246.89507 271.72446 
L 248.846901 282.964751 
L 249.497511 259.969459 
L 250.148122 266.781847 
L 251.449342 276.598747 
L 252.099953 280.060319 
L 252.750563 264.190743 
L 253.401173 269.964392 
L 254.702394 278.799688 
L 255.353004 281.373928 
L 256.003615 265.37117 
L 257.304835 275.21108 
L 258.606056 280.71311 
L 259.256666 258.620745 
L 259.907276 265.114296 
L 261.859107 277.435076 
L 262.509718 265.212019 
L 263.810938 274.911007 
L 265.112159 281.07297 
L 265.762769 266.791101 
L 266.413379 271.373969 
L 267.06399 274.872639 
L 267.7146 277.392946 
L 268.36521 280.530668 
L 269.015821 259.463062 
L 269.666431 264.770627 
L 270.317041 268.721878 
L 270.967652 274.03919 
L 271.618262 276.854462 
L 272.268872 266.888963 
L 272.919483 270.541293 
L 273.570093 273.236973 
L 274.220703 277.213531 
L 274.871314 279.595848 
L 275.521924 263.650926 
L 277.473755 274.511599 
L 278.124365 277.190241 
L 278.774975 259.102964 
L 280.076196 267.466764 
L 280.726806 271.133151 
L 281.377417 273.942038 
L 282.028027 261.686346 
L 282.678637 266.580631 
L 284.630468 275.868706 
L 285.281079 263.406859 
L 287.232909 273.096091 
L 287.88352 275.340492 
L 288.53413 257.172411 
L 289.835351 264.909165 
L 290.485961 268.514398 
L 291.136571 271.077969 
L 291.787182 263.267588 
L 292.437792 265.780725 
L 293.739013 272.407041 
L 294.389623 274.259067 
L 295.040233 262.465496 
L 296.341454 267.834227 
L 296.992064 270.923812 
L 297.642674 273.341938 
L 298.293285 259.928269 
L 298.943895 261.775896 
L 299.594505 265.622859 
L 300.245116 268.19464 
L 300.895726 271.230141 
L 301.546336 261.98148 
L 302.847557 267.26064 
L 303.498167 270.67194 
L 304.148778 271.770714 
L 304.799388 262.082759 
L 305.449998 264.847683 
L 306.100608 268.133612 
L 307.401829 272.5825 
L 308.052439 257.902438 
L 309.35366 262.952347 
L 310.00427 266.320178 
L 310.654881 268.414654 
L 311.305491 263.684215 
L 311.956101 266.760108 
L 312.606712 268.813161 
L 313.907932 272.249501 
L 314.558543 261.482675 
L 315.209153 264.520084 
L 316.510373 269.070494 
L 317.160984 270.887483 
L 317.811594 257.68564 
L 318.462204 260.841894 
L 319.112815 262.744297 
L 319.763425 265.965067 
L 320.414035 268.302467 
L 321.064646 260.77594 
L 321.715256 263.541927 
L 323.016477 267.051511 
L 323.667087 269.597752 
L 324.317697 261.870465 
L 324.968308 263.962716 
L 325.618918 265.188929 
L 326.269528 267.785883 
L 326.920138 269.457614 
L 327.570749 263.152589 
L 328.221359 264.890202 
L 328.871969 266.12755 
L 329.52258 268.640493 
L 330.17319 270.46294 
L 330.8238 261.634045 
L 331.474411 263.156552 
L 332.125021 265.524534 
L 333.426242 269.327189 
L 334.076852 260.003672 
L 336.679293 267.992263 
L 337.329903 256.064404 
L 339.281734 262.43406 
L 339.932345 263.913225 
L 340.582955 260.255937 
L 341.233565 261.010251 
L 341.884176 263.063518 
L 342.534786 266.314703 
L 343.185396 268.067471 
L 343.836007 260.931433 
L 346.438448 268.635245 
L 347.089058 260.300906 
L 347.739668 263.162168 
L 349.040889 266.53028 
L 349.691499 268.223193 
L 350.34211 261.699976 
L 350.99272 263.663232 
L 351.64333 264.759719 
L 352.293941 267.389355 
L 352.944551 269.352898 
L 353.595161 258.690988 
L 354.245772 260.765286 
L 354.896382 262.035692 
L 355.546992 263.711653 
L 356.197602 266.135804 
L 356.848213 260.960089 
L 358.149433 264.989541 
L 358.800044 266.870909 
L 359.450654 268.249687 
L 360.101264 262.282953 
L 360.751875 264.541329 
L 361.402485 266.259344 
L 362.053095 267.204988 
L 362.703706 269.165572 
L 363.354316 254.449943 
L 364.004926 257.760682 
L 365.306147 261.498518 
L 365.956757 263.854575 
L 366.607367 262.765684 
L 367.908588 266.707972 
L 368.559198 267.80965 
L 369.209809 269.774476 
L 369.860419 259.373781 
L 371.16164 263.418955 
L 371.81225 265.342251 
L 372.46286 266.860833 
L 373.113471 257.74204 
L 373.764081 260.228054 
L 374.414691 262.077062 
L 375.065302 264.869008 
L 375.715912 266.059864 
L 376.366522 260.144747 
L 377.017132 261.952588 
L 378.318353 266.134783 
L 378.968963 267.125792 
L 379.619574 262.655347 
L 380.270184 264.179073 
L 380.920794 266.826069 
L 381.571405 267.29084 
L 382.222015 268.608589 
L 382.872625 259.126675 
L 383.523236 261.523599 
L 384.824456 264.188309 
L 385.475066 266.330505 
L 386.125677 261.704377 
L 386.776287 264.282259 
L 388.077508 267.299219 
L 388.728118 268.976151 
L 389.378728 259.677372 
L 390.679949 263.517707 
L 391.330559 265.757188 
L 391.98117 266.898881 
L 392.63178 260.168136 
L 393.28239 262.415136 
L 393.933001 263.459271 
L 394.583611 265.932463 
L 395.234221 267.068287 
L 395.884831 217.970359 
L 397.186052 225.044004 
L 397.836662 229.914693 
L 398.487273 233.642308 
L 398.487273 233.642308 
" clip-path="url(#p853814a6d7)" style="fill: none; stroke: #0000ff; stroke-width: 1.5; stroke-linecap: square"/>
   </g>
   <g id="line2d_13">
    <path d="M 73.832727 53.568 
L 74.483338 246.934339 
L 75.133948 262.995252 
L 75.784558 266.998129 
L 76.435169 269.537367 
L 77.085779 222.293777 
L 77.736389 262.174327 
L 78.386999 265.933854 
L 79.03761 268.513346 
L 79.68822 270.07514 
L 80.33883 235.495057 
L 80.989441 264.210952 
L 81.640051 267.389309 
L 82.290661 269.525236 
L 82.941272 270.679328 
L 83.591882 250.676515 
L 84.242492 266.507227 
L 84.893103 268.665866 
L 85.543713 270.377112 
L 86.194323 271.670126 
L 86.844934 251.022975 
L 87.495544 266.606569 
L 88.146154 269.53086 
L 88.796764 271.315718 
L 89.447375 272.048164 
L 90.097985 253.643985 
L 90.748595 268.076275 
L 92.049816 271.687981 
L 92.700426 272.887398 
L 93.351037 255.859551 
L 94.001647 269.48963 
L 94.652257 271.50533 
L 95.302868 272.89413 
L 95.953478 273.868735 
L 96.604088 255.307907 
L 97.254698 269.478879 
L 97.905309 271.679675 
L 99.206529 274.33467 
L 99.85714 256.869489 
L 100.50775 270.725766 
L 101.15836 271.848807 
L 101.808971 273.915356 
L 102.459581 274.725333 
L 103.110191 254.295248 
L 103.760802 269.958448 
L 104.411412 272.531454 
L 105.062022 274.185803 
L 105.712633 274.669441 
L 106.363243 257.645647 
L 107.013853 271.139985 
L 108.315074 274.755545 
L 108.965684 275.852942 
L 109.616294 255.375574 
L 110.266905 270.70928 
L 110.917515 273.056779 
L 111.568125 274.443529 
L 112.218736 275.38516 
L 112.869346 259.790059 
L 113.519956 272.28976 
L 114.170567 274.233149 
L 114.821177 275.698047 
L 115.471787 276.638138 
L 116.122398 256.828402 
L 116.773008 271.966481 
L 117.423618 274.217754 
L 118.724839 276.757594 
L 119.375449 259.235657 
L 120.026059 272.408635 
L 120.67667 274.57999 
L 121.32728 275.921022 
L 121.97789 276.569655 
L 122.628501 257.214083 
L 123.279111 272.057774 
L 123.929721 274.915164 
L 125.230942 276.862175 
L 125.881552 260.05464 
L 126.532163 273.279495 
L 127.833383 276.248112 
L 128.483993 277.010792 
L 129.134604 258.193492 
L 129.785214 273.448244 
L 130.435824 275.272069 
L 131.086435 276.636594 
L 131.737045 277.33873 
L 132.387655 256.917546 
L 133.038266 273.542783 
L 133.688876 275.735384 
L 134.990097 278.035459 
L 135.640707 259.638842 
L 136.291317 274.053278 
L 136.941927 276.028462 
L 138.243148 278.41696 
L 138.893758 259.518173 
L 139.544369 273.261072 
L 140.194979 274.765067 
L 141.4962 275.85512 
L 142.14681 254.462316 
L 142.79742 269.132309 
L 143.448031 274.004767 
L 144.098641 274.960613 
L 144.749251 275.518538 
L 145.399862 249.322248 
L 146.050472 266.500118 
L 146.701082 272.117942 
L 147.351692 273.711431 
L 148.002303 274.851414 
L 148.652913 250.638132 
L 149.303523 266.807757 
L 149.954134 272.654478 
L 150.604744 274.244266 
L 151.255354 275.201411 
L 151.905965 252.70499 
L 152.556575 266.649384 
L 153.207185 272.893489 
L 154.508406 275.426729 
L 155.159016 254.068478 
L 155.809627 267.752001 
L 156.460237 273.017935 
L 157.110847 274.395391 
L 157.761457 275.350669 
L 158.412068 250.605451 
L 159.062678 265.656462 
L 159.713288 271.922109 
L 160.363899 273.899193 
L 161.014509 274.488784 
L 161.665119 251.985576 
L 162.31573 266.209405 
L 162.96634 272.20146 
L 163.61695 273.939934 
L 164.267561 275.17568 
L 164.918171 250.832124 
L 165.568781 263.940963 
L 166.219392 271.179753 
L 166.870002 274.367369 
L 167.520612 274.921808 
L 168.171222 252.099202 
L 168.821833 263.657448 
L 169.472443 271.355451 
L 170.123053 274.232114 
L 170.773664 274.975915 
L 171.424274 250.710828 
L 172.074884 263.442714 
L 172.725495 270.573308 
L 173.376105 273.648693 
L 174.026715 274.566044 
L 174.677326 252.133826 
L 175.327936 263.819039 
L 175.978546 271.140921 
L 176.629156 273.614838 
L 177.279767 274.009421 
L 177.930377 252.907948 
L 178.580987 264.476374 
L 179.231598 270.882575 
L 179.882208 273.761597 
L 180.532818 274.255891 
L 181.183429 252.536913 
L 181.834039 262.713519 
L 182.484649 269.391236 
L 183.13526 272.540088 
L 183.78587 274.147492 
L 184.43648 253.325745 
L 185.087091 263.768642 
L 185.737701 270.099286 
L 186.388311 273.074272 
L 187.038921 274.908988 
L 187.689532 255.464392 
L 188.340142 264.328651 
L 188.990752 270.322035 
L 189.641363 272.946171 
L 190.291973 274.035409 
L 190.942583 246.582139 
L 191.593194 258.436212 
L 192.243804 266.163217 
L 192.894414 270.330191 
L 193.545025 272.824341 
L 194.195635 249.778861 
L 194.846245 260.618407 
L 195.496856 267.345401 
L 196.147466 271.197966 
L 196.798076 274.087256 
L 197.448686 252.261148 
L 198.099297 261.065412 
L 198.749907 267.476046 
L 199.400517 271.493714 
L 200.051128 272.961434 
L 200.701738 244.676161 
L 201.352348 256.064855 
L 202.002959 264.697463 
L 202.653569 268.967021 
L 203.304179 271.474644 
L 203.95479 252.126277 
L 204.6054 260.544987 
L 205.25601 266.929901 
L 205.906621 270.584752 
L 206.557231 272.448294 
L 207.207841 248.207263 
L 207.858451 257.812109 
L 208.509062 264.569917 
L 209.159672 268.918496 
L 209.810282 271.214001 
L 210.460893 246.872057 
L 211.111503 256.902329 
L 211.762113 263.342879 
L 212.412724 267.921514 
L 213.063334 270.315952 
L 213.713944 250.996443 
L 215.015165 265.246606 
L 215.665775 269.467172 
L 216.316385 272.194421 
L 216.966996 248.157366 
L 217.617606 257.308432 
L 218.268216 263.35324 
L 218.918827 267.755069 
L 219.569437 270.716688 
L 220.220047 247.761292 
L 220.870658 256.283642 
L 222.171878 267.453038 
L 222.822489 270.262972 
L 223.473099 248.549257 
L 224.77432 262.836349 
L 225.42493 266.926915 
L 226.07554 269.271789 
L 226.72615 251.216957 
L 227.376761 258.418092 
L 228.027371 263.347513 
L 228.677981 267.268215 
L 229.328592 269.939952 
L 229.979202 242.96991 
L 230.629812 251.220191 
L 231.280423 257.644306 
L 231.931033 262.950551 
L 232.581643 267.09942 
L 233.232254 251.090614 
L 233.882864 257.769073 
L 234.533474 262.696407 
L 235.184085 265.509255 
L 235.834695 268.959383 
L 236.485305 250.441897 
L 237.786526 261.866251 
L 239.087746 267.798696 
L 239.738357 244.91299 
L 240.388967 252.415056 
L 241.690188 262.220332 
L 242.340798 265.770666 
L 242.991408 249.620036 
L 243.642019 255.994149 
L 244.292629 259.499747 
L 244.943239 264.125195 
L 245.59385 266.635745 
L 246.24446 248.020258 
L 246.89507 254.874629 
L 248.846901 266.115561 
L 249.497511 243.12752 
L 250.148122 249.940123 
L 251.449342 259.757439 
L 252.099953 263.219216 
L 252.750563 247.352403 
L 253.401173 253.126254 
L 254.702394 261.961941 
L 255.353004 264.536375 
L 256.003615 248.533127 
L 257.304835 258.373417 
L 258.606056 263.875812 
L 259.256666 241.79217 
L 259.907276 248.285906 
L 261.859107 260.607218 
L 262.509718 248.387179 
L 263.810938 258.086515 
L 265.112159 264.248812 
L 265.762769 249.965472 
L 266.413379 254.548505 
L 267.06399 258.047331 
L 267.7146 260.567798 
L 268.36521 263.705682 
L 269.015821 242.645089 
L 269.666431 247.952816 
L 270.317041 251.904224 
L 270.967652 257.221686 
L 271.618262 260.037104 
L 272.268872 250.072948 
L 272.919483 253.72543 
L 273.570093 256.421251 
L 274.220703 260.397952 
L 274.871314 262.780415 
L 275.521924 246.83455 
L 277.473755 257.695639 
L 278.124365 260.374416 
L 278.774975 242.294422 
L 280.076196 250.658493 
L 280.726806 254.325012 
L 281.377417 257.134029 
L 282.028027 244.879014 
L 282.678637 249.773428 
L 284.630468 259.061876 
L 285.281079 246.599818 
L 287.232909 256.289409 
L 287.88352 258.533927 
L 288.53413 240.370257 
L 289.835351 248.107242 
L 290.485961 251.712589 
L 291.136571 254.276269 
L 291.787182 246.466894 
L 292.437792 248.980145 
L 293.739013 255.606679 
L 294.389623 257.458807 
L 295.040233 245.665884 
L 296.341454 251.034815 
L 296.992064 254.124503 
L 297.642674 256.542735 
L 298.293285 243.130919 
L 298.943895 244.978646 
L 299.594505 248.825705 
L 300.245116 251.397582 
L 300.895726 254.433185 
L 301.546336 245.186281 
L 302.847557 250.46563 
L 303.498167 253.877021 
L 304.148778 254.975888 
L 304.799388 245.287623 
L 305.449998 248.05264 
L 306.100608 251.338658 
L 307.401829 255.787721 
L 308.052439 241.111523 
L 309.35366 246.161599 
L 310.00427 249.52952 
L 310.654881 251.62408 
L 311.305491 246.894262 
L 311.956101 249.97024 
L 312.606712 252.023364 
L 313.907932 255.459864 
L 314.558543 244.693768 
L 315.209153 247.731258 
L 316.510373 252.281822 
L 317.160984 254.098882 
L 317.811594 240.899317 
L 318.462204 244.055645 
L 319.112815 245.958125 
L 319.763425 249.178959 
L 320.414035 251.516429 
L 321.064646 243.991276 
L 321.715256 246.757334 
L 323.016477 250.267054 
L 323.667087 252.813365 
L 324.317697 245.086107 
L 324.968308 247.178422 
L 325.618918 248.404707 
L 326.269528 251.00172 
L 326.920138 252.673511 
L 327.570749 246.37227 
L 328.221359 248.109944 
L 328.871969 249.347354 
L 329.52258 251.86036 
L 330.17319 253.682867 
L 330.8238 244.853951 
L 331.474411 246.376523 
L 332.125021 248.744561 
L 333.426242 252.547342 
L 334.076852 243.224483 
L 336.679293 251.213322 
L 337.329903 239.287533 
L 339.281734 245.65737 
L 339.932345 247.13659 
L 340.582955 243.480528 
L 341.233565 244.234906 
L 341.884176 246.288227 
L 342.534786 249.539474 
L 343.185396 251.2923 
L 343.836007 244.156107 
L 346.438448 251.860153 
L 347.089058 243.529682 
L 347.739668 246.391005 
L 349.040889 249.759235 
L 349.691499 251.452211 
L 350.34211 244.928363 
L 350.99272 246.891672 
L 351.64333 247.988218 
L 352.293941 250.617906 
L 352.944551 252.581513 
L 353.595161 241.92177 
L 354.245772 243.996126 
L 354.896382 245.266596 
L 355.546992 246.942616 
L 356.197602 249.366827 
L 356.848213 244.192385 
L 358.149433 248.221954 
L 358.800044 250.103382 
L 359.450654 251.482223 
L 360.101264 245.515642 
L 360.751875 247.774085 
L 361.402485 249.492161 
L 362.053095 250.437862 
L 362.703706 252.398506 
L 363.354316 237.68453 
L 364.004926 240.99533 
L 365.306147 244.733287 
L 365.956757 247.089407 
L 366.607367 246.001768 
L 367.908588 249.944177 
L 368.559198 251.04591 
L 369.209809 253.010798 
L 369.860419 242.610099 
L 371.16164 246.655388 
L 371.81225 248.578747 
L 372.46286 250.097384 
L 373.113471 240.980336 
L 373.764081 243.46641 
L 374.414691 245.315483 
L 375.065302 248.107491 
L 375.715912 249.298409 
L 376.366522 243.384723 
L 377.017132 245.192618 
L 378.318353 249.374932 
L 378.968963 250.366001 
L 379.619574 245.895224 
L 380.270184 247.419006 
L 380.920794 250.066061 
L 381.571405 250.530894 
L 382.222015 251.848699 
L 382.872625 242.367299 
L 383.523236 244.764286 
L 384.824456 247.429112 
L 385.475066 249.571368 
L 386.125677 244.947411 
L 386.776287 247.52535 
L 388.077508 250.542428 
L 388.728118 252.219425 
L 389.378728 242.920725 
L 390.679949 246.76118 
L 391.330559 249.00072 
L 391.98117 250.142471 
L 392.63178 243.41151 
L 393.28239 245.658573 
L 393.933001 246.702767 
L 394.583611 249.176016 
L 395.234221 250.311899 
L 395.884831 201.222928 
L 397.186052 208.296713 
L 397.836662 213.16747 
L 398.487273 216.895157 
L 398.487273 216.895157 
" clip-path="url(#p853814a6d7)" style="fill: none; stroke: #008000; stroke-width: 1.5; stroke-linecap: square"/>
   </g>
   <g id="line2d_14">
    <path d="M 0 0 
" clip-path="url(#p853814a6d7)" style="fill: none; stroke: #ff0000; stroke-width: 1.5; stroke-linecap: square"/>
   </g>
   <g id="patch_3">
    <path d="M 57.6 307.584 
L 57.6 41.472 
" style="fill: none; stroke: #000000; stroke-width: 0.8; stroke-linejoin: miter; stroke-linecap: square"/>
   </g>
   <g id="patch_4">
    <path d="M 414.72 307.584 
L 414.72 41.472 
" style="fill: none; stroke: #000000; stroke-width: 0.8; stroke-linejoin: miter; stroke-linecap: square"/>
   </g>
   <g id="patch_5">
    <path d="M 57.6 307.584 
L 414.72 307.584 
" style="fill: none; stroke: #000000; stroke-width: 0.8; stroke-linejoin: miter; stroke-linecap: square"/>
   </g>
   <g id="patch_6">
    <path d="M 57.6 41.472 
L 414.72 41.472 
" style="fill: none; stroke: #000000; stroke-width: 0.8; stroke-linejoin: miter; stroke-linecap: square"/>
   </g>
   <g id="text_14">
    <!-- The loss curve on flag_resnet/host/9 -->
    <g transform="translate(127.426875 35.472) scale(0.12 -0.12)">
     <defs>
      <path id="DejaVuSans-54" d="M -19 4666 
L 3928 4666 
L 3928 4134 
L 2272 4134 
L 2272 0 
L 1638 0 
L 1638 4134 
L -19 4134 
L -19 4666 
z
" transform="scale(0.015625)"/>
      <path id="DejaVuSans-72" d="M 2631 2963 
Q 2534 3019 2420 3045 
Q 2306 3072 2169 3072 
Q 1681 3072 1420 2755 
Q 1159 2438 1159 1844 
L 1159 0 
L 581 0 
L 581 3500 
L 1159 3500 
L 1159 2956 
Q 1341 3275 1631 3429 
Q 1922 3584 2338 3584 
Q 2397 3584 2469 3576 
Q 2541 3569 2628 3553 
L 2631 2963 
z
" transform="scale(0.015625)"/>
      <path id="DejaVuSans-6e" d="M 3513 2113 
L 3513 0 
L 2938 0 
L 2938 2094 
Q 2938 2591 2744 2837 
Q 2550 3084 2163 3084 
Q 1697 3084 1428 2787 
Q 1159 2491 1159 1978 
L 1159 0 
L 581 0 
L 581 3500 
L 1159 3500 
L 1159 2956 
Q 1366 3272 1645 3428 
Q 1925 3584 2291 3584 
Q 2894 3584 3203 3211 
Q 3513 2838 3513 2113 
z
" transform="scale(0.015625)"/>
      <path id="DejaVuSans-66" d="M 2375 4863 
L 2375 4384 
L 1825 4384 
Q 1516 4384 1395 4259 
Q 1275 4134 1275 3809 
L 1275 3500 
L 2222 3500 
L 2222 3053 
L 1275 3053 
L 1275 0 
L 697 0 
L 697 3053 
L 147 3053 
L 147 3500 
L 697 3500 
L 697 3744 
Q 697 4328 969 4595 
Q 1241 4863 1831 4863 
L 2375 4863 
z
" transform="scale(0.015625)"/>
      <path id="DejaVuSans-67" d="M 2906 1791 
Q 2906 2416 2648 2759 
Q 2391 3103 1925 3103 
Q 1463 3103 1205 2759 
Q 947 2416 947 1791 
Q 947 1169 1205 825 
Q 1463 481 1925 481 
Q 2391 481 2648 825 
Q 2906 1169 2906 1791 
z
M 3481 434 
Q 3481 -459 3084 -895 
Q 2688 -1331 1869 -1331 
Q 1566 -1331 1297 -1286 
Q 1028 -1241 775 -1147 
L 775 -588 
Q 1028 -725 1275 -790 
Q 1522 -856 1778 -856 
Q 2344 -856 2625 -561 
Q 2906 -266 2906 331 
L 2906 616 
Q 2728 306 2450 153 
Q 2172 0 1784 0 
Q 1141 0 747 490 
Q 353 981 353 1791 
Q 353 2603 747 3093 
Q 1141 3584 1784 3584 
Q 2172 3584 2450 3431 
Q 2728 3278 2906 2969 
L 2906 3500 
L 3481 3500 
L 3481 434 
z
" transform="scale(0.015625)"/>
      <path id="DejaVuSans-5f" d="M 3263 -1063 
L 3263 -1509 
L -63 -1509 
L -63 -1063 
L 3263 -1063 
z
" transform="scale(0.015625)"/>
      <path id="DejaVuSans-74" d="M 1172 4494 
L 1172 3500 
L 2356 3500 
L 2356 3053 
L 1172 3053 
L 1172 1153 
Q 1172 725 1289 603 
Q 1406 481 1766 481 
L 2356 481 
L 2356 0 
L 1766 0 
Q 1100 0 847 248 
Q 594 497 594 1153 
L 594 3053 
L 172 3053 
L 172 3500 
L 594 3500 
L 594 4494 
L 1172 4494 
z
" transform="scale(0.015625)"/>
      <path id="DejaVuSans-2f" d="M 1625 4666 
L 2156 4666 
L 531 -594 
L 0 -594 
L 1625 4666 
z
" transform="scale(0.015625)"/>
      <path id="DejaVuSans-39" d="M 703 97 
L 703 672 
Q 941 559 1184 500 
Q 1428 441 1663 441 
Q 2288 441 2617 861 
Q 2947 1281 2994 2138 
Q 2813 1869 2534 1725 
Q 2256 1581 1919 1581 
Q 1219 1581 811 2004 
Q 403 2428 403 3163 
Q 403 3881 828 4315 
Q 1253 4750 1959 4750 
Q 2769 4750 3195 4129 
Q 3622 3509 3622 2328 
Q 3622 1225 3098 567 
Q 2575 -91 1691 -91 
Q 1453 -91 1209 -44 
Q 966 3 703 97 
z
M 1959 2075 
Q 2384 2075 2632 2365 
Q 2881 2656 2881 3163 
Q 2881 3666 2632 3958 
Q 2384 4250 1959 4250 
Q 1534 4250 1286 3958 
Q 1038 3666 1038 3163 
Q 1038 2656 1286 2365 
Q 1534 2075 1959 2075 
z
" transform="scale(0.015625)"/>
     </defs>
     <use xlink:href="#DejaVuSans-54"/>
     <use xlink:href="#DejaVuSans-68" x="61.083984"/>
     <use xlink:href="#DejaVuSans-65" x="124.462891"/>
     <use xlink:href="#DejaVuSans-20" x="185.986328"/>
     <use xlink:href="#DejaVuSans-6c" x="217.773438"/>
     <use xlink:href="#DejaVuSans-6f" x="245.556641"/>
     <use xlink:href="#DejaVuSans-73" x="306.738281"/>
     <use xlink:href="#DejaVuSans-73" x="358.837891"/>
     <use xlink:href="#DejaVuSans-20" x="410.9375"/>
     <use xlink:href="#DejaVuSans-63" x="442.724609"/>
     <use xlink:href="#DejaVuSans-75" x="497.705078"/>
     <use xlink:href="#DejaVuSans-72" x="561.083984"/>
     <use xlink:href="#DejaVuSans-76" x="602.197266"/>
     <use xlink:href="#DejaVuSans-65" x="661.376953"/>
     <use xlink:href="#DejaVuSans-20" x="722.900391"/>
     <use xlink:href="#DejaVuSans-6f" x="754.6875"/>
     <use xlink:href="#DejaVuSans-6e" x="815.869141"/>
     <use xlink:href="#DejaVuSans-20" x="879.248047"/>
     <use xlink:href="#DejaVuSans-66" x="911.035156"/>
     <use xlink:href="#DejaVuSans-6c" x="946.240234"/>
     <use xlink:href="#DejaVuSans-61" x="974.023438"/>
     <use xlink:href="#DejaVuSans-67" x="1035.302734"/>
     <use xlink:href="#DejaVuSans-5f" x="1098.779297"/>
     <use xlink:href="#DejaVuSans-72" x="1148.779297"/>
     <use xlink:href="#DejaVuSans-65" x="1187.642578"/>
     <use xlink:href="#DejaVuSans-73" x="1249.166016"/>
     <use xlink:href="#DejaVuSans-6e" x="1301.265625"/>
     <use xlink:href="#DejaVuSans-65" x="1364.644531"/>
     <use xlink:href="#DejaVuSans-74" x="1426.167969"/>
     <use xlink:href="#DejaVuSans-2f" x="1465.376953"/>
     <use xlink:href="#DejaVuSans-68" x="1499.068359"/>
     <use xlink:href="#DejaVuSans-6f" x="1562.447266"/>
     <use xlink:href="#DejaVuSans-73" x="1623.628906"/>
     <use xlink:href="#DejaVuSans-74" x="1675.728516"/>
     <use xlink:href="#DejaVuSans-2f" x="1714.9375"/>
     <use xlink:href="#DejaVuSans-39" x="1748.628906"/>
    </g>
   </g>
   <g id="legend_1">
    <g id="patch_7">
     <path d="M 317.418438 94.34075 
L 407.72 94.34075 
Q 409.72 94.34075 409.72 92.34075 
L 409.72 48.472 
Q 409.72 46.472 407.72 46.472 
L 317.418438 46.472 
Q 315.418438 46.472 315.418438 48.472 
L 315.418438 92.34075 
Q 315.418438 94.34075 317.418438 94.34075 
z
" style="fill: #ffffff; opacity: 0.8; stroke: #cccccc; stroke-linejoin: miter"/>
    </g>
    <g id="line2d_15">
     <path d="M 319.418438 54.570438 
L 329.418438 54.570438 
L 339.418438 54.570438 
" style="fill: none; stroke: #0000ff; stroke-width: 1.5; stroke-linecap: square"/>
    </g>
    <g id="text_15">
     <!-- obj_loss -->
     <g transform="translate(347.418438 58.070438) scale(0.1 -0.1)">
      <defs>
       <path id="DejaVuSans-62" d="M 3116 1747 
Q 3116 2381 2855 2742 
Q 2594 3103 2138 3103 
Q 1681 3103 1420 2742 
Q 1159 2381 1159 1747 
Q 1159 1113 1420 752 
Q 1681 391 2138 391 
Q 2594 391 2855 752 
Q 3116 1113 3116 1747 
z
M 1159 2969 
Q 1341 3281 1617 3432 
Q 1894 3584 2278 3584 
Q 2916 3584 3314 3078 
Q 3713 2572 3713 1747 
Q 3713 922 3314 415 
Q 2916 -91 2278 -91 
Q 1894 -91 1617 61 
Q 1341 213 1159 525 
L 1159 0 
L 581 0 
L 581 4863 
L 1159 4863 
L 1159 2969 
z
" transform="scale(0.015625)"/>
       <path id="DejaVuSans-6a" d="M 603 3500 
L 1178 3500 
L 1178 -63 
Q 1178 -731 923 -1031 
Q 669 -1331 103 -1331 
L -116 -1331 
L -116 -844 
L 38 -844 
Q 366 -844 484 -692 
Q 603 -541 603 -63 
L 603 3500 
z
M 603 4863 
L 1178 4863 
L 1178 4134 
L 603 4134 
L 603 4863 
z
" transform="scale(0.015625)"/>
      </defs>
      <use xlink:href="#DejaVuSans-6f"/>
      <use xlink:href="#DejaVuSans-62" x="61.181641"/>
      <use xlink:href="#DejaVuSans-6a" x="124.658203"/>
      <use xlink:href="#DejaVuSans-5f" x="152.441406"/>
      <use xlink:href="#DejaVuSans-6c" x="202.441406"/>
      <use xlink:href="#DejaVuSans-6f" x="230.224609"/>
      <use xlink:href="#DejaVuSans-73" x="291.40625"/>
      <use xlink:href="#DejaVuSans-73" x="343.505859"/>
     </g>
    </g>
    <g id="line2d_16">
     <path d="M 319.418438 69.526688 
L 329.418438 69.526688 
L 339.418438 69.526688 
" style="fill: none; stroke: #008000; stroke-width: 1.5; stroke-linecap: square"/>
    </g>
    <g id="text_16">
     <!-- reg_loss -->
     <g transform="translate(347.418438 73.026688) scale(0.1 -0.1)">
      <use xlink:href="#DejaVuSans-72"/>
      <use xlink:href="#DejaVuSans-65" x="38.863281"/>
      <use xlink:href="#DejaVuSans-67" x="100.386719"/>
      <use xlink:href="#DejaVuSans-5f" x="163.863281"/>
      <use xlink:href="#DejaVuSans-6c" x="213.863281"/>
      <use xlink:href="#DejaVuSans-6f" x="241.646484"/>
      <use xlink:href="#DejaVuSans-73" x="302.828125"/>
      <use xlink:href="#DejaVuSans-73" x="354.927734"/>
     </g>
    </g>
    <g id="line2d_17">
     <path d="M 319.418438 84.482938 
L 329.418438 84.482938 
L 339.418438 84.482938 
" style="fill: none; stroke: #ff0000; stroke-width: 1.5; stroke-linecap: square"/>
    </g>
    <g id="text_17">
     <!-- overall_loss -->
     <g transform="translate(347.418438 87.982938) scale(0.1 -0.1)">
      <use xlink:href="#DejaVuSans-6f"/>
      <use xlink:href="#DejaVuSans-76" x="61.181641"/>
      <use xlink:href="#DejaVuSans-65" x="120.361328"/>
      <use xlink:href="#DejaVuSans-72" x="181.884766"/>
      <use xlink:href="#DejaVuSans-61" x="222.998047"/>
      <use xlink:href="#DejaVuSans-6c" x="284.277344"/>
      <use xlink:href="#DejaVuSans-6c" x="312.060547"/>
      <use xlink:href="#DejaVuSans-5f" x="339.84375"/>
      <use xlink:href="#DejaVuSans-6c" x="389.84375"/>
      <use xlink:href="#DejaVuSans-6f" x="417.626953"/>
      <use xlink:href="#DejaVuSans-73" x="478.808594"/>
      <use xlink:href="#DejaVuSans-73" x="530.908203"/>
     </g>
    </g>
   </g>
  </g>
 </g>
 <defs>
  <clipPath id="p853814a6d7">
   <rect x="57.6" y="41.472" width="357.12" height="266.112"/>
  </clipPath>
 </defs>
</svg>
