<?xml version="1.0" encoding="utf-8" standalone="no"?>
<!DOCTYPE svg PUBLIC "-//W3C//DTD SVG 1.1//EN"
  "http://www.w3.org/Graphics/SVG/1.1/DTD/svg11.dtd">
<svg xmlns:xlink="http://www.w3.org/1999/xlink" width="1296pt" height="648pt" viewBox="0 0 1296 648" xmlns="http://www.w3.org/2000/svg" version="1.1">
 <metadata>
  <rdf:RDF xmlns:dc="http://purl.org/dc/elements/1.1/" xmlns:cc="http://creativecommons.org/ns#" xmlns:rdf="http://www.w3.org/1999/02/22-rdf-syntax-ns#">
   <cc:Work>
    <dc:type rdf:resource="http://purl.org/dc/dcmitype/StillImage"/>
    <dc:date>2024-11-04T22:09:29.087972</dc:date>
    <dc:format>image/svg+xml</dc:format>
    <dc:creator>
     <cc:Agent>
      <dc:title>Matplotlib v3.7.1, https://matplotlib.org/</dc:title>
     </cc:Agent>
    </dc:creator>
   </cc:Work>
  </rdf:RDF>
 </metadata>
 <defs>
  <style type="text/css">*{stroke-linejoin: round; stroke-linecap: butt}</style>
 </defs>
 <g id="figure_1">
  <g id="patch_1">
   <path d="M 0 648 
L 1296 648 
L 1296 0 
L 0 0 
z
" style="fill: #ffffff"/>
  </g>
  <g id="axes_1">
   <g id="patch_2">
    <path d="M 162 576.72 
L 1166.4 576.72 
L 1166.4 77.76 
L 162 77.76 
z
" style="fill: #ffffff"/>
   </g>
   <g id="patch_3">
    <path d="M 181.44 576.72 
L 207.36 576.72 
L 207.36 232.149473 
L 181.44 232.149473 
z
" clip-path="url(#pf8858d3cd5)" style="fill: #1f77b4"/>
   </g>
   <g id="patch_4">
    <path d="M 278.64 576.72 
L 304.56 576.72 
L 304.56 385.308787 
L 278.64 385.308787 
z
" clip-path="url(#pf8858d3cd5)" style="fill: #1f77b4"/>
   </g>
   <g id="patch_5">
    <path d="M 375.84 576.72 
L 401.76 576.72 
L 401.76 441.713957 
L 375.84 441.713957 
z
" clip-path="url(#pf8858d3cd5)" style="fill: #1f77b4"/>
   </g>
   <g id="patch_6">
    <path d="M 473.04 576.72 
L 498.96 576.72 
L 498.96 456.108127 
L 473.04 456.108127 
z
" clip-path="url(#pf8858d3cd5)" style="fill: #1f77b4"/>
   </g>
   <g id="patch_7">
    <path d="M 570.24 576.72 
L 596.16 576.72 
L 596.16 354.680799 
L 570.24 354.680799 
z
" clip-path="url(#pf8858d3cd5)" style="fill: #1f77b4"/>
   </g>
   <g id="patch_8">
    <path d="M 667.44 576.72 
L 693.36 576.72 
L 693.36 452.008449 
L 667.44 452.008449 
z
" clip-path="url(#pf8858d3cd5)" style="fill: #1f77b4"/>
   </g>
   <g id="patch_9">
    <path d="M 764.64 576.72 
L 790.56 576.72 
L 790.56 412.569218 
L 764.64 412.569218 
z
" clip-path="url(#pf8858d3cd5)" style="fill: #1f77b4"/>
   </g>
   <g id="patch_10">
    <path d="M 861.84 576.72 
L 887.76 576.72 
L 887.76 482.400131 
L 861.84 482.400131 
z
" clip-path="url(#pf8858d3cd5)" style="fill: #1f77b4"/>
   </g>
   <g id="patch_11">
    <path d="M 959.04 576.72 
L 984.96 576.72 
L 984.96 425.613911 
L 959.04 425.613911 
z
" clip-path="url(#pf8858d3cd5)" style="fill: #1f77b4"/>
   </g>
   <g id="patch_12">
    <path d="M 1056.24 576.72 
L 1082.16 576.72 
L 1082.16 503.324876 
L 1056.24 503.324876 
z
" clip-path="url(#pf8858d3cd5)" style="fill: #1f77b4"/>
   </g>
   <g id="patch_13">
    <path d="M 207.36 576.72 
L 233.28 576.72 
L 233.28 229.030676 
L 207.36 229.030676 
z
" clip-path="url(#pf8858d3cd5)" style="fill: #ff7f0e"/>
   </g>
   <g id="patch_14">
    <path d="M 304.56 576.72 
L 330.48 576.72 
L 330.48 437.398116 
L 304.56 437.398116 
z
" clip-path="url(#pf8858d3cd5)" style="fill: #ff7f0e"/>
   </g>
   <g id="patch_15">
    <path d="M 401.76 576.72 
L 427.68 576.72 
L 427.68 407.66185 
L 401.76 407.66185 
z
" clip-path="url(#pf8858d3cd5)" style="fill: #ff7f0e"/>
   </g>
   <g id="patch_16">
    <path d="M 498.96 576.72 
L 524.88 576.72 
L 524.88 463.14756 
L 498.96 463.14756 
z
" clip-path="url(#pf8858d3cd5)" style="fill: #ff7f0e"/>
   </g>
   <g id="patch_17">
    <path d="M 596.16 576.72 
L 622.08 576.72 
L 622.08 344.185411 
L 596.16 344.185411 
z
" clip-path="url(#pf8858d3cd5)" style="fill: #ff7f0e"/>
   </g>
   <g id="patch_18">
    <path d="M 693.36 576.72 
L 719.28 576.72 
L 719.28 370.928798 
L 693.36 370.928798 
z
" clip-path="url(#pf8858d3cd5)" style="fill: #ff7f0e"/>
   </g>
   <g id="patch_19">
    <path d="M 790.56 576.72 
L 816.48 576.72 
L 816.48 396.711942 
L 790.56 396.711942 
z
" clip-path="url(#pf8858d3cd5)" style="fill: #ff7f0e"/>
   </g>
   <g id="patch_20">
    <path d="M 887.76 576.72 
L 913.68 576.72 
L 913.68 463.14756 
L 887.76 463.14756 
z
" clip-path="url(#pf8858d3cd5)" style="fill: #ff7f0e"/>
   </g>
   <g id="patch_21">
    <path d="M 984.96 576.72 
L 1010.88 576.72 
L 1010.88 414.866789 
L 984.96 414.866789 
z
" clip-path="url(#pf8858d3cd5)" style="fill: #ff7f0e"/>
   </g>
   <g id="patch_22">
    <path d="M 1082.16 576.72 
L 1108.08 576.72 
L 1108.08 368.066754 
L 1082.16 368.066754 
z
" clip-path="url(#pf8858d3cd5)" style="fill: #ff7f0e"/>
   </g>
   <g id="patch_23">
    <path d="M 233.28 576.72 
L 259.2 576.72 
L 259.2 116.110293 
L 233.28 116.110293 
z
" clip-path="url(#pf8858d3cd5)" style="fill: #2ca02c"/>
   </g>
   <g id="patch_24">
    <path d="M 330.48 576.72 
L 356.4 576.72 
L 356.4 312.686565 
L 330.48 312.686565 
z
" clip-path="url(#pf8858d3cd5)" style="fill: #2ca02c"/>
   </g>
   <g id="patch_25">
    <path d="M 427.68 576.72 
L 453.6 576.72 
L 453.6 295.904639 
L 427.68 295.904639 
z
" clip-path="url(#pf8858d3cd5)" style="fill: #2ca02c"/>
   </g>
   <g id="patch_26">
    <path d="M 524.88 576.72 
L 550.8 576.72 
L 550.8 305.055972 
L 524.88 305.055972 
z
" clip-path="url(#pf8858d3cd5)" style="fill: #2ca02c"/>
   </g>
   <g id="patch_27">
    <path d="M 622.08 576.72 
L 648 576.72 
L 648 322.153501 
L 622.08 322.153501 
z
" clip-path="url(#pf8858d3cd5)" style="fill: #2ca02c"/>
   </g>
   <g id="patch_28">
    <path d="M 719.28 576.72 
L 745.2 576.72 
L 745.2 291.722826 
L 719.28 291.722826 
z
" clip-path="url(#pf8858d3cd5)" style="fill: #2ca02c"/>
   </g>
   <g id="patch_29">
    <path d="M 816.48 576.72 
L 842.4 576.72 
L 842.4 314.616923 
L 816.48 314.616923 
z
" clip-path="url(#pf8858d3cd5)" style="fill: #2ca02c"/>
   </g>
   <g id="patch_30">
    <path d="M 913.68 576.72 
L 939.6 576.72 
L 939.6 310.905302 
L 913.68 310.905302 
z
" clip-path="url(#pf8858d3cd5)" style="fill: #2ca02c"/>
   </g>
   <g id="patch_31">
    <path d="M 1010.88 576.72 
L 1036.8 576.72 
L 1036.8 364.460679 
L 1010.88 364.460679 
z
" clip-path="url(#pf8858d3cd5)" style="fill: #2ca02c"/>
   </g>
   <g id="patch_32">
    <path d="M 1108.08 576.72 
L 1134 576.72 
L 1134 345.035876 
L 1108.08 345.035876 
z
" clip-path="url(#pf8858d3cd5)" style="fill: #2ca02c"/>
   </g>
   <g id="patch_33">
    <path d="M 259.2 576.72 
L 285.12 576.72 
L 285.12 101.52 
L 259.2 101.52 
z
" clip-path="url(#pf8858d3cd5)" style="fill: #d62728"/>
   </g>
   <g id="patch_34">
    <path d="M 356.4 576.72 
L 382.32 576.72 
L 382.32 329.589109 
L 356.4 329.589109 
z
" clip-path="url(#pf8858d3cd5)" style="fill: #d62728"/>
   </g>
   <g id="patch_35">
    <path d="M 453.6 576.72 
L 479.52 576.72 
L 479.52 259.713571 
L 453.6 259.713571 
z
" clip-path="url(#pf8858d3cd5)" style="fill: #d62728"/>
   </g>
   <g id="patch_36">
    <path d="M 550.8 576.72 
L 576.72 576.72 
L 576.72 291.76182 
L 550.8 291.76182 
z
" clip-path="url(#pf8858d3cd5)" style="fill: #d62728"/>
   </g>
   <g id="patch_37">
    <path d="M 648 576.72 
L 673.92 576.72 
L 673.92 286.292027 
L 648 286.292027 
z
" clip-path="url(#pf8858d3cd5)" style="fill: #d62728"/>
   </g>
   <g id="patch_38">
    <path d="M 745.2 576.72 
L 771.12 576.72 
L 771.12 277.069644 
L 745.2 277.069644 
z
" clip-path="url(#pf8858d3cd5)" style="fill: #d62728"/>
   </g>
   <g id="patch_39">
    <path d="M 842.4 576.72 
L 868.32 576.72 
L 868.32 369.864774 
L 842.4 369.864774 
z
" clip-path="url(#pf8858d3cd5)" style="fill: #d62728"/>
   </g>
   <g id="patch_40">
    <path d="M 939.6 576.72 
L 965.52 576.72 
L 965.52 304.466572 
L 939.6 304.466572 
z
" clip-path="url(#pf8858d3cd5)" style="fill: #d62728"/>
   </g>
   <g id="patch_41">
    <path d="M 1036.8 576.72 
L 1062.72 576.72 
L 1062.72 363.102679 
L 1036.8 363.102679 
z
" clip-path="url(#pf8858d3cd5)" style="fill: #d62728"/>
   </g>
   <g id="patch_42">
    <path d="M 1134 576.72 
L 1159.92 576.72 
L 1159.92 320.389673 
L 1134 320.389673 
z
" clip-path="url(#pf8858d3cd5)" style="fill: #d62728"/>
   </g>
   <g id="matplotlib.axis_1">
    <g id="xtick_1">
     <g id="line2d_1">
      <defs>
       <path id="mec918c3eb8" d="M 0 0 
L 0 3.5 
" style="stroke: #000000; stroke-width: 0.8"/>
      </defs>
      <g>
       <use xlink:href="#mec918c3eb8" x="220.32" y="576.72" style="stroke: #000000; stroke-width: 0.8"/>
      </g>
     </g>
     <g id="text_1">
      <!-- c1 -->
      <g transform="translate(210.83125 595.8775) scale(0.16 -0.16)">
       <defs>
        <path id="DejaVuSans-63" d="M 3122 3366 
L 3122 2828 
Q 2878 2963 2633 3030 
Q 2388 3097 2138 3097 
Q 1578 3097 1268 2742 
Q 959 2388 959 1747 
Q 959 1106 1268 751 
Q 1578 397 2138 397 
Q 2388 397 2633 464 
Q 2878 531 3122 666 
L 3122 134 
Q 2881 22 2623 -34 
Q 2366 -91 2075 -91 
Q 1284 -91 818 406 
Q 353 903 353 1747 
Q 353 2603 823 3093 
Q 1294 3584 2113 3584 
Q 2378 3584 2631 3529 
Q 2884 3475 3122 3366 
z
" transform="scale(0.015625)"/>
        <path id="DejaVuSans-31" d="M 794 531 
L 1825 531 
L 1825 4091 
L 703 3866 
L 703 4441 
L 1819 4666 
L 2450 4666 
L 2450 531 
L 3481 531 
L 3481 0 
L 794 0 
L 794 531 
z
" transform="scale(0.015625)"/>
       </defs>
       <use xlink:href="#DejaVuSans-63"/>
       <use xlink:href="#DejaVuSans-31" x="54.980469"/>
      </g>
     </g>
    </g>
    <g id="xtick_2">
     <g id="line2d_2">
      <g>
       <use xlink:href="#mec918c3eb8" x="317.52" y="576.72" style="stroke: #000000; stroke-width: 0.8"/>
      </g>
     </g>
     <g id="text_2">
      <!-- c2 -->
      <g transform="translate(308.03125 595.8775) scale(0.16 -0.16)">
       <defs>
        <path id="DejaVuSans-32" d="M 1228 531 
L 3431 531 
L 3431 0 
L 469 0 
L 469 531 
Q 828 903 1448 1529 
Q 2069 2156 2228 2338 
Q 2531 2678 2651 2914 
Q 2772 3150 2772 3378 
Q 2772 3750 2511 3984 
Q 2250 4219 1831 4219 
Q 1534 4219 1204 4116 
Q 875 4013 500 3803 
L 500 4441 
Q 881 4594 1212 4672 
Q 1544 4750 1819 4750 
Q 2544 4750 2975 4387 
Q 3406 4025 3406 3419 
Q 3406 3131 3298 2873 
Q 3191 2616 2906 2266 
Q 2828 2175 2409 1742 
Q 1991 1309 1228 531 
z
" transform="scale(0.015625)"/>
       </defs>
       <use xlink:href="#DejaVuSans-63"/>
       <use xlink:href="#DejaVuSans-32" x="54.980469"/>
      </g>
     </g>
    </g>
    <g id="xtick_3">
     <g id="line2d_3">
      <g>
       <use xlink:href="#mec918c3eb8" x="414.72" y="576.72" style="stroke: #000000; stroke-width: 0.8"/>
      </g>
     </g>
     <g id="text_3">
      <!-- c3 -->
      <g transform="translate(405.23125 595.8775) scale(0.16 -0.16)">
       <defs>
        <path id="DejaVuSans-33" d="M 2597 2516 
Q 3050 2419 3304 2112 
Q 3559 1806 3559 1356 
Q 3559 666 3084 287 
Q 2609 -91 1734 -91 
Q 1441 -91 1130 -33 
Q 819 25 488 141 
L 488 750 
Q 750 597 1062 519 
Q 1375 441 1716 441 
Q 2309 441 2620 675 
Q 2931 909 2931 1356 
Q 2931 1769 2642 2001 
Q 2353 2234 1838 2234 
L 1294 2234 
L 1294 2753 
L 1863 2753 
Q 2328 2753 2575 2939 
Q 2822 3125 2822 3475 
Q 2822 3834 2567 4026 
Q 2313 4219 1838 4219 
Q 1578 4219 1281 4162 
Q 984 4106 628 3988 
L 628 4550 
Q 988 4650 1302 4700 
Q 1616 4750 1894 4750 
Q 2613 4750 3031 4423 
Q 3450 4097 3450 3541 
Q 3450 3153 3228 2886 
Q 3006 2619 2597 2516 
z
" transform="scale(0.015625)"/>
       </defs>
       <use xlink:href="#DejaVuSans-63"/>
       <use xlink:href="#DejaVuSans-33" x="54.980469"/>
      </g>
     </g>
    </g>
    <g id="xtick_4">
     <g id="line2d_4">
      <g>
       <use xlink:href="#mec918c3eb8" x="511.92" y="576.72" style="stroke: #000000; stroke-width: 0.8"/>
      </g>
     </g>
     <g id="text_4">
      <!-- c4 -->
      <g transform="translate(502.43125 595.8775) scale(0.16 -0.16)">
       <defs>
        <path id="DejaVuSans-34" d="M 2419 4116 
L 825 1625 
L 2419 1625 
L 2419 4116 
z
M 2253 4666 
L 3047 4666 
L 3047 1625 
L 3713 1625 
L 3713 1100 
L 3047 1100 
L 3047 0 
L 2419 0 
L 2419 1100 
L 313 1100 
L 313 1709 
L 2253 4666 
z
" transform="scale(0.015625)"/>
       </defs>
       <use xlink:href="#DejaVuSans-63"/>
       <use xlink:href="#DejaVuSans-34" x="54.980469"/>
      </g>
     </g>
    </g>
    <g id="xtick_5">
     <g id="line2d_5">
      <g>
       <use xlink:href="#mec918c3eb8" x="609.12" y="576.72" style="stroke: #000000; stroke-width: 0.8"/>
      </g>
     </g>
     <g id="text_5">
      <!-- c5 -->
      <g transform="translate(599.63125 595.8775) scale(0.16 -0.16)">
       <defs>
        <path id="DejaVuSans-35" d="M 691 4666 
L 3169 4666 
L 3169 4134 
L 1269 4134 
L 1269 2991 
Q 1406 3038 1543 3061 
Q 1681 3084 1819 3084 
Q 2600 3084 3056 2656 
Q 3513 2228 3513 1497 
Q 3513 744 3044 326 
Q 2575 -91 1722 -91 
Q 1428 -91 1123 -41 
Q 819 9 494 109 
L 494 744 
Q 775 591 1075 516 
Q 1375 441 1709 441 
Q 2250 441 2565 725 
Q 2881 1009 2881 1497 
Q 2881 1984 2565 2268 
Q 2250 2553 1709 2553 
Q 1456 2553 1204 2497 
Q 953 2441 691 2322 
L 691 4666 
z
" transform="scale(0.015625)"/>
       </defs>
       <use xlink:href="#DejaVuSans-63"/>
       <use xlink:href="#DejaVuSans-35" x="54.980469"/>
      </g>
     </g>
    </g>
    <g id="xtick_6">
     <g id="line2d_6">
      <g>
       <use xlink:href="#mec918c3eb8" x="706.32" y="576.72" style="stroke: #000000; stroke-width: 0.8"/>
      </g>
     </g>
     <g id="text_6">
      <!-- c6 -->
      <g transform="translate(696.83125 595.8775) scale(0.16 -0.16)">
       <defs>
        <path id="DejaVuSans-36" d="M 2113 2584 
Q 1688 2584 1439 2293 
Q 1191 2003 1191 1497 
Q 1191 994 1439 701 
Q 1688 409 2113 409 
Q 2538 409 2786 701 
Q 3034 994 3034 1497 
Q 3034 2003 2786 2293 
Q 2538 2584 2113 2584 
z
M 3366 4563 
L 3366 3988 
Q 3128 4100 2886 4159 
Q 2644 4219 2406 4219 
Q 1781 4219 1451 3797 
Q 1122 3375 1075 2522 
Q 1259 2794 1537 2939 
Q 1816 3084 2150 3084 
Q 2853 3084 3261 2657 
Q 3669 2231 3669 1497 
Q 3669 778 3244 343 
Q 2819 -91 2113 -91 
Q 1303 -91 875 529 
Q 447 1150 447 2328 
Q 447 3434 972 4092 
Q 1497 4750 2381 4750 
Q 2619 4750 2861 4703 
Q 3103 4656 3366 4563 
z
" transform="scale(0.015625)"/>
       </defs>
       <use xlink:href="#DejaVuSans-63"/>
       <use xlink:href="#DejaVuSans-36" x="54.980469"/>
      </g>
     </g>
    </g>
    <g id="xtick_7">
     <g id="line2d_7">
      <g>
       <use xlink:href="#mec918c3eb8" x="803.52" y="576.72" style="stroke: #000000; stroke-width: 0.8"/>
      </g>
     </g>
     <g id="text_7">
      <!-- c7 -->
      <g transform="translate(794.03125 595.8775) scale(0.16 -0.16)">
       <defs>
        <path id="DejaVuSans-37" d="M 525 4666 
L 3525 4666 
L 3525 4397 
L 1831 0 
L 1172 0 
L 2766 4134 
L 525 4134 
L 525 4666 
z
" transform="scale(0.015625)"/>
       </defs>
       <use xlink:href="#DejaVuSans-63"/>
       <use xlink:href="#DejaVuSans-37" x="54.980469"/>
      </g>
     </g>
    </g>
    <g id="xtick_8">
     <g id="line2d_8">
      <g>
       <use xlink:href="#mec918c3eb8" x="900.72" y="576.72" style="stroke: #000000; stroke-width: 0.8"/>
      </g>
     </g>
     <g id="text_8">
      <!-- c8 -->
      <g transform="translate(891.23125 595.8775) scale(0.16 -0.16)">
       <defs>
        <path id="DejaVuSans-38" d="M 2034 2216 
Q 1584 2216 1326 1975 
Q 1069 1734 1069 1313 
Q 1069 891 1326 650 
Q 1584 409 2034 409 
Q 2484 409 2743 651 
Q 3003 894 3003 1313 
Q 3003 1734 2745 1975 
Q 2488 2216 2034 2216 
z
M 1403 2484 
Q 997 2584 770 2862 
Q 544 3141 544 3541 
Q 544 4100 942 4425 
Q 1341 4750 2034 4750 
Q 2731 4750 3128 4425 
Q 3525 4100 3525 3541 
Q 3525 3141 3298 2862 
Q 3072 2584 2669 2484 
Q 3125 2378 3379 2068 
Q 3634 1759 3634 1313 
Q 3634 634 3220 271 
Q 2806 -91 2034 -91 
Q 1263 -91 848 271 
Q 434 634 434 1313 
Q 434 1759 690 2068 
Q 947 2378 1403 2484 
z
M 1172 3481 
Q 1172 3119 1398 2916 
Q 1625 2713 2034 2713 
Q 2441 2713 2670 2916 
Q 2900 3119 2900 3481 
Q 2900 3844 2670 4047 
Q 2441 4250 2034 4250 
Q 1625 4250 1398 4047 
Q 1172 3844 1172 3481 
z
" transform="scale(0.015625)"/>
       </defs>
       <use xlink:href="#DejaVuSans-63"/>
       <use xlink:href="#DejaVuSans-38" x="54.980469"/>
      </g>
     </g>
    </g>
    <g id="xtick_9">
     <g id="line2d_9">
      <g>
       <use xlink:href="#mec918c3eb8" x="997.92" y="576.72" style="stroke: #000000; stroke-width: 0.8"/>
      </g>
     </g>
     <g id="text_9">
      <!-- c9 -->
      <g transform="translate(988.43125 595.8775) scale(0.16 -0.16)">
       <defs>
        <path id="DejaVuSans-39" d="M 703 97 
L 703 672 
Q 941 559 1184 500 
Q 1428 441 1663 441 
Q 2288 441 2617 861 
Q 2947 1281 2994 2138 
Q 2813 1869 2534 1725 
Q 2256 1581 1919 1581 
Q 1219 1581 811 2004 
Q 403 2428 403 3163 
Q 403 3881 828 4315 
Q 1253 4750 1959 4750 
Q 2769 4750 3195 4129 
Q 3622 3509 3622 2328 
Q 3622 1225 3098 567 
Q 2575 -91 1691 -91 
Q 1453 -91 1209 -44 
Q 966 3 703 97 
z
M 1959 2075 
Q 2384 2075 2632 2365 
Q 2881 2656 2881 3163 
Q 2881 3666 2632 3958 
Q 2384 4250 1959 4250 
Q 1534 4250 1286 3958 
Q 1038 3666 1038 3163 
Q 1038 2656 1286 2365 
Q 1534 2075 1959 2075 
z
" transform="scale(0.015625)"/>
       </defs>
       <use xlink:href="#DejaVuSans-63"/>
       <use xlink:href="#DejaVuSans-39" x="54.980469"/>
      </g>
     </g>
    </g>
    <g id="xtick_10">
     <g id="line2d_10">
      <g>
       <use xlink:href="#mec918c3eb8" x="1095.12" y="576.72" style="stroke: #000000; stroke-width: 0.8"/>
      </g>
     </g>
     <g id="text_10">
      <!-- c10 -->
      <g transform="translate(1080.54125 595.8775) scale(0.16 -0.16)">
       <defs>
        <path id="DejaVuSans-30" d="M 2034 4250 
Q 1547 4250 1301 3770 
Q 1056 3291 1056 2328 
Q 1056 1369 1301 889 
Q 1547 409 2034 409 
Q 2525 409 2770 889 
Q 3016 1369 3016 2328 
Q 3016 3291 2770 3770 
Q 2525 4250 2034 4250 
z
M 2034 4750 
Q 2819 4750 3233 4129 
Q 3647 3509 3647 2328 
Q 3647 1150 3233 529 
Q 2819 -91 2034 -91 
Q 1250 -91 836 529 
Q 422 1150 422 2328 
Q 422 3509 836 4129 
Q 1250 4750 2034 4750 
z
" transform="scale(0.015625)"/>
       </defs>
       <use xlink:href="#DejaVuSans-63"/>
       <use xlink:href="#DejaVuSans-31" x="54.980469"/>
       <use xlink:href="#DejaVuSans-30" x="118.603516"/>
      </g>
     </g>
    </g>
   </g>
   <g id="matplotlib.axis_2">
    <g id="ytick_1">
     <g id="line2d_11">
      <defs>
       <path id="m4baf2cfda4" d="M 0 0 
L -3.5 0 
" style="stroke: #000000; stroke-width: 0.8"/>
      </defs>
      <g>
       <use xlink:href="#m4baf2cfda4" x="162" y="576.72" style="stroke: #000000; stroke-width: 0.8"/>
      </g>
     </g>
     <g id="text_11">
      <!-- 0 -->
      <g transform="translate(148.6375 580.519219) scale(0.1 -0.1)">
       <use xlink:href="#DejaVuSans-30"/>
      </g>
     </g>
    </g>
    <g id="ytick_2">
     <g id="line2d_12">
      <g>
       <use xlink:href="#m4baf2cfda4" x="162" y="482.400131" style="stroke: #000000; stroke-width: 0.8"/>
      </g>
     </g>
     <g id="text_12">
      <!-- 1 -->
      <g transform="translate(148.6375 486.199349) scale(0.1 -0.1)">
       <use xlink:href="#DejaVuSans-31"/>
      </g>
     </g>
    </g>
    <g id="ytick_3">
     <g id="line2d_13">
      <g>
       <use xlink:href="#m4baf2cfda4" x="162" y="388.080261" style="stroke: #000000; stroke-width: 0.8"/>
      </g>
     </g>
     <g id="text_13">
      <!-- 2 -->
      <g transform="translate(148.6375 391.87948) scale(0.1 -0.1)">
       <use xlink:href="#DejaVuSans-32"/>
      </g>
     </g>
    </g>
    <g id="ytick_4">
     <g id="line2d_14">
      <g>
       <use xlink:href="#m4baf2cfda4" x="162" y="293.760392" style="stroke: #000000; stroke-width: 0.8"/>
      </g>
     </g>
     <g id="text_14">
      <!-- 3 -->
      <g transform="translate(148.6375 297.55961) scale(0.1 -0.1)">
       <use xlink:href="#DejaVuSans-33"/>
      </g>
     </g>
    </g>
    <g id="ytick_5">
     <g id="line2d_15">
      <g>
       <use xlink:href="#m4baf2cfda4" x="162" y="199.440522" style="stroke: #000000; stroke-width: 0.8"/>
      </g>
     </g>
     <g id="text_15">
      <!-- 4 -->
      <g transform="translate(148.6375 203.239741) scale(0.1 -0.1)">
       <use xlink:href="#DejaVuSans-34"/>
      </g>
     </g>
    </g>
    <g id="ytick_6">
     <g id="line2d_16">
      <g>
       <use xlink:href="#m4baf2cfda4" x="162" y="105.120653" style="stroke: #000000; stroke-width: 0.8"/>
      </g>
     </g>
     <g id="text_16">
      <!-- 5 -->
      <g transform="translate(148.6375 108.919871) scale(0.1 -0.1)">
       <use xlink:href="#DejaVuSans-35"/>
      </g>
     </g>
    </g>
    <g id="text_17">
     <!-- The size of the client dataset (log10) -->
     <g transform="translate(141.31 474.5625) rotate(-90) scale(0.16 -0.16)">
      <defs>
       <path id="DejaVuSans-54" d="M -19 4666 
L 3928 4666 
L 3928 4134 
L 2272 4134 
L 2272 0 
L 1638 0 
L 1638 4134 
L -19 4134 
L -19 4666 
z
" transform="scale(0.015625)"/>
       <path id="DejaVuSans-68" d="M 3513 2113 
L 3513 0 
L 2938 0 
L 2938 2094 
Q 2938 2591 2744 2837 
Q 2550 3084 2163 3084 
Q 1697 3084 1428 2787 
Q 1159 2491 1159 1978 
L 1159 0 
L 581 0 
L 581 4863 
L 1159 4863 
L 1159 2956 
Q 1366 3272 1645 3428 
Q 1925 3584 2291 3584 
Q 2894 3584 3203 3211 
Q 3513 2838 3513 2113 
z
" transform="scale(0.015625)"/>
       <path id="DejaVuSans-65" d="M 3597 1894 
L 3597 1613 
L 953 1613 
Q 991 1019 1311 708 
Q 1631 397 2203 397 
Q 2534 397 2845 478 
Q 3156 559 3463 722 
L 3463 178 
Q 3153 47 2828 -22 
Q 2503 -91 2169 -91 
Q 1331 -91 842 396 
Q 353 884 353 1716 
Q 353 2575 817 3079 
Q 1281 3584 2069 3584 
Q 2775 3584 3186 3129 
Q 3597 2675 3597 1894 
z
M 3022 2063 
Q 3016 2534 2758 2815 
Q 2500 3097 2075 3097 
Q 1594 3097 1305 2825 
Q 1016 2553 972 2059 
L 3022 2063 
z
" transform="scale(0.015625)"/>
       <path id="DejaVuSans-20" transform="scale(0.015625)"/>
       <path id="DejaVuSans-73" d="M 2834 3397 
L 2834 2853 
Q 2591 2978 2328 3040 
Q 2066 3103 1784 3103 
Q 1356 3103 1142 2972 
Q 928 2841 928 2578 
Q 928 2378 1081 2264 
Q 1234 2150 1697 2047 
L 1894 2003 
Q 2506 1872 2764 1633 
Q 3022 1394 3022 966 
Q 3022 478 2636 193 
Q 2250 -91 1575 -91 
Q 1294 -91 989 -36 
Q 684 19 347 128 
L 347 722 
Q 666 556 975 473 
Q 1284 391 1588 391 
Q 1994 391 2212 530 
Q 2431 669 2431 922 
Q 2431 1156 2273 1281 
Q 2116 1406 1581 1522 
L 1381 1569 
Q 847 1681 609 1914 
Q 372 2147 372 2553 
Q 372 3047 722 3315 
Q 1072 3584 1716 3584 
Q 2034 3584 2315 3537 
Q 2597 3491 2834 3397 
z
" transform="scale(0.015625)"/>
       <path id="DejaVuSans-69" d="M 603 3500 
L 1178 3500 
L 1178 0 
L 603 0 
L 603 3500 
z
M 603 4863 
L 1178 4863 
L 1178 4134 
L 603 4134 
L 603 4863 
z
" transform="scale(0.015625)"/>
       <path id="DejaVuSans-7a" d="M 353 3500 
L 3084 3500 
L 3084 2975 
L 922 459 
L 3084 459 
L 3084 0 
L 275 0 
L 275 525 
L 2438 3041 
L 353 3041 
L 353 3500 
z
" transform="scale(0.015625)"/>
       <path id="DejaVuSans-6f" d="M 1959 3097 
Q 1497 3097 1228 2736 
Q 959 2375 959 1747 
Q 959 1119 1226 758 
Q 1494 397 1959 397 
Q 2419 397 2687 759 
Q 2956 1122 2956 1747 
Q 2956 2369 2687 2733 
Q 2419 3097 1959 3097 
z
M 1959 3584 
Q 2709 3584 3137 3096 
Q 3566 2609 3566 1747 
Q 3566 888 3137 398 
Q 2709 -91 1959 -91 
Q 1206 -91 779 398 
Q 353 888 353 1747 
Q 353 2609 779 3096 
Q 1206 3584 1959 3584 
z
" transform="scale(0.015625)"/>
       <path id="DejaVuSans-66" d="M 2375 4863 
L 2375 4384 
L 1825 4384 
Q 1516 4384 1395 4259 
Q 1275 4134 1275 3809 
L 1275 3500 
L 2222 3500 
L 2222 3053 
L 1275 3053 
L 1275 0 
L 697 0 
L 697 3053 
L 147 3053 
L 147 3500 
L 697 3500 
L 697 3744 
Q 697 4328 969 4595 
Q 1241 4863 1831 4863 
L 2375 4863 
z
" transform="scale(0.015625)"/>
       <path id="DejaVuSans-74" d="M 1172 4494 
L 1172 3500 
L 2356 3500 
L 2356 3053 
L 1172 3053 
L 1172 1153 
Q 1172 725 1289 603 
Q 1406 481 1766 481 
L 2356 481 
L 2356 0 
L 1766 0 
Q 1100 0 847 248 
Q 594 497 594 1153 
L 594 3053 
L 172 3053 
L 172 3500 
L 594 3500 
L 594 4494 
L 1172 4494 
z
" transform="scale(0.015625)"/>
       <path id="DejaVuSans-6c" d="M 603 4863 
L 1178 4863 
L 1178 0 
L 603 0 
L 603 4863 
z
" transform="scale(0.015625)"/>
       <path id="DejaVuSans-6e" d="M 3513 2113 
L 3513 0 
L 2938 0 
L 2938 2094 
Q 2938 2591 2744 2837 
Q 2550 3084 2163 3084 
Q 1697 3084 1428 2787 
Q 1159 2491 1159 1978 
L 1159 0 
L 581 0 
L 581 3500 
L 1159 3500 
L 1159 2956 
Q 1366 3272 1645 3428 
Q 1925 3584 2291 3584 
Q 2894 3584 3203 3211 
Q 3513 2838 3513 2113 
z
" transform="scale(0.015625)"/>
       <path id="DejaVuSans-64" d="M 2906 2969 
L 2906 4863 
L 3481 4863 
L 3481 0 
L 2906 0 
L 2906 525 
Q 2725 213 2448 61 
Q 2172 -91 1784 -91 
Q 1150 -91 751 415 
Q 353 922 353 1747 
Q 353 2572 751 3078 
Q 1150 3584 1784 3584 
Q 2172 3584 2448 3432 
Q 2725 3281 2906 2969 
z
M 947 1747 
Q 947 1113 1208 752 
Q 1469 391 1925 391 
Q 2381 391 2643 752 
Q 2906 1113 2906 1747 
Q 2906 2381 2643 2742 
Q 2381 3103 1925 3103 
Q 1469 3103 1208 2742 
Q 947 2381 947 1747 
z
" transform="scale(0.015625)"/>
       <path id="DejaVuSans-61" d="M 2194 1759 
Q 1497 1759 1228 1600 
Q 959 1441 959 1056 
Q 959 750 1161 570 
Q 1363 391 1709 391 
Q 2188 391 2477 730 
Q 2766 1069 2766 1631 
L 2766 1759 
L 2194 1759 
z
M 3341 1997 
L 3341 0 
L 2766 0 
L 2766 531 
Q 2569 213 2275 61 
Q 1981 -91 1556 -91 
Q 1019 -91 701 211 
Q 384 513 384 1019 
Q 384 1609 779 1909 
Q 1175 2209 1959 2209 
L 2766 2209 
L 2766 2266 
Q 2766 2663 2505 2880 
Q 2244 3097 1772 3097 
Q 1472 3097 1187 3025 
Q 903 2953 641 2809 
L 641 3341 
Q 956 3463 1253 3523 
Q 1550 3584 1831 3584 
Q 2591 3584 2966 3190 
Q 3341 2797 3341 1997 
z
" transform="scale(0.015625)"/>
       <path id="DejaVuSans-28" d="M 1984 4856 
Q 1566 4138 1362 3434 
Q 1159 2731 1159 2009 
Q 1159 1288 1364 580 
Q 1569 -128 1984 -844 
L 1484 -844 
Q 1016 -109 783 600 
Q 550 1309 550 2009 
Q 550 2706 781 3412 
Q 1013 4119 1484 4856 
L 1984 4856 
z
" transform="scale(0.015625)"/>
       <path id="DejaVuSans-67" d="M 2906 1791 
Q 2906 2416 2648 2759 
Q 2391 3103 1925 3103 
Q 1463 3103 1205 2759 
Q 947 2416 947 1791 
Q 947 1169 1205 825 
Q 1463 481 1925 481 
Q 2391 481 2648 825 
Q 2906 1169 2906 1791 
z
M 3481 434 
Q 3481 -459 3084 -895 
Q 2688 -1331 1869 -1331 
Q 1566 -1331 1297 -1286 
Q 1028 -1241 775 -1147 
L 775 -588 
Q 1028 -725 1275 -790 
Q 1522 -856 1778 -856 
Q 2344 -856 2625 -561 
Q 2906 -266 2906 331 
L 2906 616 
Q 2728 306 2450 153 
Q 2172 0 1784 0 
Q 1141 0 747 490 
Q 353 981 353 1791 
Q 353 2603 747 3093 
Q 1141 3584 1784 3584 
Q 2172 3584 2450 3431 
Q 2728 3278 2906 2969 
L 2906 3500 
L 3481 3500 
L 3481 434 
z
" transform="scale(0.015625)"/>
       <path id="DejaVuSans-29" d="M 513 4856 
L 1013 4856 
Q 1481 4119 1714 3412 
Q 1947 2706 1947 2009 
Q 1947 1309 1714 600 
Q 1481 -109 1013 -844 
L 513 -844 
Q 928 -128 1133 580 
Q 1338 1288 1338 2009 
Q 1338 2731 1133 3434 
Q 928 4138 513 4856 
z
" transform="scale(0.015625)"/>
      </defs>
      <use xlink:href="#DejaVuSans-54"/>
      <use xlink:href="#DejaVuSans-68" x="61.083984"/>
      <use xlink:href="#DejaVuSans-65" x="124.462891"/>
      <use xlink:href="#DejaVuSans-20" x="185.986328"/>
      <use xlink:href="#DejaVuSans-73" x="217.773438"/>
      <use xlink:href="#DejaVuSans-69" x="269.873047"/>
      <use xlink:href="#DejaVuSans-7a" x="297.65625"/>
      <use xlink:href="#DejaVuSans-65" x="350.146484"/>
      <use xlink:href="#DejaVuSans-20" x="411.669922"/>
      <use xlink:href="#DejaVuSans-6f" x="443.457031"/>
      <use xlink:href="#DejaVuSans-66" x="504.638672"/>
      <use xlink:href="#DejaVuSans-20" x="539.84375"/>
      <use xlink:href="#DejaVuSans-74" x="571.630859"/>
      <use xlink:href="#DejaVuSans-68" x="610.839844"/>
      <use xlink:href="#DejaVuSans-65" x="674.21875"/>
      <use xlink:href="#DejaVuSans-20" x="735.742188"/>
      <use xlink:href="#DejaVuSans-63" x="767.529297"/>
      <use xlink:href="#DejaVuSans-6c" x="822.509766"/>
      <use xlink:href="#DejaVuSans-69" x="850.292969"/>
      <use xlink:href="#DejaVuSans-65" x="878.076172"/>
      <use xlink:href="#DejaVuSans-6e" x="939.599609"/>
      <use xlink:href="#DejaVuSans-74" x="1002.978516"/>
      <use xlink:href="#DejaVuSans-20" x="1042.1875"/>
      <use xlink:href="#DejaVuSans-64" x="1073.974609"/>
      <use xlink:href="#DejaVuSans-61" x="1137.451172"/>
      <use xlink:href="#DejaVuSans-74" x="1198.730469"/>
      <use xlink:href="#DejaVuSans-61" x="1237.939453"/>
      <use xlink:href="#DejaVuSans-73" x="1299.21875"/>
      <use xlink:href="#DejaVuSans-65" x="1351.318359"/>
      <use xlink:href="#DejaVuSans-74" x="1412.841797"/>
      <use xlink:href="#DejaVuSans-20" x="1452.050781"/>
      <use xlink:href="#DejaVuSans-28" x="1483.837891"/>
      <use xlink:href="#DejaVuSans-6c" x="1522.851562"/>
      <use xlink:href="#DejaVuSans-6f" x="1550.634766"/>
      <use xlink:href="#DejaVuSans-67" x="1611.816406"/>
      <use xlink:href="#DejaVuSans-31" x="1675.292969"/>
      <use xlink:href="#DejaVuSans-30" x="1738.916016"/>
      <use xlink:href="#DejaVuSans-29" x="1802.539062"/>
     </g>
    </g>
   </g>
   <g id="patch_43">
    <path d="M 162 576.72 
L 162 77.76 
" style="fill: none; stroke: #000000; stroke-width: 0.8; stroke-linejoin: miter; stroke-linecap: square"/>
   </g>
   <g id="patch_44">
    <path d="M 1166.4 576.72 
L 1166.4 77.76 
" style="fill: none; stroke: #000000; stroke-width: 0.8; stroke-linejoin: miter; stroke-linecap: square"/>
   </g>
   <g id="patch_45">
    <path d="M 162 576.72 
L 1166.4 576.72 
" style="fill: none; stroke: #000000; stroke-width: 0.8; stroke-linejoin: miter; stroke-linecap: square"/>
   </g>
   <g id="patch_46">
    <path d="M 162 77.76 
L 1166.4 77.76 
" style="fill: none; stroke: #000000; stroke-width: 0.8; stroke-linejoin: miter; stroke-linecap: square"/>
   </g>
   <g id="text_18">
    <!-- 4500 -->
    <g transform="translate(181.675 229.319876) scale(0.1 -0.1)">
     <use xlink:href="#DejaVuSans-34"/>
     <use xlink:href="#DejaVuSans-35" x="63.623047"/>
     <use xlink:href="#DejaVuSans-30" x="127.246094"/>
     <use xlink:href="#DejaVuSans-30" x="190.869141"/>
    </g>
   </g>
   <g id="text_19">
    <!-- 4856 -->
    <g transform="translate(207.595 226.20108) scale(0.1 -0.1)">
     <use xlink:href="#DejaVuSans-34"/>
     <use xlink:href="#DejaVuSans-38" x="63.623047"/>
     <use xlink:href="#DejaVuSans-35" x="127.246094"/>
     <use xlink:href="#DejaVuSans-36" x="190.869141"/>
    </g>
   </g>
   <g id="text_20">
    <!-- 76469 -->
    <g transform="translate(230.33375 113.280697) scale(0.1 -0.1)">
     <use xlink:href="#DejaVuSans-37"/>
     <use xlink:href="#DejaVuSans-36" x="63.623047"/>
     <use xlink:href="#DejaVuSans-34" x="127.246094"/>
     <use xlink:href="#DejaVuSans-36" x="190.869141"/>
     <use xlink:href="#DejaVuSans-39" x="254.492188"/>
    </g>
   </g>
   <g id="text_21">
    <!-- 109188 -->
    <g transform="translate(253.0725 98.690404) scale(0.1 -0.1)">
     <use xlink:href="#DejaVuSans-31"/>
     <use xlink:href="#DejaVuSans-30" x="63.623047"/>
     <use xlink:href="#DejaVuSans-39" x="127.246094"/>
     <use xlink:href="#DejaVuSans-31" x="190.869141"/>
     <use xlink:href="#DejaVuSans-38" x="254.492188"/>
     <use xlink:href="#DejaVuSans-38" x="318.115234"/>
    </g>
   </g>
   <g id="text_22">
    <!-- 107 -->
    <g transform="translate(282.05625 382.479191) scale(0.1 -0.1)">
     <use xlink:href="#DejaVuSans-31"/>
     <use xlink:href="#DejaVuSans-30" x="63.623047"/>
     <use xlink:href="#DejaVuSans-37" x="127.246094"/>
    </g>
   </g>
   <g id="text_23">
    <!-- 30 -->
    <g transform="translate(311.1575 434.56852) scale(0.1 -0.1)">
     <use xlink:href="#DejaVuSans-33"/>
     <use xlink:href="#DejaVuSans-30" x="63.623047"/>
    </g>
   </g>
   <g id="text_24">
    <!-- 630 -->
    <g transform="translate(333.89625 309.856969) scale(0.1 -0.1)">
     <use xlink:href="#DejaVuSans-36"/>
     <use xlink:href="#DejaVuSans-33" x="63.623047"/>
     <use xlink:href="#DejaVuSans-30" x="127.246094"/>
    </g>
   </g>
   <g id="text_25">
    <!-- 417 -->
    <g transform="translate(359.81625 326.759513) scale(0.1 -0.1)">
     <use xlink:href="#DejaVuSans-34"/>
     <use xlink:href="#DejaVuSans-31" x="63.623047"/>
     <use xlink:href="#DejaVuSans-37" x="127.246094"/>
    </g>
   </g>
   <g id="text_26">
    <!-- 27 -->
    <g transform="translate(382.4375 438.884361) scale(0.1 -0.1)">
     <use xlink:href="#DejaVuSans-32"/>
     <use xlink:href="#DejaVuSans-37" x="63.623047"/>
    </g>
   </g>
   <g id="text_27">
    <!-- 62 -->
    <g transform="translate(408.3575 404.832254) scale(0.1 -0.1)">
     <use xlink:href="#DejaVuSans-36"/>
     <use xlink:href="#DejaVuSans-32" x="63.623047"/>
    </g>
   </g>
   <g id="text_28">
    <!-- 949 -->
    <g transform="translate(431.09625 293.075043) scale(0.1 -0.1)">
     <use xlink:href="#DejaVuSans-39"/>
     <use xlink:href="#DejaVuSans-34" x="63.623047"/>
     <use xlink:href="#DejaVuSans-39" x="127.246094"/>
    </g>
   </g>
   <g id="text_29">
    <!-- 2296 -->
    <g transform="translate(453.835 256.883975) scale(0.1 -0.1)">
     <use xlink:href="#DejaVuSans-32"/>
     <use xlink:href="#DejaVuSans-32" x="63.623047"/>
     <use xlink:href="#DejaVuSans-39" x="127.246094"/>
     <use xlink:href="#DejaVuSans-36" x="190.869141"/>
    </g>
   </g>
   <g id="text_30">
    <!-- 19 -->
    <g transform="translate(479.6375 453.278531) scale(0.1 -0.1)">
     <use xlink:href="#DejaVuSans-31"/>
     <use xlink:href="#DejaVuSans-39" x="63.623047"/>
    </g>
   </g>
   <g id="text_31">
    <!-- 16 -->
    <g transform="translate(505.5575 460.317964) scale(0.1 -0.1)">
     <use xlink:href="#DejaVuSans-31"/>
     <use xlink:href="#DejaVuSans-36" x="63.623047"/>
    </g>
   </g>
   <g id="text_32">
    <!-- 759 -->
    <g transform="translate(528.29625 302.226376) scale(0.1 -0.1)">
     <use xlink:href="#DejaVuSans-37"/>
     <use xlink:href="#DejaVuSans-35" x="63.623047"/>
     <use xlink:href="#DejaVuSans-39" x="127.246094"/>
    </g>
   </g>
   <g id="text_33">
    <!-- 1050 -->
    <g transform="translate(551.035 288.932224) scale(0.1 -0.1)">
     <use xlink:href="#DejaVuSans-31"/>
     <use xlink:href="#DejaVuSans-30" x="63.623047"/>
     <use xlink:href="#DejaVuSans-35" x="127.246094"/>
     <use xlink:href="#DejaVuSans-30" x="190.869141"/>
    </g>
   </g>
   <g id="text_34">
    <!-- 226 -->
    <g transform="translate(573.65625 351.851203) scale(0.1 -0.1)">
     <use xlink:href="#DejaVuSans-32"/>
     <use xlink:href="#DejaVuSans-32" x="63.623047"/>
     <use xlink:href="#DejaVuSans-36" x="127.246094"/>
    </g>
   </g>
   <g id="text_35">
    <!-- 292 -->
    <g transform="translate(599.57625 341.355815) scale(0.1 -0.1)">
     <use xlink:href="#DejaVuSans-32"/>
     <use xlink:href="#DejaVuSans-39" x="63.623047"/>
     <use xlink:href="#DejaVuSans-32" x="127.246094"/>
    </g>
   </g>
   <g id="text_36">
    <!-- 500 -->
    <g transform="translate(625.49625 319.323905) scale(0.1 -0.1)">
     <use xlink:href="#DejaVuSans-35"/>
     <use xlink:href="#DejaVuSans-30" x="63.623047"/>
     <use xlink:href="#DejaVuSans-30" x="127.246094"/>
    </g>
   </g>
   <g id="text_37">
    <!-- 1200 -->
    <g transform="translate(648.235 283.462431) scale(0.1 -0.1)">
     <use xlink:href="#DejaVuSans-31"/>
     <use xlink:href="#DejaVuSans-32" x="63.623047"/>
     <use xlink:href="#DejaVuSans-30" x="127.246094"/>
     <use xlink:href="#DejaVuSans-30" x="190.869141"/>
    </g>
   </g>
   <g id="text_38">
    <!-- 21 -->
    <g transform="translate(674.0375 449.178853) scale(0.1 -0.1)">
     <use xlink:href="#DejaVuSans-32"/>
     <use xlink:href="#DejaVuSans-31" x="63.623047"/>
    </g>
   </g>
   <g id="text_39">
    <!-- 152 -->
    <g transform="translate(696.77625 368.099201) scale(0.1 -0.1)">
     <use xlink:href="#DejaVuSans-31"/>
     <use xlink:href="#DejaVuSans-35" x="63.623047"/>
     <use xlink:href="#DejaVuSans-32" x="127.246094"/>
    </g>
   </g>
   <g id="text_40">
    <!-- 1051 -->
    <g transform="translate(719.515 288.89323) scale(0.1 -0.1)">
     <use xlink:href="#DejaVuSans-31"/>
     <use xlink:href="#DejaVuSans-30" x="63.623047"/>
     <use xlink:href="#DejaVuSans-35" x="127.246094"/>
     <use xlink:href="#DejaVuSans-31" x="190.869141"/>
    </g>
   </g>
   <g id="text_41">
    <!-- 1503 -->
    <g transform="translate(745.435 274.240048) scale(0.1 -0.1)">
     <use xlink:href="#DejaVuSans-31"/>
     <use xlink:href="#DejaVuSans-35" x="63.623047"/>
     <use xlink:href="#DejaVuSans-30" x="127.246094"/>
     <use xlink:href="#DejaVuSans-33" x="190.869141"/>
    </g>
   </g>
   <g id="text_42">
    <!-- 55 -->
    <g transform="translate(771.2375 409.739622) scale(0.1 -0.1)">
     <use xlink:href="#DejaVuSans-35"/>
     <use xlink:href="#DejaVuSans-35" x="63.623047"/>
    </g>
   </g>
   <g id="text_43">
    <!-- 81 -->
    <g transform="translate(797.1575 393.882346) scale(0.1 -0.1)">
     <use xlink:href="#DejaVuSans-38"/>
     <use xlink:href="#DejaVuSans-31" x="63.623047"/>
    </g>
   </g>
   <g id="text_44">
    <!-- 601 -->
    <g transform="translate(819.89625 311.787326) scale(0.1 -0.1)">
     <use xlink:href="#DejaVuSans-36"/>
     <use xlink:href="#DejaVuSans-30" x="63.623047"/>
     <use xlink:href="#DejaVuSans-31" x="127.246094"/>
    </g>
   </g>
   <g id="text_45">
    <!-- 156 -->
    <g transform="translate(845.81625 367.035178) scale(0.1 -0.1)">
     <use xlink:href="#DejaVuSans-31"/>
     <use xlink:href="#DejaVuSans-35" x="63.623047"/>
     <use xlink:href="#DejaVuSans-36" x="127.246094"/>
    </g>
   </g>
   <g id="text_46">
    <!-- 10 -->
    <g transform="translate(868.4375 479.570534) scale(0.1 -0.1)">
     <use xlink:href="#DejaVuSans-31"/>
     <use xlink:href="#DejaVuSans-30" x="63.623047"/>
    </g>
   </g>
   <g id="text_47">
    <!-- 16 -->
    <g transform="translate(894.3575 460.317964) scale(0.1 -0.1)">
     <use xlink:href="#DejaVuSans-31"/>
     <use xlink:href="#DejaVuSans-36" x="63.623047"/>
    </g>
   </g>
   <g id="text_48">
    <!-- 658 -->
    <g transform="translate(917.09625 308.075705) scale(0.1 -0.1)">
     <use xlink:href="#DejaVuSans-36"/>
     <use xlink:href="#DejaVuSans-35" x="63.623047"/>
     <use xlink:href="#DejaVuSans-38" x="127.246094"/>
    </g>
   </g>
   <g id="text_49">
    <!-- 770 -->
    <g transform="translate(943.01625 301.636975) scale(0.1 -0.1)">
     <use xlink:href="#DejaVuSans-37"/>
     <use xlink:href="#DejaVuSans-37" x="63.623047"/>
     <use xlink:href="#DejaVuSans-30" x="127.246094"/>
    </g>
   </g>
   <g id="text_50">
    <!-- 40 -->
    <g transform="translate(965.6375 422.784315) scale(0.1 -0.1)">
     <use xlink:href="#DejaVuSans-34"/>
     <use xlink:href="#DejaVuSans-30" x="63.623047"/>
    </g>
   </g>
   <g id="text_51">
    <!-- 52 -->
    <g transform="translate(991.5575 412.037193) scale(0.1 -0.1)">
     <use xlink:href="#DejaVuSans-35"/>
     <use xlink:href="#DejaVuSans-32" x="63.623047"/>
    </g>
   </g>
   <g id="text_52">
    <!-- 178 -->
    <g transform="translate(1014.29625 361.631083) scale(0.1 -0.1)">
     <use xlink:href="#DejaVuSans-31"/>
     <use xlink:href="#DejaVuSans-37" x="63.623047"/>
     <use xlink:href="#DejaVuSans-38" x="127.246094"/>
    </g>
   </g>
   <g id="text_53">
    <!-- 184 -->
    <g transform="translate(1040.21625 360.273082) scale(0.1 -0.1)">
     <use xlink:href="#DejaVuSans-31"/>
     <use xlink:href="#DejaVuSans-38" x="63.623047"/>
     <use xlink:href="#DejaVuSans-34" x="127.246094"/>
    </g>
   </g>
   <g id="text_54">
    <!-- 6 -->
    <g transform="translate(1066.01875 500.49528) scale(0.1 -0.1)">
     <use xlink:href="#DejaVuSans-36"/>
    </g>
   </g>
   <g id="text_55">
    <!-- 163 -->
    <g transform="translate(1085.57625 365.237158) scale(0.1 -0.1)">
     <use xlink:href="#DejaVuSans-31"/>
     <use xlink:href="#DejaVuSans-36" x="63.623047"/>
     <use xlink:href="#DejaVuSans-33" x="127.246094"/>
    </g>
   </g>
   <g id="text_56">
    <!-- 286 -->
    <g transform="translate(1111.49625 342.20628) scale(0.1 -0.1)">
     <use xlink:href="#DejaVuSans-32"/>
     <use xlink:href="#DejaVuSans-38" x="63.623047"/>
     <use xlink:href="#DejaVuSans-36" x="127.246094"/>
    </g>
   </g>
   <g id="text_57">
    <!-- 522 -->
    <g transform="translate(1137.41625 317.560077) scale(0.1 -0.1)">
     <use xlink:href="#DejaVuSans-35"/>
     <use xlink:href="#DejaVuSans-32" x="63.623047"/>
     <use xlink:href="#DejaVuSans-32" x="127.246094"/>
    </g>
   </g>
   <g id="legend_1">
    <g id="patch_47">
     <path d="M 980.925 184.5 
L 1155.2 184.5 
Q 1158.4 184.5 1158.4 181.3 
L 1158.4 88.96 
Q 1158.4 85.76 1155.2 85.76 
L 980.925 85.76 
Q 977.725 85.76 977.725 88.96 
L 977.725 181.3 
Q 977.725 184.5 980.925 184.5 
z
" style="fill: #ffffff; opacity: 0.8; stroke: #cccccc; stroke-linejoin: miter"/>
    </g>
    <g id="patch_48">
     <path d="M 984.125 104.3175 
L 1016.125 104.3175 
L 1016.125 93.1175 
L 984.125 93.1175 
z
" style="fill: #1f77b4"/>
    </g>
    <g id="text_58">
     <!-- VOC 2007 -->
     <g transform="translate(1028.925 104.3175) scale(0.16 -0.16)">
      <defs>
       <path id="DejaVuSans-56" d="M 1831 0 
L 50 4666 
L 709 4666 
L 2188 738 
L 3669 4666 
L 4325 4666 
L 2547 0 
L 1831 0 
z
" transform="scale(0.015625)"/>
       <path id="DejaVuSans-4f" d="M 2522 4238 
Q 1834 4238 1429 3725 
Q 1025 3213 1025 2328 
Q 1025 1447 1429 934 
Q 1834 422 2522 422 
Q 3209 422 3611 934 
Q 4013 1447 4013 2328 
Q 4013 3213 3611 3725 
Q 3209 4238 2522 4238 
z
M 2522 4750 
Q 3503 4750 4090 4092 
Q 4678 3434 4678 2328 
Q 4678 1225 4090 567 
Q 3503 -91 2522 -91 
Q 1538 -91 948 565 
Q 359 1222 359 2328 
Q 359 3434 948 4092 
Q 1538 4750 2522 4750 
z
" transform="scale(0.015625)"/>
       <path id="DejaVuSans-43" d="M 4122 4306 
L 4122 3641 
Q 3803 3938 3442 4084 
Q 3081 4231 2675 4231 
Q 1875 4231 1450 3742 
Q 1025 3253 1025 2328 
Q 1025 1406 1450 917 
Q 1875 428 2675 428 
Q 3081 428 3442 575 
Q 3803 722 4122 1019 
L 4122 359 
Q 3791 134 3420 21 
Q 3050 -91 2638 -91 
Q 1578 -91 968 557 
Q 359 1206 359 2328 
Q 359 3453 968 4101 
Q 1578 4750 2638 4750 
Q 3056 4750 3426 4639 
Q 3797 4528 4122 4306 
z
" transform="scale(0.015625)"/>
      </defs>
      <use xlink:href="#DejaVuSans-56"/>
      <use xlink:href="#DejaVuSans-4f" x="66.658203"/>
      <use xlink:href="#DejaVuSans-43" x="145.369141"/>
      <use xlink:href="#DejaVuSans-20" x="215.193359"/>
      <use xlink:href="#DejaVuSans-32" x="246.980469"/>
      <use xlink:href="#DejaVuSans-30" x="310.603516"/>
      <use xlink:href="#DejaVuSans-30" x="374.226562"/>
      <use xlink:href="#DejaVuSans-37" x="437.849609"/>
     </g>
    </g>
    <g id="patch_49">
     <path d="M 984.125 127.8025 
L 1016.125 127.8025 
L 1016.125 116.6025 
L 984.125 116.6025 
z
" style="fill: #ff7f0e"/>
    </g>
    <g id="text_59">
     <!-- VOC 2012 -->
     <g transform="translate(1028.925 127.8025) scale(0.16 -0.16)">
      <use xlink:href="#DejaVuSans-56"/>
      <use xlink:href="#DejaVuSans-4f" x="66.658203"/>
      <use xlink:href="#DejaVuSans-43" x="145.369141"/>
      <use xlink:href="#DejaVuSans-20" x="215.193359"/>
      <use xlink:href="#DejaVuSans-32" x="246.980469"/>
      <use xlink:href="#DejaVuSans-30" x="310.603516"/>
      <use xlink:href="#DejaVuSans-31" x="374.226562"/>
      <use xlink:href="#DejaVuSans-32" x="437.849609"/>
     </g>
    </g>
    <g id="patch_50">
     <path d="M 984.125 151.2875 
L 1016.125 151.2875 
L 1016.125 140.0875 
L 984.125 140.0875 
z
" style="fill: #2ca02c"/>
    </g>
    <g id="text_60">
     <!-- MS-COCO 2014 -->
     <g transform="translate(1028.925 151.2875) scale(0.16 -0.16)">
      <defs>
       <path id="DejaVuSans-4d" d="M 628 4666 
L 1569 4666 
L 2759 1491 
L 3956 4666 
L 4897 4666 
L 4897 0 
L 4281 0 
L 4281 4097 
L 3078 897 
L 2444 897 
L 1241 4097 
L 1241 0 
L 628 0 
L 628 4666 
z
" transform="scale(0.015625)"/>
       <path id="DejaVuSans-53" d="M 3425 4513 
L 3425 3897 
Q 3066 4069 2747 4153 
Q 2428 4238 2131 4238 
Q 1616 4238 1336 4038 
Q 1056 3838 1056 3469 
Q 1056 3159 1242 3001 
Q 1428 2844 1947 2747 
L 2328 2669 
Q 3034 2534 3370 2195 
Q 3706 1856 3706 1288 
Q 3706 609 3251 259 
Q 2797 -91 1919 -91 
Q 1588 -91 1214 -16 
Q 841 59 441 206 
L 441 856 
Q 825 641 1194 531 
Q 1563 422 1919 422 
Q 2459 422 2753 634 
Q 3047 847 3047 1241 
Q 3047 1584 2836 1778 
Q 2625 1972 2144 2069 
L 1759 2144 
Q 1053 2284 737 2584 
Q 422 2884 422 3419 
Q 422 4038 858 4394 
Q 1294 4750 2059 4750 
Q 2388 4750 2728 4690 
Q 3069 4631 3425 4513 
z
" transform="scale(0.015625)"/>
       <path id="DejaVuSans-2d" d="M 313 2009 
L 1997 2009 
L 1997 1497 
L 313 1497 
L 313 2009 
z
" transform="scale(0.015625)"/>
      </defs>
      <use xlink:href="#DejaVuSans-4d"/>
      <use xlink:href="#DejaVuSans-53" x="86.279297"/>
      <use xlink:href="#DejaVuSans-2d" x="149.755859"/>
      <use xlink:href="#DejaVuSans-43" x="185.839844"/>
      <use xlink:href="#DejaVuSans-4f" x="255.664062"/>
      <use xlink:href="#DejaVuSans-43" x="334.375"/>
      <use xlink:href="#DejaVuSans-4f" x="404.199219"/>
      <use xlink:href="#DejaVuSans-20" x="482.910156"/>
      <use xlink:href="#DejaVuSans-32" x="514.697266"/>
      <use xlink:href="#DejaVuSans-30" x="578.320312"/>
      <use xlink:href="#DejaVuSans-31" x="641.943359"/>
      <use xlink:href="#DejaVuSans-34" x="705.566406"/>
     </g>
    </g>
    <g id="patch_51">
     <path d="M 984.125 174.7725 
L 1016.125 174.7725 
L 1016.125 163.5725 
L 984.125 163.5725 
z
" style="fill: #d62728"/>
    </g>
    <g id="text_61">
     <!-- MS-COCO 2017 -->
     <g transform="translate(1028.925 174.7725) scale(0.16 -0.16)">
      <use xlink:href="#DejaVuSans-4d"/>
      <use xlink:href="#DejaVuSans-53" x="86.279297"/>
      <use xlink:href="#DejaVuSans-2d" x="149.755859"/>
      <use xlink:href="#DejaVuSans-43" x="185.839844"/>
      <use xlink:href="#DejaVuSans-4f" x="255.664062"/>
      <use xlink:href="#DejaVuSans-43" x="334.375"/>
      <use xlink:href="#DejaVuSans-4f" x="404.199219"/>
      <use xlink:href="#DejaVuSans-20" x="482.910156"/>
      <use xlink:href="#DejaVuSans-32" x="514.697266"/>
      <use xlink:href="#DejaVuSans-30" x="578.320312"/>
      <use xlink:href="#DejaVuSans-31" x="641.943359"/>
      <use xlink:href="#DejaVuSans-37" x="705.566406"/>
     </g>
    </g>
   </g>
  </g>
 </g>
 <defs>
  <clipPath id="pf8858d3cd5">
   <rect x="162" y="77.76" width="1004.4" height="498.96"/>
  </clipPath>
 </defs>
</svg>
