<?xml version="1.0" encoding="utf-8" standalone="no"?>
<!DOCTYPE svg PUBLIC "-//W3C//DTD SVG 1.1//EN"
  "http://www.w3.org/Graphics/SVG/1.1/DTD/svg11.dtd">
<svg xmlns:xlink="http://www.w3.org/1999/xlink" width="460.8pt" height="345.6pt" viewBox="0 0 460.8 345.6" xmlns="http://www.w3.org/2000/svg" version="1.1">
 <metadata>
  <rdf:RDF xmlns:dc="http://purl.org/dc/elements/1.1/" xmlns:cc="http://creativecommons.org/ns#" xmlns:rdf="http://www.w3.org/1999/02/22-rdf-syntax-ns#">
   <cc:Work>
    <dc:type rdf:resource="http://purl.org/dc/dcmitype/StillImage"/>
    <dc:date>2024-03-28T22:02:17.635627</dc:date>
    <dc:format>image/svg+xml</dc:format>
    <dc:creator>
     <cc:Agent>
      <dc:title>Matplotlib v3.7.1, https://matplotlib.org/</dc:title>
     </cc:Agent>
    </dc:creator>
   </cc:Work>
  </rdf:RDF>
 </metadata>
 <defs>
  <style type="text/css">*{stroke-linejoin: round; stroke-linecap: butt}</style>
 </defs>
 <g id="figure_1">
  <g id="patch_1">
   <path d="M 0 345.6 
L 460.8 345.6 
L 460.8 0 
L 0 0 
z
" style="fill: #ffffff"/>
  </g>
  <g id="axes_1">
   <g id="patch_2">
    <path d="M 57.6 307.584 
L 414.72 307.584 
L 414.72 41.472 
L 57.6 41.472 
z
" style="fill: #ffffff"/>
   </g>
   <g id="matplotlib.axis_1">
    <g id="xtick_1">
     <g id="line2d_1">
      <defs>
       <path id="m1d9d069db5" d="M 0 0 
L 0 3.5 
" style="stroke: #000000; stroke-width: 0.8"/>
      </defs>
      <g>
       <use xlink:href="#m1d9d069db5" x="73.832727" y="307.584" style="stroke: #000000; stroke-width: 0.8"/>
      </g>
     </g>
     <g id="text_1">
      <!-- 0 -->
      <g transform="translate(70.651477 322.182437) scale(0.1 -0.1)">
       <defs>
        <path id="DejaVuSans-30" d="M 2034 4250 
Q 1547 4250 1301 3770 
Q 1056 3291 1056 2328 
Q 1056 1369 1301 889 
Q 1547 409 2034 409 
Q 2525 409 2770 889 
Q 3016 1369 3016 2328 
Q 3016 3291 2770 3770 
Q 2525 4250 2034 4250 
z
M 2034 4750 
Q 2819 4750 3233 4129 
Q 3647 3509 3647 2328 
Q 3647 1150 3233 529 
Q 2819 -91 2034 -91 
Q 1250 -91 836 529 
Q 422 1150 422 2328 
Q 422 3509 836 4129 
Q 1250 4750 2034 4750 
z
" transform="scale(0.015625)"/>
       </defs>
       <use xlink:href="#DejaVuSans-30"/>
      </g>
     </g>
    </g>
    <g id="xtick_2">
     <g id="line2d_2">
      <g>
       <use xlink:href="#m1d9d069db5" x="123.322749" y="307.584" style="stroke: #000000; stroke-width: 0.8"/>
      </g>
     </g>
     <g id="text_2">
      <!-- 25 -->
      <g transform="translate(116.960249 322.182437) scale(0.1 -0.1)">
       <defs>
        <path id="DejaVuSans-32" d="M 1228 531 
L 3431 531 
L 3431 0 
L 469 0 
L 469 531 
Q 828 903 1448 1529 
Q 2069 2156 2228 2338 
Q 2531 2678 2651 2914 
Q 2772 3150 2772 3378 
Q 2772 3750 2511 3984 
Q 2250 4219 1831 4219 
Q 1534 4219 1204 4116 
Q 875 4013 500 3803 
L 500 4441 
Q 881 4594 1212 4672 
Q 1544 4750 1819 4750 
Q 2544 4750 2975 4387 
Q 3406 4025 3406 3419 
Q 3406 3131 3298 2873 
Q 3191 2616 2906 2266 
Q 2828 2175 2409 1742 
Q 1991 1309 1228 531 
z
" transform="scale(0.015625)"/>
        <path id="DejaVuSans-35" d="M 691 4666 
L 3169 4666 
L 3169 4134 
L 1269 4134 
L 1269 2991 
Q 1406 3038 1543 3061 
Q 1681 3084 1819 3084 
Q 2600 3084 3056 2656 
Q 3513 2228 3513 1497 
Q 3513 744 3044 326 
Q 2575 -91 1722 -91 
Q 1428 -91 1123 -41 
Q 819 9 494 109 
L 494 744 
Q 775 591 1075 516 
Q 1375 441 1709 441 
Q 2250 441 2565 725 
Q 2881 1009 2881 1497 
Q 2881 1984 2565 2268 
Q 2250 2553 1709 2553 
Q 1456 2553 1204 2497 
Q 953 2441 691 2322 
L 691 4666 
z
" transform="scale(0.015625)"/>
       </defs>
       <use xlink:href="#DejaVuSans-32"/>
       <use xlink:href="#DejaVuSans-35" x="63.623047"/>
      </g>
     </g>
    </g>
    <g id="xtick_3">
     <g id="line2d_3">
      <g>
       <use xlink:href="#m1d9d069db5" x="172.812772" y="307.584" style="stroke: #000000; stroke-width: 0.8"/>
      </g>
     </g>
     <g id="text_3">
      <!-- 50 -->
      <g transform="translate(166.450272 322.182437) scale(0.1 -0.1)">
       <use xlink:href="#DejaVuSans-35"/>
       <use xlink:href="#DejaVuSans-30" x="63.623047"/>
      </g>
     </g>
    </g>
    <g id="xtick_4">
     <g id="line2d_4">
      <g>
       <use xlink:href="#m1d9d069db5" x="222.302794" y="307.584" style="stroke: #000000; stroke-width: 0.8"/>
      </g>
     </g>
     <g id="text_4">
      <!-- 75 -->
      <g transform="translate(215.940294 322.182437) scale(0.1 -0.1)">
       <defs>
        <path id="DejaVuSans-37" d="M 525 4666 
L 3525 4666 
L 3525 4397 
L 1831 0 
L 1172 0 
L 2766 4134 
L 525 4134 
L 525 4666 
z
" transform="scale(0.015625)"/>
       </defs>
       <use xlink:href="#DejaVuSans-37"/>
       <use xlink:href="#DejaVuSans-35" x="63.623047"/>
      </g>
     </g>
    </g>
    <g id="xtick_5">
     <g id="line2d_5">
      <g>
       <use xlink:href="#m1d9d069db5" x="271.792816" y="307.584" style="stroke: #000000; stroke-width: 0.8"/>
      </g>
     </g>
     <g id="text_5">
      <!-- 100 -->
      <g transform="translate(262.249066 322.182437) scale(0.1 -0.1)">
       <defs>
        <path id="DejaVuSans-31" d="M 794 531 
L 1825 531 
L 1825 4091 
L 703 3866 
L 703 4441 
L 1819 4666 
L 2450 4666 
L 2450 531 
L 3481 531 
L 3481 0 
L 794 0 
L 794 531 
z
" transform="scale(0.015625)"/>
       </defs>
       <use xlink:href="#DejaVuSans-31"/>
       <use xlink:href="#DejaVuSans-30" x="63.623047"/>
       <use xlink:href="#DejaVuSans-30" x="127.246094"/>
      </g>
     </g>
    </g>
    <g id="xtick_6">
     <g id="line2d_6">
      <g>
       <use xlink:href="#m1d9d069db5" x="321.282838" y="307.584" style="stroke: #000000; stroke-width: 0.8"/>
      </g>
     </g>
     <g id="text_6">
      <!-- 125 -->
      <g transform="translate(311.739088 322.182437) scale(0.1 -0.1)">
       <use xlink:href="#DejaVuSans-31"/>
       <use xlink:href="#DejaVuSans-32" x="63.623047"/>
       <use xlink:href="#DejaVuSans-35" x="127.246094"/>
      </g>
     </g>
    </g>
    <g id="xtick_7">
     <g id="line2d_7">
      <g>
       <use xlink:href="#m1d9d069db5" x="370.77286" y="307.584" style="stroke: #000000; stroke-width: 0.8"/>
      </g>
     </g>
     <g id="text_7">
      <!-- 150 -->
      <g transform="translate(361.22911 322.182437) scale(0.1 -0.1)">
       <use xlink:href="#DejaVuSans-31"/>
       <use xlink:href="#DejaVuSans-35" x="63.623047"/>
       <use xlink:href="#DejaVuSans-30" x="127.246094"/>
      </g>
     </g>
    </g>
    <g id="text_8">
     <!-- epoch -->
     <g transform="translate(220.931875 335.860562) scale(0.1 -0.1)">
      <defs>
       <path id="DejaVuSans-65" d="M 3597 1894 
L 3597 1613 
L 953 1613 
Q 991 1019 1311 708 
Q 1631 397 2203 397 
Q 2534 397 2845 478 
Q 3156 559 3463 722 
L 3463 178 
Q 3153 47 2828 -22 
Q 2503 -91 2169 -91 
Q 1331 -91 842 396 
Q 353 884 353 1716 
Q 353 2575 817 3079 
Q 1281 3584 2069 3584 
Q 2775 3584 3186 3129 
Q 3597 2675 3597 1894 
z
M 3022 2063 
Q 3016 2534 2758 2815 
Q 2500 3097 2075 3097 
Q 1594 3097 1305 2825 
Q 1016 2553 972 2059 
L 3022 2063 
z
" transform="scale(0.015625)"/>
       <path id="DejaVuSans-70" d="M 1159 525 
L 1159 -1331 
L 581 -1331 
L 581 3500 
L 1159 3500 
L 1159 2969 
Q 1341 3281 1617 3432 
Q 1894 3584 2278 3584 
Q 2916 3584 3314 3078 
Q 3713 2572 3713 1747 
Q 3713 922 3314 415 
Q 2916 -91 2278 -91 
Q 1894 -91 1617 61 
Q 1341 213 1159 525 
z
M 3116 1747 
Q 3116 2381 2855 2742 
Q 2594 3103 2138 3103 
Q 1681 3103 1420 2742 
Q 1159 2381 1159 1747 
Q 1159 1113 1420 752 
Q 1681 391 2138 391 
Q 2594 391 2855 752 
Q 3116 1113 3116 1747 
z
" transform="scale(0.015625)"/>
       <path id="DejaVuSans-6f" d="M 1959 3097 
Q 1497 3097 1228 2736 
Q 959 2375 959 1747 
Q 959 1119 1226 758 
Q 1494 397 1959 397 
Q 2419 397 2687 759 
Q 2956 1122 2956 1747 
Q 2956 2369 2687 2733 
Q 2419 3097 1959 3097 
z
M 1959 3584 
Q 2709 3584 3137 3096 
Q 3566 2609 3566 1747 
Q 3566 888 3137 398 
Q 2709 -91 1959 -91 
Q 1206 -91 779 398 
Q 353 888 353 1747 
Q 353 2609 779 3096 
Q 1206 3584 1959 3584 
z
" transform="scale(0.015625)"/>
       <path id="DejaVuSans-63" d="M 3122 3366 
L 3122 2828 
Q 2878 2963 2633 3030 
Q 2388 3097 2138 3097 
Q 1578 3097 1268 2742 
Q 959 2388 959 1747 
Q 959 1106 1268 751 
Q 1578 397 2138 397 
Q 2388 397 2633 464 
Q 2878 531 3122 666 
L 3122 134 
Q 2881 22 2623 -34 
Q 2366 -91 2075 -91 
Q 1284 -91 818 406 
Q 353 903 353 1747 
Q 353 2603 823 3093 
Q 1294 3584 2113 3584 
Q 2378 3584 2631 3529 
Q 2884 3475 3122 3366 
z
" transform="scale(0.015625)"/>
       <path id="DejaVuSans-68" d="M 3513 2113 
L 3513 0 
L 2938 0 
L 2938 2094 
Q 2938 2591 2744 2837 
Q 2550 3084 2163 3084 
Q 1697 3084 1428 2787 
Q 1159 2491 1159 1978 
L 1159 0 
L 581 0 
L 581 4863 
L 1159 4863 
L 1159 2956 
Q 1366 3272 1645 3428 
Q 1925 3584 2291 3584 
Q 2894 3584 3203 3211 
Q 3513 2838 3513 2113 
z
" transform="scale(0.015625)"/>
      </defs>
      <use xlink:href="#DejaVuSans-65"/>
      <use xlink:href="#DejaVuSans-70" x="61.523438"/>
      <use xlink:href="#DejaVuSans-6f" x="125"/>
      <use xlink:href="#DejaVuSans-63" x="186.181641"/>
      <use xlink:href="#DejaVuSans-68" x="241.162109"/>
     </g>
    </g>
   </g>
   <g id="matplotlib.axis_2">
    <g id="ytick_1">
     <g id="line2d_8">
      <defs>
       <path id="m07eaf6f92b" d="M 0 0 
L -3.5 0 
" style="stroke: #000000; stroke-width: 0.8"/>
      </defs>
      <g>
       <use xlink:href="#m07eaf6f92b" x="57.6" y="297.161088" style="stroke: #000000; stroke-width: 0.8"/>
      </g>
     </g>
     <g id="text_9">
      <!-- 0 -->
      <g transform="translate(44.2375 300.960307) scale(0.1 -0.1)">
       <use xlink:href="#DejaVuSans-30"/>
      </g>
     </g>
    </g>
    <g id="ytick_2">
     <g id="line2d_9">
      <g>
       <use xlink:href="#m07eaf6f92b" x="57.6" y="263.418203" style="stroke: #000000; stroke-width: 0.8"/>
      </g>
     </g>
     <g id="text_10">
      <!-- 2 -->
      <g transform="translate(44.2375 267.217422) scale(0.1 -0.1)">
       <use xlink:href="#DejaVuSans-32"/>
      </g>
     </g>
    </g>
    <g id="ytick_3">
     <g id="line2d_10">
      <g>
       <use xlink:href="#m07eaf6f92b" x="57.6" y="229.675317" style="stroke: #000000; stroke-width: 0.8"/>
      </g>
     </g>
     <g id="text_11">
      <!-- 4 -->
      <g transform="translate(44.2375 233.474536) scale(0.1 -0.1)">
       <defs>
        <path id="DejaVuSans-34" d="M 2419 4116 
L 825 1625 
L 2419 1625 
L 2419 4116 
z
M 2253 4666 
L 3047 4666 
L 3047 1625 
L 3713 1625 
L 3713 1100 
L 3047 1100 
L 3047 0 
L 2419 0 
L 2419 1100 
L 313 1100 
L 313 1709 
L 2253 4666 
z
" transform="scale(0.015625)"/>
       </defs>
       <use xlink:href="#DejaVuSans-34"/>
      </g>
     </g>
    </g>
    <g id="ytick_4">
     <g id="line2d_11">
      <g>
       <use xlink:href="#m07eaf6f92b" x="57.6" y="195.932432" style="stroke: #000000; stroke-width: 0.8"/>
      </g>
     </g>
     <g id="text_12">
      <!-- 6 -->
      <g transform="translate(44.2375 199.73165) scale(0.1 -0.1)">
       <defs>
        <path id="DejaVuSans-36" d="M 2113 2584 
Q 1688 2584 1439 2293 
Q 1191 2003 1191 1497 
Q 1191 994 1439 701 
Q 1688 409 2113 409 
Q 2538 409 2786 701 
Q 3034 994 3034 1497 
Q 3034 2003 2786 2293 
Q 2538 2584 2113 2584 
z
M 3366 4563 
L 3366 3988 
Q 3128 4100 2886 4159 
Q 2644 4219 2406 4219 
Q 1781 4219 1451 3797 
Q 1122 3375 1075 2522 
Q 1259 2794 1537 2939 
Q 1816 3084 2150 3084 
Q 2853 3084 3261 2657 
Q 3669 2231 3669 1497 
Q 3669 778 3244 343 
Q 2819 -91 2113 -91 
Q 1303 -91 875 529 
Q 447 1150 447 2328 
Q 447 3434 972 4092 
Q 1497 4750 2381 4750 
Q 2619 4750 2861 4703 
Q 3103 4656 3366 4563 
z
" transform="scale(0.015625)"/>
       </defs>
       <use xlink:href="#DejaVuSans-36"/>
      </g>
     </g>
    </g>
    <g id="ytick_5">
     <g id="line2d_12">
      <g>
       <use xlink:href="#m07eaf6f92b" x="57.6" y="162.189546" style="stroke: #000000; stroke-width: 0.8"/>
      </g>
     </g>
     <g id="text_13">
      <!-- 8 -->
      <g transform="translate(44.2375 165.988765) scale(0.1 -0.1)">
       <defs>
        <path id="DejaVuSans-38" d="M 2034 2216 
Q 1584 2216 1326 1975 
Q 1069 1734 1069 1313 
Q 1069 891 1326 650 
Q 1584 409 2034 409 
Q 2484 409 2743 651 
Q 3003 894 3003 1313 
Q 3003 1734 2745 1975 
Q 2488 2216 2034 2216 
z
M 1403 2484 
Q 997 2584 770 2862 
Q 544 3141 544 3541 
Q 544 4100 942 4425 
Q 1341 4750 2034 4750 
Q 2731 4750 3128 4425 
Q 3525 4100 3525 3541 
Q 3525 3141 3298 2862 
Q 3072 2584 2669 2484 
Q 3125 2378 3379 2068 
Q 3634 1759 3634 1313 
Q 3634 634 3220 271 
Q 2806 -91 2034 -91 
Q 1263 -91 848 271 
Q 434 634 434 1313 
Q 434 1759 690 2068 
Q 947 2378 1403 2484 
z
M 1172 3481 
Q 1172 3119 1398 2916 
Q 1625 2713 2034 2713 
Q 2441 2713 2670 2916 
Q 2900 3119 2900 3481 
Q 2900 3844 2670 4047 
Q 2441 4250 2034 4250 
Q 1625 4250 1398 4047 
Q 1172 3844 1172 3481 
z
" transform="scale(0.015625)"/>
       </defs>
       <use xlink:href="#DejaVuSans-38"/>
      </g>
     </g>
    </g>
    <g id="ytick_6">
     <g id="line2d_13">
      <g>
       <use xlink:href="#m07eaf6f92b" x="57.6" y="128.44666" style="stroke: #000000; stroke-width: 0.8"/>
      </g>
     </g>
     <g id="text_14">
      <!-- 10 -->
      <g transform="translate(37.875 132.245879) scale(0.1 -0.1)">
       <use xlink:href="#DejaVuSans-31"/>
       <use xlink:href="#DejaVuSans-30" x="63.623047"/>
      </g>
     </g>
    </g>
    <g id="ytick_7">
     <g id="line2d_14">
      <g>
       <use xlink:href="#m07eaf6f92b" x="57.6" y="94.703775" style="stroke: #000000; stroke-width: 0.8"/>
      </g>
     </g>
     <g id="text_15">
      <!-- 12 -->
      <g transform="translate(37.875 98.502994) scale(0.1 -0.1)">
       <use xlink:href="#DejaVuSans-31"/>
       <use xlink:href="#DejaVuSans-32" x="63.623047"/>
      </g>
     </g>
    </g>
    <g id="ytick_8">
     <g id="line2d_15">
      <g>
       <use xlink:href="#m07eaf6f92b" x="57.6" y="60.960889" style="stroke: #000000; stroke-width: 0.8"/>
      </g>
     </g>
     <g id="text_16">
      <!-- 14 -->
      <g transform="translate(37.875 64.760108) scale(0.1 -0.1)">
       <use xlink:href="#DejaVuSans-31"/>
       <use xlink:href="#DejaVuSans-34" x="63.623047"/>
      </g>
     </g>
    </g>
    <g id="text_17">
     <!-- train loss -->
     <g transform="translate(31.795312 197.412375) rotate(-90) scale(0.1 -0.1)">
      <defs>
       <path id="DejaVuSans-74" d="M 1172 4494 
L 1172 3500 
L 2356 3500 
L 2356 3053 
L 1172 3053 
L 1172 1153 
Q 1172 725 1289 603 
Q 1406 481 1766 481 
L 2356 481 
L 2356 0 
L 1766 0 
Q 1100 0 847 248 
Q 594 497 594 1153 
L 594 3053 
L 172 3053 
L 172 3500 
L 594 3500 
L 594 4494 
L 1172 4494 
z
" transform="scale(0.015625)"/>
       <path id="DejaVuSans-72" d="M 2631 2963 
Q 2534 3019 2420 3045 
Q 2306 3072 2169 3072 
Q 1681 3072 1420 2755 
Q 1159 2438 1159 1844 
L 1159 0 
L 581 0 
L 581 3500 
L 1159 3500 
L 1159 2956 
Q 1341 3275 1631 3429 
Q 1922 3584 2338 3584 
Q 2397 3584 2469 3576 
Q 2541 3569 2628 3553 
L 2631 2963 
z
" transform="scale(0.015625)"/>
       <path id="DejaVuSans-61" d="M 2194 1759 
Q 1497 1759 1228 1600 
Q 959 1441 959 1056 
Q 959 750 1161 570 
Q 1363 391 1709 391 
Q 2188 391 2477 730 
Q 2766 1069 2766 1631 
L 2766 1759 
L 2194 1759 
z
M 3341 1997 
L 3341 0 
L 2766 0 
L 2766 531 
Q 2569 213 2275 61 
Q 1981 -91 1556 -91 
Q 1019 -91 701 211 
Q 384 513 384 1019 
Q 384 1609 779 1909 
Q 1175 2209 1959 2209 
L 2766 2209 
L 2766 2266 
Q 2766 2663 2505 2880 
Q 2244 3097 1772 3097 
Q 1472 3097 1187 3025 
Q 903 2953 641 2809 
L 641 3341 
Q 956 3463 1253 3523 
Q 1550 3584 1831 3584 
Q 2591 3584 2966 3190 
Q 3341 2797 3341 1997 
z
" transform="scale(0.015625)"/>
       <path id="DejaVuSans-69" d="M 603 3500 
L 1178 3500 
L 1178 0 
L 603 0 
L 603 3500 
z
M 603 4863 
L 1178 4863 
L 1178 4134 
L 603 4134 
L 603 4863 
z
" transform="scale(0.015625)"/>
       <path id="DejaVuSans-6e" d="M 3513 2113 
L 3513 0 
L 2938 0 
L 2938 2094 
Q 2938 2591 2744 2837 
Q 2550 3084 2163 3084 
Q 1697 3084 1428 2787 
Q 1159 2491 1159 1978 
L 1159 0 
L 581 0 
L 581 3500 
L 1159 3500 
L 1159 2956 
Q 1366 3272 1645 3428 
Q 1925 3584 2291 3584 
Q 2894 3584 3203 3211 
Q 3513 2838 3513 2113 
z
" transform="scale(0.015625)"/>
       <path id="DejaVuSans-20" transform="scale(0.015625)"/>
       <path id="DejaVuSans-6c" d="M 603 4863 
L 1178 4863 
L 1178 0 
L 603 0 
L 603 4863 
z
" transform="scale(0.015625)"/>
       <path id="DejaVuSans-73" d="M 2834 3397 
L 2834 2853 
Q 2591 2978 2328 3040 
Q 2066 3103 1784 3103 
Q 1356 3103 1142 2972 
Q 928 2841 928 2578 
Q 928 2378 1081 2264 
Q 1234 2150 1697 2047 
L 1894 2003 
Q 2506 1872 2764 1633 
Q 3022 1394 3022 966 
Q 3022 478 2636 193 
Q 2250 -91 1575 -91 
Q 1294 -91 989 -36 
Q 684 19 347 128 
L 347 722 
Q 666 556 975 473 
Q 1284 391 1588 391 
Q 1994 391 2212 530 
Q 2431 669 2431 922 
Q 2431 1156 2273 1281 
Q 2116 1406 1581 1522 
L 1381 1569 
Q 847 1681 609 1914 
Q 372 2147 372 2553 
Q 372 3047 722 3315 
Q 1072 3584 1716 3584 
Q 2034 3584 2315 3537 
Q 2597 3491 2834 3397 
z
" transform="scale(0.015625)"/>
      </defs>
      <use xlink:href="#DejaVuSans-74"/>
      <use xlink:href="#DejaVuSans-72" x="39.208984"/>
      <use xlink:href="#DejaVuSans-61" x="80.322266"/>
      <use xlink:href="#DejaVuSans-69" x="141.601562"/>
      <use xlink:href="#DejaVuSans-6e" x="169.384766"/>
      <use xlink:href="#DejaVuSans-20" x="232.763672"/>
      <use xlink:href="#DejaVuSans-6c" x="264.550781"/>
      <use xlink:href="#DejaVuSans-6f" x="292.333984"/>
      <use xlink:href="#DejaVuSans-73" x="353.515625"/>
      <use xlink:href="#DejaVuSans-73" x="405.615234"/>
     </g>
    </g>
   </g>
   <g id="line2d_16">
    <path d="M 73.832727 61.267333 
L 75.812328 134.42253 
L 77.791929 156.69903 
L 79.77153 169.782557 
L 81.751131 186.802318 
L 83.730732 200.303793 
L 85.710333 206.187064 
L 87.689933 211.288188 
L 89.669534 226.856119 
L 91.649135 224.925653 
L 93.628736 233.621093 
L 95.608337 234.294931 
L 97.587938 240.916471 
L 99.567539 240.387566 
L 101.54714 242.840797 
L 103.526741 248.692522 
L 105.506341 250.570309 
L 107.485942 255.34082 
L 109.465543 258.383196 
L 111.445144 255.878591 
L 113.424745 260.921954 
L 115.404346 261.784529 
L 117.383947 264.03246 
L 119.363548 263.015744 
L 121.343149 267.18914 
L 123.322749 270.965784 
L 125.30235 267.189267 
L 127.281951 270.005337 
L 129.261552 270.150125 
L 131.241153 272.158656 
L 133.220754 274.473879 
L 135.200355 274.606507 
L 137.179956 276.369472 
L 139.159557 277.369159 
L 141.139157 278.20064 
L 143.118758 275.80196 
L 145.098359 280.260254 
L 147.07796 277.7466 
L 149.057561 278.638916 
L 151.037162 277.472702 
L 153.016763 278.649268 
L 154.996364 280.568295 
L 156.975965 280.674659 
L 158.955565 281.141578 
L 160.935166 283.676307 
L 162.914767 285.514158 
L 164.894368 282.676402 
L 166.873969 283.134909 
L 168.85357 284.761982 
L 172.812772 284.824455 
L 174.792373 285.299033 
L 176.771973 285.089759 
L 178.751574 286.055688 
L 180.731175 287.513736 
L 182.710776 286.910967 
L 184.690377 288.530888 
L 186.669978 288.253978 
L 188.649579 288.568839 
L 190.62918 287.622497 
L 192.60878 288.437248 
L 194.588381 286.625684 
L 196.567982 287.63823 
L 198.547583 289.267334 
L 200.527184 287.694174 
L 202.506785 289.665564 
L 204.486386 290.642319 
L 206.465987 289.334133 
L 208.445588 291.040858 
L 210.425188 290.710612 
L 212.404789 290.73325 
L 214.38439 290.295427 
L 216.363991 290.210453 
L 220.323193 291.386944 
L 222.302794 290.196 
L 224.282395 289.762419 
L 226.261996 291.73816 
L 230.221197 291.080587 
L 232.200798 292.088726 
L 234.180399 291.29887 
L 236.16 290.732714 
L 238.139601 291.642352 
L 240.119202 291.616864 
L 242.098803 292.57092 
L 244.078404 292.396613 
L 246.058004 291.844102 
L 248.037605 291.930558 
L 250.017206 293.071142 
L 251.996807 292.950282 
L 253.976408 292.269407 
L 255.956009 291.928206 
L 257.93561 291.403467 
L 259.915211 293.791069 
L 261.894812 292.409896 
L 265.854013 293.290322 
L 267.833614 292.453889 
L 269.813215 292.636474 
L 271.792816 293.06914 
L 273.772417 292.722615 
L 275.752018 292.877075 
L 277.731619 293.334682 
L 279.71122 293.084676 
L 281.69082 293.896573 
L 285.650022 293.46012 
L 287.629623 293.722908 
L 289.609224 294.292555 
L 295.548027 293.935748 
L 297.527627 294.083439 
L 299.507228 293.478129 
L 301.486829 293.978546 
L 303.46643 293.720819 
L 305.446031 294.568282 
L 307.425632 294.035923 
L 309.405233 293.792027 
L 311.384834 293.925633 
L 313.364435 293.283058 
L 315.344035 294.47758 
L 317.323636 293.910106 
L 319.303237 294.339144 
L 321.282838 294.159151 
L 323.262439 294.50479 
L 325.24204 294.332969 
L 327.221641 295.008019 
L 329.201242 294.838302 
L 331.180843 294.418721 
L 335.140044 293.972474 
L 337.119645 294.578234 
L 339.099246 294.684102 
L 341.078847 294.548678 
L 343.058448 294.579519 
L 345.038049 294.750711 
L 347.01765 294.688033 
L 350.976851 294.30238 
L 352.956452 294.697069 
L 354.936053 294.488967 
L 356.915654 295.174632 
L 358.895255 294.750935 
L 360.874856 295.022117 
L 362.854457 294.832867 
L 364.834058 294.948631 
L 366.813659 294.774485 
L 368.793259 294.908216 
L 370.77286 295.334481 
L 372.752461 295.101527 
L 374.732062 294.722122 
L 376.711663 295.324926 
L 378.691264 294.585387 
L 380.670865 294.785285 
L 382.650466 294.706342 
L 386.609667 294.915458 
L 388.589268 294.865712 
L 390.568869 294.546633 
L 392.54847 295.137595 
L 394.528071 295.488 
L 398.487273 294.916216 
L 398.487273 294.916216 
" clip-path="url(#pdeec659d72)" style="fill: none; stroke: #ff0000; stroke-width: 1.5; stroke-linecap: square"/>
   </g>
   <g id="line2d_17">
    <path d="M 73.832727 289.461755 
L 75.812328 288.984157 
L 77.791929 288.935914 
L 79.77153 288.77403 
L 83.730732 288.900538 
L 85.710333 288.688731 
L 87.689933 288.691834 
L 89.669534 288.839371 
L 91.649135 288.737139 
L 93.628736 288.799996 
L 95.608337 288.588733 
L 97.587938 288.74791 
L 99.567539 288.688884 
L 101.54714 288.811948 
L 107.485942 288.802182 
L 109.465543 288.908554 
L 115.404346 288.701866 
L 119.363548 288.88306 
L 125.30235 288.928362 
L 127.281951 288.905974 
L 131.241153 289.072732 
L 135.200355 289.015264 
L 147.07796 289.090361 
L 153.016763 289.031916 
L 158.955565 289.209497 
L 160.935166 289.331678 
L 168.85357 289.191377 
L 174.792373 289.257413 
L 176.771973 289.349247 
L 178.751574 289.208884 
L 180.731175 289.386656 
L 184.690377 289.30982 
L 188.649579 289.342071 
L 190.62918 289.406166 
L 192.60878 289.320904 
L 198.547583 289.388962 
L 208.445588 289.464429 
L 210.425188 289.498226 
L 212.404789 289.419725 
L 214.38439 289.510169 
L 220.323193 289.506861 
L 224.282395 289.614722 
L 226.261996 289.460145 
L 275.752018 289.641153 
L 277.731619 289.603008 
L 281.69082 289.717467 
L 283.670421 289.604854 
L 287.629623 289.760019 
L 291.588825 289.64127 
L 293.568426 289.804234 
L 297.527627 289.779712 
L 301.486829 289.701226 
L 303.46643 289.738635 
L 305.446031 289.643458 
L 309.405233 289.722847 
L 315.344035 289.698231 
L 319.303237 289.779399 
L 325.24204 289.680895 
L 327.221641 289.861436 
L 329.201242 289.661359 
L 331.180843 289.847995 
L 335.140044 289.76055 
L 337.119645 289.880724 
L 345.038049 289.796918 
L 358.895255 289.859555 
L 366.813659 289.816875 
L 368.793259 289.942246 
L 370.77286 289.788503 
L 374.732062 289.91307 
L 378.691264 289.827439 
L 398.487273 289.800106 
L 398.487273 289.800106 
" clip-path="url(#pdeec659d72)" style="fill: none; stroke: #bfbf00; stroke-width: 1.5; stroke-linecap: square"/>
   </g>
   <g id="line2d_18">
    <path d="M 73.832727 53.568 
L 75.812328 126.245599 
L 77.791929 148.473856 
L 79.77153 161.395498 
L 81.751131 178.516231 
L 83.730732 192.043243 
L 85.710333 197.714707 
L 87.689933 202.818933 
L 89.669534 218.534402 
L 91.649135 216.501704 
L 93.628736 225.260001 
L 95.608337 225.722575 
L 97.587938 232.503292 
L 99.567539 231.915361 
L 101.54714 234.491657 
L 103.526741 240.306068 
L 105.506341 242.167465 
L 107.485942 246.981913 
L 109.465543 250.130662 
L 111.445144 247.55669 
L 113.424745 252.561698 
L 115.404346 253.325307 
L 117.383947 255.698291 
L 119.363548 254.737716 
L 121.343149 258.951171 
L 123.322749 262.797934 
L 125.30235 258.95654 
L 127.281951 261.750222 
L 129.261552 261.984782 
L 133.220754 266.301909 
L 135.200355 266.460683 
L 137.179956 268.251665 
L 139.159557 269.286731 
L 141.139157 270.133157 
L 143.118758 267.768834 
L 145.098359 272.155601 
L 147.07796 269.675873 
L 149.057561 270.525841 
L 151.037162 269.394341 
L 153.016763 270.520096 
L 154.996364 272.479276 
L 156.975965 272.683133 
L 158.955565 273.189986 
L 160.935166 275.846897 
L 162.914767 277.623418 
L 164.894368 274.769238 
L 166.873969 275.141731 
L 168.85357 276.792271 
L 172.812772 276.920107 
L 174.792373 277.395358 
L 176.771973 277.277918 
L 178.751574 278.103484 
L 180.731175 279.739303 
L 182.710776 279.050817 
L 184.690377 280.67962 
L 186.669978 280.397521 
L 188.649579 280.749822 
L 190.62918 279.867575 
L 192.60878 280.597064 
L 194.588381 278.834846 
L 196.567982 279.804919 
L 198.547583 281.495207 
L 200.527184 279.914967 
L 202.506785 281.849319 
L 204.486386 282.864144 
L 206.465987 281.569625 
L 208.445588 283.344199 
L 210.425188 283.047749 
L 212.404789 282.991886 
L 214.38439 282.644507 
L 216.363991 282.527696 
L 220.323193 283.732717 
L 222.302794 282.59977 
L 224.282395 282.216053 
L 226.261996 284.037217 
L 230.221197 283.485704 
L 232.200798 284.400685 
L 236.16 283.04973 
L 238.139601 284.010498 
L 240.119202 283.947266 
L 242.098803 284.90828 
L 244.078404 284.842597 
L 246.058004 284.306643 
L 248.037605 284.232943 
L 250.017206 285.397218 
L 251.996807 285.299358 
L 253.976408 284.716707 
L 257.93561 283.868428 
L 259.915211 286.169379 
L 261.894812 284.935453 
L 263.874412 285.304407 
L 265.854013 285.837117 
L 267.833614 284.916655 
L 269.813215 285.092705 
L 271.792816 285.59362 
L 273.772417 285.290679 
L 275.752018 285.35714 
L 277.731619 285.776602 
L 279.71122 285.611413 
L 281.69082 286.452951 
L 283.670421 286.098815 
L 285.650022 285.994991 
L 287.629623 286.321838 
L 289.609224 286.800407 
L 293.568426 286.601195 
L 295.548027 286.585238 
L 297.527627 286.702063 
L 299.507228 286.011845 
L 301.486829 286.518683 
L 303.46643 286.298366 
L 305.446031 287.050651 
L 307.425632 286.589092 
L 309.405233 286.353786 
L 311.384834 286.46158 
L 313.364435 285.806162 
L 315.344035 287.014723 
L 317.323636 286.517523 
L 319.303237 286.957455 
L 321.282838 286.734289 
L 323.262439 287.082398 
L 325.24204 286.852776 
L 327.221641 287.708366 
L 329.201242 287.338572 
L 335.140044 286.571935 
L 337.119645 287.297869 
L 339.099246 287.355138 
L 341.078847 287.118692 
L 343.058448 287.110922 
L 345.038049 287.38654 
L 347.01765 287.344971 
L 348.997251 287.192078 
L 350.976851 286.921707 
L 352.956452 287.388325 
L 354.936053 287.139766 
L 356.915654 287.850755 
L 358.895255 287.449402 
L 360.874856 287.693611 
L 362.854457 287.480618 
L 364.834058 287.636528 
L 366.813659 287.430272 
L 370.77286 287.961896 
L 372.752461 287.788594 
L 374.732062 287.474104 
L 376.711663 287.999208 
L 378.691264 287.251737 
L 380.670865 287.449049 
L 382.650466 287.413202 
L 386.609667 287.578267 
L 388.589268 287.55808 
L 390.568869 287.265317 
L 392.54847 287.870767 
L 394.528071 288.193084 
L 396.507672 287.982154 
L 398.487273 287.555233 
L 398.487273 287.555233 
" clip-path="url(#pdeec659d72)" style="fill: none; stroke: #800080; stroke-width: 1.5; stroke-linecap: square"/>
   </g>
   <g id="patch_3">
    <path d="M 57.6 307.584 
L 57.6 41.472 
" style="fill: none; stroke: #000000; stroke-width: 0.8; stroke-linejoin: miter; stroke-linecap: square"/>
   </g>
   <g id="patch_4">
    <path d="M 414.72 307.584 
L 414.72 41.472 
" style="fill: none; stroke: #000000; stroke-width: 0.8; stroke-linejoin: miter; stroke-linecap: square"/>
   </g>
   <g id="patch_5">
    <path d="M 57.6 307.584 
L 414.72 307.584 
" style="fill: none; stroke: #000000; stroke-width: 0.8; stroke-linejoin: miter; stroke-linecap: square"/>
   </g>
   <g id="patch_6">
    <path d="M 57.6 41.472 
L 414.72 41.472 
" style="fill: none; stroke: #000000; stroke-width: 0.8; stroke-linejoin: miter; stroke-linecap: square"/>
   </g>
   <g id="text_18">
    <!-- The losses on single_interactive_32_4_0.0001_0.0001_0.0_0.0_5.0_stats -->
    <g transform="translate(19.719375 35.472) scale(0.12 -0.12)">
     <defs>
      <path id="DejaVuSans-54" d="M -19 4666 
L 3928 4666 
L 3928 4134 
L 2272 4134 
L 2272 0 
L 1638 0 
L 1638 4134 
L -19 4134 
L -19 4666 
z
" transform="scale(0.015625)"/>
      <path id="DejaVuSans-67" d="M 2906 1791 
Q 2906 2416 2648 2759 
Q 2391 3103 1925 3103 
Q 1463 3103 1205 2759 
Q 947 2416 947 1791 
Q 947 1169 1205 825 
Q 1463 481 1925 481 
Q 2391 481 2648 825 
Q 2906 1169 2906 1791 
z
M 3481 434 
Q 3481 -459 3084 -895 
Q 2688 -1331 1869 -1331 
Q 1566 -1331 1297 -1286 
Q 1028 -1241 775 -1147 
L 775 -588 
Q 1028 -725 1275 -790 
Q 1522 -856 1778 -856 
Q 2344 -856 2625 -561 
Q 2906 -266 2906 331 
L 2906 616 
Q 2728 306 2450 153 
Q 2172 0 1784 0 
Q 1141 0 747 490 
Q 353 981 353 1791 
Q 353 2603 747 3093 
Q 1141 3584 1784 3584 
Q 2172 3584 2450 3431 
Q 2728 3278 2906 2969 
L 2906 3500 
L 3481 3500 
L 3481 434 
z
" transform="scale(0.015625)"/>
      <path id="DejaVuSans-5f" d="M 3263 -1063 
L 3263 -1509 
L -63 -1509 
L -63 -1063 
L 3263 -1063 
z
" transform="scale(0.015625)"/>
      <path id="DejaVuSans-76" d="M 191 3500 
L 800 3500 
L 1894 563 
L 2988 3500 
L 3597 3500 
L 2284 0 
L 1503 0 
L 191 3500 
z
" transform="scale(0.015625)"/>
      <path id="DejaVuSans-33" d="M 2597 2516 
Q 3050 2419 3304 2112 
Q 3559 1806 3559 1356 
Q 3559 666 3084 287 
Q 2609 -91 1734 -91 
Q 1441 -91 1130 -33 
Q 819 25 488 141 
L 488 750 
Q 750 597 1062 519 
Q 1375 441 1716 441 
Q 2309 441 2620 675 
Q 2931 909 2931 1356 
Q 2931 1769 2642 2001 
Q 2353 2234 1838 2234 
L 1294 2234 
L 1294 2753 
L 1863 2753 
Q 2328 2753 2575 2939 
Q 2822 3125 2822 3475 
Q 2822 3834 2567 4026 
Q 2313 4219 1838 4219 
Q 1578 4219 1281 4162 
Q 984 4106 628 3988 
L 628 4550 
Q 988 4650 1302 4700 
Q 1616 4750 1894 4750 
Q 2613 4750 3031 4423 
Q 3450 4097 3450 3541 
Q 3450 3153 3228 2886 
Q 3006 2619 2597 2516 
z
" transform="scale(0.015625)"/>
      <path id="DejaVuSans-2e" d="M 684 794 
L 1344 794 
L 1344 0 
L 684 0 
L 684 794 
z
" transform="scale(0.015625)"/>
     </defs>
     <use xlink:href="#DejaVuSans-54"/>
     <use xlink:href="#DejaVuSans-68" x="61.083984"/>
     <use xlink:href="#DejaVuSans-65" x="124.462891"/>
     <use xlink:href="#DejaVuSans-20" x="185.986328"/>
     <use xlink:href="#DejaVuSans-6c" x="217.773438"/>
     <use xlink:href="#DejaVuSans-6f" x="245.556641"/>
     <use xlink:href="#DejaVuSans-73" x="306.738281"/>
     <use xlink:href="#DejaVuSans-73" x="358.837891"/>
     <use xlink:href="#DejaVuSans-65" x="410.9375"/>
     <use xlink:href="#DejaVuSans-73" x="472.460938"/>
     <use xlink:href="#DejaVuSans-20" x="524.560547"/>
     <use xlink:href="#DejaVuSans-6f" x="556.347656"/>
     <use xlink:href="#DejaVuSans-6e" x="617.529297"/>
     <use xlink:href="#DejaVuSans-20" x="680.908203"/>
     <use xlink:href="#DejaVuSans-73" x="712.695312"/>
     <use xlink:href="#DejaVuSans-69" x="764.794922"/>
     <use xlink:href="#DejaVuSans-6e" x="792.578125"/>
     <use xlink:href="#DejaVuSans-67" x="855.957031"/>
     <use xlink:href="#DejaVuSans-6c" x="919.433594"/>
     <use xlink:href="#DejaVuSans-65" x="947.216797"/>
     <use xlink:href="#DejaVuSans-5f" x="1008.740234"/>
     <use xlink:href="#DejaVuSans-69" x="1058.740234"/>
     <use xlink:href="#DejaVuSans-6e" x="1086.523438"/>
     <use xlink:href="#DejaVuSans-74" x="1149.902344"/>
     <use xlink:href="#DejaVuSans-65" x="1189.111328"/>
     <use xlink:href="#DejaVuSans-72" x="1250.634766"/>
     <use xlink:href="#DejaVuSans-61" x="1291.748047"/>
     <use xlink:href="#DejaVuSans-63" x="1353.027344"/>
     <use xlink:href="#DejaVuSans-74" x="1408.007812"/>
     <use xlink:href="#DejaVuSans-69" x="1447.216797"/>
     <use xlink:href="#DejaVuSans-76" x="1475"/>
     <use xlink:href="#DejaVuSans-65" x="1534.179688"/>
     <use xlink:href="#DejaVuSans-5f" x="1595.703125"/>
     <use xlink:href="#DejaVuSans-33" x="1645.703125"/>
     <use xlink:href="#DejaVuSans-32" x="1709.326172"/>
     <use xlink:href="#DejaVuSans-5f" x="1772.949219"/>
     <use xlink:href="#DejaVuSans-34" x="1822.949219"/>
     <use xlink:href="#DejaVuSans-5f" x="1886.572266"/>
     <use xlink:href="#DejaVuSans-30" x="1936.572266"/>
     <use xlink:href="#DejaVuSans-2e" x="2000.195312"/>
     <use xlink:href="#DejaVuSans-30" x="2031.982422"/>
     <use xlink:href="#DejaVuSans-30" x="2095.605469"/>
     <use xlink:href="#DejaVuSans-30" x="2159.228516"/>
     <use xlink:href="#DejaVuSans-31" x="2222.851562"/>
     <use xlink:href="#DejaVuSans-5f" x="2286.474609"/>
     <use xlink:href="#DejaVuSans-30" x="2336.474609"/>
     <use xlink:href="#DejaVuSans-2e" x="2400.097656"/>
     <use xlink:href="#DejaVuSans-30" x="2431.884766"/>
     <use xlink:href="#DejaVuSans-30" x="2495.507812"/>
     <use xlink:href="#DejaVuSans-30" x="2559.130859"/>
     <use xlink:href="#DejaVuSans-31" x="2622.753906"/>
     <use xlink:href="#DejaVuSans-5f" x="2686.376953"/>
     <use xlink:href="#DejaVuSans-30" x="2736.376953"/>
     <use xlink:href="#DejaVuSans-2e" x="2800"/>
     <use xlink:href="#DejaVuSans-30" x="2831.787109"/>
     <use xlink:href="#DejaVuSans-5f" x="2895.410156"/>
     <use xlink:href="#DejaVuSans-30" x="2945.410156"/>
     <use xlink:href="#DejaVuSans-2e" x="3009.033203"/>
     <use xlink:href="#DejaVuSans-30" x="3040.820312"/>
     <use xlink:href="#DejaVuSans-5f" x="3104.443359"/>
     <use xlink:href="#DejaVuSans-35" x="3154.443359"/>
     <use xlink:href="#DejaVuSans-2e" x="3218.066406"/>
     <use xlink:href="#DejaVuSans-30" x="3249.853516"/>
     <use xlink:href="#DejaVuSans-5f" x="3313.476562"/>
     <use xlink:href="#DejaVuSans-73" x="3363.476562"/>
     <use xlink:href="#DejaVuSans-74" x="3415.576172"/>
     <use xlink:href="#DejaVuSans-61" x="3454.785156"/>
     <use xlink:href="#DejaVuSans-74" x="3516.064453"/>
     <use xlink:href="#DejaVuSans-73" x="3555.273438"/>
    </g>
   </g>
   <g id="legend_1">
    <g id="patch_7">
     <path d="M 312.721563 94.34075 
L 407.72 94.34075 
Q 409.72 94.34075 409.72 92.34075 
L 409.72 48.472 
Q 409.72 46.472 407.72 46.472 
L 312.721563 46.472 
Q 310.721563 46.472 310.721563 48.472 
L 310.721563 92.34075 
Q 310.721563 94.34075 312.721563 94.34075 
z
" style="fill: #ffffff; opacity: 0.8; stroke: #cccccc; stroke-linejoin: miter"/>
    </g>
    <g id="line2d_19">
     <path d="M 314.721563 54.570438 
L 324.721563 54.570438 
L 334.721563 54.570438 
" style="fill: none; stroke: #ff0000; stroke-width: 1.5; stroke-linecap: square"/>
    </g>
    <g id="text_19">
     <!-- entropy_loss -->
     <g transform="translate(342.721563 58.070438) scale(0.1 -0.1)">
      <defs>
       <path id="DejaVuSans-79" d="M 2059 -325 
Q 1816 -950 1584 -1140 
Q 1353 -1331 966 -1331 
L 506 -1331 
L 506 -850 
L 844 -850 
Q 1081 -850 1212 -737 
Q 1344 -625 1503 -206 
L 1606 56 
L 191 3500 
L 800 3500 
L 1894 763 
L 2988 3500 
L 3597 3500 
L 2059 -325 
z
" transform="scale(0.015625)"/>
      </defs>
      <use xlink:href="#DejaVuSans-65"/>
      <use xlink:href="#DejaVuSans-6e" x="61.523438"/>
      <use xlink:href="#DejaVuSans-74" x="124.902344"/>
      <use xlink:href="#DejaVuSans-72" x="164.111328"/>
      <use xlink:href="#DejaVuSans-6f" x="202.974609"/>
      <use xlink:href="#DejaVuSans-70" x="264.15625"/>
      <use xlink:href="#DejaVuSans-79" x="327.632812"/>
      <use xlink:href="#DejaVuSans-5f" x="386.8125"/>
      <use xlink:href="#DejaVuSans-6c" x="436.8125"/>
      <use xlink:href="#DejaVuSans-6f" x="464.595703"/>
      <use xlink:href="#DejaVuSans-73" x="525.777344"/>
      <use xlink:href="#DejaVuSans-73" x="577.876953"/>
     </g>
    </g>
    <g id="line2d_20">
     <path d="M 314.721563 69.526688 
L 324.721563 69.526688 
L 334.721563 69.526688 
" style="fill: none; stroke: #bfbf00; stroke-width: 1.5; stroke-linecap: square"/>
    </g>
    <g id="text_20">
     <!-- relation_loss -->
     <g transform="translate(342.721563 73.026688) scale(0.1 -0.1)">
      <use xlink:href="#DejaVuSans-72"/>
      <use xlink:href="#DejaVuSans-65" x="38.863281"/>
      <use xlink:href="#DejaVuSans-6c" x="100.386719"/>
      <use xlink:href="#DejaVuSans-61" x="128.169922"/>
      <use xlink:href="#DejaVuSans-74" x="189.449219"/>
      <use xlink:href="#DejaVuSans-69" x="228.658203"/>
      <use xlink:href="#DejaVuSans-6f" x="256.441406"/>
      <use xlink:href="#DejaVuSans-6e" x="317.623047"/>
      <use xlink:href="#DejaVuSans-5f" x="381.001953"/>
      <use xlink:href="#DejaVuSans-6c" x="431.001953"/>
      <use xlink:href="#DejaVuSans-6f" x="458.785156"/>
      <use xlink:href="#DejaVuSans-73" x="519.966797"/>
      <use xlink:href="#DejaVuSans-73" x="572.066406"/>
     </g>
    </g>
    <g id="line2d_21">
     <path d="M 314.721563 84.482938 
L 324.721563 84.482938 
L 334.721563 84.482938 
" style="fill: none; stroke: #800080; stroke-width: 1.5; stroke-linecap: square"/>
    </g>
    <g id="text_21">
     <!-- overall_loss -->
     <g transform="translate(342.721563 87.982938) scale(0.1 -0.1)">
      <use xlink:href="#DejaVuSans-6f"/>
      <use xlink:href="#DejaVuSans-76" x="61.181641"/>
      <use xlink:href="#DejaVuSans-65" x="120.361328"/>
      <use xlink:href="#DejaVuSans-72" x="181.884766"/>
      <use xlink:href="#DejaVuSans-61" x="222.998047"/>
      <use xlink:href="#DejaVuSans-6c" x="284.277344"/>
      <use xlink:href="#DejaVuSans-6c" x="312.060547"/>
      <use xlink:href="#DejaVuSans-5f" x="339.84375"/>
      <use xlink:href="#DejaVuSans-6c" x="389.84375"/>
      <use xlink:href="#DejaVuSans-6f" x="417.626953"/>
      <use xlink:href="#DejaVuSans-73" x="478.808594"/>
      <use xlink:href="#DejaVuSans-73" x="530.908203"/>
     </g>
    </g>
   </g>
  </g>
 </g>
 <defs>
  <clipPath id="pdeec659d72">
   <rect x="57.6" y="41.472" width="357.12" height="266.112"/>
  </clipPath>
 </defs>
</svg>
