<?xml version="1.0" encoding="utf-8" standalone="no"?>
<!DOCTYPE svg PUBLIC "-//W3C//DTD SVG 1.1//EN"
  "http://www.w3.org/Graphics/SVG/1.1/DTD/svg11.dtd">
<!-- Created with matplotlib (https://matplotlib.org/) -->
<svg height="432pt" version="1.1" viewBox="0 0 576 432" width="576pt" xmlns="http://www.w3.org/2000/svg" xmlns:xlink="http://www.w3.org/1999/xlink">
 <metadata>
  <rdf:RDF xmlns:cc="http://creativecommons.org/ns#" xmlns:dc="http://purl.org/dc/elements/1.1/" xmlns:rdf="http://www.w3.org/1999/02/22-rdf-syntax-ns#">
   <cc:Work>
    <dc:type rdf:resource="http://purl.org/dc/dcmitype/StillImage"/>
    <dc:date>2023-03-20T21:37:26.832510</dc:date>
    <dc:format>image/svg+xml</dc:format>
    <dc:creator>
     <cc:Agent>
      <dc:title>Matplotlib v3.3.4, https://matplotlib.org/</dc:title>
     </cc:Agent>
    </dc:creator>
   </cc:Work>
  </rdf:RDF>
 </metadata>
 <defs>
  <style type="text/css">*{stroke-linecap:butt;stroke-linejoin:round;}</style>
 </defs>
 <g id="figure_1">
  <g id="patch_1">
   <path d="M 0 432 
L 576 432 
L 576 0 
L 0 0 
z
" style="fill:#ffffff;"/>
  </g>
  <g id="axes_1">
   <g id="patch_2">
    <path d="M 72 384.48 
L 518.4 384.48 
L 518.4 51.84 
L 72 51.84 
z
" style="fill:#ffffff;"/>
   </g>
   <g id="matplotlib.axis_1">
    <g id="xtick_1">
     <g id="line2d_1">
      <defs>
       <path d="M 0 0 
L 0 3.5 
" id="m19f72c26b8" style="stroke:#000000;stroke-width:0.8;"/>
      </defs>
      <g>
       <use style="stroke:#000000;stroke-width:0.8;" x="92.290909" xlink:href="#m19f72c26b8" y="384.48"/>
      </g>
     </g>
     <g id="text_1">
      <!-- 0 -->
      <g transform="translate(89.790909 398.315938)scale(0.1 -0.1)">
       <defs>
        <path d="M 46.484375 35.15625 
Q 46.484375 21.09375 41.40625 10.9375 
Q 36.328125 0.78125 25 0.78125 
Q 13.671875 0.78125 8.390625 10.9375 
Q 3.125 21.09375 3.125 35.15625 
Q 3.125 49.21875 8.390625 59.171875 
Q 13.671875 69.140625 25 69.140625 
Q 36.328125 69.140625 41.40625 59.171875 
Q 46.484375 49.21875 46.484375 35.15625 
z
M 37.109375 35.15625 
Q 37.109375 47.65625 34.171875 54.6875 
Q 31.25 61.71875 25 61.71875 
Q 18.75 61.71875 15.625 54.6875 
Q 12.5 47.65625 12.5 35.15625 
Q 12.5 22.65625 15.625 15.421875 
Q 18.75 8.203125 25 8.203125 
Q 31.25 8.203125 34.171875 15.421875 
Q 37.109375 22.65625 37.109375 35.15625 
z
" id="SimHei-48"/>
       </defs>
       <use xlink:href="#SimHei-48"/>
      </g>
     </g>
    </g>
    <g id="xtick_2">
     <g id="line2d_2">
      <g>
       <use style="stroke:#000000;stroke-width:0.8;" x="154.153437" xlink:href="#m19f72c26b8" y="384.48"/>
      </g>
     </g>
     <g id="text_2">
      <!-- 50 -->
      <g transform="translate(149.153437 398.315938)scale(0.1 -0.1)">
       <defs>
        <path d="M 44.140625 25.78125 
Q 44.140625 14.0625 38.46875 7.421875 
Q 32.8125 0.78125 23.4375 0.78125 
Q 15.234375 0.78125 9.953125 6.25 
Q 4.6875 11.71875 4.296875 21.09375 
L 13.28125 21.09375 
Q 13.28125 15.234375 16.015625 11.71875 
Q 18.75 8.203125 23.828125 8.203125 
Q 28.90625 8.203125 31.828125 12.5 
Q 34.765625 16.796875 34.765625 25.78125 
Q 34.765625 33.59375 32.21875 37.296875 
Q 29.6875 41.015625 25.390625 41.015625 
Q 21.875 41.015625 19.328125 39.453125 
Q 16.796875 37.890625 14.453125 33.984375 
L 6.640625 33.984375 
L 8.984375 68.359375 
L 42.578125 68.359375 
L 42.578125 60.9375 
L 16.40625 60.9375 
L 14.84375 42.96875 
Q 17.1875 45.3125 19.921875 46.484375 
Q 22.65625 47.65625 27.34375 47.65625 
Q 34.765625 47.65625 39.453125 41.984375 
Q 44.140625 36.328125 44.140625 25.78125 
z
" id="SimHei-53"/>
       </defs>
       <use xlink:href="#SimHei-53"/>
       <use x="50" xlink:href="#SimHei-48"/>
      </g>
     </g>
    </g>
    <g id="xtick_3">
     <g id="line2d_3">
      <g>
       <use style="stroke:#000000;stroke-width:0.8;" x="216.015965" xlink:href="#m19f72c26b8" y="384.48"/>
      </g>
     </g>
     <g id="text_3">
      <!-- 100 -->
      <g transform="translate(208.515965 398.315938)scale(0.1 -0.1)">
       <defs>
        <path d="M 30.46875 1.5625 
L 21.484375 1.5625 
L 21.484375 53.515625 
L 9.765625 53.515625 
L 9.765625 58.203125 
Q 16.796875 58.203125 20.703125 60.9375 
Q 24.609375 63.671875 25.78125 69.140625 
L 30.46875 69.140625 
z
" id="SimHei-49"/>
       </defs>
       <use xlink:href="#SimHei-49"/>
       <use x="50" xlink:href="#SimHei-48"/>
       <use x="100" xlink:href="#SimHei-48"/>
      </g>
     </g>
    </g>
    <g id="xtick_4">
     <g id="line2d_4">
      <g>
       <use style="stroke:#000000;stroke-width:0.8;" x="277.878492" xlink:href="#m19f72c26b8" y="384.48"/>
      </g>
     </g>
     <g id="text_4">
      <!-- 150 -->
      <g transform="translate(270.378492 398.315938)scale(0.1 -0.1)">
       <use xlink:href="#SimHei-49"/>
       <use x="50" xlink:href="#SimHei-53"/>
       <use x="100" xlink:href="#SimHei-48"/>
      </g>
     </g>
    </g>
    <g id="xtick_5">
     <g id="line2d_5">
      <g>
       <use style="stroke:#000000;stroke-width:0.8;" x="339.74102" xlink:href="#m19f72c26b8" y="384.48"/>
      </g>
     </g>
     <g id="text_5">
      <!-- 200 -->
      <g transform="translate(332.24102 398.315938)scale(0.1 -0.1)">
       <defs>
        <path d="M 44.53125 1.5625 
L 4.6875 1.5625 
L 4.6875 7.8125 
Q 7.03125 14.0625 11.125 19.328125 
Q 15.234375 24.609375 23.046875 31.25 
Q 28.90625 36.328125 31.4375 40.625 
Q 33.984375 44.921875 33.984375 50 
Q 33.984375 55.078125 31.828125 58.390625 
Q 29.6875 61.71875 25 61.71875 
Q 21.09375 61.71875 18.15625 58.203125 
Q 15.234375 54.6875 15.234375 45.703125 
L 6.25 45.703125 
Q 6.640625 57.03125 11.515625 63.078125 
Q 16.40625 69.140625 25.390625 69.140625 
Q 33.984375 69.140625 38.671875 63.859375 
Q 43.359375 58.59375 43.359375 49.609375 
Q 43.359375 42.1875 39.0625 36.71875 
Q 34.765625 31.25 28.515625 25.78125 
Q 21.484375 19.53125 18.75 16.40625 
Q 16.015625 13.28125 13.671875 8.984375 
L 44.53125 8.984375 
z
" id="SimHei-50"/>
       </defs>
       <use xlink:href="#SimHei-50"/>
       <use x="50" xlink:href="#SimHei-48"/>
       <use x="100" xlink:href="#SimHei-48"/>
      </g>
     </g>
    </g>
    <g id="xtick_6">
     <g id="line2d_6">
      <g>
       <use style="stroke:#000000;stroke-width:0.8;" x="401.603548" xlink:href="#m19f72c26b8" y="384.48"/>
      </g>
     </g>
     <g id="text_6">
      <!-- 250 -->
      <g transform="translate(394.103548 398.315938)scale(0.1 -0.1)">
       <use xlink:href="#SimHei-50"/>
       <use x="50" xlink:href="#SimHei-53"/>
       <use x="100" xlink:href="#SimHei-48"/>
      </g>
     </g>
    </g>
    <g id="xtick_7">
     <g id="line2d_7">
      <g>
       <use style="stroke:#000000;stroke-width:0.8;" x="463.466075" xlink:href="#m19f72c26b8" y="384.48"/>
      </g>
     </g>
     <g id="text_7">
      <!-- 300 -->
      <g transform="translate(455.966075 398.315938)scale(0.1 -0.1)">
       <defs>
        <path d="M 44.140625 20.3125 
Q 44.140625 11.328125 38.46875 6.046875 
Q 32.8125 0.78125 24.21875 0.78125 
Q 15.625 0.78125 9.953125 6.046875 
Q 4.296875 11.328125 4.296875 22.265625 
L 13.28125 22.265625 
Q 13.28125 14.84375 16.203125 11.515625 
Q 19.140625 8.203125 24.21875 8.203125 
Q 29.296875 8.203125 32.03125 11.328125 
Q 34.765625 14.453125 34.765625 21.09375 
Q 34.765625 26.5625 31.828125 29.6875 
Q 28.90625 32.8125 21.484375 32.8125 
L 21.484375 39.453125 
Q 27.734375 39.453125 30.65625 42.578125 
Q 33.59375 45.703125 33.59375 51.953125 
Q 33.59375 56.640625 31.4375 59.375 
Q 29.296875 62.109375 24.609375 62.109375 
Q 19.921875 62.109375 17.375 58.78125 
Q 14.84375 55.46875 14.453125 49.21875 
L 5.859375 49.21875 
Q 6.640625 58.203125 11.515625 63.671875 
Q 16.40625 69.140625 24.609375 69.140625 
Q 33.203125 69.140625 37.890625 64.25 
Q 42.578125 59.375 42.578125 52.34375 
Q 42.578125 45.703125 40.234375 41.984375 
Q 37.890625 38.28125 32.421875 36.328125 
Q 37.890625 35.15625 41.015625 30.859375 
Q 44.140625 26.5625 44.140625 20.3125 
z
" id="SimHei-51"/>
       </defs>
       <use xlink:href="#SimHei-51"/>
       <use x="50" xlink:href="#SimHei-48"/>
       <use x="100" xlink:href="#SimHei-48"/>
      </g>
     </g>
    </g>
    <g id="text_8">
     <!-- epoch -->
     <g transform="translate(282.7 410.440938)scale(0.1 -0.1)">
      <defs>
       <path d="M 44.921875 16.40625 
Q 44.140625 9.375 38.671875 5.078125 
Q 33.203125 0.78125 25.78125 0.78125 
Q 16.40625 0.78125 10.34375 6.828125 
Q 4.296875 12.890625 4.296875 23.4375 
Q 4.296875 33.984375 10.34375 40.03125 
Q 16.40625 46.09375 25.78125 46.09375 
Q 33.984375 46.09375 39.25 40.8125 
Q 44.53125 35.546875 44.53125 23.4375 
L 12.890625 23.4375 
Q 12.890625 14.84375 16.59375 11.328125 
Q 20.3125 7.8125 25.78125 7.8125 
Q 30.078125 7.8125 32.8125 9.953125 
Q 35.546875 12.109375 36.328125 16.40625 
z
M 35.546875 29.6875 
Q 34.765625 35.15625 32.03125 37.296875 
Q 29.296875 39.453125 25 39.453125 
Q 21.09375 39.453125 17.96875 37.296875 
Q 14.84375 35.15625 13.28125 29.6875 
z
" id="SimHei-101"/>
       <path d="M 44.53125 23.4375 
Q 44.53125 12.109375 39.0625 6.25 
Q 33.59375 0.390625 25.78125 0.390625 
Q 21.484375 0.390625 18.359375 2.140625 
Q 15.234375 3.90625 12.890625 7.421875 
L 12.890625 -12.890625 
L 5.078125 -12.890625 
L 5.078125 45.3125 
L 12.890625 45.3125 
L 12.890625 39.453125 
Q 15.234375 42.96875 18.359375 44.53125 
Q 21.484375 46.09375 25.78125 46.09375 
Q 33.59375 46.09375 39.0625 40.421875 
Q 44.53125 34.765625 44.53125 23.4375 
z
M 35.9375 23.4375 
Q 35.9375 30.859375 33 34.953125 
Q 30.078125 39.0625 24.21875 39.0625 
Q 19.53125 39.0625 16.203125 34.953125 
Q 12.890625 30.859375 12.890625 23.4375 
Q 12.890625 16.015625 16.203125 11.71875 
Q 19.53125 7.421875 24.21875 7.421875 
Q 30.078125 7.421875 33 11.71875 
Q 35.9375 16.015625 35.9375 23.4375 
z
" id="SimHei-112"/>
       <path d="M 46.09375 23.4375 
Q 46.09375 13.28125 39.84375 7.03125 
Q 33.59375 0.78125 25 0.78125 
Q 16.40625 0.78125 10.15625 7.03125 
Q 3.90625 13.28125 3.90625 23.4375 
Q 3.90625 33.59375 10.15625 39.84375 
Q 16.40625 46.09375 25 46.09375 
Q 33.59375 46.09375 39.84375 39.84375 
Q 46.09375 33.59375 46.09375 23.4375 
z
M 37.5 23.4375 
Q 37.5 31.25 33.59375 35.15625 
Q 29.6875 39.0625 25 39.0625 
Q 20.3125 39.0625 16.40625 35.15625 
Q 12.5 31.25 12.5 23.4375 
Q 12.5 15.625 16.40625 11.71875 
Q 20.3125 7.8125 25 7.8125 
Q 29.6875 7.8125 33.59375 11.71875 
Q 37.5 15.625 37.5 23.4375 
z
" id="SimHei-111"/>
       <path d="M 44.921875 19.140625 
Q 44.921875 10.9375 39.25 5.859375 
Q 33.59375 0.78125 25 0.78125 
Q 16.40625 0.78125 10.15625 6.828125 
Q 3.90625 12.890625 3.90625 23.4375 
Q 3.90625 33.984375 10.15625 40.03125 
Q 16.40625 46.09375 25 46.09375 
Q 33.59375 46.09375 38.671875 41.59375 
Q 43.75 37.109375 43.75 30.859375 
L 35.15625 30.859375 
Q 34.765625 35.546875 31.828125 37.296875 
Q 28.90625 39.0625 25 39.0625 
Q 20.3125 39.0625 16.40625 35.34375 
Q 12.5 31.640625 12.5 23.4375 
Q 12.5 15.234375 16.40625 11.515625 
Q 20.3125 7.8125 25 7.8125 
Q 30.078125 7.8125 33.203125 10.546875 
Q 36.328125 13.28125 36.328125 19.140625 
z
" id="SimHei-99"/>
       <path d="M 44.140625 1.5625 
L 36.328125 1.5625 
L 36.328125 29.6875 
Q 36.328125 34.375 33.984375 37.109375 
Q 31.640625 39.84375 27.734375 39.84375 
Q 22.65625 39.84375 18.15625 34.5625 
Q 13.671875 29.296875 13.671875 21.484375 
L 13.671875 1.5625 
L 5.859375 1.5625 
L 5.859375 68.359375 
L 13.671875 68.359375 
L 13.671875 37.109375 
Q 16.796875 41.40625 20.5 43.75 
Q 24.21875 46.09375 30.078125 46.09375 
Q 37.109375 46.09375 40.625 42.1875 
Q 44.140625 38.28125 44.140625 32.421875 
z
" id="SimHei-104"/>
      </defs>
      <use xlink:href="#SimHei-101"/>
      <use x="50" xlink:href="#SimHei-112"/>
      <use x="100" xlink:href="#SimHei-111"/>
      <use x="150" xlink:href="#SimHei-99"/>
      <use x="200" xlink:href="#SimHei-104"/>
     </g>
    </g>
   </g>
   <g id="matplotlib.axis_2">
    <g id="ytick_1">
     <g id="line2d_8">
      <defs>
       <path d="M 0 0 
L -3.5 0 
" id="mcdf72a90a6" style="stroke:#000000;stroke-width:0.8;"/>
      </defs>
      <g>
       <use style="stroke:#000000;stroke-width:0.8;" x="72" xlink:href="#mcdf72a90a6" y="384.48"/>
      </g>
     </g>
     <g id="text_9">
      <!-- 0.0 -->
      <g transform="translate(50 387.897969)scale(0.1 -0.1)">
       <defs>
        <path d="M 17.1875 1.5625 
L 8.203125 1.5625 
L 8.203125 10.15625 
L 17.1875 10.15625 
z
" id="SimHei-46"/>
       </defs>
       <use xlink:href="#SimHei-48"/>
       <use x="50" xlink:href="#SimHei-46"/>
       <use x="100" xlink:href="#SimHei-48"/>
      </g>
     </g>
    </g>
    <g id="ytick_2">
     <g id="line2d_9">
      <g>
       <use style="stroke:#000000;stroke-width:0.8;" x="72" xlink:href="#mcdf72a90a6" y="317.952"/>
      </g>
     </g>
     <g id="text_10">
      <!-- 0.2 -->
      <g transform="translate(50 321.369969)scale(0.1 -0.1)">
       <use xlink:href="#SimHei-48"/>
       <use x="50" xlink:href="#SimHei-46"/>
       <use x="100" xlink:href="#SimHei-50"/>
      </g>
     </g>
    </g>
    <g id="ytick_3">
     <g id="line2d_10">
      <g>
       <use style="stroke:#000000;stroke-width:0.8;" x="72" xlink:href="#mcdf72a90a6" y="251.424"/>
      </g>
     </g>
     <g id="text_11">
      <!-- 0.4 -->
      <g transform="translate(50 254.841969)scale(0.1 -0.1)">
       <defs>
        <path d="M 46.484375 18.75 
L 38.28125 18.75 
L 38.28125 1.5625 
L 29.296875 1.5625 
L 29.296875 18.75 
L 3.125 18.75 
L 3.125 26.171875 
L 29.296875 69.140625 
L 38.28125 69.140625 
L 38.28125 26.171875 
L 46.484375 26.171875 
z
M 29.296875 26.171875 
L 29.296875 55.078125 
L 11.71875 26.171875 
z
" id="SimHei-52"/>
       </defs>
       <use xlink:href="#SimHei-48"/>
       <use x="50" xlink:href="#SimHei-46"/>
       <use x="100" xlink:href="#SimHei-52"/>
      </g>
     </g>
    </g>
    <g id="ytick_4">
     <g id="line2d_11">
      <g>
       <use style="stroke:#000000;stroke-width:0.8;" x="72" xlink:href="#mcdf72a90a6" y="184.896"/>
      </g>
     </g>
     <g id="text_12">
      <!-- 0.6 -->
      <g transform="translate(50 188.313969)scale(0.1 -0.1)">
       <defs>
        <path d="M 44.53125 24.21875 
Q 44.53125 13.28125 39.84375 7.03125 
Q 35.15625 0.78125 25.78125 0.78125 
Q 16.40625 0.78125 10.9375 8.59375 
Q 5.46875 16.40625 5.46875 33.984375 
Q 5.46875 50 11.125 59.5625 
Q 16.796875 69.140625 27.34375 69.140625 
Q 34.765625 69.140625 39.25 63.671875 
Q 43.75 58.203125 43.75 51.5625 
L 34.765625 51.5625 
Q 34.765625 55.46875 32.609375 58.59375 
Q 30.46875 61.71875 26.953125 61.71875 
Q 21.09375 61.71875 17.96875 55.65625 
Q 14.84375 49.609375 14.453125 37.109375 
Q 17.1875 42.1875 20.3125 44.140625 
Q 23.4375 46.09375 27.734375 46.09375 
Q 35.15625 46.09375 39.84375 40.234375 
Q 44.53125 34.375 44.53125 24.21875 
z
M 35.15625 24.21875 
Q 35.15625 31.25 32.8125 35.15625 
Q 30.46875 39.0625 26.171875 39.0625 
Q 21.09375 39.0625 18.15625 35.15625 
Q 15.234375 31.25 15.234375 25.78125 
Q 15.234375 17.1875 18.15625 12.5 
Q 21.09375 7.8125 26.171875 7.8125 
Q 29.6875 7.8125 32.421875 11.328125 
Q 35.15625 14.84375 35.15625 24.21875 
z
" id="SimHei-54"/>
       </defs>
       <use xlink:href="#SimHei-48"/>
       <use x="50" xlink:href="#SimHei-46"/>
       <use x="100" xlink:href="#SimHei-54"/>
      </g>
     </g>
    </g>
    <g id="ytick_5">
     <g id="line2d_12">
      <g>
       <use style="stroke:#000000;stroke-width:0.8;" x="72" xlink:href="#mcdf72a90a6" y="118.368"/>
      </g>
     </g>
     <g id="text_13">
      <!-- 0.8 -->
      <g transform="translate(50 121.785969)scale(0.1 -0.1)">
       <defs>
        <path d="M 44.921875 20.703125 
Q 44.921875 10.9375 39.453125 5.859375 
Q 33.984375 0.78125 24.609375 0.78125 
Q 15.234375 0.78125 9.765625 5.859375 
Q 4.296875 10.9375 4.296875 20.703125 
Q 4.296875 25.78125 7.421875 29.875 
Q 10.546875 33.984375 16.015625 35.9375 
Q 11.328125 37.890625 8.78125 41.40625 
Q 6.25 44.921875 6.25 50.390625 
Q 6.25 58.984375 11.71875 64.0625 
Q 17.1875 69.140625 24.609375 69.140625 
Q 32.03125 69.140625 37.5 64.0625 
Q 42.96875 58.984375 42.96875 50.390625 
Q 42.96875 44.921875 40.421875 41.40625 
Q 37.890625 37.890625 33.203125 35.9375 
Q 38.671875 33.984375 41.796875 29.875 
Q 44.921875 25.78125 44.921875 20.703125 
z
M 34.375 50.390625 
Q 34.375 56.640625 31.640625 59.375 
Q 28.90625 62.109375 24.609375 62.109375 
Q 20.3125 62.109375 17.578125 59.375 
Q 14.84375 56.640625 14.84375 50.390625 
Q 14.84375 44.140625 17.765625 41.59375 
Q 20.703125 39.0625 24.609375 39.0625 
Q 28.515625 39.0625 31.4375 41.59375 
Q 34.375 44.140625 34.375 50.390625 
z
M 35.9375 20.703125 
Q 35.9375 26.171875 33 29.296875 
Q 30.078125 32.421875 24.609375 32.421875 
Q 19.140625 32.421875 16.203125 29.296875 
Q 13.28125 26.171875 13.28125 20.703125 
Q 13.28125 14.453125 16.40625 11.125 
Q 19.53125 7.8125 24.609375 7.8125 
Q 29.6875 7.8125 32.8125 11.125 
Q 35.9375 14.453125 35.9375 20.703125 
z
" id="SimHei-56"/>
       </defs>
       <use xlink:href="#SimHei-48"/>
       <use x="50" xlink:href="#SimHei-46"/>
       <use x="100" xlink:href="#SimHei-56"/>
      </g>
     </g>
    </g>
    <g id="ytick_6">
     <g id="line2d_13">
      <g>
       <use style="stroke:#000000;stroke-width:0.8;" x="72" xlink:href="#mcdf72a90a6" y="51.84"/>
      </g>
     </g>
     <g id="text_14">
      <!-- 1.0 -->
      <g transform="translate(50 55.257969)scale(0.1 -0.1)">
       <use xlink:href="#SimHei-49"/>
       <use x="50" xlink:href="#SimHei-46"/>
       <use x="100" xlink:href="#SimHei-48"/>
      </g>
     </g>
    </g>
    <g id="text_15">
     <!-- rate -->
     <g transform="translate(44.710938 228.16)rotate(-90)scale(0.1 -0.1)">
      <defs>
       <path d="M 39.453125 37.5 
Q 32.03125 38.671875 26.953125 35.34375 
Q 21.875 32.03125 18.359375 23.828125 
L 18.359375 1.5625 
L 10.546875 1.5625 
L 10.546875 45.3125 
L 18.359375 45.3125 
L 18.359375 33.984375 
Q 21.875 40.234375 27.140625 43.15625 
Q 32.421875 46.09375 39.453125 46.09375 
z
" id="SimHei-114"/>
       <path d="M 45.3125 1.5625 
L 35.9375 1.5625 
Q 35.15625 2.34375 34.765625 3.703125 
Q 34.375 5.078125 34.375 7.03125 
Q 31.640625 3.90625 27.734375 2.34375 
Q 23.828125 0.78125 19.53125 0.78125 
Q 13.28125 0.78125 8.984375 3.90625 
Q 4.6875 7.03125 4.6875 12.890625 
Q 4.6875 18.75 8.59375 22.265625 
Q 12.5 25.78125 20.703125 26.953125 
Q 26.171875 27.734375 30.265625 28.90625 
Q 34.375 30.078125 34.375 32.03125 
Q 34.375 34.375 32.609375 36.71875 
Q 30.859375 39.0625 25 39.0625 
Q 20.3125 39.0625 18.15625 37.296875 
Q 16.015625 35.546875 15.234375 32.421875 
L 6.640625 32.421875 
Q 7.421875 38.671875 12.296875 42.375 
Q 17.1875 46.09375 25 46.09375 
Q 33.59375 46.09375 37.890625 42.1875 
Q 42.1875 38.28125 42.1875 31.25 
L 42.1875 9.765625 
Q 42.1875 7.421875 42.96875 5.46875 
Q 43.75 3.515625 45.3125 1.5625 
z
M 34.375 16.015625 
L 34.375 23.828125 
Q 32.03125 23.046875 29.875 22.453125 
Q 27.734375 21.875 22.65625 21.09375 
Q 16.796875 20.3125 15.03125 18.359375 
Q 13.28125 16.40625 13.28125 13.671875 
Q 13.28125 11.328125 15.03125 9.5625 
Q 16.796875 7.8125 20.3125 7.8125 
Q 23.828125 7.8125 27.921875 9.765625 
Q 32.03125 11.71875 34.375 16.015625 
z
" id="SimHei-97"/>
       <path d="M 43.359375 2.734375 
Q 41.40625 1.953125 38.859375 1.359375 
Q 36.328125 0.78125 32.03125 0.78125 
Q 25 0.78125 20.703125 4.6875 
Q 16.40625 8.59375 16.40625 15.625 
L 16.40625 39.0625 
L 3.125 39.0625 
L 3.125 45.3125 
L 16.40625 45.3125 
L 16.40625 60.546875 
L 24.21875 60.546875 
L 24.21875 45.3125 
L 40.234375 45.3125 
L 40.234375 39.0625 
L 24.21875 39.0625 
L 24.21875 15.234375 
Q 24.21875 12.109375 25.78125 9.953125 
Q 27.34375 7.8125 31.640625 7.8125 
Q 35.9375 7.8125 38.671875 8.59375 
Q 41.40625 9.375 43.359375 10.546875 
z
" id="SimHei-116"/>
      </defs>
      <use xlink:href="#SimHei-114"/>
      <use x="50" xlink:href="#SimHei-97"/>
      <use x="100" xlink:href="#SimHei-116"/>
      <use x="150" xlink:href="#SimHei-101"/>
     </g>
    </g>
   </g>
   <g id="line2d_14">
    <path clip-path="url(#pb80c18acf0)" d="M 92.290909 213.061968 
L 93.52816 186.126525 
L 94.76541 187.13196 
L 96.002661 181.484672 
L 97.239911 175.157323 
L 98.477162 177.927148 
L 99.714412 175.43339 
L 102.188914 167.252504 
L 103.426164 165.896716 
L 104.663415 186.092708 
L 105.900665 182.820569 
L 107.137916 177.890774 
L 108.375166 171.523518 
L 109.612417 170.120518 
L 110.849667 169.317426 
L 112.086918 160.24465 
L 113.324169 157.409529 
L 114.561419 161.440906 
L 115.79867 162.905646 
L 117.03592 171.86769 
L 118.273171 163.049046 
L 119.510421 163.751067 
L 120.747672 162.690533 
L 121.984922 163.153086 
L 123.222173 156.493394 
L 124.459424 153.886005 
L 125.696674 153.826625 
L 126.933925 150.096566 
L 128.171175 143.056637 
L 129.408426 162.365523 
L 130.645676 156.347119 
L 131.882927 154.072453 
L 133.120177 153.801081 
L 134.357428 150.732402 
L 135.594678 146.004421 
L 136.831929 139.6209 
L 138.06918 135.398161 
L 139.30643 138.089815 
L 140.543681 138.591595 
L 141.780931 156.099657 
L 143.018182 145.761054 
L 144.255432 141.615825 
L 145.492683 146.782678 
L 146.729933 138.575851 
L 147.967184 136.062695 
L 149.204435 137.062396 
L 150.441685 138.228935 
L 151.678936 133.541195 
L 152.916186 129.646858 
L 154.153437 147.460783 
L 155.390687 133.703593 
L 156.627938 132.324527 
L 157.865188 129.165751 
L 159.102439 127.49924 
L 160.33969 123.50701 
L 161.57694 121.954613 
L 162.814191 123.607558 
L 164.051441 124.057533 
L 165.288692 119.163283 
L 166.525942 134.970393 
L 167.763193 126.384589 
L 169.000443 125.022612 
L 170.237694 126.053099 
L 171.474945 122.614141 
L 172.712195 124.401041 
L 173.949446 119.152914 
L 175.186696 121.522472 
L 176.423947 121.469452 
L 177.661197 114.551067 
L 178.898448 132.397533 
L 180.135698 121.300424 
L 181.372949 121.441207 
L 182.6102 115.222387 
L 183.84745 118.20271 
L 185.084701 120.130915 
L 186.321951 115.713128 
L 187.559202 116.557336 
L 188.796452 113.948554 
L 190.033703 111.646543 
L 191.270953 120.623995 
L 192.508204 113.748532 
L 193.745455 116.354414 
L 194.982705 120.464084 
L 196.219956 116.265109 
L 197.457206 110.456256 
L 198.694457 110.19047 
L 199.931707 110.610345 
L 202.406208 105.777179 
L 203.643459 119.815755 
L 204.88071 108.594488 
L 206.11796 109.984812 
L 207.355211 107.775661 
L 208.592461 108.090301 
L 209.829712 107.175034 
L 211.066962 103.665988 
L 212.304213 107.435443 
L 213.541463 103.024569 
L 214.778714 105.641885 
L 216.015965 114.210436 
L 217.253215 111.830909 
L 218.490466 107.681839 
L 219.727716 106.868179 
L 220.964967 111.150231 
L 222.202217 104.357597 
L 223.439468 106.658452 
L 224.676718 103.977549 
L 225.913969 103.337177 
L 227.15122 107.344493 
L 228.38847 117.232502 
L 229.625721 105.76012 
L 230.862971 102.556658 
L 232.100222 101.470456 
L 233.337472 101.14108 
L 234.574723 103.031734 
L 235.811973 106.499923 
L 237.049224 102.462035 
L 238.286475 97.762268 
L 239.523725 101.449399 
L 240.760976 110.359532 
L 241.998226 102.910334 
L 243.235477 101.219825 
L 244.472727 97.936013 
L 245.709978 98.289012 
L 246.947228 95.550443 
L 248.184479 98.106733 
L 249.421729 97.743897 
L 250.65898 99.591629 
L 251.896231 100.547566 
L 253.133481 105.485675 
L 254.370732 101.180963 
L 255.607982 99.992205 
L 256.845233 102.092627 
L 258.082483 98.804262 
L 259.319734 97.122502 
L 260.556984 97.010132 
L 261.794235 97.125393 
L 263.031486 98.669626 
L 264.268736 97.161571 
L 265.505987 102.243409 
L 266.743237 99.741618 
L 267.980488 98.24777 
L 269.217738 100.982229 
L 270.454989 94.899204 
L 271.692239 95.553801 
L 272.92949 92.500027 
L 274.166741 94.038496 
L 275.403991 92.940136 
L 276.641242 96.133367 
L 277.878492 101.494451 
L 279.115743 97.382039 
L 280.352993 96.208784 
L 281.590244 93.598768 
L 282.827494 95.377261 
L 284.064745 94.254408 
L 285.301996 94.934798 
L 286.539246 92.833448 
L 287.776497 93.729917 
L 289.013747 91.088329 
L 290.250998 99.605977 
L 291.488248 92.988319 
L 292.725499 92.111749 
L 293.962749 92.408709 
L 295.2 93.735995 
L 296.437251 92.613577 
L 297.674501 92.655597 
L 298.911752 92.973179 
L 300.149002 90.876877 
L 301.386253 92.790029 
L 302.623503 98.44357 
L 303.860754 91.791437 
L 305.098004 89.373205 
L 306.335255 94.350388 
L 307.572506 96.166382 
L 308.809756 90.240241 
L 310.047007 90.547535 
L 311.284257 88.342099 
L 312.521508 90.215052 
L 313.758758 86.868135 
L 314.996009 100.87541 
L 316.233259 96.522702 
L 317.47051 89.309229 
L 318.707761 86.75716 
L 319.945011 89.024893 
L 321.182262 93.094156 
L 322.419512 92.611845 
L 323.656763 91.481114 
L 324.894013 87.857416 
L 326.131264 92.412773 
L 327.368514 93.751645 
L 328.605765 92.862514 
L 329.843016 91.042446 
L 331.080266 88.492118 
L 332.317517 89.587054 
L 333.554767 91.889614 
L 334.792018 87.457598 
L 336.029268 88.704464 
L 337.266519 89.160874 
L 338.503769 89.380627 
L 339.74102 95.744247 
L 340.978271 93.105052 
L 342.215521 89.19036 
L 343.452772 90.247947 
L 344.690022 85.637226 
L 345.927273 89.955483 
L 347.164523 90.836634 
L 348.401774 89.156712 
L 349.639024 86.327109 
L 350.876275 85.821028 
L 352.113525 96.198121 
L 353.350776 89.502805 
L 354.588027 89.417515 
L 355.825277 89.21254 
L 357.062528 86.046687 
L 358.299778 87.704427 
L 359.537029 90.840872 
L 360.774279 87.016783 
L 362.01153 84.504831 
L 363.24878 87.541341 
L 364.486031 98.25258 
L 365.723282 87.561654 
L 366.960532 84.846475 
L 368.197783 85.337949 
L 369.435033 91.771245 
L 370.672284 88.913061 
L 371.909534 87.867086 
L 373.146785 87.541497 
L 374.384035 85.540874 
L 375.621286 83.897162 
L 376.858537 94.034455 
L 378.095787 88.188651 
L 379.333038 87.500874 
L 380.570288 85.458983 
L 381.807539 86.443298 
L 383.044789 89.34356 
L 384.28204 85.443419 
L 385.51929 85.567719 
L 386.756541 84.44357 
L 387.993792 85.735792 
L 389.231042 92.242536 
L 390.468293 87.456177 
L 391.705543 85.304729 
L 392.942794 85.407096 
L 394.180044 84.754899 
L 395.417295 85.819207 
L 396.654545 85.101333 
L 397.891796 85.545284 
L 399.129047 85.561566 
L 400.366297 85.761564 
L 401.603548 92.921614 
L 402.840798 88.154339 
L 404.078049 87.279668 
L 405.315299 84.284982 
L 406.55255 86.429069 
L 407.7898 82.972293 
L 409.027051 83.760478 
L 410.264302 86.665371 
L 411.501552 86.170749 
L 412.738803 86.237059 
L 413.976053 92.523816 
L 415.213304 86.621571 
L 416.450554 85.608809 
L 417.687805 84.294241 
L 418.925055 82.807997 
L 420.162306 87.702547 
L 421.399557 83.755279 
L 422.636807 83.062073 
L 423.874058 85.097045 
L 425.111308 82.814384 
L 426.348559 91.545888 
L 427.585809 83.745604 
L 428.82306 82.474208 
L 430.06031 83.652767 
L 431.297561 86.250975 
L 432.534812 84.862766 
L 433.772062 83.104016 
L 435.009313 82.925874 
L 436.246563 85.454424 
L 437.483814 84.546467 
L 438.721064 95.496095 
L 439.958315 86.802484 
L 442.432816 83.522606 
L 443.670067 84.649666 
L 444.907317 83.102207 
L 446.144568 83.148584 
L 447.381818 84.408162 
L 448.619069 82.74406 
L 449.856319 80.435322 
L 451.09357 89.851185 
L 452.33082 82.999444 
L 453.568071 81.980076 
L 454.805322 82.288978 
L 456.042572 79.655473 
L 457.279823 83.622052 
L 459.754324 81.236985 
L 460.991574 81.003884 
L 462.228825 80.054092 
L 463.466075 92.098873 
L 464.703326 85.597506 
L 465.940576 83.903319 
L 467.177827 83.3611 
L 468.415078 83.254627 
L 469.652328 82.693658 
L 470.889579 83.649792 
L 472.126829 81.645368 
L 473.36408 82.452815 
L 474.60133 83.088775 
L 475.838581 91.545716 
L 477.075831 84.610406 
L 478.313082 83.601107 
L 479.550333 84.920381 
L 480.787583 80.004234 
L 482.024834 83.031997 
L 483.262084 80.894609 
L 484.499335 83.163519 
L 485.736585 84.642165 
L 486.973836 83.8122 
L 488.211086 92.869209 
L 489.448337 85.310494 
L 490.685588 83.721665 
L 491.922838 83.797982 
L 493.160089 85.083545 
L 494.397339 81.082596 
L 495.63459 83.567932 
L 496.87184 78.239897 
L 498.109091 82.78891 
L 498.109091 82.78891 
" style="fill:none;stroke:#0000ff;stroke-linecap:square;stroke-width:1.5;"/>
   </g>
   <g id="line2d_15">
    <path clip-path="url(#pb80c18acf0)" d="M 92.290909 342.833662 
L 93.52816 342.634204 
L 94.76541 341.819061 
L 96.002661 339.906926 
L 97.239911 339.514459 
L 98.477162 339.454952 
L 99.714412 339.176563 
L 100.951663 336.637612 
L 102.188914 336.520652 
L 103.426164 336.543143 
L 104.663415 341.129273 
L 105.900665 341.380769 
L 107.137916 339.269708 
L 108.375166 338.945855 
L 110.849667 337.636888 
L 112.086918 336.404104 
L 113.324169 334.85983 
L 114.561419 334.879488 
L 115.79867 335.09897 
L 117.03592 337.632001 
L 120.747672 334.380684 
L 121.984922 334.173256 
L 123.222173 333.077265 
L 124.459424 331.479659 
L 125.696674 331.034276 
L 128.171175 326.673309 
L 129.408426 332.444912 
L 130.645676 331.149638 
L 131.882927 330.888685 
L 133.120177 328.531164 
L 134.357428 327.140277 
L 135.594678 325.072725 
L 136.831929 325.541614 
L 138.06918 322.966595 
L 139.30643 321.358895 
L 140.543681 321.47227 
L 141.780931 326.777198 
L 143.018182 324.840119 
L 145.492683 323.738575 
L 146.729933 321.728067 
L 147.967184 317.487337 
L 149.204435 318.368992 
L 150.441685 317.200145 
L 151.678936 318.154802 
L 152.916186 312.284929 
L 154.153437 320.774758 
L 155.390687 317.905175 
L 156.627938 315.729323 
L 157.865188 312.435481 
L 159.102439 313.021668 
L 160.33969 309.757811 
L 161.57694 309.320868 
L 162.814191 307.116287 
L 164.051441 309.1185 
L 165.288692 305.811663 
L 166.525942 311.644345 
L 167.763193 311.708427 
L 169.000443 308.527052 
L 170.237694 308.703923 
L 171.474945 304.592415 
L 172.712195 306.119128 
L 173.949446 303.467778 
L 175.186696 305.105909 
L 177.661197 300.752147 
L 178.898448 305.955368 
L 180.135698 302.866392 
L 181.372949 305.328162 
L 182.6102 298.500919 
L 183.84745 300.099133 
L 185.084701 302.860103 
L 186.321951 299.092308 
L 187.559202 296.728406 
L 188.796452 293.978304 
L 190.033703 293.496823 
L 191.270953 297.909525 
L 192.508204 297.19662 
L 193.745455 299.193078 
L 194.982705 296.511062 
L 196.219956 295.892561 
L 197.457206 295.520262 
L 198.694457 290.241927 
L 199.931707 290.028232 
L 201.168958 290.268729 
L 202.406208 288.07984 
L 203.643459 295.3995 
L 204.88071 291.280659 
L 206.11796 292.638028 
L 207.355211 290.621326 
L 208.592461 290.343381 
L 209.829712 287.762222 
L 211.066962 286.221918 
L 212.304213 287.285681 
L 213.541463 283.127446 
L 214.778714 284.391374 
L 216.015965 288.474258 
L 217.253215 287.867552 
L 218.490466 288.448249 
L 219.727716 285.261387 
L 220.964967 286.346698 
L 222.202217 280.920444 
L 223.439468 282.638583 
L 224.676718 278.953969 
L 225.913969 278.668625 
L 227.15122 280.361453 
L 228.38847 289.39363 
L 229.625721 281.979575 
L 230.862971 281.36599 
L 232.100222 277.404196 
L 233.337472 276.711398 
L 235.811973 278.67057 
L 237.049224 277.305556 
L 238.286475 274.96143 
L 239.523725 274.939459 
L 240.760976 283.469549 
L 241.998226 277.829691 
L 243.235477 278.210215 
L 245.709978 272.50977 
L 246.947228 272.594703 
L 248.184479 269.909752 
L 249.421729 274.870795 
L 250.65898 270.215554 
L 251.896231 271.402994 
L 253.133481 275.965762 
L 254.370732 273.310601 
L 255.607982 271.704214 
L 256.845233 271.83177 
L 258.082483 270.223129 
L 259.319734 266.780067 
L 260.556984 267.194859 
L 261.794235 268.749288 
L 263.031486 266.642518 
L 264.268736 264.092744 
L 265.505987 274.104292 
L 266.743237 270.80164 
L 267.980488 269.374669 
L 269.217738 270.368223 
L 270.454989 267.383734 
L 271.692239 263.631857 
L 272.92949 262.138866 
L 274.166741 262.754616 
L 275.403991 261.239046 
L 276.641242 261.605496 
L 277.878492 268.432442 
L 279.115743 267.521379 
L 280.352993 263.195326 
L 281.590244 263.281463 
L 282.827494 262.998875 
L 284.064745 261.733527 
L 285.301996 260.246927 
L 286.539246 259.90837 
L 287.776497 261.032303 
L 289.013747 259.311941 
L 290.250998 270.11611 
L 291.488248 263.063793 
L 292.725499 259.781433 
L 293.962749 263.25903 
L 295.2 255.563812 
L 296.437251 257.255532 
L 297.674501 256.552826 
L 298.911752 254.835178 
L 300.149002 254.143581 
L 301.386253 257.938901 
L 302.623503 263.474947 
L 303.860754 260.772396 
L 305.098004 260.481892 
L 306.335255 256.108198 
L 307.572506 260.302758 
L 308.809756 251.633468 
L 310.047007 256.1852 
L 311.284257 254.223706 
L 312.521508 253.939007 
L 313.758758 251.666856 
L 314.996009 262.778678 
L 316.233259 256.612876 
L 317.47051 255.938275 
L 319.945011 250.842239 
L 321.182262 251.639904 
L 322.419512 251.485046 
L 323.656763 250.276055 
L 324.894013 250.37929 
L 326.131264 249.662317 
L 327.368514 256.658784 
L 328.605765 251.338074 
L 329.843016 251.704096 
L 331.080266 250.162006 
L 333.554767 252.215411 
L 334.792018 247.696008 
L 336.029268 249.408795 
L 337.266519 248.351596 
L 338.503769 244.826056 
L 339.74102 254.748395 
L 340.978271 252.461521 
L 342.215521 251.715014 
L 343.452772 250.710487 
L 344.690022 248.762776 
L 345.927273 243.264463 
L 347.164523 244.713439 
L 348.401774 250.721992 
L 349.639024 248.114281 
L 350.876275 246.910144 
L 352.113525 256.38125 
L 353.350776 250.177424 
L 354.588027 247.406035 
L 355.825277 245.96187 
L 357.062528 247.471116 
L 358.299778 247.709404 
L 359.537029 244.35075 
L 360.774279 243.165482 
L 362.01153 245.199855 
L 363.24878 240.546411 
L 364.486031 252.381776 
L 365.723282 248.365311 
L 366.960532 243.206873 
L 369.435033 247.313832 
L 370.672284 244.11143 
L 371.909534 246.484845 
L 373.146785 243.894248 
L 374.384035 245.583997 
L 375.621286 240.666049 
L 376.858537 249.202743 
L 378.095787 247.991282 
L 379.333038 241.887878 
L 380.570288 241.171125 
L 381.807539 242.829799 
L 383.044789 242.031722 
L 384.28204 238.363133 
L 385.51929 240.231458 
L 386.756541 239.161278 
L 387.993792 240.34091 
L 389.231042 245.542784 
L 390.468293 243.227081 
L 391.705543 244.468055 
L 392.942794 241.833253 
L 394.180044 237.543305 
L 395.417295 239.092612 
L 396.654545 241.022654 
L 397.891796 237.736115 
L 399.129047 238.156867 
L 400.366297 240.239304 
L 401.603548 247.277764 
L 402.840798 244.139071 
L 404.078049 242.355252 
L 405.315299 238.776575 
L 406.55255 240.163089 
L 407.7898 237.997305 
L 409.027051 239.384141 
L 410.264302 239.448103 
L 411.501552 239.765891 
L 412.738803 234.446897 
L 413.976053 249.817708 
L 416.450554 234.988941 
L 417.687805 233.38676 
L 418.925055 238.111888 
L 420.162306 239.376279 
L 421.399557 237.437629 
L 422.636807 239.472444 
L 423.874058 235.324835 
L 425.111308 236.591153 
L 426.348559 245.506586 
L 427.585809 234.980926 
L 428.82306 240.502405 
L 430.06031 233.978275 
L 431.297561 236.861007 
L 432.534812 236.012675 
L 433.772062 236.762223 
L 435.009313 235.966047 
L 436.246563 239.148749 
L 437.483814 233.038563 
L 438.721064 249.311385 
L 439.958315 231.473899 
L 441.195565 237.115789 
L 442.432816 236.812921 
L 443.670067 238.478254 
L 444.907317 235.114772 
L 446.144568 231.204926 
L 447.381818 234.556635 
L 448.619069 232.063525 
L 449.856319 233.348384 
L 451.09357 243.210983 
L 452.33082 234.559074 
L 453.568071 233.245305 
L 454.805322 234.72148 
L 456.042572 232.276132 
L 457.279823 233.396254 
L 458.517073 231.728625 
L 459.754324 231.60764 
L 460.991574 231.714195 
L 462.228825 230.850094 
L 463.466075 246.581826 
L 464.703326 233.031972 
L 465.940576 236.939562 
L 467.177827 234.162823 
L 468.415078 232.841959 
L 469.652328 229.802004 
L 470.889579 236.04698 
L 472.126829 233.268793 
L 473.36408 233.888983 
L 474.60133 230.43753 
L 475.838581 240.055584 
L 477.075831 235.105385 
L 478.313082 235.327158 
L 479.550333 235.124929 
L 480.787583 228.749284 
L 482.024834 231.197861 
L 483.262084 226.762946 
L 484.499335 230.02654 
L 485.736585 232.706717 
L 486.973836 230.36746 
L 488.211086 241.60498 
L 489.448337 239.205533 
L 490.685588 234.644519 
L 491.922838 237.739858 
L 493.160089 234.283482 
L 494.397339 229.411405 
L 495.63459 228.2415 
L 496.87184 228.826102 
L 498.109091 233.66475 
L 498.109091 233.66475 
" style="fill:none;stroke:#008000;stroke-linecap:square;stroke-width:1.5;"/>
   </g>
   <g id="patch_3">
    <path d="M 72 384.48 
L 72 51.84 
" style="fill:none;stroke:#000000;stroke-linecap:square;stroke-linejoin:miter;stroke-width:0.8;"/>
   </g>
   <g id="patch_4">
    <path d="M 518.4 384.48 
L 518.4 51.84 
" style="fill:none;stroke:#000000;stroke-linecap:square;stroke-linejoin:miter;stroke-width:0.8;"/>
   </g>
   <g id="patch_5">
    <path d="M 72 384.48 
L 518.4 384.48 
" style="fill:none;stroke:#000000;stroke-linecap:square;stroke-linejoin:miter;stroke-width:0.8;"/>
   </g>
   <g id="patch_6">
    <path d="M 72 51.84 
L 518.4 51.84 
" style="fill:none;stroke:#000000;stroke-linecap:square;stroke-linejoin:miter;stroke-width:0.8;"/>
   </g>
   <g id="legend_1">
    <g id="patch_7">
     <path d="M 79 86.418125 
L 156 86.418125 
Q 158 86.418125 158 84.418125 
L 158 58.84 
Q 158 56.84 156 56.84 
L 79 56.84 
Q 77 56.84 77 58.84 
L 77 84.418125 
Q 77 86.418125 79 86.418125 
z
" style="fill:#ffffff;opacity:0.8;stroke:#cccccc;stroke-linejoin:miter;"/>
    </g>
    <g id="line2d_16">
     <path d="M 81 64.34 
L 101 64.34 
" style="fill:none;stroke:#0000ff;stroke-linecap:square;stroke-width:1.5;"/>
    </g>
    <g id="line2d_17"/>
    <g id="text_16">
     <!-- precision -->
     <g transform="translate(109 67.84)scale(0.1 -0.1)">
      <defs>
       <path d="M 28.515625 57.8125 
L 20.703125 57.8125 
L 20.703125 67.96875 
L 28.515625 67.96875 
z
M 28.515625 1.5625 
L 20.703125 1.5625 
L 20.703125 45.3125 
L 28.515625 45.3125 
z
" id="SimHei-105"/>
       <path d="M 43.359375 13.671875 
Q 43.359375 7.421875 38.46875 4.09375 
Q 33.59375 0.78125 26.171875 0.78125 
Q 16.796875 0.78125 11.71875 4.484375 
Q 6.640625 8.203125 6.640625 15.234375 
L 14.453125 15.234375 
Q 14.453125 10.546875 17.765625 8.984375 
Q 21.09375 7.421875 25.78125 7.421875 
Q 30.46875 7.421875 32.8125 9.171875 
Q 35.15625 10.9375 35.15625 13.671875 
Q 35.15625 15.625 33.203125 17.578125 
Q 31.25 19.53125 23.4375 20.703125 
Q 14.453125 21.875 11.125 25.1875 
Q 7.8125 28.515625 7.8125 33.984375 
Q 7.8125 38.671875 12.296875 42.375 
Q 16.796875 46.09375 25.390625 46.09375 
Q 33.203125 46.09375 37.6875 42.578125 
Q 42.1875 39.0625 42.1875 33.203125 
L 34.375 33.203125 
Q 34.375 36.71875 31.828125 38.078125 
Q 29.296875 39.453125 25.390625 39.453125 
Q 20.3125 39.453125 18.15625 37.6875 
Q 16.015625 35.9375 16.015625 33.59375 
Q 16.015625 30.859375 17.96875 29.296875 
Q 19.921875 27.734375 26.171875 26.953125 
Q 36.328125 25.390625 39.84375 22.0625 
Q 43.359375 18.75 43.359375 13.671875 
z
" id="SimHei-115"/>
       <path d="M 44.140625 1.5625 
L 36.328125 1.5625 
L 36.328125 29.6875 
Q 36.328125 34.375 33.984375 37.109375 
Q 31.640625 39.84375 27.734375 39.84375 
Q 22.65625 39.84375 18.15625 34.5625 
Q 13.671875 29.296875 13.671875 21.484375 
L 13.671875 1.5625 
L 5.859375 1.5625 
L 5.859375 45.3125 
L 13.671875 45.3125 
L 13.671875 37.109375 
Q 16.796875 41.40625 20.5 43.75 
Q 24.21875 46.09375 30.078125 46.09375 
Q 37.109375 46.09375 40.625 42.1875 
Q 44.140625 38.28125 44.140625 32.421875 
z
" id="SimHei-110"/>
      </defs>
      <use xlink:href="#SimHei-112"/>
      <use x="50" xlink:href="#SimHei-114"/>
      <use x="100" xlink:href="#SimHei-101"/>
      <use x="150" xlink:href="#SimHei-99"/>
      <use x="200" xlink:href="#SimHei-105"/>
      <use x="250" xlink:href="#SimHei-115"/>
      <use x="300" xlink:href="#SimHei-105"/>
      <use x="350" xlink:href="#SimHei-111"/>
      <use x="400" xlink:href="#SimHei-110"/>
     </g>
    </g>
    <g id="line2d_18">
     <path d="M 81 77.629062 
L 101 77.629062 
" style="fill:none;stroke:#008000;stroke-linecap:square;stroke-width:1.5;"/>
    </g>
    <g id="line2d_19"/>
    <g id="text_17">
     <!-- recall -->
     <g transform="translate(109 81.129062)scale(0.1 -0.1)">
      <defs>
       <path d="M 28.90625 1.5625 
L 21.09375 1.5625 
L 21.09375 68.359375 
L 28.90625 68.359375 
z
" id="SimHei-108"/>
      </defs>
      <use xlink:href="#SimHei-114"/>
      <use x="50" xlink:href="#SimHei-101"/>
      <use x="100" xlink:href="#SimHei-99"/>
      <use x="150" xlink:href="#SimHei-97"/>
      <use x="200" xlink:href="#SimHei-108"/>
      <use x="250" xlink:href="#SimHei-108"/>
     </g>
    </g>
   </g>
  </g>
  <g id="axes_2">
   <g id="matplotlib.axis_3">
    <g id="ytick_7">
     <g id="line2d_20">
      <defs>
       <path d="M 0 0 
L 3.5 0 
" id="m9ecfd8e1dc" style="stroke:#000000;stroke-width:0.8;"/>
      </defs>
      <g>
       <use style="stroke:#000000;stroke-width:0.8;" x="518.4" xlink:href="#m9ecfd8e1dc" y="352.9375"/>
      </g>
     </g>
     <g id="text_18">
      <!-- 0.06 -->
      <g transform="translate(525.4 356.355468)scale(0.1 -0.1)">
       <use xlink:href="#SimHei-48"/>
       <use x="50" xlink:href="#SimHei-46"/>
       <use x="100" xlink:href="#SimHei-48"/>
       <use x="150" xlink:href="#SimHei-54"/>
      </g>
     </g>
    </g>
    <g id="ytick_8">
     <g id="line2d_21">
      <g>
       <use style="stroke:#000000;stroke-width:0.8;" x="518.4" xlink:href="#m9ecfd8e1dc" y="295.680137"/>
      </g>
     </g>
     <g id="text_19">
      <!-- 0.08 -->
      <g transform="translate(525.4 299.098106)scale(0.1 -0.1)">
       <use xlink:href="#SimHei-48"/>
       <use x="50" xlink:href="#SimHei-46"/>
       <use x="100" xlink:href="#SimHei-48"/>
       <use x="150" xlink:href="#SimHei-56"/>
      </g>
     </g>
    </g>
    <g id="ytick_9">
     <g id="line2d_22">
      <g>
       <use style="stroke:#000000;stroke-width:0.8;" x="518.4" xlink:href="#m9ecfd8e1dc" y="238.422774"/>
      </g>
     </g>
     <g id="text_20">
      <!-- 0.10 -->
      <g transform="translate(525.4 241.840743)scale(0.1 -0.1)">
       <use xlink:href="#SimHei-48"/>
       <use x="50" xlink:href="#SimHei-46"/>
       <use x="100" xlink:href="#SimHei-49"/>
       <use x="150" xlink:href="#SimHei-48"/>
      </g>
     </g>
    </g>
    <g id="ytick_10">
     <g id="line2d_23">
      <g>
       <use style="stroke:#000000;stroke-width:0.8;" x="518.4" xlink:href="#m9ecfd8e1dc" y="181.165412"/>
      </g>
     </g>
     <g id="text_21">
      <!-- 0.12 -->
      <g transform="translate(525.4 184.58338)scale(0.1 -0.1)">
       <use xlink:href="#SimHei-48"/>
       <use x="50" xlink:href="#SimHei-46"/>
       <use x="100" xlink:href="#SimHei-49"/>
       <use x="150" xlink:href="#SimHei-50"/>
      </g>
     </g>
    </g>
    <g id="ytick_11">
     <g id="line2d_24">
      <g>
       <use style="stroke:#000000;stroke-width:0.8;" x="518.4" xlink:href="#m9ecfd8e1dc" y="123.908049"/>
      </g>
     </g>
     <g id="text_22">
      <!-- 0.14 -->
      <g transform="translate(525.4 127.326018)scale(0.1 -0.1)">
       <use xlink:href="#SimHei-48"/>
       <use x="50" xlink:href="#SimHei-46"/>
       <use x="100" xlink:href="#SimHei-49"/>
       <use x="150" xlink:href="#SimHei-52"/>
      </g>
     </g>
    </g>
    <g id="ytick_12">
     <g id="line2d_25">
      <g>
       <use style="stroke:#000000;stroke-width:0.8;" x="518.4" xlink:href="#m9ecfd8e1dc" y="66.650686"/>
      </g>
     </g>
     <g id="text_23">
      <!-- 0.16 -->
      <g transform="translate(525.4 70.068655)scale(0.1 -0.1)">
       <use xlink:href="#SimHei-48"/>
       <use x="50" xlink:href="#SimHei-46"/>
       <use x="100" xlink:href="#SimHei-49"/>
       <use x="150" xlink:href="#SimHei-54"/>
      </g>
     </g>
    </g>
    <g id="text_24">
     <!-- loss -->
     <g transform="translate(556.235937 228.16)rotate(-90)scale(0.1 -0.1)">
      <use xlink:href="#SimHei-108"/>
      <use x="50" xlink:href="#SimHei-111"/>
      <use x="100" xlink:href="#SimHei-115"/>
      <use x="150" xlink:href="#SimHei-115"/>
     </g>
    </g>
   </g>
   <g id="line2d_26">
    <path clip-path="url(#pb80c18acf0)" d="M 92.290909 66.96 
L 93.52816 176.043002 
L 94.76541 185.215128 
L 96.002661 193.072316 
L 97.239911 198.761809 
L 98.477162 202.44525 
L 99.714412 207.515413 
L 100.951663 213.390962 
L 102.188914 216.357635 
L 103.426164 220.372048 
L 104.663415 182.553219 
L 105.900665 197.253902 
L 107.137916 203.858233 
L 108.375166 208.053516 
L 109.612417 213.349906 
L 112.086918 222.269832 
L 113.324169 227.522519 
L 114.561419 228.6933 
L 115.79867 230.887162 
L 117.03592 216.429446 
L 118.273171 221.829419 
L 119.510421 230.288712 
L 120.747672 232.247926 
L 121.984922 236.549062 
L 124.459424 241.867871 
L 125.696674 246.13084 
L 126.933925 249.453397 
L 128.171175 253.982585 
L 129.408426 236.385287 
L 130.645676 243.272031 
L 131.882927 245.726076 
L 133.120177 251.486642 
L 134.357428 252.94185 
L 135.594678 258.961464 
L 136.831929 260.640833 
L 138.06918 264.500037 
L 139.30643 266.025384 
L 140.543681 269.796051 
L 141.780931 255.359017 
L 143.018182 260.132544 
L 144.255432 263.791043 
L 145.492683 265.901583 
L 146.729933 270.605516 
L 147.967184 273.900936 
L 149.204435 275.460199 
L 150.441685 277.439362 
L 151.678936 279.812024 
L 152.916186 284.658163 
L 154.153437 267.016247 
L 155.390687 277.965947 
L 157.865188 283.948078 
L 159.102439 284.347276 
L 160.33969 288.886889 
L 161.57694 290.122781 
L 162.814191 294.122662 
L 164.051441 295.295326 
L 165.288692 295.2854 
L 166.525942 282.55112 
L 167.763193 289.108821 
L 169.000443 291.373404 
L 170.237694 292.003258 
L 171.474945 293.819533 
L 172.712195 297.363844 
L 173.949446 298.333684 
L 175.186696 298.89872 
L 176.423947 301.18634 
L 177.661197 304.320069 
L 178.898448 289.065312 
L 180.135698 295.72494 
L 181.372949 295.990933 
L 182.6102 302.497466 
L 183.84745 302.756137 
L 185.084701 302.054135 
L 186.321951 304.467117 
L 187.559202 308.076407 
L 188.796452 311.310197 
L 190.033703 311.466848 
L 191.270953 301.954828 
L 192.508204 304.578758 
L 193.745455 305.925905 
L 194.982705 306.910263 
L 196.219956 309.223829 
L 197.457206 312.281578 
L 198.694457 313.570675 
L 199.931707 313.523312 
L 201.168958 315.164917 
L 202.406208 318.050001 
L 203.643459 305.2846 
L 204.88071 310.329482 
L 206.11796 313.76024 
L 207.355211 314.865704 
L 208.592461 315.27387 
L 209.829712 316.435873 
L 211.066962 319.212685 
L 212.304213 320.74456 
L 214.778714 320.321049 
L 216.015965 310.814376 
L 217.253215 317.51709 
L 218.490466 319.34091 
L 219.727716 319.343242 
L 220.964967 318.555903 
L 222.202217 322.212982 
L 223.439468 320.625132 
L 224.676718 325.982359 
L 225.913969 326.862893 
L 227.15122 327.008259 
L 228.38847 312.089472 
L 229.625721 322.272101 
L 230.862971 322.818686 
L 232.100222 326.518626 
L 234.574723 327.939279 
L 235.811973 327.670664 
L 237.049224 329.511426 
L 238.286475 330.211267 
L 239.523725 333.759439 
L 240.760976 321.006004 
L 241.998226 328.315135 
L 243.235477 329.924228 
L 244.472727 329.810378 
L 245.709978 331.53393 
L 246.947228 335.595387 
L 248.184479 334.732022 
L 249.421729 333.694024 
L 250.65898 333.492294 
L 251.896231 334.663887 
L 253.133481 324.172506 
L 254.370732 330.367281 
L 255.607982 334.908066 
L 256.845233 334.085203 
L 258.082483 334.654633 
L 259.319734 337.032938 
L 260.556984 338.10946 
L 261.794235 338.829751 
L 263.031486 336.903056 
L 264.268736 339.255644 
L 265.505987 329.131756 
L 266.743237 333.59697 
L 267.980488 335.718428 
L 269.217738 337.532645 
L 270.454989 334.622127 
L 271.692239 338.470976 
L 272.92949 339.681346 
L 276.641242 342.206471 
L 277.878492 333.734554 
L 279.115743 337.785647 
L 280.352993 340.479317 
L 281.590244 341.456595 
L 282.827494 341.822515 
L 284.064745 341.668862 
L 285.301996 342.203314 
L 286.539246 343.812669 
L 287.776497 343.655253 
L 289.013747 344.423127 
L 290.250998 334.865999 
L 291.488248 341.446721 
L 292.725499 342.561253 
L 293.962749 342.3671 
L 295.2 346.666028 
L 296.437251 344.676094 
L 297.674501 346.651445 
L 298.911752 348.009882 
L 300.149002 347.162612 
L 301.386253 344.191764 
L 302.623503 336.923488 
L 303.860754 344.645297 
L 305.098004 343.71142 
L 306.335255 345.752779 
L 307.572506 343.307229 
L 308.809756 347.046642 
L 310.047007 347.567918 
L 311.284257 349.642692 
L 312.521508 348.463203 
L 313.758758 351.137125 
L 314.996009 339.734636 
L 316.233259 346.734123 
L 317.47051 346.774129 
L 318.707761 348.357337 
L 319.945011 348.914962 
L 321.182262 348.616803 
L 322.419512 351.713981 
L 323.656763 350.902004 
L 324.894013 353.709439 
L 326.131264 351.18086 
L 327.368514 344.111109 
L 328.605765 351.908717 
L 329.843016 348.939588 
L 331.080266 351.274288 
L 333.554767 350.52037 
L 334.792018 353.623094 
L 336.029268 348.900267 
L 337.266519 355.2823 
L 338.503769 353.455428 
L 339.74102 347.820516 
L 340.978271 348.446632 
L 342.215521 350.262278 
L 343.452772 352.572855 
L 344.690022 354.35684 
L 345.927273 355.738479 
L 347.164523 352.642012 
L 348.401774 352.430779 
L 349.639024 355.476445 
L 350.876275 353.16627 
L 352.113525 344.502923 
L 354.588027 354.767229 
L 355.825277 357.354681 
L 357.062528 356.368833 
L 358.299778 354.816297 
L 359.537029 355.333575 
L 360.774279 356.721876 
L 362.01153 357.124105 
L 363.24878 356.474393 
L 364.486031 346.440865 
L 365.723282 354.489217 
L 366.960532 356.34013 
L 368.197783 358.502332 
L 369.435033 355.823182 
L 370.672284 357.761605 
L 371.909534 353.513434 
L 373.146785 357.203026 
L 374.384035 355.727985 
L 375.621286 359.352342 
L 376.858537 349.808976 
L 378.095787 352.997302 
L 379.333038 358.330102 
L 380.570288 358.715254 
L 381.807539 359.609416 
L 383.044789 355.956834 
L 384.28204 358.844856 
L 385.51929 360.450127 
L 386.756541 361.779566 
L 387.993792 361.228291 
L 389.231042 353.229154 
L 390.468293 356.234953 
L 391.705543 357.923497 
L 392.942794 355.10353 
L 394.180044 362.353513 
L 395.417295 361.440265 
L 396.654545 358.173589 
L 399.129047 360.007879 
L 400.366297 361.273805 
L 401.603548 352.366152 
L 402.840798 355.933231 
L 404.078049 358.382763 
L 405.315299 359.879067 
L 406.55255 359.842096 
L 407.7898 361.799158 
L 409.027051 362.598121 
L 410.264302 360.532474 
L 411.501552 359.470478 
L 412.738803 361.951092 
L 413.976053 350.678084 
L 415.213304 357.915814 
L 416.450554 362.34528 
L 417.687805 364.020602 
L 418.925055 361.675153 
L 420.162306 361.63273 
L 421.399557 363.475 
L 422.636807 361.039591 
L 423.874058 362.81631 
L 425.111308 363.875192 
L 426.348559 354.691441 
L 427.585809 362.711838 
L 428.82306 359.386091 
L 430.06031 363.537702 
L 431.297561 361.813585 
L 432.534812 363.701467 
L 433.772062 363.190791 
L 435.009313 362.247047 
L 436.246563 360.044749 
L 437.483814 364.760655 
L 438.721064 351.83625 
L 439.958315 363.990576 
L 441.195565 362.238784 
L 442.432816 362.863204 
L 443.670067 362.685891 
L 444.907317 363.520528 
L 446.144568 365.462947 
L 447.381818 363.750057 
L 448.619069 366.181395 
L 449.856319 365.385932 
L 451.09357 354.162438 
L 452.33082 362.493944 
L 453.568071 365.803254 
L 454.805322 363.364799 
L 456.042572 367.14319 
L 457.279823 366.565837 
L 458.517073 364.485319 
L 459.754324 367.595124 
L 460.991574 366.971732 
L 462.228825 367.988366 
L 463.466075 353.411486 
L 464.703326 365.652162 
L 465.940576 363.634913 
L 467.177827 363.661166 
L 468.415078 365.964052 
L 469.652328 367.074988 
L 470.889579 364.579609 
L 472.126829 366.106677 
L 473.36408 364.007856 
L 474.60133 367.248368 
L 475.838581 356.530378 
L 477.075831 362.534424 
L 478.313082 365.943403 
L 479.550333 364.981502 
L 480.787583 368.812634 
L 482.024834 365.251762 
L 484.499335 367.427782 
L 485.736585 368.114743 
L 486.973836 367.051668 
L 488.211086 354.891022 
L 489.448337 360.317846 
L 490.685588 363.936452 
L 491.922838 362.858388 
L 493.160089 364.220848 
L 494.397339 367.58568 
L 495.63459 367.039474 
L 496.87184 369.36 
L 498.109091 365.451637 
L 498.109091 365.451637 
" style="fill:none;stroke:#ff0000;stroke-linecap:square;stroke-width:1.5;"/>
   </g>
   <g id="patch_8">
    <path d="M 72 384.48 
L 72 51.84 
" style="fill:none;stroke:#000000;stroke-linecap:square;stroke-linejoin:miter;stroke-width:0.8;"/>
   </g>
   <g id="patch_9">
    <path d="M 518.4 384.48 
L 518.4 51.84 
" style="fill:none;stroke:#000000;stroke-linecap:square;stroke-linejoin:miter;stroke-width:0.8;"/>
   </g>
   <g id="patch_10">
    <path d="M 72 384.48 
L 518.4 384.48 
" style="fill:none;stroke:#000000;stroke-linecap:square;stroke-linejoin:miter;stroke-width:0.8;"/>
   </g>
   <g id="patch_11">
    <path d="M 72 51.84 
L 518.4 51.84 
" style="fill:none;stroke:#000000;stroke-linecap:square;stroke-linejoin:miter;stroke-width:0.8;"/>
   </g>
   <g id="text_25">
    <!-- The learning curve on host -->
    <g transform="translate(217.2 45.84)scale(0.12 -0.12)">
     <defs>
      <path d="M 44.921875 60.9375 
L 29.296875 60.9375 
L 29.296875 1.5625 
L 20.3125 1.5625 
L 20.3125 60.9375 
L 4.6875 60.9375 
L 4.6875 68.359375 
L 44.921875 68.359375 
z
" id="SimHei-84"/>
      <path id="SimHei-32"/>
      <path d="M 46.875 38.671875 
Q 44.140625 39.453125 41.59375 39.640625 
Q 39.0625 39.84375 36.328125 39.0625 
Q 37.5 37.890625 38.28125 36.125 
Q 39.0625 34.375 39.0625 30.859375 
Q 39.0625 24.21875 34.5625 19.921875 
Q 30.078125 15.625 23.4375 15.625 
Q 21.875 15.625 19.328125 16.203125 
Q 16.796875 16.796875 15.234375 17.578125 
Q 14.0625 16.796875 13.671875 16.015625 
Q 13.28125 15.234375 13.28125 14.0625 
Q 13.28125 12.109375 16.015625 11.125 
Q 18.75 10.15625 25.78125 10.15625 
Q 37.109375 10.15625 41.203125 7.03125 
Q 45.3125 3.90625 45.3125 -0.78125 
Q 45.3125 -7.03125 39.25 -9.953125 
Q 33.203125 -12.890625 25 -12.890625 
Q 14.453125 -12.890625 9.375 -10.15625 
Q 4.296875 -7.421875 4.296875 -2.734375 
Q 4.296875 -0.390625 6.25 1.953125 
Q 8.203125 4.296875 11.328125 5.859375 
Q 8.984375 7.03125 7.609375 8.78125 
Q 6.25 10.546875 6.25 13.28125 
Q 6.25 15.625 8 17.375 
Q 9.765625 19.140625 12.109375 20.3125 
Q 10.15625 22.265625 8.984375 25 
Q 7.8125 27.734375 7.8125 30.859375 
Q 7.8125 37.5 12.296875 41.796875 
Q 16.796875 46.09375 23.4375 46.09375 
Q 26.953125 46.09375 29.484375 45.109375 
Q 32.03125 44.140625 33.984375 42.1875 
Q 37.109375 44.53125 40.234375 45.5 
Q 43.359375 46.484375 46.875 46.09375 
z
M 31.25 30.859375 
Q 31.25 34.765625 29.296875 37.109375 
Q 27.34375 39.453125 23.4375 39.453125 
Q 19.53125 39.453125 17.578125 37.109375 
Q 15.625 34.765625 15.625 30.859375 
Q 15.625 26.953125 17.578125 24.609375 
Q 19.53125 22.265625 23.4375 22.265625 
Q 27.34375 22.265625 29.296875 24.609375 
Q 31.25 26.953125 31.25 30.859375 
z
M 37.890625 -1.5625 
Q 37.890625 0 36.125 1.5625 
Q 34.375 3.125 27.34375 3.125 
Q 25.78125 3.125 23.046875 3.3125 
Q 20.3125 3.515625 16.796875 3.90625 
Q 13.671875 2.734375 12.5 1.171875 
Q 11.328125 -0.390625 11.328125 -1.953125 
Q 11.328125 -4.296875 14.453125 -5.859375 
Q 17.578125 -7.421875 25.390625 -7.421875 
Q 32.03125 -7.421875 34.953125 -5.65625 
Q 37.890625 -3.90625 37.890625 -1.5625 
z
" id="SimHei-103"/>
      <path d="M 44.140625 1.5625 
L 36.328125 1.5625 
L 36.328125 9.765625 
Q 33.203125 5.46875 29.484375 3.125 
Q 25.78125 0.78125 19.921875 0.78125 
Q 12.890625 0.78125 9.375 4.6875 
Q 5.859375 8.59375 5.859375 14.453125 
L 5.859375 45.3125 
L 13.671875 45.3125 
L 13.671875 17.1875 
Q 13.671875 12.5 16.015625 9.765625 
Q 18.359375 7.03125 22.265625 7.03125 
Q 27.34375 7.03125 31.828125 12.296875 
Q 36.328125 17.578125 36.328125 25.390625 
L 36.328125 45.3125 
L 44.140625 45.3125 
z
" id="SimHei-117"/>
      <path d="M 45.3125 45.3125 
L 28.90625 0.78125 
L 20.3125 0.78125 
L 3.90625 45.3125 
L 12.109375 45.3125 
L 24.21875 11.328125 
L 25 11.328125 
L 37.109375 45.3125 
z
" id="SimHei-118"/>
     </defs>
     <use xlink:href="#SimHei-84"/>
     <use x="50" xlink:href="#SimHei-104"/>
     <use x="100" xlink:href="#SimHei-101"/>
     <use x="150" xlink:href="#SimHei-32"/>
     <use x="200" xlink:href="#SimHei-108"/>
     <use x="250" xlink:href="#SimHei-101"/>
     <use x="300" xlink:href="#SimHei-97"/>
     <use x="350" xlink:href="#SimHei-114"/>
     <use x="400" xlink:href="#SimHei-110"/>
     <use x="450" xlink:href="#SimHei-105"/>
     <use x="500" xlink:href="#SimHei-110"/>
     <use x="550" xlink:href="#SimHei-103"/>
     <use x="600" xlink:href="#SimHei-32"/>
     <use x="650" xlink:href="#SimHei-99"/>
     <use x="700" xlink:href="#SimHei-117"/>
     <use x="750" xlink:href="#SimHei-114"/>
     <use x="800" xlink:href="#SimHei-118"/>
     <use x="850" xlink:href="#SimHei-101"/>
     <use x="900" xlink:href="#SimHei-32"/>
     <use x="950" xlink:href="#SimHei-111"/>
     <use x="1000" xlink:href="#SimHei-110"/>
     <use x="1050" xlink:href="#SimHei-32"/>
     <use x="1100" xlink:href="#SimHei-104"/>
     <use x="1150" xlink:href="#SimHei-111"/>
     <use x="1200" xlink:href="#SimHei-115"/>
     <use x="1250" xlink:href="#SimHei-116"/>
    </g>
   </g>
   <g id="legend_2">
    <g id="patch_12">
     <path d="M 459.4 73.129062 
L 511.4 73.129062 
Q 513.4 73.129062 513.4 71.129062 
L 513.4 58.84 
Q 513.4 56.84 511.4 56.84 
L 459.4 56.84 
Q 457.4 56.84 457.4 58.84 
L 457.4 71.129062 
Q 457.4 73.129062 459.4 73.129062 
z
" style="fill:#ffffff;opacity:0.8;stroke:#cccccc;stroke-linejoin:miter;"/>
    </g>
    <g id="line2d_27">
     <path d="M 461.4 64.34 
L 481.4 64.34 
" style="fill:none;stroke:#ff0000;stroke-linecap:square;stroke-width:1.5;"/>
    </g>
    <g id="line2d_28"/>
    <g id="text_26">
     <!-- loss -->
     <g transform="translate(489.4 67.84)scale(0.1 -0.1)">
      <use xlink:href="#SimHei-108"/>
      <use x="50" xlink:href="#SimHei-111"/>
      <use x="100" xlink:href="#SimHei-115"/>
      <use x="150" xlink:href="#SimHei-115"/>
     </g>
    </g>
   </g>
  </g>
 </g>
 <defs>
  <clipPath id="pb80c18acf0">
   <rect height="332.64" width="446.4" x="72" y="51.84"/>
  </clipPath>
 </defs>
</svg>
