<?xml version="1.0" encoding="utf-8" standalone="no"?>
<!DOCTYPE svg PUBLIC "-//W3C//DTD SVG 1.1//EN"
  "http://www.w3.org/Graphics/SVG/1.1/DTD/svg11.dtd">
<svg xmlns:xlink="http://www.w3.org/1999/xlink" width="460.8pt" height="345.6pt" viewBox="0 0 460.8 345.6" xmlns="http://www.w3.org/2000/svg" version="1.1">
 <metadata>
  <rdf:RDF xmlns:dc="http://purl.org/dc/elements/1.1/" xmlns:cc="http://creativecommons.org/ns#" xmlns:rdf="http://www.w3.org/1999/02/22-rdf-syntax-ns#">
   <cc:Work>
    <dc:type rdf:resource="http://purl.org/dc/dcmitype/StillImage"/>
    <dc:date>2024-07-14T16:02:49.578081</dc:date>
    <dc:format>image/svg+xml</dc:format>
    <dc:creator>
     <cc:Agent>
      <dc:title>Matplotlib v3.7.1, https://matplotlib.org/</dc:title>
     </cc:Agent>
    </dc:creator>
   </cc:Work>
  </rdf:RDF>
 </metadata>
 <defs>
  <style type="text/css">*{stroke-linejoin: round; stroke-linecap: butt}</style>
 </defs>
 <g id="figure_1">
  <g id="patch_1">
   <path d="M 0 345.6 
L 460.8 345.6 
L 460.8 0 
L 0 0 
z
" style="fill: #ffffff"/>
  </g>
  <g id="axes_1">
   <g id="patch_2">
    <path d="M 57.6 307.584 
L 414.72 307.584 
L 414.72 41.472 
L 57.6 41.472 
z
" style="fill: #ffffff"/>
   </g>
   <g id="matplotlib.axis_1">
    <g id="xtick_1">
     <g id="line2d_1">
      <defs>
       <path id="m5709895b63" d="M 0 0 
L 0 3.5 
" style="stroke: #000000; stroke-width: 0.8"/>
      </defs>
      <g>
       <use xlink:href="#m5709895b63" x="73.832727" y="307.584" style="stroke: #000000; stroke-width: 0.8"/>
      </g>
     </g>
     <g id="text_1">
      <!-- 0 -->
      <g transform="translate(70.651477 322.182437) scale(0.1 -0.1)">
       <defs>
        <path id="DejaVuSans-30" d="M 2034 4250 
Q 1547 4250 1301 3770 
Q 1056 3291 1056 2328 
Q 1056 1369 1301 889 
Q 1547 409 2034 409 
Q 2525 409 2770 889 
Q 3016 1369 3016 2328 
Q 3016 3291 2770 3770 
Q 2525 4250 2034 4250 
z
M 2034 4750 
Q 2819 4750 3233 4129 
Q 3647 3509 3647 2328 
Q 3647 1150 3233 529 
Q 2819 -91 2034 -91 
Q 1250 -91 836 529 
Q 422 1150 422 2328 
Q 422 3509 836 4129 
Q 1250 4750 2034 4750 
z
" transform="scale(0.015625)"/>
       </defs>
       <use xlink:href="#DejaVuSans-30"/>
      </g>
     </g>
    </g>
    <g id="xtick_2">
     <g id="line2d_2">
      <g>
       <use xlink:href="#m5709895b63" x="139.419504" y="307.584" style="stroke: #000000; stroke-width: 0.8"/>
      </g>
     </g>
     <g id="text_2">
      <!-- 20 -->
      <g transform="translate(133.057004 322.182437) scale(0.1 -0.1)">
       <defs>
        <path id="DejaVuSans-32" d="M 1228 531 
L 3431 531 
L 3431 0 
L 469 0 
L 469 531 
Q 828 903 1448 1529 
Q 2069 2156 2228 2338 
Q 2531 2678 2651 2914 
Q 2772 3150 2772 3378 
Q 2772 3750 2511 3984 
Q 2250 4219 1831 4219 
Q 1534 4219 1204 4116 
Q 875 4013 500 3803 
L 500 4441 
Q 881 4594 1212 4672 
Q 1544 4750 1819 4750 
Q 2544 4750 2975 4387 
Q 3406 4025 3406 3419 
Q 3406 3131 3298 2873 
Q 3191 2616 2906 2266 
Q 2828 2175 2409 1742 
Q 1991 1309 1228 531 
z
" transform="scale(0.015625)"/>
       </defs>
       <use xlink:href="#DejaVuSans-32"/>
       <use xlink:href="#DejaVuSans-30" x="63.623047"/>
      </g>
     </g>
    </g>
    <g id="xtick_3">
     <g id="line2d_3">
      <g>
       <use xlink:href="#m5709895b63" x="205.006281" y="307.584" style="stroke: #000000; stroke-width: 0.8"/>
      </g>
     </g>
     <g id="text_3">
      <!-- 40 -->
      <g transform="translate(198.643781 322.182437) scale(0.1 -0.1)">
       <defs>
        <path id="DejaVuSans-34" d="M 2419 4116 
L 825 1625 
L 2419 1625 
L 2419 4116 
z
M 2253 4666 
L 3047 4666 
L 3047 1625 
L 3713 1625 
L 3713 1100 
L 3047 1100 
L 3047 0 
L 2419 0 
L 2419 1100 
L 313 1100 
L 313 1709 
L 2253 4666 
z
" transform="scale(0.015625)"/>
       </defs>
       <use xlink:href="#DejaVuSans-34"/>
       <use xlink:href="#DejaVuSans-30" x="63.623047"/>
      </g>
     </g>
    </g>
    <g id="xtick_4">
     <g id="line2d_4">
      <g>
       <use xlink:href="#m5709895b63" x="270.593058" y="307.584" style="stroke: #000000; stroke-width: 0.8"/>
      </g>
     </g>
     <g id="text_4">
      <!-- 60 -->
      <g transform="translate(264.230558 322.182437) scale(0.1 -0.1)">
       <defs>
        <path id="DejaVuSans-36" d="M 2113 2584 
Q 1688 2584 1439 2293 
Q 1191 2003 1191 1497 
Q 1191 994 1439 701 
Q 1688 409 2113 409 
Q 2538 409 2786 701 
Q 3034 994 3034 1497 
Q 3034 2003 2786 2293 
Q 2538 2584 2113 2584 
z
M 3366 4563 
L 3366 3988 
Q 3128 4100 2886 4159 
Q 2644 4219 2406 4219 
Q 1781 4219 1451 3797 
Q 1122 3375 1075 2522 
Q 1259 2794 1537 2939 
Q 1816 3084 2150 3084 
Q 2853 3084 3261 2657 
Q 3669 2231 3669 1497 
Q 3669 778 3244 343 
Q 2819 -91 2113 -91 
Q 1303 -91 875 529 
Q 447 1150 447 2328 
Q 447 3434 972 4092 
Q 1497 4750 2381 4750 
Q 2619 4750 2861 4703 
Q 3103 4656 3366 4563 
z
" transform="scale(0.015625)"/>
       </defs>
       <use xlink:href="#DejaVuSans-36"/>
       <use xlink:href="#DejaVuSans-30" x="63.623047"/>
      </g>
     </g>
    </g>
    <g id="xtick_5">
     <g id="line2d_5">
      <g>
       <use xlink:href="#m5709895b63" x="336.179835" y="307.584" style="stroke: #000000; stroke-width: 0.8"/>
      </g>
     </g>
     <g id="text_5">
      <!-- 80 -->
      <g transform="translate(329.817335 322.182437) scale(0.1 -0.1)">
       <defs>
        <path id="DejaVuSans-38" d="M 2034 2216 
Q 1584 2216 1326 1975 
Q 1069 1734 1069 1313 
Q 1069 891 1326 650 
Q 1584 409 2034 409 
Q 2484 409 2743 651 
Q 3003 894 3003 1313 
Q 3003 1734 2745 1975 
Q 2488 2216 2034 2216 
z
M 1403 2484 
Q 997 2584 770 2862 
Q 544 3141 544 3541 
Q 544 4100 942 4425 
Q 1341 4750 2034 4750 
Q 2731 4750 3128 4425 
Q 3525 4100 3525 3541 
Q 3525 3141 3298 2862 
Q 3072 2584 2669 2484 
Q 3125 2378 3379 2068 
Q 3634 1759 3634 1313 
Q 3634 634 3220 271 
Q 2806 -91 2034 -91 
Q 1263 -91 848 271 
Q 434 634 434 1313 
Q 434 1759 690 2068 
Q 947 2378 1403 2484 
z
M 1172 3481 
Q 1172 3119 1398 2916 
Q 1625 2713 2034 2713 
Q 2441 2713 2670 2916 
Q 2900 3119 2900 3481 
Q 2900 3844 2670 4047 
Q 2441 4250 2034 4250 
Q 1625 4250 1398 4047 
Q 1172 3844 1172 3481 
z
" transform="scale(0.015625)"/>
       </defs>
       <use xlink:href="#DejaVuSans-38"/>
       <use xlink:href="#DejaVuSans-30" x="63.623047"/>
      </g>
     </g>
    </g>
    <g id="xtick_6">
     <g id="line2d_6">
      <g>
       <use xlink:href="#m5709895b63" x="401.766612" y="307.584" style="stroke: #000000; stroke-width: 0.8"/>
      </g>
     </g>
     <g id="text_6">
      <!-- 100 -->
      <g transform="translate(392.222862 322.182437) scale(0.1 -0.1)">
       <defs>
        <path id="DejaVuSans-31" d="M 794 531 
L 1825 531 
L 1825 4091 
L 703 3866 
L 703 4441 
L 1819 4666 
L 2450 4666 
L 2450 531 
L 3481 531 
L 3481 0 
L 794 0 
L 794 531 
z
" transform="scale(0.015625)"/>
       </defs>
       <use xlink:href="#DejaVuSans-31"/>
       <use xlink:href="#DejaVuSans-30" x="63.623047"/>
       <use xlink:href="#DejaVuSans-30" x="127.246094"/>
      </g>
     </g>
    </g>
    <g id="text_7">
     <!-- epoch -->
     <g transform="translate(220.931875 335.860562) scale(0.1 -0.1)">
      <defs>
       <path id="DejaVuSans-65" d="M 3597 1894 
L 3597 1613 
L 953 1613 
Q 991 1019 1311 708 
Q 1631 397 2203 397 
Q 2534 397 2845 478 
Q 3156 559 3463 722 
L 3463 178 
Q 3153 47 2828 -22 
Q 2503 -91 2169 -91 
Q 1331 -91 842 396 
Q 353 884 353 1716 
Q 353 2575 817 3079 
Q 1281 3584 2069 3584 
Q 2775 3584 3186 3129 
Q 3597 2675 3597 1894 
z
M 3022 2063 
Q 3016 2534 2758 2815 
Q 2500 3097 2075 3097 
Q 1594 3097 1305 2825 
Q 1016 2553 972 2059 
L 3022 2063 
z
" transform="scale(0.015625)"/>
       <path id="DejaVuSans-70" d="M 1159 525 
L 1159 -1331 
L 581 -1331 
L 581 3500 
L 1159 3500 
L 1159 2969 
Q 1341 3281 1617 3432 
Q 1894 3584 2278 3584 
Q 2916 3584 3314 3078 
Q 3713 2572 3713 1747 
Q 3713 922 3314 415 
Q 2916 -91 2278 -91 
Q 1894 -91 1617 61 
Q 1341 213 1159 525 
z
M 3116 1747 
Q 3116 2381 2855 2742 
Q 2594 3103 2138 3103 
Q 1681 3103 1420 2742 
Q 1159 2381 1159 1747 
Q 1159 1113 1420 752 
Q 1681 391 2138 391 
Q 2594 391 2855 752 
Q 3116 1113 3116 1747 
z
" transform="scale(0.015625)"/>
       <path id="DejaVuSans-6f" d="M 1959 3097 
Q 1497 3097 1228 2736 
Q 959 2375 959 1747 
Q 959 1119 1226 758 
Q 1494 397 1959 397 
Q 2419 397 2687 759 
Q 2956 1122 2956 1747 
Q 2956 2369 2687 2733 
Q 2419 3097 1959 3097 
z
M 1959 3584 
Q 2709 3584 3137 3096 
Q 3566 2609 3566 1747 
Q 3566 888 3137 398 
Q 2709 -91 1959 -91 
Q 1206 -91 779 398 
Q 353 888 353 1747 
Q 353 2609 779 3096 
Q 1206 3584 1959 3584 
z
" transform="scale(0.015625)"/>
       <path id="DejaVuSans-63" d="M 3122 3366 
L 3122 2828 
Q 2878 2963 2633 3030 
Q 2388 3097 2138 3097 
Q 1578 3097 1268 2742 
Q 959 2388 959 1747 
Q 959 1106 1268 751 
Q 1578 397 2138 397 
Q 2388 397 2633 464 
Q 2878 531 3122 666 
L 3122 134 
Q 2881 22 2623 -34 
Q 2366 -91 2075 -91 
Q 1284 -91 818 406 
Q 353 903 353 1747 
Q 353 2603 823 3093 
Q 1294 3584 2113 3584 
Q 2378 3584 2631 3529 
Q 2884 3475 3122 3366 
z
" transform="scale(0.015625)"/>
       <path id="DejaVuSans-68" d="M 3513 2113 
L 3513 0 
L 2938 0 
L 2938 2094 
Q 2938 2591 2744 2837 
Q 2550 3084 2163 3084 
Q 1697 3084 1428 2787 
Q 1159 2491 1159 1978 
L 1159 0 
L 581 0 
L 581 4863 
L 1159 4863 
L 1159 2956 
Q 1366 3272 1645 3428 
Q 1925 3584 2291 3584 
Q 2894 3584 3203 3211 
Q 3513 2838 3513 2113 
z
" transform="scale(0.015625)"/>
      </defs>
      <use xlink:href="#DejaVuSans-65"/>
      <use xlink:href="#DejaVuSans-70" x="61.523438"/>
      <use xlink:href="#DejaVuSans-6f" x="125"/>
      <use xlink:href="#DejaVuSans-63" x="186.181641"/>
      <use xlink:href="#DejaVuSans-68" x="241.162109"/>
     </g>
    </g>
   </g>
   <g id="matplotlib.axis_2">
    <g id="ytick_1">
     <g id="line2d_7">
      <defs>
       <path id="mc3f5314964" d="M 0 0 
L -3.5 0 
" style="stroke: #000000; stroke-width: 0.8"/>
      </defs>
      <g>
       <use xlink:href="#mc3f5314964" x="57.6" y="307.584" style="stroke: #000000; stroke-width: 0.8"/>
      </g>
     </g>
     <g id="text_8">
      <!-- 80 -->
      <g transform="translate(37.875 311.383219) scale(0.1 -0.1)">
       <use xlink:href="#DejaVuSans-38"/>
       <use xlink:href="#DejaVuSans-30" x="63.623047"/>
      </g>
     </g>
    </g>
    <g id="ytick_2">
     <g id="line2d_8">
      <g>
       <use xlink:href="#mc3f5314964" x="57.6" y="254.3616" style="stroke: #000000; stroke-width: 0.8"/>
      </g>
     </g>
     <g id="text_9">
      <!-- 85 -->
      <g transform="translate(37.875 258.160819) scale(0.1 -0.1)">
       <defs>
        <path id="DejaVuSans-35" d="M 691 4666 
L 3169 4666 
L 3169 4134 
L 1269 4134 
L 1269 2991 
Q 1406 3038 1543 3061 
Q 1681 3084 1819 3084 
Q 2600 3084 3056 2656 
Q 3513 2228 3513 1497 
Q 3513 744 3044 326 
Q 2575 -91 1722 -91 
Q 1428 -91 1123 -41 
Q 819 9 494 109 
L 494 744 
Q 775 591 1075 516 
Q 1375 441 1709 441 
Q 2250 441 2565 725 
Q 2881 1009 2881 1497 
Q 2881 1984 2565 2268 
Q 2250 2553 1709 2553 
Q 1456 2553 1204 2497 
Q 953 2441 691 2322 
L 691 4666 
z
" transform="scale(0.015625)"/>
       </defs>
       <use xlink:href="#DejaVuSans-38"/>
       <use xlink:href="#DejaVuSans-35" x="63.623047"/>
      </g>
     </g>
    </g>
    <g id="ytick_3">
     <g id="line2d_9">
      <g>
       <use xlink:href="#mc3f5314964" x="57.6" y="201.1392" style="stroke: #000000; stroke-width: 0.8"/>
      </g>
     </g>
     <g id="text_10">
      <!-- 90 -->
      <g transform="translate(37.875 204.938419) scale(0.1 -0.1)">
       <defs>
        <path id="DejaVuSans-39" d="M 703 97 
L 703 672 
Q 941 559 1184 500 
Q 1428 441 1663 441 
Q 2288 441 2617 861 
Q 2947 1281 2994 2138 
Q 2813 1869 2534 1725 
Q 2256 1581 1919 1581 
Q 1219 1581 811 2004 
Q 403 2428 403 3163 
Q 403 3881 828 4315 
Q 1253 4750 1959 4750 
Q 2769 4750 3195 4129 
Q 3622 3509 3622 2328 
Q 3622 1225 3098 567 
Q 2575 -91 1691 -91 
Q 1453 -91 1209 -44 
Q 966 3 703 97 
z
M 1959 2075 
Q 2384 2075 2632 2365 
Q 2881 2656 2881 3163 
Q 2881 3666 2632 3958 
Q 2384 4250 1959 4250 
Q 1534 4250 1286 3958 
Q 1038 3666 1038 3163 
Q 1038 2656 1286 2365 
Q 1534 2075 1959 2075 
z
" transform="scale(0.015625)"/>
       </defs>
       <use xlink:href="#DejaVuSans-39"/>
       <use xlink:href="#DejaVuSans-30" x="63.623047"/>
      </g>
     </g>
    </g>
    <g id="ytick_4">
     <g id="line2d_10">
      <g>
       <use xlink:href="#mc3f5314964" x="57.6" y="147.9168" style="stroke: #000000; stroke-width: 0.8"/>
      </g>
     </g>
     <g id="text_11">
      <!-- 95 -->
      <g transform="translate(37.875 151.716019) scale(0.1 -0.1)">
       <use xlink:href="#DejaVuSans-39"/>
       <use xlink:href="#DejaVuSans-35" x="63.623047"/>
      </g>
     </g>
    </g>
    <g id="ytick_5">
     <g id="line2d_11">
      <g>
       <use xlink:href="#mc3f5314964" x="57.6" y="94.6944" style="stroke: #000000; stroke-width: 0.8"/>
      </g>
     </g>
     <g id="text_12">
      <!-- 100 -->
      <g transform="translate(31.5125 98.493619) scale(0.1 -0.1)">
       <use xlink:href="#DejaVuSans-31"/>
       <use xlink:href="#DejaVuSans-30" x="63.623047"/>
       <use xlink:href="#DejaVuSans-30" x="127.246094"/>
      </g>
     </g>
    </g>
    <g id="ytick_6">
     <g id="line2d_12">
      <g>
       <use xlink:href="#mc3f5314964" x="57.6" y="41.472" style="stroke: #000000; stroke-width: 0.8"/>
      </g>
     </g>
     <g id="text_13">
      <!-- 105 -->
      <g transform="translate(31.5125 45.271219) scale(0.1 -0.1)">
       <use xlink:href="#DejaVuSans-31"/>
       <use xlink:href="#DejaVuSans-30" x="63.623047"/>
       <use xlink:href="#DejaVuSans-35" x="127.246094"/>
      </g>
     </g>
    </g>
    <g id="text_14">
     <!-- valid mAP -->
     <g transform="translate(25.432812 199.398313) rotate(-90) scale(0.1 -0.1)">
      <defs>
       <path id="DejaVuSans-76" d="M 191 3500 
L 800 3500 
L 1894 563 
L 2988 3500 
L 3597 3500 
L 2284 0 
L 1503 0 
L 191 3500 
z
" transform="scale(0.015625)"/>
       <path id="DejaVuSans-61" d="M 2194 1759 
Q 1497 1759 1228 1600 
Q 959 1441 959 1056 
Q 959 750 1161 570 
Q 1363 391 1709 391 
Q 2188 391 2477 730 
Q 2766 1069 2766 1631 
L 2766 1759 
L 2194 1759 
z
M 3341 1997 
L 3341 0 
L 2766 0 
L 2766 531 
Q 2569 213 2275 61 
Q 1981 -91 1556 -91 
Q 1019 -91 701 211 
Q 384 513 384 1019 
Q 384 1609 779 1909 
Q 1175 2209 1959 2209 
L 2766 2209 
L 2766 2266 
Q 2766 2663 2505 2880 
Q 2244 3097 1772 3097 
Q 1472 3097 1187 3025 
Q 903 2953 641 2809 
L 641 3341 
Q 956 3463 1253 3523 
Q 1550 3584 1831 3584 
Q 2591 3584 2966 3190 
Q 3341 2797 3341 1997 
z
" transform="scale(0.015625)"/>
       <path id="DejaVuSans-6c" d="M 603 4863 
L 1178 4863 
L 1178 0 
L 603 0 
L 603 4863 
z
" transform="scale(0.015625)"/>
       <path id="DejaVuSans-69" d="M 603 3500 
L 1178 3500 
L 1178 0 
L 603 0 
L 603 3500 
z
M 603 4863 
L 1178 4863 
L 1178 4134 
L 603 4134 
L 603 4863 
z
" transform="scale(0.015625)"/>
       <path id="DejaVuSans-64" d="M 2906 2969 
L 2906 4863 
L 3481 4863 
L 3481 0 
L 2906 0 
L 2906 525 
Q 2725 213 2448 61 
Q 2172 -91 1784 -91 
Q 1150 -91 751 415 
Q 353 922 353 1747 
Q 353 2572 751 3078 
Q 1150 3584 1784 3584 
Q 2172 3584 2448 3432 
Q 2725 3281 2906 2969 
z
M 947 1747 
Q 947 1113 1208 752 
Q 1469 391 1925 391 
Q 2381 391 2643 752 
Q 2906 1113 2906 1747 
Q 2906 2381 2643 2742 
Q 2381 3103 1925 3103 
Q 1469 3103 1208 2742 
Q 947 2381 947 1747 
z
" transform="scale(0.015625)"/>
       <path id="DejaVuSans-20" transform="scale(0.015625)"/>
       <path id="DejaVuSans-6d" d="M 3328 2828 
Q 3544 3216 3844 3400 
Q 4144 3584 4550 3584 
Q 5097 3584 5394 3201 
Q 5691 2819 5691 2113 
L 5691 0 
L 5113 0 
L 5113 2094 
Q 5113 2597 4934 2840 
Q 4756 3084 4391 3084 
Q 3944 3084 3684 2787 
Q 3425 2491 3425 1978 
L 3425 0 
L 2847 0 
L 2847 2094 
Q 2847 2600 2669 2842 
Q 2491 3084 2119 3084 
Q 1678 3084 1418 2786 
Q 1159 2488 1159 1978 
L 1159 0 
L 581 0 
L 581 3500 
L 1159 3500 
L 1159 2956 
Q 1356 3278 1631 3431 
Q 1906 3584 2284 3584 
Q 2666 3584 2933 3390 
Q 3200 3197 3328 2828 
z
" transform="scale(0.015625)"/>
       <path id="DejaVuSans-41" d="M 2188 4044 
L 1331 1722 
L 3047 1722 
L 2188 4044 
z
M 1831 4666 
L 2547 4666 
L 4325 0 
L 3669 0 
L 3244 1197 
L 1141 1197 
L 716 0 
L 50 0 
L 1831 4666 
z
" transform="scale(0.015625)"/>
       <path id="DejaVuSans-50" d="M 1259 4147 
L 1259 2394 
L 2053 2394 
Q 2494 2394 2734 2622 
Q 2975 2850 2975 3272 
Q 2975 3691 2734 3919 
Q 2494 4147 2053 4147 
L 1259 4147 
z
M 628 4666 
L 2053 4666 
Q 2838 4666 3239 4311 
Q 3641 3956 3641 3272 
Q 3641 2581 3239 2228 
Q 2838 1875 2053 1875 
L 1259 1875 
L 1259 0 
L 628 0 
L 628 4666 
z
" transform="scale(0.015625)"/>
      </defs>
      <use xlink:href="#DejaVuSans-76"/>
      <use xlink:href="#DejaVuSans-61" x="59.179688"/>
      <use xlink:href="#DejaVuSans-6c" x="120.458984"/>
      <use xlink:href="#DejaVuSans-69" x="148.242188"/>
      <use xlink:href="#DejaVuSans-64" x="176.025391"/>
      <use xlink:href="#DejaVuSans-20" x="239.501953"/>
      <use xlink:href="#DejaVuSans-6d" x="271.289062"/>
      <use xlink:href="#DejaVuSans-41" x="368.701172"/>
      <use xlink:href="#DejaVuSans-50" x="437.109375"/>
     </g>
    </g>
   </g>
   <g id="line2d_13">
    <path d="M 73.832727 330.215052 
L 77.112066 306.745253 
L 80.391405 309.87691 
L 83.670744 287.723946 
L 86.950083 286.301862 
L 90.229421 283.846693 
L 93.50876 258.831206 
L 96.788099 297.055327 
L 100.067438 258.125971 
L 103.346777 282.085065 
L 106.626116 278.852788 
L 109.905455 262.388895 
L 113.184793 261.622507 
L 116.464132 250.973074 
L 119.743471 260.166395 
L 123.02281 267.112692 
L 126.302149 253.459103 
L 129.581488 255.515039 
L 132.860826 249.466611 
L 136.140165 253.935649 
L 139.419504 238.100003 
L 142.698843 252.571873 
L 145.978182 245.421575 
L 149.257521 254.100182 
L 152.53686 242.672098 
L 155.816198 241.124867 
L 159.095537 242.40199 
L 162.374876 241.740608 
L 165.654215 241.19016 
L 168.933554 243.967737 
L 172.212893 251.61464 
L 175.492231 245.274502 
L 178.77157 243.627138 
L 182.050909 242.726428 
L 185.330248 250.43294 
L 188.609587 244.949496 
L 191.888926 236.596951 
L 195.168264 239.995142 
L 198.447603 252.983775 
L 201.726942 255.844512 
L 205.006281 237.815602 
L 208.28562 241.89231 
L 211.564959 243.475517 
L 214.844298 245.422875 
L 218.123636 239.482051 
L 221.402975 241.490885 
L 224.682314 245.500675 
L 227.961653 238.387733 
L 231.240992 244.178561 
L 234.520331 246.843985 
L 237.799669 239.615968 
L 241.079008 234.667217 
L 244.358347 235.802627 
L 247.637686 239.276668 
L 250.917025 240.528941 
L 254.196364 248.880268 
L 257.475702 247.644887 
L 260.755041 239.718375 
L 264.03438 243.510113 
L 267.313719 236.670528 
L 270.593058 235.261762 
" clip-path="url(#pf0c8c95b53)" style="fill: none; stroke: #008000; stroke-width: 1.5; stroke-linecap: square"/>
   </g>
   <g id="line2d_14">
    <path d="M 73.832727 319.906542 
L 77.112066 319.875113 
L 80.391405 308.581839 
L 83.670744 289.39275 
L 86.950083 276.353278 
L 90.229421 281.958214 
L 93.50876 270.150306 
L 96.788099 269.463017 
L 100.067438 261.929891 
L 103.346777 261.136947 
L 106.626116 269.515155 
L 109.905455 254.546842 
L 113.184793 251.286629 
L 116.464132 266.713053 
L 119.743471 260.721147 
L 123.02281 258.567758 
L 126.302149 241.310434 
L 129.581488 239.043187 
L 132.860826 254.267964 
L 136.140165 256.002061 
L 139.419504 241.723716 
L 142.698843 248.387236 
L 145.978182 250.563202 
L 149.257521 253.789307 
L 152.53686 238.128264 
L 155.816198 247.155429 
L 159.095537 250.141392 
L 162.374876 256.24545 
L 165.654215 235.95912 
L 168.933554 253.406478 
L 172.212893 254.750194 
L 175.492231 251.710794 
L 178.77157 233.507606 
L 182.050909 244.537432 
L 185.330248 248.379359 
L 188.609587 245.098274 
L 191.888926 232.294964 
L 195.168264 243.932004 
L 198.447603 247.299903 
L 201.726942 236.375164 
L 205.006281 229.632626 
L 208.28562 238.778683 
L 211.564959 233.57696 
L 214.844298 242.781408 
L 218.123636 241.793477 
L 221.402975 233.394398 
L 224.682314 238.531152 
L 227.961653 245.959435 
L 231.240992 235.516033 
L 234.520331 243.77616 
L 237.799669 235.008465 
L 241.079008 236.698221 
L 244.358347 230.297337 
L 247.637686 234.30128 
L 250.917025 235.297414 
L 254.196364 236.413577 
L 257.475702 235.404693 
L 260.755041 232.117031 
L 264.03438 237.00999 
L 267.313719 243.360685 
L 270.593058 227.751699 
L 273.872397 226.45273 
L 277.151736 231.394741 
L 280.431074 235.506532 
L 283.710413 227.02608 
L 286.989752 233.888647 
L 290.269091 235.263061 
L 293.54843 236.434692 
L 296.827769 223.154754 
L 300.107107 233.42607 
L 303.386446 230.419073 
L 306.665785 230.70729 
L 309.945124 225.166024 
L 313.224463 232.068061 
L 316.503802 233.07467 
L 319.78314 229.457048 
L 323.062479 227.770865 
L 326.341818 230.274192 
L 329.621157 230.81189 
L 332.900496 225.903663 
L 336.179835 226.886884 
L 339.459174 230.103 
L 342.738512 232.779225 
L 346.017851 237.287731 
L 349.29719 228.839845 
L 352.576529 228.671982 
L 355.855868 226.951609 
L 359.135207 225.198834 
L 362.414545 226.31922 
L 365.693884 227.928658 
L 368.973223 232.521055 
L 372.252562 232.578553 
L 375.531901 223.759045 
L 378.81124 227.3078 
L 382.090579 226.76994 
L 385.369917 228.305071 
L 388.649256 225.695926 
L 391.928595 226.992458 
L 395.207934 229.95747 
L 398.487273 231.592489 
" clip-path="url(#pf0c8c95b53)" style="fill: none; stroke: #800080; stroke-width: 1.5; stroke-linecap: square"/>
   </g>
   <g id="line2d_15">
    <path d="M 75.533276 346.6 
L 77.112066 310.775996 
L 80.391405 306.373957 
L 83.670744 286.344579 
L 86.950083 271.738792 
L 90.229421 288.793088 
L 93.50876 270.492935 
L 96.788099 279.801657 
L 100.067438 257.930821 
L 103.346777 280.821423 
L 106.626116 270.525013 
L 109.905455 273.637666 
L 113.184793 266.740096 
L 116.464132 247.834596 
L 119.743471 258.546237 
L 123.02281 259.122185 
L 126.302149 253.336068 
L 129.581488 246.57607 
L 132.860826 258.565484 
L 136.140165 257.119361 
L 139.419504 254.824096 
L 142.698843 242.380875 
L 145.978182 254.507049 
L 149.257521 263.531777 
L 152.53686 228.123321 
L 155.816198 237.546794 
L 159.095537 237.814059 
L 162.374876 238.752452 
L 165.654215 226.65592 
L 168.933554 237.127015 
L 172.212893 246.422175 
L 175.492231 238.728738 
L 178.77157 222.807171 
L 182.050909 228.781941 
L 185.330248 242.911183 
L 188.609587 244.124068 
L 191.888926 223.992851 
L 195.168264 222.630213 
L 198.447603 231.077612 
L 201.726942 231.688481 
L 205.006281 224.954307 
L 208.28562 225.517586 
L 211.564959 223.290945 
L 214.844298 230.418504 
L 218.123636 220.798256 
L 221.402975 227.797584 
L 224.682314 226.361206 
L 227.961653 230.068323 
L 231.240992 218.805178 
L 234.520331 225.895136 
L 237.799669 226.857811 
L 241.079008 225.447664 
L 244.358347 214.464291 
L 247.637686 218.472456 
L 250.917025 220.654757 
L 254.196364 226.437706 
L 257.475702 214.092588 
L 260.755041 215.818808 
L 264.03438 218.667119 
L 267.313719 216.825336 
L 270.593058 213.260988 
L 273.872397 214.067738 
L 277.151736 216.115715 
L 280.431074 218.806721 
L 283.710413 213.278124 
L 286.989752 217.433525 
L 290.269091 218.280717 
L 293.54843 217.750897 
L 296.827769 207.935825 
L 300.107107 213.959646 
L 303.386446 215.507445 
L 306.665785 214.661227 
L 309.945124 208.229646 
L 313.224463 215.640631 
L 316.503802 214.260451 
L 319.78314 217.836575 
L 323.062479 207.947438 
L 326.341818 213.163941 
L 329.621157 211.67031 
L 332.900496 214.894709 
L 336.179835 208.798285 
L 339.459174 210.921301 
L 342.738512 212.324788 
L 346.017851 213.144126 
L 349.29719 207.401294 
L 352.576529 211.122785 
L 355.855868 209.849073 
L 359.135207 212.964568 
L 362.414545 207.544469 
L 365.693884 209.846231 
L 368.973223 208.713419 
L 372.252562 210.96548 
L 375.531901 207.180482 
L 378.81124 208.501215 
L 382.090579 213.122767 
L 385.369917 211.427732 
L 388.649256 207.675219 
L 391.928595 207.202733 
L 395.207934 214.329562 
L 398.487273 214.392906 
" clip-path="url(#pf0c8c95b53)" style="fill: none; stroke: #ff0000; stroke-width: 1.5; stroke-linecap: square"/>
   </g>
   <g id="line2d_16">
    <path d="M 73.832727 315.596434 
L 77.112066 292.874831 
L 80.391405 298.704234 
L 83.670744 283.037994 
L 86.950083 276.890164 
L 90.229421 261.016918 
L 93.50876 290.016044 
L 96.788099 265.379163 
L 100.067438 260.10565 
L 103.346777 260.062527 
L 106.626116 252.563427 
L 109.905455 274.705346 
L 113.184793 248.971224 
L 116.464132 256.255601 
L 119.743471 252.866588 
L 123.02281 254.699762 
L 126.302149 255.6868 
L 129.581488 251.340878 
L 132.860826 258.142781 
L 136.140165 260.204808 
L 139.419504 246.469521 
L 142.698843 256.593114 
L 145.978182 247.281468 
L 149.257521 249.782765 
L 152.53686 250.404191 
L 155.816198 244.443308 
L 159.095537 255.050594 
L 162.374876 250.6194 
L 165.654215 236.320996 
L 168.933554 254.910017 
L 172.212893 251.347537 
L 175.492231 251.220767 
L 178.77157 249.358763 
L 182.050909 249.472296 
L 185.330248 252.419603 
L 188.609587 254.364442 
L 191.888926 237.803664 
L 195.168264 246.152068 
L 198.447603 246.511101 
L 201.726942 248.369695 
L 205.006281 245.933204 
L 208.28562 248.48339 
L 211.564959 243.823588 
L 214.844298 251.178212 
L 218.123636 244.592574 
L 221.402975 242.789772 
L 224.682314 246.805816 
L 227.961653 251.375555 
L 231.240992 246.114386 
L 234.520331 244.548233 
L 237.799669 246.438905 
L 241.079008 247.604444 
L 244.358347 241.373535 
L 247.637686 244.161831 
L 250.917025 248.046637 
L 254.196364 252.925953 
L 257.475702 241.741826 
L 260.755041 237.728788 
L 264.03438 244.588107 
L 267.313719 244.337896 
L 270.593058 240.257047 
L 273.872397 246.328945 
L 277.151736 238.211993 
L 280.431074 238.676195 
L 283.710413 237.027856 
L 286.989752 241.237669 
L 290.269091 242.763216 
L 293.54843 248.322998 
L 296.827769 239.568134 
L 300.107107 243.758294 
L 303.386446 243.13768 
L 306.665785 239.394749 
L 309.945124 233.513697 
L 313.224463 240.700215 
L 316.503802 240.474611 
L 319.78314 241.098392 
L 323.062479 236.339594 
L 326.341818 240.074322 
L 329.621157 242.525512 
L 332.900496 239.313944 
L 336.179835 239.686784 
L 339.459174 239.261888 
L 342.738512 232.939048 
L 346.017851 235.154645 
L 349.29719 236.655585 
L 352.576529 234.358615 
L 355.855868 233.160185 
L 359.135207 235.820899 
L 362.414545 229.39882 
L 365.693884 231.840589 
L 368.973223 235.657909 
L 372.252562 234.272532 
L 375.531901 234.579347 
L 378.81124 232.202384 
L 382.090579 235.501334 
L 385.369917 235.673014 
L 388.649256 231.081185 
L 391.928595 236.233695 
L 395.207934 234.6621 
L 398.487273 237.058798 
" clip-path="url(#pf0c8c95b53)" style="fill: none; stroke: #0000ff; stroke-width: 1.5; stroke-linecap: square"/>
   </g>
   <g id="patch_3">
    <path d="M 57.6 307.584 
L 57.6 41.472 
" style="fill: none; stroke: #000000; stroke-width: 0.8; stroke-linejoin: miter; stroke-linecap: square"/>
   </g>
   <g id="patch_4">
    <path d="M 414.72 307.584 
L 414.72 41.472 
" style="fill: none; stroke: #000000; stroke-width: 0.8; stroke-linejoin: miter; stroke-linecap: square"/>
   </g>
   <g id="patch_5">
    <path d="M 57.6 307.584 
L 414.72 307.584 
" style="fill: none; stroke: #000000; stroke-width: 0.8; stroke-linejoin: miter; stroke-linecap: square"/>
   </g>
   <g id="patch_6">
    <path d="M 57.6 41.472 
L 414.72 41.472 
" style="fill: none; stroke: #000000; stroke-width: 0.8; stroke-linejoin: miter; stroke-linecap: square"/>
   </g>
   <g id="text_15">
    <!-- The relation between mAP and total epochs of guest/10 -->
    <g transform="translate(68.745 35.472) scale(0.12 -0.12)">
     <defs>
      <path id="DejaVuSans-54" d="M -19 4666 
L 3928 4666 
L 3928 4134 
L 2272 4134 
L 2272 0 
L 1638 0 
L 1638 4134 
L -19 4134 
L -19 4666 
z
" transform="scale(0.015625)"/>
      <path id="DejaVuSans-72" d="M 2631 2963 
Q 2534 3019 2420 3045 
Q 2306 3072 2169 3072 
Q 1681 3072 1420 2755 
Q 1159 2438 1159 1844 
L 1159 0 
L 581 0 
L 581 3500 
L 1159 3500 
L 1159 2956 
Q 1341 3275 1631 3429 
Q 1922 3584 2338 3584 
Q 2397 3584 2469 3576 
Q 2541 3569 2628 3553 
L 2631 2963 
z
" transform="scale(0.015625)"/>
      <path id="DejaVuSans-74" d="M 1172 4494 
L 1172 3500 
L 2356 3500 
L 2356 3053 
L 1172 3053 
L 1172 1153 
Q 1172 725 1289 603 
Q 1406 481 1766 481 
L 2356 481 
L 2356 0 
L 1766 0 
Q 1100 0 847 248 
Q 594 497 594 1153 
L 594 3053 
L 172 3053 
L 172 3500 
L 594 3500 
L 594 4494 
L 1172 4494 
z
" transform="scale(0.015625)"/>
      <path id="DejaVuSans-6e" d="M 3513 2113 
L 3513 0 
L 2938 0 
L 2938 2094 
Q 2938 2591 2744 2837 
Q 2550 3084 2163 3084 
Q 1697 3084 1428 2787 
Q 1159 2491 1159 1978 
L 1159 0 
L 581 0 
L 581 3500 
L 1159 3500 
L 1159 2956 
Q 1366 3272 1645 3428 
Q 1925 3584 2291 3584 
Q 2894 3584 3203 3211 
Q 3513 2838 3513 2113 
z
" transform="scale(0.015625)"/>
      <path id="DejaVuSans-62" d="M 3116 1747 
Q 3116 2381 2855 2742 
Q 2594 3103 2138 3103 
Q 1681 3103 1420 2742 
Q 1159 2381 1159 1747 
Q 1159 1113 1420 752 
Q 1681 391 2138 391 
Q 2594 391 2855 752 
Q 3116 1113 3116 1747 
z
M 1159 2969 
Q 1341 3281 1617 3432 
Q 1894 3584 2278 3584 
Q 2916 3584 3314 3078 
Q 3713 2572 3713 1747 
Q 3713 922 3314 415 
Q 2916 -91 2278 -91 
Q 1894 -91 1617 61 
Q 1341 213 1159 525 
L 1159 0 
L 581 0 
L 581 4863 
L 1159 4863 
L 1159 2969 
z
" transform="scale(0.015625)"/>
      <path id="DejaVuSans-77" d="M 269 3500 
L 844 3500 
L 1563 769 
L 2278 3500 
L 2956 3500 
L 3675 769 
L 4391 3500 
L 4966 3500 
L 4050 0 
L 3372 0 
L 2619 2869 
L 1863 0 
L 1184 0 
L 269 3500 
z
" transform="scale(0.015625)"/>
      <path id="DejaVuSans-73" d="M 2834 3397 
L 2834 2853 
Q 2591 2978 2328 3040 
Q 2066 3103 1784 3103 
Q 1356 3103 1142 2972 
Q 928 2841 928 2578 
Q 928 2378 1081 2264 
Q 1234 2150 1697 2047 
L 1894 2003 
Q 2506 1872 2764 1633 
Q 3022 1394 3022 966 
Q 3022 478 2636 193 
Q 2250 -91 1575 -91 
Q 1294 -91 989 -36 
Q 684 19 347 128 
L 347 722 
Q 666 556 975 473 
Q 1284 391 1588 391 
Q 1994 391 2212 530 
Q 2431 669 2431 922 
Q 2431 1156 2273 1281 
Q 2116 1406 1581 1522 
L 1381 1569 
Q 847 1681 609 1914 
Q 372 2147 372 2553 
Q 372 3047 722 3315 
Q 1072 3584 1716 3584 
Q 2034 3584 2315 3537 
Q 2597 3491 2834 3397 
z
" transform="scale(0.015625)"/>
      <path id="DejaVuSans-66" d="M 2375 4863 
L 2375 4384 
L 1825 4384 
Q 1516 4384 1395 4259 
Q 1275 4134 1275 3809 
L 1275 3500 
L 2222 3500 
L 2222 3053 
L 1275 3053 
L 1275 0 
L 697 0 
L 697 3053 
L 147 3053 
L 147 3500 
L 697 3500 
L 697 3744 
Q 697 4328 969 4595 
Q 1241 4863 1831 4863 
L 2375 4863 
z
" transform="scale(0.015625)"/>
      <path id="DejaVuSans-67" d="M 2906 1791 
Q 2906 2416 2648 2759 
Q 2391 3103 1925 3103 
Q 1463 3103 1205 2759 
Q 947 2416 947 1791 
Q 947 1169 1205 825 
Q 1463 481 1925 481 
Q 2391 481 2648 825 
Q 2906 1169 2906 1791 
z
M 3481 434 
Q 3481 -459 3084 -895 
Q 2688 -1331 1869 -1331 
Q 1566 -1331 1297 -1286 
Q 1028 -1241 775 -1147 
L 775 -588 
Q 1028 -725 1275 -790 
Q 1522 -856 1778 -856 
Q 2344 -856 2625 -561 
Q 2906 -266 2906 331 
L 2906 616 
Q 2728 306 2450 153 
Q 2172 0 1784 0 
Q 1141 0 747 490 
Q 353 981 353 1791 
Q 353 2603 747 3093 
Q 1141 3584 1784 3584 
Q 2172 3584 2450 3431 
Q 2728 3278 2906 2969 
L 2906 3500 
L 3481 3500 
L 3481 434 
z
" transform="scale(0.015625)"/>
      <path id="DejaVuSans-75" d="M 544 1381 
L 544 3500 
L 1119 3500 
L 1119 1403 
Q 1119 906 1312 657 
Q 1506 409 1894 409 
Q 2359 409 2629 706 
Q 2900 1003 2900 1516 
L 2900 3500 
L 3475 3500 
L 3475 0 
L 2900 0 
L 2900 538 
Q 2691 219 2414 64 
Q 2138 -91 1772 -91 
Q 1169 -91 856 284 
Q 544 659 544 1381 
z
M 1991 3584 
L 1991 3584 
z
" transform="scale(0.015625)"/>
      <path id="DejaVuSans-2f" d="M 1625 4666 
L 2156 4666 
L 531 -594 
L 0 -594 
L 1625 4666 
z
" transform="scale(0.015625)"/>
     </defs>
     <use xlink:href="#DejaVuSans-54"/>
     <use xlink:href="#DejaVuSans-68" x="61.083984"/>
     <use xlink:href="#DejaVuSans-65" x="124.462891"/>
     <use xlink:href="#DejaVuSans-20" x="185.986328"/>
     <use xlink:href="#DejaVuSans-72" x="217.773438"/>
     <use xlink:href="#DejaVuSans-65" x="256.636719"/>
     <use xlink:href="#DejaVuSans-6c" x="318.160156"/>
     <use xlink:href="#DejaVuSans-61" x="345.943359"/>
     <use xlink:href="#DejaVuSans-74" x="407.222656"/>
     <use xlink:href="#DejaVuSans-69" x="446.431641"/>
     <use xlink:href="#DejaVuSans-6f" x="474.214844"/>
     <use xlink:href="#DejaVuSans-6e" x="535.396484"/>
     <use xlink:href="#DejaVuSans-20" x="598.775391"/>
     <use xlink:href="#DejaVuSans-62" x="630.5625"/>
     <use xlink:href="#DejaVuSans-65" x="694.039062"/>
     <use xlink:href="#DejaVuSans-74" x="755.5625"/>
     <use xlink:href="#DejaVuSans-77" x="794.771484"/>
     <use xlink:href="#DejaVuSans-65" x="876.558594"/>
     <use xlink:href="#DejaVuSans-65" x="938.082031"/>
     <use xlink:href="#DejaVuSans-6e" x="999.605469"/>
     <use xlink:href="#DejaVuSans-20" x="1062.984375"/>
     <use xlink:href="#DejaVuSans-6d" x="1094.771484"/>
     <use xlink:href="#DejaVuSans-41" x="1192.183594"/>
     <use xlink:href="#DejaVuSans-50" x="1260.591797"/>
     <use xlink:href="#DejaVuSans-20" x="1320.894531"/>
     <use xlink:href="#DejaVuSans-61" x="1352.681641"/>
     <use xlink:href="#DejaVuSans-6e" x="1413.960938"/>
     <use xlink:href="#DejaVuSans-64" x="1477.339844"/>
     <use xlink:href="#DejaVuSans-20" x="1540.816406"/>
     <use xlink:href="#DejaVuSans-74" x="1572.603516"/>
     <use xlink:href="#DejaVuSans-6f" x="1611.8125"/>
     <use xlink:href="#DejaVuSans-74" x="1672.994141"/>
     <use xlink:href="#DejaVuSans-61" x="1712.203125"/>
     <use xlink:href="#DejaVuSans-6c" x="1773.482422"/>
     <use xlink:href="#DejaVuSans-20" x="1801.265625"/>
     <use xlink:href="#DejaVuSans-65" x="1833.052734"/>
     <use xlink:href="#DejaVuSans-70" x="1894.576172"/>
     <use xlink:href="#DejaVuSans-6f" x="1958.052734"/>
     <use xlink:href="#DejaVuSans-63" x="2019.234375"/>
     <use xlink:href="#DejaVuSans-68" x="2074.214844"/>
     <use xlink:href="#DejaVuSans-73" x="2137.59375"/>
     <use xlink:href="#DejaVuSans-20" x="2189.693359"/>
     <use xlink:href="#DejaVuSans-6f" x="2221.480469"/>
     <use xlink:href="#DejaVuSans-66" x="2282.662109"/>
     <use xlink:href="#DejaVuSans-20" x="2317.867188"/>
     <use xlink:href="#DejaVuSans-67" x="2349.654297"/>
     <use xlink:href="#DejaVuSans-75" x="2413.130859"/>
     <use xlink:href="#DejaVuSans-65" x="2476.509766"/>
     <use xlink:href="#DejaVuSans-73" x="2538.033203"/>
     <use xlink:href="#DejaVuSans-74" x="2590.132812"/>
     <use xlink:href="#DejaVuSans-2f" x="2629.341797"/>
     <use xlink:href="#DejaVuSans-31" x="2663.033203"/>
     <use xlink:href="#DejaVuSans-30" x="2726.65625"/>
    </g>
   </g>
   <g id="legend_1">
    <g id="patch_7">
     <path d="M 294.848125 109.297 
L 407.72 109.297 
Q 409.72 109.297 409.72 107.297 
L 409.72 48.472 
Q 409.72 46.472 407.72 46.472 
L 294.848125 46.472 
Q 292.848125 46.472 292.848125 48.472 
L 292.848125 107.297 
Q 292.848125 109.297 294.848125 109.297 
z
" style="fill: #ffffff; opacity: 0.8; stroke: #cccccc; stroke-linejoin: miter"/>
    </g>
    <g id="line2d_17">
     <path d="M 296.848125 54.570437 
L 306.848125 54.570437 
L 316.848125 54.570437 
" style="fill: none; stroke: #008000; stroke-width: 1.5; stroke-linecap: square"/>
    </g>
    <g id="text_16">
     <!-- dep_graph -->
     <g transform="translate(324.848125 58.070437) scale(0.1 -0.1)">
      <defs>
       <path id="DejaVuSans-5f" d="M 3263 -1063 
L 3263 -1509 
L -63 -1509 
L -63 -1063 
L 3263 -1063 
z
" transform="scale(0.015625)"/>
      </defs>
      <use xlink:href="#DejaVuSans-64"/>
      <use xlink:href="#DejaVuSans-65" x="63.476562"/>
      <use xlink:href="#DejaVuSans-70" x="125"/>
      <use xlink:href="#DejaVuSans-5f" x="188.476562"/>
      <use xlink:href="#DejaVuSans-67" x="238.476562"/>
      <use xlink:href="#DejaVuSans-72" x="301.953125"/>
      <use xlink:href="#DejaVuSans-61" x="343.066406"/>
      <use xlink:href="#DejaVuSans-70" x="404.345703"/>
      <use xlink:href="#DejaVuSans-68" x="467.822266"/>
     </g>
    </g>
    <g id="line2d_18">
     <path d="M 296.848125 69.526687 
L 306.848125 69.526687 
L 316.848125 69.526687 
" style="fill: none; stroke: #800080; stroke-width: 1.5; stroke-linecap: square"/>
    </g>
    <g id="text_17">
     <!-- dynamic_ratio -->
     <g transform="translate(324.848125 73.026687) scale(0.1 -0.1)">
      <defs>
       <path id="DejaVuSans-79" d="M 2059 -325 
Q 1816 -950 1584 -1140 
Q 1353 -1331 966 -1331 
L 506 -1331 
L 506 -850 
L 844 -850 
Q 1081 -850 1212 -737 
Q 1344 -625 1503 -206 
L 1606 56 
L 191 3500 
L 800 3500 
L 1894 763 
L 2988 3500 
L 3597 3500 
L 2059 -325 
z
" transform="scale(0.015625)"/>
      </defs>
      <use xlink:href="#DejaVuSans-64"/>
      <use xlink:href="#DejaVuSans-79" x="63.476562"/>
      <use xlink:href="#DejaVuSans-6e" x="122.65625"/>
      <use xlink:href="#DejaVuSans-61" x="186.035156"/>
      <use xlink:href="#DejaVuSans-6d" x="247.314453"/>
      <use xlink:href="#DejaVuSans-69" x="344.726562"/>
      <use xlink:href="#DejaVuSans-63" x="372.509766"/>
      <use xlink:href="#DejaVuSans-5f" x="427.490234"/>
      <use xlink:href="#DejaVuSans-72" x="477.490234"/>
      <use xlink:href="#DejaVuSans-61" x="518.603516"/>
      <use xlink:href="#DejaVuSans-74" x="579.882812"/>
      <use xlink:href="#DejaVuSans-69" x="619.091797"/>
      <use xlink:href="#DejaVuSans-6f" x="646.875"/>
     </g>
    </g>
    <g id="line2d_19">
     <path d="M 296.848125 84.482937 
L 306.848125 84.482937 
L 316.848125 84.482937 
" style="fill: none; stroke: #ff0000; stroke-width: 1.5; stroke-linecap: square"/>
    </g>
    <g id="text_18">
     <!-- fixed_ratio_drop -->
     <g transform="translate(324.848125 87.982937) scale(0.1 -0.1)">
      <defs>
       <path id="DejaVuSans-78" d="M 3513 3500 
L 2247 1797 
L 3578 0 
L 2900 0 
L 1881 1375 
L 863 0 
L 184 0 
L 1544 1831 
L 300 3500 
L 978 3500 
L 1906 2253 
L 2834 3500 
L 3513 3500 
z
" transform="scale(0.015625)"/>
      </defs>
      <use xlink:href="#DejaVuSans-66"/>
      <use xlink:href="#DejaVuSans-69" x="35.205078"/>
      <use xlink:href="#DejaVuSans-78" x="62.988281"/>
      <use xlink:href="#DejaVuSans-65" x="119.042969"/>
      <use xlink:href="#DejaVuSans-64" x="180.566406"/>
      <use xlink:href="#DejaVuSans-5f" x="244.042969"/>
      <use xlink:href="#DejaVuSans-72" x="294.042969"/>
      <use xlink:href="#DejaVuSans-61" x="335.15625"/>
      <use xlink:href="#DejaVuSans-74" x="396.435547"/>
      <use xlink:href="#DejaVuSans-69" x="435.644531"/>
      <use xlink:href="#DejaVuSans-6f" x="463.427734"/>
      <use xlink:href="#DejaVuSans-5f" x="524.609375"/>
      <use xlink:href="#DejaVuSans-64" x="574.609375"/>
      <use xlink:href="#DejaVuSans-72" x="638.085938"/>
      <use xlink:href="#DejaVuSans-6f" x="676.949219"/>
      <use xlink:href="#DejaVuSans-70" x="738.130859"/>
     </g>
    </g>
    <g id="line2d_20">
     <path d="M 296.848125 99.439187 
L 306.848125 99.439187 
L 316.848125 99.439187 
" style="fill: none; stroke: #0000ff; stroke-width: 1.5; stroke-linecap: square"/>
    </g>
    <g id="text_19">
     <!-- fixed_ratio_save -->
     <g transform="translate(324.848125 102.939187) scale(0.1 -0.1)">
      <use xlink:href="#DejaVuSans-66"/>
      <use xlink:href="#DejaVuSans-69" x="35.205078"/>
      <use xlink:href="#DejaVuSans-78" x="62.988281"/>
      <use xlink:href="#DejaVuSans-65" x="119.042969"/>
      <use xlink:href="#DejaVuSans-64" x="180.566406"/>
      <use xlink:href="#DejaVuSans-5f" x="244.042969"/>
      <use xlink:href="#DejaVuSans-72" x="294.042969"/>
      <use xlink:href="#DejaVuSans-61" x="335.15625"/>
      <use xlink:href="#DejaVuSans-74" x="396.435547"/>
      <use xlink:href="#DejaVuSans-69" x="435.644531"/>
      <use xlink:href="#DejaVuSans-6f" x="463.427734"/>
      <use xlink:href="#DejaVuSans-5f" x="524.609375"/>
      <use xlink:href="#DejaVuSans-73" x="574.609375"/>
      <use xlink:href="#DejaVuSans-61" x="626.708984"/>
      <use xlink:href="#DejaVuSans-76" x="687.988281"/>
      <use xlink:href="#DejaVuSans-65" x="747.167969"/>
     </g>
    </g>
   </g>
  </g>
 </g>
 <defs>
  <clipPath id="pf0c8c95b53">
   <rect x="57.6" y="41.472" width="357.12" height="266.112"/>
  </clipPath>
 </defs>
</svg>
