<?xml version="1.0" encoding="utf-8" standalone="no"?>
<!DOCTYPE svg PUBLIC "-//W3C//DTD SVG 1.1//EN"
  "http://www.w3.org/Graphics/SVG/1.1/DTD/svg11.dtd">
<svg xmlns:xlink="http://www.w3.org/1999/xlink" width="460.8pt" height="345.6pt" viewBox="0 0 460.8 345.6" xmlns="http://www.w3.org/2000/svg" version="1.1">
 <metadata>
  <rdf:RDF xmlns:dc="http://purl.org/dc/elements/1.1/" xmlns:cc="http://creativecommons.org/ns#" xmlns:rdf="http://www.w3.org/1999/02/22-rdf-syntax-ns#">
   <cc:Work>
    <dc:type rdf:resource="http://purl.org/dc/dcmitype/StillImage"/>
    <dc:date>2023-10-19T23:02:32.338787</dc:date>
    <dc:format>image/svg+xml</dc:format>
    <dc:creator>
     <cc:Agent>
      <dc:title>Matplotlib v3.7.1, https://matplotlib.org/</dc:title>
     </cc:Agent>
    </dc:creator>
   </cc:Work>
  </rdf:RDF>
 </metadata>
 <defs>
  <style type="text/css">*{stroke-linejoin: round; stroke-linecap: butt}</style>
 </defs>
 <g id="figure_1">
  <g id="patch_1">
   <path d="M 0 345.6 
L 460.8 345.6 
L 460.8 0 
L 0 0 
z
" style="fill: #ffffff"/>
  </g>
  <g id="axes_1">
   <g id="patch_2">
    <path d="M 57.6 307.584 
L 414.72 307.584 
L 414.72 41.472 
L 57.6 41.472 
z
" style="fill: #ffffff"/>
   </g>
   <g id="matplotlib.axis_1">
    <g id="xtick_1">
     <g id="line2d_1">
      <defs>
       <path id="m42b0a3e06f" d="M 0 0 
L 0 3.5 
" style="stroke: #000000; stroke-width: 0.8"/>
      </defs>
      <g>
       <use xlink:href="#m42b0a3e06f" x="73.832727" y="307.584" style="stroke: #000000; stroke-width: 0.8"/>
      </g>
     </g>
     <g id="text_1">
      <!-- 0 -->
      <g transform="translate(70.651477 322.182437) scale(0.1 -0.1)">
       <defs>
        <path id="DejaVuSans-30" d="M 2034 4250 
Q 1547 4250 1301 3770 
Q 1056 3291 1056 2328 
Q 1056 1369 1301 889 
Q 1547 409 2034 409 
Q 2525 409 2770 889 
Q 3016 1369 3016 2328 
Q 3016 3291 2770 3770 
Q 2525 4250 2034 4250 
z
M 2034 4750 
Q 2819 4750 3233 4129 
Q 3647 3509 3647 2328 
Q 3647 1150 3233 529 
Q 2819 -91 2034 -91 
Q 1250 -91 836 529 
Q 422 1150 422 2328 
Q 422 3509 836 4129 
Q 1250 4750 2034 4750 
z
" transform="scale(0.015625)"/>
       </defs>
       <use xlink:href="#DejaVuSans-30"/>
      </g>
     </g>
    </g>
    <g id="xtick_2">
     <g id="line2d_2">
      <g>
       <use xlink:href="#m42b0a3e06f" x="114.669777" y="307.584" style="stroke: #000000; stroke-width: 0.8"/>
      </g>
     </g>
     <g id="text_2">
      <!-- 20 -->
      <g transform="translate(108.307277 322.182437) scale(0.1 -0.1)">
       <defs>
        <path id="DejaVuSans-32" d="M 1228 531 
L 3431 531 
L 3431 0 
L 469 0 
L 469 531 
Q 828 903 1448 1529 
Q 2069 2156 2228 2338 
Q 2531 2678 2651 2914 
Q 2772 3150 2772 3378 
Q 2772 3750 2511 3984 
Q 2250 4219 1831 4219 
Q 1534 4219 1204 4116 
Q 875 4013 500 3803 
L 500 4441 
Q 881 4594 1212 4672 
Q 1544 4750 1819 4750 
Q 2544 4750 2975 4387 
Q 3406 4025 3406 3419 
Q 3406 3131 3298 2873 
Q 3191 2616 2906 2266 
Q 2828 2175 2409 1742 
Q 1991 1309 1228 531 
z
" transform="scale(0.015625)"/>
       </defs>
       <use xlink:href="#DejaVuSans-32"/>
       <use xlink:href="#DejaVuSans-30" x="63.623047"/>
      </g>
     </g>
    </g>
    <g id="xtick_3">
     <g id="line2d_3">
      <g>
       <use xlink:href="#m42b0a3e06f" x="155.506827" y="307.584" style="stroke: #000000; stroke-width: 0.8"/>
      </g>
     </g>
     <g id="text_3">
      <!-- 40 -->
      <g transform="translate(149.144327 322.182437) scale(0.1 -0.1)">
       <defs>
        <path id="DejaVuSans-34" d="M 2419 4116 
L 825 1625 
L 2419 1625 
L 2419 4116 
z
M 2253 4666 
L 3047 4666 
L 3047 1625 
L 3713 1625 
L 3713 1100 
L 3047 1100 
L 3047 0 
L 2419 0 
L 2419 1100 
L 313 1100 
L 313 1709 
L 2253 4666 
z
" transform="scale(0.015625)"/>
       </defs>
       <use xlink:href="#DejaVuSans-34"/>
       <use xlink:href="#DejaVuSans-30" x="63.623047"/>
      </g>
     </g>
    </g>
    <g id="xtick_4">
     <g id="line2d_4">
      <g>
       <use xlink:href="#m42b0a3e06f" x="196.343877" y="307.584" style="stroke: #000000; stroke-width: 0.8"/>
      </g>
     </g>
     <g id="text_4">
      <!-- 60 -->
      <g transform="translate(189.981377 322.182437) scale(0.1 -0.1)">
       <defs>
        <path id="DejaVuSans-36" d="M 2113 2584 
Q 1688 2584 1439 2293 
Q 1191 2003 1191 1497 
Q 1191 994 1439 701 
Q 1688 409 2113 409 
Q 2538 409 2786 701 
Q 3034 994 3034 1497 
Q 3034 2003 2786 2293 
Q 2538 2584 2113 2584 
z
M 3366 4563 
L 3366 3988 
Q 3128 4100 2886 4159 
Q 2644 4219 2406 4219 
Q 1781 4219 1451 3797 
Q 1122 3375 1075 2522 
Q 1259 2794 1537 2939 
Q 1816 3084 2150 3084 
Q 2853 3084 3261 2657 
Q 3669 2231 3669 1497 
Q 3669 778 3244 343 
Q 2819 -91 2113 -91 
Q 1303 -91 875 529 
Q 447 1150 447 2328 
Q 447 3434 972 4092 
Q 1497 4750 2381 4750 
Q 2619 4750 2861 4703 
Q 3103 4656 3366 4563 
z
" transform="scale(0.015625)"/>
       </defs>
       <use xlink:href="#DejaVuSans-36"/>
       <use xlink:href="#DejaVuSans-30" x="63.623047"/>
      </g>
     </g>
    </g>
    <g id="xtick_5">
     <g id="line2d_5">
      <g>
       <use xlink:href="#m42b0a3e06f" x="237.180926" y="307.584" style="stroke: #000000; stroke-width: 0.8"/>
      </g>
     </g>
     <g id="text_5">
      <!-- 80 -->
      <g transform="translate(230.818426 322.182437) scale(0.1 -0.1)">
       <defs>
        <path id="DejaVuSans-38" d="M 2034 2216 
Q 1584 2216 1326 1975 
Q 1069 1734 1069 1313 
Q 1069 891 1326 650 
Q 1584 409 2034 409 
Q 2484 409 2743 651 
Q 3003 894 3003 1313 
Q 3003 1734 2745 1975 
Q 2488 2216 2034 2216 
z
M 1403 2484 
Q 997 2584 770 2862 
Q 544 3141 544 3541 
Q 544 4100 942 4425 
Q 1341 4750 2034 4750 
Q 2731 4750 3128 4425 
Q 3525 4100 3525 3541 
Q 3525 3141 3298 2862 
Q 3072 2584 2669 2484 
Q 3125 2378 3379 2068 
Q 3634 1759 3634 1313 
Q 3634 634 3220 271 
Q 2806 -91 2034 -91 
Q 1263 -91 848 271 
Q 434 634 434 1313 
Q 434 1759 690 2068 
Q 947 2378 1403 2484 
z
M 1172 3481 
Q 1172 3119 1398 2916 
Q 1625 2713 2034 2713 
Q 2441 2713 2670 2916 
Q 2900 3119 2900 3481 
Q 2900 3844 2670 4047 
Q 2441 4250 2034 4250 
Q 1625 4250 1398 4047 
Q 1172 3844 1172 3481 
z
" transform="scale(0.015625)"/>
       </defs>
       <use xlink:href="#DejaVuSans-38"/>
       <use xlink:href="#DejaVuSans-30" x="63.623047"/>
      </g>
     </g>
    </g>
    <g id="xtick_6">
     <g id="line2d_6">
      <g>
       <use xlink:href="#m42b0a3e06f" x="278.017976" y="307.584" style="stroke: #000000; stroke-width: 0.8"/>
      </g>
     </g>
     <g id="text_6">
      <!-- 100 -->
      <g transform="translate(268.474226 322.182437) scale(0.1 -0.1)">
       <defs>
        <path id="DejaVuSans-31" d="M 794 531 
L 1825 531 
L 1825 4091 
L 703 3866 
L 703 4441 
L 1819 4666 
L 2450 4666 
L 2450 531 
L 3481 531 
L 3481 0 
L 794 0 
L 794 531 
z
" transform="scale(0.015625)"/>
       </defs>
       <use xlink:href="#DejaVuSans-31"/>
       <use xlink:href="#DejaVuSans-30" x="63.623047"/>
       <use xlink:href="#DejaVuSans-30" x="127.246094"/>
      </g>
     </g>
    </g>
    <g id="xtick_7">
     <g id="line2d_7">
      <g>
       <use xlink:href="#m42b0a3e06f" x="318.855026" y="307.584" style="stroke: #000000; stroke-width: 0.8"/>
      </g>
     </g>
     <g id="text_7">
      <!-- 120 -->
      <g transform="translate(309.311276 322.182437) scale(0.1 -0.1)">
       <use xlink:href="#DejaVuSans-31"/>
       <use xlink:href="#DejaVuSans-32" x="63.623047"/>
       <use xlink:href="#DejaVuSans-30" x="127.246094"/>
      </g>
     </g>
    </g>
    <g id="xtick_8">
     <g id="line2d_8">
      <g>
       <use xlink:href="#m42b0a3e06f" x="359.692075" y="307.584" style="stroke: #000000; stroke-width: 0.8"/>
      </g>
     </g>
     <g id="text_8">
      <!-- 140 -->
      <g transform="translate(350.148325 322.182437) scale(0.1 -0.1)">
       <use xlink:href="#DejaVuSans-31"/>
       <use xlink:href="#DejaVuSans-34" x="63.623047"/>
       <use xlink:href="#DejaVuSans-30" x="127.246094"/>
      </g>
     </g>
    </g>
    <g id="xtick_9">
     <g id="line2d_9">
      <g>
       <use xlink:href="#m42b0a3e06f" x="400.529125" y="307.584" style="stroke: #000000; stroke-width: 0.8"/>
      </g>
     </g>
     <g id="text_9">
      <!-- 160 -->
      <g transform="translate(390.985375 322.182437) scale(0.1 -0.1)">
       <use xlink:href="#DejaVuSans-31"/>
       <use xlink:href="#DejaVuSans-36" x="63.623047"/>
       <use xlink:href="#DejaVuSans-30" x="127.246094"/>
      </g>
     </g>
    </g>
    <g id="text_10">
     <!-- epoch -->
     <g transform="translate(220.931875 335.860562) scale(0.1 -0.1)">
      <defs>
       <path id="DejaVuSans-65" d="M 3597 1894 
L 3597 1613 
L 953 1613 
Q 991 1019 1311 708 
Q 1631 397 2203 397 
Q 2534 397 2845 478 
Q 3156 559 3463 722 
L 3463 178 
Q 3153 47 2828 -22 
Q 2503 -91 2169 -91 
Q 1331 -91 842 396 
Q 353 884 353 1716 
Q 353 2575 817 3079 
Q 1281 3584 2069 3584 
Q 2775 3584 3186 3129 
Q 3597 2675 3597 1894 
z
M 3022 2063 
Q 3016 2534 2758 2815 
Q 2500 3097 2075 3097 
Q 1594 3097 1305 2825 
Q 1016 2553 972 2059 
L 3022 2063 
z
" transform="scale(0.015625)"/>
       <path id="DejaVuSans-70" d="M 1159 525 
L 1159 -1331 
L 581 -1331 
L 581 3500 
L 1159 3500 
L 1159 2969 
Q 1341 3281 1617 3432 
Q 1894 3584 2278 3584 
Q 2916 3584 3314 3078 
Q 3713 2572 3713 1747 
Q 3713 922 3314 415 
Q 2916 -91 2278 -91 
Q 1894 -91 1617 61 
Q 1341 213 1159 525 
z
M 3116 1747 
Q 3116 2381 2855 2742 
Q 2594 3103 2138 3103 
Q 1681 3103 1420 2742 
Q 1159 2381 1159 1747 
Q 1159 1113 1420 752 
Q 1681 391 2138 391 
Q 2594 391 2855 752 
Q 3116 1113 3116 1747 
z
" transform="scale(0.015625)"/>
       <path id="DejaVuSans-6f" d="M 1959 3097 
Q 1497 3097 1228 2736 
Q 959 2375 959 1747 
Q 959 1119 1226 758 
Q 1494 397 1959 397 
Q 2419 397 2687 759 
Q 2956 1122 2956 1747 
Q 2956 2369 2687 2733 
Q 2419 3097 1959 3097 
z
M 1959 3584 
Q 2709 3584 3137 3096 
Q 3566 2609 3566 1747 
Q 3566 888 3137 398 
Q 2709 -91 1959 -91 
Q 1206 -91 779 398 
Q 353 888 353 1747 
Q 353 2609 779 3096 
Q 1206 3584 1959 3584 
z
" transform="scale(0.015625)"/>
       <path id="DejaVuSans-63" d="M 3122 3366 
L 3122 2828 
Q 2878 2963 2633 3030 
Q 2388 3097 2138 3097 
Q 1578 3097 1268 2742 
Q 959 2388 959 1747 
Q 959 1106 1268 751 
Q 1578 397 2138 397 
Q 2388 397 2633 464 
Q 2878 531 3122 666 
L 3122 134 
Q 2881 22 2623 -34 
Q 2366 -91 2075 -91 
Q 1284 -91 818 406 
Q 353 903 353 1747 
Q 353 2603 823 3093 
Q 1294 3584 2113 3584 
Q 2378 3584 2631 3529 
Q 2884 3475 3122 3366 
z
" transform="scale(0.015625)"/>
       <path id="DejaVuSans-68" d="M 3513 2113 
L 3513 0 
L 2938 0 
L 2938 2094 
Q 2938 2591 2744 2837 
Q 2550 3084 2163 3084 
Q 1697 3084 1428 2787 
Q 1159 2491 1159 1978 
L 1159 0 
L 581 0 
L 581 4863 
L 1159 4863 
L 1159 2956 
Q 1366 3272 1645 3428 
Q 1925 3584 2291 3584 
Q 2894 3584 3203 3211 
Q 3513 2838 3513 2113 
z
" transform="scale(0.015625)"/>
      </defs>
      <use xlink:href="#DejaVuSans-65"/>
      <use xlink:href="#DejaVuSans-70" x="61.523438"/>
      <use xlink:href="#DejaVuSans-6f" x="125"/>
      <use xlink:href="#DejaVuSans-63" x="186.181641"/>
      <use xlink:href="#DejaVuSans-68" x="241.162109"/>
     </g>
    </g>
   </g>
   <g id="matplotlib.axis_2">
    <g id="ytick_1">
     <g id="line2d_10">
      <defs>
       <path id="ma6e1955560" d="M 0 0 
L -3.5 0 
" style="stroke: #000000; stroke-width: 0.8"/>
      </defs>
      <g>
       <use xlink:href="#ma6e1955560" x="57.6" y="297.759894" style="stroke: #000000; stroke-width: 0.8"/>
      </g>
     </g>
     <g id="text_11">
      <!-- 0.0 -->
      <g transform="translate(34.696875 301.559112) scale(0.1 -0.1)">
       <defs>
        <path id="DejaVuSans-2e" d="M 684 794 
L 1344 794 
L 1344 0 
L 684 0 
L 684 794 
z
" transform="scale(0.015625)"/>
       </defs>
       <use xlink:href="#DejaVuSans-30"/>
       <use xlink:href="#DejaVuSans-2e" x="63.623047"/>
       <use xlink:href="#DejaVuSans-30" x="95.410156"/>
      </g>
     </g>
    </g>
    <g id="ytick_2">
     <g id="line2d_11">
      <g>
       <use xlink:href="#ma6e1955560" x="57.6" y="267.734764" style="stroke: #000000; stroke-width: 0.8"/>
      </g>
     </g>
     <g id="text_12">
      <!-- 2.5 -->
      <g transform="translate(34.696875 271.533983) scale(0.1 -0.1)">
       <defs>
        <path id="DejaVuSans-35" d="M 691 4666 
L 3169 4666 
L 3169 4134 
L 1269 4134 
L 1269 2991 
Q 1406 3038 1543 3061 
Q 1681 3084 1819 3084 
Q 2600 3084 3056 2656 
Q 3513 2228 3513 1497 
Q 3513 744 3044 326 
Q 2575 -91 1722 -91 
Q 1428 -91 1123 -41 
Q 819 9 494 109 
L 494 744 
Q 775 591 1075 516 
Q 1375 441 1709 441 
Q 2250 441 2565 725 
Q 2881 1009 2881 1497 
Q 2881 1984 2565 2268 
Q 2250 2553 1709 2553 
Q 1456 2553 1204 2497 
Q 953 2441 691 2322 
L 691 4666 
z
" transform="scale(0.015625)"/>
       </defs>
       <use xlink:href="#DejaVuSans-32"/>
       <use xlink:href="#DejaVuSans-2e" x="63.623047"/>
       <use xlink:href="#DejaVuSans-35" x="95.410156"/>
      </g>
     </g>
    </g>
    <g id="ytick_3">
     <g id="line2d_12">
      <g>
       <use xlink:href="#ma6e1955560" x="57.6" y="237.709634" style="stroke: #000000; stroke-width: 0.8"/>
      </g>
     </g>
     <g id="text_13">
      <!-- 5.0 -->
      <g transform="translate(34.696875 241.508853) scale(0.1 -0.1)">
       <use xlink:href="#DejaVuSans-35"/>
       <use xlink:href="#DejaVuSans-2e" x="63.623047"/>
       <use xlink:href="#DejaVuSans-30" x="95.410156"/>
      </g>
     </g>
    </g>
    <g id="ytick_4">
     <g id="line2d_13">
      <g>
       <use xlink:href="#ma6e1955560" x="57.6" y="207.684505" style="stroke: #000000; stroke-width: 0.8"/>
      </g>
     </g>
     <g id="text_14">
      <!-- 7.5 -->
      <g transform="translate(34.696875 211.483724) scale(0.1 -0.1)">
       <defs>
        <path id="DejaVuSans-37" d="M 525 4666 
L 3525 4666 
L 3525 4397 
L 1831 0 
L 1172 0 
L 2766 4134 
L 525 4134 
L 525 4666 
z
" transform="scale(0.015625)"/>
       </defs>
       <use xlink:href="#DejaVuSans-37"/>
       <use xlink:href="#DejaVuSans-2e" x="63.623047"/>
       <use xlink:href="#DejaVuSans-35" x="95.410156"/>
      </g>
     </g>
    </g>
    <g id="ytick_5">
     <g id="line2d_14">
      <g>
       <use xlink:href="#ma6e1955560" x="57.6" y="177.659375" style="stroke: #000000; stroke-width: 0.8"/>
      </g>
     </g>
     <g id="text_15">
      <!-- 10.0 -->
      <g transform="translate(28.334375 181.458594) scale(0.1 -0.1)">
       <use xlink:href="#DejaVuSans-31"/>
       <use xlink:href="#DejaVuSans-30" x="63.623047"/>
       <use xlink:href="#DejaVuSans-2e" x="127.246094"/>
       <use xlink:href="#DejaVuSans-30" x="159.033203"/>
      </g>
     </g>
    </g>
    <g id="ytick_6">
     <g id="line2d_15">
      <g>
       <use xlink:href="#ma6e1955560" x="57.6" y="147.634246" style="stroke: #000000; stroke-width: 0.8"/>
      </g>
     </g>
     <g id="text_16">
      <!-- 12.5 -->
      <g transform="translate(28.334375 151.433464) scale(0.1 -0.1)">
       <use xlink:href="#DejaVuSans-31"/>
       <use xlink:href="#DejaVuSans-32" x="63.623047"/>
       <use xlink:href="#DejaVuSans-2e" x="127.246094"/>
       <use xlink:href="#DejaVuSans-35" x="159.033203"/>
      </g>
     </g>
    </g>
    <g id="ytick_7">
     <g id="line2d_16">
      <g>
       <use xlink:href="#ma6e1955560" x="57.6" y="117.609116" style="stroke: #000000; stroke-width: 0.8"/>
      </g>
     </g>
     <g id="text_17">
      <!-- 15.0 -->
      <g transform="translate(28.334375 121.408335) scale(0.1 -0.1)">
       <use xlink:href="#DejaVuSans-31"/>
       <use xlink:href="#DejaVuSans-35" x="63.623047"/>
       <use xlink:href="#DejaVuSans-2e" x="127.246094"/>
       <use xlink:href="#DejaVuSans-30" x="159.033203"/>
      </g>
     </g>
    </g>
    <g id="ytick_8">
     <g id="line2d_17">
      <g>
       <use xlink:href="#ma6e1955560" x="57.6" y="87.583986" style="stroke: #000000; stroke-width: 0.8"/>
      </g>
     </g>
     <g id="text_18">
      <!-- 17.5 -->
      <g transform="translate(28.334375 91.383205) scale(0.1 -0.1)">
       <use xlink:href="#DejaVuSans-31"/>
       <use xlink:href="#DejaVuSans-37" x="63.623047"/>
       <use xlink:href="#DejaVuSans-2e" x="127.246094"/>
       <use xlink:href="#DejaVuSans-35" x="159.033203"/>
      </g>
     </g>
    </g>
    <g id="ytick_9">
     <g id="line2d_18">
      <g>
       <use xlink:href="#ma6e1955560" x="57.6" y="57.558857" style="stroke: #000000; stroke-width: 0.8"/>
      </g>
     </g>
     <g id="text_19">
      <!-- 20.0 -->
      <g transform="translate(28.334375 61.358075) scale(0.1 -0.1)">
       <use xlink:href="#DejaVuSans-32"/>
       <use xlink:href="#DejaVuSans-30" x="63.623047"/>
       <use xlink:href="#DejaVuSans-2e" x="127.246094"/>
       <use xlink:href="#DejaVuSans-30" x="159.033203"/>
      </g>
     </g>
    </g>
    <g id="text_20">
     <!-- loss value -->
     <g transform="translate(22.254687 199.432687) rotate(-90) scale(0.1 -0.1)">
      <defs>
       <path id="DejaVuSans-6c" d="M 603 4863 
L 1178 4863 
L 1178 0 
L 603 0 
L 603 4863 
z
" transform="scale(0.015625)"/>
       <path id="DejaVuSans-73" d="M 2834 3397 
L 2834 2853 
Q 2591 2978 2328 3040 
Q 2066 3103 1784 3103 
Q 1356 3103 1142 2972 
Q 928 2841 928 2578 
Q 928 2378 1081 2264 
Q 1234 2150 1697 2047 
L 1894 2003 
Q 2506 1872 2764 1633 
Q 3022 1394 3022 966 
Q 3022 478 2636 193 
Q 2250 -91 1575 -91 
Q 1294 -91 989 -36 
Q 684 19 347 128 
L 347 722 
Q 666 556 975 473 
Q 1284 391 1588 391 
Q 1994 391 2212 530 
Q 2431 669 2431 922 
Q 2431 1156 2273 1281 
Q 2116 1406 1581 1522 
L 1381 1569 
Q 847 1681 609 1914 
Q 372 2147 372 2553 
Q 372 3047 722 3315 
Q 1072 3584 1716 3584 
Q 2034 3584 2315 3537 
Q 2597 3491 2834 3397 
z
" transform="scale(0.015625)"/>
       <path id="DejaVuSans-20" transform="scale(0.015625)"/>
       <path id="DejaVuSans-76" d="M 191 3500 
L 800 3500 
L 1894 563 
L 2988 3500 
L 3597 3500 
L 2284 0 
L 1503 0 
L 191 3500 
z
" transform="scale(0.015625)"/>
       <path id="DejaVuSans-61" d="M 2194 1759 
Q 1497 1759 1228 1600 
Q 959 1441 959 1056 
Q 959 750 1161 570 
Q 1363 391 1709 391 
Q 2188 391 2477 730 
Q 2766 1069 2766 1631 
L 2766 1759 
L 2194 1759 
z
M 3341 1997 
L 3341 0 
L 2766 0 
L 2766 531 
Q 2569 213 2275 61 
Q 1981 -91 1556 -91 
Q 1019 -91 701 211 
Q 384 513 384 1019 
Q 384 1609 779 1909 
Q 1175 2209 1959 2209 
L 2766 2209 
L 2766 2266 
Q 2766 2663 2505 2880 
Q 2244 3097 1772 3097 
Q 1472 3097 1187 3025 
Q 903 2953 641 2809 
L 641 3341 
Q 956 3463 1253 3523 
Q 1550 3584 1831 3584 
Q 2591 3584 2966 3190 
Q 3341 2797 3341 1997 
z
" transform="scale(0.015625)"/>
       <path id="DejaVuSans-75" d="M 544 1381 
L 544 3500 
L 1119 3500 
L 1119 1403 
Q 1119 906 1312 657 
Q 1506 409 1894 409 
Q 2359 409 2629 706 
Q 2900 1003 2900 1516 
L 2900 3500 
L 3475 3500 
L 3475 0 
L 2900 0 
L 2900 538 
Q 2691 219 2414 64 
Q 2138 -91 1772 -91 
Q 1169 -91 856 284 
Q 544 659 544 1381 
z
M 1991 3584 
L 1991 3584 
z
" transform="scale(0.015625)"/>
      </defs>
      <use xlink:href="#DejaVuSans-6c"/>
      <use xlink:href="#DejaVuSans-6f" x="27.783203"/>
      <use xlink:href="#DejaVuSans-73" x="88.964844"/>
      <use xlink:href="#DejaVuSans-73" x="141.064453"/>
      <use xlink:href="#DejaVuSans-20" x="193.164062"/>
      <use xlink:href="#DejaVuSans-76" x="224.951172"/>
      <use xlink:href="#DejaVuSans-61" x="284.130859"/>
      <use xlink:href="#DejaVuSans-6c" x="345.410156"/>
      <use xlink:href="#DejaVuSans-75" x="373.193359"/>
      <use xlink:href="#DejaVuSans-65" x="436.572266"/>
     </g>
    </g>
   </g>
   <g id="line2d_19">
    <path d="M 73.832727 279.133838 
L 75.87458 281.322492 
L 79.958285 284.328899 
L 82.000137 271.711122 
L 84.04199 285.108833 
L 86.083842 286.65787 
L 88.125695 285.52528 
L 90.167547 268.796171 
L 92.2094 283.714567 
L 94.251252 284.780921 
L 96.293105 285.557911 
L 98.334957 259.545221 
L 100.37681 283.965562 
L 102.418662 285.650187 
L 104.460515 285.833321 
L 106.502367 262.380327 
L 108.54422 283.196553 
L 110.586072 285.629462 
L 112.627925 286.28592 
L 114.669777 257.060718 
L 116.71163 280.78471 
L 118.753482 285.236984 
L 120.795334 285.298795 
L 122.837187 252.148025 
L 124.879039 281.382316 
L 126.920892 283.576028 
L 128.962744 285.9366 
L 131.004597 245.773308 
L 133.046449 281.654839 
L 135.088302 284.772659 
L 137.130154 286.507576 
L 139.172007 234.913992 
L 141.213859 279.599982 
L 143.255712 282.685767 
L 145.297564 286.384668 
L 147.339417 227.682313 
L 149.381269 279.777709 
L 151.423122 284.504097 
L 153.464974 285.119775 
L 155.506827 217.355658 
L 157.548679 276.476253 
L 159.590532 284.225434 
L 161.632384 284.626102 
L 163.674237 211.099598 
L 165.716089 270.638469 
L 167.757942 280.785051 
L 169.799794 285.589779 
L 171.841647 203.43469 
L 173.883499 271.533024 
L 175.925352 278.002498 
L 177.967204 282.989433 
L 180.009057 198.93575 
L 182.050909 263.615787 
L 184.092762 275.506729 
L 186.134614 281.95177 
L 188.176467 189.152961 
L 190.218319 259.019974 
L 192.260172 272.511954 
L 194.302024 282.49375 
L 196.343877 179.546812 
L 198.385729 254.460119 
L 200.427581 268.500399 
L 202.469434 275.191216 
L 204.511286 174.281419 
L 206.553139 246.435817 
L 208.594991 262.0007 
L 210.636844 274.848941 
L 212.678696 168.631072 
L 214.720549 236.060695 
L 216.762401 256.755772 
L 218.804254 264.758758 
L 220.846106 158.613587 
L 222.887959 226.279702 
L 224.929811 254.500324 
L 226.971664 264.287004 
L 229.013516 153.297449 
L 231.055369 219.664563 
L 233.097221 244.919677 
L 235.139074 263.222675 
L 237.180926 149.223638 
L 239.222779 206.321434 
L 241.264631 240.089491 
L 243.306484 253.780029 
L 245.348336 143.388864 
L 247.390189 198.853132 
L 249.432041 227.524009 
L 251.473894 245.44027 
L 253.515746 134.700235 
L 255.557599 188.532824 
L 257.599451 221.122099 
L 259.641304 236.781581 
L 261.683156 133.911197 
L 263.725009 184.52245 
L 265.766861 210.001437 
L 267.808714 228.126907 
L 269.850566 122.238863 
L 271.892419 177.447829 
L 273.934271 206.532259 
L 275.976123 221.073928 
L 278.017976 117.42821 
L 280.059828 162.606774 
L 282.101681 194.68918 
L 284.143533 209.510209 
L 286.185386 115.330196 
L 288.227238 163.153539 
L 290.269091 179.533093 
L 292.310943 193.949618 
L 294.352796 108.041947 
L 296.394648 154.220217 
L 298.436501 181.844026 
L 300.478353 192.241241 
L 302.520206 104.796302 
L 304.562058 148.06668 
L 306.603911 163.866477 
L 308.645763 181.60833 
L 310.687616 96.378872 
L 312.729468 140.661356 
L 314.771321 161.135379 
L 316.813173 176.311133 
L 318.855026 87.295212 
L 320.896878 130.586134 
L 322.938731 151.190505 
L 324.980583 168.052836 
L 327.022436 90.856033 
L 329.064288 127.15381 
L 331.106141 144.436521 
L 333.147993 164.594526 
L 335.189846 80.742501 
L 337.231698 119.456438 
L 339.273551 139.598471 
L 341.315403 148.329877 
L 343.357256 78.836549 
L 345.399108 108.361222 
L 347.440961 125.734938 
L 349.482813 145.336962 
L 351.524666 73.339706 
L 353.566518 102.686809 
L 357.650223 138.557362 
L 359.692075 77.995994 
L 361.733928 99.42548 
L 363.77578 117.998926 
L 365.817633 130.182504 
L 367.859485 69.770022 
L 369.901338 88.864963 
L 371.94319 109.519773 
L 373.985043 117.162418 
L 376.026895 69.136516 
L 378.068748 81.954215 
L 380.1106 99.934561 
L 382.152453 111.449806 
L 384.194305 71.537813 
L 386.236158 77.355899 
L 388.27801 91.810635 
L 390.319863 103.419512 
L 392.361715 57.412049 
L 394.403568 69.196616 
L 396.44542 89.737035 
L 398.487273 91.708044 
L 398.487273 91.708044 
" clip-path="url(#p22ca93fb64)" style="fill: none; stroke: #0000ff; stroke-width: 1.5; stroke-linecap: square"/>
   </g>
   <g id="line2d_20">
    <path d="M 73.832727 287.625817 
L 75.87458 293.511923 
L 77.916432 294.596665 
L 79.958285 294.619818 
L 82.000137 290.671483 
L 84.04199 293.255081 
L 86.083842 294.400452 
L 88.125695 295.045453 
L 90.167547 290.406737 
L 92.2094 293.420915 
L 94.251252 295.197578 
L 96.293105 295.488 
L 98.334957 290.376079 
L 100.37681 293.140976 
L 102.418662 294.875795 
L 104.460515 295.372528 
L 106.502367 289.798148 
L 108.54422 292.082426 
L 112.627925 294.730285 
L 114.669777 289.735186 
L 116.71163 291.693493 
L 118.753482 292.626669 
L 120.795334 293.684677 
L 122.837187 289.608762 
L 124.879039 291.236644 
L 126.920892 292.413315 
L 128.962744 293.156273 
L 131.004597 289.724969 
L 133.046449 291.118048 
L 135.088302 292.24208 
L 137.130154 292.74294 
L 139.172007 289.67725 
L 141.213859 290.752223 
L 143.255712 292.013751 
L 145.297564 292.437899 
L 147.339417 289.661808 
L 149.381269 290.7232 
L 151.423122 291.52518 
L 153.464974 292.121232 
L 155.506827 289.918194 
L 161.632384 291.902187 
L 163.674237 290.236448 
L 165.716089 290.337995 
L 167.757942 291.376258 
L 169.799794 291.616321 
L 171.841647 290.30908 
L 173.883499 289.83064 
L 175.925352 290.93039 
L 177.967204 291.386562 
L 180.009057 290.382214 
L 182.050909 290.042855 
L 184.092762 290.846718 
L 188.176467 291.021442 
L 190.218319 289.761669 
L 192.260172 290.779639 
L 194.302024 290.685438 
L 196.343877 291.180146 
L 198.385729 290.252758 
L 200.427581 290.964471 
L 202.469434 291.093623 
L 204.511286 290.955559 
L 206.553139 290.487408 
L 208.594991 291.039473 
L 212.678696 291.044967 
L 214.720549 290.8551 
L 216.762401 290.517168 
L 218.804254 291.054658 
L 220.846106 291.26093 
L 222.887959 290.85953 
L 224.929811 290.763223 
L 226.971664 291.178999 
L 229.013516 291.317838 
L 231.055369 290.866352 
L 235.139074 290.575806 
L 237.180926 291.473686 
L 241.264631 290.834633 
L 243.306484 290.664888 
L 245.348336 291.54842 
L 247.390189 291.08065 
L 249.432041 291.21646 
L 251.473894 290.990817 
L 253.515746 291.792934 
L 257.599451 291.214284 
L 259.641304 291.50371 
L 261.683156 291.970502 
L 263.725009 291.58595 
L 265.766861 291.478256 
L 267.808714 290.810853 
L 269.850566 292.157998 
L 273.934271 291.708141 
L 275.976123 291.556322 
L 278.017976 292.508907 
L 280.059828 291.580153 
L 282.101681 291.528005 
L 284.143533 291.588568 
L 286.185386 292.29763 
L 288.227238 291.916872 
L 290.269091 291.978813 
L 292.310943 291.745806 
L 294.352796 292.732552 
L 296.394648 292.092848 
L 300.478353 291.998617 
L 302.520206 292.461111 
L 304.562058 292.283121 
L 306.603911 292.294972 
L 308.645763 292.148908 
L 310.687616 292.945977 
L 314.771321 292.391363 
L 316.813173 292.030094 
L 318.855026 293.228148 
L 322.938731 292.505413 
L 324.980583 292.394755 
L 327.022436 293.075287 
L 329.064288 292.882214 
L 331.106141 292.52626 
L 333.147993 292.59178 
L 335.189846 293.461634 
L 339.273551 292.727783 
L 341.315403 292.691823 
L 343.357256 293.447989 
L 347.440961 293.430114 
L 349.482813 292.811511 
L 351.524666 293.558413 
L 353.566518 294.003992 
L 355.60837 292.989919 
L 357.650223 293.251759 
L 359.692075 293.765628 
L 361.733928 293.7812 
L 363.77578 293.10604 
L 365.817633 293.340892 
L 369.901338 294.155646 
L 371.94319 293.438426 
L 373.985043 293.261868 
L 376.026895 293.980041 
L 380.1106 294.045908 
L 384.194305 293.884903 
L 386.236158 294.205771 
L 390.319863 294.100476 
L 392.361715 293.915845 
L 398.487273 294.088397 
L 398.487273 294.088397 
" clip-path="url(#p22ca93fb64)" style="fill: none; stroke: #008000; stroke-width: 1.5; stroke-linecap: square"/>
   </g>
   <g id="line2d_21">
    <path d="M 73.832727 268.999761 
L 75.87458 277.074521 
L 77.916432 279.721433 
L 79.958285 281.188824 
L 82.000137 264.622712 
L 84.04199 280.60402 
L 86.083842 283.298428 
L 88.125695 282.81084 
L 90.167547 261.443015 
L 92.2094 279.375588 
L 94.251252 282.218606 
L 96.293105 283.286017 
L 98.334957 252.161407 
L 100.37681 279.346644 
L 102.418662 282.766088 
L 104.460515 283.445956 
L 106.502367 254.418581 
L 108.54422 277.519086 
L 110.586072 281.309908 
L 112.627925 283.256311 
L 114.669777 249.03601 
L 116.71163 274.718309 
L 118.753482 280.103759 
L 120.795334 281.223579 
L 122.837187 243.996893 
L 124.879039 274.859066 
L 126.920892 278.229449 
L 128.962744 281.332979 
L 131.004597 237.738384 
L 133.046449 275.012992 
L 135.088302 279.254846 
L 137.130154 281.490622 
L 139.172007 226.831349 
L 141.213859 272.592312 
L 145.297564 281.062673 
L 147.339417 219.584227 
L 149.381269 272.741016 
L 151.423122 278.269383 
L 153.464974 279.481113 
L 155.506827 209.513958 
L 157.548679 269.303294 
L 159.590532 277.828951 
L 161.632384 278.768395 
L 163.674237 203.576152 
L 165.716089 263.216571 
L 167.757942 274.401415 
L 169.799794 279.446206 
L 171.841647 195.983876 
L 173.883499 263.60377 
L 175.925352 271.172994 
L 177.967204 276.616101 
L 180.009057 191.55807 
L 182.050909 255.898748 
L 184.092762 268.593553 
L 186.134614 275.156003 
L 188.176467 182.414509 
L 190.218319 251.021749 
L 192.260172 265.531699 
L 194.302024 275.419294 
L 196.343877 172.967065 
L 198.385729 246.952983 
L 200.427581 261.704976 
L 202.469434 268.524945 
L 204.511286 167.477084 
L 206.553139 239.163331 
L 208.594991 255.28028 
L 210.636844 268.160326 
L 212.678696 161.916145 
L 214.720549 229.155902 
L 216.762401 249.513046 
L 218.804254 258.053522 
L 220.846106 152.114624 
L 222.887959 219.379338 
L 224.929811 247.503653 
L 226.971664 257.70611 
L 229.013516 146.855393 
L 231.055369 212.771021 
L 233.097221 237.89549 
L 235.139074 256.038587 
L 237.180926 142.93743 
L 239.222779 199.716234 
L 241.264631 233.16423 
L 243.306484 246.685023 
L 245.348336 137.17739 
L 247.390189 192.173888 
L 249.432041 220.980575 
L 251.473894 238.671193 
L 253.515746 128.733275 
L 255.557599 182.324143 
L 257.599451 214.576489 
L 259.641304 230.525397 
L 261.683156 128.121806 
L 263.725009 178.348507 
L 265.766861 203.719799 
L 267.808714 221.177866 
L 269.850566 116.636967 
L 271.892419 171.566689 
L 273.934271 200.480506 
L 275.976123 214.870356 
L 278.017976 112.177222 
L 280.059828 156.427033 
L 282.101681 188.457292 
L 284.143533 203.338883 
L 286.185386 109.867931 
L 288.227238 157.310517 
L 290.269091 173.752013 
L 292.310943 187.935529 
L 294.352796 103.014605 
L 296.394648 148.553171 
L 298.436501 176.118717 
L 300.478353 186.479964 
L 302.520206 99.497519 
L 304.562058 142.589907 
L 306.603911 158.401555 
L 308.645763 175.997344 
L 310.687616 91.564955 
L 312.729468 135.594134 
L 314.771321 155.766849 
L 316.813173 170.581334 
L 318.855026 82.763466 
L 320.896878 125.656876 
L 322.938731 145.936024 
L 324.980583 162.687697 
L 327.022436 86.171426 
L 329.064288 122.276131 
L 331.106141 139.202888 
L 333.147993 159.426412 
L 335.189846 76.444241 
L 337.231698 114.734607 
L 339.273551 134.566361 
L 341.315403 143.261806 
L 343.357256 74.524645 
L 345.399108 104.045067 
L 347.440961 121.405158 
L 349.482813 140.388579 
L 351.524666 69.138226 
L 353.566518 98.930908 
L 355.60837 115.977617 
L 357.650223 134.049227 
L 359.692075 74.001729 
L 361.733928 95.446787 
L 363.77578 113.345072 
L 365.817633 125.763503 
L 367.859485 65.756488 
L 371.94319 105.198305 
L 373.985043 112.664392 
L 376.026895 65.356663 
L 378.068748 78.254867 
L 380.1106 96.220576 
L 382.152453 107.685891 
L 384.194305 67.662822 
L 386.236158 73.801776 
L 388.27801 88.203856 
L 390.319863 99.760095 
L 392.361715 53.568 
L 394.403568 65.417038 
L 396.44542 85.972669 
L 398.487273 88.036548 
L 398.487273 88.036548 
" clip-path="url(#p22ca93fb64)" style="fill: none; stroke: #ff0000; stroke-width: 1.5; stroke-linecap: square"/>
   </g>
   <g id="patch_3">
    <path d="M 57.6 307.584 
L 57.6 41.472 
" style="fill: none; stroke: #000000; stroke-width: 0.8; stroke-linejoin: miter; stroke-linecap: square"/>
   </g>
   <g id="patch_4">
    <path d="M 414.72 307.584 
L 414.72 41.472 
" style="fill: none; stroke: #000000; stroke-width: 0.8; stroke-linejoin: miter; stroke-linecap: square"/>
   </g>
   <g id="patch_5">
    <path d="M 57.6 307.584 
L 414.72 307.584 
" style="fill: none; stroke: #000000; stroke-width: 0.8; stroke-linejoin: miter; stroke-linecap: square"/>
   </g>
   <g id="patch_6">
    <path d="M 57.6 41.472 
L 414.72 41.472 
" style="fill: none; stroke: #000000; stroke-width: 0.8; stroke-linejoin: miter; stroke-linecap: square"/>
   </g>
   <g id="text_21">
    <!-- The loss curve on voc/voc_fixed_interactive/host/1 -->
    <g transform="translate(84.76125 35.472) scale(0.12 -0.12)">
     <defs>
      <path id="DejaVuSans-54" d="M -19 4666 
L 3928 4666 
L 3928 4134 
L 2272 4134 
L 2272 0 
L 1638 0 
L 1638 4134 
L -19 4134 
L -19 4666 
z
" transform="scale(0.015625)"/>
      <path id="DejaVuSans-72" d="M 2631 2963 
Q 2534 3019 2420 3045 
Q 2306 3072 2169 3072 
Q 1681 3072 1420 2755 
Q 1159 2438 1159 1844 
L 1159 0 
L 581 0 
L 581 3500 
L 1159 3500 
L 1159 2956 
Q 1341 3275 1631 3429 
Q 1922 3584 2338 3584 
Q 2397 3584 2469 3576 
Q 2541 3569 2628 3553 
L 2631 2963 
z
" transform="scale(0.015625)"/>
      <path id="DejaVuSans-6e" d="M 3513 2113 
L 3513 0 
L 2938 0 
L 2938 2094 
Q 2938 2591 2744 2837 
Q 2550 3084 2163 3084 
Q 1697 3084 1428 2787 
Q 1159 2491 1159 1978 
L 1159 0 
L 581 0 
L 581 3500 
L 1159 3500 
L 1159 2956 
Q 1366 3272 1645 3428 
Q 1925 3584 2291 3584 
Q 2894 3584 3203 3211 
Q 3513 2838 3513 2113 
z
" transform="scale(0.015625)"/>
      <path id="DejaVuSans-2f" d="M 1625 4666 
L 2156 4666 
L 531 -594 
L 0 -594 
L 1625 4666 
z
" transform="scale(0.015625)"/>
      <path id="DejaVuSans-5f" d="M 3263 -1063 
L 3263 -1509 
L -63 -1509 
L -63 -1063 
L 3263 -1063 
z
" transform="scale(0.015625)"/>
      <path id="DejaVuSans-66" d="M 2375 4863 
L 2375 4384 
L 1825 4384 
Q 1516 4384 1395 4259 
Q 1275 4134 1275 3809 
L 1275 3500 
L 2222 3500 
L 2222 3053 
L 1275 3053 
L 1275 0 
L 697 0 
L 697 3053 
L 147 3053 
L 147 3500 
L 697 3500 
L 697 3744 
Q 697 4328 969 4595 
Q 1241 4863 1831 4863 
L 2375 4863 
z
" transform="scale(0.015625)"/>
      <path id="DejaVuSans-69" d="M 603 3500 
L 1178 3500 
L 1178 0 
L 603 0 
L 603 3500 
z
M 603 4863 
L 1178 4863 
L 1178 4134 
L 603 4134 
L 603 4863 
z
" transform="scale(0.015625)"/>
      <path id="DejaVuSans-78" d="M 3513 3500 
L 2247 1797 
L 3578 0 
L 2900 0 
L 1881 1375 
L 863 0 
L 184 0 
L 1544 1831 
L 300 3500 
L 978 3500 
L 1906 2253 
L 2834 3500 
L 3513 3500 
z
" transform="scale(0.015625)"/>
      <path id="DejaVuSans-64" d="M 2906 2969 
L 2906 4863 
L 3481 4863 
L 3481 0 
L 2906 0 
L 2906 525 
Q 2725 213 2448 61 
Q 2172 -91 1784 -91 
Q 1150 -91 751 415 
Q 353 922 353 1747 
Q 353 2572 751 3078 
Q 1150 3584 1784 3584 
Q 2172 3584 2448 3432 
Q 2725 3281 2906 2969 
z
M 947 1747 
Q 947 1113 1208 752 
Q 1469 391 1925 391 
Q 2381 391 2643 752 
Q 2906 1113 2906 1747 
Q 2906 2381 2643 2742 
Q 2381 3103 1925 3103 
Q 1469 3103 1208 2742 
Q 947 2381 947 1747 
z
" transform="scale(0.015625)"/>
      <path id="DejaVuSans-74" d="M 1172 4494 
L 1172 3500 
L 2356 3500 
L 2356 3053 
L 1172 3053 
L 1172 1153 
Q 1172 725 1289 603 
Q 1406 481 1766 481 
L 2356 481 
L 2356 0 
L 1766 0 
Q 1100 0 847 248 
Q 594 497 594 1153 
L 594 3053 
L 172 3053 
L 172 3500 
L 594 3500 
L 594 4494 
L 1172 4494 
z
" transform="scale(0.015625)"/>
     </defs>
     <use xlink:href="#DejaVuSans-54"/>
     <use xlink:href="#DejaVuSans-68" x="61.083984"/>
     <use xlink:href="#DejaVuSans-65" x="124.462891"/>
     <use xlink:href="#DejaVuSans-20" x="185.986328"/>
     <use xlink:href="#DejaVuSans-6c" x="217.773438"/>
     <use xlink:href="#DejaVuSans-6f" x="245.556641"/>
     <use xlink:href="#DejaVuSans-73" x="306.738281"/>
     <use xlink:href="#DejaVuSans-73" x="358.837891"/>
     <use xlink:href="#DejaVuSans-20" x="410.9375"/>
     <use xlink:href="#DejaVuSans-63" x="442.724609"/>
     <use xlink:href="#DejaVuSans-75" x="497.705078"/>
     <use xlink:href="#DejaVuSans-72" x="561.083984"/>
     <use xlink:href="#DejaVuSans-76" x="602.197266"/>
     <use xlink:href="#DejaVuSans-65" x="661.376953"/>
     <use xlink:href="#DejaVuSans-20" x="722.900391"/>
     <use xlink:href="#DejaVuSans-6f" x="754.6875"/>
     <use xlink:href="#DejaVuSans-6e" x="815.869141"/>
     <use xlink:href="#DejaVuSans-20" x="879.248047"/>
     <use xlink:href="#DejaVuSans-76" x="911.035156"/>
     <use xlink:href="#DejaVuSans-6f" x="970.214844"/>
     <use xlink:href="#DejaVuSans-63" x="1031.396484"/>
     <use xlink:href="#DejaVuSans-2f" x="1086.376953"/>
     <use xlink:href="#DejaVuSans-76" x="1120.068359"/>
     <use xlink:href="#DejaVuSans-6f" x="1179.248047"/>
     <use xlink:href="#DejaVuSans-63" x="1240.429688"/>
     <use xlink:href="#DejaVuSans-5f" x="1295.410156"/>
     <use xlink:href="#DejaVuSans-66" x="1345.410156"/>
     <use xlink:href="#DejaVuSans-69" x="1380.615234"/>
     <use xlink:href="#DejaVuSans-78" x="1408.398438"/>
     <use xlink:href="#DejaVuSans-65" x="1464.453125"/>
     <use xlink:href="#DejaVuSans-64" x="1525.976562"/>
     <use xlink:href="#DejaVuSans-5f" x="1589.453125"/>
     <use xlink:href="#DejaVuSans-69" x="1639.453125"/>
     <use xlink:href="#DejaVuSans-6e" x="1667.236328"/>
     <use xlink:href="#DejaVuSans-74" x="1730.615234"/>
     <use xlink:href="#DejaVuSans-65" x="1769.824219"/>
     <use xlink:href="#DejaVuSans-72" x="1831.347656"/>
     <use xlink:href="#DejaVuSans-61" x="1872.460938"/>
     <use xlink:href="#DejaVuSans-63" x="1933.740234"/>
     <use xlink:href="#DejaVuSans-74" x="1988.720703"/>
     <use xlink:href="#DejaVuSans-69" x="2027.929688"/>
     <use xlink:href="#DejaVuSans-76" x="2055.712891"/>
     <use xlink:href="#DejaVuSans-65" x="2114.892578"/>
     <use xlink:href="#DejaVuSans-2f" x="2176.416016"/>
     <use xlink:href="#DejaVuSans-68" x="2210.107422"/>
     <use xlink:href="#DejaVuSans-6f" x="2273.486328"/>
     <use xlink:href="#DejaVuSans-73" x="2334.667969"/>
     <use xlink:href="#DejaVuSans-74" x="2386.767578"/>
     <use xlink:href="#DejaVuSans-2f" x="2425.976562"/>
     <use xlink:href="#DejaVuSans-31" x="2459.667969"/>
    </g>
   </g>
   <g id="legend_1">
    <g id="patch_7">
     <path d="M 64.6 94.34075 
L 159.598437 94.34075 
Q 161.598437 94.34075 161.598437 92.34075 
L 161.598437 48.472 
Q 161.598437 46.472 159.598437 46.472 
L 64.6 46.472 
Q 62.6 46.472 62.6 48.472 
L 62.6 92.34075 
Q 62.6 94.34075 64.6 94.34075 
z
" style="fill: #ffffff; opacity: 0.8; stroke: #cccccc; stroke-linejoin: miter"/>
    </g>
    <g id="line2d_22">
     <path d="M 66.6 54.570438 
L 76.6 54.570438 
L 86.6 54.570438 
" style="fill: none; stroke: #0000ff; stroke-width: 1.5; stroke-linecap: square"/>
    </g>
    <g id="text_22">
     <!-- entropy_loss -->
     <g transform="translate(94.6 58.070438) scale(0.1 -0.1)">
      <defs>
       <path id="DejaVuSans-79" d="M 2059 -325 
Q 1816 -950 1584 -1140 
Q 1353 -1331 966 -1331 
L 506 -1331 
L 506 -850 
L 844 -850 
Q 1081 -850 1212 -737 
Q 1344 -625 1503 -206 
L 1606 56 
L 191 3500 
L 800 3500 
L 1894 763 
L 2988 3500 
L 3597 3500 
L 2059 -325 
z
" transform="scale(0.015625)"/>
      </defs>
      <use xlink:href="#DejaVuSans-65"/>
      <use xlink:href="#DejaVuSans-6e" x="61.523438"/>
      <use xlink:href="#DejaVuSans-74" x="124.902344"/>
      <use xlink:href="#DejaVuSans-72" x="164.111328"/>
      <use xlink:href="#DejaVuSans-6f" x="202.974609"/>
      <use xlink:href="#DejaVuSans-70" x="264.15625"/>
      <use xlink:href="#DejaVuSans-79" x="327.632812"/>
      <use xlink:href="#DejaVuSans-5f" x="386.8125"/>
      <use xlink:href="#DejaVuSans-6c" x="436.8125"/>
      <use xlink:href="#DejaVuSans-6f" x="464.595703"/>
      <use xlink:href="#DejaVuSans-73" x="525.777344"/>
      <use xlink:href="#DejaVuSans-73" x="577.876953"/>
     </g>
    </g>
    <g id="line2d_23">
     <path d="M 66.6 69.526688 
L 76.6 69.526688 
L 86.6 69.526688 
" style="fill: none; stroke: #008000; stroke-width: 1.5; stroke-linecap: square"/>
    </g>
    <g id="text_23">
     <!-- relation_loss -->
     <g transform="translate(94.6 73.026688) scale(0.1 -0.1)">
      <use xlink:href="#DejaVuSans-72"/>
      <use xlink:href="#DejaVuSans-65" x="38.863281"/>
      <use xlink:href="#DejaVuSans-6c" x="100.386719"/>
      <use xlink:href="#DejaVuSans-61" x="128.169922"/>
      <use xlink:href="#DejaVuSans-74" x="189.449219"/>
      <use xlink:href="#DejaVuSans-69" x="228.658203"/>
      <use xlink:href="#DejaVuSans-6f" x="256.441406"/>
      <use xlink:href="#DejaVuSans-6e" x="317.623047"/>
      <use xlink:href="#DejaVuSans-5f" x="381.001953"/>
      <use xlink:href="#DejaVuSans-6c" x="431.001953"/>
      <use xlink:href="#DejaVuSans-6f" x="458.785156"/>
      <use xlink:href="#DejaVuSans-73" x="519.966797"/>
      <use xlink:href="#DejaVuSans-73" x="572.066406"/>
     </g>
    </g>
    <g id="line2d_24">
     <path d="M 66.6 84.482938 
L 76.6 84.482938 
L 86.6 84.482938 
" style="fill: none; stroke: #ff0000; stroke-width: 1.5; stroke-linecap: square"/>
    </g>
    <g id="text_24">
     <!-- overall_loss -->
     <g transform="translate(94.6 87.982938) scale(0.1 -0.1)">
      <use xlink:href="#DejaVuSans-6f"/>
      <use xlink:href="#DejaVuSans-76" x="61.181641"/>
      <use xlink:href="#DejaVuSans-65" x="120.361328"/>
      <use xlink:href="#DejaVuSans-72" x="181.884766"/>
      <use xlink:href="#DejaVuSans-61" x="222.998047"/>
      <use xlink:href="#DejaVuSans-6c" x="284.277344"/>
      <use xlink:href="#DejaVuSans-6c" x="312.060547"/>
      <use xlink:href="#DejaVuSans-5f" x="339.84375"/>
      <use xlink:href="#DejaVuSans-6c" x="389.84375"/>
      <use xlink:href="#DejaVuSans-6f" x="417.626953"/>
      <use xlink:href="#DejaVuSans-73" x="478.808594"/>
      <use xlink:href="#DejaVuSans-73" x="530.908203"/>
     </g>
    </g>
   </g>
  </g>
 </g>
 <defs>
  <clipPath id="p22ca93fb64">
   <rect x="57.6" y="41.472" width="357.12" height="266.112"/>
  </clipPath>
 </defs>
</svg>
