<?xml version="1.0" encoding="utf-8" standalone="no"?>
<!DOCTYPE svg PUBLIC "-//W3C//DTD SVG 1.1//EN"
  "http://www.w3.org/Graphics/SVG/1.1/DTD/svg11.dtd">
<svg xmlns:xlink="http://www.w3.org/1999/xlink" width="460.8pt" height="345.6pt" viewBox="0 0 460.8 345.6" xmlns="http://www.w3.org/2000/svg" version="1.1">
 <metadata>
  <rdf:RDF xmlns:dc="http://purl.org/dc/elements/1.1/" xmlns:cc="http://creativecommons.org/ns#" xmlns:rdf="http://www.w3.org/1999/02/22-rdf-syntax-ns#">
   <cc:Work>
    <dc:type rdf:resource="http://purl.org/dc/dcmitype/StillImage"/>
    <dc:date>2023-10-19T23:02:32.625271</dc:date>
    <dc:format>image/svg+xml</dc:format>
    <dc:creator>
     <cc:Agent>
      <dc:title>Matplotlib v3.7.1, https://matplotlib.org/</dc:title>
     </cc:Agent>
    </dc:creator>
   </cc:Work>
  </rdf:RDF>
 </metadata>
 <defs>
  <style type="text/css">*{stroke-linejoin: round; stroke-linecap: butt}</style>
 </defs>
 <g id="figure_1">
  <g id="patch_1">
   <path d="M 0 345.6 
L 460.8 345.6 
L 460.8 0 
L 0 0 
z
" style="fill: #ffffff"/>
  </g>
  <g id="axes_1">
   <g id="patch_2">
    <path d="M 57.6 307.584 
L 414.72 307.584 
L 414.72 41.472 
L 57.6 41.472 
z
" style="fill: #ffffff"/>
   </g>
   <g id="matplotlib.axis_1">
    <g id="xtick_1">
     <g id="line2d_1">
      <defs>
       <path id="ma6e26604a0" d="M 0 0 
L 0 3.5 
" style="stroke: #000000; stroke-width: 0.8"/>
      </defs>
      <g>
       <use xlink:href="#ma6e26604a0" x="73.832727" y="307.584" style="stroke: #000000; stroke-width: 0.8"/>
      </g>
     </g>
     <g id="text_1">
      <!-- 0 -->
      <g transform="translate(70.651477 322.182437) scale(0.1 -0.1)">
       <defs>
        <path id="DejaVuSans-30" d="M 2034 4250 
Q 1547 4250 1301 3770 
Q 1056 3291 1056 2328 
Q 1056 1369 1301 889 
Q 1547 409 2034 409 
Q 2525 409 2770 889 
Q 3016 1369 3016 2328 
Q 3016 3291 2770 3770 
Q 2525 4250 2034 4250 
z
M 2034 4750 
Q 2819 4750 3233 4129 
Q 3647 3509 3647 2328 
Q 3647 1150 3233 529 
Q 2819 -91 2034 -91 
Q 1250 -91 836 529 
Q 422 1150 422 2328 
Q 422 3509 836 4129 
Q 1250 4750 2034 4750 
z
" transform="scale(0.015625)"/>
       </defs>
       <use xlink:href="#DejaVuSans-30"/>
      </g>
     </g>
    </g>
    <g id="xtick_2">
     <g id="line2d_2">
      <g>
       <use xlink:href="#ma6e26604a0" x="114.669777" y="307.584" style="stroke: #000000; stroke-width: 0.8"/>
      </g>
     </g>
     <g id="text_2">
      <!-- 20 -->
      <g transform="translate(108.307277 322.182437) scale(0.1 -0.1)">
       <defs>
        <path id="DejaVuSans-32" d="M 1228 531 
L 3431 531 
L 3431 0 
L 469 0 
L 469 531 
Q 828 903 1448 1529 
Q 2069 2156 2228 2338 
Q 2531 2678 2651 2914 
Q 2772 3150 2772 3378 
Q 2772 3750 2511 3984 
Q 2250 4219 1831 4219 
Q 1534 4219 1204 4116 
Q 875 4013 500 3803 
L 500 4441 
Q 881 4594 1212 4672 
Q 1544 4750 1819 4750 
Q 2544 4750 2975 4387 
Q 3406 4025 3406 3419 
Q 3406 3131 3298 2873 
Q 3191 2616 2906 2266 
Q 2828 2175 2409 1742 
Q 1991 1309 1228 531 
z
" transform="scale(0.015625)"/>
       </defs>
       <use xlink:href="#DejaVuSans-32"/>
       <use xlink:href="#DejaVuSans-30" x="63.623047"/>
      </g>
     </g>
    </g>
    <g id="xtick_3">
     <g id="line2d_3">
      <g>
       <use xlink:href="#ma6e26604a0" x="155.506827" y="307.584" style="stroke: #000000; stroke-width: 0.8"/>
      </g>
     </g>
     <g id="text_3">
      <!-- 40 -->
      <g transform="translate(149.144327 322.182437) scale(0.1 -0.1)">
       <defs>
        <path id="DejaVuSans-34" d="M 2419 4116 
L 825 1625 
L 2419 1625 
L 2419 4116 
z
M 2253 4666 
L 3047 4666 
L 3047 1625 
L 3713 1625 
L 3713 1100 
L 3047 1100 
L 3047 0 
L 2419 0 
L 2419 1100 
L 313 1100 
L 313 1709 
L 2253 4666 
z
" transform="scale(0.015625)"/>
       </defs>
       <use xlink:href="#DejaVuSans-34"/>
       <use xlink:href="#DejaVuSans-30" x="63.623047"/>
      </g>
     </g>
    </g>
    <g id="xtick_4">
     <g id="line2d_4">
      <g>
       <use xlink:href="#ma6e26604a0" x="196.343877" y="307.584" style="stroke: #000000; stroke-width: 0.8"/>
      </g>
     </g>
     <g id="text_4">
      <!-- 60 -->
      <g transform="translate(189.981377 322.182437) scale(0.1 -0.1)">
       <defs>
        <path id="DejaVuSans-36" d="M 2113 2584 
Q 1688 2584 1439 2293 
Q 1191 2003 1191 1497 
Q 1191 994 1439 701 
Q 1688 409 2113 409 
Q 2538 409 2786 701 
Q 3034 994 3034 1497 
Q 3034 2003 2786 2293 
Q 2538 2584 2113 2584 
z
M 3366 4563 
L 3366 3988 
Q 3128 4100 2886 4159 
Q 2644 4219 2406 4219 
Q 1781 4219 1451 3797 
Q 1122 3375 1075 2522 
Q 1259 2794 1537 2939 
Q 1816 3084 2150 3084 
Q 2853 3084 3261 2657 
Q 3669 2231 3669 1497 
Q 3669 778 3244 343 
Q 2819 -91 2113 -91 
Q 1303 -91 875 529 
Q 447 1150 447 2328 
Q 447 3434 972 4092 
Q 1497 4750 2381 4750 
Q 2619 4750 2861 4703 
Q 3103 4656 3366 4563 
z
" transform="scale(0.015625)"/>
       </defs>
       <use xlink:href="#DejaVuSans-36"/>
       <use xlink:href="#DejaVuSans-30" x="63.623047"/>
      </g>
     </g>
    </g>
    <g id="xtick_5">
     <g id="line2d_5">
      <g>
       <use xlink:href="#ma6e26604a0" x="237.180926" y="307.584" style="stroke: #000000; stroke-width: 0.8"/>
      </g>
     </g>
     <g id="text_5">
      <!-- 80 -->
      <g transform="translate(230.818426 322.182437) scale(0.1 -0.1)">
       <defs>
        <path id="DejaVuSans-38" d="M 2034 2216 
Q 1584 2216 1326 1975 
Q 1069 1734 1069 1313 
Q 1069 891 1326 650 
Q 1584 409 2034 409 
Q 2484 409 2743 651 
Q 3003 894 3003 1313 
Q 3003 1734 2745 1975 
Q 2488 2216 2034 2216 
z
M 1403 2484 
Q 997 2584 770 2862 
Q 544 3141 544 3541 
Q 544 4100 942 4425 
Q 1341 4750 2034 4750 
Q 2731 4750 3128 4425 
Q 3525 4100 3525 3541 
Q 3525 3141 3298 2862 
Q 3072 2584 2669 2484 
Q 3125 2378 3379 2068 
Q 3634 1759 3634 1313 
Q 3634 634 3220 271 
Q 2806 -91 2034 -91 
Q 1263 -91 848 271 
Q 434 634 434 1313 
Q 434 1759 690 2068 
Q 947 2378 1403 2484 
z
M 1172 3481 
Q 1172 3119 1398 2916 
Q 1625 2713 2034 2713 
Q 2441 2713 2670 2916 
Q 2900 3119 2900 3481 
Q 2900 3844 2670 4047 
Q 2441 4250 2034 4250 
Q 1625 4250 1398 4047 
Q 1172 3844 1172 3481 
z
" transform="scale(0.015625)"/>
       </defs>
       <use xlink:href="#DejaVuSans-38"/>
       <use xlink:href="#DejaVuSans-30" x="63.623047"/>
      </g>
     </g>
    </g>
    <g id="xtick_6">
     <g id="line2d_6">
      <g>
       <use xlink:href="#ma6e26604a0" x="278.017976" y="307.584" style="stroke: #000000; stroke-width: 0.8"/>
      </g>
     </g>
     <g id="text_6">
      <!-- 100 -->
      <g transform="translate(268.474226 322.182437) scale(0.1 -0.1)">
       <defs>
        <path id="DejaVuSans-31" d="M 794 531 
L 1825 531 
L 1825 4091 
L 703 3866 
L 703 4441 
L 1819 4666 
L 2450 4666 
L 2450 531 
L 3481 531 
L 3481 0 
L 794 0 
L 794 531 
z
" transform="scale(0.015625)"/>
       </defs>
       <use xlink:href="#DejaVuSans-31"/>
       <use xlink:href="#DejaVuSans-30" x="63.623047"/>
       <use xlink:href="#DejaVuSans-30" x="127.246094"/>
      </g>
     </g>
    </g>
    <g id="xtick_7">
     <g id="line2d_7">
      <g>
       <use xlink:href="#ma6e26604a0" x="318.855026" y="307.584" style="stroke: #000000; stroke-width: 0.8"/>
      </g>
     </g>
     <g id="text_7">
      <!-- 120 -->
      <g transform="translate(309.311276 322.182437) scale(0.1 -0.1)">
       <use xlink:href="#DejaVuSans-31"/>
       <use xlink:href="#DejaVuSans-32" x="63.623047"/>
       <use xlink:href="#DejaVuSans-30" x="127.246094"/>
      </g>
     </g>
    </g>
    <g id="xtick_8">
     <g id="line2d_8">
      <g>
       <use xlink:href="#ma6e26604a0" x="359.692075" y="307.584" style="stroke: #000000; stroke-width: 0.8"/>
      </g>
     </g>
     <g id="text_8">
      <!-- 140 -->
      <g transform="translate(350.148325 322.182437) scale(0.1 -0.1)">
       <use xlink:href="#DejaVuSans-31"/>
       <use xlink:href="#DejaVuSans-34" x="63.623047"/>
       <use xlink:href="#DejaVuSans-30" x="127.246094"/>
      </g>
     </g>
    </g>
    <g id="xtick_9">
     <g id="line2d_9">
      <g>
       <use xlink:href="#ma6e26604a0" x="400.529125" y="307.584" style="stroke: #000000; stroke-width: 0.8"/>
      </g>
     </g>
     <g id="text_9">
      <!-- 160 -->
      <g transform="translate(390.985375 322.182437) scale(0.1 -0.1)">
       <use xlink:href="#DejaVuSans-31"/>
       <use xlink:href="#DejaVuSans-36" x="63.623047"/>
       <use xlink:href="#DejaVuSans-30" x="127.246094"/>
      </g>
     </g>
    </g>
    <g id="text_10">
     <!-- epoch -->
     <g transform="translate(220.931875 335.860562) scale(0.1 -0.1)">
      <defs>
       <path id="DejaVuSans-65" d="M 3597 1894 
L 3597 1613 
L 953 1613 
Q 991 1019 1311 708 
Q 1631 397 2203 397 
Q 2534 397 2845 478 
Q 3156 559 3463 722 
L 3463 178 
Q 3153 47 2828 -22 
Q 2503 -91 2169 -91 
Q 1331 -91 842 396 
Q 353 884 353 1716 
Q 353 2575 817 3079 
Q 1281 3584 2069 3584 
Q 2775 3584 3186 3129 
Q 3597 2675 3597 1894 
z
M 3022 2063 
Q 3016 2534 2758 2815 
Q 2500 3097 2075 3097 
Q 1594 3097 1305 2825 
Q 1016 2553 972 2059 
L 3022 2063 
z
" transform="scale(0.015625)"/>
       <path id="DejaVuSans-70" d="M 1159 525 
L 1159 -1331 
L 581 -1331 
L 581 3500 
L 1159 3500 
L 1159 2969 
Q 1341 3281 1617 3432 
Q 1894 3584 2278 3584 
Q 2916 3584 3314 3078 
Q 3713 2572 3713 1747 
Q 3713 922 3314 415 
Q 2916 -91 2278 -91 
Q 1894 -91 1617 61 
Q 1341 213 1159 525 
z
M 3116 1747 
Q 3116 2381 2855 2742 
Q 2594 3103 2138 3103 
Q 1681 3103 1420 2742 
Q 1159 2381 1159 1747 
Q 1159 1113 1420 752 
Q 1681 391 2138 391 
Q 2594 391 2855 752 
Q 3116 1113 3116 1747 
z
" transform="scale(0.015625)"/>
       <path id="DejaVuSans-6f" d="M 1959 3097 
Q 1497 3097 1228 2736 
Q 959 2375 959 1747 
Q 959 1119 1226 758 
Q 1494 397 1959 397 
Q 2419 397 2687 759 
Q 2956 1122 2956 1747 
Q 2956 2369 2687 2733 
Q 2419 3097 1959 3097 
z
M 1959 3584 
Q 2709 3584 3137 3096 
Q 3566 2609 3566 1747 
Q 3566 888 3137 398 
Q 2709 -91 1959 -91 
Q 1206 -91 779 398 
Q 353 888 353 1747 
Q 353 2609 779 3096 
Q 1206 3584 1959 3584 
z
" transform="scale(0.015625)"/>
       <path id="DejaVuSans-63" d="M 3122 3366 
L 3122 2828 
Q 2878 2963 2633 3030 
Q 2388 3097 2138 3097 
Q 1578 3097 1268 2742 
Q 959 2388 959 1747 
Q 959 1106 1268 751 
Q 1578 397 2138 397 
Q 2388 397 2633 464 
Q 2878 531 3122 666 
L 3122 134 
Q 2881 22 2623 -34 
Q 2366 -91 2075 -91 
Q 1284 -91 818 406 
Q 353 903 353 1747 
Q 353 2603 823 3093 
Q 1294 3584 2113 3584 
Q 2378 3584 2631 3529 
Q 2884 3475 3122 3366 
z
" transform="scale(0.015625)"/>
       <path id="DejaVuSans-68" d="M 3513 2113 
L 3513 0 
L 2938 0 
L 2938 2094 
Q 2938 2591 2744 2837 
Q 2550 3084 2163 3084 
Q 1697 3084 1428 2787 
Q 1159 2491 1159 1978 
L 1159 0 
L 581 0 
L 581 4863 
L 1159 4863 
L 1159 2956 
Q 1366 3272 1645 3428 
Q 1925 3584 2291 3584 
Q 2894 3584 3203 3211 
Q 3513 2838 3513 2113 
z
" transform="scale(0.015625)"/>
      </defs>
      <use xlink:href="#DejaVuSans-65"/>
      <use xlink:href="#DejaVuSans-70" x="61.523438"/>
      <use xlink:href="#DejaVuSans-6f" x="125"/>
      <use xlink:href="#DejaVuSans-63" x="186.181641"/>
      <use xlink:href="#DejaVuSans-68" x="241.162109"/>
     </g>
    </g>
   </g>
   <g id="matplotlib.axis_2">
    <g id="ytick_1">
     <g id="line2d_10">
      <defs>
       <path id="md899338a22" d="M 0 0 
L -3.5 0 
" style="stroke: #000000; stroke-width: 0.8"/>
      </defs>
      <g>
       <use xlink:href="#md899338a22" x="57.6" y="300.550613" style="stroke: #000000; stroke-width: 0.8"/>
      </g>
     </g>
     <g id="text_11">
      <!-- 0 -->
      <g transform="translate(44.2375 304.349832) scale(0.1 -0.1)">
       <use xlink:href="#DejaVuSans-30"/>
      </g>
     </g>
    </g>
    <g id="ytick_2">
     <g id="line2d_11">
      <g>
       <use xlink:href="#md899338a22" x="57.6" y="246.997774" style="stroke: #000000; stroke-width: 0.8"/>
      </g>
     </g>
     <g id="text_12">
      <!-- 2 -->
      <g transform="translate(44.2375 250.796992) scale(0.1 -0.1)">
       <use xlink:href="#DejaVuSans-32"/>
      </g>
     </g>
    </g>
    <g id="ytick_3">
     <g id="line2d_12">
      <g>
       <use xlink:href="#md899338a22" x="57.6" y="193.444934" style="stroke: #000000; stroke-width: 0.8"/>
      </g>
     </g>
     <g id="text_13">
      <!-- 4 -->
      <g transform="translate(44.2375 197.244153) scale(0.1 -0.1)">
       <use xlink:href="#DejaVuSans-34"/>
      </g>
     </g>
    </g>
    <g id="ytick_4">
     <g id="line2d_13">
      <g>
       <use xlink:href="#md899338a22" x="57.6" y="139.892095" style="stroke: #000000; stroke-width: 0.8"/>
      </g>
     </g>
     <g id="text_14">
      <!-- 6 -->
      <g transform="translate(44.2375 143.691313) scale(0.1 -0.1)">
       <use xlink:href="#DejaVuSans-36"/>
      </g>
     </g>
    </g>
    <g id="ytick_5">
     <g id="line2d_14">
      <g>
       <use xlink:href="#md899338a22" x="57.6" y="86.339255" style="stroke: #000000; stroke-width: 0.8"/>
      </g>
     </g>
     <g id="text_15">
      <!-- 8 -->
      <g transform="translate(44.2375 90.138474) scale(0.1 -0.1)">
       <use xlink:href="#DejaVuSans-38"/>
      </g>
     </g>
    </g>
    <g id="text_16">
     <!-- loss value -->
     <g transform="translate(38.157812 199.432687) rotate(-90) scale(0.1 -0.1)">
      <defs>
       <path id="DejaVuSans-6c" d="M 603 4863 
L 1178 4863 
L 1178 0 
L 603 0 
L 603 4863 
z
" transform="scale(0.015625)"/>
       <path id="DejaVuSans-73" d="M 2834 3397 
L 2834 2853 
Q 2591 2978 2328 3040 
Q 2066 3103 1784 3103 
Q 1356 3103 1142 2972 
Q 928 2841 928 2578 
Q 928 2378 1081 2264 
Q 1234 2150 1697 2047 
L 1894 2003 
Q 2506 1872 2764 1633 
Q 3022 1394 3022 966 
Q 3022 478 2636 193 
Q 2250 -91 1575 -91 
Q 1294 -91 989 -36 
Q 684 19 347 128 
L 347 722 
Q 666 556 975 473 
Q 1284 391 1588 391 
Q 1994 391 2212 530 
Q 2431 669 2431 922 
Q 2431 1156 2273 1281 
Q 2116 1406 1581 1522 
L 1381 1569 
Q 847 1681 609 1914 
Q 372 2147 372 2553 
Q 372 3047 722 3315 
Q 1072 3584 1716 3584 
Q 2034 3584 2315 3537 
Q 2597 3491 2834 3397 
z
" transform="scale(0.015625)"/>
       <path id="DejaVuSans-20" transform="scale(0.015625)"/>
       <path id="DejaVuSans-76" d="M 191 3500 
L 800 3500 
L 1894 563 
L 2988 3500 
L 3597 3500 
L 2284 0 
L 1503 0 
L 191 3500 
z
" transform="scale(0.015625)"/>
       <path id="DejaVuSans-61" d="M 2194 1759 
Q 1497 1759 1228 1600 
Q 959 1441 959 1056 
Q 959 750 1161 570 
Q 1363 391 1709 391 
Q 2188 391 2477 730 
Q 2766 1069 2766 1631 
L 2766 1759 
L 2194 1759 
z
M 3341 1997 
L 3341 0 
L 2766 0 
L 2766 531 
Q 2569 213 2275 61 
Q 1981 -91 1556 -91 
Q 1019 -91 701 211 
Q 384 513 384 1019 
Q 384 1609 779 1909 
Q 1175 2209 1959 2209 
L 2766 2209 
L 2766 2266 
Q 2766 2663 2505 2880 
Q 2244 3097 1772 3097 
Q 1472 3097 1187 3025 
Q 903 2953 641 2809 
L 641 3341 
Q 956 3463 1253 3523 
Q 1550 3584 1831 3584 
Q 2591 3584 2966 3190 
Q 3341 2797 3341 1997 
z
" transform="scale(0.015625)"/>
       <path id="DejaVuSans-75" d="M 544 1381 
L 544 3500 
L 1119 3500 
L 1119 1403 
Q 1119 906 1312 657 
Q 1506 409 1894 409 
Q 2359 409 2629 706 
Q 2900 1003 2900 1516 
L 2900 3500 
L 3475 3500 
L 3475 0 
L 2900 0 
L 2900 538 
Q 2691 219 2414 64 
Q 2138 -91 1772 -91 
Q 1169 -91 856 284 
Q 544 659 544 1381 
z
M 1991 3584 
L 1991 3584 
z
" transform="scale(0.015625)"/>
      </defs>
      <use xlink:href="#DejaVuSans-6c"/>
      <use xlink:href="#DejaVuSans-6f" x="27.783203"/>
      <use xlink:href="#DejaVuSans-73" x="88.964844"/>
      <use xlink:href="#DejaVuSans-73" x="141.064453"/>
      <use xlink:href="#DejaVuSans-20" x="193.164062"/>
      <use xlink:href="#DejaVuSans-76" x="224.951172"/>
      <use xlink:href="#DejaVuSans-61" x="284.130859"/>
      <use xlink:href="#DejaVuSans-6c" x="345.410156"/>
      <use xlink:href="#DejaVuSans-75" x="373.193359"/>
      <use xlink:href="#DejaVuSans-65" x="436.572266"/>
     </g>
    </g>
   </g>
   <g id="line2d_15">
    <path d="M 73.832727 264.38306 
L 75.87458 271.940059 
L 77.916432 274.195009 
L 79.958285 277.337567 
L 82.000137 266.539272 
L 84.04199 276.40926 
L 86.083842 277.186469 
L 88.125695 278.948215 
L 90.167547 264.642603 
L 92.2094 275.854373 
L 94.251252 278.645507 
L 96.293105 279.309979 
L 98.334957 261.85548 
L 100.37681 275.981815 
L 102.418662 279.125774 
L 104.460515 280.295007 
L 106.502367 258.962536 
L 108.54422 276.611858 
L 110.586072 279.288761 
L 112.627925 280.046123 
L 114.669777 254.935272 
L 116.71163 275.97963 
L 118.753482 278.471753 
L 120.795334 281.820401 
L 122.837187 251.865286 
L 124.879039 273.727675 
L 128.962744 282.53261 
L 131.004597 251.312052 
L 133.046449 271.926317 
L 135.088302 280.57216 
L 137.130154 283.177885 
L 139.172007 244.542823 
L 141.213859 275.887336 
L 143.255712 280.833049 
L 145.297564 282.675275 
L 147.339417 242.790533 
L 149.381269 273.03618 
L 151.423122 281.067715 
L 153.464974 282.671723 
L 155.506827 244.630463 
L 157.548679 272.718931 
L 159.590532 280.079943 
L 161.632384 280.906779 
L 163.674237 239.402857 
L 165.716089 270.459176 
L 167.757942 277.434128 
L 169.799794 280.728825 
L 171.841647 230.739803 
L 173.883499 263.985017 
L 175.925352 276.099041 
L 177.967204 278.060978 
L 180.009057 223.829663 
L 182.050909 266.118322 
L 184.092762 274.455625 
L 186.134614 279.501626 
L 188.176467 226.125135 
L 190.218319 265.738338 
L 194.302024 277.163976 
L 196.343877 224.960144 
L 198.385729 264.855704 
L 200.427581 273.652109 
L 202.469434 275.432276 
L 204.511286 217.554519 
L 206.553139 264.845607 
L 208.594991 268.333537 
L 210.636844 276.269856 
L 212.678696 214.018657 
L 214.720549 259.956277 
L 216.762401 269.661242 
L 218.804254 273.174 
L 220.846106 205.388775 
L 222.887959 255.936504 
L 224.929811 270.980944 
L 226.971664 265.873212 
L 229.013516 206.373478 
L 231.055369 255.92053 
L 233.097221 269.461095 
L 235.139074 269.476749 
L 237.180926 202.705506 
L 239.222779 254.323368 
L 241.264631 261.272407 
L 243.306484 272.90918 
L 245.348336 196.655992 
L 247.390189 253.558297 
L 249.432041 260.757455 
L 251.473894 267.537812 
L 253.515746 200.259047 
L 255.557599 247.027516 
L 259.641304 264.776074 
L 261.683156 188.603943 
L 263.725009 237.54671 
L 265.766861 254.150946 
L 267.808714 256.877629 
L 269.850566 186.621523 
L 271.892419 234.903165 
L 273.934271 252.437514 
L 275.976123 261.599536 
L 278.017976 181.17632 
L 280.059828 229.892843 
L 282.101681 248.484148 
L 284.143533 258.013681 
L 286.185386 165.284155 
L 288.227238 219.738078 
L 290.269091 245.802452 
L 292.310943 252.022332 
L 294.352796 171.470777 
L 296.394648 218.954212 
L 298.436501 230.199885 
L 300.478353 243.287962 
L 302.520206 157.213527 
L 304.562058 215.399179 
L 308.645763 242.045535 
L 310.687616 142.748941 
L 312.729468 208.295498 
L 314.771321 213.054438 
L 316.813173 233.141221 
L 318.855026 139.491324 
L 320.896878 190.940212 
L 322.938731 219.323218 
L 324.980583 228.853685 
L 327.022436 125.494939 
L 329.064288 184.434268 
L 331.106141 210.085568 
L 333.147993 221.515674 
L 335.189846 124.990495 
L 337.231698 170.096003 
L 339.273551 197.064715 
L 341.315403 213.676254 
L 343.357256 105.188752 
L 345.399108 162.303595 
L 347.440961 187.054589 
L 349.482813 198.626707 
L 351.524666 104.542562 
L 353.566518 145.568031 
L 355.60837 174.800466 
L 357.650223 195.61307 
L 359.692075 88.754149 
L 361.733928 133.973549 
L 363.77578 164.921758 
L 365.817633 177.034053 
L 367.859485 83.146281 
L 369.901338 124.458283 
L 371.94319 150.933618 
L 373.985043 170.248855 
L 376.026895 76.814576 
L 378.068748 119.966022 
L 380.1106 142.929193 
L 382.152453 157.816561 
L 384.194305 73.168994 
L 386.236158 105.685601 
L 388.27801 120.013706 
L 390.319863 142.317344 
L 392.361715 63.777268 
L 394.403568 94.726481 
L 396.44542 110.079634 
L 398.487273 140.524325 
L 398.487273 140.524325 
" clip-path="url(#pb39baf6edc)" style="fill: none; stroke: #0000ff; stroke-width: 1.5; stroke-linecap: square"/>
   </g>
   <g id="line2d_16">
    <path d="M 73.832727 281.954398 
L 75.87458 292.884063 
L 77.916432 294.558158 
L 79.958285 295.15905 
L 82.000137 284.987391 
L 84.04199 293.353615 
L 86.083842 294.72295 
L 88.125695 295.488 
L 90.167547 283.100135 
L 92.2094 288.697037 
L 94.251252 292.213683 
L 96.293105 293.549248 
L 98.334957 282.838906 
L 100.37681 290.975649 
L 102.418662 294.017515 
L 104.460515 295.060807 
L 106.502367 282.164678 
L 108.54422 287.710649 
L 110.586072 290.762683 
L 112.627925 293.299573 
L 114.669777 282.829081 
L 116.71163 286.725382 
L 118.753482 288.558202 
L 120.795334 289.8467 
L 122.837187 282.951764 
L 124.879039 286.518907 
L 126.920892 288.906331 
L 128.962744 289.495565 
L 131.004597 282.878514 
L 133.046449 286.196547 
L 135.088302 287.687981 
L 137.130154 288.815661 
L 139.172007 283.237993 
L 143.255712 287.556175 
L 145.297564 288.069682 
L 147.339417 283.285845 
L 149.381269 285.681082 
L 151.423122 286.987539 
L 153.464974 287.433551 
L 155.506827 283.060967 
L 157.548679 285.73625 
L 159.590532 286.954695 
L 161.632384 287.522978 
L 163.674237 283.572298 
L 165.716089 285.3002 
L 169.799794 287.366368 
L 171.841647 284.028765 
L 173.883499 285.640095 
L 175.925352 286.070542 
L 177.967204 287.054028 
L 180.009057 284.339414 
L 182.050909 285.915918 
L 184.092762 286.712104 
L 186.134614 286.945463 
L 188.176467 284.07843 
L 190.218319 286.310487 
L 192.260172 286.629747 
L 194.302024 286.753763 
L 196.343877 284.587632 
L 198.385729 285.439265 
L 200.427581 286.681998 
L 202.469434 287.250587 
L 204.511286 284.241 
L 206.553139 285.739215 
L 208.594991 286.804426 
L 210.636844 286.757593 
L 212.678696 285.280531 
L 214.720549 286.283422 
L 216.762401 286.722474 
L 218.804254 286.593548 
L 220.846106 284.91273 
L 222.887959 285.996379 
L 226.971664 286.870793 
L 229.013516 284.742353 
L 231.055369 285.916049 
L 233.097221 286.422746 
L 235.139074 287.282389 
L 237.180926 285.805428 
L 239.222779 285.80085 
L 241.264631 286.766993 
L 243.306484 287.001694 
L 245.348336 285.420831 
L 247.390189 286.2958 
L 249.432041 286.761436 
L 251.473894 287.370288 
L 253.515746 285.788331 
L 255.557599 286.341979 
L 257.599451 287.167991 
L 259.641304 286.993964 
L 261.683156 286.302473 
L 263.725009 286.488872 
L 265.766861 286.867698 
L 267.808714 286.629202 
L 269.850566 286.531197 
L 271.892419 286.980782 
L 273.934271 287.200579 
L 275.976123 287.149271 
L 278.017976 286.759632 
L 280.059828 287.203023 
L 284.143533 287.210679 
L 286.185386 286.98369 
L 288.227238 287.080124 
L 294.352796 287.006923 
L 296.394648 286.546889 
L 298.436501 287.734377 
L 300.478353 287.691943 
L 302.520206 288.076042 
L 304.562058 287.571672 
L 306.603911 287.676345 
L 308.645763 287.31768 
L 310.687616 288.121321 
L 312.729468 287.64857 
L 314.771321 287.716868 
L 316.813173 287.106831 
L 318.855026 288.689088 
L 320.896878 287.989846 
L 322.938731 288.040452 
L 324.980583 287.726949 
L 327.022436 288.675579 
L 329.064288 288.466396 
L 331.106141 288.116838 
L 333.147993 288.072095 
L 335.189846 288.827552 
L 337.231698 288.912066 
L 339.273551 288.281492 
L 341.315403 288.584189 
L 343.357256 289.963715 
L 345.399108 288.482678 
L 347.440961 288.570987 
L 349.482813 288.393615 
L 351.524666 289.312008 
L 353.566518 289.759793 
L 355.60837 288.977407 
L 357.650223 288.695189 
L 359.692075 289.14359 
L 361.733928 289.411445 
L 363.77578 289.256568 
L 365.817633 289.449124 
L 367.859485 290.201031 
L 369.901338 289.467291 
L 371.94319 289.708241 
L 373.985043 289.258303 
L 376.026895 290.515672 
L 378.068748 290.053175 
L 380.1106 289.988993 
L 382.152453 289.721194 
L 384.194305 290.287767 
L 386.236158 291.070312 
L 390.319863 290.181275 
L 392.361715 290.341345 
L 394.403568 291.418825 
L 396.44542 291.078705 
L 398.487273 290.356492 
L 398.487273 290.356492 
" clip-path="url(#pb39baf6edc)" style="fill: none; stroke: #008000; stroke-width: 1.5; stroke-linecap: square"/>
   </g>
   <g id="line2d_17">
    <path d="M 73.832727 245.786845 
L 75.87458 264.273509 
L 79.958285 271.946004 
L 82.000137 250.97605 
L 84.04199 269.212262 
L 86.083842 271.358805 
L 88.125695 273.885602 
L 90.167547 247.192125 
L 92.2094 264.000797 
L 94.251252 270.308577 
L 96.293105 272.308614 
L 98.334957 244.143773 
L 100.37681 266.406851 
L 102.418662 272.592675 
L 104.460515 274.805201 
L 106.502367 240.576601 
L 108.54422 263.771893 
L 110.586072 269.500831 
L 112.627925 272.795082 
L 114.669777 237.21374 
L 116.71163 262.1544 
L 118.753482 266.479342 
L 120.795334 271.116488 
L 122.837187 234.266437 
L 124.879039 259.695968 
L 126.920892 266.474314 
L 128.962744 271.477562 
L 131.004597 233.639953 
L 133.046449 257.572251 
L 135.088302 267.709528 
L 137.130154 271.442933 
L 139.172007 227.230203 
L 141.213859 260.794442 
L 143.255712 267.838611 
L 145.297564 270.194343 
L 147.339417 225.525765 
L 149.381269 258.16665 
L 151.423122 267.50464 
L 153.464974 269.55466 
L 155.506827 227.140816 
L 157.548679 257.904569 
L 159.590532 266.484024 
L 161.632384 267.879144 
L 163.674237 222.424541 
L 165.716089 255.208763 
L 167.757942 263.273954 
L 169.799794 267.54458 
L 171.841647 214.217955 
L 173.883499 249.074498 
L 175.925352 261.61897 
L 177.967204 264.564393 
L 180.009057 207.618463 
L 182.050909 251.483627 
L 184.092762 260.617115 
L 186.134614 265.896476 
L 188.176467 209.652951 
L 190.218319 251.498212 
L 192.260172 257.638751 
L 194.302024 263.367126 
L 196.343877 208.997162 
L 198.385729 249.744355 
L 200.427581 259.783494 
L 202.469434 262.132251 
L 204.511286 201.244906 
L 206.553139 250.034208 
L 208.594991 254.58735 
L 210.636844 262.476835 
L 212.678696 198.748575 
L 214.720549 245.689086 
L 216.762401 255.833103 
L 218.804254 259.216934 
L 220.846106 189.750891 
L 222.887959 241.38227 
L 224.929811 256.906166 
L 226.971664 252.193391 
L 229.013516 190.565218 
L 231.055369 241.285966 
L 233.097221 255.333228 
L 235.139074 256.208524 
L 237.180926 187.960321 
L 239.222779 239.573605 
L 241.264631 247.488787 
L 243.306484 259.360261 
L 245.348336 181.52621 
L 247.390189 239.303484 
L 251.473894 254.357487 
L 253.515746 185.496765 
L 255.557599 232.818882 
L 257.599451 242.679227 
L 259.641304 251.219425 
L 261.683156 174.355803 
L 263.725009 223.484968 
L 265.766861 240.468031 
L 267.808714 242.956217 
L 269.850566 172.602107 
L 271.892419 221.333333 
L 273.934271 239.08748 
L 275.976123 248.198194 
L 278.017976 167.385339 
L 280.059828 216.545253 
L 282.101681 235.115305 
L 284.143533 244.673747 
L 286.185386 151.717231 
L 288.227238 206.267589 
L 290.269091 232.284847 
L 292.310943 238.355495 
L 294.352796 157.927087 
L 296.394648 204.950487 
L 300.478353 230.429292 
L 302.520206 144.738956 
L 304.562058 202.420237 
L 308.645763 228.812602 
L 310.687616 130.319649 
L 312.729468 195.393454 
L 314.771321 200.220693 
L 316.813173 219.697438 
L 318.855026 127.629799 
L 320.896878 178.379445 
L 322.938731 206.813057 
L 324.980583 216.030021 
L 327.022436 113.619905 
L 329.064288 172.350051 
L 331.106141 197.651793 
L 333.147993 209.037155 
L 335.189846 113.267433 
L 337.231698 158.457456 
L 339.273551 184.795594 
L 341.315403 201.70983 
L 343.357256 94.601854 
L 345.399108 150.235659 
L 347.440961 175.074963 
L 349.482813 186.469709 
L 351.524666 93.303956 
L 353.566518 134.777211 
L 355.60837 163.227259 
L 357.650223 183.757646 
L 359.692075 77.347126 
L 361.733928 122.834381 
L 363.77578 153.627713 
L 365.817633 165.932564 
L 367.859485 72.796699 
L 369.901338 113.374961 
L 371.94319 140.091245 
L 373.985043 158.956545 
L 376.026895 66.779635 
L 378.068748 109.468584 
L 380.1106 132.367573 
L 382.152453 146.987141 
L 384.194305 62.906148 
L 386.236158 96.2053 
L 388.27801 110.04896 
L 390.319863 131.948005 
L 392.361715 53.568 
L 394.403568 85.594693 
L 396.44542 100.607726 
L 398.487273 130.330204 
L 398.487273 130.330204 
" clip-path="url(#pb39baf6edc)" style="fill: none; stroke: #ff0000; stroke-width: 1.5; stroke-linecap: square"/>
   </g>
   <g id="patch_3">
    <path d="M 57.6 307.584 
L 57.6 41.472 
" style="fill: none; stroke: #000000; stroke-width: 0.8; stroke-linejoin: miter; stroke-linecap: square"/>
   </g>
   <g id="patch_4">
    <path d="M 414.72 307.584 
L 414.72 41.472 
" style="fill: none; stroke: #000000; stroke-width: 0.8; stroke-linejoin: miter; stroke-linecap: square"/>
   </g>
   <g id="patch_5">
    <path d="M 57.6 307.584 
L 414.72 307.584 
" style="fill: none; stroke: #000000; stroke-width: 0.8; stroke-linejoin: miter; stroke-linecap: square"/>
   </g>
   <g id="patch_6">
    <path d="M 57.6 41.472 
L 414.72 41.472 
" style="fill: none; stroke: #000000; stroke-width: 0.8; stroke-linejoin: miter; stroke-linecap: square"/>
   </g>
   <g id="text_17">
    <!-- The loss curve on voc/voc_fixed_interactive/host/4 -->
    <g transform="translate(84.76125 35.472) scale(0.12 -0.12)">
     <defs>
      <path id="DejaVuSans-54" d="M -19 4666 
L 3928 4666 
L 3928 4134 
L 2272 4134 
L 2272 0 
L 1638 0 
L 1638 4134 
L -19 4134 
L -19 4666 
z
" transform="scale(0.015625)"/>
      <path id="DejaVuSans-72" d="M 2631 2963 
Q 2534 3019 2420 3045 
Q 2306 3072 2169 3072 
Q 1681 3072 1420 2755 
Q 1159 2438 1159 1844 
L 1159 0 
L 581 0 
L 581 3500 
L 1159 3500 
L 1159 2956 
Q 1341 3275 1631 3429 
Q 1922 3584 2338 3584 
Q 2397 3584 2469 3576 
Q 2541 3569 2628 3553 
L 2631 2963 
z
" transform="scale(0.015625)"/>
      <path id="DejaVuSans-6e" d="M 3513 2113 
L 3513 0 
L 2938 0 
L 2938 2094 
Q 2938 2591 2744 2837 
Q 2550 3084 2163 3084 
Q 1697 3084 1428 2787 
Q 1159 2491 1159 1978 
L 1159 0 
L 581 0 
L 581 3500 
L 1159 3500 
L 1159 2956 
Q 1366 3272 1645 3428 
Q 1925 3584 2291 3584 
Q 2894 3584 3203 3211 
Q 3513 2838 3513 2113 
z
" transform="scale(0.015625)"/>
      <path id="DejaVuSans-2f" d="M 1625 4666 
L 2156 4666 
L 531 -594 
L 0 -594 
L 1625 4666 
z
" transform="scale(0.015625)"/>
      <path id="DejaVuSans-5f" d="M 3263 -1063 
L 3263 -1509 
L -63 -1509 
L -63 -1063 
L 3263 -1063 
z
" transform="scale(0.015625)"/>
      <path id="DejaVuSans-66" d="M 2375 4863 
L 2375 4384 
L 1825 4384 
Q 1516 4384 1395 4259 
Q 1275 4134 1275 3809 
L 1275 3500 
L 2222 3500 
L 2222 3053 
L 1275 3053 
L 1275 0 
L 697 0 
L 697 3053 
L 147 3053 
L 147 3500 
L 697 3500 
L 697 3744 
Q 697 4328 969 4595 
Q 1241 4863 1831 4863 
L 2375 4863 
z
" transform="scale(0.015625)"/>
      <path id="DejaVuSans-69" d="M 603 3500 
L 1178 3500 
L 1178 0 
L 603 0 
L 603 3500 
z
M 603 4863 
L 1178 4863 
L 1178 4134 
L 603 4134 
L 603 4863 
z
" transform="scale(0.015625)"/>
      <path id="DejaVuSans-78" d="M 3513 3500 
L 2247 1797 
L 3578 0 
L 2900 0 
L 1881 1375 
L 863 0 
L 184 0 
L 1544 1831 
L 300 3500 
L 978 3500 
L 1906 2253 
L 2834 3500 
L 3513 3500 
z
" transform="scale(0.015625)"/>
      <path id="DejaVuSans-64" d="M 2906 2969 
L 2906 4863 
L 3481 4863 
L 3481 0 
L 2906 0 
L 2906 525 
Q 2725 213 2448 61 
Q 2172 -91 1784 -91 
Q 1150 -91 751 415 
Q 353 922 353 1747 
Q 353 2572 751 3078 
Q 1150 3584 1784 3584 
Q 2172 3584 2448 3432 
Q 2725 3281 2906 2969 
z
M 947 1747 
Q 947 1113 1208 752 
Q 1469 391 1925 391 
Q 2381 391 2643 752 
Q 2906 1113 2906 1747 
Q 2906 2381 2643 2742 
Q 2381 3103 1925 3103 
Q 1469 3103 1208 2742 
Q 947 2381 947 1747 
z
" transform="scale(0.015625)"/>
      <path id="DejaVuSans-74" d="M 1172 4494 
L 1172 3500 
L 2356 3500 
L 2356 3053 
L 1172 3053 
L 1172 1153 
Q 1172 725 1289 603 
Q 1406 481 1766 481 
L 2356 481 
L 2356 0 
L 1766 0 
Q 1100 0 847 248 
Q 594 497 594 1153 
L 594 3053 
L 172 3053 
L 172 3500 
L 594 3500 
L 594 4494 
L 1172 4494 
z
" transform="scale(0.015625)"/>
     </defs>
     <use xlink:href="#DejaVuSans-54"/>
     <use xlink:href="#DejaVuSans-68" x="61.083984"/>
     <use xlink:href="#DejaVuSans-65" x="124.462891"/>
     <use xlink:href="#DejaVuSans-20" x="185.986328"/>
     <use xlink:href="#DejaVuSans-6c" x="217.773438"/>
     <use xlink:href="#DejaVuSans-6f" x="245.556641"/>
     <use xlink:href="#DejaVuSans-73" x="306.738281"/>
     <use xlink:href="#DejaVuSans-73" x="358.837891"/>
     <use xlink:href="#DejaVuSans-20" x="410.9375"/>
     <use xlink:href="#DejaVuSans-63" x="442.724609"/>
     <use xlink:href="#DejaVuSans-75" x="497.705078"/>
     <use xlink:href="#DejaVuSans-72" x="561.083984"/>
     <use xlink:href="#DejaVuSans-76" x="602.197266"/>
     <use xlink:href="#DejaVuSans-65" x="661.376953"/>
     <use xlink:href="#DejaVuSans-20" x="722.900391"/>
     <use xlink:href="#DejaVuSans-6f" x="754.6875"/>
     <use xlink:href="#DejaVuSans-6e" x="815.869141"/>
     <use xlink:href="#DejaVuSans-20" x="879.248047"/>
     <use xlink:href="#DejaVuSans-76" x="911.035156"/>
     <use xlink:href="#DejaVuSans-6f" x="970.214844"/>
     <use xlink:href="#DejaVuSans-63" x="1031.396484"/>
     <use xlink:href="#DejaVuSans-2f" x="1086.376953"/>
     <use xlink:href="#DejaVuSans-76" x="1120.068359"/>
     <use xlink:href="#DejaVuSans-6f" x="1179.248047"/>
     <use xlink:href="#DejaVuSans-63" x="1240.429688"/>
     <use xlink:href="#DejaVuSans-5f" x="1295.410156"/>
     <use xlink:href="#DejaVuSans-66" x="1345.410156"/>
     <use xlink:href="#DejaVuSans-69" x="1380.615234"/>
     <use xlink:href="#DejaVuSans-78" x="1408.398438"/>
     <use xlink:href="#DejaVuSans-65" x="1464.453125"/>
     <use xlink:href="#DejaVuSans-64" x="1525.976562"/>
     <use xlink:href="#DejaVuSans-5f" x="1589.453125"/>
     <use xlink:href="#DejaVuSans-69" x="1639.453125"/>
     <use xlink:href="#DejaVuSans-6e" x="1667.236328"/>
     <use xlink:href="#DejaVuSans-74" x="1730.615234"/>
     <use xlink:href="#DejaVuSans-65" x="1769.824219"/>
     <use xlink:href="#DejaVuSans-72" x="1831.347656"/>
     <use xlink:href="#DejaVuSans-61" x="1872.460938"/>
     <use xlink:href="#DejaVuSans-63" x="1933.740234"/>
     <use xlink:href="#DejaVuSans-74" x="1988.720703"/>
     <use xlink:href="#DejaVuSans-69" x="2027.929688"/>
     <use xlink:href="#DejaVuSans-76" x="2055.712891"/>
     <use xlink:href="#DejaVuSans-65" x="2114.892578"/>
     <use xlink:href="#DejaVuSans-2f" x="2176.416016"/>
     <use xlink:href="#DejaVuSans-68" x="2210.107422"/>
     <use xlink:href="#DejaVuSans-6f" x="2273.486328"/>
     <use xlink:href="#DejaVuSans-73" x="2334.667969"/>
     <use xlink:href="#DejaVuSans-74" x="2386.767578"/>
     <use xlink:href="#DejaVuSans-2f" x="2425.976562"/>
     <use xlink:href="#DejaVuSans-34" x="2459.667969"/>
    </g>
   </g>
   <g id="legend_1">
    <g id="patch_7">
     <path d="M 64.6 94.34075 
L 159.598437 94.34075 
Q 161.598437 94.34075 161.598437 92.34075 
L 161.598437 48.472 
Q 161.598437 46.472 159.598437 46.472 
L 64.6 46.472 
Q 62.6 46.472 62.6 48.472 
L 62.6 92.34075 
Q 62.6 94.34075 64.6 94.34075 
z
" style="fill: #ffffff; opacity: 0.8; stroke: #cccccc; stroke-linejoin: miter"/>
    </g>
    <g id="line2d_18">
     <path d="M 66.6 54.570438 
L 76.6 54.570438 
L 86.6 54.570438 
" style="fill: none; stroke: #0000ff; stroke-width: 1.5; stroke-linecap: square"/>
    </g>
    <g id="text_18">
     <!-- entropy_loss -->
     <g transform="translate(94.6 58.070438) scale(0.1 -0.1)">
      <defs>
       <path id="DejaVuSans-79" d="M 2059 -325 
Q 1816 -950 1584 -1140 
Q 1353 -1331 966 -1331 
L 506 -1331 
L 506 -850 
L 844 -850 
Q 1081 -850 1212 -737 
Q 1344 -625 1503 -206 
L 1606 56 
L 191 3500 
L 800 3500 
L 1894 763 
L 2988 3500 
L 3597 3500 
L 2059 -325 
z
" transform="scale(0.015625)"/>
      </defs>
      <use xlink:href="#DejaVuSans-65"/>
      <use xlink:href="#DejaVuSans-6e" x="61.523438"/>
      <use xlink:href="#DejaVuSans-74" x="124.902344"/>
      <use xlink:href="#DejaVuSans-72" x="164.111328"/>
      <use xlink:href="#DejaVuSans-6f" x="202.974609"/>
      <use xlink:href="#DejaVuSans-70" x="264.15625"/>
      <use xlink:href="#DejaVuSans-79" x="327.632812"/>
      <use xlink:href="#DejaVuSans-5f" x="386.8125"/>
      <use xlink:href="#DejaVuSans-6c" x="436.8125"/>
      <use xlink:href="#DejaVuSans-6f" x="464.595703"/>
      <use xlink:href="#DejaVuSans-73" x="525.777344"/>
      <use xlink:href="#DejaVuSans-73" x="577.876953"/>
     </g>
    </g>
    <g id="line2d_19">
     <path d="M 66.6 69.526688 
L 76.6 69.526688 
L 86.6 69.526688 
" style="fill: none; stroke: #008000; stroke-width: 1.5; stroke-linecap: square"/>
    </g>
    <g id="text_19">
     <!-- relation_loss -->
     <g transform="translate(94.6 73.026688) scale(0.1 -0.1)">
      <use xlink:href="#DejaVuSans-72"/>
      <use xlink:href="#DejaVuSans-65" x="38.863281"/>
      <use xlink:href="#DejaVuSans-6c" x="100.386719"/>
      <use xlink:href="#DejaVuSans-61" x="128.169922"/>
      <use xlink:href="#DejaVuSans-74" x="189.449219"/>
      <use xlink:href="#DejaVuSans-69" x="228.658203"/>
      <use xlink:href="#DejaVuSans-6f" x="256.441406"/>
      <use xlink:href="#DejaVuSans-6e" x="317.623047"/>
      <use xlink:href="#DejaVuSans-5f" x="381.001953"/>
      <use xlink:href="#DejaVuSans-6c" x="431.001953"/>
      <use xlink:href="#DejaVuSans-6f" x="458.785156"/>
      <use xlink:href="#DejaVuSans-73" x="519.966797"/>
      <use xlink:href="#DejaVuSans-73" x="572.066406"/>
     </g>
    </g>
    <g id="line2d_20">
     <path d="M 66.6 84.482938 
L 76.6 84.482938 
L 86.6 84.482938 
" style="fill: none; stroke: #ff0000; stroke-width: 1.5; stroke-linecap: square"/>
    </g>
    <g id="text_20">
     <!-- overall_loss -->
     <g transform="translate(94.6 87.982938) scale(0.1 -0.1)">
      <use xlink:href="#DejaVuSans-6f"/>
      <use xlink:href="#DejaVuSans-76" x="61.181641"/>
      <use xlink:href="#DejaVuSans-65" x="120.361328"/>
      <use xlink:href="#DejaVuSans-72" x="181.884766"/>
      <use xlink:href="#DejaVuSans-61" x="222.998047"/>
      <use xlink:href="#DejaVuSans-6c" x="284.277344"/>
      <use xlink:href="#DejaVuSans-6c" x="312.060547"/>
      <use xlink:href="#DejaVuSans-5f" x="339.84375"/>
      <use xlink:href="#DejaVuSans-6c" x="389.84375"/>
      <use xlink:href="#DejaVuSans-6f" x="417.626953"/>
      <use xlink:href="#DejaVuSans-73" x="478.808594"/>
      <use xlink:href="#DejaVuSans-73" x="530.908203"/>
     </g>
    </g>
   </g>
  </g>
 </g>
 <defs>
  <clipPath id="pb39baf6edc">
   <rect x="57.6" y="41.472" width="357.12" height="266.112"/>
  </clipPath>
 </defs>
</svg>
