<?xml version="1.0" encoding="utf-8" standalone="no"?>
<!DOCTYPE svg PUBLIC "-//W3C//DTD SVG 1.1//EN"
  "http://www.w3.org/Graphics/SVG/1.1/DTD/svg11.dtd">
<svg xmlns:xlink="http://www.w3.org/1999/xlink" width="576pt" height="432pt" viewBox="0 0 576 432" xmlns="http://www.w3.org/2000/svg" version="1.1">
 <metadata>
  <rdf:RDF xmlns:dc="http://purl.org/dc/elements/1.1/" xmlns:cc="http://creativecommons.org/ns#" xmlns:rdf="http://www.w3.org/1999/02/22-rdf-syntax-ns#">
   <cc:Work>
    <dc:type rdf:resource="http://purl.org/dc/dcmitype/StillImage"/>
    <dc:date>2023-10-19T23:28:32.847066</dc:date>
    <dc:format>image/svg+xml</dc:format>
    <dc:creator>
     <cc:Agent>
      <dc:title>Matplotlib v3.7.1, https://matplotlib.org/</dc:title>
     </cc:Agent>
    </dc:creator>
   </cc:Work>
  </rdf:RDF>
 </metadata>
 <defs>
  <style type="text/css">*{stroke-linejoin: round; stroke-linecap: butt}</style>
 </defs>
 <g id="figure_1">
  <g id="patch_1">
   <path d="M 0 432 
L 576 432 
L 576 0 
L 0 0 
z
" style="fill: #ffffff"/>
  </g>
  <g id="axes_1">
   <g id="patch_2">
    <path d="M 72 384.48 
L 518.4 384.48 
L 518.4 51.84 
L 72 51.84 
z
" style="fill: #ffffff"/>
   </g>
   <g id="matplotlib.axis_1">
    <g id="xtick_1">
     <g id="line2d_1">
      <defs>
       <path id="mfd28c52486" d="M 0 0 
L 0 3.5 
" style="stroke: #000000; stroke-width: 0.8"/>
      </defs>
      <g>
       <use xlink:href="#mfd28c52486" x="92.290909" y="384.48" style="stroke: #000000; stroke-width: 0.8"/>
      </g>
     </g>
     <g id="text_1">
      <!-- 0 -->
      <g transform="translate(89.109659 399.078438) scale(0.1 -0.1)">
       <defs>
        <path id="DejaVuSans-30" d="M 2034 4250 
Q 1547 4250 1301 3770 
Q 1056 3291 1056 2328 
Q 1056 1369 1301 889 
Q 1547 409 2034 409 
Q 2525 409 2770 889 
Q 3016 1369 3016 2328 
Q 3016 3291 2770 3770 
Q 2525 4250 2034 4250 
z
M 2034 4750 
Q 2819 4750 3233 4129 
Q 3647 3509 3647 2328 
Q 3647 1150 3233 529 
Q 2819 -91 2034 -91 
Q 1250 -91 836 529 
Q 422 1150 422 2328 
Q 422 3509 836 4129 
Q 1250 4750 2034 4750 
z
" transform="scale(0.015625)"/>
       </defs>
       <use xlink:href="#DejaVuSans-30"/>
      </g>
     </g>
    </g>
    <g id="xtick_2">
     <g id="line2d_2">
      <g>
       <use xlink:href="#mfd28c52486" x="143.337221" y="384.48" style="stroke: #000000; stroke-width: 0.8"/>
      </g>
     </g>
     <g id="text_2">
      <!-- 20 -->
      <g transform="translate(136.974721 399.078438) scale(0.1 -0.1)">
       <defs>
        <path id="DejaVuSans-32" d="M 1228 531 
L 3431 531 
L 3431 0 
L 469 0 
L 469 531 
Q 828 903 1448 1529 
Q 2069 2156 2228 2338 
Q 2531 2678 2651 2914 
Q 2772 3150 2772 3378 
Q 2772 3750 2511 3984 
Q 2250 4219 1831 4219 
Q 1534 4219 1204 4116 
Q 875 4013 500 3803 
L 500 4441 
Q 881 4594 1212 4672 
Q 1544 4750 1819 4750 
Q 2544 4750 2975 4387 
Q 3406 4025 3406 3419 
Q 3406 3131 3298 2873 
Q 3191 2616 2906 2266 
Q 2828 2175 2409 1742 
Q 1991 1309 1228 531 
z
" transform="scale(0.015625)"/>
       </defs>
       <use xlink:href="#DejaVuSans-32"/>
       <use xlink:href="#DejaVuSans-30" x="63.623047"/>
      </g>
     </g>
    </g>
    <g id="xtick_3">
     <g id="line2d_3">
      <g>
       <use xlink:href="#mfd28c52486" x="194.383533" y="384.48" style="stroke: #000000; stroke-width: 0.8"/>
      </g>
     </g>
     <g id="text_3">
      <!-- 40 -->
      <g transform="translate(188.021033 399.078438) scale(0.1 -0.1)">
       <defs>
        <path id="DejaVuSans-34" d="M 2419 4116 
L 825 1625 
L 2419 1625 
L 2419 4116 
z
M 2253 4666 
L 3047 4666 
L 3047 1625 
L 3713 1625 
L 3713 1100 
L 3047 1100 
L 3047 0 
L 2419 0 
L 2419 1100 
L 313 1100 
L 313 1709 
L 2253 4666 
z
" transform="scale(0.015625)"/>
       </defs>
       <use xlink:href="#DejaVuSans-34"/>
       <use xlink:href="#DejaVuSans-30" x="63.623047"/>
      </g>
     </g>
    </g>
    <g id="xtick_4">
     <g id="line2d_4">
      <g>
       <use xlink:href="#mfd28c52486" x="245.429846" y="384.48" style="stroke: #000000; stroke-width: 0.8"/>
      </g>
     </g>
     <g id="text_4">
      <!-- 60 -->
      <g transform="translate(239.067346 399.078438) scale(0.1 -0.1)">
       <defs>
        <path id="DejaVuSans-36" d="M 2113 2584 
Q 1688 2584 1439 2293 
Q 1191 2003 1191 1497 
Q 1191 994 1439 701 
Q 1688 409 2113 409 
Q 2538 409 2786 701 
Q 3034 994 3034 1497 
Q 3034 2003 2786 2293 
Q 2538 2584 2113 2584 
z
M 3366 4563 
L 3366 3988 
Q 3128 4100 2886 4159 
Q 2644 4219 2406 4219 
Q 1781 4219 1451 3797 
Q 1122 3375 1075 2522 
Q 1259 2794 1537 2939 
Q 1816 3084 2150 3084 
Q 2853 3084 3261 2657 
Q 3669 2231 3669 1497 
Q 3669 778 3244 343 
Q 2819 -91 2113 -91 
Q 1303 -91 875 529 
Q 447 1150 447 2328 
Q 447 3434 972 4092 
Q 1497 4750 2381 4750 
Q 2619 4750 2861 4703 
Q 3103 4656 3366 4563 
z
" transform="scale(0.015625)"/>
       </defs>
       <use xlink:href="#DejaVuSans-36"/>
       <use xlink:href="#DejaVuSans-30" x="63.623047"/>
      </g>
     </g>
    </g>
    <g id="xtick_5">
     <g id="line2d_5">
      <g>
       <use xlink:href="#mfd28c52486" x="296.476158" y="384.48" style="stroke: #000000; stroke-width: 0.8"/>
      </g>
     </g>
     <g id="text_5">
      <!-- 80 -->
      <g transform="translate(290.113658 399.078438) scale(0.1 -0.1)">
       <defs>
        <path id="DejaVuSans-38" d="M 2034 2216 
Q 1584 2216 1326 1975 
Q 1069 1734 1069 1313 
Q 1069 891 1326 650 
Q 1584 409 2034 409 
Q 2484 409 2743 651 
Q 3003 894 3003 1313 
Q 3003 1734 2745 1975 
Q 2488 2216 2034 2216 
z
M 1403 2484 
Q 997 2584 770 2862 
Q 544 3141 544 3541 
Q 544 4100 942 4425 
Q 1341 4750 2034 4750 
Q 2731 4750 3128 4425 
Q 3525 4100 3525 3541 
Q 3525 3141 3298 2862 
Q 3072 2584 2669 2484 
Q 3125 2378 3379 2068 
Q 3634 1759 3634 1313 
Q 3634 634 3220 271 
Q 2806 -91 2034 -91 
Q 1263 -91 848 271 
Q 434 634 434 1313 
Q 434 1759 690 2068 
Q 947 2378 1403 2484 
z
M 1172 3481 
Q 1172 3119 1398 2916 
Q 1625 2713 2034 2713 
Q 2441 2713 2670 2916 
Q 2900 3119 2900 3481 
Q 2900 3844 2670 4047 
Q 2441 4250 2034 4250 
Q 1625 4250 1398 4047 
Q 1172 3844 1172 3481 
z
" transform="scale(0.015625)"/>
       </defs>
       <use xlink:href="#DejaVuSans-38"/>
       <use xlink:href="#DejaVuSans-30" x="63.623047"/>
      </g>
     </g>
    </g>
    <g id="xtick_6">
     <g id="line2d_6">
      <g>
       <use xlink:href="#mfd28c52486" x="347.52247" y="384.48" style="stroke: #000000; stroke-width: 0.8"/>
      </g>
     </g>
     <g id="text_6">
      <!-- 100 -->
      <g transform="translate(337.97872 399.078438) scale(0.1 -0.1)">
       <defs>
        <path id="DejaVuSans-31" d="M 794 531 
L 1825 531 
L 1825 4091 
L 703 3866 
L 703 4441 
L 1819 4666 
L 2450 4666 
L 2450 531 
L 3481 531 
L 3481 0 
L 794 0 
L 794 531 
z
" transform="scale(0.015625)"/>
       </defs>
       <use xlink:href="#DejaVuSans-31"/>
       <use xlink:href="#DejaVuSans-30" x="63.623047"/>
       <use xlink:href="#DejaVuSans-30" x="127.246094"/>
      </g>
     </g>
    </g>
    <g id="xtick_7">
     <g id="line2d_7">
      <g>
       <use xlink:href="#mfd28c52486" x="398.568782" y="384.48" style="stroke: #000000; stroke-width: 0.8"/>
      </g>
     </g>
     <g id="text_7">
      <!-- 120 -->
      <g transform="translate(389.025032 399.078438) scale(0.1 -0.1)">
       <use xlink:href="#DejaVuSans-31"/>
       <use xlink:href="#DejaVuSans-32" x="63.623047"/>
       <use xlink:href="#DejaVuSans-30" x="127.246094"/>
      </g>
     </g>
    </g>
    <g id="xtick_8">
     <g id="line2d_8">
      <g>
       <use xlink:href="#mfd28c52486" x="449.615094" y="384.48" style="stroke: #000000; stroke-width: 0.8"/>
      </g>
     </g>
     <g id="text_8">
      <!-- 140 -->
      <g transform="translate(440.071344 399.078438) scale(0.1 -0.1)">
       <use xlink:href="#DejaVuSans-31"/>
       <use xlink:href="#DejaVuSans-34" x="63.623047"/>
       <use xlink:href="#DejaVuSans-30" x="127.246094"/>
      </g>
     </g>
    </g>
    <g id="xtick_9">
     <g id="line2d_9">
      <g>
       <use xlink:href="#mfd28c52486" x="500.661407" y="384.48" style="stroke: #000000; stroke-width: 0.8"/>
      </g>
     </g>
     <g id="text_9">
      <!-- 160 -->
      <g transform="translate(491.117657 399.078438) scale(0.1 -0.1)">
       <use xlink:href="#DejaVuSans-31"/>
       <use xlink:href="#DejaVuSans-36" x="63.623047"/>
       <use xlink:href="#DejaVuSans-30" x="127.246094"/>
      </g>
     </g>
    </g>
    <g id="text_10">
     <!-- epoch -->
     <g transform="translate(279.971875 412.756563) scale(0.1 -0.1)">
      <defs>
       <path id="DejaVuSans-65" d="M 3597 1894 
L 3597 1613 
L 953 1613 
Q 991 1019 1311 708 
Q 1631 397 2203 397 
Q 2534 397 2845 478 
Q 3156 559 3463 722 
L 3463 178 
Q 3153 47 2828 -22 
Q 2503 -91 2169 -91 
Q 1331 -91 842 396 
Q 353 884 353 1716 
Q 353 2575 817 3079 
Q 1281 3584 2069 3584 
Q 2775 3584 3186 3129 
Q 3597 2675 3597 1894 
z
M 3022 2063 
Q 3016 2534 2758 2815 
Q 2500 3097 2075 3097 
Q 1594 3097 1305 2825 
Q 1016 2553 972 2059 
L 3022 2063 
z
" transform="scale(0.015625)"/>
       <path id="DejaVuSans-70" d="M 1159 525 
L 1159 -1331 
L 581 -1331 
L 581 3500 
L 1159 3500 
L 1159 2969 
Q 1341 3281 1617 3432 
Q 1894 3584 2278 3584 
Q 2916 3584 3314 3078 
Q 3713 2572 3713 1747 
Q 3713 922 3314 415 
Q 2916 -91 2278 -91 
Q 1894 -91 1617 61 
Q 1341 213 1159 525 
z
M 3116 1747 
Q 3116 2381 2855 2742 
Q 2594 3103 2138 3103 
Q 1681 3103 1420 2742 
Q 1159 2381 1159 1747 
Q 1159 1113 1420 752 
Q 1681 391 2138 391 
Q 2594 391 2855 752 
Q 3116 1113 3116 1747 
z
" transform="scale(0.015625)"/>
       <path id="DejaVuSans-6f" d="M 1959 3097 
Q 1497 3097 1228 2736 
Q 959 2375 959 1747 
Q 959 1119 1226 758 
Q 1494 397 1959 397 
Q 2419 397 2687 759 
Q 2956 1122 2956 1747 
Q 2956 2369 2687 2733 
Q 2419 3097 1959 3097 
z
M 1959 3584 
Q 2709 3584 3137 3096 
Q 3566 2609 3566 1747 
Q 3566 888 3137 398 
Q 2709 -91 1959 -91 
Q 1206 -91 779 398 
Q 353 888 353 1747 
Q 353 2609 779 3096 
Q 1206 3584 1959 3584 
z
" transform="scale(0.015625)"/>
       <path id="DejaVuSans-63" d="M 3122 3366 
L 3122 2828 
Q 2878 2963 2633 3030 
Q 2388 3097 2138 3097 
Q 1578 3097 1268 2742 
Q 959 2388 959 1747 
Q 959 1106 1268 751 
Q 1578 397 2138 397 
Q 2388 397 2633 464 
Q 2878 531 3122 666 
L 3122 134 
Q 2881 22 2623 -34 
Q 2366 -91 2075 -91 
Q 1284 -91 818 406 
Q 353 903 353 1747 
Q 353 2603 823 3093 
Q 1294 3584 2113 3584 
Q 2378 3584 2631 3529 
Q 2884 3475 3122 3366 
z
" transform="scale(0.015625)"/>
       <path id="DejaVuSans-68" d="M 3513 2113 
L 3513 0 
L 2938 0 
L 2938 2094 
Q 2938 2591 2744 2837 
Q 2550 3084 2163 3084 
Q 1697 3084 1428 2787 
Q 1159 2491 1159 1978 
L 1159 0 
L 581 0 
L 581 4863 
L 1159 4863 
L 1159 2956 
Q 1366 3272 1645 3428 
Q 1925 3584 2291 3584 
Q 2894 3584 3203 3211 
Q 3513 2838 3513 2113 
z
" transform="scale(0.015625)"/>
      </defs>
      <use xlink:href="#DejaVuSans-65"/>
      <use xlink:href="#DejaVuSans-70" x="61.523438"/>
      <use xlink:href="#DejaVuSans-6f" x="125"/>
      <use xlink:href="#DejaVuSans-63" x="186.181641"/>
      <use xlink:href="#DejaVuSans-68" x="241.162109"/>
     </g>
    </g>
   </g>
   <g id="matplotlib.axis_2">
    <g id="ytick_1">
     <g id="line2d_10">
      <defs>
       <path id="m83ffed5098" d="M 0 0 
L -3.5 0 
" style="stroke: #000000; stroke-width: 0.8"/>
      </defs>
      <g>
       <use xlink:href="#m83ffed5098" x="72" y="384.48" style="stroke: #000000; stroke-width: 0.8"/>
      </g>
     </g>
     <g id="text_11">
      <!-- 0 -->
      <g transform="translate(58.6375 388.279219) scale(0.1 -0.1)">
       <use xlink:href="#DejaVuSans-30"/>
      </g>
     </g>
    </g>
    <g id="ytick_2">
     <g id="line2d_11">
      <g>
       <use xlink:href="#m83ffed5098" x="72" y="317.952" style="stroke: #000000; stroke-width: 0.8"/>
      </g>
     </g>
     <g id="text_12">
      <!-- 20 -->
      <g transform="translate(52.275 321.751219) scale(0.1 -0.1)">
       <use xlink:href="#DejaVuSans-32"/>
       <use xlink:href="#DejaVuSans-30" x="63.623047"/>
      </g>
     </g>
    </g>
    <g id="ytick_3">
     <g id="line2d_12">
      <g>
       <use xlink:href="#m83ffed5098" x="72" y="251.424" style="stroke: #000000; stroke-width: 0.8"/>
      </g>
     </g>
     <g id="text_13">
      <!-- 40 -->
      <g transform="translate(52.275 255.223219) scale(0.1 -0.1)">
       <use xlink:href="#DejaVuSans-34"/>
       <use xlink:href="#DejaVuSans-30" x="63.623047"/>
      </g>
     </g>
    </g>
    <g id="ytick_4">
     <g id="line2d_13">
      <g>
       <use xlink:href="#m83ffed5098" x="72" y="184.896" style="stroke: #000000; stroke-width: 0.8"/>
      </g>
     </g>
     <g id="text_14">
      <!-- 60 -->
      <g transform="translate(52.275 188.695219) scale(0.1 -0.1)">
       <use xlink:href="#DejaVuSans-36"/>
       <use xlink:href="#DejaVuSans-30" x="63.623047"/>
      </g>
     </g>
    </g>
    <g id="ytick_5">
     <g id="line2d_14">
      <g>
       <use xlink:href="#m83ffed5098" x="72" y="118.368" style="stroke: #000000; stroke-width: 0.8"/>
      </g>
     </g>
     <g id="text_15">
      <!-- 80 -->
      <g transform="translate(52.275 122.167219) scale(0.1 -0.1)">
       <use xlink:href="#DejaVuSans-38"/>
       <use xlink:href="#DejaVuSans-30" x="63.623047"/>
      </g>
     </g>
    </g>
    <g id="ytick_6">
     <g id="line2d_15">
      <g>
       <use xlink:href="#m83ffed5098" x="72" y="51.84" style="stroke: #000000; stroke-width: 0.8"/>
      </g>
     </g>
     <g id="text_16">
      <!-- 100 -->
      <g transform="translate(45.9125 55.639219) scale(0.1 -0.1)">
       <use xlink:href="#DejaVuSans-31"/>
       <use xlink:href="#DejaVuSans-30" x="63.623047"/>
       <use xlink:href="#DejaVuSans-30" x="127.246094"/>
      </g>
     </g>
    </g>
    <g id="text_17">
     <!-- rate -->
     <g transform="translate(39.832812 228.31625) rotate(-90) scale(0.1 -0.1)">
      <defs>
       <path id="DejaVuSans-72" d="M 2631 2963 
Q 2534 3019 2420 3045 
Q 2306 3072 2169 3072 
Q 1681 3072 1420 2755 
Q 1159 2438 1159 1844 
L 1159 0 
L 581 0 
L 581 3500 
L 1159 3500 
L 1159 2956 
Q 1341 3275 1631 3429 
Q 1922 3584 2338 3584 
Q 2397 3584 2469 3576 
Q 2541 3569 2628 3553 
L 2631 2963 
z
" transform="scale(0.015625)"/>
       <path id="DejaVuSans-61" d="M 2194 1759 
Q 1497 1759 1228 1600 
Q 959 1441 959 1056 
Q 959 750 1161 570 
Q 1363 391 1709 391 
Q 2188 391 2477 730 
Q 2766 1069 2766 1631 
L 2766 1759 
L 2194 1759 
z
M 3341 1997 
L 3341 0 
L 2766 0 
L 2766 531 
Q 2569 213 2275 61 
Q 1981 -91 1556 -91 
Q 1019 -91 701 211 
Q 384 513 384 1019 
Q 384 1609 779 1909 
Q 1175 2209 1959 2209 
L 2766 2209 
L 2766 2266 
Q 2766 2663 2505 2880 
Q 2244 3097 1772 3097 
Q 1472 3097 1187 3025 
Q 903 2953 641 2809 
L 641 3341 
Q 956 3463 1253 3523 
Q 1550 3584 1831 3584 
Q 2591 3584 2966 3190 
Q 3341 2797 3341 1997 
z
" transform="scale(0.015625)"/>
       <path id="DejaVuSans-74" d="M 1172 4494 
L 1172 3500 
L 2356 3500 
L 2356 3053 
L 1172 3053 
L 1172 1153 
Q 1172 725 1289 603 
Q 1406 481 1766 481 
L 2356 481 
L 2356 0 
L 1766 0 
Q 1100 0 847 248 
Q 594 497 594 1153 
L 594 3053 
L 172 3053 
L 172 3500 
L 594 3500 
L 594 4494 
L 1172 4494 
z
" transform="scale(0.015625)"/>
      </defs>
      <use xlink:href="#DejaVuSans-72"/>
      <use xlink:href="#DejaVuSans-61" x="41.113281"/>
      <use xlink:href="#DejaVuSans-74" x="102.392578"/>
      <use xlink:href="#DejaVuSans-65" x="141.601562"/>
     </g>
    </g>
   </g>
   <g id="line2d_16">
    <path d="M 92.290909 235.722347 
L 94.843225 162.434577 
L 97.39554 121.467593 
L 99.947856 117.348143 
L 102.500172 206.417863 
L 105.052487 142.798636 
L 107.604803 175.307767 
L 110.157118 116.577832 
L 112.709434 178.916959 
L 115.26175 145.648683 
L 117.814065 109.366757 
L 120.366381 145.196084 
L 122.918696 152.62224 
L 125.471012 170.393884 
L 128.023328 163.175094 
L 130.575643 127.99944 
L 133.127959 150.26055 
L 135.680274 156.151871 
L 138.23259 189.961164 
L 140.784906 121.916131 
L 143.337221 142.497521 
L 145.889537 178.409885 
L 148.441852 162.628062 
L 150.994168 145.176137 
L 153.546484 191.600775 
L 156.098799 186.304375 
L 158.651115 167.807493 
L 161.203431 120.079977 
L 163.755746 175.511074 
L 166.308062 173.571008 
L 168.860377 100.54258 
L 171.412693 163.618379 
L 173.965009 187.630296 
L 176.517324 159.753855 
L 179.06964 170.195095 
L 181.621955 152.124722 
L 184.174271 176.593666 
L 186.726587 162.311467 
L 189.278902 157.835399 
L 191.831218 183.328401 
L 194.383533 172.028838 
L 196.935849 156.184939 
L 199.488165 146.956458 
L 202.04048 134.827401 
L 204.592796 152.645868 
L 207.145111 179.396548 
L 209.697427 151.013858 
L 212.249743 141.092089 
L 214.802058 183.556984 
L 217.354374 160.285152 
L 219.90669 199.41394 
L 222.459005 120.738725 
L 225.011321 168.791186 
L 227.563636 155.400543 
L 230.115952 146.126127 
L 232.668268 167.673673 
L 235.220583 119.105598 
L 237.772899 169.030174 
L 240.325214 187.832296 
L 242.87753 134.927291 
L 245.429846 189.987418 
L 247.982161 162.379278 
L 250.534477 145.676802 
L 253.086792 191.589431 
L 255.639108 117.832465 
L 258.191424 155.36278 
L 260.743739 168.977844 
L 263.296055 119.397653 
L 265.84837 156.332286 
L 268.400686 191.28206 
L 270.953002 130.526369 
L 273.505317 177.42415 
L 276.057633 170.638227 
L 278.609949 122.66213 
L 281.162264 136.750096 
L 283.71458 101.06936 
L 286.266895 183.81927 
L 288.819211 129.983347 
L 291.371527 216.569661 
L 293.923842 113.906423 
L 296.476158 168.195021 
L 299.028473 169.03355 
L 301.580789 180.344736 
L 304.133105 140.756003 
L 306.68542 133.903602 
L 309.237736 164.694982 
L 311.790051 115.995143 
L 314.342367 149.551655 
L 316.894683 134.495655 
L 319.446998 165.952102 
L 321.999314 169.706636 
L 324.55163 168.123404 
L 327.103945 143.264228 
L 329.656261 173.611575 
L 332.208576 149.880788 
L 334.760892 145.778544 
L 337.313208 171.340626 
L 339.865523 150.302958 
L 342.417839 179.246599 
L 344.970154 177.251754 
L 347.52247 157.251822 
L 350.074786 132.267328 
L 352.627101 166.428963 
L 355.179417 179.572471 
L 357.731732 147.777704 
L 360.284048 159.569988 
L 362.836364 172.140997 
L 365.388679 141.973025 
L 367.940995 125.989393 
L 370.49331 178.141699 
L 373.045626 169.181633 
L 375.597942 97.230519 
L 378.150257 178.181657 
L 380.702573 138.16715 
L 383.254889 183.744898 
L 385.807204 196.066399 
L 388.35952 175.637166 
L 390.911835 111.385763 
L 393.464151 123.65166 
L 396.016467 169.984911 
L 398.568782 125.622598 
L 401.121098 118.489766 
L 403.673413 150.251795 
L 406.225729 119.498634 
L 408.778045 184.731573 
L 411.33036 157.770811 
L 413.882676 176.654663 
L 416.434991 174.652433 
L 418.987307 143.747255 
L 421.539623 142.595354 
L 424.091938 153.979504 
L 426.644254 146.790813 
L 429.196569 162.741199 
L 431.748885 140.444051 
L 434.301201 169.388315 
L 436.853516 177.671335 
L 439.405832 144.692602 
L 441.958148 166.680285 
L 444.510463 171.400113 
L 447.062779 155.585932 
L 449.615094 142.44014 
L 452.16741 164.700337 
L 454.719726 171.889091 
L 457.272041 126.513533 
L 459.824357 194.008426 
L 462.376672 151.219651 
L 464.928988 156.664058 
L 467.481304 125.760429 
L 470.033619 163.668679 
L 472.585935 194.489689 
L 475.13825 150.292857 
L 477.690566 185.352393 
L 480.242882 188.471984 
L 482.795197 153.710467 
L 485.347513 169.108721 
L 487.899828 128.359026 
L 490.452144 132.658613 
L 493.00446 188.227742 
L 495.556775 168.614679 
L 498.109091 131.534805 
L 498.109091 131.534805 
" clip-path="url(#p7273c55e84)" style="fill: none; stroke: #0000ff; stroke-width: 1.5; stroke-linecap: square"/>
   </g>
   <g id="line2d_17">
    <path d="M 92.290909 166.13909 
L 94.843225 170.764256 
L 97.39554 181.015792 
L 99.947856 193.966056 
L 102.500172 106.112254 
L 105.052487 176.896697 
L 107.604803 127.833439 
L 110.157118 130.531165 
L 112.709434 99.913297 
L 115.26175 135.082581 
L 117.814065 149.869469 
L 120.366381 156.002722 
L 122.918696 113.371472 
L 125.471012 162.534162 
L 128.023328 77.422105 
L 130.575643 113.940354 
L 133.127959 142.254192 
L 135.680274 136.061528 
L 138.23259 109.47119 
L 140.784906 71.821748 
L 143.337221 143.452206 
L 145.889537 153.074255 
L 148.441852 188.929735 
L 150.994168 114.492436 
L 153.546484 151.364385 
L 156.098799 122.608937 
L 158.651115 115.089616 
L 161.203431 153.508074 
L 163.755746 111.456949 
L 166.308062 177.267577 
L 168.860377 142.366492 
L 171.412693 212.878332 
L 173.965009 152.038182 
L 176.517324 157.04212 
L 179.06964 168.965942 
L 181.621955 115.712072 
L 184.174271 138.858103 
L 186.726587 109.810727 
L 189.278902 212.702155 
L 191.831218 136.293183 
L 194.383533 129.462023 
L 196.935849 147.017721 
L 199.488165 102.943429 
L 202.04048 157.61217 
L 204.592796 144.964049 
L 207.145111 159.031281 
L 209.697427 118.180377 
L 212.249743 151.778078 
L 214.802058 125.021612 
L 217.354374 199.362916 
L 219.90669 178.602558 
L 222.459005 148.317426 
L 225.011321 176.940894 
L 227.563636 172.766322 
L 230.115952 156.384261 
L 232.668268 150.194846 
L 235.220583 189.959362 
L 237.772899 168.439923 
L 240.325214 181.505202 
L 242.87753 147.168825 
L 245.429846 185.793292 
L 247.982161 202.015266 
L 250.534477 144.339359 
L 253.086792 194.913395 
L 255.639108 157.310421 
L 258.191424 166.341255 
L 260.743739 153.688261 
L 263.296055 211.510677 
L 265.84837 174.629186 
L 268.400686 147.386724 
L 270.953002 153.020809 
L 273.505317 153.188864 
L 276.057633 172.094618 
L 278.609949 156.033404 
L 281.162264 154.053152 
L 283.71458 134.695687 
L 286.266895 159.848973 
L 288.819211 161.479816 
L 291.371527 176.765364 
L 293.923842 210.397262 
L 296.476158 180.415339 
L 299.028473 100.52715 
L 301.580789 161.286356 
L 304.133105 153.04436 
L 306.68542 175.605215 
L 309.237736 157.770379 
L 311.790051 143.235246 
L 314.342367 144.319818 
L 316.894683 166.546617 
L 319.446998 183.897194 
L 321.999314 163.327923 
L 324.55163 213.75036 
L 327.103945 147.974564 
L 329.656261 116.772637 
L 332.208576 202.541551 
L 334.760892 197.674757 
L 337.313208 149.352079 
L 339.865523 206.375037 
L 342.417839 196.656435 
L 344.970154 150.670234 
L 347.52247 145.829986 
L 350.074786 168.174871 
L 352.627101 154.29445 
L 355.179417 167.236834 
L 357.731732 152.575138 
L 360.284048 205.463952 
L 362.836364 187.598218 
L 365.388679 183.885558 
L 367.940995 141.507204 
L 373.045626 210.628257 
L 375.597942 165.685375 
L 378.150257 124.358829 
L 380.702573 168.342318 
L 383.254889 142.609668 
L 385.807204 133.991157 
L 388.35952 168.653914 
L 390.911835 161.323815 
L 393.464151 161.312724 
L 396.016467 163.270238 
L 398.568782 114.83436 
L 401.121098 158.170013 
L 403.673413 188.299297 
L 406.225729 164.39907 
L 408.778045 134.48596 
L 411.33036 207.795251 
L 413.882676 163.562953 
L 416.434991 183.00475 
L 418.987307 154.811002 
L 421.539623 117.153211 
L 424.091938 140.676365 
L 426.644254 148.781521 
L 429.196569 178.415875 
L 431.748885 150.551514 
L 434.301201 202.525473 
L 436.853516 160.069055 
L 439.405832 187.679365 
L 441.958148 170.658657 
L 444.510463 158.618653 
L 447.062779 138.018991 
L 449.615094 190.627551 
L 452.16741 160.079181 
L 454.719726 151.916137 
L 457.272041 161.01737 
L 462.376672 128.051313 
L 464.928988 162.772466 
L 467.481304 167.734657 
L 470.033619 112.571417 
L 472.585935 153.410621 
L 475.13825 168.300875 
L 477.690566 118.053181 
L 480.242882 139.106812 
L 482.795197 164.213478 
L 485.347513 166.992161 
L 487.899828 168.370488 
L 490.452144 178.688883 
L 493.00446 150.460913 
L 495.556775 155.239364 
L 498.109091 177.491301 
L 498.109091 177.491301 
" clip-path="url(#p7273c55e84)" style="fill: none; stroke: #008000; stroke-width: 1.5; stroke-linecap: square"/>
   </g>
   <g id="patch_3">
    <path d="M 72 384.48 
L 72 51.84 
" style="fill: none; stroke: #000000; stroke-width: 0.8; stroke-linejoin: miter; stroke-linecap: square"/>
   </g>
   <g id="patch_4">
    <path d="M 518.4 384.48 
L 518.4 51.84 
" style="fill: none; stroke: #000000; stroke-width: 0.8; stroke-linejoin: miter; stroke-linecap: square"/>
   </g>
   <g id="patch_5">
    <path d="M 72 384.48 
L 518.4 384.48 
" style="fill: none; stroke: #000000; stroke-width: 0.8; stroke-linejoin: miter; stroke-linecap: square"/>
   </g>
   <g id="patch_6">
    <path d="M 72 51.84 
L 518.4 51.84 
" style="fill: none; stroke: #000000; stroke-width: 0.8; stroke-linejoin: miter; stroke-linecap: square"/>
   </g>
   <g id="legend_1">
    <g id="patch_7">
     <path d="M 79 89.19625 
L 160.740625 89.19625 
Q 162.740625 89.19625 162.740625 87.19625 
L 162.740625 58.84 
Q 162.740625 56.84 160.740625 56.84 
L 79 56.84 
Q 77 56.84 77 58.84 
L 77 87.19625 
Q 77 89.19625 79 89.19625 
z
" style="fill: #ffffff; opacity: 0.8; stroke: #cccccc; stroke-linejoin: miter"/>
    </g>
    <g id="line2d_18">
     <path d="M 81 64.938437 
L 91 64.938437 
L 101 64.938437 
" style="fill: none; stroke: #0000ff; stroke-width: 1.5; stroke-linecap: square"/>
    </g>
    <g id="text_18">
     <!-- train mAP -->
     <g transform="translate(109 68.438437) scale(0.1 -0.1)">
      <defs>
       <path id="DejaVuSans-69" d="M 603 3500 
L 1178 3500 
L 1178 0 
L 603 0 
L 603 3500 
z
M 603 4863 
L 1178 4863 
L 1178 4134 
L 603 4134 
L 603 4863 
z
" transform="scale(0.015625)"/>
       <path id="DejaVuSans-6e" d="M 3513 2113 
L 3513 0 
L 2938 0 
L 2938 2094 
Q 2938 2591 2744 2837 
Q 2550 3084 2163 3084 
Q 1697 3084 1428 2787 
Q 1159 2491 1159 1978 
L 1159 0 
L 581 0 
L 581 3500 
L 1159 3500 
L 1159 2956 
Q 1366 3272 1645 3428 
Q 1925 3584 2291 3584 
Q 2894 3584 3203 3211 
Q 3513 2838 3513 2113 
z
" transform="scale(0.015625)"/>
       <path id="DejaVuSans-20" transform="scale(0.015625)"/>
       <path id="DejaVuSans-6d" d="M 3328 2828 
Q 3544 3216 3844 3400 
Q 4144 3584 4550 3584 
Q 5097 3584 5394 3201 
Q 5691 2819 5691 2113 
L 5691 0 
L 5113 0 
L 5113 2094 
Q 5113 2597 4934 2840 
Q 4756 3084 4391 3084 
Q 3944 3084 3684 2787 
Q 3425 2491 3425 1978 
L 3425 0 
L 2847 0 
L 2847 2094 
Q 2847 2600 2669 2842 
Q 2491 3084 2119 3084 
Q 1678 3084 1418 2786 
Q 1159 2488 1159 1978 
L 1159 0 
L 581 0 
L 581 3500 
L 1159 3500 
L 1159 2956 
Q 1356 3278 1631 3431 
Q 1906 3584 2284 3584 
Q 2666 3584 2933 3390 
Q 3200 3197 3328 2828 
z
" transform="scale(0.015625)"/>
       <path id="DejaVuSans-41" d="M 2188 4044 
L 1331 1722 
L 3047 1722 
L 2188 4044 
z
M 1831 4666 
L 2547 4666 
L 4325 0 
L 3669 0 
L 3244 1197 
L 1141 1197 
L 716 0 
L 50 0 
L 1831 4666 
z
" transform="scale(0.015625)"/>
       <path id="DejaVuSans-50" d="M 1259 4147 
L 1259 2394 
L 2053 2394 
Q 2494 2394 2734 2622 
Q 2975 2850 2975 3272 
Q 2975 3691 2734 3919 
Q 2494 4147 2053 4147 
L 1259 4147 
z
M 628 4666 
L 2053 4666 
Q 2838 4666 3239 4311 
Q 3641 3956 3641 3272 
Q 3641 2581 3239 2228 
Q 2838 1875 2053 1875 
L 1259 1875 
L 1259 0 
L 628 0 
L 628 4666 
z
" transform="scale(0.015625)"/>
      </defs>
      <use xlink:href="#DejaVuSans-74"/>
      <use xlink:href="#DejaVuSans-72" x="39.208984"/>
      <use xlink:href="#DejaVuSans-61" x="80.322266"/>
      <use xlink:href="#DejaVuSans-69" x="141.601562"/>
      <use xlink:href="#DejaVuSans-6e" x="169.384766"/>
      <use xlink:href="#DejaVuSans-20" x="232.763672"/>
      <use xlink:href="#DejaVuSans-6d" x="264.550781"/>
      <use xlink:href="#DejaVuSans-41" x="361.962891"/>
      <use xlink:href="#DejaVuSans-50" x="430.371094"/>
     </g>
    </g>
    <g id="line2d_19">
     <path d="M 81 79.616562 
L 91 79.616562 
L 101 79.616562 
" style="fill: none; stroke: #008000; stroke-width: 1.5; stroke-linecap: square"/>
    </g>
    <g id="text_19">
     <!-- valid mAP -->
     <g transform="translate(109 83.116562) scale(0.1 -0.1)">
      <defs>
       <path id="DejaVuSans-76" d="M 191 3500 
L 800 3500 
L 1894 563 
L 2988 3500 
L 3597 3500 
L 2284 0 
L 1503 0 
L 191 3500 
z
" transform="scale(0.015625)"/>
       <path id="DejaVuSans-6c" d="M 603 4863 
L 1178 4863 
L 1178 0 
L 603 0 
L 603 4863 
z
" transform="scale(0.015625)"/>
       <path id="DejaVuSans-64" d="M 2906 2969 
L 2906 4863 
L 3481 4863 
L 3481 0 
L 2906 0 
L 2906 525 
Q 2725 213 2448 61 
Q 2172 -91 1784 -91 
Q 1150 -91 751 415 
Q 353 922 353 1747 
Q 353 2572 751 3078 
Q 1150 3584 1784 3584 
Q 2172 3584 2448 3432 
Q 2725 3281 2906 2969 
z
M 947 1747 
Q 947 1113 1208 752 
Q 1469 391 1925 391 
Q 2381 391 2643 752 
Q 2906 1113 2906 1747 
Q 2906 2381 2643 2742 
Q 2381 3103 1925 3103 
Q 1469 3103 1208 2742 
Q 947 2381 947 1747 
z
" transform="scale(0.015625)"/>
      </defs>
      <use xlink:href="#DejaVuSans-76"/>
      <use xlink:href="#DejaVuSans-61" x="59.179688"/>
      <use xlink:href="#DejaVuSans-6c" x="120.458984"/>
      <use xlink:href="#DejaVuSans-69" x="148.242188"/>
      <use xlink:href="#DejaVuSans-64" x="176.025391"/>
      <use xlink:href="#DejaVuSans-20" x="239.501953"/>
      <use xlink:href="#DejaVuSans-6d" x="271.289062"/>
      <use xlink:href="#DejaVuSans-41" x="368.701172"/>
      <use xlink:href="#DejaVuSans-50" x="437.109375"/>
     </g>
    </g>
   </g>
  </g>
  <g id="axes_2">
   <g id="matplotlib.axis_3">
    <g id="ytick_7">
     <g id="line2d_20">
      <defs>
       <path id="m19f9c4218b" d="M 0 0 
L 3.5 0 
" style="stroke: #000000; stroke-width: 0.8"/>
      </defs>
      <g>
       <use xlink:href="#m19f9c4218b" x="518.4" y="348.61795" style="stroke: #000000; stroke-width: 0.8"/>
      </g>
     </g>
     <g id="text_20">
      <!-- 2.5 -->
      <g transform="translate(525.4 352.417169) scale(0.1 -0.1)">
       <defs>
        <path id="DejaVuSans-2e" d="M 684 794 
L 1344 794 
L 1344 0 
L 684 0 
L 684 794 
z
" transform="scale(0.015625)"/>
        <path id="DejaVuSans-35" d="M 691 4666 
L 3169 4666 
L 3169 4134 
L 1269 4134 
L 1269 2991 
Q 1406 3038 1543 3061 
Q 1681 3084 1819 3084 
Q 2600 3084 3056 2656 
Q 3513 2228 3513 1497 
Q 3513 744 3044 326 
Q 2575 -91 1722 -91 
Q 1428 -91 1123 -41 
Q 819 9 494 109 
L 494 744 
Q 775 591 1075 516 
Q 1375 441 1709 441 
Q 2250 441 2565 725 
Q 2881 1009 2881 1497 
Q 2881 1984 2565 2268 
Q 2250 2553 1709 2553 
Q 1456 2553 1204 2497 
Q 953 2441 691 2322 
L 691 4666 
z
" transform="scale(0.015625)"/>
       </defs>
       <use xlink:href="#DejaVuSans-32"/>
       <use xlink:href="#DejaVuSans-2e" x="63.623047"/>
       <use xlink:href="#DejaVuSans-35" x="95.410156"/>
      </g>
     </g>
    </g>
    <g id="ytick_8">
     <g id="line2d_21">
      <g>
       <use xlink:href="#m19f9c4218b" x="518.4" y="311.449678" style="stroke: #000000; stroke-width: 0.8"/>
      </g>
     </g>
     <g id="text_21">
      <!-- 5.0 -->
      <g transform="translate(525.4 315.248897) scale(0.1 -0.1)">
       <use xlink:href="#DejaVuSans-35"/>
       <use xlink:href="#DejaVuSans-2e" x="63.623047"/>
       <use xlink:href="#DejaVuSans-30" x="95.410156"/>
      </g>
     </g>
    </g>
    <g id="ytick_9">
     <g id="line2d_22">
      <g>
       <use xlink:href="#m19f9c4218b" x="518.4" y="274.281406" style="stroke: #000000; stroke-width: 0.8"/>
      </g>
     </g>
     <g id="text_22">
      <!-- 7.5 -->
      <g transform="translate(525.4 278.080624) scale(0.1 -0.1)">
       <defs>
        <path id="DejaVuSans-37" d="M 525 4666 
L 3525 4666 
L 3525 4397 
L 1831 0 
L 1172 0 
L 2766 4134 
L 525 4134 
L 525 4666 
z
" transform="scale(0.015625)"/>
       </defs>
       <use xlink:href="#DejaVuSans-37"/>
       <use xlink:href="#DejaVuSans-2e" x="63.623047"/>
       <use xlink:href="#DejaVuSans-35" x="95.410156"/>
      </g>
     </g>
    </g>
    <g id="ytick_10">
     <g id="line2d_23">
      <g>
       <use xlink:href="#m19f9c4218b" x="518.4" y="237.113133" style="stroke: #000000; stroke-width: 0.8"/>
      </g>
     </g>
     <g id="text_23">
      <!-- 10.0 -->
      <g transform="translate(525.4 240.912352) scale(0.1 -0.1)">
       <use xlink:href="#DejaVuSans-31"/>
       <use xlink:href="#DejaVuSans-30" x="63.623047"/>
       <use xlink:href="#DejaVuSans-2e" x="127.246094"/>
       <use xlink:href="#DejaVuSans-30" x="159.033203"/>
      </g>
     </g>
    </g>
    <g id="ytick_11">
     <g id="line2d_24">
      <g>
       <use xlink:href="#m19f9c4218b" x="518.4" y="199.944861" style="stroke: #000000; stroke-width: 0.8"/>
      </g>
     </g>
     <g id="text_24">
      <!-- 12.5 -->
      <g transform="translate(525.4 203.74408) scale(0.1 -0.1)">
       <use xlink:href="#DejaVuSans-31"/>
       <use xlink:href="#DejaVuSans-32" x="63.623047"/>
       <use xlink:href="#DejaVuSans-2e" x="127.246094"/>
       <use xlink:href="#DejaVuSans-35" x="159.033203"/>
      </g>
     </g>
    </g>
    <g id="ytick_12">
     <g id="line2d_25">
      <g>
       <use xlink:href="#m19f9c4218b" x="518.4" y="162.776589" style="stroke: #000000; stroke-width: 0.8"/>
      </g>
     </g>
     <g id="text_25">
      <!-- 15.0 -->
      <g transform="translate(525.4 166.575807) scale(0.1 -0.1)">
       <use xlink:href="#DejaVuSans-31"/>
       <use xlink:href="#DejaVuSans-35" x="63.623047"/>
       <use xlink:href="#DejaVuSans-2e" x="127.246094"/>
       <use xlink:href="#DejaVuSans-30" x="159.033203"/>
      </g>
     </g>
    </g>
    <g id="ytick_13">
     <g id="line2d_26">
      <g>
       <use xlink:href="#m19f9c4218b" x="518.4" y="125.608316" style="stroke: #000000; stroke-width: 0.8"/>
      </g>
     </g>
     <g id="text_26">
      <!-- 17.5 -->
      <g transform="translate(525.4 129.407535) scale(0.1 -0.1)">
       <use xlink:href="#DejaVuSans-31"/>
       <use xlink:href="#DejaVuSans-37" x="63.623047"/>
       <use xlink:href="#DejaVuSans-2e" x="127.246094"/>
       <use xlink:href="#DejaVuSans-35" x="159.033203"/>
      </g>
     </g>
    </g>
    <g id="ytick_14">
     <g id="line2d_27">
      <g>
       <use xlink:href="#m19f9c4218b" x="518.4" y="88.440044" style="stroke: #000000; stroke-width: 0.8"/>
      </g>
     </g>
     <g id="text_27">
      <!-- 20.0 -->
      <g transform="translate(525.4 92.239263) scale(0.1 -0.1)">
       <use xlink:href="#DejaVuSans-32"/>
       <use xlink:href="#DejaVuSans-30" x="63.623047"/>
       <use xlink:href="#DejaVuSans-2e" x="127.246094"/>
       <use xlink:href="#DejaVuSans-30" x="159.033203"/>
      </g>
     </g>
    </g>
    <g id="text_28">
     <!-- loss -->
     <g transform="translate(559.264063 227.817812) rotate(-90) scale(0.1 -0.1)">
      <defs>
       <path id="DejaVuSans-73" d="M 2834 3397 
L 2834 2853 
Q 2591 2978 2328 3040 
Q 2066 3103 1784 3103 
Q 1356 3103 1142 2972 
Q 928 2841 928 2578 
Q 928 2378 1081 2264 
Q 1234 2150 1697 2047 
L 1894 2003 
Q 2506 1872 2764 1633 
Q 3022 1394 3022 966 
Q 3022 478 2636 193 
Q 2250 -91 1575 -91 
Q 1294 -91 989 -36 
Q 684 19 347 128 
L 347 722 
Q 666 556 975 473 
Q 1284 391 1588 391 
Q 1994 391 2212 530 
Q 2431 669 2431 922 
Q 2431 1156 2273 1281 
Q 2116 1406 1581 1522 
L 1381 1569 
Q 847 1681 609 1914 
Q 372 2147 372 2553 
Q 372 3047 722 3315 
Q 1072 3584 1716 3584 
Q 2034 3584 2315 3537 
Q 2597 3491 2834 3397 
z
" transform="scale(0.015625)"/>
      </defs>
      <use xlink:href="#DejaVuSans-6c"/>
      <use xlink:href="#DejaVuSans-6f" x="27.783203"/>
      <use xlink:href="#DejaVuSans-73" x="88.964844"/>
      <use xlink:href="#DejaVuSans-73" x="141.064453"/>
     </g>
    </g>
   </g>
   <g id="line2d_28">
    <path d="M 92.290909 365.611349 
L 94.843225 363.92783 
L 97.39554 369.36 
L 99.947856 365.892494 
L 102.500172 358.694147 
L 105.052487 348.143042 
L 107.604803 340.765917 
L 110.157118 282.621645 
L 112.709434 339.581805 
L 115.26175 345.372934 
L 117.814065 352.177646 
L 120.366381 365.073597 
L 122.918696 343.749909 
L 125.471012 337.271783 
L 128.023328 331.289307 
L 130.575643 343.531286 
L 133.127959 335.411265 
L 135.680274 326.73361 
L 138.23259 293.386602 
L 140.784906 337.060085 
L 143.337221 322.613987 
L 145.889537 284.907777 
L 148.441852 301.337632 
L 150.994168 270.114145 
L 153.546484 289.24861 
L 156.098799 242.552939 
L 158.651115 249.179463 
L 161.203431 219.138524 
L 163.755746 329.103094 
L 166.308062 238.445223 
L 168.860377 239.359822 
L 171.412693 148.139084 
L 173.965009 236.362142 
L 176.517324 168.447972 
L 179.06964 294.455572 
L 181.621955 314.842627 
L 184.174271 259.692645 
L 186.726587 302.888727 
L 189.278902 206.743766 
L 191.831218 315.503984 
L 194.383533 312.3206 
L 196.935849 294.722688 
L 199.488165 296.644343 
L 202.04048 299.408686 
L 204.592796 278.037929 
L 207.145111 262.312181 
L 209.697427 302.398623 
L 212.249743 319.544852 
L 214.802058 273.029452 
L 217.354374 199.001798 
L 219.90669 209.809674 
L 222.459005 203.06934 
L 225.011321 237.130998 
L 227.563636 250.491743 
L 230.115952 231.359928 
L 232.668268 257.035256 
L 235.220583 235.215262 
L 237.772899 280.418777 
L 240.325214 250.445352 
L 242.87753 270.964966 
L 245.429846 182.566937 
L 247.982161 255.183096 
L 250.534477 253.713989 
L 253.086792 218.529127 
L 255.639108 262.580534 
L 258.191424 215.947596 
L 260.743739 229.532621 
L 263.296055 159.914308 
L 265.84837 267.43901 
L 268.400686 218.286136 
L 270.953002 259.301439 
L 273.505317 282.84726 
L 276.057633 232.224164 
L 278.609949 218.760024 
L 281.162264 226.030035 
L 283.71458 227.937696 
L 286.266895 267.335448 
L 288.819211 284.105511 
L 291.371527 219.49491 
L 293.923842 210.862131 
L 296.476158 249.769747 
L 299.028473 221.788661 
L 301.580789 206.229052 
L 304.133105 238.503176 
L 306.68542 241.672566 
L 309.237736 210.103347 
L 311.790051 266.758842 
L 314.342367 265.94174 
L 316.894683 216.65566 
L 319.446998 187.975086 
L 321.999314 114.860078 
L 324.55163 210.88945 
L 327.103945 220.07777 
L 329.656261 250.325725 
L 332.208576 207.545764 
L 334.760892 193.755626 
L 337.313208 261.252515 
L 339.865523 190.918486 
L 342.417839 200.238472 
L 344.970154 225.170276 
L 347.52247 200.152582 
L 350.074786 266.123838 
L 352.627101 156.66008 
L 355.179417 177.404512 
L 357.731732 229.369042 
L 360.284048 107.899189 
L 362.836364 186.849519 
L 365.388679 214.968274 
L 367.940995 252.325145 
L 370.49331 148.537771 
L 373.045626 139.217047 
L 375.597942 229.92062 
L 378.150257 237.58194 
L 380.702573 154.858273 
L 385.807204 195.559737 
L 388.35952 220.943297 
L 390.911835 217.546609 
L 393.464151 184.5214 
L 396.016467 170.980618 
L 398.568782 221.890558 
L 401.121098 172.189317 
L 403.673413 130.670375 
L 406.225729 177.517833 
L 408.778045 236.041046 
L 411.33036 136.873055 
L 413.882676 126.492374 
L 416.434991 111.885269 
L 418.987307 241.03714 
L 421.539623 211.969442 
L 424.091938 175.01512 
L 426.644254 150.511548 
L 429.196569 226.788711 
L 431.748885 154.250311 
L 434.301201 116.888234 
L 436.853516 175.763606 
L 439.405832 196.631279 
L 441.958148 146.076537 
L 444.510463 144.981075 
L 447.062779 197.113286 
L 449.615094 195.401941 
L 452.16741 175.881241 
L 454.719726 118.403165 
L 457.272041 106.000398 
L 459.824357 203.082136 
L 462.376672 188.184986 
L 464.928988 190.119655 
L 467.481304 119.361325 
L 470.033619 220.133283 
L 472.585935 162.458575 
L 475.13825 121.550294 
L 477.690566 160.30938 
L 480.242882 145.046426 
L 482.795197 180.933025 
L 485.347513 146.751783 
L 487.899828 66.96 
L 490.452144 201.283779 
L 493.00446 171.05475 
L 495.556775 133.215314 
L 498.109091 155.759914 
L 498.109091 155.759914 
" clip-path="url(#p7273c55e84)" style="fill: none; stroke: #ff0000; stroke-width: 1.5; stroke-linecap: square"/>
   </g>
   <g id="patch_8">
    <path d="M 72 384.48 
L 72 51.84 
" style="fill: none; stroke: #000000; stroke-width: 0.8; stroke-linejoin: miter; stroke-linecap: square"/>
   </g>
   <g id="patch_9">
    <path d="M 518.4 384.48 
L 518.4 51.84 
" style="fill: none; stroke: #000000; stroke-width: 0.8; stroke-linejoin: miter; stroke-linecap: square"/>
   </g>
   <g id="patch_10">
    <path d="M 72 384.48 
L 518.4 384.48 
" style="fill: none; stroke: #000000; stroke-width: 0.8; stroke-linejoin: miter; stroke-linecap: square"/>
   </g>
   <g id="patch_11">
    <path d="M 72 51.84 
L 518.4 51.84 
" style="fill: none; stroke: #000000; stroke-width: 0.8; stroke-linejoin: miter; stroke-linecap: square"/>
   </g>
   <g id="text_29">
    <!-- The learning curve on voc/voc_fixed_interactive/host/5 -->
    <g transform="translate(130.9125 45.84) scale(0.12 -0.12)">
     <defs>
      <path id="DejaVuSans-54" d="M -19 4666 
L 3928 4666 
L 3928 4134 
L 2272 4134 
L 2272 0 
L 1638 0 
L 1638 4134 
L -19 4134 
L -19 4666 
z
" transform="scale(0.015625)"/>
      <path id="DejaVuSans-67" d="M 2906 1791 
Q 2906 2416 2648 2759 
Q 2391 3103 1925 3103 
Q 1463 3103 1205 2759 
Q 947 2416 947 1791 
Q 947 1169 1205 825 
Q 1463 481 1925 481 
Q 2391 481 2648 825 
Q 2906 1169 2906 1791 
z
M 3481 434 
Q 3481 -459 3084 -895 
Q 2688 -1331 1869 -1331 
Q 1566 -1331 1297 -1286 
Q 1028 -1241 775 -1147 
L 775 -588 
Q 1028 -725 1275 -790 
Q 1522 -856 1778 -856 
Q 2344 -856 2625 -561 
Q 2906 -266 2906 331 
L 2906 616 
Q 2728 306 2450 153 
Q 2172 0 1784 0 
Q 1141 0 747 490 
Q 353 981 353 1791 
Q 353 2603 747 3093 
Q 1141 3584 1784 3584 
Q 2172 3584 2450 3431 
Q 2728 3278 2906 2969 
L 2906 3500 
L 3481 3500 
L 3481 434 
z
" transform="scale(0.015625)"/>
      <path id="DejaVuSans-75" d="M 544 1381 
L 544 3500 
L 1119 3500 
L 1119 1403 
Q 1119 906 1312 657 
Q 1506 409 1894 409 
Q 2359 409 2629 706 
Q 2900 1003 2900 1516 
L 2900 3500 
L 3475 3500 
L 3475 0 
L 2900 0 
L 2900 538 
Q 2691 219 2414 64 
Q 2138 -91 1772 -91 
Q 1169 -91 856 284 
Q 544 659 544 1381 
z
M 1991 3584 
L 1991 3584 
z
" transform="scale(0.015625)"/>
      <path id="DejaVuSans-2f" d="M 1625 4666 
L 2156 4666 
L 531 -594 
L 0 -594 
L 1625 4666 
z
" transform="scale(0.015625)"/>
      <path id="DejaVuSans-5f" d="M 3263 -1063 
L 3263 -1509 
L -63 -1509 
L -63 -1063 
L 3263 -1063 
z
" transform="scale(0.015625)"/>
      <path id="DejaVuSans-66" d="M 2375 4863 
L 2375 4384 
L 1825 4384 
Q 1516 4384 1395 4259 
Q 1275 4134 1275 3809 
L 1275 3500 
L 2222 3500 
L 2222 3053 
L 1275 3053 
L 1275 0 
L 697 0 
L 697 3053 
L 147 3053 
L 147 3500 
L 697 3500 
L 697 3744 
Q 697 4328 969 4595 
Q 1241 4863 1831 4863 
L 2375 4863 
z
" transform="scale(0.015625)"/>
      <path id="DejaVuSans-78" d="M 3513 3500 
L 2247 1797 
L 3578 0 
L 2900 0 
L 1881 1375 
L 863 0 
L 184 0 
L 1544 1831 
L 300 3500 
L 978 3500 
L 1906 2253 
L 2834 3500 
L 3513 3500 
z
" transform="scale(0.015625)"/>
     </defs>
     <use xlink:href="#DejaVuSans-54"/>
     <use xlink:href="#DejaVuSans-68" x="61.083984"/>
     <use xlink:href="#DejaVuSans-65" x="124.462891"/>
     <use xlink:href="#DejaVuSans-20" x="185.986328"/>
     <use xlink:href="#DejaVuSans-6c" x="217.773438"/>
     <use xlink:href="#DejaVuSans-65" x="245.556641"/>
     <use xlink:href="#DejaVuSans-61" x="307.080078"/>
     <use xlink:href="#DejaVuSans-72" x="368.359375"/>
     <use xlink:href="#DejaVuSans-6e" x="407.722656"/>
     <use xlink:href="#DejaVuSans-69" x="471.101562"/>
     <use xlink:href="#DejaVuSans-6e" x="498.884766"/>
     <use xlink:href="#DejaVuSans-67" x="562.263672"/>
     <use xlink:href="#DejaVuSans-20" x="625.740234"/>
     <use xlink:href="#DejaVuSans-63" x="657.527344"/>
     <use xlink:href="#DejaVuSans-75" x="712.507812"/>
     <use xlink:href="#DejaVuSans-72" x="775.886719"/>
     <use xlink:href="#DejaVuSans-76" x="817"/>
     <use xlink:href="#DejaVuSans-65" x="876.179688"/>
     <use xlink:href="#DejaVuSans-20" x="937.703125"/>
     <use xlink:href="#DejaVuSans-6f" x="969.490234"/>
     <use xlink:href="#DejaVuSans-6e" x="1030.671875"/>
     <use xlink:href="#DejaVuSans-20" x="1094.050781"/>
     <use xlink:href="#DejaVuSans-76" x="1125.837891"/>
     <use xlink:href="#DejaVuSans-6f" x="1185.017578"/>
     <use xlink:href="#DejaVuSans-63" x="1246.199219"/>
     <use xlink:href="#DejaVuSans-2f" x="1301.179688"/>
     <use xlink:href="#DejaVuSans-76" x="1334.871094"/>
     <use xlink:href="#DejaVuSans-6f" x="1394.050781"/>
     <use xlink:href="#DejaVuSans-63" x="1455.232422"/>
     <use xlink:href="#DejaVuSans-5f" x="1510.212891"/>
     <use xlink:href="#DejaVuSans-66" x="1560.212891"/>
     <use xlink:href="#DejaVuSans-69" x="1595.417969"/>
     <use xlink:href="#DejaVuSans-78" x="1623.201172"/>
     <use xlink:href="#DejaVuSans-65" x="1679.255859"/>
     <use xlink:href="#DejaVuSans-64" x="1740.779297"/>
     <use xlink:href="#DejaVuSans-5f" x="1804.255859"/>
     <use xlink:href="#DejaVuSans-69" x="1854.255859"/>
     <use xlink:href="#DejaVuSans-6e" x="1882.039062"/>
     <use xlink:href="#DejaVuSans-74" x="1945.417969"/>
     <use xlink:href="#DejaVuSans-65" x="1984.626953"/>
     <use xlink:href="#DejaVuSans-72" x="2046.150391"/>
     <use xlink:href="#DejaVuSans-61" x="2087.263672"/>
     <use xlink:href="#DejaVuSans-63" x="2148.542969"/>
     <use xlink:href="#DejaVuSans-74" x="2203.523438"/>
     <use xlink:href="#DejaVuSans-69" x="2242.732422"/>
     <use xlink:href="#DejaVuSans-76" x="2270.515625"/>
     <use xlink:href="#DejaVuSans-65" x="2329.695312"/>
     <use xlink:href="#DejaVuSans-2f" x="2391.21875"/>
     <use xlink:href="#DejaVuSans-68" x="2424.910156"/>
     <use xlink:href="#DejaVuSans-6f" x="2488.289062"/>
     <use xlink:href="#DejaVuSans-73" x="2549.470703"/>
     <use xlink:href="#DejaVuSans-74" x="2601.570312"/>
     <use xlink:href="#DejaVuSans-2f" x="2640.779297"/>
     <use xlink:href="#DejaVuSans-35" x="2674.470703"/>
    </g>
   </g>
   <g id="legend_2">
    <g id="patch_12">
     <path d="M 460.084375 74.518125 
L 511.4 74.518125 
Q 513.4 74.518125 513.4 72.518125 
L 513.4 58.84 
Q 513.4 56.84 511.4 56.84 
L 460.084375 56.84 
Q 458.084375 56.84 458.084375 58.84 
L 458.084375 72.518125 
Q 458.084375 74.518125 460.084375 74.518125 
z
" style="fill: #ffffff; opacity: 0.8; stroke: #cccccc; stroke-linejoin: miter"/>
    </g>
    <g id="line2d_29">
     <path d="M 462.084375 64.938438 
L 472.084375 64.938438 
L 482.084375 64.938438 
" style="fill: none; stroke: #ff0000; stroke-width: 1.5; stroke-linecap: square"/>
    </g>
    <g id="text_30">
     <!-- loss -->
     <g transform="translate(490.084375 68.438438) scale(0.1 -0.1)">
      <use xlink:href="#DejaVuSans-6c"/>
      <use xlink:href="#DejaVuSans-6f" x="27.783203"/>
      <use xlink:href="#DejaVuSans-73" x="88.964844"/>
      <use xlink:href="#DejaVuSans-73" x="141.064453"/>
     </g>
    </g>
   </g>
  </g>
 </g>
 <defs>
  <clipPath id="p7273c55e84">
   <rect x="72" y="51.84" width="446.4" height="332.64"/>
  </clipPath>
 </defs>
</svg>
