<?xml version="1.0" encoding="utf-8" standalone="no"?>
<!DOCTYPE svg PUBLIC "-//W3C//DTD SVG 1.1//EN"
  "http://www.w3.org/Graphics/SVG/1.1/DTD/svg11.dtd">
<svg xmlns:xlink="http://www.w3.org/1999/xlink" width="460.8pt" height="345.6pt" viewBox="0 0 460.8 345.6" xmlns="http://www.w3.org/2000/svg" version="1.1">
 <metadata>
  <rdf:RDF xmlns:dc="http://purl.org/dc/elements/1.1/" xmlns:cc="http://creativecommons.org/ns#" xmlns:rdf="http://www.w3.org/1999/02/22-rdf-syntax-ns#">
   <cc:Work>
    <dc:type rdf:resource="http://purl.org/dc/dcmitype/StillImage"/>
    <dc:date>2023-10-19T23:04:12.874676</dc:date>
    <dc:format>image/svg+xml</dc:format>
    <dc:creator>
     <cc:Agent>
      <dc:title>Matplotlib v3.7.1, https://matplotlib.org/</dc:title>
     </cc:Agent>
    </dc:creator>
   </cc:Work>
  </rdf:RDF>
 </metadata>
 <defs>
  <style type="text/css">*{stroke-linejoin: round; stroke-linecap: butt}</style>
 </defs>
 <g id="figure_1">
  <g id="patch_1">
   <path d="M 0 345.6 
L 460.8 345.6 
L 460.8 0 
L 0 0 
z
" style="fill: #ffffff"/>
  </g>
  <g id="axes_1">
   <g id="patch_2">
    <path d="M 57.6 307.584 
L 414.72 307.584 
L 414.72 41.472 
L 57.6 41.472 
z
" style="fill: #ffffff"/>
   </g>
   <g id="matplotlib.axis_1">
    <g id="xtick_1">
     <g id="line2d_1">
      <defs>
       <path id="med463b6b4f" d="M 0 0 
L 0 3.5 
" style="stroke: #000000; stroke-width: 0.8"/>
      </defs>
      <g>
       <use xlink:href="#med463b6b4f" x="73.832727" y="307.584" style="stroke: #000000; stroke-width: 0.8"/>
      </g>
     </g>
     <g id="text_1">
      <!-- 0 -->
      <g transform="translate(70.651477 322.182437) scale(0.1 -0.1)">
       <defs>
        <path id="DejaVuSans-30" d="M 2034 4250 
Q 1547 4250 1301 3770 
Q 1056 3291 1056 2328 
Q 1056 1369 1301 889 
Q 1547 409 2034 409 
Q 2525 409 2770 889 
Q 3016 1369 3016 2328 
Q 3016 3291 2770 3770 
Q 2525 4250 2034 4250 
z
M 2034 4750 
Q 2819 4750 3233 4129 
Q 3647 3509 3647 2328 
Q 3647 1150 3233 529 
Q 2819 -91 2034 -91 
Q 1250 -91 836 529 
Q 422 1150 422 2328 
Q 422 3509 836 4129 
Q 1250 4750 2034 4750 
z
" transform="scale(0.015625)"/>
       </defs>
       <use xlink:href="#DejaVuSans-30"/>
      </g>
     </g>
    </g>
    <g id="xtick_2">
     <g id="line2d_2">
      <g>
       <use xlink:href="#med463b6b4f" x="114.669777" y="307.584" style="stroke: #000000; stroke-width: 0.8"/>
      </g>
     </g>
     <g id="text_2">
      <!-- 20 -->
      <g transform="translate(108.307277 322.182437) scale(0.1 -0.1)">
       <defs>
        <path id="DejaVuSans-32" d="M 1228 531 
L 3431 531 
L 3431 0 
L 469 0 
L 469 531 
Q 828 903 1448 1529 
Q 2069 2156 2228 2338 
Q 2531 2678 2651 2914 
Q 2772 3150 2772 3378 
Q 2772 3750 2511 3984 
Q 2250 4219 1831 4219 
Q 1534 4219 1204 4116 
Q 875 4013 500 3803 
L 500 4441 
Q 881 4594 1212 4672 
Q 1544 4750 1819 4750 
Q 2544 4750 2975 4387 
Q 3406 4025 3406 3419 
Q 3406 3131 3298 2873 
Q 3191 2616 2906 2266 
Q 2828 2175 2409 1742 
Q 1991 1309 1228 531 
z
" transform="scale(0.015625)"/>
       </defs>
       <use xlink:href="#DejaVuSans-32"/>
       <use xlink:href="#DejaVuSans-30" x="63.623047"/>
      </g>
     </g>
    </g>
    <g id="xtick_3">
     <g id="line2d_3">
      <g>
       <use xlink:href="#med463b6b4f" x="155.506827" y="307.584" style="stroke: #000000; stroke-width: 0.8"/>
      </g>
     </g>
     <g id="text_3">
      <!-- 40 -->
      <g transform="translate(149.144327 322.182437) scale(0.1 -0.1)">
       <defs>
        <path id="DejaVuSans-34" d="M 2419 4116 
L 825 1625 
L 2419 1625 
L 2419 4116 
z
M 2253 4666 
L 3047 4666 
L 3047 1625 
L 3713 1625 
L 3713 1100 
L 3047 1100 
L 3047 0 
L 2419 0 
L 2419 1100 
L 313 1100 
L 313 1709 
L 2253 4666 
z
" transform="scale(0.015625)"/>
       </defs>
       <use xlink:href="#DejaVuSans-34"/>
       <use xlink:href="#DejaVuSans-30" x="63.623047"/>
      </g>
     </g>
    </g>
    <g id="xtick_4">
     <g id="line2d_4">
      <g>
       <use xlink:href="#med463b6b4f" x="196.343877" y="307.584" style="stroke: #000000; stroke-width: 0.8"/>
      </g>
     </g>
     <g id="text_4">
      <!-- 60 -->
      <g transform="translate(189.981377 322.182437) scale(0.1 -0.1)">
       <defs>
        <path id="DejaVuSans-36" d="M 2113 2584 
Q 1688 2584 1439 2293 
Q 1191 2003 1191 1497 
Q 1191 994 1439 701 
Q 1688 409 2113 409 
Q 2538 409 2786 701 
Q 3034 994 3034 1497 
Q 3034 2003 2786 2293 
Q 2538 2584 2113 2584 
z
M 3366 4563 
L 3366 3988 
Q 3128 4100 2886 4159 
Q 2644 4219 2406 4219 
Q 1781 4219 1451 3797 
Q 1122 3375 1075 2522 
Q 1259 2794 1537 2939 
Q 1816 3084 2150 3084 
Q 2853 3084 3261 2657 
Q 3669 2231 3669 1497 
Q 3669 778 3244 343 
Q 2819 -91 2113 -91 
Q 1303 -91 875 529 
Q 447 1150 447 2328 
Q 447 3434 972 4092 
Q 1497 4750 2381 4750 
Q 2619 4750 2861 4703 
Q 3103 4656 3366 4563 
z
" transform="scale(0.015625)"/>
       </defs>
       <use xlink:href="#DejaVuSans-36"/>
       <use xlink:href="#DejaVuSans-30" x="63.623047"/>
      </g>
     </g>
    </g>
    <g id="xtick_5">
     <g id="line2d_5">
      <g>
       <use xlink:href="#med463b6b4f" x="237.180926" y="307.584" style="stroke: #000000; stroke-width: 0.8"/>
      </g>
     </g>
     <g id="text_5">
      <!-- 80 -->
      <g transform="translate(230.818426 322.182437) scale(0.1 -0.1)">
       <defs>
        <path id="DejaVuSans-38" d="M 2034 2216 
Q 1584 2216 1326 1975 
Q 1069 1734 1069 1313 
Q 1069 891 1326 650 
Q 1584 409 2034 409 
Q 2484 409 2743 651 
Q 3003 894 3003 1313 
Q 3003 1734 2745 1975 
Q 2488 2216 2034 2216 
z
M 1403 2484 
Q 997 2584 770 2862 
Q 544 3141 544 3541 
Q 544 4100 942 4425 
Q 1341 4750 2034 4750 
Q 2731 4750 3128 4425 
Q 3525 4100 3525 3541 
Q 3525 3141 3298 2862 
Q 3072 2584 2669 2484 
Q 3125 2378 3379 2068 
Q 3634 1759 3634 1313 
Q 3634 634 3220 271 
Q 2806 -91 2034 -91 
Q 1263 -91 848 271 
Q 434 634 434 1313 
Q 434 1759 690 2068 
Q 947 2378 1403 2484 
z
M 1172 3481 
Q 1172 3119 1398 2916 
Q 1625 2713 2034 2713 
Q 2441 2713 2670 2916 
Q 2900 3119 2900 3481 
Q 2900 3844 2670 4047 
Q 2441 4250 2034 4250 
Q 1625 4250 1398 4047 
Q 1172 3844 1172 3481 
z
" transform="scale(0.015625)"/>
       </defs>
       <use xlink:href="#DejaVuSans-38"/>
       <use xlink:href="#DejaVuSans-30" x="63.623047"/>
      </g>
     </g>
    </g>
    <g id="xtick_6">
     <g id="line2d_6">
      <g>
       <use xlink:href="#med463b6b4f" x="278.017976" y="307.584" style="stroke: #000000; stroke-width: 0.8"/>
      </g>
     </g>
     <g id="text_6">
      <!-- 100 -->
      <g transform="translate(268.474226 322.182437) scale(0.1 -0.1)">
       <defs>
        <path id="DejaVuSans-31" d="M 794 531 
L 1825 531 
L 1825 4091 
L 703 3866 
L 703 4441 
L 1819 4666 
L 2450 4666 
L 2450 531 
L 3481 531 
L 3481 0 
L 794 0 
L 794 531 
z
" transform="scale(0.015625)"/>
       </defs>
       <use xlink:href="#DejaVuSans-31"/>
       <use xlink:href="#DejaVuSans-30" x="63.623047"/>
       <use xlink:href="#DejaVuSans-30" x="127.246094"/>
      </g>
     </g>
    </g>
    <g id="xtick_7">
     <g id="line2d_7">
      <g>
       <use xlink:href="#med463b6b4f" x="318.855026" y="307.584" style="stroke: #000000; stroke-width: 0.8"/>
      </g>
     </g>
     <g id="text_7">
      <!-- 120 -->
      <g transform="translate(309.311276 322.182437) scale(0.1 -0.1)">
       <use xlink:href="#DejaVuSans-31"/>
       <use xlink:href="#DejaVuSans-32" x="63.623047"/>
       <use xlink:href="#DejaVuSans-30" x="127.246094"/>
      </g>
     </g>
    </g>
    <g id="xtick_8">
     <g id="line2d_8">
      <g>
       <use xlink:href="#med463b6b4f" x="359.692075" y="307.584" style="stroke: #000000; stroke-width: 0.8"/>
      </g>
     </g>
     <g id="text_8">
      <!-- 140 -->
      <g transform="translate(350.148325 322.182437) scale(0.1 -0.1)">
       <use xlink:href="#DejaVuSans-31"/>
       <use xlink:href="#DejaVuSans-34" x="63.623047"/>
       <use xlink:href="#DejaVuSans-30" x="127.246094"/>
      </g>
     </g>
    </g>
    <g id="xtick_9">
     <g id="line2d_9">
      <g>
       <use xlink:href="#med463b6b4f" x="400.529125" y="307.584" style="stroke: #000000; stroke-width: 0.8"/>
      </g>
     </g>
     <g id="text_9">
      <!-- 160 -->
      <g transform="translate(390.985375 322.182437) scale(0.1 -0.1)">
       <use xlink:href="#DejaVuSans-31"/>
       <use xlink:href="#DejaVuSans-36" x="63.623047"/>
       <use xlink:href="#DejaVuSans-30" x="127.246094"/>
      </g>
     </g>
    </g>
    <g id="text_10">
     <!-- epoch -->
     <g transform="translate(220.931875 335.860562) scale(0.1 -0.1)">
      <defs>
       <path id="DejaVuSans-65" d="M 3597 1894 
L 3597 1613 
L 953 1613 
Q 991 1019 1311 708 
Q 1631 397 2203 397 
Q 2534 397 2845 478 
Q 3156 559 3463 722 
L 3463 178 
Q 3153 47 2828 -22 
Q 2503 -91 2169 -91 
Q 1331 -91 842 396 
Q 353 884 353 1716 
Q 353 2575 817 3079 
Q 1281 3584 2069 3584 
Q 2775 3584 3186 3129 
Q 3597 2675 3597 1894 
z
M 3022 2063 
Q 3016 2534 2758 2815 
Q 2500 3097 2075 3097 
Q 1594 3097 1305 2825 
Q 1016 2553 972 2059 
L 3022 2063 
z
" transform="scale(0.015625)"/>
       <path id="DejaVuSans-70" d="M 1159 525 
L 1159 -1331 
L 581 -1331 
L 581 3500 
L 1159 3500 
L 1159 2969 
Q 1341 3281 1617 3432 
Q 1894 3584 2278 3584 
Q 2916 3584 3314 3078 
Q 3713 2572 3713 1747 
Q 3713 922 3314 415 
Q 2916 -91 2278 -91 
Q 1894 -91 1617 61 
Q 1341 213 1159 525 
z
M 3116 1747 
Q 3116 2381 2855 2742 
Q 2594 3103 2138 3103 
Q 1681 3103 1420 2742 
Q 1159 2381 1159 1747 
Q 1159 1113 1420 752 
Q 1681 391 2138 391 
Q 2594 391 2855 752 
Q 3116 1113 3116 1747 
z
" transform="scale(0.015625)"/>
       <path id="DejaVuSans-6f" d="M 1959 3097 
Q 1497 3097 1228 2736 
Q 959 2375 959 1747 
Q 959 1119 1226 758 
Q 1494 397 1959 397 
Q 2419 397 2687 759 
Q 2956 1122 2956 1747 
Q 2956 2369 2687 2733 
Q 2419 3097 1959 3097 
z
M 1959 3584 
Q 2709 3584 3137 3096 
Q 3566 2609 3566 1747 
Q 3566 888 3137 398 
Q 2709 -91 1959 -91 
Q 1206 -91 779 398 
Q 353 888 353 1747 
Q 353 2609 779 3096 
Q 1206 3584 1959 3584 
z
" transform="scale(0.015625)"/>
       <path id="DejaVuSans-63" d="M 3122 3366 
L 3122 2828 
Q 2878 2963 2633 3030 
Q 2388 3097 2138 3097 
Q 1578 3097 1268 2742 
Q 959 2388 959 1747 
Q 959 1106 1268 751 
Q 1578 397 2138 397 
Q 2388 397 2633 464 
Q 2878 531 3122 666 
L 3122 134 
Q 2881 22 2623 -34 
Q 2366 -91 2075 -91 
Q 1284 -91 818 406 
Q 353 903 353 1747 
Q 353 2603 823 3093 
Q 1294 3584 2113 3584 
Q 2378 3584 2631 3529 
Q 2884 3475 3122 3366 
z
" transform="scale(0.015625)"/>
       <path id="DejaVuSans-68" d="M 3513 2113 
L 3513 0 
L 2938 0 
L 2938 2094 
Q 2938 2591 2744 2837 
Q 2550 3084 2163 3084 
Q 1697 3084 1428 2787 
Q 1159 2491 1159 1978 
L 1159 0 
L 581 0 
L 581 4863 
L 1159 4863 
L 1159 2956 
Q 1366 3272 1645 3428 
Q 1925 3584 2291 3584 
Q 2894 3584 3203 3211 
Q 3513 2838 3513 2113 
z
" transform="scale(0.015625)"/>
      </defs>
      <use xlink:href="#DejaVuSans-65"/>
      <use xlink:href="#DejaVuSans-70" x="61.523438"/>
      <use xlink:href="#DejaVuSans-6f" x="125"/>
      <use xlink:href="#DejaVuSans-63" x="186.181641"/>
      <use xlink:href="#DejaVuSans-68" x="241.162109"/>
     </g>
    </g>
   </g>
   <g id="matplotlib.axis_2">
    <g id="ytick_1">
     <g id="line2d_10">
      <defs>
       <path id="m2cd17411f6" d="M 0 0 
L -3.5 0 
" style="stroke: #000000; stroke-width: 0.8"/>
      </defs>
      <g>
       <use xlink:href="#m2cd17411f6" x="57.6" y="296.771694" style="stroke: #000000; stroke-width: 0.8"/>
      </g>
     </g>
     <g id="text_11">
      <!-- 0 -->
      <g transform="translate(44.2375 300.570913) scale(0.1 -0.1)">
       <use xlink:href="#DejaVuSans-30"/>
      </g>
     </g>
    </g>
    <g id="ytick_2">
     <g id="line2d_11">
      <g>
       <use xlink:href="#m2cd17411f6" x="57.6" y="260.951223" style="stroke: #000000; stroke-width: 0.8"/>
      </g>
     </g>
     <g id="text_12">
      <!-- 5 -->
      <g transform="translate(44.2375 264.750442) scale(0.1 -0.1)">
       <defs>
        <path id="DejaVuSans-35" d="M 691 4666 
L 3169 4666 
L 3169 4134 
L 1269 4134 
L 1269 2991 
Q 1406 3038 1543 3061 
Q 1681 3084 1819 3084 
Q 2600 3084 3056 2656 
Q 3513 2228 3513 1497 
Q 3513 744 3044 326 
Q 2575 -91 1722 -91 
Q 1428 -91 1123 -41 
Q 819 9 494 109 
L 494 744 
Q 775 591 1075 516 
Q 1375 441 1709 441 
Q 2250 441 2565 725 
Q 2881 1009 2881 1497 
Q 2881 1984 2565 2268 
Q 2250 2553 1709 2553 
Q 1456 2553 1204 2497 
Q 953 2441 691 2322 
L 691 4666 
z
" transform="scale(0.015625)"/>
       </defs>
       <use xlink:href="#DejaVuSans-35"/>
      </g>
     </g>
    </g>
    <g id="ytick_3">
     <g id="line2d_12">
      <g>
       <use xlink:href="#m2cd17411f6" x="57.6" y="225.130752" style="stroke: #000000; stroke-width: 0.8"/>
      </g>
     </g>
     <g id="text_13">
      <!-- 10 -->
      <g transform="translate(37.875 228.929971) scale(0.1 -0.1)">
       <use xlink:href="#DejaVuSans-31"/>
       <use xlink:href="#DejaVuSans-30" x="63.623047"/>
      </g>
     </g>
    </g>
    <g id="ytick_4">
     <g id="line2d_13">
      <g>
       <use xlink:href="#m2cd17411f6" x="57.6" y="189.310281" style="stroke: #000000; stroke-width: 0.8"/>
      </g>
     </g>
     <g id="text_14">
      <!-- 15 -->
      <g transform="translate(37.875 193.1095) scale(0.1 -0.1)">
       <use xlink:href="#DejaVuSans-31"/>
       <use xlink:href="#DejaVuSans-35" x="63.623047"/>
      </g>
     </g>
    </g>
    <g id="ytick_5">
     <g id="line2d_14">
      <g>
       <use xlink:href="#m2cd17411f6" x="57.6" y="153.48981" style="stroke: #000000; stroke-width: 0.8"/>
      </g>
     </g>
     <g id="text_15">
      <!-- 20 -->
      <g transform="translate(37.875 157.289028) scale(0.1 -0.1)">
       <use xlink:href="#DejaVuSans-32"/>
       <use xlink:href="#DejaVuSans-30" x="63.623047"/>
      </g>
     </g>
    </g>
    <g id="ytick_6">
     <g id="line2d_15">
      <g>
       <use xlink:href="#m2cd17411f6" x="57.6" y="117.669339" style="stroke: #000000; stroke-width: 0.8"/>
      </g>
     </g>
     <g id="text_16">
      <!-- 25 -->
      <g transform="translate(37.875 121.468557) scale(0.1 -0.1)">
       <use xlink:href="#DejaVuSans-32"/>
       <use xlink:href="#DejaVuSans-35" x="63.623047"/>
      </g>
     </g>
    </g>
    <g id="ytick_7">
     <g id="line2d_16">
      <g>
       <use xlink:href="#m2cd17411f6" x="57.6" y="81.848867" style="stroke: #000000; stroke-width: 0.8"/>
      </g>
     </g>
     <g id="text_17">
      <!-- 30 -->
      <g transform="translate(37.875 85.648086) scale(0.1 -0.1)">
       <defs>
        <path id="DejaVuSans-33" d="M 2597 2516 
Q 3050 2419 3304 2112 
Q 3559 1806 3559 1356 
Q 3559 666 3084 287 
Q 2609 -91 1734 -91 
Q 1441 -91 1130 -33 
Q 819 25 488 141 
L 488 750 
Q 750 597 1062 519 
Q 1375 441 1716 441 
Q 2309 441 2620 675 
Q 2931 909 2931 1356 
Q 2931 1769 2642 2001 
Q 2353 2234 1838 2234 
L 1294 2234 
L 1294 2753 
L 1863 2753 
Q 2328 2753 2575 2939 
Q 2822 3125 2822 3475 
Q 2822 3834 2567 4026 
Q 2313 4219 1838 4219 
Q 1578 4219 1281 4162 
Q 984 4106 628 3988 
L 628 4550 
Q 988 4650 1302 4700 
Q 1616 4750 1894 4750 
Q 2613 4750 3031 4423 
Q 3450 4097 3450 3541 
Q 3450 3153 3228 2886 
Q 3006 2619 2597 2516 
z
" transform="scale(0.015625)"/>
       </defs>
       <use xlink:href="#DejaVuSans-33"/>
       <use xlink:href="#DejaVuSans-30" x="63.623047"/>
      </g>
     </g>
    </g>
    <g id="ytick_8">
     <g id="line2d_17">
      <g>
       <use xlink:href="#m2cd17411f6" x="57.6" y="46.028396" style="stroke: #000000; stroke-width: 0.8"/>
      </g>
     </g>
     <g id="text_18">
      <!-- 35 -->
      <g transform="translate(37.875 49.827615) scale(0.1 -0.1)">
       <use xlink:href="#DejaVuSans-33"/>
       <use xlink:href="#DejaVuSans-35" x="63.623047"/>
      </g>
     </g>
    </g>
    <g id="text_19">
     <!-- loss value -->
     <g transform="translate(31.795312 199.432687) rotate(-90) scale(0.1 -0.1)">
      <defs>
       <path id="DejaVuSans-6c" d="M 603 4863 
L 1178 4863 
L 1178 0 
L 603 0 
L 603 4863 
z
" transform="scale(0.015625)"/>
       <path id="DejaVuSans-73" d="M 2834 3397 
L 2834 2853 
Q 2591 2978 2328 3040 
Q 2066 3103 1784 3103 
Q 1356 3103 1142 2972 
Q 928 2841 928 2578 
Q 928 2378 1081 2264 
Q 1234 2150 1697 2047 
L 1894 2003 
Q 2506 1872 2764 1633 
Q 3022 1394 3022 966 
Q 3022 478 2636 193 
Q 2250 -91 1575 -91 
Q 1294 -91 989 -36 
Q 684 19 347 128 
L 347 722 
Q 666 556 975 473 
Q 1284 391 1588 391 
Q 1994 391 2212 530 
Q 2431 669 2431 922 
Q 2431 1156 2273 1281 
Q 2116 1406 1581 1522 
L 1381 1569 
Q 847 1681 609 1914 
Q 372 2147 372 2553 
Q 372 3047 722 3315 
Q 1072 3584 1716 3584 
Q 2034 3584 2315 3537 
Q 2597 3491 2834 3397 
z
" transform="scale(0.015625)"/>
       <path id="DejaVuSans-20" transform="scale(0.015625)"/>
       <path id="DejaVuSans-76" d="M 191 3500 
L 800 3500 
L 1894 563 
L 2988 3500 
L 3597 3500 
L 2284 0 
L 1503 0 
L 191 3500 
z
" transform="scale(0.015625)"/>
       <path id="DejaVuSans-61" d="M 2194 1759 
Q 1497 1759 1228 1600 
Q 959 1441 959 1056 
Q 959 750 1161 570 
Q 1363 391 1709 391 
Q 2188 391 2477 730 
Q 2766 1069 2766 1631 
L 2766 1759 
L 2194 1759 
z
M 3341 1997 
L 3341 0 
L 2766 0 
L 2766 531 
Q 2569 213 2275 61 
Q 1981 -91 1556 -91 
Q 1019 -91 701 211 
Q 384 513 384 1019 
Q 384 1609 779 1909 
Q 1175 2209 1959 2209 
L 2766 2209 
L 2766 2266 
Q 2766 2663 2505 2880 
Q 2244 3097 1772 3097 
Q 1472 3097 1187 3025 
Q 903 2953 641 2809 
L 641 3341 
Q 956 3463 1253 3523 
Q 1550 3584 1831 3584 
Q 2591 3584 2966 3190 
Q 3341 2797 3341 1997 
z
" transform="scale(0.015625)"/>
       <path id="DejaVuSans-75" d="M 544 1381 
L 544 3500 
L 1119 3500 
L 1119 1403 
Q 1119 906 1312 657 
Q 1506 409 1894 409 
Q 2359 409 2629 706 
Q 2900 1003 2900 1516 
L 2900 3500 
L 3475 3500 
L 3475 0 
L 2900 0 
L 2900 538 
Q 2691 219 2414 64 
Q 2138 -91 1772 -91 
Q 1169 -91 856 284 
Q 544 659 544 1381 
z
M 1991 3584 
L 1991 3584 
z
" transform="scale(0.015625)"/>
      </defs>
      <use xlink:href="#DejaVuSans-6c"/>
      <use xlink:href="#DejaVuSans-6f" x="27.783203"/>
      <use xlink:href="#DejaVuSans-73" x="88.964844"/>
      <use xlink:href="#DejaVuSans-73" x="141.064453"/>
      <use xlink:href="#DejaVuSans-20" x="193.164062"/>
      <use xlink:href="#DejaVuSans-76" x="224.951172"/>
      <use xlink:href="#DejaVuSans-61" x="284.130859"/>
      <use xlink:href="#DejaVuSans-6c" x="345.410156"/>
      <use xlink:href="#DejaVuSans-75" x="373.193359"/>
      <use xlink:href="#DejaVuSans-65" x="436.572266"/>
     </g>
    </g>
   </g>
   <g id="line2d_18">
    <path d="M 73.832727 249.612279 
L 75.87458 268.495422 
L 77.916432 279.327908 
L 79.958285 285.490667 
L 82.000137 219.285456 
L 86.083842 254.137361 
L 88.125695 263.255743 
L 90.167547 209.157572 
L 92.2094 226.196721 
L 94.251252 244.621134 
L 96.293105 256.281188 
L 98.334957 194.311274 
L 100.37681 214.963153 
L 102.418662 227.175482 
L 104.460515 247.171239 
L 106.502367 188.31986 
L 108.54422 206.235591 
L 110.586072 233.237236 
L 112.627925 243.878453 
L 114.669777 185.656402 
L 116.71163 198.726536 
L 118.753482 216.474255 
L 120.795334 224.990163 
L 122.837187 178.436267 
L 124.879039 189.720242 
L 126.920892 210.231244 
L 128.962744 222.240611 
L 131.004597 175.579239 
L 133.046449 183.454483 
L 135.088302 213.370324 
L 137.130154 218.637947 
L 139.172007 161.902494 
L 141.213859 177.405523 
L 143.255712 199.671699 
L 145.297564 211.032823 
L 147.339417 154.491813 
L 149.381269 171.796668 
L 151.423122 196.388539 
L 153.464974 195.436153 
L 155.506827 146.164298 
L 157.548679 166.254331 
L 159.590532 183.268743 
L 161.632384 188.555252 
L 163.674237 144.318607 
L 165.716089 145.998355 
L 167.757942 169.169106 
L 169.799794 180.911445 
L 171.841647 139.028355 
L 173.883499 148.618 
L 175.925352 155.095285 
L 177.967204 178.982577 
L 180.009057 137.379973 
L 182.050909 148.613749 
L 184.092762 154.554281 
L 186.134614 165.81594 
L 188.176467 111.044948 
L 192.260172 143.743292 
L 194.302024 155.390798 
L 196.343877 117.899523 
L 198.385729 126.423767 
L 200.427581 145.671939 
L 202.469434 138.772997 
L 204.511286 125.778989 
L 206.553139 132.081824 
L 208.594991 137.037425 
L 210.636844 149.092123 
L 212.678696 115.69171 
L 214.720549 137.07391 
L 216.762401 139.953957 
L 218.804254 140.321638 
L 220.846106 120.912562 
L 222.887959 123.671618 
L 224.929811 140.328571 
L 226.971664 136.200432 
L 229.013516 92.978534 
L 231.055369 119.228334 
L 233.097221 105.790695 
L 235.139074 125.011166 
L 237.180926 107.55314 
L 239.222779 125.599124 
L 241.264631 125.012394 
L 243.306484 134.12774 
L 245.348336 97.311764 
L 247.390189 106.9732 
L 249.432041 110.572194 
L 251.473894 127.713304 
L 253.515746 93.616047 
L 255.557599 106.832718 
L 257.599451 112.479563 
L 259.641304 113.39571 
L 261.683156 98.773389 
L 263.725009 105.374394 
L 265.766861 119.672152 
L 267.808714 103.161762 
L 269.850566 84.976644 
L 271.892419 113.540288 
L 273.934271 112.616389 
L 275.976123 109.047266 
L 278.017976 89.276236 
L 280.059828 93.547551 
L 282.101681 93.117908 
L 284.143533 103.483819 
L 286.185386 99.062772 
L 288.227238 105.133968 
L 290.269091 99.872784 
L 292.310943 99.401406 
L 294.352796 73.381736 
L 296.394648 103.638244 
L 298.436501 100.130628 
L 300.478353 105.996705 
L 302.520206 96.238596 
L 304.562058 79.838638 
L 306.603911 99.477593 
L 308.645763 108.835787 
L 310.687616 83.307807 
L 312.729468 86.449939 
L 314.771321 90.040425 
L 316.813173 96.026149 
L 318.855026 78.143688 
L 320.896878 89.33121 
L 322.938731 84.056777 
L 324.980583 101.345536 
L 327.022436 89.337398 
L 329.064288 78.863652 
L 331.106141 85.228664 
L 333.147993 82.804081 
L 335.189846 72.168511 
L 337.231698 70.201045 
L 339.273551 79.150926 
L 341.315403 74.109544 
L 343.357256 75.451764 
L 345.399108 66.638237 
L 347.440961 80.415772 
L 349.482813 77.087692 
L 351.524666 74.114449 
L 353.566518 58.025154 
L 355.60837 77.901429 
L 357.650223 77.976164 
L 359.692075 85.395893 
L 361.733928 69.355484 
L 363.77578 85.194038 
L 365.817633 59.941974 
L 367.859485 71.531626 
L 369.901338 70.145971 
L 371.94319 75.437705 
L 373.985043 57.817425 
L 376.026895 78.013231 
L 378.068748 70.593424 
L 380.1106 91.882645 
L 382.152453 88.670037 
L 384.194305 63.763216 
L 386.236158 55.295798 
L 388.27801 68.149408 
L 390.319863 66.248495 
L 392.361715 79.263803 
L 394.403568 70.923083 
L 396.44542 65.256781 
L 398.487273 66.23943 
L 398.487273 66.23943 
" clip-path="url(#p66cd26df53)" style="fill: none; stroke: #0000ff; stroke-width: 1.5; stroke-linecap: square"/>
   </g>
   <g id="line2d_19">
    <path d="M 73.832727 282.102988 
L 77.916432 285.335484 
L 79.958285 286.709148 
L 82.000137 291.72422 
L 84.04199 291.911205 
L 86.083842 293.278272 
L 88.125695 293.358228 
L 90.167547 291.91452 
L 92.2094 292.468604 
L 94.251252 292.530107 
L 96.293105 293.576431 
L 98.334957 291.321337 
L 102.418662 292.097547 
L 104.460515 293.216029 
L 106.502367 291.83825 
L 108.54422 291.954617 
L 110.586072 292.496814 
L 112.627925 292.817972 
L 114.669777 292.14074 
L 116.71163 292.867665 
L 118.753482 292.440647 
L 120.795334 293.128469 
L 122.837187 291.730254 
L 124.879039 292.78523 
L 126.920892 293.407727 
L 128.962744 293.303532 
L 131.004597 292.099871 
L 133.046449 292.850773 
L 135.088302 292.646289 
L 137.130154 293.117508 
L 139.172007 291.950544 
L 141.213859 292.911458 
L 143.255712 293.418376 
L 145.297564 293.002024 
L 147.339417 293.19722 
L 151.423122 293.3586 
L 153.464974 294.170023 
L 155.506827 292.846158 
L 157.548679 293.711554 
L 159.590532 294.166125 
L 161.632384 292.4487 
L 163.674237 292.723093 
L 165.716089 292.22049 
L 167.757942 293.162627 
L 169.799794 293.5729 
L 171.841647 292.521831 
L 173.883499 292.939317 
L 175.925352 293.078455 
L 177.967204 293.619846 
L 180.009057 292.53426 
L 182.050909 293.980399 
L 184.092762 293.017572 
L 186.134614 293.614151 
L 188.176467 293.220404 
L 190.218319 293.76627 
L 192.260172 293.474595 
L 194.302024 292.733268 
L 196.343877 293.397235 
L 198.385729 293.679996 
L 200.427581 292.532971 
L 202.469434 293.466394 
L 204.511286 293.095486 
L 206.553139 292.995641 
L 208.594991 293.539862 
L 210.636844 293.487258 
L 212.678696 292.721942 
L 216.762401 293.464154 
L 218.804254 292.618888 
L 220.846106 292.5452 
L 222.887959 293.993755 
L 224.929811 292.926662 
L 226.971664 293.426964 
L 229.013516 293.011066 
L 231.055369 293.47043 
L 233.097221 293.587447 
L 235.139074 293.33689 
L 237.180926 292.645271 
L 241.264631 294.15827 
L 245.348336 292.986311 
L 247.390189 293.98044 
L 249.432041 293.096379 
L 251.473894 293.744374 
L 253.515746 293.87888 
L 255.557599 293.766593 
L 257.599451 294.014711 
L 261.683156 293.710067 
L 263.725009 293.967704 
L 265.766861 293.617393 
L 267.808714 293.618661 
L 269.850566 292.575887 
L 271.892419 293.511619 
L 273.934271 293.902352 
L 275.976123 293.938831 
L 278.017976 293.61619 
L 282.101681 294.124187 
L 284.143533 294.173643 
L 286.185386 293.278387 
L 288.227238 293.162005 
L 290.269091 292.856874 
L 292.310943 294.108455 
L 294.352796 294.317779 
L 296.394648 294.076545 
L 298.436501 294.020136 
L 300.478353 294.556382 
L 302.520206 293.267998 
L 304.562058 293.704505 
L 306.603911 293.336184 
L 308.645763 294.612971 
L 310.687616 293.715124 
L 312.729468 293.423832 
L 314.771321 293.852586 
L 316.813173 293.445696 
L 318.855026 292.898689 
L 320.896878 294.259413 
L 322.938731 293.832684 
L 324.980583 294.69535 
L 327.022436 293.96195 
L 329.064288 294.132965 
L 331.106141 294.623012 
L 333.147993 294.614805 
L 335.189846 293.90745 
L 337.231698 294.648776 
L 339.273551 293.696863 
L 341.315403 295.488 
L 343.357256 294.221685 
L 345.399108 294.657309 
L 347.440961 294.271417 
L 349.482813 295.05212 
L 351.524666 294.48658 
L 353.566518 294.624734 
L 355.60837 295.459587 
L 357.650223 294.023525 
L 359.692075 294.719828 
L 363.77578 294.477449 
L 365.817633 294.567959 
L 367.859485 293.654828 
L 369.901338 294.388396 
L 371.94319 294.597638 
L 373.985043 294.601845 
L 376.026895 293.577406 
L 380.1106 294.662957 
L 382.152453 294.584458 
L 384.194305 293.974353 
L 386.236158 295.043896 
L 388.27801 294.781543 
L 390.319863 294.849361 
L 392.361715 294.592262 
L 394.403568 294.790889 
L 396.44542 294.746356 
L 398.487273 294.456323 
L 398.487273 294.456323 
" clip-path="url(#p66cd26df53)" style="fill: none; stroke: #008000; stroke-width: 1.5; stroke-linecap: square"/>
   </g>
   <g id="line2d_20">
    <path d="M 73.832727 234.943572 
L 75.87458 255.459214 
L 77.916432 267.891698 
L 79.958285 275.428121 
L 82.000137 214.237982 
L 84.04199 231.658576 
L 86.083842 250.643939 
L 88.125695 259.842277 
L 90.167547 204.300398 
L 94.251252 240.379547 
L 96.293105 253.085925 
L 98.334957 188.860917 
L 100.37681 209.93117 
L 102.418662 222.501335 
L 104.460515 243.615574 
L 106.502367 183.386416 
L 108.54422 201.418513 
L 110.586072 228.962356 
L 112.627925 239.924731 
L 114.669777 181.025447 
L 116.71163 194.822507 
L 118.753482 212.143208 
L 120.795334 221.346938 
L 122.837187 173.394827 
L 124.879039 185.733777 
L 126.920892 206.867277 
L 128.962744 218.772449 
L 131.004597 170.907416 
L 133.046449 179.533562 
L 135.088302 209.244918 
L 137.130154 214.983761 
L 139.172007 157.081344 
L 141.213859 173.545287 
L 143.255712 196.318381 
L 145.297564 207.263153 
L 147.339417 150.917338 
L 149.381269 168.29339 
L 151.423122 192.975445 
L 153.464974 192.834482 
L 155.506827 142.238762 
L 157.548679 163.194191 
L 159.590532 180.663174 
L 161.632384 184.232258 
L 163.674237 140.270005 
L 165.716089 141.44715 
L 167.757942 165.560038 
L 169.799794 177.712651 
L 171.841647 134.778492 
L 173.883499 144.785623 
L 175.925352 151.402046 
L 177.967204 175.830728 
L 180.009057 133.142539 
L 182.050909 145.822453 
L 184.092762 150.800159 
L 186.134614 162.658397 
L 188.176467 107.493658 
L 190.218319 124.552311 
L 192.260172 140.446193 
L 194.302024 151.352372 
L 196.343877 114.525063 
L 198.385729 123.332068 
L 200.427581 141.433215 
L 202.469434 135.467697 
L 204.511286 122.102781 
L 206.553139 128.305772 
L 208.594991 133.805593 
L 210.636844 145.807687 
L 212.678696 111.641958 
L 214.720549 133.369188 
L 216.762401 136.646417 
L 218.804254 136.168832 
L 220.846106 116.686068 
L 222.887959 120.893679 
L 224.929811 136.483539 
L 226.971664 132.855702 
L 229.013516 89.217905 
L 231.055369 115.92707 
L 233.097221 102.606449 
L 235.139074 121.576361 
L 237.180926 103.426717 
L 239.222779 122.264284 
L 241.264631 122.39897 
L 243.306484 130.967246 
L 245.348336 93.526381 
L 247.390189 104.181946 
L 249.432041 106.896878 
L 251.473894 124.685984 
L 253.515746 90.723233 
L 255.557599 103.827617 
L 257.599451 109.72258 
L 259.641304 110.452624 
L 261.683156 95.711762 
L 263.725009 102.570404 
L 265.766861 116.51785 
L 267.808714 100.008729 
L 269.850566 80.780836 
L 271.892419 110.280213 
L 273.934271 109.747047 
L 275.976123 106.214402 
L 278.017976 86.120731 
L 280.059828 90.687167 
L 282.101681 90.470401 
L 284.143533 100.885767 
L 286.185386 95.569465 
L 288.227238 101.524279 
L 290.269091 95.957964 
L 292.310943 96.738167 
L 294.352796 70.927821 
L 296.394648 100.943095 
L 298.436501 97.379069 
L 300.478353 103.781394 
L 302.520206 92.7349 
L 304.562058 76.771449 
L 306.603911 96.042083 
L 308.645763 106.677064 
L 310.687616 80.251237 
L 312.729468 83.102076 
L 314.771321 87.121317 
L 316.813173 92.700151 
L 318.855026 74.270683 
L 320.896878 86.818929 
L 322.938731 81.117767 
L 324.980583 99.269192 
L 327.022436 86.527654 
L 329.064288 76.224923 
L 331.106141 83.079982 
L 333.147993 80.647192 
L 335.189846 69.304266 
L 337.231698 68.078127 
L 339.273551 76.076096 
L 341.315403 72.82585 
L 343.357256 72.901755 
L 345.399108 64.523852 
L 347.440961 77.915495 
L 349.482813 75.368118 
L 351.524666 71.829335 
L 353.566518 55.878194 
L 355.60837 76.589322 
L 357.650223 75.227994 
L 359.692075 83.344026 
L 361.733928 67.127369 
L 363.77578 82.899793 
L 365.817633 57.738238 
L 367.859485 68.41476 
L 369.901338 67.762672 
L 371.94319 73.263649 
L 373.985043 55.647576 
L 376.026895 74.818943 
L 378.068748 67.91466 
L 380.1106 89.773908 
L 382.152453 86.4828 
L 384.194305 60.965875 
L 386.236158 53.568 
L 388.27801 66.159256 
L 390.319863 64.326161 
L 392.361715 77.084371 
L 394.403568 68.942278 
L 396.44542 63.231442 
L 398.487273 63.924059 
L 398.487273 63.924059 
" clip-path="url(#p66cd26df53)" style="fill: none; stroke: #ff0000; stroke-width: 1.5; stroke-linecap: square"/>
   </g>
   <g id="patch_3">
    <path d="M 57.6 307.584 
L 57.6 41.472 
" style="fill: none; stroke: #000000; stroke-width: 0.8; stroke-linejoin: miter; stroke-linecap: square"/>
   </g>
   <g id="patch_4">
    <path d="M 414.72 307.584 
L 414.72 41.472 
" style="fill: none; stroke: #000000; stroke-width: 0.8; stroke-linejoin: miter; stroke-linecap: square"/>
   </g>
   <g id="patch_5">
    <path d="M 57.6 307.584 
L 414.72 307.584 
" style="fill: none; stroke: #000000; stroke-width: 0.8; stroke-linejoin: miter; stroke-linecap: square"/>
   </g>
   <g id="patch_6">
    <path d="M 57.6 41.472 
L 414.72 41.472 
" style="fill: none; stroke: #000000; stroke-width: 0.8; stroke-linejoin: miter; stroke-linecap: square"/>
   </g>
   <g id="text_20">
    <!-- The loss curve on voc/voc_fixed_interactive/host/9 -->
    <g transform="translate(84.76125 35.472) scale(0.12 -0.12)">
     <defs>
      <path id="DejaVuSans-54" d="M -19 4666 
L 3928 4666 
L 3928 4134 
L 2272 4134 
L 2272 0 
L 1638 0 
L 1638 4134 
L -19 4134 
L -19 4666 
z
" transform="scale(0.015625)"/>
      <path id="DejaVuSans-72" d="M 2631 2963 
Q 2534 3019 2420 3045 
Q 2306 3072 2169 3072 
Q 1681 3072 1420 2755 
Q 1159 2438 1159 1844 
L 1159 0 
L 581 0 
L 581 3500 
L 1159 3500 
L 1159 2956 
Q 1341 3275 1631 3429 
Q 1922 3584 2338 3584 
Q 2397 3584 2469 3576 
Q 2541 3569 2628 3553 
L 2631 2963 
z
" transform="scale(0.015625)"/>
      <path id="DejaVuSans-6e" d="M 3513 2113 
L 3513 0 
L 2938 0 
L 2938 2094 
Q 2938 2591 2744 2837 
Q 2550 3084 2163 3084 
Q 1697 3084 1428 2787 
Q 1159 2491 1159 1978 
L 1159 0 
L 581 0 
L 581 3500 
L 1159 3500 
L 1159 2956 
Q 1366 3272 1645 3428 
Q 1925 3584 2291 3584 
Q 2894 3584 3203 3211 
Q 3513 2838 3513 2113 
z
" transform="scale(0.015625)"/>
      <path id="DejaVuSans-2f" d="M 1625 4666 
L 2156 4666 
L 531 -594 
L 0 -594 
L 1625 4666 
z
" transform="scale(0.015625)"/>
      <path id="DejaVuSans-5f" d="M 3263 -1063 
L 3263 -1509 
L -63 -1509 
L -63 -1063 
L 3263 -1063 
z
" transform="scale(0.015625)"/>
      <path id="DejaVuSans-66" d="M 2375 4863 
L 2375 4384 
L 1825 4384 
Q 1516 4384 1395 4259 
Q 1275 4134 1275 3809 
L 1275 3500 
L 2222 3500 
L 2222 3053 
L 1275 3053 
L 1275 0 
L 697 0 
L 697 3053 
L 147 3053 
L 147 3500 
L 697 3500 
L 697 3744 
Q 697 4328 969 4595 
Q 1241 4863 1831 4863 
L 2375 4863 
z
" transform="scale(0.015625)"/>
      <path id="DejaVuSans-69" d="M 603 3500 
L 1178 3500 
L 1178 0 
L 603 0 
L 603 3500 
z
M 603 4863 
L 1178 4863 
L 1178 4134 
L 603 4134 
L 603 4863 
z
" transform="scale(0.015625)"/>
      <path id="DejaVuSans-78" d="M 3513 3500 
L 2247 1797 
L 3578 0 
L 2900 0 
L 1881 1375 
L 863 0 
L 184 0 
L 1544 1831 
L 300 3500 
L 978 3500 
L 1906 2253 
L 2834 3500 
L 3513 3500 
z
" transform="scale(0.015625)"/>
      <path id="DejaVuSans-64" d="M 2906 2969 
L 2906 4863 
L 3481 4863 
L 3481 0 
L 2906 0 
L 2906 525 
Q 2725 213 2448 61 
Q 2172 -91 1784 -91 
Q 1150 -91 751 415 
Q 353 922 353 1747 
Q 353 2572 751 3078 
Q 1150 3584 1784 3584 
Q 2172 3584 2448 3432 
Q 2725 3281 2906 2969 
z
M 947 1747 
Q 947 1113 1208 752 
Q 1469 391 1925 391 
Q 2381 391 2643 752 
Q 2906 1113 2906 1747 
Q 2906 2381 2643 2742 
Q 2381 3103 1925 3103 
Q 1469 3103 1208 2742 
Q 947 2381 947 1747 
z
" transform="scale(0.015625)"/>
      <path id="DejaVuSans-74" d="M 1172 4494 
L 1172 3500 
L 2356 3500 
L 2356 3053 
L 1172 3053 
L 1172 1153 
Q 1172 725 1289 603 
Q 1406 481 1766 481 
L 2356 481 
L 2356 0 
L 1766 0 
Q 1100 0 847 248 
Q 594 497 594 1153 
L 594 3053 
L 172 3053 
L 172 3500 
L 594 3500 
L 594 4494 
L 1172 4494 
z
" transform="scale(0.015625)"/>
      <path id="DejaVuSans-39" d="M 703 97 
L 703 672 
Q 941 559 1184 500 
Q 1428 441 1663 441 
Q 2288 441 2617 861 
Q 2947 1281 2994 2138 
Q 2813 1869 2534 1725 
Q 2256 1581 1919 1581 
Q 1219 1581 811 2004 
Q 403 2428 403 3163 
Q 403 3881 828 4315 
Q 1253 4750 1959 4750 
Q 2769 4750 3195 4129 
Q 3622 3509 3622 2328 
Q 3622 1225 3098 567 
Q 2575 -91 1691 -91 
Q 1453 -91 1209 -44 
Q 966 3 703 97 
z
M 1959 2075 
Q 2384 2075 2632 2365 
Q 2881 2656 2881 3163 
Q 2881 3666 2632 3958 
Q 2384 4250 1959 4250 
Q 1534 4250 1286 3958 
Q 1038 3666 1038 3163 
Q 1038 2656 1286 2365 
Q 1534 2075 1959 2075 
z
" transform="scale(0.015625)"/>
     </defs>
     <use xlink:href="#DejaVuSans-54"/>
     <use xlink:href="#DejaVuSans-68" x="61.083984"/>
     <use xlink:href="#DejaVuSans-65" x="124.462891"/>
     <use xlink:href="#DejaVuSans-20" x="185.986328"/>
     <use xlink:href="#DejaVuSans-6c" x="217.773438"/>
     <use xlink:href="#DejaVuSans-6f" x="245.556641"/>
     <use xlink:href="#DejaVuSans-73" x="306.738281"/>
     <use xlink:href="#DejaVuSans-73" x="358.837891"/>
     <use xlink:href="#DejaVuSans-20" x="410.9375"/>
     <use xlink:href="#DejaVuSans-63" x="442.724609"/>
     <use xlink:href="#DejaVuSans-75" x="497.705078"/>
     <use xlink:href="#DejaVuSans-72" x="561.083984"/>
     <use xlink:href="#DejaVuSans-76" x="602.197266"/>
     <use xlink:href="#DejaVuSans-65" x="661.376953"/>
     <use xlink:href="#DejaVuSans-20" x="722.900391"/>
     <use xlink:href="#DejaVuSans-6f" x="754.6875"/>
     <use xlink:href="#DejaVuSans-6e" x="815.869141"/>
     <use xlink:href="#DejaVuSans-20" x="879.248047"/>
     <use xlink:href="#DejaVuSans-76" x="911.035156"/>
     <use xlink:href="#DejaVuSans-6f" x="970.214844"/>
     <use xlink:href="#DejaVuSans-63" x="1031.396484"/>
     <use xlink:href="#DejaVuSans-2f" x="1086.376953"/>
     <use xlink:href="#DejaVuSans-76" x="1120.068359"/>
     <use xlink:href="#DejaVuSans-6f" x="1179.248047"/>
     <use xlink:href="#DejaVuSans-63" x="1240.429688"/>
     <use xlink:href="#DejaVuSans-5f" x="1295.410156"/>
     <use xlink:href="#DejaVuSans-66" x="1345.410156"/>
     <use xlink:href="#DejaVuSans-69" x="1380.615234"/>
     <use xlink:href="#DejaVuSans-78" x="1408.398438"/>
     <use xlink:href="#DejaVuSans-65" x="1464.453125"/>
     <use xlink:href="#DejaVuSans-64" x="1525.976562"/>
     <use xlink:href="#DejaVuSans-5f" x="1589.453125"/>
     <use xlink:href="#DejaVuSans-69" x="1639.453125"/>
     <use xlink:href="#DejaVuSans-6e" x="1667.236328"/>
     <use xlink:href="#DejaVuSans-74" x="1730.615234"/>
     <use xlink:href="#DejaVuSans-65" x="1769.824219"/>
     <use xlink:href="#DejaVuSans-72" x="1831.347656"/>
     <use xlink:href="#DejaVuSans-61" x="1872.460938"/>
     <use xlink:href="#DejaVuSans-63" x="1933.740234"/>
     <use xlink:href="#DejaVuSans-74" x="1988.720703"/>
     <use xlink:href="#DejaVuSans-69" x="2027.929688"/>
     <use xlink:href="#DejaVuSans-76" x="2055.712891"/>
     <use xlink:href="#DejaVuSans-65" x="2114.892578"/>
     <use xlink:href="#DejaVuSans-2f" x="2176.416016"/>
     <use xlink:href="#DejaVuSans-68" x="2210.107422"/>
     <use xlink:href="#DejaVuSans-6f" x="2273.486328"/>
     <use xlink:href="#DejaVuSans-73" x="2334.667969"/>
     <use xlink:href="#DejaVuSans-74" x="2386.767578"/>
     <use xlink:href="#DejaVuSans-2f" x="2425.976562"/>
     <use xlink:href="#DejaVuSans-39" x="2459.667969"/>
    </g>
   </g>
   <g id="legend_1">
    <g id="patch_7">
     <path d="M 64.6 94.34075 
L 159.598437 94.34075 
Q 161.598437 94.34075 161.598437 92.34075 
L 161.598437 48.472 
Q 161.598437 46.472 159.598437 46.472 
L 64.6 46.472 
Q 62.6 46.472 62.6 48.472 
L 62.6 92.34075 
Q 62.6 94.34075 64.6 94.34075 
z
" style="fill: #ffffff; opacity: 0.8; stroke: #cccccc; stroke-linejoin: miter"/>
    </g>
    <g id="line2d_21">
     <path d="M 66.6 54.570438 
L 76.6 54.570438 
L 86.6 54.570438 
" style="fill: none; stroke: #0000ff; stroke-width: 1.5; stroke-linecap: square"/>
    </g>
    <g id="text_21">
     <!-- entropy_loss -->
     <g transform="translate(94.6 58.070438) scale(0.1 -0.1)">
      <defs>
       <path id="DejaVuSans-79" d="M 2059 -325 
Q 1816 -950 1584 -1140 
Q 1353 -1331 966 -1331 
L 506 -1331 
L 506 -850 
L 844 -850 
Q 1081 -850 1212 -737 
Q 1344 -625 1503 -206 
L 1606 56 
L 191 3500 
L 800 3500 
L 1894 763 
L 2988 3500 
L 3597 3500 
L 2059 -325 
z
" transform="scale(0.015625)"/>
      </defs>
      <use xlink:href="#DejaVuSans-65"/>
      <use xlink:href="#DejaVuSans-6e" x="61.523438"/>
      <use xlink:href="#DejaVuSans-74" x="124.902344"/>
      <use xlink:href="#DejaVuSans-72" x="164.111328"/>
      <use xlink:href="#DejaVuSans-6f" x="202.974609"/>
      <use xlink:href="#DejaVuSans-70" x="264.15625"/>
      <use xlink:href="#DejaVuSans-79" x="327.632812"/>
      <use xlink:href="#DejaVuSans-5f" x="386.8125"/>
      <use xlink:href="#DejaVuSans-6c" x="436.8125"/>
      <use xlink:href="#DejaVuSans-6f" x="464.595703"/>
      <use xlink:href="#DejaVuSans-73" x="525.777344"/>
      <use xlink:href="#DejaVuSans-73" x="577.876953"/>
     </g>
    </g>
    <g id="line2d_22">
     <path d="M 66.6 69.526688 
L 76.6 69.526688 
L 86.6 69.526688 
" style="fill: none; stroke: #008000; stroke-width: 1.5; stroke-linecap: square"/>
    </g>
    <g id="text_22">
     <!-- relation_loss -->
     <g transform="translate(94.6 73.026688) scale(0.1 -0.1)">
      <use xlink:href="#DejaVuSans-72"/>
      <use xlink:href="#DejaVuSans-65" x="38.863281"/>
      <use xlink:href="#DejaVuSans-6c" x="100.386719"/>
      <use xlink:href="#DejaVuSans-61" x="128.169922"/>
      <use xlink:href="#DejaVuSans-74" x="189.449219"/>
      <use xlink:href="#DejaVuSans-69" x="228.658203"/>
      <use xlink:href="#DejaVuSans-6f" x="256.441406"/>
      <use xlink:href="#DejaVuSans-6e" x="317.623047"/>
      <use xlink:href="#DejaVuSans-5f" x="381.001953"/>
      <use xlink:href="#DejaVuSans-6c" x="431.001953"/>
      <use xlink:href="#DejaVuSans-6f" x="458.785156"/>
      <use xlink:href="#DejaVuSans-73" x="519.966797"/>
      <use xlink:href="#DejaVuSans-73" x="572.066406"/>
     </g>
    </g>
    <g id="line2d_23">
     <path d="M 66.6 84.482938 
L 76.6 84.482938 
L 86.6 84.482938 
" style="fill: none; stroke: #ff0000; stroke-width: 1.5; stroke-linecap: square"/>
    </g>
    <g id="text_23">
     <!-- overall_loss -->
     <g transform="translate(94.6 87.982938) scale(0.1 -0.1)">
      <use xlink:href="#DejaVuSans-6f"/>
      <use xlink:href="#DejaVuSans-76" x="61.181641"/>
      <use xlink:href="#DejaVuSans-65" x="120.361328"/>
      <use xlink:href="#DejaVuSans-72" x="181.884766"/>
      <use xlink:href="#DejaVuSans-61" x="222.998047"/>
      <use xlink:href="#DejaVuSans-6c" x="284.277344"/>
      <use xlink:href="#DejaVuSans-6c" x="312.060547"/>
      <use xlink:href="#DejaVuSans-5f" x="339.84375"/>
      <use xlink:href="#DejaVuSans-6c" x="389.84375"/>
      <use xlink:href="#DejaVuSans-6f" x="417.626953"/>
      <use xlink:href="#DejaVuSans-73" x="478.808594"/>
      <use xlink:href="#DejaVuSans-73" x="530.908203"/>
     </g>
    </g>
   </g>
  </g>
 </g>
 <defs>
  <clipPath id="p66cd26df53">
   <rect x="57.6" y="41.472" width="357.12" height="266.112"/>
  </clipPath>
 </defs>
</svg>
