<?xml version="1.0" encoding="utf-8" standalone="no"?>
<!DOCTYPE svg PUBLIC "-//W3C//DTD SVG 1.1//EN"
  "http://www.w3.org/Graphics/SVG/1.1/DTD/svg11.dtd">
<svg xmlns:xlink="http://www.w3.org/1999/xlink" width="460.8pt" height="345.6pt" viewBox="0 0 460.8 345.6" xmlns="http://www.w3.org/2000/svg" version="1.1">
 <metadata>
  <rdf:RDF xmlns:dc="http://purl.org/dc/elements/1.1/" xmlns:cc="http://creativecommons.org/ns#" xmlns:rdf="http://www.w3.org/1999/02/22-rdf-syntax-ns#">
   <cc:Work>
    <dc:type rdf:resource="http://purl.org/dc/dcmitype/StillImage"/>
    <dc:date>2023-04-13T09:23:01.341734</dc:date>
    <dc:format>image/svg+xml</dc:format>
    <dc:creator>
     <cc:Agent>
      <dc:title>Matplotlib v3.7.1, https://matplotlib.org/</dc:title>
     </cc:Agent>
    </dc:creator>
   </cc:Work>
  </rdf:RDF>
 </metadata>
 <defs>
  <style type="text/css">*{stroke-linejoin: round; stroke-linecap: butt}</style>
 </defs>
 <g id="figure_1">
  <g id="patch_1">
   <path d="M 0 345.6 
L 460.8 345.6 
L 460.8 0 
L 0 0 
z
" style="fill: #ffffff"/>
  </g>
  <g id="axes_1">
   <g id="patch_2">
    <path d="M 57.6 307.584 
L 414.72 307.584 
L 414.72 41.472 
L 57.6 41.472 
z
" style="fill: #ffffff"/>
   </g>
   <g id="matplotlib.axis_1">
    <g id="xtick_1">
     <g id="line2d_1">
      <defs>
       <path id="m7a01416df6" d="M 0 0 
L 0 3.5 
" style="stroke: #000000; stroke-width: 0.8"/>
      </defs>
      <g>
       <use xlink:href="#m7a01416df6" x="73.832727" y="307.584" style="stroke: #000000; stroke-width: 0.8"/>
      </g>
     </g>
     <g id="text_1">
      <!-- 0 -->
      <g transform="translate(70.651477 322.182437) scale(0.1 -0.1)">
       <defs>
        <path id="DejaVuSans-30" d="M 2034 4250 
Q 1547 4250 1301 3770 
Q 1056 3291 1056 2328 
Q 1056 1369 1301 889 
Q 1547 409 2034 409 
Q 2525 409 2770 889 
Q 3016 1369 3016 2328 
Q 3016 3291 2770 3770 
Q 2525 4250 2034 4250 
z
M 2034 4750 
Q 2819 4750 3233 4129 
Q 3647 3509 3647 2328 
Q 3647 1150 3233 529 
Q 2819 -91 2034 -91 
Q 1250 -91 836 529 
Q 422 1150 422 2328 
Q 422 3509 836 4129 
Q 1250 4750 2034 4750 
z
" transform="scale(0.015625)"/>
       </defs>
       <use xlink:href="#DejaVuSans-30"/>
      </g>
     </g>
    </g>
    <g id="xtick_2">
     <g id="line2d_2">
      <g>
       <use xlink:href="#m7a01416df6" x="138.893758" y="307.584" style="stroke: #000000; stroke-width: 0.8"/>
      </g>
     </g>
     <g id="text_2">
      <!-- 100 -->
      <g transform="translate(129.350008 322.182437) scale(0.1 -0.1)">
       <defs>
        <path id="DejaVuSans-31" d="M 794 531 
L 1825 531 
L 1825 4091 
L 703 3866 
L 703 4441 
L 1819 4666 
L 2450 4666 
L 2450 531 
L 3481 531 
L 3481 0 
L 794 0 
L 794 531 
z
" transform="scale(0.015625)"/>
       </defs>
       <use xlink:href="#DejaVuSans-31"/>
       <use xlink:href="#DejaVuSans-30" x="63.623047"/>
       <use xlink:href="#DejaVuSans-30" x="127.246094"/>
      </g>
     </g>
    </g>
    <g id="xtick_3">
     <g id="line2d_3">
      <g>
       <use xlink:href="#m7a01416df6" x="203.95479" y="307.584" style="stroke: #000000; stroke-width: 0.8"/>
      </g>
     </g>
     <g id="text_3">
      <!-- 200 -->
      <g transform="translate(194.41104 322.182437) scale(0.1 -0.1)">
       <defs>
        <path id="DejaVuSans-32" d="M 1228 531 
L 3431 531 
L 3431 0 
L 469 0 
L 469 531 
Q 828 903 1448 1529 
Q 2069 2156 2228 2338 
Q 2531 2678 2651 2914 
Q 2772 3150 2772 3378 
Q 2772 3750 2511 3984 
Q 2250 4219 1831 4219 
Q 1534 4219 1204 4116 
Q 875 4013 500 3803 
L 500 4441 
Q 881 4594 1212 4672 
Q 1544 4750 1819 4750 
Q 2544 4750 2975 4387 
Q 3406 4025 3406 3419 
Q 3406 3131 3298 2873 
Q 3191 2616 2906 2266 
Q 2828 2175 2409 1742 
Q 1991 1309 1228 531 
z
" transform="scale(0.015625)"/>
       </defs>
       <use xlink:href="#DejaVuSans-32"/>
       <use xlink:href="#DejaVuSans-30" x="63.623047"/>
       <use xlink:href="#DejaVuSans-30" x="127.246094"/>
      </g>
     </g>
    </g>
    <g id="xtick_4">
     <g id="line2d_4">
      <g>
       <use xlink:href="#m7a01416df6" x="269.015821" y="307.584" style="stroke: #000000; stroke-width: 0.8"/>
      </g>
     </g>
     <g id="text_4">
      <!-- 300 -->
      <g transform="translate(259.472071 322.182437) scale(0.1 -0.1)">
       <defs>
        <path id="DejaVuSans-33" d="M 2597 2516 
Q 3050 2419 3304 2112 
Q 3559 1806 3559 1356 
Q 3559 666 3084 287 
Q 2609 -91 1734 -91 
Q 1441 -91 1130 -33 
Q 819 25 488 141 
L 488 750 
Q 750 597 1062 519 
Q 1375 441 1716 441 
Q 2309 441 2620 675 
Q 2931 909 2931 1356 
Q 2931 1769 2642 2001 
Q 2353 2234 1838 2234 
L 1294 2234 
L 1294 2753 
L 1863 2753 
Q 2328 2753 2575 2939 
Q 2822 3125 2822 3475 
Q 2822 3834 2567 4026 
Q 2313 4219 1838 4219 
Q 1578 4219 1281 4162 
Q 984 4106 628 3988 
L 628 4550 
Q 988 4650 1302 4700 
Q 1616 4750 1894 4750 
Q 2613 4750 3031 4423 
Q 3450 4097 3450 3541 
Q 3450 3153 3228 2886 
Q 3006 2619 2597 2516 
z
" transform="scale(0.015625)"/>
       </defs>
       <use xlink:href="#DejaVuSans-33"/>
       <use xlink:href="#DejaVuSans-30" x="63.623047"/>
       <use xlink:href="#DejaVuSans-30" x="127.246094"/>
      </g>
     </g>
    </g>
    <g id="xtick_5">
     <g id="line2d_5">
      <g>
       <use xlink:href="#m7a01416df6" x="334.076852" y="307.584" style="stroke: #000000; stroke-width: 0.8"/>
      </g>
     </g>
     <g id="text_5">
      <!-- 400 -->
      <g transform="translate(324.533102 322.182437) scale(0.1 -0.1)">
       <defs>
        <path id="DejaVuSans-34" d="M 2419 4116 
L 825 1625 
L 2419 1625 
L 2419 4116 
z
M 2253 4666 
L 3047 4666 
L 3047 1625 
L 3713 1625 
L 3713 1100 
L 3047 1100 
L 3047 0 
L 2419 0 
L 2419 1100 
L 313 1100 
L 313 1709 
L 2253 4666 
z
" transform="scale(0.015625)"/>
       </defs>
       <use xlink:href="#DejaVuSans-34"/>
       <use xlink:href="#DejaVuSans-30" x="63.623047"/>
       <use xlink:href="#DejaVuSans-30" x="127.246094"/>
      </g>
     </g>
    </g>
    <g id="xtick_6">
     <g id="line2d_6">
      <g>
       <use xlink:href="#m7a01416df6" x="399.137883" y="307.584" style="stroke: #000000; stroke-width: 0.8"/>
      </g>
     </g>
     <g id="text_6">
      <!-- 500 -->
      <g transform="translate(389.594133 322.182437) scale(0.1 -0.1)">
       <defs>
        <path id="DejaVuSans-35" d="M 691 4666 
L 3169 4666 
L 3169 4134 
L 1269 4134 
L 1269 2991 
Q 1406 3038 1543 3061 
Q 1681 3084 1819 3084 
Q 2600 3084 3056 2656 
Q 3513 2228 3513 1497 
Q 3513 744 3044 326 
Q 2575 -91 1722 -91 
Q 1428 -91 1123 -41 
Q 819 9 494 109 
L 494 744 
Q 775 591 1075 516 
Q 1375 441 1709 441 
Q 2250 441 2565 725 
Q 2881 1009 2881 1497 
Q 2881 1984 2565 2268 
Q 2250 2553 1709 2553 
Q 1456 2553 1204 2497 
Q 953 2441 691 2322 
L 691 4666 
z
" transform="scale(0.015625)"/>
       </defs>
       <use xlink:href="#DejaVuSans-35"/>
       <use xlink:href="#DejaVuSans-30" x="63.623047"/>
       <use xlink:href="#DejaVuSans-30" x="127.246094"/>
      </g>
     </g>
    </g>
    <g id="text_7">
     <!-- epoch -->
     <g transform="translate(220.931875 335.860562) scale(0.1 -0.1)">
      <defs>
       <path id="DejaVuSans-65" d="M 3597 1894 
L 3597 1613 
L 953 1613 
Q 991 1019 1311 708 
Q 1631 397 2203 397 
Q 2534 397 2845 478 
Q 3156 559 3463 722 
L 3463 178 
Q 3153 47 2828 -22 
Q 2503 -91 2169 -91 
Q 1331 -91 842 396 
Q 353 884 353 1716 
Q 353 2575 817 3079 
Q 1281 3584 2069 3584 
Q 2775 3584 3186 3129 
Q 3597 2675 3597 1894 
z
M 3022 2063 
Q 3016 2534 2758 2815 
Q 2500 3097 2075 3097 
Q 1594 3097 1305 2825 
Q 1016 2553 972 2059 
L 3022 2063 
z
" transform="scale(0.015625)"/>
       <path id="DejaVuSans-70" d="M 1159 525 
L 1159 -1331 
L 581 -1331 
L 581 3500 
L 1159 3500 
L 1159 2969 
Q 1341 3281 1617 3432 
Q 1894 3584 2278 3584 
Q 2916 3584 3314 3078 
Q 3713 2572 3713 1747 
Q 3713 922 3314 415 
Q 2916 -91 2278 -91 
Q 1894 -91 1617 61 
Q 1341 213 1159 525 
z
M 3116 1747 
Q 3116 2381 2855 2742 
Q 2594 3103 2138 3103 
Q 1681 3103 1420 2742 
Q 1159 2381 1159 1747 
Q 1159 1113 1420 752 
Q 1681 391 2138 391 
Q 2594 391 2855 752 
Q 3116 1113 3116 1747 
z
" transform="scale(0.015625)"/>
       <path id="DejaVuSans-6f" d="M 1959 3097 
Q 1497 3097 1228 2736 
Q 959 2375 959 1747 
Q 959 1119 1226 758 
Q 1494 397 1959 397 
Q 2419 397 2687 759 
Q 2956 1122 2956 1747 
Q 2956 2369 2687 2733 
Q 2419 3097 1959 3097 
z
M 1959 3584 
Q 2709 3584 3137 3096 
Q 3566 2609 3566 1747 
Q 3566 888 3137 398 
Q 2709 -91 1959 -91 
Q 1206 -91 779 398 
Q 353 888 353 1747 
Q 353 2609 779 3096 
Q 1206 3584 1959 3584 
z
" transform="scale(0.015625)"/>
       <path id="DejaVuSans-63" d="M 3122 3366 
L 3122 2828 
Q 2878 2963 2633 3030 
Q 2388 3097 2138 3097 
Q 1578 3097 1268 2742 
Q 959 2388 959 1747 
Q 959 1106 1268 751 
Q 1578 397 2138 397 
Q 2388 397 2633 464 
Q 2878 531 3122 666 
L 3122 134 
Q 2881 22 2623 -34 
Q 2366 -91 2075 -91 
Q 1284 -91 818 406 
Q 353 903 353 1747 
Q 353 2603 823 3093 
Q 1294 3584 2113 3584 
Q 2378 3584 2631 3529 
Q 2884 3475 3122 3366 
z
" transform="scale(0.015625)"/>
       <path id="DejaVuSans-68" d="M 3513 2113 
L 3513 0 
L 2938 0 
L 2938 2094 
Q 2938 2591 2744 2837 
Q 2550 3084 2163 3084 
Q 1697 3084 1428 2787 
Q 1159 2491 1159 1978 
L 1159 0 
L 581 0 
L 581 4863 
L 1159 4863 
L 1159 2956 
Q 1366 3272 1645 3428 
Q 1925 3584 2291 3584 
Q 2894 3584 3203 3211 
Q 3513 2838 3513 2113 
z
" transform="scale(0.015625)"/>
      </defs>
      <use xlink:href="#DejaVuSans-65"/>
      <use xlink:href="#DejaVuSans-70" x="61.523438"/>
      <use xlink:href="#DejaVuSans-6f" x="125"/>
      <use xlink:href="#DejaVuSans-63" x="186.181641"/>
      <use xlink:href="#DejaVuSans-68" x="241.162109"/>
     </g>
    </g>
   </g>
   <g id="matplotlib.axis_2">
    <g id="ytick_1">
     <g id="line2d_7">
      <defs>
       <path id="mfbf07a174d" d="M 0 0 
L -3.5 0 
" style="stroke: #000000; stroke-width: 0.8"/>
      </defs>
      <g>
       <use xlink:href="#mfbf07a174d" x="57.6" y="269.979871" style="stroke: #000000; stroke-width: 0.8"/>
      </g>
     </g>
     <g id="text_8">
      <!-- 0.2 -->
      <g transform="translate(34.696875 273.77909) scale(0.1 -0.1)">
       <defs>
        <path id="DejaVuSans-2e" d="M 684 794 
L 1344 794 
L 1344 0 
L 684 0 
L 684 794 
z
" transform="scale(0.015625)"/>
       </defs>
       <use xlink:href="#DejaVuSans-30"/>
       <use xlink:href="#DejaVuSans-2e" x="63.623047"/>
       <use xlink:href="#DejaVuSans-32" x="95.410156"/>
      </g>
     </g>
    </g>
    <g id="ytick_2">
     <g id="line2d_8">
      <g>
       <use xlink:href="#mfbf07a174d" x="57.6" y="211.159368" style="stroke: #000000; stroke-width: 0.8"/>
      </g>
     </g>
     <g id="text_9">
      <!-- 0.4 -->
      <g transform="translate(34.696875 214.958587) scale(0.1 -0.1)">
       <use xlink:href="#DejaVuSans-30"/>
       <use xlink:href="#DejaVuSans-2e" x="63.623047"/>
       <use xlink:href="#DejaVuSans-34" x="95.410156"/>
      </g>
     </g>
    </g>
    <g id="ytick_3">
     <g id="line2d_9">
      <g>
       <use xlink:href="#mfbf07a174d" x="57.6" y="152.338865" style="stroke: #000000; stroke-width: 0.8"/>
      </g>
     </g>
     <g id="text_10">
      <!-- 0.6 -->
      <g transform="translate(34.696875 156.138084) scale(0.1 -0.1)">
       <defs>
        <path id="DejaVuSans-36" d="M 2113 2584 
Q 1688 2584 1439 2293 
Q 1191 2003 1191 1497 
Q 1191 994 1439 701 
Q 1688 409 2113 409 
Q 2538 409 2786 701 
Q 3034 994 3034 1497 
Q 3034 2003 2786 2293 
Q 2538 2584 2113 2584 
z
M 3366 4563 
L 3366 3988 
Q 3128 4100 2886 4159 
Q 2644 4219 2406 4219 
Q 1781 4219 1451 3797 
Q 1122 3375 1075 2522 
Q 1259 2794 1537 2939 
Q 1816 3084 2150 3084 
Q 2853 3084 3261 2657 
Q 3669 2231 3669 1497 
Q 3669 778 3244 343 
Q 2819 -91 2113 -91 
Q 1303 -91 875 529 
Q 447 1150 447 2328 
Q 447 3434 972 4092 
Q 1497 4750 2381 4750 
Q 2619 4750 2861 4703 
Q 3103 4656 3366 4563 
z
" transform="scale(0.015625)"/>
       </defs>
       <use xlink:href="#DejaVuSans-30"/>
       <use xlink:href="#DejaVuSans-2e" x="63.623047"/>
       <use xlink:href="#DejaVuSans-36" x="95.410156"/>
      </g>
     </g>
    </g>
    <g id="ytick_4">
     <g id="line2d_10">
      <g>
       <use xlink:href="#mfbf07a174d" x="57.6" y="93.518363" style="stroke: #000000; stroke-width: 0.8"/>
      </g>
     </g>
     <g id="text_11">
      <!-- 0.8 -->
      <g transform="translate(34.696875 97.317581) scale(0.1 -0.1)">
       <defs>
        <path id="DejaVuSans-38" d="M 2034 2216 
Q 1584 2216 1326 1975 
Q 1069 1734 1069 1313 
Q 1069 891 1326 650 
Q 1584 409 2034 409 
Q 2484 409 2743 651 
Q 3003 894 3003 1313 
Q 3003 1734 2745 1975 
Q 2488 2216 2034 2216 
z
M 1403 2484 
Q 997 2584 770 2862 
Q 544 3141 544 3541 
Q 544 4100 942 4425 
Q 1341 4750 2034 4750 
Q 2731 4750 3128 4425 
Q 3525 4100 3525 3541 
Q 3525 3141 3298 2862 
Q 3072 2584 2669 2484 
Q 3125 2378 3379 2068 
Q 3634 1759 3634 1313 
Q 3634 634 3220 271 
Q 2806 -91 2034 -91 
Q 1263 -91 848 271 
Q 434 634 434 1313 
Q 434 1759 690 2068 
Q 947 2378 1403 2484 
z
M 1172 3481 
Q 1172 3119 1398 2916 
Q 1625 2713 2034 2713 
Q 2441 2713 2670 2916 
Q 2900 3119 2900 3481 
Q 2900 3844 2670 4047 
Q 2441 4250 2034 4250 
Q 1625 4250 1398 4047 
Q 1172 3844 1172 3481 
z
" transform="scale(0.015625)"/>
       </defs>
       <use xlink:href="#DejaVuSans-30"/>
       <use xlink:href="#DejaVuSans-2e" x="63.623047"/>
       <use xlink:href="#DejaVuSans-38" x="95.410156"/>
      </g>
     </g>
    </g>
    <g id="text_12">
     <!-- loss value -->
     <g transform="translate(28.617187 199.432687) rotate(-90) scale(0.1 -0.1)">
      <defs>
       <path id="DejaVuSans-6c" d="M 603 4863 
L 1178 4863 
L 1178 0 
L 603 0 
L 603 4863 
z
" transform="scale(0.015625)"/>
       <path id="DejaVuSans-73" d="M 2834 3397 
L 2834 2853 
Q 2591 2978 2328 3040 
Q 2066 3103 1784 3103 
Q 1356 3103 1142 2972 
Q 928 2841 928 2578 
Q 928 2378 1081 2264 
Q 1234 2150 1697 2047 
L 1894 2003 
Q 2506 1872 2764 1633 
Q 3022 1394 3022 966 
Q 3022 478 2636 193 
Q 2250 -91 1575 -91 
Q 1294 -91 989 -36 
Q 684 19 347 128 
L 347 722 
Q 666 556 975 473 
Q 1284 391 1588 391 
Q 1994 391 2212 530 
Q 2431 669 2431 922 
Q 2431 1156 2273 1281 
Q 2116 1406 1581 1522 
L 1381 1569 
Q 847 1681 609 1914 
Q 372 2147 372 2553 
Q 372 3047 722 3315 
Q 1072 3584 1716 3584 
Q 2034 3584 2315 3537 
Q 2597 3491 2834 3397 
z
" transform="scale(0.015625)"/>
       <path id="DejaVuSans-20" transform="scale(0.015625)"/>
       <path id="DejaVuSans-76" d="M 191 3500 
L 800 3500 
L 1894 563 
L 2988 3500 
L 3597 3500 
L 2284 0 
L 1503 0 
L 191 3500 
z
" transform="scale(0.015625)"/>
       <path id="DejaVuSans-61" d="M 2194 1759 
Q 1497 1759 1228 1600 
Q 959 1441 959 1056 
Q 959 750 1161 570 
Q 1363 391 1709 391 
Q 2188 391 2477 730 
Q 2766 1069 2766 1631 
L 2766 1759 
L 2194 1759 
z
M 3341 1997 
L 3341 0 
L 2766 0 
L 2766 531 
Q 2569 213 2275 61 
Q 1981 -91 1556 -91 
Q 1019 -91 701 211 
Q 384 513 384 1019 
Q 384 1609 779 1909 
Q 1175 2209 1959 2209 
L 2766 2209 
L 2766 2266 
Q 2766 2663 2505 2880 
Q 2244 3097 1772 3097 
Q 1472 3097 1187 3025 
Q 903 2953 641 2809 
L 641 3341 
Q 956 3463 1253 3523 
Q 1550 3584 1831 3584 
Q 2591 3584 2966 3190 
Q 3341 2797 3341 1997 
z
" transform="scale(0.015625)"/>
       <path id="DejaVuSans-75" d="M 544 1381 
L 544 3500 
L 1119 3500 
L 1119 1403 
Q 1119 906 1312 657 
Q 1506 409 1894 409 
Q 2359 409 2629 706 
Q 2900 1003 2900 1516 
L 2900 3500 
L 3475 3500 
L 3475 0 
L 2900 0 
L 2900 538 
Q 2691 219 2414 64 
Q 2138 -91 1772 -91 
Q 1169 -91 856 284 
Q 544 659 544 1381 
z
M 1991 3584 
L 1991 3584 
z
" transform="scale(0.015625)"/>
      </defs>
      <use xlink:href="#DejaVuSans-6c"/>
      <use xlink:href="#DejaVuSans-6f" x="27.783203"/>
      <use xlink:href="#DejaVuSans-73" x="88.964844"/>
      <use xlink:href="#DejaVuSans-73" x="141.064453"/>
      <use xlink:href="#DejaVuSans-20" x="193.164062"/>
      <use xlink:href="#DejaVuSans-76" x="224.951172"/>
      <use xlink:href="#DejaVuSans-61" x="284.130859"/>
      <use xlink:href="#DejaVuSans-6c" x="345.410156"/>
      <use xlink:href="#DejaVuSans-75" x="373.193359"/>
      <use xlink:href="#DejaVuSans-65" x="436.572266"/>
     </g>
    </g>
   </g>
   <g id="line2d_11">
    <path d="M 73.832727 89.364042 
L 74.483338 134.755552 
L 75.133948 194.898461 
L 75.784558 244.388088 
L 76.435169 269.243186 
L 77.085779 279.848252 
L 77.736389 284.256933 
L 78.386999 283.87178 
L 79.03761 283.846409 
L 79.68822 285.522678 
L 80.33883 225.41758 
L 80.989441 250.085402 
L 81.640051 268.96156 
L 82.290661 278.353129 
L 82.941272 282.421353 
L 83.591882 282.193899 
L 84.242492 282.333818 
L 84.893103 281.865319 
L 85.543713 280.874298 
L 86.194323 282.95608 
L 86.844934 231.478307 
L 87.495544 256.124843 
L 88.146154 273.529122 
L 88.796764 281.666894 
L 89.447375 285.688488 
L 90.097985 288.30477 
L 90.748595 287.982619 
L 92.700426 290.252668 
L 93.351037 226.888538 
L 94.001647 253.02447 
L 94.652257 272.5627 
L 95.302868 282.497205 
L 95.953478 287.248643 
L 96.604088 290.056399 
L 97.254698 288.955991 
L 98.555919 290.645481 
L 99.206529 290.673836 
L 99.85714 231.641072 
L 100.50775 256.386499 
L 101.15836 275.493494 
L 101.808971 283.209514 
L 102.459581 289.02782 
L 103.110191 290.243854 
L 103.760802 290.340492 
L 104.411412 292.453447 
L 105.062022 291.514604 
L 105.712633 292.167901 
L 106.363243 229.497457 
L 107.013853 254.634291 
L 107.664463 274.768651 
L 108.315074 284.792742 
L 108.965684 288.822891 
L 109.616294 291.174695 
L 110.266905 291.326552 
L 110.917515 292.55789 
L 111.568125 292.624983 
L 112.218736 292.940199 
L 112.869346 232.780742 
L 113.519956 256.942095 
L 114.170567 275.832855 
L 114.821177 285.566182 
L 115.471787 290.339865 
L 116.122398 292.806786 
L 116.773008 291.777197 
L 117.423618 293.594879 
L 118.074228 294.231134 
L 118.724839 292.999494 
L 119.375449 230.86867 
L 120.026059 256.644539 
L 120.67667 276.282649 
L 121.32728 285.88995 
L 121.97789 291.404328 
L 122.628501 292.500083 
L 123.279111 293.130059 
L 123.929721 292.249756 
L 124.580332 293.225371 
L 125.230942 294.491637 
L 125.881552 231.779786 
L 126.532163 258.366428 
L 127.182773 276.252967 
L 127.833383 286.779618 
L 128.483993 291.184293 
L 129.134604 293.317319 
L 129.785214 294.484 
L 130.435824 293.551567 
L 131.086435 294.625953 
L 131.737045 295.048366 
L 132.387655 231.215569 
L 133.038266 257.06104 
L 133.688876 276.579132 
L 134.339486 286.537596 
L 134.990097 291.508828 
L 135.640707 293.747754 
L 136.291317 294.91623 
L 136.941927 294.036084 
L 137.592538 295.294529 
L 138.243148 295.488 
L 138.893758 232.691506 
L 139.544369 257.255183 
L 140.194979 266.875097 
L 140.845589 273.819036 
L 142.14681 284.098366 
L 142.79742 287.486506 
L 143.448031 289.848262 
L 144.098641 290.053861 
L 144.749251 292.737705 
L 145.399862 231.841316 
L 146.701082 258.702007 
L 147.351692 270.217702 
L 148.002303 277.692871 
L 149.303523 287.007795 
L 149.954134 290.119064 
L 150.604744 289.94369 
L 151.255354 291.075862 
L 151.905965 231.294077 
L 152.556575 246.48672 
L 153.857796 270.176235 
L 155.159016 283.476165 
L 155.809627 287.681486 
L 156.460237 289.162147 
L 157.110847 291.336413 
L 157.761457 291.196182 
L 158.412068 231.398116 
L 159.713288 257.737653 
L 160.363899 268.516559 
L 161.665119 282.076532 
L 162.31573 284.780151 
L 162.96634 288.992221 
L 163.61695 289.529823 
L 164.267561 291.717744 
L 164.918171 231.838914 
L 166.219392 257.044706 
L 166.870002 266.725361 
L 168.171222 281.076189 
L 169.472443 286.052632 
L 170.123053 289.173357 
L 170.773664 289.626733 
L 171.424274 232.250331 
L 172.725495 255.574931 
L 174.026715 273.892836 
L 174.677326 278.662001 
L 175.978546 286.668719 
L 176.629156 287.720801 
L 177.279767 289.809622 
L 177.930377 233.009524 
L 179.882208 264.831262 
L 180.532818 272.085313 
L 181.183429 277.958795 
L 181.834039 282.634845 
L 183.13526 287.250067 
L 183.78587 288.406206 
L 184.43648 231.985429 
L 185.087091 244.300561 
L 187.038921 269.731849 
L 187.689532 275.611321 
L 188.340142 279.678624 
L 189.641363 285.765436 
L 190.291973 287.224013 
L 190.942583 231.415147 
L 192.243804 252.873564 
L 194.195635 275.583983 
L 194.846245 278.852165 
L 195.496856 282.994922 
L 196.147466 285.185206 
L 196.798076 285.803134 
L 197.448686 232.057082 
L 199.400517 259.884533 
L 200.701738 272.883992 
L 201.352348 277.246503 
L 202.653569 283.85875 
L 203.304179 285.145877 
L 203.95479 232.345343 
L 205.906621 259.574403 
L 207.207841 271.718409 
L 207.858451 275.045917 
L 208.509062 279.14005 
L 209.159672 282.189635 
L 209.810282 283.145285 
L 210.460893 232.314508 
L 211.762113 249.959792 
L 213.063334 264.613392 
L 214.364555 273.480547 
L 215.015165 277.66832 
L 216.316385 283.520621 
L 216.966996 231.988707 
L 218.268216 248.418355 
L 219.569437 262.821541 
L 220.220047 268.059994 
L 220.870658 271.788379 
L 221.521268 276.959833 
L 222.171878 278.583489 
L 222.822489 281.155306 
L 223.473099 233.278415 
L 224.77432 247.863824 
L 225.42493 255.68519 
L 226.72615 266.762327 
L 228.027371 275.21164 
L 228.677981 277.640947 
L 229.328592 279.037009 
L 229.979202 231.941595 
L 231.931033 254.200699 
L 233.232254 265.596976 
L 233.882864 268.821347 
L 235.184085 276.073338 
L 235.834695 278.246837 
L 236.485305 232.619335 
L 238.437136 252.615612 
L 241.039577 271.280381 
L 242.340798 277.722527 
L 242.991408 232.231715 
L 244.292629 246.408388 
L 245.59385 256.822064 
L 246.24446 261.993815 
L 248.196291 272.829584 
L 248.846901 275.221132 
L 249.497511 232.080458 
L 250.798732 245.487395 
L 252.099953 256.060684 
L 252.750563 259.921468 
L 253.401173 264.474617 
L 254.702394 270.78209 
L 255.353004 273.645836 
L 256.003615 232.554457 
L 256.654225 237.035786 
L 257.955445 249.743719 
L 259.256666 258.589579 
L 259.907276 261.298379 
L 260.557887 266.488979 
L 261.859107 271.883225 
L 262.509718 231.924127 
L 264.461549 247.812593 
L 265.112159 253.102548 
L 265.762769 256.663116 
L 266.413379 261.094563 
L 267.7146 267.504608 
L 268.36521 269.67393 
L 269.015821 232.489088 
L 270.317041 243.067387 
L 270.967652 247.523323 
L 271.618262 250.359771 
L 272.268872 255.928496 
L 272.919483 259.398333 
L 274.220703 264.84842 
L 274.871314 267.771649 
L 275.521924 232.472908 
L 276.823144 242.595789 
L 277.473755 246.158114 
L 278.774975 254.389828 
L 279.425586 257.787131 
L 280.076196 260.512716 
L 280.726806 263.790527 
L 281.377417 266.312752 
L 282.028027 232.916195 
L 283.979858 244.745425 
L 284.630468 249.236194 
L 285.281079 252.45084 
L 285.931689 256.712581 
L 287.88352 263.322663 
L 288.53413 231.873588 
L 290.485961 244.699681 
L 291.136571 247.23004 
L 291.787182 251.186463 
L 294.389623 262.549832 
L 295.040233 231.632657 
L 295.690844 236.229692 
L 297.642674 246.654438 
L 298.293285 250.163971 
L 298.943895 253.015959 
L 299.594505 256.396557 
L 300.895726 261.252516 
L 301.546336 232.966655 
L 304.799388 248.725014 
L 305.449998 251.219147 
L 306.100608 255.00638 
L 306.751219 256.698557 
L 307.401829 259.054292 
L 308.052439 233.005483 
L 311.956101 250.231908 
L 313.257322 254.782585 
L 313.907932 256.204328 
L 314.558543 232.502735 
L 315.209153 235.882688 
L 315.859763 238.195045 
L 316.510373 241.376867 
L 318.462204 249.081239 
L 319.112815 250.532975 
L 319.763425 253.647272 
L 320.414035 255.540932 
L 321.064646 232.670943 
L 321.715256 235.985939 
L 322.365866 237.81065 
L 323.016477 241.052801 
L 323.667087 243.319992 
L 324.317697 246.32222 
L 324.968308 248.209495 
L 325.618918 250.508986 
L 326.269528 251.988095 
L 326.920138 253.861671 
L 327.570749 231.889926 
L 328.871969 238.00801 
L 329.52258 239.795584 
L 330.17319 242.774603 
L 330.8238 244.135999 
L 332.125021 248.082807 
L 332.775631 251.077541 
L 333.426242 252.700702 
L 334.076852 232.889602 
L 335.378073 237.408681 
L 336.028683 238.685268 
L 336.679293 241.927331 
L 337.329903 244.179158 
L 337.980514 244.277483 
L 338.631124 247.565062 
L 339.281734 248.042707 
L 339.932345 250.903005 
L 340.582955 232.308513 
L 341.233565 234.614034 
L 341.884176 237.597566 
L 342.534786 239.022666 
L 343.836007 242.806235 
L 344.486617 243.525153 
L 345.137227 246.62518 
L 345.787837 247.772581 
L 346.438448 250.111539 
L 347.089058 232.342968 
L 348.390279 236.141131 
L 350.99272 244.098783 
L 351.64333 245.561397 
L 352.293941 246.36395 
L 352.944551 248.548243 
L 353.595161 232.626864 
L 354.245772 234.386093 
L 354.896382 235.807836 
L 355.546992 237.576705 
L 356.197602 239.818522 
L 357.498823 241.405844 
L 358.149433 244.328547 
L 358.800044 246.21783 
L 359.450654 247.097155 
L 360.101264 232.193613 
L 360.751875 234.29946 
L 361.402485 235.387049 
L 362.053095 237.578116 
L 363.354316 240.165754 
L 364.004926 242.178885 
L 364.655537 243.706973 
L 365.306147 244.804676 
L 365.956757 246.307162 
L 366.607367 233.042875 
L 367.257978 233.710386 
L 367.908588 235.522125 
L 368.559198 236.764003 
L 369.209809 238.755467 
L 369.860419 239.220815 
L 372.46286 244.976066 
L 373.113471 232.861195 
L 374.414691 236.010691 
L 375.065302 236.227492 
L 375.715912 238.116643 
L 376.366522 238.782077 
L 377.017132 240.041529 
L 377.667743 241.743443 
L 378.968963 243.919128 
L 379.619574 232.725724 
L 380.270184 234.010252 
L 380.920794 234.785669 
L 381.571405 236.389924 
L 382.222015 237.514842 
L 382.872625 238.39145 
L 383.523236 239.660263 
L 384.173846 240.67583 
L 384.824456 241.041871 
L 385.475066 243.178517 
L 386.125677 232.71312 
L 386.776287 233.936118 
L 387.426897 234.23211 
L 388.077508 236.194895 
L 388.728118 236.78886 
L 389.378728 238.030922 
L 390.029339 240.075975 
L 390.679949 239.482396 
L 391.330559 241.336837 
L 391.98117 242.196178 
L 392.63178 233.235467 
L 393.28239 232.819132 
L 394.583611 235.589492 
L 395.884831 237.336826 
L 397.186052 239.541016 
L 397.836662 240.100771 
L 398.487273 241.002867 
L 398.487273 241.002867 
" clip-path="url(#p4710c1200a)" style="fill: none; stroke: #0000ff; stroke-width: 1.5; stroke-linecap: square"/>
   </g>
   <g id="line2d_12">
    <path d="M 73.832727 293.00433 
L 79.68822 292.981697 
L 80.33883 294.902726 
L 118.724839 294.891557 
L 126.532163 294.900028 
L 286.582299 294.888106 
L 398.487273 294.886725 
L 398.487273 294.886725 
" clip-path="url(#p4710c1200a)" style="fill: none; stroke: #008000; stroke-width: 1.5; stroke-linecap: square"/>
   </g>
   <g id="line2d_13">
    <path d="M 73.832727 53.568 
L 74.483338 98.958774 
L 75.133948 159.100289 
L 75.784558 208.58783 
L 76.435169 233.440259 
L 77.085779 244.042276 
L 77.736389 248.447726 
L 78.386999 248.059326 
L 79.03761 248.030769 
L 79.68822 249.703996 
L 80.33883 191.519937 
L 80.989441 216.185717 
L 81.640051 235.059599 
L 82.290661 244.448645 
L 82.941272 248.514191 
L 83.591882 248.284024 
L 84.242492 248.421265 
L 84.893103 247.950228 
L 85.543713 246.956845 
L 86.194323 249.036467 
L 86.844934 197.573213 
L 87.495544 222.21936 
L 88.146154 239.622968 
L 88.796764 247.759758 
L 89.447375 251.780129 
L 90.097985 254.395035 
L 90.748595 254.071442 
L 92.700426 256.337341 
L 93.351037 192.985934 
L 94.001647 219.121936 
L 94.652257 238.659868 
L 95.302868 248.593671 
L 95.953478 253.344075 
L 96.604088 256.150582 
L 97.254698 255.048803 
L 98.555919 256.735501 
L 99.206529 256.762523 
L 99.85714 197.740948 
L 100.50775 222.48641 
L 101.15836 241.593063 
L 101.808971 249.308338 
L 102.459581 255.125566 
L 103.110191 256.340325 
L 103.760802 256.435574 
L 104.411412 258.547109 
L 105.062022 257.606863 
L 105.712633 258.258817 
L 106.363243 195.598508 
L 107.013853 220.735377 
L 107.664463 240.869368 
L 108.315074 250.892679 
L 108.965684 254.921694 
L 109.616294 257.272143 
L 110.266905 257.422523 
L 110.917515 258.652354 
L 111.568125 258.717955 
L 112.218736 259.031739 
L 112.869346 198.881897 
L 113.519956 223.043211 
L 114.170567 241.933546 
L 114.821177 251.666027 
L 115.471787 256.438536 
L 116.122398 258.904052 
L 116.773008 257.872945 
L 117.423618 259.689075 
L 118.074228 260.323797 
L 118.724839 259.090675 
L 119.375449 196.969335 
L 120.026059 222.745133 
L 120.67667 242.382766 
L 121.32728 251.989164 
L 121.97789 257.502293 
L 122.628501 258.596573 
L 123.279111 259.224949 
L 123.929721 258.343021 
L 124.580332 259.317043 
L 125.230942 260.581788 
L 125.881552 197.879539 
L 126.532163 224.466085 
L 127.182773 242.352124 
L 127.833383 252.87785 
L 128.483993 257.281267 
L 129.134604 259.412821 
L 129.785214 260.577914 
L 130.435824 259.643856 
L 131.086435 260.71665 
L 131.737045 261.137542 
L 132.387655 197.314121 
L 133.038266 223.159487 
L 133.688876 242.677075 
L 134.339486 252.634597 
L 134.990097 257.604527 
L 135.640707 259.841935 
L 136.291317 261.008776 
L 136.941927 260.126962 
L 137.592538 261.383767 
L 138.243148 261.575679 
L 138.893758 198.7887 
L 139.544369 223.352245 
L 140.194979 232.97201 
L 140.845589 239.915725 
L 142.14681 250.194394 
L 142.79742 253.582131 
L 143.448031 255.943449 
L 144.098641 256.148592 
L 144.749251 258.831969 
L 145.399862 197.937913 
L 146.701082 224.798478 
L 147.351692 236.313941 
L 148.002303 243.788794 
L 149.303523 253.102837 
L 149.954134 256.21358 
L 150.604744 256.037681 
L 151.255354 257.16933 
L 151.905965 197.390149 
L 152.556575 212.582757 
L 153.857796 236.271922 
L 155.159016 249.571111 
L 155.809627 253.775976 
L 156.460237 255.256137 
L 157.110847 257.429881 
L 157.761457 257.28913 
L 158.412068 197.493584 
L 159.713288 223.83295 
L 160.363899 234.611641 
L 161.665119 248.170956 
L 162.31573 250.87415 
L 162.96634 255.085756 
L 163.61695 255.622889 
L 164.267561 257.810337 
L 164.918171 197.933794 
L 166.219392 223.139433 
L 166.870002 232.819895 
L 168.171222 247.170123 
L 169.472443 252.145768 
L 170.123053 255.266059 
L 170.773664 255.718996 
L 171.424274 198.344633 
L 172.725495 221.669097 
L 174.026715 239.98659 
L 174.677326 244.755452 
L 175.978546 252.761434 
L 176.629156 253.813122 
L 177.279767 255.901539 
L 177.930377 199.103264 
L 179.882208 230.924705 
L 180.532818 238.178532 
L 181.183429 244.051742 
L 181.834039 248.727477 
L 183.13526 253.341998 
L 183.78587 254.497769 
L 184.43648 198.078617 
L 185.087091 210.393714 
L 187.038921 235.824568 
L 187.689532 241.703799 
L 188.340142 245.770818 
L 189.641363 251.856998 
L 190.291973 253.315247 
L 190.942583 197.507818 
L 192.243804 218.966121 
L 194.195635 241.676023 
L 194.846245 244.94396 
L 195.496856 249.086436 
L 196.147466 251.276426 
L 196.798076 251.894056 
L 197.448686 198.149262 
L 199.400517 225.976485 
L 200.701738 238.975589 
L 201.352348 243.337881 
L 202.653569 249.949607 
L 203.304179 251.236467 
L 203.95479 198.43705 
L 205.906621 225.665917 
L 207.207841 237.809598 
L 207.858451 241.136909 
L 208.509062 245.230819 
L 209.159672 248.280167 
L 209.810282 249.235563 
L 210.460893 198.405768 
L 211.762113 216.050964 
L 213.063334 230.704345 
L 214.364555 239.571158 
L 215.015165 243.75873 
L 216.316385 249.610597 
L 216.966996 198.079546 
L 218.268216 214.509107 
L 219.569437 228.9121 
L 220.220047 234.150403 
L 220.870658 237.87864 
L 221.521268 243.049918 
L 222.171878 244.673378 
L 222.822489 247.244993 
L 223.473099 199.368851 
L 224.77432 213.95419 
L 225.42493 221.775468 
L 226.72615 232.852386 
L 228.027371 241.301401 
L 228.677981 243.730542 
L 229.328592 245.126428 
L 229.979202 198.031663 
L 231.931033 220.290635 
L 233.232254 231.686711 
L 233.882864 234.910955 
L 235.184085 242.162661 
L 235.834695 244.335998 
L 236.485305 198.709061 
L 238.437136 218.705215 
L 241.039577 237.369572 
L 242.340798 243.811451 
L 242.991408 198.321116 
L 244.292629 212.497737 
L 245.59385 222.911281 
L 246.24446 228.082954 
L 248.196291 238.918398 
L 248.846901 241.309824 
L 249.497511 198.169562 
L 250.798732 211.576455 
L 252.099953 222.149634 
L 252.750563 226.010344 
L 253.401173 230.563405 
L 254.702394 236.870672 
L 255.353004 239.734309 
L 256.003615 198.643289 
L 256.654225 203.1246 
L 257.955445 215.832463 
L 259.256666 224.678205 
L 259.907276 227.38693 
L 260.557887 232.577448 
L 261.859107 237.971496 
L 262.509718 198.012705 
L 264.461549 213.9011 
L 265.112159 219.191003 
L 265.762769 222.751514 
L 266.413379 227.1829 
L 267.7146 233.592787 
L 268.36521 235.762021 
L 269.015821 198.57743 
L 270.317041 209.155693 
L 270.967652 213.611603 
L 271.618262 216.448007 
L 272.268872 222.016679 
L 272.919483 225.486464 
L 274.220703 230.936423 
L 274.871314 233.859583 
L 275.521924 198.561039 
L 276.823144 208.683894 
L 277.473755 212.246192 
L 278.774975 220.477828 
L 279.425586 223.875083 
L 280.076196 226.60061 
L 280.726806 229.878355 
L 281.377417 232.400519 
L 282.028027 199.004142 
L 283.979858 210.83332 
L 284.630468 215.324053 
L 285.281079 218.538664 
L 285.931689 222.800361 
L 287.88352 229.41029 
L 288.53413 197.961351 
L 290.485961 210.7874 
L 291.136571 213.317741 
L 291.787182 217.274129 
L 294.389623 228.637328 
L 295.040233 197.720262 
L 295.690844 202.317288 
L 297.642674 212.741981 
L 298.293285 216.251489 
L 298.943895 219.10345 
L 299.594505 222.484008 
L 300.895726 227.33988 
L 301.546336 199.054119 
L 304.799388 214.8124 
L 305.449998 217.306498 
L 306.100608 221.093696 
L 306.751219 222.785846 
L 307.401829 225.141546 
L 308.052439 199.092808 
L 311.956101 216.319145 
L 313.257322 220.869769 
L 313.907932 222.291477 
L 314.558543 198.589937 
L 315.209153 201.969881 
L 315.859763 204.28223 
L 316.510373 207.464042 
L 318.462204 215.168361 
L 319.112815 216.620072 
L 319.763425 219.734351 
L 320.414035 221.627989 
L 321.064646 198.758031 
L 321.715256 202.073027 
L 322.365866 203.897729 
L 323.016477 207.139862 
L 323.667087 209.407045 
L 324.317697 212.409255 
L 324.968308 214.296513 
L 325.618918 216.595977 
L 326.269528 218.075069 
L 326.920138 219.948627 
L 327.570749 197.976909 
L 328.871969 204.094984 
L 329.52258 205.88255 
L 330.17319 208.861559 
L 330.8238 210.222947 
L 332.125021 214.169711 
L 332.775631 217.164427 
L 333.426242 218.787571 
L 334.076852 198.976497 
L 335.378073 203.495568 
L 336.028683 204.772146 
L 336.679293 208.0142 
L 337.329903 210.266009 
L 337.980514 210.364325 
L 338.631124 213.651887 
L 339.281734 214.129515 
L 339.932345 216.989803 
L 340.582955 198.39532 
L 341.233565 200.700841 
L 341.884176 203.684373 
L 342.534786 205.109464 
L 343.836007 208.893016 
L 344.486617 209.611917 
L 345.137227 212.711935 
L 345.787837 213.859327 
L 346.438448 216.198268 
L 347.089058 198.429705 
L 348.390279 202.22786 
L 350.99272 210.185485 
L 351.64333 211.648082 
L 352.293941 212.450626 
L 352.944551 214.63491 
L 353.595161 198.713531 
L 354.245772 200.47276 
L 354.896382 201.894494 
L 355.546992 203.663355 
L 356.197602 205.905172 
L 357.498823 207.492476 
L 358.149433 210.415171 
L 358.800044 212.304444 
L 359.450654 213.18376 
L 360.101264 198.28021 
L 360.751875 200.386066 
L 361.402485 201.473645 
L 362.053095 203.664713 
L 363.354316 206.252333 
L 364.004926 208.265464 
L 364.655537 209.793544 
L 365.306147 210.891238 
L 365.956757 212.393715 
L 366.607367 199.129428 
L 367.257978 199.79693 
L 367.908588 201.608669 
L 368.559198 202.850547 
L 369.209809 204.842002 
L 369.860419 205.307342 
L 372.46286 211.062566 
L 373.113471 198.947687 
L 374.414691 202.097183 
L 375.065302 202.313984 
L 375.715912 204.203135 
L 376.366522 204.86856 
L 377.017132 206.128003 
L 377.667743 207.829908 
L 378.968963 210.005594 
L 379.619574 198.812172 
L 380.270184 200.0967 
L 380.920794 200.872117 
L 381.571405 202.476372 
L 382.222015 203.601282 
L 382.872625 204.477889 
L 383.523236 205.746693 
L 384.173846 206.76226 
L 384.824456 207.128293 
L 385.475066 209.264939 
L 386.125677 198.799533 
L 386.776287 200.022522 
L 387.426897 200.318514 
L 388.077508 202.281299 
L 388.728118 202.875264 
L 389.378728 204.117317 
L 390.029339 206.162361 
L 390.679949 205.568782 
L 391.330559 207.423224 
L 391.98117 208.282565 
L 392.63178 199.321836 
L 393.28239 198.905501 
L 394.583611 201.675861 
L 395.884831 203.423187 
L 397.186052 205.627367 
L 397.836662 206.187122 
L 398.487273 207.089219 
L 398.487273 207.089219 
" clip-path="url(#p4710c1200a)" style="fill: none; stroke: #ff0000; stroke-width: 1.5; stroke-linecap: square"/>
   </g>
   <g id="patch_3">
    <path d="M 57.6 307.584 
L 57.6 41.472 
" style="fill: none; stroke: #000000; stroke-width: 0.8; stroke-linejoin: miter; stroke-linecap: square"/>
   </g>
   <g id="patch_4">
    <path d="M 414.72 307.584 
L 414.72 41.472 
" style="fill: none; stroke: #000000; stroke-width: 0.8; stroke-linejoin: miter; stroke-linecap: square"/>
   </g>
   <g id="patch_5">
    <path d="M 57.6 307.584 
L 414.72 307.584 
" style="fill: none; stroke: #000000; stroke-width: 0.8; stroke-linejoin: miter; stroke-linecap: square"/>
   </g>
   <g id="patch_6">
    <path d="M 57.6 41.472 
L 414.72 41.472 
" style="fill: none; stroke: #000000; stroke-width: 0.8; stroke-linejoin: miter; stroke-linecap: square"/>
   </g>
   <g id="text_13">
    <!-- The loss curve on λ_0.00025_non_iid_agg/host/4 -->
    <g transform="translate(90.610312 35.472) scale(0.12 -0.12)">
     <defs>
      <path id="DejaVuSans-54" d="M -19 4666 
L 3928 4666 
L 3928 4134 
L 2272 4134 
L 2272 0 
L 1638 0 
L 1638 4134 
L -19 4134 
L -19 4666 
z
" transform="scale(0.015625)"/>
      <path id="DejaVuSans-72" d="M 2631 2963 
Q 2534 3019 2420 3045 
Q 2306 3072 2169 3072 
Q 1681 3072 1420 2755 
Q 1159 2438 1159 1844 
L 1159 0 
L 581 0 
L 581 3500 
L 1159 3500 
L 1159 2956 
Q 1341 3275 1631 3429 
Q 1922 3584 2338 3584 
Q 2397 3584 2469 3576 
Q 2541 3569 2628 3553 
L 2631 2963 
z
" transform="scale(0.015625)"/>
      <path id="DejaVuSans-6e" d="M 3513 2113 
L 3513 0 
L 2938 0 
L 2938 2094 
Q 2938 2591 2744 2837 
Q 2550 3084 2163 3084 
Q 1697 3084 1428 2787 
Q 1159 2491 1159 1978 
L 1159 0 
L 581 0 
L 581 3500 
L 1159 3500 
L 1159 2956 
Q 1366 3272 1645 3428 
Q 1925 3584 2291 3584 
Q 2894 3584 3203 3211 
Q 3513 2838 3513 2113 
z
" transform="scale(0.015625)"/>
      <path id="DejaVuSans-3bb" d="M 1981 4316 
L 3597 0 
L 2988 0 
L 2006 2588 
L 800 0 
L 191 0 
L 1725 3356 
L 1494 3975 
Q 1347 4369 1013 4369 
L 713 4369 
L 713 4863 
L 1078 4856 
Q 1784 4847 1981 4316 
z
" transform="scale(0.015625)"/>
      <path id="DejaVuSans-5f" d="M 3263 -1063 
L 3263 -1509 
L -63 -1509 
L -63 -1063 
L 3263 -1063 
z
" transform="scale(0.015625)"/>
      <path id="DejaVuSans-69" d="M 603 3500 
L 1178 3500 
L 1178 0 
L 603 0 
L 603 3500 
z
M 603 4863 
L 1178 4863 
L 1178 4134 
L 603 4134 
L 603 4863 
z
" transform="scale(0.015625)"/>
      <path id="DejaVuSans-64" d="M 2906 2969 
L 2906 4863 
L 3481 4863 
L 3481 0 
L 2906 0 
L 2906 525 
Q 2725 213 2448 61 
Q 2172 -91 1784 -91 
Q 1150 -91 751 415 
Q 353 922 353 1747 
Q 353 2572 751 3078 
Q 1150 3584 1784 3584 
Q 2172 3584 2448 3432 
Q 2725 3281 2906 2969 
z
M 947 1747 
Q 947 1113 1208 752 
Q 1469 391 1925 391 
Q 2381 391 2643 752 
Q 2906 1113 2906 1747 
Q 2906 2381 2643 2742 
Q 2381 3103 1925 3103 
Q 1469 3103 1208 2742 
Q 947 2381 947 1747 
z
" transform="scale(0.015625)"/>
      <path id="DejaVuSans-67" d="M 2906 1791 
Q 2906 2416 2648 2759 
Q 2391 3103 1925 3103 
Q 1463 3103 1205 2759 
Q 947 2416 947 1791 
Q 947 1169 1205 825 
Q 1463 481 1925 481 
Q 2391 481 2648 825 
Q 2906 1169 2906 1791 
z
M 3481 434 
Q 3481 -459 3084 -895 
Q 2688 -1331 1869 -1331 
Q 1566 -1331 1297 -1286 
Q 1028 -1241 775 -1147 
L 775 -588 
Q 1028 -725 1275 -790 
Q 1522 -856 1778 -856 
Q 2344 -856 2625 -561 
Q 2906 -266 2906 331 
L 2906 616 
Q 2728 306 2450 153 
Q 2172 0 1784 0 
Q 1141 0 747 490 
Q 353 981 353 1791 
Q 353 2603 747 3093 
Q 1141 3584 1784 3584 
Q 2172 3584 2450 3431 
Q 2728 3278 2906 2969 
L 2906 3500 
L 3481 3500 
L 3481 434 
z
" transform="scale(0.015625)"/>
      <path id="DejaVuSans-2f" d="M 1625 4666 
L 2156 4666 
L 531 -594 
L 0 -594 
L 1625 4666 
z
" transform="scale(0.015625)"/>
      <path id="DejaVuSans-74" d="M 1172 4494 
L 1172 3500 
L 2356 3500 
L 2356 3053 
L 1172 3053 
L 1172 1153 
Q 1172 725 1289 603 
Q 1406 481 1766 481 
L 2356 481 
L 2356 0 
L 1766 0 
Q 1100 0 847 248 
Q 594 497 594 1153 
L 594 3053 
L 172 3053 
L 172 3500 
L 594 3500 
L 594 4494 
L 1172 4494 
z
" transform="scale(0.015625)"/>
     </defs>
     <use xlink:href="#DejaVuSans-54"/>
     <use xlink:href="#DejaVuSans-68" x="61.083984"/>
     <use xlink:href="#DejaVuSans-65" x="124.462891"/>
     <use xlink:href="#DejaVuSans-20" x="185.986328"/>
     <use xlink:href="#DejaVuSans-6c" x="217.773438"/>
     <use xlink:href="#DejaVuSans-6f" x="245.556641"/>
     <use xlink:href="#DejaVuSans-73" x="306.738281"/>
     <use xlink:href="#DejaVuSans-73" x="358.837891"/>
     <use xlink:href="#DejaVuSans-20" x="410.9375"/>
     <use xlink:href="#DejaVuSans-63" x="442.724609"/>
     <use xlink:href="#DejaVuSans-75" x="497.705078"/>
     <use xlink:href="#DejaVuSans-72" x="561.083984"/>
     <use xlink:href="#DejaVuSans-76" x="602.197266"/>
     <use xlink:href="#DejaVuSans-65" x="661.376953"/>
     <use xlink:href="#DejaVuSans-20" x="722.900391"/>
     <use xlink:href="#DejaVuSans-6f" x="754.6875"/>
     <use xlink:href="#DejaVuSans-6e" x="815.869141"/>
     <use xlink:href="#DejaVuSans-20" x="879.248047"/>
     <use xlink:href="#DejaVuSans-3bb" x="911.035156"/>
     <use xlink:href="#DejaVuSans-5f" x="970.214844"/>
     <use xlink:href="#DejaVuSans-30" x="1020.214844"/>
     <use xlink:href="#DejaVuSans-2e" x="1083.837891"/>
     <use xlink:href="#DejaVuSans-30" x="1115.625"/>
     <use xlink:href="#DejaVuSans-30" x="1179.248047"/>
     <use xlink:href="#DejaVuSans-30" x="1242.871094"/>
     <use xlink:href="#DejaVuSans-32" x="1306.494141"/>
     <use xlink:href="#DejaVuSans-35" x="1370.117188"/>
     <use xlink:href="#DejaVuSans-5f" x="1433.740234"/>
     <use xlink:href="#DejaVuSans-6e" x="1483.740234"/>
     <use xlink:href="#DejaVuSans-6f" x="1547.119141"/>
     <use xlink:href="#DejaVuSans-6e" x="1608.300781"/>
     <use xlink:href="#DejaVuSans-5f" x="1671.679688"/>
     <use xlink:href="#DejaVuSans-69" x="1721.679688"/>
     <use xlink:href="#DejaVuSans-69" x="1749.462891"/>
     <use xlink:href="#DejaVuSans-64" x="1777.246094"/>
     <use xlink:href="#DejaVuSans-5f" x="1840.722656"/>
     <use xlink:href="#DejaVuSans-61" x="1890.722656"/>
     <use xlink:href="#DejaVuSans-67" x="1952.001953"/>
     <use xlink:href="#DejaVuSans-67" x="2015.478516"/>
     <use xlink:href="#DejaVuSans-2f" x="2078.955078"/>
     <use xlink:href="#DejaVuSans-68" x="2112.646484"/>
     <use xlink:href="#DejaVuSans-6f" x="2176.025391"/>
     <use xlink:href="#DejaVuSans-73" x="2237.207031"/>
     <use xlink:href="#DejaVuSans-74" x="2289.306641"/>
     <use xlink:href="#DejaVuSans-2f" x="2328.515625"/>
     <use xlink:href="#DejaVuSans-34" x="2362.207031"/>
    </g>
   </g>
   <g id="legend_1">
    <g id="patch_7">
     <path d="M 317.418438 94.34075 
L 407.72 94.34075 
Q 409.72 94.34075 409.72 92.34075 
L 409.72 48.472 
Q 409.72 46.472 407.72 46.472 
L 317.418438 46.472 
Q 315.418438 46.472 315.418438 48.472 
L 315.418438 92.34075 
Q 315.418438 94.34075 317.418438 94.34075 
z
" style="fill: #ffffff; opacity: 0.8; stroke: #cccccc; stroke-linejoin: miter"/>
    </g>
    <g id="line2d_14">
     <path d="M 319.418438 54.570438 
L 329.418438 54.570438 
L 339.418438 54.570438 
" style="fill: none; stroke: #0000ff; stroke-width: 1.5; stroke-linecap: square"/>
    </g>
    <g id="text_14">
     <!-- obj_loss -->
     <g transform="translate(347.418438 58.070438) scale(0.1 -0.1)">
      <defs>
       <path id="DejaVuSans-62" d="M 3116 1747 
Q 3116 2381 2855 2742 
Q 2594 3103 2138 3103 
Q 1681 3103 1420 2742 
Q 1159 2381 1159 1747 
Q 1159 1113 1420 752 
Q 1681 391 2138 391 
Q 2594 391 2855 752 
Q 3116 1113 3116 1747 
z
M 1159 2969 
Q 1341 3281 1617 3432 
Q 1894 3584 2278 3584 
Q 2916 3584 3314 3078 
Q 3713 2572 3713 1747 
Q 3713 922 3314 415 
Q 2916 -91 2278 -91 
Q 1894 -91 1617 61 
Q 1341 213 1159 525 
L 1159 0 
L 581 0 
L 581 4863 
L 1159 4863 
L 1159 2969 
z
" transform="scale(0.015625)"/>
       <path id="DejaVuSans-6a" d="M 603 3500 
L 1178 3500 
L 1178 -63 
Q 1178 -731 923 -1031 
Q 669 -1331 103 -1331 
L -116 -1331 
L -116 -844 
L 38 -844 
Q 366 -844 484 -692 
Q 603 -541 603 -63 
L 603 3500 
z
M 603 4863 
L 1178 4863 
L 1178 4134 
L 603 4134 
L 603 4863 
z
" transform="scale(0.015625)"/>
      </defs>
      <use xlink:href="#DejaVuSans-6f"/>
      <use xlink:href="#DejaVuSans-62" x="61.181641"/>
      <use xlink:href="#DejaVuSans-6a" x="124.658203"/>
      <use xlink:href="#DejaVuSans-5f" x="152.441406"/>
      <use xlink:href="#DejaVuSans-6c" x="202.441406"/>
      <use xlink:href="#DejaVuSans-6f" x="230.224609"/>
      <use xlink:href="#DejaVuSans-73" x="291.40625"/>
      <use xlink:href="#DejaVuSans-73" x="343.505859"/>
     </g>
    </g>
    <g id="line2d_15">
     <path d="M 319.418438 69.526688 
L 329.418438 69.526688 
L 339.418438 69.526688 
" style="fill: none; stroke: #008000; stroke-width: 1.5; stroke-linecap: square"/>
    </g>
    <g id="text_15">
     <!-- reg_loss -->
     <g transform="translate(347.418438 73.026688) scale(0.1 -0.1)">
      <use xlink:href="#DejaVuSans-72"/>
      <use xlink:href="#DejaVuSans-65" x="38.863281"/>
      <use xlink:href="#DejaVuSans-67" x="100.386719"/>
      <use xlink:href="#DejaVuSans-5f" x="163.863281"/>
      <use xlink:href="#DejaVuSans-6c" x="213.863281"/>
      <use xlink:href="#DejaVuSans-6f" x="241.646484"/>
      <use xlink:href="#DejaVuSans-73" x="302.828125"/>
      <use xlink:href="#DejaVuSans-73" x="354.927734"/>
     </g>
    </g>
    <g id="line2d_16">
     <path d="M 319.418438 84.482938 
L 329.418438 84.482938 
L 339.418438 84.482938 
" style="fill: none; stroke: #ff0000; stroke-width: 1.5; stroke-linecap: square"/>
    </g>
    <g id="text_16">
     <!-- overall_loss -->
     <g transform="translate(347.418438 87.982938) scale(0.1 -0.1)">
      <use xlink:href="#DejaVuSans-6f"/>
      <use xlink:href="#DejaVuSans-76" x="61.181641"/>
      <use xlink:href="#DejaVuSans-65" x="120.361328"/>
      <use xlink:href="#DejaVuSans-72" x="181.884766"/>
      <use xlink:href="#DejaVuSans-61" x="222.998047"/>
      <use xlink:href="#DejaVuSans-6c" x="284.277344"/>
      <use xlink:href="#DejaVuSans-6c" x="312.060547"/>
      <use xlink:href="#DejaVuSans-5f" x="339.84375"/>
      <use xlink:href="#DejaVuSans-6c" x="389.84375"/>
      <use xlink:href="#DejaVuSans-6f" x="417.626953"/>
      <use xlink:href="#DejaVuSans-73" x="478.808594"/>
      <use xlink:href="#DejaVuSans-73" x="530.908203"/>
     </g>
    </g>
   </g>
  </g>
 </g>
 <defs>
  <clipPath id="p4710c1200a">
   <rect x="57.6" y="41.472" width="357.12" height="266.112"/>
  </clipPath>
 </defs>
</svg>
