<?xml version="1.0" encoding="utf-8" standalone="no"?>
<!DOCTYPE svg PUBLIC "-//W3C//DTD SVG 1.1//EN"
  "http://www.w3.org/Graphics/SVG/1.1/DTD/svg11.dtd">
<svg xmlns:xlink="http://www.w3.org/1999/xlink" width="576pt" height="432pt" viewBox="0 0 576 432" xmlns="http://www.w3.org/2000/svg" version="1.1">
 <metadata>
  <rdf:RDF xmlns:dc="http://purl.org/dc/elements/1.1/" xmlns:cc="http://creativecommons.org/ns#" xmlns:rdf="http://www.w3.org/1999/02/22-rdf-syntax-ns#">
   <cc:Work>
    <dc:type rdf:resource="http://purl.org/dc/dcmitype/StillImage"/>
    <dc:date>2023-04-13T09:22:59.880244</dc:date>
    <dc:format>image/svg+xml</dc:format>
    <dc:creator>
     <cc:Agent>
      <dc:title>Matplotlib v3.7.1, https://matplotlib.org/</dc:title>
     </cc:Agent>
    </dc:creator>
   </cc:Work>
  </rdf:RDF>
 </metadata>
 <defs>
  <style type="text/css">*{stroke-linejoin: round; stroke-linecap: butt}</style>
 </defs>
 <g id="figure_1">
  <g id="patch_1">
   <path d="M 0 432 
L 576 432 
L 576 0 
L 0 0 
z
" style="fill: #ffffff"/>
  </g>
  <g id="axes_1">
   <g id="patch_2">
    <path d="M 72 384.48 
L 518.4 384.48 
L 518.4 51.84 
L 72 51.84 
z
" style="fill: #ffffff"/>
   </g>
   <g id="matplotlib.axis_1">
    <g id="xtick_1">
     <g id="line2d_1">
      <defs>
       <path id="md2386bea5f" d="M 0 0 
L 0 3.5 
" style="stroke: #000000; stroke-width: 0.8"/>
      </defs>
      <g>
       <use xlink:href="#md2386bea5f" x="92.290909" y="384.48" style="stroke: #000000; stroke-width: 0.8"/>
      </g>
     </g>
     <g id="text_1">
      <!-- 0 -->
      <g transform="translate(89.109659 399.078438) scale(0.1 -0.1)">
       <defs>
        <path id="DejaVuSans-30" d="M 2034 4250 
Q 1547 4250 1301 3770 
Q 1056 3291 1056 2328 
Q 1056 1369 1301 889 
Q 1547 409 2034 409 
Q 2525 409 2770 889 
Q 3016 1369 3016 2328 
Q 3016 3291 2770 3770 
Q 2525 4250 2034 4250 
z
M 2034 4750 
Q 2819 4750 3233 4129 
Q 3647 3509 3647 2328 
Q 3647 1150 3233 529 
Q 2819 -91 2034 -91 
Q 1250 -91 836 529 
Q 422 1150 422 2328 
Q 422 3509 836 4129 
Q 1250 4750 2034 4750 
z
" transform="scale(0.015625)"/>
       </defs>
       <use xlink:href="#DejaVuSans-30"/>
      </g>
     </g>
    </g>
    <g id="xtick_2">
     <g id="line2d_2">
      <g>
       <use xlink:href="#md2386bea5f" x="173.617198" y="384.48" style="stroke: #000000; stroke-width: 0.8"/>
      </g>
     </g>
     <g id="text_2">
      <!-- 100 -->
      <g transform="translate(164.073448 399.078438) scale(0.1 -0.1)">
       <defs>
        <path id="DejaVuSans-31" d="M 794 531 
L 1825 531 
L 1825 4091 
L 703 3866 
L 703 4441 
L 1819 4666 
L 2450 4666 
L 2450 531 
L 3481 531 
L 3481 0 
L 794 0 
L 794 531 
z
" transform="scale(0.015625)"/>
       </defs>
       <use xlink:href="#DejaVuSans-31"/>
       <use xlink:href="#DejaVuSans-30" x="63.623047"/>
       <use xlink:href="#DejaVuSans-30" x="127.246094"/>
      </g>
     </g>
    </g>
    <g id="xtick_3">
     <g id="line2d_3">
      <g>
       <use xlink:href="#md2386bea5f" x="254.943487" y="384.48" style="stroke: #000000; stroke-width: 0.8"/>
      </g>
     </g>
     <g id="text_3">
      <!-- 200 -->
      <g transform="translate(245.399737 399.078438) scale(0.1 -0.1)">
       <defs>
        <path id="DejaVuSans-32" d="M 1228 531 
L 3431 531 
L 3431 0 
L 469 0 
L 469 531 
Q 828 903 1448 1529 
Q 2069 2156 2228 2338 
Q 2531 2678 2651 2914 
Q 2772 3150 2772 3378 
Q 2772 3750 2511 3984 
Q 2250 4219 1831 4219 
Q 1534 4219 1204 4116 
Q 875 4013 500 3803 
L 500 4441 
Q 881 4594 1212 4672 
Q 1544 4750 1819 4750 
Q 2544 4750 2975 4387 
Q 3406 4025 3406 3419 
Q 3406 3131 3298 2873 
Q 3191 2616 2906 2266 
Q 2828 2175 2409 1742 
Q 1991 1309 1228 531 
z
" transform="scale(0.015625)"/>
       </defs>
       <use xlink:href="#DejaVuSans-32"/>
       <use xlink:href="#DejaVuSans-30" x="63.623047"/>
       <use xlink:href="#DejaVuSans-30" x="127.246094"/>
      </g>
     </g>
    </g>
    <g id="xtick_4">
     <g id="line2d_4">
      <g>
       <use xlink:href="#md2386bea5f" x="336.269776" y="384.48" style="stroke: #000000; stroke-width: 0.8"/>
      </g>
     </g>
     <g id="text_4">
      <!-- 300 -->
      <g transform="translate(326.726026 399.078438) scale(0.1 -0.1)">
       <defs>
        <path id="DejaVuSans-33" d="M 2597 2516 
Q 3050 2419 3304 2112 
Q 3559 1806 3559 1356 
Q 3559 666 3084 287 
Q 2609 -91 1734 -91 
Q 1441 -91 1130 -33 
Q 819 25 488 141 
L 488 750 
Q 750 597 1062 519 
Q 1375 441 1716 441 
Q 2309 441 2620 675 
Q 2931 909 2931 1356 
Q 2931 1769 2642 2001 
Q 2353 2234 1838 2234 
L 1294 2234 
L 1294 2753 
L 1863 2753 
Q 2328 2753 2575 2939 
Q 2822 3125 2822 3475 
Q 2822 3834 2567 4026 
Q 2313 4219 1838 4219 
Q 1578 4219 1281 4162 
Q 984 4106 628 3988 
L 628 4550 
Q 988 4650 1302 4700 
Q 1616 4750 1894 4750 
Q 2613 4750 3031 4423 
Q 3450 4097 3450 3541 
Q 3450 3153 3228 2886 
Q 3006 2619 2597 2516 
z
" transform="scale(0.015625)"/>
       </defs>
       <use xlink:href="#DejaVuSans-33"/>
       <use xlink:href="#DejaVuSans-30" x="63.623047"/>
       <use xlink:href="#DejaVuSans-30" x="127.246094"/>
      </g>
     </g>
    </g>
    <g id="xtick_5">
     <g id="line2d_5">
      <g>
       <use xlink:href="#md2386bea5f" x="417.596065" y="384.48" style="stroke: #000000; stroke-width: 0.8"/>
      </g>
     </g>
     <g id="text_5">
      <!-- 400 -->
      <g transform="translate(408.052315 399.078438) scale(0.1 -0.1)">
       <defs>
        <path id="DejaVuSans-34" d="M 2419 4116 
L 825 1625 
L 2419 1625 
L 2419 4116 
z
M 2253 4666 
L 3047 4666 
L 3047 1625 
L 3713 1625 
L 3713 1100 
L 3047 1100 
L 3047 0 
L 2419 0 
L 2419 1100 
L 313 1100 
L 313 1709 
L 2253 4666 
z
" transform="scale(0.015625)"/>
       </defs>
       <use xlink:href="#DejaVuSans-34"/>
       <use xlink:href="#DejaVuSans-30" x="63.623047"/>
       <use xlink:href="#DejaVuSans-30" x="127.246094"/>
      </g>
     </g>
    </g>
    <g id="xtick_6">
     <g id="line2d_6">
      <g>
       <use xlink:href="#md2386bea5f" x="498.922354" y="384.48" style="stroke: #000000; stroke-width: 0.8"/>
      </g>
     </g>
     <g id="text_6">
      <!-- 500 -->
      <g transform="translate(489.378604 399.078438) scale(0.1 -0.1)">
       <defs>
        <path id="DejaVuSans-35" d="M 691 4666 
L 3169 4666 
L 3169 4134 
L 1269 4134 
L 1269 2991 
Q 1406 3038 1543 3061 
Q 1681 3084 1819 3084 
Q 2600 3084 3056 2656 
Q 3513 2228 3513 1497 
Q 3513 744 3044 326 
Q 2575 -91 1722 -91 
Q 1428 -91 1123 -41 
Q 819 9 494 109 
L 494 744 
Q 775 591 1075 516 
Q 1375 441 1709 441 
Q 2250 441 2565 725 
Q 2881 1009 2881 1497 
Q 2881 1984 2565 2268 
Q 2250 2553 1709 2553 
Q 1456 2553 1204 2497 
Q 953 2441 691 2322 
L 691 4666 
z
" transform="scale(0.015625)"/>
       </defs>
       <use xlink:href="#DejaVuSans-35"/>
       <use xlink:href="#DejaVuSans-30" x="63.623047"/>
       <use xlink:href="#DejaVuSans-30" x="127.246094"/>
      </g>
     </g>
    </g>
    <g id="text_7">
     <!-- epoch -->
     <g transform="translate(279.971875 412.756563) scale(0.1 -0.1)">
      <defs>
       <path id="DejaVuSans-65" d="M 3597 1894 
L 3597 1613 
L 953 1613 
Q 991 1019 1311 708 
Q 1631 397 2203 397 
Q 2534 397 2845 478 
Q 3156 559 3463 722 
L 3463 178 
Q 3153 47 2828 -22 
Q 2503 -91 2169 -91 
Q 1331 -91 842 396 
Q 353 884 353 1716 
Q 353 2575 817 3079 
Q 1281 3584 2069 3584 
Q 2775 3584 3186 3129 
Q 3597 2675 3597 1894 
z
M 3022 2063 
Q 3016 2534 2758 2815 
Q 2500 3097 2075 3097 
Q 1594 3097 1305 2825 
Q 1016 2553 972 2059 
L 3022 2063 
z
" transform="scale(0.015625)"/>
       <path id="DejaVuSans-70" d="M 1159 525 
L 1159 -1331 
L 581 -1331 
L 581 3500 
L 1159 3500 
L 1159 2969 
Q 1341 3281 1617 3432 
Q 1894 3584 2278 3584 
Q 2916 3584 3314 3078 
Q 3713 2572 3713 1747 
Q 3713 922 3314 415 
Q 2916 -91 2278 -91 
Q 1894 -91 1617 61 
Q 1341 213 1159 525 
z
M 3116 1747 
Q 3116 2381 2855 2742 
Q 2594 3103 2138 3103 
Q 1681 3103 1420 2742 
Q 1159 2381 1159 1747 
Q 1159 1113 1420 752 
Q 1681 391 2138 391 
Q 2594 391 2855 752 
Q 3116 1113 3116 1747 
z
" transform="scale(0.015625)"/>
       <path id="DejaVuSans-6f" d="M 1959 3097 
Q 1497 3097 1228 2736 
Q 959 2375 959 1747 
Q 959 1119 1226 758 
Q 1494 397 1959 397 
Q 2419 397 2687 759 
Q 2956 1122 2956 1747 
Q 2956 2369 2687 2733 
Q 2419 3097 1959 3097 
z
M 1959 3584 
Q 2709 3584 3137 3096 
Q 3566 2609 3566 1747 
Q 3566 888 3137 398 
Q 2709 -91 1959 -91 
Q 1206 -91 779 398 
Q 353 888 353 1747 
Q 353 2609 779 3096 
Q 1206 3584 1959 3584 
z
" transform="scale(0.015625)"/>
       <path id="DejaVuSans-63" d="M 3122 3366 
L 3122 2828 
Q 2878 2963 2633 3030 
Q 2388 3097 2138 3097 
Q 1578 3097 1268 2742 
Q 959 2388 959 1747 
Q 959 1106 1268 751 
Q 1578 397 2138 397 
Q 2388 397 2633 464 
Q 2878 531 3122 666 
L 3122 134 
Q 2881 22 2623 -34 
Q 2366 -91 2075 -91 
Q 1284 -91 818 406 
Q 353 903 353 1747 
Q 353 2603 823 3093 
Q 1294 3584 2113 3584 
Q 2378 3584 2631 3529 
Q 2884 3475 3122 3366 
z
" transform="scale(0.015625)"/>
       <path id="DejaVuSans-68" d="M 3513 2113 
L 3513 0 
L 2938 0 
L 2938 2094 
Q 2938 2591 2744 2837 
Q 2550 3084 2163 3084 
Q 1697 3084 1428 2787 
Q 1159 2491 1159 1978 
L 1159 0 
L 581 0 
L 581 4863 
L 1159 4863 
L 1159 2956 
Q 1366 3272 1645 3428 
Q 1925 3584 2291 3584 
Q 2894 3584 3203 3211 
Q 3513 2838 3513 2113 
z
" transform="scale(0.015625)"/>
      </defs>
      <use xlink:href="#DejaVuSans-65"/>
      <use xlink:href="#DejaVuSans-70" x="61.523438"/>
      <use xlink:href="#DejaVuSans-6f" x="125"/>
      <use xlink:href="#DejaVuSans-63" x="186.181641"/>
      <use xlink:href="#DejaVuSans-68" x="241.162109"/>
     </g>
    </g>
   </g>
   <g id="matplotlib.axis_2">
    <g id="ytick_1">
     <g id="line2d_7">
      <defs>
       <path id="mbafdf9d91b" d="M 0 0 
L -3.5 0 
" style="stroke: #000000; stroke-width: 0.8"/>
      </defs>
      <g>
       <use xlink:href="#mbafdf9d91b" x="72" y="384.48" style="stroke: #000000; stroke-width: 0.8"/>
      </g>
     </g>
     <g id="text_8">
      <!-- 0.0 -->
      <g transform="translate(49.096875 388.279219) scale(0.1 -0.1)">
       <defs>
        <path id="DejaVuSans-2e" d="M 684 794 
L 1344 794 
L 1344 0 
L 684 0 
L 684 794 
z
" transform="scale(0.015625)"/>
       </defs>
       <use xlink:href="#DejaVuSans-30"/>
       <use xlink:href="#DejaVuSans-2e" x="63.623047"/>
       <use xlink:href="#DejaVuSans-30" x="95.410156"/>
      </g>
     </g>
    </g>
    <g id="ytick_2">
     <g id="line2d_8">
      <g>
       <use xlink:href="#mbafdf9d91b" x="72" y="317.952" style="stroke: #000000; stroke-width: 0.8"/>
      </g>
     </g>
     <g id="text_9">
      <!-- 0.2 -->
      <g transform="translate(49.096875 321.751219) scale(0.1 -0.1)">
       <use xlink:href="#DejaVuSans-30"/>
       <use xlink:href="#DejaVuSans-2e" x="63.623047"/>
       <use xlink:href="#DejaVuSans-32" x="95.410156"/>
      </g>
     </g>
    </g>
    <g id="ytick_3">
     <g id="line2d_9">
      <g>
       <use xlink:href="#mbafdf9d91b" x="72" y="251.424" style="stroke: #000000; stroke-width: 0.8"/>
      </g>
     </g>
     <g id="text_10">
      <!-- 0.4 -->
      <g transform="translate(49.096875 255.223219) scale(0.1 -0.1)">
       <use xlink:href="#DejaVuSans-30"/>
       <use xlink:href="#DejaVuSans-2e" x="63.623047"/>
       <use xlink:href="#DejaVuSans-34" x="95.410156"/>
      </g>
     </g>
    </g>
    <g id="ytick_4">
     <g id="line2d_10">
      <g>
       <use xlink:href="#mbafdf9d91b" x="72" y="184.896" style="stroke: #000000; stroke-width: 0.8"/>
      </g>
     </g>
     <g id="text_11">
      <!-- 0.6 -->
      <g transform="translate(49.096875 188.695219) scale(0.1 -0.1)">
       <defs>
        <path id="DejaVuSans-36" d="M 2113 2584 
Q 1688 2584 1439 2293 
Q 1191 2003 1191 1497 
Q 1191 994 1439 701 
Q 1688 409 2113 409 
Q 2538 409 2786 701 
Q 3034 994 3034 1497 
Q 3034 2003 2786 2293 
Q 2538 2584 2113 2584 
z
M 3366 4563 
L 3366 3988 
Q 3128 4100 2886 4159 
Q 2644 4219 2406 4219 
Q 1781 4219 1451 3797 
Q 1122 3375 1075 2522 
Q 1259 2794 1537 2939 
Q 1816 3084 2150 3084 
Q 2853 3084 3261 2657 
Q 3669 2231 3669 1497 
Q 3669 778 3244 343 
Q 2819 -91 2113 -91 
Q 1303 -91 875 529 
Q 447 1150 447 2328 
Q 447 3434 972 4092 
Q 1497 4750 2381 4750 
Q 2619 4750 2861 4703 
Q 3103 4656 3366 4563 
z
" transform="scale(0.015625)"/>
       </defs>
       <use xlink:href="#DejaVuSans-30"/>
       <use xlink:href="#DejaVuSans-2e" x="63.623047"/>
       <use xlink:href="#DejaVuSans-36" x="95.410156"/>
      </g>
     </g>
    </g>
    <g id="ytick_5">
     <g id="line2d_11">
      <g>
       <use xlink:href="#mbafdf9d91b" x="72" y="118.368" style="stroke: #000000; stroke-width: 0.8"/>
      </g>
     </g>
     <g id="text_12">
      <!-- 0.8 -->
      <g transform="translate(49.096875 122.167219) scale(0.1 -0.1)">
       <defs>
        <path id="DejaVuSans-38" d="M 2034 2216 
Q 1584 2216 1326 1975 
Q 1069 1734 1069 1313 
Q 1069 891 1326 650 
Q 1584 409 2034 409 
Q 2484 409 2743 651 
Q 3003 894 3003 1313 
Q 3003 1734 2745 1975 
Q 2488 2216 2034 2216 
z
M 1403 2484 
Q 997 2584 770 2862 
Q 544 3141 544 3541 
Q 544 4100 942 4425 
Q 1341 4750 2034 4750 
Q 2731 4750 3128 4425 
Q 3525 4100 3525 3541 
Q 3525 3141 3298 2862 
Q 3072 2584 2669 2484 
Q 3125 2378 3379 2068 
Q 3634 1759 3634 1313 
Q 3634 634 3220 271 
Q 2806 -91 2034 -91 
Q 1263 -91 848 271 
Q 434 634 434 1313 
Q 434 1759 690 2068 
Q 947 2378 1403 2484 
z
M 1172 3481 
Q 1172 3119 1398 2916 
Q 1625 2713 2034 2713 
Q 2441 2713 2670 2916 
Q 2900 3119 2900 3481 
Q 2900 3844 2670 4047 
Q 2441 4250 2034 4250 
Q 1625 4250 1398 4047 
Q 1172 3844 1172 3481 
z
" transform="scale(0.015625)"/>
       </defs>
       <use xlink:href="#DejaVuSans-30"/>
       <use xlink:href="#DejaVuSans-2e" x="63.623047"/>
       <use xlink:href="#DejaVuSans-38" x="95.410156"/>
      </g>
     </g>
    </g>
    <g id="ytick_6">
     <g id="line2d_12">
      <g>
       <use xlink:href="#mbafdf9d91b" x="72" y="51.84" style="stroke: #000000; stroke-width: 0.8"/>
      </g>
     </g>
     <g id="text_13">
      <!-- 1.0 -->
      <g transform="translate(49.096875 55.639219) scale(0.1 -0.1)">
       <use xlink:href="#DejaVuSans-31"/>
       <use xlink:href="#DejaVuSans-2e" x="63.623047"/>
       <use xlink:href="#DejaVuSans-30" x="95.410156"/>
      </g>
     </g>
    </g>
    <g id="text_14">
     <!-- rate -->
     <g transform="translate(43.017187 228.31625) rotate(-90) scale(0.1 -0.1)">
      <defs>
       <path id="DejaVuSans-72" d="M 2631 2963 
Q 2534 3019 2420 3045 
Q 2306 3072 2169 3072 
Q 1681 3072 1420 2755 
Q 1159 2438 1159 1844 
L 1159 0 
L 581 0 
L 581 3500 
L 1159 3500 
L 1159 2956 
Q 1341 3275 1631 3429 
Q 1922 3584 2338 3584 
Q 2397 3584 2469 3576 
Q 2541 3569 2628 3553 
L 2631 2963 
z
" transform="scale(0.015625)"/>
       <path id="DejaVuSans-61" d="M 2194 1759 
Q 1497 1759 1228 1600 
Q 959 1441 959 1056 
Q 959 750 1161 570 
Q 1363 391 1709 391 
Q 2188 391 2477 730 
Q 2766 1069 2766 1631 
L 2766 1759 
L 2194 1759 
z
M 3341 1997 
L 3341 0 
L 2766 0 
L 2766 531 
Q 2569 213 2275 61 
Q 1981 -91 1556 -91 
Q 1019 -91 701 211 
Q 384 513 384 1019 
Q 384 1609 779 1909 
Q 1175 2209 1959 2209 
L 2766 2209 
L 2766 2266 
Q 2766 2663 2505 2880 
Q 2244 3097 1772 3097 
Q 1472 3097 1187 3025 
Q 903 2953 641 2809 
L 641 3341 
Q 956 3463 1253 3523 
Q 1550 3584 1831 3584 
Q 2591 3584 2966 3190 
Q 3341 2797 3341 1997 
z
" transform="scale(0.015625)"/>
       <path id="DejaVuSans-74" d="M 1172 4494 
L 1172 3500 
L 2356 3500 
L 2356 3053 
L 1172 3053 
L 1172 1153 
Q 1172 725 1289 603 
Q 1406 481 1766 481 
L 2356 481 
L 2356 0 
L 1766 0 
Q 1100 0 847 248 
Q 594 497 594 1153 
L 594 3053 
L 172 3053 
L 172 3500 
L 594 3500 
L 594 4494 
L 1172 4494 
z
" transform="scale(0.015625)"/>
      </defs>
      <use xlink:href="#DejaVuSans-72"/>
      <use xlink:href="#DejaVuSans-61" x="41.113281"/>
      <use xlink:href="#DejaVuSans-74" x="102.392578"/>
      <use xlink:href="#DejaVuSans-65" x="141.601562"/>
     </g>
    </g>
   </g>
   <g id="line2d_13">
    <path d="M 92.290909 359.522824 
L 93.104172 348.834052 
L 93.917435 312.24356 
L 94.730698 210.85395 
L 95.543961 146.720546 
L 96.357224 139.792278 
L 97.170486 136.372278 
L 97.983749 141.308698 
L 98.797012 127.440007 
L 99.610275 139.858143 
L 100.423538 299.716362 
L 101.236801 268.616627 
L 102.050064 201.477437 
L 102.863327 143.643869 
L 103.67659 130.48744 
L 104.489852 133.095568 
L 105.303115 140.233843 
L 106.116378 156.383994 
L 106.929641 160.335493 
L 107.742904 165.424381 
L 108.556167 269.142516 
L 110.182693 145.395 
L 110.995956 136.557303 
L 111.809218 141.084872 
L 112.622481 131.144899 
L 113.435744 134.176629 
L 114.249007 139.495132 
L 115.06227 136.908596 
L 115.875533 145.231032 
L 116.688796 292.595376 
L 117.502059 252.728469 
L 118.315322 168.573922 
L 119.128584 132.999586 
L 119.941847 126.51429 
L 120.75511 128.603072 
L 121.568373 123.794041 
L 122.381636 124.050105 
L 123.194899 118.830002 
L 124.008162 121.809111 
L 124.821425 279.332347 
L 126.44795 158.59945 
L 127.261213 127.066013 
L 128.074476 127.176587 
L 128.887739 127.440007 
L 129.701002 125.633857 
L 130.514265 126.378059 
L 131.327528 130.883165 
L 132.140791 124.296236 
L 132.954054 288.924873 
L 133.767316 231.607151 
L 134.580579 163.775993 
L 135.393842 136.171273 
L 136.207105 127.972399 
L 137.020368 116.972302 
L 137.833631 120.857143 
L 138.646894 115.145195 
L 139.460157 121.869464 
L 140.27342 118.367996 
L 141.086682 279.882156 
L 141.899945 226.913681 
L 142.713208 162.372408 
L 144.339734 113.483087 
L 145.152997 109.993852 
L 145.96626 111.900009 
L 146.779523 126.378059 
L 147.592786 123.519993 
L 148.406048 113.9328 
L 149.219311 285.658572 
L 150.032574 234.861586 
L 150.845837 160.263799 
L 151.6591 120.425571 
L 152.472363 109.191715 
L 153.285626 110.403376 
L 154.912152 116.773141 
L 155.725414 114.560004 
L 156.538677 117.506795 
L 157.35194 278.399997 
L 158.165203 229.581121 
L 158.978466 152.453333 
L 159.791729 134.426487 
L 160.604992 108.259514 
L 161.418255 111.692183 
L 162.231518 116.033677 
L 163.04478 109.542849 
L 163.858043 113.567014 
L 164.671306 109.454124 
L 165.484569 280.848063 
L 166.297832 232.516046 
L 167.111095 167.669994 
L 167.924358 126.26116 
L 168.737621 104.733282 
L 169.550884 103.359993 
L 170.364146 106.100426 
L 171.177409 107.469215 
L 171.990672 113.35562 
L 172.803935 102.581688 
L 173.617198 282.201407 
L 174.430461 222.829897 
L 175.243724 194.764608 
L 176.056987 162.058033 
L 176.87025 139.036893 
L 179.310038 108.994636 
L 180.123301 108.6322 
L 180.936564 119.282472 
L 181.749827 281.679196 
L 182.56309 255.207583 
L 183.376353 211.090465 
L 184.189616 158.553987 
L 185.002878 127.686257 
L 185.816141 117.240401 
L 186.629404 113.616006 
L 187.442667 113.9328 
L 188.25593 108.077702 
L 189.069193 114.866528 
L 189.882456 282.097088 
L 190.695719 260.534523 
L 191.508982 215.961932 
L 192.322244 162.080913 
L 193.135507 127.536921 
L 193.94877 120.815526 
L 194.762033 111.077252 
L 195.575296 109.589998 
L 196.388559 109.390182 
L 197.201822 103.291511 
L 198.015085 282.598113 
L 198.828348 256.710997 
L 200.454873 162.405004 
L 201.268136 133.078814 
L 202.081399 126.378059 
L 202.894662 113.483087 
L 203.707925 104.178467 
L 204.521188 115.416248 
L 205.334451 112.532209 
L 206.147714 282.365217 
L 206.960976 259.868726 
L 208.587502 171.088309 
L 209.400765 134.489814 
L 211.027291 112.423915 
L 211.840554 115.145195 
L 212.653817 113.396166 
L 213.46708 113.055004 
L 214.280343 281.933655 
L 215.093605 259.292904 
L 215.906868 222.563582 
L 216.720131 180.749278 
L 217.533394 150.436879 
L 218.346657 128.941993 
L 219.15992 110.950241 
L 219.973183 110.260642 
L 220.786446 106.683872 
L 221.599709 101.487759 
L 222.412971 283.807117 
L 223.226234 261.130212 
L 224.039497 221.486397 
L 224.85276 190.508786 
L 225.666023 150.400001 
L 226.479286 127.631396 
L 227.292549 123.85485 
L 228.105812 114.349522 
L 228.919075 111.485785 
L 229.732337 111.028617 
L 230.5456 286.496288 
L 231.358863 262.007998 
L 232.172126 228.249864 
L 232.985389 183.762925 
L 233.798652 152.428748 
L 234.611915 131.632145 
L 235.425178 117.709307 
L 236.238441 123.762159 
L 237.864966 104.165401 
L 238.678229 281.068597 
L 239.491492 263.474732 
L 240.304755 234.030225 
L 241.931281 160.496051 
L 242.744544 141.994768 
L 243.557807 126.141029 
L 244.371069 123.120006 
L 245.184332 114.926901 
L 245.997595 113.616006 
L 246.810858 282.095997 
L 247.624121 264.100676 
L 248.437384 237.655383 
L 250.06391 162.719993 
L 250.877173 148.5721 
L 251.690435 129.983995 
L 252.503698 119.028866 
L 253.316961 117.240401 
L 254.130224 116.259724 
L 254.943487 280.289807 
L 255.75675 265.748668 
L 257.383276 211.275291 
L 258.196539 178.686726 
L 259.009801 156.23779 
L 259.823064 129.919479 
L 260.636327 119.515041 
L 262.262853 115.145195 
L 263.076116 280.294645 
L 263.889379 262.265599 
L 264.702642 238.585265 
L 265.515905 210.701699 
L 266.329167 177.109001 
L 267.955693 133.151995 
L 268.768956 120.815526 
L 269.582219 124.353218 
L 270.395482 118.59428 
L 271.208745 280.772057 
L 272.022008 268.693803 
L 273.648533 220.171934 
L 274.461796 185.063569 
L 275.275059 161.811149 
L 276.088322 133.219823 
L 276.901585 133.078814 
L 277.714848 115.586343 
L 278.528111 120.900207 
L 279.341374 278.988033 
L 280.154637 270.195789 
L 281.781162 224.812804 
L 282.594425 191.942072 
L 283.407688 168.029753 
L 284.220951 155.241291 
L 285.847477 120.390815 
L 286.66074 120.357208 
L 287.474003 281.188748 
L 288.287265 268.531203 
L 289.913791 226.20255 
L 290.727054 199.152001 
L 291.540317 176.249129 
L 293.166843 140.1975 
L 293.980106 135.817958 
L 294.793369 114.985212 
L 295.606631 280.451347 
L 296.419894 271.87241 
L 298.04642 235.322472 
L 298.859683 194.613567 
L 299.672946 184.895992 
L 300.486209 157.129405 
L 302.112735 131.292233 
L 302.925997 126.710735 
L 303.73926 281.057663 
L 306.179049 242.970169 
L 306.992312 207.588818 
L 307.805575 191.200407 
L 308.618838 166.447052 
L 309.432101 147.718592 
L 310.245363 139.59165 
L 311.058626 133.128223 
L 311.871889 279.612412 
L 312.685152 267.379518 
L 313.498415 257.490699 
L 314.311678 241.75149 
L 315.124941 213.058165 
L 315.938204 196.962359 
L 316.751467 173.279993 
L 317.564729 154.263052 
L 318.377992 143.636791 
L 319.191255 137.346215 
L 320.004518 281.870446 
L 322.444307 248.321655 
L 323.25757 230.468315 
L 324.070833 209.844008 
L 324.884095 178.013801 
L 325.697358 164.537703 
L 326.510621 147.026218 
L 327.323884 143.421273 
L 328.137147 283.350752 
L 328.95041 276.010431 
L 329.763673 256.815415 
L 331.390199 230.504063 
L 332.203461 207.633409 
L 333.829987 172.800004 
L 334.64325 153.161371 
L 335.456513 147.474008 
L 336.269776 281.509914 
L 337.083039 271.309089 
L 337.896302 262.90105 
L 338.709565 250.447246 
L 339.522827 235.601794 
L 340.33609 217.797644 
L 341.149353 191.940149 
L 341.962616 188.071962 
L 342.775879 164.829138 
L 343.589142 166.947106 
L 344.402405 282.781145 
L 345.215668 275.566497 
L 346.028931 266.385745 
L 346.842193 248.797897 
L 347.655456 237.799257 
L 349.281982 210.449799 
L 350.908508 169.957601 
L 351.721771 160.887275 
L 352.535034 278.237566 
L 353.348297 273.301136 
L 354.161559 264.710205 
L 355.788085 243.590295 
L 356.601348 227.905313 
L 357.414611 220.600759 
L 358.227874 205.366145 
L 359.041137 183.232794 
L 359.8544 171.410595 
L 360.667663 282.225546 
L 361.480925 279.106796 
L 362.294188 265.168662 
L 363.107451 258.00482 
L 363.920714 244.63308 
L 364.733977 238.563564 
L 367.173766 197.748 
L 367.987029 187.080003 
L 368.800291 276.372004 
L 369.613554 279.293833 
L 370.426817 266.368694 
L 371.24008 260.646733 
L 372.053343 249.788062 
L 373.679869 225.103773 
L 374.493132 222.750569 
L 376.119657 186.55919 
L 376.93292 281.93993 
L 377.746183 271.532994 
L 378.559446 272.011456 
L 380.185972 250.566961 
L 380.999235 243.658539 
L 382.625761 221.540485 
L 383.439024 206.978824 
L 384.252286 202.626703 
L 385.065549 276.631875 
L 385.878812 279.106796 
L 386.692075 265.985926 
L 387.505338 266.575925 
L 388.318601 253.439996 
L 389.131864 248.170524 
L 389.945127 233.7617 
L 390.75839 231.330824 
L 391.571652 214.070169 
L 392.384915 205.649213 
L 393.198178 277.10886 
L 394.011441 277.560001 
L 394.824704 274.056293 
L 395.637967 262.735674 
L 396.45123 260.065349 
L 397.264493 252.763493 
L 398.077756 238.428384 
L 398.891018 234.478184 
L 399.704281 226.492666 
L 400.517544 216.423878 
L 401.330807 279.235582 
L 402.14407 276.239997 
L 402.957333 272.538217 
L 404.583859 257.160908 
L 405.397122 254.970731 
L 406.210384 249.972888 
L 407.023647 236.705418 
L 407.83691 237.484803 
L 408.650173 224.076522 
L 409.463436 284.261539 
L 410.276699 275.215472 
L 411.089962 270.718029 
L 411.903225 270.0182 
L 413.52975 253.5529 
L 414.343013 248.474481 
L 415.156276 245.500279 
L 415.969539 234.407957 
L 416.782802 231.679391 
L 417.596065 277.759797 
L 418.409328 274.188221 
L 419.222591 275.826507 
L 420.035854 269.97235 
L 420.849116 265.231701 
L 421.662379 258.306209 
L 422.475642 254.156589 
L 423.288905 248.81932 
L 424.102168 240.651672 
L 424.915431 236.433522 
L 425.728694 281.402671 
L 426.541957 273.747053 
L 427.35522 271.811611 
L 428.168482 267.707078 
L 428.981745 269.925301 
L 429.795008 268.262608 
L 430.608271 257.73453 
L 431.421534 252.933548 
L 432.234797 249.149537 
L 433.04806 240.137997 
L 433.861323 283.529551 
L 434.674586 276.32891 
L 435.487848 274.056293 
L 437.114374 271.240855 
L 437.927637 257.688968 
L 438.7409 260.614058 
L 439.554163 251.84176 
L 440.367426 245.696426 
L 441.180689 242.799995 
L 441.993952 284.357016 
L 442.807214 278.327441 
L 443.620477 278.701376 
L 444.43374 273.751266 
L 445.247003 270.524271 
L 446.060266 264.319298 
L 446.873529 262.170826 
L 447.686792 258.448695 
L 448.500055 251.1077 
L 449.313318 254.788383 
L 450.12658 279.32284 
L 450.939843 276.188635 
L 451.753106 273.599997 
L 452.566369 269.913831 
L 453.379632 273.130169 
L 454.192895 266.155198 
L 455.006158 260.942461 
L 455.819421 257.830403 
L 456.632684 251.321176 
L 457.445946 251.845062 
L 458.259209 283.845869 
L 459.885735 274.04175 
L 460.698998 276.261122 
L 461.512261 270.706153 
L 462.325524 265.985926 
L 463.138787 268.715415 
L 463.95205 262.562169 
L 464.765312 264.110273 
L 465.578575 255.003039 
L 466.391838 282.223999 
L 467.205101 281.217706 
L 468.018364 274.920002 
L 468.831627 273.156479 
L 469.64489 267.797231 
L 470.458153 270.952582 
L 471.271416 261.297749 
L 472.084678 264.236798 
L 472.897941 264.569047 
L 473.711204 259.74 
L 474.524467 279.876228 
L 475.33773 277.984287 
L 476.150993 279.550363 
L 476.964256 278.740128 
L 477.777519 274.813462 
L 478.590782 273.599997 
L 479.404044 267.133318 
L 480.217307 264.710205 
L 481.03057 261.298473 
L 481.843833 258.3908 
L 482.657096 280.080911 
L 484.283622 275.765628 
L 485.096885 276.848147 
L 485.910148 272.591998 
L 486.72341 271.915356 
L 487.536673 269.493332 
L 488.349936 273.91234 
L 489.163199 262.675064 
L 489.976462 259.988986 
L 490.789725 281.601653 
L 491.602988 277.881078 
L 492.416251 275.147813 
L 493.229514 276.462395 
L 494.042776 276.861173 
L 494.856039 270.290145 
L 495.669302 266.535627 
L 496.482565 266.641006 
L 497.295828 271.220601 
L 498.109091 266.292717 
L 498.109091 266.292717 
" clip-path="url(#p7ed9e87b91)" style="fill: none; stroke: #0000ff; stroke-width: 1.5; stroke-linecap: square"/>
   </g>
   <g id="line2d_14">
    <path d="M 92.290909 221.749638 
L 93.104172 213.772666 
L 93.917435 220.951943 
L 94.730698 223.345039 
L 95.543961 214.570362 
L 96.357224 211.379561 
L 97.170486 204.200284 
L 97.983749 215.368057 
L 98.797012 208.18878 
L 99.610275 213.772666 
L 100.423538 236.905897 
L 101.236801 236.108202 
L 102.050064 240.096688 
L 102.863327 223.345039 
L 103.67659 227.333525 
L 104.489852 226.53583 
L 105.303115 216.963447 
L 106.116378 231.322011 
L 106.929641 234.512802 
L 107.742904 233.715106 
L 108.556167 219.356543 
L 109.36943 232.119716 
L 110.182693 237.703593 
L 110.995956 225.738134 
L 111.809218 216.963447 
L 112.622481 201.009503 
L 113.435744 202.604894 
L 114.249007 210.581866 
L 115.06227 203.402589 
L 115.875533 202.604894 
L 116.688796 218.558848 
L 117.502059 223.345039 
L 118.315322 217.761142 
L 119.128584 208.986475 
L 119.941847 202.604894 
L 120.75511 208.986475 
L 121.568373 208.18878 
L 122.381636 208.986475 
L 123.194899 201.009503 
L 124.008162 201.807198 
L 125.634688 225.738134 
L 126.44795 224.142734 
L 127.261213 209.78417 
L 128.074476 207.391085 
L 128.887739 208.18878 
L 129.701002 202.604894 
L 130.514265 199.414093 
L 131.327528 200.211808 
L 132.140791 195.425617 
L 132.954054 215.368057 
L 133.767316 212.177276 
L 134.580579 217.761142 
L 135.393842 215.368057 
L 136.207105 209.78417 
L 137.020368 201.009503 
L 137.833631 198.616398 
L 138.646894 197.818702 
L 139.460157 193.032511 
L 140.27342 189.84173 
L 141.086682 207.391085 
L 141.899945 212.177276 
L 142.713208 214.570362 
L 143.526471 213.772666 
L 144.339734 198.616398 
L 145.152997 196.223312 
L 145.96626 196.223312 
L 146.779523 199.414093 
L 147.592786 198.616398 
L 148.406048 189.84173 
L 149.219311 205.795674 
L 150.032574 212.974971 
L 150.845837 214.570362 
L 151.6591 200.211808 
L 152.472363 193.032511 
L 153.285626 197.818702 
L 154.098889 199.414093 
L 154.912152 197.021007 
L 155.725414 192.234816 
L 156.538677 186.650929 
L 157.35194 208.18878 
L 158.165203 211.379561 
L 158.978466 204.200284 
L 159.791729 210.581866 
L 160.604992 197.021007 
L 161.418255 195.425617 
L 162.231518 201.009503 
L 163.04478 190.639425 
L 163.858043 195.425617 
L 164.671306 182.662453 
L 165.484569 205.795674 
L 166.297832 211.379561 
L 167.111095 209.78417 
L 168.737621 194.627921 
L 169.550884 184.257844 
L 170.364146 196.223312 
L 171.177409 189.84173 
L 171.990672 194.627921 
L 172.803935 185.055539 
L 173.617198 210.581866 
L 174.430461 204.997979 
L 175.243724 206.593389 
L 176.056987 205.795674 
L 176.87025 202.604894 
L 177.683512 198.616398 
L 178.496775 191.437121 
L 179.310038 192.234816 
L 180.123301 194.627921 
L 180.936564 199.414093 
L 181.749827 188.24634 
L 182.56309 188.24634 
L 183.376353 198.616398 
L 185.002878 195.425617 
L 185.816141 195.425617 
L 186.629404 202.604894 
L 187.442667 189.84173 
L 188.25593 200.211808 
L 189.069193 200.211808 
L 189.882456 189.044035 
L 190.695719 197.818702 
L 191.508982 201.009503 
L 192.322244 199.414093 
L 193.135507 192.234816 
L 193.94877 195.425617 
L 194.762033 193.032511 
L 195.575296 194.627921 
L 196.388559 193.830206 
L 197.201822 197.021007 
L 198.015085 197.818702 
L 198.828348 199.414093 
L 199.64161 196.223312 
L 200.454873 197.021007 
L 201.268136 201.807198 
L 202.081399 199.414093 
L 202.894662 198.616398 
L 203.707925 192.234816 
L 205.334451 198.616398 
L 206.147714 198.616398 
L 206.960976 191.437121 
L 207.774239 197.021007 
L 208.587502 194.627921 
L 209.400765 189.044035 
L 210.214028 193.032511 
L 211.027291 194.627921 
L 211.840554 197.818702 
L 212.653817 201.807198 
L 213.46708 197.021007 
L 214.280343 191.437121 
L 215.093605 189.044035 
L 215.906868 193.830206 
L 216.720131 204.200284 
L 217.533394 197.021007 
L 218.346657 199.414093 
L 219.15992 196.223312 
L 219.973183 201.009503 
L 220.786446 198.616398 
L 221.599709 202.604894 
L 222.412971 193.032511 
L 223.226234 189.84173 
L 224.039497 189.044035 
L 224.85276 197.021007 
L 225.666023 202.604894 
L 226.479286 189.84173 
L 227.292549 202.604894 
L 228.105812 191.437121 
L 228.919075 194.627921 
L 229.732337 200.211808 
L 230.5456 198.616398 
L 231.358863 190.639425 
L 232.172126 193.032511 
L 232.985389 186.650929 
L 233.798652 198.616398 
L 234.611915 189.84173 
L 235.425178 190.639425 
L 236.238441 199.414093 
L 237.051703 196.223312 
L 237.864966 204.997979 
L 238.678229 193.032511 
L 239.491492 190.639425 
L 240.304755 195.425617 
L 241.118018 195.425617 
L 241.931281 197.021007 
L 242.744544 197.818702 
L 243.557807 204.200284 
L 244.371069 200.211808 
L 245.184332 197.021007 
L 245.997595 202.604894 
L 247.624121 189.044035 
L 248.437384 192.234816 
L 249.250647 189.044035 
L 250.06391 194.627921 
L 250.877173 193.830206 
L 251.690435 192.234816 
L 252.503698 192.234816 
L 253.316961 195.425617 
L 254.130224 201.807198 
L 254.943487 189.84173 
L 255.75675 187.448625 
L 257.383276 193.830206 
L 258.196539 199.414093 
L 259.009801 206.593389 
L 259.823064 194.627921 
L 260.636327 200.211808 
L 261.44959 196.223312 
L 262.262853 197.818702 
L 263.076116 185.853234 
L 263.889379 186.650929 
L 264.702642 185.055539 
L 265.515905 198.616398 
L 266.329167 189.044035 
L 267.14243 196.223312 
L 267.955693 194.627921 
L 268.768956 195.425617 
L 269.582219 204.200284 
L 270.395482 197.021007 
L 271.208745 192.234816 
L 272.022008 196.223312 
L 272.835271 189.84173 
L 273.648533 189.044035 
L 274.461796 194.627921 
L 275.275059 189.044035 
L 276.088322 187.448625 
L 276.901585 201.807198 
L 277.714848 199.414093 
L 278.528111 201.807198 
L 279.341374 186.650929 
L 280.154637 197.021007 
L 280.967899 186.650929 
L 281.781162 193.032511 
L 282.594425 197.021007 
L 283.407688 200.211808 
L 284.220951 197.021007 
L 285.847477 197.021007 
L 286.66074 193.830206 
L 287.474003 189.044035 
L 288.287265 189.84173 
L 289.100528 187.448625 
L 289.913791 188.24634 
L 290.727054 197.818702 
L 291.540317 196.223312 
L 292.35358 201.009503 
L 293.166843 197.021007 
L 293.980106 202.604894 
L 294.793369 193.830206 
L 295.606631 186.650929 
L 296.419894 193.830206 
L 298.04642 193.830206 
L 298.859683 181.864738 
L 299.672946 195.425617 
L 300.486209 189.84173 
L 301.299472 197.021007 
L 302.112735 193.830206 
L 302.925997 192.234816 
L 303.73926 189.044035 
L 304.552523 185.055539 
L 305.365786 183.460149 
L 306.179049 200.211808 
L 306.992312 184.257844 
L 307.805575 198.616398 
L 308.618838 197.818702 
L 309.432101 191.437121 
L 310.245363 193.032511 
L 311.058626 197.021007 
L 311.871889 185.055539 
L 312.685152 184.257844 
L 313.498415 187.448625 
L 314.311678 191.437121 
L 315.124941 183.460149 
L 315.938204 201.009503 
L 316.751467 193.032511 
L 317.564729 189.044035 
L 318.377992 189.84173 
L 319.191255 195.425617 
L 320.004518 189.84173 
L 320.817781 189.044035 
L 321.631044 182.662453 
L 322.444307 195.425617 
L 323.25757 189.84173 
L 324.070833 200.211808 
L 324.884095 183.460149 
L 326.510621 199.414093 
L 327.323884 201.807198 
L 328.137147 191.437121 
L 328.95041 193.032511 
L 329.763673 184.257844 
L 331.390199 195.425617 
L 332.203461 183.460149 
L 333.016724 196.223312 
L 333.829987 189.044035 
L 334.64325 191.437121 
L 335.456513 202.604894 
L 336.269776 190.639425 
L 337.083039 187.448625 
L 337.896302 185.055539 
L 338.709565 187.448625 
L 340.33609 201.009503 
L 341.149353 188.24634 
L 341.962616 197.021007 
L 342.775879 190.639425 
L 343.589142 206.593389 
L 344.402405 193.032511 
L 345.215668 193.032511 
L 346.028931 184.257844 
L 346.842193 186.650929 
L 347.655456 193.830206 
L 348.468719 193.032511 
L 349.281982 195.425617 
L 350.095245 194.627921 
L 350.908508 187.448625 
L 351.721771 189.84173 
L 352.535034 183.460149 
L 353.348297 186.650929 
L 354.161559 187.448625 
L 354.974822 189.044035 
L 355.788085 192.234816 
L 356.601348 192.234816 
L 357.414611 197.021007 
L 358.227874 194.627921 
L 359.041137 191.437121 
L 359.8544 195.425617 
L 360.667663 189.044035 
L 361.480925 196.223312 
L 362.294188 185.055539 
L 363.107451 188.24634 
L 363.920714 190.639425 
L 364.733977 196.223312 
L 365.54724 193.032511 
L 366.360503 197.021007 
L 367.173766 187.448625 
L 367.987029 197.021007 
L 368.800291 177.078567 
L 369.613554 197.818702 
L 370.426817 189.044035 
L 371.24008 193.830206 
L 372.053343 187.448625 
L 372.866606 192.234816 
L 373.679869 192.234816 
L 374.493132 201.807198 
L 375.306395 189.84173 
L 376.119657 194.627921 
L 376.93292 185.055539 
L 377.746183 181.067043 
L 378.559446 196.223312 
L 379.372709 189.044035 
L 380.185972 185.055539 
L 380.999235 190.639425 
L 381.812498 188.24634 
L 382.625761 192.234816 
L 383.439024 181.864738 
L 384.252286 193.032511 
L 385.065549 185.853234 
L 385.878812 196.223312 
L 386.692075 185.853234 
L 387.505338 197.021007 
L 388.318601 187.448625 
L 389.131864 190.639425 
L 389.945127 180.269348 
L 390.75839 185.055539 
L 391.571652 185.055539 
L 392.384915 190.639425 
L 393.198178 181.067043 
L 394.011441 190.639425 
L 394.824704 191.437121 
L 395.637967 181.864738 
L 396.45123 193.830206 
L 397.264493 196.223312 
L 398.077756 189.044035 
L 398.891018 193.830206 
L 399.704281 195.425617 
L 400.517544 191.437121 
L 401.330807 185.853234 
L 402.14407 188.24634 
L 402.957333 188.24634 
L 403.770596 183.460149 
L 404.583859 182.662453 
L 405.397122 192.234816 
L 406.210384 192.234816 
L 407.023647 184.257844 
L 407.83691 199.414093 
L 408.650173 189.84173 
L 409.463436 197.021007 
L 410.276699 186.650929 
L 411.089962 185.055539 
L 411.903225 189.044035 
L 412.716488 187.448625 
L 413.52975 188.24634 
L 414.343013 185.853234 
L 415.156276 189.84173 
L 415.969539 181.864738 
L 416.782802 190.639425 
L 417.596065 186.650929 
L 418.409328 185.055539 
L 419.222591 189.84173 
L 420.035854 191.437121 
L 420.849116 187.448625 
L 421.662379 182.662453 
L 422.475642 186.650929 
L 423.288905 185.055539 
L 424.102168 190.639425 
L 424.915431 193.830206 
L 425.728694 184.257844 
L 426.541957 184.257844 
L 427.35522 183.460149 
L 428.168482 184.257844 
L 428.981745 193.830206 
L 429.795008 204.997979 
L 430.608271 195.425617 
L 431.421534 189.84173 
L 432.234797 194.627921 
L 433.04806 190.639425 
L 433.861323 189.84173 
L 434.674586 184.257844 
L 435.487848 191.437121 
L 436.301111 193.830206 
L 437.114374 193.032511 
L 437.927637 181.067043 
L 438.7409 186.650929 
L 439.554163 181.864738 
L 440.367426 183.460149 
L 441.180689 182.662453 
L 441.993952 191.437121 
L 442.807214 187.448625 
L 443.620477 197.021007 
L 444.43374 189.84173 
L 445.247003 187.448625 
L 446.060266 188.24634 
L 446.873529 193.830206 
L 447.686792 189.84173 
L 448.500055 182.662453 
L 449.313318 193.830206 
L 450.939843 184.257844 
L 451.753106 182.662453 
L 452.566369 177.876262 
L 453.379632 195.425617 
L 454.192895 185.853234 
L 455.006158 189.84173 
L 455.819421 179.471653 
L 456.632684 177.876262 
L 457.445946 183.460149 
L 458.259209 193.830206 
L 459.072472 189.84173 
L 459.885735 185.055539 
L 460.698998 189.84173 
L 461.512261 185.853234 
L 462.325524 185.853234 
L 463.138787 195.425617 
L 463.95205 190.639425 
L 464.765312 192.234816 
L 465.578575 188.24634 
L 466.391838 185.853234 
L 467.205101 189.84173 
L 468.018364 185.853234 
L 468.831627 184.257844 
L 469.64489 186.650929 
L 470.458153 190.639425 
L 471.271416 179.471653 
L 472.084678 189.84173 
L 472.897941 193.830206 
L 473.711204 193.032511 
L 474.524467 185.055539 
L 475.33773 184.257844 
L 476.150993 192.234816 
L 476.964256 193.032511 
L 477.777519 192.234816 
L 478.590782 192.234816 
L 479.404044 186.650929 
L 480.217307 187.448625 
L 481.03057 187.448625 
L 481.843833 179.471653 
L 482.657096 187.448625 
L 483.470359 186.650929 
L 484.283622 184.257844 
L 485.096885 190.639425 
L 485.910148 177.876262 
L 486.72341 189.044035 
L 487.536673 183.460149 
L 488.349936 196.223312 
L 489.163199 185.853234 
L 489.976462 185.055539 
L 490.789725 193.032511 
L 492.416251 177.876262 
L 493.229514 193.830206 
L 494.042776 191.437121 
L 494.856039 182.662453 
L 495.669302 180.269348 
L 496.482565 181.864738 
L 497.295828 194.627921 
L 498.109091 186.650929 
L 498.109091 186.650929 
" clip-path="url(#p7ed9e87b91)" style="fill: none; stroke: #008000; stroke-width: 1.5; stroke-linecap: square"/>
   </g>
   <g id="patch_3">
    <path d="M 72 384.48 
L 72 51.84 
" style="fill: none; stroke: #000000; stroke-width: 0.8; stroke-linejoin: miter; stroke-linecap: square"/>
   </g>
   <g id="patch_4">
    <path d="M 518.4 384.48 
L 518.4 51.84 
" style="fill: none; stroke: #000000; stroke-width: 0.8; stroke-linejoin: miter; stroke-linecap: square"/>
   </g>
   <g id="patch_5">
    <path d="M 72 384.48 
L 518.4 384.48 
" style="fill: none; stroke: #000000; stroke-width: 0.8; stroke-linejoin: miter; stroke-linecap: square"/>
   </g>
   <g id="patch_6">
    <path d="M 72 51.84 
L 518.4 51.84 
" style="fill: none; stroke: #000000; stroke-width: 0.8; stroke-linejoin: miter; stroke-linecap: square"/>
   </g>
   <g id="legend_1">
    <g id="patch_7">
     <path d="M 79 89.19625 
L 156.107812 89.19625 
Q 158.107812 89.19625 158.107812 87.19625 
L 158.107812 58.84 
Q 158.107812 56.84 156.107812 56.84 
L 79 56.84 
Q 77 56.84 77 58.84 
L 77 87.19625 
Q 77 89.19625 79 89.19625 
z
" style="fill: #ffffff; opacity: 0.8; stroke: #cccccc; stroke-linejoin: miter"/>
    </g>
    <g id="line2d_15">
     <path d="M 81 64.938437 
L 91 64.938437 
L 101 64.938437 
" style="fill: none; stroke: #0000ff; stroke-width: 1.5; stroke-linecap: square"/>
    </g>
    <g id="text_15">
     <!-- precision -->
     <g transform="translate(109 68.438437) scale(0.1 -0.1)">
      <defs>
       <path id="DejaVuSans-69" d="M 603 3500 
L 1178 3500 
L 1178 0 
L 603 0 
L 603 3500 
z
M 603 4863 
L 1178 4863 
L 1178 4134 
L 603 4134 
L 603 4863 
z
" transform="scale(0.015625)"/>
       <path id="DejaVuSans-73" d="M 2834 3397 
L 2834 2853 
Q 2591 2978 2328 3040 
Q 2066 3103 1784 3103 
Q 1356 3103 1142 2972 
Q 928 2841 928 2578 
Q 928 2378 1081 2264 
Q 1234 2150 1697 2047 
L 1894 2003 
Q 2506 1872 2764 1633 
Q 3022 1394 3022 966 
Q 3022 478 2636 193 
Q 2250 -91 1575 -91 
Q 1294 -91 989 -36 
Q 684 19 347 128 
L 347 722 
Q 666 556 975 473 
Q 1284 391 1588 391 
Q 1994 391 2212 530 
Q 2431 669 2431 922 
Q 2431 1156 2273 1281 
Q 2116 1406 1581 1522 
L 1381 1569 
Q 847 1681 609 1914 
Q 372 2147 372 2553 
Q 372 3047 722 3315 
Q 1072 3584 1716 3584 
Q 2034 3584 2315 3537 
Q 2597 3491 2834 3397 
z
" transform="scale(0.015625)"/>
       <path id="DejaVuSans-6e" d="M 3513 2113 
L 3513 0 
L 2938 0 
L 2938 2094 
Q 2938 2591 2744 2837 
Q 2550 3084 2163 3084 
Q 1697 3084 1428 2787 
Q 1159 2491 1159 1978 
L 1159 0 
L 581 0 
L 581 3500 
L 1159 3500 
L 1159 2956 
Q 1366 3272 1645 3428 
Q 1925 3584 2291 3584 
Q 2894 3584 3203 3211 
Q 3513 2838 3513 2113 
z
" transform="scale(0.015625)"/>
      </defs>
      <use xlink:href="#DejaVuSans-70"/>
      <use xlink:href="#DejaVuSans-72" x="63.476562"/>
      <use xlink:href="#DejaVuSans-65" x="102.339844"/>
      <use xlink:href="#DejaVuSans-63" x="163.863281"/>
      <use xlink:href="#DejaVuSans-69" x="218.84375"/>
      <use xlink:href="#DejaVuSans-73" x="246.626953"/>
      <use xlink:href="#DejaVuSans-69" x="298.726562"/>
      <use xlink:href="#DejaVuSans-6f" x="326.509766"/>
      <use xlink:href="#DejaVuSans-6e" x="387.691406"/>
     </g>
    </g>
    <g id="line2d_16">
     <path d="M 81 79.616562 
L 91 79.616562 
L 101 79.616562 
" style="fill: none; stroke: #008000; stroke-width: 1.5; stroke-linecap: square"/>
    </g>
    <g id="text_16">
     <!-- recall -->
     <g transform="translate(109 83.116562) scale(0.1 -0.1)">
      <defs>
       <path id="DejaVuSans-6c" d="M 603 4863 
L 1178 4863 
L 1178 0 
L 603 0 
L 603 4863 
z
" transform="scale(0.015625)"/>
      </defs>
      <use xlink:href="#DejaVuSans-72"/>
      <use xlink:href="#DejaVuSans-65" x="38.863281"/>
      <use xlink:href="#DejaVuSans-63" x="100.386719"/>
      <use xlink:href="#DejaVuSans-61" x="155.367188"/>
      <use xlink:href="#DejaVuSans-6c" x="216.646484"/>
      <use xlink:href="#DejaVuSans-6c" x="244.429688"/>
     </g>
    </g>
   </g>
  </g>
  <g id="axes_2">
   <g id="matplotlib.axis_3">
    <g id="ytick_7">
     <g id="line2d_17">
      <defs>
       <path id="m5b3011302d" d="M 0 0 
L 3.5 0 
" style="stroke: #000000; stroke-width: 0.8"/>
      </defs>
      <g>
       <use xlink:href="#m5b3011302d" x="518.4" y="378.584005" style="stroke: #000000; stroke-width: 0.8"/>
      </g>
     </g>
     <g id="text_17">
      <!-- 0.2 -->
      <g transform="translate(525.4 382.383224) scale(0.1 -0.1)">
       <use xlink:href="#DejaVuSans-30"/>
       <use xlink:href="#DejaVuSans-2e" x="63.623047"/>
       <use xlink:href="#DejaVuSans-32" x="95.410156"/>
      </g>
     </g>
    </g>
    <g id="ytick_8">
     <g id="line2d_18">
      <g>
       <use xlink:href="#m5b3011302d" x="518.4" y="334.094556" style="stroke: #000000; stroke-width: 0.8"/>
      </g>
     </g>
     <g id="text_18">
      <!-- 0.3 -->
      <g transform="translate(525.4 337.893775) scale(0.1 -0.1)">
       <use xlink:href="#DejaVuSans-30"/>
       <use xlink:href="#DejaVuSans-2e" x="63.623047"/>
       <use xlink:href="#DejaVuSans-33" x="95.410156"/>
      </g>
     </g>
    </g>
    <g id="ytick_9">
     <g id="line2d_19">
      <g>
       <use xlink:href="#m5b3011302d" x="518.4" y="289.605108" style="stroke: #000000; stroke-width: 0.8"/>
      </g>
     </g>
     <g id="text_19">
      <!-- 0.4 -->
      <g transform="translate(525.4 293.404326) scale(0.1 -0.1)">
       <use xlink:href="#DejaVuSans-30"/>
       <use xlink:href="#DejaVuSans-2e" x="63.623047"/>
       <use xlink:href="#DejaVuSans-34" x="95.410156"/>
      </g>
     </g>
    </g>
    <g id="ytick_10">
     <g id="line2d_20">
      <g>
       <use xlink:href="#m5b3011302d" x="518.4" y="245.115659" style="stroke: #000000; stroke-width: 0.8"/>
      </g>
     </g>
     <g id="text_20">
      <!-- 0.5 -->
      <g transform="translate(525.4 248.914878) scale(0.1 -0.1)">
       <use xlink:href="#DejaVuSans-30"/>
       <use xlink:href="#DejaVuSans-2e" x="63.623047"/>
       <use xlink:href="#DejaVuSans-35" x="95.410156"/>
      </g>
     </g>
    </g>
    <g id="ytick_11">
     <g id="line2d_21">
      <g>
       <use xlink:href="#m5b3011302d" x="518.4" y="200.626211" style="stroke: #000000; stroke-width: 0.8"/>
      </g>
     </g>
     <g id="text_21">
      <!-- 0.6 -->
      <g transform="translate(525.4 204.425429) scale(0.1 -0.1)">
       <use xlink:href="#DejaVuSans-30"/>
       <use xlink:href="#DejaVuSans-2e" x="63.623047"/>
       <use xlink:href="#DejaVuSans-36" x="95.410156"/>
      </g>
     </g>
    </g>
    <g id="ytick_12">
     <g id="line2d_22">
      <g>
       <use xlink:href="#m5b3011302d" x="518.4" y="156.136762" style="stroke: #000000; stroke-width: 0.8"/>
      </g>
     </g>
     <g id="text_22">
      <!-- 0.7 -->
      <g transform="translate(525.4 159.935981) scale(0.1 -0.1)">
       <defs>
        <path id="DejaVuSans-37" d="M 525 4666 
L 3525 4666 
L 3525 4397 
L 1831 0 
L 1172 0 
L 2766 4134 
L 525 4134 
L 525 4666 
z
" transform="scale(0.015625)"/>
       </defs>
       <use xlink:href="#DejaVuSans-30"/>
       <use xlink:href="#DejaVuSans-2e" x="63.623047"/>
       <use xlink:href="#DejaVuSans-37" x="95.410156"/>
      </g>
     </g>
    </g>
    <g id="ytick_13">
     <g id="line2d_23">
      <g>
       <use xlink:href="#m5b3011302d" x="518.4" y="111.647314" style="stroke: #000000; stroke-width: 0.8"/>
      </g>
     </g>
     <g id="text_23">
      <!-- 0.8 -->
      <g transform="translate(525.4 115.446532) scale(0.1 -0.1)">
       <use xlink:href="#DejaVuSans-30"/>
       <use xlink:href="#DejaVuSans-2e" x="63.623047"/>
       <use xlink:href="#DejaVuSans-38" x="95.410156"/>
      </g>
     </g>
    </g>
    <g id="ytick_14">
     <g id="line2d_24">
      <g>
       <use xlink:href="#m5b3011302d" x="518.4" y="67.157865" style="stroke: #000000; stroke-width: 0.8"/>
      </g>
     </g>
     <g id="text_24">
      <!-- 0.9 -->
      <g transform="translate(525.4 70.957084) scale(0.1 -0.1)">
       <defs>
        <path id="DejaVuSans-39" d="M 703 97 
L 703 672 
Q 941 559 1184 500 
Q 1428 441 1663 441 
Q 2288 441 2617 861 
Q 2947 1281 2994 2138 
Q 2813 1869 2534 1725 
Q 2256 1581 1919 1581 
Q 1219 1581 811 2004 
Q 403 2428 403 3163 
Q 403 3881 828 4315 
Q 1253 4750 1959 4750 
Q 2769 4750 3195 4129 
Q 3622 3509 3622 2328 
Q 3622 1225 3098 567 
Q 2575 -91 1691 -91 
Q 1453 -91 1209 -44 
Q 966 3 703 97 
z
M 1959 2075 
Q 2384 2075 2632 2365 
Q 2881 2656 2881 3163 
Q 2881 3666 2632 3958 
Q 2384 4250 1959 4250 
Q 1534 4250 1286 3958 
Q 1038 3666 1038 3163 
Q 1038 2656 1286 2365 
Q 1534 2075 1959 2075 
z
" transform="scale(0.015625)"/>
       </defs>
       <use xlink:href="#DejaVuSans-30"/>
       <use xlink:href="#DejaVuSans-2e" x="63.623047"/>
       <use xlink:href="#DejaVuSans-39" x="95.410156"/>
      </g>
     </g>
    </g>
    <g id="text_25">
     <!-- loss -->
     <g transform="translate(552.901563 227.817812) rotate(-90) scale(0.1 -0.1)">
      <use xlink:href="#DejaVuSans-6c"/>
      <use xlink:href="#DejaVuSans-6f" x="27.783203"/>
      <use xlink:href="#DejaVuSans-73" x="88.964844"/>
      <use xlink:href="#DejaVuSans-73" x="141.064453"/>
     </g>
    </g>
   </g>
   <g id="line2d_25">
    <path d="M 92.290909 66.96 
L 93.104172 132.763998 
L 93.917435 220.668018 
L 94.730698 288.304501 
L 95.543961 327.364233 
L 96.357224 344.264941 
L 97.170486 351.363776 
L 97.983749 350.72145 
L 98.797012 352.924613 
L 99.610275 349.236361 
L 100.423538 227.995198 
L 101.236801 277.638918 
L 102.050064 315.393299 
L 102.863327 337.519932 
L 103.67659 346.149188 
L 104.489852 349.220557 
L 105.303115 347.607732 
L 106.116378 346.652602 
L 106.929641 346.031847 
L 107.742904 346.089324 
L 108.556167 256.762002 
L 109.36943 299.363024 
L 110.182693 332.113885 
L 110.995956 347.232214 
L 111.809218 354.526565 
L 112.622481 357.648026 
L 113.435744 358.567709 
L 114.249007 356.725804 
L 115.06227 357.885864 
L 115.875533 355.807016 
L 116.688796 245.598124 
L 117.502059 294.509873 
L 118.315322 329.931154 
L 119.128584 349.940156 
L 119.941847 358.241905 
L 120.75511 360.826181 
L 121.568373 362.223986 
L 122.381636 360.085169 
L 123.194899 360.382552 
L 124.008162 360.945975 
L 124.821425 255.392505 
L 125.634688 300.933672 
L 126.44795 334.884343 
L 127.261213 352.482614 
L 128.074476 358.851992 
L 128.887739 362.374899 
L 129.701002 362.322135 
L 130.514265 361.352877 
L 131.327528 360.675799 
L 132.140791 362.765121 
L 132.954054 251.705804 
L 133.767316 300.192474 
L 134.580579 333.809379 
L 135.393842 352.384194 
L 136.207105 359.437803 
L 137.020368 364.284511 
L 137.833631 363.968074 
L 139.460157 364.335299 
L 140.27342 364.30725 
L 141.086682 255.465071 
L 141.899945 301.250838 
L 142.713208 336.584411 
L 143.526471 353.193291 
L 144.339734 363.426992 
L 145.152997 364.832911 
L 145.96626 365.392456 
L 146.779523 364.168986 
L 147.592786 365.074157 
L 148.406048 366.517917 
L 149.219311 252.112693 
L 150.032574 300.761147 
L 150.845837 336.386125 
L 151.6591 355.930907 
L 152.472363 364.534401 
L 153.285626 365.293154 
L 154.098889 366.38863 
L 154.912152 364.867902 
L 155.725414 364.989837 
L 156.538677 366.13687 
L 157.35194 254.988732 
L 158.165203 302.988349 
L 158.978466 337.881833 
L 159.791729 354.483049 
L 160.604992 365.028241 
L 161.418255 366.082973 
L 162.231518 366.075753 
L 163.04478 368.175438 
L 163.858043 366.616179 
L 164.671306 368.348996 
L 165.484569 254.987658 
L 166.297832 302.241715 
L 167.111095 337.251731 
L 167.924358 355.416263 
L 168.737621 364.410311 
L 169.550884 369.297259 
L 170.364146 367.831084 
L 171.177409 369.244303 
L 171.990672 367.868779 
L 172.803935 369.36 
L 173.617198 256.834966 
L 174.430461 304.443061 
L 176.056987 333.00296 
L 176.87025 343.625067 
L 177.683512 351.819458 
L 179.310038 361.752891 
L 180.123301 362.410274 
L 180.936564 364.993079 
L 181.749827 255.743878 
L 183.376353 304.099232 
L 184.189616 325.595099 
L 185.002878 342.168021 
L 186.629404 356.004533 
L 187.442667 361.54244 
L 188.25593 363.071568 
L 189.069193 362.411759 
L 189.882456 255.878589 
L 191.508982 304.064706 
L 192.322244 325.471659 
L 193.135507 341.720852 
L 193.94877 349.80286 
L 194.762033 354.552619 
L 195.575296 360.272729 
L 196.388559 362.455168 
L 197.201822 363.937711 
L 198.015085 256.648347 
L 199.64161 305.221172 
L 200.454873 324.489838 
L 201.268136 337.653038 
L 202.081399 346.891818 
L 202.894662 354.086529 
L 203.707925 358.708485 
L 204.521188 361.408379 
L 205.334451 362.170069 
L 206.147714 256.209517 
L 206.960976 281.046187 
L 208.587502 321.461985 
L 209.400765 336.695441 
L 211.027291 353.253049 
L 211.840554 358.158533 
L 213.46708 361.687916 
L 214.280343 254.722042 
L 215.906868 300.340045 
L 216.720131 317.959014 
L 217.533394 331.389804 
L 218.346657 342.802353 
L 219.15992 350.577538 
L 219.973183 354.927315 
L 220.786446 359.947276 
L 221.599709 360.449443 
L 222.412971 255.030046 
L 224.039497 299.077759 
L 225.666023 329.431731 
L 226.479286 340.623002 
L 227.292549 346.369962 
L 228.105812 353.380931 
L 228.919075 355.272656 
L 229.732337 359.632218 
L 230.5456 255.135282 
L 232.172126 296.725964 
L 232.985389 315.374657 
L 234.611915 337.528046 
L 235.425178 345.581018 
L 236.238441 351.560618 
L 237.051703 355.542103 
L 237.864966 357.032959 
L 238.678229 256.061203 
L 240.304755 296.226846 
L 241.931281 324.89088 
L 242.744544 335.917675 
L 243.557807 342.419118 
L 245.184332 353.84832 
L 245.997595 356.442925 
L 246.810858 255.909906 
L 247.624121 276.774624 
L 249.250647 309.953098 
L 250.06391 322.133946 
L 250.877173 331.746521 
L 252.503698 348.292381 
L 253.316961 351.037488 
L 254.130224 353.32519 
L 254.943487 256.993714 
L 257.383276 306.179843 
L 258.196539 318.534741 
L 259.823064 338.011598 
L 260.636327 343.960596 
L 262.262853 353.421582 
L 263.076116 256.192427 
L 264.702642 290.367133 
L 266.329167 316.519098 
L 267.955693 334.669973 
L 268.768956 341.331809 
L 269.582219 345.265974 
L 270.395482 351.108158 
L 271.208745 256.293459 
L 273.648533 302.5767 
L 274.461796 313.684613 
L 276.088322 333.463627 
L 276.901585 337.82783 
L 277.714848 344.458759 
L 278.528111 346.729304 
L 279.341374 256.734264 
L 280.967899 287.824423 
L 283.407688 320.939241 
L 285.847477 341.113356 
L 286.66074 345.195357 
L 287.474003 256.808846 
L 288.287265 272.471876 
L 289.913791 297.295977 
L 292.35358 325.447064 
L 293.166843 331.26163 
L 293.980106 336.113111 
L 294.793369 343.630834 
L 295.606631 257.83279 
L 297.233157 283.435505 
L 298.859683 306.528048 
L 300.486209 323.388064 
L 301.299472 327.657069 
L 302.112735 335.846103 
L 302.925997 339.942384 
L 303.73926 256.986555 
L 306.179049 293.114401 
L 307.805575 311.893589 
L 309.432101 326.460839 
L 310.245363 331.982781 
L 311.058626 335.952652 
L 311.871889 257.740654 
L 313.498415 281.380046 
L 317.564729 324.248341 
L 318.377992 328.215149 
L 319.191255 332.834294 
L 320.004518 258.153151 
L 321.631044 278.875071 
L 324.070833 304.938984 
L 325.697358 320.716518 
L 326.510621 325.92559 
L 327.323884 329.115348 
L 328.137147 256.237069 
L 330.576936 287.864796 
L 331.390199 295.438062 
L 332.203461 304.620492 
L 333.016724 308.896934 
L 333.829987 316.884619 
L 334.64325 323.514965 
L 335.456513 327.311542 
L 336.269776 257.00639 
L 337.083039 267.32166 
L 337.896302 275.447436 
L 338.709565 285.217116 
L 341.149353 307.255351 
L 342.775879 318.427874 
L 343.589142 321.68911 
L 344.402405 257.316714 
L 346.028931 274.231423 
L 347.655456 291.201489 
L 349.281982 304.184075 
L 350.095245 311.386132 
L 350.908508 316.378581 
L 351.721771 319.586158 
L 352.535034 257.092453 
L 353.348297 267.024157 
L 354.974822 281.381544 
L 355.788085 286.597936 
L 356.601348 295.242572 
L 357.414611 300.89554 
L 358.227874 307.614415 
L 359.041137 312.919522 
L 359.8544 316.806458 
L 360.667663 257.093037 
L 362.294188 273.312357 
L 363.920714 286.481245 
L 364.733977 293.484643 
L 365.54724 298.884246 
L 366.360503 302.816686 
L 367.173766 309.330129 
L 367.987029 312.769591 
L 368.800291 257.711391 
L 370.426817 270.918664 
L 373.679869 296.885813 
L 374.493132 299.911186 
L 375.306395 305.735259 
L 376.119657 309.847079 
L 376.93292 258.185052 
L 377.746183 263.648205 
L 380.999235 289.119684 
L 383.439024 304.023152 
L 384.252286 308.231126 
L 385.065549 259.636237 
L 385.878812 262.847898 
L 386.692075 270.31313 
L 387.505338 275.379736 
L 388.318601 281.242578 
L 390.75839 294.573993 
L 391.571652 301.037489 
L 392.384915 304.456029 
L 393.198178 257.757148 
L 394.011441 262.37095 
L 394.824704 269.611072 
L 395.637967 275.458308 
L 396.45123 278.681915 
L 398.077756 288.731066 
L 398.891018 292.961792 
L 399.704281 295.990652 
L 400.517544 300.779829 
L 401.330807 258.498187 
L 403.770596 273.135271 
L 404.583859 278.191151 
L 405.397122 281.379304 
L 407.023647 291.600395 
L 407.83691 292.350477 
L 408.650173 297.732181 
L 409.463436 257.484572 
L 411.903225 272.380231 
L 412.716488 275.329193 
L 413.52975 280.467516 
L 414.343013 284.704964 
L 415.156276 287.663328 
L 415.969539 292.877969 
L 416.782802 294.544134 
L 417.596065 258.6146 
L 418.409328 261.457598 
L 419.222591 266.105435 
L 420.035854 269.500745 
L 421.662379 278.281961 
L 422.475642 282.219639 
L 423.288905 285.485767 
L 424.102168 289.489514 
L 424.915431 292.413523 
L 425.728694 257.058736 
L 426.541957 261.888498 
L 427.35522 265.351826 
L 428.168482 269.43095 
L 428.981745 272.213222 
L 429.795008 275.510615 
L 431.421534 283.443938 
L 433.04806 289.676266 
L 433.861323 255.55177 
L 434.674586 261.326931 
L 435.487848 264.935245 
L 436.301111 267.514762 
L 437.114374 272.009578 
L 438.7409 278.70195 
L 439.554163 282.280537 
L 440.367426 284.715956 
L 441.180689 288.672952 
L 441.993952 257.013629 
L 442.807214 261.034467 
L 443.620477 262.871207 
L 444.43374 267.916891 
L 445.247003 269.790027 
L 446.060266 273.595925 
L 446.873529 276.195184 
L 447.686792 278.255456 
L 448.500055 283.32478 
L 449.313318 284.969068 
L 450.12658 257.581826 
L 450.939843 260.429729 
L 451.753106 265.296338 
L 452.566369 267.80724 
L 453.379632 269.095633 
L 454.192895 273.822877 
L 455.006158 274.187908 
L 457.445946 283.926071 
L 458.259209 257.600043 
L 459.072472 259.920893 
L 459.885735 264.423731 
L 460.698998 265.197015 
L 461.512261 268.888264 
L 462.325524 271.762022 
L 463.138787 273.431554 
L 465.578575 281.417874 
L 466.391838 258.191814 
L 467.205101 259.312296 
L 468.831627 266.242134 
L 469.64489 268.570779 
L 470.458153 270.207709 
L 471.271416 273.542306 
L 472.084678 274.548457 
L 472.897941 276.862305 
L 473.711204 278.180517 
L 474.524467 257.33179 
L 475.33773 260.105854 
L 476.150993 261.197472 
L 476.964256 264.643841 
L 477.777519 266.324432 
L 478.590782 268.444701 
L 479.404044 271.776036 
L 480.217307 273.42767 
L 481.03057 274.175219 
L 481.843833 277.251639 
L 482.657096 258.249649 
L 483.470359 258.845 
L 484.283622 261.918357 
L 485.096885 263.99035 
L 485.910148 266.835509 
L 486.72341 268.026529 
L 487.536673 269.815126 
L 488.349936 270.93712 
L 489.163199 274.666859 
L 489.976462 275.893969 
L 490.789725 257.93361 
L 492.416251 261.896029 
L 493.229514 262.699492 
L 494.856039 268.256557 
L 495.669302 270.803881 
L 496.482565 271.155613 
L 498.109091 273.842156 
L 498.109091 273.842156 
" clip-path="url(#p7ed9e87b91)" style="fill: none; stroke: #ff0000; stroke-width: 1.5; stroke-linecap: square"/>
   </g>
   <g id="patch_8">
    <path d="M 72 384.48 
L 72 51.84 
" style="fill: none; stroke: #000000; stroke-width: 0.8; stroke-linejoin: miter; stroke-linecap: square"/>
   </g>
   <g id="patch_9">
    <path d="M 518.4 384.48 
L 518.4 51.84 
" style="fill: none; stroke: #000000; stroke-width: 0.8; stroke-linejoin: miter; stroke-linecap: square"/>
   </g>
   <g id="patch_10">
    <path d="M 72 384.48 
L 518.4 384.48 
" style="fill: none; stroke: #000000; stroke-width: 0.8; stroke-linejoin: miter; stroke-linecap: square"/>
   </g>
   <g id="patch_11">
    <path d="M 72 51.84 
L 518.4 51.84 
" style="fill: none; stroke: #000000; stroke-width: 0.8; stroke-linejoin: miter; stroke-linecap: square"/>
   </g>
   <g id="text_26">
    <!-- The learning curve on _0.00025_non_iid_agg/host/5 -->
    <g transform="translate(136.761562 45.84) scale(0.12 -0.12)">
     <defs>
      <path id="DejaVuSans-54" d="M -19 4666 
L 3928 4666 
L 3928 4134 
L 2272 4134 
L 2272 0 
L 1638 0 
L 1638 4134 
L -19 4134 
L -19 4666 
z
" transform="scale(0.015625)"/>
      <path id="DejaVuSans-20" transform="scale(0.015625)"/>
      <path id="DejaVuSans-67" d="M 2906 1791 
Q 2906 2416 2648 2759 
Q 2391 3103 1925 3103 
Q 1463 3103 1205 2759 
Q 947 2416 947 1791 
Q 947 1169 1205 825 
Q 1463 481 1925 481 
Q 2391 481 2648 825 
Q 2906 1169 2906 1791 
z
M 3481 434 
Q 3481 -459 3084 -895 
Q 2688 -1331 1869 -1331 
Q 1566 -1331 1297 -1286 
Q 1028 -1241 775 -1147 
L 775 -588 
Q 1028 -725 1275 -790 
Q 1522 -856 1778 -856 
Q 2344 -856 2625 -561 
Q 2906 -266 2906 331 
L 2906 616 
Q 2728 306 2450 153 
Q 2172 0 1784 0 
Q 1141 0 747 490 
Q 353 981 353 1791 
Q 353 2603 747 3093 
Q 1141 3584 1784 3584 
Q 2172 3584 2450 3431 
Q 2728 3278 2906 2969 
L 2906 3500 
L 3481 3500 
L 3481 434 
z
" transform="scale(0.015625)"/>
      <path id="DejaVuSans-75" d="M 544 1381 
L 544 3500 
L 1119 3500 
L 1119 1403 
Q 1119 906 1312 657 
Q 1506 409 1894 409 
Q 2359 409 2629 706 
Q 2900 1003 2900 1516 
L 2900 3500 
L 3475 3500 
L 3475 0 
L 2900 0 
L 2900 538 
Q 2691 219 2414 64 
Q 2138 -91 1772 -91 
Q 1169 -91 856 284 
Q 544 659 544 1381 
z
M 1991 3584 
L 1991 3584 
z
" transform="scale(0.015625)"/>
      <path id="DejaVuSans-76" d="M 191 3500 
L 800 3500 
L 1894 563 
L 2988 3500 
L 3597 3500 
L 2284 0 
L 1503 0 
L 191 3500 
z
" transform="scale(0.015625)"/>
      <path id="DejaVuSans-3bb" d="M 1981 4316 
L 3597 0 
L 2988 0 
L 2006 2588 
L 800 0 
L 191 0 
L 1725 3356 
L 1494 3975 
Q 1347 4369 1013 4369 
L 713 4369 
L 713 4863 
L 1078 4856 
Q 1784 4847 1981 4316 
z
" transform="scale(0.015625)"/>
      <path id="DejaVuSans-5f" d="M 3263 -1063 
L 3263 -1509 
L -63 -1509 
L -63 -1063 
L 3263 -1063 
z
" transform="scale(0.015625)"/>
      <path id="DejaVuSans-64" d="M 2906 2969 
L 2906 4863 
L 3481 4863 
L 3481 0 
L 2906 0 
L 2906 525 
Q 2725 213 2448 61 
Q 2172 -91 1784 -91 
Q 1150 -91 751 415 
Q 353 922 353 1747 
Q 353 2572 751 3078 
Q 1150 3584 1784 3584 
Q 2172 3584 2448 3432 
Q 2725 3281 2906 2969 
z
M 947 1747 
Q 947 1113 1208 752 
Q 1469 391 1925 391 
Q 2381 391 2643 752 
Q 2906 1113 2906 1747 
Q 2906 2381 2643 2742 
Q 2381 3103 1925 3103 
Q 1469 3103 1208 2742 
Q 947 2381 947 1747 
z
" transform="scale(0.015625)"/>
      <path id="DejaVuSans-2f" d="M 1625 4666 
L 2156 4666 
L 531 -594 
L 0 -594 
L 1625 4666 
z
" transform="scale(0.015625)"/>
     </defs>
     <use xlink:href="#DejaVuSans-54"/>
     <use xlink:href="#DejaVuSans-68" x="61.083984"/>
     <use xlink:href="#DejaVuSans-65" x="124.462891"/>
     <use xlink:href="#DejaVuSans-20" x="185.986328"/>
     <use xlink:href="#DejaVuSans-6c" x="217.773438"/>
     <use xlink:href="#DejaVuSans-65" x="245.556641"/>
     <use xlink:href="#DejaVuSans-61" x="307.080078"/>
     <use xlink:href="#DejaVuSans-72" x="368.359375"/>
     <use xlink:href="#DejaVuSans-6e" x="407.722656"/>
     <use xlink:href="#DejaVuSans-69" x="471.101562"/>
     <use xlink:href="#DejaVuSans-6e" x="498.884766"/>
     <use xlink:href="#DejaVuSans-67" x="562.263672"/>
     <use xlink:href="#DejaVuSans-20" x="625.740234"/>
     <use xlink:href="#DejaVuSans-63" x="657.527344"/>
     <use xlink:href="#DejaVuSans-75" x="712.507812"/>
     <use xlink:href="#DejaVuSans-72" x="775.886719"/>
     <use xlink:href="#DejaVuSans-76" x="817"/>
     <use xlink:href="#DejaVuSans-65" x="876.179688"/>
     <use xlink:href="#DejaVuSans-20" x="937.703125"/>
     <use xlink:href="#DejaVuSans-6f" x="969.490234"/>
     <use xlink:href="#DejaVuSans-6e" x="1030.671875"/>
     <use xlink:href="#DejaVuSans-20" x="1094.050781"/>
     <use xlink:href="#DejaVuSans-3bb" x="1125.837891"/>
     <use xlink:href="#DejaVuSans-5f" x="1185.017578"/>
     <use xlink:href="#DejaVuSans-30" x="1235.017578"/>
     <use xlink:href="#DejaVuSans-2e" x="1298.640625"/>
     <use xlink:href="#DejaVuSans-30" x="1330.427734"/>
     <use xlink:href="#DejaVuSans-30" x="1394.050781"/>
     <use xlink:href="#DejaVuSans-30" x="1457.673828"/>
     <use xlink:href="#DejaVuSans-32" x="1521.296875"/>
     <use xlink:href="#DejaVuSans-35" x="1584.919922"/>
     <use xlink:href="#DejaVuSans-5f" x="1648.542969"/>
     <use xlink:href="#DejaVuSans-6e" x="1698.542969"/>
     <use xlink:href="#DejaVuSans-6f" x="1761.921875"/>
     <use xlink:href="#DejaVuSans-6e" x="1823.103516"/>
     <use xlink:href="#DejaVuSans-5f" x="1886.482422"/>
     <use xlink:href="#DejaVuSans-69" x="1936.482422"/>
     <use xlink:href="#DejaVuSans-69" x="1964.265625"/>
     <use xlink:href="#DejaVuSans-64" x="1992.048828"/>
     <use xlink:href="#DejaVuSans-5f" x="2055.525391"/>
     <use xlink:href="#DejaVuSans-61" x="2105.525391"/>
     <use xlink:href="#DejaVuSans-67" x="2166.804688"/>
     <use xlink:href="#DejaVuSans-67" x="2230.28125"/>
     <use xlink:href="#DejaVuSans-2f" x="2293.757812"/>
     <use xlink:href="#DejaVuSans-68" x="2327.449219"/>
     <use xlink:href="#DejaVuSans-6f" x="2390.828125"/>
     <use xlink:href="#DejaVuSans-73" x="2452.009766"/>
     <use xlink:href="#DejaVuSans-74" x="2504.109375"/>
     <use xlink:href="#DejaVuSans-2f" x="2543.318359"/>
     <use xlink:href="#DejaVuSans-35" x="2577.009766"/>
    </g>
   </g>
   <g id="legend_2">
    <g id="patch_12">
     <path d="M 460.084375 74.518125 
L 511.4 74.518125 
Q 513.4 74.518125 513.4 72.518125 
L 513.4 58.84 
Q 513.4 56.84 511.4 56.84 
L 460.084375 56.84 
Q 458.084375 56.84 458.084375 58.84 
L 458.084375 72.518125 
Q 458.084375 74.518125 460.084375 74.518125 
z
" style="fill: #ffffff; opacity: 0.8; stroke: #cccccc; stroke-linejoin: miter"/>
    </g>
    <g id="line2d_26">
     <path d="M 462.084375 64.938438 
L 472.084375 64.938438 
L 482.084375 64.938438 
" style="fill: none; stroke: #ff0000; stroke-width: 1.5; stroke-linecap: square"/>
    </g>
    <g id="text_27">
     <!-- loss -->
     <g transform="translate(490.084375 68.438438) scale(0.1 -0.1)">
      <use xlink:href="#DejaVuSans-6c"/>
      <use xlink:href="#DejaVuSans-6f" x="27.783203"/>
      <use xlink:href="#DejaVuSans-73" x="88.964844"/>
      <use xlink:href="#DejaVuSans-73" x="141.064453"/>
     </g>
    </g>
   </g>
  </g>
 </g>
 <defs>
  <clipPath id="p7ed9e87b91">
   <rect x="72" y="51.84" width="446.4" height="332.64"/>
  </clipPath>
 </defs>
</svg>
