<?xml version="1.0" encoding="utf-8" standalone="no"?>
<!DOCTYPE svg PUBLIC "-//W3C//DTD SVG 1.1//EN"
  "http://www.w3.org/Graphics/SVG/1.1/DTD/svg11.dtd">
<svg xmlns:xlink="http://www.w3.org/1999/xlink" width="460.8pt" height="345.6pt" viewBox="0 0 460.8 345.6" xmlns="http://www.w3.org/2000/svg" version="1.1">
 <metadata>
  <rdf:RDF xmlns:dc="http://purl.org/dc/elements/1.1/" xmlns:cc="http://creativecommons.org/ns#" xmlns:rdf="http://www.w3.org/1999/02/22-rdf-syntax-ns#">
   <cc:Work>
    <dc:type rdf:resource="http://purl.org/dc/dcmitype/StillImage"/>
    <dc:date>2023-04-13T09:23:01.504026</dc:date>
    <dc:format>image/svg+xml</dc:format>
    <dc:creator>
     <cc:Agent>
      <dc:title>Matplotlib v3.7.1, https://matplotlib.org/</dc:title>
     </cc:Agent>
    </dc:creator>
   </cc:Work>
  </rdf:RDF>
 </metadata>
 <defs>
  <style type="text/css">*{stroke-linejoin: round; stroke-linecap: butt}</style>
 </defs>
 <g id="figure_1">
  <g id="patch_1">
   <path d="M 0 345.6 
L 460.8 345.6 
L 460.8 0 
L 0 0 
z
" style="fill: #ffffff"/>
  </g>
  <g id="axes_1">
   <g id="patch_2">
    <path d="M 57.6 307.584 
L 414.72 307.584 
L 414.72 41.472 
L 57.6 41.472 
z
" style="fill: #ffffff"/>
   </g>
   <g id="matplotlib.axis_1">
    <g id="xtick_1">
     <g id="line2d_1">
      <defs>
       <path id="m30dbca9c8c" d="M 0 0 
L 0 3.5 
" style="stroke: #000000; stroke-width: 0.8"/>
      </defs>
      <g>
       <use xlink:href="#m30dbca9c8c" x="73.832727" y="307.584" style="stroke: #000000; stroke-width: 0.8"/>
      </g>
     </g>
     <g id="text_1">
      <!-- 0 -->
      <g transform="translate(70.651477 322.182437) scale(0.1 -0.1)">
       <defs>
        <path id="DejaVuSans-30" d="M 2034 4250 
Q 1547 4250 1301 3770 
Q 1056 3291 1056 2328 
Q 1056 1369 1301 889 
Q 1547 409 2034 409 
Q 2525 409 2770 889 
Q 3016 1369 3016 2328 
Q 3016 3291 2770 3770 
Q 2525 4250 2034 4250 
z
M 2034 4750 
Q 2819 4750 3233 4129 
Q 3647 3509 3647 2328 
Q 3647 1150 3233 529 
Q 2819 -91 2034 -91 
Q 1250 -91 836 529 
Q 422 1150 422 2328 
Q 422 3509 836 4129 
Q 1250 4750 2034 4750 
z
" transform="scale(0.015625)"/>
       </defs>
       <use xlink:href="#DejaVuSans-30"/>
      </g>
     </g>
    </g>
    <g id="xtick_2">
     <g id="line2d_2">
      <g>
       <use xlink:href="#m30dbca9c8c" x="138.893758" y="307.584" style="stroke: #000000; stroke-width: 0.8"/>
      </g>
     </g>
     <g id="text_2">
      <!-- 100 -->
      <g transform="translate(129.350008 322.182437) scale(0.1 -0.1)">
       <defs>
        <path id="DejaVuSans-31" d="M 794 531 
L 1825 531 
L 1825 4091 
L 703 3866 
L 703 4441 
L 1819 4666 
L 2450 4666 
L 2450 531 
L 3481 531 
L 3481 0 
L 794 0 
L 794 531 
z
" transform="scale(0.015625)"/>
       </defs>
       <use xlink:href="#DejaVuSans-31"/>
       <use xlink:href="#DejaVuSans-30" x="63.623047"/>
       <use xlink:href="#DejaVuSans-30" x="127.246094"/>
      </g>
     </g>
    </g>
    <g id="xtick_3">
     <g id="line2d_3">
      <g>
       <use xlink:href="#m30dbca9c8c" x="203.95479" y="307.584" style="stroke: #000000; stroke-width: 0.8"/>
      </g>
     </g>
     <g id="text_3">
      <!-- 200 -->
      <g transform="translate(194.41104 322.182437) scale(0.1 -0.1)">
       <defs>
        <path id="DejaVuSans-32" d="M 1228 531 
L 3431 531 
L 3431 0 
L 469 0 
L 469 531 
Q 828 903 1448 1529 
Q 2069 2156 2228 2338 
Q 2531 2678 2651 2914 
Q 2772 3150 2772 3378 
Q 2772 3750 2511 3984 
Q 2250 4219 1831 4219 
Q 1534 4219 1204 4116 
Q 875 4013 500 3803 
L 500 4441 
Q 881 4594 1212 4672 
Q 1544 4750 1819 4750 
Q 2544 4750 2975 4387 
Q 3406 4025 3406 3419 
Q 3406 3131 3298 2873 
Q 3191 2616 2906 2266 
Q 2828 2175 2409 1742 
Q 1991 1309 1228 531 
z
" transform="scale(0.015625)"/>
       </defs>
       <use xlink:href="#DejaVuSans-32"/>
       <use xlink:href="#DejaVuSans-30" x="63.623047"/>
       <use xlink:href="#DejaVuSans-30" x="127.246094"/>
      </g>
     </g>
    </g>
    <g id="xtick_4">
     <g id="line2d_4">
      <g>
       <use xlink:href="#m30dbca9c8c" x="269.015821" y="307.584" style="stroke: #000000; stroke-width: 0.8"/>
      </g>
     </g>
     <g id="text_4">
      <!-- 300 -->
      <g transform="translate(259.472071 322.182437) scale(0.1 -0.1)">
       <defs>
        <path id="DejaVuSans-33" d="M 2597 2516 
Q 3050 2419 3304 2112 
Q 3559 1806 3559 1356 
Q 3559 666 3084 287 
Q 2609 -91 1734 -91 
Q 1441 -91 1130 -33 
Q 819 25 488 141 
L 488 750 
Q 750 597 1062 519 
Q 1375 441 1716 441 
Q 2309 441 2620 675 
Q 2931 909 2931 1356 
Q 2931 1769 2642 2001 
Q 2353 2234 1838 2234 
L 1294 2234 
L 1294 2753 
L 1863 2753 
Q 2328 2753 2575 2939 
Q 2822 3125 2822 3475 
Q 2822 3834 2567 4026 
Q 2313 4219 1838 4219 
Q 1578 4219 1281 4162 
Q 984 4106 628 3988 
L 628 4550 
Q 988 4650 1302 4700 
Q 1616 4750 1894 4750 
Q 2613 4750 3031 4423 
Q 3450 4097 3450 3541 
Q 3450 3153 3228 2886 
Q 3006 2619 2597 2516 
z
" transform="scale(0.015625)"/>
       </defs>
       <use xlink:href="#DejaVuSans-33"/>
       <use xlink:href="#DejaVuSans-30" x="63.623047"/>
       <use xlink:href="#DejaVuSans-30" x="127.246094"/>
      </g>
     </g>
    </g>
    <g id="xtick_5">
     <g id="line2d_5">
      <g>
       <use xlink:href="#m30dbca9c8c" x="334.076852" y="307.584" style="stroke: #000000; stroke-width: 0.8"/>
      </g>
     </g>
     <g id="text_5">
      <!-- 400 -->
      <g transform="translate(324.533102 322.182437) scale(0.1 -0.1)">
       <defs>
        <path id="DejaVuSans-34" d="M 2419 4116 
L 825 1625 
L 2419 1625 
L 2419 4116 
z
M 2253 4666 
L 3047 4666 
L 3047 1625 
L 3713 1625 
L 3713 1100 
L 3047 1100 
L 3047 0 
L 2419 0 
L 2419 1100 
L 313 1100 
L 313 1709 
L 2253 4666 
z
" transform="scale(0.015625)"/>
       </defs>
       <use xlink:href="#DejaVuSans-34"/>
       <use xlink:href="#DejaVuSans-30" x="63.623047"/>
       <use xlink:href="#DejaVuSans-30" x="127.246094"/>
      </g>
     </g>
    </g>
    <g id="xtick_6">
     <g id="line2d_6">
      <g>
       <use xlink:href="#m30dbca9c8c" x="399.137883" y="307.584" style="stroke: #000000; stroke-width: 0.8"/>
      </g>
     </g>
     <g id="text_6">
      <!-- 500 -->
      <g transform="translate(389.594133 322.182437) scale(0.1 -0.1)">
       <defs>
        <path id="DejaVuSans-35" d="M 691 4666 
L 3169 4666 
L 3169 4134 
L 1269 4134 
L 1269 2991 
Q 1406 3038 1543 3061 
Q 1681 3084 1819 3084 
Q 2600 3084 3056 2656 
Q 3513 2228 3513 1497 
Q 3513 744 3044 326 
Q 2575 -91 1722 -91 
Q 1428 -91 1123 -41 
Q 819 9 494 109 
L 494 744 
Q 775 591 1075 516 
Q 1375 441 1709 441 
Q 2250 441 2565 725 
Q 2881 1009 2881 1497 
Q 2881 1984 2565 2268 
Q 2250 2553 1709 2553 
Q 1456 2553 1204 2497 
Q 953 2441 691 2322 
L 691 4666 
z
" transform="scale(0.015625)"/>
       </defs>
       <use xlink:href="#DejaVuSans-35"/>
       <use xlink:href="#DejaVuSans-30" x="63.623047"/>
       <use xlink:href="#DejaVuSans-30" x="127.246094"/>
      </g>
     </g>
    </g>
    <g id="text_7">
     <!-- epoch -->
     <g transform="translate(220.931875 335.860562) scale(0.1 -0.1)">
      <defs>
       <path id="DejaVuSans-65" d="M 3597 1894 
L 3597 1613 
L 953 1613 
Q 991 1019 1311 708 
Q 1631 397 2203 397 
Q 2534 397 2845 478 
Q 3156 559 3463 722 
L 3463 178 
Q 3153 47 2828 -22 
Q 2503 -91 2169 -91 
Q 1331 -91 842 396 
Q 353 884 353 1716 
Q 353 2575 817 3079 
Q 1281 3584 2069 3584 
Q 2775 3584 3186 3129 
Q 3597 2675 3597 1894 
z
M 3022 2063 
Q 3016 2534 2758 2815 
Q 2500 3097 2075 3097 
Q 1594 3097 1305 2825 
Q 1016 2553 972 2059 
L 3022 2063 
z
" transform="scale(0.015625)"/>
       <path id="DejaVuSans-70" d="M 1159 525 
L 1159 -1331 
L 581 -1331 
L 581 3500 
L 1159 3500 
L 1159 2969 
Q 1341 3281 1617 3432 
Q 1894 3584 2278 3584 
Q 2916 3584 3314 3078 
Q 3713 2572 3713 1747 
Q 3713 922 3314 415 
Q 2916 -91 2278 -91 
Q 1894 -91 1617 61 
Q 1341 213 1159 525 
z
M 3116 1747 
Q 3116 2381 2855 2742 
Q 2594 3103 2138 3103 
Q 1681 3103 1420 2742 
Q 1159 2381 1159 1747 
Q 1159 1113 1420 752 
Q 1681 391 2138 391 
Q 2594 391 2855 752 
Q 3116 1113 3116 1747 
z
" transform="scale(0.015625)"/>
       <path id="DejaVuSans-6f" d="M 1959 3097 
Q 1497 3097 1228 2736 
Q 959 2375 959 1747 
Q 959 1119 1226 758 
Q 1494 397 1959 397 
Q 2419 397 2687 759 
Q 2956 1122 2956 1747 
Q 2956 2369 2687 2733 
Q 2419 3097 1959 3097 
z
M 1959 3584 
Q 2709 3584 3137 3096 
Q 3566 2609 3566 1747 
Q 3566 888 3137 398 
Q 2709 -91 1959 -91 
Q 1206 -91 779 398 
Q 353 888 353 1747 
Q 353 2609 779 3096 
Q 1206 3584 1959 3584 
z
" transform="scale(0.015625)"/>
       <path id="DejaVuSans-63" d="M 3122 3366 
L 3122 2828 
Q 2878 2963 2633 3030 
Q 2388 3097 2138 3097 
Q 1578 3097 1268 2742 
Q 959 2388 959 1747 
Q 959 1106 1268 751 
Q 1578 397 2138 397 
Q 2388 397 2633 464 
Q 2878 531 3122 666 
L 3122 134 
Q 2881 22 2623 -34 
Q 2366 -91 2075 -91 
Q 1284 -91 818 406 
Q 353 903 353 1747 
Q 353 2603 823 3093 
Q 1294 3584 2113 3584 
Q 2378 3584 2631 3529 
Q 2884 3475 3122 3366 
z
" transform="scale(0.015625)"/>
       <path id="DejaVuSans-68" d="M 3513 2113 
L 3513 0 
L 2938 0 
L 2938 2094 
Q 2938 2591 2744 2837 
Q 2550 3084 2163 3084 
Q 1697 3084 1428 2787 
Q 1159 2491 1159 1978 
L 1159 0 
L 581 0 
L 581 4863 
L 1159 4863 
L 1159 2956 
Q 1366 3272 1645 3428 
Q 1925 3584 2291 3584 
Q 2894 3584 3203 3211 
Q 3513 2838 3513 2113 
z
" transform="scale(0.015625)"/>
      </defs>
      <use xlink:href="#DejaVuSans-65"/>
      <use xlink:href="#DejaVuSans-70" x="61.523438"/>
      <use xlink:href="#DejaVuSans-6f" x="125"/>
      <use xlink:href="#DejaVuSans-63" x="186.181641"/>
      <use xlink:href="#DejaVuSans-68" x="241.162109"/>
     </g>
    </g>
   </g>
   <g id="matplotlib.axis_2">
    <g id="ytick_1">
     <g id="line2d_7">
      <defs>
       <path id="m1463752c53" d="M 0 0 
L -3.5 0 
" style="stroke: #000000; stroke-width: 0.8"/>
      </defs>
      <g>
       <use xlink:href="#m1463752c53" x="57.6" y="270.097154" style="stroke: #000000; stroke-width: 0.8"/>
      </g>
     </g>
     <g id="text_8">
      <!-- 0.2 -->
      <g transform="translate(34.696875 273.896373) scale(0.1 -0.1)">
       <defs>
        <path id="DejaVuSans-2e" d="M 684 794 
L 1344 794 
L 1344 0 
L 684 0 
L 684 794 
z
" transform="scale(0.015625)"/>
       </defs>
       <use xlink:href="#DejaVuSans-30"/>
       <use xlink:href="#DejaVuSans-2e" x="63.623047"/>
       <use xlink:href="#DejaVuSans-32" x="95.410156"/>
      </g>
     </g>
    </g>
    <g id="ytick_2">
     <g id="line2d_8">
      <g>
       <use xlink:href="#m1463752c53" x="57.6" y="214.211934" style="stroke: #000000; stroke-width: 0.8"/>
      </g>
     </g>
     <g id="text_9">
      <!-- 0.4 -->
      <g transform="translate(34.696875 218.011153) scale(0.1 -0.1)">
       <use xlink:href="#DejaVuSans-30"/>
       <use xlink:href="#DejaVuSans-2e" x="63.623047"/>
       <use xlink:href="#DejaVuSans-34" x="95.410156"/>
      </g>
     </g>
    </g>
    <g id="ytick_3">
     <g id="line2d_9">
      <g>
       <use xlink:href="#m1463752c53" x="57.6" y="158.326713" style="stroke: #000000; stroke-width: 0.8"/>
      </g>
     </g>
     <g id="text_10">
      <!-- 0.6 -->
      <g transform="translate(34.696875 162.125932) scale(0.1 -0.1)">
       <defs>
        <path id="DejaVuSans-36" d="M 2113 2584 
Q 1688 2584 1439 2293 
Q 1191 2003 1191 1497 
Q 1191 994 1439 701 
Q 1688 409 2113 409 
Q 2538 409 2786 701 
Q 3034 994 3034 1497 
Q 3034 2003 2786 2293 
Q 2538 2584 2113 2584 
z
M 3366 4563 
L 3366 3988 
Q 3128 4100 2886 4159 
Q 2644 4219 2406 4219 
Q 1781 4219 1451 3797 
Q 1122 3375 1075 2522 
Q 1259 2794 1537 2939 
Q 1816 3084 2150 3084 
Q 2853 3084 3261 2657 
Q 3669 2231 3669 1497 
Q 3669 778 3244 343 
Q 2819 -91 2113 -91 
Q 1303 -91 875 529 
Q 447 1150 447 2328 
Q 447 3434 972 4092 
Q 1497 4750 2381 4750 
Q 2619 4750 2861 4703 
Q 3103 4656 3366 4563 
z
" transform="scale(0.015625)"/>
       </defs>
       <use xlink:href="#DejaVuSans-30"/>
       <use xlink:href="#DejaVuSans-2e" x="63.623047"/>
       <use xlink:href="#DejaVuSans-36" x="95.410156"/>
      </g>
     </g>
    </g>
    <g id="ytick_4">
     <g id="line2d_10">
      <g>
       <use xlink:href="#m1463752c53" x="57.6" y="102.441493" style="stroke: #000000; stroke-width: 0.8"/>
      </g>
     </g>
     <g id="text_11">
      <!-- 0.8 -->
      <g transform="translate(34.696875 106.240712) scale(0.1 -0.1)">
       <defs>
        <path id="DejaVuSans-38" d="M 2034 2216 
Q 1584 2216 1326 1975 
Q 1069 1734 1069 1313 
Q 1069 891 1326 650 
Q 1584 409 2034 409 
Q 2484 409 2743 651 
Q 3003 894 3003 1313 
Q 3003 1734 2745 1975 
Q 2488 2216 2034 2216 
z
M 1403 2484 
Q 997 2584 770 2862 
Q 544 3141 544 3541 
Q 544 4100 942 4425 
Q 1341 4750 2034 4750 
Q 2731 4750 3128 4425 
Q 3525 4100 3525 3541 
Q 3525 3141 3298 2862 
Q 3072 2584 2669 2484 
Q 3125 2378 3379 2068 
Q 3634 1759 3634 1313 
Q 3634 634 3220 271 
Q 2806 -91 2034 -91 
Q 1263 -91 848 271 
Q 434 634 434 1313 
Q 434 1759 690 2068 
Q 947 2378 1403 2484 
z
M 1172 3481 
Q 1172 3119 1398 2916 
Q 1625 2713 2034 2713 
Q 2441 2713 2670 2916 
Q 2900 3119 2900 3481 
Q 2900 3844 2670 4047 
Q 2441 4250 2034 4250 
Q 1625 4250 1398 4047 
Q 1172 3844 1172 3481 
z
" transform="scale(0.015625)"/>
       </defs>
       <use xlink:href="#DejaVuSans-30"/>
       <use xlink:href="#DejaVuSans-2e" x="63.623047"/>
       <use xlink:href="#DejaVuSans-38" x="95.410156"/>
      </g>
     </g>
    </g>
    <g id="ytick_5">
     <g id="line2d_11">
      <g>
       <use xlink:href="#m1463752c53" x="57.6" y="46.556272" style="stroke: #000000; stroke-width: 0.8"/>
      </g>
     </g>
     <g id="text_12">
      <!-- 1.0 -->
      <g transform="translate(34.696875 50.355491) scale(0.1 -0.1)">
       <use xlink:href="#DejaVuSans-31"/>
       <use xlink:href="#DejaVuSans-2e" x="63.623047"/>
       <use xlink:href="#DejaVuSans-30" x="95.410156"/>
      </g>
     </g>
    </g>
    <g id="text_13">
     <!-- loss value -->
     <g transform="translate(28.617187 199.432687) rotate(-90) scale(0.1 -0.1)">
      <defs>
       <path id="DejaVuSans-6c" d="M 603 4863 
L 1178 4863 
L 1178 0 
L 603 0 
L 603 4863 
z
" transform="scale(0.015625)"/>
       <path id="DejaVuSans-73" d="M 2834 3397 
L 2834 2853 
Q 2591 2978 2328 3040 
Q 2066 3103 1784 3103 
Q 1356 3103 1142 2972 
Q 928 2841 928 2578 
Q 928 2378 1081 2264 
Q 1234 2150 1697 2047 
L 1894 2003 
Q 2506 1872 2764 1633 
Q 3022 1394 3022 966 
Q 3022 478 2636 193 
Q 2250 -91 1575 -91 
Q 1294 -91 989 -36 
Q 684 19 347 128 
L 347 722 
Q 666 556 975 473 
Q 1284 391 1588 391 
Q 1994 391 2212 530 
Q 2431 669 2431 922 
Q 2431 1156 2273 1281 
Q 2116 1406 1581 1522 
L 1381 1569 
Q 847 1681 609 1914 
Q 372 2147 372 2553 
Q 372 3047 722 3315 
Q 1072 3584 1716 3584 
Q 2034 3584 2315 3537 
Q 2597 3491 2834 3397 
z
" transform="scale(0.015625)"/>
       <path id="DejaVuSans-20" transform="scale(0.015625)"/>
       <path id="DejaVuSans-76" d="M 191 3500 
L 800 3500 
L 1894 563 
L 2988 3500 
L 3597 3500 
L 2284 0 
L 1503 0 
L 191 3500 
z
" transform="scale(0.015625)"/>
       <path id="DejaVuSans-61" d="M 2194 1759 
Q 1497 1759 1228 1600 
Q 959 1441 959 1056 
Q 959 750 1161 570 
Q 1363 391 1709 391 
Q 2188 391 2477 730 
Q 2766 1069 2766 1631 
L 2766 1759 
L 2194 1759 
z
M 3341 1997 
L 3341 0 
L 2766 0 
L 2766 531 
Q 2569 213 2275 61 
Q 1981 -91 1556 -91 
Q 1019 -91 701 211 
Q 384 513 384 1019 
Q 384 1609 779 1909 
Q 1175 2209 1959 2209 
L 2766 2209 
L 2766 2266 
Q 2766 2663 2505 2880 
Q 2244 3097 1772 3097 
Q 1472 3097 1187 3025 
Q 903 2953 641 2809 
L 641 3341 
Q 956 3463 1253 3523 
Q 1550 3584 1831 3584 
Q 2591 3584 2966 3190 
Q 3341 2797 3341 1997 
z
" transform="scale(0.015625)"/>
       <path id="DejaVuSans-75" d="M 544 1381 
L 544 3500 
L 1119 3500 
L 1119 1403 
Q 1119 906 1312 657 
Q 1506 409 1894 409 
Q 2359 409 2629 706 
Q 2900 1003 2900 1516 
L 2900 3500 
L 3475 3500 
L 3475 0 
L 2900 0 
L 2900 538 
Q 2691 219 2414 64 
Q 2138 -91 1772 -91 
Q 1169 -91 856 284 
Q 544 659 544 1381 
z
M 1991 3584 
L 1991 3584 
z
" transform="scale(0.015625)"/>
      </defs>
      <use xlink:href="#DejaVuSans-6c"/>
      <use xlink:href="#DejaVuSans-6f" x="27.783203"/>
      <use xlink:href="#DejaVuSans-73" x="88.964844"/>
      <use xlink:href="#DejaVuSans-73" x="141.064453"/>
      <use xlink:href="#DejaVuSans-20" x="193.164062"/>
      <use xlink:href="#DejaVuSans-76" x="224.951172"/>
      <use xlink:href="#DejaVuSans-61" x="284.130859"/>
      <use xlink:href="#DejaVuSans-6c" x="345.410156"/>
      <use xlink:href="#DejaVuSans-75" x="373.193359"/>
      <use xlink:href="#DejaVuSans-65" x="436.572266"/>
     </g>
    </g>
   </g>
   <g id="line2d_12">
    <path d="M 73.832727 87.565759 
L 74.483338 133.647539 
L 75.133948 197.604306 
L 75.784558 245.841587 
L 76.435169 271.061463 
L 77.085779 279.784289 
L 77.736389 284.728229 
L 78.386999 284.498139 
L 79.68822 284.694352 
L 80.33883 230.468436 
L 80.989441 253.103425 
L 81.640051 269.808521 
L 82.290661 278.601611 
L 82.941272 282.076838 
L 84.242492 282.48323 
L 84.893103 282.131075 
L 85.543713 283.086707 
L 86.194323 283.579818 
L 86.844934 233.521964 
L 87.495544 255.823218 
L 88.146154 273.389054 
L 88.796764 281.393192 
L 89.447375 286.108661 
L 90.097985 286.665607 
L 90.748595 287.680386 
L 91.399206 289.155631 
L 92.049816 288.457991 
L 92.700426 288.770407 
L 93.351037 232.142198 
L 94.001647 255.714369 
L 94.652257 273.598042 
L 95.302868 283.056669 
L 95.953478 287.3124 
L 96.604088 289.141062 
L 97.254698 290.081392 
L 97.905309 289.772028 
L 98.555919 289.741466 
L 99.206529 290.401412 
L 99.85714 233.756801 
L 100.50775 258.360692 
L 101.15836 275.198192 
L 101.808971 284.819682 
L 102.459581 289.71949 
L 103.760802 290.881653 
L 104.411412 290.301148 
L 105.062022 291.656529 
L 105.712633 292.237804 
L 106.363243 235.159202 
L 107.013853 258.735877 
L 107.664463 276.215332 
L 108.315074 284.760519 
L 108.965684 289.937417 
L 109.616294 291.439578 
L 110.917515 292.644426 
L 111.568125 291.766609 
L 112.218736 292.58091 
L 112.869346 234.947049 
L 113.519956 259.428396 
L 114.170567 276.267345 
L 114.821177 285.779294 
L 115.471787 290.367568 
L 116.122398 292.388637 
L 116.773008 292.492958 
L 117.423618 292.858288 
L 118.074228 293.774699 
L 118.724839 295.125233 
L 119.375449 236.469866 
L 120.026059 259.092171 
L 120.67667 276.681616 
L 121.32728 287.073133 
L 121.97789 291.772854 
L 123.929721 293.732566 
L 124.580332 294.2166 
L 125.230942 295.470258 
L 125.881552 235.348212 
L 126.532163 259.000269 
L 127.182773 277.802295 
L 127.833383 287.111152 
L 128.483993 291.977679 
L 129.785214 294.104861 
L 130.435824 295.167487 
L 131.737045 294.418327 
L 132.387655 236.716087 
L 133.038266 260.859722 
L 133.688876 277.960785 
L 134.339486 287.323758 
L 134.990097 292.201155 
L 135.640707 293.596441 
L 136.291317 295.488 
L 136.941927 294.66666 
L 137.592538 294.769131 
L 138.243148 295.371598 
L 138.893758 236.210305 
L 139.544369 260.315105 
L 140.845589 275.136581 
L 141.4962 281.217547 
L 142.14681 285.128126 
L 142.79742 286.898075 
L 143.448031 289.912047 
L 144.098641 291.338456 
L 144.749251 291.699226 
L 145.399862 234.142275 
L 146.050472 248.557575 
L 147.351692 271.606151 
L 148.002303 278.209063 
L 148.652913 282.892309 
L 149.303523 286.759117 
L 149.954134 288.587697 
L 150.604744 289.695998 
L 151.255354 290.497128 
L 151.905965 235.196809 
L 153.207185 261.360612 
L 153.857796 270.903956 
L 154.508406 278.350056 
L 155.159016 283.126933 
L 155.809627 285.708589 
L 156.460237 288.904785 
L 157.110847 290.217664 
L 157.761457 291.128419 
L 158.412068 235.842494 
L 159.713288 260.028217 
L 160.363899 270.134082 
L 161.014509 277.08658 
L 161.665119 281.697085 
L 162.31573 285.490237 
L 162.96634 287.733674 
L 163.61695 289.381412 
L 164.267561 290.131378 
L 164.918171 235.24834 
L 166.219392 259.123933 
L 166.870002 268.513358 
L 168.171222 281.190678 
L 168.821833 285.040066 
L 170.123053 288.791176 
L 170.773664 290.287416 
L 171.424274 235.378574 
L 172.725495 258.071273 
L 174.026715 274.460488 
L 175.327936 283.061066 
L 175.978546 285.996689 
L 176.629156 288.12038 
L 177.279767 289.531591 
L 177.930377 235.225656 
L 179.231598 256.55 
L 179.882208 265.988679 
L 181.183429 277.618594 
L 182.484649 285.030539 
L 183.13526 286.420549 
L 183.78587 288.965068 
L 184.43648 235.371604 
L 185.087091 246.347736 
L 187.038921 271.75715 
L 187.689532 276.695589 
L 188.340142 280.700536 
L 189.641363 286.768336 
L 190.291973 288.094748 
L 190.942583 235.805286 
L 192.894414 263.369587 
L 194.195635 275.478519 
L 195.496856 283.44858 
L 196.147466 284.945232 
L 196.798076 286.13725 
L 197.448686 235.484692 
L 198.749907 253.612821 
L 199.400517 261.923908 
L 200.701738 273.686639 
L 202.002959 281.129075 
L 203.304179 285.297646 
L 203.95479 235.621764 
L 206.557231 267.470712 
L 207.858451 276.174202 
L 209.159672 282.942111 
L 209.810282 284.135441 
L 210.460893 235.666766 
L 212.412724 259.326754 
L 213.713944 270.893838 
L 214.364555 275.640539 
L 215.015165 278.023921 
L 215.665775 281.076241 
L 216.316385 283.347646 
L 216.966996 235.895274 
L 217.617606 244.874093 
L 219.569437 264.859231 
L 220.870658 273.775997 
L 222.171878 280.005694 
L 222.822489 282.356131 
L 223.473099 235.967723 
L 225.42493 257.199907 
L 226.07554 261.999918 
L 226.72615 268.407603 
L 227.376761 272.625376 
L 228.677981 278.660099 
L 229.328592 280.440604 
L 229.979202 234.801167 
L 230.629812 243.511848 
L 232.581643 261.958892 
L 233.232254 265.836672 
L 233.882864 270.657914 
L 234.533474 274.001191 
L 235.834695 278.904713 
L 236.485305 235.25277 
L 237.786526 249.157874 
L 239.087746 259.603849 
L 239.738357 264.865318 
L 241.039577 272.18651 
L 241.690188 275.260299 
L 242.340798 276.999104 
L 242.991408 235.238114 
L 243.642019 242.416909 
L 244.943239 252.973057 
L 245.59385 258.890245 
L 246.89507 267.586153 
L 248.196291 274.607266 
L 248.846901 275.339615 
L 249.497511 235.391157 
L 250.148122 241.862236 
L 252.750563 261.798241 
L 253.401173 266.235637 
L 254.051784 268.694154 
L 254.702394 271.777149 
L 255.353004 274.136659 
L 256.003615 234.498669 
L 256.654225 242.253214 
L 257.304835 247.758638 
L 258.606056 255.860684 
L 259.256666 260.707553 
L 259.907276 263.656208 
L 260.557887 267.225124 
L 261.859107 272.635527 
L 262.509718 235.593 
L 263.160328 241.267874 
L 264.461549 250.365227 
L 265.112159 255.305036 
L 265.762769 258.608849 
L 266.413379 262.868164 
L 267.06399 266.330392 
L 267.7146 268.377141 
L 268.36521 271.021607 
L 269.015821 235.790413 
L 270.317041 245.847483 
L 270.967652 248.820409 
L 271.618262 253.732546 
L 273.570093 264.391976 
L 274.220703 266.643541 
L 274.871314 270.037737 
L 275.521924 236.617613 
L 276.172534 239.832354 
L 277.473755 248.477172 
L 279.425586 259.691676 
L 280.076196 262.22945 
L 280.726806 265.407058 
L 281.377417 267.042401 
L 282.028027 236.462996 
L 282.678637 239.825334 
L 284.630468 252.258328 
L 285.281079 254.570039 
L 285.931689 258.50784 
L 286.582299 260.268229 
L 287.88352 266.217308 
L 288.53413 236.201194 
L 289.18474 239.683491 
L 289.835351 244.207614 
L 290.485961 246.402098 
L 291.136571 249.64905 
L 292.437792 257.267273 
L 293.739013 262.117894 
L 294.389623 263.69758 
L 295.040233 235.392448 
L 295.690844 239.828191 
L 296.341454 243.440722 
L 296.992064 246.417654 
L 297.642674 249.941688 
L 298.293285 251.994179 
L 298.943895 254.640248 
L 299.594505 257.758261 
L 300.245116 259.751039 
L 300.895726 262.746312 
L 301.546336 235.237073 
L 302.196947 239.723763 
L 302.847557 242.041911 
L 304.148778 247.752618 
L 304.799388 251.2794 
L 306.100608 256.804228 
L 306.751219 258.190294 
L 307.401829 260.298321 
L 308.052439 236.331695 
L 309.35366 242.055501 
L 310.00427 244.567123 
L 310.654881 247.901656 
L 311.305491 250.028686 
L 311.956101 253.070139 
L 312.606712 254.5305 
L 313.257322 257.553324 
L 313.907932 258.637617 
L 314.558543 235.825289 
L 315.209153 239.317121 
L 315.859763 241.241767 
L 316.510373 244.40267 
L 317.160984 246.107161 
L 317.811594 249.417619 
L 320.414035 257.766913 
L 321.064646 235.189864 
L 321.715256 238.671761 
L 323.016477 243.073419 
L 323.667087 246.206517 
L 324.317697 247.788892 
L 325.618918 252.303014 
L 326.269528 254.152745 
L 326.920138 255.343426 
L 327.570749 235.955182 
L 328.221359 238.763972 
L 328.871969 239.960207 
L 329.52258 243.10279 
L 330.17319 244.677771 
L 331.474411 249.272878 
L 332.125021 251.044006 
L 332.775631 253.412393 
L 333.426242 254.641656 
L 334.076852 236.109433 
L 334.727462 238.323661 
L 335.378073 241.192801 
L 336.028683 242.29446 
L 336.679293 244.038857 
L 337.329903 246.626758 
L 337.980514 247.534353 
L 339.281734 251.206401 
L 339.932345 251.906248 
L 340.582955 235.129264 
L 341.233565 237.690509 
L 343.836007 246.06853 
L 344.486617 246.344371 
L 345.787837 251.125474 
L 346.438448 252.084474 
L 347.089058 235.81418 
L 347.739668 238.08267 
L 348.390279 239.412588 
L 349.040889 241.540018 
L 349.691499 243.09194 
L 350.34211 244.999381 
L 352.944551 250.833227 
L 353.595161 236.320578 
L 354.245772 237.20971 
L 354.896382 239.887191 
L 355.546992 240.789823 
L 356.197602 242.835285 
L 356.848213 242.963371 
L 357.498823 245.7512 
L 358.149433 246.825962 
L 358.800044 248.978907 
L 359.450654 249.481425 
L 360.101264 236.708042 
L 360.751875 237.484178 
L 361.402485 239.08091 
L 362.053095 240.000696 
L 362.703706 242.015329 
L 363.354316 243.45333 
L 364.004926 244.221147 
L 364.655537 245.816197 
L 365.306147 248.01128 
L 365.956757 247.849076 
L 366.607367 235.745911 
L 367.257978 237.716416 
L 367.908588 238.972369 
L 368.559198 239.648516 
L 369.209809 241.111716 
L 369.860419 242.093925 
L 370.511029 243.974834 
L 371.16164 244.622001 
L 371.81225 246.726606 
L 372.46286 246.286586 
L 373.113471 235.634372 
L 373.764081 237.628777 
L 374.414691 238.334429 
L 375.715912 241.34233 
L 376.366522 242.15151 
L 377.017132 242.749119 
L 377.667743 244.524669 
L 378.968963 246.400724 
L 379.619574 236.13579 
L 380.270184 236.931803 
L 381.571405 239.805998 
L 382.222015 240.530594 
L 382.872625 241.627915 
L 383.523236 242.20563 
L 384.173846 243.593816 
L 385.475066 245.147686 
L 386.125677 235.783093 
L 386.776287 237.647789 
L 387.426897 238.056663 
L 388.077508 239.158714 
L 388.728118 239.48866 
L 389.378728 241.077589 
L 390.029339 241.526336 
L 390.679949 242.255762 
L 391.330559 245.036422 
L 391.98117 244.651597 
L 392.63178 235.910288 
L 393.28239 235.960628 
L 393.933001 237.536417 
L 394.583611 239.496913 
L 395.234221 239.339197 
L 395.884831 241.138855 
L 397.186052 242.018652 
L 398.487273 244.646218 
L 398.487273 244.646218 
" clip-path="url(#p623a1fced5)" style="fill: none; stroke: #0000ff; stroke-width: 1.5; stroke-linecap: square"/>
   </g>
   <g id="line2d_13">
    <path d="M 73.832727 291.984616 
L 79.68822 291.962593 
L 80.33883 293.7763 
L 118.724839 293.765666 
L 127.182773 293.773237 
L 214.364555 293.765143 
L 398.487273 293.761096 
L 398.487273 293.761096 
" clip-path="url(#p623a1fced5)" style="fill: none; stroke: #008000; stroke-width: 1.5; stroke-linecap: square"/>
   </g>
   <g id="line2d_14">
    <path d="M 73.832727 53.568 
L 74.483338 99.64908 
L 75.133948 163.604539 
L 75.784558 211.839789 
L 76.435169 237.057066 
L 77.085779 245.776915 
L 77.736389 250.717699 
L 78.386999 250.484436 
L 79.68822 250.674571 
L 80.33883 198.262357 
L 80.989441 220.89538 
L 81.640051 237.598274 
L 82.290661 246.388965 
L 82.941272 249.861669 
L 84.242492 250.263007 
L 84.893103 249.908478 
L 85.543713 250.861907 
L 86.194323 251.352983 
L 86.844934 201.308807 
L 87.495544 223.609694 
L 88.146154 241.174897 
L 88.796764 249.178102 
L 89.447375 253.89241 
L 90.097985 254.448049 
L 90.748595 255.461461 
L 91.399206 256.935345 
L 92.049816 256.236377 
L 92.700426 256.547544 
L 93.351037 199.931414 
L 94.001647 223.503651 
L 94.652257 241.387041 
L 95.302868 250.845027 
L 95.953478 255.099812 
L 96.604088 256.927326 
L 97.254698 257.866398 
L 97.905309 257.555731 
L 98.555919 257.523882 
L 99.206529 258.182595 
L 99.85714 201.548373 
L 100.50775 226.15231 
L 101.15836 242.989494 
L 101.808971 252.610284 
L 102.459581 257.509088 
L 103.760802 258.668724 
L 104.411412 258.086866 
L 105.062022 259.440912 
L 105.712633 260.020909 
L 106.363243 202.951898 
L 107.013853 226.528566 
L 107.664463 244.007645 
L 108.315074 252.552066 
L 108.965684 257.727903 
L 109.616294 259.228793 
L 110.917515 260.430841 
L 111.568125 259.551619 
L 112.218736 260.364571 
L 112.869346 202.739837 
L 113.519956 227.221143 
L 114.170567 244.059684 
L 114.821177 253.570825 
L 115.471787 258.157971 
L 116.122398 260.177709 
L 116.773008 260.280587 
L 117.423618 260.644443 
L 118.074228 261.559399 
L 118.724839 262.908524 
L 119.375449 204.262188 
L 120.026059 226.88441 
L 120.67667 244.473388 
L 121.32728 254.864043 
L 121.97789 259.562595 
L 123.929721 261.517923 
L 124.580332 262.000459 
L 125.230942 263.25268 
L 125.881552 203.139668 
L 126.532163 226.791616 
L 127.182773 245.59316 
L 127.833383 254.901125 
L 128.483993 259.766453 
L 129.785214 261.890702 
L 130.435824 262.951781 
L 131.737045 262.199637 
L 132.387655 204.506401 
L 133.038266 228.649908 
L 133.688876 245.750467 
L 134.339486 255.112537 
L 134.990097 259.988699 
L 135.640707 261.382555 
L 136.291317 263.272583 
L 136.941927 262.449684 
L 137.592538 262.550622 
L 138.243148 263.151622 
L 138.893758 203.999329 
L 139.544369 228.103996 
L 140.845589 242.925114 
L 141.4962 249.005797 
L 142.14681 252.916021 
L 142.79742 254.685583 
L 143.448031 257.699131 
L 144.098641 259.125107 
L 144.749251 259.485432 
L 145.399862 201.930733 
L 146.050472 216.346008 
L 147.351692 239.394259 
L 148.002303 245.996871 
L 148.652913 250.679734 
L 149.303523 254.54608 
L 149.954134 256.374168 
L 150.604744 257.481982 
L 151.255354 258.282617 
L 151.905965 202.984767 
L 153.207185 229.148412 
L 153.857796 238.691539 
L 154.508406 246.137332 
L 155.159016 250.913821 
L 155.809627 253.495036 
L 156.460237 256.690765 
L 157.110847 258.003149 
L 157.761457 258.913412 
L 158.412068 203.629877 
L 159.713288 227.815438 
L 160.363899 237.921099 
L 161.014509 244.87331 
L 161.665119 249.483465 
L 162.31573 253.276213 
L 162.96634 255.519204 
L 163.61695 257.166505 
L 164.267561 257.91603 
L 164.918171 203.035165 
L 166.219392 226.9106 
L 166.870002 236.299851 
L 168.171222 248.976592 
L 168.821833 252.825626 
L 170.123053 256.575937 
L 170.773664 258.071756 
L 171.424274 203.16485 
L 172.725495 225.857415 
L 174.026715 242.246227 
L 175.327936 250.846193 
L 175.978546 253.781445 
L 176.629156 255.90477 
L 177.279767 257.315606 
L 177.930377 203.011398 
L 179.231598 224.335606 
L 179.882208 233.774131 
L 181.183429 245.403583 
L 182.484649 252.814917 
L 183.13526 254.204576 
L 183.78587 256.748754 
L 184.43648 203.156822 
L 185.087091 214.132912 
L 187.038921 239.541923 
L 187.689532 244.480133 
L 188.340142 248.484817 
L 189.641363 254.552018 
L 190.291973 255.878113 
L 190.942583 203.590013 
L 192.894414 231.154068 
L 194.195635 243.262621 
L 195.496856 251.232183 
L 196.147466 252.728552 
L 196.798076 253.920282 
L 197.448686 203.268945 
L 198.749907 221.396973 
L 199.400517 229.70794 
L 200.701738 241.470341 
L 202.002959 248.912328 
L 203.304179 253.080391 
L 203.95479 203.405583 
L 206.557231 235.254202 
L 207.858451 243.95733 
L 209.159672 250.724802 
L 209.810282 251.91789 
L 210.460893 203.450152 
L 212.412724 227.109962 
L 213.713944 238.676782 
L 214.364555 243.423309 
L 215.015165 245.806495 
L 215.665775 248.858616 
L 216.316385 251.129813 
L 216.966996 203.67826 
L 217.617606 212.657046 
L 219.569437 232.641943 
L 220.870658 241.558422 
L 222.171878 247.78776 
L 222.822489 250.13801 
L 223.473099 203.750327 
L 225.42493 224.982357 
L 226.07554 229.78228 
L 226.72615 236.189844 
L 227.376761 240.407488 
L 228.677981 246.441895 
L 229.328592 248.222233 
L 229.979202 202.583421 
L 230.629812 211.294076 
L 232.581643 229.740933 
L 233.232254 233.618606 
L 233.882864 238.439722 
L 234.533474 241.782874 
L 235.834695 246.686092 
L 236.485305 203.034699 
L 237.786526 216.939745 
L 239.087746 227.385587 
L 239.738357 232.646964 
L 241.039577 239.967927 
L 241.690188 243.041591 
L 242.340798 244.780258 
L 242.991408 203.019734 
L 243.642019 210.198513 
L 244.943239 220.754578 
L 245.59385 226.671691 
L 246.89507 235.367432 
L 248.196291 242.38832 
L 248.846901 243.120561 
L 249.497511 203.172495 
L 250.148122 209.643557 
L 252.750563 229.579362 
L 253.401173 234.016671 
L 254.051784 236.475087 
L 254.702394 239.557995 
L 255.353004 241.917397 
L 256.003615 202.279749 
L 256.654225 210.034277 
L 257.304835 215.539668 
L 258.606056 223.641622 
L 259.256666 228.488437 
L 259.907276 231.437013 
L 260.557887 235.00585 
L 261.859107 240.416074 
L 262.509718 203.373838 
L 263.160328 209.048695 
L 264.461549 218.14599 
L 265.112159 223.085758 
L 265.762769 226.389512 
L 266.413379 230.648769 
L 267.06399 234.110922 
L 267.7146 236.157591 
L 268.36521 238.801979 
L 269.015821 203.571035 
L 270.317041 213.628063 
L 270.967652 216.600964 
L 271.618262 221.513059 
L 273.570093 232.172327 
L 274.220703 234.423821 
L 274.871314 237.817946 
L 275.521924 204.398027 
L 276.172534 207.612759 
L 277.473755 216.257536 
L 279.425586 227.47191 
L 280.076196 230.00963 
L 280.726806 233.187189 
L 281.377417 234.822469 
L 282.028027 204.243234 
L 282.678637 207.605556 
L 284.630468 220.038484 
L 285.281079 222.350161 
L 285.931689 226.287916 
L 286.582299 228.04826 
L 287.88352 233.997234 
L 288.53413 203.981258 
L 289.18474 207.463546 
L 289.835351 211.987653 
L 290.485961 214.18212 
L 291.136571 217.429047 
L 292.437792 225.047203 
L 293.739013 229.897741 
L 294.389623 231.477385 
L 295.040233 203.172362 
L 295.690844 207.608096 
L 296.341454 211.220619 
L 296.992064 214.197526 
L 297.642674 217.721535 
L 298.293285 219.774001 
L 298.943895 222.420045 
L 299.594505 225.53802 
L 300.245116 227.530761 
L 300.895726 230.525996 
L 301.546336 203.016853 
L 302.196947 207.503535 
L 302.847557 209.821675 
L 304.148778 215.53234 
L 304.799388 219.059106 
L 306.100608 224.583875 
L 306.751219 225.969904 
L 307.401829 228.077906 
L 308.052439 204.111342 
L 309.35366 209.835132 
L 310.00427 212.346737 
L 310.654881 215.681253 
L 311.305491 217.808267 
L 311.956101 220.849695 
L 312.606712 222.31003 
L 313.257322 225.33283 
L 313.907932 226.417093 
L 314.558543 203.604819 
L 315.209153 207.096643 
L 315.859763 209.021281 
L 316.510373 212.182176 
L 317.160984 213.88665 
L 317.811594 217.197091 
L 320.414035 225.54629 
L 321.064646 202.969286 
L 321.715256 206.451183 
L 323.016477 210.852816 
L 323.667087 213.985906 
L 324.317697 215.568265 
L 325.618918 220.082345 
L 326.269528 221.932059 
L 326.920138 223.122715 
L 327.570749 203.734504 
L 328.221359 206.543286 
L 328.871969 207.739521 
L 329.52258 210.882096 
L 330.17319 212.45706 
L 331.474411 217.05215 
L 332.125021 218.823253 
L 332.775631 221.191624 
L 333.426242 222.42087 
L 334.076852 203.888672 
L 334.727462 206.102892 
L 335.378073 208.972032 
L 336.028683 210.073683 
L 336.679293 211.818071 
L 337.329903 214.405956 
L 337.980514 215.313542 
L 339.281734 218.985557 
L 339.932345 219.685387 
L 340.582955 202.90842 
L 341.233565 205.469665 
L 343.836007 213.847652 
L 344.486617 214.123485 
L 345.787837 218.904563 
L 346.438448 219.863547 
L 347.089058 203.593269 
L 347.739668 205.861751 
L 348.390279 207.191669 
L 349.040889 209.31909 
L 349.691499 210.871012 
L 350.34211 212.778437 
L 352.944551 218.612241 
L 353.595161 204.099601 
L 354.245772 204.988733 
L 354.896382 207.666206 
L 355.546992 208.568828 
L 356.197602 210.61429 
L 356.848213 210.742368 
L 357.498823 213.530189 
L 358.149433 214.604943 
L 358.800044 216.75788 
L 359.450654 217.260389 
L 360.101264 204.486998 
L 360.751875 205.263142 
L 361.402485 206.859866 
L 362.053095 207.779652 
L 362.703706 209.794277 
L 363.354316 211.232269 
L 364.004926 212.000078 
L 364.655537 213.595128 
L 365.306147 215.790194 
L 365.956757 215.627982 
L 366.607367 203.524817 
L 367.257978 205.495322 
L 367.908588 206.751275 
L 368.559198 207.427422 
L 369.209809 208.890613 
L 369.860419 209.872814 
L 370.511029 211.753715 
L 371.16164 212.400882 
L 371.81225 214.505478 
L 372.46286 214.065451 
L 373.113471 203.413228 
L 373.764081 205.407633 
L 374.414691 206.113285 
L 375.715912 209.121178 
L 376.366522 209.930357 
L 377.017132 210.527959 
L 377.667743 212.3035 
L 378.968963 214.179546 
L 379.619574 203.914604 
L 380.270184 204.710618 
L 381.571405 207.584812 
L 382.222015 208.3094 
L 382.872625 209.406713 
L 383.523236 209.984428 
L 384.173846 211.372614 
L 385.475066 212.926467 
L 386.125677 203.561874 
L 386.776287 205.426562 
L 387.426897 205.835436 
L 388.077508 206.937487 
L 388.728118 207.267424 
L 389.378728 208.856354 
L 390.029339 209.3051 
L 390.679949 210.034518 
L 391.330559 212.815178 
L 391.98117 212.430345 
L 392.63178 203.689036 
L 393.28239 203.739368 
L 393.933001 205.315156 
L 394.583611 207.275652 
L 395.234221 207.117937 
L 395.884831 208.917586 
L 397.186052 209.797383 
L 398.487273 212.424941 
L 398.487273 212.424941 
" clip-path="url(#p623a1fced5)" style="fill: none; stroke: #ff0000; stroke-width: 1.5; stroke-linecap: square"/>
   </g>
   <g id="patch_3">
    <path d="M 57.6 307.584 
L 57.6 41.472 
" style="fill: none; stroke: #000000; stroke-width: 0.8; stroke-linejoin: miter; stroke-linecap: square"/>
   </g>
   <g id="patch_4">
    <path d="M 414.72 307.584 
L 414.72 41.472 
" style="fill: none; stroke: #000000; stroke-width: 0.8; stroke-linejoin: miter; stroke-linecap: square"/>
   </g>
   <g id="patch_5">
    <path d="M 57.6 307.584 
L 414.72 307.584 
" style="fill: none; stroke: #000000; stroke-width: 0.8; stroke-linejoin: miter; stroke-linecap: square"/>
   </g>
   <g id="patch_6">
    <path d="M 57.6 41.472 
L 414.72 41.472 
" style="fill: none; stroke: #000000; stroke-width: 0.8; stroke-linejoin: miter; stroke-linecap: square"/>
   </g>
   <g id="text_14">
    <!-- The loss curve on λ_0.00025_non_iid_agg/host/6 -->
    <g transform="translate(90.610312 35.472) scale(0.12 -0.12)">
     <defs>
      <path id="DejaVuSans-54" d="M -19 4666 
L 3928 4666 
L 3928 4134 
L 2272 4134 
L 2272 0 
L 1638 0 
L 1638 4134 
L -19 4134 
L -19 4666 
z
" transform="scale(0.015625)"/>
      <path id="DejaVuSans-72" d="M 2631 2963 
Q 2534 3019 2420 3045 
Q 2306 3072 2169 3072 
Q 1681 3072 1420 2755 
Q 1159 2438 1159 1844 
L 1159 0 
L 581 0 
L 581 3500 
L 1159 3500 
L 1159 2956 
Q 1341 3275 1631 3429 
Q 1922 3584 2338 3584 
Q 2397 3584 2469 3576 
Q 2541 3569 2628 3553 
L 2631 2963 
z
" transform="scale(0.015625)"/>
      <path id="DejaVuSans-6e" d="M 3513 2113 
L 3513 0 
L 2938 0 
L 2938 2094 
Q 2938 2591 2744 2837 
Q 2550 3084 2163 3084 
Q 1697 3084 1428 2787 
Q 1159 2491 1159 1978 
L 1159 0 
L 581 0 
L 581 3500 
L 1159 3500 
L 1159 2956 
Q 1366 3272 1645 3428 
Q 1925 3584 2291 3584 
Q 2894 3584 3203 3211 
Q 3513 2838 3513 2113 
z
" transform="scale(0.015625)"/>
      <path id="DejaVuSans-3bb" d="M 1981 4316 
L 3597 0 
L 2988 0 
L 2006 2588 
L 800 0 
L 191 0 
L 1725 3356 
L 1494 3975 
Q 1347 4369 1013 4369 
L 713 4369 
L 713 4863 
L 1078 4856 
Q 1784 4847 1981 4316 
z
" transform="scale(0.015625)"/>
      <path id="DejaVuSans-5f" d="M 3263 -1063 
L 3263 -1509 
L -63 -1509 
L -63 -1063 
L 3263 -1063 
z
" transform="scale(0.015625)"/>
      <path id="DejaVuSans-69" d="M 603 3500 
L 1178 3500 
L 1178 0 
L 603 0 
L 603 3500 
z
M 603 4863 
L 1178 4863 
L 1178 4134 
L 603 4134 
L 603 4863 
z
" transform="scale(0.015625)"/>
      <path id="DejaVuSans-64" d="M 2906 2969 
L 2906 4863 
L 3481 4863 
L 3481 0 
L 2906 0 
L 2906 525 
Q 2725 213 2448 61 
Q 2172 -91 1784 -91 
Q 1150 -91 751 415 
Q 353 922 353 1747 
Q 353 2572 751 3078 
Q 1150 3584 1784 3584 
Q 2172 3584 2448 3432 
Q 2725 3281 2906 2969 
z
M 947 1747 
Q 947 1113 1208 752 
Q 1469 391 1925 391 
Q 2381 391 2643 752 
Q 2906 1113 2906 1747 
Q 2906 2381 2643 2742 
Q 2381 3103 1925 3103 
Q 1469 3103 1208 2742 
Q 947 2381 947 1747 
z
" transform="scale(0.015625)"/>
      <path id="DejaVuSans-67" d="M 2906 1791 
Q 2906 2416 2648 2759 
Q 2391 3103 1925 3103 
Q 1463 3103 1205 2759 
Q 947 2416 947 1791 
Q 947 1169 1205 825 
Q 1463 481 1925 481 
Q 2391 481 2648 825 
Q 2906 1169 2906 1791 
z
M 3481 434 
Q 3481 -459 3084 -895 
Q 2688 -1331 1869 -1331 
Q 1566 -1331 1297 -1286 
Q 1028 -1241 775 -1147 
L 775 -588 
Q 1028 -725 1275 -790 
Q 1522 -856 1778 -856 
Q 2344 -856 2625 -561 
Q 2906 -266 2906 331 
L 2906 616 
Q 2728 306 2450 153 
Q 2172 0 1784 0 
Q 1141 0 747 490 
Q 353 981 353 1791 
Q 353 2603 747 3093 
Q 1141 3584 1784 3584 
Q 2172 3584 2450 3431 
Q 2728 3278 2906 2969 
L 2906 3500 
L 3481 3500 
L 3481 434 
z
" transform="scale(0.015625)"/>
      <path id="DejaVuSans-2f" d="M 1625 4666 
L 2156 4666 
L 531 -594 
L 0 -594 
L 1625 4666 
z
" transform="scale(0.015625)"/>
      <path id="DejaVuSans-74" d="M 1172 4494 
L 1172 3500 
L 2356 3500 
L 2356 3053 
L 1172 3053 
L 1172 1153 
Q 1172 725 1289 603 
Q 1406 481 1766 481 
L 2356 481 
L 2356 0 
L 1766 0 
Q 1100 0 847 248 
Q 594 497 594 1153 
L 594 3053 
L 172 3053 
L 172 3500 
L 594 3500 
L 594 4494 
L 1172 4494 
z
" transform="scale(0.015625)"/>
     </defs>
     <use xlink:href="#DejaVuSans-54"/>
     <use xlink:href="#DejaVuSans-68" x="61.083984"/>
     <use xlink:href="#DejaVuSans-65" x="124.462891"/>
     <use xlink:href="#DejaVuSans-20" x="185.986328"/>
     <use xlink:href="#DejaVuSans-6c" x="217.773438"/>
     <use xlink:href="#DejaVuSans-6f" x="245.556641"/>
     <use xlink:href="#DejaVuSans-73" x="306.738281"/>
     <use xlink:href="#DejaVuSans-73" x="358.837891"/>
     <use xlink:href="#DejaVuSans-20" x="410.9375"/>
     <use xlink:href="#DejaVuSans-63" x="442.724609"/>
     <use xlink:href="#DejaVuSans-75" x="497.705078"/>
     <use xlink:href="#DejaVuSans-72" x="561.083984"/>
     <use xlink:href="#DejaVuSans-76" x="602.197266"/>
     <use xlink:href="#DejaVuSans-65" x="661.376953"/>
     <use xlink:href="#DejaVuSans-20" x="722.900391"/>
     <use xlink:href="#DejaVuSans-6f" x="754.6875"/>
     <use xlink:href="#DejaVuSans-6e" x="815.869141"/>
     <use xlink:href="#DejaVuSans-20" x="879.248047"/>
     <use xlink:href="#DejaVuSans-3bb" x="911.035156"/>
     <use xlink:href="#DejaVuSans-5f" x="970.214844"/>
     <use xlink:href="#DejaVuSans-30" x="1020.214844"/>
     <use xlink:href="#DejaVuSans-2e" x="1083.837891"/>
     <use xlink:href="#DejaVuSans-30" x="1115.625"/>
     <use xlink:href="#DejaVuSans-30" x="1179.248047"/>
     <use xlink:href="#DejaVuSans-30" x="1242.871094"/>
     <use xlink:href="#DejaVuSans-32" x="1306.494141"/>
     <use xlink:href="#DejaVuSans-35" x="1370.117188"/>
     <use xlink:href="#DejaVuSans-5f" x="1433.740234"/>
     <use xlink:href="#DejaVuSans-6e" x="1483.740234"/>
     <use xlink:href="#DejaVuSans-6f" x="1547.119141"/>
     <use xlink:href="#DejaVuSans-6e" x="1608.300781"/>
     <use xlink:href="#DejaVuSans-5f" x="1671.679688"/>
     <use xlink:href="#DejaVuSans-69" x="1721.679688"/>
     <use xlink:href="#DejaVuSans-69" x="1749.462891"/>
     <use xlink:href="#DejaVuSans-64" x="1777.246094"/>
     <use xlink:href="#DejaVuSans-5f" x="1840.722656"/>
     <use xlink:href="#DejaVuSans-61" x="1890.722656"/>
     <use xlink:href="#DejaVuSans-67" x="1952.001953"/>
     <use xlink:href="#DejaVuSans-67" x="2015.478516"/>
     <use xlink:href="#DejaVuSans-2f" x="2078.955078"/>
     <use xlink:href="#DejaVuSans-68" x="2112.646484"/>
     <use xlink:href="#DejaVuSans-6f" x="2176.025391"/>
     <use xlink:href="#DejaVuSans-73" x="2237.207031"/>
     <use xlink:href="#DejaVuSans-74" x="2289.306641"/>
     <use xlink:href="#DejaVuSans-2f" x="2328.515625"/>
     <use xlink:href="#DejaVuSans-36" x="2362.207031"/>
    </g>
   </g>
   <g id="legend_1">
    <g id="patch_7">
     <path d="M 317.418438 94.34075 
L 407.72 94.34075 
Q 409.72 94.34075 409.72 92.34075 
L 409.72 48.472 
Q 409.72 46.472 407.72 46.472 
L 317.418438 46.472 
Q 315.418438 46.472 315.418438 48.472 
L 315.418438 92.34075 
Q 315.418438 94.34075 317.418438 94.34075 
z
" style="fill: #ffffff; opacity: 0.8; stroke: #cccccc; stroke-linejoin: miter"/>
    </g>
    <g id="line2d_15">
     <path d="M 319.418438 54.570438 
L 329.418438 54.570438 
L 339.418438 54.570438 
" style="fill: none; stroke: #0000ff; stroke-width: 1.5; stroke-linecap: square"/>
    </g>
    <g id="text_15">
     <!-- obj_loss -->
     <g transform="translate(347.418438 58.070438) scale(0.1 -0.1)">
      <defs>
       <path id="DejaVuSans-62" d="M 3116 1747 
Q 3116 2381 2855 2742 
Q 2594 3103 2138 3103 
Q 1681 3103 1420 2742 
Q 1159 2381 1159 1747 
Q 1159 1113 1420 752 
Q 1681 391 2138 391 
Q 2594 391 2855 752 
Q 3116 1113 3116 1747 
z
M 1159 2969 
Q 1341 3281 1617 3432 
Q 1894 3584 2278 3584 
Q 2916 3584 3314 3078 
Q 3713 2572 3713 1747 
Q 3713 922 3314 415 
Q 2916 -91 2278 -91 
Q 1894 -91 1617 61 
Q 1341 213 1159 525 
L 1159 0 
L 581 0 
L 581 4863 
L 1159 4863 
L 1159 2969 
z
" transform="scale(0.015625)"/>
       <path id="DejaVuSans-6a" d="M 603 3500 
L 1178 3500 
L 1178 -63 
Q 1178 -731 923 -1031 
Q 669 -1331 103 -1331 
L -116 -1331 
L -116 -844 
L 38 -844 
Q 366 -844 484 -692 
Q 603 -541 603 -63 
L 603 3500 
z
M 603 4863 
L 1178 4863 
L 1178 4134 
L 603 4134 
L 603 4863 
z
" transform="scale(0.015625)"/>
      </defs>
      <use xlink:href="#DejaVuSans-6f"/>
      <use xlink:href="#DejaVuSans-62" x="61.181641"/>
      <use xlink:href="#DejaVuSans-6a" x="124.658203"/>
      <use xlink:href="#DejaVuSans-5f" x="152.441406"/>
      <use xlink:href="#DejaVuSans-6c" x="202.441406"/>
      <use xlink:href="#DejaVuSans-6f" x="230.224609"/>
      <use xlink:href="#DejaVuSans-73" x="291.40625"/>
      <use xlink:href="#DejaVuSans-73" x="343.505859"/>
     </g>
    </g>
    <g id="line2d_16">
     <path d="M 319.418438 69.526688 
L 329.418438 69.526688 
L 339.418438 69.526688 
" style="fill: none; stroke: #008000; stroke-width: 1.5; stroke-linecap: square"/>
    </g>
    <g id="text_16">
     <!-- reg_loss -->
     <g transform="translate(347.418438 73.026688) scale(0.1 -0.1)">
      <use xlink:href="#DejaVuSans-72"/>
      <use xlink:href="#DejaVuSans-65" x="38.863281"/>
      <use xlink:href="#DejaVuSans-67" x="100.386719"/>
      <use xlink:href="#DejaVuSans-5f" x="163.863281"/>
      <use xlink:href="#DejaVuSans-6c" x="213.863281"/>
      <use xlink:href="#DejaVuSans-6f" x="241.646484"/>
      <use xlink:href="#DejaVuSans-73" x="302.828125"/>
      <use xlink:href="#DejaVuSans-73" x="354.927734"/>
     </g>
    </g>
    <g id="line2d_17">
     <path d="M 319.418438 84.482938 
L 329.418438 84.482938 
L 339.418438 84.482938 
" style="fill: none; stroke: #ff0000; stroke-width: 1.5; stroke-linecap: square"/>
    </g>
    <g id="text_17">
     <!-- overall_loss -->
     <g transform="translate(347.418438 87.982938) scale(0.1 -0.1)">
      <use xlink:href="#DejaVuSans-6f"/>
      <use xlink:href="#DejaVuSans-76" x="61.181641"/>
      <use xlink:href="#DejaVuSans-65" x="120.361328"/>
      <use xlink:href="#DejaVuSans-72" x="181.884766"/>
      <use xlink:href="#DejaVuSans-61" x="222.998047"/>
      <use xlink:href="#DejaVuSans-6c" x="284.277344"/>
      <use xlink:href="#DejaVuSans-6c" x="312.060547"/>
      <use xlink:href="#DejaVuSans-5f" x="339.84375"/>
      <use xlink:href="#DejaVuSans-6c" x="389.84375"/>
      <use xlink:href="#DejaVuSans-6f" x="417.626953"/>
      <use xlink:href="#DejaVuSans-73" x="478.808594"/>
      <use xlink:href="#DejaVuSans-73" x="530.908203"/>
     </g>
    </g>
   </g>
  </g>
 </g>
 <defs>
  <clipPath id="p623a1fced5">
   <rect x="57.6" y="41.472" width="357.12" height="266.112"/>
  </clipPath>
 </defs>
</svg>
