<?xml version="1.0" encoding="utf-8" standalone="no"?>
<!DOCTYPE svg PUBLIC "-//W3C//DTD SVG 1.1//EN"
  "http://www.w3.org/Graphics/SVG/1.1/DTD/svg11.dtd">
<svg xmlns:xlink="http://www.w3.org/1999/xlink" width="460.8pt" height="345.6pt" viewBox="0 0 460.8 345.6" xmlns="http://www.w3.org/2000/svg" version="1.1">
 <metadata>
  <rdf:RDF xmlns:dc="http://purl.org/dc/elements/1.1/" xmlns:cc="http://creativecommons.org/ns#" xmlns:rdf="http://www.w3.org/1999/02/22-rdf-syntax-ns#">
   <cc:Work>
    <dc:type rdf:resource="http://purl.org/dc/dcmitype/StillImage"/>
    <dc:date>2023-04-13T09:23:01.581348</dc:date>
    <dc:format>image/svg+xml</dc:format>
    <dc:creator>
     <cc:Agent>
      <dc:title>Matplotlib v3.7.1, https://matplotlib.org/</dc:title>
     </cc:Agent>
    </dc:creator>
   </cc:Work>
  </rdf:RDF>
 </metadata>
 <defs>
  <style type="text/css">*{stroke-linejoin: round; stroke-linecap: butt}</style>
 </defs>
 <g id="figure_1">
  <g id="patch_1">
   <path d="M 0 345.6 
L 460.8 345.6 
L 460.8 0 
L 0 0 
z
" style="fill: #ffffff"/>
  </g>
  <g id="axes_1">
   <g id="patch_2">
    <path d="M 57.6 307.584 
L 414.72 307.584 
L 414.72 41.472 
L 57.6 41.472 
z
" style="fill: #ffffff"/>
   </g>
   <g id="matplotlib.axis_1">
    <g id="xtick_1">
     <g id="line2d_1">
      <defs>
       <path id="md224efb90f" d="M 0 0 
L 0 3.5 
" style="stroke: #000000; stroke-width: 0.8"/>
      </defs>
      <g>
       <use xlink:href="#md224efb90f" x="73.832727" y="307.584" style="stroke: #000000; stroke-width: 0.8"/>
      </g>
     </g>
     <g id="text_1">
      <!-- 0 -->
      <g transform="translate(70.651477 322.182437) scale(0.1 -0.1)">
       <defs>
        <path id="DejaVuSans-30" d="M 2034 4250 
Q 1547 4250 1301 3770 
Q 1056 3291 1056 2328 
Q 1056 1369 1301 889 
Q 1547 409 2034 409 
Q 2525 409 2770 889 
Q 3016 1369 3016 2328 
Q 3016 3291 2770 3770 
Q 2525 4250 2034 4250 
z
M 2034 4750 
Q 2819 4750 3233 4129 
Q 3647 3509 3647 2328 
Q 3647 1150 3233 529 
Q 2819 -91 2034 -91 
Q 1250 -91 836 529 
Q 422 1150 422 2328 
Q 422 3509 836 4129 
Q 1250 4750 2034 4750 
z
" transform="scale(0.015625)"/>
       </defs>
       <use xlink:href="#DejaVuSans-30"/>
      </g>
     </g>
    </g>
    <g id="xtick_2">
     <g id="line2d_2">
      <g>
       <use xlink:href="#md224efb90f" x="138.893758" y="307.584" style="stroke: #000000; stroke-width: 0.8"/>
      </g>
     </g>
     <g id="text_2">
      <!-- 100 -->
      <g transform="translate(129.350008 322.182437) scale(0.1 -0.1)">
       <defs>
        <path id="DejaVuSans-31" d="M 794 531 
L 1825 531 
L 1825 4091 
L 703 3866 
L 703 4441 
L 1819 4666 
L 2450 4666 
L 2450 531 
L 3481 531 
L 3481 0 
L 794 0 
L 794 531 
z
" transform="scale(0.015625)"/>
       </defs>
       <use xlink:href="#DejaVuSans-31"/>
       <use xlink:href="#DejaVuSans-30" x="63.623047"/>
       <use xlink:href="#DejaVuSans-30" x="127.246094"/>
      </g>
     </g>
    </g>
    <g id="xtick_3">
     <g id="line2d_3">
      <g>
       <use xlink:href="#md224efb90f" x="203.95479" y="307.584" style="stroke: #000000; stroke-width: 0.8"/>
      </g>
     </g>
     <g id="text_3">
      <!-- 200 -->
      <g transform="translate(194.41104 322.182437) scale(0.1 -0.1)">
       <defs>
        <path id="DejaVuSans-32" d="M 1228 531 
L 3431 531 
L 3431 0 
L 469 0 
L 469 531 
Q 828 903 1448 1529 
Q 2069 2156 2228 2338 
Q 2531 2678 2651 2914 
Q 2772 3150 2772 3378 
Q 2772 3750 2511 3984 
Q 2250 4219 1831 4219 
Q 1534 4219 1204 4116 
Q 875 4013 500 3803 
L 500 4441 
Q 881 4594 1212 4672 
Q 1544 4750 1819 4750 
Q 2544 4750 2975 4387 
Q 3406 4025 3406 3419 
Q 3406 3131 3298 2873 
Q 3191 2616 2906 2266 
Q 2828 2175 2409 1742 
Q 1991 1309 1228 531 
z
" transform="scale(0.015625)"/>
       </defs>
       <use xlink:href="#DejaVuSans-32"/>
       <use xlink:href="#DejaVuSans-30" x="63.623047"/>
       <use xlink:href="#DejaVuSans-30" x="127.246094"/>
      </g>
     </g>
    </g>
    <g id="xtick_4">
     <g id="line2d_4">
      <g>
       <use xlink:href="#md224efb90f" x="269.015821" y="307.584" style="stroke: #000000; stroke-width: 0.8"/>
      </g>
     </g>
     <g id="text_4">
      <!-- 300 -->
      <g transform="translate(259.472071 322.182437) scale(0.1 -0.1)">
       <defs>
        <path id="DejaVuSans-33" d="M 2597 2516 
Q 3050 2419 3304 2112 
Q 3559 1806 3559 1356 
Q 3559 666 3084 287 
Q 2609 -91 1734 -91 
Q 1441 -91 1130 -33 
Q 819 25 488 141 
L 488 750 
Q 750 597 1062 519 
Q 1375 441 1716 441 
Q 2309 441 2620 675 
Q 2931 909 2931 1356 
Q 2931 1769 2642 2001 
Q 2353 2234 1838 2234 
L 1294 2234 
L 1294 2753 
L 1863 2753 
Q 2328 2753 2575 2939 
Q 2822 3125 2822 3475 
Q 2822 3834 2567 4026 
Q 2313 4219 1838 4219 
Q 1578 4219 1281 4162 
Q 984 4106 628 3988 
L 628 4550 
Q 988 4650 1302 4700 
Q 1616 4750 1894 4750 
Q 2613 4750 3031 4423 
Q 3450 4097 3450 3541 
Q 3450 3153 3228 2886 
Q 3006 2619 2597 2516 
z
" transform="scale(0.015625)"/>
       </defs>
       <use xlink:href="#DejaVuSans-33"/>
       <use xlink:href="#DejaVuSans-30" x="63.623047"/>
       <use xlink:href="#DejaVuSans-30" x="127.246094"/>
      </g>
     </g>
    </g>
    <g id="xtick_5">
     <g id="line2d_5">
      <g>
       <use xlink:href="#md224efb90f" x="334.076852" y="307.584" style="stroke: #000000; stroke-width: 0.8"/>
      </g>
     </g>
     <g id="text_5">
      <!-- 400 -->
      <g transform="translate(324.533102 322.182437) scale(0.1 -0.1)">
       <defs>
        <path id="DejaVuSans-34" d="M 2419 4116 
L 825 1625 
L 2419 1625 
L 2419 4116 
z
M 2253 4666 
L 3047 4666 
L 3047 1625 
L 3713 1625 
L 3713 1100 
L 3047 1100 
L 3047 0 
L 2419 0 
L 2419 1100 
L 313 1100 
L 313 1709 
L 2253 4666 
z
" transform="scale(0.015625)"/>
       </defs>
       <use xlink:href="#DejaVuSans-34"/>
       <use xlink:href="#DejaVuSans-30" x="63.623047"/>
       <use xlink:href="#DejaVuSans-30" x="127.246094"/>
      </g>
     </g>
    </g>
    <g id="xtick_6">
     <g id="line2d_6">
      <g>
       <use xlink:href="#md224efb90f" x="399.137883" y="307.584" style="stroke: #000000; stroke-width: 0.8"/>
      </g>
     </g>
     <g id="text_6">
      <!-- 500 -->
      <g transform="translate(389.594133 322.182437) scale(0.1 -0.1)">
       <defs>
        <path id="DejaVuSans-35" d="M 691 4666 
L 3169 4666 
L 3169 4134 
L 1269 4134 
L 1269 2991 
Q 1406 3038 1543 3061 
Q 1681 3084 1819 3084 
Q 2600 3084 3056 2656 
Q 3513 2228 3513 1497 
Q 3513 744 3044 326 
Q 2575 -91 1722 -91 
Q 1428 -91 1123 -41 
Q 819 9 494 109 
L 494 744 
Q 775 591 1075 516 
Q 1375 441 1709 441 
Q 2250 441 2565 725 
Q 2881 1009 2881 1497 
Q 2881 1984 2565 2268 
Q 2250 2553 1709 2553 
Q 1456 2553 1204 2497 
Q 953 2441 691 2322 
L 691 4666 
z
" transform="scale(0.015625)"/>
       </defs>
       <use xlink:href="#DejaVuSans-35"/>
       <use xlink:href="#DejaVuSans-30" x="63.623047"/>
       <use xlink:href="#DejaVuSans-30" x="127.246094"/>
      </g>
     </g>
    </g>
    <g id="text_7">
     <!-- epoch -->
     <g transform="translate(220.931875 335.860562) scale(0.1 -0.1)">
      <defs>
       <path id="DejaVuSans-65" d="M 3597 1894 
L 3597 1613 
L 953 1613 
Q 991 1019 1311 708 
Q 1631 397 2203 397 
Q 2534 397 2845 478 
Q 3156 559 3463 722 
L 3463 178 
Q 3153 47 2828 -22 
Q 2503 -91 2169 -91 
Q 1331 -91 842 396 
Q 353 884 353 1716 
Q 353 2575 817 3079 
Q 1281 3584 2069 3584 
Q 2775 3584 3186 3129 
Q 3597 2675 3597 1894 
z
M 3022 2063 
Q 3016 2534 2758 2815 
Q 2500 3097 2075 3097 
Q 1594 3097 1305 2825 
Q 1016 2553 972 2059 
L 3022 2063 
z
" transform="scale(0.015625)"/>
       <path id="DejaVuSans-70" d="M 1159 525 
L 1159 -1331 
L 581 -1331 
L 581 3500 
L 1159 3500 
L 1159 2969 
Q 1341 3281 1617 3432 
Q 1894 3584 2278 3584 
Q 2916 3584 3314 3078 
Q 3713 2572 3713 1747 
Q 3713 922 3314 415 
Q 2916 -91 2278 -91 
Q 1894 -91 1617 61 
Q 1341 213 1159 525 
z
M 3116 1747 
Q 3116 2381 2855 2742 
Q 2594 3103 2138 3103 
Q 1681 3103 1420 2742 
Q 1159 2381 1159 1747 
Q 1159 1113 1420 752 
Q 1681 391 2138 391 
Q 2594 391 2855 752 
Q 3116 1113 3116 1747 
z
" transform="scale(0.015625)"/>
       <path id="DejaVuSans-6f" d="M 1959 3097 
Q 1497 3097 1228 2736 
Q 959 2375 959 1747 
Q 959 1119 1226 758 
Q 1494 397 1959 397 
Q 2419 397 2687 759 
Q 2956 1122 2956 1747 
Q 2956 2369 2687 2733 
Q 2419 3097 1959 3097 
z
M 1959 3584 
Q 2709 3584 3137 3096 
Q 3566 2609 3566 1747 
Q 3566 888 3137 398 
Q 2709 -91 1959 -91 
Q 1206 -91 779 398 
Q 353 888 353 1747 
Q 353 2609 779 3096 
Q 1206 3584 1959 3584 
z
" transform="scale(0.015625)"/>
       <path id="DejaVuSans-63" d="M 3122 3366 
L 3122 2828 
Q 2878 2963 2633 3030 
Q 2388 3097 2138 3097 
Q 1578 3097 1268 2742 
Q 959 2388 959 1747 
Q 959 1106 1268 751 
Q 1578 397 2138 397 
Q 2388 397 2633 464 
Q 2878 531 3122 666 
L 3122 134 
Q 2881 22 2623 -34 
Q 2366 -91 2075 -91 
Q 1284 -91 818 406 
Q 353 903 353 1747 
Q 353 2603 823 3093 
Q 1294 3584 2113 3584 
Q 2378 3584 2631 3529 
Q 2884 3475 3122 3366 
z
" transform="scale(0.015625)"/>
       <path id="DejaVuSans-68" d="M 3513 2113 
L 3513 0 
L 2938 0 
L 2938 2094 
Q 2938 2591 2744 2837 
Q 2550 3084 2163 3084 
Q 1697 3084 1428 2787 
Q 1159 2491 1159 1978 
L 1159 0 
L 581 0 
L 581 4863 
L 1159 4863 
L 1159 2956 
Q 1366 3272 1645 3428 
Q 1925 3584 2291 3584 
Q 2894 3584 3203 3211 
Q 3513 2838 3513 2113 
z
" transform="scale(0.015625)"/>
      </defs>
      <use xlink:href="#DejaVuSans-65"/>
      <use xlink:href="#DejaVuSans-70" x="61.523438"/>
      <use xlink:href="#DejaVuSans-6f" x="125"/>
      <use xlink:href="#DejaVuSans-63" x="186.181641"/>
      <use xlink:href="#DejaVuSans-68" x="241.162109"/>
     </g>
    </g>
   </g>
   <g id="matplotlib.axis_2">
    <g id="ytick_1">
     <g id="line2d_7">
      <defs>
       <path id="ma4f468b90b" d="M 0 0 
L -3.5 0 
" style="stroke: #000000; stroke-width: 0.8"/>
      </defs>
      <g>
       <use xlink:href="#ma4f468b90b" x="57.6" y="262.624402" style="stroke: #000000; stroke-width: 0.8"/>
      </g>
     </g>
     <g id="text_8">
      <!-- 0.2 -->
      <g transform="translate(34.696875 266.423621) scale(0.1 -0.1)">
       <defs>
        <path id="DejaVuSans-2e" d="M 684 794 
L 1344 794 
L 1344 0 
L 684 0 
L 684 794 
z
" transform="scale(0.015625)"/>
       </defs>
       <use xlink:href="#DejaVuSans-30"/>
       <use xlink:href="#DejaVuSans-2e" x="63.623047"/>
       <use xlink:href="#DejaVuSans-32" x="95.410156"/>
      </g>
     </g>
    </g>
    <g id="ytick_2">
     <g id="line2d_8">
      <g>
       <use xlink:href="#ma4f468b90b" x="57.6" y="205.370456" style="stroke: #000000; stroke-width: 0.8"/>
      </g>
     </g>
     <g id="text_9">
      <!-- 0.4 -->
      <g transform="translate(34.696875 209.169675) scale(0.1 -0.1)">
       <use xlink:href="#DejaVuSans-30"/>
       <use xlink:href="#DejaVuSans-2e" x="63.623047"/>
       <use xlink:href="#DejaVuSans-34" x="95.410156"/>
      </g>
     </g>
    </g>
    <g id="ytick_3">
     <g id="line2d_9">
      <g>
       <use xlink:href="#ma4f468b90b" x="57.6" y="148.11651" style="stroke: #000000; stroke-width: 0.8"/>
      </g>
     </g>
     <g id="text_10">
      <!-- 0.6 -->
      <g transform="translate(34.696875 151.915729) scale(0.1 -0.1)">
       <defs>
        <path id="DejaVuSans-36" d="M 2113 2584 
Q 1688 2584 1439 2293 
Q 1191 2003 1191 1497 
Q 1191 994 1439 701 
Q 1688 409 2113 409 
Q 2538 409 2786 701 
Q 3034 994 3034 1497 
Q 3034 2003 2786 2293 
Q 2538 2584 2113 2584 
z
M 3366 4563 
L 3366 3988 
Q 3128 4100 2886 4159 
Q 2644 4219 2406 4219 
Q 1781 4219 1451 3797 
Q 1122 3375 1075 2522 
Q 1259 2794 1537 2939 
Q 1816 3084 2150 3084 
Q 2853 3084 3261 2657 
Q 3669 2231 3669 1497 
Q 3669 778 3244 343 
Q 2819 -91 2113 -91 
Q 1303 -91 875 529 
Q 447 1150 447 2328 
Q 447 3434 972 4092 
Q 1497 4750 2381 4750 
Q 2619 4750 2861 4703 
Q 3103 4656 3366 4563 
z
" transform="scale(0.015625)"/>
       </defs>
       <use xlink:href="#DejaVuSans-30"/>
       <use xlink:href="#DejaVuSans-2e" x="63.623047"/>
       <use xlink:href="#DejaVuSans-36" x="95.410156"/>
      </g>
     </g>
    </g>
    <g id="ytick_4">
     <g id="line2d_10">
      <g>
       <use xlink:href="#ma4f468b90b" x="57.6" y="90.862564" style="stroke: #000000; stroke-width: 0.8"/>
      </g>
     </g>
     <g id="text_11">
      <!-- 0.8 -->
      <g transform="translate(34.696875 94.661782) scale(0.1 -0.1)">
       <defs>
        <path id="DejaVuSans-38" d="M 2034 2216 
Q 1584 2216 1326 1975 
Q 1069 1734 1069 1313 
Q 1069 891 1326 650 
Q 1584 409 2034 409 
Q 2484 409 2743 651 
Q 3003 894 3003 1313 
Q 3003 1734 2745 1975 
Q 2488 2216 2034 2216 
z
M 1403 2484 
Q 997 2584 770 2862 
Q 544 3141 544 3541 
Q 544 4100 942 4425 
Q 1341 4750 2034 4750 
Q 2731 4750 3128 4425 
Q 3525 4100 3525 3541 
Q 3525 3141 3298 2862 
Q 3072 2584 2669 2484 
Q 3125 2378 3379 2068 
Q 3634 1759 3634 1313 
Q 3634 634 3220 271 
Q 2806 -91 2034 -91 
Q 1263 -91 848 271 
Q 434 634 434 1313 
Q 434 1759 690 2068 
Q 947 2378 1403 2484 
z
M 1172 3481 
Q 1172 3119 1398 2916 
Q 1625 2713 2034 2713 
Q 2441 2713 2670 2916 
Q 2900 3119 2900 3481 
Q 2900 3844 2670 4047 
Q 2441 4250 2034 4250 
Q 1625 4250 1398 4047 
Q 1172 3844 1172 3481 
z
" transform="scale(0.015625)"/>
       </defs>
       <use xlink:href="#DejaVuSans-30"/>
       <use xlink:href="#DejaVuSans-2e" x="63.623047"/>
       <use xlink:href="#DejaVuSans-38" x="95.410156"/>
      </g>
     </g>
    </g>
    <g id="text_12">
     <!-- loss value -->
     <g transform="translate(28.617187 199.432687) rotate(-90) scale(0.1 -0.1)">
      <defs>
       <path id="DejaVuSans-6c" d="M 603 4863 
L 1178 4863 
L 1178 0 
L 603 0 
L 603 4863 
z
" transform="scale(0.015625)"/>
       <path id="DejaVuSans-73" d="M 2834 3397 
L 2834 2853 
Q 2591 2978 2328 3040 
Q 2066 3103 1784 3103 
Q 1356 3103 1142 2972 
Q 928 2841 928 2578 
Q 928 2378 1081 2264 
Q 1234 2150 1697 2047 
L 1894 2003 
Q 2506 1872 2764 1633 
Q 3022 1394 3022 966 
Q 3022 478 2636 193 
Q 2250 -91 1575 -91 
Q 1294 -91 989 -36 
Q 684 19 347 128 
L 347 722 
Q 666 556 975 473 
Q 1284 391 1588 391 
Q 1994 391 2212 530 
Q 2431 669 2431 922 
Q 2431 1156 2273 1281 
Q 2116 1406 1581 1522 
L 1381 1569 
Q 847 1681 609 1914 
Q 372 2147 372 2553 
Q 372 3047 722 3315 
Q 1072 3584 1716 3584 
Q 2034 3584 2315 3537 
Q 2597 3491 2834 3397 
z
" transform="scale(0.015625)"/>
       <path id="DejaVuSans-20" transform="scale(0.015625)"/>
       <path id="DejaVuSans-76" d="M 191 3500 
L 800 3500 
L 1894 563 
L 2988 3500 
L 3597 3500 
L 2284 0 
L 1503 0 
L 191 3500 
z
" transform="scale(0.015625)"/>
       <path id="DejaVuSans-61" d="M 2194 1759 
Q 1497 1759 1228 1600 
Q 959 1441 959 1056 
Q 959 750 1161 570 
Q 1363 391 1709 391 
Q 2188 391 2477 730 
Q 2766 1069 2766 1631 
L 2766 1759 
L 2194 1759 
z
M 3341 1997 
L 3341 0 
L 2766 0 
L 2766 531 
Q 2569 213 2275 61 
Q 1981 -91 1556 -91 
Q 1019 -91 701 211 
Q 384 513 384 1019 
Q 384 1609 779 1909 
Q 1175 2209 1959 2209 
L 2766 2209 
L 2766 2266 
Q 2766 2663 2505 2880 
Q 2244 3097 1772 3097 
Q 1472 3097 1187 3025 
Q 903 2953 641 2809 
L 641 3341 
Q 956 3463 1253 3523 
Q 1550 3584 1831 3584 
Q 2591 3584 2966 3190 
Q 3341 2797 3341 1997 
z
" transform="scale(0.015625)"/>
       <path id="DejaVuSans-75" d="M 544 1381 
L 544 3500 
L 1119 3500 
L 1119 1403 
Q 1119 906 1312 657 
Q 1506 409 1894 409 
Q 2359 409 2629 706 
Q 2900 1003 2900 1516 
L 2900 3500 
L 3475 3500 
L 3475 0 
L 2900 0 
L 2900 538 
Q 2691 219 2414 64 
Q 2138 -91 1772 -91 
Q 1169 -91 856 284 
Q 544 659 544 1381 
z
M 1991 3584 
L 1991 3584 
z
" transform="scale(0.015625)"/>
      </defs>
      <use xlink:href="#DejaVuSans-6c"/>
      <use xlink:href="#DejaVuSans-6f" x="27.783203"/>
      <use xlink:href="#DejaVuSans-73" x="88.964844"/>
      <use xlink:href="#DejaVuSans-73" x="141.064453"/>
      <use xlink:href="#DejaVuSans-20" x="193.164062"/>
      <use xlink:href="#DejaVuSans-76" x="224.951172"/>
      <use xlink:href="#DejaVuSans-61" x="284.130859"/>
      <use xlink:href="#DejaVuSans-6c" x="345.410156"/>
      <use xlink:href="#DejaVuSans-75" x="373.193359"/>
      <use xlink:href="#DejaVuSans-65" x="436.572266"/>
     </g>
    </g>
   </g>
   <g id="line2d_11">
    <path d="M 73.832727 88.40431 
L 74.483338 134.804424 
L 75.133948 195.348839 
L 75.784558 244.048176 
L 76.435169 270.618834 
L 77.085779 281.970749 
L 77.736389 286.724248 
L 78.386999 287.750424 
L 79.03761 286.840923 
L 79.68822 287.361581 
L 80.33883 210.14662 
L 80.989441 242.652525 
L 81.640051 266.785143 
L 82.290661 278.889281 
L 82.941272 283.881682 
L 83.591882 284.834913 
L 84.242492 284.754286 
L 84.893103 285.126622 
L 85.543713 285.056815 
L 86.194323 284.458925 
L 86.844934 223.845321 
L 87.495544 251.952729 
L 88.146154 272.806174 
L 88.796764 283.869635 
L 89.447375 287.47206 
L 90.097985 289.105444 
L 90.748595 289.064542 
L 91.399206 289.975758 
L 92.049816 289.912123 
L 92.700426 291.03559 
L 93.351037 216.853857 
L 94.001647 248.490999 
L 94.652257 271.055941 
L 95.302868 283.400838 
L 95.953478 287.843658 
L 96.604088 290.847123 
L 97.254698 291.85407 
L 97.905309 291.246339 
L 98.555919 290.329845 
L 99.206529 291.571334 
L 99.85714 222.078857 
L 100.50775 252.235249 
L 101.15836 273.885704 
L 101.808971 285.040898 
L 102.459581 289.86716 
L 103.110191 290.773741 
L 103.760802 292.091278 
L 104.411412 292.448012 
L 105.062022 292.067034 
L 105.712633 293.56694 
L 106.363243 220.214928 
L 107.013853 251.403752 
L 107.664463 273.661905 
L 108.315074 285.552308 
L 108.965684 289.722434 
L 109.616294 290.677258 
L 110.266905 292.198122 
L 110.917515 292.909663 
L 111.568125 292.520733 
L 112.218736 293.685436 
L 112.869346 222.469804 
L 113.519956 252.57264 
L 114.170567 274.391532 
L 114.821177 286.795898 
L 115.471787 291.127263 
L 116.122398 292.788946 
L 116.773008 293.084415 
L 117.423618 293.875326 
L 118.074228 293.076671 
L 118.724839 293.924971 
L 119.375449 220.087135 
L 120.026059 251.644204 
L 120.67667 274.930429 
L 121.32728 286.203541 
L 121.97789 291.525426 
L 122.628501 293.0521 
L 123.279111 294.054631 
L 123.929721 294.35327 
L 124.580332 293.128577 
L 125.230942 294.117484 
L 125.881552 222.117112 
L 126.532163 253.815578 
L 127.182773 275.943242 
L 127.833383 286.925677 
L 128.483993 292.117082 
L 129.134604 293.361798 
L 129.785214 293.79984 
L 130.435824 293.827177 
L 131.086435 294.193833 
L 131.737045 295.488 
L 132.387655 220.802825 
L 133.038266 252.348961 
L 133.688876 275.439273 
L 134.339486 287.567877 
L 134.990097 291.925148 
L 135.640707 294.432359 
L 136.291317 294.175232 
L 136.941927 295.35384 
L 137.592538 295.393949 
L 138.243148 294.138018 
L 138.893758 223.290595 
L 139.544369 254.683112 
L 140.845589 272.372992 
L 142.14681 284.497338 
L 143.448031 290.049054 
L 144.098641 291.35573 
L 144.749251 292.340116 
L 145.399862 220.981535 
L 146.701082 253.171053 
L 147.351692 265.856131 
L 148.002303 275.943379 
L 148.652913 282.217906 
L 149.303523 286.47438 
L 149.954134 289.288027 
L 150.604744 290.787251 
L 151.255354 290.943096 
L 151.905965 220.471812 
L 153.207185 254.168031 
L 153.857796 266.714208 
L 154.508406 276.053307 
L 155.159016 282.226037 
L 156.460237 288.879372 
L 157.110847 290.979478 
L 157.761457 291.886398 
L 158.412068 220.947562 
L 159.713288 253.181888 
L 160.363899 265.774348 
L 161.665119 281.635213 
L 162.96634 288.202995 
L 163.61695 290.496538 
L 164.267561 290.426594 
L 164.918171 221.426316 
L 166.219392 251.070759 
L 166.870002 263.221415 
L 167.520612 272.947511 
L 168.171222 279.463677 
L 168.821833 284.301545 
L 170.773664 290.918525 
L 171.424274 221.605862 
L 172.725495 249.960418 
L 173.376105 261.483057 
L 174.026715 270.959121 
L 174.677326 277.803101 
L 175.327936 283.008453 
L 176.629156 287.847214 
L 177.279767 289.637594 
L 177.930377 221.691228 
L 178.580987 236.839124 
L 179.882208 259.874434 
L 181.183429 276.502998 
L 182.484649 284.753328 
L 183.78587 288.291852 
L 184.43648 221.51989 
L 185.737701 247.747035 
L 186.388311 258.475152 
L 187.038921 267.145642 
L 188.340142 278.768547 
L 188.990752 282.487847 
L 189.641363 285.248808 
L 190.291973 286.556769 
L 190.942583 221.330968 
L 191.593194 234.940293 
L 192.894414 257.102088 
L 194.195635 272.432213 
L 194.846245 277.33139 
L 196.147466 283.780575 
L 196.798076 285.959395 
L 197.448686 221.272749 
L 199.400517 255.381996 
L 200.701738 269.835953 
L 201.352348 275.782201 
L 202.002959 278.636271 
L 202.653569 283.020405 
L 203.304179 285.081181 
L 203.95479 221.841203 
L 205.25601 244.379506 
L 207.207841 268.37655 
L 207.858451 274.092554 
L 208.509062 277.328396 
L 209.159672 281.27268 
L 209.810282 283.529591 
L 210.460893 222.320273 
L 211.762113 242.643763 
L 212.412724 252.023148 
L 214.364555 272.582913 
L 215.015165 276.753487 
L 216.316385 282.808786 
L 216.966996 221.911946 
L 218.918827 250.025808 
L 220.220047 264.120196 
L 220.870658 270.488805 
L 222.822489 281.052247 
L 223.473099 220.94113 
L 225.42493 249.421223 
L 226.72615 262.326127 
L 228.677981 276.476367 
L 229.328592 278.426861 
L 229.979202 221.443695 
L 230.629812 231.382136 
L 232.581643 254.584407 
L 233.232254 260.840818 
L 234.533474 270.828534 
L 235.184085 273.480346 
L 235.834695 277.145386 
L 236.485305 220.836713 
L 237.786526 239.167977 
L 240.388967 263.804048 
L 241.039577 269.080612 
L 242.340798 275.345209 
L 242.991408 222.205575 
L 244.292629 236.890194 
L 244.943239 244.421242 
L 246.89507 262.262316 
L 248.846901 273.521421 
L 249.497511 220.924084 
L 250.148122 229.637111 
L 252.099953 249.617388 
L 253.401173 260.436417 
L 254.051784 264.394569 
L 255.353004 270.653147 
L 256.003615 221.907322 
L 257.304835 235.368362 
L 257.955445 241.228122 
L 258.606056 248.443355 
L 259.256666 253.876548 
L 259.907276 257.454848 
L 260.557887 262.366452 
L 261.208497 265.784138 
L 261.859107 269.984435 
L 262.509718 221.442492 
L 263.810938 234.682889 
L 265.762769 251.405275 
L 266.413379 256.169501 
L 267.7146 264.105394 
L 268.36521 266.745791 
L 269.015821 221.913388 
L 269.666431 227.501412 
L 270.317041 234.432038 
L 272.268872 250.205562 
L 272.919483 253.765242 
L 273.570093 258.506638 
L 274.220703 261.85646 
L 274.871314 264.41484 
L 275.521924 222.003003 
L 276.823144 232.570003 
L 277.473755 238.698813 
L 279.425586 252.185344 
L 280.726806 259.81421 
L 281.377417 262.756478 
L 282.028027 221.881898 
L 283.329248 233.331389 
L 283.979858 236.801193 
L 285.281079 246.513507 
L 285.931689 249.997543 
L 286.582299 254.663196 
L 287.232909 257.339063 
L 287.88352 260.69772 
L 288.53413 222.213407 
L 289.18474 227.390971 
L 289.835351 231.630975 
L 290.485961 236.650083 
L 291.136571 240.225372 
L 291.787182 245.190297 
L 292.437792 248.429615 
L 293.088402 252.507984 
L 293.739013 254.96937 
L 294.389623 258.391842 
L 295.040233 221.867583 
L 295.690844 227.065819 
L 298.943895 246.693036 
L 300.245116 252.916963 
L 300.895726 255.333861 
L 301.546336 222.653078 
L 304.148778 238.886583 
L 304.799388 241.664517 
L 306.100608 248.643529 
L 307.401829 254.111587 
L 308.052439 221.519096 
L 309.35366 230.173845 
L 310.00427 233.168556 
L 311.956101 243.698538 
L 313.907932 252.386807 
L 314.558543 222.226853 
L 315.859763 229.289171 
L 316.510373 232.927123 
L 317.811594 238.918584 
L 319.763425 247.795963 
L 320.414035 249.699435 
L 321.064646 222.181047 
L 324.317697 238.39696 
L 324.968308 240.000661 
L 325.618918 242.898454 
L 326.269528 246.461406 
L 326.920138 247.780785 
L 327.570749 221.956916 
L 328.221359 225.573616 
L 330.8238 236.491653 
L 331.474411 239.39047 
L 332.125021 240.636377 
L 333.426242 245.867929 
L 334.076852 222.343615 
L 335.378073 227.817743 
L 336.028683 231.10662 
L 336.679293 232.784118 
L 337.980514 238.04013 
L 338.631124 239.449483 
L 339.281734 242.797552 
L 339.932345 244.76298 
L 340.582955 222.199987 
L 341.233565 225.127495 
L 343.836007 234.319311 
L 344.486617 237.58366 
L 345.137227 239.120849 
L 345.787837 241.286256 
L 346.438448 242.943056 
L 347.089058 221.864417 
L 347.739668 224.943411 
L 348.390279 227.372586 
L 349.040889 228.69136 
L 350.99272 236.141802 
L 351.64333 238.216169 
L 352.293941 238.917603 
L 352.944551 241.425771 
L 353.595161 221.739132 
L 354.896382 226.453718 
L 355.546992 228.171126 
L 356.197602 231.28835 
L 356.848213 232.33926 
L 357.498823 233.894041 
L 358.149433 236.851666 
L 358.800044 237.897364 
L 359.450654 240.545696 
L 360.101264 222.174956 
L 362.703706 229.64572 
L 363.354316 231.096758 
L 364.004926 233.793241 
L 364.655537 235.052952 
L 365.306147 235.68442 
L 365.956757 238.107682 
L 366.607367 222.074301 
L 367.257978 223.790182 
L 367.908588 226.08926 
L 368.559198 227.801669 
L 369.209809 228.947919 
L 370.511029 232.453889 
L 371.16164 233.445915 
L 372.46286 237.374007 
L 373.113471 222.17162 
L 374.414691 226.195631 
L 375.065302 226.743874 
L 376.366522 230.470835 
L 377.667743 232.870363 
L 378.318353 234.670101 
L 378.968963 235.740062 
L 379.619574 222.173753 
L 380.270184 224.111564 
L 380.920794 225.234899 
L 381.571405 226.69016 
L 382.222015 228.72872 
L 382.872625 229.294128 
L 385.475066 235.38156 
L 386.125677 222.353383 
L 386.776287 223.378239 
L 387.426897 225.590594 
L 388.077508 225.885409 
L 388.728118 227.052825 
L 390.679949 231.798593 
L 391.330559 232.229605 
L 391.98117 233.798557 
L 392.63178 222.1044 
L 393.933001 225.344341 
L 394.583611 226.229842 
L 395.234221 228.029861 
L 395.884831 228.724821 
L 396.535442 229.629092 
L 397.186052 230.066963 
L 397.836662 231.780242 
L 398.487273 232.887989 
L 398.487273 232.887989 
" clip-path="url(#pe794262419)" style="fill: none; stroke: #0000ff; stroke-width: 1.5; stroke-linecap: square"/>
   </g>
   <g id="line2d_12">
    <path d="M 73.832727 285.042043 
L 79.68822 285.019628 
L 80.33883 286.883491 
L 118.724839 286.870231 
L 124.580332 286.871154 
L 162.96634 286.874524 
L 300.245116 286.868923 
L 398.487273 286.867912 
L 398.487273 286.867912 
" clip-path="url(#pe794262419)" style="fill: none; stroke: #008000; stroke-width: 1.5; stroke-linecap: square"/>
   </g>
   <g id="line2d_13">
    <path d="M 73.832727 53.568 
L 74.483338 99.967397 
L 75.133948 160.510473 
L 75.784558 209.207779 
L 76.435169 235.775801 
L 77.085779 247.124713 
L 77.736389 251.875019 
L 78.386999 252.897955 
L 79.03761 251.985264 
L 79.68822 252.502861 
L 80.33883 177.151767 
L 80.989441 209.655734 
L 81.640051 233.786135 
L 82.290661 245.887713 
L 82.941272 250.87732 
L 83.591882 251.827653 
L 84.242492 251.744129 
L 84.893103 252.113671 
L 85.543713 252.041213 
L 86.194323 251.440856 
L 86.844934 190.843208 
L 87.495544 218.950175 
L 88.146154 239.802841 
L 88.796764 250.865128 
L 89.447375 254.466097 
L 90.097985 256.097832 
L 90.748595 256.0552 
L 91.399206 256.964679 
L 92.049816 256.899354 
L 92.700426 258.021199 
L 93.351037 183.854175 
L 94.001647 215.491317 
L 94.652257 238.055828 
L 95.302868 250.399837 
L 95.953478 254.84138 
L 96.604088 257.843318 
L 97.254698 258.848602 
L 97.905309 258.239149 
L 98.555919 257.320951 
L 99.206529 258.560796 
L 99.85714 189.081589 
L 100.50775 219.23796 
L 101.15836 240.887945 
L 101.808971 252.042194 
L 102.459581 256.867134 
L 103.110191 257.772148 
L 103.760802 259.087996 
L 104.411412 259.442983 
L 105.062022 259.060289 
L 105.712633 260.558537 
L 106.363243 187.218803 
L 107.013853 218.407572 
L 107.664463 240.665205 
L 108.315074 252.554596 
L 108.965684 256.723327 
L 109.616294 257.676497 
L 110.266905 259.195586 
L 110.917515 259.905305 
L 111.568125 259.514571 
L 112.218736 260.677542 
L 112.869346 189.473782 
L 113.519956 219.576524 
L 114.170567 241.394845 
L 114.821177 253.798157 
L 115.471787 258.128091 
L 116.122398 259.788082 
L 116.773008 260.081741 
L 117.423618 260.870798 
L 118.074228 260.070313 
L 118.724839 260.916851 
L 119.375449 187.090635 
L 120.026059 218.64758 
L 120.67667 241.933208 
L 121.32728 253.205226 
L 121.97789 258.525624 
L 122.628501 260.050562 
L 123.279111 261.051231 
L 123.929721 261.347965 
L 124.580332 260.121382 
L 125.230942 261.108477 
L 125.881552 189.119725 
L 126.532163 220.818037 
L 127.182773 242.945078 
L 127.833383 253.926385 
L 128.483993 259.116269 
L 129.134604 260.359224 
L 129.785214 260.79538 
L 130.435824 260.820791 
L 131.086435 261.185555 
L 131.737045 262.477907 
L 132.387655 187.804269 
L 133.038266 219.350243 
L 133.688876 242.439928 
L 134.339486 254.567383 
L 134.990097 258.923116 
L 135.640707 261.428537 
L 136.291317 261.169495 
L 136.941927 262.346159 
L 137.592538 262.384346 
L 138.243148 261.126568 
L 138.893758 190.290716 
L 139.544369 221.683055 
L 140.845589 239.372486 
L 142.14681 251.496042 
L 143.448031 257.046757 
L 144.098641 258.352896 
L 144.749251 259.33674 
L 145.399862 187.981076 
L 146.701082 220.170436 
L 147.351692 232.855262 
L 148.002303 242.942144 
L 148.652913 249.216194 
L 149.303523 253.472108 
L 149.954134 256.285137 
L 150.604744 257.783742 
L 151.255354 257.938956 
L 151.905965 187.470841 
L 153.207185 221.166873 
L 153.857796 233.712781 
L 154.508406 243.0515 
L 155.159016 249.22374 
L 156.460237 255.875936 
L 157.110847 257.975428 
L 157.761457 258.881729 
L 158.412068 187.946003 
L 159.713288 220.180137 
L 160.363899 232.772345 
L 161.665119 248.632434 
L 162.96634 255.19917 
L 163.61695 257.492161 
L 164.267561 257.421665 
L 164.918171 188.424185 
L 166.219392 218.068453 
L 166.870002 230.218892 
L 167.520612 239.944677 
L 168.171222 246.46045 
L 168.821833 251.297863 
L 170.773664 257.913336 
L 171.424274 188.603176 
L 172.725495 216.957566 
L 173.376105 228.480001 
L 174.026715 237.955787 
L 174.677326 244.799426 
L 175.327936 250.004364 
L 176.629156 254.842216 
L 177.279767 256.63213 
L 177.930377 188.687988 
L 178.580987 203.835833 
L 179.882208 226.870857 
L 181.183429 243.498841 
L 182.484649 251.74842 
L 183.78587 255.286085 
L 184.43648 188.516112 
L 185.737701 214.743121 
L 186.388311 225.471076 
L 187.038921 234.141344 
L 188.340142 245.763648 
L 188.990752 249.482577 
L 189.641363 252.243162 
L 190.291973 253.550739 
L 190.942583 188.326687 
L 191.593194 201.93597 
L 192.894414 224.097538 
L 194.195635 239.427216 
L 194.846245 244.326098 
L 196.147466 250.774618 
L 196.798076 252.953077 
L 197.448686 188.267991 
L 199.400517 222.37699 
L 200.701738 236.83055 
L 201.352348 242.77653 
L 202.002959 245.630309 
L 202.653569 250.014137 
L 203.304179 252.074597 
L 203.95479 188.835984 
L 205.25601 211.374184 
L 207.207841 235.37075 
L 207.858451 241.086525 
L 208.509062 244.322106 
L 209.159672 248.266108 
L 209.810282 250.522725 
L 210.460893 189.314618 
L 211.762113 209.638015 
L 212.412724 219.017293 
L 214.364555 239.576534 
L 215.015165 243.746869 
L 216.316385 249.801664 
L 216.966996 188.905883 
L 218.918827 217.019565 
L 220.220047 231.113667 
L 220.870658 237.482093 
L 222.822489 248.044869 
L 223.473099 187.934673 
L 225.42493 216.414604 
L 226.72615 229.319262 
L 228.677981 243.468964 
L 229.328592 245.419248 
L 229.979202 188.43688 
L 230.629812 198.375296 
L 232.581643 221.577349 
L 233.232254 227.833637 
L 234.533474 237.821049 
L 235.184085 240.472692 
L 235.834695 244.137544 
L 236.485305 187.829565 
L 237.786526 206.16077 
L 240.388967 230.796457 
L 241.039577 236.072868 
L 242.340798 242.337158 
L 242.991408 189.198112 
L 244.292629 203.88268 
L 244.943239 211.413668 
L 246.89507 229.254456 
L 248.846901 240.513165 
L 249.497511 187.916331 
L 250.148122 196.629341 
L 252.099953 216.609472 
L 253.401173 227.428322 
L 254.051784 231.386359 
L 255.353004 237.644695 
L 256.003615 188.899305 
L 257.304835 202.360301 
L 257.955445 208.220011 
L 258.606056 215.435196 
L 259.256666 220.868313 
L 259.907276 224.446528 
L 260.557887 229.358037 
L 261.208497 232.775612 
L 261.859107 236.975799 
L 262.509718 188.434227 
L 263.810938 201.674582 
L 265.762769 218.396814 
L 266.413379 223.160967 
L 267.7146 231.096689 
L 268.36521 233.736993 
L 269.015821 188.904901 
L 269.666431 194.492908 
L 270.317041 201.423517 
L 272.268872 217.196909 
L 272.919483 220.756525 
L 273.570093 225.497848 
L 274.220703 228.847589 
L 274.871314 231.405888 
L 275.521924 188.994303 
L 276.823144 199.561277 
L 277.473755 205.690062 
L 279.425586 219.176457 
L 280.726806 226.80519 
L 281.377417 229.747372 
L 282.028027 188.873019 
L 283.329248 200.322484 
L 283.979858 203.792263 
L 285.281079 213.5045 
L 285.931689 216.988493 
L 286.582299 221.65409 
L 287.232909 224.329902 
L 287.88352 227.68849 
L 288.53413 189.204349 
L 289.18474 194.381904 
L 289.835351 198.621891 
L 290.485961 203.640982 
L 291.136571 207.216245 
L 291.787182 212.181136 
L 292.437792 215.420411 
L 293.088402 219.498734 
L 293.739013 221.960073 
L 294.389623 225.382485 
L 295.040233 188.858371 
L 295.690844 194.056598 
L 298.943895 213.683696 
L 300.245116 219.907538 
L 300.895726 222.324393 
L 301.546336 189.64373 
L 304.148778 205.877175 
L 304.799388 208.655083 
L 306.100608 215.634032 
L 307.401829 221.102008 
L 308.052439 188.509611 
L 309.35366 197.164352 
L 310.00427 200.159046 
L 311.956101 210.688959 
L 313.907932 219.377135 
L 314.558543 189.217248 
L 315.859763 196.279558 
L 316.510373 199.917493 
L 317.811594 205.90892 
L 319.763425 214.786222 
L 320.414035 216.689668 
L 321.064646 189.171332 
L 324.317697 205.387193 
L 324.968308 206.990877 
L 325.618918 209.888653 
L 326.269528 213.451571 
L 326.920138 214.770934 
L 327.570749 188.947098 
L 328.221359 192.563799 
L 330.8238 203.481793 
L 331.474411 206.380593 
L 332.125021 207.626482 
L 333.426242 212.858 
L 334.076852 189.333712 
L 335.378073 194.807831 
L 336.028683 198.096708 
L 336.679293 199.77419 
L 337.980514 205.030175 
L 338.631124 206.439511 
L 339.281734 209.787563 
L 339.932345 211.752974 
L 340.582955 189.189999 
L 341.233565 192.117507 
L 343.836007 201.309297 
L 344.486617 204.573629 
L 345.137227 206.11081 
L 345.787837 208.276199 
L 346.438448 209.932991 
L 347.089058 188.854361 
L 347.739668 191.933346 
L 348.390279 194.362521 
L 349.040889 195.681286 
L 350.99272 203.131703 
L 351.64333 205.206061 
L 352.293941 205.907487 
L 352.944551 208.415638 
L 353.595161 188.729007 
L 354.896382 193.443593 
L 355.546992 195.160984 
L 356.197602 198.278208 
L 356.848213 199.32911 
L 357.498823 200.883882 
L 358.149433 203.841498 
L 358.800044 204.887187 
L 359.450654 207.535511 
L 360.101264 189.164771 
L 362.703706 196.635518 
L 363.354316 198.086556 
L 364.004926 200.783031 
L 364.655537 202.042733 
L 365.306147 202.674184 
L 365.956757 205.097438 
L 366.607367 189.064065 
L 367.257978 190.779938 
L 367.908588 193.079016 
L 368.559198 194.791425 
L 369.209809 195.937667 
L 370.511029 199.443619 
L 371.16164 200.435637 
L 372.46286 204.36372 
L 373.113471 189.161324 
L 374.414691 193.185344 
L 375.065302 193.733578 
L 376.366522 197.460531 
L 377.667743 199.860051 
L 378.318353 201.65978 
L 378.968963 202.729741 
L 379.619574 189.163415 
L 380.270184 191.101226 
L 380.920794 192.22456 
L 381.571405 193.679821 
L 382.222015 195.718373 
L 382.872625 196.283781 
L 385.475066 202.371196 
L 386.125677 189.343011 
L 386.776287 190.367866 
L 387.426897 192.580213 
L 388.077508 192.875028 
L 388.728118 194.042436 
L 390.679949 198.788204 
L 391.330559 199.219207 
L 391.98117 200.78815 
L 392.63178 189.093994 
L 393.933001 192.333926 
L 394.583611 193.219427 
L 395.234221 195.019447 
L 395.884831 195.714397 
L 396.535442 196.61866 
L 397.186052 197.056539 
L 397.836662 198.76981 
L 398.487273 199.877557 
L 398.487273 199.877557 
" clip-path="url(#pe794262419)" style="fill: none; stroke: #ff0000; stroke-width: 1.5; stroke-linecap: square"/>
   </g>
   <g id="patch_3">
    <path d="M 57.6 307.584 
L 57.6 41.472 
" style="fill: none; stroke: #000000; stroke-width: 0.8; stroke-linejoin: miter; stroke-linecap: square"/>
   </g>
   <g id="patch_4">
    <path d="M 414.72 307.584 
L 414.72 41.472 
" style="fill: none; stroke: #000000; stroke-width: 0.8; stroke-linejoin: miter; stroke-linecap: square"/>
   </g>
   <g id="patch_5">
    <path d="M 57.6 307.584 
L 414.72 307.584 
" style="fill: none; stroke: #000000; stroke-width: 0.8; stroke-linejoin: miter; stroke-linecap: square"/>
   </g>
   <g id="patch_6">
    <path d="M 57.6 41.472 
L 414.72 41.472 
" style="fill: none; stroke: #000000; stroke-width: 0.8; stroke-linejoin: miter; stroke-linecap: square"/>
   </g>
   <g id="text_13">
    <!-- The loss curve on λ_0.00025_non_iid_agg/host/7 -->
    <g transform="translate(90.610312 35.472) scale(0.12 -0.12)">
     <defs>
      <path id="DejaVuSans-54" d="M -19 4666 
L 3928 4666 
L 3928 4134 
L 2272 4134 
L 2272 0 
L 1638 0 
L 1638 4134 
L -19 4134 
L -19 4666 
z
" transform="scale(0.015625)"/>
      <path id="DejaVuSans-72" d="M 2631 2963 
Q 2534 3019 2420 3045 
Q 2306 3072 2169 3072 
Q 1681 3072 1420 2755 
Q 1159 2438 1159 1844 
L 1159 0 
L 581 0 
L 581 3500 
L 1159 3500 
L 1159 2956 
Q 1341 3275 1631 3429 
Q 1922 3584 2338 3584 
Q 2397 3584 2469 3576 
Q 2541 3569 2628 3553 
L 2631 2963 
z
" transform="scale(0.015625)"/>
      <path id="DejaVuSans-6e" d="M 3513 2113 
L 3513 0 
L 2938 0 
L 2938 2094 
Q 2938 2591 2744 2837 
Q 2550 3084 2163 3084 
Q 1697 3084 1428 2787 
Q 1159 2491 1159 1978 
L 1159 0 
L 581 0 
L 581 3500 
L 1159 3500 
L 1159 2956 
Q 1366 3272 1645 3428 
Q 1925 3584 2291 3584 
Q 2894 3584 3203 3211 
Q 3513 2838 3513 2113 
z
" transform="scale(0.015625)"/>
      <path id="DejaVuSans-3bb" d="M 1981 4316 
L 3597 0 
L 2988 0 
L 2006 2588 
L 800 0 
L 191 0 
L 1725 3356 
L 1494 3975 
Q 1347 4369 1013 4369 
L 713 4369 
L 713 4863 
L 1078 4856 
Q 1784 4847 1981 4316 
z
" transform="scale(0.015625)"/>
      <path id="DejaVuSans-5f" d="M 3263 -1063 
L 3263 -1509 
L -63 -1509 
L -63 -1063 
L 3263 -1063 
z
" transform="scale(0.015625)"/>
      <path id="DejaVuSans-69" d="M 603 3500 
L 1178 3500 
L 1178 0 
L 603 0 
L 603 3500 
z
M 603 4863 
L 1178 4863 
L 1178 4134 
L 603 4134 
L 603 4863 
z
" transform="scale(0.015625)"/>
      <path id="DejaVuSans-64" d="M 2906 2969 
L 2906 4863 
L 3481 4863 
L 3481 0 
L 2906 0 
L 2906 525 
Q 2725 213 2448 61 
Q 2172 -91 1784 -91 
Q 1150 -91 751 415 
Q 353 922 353 1747 
Q 353 2572 751 3078 
Q 1150 3584 1784 3584 
Q 2172 3584 2448 3432 
Q 2725 3281 2906 2969 
z
M 947 1747 
Q 947 1113 1208 752 
Q 1469 391 1925 391 
Q 2381 391 2643 752 
Q 2906 1113 2906 1747 
Q 2906 2381 2643 2742 
Q 2381 3103 1925 3103 
Q 1469 3103 1208 2742 
Q 947 2381 947 1747 
z
" transform="scale(0.015625)"/>
      <path id="DejaVuSans-67" d="M 2906 1791 
Q 2906 2416 2648 2759 
Q 2391 3103 1925 3103 
Q 1463 3103 1205 2759 
Q 947 2416 947 1791 
Q 947 1169 1205 825 
Q 1463 481 1925 481 
Q 2391 481 2648 825 
Q 2906 1169 2906 1791 
z
M 3481 434 
Q 3481 -459 3084 -895 
Q 2688 -1331 1869 -1331 
Q 1566 -1331 1297 -1286 
Q 1028 -1241 775 -1147 
L 775 -588 
Q 1028 -725 1275 -790 
Q 1522 -856 1778 -856 
Q 2344 -856 2625 -561 
Q 2906 -266 2906 331 
L 2906 616 
Q 2728 306 2450 153 
Q 2172 0 1784 0 
Q 1141 0 747 490 
Q 353 981 353 1791 
Q 353 2603 747 3093 
Q 1141 3584 1784 3584 
Q 2172 3584 2450 3431 
Q 2728 3278 2906 2969 
L 2906 3500 
L 3481 3500 
L 3481 434 
z
" transform="scale(0.015625)"/>
      <path id="DejaVuSans-2f" d="M 1625 4666 
L 2156 4666 
L 531 -594 
L 0 -594 
L 1625 4666 
z
" transform="scale(0.015625)"/>
      <path id="DejaVuSans-74" d="M 1172 4494 
L 1172 3500 
L 2356 3500 
L 2356 3053 
L 1172 3053 
L 1172 1153 
Q 1172 725 1289 603 
Q 1406 481 1766 481 
L 2356 481 
L 2356 0 
L 1766 0 
Q 1100 0 847 248 
Q 594 497 594 1153 
L 594 3053 
L 172 3053 
L 172 3500 
L 594 3500 
L 594 4494 
L 1172 4494 
z
" transform="scale(0.015625)"/>
      <path id="DejaVuSans-37" d="M 525 4666 
L 3525 4666 
L 3525 4397 
L 1831 0 
L 1172 0 
L 2766 4134 
L 525 4134 
L 525 4666 
z
" transform="scale(0.015625)"/>
     </defs>
     <use xlink:href="#DejaVuSans-54"/>
     <use xlink:href="#DejaVuSans-68" x="61.083984"/>
     <use xlink:href="#DejaVuSans-65" x="124.462891"/>
     <use xlink:href="#DejaVuSans-20" x="185.986328"/>
     <use xlink:href="#DejaVuSans-6c" x="217.773438"/>
     <use xlink:href="#DejaVuSans-6f" x="245.556641"/>
     <use xlink:href="#DejaVuSans-73" x="306.738281"/>
     <use xlink:href="#DejaVuSans-73" x="358.837891"/>
     <use xlink:href="#DejaVuSans-20" x="410.9375"/>
     <use xlink:href="#DejaVuSans-63" x="442.724609"/>
     <use xlink:href="#DejaVuSans-75" x="497.705078"/>
     <use xlink:href="#DejaVuSans-72" x="561.083984"/>
     <use xlink:href="#DejaVuSans-76" x="602.197266"/>
     <use xlink:href="#DejaVuSans-65" x="661.376953"/>
     <use xlink:href="#DejaVuSans-20" x="722.900391"/>
     <use xlink:href="#DejaVuSans-6f" x="754.6875"/>
     <use xlink:href="#DejaVuSans-6e" x="815.869141"/>
     <use xlink:href="#DejaVuSans-20" x="879.248047"/>
     <use xlink:href="#DejaVuSans-3bb" x="911.035156"/>
     <use xlink:href="#DejaVuSans-5f" x="970.214844"/>
     <use xlink:href="#DejaVuSans-30" x="1020.214844"/>
     <use xlink:href="#DejaVuSans-2e" x="1083.837891"/>
     <use xlink:href="#DejaVuSans-30" x="1115.625"/>
     <use xlink:href="#DejaVuSans-30" x="1179.248047"/>
     <use xlink:href="#DejaVuSans-30" x="1242.871094"/>
     <use xlink:href="#DejaVuSans-32" x="1306.494141"/>
     <use xlink:href="#DejaVuSans-35" x="1370.117188"/>
     <use xlink:href="#DejaVuSans-5f" x="1433.740234"/>
     <use xlink:href="#DejaVuSans-6e" x="1483.740234"/>
     <use xlink:href="#DejaVuSans-6f" x="1547.119141"/>
     <use xlink:href="#DejaVuSans-6e" x="1608.300781"/>
     <use xlink:href="#DejaVuSans-5f" x="1671.679688"/>
     <use xlink:href="#DejaVuSans-69" x="1721.679688"/>
     <use xlink:href="#DejaVuSans-69" x="1749.462891"/>
     <use xlink:href="#DejaVuSans-64" x="1777.246094"/>
     <use xlink:href="#DejaVuSans-5f" x="1840.722656"/>
     <use xlink:href="#DejaVuSans-61" x="1890.722656"/>
     <use xlink:href="#DejaVuSans-67" x="1952.001953"/>
     <use xlink:href="#DejaVuSans-67" x="2015.478516"/>
     <use xlink:href="#DejaVuSans-2f" x="2078.955078"/>
     <use xlink:href="#DejaVuSans-68" x="2112.646484"/>
     <use xlink:href="#DejaVuSans-6f" x="2176.025391"/>
     <use xlink:href="#DejaVuSans-73" x="2237.207031"/>
     <use xlink:href="#DejaVuSans-74" x="2289.306641"/>
     <use xlink:href="#DejaVuSans-2f" x="2328.515625"/>
     <use xlink:href="#DejaVuSans-37" x="2362.207031"/>
    </g>
   </g>
   <g id="legend_1">
    <g id="patch_7">
     <path d="M 317.418438 94.34075 
L 407.72 94.34075 
Q 409.72 94.34075 409.72 92.34075 
L 409.72 48.472 
Q 409.72 46.472 407.72 46.472 
L 317.418438 46.472 
Q 315.418438 46.472 315.418438 48.472 
L 315.418438 92.34075 
Q 315.418438 94.34075 317.418438 94.34075 
z
" style="fill: #ffffff; opacity: 0.8; stroke: #cccccc; stroke-linejoin: miter"/>
    </g>
    <g id="line2d_14">
     <path d="M 319.418438 54.570438 
L 329.418438 54.570438 
L 339.418438 54.570438 
" style="fill: none; stroke: #0000ff; stroke-width: 1.5; stroke-linecap: square"/>
    </g>
    <g id="text_14">
     <!-- obj_loss -->
     <g transform="translate(347.418438 58.070438) scale(0.1 -0.1)">
      <defs>
       <path id="DejaVuSans-62" d="M 3116 1747 
Q 3116 2381 2855 2742 
Q 2594 3103 2138 3103 
Q 1681 3103 1420 2742 
Q 1159 2381 1159 1747 
Q 1159 1113 1420 752 
Q 1681 391 2138 391 
Q 2594 391 2855 752 
Q 3116 1113 3116 1747 
z
M 1159 2969 
Q 1341 3281 1617 3432 
Q 1894 3584 2278 3584 
Q 2916 3584 3314 3078 
Q 3713 2572 3713 1747 
Q 3713 922 3314 415 
Q 2916 -91 2278 -91 
Q 1894 -91 1617 61 
Q 1341 213 1159 525 
L 1159 0 
L 581 0 
L 581 4863 
L 1159 4863 
L 1159 2969 
z
" transform="scale(0.015625)"/>
       <path id="DejaVuSans-6a" d="M 603 3500 
L 1178 3500 
L 1178 -63 
Q 1178 -731 923 -1031 
Q 669 -1331 103 -1331 
L -116 -1331 
L -116 -844 
L 38 -844 
Q 366 -844 484 -692 
Q 603 -541 603 -63 
L 603 3500 
z
M 603 4863 
L 1178 4863 
L 1178 4134 
L 603 4134 
L 603 4863 
z
" transform="scale(0.015625)"/>
      </defs>
      <use xlink:href="#DejaVuSans-6f"/>
      <use xlink:href="#DejaVuSans-62" x="61.181641"/>
      <use xlink:href="#DejaVuSans-6a" x="124.658203"/>
      <use xlink:href="#DejaVuSans-5f" x="152.441406"/>
      <use xlink:href="#DejaVuSans-6c" x="202.441406"/>
      <use xlink:href="#DejaVuSans-6f" x="230.224609"/>
      <use xlink:href="#DejaVuSans-73" x="291.40625"/>
      <use xlink:href="#DejaVuSans-73" x="343.505859"/>
     </g>
    </g>
    <g id="line2d_15">
     <path d="M 319.418438 69.526688 
L 329.418438 69.526688 
L 339.418438 69.526688 
" style="fill: none; stroke: #008000; stroke-width: 1.5; stroke-linecap: square"/>
    </g>
    <g id="text_15">
     <!-- reg_loss -->
     <g transform="translate(347.418438 73.026688) scale(0.1 -0.1)">
      <use xlink:href="#DejaVuSans-72"/>
      <use xlink:href="#DejaVuSans-65" x="38.863281"/>
      <use xlink:href="#DejaVuSans-67" x="100.386719"/>
      <use xlink:href="#DejaVuSans-5f" x="163.863281"/>
      <use xlink:href="#DejaVuSans-6c" x="213.863281"/>
      <use xlink:href="#DejaVuSans-6f" x="241.646484"/>
      <use xlink:href="#DejaVuSans-73" x="302.828125"/>
      <use xlink:href="#DejaVuSans-73" x="354.927734"/>
     </g>
    </g>
    <g id="line2d_16">
     <path d="M 319.418438 84.482938 
L 329.418438 84.482938 
L 339.418438 84.482938 
" style="fill: none; stroke: #ff0000; stroke-width: 1.5; stroke-linecap: square"/>
    </g>
    <g id="text_16">
     <!-- overall_loss -->
     <g transform="translate(347.418438 87.982938) scale(0.1 -0.1)">
      <use xlink:href="#DejaVuSans-6f"/>
      <use xlink:href="#DejaVuSans-76" x="61.181641"/>
      <use xlink:href="#DejaVuSans-65" x="120.361328"/>
      <use xlink:href="#DejaVuSans-72" x="181.884766"/>
      <use xlink:href="#DejaVuSans-61" x="222.998047"/>
      <use xlink:href="#DejaVuSans-6c" x="284.277344"/>
      <use xlink:href="#DejaVuSans-6c" x="312.060547"/>
      <use xlink:href="#DejaVuSans-5f" x="339.84375"/>
      <use xlink:href="#DejaVuSans-6c" x="389.84375"/>
      <use xlink:href="#DejaVuSans-6f" x="417.626953"/>
      <use xlink:href="#DejaVuSans-73" x="478.808594"/>
      <use xlink:href="#DejaVuSans-73" x="530.908203"/>
     </g>
    </g>
   </g>
  </g>
 </g>
 <defs>
  <clipPath id="pe794262419">
   <rect x="57.6" y="41.472" width="357.12" height="266.112"/>
  </clipPath>
 </defs>
</svg>
