<?xml version="1.0" encoding="utf-8" standalone="no"?>
<!DOCTYPE svg PUBLIC "-//W3C//DTD SVG 1.1//EN"
  "http://www.w3.org/Graphics/SVG/1.1/DTD/svg11.dtd">
<svg xmlns:xlink="http://www.w3.org/1999/xlink" width="460.8pt" height="345.6pt" viewBox="0 0 460.8 345.6" xmlns="http://www.w3.org/2000/svg" version="1.1">
 <metadata>
  <rdf:RDF xmlns:dc="http://purl.org/dc/elements/1.1/" xmlns:cc="http://creativecommons.org/ns#" xmlns:rdf="http://www.w3.org/1999/02/22-rdf-syntax-ns#">
   <cc:Work>
    <dc:type rdf:resource="http://purl.org/dc/dcmitype/StillImage"/>
    <dc:date>2023-04-13T09:23:01.727800</dc:date>
    <dc:format>image/svg+xml</dc:format>
    <dc:creator>
     <cc:Agent>
      <dc:title>Matplotlib v3.7.1, https://matplotlib.org/</dc:title>
     </cc:Agent>
    </dc:creator>
   </cc:Work>
  </rdf:RDF>
 </metadata>
 <defs>
  <style type="text/css">*{stroke-linejoin: round; stroke-linecap: butt}</style>
 </defs>
 <g id="figure_1">
  <g id="patch_1">
   <path d="M 0 345.6 
L 460.8 345.6 
L 460.8 0 
L 0 0 
z
" style="fill: #ffffff"/>
  </g>
  <g id="axes_1">
   <g id="patch_2">
    <path d="M 57.6 307.584 
L 414.72 307.584 
L 414.72 41.472 
L 57.6 41.472 
z
" style="fill: #ffffff"/>
   </g>
   <g id="matplotlib.axis_1">
    <g id="xtick_1">
     <g id="line2d_1">
      <defs>
       <path id="m19e0a2278f" d="M 0 0 
L 0 3.5 
" style="stroke: #000000; stroke-width: 0.8"/>
      </defs>
      <g>
       <use xlink:href="#m19e0a2278f" x="73.832727" y="307.584" style="stroke: #000000; stroke-width: 0.8"/>
      </g>
     </g>
     <g id="text_1">
      <!-- 0 -->
      <g transform="translate(70.651477 322.182437) scale(0.1 -0.1)">
       <defs>
        <path id="DejaVuSans-30" d="M 2034 4250 
Q 1547 4250 1301 3770 
Q 1056 3291 1056 2328 
Q 1056 1369 1301 889 
Q 1547 409 2034 409 
Q 2525 409 2770 889 
Q 3016 1369 3016 2328 
Q 3016 3291 2770 3770 
Q 2525 4250 2034 4250 
z
M 2034 4750 
Q 2819 4750 3233 4129 
Q 3647 3509 3647 2328 
Q 3647 1150 3233 529 
Q 2819 -91 2034 -91 
Q 1250 -91 836 529 
Q 422 1150 422 2328 
Q 422 3509 836 4129 
Q 1250 4750 2034 4750 
z
" transform="scale(0.015625)"/>
       </defs>
       <use xlink:href="#DejaVuSans-30"/>
      </g>
     </g>
    </g>
    <g id="xtick_2">
     <g id="line2d_2">
      <g>
       <use xlink:href="#m19e0a2278f" x="138.893758" y="307.584" style="stroke: #000000; stroke-width: 0.8"/>
      </g>
     </g>
     <g id="text_2">
      <!-- 100 -->
      <g transform="translate(129.350008 322.182437) scale(0.1 -0.1)">
       <defs>
        <path id="DejaVuSans-31" d="M 794 531 
L 1825 531 
L 1825 4091 
L 703 3866 
L 703 4441 
L 1819 4666 
L 2450 4666 
L 2450 531 
L 3481 531 
L 3481 0 
L 794 0 
L 794 531 
z
" transform="scale(0.015625)"/>
       </defs>
       <use xlink:href="#DejaVuSans-31"/>
       <use xlink:href="#DejaVuSans-30" x="63.623047"/>
       <use xlink:href="#DejaVuSans-30" x="127.246094"/>
      </g>
     </g>
    </g>
    <g id="xtick_3">
     <g id="line2d_3">
      <g>
       <use xlink:href="#m19e0a2278f" x="203.95479" y="307.584" style="stroke: #000000; stroke-width: 0.8"/>
      </g>
     </g>
     <g id="text_3">
      <!-- 200 -->
      <g transform="translate(194.41104 322.182437) scale(0.1 -0.1)">
       <defs>
        <path id="DejaVuSans-32" d="M 1228 531 
L 3431 531 
L 3431 0 
L 469 0 
L 469 531 
Q 828 903 1448 1529 
Q 2069 2156 2228 2338 
Q 2531 2678 2651 2914 
Q 2772 3150 2772 3378 
Q 2772 3750 2511 3984 
Q 2250 4219 1831 4219 
Q 1534 4219 1204 4116 
Q 875 4013 500 3803 
L 500 4441 
Q 881 4594 1212 4672 
Q 1544 4750 1819 4750 
Q 2544 4750 2975 4387 
Q 3406 4025 3406 3419 
Q 3406 3131 3298 2873 
Q 3191 2616 2906 2266 
Q 2828 2175 2409 1742 
Q 1991 1309 1228 531 
z
" transform="scale(0.015625)"/>
       </defs>
       <use xlink:href="#DejaVuSans-32"/>
       <use xlink:href="#DejaVuSans-30" x="63.623047"/>
       <use xlink:href="#DejaVuSans-30" x="127.246094"/>
      </g>
     </g>
    </g>
    <g id="xtick_4">
     <g id="line2d_4">
      <g>
       <use xlink:href="#m19e0a2278f" x="269.015821" y="307.584" style="stroke: #000000; stroke-width: 0.8"/>
      </g>
     </g>
     <g id="text_4">
      <!-- 300 -->
      <g transform="translate(259.472071 322.182437) scale(0.1 -0.1)">
       <defs>
        <path id="DejaVuSans-33" d="M 2597 2516 
Q 3050 2419 3304 2112 
Q 3559 1806 3559 1356 
Q 3559 666 3084 287 
Q 2609 -91 1734 -91 
Q 1441 -91 1130 -33 
Q 819 25 488 141 
L 488 750 
Q 750 597 1062 519 
Q 1375 441 1716 441 
Q 2309 441 2620 675 
Q 2931 909 2931 1356 
Q 2931 1769 2642 2001 
Q 2353 2234 1838 2234 
L 1294 2234 
L 1294 2753 
L 1863 2753 
Q 2328 2753 2575 2939 
Q 2822 3125 2822 3475 
Q 2822 3834 2567 4026 
Q 2313 4219 1838 4219 
Q 1578 4219 1281 4162 
Q 984 4106 628 3988 
L 628 4550 
Q 988 4650 1302 4700 
Q 1616 4750 1894 4750 
Q 2613 4750 3031 4423 
Q 3450 4097 3450 3541 
Q 3450 3153 3228 2886 
Q 3006 2619 2597 2516 
z
" transform="scale(0.015625)"/>
       </defs>
       <use xlink:href="#DejaVuSans-33"/>
       <use xlink:href="#DejaVuSans-30" x="63.623047"/>
       <use xlink:href="#DejaVuSans-30" x="127.246094"/>
      </g>
     </g>
    </g>
    <g id="xtick_5">
     <g id="line2d_5">
      <g>
       <use xlink:href="#m19e0a2278f" x="334.076852" y="307.584" style="stroke: #000000; stroke-width: 0.8"/>
      </g>
     </g>
     <g id="text_5">
      <!-- 400 -->
      <g transform="translate(324.533102 322.182437) scale(0.1 -0.1)">
       <defs>
        <path id="DejaVuSans-34" d="M 2419 4116 
L 825 1625 
L 2419 1625 
L 2419 4116 
z
M 2253 4666 
L 3047 4666 
L 3047 1625 
L 3713 1625 
L 3713 1100 
L 3047 1100 
L 3047 0 
L 2419 0 
L 2419 1100 
L 313 1100 
L 313 1709 
L 2253 4666 
z
" transform="scale(0.015625)"/>
       </defs>
       <use xlink:href="#DejaVuSans-34"/>
       <use xlink:href="#DejaVuSans-30" x="63.623047"/>
       <use xlink:href="#DejaVuSans-30" x="127.246094"/>
      </g>
     </g>
    </g>
    <g id="xtick_6">
     <g id="line2d_6">
      <g>
       <use xlink:href="#m19e0a2278f" x="399.137883" y="307.584" style="stroke: #000000; stroke-width: 0.8"/>
      </g>
     </g>
     <g id="text_6">
      <!-- 500 -->
      <g transform="translate(389.594133 322.182437) scale(0.1 -0.1)">
       <defs>
        <path id="DejaVuSans-35" d="M 691 4666 
L 3169 4666 
L 3169 4134 
L 1269 4134 
L 1269 2991 
Q 1406 3038 1543 3061 
Q 1681 3084 1819 3084 
Q 2600 3084 3056 2656 
Q 3513 2228 3513 1497 
Q 3513 744 3044 326 
Q 2575 -91 1722 -91 
Q 1428 -91 1123 -41 
Q 819 9 494 109 
L 494 744 
Q 775 591 1075 516 
Q 1375 441 1709 441 
Q 2250 441 2565 725 
Q 2881 1009 2881 1497 
Q 2881 1984 2565 2268 
Q 2250 2553 1709 2553 
Q 1456 2553 1204 2497 
Q 953 2441 691 2322 
L 691 4666 
z
" transform="scale(0.015625)"/>
       </defs>
       <use xlink:href="#DejaVuSans-35"/>
       <use xlink:href="#DejaVuSans-30" x="63.623047"/>
       <use xlink:href="#DejaVuSans-30" x="127.246094"/>
      </g>
     </g>
    </g>
    <g id="text_7">
     <!-- epoch -->
     <g transform="translate(220.931875 335.860562) scale(0.1 -0.1)">
      <defs>
       <path id="DejaVuSans-65" d="M 3597 1894 
L 3597 1613 
L 953 1613 
Q 991 1019 1311 708 
Q 1631 397 2203 397 
Q 2534 397 2845 478 
Q 3156 559 3463 722 
L 3463 178 
Q 3153 47 2828 -22 
Q 2503 -91 2169 -91 
Q 1331 -91 842 396 
Q 353 884 353 1716 
Q 353 2575 817 3079 
Q 1281 3584 2069 3584 
Q 2775 3584 3186 3129 
Q 3597 2675 3597 1894 
z
M 3022 2063 
Q 3016 2534 2758 2815 
Q 2500 3097 2075 3097 
Q 1594 3097 1305 2825 
Q 1016 2553 972 2059 
L 3022 2063 
z
" transform="scale(0.015625)"/>
       <path id="DejaVuSans-70" d="M 1159 525 
L 1159 -1331 
L 581 -1331 
L 581 3500 
L 1159 3500 
L 1159 2969 
Q 1341 3281 1617 3432 
Q 1894 3584 2278 3584 
Q 2916 3584 3314 3078 
Q 3713 2572 3713 1747 
Q 3713 922 3314 415 
Q 2916 -91 2278 -91 
Q 1894 -91 1617 61 
Q 1341 213 1159 525 
z
M 3116 1747 
Q 3116 2381 2855 2742 
Q 2594 3103 2138 3103 
Q 1681 3103 1420 2742 
Q 1159 2381 1159 1747 
Q 1159 1113 1420 752 
Q 1681 391 2138 391 
Q 2594 391 2855 752 
Q 3116 1113 3116 1747 
z
" transform="scale(0.015625)"/>
       <path id="DejaVuSans-6f" d="M 1959 3097 
Q 1497 3097 1228 2736 
Q 959 2375 959 1747 
Q 959 1119 1226 758 
Q 1494 397 1959 397 
Q 2419 397 2687 759 
Q 2956 1122 2956 1747 
Q 2956 2369 2687 2733 
Q 2419 3097 1959 3097 
z
M 1959 3584 
Q 2709 3584 3137 3096 
Q 3566 2609 3566 1747 
Q 3566 888 3137 398 
Q 2709 -91 1959 -91 
Q 1206 -91 779 398 
Q 353 888 353 1747 
Q 353 2609 779 3096 
Q 1206 3584 1959 3584 
z
" transform="scale(0.015625)"/>
       <path id="DejaVuSans-63" d="M 3122 3366 
L 3122 2828 
Q 2878 2963 2633 3030 
Q 2388 3097 2138 3097 
Q 1578 3097 1268 2742 
Q 959 2388 959 1747 
Q 959 1106 1268 751 
Q 1578 397 2138 397 
Q 2388 397 2633 464 
Q 2878 531 3122 666 
L 3122 134 
Q 2881 22 2623 -34 
Q 2366 -91 2075 -91 
Q 1284 -91 818 406 
Q 353 903 353 1747 
Q 353 2603 823 3093 
Q 1294 3584 2113 3584 
Q 2378 3584 2631 3529 
Q 2884 3475 3122 3366 
z
" transform="scale(0.015625)"/>
       <path id="DejaVuSans-68" d="M 3513 2113 
L 3513 0 
L 2938 0 
L 2938 2094 
Q 2938 2591 2744 2837 
Q 2550 3084 2163 3084 
Q 1697 3084 1428 2787 
Q 1159 2491 1159 1978 
L 1159 0 
L 581 0 
L 581 4863 
L 1159 4863 
L 1159 2956 
Q 1366 3272 1645 3428 
Q 1925 3584 2291 3584 
Q 2894 3584 3203 3211 
Q 3513 2838 3513 2113 
z
" transform="scale(0.015625)"/>
      </defs>
      <use xlink:href="#DejaVuSans-65"/>
      <use xlink:href="#DejaVuSans-70" x="61.523438"/>
      <use xlink:href="#DejaVuSans-6f" x="125"/>
      <use xlink:href="#DejaVuSans-63" x="186.181641"/>
      <use xlink:href="#DejaVuSans-68" x="241.162109"/>
     </g>
    </g>
   </g>
   <g id="matplotlib.axis_2">
    <g id="ytick_1">
     <g id="line2d_7">
      <defs>
       <path id="mf51dae252a" d="M 0 0 
L -3.5 0 
" style="stroke: #000000; stroke-width: 0.8"/>
      </defs>
      <g>
       <use xlink:href="#mf51dae252a" x="57.6" y="295.394223" style="stroke: #000000; stroke-width: 0.8"/>
      </g>
     </g>
     <g id="text_8">
      <!-- 0.1 -->
      <g transform="translate(34.696875 299.193442) scale(0.1 -0.1)">
       <defs>
        <path id="DejaVuSans-2e" d="M 684 794 
L 1344 794 
L 1344 0 
L 684 0 
L 684 794 
z
" transform="scale(0.015625)"/>
       </defs>
       <use xlink:href="#DejaVuSans-30"/>
       <use xlink:href="#DejaVuSans-2e" x="63.623047"/>
       <use xlink:href="#DejaVuSans-31" x="95.410156"/>
      </g>
     </g>
    </g>
    <g id="ytick_2">
     <g id="line2d_8">
      <g>
       <use xlink:href="#mf51dae252a" x="57.6" y="265.778079" style="stroke: #000000; stroke-width: 0.8"/>
      </g>
     </g>
     <g id="text_9">
      <!-- 0.2 -->
      <g transform="translate(34.696875 269.577298) scale(0.1 -0.1)">
       <use xlink:href="#DejaVuSans-30"/>
       <use xlink:href="#DejaVuSans-2e" x="63.623047"/>
       <use xlink:href="#DejaVuSans-32" x="95.410156"/>
      </g>
     </g>
    </g>
    <g id="ytick_3">
     <g id="line2d_9">
      <g>
       <use xlink:href="#mf51dae252a" x="57.6" y="236.161935" style="stroke: #000000; stroke-width: 0.8"/>
      </g>
     </g>
     <g id="text_10">
      <!-- 0.3 -->
      <g transform="translate(34.696875 239.961154) scale(0.1 -0.1)">
       <use xlink:href="#DejaVuSans-30"/>
       <use xlink:href="#DejaVuSans-2e" x="63.623047"/>
       <use xlink:href="#DejaVuSans-33" x="95.410156"/>
      </g>
     </g>
    </g>
    <g id="ytick_4">
     <g id="line2d_10">
      <g>
       <use xlink:href="#mf51dae252a" x="57.6" y="206.545791" style="stroke: #000000; stroke-width: 0.8"/>
      </g>
     </g>
     <g id="text_11">
      <!-- 0.4 -->
      <g transform="translate(34.696875 210.34501) scale(0.1 -0.1)">
       <use xlink:href="#DejaVuSans-30"/>
       <use xlink:href="#DejaVuSans-2e" x="63.623047"/>
       <use xlink:href="#DejaVuSans-34" x="95.410156"/>
      </g>
     </g>
    </g>
    <g id="ytick_5">
     <g id="line2d_11">
      <g>
       <use xlink:href="#mf51dae252a" x="57.6" y="176.929647" style="stroke: #000000; stroke-width: 0.8"/>
      </g>
     </g>
     <g id="text_12">
      <!-- 0.5 -->
      <g transform="translate(34.696875 180.728866) scale(0.1 -0.1)">
       <use xlink:href="#DejaVuSans-30"/>
       <use xlink:href="#DejaVuSans-2e" x="63.623047"/>
       <use xlink:href="#DejaVuSans-35" x="95.410156"/>
      </g>
     </g>
    </g>
    <g id="ytick_6">
     <g id="line2d_12">
      <g>
       <use xlink:href="#mf51dae252a" x="57.6" y="147.313503" style="stroke: #000000; stroke-width: 0.8"/>
      </g>
     </g>
     <g id="text_13">
      <!-- 0.6 -->
      <g transform="translate(34.696875 151.112722) scale(0.1 -0.1)">
       <defs>
        <path id="DejaVuSans-36" d="M 2113 2584 
Q 1688 2584 1439 2293 
Q 1191 2003 1191 1497 
Q 1191 994 1439 701 
Q 1688 409 2113 409 
Q 2538 409 2786 701 
Q 3034 994 3034 1497 
Q 3034 2003 2786 2293 
Q 2538 2584 2113 2584 
z
M 3366 4563 
L 3366 3988 
Q 3128 4100 2886 4159 
Q 2644 4219 2406 4219 
Q 1781 4219 1451 3797 
Q 1122 3375 1075 2522 
Q 1259 2794 1537 2939 
Q 1816 3084 2150 3084 
Q 2853 3084 3261 2657 
Q 3669 2231 3669 1497 
Q 3669 778 3244 343 
Q 2819 -91 2113 -91 
Q 1303 -91 875 529 
Q 447 1150 447 2328 
Q 447 3434 972 4092 
Q 1497 4750 2381 4750 
Q 2619 4750 2861 4703 
Q 3103 4656 3366 4563 
z
" transform="scale(0.015625)"/>
       </defs>
       <use xlink:href="#DejaVuSans-30"/>
       <use xlink:href="#DejaVuSans-2e" x="63.623047"/>
       <use xlink:href="#DejaVuSans-36" x="95.410156"/>
      </g>
     </g>
    </g>
    <g id="ytick_7">
     <g id="line2d_13">
      <g>
       <use xlink:href="#mf51dae252a" x="57.6" y="117.697359" style="stroke: #000000; stroke-width: 0.8"/>
      </g>
     </g>
     <g id="text_14">
      <!-- 0.7 -->
      <g transform="translate(34.696875 121.496578) scale(0.1 -0.1)">
       <defs>
        <path id="DejaVuSans-37" d="M 525 4666 
L 3525 4666 
L 3525 4397 
L 1831 0 
L 1172 0 
L 2766 4134 
L 525 4134 
L 525 4666 
z
" transform="scale(0.015625)"/>
       </defs>
       <use xlink:href="#DejaVuSans-30"/>
       <use xlink:href="#DejaVuSans-2e" x="63.623047"/>
       <use xlink:href="#DejaVuSans-37" x="95.410156"/>
      </g>
     </g>
    </g>
    <g id="ytick_8">
     <g id="line2d_14">
      <g>
       <use xlink:href="#mf51dae252a" x="57.6" y="88.081215" style="stroke: #000000; stroke-width: 0.8"/>
      </g>
     </g>
     <g id="text_15">
      <!-- 0.8 -->
      <g transform="translate(34.696875 91.880433) scale(0.1 -0.1)">
       <defs>
        <path id="DejaVuSans-38" d="M 2034 2216 
Q 1584 2216 1326 1975 
Q 1069 1734 1069 1313 
Q 1069 891 1326 650 
Q 1584 409 2034 409 
Q 2484 409 2743 651 
Q 3003 894 3003 1313 
Q 3003 1734 2745 1975 
Q 2488 2216 2034 2216 
z
M 1403 2484 
Q 997 2584 770 2862 
Q 544 3141 544 3541 
Q 544 4100 942 4425 
Q 1341 4750 2034 4750 
Q 2731 4750 3128 4425 
Q 3525 4100 3525 3541 
Q 3525 3141 3298 2862 
Q 3072 2584 2669 2484 
Q 3125 2378 3379 2068 
Q 3634 1759 3634 1313 
Q 3634 634 3220 271 
Q 2806 -91 2034 -91 
Q 1263 -91 848 271 
Q 434 634 434 1313 
Q 434 1759 690 2068 
Q 947 2378 1403 2484 
z
M 1172 3481 
Q 1172 3119 1398 2916 
Q 1625 2713 2034 2713 
Q 2441 2713 2670 2916 
Q 2900 3119 2900 3481 
Q 2900 3844 2670 4047 
Q 2441 4250 2034 4250 
Q 1625 4250 1398 4047 
Q 1172 3844 1172 3481 
z
" transform="scale(0.015625)"/>
       </defs>
       <use xlink:href="#DejaVuSans-30"/>
       <use xlink:href="#DejaVuSans-2e" x="63.623047"/>
       <use xlink:href="#DejaVuSans-38" x="95.410156"/>
      </g>
     </g>
    </g>
    <g id="ytick_9">
     <g id="line2d_15">
      <g>
       <use xlink:href="#mf51dae252a" x="57.6" y="58.465071" style="stroke: #000000; stroke-width: 0.8"/>
      </g>
     </g>
     <g id="text_16">
      <!-- 0.9 -->
      <g transform="translate(34.696875 62.264289) scale(0.1 -0.1)">
       <defs>
        <path id="DejaVuSans-39" d="M 703 97 
L 703 672 
Q 941 559 1184 500 
Q 1428 441 1663 441 
Q 2288 441 2617 861 
Q 2947 1281 2994 2138 
Q 2813 1869 2534 1725 
Q 2256 1581 1919 1581 
Q 1219 1581 811 2004 
Q 403 2428 403 3163 
Q 403 3881 828 4315 
Q 1253 4750 1959 4750 
Q 2769 4750 3195 4129 
Q 3622 3509 3622 2328 
Q 3622 1225 3098 567 
Q 2575 -91 1691 -91 
Q 1453 -91 1209 -44 
Q 966 3 703 97 
z
M 1959 2075 
Q 2384 2075 2632 2365 
Q 2881 2656 2881 3163 
Q 2881 3666 2632 3958 
Q 2384 4250 1959 4250 
Q 1534 4250 1286 3958 
Q 1038 3666 1038 3163 
Q 1038 2656 1286 2365 
Q 1534 2075 1959 2075 
z
" transform="scale(0.015625)"/>
       </defs>
       <use xlink:href="#DejaVuSans-30"/>
       <use xlink:href="#DejaVuSans-2e" x="63.623047"/>
       <use xlink:href="#DejaVuSans-39" x="95.410156"/>
      </g>
     </g>
    </g>
    <g id="text_17">
     <!-- loss value -->
     <g transform="translate(28.617187 199.432687) rotate(-90) scale(0.1 -0.1)">
      <defs>
       <path id="DejaVuSans-6c" d="M 603 4863 
L 1178 4863 
L 1178 0 
L 603 0 
L 603 4863 
z
" transform="scale(0.015625)"/>
       <path id="DejaVuSans-73" d="M 2834 3397 
L 2834 2853 
Q 2591 2978 2328 3040 
Q 2066 3103 1784 3103 
Q 1356 3103 1142 2972 
Q 928 2841 928 2578 
Q 928 2378 1081 2264 
Q 1234 2150 1697 2047 
L 1894 2003 
Q 2506 1872 2764 1633 
Q 3022 1394 3022 966 
Q 3022 478 2636 193 
Q 2250 -91 1575 -91 
Q 1294 -91 989 -36 
Q 684 19 347 128 
L 347 722 
Q 666 556 975 473 
Q 1284 391 1588 391 
Q 1994 391 2212 530 
Q 2431 669 2431 922 
Q 2431 1156 2273 1281 
Q 2116 1406 1581 1522 
L 1381 1569 
Q 847 1681 609 1914 
Q 372 2147 372 2553 
Q 372 3047 722 3315 
Q 1072 3584 1716 3584 
Q 2034 3584 2315 3537 
Q 2597 3491 2834 3397 
z
" transform="scale(0.015625)"/>
       <path id="DejaVuSans-20" transform="scale(0.015625)"/>
       <path id="DejaVuSans-76" d="M 191 3500 
L 800 3500 
L 1894 563 
L 2988 3500 
L 3597 3500 
L 2284 0 
L 1503 0 
L 191 3500 
z
" transform="scale(0.015625)"/>
       <path id="DejaVuSans-61" d="M 2194 1759 
Q 1497 1759 1228 1600 
Q 959 1441 959 1056 
Q 959 750 1161 570 
Q 1363 391 1709 391 
Q 2188 391 2477 730 
Q 2766 1069 2766 1631 
L 2766 1759 
L 2194 1759 
z
M 3341 1997 
L 3341 0 
L 2766 0 
L 2766 531 
Q 2569 213 2275 61 
Q 1981 -91 1556 -91 
Q 1019 -91 701 211 
Q 384 513 384 1019 
Q 384 1609 779 1909 
Q 1175 2209 1959 2209 
L 2766 2209 
L 2766 2266 
Q 2766 2663 2505 2880 
Q 2244 3097 1772 3097 
Q 1472 3097 1187 3025 
Q 903 2953 641 2809 
L 641 3341 
Q 956 3463 1253 3523 
Q 1550 3584 1831 3584 
Q 2591 3584 2966 3190 
Q 3341 2797 3341 1997 
z
" transform="scale(0.015625)"/>
       <path id="DejaVuSans-75" d="M 544 1381 
L 544 3500 
L 1119 3500 
L 1119 1403 
Q 1119 906 1312 657 
Q 1506 409 1894 409 
Q 2359 409 2629 706 
Q 2900 1003 2900 1516 
L 2900 3500 
L 3475 3500 
L 3475 0 
L 2900 0 
L 2900 538 
Q 2691 219 2414 64 
Q 2138 -91 1772 -91 
Q 1169 -91 856 284 
Q 544 659 544 1381 
z
M 1991 3584 
L 1991 3584 
z
" transform="scale(0.015625)"/>
      </defs>
      <use xlink:href="#DejaVuSans-6c"/>
      <use xlink:href="#DejaVuSans-6f" x="27.783203"/>
      <use xlink:href="#DejaVuSans-73" x="88.964844"/>
      <use xlink:href="#DejaVuSans-73" x="141.064453"/>
      <use xlink:href="#DejaVuSans-20" x="193.164062"/>
      <use xlink:href="#DejaVuSans-76" x="224.951172"/>
      <use xlink:href="#DejaVuSans-61" x="284.130859"/>
      <use xlink:href="#DejaVuSans-6c" x="345.410156"/>
      <use xlink:href="#DejaVuSans-75" x="373.193359"/>
      <use xlink:href="#DejaVuSans-65" x="436.572266"/>
     </g>
    </g>
   </g>
   <g id="line2d_16">
    <path d="M 73.832727 89.601506 
L 74.483338 135.73814 
L 75.133948 195.90769 
L 75.784558 245.540704 
L 76.435169 270.084491 
L 77.085779 280.600726 
L 77.736389 284.191851 
L 78.386999 284.100967 
L 79.03761 282.546303 
L 79.68822 283.109288 
L 80.33883 218.126802 
L 80.989441 246.146197 
L 81.640051 266.457871 
L 82.290661 276.757098 
L 82.941272 280.709629 
L 83.591882 282.243649 
L 84.242492 282.230921 
L 84.893103 281.871391 
L 85.543713 282.215096 
L 86.194323 282.954457 
L 86.844934 226.121205 
L 87.495544 252.965254 
L 88.146154 270.411638 
L 88.796764 280.031174 
L 89.447375 284.757595 
L 90.097985 285.908434 
L 90.748595 287.647722 
L 91.399206 287.700151 
L 92.049816 286.981054 
L 92.700426 287.174209 
L 93.351037 221.402992 
L 94.001647 250.102188 
L 94.652257 271.235591 
L 95.302868 282.867019 
L 95.953478 286.606329 
L 97.254698 290.024525 
L 97.905309 289.863214 
L 98.555919 290.200946 
L 99.206529 290.669095 
L 99.85714 225.508474 
L 100.50775 253.284748 
L 101.15836 273.020145 
L 101.808971 283.45772 
L 102.459581 288.853304 
L 103.110191 289.64039 
L 103.760802 291.198097 
L 104.411412 291.393251 
L 105.062022 292.279808 
L 105.712633 292.097878 
L 106.363243 224.832892 
L 107.013853 253.285463 
L 107.664463 274.508241 
L 108.315074 284.753327 
L 108.965684 290.25867 
L 109.616294 290.980314 
L 110.266905 292.772682 
L 111.568125 292.279722 
L 112.218736 291.761579 
L 112.869346 226.393955 
L 113.519956 255.364184 
L 114.170567 275.10241 
L 114.821177 284.613144 
L 115.471787 289.245587 
L 116.122398 291.946267 
L 116.773008 291.331978 
L 118.074228 292.844517 
L 118.724839 293.306827 
L 119.375449 224.905656 
L 120.026059 254.15721 
L 120.67667 274.833269 
L 121.32728 285.76024 
L 121.97789 290.176201 
L 122.628501 290.931384 
L 123.279111 293.522326 
L 124.580332 292.455968 
L 125.230942 293.324846 
L 125.881552 226.664446 
L 126.532163 256.2961 
L 127.182773 275.066147 
L 127.833383 285.978391 
L 128.483993 290.576913 
L 129.134604 292.200133 
L 129.785214 293.012539 
L 130.435824 293.187456 
L 131.086435 293.713358 
L 131.737045 294.570266 
L 132.387655 226.079695 
L 133.038266 255.683255 
L 133.688876 275.219826 
L 134.339486 286.063291 
L 135.640707 294.469039 
L 136.291317 293.979919 
L 136.941927 294.351985 
L 137.592538 294.020041 
L 138.243148 295.488 
L 138.893758 226.956261 
L 139.544369 256.903186 
L 140.845589 273.238551 
L 141.4962 278.850202 
L 142.14681 283.325303 
L 143.448031 288.955711 
L 144.749251 291.316076 
L 145.399862 224.803527 
L 146.701082 254.777761 
L 147.351692 267.32389 
L 148.652913 281.943859 
L 149.303523 285.546565 
L 149.954134 287.171151 
L 150.604744 290.150481 
L 151.255354 290.981122 
L 151.905965 224.876855 
L 153.207185 255.992202 
L 154.508406 275.545132 
L 155.159016 282.010004 
L 155.809627 285.293506 
L 156.460237 287.208835 
L 157.110847 288.214223 
L 157.761457 290.427395 
L 158.412068 225.605025 
L 159.713288 254.627387 
L 160.363899 266.404185 
L 161.014509 274.477618 
L 161.665119 280.430449 
L 162.31573 284.670577 
L 162.96634 286.991271 
L 163.61695 288.754048 
L 164.267561 288.821333 
L 164.918171 224.76725 
L 165.568781 240.716522 
L 166.870002 264.097043 
L 168.171222 279.362039 
L 168.821833 282.992384 
L 170.123053 288.31701 
L 170.773664 288.979514 
L 171.424274 224.122454 
L 172.074884 238.998148 
L 173.376105 262.174495 
L 174.026715 271.443613 
L 175.327936 282.076713 
L 175.978546 285.198266 
L 177.279767 288.602975 
L 177.930377 224.902514 
L 178.580987 239.133561 
L 179.882208 260.660696 
L 181.183429 275.892227 
L 181.834039 280.75429 
L 183.13526 286.671776 
L 183.78587 286.709531 
L 184.43648 224.766747 
L 185.737701 249.701288 
L 186.388311 260.191662 
L 187.689532 273.610981 
L 188.340142 278.887983 
L 189.641363 285.271692 
L 190.291973 285.800533 
L 190.942583 225.576525 
L 192.894414 258.156675 
L 194.195635 273.036275 
L 195.496856 280.721033 
L 196.798076 284.994771 
L 197.448686 224.930952 
L 198.749907 247.273165 
L 200.051128 264.679606 
L 200.701738 269.563042 
L 201.352348 275.51537 
L 202.002959 279.36523 
L 202.653569 281.652322 
L 203.304179 284.802168 
L 203.95479 224.574228 
L 204.6054 236.445229 
L 205.906621 255.145164 
L 207.207841 269.152046 
L 207.858451 274.407674 
L 208.509062 275.73909 
L 209.159672 280.875934 
L 209.810282 283.55578 
L 210.460893 225.123515 
L 211.111503 235.570896 
L 211.762113 243.63921 
L 212.412724 253.376599 
L 213.063334 260.972807 
L 213.713944 267.046951 
L 214.364555 271.687572 
L 215.665775 279.282311 
L 216.316385 281.329505 
L 216.966996 225.153648 
L 218.268216 243.991388 
L 219.569437 259.577634 
L 220.220047 265.473867 
L 221.521268 274.377925 
L 222.171878 277.241684 
L 222.822489 279.522607 
L 223.473099 225.372426 
L 225.42493 250.35116 
L 227.376761 268.641546 
L 228.027371 271.651967 
L 229.328592 278.776136 
L 229.979202 224.933238 
L 231.280423 241.888205 
L 232.581643 256.173671 
L 234.533474 270.808892 
L 235.834695 275.776704 
L 236.485305 225.047256 
L 237.786526 241.555489 
L 239.738357 259.685302 
L 240.388967 264.451667 
L 241.039577 268.197737 
L 241.690188 272.794611 
L 242.340798 274.896126 
L 242.991408 224.986955 
L 244.292629 239.855385 
L 245.59385 252.9058 
L 246.24446 258.374477 
L 246.89507 261.783971 
L 247.54568 267.365951 
L 248.846901 272.412273 
L 249.497511 224.793323 
L 250.798732 238.994776 
L 251.449342 246.100988 
L 254.051784 265.516701 
L 254.702394 268.061301 
L 255.353004 271.346038 
L 256.003615 225.439144 
L 257.955445 244.469279 
L 259.907276 259.247328 
L 261.208497 266.4243 
L 261.859107 269.136392 
L 262.509718 225.586949 
L 263.160328 232.31363 
L 263.810938 237.710656 
L 264.461549 242.117406 
L 265.112159 248.149396 
L 265.762769 252.694414 
L 266.413379 256.123021 
L 267.06399 261.112144 
L 268.36521 267.027 
L 269.015821 226.098389 
L 269.666431 231.579141 
L 270.317041 235.992387 
L 272.268872 250.983891 
L 272.919483 255.461494 
L 274.220703 261.96566 
L 274.871314 265.512508 
L 275.521924 225.221823 
L 278.774975 249.431627 
L 280.076196 255.846568 
L 280.726806 260.5922 
L 281.377417 263.987633 
L 282.028027 225.247331 
L 282.678637 231.124277 
L 283.329248 234.860185 
L 285.281079 248.315154 
L 285.931689 251.223198 
L 286.582299 255.373982 
L 287.88352 261.299786 
L 288.53413 225.205564 
L 290.485961 238.772812 
L 291.787182 246.78267 
L 294.389623 258.312446 
L 295.040233 225.157752 
L 295.690844 230.064486 
L 300.245116 254.587594 
L 300.895726 257.559307 
L 301.546336 225.465852 
L 302.196947 228.447526 
L 303.498167 237.682085 
L 304.148778 240.897373 
L 304.799388 243.04588 
L 306.100608 249.572522 
L 306.751219 252.246881 
L 307.401829 255.560693 
L 308.052439 226.307572 
L 309.35366 232.278281 
L 310.654881 239.766036 
L 313.257322 250.44907 
L 313.907932 253.1094 
L 314.558543 226.087435 
L 315.209153 229.117204 
L 315.859763 232.850957 
L 317.160984 237.976318 
L 317.811594 241.296234 
L 318.462204 243.456055 
L 319.112815 246.847826 
L 319.763425 248.978891 
L 320.414035 250.24558 
L 321.064646 225.680057 
L 324.317697 240.710988 
L 325.618918 244.811422 
L 326.269528 247.057 
L 326.920138 250.096256 
L 327.570749 225.207286 
L 328.221359 228.056697 
L 328.871969 231.551779 
L 329.52258 234.311719 
L 330.17319 235.935996 
L 330.8238 238.87232 
L 331.474411 241.170079 
L 332.125021 244.145892 
L 332.775631 245.085726 
L 333.426242 247.873018 
L 334.076852 225.109428 
L 334.727462 226.954187 
L 335.378073 231.021901 
L 336.028683 232.96938 
L 338.631124 242.791506 
L 339.281734 244.24172 
L 339.932345 246.091129 
L 340.582955 226.402119 
L 341.233565 227.700556 
L 341.884176 229.647179 
L 342.534786 232.927905 
L 343.185396 233.9721 
L 344.486617 239.243192 
L 345.137227 240.711668 
L 345.787837 243.563551 
L 346.438448 244.737316 
L 347.089058 225.291268 
L 347.739668 228.450906 
L 349.040889 232.130528 
L 350.34211 236.646186 
L 350.99272 238.398048 
L 351.64333 239.571292 
L 352.293941 242.23191 
L 352.944551 243.118794 
L 353.595161 225.733254 
L 354.245772 226.61854 
L 355.546992 231.778756 
L 356.197602 234.11145 
L 356.848213 234.61815 
L 357.498823 236.796057 
L 359.450654 241.867339 
L 360.101264 226.48055 
L 360.751875 226.713652 
L 361.402485 229.283288 
L 362.053095 230.544213 
L 363.354316 235.256292 
L 364.004926 236.398732 
L 364.655537 237.267072 
L 365.306147 239.75307 
L 365.956757 240.619927 
L 366.607367 225.502234 
L 367.257978 226.808535 
L 367.908588 229.013521 
L 368.559198 230.275717 
L 369.209809 231.897196 
L 369.860419 233.94962 
L 370.511029 234.937283 
L 371.16164 236.666681 
L 371.81225 238.852611 
L 372.46286 239.249194 
L 373.113471 225.085333 
L 373.764081 226.266291 
L 374.414691 228.970096 
L 375.065302 230.012464 
L 375.715912 231.602151 
L 376.366522 233.693295 
L 377.017132 234.192272 
L 377.667743 236.410595 
L 378.318353 237.201581 
L 378.968963 239.040188 
L 379.619574 224.934015 
L 380.270184 227.36709 
L 380.920794 227.881301 
L 381.571405 229.747984 
L 382.222015 230.583799 
L 382.872625 231.7694 
L 383.523236 233.555993 
L 384.173846 234.633208 
L 385.475066 237.701785 
L 386.125677 225.838922 
L 386.776287 227.284961 
L 387.426897 227.833039 
L 388.077508 230.043621 
L 388.728118 231.327821 
L 389.378728 231.06282 
L 390.029339 233.247638 
L 391.98117 236.013085 
L 392.63178 225.341189 
L 393.28239 225.989013 
L 393.933001 227.671906 
L 394.583611 228.648915 
L 395.234221 230.599369 
L 395.884831 231.484664 
L 396.535442 232.143485 
L 397.186052 233.586453 
L 397.836662 234.449488 
L 398.487273 235.07883 
L 398.487273 235.07883 
" clip-path="url(#p4bafbb6e4d)" style="fill: none; stroke: #0000ff; stroke-width: 1.5; stroke-linecap: square"/>
   </g>
   <g id="line2d_17">
    <path d="M 73.832727 288.976855 
L 79.68822 288.953957 
L 80.33883 290.875412 
L 118.724839 290.863617 
L 125.881552 290.872792 
L 398.487273 290.859299 
L 398.487273 290.859299 
" clip-path="url(#p4bafbb6e4d)" style="fill: none; stroke: #008000; stroke-width: 1.5; stroke-linecap: square"/>
   </g>
   <g id="line2d_18">
    <path d="M 73.832727 53.568 
L 74.483338 99.703876 
L 75.133948 159.872013 
L 75.784558 209.502908 
L 76.435169 234.043991 
L 77.085779 244.557145 
L 77.736389 248.144991 
L 78.386999 248.050824 
L 79.03761 246.492947 
L 79.68822 247.052878 
L 80.33883 183.991851 
L 80.989441 212.00925 
L 81.640051 232.318679 
L 82.290661 242.615403 
L 82.941272 246.56526 
L 83.591882 248.096544 
L 84.242492 248.081124 
L 84.893103 247.719008 
L 85.543713 248.060294 
L 86.194323 248.797423 
L 86.844934 191.978751 
L 87.495544 218.822456 
L 88.146154 236.268183 
L 88.796764 245.886721 
L 89.447375 250.611871 
L 90.097985 251.76128 
L 90.748595 253.499059 
L 91.399206 253.549978 
L 92.049816 252.829417 
L 92.700426 253.021186 
L 93.351037 187.263045 
L 94.001647 215.962373 
L 94.652257 237.095507 
L 95.302868 248.726221 
L 95.953478 252.46445 
L 97.254698 255.879901 
L 97.905309 255.717104 
L 98.555919 256.053368 
L 99.206529 256.520107 
L 99.85714 191.371025 
L 100.50775 219.147405 
L 101.15836 238.882479 
L 101.808971 249.319286 
L 102.459581 254.713744 
L 103.110191 255.499469 
L 103.760802 257.055687 
L 104.411412 257.249305 
L 105.062022 258.13434 
L 105.712633 257.950939 
L 106.363243 190.696625 
L 107.013853 219.149241 
L 107.664463 240.371617 
L 108.315074 250.615843 
L 108.965684 256.119949 
L 109.616294 256.840122 
L 110.266905 258.630899 
L 111.568125 258.134693 
L 112.218736 257.614992 
L 112.869346 192.257794 
L 113.519956 221.228011 
L 114.170567 240.965786 
L 114.821177 250.475611 
L 115.471787 255.106787 
L 116.122398 257.805967 
L 116.773008 257.190063 
L 118.074228 258.699329 
L 118.724839 259.16008 
L 119.375449 190.769001 
L 120.026059 220.02052 
L 120.67667 240.696107 
L 121.32728 251.622129 
L 121.97789 256.03677 
L 122.628501 256.790404 
L 123.279111 259.379674 
L 124.580332 258.309913 
L 125.230942 259.177176 
L 125.881552 192.526873 
L 126.532163 222.158461 
L 127.182773 240.927992 
L 127.833383 251.839247 
L 128.483993 256.436425 
L 129.134604 258.058072 
L 129.785214 258.868777 
L 130.435824 259.041971 
L 131.086435 259.566178 
L 131.737045 260.421446 
L 132.387655 191.940913 
L 133.038266 221.544389 
L 133.688876 241.080422 
L 134.339486 251.922872 
L 135.640707 260.325628 
L 136.291317 259.83478 
L 136.941927 260.205087 
L 137.592538 259.871418 
L 138.243148 261.337713 
L 138.893758 192.816111 
L 139.544369 222.762939 
L 140.845589 239.09792 
L 141.4962 244.709249 
L 142.14681 249.183961 
L 143.448031 254.813476 
L 144.749251 257.172865 
L 145.399862 190.662776 
L 146.701082 220.636896 
L 147.351692 233.182809 
L 148.652913 247.802019 
L 149.303523 251.404208 
L 149.954134 253.028238 
L 150.604744 256.007008 
L 151.255354 256.837082 
L 151.905965 190.735576 
L 153.207185 221.850777 
L 154.508406 241.40312 
L 155.159016 247.867554 
L 155.809627 251.150562 
L 156.460237 253.065353 
L 157.110847 254.070178 
L 157.761457 256.282795 
L 158.412068 191.463136 
L 159.713288 220.485348 
L 160.363899 232.261917 
L 161.014509 240.335041 
L 161.665119 246.287479 
L 162.31573 250.527148 
L 162.96634 252.847343 
L 163.61695 254.60962 
L 164.267561 254.676395 
L 164.918171 190.62477 
L 165.568781 206.574007 
L 166.870002 229.954219 
L 168.171222 245.218579 
L 168.821833 248.848518 
L 170.123053 254.172232 
L 170.773664 254.834258 
L 171.424274 189.9794 
L 172.074884 204.855068 
L 173.376105 228.031127 
L 174.026715 237.299994 
L 175.327936 247.932401 
L 175.978546 251.053548 
L 177.279767 254.45741 
L 177.930377 190.758886 
L 178.580987 204.989898 
L 179.882208 226.516782 
L 181.183429 241.747787 
L 181.834039 246.609515 
L 183.13526 252.526251 
L 183.78587 252.563604 
L 184.43648 190.622564 
L 185.737701 215.55699 
L 186.388311 226.047214 
L 187.689532 239.466074 
L 188.340142 244.742771 
L 189.641363 251.125805 
L 190.291973 251.654292 
L 190.942583 191.431821 
L 192.894414 224.011737 
L 194.195635 238.890917 
L 195.496856 246.575111 
L 196.798076 250.848204 
L 197.448686 190.785753 
L 198.749907 213.127869 
L 200.051128 230.534028 
L 200.701738 235.417257 
L 201.352348 241.369342 
L 202.002959 245.218932 
L 202.653569 247.505747 
L 203.304179 250.655297 
L 203.95479 190.428553 
L 204.6054 202.299528 
L 205.906621 220.999286 
L 207.207841 235.005836 
L 207.858451 240.261253 
L 208.509062 241.592427 
L 209.159672 246.729015 
L 209.810282 249.408582 
L 210.460893 190.97739 
L 211.111503 201.424744 
L 211.762113 209.492996 
L 212.412724 219.230293 
L 213.063334 226.826373 
L 213.713944 232.900349 
L 214.364555 237.540776 
L 215.665775 245.135065 
L 216.316385 247.182024 
L 216.966996 191.007099 
L 218.268216 209.84476 
L 219.569437 225.430794 
L 220.220047 231.326885 
L 221.521268 240.230582 
L 222.171878 243.094133 
L 222.822489 245.37484 
L 223.473099 191.225471 
L 225.42493 216.204055 
L 227.376761 234.494061 
L 228.027371 237.504314 
L 229.328592 244.628108 
L 229.979202 190.785912 
L 231.280423 207.740808 
L 232.581643 222.02612 
L 234.533474 236.660953 
L 235.834695 241.62842 
L 236.485305 190.899586 
L 237.786526 207.407757 
L 239.738357 225.537327 
L 240.388967 230.303573 
L 241.039577 234.049516 
L 241.690188 238.646252 
L 242.340798 240.747609 
L 242.991408 190.838958 
L 244.292629 205.707335 
L 245.59385 218.757627 
L 246.24446 224.226216 
L 246.89507 227.635603 
L 247.54568 233.217469 
L 248.846901 238.263526 
L 249.497511 190.645027 
L 250.798732 204.846435 
L 251.449342 211.952594 
L 254.051784 231.36798 
L 254.702394 233.912461 
L 255.353004 237.19708 
L 256.003615 191.290573 
L 257.955445 210.320621 
L 259.907276 225.098466 
L 261.208497 232.275253 
L 261.859107 234.987239 
L 262.509718 191.438123 
L 263.160328 198.164786 
L 263.810938 203.561794 
L 264.461549 207.968509 
L 265.112159 214.000446 
L 265.762769 218.545407 
L 266.413379 221.973939 
L 267.06399 226.962995 
L 268.36521 232.877666 
L 269.015821 191.949324 
L 269.666431 197.430067 
L 270.317041 201.843296 
L 272.268872 216.834667 
L 272.919483 221.312222 
L 274.220703 227.816242 
L 274.871314 231.363011 
L 275.521924 191.072546 
L 278.774975 215.282219 
L 280.076196 221.697049 
L 280.726806 226.442614 
L 281.377417 229.837977 
L 282.028027 191.097869 
L 282.678637 196.974807 
L 283.329248 200.710697 
L 285.281079 214.165559 
L 285.931689 217.073569 
L 286.582299 221.224304 
L 287.88352 227.149989 
L 288.53413 191.055917 
L 290.485961 204.623121 
L 291.787182 212.632926 
L 294.389623 224.162517 
L 295.040233 191.007946 
L 295.690844 195.914671 
L 300.245116 220.43758 
L 300.895726 223.409254 
L 301.546336 191.315896 
L 302.196947 194.29757 
L 303.498167 203.532102 
L 304.148778 206.747373 
L 304.799388 208.895844 
L 306.100608 215.422424 
L 306.751219 218.096758 
L 307.401829 221.410521 
L 308.052439 192.157484 
L 309.35366 198.128175 
L 310.654881 205.615903 
L 313.257322 216.298832 
L 313.907932 218.959131 
L 314.558543 191.937223 
L 315.209153 194.966983 
L 315.859763 198.700737 
L 317.160984 203.826062 
L 317.811594 207.14596 
L 318.462204 209.305764 
L 319.112815 212.697508 
L 319.763425 214.828547 
L 320.414035 216.0952 
L 321.064646 191.529731 
L 324.317697 206.560609 
L 325.618918 210.661007 
L 326.269528 212.906559 
L 326.920138 215.945789 
L 327.570749 191.056853 
L 328.221359 193.906256 
L 328.871969 197.401338 
L 329.52258 200.161268 
L 330.17319 201.785537 
L 330.8238 204.721843 
L 331.474411 207.019594 
L 332.125021 209.99538 
L 332.775631 210.935196 
L 333.426242 213.722462 
L 334.076852 190.958908 
L 334.727462 192.803657 
L 335.378073 196.871371 
L 336.028683 198.818841 
L 338.631124 208.640914 
L 339.281734 210.09111 
L 339.932345 211.940502 
L 340.582955 192.25151 
L 341.233565 193.549947 
L 341.884176 195.496561 
L 342.534786 198.777287 
L 343.185396 199.821465 
L 344.486617 205.092539 
L 345.137227 206.560997 
L 345.787837 209.41288 
L 346.438448 210.586619 
L 347.089058 191.140588 
L 347.739668 194.300218 
L 349.040889 197.979831 
L 350.34211 202.49548 
L 350.99272 204.247324 
L 351.64333 205.42056 
L 352.293941 208.081168 
L 352.944551 208.968035 
L 353.595161 191.582503 
L 354.245772 192.46779 
L 355.546992 197.627988 
L 356.197602 199.960682 
L 356.848213 200.467373 
L 357.498823 202.645271 
L 359.450654 207.716518 
L 360.101264 192.329738 
L 360.751875 192.56284 
L 361.402485 195.132467 
L 362.053095 196.393392 
L 363.354316 201.105462 
L 364.004926 202.247894 
L 364.655537 203.116225 
L 365.306147 205.602214 
L 365.956757 206.469062 
L 366.607367 191.35136 
L 367.257978 192.657661 
L 367.908588 194.862647 
L 368.559198 196.124834 
L 369.209809 197.746314 
L 369.860419 199.798728 
L 370.511029 200.786382 
L 371.16164 202.515781 
L 371.81225 204.701702 
L 372.46286 205.098276 
L 373.113471 190.934406 
L 373.764081 192.115365 
L 374.414691 194.819169 
L 375.065302 195.861537 
L 375.715912 197.451215 
L 376.366522 199.542359 
L 377.017132 200.041328 
L 377.667743 202.259641 
L 378.318353 203.050628 
L 378.968963 204.889225 
L 379.619574 190.783044 
L 380.270184 193.216119 
L 380.920794 193.73033 
L 381.571405 195.597013 
L 382.222015 196.432819 
L 382.872625 197.618421 
L 383.523236 199.405005 
L 384.173846 200.482219 
L 385.475066 203.550779 
L 386.125677 191.687916 
L 386.776287 193.133955 
L 387.426897 193.682024 
L 388.077508 195.892606 
L 388.728118 197.176797 
L 389.378728 196.911796 
L 390.029339 199.096614 
L 391.98117 201.862043 
L 392.63178 191.190139 
L 393.28239 191.837963 
L 393.933001 193.520855 
L 394.583611 194.497865 
L 395.234221 196.448318 
L 395.884831 197.333605 
L 396.535442 197.992426 
L 397.186052 199.435385 
L 397.836662 200.29842 
L 398.487273 200.927762 
L 398.487273 200.927762 
" clip-path="url(#p4bafbb6e4d)" style="fill: none; stroke: #ff0000; stroke-width: 1.5; stroke-linecap: square"/>
   </g>
   <g id="patch_3">
    <path d="M 57.6 307.584 
L 57.6 41.472 
" style="fill: none; stroke: #000000; stroke-width: 0.8; stroke-linejoin: miter; stroke-linecap: square"/>
   </g>
   <g id="patch_4">
    <path d="M 414.72 307.584 
L 414.72 41.472 
" style="fill: none; stroke: #000000; stroke-width: 0.8; stroke-linejoin: miter; stroke-linecap: square"/>
   </g>
   <g id="patch_5">
    <path d="M 57.6 307.584 
L 414.72 307.584 
" style="fill: none; stroke: #000000; stroke-width: 0.8; stroke-linejoin: miter; stroke-linecap: square"/>
   </g>
   <g id="patch_6">
    <path d="M 57.6 41.472 
L 414.72 41.472 
" style="fill: none; stroke: #000000; stroke-width: 0.8; stroke-linejoin: miter; stroke-linecap: square"/>
   </g>
   <g id="text_18">
    <!-- The loss curve on λ_0.00025_non_iid_agg/host/9 -->
    <g transform="translate(90.610312 35.472) scale(0.12 -0.12)">
     <defs>
      <path id="DejaVuSans-54" d="M -19 4666 
L 3928 4666 
L 3928 4134 
L 2272 4134 
L 2272 0 
L 1638 0 
L 1638 4134 
L -19 4134 
L -19 4666 
z
" transform="scale(0.015625)"/>
      <path id="DejaVuSans-72" d="M 2631 2963 
Q 2534 3019 2420 3045 
Q 2306 3072 2169 3072 
Q 1681 3072 1420 2755 
Q 1159 2438 1159 1844 
L 1159 0 
L 581 0 
L 581 3500 
L 1159 3500 
L 1159 2956 
Q 1341 3275 1631 3429 
Q 1922 3584 2338 3584 
Q 2397 3584 2469 3576 
Q 2541 3569 2628 3553 
L 2631 2963 
z
" transform="scale(0.015625)"/>
      <path id="DejaVuSans-6e" d="M 3513 2113 
L 3513 0 
L 2938 0 
L 2938 2094 
Q 2938 2591 2744 2837 
Q 2550 3084 2163 3084 
Q 1697 3084 1428 2787 
Q 1159 2491 1159 1978 
L 1159 0 
L 581 0 
L 581 3500 
L 1159 3500 
L 1159 2956 
Q 1366 3272 1645 3428 
Q 1925 3584 2291 3584 
Q 2894 3584 3203 3211 
Q 3513 2838 3513 2113 
z
" transform="scale(0.015625)"/>
      <path id="DejaVuSans-3bb" d="M 1981 4316 
L 3597 0 
L 2988 0 
L 2006 2588 
L 800 0 
L 191 0 
L 1725 3356 
L 1494 3975 
Q 1347 4369 1013 4369 
L 713 4369 
L 713 4863 
L 1078 4856 
Q 1784 4847 1981 4316 
z
" transform="scale(0.015625)"/>
      <path id="DejaVuSans-5f" d="M 3263 -1063 
L 3263 -1509 
L -63 -1509 
L -63 -1063 
L 3263 -1063 
z
" transform="scale(0.015625)"/>
      <path id="DejaVuSans-69" d="M 603 3500 
L 1178 3500 
L 1178 0 
L 603 0 
L 603 3500 
z
M 603 4863 
L 1178 4863 
L 1178 4134 
L 603 4134 
L 603 4863 
z
" transform="scale(0.015625)"/>
      <path id="DejaVuSans-64" d="M 2906 2969 
L 2906 4863 
L 3481 4863 
L 3481 0 
L 2906 0 
L 2906 525 
Q 2725 213 2448 61 
Q 2172 -91 1784 -91 
Q 1150 -91 751 415 
Q 353 922 353 1747 
Q 353 2572 751 3078 
Q 1150 3584 1784 3584 
Q 2172 3584 2448 3432 
Q 2725 3281 2906 2969 
z
M 947 1747 
Q 947 1113 1208 752 
Q 1469 391 1925 391 
Q 2381 391 2643 752 
Q 2906 1113 2906 1747 
Q 2906 2381 2643 2742 
Q 2381 3103 1925 3103 
Q 1469 3103 1208 2742 
Q 947 2381 947 1747 
z
" transform="scale(0.015625)"/>
      <path id="DejaVuSans-67" d="M 2906 1791 
Q 2906 2416 2648 2759 
Q 2391 3103 1925 3103 
Q 1463 3103 1205 2759 
Q 947 2416 947 1791 
Q 947 1169 1205 825 
Q 1463 481 1925 481 
Q 2391 481 2648 825 
Q 2906 1169 2906 1791 
z
M 3481 434 
Q 3481 -459 3084 -895 
Q 2688 -1331 1869 -1331 
Q 1566 -1331 1297 -1286 
Q 1028 -1241 775 -1147 
L 775 -588 
Q 1028 -725 1275 -790 
Q 1522 -856 1778 -856 
Q 2344 -856 2625 -561 
Q 2906 -266 2906 331 
L 2906 616 
Q 2728 306 2450 153 
Q 2172 0 1784 0 
Q 1141 0 747 490 
Q 353 981 353 1791 
Q 353 2603 747 3093 
Q 1141 3584 1784 3584 
Q 2172 3584 2450 3431 
Q 2728 3278 2906 2969 
L 2906 3500 
L 3481 3500 
L 3481 434 
z
" transform="scale(0.015625)"/>
      <path id="DejaVuSans-2f" d="M 1625 4666 
L 2156 4666 
L 531 -594 
L 0 -594 
L 1625 4666 
z
" transform="scale(0.015625)"/>
      <path id="DejaVuSans-74" d="M 1172 4494 
L 1172 3500 
L 2356 3500 
L 2356 3053 
L 1172 3053 
L 1172 1153 
Q 1172 725 1289 603 
Q 1406 481 1766 481 
L 2356 481 
L 2356 0 
L 1766 0 
Q 1100 0 847 248 
Q 594 497 594 1153 
L 594 3053 
L 172 3053 
L 172 3500 
L 594 3500 
L 594 4494 
L 1172 4494 
z
" transform="scale(0.015625)"/>
     </defs>
     <use xlink:href="#DejaVuSans-54"/>
     <use xlink:href="#DejaVuSans-68" x="61.083984"/>
     <use xlink:href="#DejaVuSans-65" x="124.462891"/>
     <use xlink:href="#DejaVuSans-20" x="185.986328"/>
     <use xlink:href="#DejaVuSans-6c" x="217.773438"/>
     <use xlink:href="#DejaVuSans-6f" x="245.556641"/>
     <use xlink:href="#DejaVuSans-73" x="306.738281"/>
     <use xlink:href="#DejaVuSans-73" x="358.837891"/>
     <use xlink:href="#DejaVuSans-20" x="410.9375"/>
     <use xlink:href="#DejaVuSans-63" x="442.724609"/>
     <use xlink:href="#DejaVuSans-75" x="497.705078"/>
     <use xlink:href="#DejaVuSans-72" x="561.083984"/>
     <use xlink:href="#DejaVuSans-76" x="602.197266"/>
     <use xlink:href="#DejaVuSans-65" x="661.376953"/>
     <use xlink:href="#DejaVuSans-20" x="722.900391"/>
     <use xlink:href="#DejaVuSans-6f" x="754.6875"/>
     <use xlink:href="#DejaVuSans-6e" x="815.869141"/>
     <use xlink:href="#DejaVuSans-20" x="879.248047"/>
     <use xlink:href="#DejaVuSans-3bb" x="911.035156"/>
     <use xlink:href="#DejaVuSans-5f" x="970.214844"/>
     <use xlink:href="#DejaVuSans-30" x="1020.214844"/>
     <use xlink:href="#DejaVuSans-2e" x="1083.837891"/>
     <use xlink:href="#DejaVuSans-30" x="1115.625"/>
     <use xlink:href="#DejaVuSans-30" x="1179.248047"/>
     <use xlink:href="#DejaVuSans-30" x="1242.871094"/>
     <use xlink:href="#DejaVuSans-32" x="1306.494141"/>
     <use xlink:href="#DejaVuSans-35" x="1370.117188"/>
     <use xlink:href="#DejaVuSans-5f" x="1433.740234"/>
     <use xlink:href="#DejaVuSans-6e" x="1483.740234"/>
     <use xlink:href="#DejaVuSans-6f" x="1547.119141"/>
     <use xlink:href="#DejaVuSans-6e" x="1608.300781"/>
     <use xlink:href="#DejaVuSans-5f" x="1671.679688"/>
     <use xlink:href="#DejaVuSans-69" x="1721.679688"/>
     <use xlink:href="#DejaVuSans-69" x="1749.462891"/>
     <use xlink:href="#DejaVuSans-64" x="1777.246094"/>
     <use xlink:href="#DejaVuSans-5f" x="1840.722656"/>
     <use xlink:href="#DejaVuSans-61" x="1890.722656"/>
     <use xlink:href="#DejaVuSans-67" x="1952.001953"/>
     <use xlink:href="#DejaVuSans-67" x="2015.478516"/>
     <use xlink:href="#DejaVuSans-2f" x="2078.955078"/>
     <use xlink:href="#DejaVuSans-68" x="2112.646484"/>
     <use xlink:href="#DejaVuSans-6f" x="2176.025391"/>
     <use xlink:href="#DejaVuSans-73" x="2237.207031"/>
     <use xlink:href="#DejaVuSans-74" x="2289.306641"/>
     <use xlink:href="#DejaVuSans-2f" x="2328.515625"/>
     <use xlink:href="#DejaVuSans-39" x="2362.207031"/>
    </g>
   </g>
   <g id="legend_1">
    <g id="patch_7">
     <path d="M 317.418438 94.34075 
L 407.72 94.34075 
Q 409.72 94.34075 409.72 92.34075 
L 409.72 48.472 
Q 409.72 46.472 407.72 46.472 
L 317.418438 46.472 
Q 315.418438 46.472 315.418438 48.472 
L 315.418438 92.34075 
Q 315.418438 94.34075 317.418438 94.34075 
z
" style="fill: #ffffff; opacity: 0.8; stroke: #cccccc; stroke-linejoin: miter"/>
    </g>
    <g id="line2d_19">
     <path d="M 319.418438 54.570438 
L 329.418438 54.570438 
L 339.418438 54.570438 
" style="fill: none; stroke: #0000ff; stroke-width: 1.5; stroke-linecap: square"/>
    </g>
    <g id="text_19">
     <!-- obj_loss -->
     <g transform="translate(347.418438 58.070438) scale(0.1 -0.1)">
      <defs>
       <path id="DejaVuSans-62" d="M 3116 1747 
Q 3116 2381 2855 2742 
Q 2594 3103 2138 3103 
Q 1681 3103 1420 2742 
Q 1159 2381 1159 1747 
Q 1159 1113 1420 752 
Q 1681 391 2138 391 
Q 2594 391 2855 752 
Q 3116 1113 3116 1747 
z
M 1159 2969 
Q 1341 3281 1617 3432 
Q 1894 3584 2278 3584 
Q 2916 3584 3314 3078 
Q 3713 2572 3713 1747 
Q 3713 922 3314 415 
Q 2916 -91 2278 -91 
Q 1894 -91 1617 61 
Q 1341 213 1159 525 
L 1159 0 
L 581 0 
L 581 4863 
L 1159 4863 
L 1159 2969 
z
" transform="scale(0.015625)"/>
       <path id="DejaVuSans-6a" d="M 603 3500 
L 1178 3500 
L 1178 -63 
Q 1178 -731 923 -1031 
Q 669 -1331 103 -1331 
L -116 -1331 
L -116 -844 
L 38 -844 
Q 366 -844 484 -692 
Q 603 -541 603 -63 
L 603 3500 
z
M 603 4863 
L 1178 4863 
L 1178 4134 
L 603 4134 
L 603 4863 
z
" transform="scale(0.015625)"/>
      </defs>
      <use xlink:href="#DejaVuSans-6f"/>
      <use xlink:href="#DejaVuSans-62" x="61.181641"/>
      <use xlink:href="#DejaVuSans-6a" x="124.658203"/>
      <use xlink:href="#DejaVuSans-5f" x="152.441406"/>
      <use xlink:href="#DejaVuSans-6c" x="202.441406"/>
      <use xlink:href="#DejaVuSans-6f" x="230.224609"/>
      <use xlink:href="#DejaVuSans-73" x="291.40625"/>
      <use xlink:href="#DejaVuSans-73" x="343.505859"/>
     </g>
    </g>
    <g id="line2d_20">
     <path d="M 319.418438 69.526688 
L 329.418438 69.526688 
L 339.418438 69.526688 
" style="fill: none; stroke: #008000; stroke-width: 1.5; stroke-linecap: square"/>
    </g>
    <g id="text_20">
     <!-- reg_loss -->
     <g transform="translate(347.418438 73.026688) scale(0.1 -0.1)">
      <use xlink:href="#DejaVuSans-72"/>
      <use xlink:href="#DejaVuSans-65" x="38.863281"/>
      <use xlink:href="#DejaVuSans-67" x="100.386719"/>
      <use xlink:href="#DejaVuSans-5f" x="163.863281"/>
      <use xlink:href="#DejaVuSans-6c" x="213.863281"/>
      <use xlink:href="#DejaVuSans-6f" x="241.646484"/>
      <use xlink:href="#DejaVuSans-73" x="302.828125"/>
      <use xlink:href="#DejaVuSans-73" x="354.927734"/>
     </g>
    </g>
    <g id="line2d_21">
     <path d="M 319.418438 84.482938 
L 329.418438 84.482938 
L 339.418438 84.482938 
" style="fill: none; stroke: #ff0000; stroke-width: 1.5; stroke-linecap: square"/>
    </g>
    <g id="text_21">
     <!-- overall_loss -->
     <g transform="translate(347.418438 87.982938) scale(0.1 -0.1)">
      <use xlink:href="#DejaVuSans-6f"/>
      <use xlink:href="#DejaVuSans-76" x="61.181641"/>
      <use xlink:href="#DejaVuSans-65" x="120.361328"/>
      <use xlink:href="#DejaVuSans-72" x="181.884766"/>
      <use xlink:href="#DejaVuSans-61" x="222.998047"/>
      <use xlink:href="#DejaVuSans-6c" x="284.277344"/>
      <use xlink:href="#DejaVuSans-6c" x="312.060547"/>
      <use xlink:href="#DejaVuSans-5f" x="339.84375"/>
      <use xlink:href="#DejaVuSans-6c" x="389.84375"/>
      <use xlink:href="#DejaVuSans-6f" x="417.626953"/>
      <use xlink:href="#DejaVuSans-73" x="478.808594"/>
      <use xlink:href="#DejaVuSans-73" x="530.908203"/>
     </g>
    </g>
   </g>
  </g>
 </g>
 <defs>
  <clipPath id="p4bafbb6e4d">
   <rect x="57.6" y="41.472" width="357.12" height="266.112"/>
  </clipPath>
 </defs>
</svg>
