<?xml version="1.0" encoding="utf-8" standalone="no"?>
<!DOCTYPE svg PUBLIC "-//W3C//DTD SVG 1.1//EN"
  "http://www.w3.org/Graphics/SVG/1.1/DTD/svg11.dtd">
<!-- Created with matplotlib (https://matplotlib.org/) -->
<svg height="432pt" version="1.1" viewBox="0 0 576 432" width="576pt" xmlns="http://www.w3.org/2000/svg" xmlns:xlink="http://www.w3.org/1999/xlink">
 <metadata>
  <rdf:RDF xmlns:cc="http://creativecommons.org/ns#" xmlns:dc="http://purl.org/dc/elements/1.1/" xmlns:rdf="http://www.w3.org/1999/02/22-rdf-syntax-ns#">
   <cc:Work>
    <dc:type rdf:resource="http://purl.org/dc/dcmitype/StillImage"/>
    <dc:date>2023-04-17T00:04:41.870945</dc:date>
    <dc:format>image/svg+xml</dc:format>
    <dc:creator>
     <cc:Agent>
      <dc:title>Matplotlib v3.3.4, https://matplotlib.org/</dc:title>
     </cc:Agent>
    </dc:creator>
   </cc:Work>
  </rdf:RDF>
 </metadata>
 <defs>
  <style type="text/css">*{stroke-linecap:butt;stroke-linejoin:round;}</style>
 </defs>
 <g id="figure_1">
  <g id="patch_1">
   <path d="M 0 432 
L 576 432 
L 576 0 
L 0 0 
z
" style="fill:#ffffff;"/>
  </g>
  <g id="axes_1">
   <g id="patch_2">
    <path d="M 72 384.48 
L 518.4 384.48 
L 518.4 51.84 
L 72 51.84 
z
" style="fill:#ffffff;"/>
   </g>
   <g id="matplotlib.axis_1">
    <g id="xtick_1">
     <g id="line2d_1">
      <defs>
       <path d="M 0 0 
L 0 3.5 
" id="mb8a7acdcf2" style="stroke:#000000;stroke-width:0.8;"/>
      </defs>
      <g>
       <use style="stroke:#000000;stroke-width:0.8;" x="92.290909" xlink:href="#mb8a7acdcf2" y="384.48"/>
      </g>
     </g>
     <g id="text_1">
      <!-- 0 -->
      <g transform="translate(89.109659 399.078438)scale(0.1 -0.1)">
       <defs>
        <path d="M 31.78125 66.40625 
Q 24.171875 66.40625 20.328125 58.90625 
Q 16.5 51.421875 16.5 36.375 
Q 16.5 21.390625 20.328125 13.890625 
Q 24.171875 6.390625 31.78125 6.390625 
Q 39.453125 6.390625 43.28125 13.890625 
Q 47.125 21.390625 47.125 36.375 
Q 47.125 51.421875 43.28125 58.90625 
Q 39.453125 66.40625 31.78125 66.40625 
z
M 31.78125 74.21875 
Q 44.046875 74.21875 50.515625 64.515625 
Q 56.984375 54.828125 56.984375 36.375 
Q 56.984375 17.96875 50.515625 8.265625 
Q 44.046875 -1.421875 31.78125 -1.421875 
Q 19.53125 -1.421875 13.0625 8.265625 
Q 6.59375 17.96875 6.59375 36.375 
Q 6.59375 54.828125 13.0625 64.515625 
Q 19.53125 74.21875 31.78125 74.21875 
z
" id="DejaVuSans-48"/>
       </defs>
       <use xlink:href="#DejaVuSans-48"/>
      </g>
     </g>
    </g>
    <g id="xtick_2">
     <g id="line2d_2">
      <g>
       <use style="stroke:#000000;stroke-width:0.8;" x="173.617198" xlink:href="#mb8a7acdcf2" y="384.48"/>
      </g>
     </g>
     <g id="text_2">
      <!-- 100 -->
      <g transform="translate(164.073448 399.078438)scale(0.1 -0.1)">
       <defs>
        <path d="M 12.40625 8.296875 
L 28.515625 8.296875 
L 28.515625 63.921875 
L 10.984375 60.40625 
L 10.984375 69.390625 
L 28.421875 72.90625 
L 38.28125 72.90625 
L 38.28125 8.296875 
L 54.390625 8.296875 
L 54.390625 0 
L 12.40625 0 
z
" id="DejaVuSans-49"/>
       </defs>
       <use xlink:href="#DejaVuSans-49"/>
       <use x="63.623047" xlink:href="#DejaVuSans-48"/>
       <use x="127.246094" xlink:href="#DejaVuSans-48"/>
      </g>
     </g>
    </g>
    <g id="xtick_3">
     <g id="line2d_3">
      <g>
       <use style="stroke:#000000;stroke-width:0.8;" x="254.943487" xlink:href="#mb8a7acdcf2" y="384.48"/>
      </g>
     </g>
     <g id="text_3">
      <!-- 200 -->
      <g transform="translate(245.399737 399.078438)scale(0.1 -0.1)">
       <defs>
        <path d="M 19.1875 8.296875 
L 53.609375 8.296875 
L 53.609375 0 
L 7.328125 0 
L 7.328125 8.296875 
Q 12.9375 14.109375 22.625 23.890625 
Q 32.328125 33.6875 34.8125 36.53125 
Q 39.546875 41.84375 41.421875 45.53125 
Q 43.3125 49.21875 43.3125 52.78125 
Q 43.3125 58.59375 39.234375 62.25 
Q 35.15625 65.921875 28.609375 65.921875 
Q 23.96875 65.921875 18.8125 64.3125 
Q 13.671875 62.703125 7.8125 59.421875 
L 7.8125 69.390625 
Q 13.765625 71.78125 18.9375 73 
Q 24.125 74.21875 28.421875 74.21875 
Q 39.75 74.21875 46.484375 68.546875 
Q 53.21875 62.890625 53.21875 53.421875 
Q 53.21875 48.921875 51.53125 44.890625 
Q 49.859375 40.875 45.40625 35.40625 
Q 44.1875 33.984375 37.640625 27.21875 
Q 31.109375 20.453125 19.1875 8.296875 
z
" id="DejaVuSans-50"/>
       </defs>
       <use xlink:href="#DejaVuSans-50"/>
       <use x="63.623047" xlink:href="#DejaVuSans-48"/>
       <use x="127.246094" xlink:href="#DejaVuSans-48"/>
      </g>
     </g>
    </g>
    <g id="xtick_4">
     <g id="line2d_4">
      <g>
       <use style="stroke:#000000;stroke-width:0.8;" x="336.269776" xlink:href="#mb8a7acdcf2" y="384.48"/>
      </g>
     </g>
     <g id="text_4">
      <!-- 300 -->
      <g transform="translate(326.726026 399.078438)scale(0.1 -0.1)">
       <defs>
        <path d="M 40.578125 39.3125 
Q 47.65625 37.796875 51.625 33 
Q 55.609375 28.21875 55.609375 21.1875 
Q 55.609375 10.40625 48.1875 4.484375 
Q 40.765625 -1.421875 27.09375 -1.421875 
Q 22.515625 -1.421875 17.65625 -0.515625 
Q 12.796875 0.390625 7.625 2.203125 
L 7.625 11.71875 
Q 11.71875 9.328125 16.59375 8.109375 
Q 21.484375 6.890625 26.8125 6.890625 
Q 36.078125 6.890625 40.9375 10.546875 
Q 45.796875 14.203125 45.796875 21.1875 
Q 45.796875 27.640625 41.28125 31.265625 
Q 36.765625 34.90625 28.71875 34.90625 
L 20.21875 34.90625 
L 20.21875 43.015625 
L 29.109375 43.015625 
Q 36.375 43.015625 40.234375 45.921875 
Q 44.09375 48.828125 44.09375 54.296875 
Q 44.09375 59.90625 40.109375 62.90625 
Q 36.140625 65.921875 28.71875 65.921875 
Q 24.65625 65.921875 20.015625 65.03125 
Q 15.375 64.15625 9.8125 62.3125 
L 9.8125 71.09375 
Q 15.4375 72.65625 20.34375 73.4375 
Q 25.25 74.21875 29.59375 74.21875 
Q 40.828125 74.21875 47.359375 69.109375 
Q 53.90625 64.015625 53.90625 55.328125 
Q 53.90625 49.265625 50.4375 45.09375 
Q 46.96875 40.921875 40.578125 39.3125 
z
" id="DejaVuSans-51"/>
       </defs>
       <use xlink:href="#DejaVuSans-51"/>
       <use x="63.623047" xlink:href="#DejaVuSans-48"/>
       <use x="127.246094" xlink:href="#DejaVuSans-48"/>
      </g>
     </g>
    </g>
    <g id="xtick_5">
     <g id="line2d_5">
      <g>
       <use style="stroke:#000000;stroke-width:0.8;" x="417.596065" xlink:href="#mb8a7acdcf2" y="384.48"/>
      </g>
     </g>
     <g id="text_5">
      <!-- 400 -->
      <g transform="translate(408.052315 399.078438)scale(0.1 -0.1)">
       <defs>
        <path d="M 37.796875 64.3125 
L 12.890625 25.390625 
L 37.796875 25.390625 
z
M 35.203125 72.90625 
L 47.609375 72.90625 
L 47.609375 25.390625 
L 58.015625 25.390625 
L 58.015625 17.1875 
L 47.609375 17.1875 
L 47.609375 0 
L 37.796875 0 
L 37.796875 17.1875 
L 4.890625 17.1875 
L 4.890625 26.703125 
z
" id="DejaVuSans-52"/>
       </defs>
       <use xlink:href="#DejaVuSans-52"/>
       <use x="63.623047" xlink:href="#DejaVuSans-48"/>
       <use x="127.246094" xlink:href="#DejaVuSans-48"/>
      </g>
     </g>
    </g>
    <g id="xtick_6">
     <g id="line2d_6">
      <g>
       <use style="stroke:#000000;stroke-width:0.8;" x="498.922354" xlink:href="#mb8a7acdcf2" y="384.48"/>
      </g>
     </g>
     <g id="text_6">
      <!-- 500 -->
      <g transform="translate(489.378604 399.078438)scale(0.1 -0.1)">
       <defs>
        <path d="M 10.796875 72.90625 
L 49.515625 72.90625 
L 49.515625 64.59375 
L 19.828125 64.59375 
L 19.828125 46.734375 
Q 21.96875 47.46875 24.109375 47.828125 
Q 26.265625 48.1875 28.421875 48.1875 
Q 40.625 48.1875 47.75 41.5 
Q 54.890625 34.8125 54.890625 23.390625 
Q 54.890625 11.625 47.5625 5.09375 
Q 40.234375 -1.421875 26.90625 -1.421875 
Q 22.3125 -1.421875 17.546875 -0.640625 
Q 12.796875 0.140625 7.71875 1.703125 
L 7.71875 11.625 
Q 12.109375 9.234375 16.796875 8.0625 
Q 21.484375 6.890625 26.703125 6.890625 
Q 35.15625 6.890625 40.078125 11.328125 
Q 45.015625 15.765625 45.015625 23.390625 
Q 45.015625 31 40.078125 35.4375 
Q 35.15625 39.890625 26.703125 39.890625 
Q 22.75 39.890625 18.8125 39.015625 
Q 14.890625 38.140625 10.796875 36.28125 
z
" id="DejaVuSans-53"/>
       </defs>
       <use xlink:href="#DejaVuSans-53"/>
       <use x="63.623047" xlink:href="#DejaVuSans-48"/>
       <use x="127.246094" xlink:href="#DejaVuSans-48"/>
      </g>
     </g>
    </g>
    <g id="text_7">
     <!-- epoch -->
     <g transform="translate(279.971875 412.756563)scale(0.1 -0.1)">
      <defs>
       <path d="M 56.203125 29.59375 
L 56.203125 25.203125 
L 14.890625 25.203125 
Q 15.484375 15.921875 20.484375 11.0625 
Q 25.484375 6.203125 34.421875 6.203125 
Q 39.59375 6.203125 44.453125 7.46875 
Q 49.3125 8.734375 54.109375 11.28125 
L 54.109375 2.78125 
Q 49.265625 0.734375 44.1875 -0.34375 
Q 39.109375 -1.421875 33.890625 -1.421875 
Q 20.796875 -1.421875 13.15625 6.1875 
Q 5.515625 13.8125 5.515625 26.8125 
Q 5.515625 40.234375 12.765625 48.109375 
Q 20.015625 56 32.328125 56 
Q 43.359375 56 49.78125 48.890625 
Q 56.203125 41.796875 56.203125 29.59375 
z
M 47.21875 32.234375 
Q 47.125 39.59375 43.09375 43.984375 
Q 39.0625 48.390625 32.421875 48.390625 
Q 24.90625 48.390625 20.390625 44.140625 
Q 15.875 39.890625 15.1875 32.171875 
z
" id="DejaVuSans-101"/>
       <path d="M 18.109375 8.203125 
L 18.109375 -20.796875 
L 9.078125 -20.796875 
L 9.078125 54.6875 
L 18.109375 54.6875 
L 18.109375 46.390625 
Q 20.953125 51.265625 25.265625 53.625 
Q 29.59375 56 35.59375 56 
Q 45.5625 56 51.78125 48.09375 
Q 58.015625 40.1875 58.015625 27.296875 
Q 58.015625 14.40625 51.78125 6.484375 
Q 45.5625 -1.421875 35.59375 -1.421875 
Q 29.59375 -1.421875 25.265625 0.953125 
Q 20.953125 3.328125 18.109375 8.203125 
z
M 48.6875 27.296875 
Q 48.6875 37.203125 44.609375 42.84375 
Q 40.53125 48.484375 33.40625 48.484375 
Q 26.265625 48.484375 22.1875 42.84375 
Q 18.109375 37.203125 18.109375 27.296875 
Q 18.109375 17.390625 22.1875 11.75 
Q 26.265625 6.109375 33.40625 6.109375 
Q 40.53125 6.109375 44.609375 11.75 
Q 48.6875 17.390625 48.6875 27.296875 
z
" id="DejaVuSans-112"/>
       <path d="M 30.609375 48.390625 
Q 23.390625 48.390625 19.1875 42.75 
Q 14.984375 37.109375 14.984375 27.296875 
Q 14.984375 17.484375 19.15625 11.84375 
Q 23.34375 6.203125 30.609375 6.203125 
Q 37.796875 6.203125 41.984375 11.859375 
Q 46.1875 17.53125 46.1875 27.296875 
Q 46.1875 37.015625 41.984375 42.703125 
Q 37.796875 48.390625 30.609375 48.390625 
z
M 30.609375 56 
Q 42.328125 56 49.015625 48.375 
Q 55.71875 40.765625 55.71875 27.296875 
Q 55.71875 13.875 49.015625 6.21875 
Q 42.328125 -1.421875 30.609375 -1.421875 
Q 18.84375 -1.421875 12.171875 6.21875 
Q 5.515625 13.875 5.515625 27.296875 
Q 5.515625 40.765625 12.171875 48.375 
Q 18.84375 56 30.609375 56 
z
" id="DejaVuSans-111"/>
       <path d="M 48.78125 52.59375 
L 48.78125 44.1875 
Q 44.96875 46.296875 41.140625 47.34375 
Q 37.3125 48.390625 33.40625 48.390625 
Q 24.65625 48.390625 19.8125 42.84375 
Q 14.984375 37.3125 14.984375 27.296875 
Q 14.984375 17.28125 19.8125 11.734375 
Q 24.65625 6.203125 33.40625 6.203125 
Q 37.3125 6.203125 41.140625 7.25 
Q 44.96875 8.296875 48.78125 10.40625 
L 48.78125 2.09375 
Q 45.015625 0.34375 40.984375 -0.53125 
Q 36.96875 -1.421875 32.421875 -1.421875 
Q 20.0625 -1.421875 12.78125 6.34375 
Q 5.515625 14.109375 5.515625 27.296875 
Q 5.515625 40.671875 12.859375 48.328125 
Q 20.21875 56 33.015625 56 
Q 37.15625 56 41.109375 55.140625 
Q 45.0625 54.296875 48.78125 52.59375 
z
" id="DejaVuSans-99"/>
       <path d="M 54.890625 33.015625 
L 54.890625 0 
L 45.90625 0 
L 45.90625 32.71875 
Q 45.90625 40.484375 42.875 44.328125 
Q 39.84375 48.1875 33.796875 48.1875 
Q 26.515625 48.1875 22.3125 43.546875 
Q 18.109375 38.921875 18.109375 30.90625 
L 18.109375 0 
L 9.078125 0 
L 9.078125 75.984375 
L 18.109375 75.984375 
L 18.109375 46.1875 
Q 21.34375 51.125 25.703125 53.5625 
Q 30.078125 56 35.796875 56 
Q 45.21875 56 50.046875 50.171875 
Q 54.890625 44.34375 54.890625 33.015625 
z
" id="DejaVuSans-104"/>
      </defs>
      <use xlink:href="#DejaVuSans-101"/>
      <use x="61.523438" xlink:href="#DejaVuSans-112"/>
      <use x="125" xlink:href="#DejaVuSans-111"/>
      <use x="186.181641" xlink:href="#DejaVuSans-99"/>
      <use x="241.162109" xlink:href="#DejaVuSans-104"/>
     </g>
    </g>
   </g>
   <g id="matplotlib.axis_2">
    <g id="ytick_1">
     <g id="line2d_7">
      <defs>
       <path d="M 0 0 
L -3.5 0 
" id="ma275214481" style="stroke:#000000;stroke-width:0.8;"/>
      </defs>
      <g>
       <use style="stroke:#000000;stroke-width:0.8;" x="72" xlink:href="#ma275214481" y="384.48"/>
      </g>
     </g>
     <g id="text_8">
      <!-- 0.0 -->
      <g transform="translate(49.096875 388.279219)scale(0.1 -0.1)">
       <defs>
        <path d="M 10.6875 12.40625 
L 21 12.40625 
L 21 0 
L 10.6875 0 
z
" id="DejaVuSans-46"/>
       </defs>
       <use xlink:href="#DejaVuSans-48"/>
       <use x="63.623047" xlink:href="#DejaVuSans-46"/>
       <use x="95.410156" xlink:href="#DejaVuSans-48"/>
      </g>
     </g>
    </g>
    <g id="ytick_2">
     <g id="line2d_8">
      <g>
       <use style="stroke:#000000;stroke-width:0.8;" x="72" xlink:href="#ma275214481" y="317.952"/>
      </g>
     </g>
     <g id="text_9">
      <!-- 0.2 -->
      <g transform="translate(49.096875 321.751219)scale(0.1 -0.1)">
       <use xlink:href="#DejaVuSans-48"/>
       <use x="63.623047" xlink:href="#DejaVuSans-46"/>
       <use x="95.410156" xlink:href="#DejaVuSans-50"/>
      </g>
     </g>
    </g>
    <g id="ytick_3">
     <g id="line2d_9">
      <g>
       <use style="stroke:#000000;stroke-width:0.8;" x="72" xlink:href="#ma275214481" y="251.424"/>
      </g>
     </g>
     <g id="text_10">
      <!-- 0.4 -->
      <g transform="translate(49.096875 255.223219)scale(0.1 -0.1)">
       <use xlink:href="#DejaVuSans-48"/>
       <use x="63.623047" xlink:href="#DejaVuSans-46"/>
       <use x="95.410156" xlink:href="#DejaVuSans-52"/>
      </g>
     </g>
    </g>
    <g id="ytick_4">
     <g id="line2d_10">
      <g>
       <use style="stroke:#000000;stroke-width:0.8;" x="72" xlink:href="#ma275214481" y="184.896"/>
      </g>
     </g>
     <g id="text_11">
      <!-- 0.6 -->
      <g transform="translate(49.096875 188.695219)scale(0.1 -0.1)">
       <defs>
        <path d="M 33.015625 40.375 
Q 26.375 40.375 22.484375 35.828125 
Q 18.609375 31.296875 18.609375 23.390625 
Q 18.609375 15.53125 22.484375 10.953125 
Q 26.375 6.390625 33.015625 6.390625 
Q 39.65625 6.390625 43.53125 10.953125 
Q 47.40625 15.53125 47.40625 23.390625 
Q 47.40625 31.296875 43.53125 35.828125 
Q 39.65625 40.375 33.015625 40.375 
z
M 52.59375 71.296875 
L 52.59375 62.3125 
Q 48.875 64.0625 45.09375 64.984375 
Q 41.3125 65.921875 37.59375 65.921875 
Q 27.828125 65.921875 22.671875 59.328125 
Q 17.53125 52.734375 16.796875 39.40625 
Q 19.671875 43.65625 24.015625 45.921875 
Q 28.375 48.1875 33.59375 48.1875 
Q 44.578125 48.1875 50.953125 41.515625 
Q 57.328125 34.859375 57.328125 23.390625 
Q 57.328125 12.15625 50.6875 5.359375 
Q 44.046875 -1.421875 33.015625 -1.421875 
Q 20.359375 -1.421875 13.671875 8.265625 
Q 6.984375 17.96875 6.984375 36.375 
Q 6.984375 53.65625 15.1875 63.9375 
Q 23.390625 74.21875 37.203125 74.21875 
Q 40.921875 74.21875 44.703125 73.484375 
Q 48.484375 72.75 52.59375 71.296875 
z
" id="DejaVuSans-54"/>
       </defs>
       <use xlink:href="#DejaVuSans-48"/>
       <use x="63.623047" xlink:href="#DejaVuSans-46"/>
       <use x="95.410156" xlink:href="#DejaVuSans-54"/>
      </g>
     </g>
    </g>
    <g id="ytick_5">
     <g id="line2d_11">
      <g>
       <use style="stroke:#000000;stroke-width:0.8;" x="72" xlink:href="#ma275214481" y="118.368"/>
      </g>
     </g>
     <g id="text_12">
      <!-- 0.8 -->
      <g transform="translate(49.096875 122.167219)scale(0.1 -0.1)">
       <defs>
        <path d="M 31.78125 34.625 
Q 24.75 34.625 20.71875 30.859375 
Q 16.703125 27.09375 16.703125 20.515625 
Q 16.703125 13.921875 20.71875 10.15625 
Q 24.75 6.390625 31.78125 6.390625 
Q 38.8125 6.390625 42.859375 10.171875 
Q 46.921875 13.96875 46.921875 20.515625 
Q 46.921875 27.09375 42.890625 30.859375 
Q 38.875 34.625 31.78125 34.625 
z
M 21.921875 38.8125 
Q 15.578125 40.375 12.03125 44.71875 
Q 8.5 49.078125 8.5 55.328125 
Q 8.5 64.0625 14.71875 69.140625 
Q 20.953125 74.21875 31.78125 74.21875 
Q 42.671875 74.21875 48.875 69.140625 
Q 55.078125 64.0625 55.078125 55.328125 
Q 55.078125 49.078125 51.53125 44.71875 
Q 48 40.375 41.703125 38.8125 
Q 48.828125 37.15625 52.796875 32.3125 
Q 56.78125 27.484375 56.78125 20.515625 
Q 56.78125 9.90625 50.3125 4.234375 
Q 43.84375 -1.421875 31.78125 -1.421875 
Q 19.734375 -1.421875 13.25 4.234375 
Q 6.78125 9.90625 6.78125 20.515625 
Q 6.78125 27.484375 10.78125 32.3125 
Q 14.796875 37.15625 21.921875 38.8125 
z
M 18.3125 54.390625 
Q 18.3125 48.734375 21.84375 45.5625 
Q 25.390625 42.390625 31.78125 42.390625 
Q 38.140625 42.390625 41.71875 45.5625 
Q 45.3125 48.734375 45.3125 54.390625 
Q 45.3125 60.0625 41.71875 63.234375 
Q 38.140625 66.40625 31.78125 66.40625 
Q 25.390625 66.40625 21.84375 63.234375 
Q 18.3125 60.0625 18.3125 54.390625 
z
" id="DejaVuSans-56"/>
       </defs>
       <use xlink:href="#DejaVuSans-48"/>
       <use x="63.623047" xlink:href="#DejaVuSans-46"/>
       <use x="95.410156" xlink:href="#DejaVuSans-56"/>
      </g>
     </g>
    </g>
    <g id="ytick_6">
     <g id="line2d_12">
      <g>
       <use style="stroke:#000000;stroke-width:0.8;" x="72" xlink:href="#ma275214481" y="51.84"/>
      </g>
     </g>
     <g id="text_13">
      <!-- 1.0 -->
      <g transform="translate(49.096875 55.639219)scale(0.1 -0.1)">
       <use xlink:href="#DejaVuSans-49"/>
       <use x="63.623047" xlink:href="#DejaVuSans-46"/>
       <use x="95.410156" xlink:href="#DejaVuSans-48"/>
      </g>
     </g>
    </g>
    <g id="text_14">
     <!-- rate -->
     <g transform="translate(43.017187 228.31625)rotate(-90)scale(0.1 -0.1)">
      <defs>
       <path d="M 41.109375 46.296875 
Q 39.59375 47.171875 37.8125 47.578125 
Q 36.03125 48 33.890625 48 
Q 26.265625 48 22.1875 43.046875 
Q 18.109375 38.09375 18.109375 28.8125 
L 18.109375 0 
L 9.078125 0 
L 9.078125 54.6875 
L 18.109375 54.6875 
L 18.109375 46.1875 
Q 20.953125 51.171875 25.484375 53.578125 
Q 30.03125 56 36.53125 56 
Q 37.453125 56 38.578125 55.875 
Q 39.703125 55.765625 41.0625 55.515625 
z
" id="DejaVuSans-114"/>
       <path d="M 34.28125 27.484375 
Q 23.390625 27.484375 19.1875 25 
Q 14.984375 22.515625 14.984375 16.5 
Q 14.984375 11.71875 18.140625 8.90625 
Q 21.296875 6.109375 26.703125 6.109375 
Q 34.1875 6.109375 38.703125 11.40625 
Q 43.21875 16.703125 43.21875 25.484375 
L 43.21875 27.484375 
z
M 52.203125 31.203125 
L 52.203125 0 
L 43.21875 0 
L 43.21875 8.296875 
Q 40.140625 3.328125 35.546875 0.953125 
Q 30.953125 -1.421875 24.3125 -1.421875 
Q 15.921875 -1.421875 10.953125 3.296875 
Q 6 8.015625 6 15.921875 
Q 6 25.140625 12.171875 29.828125 
Q 18.359375 34.515625 30.609375 34.515625 
L 43.21875 34.515625 
L 43.21875 35.40625 
Q 43.21875 41.609375 39.140625 45 
Q 35.0625 48.390625 27.6875 48.390625 
Q 23 48.390625 18.546875 47.265625 
Q 14.109375 46.140625 10.015625 43.890625 
L 10.015625 52.203125 
Q 14.9375 54.109375 19.578125 55.046875 
Q 24.21875 56 28.609375 56 
Q 40.484375 56 46.34375 49.84375 
Q 52.203125 43.703125 52.203125 31.203125 
z
" id="DejaVuSans-97"/>
       <path d="M 18.3125 70.21875 
L 18.3125 54.6875 
L 36.8125 54.6875 
L 36.8125 47.703125 
L 18.3125 47.703125 
L 18.3125 18.015625 
Q 18.3125 11.328125 20.140625 9.421875 
Q 21.96875 7.515625 27.59375 7.515625 
L 36.8125 7.515625 
L 36.8125 0 
L 27.59375 0 
Q 17.1875 0 13.234375 3.875 
Q 9.28125 7.765625 9.28125 18.015625 
L 9.28125 47.703125 
L 2.6875 47.703125 
L 2.6875 54.6875 
L 9.28125 54.6875 
L 9.28125 70.21875 
z
" id="DejaVuSans-116"/>
      </defs>
      <use xlink:href="#DejaVuSans-114"/>
      <use x="41.113281" xlink:href="#DejaVuSans-97"/>
      <use x="102.392578" xlink:href="#DejaVuSans-116"/>
      <use x="141.601562" xlink:href="#DejaVuSans-101"/>
     </g>
    </g>
   </g>
   <g id="line2d_13">
    <path clip-path="url(#p05c633ae0a)" d="M 92.290909 196.269574 
L 93.104172 184.474908 
L 93.917435 176.382303 
L 94.730698 175.357442 
L 95.543961 170.264254 
L 97.170486 163.053037 
L 97.983749 161.609949 
L 98.797012 159.563984 
L 99.610275 158.369172 
L 100.423538 176.229476 
L 102.050064 163.230759 
L 102.863327 160.995851 
L 103.67659 159.394149 
L 104.489852 153.835543 
L 105.303115 153.274714 
L 106.116378 150.742566 
L 106.929641 148.665344 
L 107.742904 147.761627 
L 108.556167 161.807955 
L 109.36943 155.320697 
L 110.182693 153.306229 
L 110.995956 152.00055 
L 111.809218 148.83774 
L 112.622481 147.187871 
L 113.435744 146.599241 
L 115.06227 141.814473 
L 115.875533 142.13584 
L 116.688796 150.158085 
L 117.502059 144.225389 
L 118.315322 143.67589 
L 119.128584 143.538437 
L 120.75511 139.880305 
L 121.568373 136.629481 
L 122.381636 138.544357 
L 123.194899 136.148348 
L 124.008162 135.156397 
L 124.821425 147.234115 
L 126.44795 138.122962 
L 127.261213 138.072045 
L 128.074476 135.979306 
L 128.887739 134.209442 
L 129.701002 133.916498 
L 130.514265 131.700455 
L 132.140791 130.164222 
L 132.954054 145.553586 
L 133.767316 138.180366 
L 134.580579 134.783979 
L 135.393842 133.875742 
L 137.020368 128.725213 
L 137.833631 130.119693 
L 138.646894 127.898048 
L 139.460157 126.138027 
L 140.27342 123.086536 
L 141.086682 145.121815 
L 141.899945 135.285864 
L 142.713208 131.01119 
L 143.526471 129.57467 
L 144.339734 127.228795 
L 145.152997 126.662703 
L 145.96626 123.949388 
L 146.779523 124.34626 
L 147.592786 122.974228 
L 148.406048 119.347029 
L 149.219311 143.686751 
L 150.032574 132.758843 
L 150.845837 129.443497 
L 151.6591 127.714043 
L 152.472363 124.281161 
L 154.098889 120.332968 
L 154.912152 120.436375 
L 155.725414 118.171798 
L 156.538677 117.506971 
L 157.35194 144.348976 
L 158.165203 133.521201 
L 158.978466 127.00211 
L 160.604992 120.163721 
L 161.418255 120.893722 
L 163.858043 112.694769 
L 164.671306 112.575667 
L 165.484569 144.068514 
L 166.297832 130.900898 
L 167.111095 124.799832 
L 167.924358 120.645197 
L 168.737621 117.969295 
L 169.550884 117.86309 
L 170.364146 112.588924 
L 171.177409 111.927765 
L 171.990672 109.750357 
L 172.803935 111.224094 
L 173.617198 143.248332 
L 174.430461 118.056557 
L 175.243724 111.999164 
L 176.87025 105.582076 
L 178.496775 102.538225 
L 179.310038 99.016663 
L 180.123301 97.401666 
L 180.936564 96.86485 
L 181.749827 128.922587 
L 182.56309 118.912493 
L 183.376353 112.41295 
L 185.002878 104.888187 
L 185.816141 101.811761 
L 186.629404 100.532184 
L 187.442667 97.96655 
L 188.25593 97.202135 
L 189.069193 93.888516 
L 189.882456 126.495563 
L 190.695719 115.364229 
L 191.508982 109.391362 
L 192.322244 105.458042 
L 193.135507 103.868873 
L 193.94877 101.259172 
L 194.762033 98.045196 
L 195.575296 96.991035 
L 196.388559 95.060374 
L 197.201822 94.21285 
L 198.015085 126.286199 
L 198.828348 114.94463 
L 199.64161 107.543005 
L 200.454873 104.282818 
L 201.268136 101.72927 
L 202.081399 98.264454 
L 203.707925 94.196429 
L 204.521188 93.68871 
L 205.334451 91.805137 
L 206.147714 122.665976 
L 206.960976 112.759623 
L 207.774239 106.954075 
L 208.587502 102.590299 
L 209.400765 100.95996 
L 210.214028 98.683197 
L 211.027291 94.518468 
L 211.840554 93.167648 
L 212.653817 91.57421 
L 213.46708 89.397856 
L 214.280343 122.470403 
L 215.093605 112.143136 
L 215.906868 105.364363 
L 216.720131 102.979 
L 217.533394 98.391132 
L 218.346657 95.39088 
L 219.15992 94.48319 
L 220.786446 90.601889 
L 221.599709 89.532056 
L 222.412971 120.613842 
L 223.226234 109.117036 
L 224.039497 102.698735 
L 224.85276 100.160948 
L 226.479286 93.205357 
L 227.292549 92.601109 
L 228.105812 91.654009 
L 229.732337 88.50406 
L 230.5456 119.175564 
L 231.358863 108.888934 
L 232.172126 105.097354 
L 232.985389 100.23894 
L 234.611915 92.117976 
L 235.425178 91.682732 
L 236.238441 90.183222 
L 237.051703 87.117795 
L 237.864966 87.364812 
L 238.678229 116.736925 
L 240.304755 101.95464 
L 241.931281 94.462791 
L 242.744544 91.972894 
L 243.557807 90.701012 
L 245.997595 85.506529 
L 246.810858 115.561604 
L 247.624121 106.31932 
L 248.437384 100.626036 
L 249.250647 96.117323 
L 250.06391 93.827006 
L 251.690435 90.454106 
L 253.316961 86.291189 
L 254.130224 85.616464 
L 254.943487 113.631574 
L 255.75675 105.332537 
L 256.570013 98.979223 
L 257.383276 97.411082 
L 258.196539 93.299393 
L 259.009801 90.593165 
L 260.636327 88.740537 
L 261.44959 85.195665 
L 262.262853 85.272468 
L 263.076116 111.868053 
L 263.889379 103.681853 
L 264.702642 99.722378 
L 265.515905 94.098883 
L 266.329167 92.535507 
L 267.14243 89.578348 
L 267.955693 89.247073 
L 268.768956 88.357397 
L 269.582219 85.829421 
L 270.395482 84.312101 
L 271.208745 111.659925 
L 272.022008 103.168205 
L 272.835271 96.531485 
L 274.461796 91.232697 
L 275.275059 90.805221 
L 276.088322 85.887948 
L 276.901585 86.371588 
L 277.714848 85.479086 
L 278.528111 84.033524 
L 279.341374 109.883014 
L 280.967899 97.294256 
L 281.781162 92.742084 
L 282.594425 91.380558 
L 283.407688 89.418465 
L 284.220951 86.938885 
L 285.034214 86.076664 
L 286.66074 83.490493 
L 287.474003 107.636055 
L 288.287265 100.988267 
L 289.913791 93.761821 
L 290.727054 90.867621 
L 291.540317 88.43163 
L 292.35358 88.571283 
L 293.166843 85.897437 
L 293.980106 85.836808 
L 294.793369 82.963954 
L 295.606631 108.404999 
L 296.419894 99.956783 
L 297.233157 95.902391 
L 298.04642 92.527437 
L 298.859683 89.67625 
L 299.672946 87.985724 
L 300.486209 85.63327 
L 301.299472 84.492305 
L 302.112735 84.23078 
L 302.925997 83.330079 
L 303.73926 106.633009 
L 304.552523 98.732782 
L 305.365786 93.505556 
L 306.179049 91.747086 
L 306.992312 89.216929 
L 307.805575 88.315532 
L 308.618838 86.932636 
L 310.245363 85.116082 
L 311.058626 82.902949 
L 311.871889 105.038568 
L 312.685152 98.112631 
L 313.498415 95.040863 
L 314.311678 90.089914 
L 315.124941 89.34256 
L 315.938204 88.396076 
L 316.751467 86.380584 
L 317.564729 86.480305 
L 318.377992 83.641311 
L 319.191255 83.904737 
L 320.004518 105.075022 
L 320.817781 97.324143 
L 321.631044 94.324265 
L 322.444307 91.803997 
L 323.25757 88.37099 
L 324.070833 86.7626 
L 325.697358 83.292411 
L 326.510621 82.450735 
L 327.323884 83.04407 
L 328.137147 103.811766 
L 328.95041 97.934548 
L 330.576936 90.72161 
L 331.390199 89.734966 
L 332.203461 89.230863 
L 333.016724 86.207242 
L 333.829987 84.628756 
L 334.64325 83.882808 
L 335.456513 82.902398 
L 336.269776 102.458998 
L 337.896302 93.505056 
L 338.709565 90.27594 
L 339.522827 88.534238 
L 340.33609 87.924726 
L 341.149353 85.33326 
L 341.962616 84.097993 
L 342.775879 82.577821 
L 343.589142 81.949004 
L 344.402405 101.026711 
L 345.215668 95.831279 
L 346.028931 92.732998 
L 346.842193 90.94472 
L 347.655456 88.480378 
L 348.468719 87.387098 
L 349.281982 84.526134 
L 350.095245 85.810594 
L 350.908508 83.547495 
L 351.721771 82.56288 
L 352.535034 100.259118 
L 353.348297 95.252726 
L 354.161559 92.826972 
L 354.974822 91.38111 
L 355.788085 87.653044 
L 356.601348 88.207207 
L 357.414611 85.887301 
L 358.227874 85.361158 
L 359.041137 84.555239 
L 359.8544 81.202425 
L 360.667663 101.111115 
L 361.480925 95.072753 
L 362.294188 91.95471 
L 363.107451 91.235824 
L 363.920714 88.051988 
L 364.733977 86.688814 
L 365.54724 86.488868 
L 366.360503 84.256847 
L 367.173766 83.107671 
L 367.987029 82.381941 
L 368.800291 100.305 
L 369.613554 95.750047 
L 371.24008 89.392145 
L 372.053343 88.388078 
L 372.866606 88.525731 
L 373.679869 86.000556 
L 374.493132 85.326913 
L 375.306395 83.348892 
L 376.119657 83.001443 
L 376.93292 99.345563 
L 377.746183 95.312558 
L 379.372709 89.688595 
L 380.185972 88.928786 
L 380.999235 87.112275 
L 381.812498 85.883202 
L 382.625761 85.492842 
L 383.439024 85.244631 
L 384.252286 82.97456 
L 385.065549 98.484217 
L 386.692075 92.087793 
L 387.505338 90.023702 
L 388.318601 89.005994 
L 389.131864 86.578588 
L 389.945127 85.908088 
L 392.384915 82.536617 
L 393.198178 99.609264 
L 394.011441 94.937203 
L 394.824704 92.543237 
L 395.637967 90.786448 
L 396.45123 89.458842 
L 397.264493 87.004906 
L 398.077756 87.147983 
L 398.891018 85.01315 
L 399.704281 85.094487 
L 400.517544 84.280422 
L 401.330807 99.211394 
L 402.14407 93.898555 
L 402.957333 91.569479 
L 403.770596 89.792665 
L 404.583859 88.690902 
L 406.210384 87.424427 
L 407.023647 85.674061 
L 407.83691 86.107743 
L 408.650173 83.747223 
L 409.463436 98.710621 
L 410.276699 94.260598 
L 411.089962 92.229689 
L 411.903225 90.854414 
L 412.716488 89.134291 
L 413.52975 87.965496 
L 414.343013 87.326315 
L 415.156276 84.899363 
L 415.969539 85.747495 
L 416.782802 84.621716 
L 417.596065 98.415338 
L 418.409328 94.643655 
L 419.222591 92.71883 
L 420.035854 89.840559 
L 420.849116 90.456491 
L 421.662379 87.826989 
L 422.475642 86.241211 
L 423.288905 85.990359 
L 424.102168 84.559107 
L 424.915431 84.802061 
L 425.728694 96.940647 
L 427.35522 92.913708 
L 428.168482 90.929743 
L 429.795008 87.674871 
L 430.608271 87.082912 
L 431.421534 87.248051 
L 432.234797 85.076165 
L 433.04806 84.795184 
L 433.861323 98.399611 
L 434.674586 95.527015 
L 435.487848 91.793524 
L 436.301111 90.155264 
L 437.114374 89.755224 
L 437.927637 88.118133 
L 438.7409 87.271156 
L 439.554163 85.792216 
L 440.367426 86.545658 
L 441.180689 85.517124 
L 441.993952 97.862493 
L 442.807214 93.989347 
L 443.620477 92.62939 
L 444.43374 91.832811 
L 445.247003 90.334597 
L 446.060266 88.182614 
L 446.873529 86.613229 
L 447.686792 86.682758 
L 448.500055 85.629721 
L 449.313318 86.106531 
L 450.12658 96.771339 
L 450.939843 95.619163 
L 451.753106 91.792202 
L 454.192895 87.517695 
L 455.006158 88.079826 
L 455.819421 87.674616 
L 456.632684 84.812712 
L 457.445946 85.527478 
L 458.259209 97.44097 
L 459.072472 94.129666 
L 459.885735 91.812668 
L 460.698998 91.066378 
L 461.512261 89.577674 
L 463.138787 87.332734 
L 463.95205 87.426255 
L 464.765312 85.84788 
L 465.578575 87.233467 
L 466.391838 96.638544 
L 468.018364 91.512791 
L 468.831627 90.714726 
L 471.271416 87.377778 
L 472.897941 86.79068 
L 473.711204 85.83206 
L 474.524467 97.414685 
L 475.33773 93.228985 
L 476.150993 91.59485 
L 476.964256 91.915264 
L 477.777519 90.787934 
L 478.590782 87.594996 
L 479.404044 88.426583 
L 480.217307 88.090062 
L 481.03057 87.253863 
L 481.843833 86.814262 
L 482.657096 96.397089 
L 483.470359 93.850942 
L 484.283622 90.742959 
L 485.096885 91.339535 
L 486.72341 90.558299 
L 487.536673 88.778396 
L 488.349936 89.046044 
L 489.163199 86.709923 
L 489.976462 86.071102 
L 490.789725 96.458058 
L 491.602988 94.126167 
L 492.416251 92.424599 
L 493.229514 92.232139 
L 494.042776 90.420432 
L 494.856039 88.94901 
L 495.669302 87.976661 
L 496.482565 88.611843 
L 497.295828 88.973651 
L 498.109091 86.900984 
L 498.109091 86.900984 
" style="fill:none;stroke:#0000ff;stroke-linecap:square;stroke-width:1.5;"/>
   </g>
   <g id="line2d_14">
    <path clip-path="url(#p05c633ae0a)" d="M 92.290909 339.215631 
L 93.104172 337.222053 
L 96.357224 327.059364 
L 97.170486 324.10331 
L 97.983749 321.798826 
L 98.797012 321.011625 
L 99.610275 319.159005 
L 100.423538 339.236542 
L 101.236801 335.078408 
L 102.863327 328.411288 
L 104.489852 323.1187 
L 105.303115 321.302265 
L 106.116378 318.171448 
L 106.929641 316.984085 
L 107.742904 313.666237 
L 108.556167 330.511775 
L 109.36943 325.287773 
L 110.182693 322.120064 
L 112.622481 315.180312 
L 113.435744 313.297168 
L 115.06227 307.497689 
L 115.875533 306.211124 
L 116.688796 313.59526 
L 117.502059 312.3012 
L 118.315322 310.344872 
L 119.128584 307.859582 
L 119.941847 305.867423 
L 120.75511 302.252078 
L 122.381636 298.937198 
L 124.008162 294.657588 
L 124.821425 302.586689 
L 125.634688 302.521419 
L 126.44795 299.797621 
L 127.261213 298.308003 
L 128.074476 294.448733 
L 128.887739 293.186111 
L 129.701002 290.534703 
L 130.514265 286.849962 
L 131.327528 285.632646 
L 132.140791 283.367583 
L 132.954054 294.520293 
L 133.767316 293.787588 
L 134.580579 290.835493 
L 135.393842 289.458078 
L 136.207105 286.034088 
L 137.020368 283.252909 
L 137.833631 281.441195 
L 138.646894 278.432876 
L 139.460157 276.123714 
L 140.27342 272.539991 
L 141.086682 287.496474 
L 141.899945 288.099547 
L 143.526471 280.400549 
L 144.339734 279.081274 
L 145.152997 276.674188 
L 145.96626 273.023139 
L 146.779523 268.525423 
L 147.592786 266.634695 
L 148.406048 263.210301 
L 149.219311 281.426341 
L 150.032574 280.363434 
L 150.845837 275.817145 
L 151.6591 273.805413 
L 152.472363 269.175727 
L 153.285626 266.705754 
L 154.098889 263.450851 
L 155.725414 257.966985 
L 156.538677 253.848509 
L 157.35194 277.292747 
L 158.165203 275.500768 
L 158.978466 270.442873 
L 159.791729 266.78939 
L 160.604992 262.230119 
L 161.418255 261.148688 
L 163.04478 250.267641 
L 163.858043 247.596144 
L 164.671306 243.660484 
L 165.484569 271.210402 
L 166.297832 269.10454 
L 167.924358 258.668286 
L 169.550884 251.94828 
L 171.177409 242.390607 
L 171.990672 236.292119 
L 172.803935 235.76821 
L 173.617198 267.559012 
L 174.430461 256.650835 
L 175.243724 250.222173 
L 176.87025 242.118987 
L 177.683512 238.790441 
L 179.310038 231.061508 
L 180.123301 227.72382 
L 180.936564 224.878576 
L 181.749827 253.606555 
L 182.56309 250.442183 
L 183.376353 244.812481 
L 184.189616 241.356396 
L 185.002878 236.622627 
L 185.816141 233.828801 
L 186.629404 230.071741 
L 187.442667 224.551942 
L 188.25593 221.750545 
L 189.069193 218.228487 
L 189.882456 249.283327 
L 190.695719 244.2437 
L 191.508982 240.21257 
L 193.135507 230.819958 
L 193.94877 227.628539 
L 194.762033 223.445599 
L 195.575296 220.766396 
L 196.388559 216.792466 
L 197.201822 214.916856 
L 198.015085 247.236369 
L 199.64161 235.033102 
L 202.081399 222.185766 
L 202.894662 220.27694 
L 203.707925 212.072488 
L 204.521188 211.828908 
L 205.334451 209.187379 
L 206.147714 242.444914 
L 208.587502 225.700408 
L 209.400765 221.94761 
L 210.214028 219.09636 
L 211.027291 214.335536 
L 211.840554 210.905861 
L 212.653817 206.826405 
L 213.46708 204.077105 
L 214.280343 239.805582 
L 215.906868 227.50225 
L 216.720131 223.762809 
L 217.533394 219.399932 
L 218.346657 213.681234 
L 219.15992 211.335957 
L 219.973183 206.980905 
L 220.786446 201.772547 
L 221.599709 200.286531 
L 222.412971 236.311009 
L 223.226234 228.329427 
L 224.039497 223.24856 
L 225.666023 214.434029 
L 226.479286 209.378632 
L 227.292549 207.04102 
L 228.105812 204.315316 
L 228.919075 200.607287 
L 229.732337 197.595597 
L 230.5456 233.02633 
L 231.358863 226.818857 
L 232.172126 221.635426 
L 232.985389 215.309334 
L 233.798652 211.213394 
L 234.611915 204.744819 
L 235.425178 203.683658 
L 236.238441 200.733354 
L 237.051703 196.715553 
L 237.864966 194.345544 
L 238.678229 231.777192 
L 239.491492 223.531577 
L 240.304755 216.903035 
L 241.118018 213.009343 
L 241.931281 207.211551 
L 242.744544 204.032587 
L 243.557807 198.621982 
L 245.184332 195.456704 
L 245.997595 190.637416 
L 246.810858 228.568684 
L 247.624121 220.393049 
L 248.437384 215.896255 
L 249.250647 209.727726 
L 250.06391 206.27059 
L 250.877173 200.512998 
L 251.690435 199.269572 
L 252.503698 195.941134 
L 253.316961 191.376445 
L 254.130224 188.260493 
L 254.943487 225.380057 
L 255.75675 217.268097 
L 256.570013 211.635958 
L 257.383276 207.881462 
L 258.196539 202.800703 
L 259.009801 199.779006 
L 259.823064 195.107002 
L 260.636327 192.829749 
L 262.262853 186.56065 
L 263.076116 223.877107 
L 263.889379 215.777858 
L 264.702642 209.351695 
L 266.329167 200.284763 
L 267.14243 197.694209 
L 267.955693 194.463983 
L 269.582219 186.749797 
L 270.395482 184.522249 
L 271.208745 221.463901 
L 272.835271 207.072799 
L 273.648533 201.903863 
L 275.275059 194.471266 
L 276.088322 191.347387 
L 276.901585 186.705612 
L 277.714848 186.405133 
L 278.528111 181.879067 
L 279.341374 218.550476 
L 280.967899 205.374859 
L 281.781162 199.954138 
L 282.594425 197.006063 
L 284.220951 189.899011 
L 285.034214 187.129759 
L 285.847477 185.292807 
L 286.66074 182.383345 
L 287.474003 216.731037 
L 289.100528 203.343678 
L 289.913791 199.625766 
L 290.727054 195.210379 
L 291.540317 192.422361 
L 292.35358 188.203791 
L 293.166843 185.296969 
L 293.980106 185.469978 
L 294.793369 181.807313 
L 295.606631 216.223478 
L 296.419894 207.409247 
L 297.233157 203.48851 
L 298.04642 197.131852 
L 298.859683 192.222404 
L 299.672946 189.879649 
L 300.486209 187.935586 
L 301.299472 182.946721 
L 302.112735 183.297336 
L 302.925997 179.288949 
L 303.73926 213.483498 
L 304.552523 203.96748 
L 305.365786 201.180649 
L 306.179049 196.590532 
L 306.992312 190.455404 
L 308.618838 188.326365 
L 309.432101 183.691515 
L 311.058626 180.183262 
L 311.871889 210.785228 
L 312.685152 204.835286 
L 313.498415 200.092496 
L 314.311678 193.950979 
L 315.124941 191.904303 
L 315.938204 187.762151 
L 316.751467 187.165731 
L 317.564729 185.057172 
L 318.377992 180.948155 
L 319.191255 178.916325 
L 320.004518 211.402473 
L 320.817781 203.163701 
L 321.631044 197.989622 
L 322.444307 194.362177 
L 323.25757 189.541786 
L 324.070833 187.005326 
L 324.884095 182.830161 
L 325.697358 180.906093 
L 326.510621 178.208816 
L 327.323884 178.503381 
L 328.137147 210.527012 
L 328.95041 202.862205 
L 329.763673 196.96437 
L 330.576936 194.952628 
L 331.390199 190.449622 
L 332.203461 187.669333 
L 333.016724 183.598828 
L 335.456513 178.83103 
L 336.269776 208.487429 
L 337.083039 201.558453 
L 337.896302 197.763611 
L 338.709565 192.10359 
L 339.522827 190.191543 
L 340.33609 186.995056 
L 341.149353 184.622739 
L 341.962616 181.742436 
L 342.775879 180.076946 
L 343.589142 177.424324 
L 344.402405 206.854173 
L 345.215668 200.504102 
L 346.028931 195.169854 
L 346.842193 193.321563 
L 347.655456 188.810177 
L 349.281982 182.56867 
L 350.095245 181.843651 
L 350.908508 178.669323 
L 351.721771 178.350796 
L 352.535034 205.880783 
L 353.348297 199.847103 
L 354.161559 194.673024 
L 354.974822 191.653291 
L 355.788085 187.589707 
L 356.601348 186.970222 
L 357.414611 184.326088 
L 358.227874 182.456742 
L 359.041137 180.225167 
L 359.8544 177.424318 
L 360.667663 206.540586 
L 361.480925 198.685709 
L 362.294188 193.575232 
L 363.107451 190.930446 
L 363.920714 187.24901 
L 365.54724 182.620912 
L 366.360503 181.577106 
L 367.173766 179.193387 
L 367.987029 177.628144 
L 368.800291 206.893967 
L 369.613554 198.481145 
L 370.426817 193.169851 
L 371.24008 191.157987 
L 372.053343 186.760521 
L 372.866606 184.772949 
L 373.679869 183.812981 
L 374.493132 181.972059 
L 375.306395 179.226095 
L 376.119657 178.026369 
L 376.93292 204.80595 
L 377.746183 199.845455 
L 378.559446 193.400905 
L 380.185972 187.088333 
L 380.999235 185.997082 
L 381.812498 183.697321 
L 382.625761 182.093212 
L 383.439024 182.588444 
L 384.252286 176.866796 
L 385.065549 202.205332 
L 385.878812 197.170516 
L 387.505338 189.786099 
L 388.318601 188.930872 
L 389.131864 183.781089 
L 389.945127 182.137674 
L 390.75839 181.933478 
L 391.571652 179.557729 
L 392.384915 177.756343 
L 393.198178 202.831671 
L 394.011441 197.724868 
L 394.824704 193.574348 
L 395.637967 190.486096 
L 397.264493 185.899086 
L 398.077756 183.596509 
L 398.891018 182.364545 
L 399.704281 180.23676 
L 400.517544 180.768646 
L 401.330807 202.897412 
L 402.14407 197.730257 
L 402.957333 190.652517 
L 403.770596 190.696806 
L 404.583859 187.561845 
L 405.397122 184.922268 
L 406.210384 183.883753 
L 407.023647 182.594385 
L 407.83691 183.227118 
L 408.650173 178.572655 
L 409.463436 204.040887 
L 410.276699 197.535249 
L 411.089962 193.841363 
L 413.52975 185.981336 
L 414.343013 183.993728 
L 415.156276 182.844994 
L 415.969539 182.189112 
L 416.782802 180.935568 
L 417.596065 201.18649 
L 418.409328 197.518174 
L 419.222591 193.28892 
L 420.035854 190.171401 
L 420.849116 189.788609 
L 421.662379 185.114983 
L 422.475642 182.773514 
L 423.288905 181.536393 
L 424.102168 181.7516 
L 424.915431 180.996499 
L 425.728694 201.288995 
L 426.541957 196.207747 
L 427.35522 194.568407 
L 428.168482 191.018543 
L 428.981745 189.383174 
L 429.795008 185.785723 
L 430.608271 184.616713 
L 431.421534 184.485367 
L 432.234797 181.086661 
L 433.04806 180.540008 
L 433.861323 201.657111 
L 434.674586 197.678049 
L 435.487848 192.401672 
L 436.301111 190.752128 
L 437.114374 188.721449 
L 437.927637 184.299416 
L 438.7409 184.721677 
L 439.554163 184.634647 
L 440.367426 180.736994 
L 441.180689 180.323193 
L 441.993952 202.915978 
L 442.807214 196.229622 
L 444.43374 190.258919 
L 445.247003 190.062964 
L 446.060266 186.203438 
L 446.873529 185.809938 
L 447.686792 185.054472 
L 448.500055 181.46118 
L 449.313318 182.111198 
L 450.12658 201.30278 
L 450.939843 196.594961 
L 451.753106 193.402968 
L 452.566369 189.756945 
L 453.379632 189.33473 
L 454.192895 185.221997 
L 455.006158 186.018792 
L 455.819421 185.697569 
L 456.632684 182.855657 
L 457.445946 182.5486 
L 458.259209 200.521945 
L 459.072472 197.723534 
L 459.885735 193.475566 
L 460.698998 192.744985 
L 461.512261 188.13002 
L 462.325524 186.720997 
L 463.138787 187.156437 
L 463.95205 184.743436 
L 464.765312 182.678593 
L 465.578575 184.631814 
L 466.391838 201.831254 
L 467.205101 195.737439 
L 468.018364 192.681451 
L 468.831627 191.736426 
L 469.64489 189.378376 
L 470.458153 187.854466 
L 471.271416 186.923944 
L 472.084678 186.544095 
L 472.897941 184.519579 
L 473.711204 183.495265 
L 474.524467 201.489317 
L 475.33773 194.793845 
L 476.150993 192.450606 
L 477.777519 188.704945 
L 478.590782 187.206112 
L 479.404044 186.797747 
L 480.217307 185.15502 
L 481.03057 184.90564 
L 481.843833 184.093205 
L 482.657096 200.489078 
L 483.470359 195.28589 
L 484.283622 192.53296 
L 485.096885 192.645807 
L 485.910148 189.073618 
L 487.536673 189.048436 
L 488.349936 186.501097 
L 489.163199 184.678554 
L 489.976462 183.359517 
L 490.789725 201.184324 
L 491.602988 194.888829 
L 492.416251 192.597651 
L 493.229514 191.241643 
L 494.042776 190.226121 
L 494.856039 187.883466 
L 495.669302 187.027216 
L 496.482565 186.875281 
L 498.109091 185.038364 
L 498.109091 185.038364 
" style="fill:none;stroke:#008000;stroke-linecap:square;stroke-width:1.5;"/>
   </g>
   <g id="patch_3">
    <path d="M 72 384.48 
L 72 51.84 
" style="fill:none;stroke:#000000;stroke-linecap:square;stroke-linejoin:miter;stroke-width:0.8;"/>
   </g>
   <g id="patch_4">
    <path d="M 518.4 384.48 
L 518.4 51.84 
" style="fill:none;stroke:#000000;stroke-linecap:square;stroke-linejoin:miter;stroke-width:0.8;"/>
   </g>
   <g id="patch_5">
    <path d="M 72 384.48 
L 518.4 384.48 
" style="fill:none;stroke:#000000;stroke-linecap:square;stroke-linejoin:miter;stroke-width:0.8;"/>
   </g>
   <g id="patch_6">
    <path d="M 72 51.84 
L 518.4 51.84 
" style="fill:none;stroke:#000000;stroke-linecap:square;stroke-linejoin:miter;stroke-width:0.8;"/>
   </g>
   <g id="legend_1">
    <g id="patch_7">
     <path d="M 79 89.19625 
L 156.107812 89.19625 
Q 158.107812 89.19625 158.107812 87.19625 
L 158.107812 58.84 
Q 158.107812 56.84 156.107812 56.84 
L 79 56.84 
Q 77 56.84 77 58.84 
L 77 87.19625 
Q 77 89.19625 79 89.19625 
z
" style="fill:#ffffff;opacity:0.8;stroke:#cccccc;stroke-linejoin:miter;"/>
    </g>
    <g id="line2d_15">
     <path d="M 81 64.938437 
L 101 64.938437 
" style="fill:none;stroke:#0000ff;stroke-linecap:square;stroke-width:1.5;"/>
    </g>
    <g id="line2d_16"/>
    <g id="text_15">
     <!-- precision -->
     <g transform="translate(109 68.438437)scale(0.1 -0.1)">
      <defs>
       <path d="M 9.421875 54.6875 
L 18.40625 54.6875 
L 18.40625 0 
L 9.421875 0 
z
M 9.421875 75.984375 
L 18.40625 75.984375 
L 18.40625 64.59375 
L 9.421875 64.59375 
z
" id="DejaVuSans-105"/>
       <path d="M 44.28125 53.078125 
L 44.28125 44.578125 
Q 40.484375 46.53125 36.375 47.5 
Q 32.28125 48.484375 27.875 48.484375 
Q 21.1875 48.484375 17.84375 46.4375 
Q 14.5 44.390625 14.5 40.28125 
Q 14.5 37.15625 16.890625 35.375 
Q 19.28125 33.59375 26.515625 31.984375 
L 29.59375 31.296875 
Q 39.15625 29.25 43.1875 25.515625 
Q 47.21875 21.78125 47.21875 15.09375 
Q 47.21875 7.46875 41.1875 3.015625 
Q 35.15625 -1.421875 24.609375 -1.421875 
Q 20.21875 -1.421875 15.453125 -0.5625 
Q 10.6875 0.296875 5.421875 2 
L 5.421875 11.28125 
Q 10.40625 8.6875 15.234375 7.390625 
Q 20.0625 6.109375 24.8125 6.109375 
Q 31.15625 6.109375 34.5625 8.28125 
Q 37.984375 10.453125 37.984375 14.40625 
Q 37.984375 18.0625 35.515625 20.015625 
Q 33.0625 21.96875 24.703125 23.78125 
L 21.578125 24.515625 
Q 13.234375 26.265625 9.515625 29.90625 
Q 5.8125 33.546875 5.8125 39.890625 
Q 5.8125 47.609375 11.28125 51.796875 
Q 16.75 56 26.8125 56 
Q 31.78125 56 36.171875 55.265625 
Q 40.578125 54.546875 44.28125 53.078125 
z
" id="DejaVuSans-115"/>
       <path d="M 54.890625 33.015625 
L 54.890625 0 
L 45.90625 0 
L 45.90625 32.71875 
Q 45.90625 40.484375 42.875 44.328125 
Q 39.84375 48.1875 33.796875 48.1875 
Q 26.515625 48.1875 22.3125 43.546875 
Q 18.109375 38.921875 18.109375 30.90625 
L 18.109375 0 
L 9.078125 0 
L 9.078125 54.6875 
L 18.109375 54.6875 
L 18.109375 46.1875 
Q 21.34375 51.125 25.703125 53.5625 
Q 30.078125 56 35.796875 56 
Q 45.21875 56 50.046875 50.171875 
Q 54.890625 44.34375 54.890625 33.015625 
z
" id="DejaVuSans-110"/>
      </defs>
      <use xlink:href="#DejaVuSans-112"/>
      <use x="63.476562" xlink:href="#DejaVuSans-114"/>
      <use x="102.339844" xlink:href="#DejaVuSans-101"/>
      <use x="163.863281" xlink:href="#DejaVuSans-99"/>
      <use x="218.84375" xlink:href="#DejaVuSans-105"/>
      <use x="246.626953" xlink:href="#DejaVuSans-115"/>
      <use x="298.726562" xlink:href="#DejaVuSans-105"/>
      <use x="326.509766" xlink:href="#DejaVuSans-111"/>
      <use x="387.691406" xlink:href="#DejaVuSans-110"/>
     </g>
    </g>
    <g id="line2d_17">
     <path d="M 81 79.616562 
L 101 79.616562 
" style="fill:none;stroke:#008000;stroke-linecap:square;stroke-width:1.5;"/>
    </g>
    <g id="line2d_18"/>
    <g id="text_16">
     <!-- recall -->
     <g transform="translate(109 83.116562)scale(0.1 -0.1)">
      <defs>
       <path d="M 9.421875 75.984375 
L 18.40625 75.984375 
L 18.40625 0 
L 9.421875 0 
z
" id="DejaVuSans-108"/>
      </defs>
      <use xlink:href="#DejaVuSans-114"/>
      <use x="38.863281" xlink:href="#DejaVuSans-101"/>
      <use x="100.386719" xlink:href="#DejaVuSans-99"/>
      <use x="155.367188" xlink:href="#DejaVuSans-97"/>
      <use x="216.646484" xlink:href="#DejaVuSans-108"/>
      <use x="244.429688" xlink:href="#DejaVuSans-108"/>
     </g>
    </g>
   </g>
  </g>
  <g id="axes_2">
   <g id="matplotlib.axis_3">
    <g id="ytick_7">
     <g id="line2d_19">
      <defs>
       <path d="M 0 0 
L 3.5 0 
" id="md5aa950143" style="stroke:#000000;stroke-width:0.8;"/>
      </defs>
      <g>
       <use style="stroke:#000000;stroke-width:0.8;" x="518.4" xlink:href="#md5aa950143" y="345.353341"/>
      </g>
     </g>
     <g id="text_17">
      <!-- 0.12 -->
      <g transform="translate(525.4 349.152559)scale(0.1 -0.1)">
       <use xlink:href="#DejaVuSans-48"/>
       <use x="63.623047" xlink:href="#DejaVuSans-46"/>
       <use x="95.410156" xlink:href="#DejaVuSans-49"/>
       <use x="159.033203" xlink:href="#DejaVuSans-50"/>
      </g>
     </g>
    </g>
    <g id="ytick_8">
     <g id="line2d_20">
      <g>
       <use style="stroke:#000000;stroke-width:0.8;" x="518.4" xlink:href="#md5aa950143" y="306.035024"/>
      </g>
     </g>
     <g id="text_18">
      <!-- 0.14 -->
      <g transform="translate(525.4 309.834243)scale(0.1 -0.1)">
       <use xlink:href="#DejaVuSans-48"/>
       <use x="63.623047" xlink:href="#DejaVuSans-46"/>
       <use x="95.410156" xlink:href="#DejaVuSans-49"/>
       <use x="159.033203" xlink:href="#DejaVuSans-52"/>
      </g>
     </g>
    </g>
    <g id="ytick_9">
     <g id="line2d_21">
      <g>
       <use style="stroke:#000000;stroke-width:0.8;" x="518.4" xlink:href="#md5aa950143" y="266.716707"/>
      </g>
     </g>
     <g id="text_19">
      <!-- 0.16 -->
      <g transform="translate(525.4 270.515926)scale(0.1 -0.1)">
       <use xlink:href="#DejaVuSans-48"/>
       <use x="63.623047" xlink:href="#DejaVuSans-46"/>
       <use x="95.410156" xlink:href="#DejaVuSans-49"/>
       <use x="159.033203" xlink:href="#DejaVuSans-54"/>
      </g>
     </g>
    </g>
    <g id="ytick_10">
     <g id="line2d_22">
      <g>
       <use style="stroke:#000000;stroke-width:0.8;" x="518.4" xlink:href="#md5aa950143" y="227.39839"/>
      </g>
     </g>
     <g id="text_20">
      <!-- 0.18 -->
      <g transform="translate(525.4 231.197609)scale(0.1 -0.1)">
       <use xlink:href="#DejaVuSans-48"/>
       <use x="63.623047" xlink:href="#DejaVuSans-46"/>
       <use x="95.410156" xlink:href="#DejaVuSans-49"/>
       <use x="159.033203" xlink:href="#DejaVuSans-56"/>
      </g>
     </g>
    </g>
    <g id="ytick_11">
     <g id="line2d_23">
      <g>
       <use style="stroke:#000000;stroke-width:0.8;" x="518.4" xlink:href="#md5aa950143" y="188.080073"/>
      </g>
     </g>
     <g id="text_21">
      <!-- 0.20 -->
      <g transform="translate(525.4 191.879292)scale(0.1 -0.1)">
       <use xlink:href="#DejaVuSans-48"/>
       <use x="63.623047" xlink:href="#DejaVuSans-46"/>
       <use x="95.410156" xlink:href="#DejaVuSans-50"/>
       <use x="159.033203" xlink:href="#DejaVuSans-48"/>
      </g>
     </g>
    </g>
    <g id="ytick_12">
     <g id="line2d_24">
      <g>
       <use style="stroke:#000000;stroke-width:0.8;" x="518.4" xlink:href="#md5aa950143" y="148.761756"/>
      </g>
     </g>
     <g id="text_22">
      <!-- 0.22 -->
      <g transform="translate(525.4 152.560975)scale(0.1 -0.1)">
       <use xlink:href="#DejaVuSans-48"/>
       <use x="63.623047" xlink:href="#DejaVuSans-46"/>
       <use x="95.410156" xlink:href="#DejaVuSans-50"/>
       <use x="159.033203" xlink:href="#DejaVuSans-50"/>
      </g>
     </g>
    </g>
    <g id="ytick_13">
     <g id="line2d_25">
      <g>
       <use style="stroke:#000000;stroke-width:0.8;" x="518.4" xlink:href="#md5aa950143" y="109.443439"/>
      </g>
     </g>
     <g id="text_23">
      <!-- 0.24 -->
      <g transform="translate(525.4 113.242658)scale(0.1 -0.1)">
       <use xlink:href="#DejaVuSans-48"/>
       <use x="63.623047" xlink:href="#DejaVuSans-46"/>
       <use x="95.410156" xlink:href="#DejaVuSans-50"/>
       <use x="159.033203" xlink:href="#DejaVuSans-52"/>
      </g>
     </g>
    </g>
    <g id="ytick_14">
     <g id="line2d_26">
      <g>
       <use style="stroke:#000000;stroke-width:0.8;" x="518.4" xlink:href="#md5aa950143" y="70.125123"/>
      </g>
     </g>
     <g id="text_24">
      <!-- 0.26 -->
      <g transform="translate(525.4 73.924341)scale(0.1 -0.1)">
       <use xlink:href="#DejaVuSans-48"/>
       <use x="63.623047" xlink:href="#DejaVuSans-46"/>
       <use x="95.410156" xlink:href="#DejaVuSans-50"/>
       <use x="159.033203" xlink:href="#DejaVuSans-54"/>
      </g>
     </g>
    </g>
    <g id="text_25">
     <!-- loss -->
     <g transform="translate(559.264063 227.817812)rotate(-90)scale(0.1 -0.1)">
      <use xlink:href="#DejaVuSans-108"/>
      <use x="27.783203" xlink:href="#DejaVuSans-111"/>
      <use x="88.964844" xlink:href="#DejaVuSans-115"/>
      <use x="141.064453" xlink:href="#DejaVuSans-115"/>
     </g>
    </g>
   </g>
   <g id="line2d_27">
    <path clip-path="url(#p05c633ae0a)" d="M 92.290909 66.96 
L 93.104172 120.567817 
L 93.917435 128.326871 
L 94.730698 134.269573 
L 97.170486 148.189557 
L 97.983749 150.884994 
L 98.797012 153.046698 
L 99.610275 156.145727 
L 100.423538 213.681208 
L 101.236801 226.40061 
L 102.050064 233.12222 
L 102.863327 238.829279 
L 105.303115 249.785577 
L 107.742904 257.802098 
L 108.556167 238.139545 
L 109.36943 245.002362 
L 110.182693 249.826678 
L 110.995956 252.137244 
L 111.809218 256.001261 
L 112.622481 257.810212 
L 114.249007 262.892435 
L 115.06227 265.943366 
L 115.875533 267.13825 
L 116.688796 256.649718 
L 117.502059 260.381748 
L 119.128584 265.97984 
L 121.568373 273.517954 
L 123.194899 277.879209 
L 124.008162 278.786462 
L 124.821425 266.701448 
L 125.634688 269.833311 
L 126.44795 273.826192 
L 127.261213 276.010807 
L 128.887739 281.434036 
L 130.514265 286.196429 
L 131.327528 287.34172 
L 132.140791 289.129213 
L 132.954054 272.963878 
L 133.767316 277.980876 
L 134.580579 282.16997 
L 136.207105 287.551954 
L 137.020368 290.105592 
L 137.833631 291.49514 
L 138.646894 294.535033 
L 139.460157 296.421397 
L 140.27342 299.279637 
L 141.086682 278.388 
L 141.899945 284.007761 
L 142.713208 288.799664 
L 143.526471 292.094608 
L 144.339734 294.420922 
L 145.152997 296.095731 
L 146.779523 302.943246 
L 147.592786 303.763683 
L 148.406048 307.15259 
L 149.219311 283.468137 
L 150.032574 290.947463 
L 150.845837 295.78847 
L 153.285626 304.960488 
L 154.098889 306.853588 
L 155.725414 311.66114 
L 156.538677 313.191337 
L 157.35194 288.178574 
L 158.165203 294.975753 
L 158.978466 300.645761 
L 159.791729 304.01815 
L 160.604992 307.87988 
L 161.418255 310.023417 
L 162.231518 313.302516 
L 163.04478 317.496406 
L 163.858043 318.805976 
L 164.671306 321.591486 
L 165.484569 292.237845 
L 166.297832 300.939738 
L 167.111095 306.939416 
L 167.924358 311.046764 
L 169.550884 316.768814 
L 170.364146 320.481623 
L 171.177409 322.926731 
L 171.990672 326.781798 
L 172.803935 327.308746 
L 173.617198 296.146582 
L 174.430461 314.555344 
L 175.243724 320.147997 
L 177.683512 328.914003 
L 179.310038 334.618057 
L 180.123301 336.002937 
L 180.936564 337.692098 
L 181.749827 310.955556 
L 182.56309 317.53562 
L 183.376353 323.191055 
L 185.002878 329.76778 
L 185.816141 331.785592 
L 186.629404 335.669882 
L 187.442667 338.186531 
L 188.25593 339.479108 
L 189.069193 342.925602 
L 189.882456 313.925202 
L 190.695719 321.998981 
L 191.508982 326.117212 
L 192.322244 330.833501 
L 193.94877 336.744696 
L 194.762033 339.601626 
L 196.388559 343.447514 
L 197.201822 344.246931 
L 198.015085 316.777984 
L 198.828348 325.298906 
L 199.64161 330.114122 
L 200.454873 333.25818 
L 201.268136 337.729463 
L 202.081399 339.935174 
L 202.894662 341.42201 
L 203.707925 345.999858 
L 204.521188 345.842109 
L 205.334451 348.057799 
L 206.147714 319.597255 
L 206.960976 327.966455 
L 207.774239 332.994857 
L 208.587502 336.736068 
L 210.214028 341.873538 
L 211.027291 345.247568 
L 211.840554 346.285507 
L 212.653817 349.042601 
L 213.46708 351.314602 
L 214.280343 322.755925 
L 215.093605 329.286827 
L 215.906868 334.783632 
L 217.533394 342.598575 
L 218.346657 346.104177 
L 219.15992 346.160545 
L 220.786446 353.147979 
L 221.599709 352.864185 
L 222.412971 325.30802 
L 223.226234 333.269635 
L 224.039497 338.039854 
L 225.666023 345.378624 
L 226.479286 347.842307 
L 228.919075 353.956313 
L 229.732337 354.85164 
L 230.5456 327.475636 
L 231.358863 335.491408 
L 232.172126 339.180917 
L 232.985389 343.862283 
L 233.798652 347.204463 
L 234.611915 351.527252 
L 235.425178 351.568876 
L 237.051703 356.306975 
L 237.864966 357.519674 
L 238.678229 329.582357 
L 239.491492 338.174255 
L 240.304755 342.463933 
L 241.931281 348.938187 
L 242.744544 352.338806 
L 244.371069 356.088853 
L 245.184332 356.708561 
L 245.997595 359.781641 
L 246.810858 331.938561 
L 247.624121 339.421415 
L 248.437384 343.229131 
L 249.250647 348.127674 
L 250.06391 350.642028 
L 250.877173 354.231165 
L 251.690435 355.362435 
L 252.503698 357.231442 
L 253.316961 359.860217 
L 254.130224 361.162009 
L 254.943487 333.960662 
L 255.75675 341.683472 
L 256.570013 346.9204 
L 257.383276 348.858205 
L 258.196539 352.626575 
L 259.009801 354.697581 
L 259.823064 357.338669 
L 260.636327 358.729148 
L 261.44959 361.131717 
L 262.262853 362.868686 
L 263.076116 336.362714 
L 263.889379 342.637631 
L 265.515905 351.629548 
L 266.329167 354.09044 
L 267.14243 355.765226 
L 268.768956 360.269389 
L 270.395482 364.253404 
L 271.208745 337.892813 
L 272.022008 344.940587 
L 272.835271 349.874538 
L 274.461796 356.085062 
L 275.275059 357.686632 
L 276.088322 360.284646 
L 276.901585 361.961326 
L 277.714848 362.859375 
L 278.528111 364.915385 
L 279.341374 340.484806 
L 280.154637 346.145425 
L 280.967899 350.082189 
L 281.781162 354.727071 
L 283.407688 358.372538 
L 284.220951 360.956622 
L 286.66074 365.795211 
L 287.474003 342.011327 
L 288.287265 348.114529 
L 289.100528 352.424698 
L 290.727054 357.78765 
L 291.540317 359.163252 
L 292.35358 361.505771 
L 293.166843 363.450992 
L 293.980106 363.549109 
L 294.793369 365.982976 
L 295.606631 343.100048 
L 296.419894 349.495495 
L 298.04642 356.995461 
L 298.859683 359.535664 
L 299.672946 360.923408 
L 300.486209 362.062797 
L 301.299472 364.401907 
L 302.112735 364.733552 
L 302.925997 367.337211 
L 303.73926 344.435615 
L 304.552523 351.397653 
L 305.365786 354.813408 
L 306.179049 356.239842 
L 306.992312 360.254088 
L 307.805575 361.652118 
L 308.618838 362.684669 
L 309.432101 365.163529 
L 310.245363 365.952462 
L 311.058626 367.023572 
L 311.871889 346.254438 
L 312.685152 351.33364 
L 314.311678 358.651013 
L 315.124941 360.141638 
L 315.938204 362.052531 
L 317.564729 364.161366 
L 318.377992 366.36715 
L 319.191255 367.386594 
L 320.004518 346.772083 
L 320.817781 352.454276 
L 321.631044 355.765719 
L 322.444307 357.98844 
L 323.25757 360.614986 
L 324.884095 365.178885 
L 325.697358 366.592106 
L 326.510621 368.469884 
L 327.323884 368.060455 
L 328.137147 347.151693 
L 329.763673 356.781999 
L 330.576936 358.839681 
L 331.390199 361.325371 
L 332.203461 361.972626 
L 333.016724 364.930284 
L 333.829987 365.973747 
L 334.64325 367.437664 
L 335.456513 368.514503 
L 336.269776 348.678093 
L 337.083039 353.259702 
L 337.896302 356.955295 
L 338.709565 359.895086 
L 341.149353 365.140689 
L 341.962616 366.011514 
L 343.589142 368.867181 
L 344.402405 349.571799 
L 345.215668 354.455246 
L 346.028931 357.684592 
L 346.842193 359.096882 
L 347.655456 362.201082 
L 349.281982 365.926461 
L 350.095245 366.769138 
L 350.908508 368.506076 
L 351.721771 368.509586 
L 352.535034 350.800254 
L 353.348297 355.262696 
L 354.161559 358.775606 
L 354.974822 359.710615 
L 355.788085 362.465951 
L 356.601348 363.314805 
L 357.414611 365.292736 
L 358.227874 366.378176 
L 359.041137 368.016987 
L 359.8544 369.36 
L 360.667663 350.875263 
L 361.480925 355.960036 
L 362.294188 359.395034 
L 363.920714 362.565869 
L 364.733977 364.229807 
L 365.54724 366.281216 
L 366.360503 366.275048 
L 367.173766 367.939336 
L 367.987029 369.042576 
L 368.800291 350.753882 
L 369.613554 356.159822 
L 370.426817 359.61699 
L 371.24008 361.286446 
L 372.053343 362.631073 
L 373.679869 365.956823 
L 374.493132 366.472187 
L 375.306395 368.371936 
L 376.119657 369.12979 
L 376.93292 352.091259 
L 377.746183 355.080973 
L 378.559446 359.76523 
L 379.372709 361.177849 
L 380.185972 363.247705 
L 380.999235 364.296218 
L 381.812498 364.898093 
L 382.625761 366.049337 
L 383.439024 366.337702 
L 384.252286 369.359659 
L 385.065549 353.436195 
L 386.692075 359.655668 
L 387.505338 361.40466 
L 388.318601 362.33278 
L 389.131864 365.51818 
L 389.945127 366.00656 
L 390.75839 366.051694 
L 391.571652 367.754331 
L 392.384915 369.089641 
L 393.198178 353.839517 
L 394.011441 356.99693 
L 394.824704 359.678162 
L 395.637967 361.074983 
L 396.45123 362.872373 
L 397.264493 363.971885 
L 398.077756 365.864856 
L 398.891018 366.341433 
L 399.704281 367.015799 
L 400.517544 368.217308 
L 401.330807 353.996382 
L 402.14407 357.130442 
L 402.957333 361.566 
L 403.770596 361.202567 
L 404.583859 363.491737 
L 405.397122 364.469733 
L 406.210384 365.248817 
L 407.023647 366.607297 
L 407.83691 366.598738 
L 408.650173 368.731114 
L 409.463436 353.608687 
L 410.276699 357.147581 
L 411.089962 359.114266 
L 411.903225 361.703558 
L 412.716488 362.967788 
L 413.52975 364.519216 
L 414.343013 364.992274 
L 415.156276 366.22864 
L 415.969539 366.432577 
L 416.782802 367.627721 
L 417.596065 353.627917 
L 418.409328 357.252763 
L 419.222591 359.760618 
L 420.035854 361.668241 
L 420.849116 362.01844 
L 421.662379 364.530343 
L 422.475642 365.977769 
L 423.288905 366.517655 
L 424.102168 367.282698 
L 424.915431 367.436174 
L 425.728694 354.32019 
L 426.541957 358.338604 
L 427.35522 359.102986 
L 428.168482 361.122835 
L 429.795008 363.905001 
L 431.421534 365.447091 
L 432.234797 367.044103 
L 433.04806 367.281065 
L 433.861323 354.431743 
L 435.487848 360.645517 
L 437.114374 362.494684 
L 437.927637 364.846807 
L 438.7409 364.915747 
L 439.554163 365.346649 
L 440.367426 367.537841 
L 441.180689 367.865365 
L 441.993952 354.184973 
L 442.807214 358.401242 
L 443.620477 360.184527 
L 444.43374 362.38371 
L 445.247003 362.21478 
L 446.060266 363.773204 
L 446.873529 365.050191 
L 447.686792 364.935455 
L 448.500055 366.671214 
L 449.313318 366.978733 
L 450.12658 355.55201 
L 450.939843 357.499459 
L 451.753106 360.438139 
L 453.379632 362.743834 
L 454.192895 364.922242 
L 455.006158 363.865734 
L 455.819421 364.422457 
L 456.632684 366.693598 
L 457.445946 366.8621 
L 458.259209 354.844604 
L 459.072472 357.666634 
L 459.885735 359.981506 
L 460.698998 360.860305 
L 461.512261 362.959394 
L 462.325524 364.130657 
L 463.138787 363.934939 
L 463.95205 365.725981 
L 464.765312 366.376607 
L 465.578575 365.335101 
L 466.391838 355.671962 
L 467.205101 358.032296 
L 468.018364 359.977827 
L 468.831627 360.57666 
L 469.64489 362.450398 
L 470.458153 363.45931 
L 471.271416 364.718679 
L 472.084678 364.658648 
L 472.897941 365.272913 
L 473.711204 366.369925 
L 474.524467 355.080532 
L 475.33773 359.071504 
L 476.150993 360.615509 
L 476.964256 361.285433 
L 477.777519 362.694182 
L 478.590782 363.471239 
L 479.404044 363.881983 
L 480.217307 365.124626 
L 481.843833 365.559369 
L 482.657096 355.929694 
L 483.470359 359.295632 
L 484.283622 360.115289 
L 485.096885 360.129501 
L 485.910148 362.449262 
L 486.72341 362.384016 
L 487.536673 362.94111 
L 488.349936 363.82435 
L 489.976462 365.962389 
L 490.789725 355.069221 
L 491.602988 359.219447 
L 492.416251 360.617822 
L 493.229514 360.788543 
L 494.042776 361.798293 
L 494.856039 362.47259 
L 495.669302 363.915086 
L 496.482565 363.629417 
L 497.295828 364.753043 
L 498.109091 365.091158 
L 498.109091 365.091158 
" style="fill:none;stroke:#ff0000;stroke-linecap:square;stroke-width:1.5;"/>
   </g>
   <g id="patch_8">
    <path d="M 72 384.48 
L 72 51.84 
" style="fill:none;stroke:#000000;stroke-linecap:square;stroke-linejoin:miter;stroke-width:0.8;"/>
   </g>
   <g id="patch_9">
    <path d="M 518.4 384.48 
L 518.4 51.84 
" style="fill:none;stroke:#000000;stroke-linecap:square;stroke-linejoin:miter;stroke-width:0.8;"/>
   </g>
   <g id="patch_10">
    <path d="M 72 384.48 
L 518.4 384.48 
" style="fill:none;stroke:#000000;stroke-linecap:square;stroke-linejoin:miter;stroke-width:0.8;"/>
   </g>
   <g id="patch_11">
    <path d="M 72 51.84 
L 518.4 51.84 
" style="fill:none;stroke:#000000;stroke-linecap:square;stroke-linejoin:miter;stroke-width:0.8;"/>
   </g>
   <g id="text_26">
    <!-- The learning curve on _iid/host/3 -->
    <g transform="translate(193.144687 45.84)scale(0.12 -0.12)">
     <defs>
      <path d="M -0.296875 72.90625 
L 61.375 72.90625 
L 61.375 64.59375 
L 35.5 64.59375 
L 35.5 0 
L 25.59375 0 
L 25.59375 64.59375 
L -0.296875 64.59375 
z
" id="DejaVuSans-84"/>
      <path id="DejaVuSans-32"/>
      <path d="M 45.40625 27.984375 
Q 45.40625 37.75 41.375 43.109375 
Q 37.359375 48.484375 30.078125 48.484375 
Q 22.859375 48.484375 18.828125 43.109375 
Q 14.796875 37.75 14.796875 27.984375 
Q 14.796875 18.265625 18.828125 12.890625 
Q 22.859375 7.515625 30.078125 7.515625 
Q 37.359375 7.515625 41.375 12.890625 
Q 45.40625 18.265625 45.40625 27.984375 
z
M 54.390625 6.78125 
Q 54.390625 -7.171875 48.1875 -13.984375 
Q 42 -20.796875 29.203125 -20.796875 
Q 24.46875 -20.796875 20.265625 -20.09375 
Q 16.0625 -19.390625 12.109375 -17.921875 
L 12.109375 -9.1875 
Q 16.0625 -11.328125 19.921875 -12.34375 
Q 23.78125 -13.375 27.78125 -13.375 
Q 36.625 -13.375 41.015625 -8.765625 
Q 45.40625 -4.15625 45.40625 5.171875 
L 45.40625 9.625 
Q 42.625 4.78125 38.28125 2.390625 
Q 33.9375 0 27.875 0 
Q 17.828125 0 11.671875 7.65625 
Q 5.515625 15.328125 5.515625 27.984375 
Q 5.515625 40.671875 11.671875 48.328125 
Q 17.828125 56 27.875 56 
Q 33.9375 56 38.28125 53.609375 
Q 42.625 51.21875 45.40625 46.390625 
L 45.40625 54.6875 
L 54.390625 54.6875 
z
" id="DejaVuSans-103"/>
      <path d="M 8.5 21.578125 
L 8.5 54.6875 
L 17.484375 54.6875 
L 17.484375 21.921875 
Q 17.484375 14.15625 20.5 10.265625 
Q 23.53125 6.390625 29.59375 6.390625 
Q 36.859375 6.390625 41.078125 11.03125 
Q 45.3125 15.671875 45.3125 23.6875 
L 45.3125 54.6875 
L 54.296875 54.6875 
L 54.296875 0 
L 45.3125 0 
L 45.3125 8.40625 
Q 42.046875 3.421875 37.71875 1 
Q 33.40625 -1.421875 27.6875 -1.421875 
Q 18.265625 -1.421875 13.375 4.4375 
Q 8.5 10.296875 8.5 21.578125 
z
M 31.109375 56 
z
" id="DejaVuSans-117"/>
      <path d="M 2.984375 54.6875 
L 12.5 54.6875 
L 29.59375 8.796875 
L 46.6875 54.6875 
L 56.203125 54.6875 
L 35.6875 0 
L 23.484375 0 
z
" id="DejaVuSans-118"/>
      <path d="M 30.953125 67.4375 
L 56.203125 0 
L 46.6875 0 
L 31.34375 40.4375 
L 12.5 0 
L 2.984375 0 
L 26.953125 52.4375 
L 23.34375 62.109375 
Q 21.046875 68.265625 15.828125 68.265625 
L 11.140625 68.265625 
L 11.140625 75.984375 
L 16.84375 75.875 
Q 27.875 75.734375 30.953125 67.4375 
z
" id="DejaVuSans-955"/>
      <path d="M 50.984375 -16.609375 
L 50.984375 -23.578125 
L -0.984375 -23.578125 
L -0.984375 -16.609375 
z
" id="DejaVuSans-95"/>
      <path d="M 45.40625 46.390625 
L 45.40625 75.984375 
L 54.390625 75.984375 
L 54.390625 0 
L 45.40625 0 
L 45.40625 8.203125 
Q 42.578125 3.328125 38.25 0.953125 
Q 33.9375 -1.421875 27.875 -1.421875 
Q 17.96875 -1.421875 11.734375 6.484375 
Q 5.515625 14.40625 5.515625 27.296875 
Q 5.515625 40.1875 11.734375 48.09375 
Q 17.96875 56 27.875 56 
Q 33.9375 56 38.25 53.625 
Q 42.578125 51.265625 45.40625 46.390625 
z
M 14.796875 27.296875 
Q 14.796875 17.390625 18.875 11.75 
Q 22.953125 6.109375 30.078125 6.109375 
Q 37.203125 6.109375 41.296875 11.75 
Q 45.40625 17.390625 45.40625 27.296875 
Q 45.40625 37.203125 41.296875 42.84375 
Q 37.203125 48.484375 30.078125 48.484375 
Q 22.953125 48.484375 18.875 42.84375 
Q 14.796875 37.203125 14.796875 27.296875 
z
" id="DejaVuSans-100"/>
      <path d="M 25.390625 72.90625 
L 33.6875 72.90625 
L 8.296875 -9.28125 
L 0 -9.28125 
z
" id="DejaVuSans-47"/>
     </defs>
     <use xlink:href="#DejaVuSans-84"/>
     <use x="61.083984" xlink:href="#DejaVuSans-104"/>
     <use x="124.462891" xlink:href="#DejaVuSans-101"/>
     <use x="185.986328" xlink:href="#DejaVuSans-32"/>
     <use x="217.773438" xlink:href="#DejaVuSans-108"/>
     <use x="245.556641" xlink:href="#DejaVuSans-101"/>
     <use x="307.080078" xlink:href="#DejaVuSans-97"/>
     <use x="368.359375" xlink:href="#DejaVuSans-114"/>
     <use x="407.722656" xlink:href="#DejaVuSans-110"/>
     <use x="471.101562" xlink:href="#DejaVuSans-105"/>
     <use x="498.884766" xlink:href="#DejaVuSans-110"/>
     <use x="562.263672" xlink:href="#DejaVuSans-103"/>
     <use x="625.740234" xlink:href="#DejaVuSans-32"/>
     <use x="657.527344" xlink:href="#DejaVuSans-99"/>
     <use x="712.507812" xlink:href="#DejaVuSans-117"/>
     <use x="775.886719" xlink:href="#DejaVuSans-114"/>
     <use x="817" xlink:href="#DejaVuSans-118"/>
     <use x="876.179688" xlink:href="#DejaVuSans-101"/>
     <use x="937.703125" xlink:href="#DejaVuSans-32"/>
     <use x="969.490234" xlink:href="#DejaVuSans-111"/>
     <use x="1030.671875" xlink:href="#DejaVuSans-110"/>
     <use x="1094.050781" xlink:href="#DejaVuSans-32"/>
     <use x="1125.837891" xlink:href="#DejaVuSans-955"/>
     <use x="1185.017578" xlink:href="#DejaVuSans-95"/>
     <use x="1235.017578" xlink:href="#DejaVuSans-105"/>
     <use x="1262.800781" xlink:href="#DejaVuSans-105"/>
     <use x="1290.583984" xlink:href="#DejaVuSans-100"/>
     <use x="1354.060547" xlink:href="#DejaVuSans-47"/>
     <use x="1387.751953" xlink:href="#DejaVuSans-104"/>
     <use x="1451.130859" xlink:href="#DejaVuSans-111"/>
     <use x="1512.3125" xlink:href="#DejaVuSans-115"/>
     <use x="1564.412109" xlink:href="#DejaVuSans-116"/>
     <use x="1603.621094" xlink:href="#DejaVuSans-47"/>
     <use x="1637.3125" xlink:href="#DejaVuSans-51"/>
    </g>
   </g>
   <g id="legend_2">
    <g id="patch_12">
     <path d="M 460.084375 74.518125 
L 511.4 74.518125 
Q 513.4 74.518125 513.4 72.518125 
L 513.4 58.84 
Q 513.4 56.84 511.4 56.84 
L 460.084375 56.84 
Q 458.084375 56.84 458.084375 58.84 
L 458.084375 72.518125 
Q 458.084375 74.518125 460.084375 74.518125 
z
" style="fill:#ffffff;opacity:0.8;stroke:#cccccc;stroke-linejoin:miter;"/>
    </g>
    <g id="line2d_28">
     <path d="M 462.084375 64.938438 
L 482.084375 64.938438 
" style="fill:none;stroke:#ff0000;stroke-linecap:square;stroke-width:1.5;"/>
    </g>
    <g id="line2d_29"/>
    <g id="text_27">
     <!-- loss -->
     <g transform="translate(490.084375 68.438438)scale(0.1 -0.1)">
      <use xlink:href="#DejaVuSans-108"/>
      <use x="27.783203" xlink:href="#DejaVuSans-111"/>
      <use x="88.964844" xlink:href="#DejaVuSans-115"/>
      <use x="141.064453" xlink:href="#DejaVuSans-115"/>
     </g>
    </g>
   </g>
  </g>
 </g>
 <defs>
  <clipPath id="p05c633ae0a">
   <rect height="332.64" width="446.4" x="72" y="51.84"/>
  </clipPath>
 </defs>
</svg>
