<?xml version="1.0" encoding="utf-8" standalone="no"?>
<!DOCTYPE svg PUBLIC "-//W3C//DTD SVG 1.1//EN"
  "http://www.w3.org/Graphics/SVG/1.1/DTD/svg11.dtd">
<!-- Created with matplotlib (https://matplotlib.org/) -->
<svg height="432pt" version="1.1" viewBox="0 0 576 432" width="576pt" xmlns="http://www.w3.org/2000/svg" xmlns:xlink="http://www.w3.org/1999/xlink">
 <metadata>
  <rdf:RDF xmlns:cc="http://creativecommons.org/ns#" xmlns:dc="http://purl.org/dc/elements/1.1/" xmlns:rdf="http://www.w3.org/1999/02/22-rdf-syntax-ns#">
   <cc:Work>
    <dc:type rdf:resource="http://purl.org/dc/dcmitype/StillImage"/>
    <dc:date>2023-04-17T00:04:42.213068</dc:date>
    <dc:format>image/svg+xml</dc:format>
    <dc:creator>
     <cc:Agent>
      <dc:title>Matplotlib v3.3.4, https://matplotlib.org/</dc:title>
     </cc:Agent>
    </dc:creator>
   </cc:Work>
  </rdf:RDF>
 </metadata>
 <defs>
  <style type="text/css">*{stroke-linecap:butt;stroke-linejoin:round;}</style>
 </defs>
 <g id="figure_1">
  <g id="patch_1">
   <path d="M 0 432 
L 576 432 
L 576 0 
L 0 0 
z
" style="fill:#ffffff;"/>
  </g>
  <g id="axes_1">
   <g id="patch_2">
    <path d="M 72 384.48 
L 518.4 384.48 
L 518.4 51.84 
L 72 51.84 
z
" style="fill:#ffffff;"/>
   </g>
   <g id="matplotlib.axis_1">
    <g id="xtick_1">
     <g id="line2d_1">
      <defs>
       <path d="M 0 0 
L 0 3.5 
" id="m2f93538850" style="stroke:#000000;stroke-width:0.8;"/>
      </defs>
      <g>
       <use style="stroke:#000000;stroke-width:0.8;" x="92.290909" xlink:href="#m2f93538850" y="384.48"/>
      </g>
     </g>
     <g id="text_1">
      <!-- 0 -->
      <g transform="translate(89.109659 399.078438)scale(0.1 -0.1)">
       <defs>
        <path d="M 31.78125 66.40625 
Q 24.171875 66.40625 20.328125 58.90625 
Q 16.5 51.421875 16.5 36.375 
Q 16.5 21.390625 20.328125 13.890625 
Q 24.171875 6.390625 31.78125 6.390625 
Q 39.453125 6.390625 43.28125 13.890625 
Q 47.125 21.390625 47.125 36.375 
Q 47.125 51.421875 43.28125 58.90625 
Q 39.453125 66.40625 31.78125 66.40625 
z
M 31.78125 74.21875 
Q 44.046875 74.21875 50.515625 64.515625 
Q 56.984375 54.828125 56.984375 36.375 
Q 56.984375 17.96875 50.515625 8.265625 
Q 44.046875 -1.421875 31.78125 -1.421875 
Q 19.53125 -1.421875 13.0625 8.265625 
Q 6.59375 17.96875 6.59375 36.375 
Q 6.59375 54.828125 13.0625 64.515625 
Q 19.53125 74.21875 31.78125 74.21875 
z
" id="DejaVuSans-48"/>
       </defs>
       <use xlink:href="#DejaVuSans-48"/>
      </g>
     </g>
    </g>
    <g id="xtick_2">
     <g id="line2d_2">
      <g>
       <use style="stroke:#000000;stroke-width:0.8;" x="173.617198" xlink:href="#m2f93538850" y="384.48"/>
      </g>
     </g>
     <g id="text_2">
      <!-- 100 -->
      <g transform="translate(164.073448 399.078438)scale(0.1 -0.1)">
       <defs>
        <path d="M 12.40625 8.296875 
L 28.515625 8.296875 
L 28.515625 63.921875 
L 10.984375 60.40625 
L 10.984375 69.390625 
L 28.421875 72.90625 
L 38.28125 72.90625 
L 38.28125 8.296875 
L 54.390625 8.296875 
L 54.390625 0 
L 12.40625 0 
z
" id="DejaVuSans-49"/>
       </defs>
       <use xlink:href="#DejaVuSans-49"/>
       <use x="63.623047" xlink:href="#DejaVuSans-48"/>
       <use x="127.246094" xlink:href="#DejaVuSans-48"/>
      </g>
     </g>
    </g>
    <g id="xtick_3">
     <g id="line2d_3">
      <g>
       <use style="stroke:#000000;stroke-width:0.8;" x="254.943487" xlink:href="#m2f93538850" y="384.48"/>
      </g>
     </g>
     <g id="text_3">
      <!-- 200 -->
      <g transform="translate(245.399737 399.078438)scale(0.1 -0.1)">
       <defs>
        <path d="M 19.1875 8.296875 
L 53.609375 8.296875 
L 53.609375 0 
L 7.328125 0 
L 7.328125 8.296875 
Q 12.9375 14.109375 22.625 23.890625 
Q 32.328125 33.6875 34.8125 36.53125 
Q 39.546875 41.84375 41.421875 45.53125 
Q 43.3125 49.21875 43.3125 52.78125 
Q 43.3125 58.59375 39.234375 62.25 
Q 35.15625 65.921875 28.609375 65.921875 
Q 23.96875 65.921875 18.8125 64.3125 
Q 13.671875 62.703125 7.8125 59.421875 
L 7.8125 69.390625 
Q 13.765625 71.78125 18.9375 73 
Q 24.125 74.21875 28.421875 74.21875 
Q 39.75 74.21875 46.484375 68.546875 
Q 53.21875 62.890625 53.21875 53.421875 
Q 53.21875 48.921875 51.53125 44.890625 
Q 49.859375 40.875 45.40625 35.40625 
Q 44.1875 33.984375 37.640625 27.21875 
Q 31.109375 20.453125 19.1875 8.296875 
z
" id="DejaVuSans-50"/>
       </defs>
       <use xlink:href="#DejaVuSans-50"/>
       <use x="63.623047" xlink:href="#DejaVuSans-48"/>
       <use x="127.246094" xlink:href="#DejaVuSans-48"/>
      </g>
     </g>
    </g>
    <g id="xtick_4">
     <g id="line2d_4">
      <g>
       <use style="stroke:#000000;stroke-width:0.8;" x="336.269776" xlink:href="#m2f93538850" y="384.48"/>
      </g>
     </g>
     <g id="text_4">
      <!-- 300 -->
      <g transform="translate(326.726026 399.078438)scale(0.1 -0.1)">
       <defs>
        <path d="M 40.578125 39.3125 
Q 47.65625 37.796875 51.625 33 
Q 55.609375 28.21875 55.609375 21.1875 
Q 55.609375 10.40625 48.1875 4.484375 
Q 40.765625 -1.421875 27.09375 -1.421875 
Q 22.515625 -1.421875 17.65625 -0.515625 
Q 12.796875 0.390625 7.625 2.203125 
L 7.625 11.71875 
Q 11.71875 9.328125 16.59375 8.109375 
Q 21.484375 6.890625 26.8125 6.890625 
Q 36.078125 6.890625 40.9375 10.546875 
Q 45.796875 14.203125 45.796875 21.1875 
Q 45.796875 27.640625 41.28125 31.265625 
Q 36.765625 34.90625 28.71875 34.90625 
L 20.21875 34.90625 
L 20.21875 43.015625 
L 29.109375 43.015625 
Q 36.375 43.015625 40.234375 45.921875 
Q 44.09375 48.828125 44.09375 54.296875 
Q 44.09375 59.90625 40.109375 62.90625 
Q 36.140625 65.921875 28.71875 65.921875 
Q 24.65625 65.921875 20.015625 65.03125 
Q 15.375 64.15625 9.8125 62.3125 
L 9.8125 71.09375 
Q 15.4375 72.65625 20.34375 73.4375 
Q 25.25 74.21875 29.59375 74.21875 
Q 40.828125 74.21875 47.359375 69.109375 
Q 53.90625 64.015625 53.90625 55.328125 
Q 53.90625 49.265625 50.4375 45.09375 
Q 46.96875 40.921875 40.578125 39.3125 
z
" id="DejaVuSans-51"/>
       </defs>
       <use xlink:href="#DejaVuSans-51"/>
       <use x="63.623047" xlink:href="#DejaVuSans-48"/>
       <use x="127.246094" xlink:href="#DejaVuSans-48"/>
      </g>
     </g>
    </g>
    <g id="xtick_5">
     <g id="line2d_5">
      <g>
       <use style="stroke:#000000;stroke-width:0.8;" x="417.596065" xlink:href="#m2f93538850" y="384.48"/>
      </g>
     </g>
     <g id="text_5">
      <!-- 400 -->
      <g transform="translate(408.052315 399.078438)scale(0.1 -0.1)">
       <defs>
        <path d="M 37.796875 64.3125 
L 12.890625 25.390625 
L 37.796875 25.390625 
z
M 35.203125 72.90625 
L 47.609375 72.90625 
L 47.609375 25.390625 
L 58.015625 25.390625 
L 58.015625 17.1875 
L 47.609375 17.1875 
L 47.609375 0 
L 37.796875 0 
L 37.796875 17.1875 
L 4.890625 17.1875 
L 4.890625 26.703125 
z
" id="DejaVuSans-52"/>
       </defs>
       <use xlink:href="#DejaVuSans-52"/>
       <use x="63.623047" xlink:href="#DejaVuSans-48"/>
       <use x="127.246094" xlink:href="#DejaVuSans-48"/>
      </g>
     </g>
    </g>
    <g id="xtick_6">
     <g id="line2d_6">
      <g>
       <use style="stroke:#000000;stroke-width:0.8;" x="498.922354" xlink:href="#m2f93538850" y="384.48"/>
      </g>
     </g>
     <g id="text_6">
      <!-- 500 -->
      <g transform="translate(489.378604 399.078438)scale(0.1 -0.1)">
       <defs>
        <path d="M 10.796875 72.90625 
L 49.515625 72.90625 
L 49.515625 64.59375 
L 19.828125 64.59375 
L 19.828125 46.734375 
Q 21.96875 47.46875 24.109375 47.828125 
Q 26.265625 48.1875 28.421875 48.1875 
Q 40.625 48.1875 47.75 41.5 
Q 54.890625 34.8125 54.890625 23.390625 
Q 54.890625 11.625 47.5625 5.09375 
Q 40.234375 -1.421875 26.90625 -1.421875 
Q 22.3125 -1.421875 17.546875 -0.640625 
Q 12.796875 0.140625 7.71875 1.703125 
L 7.71875 11.625 
Q 12.109375 9.234375 16.796875 8.0625 
Q 21.484375 6.890625 26.703125 6.890625 
Q 35.15625 6.890625 40.078125 11.328125 
Q 45.015625 15.765625 45.015625 23.390625 
Q 45.015625 31 40.078125 35.4375 
Q 35.15625 39.890625 26.703125 39.890625 
Q 22.75 39.890625 18.8125 39.015625 
Q 14.890625 38.140625 10.796875 36.28125 
z
" id="DejaVuSans-53"/>
       </defs>
       <use xlink:href="#DejaVuSans-53"/>
       <use x="63.623047" xlink:href="#DejaVuSans-48"/>
       <use x="127.246094" xlink:href="#DejaVuSans-48"/>
      </g>
     </g>
    </g>
    <g id="text_7">
     <!-- epoch -->
     <g transform="translate(279.971875 412.756563)scale(0.1 -0.1)">
      <defs>
       <path d="M 56.203125 29.59375 
L 56.203125 25.203125 
L 14.890625 25.203125 
Q 15.484375 15.921875 20.484375 11.0625 
Q 25.484375 6.203125 34.421875 6.203125 
Q 39.59375 6.203125 44.453125 7.46875 
Q 49.3125 8.734375 54.109375 11.28125 
L 54.109375 2.78125 
Q 49.265625 0.734375 44.1875 -0.34375 
Q 39.109375 -1.421875 33.890625 -1.421875 
Q 20.796875 -1.421875 13.15625 6.1875 
Q 5.515625 13.8125 5.515625 26.8125 
Q 5.515625 40.234375 12.765625 48.109375 
Q 20.015625 56 32.328125 56 
Q 43.359375 56 49.78125 48.890625 
Q 56.203125 41.796875 56.203125 29.59375 
z
M 47.21875 32.234375 
Q 47.125 39.59375 43.09375 43.984375 
Q 39.0625 48.390625 32.421875 48.390625 
Q 24.90625 48.390625 20.390625 44.140625 
Q 15.875 39.890625 15.1875 32.171875 
z
" id="DejaVuSans-101"/>
       <path d="M 18.109375 8.203125 
L 18.109375 -20.796875 
L 9.078125 -20.796875 
L 9.078125 54.6875 
L 18.109375 54.6875 
L 18.109375 46.390625 
Q 20.953125 51.265625 25.265625 53.625 
Q 29.59375 56 35.59375 56 
Q 45.5625 56 51.78125 48.09375 
Q 58.015625 40.1875 58.015625 27.296875 
Q 58.015625 14.40625 51.78125 6.484375 
Q 45.5625 -1.421875 35.59375 -1.421875 
Q 29.59375 -1.421875 25.265625 0.953125 
Q 20.953125 3.328125 18.109375 8.203125 
z
M 48.6875 27.296875 
Q 48.6875 37.203125 44.609375 42.84375 
Q 40.53125 48.484375 33.40625 48.484375 
Q 26.265625 48.484375 22.1875 42.84375 
Q 18.109375 37.203125 18.109375 27.296875 
Q 18.109375 17.390625 22.1875 11.75 
Q 26.265625 6.109375 33.40625 6.109375 
Q 40.53125 6.109375 44.609375 11.75 
Q 48.6875 17.390625 48.6875 27.296875 
z
" id="DejaVuSans-112"/>
       <path d="M 30.609375 48.390625 
Q 23.390625 48.390625 19.1875 42.75 
Q 14.984375 37.109375 14.984375 27.296875 
Q 14.984375 17.484375 19.15625 11.84375 
Q 23.34375 6.203125 30.609375 6.203125 
Q 37.796875 6.203125 41.984375 11.859375 
Q 46.1875 17.53125 46.1875 27.296875 
Q 46.1875 37.015625 41.984375 42.703125 
Q 37.796875 48.390625 30.609375 48.390625 
z
M 30.609375 56 
Q 42.328125 56 49.015625 48.375 
Q 55.71875 40.765625 55.71875 27.296875 
Q 55.71875 13.875 49.015625 6.21875 
Q 42.328125 -1.421875 30.609375 -1.421875 
Q 18.84375 -1.421875 12.171875 6.21875 
Q 5.515625 13.875 5.515625 27.296875 
Q 5.515625 40.765625 12.171875 48.375 
Q 18.84375 56 30.609375 56 
z
" id="DejaVuSans-111"/>
       <path d="M 48.78125 52.59375 
L 48.78125 44.1875 
Q 44.96875 46.296875 41.140625 47.34375 
Q 37.3125 48.390625 33.40625 48.390625 
Q 24.65625 48.390625 19.8125 42.84375 
Q 14.984375 37.3125 14.984375 27.296875 
Q 14.984375 17.28125 19.8125 11.734375 
Q 24.65625 6.203125 33.40625 6.203125 
Q 37.3125 6.203125 41.140625 7.25 
Q 44.96875 8.296875 48.78125 10.40625 
L 48.78125 2.09375 
Q 45.015625 0.34375 40.984375 -0.53125 
Q 36.96875 -1.421875 32.421875 -1.421875 
Q 20.0625 -1.421875 12.78125 6.34375 
Q 5.515625 14.109375 5.515625 27.296875 
Q 5.515625 40.671875 12.859375 48.328125 
Q 20.21875 56 33.015625 56 
Q 37.15625 56 41.109375 55.140625 
Q 45.0625 54.296875 48.78125 52.59375 
z
" id="DejaVuSans-99"/>
       <path d="M 54.890625 33.015625 
L 54.890625 0 
L 45.90625 0 
L 45.90625 32.71875 
Q 45.90625 40.484375 42.875 44.328125 
Q 39.84375 48.1875 33.796875 48.1875 
Q 26.515625 48.1875 22.3125 43.546875 
Q 18.109375 38.921875 18.109375 30.90625 
L 18.109375 0 
L 9.078125 0 
L 9.078125 75.984375 
L 18.109375 75.984375 
L 18.109375 46.1875 
Q 21.34375 51.125 25.703125 53.5625 
Q 30.078125 56 35.796875 56 
Q 45.21875 56 50.046875 50.171875 
Q 54.890625 44.34375 54.890625 33.015625 
z
" id="DejaVuSans-104"/>
      </defs>
      <use xlink:href="#DejaVuSans-101"/>
      <use x="61.523438" xlink:href="#DejaVuSans-112"/>
      <use x="125" xlink:href="#DejaVuSans-111"/>
      <use x="186.181641" xlink:href="#DejaVuSans-99"/>
      <use x="241.162109" xlink:href="#DejaVuSans-104"/>
     </g>
    </g>
   </g>
   <g id="matplotlib.axis_2">
    <g id="ytick_1">
     <g id="line2d_7">
      <defs>
       <path d="M 0 0 
L -3.5 0 
" id="m03a5174487" style="stroke:#000000;stroke-width:0.8;"/>
      </defs>
      <g>
       <use style="stroke:#000000;stroke-width:0.8;" x="72" xlink:href="#m03a5174487" y="384.48"/>
      </g>
     </g>
     <g id="text_8">
      <!-- 0.0 -->
      <g transform="translate(49.096875 388.279219)scale(0.1 -0.1)">
       <defs>
        <path d="M 10.6875 12.40625 
L 21 12.40625 
L 21 0 
L 10.6875 0 
z
" id="DejaVuSans-46"/>
       </defs>
       <use xlink:href="#DejaVuSans-48"/>
       <use x="63.623047" xlink:href="#DejaVuSans-46"/>
       <use x="95.410156" xlink:href="#DejaVuSans-48"/>
      </g>
     </g>
    </g>
    <g id="ytick_2">
     <g id="line2d_8">
      <g>
       <use style="stroke:#000000;stroke-width:0.8;" x="72" xlink:href="#m03a5174487" y="317.952"/>
      </g>
     </g>
     <g id="text_9">
      <!-- 0.2 -->
      <g transform="translate(49.096875 321.751219)scale(0.1 -0.1)">
       <use xlink:href="#DejaVuSans-48"/>
       <use x="63.623047" xlink:href="#DejaVuSans-46"/>
       <use x="95.410156" xlink:href="#DejaVuSans-50"/>
      </g>
     </g>
    </g>
    <g id="ytick_3">
     <g id="line2d_9">
      <g>
       <use style="stroke:#000000;stroke-width:0.8;" x="72" xlink:href="#m03a5174487" y="251.424"/>
      </g>
     </g>
     <g id="text_10">
      <!-- 0.4 -->
      <g transform="translate(49.096875 255.223219)scale(0.1 -0.1)">
       <use xlink:href="#DejaVuSans-48"/>
       <use x="63.623047" xlink:href="#DejaVuSans-46"/>
       <use x="95.410156" xlink:href="#DejaVuSans-52"/>
      </g>
     </g>
    </g>
    <g id="ytick_4">
     <g id="line2d_10">
      <g>
       <use style="stroke:#000000;stroke-width:0.8;" x="72" xlink:href="#m03a5174487" y="184.896"/>
      </g>
     </g>
     <g id="text_11">
      <!-- 0.6 -->
      <g transform="translate(49.096875 188.695219)scale(0.1 -0.1)">
       <defs>
        <path d="M 33.015625 40.375 
Q 26.375 40.375 22.484375 35.828125 
Q 18.609375 31.296875 18.609375 23.390625 
Q 18.609375 15.53125 22.484375 10.953125 
Q 26.375 6.390625 33.015625 6.390625 
Q 39.65625 6.390625 43.53125 10.953125 
Q 47.40625 15.53125 47.40625 23.390625 
Q 47.40625 31.296875 43.53125 35.828125 
Q 39.65625 40.375 33.015625 40.375 
z
M 52.59375 71.296875 
L 52.59375 62.3125 
Q 48.875 64.0625 45.09375 64.984375 
Q 41.3125 65.921875 37.59375 65.921875 
Q 27.828125 65.921875 22.671875 59.328125 
Q 17.53125 52.734375 16.796875 39.40625 
Q 19.671875 43.65625 24.015625 45.921875 
Q 28.375 48.1875 33.59375 48.1875 
Q 44.578125 48.1875 50.953125 41.515625 
Q 57.328125 34.859375 57.328125 23.390625 
Q 57.328125 12.15625 50.6875 5.359375 
Q 44.046875 -1.421875 33.015625 -1.421875 
Q 20.359375 -1.421875 13.671875 8.265625 
Q 6.984375 17.96875 6.984375 36.375 
Q 6.984375 53.65625 15.1875 63.9375 
Q 23.390625 74.21875 37.203125 74.21875 
Q 40.921875 74.21875 44.703125 73.484375 
Q 48.484375 72.75 52.59375 71.296875 
z
" id="DejaVuSans-54"/>
       </defs>
       <use xlink:href="#DejaVuSans-48"/>
       <use x="63.623047" xlink:href="#DejaVuSans-46"/>
       <use x="95.410156" xlink:href="#DejaVuSans-54"/>
      </g>
     </g>
    </g>
    <g id="ytick_5">
     <g id="line2d_11">
      <g>
       <use style="stroke:#000000;stroke-width:0.8;" x="72" xlink:href="#m03a5174487" y="118.368"/>
      </g>
     </g>
     <g id="text_12">
      <!-- 0.8 -->
      <g transform="translate(49.096875 122.167219)scale(0.1 -0.1)">
       <defs>
        <path d="M 31.78125 34.625 
Q 24.75 34.625 20.71875 30.859375 
Q 16.703125 27.09375 16.703125 20.515625 
Q 16.703125 13.921875 20.71875 10.15625 
Q 24.75 6.390625 31.78125 6.390625 
Q 38.8125 6.390625 42.859375 10.171875 
Q 46.921875 13.96875 46.921875 20.515625 
Q 46.921875 27.09375 42.890625 30.859375 
Q 38.875 34.625 31.78125 34.625 
z
M 21.921875 38.8125 
Q 15.578125 40.375 12.03125 44.71875 
Q 8.5 49.078125 8.5 55.328125 
Q 8.5 64.0625 14.71875 69.140625 
Q 20.953125 74.21875 31.78125 74.21875 
Q 42.671875 74.21875 48.875 69.140625 
Q 55.078125 64.0625 55.078125 55.328125 
Q 55.078125 49.078125 51.53125 44.71875 
Q 48 40.375 41.703125 38.8125 
Q 48.828125 37.15625 52.796875 32.3125 
Q 56.78125 27.484375 56.78125 20.515625 
Q 56.78125 9.90625 50.3125 4.234375 
Q 43.84375 -1.421875 31.78125 -1.421875 
Q 19.734375 -1.421875 13.25 4.234375 
Q 6.78125 9.90625 6.78125 20.515625 
Q 6.78125 27.484375 10.78125 32.3125 
Q 14.796875 37.15625 21.921875 38.8125 
z
M 18.3125 54.390625 
Q 18.3125 48.734375 21.84375 45.5625 
Q 25.390625 42.390625 31.78125 42.390625 
Q 38.140625 42.390625 41.71875 45.5625 
Q 45.3125 48.734375 45.3125 54.390625 
Q 45.3125 60.0625 41.71875 63.234375 
Q 38.140625 66.40625 31.78125 66.40625 
Q 25.390625 66.40625 21.84375 63.234375 
Q 18.3125 60.0625 18.3125 54.390625 
z
" id="DejaVuSans-56"/>
       </defs>
       <use xlink:href="#DejaVuSans-48"/>
       <use x="63.623047" xlink:href="#DejaVuSans-46"/>
       <use x="95.410156" xlink:href="#DejaVuSans-56"/>
      </g>
     </g>
    </g>
    <g id="ytick_6">
     <g id="line2d_12">
      <g>
       <use style="stroke:#000000;stroke-width:0.8;" x="72" xlink:href="#m03a5174487" y="51.84"/>
      </g>
     </g>
     <g id="text_13">
      <!-- 1.0 -->
      <g transform="translate(49.096875 55.639219)scale(0.1 -0.1)">
       <use xlink:href="#DejaVuSans-49"/>
       <use x="63.623047" xlink:href="#DejaVuSans-46"/>
       <use x="95.410156" xlink:href="#DejaVuSans-48"/>
      </g>
     </g>
    </g>
    <g id="text_14">
     <!-- rate -->
     <g transform="translate(43.017187 228.31625)rotate(-90)scale(0.1 -0.1)">
      <defs>
       <path d="M 41.109375 46.296875 
Q 39.59375 47.171875 37.8125 47.578125 
Q 36.03125 48 33.890625 48 
Q 26.265625 48 22.1875 43.046875 
Q 18.109375 38.09375 18.109375 28.8125 
L 18.109375 0 
L 9.078125 0 
L 9.078125 54.6875 
L 18.109375 54.6875 
L 18.109375 46.1875 
Q 20.953125 51.171875 25.484375 53.578125 
Q 30.03125 56 36.53125 56 
Q 37.453125 56 38.578125 55.875 
Q 39.703125 55.765625 41.0625 55.515625 
z
" id="DejaVuSans-114"/>
       <path d="M 34.28125 27.484375 
Q 23.390625 27.484375 19.1875 25 
Q 14.984375 22.515625 14.984375 16.5 
Q 14.984375 11.71875 18.140625 8.90625 
Q 21.296875 6.109375 26.703125 6.109375 
Q 34.1875 6.109375 38.703125 11.40625 
Q 43.21875 16.703125 43.21875 25.484375 
L 43.21875 27.484375 
z
M 52.203125 31.203125 
L 52.203125 0 
L 43.21875 0 
L 43.21875 8.296875 
Q 40.140625 3.328125 35.546875 0.953125 
Q 30.953125 -1.421875 24.3125 -1.421875 
Q 15.921875 -1.421875 10.953125 3.296875 
Q 6 8.015625 6 15.921875 
Q 6 25.140625 12.171875 29.828125 
Q 18.359375 34.515625 30.609375 34.515625 
L 43.21875 34.515625 
L 43.21875 35.40625 
Q 43.21875 41.609375 39.140625 45 
Q 35.0625 48.390625 27.6875 48.390625 
Q 23 48.390625 18.546875 47.265625 
Q 14.109375 46.140625 10.015625 43.890625 
L 10.015625 52.203125 
Q 14.9375 54.109375 19.578125 55.046875 
Q 24.21875 56 28.609375 56 
Q 40.484375 56 46.34375 49.84375 
Q 52.203125 43.703125 52.203125 31.203125 
z
" id="DejaVuSans-97"/>
       <path d="M 18.3125 70.21875 
L 18.3125 54.6875 
L 36.8125 54.6875 
L 36.8125 47.703125 
L 18.3125 47.703125 
L 18.3125 18.015625 
Q 18.3125 11.328125 20.140625 9.421875 
Q 21.96875 7.515625 27.59375 7.515625 
L 36.8125 7.515625 
L 36.8125 0 
L 27.59375 0 
Q 17.1875 0 13.234375 3.875 
Q 9.28125 7.765625 9.28125 18.015625 
L 9.28125 47.703125 
L 2.6875 47.703125 
L 2.6875 54.6875 
L 9.28125 54.6875 
L 9.28125 70.21875 
z
" id="DejaVuSans-116"/>
      </defs>
      <use xlink:href="#DejaVuSans-114"/>
      <use x="41.113281" xlink:href="#DejaVuSans-97"/>
      <use x="102.392578" xlink:href="#DejaVuSans-116"/>
      <use x="141.601562" xlink:href="#DejaVuSans-101"/>
     </g>
    </g>
   </g>
   <g id="line2d_13">
    <path clip-path="url(#p239802c20b)" d="M 92.290909 196.307228 
L 93.104172 183.655757 
L 93.917435 174.784619 
L 94.730698 172.000805 
L 95.543961 170.215273 
L 96.357224 167.572815 
L 97.170486 166.38333 
L 97.983749 161.857243 
L 98.797012 163.016462 
L 99.610275 159.991939 
L 100.423538 174.165809 
L 101.236801 169.650341 
L 102.050064 163.783507 
L 102.863327 161.185984 
L 103.67659 159.998758 
L 104.489852 153.96592 
L 105.303115 152.194246 
L 106.116378 150.95186 
L 106.929641 151.560866 
L 107.742904 148.18906 
L 108.556167 161.049116 
L 109.36943 158.450226 
L 110.182693 154.342599 
L 110.995956 154.878221 
L 111.809218 152.469949 
L 112.622481 149.324339 
L 113.435744 146.89702 
L 114.249007 146.699319 
L 115.875533 144.321188 
L 116.688796 151.667807 
L 117.502059 146.971285 
L 118.315322 146.554706 
L 119.128584 142.534329 
L 119.941847 141.569442 
L 120.75511 142.33683 
L 122.381636 139.140284 
L 124.008162 134.083117 
L 124.821425 149.19208 
L 125.634688 143.559941 
L 126.44795 140.044355 
L 127.261213 138.675418 
L 128.074476 137.070898 
L 128.887739 134.863805 
L 129.701002 134.061265 
L 130.514265 132.026432 
L 131.327528 130.9408 
L 132.140791 129.397967 
L 132.954054 145.448979 
L 133.767316 138.384106 
L 134.580579 134.931064 
L 135.393842 134.782291 
L 136.207105 133.271444 
L 137.020368 128.99324 
L 137.833631 129.351573 
L 138.646894 128.116125 
L 139.460157 127.233081 
L 140.27342 125.90145 
L 141.086682 147.820121 
L 141.899945 139.271408 
L 142.713208 133.401539 
L 143.526471 131.004423 
L 144.339734 127.686464 
L 145.152997 127.346201 
L 145.96626 124.457465 
L 146.779523 125.618383 
L 147.592786 122.710864 
L 148.406048 120.674455 
L 149.219311 146.347697 
L 150.032574 134.00498 
L 150.845837 132.140663 
L 151.6591 128.240607 
L 152.472363 122.920152 
L 153.285626 122.687104 
L 154.912152 119.883953 
L 155.725414 117.780896 
L 156.538677 116.65797 
L 157.35194 144.280119 
L 158.165203 133.916936 
L 159.791729 122.577921 
L 160.604992 122.652404 
L 161.418255 118.861561 
L 162.231518 118.382908 
L 163.04478 114.916982 
L 163.858043 115.784095 
L 164.671306 112.689011 
L 165.484569 143.269545 
L 166.297832 132.406327 
L 167.924358 121.23632 
L 168.737621 120.18485 
L 169.550884 118.28045 
L 170.364146 113.182351 
L 171.177409 112.258241 
L 171.990672 110.359659 
L 172.803935 109.907532 
L 173.617198 143.319642 
L 174.430461 119.756058 
L 175.243724 111.635626 
L 176.056987 108.412643 
L 176.87025 104.146954 
L 177.683512 104.272849 
L 178.496775 102.440504 
L 179.310038 99.93657 
L 180.123301 98.299399 
L 180.936564 97.273388 
L 181.749827 129.094668 
L 182.56309 118.838847 
L 183.376353 111.896716 
L 184.189616 108.970528 
L 185.002878 105.332563 
L 186.629404 99.54353 
L 187.442667 99.126887 
L 188.25593 96.01419 
L 189.069193 96.513944 
L 189.882456 128.404169 
L 190.695719 117.050669 
L 191.508982 108.681649 
L 192.322244 107.543393 
L 193.135507 104.415749 
L 193.94877 99.89109 
L 195.575296 96.642966 
L 196.388559 97.118174 
L 197.201822 93.092974 
L 198.015085 125.945063 
L 198.828348 114.374478 
L 199.64161 108.953414 
L 200.454873 104.708056 
L 201.268136 102.708338 
L 202.081399 98.556184 
L 202.894662 96.806785 
L 203.707925 94.675406 
L 204.521188 93.886897 
L 205.334451 92.464067 
L 206.147714 122.837719 
L 206.960976 113.200801 
L 207.774239 109.292766 
L 208.587502 103.229935 
L 209.400765 100.023259 
L 210.214028 97.577842 
L 211.027291 96.777788 
L 211.840554 94.230001 
L 212.653817 91.228282 
L 213.46708 91.713967 
L 214.280343 122.189755 
L 215.093605 111.955618 
L 215.906868 106.223832 
L 216.720131 102.518339 
L 217.533394 97.874262 
L 218.346657 95.929909 
L 219.15992 94.549409 
L 219.973183 91.738443 
L 220.786446 90.396323 
L 221.599709 89.309992 
L 222.412971 120.357883 
L 223.226234 111.003757 
L 224.039497 104.212567 
L 224.85276 99.665298 
L 225.666023 98.135408 
L 226.479286 95.154663 
L 227.292549 92.709287 
L 228.105812 91.694451 
L 228.919075 89.1275 
L 229.732337 89.682295 
L 230.5456 118.154699 
L 231.358863 110.88809 
L 232.172126 105.739435 
L 232.985389 99.595509 
L 234.611915 93.310988 
L 235.425178 92.316745 
L 236.238441 90.573376 
L 237.051703 89.520027 
L 237.864966 88.039956 
L 238.678229 117.538863 
L 239.491492 107.385178 
L 240.304755 101.64362 
L 241.931281 94.80494 
L 242.744544 91.356603 
L 243.557807 90.946636 
L 244.371069 88.629605 
L 245.184332 87.51754 
L 245.997595 87.314097 
L 246.810858 115.989499 
L 247.624121 107.025344 
L 248.437384 99.709668 
L 249.250647 97.494377 
L 250.06391 93.999166 
L 250.877173 91.891385 
L 251.690435 90.100254 
L 252.503698 87.369212 
L 253.316961 86.880359 
L 254.130224 87.064586 
L 254.943487 115.310128 
L 255.75675 104.92619 
L 256.570013 99.829368 
L 258.196539 94.427851 
L 259.009801 90.997223 
L 259.823064 88.72725 
L 260.636327 88.124131 
L 261.44959 86.415566 
L 262.262853 85.916297 
L 263.076116 112.939629 
L 263.889379 103.460752 
L 264.702642 97.668655 
L 265.515905 94.232006 
L 266.329167 92.615567 
L 267.14243 90.199856 
L 267.955693 88.507969 
L 268.768956 87.398752 
L 269.582219 85.628705 
L 270.395482 84.519194 
L 271.208745 111.831967 
L 272.022008 101.284747 
L 272.835271 98.262273 
L 273.648533 93.051428 
L 274.461796 90.545761 
L 275.275059 89.716872 
L 276.088322 88.612914 
L 276.901585 86.239171 
L 277.714848 84.511943 
L 278.528111 85.055731 
L 279.341374 109.46055 
L 280.154637 101.061301 
L 280.967899 96.488284 
L 281.781162 95.121903 
L 282.594425 90.773293 
L 283.407688 89.490932 
L 284.220951 88.528773 
L 285.847477 84.797775 
L 286.66074 83.624979 
L 287.474003 110.188209 
L 288.287265 99.892692 
L 289.100528 96.179338 
L 289.913791 93.542699 
L 290.727054 90.136354 
L 291.540317 87.597898 
L 292.35358 88.337191 
L 293.166843 84.412859 
L 294.793369 84.094196 
L 295.606631 107.616195 
L 296.419894 99.505548 
L 297.233157 94.626328 
L 298.04642 92.400221 
L 298.859683 88.77598 
L 299.672946 88.854517 
L 300.486209 86.579761 
L 302.112735 84.408632 
L 302.925997 83.490549 
L 303.73926 106.336849 
L 304.552523 98.989611 
L 305.365786 95.22746 
L 306.179049 93.046343 
L 306.992312 88.958961 
L 307.805575 89.118199 
L 308.618838 85.722799 
L 309.432101 85.557093 
L 310.245363 83.803684 
L 311.058626 82.5602 
L 311.871889 106.208244 
L 312.685152 98.303246 
L 314.311678 91.338145 
L 315.124941 90.105975 
L 316.751467 85.179342 
L 317.564729 84.361706 
L 318.377992 83.005705 
L 319.191255 82.81353 
L 320.004518 104.054169 
L 320.817781 97.49015 
L 321.631044 94.303744 
L 322.444307 91.925496 
L 323.25757 88.1298 
L 324.070833 87.206969 
L 324.884095 85.868906 
L 325.697358 84.747952 
L 327.323884 83.074829 
L 328.137147 103.124566 
L 328.95041 97.652294 
L 330.576936 91.16447 
L 331.390199 88.203365 
L 333.016724 85.592895 
L 333.829987 85.18508 
L 334.64325 84.220635 
L 335.456513 83.51662 
L 336.269776 101.647811 
L 337.083039 98.156778 
L 337.896302 92.77296 
L 338.709565 90.252752 
L 340.33609 87.033719 
L 341.149353 86.688766 
L 341.962616 83.711351 
L 342.775879 83.099693 
L 343.589142 82.943725 
L 344.402405 100.525752 
L 345.215668 95.883993 
L 346.028931 92.2612 
L 346.842193 89.351712 
L 347.655456 89.269922 
L 348.468719 88.010635 
L 349.281982 86.095401 
L 350.095245 83.860666 
L 350.908508 82.854176 
L 351.721771 83.081148 
L 352.535034 101.256727 
L 353.348297 95.625204 
L 354.161559 91.3168 
L 354.974822 90.816165 
L 355.788085 88.026993 
L 356.601348 88.031058 
L 357.414611 87.138792 
L 358.227874 85.961112 
L 359.041137 83.935531 
L 359.8544 83.31686 
L 360.667663 100.09592 
L 362.294188 92.416038 
L 363.107451 90.213664 
L 363.920714 89.369389 
L 364.733977 87.042219 
L 365.54724 85.306549 
L 366.360503 85.550632 
L 367.173766 83.196838 
L 367.987029 83.480684 
L 368.800291 100.291487 
L 369.613554 97.06658 
L 370.426817 91.386602 
L 371.24008 90.137401 
L 372.053343 88.253625 
L 372.866606 85.988142 
L 373.679869 86.408511 
L 375.306395 83.888564 
L 376.119657 81.819601 
L 376.93292 99.479518 
L 377.746183 93.88091 
L 380.185972 87.906985 
L 380.999235 88.174752 
L 381.812498 85.44762 
L 382.625761 85.411948 
L 383.439024 82.857366 
L 384.252286 84.542904 
L 385.065549 98.817011 
L 385.878812 94.634883 
L 386.692075 91.927753 
L 387.505338 91.206496 
L 389.131864 85.998721 
L 389.945127 85.98057 
L 390.75839 84.063402 
L 391.571652 84.268845 
L 392.384915 83.836335 
L 393.198178 98.117049 
L 394.011441 95.596768 
L 394.824704 91.419954 
L 395.637967 90.914898 
L 396.45123 87.439321 
L 397.264493 88.173008 
L 398.077756 87.593251 
L 398.891018 84.940314 
L 399.704281 84.965223 
L 400.517544 83.719473 
L 401.330807 97.855772 
L 402.957333 90.594652 
L 403.770596 91.245656 
L 404.583859 88.820491 
L 405.397122 88.338341 
L 406.210384 87.610529 
L 407.023647 85.432372 
L 407.83691 84.63599 
L 408.650173 82.897496 
L 409.463436 98.678681 
L 410.276699 92.940859 
L 411.089962 90.901735 
L 411.903225 90.518904 
L 412.716488 89.150067 
L 413.52975 89.030503 
L 414.343013 85.688938 
L 415.156276 84.097105 
L 415.969539 83.479486 
L 416.782802 84.006305 
L 417.596065 97.388876 
L 418.409328 94.049472 
L 420.035854 89.174001 
L 420.849116 89.21561 
L 421.662379 88.189607 
L 422.475642 86.424056 
L 423.288905 86.05634 
L 424.102168 85.283389 
L 424.915431 84.717744 
L 425.728694 97.03145 
L 426.541957 94.48126 
L 427.35522 91.426954 
L 428.168482 90.286449 
L 428.981745 88.812828 
L 432.234797 85.143514 
L 433.04806 84.839442 
L 433.861323 96.886607 
L 434.674586 93.122332 
L 435.487848 92.539097 
L 436.301111 90.038354 
L 437.927637 87.340704 
L 438.7409 87.726288 
L 439.554163 87.691062 
L 440.367426 85.355403 
L 441.180689 84.334867 
L 441.993952 97.109821 
L 442.807214 93.007402 
L 443.620477 92.335608 
L 444.43374 89.419031 
L 445.247003 88.752762 
L 446.060266 89.15085 
L 446.873529 87.364763 
L 447.686792 87.058768 
L 448.500055 86.537953 
L 449.313318 85.064083 
L 450.12658 97.306717 
L 450.939843 92.276633 
L 451.753106 91.321482 
L 452.566369 91.607116 
L 453.379632 89.462776 
L 454.192895 89.378592 
L 455.819421 85.094742 
L 456.632684 87.221998 
L 457.445946 84.079921 
L 458.259209 96.416877 
L 459.072472 94.342507 
L 459.885735 91.418893 
L 460.698998 90.955639 
L 461.512261 88.988014 
L 462.325524 89.82094 
L 463.95205 85.765249 
L 464.765312 85.192014 
L 465.578575 86.806949 
L 466.391838 96.050699 
L 467.205101 93.355567 
L 468.018364 91.535963 
L 468.831627 92.219779 
L 469.64489 89.503668 
L 471.271416 88.501009 
L 472.084678 87.528634 
L 472.897941 87.235347 
L 473.711204 86.532214 
L 474.524467 95.744208 
L 475.33773 95.050113 
L 476.150993 92.615678 
L 476.964256 89.598753 
L 477.777519 91.509311 
L 478.590782 88.863094 
L 480.217307 87.001797 
L 481.03057 87.180823 
L 481.843833 86.997413 
L 482.657096 96.152667 
L 483.470359 93.178946 
L 485.096885 91.648212 
L 485.910148 89.399883 
L 486.72341 88.783112 
L 487.536673 86.823809 
L 488.349936 87.121096 
L 489.163199 85.740646 
L 489.976462 85.030021 
L 490.789725 94.972166 
L 491.602988 94.075336 
L 492.416251 92.585464 
L 493.229514 91.56979 
L 494.042776 89.525756 
L 494.856039 90.177654 
L 495.669302 89.270926 
L 496.482565 88.947409 
L 497.295828 87.905017 
L 498.109091 85.584335 
L 498.109091 85.584335 
" style="fill:none;stroke:#0000ff;stroke-linecap:square;stroke-width:1.5;"/>
   </g>
   <g id="line2d_14">
    <path clip-path="url(#p239802c20b)" d="M 92.290909 339.634378 
L 93.104172 338.694175 
L 93.917435 334.335465 
L 95.543961 330.225725 
L 96.357224 327.223542 
L 97.170486 326.310358 
L 97.983749 323.402364 
L 98.797012 322.414353 
L 99.610275 320.852876 
L 100.423538 339.707681 
L 101.236801 336.207326 
L 102.050064 331.526939 
L 103.67659 327.314091 
L 105.303115 321.382603 
L 106.116378 318.995655 
L 106.929641 318.435783 
L 107.742904 315.472867 
L 108.556167 330.278362 
L 109.36943 325.755284 
L 110.182693 322.266127 
L 110.995956 320.774087 
L 111.809218 318.456545 
L 112.622481 315.3155 
L 115.875533 306.511127 
L 116.688796 314.334386 
L 117.502059 313.600506 
L 118.315322 310.423333 
L 119.128584 308.153331 
L 119.941847 306.447097 
L 120.75511 302.833526 
L 121.568373 302.195343 
L 123.194899 297.094702 
L 124.008162 294.308277 
L 124.821425 303.969971 
L 125.634688 302.951299 
L 126.44795 299.263764 
L 127.261213 298.457302 
L 128.074476 294.83681 
L 128.887739 293.715014 
L 129.701002 292.158465 
L 131.327528 285.675384 
L 132.140791 284.508009 
L 132.954054 294.41603 
L 133.767316 294.394551 
L 134.580579 291.670808 
L 136.207105 287.621281 
L 137.020368 284.065863 
L 138.646894 278.62639 
L 139.460157 275.394696 
L 140.27342 274.449981 
L 141.086682 288.799904 
L 141.899945 288.830322 
L 143.526471 281.848262 
L 145.96626 272.49649 
L 146.779523 271.580017 
L 147.592786 266.838718 
L 148.406048 263.853387 
L 149.219311 282.994652 
L 150.032574 280.949963 
L 151.6591 274.391341 
L 152.472363 268.792651 
L 153.285626 266.95729 
L 154.098889 264.637443 
L 154.912152 262.833532 
L 155.725414 256.628375 
L 156.538677 254.468319 
L 157.35194 276.600975 
L 158.165203 275.277561 
L 158.978466 271.633176 
L 159.791729 266.280114 
L 160.604992 263.034976 
L 161.418255 258.953533 
L 162.231518 256.913598 
L 163.04478 251.381682 
L 163.858043 249.069131 
L 164.671306 245.214892 
L 165.484569 272.078175 
L 167.111095 265.556776 
L 169.550884 252.468449 
L 170.364146 246.536733 
L 171.990672 237.932453 
L 172.803935 235.168209 
L 173.617198 267.466385 
L 174.430461 257.446948 
L 175.243724 250.478776 
L 176.056987 246.343748 
L 176.87025 243.226566 
L 178.496775 235.42603 
L 179.310038 233.255832 
L 180.123301 228.577833 
L 180.936564 225.817236 
L 181.749827 254.75534 
L 183.376353 245.077404 
L 184.189616 241.087399 
L 185.002878 236.198634 
L 185.816141 232.600585 
L 186.629404 230.64476 
L 187.442667 227.681417 
L 188.25593 220.341953 
L 189.069193 220.535435 
L 189.882456 250.975347 
L 190.695719 246.630107 
L 191.508982 238.8608 
L 192.322244 236.762605 
L 193.94877 226.233942 
L 194.762033 224.181403 
L 195.575296 220.731239 
L 196.388559 219.054806 
L 197.201822 212.667312 
L 198.015085 246.589885 
L 198.828348 240.057561 
L 200.454873 230.58244 
L 201.268136 227.157459 
L 202.081399 222.438621 
L 202.894662 219.010038 
L 203.707925 213.282842 
L 204.521188 211.758821 
L 205.334451 209.321105 
L 206.147714 243.008772 
L 206.960976 236.778239 
L 207.774239 232.413776 
L 209.400765 221.667364 
L 211.027291 215.624968 
L 211.840554 210.280872 
L 212.653817 206.708984 
L 213.46708 205.496458 
L 214.280343 239.41093 
L 215.906868 227.159967 
L 216.720131 222.48429 
L 217.533394 216.858101 
L 218.346657 214.85147 
L 219.15992 210.813126 
L 219.973183 206.138743 
L 220.786446 203.848408 
L 221.599709 199.595187 
L 222.412971 236.237169 
L 223.226234 228.871455 
L 224.039497 224.200585 
L 224.85276 217.568531 
L 225.666023 216.159075 
L 226.479286 210.602137 
L 228.919075 198.967444 
L 229.732337 199.158217 
L 230.5456 232.693012 
L 232.985389 214.974574 
L 233.798652 211.882612 
L 234.611915 207.752597 
L 237.051703 197.664222 
L 237.864966 194.917136 
L 238.678229 230.570172 
L 239.491492 223.412417 
L 240.304755 218.490998 
L 241.931281 206.835893 
L 244.371069 196.896522 
L 245.184332 195.304751 
L 245.997595 190.872758 
L 246.810858 228.601286 
L 247.624121 222.405074 
L 248.437384 214.421652 
L 250.06391 205.629773 
L 251.690435 197.427258 
L 253.316961 192.025019 
L 254.130224 191.042205 
L 254.943487 226.388405 
L 255.75675 217.161914 
L 256.570013 212.493781 
L 257.383276 207.061108 
L 258.196539 204.324602 
L 259.823064 196.415911 
L 260.636327 193.521961 
L 261.44959 189.618436 
L 262.262853 187.477965 
L 263.076116 223.782519 
L 263.889379 215.092043 
L 264.702642 208.37214 
L 265.515905 203.460447 
L 266.329167 201.090767 
L 267.955693 192.017399 
L 269.582219 188.392612 
L 270.395482 184.330825 
L 271.208745 222.276308 
L 272.022008 212.125344 
L 272.835271 208.263332 
L 273.648533 200.624707 
L 276.901585 190.166157 
L 277.714848 184.19368 
L 278.528111 184.235689 
L 279.341374 219.541232 
L 280.154637 209.180904 
L 280.967899 205.35379 
L 281.781162 202.662875 
L 282.594425 198.021231 
L 283.407688 194.346166 
L 284.220951 191.611775 
L 285.847477 183.781465 
L 286.66074 181.792175 
L 287.474003 217.323088 
L 288.287265 209.140405 
L 289.100528 206.035004 
L 290.727054 193.703792 
L 291.540317 190.41081 
L 292.35358 189.646009 
L 293.166843 185.820459 
L 293.980106 183.406597 
L 294.793369 180.115891 
L 295.606631 214.639858 
L 296.419894 208.466603 
L 297.233157 201.383547 
L 298.04642 198.05675 
L 298.859683 193.442911 
L 299.672946 191.677406 
L 300.486209 188.106539 
L 301.299472 185.099923 
L 302.112735 181.262911 
L 302.925997 181.983498 
L 303.73926 214.00824 
L 304.552523 205.818111 
L 306.179049 196.289461 
L 307.805575 189.101477 
L 308.618838 187.377642 
L 310.245363 182.338091 
L 311.058626 180.25135 
L 311.871889 212.845952 
L 312.685152 204.520588 
L 313.498415 199.154153 
L 314.311678 192.588871 
L 315.124941 192.636683 
L 315.938204 188.004352 
L 316.751467 186.079495 
L 317.564729 182.237831 
L 318.377992 181.714852 
L 319.191255 178.883822 
L 320.004518 210.297748 
L 320.817781 203.659031 
L 322.444307 194.698654 
L 323.25757 189.621768 
L 324.070833 187.827479 
L 324.884095 183.139834 
L 325.697358 183.668153 
L 327.323884 179.268667 
L 328.137147 210.994511 
L 328.95041 202.602115 
L 329.763673 198.418719 
L 330.576936 193.054353 
L 331.390199 190.164982 
L 332.203461 185.34718 
L 333.016724 183.790632 
L 333.829987 183.58273 
L 334.64325 179.112911 
L 335.456513 177.853468 
L 336.269776 207.367209 
L 337.083039 202.823884 
L 337.896302 195.947669 
L 338.709565 190.637035 
L 339.522827 190.347327 
L 340.33609 186.846654 
L 341.149353 185.656761 
L 341.962616 180.129639 
L 342.775879 180.758855 
L 343.589142 175.821789 
L 344.402405 206.433109 
L 346.028931 194.55625 
L 346.842193 191.542967 
L 349.281982 184.513262 
L 350.095245 180.882718 
L 350.908508 179.71533 
L 351.721771 178.077166 
L 352.535034 206.457051 
L 354.161559 193.537219 
L 354.974822 192.537577 
L 355.788085 187.198135 
L 356.601348 186.934976 
L 358.227874 181.823833 
L 359.041137 181.041086 
L 359.8544 178.808925 
L 360.667663 205.230806 
L 362.294188 194.943552 
L 363.107451 191.346303 
L 364.733977 185.674396 
L 365.54724 182.10608 
L 366.360503 182.279368 
L 367.173766 178.255253 
L 367.987029 178.698108 
L 368.800291 203.996723 
L 369.613554 197.902776 
L 370.426817 194.04007 
L 371.24008 191.906162 
L 372.053343 187.625153 
L 372.866606 184.041553 
L 373.679869 184.739593 
L 374.493132 181.266232 
L 375.306395 180.160465 
L 376.119657 177.07496 
L 376.93292 204.014173 
L 378.559446 193.126762 
L 379.372709 190.837684 
L 380.185972 187.762742 
L 380.999235 185.340225 
L 381.812498 180.959347 
L 382.625761 181.854023 
L 383.439024 179.398604 
L 384.252286 179.304117 
L 385.065549 202.224932 
L 385.878812 200.013275 
L 386.692075 191.665004 
L 387.505338 191.044923 
L 389.131864 183.746783 
L 389.945127 182.5805 
L 390.75839 181.913625 
L 391.571652 179.12568 
L 392.384915 180.388573 
L 393.198178 203.443393 
L 394.011441 197.467946 
L 394.824704 195.154719 
L 395.637967 188.421249 
L 396.45123 187.33101 
L 397.264493 187.803185 
L 398.077756 185.462947 
L 398.891018 181.55556 
L 399.704281 180.542404 
L 400.517544 178.770044 
L 401.330807 202.809348 
L 402.14407 195.335302 
L 403.770596 190.663942 
L 404.583859 188.58049 
L 405.397122 185.455502 
L 406.210384 183.790798 
L 407.023647 182.385444 
L 407.83691 179.497673 
L 408.650173 177.591182 
L 409.463436 204.348769 
L 410.276699 196.482741 
L 411.089962 191.729407 
L 411.903225 189.643549 
L 412.716488 188.681209 
L 413.52975 187.430409 
L 414.343013 182.471202 
L 415.156276 182.525743 
L 415.969539 178.256651 
L 416.782802 179.104756 
L 417.596065 201.189251 
L 419.222591 193.027097 
L 420.035854 190.732844 
L 420.849116 187.365507 
L 421.662379 185.753832 
L 422.475642 184.694212 
L 423.288905 183.19139 
L 424.102168 179.759844 
L 424.915431 182.019248 
L 425.728694 202.000489 
L 426.541957 196.548946 
L 427.35522 192.713137 
L 428.168482 190.965842 
L 428.981745 187.391913 
L 430.608271 184.51293 
L 431.421534 184.626329 
L 433.04806 179.900765 
L 433.861323 201.655424 
L 434.674586 195.882455 
L 436.301111 189.689839 
L 437.114374 187.514575 
L 437.927637 187.237988 
L 438.7409 183.990248 
L 439.554163 184.356756 
L 440.367426 183.502059 
L 441.180689 181.762076 
L 441.993952 200.920749 
L 442.807214 194.467291 
L 443.620477 191.913319 
L 444.43374 190.431548 
L 445.247003 187.174734 
L 446.060266 188.616649 
L 446.873529 185.667942 
L 447.686792 185.29691 
L 448.500055 183.885309 
L 449.313318 182.179194 
L 450.12658 200.949734 
L 450.939843 195.1285 
L 451.753106 192.129338 
L 452.566369 191.686252 
L 453.379632 188.333936 
L 454.192895 187.858663 
L 455.006158 187.514293 
L 455.819421 182.873402 
L 456.632684 185.948199 
L 457.445946 181.288103 
L 458.259209 199.966185 
L 459.885735 193.301741 
L 460.698998 192.559307 
L 461.512261 188.9991 
L 462.325524 188.793637 
L 463.138787 186.830257 
L 463.95205 184.459758 
L 464.765312 183.65679 
L 465.578575 184.468614 
L 466.391838 200.405496 
L 468.018364 191.958898 
L 468.831627 193.068745 
L 470.458153 188.052062 
L 471.271416 186.968303 
L 472.084678 184.919365 
L 472.897941 184.968161 
L 473.711204 183.728833 
L 474.524467 201.065916 
L 475.33773 196.656251 
L 476.150993 193.331445 
L 476.964256 191.57614 
L 477.777519 190.386983 
L 478.590782 187.954867 
L 480.217307 184.574475 
L 481.843833 185.673479 
L 482.657096 199.791413 
L 483.470359 195.526806 
L 484.283622 193.729052 
L 485.096885 192.426768 
L 485.910148 189.124819 
L 486.72341 188.663308 
L 487.536673 185.135633 
L 488.349936 187.810543 
L 489.163199 183.307341 
L 489.976462 183.607218 
L 490.789725 198.411615 
L 491.602988 197.344638 
L 492.416251 193.86002 
L 493.229514 192.417253 
L 494.042776 188.597562 
L 494.856039 188.916152 
L 495.669302 188.705076 
L 496.482565 186.298053 
L 497.295828 185.238397 
L 498.109091 185.528591 
L 498.109091 185.528591 
" style="fill:none;stroke:#008000;stroke-linecap:square;stroke-width:1.5;"/>
   </g>
   <g id="patch_3">
    <path d="M 72 384.48 
L 72 51.84 
" style="fill:none;stroke:#000000;stroke-linecap:square;stroke-linejoin:miter;stroke-width:0.8;"/>
   </g>
   <g id="patch_4">
    <path d="M 518.4 384.48 
L 518.4 51.84 
" style="fill:none;stroke:#000000;stroke-linecap:square;stroke-linejoin:miter;stroke-width:0.8;"/>
   </g>
   <g id="patch_5">
    <path d="M 72 384.48 
L 518.4 384.48 
" style="fill:none;stroke:#000000;stroke-linecap:square;stroke-linejoin:miter;stroke-width:0.8;"/>
   </g>
   <g id="patch_6">
    <path d="M 72 51.84 
L 518.4 51.84 
" style="fill:none;stroke:#000000;stroke-linecap:square;stroke-linejoin:miter;stroke-width:0.8;"/>
   </g>
   <g id="legend_1">
    <g id="patch_7">
     <path d="M 79 89.19625 
L 156.107812 89.19625 
Q 158.107812 89.19625 158.107812 87.19625 
L 158.107812 58.84 
Q 158.107812 56.84 156.107812 56.84 
L 79 56.84 
Q 77 56.84 77 58.84 
L 77 87.19625 
Q 77 89.19625 79 89.19625 
z
" style="fill:#ffffff;opacity:0.8;stroke:#cccccc;stroke-linejoin:miter;"/>
    </g>
    <g id="line2d_15">
     <path d="M 81 64.938437 
L 101 64.938437 
" style="fill:none;stroke:#0000ff;stroke-linecap:square;stroke-width:1.5;"/>
    </g>
    <g id="line2d_16"/>
    <g id="text_15">
     <!-- precision -->
     <g transform="translate(109 68.438437)scale(0.1 -0.1)">
      <defs>
       <path d="M 9.421875 54.6875 
L 18.40625 54.6875 
L 18.40625 0 
L 9.421875 0 
z
M 9.421875 75.984375 
L 18.40625 75.984375 
L 18.40625 64.59375 
L 9.421875 64.59375 
z
" id="DejaVuSans-105"/>
       <path d="M 44.28125 53.078125 
L 44.28125 44.578125 
Q 40.484375 46.53125 36.375 47.5 
Q 32.28125 48.484375 27.875 48.484375 
Q 21.1875 48.484375 17.84375 46.4375 
Q 14.5 44.390625 14.5 40.28125 
Q 14.5 37.15625 16.890625 35.375 
Q 19.28125 33.59375 26.515625 31.984375 
L 29.59375 31.296875 
Q 39.15625 29.25 43.1875 25.515625 
Q 47.21875 21.78125 47.21875 15.09375 
Q 47.21875 7.46875 41.1875 3.015625 
Q 35.15625 -1.421875 24.609375 -1.421875 
Q 20.21875 -1.421875 15.453125 -0.5625 
Q 10.6875 0.296875 5.421875 2 
L 5.421875 11.28125 
Q 10.40625 8.6875 15.234375 7.390625 
Q 20.0625 6.109375 24.8125 6.109375 
Q 31.15625 6.109375 34.5625 8.28125 
Q 37.984375 10.453125 37.984375 14.40625 
Q 37.984375 18.0625 35.515625 20.015625 
Q 33.0625 21.96875 24.703125 23.78125 
L 21.578125 24.515625 
Q 13.234375 26.265625 9.515625 29.90625 
Q 5.8125 33.546875 5.8125 39.890625 
Q 5.8125 47.609375 11.28125 51.796875 
Q 16.75 56 26.8125 56 
Q 31.78125 56 36.171875 55.265625 
Q 40.578125 54.546875 44.28125 53.078125 
z
" id="DejaVuSans-115"/>
       <path d="M 54.890625 33.015625 
L 54.890625 0 
L 45.90625 0 
L 45.90625 32.71875 
Q 45.90625 40.484375 42.875 44.328125 
Q 39.84375 48.1875 33.796875 48.1875 
Q 26.515625 48.1875 22.3125 43.546875 
Q 18.109375 38.921875 18.109375 30.90625 
L 18.109375 0 
L 9.078125 0 
L 9.078125 54.6875 
L 18.109375 54.6875 
L 18.109375 46.1875 
Q 21.34375 51.125 25.703125 53.5625 
Q 30.078125 56 35.796875 56 
Q 45.21875 56 50.046875 50.171875 
Q 54.890625 44.34375 54.890625 33.015625 
z
" id="DejaVuSans-110"/>
      </defs>
      <use xlink:href="#DejaVuSans-112"/>
      <use x="63.476562" xlink:href="#DejaVuSans-114"/>
      <use x="102.339844" xlink:href="#DejaVuSans-101"/>
      <use x="163.863281" xlink:href="#DejaVuSans-99"/>
      <use x="218.84375" xlink:href="#DejaVuSans-105"/>
      <use x="246.626953" xlink:href="#DejaVuSans-115"/>
      <use x="298.726562" xlink:href="#DejaVuSans-105"/>
      <use x="326.509766" xlink:href="#DejaVuSans-111"/>
      <use x="387.691406" xlink:href="#DejaVuSans-110"/>
     </g>
    </g>
    <g id="line2d_17">
     <path d="M 81 79.616562 
L 101 79.616562 
" style="fill:none;stroke:#008000;stroke-linecap:square;stroke-width:1.5;"/>
    </g>
    <g id="line2d_18"/>
    <g id="text_16">
     <!-- recall -->
     <g transform="translate(109 83.116562)scale(0.1 -0.1)">
      <defs>
       <path d="M 9.421875 75.984375 
L 18.40625 75.984375 
L 18.40625 0 
L 9.421875 0 
z
" id="DejaVuSans-108"/>
      </defs>
      <use xlink:href="#DejaVuSans-114"/>
      <use x="38.863281" xlink:href="#DejaVuSans-101"/>
      <use x="100.386719" xlink:href="#DejaVuSans-99"/>
      <use x="155.367188" xlink:href="#DejaVuSans-97"/>
      <use x="216.646484" xlink:href="#DejaVuSans-108"/>
      <use x="244.429688" xlink:href="#DejaVuSans-108"/>
     </g>
    </g>
   </g>
  </g>
  <g id="axes_2">
   <g id="matplotlib.axis_3">
    <g id="ytick_7">
     <g id="line2d_19">
      <defs>
       <path d="M 0 0 
L 3.5 0 
" id="m207995b9df" style="stroke:#000000;stroke-width:0.8;"/>
      </defs>
      <g>
       <use style="stroke:#000000;stroke-width:0.8;" x="518.4" xlink:href="#m207995b9df" y="345.529748"/>
      </g>
     </g>
     <g id="text_17">
      <!-- 0.12 -->
      <g transform="translate(525.4 349.328967)scale(0.1 -0.1)">
       <use xlink:href="#DejaVuSans-48"/>
       <use x="63.623047" xlink:href="#DejaVuSans-46"/>
       <use x="95.410156" xlink:href="#DejaVuSans-49"/>
       <use x="159.033203" xlink:href="#DejaVuSans-50"/>
      </g>
     </g>
    </g>
    <g id="ytick_8">
     <g id="line2d_20">
      <g>
       <use style="stroke:#000000;stroke-width:0.8;" x="518.4" xlink:href="#m207995b9df" y="306.530762"/>
      </g>
     </g>
     <g id="text_18">
      <!-- 0.14 -->
      <g transform="translate(525.4 310.32998)scale(0.1 -0.1)">
       <use xlink:href="#DejaVuSans-48"/>
       <use x="63.623047" xlink:href="#DejaVuSans-46"/>
       <use x="95.410156" xlink:href="#DejaVuSans-49"/>
       <use x="159.033203" xlink:href="#DejaVuSans-52"/>
      </g>
     </g>
    </g>
    <g id="ytick_9">
     <g id="line2d_21">
      <g>
       <use style="stroke:#000000;stroke-width:0.8;" x="518.4" xlink:href="#m207995b9df" y="267.531775"/>
      </g>
     </g>
     <g id="text_19">
      <!-- 0.16 -->
      <g transform="translate(525.4 271.330994)scale(0.1 -0.1)">
       <use xlink:href="#DejaVuSans-48"/>
       <use x="63.623047" xlink:href="#DejaVuSans-46"/>
       <use x="95.410156" xlink:href="#DejaVuSans-49"/>
       <use x="159.033203" xlink:href="#DejaVuSans-54"/>
      </g>
     </g>
    </g>
    <g id="ytick_10">
     <g id="line2d_22">
      <g>
       <use style="stroke:#000000;stroke-width:0.8;" x="518.4" xlink:href="#m207995b9df" y="228.532788"/>
      </g>
     </g>
     <g id="text_20">
      <!-- 0.18 -->
      <g transform="translate(525.4 232.332007)scale(0.1 -0.1)">
       <use xlink:href="#DejaVuSans-48"/>
       <use x="63.623047" xlink:href="#DejaVuSans-46"/>
       <use x="95.410156" xlink:href="#DejaVuSans-49"/>
       <use x="159.033203" xlink:href="#DejaVuSans-56"/>
      </g>
     </g>
    </g>
    <g id="ytick_11">
     <g id="line2d_23">
      <g>
       <use style="stroke:#000000;stroke-width:0.8;" x="518.4" xlink:href="#m207995b9df" y="189.533801"/>
      </g>
     </g>
     <g id="text_21">
      <!-- 0.20 -->
      <g transform="translate(525.4 193.33302)scale(0.1 -0.1)">
       <use xlink:href="#DejaVuSans-48"/>
       <use x="63.623047" xlink:href="#DejaVuSans-46"/>
       <use x="95.410156" xlink:href="#DejaVuSans-50"/>
       <use x="159.033203" xlink:href="#DejaVuSans-48"/>
      </g>
     </g>
    </g>
    <g id="ytick_12">
     <g id="line2d_24">
      <g>
       <use style="stroke:#000000;stroke-width:0.8;" x="518.4" xlink:href="#m207995b9df" y="150.534815"/>
      </g>
     </g>
     <g id="text_22">
      <!-- 0.22 -->
      <g transform="translate(525.4 154.334033)scale(0.1 -0.1)">
       <use xlink:href="#DejaVuSans-48"/>
       <use x="63.623047" xlink:href="#DejaVuSans-46"/>
       <use x="95.410156" xlink:href="#DejaVuSans-50"/>
       <use x="159.033203" xlink:href="#DejaVuSans-50"/>
      </g>
     </g>
    </g>
    <g id="ytick_13">
     <g id="line2d_25">
      <g>
       <use style="stroke:#000000;stroke-width:0.8;" x="518.4" xlink:href="#m207995b9df" y="111.535828"/>
      </g>
     </g>
     <g id="text_23">
      <!-- 0.24 -->
      <g transform="translate(525.4 115.335047)scale(0.1 -0.1)">
       <use xlink:href="#DejaVuSans-48"/>
       <use x="63.623047" xlink:href="#DejaVuSans-46"/>
       <use x="95.410156" xlink:href="#DejaVuSans-50"/>
       <use x="159.033203" xlink:href="#DejaVuSans-52"/>
      </g>
     </g>
    </g>
    <g id="ytick_14">
     <g id="line2d_26">
      <g>
       <use style="stroke:#000000;stroke-width:0.8;" x="518.4" xlink:href="#m207995b9df" y="72.536841"/>
      </g>
     </g>
     <g id="text_24">
      <!-- 0.26 -->
      <g transform="translate(525.4 76.33606)scale(0.1 -0.1)">
       <use xlink:href="#DejaVuSans-48"/>
       <use x="63.623047" xlink:href="#DejaVuSans-46"/>
       <use x="95.410156" xlink:href="#DejaVuSans-50"/>
       <use x="159.033203" xlink:href="#DejaVuSans-54"/>
      </g>
     </g>
    </g>
    <g id="text_25">
     <!-- loss -->
     <g transform="translate(559.264063 227.817812)rotate(-90)scale(0.1 -0.1)">
      <use xlink:href="#DejaVuSans-108"/>
      <use x="27.783203" xlink:href="#DejaVuSans-111"/>
      <use x="88.964844" xlink:href="#DejaVuSans-115"/>
      <use x="141.064453" xlink:href="#DejaVuSans-115"/>
     </g>
    </g>
   </g>
   <g id="line2d_27">
    <path clip-path="url(#p239802c20b)" d="M 92.290909 66.96 
L 93.104172 120.664318 
L 93.917435 129.047432 
L 94.730698 134.648713 
L 96.357224 144.099399 
L 97.170486 146.49246 
L 97.983749 151.156022 
L 99.610275 156.249174 
L 100.423538 213.356259 
L 101.236801 225.717234 
L 102.050064 233.228165 
L 102.863327 238.741773 
L 105.303115 249.358467 
L 106.116378 252.261946 
L 106.929641 254.444959 
L 107.742904 256.968697 
L 108.556167 237.736054 
L 109.36943 244.253982 
L 110.182693 249.122709 
L 111.809218 254.652315 
L 112.622481 257.084663 
L 113.435744 260.339765 
L 115.06227 264.739771 
L 115.875533 267.211356 
L 116.688796 256.015606 
L 117.502059 259.950166 
L 119.128584 266.376432 
L 119.941847 268.28877 
L 120.75511 270.963477 
L 121.568373 272.510051 
L 123.194899 277.353582 
L 124.008162 278.974144 
L 124.821425 265.332265 
L 125.634688 270.061627 
L 127.261213 276.632108 
L 128.074476 279.095276 
L 129.701002 282.337593 
L 131.327528 287.480343 
L 132.140791 289.562611 
L 132.954054 273.492513 
L 134.580579 281.421237 
L 135.393842 284.386561 
L 136.207105 286.429024 
L 137.020368 289.462454 
L 137.833631 291.501852 
L 139.460157 296.232109 
L 140.27342 298.061901 
L 141.086682 278.366375 
L 142.713208 288.139677 
L 143.526471 291.748515 
L 145.152997 297.748222 
L 145.96626 299.550565 
L 146.779523 301.868162 
L 147.592786 303.66452 
L 148.406048 306.343449 
L 149.219311 283.132751 
L 150.032574 290.500569 
L 152.472363 301.900962 
L 154.912152 308.889181 
L 155.725414 311.901339 
L 156.538677 313.777469 
L 157.35194 288.013551 
L 158.165203 295.072952 
L 159.791729 304.324567 
L 160.604992 307.727558 
L 161.418255 310.527718 
L 162.231518 312.825484 
L 163.04478 316.554355 
L 163.858043 318.112267 
L 164.671306 320.167617 
L 165.484569 292.147944 
L 166.297832 299.597668 
L 167.111095 305.490085 
L 167.924358 310.020456 
L 168.737621 312.581599 
L 171.177409 323.919166 
L 171.990672 325.393538 
L 172.803935 327.470041 
L 173.617198 295.550998 
L 174.430461 313.434299 
L 175.243724 319.520845 
L 176.056987 322.930884 
L 176.87025 325.521973 
L 177.683512 329.097469 
L 178.496775 331.309663 
L 179.310038 332.8292 
L 180.123301 335.494556 
L 180.936564 337.138507 
L 181.749827 310.651729 
L 182.56309 317.91855 
L 184.189616 327.087957 
L 185.002878 330.194531 
L 186.629404 334.755644 
L 187.442667 336.247041 
L 188.25593 339.976309 
L 189.069193 341.187907 
L 189.882456 313.167823 
L 190.695719 321.112739 
L 191.508982 326.813752 
L 193.135507 333.136256 
L 193.94877 336.599284 
L 195.575296 340.313549 
L 196.388559 341.550776 
L 197.201822 346.348779 
L 198.015085 316.652486 
L 198.828348 325.197645 
L 200.454873 333.692325 
L 202.081399 339.494273 
L 202.894662 341.650656 
L 203.707925 344.722169 
L 204.521188 346.397968 
L 205.334451 347.172555 
L 206.147714 320.020463 
L 206.960976 327.529325 
L 207.774239 332.3543 
L 208.587502 336.317097 
L 210.214028 341.933702 
L 211.027291 344.140624 
L 211.840554 347.132768 
L 212.653817 349.407176 
L 213.46708 350.560879 
L 214.280343 322.814749 
L 215.093605 330.902794 
L 216.720131 339.21869 
L 217.533394 343.162304 
L 218.346657 344.421214 
L 219.973183 350.07034 
L 220.786446 351.453438 
L 221.599709 353.565481 
L 222.412971 325.365204 
L 223.226234 332.908486 
L 224.85276 342.423674 
L 225.666023 344.070594 
L 227.292549 350.385785 
L 228.105812 351.50171 
L 228.919075 354.471451 
L 229.732337 353.811932 
L 230.5456 327.870692 
L 231.358863 334.696002 
L 232.985389 344.389248 
L 233.798652 346.390521 
L 234.611915 349.313743 
L 236.238441 353.429455 
L 237.051703 355.720233 
L 237.864966 357.363065 
L 238.678229 330.491244 
L 239.491492 337.523283 
L 241.118018 346.046129 
L 241.931281 349.236382 
L 243.557807 353.508247 
L 244.371069 355.987162 
L 245.184332 357.73379 
L 245.997595 358.851592 
L 246.810858 331.231158 
L 248.437384 344.490795 
L 250.06391 350.714373 
L 250.877173 352.621848 
L 251.690435 356.029145 
L 252.503698 357.242295 
L 253.316961 359.943604 
L 254.130224 359.611705 
L 254.943487 333.725497 
L 255.75675 342.173916 
L 257.383276 348.930473 
L 258.196539 351.364252 
L 259.823064 357.455067 
L 260.636327 358.550254 
L 262.262853 361.724927 
L 263.076116 336.323711 
L 263.889379 343.286466 
L 264.702642 348.479374 
L 265.515905 351.338745 
L 266.329167 353.209959 
L 267.14243 356.433847 
L 267.955693 358.509794 
L 268.768956 360.183998 
L 269.582219 361.358083 
L 270.395482 364.06961 
L 271.208745 337.526824 
L 272.022008 345.232913 
L 272.835271 348.957025 
L 273.648533 353.304741 
L 275.275059 357.409747 
L 276.901585 360.364054 
L 277.714848 364.051561 
L 278.528111 363.672022 
L 279.341374 339.787527 
L 280.154637 346.821753 
L 280.967899 351.427615 
L 281.781162 352.651884 
L 282.594425 355.614451 
L 283.407688 357.719208 
L 284.220951 359.413276 
L 285.847477 364.12481 
L 286.66074 365.420172 
L 287.474003 341.016065 
L 288.287265 348.282336 
L 289.100528 350.537982 
L 289.913791 354.408344 
L 290.727054 357.685182 
L 291.540317 359.9082 
L 292.35358 361.018337 
L 293.166843 363.070233 
L 294.793369 366.178959 
L 295.606631 342.992934 
L 296.419894 349.036205 
L 297.233157 353.073362 
L 298.04642 355.458635 
L 298.859683 358.552899 
L 299.672946 360.19919 
L 300.486209 362.40612 
L 301.299472 363.445115 
L 302.925997 366.119605 
L 303.73926 343.938061 
L 304.552523 350.588463 
L 305.365786 354.250217 
L 306.179049 356.100206 
L 306.992312 359.250305 
L 307.805575 360.884361 
L 308.618838 362.774271 
L 309.432101 364.354955 
L 311.058626 367.104523 
L 311.871889 345.650752 
L 312.685152 351.641594 
L 313.498415 354.531487 
L 314.311678 358.77745 
L 315.124941 359.654763 
L 316.751467 363.510232 
L 317.564729 365.979695 
L 318.377992 366.100818 
L 319.191255 367.447328 
L 320.004518 346.244117 
L 320.817781 352.260353 
L 321.631044 355.845275 
L 322.444307 358.361838 
L 323.25757 361.328221 
L 324.070833 362.059446 
L 324.884095 364.483344 
L 325.697358 364.736616 
L 326.510621 365.500307 
L 327.323884 367.797817 
L 328.137147 347.678952 
L 328.95041 352.579092 
L 329.763673 355.972657 
L 330.576936 358.81038 
L 333.016724 364.997073 
L 333.829987 365.400561 
L 334.64325 368.111412 
L 335.456513 367.72515 
L 336.269776 349.364366 
L 337.083039 353.020765 
L 337.896302 357.606784 
L 338.709565 360.299765 
L 339.522827 360.87202 
L 340.33609 363.204247 
L 341.149353 363.710432 
L 341.962616 366.592305 
L 342.775879 366.994164 
L 343.589142 369.357612 
L 344.402405 350.156325 
L 345.215668 354.428124 
L 346.028931 357.949062 
L 346.842193 360.532634 
L 347.655456 361.110907 
L 348.468719 362.116788 
L 349.281982 364.819483 
L 350.095245 367.090079 
L 350.908508 367.726135 
L 351.721771 368.825292 
L 352.535034 350.649406 
L 353.348297 355.951578 
L 354.161559 358.558229 
L 354.974822 359.57575 
L 355.788085 362.56195 
L 356.601348 362.749264 
L 357.414611 364.347747 
L 358.227874 366.199313 
L 359.041137 367.224215 
L 359.8544 367.573331 
L 360.667663 350.742364 
L 361.480925 355.466926 
L 362.294188 357.986059 
L 363.107451 361.037293 
L 363.920714 361.581208 
L 365.54724 366.35117 
L 366.360503 366.034538 
L 367.173766 367.987221 
L 367.987029 368.240204 
L 368.800291 352.000401 
L 369.613554 356.04211 
L 370.426817 359.177633 
L 371.24008 359.909866 
L 372.866606 364.743324 
L 373.679869 364.665645 
L 374.493132 366.457525 
L 375.306395 367.480913 
L 376.119657 369.36 
L 376.93292 352.131345 
L 377.746183 356.467625 
L 378.559446 358.92569 
L 380.185972 362.558352 
L 380.999235 364.246998 
L 381.812498 366.929223 
L 382.625761 366.435553 
L 384.252286 368.749296 
L 385.065549 353.091148 
L 385.878812 355.769474 
L 386.692075 360.00293 
L 387.505338 360.709867 
L 389.131864 365.478032 
L 389.945127 365.860006 
L 390.75839 366.830077 
L 391.571652 367.515011 
L 392.384915 367.715398 
L 393.198178 352.937899 
L 394.011441 356.228027 
L 395.637967 361.606106 
L 396.45123 362.703218 
L 397.264493 363.041737 
L 398.891018 366.289395 
L 399.704281 366.977666 
L 400.517544 367.993209 
L 401.330807 353.839476 
L 402.14407 358.091955 
L 403.770596 361.089614 
L 404.583859 362.061099 
L 405.397122 363.990536 
L 406.210384 365.621021 
L 407.023647 366.199434 
L 408.650173 368.753094 
L 409.463436 352.706509 
L 410.276699 357.451639 
L 411.089962 360.484066 
L 412.716488 362.646843 
L 413.52975 362.669442 
L 414.343013 365.924116 
L 415.156276 366.962562 
L 415.969539 368.556978 
L 416.782802 367.977432 
L 417.596065 354.378604 
L 418.409328 357.847776 
L 419.222591 359.123948 
L 420.849116 363.278901 
L 422.475642 365.155924 
L 423.288905 365.397618 
L 424.102168 367.050535 
L 424.915431 367.096658 
L 425.728694 354.488566 
L 426.541957 356.952189 
L 427.35522 360.067464 
L 428.168482 361.909716 
L 430.608271 364.547334 
L 431.421534 364.890376 
L 432.234797 366.337074 
L 433.04806 367.380452 
L 433.861323 354.8937 
L 435.487848 360.344532 
L 437.114374 363.443392 
L 437.927637 363.427247 
L 438.7409 364.80791 
L 439.554163 365.456658 
L 440.367426 365.381605 
L 441.180689 367.725198 
L 441.993952 354.974266 
L 442.807214 358.1001 
L 443.620477 360.438903 
L 444.43374 361.854819 
L 445.247003 362.989741 
L 446.060266 362.974286 
L 446.873529 364.636911 
L 447.686792 364.86665 
L 448.500055 366.028757 
L 449.313318 366.83339 
L 450.12658 355.362162 
L 450.939843 358.423905 
L 451.753106 360.772213 
L 452.566369 359.902237 
L 453.379632 362.334881 
L 454.192895 363.198774 
L 455.006158 363.601616 
L 455.819421 366.52089 
L 456.632684 364.52973 
L 457.445946 366.746533 
L 458.259209 356.460605 
L 459.885735 359.502678 
L 460.698998 360.424846 
L 461.512261 362.596141 
L 462.325524 362.392649 
L 463.138787 363.284439 
L 463.95205 365.109695 
L 465.578575 366.069649 
L 466.391838 356.191317 
L 467.205101 357.5548 
L 468.018364 360.291688 
L 468.831627 359.790427 
L 469.64489 361.351884 
L 470.458153 363.347732 
L 471.271416 363.644354 
L 472.084678 364.597101 
L 472.897941 364.80888 
L 473.711204 365.36971 
L 474.524467 356.041494 
L 476.150993 359.170015 
L 476.964256 360.685649 
L 477.777519 361.23525 
L 478.590782 363.544847 
L 479.404044 364.350579 
L 480.217307 364.619692 
L 481.03057 365.091283 
L 481.843833 364.752521 
L 482.657096 355.835856 
L 483.470359 359.034831 
L 484.283622 359.76266 
L 485.096885 360.058265 
L 485.910148 362.943577 
L 486.72341 362.563987 
L 487.536673 365.032779 
L 488.349936 363.323938 
L 489.163199 365.364907 
L 489.976462 365.487661 
L 490.789725 356.719692 
L 491.602988 357.524642 
L 493.229514 360.445601 
L 494.042776 362.288005 
L 494.856039 362.283688 
L 496.482565 363.987724 
L 497.295828 364.496279 
L 498.109091 365.211365 
L 498.109091 365.211365 
" style="fill:none;stroke:#ff0000;stroke-linecap:square;stroke-width:1.5;"/>
   </g>
   <g id="patch_8">
    <path d="M 72 384.48 
L 72 51.84 
" style="fill:none;stroke:#000000;stroke-linecap:square;stroke-linejoin:miter;stroke-width:0.8;"/>
   </g>
   <g id="patch_9">
    <path d="M 518.4 384.48 
L 518.4 51.84 
" style="fill:none;stroke:#000000;stroke-linecap:square;stroke-linejoin:miter;stroke-width:0.8;"/>
   </g>
   <g id="patch_10">
    <path d="M 72 384.48 
L 518.4 384.48 
" style="fill:none;stroke:#000000;stroke-linecap:square;stroke-linejoin:miter;stroke-width:0.8;"/>
   </g>
   <g id="patch_11">
    <path d="M 72 51.84 
L 518.4 51.84 
" style="fill:none;stroke:#000000;stroke-linecap:square;stroke-linejoin:miter;stroke-width:0.8;"/>
   </g>
   <g id="text_26">
    <!-- The learning curve on _iid/host/4 -->
    <g transform="translate(193.144687 45.84)scale(0.12 -0.12)">
     <defs>
      <path d="M -0.296875 72.90625 
L 61.375 72.90625 
L 61.375 64.59375 
L 35.5 64.59375 
L 35.5 0 
L 25.59375 0 
L 25.59375 64.59375 
L -0.296875 64.59375 
z
" id="DejaVuSans-84"/>
      <path id="DejaVuSans-32"/>
      <path d="M 45.40625 27.984375 
Q 45.40625 37.75 41.375 43.109375 
Q 37.359375 48.484375 30.078125 48.484375 
Q 22.859375 48.484375 18.828125 43.109375 
Q 14.796875 37.75 14.796875 27.984375 
Q 14.796875 18.265625 18.828125 12.890625 
Q 22.859375 7.515625 30.078125 7.515625 
Q 37.359375 7.515625 41.375 12.890625 
Q 45.40625 18.265625 45.40625 27.984375 
z
M 54.390625 6.78125 
Q 54.390625 -7.171875 48.1875 -13.984375 
Q 42 -20.796875 29.203125 -20.796875 
Q 24.46875 -20.796875 20.265625 -20.09375 
Q 16.0625 -19.390625 12.109375 -17.921875 
L 12.109375 -9.1875 
Q 16.0625 -11.328125 19.921875 -12.34375 
Q 23.78125 -13.375 27.78125 -13.375 
Q 36.625 -13.375 41.015625 -8.765625 
Q 45.40625 -4.15625 45.40625 5.171875 
L 45.40625 9.625 
Q 42.625 4.78125 38.28125 2.390625 
Q 33.9375 0 27.875 0 
Q 17.828125 0 11.671875 7.65625 
Q 5.515625 15.328125 5.515625 27.984375 
Q 5.515625 40.671875 11.671875 48.328125 
Q 17.828125 56 27.875 56 
Q 33.9375 56 38.28125 53.609375 
Q 42.625 51.21875 45.40625 46.390625 
L 45.40625 54.6875 
L 54.390625 54.6875 
z
" id="DejaVuSans-103"/>
      <path d="M 8.5 21.578125 
L 8.5 54.6875 
L 17.484375 54.6875 
L 17.484375 21.921875 
Q 17.484375 14.15625 20.5 10.265625 
Q 23.53125 6.390625 29.59375 6.390625 
Q 36.859375 6.390625 41.078125 11.03125 
Q 45.3125 15.671875 45.3125 23.6875 
L 45.3125 54.6875 
L 54.296875 54.6875 
L 54.296875 0 
L 45.3125 0 
L 45.3125 8.40625 
Q 42.046875 3.421875 37.71875 1 
Q 33.40625 -1.421875 27.6875 -1.421875 
Q 18.265625 -1.421875 13.375 4.4375 
Q 8.5 10.296875 8.5 21.578125 
z
M 31.109375 56 
z
" id="DejaVuSans-117"/>
      <path d="M 2.984375 54.6875 
L 12.5 54.6875 
L 29.59375 8.796875 
L 46.6875 54.6875 
L 56.203125 54.6875 
L 35.6875 0 
L 23.484375 0 
z
" id="DejaVuSans-118"/>
      <path d="M 30.953125 67.4375 
L 56.203125 0 
L 46.6875 0 
L 31.34375 40.4375 
L 12.5 0 
L 2.984375 0 
L 26.953125 52.4375 
L 23.34375 62.109375 
Q 21.046875 68.265625 15.828125 68.265625 
L 11.140625 68.265625 
L 11.140625 75.984375 
L 16.84375 75.875 
Q 27.875 75.734375 30.953125 67.4375 
z
" id="DejaVuSans-955"/>
      <path d="M 50.984375 -16.609375 
L 50.984375 -23.578125 
L -0.984375 -23.578125 
L -0.984375 -16.609375 
z
" id="DejaVuSans-95"/>
      <path d="M 45.40625 46.390625 
L 45.40625 75.984375 
L 54.390625 75.984375 
L 54.390625 0 
L 45.40625 0 
L 45.40625 8.203125 
Q 42.578125 3.328125 38.25 0.953125 
Q 33.9375 -1.421875 27.875 -1.421875 
Q 17.96875 -1.421875 11.734375 6.484375 
Q 5.515625 14.40625 5.515625 27.296875 
Q 5.515625 40.1875 11.734375 48.09375 
Q 17.96875 56 27.875 56 
Q 33.9375 56 38.25 53.625 
Q 42.578125 51.265625 45.40625 46.390625 
z
M 14.796875 27.296875 
Q 14.796875 17.390625 18.875 11.75 
Q 22.953125 6.109375 30.078125 6.109375 
Q 37.203125 6.109375 41.296875 11.75 
Q 45.40625 17.390625 45.40625 27.296875 
Q 45.40625 37.203125 41.296875 42.84375 
Q 37.203125 48.484375 30.078125 48.484375 
Q 22.953125 48.484375 18.875 42.84375 
Q 14.796875 37.203125 14.796875 27.296875 
z
" id="DejaVuSans-100"/>
      <path d="M 25.390625 72.90625 
L 33.6875 72.90625 
L 8.296875 -9.28125 
L 0 -9.28125 
z
" id="DejaVuSans-47"/>
     </defs>
     <use xlink:href="#DejaVuSans-84"/>
     <use x="61.083984" xlink:href="#DejaVuSans-104"/>
     <use x="124.462891" xlink:href="#DejaVuSans-101"/>
     <use x="185.986328" xlink:href="#DejaVuSans-32"/>
     <use x="217.773438" xlink:href="#DejaVuSans-108"/>
     <use x="245.556641" xlink:href="#DejaVuSans-101"/>
     <use x="307.080078" xlink:href="#DejaVuSans-97"/>
     <use x="368.359375" xlink:href="#DejaVuSans-114"/>
     <use x="407.722656" xlink:href="#DejaVuSans-110"/>
     <use x="471.101562" xlink:href="#DejaVuSans-105"/>
     <use x="498.884766" xlink:href="#DejaVuSans-110"/>
     <use x="562.263672" xlink:href="#DejaVuSans-103"/>
     <use x="625.740234" xlink:href="#DejaVuSans-32"/>
     <use x="657.527344" xlink:href="#DejaVuSans-99"/>
     <use x="712.507812" xlink:href="#DejaVuSans-117"/>
     <use x="775.886719" xlink:href="#DejaVuSans-114"/>
     <use x="817" xlink:href="#DejaVuSans-118"/>
     <use x="876.179688" xlink:href="#DejaVuSans-101"/>
     <use x="937.703125" xlink:href="#DejaVuSans-32"/>
     <use x="969.490234" xlink:href="#DejaVuSans-111"/>
     <use x="1030.671875" xlink:href="#DejaVuSans-110"/>
     <use x="1094.050781" xlink:href="#DejaVuSans-32"/>
     <use x="1125.837891" xlink:href="#DejaVuSans-955"/>
     <use x="1185.017578" xlink:href="#DejaVuSans-95"/>
     <use x="1235.017578" xlink:href="#DejaVuSans-105"/>
     <use x="1262.800781" xlink:href="#DejaVuSans-105"/>
     <use x="1290.583984" xlink:href="#DejaVuSans-100"/>
     <use x="1354.060547" xlink:href="#DejaVuSans-47"/>
     <use x="1387.751953" xlink:href="#DejaVuSans-104"/>
     <use x="1451.130859" xlink:href="#DejaVuSans-111"/>
     <use x="1512.3125" xlink:href="#DejaVuSans-115"/>
     <use x="1564.412109" xlink:href="#DejaVuSans-116"/>
     <use x="1603.621094" xlink:href="#DejaVuSans-47"/>
     <use x="1637.3125" xlink:href="#DejaVuSans-52"/>
    </g>
   </g>
   <g id="legend_2">
    <g id="patch_12">
     <path d="M 460.084375 74.518125 
L 511.4 74.518125 
Q 513.4 74.518125 513.4 72.518125 
L 513.4 58.84 
Q 513.4 56.84 511.4 56.84 
L 460.084375 56.84 
Q 458.084375 56.84 458.084375 58.84 
L 458.084375 72.518125 
Q 458.084375 74.518125 460.084375 74.518125 
z
" style="fill:#ffffff;opacity:0.8;stroke:#cccccc;stroke-linejoin:miter;"/>
    </g>
    <g id="line2d_28">
     <path d="M 462.084375 64.938438 
L 482.084375 64.938438 
" style="fill:none;stroke:#ff0000;stroke-linecap:square;stroke-width:1.5;"/>
    </g>
    <g id="line2d_29"/>
    <g id="text_27">
     <!-- loss -->
     <g transform="translate(490.084375 68.438438)scale(0.1 -0.1)">
      <use xlink:href="#DejaVuSans-108"/>
      <use x="27.783203" xlink:href="#DejaVuSans-111"/>
      <use x="88.964844" xlink:href="#DejaVuSans-115"/>
      <use x="141.064453" xlink:href="#DejaVuSans-115"/>
     </g>
    </g>
   </g>
  </g>
 </g>
 <defs>
  <clipPath id="p239802c20b">
   <rect height="332.64" width="446.4" x="72" y="51.84"/>
  </clipPath>
 </defs>
</svg>
