<?xml version="1.0" encoding="utf-8" standalone="no"?>
<!DOCTYPE svg PUBLIC "-//W3C//DTD SVG 1.1//EN"
  "http://www.w3.org/Graphics/SVG/1.1/DTD/svg11.dtd">
<!-- Created with matplotlib (https://matplotlib.org/) -->
<svg height="432pt" version="1.1" viewBox="0 0 576 432" width="576pt" xmlns="http://www.w3.org/2000/svg" xmlns:xlink="http://www.w3.org/1999/xlink">
 <metadata>
  <rdf:RDF xmlns:cc="http://creativecommons.org/ns#" xmlns:dc="http://purl.org/dc/elements/1.1/" xmlns:rdf="http://www.w3.org/1999/02/22-rdf-syntax-ns#">
   <cc:Work>
    <dc:type rdf:resource="http://purl.org/dc/dcmitype/StillImage"/>
    <dc:date>2023-04-17T00:04:42.555311</dc:date>
    <dc:format>image/svg+xml</dc:format>
    <dc:creator>
     <cc:Agent>
      <dc:title>Matplotlib v3.3.4, https://matplotlib.org/</dc:title>
     </cc:Agent>
    </dc:creator>
   </cc:Work>
  </rdf:RDF>
 </metadata>
 <defs>
  <style type="text/css">*{stroke-linecap:butt;stroke-linejoin:round;}</style>
 </defs>
 <g id="figure_1">
  <g id="patch_1">
   <path d="M 0 432 
L 576 432 
L 576 0 
L 0 0 
z
" style="fill:#ffffff;"/>
  </g>
  <g id="axes_1">
   <g id="patch_2">
    <path d="M 72 384.48 
L 518.4 384.48 
L 518.4 51.84 
L 72 51.84 
z
" style="fill:#ffffff;"/>
   </g>
   <g id="matplotlib.axis_1">
    <g id="xtick_1">
     <g id="line2d_1">
      <defs>
       <path d="M 0 0 
L 0 3.5 
" id="m96ef0b79b4" style="stroke:#000000;stroke-width:0.8;"/>
      </defs>
      <g>
       <use style="stroke:#000000;stroke-width:0.8;" x="92.290909" xlink:href="#m96ef0b79b4" y="384.48"/>
      </g>
     </g>
     <g id="text_1">
      <!-- 0 -->
      <g transform="translate(89.109659 399.078438)scale(0.1 -0.1)">
       <defs>
        <path d="M 31.78125 66.40625 
Q 24.171875 66.40625 20.328125 58.90625 
Q 16.5 51.421875 16.5 36.375 
Q 16.5 21.390625 20.328125 13.890625 
Q 24.171875 6.390625 31.78125 6.390625 
Q 39.453125 6.390625 43.28125 13.890625 
Q 47.125 21.390625 47.125 36.375 
Q 47.125 51.421875 43.28125 58.90625 
Q 39.453125 66.40625 31.78125 66.40625 
z
M 31.78125 74.21875 
Q 44.046875 74.21875 50.515625 64.515625 
Q 56.984375 54.828125 56.984375 36.375 
Q 56.984375 17.96875 50.515625 8.265625 
Q 44.046875 -1.421875 31.78125 -1.421875 
Q 19.53125 -1.421875 13.0625 8.265625 
Q 6.59375 17.96875 6.59375 36.375 
Q 6.59375 54.828125 13.0625 64.515625 
Q 19.53125 74.21875 31.78125 74.21875 
z
" id="DejaVuSans-48"/>
       </defs>
       <use xlink:href="#DejaVuSans-48"/>
      </g>
     </g>
    </g>
    <g id="xtick_2">
     <g id="line2d_2">
      <g>
       <use style="stroke:#000000;stroke-width:0.8;" x="173.617198" xlink:href="#m96ef0b79b4" y="384.48"/>
      </g>
     </g>
     <g id="text_2">
      <!-- 100 -->
      <g transform="translate(164.073448 399.078438)scale(0.1 -0.1)">
       <defs>
        <path d="M 12.40625 8.296875 
L 28.515625 8.296875 
L 28.515625 63.921875 
L 10.984375 60.40625 
L 10.984375 69.390625 
L 28.421875 72.90625 
L 38.28125 72.90625 
L 38.28125 8.296875 
L 54.390625 8.296875 
L 54.390625 0 
L 12.40625 0 
z
" id="DejaVuSans-49"/>
       </defs>
       <use xlink:href="#DejaVuSans-49"/>
       <use x="63.623047" xlink:href="#DejaVuSans-48"/>
       <use x="127.246094" xlink:href="#DejaVuSans-48"/>
      </g>
     </g>
    </g>
    <g id="xtick_3">
     <g id="line2d_3">
      <g>
       <use style="stroke:#000000;stroke-width:0.8;" x="254.943487" xlink:href="#m96ef0b79b4" y="384.48"/>
      </g>
     </g>
     <g id="text_3">
      <!-- 200 -->
      <g transform="translate(245.399737 399.078438)scale(0.1 -0.1)">
       <defs>
        <path d="M 19.1875 8.296875 
L 53.609375 8.296875 
L 53.609375 0 
L 7.328125 0 
L 7.328125 8.296875 
Q 12.9375 14.109375 22.625 23.890625 
Q 32.328125 33.6875 34.8125 36.53125 
Q 39.546875 41.84375 41.421875 45.53125 
Q 43.3125 49.21875 43.3125 52.78125 
Q 43.3125 58.59375 39.234375 62.25 
Q 35.15625 65.921875 28.609375 65.921875 
Q 23.96875 65.921875 18.8125 64.3125 
Q 13.671875 62.703125 7.8125 59.421875 
L 7.8125 69.390625 
Q 13.765625 71.78125 18.9375 73 
Q 24.125 74.21875 28.421875 74.21875 
Q 39.75 74.21875 46.484375 68.546875 
Q 53.21875 62.890625 53.21875 53.421875 
Q 53.21875 48.921875 51.53125 44.890625 
Q 49.859375 40.875 45.40625 35.40625 
Q 44.1875 33.984375 37.640625 27.21875 
Q 31.109375 20.453125 19.1875 8.296875 
z
" id="DejaVuSans-50"/>
       </defs>
       <use xlink:href="#DejaVuSans-50"/>
       <use x="63.623047" xlink:href="#DejaVuSans-48"/>
       <use x="127.246094" xlink:href="#DejaVuSans-48"/>
      </g>
     </g>
    </g>
    <g id="xtick_4">
     <g id="line2d_4">
      <g>
       <use style="stroke:#000000;stroke-width:0.8;" x="336.269776" xlink:href="#m96ef0b79b4" y="384.48"/>
      </g>
     </g>
     <g id="text_4">
      <!-- 300 -->
      <g transform="translate(326.726026 399.078438)scale(0.1 -0.1)">
       <defs>
        <path d="M 40.578125 39.3125 
Q 47.65625 37.796875 51.625 33 
Q 55.609375 28.21875 55.609375 21.1875 
Q 55.609375 10.40625 48.1875 4.484375 
Q 40.765625 -1.421875 27.09375 -1.421875 
Q 22.515625 -1.421875 17.65625 -0.515625 
Q 12.796875 0.390625 7.625 2.203125 
L 7.625 11.71875 
Q 11.71875 9.328125 16.59375 8.109375 
Q 21.484375 6.890625 26.8125 6.890625 
Q 36.078125 6.890625 40.9375 10.546875 
Q 45.796875 14.203125 45.796875 21.1875 
Q 45.796875 27.640625 41.28125 31.265625 
Q 36.765625 34.90625 28.71875 34.90625 
L 20.21875 34.90625 
L 20.21875 43.015625 
L 29.109375 43.015625 
Q 36.375 43.015625 40.234375 45.921875 
Q 44.09375 48.828125 44.09375 54.296875 
Q 44.09375 59.90625 40.109375 62.90625 
Q 36.140625 65.921875 28.71875 65.921875 
Q 24.65625 65.921875 20.015625 65.03125 
Q 15.375 64.15625 9.8125 62.3125 
L 9.8125 71.09375 
Q 15.4375 72.65625 20.34375 73.4375 
Q 25.25 74.21875 29.59375 74.21875 
Q 40.828125 74.21875 47.359375 69.109375 
Q 53.90625 64.015625 53.90625 55.328125 
Q 53.90625 49.265625 50.4375 45.09375 
Q 46.96875 40.921875 40.578125 39.3125 
z
" id="DejaVuSans-51"/>
       </defs>
       <use xlink:href="#DejaVuSans-51"/>
       <use x="63.623047" xlink:href="#DejaVuSans-48"/>
       <use x="127.246094" xlink:href="#DejaVuSans-48"/>
      </g>
     </g>
    </g>
    <g id="xtick_5">
     <g id="line2d_5">
      <g>
       <use style="stroke:#000000;stroke-width:0.8;" x="417.596065" xlink:href="#m96ef0b79b4" y="384.48"/>
      </g>
     </g>
     <g id="text_5">
      <!-- 400 -->
      <g transform="translate(408.052315 399.078438)scale(0.1 -0.1)">
       <defs>
        <path d="M 37.796875 64.3125 
L 12.890625 25.390625 
L 37.796875 25.390625 
z
M 35.203125 72.90625 
L 47.609375 72.90625 
L 47.609375 25.390625 
L 58.015625 25.390625 
L 58.015625 17.1875 
L 47.609375 17.1875 
L 47.609375 0 
L 37.796875 0 
L 37.796875 17.1875 
L 4.890625 17.1875 
L 4.890625 26.703125 
z
" id="DejaVuSans-52"/>
       </defs>
       <use xlink:href="#DejaVuSans-52"/>
       <use x="63.623047" xlink:href="#DejaVuSans-48"/>
       <use x="127.246094" xlink:href="#DejaVuSans-48"/>
      </g>
     </g>
    </g>
    <g id="xtick_6">
     <g id="line2d_6">
      <g>
       <use style="stroke:#000000;stroke-width:0.8;" x="498.922354" xlink:href="#m96ef0b79b4" y="384.48"/>
      </g>
     </g>
     <g id="text_6">
      <!-- 500 -->
      <g transform="translate(489.378604 399.078438)scale(0.1 -0.1)">
       <defs>
        <path d="M 10.796875 72.90625 
L 49.515625 72.90625 
L 49.515625 64.59375 
L 19.828125 64.59375 
L 19.828125 46.734375 
Q 21.96875 47.46875 24.109375 47.828125 
Q 26.265625 48.1875 28.421875 48.1875 
Q 40.625 48.1875 47.75 41.5 
Q 54.890625 34.8125 54.890625 23.390625 
Q 54.890625 11.625 47.5625 5.09375 
Q 40.234375 -1.421875 26.90625 -1.421875 
Q 22.3125 -1.421875 17.546875 -0.640625 
Q 12.796875 0.140625 7.71875 1.703125 
L 7.71875 11.625 
Q 12.109375 9.234375 16.796875 8.0625 
Q 21.484375 6.890625 26.703125 6.890625 
Q 35.15625 6.890625 40.078125 11.328125 
Q 45.015625 15.765625 45.015625 23.390625 
Q 45.015625 31 40.078125 35.4375 
Q 35.15625 39.890625 26.703125 39.890625 
Q 22.75 39.890625 18.8125 39.015625 
Q 14.890625 38.140625 10.796875 36.28125 
z
" id="DejaVuSans-53"/>
       </defs>
       <use xlink:href="#DejaVuSans-53"/>
       <use x="63.623047" xlink:href="#DejaVuSans-48"/>
       <use x="127.246094" xlink:href="#DejaVuSans-48"/>
      </g>
     </g>
    </g>
    <g id="text_7">
     <!-- epoch -->
     <g transform="translate(279.971875 412.756563)scale(0.1 -0.1)">
      <defs>
       <path d="M 56.203125 29.59375 
L 56.203125 25.203125 
L 14.890625 25.203125 
Q 15.484375 15.921875 20.484375 11.0625 
Q 25.484375 6.203125 34.421875 6.203125 
Q 39.59375 6.203125 44.453125 7.46875 
Q 49.3125 8.734375 54.109375 11.28125 
L 54.109375 2.78125 
Q 49.265625 0.734375 44.1875 -0.34375 
Q 39.109375 -1.421875 33.890625 -1.421875 
Q 20.796875 -1.421875 13.15625 6.1875 
Q 5.515625 13.8125 5.515625 26.8125 
Q 5.515625 40.234375 12.765625 48.109375 
Q 20.015625 56 32.328125 56 
Q 43.359375 56 49.78125 48.890625 
Q 56.203125 41.796875 56.203125 29.59375 
z
M 47.21875 32.234375 
Q 47.125 39.59375 43.09375 43.984375 
Q 39.0625 48.390625 32.421875 48.390625 
Q 24.90625 48.390625 20.390625 44.140625 
Q 15.875 39.890625 15.1875 32.171875 
z
" id="DejaVuSans-101"/>
       <path d="M 18.109375 8.203125 
L 18.109375 -20.796875 
L 9.078125 -20.796875 
L 9.078125 54.6875 
L 18.109375 54.6875 
L 18.109375 46.390625 
Q 20.953125 51.265625 25.265625 53.625 
Q 29.59375 56 35.59375 56 
Q 45.5625 56 51.78125 48.09375 
Q 58.015625 40.1875 58.015625 27.296875 
Q 58.015625 14.40625 51.78125 6.484375 
Q 45.5625 -1.421875 35.59375 -1.421875 
Q 29.59375 -1.421875 25.265625 0.953125 
Q 20.953125 3.328125 18.109375 8.203125 
z
M 48.6875 27.296875 
Q 48.6875 37.203125 44.609375 42.84375 
Q 40.53125 48.484375 33.40625 48.484375 
Q 26.265625 48.484375 22.1875 42.84375 
Q 18.109375 37.203125 18.109375 27.296875 
Q 18.109375 17.390625 22.1875 11.75 
Q 26.265625 6.109375 33.40625 6.109375 
Q 40.53125 6.109375 44.609375 11.75 
Q 48.6875 17.390625 48.6875 27.296875 
z
" id="DejaVuSans-112"/>
       <path d="M 30.609375 48.390625 
Q 23.390625 48.390625 19.1875 42.75 
Q 14.984375 37.109375 14.984375 27.296875 
Q 14.984375 17.484375 19.15625 11.84375 
Q 23.34375 6.203125 30.609375 6.203125 
Q 37.796875 6.203125 41.984375 11.859375 
Q 46.1875 17.53125 46.1875 27.296875 
Q 46.1875 37.015625 41.984375 42.703125 
Q 37.796875 48.390625 30.609375 48.390625 
z
M 30.609375 56 
Q 42.328125 56 49.015625 48.375 
Q 55.71875 40.765625 55.71875 27.296875 
Q 55.71875 13.875 49.015625 6.21875 
Q 42.328125 -1.421875 30.609375 -1.421875 
Q 18.84375 -1.421875 12.171875 6.21875 
Q 5.515625 13.875 5.515625 27.296875 
Q 5.515625 40.765625 12.171875 48.375 
Q 18.84375 56 30.609375 56 
z
" id="DejaVuSans-111"/>
       <path d="M 48.78125 52.59375 
L 48.78125 44.1875 
Q 44.96875 46.296875 41.140625 47.34375 
Q 37.3125 48.390625 33.40625 48.390625 
Q 24.65625 48.390625 19.8125 42.84375 
Q 14.984375 37.3125 14.984375 27.296875 
Q 14.984375 17.28125 19.8125 11.734375 
Q 24.65625 6.203125 33.40625 6.203125 
Q 37.3125 6.203125 41.140625 7.25 
Q 44.96875 8.296875 48.78125 10.40625 
L 48.78125 2.09375 
Q 45.015625 0.34375 40.984375 -0.53125 
Q 36.96875 -1.421875 32.421875 -1.421875 
Q 20.0625 -1.421875 12.78125 6.34375 
Q 5.515625 14.109375 5.515625 27.296875 
Q 5.515625 40.671875 12.859375 48.328125 
Q 20.21875 56 33.015625 56 
Q 37.15625 56 41.109375 55.140625 
Q 45.0625 54.296875 48.78125 52.59375 
z
" id="DejaVuSans-99"/>
       <path d="M 54.890625 33.015625 
L 54.890625 0 
L 45.90625 0 
L 45.90625 32.71875 
Q 45.90625 40.484375 42.875 44.328125 
Q 39.84375 48.1875 33.796875 48.1875 
Q 26.515625 48.1875 22.3125 43.546875 
Q 18.109375 38.921875 18.109375 30.90625 
L 18.109375 0 
L 9.078125 0 
L 9.078125 75.984375 
L 18.109375 75.984375 
L 18.109375 46.1875 
Q 21.34375 51.125 25.703125 53.5625 
Q 30.078125 56 35.796875 56 
Q 45.21875 56 50.046875 50.171875 
Q 54.890625 44.34375 54.890625 33.015625 
z
" id="DejaVuSans-104"/>
      </defs>
      <use xlink:href="#DejaVuSans-101"/>
      <use x="61.523438" xlink:href="#DejaVuSans-112"/>
      <use x="125" xlink:href="#DejaVuSans-111"/>
      <use x="186.181641" xlink:href="#DejaVuSans-99"/>
      <use x="241.162109" xlink:href="#DejaVuSans-104"/>
     </g>
    </g>
   </g>
   <g id="matplotlib.axis_2">
    <g id="ytick_1">
     <g id="line2d_7">
      <defs>
       <path d="M 0 0 
L -3.5 0 
" id="m8d23f11304" style="stroke:#000000;stroke-width:0.8;"/>
      </defs>
      <g>
       <use style="stroke:#000000;stroke-width:0.8;" x="72" xlink:href="#m8d23f11304" y="384.48"/>
      </g>
     </g>
     <g id="text_8">
      <!-- 0.0 -->
      <g transform="translate(49.096875 388.279219)scale(0.1 -0.1)">
       <defs>
        <path d="M 10.6875 12.40625 
L 21 12.40625 
L 21 0 
L 10.6875 0 
z
" id="DejaVuSans-46"/>
       </defs>
       <use xlink:href="#DejaVuSans-48"/>
       <use x="63.623047" xlink:href="#DejaVuSans-46"/>
       <use x="95.410156" xlink:href="#DejaVuSans-48"/>
      </g>
     </g>
    </g>
    <g id="ytick_2">
     <g id="line2d_8">
      <g>
       <use style="stroke:#000000;stroke-width:0.8;" x="72" xlink:href="#m8d23f11304" y="317.952"/>
      </g>
     </g>
     <g id="text_9">
      <!-- 0.2 -->
      <g transform="translate(49.096875 321.751219)scale(0.1 -0.1)">
       <use xlink:href="#DejaVuSans-48"/>
       <use x="63.623047" xlink:href="#DejaVuSans-46"/>
       <use x="95.410156" xlink:href="#DejaVuSans-50"/>
      </g>
     </g>
    </g>
    <g id="ytick_3">
     <g id="line2d_9">
      <g>
       <use style="stroke:#000000;stroke-width:0.8;" x="72" xlink:href="#m8d23f11304" y="251.424"/>
      </g>
     </g>
     <g id="text_10">
      <!-- 0.4 -->
      <g transform="translate(49.096875 255.223219)scale(0.1 -0.1)">
       <use xlink:href="#DejaVuSans-48"/>
       <use x="63.623047" xlink:href="#DejaVuSans-46"/>
       <use x="95.410156" xlink:href="#DejaVuSans-52"/>
      </g>
     </g>
    </g>
    <g id="ytick_4">
     <g id="line2d_10">
      <g>
       <use style="stroke:#000000;stroke-width:0.8;" x="72" xlink:href="#m8d23f11304" y="184.896"/>
      </g>
     </g>
     <g id="text_11">
      <!-- 0.6 -->
      <g transform="translate(49.096875 188.695219)scale(0.1 -0.1)">
       <defs>
        <path d="M 33.015625 40.375 
Q 26.375 40.375 22.484375 35.828125 
Q 18.609375 31.296875 18.609375 23.390625 
Q 18.609375 15.53125 22.484375 10.953125 
Q 26.375 6.390625 33.015625 6.390625 
Q 39.65625 6.390625 43.53125 10.953125 
Q 47.40625 15.53125 47.40625 23.390625 
Q 47.40625 31.296875 43.53125 35.828125 
Q 39.65625 40.375 33.015625 40.375 
z
M 52.59375 71.296875 
L 52.59375 62.3125 
Q 48.875 64.0625 45.09375 64.984375 
Q 41.3125 65.921875 37.59375 65.921875 
Q 27.828125 65.921875 22.671875 59.328125 
Q 17.53125 52.734375 16.796875 39.40625 
Q 19.671875 43.65625 24.015625 45.921875 
Q 28.375 48.1875 33.59375 48.1875 
Q 44.578125 48.1875 50.953125 41.515625 
Q 57.328125 34.859375 57.328125 23.390625 
Q 57.328125 12.15625 50.6875 5.359375 
Q 44.046875 -1.421875 33.015625 -1.421875 
Q 20.359375 -1.421875 13.671875 8.265625 
Q 6.984375 17.96875 6.984375 36.375 
Q 6.984375 53.65625 15.1875 63.9375 
Q 23.390625 74.21875 37.203125 74.21875 
Q 40.921875 74.21875 44.703125 73.484375 
Q 48.484375 72.75 52.59375 71.296875 
z
" id="DejaVuSans-54"/>
       </defs>
       <use xlink:href="#DejaVuSans-48"/>
       <use x="63.623047" xlink:href="#DejaVuSans-46"/>
       <use x="95.410156" xlink:href="#DejaVuSans-54"/>
      </g>
     </g>
    </g>
    <g id="ytick_5">
     <g id="line2d_11">
      <g>
       <use style="stroke:#000000;stroke-width:0.8;" x="72" xlink:href="#m8d23f11304" y="118.368"/>
      </g>
     </g>
     <g id="text_12">
      <!-- 0.8 -->
      <g transform="translate(49.096875 122.167219)scale(0.1 -0.1)">
       <defs>
        <path d="M 31.78125 34.625 
Q 24.75 34.625 20.71875 30.859375 
Q 16.703125 27.09375 16.703125 20.515625 
Q 16.703125 13.921875 20.71875 10.15625 
Q 24.75 6.390625 31.78125 6.390625 
Q 38.8125 6.390625 42.859375 10.171875 
Q 46.921875 13.96875 46.921875 20.515625 
Q 46.921875 27.09375 42.890625 30.859375 
Q 38.875 34.625 31.78125 34.625 
z
M 21.921875 38.8125 
Q 15.578125 40.375 12.03125 44.71875 
Q 8.5 49.078125 8.5 55.328125 
Q 8.5 64.0625 14.71875 69.140625 
Q 20.953125 74.21875 31.78125 74.21875 
Q 42.671875 74.21875 48.875 69.140625 
Q 55.078125 64.0625 55.078125 55.328125 
Q 55.078125 49.078125 51.53125 44.71875 
Q 48 40.375 41.703125 38.8125 
Q 48.828125 37.15625 52.796875 32.3125 
Q 56.78125 27.484375 56.78125 20.515625 
Q 56.78125 9.90625 50.3125 4.234375 
Q 43.84375 -1.421875 31.78125 -1.421875 
Q 19.734375 -1.421875 13.25 4.234375 
Q 6.78125 9.90625 6.78125 20.515625 
Q 6.78125 27.484375 10.78125 32.3125 
Q 14.796875 37.15625 21.921875 38.8125 
z
M 18.3125 54.390625 
Q 18.3125 48.734375 21.84375 45.5625 
Q 25.390625 42.390625 31.78125 42.390625 
Q 38.140625 42.390625 41.71875 45.5625 
Q 45.3125 48.734375 45.3125 54.390625 
Q 45.3125 60.0625 41.71875 63.234375 
Q 38.140625 66.40625 31.78125 66.40625 
Q 25.390625 66.40625 21.84375 63.234375 
Q 18.3125 60.0625 18.3125 54.390625 
z
" id="DejaVuSans-56"/>
       </defs>
       <use xlink:href="#DejaVuSans-48"/>
       <use x="63.623047" xlink:href="#DejaVuSans-46"/>
       <use x="95.410156" xlink:href="#DejaVuSans-56"/>
      </g>
     </g>
    </g>
    <g id="ytick_6">
     <g id="line2d_12">
      <g>
       <use style="stroke:#000000;stroke-width:0.8;" x="72" xlink:href="#m8d23f11304" y="51.84"/>
      </g>
     </g>
     <g id="text_13">
      <!-- 1.0 -->
      <g transform="translate(49.096875 55.639219)scale(0.1 -0.1)">
       <use xlink:href="#DejaVuSans-49"/>
       <use x="63.623047" xlink:href="#DejaVuSans-46"/>
       <use x="95.410156" xlink:href="#DejaVuSans-48"/>
      </g>
     </g>
    </g>
    <g id="text_14">
     <!-- rate -->
     <g transform="translate(43.017187 228.31625)rotate(-90)scale(0.1 -0.1)">
      <defs>
       <path d="M 41.109375 46.296875 
Q 39.59375 47.171875 37.8125 47.578125 
Q 36.03125 48 33.890625 48 
Q 26.265625 48 22.1875 43.046875 
Q 18.109375 38.09375 18.109375 28.8125 
L 18.109375 0 
L 9.078125 0 
L 9.078125 54.6875 
L 18.109375 54.6875 
L 18.109375 46.1875 
Q 20.953125 51.171875 25.484375 53.578125 
Q 30.03125 56 36.53125 56 
Q 37.453125 56 38.578125 55.875 
Q 39.703125 55.765625 41.0625 55.515625 
z
" id="DejaVuSans-114"/>
       <path d="M 34.28125 27.484375 
Q 23.390625 27.484375 19.1875 25 
Q 14.984375 22.515625 14.984375 16.5 
Q 14.984375 11.71875 18.140625 8.90625 
Q 21.296875 6.109375 26.703125 6.109375 
Q 34.1875 6.109375 38.703125 11.40625 
Q 43.21875 16.703125 43.21875 25.484375 
L 43.21875 27.484375 
z
M 52.203125 31.203125 
L 52.203125 0 
L 43.21875 0 
L 43.21875 8.296875 
Q 40.140625 3.328125 35.546875 0.953125 
Q 30.953125 -1.421875 24.3125 -1.421875 
Q 15.921875 -1.421875 10.953125 3.296875 
Q 6 8.015625 6 15.921875 
Q 6 25.140625 12.171875 29.828125 
Q 18.359375 34.515625 30.609375 34.515625 
L 43.21875 34.515625 
L 43.21875 35.40625 
Q 43.21875 41.609375 39.140625 45 
Q 35.0625 48.390625 27.6875 48.390625 
Q 23 48.390625 18.546875 47.265625 
Q 14.109375 46.140625 10.015625 43.890625 
L 10.015625 52.203125 
Q 14.9375 54.109375 19.578125 55.046875 
Q 24.21875 56 28.609375 56 
Q 40.484375 56 46.34375 49.84375 
Q 52.203125 43.703125 52.203125 31.203125 
z
" id="DejaVuSans-97"/>
       <path d="M 18.3125 70.21875 
L 18.3125 54.6875 
L 36.8125 54.6875 
L 36.8125 47.703125 
L 18.3125 47.703125 
L 18.3125 18.015625 
Q 18.3125 11.328125 20.140625 9.421875 
Q 21.96875 7.515625 27.59375 7.515625 
L 36.8125 7.515625 
L 36.8125 0 
L 27.59375 0 
Q 17.1875 0 13.234375 3.875 
Q 9.28125 7.765625 9.28125 18.015625 
L 9.28125 47.703125 
L 2.6875 47.703125 
L 2.6875 54.6875 
L 9.28125 54.6875 
L 9.28125 70.21875 
z
" id="DejaVuSans-116"/>
      </defs>
      <use xlink:href="#DejaVuSans-114"/>
      <use x="41.113281" xlink:href="#DejaVuSans-97"/>
      <use x="102.392578" xlink:href="#DejaVuSans-116"/>
      <use x="141.601562" xlink:href="#DejaVuSans-101"/>
     </g>
    </g>
   </g>
   <g id="line2d_13">
    <path clip-path="url(#pd80c2e283a)" d="M 92.290909 195.719331 
L 93.104172 181.774501 
L 93.917435 175.967854 
L 96.357224 165.160422 
L 97.170486 162.405604 
L 97.983749 158.555798 
L 98.797012 158.731595 
L 99.610275 154.578194 
L 100.423538 175.179593 
L 101.236801 166.873948 
L 102.050064 162.26301 
L 102.863327 160.058143 
L 103.67659 155.41503 
L 104.489852 152.915667 
L 105.303115 152.54252 
L 106.116378 149.852778 
L 106.929641 149.749555 
L 107.742904 147.833157 
L 108.556167 159.627362 
L 109.36943 156.198743 
L 110.182693 154.240777 
L 110.995956 149.467642 
L 112.622481 146.974309 
L 113.435744 144.491621 
L 115.06227 142.234276 
L 115.875533 142.556994 
L 116.688796 149.591415 
L 117.502059 144.332503 
L 118.315322 144.628119 
L 119.128584 140.468796 
L 119.941847 137.934549 
L 120.75511 139.381859 
L 121.568373 139.212427 
L 122.381636 135.94098 
L 123.194899 135.651404 
L 124.008162 133.36575 
L 124.821425 145.825793 
L 125.634688 139.839004 
L 126.44795 138.597461 
L 127.261213 136.454887 
L 128.074476 135.891355 
L 128.887739 133.233428 
L 130.514265 130.305088 
L 131.327528 130.017042 
L 132.140791 128.771075 
L 132.954054 145.428603 
L 133.767316 138.643505 
L 134.580579 134.852705 
L 135.393842 134.344951 
L 136.207105 129.395294 
L 137.020368 132.446692 
L 137.833631 127.660761 
L 138.646894 127.370799 
L 139.460157 126.539615 
L 140.27342 124.437848 
L 141.086682 144.668729 
L 141.899945 137.640829 
L 142.713208 132.575023 
L 143.526471 129.248511 
L 144.339734 126.979672 
L 145.152997 126.050264 
L 145.96626 123.879152 
L 147.592786 121.808674 
L 148.406048 118.203183 
L 149.219311 144.045289 
L 150.032574 133.782846 
L 150.845837 131.149822 
L 151.6591 125.620556 
L 152.472363 123.66771 
L 153.285626 122.759665 
L 154.098889 120.678321 
L 154.912152 118.159891 
L 155.725414 119.019996 
L 156.538677 114.930608 
L 157.35194 142.985807 
L 158.165203 132.759679 
L 158.978466 125.7164 
L 159.791729 123.687628 
L 160.604992 120.494884 
L 162.231518 116.408794 
L 163.04478 115.040713 
L 163.858043 111.592985 
L 164.671306 112.950317 
L 165.484569 142.444532 
L 166.297832 130.251806 
L 167.111095 124.414432 
L 167.924358 119.636975 
L 168.737621 118.927488 
L 169.550884 114.062339 
L 170.364146 111.920576 
L 171.177409 111.630131 
L 172.803935 108.300159 
L 173.617198 140.816421 
L 174.430461 117.76142 
L 175.243724 113.097864 
L 176.87025 106.16116 
L 177.683512 104.440275 
L 179.310038 99.44187 
L 180.123301 98.638919 
L 180.936564 97.653009 
L 181.749827 126.633357 
L 182.56309 115.919398 
L 183.376353 112.933457 
L 184.189616 106.68629 
L 185.002878 104.631341 
L 185.816141 102.219405 
L 186.629404 98.916606 
L 187.442667 98.04649 
L 188.25593 96.749627 
L 189.069193 95.835483 
L 189.882456 124.943896 
L 190.695719 115.237669 
L 191.508982 109.115159 
L 192.322244 104.640645 
L 193.135507 102.759107 
L 193.94877 99.162492 
L 194.762033 97.691702 
L 195.575296 96.801722 
L 197.201822 93.216633 
L 198.015085 124.696814 
L 198.828348 114.473706 
L 199.64161 108.659126 
L 200.454873 104.818753 
L 201.268136 100.441579 
L 202.081399 97.729594 
L 202.894662 95.875648 
L 203.707925 95.64547 
L 204.521188 93.690314 
L 205.334451 90.602856 
L 206.147714 121.388707 
L 206.960976 112.183165 
L 208.587502 102.884265 
L 209.400765 100.382218 
L 210.214028 96.293262 
L 211.027291 94.758342 
L 211.840554 92.551101 
L 212.653817 92.291467 
L 213.46708 91.386665 
L 214.280343 120.138562 
L 215.093605 110.887913 
L 215.906868 103.798045 
L 216.720131 102.047438 
L 218.346657 94.992791 
L 219.15992 92.684539 
L 219.973183 90.94996 
L 220.786446 89.790198 
L 221.599709 89.769611 
L 222.412971 117.776565 
L 223.226234 108.438177 
L 224.039497 102.964291 
L 224.85276 99.523764 
L 228.105812 90.204243 
L 228.919075 89.577507 
L 229.732337 86.618658 
L 230.5456 116.993346 
L 231.358863 108.065232 
L 232.985389 99.544943 
L 233.798652 94.573092 
L 234.611915 93.900652 
L 235.425178 91.66859 
L 236.238441 89.810041 
L 237.051703 88.493361 
L 237.864966 86.540209 
L 238.678229 115.295828 
L 239.491492 106.651784 
L 240.304755 100.215027 
L 241.118018 98.453615 
L 241.931281 93.60619 
L 243.557807 90.385885 
L 244.371069 88.022606 
L 245.997595 86.239708 
L 246.810858 113.037225 
L 248.437384 99.756477 
L 249.250647 96.253293 
L 250.06391 93.405981 
L 250.877173 91.571138 
L 251.690435 88.730701 
L 252.503698 88.281407 
L 253.316961 85.528078 
L 254.130224 84.366786 
L 254.943487 111.988768 
L 255.75675 103.929602 
L 256.570013 98.740494 
L 259.009801 89.927115 
L 259.823064 89.237526 
L 260.636327 88.131191 
L 262.262853 83.873748 
L 263.076116 112.598328 
L 263.889379 102.072571 
L 264.702642 98.624418 
L 265.515905 94.053458 
L 266.329167 90.917978 
L 267.14243 90.858219 
L 267.955693 88.158343 
L 268.768956 87.216348 
L 269.582219 84.325719 
L 270.395482 85.080908 
L 271.208745 109.970815 
L 272.022008 101.39965 
L 272.835271 97.223059 
L 273.648533 93.656855 
L 274.461796 91.465629 
L 275.275059 88.049301 
L 276.901585 86.680637 
L 277.714848 83.981661 
L 278.528111 85.04256 
L 279.341374 107.856661 
L 280.154637 100.60597 
L 281.781162 93.12544 
L 282.594425 89.239235 
L 283.407688 88.441572 
L 284.220951 87.820346 
L 285.034214 84.82579 
L 285.847477 83.859385 
L 286.66074 83.086251 
L 287.474003 109.413072 
L 288.287265 99.585735 
L 289.100528 95.212987 
L 289.913791 92.535245 
L 292.35358 86.032973 
L 293.166843 85.322208 
L 293.980106 82.862492 
L 294.793369 82.435037 
L 295.606631 106.070762 
L 297.233157 95.078621 
L 298.04642 90.944745 
L 298.859683 89.833287 
L 299.672946 86.702554 
L 300.486209 85.723294 
L 301.299472 85.164376 
L 302.112735 83.401358 
L 302.925997 83.422776 
L 303.73926 104.457533 
L 304.552523 98.21215 
L 305.365786 93.91142 
L 306.179049 91.152327 
L 306.992312 90.229552 
L 307.805575 86.887853 
L 308.618838 86.549684 
L 309.432101 85.069215 
L 310.245363 83.321843 
L 311.058626 82.542402 
L 311.871889 103.88206 
L 312.685152 98.152093 
L 313.498415 94.921633 
L 314.311678 90.640848 
L 315.124941 87.80055 
L 315.938204 87.116953 
L 316.751467 85.392287 
L 317.564729 85.791838 
L 318.377992 83.846692 
L 319.191255 83.169978 
L 320.004518 103.290949 
L 320.817781 97.178694 
L 322.444307 90.539065 
L 323.25757 88.309597 
L 324.070833 87.455719 
L 324.884095 85.484576 
L 325.697358 85.43911 
L 326.510621 82.916135 
L 327.323884 81.803179 
L 328.137147 102.864181 
L 328.95041 96.634327 
L 329.763673 92.069848 
L 330.576936 90.240396 
L 331.390199 87.781435 
L 332.203461 86.123378 
L 333.016724 85.836695 
L 333.829987 84.17421 
L 334.64325 82.876467 
L 335.456513 81.922404 
L 336.269776 102.329194 
L 337.896302 91.948149 
L 338.709565 89.450531 
L 339.522827 88.114678 
L 340.33609 86.346931 
L 341.149353 86.1762 
L 341.962616 84.194566 
L 342.775879 83.418051 
L 343.589142 82.919822 
L 344.402405 100.513752 
L 345.215668 94.689958 
L 346.028931 92.363737 
L 346.842193 88.448194 
L 347.655456 87.95318 
L 348.468719 85.814222 
L 349.281982 85.047935 
L 350.095245 84.752272 
L 350.908508 83.131034 
L 351.721771 82.415723 
L 352.535034 98.93129 
L 353.348297 94.97334 
L 354.161559 92.679158 
L 354.974822 89.575863 
L 355.788085 88.439437 
L 356.601348 85.904908 
L 359.041137 83.214064 
L 359.8544 83.218264 
L 360.667663 100.123799 
L 361.480925 94.706402 
L 362.294188 91.122359 
L 363.107451 89.275468 
L 363.920714 88.801882 
L 364.733977 85.962776 
L 365.54724 85.931517 
L 366.360503 84.845482 
L 367.173766 82.96258 
L 367.987029 82.729695 
L 368.800291 99.747425 
L 369.613554 94.707279 
L 370.426817 91.508506 
L 371.24008 90.688505 
L 372.053343 87.848409 
L 372.866606 86.668148 
L 373.679869 84.76163 
L 374.493132 85.696222 
L 375.306395 83.14861 
L 376.119657 82.385604 
L 376.93292 98.59155 
L 377.746183 94.10423 
L 378.559446 91.849345 
L 379.372709 88.348469 
L 380.185972 88.241918 
L 382.625761 84.01915 
L 383.439024 83.495623 
L 384.252286 83.648809 
L 385.065549 99.463321 
L 385.878812 93.686387 
L 386.692075 92.712725 
L 387.505338 89.941279 
L 388.318601 88.033185 
L 389.131864 86.686349 
L 389.945127 84.836255 
L 390.75839 84.800114 
L 391.571652 83.45553 
L 392.384915 82.360844 
L 393.198178 96.401036 
L 394.011441 94.742915 
L 394.824704 90.369702 
L 395.637967 89.073989 
L 396.45123 89.432379 
L 397.264493 86.306027 
L 398.077756 84.792615 
L 398.891018 85.096997 
L 400.517544 83.261978 
L 401.330807 97.406408 
L 402.14407 93.289203 
L 403.770596 89.797174 
L 404.583859 89.356432 
L 405.397122 85.848922 
L 406.210384 85.333115 
L 407.023647 85.144845 
L 407.83691 83.967423 
L 408.650173 83.074187 
L 409.463436 96.598363 
L 410.276699 93.099856 
L 411.903225 90.75861 
L 412.716488 87.91637 
L 413.52975 87.263843 
L 414.343013 84.780727 
L 415.156276 84.634028 
L 415.969539 84.185305 
L 416.782802 84.198931 
L 417.596065 96.522195 
L 418.409328 92.743324 
L 419.222591 90.718366 
L 420.035854 89.695294 
L 420.849116 88.172214 
L 421.662379 87.589391 
L 422.475642 85.531986 
L 423.288905 85.581409 
L 424.915431 84.250639 
L 425.728694 96.65815 
L 426.541957 93.365833 
L 427.35522 90.895221 
L 428.168482 89.271109 
L 428.981745 88.066098 
L 429.795008 87.066965 
L 430.608271 86.327143 
L 431.421534 84.654267 
L 432.234797 84.452926 
L 433.04806 83.973937 
L 433.861323 95.72938 
L 436.301111 88.692957 
L 437.114374 89.751676 
L 437.927637 87.220814 
L 438.7409 86.17379 
L 439.554163 85.469728 
L 440.367426 85.561892 
L 441.180689 84.673406 
L 441.993952 94.708964 
L 442.807214 92.426304 
L 443.620477 90.810113 
L 444.43374 89.484027 
L 445.247003 89.127837 
L 446.060266 88.301972 
L 446.873529 85.686364 
L 447.686792 84.847959 
L 448.500055 86.738344 
L 449.313318 85.758338 
L 450.12658 95.412896 
L 450.939843 93.067279 
L 451.753106 91.755903 
L 452.566369 91.153585 
L 453.379632 89.708948 
L 454.192895 87.729701 
L 455.006158 86.951952 
L 455.819421 85.625744 
L 456.632684 86.677605 
L 457.445946 84.025778 
L 458.259209 96.716471 
L 459.072472 92.738442 
L 459.885735 92.445676 
L 461.512261 88.709364 
L 462.325524 87.728785 
L 463.138787 87.304842 
L 463.95205 85.711381 
L 464.765312 86.533636 
L 465.578575 85.11781 
L 466.391838 95.297602 
L 467.205101 91.873883 
L 468.018364 92.464931 
L 468.831627 90.145021 
L 470.458153 88.071787 
L 471.271416 87.4502 
L 472.084678 87.497653 
L 472.897941 85.881942 
L 473.711204 85.454898 
L 474.524467 93.717646 
L 475.33773 92.890055 
L 476.150993 90.872268 
L 476.964256 90.547939 
L 477.777519 89.890066 
L 478.590782 88.821952 
L 479.404044 87.094366 
L 480.217307 87.244854 
L 481.03057 85.913563 
L 481.843833 85.744087 
L 482.657096 94.644658 
L 483.470359 91.392447 
L 484.283622 91.218525 
L 485.096885 88.918279 
L 485.910148 89.713359 
L 486.72341 87.803535 
L 487.536673 88.151998 
L 488.349936 87.353766 
L 489.163199 86.343754 
L 489.976462 87.183429 
L 490.789725 96.3254 
L 491.602988 93.601849 
L 492.416251 93.593789 
L 493.229514 92.497044 
L 494.042776 89.641423 
L 494.856039 88.494742 
L 495.669302 88.435854 
L 496.482565 88.75934 
L 497.295828 87.656864 
L 498.109091 86.001464 
L 498.109091 86.001464 
" style="fill:none;stroke:#0000ff;stroke-linecap:square;stroke-width:1.5;"/>
   </g>
   <g id="line2d_14">
    <path clip-path="url(#pd80c2e283a)" d="M 92.290909 339.669058 
L 93.104172 336.786813 
L 93.917435 334.460438 
L 94.730698 331.561482 
L 97.170486 324.639122 
L 99.610275 319.205595 
L 100.423538 338.344278 
L 101.236801 334.238854 
L 102.863327 327.816455 
L 103.67659 324.844324 
L 105.303115 321.117915 
L 106.116378 318.462874 
L 106.929641 316.356514 
L 107.742904 315.08442 
L 108.556167 329.074037 
L 109.36943 325.560308 
L 110.182693 322.741692 
L 110.995956 319.061605 
L 111.809218 316.212899 
L 112.622481 314.941974 
L 115.06227 307.048843 
L 115.875533 305.987494 
L 116.688796 312.715057 
L 117.502059 311.553321 
L 118.315322 310.023325 
L 119.128584 306.49676 
L 120.75511 302.848068 
L 121.568373 300.38303 
L 122.381636 298.84789 
L 123.194899 295.203994 
L 124.008162 293.386609 
L 124.821425 301.897171 
L 126.44795 298.701188 
L 127.261213 296.165252 
L 128.074476 294.736404 
L 128.887739 291.814328 
L 129.701002 289.320985 
L 130.514265 285.767721 
L 131.327528 284.30634 
L 132.140791 281.463402 
L 132.954054 292.353103 
L 133.767316 293.953999 
L 135.393842 287.523298 
L 137.020368 283.314045 
L 137.833631 280.44901 
L 138.646894 277.131125 
L 140.27342 271.818349 
L 141.086682 287.130434 
L 141.899945 286.75618 
L 142.713208 284.584483 
L 144.339734 276.108638 
L 145.152997 275.299073 
L 145.96626 271.088491 
L 146.779523 268.661307 
L 147.592786 265.748046 
L 148.406048 261.83844 
L 149.219311 280.966526 
L 150.032574 279.905791 
L 150.845837 275.693706 
L 151.6591 272.617397 
L 153.285626 265.249241 
L 154.098889 263.438477 
L 155.725414 255.637339 
L 156.538677 252.920674 
L 157.35194 275.49452 
L 158.165203 273.434778 
L 158.978466 268.955109 
L 159.791729 266.467527 
L 160.604992 261.208794 
L 161.418255 257.817077 
L 162.231518 253.399748 
L 163.04478 250.141718 
L 163.858043 246.21744 
L 164.671306 245.190549 
L 165.484569 269.849178 
L 166.297832 268.263146 
L 169.550884 247.702013 
L 170.364146 245.560049 
L 171.177409 240.992775 
L 171.990672 238.204203 
L 172.803935 232.696552 
L 173.617198 264.559131 
L 174.430461 254.541997 
L 175.243724 249.162771 
L 176.056987 245.560271 
L 178.496775 233.206111 
L 179.310038 231.561916 
L 180.936564 223.83986 
L 181.749827 253.233729 
L 183.376353 244.614202 
L 184.189616 239.725728 
L 185.002878 236.419078 
L 185.816141 232.218601 
L 186.629404 228.969759 
L 189.069193 218.267796 
L 189.882456 248.795489 
L 190.695719 243.095431 
L 191.508982 238.896604 
L 192.322244 233.585953 
L 193.135507 230.722219 
L 193.94877 225.472616 
L 194.762033 223.200331 
L 195.575296 219.933499 
L 196.388559 215.116054 
L 197.201822 212.424761 
L 198.015085 246.184265 
L 198.828348 238.553387 
L 201.268136 224.052142 
L 202.081399 220.855386 
L 203.707925 213.608231 
L 204.521188 210.764088 
L 205.334451 207.041237 
L 206.147714 241.426997 
L 207.774239 228.94831 
L 208.587502 224.911118 
L 209.400765 221.598976 
L 210.214028 215.951467 
L 211.840554 208.683496 
L 213.46708 203.591922 
L 214.280343 238.846521 
L 215.093605 230.333792 
L 215.906868 225.277049 
L 217.533394 217.603075 
L 218.346657 212.082924 
L 219.15992 209.706902 
L 219.973183 203.953088 
L 221.599709 200.236138 
L 222.412971 233.285046 
L 223.226234 228.9119 
L 224.039497 221.728086 
L 224.85276 217.703085 
L 225.666023 212.441213 
L 226.479286 210.199904 
L 227.292549 204.634139 
L 228.105812 201.709209 
L 228.919075 197.873711 
L 229.732337 196.13781 
L 230.5456 231.219011 
L 231.358863 224.182604 
L 232.172126 219.630358 
L 232.985389 213.358465 
L 233.798652 210.071455 
L 234.611915 204.649834 
L 235.425178 203.368257 
L 237.051703 197.015619 
L 237.864966 191.835558 
L 238.678229 229.278358 
L 240.304755 214.34152 
L 241.118018 212.021852 
L 241.931281 204.543038 
L 242.744544 202.725691 
L 244.371069 195.217707 
L 245.184332 192.774723 
L 245.997595 189.4426 
L 246.810858 225.080162 
L 247.624121 219.720851 
L 248.437384 213.118552 
L 249.250647 207.455556 
L 250.06391 202.861504 
L 250.877173 202.258886 
L 251.690435 195.813568 
L 252.503698 193.44457 
L 253.316961 190.317878 
L 254.130224 185.758063 
L 254.943487 224.145039 
L 256.570013 208.940632 
L 257.383276 204.465883 
L 258.196539 201.087326 
L 259.009801 196.978144 
L 259.823064 194.038242 
L 260.636327 190.671117 
L 262.262853 185.96852 
L 263.076116 223.199951 
L 263.889379 213.650765 
L 264.702642 208.382089 
L 265.515905 201.755847 
L 266.329167 199.288116 
L 267.14243 194.66862 
L 268.768956 189.474219 
L 269.582219 185.416634 
L 270.395482 184.669172 
L 271.208745 220.175571 
L 272.022008 210.954959 
L 272.835271 204.656709 
L 275.275059 194.407089 
L 276.088322 189.650969 
L 276.901585 187.503442 
L 277.714848 184.279205 
L 278.528111 183.184916 
L 279.341374 217.482979 
L 280.154637 208.336179 
L 280.967899 203.181128 
L 281.781162 200.738132 
L 282.594425 193.988641 
L 283.407688 190.742035 
L 284.220951 188.800953 
L 285.034214 185.543277 
L 286.66074 181.011906 
L 287.474003 217.711341 
L 288.287265 207.045115 
L 289.100528 202.237631 
L 289.913791 198.833462 
L 290.727054 193.587551 
L 291.540317 189.58319 
L 292.35358 186.454565 
L 293.166843 184.549945 
L 293.980106 180.492979 
L 294.793369 178.796441 
L 295.606631 213.68783 
L 296.419894 207.445192 
L 297.233157 200.106424 
L 298.04642 195.593138 
L 298.859683 193.822069 
L 299.672946 189.805693 
L 300.486209 186.887744 
L 301.299472 183.24103 
L 302.112735 181.475775 
L 302.925997 180.204267 
L 303.73926 213.300958 
L 304.552523 202.503761 
L 306.179049 194.892777 
L 308.618838 184.776438 
L 309.432101 183.800129 
L 310.245363 180.102335 
L 311.058626 178.060325 
L 311.871889 210.418903 
L 314.311678 192.517775 
L 315.124941 190.256666 
L 316.751467 184.502709 
L 317.564729 182.247212 
L 318.377992 180.401264 
L 319.191255 180.108641 
L 320.004518 209.027323 
L 320.817781 202.179726 
L 322.444307 193.633085 
L 323.25757 188.410756 
L 324.070833 187.330641 
L 324.884095 183.782759 
L 325.697358 182.426047 
L 327.323884 176.741564 
L 328.137147 209.833867 
L 328.95041 201.933367 
L 329.763673 195.420657 
L 330.576936 190.594485 
L 333.016724 183.830621 
L 333.829987 180.094979 
L 334.64325 178.898964 
L 335.456513 179.255789 
L 336.269776 208.378646 
L 337.083039 199.471934 
L 338.709565 190.873806 
L 339.522827 187.978738 
L 340.33609 185.863721 
L 341.149353 181.949712 
L 341.962616 182.002803 
L 342.775879 177.776274 
L 343.589142 178.643745 
L 344.402405 205.974815 
L 345.215668 198.478227 
L 346.028931 194.203599 
L 346.842193 188.845329 
L 347.655456 187.987883 
L 348.468719 184.628011 
L 349.281982 182.112498 
L 350.095245 180.274799 
L 350.908508 179.865407 
L 351.721771 175.195995 
L 352.535034 204.629614 
L 353.348297 196.791812 
L 354.161559 195.037998 
L 354.974822 190.107606 
L 355.788085 187.991344 
L 356.601348 184.81761 
L 357.414611 182.284687 
L 358.227874 180.404759 
L 359.041137 177.477872 
L 359.8544 176.732914 
L 360.667663 204.145449 
L 362.294188 192.975628 
L 363.107451 189.451919 
L 363.920714 187.330111 
L 364.733977 183.797352 
L 365.54724 181.493682 
L 367.173766 178.146029 
L 367.987029 176.056025 
L 368.800291 203.217785 
L 369.613554 196.903844 
L 370.426817 192.148656 
L 371.24008 190.030543 
L 372.053343 185.443786 
L 372.866606 184.679688 
L 373.679869 179.922248 
L 374.493132 181.8456 
L 375.306395 177.546062 
L 376.119657 177.277168 
L 376.93292 203.389644 
L 377.746183 195.8798 
L 378.559446 193.373583 
L 379.372709 187.560652 
L 380.185972 186.741241 
L 380.999235 184.536718 
L 381.812498 181.670715 
L 382.625761 179.735727 
L 384.252286 177.184482 
L 385.065549 203.856259 
L 385.878812 195.349912 
L 386.692075 193.523422 
L 387.505338 188.597862 
L 389.131864 183.107898 
L 389.945127 181.845161 
L 390.75839 180.354795 
L 391.571652 178.468584 
L 392.384915 178.724899 
L 393.198178 201.65012 
L 394.824704 191.885977 
L 395.637967 188.688349 
L 396.45123 186.442528 
L 398.077756 180.892863 
L 398.891018 181.235421 
L 399.704281 177.444077 
L 400.517544 177.693447 
L 401.330807 201.34136 
L 402.14407 195.350263 
L 402.957333 193.127503 
L 403.770596 187.870262 
L 404.583859 187.645372 
L 405.397122 184.416044 
L 406.210384 182.065889 
L 407.023647 181.298705 
L 407.83691 177.685395 
L 408.650173 176.273881 
L 409.463436 200.059728 
L 410.276699 194.675682 
L 411.903225 190.436913 
L 412.716488 186.672369 
L 413.52975 185.551557 
L 414.343013 182.554081 
L 415.156276 182.610802 
L 415.969539 180.234381 
L 416.782802 179.593995 
L 417.596065 200.96452 
L 418.409328 195.364024 
L 419.222591 190.922079 
L 420.035854 188.106081 
L 421.662379 184.584518 
L 422.475642 183.550315 
L 423.288905 179.806296 
L 424.102168 180.858459 
L 424.915431 178.626072 
L 425.728694 200.559272 
L 427.35522 192.289709 
L 428.168482 188.580608 
L 429.795008 184.636164 
L 430.608271 182.186127 
L 431.421534 181.779694 
L 432.234797 179.766184 
L 433.04806 179.611785 
L 433.861323 200.363185 
L 434.674586 194.753475 
L 435.487848 190.084557 
L 436.301111 188.344907 
L 437.114374 186.025245 
L 437.927637 185.672446 
L 439.554163 181.227142 
L 440.367426 180.643859 
L 441.180689 179.612409 
L 441.993952 197.936587 
L 442.807214 194.184974 
L 443.620477 191.737912 
L 444.43374 188.690897 
L 445.247003 189.090083 
L 446.060266 186.316165 
L 446.873529 183.077785 
L 447.686792 181.297984 
L 448.500055 183.640175 
L 449.313318 181.215834 
L 450.12658 198.949645 
L 450.939843 194.51647 
L 451.753106 192.332453 
L 452.566369 188.747612 
L 453.379632 189.537184 
L 454.192895 185.355903 
L 455.006158 183.537225 
L 455.819421 182.660904 
L 456.632684 184.023484 
L 457.445946 179.574824 
L 458.259209 199.016052 
L 459.072472 193.485036 
L 459.885735 192.352846 
L 461.512261 187.33808 
L 463.138787 184.917031 
L 463.95205 183.197007 
L 464.765312 183.330117 
L 465.578575 182.158901 
L 466.391838 198.320413 
L 467.205101 193.944021 
L 468.018364 192.39366 
L 469.64489 187.763093 
L 471.271416 184.463491 
L 472.084678 183.832008 
L 472.897941 182.623643 
L 473.711204 182.677471 
L 474.524467 198.889494 
L 475.33773 195.071303 
L 476.964256 189.547979 
L 477.777519 188.463716 
L 478.590782 189.74208 
L 479.404044 183.652452 
L 480.217307 185.623734 
L 481.03057 182.147226 
L 481.843833 182.238698 
L 482.657096 196.723627 
L 483.470359 193.16122 
L 484.283622 191.006735 
L 485.096885 188.058952 
L 485.910148 187.532583 
L 486.72341 187.424193 
L 487.536673 186.740772 
L 488.349936 183.913025 
L 489.163199 183.12144 
L 489.976462 184.6442 
L 490.789725 199.717479 
L 491.602988 195.743494 
L 492.416251 192.927606 
L 493.229514 191.403697 
L 494.042776 190.615706 
L 494.856039 186.769778 
L 495.669302 186.680898 
L 496.482565 185.342906 
L 497.295828 183.594063 
L 498.109091 184.104777 
L 498.109091 184.104777 
" style="fill:none;stroke:#008000;stroke-linecap:square;stroke-width:1.5;"/>
   </g>
   <g id="patch_3">
    <path d="M 72 384.48 
L 72 51.84 
" style="fill:none;stroke:#000000;stroke-linecap:square;stroke-linejoin:miter;stroke-width:0.8;"/>
   </g>
   <g id="patch_4">
    <path d="M 518.4 384.48 
L 518.4 51.84 
" style="fill:none;stroke:#000000;stroke-linecap:square;stroke-linejoin:miter;stroke-width:0.8;"/>
   </g>
   <g id="patch_5">
    <path d="M 72 384.48 
L 518.4 384.48 
" style="fill:none;stroke:#000000;stroke-linecap:square;stroke-linejoin:miter;stroke-width:0.8;"/>
   </g>
   <g id="patch_6">
    <path d="M 72 51.84 
L 518.4 51.84 
" style="fill:none;stroke:#000000;stroke-linecap:square;stroke-linejoin:miter;stroke-width:0.8;"/>
   </g>
   <g id="legend_1">
    <g id="patch_7">
     <path d="M 79 89.19625 
L 156.107812 89.19625 
Q 158.107812 89.19625 158.107812 87.19625 
L 158.107812 58.84 
Q 158.107812 56.84 156.107812 56.84 
L 79 56.84 
Q 77 56.84 77 58.84 
L 77 87.19625 
Q 77 89.19625 79 89.19625 
z
" style="fill:#ffffff;opacity:0.8;stroke:#cccccc;stroke-linejoin:miter;"/>
    </g>
    <g id="line2d_15">
     <path d="M 81 64.938437 
L 101 64.938437 
" style="fill:none;stroke:#0000ff;stroke-linecap:square;stroke-width:1.5;"/>
    </g>
    <g id="line2d_16"/>
    <g id="text_15">
     <!-- precision -->
     <g transform="translate(109 68.438437)scale(0.1 -0.1)">
      <defs>
       <path d="M 9.421875 54.6875 
L 18.40625 54.6875 
L 18.40625 0 
L 9.421875 0 
z
M 9.421875 75.984375 
L 18.40625 75.984375 
L 18.40625 64.59375 
L 9.421875 64.59375 
z
" id="DejaVuSans-105"/>
       <path d="M 44.28125 53.078125 
L 44.28125 44.578125 
Q 40.484375 46.53125 36.375 47.5 
Q 32.28125 48.484375 27.875 48.484375 
Q 21.1875 48.484375 17.84375 46.4375 
Q 14.5 44.390625 14.5 40.28125 
Q 14.5 37.15625 16.890625 35.375 
Q 19.28125 33.59375 26.515625 31.984375 
L 29.59375 31.296875 
Q 39.15625 29.25 43.1875 25.515625 
Q 47.21875 21.78125 47.21875 15.09375 
Q 47.21875 7.46875 41.1875 3.015625 
Q 35.15625 -1.421875 24.609375 -1.421875 
Q 20.21875 -1.421875 15.453125 -0.5625 
Q 10.6875 0.296875 5.421875 2 
L 5.421875 11.28125 
Q 10.40625 8.6875 15.234375 7.390625 
Q 20.0625 6.109375 24.8125 6.109375 
Q 31.15625 6.109375 34.5625 8.28125 
Q 37.984375 10.453125 37.984375 14.40625 
Q 37.984375 18.0625 35.515625 20.015625 
Q 33.0625 21.96875 24.703125 23.78125 
L 21.578125 24.515625 
Q 13.234375 26.265625 9.515625 29.90625 
Q 5.8125 33.546875 5.8125 39.890625 
Q 5.8125 47.609375 11.28125 51.796875 
Q 16.75 56 26.8125 56 
Q 31.78125 56 36.171875 55.265625 
Q 40.578125 54.546875 44.28125 53.078125 
z
" id="DejaVuSans-115"/>
       <path d="M 54.890625 33.015625 
L 54.890625 0 
L 45.90625 0 
L 45.90625 32.71875 
Q 45.90625 40.484375 42.875 44.328125 
Q 39.84375 48.1875 33.796875 48.1875 
Q 26.515625 48.1875 22.3125 43.546875 
Q 18.109375 38.921875 18.109375 30.90625 
L 18.109375 0 
L 9.078125 0 
L 9.078125 54.6875 
L 18.109375 54.6875 
L 18.109375 46.1875 
Q 21.34375 51.125 25.703125 53.5625 
Q 30.078125 56 35.796875 56 
Q 45.21875 56 50.046875 50.171875 
Q 54.890625 44.34375 54.890625 33.015625 
z
" id="DejaVuSans-110"/>
      </defs>
      <use xlink:href="#DejaVuSans-112"/>
      <use x="63.476562" xlink:href="#DejaVuSans-114"/>
      <use x="102.339844" xlink:href="#DejaVuSans-101"/>
      <use x="163.863281" xlink:href="#DejaVuSans-99"/>
      <use x="218.84375" xlink:href="#DejaVuSans-105"/>
      <use x="246.626953" xlink:href="#DejaVuSans-115"/>
      <use x="298.726562" xlink:href="#DejaVuSans-105"/>
      <use x="326.509766" xlink:href="#DejaVuSans-111"/>
      <use x="387.691406" xlink:href="#DejaVuSans-110"/>
     </g>
    </g>
    <g id="line2d_17">
     <path d="M 81 79.616562 
L 101 79.616562 
" style="fill:none;stroke:#008000;stroke-linecap:square;stroke-width:1.5;"/>
    </g>
    <g id="line2d_18"/>
    <g id="text_16">
     <!-- recall -->
     <g transform="translate(109 83.116562)scale(0.1 -0.1)">
      <defs>
       <path d="M 9.421875 75.984375 
L 18.40625 75.984375 
L 18.40625 0 
L 9.421875 0 
z
" id="DejaVuSans-108"/>
      </defs>
      <use xlink:href="#DejaVuSans-114"/>
      <use x="38.863281" xlink:href="#DejaVuSans-101"/>
      <use x="100.386719" xlink:href="#DejaVuSans-99"/>
      <use x="155.367188" xlink:href="#DejaVuSans-97"/>
      <use x="216.646484" xlink:href="#DejaVuSans-108"/>
      <use x="244.429688" xlink:href="#DejaVuSans-108"/>
     </g>
    </g>
   </g>
  </g>
  <g id="axes_2">
   <g id="matplotlib.axis_3">
    <g id="ytick_7">
     <g id="line2d_19">
      <defs>
       <path d="M 0 0 
L 3.5 0 
" id="m6287b07c37" style="stroke:#000000;stroke-width:0.8;"/>
      </defs>
      <g>
       <use style="stroke:#000000;stroke-width:0.8;" x="518.4" xlink:href="#m6287b07c37" y="383.587561"/>
      </g>
     </g>
     <g id="text_17">
      <!-- 0.10 -->
      <g transform="translate(525.4 387.386779)scale(0.1 -0.1)">
       <use xlink:href="#DejaVuSans-48"/>
       <use x="63.623047" xlink:href="#DejaVuSans-46"/>
       <use x="95.410156" xlink:href="#DejaVuSans-49"/>
       <use x="159.033203" xlink:href="#DejaVuSans-48"/>
      </g>
     </g>
    </g>
    <g id="ytick_8">
     <g id="line2d_20">
      <g>
       <use style="stroke:#000000;stroke-width:0.8;" x="518.4" xlink:href="#m6287b07c37" y="344.53479"/>
      </g>
     </g>
     <g id="text_18">
      <!-- 0.12 -->
      <g transform="translate(525.4 348.334009)scale(0.1 -0.1)">
       <use xlink:href="#DejaVuSans-48"/>
       <use x="63.623047" xlink:href="#DejaVuSans-46"/>
       <use x="95.410156" xlink:href="#DejaVuSans-49"/>
       <use x="159.033203" xlink:href="#DejaVuSans-50"/>
      </g>
     </g>
    </g>
    <g id="ytick_9">
     <g id="line2d_21">
      <g>
       <use style="stroke:#000000;stroke-width:0.8;" x="518.4" xlink:href="#m6287b07c37" y="305.48202"/>
      </g>
     </g>
     <g id="text_19">
      <!-- 0.14 -->
      <g transform="translate(525.4 309.281239)scale(0.1 -0.1)">
       <use xlink:href="#DejaVuSans-48"/>
       <use x="63.623047" xlink:href="#DejaVuSans-46"/>
       <use x="95.410156" xlink:href="#DejaVuSans-49"/>
       <use x="159.033203" xlink:href="#DejaVuSans-52"/>
      </g>
     </g>
    </g>
    <g id="ytick_10">
     <g id="line2d_22">
      <g>
       <use style="stroke:#000000;stroke-width:0.8;" x="518.4" xlink:href="#m6287b07c37" y="266.42925"/>
      </g>
     </g>
     <g id="text_20">
      <!-- 0.16 -->
      <g transform="translate(525.4 270.228469)scale(0.1 -0.1)">
       <use xlink:href="#DejaVuSans-48"/>
       <use x="63.623047" xlink:href="#DejaVuSans-46"/>
       <use x="95.410156" xlink:href="#DejaVuSans-49"/>
       <use x="159.033203" xlink:href="#DejaVuSans-54"/>
      </g>
     </g>
    </g>
    <g id="ytick_11">
     <g id="line2d_23">
      <g>
       <use style="stroke:#000000;stroke-width:0.8;" x="518.4" xlink:href="#m6287b07c37" y="227.37648"/>
      </g>
     </g>
     <g id="text_21">
      <!-- 0.18 -->
      <g transform="translate(525.4 231.175698)scale(0.1 -0.1)">
       <use xlink:href="#DejaVuSans-48"/>
       <use x="63.623047" xlink:href="#DejaVuSans-46"/>
       <use x="95.410156" xlink:href="#DejaVuSans-49"/>
       <use x="159.033203" xlink:href="#DejaVuSans-56"/>
      </g>
     </g>
    </g>
    <g id="ytick_12">
     <g id="line2d_24">
      <g>
       <use style="stroke:#000000;stroke-width:0.8;" x="518.4" xlink:href="#m6287b07c37" y="188.323709"/>
      </g>
     </g>
     <g id="text_22">
      <!-- 0.20 -->
      <g transform="translate(525.4 192.122928)scale(0.1 -0.1)">
       <use xlink:href="#DejaVuSans-48"/>
       <use x="63.623047" xlink:href="#DejaVuSans-46"/>
       <use x="95.410156" xlink:href="#DejaVuSans-50"/>
       <use x="159.033203" xlink:href="#DejaVuSans-48"/>
      </g>
     </g>
    </g>
    <g id="ytick_13">
     <g id="line2d_25">
      <g>
       <use style="stroke:#000000;stroke-width:0.8;" x="518.4" xlink:href="#m6287b07c37" y="149.270939"/>
      </g>
     </g>
     <g id="text_23">
      <!-- 0.22 -->
      <g transform="translate(525.4 153.070158)scale(0.1 -0.1)">
       <use xlink:href="#DejaVuSans-48"/>
       <use x="63.623047" xlink:href="#DejaVuSans-46"/>
       <use x="95.410156" xlink:href="#DejaVuSans-50"/>
       <use x="159.033203" xlink:href="#DejaVuSans-50"/>
      </g>
     </g>
    </g>
    <g id="ytick_14">
     <g id="line2d_26">
      <g>
       <use style="stroke:#000000;stroke-width:0.8;" x="518.4" xlink:href="#m6287b07c37" y="110.218169"/>
      </g>
     </g>
     <g id="text_24">
      <!-- 0.24 -->
      <g transform="translate(525.4 114.017388)scale(0.1 -0.1)">
       <use xlink:href="#DejaVuSans-48"/>
       <use x="63.623047" xlink:href="#DejaVuSans-46"/>
       <use x="95.410156" xlink:href="#DejaVuSans-50"/>
       <use x="159.033203" xlink:href="#DejaVuSans-52"/>
      </g>
     </g>
    </g>
    <g id="ytick_15">
     <g id="line2d_27">
      <g>
       <use style="stroke:#000000;stroke-width:0.8;" x="518.4" xlink:href="#m6287b07c37" y="71.165399"/>
      </g>
     </g>
     <g id="text_25">
      <!-- 0.26 -->
      <g transform="translate(525.4 74.964618)scale(0.1 -0.1)">
       <use xlink:href="#DejaVuSans-48"/>
       <use x="63.623047" xlink:href="#DejaVuSans-46"/>
       <use x="95.410156" xlink:href="#DejaVuSans-50"/>
       <use x="159.033203" xlink:href="#DejaVuSans-54"/>
      </g>
     </g>
    </g>
    <g id="text_26">
     <!-- loss -->
     <g transform="translate(559.264063 227.817812)rotate(-90)scale(0.1 -0.1)">
      <use xlink:href="#DejaVuSans-108"/>
      <use x="27.783203" xlink:href="#DejaVuSans-111"/>
      <use x="88.964844" xlink:href="#DejaVuSans-115"/>
      <use x="141.064453" xlink:href="#DejaVuSans-115"/>
     </g>
    </g>
   </g>
   <g id="line2d_28">
    <path clip-path="url(#pd80c2e283a)" d="M 92.290909 66.96 
L 93.104172 120.022317 
L 93.917435 128.109205 
L 94.730698 134.251017 
L 95.543961 139.215483 
L 96.357224 142.839816 
L 97.983749 150.614868 
L 98.797012 154.230547 
L 99.610275 156.697169 
L 100.423538 212.701316 
L 101.236801 225.088854 
L 102.050064 232.617821 
L 102.863327 238.264859 
L 104.489852 246.568013 
L 105.303115 248.790241 
L 106.116378 252.22196 
L 106.929641 254.51589 
L 107.742904 256.426341 
L 108.556167 238.290696 
L 110.182693 247.764593 
L 110.995956 251.990671 
L 111.809218 254.343467 
L 112.622481 257.05266 
L 114.249007 263.103534 
L 115.06227 265.366909 
L 115.875533 266.695779 
L 116.688796 257.156426 
L 117.502059 260.634404 
L 119.128584 266.72844 
L 121.568373 272.647523 
L 122.381636 275.76587 
L 124.008162 279.335043 
L 124.821425 266.801382 
L 125.634688 271.045451 
L 126.44795 273.696019 
L 127.261213 276.91389 
L 128.074476 278.871889 
L 130.514265 286.067017 
L 131.327528 287.444914 
L 132.140791 289.684604 
L 132.954054 274.443238 
L 133.767316 277.7759 
L 134.580579 282.022556 
L 135.393842 285.048529 
L 136.207105 287.026392 
L 137.833631 292.219638 
L 138.646894 293.783996 
L 140.27342 298.895219 
L 141.086682 279.859729 
L 141.899945 284.579248 
L 142.713208 287.593349 
L 143.526471 292.127067 
L 144.339734 295.416006 
L 145.152997 296.225287 
L 145.96626 300.191157 
L 146.779523 301.716576 
L 147.592786 303.50357 
L 148.406048 307.079305 
L 149.219311 284.189396 
L 150.032574 290.46368 
L 151.6591 298.954056 
L 152.472363 301.123007 
L 153.285626 305.011271 
L 154.098889 306.681429 
L 154.912152 309.992951 
L 155.725414 310.933112 
L 156.538677 314.270747 
L 157.35194 288.686157 
L 158.165203 296.202843 
L 158.978466 300.52624 
L 159.791729 304.139058 
L 160.604992 308.30987 
L 161.418255 310.762827 
L 162.231518 314.071974 
L 163.04478 316.830424 
L 163.858043 318.850529 
L 164.671306 319.254828 
L 165.484569 293.309426 
L 166.297832 301.048235 
L 167.111095 306.799842 
L 168.737621 314.264151 
L 169.550884 318.584798 
L 170.364146 320.517505 
L 171.177409 323.602647 
L 171.990672 324.725173 
L 172.803935 329.230725 
L 173.617198 297.197286 
L 174.430461 314.216853 
L 175.243724 319.746426 
L 176.87025 326.661755 
L 177.683512 328.829608 
L 178.496775 331.444566 
L 179.310038 333.411651 
L 180.123301 335.993415 
L 180.936564 337.880409 
L 181.749827 311.289491 
L 182.56309 317.687389 
L 183.376353 322.519863 
L 184.189616 326.498879 
L 185.002878 329.736771 
L 185.816141 331.989386 
L 186.629404 334.940318 
L 187.442667 337.14667 
L 188.25593 339.737507 
L 189.069193 341.296487 
L 189.882456 314.891135 
L 190.695719 321.39821 
L 192.322244 330.924564 
L 193.94877 336.537772 
L 194.762033 338.83973 
L 195.575296 340.360346 
L 196.388559 343.54329 
L 197.201822 345.473127 
L 198.015085 316.668525 
L 198.828348 325.597838 
L 199.64161 329.685885 
L 200.454873 333.169182 
L 201.268136 337.583533 
L 202.894662 341.990375 
L 203.707925 344.580476 
L 204.521188 346.570471 
L 205.334451 348.93796 
L 206.147714 320.708274 
L 206.960976 328.66338 
L 207.774239 333.022489 
L 210.214028 343.176709 
L 211.027291 344.956543 
L 211.840554 348.137397 
L 212.653817 349.51346 
L 213.46708 350.357404 
L 214.280343 323.337361 
L 215.093605 331.008034 
L 216.720131 339.733734 
L 217.533394 342.517634 
L 218.346657 345.745618 
L 219.15992 347.292818 
L 219.973183 350.408251 
L 220.786446 351.882718 
L 221.599709 353.766163 
L 222.412971 326.85933 
L 224.039497 338.614022 
L 224.85276 342.158026 
L 225.666023 344.965069 
L 226.479286 346.725522 
L 227.292549 350.320218 
L 228.105812 352.245314 
L 228.919075 354.666727 
L 229.732337 355.844918 
L 230.5456 328.517266 
L 231.358863 335.928167 
L 232.985389 344.662234 
L 233.798652 347.281017 
L 234.611915 350.848678 
L 235.425178 351.111689 
L 236.238441 353.721422 
L 237.051703 354.533098 
L 237.864966 357.993249 
L 238.678229 330.793736 
L 239.491492 338.212189 
L 240.304755 343.573918 
L 241.118018 346.245087 
L 241.931281 349.835791 
L 245.184332 358.174621 
L 245.997595 360.083157 
L 246.810858 334.001451 
L 248.437384 344.192863 
L 249.250647 348.917601 
L 250.06391 351.493689 
L 250.877173 353.287469 
L 251.690435 356.383625 
L 252.503698 357.43953 
L 253.316961 359.477606 
L 254.130224 361.875162 
L 254.943487 335.405058 
L 256.570013 347.587654 
L 257.383276 351.129539 
L 258.196539 352.857972 
L 259.009801 355.775772 
L 259.823064 357.100398 
L 260.636327 359.097362 
L 261.44959 360.701711 
L 262.262853 361.998646 
L 263.076116 335.843714 
L 263.889379 344.667259 
L 264.702642 347.704889 
L 265.515905 352.569271 
L 266.329167 354.438713 
L 267.14243 357.235673 
L 268.768956 360.209707 
L 269.582219 362.673812 
L 270.395482 363.226807 
L 271.208745 339.079395 
L 272.022008 345.459494 
L 272.835271 349.869901 
L 273.648533 352.767962 
L 275.275059 356.540789 
L 276.088322 359.699513 
L 277.714848 363.193547 
L 278.528111 364.236595 
L 279.341374 340.725421 
L 280.154637 347.668746 
L 280.967899 351.284958 
L 281.781162 353.679675 
L 282.594425 357.159499 
L 283.407688 359.611247 
L 284.220951 360.724631 
L 285.034214 363.144882 
L 286.66074 364.860367 
L 287.474003 340.680434 
L 288.287265 348.90914 
L 289.100528 351.704568 
L 290.727054 358.4272 
L 291.540317 360.029556 
L 292.35358 362.416726 
L 293.166843 363.277878 
L 293.980106 365.645401 
L 294.793369 366.650719 
L 295.606631 343.324324 
L 297.233157 354.241702 
L 298.04642 356.61988 
L 298.859683 358.26674 
L 300.486209 362.119979 
L 301.299472 363.721224 
L 302.112735 365.779065 
L 302.925997 365.907722 
L 303.73926 344.189544 
L 304.552523 351.377678 
L 306.179049 357.440041 
L 306.992312 358.923638 
L 307.805575 361.254038 
L 308.618838 362.723895 
L 309.432101 365.09245 
L 311.058626 367.211716 
L 311.871889 346.336757 
L 312.685152 350.85501 
L 313.498415 354.088634 
L 314.311678 358.962544 
L 315.124941 359.788099 
L 315.938204 362.184405 
L 316.751467 363.942543 
L 317.564729 364.67968 
L 318.377992 366.162471 
L 319.191255 366.385196 
L 320.004518 347.744046 
L 320.817781 352.334424 
L 321.631044 354.882084 
L 323.25757 361.392933 
L 324.070833 362.395663 
L 324.884095 364.063596 
L 325.697358 364.760408 
L 326.510621 367.394358 
L 327.323884 368.240498 
L 328.137147 347.941812 
L 328.95041 353.086712 
L 329.763673 356.471563 
L 331.390199 361.662498 
L 333.016724 363.937442 
L 333.829987 366.932294 
L 334.64325 367.455573 
L 335.456513 367.186003 
L 336.269776 348.859681 
L 337.083039 354.163899 
L 338.709565 360.260647 
L 339.522827 361.326114 
L 340.33609 363.055467 
L 341.149353 365.103082 
L 341.962616 365.452776 
L 342.775879 367.793963 
L 343.589142 368.297245 
L 344.402405 350.14153 
L 345.215668 355.31761 
L 346.028931 357.528299 
L 346.842193 361.289003 
L 347.655456 362.090161 
L 348.468719 363.508342 
L 349.281982 365.44853 
L 350.095245 366.494888 
L 350.908508 367.080331 
L 351.721771 369.178417 
L 352.535034 351.259956 
L 353.348297 356.687643 
L 354.161559 357.773126 
L 354.974822 360.973112 
L 355.788085 361.575826 
L 356.601348 364.116058 
L 357.414611 364.851918 
L 358.227874 365.982715 
L 359.041137 368.361203 
L 359.8544 368.056975 
L 360.667663 351.554653 
L 361.480925 355.778401 
L 362.294188 358.821911 
L 363.920714 362.387932 
L 364.733977 364.652857 
L 365.54724 365.239467 
L 366.360503 366.244653 
L 367.987029 369.36 
L 368.800291 352.101561 
L 369.613554 355.993158 
L 370.426817 359.328501 
L 371.24008 360.86501 
L 372.866606 364.717526 
L 373.679869 367.11555 
L 374.493132 366.417361 
L 375.306395 368.428612 
L 376.119657 368.520426 
L 376.93292 352.855709 
L 377.746183 356.425377 
L 378.559446 358.505854 
L 379.372709 361.224927 
L 380.185972 363.218261 
L 380.999235 364.038965 
L 382.625761 366.391613 
L 383.439024 368.031878 
L 384.252286 368.23899 
L 385.065549 351.929833 
L 385.878812 356.604842 
L 387.505338 361.546697 
L 388.318601 362.791958 
L 389.131864 364.858532 
L 389.945127 365.469315 
L 390.75839 367.022114 
L 391.571652 367.987769 
L 392.384915 368.499782 
L 393.198178 353.597802 
L 394.011441 356.587524 
L 394.824704 360.31834 
L 395.637967 361.670511 
L 396.45123 362.791139 
L 397.264493 364.478399 
L 398.077756 365.825271 
L 398.891018 365.672354 
L 399.704281 368.306284 
L 400.517544 368.490332 
L 401.330807 353.772934 
L 402.14407 357.080622 
L 403.770596 361.569646 
L 404.583859 362.523434 
L 405.397122 364.734749 
L 406.210384 366.200412 
L 407.023647 366.028284 
L 407.83691 368.610168 
L 408.650173 368.867087 
L 409.463436 355.01407 
L 410.276699 357.988926 
L 411.089962 359.050041 
L 411.903225 360.364842 
L 412.716488 363.0277 
L 413.52975 364.003741 
L 414.343013 365.652353 
L 415.156276 366.50258 
L 415.969539 367.113062 
L 416.782802 366.897929 
L 417.596065 354.598951 
L 418.409328 358.110976 
L 419.222591 360.307972 
L 420.035854 362.13883 
L 421.662379 364.399588 
L 423.288905 366.990408 
L 424.102168 366.826529 
L 424.915431 367.398597 
L 425.728694 354.291268 
L 426.541957 357.789122 
L 427.35522 359.759202 
L 428.168482 361.327917 
L 428.981745 363.145047 
L 430.608271 365.648962 
L 431.421534 365.965825 
L 432.234797 367.382103 
L 433.04806 367.473101 
L 433.861323 355.107946 
L 434.674586 358.142768 
L 435.487848 360.601123 
L 436.301111 361.944976 
L 437.114374 362.685175 
L 437.927637 364.260057 
L 438.7409 365.114756 
L 439.554163 366.351674 
L 440.367426 366.730103 
L 441.180689 367.418507 
L 441.993952 356.191109 
L 442.807214 358.983701 
L 443.620477 359.949133 
L 444.43374 361.286597 
L 445.247003 362.057088 
L 446.060266 363.418449 
L 446.873529 365.119086 
L 447.686792 366.319706 
L 448.500055 365.081342 
L 449.313318 366.340768 
L 450.12658 355.523627 
L 450.939843 358.051545 
L 451.753106 360.110922 
L 452.566369 361.71118 
L 453.379632 361.740861 
L 454.192895 363.952361 
L 455.006158 365.126633 
L 455.819421 365.133111 
L 456.632684 364.68591 
L 457.445946 367.80719 
L 458.259209 355.520332 
L 459.072472 358.322098 
L 459.885735 359.527871 
L 461.512261 362.960256 
L 462.325524 363.778581 
L 463.138787 363.993865 
L 463.95205 365.565581 
L 464.765312 365.450126 
L 465.578575 366.312214 
L 466.391838 356.826904 
L 467.205101 358.696305 
L 468.831627 361.045717 
L 470.458153 363.149501 
L 471.271416 364.355302 
L 472.084678 364.775655 
L 472.897941 365.710436 
L 473.711204 365.927033 
L 474.524467 356.68323 
L 475.33773 357.532969 
L 476.150993 359.993438 
L 476.964256 361.181437 
L 477.777519 361.736365 
L 478.590782 361.570087 
L 479.404044 364.590482 
L 480.217307 363.620334 
L 481.03057 365.834256 
L 481.843833 365.383855 
L 482.657096 356.157429 
L 483.470359 359.284586 
L 484.283622 360.365176 
L 485.096885 362.438028 
L 485.910148 361.944628 
L 486.72341 363.044858 
L 487.536673 363.25456 
L 488.349936 364.191484 
L 489.163199 365.349259 
L 489.976462 363.998707 
L 490.789725 355.686705 
L 491.602988 358.574358 
L 493.229514 360.393359 
L 494.042776 360.882198 
L 494.856039 362.678208 
L 496.482565 363.988623 
L 497.295828 365.095811 
L 498.109091 364.763333 
L 498.109091 364.763333 
" style="fill:none;stroke:#ff0000;stroke-linecap:square;stroke-width:1.5;"/>
   </g>
   <g id="patch_8">
    <path d="M 72 384.48 
L 72 51.84 
" style="fill:none;stroke:#000000;stroke-linecap:square;stroke-linejoin:miter;stroke-width:0.8;"/>
   </g>
   <g id="patch_9">
    <path d="M 518.4 384.48 
L 518.4 51.84 
" style="fill:none;stroke:#000000;stroke-linecap:square;stroke-linejoin:miter;stroke-width:0.8;"/>
   </g>
   <g id="patch_10">
    <path d="M 72 384.48 
L 518.4 384.48 
" style="fill:none;stroke:#000000;stroke-linecap:square;stroke-linejoin:miter;stroke-width:0.8;"/>
   </g>
   <g id="patch_11">
    <path d="M 72 51.84 
L 518.4 51.84 
" style="fill:none;stroke:#000000;stroke-linecap:square;stroke-linejoin:miter;stroke-width:0.8;"/>
   </g>
   <g id="text_27">
    <!-- The learning curve on _iid/host/5 -->
    <g transform="translate(193.144687 45.84)scale(0.12 -0.12)">
     <defs>
      <path d="M -0.296875 72.90625 
L 61.375 72.90625 
L 61.375 64.59375 
L 35.5 64.59375 
L 35.5 0 
L 25.59375 0 
L 25.59375 64.59375 
L -0.296875 64.59375 
z
" id="DejaVuSans-84"/>
      <path id="DejaVuSans-32"/>
      <path d="M 45.40625 27.984375 
Q 45.40625 37.75 41.375 43.109375 
Q 37.359375 48.484375 30.078125 48.484375 
Q 22.859375 48.484375 18.828125 43.109375 
Q 14.796875 37.75 14.796875 27.984375 
Q 14.796875 18.265625 18.828125 12.890625 
Q 22.859375 7.515625 30.078125 7.515625 
Q 37.359375 7.515625 41.375 12.890625 
Q 45.40625 18.265625 45.40625 27.984375 
z
M 54.390625 6.78125 
Q 54.390625 -7.171875 48.1875 -13.984375 
Q 42 -20.796875 29.203125 -20.796875 
Q 24.46875 -20.796875 20.265625 -20.09375 
Q 16.0625 -19.390625 12.109375 -17.921875 
L 12.109375 -9.1875 
Q 16.0625 -11.328125 19.921875 -12.34375 
Q 23.78125 -13.375 27.78125 -13.375 
Q 36.625 -13.375 41.015625 -8.765625 
Q 45.40625 -4.15625 45.40625 5.171875 
L 45.40625 9.625 
Q 42.625 4.78125 38.28125 2.390625 
Q 33.9375 0 27.875 0 
Q 17.828125 0 11.671875 7.65625 
Q 5.515625 15.328125 5.515625 27.984375 
Q 5.515625 40.671875 11.671875 48.328125 
Q 17.828125 56 27.875 56 
Q 33.9375 56 38.28125 53.609375 
Q 42.625 51.21875 45.40625 46.390625 
L 45.40625 54.6875 
L 54.390625 54.6875 
z
" id="DejaVuSans-103"/>
      <path d="M 8.5 21.578125 
L 8.5 54.6875 
L 17.484375 54.6875 
L 17.484375 21.921875 
Q 17.484375 14.15625 20.5 10.265625 
Q 23.53125 6.390625 29.59375 6.390625 
Q 36.859375 6.390625 41.078125 11.03125 
Q 45.3125 15.671875 45.3125 23.6875 
L 45.3125 54.6875 
L 54.296875 54.6875 
L 54.296875 0 
L 45.3125 0 
L 45.3125 8.40625 
Q 42.046875 3.421875 37.71875 1 
Q 33.40625 -1.421875 27.6875 -1.421875 
Q 18.265625 -1.421875 13.375 4.4375 
Q 8.5 10.296875 8.5 21.578125 
z
M 31.109375 56 
z
" id="DejaVuSans-117"/>
      <path d="M 2.984375 54.6875 
L 12.5 54.6875 
L 29.59375 8.796875 
L 46.6875 54.6875 
L 56.203125 54.6875 
L 35.6875 0 
L 23.484375 0 
z
" id="DejaVuSans-118"/>
      <path d="M 30.953125 67.4375 
L 56.203125 0 
L 46.6875 0 
L 31.34375 40.4375 
L 12.5 0 
L 2.984375 0 
L 26.953125 52.4375 
L 23.34375 62.109375 
Q 21.046875 68.265625 15.828125 68.265625 
L 11.140625 68.265625 
L 11.140625 75.984375 
L 16.84375 75.875 
Q 27.875 75.734375 30.953125 67.4375 
z
" id="DejaVuSans-955"/>
      <path d="M 50.984375 -16.609375 
L 50.984375 -23.578125 
L -0.984375 -23.578125 
L -0.984375 -16.609375 
z
" id="DejaVuSans-95"/>
      <path d="M 45.40625 46.390625 
L 45.40625 75.984375 
L 54.390625 75.984375 
L 54.390625 0 
L 45.40625 0 
L 45.40625 8.203125 
Q 42.578125 3.328125 38.25 0.953125 
Q 33.9375 -1.421875 27.875 -1.421875 
Q 17.96875 -1.421875 11.734375 6.484375 
Q 5.515625 14.40625 5.515625 27.296875 
Q 5.515625 40.1875 11.734375 48.09375 
Q 17.96875 56 27.875 56 
Q 33.9375 56 38.25 53.625 
Q 42.578125 51.265625 45.40625 46.390625 
z
M 14.796875 27.296875 
Q 14.796875 17.390625 18.875 11.75 
Q 22.953125 6.109375 30.078125 6.109375 
Q 37.203125 6.109375 41.296875 11.75 
Q 45.40625 17.390625 45.40625 27.296875 
Q 45.40625 37.203125 41.296875 42.84375 
Q 37.203125 48.484375 30.078125 48.484375 
Q 22.953125 48.484375 18.875 42.84375 
Q 14.796875 37.203125 14.796875 27.296875 
z
" id="DejaVuSans-100"/>
      <path d="M 25.390625 72.90625 
L 33.6875 72.90625 
L 8.296875 -9.28125 
L 0 -9.28125 
z
" id="DejaVuSans-47"/>
     </defs>
     <use xlink:href="#DejaVuSans-84"/>
     <use x="61.083984" xlink:href="#DejaVuSans-104"/>
     <use x="124.462891" xlink:href="#DejaVuSans-101"/>
     <use x="185.986328" xlink:href="#DejaVuSans-32"/>
     <use x="217.773438" xlink:href="#DejaVuSans-108"/>
     <use x="245.556641" xlink:href="#DejaVuSans-101"/>
     <use x="307.080078" xlink:href="#DejaVuSans-97"/>
     <use x="368.359375" xlink:href="#DejaVuSans-114"/>
     <use x="407.722656" xlink:href="#DejaVuSans-110"/>
     <use x="471.101562" xlink:href="#DejaVuSans-105"/>
     <use x="498.884766" xlink:href="#DejaVuSans-110"/>
     <use x="562.263672" xlink:href="#DejaVuSans-103"/>
     <use x="625.740234" xlink:href="#DejaVuSans-32"/>
     <use x="657.527344" xlink:href="#DejaVuSans-99"/>
     <use x="712.507812" xlink:href="#DejaVuSans-117"/>
     <use x="775.886719" xlink:href="#DejaVuSans-114"/>
     <use x="817" xlink:href="#DejaVuSans-118"/>
     <use x="876.179688" xlink:href="#DejaVuSans-101"/>
     <use x="937.703125" xlink:href="#DejaVuSans-32"/>
     <use x="969.490234" xlink:href="#DejaVuSans-111"/>
     <use x="1030.671875" xlink:href="#DejaVuSans-110"/>
     <use x="1094.050781" xlink:href="#DejaVuSans-32"/>
     <use x="1125.837891" xlink:href="#DejaVuSans-955"/>
     <use x="1185.017578" xlink:href="#DejaVuSans-95"/>
     <use x="1235.017578" xlink:href="#DejaVuSans-105"/>
     <use x="1262.800781" xlink:href="#DejaVuSans-105"/>
     <use x="1290.583984" xlink:href="#DejaVuSans-100"/>
     <use x="1354.060547" xlink:href="#DejaVuSans-47"/>
     <use x="1387.751953" xlink:href="#DejaVuSans-104"/>
     <use x="1451.130859" xlink:href="#DejaVuSans-111"/>
     <use x="1512.3125" xlink:href="#DejaVuSans-115"/>
     <use x="1564.412109" xlink:href="#DejaVuSans-116"/>
     <use x="1603.621094" xlink:href="#DejaVuSans-47"/>
     <use x="1637.3125" xlink:href="#DejaVuSans-53"/>
    </g>
   </g>
   <g id="legend_2">
    <g id="patch_12">
     <path d="M 460.084375 74.518125 
L 511.4 74.518125 
Q 513.4 74.518125 513.4 72.518125 
L 513.4 58.84 
Q 513.4 56.84 511.4 56.84 
L 460.084375 56.84 
Q 458.084375 56.84 458.084375 58.84 
L 458.084375 72.518125 
Q 458.084375 74.518125 460.084375 74.518125 
z
" style="fill:#ffffff;opacity:0.8;stroke:#cccccc;stroke-linejoin:miter;"/>
    </g>
    <g id="line2d_29">
     <path d="M 462.084375 64.938438 
L 482.084375 64.938438 
" style="fill:none;stroke:#ff0000;stroke-linecap:square;stroke-width:1.5;"/>
    </g>
    <g id="line2d_30"/>
    <g id="text_28">
     <!-- loss -->
     <g transform="translate(490.084375 68.438438)scale(0.1 -0.1)">
      <use xlink:href="#DejaVuSans-108"/>
      <use x="27.783203" xlink:href="#DejaVuSans-111"/>
      <use x="88.964844" xlink:href="#DejaVuSans-115"/>
      <use x="141.064453" xlink:href="#DejaVuSans-115"/>
     </g>
    </g>
   </g>
  </g>
 </g>
 <defs>
  <clipPath id="pd80c2e283a">
   <rect height="332.64" width="446.4" x="72" y="51.84"/>
  </clipPath>
 </defs>
</svg>
