<?xml version="1.0" encoding="utf-8" standalone="no"?>
<!DOCTYPE svg PUBLIC "-//W3C//DTD SVG 1.1//EN"
  "http://www.w3.org/Graphics/SVG/1.1/DTD/svg11.dtd">
<!-- Created with matplotlib (https://matplotlib.org/) -->
<svg height="432pt" version="1.1" viewBox="0 0 576 432" width="576pt" xmlns="http://www.w3.org/2000/svg" xmlns:xlink="http://www.w3.org/1999/xlink">
 <metadata>
  <rdf:RDF xmlns:cc="http://creativecommons.org/ns#" xmlns:dc="http://purl.org/dc/elements/1.1/" xmlns:rdf="http://www.w3.org/1999/02/22-rdf-syntax-ns#">
   <cc:Work>
    <dc:type rdf:resource="http://purl.org/dc/dcmitype/StillImage"/>
    <dc:date>2023-04-17T00:04:42.933051</dc:date>
    <dc:format>image/svg+xml</dc:format>
    <dc:creator>
     <cc:Agent>
      <dc:title>Matplotlib v3.3.4, https://matplotlib.org/</dc:title>
     </cc:Agent>
    </dc:creator>
   </cc:Work>
  </rdf:RDF>
 </metadata>
 <defs>
  <style type="text/css">*{stroke-linecap:butt;stroke-linejoin:round;}</style>
 </defs>
 <g id="figure_1">
  <g id="patch_1">
   <path d="M 0 432 
L 576 432 
L 576 0 
L 0 0 
z
" style="fill:#ffffff;"/>
  </g>
  <g id="axes_1">
   <g id="patch_2">
    <path d="M 72 384.48 
L 518.4 384.48 
L 518.4 51.84 
L 72 51.84 
z
" style="fill:#ffffff;"/>
   </g>
   <g id="matplotlib.axis_1">
    <g id="xtick_1">
     <g id="line2d_1">
      <defs>
       <path d="M 0 0 
L 0 3.5 
" id="mf65615951e" style="stroke:#000000;stroke-width:0.8;"/>
      </defs>
      <g>
       <use style="stroke:#000000;stroke-width:0.8;" x="92.290909" xlink:href="#mf65615951e" y="384.48"/>
      </g>
     </g>
     <g id="text_1">
      <!-- 0 -->
      <g transform="translate(89.109659 399.078438)scale(0.1 -0.1)">
       <defs>
        <path d="M 31.78125 66.40625 
Q 24.171875 66.40625 20.328125 58.90625 
Q 16.5 51.421875 16.5 36.375 
Q 16.5 21.390625 20.328125 13.890625 
Q 24.171875 6.390625 31.78125 6.390625 
Q 39.453125 6.390625 43.28125 13.890625 
Q 47.125 21.390625 47.125 36.375 
Q 47.125 51.421875 43.28125 58.90625 
Q 39.453125 66.40625 31.78125 66.40625 
z
M 31.78125 74.21875 
Q 44.046875 74.21875 50.515625 64.515625 
Q 56.984375 54.828125 56.984375 36.375 
Q 56.984375 17.96875 50.515625 8.265625 
Q 44.046875 -1.421875 31.78125 -1.421875 
Q 19.53125 -1.421875 13.0625 8.265625 
Q 6.59375 17.96875 6.59375 36.375 
Q 6.59375 54.828125 13.0625 64.515625 
Q 19.53125 74.21875 31.78125 74.21875 
z
" id="DejaVuSans-48"/>
       </defs>
       <use xlink:href="#DejaVuSans-48"/>
      </g>
     </g>
    </g>
    <g id="xtick_2">
     <g id="line2d_2">
      <g>
       <use style="stroke:#000000;stroke-width:0.8;" x="173.617198" xlink:href="#mf65615951e" y="384.48"/>
      </g>
     </g>
     <g id="text_2">
      <!-- 100 -->
      <g transform="translate(164.073448 399.078438)scale(0.1 -0.1)">
       <defs>
        <path d="M 12.40625 8.296875 
L 28.515625 8.296875 
L 28.515625 63.921875 
L 10.984375 60.40625 
L 10.984375 69.390625 
L 28.421875 72.90625 
L 38.28125 72.90625 
L 38.28125 8.296875 
L 54.390625 8.296875 
L 54.390625 0 
L 12.40625 0 
z
" id="DejaVuSans-49"/>
       </defs>
       <use xlink:href="#DejaVuSans-49"/>
       <use x="63.623047" xlink:href="#DejaVuSans-48"/>
       <use x="127.246094" xlink:href="#DejaVuSans-48"/>
      </g>
     </g>
    </g>
    <g id="xtick_3">
     <g id="line2d_3">
      <g>
       <use style="stroke:#000000;stroke-width:0.8;" x="254.943487" xlink:href="#mf65615951e" y="384.48"/>
      </g>
     </g>
     <g id="text_3">
      <!-- 200 -->
      <g transform="translate(245.399737 399.078438)scale(0.1 -0.1)">
       <defs>
        <path d="M 19.1875 8.296875 
L 53.609375 8.296875 
L 53.609375 0 
L 7.328125 0 
L 7.328125 8.296875 
Q 12.9375 14.109375 22.625 23.890625 
Q 32.328125 33.6875 34.8125 36.53125 
Q 39.546875 41.84375 41.421875 45.53125 
Q 43.3125 49.21875 43.3125 52.78125 
Q 43.3125 58.59375 39.234375 62.25 
Q 35.15625 65.921875 28.609375 65.921875 
Q 23.96875 65.921875 18.8125 64.3125 
Q 13.671875 62.703125 7.8125 59.421875 
L 7.8125 69.390625 
Q 13.765625 71.78125 18.9375 73 
Q 24.125 74.21875 28.421875 74.21875 
Q 39.75 74.21875 46.484375 68.546875 
Q 53.21875 62.890625 53.21875 53.421875 
Q 53.21875 48.921875 51.53125 44.890625 
Q 49.859375 40.875 45.40625 35.40625 
Q 44.1875 33.984375 37.640625 27.21875 
Q 31.109375 20.453125 19.1875 8.296875 
z
" id="DejaVuSans-50"/>
       </defs>
       <use xlink:href="#DejaVuSans-50"/>
       <use x="63.623047" xlink:href="#DejaVuSans-48"/>
       <use x="127.246094" xlink:href="#DejaVuSans-48"/>
      </g>
     </g>
    </g>
    <g id="xtick_4">
     <g id="line2d_4">
      <g>
       <use style="stroke:#000000;stroke-width:0.8;" x="336.269776" xlink:href="#mf65615951e" y="384.48"/>
      </g>
     </g>
     <g id="text_4">
      <!-- 300 -->
      <g transform="translate(326.726026 399.078438)scale(0.1 -0.1)">
       <defs>
        <path d="M 40.578125 39.3125 
Q 47.65625 37.796875 51.625 33 
Q 55.609375 28.21875 55.609375 21.1875 
Q 55.609375 10.40625 48.1875 4.484375 
Q 40.765625 -1.421875 27.09375 -1.421875 
Q 22.515625 -1.421875 17.65625 -0.515625 
Q 12.796875 0.390625 7.625 2.203125 
L 7.625 11.71875 
Q 11.71875 9.328125 16.59375 8.109375 
Q 21.484375 6.890625 26.8125 6.890625 
Q 36.078125 6.890625 40.9375 10.546875 
Q 45.796875 14.203125 45.796875 21.1875 
Q 45.796875 27.640625 41.28125 31.265625 
Q 36.765625 34.90625 28.71875 34.90625 
L 20.21875 34.90625 
L 20.21875 43.015625 
L 29.109375 43.015625 
Q 36.375 43.015625 40.234375 45.921875 
Q 44.09375 48.828125 44.09375 54.296875 
Q 44.09375 59.90625 40.109375 62.90625 
Q 36.140625 65.921875 28.71875 65.921875 
Q 24.65625 65.921875 20.015625 65.03125 
Q 15.375 64.15625 9.8125 62.3125 
L 9.8125 71.09375 
Q 15.4375 72.65625 20.34375 73.4375 
Q 25.25 74.21875 29.59375 74.21875 
Q 40.828125 74.21875 47.359375 69.109375 
Q 53.90625 64.015625 53.90625 55.328125 
Q 53.90625 49.265625 50.4375 45.09375 
Q 46.96875 40.921875 40.578125 39.3125 
z
" id="DejaVuSans-51"/>
       </defs>
       <use xlink:href="#DejaVuSans-51"/>
       <use x="63.623047" xlink:href="#DejaVuSans-48"/>
       <use x="127.246094" xlink:href="#DejaVuSans-48"/>
      </g>
     </g>
    </g>
    <g id="xtick_5">
     <g id="line2d_5">
      <g>
       <use style="stroke:#000000;stroke-width:0.8;" x="417.596065" xlink:href="#mf65615951e" y="384.48"/>
      </g>
     </g>
     <g id="text_5">
      <!-- 400 -->
      <g transform="translate(408.052315 399.078438)scale(0.1 -0.1)">
       <defs>
        <path d="M 37.796875 64.3125 
L 12.890625 25.390625 
L 37.796875 25.390625 
z
M 35.203125 72.90625 
L 47.609375 72.90625 
L 47.609375 25.390625 
L 58.015625 25.390625 
L 58.015625 17.1875 
L 47.609375 17.1875 
L 47.609375 0 
L 37.796875 0 
L 37.796875 17.1875 
L 4.890625 17.1875 
L 4.890625 26.703125 
z
" id="DejaVuSans-52"/>
       </defs>
       <use xlink:href="#DejaVuSans-52"/>
       <use x="63.623047" xlink:href="#DejaVuSans-48"/>
       <use x="127.246094" xlink:href="#DejaVuSans-48"/>
      </g>
     </g>
    </g>
    <g id="xtick_6">
     <g id="line2d_6">
      <g>
       <use style="stroke:#000000;stroke-width:0.8;" x="498.922354" xlink:href="#mf65615951e" y="384.48"/>
      </g>
     </g>
     <g id="text_6">
      <!-- 500 -->
      <g transform="translate(489.378604 399.078438)scale(0.1 -0.1)">
       <defs>
        <path d="M 10.796875 72.90625 
L 49.515625 72.90625 
L 49.515625 64.59375 
L 19.828125 64.59375 
L 19.828125 46.734375 
Q 21.96875 47.46875 24.109375 47.828125 
Q 26.265625 48.1875 28.421875 48.1875 
Q 40.625 48.1875 47.75 41.5 
Q 54.890625 34.8125 54.890625 23.390625 
Q 54.890625 11.625 47.5625 5.09375 
Q 40.234375 -1.421875 26.90625 -1.421875 
Q 22.3125 -1.421875 17.546875 -0.640625 
Q 12.796875 0.140625 7.71875 1.703125 
L 7.71875 11.625 
Q 12.109375 9.234375 16.796875 8.0625 
Q 21.484375 6.890625 26.703125 6.890625 
Q 35.15625 6.890625 40.078125 11.328125 
Q 45.015625 15.765625 45.015625 23.390625 
Q 45.015625 31 40.078125 35.4375 
Q 35.15625 39.890625 26.703125 39.890625 
Q 22.75 39.890625 18.8125 39.015625 
Q 14.890625 38.140625 10.796875 36.28125 
z
" id="DejaVuSans-53"/>
       </defs>
       <use xlink:href="#DejaVuSans-53"/>
       <use x="63.623047" xlink:href="#DejaVuSans-48"/>
       <use x="127.246094" xlink:href="#DejaVuSans-48"/>
      </g>
     </g>
    </g>
    <g id="text_7">
     <!-- epoch -->
     <g transform="translate(279.971875 412.756563)scale(0.1 -0.1)">
      <defs>
       <path d="M 56.203125 29.59375 
L 56.203125 25.203125 
L 14.890625 25.203125 
Q 15.484375 15.921875 20.484375 11.0625 
Q 25.484375 6.203125 34.421875 6.203125 
Q 39.59375 6.203125 44.453125 7.46875 
Q 49.3125 8.734375 54.109375 11.28125 
L 54.109375 2.78125 
Q 49.265625 0.734375 44.1875 -0.34375 
Q 39.109375 -1.421875 33.890625 -1.421875 
Q 20.796875 -1.421875 13.15625 6.1875 
Q 5.515625 13.8125 5.515625 26.8125 
Q 5.515625 40.234375 12.765625 48.109375 
Q 20.015625 56 32.328125 56 
Q 43.359375 56 49.78125 48.890625 
Q 56.203125 41.796875 56.203125 29.59375 
z
M 47.21875 32.234375 
Q 47.125 39.59375 43.09375 43.984375 
Q 39.0625 48.390625 32.421875 48.390625 
Q 24.90625 48.390625 20.390625 44.140625 
Q 15.875 39.890625 15.1875 32.171875 
z
" id="DejaVuSans-101"/>
       <path d="M 18.109375 8.203125 
L 18.109375 -20.796875 
L 9.078125 -20.796875 
L 9.078125 54.6875 
L 18.109375 54.6875 
L 18.109375 46.390625 
Q 20.953125 51.265625 25.265625 53.625 
Q 29.59375 56 35.59375 56 
Q 45.5625 56 51.78125 48.09375 
Q 58.015625 40.1875 58.015625 27.296875 
Q 58.015625 14.40625 51.78125 6.484375 
Q 45.5625 -1.421875 35.59375 -1.421875 
Q 29.59375 -1.421875 25.265625 0.953125 
Q 20.953125 3.328125 18.109375 8.203125 
z
M 48.6875 27.296875 
Q 48.6875 37.203125 44.609375 42.84375 
Q 40.53125 48.484375 33.40625 48.484375 
Q 26.265625 48.484375 22.1875 42.84375 
Q 18.109375 37.203125 18.109375 27.296875 
Q 18.109375 17.390625 22.1875 11.75 
Q 26.265625 6.109375 33.40625 6.109375 
Q 40.53125 6.109375 44.609375 11.75 
Q 48.6875 17.390625 48.6875 27.296875 
z
" id="DejaVuSans-112"/>
       <path d="M 30.609375 48.390625 
Q 23.390625 48.390625 19.1875 42.75 
Q 14.984375 37.109375 14.984375 27.296875 
Q 14.984375 17.484375 19.15625 11.84375 
Q 23.34375 6.203125 30.609375 6.203125 
Q 37.796875 6.203125 41.984375 11.859375 
Q 46.1875 17.53125 46.1875 27.296875 
Q 46.1875 37.015625 41.984375 42.703125 
Q 37.796875 48.390625 30.609375 48.390625 
z
M 30.609375 56 
Q 42.328125 56 49.015625 48.375 
Q 55.71875 40.765625 55.71875 27.296875 
Q 55.71875 13.875 49.015625 6.21875 
Q 42.328125 -1.421875 30.609375 -1.421875 
Q 18.84375 -1.421875 12.171875 6.21875 
Q 5.515625 13.875 5.515625 27.296875 
Q 5.515625 40.765625 12.171875 48.375 
Q 18.84375 56 30.609375 56 
z
" id="DejaVuSans-111"/>
       <path d="M 48.78125 52.59375 
L 48.78125 44.1875 
Q 44.96875 46.296875 41.140625 47.34375 
Q 37.3125 48.390625 33.40625 48.390625 
Q 24.65625 48.390625 19.8125 42.84375 
Q 14.984375 37.3125 14.984375 27.296875 
Q 14.984375 17.28125 19.8125 11.734375 
Q 24.65625 6.203125 33.40625 6.203125 
Q 37.3125 6.203125 41.140625 7.25 
Q 44.96875 8.296875 48.78125 10.40625 
L 48.78125 2.09375 
Q 45.015625 0.34375 40.984375 -0.53125 
Q 36.96875 -1.421875 32.421875 -1.421875 
Q 20.0625 -1.421875 12.78125 6.34375 
Q 5.515625 14.109375 5.515625 27.296875 
Q 5.515625 40.671875 12.859375 48.328125 
Q 20.21875 56 33.015625 56 
Q 37.15625 56 41.109375 55.140625 
Q 45.0625 54.296875 48.78125 52.59375 
z
" id="DejaVuSans-99"/>
       <path d="M 54.890625 33.015625 
L 54.890625 0 
L 45.90625 0 
L 45.90625 32.71875 
Q 45.90625 40.484375 42.875 44.328125 
Q 39.84375 48.1875 33.796875 48.1875 
Q 26.515625 48.1875 22.3125 43.546875 
Q 18.109375 38.921875 18.109375 30.90625 
L 18.109375 0 
L 9.078125 0 
L 9.078125 75.984375 
L 18.109375 75.984375 
L 18.109375 46.1875 
Q 21.34375 51.125 25.703125 53.5625 
Q 30.078125 56 35.796875 56 
Q 45.21875 56 50.046875 50.171875 
Q 54.890625 44.34375 54.890625 33.015625 
z
" id="DejaVuSans-104"/>
      </defs>
      <use xlink:href="#DejaVuSans-101"/>
      <use x="61.523438" xlink:href="#DejaVuSans-112"/>
      <use x="125" xlink:href="#DejaVuSans-111"/>
      <use x="186.181641" xlink:href="#DejaVuSans-99"/>
      <use x="241.162109" xlink:href="#DejaVuSans-104"/>
     </g>
    </g>
   </g>
   <g id="matplotlib.axis_2">
    <g id="ytick_1">
     <g id="line2d_7">
      <defs>
       <path d="M 0 0 
L -3.5 0 
" id="mb0508dc0c4" style="stroke:#000000;stroke-width:0.8;"/>
      </defs>
      <g>
       <use style="stroke:#000000;stroke-width:0.8;" x="72" xlink:href="#mb0508dc0c4" y="384.48"/>
      </g>
     </g>
     <g id="text_8">
      <!-- 0.0 -->
      <g transform="translate(49.096875 388.279219)scale(0.1 -0.1)">
       <defs>
        <path d="M 10.6875 12.40625 
L 21 12.40625 
L 21 0 
L 10.6875 0 
z
" id="DejaVuSans-46"/>
       </defs>
       <use xlink:href="#DejaVuSans-48"/>
       <use x="63.623047" xlink:href="#DejaVuSans-46"/>
       <use x="95.410156" xlink:href="#DejaVuSans-48"/>
      </g>
     </g>
    </g>
    <g id="ytick_2">
     <g id="line2d_8">
      <g>
       <use style="stroke:#000000;stroke-width:0.8;" x="72" xlink:href="#mb0508dc0c4" y="317.952"/>
      </g>
     </g>
     <g id="text_9">
      <!-- 0.2 -->
      <g transform="translate(49.096875 321.751219)scale(0.1 -0.1)">
       <use xlink:href="#DejaVuSans-48"/>
       <use x="63.623047" xlink:href="#DejaVuSans-46"/>
       <use x="95.410156" xlink:href="#DejaVuSans-50"/>
      </g>
     </g>
    </g>
    <g id="ytick_3">
     <g id="line2d_9">
      <g>
       <use style="stroke:#000000;stroke-width:0.8;" x="72" xlink:href="#mb0508dc0c4" y="251.424"/>
      </g>
     </g>
     <g id="text_10">
      <!-- 0.4 -->
      <g transform="translate(49.096875 255.223219)scale(0.1 -0.1)">
       <use xlink:href="#DejaVuSans-48"/>
       <use x="63.623047" xlink:href="#DejaVuSans-46"/>
       <use x="95.410156" xlink:href="#DejaVuSans-52"/>
      </g>
     </g>
    </g>
    <g id="ytick_4">
     <g id="line2d_10">
      <g>
       <use style="stroke:#000000;stroke-width:0.8;" x="72" xlink:href="#mb0508dc0c4" y="184.896"/>
      </g>
     </g>
     <g id="text_11">
      <!-- 0.6 -->
      <g transform="translate(49.096875 188.695219)scale(0.1 -0.1)">
       <defs>
        <path d="M 33.015625 40.375 
Q 26.375 40.375 22.484375 35.828125 
Q 18.609375 31.296875 18.609375 23.390625 
Q 18.609375 15.53125 22.484375 10.953125 
Q 26.375 6.390625 33.015625 6.390625 
Q 39.65625 6.390625 43.53125 10.953125 
Q 47.40625 15.53125 47.40625 23.390625 
Q 47.40625 31.296875 43.53125 35.828125 
Q 39.65625 40.375 33.015625 40.375 
z
M 52.59375 71.296875 
L 52.59375 62.3125 
Q 48.875 64.0625 45.09375 64.984375 
Q 41.3125 65.921875 37.59375 65.921875 
Q 27.828125 65.921875 22.671875 59.328125 
Q 17.53125 52.734375 16.796875 39.40625 
Q 19.671875 43.65625 24.015625 45.921875 
Q 28.375 48.1875 33.59375 48.1875 
Q 44.578125 48.1875 50.953125 41.515625 
Q 57.328125 34.859375 57.328125 23.390625 
Q 57.328125 12.15625 50.6875 5.359375 
Q 44.046875 -1.421875 33.015625 -1.421875 
Q 20.359375 -1.421875 13.671875 8.265625 
Q 6.984375 17.96875 6.984375 36.375 
Q 6.984375 53.65625 15.1875 63.9375 
Q 23.390625 74.21875 37.203125 74.21875 
Q 40.921875 74.21875 44.703125 73.484375 
Q 48.484375 72.75 52.59375 71.296875 
z
" id="DejaVuSans-54"/>
       </defs>
       <use xlink:href="#DejaVuSans-48"/>
       <use x="63.623047" xlink:href="#DejaVuSans-46"/>
       <use x="95.410156" xlink:href="#DejaVuSans-54"/>
      </g>
     </g>
    </g>
    <g id="ytick_5">
     <g id="line2d_11">
      <g>
       <use style="stroke:#000000;stroke-width:0.8;" x="72" xlink:href="#mb0508dc0c4" y="118.368"/>
      </g>
     </g>
     <g id="text_12">
      <!-- 0.8 -->
      <g transform="translate(49.096875 122.167219)scale(0.1 -0.1)">
       <defs>
        <path d="M 31.78125 34.625 
Q 24.75 34.625 20.71875 30.859375 
Q 16.703125 27.09375 16.703125 20.515625 
Q 16.703125 13.921875 20.71875 10.15625 
Q 24.75 6.390625 31.78125 6.390625 
Q 38.8125 6.390625 42.859375 10.171875 
Q 46.921875 13.96875 46.921875 20.515625 
Q 46.921875 27.09375 42.890625 30.859375 
Q 38.875 34.625 31.78125 34.625 
z
M 21.921875 38.8125 
Q 15.578125 40.375 12.03125 44.71875 
Q 8.5 49.078125 8.5 55.328125 
Q 8.5 64.0625 14.71875 69.140625 
Q 20.953125 74.21875 31.78125 74.21875 
Q 42.671875 74.21875 48.875 69.140625 
Q 55.078125 64.0625 55.078125 55.328125 
Q 55.078125 49.078125 51.53125 44.71875 
Q 48 40.375 41.703125 38.8125 
Q 48.828125 37.15625 52.796875 32.3125 
Q 56.78125 27.484375 56.78125 20.515625 
Q 56.78125 9.90625 50.3125 4.234375 
Q 43.84375 -1.421875 31.78125 -1.421875 
Q 19.734375 -1.421875 13.25 4.234375 
Q 6.78125 9.90625 6.78125 20.515625 
Q 6.78125 27.484375 10.78125 32.3125 
Q 14.796875 37.15625 21.921875 38.8125 
z
M 18.3125 54.390625 
Q 18.3125 48.734375 21.84375 45.5625 
Q 25.390625 42.390625 31.78125 42.390625 
Q 38.140625 42.390625 41.71875 45.5625 
Q 45.3125 48.734375 45.3125 54.390625 
Q 45.3125 60.0625 41.71875 63.234375 
Q 38.140625 66.40625 31.78125 66.40625 
Q 25.390625 66.40625 21.84375 63.234375 
Q 18.3125 60.0625 18.3125 54.390625 
z
" id="DejaVuSans-56"/>
       </defs>
       <use xlink:href="#DejaVuSans-48"/>
       <use x="63.623047" xlink:href="#DejaVuSans-46"/>
       <use x="95.410156" xlink:href="#DejaVuSans-56"/>
      </g>
     </g>
    </g>
    <g id="ytick_6">
     <g id="line2d_12">
      <g>
       <use style="stroke:#000000;stroke-width:0.8;" x="72" xlink:href="#mb0508dc0c4" y="51.84"/>
      </g>
     </g>
     <g id="text_13">
      <!-- 1.0 -->
      <g transform="translate(49.096875 55.639219)scale(0.1 -0.1)">
       <use xlink:href="#DejaVuSans-49"/>
       <use x="63.623047" xlink:href="#DejaVuSans-46"/>
       <use x="95.410156" xlink:href="#DejaVuSans-48"/>
      </g>
     </g>
    </g>
    <g id="text_14">
     <!-- rate -->
     <g transform="translate(43.017187 228.31625)rotate(-90)scale(0.1 -0.1)">
      <defs>
       <path d="M 41.109375 46.296875 
Q 39.59375 47.171875 37.8125 47.578125 
Q 36.03125 48 33.890625 48 
Q 26.265625 48 22.1875 43.046875 
Q 18.109375 38.09375 18.109375 28.8125 
L 18.109375 0 
L 9.078125 0 
L 9.078125 54.6875 
L 18.109375 54.6875 
L 18.109375 46.1875 
Q 20.953125 51.171875 25.484375 53.578125 
Q 30.03125 56 36.53125 56 
Q 37.453125 56 38.578125 55.875 
Q 39.703125 55.765625 41.0625 55.515625 
z
" id="DejaVuSans-114"/>
       <path d="M 34.28125 27.484375 
Q 23.390625 27.484375 19.1875 25 
Q 14.984375 22.515625 14.984375 16.5 
Q 14.984375 11.71875 18.140625 8.90625 
Q 21.296875 6.109375 26.703125 6.109375 
Q 34.1875 6.109375 38.703125 11.40625 
Q 43.21875 16.703125 43.21875 25.484375 
L 43.21875 27.484375 
z
M 52.203125 31.203125 
L 52.203125 0 
L 43.21875 0 
L 43.21875 8.296875 
Q 40.140625 3.328125 35.546875 0.953125 
Q 30.953125 -1.421875 24.3125 -1.421875 
Q 15.921875 -1.421875 10.953125 3.296875 
Q 6 8.015625 6 15.921875 
Q 6 25.140625 12.171875 29.828125 
Q 18.359375 34.515625 30.609375 34.515625 
L 43.21875 34.515625 
L 43.21875 35.40625 
Q 43.21875 41.609375 39.140625 45 
Q 35.0625 48.390625 27.6875 48.390625 
Q 23 48.390625 18.546875 47.265625 
Q 14.109375 46.140625 10.015625 43.890625 
L 10.015625 52.203125 
Q 14.9375 54.109375 19.578125 55.046875 
Q 24.21875 56 28.609375 56 
Q 40.484375 56 46.34375 49.84375 
Q 52.203125 43.703125 52.203125 31.203125 
z
" id="DejaVuSans-97"/>
       <path d="M 18.3125 70.21875 
L 18.3125 54.6875 
L 36.8125 54.6875 
L 36.8125 47.703125 
L 18.3125 47.703125 
L 18.3125 18.015625 
Q 18.3125 11.328125 20.140625 9.421875 
Q 21.96875 7.515625 27.59375 7.515625 
L 36.8125 7.515625 
L 36.8125 0 
L 27.59375 0 
Q 17.1875 0 13.234375 3.875 
Q 9.28125 7.765625 9.28125 18.015625 
L 9.28125 47.703125 
L 2.6875 47.703125 
L 2.6875 54.6875 
L 9.28125 54.6875 
L 9.28125 70.21875 
z
" id="DejaVuSans-116"/>
      </defs>
      <use xlink:href="#DejaVuSans-114"/>
      <use x="41.113281" xlink:href="#DejaVuSans-97"/>
      <use x="102.392578" xlink:href="#DejaVuSans-116"/>
      <use x="141.601562" xlink:href="#DejaVuSans-101"/>
     </g>
    </g>
   </g>
   <g id="line2d_13">
    <path clip-path="url(#p8c067b4fab)" d="M 92.290909 195.511206 
L 93.104172 182.234559 
L 93.917435 175.786073 
L 94.730698 172.611251 
L 95.543961 168.477544 
L 96.357224 166.356961 
L 97.170486 164.566553 
L 97.983749 161.599423 
L 98.797012 159.641559 
L 99.610275 159.09287 
L 100.423538 172.457393 
L 102.050064 162.428377 
L 102.863327 161.059499 
L 103.67659 156.219758 
L 104.489852 153.524527 
L 105.303115 151.760978 
L 106.116378 152.140449 
L 106.929641 150.037533 
L 107.742904 145.420832 
L 108.556167 160.143736 
L 109.36943 157.550893 
L 110.182693 154.170734 
L 110.995956 150.271777 
L 111.809218 148.761641 
L 112.622481 148.227057 
L 114.249007 143.786297 
L 115.06227 144.108267 
L 115.875533 142.847435 
L 116.688796 151.618425 
L 118.315322 143.858506 
L 119.128584 144.248781 
L 119.941847 141.67924 
L 120.75511 140.193696 
L 121.568373 138.053904 
L 122.381636 137.584125 
L 123.194899 135.210335 
L 124.008162 135.778186 
L 124.821425 148.424743 
L 125.634688 139.795304 
L 126.44795 138.832711 
L 127.261213 136.790635 
L 128.074476 136.104544 
L 128.887739 133.0326 
L 129.701002 133.809561 
L 130.514265 132.387329 
L 131.327528 130.221117 
L 132.140791 127.43884 
L 132.954054 147.125056 
L 133.767316 138.025219 
L 134.580579 136.167564 
L 135.393842 133.13918 
L 136.207105 133.236621 
L 137.833631 128.919192 
L 138.646894 126.899153 
L 139.460157 125.316361 
L 140.27342 125.124956 
L 141.086682 146.237661 
L 141.899945 136.042114 
L 142.713208 132.475222 
L 143.526471 130.863125 
L 144.339734 126.592597 
L 145.152997 124.963558 
L 145.96626 124.370017 
L 146.779523 125.212837 
L 147.592786 121.949402 
L 148.406048 119.672528 
L 149.219311 144.39468 
L 150.032574 135.027417 
L 150.845837 129.539155 
L 151.6591 126.664027 
L 152.472363 124.773932 
L 153.285626 121.394764 
L 154.098889 122.061831 
L 154.912152 118.784586 
L 155.725414 117.924214 
L 156.538677 114.598213 
L 157.35194 144.235596 
L 158.165203 132.988716 
L 159.791729 122.606923 
L 160.604992 121.81374 
L 161.418255 119.125166 
L 162.231518 116.846417 
L 163.04478 115.427953 
L 163.858043 114.519112 
L 164.671306 112.382751 
L 165.484569 143.884885 
L 166.297832 131.38703 
L 167.111095 124.700607 
L 167.924358 120.957137 
L 168.737621 117.963743 
L 169.550884 116.36664 
L 171.990672 109.774661 
L 172.803935 108.59207 
L 173.617198 143.916233 
L 174.430461 117.134234 
L 175.243724 112.26978 
L 176.056987 110.050267 
L 177.683512 104.480665 
L 178.496775 101.150538 
L 179.310038 100.970115 
L 180.936564 95.941558 
L 181.749827 129.750545 
L 182.56309 118.123901 
L 183.376353 111.908807 
L 184.189616 107.650431 
L 185.002878 105.902557 
L 185.816141 104.418472 
L 186.629404 100.307774 
L 187.442667 98.96953 
L 188.25593 96.937617 
L 189.069193 95.449994 
L 189.882456 126.854402 
L 190.695719 116.62892 
L 191.508982 109.63002 
L 192.322244 105.021839 
L 193.135507 103.014621 
L 193.94877 100.101295 
L 194.762033 98.662882 
L 196.388559 94.211223 
L 197.201822 93.566842 
L 198.015085 125.051131 
L 198.828348 114.473011 
L 199.64161 109.045884 
L 201.268136 100.876509 
L 202.081399 98.130199 
L 202.894662 97.548268 
L 203.707925 94.000545 
L 204.521188 94.147971 
L 205.334451 93.915054 
L 206.147714 123.590167 
L 206.960976 112.042633 
L 207.774239 107.597526 
L 208.587502 104.17959 
L 209.400765 99.611875 
L 210.214028 98.14954 
L 211.027291 95.719494 
L 211.840554 94.84501 
L 212.653817 90.671135 
L 213.46708 91.337059 
L 214.280343 123.250671 
L 215.093605 112.806025 
L 215.906868 105.641598 
L 216.720131 101.287777 
L 217.533394 99.557116 
L 218.346657 96.049473 
L 219.973183 92.006361 
L 220.786446 90.823046 
L 221.599709 89.984392 
L 222.412971 120.842643 
L 223.226234 110.111426 
L 224.039497 104.614938 
L 225.666023 95.746147 
L 226.479286 95.691886 
L 227.292549 92.462685 
L 228.105812 90.556715 
L 228.919075 90.793729 
L 229.732337 87.678376 
L 230.5456 119.205672 
L 232.172126 102.850638 
L 232.985389 99.500991 
L 235.425178 90.770655 
L 236.238441 90.967094 
L 237.864966 86.966208 
L 238.678229 117.04147 
L 239.491492 108.510678 
L 240.304755 102.193371 
L 241.118018 98.183336 
L 241.931281 94.779334 
L 243.557807 90.918355 
L 244.371069 88.042061 
L 245.184332 87.552234 
L 245.997595 86.43782 
L 246.810858 115.105339 
L 247.624121 104.714865 
L 248.437384 101.883534 
L 249.250647 97.099882 
L 250.06391 93.847136 
L 250.877173 91.744865 
L 252.503698 88.564648 
L 253.316961 86.173755 
L 254.130224 86.845887 
L 254.943487 114.282458 
L 255.75675 105.493046 
L 256.570013 98.341777 
L 257.383276 96.405186 
L 259.009801 91.657826 
L 259.823064 88.573501 
L 260.636327 87.854815 
L 261.44959 85.81253 
L 262.262853 85.066199 
L 263.076116 113.079403 
L 263.889379 103.080707 
L 264.702642 100.072329 
L 265.515905 93.935951 
L 266.329167 91.173229 
L 267.14243 90.426135 
L 267.955693 89.167769 
L 268.768956 86.528149 
L 269.582219 85.936238 
L 270.395482 84.705648 
L 271.208745 111.326138 
L 272.022008 101.113644 
L 272.835271 99.348294 
L 274.461796 90.68026 
L 275.275059 89.145943 
L 276.088322 88.482832 
L 276.901585 85.174904 
L 277.714848 85.427676 
L 278.528111 84.574833 
L 279.341374 108.988833 
L 280.967899 96.940509 
L 282.594425 90.301318 
L 283.407688 88.970656 
L 284.220951 87.365515 
L 285.034214 86.998395 
L 285.847477 85.410347 
L 286.66074 83.124898 
L 287.474003 107.888848 
L 288.287265 100.543242 
L 289.100528 98.416449 
L 289.913791 92.092403 
L 290.727054 90.119699 
L 292.35358 88.005012 
L 293.166843 87.065277 
L 293.980106 83.89511 
L 294.793369 82.791481 
L 295.606631 107.836926 
L 296.419894 98.663164 
L 298.04642 91.719053 
L 298.859683 90.650443 
L 299.672946 86.444123 
L 300.486209 86.659799 
L 301.299472 86.477654 
L 302.112735 84.214182 
L 302.925997 82.900838 
L 303.73926 105.302798 
L 304.552523 99.787756 
L 306.179049 93.306465 
L 306.992312 90.772964 
L 307.805575 87.473461 
L 309.432101 85.527393 
L 310.245363 84.750383 
L 311.058626 82.093788 
L 311.871889 105.83637 
L 312.685152 98.188297 
L 313.498415 93.712935 
L 314.311678 91.037344 
L 315.124941 89.473991 
L 315.938204 87.260043 
L 316.751467 87.817138 
L 318.377992 84.245614 
L 319.191255 82.716017 
L 320.004518 103.943096 
L 320.817781 97.091583 
L 321.631044 92.660159 
L 322.444307 90.123696 
L 324.884095 86.370952 
L 325.697358 85.927557 
L 326.510621 84.690062 
L 327.323884 82.235308 
L 328.137147 105.49746 
L 328.95041 96.108039 
L 329.763673 95.413626 
L 330.576936 90.598462 
L 331.390199 89.107033 
L 332.203461 87.358531 
L 333.016724 84.43393 
L 333.829987 83.627395 
L 334.64325 84.406432 
L 335.456513 82.622262 
L 336.269776 103.395583 
L 337.083039 96.306788 
L 338.709565 90.852266 
L 339.522827 89.218627 
L 340.33609 85.902491 
L 341.149353 84.709845 
L 341.962616 85.546696 
L 343.589142 82.326083 
L 344.402405 100.87447 
L 345.215668 96.183436 
L 346.028931 93.39948 
L 346.842193 91.436555 
L 347.655456 88.207072 
L 348.468719 88.232826 
L 349.281982 86.083223 
L 350.095245 84.806872 
L 351.721771 83.152406 
L 352.535034 102.218729 
L 353.348297 95.872405 
L 354.161559 92.420758 
L 354.974822 90.521454 
L 355.788085 87.527585 
L 356.601348 88.131467 
L 357.414611 86.873079 
L 358.227874 83.692658 
L 359.041137 83.629671 
L 359.8544 81.900154 
L 360.667663 101.043866 
L 361.480925 94.324818 
L 363.107451 91.12063 
L 363.920714 88.325988 
L 365.54724 86.197009 
L 366.360503 84.888198 
L 367.173766 84.587084 
L 367.987029 83.981188 
L 368.800291 99.800536 
L 369.613554 95.433019 
L 370.426817 91.91567 
L 371.24008 90.346378 
L 372.053343 89.439967 
L 372.866606 86.694647 
L 373.679869 86.982442 
L 374.493132 84.82462 
L 375.306395 84.632284 
L 376.119657 82.831423 
L 376.93292 98.887543 
L 377.746183 95.606476 
L 378.559446 92.854929 
L 379.372709 91.596997 
L 380.185972 87.266424 
L 380.999235 87.163806 
L 381.812498 84.755179 
L 382.625761 85.034658 
L 383.439024 84.100029 
L 384.252286 83.609395 
L 385.065549 98.737484 
L 385.878812 94.804831 
L 386.692075 92.861379 
L 387.505338 89.422797 
L 388.318601 90.197616 
L 389.131864 86.750803 
L 389.945127 86.146373 
L 390.75839 86.241454 
L 391.571652 84.40937 
L 392.384915 83.06613 
L 393.198178 98.542216 
L 394.011441 94.440132 
L 394.824704 91.624218 
L 395.637967 90.884087 
L 396.45123 88.479396 
L 397.264493 86.927044 
L 398.077756 86.647676 
L 398.891018 84.596511 
L 399.704281 85.229279 
L 400.517544 82.766033 
L 401.330807 97.458902 
L 402.14407 93.692157 
L 402.957333 91.99526 
L 403.770596 89.878947 
L 404.583859 89.452086 
L 405.397122 86.88219 
L 406.210384 86.666383 
L 407.023647 85.921224 
L 407.83691 84.314451 
L 408.650173 83.286156 
L 409.463436 97.701792 
L 410.276699 94.040617 
L 411.089962 92.168677 
L 411.903225 88.917149 
L 412.716488 88.402608 
L 413.52975 88.489361 
L 415.156276 85.711108 
L 415.969539 84.725978 
L 416.782802 84.265736 
L 417.596065 98.803297 
L 418.409328 92.062614 
L 419.222591 93.111084 
L 420.035854 90.600203 
L 420.849116 87.618585 
L 421.662379 88.046944 
L 422.475642 88.699815 
L 423.288905 85.314555 
L 424.102168 85.025757 
L 424.915431 86.28802 
L 425.728694 96.253717 
L 426.541957 92.344666 
L 427.35522 91.385643 
L 428.168482 91.237539 
L 428.981745 88.424701 
L 429.795008 87.696694 
L 430.608271 86.13393 
L 432.234797 85.663492 
L 433.04806 85.345432 
L 433.861323 96.779572 
L 434.674586 93.997042 
L 435.487848 92.446632 
L 436.301111 91.262313 
L 437.114374 89.773749 
L 437.927637 86.716035 
L 438.7409 87.058537 
L 439.554163 85.938598 
L 440.367426 86.59288 
L 441.180689 84.637466 
L 441.993952 97.168169 
L 442.807214 93.553331 
L 443.620477 90.907087 
L 445.247003 89.341338 
L 446.060266 89.452193 
L 446.873529 87.597871 
L 447.686792 87.688928 
L 449.313318 84.235164 
L 450.12658 95.851076 
L 450.939843 95.8237 
L 451.753106 91.001412 
L 452.566369 90.285805 
L 453.379632 88.134452 
L 454.192895 88.861251 
L 455.006158 87.533516 
L 455.819421 86.737424 
L 456.632684 85.775167 
L 457.445946 85.768952 
L 458.259209 96.73787 
L 459.885735 91.475469 
L 460.698998 91.17702 
L 461.512261 89.477388 
L 462.325524 88.491761 
L 463.138787 87.742615 
L 463.95205 86.300546 
L 464.765312 86.331389 
L 465.578575 85.951485 
L 466.391838 96.698397 
L 467.205101 93.194711 
L 468.018364 92.440733 
L 469.64489 89.985665 
L 470.458153 88.369305 
L 471.271416 88.067213 
L 472.084678 86.128321 
L 472.897941 87.406906 
L 473.711204 86.075397 
L 474.524467 96.605265 
L 476.150993 91.748659 
L 476.964256 92.196578 
L 477.777519 90.675802 
L 478.590782 88.892248 
L 479.404044 87.586889 
L 480.217307 87.996666 
L 481.03057 86.605623 
L 481.843833 86.048239 
L 482.657096 96.275452 
L 484.283622 91.850038 
L 485.096885 90.299477 
L 485.910148 89.789995 
L 486.72341 89.61378 
L 487.536673 88.271394 
L 488.349936 88.001461 
L 489.976462 86.634058 
L 490.789725 96.326258 
L 491.602988 93.718472 
L 493.229514 90.514798 
L 494.042776 90.397542 
L 494.856039 90.583183 
L 496.482565 87.854812 
L 497.295828 87.49053 
L 498.109091 87.347211 
L 498.109091 87.347211 
" style="fill:none;stroke:#0000ff;stroke-linecap:square;stroke-width:1.5;"/>
   </g>
   <g id="line2d_14">
    <path clip-path="url(#p8c067b4fab)" d="M 92.290909 338.983893 
L 93.104172 337.916558 
L 93.917435 334.767568 
L 94.730698 332.428844 
L 95.543961 329.092373 
L 97.170486 326.022927 
L 97.983749 323.877135 
L 98.797012 322.729802 
L 99.610275 321.988956 
L 100.423538 339.238588 
L 102.050064 332.851361 
L 102.863327 331.058614 
L 103.67659 327.225717 
L 105.303115 322.374151 
L 107.742904 315.031902 
L 108.556167 331.001657 
L 109.36943 326.710577 
L 110.182693 323.835732 
L 111.809218 319.541949 
L 112.622481 315.919119 
L 113.435744 313.627705 
L 114.249007 311.870078 
L 115.06227 308.300968 
L 115.875533 308.797057 
L 116.688796 314.665972 
L 117.502059 313.212601 
L 119.941847 306.715837 
L 120.75511 303.750146 
L 121.568373 302.240965 
L 122.381636 299.737025 
L 123.194899 298.019142 
L 124.008162 295.088494 
L 124.821425 303.254168 
L 126.44795 301.559474 
L 127.261213 297.244678 
L 128.074476 297.081874 
L 128.887739 294.729107 
L 129.701002 291.963845 
L 130.514265 288.595651 
L 131.327528 286.105927 
L 132.140791 282.641297 
L 132.954054 295.653277 
L 133.767316 294.077119 
L 134.580579 292.016492 
L 135.393842 290.56118 
L 136.207105 287.678346 
L 137.020368 285.414092 
L 137.833631 281.798647 
L 138.646894 280.273667 
L 139.460157 276.320002 
L 140.27342 275.040059 
L 141.086682 288.232478 
L 141.899945 287.561716 
L 142.713208 285.04046 
L 143.526471 283.177576 
L 144.339734 278.656676 
L 145.152997 276.45243 
L 145.96626 272.778245 
L 146.779523 270.739784 
L 147.592786 267.967014 
L 148.406048 264.6128 
L 149.219311 282.26981 
L 150.032574 281.281049 
L 151.6591 274.09638 
L 152.472363 271.225177 
L 153.285626 267.520228 
L 154.098889 265.919489 
L 154.912152 262.111903 
L 155.725414 260.060885 
L 156.538677 254.47025 
L 157.35194 278.515409 
L 158.978466 272.694908 
L 159.791729 266.646794 
L 160.604992 263.408535 
L 161.418255 259.643071 
L 162.231518 255.071062 
L 163.04478 252.609582 
L 163.858043 249.068996 
L 164.671306 244.816944 
L 165.484569 271.438561 
L 166.297832 268.820365 
L 167.111095 263.141472 
L 167.924358 258.806544 
L 168.737621 255.94382 
L 169.550884 250.969668 
L 171.990672 240.89864 
L 172.803935 235.837134 
L 173.617198 266.883213 
L 174.430461 257.513183 
L 175.243724 251.607321 
L 176.056987 247.702176 
L 176.87025 244.363811 
L 177.683512 238.569769 
L 178.496775 236.551129 
L 179.310038 233.262629 
L 180.123301 227.808879 
L 180.936564 225.448804 
L 181.749827 253.472607 
L 182.56309 251.267909 
L 183.376353 246.538285 
L 184.189616 241.031709 
L 185.002878 239.599214 
L 185.816141 234.396511 
L 186.629404 231.811437 
L 187.442667 226.748831 
L 188.25593 223.416643 
L 189.069193 220.977767 
L 189.882456 250.03023 
L 191.508982 239.683115 
L 192.322244 236.060684 
L 193.94877 227.934 
L 194.762033 224.449829 
L 195.575296 222.872885 
L 197.201822 214.028407 
L 198.015085 245.700635 
L 200.454873 230.897116 
L 201.268136 227.60679 
L 203.707925 215.382368 
L 204.521188 212.719109 
L 205.334451 209.315054 
L 206.147714 243.172297 
L 207.774239 230.260733 
L 208.587502 227.764709 
L 209.400765 222.024275 
L 210.214028 220.688476 
L 211.027291 215.245914 
L 211.840554 212.145303 
L 213.46708 205.303866 
L 214.280343 240.61192 
L 216.720131 222.101646 
L 217.533394 220.953974 
L 218.346657 213.896294 
L 219.15992 210.285143 
L 220.786446 204.157924 
L 221.599709 201.949608 
L 222.412971 237.252889 
L 223.226234 229.459956 
L 224.039497 225.152826 
L 224.85276 219.23552 
L 225.666023 215.707816 
L 226.479286 210.898465 
L 227.292549 207.344414 
L 228.105812 204.478994 
L 229.732337 196.767073 
L 230.5456 232.87812 
L 231.358863 228.437788 
L 232.172126 220.728911 
L 232.985389 214.501966 
L 233.798652 209.978196 
L 234.611915 206.474976 
L 237.051703 198.469568 
L 237.864966 195.294462 
L 238.678229 230.896448 
L 239.491492 224.187457 
L 240.304755 218.501387 
L 241.118018 211.498402 
L 241.931281 207.074235 
L 243.557807 200.540825 
L 244.371069 196.55763 
L 245.184332 194.398426 
L 245.997595 190.711061 
L 246.810858 227.829797 
L 247.624121 221.385837 
L 249.250647 211.089719 
L 250.06391 207.264483 
L 250.877173 201.606703 
L 251.690435 197.770078 
L 252.503698 195.768933 
L 253.316961 192.703633 
L 254.130224 191.100535 
L 254.943487 226.292093 
L 256.570013 211.996023 
L 257.383276 205.888188 
L 258.196539 203.976585 
L 259.009801 199.941119 
L 259.823064 195.122669 
L 260.636327 192.218981 
L 261.44959 190.36589 
L 262.262853 186.647096 
L 263.076116 223.335481 
L 263.889379 215.576628 
L 265.515905 203.960161 
L 267.14243 196.365155 
L 267.955693 194.74258 
L 268.768956 191.421395 
L 270.395482 185.975043 
L 271.208745 221.785494 
L 272.022008 211.860507 
L 272.835271 208.984175 
L 274.461796 197.166164 
L 275.275059 195.282706 
L 276.088322 192.905893 
L 276.901585 188.709523 
L 277.714848 185.947563 
L 278.528111 183.947324 
L 279.341374 219.659404 
L 280.154637 211.279884 
L 280.967899 207.008552 
L 282.594425 197.017262 
L 283.407688 195.488814 
L 284.220951 191.012413 
L 285.034214 188.971349 
L 285.847477 184.240529 
L 286.66074 180.873217 
L 287.474003 217.287214 
L 288.287265 209.521434 
L 289.100528 206.064058 
L 289.913791 199.003871 
L 290.727054 195.675044 
L 291.540317 192.990985 
L 292.35358 188.913831 
L 293.166843 188.303203 
L 293.980106 184.250654 
L 294.793369 181.226858 
L 295.606631 216.460029 
L 296.419894 206.973526 
L 297.233157 202.246003 
L 298.04642 196.430104 
L 298.859683 194.055605 
L 299.672946 188.101751 
L 300.486209 189.089935 
L 301.299472 185.159747 
L 302.112735 183.603739 
L 302.925997 181.160781 
L 303.73926 213.437031 
L 304.552523 207.905384 
L 306.992312 194.164407 
L 307.805575 190.093538 
L 309.432101 186.441579 
L 311.058626 179.419931 
L 311.871889 212.861766 
L 313.498415 197.766768 
L 315.124941 190.97105 
L 315.938204 189.257684 
L 316.751467 187.22572 
L 317.564729 183.09291 
L 318.377992 182.38357 
L 319.191255 180.150281 
L 320.004518 210.127155 
L 320.817781 202.495997 
L 321.631044 197.714869 
L 322.444307 193.767481 
L 323.25757 189.197308 
L 324.884095 185.214773 
L 325.697358 184.350974 
L 326.510621 182.537315 
L 327.323884 177.989362 
L 328.137147 211.948373 
L 328.95041 202.29795 
L 329.763673 198.226034 
L 330.576936 191.753465 
L 333.016724 185.111418 
L 333.829987 180.8772 
L 334.64325 180.895548 
L 335.456513 178.662276 
L 336.269776 209.212976 
L 337.896302 196.251367 
L 338.709565 192.150268 
L 339.522827 190.007435 
L 340.33609 185.363784 
L 341.962616 182.037012 
L 342.775879 181.37029 
L 343.589142 177.031129 
L 344.402405 206.307892 
L 346.028931 195.206807 
L 346.842193 192.919327 
L 347.655456 189.057947 
L 348.468719 187.488739 
L 349.281982 183.882694 
L 350.095245 182.763517 
L 350.908508 181.196826 
L 351.721771 179.210162 
L 352.535034 208.474763 
L 353.348297 200.848573 
L 354.161559 195.432519 
L 355.788085 188.612965 
L 356.601348 186.734472 
L 357.414611 182.227436 
L 358.227874 180.803298 
L 359.041137 180.555928 
L 359.8544 176.616647 
L 360.667663 206.67138 
L 361.480925 198.722432 
L 362.294188 193.754759 
L 363.107451 191.794216 
L 363.920714 187.513224 
L 364.733977 185.31208 
L 365.54724 184.252884 
L 366.360503 180.532249 
L 367.173766 180.842129 
L 367.987029 177.609716 
L 368.800291 204.369772 
L 369.613554 199.896316 
L 370.426817 193.915265 
L 371.24008 191.195906 
L 372.053343 189.012219 
L 372.866606 185.780891 
L 373.679869 186.247098 
L 374.493132 182.565872 
L 375.306395 180.295166 
L 376.119657 178.459887 
L 376.93292 204.762539 
L 377.746183 199.086036 
L 378.559446 195.839506 
L 380.185972 186.614481 
L 380.999235 185.802621 
L 381.812498 183.318133 
L 382.625761 183.672632 
L 383.439024 179.561337 
L 384.252286 179.615446 
L 385.065549 204.976035 
L 385.878812 198.91855 
L 386.692075 194.481796 
L 387.505338 190.69726 
L 388.318601 189.43523 
L 389.131864 184.851577 
L 389.945127 184.889225 
L 390.75839 183.272812 
L 391.571652 180.506406 
L 392.384915 177.270593 
L 393.198178 202.648481 
L 394.011441 197.016488 
L 394.824704 192.565461 
L 395.637967 191.296224 
L 396.45123 188.948692 
L 397.264493 185.260626 
L 398.077756 185.253938 
L 398.891018 182.309758 
L 399.704281 181.213939 
L 400.517544 178.694949 
L 401.330807 202.951085 
L 402.14407 197.105931 
L 402.957333 193.101045 
L 403.770596 191.051762 
L 405.397122 184.306543 
L 406.210384 185.069598 
L 407.023647 179.939307 
L 407.83691 179.593002 
L 408.650173 179.072857 
L 409.463436 202.019567 
L 410.276699 196.897581 
L 411.089962 193.446427 
L 411.903225 191.017772 
L 412.716488 187.187302 
L 413.52975 186.633225 
L 414.343013 183.363481 
L 415.156276 183.798255 
L 415.969539 182.244494 
L 416.782802 179.335713 
L 417.596065 203.767788 
L 418.409328 195.690157 
L 419.222591 195.645442 
L 420.849116 185.930237 
L 421.662379 186.317417 
L 423.288905 182.740026 
L 424.102168 180.507921 
L 424.915431 181.325088 
L 425.728694 203.394441 
L 426.541957 194.950488 
L 427.35522 192.221816 
L 428.168482 191.216229 
L 428.981745 188.629756 
L 429.795008 186.896809 
L 430.608271 184.161243 
L 431.421534 185.394278 
L 432.234797 183.712433 
L 433.04806 182.568931 
L 433.861323 201.513444 
L 434.674586 198.213452 
L 435.487848 193.934881 
L 436.301111 192.410634 
L 437.114374 188.784377 
L 437.927637 184.164264 
L 438.7409 185.627276 
L 439.554163 184.166001 
L 440.367426 184.048502 
L 441.180689 181.540733 
L 441.993952 201.974134 
L 442.807214 196.153571 
L 444.43374 189.761962 
L 445.247003 188.677719 
L 446.060266 188.699607 
L 446.873529 187.016741 
L 447.686792 185.929573 
L 448.500055 181.855922 
L 449.313318 181.231433 
L 450.12658 201.170469 
L 450.939843 197.053278 
L 451.753106 191.872703 
L 452.566369 191.096938 
L 453.379632 187.695231 
L 454.192895 187.559598 
L 455.006158 184.870957 
L 455.819421 185.295866 
L 456.632684 184.314518 
L 457.445946 182.418525 
L 458.259209 199.759447 
L 459.072472 194.734554 
L 459.885735 193.621139 
L 460.698998 190.93072 
L 461.512261 190.255065 
L 463.138787 185.370598 
L 463.95205 185.791822 
L 464.765312 185.826074 
L 465.578575 183.757566 
L 466.391838 200.08787 
L 467.205101 196.743711 
L 468.018364 194.642825 
L 468.831627 193.187813 
L 469.64489 190.400417 
L 470.458153 188.845745 
L 471.271416 186.304066 
L 472.084678 184.320287 
L 472.897941 183.87222 
L 473.711204 184.074671 
L 474.524467 200.368109 
L 475.33773 195.333742 
L 476.150993 194.170521 
L 476.964256 192.43359 
L 477.777519 190.290389 
L 478.590782 189.197741 
L 479.404044 186.376332 
L 480.217307 185.385053 
L 481.03057 183.953987 
L 481.843833 183.204533 
L 482.657096 199.524591 
L 483.470359 195.21992 
L 484.283622 194.258856 
L 485.096885 190.96452 
L 485.910148 191.014699 
L 486.72341 189.42578 
L 487.536673 187.335414 
L 489.163199 185.366891 
L 489.976462 184.113867 
L 490.789725 200.411238 
L 491.602988 195.342504 
L 492.416251 193.236037 
L 493.229514 191.473608 
L 494.042776 191.214533 
L 494.856039 189.810261 
L 496.482565 186.237447 
L 497.295828 185.554071 
L 498.109091 185.820594 
L 498.109091 185.820594 
" style="fill:none;stroke:#008000;stroke-linecap:square;stroke-width:1.5;"/>
   </g>
   <g id="patch_3">
    <path d="M 72 384.48 
L 72 51.84 
" style="fill:none;stroke:#000000;stroke-linecap:square;stroke-linejoin:miter;stroke-width:0.8;"/>
   </g>
   <g id="patch_4">
    <path d="M 518.4 384.48 
L 518.4 51.84 
" style="fill:none;stroke:#000000;stroke-linecap:square;stroke-linejoin:miter;stroke-width:0.8;"/>
   </g>
   <g id="patch_5">
    <path d="M 72 384.48 
L 518.4 384.48 
" style="fill:none;stroke:#000000;stroke-linecap:square;stroke-linejoin:miter;stroke-width:0.8;"/>
   </g>
   <g id="patch_6">
    <path d="M 72 51.84 
L 518.4 51.84 
" style="fill:none;stroke:#000000;stroke-linecap:square;stroke-linejoin:miter;stroke-width:0.8;"/>
   </g>
   <g id="legend_1">
    <g id="patch_7">
     <path d="M 79 89.19625 
L 156.107812 89.19625 
Q 158.107812 89.19625 158.107812 87.19625 
L 158.107812 58.84 
Q 158.107812 56.84 156.107812 56.84 
L 79 56.84 
Q 77 56.84 77 58.84 
L 77 87.19625 
Q 77 89.19625 79 89.19625 
z
" style="fill:#ffffff;opacity:0.8;stroke:#cccccc;stroke-linejoin:miter;"/>
    </g>
    <g id="line2d_15">
     <path d="M 81 64.938437 
L 101 64.938437 
" style="fill:none;stroke:#0000ff;stroke-linecap:square;stroke-width:1.5;"/>
    </g>
    <g id="line2d_16"/>
    <g id="text_15">
     <!-- precision -->
     <g transform="translate(109 68.438437)scale(0.1 -0.1)">
      <defs>
       <path d="M 9.421875 54.6875 
L 18.40625 54.6875 
L 18.40625 0 
L 9.421875 0 
z
M 9.421875 75.984375 
L 18.40625 75.984375 
L 18.40625 64.59375 
L 9.421875 64.59375 
z
" id="DejaVuSans-105"/>
       <path d="M 44.28125 53.078125 
L 44.28125 44.578125 
Q 40.484375 46.53125 36.375 47.5 
Q 32.28125 48.484375 27.875 48.484375 
Q 21.1875 48.484375 17.84375 46.4375 
Q 14.5 44.390625 14.5 40.28125 
Q 14.5 37.15625 16.890625 35.375 
Q 19.28125 33.59375 26.515625 31.984375 
L 29.59375 31.296875 
Q 39.15625 29.25 43.1875 25.515625 
Q 47.21875 21.78125 47.21875 15.09375 
Q 47.21875 7.46875 41.1875 3.015625 
Q 35.15625 -1.421875 24.609375 -1.421875 
Q 20.21875 -1.421875 15.453125 -0.5625 
Q 10.6875 0.296875 5.421875 2 
L 5.421875 11.28125 
Q 10.40625 8.6875 15.234375 7.390625 
Q 20.0625 6.109375 24.8125 6.109375 
Q 31.15625 6.109375 34.5625 8.28125 
Q 37.984375 10.453125 37.984375 14.40625 
Q 37.984375 18.0625 35.515625 20.015625 
Q 33.0625 21.96875 24.703125 23.78125 
L 21.578125 24.515625 
Q 13.234375 26.265625 9.515625 29.90625 
Q 5.8125 33.546875 5.8125 39.890625 
Q 5.8125 47.609375 11.28125 51.796875 
Q 16.75 56 26.8125 56 
Q 31.78125 56 36.171875 55.265625 
Q 40.578125 54.546875 44.28125 53.078125 
z
" id="DejaVuSans-115"/>
       <path d="M 54.890625 33.015625 
L 54.890625 0 
L 45.90625 0 
L 45.90625 32.71875 
Q 45.90625 40.484375 42.875 44.328125 
Q 39.84375 48.1875 33.796875 48.1875 
Q 26.515625 48.1875 22.3125 43.546875 
Q 18.109375 38.921875 18.109375 30.90625 
L 18.109375 0 
L 9.078125 0 
L 9.078125 54.6875 
L 18.109375 54.6875 
L 18.109375 46.1875 
Q 21.34375 51.125 25.703125 53.5625 
Q 30.078125 56 35.796875 56 
Q 45.21875 56 50.046875 50.171875 
Q 54.890625 44.34375 54.890625 33.015625 
z
" id="DejaVuSans-110"/>
      </defs>
      <use xlink:href="#DejaVuSans-112"/>
      <use x="63.476562" xlink:href="#DejaVuSans-114"/>
      <use x="102.339844" xlink:href="#DejaVuSans-101"/>
      <use x="163.863281" xlink:href="#DejaVuSans-99"/>
      <use x="218.84375" xlink:href="#DejaVuSans-105"/>
      <use x="246.626953" xlink:href="#DejaVuSans-115"/>
      <use x="298.726562" xlink:href="#DejaVuSans-105"/>
      <use x="326.509766" xlink:href="#DejaVuSans-111"/>
      <use x="387.691406" xlink:href="#DejaVuSans-110"/>
     </g>
    </g>
    <g id="line2d_17">
     <path d="M 81 79.616562 
L 101 79.616562 
" style="fill:none;stroke:#008000;stroke-linecap:square;stroke-width:1.5;"/>
    </g>
    <g id="line2d_18"/>
    <g id="text_16">
     <!-- recall -->
     <g transform="translate(109 83.116562)scale(0.1 -0.1)">
      <defs>
       <path d="M 9.421875 75.984375 
L 18.40625 75.984375 
L 18.40625 0 
L 9.421875 0 
z
" id="DejaVuSans-108"/>
      </defs>
      <use xlink:href="#DejaVuSans-114"/>
      <use x="38.863281" xlink:href="#DejaVuSans-101"/>
      <use x="100.386719" xlink:href="#DejaVuSans-99"/>
      <use x="155.367188" xlink:href="#DejaVuSans-97"/>
      <use x="216.646484" xlink:href="#DejaVuSans-108"/>
      <use x="244.429688" xlink:href="#DejaVuSans-108"/>
     </g>
    </g>
   </g>
  </g>
  <g id="axes_2">
   <g id="matplotlib.axis_3">
    <g id="ytick_7">
     <g id="line2d_19">
      <defs>
       <path d="M 0 0 
L 3.5 0 
" id="md14163a483" style="stroke:#000000;stroke-width:0.8;"/>
      </defs>
      <g>
       <use style="stroke:#000000;stroke-width:0.8;" x="518.4" xlink:href="#md14163a483" y="345.519938"/>
      </g>
     </g>
     <g id="text_17">
      <!-- 0.12 -->
      <g transform="translate(525.4 349.319157)scale(0.1 -0.1)">
       <use xlink:href="#DejaVuSans-48"/>
       <use x="63.623047" xlink:href="#DejaVuSans-46"/>
       <use x="95.410156" xlink:href="#DejaVuSans-49"/>
       <use x="159.033203" xlink:href="#DejaVuSans-50"/>
      </g>
     </g>
    </g>
    <g id="ytick_8">
     <g id="line2d_20">
      <g>
       <use style="stroke:#000000;stroke-width:0.8;" x="518.4" xlink:href="#md14163a483" y="306.147927"/>
      </g>
     </g>
     <g id="text_18">
      <!-- 0.14 -->
      <g transform="translate(525.4 309.947146)scale(0.1 -0.1)">
       <use xlink:href="#DejaVuSans-48"/>
       <use x="63.623047" xlink:href="#DejaVuSans-46"/>
       <use x="95.410156" xlink:href="#DejaVuSans-49"/>
       <use x="159.033203" xlink:href="#DejaVuSans-52"/>
      </g>
     </g>
    </g>
    <g id="ytick_9">
     <g id="line2d_21">
      <g>
       <use style="stroke:#000000;stroke-width:0.8;" x="518.4" xlink:href="#md14163a483" y="266.775916"/>
      </g>
     </g>
     <g id="text_19">
      <!-- 0.16 -->
      <g transform="translate(525.4 270.575134)scale(0.1 -0.1)">
       <use xlink:href="#DejaVuSans-48"/>
       <use x="63.623047" xlink:href="#DejaVuSans-46"/>
       <use x="95.410156" xlink:href="#DejaVuSans-49"/>
       <use x="159.033203" xlink:href="#DejaVuSans-54"/>
      </g>
     </g>
    </g>
    <g id="ytick_10">
     <g id="line2d_22">
      <g>
       <use style="stroke:#000000;stroke-width:0.8;" x="518.4" xlink:href="#md14163a483" y="227.403904"/>
      </g>
     </g>
     <g id="text_20">
      <!-- 0.18 -->
      <g transform="translate(525.4 231.203123)scale(0.1 -0.1)">
       <use xlink:href="#DejaVuSans-48"/>
       <use x="63.623047" xlink:href="#DejaVuSans-46"/>
       <use x="95.410156" xlink:href="#DejaVuSans-49"/>
       <use x="159.033203" xlink:href="#DejaVuSans-56"/>
      </g>
     </g>
    </g>
    <g id="ytick_11">
     <g id="line2d_23">
      <g>
       <use style="stroke:#000000;stroke-width:0.8;" x="518.4" xlink:href="#md14163a483" y="188.031893"/>
      </g>
     </g>
     <g id="text_21">
      <!-- 0.20 -->
      <g transform="translate(525.4 191.831112)scale(0.1 -0.1)">
       <use xlink:href="#DejaVuSans-48"/>
       <use x="63.623047" xlink:href="#DejaVuSans-46"/>
       <use x="95.410156" xlink:href="#DejaVuSans-50"/>
       <use x="159.033203" xlink:href="#DejaVuSans-48"/>
      </g>
     </g>
    </g>
    <g id="ytick_12">
     <g id="line2d_24">
      <g>
       <use style="stroke:#000000;stroke-width:0.8;" x="518.4" xlink:href="#md14163a483" y="148.659882"/>
      </g>
     </g>
     <g id="text_22">
      <!-- 0.22 -->
      <g transform="translate(525.4 152.459101)scale(0.1 -0.1)">
       <use xlink:href="#DejaVuSans-48"/>
       <use x="63.623047" xlink:href="#DejaVuSans-46"/>
       <use x="95.410156" xlink:href="#DejaVuSans-50"/>
       <use x="159.033203" xlink:href="#DejaVuSans-50"/>
      </g>
     </g>
    </g>
    <g id="ytick_13">
     <g id="line2d_25">
      <g>
       <use style="stroke:#000000;stroke-width:0.8;" x="518.4" xlink:href="#md14163a483" y="109.287871"/>
      </g>
     </g>
     <g id="text_23">
      <!-- 0.24 -->
      <g transform="translate(525.4 113.087089)scale(0.1 -0.1)">
       <use xlink:href="#DejaVuSans-48"/>
       <use x="63.623047" xlink:href="#DejaVuSans-46"/>
       <use x="95.410156" xlink:href="#DejaVuSans-50"/>
       <use x="159.033203" xlink:href="#DejaVuSans-52"/>
      </g>
     </g>
    </g>
    <g id="ytick_14">
     <g id="line2d_26">
      <g>
       <use style="stroke:#000000;stroke-width:0.8;" x="518.4" xlink:href="#md14163a483" y="69.915859"/>
      </g>
     </g>
     <g id="text_24">
      <!-- 0.26 -->
      <g transform="translate(525.4 73.715078)scale(0.1 -0.1)">
       <use xlink:href="#DejaVuSans-48"/>
       <use x="63.623047" xlink:href="#DejaVuSans-46"/>
       <use x="95.410156" xlink:href="#DejaVuSans-50"/>
       <use x="159.033203" xlink:href="#DejaVuSans-54"/>
      </g>
     </g>
    </g>
    <g id="text_25">
     <!-- loss -->
     <g transform="translate(559.264063 227.817812)rotate(-90)scale(0.1 -0.1)">
      <use xlink:href="#DejaVuSans-108"/>
      <use x="27.783203" xlink:href="#DejaVuSans-111"/>
      <use x="88.964844" xlink:href="#DejaVuSans-115"/>
      <use x="141.064453" xlink:href="#DejaVuSans-115"/>
     </g>
    </g>
   </g>
   <g id="line2d_27">
    <path clip-path="url(#p8c067b4fab)" d="M 92.290909 66.96 
L 93.104172 118.863845 
L 93.917435 127.3161 
L 94.730698 133.630706 
L 95.543961 138.621257 
L 98.797012 152.408983 
L 99.610275 153.722541 
L 100.423538 212.306873 
L 101.236801 225.002312 
L 102.050064 231.987508 
L 103.67659 241.502473 
L 105.303115 248.066456 
L 106.116378 250.629123 
L 106.929641 253.803669 
L 107.742904 255.976523 
L 108.556167 236.540627 
L 109.36943 242.526624 
L 110.995956 251.079856 
L 111.809218 253.57894 
L 112.622481 257.073004 
L 113.435744 259.13488 
L 114.249007 262.220043 
L 115.06227 264.242355 
L 115.875533 265.868789 
L 116.688796 255.705588 
L 117.502059 260.178314 
L 118.315322 261.976496 
L 119.128584 265.09816 
L 121.568373 272.345095 
L 122.381636 273.704575 
L 124.008162 278.382876 
L 124.821425 265.335675 
L 125.634688 269.722015 
L 127.261213 275.344821 
L 128.074476 276.971761 
L 129.701002 281.690744 
L 130.514265 285.064799 
L 131.327528 286.870918 
L 132.140791 289.247256 
L 132.954054 271.807809 
L 133.767316 277.583214 
L 134.580579 280.759261 
L 135.393842 283.21825 
L 136.207105 286.037826 
L 137.020368 287.798153 
L 137.833631 291.179027 
L 138.646894 292.457363 
L 140.27342 297.365677 
L 141.086682 277.596431 
L 141.899945 283.711462 
L 142.713208 287.753276 
L 143.526471 290.234475 
L 144.339734 293.903229 
L 145.152997 296.583259 
L 146.779523 300.450184 
L 148.406048 305.357779 
L 149.219311 282.366125 
L 150.032574 289.088273 
L 150.845837 294.291227 
L 153.285626 303.279699 
L 154.912152 307.687061 
L 155.725414 308.994546 
L 156.538677 312.683355 
L 157.35194 286.210205 
L 158.165203 294.697984 
L 158.978466 299.612109 
L 160.604992 307.088423 
L 162.231518 313.456213 
L 163.04478 315.900256 
L 163.858043 317.331517 
L 164.671306 319.933041 
L 165.484569 291.454496 
L 166.297832 300.057936 
L 167.111095 306.206309 
L 167.924358 310.275031 
L 170.364146 319.634637 
L 171.177409 321.40281 
L 171.990672 323.98187 
L 172.803935 327.664549 
L 173.617198 295.257733 
L 174.430461 313.204314 
L 175.243724 319.167356 
L 176.056987 321.2717 
L 177.683512 328.47249 
L 178.496775 330.591044 
L 179.310038 332.260018 
L 180.123301 336.190475 
L 180.936564 337.53461 
L 181.749827 309.624267 
L 182.56309 316.295142 
L 184.189616 326.27439 
L 185.002878 328.410244 
L 187.442667 337.39662 
L 188.25593 338.746981 
L 189.069193 340.937375 
L 189.882456 313.865016 
L 190.695719 320.884948 
L 191.508982 326.014565 
L 192.322244 329.794971 
L 193.94877 336.013809 
L 194.762033 338.465599 
L 195.575296 339.302461 
L 196.388559 342.455915 
L 197.201822 344.568123 
L 198.015085 317.073341 
L 198.828348 324.167079 
L 200.454873 333.117646 
L 203.707925 344.303681 
L 204.521188 346.199721 
L 205.334451 347.517271 
L 206.147714 318.630086 
L 206.960976 327.288518 
L 207.774239 332.999131 
L 208.587502 335.466132 
L 209.400765 339.611207 
L 210.214028 340.791359 
L 211.027291 344.416492 
L 211.840554 346.577037 
L 212.653817 348.087032 
L 213.46708 350.356346 
L 214.280343 321.393596 
L 215.093605 329.919628 
L 215.906868 335.375829 
L 216.720131 338.879825 
L 217.533394 340.493674 
L 218.346657 344.895865 
L 219.15992 346.789458 
L 219.973183 349.206409 
L 221.599709 353.087718 
L 222.412971 323.825377 
L 223.226234 332.474315 
L 224.039497 337.740695 
L 224.85276 341.643166 
L 225.666023 343.753472 
L 226.479286 347.291259 
L 227.292549 349.660516 
L 228.919075 353.199022 
L 229.732337 356.061931 
L 230.5456 328.164475 
L 231.358863 332.975602 
L 232.172126 340.082791 
L 233.798652 347.574794 
L 234.611915 349.504106 
L 235.425178 352.084772 
L 236.238441 353.736648 
L 237.051703 355.011142 
L 237.864966 357.181127 
L 238.678229 329.976733 
L 239.491492 336.972888 
L 240.304755 342.149197 
L 241.118018 346.515042 
L 243.557807 354.231032 
L 244.371069 356.227605 
L 245.184332 357.307139 
L 245.997595 359.614008 
L 246.810858 332.200052 
L 247.624121 339.347659 
L 249.250647 347.42354 
L 250.877173 353.389575 
L 251.690435 355.638397 
L 252.503698 356.424764 
L 253.316961 359.550649 
L 254.130224 359.814553 
L 254.943487 333.045879 
L 255.75675 340.538916 
L 256.570013 346.565595 
L 257.383276 349.520327 
L 259.823064 357.139125 
L 260.636327 358.411663 
L 261.44959 360.254375 
L 262.262853 362.478786 
L 263.076116 336.32655 
L 263.889379 342.818058 
L 265.515905 351.362549 
L 266.329167 353.835871 
L 267.14243 356.915332 
L 267.955693 357.559547 
L 268.768956 360.432629 
L 269.582219 361.147174 
L 270.395482 363.077138 
L 271.208745 337.802628 
L 272.022008 345.98379 
L 272.835271 348.007494 
L 273.648533 352.866209 
L 274.461796 355.842555 
L 275.275059 357.775068 
L 276.088322 358.781445 
L 276.901585 361.834545 
L 277.714848 363.361608 
L 278.528111 363.738452 
L 279.341374 339.771042 
L 280.154637 345.732854 
L 280.967899 349.949219 
L 281.781162 353.361819 
L 282.594425 356.180845 
L 283.407688 358.016196 
L 284.220951 360.746494 
L 285.034214 361.477604 
L 286.66074 366.255827 
L 287.474003 340.969421 
L 288.287265 348.011966 
L 289.100528 350.755869 
L 290.727054 358.206162 
L 291.540317 358.692318 
L 292.35358 361.169927 
L 293.166843 362.282512 
L 293.980106 364.505626 
L 294.793369 366.139242 
L 295.606631 341.708421 
L 296.419894 349.530749 
L 298.04642 356.665533 
L 298.859683 358.370552 
L 299.672946 361.627608 
L 300.486209 361.673899 
L 301.299472 363.8452 
L 302.112735 364.654212 
L 302.925997 367.058418 
L 303.73926 344.292252 
L 304.552523 348.99145 
L 305.365786 352.128748 
L 306.179049 354.768093 
L 306.992312 358.400162 
L 307.805575 361.274705 
L 308.618838 362.180189 
L 309.432101 363.494119 
L 311.058626 367.71593 
L 311.871889 345.117078 
L 312.685152 351.247836 
L 313.498415 355.613403 
L 315.124941 360.191842 
L 317.564729 365.036165 
L 318.377992 365.842325 
L 319.191255 367.352945 
L 320.004518 346.577498 
L 320.817781 352.310796 
L 321.631044 356.335388 
L 322.444307 359.070004 
L 324.070833 363.063269 
L 324.884095 363.482515 
L 325.697358 364.234704 
L 326.510621 365.860912 
L 327.323884 368.581038 
L 328.137147 346.85931 
L 328.95041 353.479999 
L 329.763673 355.597557 
L 330.576936 358.986958 
L 331.390199 361.119309 
L 332.203461 362.140204 
L 333.829987 366.681167 
L 334.64325 366.054747 
L 335.456513 368.699723 
L 336.269776 348.500038 
L 337.083039 353.487893 
L 337.896302 357.035288 
L 338.709565 359.36002 
L 339.522827 360.814617 
L 340.33609 363.690611 
L 341.149353 365.384294 
L 341.962616 365.908802 
L 342.775879 366.793065 
L 343.589142 368.858414 
L 344.402405 350.034496 
L 345.215668 354.377939 
L 346.028931 357.622661 
L 346.842193 359.164563 
L 347.655456 362.276434 
L 348.468719 363.240379 
L 349.281982 364.879036 
L 351.721771 368.343093 
L 352.535034 349.65466 
L 353.348297 354.536205 
L 354.161559 358.723687 
L 354.974822 359.82271 
L 355.788085 362.845442 
L 356.601348 362.979963 
L 357.414611 365.800765 
L 358.227874 366.870591 
L 359.041137 367.197923 
L 359.8544 369.36 
L 360.667663 350.562146 
L 361.480925 355.617985 
L 362.294188 359.226366 
L 363.107451 360.471966 
L 363.920714 362.911106 
L 364.733977 364.350265 
L 365.54724 364.898371 
L 366.360503 366.757562 
L 367.173766 367.122612 
L 367.987029 368.259769 
L 368.800291 351.969304 
L 370.426817 359.010168 
L 372.053343 361.976247 
L 372.866606 364.133918 
L 373.679869 364.294971 
L 374.493132 366.106633 
L 375.306395 367.547358 
L 376.119657 368.056691 
L 376.93292 351.29439 
L 377.746183 355.489722 
L 378.559446 357.624452 
L 379.372709 360.815648 
L 380.185972 362.926127 
L 380.999235 363.391748 
L 381.812498 365.181613 
L 382.625761 365.436072 
L 383.439024 367.454775 
L 384.252286 367.79224 
L 385.065549 352.317883 
L 385.878812 355.890011 
L 387.505338 361.533688 
L 388.318601 362.157771 
L 389.131864 364.97133 
L 389.945127 364.774093 
L 390.75839 366.27745 
L 391.571652 367.458853 
L 392.384915 368.993435 
L 393.198178 353.247858 
L 394.011441 357.03337 
L 394.824704 359.804808 
L 395.637967 360.674055 
L 396.45123 362.887308 
L 397.264493 364.194345 
L 398.077756 364.638822 
L 398.891018 366.597839 
L 399.704281 366.647166 
L 400.517544 367.841776 
L 401.330807 353.000048 
L 402.14407 357.258392 
L 403.770596 360.956944 
L 404.583859 362.816944 
L 405.397122 364.295037 
L 406.210384 364.33212 
L 407.023647 366.841957 
L 407.83691 367.509608 
L 408.650173 368.791963 
L 409.463436 353.902949 
L 410.276699 357.302835 
L 411.089962 358.762881 
L 411.903225 361.500505 
L 412.716488 362.934067 
L 413.52975 363.347348 
L 414.343013 365.561795 
L 415.156276 365.150815 
L 416.782802 368.141754 
L 417.596065 353.137823 
L 418.409328 357.58805 
L 419.222591 358.794512 
L 420.035854 360.985405 
L 420.849116 364.01304 
L 421.662379 363.92324 
L 422.475642 364.857416 
L 423.288905 366.48415 
L 424.102168 367.117768 
L 424.915431 367.32525 
L 425.728694 353.933399 
L 426.541957 358.613983 
L 427.35522 360.268894 
L 428.168482 360.93751 
L 428.981745 362.999661 
L 430.608271 365.09826 
L 431.421534 364.544599 
L 432.234797 365.772099 
L 433.04806 367.294507 
L 433.861323 354.181123 
L 435.487848 359.053354 
L 437.114374 362.555544 
L 437.927637 364.812695 
L 438.7409 364.760433 
L 439.554163 365.857946 
L 440.367426 365.43183 
L 441.180689 366.811196 
L 441.993952 354.648319 
L 443.620477 360.17355 
L 444.43374 361.29677 
L 445.247003 362.919469 
L 446.873529 364.019989 
L 447.686792 363.780157 
L 448.500055 366.685988 
L 449.313318 366.961978 
L 450.12658 355.521318 
L 450.939843 357.484424 
L 451.753106 359.863467 
L 452.566369 361.006168 
L 453.379632 362.733059 
L 454.192895 363.359258 
L 455.006158 365.041057 
L 455.819421 364.667724 
L 456.632684 365.277048 
L 457.445946 366.589033 
L 458.259209 355.572999 
L 459.072472 358.566177 
L 460.698998 361.5184 
L 461.512261 362.075529 
L 462.325524 363.607536 
L 463.138787 364.804382 
L 463.95205 364.227246 
L 464.765312 365.136443 
L 465.578575 365.420491 
L 466.391838 355.890597 
L 467.205101 357.550785 
L 468.018364 359.529278 
L 468.831627 360.647343 
L 469.64489 361.188893 
L 470.458153 362.805373 
L 471.271416 363.443419 
L 472.084678 365.226925 
L 472.897941 364.789693 
L 473.711204 366.341955 
L 474.524467 355.886452 
L 475.33773 358.451623 
L 476.150993 359.778671 
L 476.964256 360.505981 
L 477.777519 361.677432 
L 478.590782 362.27104 
L 479.404044 364.315956 
L 480.217307 364.7255 
L 481.03057 365.592782 
L 481.843833 366.022953 
L 482.657096 355.703124 
L 483.470359 358.467664 
L 484.283622 359.762698 
L 485.096885 361.437028 
L 486.72341 362.442965 
L 487.536673 363.969154 
L 488.349936 363.800027 
L 489.976462 365.679529 
L 490.789725 355.330639 
L 492.416251 360.02812 
L 493.229514 360.465391 
L 494.042776 361.858737 
L 495.669302 363.017128 
L 496.482565 364.446727 
L 497.295828 364.34273 
L 498.109091 364.640415 
L 498.109091 364.640415 
" style="fill:none;stroke:#ff0000;stroke-linecap:square;stroke-width:1.5;"/>
   </g>
   <g id="patch_8">
    <path d="M 72 384.48 
L 72 51.84 
" style="fill:none;stroke:#000000;stroke-linecap:square;stroke-linejoin:miter;stroke-width:0.8;"/>
   </g>
   <g id="patch_9">
    <path d="M 518.4 384.48 
L 518.4 51.84 
" style="fill:none;stroke:#000000;stroke-linecap:square;stroke-linejoin:miter;stroke-width:0.8;"/>
   </g>
   <g id="patch_10">
    <path d="M 72 384.48 
L 518.4 384.48 
" style="fill:none;stroke:#000000;stroke-linecap:square;stroke-linejoin:miter;stroke-width:0.8;"/>
   </g>
   <g id="patch_11">
    <path d="M 72 51.84 
L 518.4 51.84 
" style="fill:none;stroke:#000000;stroke-linecap:square;stroke-linejoin:miter;stroke-width:0.8;"/>
   </g>
   <g id="text_26">
    <!-- The learning curve on _iid/host/6 -->
    <g transform="translate(193.144687 45.84)scale(0.12 -0.12)">
     <defs>
      <path d="M -0.296875 72.90625 
L 61.375 72.90625 
L 61.375 64.59375 
L 35.5 64.59375 
L 35.5 0 
L 25.59375 0 
L 25.59375 64.59375 
L -0.296875 64.59375 
z
" id="DejaVuSans-84"/>
      <path id="DejaVuSans-32"/>
      <path d="M 45.40625 27.984375 
Q 45.40625 37.75 41.375 43.109375 
Q 37.359375 48.484375 30.078125 48.484375 
Q 22.859375 48.484375 18.828125 43.109375 
Q 14.796875 37.75 14.796875 27.984375 
Q 14.796875 18.265625 18.828125 12.890625 
Q 22.859375 7.515625 30.078125 7.515625 
Q 37.359375 7.515625 41.375 12.890625 
Q 45.40625 18.265625 45.40625 27.984375 
z
M 54.390625 6.78125 
Q 54.390625 -7.171875 48.1875 -13.984375 
Q 42 -20.796875 29.203125 -20.796875 
Q 24.46875 -20.796875 20.265625 -20.09375 
Q 16.0625 -19.390625 12.109375 -17.921875 
L 12.109375 -9.1875 
Q 16.0625 -11.328125 19.921875 -12.34375 
Q 23.78125 -13.375 27.78125 -13.375 
Q 36.625 -13.375 41.015625 -8.765625 
Q 45.40625 -4.15625 45.40625 5.171875 
L 45.40625 9.625 
Q 42.625 4.78125 38.28125 2.390625 
Q 33.9375 0 27.875 0 
Q 17.828125 0 11.671875 7.65625 
Q 5.515625 15.328125 5.515625 27.984375 
Q 5.515625 40.671875 11.671875 48.328125 
Q 17.828125 56 27.875 56 
Q 33.9375 56 38.28125 53.609375 
Q 42.625 51.21875 45.40625 46.390625 
L 45.40625 54.6875 
L 54.390625 54.6875 
z
" id="DejaVuSans-103"/>
      <path d="M 8.5 21.578125 
L 8.5 54.6875 
L 17.484375 54.6875 
L 17.484375 21.921875 
Q 17.484375 14.15625 20.5 10.265625 
Q 23.53125 6.390625 29.59375 6.390625 
Q 36.859375 6.390625 41.078125 11.03125 
Q 45.3125 15.671875 45.3125 23.6875 
L 45.3125 54.6875 
L 54.296875 54.6875 
L 54.296875 0 
L 45.3125 0 
L 45.3125 8.40625 
Q 42.046875 3.421875 37.71875 1 
Q 33.40625 -1.421875 27.6875 -1.421875 
Q 18.265625 -1.421875 13.375 4.4375 
Q 8.5 10.296875 8.5 21.578125 
z
M 31.109375 56 
z
" id="DejaVuSans-117"/>
      <path d="M 2.984375 54.6875 
L 12.5 54.6875 
L 29.59375 8.796875 
L 46.6875 54.6875 
L 56.203125 54.6875 
L 35.6875 0 
L 23.484375 0 
z
" id="DejaVuSans-118"/>
      <path d="M 30.953125 67.4375 
L 56.203125 0 
L 46.6875 0 
L 31.34375 40.4375 
L 12.5 0 
L 2.984375 0 
L 26.953125 52.4375 
L 23.34375 62.109375 
Q 21.046875 68.265625 15.828125 68.265625 
L 11.140625 68.265625 
L 11.140625 75.984375 
L 16.84375 75.875 
Q 27.875 75.734375 30.953125 67.4375 
z
" id="DejaVuSans-955"/>
      <path d="M 50.984375 -16.609375 
L 50.984375 -23.578125 
L -0.984375 -23.578125 
L -0.984375 -16.609375 
z
" id="DejaVuSans-95"/>
      <path d="M 45.40625 46.390625 
L 45.40625 75.984375 
L 54.390625 75.984375 
L 54.390625 0 
L 45.40625 0 
L 45.40625 8.203125 
Q 42.578125 3.328125 38.25 0.953125 
Q 33.9375 -1.421875 27.875 -1.421875 
Q 17.96875 -1.421875 11.734375 6.484375 
Q 5.515625 14.40625 5.515625 27.296875 
Q 5.515625 40.1875 11.734375 48.09375 
Q 17.96875 56 27.875 56 
Q 33.9375 56 38.25 53.625 
Q 42.578125 51.265625 45.40625 46.390625 
z
M 14.796875 27.296875 
Q 14.796875 17.390625 18.875 11.75 
Q 22.953125 6.109375 30.078125 6.109375 
Q 37.203125 6.109375 41.296875 11.75 
Q 45.40625 17.390625 45.40625 27.296875 
Q 45.40625 37.203125 41.296875 42.84375 
Q 37.203125 48.484375 30.078125 48.484375 
Q 22.953125 48.484375 18.875 42.84375 
Q 14.796875 37.203125 14.796875 27.296875 
z
" id="DejaVuSans-100"/>
      <path d="M 25.390625 72.90625 
L 33.6875 72.90625 
L 8.296875 -9.28125 
L 0 -9.28125 
z
" id="DejaVuSans-47"/>
     </defs>
     <use xlink:href="#DejaVuSans-84"/>
     <use x="61.083984" xlink:href="#DejaVuSans-104"/>
     <use x="124.462891" xlink:href="#DejaVuSans-101"/>
     <use x="185.986328" xlink:href="#DejaVuSans-32"/>
     <use x="217.773438" xlink:href="#DejaVuSans-108"/>
     <use x="245.556641" xlink:href="#DejaVuSans-101"/>
     <use x="307.080078" xlink:href="#DejaVuSans-97"/>
     <use x="368.359375" xlink:href="#DejaVuSans-114"/>
     <use x="407.722656" xlink:href="#DejaVuSans-110"/>
     <use x="471.101562" xlink:href="#DejaVuSans-105"/>
     <use x="498.884766" xlink:href="#DejaVuSans-110"/>
     <use x="562.263672" xlink:href="#DejaVuSans-103"/>
     <use x="625.740234" xlink:href="#DejaVuSans-32"/>
     <use x="657.527344" xlink:href="#DejaVuSans-99"/>
     <use x="712.507812" xlink:href="#DejaVuSans-117"/>
     <use x="775.886719" xlink:href="#DejaVuSans-114"/>
     <use x="817" xlink:href="#DejaVuSans-118"/>
     <use x="876.179688" xlink:href="#DejaVuSans-101"/>
     <use x="937.703125" xlink:href="#DejaVuSans-32"/>
     <use x="969.490234" xlink:href="#DejaVuSans-111"/>
     <use x="1030.671875" xlink:href="#DejaVuSans-110"/>
     <use x="1094.050781" xlink:href="#DejaVuSans-32"/>
     <use x="1125.837891" xlink:href="#DejaVuSans-955"/>
     <use x="1185.017578" xlink:href="#DejaVuSans-95"/>
     <use x="1235.017578" xlink:href="#DejaVuSans-105"/>
     <use x="1262.800781" xlink:href="#DejaVuSans-105"/>
     <use x="1290.583984" xlink:href="#DejaVuSans-100"/>
     <use x="1354.060547" xlink:href="#DejaVuSans-47"/>
     <use x="1387.751953" xlink:href="#DejaVuSans-104"/>
     <use x="1451.130859" xlink:href="#DejaVuSans-111"/>
     <use x="1512.3125" xlink:href="#DejaVuSans-115"/>
     <use x="1564.412109" xlink:href="#DejaVuSans-116"/>
     <use x="1603.621094" xlink:href="#DejaVuSans-47"/>
     <use x="1637.3125" xlink:href="#DejaVuSans-54"/>
    </g>
   </g>
   <g id="legend_2">
    <g id="patch_12">
     <path d="M 460.084375 74.518125 
L 511.4 74.518125 
Q 513.4 74.518125 513.4 72.518125 
L 513.4 58.84 
Q 513.4 56.84 511.4 56.84 
L 460.084375 56.84 
Q 458.084375 56.84 458.084375 58.84 
L 458.084375 72.518125 
Q 458.084375 74.518125 460.084375 74.518125 
z
" style="fill:#ffffff;opacity:0.8;stroke:#cccccc;stroke-linejoin:miter;"/>
    </g>
    <g id="line2d_28">
     <path d="M 462.084375 64.938438 
L 482.084375 64.938438 
" style="fill:none;stroke:#ff0000;stroke-linecap:square;stroke-width:1.5;"/>
    </g>
    <g id="line2d_29"/>
    <g id="text_27">
     <!-- loss -->
     <g transform="translate(490.084375 68.438438)scale(0.1 -0.1)">
      <use xlink:href="#DejaVuSans-108"/>
      <use x="27.783203" xlink:href="#DejaVuSans-111"/>
      <use x="88.964844" xlink:href="#DejaVuSans-115"/>
      <use x="141.064453" xlink:href="#DejaVuSans-115"/>
     </g>
    </g>
   </g>
  </g>
 </g>
 <defs>
  <clipPath id="p8c067b4fab">
   <rect height="332.64" width="446.4" x="72" y="51.84"/>
  </clipPath>
 </defs>
</svg>
