<?xml version="1.0" encoding="utf-8" standalone="no"?>
<!DOCTYPE svg PUBLIC "-//W3C//DTD SVG 1.1//EN"
  "http://www.w3.org/Graphics/SVG/1.1/DTD/svg11.dtd">
<svg xmlns:xlink="http://www.w3.org/1999/xlink" width="460.8pt" height="345.6pt" viewBox="0 0 460.8 345.6" xmlns="http://www.w3.org/2000/svg" version="1.1">
 <metadata>
  <rdf:RDF xmlns:dc="http://purl.org/dc/elements/1.1/" xmlns:cc="http://creativecommons.org/ns#" xmlns:rdf="http://www.w3.org/1999/02/22-rdf-syntax-ns#">
   <cc:Work>
    <dc:type rdf:resource="http://purl.org/dc/dcmitype/StillImage"/>
    <dc:date>2023-04-11T22:56:08.666760</dc:date>
    <dc:format>image/svg+xml</dc:format>
    <dc:creator>
     <cc:Agent>
      <dc:title>Matplotlib v3.7.1, https://matplotlib.org/</dc:title>
     </cc:Agent>
    </dc:creator>
   </cc:Work>
  </rdf:RDF>
 </metadata>
 <defs>
  <style type="text/css">*{stroke-linejoin: round; stroke-linecap: butt}</style>
 </defs>
 <g id="figure_1">
  <g id="patch_1">
   <path d="M 0 345.6 
L 460.8 345.6 
L 460.8 0 
L 0 0 
z
" style="fill: #ffffff"/>
  </g>
  <g id="axes_1">
   <g id="patch_2">
    <path d="M 57.6 307.584 
L 414.72 307.584 
L 414.72 41.472 
L 57.6 41.472 
z
" style="fill: #ffffff"/>
   </g>
   <g id="matplotlib.axis_1">
    <g id="xtick_1">
     <g id="line2d_1">
      <defs>
       <path id="m8bc7988089" d="M 0 0 
L 0 3.5 
" style="stroke: #000000; stroke-width: 0.8"/>
      </defs>
      <g>
       <use xlink:href="#m8bc7988089" x="73.832727" y="307.584" style="stroke: #000000; stroke-width: 0.8"/>
      </g>
     </g>
     <g id="text_1">
      <!-- 0 -->
      <g transform="translate(70.651477 322.182437) scale(0.1 -0.1)">
       <defs>
        <path id="DejaVuSans-30" d="M 2034 4250 
Q 1547 4250 1301 3770 
Q 1056 3291 1056 2328 
Q 1056 1369 1301 889 
Q 1547 409 2034 409 
Q 2525 409 2770 889 
Q 3016 1369 3016 2328 
Q 3016 3291 2770 3770 
Q 2525 4250 2034 4250 
z
M 2034 4750 
Q 2819 4750 3233 4129 
Q 3647 3509 3647 2328 
Q 3647 1150 3233 529 
Q 2819 -91 2034 -91 
Q 1250 -91 836 529 
Q 422 1150 422 2328 
Q 422 3509 836 4129 
Q 1250 4750 2034 4750 
z
" transform="scale(0.015625)"/>
       </defs>
       <use xlink:href="#DejaVuSans-30"/>
      </g>
     </g>
    </g>
    <g id="xtick_2">
     <g id="line2d_2">
      <g>
       <use xlink:href="#m8bc7988089" x="138.893758" y="307.584" style="stroke: #000000; stroke-width: 0.8"/>
      </g>
     </g>
     <g id="text_2">
      <!-- 100 -->
      <g transform="translate(129.350008 322.182437) scale(0.1 -0.1)">
       <defs>
        <path id="DejaVuSans-31" d="M 794 531 
L 1825 531 
L 1825 4091 
L 703 3866 
L 703 4441 
L 1819 4666 
L 2450 4666 
L 2450 531 
L 3481 531 
L 3481 0 
L 794 0 
L 794 531 
z
" transform="scale(0.015625)"/>
       </defs>
       <use xlink:href="#DejaVuSans-31"/>
       <use xlink:href="#DejaVuSans-30" x="63.623047"/>
       <use xlink:href="#DejaVuSans-30" x="127.246094"/>
      </g>
     </g>
    </g>
    <g id="xtick_3">
     <g id="line2d_3">
      <g>
       <use xlink:href="#m8bc7988089" x="203.95479" y="307.584" style="stroke: #000000; stroke-width: 0.8"/>
      </g>
     </g>
     <g id="text_3">
      <!-- 200 -->
      <g transform="translate(194.41104 322.182437) scale(0.1 -0.1)">
       <defs>
        <path id="DejaVuSans-32" d="M 1228 531 
L 3431 531 
L 3431 0 
L 469 0 
L 469 531 
Q 828 903 1448 1529 
Q 2069 2156 2228 2338 
Q 2531 2678 2651 2914 
Q 2772 3150 2772 3378 
Q 2772 3750 2511 3984 
Q 2250 4219 1831 4219 
Q 1534 4219 1204 4116 
Q 875 4013 500 3803 
L 500 4441 
Q 881 4594 1212 4672 
Q 1544 4750 1819 4750 
Q 2544 4750 2975 4387 
Q 3406 4025 3406 3419 
Q 3406 3131 3298 2873 
Q 3191 2616 2906 2266 
Q 2828 2175 2409 1742 
Q 1991 1309 1228 531 
z
" transform="scale(0.015625)"/>
       </defs>
       <use xlink:href="#DejaVuSans-32"/>
       <use xlink:href="#DejaVuSans-30" x="63.623047"/>
       <use xlink:href="#DejaVuSans-30" x="127.246094"/>
      </g>
     </g>
    </g>
    <g id="xtick_4">
     <g id="line2d_4">
      <g>
       <use xlink:href="#m8bc7988089" x="269.015821" y="307.584" style="stroke: #000000; stroke-width: 0.8"/>
      </g>
     </g>
     <g id="text_4">
      <!-- 300 -->
      <g transform="translate(259.472071 322.182437) scale(0.1 -0.1)">
       <defs>
        <path id="DejaVuSans-33" d="M 2597 2516 
Q 3050 2419 3304 2112 
Q 3559 1806 3559 1356 
Q 3559 666 3084 287 
Q 2609 -91 1734 -91 
Q 1441 -91 1130 -33 
Q 819 25 488 141 
L 488 750 
Q 750 597 1062 519 
Q 1375 441 1716 441 
Q 2309 441 2620 675 
Q 2931 909 2931 1356 
Q 2931 1769 2642 2001 
Q 2353 2234 1838 2234 
L 1294 2234 
L 1294 2753 
L 1863 2753 
Q 2328 2753 2575 2939 
Q 2822 3125 2822 3475 
Q 2822 3834 2567 4026 
Q 2313 4219 1838 4219 
Q 1578 4219 1281 4162 
Q 984 4106 628 3988 
L 628 4550 
Q 988 4650 1302 4700 
Q 1616 4750 1894 4750 
Q 2613 4750 3031 4423 
Q 3450 4097 3450 3541 
Q 3450 3153 3228 2886 
Q 3006 2619 2597 2516 
z
" transform="scale(0.015625)"/>
       </defs>
       <use xlink:href="#DejaVuSans-33"/>
       <use xlink:href="#DejaVuSans-30" x="63.623047"/>
       <use xlink:href="#DejaVuSans-30" x="127.246094"/>
      </g>
     </g>
    </g>
    <g id="xtick_5">
     <g id="line2d_5">
      <g>
       <use xlink:href="#m8bc7988089" x="334.076852" y="307.584" style="stroke: #000000; stroke-width: 0.8"/>
      </g>
     </g>
     <g id="text_5">
      <!-- 400 -->
      <g transform="translate(324.533102 322.182437) scale(0.1 -0.1)">
       <defs>
        <path id="DejaVuSans-34" d="M 2419 4116 
L 825 1625 
L 2419 1625 
L 2419 4116 
z
M 2253 4666 
L 3047 4666 
L 3047 1625 
L 3713 1625 
L 3713 1100 
L 3047 1100 
L 3047 0 
L 2419 0 
L 2419 1100 
L 313 1100 
L 313 1709 
L 2253 4666 
z
" transform="scale(0.015625)"/>
       </defs>
       <use xlink:href="#DejaVuSans-34"/>
       <use xlink:href="#DejaVuSans-30" x="63.623047"/>
       <use xlink:href="#DejaVuSans-30" x="127.246094"/>
      </g>
     </g>
    </g>
    <g id="xtick_6">
     <g id="line2d_6">
      <g>
       <use xlink:href="#m8bc7988089" x="399.137883" y="307.584" style="stroke: #000000; stroke-width: 0.8"/>
      </g>
     </g>
     <g id="text_6">
      <!-- 500 -->
      <g transform="translate(389.594133 322.182437) scale(0.1 -0.1)">
       <defs>
        <path id="DejaVuSans-35" d="M 691 4666 
L 3169 4666 
L 3169 4134 
L 1269 4134 
L 1269 2991 
Q 1406 3038 1543 3061 
Q 1681 3084 1819 3084 
Q 2600 3084 3056 2656 
Q 3513 2228 3513 1497 
Q 3513 744 3044 326 
Q 2575 -91 1722 -91 
Q 1428 -91 1123 -41 
Q 819 9 494 109 
L 494 744 
Q 775 591 1075 516 
Q 1375 441 1709 441 
Q 2250 441 2565 725 
Q 2881 1009 2881 1497 
Q 2881 1984 2565 2268 
Q 2250 2553 1709 2553 
Q 1456 2553 1204 2497 
Q 953 2441 691 2322 
L 691 4666 
z
" transform="scale(0.015625)"/>
       </defs>
       <use xlink:href="#DejaVuSans-35"/>
       <use xlink:href="#DejaVuSans-30" x="63.623047"/>
       <use xlink:href="#DejaVuSans-30" x="127.246094"/>
      </g>
     </g>
    </g>
    <g id="text_7">
     <!-- epoch -->
     <g transform="translate(220.931875 335.860562) scale(0.1 -0.1)">
      <defs>
       <path id="DejaVuSans-65" d="M 3597 1894 
L 3597 1613 
L 953 1613 
Q 991 1019 1311 708 
Q 1631 397 2203 397 
Q 2534 397 2845 478 
Q 3156 559 3463 722 
L 3463 178 
Q 3153 47 2828 -22 
Q 2503 -91 2169 -91 
Q 1331 -91 842 396 
Q 353 884 353 1716 
Q 353 2575 817 3079 
Q 1281 3584 2069 3584 
Q 2775 3584 3186 3129 
Q 3597 2675 3597 1894 
z
M 3022 2063 
Q 3016 2534 2758 2815 
Q 2500 3097 2075 3097 
Q 1594 3097 1305 2825 
Q 1016 2553 972 2059 
L 3022 2063 
z
" transform="scale(0.015625)"/>
       <path id="DejaVuSans-70" d="M 1159 525 
L 1159 -1331 
L 581 -1331 
L 581 3500 
L 1159 3500 
L 1159 2969 
Q 1341 3281 1617 3432 
Q 1894 3584 2278 3584 
Q 2916 3584 3314 3078 
Q 3713 2572 3713 1747 
Q 3713 922 3314 415 
Q 2916 -91 2278 -91 
Q 1894 -91 1617 61 
Q 1341 213 1159 525 
z
M 3116 1747 
Q 3116 2381 2855 2742 
Q 2594 3103 2138 3103 
Q 1681 3103 1420 2742 
Q 1159 2381 1159 1747 
Q 1159 1113 1420 752 
Q 1681 391 2138 391 
Q 2594 391 2855 752 
Q 3116 1113 3116 1747 
z
" transform="scale(0.015625)"/>
       <path id="DejaVuSans-6f" d="M 1959 3097 
Q 1497 3097 1228 2736 
Q 959 2375 959 1747 
Q 959 1119 1226 758 
Q 1494 397 1959 397 
Q 2419 397 2687 759 
Q 2956 1122 2956 1747 
Q 2956 2369 2687 2733 
Q 2419 3097 1959 3097 
z
M 1959 3584 
Q 2709 3584 3137 3096 
Q 3566 2609 3566 1747 
Q 3566 888 3137 398 
Q 2709 -91 1959 -91 
Q 1206 -91 779 398 
Q 353 888 353 1747 
Q 353 2609 779 3096 
Q 1206 3584 1959 3584 
z
" transform="scale(0.015625)"/>
       <path id="DejaVuSans-63" d="M 3122 3366 
L 3122 2828 
Q 2878 2963 2633 3030 
Q 2388 3097 2138 3097 
Q 1578 3097 1268 2742 
Q 959 2388 959 1747 
Q 959 1106 1268 751 
Q 1578 397 2138 397 
Q 2388 397 2633 464 
Q 2878 531 3122 666 
L 3122 134 
Q 2881 22 2623 -34 
Q 2366 -91 2075 -91 
Q 1284 -91 818 406 
Q 353 903 353 1747 
Q 353 2603 823 3093 
Q 1294 3584 2113 3584 
Q 2378 3584 2631 3529 
Q 2884 3475 3122 3366 
z
" transform="scale(0.015625)"/>
       <path id="DejaVuSans-68" d="M 3513 2113 
L 3513 0 
L 2938 0 
L 2938 2094 
Q 2938 2591 2744 2837 
Q 2550 3084 2163 3084 
Q 1697 3084 1428 2787 
Q 1159 2491 1159 1978 
L 1159 0 
L 581 0 
L 581 4863 
L 1159 4863 
L 1159 2956 
Q 1366 3272 1645 3428 
Q 1925 3584 2291 3584 
Q 2894 3584 3203 3211 
Q 3513 2838 3513 2113 
z
" transform="scale(0.015625)"/>
      </defs>
      <use xlink:href="#DejaVuSans-65"/>
      <use xlink:href="#DejaVuSans-70" x="61.523438"/>
      <use xlink:href="#DejaVuSans-6f" x="125"/>
      <use xlink:href="#DejaVuSans-63" x="186.181641"/>
      <use xlink:href="#DejaVuSans-68" x="241.162109"/>
     </g>
    </g>
   </g>
   <g id="matplotlib.axis_2">
    <g id="ytick_1">
     <g id="line2d_7">
      <defs>
       <path id="maed09b21f2" d="M 0 0 
L -3.5 0 
" style="stroke: #000000; stroke-width: 0.8"/>
      </defs>
      <g>
       <use xlink:href="#maed09b21f2" x="57.6" y="258.640345" style="stroke: #000000; stroke-width: 0.8"/>
      </g>
     </g>
     <g id="text_8">
      <!-- 0.2 -->
      <g transform="translate(34.696875 262.439564) scale(0.1 -0.1)">
       <defs>
        <path id="DejaVuSans-2e" d="M 684 794 
L 1344 794 
L 1344 0 
L 684 0 
L 684 794 
z
" transform="scale(0.015625)"/>
       </defs>
       <use xlink:href="#DejaVuSans-30"/>
       <use xlink:href="#DejaVuSans-2e" x="63.623047"/>
       <use xlink:href="#DejaVuSans-32" x="95.410156"/>
      </g>
     </g>
    </g>
    <g id="ytick_2">
     <g id="line2d_8">
      <g>
       <use xlink:href="#maed09b21f2" x="57.6" y="203.398353" style="stroke: #000000; stroke-width: 0.8"/>
      </g>
     </g>
     <g id="text_9">
      <!-- 0.4 -->
      <g transform="translate(34.696875 207.197572) scale(0.1 -0.1)">
       <use xlink:href="#DejaVuSans-30"/>
       <use xlink:href="#DejaVuSans-2e" x="63.623047"/>
       <use xlink:href="#DejaVuSans-34" x="95.410156"/>
      </g>
     </g>
    </g>
    <g id="ytick_3">
     <g id="line2d_9">
      <g>
       <use xlink:href="#maed09b21f2" x="57.6" y="148.156361" style="stroke: #000000; stroke-width: 0.8"/>
      </g>
     </g>
     <g id="text_10">
      <!-- 0.6 -->
      <g transform="translate(34.696875 151.955579) scale(0.1 -0.1)">
       <defs>
        <path id="DejaVuSans-36" d="M 2113 2584 
Q 1688 2584 1439 2293 
Q 1191 2003 1191 1497 
Q 1191 994 1439 701 
Q 1688 409 2113 409 
Q 2538 409 2786 701 
Q 3034 994 3034 1497 
Q 3034 2003 2786 2293 
Q 2538 2584 2113 2584 
z
M 3366 4563 
L 3366 3988 
Q 3128 4100 2886 4159 
Q 2644 4219 2406 4219 
Q 1781 4219 1451 3797 
Q 1122 3375 1075 2522 
Q 1259 2794 1537 2939 
Q 1816 3084 2150 3084 
Q 2853 3084 3261 2657 
Q 3669 2231 3669 1497 
Q 3669 778 3244 343 
Q 2819 -91 2113 -91 
Q 1303 -91 875 529 
Q 447 1150 447 2328 
Q 447 3434 972 4092 
Q 1497 4750 2381 4750 
Q 2619 4750 2861 4703 
Q 3103 4656 3366 4563 
z
" transform="scale(0.015625)"/>
       </defs>
       <use xlink:href="#DejaVuSans-30"/>
       <use xlink:href="#DejaVuSans-2e" x="63.623047"/>
       <use xlink:href="#DejaVuSans-36" x="95.410156"/>
      </g>
     </g>
    </g>
    <g id="ytick_4">
     <g id="line2d_10">
      <g>
       <use xlink:href="#maed09b21f2" x="57.6" y="92.914369" style="stroke: #000000; stroke-width: 0.8"/>
      </g>
     </g>
     <g id="text_11">
      <!-- 0.8 -->
      <g transform="translate(34.696875 96.713587) scale(0.1 -0.1)">
       <defs>
        <path id="DejaVuSans-38" d="M 2034 2216 
Q 1584 2216 1326 1975 
Q 1069 1734 1069 1313 
Q 1069 891 1326 650 
Q 1584 409 2034 409 
Q 2484 409 2743 651 
Q 3003 894 3003 1313 
Q 3003 1734 2745 1975 
Q 2488 2216 2034 2216 
z
M 1403 2484 
Q 997 2584 770 2862 
Q 544 3141 544 3541 
Q 544 4100 942 4425 
Q 1341 4750 2034 4750 
Q 2731 4750 3128 4425 
Q 3525 4100 3525 3541 
Q 3525 3141 3298 2862 
Q 3072 2584 2669 2484 
Q 3125 2378 3379 2068 
Q 3634 1759 3634 1313 
Q 3634 634 3220 271 
Q 2806 -91 2034 -91 
Q 1263 -91 848 271 
Q 434 634 434 1313 
Q 434 1759 690 2068 
Q 947 2378 1403 2484 
z
M 1172 3481 
Q 1172 3119 1398 2916 
Q 1625 2713 2034 2713 
Q 2441 2713 2670 2916 
Q 2900 3119 2900 3481 
Q 2900 3844 2670 4047 
Q 2441 4250 2034 4250 
Q 1625 4250 1398 4047 
Q 1172 3844 1172 3481 
z
" transform="scale(0.015625)"/>
       </defs>
       <use xlink:href="#DejaVuSans-30"/>
       <use xlink:href="#DejaVuSans-2e" x="63.623047"/>
       <use xlink:href="#DejaVuSans-38" x="95.410156"/>
      </g>
     </g>
    </g>
    <g id="text_12">
     <!-- loss value -->
     <g transform="translate(28.617187 199.432687) rotate(-90) scale(0.1 -0.1)">
      <defs>
       <path id="DejaVuSans-6c" d="M 603 4863 
L 1178 4863 
L 1178 0 
L 603 0 
L 603 4863 
z
" transform="scale(0.015625)"/>
       <path id="DejaVuSans-73" d="M 2834 3397 
L 2834 2853 
Q 2591 2978 2328 3040 
Q 2066 3103 1784 3103 
Q 1356 3103 1142 2972 
Q 928 2841 928 2578 
Q 928 2378 1081 2264 
Q 1234 2150 1697 2047 
L 1894 2003 
Q 2506 1872 2764 1633 
Q 3022 1394 3022 966 
Q 3022 478 2636 193 
Q 2250 -91 1575 -91 
Q 1294 -91 989 -36 
Q 684 19 347 128 
L 347 722 
Q 666 556 975 473 
Q 1284 391 1588 391 
Q 1994 391 2212 530 
Q 2431 669 2431 922 
Q 2431 1156 2273 1281 
Q 2116 1406 1581 1522 
L 1381 1569 
Q 847 1681 609 1914 
Q 372 2147 372 2553 
Q 372 3047 722 3315 
Q 1072 3584 1716 3584 
Q 2034 3584 2315 3537 
Q 2597 3491 2834 3397 
z
" transform="scale(0.015625)"/>
       <path id="DejaVuSans-20" transform="scale(0.015625)"/>
       <path id="DejaVuSans-76" d="M 191 3500 
L 800 3500 
L 1894 563 
L 2988 3500 
L 3597 3500 
L 2284 0 
L 1503 0 
L 191 3500 
z
" transform="scale(0.015625)"/>
       <path id="DejaVuSans-61" d="M 2194 1759 
Q 1497 1759 1228 1600 
Q 959 1441 959 1056 
Q 959 750 1161 570 
Q 1363 391 1709 391 
Q 2188 391 2477 730 
Q 2766 1069 2766 1631 
L 2766 1759 
L 2194 1759 
z
M 3341 1997 
L 3341 0 
L 2766 0 
L 2766 531 
Q 2569 213 2275 61 
Q 1981 -91 1556 -91 
Q 1019 -91 701 211 
Q 384 513 384 1019 
Q 384 1609 779 1909 
Q 1175 2209 1959 2209 
L 2766 2209 
L 2766 2266 
Q 2766 2663 2505 2880 
Q 2244 3097 1772 3097 
Q 1472 3097 1187 3025 
Q 903 2953 641 2809 
L 641 3341 
Q 956 3463 1253 3523 
Q 1550 3584 1831 3584 
Q 2591 3584 2966 3190 
Q 3341 2797 3341 1997 
z
" transform="scale(0.015625)"/>
       <path id="DejaVuSans-75" d="M 544 1381 
L 544 3500 
L 1119 3500 
L 1119 1403 
Q 1119 906 1312 657 
Q 1506 409 1894 409 
Q 2359 409 2629 706 
Q 2900 1003 2900 1516 
L 2900 3500 
L 3475 3500 
L 3475 0 
L 2900 0 
L 2900 538 
Q 2691 219 2414 64 
Q 2138 -91 1772 -91 
Q 1169 -91 856 284 
Q 544 659 544 1381 
z
M 1991 3584 
L 1991 3584 
z
" transform="scale(0.015625)"/>
      </defs>
      <use xlink:href="#DejaVuSans-6c"/>
      <use xlink:href="#DejaVuSans-6f" x="27.783203"/>
      <use xlink:href="#DejaVuSans-73" x="88.964844"/>
      <use xlink:href="#DejaVuSans-73" x="141.064453"/>
      <use xlink:href="#DejaVuSans-20" x="193.164062"/>
      <use xlink:href="#DejaVuSans-76" x="224.951172"/>
      <use xlink:href="#DejaVuSans-61" x="284.130859"/>
      <use xlink:href="#DejaVuSans-6c" x="345.410156"/>
      <use xlink:href="#DejaVuSans-75" x="373.193359"/>
      <use xlink:href="#DejaVuSans-65" x="436.572266"/>
     </g>
    </g>
   </g>
   <g id="line2d_11">
    <path d="M 73.832727 87.191442 
L 74.483338 131.232888 
L 75.133948 193.138774 
L 75.784558 241.4961 
L 76.435169 266.121949 
L 77.085779 276.751286 
L 77.736389 279.248594 
L 78.386999 279.617802 
L 79.03761 278.662563 
L 79.68822 277.221119 
L 80.33883 270.765771 
L 81.640051 268.190876 
L 82.290661 267.508361 
L 82.941272 267.552602 
L 83.591882 267.441515 
L 84.242492 267.903845 
L 85.543713 269.409998 
L 86.194323 270.955113 
L 86.844934 265.964242 
L 87.495544 267.696916 
L 88.146154 269.846394 
L 88.796764 271.155217 
L 89.447375 273.464546 
L 90.097985 275.08156 
L 90.748595 276.282092 
L 91.399206 277.11914 
L 92.049816 279.527105 
L 92.700426 280.89798 
L 93.351037 274.816273 
L 94.001647 275.734523 
L 94.652257 277.58619 
L 95.302868 279.95721 
L 95.953478 281.461627 
L 96.604088 282.367146 
L 97.254698 284.331962 
L 97.905309 284.983161 
L 99.206529 286.565882 
L 99.85714 280.278674 
L 100.50775 281.364597 
L 101.15836 282.967002 
L 101.808971 284.21535 
L 102.459581 285.740957 
L 103.110191 285.856514 
L 103.760802 287.374383 
L 104.411412 287.829339 
L 105.062022 288.594877 
L 105.712633 288.191384 
L 106.363243 282.788261 
L 107.664463 285.23046 
L 108.315074 287.047577 
L 109.616294 288.734828 
L 110.266905 288.963733 
L 110.917515 289.814467 
L 111.568125 290.070028 
L 112.218736 291.154254 
L 112.869346 284.867665 
L 113.519956 285.792953 
L 114.821177 288.423075 
L 116.122398 289.998686 
L 116.773008 290.52153 
L 117.423618 292.040554 
L 118.074228 291.639414 
L 118.724839 292.554955 
L 119.375449 285.593392 
L 120.026059 287.326358 
L 120.67667 288.680912 
L 121.32728 289.198964 
L 121.97789 291.047168 
L 122.628501 292.178174 
L 123.279111 292.144572 
L 124.580332 293.20718 
L 125.230942 292.821407 
L 125.881552 286.007351 
L 126.532163 288.069657 
L 127.833383 291.096891 
L 128.483993 291.53804 
L 129.134604 292.596202 
L 129.785214 293.214555 
L 130.435824 294.217791 
L 131.086435 294.375869 
L 131.737045 294.281134 
L 132.387655 287.609686 
L 133.688876 290.592846 
L 134.339486 291.446146 
L 134.990097 292.793142 
L 135.640707 293.576688 
L 136.291317 293.933193 
L 136.941927 294.901415 
L 137.592538 295.488 
L 138.243148 295.439375 
L 138.893758 288.248106 
L 139.544369 290.262993 
L 140.194979 290.902115 
L 140.845589 292.188003 
L 141.4962 292.382763 
L 142.14681 292.247567 
L 142.79742 293.380852 
L 143.448031 293.12186 
L 144.098641 294.057697 
L 144.749251 293.504735 
L 145.399862 288.505746 
L 146.050472 290.477069 
L 146.701082 291.331145 
L 147.351692 291.203913 
L 148.002303 293.162197 
L 148.652913 292.433674 
L 149.303523 293.71276 
L 149.954134 292.909474 
L 151.255354 294.084353 
L 151.905965 288.695489 
L 153.207185 291.210328 
L 153.857796 291.841144 
L 154.508406 292.177104 
L 155.159016 292.832839 
L 155.809627 293.035293 
L 157.110847 293.705782 
L 157.761457 294.994203 
L 158.412068 289.79918 
L 159.062678 289.996266 
L 160.363899 293.022816 
L 161.014509 291.820206 
L 161.665119 293.379119 
L 162.31573 294.273384 
L 162.96634 293.331032 
L 163.61695 294.308402 
L 164.267561 294.409666 
L 164.918171 289.933571 
L 165.568781 290.436466 
L 166.219392 290.223588 
L 166.870002 292.260995 
L 167.520612 292.124627 
L 168.171222 293.515883 
L 168.821833 292.840062 
L 169.472443 294.257682 
L 170.123053 294.321463 
L 170.773664 293.812623 
L 171.424274 290.624571 
L 172.074884 290.465536 
L 172.725495 290.58683 
L 173.376105 292.311556 
L 174.026715 292.836868 
L 174.677326 293.678294 
L 175.327936 293.249834 
L 176.629156 294.098528 
L 177.279767 294.524731 
L 177.930377 290.455387 
L 178.580987 291.079296 
L 179.231598 291.467322 
L 179.882208 292.605868 
L 180.532818 292.939816 
L 181.183429 292.448264 
L 181.834039 293.475002 
L 182.484649 293.864847 
L 183.13526 294.62945 
L 183.78587 294.831477 
L 184.43648 290.700537 
L 185.737701 292.007146 
L 186.388311 292.778218 
L 187.038921 292.753024 
L 187.689532 293.715378 
L 188.340142 293.474088 
L 188.990752 293.689446 
L 189.641363 294.311937 
L 190.291973 294.184817 
L 190.942583 289.77017 
L 191.593194 291.247996 
L 192.243804 291.681165 
L 193.545025 293.305252 
L 194.195635 293.960685 
L 194.846245 293.007767 
L 195.496856 294.22905 
L 196.798076 294.999642 
L 197.448686 290.937036 
L 198.099297 291.635999 
L 198.749907 292.024542 
L 199.400517 292.257851 
L 200.051128 293.535116 
L 200.701738 293.328618 
L 202.002959 294.485984 
L 203.304179 294.602253 
L 203.95479 291.117127 
L 204.6054 291.854611 
L 205.25601 290.942608 
L 205.906621 292.698841 
L 206.557231 293.044396 
L 207.207841 294.131212 
L 207.858451 294.66993 
L 209.159672 294.270585 
L 209.810282 295.420636 
L 210.460893 291.107358 
L 211.111503 291.680374 
L 211.762113 291.814681 
L 212.412724 291.675289 
L 213.063334 292.986652 
L 214.364555 294.035591 
L 215.015165 294.497101 
L 215.665775 294.44306 
L 216.316385 294.564945 
L 216.966996 291.67409 
L 217.617606 291.355722 
L 218.268216 291.307948 
L 218.918827 293.414454 
L 219.569437 292.834465 
L 220.220047 293.879392 
L 220.870658 294.187818 
L 221.521268 294.183523 
L 222.171878 295.064675 
L 222.822489 293.913591 
L 223.473099 290.735688 
L 224.77432 292.535459 
L 225.42493 292.48741 
L 226.07554 293.428219 
L 227.376761 293.912371 
L 228.027371 293.773673 
L 228.677981 293.82616 
L 229.328592 294.345105 
L 229.979202 291.394537 
L 230.629812 291.940239 
L 231.280423 293.048479 
L 231.931033 292.978896 
L 232.581643 293.08151 
L 233.232254 293.880691 
L 233.882864 293.389001 
L 234.533474 294.021348 
L 235.184085 293.930238 
L 235.834695 294.118499 
L 236.485305 291.369969 
L 237.135915 292.072458 
L 237.786526 291.600229 
L 238.437136 292.930592 
L 239.087746 292.892671 
L 239.738357 293.531006 
L 240.388967 293.961604 
L 241.039577 293.926404 
L 241.690188 294.19288 
L 242.340798 294.844876 
L 242.991408 291.749508 
L 243.642019 292.338124 
L 244.292629 292.21754 
L 244.943239 292.927798 
L 245.59385 292.895001 
L 246.24446 294.242186 
L 246.89507 294.172982 
L 247.54568 293.604668 
L 248.196291 293.223756 
L 248.846901 294.138355 
L 249.497511 291.535406 
L 250.148122 292.01168 
L 250.798732 291.510336 
L 251.449342 293.03814 
L 252.099953 293.093819 
L 252.750563 293.470182 
L 253.401173 294.140485 
L 254.051784 294.157959 
L 254.702394 294.870176 
L 255.353004 294.275279 
L 256.003615 290.766674 
L 256.654225 292.063175 
L 257.304835 292.66385 
L 257.955445 292.132428 
L 258.606056 293.433364 
L 259.256666 294.015329 
L 259.907276 294.29725 
L 260.557887 293.294475 
L 261.208497 293.17124 
L 261.859107 294.555896 
L 262.509718 290.782134 
L 263.160328 291.915659 
L 263.810938 291.991438 
L 265.112159 293.888441 
L 265.762769 293.649555 
L 266.413379 293.534042 
L 267.06399 293.25197 
L 267.7146 294.041911 
L 268.36521 293.930579 
L 269.015821 291.73506 
L 269.666431 291.078489 
L 270.317041 292.492911 
L 270.967652 292.619037 
L 271.618262 293.48793 
L 272.268872 293.495133 
L 273.570093 293.820427 
L 274.220703 294.596711 
L 274.871314 293.432699 
L 275.521924 291.314611 
L 276.172534 292.0794 
L 276.823144 292.092739 
L 278.124365 292.979548 
L 278.774975 293.0486 
L 279.425586 293.302556 
L 280.076196 293.385295 
L 280.726806 294.522605 
L 281.377417 293.71234 
L 282.028027 292.40263 
L 282.678637 292.310239 
L 283.329248 291.975357 
L 283.979858 293.125978 
L 284.630468 293.56241 
L 285.281079 292.872361 
L 285.931689 293.331573 
L 286.582299 292.465113 
L 287.232909 293.748774 
L 287.88352 294.380293 
L 288.53413 292.290156 
L 289.18474 292.459023 
L 289.835351 292.951565 
L 290.485961 292.560335 
L 291.136571 293.433782 
L 291.787182 293.015461 
L 292.437792 293.659981 
L 293.088402 293.206836 
L 293.739013 293.617359 
L 294.389623 293.177539 
L 295.040233 292.032304 
L 295.690844 292.382277 
L 296.341454 292.053882 
L 296.992064 292.142724 
L 297.642674 293.035281 
L 298.293285 293.690325 
L 298.943895 293.134092 
L 299.594505 292.905261 
L 300.245116 292.963715 
L 300.895726 293.56859 
L 301.546336 292.501355 
L 302.196947 292.701087 
L 302.847557 292.347535 
L 303.498167 292.70023 
L 304.148778 292.608723 
L 305.449998 293.423848 
L 306.100608 294.052472 
L 306.751219 293.381103 
L 307.401829 293.656604 
L 308.052439 292.373864 
L 308.70305 292.306319 
L 309.35366 292.007877 
L 310.00427 292.534921 
L 310.654881 292.821088 
L 311.305491 292.923919 
L 311.956101 292.813507 
L 312.606712 293.464959 
L 313.257322 292.879883 
L 313.907932 293.369179 
L 314.558543 291.962532 
L 315.209153 292.760091 
L 315.859763 292.741134 
L 316.510373 292.846775 
L 317.160984 292.598958 
L 317.811594 292.848475 
L 318.462204 292.69965 
L 319.112815 293.797096 
L 319.763425 292.960245 
L 320.414035 293.722871 
L 321.064646 292.224165 
L 321.715256 291.877114 
L 322.365866 292.854225 
L 323.016477 293.327216 
L 323.667087 292.931253 
L 324.317697 292.733176 
L 324.968308 292.831662 
L 325.618918 293.914564 
L 326.269528 292.843429 
L 326.920138 294.117165 
L 327.570749 292.479831 
L 328.221359 292.413337 
L 328.871969 292.160673 
L 329.52258 293.182598 
L 330.17319 292.356139 
L 330.8238 293.638912 
L 331.474411 292.999195 
L 332.775631 292.996238 
L 333.426242 292.59038 
L 334.076852 292.368337 
L 334.727462 293.008861 
L 335.378073 292.571886 
L 336.028683 293.456419 
L 336.679293 292.70376 
L 337.329903 293.159392 
L 337.980514 293.33707 
L 338.631124 293.267497 
L 339.281734 293.819441 
L 339.932345 293.622043 
L 340.582955 291.533793 
L 341.233565 292.866103 
L 341.884176 291.779334 
L 342.534786 292.082316 
L 343.185396 293.176239 
L 343.836007 293.65997 
L 344.486617 292.78727 
L 345.137227 293.193103 
L 345.787837 293.899089 
L 346.438448 293.468653 
L 347.089058 292.649636 
L 347.739668 292.897168 
L 348.390279 291.955826 
L 349.040889 292.525379 
L 349.691499 293.331079 
L 350.34211 292.135676 
L 350.99272 292.767617 
L 351.64333 293.783483 
L 352.293941 293.019939 
L 352.944551 293.695321 
L 353.595161 292.068281 
L 354.245772 292.033068 
L 354.896382 293.188164 
L 355.546992 293.098394 
L 356.197602 292.246053 
L 356.848213 291.579767 
L 357.498823 292.958928 
L 358.149433 293.608518 
L 358.800044 293.288898 
L 359.450654 293.760265 
L 360.101264 292.194179 
L 360.751875 293.127978 
L 361.402485 292.376437 
L 362.053095 292.521327 
L 362.703706 291.752406 
L 363.354316 292.932247 
L 364.004926 292.533018 
L 364.655537 292.547215 
L 365.306147 293.205346 
L 365.956757 293.333828 
L 366.607367 292.271509 
L 367.257978 291.661051 
L 367.908588 292.842351 
L 369.860419 292.507668 
L 370.511029 293.311062 
L 371.16164 293.067912 
L 371.81225 292.541089 
L 372.46286 293.102458 
L 373.113471 292.281165 
L 373.764081 292.326262 
L 374.414691 293.001702 
L 375.065302 292.462503 
L 375.715912 292.268568 
L 376.366522 293.172487 
L 377.667743 293.558381 
L 378.318353 293.202008 
L 378.968963 292.977332 
L 379.619574 291.386774 
L 380.270184 292.843217 
L 380.920794 293.321827 
L 381.571405 293.529103 
L 382.222015 291.247885 
L 383.523236 293.340416 
L 384.173846 293.260334 
L 384.824456 292.224595 
L 385.475066 292.850095 
L 386.125677 292.375105 
L 386.776287 292.061043 
L 387.426897 292.174484 
L 388.728118 292.63526 
L 389.378728 293.601404 
L 390.029339 293.162782 
L 391.330559 292.631948 
L 391.98117 293.083593 
L 392.63178 293.026099 
L 393.28239 292.055989 
L 393.933001 293.205895 
L 394.583611 292.364822 
L 395.234221 293.330523 
L 395.884831 292.72467 
L 396.535442 292.496531 
L 397.186052 293.0678 
L 397.836662 292.115095 
L 398.487273 292.128897 
L 398.487273 292.128897 
" clip-path="url(#p7d507c652d)" style="fill: none; stroke: #0000ff; stroke-width: 1.5; stroke-linecap: square"/>
   </g>
   <g id="line2d_12">
    <path d="M 73.832727 280.258893 
L 79.68822 280.238052 
L 80.33883 293.065349 
L 97.905309 293.046768 
L 297.642674 293.070482 
L 398.487273 293.070725 
L 398.487273 293.070725 
" clip-path="url(#p7d507c652d)" style="fill: none; stroke: #008000; stroke-width: 1.5; stroke-linecap: square"/>
   </g>
   <g id="line2d_13">
    <path d="M 73.832727 53.568 
L 74.483338 97.608804 
L 75.133948 159.513431 
L 75.784558 207.86883 
L 76.435169 232.492186 
L 77.085779 243.118683 
L 77.736389 245.612986 
L 78.386999 245.979189 
L 79.03761 245.021028 
L 79.68822 243.576834 
L 80.33883 249.948786 
L 81.640051 247.364922 
L 82.290661 246.678587 
L 82.941272 246.719474 
L 83.591882 246.605465 
L 84.242492 247.065296 
L 85.543713 248.567573 
L 86.194323 250.111239 
L 86.844934 245.122434 
L 87.495544 246.854664 
L 88.146154 249.003869 
L 88.796764 250.312561 
L 89.447375 252.621882 
L 90.097985 254.238966 
L 90.748595 255.439642 
L 91.399206 256.276888 
L 92.049816 258.685104 
L 92.700426 260.056254 
L 93.351037 253.976502 
L 94.001647 254.895428 
L 94.652257 256.747765 
L 95.302868 259.119433 
L 95.953478 260.624459 
L 96.604088 261.530555 
L 97.254698 263.495906 
L 97.905309 264.147593 
L 99.206529 265.731149 
L 99.85714 259.445211 
L 100.50775 260.53177 
L 101.15836 262.134782 
L 101.808971 263.383691 
L 102.459581 264.909824 
L 103.110191 265.025858 
L 103.760802 266.544166 
L 104.411412 266.999514 
L 105.062022 267.765396 
L 105.712633 267.362203 
L 106.363243 261.960143 
L 107.664463 264.403261 
L 108.315074 266.220808 
L 109.616294 267.908804 
L 110.266905 268.138016 
L 110.917515 268.989017 
L 111.568125 269.244805 
L 112.218736 270.329228 
L 112.869346 264.043701 
L 113.519956 264.969355 
L 114.821177 267.60014 
L 116.122398 269.17628 
L 116.773008 269.699343 
L 117.423618 271.218548 
L 118.074228 270.817557 
L 118.724839 271.733214 
L 119.375449 264.772642 
L 120.026059 266.505868 
L 120.67667 267.860665 
L 121.32728 268.378933 
L 121.97789 270.227311 
L 122.628501 271.358478 
L 123.279111 271.324992 
L 124.580332 272.387737 
L 125.230942 272.001991 
L 125.881552 265.188919 
L 126.532163 267.251429 
L 127.833383 270.279006 
L 128.483993 270.720283 
L 129.134604 271.778534 
L 129.785214 272.396948 
L 130.435824 273.400207 
L 131.086435 273.558276 
L 131.737045 273.463505 
L 132.387655 266.792964 
L 133.688876 269.776383 
L 134.339486 270.629767 
L 134.990097 271.976819 
L 135.640707 272.760374 
L 136.291317 273.116856 
L 136.941927 274.085027 
L 137.592538 274.671539 
L 138.243148 274.622808 
L 138.893758 267.432584 
L 139.544369 269.447555 
L 140.194979 270.086702 
L 140.845589 271.37262 
L 141.4962 271.567407 
L 142.14681 271.432226 
L 142.79742 272.565529 
L 143.448031 272.306548 
L 144.098641 273.242385 
L 144.749251 272.689425 
L 145.399862 267.690718 
L 146.050472 269.66209 
L 146.701082 270.516211 
L 147.351692 270.389015 
L 148.002303 272.347319 
L 148.652913 271.618814 
L 149.303523 272.897913 
L 149.954134 272.094631 
L 151.255354 273.269512 
L 151.905965 267.880919 
L 153.207185 270.395839 
L 153.857796 271.026683 
L 154.508406 271.36266 
L 155.159016 272.018414 
L 155.809627 272.220872 
L 157.110847 272.891361 
L 157.761457 274.179778 
L 158.412068 268.984996 
L 159.062678 269.182116 
L 160.363899 272.208714 
L 161.014509 271.006112 
L 161.665119 272.565031 
L 162.31573 273.459294 
L 162.96634 272.516942 
L 163.61695 273.494304 
L 164.267561 273.595558 
L 164.918171 269.119703 
L 165.568781 269.622627 
L 166.219392 269.409772 
L 166.870002 271.447196 
L 167.520612 271.310837 
L 168.171222 272.702097 
L 168.821833 272.026279 
L 169.472443 273.443897 
L 170.123053 273.507672 
L 170.773664 272.998821 
L 171.424274 269.810968 
L 172.074884 269.651957 
L 172.725495 269.773267 
L 173.376105 271.498006 
L 174.026715 272.02332 
L 174.677326 272.864747 
L 175.327936 272.436288 
L 176.629156 273.284976 
L 177.279767 273.711172 
L 177.930377 269.642001 
L 178.580987 270.265934 
L 179.231598 270.653977 
L 179.882208 271.792536 
L 180.532818 272.126488 
L 181.183429 271.63494 
L 181.834039 272.661676 
L 182.484649 273.051516 
L 183.13526 273.816114 
L 183.78587 274.018132 
L 184.43648 269.887342 
L 185.737701 271.193984 
L 186.388311 271.965064 
L 187.038921 271.939871 
L 187.689532 272.902226 
L 188.340142 272.660931 
L 188.990752 272.87628 
L 189.641363 273.498769 
L 190.291973 273.371639 
L 190.942583 268.95714 
L 191.593194 270.434981 
L 192.243804 270.868157 
L 193.545025 272.492255 
L 194.195635 273.147679 
L 194.846245 272.194761 
L 195.496856 273.416041 
L 196.798076 274.186614 
L 197.448686 270.124156 
L 198.099297 270.82313 
L 198.749907 271.211678 
L 199.400517 271.444989 
L 200.051128 272.722253 
L 200.701738 272.515756 
L 202.002959 273.673108 
L 203.304179 273.789361 
L 203.95479 270.304372 
L 204.6054 271.041871 
L 205.25601 270.129869 
L 205.906621 271.886106 
L 206.557231 272.231664 
L 207.207841 273.318475 
L 207.858451 273.857186 
L 209.159672 273.457833 
L 209.810282 274.607871 
L 210.460893 270.294721 
L 211.111503 270.867746 
L 211.762113 271.002054 
L 212.412724 270.862667 
L 213.063334 272.17403 
L 214.364555 273.222958 
L 215.015165 273.684468 
L 215.665775 273.630419 
L 216.316385 273.752297 
L 216.966996 270.861555 
L 217.617606 270.543195 
L 218.268216 270.49543 
L 218.918827 272.601934 
L 219.569437 272.021945 
L 220.220047 273.066873 
L 220.870658 273.375294 
L 221.521268 273.370993 
L 222.171878 274.252143 
L 222.822489 273.101055 
L 223.473099 269.923249 
L 224.77432 271.723027 
L 225.42493 271.674979 
L 226.07554 272.615792 
L 227.376761 273.099935 
L 228.027371 272.961239 
L 228.677981 273.013717 
L 229.328592 273.532655 
L 229.979202 270.58218 
L 230.629812 271.127884 
L 231.280423 272.23613 
L 231.931033 272.166547 
L 232.581643 272.269159 
L 233.232254 273.068342 
L 233.882864 272.576646 
L 234.533474 273.208989 
L 235.184085 273.117876 
L 235.834695 273.306131 
L 236.485305 270.557682 
L 237.135915 271.260184 
L 237.786526 270.787956 
L 238.437136 272.118322 
L 239.087746 272.080398 
L 239.738357 272.718734 
L 240.388967 273.149326 
L 241.039577 273.114127 
L 241.690188 273.380599 
L 242.340798 274.032591 
L 242.991408 270.937291 
L 243.642019 271.525911 
L 244.292629 271.405333 
L 244.943239 272.115589 
L 245.59385 272.08279 
L 246.24446 273.429973 
L 246.89507 273.360765 
L 247.54568 272.792448 
L 248.196291 272.411535 
L 248.846901 273.32613 
L 249.497511 270.723246 
L 250.148122 271.199524 
L 250.798732 270.698189 
L 251.449342 272.225992 
L 252.099953 272.281667 
L 252.750563 272.658033 
L 253.401173 273.328332 
L 254.051784 273.3458 
L 254.702394 274.058014 
L 255.353004 273.463118 
L 256.003615 269.95457 
L 256.654225 271.251079 
L 257.304835 271.851755 
L 257.955445 271.320333 
L 258.606056 272.62127 
L 259.256666 273.203235 
L 259.907276 273.48515 
L 260.557887 272.482373 
L 261.208497 272.359136 
L 261.859107 273.743786 
L 262.509718 269.970083 
L 263.160328 271.103613 
L 263.810938 271.179394 
L 265.112159 273.076401 
L 265.762769 272.837509 
L 266.413379 272.721993 
L 267.06399 272.439922 
L 267.7146 273.229856 
L 268.36521 273.118522 
L 269.015821 270.923054 
L 269.666431 270.266486 
L 270.317041 271.68091 
L 270.967652 271.80704 
L 271.618262 272.675929 
L 272.268872 272.683132 
L 273.570093 273.008424 
L 274.220703 273.784706 
L 274.871314 272.620686 
L 275.521924 270.502645 
L 276.172534 271.26744 
L 276.823144 271.280783 
L 278.124365 272.167588 
L 278.774975 272.236644 
L 279.425586 272.490596 
L 280.076196 272.573329 
L 280.726806 273.710641 
L 281.377417 272.90037 
L 282.028027 271.590703 
L 282.678637 271.498318 
L 283.329248 271.163437 
L 283.979858 272.314055 
L 284.630468 272.750491 
L 285.281079 272.060436 
L 285.931689 272.51965 
L 286.582299 271.653181 
L 287.232909 272.936845 
L 287.88352 273.56836 
L 288.53413 271.478266 
L 289.18474 271.647135 
L 289.835351 272.139675 
L 290.485961 271.748447 
L 291.136571 272.621896 
L 291.787182 272.203569 
L 292.437792 272.848091 
L 293.088402 272.394948 
L 293.739013 272.805463 
L 294.389623 272.365643 
L 295.040233 271.220445 
L 295.690844 271.57042 
L 296.341454 271.242025 
L 296.992064 271.330869 
L 297.642674 272.223424 
L 298.293285 272.87847 
L 298.943895 272.322237 
L 299.594505 272.0934 
L 300.245116 272.151854 
L 300.895726 272.756723 
L 301.546336 271.689524 
L 302.196947 271.889258 
L 302.847557 271.535707 
L 303.498167 271.888402 
L 304.148778 271.796899 
L 305.449998 272.612018 
L 306.100608 273.24064 
L 306.751219 272.569271 
L 307.401829 272.844769 
L 308.052439 271.562065 
L 308.70305 271.494515 
L 309.35366 271.196075 
L 310.00427 271.723122 
L 310.654881 272.009285 
L 311.305491 272.112115 
L 311.956101 272.001703 
L 312.606712 272.653156 
L 313.257322 272.068075 
L 313.907932 272.557376 
L 314.558543 271.150751 
L 315.209153 271.948317 
L 315.859763 271.929355 
L 316.510373 272.035001 
L 317.160984 271.787185 
L 317.811594 272.036696 
L 318.462204 271.887871 
L 319.112815 272.985313 
L 319.763425 272.148466 
L 320.414035 272.911088 
L 321.064646 271.412408 
L 321.715256 271.065364 
L 322.365866 272.042467 
L 323.016477 272.51546 
L 323.667087 272.119499 
L 324.317697 271.92142 
L 324.968308 272.019904 
L 325.618918 273.102808 
L 326.269528 272.031667 
L 326.920138 273.305407 
L 327.570749 271.668097 
L 328.221359 271.601602 
L 328.871969 271.348938 
L 329.52258 272.370866 
L 330.17319 271.544404 
L 330.8238 272.827174 
L 331.474411 272.18746 
L 332.775631 272.184496 
L 333.426242 271.778641 
L 334.076852 271.556624 
L 334.727462 272.197149 
L 335.378073 271.760169 
L 336.028683 272.644702 
L 336.679293 271.892045 
L 337.329903 272.347673 
L 337.980514 272.525355 
L 338.631124 272.455776 
L 339.281734 273.007724 
L 339.932345 272.810319 
L 340.582955 270.722094 
L 341.233565 272.054403 
L 341.884176 270.967637 
L 342.534786 271.270617 
L 343.185396 272.36454 
L 343.836007 272.848268 
L 344.486617 271.975568 
L 345.137227 272.381399 
L 345.787837 273.087386 
L 346.438448 272.656946 
L 347.089058 271.83795 
L 347.739668 272.085486 
L 348.390279 271.144141 
L 349.040889 271.713693 
L 349.691499 272.519395 
L 350.34211 271.323988 
L 350.99272 271.955931 
L 351.64333 272.971792 
L 352.293941 272.208249 
L 352.944551 272.883631 
L 353.595161 271.256611 
L 354.245772 271.221404 
L 354.896382 272.376497 
L 355.546992 272.286726 
L 356.197602 271.434383 
L 356.848213 270.768097 
L 357.498823 272.147256 
L 358.149433 272.796844 
L 358.800044 272.477224 
L 359.450654 272.948591 
L 360.101264 271.382523 
L 360.751875 272.316323 
L 361.402485 271.564781 
L 362.053095 271.709671 
L 362.703706 270.940744 
L 363.354316 272.120585 
L 364.004926 271.721365 
L 364.655537 271.735556 
L 365.306147 272.393689 
L 365.956757 272.522169 
L 366.607367 271.459864 
L 367.257978 270.849405 
L 367.908588 272.030704 
L 369.860419 271.696023 
L 370.511029 272.499416 
L 371.16164 272.256269 
L 371.81225 271.72944 
L 372.46286 272.290809 
L 373.113471 271.469528 
L 373.764081 271.514625 
L 374.414691 272.190069 
L 375.065302 271.650868 
L 375.715912 271.456934 
L 376.366522 272.360852 
L 377.667743 272.746746 
L 378.318353 272.390371 
L 378.968963 272.165695 
L 379.619574 270.57515 
L 380.270184 272.031593 
L 380.920794 272.510204 
L 381.571405 272.717474 
L 382.222015 270.436261 
L 383.523236 272.528787 
L 384.173846 272.448709 
L 384.824456 271.412964 
L 385.475066 272.038466 
L 386.125677 271.563489 
L 386.776287 271.249429 
L 387.426897 271.36287 
L 388.728118 271.823643 
L 389.378728 272.78979 
L 390.029339 272.351164 
L 391.330559 271.820334 
L 391.98117 272.271975 
L 392.63178 272.214489 
L 393.28239 271.244383 
L 393.933001 272.394289 
L 394.583611 271.553216 
L 395.234221 272.518913 
L 395.884831 271.913064 
L 396.535442 271.684919 
L 397.186052 272.25619 
L 397.836662 271.303482 
L 398.487273 271.317287 
L 398.487273 271.317287 
" clip-path="url(#p7d507c652d)" style="fill: none; stroke: #ff0000; stroke-width: 1.5; stroke-linecap: square"/>
   </g>
   <g id="patch_3">
    <path d="M 57.6 307.584 
L 57.6 41.472 
" style="fill: none; stroke: #000000; stroke-width: 0.8; stroke-linejoin: miter; stroke-linecap: square"/>
   </g>
   <g id="patch_4">
    <path d="M 414.72 307.584 
L 414.72 41.472 
" style="fill: none; stroke: #000000; stroke-width: 0.8; stroke-linejoin: miter; stroke-linecap: square"/>
   </g>
   <g id="patch_5">
    <path d="M 57.6 307.584 
L 414.72 307.584 
" style="fill: none; stroke: #000000; stroke-width: 0.8; stroke-linejoin: miter; stroke-linecap: square"/>
   </g>
   <g id="patch_6">
    <path d="M 57.6 41.472 
L 414.72 41.472 
" style="fill: none; stroke: #000000; stroke-width: 0.8; stroke-linejoin: miter; stroke-linecap: square"/>
   </g>
   <g id="text_13">
    <!-- The loss curve on λ_0.00025_8_clients_iid/host/4 -->
    <g transform="translate(89.759062 35.472) scale(0.12 -0.12)">
     <defs>
      <path id="DejaVuSans-54" d="M -19 4666 
L 3928 4666 
L 3928 4134 
L 2272 4134 
L 2272 0 
L 1638 0 
L 1638 4134 
L -19 4134 
L -19 4666 
z
" transform="scale(0.015625)"/>
      <path id="DejaVuSans-72" d="M 2631 2963 
Q 2534 3019 2420 3045 
Q 2306 3072 2169 3072 
Q 1681 3072 1420 2755 
Q 1159 2438 1159 1844 
L 1159 0 
L 581 0 
L 581 3500 
L 1159 3500 
L 1159 2956 
Q 1341 3275 1631 3429 
Q 1922 3584 2338 3584 
Q 2397 3584 2469 3576 
Q 2541 3569 2628 3553 
L 2631 2963 
z
" transform="scale(0.015625)"/>
      <path id="DejaVuSans-6e" d="M 3513 2113 
L 3513 0 
L 2938 0 
L 2938 2094 
Q 2938 2591 2744 2837 
Q 2550 3084 2163 3084 
Q 1697 3084 1428 2787 
Q 1159 2491 1159 1978 
L 1159 0 
L 581 0 
L 581 3500 
L 1159 3500 
L 1159 2956 
Q 1366 3272 1645 3428 
Q 1925 3584 2291 3584 
Q 2894 3584 3203 3211 
Q 3513 2838 3513 2113 
z
" transform="scale(0.015625)"/>
      <path id="DejaVuSans-3bb" d="M 1981 4316 
L 3597 0 
L 2988 0 
L 2006 2588 
L 800 0 
L 191 0 
L 1725 3356 
L 1494 3975 
Q 1347 4369 1013 4369 
L 713 4369 
L 713 4863 
L 1078 4856 
Q 1784 4847 1981 4316 
z
" transform="scale(0.015625)"/>
      <path id="DejaVuSans-5f" d="M 3263 -1063 
L 3263 -1509 
L -63 -1509 
L -63 -1063 
L 3263 -1063 
z
" transform="scale(0.015625)"/>
      <path id="DejaVuSans-69" d="M 603 3500 
L 1178 3500 
L 1178 0 
L 603 0 
L 603 3500 
z
M 603 4863 
L 1178 4863 
L 1178 4134 
L 603 4134 
L 603 4863 
z
" transform="scale(0.015625)"/>
      <path id="DejaVuSans-74" d="M 1172 4494 
L 1172 3500 
L 2356 3500 
L 2356 3053 
L 1172 3053 
L 1172 1153 
Q 1172 725 1289 603 
Q 1406 481 1766 481 
L 2356 481 
L 2356 0 
L 1766 0 
Q 1100 0 847 248 
Q 594 497 594 1153 
L 594 3053 
L 172 3053 
L 172 3500 
L 594 3500 
L 594 4494 
L 1172 4494 
z
" transform="scale(0.015625)"/>
      <path id="DejaVuSans-64" d="M 2906 2969 
L 2906 4863 
L 3481 4863 
L 3481 0 
L 2906 0 
L 2906 525 
Q 2725 213 2448 61 
Q 2172 -91 1784 -91 
Q 1150 -91 751 415 
Q 353 922 353 1747 
Q 353 2572 751 3078 
Q 1150 3584 1784 3584 
Q 2172 3584 2448 3432 
Q 2725 3281 2906 2969 
z
M 947 1747 
Q 947 1113 1208 752 
Q 1469 391 1925 391 
Q 2381 391 2643 752 
Q 2906 1113 2906 1747 
Q 2906 2381 2643 2742 
Q 2381 3103 1925 3103 
Q 1469 3103 1208 2742 
Q 947 2381 947 1747 
z
" transform="scale(0.015625)"/>
      <path id="DejaVuSans-2f" d="M 1625 4666 
L 2156 4666 
L 531 -594 
L 0 -594 
L 1625 4666 
z
" transform="scale(0.015625)"/>
     </defs>
     <use xlink:href="#DejaVuSans-54"/>
     <use xlink:href="#DejaVuSans-68" x="61.083984"/>
     <use xlink:href="#DejaVuSans-65" x="124.462891"/>
     <use xlink:href="#DejaVuSans-20" x="185.986328"/>
     <use xlink:href="#DejaVuSans-6c" x="217.773438"/>
     <use xlink:href="#DejaVuSans-6f" x="245.556641"/>
     <use xlink:href="#DejaVuSans-73" x="306.738281"/>
     <use xlink:href="#DejaVuSans-73" x="358.837891"/>
     <use xlink:href="#DejaVuSans-20" x="410.9375"/>
     <use xlink:href="#DejaVuSans-63" x="442.724609"/>
     <use xlink:href="#DejaVuSans-75" x="497.705078"/>
     <use xlink:href="#DejaVuSans-72" x="561.083984"/>
     <use xlink:href="#DejaVuSans-76" x="602.197266"/>
     <use xlink:href="#DejaVuSans-65" x="661.376953"/>
     <use xlink:href="#DejaVuSans-20" x="722.900391"/>
     <use xlink:href="#DejaVuSans-6f" x="754.6875"/>
     <use xlink:href="#DejaVuSans-6e" x="815.869141"/>
     <use xlink:href="#DejaVuSans-20" x="879.248047"/>
     <use xlink:href="#DejaVuSans-3bb" x="911.035156"/>
     <use xlink:href="#DejaVuSans-5f" x="970.214844"/>
     <use xlink:href="#DejaVuSans-30" x="1020.214844"/>
     <use xlink:href="#DejaVuSans-2e" x="1083.837891"/>
     <use xlink:href="#DejaVuSans-30" x="1115.625"/>
     <use xlink:href="#DejaVuSans-30" x="1179.248047"/>
     <use xlink:href="#DejaVuSans-30" x="1242.871094"/>
     <use xlink:href="#DejaVuSans-32" x="1306.494141"/>
     <use xlink:href="#DejaVuSans-35" x="1370.117188"/>
     <use xlink:href="#DejaVuSans-5f" x="1433.740234"/>
     <use xlink:href="#DejaVuSans-38" x="1483.740234"/>
     <use xlink:href="#DejaVuSans-5f" x="1547.363281"/>
     <use xlink:href="#DejaVuSans-63" x="1597.363281"/>
     <use xlink:href="#DejaVuSans-6c" x="1652.34375"/>
     <use xlink:href="#DejaVuSans-69" x="1680.126953"/>
     <use xlink:href="#DejaVuSans-65" x="1707.910156"/>
     <use xlink:href="#DejaVuSans-6e" x="1769.433594"/>
     <use xlink:href="#DejaVuSans-74" x="1832.8125"/>
     <use xlink:href="#DejaVuSans-73" x="1872.021484"/>
     <use xlink:href="#DejaVuSans-5f" x="1924.121094"/>
     <use xlink:href="#DejaVuSans-69" x="1974.121094"/>
     <use xlink:href="#DejaVuSans-69" x="2001.904297"/>
     <use xlink:href="#DejaVuSans-64" x="2029.6875"/>
     <use xlink:href="#DejaVuSans-2f" x="2093.164062"/>
     <use xlink:href="#DejaVuSans-68" x="2126.855469"/>
     <use xlink:href="#DejaVuSans-6f" x="2190.234375"/>
     <use xlink:href="#DejaVuSans-73" x="2251.416016"/>
     <use xlink:href="#DejaVuSans-74" x="2303.515625"/>
     <use xlink:href="#DejaVuSans-2f" x="2342.724609"/>
     <use xlink:href="#DejaVuSans-34" x="2376.416016"/>
    </g>
   </g>
   <g id="legend_1">
    <g id="patch_7">
     <path d="M 317.418438 94.34075 
L 407.72 94.34075 
Q 409.72 94.34075 409.72 92.34075 
L 409.72 48.472 
Q 409.72 46.472 407.72 46.472 
L 317.418438 46.472 
Q 315.418438 46.472 315.418438 48.472 
L 315.418438 92.34075 
Q 315.418438 94.34075 317.418438 94.34075 
z
" style="fill: #ffffff; opacity: 0.8; stroke: #cccccc; stroke-linejoin: miter"/>
    </g>
    <g id="line2d_14">
     <path d="M 319.418438 54.570438 
L 329.418438 54.570438 
L 339.418438 54.570438 
" style="fill: none; stroke: #0000ff; stroke-width: 1.5; stroke-linecap: square"/>
    </g>
    <g id="text_14">
     <!-- obj_loss -->
     <g transform="translate(347.418438 58.070438) scale(0.1 -0.1)">
      <defs>
       <path id="DejaVuSans-62" d="M 3116 1747 
Q 3116 2381 2855 2742 
Q 2594 3103 2138 3103 
Q 1681 3103 1420 2742 
Q 1159 2381 1159 1747 
Q 1159 1113 1420 752 
Q 1681 391 2138 391 
Q 2594 391 2855 752 
Q 3116 1113 3116 1747 
z
M 1159 2969 
Q 1341 3281 1617 3432 
Q 1894 3584 2278 3584 
Q 2916 3584 3314 3078 
Q 3713 2572 3713 1747 
Q 3713 922 3314 415 
Q 2916 -91 2278 -91 
Q 1894 -91 1617 61 
Q 1341 213 1159 525 
L 1159 0 
L 581 0 
L 581 4863 
L 1159 4863 
L 1159 2969 
z
" transform="scale(0.015625)"/>
       <path id="DejaVuSans-6a" d="M 603 3500 
L 1178 3500 
L 1178 -63 
Q 1178 -731 923 -1031 
Q 669 -1331 103 -1331 
L -116 -1331 
L -116 -844 
L 38 -844 
Q 366 -844 484 -692 
Q 603 -541 603 -63 
L 603 3500 
z
M 603 4863 
L 1178 4863 
L 1178 4134 
L 603 4134 
L 603 4863 
z
" transform="scale(0.015625)"/>
      </defs>
      <use xlink:href="#DejaVuSans-6f"/>
      <use xlink:href="#DejaVuSans-62" x="61.181641"/>
      <use xlink:href="#DejaVuSans-6a" x="124.658203"/>
      <use xlink:href="#DejaVuSans-5f" x="152.441406"/>
      <use xlink:href="#DejaVuSans-6c" x="202.441406"/>
      <use xlink:href="#DejaVuSans-6f" x="230.224609"/>
      <use xlink:href="#DejaVuSans-73" x="291.40625"/>
      <use xlink:href="#DejaVuSans-73" x="343.505859"/>
     </g>
    </g>
    <g id="line2d_15">
     <path d="M 319.418438 69.526688 
L 329.418438 69.526688 
L 339.418438 69.526688 
" style="fill: none; stroke: #008000; stroke-width: 1.5; stroke-linecap: square"/>
    </g>
    <g id="text_15">
     <!-- reg_loss -->
     <g transform="translate(347.418438 73.026688) scale(0.1 -0.1)">
      <defs>
       <path id="DejaVuSans-67" d="M 2906 1791 
Q 2906 2416 2648 2759 
Q 2391 3103 1925 3103 
Q 1463 3103 1205 2759 
Q 947 2416 947 1791 
Q 947 1169 1205 825 
Q 1463 481 1925 481 
Q 2391 481 2648 825 
Q 2906 1169 2906 1791 
z
M 3481 434 
Q 3481 -459 3084 -895 
Q 2688 -1331 1869 -1331 
Q 1566 -1331 1297 -1286 
Q 1028 -1241 775 -1147 
L 775 -588 
Q 1028 -725 1275 -790 
Q 1522 -856 1778 -856 
Q 2344 -856 2625 -561 
Q 2906 -266 2906 331 
L 2906 616 
Q 2728 306 2450 153 
Q 2172 0 1784 0 
Q 1141 0 747 490 
Q 353 981 353 1791 
Q 353 2603 747 3093 
Q 1141 3584 1784 3584 
Q 2172 3584 2450 3431 
Q 2728 3278 2906 2969 
L 2906 3500 
L 3481 3500 
L 3481 434 
z
" transform="scale(0.015625)"/>
      </defs>
      <use xlink:href="#DejaVuSans-72"/>
      <use xlink:href="#DejaVuSans-65" x="38.863281"/>
      <use xlink:href="#DejaVuSans-67" x="100.386719"/>
      <use xlink:href="#DejaVuSans-5f" x="163.863281"/>
      <use xlink:href="#DejaVuSans-6c" x="213.863281"/>
      <use xlink:href="#DejaVuSans-6f" x="241.646484"/>
      <use xlink:href="#DejaVuSans-73" x="302.828125"/>
      <use xlink:href="#DejaVuSans-73" x="354.927734"/>
     </g>
    </g>
    <g id="line2d_16">
     <path d="M 319.418438 84.482938 
L 329.418438 84.482938 
L 339.418438 84.482938 
" style="fill: none; stroke: #ff0000; stroke-width: 1.5; stroke-linecap: square"/>
    </g>
    <g id="text_16">
     <!-- overall_loss -->
     <g transform="translate(347.418438 87.982938) scale(0.1 -0.1)">
      <use xlink:href="#DejaVuSans-6f"/>
      <use xlink:href="#DejaVuSans-76" x="61.181641"/>
      <use xlink:href="#DejaVuSans-65" x="120.361328"/>
      <use xlink:href="#DejaVuSans-72" x="181.884766"/>
      <use xlink:href="#DejaVuSans-61" x="222.998047"/>
      <use xlink:href="#DejaVuSans-6c" x="284.277344"/>
      <use xlink:href="#DejaVuSans-6c" x="312.060547"/>
      <use xlink:href="#DejaVuSans-5f" x="339.84375"/>
      <use xlink:href="#DejaVuSans-6c" x="389.84375"/>
      <use xlink:href="#DejaVuSans-6f" x="417.626953"/>
      <use xlink:href="#DejaVuSans-73" x="478.808594"/>
      <use xlink:href="#DejaVuSans-73" x="530.908203"/>
     </g>
    </g>
   </g>
  </g>
 </g>
 <defs>
  <clipPath id="p7d507c652d">
   <rect x="57.6" y="41.472" width="357.12" height="266.112"/>
  </clipPath>
 </defs>
</svg>
