<?xml version="1.0" encoding="utf-8" standalone="no"?>
<!DOCTYPE svg PUBLIC "-//W3C//DTD SVG 1.1//EN"
  "http://www.w3.org/Graphics/SVG/1.1/DTD/svg11.dtd">
<svg xmlns:xlink="http://www.w3.org/1999/xlink" width="576pt" height="432pt" viewBox="0 0 576 432" xmlns="http://www.w3.org/2000/svg" version="1.1">
 <metadata>
  <rdf:RDF xmlns:dc="http://purl.org/dc/elements/1.1/" xmlns:cc="http://creativecommons.org/ns#" xmlns:rdf="http://www.w3.org/1999/02/22-rdf-syntax-ns#">
   <cc:Work>
    <dc:type rdf:resource="http://purl.org/dc/dcmitype/StillImage"/>
    <dc:date>2023-04-11T22:54:52.809021</dc:date>
    <dc:format>image/svg+xml</dc:format>
    <dc:creator>
     <cc:Agent>
      <dc:title>Matplotlib v3.7.1, https://matplotlib.org/</dc:title>
     </cc:Agent>
    </dc:creator>
   </cc:Work>
  </rdf:RDF>
 </metadata>
 <defs>
  <style type="text/css">*{stroke-linejoin: round; stroke-linecap: butt}</style>
 </defs>
 <g id="figure_1">
  <g id="patch_1">
   <path d="M 0 432 
L 576 432 
L 576 0 
L 0 0 
z
" style="fill: #ffffff"/>
  </g>
  <g id="axes_1">
   <g id="patch_2">
    <path d="M 72 384.48 
L 518.4 384.48 
L 518.4 51.84 
L 72 51.84 
z
" style="fill: #ffffff"/>
   </g>
   <g id="matplotlib.axis_1">
    <g id="xtick_1">
     <g id="line2d_1">
      <defs>
       <path id="m96a7da7cd5" d="M 0 0 
L 0 3.5 
" style="stroke: #000000; stroke-width: 0.8"/>
      </defs>
      <g>
       <use xlink:href="#m96a7da7cd5" x="92.290909" y="384.48" style="stroke: #000000; stroke-width: 0.8"/>
      </g>
     </g>
     <g id="text_1">
      <!-- 0 -->
      <g transform="translate(89.109659 399.078438) scale(0.1 -0.1)">
       <defs>
        <path id="DejaVuSans-30" d="M 2034 4250 
Q 1547 4250 1301 3770 
Q 1056 3291 1056 2328 
Q 1056 1369 1301 889 
Q 1547 409 2034 409 
Q 2525 409 2770 889 
Q 3016 1369 3016 2328 
Q 3016 3291 2770 3770 
Q 2525 4250 2034 4250 
z
M 2034 4750 
Q 2819 4750 3233 4129 
Q 3647 3509 3647 2328 
Q 3647 1150 3233 529 
Q 2819 -91 2034 -91 
Q 1250 -91 836 529 
Q 422 1150 422 2328 
Q 422 3509 836 4129 
Q 1250 4750 2034 4750 
z
" transform="scale(0.015625)"/>
       </defs>
       <use xlink:href="#DejaVuSans-30"/>
      </g>
     </g>
    </g>
    <g id="xtick_2">
     <g id="line2d_2">
      <g>
       <use xlink:href="#m96a7da7cd5" x="173.617198" y="384.48" style="stroke: #000000; stroke-width: 0.8"/>
      </g>
     </g>
     <g id="text_2">
      <!-- 100 -->
      <g transform="translate(164.073448 399.078438) scale(0.1 -0.1)">
       <defs>
        <path id="DejaVuSans-31" d="M 794 531 
L 1825 531 
L 1825 4091 
L 703 3866 
L 703 4441 
L 1819 4666 
L 2450 4666 
L 2450 531 
L 3481 531 
L 3481 0 
L 794 0 
L 794 531 
z
" transform="scale(0.015625)"/>
       </defs>
       <use xlink:href="#DejaVuSans-31"/>
       <use xlink:href="#DejaVuSans-30" x="63.623047"/>
       <use xlink:href="#DejaVuSans-30" x="127.246094"/>
      </g>
     </g>
    </g>
    <g id="xtick_3">
     <g id="line2d_3">
      <g>
       <use xlink:href="#m96a7da7cd5" x="254.943487" y="384.48" style="stroke: #000000; stroke-width: 0.8"/>
      </g>
     </g>
     <g id="text_3">
      <!-- 200 -->
      <g transform="translate(245.399737 399.078438) scale(0.1 -0.1)">
       <defs>
        <path id="DejaVuSans-32" d="M 1228 531 
L 3431 531 
L 3431 0 
L 469 0 
L 469 531 
Q 828 903 1448 1529 
Q 2069 2156 2228 2338 
Q 2531 2678 2651 2914 
Q 2772 3150 2772 3378 
Q 2772 3750 2511 3984 
Q 2250 4219 1831 4219 
Q 1534 4219 1204 4116 
Q 875 4013 500 3803 
L 500 4441 
Q 881 4594 1212 4672 
Q 1544 4750 1819 4750 
Q 2544 4750 2975 4387 
Q 3406 4025 3406 3419 
Q 3406 3131 3298 2873 
Q 3191 2616 2906 2266 
Q 2828 2175 2409 1742 
Q 1991 1309 1228 531 
z
" transform="scale(0.015625)"/>
       </defs>
       <use xlink:href="#DejaVuSans-32"/>
       <use xlink:href="#DejaVuSans-30" x="63.623047"/>
       <use xlink:href="#DejaVuSans-30" x="127.246094"/>
      </g>
     </g>
    </g>
    <g id="xtick_4">
     <g id="line2d_4">
      <g>
       <use xlink:href="#m96a7da7cd5" x="336.269776" y="384.48" style="stroke: #000000; stroke-width: 0.8"/>
      </g>
     </g>
     <g id="text_4">
      <!-- 300 -->
      <g transform="translate(326.726026 399.078438) scale(0.1 -0.1)">
       <defs>
        <path id="DejaVuSans-33" d="M 2597 2516 
Q 3050 2419 3304 2112 
Q 3559 1806 3559 1356 
Q 3559 666 3084 287 
Q 2609 -91 1734 -91 
Q 1441 -91 1130 -33 
Q 819 25 488 141 
L 488 750 
Q 750 597 1062 519 
Q 1375 441 1716 441 
Q 2309 441 2620 675 
Q 2931 909 2931 1356 
Q 2931 1769 2642 2001 
Q 2353 2234 1838 2234 
L 1294 2234 
L 1294 2753 
L 1863 2753 
Q 2328 2753 2575 2939 
Q 2822 3125 2822 3475 
Q 2822 3834 2567 4026 
Q 2313 4219 1838 4219 
Q 1578 4219 1281 4162 
Q 984 4106 628 3988 
L 628 4550 
Q 988 4650 1302 4700 
Q 1616 4750 1894 4750 
Q 2613 4750 3031 4423 
Q 3450 4097 3450 3541 
Q 3450 3153 3228 2886 
Q 3006 2619 2597 2516 
z
" transform="scale(0.015625)"/>
       </defs>
       <use xlink:href="#DejaVuSans-33"/>
       <use xlink:href="#DejaVuSans-30" x="63.623047"/>
       <use xlink:href="#DejaVuSans-30" x="127.246094"/>
      </g>
     </g>
    </g>
    <g id="xtick_5">
     <g id="line2d_5">
      <g>
       <use xlink:href="#m96a7da7cd5" x="417.596065" y="384.48" style="stroke: #000000; stroke-width: 0.8"/>
      </g>
     </g>
     <g id="text_5">
      <!-- 400 -->
      <g transform="translate(408.052315 399.078438) scale(0.1 -0.1)">
       <defs>
        <path id="DejaVuSans-34" d="M 2419 4116 
L 825 1625 
L 2419 1625 
L 2419 4116 
z
M 2253 4666 
L 3047 4666 
L 3047 1625 
L 3713 1625 
L 3713 1100 
L 3047 1100 
L 3047 0 
L 2419 0 
L 2419 1100 
L 313 1100 
L 313 1709 
L 2253 4666 
z
" transform="scale(0.015625)"/>
       </defs>
       <use xlink:href="#DejaVuSans-34"/>
       <use xlink:href="#DejaVuSans-30" x="63.623047"/>
       <use xlink:href="#DejaVuSans-30" x="127.246094"/>
      </g>
     </g>
    </g>
    <g id="xtick_6">
     <g id="line2d_6">
      <g>
       <use xlink:href="#m96a7da7cd5" x="498.922354" y="384.48" style="stroke: #000000; stroke-width: 0.8"/>
      </g>
     </g>
     <g id="text_6">
      <!-- 500 -->
      <g transform="translate(489.378604 399.078438) scale(0.1 -0.1)">
       <defs>
        <path id="DejaVuSans-35" d="M 691 4666 
L 3169 4666 
L 3169 4134 
L 1269 4134 
L 1269 2991 
Q 1406 3038 1543 3061 
Q 1681 3084 1819 3084 
Q 2600 3084 3056 2656 
Q 3513 2228 3513 1497 
Q 3513 744 3044 326 
Q 2575 -91 1722 -91 
Q 1428 -91 1123 -41 
Q 819 9 494 109 
L 494 744 
Q 775 591 1075 516 
Q 1375 441 1709 441 
Q 2250 441 2565 725 
Q 2881 1009 2881 1497 
Q 2881 1984 2565 2268 
Q 2250 2553 1709 2553 
Q 1456 2553 1204 2497 
Q 953 2441 691 2322 
L 691 4666 
z
" transform="scale(0.015625)"/>
       </defs>
       <use xlink:href="#DejaVuSans-35"/>
       <use xlink:href="#DejaVuSans-30" x="63.623047"/>
       <use xlink:href="#DejaVuSans-30" x="127.246094"/>
      </g>
     </g>
    </g>
    <g id="text_7">
     <!-- epoch -->
     <g transform="translate(279.971875 412.756563) scale(0.1 -0.1)">
      <defs>
       <path id="DejaVuSans-65" d="M 3597 1894 
L 3597 1613 
L 953 1613 
Q 991 1019 1311 708 
Q 1631 397 2203 397 
Q 2534 397 2845 478 
Q 3156 559 3463 722 
L 3463 178 
Q 3153 47 2828 -22 
Q 2503 -91 2169 -91 
Q 1331 -91 842 396 
Q 353 884 353 1716 
Q 353 2575 817 3079 
Q 1281 3584 2069 3584 
Q 2775 3584 3186 3129 
Q 3597 2675 3597 1894 
z
M 3022 2063 
Q 3016 2534 2758 2815 
Q 2500 3097 2075 3097 
Q 1594 3097 1305 2825 
Q 1016 2553 972 2059 
L 3022 2063 
z
" transform="scale(0.015625)"/>
       <path id="DejaVuSans-70" d="M 1159 525 
L 1159 -1331 
L 581 -1331 
L 581 3500 
L 1159 3500 
L 1159 2969 
Q 1341 3281 1617 3432 
Q 1894 3584 2278 3584 
Q 2916 3584 3314 3078 
Q 3713 2572 3713 1747 
Q 3713 922 3314 415 
Q 2916 -91 2278 -91 
Q 1894 -91 1617 61 
Q 1341 213 1159 525 
z
M 3116 1747 
Q 3116 2381 2855 2742 
Q 2594 3103 2138 3103 
Q 1681 3103 1420 2742 
Q 1159 2381 1159 1747 
Q 1159 1113 1420 752 
Q 1681 391 2138 391 
Q 2594 391 2855 752 
Q 3116 1113 3116 1747 
z
" transform="scale(0.015625)"/>
       <path id="DejaVuSans-6f" d="M 1959 3097 
Q 1497 3097 1228 2736 
Q 959 2375 959 1747 
Q 959 1119 1226 758 
Q 1494 397 1959 397 
Q 2419 397 2687 759 
Q 2956 1122 2956 1747 
Q 2956 2369 2687 2733 
Q 2419 3097 1959 3097 
z
M 1959 3584 
Q 2709 3584 3137 3096 
Q 3566 2609 3566 1747 
Q 3566 888 3137 398 
Q 2709 -91 1959 -91 
Q 1206 -91 779 398 
Q 353 888 353 1747 
Q 353 2609 779 3096 
Q 1206 3584 1959 3584 
z
" transform="scale(0.015625)"/>
       <path id="DejaVuSans-63" d="M 3122 3366 
L 3122 2828 
Q 2878 2963 2633 3030 
Q 2388 3097 2138 3097 
Q 1578 3097 1268 2742 
Q 959 2388 959 1747 
Q 959 1106 1268 751 
Q 1578 397 2138 397 
Q 2388 397 2633 464 
Q 2878 531 3122 666 
L 3122 134 
Q 2881 22 2623 -34 
Q 2366 -91 2075 -91 
Q 1284 -91 818 406 
Q 353 903 353 1747 
Q 353 2603 823 3093 
Q 1294 3584 2113 3584 
Q 2378 3584 2631 3529 
Q 2884 3475 3122 3366 
z
" transform="scale(0.015625)"/>
       <path id="DejaVuSans-68" d="M 3513 2113 
L 3513 0 
L 2938 0 
L 2938 2094 
Q 2938 2591 2744 2837 
Q 2550 3084 2163 3084 
Q 1697 3084 1428 2787 
Q 1159 2491 1159 1978 
L 1159 0 
L 581 0 
L 581 4863 
L 1159 4863 
L 1159 2956 
Q 1366 3272 1645 3428 
Q 1925 3584 2291 3584 
Q 2894 3584 3203 3211 
Q 3513 2838 3513 2113 
z
" transform="scale(0.015625)"/>
      </defs>
      <use xlink:href="#DejaVuSans-65"/>
      <use xlink:href="#DejaVuSans-70" x="61.523438"/>
      <use xlink:href="#DejaVuSans-6f" x="125"/>
      <use xlink:href="#DejaVuSans-63" x="186.181641"/>
      <use xlink:href="#DejaVuSans-68" x="241.162109"/>
     </g>
    </g>
   </g>
   <g id="matplotlib.axis_2">
    <g id="ytick_1">
     <g id="line2d_7">
      <defs>
       <path id="m310d576ad4" d="M 0 0 
L -3.5 0 
" style="stroke: #000000; stroke-width: 0.8"/>
      </defs>
      <g>
       <use xlink:href="#m310d576ad4" x="72" y="384.48" style="stroke: #000000; stroke-width: 0.8"/>
      </g>
     </g>
     <g id="text_8">
      <!-- 0.0 -->
      <g transform="translate(49.096875 388.279219) scale(0.1 -0.1)">
       <defs>
        <path id="DejaVuSans-2e" d="M 684 794 
L 1344 794 
L 1344 0 
L 684 0 
L 684 794 
z
" transform="scale(0.015625)"/>
       </defs>
       <use xlink:href="#DejaVuSans-30"/>
       <use xlink:href="#DejaVuSans-2e" x="63.623047"/>
       <use xlink:href="#DejaVuSans-30" x="95.410156"/>
      </g>
     </g>
    </g>
    <g id="ytick_2">
     <g id="line2d_8">
      <g>
       <use xlink:href="#m310d576ad4" x="72" y="317.952" style="stroke: #000000; stroke-width: 0.8"/>
      </g>
     </g>
     <g id="text_9">
      <!-- 0.2 -->
      <g transform="translate(49.096875 321.751219) scale(0.1 -0.1)">
       <use xlink:href="#DejaVuSans-30"/>
       <use xlink:href="#DejaVuSans-2e" x="63.623047"/>
       <use xlink:href="#DejaVuSans-32" x="95.410156"/>
      </g>
     </g>
    </g>
    <g id="ytick_3">
     <g id="line2d_9">
      <g>
       <use xlink:href="#m310d576ad4" x="72" y="251.424" style="stroke: #000000; stroke-width: 0.8"/>
      </g>
     </g>
     <g id="text_10">
      <!-- 0.4 -->
      <g transform="translate(49.096875 255.223219) scale(0.1 -0.1)">
       <use xlink:href="#DejaVuSans-30"/>
       <use xlink:href="#DejaVuSans-2e" x="63.623047"/>
       <use xlink:href="#DejaVuSans-34" x="95.410156"/>
      </g>
     </g>
    </g>
    <g id="ytick_4">
     <g id="line2d_10">
      <g>
       <use xlink:href="#m310d576ad4" x="72" y="184.896" style="stroke: #000000; stroke-width: 0.8"/>
      </g>
     </g>
     <g id="text_11">
      <!-- 0.6 -->
      <g transform="translate(49.096875 188.695219) scale(0.1 -0.1)">
       <defs>
        <path id="DejaVuSans-36" d="M 2113 2584 
Q 1688 2584 1439 2293 
Q 1191 2003 1191 1497 
Q 1191 994 1439 701 
Q 1688 409 2113 409 
Q 2538 409 2786 701 
Q 3034 994 3034 1497 
Q 3034 2003 2786 2293 
Q 2538 2584 2113 2584 
z
M 3366 4563 
L 3366 3988 
Q 3128 4100 2886 4159 
Q 2644 4219 2406 4219 
Q 1781 4219 1451 3797 
Q 1122 3375 1075 2522 
Q 1259 2794 1537 2939 
Q 1816 3084 2150 3084 
Q 2853 3084 3261 2657 
Q 3669 2231 3669 1497 
Q 3669 778 3244 343 
Q 2819 -91 2113 -91 
Q 1303 -91 875 529 
Q 447 1150 447 2328 
Q 447 3434 972 4092 
Q 1497 4750 2381 4750 
Q 2619 4750 2861 4703 
Q 3103 4656 3366 4563 
z
" transform="scale(0.015625)"/>
       </defs>
       <use xlink:href="#DejaVuSans-30"/>
       <use xlink:href="#DejaVuSans-2e" x="63.623047"/>
       <use xlink:href="#DejaVuSans-36" x="95.410156"/>
      </g>
     </g>
    </g>
    <g id="ytick_5">
     <g id="line2d_11">
      <g>
       <use xlink:href="#m310d576ad4" x="72" y="118.368" style="stroke: #000000; stroke-width: 0.8"/>
      </g>
     </g>
     <g id="text_12">
      <!-- 0.8 -->
      <g transform="translate(49.096875 122.167219) scale(0.1 -0.1)">
       <defs>
        <path id="DejaVuSans-38" d="M 2034 2216 
Q 1584 2216 1326 1975 
Q 1069 1734 1069 1313 
Q 1069 891 1326 650 
Q 1584 409 2034 409 
Q 2484 409 2743 651 
Q 3003 894 3003 1313 
Q 3003 1734 2745 1975 
Q 2488 2216 2034 2216 
z
M 1403 2484 
Q 997 2584 770 2862 
Q 544 3141 544 3541 
Q 544 4100 942 4425 
Q 1341 4750 2034 4750 
Q 2731 4750 3128 4425 
Q 3525 4100 3525 3541 
Q 3525 3141 3298 2862 
Q 3072 2584 2669 2484 
Q 3125 2378 3379 2068 
Q 3634 1759 3634 1313 
Q 3634 634 3220 271 
Q 2806 -91 2034 -91 
Q 1263 -91 848 271 
Q 434 634 434 1313 
Q 434 1759 690 2068 
Q 947 2378 1403 2484 
z
M 1172 3481 
Q 1172 3119 1398 2916 
Q 1625 2713 2034 2713 
Q 2441 2713 2670 2916 
Q 2900 3119 2900 3481 
Q 2900 3844 2670 4047 
Q 2441 4250 2034 4250 
Q 1625 4250 1398 4047 
Q 1172 3844 1172 3481 
z
" transform="scale(0.015625)"/>
       </defs>
       <use xlink:href="#DejaVuSans-30"/>
       <use xlink:href="#DejaVuSans-2e" x="63.623047"/>
       <use xlink:href="#DejaVuSans-38" x="95.410156"/>
      </g>
     </g>
    </g>
    <g id="ytick_6">
     <g id="line2d_12">
      <g>
       <use xlink:href="#m310d576ad4" x="72" y="51.84" style="stroke: #000000; stroke-width: 0.8"/>
      </g>
     </g>
     <g id="text_13">
      <!-- 1.0 -->
      <g transform="translate(49.096875 55.639219) scale(0.1 -0.1)">
       <use xlink:href="#DejaVuSans-31"/>
       <use xlink:href="#DejaVuSans-2e" x="63.623047"/>
       <use xlink:href="#DejaVuSans-30" x="95.410156"/>
      </g>
     </g>
    </g>
    <g id="text_14">
     <!-- rate -->
     <g transform="translate(43.017187 228.31625) rotate(-90) scale(0.1 -0.1)">
      <defs>
       <path id="DejaVuSans-72" d="M 2631 2963 
Q 2534 3019 2420 3045 
Q 2306 3072 2169 3072 
Q 1681 3072 1420 2755 
Q 1159 2438 1159 1844 
L 1159 0 
L 581 0 
L 581 3500 
L 1159 3500 
L 1159 2956 
Q 1341 3275 1631 3429 
Q 1922 3584 2338 3584 
Q 2397 3584 2469 3576 
Q 2541 3569 2628 3553 
L 2631 2963 
z
" transform="scale(0.015625)"/>
       <path id="DejaVuSans-61" d="M 2194 1759 
Q 1497 1759 1228 1600 
Q 959 1441 959 1056 
Q 959 750 1161 570 
Q 1363 391 1709 391 
Q 2188 391 2477 730 
Q 2766 1069 2766 1631 
L 2766 1759 
L 2194 1759 
z
M 3341 1997 
L 3341 0 
L 2766 0 
L 2766 531 
Q 2569 213 2275 61 
Q 1981 -91 1556 -91 
Q 1019 -91 701 211 
Q 384 513 384 1019 
Q 384 1609 779 1909 
Q 1175 2209 1959 2209 
L 2766 2209 
L 2766 2266 
Q 2766 2663 2505 2880 
Q 2244 3097 1772 3097 
Q 1472 3097 1187 3025 
Q 903 2953 641 2809 
L 641 3341 
Q 956 3463 1253 3523 
Q 1550 3584 1831 3584 
Q 2591 3584 2966 3190 
Q 3341 2797 3341 1997 
z
" transform="scale(0.015625)"/>
       <path id="DejaVuSans-74" d="M 1172 4494 
L 1172 3500 
L 2356 3500 
L 2356 3053 
L 1172 3053 
L 1172 1153 
Q 1172 725 1289 603 
Q 1406 481 1766 481 
L 2356 481 
L 2356 0 
L 1766 0 
Q 1100 0 847 248 
Q 594 497 594 1153 
L 594 3053 
L 172 3053 
L 172 3500 
L 594 3500 
L 594 4494 
L 1172 4494 
z
" transform="scale(0.015625)"/>
      </defs>
      <use xlink:href="#DejaVuSans-72"/>
      <use xlink:href="#DejaVuSans-61" x="41.113281"/>
      <use xlink:href="#DejaVuSans-74" x="102.392578"/>
      <use xlink:href="#DejaVuSans-65" x="141.601562"/>
     </g>
    </g>
   </g>
   <g id="line2d_13">
    <path d="M 92.290909 374.317994 
L 93.104172 374.099207 
L 93.917435 365.320588 
L 94.730698 303.253954 
L 95.543961 178.723307 
L 96.357224 171.590405 
L 97.170486 151.989681 
L 97.983749 159.551994 
L 98.797012 151.289078 
L 99.610275 159.255007 
L 100.423538 187.151182 
L 101.236801 194.399992 
L 102.050064 167.245719 
L 102.863327 127.238407 
L 103.67659 135 
L 104.489852 140.543995 
L 105.303115 128.603072 
L 106.116378 139.157996 
L 106.929641 129.600008 
L 107.742904 129.86666 
L 108.556167 141.205975 
L 109.36943 135 
L 110.182693 126.24631 
L 110.995956 143.315992 
L 111.809218 149.198055 
L 112.622481 134.065618 
L 113.435744 144.83612 
L 114.249007 135.913841 
L 115.06227 138.615651 
L 115.875533 135 
L 116.688796 132.867697 
L 117.502059 139.157996 
L 118.315322 120.960005 
L 119.128584 141.084872 
L 119.941847 122.803192 
L 120.75511 132.971709 
L 121.568373 134.021642 
L 122.381636 130.328091 
L 123.194899 135.875377 
L 124.008162 160.703995 
L 124.821425 162.719993 
L 125.634688 148.025057 
L 126.44795 127.986516 
L 127.261213 139.569226 
L 128.074476 122.281408 
L 128.887739 113.306092 
L 129.701002 124.947688 
L 130.514265 132.577868 
L 131.327528 133.302858 
L 132.140791 118.367996 
L 132.954054 148.130536 
L 133.767316 149.926158 
L 134.580579 125.280006 
L 135.393842 122.281408 
L 136.207105 125.759996 
L 137.020368 119.115509 
L 137.833631 122.399992 
L 138.646894 123.120006 
L 139.460157 108.326034 
L 140.27342 118.367996 
L 141.086682 153.5887 
L 141.899945 138.779996 
L 142.713208 131.220004 
L 143.526471 130.529037 
L 144.339734 122.61446 
L 145.152997 124.947688 
L 145.96626 99.816928 
L 146.779523 125.759996 
L 147.592786 110.714341 
L 148.406048 112.059318 
L 149.219311 146.293337 
L 150.032574 120.801945 
L 150.845837 125.330228 
L 151.6591 109.690441 
L 152.472363 121.869464 
L 153.285626 118.367996 
L 154.098889 102.784874 
L 154.912152 103.719633 
L 155.725414 98.963995 
L 156.538677 112.320002 
L 157.35194 140.801863 
L 158.165203 128.915128 
L 159.791729 110.32615 
L 160.604992 111.715202 
L 161.418255 101.735992 
L 162.231518 97.496468 
L 163.04478 96.943734 
L 163.858043 95.825458 
L 164.671306 99.740158 
L 165.484569 138.960005 
L 166.297832 116.921743 
L 167.111095 104.362103 
L 167.924358 109.068392 
L 168.737621 105.599995 
L 169.550884 90.974115 
L 170.364146 91.440008 
L 171.177409 107.280007 
L 171.990672 109.993852 
L 172.803935 96.791344 
L 173.617198 126.153183 
L 174.430461 122.399992 
L 175.243724 103.015382 
L 176.056987 101.382122 
L 176.87025 102.239992 
L 177.683512 91.756802 
L 178.496775 87.164597 
L 179.310038 86.359248 
L 180.123301 96.390008 
L 180.936564 96.564703 
L 181.749827 152.40559 
L 182.56309 125.370952 
L 183.376353 114.866528 
L 184.189616 106.148565 
L 185.002878 101.241985 
L 185.816141 105.599995 
L 186.629404 98.939469 
L 187.442667 90.797834 
L 188.25593 85.72001 
L 189.069193 87.480003 
L 189.882456 132.258457 
L 190.695719 121.002771 
L 191.508982 130.713407 
L 192.322244 94.655057 
L 193.135507 108.863997 
L 193.94877 109.412309 
L 194.762033 87.876005 
L 195.575296 87.480003 
L 196.388559 94.175999 
L 197.201822 82.848818 
L 198.015085 129.908574 
L 198.828348 115.041599 
L 199.64161 118.367996 
L 200.454873 101.241985 
L 201.268136 100.282721 
L 202.081399 83.221128 
L 202.894662 98.120341 
L 203.707925 91.152002 
L 204.521188 89.772626 
L 205.334451 85.956921 
L 206.147714 139.779311 
L 206.960976 131.384349 
L 207.774239 94.761289 
L 208.587502 89.855998 
L 209.400765 105.695997 
L 210.214028 98.471772 
L 211.027291 85.667805 
L 211.840554 89.145422 
L 212.653817 86.490007 
L 213.46708 98.526316 
L 214.280343 129.908574 
L 215.093605 128.347206 
L 215.906868 110.744993 
L 216.720131 100.757654 
L 217.533394 95.083198 
L 218.346657 88.460918 
L 219.15992 94.853801 
L 219.973183 81.540006 
L 221.599709 93.42 
L 222.412971 136.630583 
L 223.226234 133.369417 
L 224.039497 104.199999 
L 224.85276 85.782861 
L 225.666023 86.687998 
L 226.479286 89.145422 
L 227.292549 87.578186 
L 228.105812 86.550261 
L 228.919075 89.145422 
L 229.732337 96.366613 
L 230.5456 109.690441 
L 231.358863 115.680005 
L 232.172126 102.239992 
L 232.985389 101.11999 
L 233.798652 101.735992 
L 234.611915 107.798123 
L 235.425178 95.362995 
L 236.238441 92.335311 
L 237.051703 93.769409 
L 237.864966 90.797834 
L 238.678229 140.308094 
L 239.491492 115.041599 
L 240.304755 110.359995 
L 241.118018 100.282721 
L 241.931281 94.959994 
L 242.744544 90.449992 
L 243.557807 82.079991 
L 244.371069 91.152002 
L 245.184332 77.427691 
L 245.997595 105.299994 
L 246.810858 122.399992 
L 247.624121 121.139993 
L 248.437384 107.280007 
L 249.250647 106.771368 
L 250.06391 80.515868 
L 250.877173 71.030763 
L 251.690435 87.285243 
L 252.503698 79.330914 
L 253.316961 92.405855 
L 254.130224 83.221128 
L 254.943487 117.740376 
L 255.75675 103.512224 
L 256.570013 114.015696 
L 257.383276 98.911691 
L 258.196539 96.564703 
L 259.009801 90.449992 
L 259.823064 81.018955 
L 261.44959 92.405855 
L 262.262853 95.995751 
L 263.076116 125.432911 
L 263.889379 117.709307 
L 264.702642 112.874857 
L 266.329167 85.104008 
L 267.14243 95.995751 
L 267.955693 91.643075 
L 268.768956 84.829088 
L 269.582219 82.331991 
L 270.395482 90.011797 
L 271.208745 125.02081 
L 272.022008 117.740376 
L 272.835271 100.223994 
L 273.648533 110.90692 
L 274.461796 92.254199 
L 275.275059 107.280007 
L 276.901585 80.76521 
L 277.714848 87.578186 
L 278.528111 85.889767 
L 279.341374 123.120006 
L 280.154637 106.272008 
L 280.967899 99.816928 
L 281.781162 110.359995 
L 282.594425 104.950585 
L 283.407688 87.480003 
L 284.220951 95.464926 
L 285.034214 95.464926 
L 285.847477 85.383527 
L 286.66074 78.810815 
L 287.474003 117.740376 
L 288.287265 104.01882 
L 289.100528 102.049812 
L 289.913791 109.542849 
L 290.727054 96.791344 
L 291.540317 86.687998 
L 292.35358 74.668244 
L 293.166843 94.486151 
L 293.980106 76.379007 
L 294.793369 90.648003 
L 295.606631 115.199996 
L 296.419894 115.343999 
L 297.233157 103.719633 
L 298.04642 104.362103 
L 298.859683 77.210844 
L 299.672946 95.362995 
L 300.486209 82.640001 
L 301.299472 79.305694 
L 302.112735 88.799998 
L 302.925997 75.983223 
L 303.73926 119.007691 
L 304.552523 109.823122 
L 305.365786 91.512653 
L 306.179049 90.974115 
L 306.992312 101.323632 
L 307.805575 89.497349 
L 308.618838 82.927848 
L 309.432101 89.118616 
L 310.245363 80.029831 
L 311.058626 89.442786 
L 311.871889 121.002771 
L 312.685152 133.43094 
L 313.498415 99.359997 
L 314.311678 105.927813 
L 315.124941 103.719633 
L 316.751467 72.446026 
L 317.564729 91.986199 
L 318.377992 84.220879 
L 319.191255 80.270768 
L 320.004518 104.689346 
L 320.817781 107.770623 
L 321.631044 126.758914 
L 322.444307 105.299994 
L 323.25757 107.280007 
L 324.070833 79.559993 
L 325.697358 103.223405 
L 326.510621 95.110242 
L 327.323884 88.799998 
L 328.137147 111.464154 
L 328.95041 127.154718 
L 329.763673 100.667898 
L 330.576936 100.223994 
L 331.390199 103.512224 
L 332.203461 83.519998 
L 333.016724 98.120341 
L 333.829987 83.38345 
L 334.64325 82.079991 
L 335.456513 87.164597 
L 336.269776 103.512224 
L 337.083039 114.771894 
L 337.896302 118.367996 
L 338.709565 95.362995 
L 339.522827 89.118616 
L 341.149353 85.104008 
L 341.962616 79.305694 
L 342.775879 94.175999 
L 343.589142 84.804325 
L 344.402405 124.016597 
L 345.215668 115.199996 
L 346.028931 118.367996 
L 346.842193 106.272008 
L 347.655456 107.770623 
L 348.468719 104.362103 
L 349.281982 95.362995 
L 350.095245 90.974115 
L 350.908508 84.509994 
L 351.721771 89.118616 
L 352.535034 113.857637 
L 353.348297 107.828914 
L 354.161559 98.471772 
L 354.974822 104.362103 
L 355.788085 97.199996 
L 356.601348 104.199999 
L 357.414611 93.052033 
L 358.227874 87.480003 
L 359.041137 83.936839 
L 359.8544 85.383527 
L 360.667663 109.542849 
L 362.294188 101.580569 
L 363.107451 95.520005 
L 363.920714 97.199996 
L 364.733977 93.42 
L 365.54724 98.963995 
L 366.360503 98.120341 
L 367.173766 86.160008 
L 367.987029 98.939469 
L 368.800291 125.133565 
L 369.613554 84.774644 
L 370.426817 105.299994 
L 371.24008 110.90692 
L 372.053343 85.104008 
L 372.866606 95.608413 
L 373.679869 98.939469 
L 374.493132 83.657736 
L 375.306395 83.936839 
L 376.119657 88.486773 
L 376.93292 117.768649 
L 377.746183 98.471772 
L 378.559446 115.926612 
L 379.372709 103.905391 
L 380.185972 94.175999 
L 380.999235 104.362103 
L 381.812498 118.367996 
L 382.625761 88.460918 
L 383.439024 100.588967 
L 384.252286 85.104008 
L 385.065549 112.874857 
L 385.878812 131.801546 
L 386.692075 102.527997 
L 387.505338 100.667898 
L 388.318601 96.618454 
L 389.945127 83.824618 
L 390.75839 100.223994 
L 391.571652 94.853801 
L 392.384915 87.164597 
L 393.198178 122.030082 
L 394.011441 115.809237 
L 394.824704 115.199996 
L 397.264493 96.564703 
L 398.077756 96.390008 
L 398.891018 100.172305 
L 399.704281 81.190596 
L 400.517544 86.036645 
L 401.330807 106.708457 
L 402.14407 111.464154 
L 402.957333 106.797916 
L 403.770596 104.53545 
L 404.583859 103.45655 
L 405.397122 98.471772 
L 406.210384 91.643075 
L 407.023647 98.939469 
L 407.83691 87.801079 
L 408.650173 85.409183 
L 409.463436 106.272008 
L 410.276699 78.451194 
L 411.089962 108.219662 
L 411.903225 81.481179 
L 412.716488 96.420621 
L 413.52975 89.562064 
L 414.343013 106.213855 
L 415.156276 89.772626 
L 415.969539 103.45655 
L 416.782802 104.639997 
L 417.596065 102.784874 
L 418.409328 112.320002 
L 419.222591 111.239992 
L 420.035854 97.329228 
L 420.849116 97.199996 
L 421.662379 98.939469 
L 422.475642 99.788099 
L 423.288905 94.564408 
L 424.102168 106.272008 
L 424.915431 76.253939 
L 425.728694 110.359995 
L 426.541957 117.709307 
L 428.168482 85.439994 
L 428.981745 116.676604 
L 429.795008 104.508009 
L 430.608271 85.956921 
L 431.421534 90.797834 
L 432.234797 93.794589 
L 433.04806 100.223994 
L 433.861323 112.610763 
L 434.674586 119.495591 
L 435.487848 108.270003 
L 436.301111 89.855998 
L 437.114374 96.191997 
L 437.927637 97.199996 
L 438.7409 110.714341 
L 439.554163 85.409183 
L 440.367426 88.128005 
L 441.180689 86.687998 
L 441.993952 115.343999 
L 442.807214 93.42 
L 443.620477 101.11999 
L 445.247003 118.367996 
L 446.060266 117.768649 
L 446.873529 96.618454 
L 447.686792 107.745879 
L 448.500055 112.320002 
L 449.313318 98.526316 
L 450.12658 100.667898 
L 450.939843 105.299994 
L 451.753106 91.512653 
L 452.566369 91.512653 
L 453.379632 102.581688 
L 454.192895 103.45655 
L 455.006158 91.512653 
L 455.819421 102.330006 
L 456.632684 95.362995 
L 457.445946 96.191997 
L 458.259209 111.464154 
L 459.072472 109.191715 
L 459.885735 110.714341 
L 460.698998 95.608413 
L 461.512261 108.863997 
L 462.325524 105.299994 
L 463.138787 91.30576 
L 463.95205 96.564703 
L 464.765312 78.333443 
L 465.578575 94.564408 
L 466.391838 100.282721 
L 467.205101 102.527997 
L 468.018364 114.21 
L 468.831627 122.489213 
L 469.64489 112.610763 
L 470.458153 112.582966 
L 471.271416 105.299994 
L 472.084678 75.360004 
L 472.897941 108.701535 
L 473.711204 93.769409 
L 474.524467 124.016597 
L 475.33773 109.191715 
L 476.150993 107.280007 
L 476.964256 94.959994 
L 477.777519 105.858458 
L 478.590782 108.863997 
L 479.404044 109.823122 
L 480.217307 108.701535 
L 481.03057 100.172305 
L 481.843833 85.409183 
L 482.657096 108.863997 
L 483.470359 100.667898 
L 484.283622 103.905391 
L 485.096885 103.247991 
L 485.910148 103.45655 
L 486.72341 93.794589 
L 487.536673 117.768649 
L 488.349936 92.254199 
L 489.163199 80.626145 
L 489.976462 90.449992 
L 490.789725 112.874857 
L 491.602988 107.798123 
L 492.416251 103.719633 
L 494.042776 108.778384 
L 494.856039 95.773591 
L 495.669302 97.329228 
L 496.482565 112.320002 
L 497.295828 97.053198 
L 498.109091 90.594173 
L 498.109091 90.594173 
" clip-path="url(#p72ae9e9ce1)" style="fill: none; stroke: #0000ff; stroke-width: 1.5; stroke-linecap: square"/>
   </g>
   <g id="line2d_14">
    <path d="M 92.290909 216.792995 
L 93.917435 298.813812 
L 94.730698 327.065424 
L 95.543961 329.799452 
L 96.357224 326.154081 
L 97.170486 325.242738 
L 97.983749 319.774685 
L 99.610275 325.242738 
L 100.423538 320.686028 
L 101.236801 326.154081 
L 102.050064 326.154081 
L 102.863327 331.622138 
L 103.67659 335.267505 
L 104.489852 334.356162 
L 105.303115 329.799452 
L 106.116378 330.710795 
L 106.929641 330.710795 
L 107.742904 327.976767 
L 108.556167 339.82422 
L 110.182693 330.710795 
L 110.995956 331.622138 
L 111.809218 331.622138 
L 112.622481 323.420057 
L 113.435744 323.420057 
L 114.249007 322.508714 
L 115.06227 322.508714 
L 115.875533 324.3314 
L 116.688796 330.710795 
L 117.502059 330.710795 
L 118.315322 328.88811 
L 119.941847 330.710795 
L 120.75511 327.976767 
L 121.568373 326.154081 
L 122.381636 322.508714 
L 124.008162 317.040656 
L 124.821425 331.622138 
L 125.634688 330.710795 
L 126.44795 326.154081 
L 127.261213 323.420057 
L 128.074476 323.420057 
L 128.887739 316.129313 
L 129.701002 319.774685 
L 130.514265 313.395289 
L 131.327528 317.040656 
L 132.140791 307.927231 
L 132.954054 335.267505 
L 133.767316 334.356162 
L 134.580579 329.799452 
L 135.393842 323.420057 
L 136.207105 327.065424 
L 137.833631 313.395289 
L 138.646894 314.306632 
L 139.460157 304.281865 
L 140.27342 300.636498 
L 141.086682 330.710795 
L 141.899945 325.242738 
L 142.713208 323.420057 
L 143.526471 319.774685 
L 144.339734 317.040656 
L 145.152997 319.774685 
L 145.96626 303.370522 
L 146.779523 314.306632 
L 147.592786 299.725155 
L 148.406048 297.902469 
L 149.219311 331.622138 
L 150.032574 325.242738 
L 150.845837 323.420057 
L 151.6591 315.21797 
L 152.472363 316.129313 
L 153.285626 311.572603 
L 154.098889 298.813812 
L 154.912152 300.636498 
L 155.725414 290.611725 
L 156.538677 294.257097 
L 157.35194 327.065424 
L 158.165203 327.065424 
L 158.978466 319.774685 
L 159.791729 316.129313 
L 160.604992 309.749917 
L 162.231518 304.281865 
L 163.04478 291.523068 
L 163.858043 288.789039 
L 164.671306 286.966353 
L 165.484569 327.976767 
L 166.297832 317.040656 
L 167.111095 311.572603 
L 167.924358 314.306632 
L 168.737621 308.838574 
L 169.550884 302.459179 
L 170.364146 283.320982 
L 171.177409 293.345754 
L 171.990672 276.941591 
L 172.803935 267.828161 
L 173.617198 317.951999 
L 174.430461 313.395289 
L 175.243724 314.306632 
L 176.056987 311.572603 
L 177.683512 304.281865 
L 178.496775 292.434411 
L 179.310038 297.902469 
L 180.123301 296.079783 
L 180.936564 290.611725 
L 181.749827 329.799452 
L 182.56309 317.040656 
L 183.376353 314.306632 
L 184.189616 309.749917 
L 185.002878 306.104546 
L 185.816141 308.838574 
L 186.629404 296.079783 
L 187.442667 295.16844 
L 188.25593 296.079783 
L 189.069193 293.345754 
L 189.882456 321.597371 
L 190.695719 311.572603 
L 191.508982 317.040656 
L 192.322244 304.281865 
L 193.94877 306.104546 
L 194.762033 286.966353 
L 195.575296 293.345754 
L 196.388559 296.991126 
L 197.201822 286.966353 
L 198.015085 316.129313 
L 198.828348 310.66126 
L 199.64161 311.572603 
L 200.454873 306.104546 
L 201.268136 304.281865 
L 202.081399 296.991126 
L 202.894662 294.257097 
L 203.707925 296.079783 
L 205.334451 288.789039 
L 206.147714 326.154081 
L 206.960976 320.686028 
L 208.587502 299.725155 
L 209.400765 304.281865 
L 210.214028 300.636498 
L 211.027291 287.877696 
L 211.840554 297.902469 
L 212.653817 306.104546 
L 213.46708 295.16844 
L 214.280343 316.129313 
L 215.906868 312.483946 
L 216.720131 305.193208 
L 217.533394 305.193208 
L 218.346657 296.079783 
L 219.15992 292.434411 
L 219.973183 291.523068 
L 220.786446 285.143668 
L 221.599709 295.16844 
L 222.412971 315.21797 
L 223.226234 314.306632 
L 224.039497 301.547836 
L 224.85276 304.281865 
L 225.666023 298.813812 
L 226.479286 297.902469 
L 227.292549 286.05501 
L 228.105812 290.611725 
L 228.919075 297.902469 
L 229.732337 284.232325 
L 230.5456 315.21797 
L 232.172126 307.927231 
L 232.985389 300.636498 
L 233.798652 307.015889 
L 235.425178 299.725155 
L 236.238441 292.434411 
L 237.051703 289.700382 
L 237.864966 295.16844 
L 238.678229 321.597371 
L 239.491492 310.66126 
L 240.304755 303.370522 
L 241.118018 304.281865 
L 241.931281 298.813812 
L 242.744544 294.257097 
L 243.557807 293.345754 
L 244.371069 296.079783 
L 245.184332 286.05501 
L 245.997595 298.813812 
L 246.810858 313.395289 
L 247.624121 315.21797 
L 248.437384 302.459179 
L 249.250647 301.547836 
L 250.06391 287.877696 
L 250.877173 295.16844 
L 251.690435 285.143668 
L 252.503698 283.320982 
L 253.316961 286.05501 
L 254.943487 307.015889 
L 255.75675 305.193208 
L 256.570013 305.193208 
L 257.383276 301.547836 
L 258.196539 290.611725 
L 259.009801 294.257097 
L 259.823064 289.700382 
L 260.636327 291.523068 
L 261.44959 286.05501 
L 263.076116 304.281865 
L 263.889379 310.66126 
L 264.702642 303.370522 
L 265.515905 302.459179 
L 266.329167 294.257097 
L 267.14243 295.16844 
L 267.955693 290.611725 
L 268.768956 285.143668 
L 269.582219 285.143668 
L 270.395482 286.05501 
L 271.208745 313.395289 
L 272.022008 307.015889 
L 272.835271 298.813812 
L 273.648533 304.281865 
L 274.461796 298.813812 
L 275.275059 297.902469 
L 276.088322 291.523068 
L 277.714848 286.05501 
L 278.528111 280.586963 
L 279.341374 314.306632 
L 280.154637 300.636498 
L 280.967899 303.370522 
L 281.781162 303.370522 
L 282.594425 293.345754 
L 283.407688 293.345754 
L 284.220951 287.877696 
L 285.034214 287.877696 
L 285.847477 286.966353 
L 286.66074 291.523068 
L 287.474003 307.015889 
L 288.287265 306.104546 
L 289.100528 302.459179 
L 289.913791 310.66126 
L 290.727054 296.991126 
L 291.540317 298.813812 
L 292.35358 297.902469 
L 293.166843 291.523068 
L 293.980106 281.498306 
L 294.793369 287.877696 
L 295.606631 307.015889 
L 296.419894 303.370522 
L 297.233157 300.636498 
L 298.04642 296.991126 
L 298.859683 285.143668 
L 299.672946 299.725155 
L 300.486209 295.16844 
L 301.299472 293.345754 
L 302.112735 289.700382 
L 302.925997 279.67562 
L 303.73926 308.838574 
L 304.552523 302.459179 
L 305.365786 296.991126 
L 306.179049 288.789039 
L 306.992312 290.611725 
L 307.805575 298.813812 
L 308.618838 296.079783 
L 309.432101 290.611725 
L 310.245363 286.05501 
L 311.058626 291.523068 
L 311.871889 311.572603 
L 312.685152 311.572603 
L 313.498415 302.459179 
L 314.311678 290.611725 
L 315.124941 300.636498 
L 315.938204 296.991126 
L 316.751467 287.877696 
L 317.564729 291.523068 
L 318.377992 291.523068 
L 319.191255 286.966353 
L 320.004518 302.459179 
L 320.817781 298.813812 
L 321.631044 306.104546 
L 322.444307 298.813812 
L 323.25757 297.902469 
L 324.884095 290.611725 
L 325.697358 289.700382 
L 326.510621 286.966353 
L 327.323884 296.991126 
L 328.137147 305.193208 
L 328.95041 309.749917 
L 329.763673 299.725155 
L 330.576936 298.813812 
L 331.390199 305.193208 
L 332.203461 297.902469 
L 333.016724 294.257097 
L 333.829987 288.789039 
L 334.64325 293.345754 
L 335.456513 292.434411 
L 336.269776 305.193208 
L 337.083039 302.459179 
L 337.896302 304.281865 
L 338.709565 299.725155 
L 339.522827 290.611725 
L 341.149353 294.257097 
L 341.962616 293.345754 
L 342.775879 296.991126 
L 343.589142 293.345754 
L 344.402405 308.838574 
L 345.215668 307.015889 
L 346.028931 304.281865 
L 346.842193 300.636498 
L 348.468719 296.991126 
L 350.095245 302.459179 
L 350.908508 292.434411 
L 351.721771 290.611725 
L 352.535034 296.991126 
L 353.348297 307.927231 
L 354.161559 300.636498 
L 354.974822 296.991126 
L 355.788085 297.902469 
L 356.601348 301.547836 
L 357.414611 294.257097 
L 358.227874 293.345754 
L 359.041137 290.611725 
L 359.8544 286.966353 
L 360.667663 310.66126 
L 361.480925 299.725155 
L 362.294188 301.547836 
L 363.107451 306.104546 
L 363.920714 297.902469 
L 364.733977 295.16844 
L 365.54724 290.611725 
L 366.360503 294.257097 
L 367.173766 281.498306 
L 367.987029 296.079783 
L 368.800291 300.636498 
L 369.613554 301.547836 
L 370.426817 298.813812 
L 371.24008 304.281865 
L 372.053343 294.257097 
L 372.866606 294.257097 
L 373.679869 296.079783 
L 374.493132 289.700382 
L 375.306395 290.611725 
L 376.119657 288.789039 
L 376.93292 303.370522 
L 377.746183 300.636498 
L 378.559446 304.281865 
L 379.372709 296.079783 
L 380.185972 296.991126 
L 380.999235 296.991126 
L 381.812498 300.636498 
L 382.625761 296.079783 
L 383.439024 294.257097 
L 384.252286 294.257097 
L 385.878812 312.483946 
L 386.692075 303.370522 
L 387.505338 299.725155 
L 388.318601 302.459179 
L 389.131864 293.345754 
L 389.945127 298.813812 
L 390.75839 298.813812 
L 391.571652 292.434411 
L 392.384915 292.434411 
L 393.198178 306.104546 
L 394.011441 307.927231 
L 394.824704 307.015889 
L 395.637967 300.636498 
L 396.45123 292.434411 
L 397.264493 290.611725 
L 398.077756 296.079783 
L 398.891018 293.345754 
L 399.704281 299.725155 
L 400.517544 296.991126 
L 401.330807 310.66126 
L 402.14407 305.193208 
L 402.957333 296.991126 
L 403.770596 307.015889 
L 404.583859 295.16844 
L 405.397122 300.636498 
L 406.210384 290.611725 
L 407.023647 296.079783 
L 407.83691 294.257097 
L 408.650173 295.16844 
L 409.463436 300.636498 
L 410.276699 300.636498 
L 411.089962 295.16844 
L 411.903225 300.636498 
L 412.716488 307.927231 
L 413.52975 306.104546 
L 414.343013 305.193208 
L 415.156276 292.434411 
L 415.969539 295.16844 
L 416.782802 287.877696 
L 418.409328 310.66126 
L 419.222591 300.636498 
L 420.035854 292.434411 
L 420.849116 297.902469 
L 421.662379 296.079783 
L 422.475642 297.902469 
L 423.288905 297.902469 
L 424.102168 300.636498 
L 424.915431 292.434411 
L 425.728694 303.370522 
L 426.541957 310.66126 
L 427.35522 302.459179 
L 428.168482 303.370522 
L 429.795008 292.434411 
L 430.608271 288.789039 
L 431.421534 295.16844 
L 432.234797 296.079783 
L 433.04806 298.813812 
L 433.861323 307.015889 
L 434.674586 298.813812 
L 435.487848 299.725155 
L 436.301111 299.725155 
L 437.114374 301.547836 
L 437.927637 297.902469 
L 438.7409 299.725155 
L 439.554163 295.16844 
L 440.367426 295.16844 
L 441.180689 298.813812 
L 441.993952 303.370522 
L 442.807214 301.547836 
L 443.620477 300.636498 
L 444.43374 298.813812 
L 445.247003 293.345754 
L 446.060266 303.370522 
L 446.873529 302.459179 
L 447.686792 294.257097 
L 448.500055 302.459179 
L 449.313318 295.16844 
L 450.12658 299.725155 
L 450.939843 298.813812 
L 451.753106 296.991126 
L 452.566369 296.991126 
L 453.379632 293.345754 
L 455.006158 296.991126 
L 455.819421 297.902469 
L 456.632684 299.725155 
L 457.445946 289.700382 
L 458.259209 305.193208 
L 459.072472 296.991126 
L 459.885735 299.725155 
L 460.698998 294.257097 
L 461.512261 305.193208 
L 462.325524 298.813812 
L 463.138787 289.700382 
L 463.95205 290.611725 
L 464.765312 289.700382 
L 465.578575 297.902469 
L 466.391838 304.281865 
L 467.205101 303.370522 
L 468.018364 301.547836 
L 468.831627 303.370522 
L 469.64489 307.015889 
L 470.458153 298.813812 
L 471.271416 298.813812 
L 472.084678 300.636498 
L 472.897941 296.079783 
L 473.711204 289.700382 
L 474.524467 308.838574 
L 475.33773 296.991126 
L 476.964256 298.813812 
L 477.777519 295.16844 
L 478.590782 305.193208 
L 479.404044 302.459179 
L 480.217307 296.079783 
L 481.03057 293.345754 
L 481.843833 295.16844 
L 482.657096 305.193208 
L 483.470359 299.725155 
L 484.283622 296.079783 
L 485.096885 299.725155 
L 485.910148 295.16844 
L 486.72341 296.079783 
L 487.536673 303.370522 
L 488.349936 298.813812 
L 489.163199 297.902469 
L 489.976462 294.257097 
L 490.789725 303.370522 
L 491.602988 303.370522 
L 492.416251 300.636498 
L 494.856039 300.636498 
L 495.669302 292.434411 
L 496.482565 302.459179 
L 497.295828 303.370522 
L 498.109091 301.547836 
L 498.109091 301.547836 
" clip-path="url(#p72ae9e9ce1)" style="fill: none; stroke: #008000; stroke-width: 1.5; stroke-linecap: square"/>
   </g>
   <g id="patch_3">
    <path d="M 72 384.48 
L 72 51.84 
" style="fill: none; stroke: #000000; stroke-width: 0.8; stroke-linejoin: miter; stroke-linecap: square"/>
   </g>
   <g id="patch_4">
    <path d="M 518.4 384.48 
L 518.4 51.84 
" style="fill: none; stroke: #000000; stroke-width: 0.8; stroke-linejoin: miter; stroke-linecap: square"/>
   </g>
   <g id="patch_5">
    <path d="M 72 384.48 
L 518.4 384.48 
" style="fill: none; stroke: #000000; stroke-width: 0.8; stroke-linejoin: miter; stroke-linecap: square"/>
   </g>
   <g id="patch_6">
    <path d="M 72 51.84 
L 518.4 51.84 
" style="fill: none; stroke: #000000; stroke-width: 0.8; stroke-linejoin: miter; stroke-linecap: square"/>
   </g>
   <g id="legend_1">
    <g id="patch_7">
     <path d="M 79 89.19625 
L 156.107812 89.19625 
Q 158.107812 89.19625 158.107812 87.19625 
L 158.107812 58.84 
Q 158.107812 56.84 156.107812 56.84 
L 79 56.84 
Q 77 56.84 77 58.84 
L 77 87.19625 
Q 77 89.19625 79 89.19625 
z
" style="fill: #ffffff; opacity: 0.8; stroke: #cccccc; stroke-linejoin: miter"/>
    </g>
    <g id="line2d_15">
     <path d="M 81 64.938437 
L 91 64.938437 
L 101 64.938437 
" style="fill: none; stroke: #0000ff; stroke-width: 1.5; stroke-linecap: square"/>
    </g>
    <g id="text_15">
     <!-- precision -->
     <g transform="translate(109 68.438437) scale(0.1 -0.1)">
      <defs>
       <path id="DejaVuSans-69" d="M 603 3500 
L 1178 3500 
L 1178 0 
L 603 0 
L 603 3500 
z
M 603 4863 
L 1178 4863 
L 1178 4134 
L 603 4134 
L 603 4863 
z
" transform="scale(0.015625)"/>
       <path id="DejaVuSans-73" d="M 2834 3397 
L 2834 2853 
Q 2591 2978 2328 3040 
Q 2066 3103 1784 3103 
Q 1356 3103 1142 2972 
Q 928 2841 928 2578 
Q 928 2378 1081 2264 
Q 1234 2150 1697 2047 
L 1894 2003 
Q 2506 1872 2764 1633 
Q 3022 1394 3022 966 
Q 3022 478 2636 193 
Q 2250 -91 1575 -91 
Q 1294 -91 989 -36 
Q 684 19 347 128 
L 347 722 
Q 666 556 975 473 
Q 1284 391 1588 391 
Q 1994 391 2212 530 
Q 2431 669 2431 922 
Q 2431 1156 2273 1281 
Q 2116 1406 1581 1522 
L 1381 1569 
Q 847 1681 609 1914 
Q 372 2147 372 2553 
Q 372 3047 722 3315 
Q 1072 3584 1716 3584 
Q 2034 3584 2315 3537 
Q 2597 3491 2834 3397 
z
" transform="scale(0.015625)"/>
       <path id="DejaVuSans-6e" d="M 3513 2113 
L 3513 0 
L 2938 0 
L 2938 2094 
Q 2938 2591 2744 2837 
Q 2550 3084 2163 3084 
Q 1697 3084 1428 2787 
Q 1159 2491 1159 1978 
L 1159 0 
L 581 0 
L 581 3500 
L 1159 3500 
L 1159 2956 
Q 1366 3272 1645 3428 
Q 1925 3584 2291 3584 
Q 2894 3584 3203 3211 
Q 3513 2838 3513 2113 
z
" transform="scale(0.015625)"/>
      </defs>
      <use xlink:href="#DejaVuSans-70"/>
      <use xlink:href="#DejaVuSans-72" x="63.476562"/>
      <use xlink:href="#DejaVuSans-65" x="102.339844"/>
      <use xlink:href="#DejaVuSans-63" x="163.863281"/>
      <use xlink:href="#DejaVuSans-69" x="218.84375"/>
      <use xlink:href="#DejaVuSans-73" x="246.626953"/>
      <use xlink:href="#DejaVuSans-69" x="298.726562"/>
      <use xlink:href="#DejaVuSans-6f" x="326.509766"/>
      <use xlink:href="#DejaVuSans-6e" x="387.691406"/>
     </g>
    </g>
    <g id="line2d_16">
     <path d="M 81 79.616562 
L 91 79.616562 
L 101 79.616562 
" style="fill: none; stroke: #008000; stroke-width: 1.5; stroke-linecap: square"/>
    </g>
    <g id="text_16">
     <!-- recall -->
     <g transform="translate(109 83.116562) scale(0.1 -0.1)">
      <defs>
       <path id="DejaVuSans-6c" d="M 603 4863 
L 1178 4863 
L 1178 0 
L 603 0 
L 603 4863 
z
" transform="scale(0.015625)"/>
      </defs>
      <use xlink:href="#DejaVuSans-72"/>
      <use xlink:href="#DejaVuSans-65" x="38.863281"/>
      <use xlink:href="#DejaVuSans-63" x="100.386719"/>
      <use xlink:href="#DejaVuSans-61" x="155.367188"/>
      <use xlink:href="#DejaVuSans-6c" x="216.646484"/>
      <use xlink:href="#DejaVuSans-6c" x="244.429688"/>
     </g>
    </g>
   </g>
  </g>
  <g id="axes_2">
   <g id="matplotlib.axis_3">
    <g id="ytick_7">
     <g id="line2d_17">
      <defs>
       <path id="ma0584fa5b3" d="M 0 0 
L 3.5 0 
" style="stroke: #000000; stroke-width: 0.8"/>
      </defs>
      <g>
       <use xlink:href="#ma0584fa5b3" x="518.4" y="383.816106" style="stroke: #000000; stroke-width: 0.8"/>
      </g>
     </g>
     <g id="text_17">
      <!-- 0.1 -->
      <g transform="translate(525.4 387.615325) scale(0.1 -0.1)">
       <use xlink:href="#DejaVuSans-30"/>
       <use xlink:href="#DejaVuSans-2e" x="63.623047"/>
       <use xlink:href="#DejaVuSans-31" x="95.410156"/>
      </g>
     </g>
    </g>
    <g id="ytick_8">
     <g id="line2d_18">
      <g>
       <use xlink:href="#ma0584fa5b3" x="518.4" y="346.726365" style="stroke: #000000; stroke-width: 0.8"/>
      </g>
     </g>
     <g id="text_18">
      <!-- 0.2 -->
      <g transform="translate(525.4 350.525584) scale(0.1 -0.1)">
       <use xlink:href="#DejaVuSans-30"/>
       <use xlink:href="#DejaVuSans-2e" x="63.623047"/>
       <use xlink:href="#DejaVuSans-32" x="95.410156"/>
      </g>
     </g>
    </g>
    <g id="ytick_9">
     <g id="line2d_19">
      <g>
       <use xlink:href="#ma0584fa5b3" x="518.4" y="309.636624" style="stroke: #000000; stroke-width: 0.8"/>
      </g>
     </g>
     <g id="text_19">
      <!-- 0.3 -->
      <g transform="translate(525.4 313.435842) scale(0.1 -0.1)">
       <use xlink:href="#DejaVuSans-30"/>
       <use xlink:href="#DejaVuSans-2e" x="63.623047"/>
       <use xlink:href="#DejaVuSans-33" x="95.410156"/>
      </g>
     </g>
    </g>
    <g id="ytick_10">
     <g id="line2d_20">
      <g>
       <use xlink:href="#ma0584fa5b3" x="518.4" y="272.546883" style="stroke: #000000; stroke-width: 0.8"/>
      </g>
     </g>
     <g id="text_20">
      <!-- 0.4 -->
      <g transform="translate(525.4 276.346101) scale(0.1 -0.1)">
       <use xlink:href="#DejaVuSans-30"/>
       <use xlink:href="#DejaVuSans-2e" x="63.623047"/>
       <use xlink:href="#DejaVuSans-34" x="95.410156"/>
      </g>
     </g>
    </g>
    <g id="ytick_11">
     <g id="line2d_21">
      <g>
       <use xlink:href="#ma0584fa5b3" x="518.4" y="235.457141" style="stroke: #000000; stroke-width: 0.8"/>
      </g>
     </g>
     <g id="text_21">
      <!-- 0.5 -->
      <g transform="translate(525.4 239.25636) scale(0.1 -0.1)">
       <use xlink:href="#DejaVuSans-30"/>
       <use xlink:href="#DejaVuSans-2e" x="63.623047"/>
       <use xlink:href="#DejaVuSans-35" x="95.410156"/>
      </g>
     </g>
    </g>
    <g id="ytick_12">
     <g id="line2d_22">
      <g>
       <use xlink:href="#ma0584fa5b3" x="518.4" y="198.3674" style="stroke: #000000; stroke-width: 0.8"/>
      </g>
     </g>
     <g id="text_22">
      <!-- 0.6 -->
      <g transform="translate(525.4 202.166619) scale(0.1 -0.1)">
       <use xlink:href="#DejaVuSans-30"/>
       <use xlink:href="#DejaVuSans-2e" x="63.623047"/>
       <use xlink:href="#DejaVuSans-36" x="95.410156"/>
      </g>
     </g>
    </g>
    <g id="ytick_13">
     <g id="line2d_23">
      <g>
       <use xlink:href="#ma0584fa5b3" x="518.4" y="161.277659" style="stroke: #000000; stroke-width: 0.8"/>
      </g>
     </g>
     <g id="text_23">
      <!-- 0.7 -->
      <g transform="translate(525.4 165.076878) scale(0.1 -0.1)">
       <defs>
        <path id="DejaVuSans-37" d="M 525 4666 
L 3525 4666 
L 3525 4397 
L 1831 0 
L 1172 0 
L 2766 4134 
L 525 4134 
L 525 4666 
z
" transform="scale(0.015625)"/>
       </defs>
       <use xlink:href="#DejaVuSans-30"/>
       <use xlink:href="#DejaVuSans-2e" x="63.623047"/>
       <use xlink:href="#DejaVuSans-37" x="95.410156"/>
      </g>
     </g>
    </g>
    <g id="ytick_14">
     <g id="line2d_24">
      <g>
       <use xlink:href="#ma0584fa5b3" x="518.4" y="124.187918" style="stroke: #000000; stroke-width: 0.8"/>
      </g>
     </g>
     <g id="text_24">
      <!-- 0.8 -->
      <g transform="translate(525.4 127.987137) scale(0.1 -0.1)">
       <use xlink:href="#DejaVuSans-30"/>
       <use xlink:href="#DejaVuSans-2e" x="63.623047"/>
       <use xlink:href="#DejaVuSans-38" x="95.410156"/>
      </g>
     </g>
    </g>
    <g id="ytick_15">
     <g id="line2d_25">
      <g>
       <use xlink:href="#ma0584fa5b3" x="518.4" y="87.098177" style="stroke: #000000; stroke-width: 0.8"/>
      </g>
     </g>
     <g id="text_25">
      <!-- 0.9 -->
      <g transform="translate(525.4 90.897396) scale(0.1 -0.1)">
       <defs>
        <path id="DejaVuSans-39" d="M 703 97 
L 703 672 
Q 941 559 1184 500 
Q 1428 441 1663 441 
Q 2288 441 2617 861 
Q 2947 1281 2994 2138 
Q 2813 1869 2534 1725 
Q 2256 1581 1919 1581 
Q 1219 1581 811 2004 
Q 403 2428 403 3163 
Q 403 3881 828 4315 
Q 1253 4750 1959 4750 
Q 2769 4750 3195 4129 
Q 3622 3509 3622 2328 
Q 3622 1225 3098 567 
Q 2575 -91 1691 -91 
Q 1453 -91 1209 -44 
Q 966 3 703 97 
z
M 1959 2075 
Q 2384 2075 2632 2365 
Q 2881 2656 2881 3163 
Q 2881 3666 2632 3958 
Q 2384 4250 1959 4250 
Q 1534 4250 1286 3958 
Q 1038 3666 1038 3163 
Q 1038 2656 1286 2365 
Q 1534 2075 1959 2075 
z
" transform="scale(0.015625)"/>
       </defs>
       <use xlink:href="#DejaVuSans-30"/>
       <use xlink:href="#DejaVuSans-2e" x="63.623047"/>
       <use xlink:href="#DejaVuSans-39" x="95.410156"/>
      </g>
     </g>
    </g>
    <g id="text_26">
     <!-- loss -->
     <g transform="translate(552.901563 227.817812) rotate(-90) scale(0.1 -0.1)">
      <use xlink:href="#DejaVuSans-6c"/>
      <use xlink:href="#DejaVuSans-6f" x="27.783203"/>
      <use xlink:href="#DejaVuSans-73" x="88.964844"/>
      <use xlink:href="#DejaVuSans-73" x="141.064453"/>
     </g>
    </g>
   </g>
   <g id="line2d_26">
    <path d="M 92.290909 66.96 
L 93.104172 128.998951 
L 93.917435 214.646344 
L 94.730698 278.565844 
L 95.543961 312.64457 
L 96.357224 327.02972 
L 97.170486 331.409821 
L 97.983749 331.375146 
L 98.797012 329.311852 
L 99.610275 328.125187 
L 100.423538 335.19977 
L 101.236801 333.387952 
L 102.863327 332.02628 
L 103.67659 331.719841 
L 104.489852 332.048305 
L 105.303115 332.671115 
L 106.116378 334.077105 
L 106.929641 335.122284 
L 107.742904 337.500948 
L 108.556167 329.899081 
L 109.36943 332.039069 
L 110.995956 338.882444 
L 111.809218 339.890826 
L 112.622481 343.227395 
L 113.435744 345.443648 
L 114.249007 347.124481 
L 115.06227 349.275761 
L 115.875533 347.820742 
L 116.688796 341.405739 
L 117.502059 342.390847 
L 118.315322 346.14931 
L 120.75511 353.743811 
L 121.568373 354.723652 
L 122.381636 355.253142 
L 124.008162 355.934663 
L 124.821425 349.576055 
L 125.634688 351.031107 
L 126.44795 353.018208 
L 128.074476 356.20615 
L 128.887739 357.441612 
L 129.701002 357.65284 
L 130.514265 358.739763 
L 131.327528 358.444649 
L 132.140791 359.404273 
L 132.954054 351.744053 
L 133.767316 352.82876 
L 134.580579 355.680888 
L 137.020368 358.971209 
L 137.833631 359.55217 
L 138.646894 360.647372 
L 139.460157 362.071447 
L 140.27342 363.000933 
L 141.086682 354.282221 
L 141.899945 355.390566 
L 144.339734 360.643929 
L 145.152997 361.562992 
L 145.96626 362.244889 
L 146.779523 362.036335 
L 147.592786 364.422294 
L 148.406048 364.053778 
L 149.219311 356.46953 
L 150.032574 356.805057 
L 151.6591 361.418571 
L 152.472363 361.549114 
L 153.285626 363.264755 
L 154.098889 364.592702 
L 154.912152 364.849383 
L 155.725414 366.150824 
L 156.538677 365.777742 
L 157.35194 357.669769 
L 158.165203 358.851499 
L 158.978466 360.937999 
L 159.791729 362.014897 
L 160.604992 364.213149 
L 162.231518 366.070022 
L 163.04478 367.927425 
L 163.858043 366.839524 
L 164.671306 368.040084 
L 165.484569 358.154746 
L 167.111095 362.35028 
L 167.924358 363.406777 
L 168.737621 365.720396 
L 169.550884 366.072266 
L 170.364146 367.200988 
L 171.177409 366.581273 
L 171.990672 367.703391 
L 172.803935 369.36 
L 173.617198 359.890991 
L 175.243724 363.044031 
L 176.056987 363.215727 
L 176.87025 363.780566 
L 178.496775 365.985219 
L 179.310038 366.199841 
L 180.123301 366.060217 
L 180.936564 366.895135 
L 181.749827 360.415573 
L 184.189616 363.267248 
L 185.002878 363.798512 
L 185.816141 365.149246 
L 186.629404 365.85273 
L 187.442667 366.205241 
L 188.25593 367.076972 
L 189.069193 367.276357 
L 189.882456 361.211261 
L 190.695719 360.888965 
L 192.322244 363.934184 
L 193.135507 364.461761 
L 193.94877 364.573673 
L 194.762033 366.288911 
L 196.388559 366.672543 
L 197.201822 367.15689 
L 198.015085 360.983518 
L 198.828348 362.539899 
L 199.64161 362.928306 
L 200.454873 364.030986 
L 202.081399 364.962904 
L 202.894662 365.880066 
L 203.707925 366.969697 
L 205.334451 367.000177 
L 206.147714 360.448877 
L 206.960976 361.936471 
L 207.774239 362.934739 
L 208.587502 364.804097 
L 209.400765 365.134727 
L 210.214028 365.869858 
L 211.027291 367.121319 
L 211.840554 367.11157 
L 212.653817 366.040569 
L 213.46708 367.493533 
L 214.280343 361.771021 
L 215.093605 361.6885 
L 215.906868 363.046485 
L 216.720131 365.080194 
L 217.533394 365.320676 
L 218.346657 365.844296 
L 219.15992 365.484601 
L 219.973183 367.615349 
L 220.786446 367.748445 
L 221.599709 366.19453 
L 222.412971 361.775691 
L 223.226234 362.601047 
L 224.039497 364.105752 
L 224.85276 363.917974 
L 225.666023 365.800435 
L 226.479286 364.562487 
L 227.292549 366.622901 
L 228.105812 367.341745 
L 228.919075 366.605475 
L 229.732337 367.544617 
L 230.5456 361.783412 
L 231.358863 363.669897 
L 232.172126 363.946315 
L 233.798652 365.116671 
L 234.611915 365.22126 
L 235.425178 365.442398 
L 236.238441 366.616191 
L 237.051703 366.302446 
L 237.864966 365.7698 
L 238.678229 360.952076 
L 240.304755 363.507321 
L 241.118018 365.036654 
L 241.931281 364.898406 
L 242.744544 366.045494 
L 243.557807 366.893128 
L 244.371069 366.333407 
L 245.184332 366.982453 
L 245.997595 366.683795 
L 246.810858 361.75548 
L 247.624121 361.749378 
L 248.437384 363.725685 
L 249.250647 364.41459 
L 250.877173 366.627853 
L 252.503698 366.285766 
L 253.316961 366.783278 
L 254.130224 366.209187 
L 254.943487 362.593895 
L 255.75675 362.338126 
L 256.570013 363.863126 
L 257.383276 364.480945 
L 258.196539 365.727703 
L 259.009801 366.659765 
L 259.823064 366.846239 
L 260.636327 366.3423 
L 261.44959 367.485856 
L 262.262853 365.881132 
L 263.076116 362.361062 
L 263.889379 362.037225 
L 264.702642 363.822166 
L 265.515905 364.083722 
L 266.329167 366.752703 
L 267.14243 366.421692 
L 267.955693 365.525411 
L 268.768956 366.959572 
L 269.582219 367.411388 
L 270.395482 367.445273 
L 271.208745 362.282405 
L 272.022008 363.525714 
L 272.835271 363.951079 
L 273.648533 364.75661 
L 274.461796 365.332282 
L 275.275059 365.534618 
L 276.088322 366.754317 
L 276.901585 367.184872 
L 277.714848 367.207465 
L 278.528111 367.028651 
L 279.341374 363.717069 
L 280.154637 364.355276 
L 280.967899 364.050672 
L 281.781162 364.653701 
L 282.594425 365.480356 
L 283.407688 365.771983 
L 284.220951 366.23209 
L 285.034214 367.278932 
L 285.847477 366.711982 
L 286.66074 367.785409 
L 287.474003 362.554395 
L 288.287265 363.200539 
L 289.100528 364.389244 
L 289.913791 365.002935 
L 290.727054 365.95953 
L 291.540317 366.000627 
L 292.35358 366.422477 
L 293.166843 365.912033 
L 293.980106 367.111437 
L 294.793369 366.224695 
L 295.606631 362.885611 
L 296.419894 364.381114 
L 297.233157 365.092563 
L 298.04642 364.325763 
L 298.859683 365.751158 
L 299.672946 365.616901 
L 300.486209 366.367867 
L 301.299472 366.337801 
L 302.112735 367.162405 
L 302.925997 367.105733 
L 303.73926 362.998634 
L 305.365786 364.46505 
L 306.179049 365.956872 
L 306.992312 365.304792 
L 307.805575 365.849204 
L 308.618838 366.152216 
L 309.432101 366.09392 
L 310.245363 367.41225 
L 311.058626 366.740672 
L 311.871889 363.31978 
L 312.685152 362.035633 
L 313.498415 364.398208 
L 314.311678 365.048249 
L 315.124941 365.112404 
L 315.938204 365.931763 
L 316.751467 367.406513 
L 317.564729 366.384884 
L 318.377992 366.320353 
L 319.191255 367.141625 
L 320.004518 363.907373 
L 320.817781 364.969536 
L 321.631044 363.998178 
L 322.444307 365.383969 
L 323.25757 365.286255 
L 324.070833 365.537901 
L 324.884095 366.579051 
L 326.510621 365.918035 
L 327.323884 366.694694 
L 328.137147 364.00522 
L 328.95041 363.250772 
L 329.763673 364.275508 
L 330.576936 365.024439 
L 331.390199 365.153247 
L 332.203461 365.00462 
L 333.829987 366.683817 
L 334.64325 367.235083 
L 335.456513 366.825934 
L 336.269776 363.86081 
L 337.083039 363.568989 
L 337.896302 363.620167 
L 338.709565 364.82826 
L 339.522827 365.253978 
L 340.33609 365.527389 
L 341.149353 364.790512 
L 341.962616 365.618792 
L 342.775879 365.701058 
L 343.589142 366.253849 
L 344.402405 363.694116 
L 346.028931 364.029062 
L 346.842193 364.89887 
L 347.655456 364.647605 
L 348.468719 364.908962 
L 349.281982 366.106615 
L 350.095245 366.227746 
L 350.908508 366.897749 
L 351.721771 366.28817 
L 352.535034 363.189878 
L 353.348297 363.531473 
L 354.161559 364.820854 
L 354.974822 364.649424 
L 355.788085 365.361149 
L 356.601348 364.847228 
L 357.414611 366.262366 
L 358.227874 365.905412 
L 359.041137 366.183249 
L 359.8544 366.187649 
L 360.667663 363.553072 
L 361.480925 364.57023 
L 362.294188 363.456878 
L 363.920714 365.468844 
L 364.733977 365.083134 
L 366.360503 365.561125 
L 367.173766 366.485527 
L 367.987029 365.243201 
L 368.800291 364.262028 
L 369.613554 364.305833 
L 370.426817 364.912444 
L 371.24008 363.937771 
L 372.053343 365.343015 
L 372.866606 365.160365 
L 373.679869 364.613102 
L 374.493132 365.840123 
L 376.119657 366.581019 
L 376.93292 363.770485 
L 377.746183 364.456942 
L 378.559446 364.19291 
L 380.999235 364.906243 
L 381.812498 364.135481 
L 382.625761 365.616487 
L 383.439024 366.171903 
L 384.252286 365.862866 
L 385.065549 364.128456 
L 385.878812 363.814457 
L 386.692075 364.954326 
L 387.505338 364.570291 
L 388.318601 365.020593 
L 389.131864 365.680891 
L 389.945127 365.550154 
L 390.75839 366.054165 
L 391.571652 365.972374 
L 392.384915 365.563905 
L 393.198178 363.299215 
L 394.011441 364.046809 
L 394.824704 363.150853 
L 395.637967 363.786856 
L 396.45123 365.171474 
L 397.264493 365.216507 
L 398.077756 366.085414 
L 398.891018 364.921364 
L 399.704281 365.119246 
L 400.517544 366.684978 
L 401.330807 363.845329 
L 402.957333 363.957313 
L 403.770596 364.62032 
L 405.397122 364.737245 
L 406.210384 365.454679 
L 407.023647 364.933225 
L 407.83691 365.52509 
L 408.650173 365.059678 
L 409.463436 364.981596 
L 410.276699 364.276243 
L 411.089962 364.867688 
L 411.903225 364.629118 
L 412.716488 364.563736 
L 413.52975 365.114648 
L 414.343013 365.032398 
L 415.156276 366.122327 
L 415.969539 365.256841 
L 416.782802 366.331031 
L 417.596065 364.662456 
L 418.409328 362.490069 
L 419.222591 364.930075 
L 420.849116 365.549342 
L 421.662379 364.613035 
L 422.475642 364.854916 
L 423.288905 364.90123 
L 424.102168 364.445838 
L 424.915431 366.270468 
L 425.728694 364.346909 
L 426.541957 363.964399 
L 427.35522 364.749497 
L 428.168482 364.016704 
L 428.981745 364.735598 
L 429.795008 364.704647 
L 430.608271 365.615857 
L 431.421534 365.667416 
L 432.234797 365.097813 
L 433.04806 365.1239 
L 433.861323 363.57052 
L 434.674586 363.568 
L 436.301111 364.230089 
L 437.114374 365.089611 
L 437.927637 364.486085 
L 438.7409 365.078657 
L 439.554163 365.926856 
L 440.367426 365.810859 
L 441.180689 366.031832 
L 441.993952 363.457491 
L 442.807214 364.637906 
L 443.620477 364.641006 
L 444.43374 364.464486 
L 445.247003 365.230976 
L 446.060266 364.522495 
L 446.873529 365.410663 
L 448.500055 364.66413 
L 449.313318 365.888859 
L 450.12658 363.803956 
L 450.939843 364.547454 
L 451.753106 364.019628 
L 452.566369 364.089315 
L 453.379632 365.244207 
L 454.192895 364.545476 
L 455.006158 366.188682 
L 455.819421 364.443827 
L 456.632684 365.455375 
L 457.445946 365.24193 
L 458.259209 363.883818 
L 459.072472 364.218786 
L 459.885735 363.811074 
L 460.698998 363.835834 
L 461.512261 363.510715 
L 462.325524 363.848507 
L 463.95205 365.495677 
L 464.765312 365.916896 
L 465.578575 364.491053 
L 466.391838 363.505265 
L 467.205101 363.992088 
L 468.018364 364.318595 
L 468.831627 363.543732 
L 469.64489 364.913748 
L 470.458153 364.557856 
L 471.271416 364.40483 
L 472.084678 364.444136 
L 472.897941 365.281126 
L 473.711204 365.394652 
L 474.524467 363.641899 
L 475.33773 364.664777 
L 476.150993 364.550991 
L 476.964256 364.844089 
L 477.777519 364.121597 
L 478.590782 364.667209 
L 479.404044 364.645909 
L 480.217307 364.441809 
L 481.03057 364.737637 
L 481.843833 366.259989 
L 482.657096 364.087978 
L 483.470359 364.55843 
L 484.283622 364.19868 
L 485.096885 364.330301 
L 485.910148 363.883022 
L 486.72341 364.980424 
L 487.536673 364.213867 
L 488.349936 364.745463 
L 489.163199 365.663128 
L 489.976462 364.799808 
L 490.789725 364.794911 
L 491.602988 363.891611 
L 492.416251 364.570866 
L 494.042776 363.53616 
L 494.856039 364.788627 
L 495.669302 364.859442 
L 496.482565 364.546896 
L 498.109091 364.731939 
L 498.109091 364.731939 
" clip-path="url(#p72ae9e9ce1)" style="fill: none; stroke: #ff0000; stroke-width: 1.5; stroke-linecap: square"/>
   </g>
   <g id="patch_8">
    <path d="M 72 384.48 
L 72 51.84 
" style="fill: none; stroke: #000000; stroke-width: 0.8; stroke-linejoin: miter; stroke-linecap: square"/>
   </g>
   <g id="patch_9">
    <path d="M 518.4 384.48 
L 518.4 51.84 
" style="fill: none; stroke: #000000; stroke-width: 0.8; stroke-linejoin: miter; stroke-linecap: square"/>
   </g>
   <g id="patch_10">
    <path d="M 72 384.48 
L 518.4 384.48 
" style="fill: none; stroke: #000000; stroke-width: 0.8; stroke-linejoin: miter; stroke-linecap: square"/>
   </g>
   <g id="patch_11">
    <path d="M 72 51.84 
L 518.4 51.84 
" style="fill: none; stroke: #000000; stroke-width: 0.8; stroke-linejoin: miter; stroke-linecap: square"/>
   </g>
   <g id="text_27">
    <!-- The learning curve on _0.00025_8_clients_iid/host/5 -->
    <g transform="translate(135.910313 45.84) scale(0.12 -0.12)">
     <defs>
      <path id="DejaVuSans-54" d="M -19 4666 
L 3928 4666 
L 3928 4134 
L 2272 4134 
L 2272 0 
L 1638 0 
L 1638 4134 
L -19 4134 
L -19 4666 
z
" transform="scale(0.015625)"/>
      <path id="DejaVuSans-20" transform="scale(0.015625)"/>
      <path id="DejaVuSans-67" d="M 2906 1791 
Q 2906 2416 2648 2759 
Q 2391 3103 1925 3103 
Q 1463 3103 1205 2759 
Q 947 2416 947 1791 
Q 947 1169 1205 825 
Q 1463 481 1925 481 
Q 2391 481 2648 825 
Q 2906 1169 2906 1791 
z
M 3481 434 
Q 3481 -459 3084 -895 
Q 2688 -1331 1869 -1331 
Q 1566 -1331 1297 -1286 
Q 1028 -1241 775 -1147 
L 775 -588 
Q 1028 -725 1275 -790 
Q 1522 -856 1778 -856 
Q 2344 -856 2625 -561 
Q 2906 -266 2906 331 
L 2906 616 
Q 2728 306 2450 153 
Q 2172 0 1784 0 
Q 1141 0 747 490 
Q 353 981 353 1791 
Q 353 2603 747 3093 
Q 1141 3584 1784 3584 
Q 2172 3584 2450 3431 
Q 2728 3278 2906 2969 
L 2906 3500 
L 3481 3500 
L 3481 434 
z
" transform="scale(0.015625)"/>
      <path id="DejaVuSans-75" d="M 544 1381 
L 544 3500 
L 1119 3500 
L 1119 1403 
Q 1119 906 1312 657 
Q 1506 409 1894 409 
Q 2359 409 2629 706 
Q 2900 1003 2900 1516 
L 2900 3500 
L 3475 3500 
L 3475 0 
L 2900 0 
L 2900 538 
Q 2691 219 2414 64 
Q 2138 -91 1772 -91 
Q 1169 -91 856 284 
Q 544 659 544 1381 
z
M 1991 3584 
L 1991 3584 
z
" transform="scale(0.015625)"/>
      <path id="DejaVuSans-76" d="M 191 3500 
L 800 3500 
L 1894 563 
L 2988 3500 
L 3597 3500 
L 2284 0 
L 1503 0 
L 191 3500 
z
" transform="scale(0.015625)"/>
      <path id="DejaVuSans-3bb" d="M 1981 4316 
L 3597 0 
L 2988 0 
L 2006 2588 
L 800 0 
L 191 0 
L 1725 3356 
L 1494 3975 
Q 1347 4369 1013 4369 
L 713 4369 
L 713 4863 
L 1078 4856 
Q 1784 4847 1981 4316 
z
" transform="scale(0.015625)"/>
      <path id="DejaVuSans-5f" d="M 3263 -1063 
L 3263 -1509 
L -63 -1509 
L -63 -1063 
L 3263 -1063 
z
" transform="scale(0.015625)"/>
      <path id="DejaVuSans-64" d="M 2906 2969 
L 2906 4863 
L 3481 4863 
L 3481 0 
L 2906 0 
L 2906 525 
Q 2725 213 2448 61 
Q 2172 -91 1784 -91 
Q 1150 -91 751 415 
Q 353 922 353 1747 
Q 353 2572 751 3078 
Q 1150 3584 1784 3584 
Q 2172 3584 2448 3432 
Q 2725 3281 2906 2969 
z
M 947 1747 
Q 947 1113 1208 752 
Q 1469 391 1925 391 
Q 2381 391 2643 752 
Q 2906 1113 2906 1747 
Q 2906 2381 2643 2742 
Q 2381 3103 1925 3103 
Q 1469 3103 1208 2742 
Q 947 2381 947 1747 
z
" transform="scale(0.015625)"/>
      <path id="DejaVuSans-2f" d="M 1625 4666 
L 2156 4666 
L 531 -594 
L 0 -594 
L 1625 4666 
z
" transform="scale(0.015625)"/>
     </defs>
     <use xlink:href="#DejaVuSans-54"/>
     <use xlink:href="#DejaVuSans-68" x="61.083984"/>
     <use xlink:href="#DejaVuSans-65" x="124.462891"/>
     <use xlink:href="#DejaVuSans-20" x="185.986328"/>
     <use xlink:href="#DejaVuSans-6c" x="217.773438"/>
     <use xlink:href="#DejaVuSans-65" x="245.556641"/>
     <use xlink:href="#DejaVuSans-61" x="307.080078"/>
     <use xlink:href="#DejaVuSans-72" x="368.359375"/>
     <use xlink:href="#DejaVuSans-6e" x="407.722656"/>
     <use xlink:href="#DejaVuSans-69" x="471.101562"/>
     <use xlink:href="#DejaVuSans-6e" x="498.884766"/>
     <use xlink:href="#DejaVuSans-67" x="562.263672"/>
     <use xlink:href="#DejaVuSans-20" x="625.740234"/>
     <use xlink:href="#DejaVuSans-63" x="657.527344"/>
     <use xlink:href="#DejaVuSans-75" x="712.507812"/>
     <use xlink:href="#DejaVuSans-72" x="775.886719"/>
     <use xlink:href="#DejaVuSans-76" x="817"/>
     <use xlink:href="#DejaVuSans-65" x="876.179688"/>
     <use xlink:href="#DejaVuSans-20" x="937.703125"/>
     <use xlink:href="#DejaVuSans-6f" x="969.490234"/>
     <use xlink:href="#DejaVuSans-6e" x="1030.671875"/>
     <use xlink:href="#DejaVuSans-20" x="1094.050781"/>
     <use xlink:href="#DejaVuSans-3bb" x="1125.837891"/>
     <use xlink:href="#DejaVuSans-5f" x="1185.017578"/>
     <use xlink:href="#DejaVuSans-30" x="1235.017578"/>
     <use xlink:href="#DejaVuSans-2e" x="1298.640625"/>
     <use xlink:href="#DejaVuSans-30" x="1330.427734"/>
     <use xlink:href="#DejaVuSans-30" x="1394.050781"/>
     <use xlink:href="#DejaVuSans-30" x="1457.673828"/>
     <use xlink:href="#DejaVuSans-32" x="1521.296875"/>
     <use xlink:href="#DejaVuSans-35" x="1584.919922"/>
     <use xlink:href="#DejaVuSans-5f" x="1648.542969"/>
     <use xlink:href="#DejaVuSans-38" x="1698.542969"/>
     <use xlink:href="#DejaVuSans-5f" x="1762.166016"/>
     <use xlink:href="#DejaVuSans-63" x="1812.166016"/>
     <use xlink:href="#DejaVuSans-6c" x="1867.146484"/>
     <use xlink:href="#DejaVuSans-69" x="1894.929688"/>
     <use xlink:href="#DejaVuSans-65" x="1922.712891"/>
     <use xlink:href="#DejaVuSans-6e" x="1984.236328"/>
     <use xlink:href="#DejaVuSans-74" x="2047.615234"/>
     <use xlink:href="#DejaVuSans-73" x="2086.824219"/>
     <use xlink:href="#DejaVuSans-5f" x="2138.923828"/>
     <use xlink:href="#DejaVuSans-69" x="2188.923828"/>
     <use xlink:href="#DejaVuSans-69" x="2216.707031"/>
     <use xlink:href="#DejaVuSans-64" x="2244.490234"/>
     <use xlink:href="#DejaVuSans-2f" x="2307.966797"/>
     <use xlink:href="#DejaVuSans-68" x="2341.658203"/>
     <use xlink:href="#DejaVuSans-6f" x="2405.037109"/>
     <use xlink:href="#DejaVuSans-73" x="2466.21875"/>
     <use xlink:href="#DejaVuSans-74" x="2518.318359"/>
     <use xlink:href="#DejaVuSans-2f" x="2557.527344"/>
     <use xlink:href="#DejaVuSans-35" x="2591.21875"/>
    </g>
   </g>
   <g id="legend_2">
    <g id="patch_12">
     <path d="M 460.084375 74.518125 
L 511.4 74.518125 
Q 513.4 74.518125 513.4 72.518125 
L 513.4 58.84 
Q 513.4 56.84 511.4 56.84 
L 460.084375 56.84 
Q 458.084375 56.84 458.084375 58.84 
L 458.084375 72.518125 
Q 458.084375 74.518125 460.084375 74.518125 
z
" style="fill: #ffffff; opacity: 0.8; stroke: #cccccc; stroke-linejoin: miter"/>
    </g>
    <g id="line2d_27">
     <path d="M 462.084375 64.938438 
L 472.084375 64.938438 
L 482.084375 64.938438 
" style="fill: none; stroke: #ff0000; stroke-width: 1.5; stroke-linecap: square"/>
    </g>
    <g id="text_28">
     <!-- loss -->
     <g transform="translate(490.084375 68.438438) scale(0.1 -0.1)">
      <use xlink:href="#DejaVuSans-6c"/>
      <use xlink:href="#DejaVuSans-6f" x="27.783203"/>
      <use xlink:href="#DejaVuSans-73" x="88.964844"/>
      <use xlink:href="#DejaVuSans-73" x="141.064453"/>
     </g>
    </g>
   </g>
  </g>
 </g>
 <defs>
  <clipPath id="p72ae9e9ce1">
   <rect x="72" y="51.84" width="446.4" height="332.64"/>
  </clipPath>
 </defs>
</svg>
