<?xml version="1.0" encoding="utf-8" standalone="no"?>
<!DOCTYPE svg PUBLIC "-//W3C//DTD SVG 1.1//EN"
  "http://www.w3.org/Graphics/SVG/1.1/DTD/svg11.dtd">
<svg xmlns:xlink="http://www.w3.org/1999/xlink" width="460.8pt" height="345.6pt" viewBox="0 0 460.8 345.6" xmlns="http://www.w3.org/2000/svg" version="1.1">
 <metadata>
  <rdf:RDF xmlns:dc="http://purl.org/dc/elements/1.1/" xmlns:cc="http://creativecommons.org/ns#" xmlns:rdf="http://www.w3.org/1999/02/22-rdf-syntax-ns#">
   <cc:Work>
    <dc:type rdf:resource="http://purl.org/dc/dcmitype/StillImage"/>
    <dc:date>2023-04-11T22:56:08.962230</dc:date>
    <dc:format>image/svg+xml</dc:format>
    <dc:creator>
     <cc:Agent>
      <dc:title>Matplotlib v3.7.1, https://matplotlib.org/</dc:title>
     </cc:Agent>
    </dc:creator>
   </cc:Work>
  </rdf:RDF>
 </metadata>
 <defs>
  <style type="text/css">*{stroke-linejoin: round; stroke-linecap: butt}</style>
 </defs>
 <g id="figure_1">
  <g id="patch_1">
   <path d="M 0 345.6 
L 460.8 345.6 
L 460.8 0 
L 0 0 
z
" style="fill: #ffffff"/>
  </g>
  <g id="axes_1">
   <g id="patch_2">
    <path d="M 57.6 307.584 
L 414.72 307.584 
L 414.72 41.472 
L 57.6 41.472 
z
" style="fill: #ffffff"/>
   </g>
   <g id="matplotlib.axis_1">
    <g id="xtick_1">
     <g id="line2d_1">
      <defs>
       <path id="m5f96a5a311" d="M 0 0 
L 0 3.5 
" style="stroke: #000000; stroke-width: 0.8"/>
      </defs>
      <g>
       <use xlink:href="#m5f96a5a311" x="73.832727" y="307.584" style="stroke: #000000; stroke-width: 0.8"/>
      </g>
     </g>
     <g id="text_1">
      <!-- 0 -->
      <g transform="translate(70.651477 322.182437) scale(0.1 -0.1)">
       <defs>
        <path id="DejaVuSans-30" d="M 2034 4250 
Q 1547 4250 1301 3770 
Q 1056 3291 1056 2328 
Q 1056 1369 1301 889 
Q 1547 409 2034 409 
Q 2525 409 2770 889 
Q 3016 1369 3016 2328 
Q 3016 3291 2770 3770 
Q 2525 4250 2034 4250 
z
M 2034 4750 
Q 2819 4750 3233 4129 
Q 3647 3509 3647 2328 
Q 3647 1150 3233 529 
Q 2819 -91 2034 -91 
Q 1250 -91 836 529 
Q 422 1150 422 2328 
Q 422 3509 836 4129 
Q 1250 4750 2034 4750 
z
" transform="scale(0.015625)"/>
       </defs>
       <use xlink:href="#DejaVuSans-30"/>
      </g>
     </g>
    </g>
    <g id="xtick_2">
     <g id="line2d_2">
      <g>
       <use xlink:href="#m5f96a5a311" x="138.893758" y="307.584" style="stroke: #000000; stroke-width: 0.8"/>
      </g>
     </g>
     <g id="text_2">
      <!-- 100 -->
      <g transform="translate(129.350008 322.182437) scale(0.1 -0.1)">
       <defs>
        <path id="DejaVuSans-31" d="M 794 531 
L 1825 531 
L 1825 4091 
L 703 3866 
L 703 4441 
L 1819 4666 
L 2450 4666 
L 2450 531 
L 3481 531 
L 3481 0 
L 794 0 
L 794 531 
z
" transform="scale(0.015625)"/>
       </defs>
       <use xlink:href="#DejaVuSans-31"/>
       <use xlink:href="#DejaVuSans-30" x="63.623047"/>
       <use xlink:href="#DejaVuSans-30" x="127.246094"/>
      </g>
     </g>
    </g>
    <g id="xtick_3">
     <g id="line2d_3">
      <g>
       <use xlink:href="#m5f96a5a311" x="203.95479" y="307.584" style="stroke: #000000; stroke-width: 0.8"/>
      </g>
     </g>
     <g id="text_3">
      <!-- 200 -->
      <g transform="translate(194.41104 322.182437) scale(0.1 -0.1)">
       <defs>
        <path id="DejaVuSans-32" d="M 1228 531 
L 3431 531 
L 3431 0 
L 469 0 
L 469 531 
Q 828 903 1448 1529 
Q 2069 2156 2228 2338 
Q 2531 2678 2651 2914 
Q 2772 3150 2772 3378 
Q 2772 3750 2511 3984 
Q 2250 4219 1831 4219 
Q 1534 4219 1204 4116 
Q 875 4013 500 3803 
L 500 4441 
Q 881 4594 1212 4672 
Q 1544 4750 1819 4750 
Q 2544 4750 2975 4387 
Q 3406 4025 3406 3419 
Q 3406 3131 3298 2873 
Q 3191 2616 2906 2266 
Q 2828 2175 2409 1742 
Q 1991 1309 1228 531 
z
" transform="scale(0.015625)"/>
       </defs>
       <use xlink:href="#DejaVuSans-32"/>
       <use xlink:href="#DejaVuSans-30" x="63.623047"/>
       <use xlink:href="#DejaVuSans-30" x="127.246094"/>
      </g>
     </g>
    </g>
    <g id="xtick_4">
     <g id="line2d_4">
      <g>
       <use xlink:href="#m5f96a5a311" x="269.015821" y="307.584" style="stroke: #000000; stroke-width: 0.8"/>
      </g>
     </g>
     <g id="text_4">
      <!-- 300 -->
      <g transform="translate(259.472071 322.182437) scale(0.1 -0.1)">
       <defs>
        <path id="DejaVuSans-33" d="M 2597 2516 
Q 3050 2419 3304 2112 
Q 3559 1806 3559 1356 
Q 3559 666 3084 287 
Q 2609 -91 1734 -91 
Q 1441 -91 1130 -33 
Q 819 25 488 141 
L 488 750 
Q 750 597 1062 519 
Q 1375 441 1716 441 
Q 2309 441 2620 675 
Q 2931 909 2931 1356 
Q 2931 1769 2642 2001 
Q 2353 2234 1838 2234 
L 1294 2234 
L 1294 2753 
L 1863 2753 
Q 2328 2753 2575 2939 
Q 2822 3125 2822 3475 
Q 2822 3834 2567 4026 
Q 2313 4219 1838 4219 
Q 1578 4219 1281 4162 
Q 984 4106 628 3988 
L 628 4550 
Q 988 4650 1302 4700 
Q 1616 4750 1894 4750 
Q 2613 4750 3031 4423 
Q 3450 4097 3450 3541 
Q 3450 3153 3228 2886 
Q 3006 2619 2597 2516 
z
" transform="scale(0.015625)"/>
       </defs>
       <use xlink:href="#DejaVuSans-33"/>
       <use xlink:href="#DejaVuSans-30" x="63.623047"/>
       <use xlink:href="#DejaVuSans-30" x="127.246094"/>
      </g>
     </g>
    </g>
    <g id="xtick_5">
     <g id="line2d_5">
      <g>
       <use xlink:href="#m5f96a5a311" x="334.076852" y="307.584" style="stroke: #000000; stroke-width: 0.8"/>
      </g>
     </g>
     <g id="text_5">
      <!-- 400 -->
      <g transform="translate(324.533102 322.182437) scale(0.1 -0.1)">
       <defs>
        <path id="DejaVuSans-34" d="M 2419 4116 
L 825 1625 
L 2419 1625 
L 2419 4116 
z
M 2253 4666 
L 3047 4666 
L 3047 1625 
L 3713 1625 
L 3713 1100 
L 3047 1100 
L 3047 0 
L 2419 0 
L 2419 1100 
L 313 1100 
L 313 1709 
L 2253 4666 
z
" transform="scale(0.015625)"/>
       </defs>
       <use xlink:href="#DejaVuSans-34"/>
       <use xlink:href="#DejaVuSans-30" x="63.623047"/>
       <use xlink:href="#DejaVuSans-30" x="127.246094"/>
      </g>
     </g>
    </g>
    <g id="xtick_6">
     <g id="line2d_6">
      <g>
       <use xlink:href="#m5f96a5a311" x="399.137883" y="307.584" style="stroke: #000000; stroke-width: 0.8"/>
      </g>
     </g>
     <g id="text_6">
      <!-- 500 -->
      <g transform="translate(389.594133 322.182437) scale(0.1 -0.1)">
       <defs>
        <path id="DejaVuSans-35" d="M 691 4666 
L 3169 4666 
L 3169 4134 
L 1269 4134 
L 1269 2991 
Q 1406 3038 1543 3061 
Q 1681 3084 1819 3084 
Q 2600 3084 3056 2656 
Q 3513 2228 3513 1497 
Q 3513 744 3044 326 
Q 2575 -91 1722 -91 
Q 1428 -91 1123 -41 
Q 819 9 494 109 
L 494 744 
Q 775 591 1075 516 
Q 1375 441 1709 441 
Q 2250 441 2565 725 
Q 2881 1009 2881 1497 
Q 2881 1984 2565 2268 
Q 2250 2553 1709 2553 
Q 1456 2553 1204 2497 
Q 953 2441 691 2322 
L 691 4666 
z
" transform="scale(0.015625)"/>
       </defs>
       <use xlink:href="#DejaVuSans-35"/>
       <use xlink:href="#DejaVuSans-30" x="63.623047"/>
       <use xlink:href="#DejaVuSans-30" x="127.246094"/>
      </g>
     </g>
    </g>
    <g id="text_7">
     <!-- epoch -->
     <g transform="translate(220.931875 335.860562) scale(0.1 -0.1)">
      <defs>
       <path id="DejaVuSans-65" d="M 3597 1894 
L 3597 1613 
L 953 1613 
Q 991 1019 1311 708 
Q 1631 397 2203 397 
Q 2534 397 2845 478 
Q 3156 559 3463 722 
L 3463 178 
Q 3153 47 2828 -22 
Q 2503 -91 2169 -91 
Q 1331 -91 842 396 
Q 353 884 353 1716 
Q 353 2575 817 3079 
Q 1281 3584 2069 3584 
Q 2775 3584 3186 3129 
Q 3597 2675 3597 1894 
z
M 3022 2063 
Q 3016 2534 2758 2815 
Q 2500 3097 2075 3097 
Q 1594 3097 1305 2825 
Q 1016 2553 972 2059 
L 3022 2063 
z
" transform="scale(0.015625)"/>
       <path id="DejaVuSans-70" d="M 1159 525 
L 1159 -1331 
L 581 -1331 
L 581 3500 
L 1159 3500 
L 1159 2969 
Q 1341 3281 1617 3432 
Q 1894 3584 2278 3584 
Q 2916 3584 3314 3078 
Q 3713 2572 3713 1747 
Q 3713 922 3314 415 
Q 2916 -91 2278 -91 
Q 1894 -91 1617 61 
Q 1341 213 1159 525 
z
M 3116 1747 
Q 3116 2381 2855 2742 
Q 2594 3103 2138 3103 
Q 1681 3103 1420 2742 
Q 1159 2381 1159 1747 
Q 1159 1113 1420 752 
Q 1681 391 2138 391 
Q 2594 391 2855 752 
Q 3116 1113 3116 1747 
z
" transform="scale(0.015625)"/>
       <path id="DejaVuSans-6f" d="M 1959 3097 
Q 1497 3097 1228 2736 
Q 959 2375 959 1747 
Q 959 1119 1226 758 
Q 1494 397 1959 397 
Q 2419 397 2687 759 
Q 2956 1122 2956 1747 
Q 2956 2369 2687 2733 
Q 2419 3097 1959 3097 
z
M 1959 3584 
Q 2709 3584 3137 3096 
Q 3566 2609 3566 1747 
Q 3566 888 3137 398 
Q 2709 -91 1959 -91 
Q 1206 -91 779 398 
Q 353 888 353 1747 
Q 353 2609 779 3096 
Q 1206 3584 1959 3584 
z
" transform="scale(0.015625)"/>
       <path id="DejaVuSans-63" d="M 3122 3366 
L 3122 2828 
Q 2878 2963 2633 3030 
Q 2388 3097 2138 3097 
Q 1578 3097 1268 2742 
Q 959 2388 959 1747 
Q 959 1106 1268 751 
Q 1578 397 2138 397 
Q 2388 397 2633 464 
Q 2878 531 3122 666 
L 3122 134 
Q 2881 22 2623 -34 
Q 2366 -91 2075 -91 
Q 1284 -91 818 406 
Q 353 903 353 1747 
Q 353 2603 823 3093 
Q 1294 3584 2113 3584 
Q 2378 3584 2631 3529 
Q 2884 3475 3122 3366 
z
" transform="scale(0.015625)"/>
       <path id="DejaVuSans-68" d="M 3513 2113 
L 3513 0 
L 2938 0 
L 2938 2094 
Q 2938 2591 2744 2837 
Q 2550 3084 2163 3084 
Q 1697 3084 1428 2787 
Q 1159 2491 1159 1978 
L 1159 0 
L 581 0 
L 581 4863 
L 1159 4863 
L 1159 2956 
Q 1366 3272 1645 3428 
Q 1925 3584 2291 3584 
Q 2894 3584 3203 3211 
Q 3513 2838 3513 2113 
z
" transform="scale(0.015625)"/>
      </defs>
      <use xlink:href="#DejaVuSans-65"/>
      <use xlink:href="#DejaVuSans-70" x="61.523438"/>
      <use xlink:href="#DejaVuSans-6f" x="125"/>
      <use xlink:href="#DejaVuSans-63" x="186.181641"/>
      <use xlink:href="#DejaVuSans-68" x="241.162109"/>
     </g>
    </g>
   </g>
   <g id="matplotlib.axis_2">
    <g id="ytick_1">
     <g id="line2d_7">
      <defs>
       <path id="mce538d1c68" d="M 0 0 
L -3.5 0 
" style="stroke: #000000; stroke-width: 0.8"/>
      </defs>
      <g>
       <use xlink:href="#mce538d1c68" x="57.6" y="257.630946" style="stroke: #000000; stroke-width: 0.8"/>
      </g>
     </g>
     <g id="text_8">
      <!-- 0.2 -->
      <g transform="translate(34.696875 261.430165) scale(0.1 -0.1)">
       <defs>
        <path id="DejaVuSans-2e" d="M 684 794 
L 1344 794 
L 1344 0 
L 684 0 
L 684 794 
z
" transform="scale(0.015625)"/>
       </defs>
       <use xlink:href="#DejaVuSans-30"/>
       <use xlink:href="#DejaVuSans-2e" x="63.623047"/>
       <use xlink:href="#DejaVuSans-32" x="95.410156"/>
      </g>
     </g>
    </g>
    <g id="ytick_2">
     <g id="line2d_8">
      <g>
       <use xlink:href="#mce538d1c68" x="57.6" y="203.566614" style="stroke: #000000; stroke-width: 0.8"/>
      </g>
     </g>
     <g id="text_9">
      <!-- 0.4 -->
      <g transform="translate(34.696875 207.365832) scale(0.1 -0.1)">
       <use xlink:href="#DejaVuSans-30"/>
       <use xlink:href="#DejaVuSans-2e" x="63.623047"/>
       <use xlink:href="#DejaVuSans-34" x="95.410156"/>
      </g>
     </g>
    </g>
    <g id="ytick_3">
     <g id="line2d_9">
      <g>
       <use xlink:href="#mce538d1c68" x="57.6" y="149.502281" style="stroke: #000000; stroke-width: 0.8"/>
      </g>
     </g>
     <g id="text_10">
      <!-- 0.6 -->
      <g transform="translate(34.696875 153.3015) scale(0.1 -0.1)">
       <defs>
        <path id="DejaVuSans-36" d="M 2113 2584 
Q 1688 2584 1439 2293 
Q 1191 2003 1191 1497 
Q 1191 994 1439 701 
Q 1688 409 2113 409 
Q 2538 409 2786 701 
Q 3034 994 3034 1497 
Q 3034 2003 2786 2293 
Q 2538 2584 2113 2584 
z
M 3366 4563 
L 3366 3988 
Q 3128 4100 2886 4159 
Q 2644 4219 2406 4219 
Q 1781 4219 1451 3797 
Q 1122 3375 1075 2522 
Q 1259 2794 1537 2939 
Q 1816 3084 2150 3084 
Q 2853 3084 3261 2657 
Q 3669 2231 3669 1497 
Q 3669 778 3244 343 
Q 2819 -91 2113 -91 
Q 1303 -91 875 529 
Q 447 1150 447 2328 
Q 447 3434 972 4092 
Q 1497 4750 2381 4750 
Q 2619 4750 2861 4703 
Q 3103 4656 3366 4563 
z
" transform="scale(0.015625)"/>
       </defs>
       <use xlink:href="#DejaVuSans-30"/>
       <use xlink:href="#DejaVuSans-2e" x="63.623047"/>
       <use xlink:href="#DejaVuSans-36" x="95.410156"/>
      </g>
     </g>
    </g>
    <g id="ytick_4">
     <g id="line2d_10">
      <g>
       <use xlink:href="#mce538d1c68" x="57.6" y="95.437949" style="stroke: #000000; stroke-width: 0.8"/>
      </g>
     </g>
     <g id="text_11">
      <!-- 0.8 -->
      <g transform="translate(34.696875 99.237167) scale(0.1 -0.1)">
       <defs>
        <path id="DejaVuSans-38" d="M 2034 2216 
Q 1584 2216 1326 1975 
Q 1069 1734 1069 1313 
Q 1069 891 1326 650 
Q 1584 409 2034 409 
Q 2484 409 2743 651 
Q 3003 894 3003 1313 
Q 3003 1734 2745 1975 
Q 2488 2216 2034 2216 
z
M 1403 2484 
Q 997 2584 770 2862 
Q 544 3141 544 3541 
Q 544 4100 942 4425 
Q 1341 4750 2034 4750 
Q 2731 4750 3128 4425 
Q 3525 4100 3525 3541 
Q 3525 3141 3298 2862 
Q 3072 2584 2669 2484 
Q 3125 2378 3379 2068 
Q 3634 1759 3634 1313 
Q 3634 634 3220 271 
Q 2806 -91 2034 -91 
Q 1263 -91 848 271 
Q 434 634 434 1313 
Q 434 1759 690 2068 
Q 947 2378 1403 2484 
z
M 1172 3481 
Q 1172 3119 1398 2916 
Q 1625 2713 2034 2713 
Q 2441 2713 2670 2916 
Q 2900 3119 2900 3481 
Q 2900 3844 2670 4047 
Q 2441 4250 2034 4250 
Q 1625 4250 1398 4047 
Q 1172 3844 1172 3481 
z
" transform="scale(0.015625)"/>
       </defs>
       <use xlink:href="#DejaVuSans-30"/>
       <use xlink:href="#DejaVuSans-2e" x="63.623047"/>
       <use xlink:href="#DejaVuSans-38" x="95.410156"/>
      </g>
     </g>
    </g>
    <g id="text_12">
     <!-- loss value -->
     <g transform="translate(28.617187 199.432687) rotate(-90) scale(0.1 -0.1)">
      <defs>
       <path id="DejaVuSans-6c" d="M 603 4863 
L 1178 4863 
L 1178 0 
L 603 0 
L 603 4863 
z
" transform="scale(0.015625)"/>
       <path id="DejaVuSans-73" d="M 2834 3397 
L 2834 2853 
Q 2591 2978 2328 3040 
Q 2066 3103 1784 3103 
Q 1356 3103 1142 2972 
Q 928 2841 928 2578 
Q 928 2378 1081 2264 
Q 1234 2150 1697 2047 
L 1894 2003 
Q 2506 1872 2764 1633 
Q 3022 1394 3022 966 
Q 3022 478 2636 193 
Q 2250 -91 1575 -91 
Q 1294 -91 989 -36 
Q 684 19 347 128 
L 347 722 
Q 666 556 975 473 
Q 1284 391 1588 391 
Q 1994 391 2212 530 
Q 2431 669 2431 922 
Q 2431 1156 2273 1281 
Q 2116 1406 1581 1522 
L 1381 1569 
Q 847 1681 609 1914 
Q 372 2147 372 2553 
Q 372 3047 722 3315 
Q 1072 3584 1716 3584 
Q 2034 3584 2315 3537 
Q 2597 3491 2834 3397 
z
" transform="scale(0.015625)"/>
       <path id="DejaVuSans-20" transform="scale(0.015625)"/>
       <path id="DejaVuSans-76" d="M 191 3500 
L 800 3500 
L 1894 563 
L 2988 3500 
L 3597 3500 
L 2284 0 
L 1503 0 
L 191 3500 
z
" transform="scale(0.015625)"/>
       <path id="DejaVuSans-61" d="M 2194 1759 
Q 1497 1759 1228 1600 
Q 959 1441 959 1056 
Q 959 750 1161 570 
Q 1363 391 1709 391 
Q 2188 391 2477 730 
Q 2766 1069 2766 1631 
L 2766 1759 
L 2194 1759 
z
M 3341 1997 
L 3341 0 
L 2766 0 
L 2766 531 
Q 2569 213 2275 61 
Q 1981 -91 1556 -91 
Q 1019 -91 701 211 
Q 384 513 384 1019 
Q 384 1609 779 1909 
Q 1175 2209 1959 2209 
L 2766 2209 
L 2766 2266 
Q 2766 2663 2505 2880 
Q 2244 3097 1772 3097 
Q 1472 3097 1187 3025 
Q 903 2953 641 2809 
L 641 3341 
Q 956 3463 1253 3523 
Q 1550 3584 1831 3584 
Q 2591 3584 2966 3190 
Q 3341 2797 3341 1997 
z
" transform="scale(0.015625)"/>
       <path id="DejaVuSans-75" d="M 544 1381 
L 544 3500 
L 1119 3500 
L 1119 1403 
Q 1119 906 1312 657 
Q 1506 409 1894 409 
Q 2359 409 2629 706 
Q 2900 1003 2900 1516 
L 2900 3500 
L 3475 3500 
L 3475 0 
L 2900 0 
L 2900 538 
Q 2691 219 2414 64 
Q 2138 -91 1772 -91 
Q 1169 -91 856 284 
Q 544 659 544 1381 
z
M 1991 3584 
L 1991 3584 
z
" transform="scale(0.015625)"/>
      </defs>
      <use xlink:href="#DejaVuSans-6c"/>
      <use xlink:href="#DejaVuSans-6f" x="27.783203"/>
      <use xlink:href="#DejaVuSans-73" x="88.964844"/>
      <use xlink:href="#DejaVuSans-73" x="141.064453"/>
      <use xlink:href="#DejaVuSans-20" x="193.164062"/>
      <use xlink:href="#DejaVuSans-76" x="224.951172"/>
      <use xlink:href="#DejaVuSans-61" x="284.130859"/>
      <use xlink:href="#DejaVuSans-6c" x="345.410156"/>
      <use xlink:href="#DejaVuSans-75" x="373.193359"/>
      <use xlink:href="#DejaVuSans-65" x="436.572266"/>
     </g>
    </g>
   </g>
   <g id="line2d_11">
    <path d="M 73.832727 86.460891 
L 74.483338 131.9338 
L 75.133948 194.327134 
L 75.784558 242.802296 
L 76.435169 267.257125 
L 77.085779 277.919169 
L 77.736389 281.197929 
L 78.386999 280.941472 
L 79.03761 279.606807 
L 79.68822 279.068197 
L 80.33883 272.002146 
L 81.640051 270.034243 
L 82.290661 269.583518 
L 82.941272 269.474985 
L 83.591882 269.541573 
L 84.242492 270.065582 
L 84.893103 270.409505 
L 85.543713 271.127475 
L 86.194323 272.083905 
L 86.844934 268.695965 
L 87.495544 269.743651 
L 88.146154 271.275391 
L 88.796764 272.503347 
L 89.447375 274.682746 
L 92.700426 281.81834 
L 93.351037 275.690704 
L 94.652257 279.007471 
L 95.302868 280.151365 
L 95.953478 282.603998 
L 96.604088 283.695428 
L 97.905309 285.254124 
L 98.555919 286.813168 
L 99.206529 287.231356 
L 99.85714 280.364145 
L 100.50775 281.332776 
L 101.15836 283.48023 
L 102.459581 286.138484 
L 103.110191 286.372405 
L 104.411412 287.602091 
L 105.062022 288.213467 
L 105.712633 289.309853 
L 106.363243 282.546257 
L 107.664463 285.502009 
L 108.315074 285.90001 
L 108.965684 287.666273 
L 109.616294 288.997715 
L 110.266905 289.016498 
L 110.917515 288.864341 
L 112.218736 290.677359 
L 112.869346 284.897763 
L 113.519956 286.210312 
L 114.170567 286.87278 
L 114.821177 288.156181 
L 115.471787 289.996444 
L 116.122398 290.733366 
L 117.423618 291.321127 
L 118.074228 292.488549 
L 118.724839 293.109864 
L 119.375449 285.436657 
L 120.026059 287.229302 
L 121.32728 290.312217 
L 121.97789 291.162013 
L 122.628501 291.52387 
L 123.929721 293.419205 
L 124.580332 293.800254 
L 125.230942 293.925868 
L 125.881552 286.967787 
L 126.532163 288.202247 
L 127.182773 290.127547 
L 127.833383 291.052706 
L 128.483993 292.317153 
L 129.134604 292.785974 
L 129.785214 293.576732 
L 130.435824 294.742883 
L 131.086435 294.816459 
L 131.737045 295.488 
L 132.387655 288.044446 
L 134.339486 292.112142 
L 134.990097 292.995291 
L 135.640707 294.158308 
L 136.291317 293.803184 
L 136.941927 295.026338 
L 137.592538 295.073872 
L 138.243148 295.235671 
L 138.893758 288.484013 
L 139.544369 290.280107 
L 140.194979 291.235155 
L 140.845589 291.819533 
L 141.4962 292.819109 
L 142.14681 292.27292 
L 142.79742 292.922638 
L 143.448031 293.232574 
L 144.098641 294.143942 
L 144.749251 293.775724 
L 145.399862 288.830659 
L 147.351692 291.490634 
L 148.002303 291.959475 
L 148.652913 293.341319 
L 149.954134 293.387614 
L 150.604744 294.443498 
L 151.255354 294.900187 
L 151.905965 289.124264 
L 153.207185 291.419024 
L 153.857796 292.036325 
L 154.508406 291.951365 
L 155.809627 293.725967 
L 156.460237 293.527847 
L 157.110847 294.738935 
L 157.761457 294.2862 
L 158.412068 288.91354 
L 159.062678 290.686316 
L 159.713288 291.042884 
L 160.363899 292.130899 
L 161.665119 293.2726 
L 162.31573 294.375099 
L 162.96634 294.127398 
L 163.61695 294.224099 
L 164.267561 294.495611 
L 164.918171 290.079334 
L 165.568781 289.646891 
L 166.219392 290.964805 
L 166.870002 291.430865 
L 167.520612 293.454283 
L 168.171222 293.017137 
L 168.821833 293.534739 
L 169.472443 293.808153 
L 170.123053 294.438823 
L 170.773664 294.565958 
L 171.424274 290.014562 
L 172.074884 291.220024 
L 172.725495 291.946547 
L 173.376105 292.444707 
L 174.026715 293.325529 
L 174.677326 293.526072 
L 175.327936 293.268519 
L 176.629156 294.586461 
L 177.279767 293.968256 
L 177.930377 289.903884 
L 178.580987 291.452631 
L 179.231598 291.683443 
L 179.882208 292.783571 
L 180.532818 292.836751 
L 181.183429 294.005198 
L 181.834039 294.333442 
L 182.484649 294.078261 
L 183.13526 294.599905 
L 183.78587 294.273892 
L 184.43648 290.172722 
L 185.087091 291.325179 
L 185.737701 291.562459 
L 186.388311 292.441519 
L 187.038921 293.046472 
L 187.689532 293.412323 
L 188.340142 293.571638 
L 188.990752 294.651501 
L 189.641363 294.479988 
L 190.291973 294.881314 
L 190.942583 291.113104 
L 191.593194 291.098447 
L 192.243804 292.184044 
L 192.894414 292.625585 
L 193.545025 292.70705 
L 194.195635 294.111741 
L 194.846245 293.732497 
L 195.496856 295.11203 
L 196.147466 294.323537 
L 196.798076 294.325927 
L 197.448686 290.803384 
L 198.749907 291.783842 
L 199.400517 293.049644 
L 200.051128 293.454408 
L 200.701738 293.146423 
L 201.352348 293.906761 
L 202.002959 293.847594 
L 203.304179 294.519538 
L 203.95479 290.725896 
L 204.6054 291.035822 
L 205.25601 292.224168 
L 205.906621 292.426246 
L 206.557231 293.237793 
L 207.207841 293.161233 
L 207.858451 293.969938 
L 208.509062 294.286879 
L 209.159672 294.7442 
L 209.810282 294.875661 
L 210.460893 290.931996 
L 211.111503 291.172369 
L 211.762113 292.100999 
L 213.713944 293.266964 
L 214.364555 294.562023 
L 215.015165 294.746289 
L 215.665775 294.501229 
L 216.316385 294.964477 
L 216.966996 291.043824 
L 217.617606 291.235586 
L 218.268216 292.178669 
L 218.918827 293.347889 
L 219.569437 293.751729 
L 220.220047 293.137652 
L 220.870658 293.801698 
L 221.521268 293.692679 
L 222.171878 295.158578 
L 222.822489 294.611111 
L 223.473099 291.280048 
L 224.123709 291.119524 
L 224.77432 292.559031 
L 225.42493 293.079796 
L 226.72615 293.765507 
L 227.376761 294.279675 
L 228.027371 294.978635 
L 228.677981 294.018289 
L 229.328592 294.591893 
L 229.979202 291.039863 
L 230.629812 291.332525 
L 231.280423 291.932358 
L 231.931033 292.803031 
L 232.581643 293.313135 
L 233.232254 293.584844 
L 233.882864 294.035847 
L 234.533474 294.130822 
L 235.184085 294.54952 
L 235.834695 294.568873 
L 236.485305 291.736278 
L 237.135915 291.95271 
L 237.786526 291.928402 
L 238.437136 293.317314 
L 239.087746 293.280225 
L 239.738357 293.508417 
L 240.388967 293.917361 
L 241.039577 294.736402 
L 241.690188 294.135817 
L 242.340798 294.731006 
L 242.991408 291.444568 
L 244.292629 292.508814 
L 246.24446 293.198912 
L 246.89507 293.872216 
L 247.54568 293.385318 
L 248.196291 294.355107 
L 248.846901 294.682844 
L 249.497511 291.771185 
L 250.148122 292.779525 
L 250.798732 293.124736 
L 252.099953 292.063688 
L 252.750563 293.243527 
L 253.401173 293.681571 
L 254.051784 294.364293 
L 255.353004 294.541363 
L 256.003615 290.832965 
L 256.654225 291.806375 
L 257.304835 293.363808 
L 257.955445 292.409491 
L 258.606056 293.046561 
L 259.256666 293.956838 
L 259.907276 294.05253 
L 260.557887 293.606916 
L 261.208497 294.150421 
L 261.859107 293.884193 
L 262.509718 291.091855 
L 263.160328 292.448103 
L 263.810938 292.366993 
L 264.461549 292.778542 
L 265.112159 293.46351 
L 265.762769 293.267953 
L 267.06399 294.700779 
L 267.7146 293.863815 
L 268.36521 294.11164 
L 269.015821 292.40362 
L 269.666431 291.747814 
L 270.317041 292.51736 
L 270.967652 292.337396 
L 271.618262 293.582033 
L 272.268872 293.022678 
L 272.919483 293.83761 
L 273.570093 294.277703 
L 274.220703 293.834515 
L 274.871314 293.889766 
L 275.521924 291.617511 
L 276.172534 292.491618 
L 276.823144 291.534903 
L 277.473755 293.230844 
L 278.124365 293.008553 
L 278.774975 293.558047 
L 279.425586 293.489586 
L 280.726806 293.817582 
L 281.377417 294.401328 
L 282.028027 291.497506 
L 282.678637 291.820131 
L 283.329248 293.037989 
L 283.979858 292.88652 
L 284.630468 293.263883 
L 285.281079 293.971821 
L 285.931689 294.091226 
L 286.582299 293.616181 
L 287.88352 294.387141 
L 288.53413 291.615356 
L 289.18474 292.597835 
L 289.835351 291.790865 
L 290.485961 292.815661 
L 291.136571 293.099365 
L 291.787182 292.910257 
L 292.437792 293.263867 
L 293.088402 294.116422 
L 293.739013 293.585002 
L 294.389623 293.982666 
L 295.040233 291.240706 
L 295.690844 292.00257 
L 296.341454 292.463832 
L 296.992064 292.273474 
L 298.943895 293.848055 
L 299.594505 292.687253 
L 300.245116 293.043662 
L 300.895726 293.789537 
L 301.546336 291.8424 
L 302.196947 292.591505 
L 302.847557 292.765133 
L 303.498167 292.394601 
L 304.799388 292.646787 
L 306.100608 294.09147 
L 306.751219 293.276861 
L 307.401829 294.116669 
L 308.052439 291.717096 
L 308.70305 292.435376 
L 309.35366 292.216392 
L 310.654881 293.025802 
L 311.956101 292.750511 
L 312.606712 293.854452 
L 313.257322 293.441772 
L 313.907932 293.497549 
L 314.558543 291.846567 
L 315.209153 292.133731 
L 315.859763 291.720008 
L 316.510373 292.392976 
L 317.160984 292.173168 
L 317.811594 293.717426 
L 318.462204 292.931544 
L 319.763425 294.143938 
L 320.414035 293.385397 
L 321.064646 292.232083 
L 322.365866 292.538395 
L 323.016477 292.504569 
L 323.667087 292.993375 
L 324.317697 292.552404 
L 324.968308 293.391421 
L 326.269528 293.309068 
L 326.920138 292.545609 
L 327.570749 292.088423 
L 328.221359 291.931506 
L 328.871969 291.924062 
L 329.52258 292.888107 
L 330.17319 293.006731 
L 330.8238 292.53769 
L 331.474411 292.89455 
L 332.125021 292.185333 
L 332.775631 294.293245 
L 333.426242 293.658512 
L 334.076852 292.270628 
L 334.727462 291.65438 
L 336.028683 291.85898 
L 336.679293 292.961614 
L 337.329903 292.716195 
L 337.980514 293.160139 
L 338.631124 293.910448 
L 339.281734 293.951446 
L 339.932345 293.794622 
L 340.582955 292.391337 
L 341.233565 291.567546 
L 342.534786 292.374133 
L 343.185396 293.185013 
L 343.836007 292.572062 
L 344.486617 292.937912 
L 345.137227 293.581721 
L 345.787837 292.869074 
L 346.438448 292.951082 
L 347.089058 291.741331 
L 347.739668 292.670404 
L 348.390279 292.114868 
L 349.040889 292.128291 
L 351.64333 292.983863 
L 352.293941 293.601485 
L 352.944551 293.108094 
L 353.595161 291.586922 
L 354.245772 292.650839 
L 354.896382 292.098483 
L 355.546992 292.821746 
L 356.197602 292.57868 
L 356.848213 292.814443 
L 357.498823 292.322234 
L 358.149433 292.905238 
L 358.800044 292.734386 
L 359.450654 293.190161 
L 360.101264 292.154482 
L 360.751875 291.679423 
L 361.402485 292.29583 
L 362.053095 292.423237 
L 362.703706 293.162967 
L 363.354316 292.702453 
L 364.004926 292.999011 
L 364.655537 294.048244 
L 365.306147 292.99855 
L 367.257978 292.053294 
L 367.908588 292.48877 
L 368.559198 293.182876 
L 369.209809 292.900959 
L 369.860419 293.276213 
L 370.511029 292.224067 
L 371.16164 292.75846 
L 371.81225 293.016128 
L 372.46286 292.945485 
L 373.113471 292.566845 
L 373.764081 291.777218 
L 374.414691 291.508325 
L 375.065302 292.465426 
L 375.715912 292.992707 
L 376.366522 292.751266 
L 377.017132 292.082447 
L 377.667743 292.862122 
L 378.318353 292.146782 
L 378.968963 292.464376 
L 379.619574 292.454938 
L 380.270184 291.716947 
L 382.222015 292.711905 
L 382.872625 292.638078 
L 383.523236 293.166316 
L 385.475066 292.686347 
L 386.125677 291.973984 
L 386.776287 291.675095 
L 387.426897 292.335525 
L 388.077508 292.487413 
L 388.728118 292.118932 
L 389.378728 292.487955 
L 390.029339 292.397383 
L 390.679949 292.536504 
L 391.330559 292.427005 
L 391.98117 292.574962 
L 392.63178 291.388914 
L 393.28239 292.218305 
L 393.933001 292.550493 
L 394.583611 292.088203 
L 395.234221 293.076072 
L 395.884831 292.941816 
L 396.535442 293.030903 
L 397.186052 292.226901 
L 397.836662 293.074409 
L 398.487273 292.840799 
L 398.487273 292.840799 
" clip-path="url(#pc527990d55)" style="fill: none; stroke: #0000ff; stroke-width: 1.5; stroke-linecap: square"/>
   </g>
   <g id="line2d_12">
    <path d="M 73.832727 278.802394 
L 79.68822 278.781657 
L 80.33883 291.322072 
L 97.905309 291.303277 
L 334.727462 291.327232 
L 398.487273 291.327328 
L 398.487273 291.327328 
" clip-path="url(#pc527990d55)" style="fill: none; stroke: #008000; stroke-width: 1.5; stroke-linecap: square"/>
   </g>
   <g id="line2d_13">
    <path d="M 73.832727 53.568 
L 74.483338 99.040297 
L 75.133948 161.432399 
L 75.784558 209.905651 
L 76.435169 234.358015 
L 77.085779 245.017239 
L 77.736389 248.293017 
L 78.386999 248.03355 
L 79.03761 246.695953 
L 79.68822 246.154575 
L 80.33883 251.628941 
L 81.640051 249.651987 
L 82.290661 249.197379 
L 82.941272 249.085402 
L 83.591882 249.148977 
L 84.242492 249.670379 
L 84.893103 250.01208 
L 85.543713 250.728176 
L 86.194323 251.683039 
L 86.844934 248.298471 
L 87.495544 249.345569 
L 88.146154 250.876886 
L 88.796764 252.104576 
L 89.447375 254.28383 
L 92.700426 261.419835 
L 93.351037 255.295199 
L 94.652257 258.613082 
L 95.302868 259.757516 
L 95.953478 262.210665 
L 96.604088 263.302572 
L 97.905309 264.862122 
L 98.555919 266.421535 
L 99.206529 266.840059 
L 99.85714 259.974816 
L 100.50775 260.943994 
L 101.15836 263.091986 
L 102.459581 265.751185 
L 103.110191 265.985508 
L 104.411412 267.215873 
L 105.062022 267.827529 
L 105.712633 268.924165 
L 106.363243 262.162158 
L 107.664463 265.118732 
L 108.315074 265.517108 
L 108.965684 267.283719 
L 109.616294 268.615459 
L 110.266905 268.634488 
L 110.917515 268.482544 
L 112.218736 270.295905 
L 112.869346 264.517731 
L 113.519956 265.830612 
L 114.170567 266.49338 
L 114.821177 267.777041 
L 115.471787 269.617523 
L 116.122398 270.354626 
L 117.423618 270.942649 
L 118.074228 272.110164 
L 118.724839 272.73154 
L 119.375449 265.059769 
L 120.026059 266.852635 
L 121.32728 269.935905 
L 121.97789 270.785827 
L 122.628501 271.147769 
L 123.929721 273.043194 
L 124.580332 273.424253 
L 125.230942 273.54985 
L 125.881552 266.593164 
L 126.532163 267.827771 
L 127.182773 269.75319 
L 127.833383 270.67843 
L 128.483993 271.942925 
L 129.134604 272.41176 
L 129.785214 273.202506 
L 130.435824 274.368619 
L 131.086435 274.442124 
L 131.737045 275.113581 
L 132.387655 267.671497 
L 134.339486 271.739357 
L 134.990097 272.622495 
L 135.640707 273.78547 
L 136.291317 273.430267 
L 136.941927 274.653321 
L 137.592538 274.700732 
L 138.243148 274.862392 
L 138.893758 268.112236 
L 139.544369 269.908385 
L 140.194979 270.863441 
L 140.845589 271.44783 
L 141.4962 272.447413 
L 142.14681 271.901222 
L 142.79742 272.550935 
L 143.448031 272.860858 
L 144.098641 273.772209 
L 144.749251 273.403976 
L 145.399862 268.45937 
L 147.351692 271.119399 
L 148.002303 271.588242 
L 148.652913 272.970084 
L 149.954134 273.016351 
L 150.604744 274.072222 
L 151.255354 274.528893 
L 151.905965 268.753422 
L 153.207185 271.048226 
L 153.857796 271.665529 
L 154.508406 271.580565 
L 155.809627 273.355147 
L 156.460237 273.157008 
L 157.110847 274.368071 
L 157.761457 273.915316 
L 158.412068 268.543074 
L 159.062678 270.315872 
L 159.713288 270.672444 
L 160.363899 271.76046 
L 161.665119 272.902138 
L 162.31573 274.004623 
L 162.96634 273.756894 
L 163.61695 273.853573 
L 164.267561 274.125059 
L 164.918171 269.709183 
L 165.568781 269.276749 
L 166.219392 270.594669 
L 166.870002 271.060725 
L 167.520612 273.084136 
L 168.171222 272.646974 
L 168.821833 273.164553 
L 169.472443 273.437949 
L 170.123053 274.068597 
L 170.773664 274.195708 
L 171.424274 269.644665 
L 172.074884 270.850132 
L 172.725495 271.576657 
L 173.376105 272.074809 
L 174.026715 272.955623 
L 174.677326 273.156146 
L 175.327936 272.898577 
L 176.629156 274.216477 
L 177.279767 273.598243 
L 177.930377 269.534202 
L 178.580987 271.082952 
L 179.231598 271.313763 
L 179.882208 272.413883 
L 180.532818 272.467054 
L 181.183429 273.635479 
L 181.834039 273.963705 
L 182.484649 273.708509 
L 183.13526 274.230124 
L 183.78587 273.904089 
L 184.43648 269.803227 
L 185.087091 270.955688 
L 185.737701 271.192968 
L 186.388311 272.072018 
L 187.038921 272.676959 
L 187.689532 273.042791 
L 188.340142 273.202087 
L 188.990752 274.281934 
L 189.641363 274.110401 
L 190.291973 274.511701 
L 190.942583 270.74377 
L 191.593194 270.729115 
L 192.243804 271.81471 
L 192.894414 272.256247 
L 193.545025 272.337696 
L 194.195635 273.742369 
L 194.846245 273.363107 
L 195.496856 274.742624 
L 196.147466 273.95411 
L 196.798076 273.956483 
L 197.448686 270.434198 
L 198.749907 271.414651 
L 199.400517 272.680447 
L 200.051128 273.085195 
L 200.701738 272.777194 
L 201.352348 273.537515 
L 202.002959 273.478335 
L 203.304179 274.150247 
L 203.95479 270.356834 
L 204.6054 270.66676 
L 205.25601 271.855104 
L 205.906621 272.057178 
L 206.557231 272.868713 
L 207.207841 272.792139 
L 207.858451 273.600833 
L 208.509062 273.917761 
L 209.159672 274.375064 
L 209.810282 274.506513 
L 210.460893 270.563049 
L 211.111503 270.803422 
L 211.762113 271.73205 
L 213.713944 272.897989 
L 214.364555 274.193029 
L 215.015165 274.377283 
L 215.665775 274.132209 
L 216.316385 274.595441 
L 216.966996 270.674978 
L 217.617606 270.866736 
L 218.268216 271.80982 
L 218.918827 272.979031 
L 219.569437 273.38286 
L 220.220047 272.768775 
L 220.870658 273.432809 
L 221.521268 273.323776 
L 222.171878 274.78966 
L 222.822489 274.242184 
L 223.473099 270.911291 
L 224.123709 270.750763 
L 224.77432 272.190267 
L 225.42493 272.711029 
L 226.72615 273.396717 
L 227.376761 273.910877 
L 228.027371 274.609822 
L 228.677981 273.649465 
L 229.328592 274.223051 
L 229.979202 270.671187 
L 230.629812 270.963845 
L 231.280423 271.563679 
L 231.931033 272.434346 
L 232.581643 272.944433 
L 233.232254 273.216137 
L 233.882864 273.667124 
L 234.533474 273.76209 
L 235.184085 274.180776 
L 235.834695 274.200115 
L 236.485305 271.367671 
L 237.135915 271.584105 
L 237.786526 271.559796 
L 238.437136 272.948695 
L 239.087746 272.9116 
L 239.738357 273.139788 
L 240.388967 273.548714 
L 241.039577 274.36774 
L 241.690188 273.76715 
L 242.340798 274.362327 
L 242.991408 271.076028 
L 244.292629 272.140274 
L 246.24446 272.830345 
L 246.89507 273.503639 
L 247.54568 273.01673 
L 248.196291 273.986508 
L 248.846901 274.314235 
L 249.497511 271.402708 
L 250.148122 272.411043 
L 250.798732 272.756252 
L 252.099953 271.695188 
L 252.750563 272.875021 
L 253.401173 273.313053 
L 254.051784 273.995769 
L 255.353004 274.172816 
L 256.003615 270.464537 
L 256.654225 271.437945 
L 257.304835 272.995381 
L 257.955445 272.041058 
L 258.606056 272.678123 
L 259.256666 273.58839 
L 259.907276 273.684074 
L 260.557887 273.238453 
L 261.208497 273.781949 
L 261.859107 273.515707 
L 262.509718 270.72348 
L 263.160328 272.079728 
L 263.810938 271.99861 
L 264.461549 272.410161 
L 265.112159 273.095121 
L 265.762769 272.899552 
L 267.06399 274.332366 
L 267.7146 273.49539 
L 268.36521 273.743207 
L 269.015821 272.035289 
L 269.666431 271.379482 
L 270.317041 272.149023 
L 270.967652 271.969059 
L 271.618262 273.213688 
L 272.268872 272.654329 
L 272.919483 273.469255 
L 273.570093 273.909338 
L 274.220703 273.466145 
L 274.871314 273.521387 
L 275.521924 271.249221 
L 276.172534 272.123328 
L 276.823144 271.166612 
L 277.473755 272.86255 
L 278.124365 272.640255 
L 278.774975 273.189737 
L 279.425586 273.121267 
L 280.726806 273.449252 
L 281.377417 274.032993 
L 282.028027 271.129251 
L 282.678637 271.451879 
L 283.329248 272.669732 
L 283.979858 272.518259 
L 284.630468 272.895621 
L 285.281079 273.603552 
L 285.931689 273.722953 
L 286.582299 273.247899 
L 287.88352 274.01885 
L 288.53413 271.247134 
L 289.18474 272.229617 
L 289.835351 271.422639 
L 290.485961 272.447437 
L 291.136571 272.731129 
L 291.787182 272.542021 
L 292.437792 272.895625 
L 293.088402 273.748173 
L 293.739013 273.216749 
L 294.389623 273.614408 
L 295.040233 270.87252 
L 295.690844 271.63438 
L 296.341454 272.095643 
L 296.992064 271.905278 
L 298.943895 273.479845 
L 299.594505 272.319041 
L 300.245116 272.675444 
L 300.895726 273.421313 
L 301.546336 271.474239 
L 302.196947 272.223346 
L 302.847557 272.396965 
L 303.498167 272.026436 
L 304.799388 272.278611 
L 306.100608 273.723288 
L 306.751219 272.908672 
L 307.401829 273.748475 
L 308.052439 271.348965 
L 308.70305 272.06724 
L 309.35366 271.848256 
L 310.654881 272.65766 
L 311.956101 272.382359 
L 312.606712 273.486298 
L 313.257322 273.073615 
L 313.907932 273.129384 
L 314.558543 271.47846 
L 315.209153 271.765624 
L 315.859763 271.351897 
L 316.510373 272.024865 
L 317.160984 271.805051 
L 317.811594 273.349306 
L 318.462204 272.563419 
L 319.763425 273.775802 
L 320.414035 273.017261 
L 321.064646 271.863998 
L 322.365866 272.170308 
L 323.016477 272.136476 
L 323.667087 272.625278 
L 324.317697 272.184305 
L 324.968308 273.02332 
L 326.269528 272.940961 
L 326.920138 272.177498 
L 327.570749 271.720356 
L 328.221359 271.563437 
L 328.871969 271.555993 
L 329.52258 272.520036 
L 330.17319 272.63866 
L 330.8238 272.169611 
L 331.474411 272.526469 
L 332.125021 271.817248 
L 332.775631 273.92516 
L 333.426242 273.290423 
L 334.076852 271.902579 
L 334.727462 271.286336 
L 336.028683 271.490931 
L 336.679293 272.593561 
L 337.329903 272.348136 
L 337.980514 272.792074 
L 338.631124 273.542385 
L 339.281734 273.58338 
L 339.932345 273.426553 
L 340.582955 272.023306 
L 341.233565 271.199514 
L 342.534786 272.006098 
L 343.185396 272.816976 
L 343.836007 272.204023 
L 344.486617 272.569868 
L 345.137227 273.213672 
L 345.787837 272.501027 
L 346.438448 272.583031 
L 347.089058 271.373314 
L 347.739668 272.302385 
L 348.390279 271.746849 
L 349.040889 271.760271 
L 351.64333 272.615836 
L 352.293941 273.23345 
L 352.944551 272.740059 
L 353.595161 271.218917 
L 354.245772 272.282841 
L 354.896382 271.730483 
L 355.546992 272.453737 
L 356.197602 272.210673 
L 356.848213 272.446438 
L 357.498823 271.954224 
L 358.149433 272.537224 
L 358.800044 272.366368 
L 359.450654 272.82214 
L 360.101264 271.786493 
L 360.751875 271.311431 
L 361.402485 271.927836 
L 362.053095 272.055245 
L 362.703706 272.794974 
L 363.354316 272.334457 
L 364.004926 272.631014 
L 364.655537 273.680239 
L 365.306147 272.630547 
L 367.257978 271.685316 
L 367.908588 272.12079 
L 368.559198 272.814897 
L 369.209809 272.532978 
L 369.860419 272.908229 
L 370.511029 271.856079 
L 371.16164 272.390472 
L 371.81225 272.648134 
L 372.46286 272.577489 
L 373.113471 272.198875 
L 373.764081 271.409249 
L 374.414691 271.140357 
L 375.065302 272.097455 
L 375.715912 272.624734 
L 376.366522 272.38329 
L 377.017132 271.714471 
L 377.667743 272.494143 
L 378.318353 271.778804 
L 378.968963 272.096396 
L 379.619574 272.086982 
L 380.270184 271.348989 
L 382.222015 272.343939 
L 382.872625 272.270112 
L 383.523236 272.79835 
L 385.475066 272.318377 
L 386.125677 271.606034 
L 386.776287 271.307145 
L 387.426897 271.967577 
L 388.077508 272.119461 
L 388.728118 271.750978 
L 389.378728 272.120001 
L 390.029339 272.029425 
L 390.679949 272.168547 
L 391.330559 272.059047 
L 391.98117 272.207 
L 392.63178 271.020972 
L 393.28239 271.850367 
L 393.933001 272.182549 
L 394.583611 271.720259 
L 395.234221 272.708128 
L 395.884831 272.573867 
L 396.535442 272.662957 
L 397.186052 271.858951 
L 397.836662 272.706461 
L 398.487273 272.472847 
L 398.487273 272.472847 
" clip-path="url(#pc527990d55)" style="fill: none; stroke: #ff0000; stroke-width: 1.5; stroke-linecap: square"/>
   </g>
   <g id="patch_3">
    <path d="M 57.6 307.584 
L 57.6 41.472 
" style="fill: none; stroke: #000000; stroke-width: 0.8; stroke-linejoin: miter; stroke-linecap: square"/>
   </g>
   <g id="patch_4">
    <path d="M 414.72 307.584 
L 414.72 41.472 
" style="fill: none; stroke: #000000; stroke-width: 0.8; stroke-linejoin: miter; stroke-linecap: square"/>
   </g>
   <g id="patch_5">
    <path d="M 57.6 307.584 
L 414.72 307.584 
" style="fill: none; stroke: #000000; stroke-width: 0.8; stroke-linejoin: miter; stroke-linecap: square"/>
   </g>
   <g id="patch_6">
    <path d="M 57.6 41.472 
L 414.72 41.472 
" style="fill: none; stroke: #000000; stroke-width: 0.8; stroke-linejoin: miter; stroke-linecap: square"/>
   </g>
   <g id="text_13">
    <!-- The loss curve on λ_0.00025_8_clients_iid/host/8 -->
    <g transform="translate(89.759062 35.472) scale(0.12 -0.12)">
     <defs>
      <path id="DejaVuSans-54" d="M -19 4666 
L 3928 4666 
L 3928 4134 
L 2272 4134 
L 2272 0 
L 1638 0 
L 1638 4134 
L -19 4134 
L -19 4666 
z
" transform="scale(0.015625)"/>
      <path id="DejaVuSans-72" d="M 2631 2963 
Q 2534 3019 2420 3045 
Q 2306 3072 2169 3072 
Q 1681 3072 1420 2755 
Q 1159 2438 1159 1844 
L 1159 0 
L 581 0 
L 581 3500 
L 1159 3500 
L 1159 2956 
Q 1341 3275 1631 3429 
Q 1922 3584 2338 3584 
Q 2397 3584 2469 3576 
Q 2541 3569 2628 3553 
L 2631 2963 
z
" transform="scale(0.015625)"/>
      <path id="DejaVuSans-6e" d="M 3513 2113 
L 3513 0 
L 2938 0 
L 2938 2094 
Q 2938 2591 2744 2837 
Q 2550 3084 2163 3084 
Q 1697 3084 1428 2787 
Q 1159 2491 1159 1978 
L 1159 0 
L 581 0 
L 581 3500 
L 1159 3500 
L 1159 2956 
Q 1366 3272 1645 3428 
Q 1925 3584 2291 3584 
Q 2894 3584 3203 3211 
Q 3513 2838 3513 2113 
z
" transform="scale(0.015625)"/>
      <path id="DejaVuSans-3bb" d="M 1981 4316 
L 3597 0 
L 2988 0 
L 2006 2588 
L 800 0 
L 191 0 
L 1725 3356 
L 1494 3975 
Q 1347 4369 1013 4369 
L 713 4369 
L 713 4863 
L 1078 4856 
Q 1784 4847 1981 4316 
z
" transform="scale(0.015625)"/>
      <path id="DejaVuSans-5f" d="M 3263 -1063 
L 3263 -1509 
L -63 -1509 
L -63 -1063 
L 3263 -1063 
z
" transform="scale(0.015625)"/>
      <path id="DejaVuSans-69" d="M 603 3500 
L 1178 3500 
L 1178 0 
L 603 0 
L 603 3500 
z
M 603 4863 
L 1178 4863 
L 1178 4134 
L 603 4134 
L 603 4863 
z
" transform="scale(0.015625)"/>
      <path id="DejaVuSans-74" d="M 1172 4494 
L 1172 3500 
L 2356 3500 
L 2356 3053 
L 1172 3053 
L 1172 1153 
Q 1172 725 1289 603 
Q 1406 481 1766 481 
L 2356 481 
L 2356 0 
L 1766 0 
Q 1100 0 847 248 
Q 594 497 594 1153 
L 594 3053 
L 172 3053 
L 172 3500 
L 594 3500 
L 594 4494 
L 1172 4494 
z
" transform="scale(0.015625)"/>
      <path id="DejaVuSans-64" d="M 2906 2969 
L 2906 4863 
L 3481 4863 
L 3481 0 
L 2906 0 
L 2906 525 
Q 2725 213 2448 61 
Q 2172 -91 1784 -91 
Q 1150 -91 751 415 
Q 353 922 353 1747 
Q 353 2572 751 3078 
Q 1150 3584 1784 3584 
Q 2172 3584 2448 3432 
Q 2725 3281 2906 2969 
z
M 947 1747 
Q 947 1113 1208 752 
Q 1469 391 1925 391 
Q 2381 391 2643 752 
Q 2906 1113 2906 1747 
Q 2906 2381 2643 2742 
Q 2381 3103 1925 3103 
Q 1469 3103 1208 2742 
Q 947 2381 947 1747 
z
" transform="scale(0.015625)"/>
      <path id="DejaVuSans-2f" d="M 1625 4666 
L 2156 4666 
L 531 -594 
L 0 -594 
L 1625 4666 
z
" transform="scale(0.015625)"/>
     </defs>
     <use xlink:href="#DejaVuSans-54"/>
     <use xlink:href="#DejaVuSans-68" x="61.083984"/>
     <use xlink:href="#DejaVuSans-65" x="124.462891"/>
     <use xlink:href="#DejaVuSans-20" x="185.986328"/>
     <use xlink:href="#DejaVuSans-6c" x="217.773438"/>
     <use xlink:href="#DejaVuSans-6f" x="245.556641"/>
     <use xlink:href="#DejaVuSans-73" x="306.738281"/>
     <use xlink:href="#DejaVuSans-73" x="358.837891"/>
     <use xlink:href="#DejaVuSans-20" x="410.9375"/>
     <use xlink:href="#DejaVuSans-63" x="442.724609"/>
     <use xlink:href="#DejaVuSans-75" x="497.705078"/>
     <use xlink:href="#DejaVuSans-72" x="561.083984"/>
     <use xlink:href="#DejaVuSans-76" x="602.197266"/>
     <use xlink:href="#DejaVuSans-65" x="661.376953"/>
     <use xlink:href="#DejaVuSans-20" x="722.900391"/>
     <use xlink:href="#DejaVuSans-6f" x="754.6875"/>
     <use xlink:href="#DejaVuSans-6e" x="815.869141"/>
     <use xlink:href="#DejaVuSans-20" x="879.248047"/>
     <use xlink:href="#DejaVuSans-3bb" x="911.035156"/>
     <use xlink:href="#DejaVuSans-5f" x="970.214844"/>
     <use xlink:href="#DejaVuSans-30" x="1020.214844"/>
     <use xlink:href="#DejaVuSans-2e" x="1083.837891"/>
     <use xlink:href="#DejaVuSans-30" x="1115.625"/>
     <use xlink:href="#DejaVuSans-30" x="1179.248047"/>
     <use xlink:href="#DejaVuSans-30" x="1242.871094"/>
     <use xlink:href="#DejaVuSans-32" x="1306.494141"/>
     <use xlink:href="#DejaVuSans-35" x="1370.117188"/>
     <use xlink:href="#DejaVuSans-5f" x="1433.740234"/>
     <use xlink:href="#DejaVuSans-38" x="1483.740234"/>
     <use xlink:href="#DejaVuSans-5f" x="1547.363281"/>
     <use xlink:href="#DejaVuSans-63" x="1597.363281"/>
     <use xlink:href="#DejaVuSans-6c" x="1652.34375"/>
     <use xlink:href="#DejaVuSans-69" x="1680.126953"/>
     <use xlink:href="#DejaVuSans-65" x="1707.910156"/>
     <use xlink:href="#DejaVuSans-6e" x="1769.433594"/>
     <use xlink:href="#DejaVuSans-74" x="1832.8125"/>
     <use xlink:href="#DejaVuSans-73" x="1872.021484"/>
     <use xlink:href="#DejaVuSans-5f" x="1924.121094"/>
     <use xlink:href="#DejaVuSans-69" x="1974.121094"/>
     <use xlink:href="#DejaVuSans-69" x="2001.904297"/>
     <use xlink:href="#DejaVuSans-64" x="2029.6875"/>
     <use xlink:href="#DejaVuSans-2f" x="2093.164062"/>
     <use xlink:href="#DejaVuSans-68" x="2126.855469"/>
     <use xlink:href="#DejaVuSans-6f" x="2190.234375"/>
     <use xlink:href="#DejaVuSans-73" x="2251.416016"/>
     <use xlink:href="#DejaVuSans-74" x="2303.515625"/>
     <use xlink:href="#DejaVuSans-2f" x="2342.724609"/>
     <use xlink:href="#DejaVuSans-38" x="2376.416016"/>
    </g>
   </g>
   <g id="legend_1">
    <g id="patch_7">
     <path d="M 317.418438 94.34075 
L 407.72 94.34075 
Q 409.72 94.34075 409.72 92.34075 
L 409.72 48.472 
Q 409.72 46.472 407.72 46.472 
L 317.418438 46.472 
Q 315.418438 46.472 315.418438 48.472 
L 315.418438 92.34075 
Q 315.418438 94.34075 317.418438 94.34075 
z
" style="fill: #ffffff; opacity: 0.8; stroke: #cccccc; stroke-linejoin: miter"/>
    </g>
    <g id="line2d_14">
     <path d="M 319.418438 54.570438 
L 329.418438 54.570438 
L 339.418438 54.570438 
" style="fill: none; stroke: #0000ff; stroke-width: 1.5; stroke-linecap: square"/>
    </g>
    <g id="text_14">
     <!-- obj_loss -->
     <g transform="translate(347.418438 58.070438) scale(0.1 -0.1)">
      <defs>
       <path id="DejaVuSans-62" d="M 3116 1747 
Q 3116 2381 2855 2742 
Q 2594 3103 2138 3103 
Q 1681 3103 1420 2742 
Q 1159 2381 1159 1747 
Q 1159 1113 1420 752 
Q 1681 391 2138 391 
Q 2594 391 2855 752 
Q 3116 1113 3116 1747 
z
M 1159 2969 
Q 1341 3281 1617 3432 
Q 1894 3584 2278 3584 
Q 2916 3584 3314 3078 
Q 3713 2572 3713 1747 
Q 3713 922 3314 415 
Q 2916 -91 2278 -91 
Q 1894 -91 1617 61 
Q 1341 213 1159 525 
L 1159 0 
L 581 0 
L 581 4863 
L 1159 4863 
L 1159 2969 
z
" transform="scale(0.015625)"/>
       <path id="DejaVuSans-6a" d="M 603 3500 
L 1178 3500 
L 1178 -63 
Q 1178 -731 923 -1031 
Q 669 -1331 103 -1331 
L -116 -1331 
L -116 -844 
L 38 -844 
Q 366 -844 484 -692 
Q 603 -541 603 -63 
L 603 3500 
z
M 603 4863 
L 1178 4863 
L 1178 4134 
L 603 4134 
L 603 4863 
z
" transform="scale(0.015625)"/>
      </defs>
      <use xlink:href="#DejaVuSans-6f"/>
      <use xlink:href="#DejaVuSans-62" x="61.181641"/>
      <use xlink:href="#DejaVuSans-6a" x="124.658203"/>
      <use xlink:href="#DejaVuSans-5f" x="152.441406"/>
      <use xlink:href="#DejaVuSans-6c" x="202.441406"/>
      <use xlink:href="#DejaVuSans-6f" x="230.224609"/>
      <use xlink:href="#DejaVuSans-73" x="291.40625"/>
      <use xlink:href="#DejaVuSans-73" x="343.505859"/>
     </g>
    </g>
    <g id="line2d_15">
     <path d="M 319.418438 69.526688 
L 329.418438 69.526688 
L 339.418438 69.526688 
" style="fill: none; stroke: #008000; stroke-width: 1.5; stroke-linecap: square"/>
    </g>
    <g id="text_15">
     <!-- reg_loss -->
     <g transform="translate(347.418438 73.026688) scale(0.1 -0.1)">
      <defs>
       <path id="DejaVuSans-67" d="M 2906 1791 
Q 2906 2416 2648 2759 
Q 2391 3103 1925 3103 
Q 1463 3103 1205 2759 
Q 947 2416 947 1791 
Q 947 1169 1205 825 
Q 1463 481 1925 481 
Q 2391 481 2648 825 
Q 2906 1169 2906 1791 
z
M 3481 434 
Q 3481 -459 3084 -895 
Q 2688 -1331 1869 -1331 
Q 1566 -1331 1297 -1286 
Q 1028 -1241 775 -1147 
L 775 -588 
Q 1028 -725 1275 -790 
Q 1522 -856 1778 -856 
Q 2344 -856 2625 -561 
Q 2906 -266 2906 331 
L 2906 616 
Q 2728 306 2450 153 
Q 2172 0 1784 0 
Q 1141 0 747 490 
Q 353 981 353 1791 
Q 353 2603 747 3093 
Q 1141 3584 1784 3584 
Q 2172 3584 2450 3431 
Q 2728 3278 2906 2969 
L 2906 3500 
L 3481 3500 
L 3481 434 
z
" transform="scale(0.015625)"/>
      </defs>
      <use xlink:href="#DejaVuSans-72"/>
      <use xlink:href="#DejaVuSans-65" x="38.863281"/>
      <use xlink:href="#DejaVuSans-67" x="100.386719"/>
      <use xlink:href="#DejaVuSans-5f" x="163.863281"/>
      <use xlink:href="#DejaVuSans-6c" x="213.863281"/>
      <use xlink:href="#DejaVuSans-6f" x="241.646484"/>
      <use xlink:href="#DejaVuSans-73" x="302.828125"/>
      <use xlink:href="#DejaVuSans-73" x="354.927734"/>
     </g>
    </g>
    <g id="line2d_16">
     <path d="M 319.418438 84.482938 
L 329.418438 84.482938 
L 339.418438 84.482938 
" style="fill: none; stroke: #ff0000; stroke-width: 1.5; stroke-linecap: square"/>
    </g>
    <g id="text_16">
     <!-- overall_loss -->
     <g transform="translate(347.418438 87.982938) scale(0.1 -0.1)">
      <use xlink:href="#DejaVuSans-6f"/>
      <use xlink:href="#DejaVuSans-76" x="61.181641"/>
      <use xlink:href="#DejaVuSans-65" x="120.361328"/>
      <use xlink:href="#DejaVuSans-72" x="181.884766"/>
      <use xlink:href="#DejaVuSans-61" x="222.998047"/>
      <use xlink:href="#DejaVuSans-6c" x="284.277344"/>
      <use xlink:href="#DejaVuSans-6c" x="312.060547"/>
      <use xlink:href="#DejaVuSans-5f" x="339.84375"/>
      <use xlink:href="#DejaVuSans-6c" x="389.84375"/>
      <use xlink:href="#DejaVuSans-6f" x="417.626953"/>
      <use xlink:href="#DejaVuSans-73" x="478.808594"/>
      <use xlink:href="#DejaVuSans-73" x="530.908203"/>
     </g>
    </g>
   </g>
  </g>
 </g>
 <defs>
  <clipPath id="pc527990d55">
   <rect x="57.6" y="41.472" width="357.12" height="266.112"/>
  </clipPath>
 </defs>
</svg>
