<?xml version="1.0" encoding="utf-8" standalone="no"?>
<!DOCTYPE svg PUBLIC "-//W3C//DTD SVG 1.1//EN"
  "http://www.w3.org/Graphics/SVG/1.1/DTD/svg11.dtd">
<svg xmlns:xlink="http://www.w3.org/1999/xlink" width="576pt" height="432pt" viewBox="0 0 576 432" xmlns="http://www.w3.org/2000/svg" version="1.1">
 <metadata>
  <rdf:RDF xmlns:dc="http://purl.org/dc/elements/1.1/" xmlns:cc="http://creativecommons.org/ns#" xmlns:rdf="http://www.w3.org/1999/02/22-rdf-syntax-ns#">
   <cc:Work>
    <dc:type rdf:resource="http://purl.org/dc/dcmitype/StillImage"/>
    <dc:date>2023-04-11T22:54:53.554965</dc:date>
    <dc:format>image/svg+xml</dc:format>
    <dc:creator>
     <cc:Agent>
      <dc:title>Matplotlib v3.7.1, https://matplotlib.org/</dc:title>
     </cc:Agent>
    </dc:creator>
   </cc:Work>
  </rdf:RDF>
 </metadata>
 <defs>
  <style type="text/css">*{stroke-linejoin: round; stroke-linecap: butt}</style>
 </defs>
 <g id="figure_1">
  <g id="patch_1">
   <path d="M 0 432 
L 576 432 
L 576 0 
L 0 0 
z
" style="fill: #ffffff"/>
  </g>
  <g id="axes_1">
   <g id="patch_2">
    <path d="M 72 384.48 
L 518.4 384.48 
L 518.4 51.84 
L 72 51.84 
z
" style="fill: #ffffff"/>
   </g>
   <g id="matplotlib.axis_1">
    <g id="xtick_1">
     <g id="line2d_1">
      <defs>
       <path id="md4121aafa9" d="M 0 0 
L 0 3.5 
" style="stroke: #000000; stroke-width: 0.8"/>
      </defs>
      <g>
       <use xlink:href="#md4121aafa9" x="92.290909" y="384.48" style="stroke: #000000; stroke-width: 0.8"/>
      </g>
     </g>
     <g id="text_1">
      <!-- 0 -->
      <g transform="translate(89.109659 399.078438) scale(0.1 -0.1)">
       <defs>
        <path id="DejaVuSans-30" d="M 2034 4250 
Q 1547 4250 1301 3770 
Q 1056 3291 1056 2328 
Q 1056 1369 1301 889 
Q 1547 409 2034 409 
Q 2525 409 2770 889 
Q 3016 1369 3016 2328 
Q 3016 3291 2770 3770 
Q 2525 4250 2034 4250 
z
M 2034 4750 
Q 2819 4750 3233 4129 
Q 3647 3509 3647 2328 
Q 3647 1150 3233 529 
Q 2819 -91 2034 -91 
Q 1250 -91 836 529 
Q 422 1150 422 2328 
Q 422 3509 836 4129 
Q 1250 4750 2034 4750 
z
" transform="scale(0.015625)"/>
       </defs>
       <use xlink:href="#DejaVuSans-30"/>
      </g>
     </g>
    </g>
    <g id="xtick_2">
     <g id="line2d_2">
      <g>
       <use xlink:href="#md4121aafa9" x="173.617198" y="384.48" style="stroke: #000000; stroke-width: 0.8"/>
      </g>
     </g>
     <g id="text_2">
      <!-- 100 -->
      <g transform="translate(164.073448 399.078438) scale(0.1 -0.1)">
       <defs>
        <path id="DejaVuSans-31" d="M 794 531 
L 1825 531 
L 1825 4091 
L 703 3866 
L 703 4441 
L 1819 4666 
L 2450 4666 
L 2450 531 
L 3481 531 
L 3481 0 
L 794 0 
L 794 531 
z
" transform="scale(0.015625)"/>
       </defs>
       <use xlink:href="#DejaVuSans-31"/>
       <use xlink:href="#DejaVuSans-30" x="63.623047"/>
       <use xlink:href="#DejaVuSans-30" x="127.246094"/>
      </g>
     </g>
    </g>
    <g id="xtick_3">
     <g id="line2d_3">
      <g>
       <use xlink:href="#md4121aafa9" x="254.943487" y="384.48" style="stroke: #000000; stroke-width: 0.8"/>
      </g>
     </g>
     <g id="text_3">
      <!-- 200 -->
      <g transform="translate(245.399737 399.078438) scale(0.1 -0.1)">
       <defs>
        <path id="DejaVuSans-32" d="M 1228 531 
L 3431 531 
L 3431 0 
L 469 0 
L 469 531 
Q 828 903 1448 1529 
Q 2069 2156 2228 2338 
Q 2531 2678 2651 2914 
Q 2772 3150 2772 3378 
Q 2772 3750 2511 3984 
Q 2250 4219 1831 4219 
Q 1534 4219 1204 4116 
Q 875 4013 500 3803 
L 500 4441 
Q 881 4594 1212 4672 
Q 1544 4750 1819 4750 
Q 2544 4750 2975 4387 
Q 3406 4025 3406 3419 
Q 3406 3131 3298 2873 
Q 3191 2616 2906 2266 
Q 2828 2175 2409 1742 
Q 1991 1309 1228 531 
z
" transform="scale(0.015625)"/>
       </defs>
       <use xlink:href="#DejaVuSans-32"/>
       <use xlink:href="#DejaVuSans-30" x="63.623047"/>
       <use xlink:href="#DejaVuSans-30" x="127.246094"/>
      </g>
     </g>
    </g>
    <g id="xtick_4">
     <g id="line2d_4">
      <g>
       <use xlink:href="#md4121aafa9" x="336.269776" y="384.48" style="stroke: #000000; stroke-width: 0.8"/>
      </g>
     </g>
     <g id="text_4">
      <!-- 300 -->
      <g transform="translate(326.726026 399.078438) scale(0.1 -0.1)">
       <defs>
        <path id="DejaVuSans-33" d="M 2597 2516 
Q 3050 2419 3304 2112 
Q 3559 1806 3559 1356 
Q 3559 666 3084 287 
Q 2609 -91 1734 -91 
Q 1441 -91 1130 -33 
Q 819 25 488 141 
L 488 750 
Q 750 597 1062 519 
Q 1375 441 1716 441 
Q 2309 441 2620 675 
Q 2931 909 2931 1356 
Q 2931 1769 2642 2001 
Q 2353 2234 1838 2234 
L 1294 2234 
L 1294 2753 
L 1863 2753 
Q 2328 2753 2575 2939 
Q 2822 3125 2822 3475 
Q 2822 3834 2567 4026 
Q 2313 4219 1838 4219 
Q 1578 4219 1281 4162 
Q 984 4106 628 3988 
L 628 4550 
Q 988 4650 1302 4700 
Q 1616 4750 1894 4750 
Q 2613 4750 3031 4423 
Q 3450 4097 3450 3541 
Q 3450 3153 3228 2886 
Q 3006 2619 2597 2516 
z
" transform="scale(0.015625)"/>
       </defs>
       <use xlink:href="#DejaVuSans-33"/>
       <use xlink:href="#DejaVuSans-30" x="63.623047"/>
       <use xlink:href="#DejaVuSans-30" x="127.246094"/>
      </g>
     </g>
    </g>
    <g id="xtick_5">
     <g id="line2d_5">
      <g>
       <use xlink:href="#md4121aafa9" x="417.596065" y="384.48" style="stroke: #000000; stroke-width: 0.8"/>
      </g>
     </g>
     <g id="text_5">
      <!-- 400 -->
      <g transform="translate(408.052315 399.078438) scale(0.1 -0.1)">
       <defs>
        <path id="DejaVuSans-34" d="M 2419 4116 
L 825 1625 
L 2419 1625 
L 2419 4116 
z
M 2253 4666 
L 3047 4666 
L 3047 1625 
L 3713 1625 
L 3713 1100 
L 3047 1100 
L 3047 0 
L 2419 0 
L 2419 1100 
L 313 1100 
L 313 1709 
L 2253 4666 
z
" transform="scale(0.015625)"/>
       </defs>
       <use xlink:href="#DejaVuSans-34"/>
       <use xlink:href="#DejaVuSans-30" x="63.623047"/>
       <use xlink:href="#DejaVuSans-30" x="127.246094"/>
      </g>
     </g>
    </g>
    <g id="xtick_6">
     <g id="line2d_6">
      <g>
       <use xlink:href="#md4121aafa9" x="498.922354" y="384.48" style="stroke: #000000; stroke-width: 0.8"/>
      </g>
     </g>
     <g id="text_6">
      <!-- 500 -->
      <g transform="translate(489.378604 399.078438) scale(0.1 -0.1)">
       <defs>
        <path id="DejaVuSans-35" d="M 691 4666 
L 3169 4666 
L 3169 4134 
L 1269 4134 
L 1269 2991 
Q 1406 3038 1543 3061 
Q 1681 3084 1819 3084 
Q 2600 3084 3056 2656 
Q 3513 2228 3513 1497 
Q 3513 744 3044 326 
Q 2575 -91 1722 -91 
Q 1428 -91 1123 -41 
Q 819 9 494 109 
L 494 744 
Q 775 591 1075 516 
Q 1375 441 1709 441 
Q 2250 441 2565 725 
Q 2881 1009 2881 1497 
Q 2881 1984 2565 2268 
Q 2250 2553 1709 2553 
Q 1456 2553 1204 2497 
Q 953 2441 691 2322 
L 691 4666 
z
" transform="scale(0.015625)"/>
       </defs>
       <use xlink:href="#DejaVuSans-35"/>
       <use xlink:href="#DejaVuSans-30" x="63.623047"/>
       <use xlink:href="#DejaVuSans-30" x="127.246094"/>
      </g>
     </g>
    </g>
    <g id="text_7">
     <!-- epoch -->
     <g transform="translate(279.971875 412.756563) scale(0.1 -0.1)">
      <defs>
       <path id="DejaVuSans-65" d="M 3597 1894 
L 3597 1613 
L 953 1613 
Q 991 1019 1311 708 
Q 1631 397 2203 397 
Q 2534 397 2845 478 
Q 3156 559 3463 722 
L 3463 178 
Q 3153 47 2828 -22 
Q 2503 -91 2169 -91 
Q 1331 -91 842 396 
Q 353 884 353 1716 
Q 353 2575 817 3079 
Q 1281 3584 2069 3584 
Q 2775 3584 3186 3129 
Q 3597 2675 3597 1894 
z
M 3022 2063 
Q 3016 2534 2758 2815 
Q 2500 3097 2075 3097 
Q 1594 3097 1305 2825 
Q 1016 2553 972 2059 
L 3022 2063 
z
" transform="scale(0.015625)"/>
       <path id="DejaVuSans-70" d="M 1159 525 
L 1159 -1331 
L 581 -1331 
L 581 3500 
L 1159 3500 
L 1159 2969 
Q 1341 3281 1617 3432 
Q 1894 3584 2278 3584 
Q 2916 3584 3314 3078 
Q 3713 2572 3713 1747 
Q 3713 922 3314 415 
Q 2916 -91 2278 -91 
Q 1894 -91 1617 61 
Q 1341 213 1159 525 
z
M 3116 1747 
Q 3116 2381 2855 2742 
Q 2594 3103 2138 3103 
Q 1681 3103 1420 2742 
Q 1159 2381 1159 1747 
Q 1159 1113 1420 752 
Q 1681 391 2138 391 
Q 2594 391 2855 752 
Q 3116 1113 3116 1747 
z
" transform="scale(0.015625)"/>
       <path id="DejaVuSans-6f" d="M 1959 3097 
Q 1497 3097 1228 2736 
Q 959 2375 959 1747 
Q 959 1119 1226 758 
Q 1494 397 1959 397 
Q 2419 397 2687 759 
Q 2956 1122 2956 1747 
Q 2956 2369 2687 2733 
Q 2419 3097 1959 3097 
z
M 1959 3584 
Q 2709 3584 3137 3096 
Q 3566 2609 3566 1747 
Q 3566 888 3137 398 
Q 2709 -91 1959 -91 
Q 1206 -91 779 398 
Q 353 888 353 1747 
Q 353 2609 779 3096 
Q 1206 3584 1959 3584 
z
" transform="scale(0.015625)"/>
       <path id="DejaVuSans-63" d="M 3122 3366 
L 3122 2828 
Q 2878 2963 2633 3030 
Q 2388 3097 2138 3097 
Q 1578 3097 1268 2742 
Q 959 2388 959 1747 
Q 959 1106 1268 751 
Q 1578 397 2138 397 
Q 2388 397 2633 464 
Q 2878 531 3122 666 
L 3122 134 
Q 2881 22 2623 -34 
Q 2366 -91 2075 -91 
Q 1284 -91 818 406 
Q 353 903 353 1747 
Q 353 2603 823 3093 
Q 1294 3584 2113 3584 
Q 2378 3584 2631 3529 
Q 2884 3475 3122 3366 
z
" transform="scale(0.015625)"/>
       <path id="DejaVuSans-68" d="M 3513 2113 
L 3513 0 
L 2938 0 
L 2938 2094 
Q 2938 2591 2744 2837 
Q 2550 3084 2163 3084 
Q 1697 3084 1428 2787 
Q 1159 2491 1159 1978 
L 1159 0 
L 581 0 
L 581 4863 
L 1159 4863 
L 1159 2956 
Q 1366 3272 1645 3428 
Q 1925 3584 2291 3584 
Q 2894 3584 3203 3211 
Q 3513 2838 3513 2113 
z
" transform="scale(0.015625)"/>
      </defs>
      <use xlink:href="#DejaVuSans-65"/>
      <use xlink:href="#DejaVuSans-70" x="61.523438"/>
      <use xlink:href="#DejaVuSans-6f" x="125"/>
      <use xlink:href="#DejaVuSans-63" x="186.181641"/>
      <use xlink:href="#DejaVuSans-68" x="241.162109"/>
     </g>
    </g>
   </g>
   <g id="matplotlib.axis_2">
    <g id="ytick_1">
     <g id="line2d_7">
      <defs>
       <path id="m06c47856b1" d="M 0 0 
L -3.5 0 
" style="stroke: #000000; stroke-width: 0.8"/>
      </defs>
      <g>
       <use xlink:href="#m06c47856b1" x="72" y="384.48" style="stroke: #000000; stroke-width: 0.8"/>
      </g>
     </g>
     <g id="text_8">
      <!-- 0.0 -->
      <g transform="translate(49.096875 388.279219) scale(0.1 -0.1)">
       <defs>
        <path id="DejaVuSans-2e" d="M 684 794 
L 1344 794 
L 1344 0 
L 684 0 
L 684 794 
z
" transform="scale(0.015625)"/>
       </defs>
       <use xlink:href="#DejaVuSans-30"/>
       <use xlink:href="#DejaVuSans-2e" x="63.623047"/>
       <use xlink:href="#DejaVuSans-30" x="95.410156"/>
      </g>
     </g>
    </g>
    <g id="ytick_2">
     <g id="line2d_8">
      <g>
       <use xlink:href="#m06c47856b1" x="72" y="317.952" style="stroke: #000000; stroke-width: 0.8"/>
      </g>
     </g>
     <g id="text_9">
      <!-- 0.2 -->
      <g transform="translate(49.096875 321.751219) scale(0.1 -0.1)">
       <use xlink:href="#DejaVuSans-30"/>
       <use xlink:href="#DejaVuSans-2e" x="63.623047"/>
       <use xlink:href="#DejaVuSans-32" x="95.410156"/>
      </g>
     </g>
    </g>
    <g id="ytick_3">
     <g id="line2d_9">
      <g>
       <use xlink:href="#m06c47856b1" x="72" y="251.424" style="stroke: #000000; stroke-width: 0.8"/>
      </g>
     </g>
     <g id="text_10">
      <!-- 0.4 -->
      <g transform="translate(49.096875 255.223219) scale(0.1 -0.1)">
       <use xlink:href="#DejaVuSans-30"/>
       <use xlink:href="#DejaVuSans-2e" x="63.623047"/>
       <use xlink:href="#DejaVuSans-34" x="95.410156"/>
      </g>
     </g>
    </g>
    <g id="ytick_4">
     <g id="line2d_10">
      <g>
       <use xlink:href="#m06c47856b1" x="72" y="184.896" style="stroke: #000000; stroke-width: 0.8"/>
      </g>
     </g>
     <g id="text_11">
      <!-- 0.6 -->
      <g transform="translate(49.096875 188.695219) scale(0.1 -0.1)">
       <defs>
        <path id="DejaVuSans-36" d="M 2113 2584 
Q 1688 2584 1439 2293 
Q 1191 2003 1191 1497 
Q 1191 994 1439 701 
Q 1688 409 2113 409 
Q 2538 409 2786 701 
Q 3034 994 3034 1497 
Q 3034 2003 2786 2293 
Q 2538 2584 2113 2584 
z
M 3366 4563 
L 3366 3988 
Q 3128 4100 2886 4159 
Q 2644 4219 2406 4219 
Q 1781 4219 1451 3797 
Q 1122 3375 1075 2522 
Q 1259 2794 1537 2939 
Q 1816 3084 2150 3084 
Q 2853 3084 3261 2657 
Q 3669 2231 3669 1497 
Q 3669 778 3244 343 
Q 2819 -91 2113 -91 
Q 1303 -91 875 529 
Q 447 1150 447 2328 
Q 447 3434 972 4092 
Q 1497 4750 2381 4750 
Q 2619 4750 2861 4703 
Q 3103 4656 3366 4563 
z
" transform="scale(0.015625)"/>
       </defs>
       <use xlink:href="#DejaVuSans-30"/>
       <use xlink:href="#DejaVuSans-2e" x="63.623047"/>
       <use xlink:href="#DejaVuSans-36" x="95.410156"/>
      </g>
     </g>
    </g>
    <g id="ytick_5">
     <g id="line2d_11">
      <g>
       <use xlink:href="#m06c47856b1" x="72" y="118.368" style="stroke: #000000; stroke-width: 0.8"/>
      </g>
     </g>
     <g id="text_12">
      <!-- 0.8 -->
      <g transform="translate(49.096875 122.167219) scale(0.1 -0.1)">
       <defs>
        <path id="DejaVuSans-38" d="M 2034 2216 
Q 1584 2216 1326 1975 
Q 1069 1734 1069 1313 
Q 1069 891 1326 650 
Q 1584 409 2034 409 
Q 2484 409 2743 651 
Q 3003 894 3003 1313 
Q 3003 1734 2745 1975 
Q 2488 2216 2034 2216 
z
M 1403 2484 
Q 997 2584 770 2862 
Q 544 3141 544 3541 
Q 544 4100 942 4425 
Q 1341 4750 2034 4750 
Q 2731 4750 3128 4425 
Q 3525 4100 3525 3541 
Q 3525 3141 3298 2862 
Q 3072 2584 2669 2484 
Q 3125 2378 3379 2068 
Q 3634 1759 3634 1313 
Q 3634 634 3220 271 
Q 2806 -91 2034 -91 
Q 1263 -91 848 271 
Q 434 634 434 1313 
Q 434 1759 690 2068 
Q 947 2378 1403 2484 
z
M 1172 3481 
Q 1172 3119 1398 2916 
Q 1625 2713 2034 2713 
Q 2441 2713 2670 2916 
Q 2900 3119 2900 3481 
Q 2900 3844 2670 4047 
Q 2441 4250 2034 4250 
Q 1625 4250 1398 4047 
Q 1172 3844 1172 3481 
z
" transform="scale(0.015625)"/>
       </defs>
       <use xlink:href="#DejaVuSans-30"/>
       <use xlink:href="#DejaVuSans-2e" x="63.623047"/>
       <use xlink:href="#DejaVuSans-38" x="95.410156"/>
      </g>
     </g>
    </g>
    <g id="ytick_6">
     <g id="line2d_12">
      <g>
       <use xlink:href="#m06c47856b1" x="72" y="51.84" style="stroke: #000000; stroke-width: 0.8"/>
      </g>
     </g>
     <g id="text_13">
      <!-- 1.0 -->
      <g transform="translate(49.096875 55.639219) scale(0.1 -0.1)">
       <use xlink:href="#DejaVuSans-31"/>
       <use xlink:href="#DejaVuSans-2e" x="63.623047"/>
       <use xlink:href="#DejaVuSans-30" x="95.410156"/>
      </g>
     </g>
    </g>
    <g id="text_14">
     <!-- rate -->
     <g transform="translate(43.017187 228.31625) rotate(-90) scale(0.1 -0.1)">
      <defs>
       <path id="DejaVuSans-72" d="M 2631 2963 
Q 2534 3019 2420 3045 
Q 2306 3072 2169 3072 
Q 1681 3072 1420 2755 
Q 1159 2438 1159 1844 
L 1159 0 
L 581 0 
L 581 3500 
L 1159 3500 
L 1159 2956 
Q 1341 3275 1631 3429 
Q 1922 3584 2338 3584 
Q 2397 3584 2469 3576 
Q 2541 3569 2628 3553 
L 2631 2963 
z
" transform="scale(0.015625)"/>
       <path id="DejaVuSans-61" d="M 2194 1759 
Q 1497 1759 1228 1600 
Q 959 1441 959 1056 
Q 959 750 1161 570 
Q 1363 391 1709 391 
Q 2188 391 2477 730 
Q 2766 1069 2766 1631 
L 2766 1759 
L 2194 1759 
z
M 3341 1997 
L 3341 0 
L 2766 0 
L 2766 531 
Q 2569 213 2275 61 
Q 1981 -91 1556 -91 
Q 1019 -91 701 211 
Q 384 513 384 1019 
Q 384 1609 779 1909 
Q 1175 2209 1959 2209 
L 2766 2209 
L 2766 2266 
Q 2766 2663 2505 2880 
Q 2244 3097 1772 3097 
Q 1472 3097 1187 3025 
Q 903 2953 641 2809 
L 641 3341 
Q 956 3463 1253 3523 
Q 1550 3584 1831 3584 
Q 2591 3584 2966 3190 
Q 3341 2797 3341 1997 
z
" transform="scale(0.015625)"/>
       <path id="DejaVuSans-74" d="M 1172 4494 
L 1172 3500 
L 2356 3500 
L 2356 3053 
L 1172 3053 
L 1172 1153 
Q 1172 725 1289 603 
Q 1406 481 1766 481 
L 2356 481 
L 2356 0 
L 1766 0 
Q 1100 0 847 248 
Q 594 497 594 1153 
L 594 3053 
L 172 3053 
L 172 3500 
L 594 3500 
L 594 4494 
L 1172 4494 
z
" transform="scale(0.015625)"/>
      </defs>
      <use xlink:href="#DejaVuSans-72"/>
      <use xlink:href="#DejaVuSans-61" x="41.113281"/>
      <use xlink:href="#DejaVuSans-74" x="102.392578"/>
      <use xlink:href="#DejaVuSans-65" x="141.601562"/>
     </g>
    </g>
   </g>
   <g id="line2d_13">
    <path d="M 92.290909 373.865594 
L 93.104172 371.749518 
L 93.917435 363.606982 
L 94.730698 316.129313 
L 95.543961 196.275794 
L 96.357224 172.800004 
L 97.170486 179.778454 
L 97.983749 166.185 
L 98.797012 162.719993 
L 99.610275 153.668563 
L 100.423538 211.399031 
L 101.236801 203.52383 
L 102.050064 204.959991 
L 102.863327 199.990579 
L 103.67659 184.895992 
L 104.489852 176.12307 
L 105.303115 156.884206 
L 106.116378 164.350596 
L 106.929641 142.047448 
L 107.742904 129.060003 
L 108.556167 194.399992 
L 109.36943 179.778454 
L 110.182693 178.158994 
L 110.995956 150.226476 
L 111.809218 158.284798 
L 112.622481 152.895195 
L 113.435744 137.519998 
L 114.249007 131.276411 
L 115.06227 146.170747 
L 115.875533 128.183615 
L 116.688796 166.826658 
L 117.502059 186.480002 
L 118.315322 176.58 
L 119.128584 151.632004 
L 119.941847 155.79 
L 120.75511 158.455388 
L 121.568373 143.315992 
L 122.381636 142.186672 
L 123.194899 140.801863 
L 124.008162 131.673603 
L 124.821425 176.58 
L 125.634688 175.613023 
L 127.261213 153.254637 
L 128.074476 146.879994 
L 128.887739 136.052649 
L 129.701002 135 
L 130.514265 131.994224 
L 131.327528 130.328091 
L 132.140791 115.199996 
L 132.954054 180.086742 
L 133.767316 169.480982 
L 134.580579 164.105992 
L 135.393842 146.879994 
L 136.207105 124.747397 
L 137.020368 121.653331 
L 137.833631 120.801945 
L 138.646894 116.640003 
L 139.460157 105.894008 
L 140.27342 104.760009 
L 141.086682 160.048201 
L 141.899945 164.009296 
L 142.713208 161.415523 
L 143.526471 140.801863 
L 144.339734 105.894008 
L 145.152997 129.198137 
L 145.96626 105.990704 
L 146.779523 100.979993 
L 147.592786 91.756802 
L 148.406048 88.068128 
L 149.219311 168.264008 
L 150.032574 154.506665 
L 150.845837 126.194819 
L 151.6591 128.30896 
L 152.472363 126.194819 
L 153.285626 116.221934 
L 154.098889 96.885007 
L 154.912152 90.449992 
L 155.725414 97.81463 
L 156.538677 90.327263 
L 157.35194 173.808003 
L 158.165203 156.040473 
L 158.978466 130.328091 
L 161.418255 88.799998 
L 162.231518 85.104008 
L 163.04478 77.8275 
L 163.858043 82.545229 
L 164.671306 80.351998 
L 165.484569 151.249662 
L 166.297832 142.878313 
L 167.111095 107.280007 
L 167.924358 112.645163 
L 168.737621 105.695997 
L 169.550884 97.329228 
L 170.364146 82.310835 
L 171.177409 94.25719 
L 172.803935 80.76521 
L 173.617198 143.602768 
L 174.430461 124.153046 
L 175.243724 123.585878 
L 176.056987 113.802359 
L 176.87025 93.023998 
L 177.683512 108.388806 
L 178.496775 108.778384 
L 179.310038 83.519998 
L 180.123301 77.427691 
L 180.936564 95.464926 
L 181.749827 135 
L 182.56309 130.529037 
L 183.376353 119.040009 
L 184.189616 111.998291 
L 185.002878 99.816928 
L 185.816141 102.049812 
L 186.629404 85.72001 
L 187.442667 85.72001 
L 188.25593 79.79294 
L 189.069193 79.79294 
L 189.882456 144.240004 
L 190.695719 124.296236 
L 191.508982 116.331437 
L 192.322244 110.975996 
L 193.135507 106.771368 
L 193.94877 117.768649 
L 194.762033 88.486773 
L 195.575296 88.128005 
L 196.388559 80.42625 
L 197.201822 78.239998 
L 198.015085 133.230629 
L 198.828348 129.348345 
L 199.64161 123.85485 
L 200.454873 105.695997 
L 201.268136 117.794483 
L 202.081399 104.826905 
L 202.894662 90.011797 
L 203.707925 85.956921 
L 204.521188 79.330914 
L 205.334451 93.07636 
L 206.147714 134.207995 
L 206.960976 119.115509 
L 207.774239 117.675007 
L 208.587502 119.007691 
L 209.400765 84.135147 
L 210.214028 104.689346 
L 211.027291 98.985824 
L 211.840554 83.38345 
L 212.653817 92.780305 
L 213.46708 83.872005 
L 214.280343 114.415843 
L 215.093605 106.07479 
L 215.906868 107.863571 
L 216.720131 101.11999 
L 217.533394 101.735992 
L 218.346657 99.359997 
L 219.15992 78.569997 
L 219.973183 87.480003 
L 220.786446 85.832408 
L 221.599709 97.546253 
L 222.412971 130.328091 
L 223.226234 95.704613 
L 224.039497 120.324712 
L 224.85276 91.880006 
L 225.666023 112.610763 
L 226.479286 87.578186 
L 227.292549 82.310835 
L 228.105812 96.720007 
L 228.919075 89.118616 
L 229.732337 87.120006 
L 230.5456 128.347206 
L 231.358863 125.02081 
L 232.172126 103.815 
L 232.985389 97.616143 
L 233.798652 100.172305 
L 234.611915 96.390008 
L 235.425178 98.120341 
L 236.238441 84.292692 
L 237.051703 86.251033 
L 237.864966 77.648285 
L 238.678229 122.61446 
L 239.491492 130.292839 
L 240.304755 112.031996 
L 241.118018 111.239992 
L 241.931281 99.788099 
L 242.744544 83.113844 
L 243.557807 86.036645 
L 244.371069 79.105581 
L 245.184332 92.738352 
L 245.997595 100.126445 
L 246.810858 128.603072 
L 247.624121 125.759996 
L 248.437384 114.21 
L 249.250647 94.175999 
L 250.06391 92.63547 
L 250.877173 84.509994 
L 251.690435 88.799998 
L 252.503698 94.079997 
L 253.316961 87.164597 
L 254.130224 90.221546 
L 254.943487 135 
L 255.75675 129.348345 
L 256.570013 102.239992 
L 257.383276 100.282721 
L 258.196539 99.762721 
L 259.009801 91.986199 
L 259.823064 94.761289 
L 260.636327 94.853801 
L 261.44959 86.713555 
L 262.262853 84.829088 
L 263.076116 119.659797 
L 263.889379 114.672006 
L 264.702642 103.247991 
L 265.515905 105.299994 
L 266.329167 86.036645 
L 267.14243 101.323632 
L 267.955693 88.486773 
L 268.768956 87.285243 
L 269.582219 89.928544 
L 270.395482 88.799998 
L 271.208745 116.996293 
L 272.022008 111.715202 
L 272.835271 121.139993 
L 273.648533 95.362995 
L 274.461796 88.460918 
L 275.275059 100.588967 
L 276.088322 95.227836 
L 276.901585 101.605035 
L 277.714848 80.651345 
L 278.528111 91.558215 
L 279.341374 117.768649 
L 280.154637 114.771894 
L 280.967899 106.213855 
L 281.781162 107.280007 
L 282.594425 95.227836 
L 283.407688 101.323632 
L 284.220951 87.578186 
L 285.034214 79.98647 
L 285.847477 102.809023 
L 286.66074 82.310835 
L 287.474003 117.063526 
L 288.287265 103.279178 
L 289.100528 111.775139 
L 289.913791 100.588967 
L 290.727054 91.152002 
L 291.540317 86.550261 
L 292.35358 98.6175 
L 293.166843 85.104008 
L 293.980106 89.396133 
L 294.793369 88.486773 
L 295.606631 113.802359 
L 296.419894 107.280007 
L 297.233157 112.320002 
L 298.04642 101.012866 
L 298.859683 91.361592 
L 299.672946 91.30576 
L 300.486209 92.160001 
L 301.299472 91.986199 
L 302.112735 99.005373 
L 302.925997 88.178821 
L 303.73926 108.959998 
L 304.552523 113.567014 
L 305.365786 95.083198 
L 306.179049 110.052004 
L 306.992312 96.390008 
L 307.805575 102.330006 
L 308.618838 92.690529 
L 309.432101 98.526316 
L 310.245363 89.095676 
L 311.058626 82.545229 
L 311.871889 103.512224 
L 312.685152 103.512224 
L 313.498415 93.42 
L 314.311678 102.049812 
L 315.124941 100.588967 
L 315.938204 99.788099 
L 316.751467 99.359997 
L 317.564729 84.558689 
L 318.377992 86.434551 
L 319.191255 92.467794 
L 320.004518 128.603072 
L 320.817781 114.415843 
L 321.631044 92.63547 
L 322.444307 100.282721 
L 323.25757 95.362995 
L 324.070833 92.335311 
L 324.884095 91.30576 
L 325.697358 88.799998 
L 326.510621 98.254886 
L 327.323884 95.608413 
L 328.137147 99.816928 
L 328.95041 100.282721 
L 329.763673 117.740376 
L 330.576936 105.400675 
L 332.203461 94.175999 
L 333.016724 94.761289 
L 333.829987 95.007024 
L 335.456513 87.578186 
L 337.083039 120.149997 
L 337.896302 102.754281 
L 338.709565 100.757654 
L 339.522827 107.280007 
L 340.33609 89.145422 
L 341.149353 93.769409 
L 341.962616 84.829088 
L 342.775879 98.6175 
L 343.589142 91.986199 
L 344.402405 106.741746 
L 345.215668 118.367996 
L 346.028931 113.200772 
L 346.842193 87.164597 
L 347.655456 100.667898 
L 348.468719 95.608413 
L 349.281982 85.104008 
L 350.095245 99.359997 
L 350.908508 95.825458 
L 351.721771 80.029831 
L 352.535034 114.415843 
L 353.348297 106.272008 
L 354.161559 114.040976 
L 354.974822 123.911991 
L 355.788085 95.773591 
L 356.601348 103.015382 
L 357.414611 90.327263 
L 358.227874 85.956921 
L 359.041137 109.570905 
L 359.8544 94.079997 
L 360.667663 113.802359 
L 361.480925 105.187933 
L 362.294188 111.239992 
L 363.107451 97.616143 
L 363.920714 95.608413 
L 364.733977 92.254199 
L 365.54724 93.052033 
L 366.360503 96.564703 
L 367.173766 82.357429 
L 367.987029 91.880006 
L 368.800291 122.206145 
L 369.613554 109.823122 
L 370.426817 103.512224 
L 371.24008 114.387689 
L 372.053343 113.440003 
L 372.866606 106.324132 
L 373.679869 95.464926 
L 374.493132 101.883187 
L 375.306395 93.769409 
L 376.119657 95.825458 
L 376.93292 113.802359 
L 377.746183 102.527997 
L 378.559446 98.939469 
L 379.372709 106.213855 
L 380.185972 94.175999 
L 380.999235 93.42 
L 381.812498 92.254199 
L 382.625761 89.145422 
L 383.439024 87.876005 
L 384.252286 87.480003 
L 385.065549 122.030082 
L 385.878812 104.199999 
L 386.692075 104.53545 
L 387.505338 110.541173 
L 388.318601 113.857637 
L 389.131864 98.040002 
L 389.945127 104.199999 
L 390.75839 82.588233 
L 391.571652 107.745879 
L 392.384915 79.559993 
L 393.198178 118.367996 
L 394.011441 109.412309 
L 394.824704 102.527997 
L 395.637967 108.270003 
L 396.45123 97.948521 
L 397.264493 84.220879 
L 398.891018 95.464926 
L 399.704281 96.390008 
L 400.517544 98.040002 
L 401.330807 110.359995 
L 402.14407 111.464154 
L 402.957333 115.926612 
L 403.770596 108.701535 
L 404.583859 112.610763 
L 405.397122 111.239992 
L 407.023647 101.735992 
L 407.83691 96.943734 
L 408.650173 101.44422 
L 409.463436 109.690441 
L 410.276699 116.331437 
L 411.089962 104.199999 
L 411.903225 110.19789 
L 412.716488 112.874857 
L 414.343013 87.480003 
L 415.156276 104.689346 
L 415.969539 101.735992 
L 416.782802 100.172305 
L 417.596065 93.023998 
L 418.409328 111.36506 
L 419.222591 103.512224 
L 420.035854 110.359995 
L 420.849116 98.911691 
L 421.662379 104.826905 
L 422.475642 94.564408 
L 423.288905 86.997079 
L 424.102168 86.713555 
L 424.915431 96.191997 
L 425.728694 98.409595 
L 426.541957 103.247991 
L 427.35522 98.880008 
L 428.168482 107.280007 
L 428.981745 102.155291 
L 429.795008 103.45655 
L 430.608271 89.855998 
L 431.421534 106.272008 
L 432.234797 84.135147 
L 433.861323 104.689346 
L 434.674586 121.535996 
L 435.487848 117.124493 
L 437.114374 105.299994 
L 437.927637 103.905391 
L 438.7409 97.329228 
L 439.554163 93.023998 
L 440.367426 102.155291 
L 441.180689 94.564408 
L 441.993952 115.809237 
L 442.807214 102.527997 
L 443.620477 126.51429 
L 444.43374 87.164597 
L 445.247003 107.280007 
L 446.060266 90.594173 
L 446.873529 112.031996 
L 447.686792 103.512224 
L 448.500055 93.794589 
L 449.313318 91.30576 
L 450.12658 107.828914 
L 450.939843 107.280007 
L 451.753106 112.874857 
L 452.566369 108.863997 
L 453.379632 82.079991 
L 454.192895 92.571429 
L 455.006158 101.11999 
L 455.819421 86.854742 
L 456.632684 100.172305 
L 457.445946 95.362995 
L 458.259209 109.823122 
L 459.072472 103.247991 
L 459.885735 113.200772 
L 460.698998 107.745879 
L 461.512261 111.239992 
L 462.325524 86.359248 
L 463.138787 106.797916 
L 463.95205 88.799998 
L 464.765312 99.359997 
L 465.578575 99.359997 
L 466.391838 116.519991 
L 467.205101 116.033677 
L 468.018364 119.599999 
L 468.831627 104.689346 
L 469.64489 106.272008 
L 470.458153 117.768649 
L 471.271416 105.062409 
L 472.084678 101.883187 
L 472.897941 112.031996 
L 473.711204 109.296005 
L 474.524467 88.068128 
L 475.33773 126.118842 
L 476.150993 120.765404 
L 476.964256 103.905391 
L 477.777519 106.324132 
L 478.590782 102.049812 
L 479.404044 109.823122 
L 480.217307 96.390008 
L 481.03057 113.440003 
L 481.843833 102.049812 
L 482.657096 116.601777 
L 483.470359 112.320002 
L 484.283622 94.959994 
L 485.096885 119.599999 
L 485.910148 130.883165 
L 486.72341 104.362103 
L 487.536673 106.213855 
L 488.349936 114.387689 
L 489.163199 100.282721 
L 489.976462 88.460918 
L 490.789725 120.765404 
L 491.602988 108.270003 
L 492.416251 100.223994 
L 493.229514 99.788099 
L 494.042776 98.939469 
L 494.856039 91.756802 
L 495.669302 107.280007 
L 496.482565 109.823122 
L 497.295828 98.526316 
L 498.109091 99.788099 
L 498.109091 99.788099 
" clip-path="url(#p791cbf54a2)" style="fill: none; stroke: #0000ff; stroke-width: 1.5; stroke-linecap: square"/>
   </g>
   <g id="line2d_14">
    <path d="M 92.290909 197.187097 
L 93.104172 218.647741 
L 93.917435 277.176777 
L 94.730698 325.950969 
L 95.543961 342.534194 
L 96.357224 350.338065 
L 97.170486 361.068387 
L 97.983749 363.994838 
L 98.797012 357.16645 
L 99.610275 351.313548 
L 100.423538 322.049032 
L 101.236801 318.147096 
L 102.050064 318.147096 
L 102.863327 320.098066 
L 103.67659 320.098066 
L 104.489852 328.877418 
L 105.303115 333.754838 
L 106.116378 340.583228 
L 106.929641 342.534194 
L 107.742904 342.534194 
L 108.556167 341.558711 
L 109.36943 337.656774 
L 111.809218 334.73032 
L 112.622481 330.828389 
L 113.435744 336.681291 
L 114.249007 334.73032 
L 115.06227 337.656774 
L 115.875533 338.632257 
L 116.688796 332.779355 
L 117.502059 335.705808 
L 118.315322 335.705808 
L 119.128584 329.852901 
L 119.941847 330.828389 
L 120.75511 332.779355 
L 121.568373 327.901935 
L 122.381636 326.926452 
L 123.194899 323.024515 
L 124.008162 310.343227 
L 124.821425 335.705808 
L 125.634688 331.803872 
L 126.44795 332.779355 
L 127.261213 328.877418 
L 128.074476 330.828389 
L 128.887739 326.926452 
L 129.701002 325.950969 
L 130.514265 323.024515 
L 131.327528 318.147096 
L 132.140791 318.147096 
L 132.954054 334.73032 
L 133.767316 332.779355 
L 134.580579 332.779355 
L 135.393842 335.705808 
L 137.020368 322.049032 
L 137.833631 321.073549 
L 138.646894 323.999998 
L 139.460157 319.122579 
L 140.27342 312.294193 
L 141.086682 329.852901 
L 141.899945 328.877418 
L 142.713208 328.877418 
L 143.526471 323.024515 
L 144.339734 319.122579 
L 145.152997 320.098066 
L 145.96626 314.245159 
L 146.779523 311.31871 
L 147.592786 298.637422 
L 148.406048 296.686456 
L 149.219311 333.754838 
L 150.032574 329.852901 
L 150.845837 320.098066 
L 151.6591 319.122579 
L 152.472363 320.098066 
L 154.098889 303.514837 
L 154.912152 287.9071 
L 155.725414 281.078709 
L 156.538677 280.103226 
L 157.35194 328.877418 
L 158.165203 328.877418 
L 159.791729 307.416773 
L 160.604992 301.563871 
L 161.418255 290.833548 
L 162.231518 287.9071 
L 163.04478 269.372904 
L 163.858043 269.372904 
L 164.671306 259.618065 
L 165.484569 324.975486 
L 166.297832 317.171613 
L 167.111095 301.563871 
L 167.924358 310.343227 
L 169.550884 285.956134 
L 170.364146 268.397421 
L 171.177409 257.667099 
L 171.990672 261.569031 
L 172.803935 261.569031 
L 173.617198 323.024515 
L 175.243724 306.44129 
L 176.056987 303.514837 
L 176.87025 294.73548 
L 177.683512 303.514837 
L 178.496775 294.73548 
L 179.310038 291.809031 
L 180.123301 279.127743 
L 180.936564 281.078709 
L 181.749827 317.171613 
L 182.56309 315.220647 
L 183.376353 307.416773 
L 184.189616 309.367744 
L 185.002878 297.661939 
L 185.816141 296.686456 
L 186.629404 289.858066 
L 187.442667 289.858066 
L 188.25593 278.15226 
L 189.069193 278.15226 
L 189.882456 321.073549 
L 190.695719 307.416773 
L 191.508982 307.416773 
L 192.322244 312.294193 
L 193.135507 295.710963 
L 193.94877 297.661939 
L 194.762033 282.054192 
L 195.575296 288.882583 
L 196.388559 270.348387 
L 197.201822 271.32387 
L 198.015085 315.220647 
L 198.828348 307.416773 
L 199.64161 310.343227 
L 200.454873 298.637422 
L 201.268136 293.759997 
L 202.081399 291.809031 
L 202.894662 279.127743 
L 203.707925 282.054192 
L 204.521188 276.201294 
L 205.334451 281.078709 
L 206.147714 307.416773 
L 206.960976 315.220647 
L 208.587502 303.514837 
L 209.400765 293.759997 
L 210.214028 296.686456 
L 211.027291 278.15226 
L 211.840554 282.054192 
L 213.46708 265.470972 
L 214.280343 304.490325 
L 215.093605 309.367744 
L 215.906868 307.416773 
L 216.720131 294.73548 
L 217.533394 301.563871 
L 218.346657 290.833548 
L 219.15992 284.005158 
L 219.973183 286.931617 
L 220.786446 264.495479 
L 221.599709 274.250319 
L 222.412971 318.147096 
L 223.226234 307.416773 
L 224.039497 305.465807 
L 224.85276 291.809031 
L 225.666023 301.563871 
L 226.479286 279.127743 
L 227.292549 268.397421 
L 228.105812 278.15226 
L 228.919075 284.005158 
L 229.732337 269.372904 
L 230.5456 309.367744 
L 231.358863 308.392256 
L 232.172126 305.465807 
L 232.985389 292.784514 
L 233.798652 286.931617 
L 234.611915 289.858066 
L 235.425178 287.9071 
L 236.238441 276.201294 
L 237.051703 283.029675 
L 237.864966 280.103226 
L 238.678229 312.294193 
L 239.491492 305.465807 
L 240.304755 300.588388 
L 241.118018 294.73548 
L 241.931281 291.809031 
L 242.744544 281.078709 
L 243.557807 290.833548 
L 244.371069 275.225802 
L 245.184332 280.103226 
L 245.997595 281.078709 
L 246.810858 306.44129 
L 247.624121 309.367744 
L 248.437384 308.392256 
L 249.250647 290.833548 
L 250.06391 293.759997 
L 250.877173 285.956134 
L 251.690435 283.029675 
L 252.503698 277.176777 
L 253.316961 285.956134 
L 254.130224 272.299353 
L 254.943487 317.171613 
L 255.75675 307.416773 
L 256.570013 302.539354 
L 257.383276 298.637422 
L 258.196539 285.956134 
L 259.009801 284.980641 
L 259.823064 279.127743 
L 260.636327 285.956134 
L 261.44959 276.201294 
L 262.262853 278.15226 
L 263.076116 304.490325 
L 263.889379 313.269676 
L 264.702642 293.759997 
L 265.515905 292.784514 
L 266.329167 290.833548 
L 267.14243 284.005158 
L 267.955693 282.054192 
L 268.768956 278.15226 
L 269.582219 271.32387 
L 270.395482 267.421938 
L 271.208745 308.392256 
L 272.022008 304.490325 
L 272.835271 291.809031 
L 273.648533 293.759997 
L 274.461796 289.858066 
L 275.275059 287.9071 
L 276.088322 286.931617 
L 277.714848 271.32387 
L 278.528111 269.372904 
L 279.341374 297.661939 
L 280.154637 296.686456 
L 280.967899 299.612905 
L 281.781162 291.809031 
L 282.594425 286.931617 
L 283.407688 284.005158 
L 284.220951 279.127743 
L 285.034214 268.397421 
L 285.847477 282.054192 
L 286.66074 268.397421 
L 287.474003 304.490325 
L 288.287265 304.490325 
L 289.913791 287.9071 
L 290.727054 289.858066 
L 291.540317 284.005158 
L 292.35358 277.176777 
L 293.166843 287.9071 
L 293.980106 277.176777 
L 294.793369 282.054192 
L 295.606631 303.514837 
L 296.419894 296.686456 
L 297.233157 296.686456 
L 298.04642 288.882583 
L 298.859683 297.661939 
L 299.672946 283.029675 
L 300.486209 271.32387 
L 301.299472 284.980641 
L 302.112735 272.299353 
L 302.925997 281.078709 
L 303.73926 304.490325 
L 304.552523 307.416773 
L 305.365786 299.612905 
L 306.179049 287.9071 
L 307.805575 291.809031 
L 308.618838 286.931617 
L 309.432101 288.882583 
L 310.245363 276.201294 
L 311.058626 269.372904 
L 311.871889 299.612905 
L 312.685152 299.612905 
L 313.498415 295.710963 
L 314.311678 296.686456 
L 315.124941 287.9071 
L 315.938204 291.809031 
L 316.751467 290.833548 
L 317.564729 277.176777 
L 318.377992 275.225802 
L 319.191255 272.299353 
L 320.004518 306.44129 
L 320.817781 304.490325 
L 321.631044 293.759997 
L 322.444307 298.637422 
L 323.25757 293.759997 
L 324.070833 285.956134 
L 324.884095 283.029675 
L 325.697358 283.029675 
L 326.510621 276.201294 
L 327.323884 287.9071 
L 328.137147 297.661939 
L 328.95041 298.637422 
L 329.763673 301.563871 
L 330.576936 287.9071 
L 331.390199 281.078709 
L 332.203461 290.833548 
L 333.016724 279.127743 
L 333.829987 273.274836 
L 334.64325 283.029675 
L 335.456513 279.127743 
L 336.269776 294.73548 
L 337.083039 297.661939 
L 337.896302 303.514837 
L 338.709565 299.612905 
L 339.522827 291.809031 
L 340.33609 291.809031 
L 341.149353 283.029675 
L 341.962616 278.15226 
L 342.775879 277.176777 
L 343.589142 284.980641 
L 344.402405 300.588388 
L 345.215668 302.539354 
L 346.028931 302.539354 
L 346.842193 285.956134 
L 347.655456 293.759997 
L 348.468719 287.9071 
L 349.281982 279.127743 
L 350.095245 290.833548 
L 350.908508 282.054192 
L 351.721771 279.127743 
L 352.535034 304.490325 
L 353.348297 294.73548 
L 354.161559 286.931617 
L 354.974822 292.784514 
L 355.788085 294.73548 
L 356.601348 287.9071 
L 357.414611 280.103226 
L 358.227874 282.054192 
L 359.041137 286.931617 
L 359.8544 277.176777 
L 360.667663 303.514837 
L 361.480925 297.661939 
L 362.294188 294.73548 
L 363.107451 292.784514 
L 363.920714 287.9071 
L 364.733977 292.784514 
L 365.54724 287.9071 
L 366.360503 284.005158 
L 367.987029 291.809031 
L 368.800291 304.490325 
L 369.613554 296.686456 
L 370.426817 299.612905 
L 371.24008 291.809031 
L 372.053343 298.637422 
L 373.679869 281.078709 
L 374.493132 290.833548 
L 375.306395 283.029675 
L 376.119657 282.054192 
L 376.93292 303.514837 
L 377.746183 297.661939 
L 378.559446 289.858066 
L 379.372709 299.612905 
L 380.185972 290.833548 
L 380.999235 295.710963 
L 381.812498 292.784514 
L 382.625761 291.809031 
L 383.439024 280.103226 
L 384.252286 286.931617 
L 385.065549 300.588388 
L 385.878812 295.710963 
L 386.692075 301.563871 
L 387.505338 288.882583 
L 388.318601 290.833548 
L 389.131864 293.759997 
L 389.945127 295.710963 
L 390.75839 279.127743 
L 391.571652 287.9071 
L 392.384915 277.176777 
L 393.198178 310.343227 
L 394.011441 300.588388 
L 394.824704 297.661939 
L 395.637967 293.759997 
L 396.45123 299.612905 
L 397.264493 284.980641 
L 398.077756 285.956134 
L 398.891018 281.078709 
L 399.704281 289.858066 
L 401.330807 297.661939 
L 402.14407 299.612905 
L 402.957333 298.637422 
L 403.770596 289.858066 
L 404.583859 301.563871 
L 405.397122 294.73548 
L 406.210384 300.588388 
L 407.023647 284.980641 
L 407.83691 284.980641 
L 408.650173 289.858066 
L 409.463436 291.809031 
L 410.276699 307.416773 
L 411.089962 295.710963 
L 411.903225 292.784514 
L 412.716488 297.661939 
L 413.52975 293.759997 
L 414.343013 286.931617 
L 415.156276 296.686456 
L 415.969539 284.980641 
L 416.782802 286.931617 
L 417.596065 294.73548 
L 418.409328 308.392256 
L 419.222591 299.612905 
L 420.849116 295.710963 
L 421.662379 291.809031 
L 422.475642 291.809031 
L 423.288905 277.176777 
L 424.102168 276.201294 
L 424.915431 283.029675 
L 425.728694 300.588388 
L 426.541957 293.759997 
L 427.35522 301.563871 
L 428.168482 301.563871 
L 428.981745 285.956134 
L 429.795008 288.882583 
L 430.608271 293.759997 
L 431.421534 294.73548 
L 432.234797 293.759997 
L 433.04806 289.858066 
L 434.674586 303.514837 
L 435.487848 300.588388 
L 436.301111 299.612905 
L 437.114374 292.784514 
L 437.927637 289.858066 
L 438.7409 285.956134 
L 439.554163 294.73548 
L 440.367426 285.956134 
L 441.180689 291.809031 
L 441.993952 302.539354 
L 442.807214 297.661939 
L 443.620477 310.343227 
L 444.43374 285.956134 
L 445.247003 296.686456 
L 446.060266 295.710963 
L 446.873529 300.588388 
L 447.686792 299.612905 
L 448.500055 289.858066 
L 449.313318 283.029675 
L 450.12658 302.539354 
L 450.939843 301.563871 
L 451.753106 297.661939 
L 452.566369 299.612905 
L 453.379632 286.931617 
L 454.192895 300.588388 
L 455.006158 294.73548 
L 455.819421 284.980641 
L 456.632684 286.931617 
L 457.445946 293.759997 
L 458.259209 296.686456 
L 459.072472 293.759997 
L 459.885735 302.539354 
L 460.698998 287.9071 
L 461.512261 294.73548 
L 462.325524 291.809031 
L 463.138787 290.833548 
L 463.95205 290.833548 
L 464.765312 284.980641 
L 465.578575 296.686456 
L 466.391838 299.612905 
L 467.205101 294.73548 
L 468.018364 300.588388 
L 468.831627 296.686456 
L 469.64489 294.73548 
L 470.458153 297.661939 
L 471.271416 302.539354 
L 472.084678 290.833548 
L 472.897941 300.588388 
L 473.711204 295.710963 
L 474.524467 296.686456 
L 475.33773 306.44129 
L 476.964256 289.858066 
L 477.777519 289.858066 
L 478.590782 296.686456 
L 479.404044 296.686456 
L 480.217307 289.858066 
L 481.03057 298.637422 
L 481.843833 296.686456 
L 482.657096 295.710963 
L 483.470359 296.686456 
L 484.283622 292.784514 
L 485.910148 309.367744 
L 486.72341 290.833548 
L 487.536673 299.612905 
L 488.349936 291.809031 
L 489.163199 298.637422 
L 489.976462 289.858066 
L 490.789725 298.637422 
L 491.602988 293.759997 
L 493.229514 291.809031 
L 494.042776 289.858066 
L 494.856039 298.637422 
L 495.669302 291.809031 
L 496.482565 296.686456 
L 497.295828 288.882583 
L 498.109091 291.809031 
L 498.109091 291.809031 
" clip-path="url(#p791cbf54a2)" style="fill: none; stroke: #008000; stroke-width: 1.5; stroke-linecap: square"/>
   </g>
   <g id="patch_3">
    <path d="M 72 384.48 
L 72 51.84 
" style="fill: none; stroke: #000000; stroke-width: 0.8; stroke-linejoin: miter; stroke-linecap: square"/>
   </g>
   <g id="patch_4">
    <path d="M 518.4 384.48 
L 518.4 51.84 
" style="fill: none; stroke: #000000; stroke-width: 0.8; stroke-linejoin: miter; stroke-linecap: square"/>
   </g>
   <g id="patch_5">
    <path d="M 72 384.48 
L 518.4 384.48 
" style="fill: none; stroke: #000000; stroke-width: 0.8; stroke-linejoin: miter; stroke-linecap: square"/>
   </g>
   <g id="patch_6">
    <path d="M 72 51.84 
L 518.4 51.84 
" style="fill: none; stroke: #000000; stroke-width: 0.8; stroke-linejoin: miter; stroke-linecap: square"/>
   </g>
   <g id="legend_1">
    <g id="patch_7">
     <path d="M 79 89.19625 
L 156.107812 89.19625 
Q 158.107812 89.19625 158.107812 87.19625 
L 158.107812 58.84 
Q 158.107812 56.84 156.107812 56.84 
L 79 56.84 
Q 77 56.84 77 58.84 
L 77 87.19625 
Q 77 89.19625 79 89.19625 
z
" style="fill: #ffffff; opacity: 0.8; stroke: #cccccc; stroke-linejoin: miter"/>
    </g>
    <g id="line2d_15">
     <path d="M 81 64.938437 
L 91 64.938437 
L 101 64.938437 
" style="fill: none; stroke: #0000ff; stroke-width: 1.5; stroke-linecap: square"/>
    </g>
    <g id="text_15">
     <!-- precision -->
     <g transform="translate(109 68.438437) scale(0.1 -0.1)">
      <defs>
       <path id="DejaVuSans-69" d="M 603 3500 
L 1178 3500 
L 1178 0 
L 603 0 
L 603 3500 
z
M 603 4863 
L 1178 4863 
L 1178 4134 
L 603 4134 
L 603 4863 
z
" transform="scale(0.015625)"/>
       <path id="DejaVuSans-73" d="M 2834 3397 
L 2834 2853 
Q 2591 2978 2328 3040 
Q 2066 3103 1784 3103 
Q 1356 3103 1142 2972 
Q 928 2841 928 2578 
Q 928 2378 1081 2264 
Q 1234 2150 1697 2047 
L 1894 2003 
Q 2506 1872 2764 1633 
Q 3022 1394 3022 966 
Q 3022 478 2636 193 
Q 2250 -91 1575 -91 
Q 1294 -91 989 -36 
Q 684 19 347 128 
L 347 722 
Q 666 556 975 473 
Q 1284 391 1588 391 
Q 1994 391 2212 530 
Q 2431 669 2431 922 
Q 2431 1156 2273 1281 
Q 2116 1406 1581 1522 
L 1381 1569 
Q 847 1681 609 1914 
Q 372 2147 372 2553 
Q 372 3047 722 3315 
Q 1072 3584 1716 3584 
Q 2034 3584 2315 3537 
Q 2597 3491 2834 3397 
z
" transform="scale(0.015625)"/>
       <path id="DejaVuSans-6e" d="M 3513 2113 
L 3513 0 
L 2938 0 
L 2938 2094 
Q 2938 2591 2744 2837 
Q 2550 3084 2163 3084 
Q 1697 3084 1428 2787 
Q 1159 2491 1159 1978 
L 1159 0 
L 581 0 
L 581 3500 
L 1159 3500 
L 1159 2956 
Q 1366 3272 1645 3428 
Q 1925 3584 2291 3584 
Q 2894 3584 3203 3211 
Q 3513 2838 3513 2113 
z
" transform="scale(0.015625)"/>
      </defs>
      <use xlink:href="#DejaVuSans-70"/>
      <use xlink:href="#DejaVuSans-72" x="63.476562"/>
      <use xlink:href="#DejaVuSans-65" x="102.339844"/>
      <use xlink:href="#DejaVuSans-63" x="163.863281"/>
      <use xlink:href="#DejaVuSans-69" x="218.84375"/>
      <use xlink:href="#DejaVuSans-73" x="246.626953"/>
      <use xlink:href="#DejaVuSans-69" x="298.726562"/>
      <use xlink:href="#DejaVuSans-6f" x="326.509766"/>
      <use xlink:href="#DejaVuSans-6e" x="387.691406"/>
     </g>
    </g>
    <g id="line2d_16">
     <path d="M 81 79.616562 
L 91 79.616562 
L 101 79.616562 
" style="fill: none; stroke: #008000; stroke-width: 1.5; stroke-linecap: square"/>
    </g>
    <g id="text_16">
     <!-- recall -->
     <g transform="translate(109 83.116562) scale(0.1 -0.1)">
      <defs>
       <path id="DejaVuSans-6c" d="M 603 4863 
L 1178 4863 
L 1178 0 
L 603 0 
L 603 4863 
z
" transform="scale(0.015625)"/>
      </defs>
      <use xlink:href="#DejaVuSans-72"/>
      <use xlink:href="#DejaVuSans-65" x="38.863281"/>
      <use xlink:href="#DejaVuSans-63" x="100.386719"/>
      <use xlink:href="#DejaVuSans-61" x="155.367188"/>
      <use xlink:href="#DejaVuSans-6c" x="216.646484"/>
      <use xlink:href="#DejaVuSans-6c" x="244.429688"/>
     </g>
    </g>
   </g>
  </g>
  <g id="axes_2">
   <g id="matplotlib.axis_3">
    <g id="ytick_7">
     <g id="line2d_17">
      <defs>
       <path id="md5776aa3ad" d="M 0 0 
L 3.5 0 
" style="stroke: #000000; stroke-width: 0.8"/>
      </defs>
      <g>
       <use xlink:href="#md5776aa3ad" x="518.4" y="345.49697" style="stroke: #000000; stroke-width: 0.8"/>
      </g>
     </g>
     <g id="text_17">
      <!-- 0.2 -->
      <g transform="translate(525.4 349.296189) scale(0.1 -0.1)">
       <use xlink:href="#DejaVuSans-30"/>
       <use xlink:href="#DejaVuSans-2e" x="63.623047"/>
       <use xlink:href="#DejaVuSans-32" x="95.410156"/>
      </g>
     </g>
    </g>
    <g id="ytick_8">
     <g id="line2d_18">
      <g>
       <use xlink:href="#md5776aa3ad" x="518.4" y="271.701528" style="stroke: #000000; stroke-width: 0.8"/>
      </g>
     </g>
     <g id="text_18">
      <!-- 0.4 -->
      <g transform="translate(525.4 275.500747) scale(0.1 -0.1)">
       <use xlink:href="#DejaVuSans-30"/>
       <use xlink:href="#DejaVuSans-2e" x="63.623047"/>
       <use xlink:href="#DejaVuSans-34" x="95.410156"/>
      </g>
     </g>
    </g>
    <g id="ytick_9">
     <g id="line2d_19">
      <g>
       <use xlink:href="#md5776aa3ad" x="518.4" y="197.906086" style="stroke: #000000; stroke-width: 0.8"/>
      </g>
     </g>
     <g id="text_19">
      <!-- 0.6 -->
      <g transform="translate(525.4 201.705304) scale(0.1 -0.1)">
       <use xlink:href="#DejaVuSans-30"/>
       <use xlink:href="#DejaVuSans-2e" x="63.623047"/>
       <use xlink:href="#DejaVuSans-36" x="95.410156"/>
      </g>
     </g>
    </g>
    <g id="ytick_10">
     <g id="line2d_20">
      <g>
       <use xlink:href="#md5776aa3ad" x="518.4" y="124.110643" style="stroke: #000000; stroke-width: 0.8"/>
      </g>
     </g>
     <g id="text_20">
      <!-- 0.8 -->
      <g transform="translate(525.4 127.909862) scale(0.1 -0.1)">
       <use xlink:href="#DejaVuSans-30"/>
       <use xlink:href="#DejaVuSans-2e" x="63.623047"/>
       <use xlink:href="#DejaVuSans-38" x="95.410156"/>
      </g>
     </g>
    </g>
    <g id="text_21">
     <!-- loss -->
     <g transform="translate(552.901563 227.817812) rotate(-90) scale(0.1 -0.1)">
      <use xlink:href="#DejaVuSans-6c"/>
      <use xlink:href="#DejaVuSans-6f" x="27.783203"/>
      <use xlink:href="#DejaVuSans-73" x="88.964844"/>
      <use xlink:href="#DejaVuSans-73" x="141.064453"/>
     </g>
    </g>
   </g>
   <g id="line2d_21">
    <path d="M 92.290909 66.96 
L 93.104172 129.027691 
L 93.917435 214.190173 
L 94.730698 280.354037 
L 95.543961 313.730441 
L 96.357224 328.279814 
L 97.170486 332.751106 
L 97.983749 332.396946 
L 98.797012 330.571184 
L 99.610275 329.832228 
L 100.423538 337.304497 
L 102.050064 334.606041 
L 102.863327 333.985521 
L 103.67659 333.832677 
L 104.489852 333.919455 
L 105.303115 334.631146 
L 106.116378 335.097552 
L 106.929641 336.074992 
L 107.742904 337.378338 
L 108.556167 332.758551 
L 109.36943 334.187794 
L 110.182693 336.277975 
L 110.995956 337.953718 
L 111.809218 340.928304 
L 115.875533 350.668637 
L 116.688796 342.308779 
L 118.315322 346.837543 
L 119.128584 348.399645 
L 119.941847 351.748086 
L 120.75511 353.238491 
L 122.381636 355.367208 
L 123.194899 357.495739 
L 124.008162 358.067006 
L 124.821425 348.69625 
L 125.634688 350.019136 
L 126.44795 352.951051 
L 128.074476 356.580741 
L 128.887739 356.900582 
L 129.701002 357.825784 
L 131.327528 359.414859 
L 132.140791 360.911719 
L 132.954054 351.681877 
L 134.580579 355.71747 
L 135.393842 356.261236 
L 136.207105 358.672582 
L 137.020368 360.490349 
L 137.833631 360.516323 
L 138.646894 360.308925 
L 140.27342 362.784084 
L 141.086682 354.89713 
L 141.899945 356.689154 
L 142.713208 357.593804 
L 143.526471 359.345945 
L 144.339734 361.858123 
L 145.152997 362.864236 
L 146.779523 363.666862 
L 147.592786 365.260468 
L 148.406048 366.108618 
L 149.219311 355.636988 
L 150.032574 358.084171 
L 150.845837 360.018835 
L 151.6591 362.292699 
L 152.472363 363.452806 
L 153.285626 363.946841 
L 154.912152 366.534013 
L 155.725414 367.054142 
L 156.538677 367.225576 
L 157.35194 357.730005 
L 158.165203 359.415189 
L 158.978466 362.043302 
L 159.791729 363.306214 
L 160.604992 365.032194 
L 161.418255 365.672134 
L 162.231518 366.751467 
L 163.04478 368.343159 
L 163.858043 368.44349 
L 164.671306 369.36 
L 165.484569 359.201882 
L 166.297832 361.13538 
L 167.111095 363.404081 
L 169.550884 367.547187 
L 170.364146 367.062351 
L 171.177409 368.731766 
L 171.990672 368.79648 
L 172.803935 369.017138 
L 173.617198 359.803471 
L 174.430461 362.255136 
L 175.243724 363.558745 
L 176.056987 364.356412 
L 176.87025 365.720798 
L 177.683512 364.975271 
L 178.496775 365.862102 
L 179.310038 366.285132 
L 180.123301 367.529087 
L 180.936564 367.026464 
L 181.749827 360.277294 
L 182.56309 361.476768 
L 183.376353 362.458228 
L 184.189616 363.908117 
L 185.002878 364.548068 
L 185.816141 366.434221 
L 187.442667 366.497373 
L 188.25593 367.938592 
L 189.069193 368.561927 
L 189.882456 360.678662 
L 191.508982 363.810969 
L 192.322244 364.653561 
L 193.135507 364.537588 
L 194.762033 366.959815 
L 195.575296 366.689365 
L 196.388559 368.342412 
L 197.201822 367.724421 
L 198.015085 360.391547 
L 198.828348 362.811338 
L 199.64161 363.298043 
L 200.454873 364.783137 
L 202.081399 366.341478 
L 202.894662 367.846321 
L 203.707925 367.508182 
L 204.521188 367.640145 
L 205.334451 368.010711 
L 206.147714 361.983234 
L 206.960976 361.392981 
L 207.774239 363.191884 
L 208.587502 363.82803 
L 209.400765 366.589897 
L 210.214028 365.99319 
L 211.027291 366.699663 
L 211.840554 367.072836 
L 212.653817 367.933643 
L 213.46708 368.107144 
L 214.280343 361.895169 
L 215.093605 363.540579 
L 215.906868 364.532255 
L 216.720131 365.21221 
L 217.533394 366.414483 
L 218.346657 366.688188 
L 219.15992 366.336617 
L 220.786446 368.135493 
L 221.599709 367.291631 
L 222.412971 361.744393 
L 223.226234 363.858369 
L 224.039497 364.173415 
L 224.85276 365.675031 
L 225.666023 365.747607 
L 226.479286 367.342456 
L 227.292549 367.79047 
L 228.105812 367.442138 
L 228.919075 368.154121 
L 229.732337 367.709097 
L 230.5456 362.1116 
L 231.358863 363.684659 
L 232.172126 364.008536 
L 232.985389 365.2084 
L 233.798652 366.034118 
L 234.611915 366.533464 
L 235.425178 366.750895 
L 236.238441 368.224838 
L 237.051703 367.990704 
L 237.864966 368.538461 
L 238.678229 363.3954 
L 239.491492 363.375397 
L 240.304755 364.857187 
L 241.118018 365.459865 
L 241.931281 365.571039 
L 242.744544 367.488356 
L 243.557807 366.97068 
L 244.371069 368.853661 
L 245.184332 367.777374 
L 245.997595 367.780612 
L 246.810858 362.972847 
L 248.437384 364.311123 
L 249.250647 366.038879 
L 250.06391 366.591343 
L 250.877173 366.170935 
L 251.690435 367.20874 
L 252.503698 367.127961 
L 254.130224 368.045092 
L 254.943487 362.867249 
L 255.75675 363.290285 
L 256.570013 364.912323 
L 257.383276 365.188145 
L 258.196539 366.295854 
L 259.009801 366.191333 
L 259.823064 367.295166 
L 260.636327 367.727758 
L 261.44959 368.351957 
L 262.262853 368.531379 
L 263.076116 363.148723 
L 263.889379 363.476822 
L 264.702642 364.744358 
L 266.329167 365.924242 
L 267.14243 366.335815 
L 267.955693 368.103488 
L 268.768956 368.354986 
L 269.582219 368.020471 
L 270.395482 368.652762 
L 271.208745 363.301502 
L 272.022008 363.563243 
L 272.835271 364.850512 
L 273.648533 366.446433 
L 274.461796 366.997643 
L 275.275059 366.159444 
L 276.088322 367.06582 
L 276.901585 366.916995 
L 277.714848 368.917863 
L 278.528111 368.170582 
L 279.341374 363.624058 
L 280.154637 363.404945 
L 280.967899 365.369805 
L 281.781162 366.080622 
L 283.407688 367.016556 
L 284.220951 367.718362 
L 285.034214 368.672391 
L 285.847477 367.361546 
L 286.66074 368.144466 
L 287.474003 363.296328 
L 288.287265 363.695793 
L 289.100528 364.51454 
L 289.913791 365.702962 
L 290.727054 366.399209 
L 291.540317 366.770073 
L 292.35358 367.38565 
L 293.166843 367.515275 
L 293.980106 368.086762 
L 294.793369 368.113159 
L 295.606631 364.246998 
L 296.419894 364.542421 
L 297.233157 364.509239 
L 298.04642 366.405026 
L 298.859683 366.354393 
L 299.672946 366.66586 
L 300.486209 367.224025 
L 301.299472 368.341961 
L 302.112735 367.522181 
L 302.925997 368.334571 
L 303.73926 363.848918 
L 305.365786 365.301567 
L 307.805575 366.243484 
L 308.618838 367.1625 
L 309.432101 366.49789 
L 310.245363 367.821596 
L 311.058626 368.268928 
L 311.871889 364.294821 
L 312.685152 365.671155 
L 313.498415 366.14235 
L 315.124941 364.694044 
L 315.938204 366.304464 
L 316.751467 366.902359 
L 317.564729 367.834236 
L 319.191255 368.075898 
L 320.004518 363.01426 
L 320.817781 364.342919 
L 321.631044 366.46875 
L 322.444307 365.166141 
L 323.25757 366.035707 
L 324.070833 367.278182 
L 324.884095 367.408786 
L 325.697358 366.800533 
L 326.510621 367.542381 
L 327.323884 367.178973 
L 328.137147 363.367705 
L 328.95041 365.218924 
L 329.763673 365.108201 
L 330.576936 365.669951 
L 331.390199 366.604891 
L 332.203461 366.337948 
L 333.829987 368.293676 
L 334.64325 367.15124 
L 335.456513 367.4895 
L 336.269776 365.158268 
L 337.083039 364.263118 
L 337.896302 365.313509 
L 338.709565 365.067866 
L 339.522827 366.76673 
L 340.33609 366.003229 
L 341.149353 367.115568 
L 341.962616 367.716261 
L 342.775879 367.111323 
L 343.589142 367.186725 
L 344.402405 364.085318 
L 345.215668 365.278436 
L 346.028931 363.972561 
L 346.842193 366.287442 
L 347.655456 365.984019 
L 348.468719 366.734037 
L 349.281982 366.640579 
L 350.095245 366.92499 
L 350.908508 367.088264 
L 351.721771 367.885045 
L 352.535034 363.921565 
L 353.348297 364.361937 
L 354.161559 366.024254 
L 354.974822 365.8175 
L 355.788085 366.332582 
L 356.601348 367.298877 
L 357.414611 367.461855 
L 358.227874 366.813426 
L 359.8544 367.865741 
L 360.667663 364.08247 
L 361.480925 365.423517 
L 362.294188 364.322026 
L 363.107451 365.720831 
L 363.920714 366.108058 
L 364.733977 365.849934 
L 365.54724 366.332587 
L 366.360503 367.496279 
L 367.173766 366.770908 
L 367.987029 367.313695 
L 368.800291 363.571138 
L 369.613554 364.611044 
L 370.426817 365.240647 
L 371.24008 364.980808 
L 372.053343 365.654303 
L 372.866606 366.182173 
L 373.679869 367.130023 
L 374.493132 365.545576 
L 375.306395 366.032051 
L 376.119657 367.050128 
L 376.93292 364.392458 
L 377.746183 365.414956 
L 378.559446 365.651939 
L 379.372709 365.146183 
L 380.185972 365.388279 
L 380.999235 365.490391 
L 382.625761 367.462311 
L 383.439024 366.350396 
L 384.252286 367.496691 
L 385.065549 364.221464 
L 385.878812 365.201879 
L 386.692075 364.902976 
L 388.318601 366.007776 
L 389.131864 365.885755 
L 389.945127 365.632002 
L 390.75839 367.138831 
L 391.571652 366.575536 
L 392.384915 366.651658 
L 393.198178 364.39822 
L 394.011441 364.790186 
L 394.824704 364.225467 
L 395.637967 365.144038 
L 396.45123 364.844002 
L 397.264493 366.951843 
L 398.077756 365.879141 
L 399.704281 367.533991 
L 400.517544 366.498616 
L 401.330807 364.924463 
L 402.957333 365.342561 
L 403.770596 365.296382 
L 404.583859 365.963576 
L 405.397122 365.361668 
L 406.210384 366.506885 
L 407.023647 366.377414 
L 407.83691 366.394469 
L 408.650173 365.352376 
L 409.463436 364.728397 
L 410.276699 364.51421 
L 411.089962 364.504049 
L 411.903225 365.819925 
L 412.716488 365.981841 
L 413.52975 365.34161 
L 414.343013 365.828706 
L 415.156276 364.860651 
L 415.969539 367.737858 
L 416.782802 366.87147 
L 417.596065 364.977124 
L 418.409328 364.135978 
L 419.222591 364.333539 
L 420.035854 364.415242 
L 420.849116 365.920284 
L 421.662379 365.58529 
L 422.475642 366.191245 
L 423.288905 367.215387 
L 424.102168 367.271342 
L 424.915431 367.057282 
L 425.728694 365.14191 
L 426.541957 364.01747 
L 428.168482 365.118422 
L 428.981745 366.225235 
L 429.795008 365.388581 
L 430.608271 365.887943 
L 431.421534 366.766708 
L 432.234797 365.793979 
L 433.04806 365.905911 
L 433.861323 364.254701 
L 434.674586 365.522841 
L 435.487848 364.764559 
L 436.301111 364.782879 
L 437.114374 365.0716 
L 437.927637 365.488692 
L 438.7409 365.585642 
L 439.554163 365.950689 
L 440.367426 366.793704 
L 441.180689 366.120247 
L 441.993952 364.043955 
L 442.807214 365.496164 
L 443.620477 364.74222 
L 444.43374 365.72943 
L 445.247003 365.397659 
L 446.060266 365.719468 
L 446.873529 365.047616 
L 447.686792 365.843386 
L 448.500055 365.610175 
L 449.313318 366.232284 
L 450.12658 364.818672 
L 450.939843 364.170232 
L 451.753106 365.011598 
L 452.566369 365.185506 
L 453.379632 366.195204 
L 454.192895 365.566618 
L 455.006158 365.971406 
L 455.819421 367.403552 
L 456.632684 365.970768 
L 458.259209 365.287261 
L 459.072472 364.680568 
L 459.885735 365.274972 
L 460.698998 366.222398 
L 461.512261 365.837591 
L 462.325524 366.349791 
L 463.138787 364.913653 
L 463.95205 365.643076 
L 464.765312 365.994773 
L 465.578575 365.898346 
L 466.391838 365.381554 
L 467.205101 364.30375 
L 468.018364 363.936724 
L 468.831627 365.243121 
L 469.64489 365.962834 
L 470.458153 365.633273 
L 471.271416 364.720364 
L 472.084678 365.784583 
L 472.897941 364.808176 
L 473.711204 365.241675 
L 474.524467 365.228826 
L 475.33773 364.221497 
L 476.150993 364.693077 
L 476.964256 365.014765 
L 477.777519 365.579561 
L 478.590782 365.47879 
L 479.404044 366.199811 
L 481.03057 365.932259 
L 481.843833 365.544669 
L 482.657096 364.572353 
L 483.470359 364.164382 
L 484.283622 365.065843 
L 485.096885 365.273158 
L 485.910148 364.770194 
L 486.72341 365.273894 
L 487.536673 365.150262 
L 488.349936 365.340159 
L 489.163199 365.190696 
L 489.976462 365.392644 
L 490.789725 363.773769 
L 491.602988 364.905857 
L 492.416251 365.35927 
L 493.229514 364.728265 
L 494.042776 366.076663 
L 494.856039 365.893403 
L 495.669302 366.015006 
L 496.482565 364.917573 
L 497.295828 366.074387 
L 498.109091 365.755514 
L 498.109091 365.755514 
" clip-path="url(#p791cbf54a2)" style="fill: none; stroke: #ff0000; stroke-width: 1.5; stroke-linecap: square"/>
   </g>
   <g id="patch_8">
    <path d="M 72 384.48 
L 72 51.84 
" style="fill: none; stroke: #000000; stroke-width: 0.8; stroke-linejoin: miter; stroke-linecap: square"/>
   </g>
   <g id="patch_9">
    <path d="M 518.4 384.48 
L 518.4 51.84 
" style="fill: none; stroke: #000000; stroke-width: 0.8; stroke-linejoin: miter; stroke-linecap: square"/>
   </g>
   <g id="patch_10">
    <path d="M 72 384.48 
L 518.4 384.48 
" style="fill: none; stroke: #000000; stroke-width: 0.8; stroke-linejoin: miter; stroke-linecap: square"/>
   </g>
   <g id="patch_11">
    <path d="M 72 51.84 
L 518.4 51.84 
" style="fill: none; stroke: #000000; stroke-width: 0.8; stroke-linejoin: miter; stroke-linecap: square"/>
   </g>
   <g id="text_22">
    <!-- The learning curve on _0.00025_8_clients_iid/host/8 -->
    <g transform="translate(135.910313 45.84) scale(0.12 -0.12)">
     <defs>
      <path id="DejaVuSans-54" d="M -19 4666 
L 3928 4666 
L 3928 4134 
L 2272 4134 
L 2272 0 
L 1638 0 
L 1638 4134 
L -19 4134 
L -19 4666 
z
" transform="scale(0.015625)"/>
      <path id="DejaVuSans-20" transform="scale(0.015625)"/>
      <path id="DejaVuSans-67" d="M 2906 1791 
Q 2906 2416 2648 2759 
Q 2391 3103 1925 3103 
Q 1463 3103 1205 2759 
Q 947 2416 947 1791 
Q 947 1169 1205 825 
Q 1463 481 1925 481 
Q 2391 481 2648 825 
Q 2906 1169 2906 1791 
z
M 3481 434 
Q 3481 -459 3084 -895 
Q 2688 -1331 1869 -1331 
Q 1566 -1331 1297 -1286 
Q 1028 -1241 775 -1147 
L 775 -588 
Q 1028 -725 1275 -790 
Q 1522 -856 1778 -856 
Q 2344 -856 2625 -561 
Q 2906 -266 2906 331 
L 2906 616 
Q 2728 306 2450 153 
Q 2172 0 1784 0 
Q 1141 0 747 490 
Q 353 981 353 1791 
Q 353 2603 747 3093 
Q 1141 3584 1784 3584 
Q 2172 3584 2450 3431 
Q 2728 3278 2906 2969 
L 2906 3500 
L 3481 3500 
L 3481 434 
z
" transform="scale(0.015625)"/>
      <path id="DejaVuSans-75" d="M 544 1381 
L 544 3500 
L 1119 3500 
L 1119 1403 
Q 1119 906 1312 657 
Q 1506 409 1894 409 
Q 2359 409 2629 706 
Q 2900 1003 2900 1516 
L 2900 3500 
L 3475 3500 
L 3475 0 
L 2900 0 
L 2900 538 
Q 2691 219 2414 64 
Q 2138 -91 1772 -91 
Q 1169 -91 856 284 
Q 544 659 544 1381 
z
M 1991 3584 
L 1991 3584 
z
" transform="scale(0.015625)"/>
      <path id="DejaVuSans-76" d="M 191 3500 
L 800 3500 
L 1894 563 
L 2988 3500 
L 3597 3500 
L 2284 0 
L 1503 0 
L 191 3500 
z
" transform="scale(0.015625)"/>
      <path id="DejaVuSans-3bb" d="M 1981 4316 
L 3597 0 
L 2988 0 
L 2006 2588 
L 800 0 
L 191 0 
L 1725 3356 
L 1494 3975 
Q 1347 4369 1013 4369 
L 713 4369 
L 713 4863 
L 1078 4856 
Q 1784 4847 1981 4316 
z
" transform="scale(0.015625)"/>
      <path id="DejaVuSans-5f" d="M 3263 -1063 
L 3263 -1509 
L -63 -1509 
L -63 -1063 
L 3263 -1063 
z
" transform="scale(0.015625)"/>
      <path id="DejaVuSans-64" d="M 2906 2969 
L 2906 4863 
L 3481 4863 
L 3481 0 
L 2906 0 
L 2906 525 
Q 2725 213 2448 61 
Q 2172 -91 1784 -91 
Q 1150 -91 751 415 
Q 353 922 353 1747 
Q 353 2572 751 3078 
Q 1150 3584 1784 3584 
Q 2172 3584 2448 3432 
Q 2725 3281 2906 2969 
z
M 947 1747 
Q 947 1113 1208 752 
Q 1469 391 1925 391 
Q 2381 391 2643 752 
Q 2906 1113 2906 1747 
Q 2906 2381 2643 2742 
Q 2381 3103 1925 3103 
Q 1469 3103 1208 2742 
Q 947 2381 947 1747 
z
" transform="scale(0.015625)"/>
      <path id="DejaVuSans-2f" d="M 1625 4666 
L 2156 4666 
L 531 -594 
L 0 -594 
L 1625 4666 
z
" transform="scale(0.015625)"/>
     </defs>
     <use xlink:href="#DejaVuSans-54"/>
     <use xlink:href="#DejaVuSans-68" x="61.083984"/>
     <use xlink:href="#DejaVuSans-65" x="124.462891"/>
     <use xlink:href="#DejaVuSans-20" x="185.986328"/>
     <use xlink:href="#DejaVuSans-6c" x="217.773438"/>
     <use xlink:href="#DejaVuSans-65" x="245.556641"/>
     <use xlink:href="#DejaVuSans-61" x="307.080078"/>
     <use xlink:href="#DejaVuSans-72" x="368.359375"/>
     <use xlink:href="#DejaVuSans-6e" x="407.722656"/>
     <use xlink:href="#DejaVuSans-69" x="471.101562"/>
     <use xlink:href="#DejaVuSans-6e" x="498.884766"/>
     <use xlink:href="#DejaVuSans-67" x="562.263672"/>
     <use xlink:href="#DejaVuSans-20" x="625.740234"/>
     <use xlink:href="#DejaVuSans-63" x="657.527344"/>
     <use xlink:href="#DejaVuSans-75" x="712.507812"/>
     <use xlink:href="#DejaVuSans-72" x="775.886719"/>
     <use xlink:href="#DejaVuSans-76" x="817"/>
     <use xlink:href="#DejaVuSans-65" x="876.179688"/>
     <use xlink:href="#DejaVuSans-20" x="937.703125"/>
     <use xlink:href="#DejaVuSans-6f" x="969.490234"/>
     <use xlink:href="#DejaVuSans-6e" x="1030.671875"/>
     <use xlink:href="#DejaVuSans-20" x="1094.050781"/>
     <use xlink:href="#DejaVuSans-3bb" x="1125.837891"/>
     <use xlink:href="#DejaVuSans-5f" x="1185.017578"/>
     <use xlink:href="#DejaVuSans-30" x="1235.017578"/>
     <use xlink:href="#DejaVuSans-2e" x="1298.640625"/>
     <use xlink:href="#DejaVuSans-30" x="1330.427734"/>
     <use xlink:href="#DejaVuSans-30" x="1394.050781"/>
     <use xlink:href="#DejaVuSans-30" x="1457.673828"/>
     <use xlink:href="#DejaVuSans-32" x="1521.296875"/>
     <use xlink:href="#DejaVuSans-35" x="1584.919922"/>
     <use xlink:href="#DejaVuSans-5f" x="1648.542969"/>
     <use xlink:href="#DejaVuSans-38" x="1698.542969"/>
     <use xlink:href="#DejaVuSans-5f" x="1762.166016"/>
     <use xlink:href="#DejaVuSans-63" x="1812.166016"/>
     <use xlink:href="#DejaVuSans-6c" x="1867.146484"/>
     <use xlink:href="#DejaVuSans-69" x="1894.929688"/>
     <use xlink:href="#DejaVuSans-65" x="1922.712891"/>
     <use xlink:href="#DejaVuSans-6e" x="1984.236328"/>
     <use xlink:href="#DejaVuSans-74" x="2047.615234"/>
     <use xlink:href="#DejaVuSans-73" x="2086.824219"/>
     <use xlink:href="#DejaVuSans-5f" x="2138.923828"/>
     <use xlink:href="#DejaVuSans-69" x="2188.923828"/>
     <use xlink:href="#DejaVuSans-69" x="2216.707031"/>
     <use xlink:href="#DejaVuSans-64" x="2244.490234"/>
     <use xlink:href="#DejaVuSans-2f" x="2307.966797"/>
     <use xlink:href="#DejaVuSans-68" x="2341.658203"/>
     <use xlink:href="#DejaVuSans-6f" x="2405.037109"/>
     <use xlink:href="#DejaVuSans-73" x="2466.21875"/>
     <use xlink:href="#DejaVuSans-74" x="2518.318359"/>
     <use xlink:href="#DejaVuSans-2f" x="2557.527344"/>
     <use xlink:href="#DejaVuSans-38" x="2591.21875"/>
    </g>
   </g>
   <g id="legend_2">
    <g id="patch_12">
     <path d="M 460.084375 74.518125 
L 511.4 74.518125 
Q 513.4 74.518125 513.4 72.518125 
L 513.4 58.84 
Q 513.4 56.84 511.4 56.84 
L 460.084375 56.84 
Q 458.084375 56.84 458.084375 58.84 
L 458.084375 72.518125 
Q 458.084375 74.518125 460.084375 74.518125 
z
" style="fill: #ffffff; opacity: 0.8; stroke: #cccccc; stroke-linejoin: miter"/>
    </g>
    <g id="line2d_22">
     <path d="M 462.084375 64.938438 
L 472.084375 64.938438 
L 482.084375 64.938438 
" style="fill: none; stroke: #ff0000; stroke-width: 1.5; stroke-linecap: square"/>
    </g>
    <g id="text_23">
     <!-- loss -->
     <g transform="translate(490.084375 68.438438) scale(0.1 -0.1)">
      <use xlink:href="#DejaVuSans-6c"/>
      <use xlink:href="#DejaVuSans-6f" x="27.783203"/>
      <use xlink:href="#DejaVuSans-73" x="88.964844"/>
      <use xlink:href="#DejaVuSans-73" x="141.064453"/>
     </g>
    </g>
   </g>
  </g>
 </g>
 <defs>
  <clipPath id="p791cbf54a2">
   <rect x="72" y="51.84" width="446.4" height="332.64"/>
  </clipPath>
 </defs>
</svg>
