<?xml version="1.0" encoding="utf-8" standalone="no"?>
<!DOCTYPE svg PUBLIC "-//W3C//DTD SVG 1.1//EN"
  "http://www.w3.org/Graphics/SVG/1.1/DTD/svg11.dtd">
<svg xmlns:xlink="http://www.w3.org/1999/xlink" width="576pt" height="432pt" viewBox="0 0 576 432" xmlns="http://www.w3.org/2000/svg" version="1.1">
 <metadata>
  <rdf:RDF xmlns:dc="http://purl.org/dc/elements/1.1/" xmlns:cc="http://creativecommons.org/ns#" xmlns:rdf="http://www.w3.org/1999/02/22-rdf-syntax-ns#">
   <cc:Work>
    <dc:type rdf:resource="http://purl.org/dc/dcmitype/StillImage"/>
    <dc:date>2023-04-11T13:24:21.356437</dc:date>
    <dc:format>image/svg+xml</dc:format>
    <dc:creator>
     <cc:Agent>
      <dc:title>Matplotlib v3.7.1, https://matplotlib.org/</dc:title>
     </cc:Agent>
    </dc:creator>
   </cc:Work>
  </rdf:RDF>
 </metadata>
 <defs>
  <style type="text/css">*{stroke-linejoin: round; stroke-linecap: butt}</style>
 </defs>
 <g id="figure_1">
  <g id="patch_1">
   <path d="M 0 432 
L 576 432 
L 576 0 
L 0 0 
z
" style="fill: #ffffff"/>
  </g>
  <g id="axes_1">
   <g id="patch_2">
    <path d="M 72 384.48 
L 518.4 384.48 
L 518.4 51.84 
L 72 51.84 
z
" style="fill: #ffffff"/>
   </g>
   <g id="matplotlib.axis_1">
    <g id="xtick_1">
     <g id="line2d_1">
      <defs>
       <path id="m2ad56a19f0" d="M 0 0 
L 0 3.5 
" style="stroke: #000000; stroke-width: 0.8"/>
      </defs>
      <g>
       <use xlink:href="#m2ad56a19f0" x="92.290909" y="384.48" style="stroke: #000000; stroke-width: 0.8"/>
      </g>
     </g>
     <g id="text_1">
      <!-- 0 -->
      <g transform="translate(89.109659 399.078438) scale(0.1 -0.1)">
       <defs>
        <path id="DejaVuSans-30" d="M 2034 4250 
Q 1547 4250 1301 3770 
Q 1056 3291 1056 2328 
Q 1056 1369 1301 889 
Q 1547 409 2034 409 
Q 2525 409 2770 889 
Q 3016 1369 3016 2328 
Q 3016 3291 2770 3770 
Q 2525 4250 2034 4250 
z
M 2034 4750 
Q 2819 4750 3233 4129 
Q 3647 3509 3647 2328 
Q 3647 1150 3233 529 
Q 2819 -91 2034 -91 
Q 1250 -91 836 529 
Q 422 1150 422 2328 
Q 422 3509 836 4129 
Q 1250 4750 2034 4750 
z
" transform="scale(0.015625)"/>
       </defs>
       <use xlink:href="#DejaVuSans-30"/>
      </g>
     </g>
    </g>
    <g id="xtick_2">
     <g id="line2d_2">
      <g>
       <use xlink:href="#m2ad56a19f0" x="173.617198" y="384.48" style="stroke: #000000; stroke-width: 0.8"/>
      </g>
     </g>
     <g id="text_2">
      <!-- 100 -->
      <g transform="translate(164.073448 399.078438) scale(0.1 -0.1)">
       <defs>
        <path id="DejaVuSans-31" d="M 794 531 
L 1825 531 
L 1825 4091 
L 703 3866 
L 703 4441 
L 1819 4666 
L 2450 4666 
L 2450 531 
L 3481 531 
L 3481 0 
L 794 0 
L 794 531 
z
" transform="scale(0.015625)"/>
       </defs>
       <use xlink:href="#DejaVuSans-31"/>
       <use xlink:href="#DejaVuSans-30" x="63.623047"/>
       <use xlink:href="#DejaVuSans-30" x="127.246094"/>
      </g>
     </g>
    </g>
    <g id="xtick_3">
     <g id="line2d_3">
      <g>
       <use xlink:href="#m2ad56a19f0" x="254.943487" y="384.48" style="stroke: #000000; stroke-width: 0.8"/>
      </g>
     </g>
     <g id="text_3">
      <!-- 200 -->
      <g transform="translate(245.399737 399.078438) scale(0.1 -0.1)">
       <defs>
        <path id="DejaVuSans-32" d="M 1228 531 
L 3431 531 
L 3431 0 
L 469 0 
L 469 531 
Q 828 903 1448 1529 
Q 2069 2156 2228 2338 
Q 2531 2678 2651 2914 
Q 2772 3150 2772 3378 
Q 2772 3750 2511 3984 
Q 2250 4219 1831 4219 
Q 1534 4219 1204 4116 
Q 875 4013 500 3803 
L 500 4441 
Q 881 4594 1212 4672 
Q 1544 4750 1819 4750 
Q 2544 4750 2975 4387 
Q 3406 4025 3406 3419 
Q 3406 3131 3298 2873 
Q 3191 2616 2906 2266 
Q 2828 2175 2409 1742 
Q 1991 1309 1228 531 
z
" transform="scale(0.015625)"/>
       </defs>
       <use xlink:href="#DejaVuSans-32"/>
       <use xlink:href="#DejaVuSans-30" x="63.623047"/>
       <use xlink:href="#DejaVuSans-30" x="127.246094"/>
      </g>
     </g>
    </g>
    <g id="xtick_4">
     <g id="line2d_4">
      <g>
       <use xlink:href="#m2ad56a19f0" x="336.269776" y="384.48" style="stroke: #000000; stroke-width: 0.8"/>
      </g>
     </g>
     <g id="text_4">
      <!-- 300 -->
      <g transform="translate(326.726026 399.078438) scale(0.1 -0.1)">
       <defs>
        <path id="DejaVuSans-33" d="M 2597 2516 
Q 3050 2419 3304 2112 
Q 3559 1806 3559 1356 
Q 3559 666 3084 287 
Q 2609 -91 1734 -91 
Q 1441 -91 1130 -33 
Q 819 25 488 141 
L 488 750 
Q 750 597 1062 519 
Q 1375 441 1716 441 
Q 2309 441 2620 675 
Q 2931 909 2931 1356 
Q 2931 1769 2642 2001 
Q 2353 2234 1838 2234 
L 1294 2234 
L 1294 2753 
L 1863 2753 
Q 2328 2753 2575 2939 
Q 2822 3125 2822 3475 
Q 2822 3834 2567 4026 
Q 2313 4219 1838 4219 
Q 1578 4219 1281 4162 
Q 984 4106 628 3988 
L 628 4550 
Q 988 4650 1302 4700 
Q 1616 4750 1894 4750 
Q 2613 4750 3031 4423 
Q 3450 4097 3450 3541 
Q 3450 3153 3228 2886 
Q 3006 2619 2597 2516 
z
" transform="scale(0.015625)"/>
       </defs>
       <use xlink:href="#DejaVuSans-33"/>
       <use xlink:href="#DejaVuSans-30" x="63.623047"/>
       <use xlink:href="#DejaVuSans-30" x="127.246094"/>
      </g>
     </g>
    </g>
    <g id="xtick_5">
     <g id="line2d_5">
      <g>
       <use xlink:href="#m2ad56a19f0" x="417.596065" y="384.48" style="stroke: #000000; stroke-width: 0.8"/>
      </g>
     </g>
     <g id="text_5">
      <!-- 400 -->
      <g transform="translate(408.052315 399.078438) scale(0.1 -0.1)">
       <defs>
        <path id="DejaVuSans-34" d="M 2419 4116 
L 825 1625 
L 2419 1625 
L 2419 4116 
z
M 2253 4666 
L 3047 4666 
L 3047 1625 
L 3713 1625 
L 3713 1100 
L 3047 1100 
L 3047 0 
L 2419 0 
L 2419 1100 
L 313 1100 
L 313 1709 
L 2253 4666 
z
" transform="scale(0.015625)"/>
       </defs>
       <use xlink:href="#DejaVuSans-34"/>
       <use xlink:href="#DejaVuSans-30" x="63.623047"/>
       <use xlink:href="#DejaVuSans-30" x="127.246094"/>
      </g>
     </g>
    </g>
    <g id="xtick_6">
     <g id="line2d_6">
      <g>
       <use xlink:href="#m2ad56a19f0" x="498.922354" y="384.48" style="stroke: #000000; stroke-width: 0.8"/>
      </g>
     </g>
     <g id="text_6">
      <!-- 500 -->
      <g transform="translate(489.378604 399.078438) scale(0.1 -0.1)">
       <defs>
        <path id="DejaVuSans-35" d="M 691 4666 
L 3169 4666 
L 3169 4134 
L 1269 4134 
L 1269 2991 
Q 1406 3038 1543 3061 
Q 1681 3084 1819 3084 
Q 2600 3084 3056 2656 
Q 3513 2228 3513 1497 
Q 3513 744 3044 326 
Q 2575 -91 1722 -91 
Q 1428 -91 1123 -41 
Q 819 9 494 109 
L 494 744 
Q 775 591 1075 516 
Q 1375 441 1709 441 
Q 2250 441 2565 725 
Q 2881 1009 2881 1497 
Q 2881 1984 2565 2268 
Q 2250 2553 1709 2553 
Q 1456 2553 1204 2497 
Q 953 2441 691 2322 
L 691 4666 
z
" transform="scale(0.015625)"/>
       </defs>
       <use xlink:href="#DejaVuSans-35"/>
       <use xlink:href="#DejaVuSans-30" x="63.623047"/>
       <use xlink:href="#DejaVuSans-30" x="127.246094"/>
      </g>
     </g>
    </g>
    <g id="text_7">
     <!-- epoch -->
     <g transform="translate(279.971875 412.756563) scale(0.1 -0.1)">
      <defs>
       <path id="DejaVuSans-65" d="M 3597 1894 
L 3597 1613 
L 953 1613 
Q 991 1019 1311 708 
Q 1631 397 2203 397 
Q 2534 397 2845 478 
Q 3156 559 3463 722 
L 3463 178 
Q 3153 47 2828 -22 
Q 2503 -91 2169 -91 
Q 1331 -91 842 396 
Q 353 884 353 1716 
Q 353 2575 817 3079 
Q 1281 3584 2069 3584 
Q 2775 3584 3186 3129 
Q 3597 2675 3597 1894 
z
M 3022 2063 
Q 3016 2534 2758 2815 
Q 2500 3097 2075 3097 
Q 1594 3097 1305 2825 
Q 1016 2553 972 2059 
L 3022 2063 
z
" transform="scale(0.015625)"/>
       <path id="DejaVuSans-70" d="M 1159 525 
L 1159 -1331 
L 581 -1331 
L 581 3500 
L 1159 3500 
L 1159 2969 
Q 1341 3281 1617 3432 
Q 1894 3584 2278 3584 
Q 2916 3584 3314 3078 
Q 3713 2572 3713 1747 
Q 3713 922 3314 415 
Q 2916 -91 2278 -91 
Q 1894 -91 1617 61 
Q 1341 213 1159 525 
z
M 3116 1747 
Q 3116 2381 2855 2742 
Q 2594 3103 2138 3103 
Q 1681 3103 1420 2742 
Q 1159 2381 1159 1747 
Q 1159 1113 1420 752 
Q 1681 391 2138 391 
Q 2594 391 2855 752 
Q 3116 1113 3116 1747 
z
" transform="scale(0.015625)"/>
       <path id="DejaVuSans-6f" d="M 1959 3097 
Q 1497 3097 1228 2736 
Q 959 2375 959 1747 
Q 959 1119 1226 758 
Q 1494 397 1959 397 
Q 2419 397 2687 759 
Q 2956 1122 2956 1747 
Q 2956 2369 2687 2733 
Q 2419 3097 1959 3097 
z
M 1959 3584 
Q 2709 3584 3137 3096 
Q 3566 2609 3566 1747 
Q 3566 888 3137 398 
Q 2709 -91 1959 -91 
Q 1206 -91 779 398 
Q 353 888 353 1747 
Q 353 2609 779 3096 
Q 1206 3584 1959 3584 
z
" transform="scale(0.015625)"/>
       <path id="DejaVuSans-63" d="M 3122 3366 
L 3122 2828 
Q 2878 2963 2633 3030 
Q 2388 3097 2138 3097 
Q 1578 3097 1268 2742 
Q 959 2388 959 1747 
Q 959 1106 1268 751 
Q 1578 397 2138 397 
Q 2388 397 2633 464 
Q 2878 531 3122 666 
L 3122 134 
Q 2881 22 2623 -34 
Q 2366 -91 2075 -91 
Q 1284 -91 818 406 
Q 353 903 353 1747 
Q 353 2603 823 3093 
Q 1294 3584 2113 3584 
Q 2378 3584 2631 3529 
Q 2884 3475 3122 3366 
z
" transform="scale(0.015625)"/>
       <path id="DejaVuSans-68" d="M 3513 2113 
L 3513 0 
L 2938 0 
L 2938 2094 
Q 2938 2591 2744 2837 
Q 2550 3084 2163 3084 
Q 1697 3084 1428 2787 
Q 1159 2491 1159 1978 
L 1159 0 
L 581 0 
L 581 4863 
L 1159 4863 
L 1159 2956 
Q 1366 3272 1645 3428 
Q 1925 3584 2291 3584 
Q 2894 3584 3203 3211 
Q 3513 2838 3513 2113 
z
" transform="scale(0.015625)"/>
      </defs>
      <use xlink:href="#DejaVuSans-65"/>
      <use xlink:href="#DejaVuSans-70" x="61.523438"/>
      <use xlink:href="#DejaVuSans-6f" x="125"/>
      <use xlink:href="#DejaVuSans-63" x="186.181641"/>
      <use xlink:href="#DejaVuSans-68" x="241.162109"/>
     </g>
    </g>
   </g>
   <g id="matplotlib.axis_2">
    <g id="ytick_1">
     <g id="line2d_7">
      <defs>
       <path id="m31f9590863" d="M 0 0 
L -3.5 0 
" style="stroke: #000000; stroke-width: 0.8"/>
      </defs>
      <g>
       <use xlink:href="#m31f9590863" x="72" y="384.48" style="stroke: #000000; stroke-width: 0.8"/>
      </g>
     </g>
     <g id="text_8">
      <!-- 0.0 -->
      <g transform="translate(49.096875 388.279219) scale(0.1 -0.1)">
       <defs>
        <path id="DejaVuSans-2e" d="M 684 794 
L 1344 794 
L 1344 0 
L 684 0 
L 684 794 
z
" transform="scale(0.015625)"/>
       </defs>
       <use xlink:href="#DejaVuSans-30"/>
       <use xlink:href="#DejaVuSans-2e" x="63.623047"/>
       <use xlink:href="#DejaVuSans-30" x="95.410156"/>
      </g>
     </g>
    </g>
    <g id="ytick_2">
     <g id="line2d_8">
      <g>
       <use xlink:href="#m31f9590863" x="72" y="317.952" style="stroke: #000000; stroke-width: 0.8"/>
      </g>
     </g>
     <g id="text_9">
      <!-- 0.2 -->
      <g transform="translate(49.096875 321.751219) scale(0.1 -0.1)">
       <use xlink:href="#DejaVuSans-30"/>
       <use xlink:href="#DejaVuSans-2e" x="63.623047"/>
       <use xlink:href="#DejaVuSans-32" x="95.410156"/>
      </g>
     </g>
    </g>
    <g id="ytick_3">
     <g id="line2d_9">
      <g>
       <use xlink:href="#m31f9590863" x="72" y="251.424" style="stroke: #000000; stroke-width: 0.8"/>
      </g>
     </g>
     <g id="text_10">
      <!-- 0.4 -->
      <g transform="translate(49.096875 255.223219) scale(0.1 -0.1)">
       <use xlink:href="#DejaVuSans-30"/>
       <use xlink:href="#DejaVuSans-2e" x="63.623047"/>
       <use xlink:href="#DejaVuSans-34" x="95.410156"/>
      </g>
     </g>
    </g>
    <g id="ytick_4">
     <g id="line2d_10">
      <g>
       <use xlink:href="#m31f9590863" x="72" y="184.896" style="stroke: #000000; stroke-width: 0.8"/>
      </g>
     </g>
     <g id="text_11">
      <!-- 0.6 -->
      <g transform="translate(49.096875 188.695219) scale(0.1 -0.1)">
       <defs>
        <path id="DejaVuSans-36" d="M 2113 2584 
Q 1688 2584 1439 2293 
Q 1191 2003 1191 1497 
Q 1191 994 1439 701 
Q 1688 409 2113 409 
Q 2538 409 2786 701 
Q 3034 994 3034 1497 
Q 3034 2003 2786 2293 
Q 2538 2584 2113 2584 
z
M 3366 4563 
L 3366 3988 
Q 3128 4100 2886 4159 
Q 2644 4219 2406 4219 
Q 1781 4219 1451 3797 
Q 1122 3375 1075 2522 
Q 1259 2794 1537 2939 
Q 1816 3084 2150 3084 
Q 2853 3084 3261 2657 
Q 3669 2231 3669 1497 
Q 3669 778 3244 343 
Q 2819 -91 2113 -91 
Q 1303 -91 875 529 
Q 447 1150 447 2328 
Q 447 3434 972 4092 
Q 1497 4750 2381 4750 
Q 2619 4750 2861 4703 
Q 3103 4656 3366 4563 
z
" transform="scale(0.015625)"/>
       </defs>
       <use xlink:href="#DejaVuSans-30"/>
       <use xlink:href="#DejaVuSans-2e" x="63.623047"/>
       <use xlink:href="#DejaVuSans-36" x="95.410156"/>
      </g>
     </g>
    </g>
    <g id="ytick_5">
     <g id="line2d_11">
      <g>
       <use xlink:href="#m31f9590863" x="72" y="118.368" style="stroke: #000000; stroke-width: 0.8"/>
      </g>
     </g>
     <g id="text_12">
      <!-- 0.8 -->
      <g transform="translate(49.096875 122.167219) scale(0.1 -0.1)">
       <defs>
        <path id="DejaVuSans-38" d="M 2034 2216 
Q 1584 2216 1326 1975 
Q 1069 1734 1069 1313 
Q 1069 891 1326 650 
Q 1584 409 2034 409 
Q 2484 409 2743 651 
Q 3003 894 3003 1313 
Q 3003 1734 2745 1975 
Q 2488 2216 2034 2216 
z
M 1403 2484 
Q 997 2584 770 2862 
Q 544 3141 544 3541 
Q 544 4100 942 4425 
Q 1341 4750 2034 4750 
Q 2731 4750 3128 4425 
Q 3525 4100 3525 3541 
Q 3525 3141 3298 2862 
Q 3072 2584 2669 2484 
Q 3125 2378 3379 2068 
Q 3634 1759 3634 1313 
Q 3634 634 3220 271 
Q 2806 -91 2034 -91 
Q 1263 -91 848 271 
Q 434 634 434 1313 
Q 434 1759 690 2068 
Q 947 2378 1403 2484 
z
M 1172 3481 
Q 1172 3119 1398 2916 
Q 1625 2713 2034 2713 
Q 2441 2713 2670 2916 
Q 2900 3119 2900 3481 
Q 2900 3844 2670 4047 
Q 2441 4250 2034 4250 
Q 1625 4250 1398 4047 
Q 1172 3844 1172 3481 
z
" transform="scale(0.015625)"/>
       </defs>
       <use xlink:href="#DejaVuSans-30"/>
       <use xlink:href="#DejaVuSans-2e" x="63.623047"/>
       <use xlink:href="#DejaVuSans-38" x="95.410156"/>
      </g>
     </g>
    </g>
    <g id="ytick_6">
     <g id="line2d_12">
      <g>
       <use xlink:href="#m31f9590863" x="72" y="51.84" style="stroke: #000000; stroke-width: 0.8"/>
      </g>
     </g>
     <g id="text_13">
      <!-- 1.0 -->
      <g transform="translate(49.096875 55.639219) scale(0.1 -0.1)">
       <use xlink:href="#DejaVuSans-31"/>
       <use xlink:href="#DejaVuSans-2e" x="63.623047"/>
       <use xlink:href="#DejaVuSans-30" x="95.410156"/>
      </g>
     </g>
    </g>
    <g id="text_14">
     <!-- rate -->
     <g transform="translate(43.017187 228.31625) rotate(-90) scale(0.1 -0.1)">
      <defs>
       <path id="DejaVuSans-72" d="M 2631 2963 
Q 2534 3019 2420 3045 
Q 2306 3072 2169 3072 
Q 1681 3072 1420 2755 
Q 1159 2438 1159 1844 
L 1159 0 
L 581 0 
L 581 3500 
L 1159 3500 
L 1159 2956 
Q 1341 3275 1631 3429 
Q 1922 3584 2338 3584 
Q 2397 3584 2469 3576 
Q 2541 3569 2628 3553 
L 2631 2963 
z
" transform="scale(0.015625)"/>
       <path id="DejaVuSans-61" d="M 2194 1759 
Q 1497 1759 1228 1600 
Q 959 1441 959 1056 
Q 959 750 1161 570 
Q 1363 391 1709 391 
Q 2188 391 2477 730 
Q 2766 1069 2766 1631 
L 2766 1759 
L 2194 1759 
z
M 3341 1997 
L 3341 0 
L 2766 0 
L 2766 531 
Q 2569 213 2275 61 
Q 1981 -91 1556 -91 
Q 1019 -91 701 211 
Q 384 513 384 1019 
Q 384 1609 779 1909 
Q 1175 2209 1959 2209 
L 2766 2209 
L 2766 2266 
Q 2766 2663 2505 2880 
Q 2244 3097 1772 3097 
Q 1472 3097 1187 3025 
Q 903 2953 641 2809 
L 641 3341 
Q 956 3463 1253 3523 
Q 1550 3584 1831 3584 
Q 2591 3584 2966 3190 
Q 3341 2797 3341 1997 
z
" transform="scale(0.015625)"/>
       <path id="DejaVuSans-74" d="M 1172 4494 
L 1172 3500 
L 2356 3500 
L 2356 3053 
L 1172 3053 
L 1172 1153 
Q 1172 725 1289 603 
Q 1406 481 1766 481 
L 2356 481 
L 2356 0 
L 1766 0 
Q 1100 0 847 248 
Q 594 497 594 1153 
L 594 3053 
L 172 3053 
L 172 3500 
L 594 3500 
L 594 4494 
L 1172 4494 
z
" transform="scale(0.015625)"/>
      </defs>
      <use xlink:href="#DejaVuSans-72"/>
      <use xlink:href="#DejaVuSans-61" x="41.113281"/>
      <use xlink:href="#DejaVuSans-74" x="102.392578"/>
      <use xlink:href="#DejaVuSans-65" x="141.601562"/>
     </g>
    </g>
   </g>
   <g id="line2d_13">
    <path d="M 92.290909 373.308403 
L 93.104172 371.644009 
L 93.917435 365.34404 
L 94.730698 303.064618 
L 95.543961 170.183072 
L 96.357224 159.458827 
L 97.170486 160.703995 
L 98.797012 150.274278 
L 99.610275 150.924263 
L 100.423538 178.946339 
L 101.236801 176.241952 
L 102.050064 175.549081 
L 102.863327 165.56307 
L 103.67659 169.055993 
L 104.489852 157.538692 
L 105.303115 176.58 
L 106.116378 157.538692 
L 106.929641 156.383994 
L 107.742904 160.703995 
L 108.556167 154.91155 
L 109.36943 162.719993 
L 110.182693 160.385675 
L 110.995956 159.458827 
L 111.809218 159.876917 
L 112.622481 171.249224 
L 113.435744 162.719993 
L 115.06227 149.337934 
L 115.875533 164.648357 
L 116.688796 150.732974 
L 117.502059 146.293337 
L 118.315322 145.661533 
L 119.128584 141.540673 
L 119.941847 143.48571 
L 120.75511 155.599265 
L 121.568373 161.755832 
L 122.381636 166.185 
L 123.194899 168.78375 
L 124.008162 168.264008 
L 124.821425 168.063618 
L 125.634688 150.120005 
L 126.44795 155.327994 
L 127.261213 159.143223 
L 128.074476 154.656001 
L 128.887739 162.719993 
L 129.701002 148.130536 
L 130.514265 150.301441 
L 131.327528 149.381057 
L 132.140791 143.955687 
L 132.954054 156.884206 
L 134.580579 138.239991 
L 135.393842 135.913841 
L 136.207105 141.994768 
L 137.020368 145.212632 
L 137.833631 143.315992 
L 138.646894 151.095488 
L 139.460157 124.269668 
L 140.27342 141.599995 
L 141.086682 149.198055 
L 141.899945 137.935054 
L 142.713208 139.569226 
L 143.526471 138.326397 
L 144.339734 134.207995 
L 145.152997 133.488001 
L 145.96626 142.559993 
L 146.779523 136.995834 
L 147.592786 132.317422 
L 148.406048 119.4075 
L 149.219311 147.474008 
L 150.032574 132.867697 
L 150.845837 125.330228 
L 151.6591 109.690441 
L 152.472363 105.062409 
L 153.285626 129.755669 
L 154.098889 129.264834 
L 154.912152 113.045765 
L 155.725414 121.742612 
L 156.538677 103.583997 
L 157.35194 140.263286 
L 158.165203 122.281408 
L 158.978466 108.540005 
L 159.791729 117.709307 
L 161.418255 106.324132 
L 162.231518 115.32092 
L 163.858043 108.934917 
L 164.671306 102.094958 
L 165.484569 129.600008 
L 166.297832 113.015172 
L 167.111095 111.998291 
L 167.924358 103.512224 
L 168.737621 103.719633 
L 169.550884 91.30576 
L 170.364146 86.160008 
L 171.177409 110.81873 
L 171.990672 99.359997 
L 172.803935 93.161735 
L 173.617198 125.330228 
L 174.430461 113.981535 
L 175.243724 124.605 
L 176.056987 109.542849 
L 176.87025 109.412309 
L 177.683512 85.104008 
L 178.496775 104.53545 
L 179.310038 106.324132 
L 180.123301 101.012866 
L 180.936564 104.07273 
L 181.749827 115.963371 
L 182.56309 120.537395 
L 183.376353 119.879995 
L 184.189616 110.137735 
L 185.002878 106.741746 
L 186.629404 102.155291 
L 187.442667 104.508009 
L 188.25593 109.919997 
L 189.069193 97.972551 
L 189.882456 123.659991 
L 190.695719 120.537395 
L 191.508982 105.491621 
L 192.322244 102.239992 
L 193.135507 111.464154 
L 193.94877 107.280007 
L 194.762033 100.667898 
L 195.575296 91.30576 
L 196.388559 92.078711 
L 197.201822 96.943734 
L 198.015085 118.367996 
L 198.828348 116.838629 
L 199.64161 97.199996 
L 200.454873 108.388806 
L 201.268136 108.326034 
L 202.081399 97.199996 
L 202.894662 113.045765 
L 203.707925 100.519018 
L 204.521188 95.339084 
L 205.334451 97.721384 
L 206.147714 115.199996 
L 206.960976 116.996293 
L 207.774239 123.120006 
L 208.587502 93.823695 
L 209.400765 86.132786 
L 210.214028 93.023998 
L 211.027291 91.512653 
L 211.840554 90.974115 
L 213.46708 92.405855 
L 214.280343 101.914831 
L 215.093605 113.306092 
L 215.906868 105.599995 
L 216.720131 101.11999 
L 217.533394 94.175999 
L 218.346657 102.784874 
L 219.15992 91.986199 
L 219.973183 101.44422 
L 220.786446 87.996513 
L 221.599709 89.355785 
L 222.412971 124.153046 
L 223.226234 108.388806 
L 224.039497 107.828914 
L 224.85276 100.282721 
L 225.666023 90.594173 
L 226.479286 100.223994 
L 227.292549 84.030977 
L 228.105812 107.770623 
L 228.919075 98.574555 
L 229.732337 91.756802 
L 230.5456 109.191715 
L 231.358863 99.359997 
L 232.172126 100.349993 
L 232.985389 90.594173 
L 233.798652 96.390008 
L 234.611915 88.799998 
L 235.425178 91.152002 
L 236.238441 95.007024 
L 237.051703 90.011797 
L 237.864966 87.120006 
L 238.678229 106.708457 
L 239.491492 109.690441 
L 240.304755 104.362103 
L 241.118018 97.616143 
L 241.931281 92.335311 
L 242.744544 102.784874 
L 243.557807 91.986199 
L 244.371069 78.451194 
L 245.184332 90.82125 
L 245.997595 93.052033 
L 246.810858 104.920845 
L 247.624121 92.952799 
L 248.437384 89.954993 
L 249.250647 103.247991 
L 250.06391 96.791344 
L 250.877173 69.659992 
L 251.690435 89.396133 
L 252.503698 95.110242 
L 253.316961 93.42 
L 254.130224 93.097674 
L 254.943487 107.280007 
L 255.75675 111.122378 
L 256.570013 92.63547 
L 258.196539 100.282721 
L 259.009801 71.741537 
L 259.823064 94.853801 
L 260.636327 73.202204 
L 262.262853 88.799998 
L 263.076116 105.491621 
L 263.889379 101.735992 
L 264.702642 88.799998 
L 265.515905 90.221546 
L 266.329167 85.383527 
L 267.14243 94.124747 
L 267.955693 90.974115 
L 268.768956 91.30576 
L 269.582219 83.270556 
L 270.395482 88.799998 
L 271.208745 107.280007 
L 272.022008 102.239992 
L 272.835271 94.235302 
L 273.648533 88.128005 
L 274.461796 84.804325 
L 275.275059 86.036645 
L 276.088322 78.101052 
L 276.901585 91.643075 
L 277.714848 82.848818 
L 278.528111 81.018955 
L 279.341374 115.377982 
L 280.154637 97.359167 
L 280.967899 102.459138 
L 281.781162 97.948521 
L 282.594425 92.690529 
L 283.407688 101.323632 
L 284.220951 85.383527 
L 285.034214 93.07636 
L 285.847477 79.559993 
L 286.66074 97.972551 
L 287.474003 102.459138 
L 288.287265 112.610763 
L 289.100528 94.235302 
L 289.913791 96.191997 
L 290.727054 87.164597 
L 291.540317 81.80757 
L 292.35358 77.648285 
L 293.166843 78.810815 
L 293.980106 78.569997 
L 294.793369 76.379007 
L 295.606631 113.200772 
L 296.419894 90.974115 
L 297.233157 90.449992 
L 298.04642 91.512653 
L 298.859683 87.712949 
L 299.672946 82.640001 
L 300.486209 89.701467 
L 301.299472 82.848818 
L 302.112735 84.220879 
L 302.925997 94.079997 
L 303.73926 106.148565 
L 304.552523 93.42 
L 305.365786 97.496468 
L 306.179049 95.773591 
L 306.992312 104.53545 
L 308.618838 69.502308 
L 309.432101 93.42 
L 310.245363 82.848818 
L 311.058626 91.756802 
L 311.871889 103.512224 
L 312.685152 107.280007 
L 313.498415 80.454186 
L 314.311678 91.512653 
L 315.124941 90.327263 
L 315.938204 90.974115 
L 316.751467 91.880006 
L 318.377992 76.787996 
L 319.191255 81.018955 
L 320.004518 101.382122 
L 320.817781 100.282721 
L 321.631044 96.191997 
L 322.444307 101.883187 
L 323.25757 86.854742 
L 324.070833 102.330006 
L 324.884095 73.399997 
L 325.697358 86.713555 
L 326.510621 84.804325 
L 327.323884 94.124747 
L 328.137147 115.680005 
L 328.95041 94.486151 
L 329.763673 90.108315 
L 330.576936 97.199996 
L 331.390199 98.526316 
L 332.203461 94.853801 
L 333.016724 83.113844 
L 333.829987 83.113844 
L 334.64325 89.118616 
L 335.456513 75.790089 
L 336.269776 101.11999 
L 337.083039 105.491621 
L 337.896302 99.359997 
L 338.709565 90.35621 
L 339.522827 84.135147 
L 340.33609 87.164597 
L 341.149353 76.710275 
L 341.962616 94.175999 
L 342.775879 90.648003 
L 343.589142 87.876005 
L 344.402405 101.580569 
L 345.215668 98.880008 
L 346.028931 105.695997 
L 346.842193 101.012866 
L 347.655456 92.254199 
L 348.468719 94.853801 
L 349.281982 107.798123 
L 350.095245 88.178821 
L 350.908508 91.986199 
L 351.721771 87.164597 
L 352.535034 95.773591 
L 353.348297 98.471772 
L 354.161559 93.42 
L 354.974822 93.42 
L 355.788085 105.400675 
L 356.601348 95.995751 
L 357.414611 72.265265 
L 358.227874 94.175999 
L 359.041137 88.178821 
L 359.8544 76.480005 
L 360.667663 96.885007 
L 361.480925 88.128005 
L 362.294188 102.754281 
L 363.107451 100.667898 
L 363.920714 93.052033 
L 364.733977 100.172305 
L 365.54724 98.526316 
L 366.360503 98.939469 
L 367.173766 80.76521 
L 367.987029 79.330914 
L 368.800291 109.823122 
L 369.613554 101.241985 
L 370.426817 101.012866 
L 371.24008 102.330006 
L 372.053343 121.002771 
L 372.866606 88.799998 
L 373.679869 92.63547 
L 374.493132 95.608413 
L 375.306395 80.351998 
L 376.119657 78.101052 
L 376.93292 101.382122 
L 377.746183 94.761289 
L 378.559446 82.079991 
L 379.372709 89.145422 
L 380.185972 101.11999 
L 380.999235 85.104008 
L 381.812498 87.285243 
L 382.625761 94.564408 
L 383.439024 103.815 
L 384.252286 90.011797 
L 385.065549 102.239992 
L 385.878812 99.359997 
L 386.692075 95.520005 
L 387.505338 87.36467 
L 388.318601 85.956921 
L 389.131864 102.527997 
L 389.945127 90.797834 
L 390.75839 70.492701 
L 391.571652 73.202204 
L 392.384915 88.799998 
L 393.198178 85.860007 
L 394.011441 102.784874 
L 394.824704 91.756802 
L 395.637967 98.911691 
L 396.45123 97.843399 
L 397.264493 87.480003 
L 398.077756 84.220879 
L 398.891018 87.480003 
L 399.704281 101.883187 
L 400.517544 84.509994 
L 401.330807 90.974115 
L 402.14407 89.177145 
L 402.957333 101.735992 
L 403.770596 93.42 
L 404.583859 104.53545 
L 405.397122 92.254199 
L 406.210384 87.801079 
L 407.023647 100.519018 
L 407.83691 98.120341 
L 408.650173 75.389744 
L 409.463436 102.239992 
L 411.089962 94.235302 
L 411.903225 88.178821 
L 412.716488 105.695997 
L 413.52975 93.42 
L 414.343013 103.905391 
L 415.156276 98.911691 
L 415.969539 90.108315 
L 416.782802 79.305694 
L 417.596065 82.640001 
L 418.409328 97.948521 
L 419.222591 90.974115 
L 420.035854 82.703507 
L 420.849116 87.36467 
L 421.662379 84.451763 
L 423.288905 92.254199 
L 424.102168 87.801079 
L 424.915431 86.251033 
L 425.728694 104.199999 
L 426.541957 100.223994 
L 427.35522 91.512653 
L 428.168482 85.409183 
L 428.981745 102.784874 
L 429.795008 78.810815 
L 430.608271 96.191997 
L 431.421534 102.784874 
L 432.234797 99.762721 
L 433.04806 89.497349 
L 434.674586 102.239992 
L 435.487848 93.023998 
L 436.301111 82.079991 
L 437.114374 83.221128 
L 437.927637 96.791344 
L 438.7409 92.63547 
L 439.554163 87.801079 
L 440.367426 85.104008 
L 441.993952 111.464154 
L 442.807214 101.012866 
L 443.620477 95.227836 
L 444.43374 84.509994 
L 445.247003 83.657736 
L 446.060266 82.640001 
L 446.873529 92.63547 
L 447.686792 96.191997 
L 448.500055 92.690529 
L 449.313318 91.643075 
L 450.12658 109.296005 
L 450.939843 92.991343 
L 451.753106 115.199996 
L 452.566369 100.667898 
L 453.379632 81.481179 
L 454.192895 86.036645 
L 455.006158 83.519998 
L 455.819421 85.409183 
L 456.632684 91.880006 
L 457.445946 100.282721 
L 458.259209 88.460918 
L 459.072472 97.359167 
L 459.885735 90.221546 
L 460.698998 88.460918 
L 461.512261 98.040002 
L 462.325524 96.791344 
L 463.138787 86.251033 
L 463.95205 86.359248 
L 464.765312 79.559993 
L 465.578575 80.626145 
L 466.391838 89.855998 
L 467.205101 104.53545 
L 468.018364 102.527997 
L 468.831627 101.012866 
L 469.64489 93.052033 
L 470.458153 98.939469 
L 471.271416 108.270003 
L 472.084678 84.509994 
L 472.897941 92.690529 
L 473.711204 83.221128 
L 474.524467 90.974115 
L 475.33773 80.149784 
L 476.150993 97.199996 
L 476.964256 90.594173 
L 477.777519 96.618454 
L 478.590782 88.430405 
L 479.404044 98.471772 
L 480.217307 93.052033 
L 481.03057 94.175999 
L 481.843833 79.055994 
L 482.657096 99.359997 
L 483.470359 96.564703 
L 484.283622 92.571429 
L 485.096885 87.36467 
L 485.910148 86.490007 
L 486.72341 93.023998 
L 487.536673 105.062409 
L 488.349936 105.062409 
L 489.163199 95.227836 
L 489.976462 87.876005 
L 490.789725 102.330006 
L 491.602988 93.42 
L 492.416251 102.049812 
L 493.229514 94.304676 
L 494.042776 93.42 
L 494.856039 85.409183 
L 495.669302 97.616143 
L 496.482565 96.390008 
L 497.295828 94.235302 
L 498.109091 107.280007 
L 498.109091 107.280007 
" clip-path="url(#pb41a444b4e)" style="fill: none; stroke: #0000ff; stroke-width: 1.5; stroke-linecap: square"/>
   </g>
   <g id="line2d_14">
    <path d="M 92.290909 211.082554 
L 93.104172 239.392338 
L 93.917435 301.32 
L 94.730698 322.552343 
L 95.543961 325.206385 
L 96.357224 323.437024 
L 97.170486 319.013615 
L 97.983749 321.667657 
L 98.797012 323.437024 
L 99.610275 326.091066 
L 100.423538 317.244253 
L 101.236801 316.359573 
L 102.050064 317.244253 
L 102.863327 316.359573 
L 103.67659 324.321704 
L 104.489852 319.898296 
L 105.303115 322.552343 
L 106.116378 319.898296 
L 106.929641 320.782976 
L 107.742904 319.013615 
L 108.556167 341.130639 
L 109.36943 340.245958 
L 110.182693 327.860427 
L 110.995956 323.437024 
L 111.809218 314.590211 
L 112.622481 318.128934 
L 113.435744 311.936169 
L 114.249007 312.82085 
L 115.06227 311.936169 
L 115.875533 317.244253 
L 116.688796 338.476596 
L 117.502059 333.168512 
L 118.315322 334.937873 
L 119.128584 326.975747 
L 119.941847 321.667657 
L 120.75511 318.128934 
L 121.568373 316.359573 
L 122.381636 310.166807 
L 123.194899 311.051488 
L 124.008162 303.974042 
L 124.821425 336.707235 
L 125.634688 329.629789 
L 126.44795 329.629789 
L 127.261213 328.745108 
L 128.074476 317.244253 
L 128.887739 315.474892 
L 129.701002 312.82085 
L 130.514265 306.628084 
L 131.327528 301.32 
L 132.140791 301.32 
L 132.954054 338.476596 
L 133.767316 332.283831 
L 134.580579 334.053193 
L 136.207105 315.474892 
L 137.020368 311.936169 
L 137.833631 307.512765 
L 138.646894 307.512765 
L 139.460157 298.665953 
L 140.27342 303.089361 
L 141.086682 333.168512 
L 141.899945 328.745108 
L 142.713208 325.206385 
L 143.526471 319.013615 
L 144.339734 314.590211 
L 145.152997 311.051488 
L 146.779523 302.204681 
L 147.592786 301.32 
L 148.406048 294.242554 
L 149.219311 334.053193 
L 150.032574 332.283831 
L 152.472363 310.166807 
L 153.285626 309.282127 
L 154.098889 305.743404 
L 154.912152 294.242554 
L 155.725414 288.049784 
L 156.538677 283.626385 
L 157.35194 333.168512 
L 158.165203 325.206385 
L 158.978466 319.898296 
L 159.791729 312.82085 
L 160.604992 308.397446 
L 161.418255 298.665953 
L 162.231518 290.703831 
L 163.04478 292.473193 
L 164.671306 280.087662 
L 165.484569 332.283831 
L 166.297832 321.667657 
L 167.111095 316.359573 
L 167.924358 307.512765 
L 168.737621 303.089361 
L 169.550884 292.473193 
L 170.364146 284.511061 
L 171.177409 281.857024 
L 171.990672 273.010216 
L 172.803935 259.74 
L 173.617198 325.206385 
L 174.430461 319.013615 
L 175.243724 318.128934 
L 176.056987 312.82085 
L 176.87025 308.397446 
L 177.683512 304.858723 
L 178.496775 309.282127 
L 179.310038 298.665953 
L 180.123301 297.781277 
L 180.936564 294.242554 
L 181.749827 325.206385 
L 182.56309 319.898296 
L 183.376353 322.552343 
L 184.189616 313.70553 
L 185.002878 308.397446 
L 185.816141 299.550639 
L 186.629404 295.12723 
L 187.442667 295.12723 
L 188.25593 292.473193 
L 189.069193 280.087662 
L 189.882456 323.437024 
L 190.695719 319.898296 
L 191.508982 315.474892 
L 192.322244 310.166807 
L 193.135507 307.512765 
L 193.94877 300.435314 
L 194.762033 302.204681 
L 195.575296 292.473193 
L 196.388559 288.049784 
L 197.201822 294.242554 
L 198.015085 320.782976 
L 198.828348 322.552343 
L 199.64161 317.244253 
L 200.454873 311.051488 
L 201.268136 306.628084 
L 202.894662 294.242554 
L 203.707925 291.588507 
L 204.521188 284.511061 
L 205.334451 273.894892 
L 206.147714 324.321704 
L 206.960976 315.474892 
L 207.774239 316.359573 
L 208.587502 304.858723 
L 209.400765 307.512765 
L 210.214028 303.089361 
L 211.027291 299.550639 
L 211.840554 291.588507 
L 212.653817 293.357868 
L 213.46708 288.93447 
L 214.280343 314.590211 
L 215.093605 318.128934 
L 216.720131 303.089361 
L 217.533394 299.550639 
L 218.346657 301.32 
L 219.15992 294.242554 
L 219.973183 298.665953 
L 220.786446 275.664253 
L 221.599709 280.087662 
L 222.412971 320.782976 
L 223.226234 311.051488 
L 224.039497 310.166807 
L 224.85276 306.628084 
L 226.479286 301.32 
L 227.292549 285.395747 
L 228.105812 301.32 
L 228.919075 292.473193 
L 229.732337 287.165108 
L 230.5456 320.782976 
L 231.358863 315.474892 
L 232.172126 311.936169 
L 232.985389 303.974042 
L 233.798652 298.665953 
L 234.611915 299.550639 
L 235.425178 298.665953 
L 236.238441 283.626385 
L 237.051703 288.93447 
L 237.864966 280.087662 
L 238.678229 312.82085 
L 239.491492 317.244253 
L 240.304755 313.70553 
L 241.118018 301.32 
L 241.931281 295.12723 
L 242.744544 301.32 
L 243.557807 294.242554 
L 244.371069 282.741699 
L 245.184332 284.511061 
L 245.997595 296.896591 
L 246.810858 314.590211 
L 247.624121 315.474892 
L 248.437384 309.282127 
L 249.250647 302.204681 
L 250.06391 299.550639 
L 250.877173 290.703831 
L 251.690435 287.165108 
L 252.503698 289.819145 
L 253.316961 297.781277 
L 254.130224 284.511061 
L 254.943487 313.70553 
L 255.75675 311.051488 
L 256.570013 302.204681 
L 257.383276 298.665953 
L 258.196539 306.628084 
L 259.009801 287.165108 
L 259.823064 295.12723 
L 261.44959 293.357868 
L 262.262853 299.550639 
L 263.076116 315.474892 
L 263.889379 309.282127 
L 264.702642 299.550639 
L 265.515905 303.089361 
L 266.329167 289.819145 
L 267.14243 293.357868 
L 267.955693 291.588507 
L 268.768956 292.473193 
L 269.582219 282.741699 
L 270.395482 292.473193 
L 271.208745 313.70553 
L 272.022008 310.166807 
L 272.835271 305.743404 
L 273.648533 297.781277 
L 274.461796 296.011916 
L 275.275059 299.550639 
L 276.088322 291.588507 
L 276.901585 293.357868 
L 277.714848 289.819145 
L 278.528111 292.473193 
L 279.341374 320.782976 
L 280.154637 311.936169 
L 280.967899 315.474892 
L 281.781162 307.512765 
L 282.594425 296.011916 
L 283.407688 293.357868 
L 284.220951 289.819145 
L 285.034214 290.703831 
L 285.847477 287.165108 
L 286.66074 280.087662 
L 287.474003 315.474892 
L 288.287265 309.282127 
L 289.100528 305.743404 
L 289.913791 303.974042 
L 290.727054 295.12723 
L 291.540317 295.12723 
L 292.35358 289.819145 
L 293.166843 294.242554 
L 293.980106 293.357868 
L 294.793369 284.511061 
L 295.606631 310.166807 
L 296.419894 304.858723 
L 297.233157 296.896591 
L 298.04642 299.550639 
L 298.859683 303.974042 
L 299.672946 297.781277 
L 300.486209 288.049784 
L 301.299472 289.819145 
L 302.112735 294.242554 
L 302.925997 287.165108 
L 303.73926 311.936169 
L 304.552523 310.166807 
L 306.179049 303.089361 
L 306.992312 309.282127 
L 307.805575 303.089361 
L 308.618838 289.819145 
L 309.432101 297.781277 
L 310.245363 289.819145 
L 311.058626 287.165108 
L 311.871889 307.512765 
L 312.685152 309.282127 
L 313.498415 309.282127 
L 315.124941 289.819145 
L 315.938204 291.588507 
L 316.751467 300.435314 
L 317.564729 285.395747 
L 318.377992 286.280422 
L 319.191255 292.473193 
L 320.004518 313.70553 
L 320.817781 306.628084 
L 321.631044 303.974042 
L 322.444307 299.550639 
L 323.25757 294.242554 
L 324.070833 300.435314 
L 324.884095 295.12723 
L 325.697358 286.280422 
L 326.510621 296.011916 
L 327.323884 293.357868 
L 328.137147 313.70553 
L 328.95041 294.242554 
L 329.763673 296.011916 
L 330.576936 300.435314 
L 332.203461 295.12723 
L 333.016724 290.703831 
L 333.829987 290.703831 
L 334.64325 293.357868 
L 335.456513 281.857024 
L 336.269776 303.089361 
L 337.083039 315.474892 
L 337.896302 304.858723 
L 338.709565 310.166807 
L 340.33609 295.12723 
L 341.149353 296.896591 
L 341.962616 299.550639 
L 342.775879 290.703831 
L 343.589142 289.819145 
L 344.402405 303.974042 
L 345.215668 309.282127 
L 346.028931 306.628084 
L 346.842193 297.781277 
L 347.655456 301.32 
L 348.468719 295.12723 
L 349.281982 305.743404 
L 350.095245 290.703831 
L 350.908508 294.242554 
L 351.721771 295.12723 
L 352.535034 303.089361 
L 353.348297 303.089361 
L 354.161559 303.974042 
L 354.974822 303.974042 
L 355.788085 296.896591 
L 356.601348 297.781277 
L 357.414611 289.819145 
L 358.227874 299.550639 
L 359.041137 290.703831 
L 359.8544 296.011916 
L 360.667663 311.051488 
L 361.480925 297.781277 
L 362.294188 311.051488 
L 363.107451 302.204681 
L 363.920714 296.896591 
L 364.733977 296.011916 
L 365.54724 297.781277 
L 366.360503 298.665953 
L 367.173766 291.588507 
L 367.987029 286.280422 
L 368.800291 304.858723 
L 369.613554 308.397446 
L 370.426817 297.781277 
L 371.24008 300.435314 
L 372.053343 313.70553 
L 372.866606 299.550639 
L 373.679869 302.204681 
L 374.493132 296.896591 
L 375.306395 299.550639 
L 376.119657 291.588507 
L 376.93292 313.70553 
L 377.746183 312.82085 
L 378.559446 296.011916 
L 379.372709 300.435314 
L 380.185972 303.089361 
L 380.999235 296.896591 
L 381.812498 288.049784 
L 382.625761 300.435314 
L 383.439024 288.93447 
L 384.252286 288.93447 
L 385.065549 310.166807 
L 385.878812 315.474892 
L 386.692075 308.397446 
L 387.505338 303.089361 
L 388.318601 291.588507 
L 389.131864 305.743404 
L 389.945127 297.781277 
L 390.75839 295.12723 
L 391.571652 294.242554 
L 392.384915 292.473193 
L 393.198178 314.590211 
L 394.011441 301.32 
L 394.824704 306.628084 
L 395.637967 303.974042 
L 396.45123 312.82085 
L 397.264493 296.011916 
L 398.077756 294.242554 
L 398.891018 296.011916 
L 399.704281 299.550639 
L 400.517544 295.12723 
L 401.330807 304.858723 
L 402.14407 307.512765 
L 402.957333 309.282127 
L 403.770596 303.974042 
L 404.583859 309.282127 
L 405.397122 301.32 
L 406.210384 296.896591 
L 407.023647 291.588507 
L 407.83691 296.896591 
L 408.650173 291.588507 
L 409.463436 310.166807 
L 410.276699 307.512765 
L 411.089962 305.743404 
L 411.903225 290.703831 
L 412.716488 306.628084 
L 413.52975 291.588507 
L 414.343013 298.665953 
L 415.156276 303.974042 
L 415.969539 296.011916 
L 416.782802 296.011916 
L 417.596065 297.781277 
L 418.409328 307.512765 
L 419.222591 304.858723 
L 420.035854 306.628084 
L 420.849116 303.089361 
L 421.662379 303.089361 
L 422.475642 291.588507 
L 423.288905 301.32 
L 424.915431 292.473193 
L 425.728694 303.974042 
L 426.541957 301.32 
L 428.168482 297.781277 
L 428.981745 301.32 
L 429.795008 294.242554 
L 430.608271 303.974042 
L 431.421534 301.32 
L 432.234797 295.12723 
L 433.04806 301.32 
L 433.861323 309.282127 
L 434.674586 310.166807 
L 435.487848 303.089361 
L 436.301111 304.858723 
L 437.114374 299.550639 
L 437.927637 299.550639 
L 438.7409 302.204681 
L 439.554163 296.896591 
L 440.367426 296.896591 
L 441.180689 296.011916 
L 441.993952 307.512765 
L 442.807214 297.781277 
L 443.620477 296.011916 
L 444.43374 295.12723 
L 445.247003 292.473193 
L 446.060266 297.781277 
L 446.873529 302.204681 
L 447.686792 292.473193 
L 448.500055 296.011916 
L 449.313318 293.357868 
L 450.12658 303.974042 
L 450.939843 309.282127 
L 451.753106 309.282127 
L 452.566369 302.204681 
L 453.379632 303.089361 
L 454.192895 299.550639 
L 455.006158 300.435314 
L 455.819421 297.781277 
L 456.632684 300.435314 
L 457.445946 306.628084 
L 458.259209 298.665953 
L 459.072472 311.936169 
L 459.885735 303.089361 
L 460.698998 298.665953 
L 461.512261 302.204681 
L 462.325524 299.550639 
L 463.138787 292.473193 
L 463.95205 300.435314 
L 464.765312 296.896591 
L 465.578575 300.435314 
L 466.391838 302.204681 
L 467.205101 309.282127 
L 468.018364 305.743404 
L 468.831627 297.781277 
L 469.64489 296.896591 
L 470.458153 298.665953 
L 471.271416 302.204681 
L 472.084678 295.12723 
L 472.897941 296.011916 
L 473.711204 299.550639 
L 474.524467 304.858723 
L 475.33773 308.397446 
L 476.150993 300.435314 
L 476.964256 303.974042 
L 478.590782 305.743404 
L 479.404044 303.089361 
L 480.217307 296.896591 
L 481.03057 299.550639 
L 481.843833 295.12723 
L 482.657096 310.166807 
L 483.470359 293.357868 
L 484.283622 308.397446 
L 485.096885 303.089361 
L 485.910148 308.397446 
L 486.72341 303.089361 
L 487.536673 310.166807 
L 488.349936 310.166807 
L 489.163199 296.011916 
L 489.976462 289.819145 
L 491.602988 310.166807 
L 492.416251 304.858723 
L 493.229514 311.936169 
L 494.042776 303.974042 
L 494.856039 297.781277 
L 495.669302 301.32 
L 496.482565 298.665953 
L 497.295828 305.743404 
L 498.109091 304.858723 
L 498.109091 304.858723 
" clip-path="url(#pb41a444b4e)" style="fill: none; stroke: #008000; stroke-width: 1.5; stroke-linecap: square"/>
   </g>
   <g id="patch_3">
    <path d="M 72 384.48 
L 72 51.84 
" style="fill: none; stroke: #000000; stroke-width: 0.8; stroke-linejoin: miter; stroke-linecap: square"/>
   </g>
   <g id="patch_4">
    <path d="M 518.4 384.48 
L 518.4 51.84 
" style="fill: none; stroke: #000000; stroke-width: 0.8; stroke-linejoin: miter; stroke-linecap: square"/>
   </g>
   <g id="patch_5">
    <path d="M 72 384.48 
L 518.4 384.48 
" style="fill: none; stroke: #000000; stroke-width: 0.8; stroke-linejoin: miter; stroke-linecap: square"/>
   </g>
   <g id="patch_6">
    <path d="M 72 51.84 
L 518.4 51.84 
" style="fill: none; stroke: #000000; stroke-width: 0.8; stroke-linejoin: miter; stroke-linecap: square"/>
   </g>
   <g id="legend_1">
    <g id="patch_7">
     <path d="M 79 89.19625 
L 156.107812 89.19625 
Q 158.107812 89.19625 158.107812 87.19625 
L 158.107812 58.84 
Q 158.107812 56.84 156.107812 56.84 
L 79 56.84 
Q 77 56.84 77 58.84 
L 77 87.19625 
Q 77 89.19625 79 89.19625 
z
" style="fill: #ffffff; opacity: 0.8; stroke: #cccccc; stroke-linejoin: miter"/>
    </g>
    <g id="line2d_15">
     <path d="M 81 64.938437 
L 91 64.938437 
L 101 64.938437 
" style="fill: none; stroke: #0000ff; stroke-width: 1.5; stroke-linecap: square"/>
    </g>
    <g id="text_15">
     <!-- precision -->
     <g transform="translate(109 68.438437) scale(0.1 -0.1)">
      <defs>
       <path id="DejaVuSans-69" d="M 603 3500 
L 1178 3500 
L 1178 0 
L 603 0 
L 603 3500 
z
M 603 4863 
L 1178 4863 
L 1178 4134 
L 603 4134 
L 603 4863 
z
" transform="scale(0.015625)"/>
       <path id="DejaVuSans-73" d="M 2834 3397 
L 2834 2853 
Q 2591 2978 2328 3040 
Q 2066 3103 1784 3103 
Q 1356 3103 1142 2972 
Q 928 2841 928 2578 
Q 928 2378 1081 2264 
Q 1234 2150 1697 2047 
L 1894 2003 
Q 2506 1872 2764 1633 
Q 3022 1394 3022 966 
Q 3022 478 2636 193 
Q 2250 -91 1575 -91 
Q 1294 -91 989 -36 
Q 684 19 347 128 
L 347 722 
Q 666 556 975 473 
Q 1284 391 1588 391 
Q 1994 391 2212 530 
Q 2431 669 2431 922 
Q 2431 1156 2273 1281 
Q 2116 1406 1581 1522 
L 1381 1569 
Q 847 1681 609 1914 
Q 372 2147 372 2553 
Q 372 3047 722 3315 
Q 1072 3584 1716 3584 
Q 2034 3584 2315 3537 
Q 2597 3491 2834 3397 
z
" transform="scale(0.015625)"/>
       <path id="DejaVuSans-6e" d="M 3513 2113 
L 3513 0 
L 2938 0 
L 2938 2094 
Q 2938 2591 2744 2837 
Q 2550 3084 2163 3084 
Q 1697 3084 1428 2787 
Q 1159 2491 1159 1978 
L 1159 0 
L 581 0 
L 581 3500 
L 1159 3500 
L 1159 2956 
Q 1366 3272 1645 3428 
Q 1925 3584 2291 3584 
Q 2894 3584 3203 3211 
Q 3513 2838 3513 2113 
z
" transform="scale(0.015625)"/>
      </defs>
      <use xlink:href="#DejaVuSans-70"/>
      <use xlink:href="#DejaVuSans-72" x="63.476562"/>
      <use xlink:href="#DejaVuSans-65" x="102.339844"/>
      <use xlink:href="#DejaVuSans-63" x="163.863281"/>
      <use xlink:href="#DejaVuSans-69" x="218.84375"/>
      <use xlink:href="#DejaVuSans-73" x="246.626953"/>
      <use xlink:href="#DejaVuSans-69" x="298.726562"/>
      <use xlink:href="#DejaVuSans-6f" x="326.509766"/>
      <use xlink:href="#DejaVuSans-6e" x="387.691406"/>
     </g>
    </g>
    <g id="line2d_16">
     <path d="M 81 79.616562 
L 91 79.616562 
L 101 79.616562 
" style="fill: none; stroke: #008000; stroke-width: 1.5; stroke-linecap: square"/>
    </g>
    <g id="text_16">
     <!-- recall -->
     <g transform="translate(109 83.116562) scale(0.1 -0.1)">
      <defs>
       <path id="DejaVuSans-6c" d="M 603 4863 
L 1178 4863 
L 1178 0 
L 603 0 
L 603 4863 
z
" transform="scale(0.015625)"/>
      </defs>
      <use xlink:href="#DejaVuSans-72"/>
      <use xlink:href="#DejaVuSans-65" x="38.863281"/>
      <use xlink:href="#DejaVuSans-63" x="100.386719"/>
      <use xlink:href="#DejaVuSans-61" x="155.367188"/>
      <use xlink:href="#DejaVuSans-6c" x="216.646484"/>
      <use xlink:href="#DejaVuSans-6c" x="244.429688"/>
     </g>
    </g>
   </g>
  </g>
  <g id="axes_2">
   <g id="matplotlib.axis_3">
    <g id="ytick_7">
     <g id="line2d_17">
      <defs>
       <path id="meb80bf8dc9" d="M 0 0 
L 3.5 0 
" style="stroke: #000000; stroke-width: 0.8"/>
      </defs>
      <g>
       <use xlink:href="#meb80bf8dc9" x="518.4" y="358.721038" style="stroke: #000000; stroke-width: 0.8"/>
      </g>
     </g>
     <g id="text_17">
      <!-- 0.4 -->
      <g transform="translate(525.4 362.520256) scale(0.1 -0.1)">
       <use xlink:href="#DejaVuSans-30"/>
       <use xlink:href="#DejaVuSans-2e" x="63.623047"/>
       <use xlink:href="#DejaVuSans-34" x="95.410156"/>
      </g>
     </g>
    </g>
    <g id="ytick_8">
     <g id="line2d_18">
      <g>
       <use xlink:href="#meb80bf8dc9" x="518.4" y="293.579443" style="stroke: #000000; stroke-width: 0.8"/>
      </g>
     </g>
     <g id="text_18">
      <!-- 0.6 -->
      <g transform="translate(525.4 297.378662) scale(0.1 -0.1)">
       <use xlink:href="#DejaVuSans-30"/>
       <use xlink:href="#DejaVuSans-2e" x="63.623047"/>
       <use xlink:href="#DejaVuSans-36" x="95.410156"/>
      </g>
     </g>
    </g>
    <g id="ytick_9">
     <g id="line2d_19">
      <g>
       <use xlink:href="#meb80bf8dc9" x="518.4" y="228.437849" style="stroke: #000000; stroke-width: 0.8"/>
      </g>
     </g>
     <g id="text_19">
      <!-- 0.8 -->
      <g transform="translate(525.4 232.237068) scale(0.1 -0.1)">
       <use xlink:href="#DejaVuSans-30"/>
       <use xlink:href="#DejaVuSans-2e" x="63.623047"/>
       <use xlink:href="#DejaVuSans-38" x="95.410156"/>
      </g>
     </g>
    </g>
    <g id="ytick_10">
     <g id="line2d_20">
      <g>
       <use xlink:href="#meb80bf8dc9" x="518.4" y="163.296255" style="stroke: #000000; stroke-width: 0.8"/>
      </g>
     </g>
     <g id="text_20">
      <!-- 1.0 -->
      <g transform="translate(525.4 167.095473) scale(0.1 -0.1)">
       <use xlink:href="#DejaVuSans-31"/>
       <use xlink:href="#DejaVuSans-2e" x="63.623047"/>
       <use xlink:href="#DejaVuSans-30" x="95.410156"/>
      </g>
     </g>
    </g>
    <g id="ytick_11">
     <g id="line2d_21">
      <g>
       <use xlink:href="#meb80bf8dc9" x="518.4" y="98.15466" style="stroke: #000000; stroke-width: 0.8"/>
      </g>
     </g>
     <g id="text_21">
      <!-- 1.2 -->
      <g transform="translate(525.4 101.953879) scale(0.1 -0.1)">
       <use xlink:href="#DejaVuSans-31"/>
       <use xlink:href="#DejaVuSans-2e" x="63.623047"/>
       <use xlink:href="#DejaVuSans-32" x="95.410156"/>
      </g>
     </g>
    </g>
    <g id="text_22">
     <!-- loss -->
     <g transform="translate(552.901563 227.817812) rotate(-90) scale(0.1 -0.1)">
      <use xlink:href="#DejaVuSans-6c"/>
      <use xlink:href="#DejaVuSans-6f" x="27.783203"/>
      <use xlink:href="#DejaVuSans-73" x="88.964844"/>
      <use xlink:href="#DejaVuSans-73" x="141.064453"/>
     </g>
    </g>
   </g>
   <g id="line2d_22">
    <path d="M 92.290909 66.96 
L 93.104172 118.898891 
L 93.917435 190.36572 
L 94.730698 245.24835 
L 95.543961 275.112068 
L 96.357224 287.083706 
L 97.170486 289.871281 
L 97.983749 290.542394 
L 98.797012 289.820689 
L 99.610275 288.177571 
L 100.423538 340.489011 
L 101.236801 338.391981 
L 102.050064 337.614647 
L 103.67659 336.528886 
L 104.489852 336.917161 
L 105.303115 337.88406 
L 106.116378 338.47647 
L 106.929641 339.272849 
L 107.742904 340.640613 
L 108.556167 335.111006 
L 109.36943 337.118597 
L 110.182693 338.826528 
L 110.995956 340.955474 
L 112.622481 344.534692 
L 113.435744 347.570782 
L 114.249007 348.718559 
L 115.06227 350.313726 
L 115.875533 352.250651 
L 116.688796 344.46192 
L 117.502059 346.359532 
L 119.941847 353.927714 
L 120.75511 354.647622 
L 121.568373 355.735877 
L 122.381636 356.240517 
L 123.194899 356.362872 
L 124.008162 357.977656 
L 124.821425 351.408581 
L 125.634688 352.833343 
L 126.44795 354.81689 
L 128.074476 356.925937 
L 128.887739 358.821181 
L 129.701002 359.342109 
L 130.514265 360.083364 
L 131.327528 360.324967 
L 132.140791 360.864736 
L 132.954054 354.339653 
L 133.767316 355.294807 
L 134.580579 357.535994 
L 135.393842 359.007349 
L 136.207105 360.01593 
L 137.020368 360.496934 
L 137.833631 361.755039 
L 138.646894 362.10666 
L 139.460157 363.786237 
L 140.27342 362.932869 
L 141.086682 356.46558 
L 141.899945 357.843691 
L 142.713208 359.453466 
L 143.526471 360.440983 
L 144.339734 360.986402 
L 145.152997 362.539537 
L 145.96626 362.387023 
L 146.779523 364.253146 
L 147.592786 364.774036 
L 148.406048 364.434733 
L 149.219311 357.710261 
L 150.845837 360.601719 
L 151.6591 362.481539 
L 152.472363 363.646827 
L 154.098889 365.100079 
L 154.912152 366.216018 
L 155.725414 366.151099 
L 156.538677 367.742207 
L 157.35194 358.592274 
L 158.165203 360.334179 
L 158.978466 362.688567 
L 162.231518 367.440275 
L 163.04478 366.94576 
L 163.858043 367.105622 
L 164.671306 368.602885 
L 165.484569 360.020211 
L 166.297832 361.285053 
L 167.111095 363.819823 
L 167.924358 364.755253 
L 168.737621 365.270279 
L 169.550884 367.822832 
L 170.364146 368.242799 
L 171.177409 368.335432 
L 171.990672 368.730909 
L 172.803935 369.36 
L 173.617198 360.616386 
L 174.430461 362.449001 
L 175.243724 362.652001 
L 176.056987 363.735956 
L 176.87025 365.437926 
L 177.683512 365.993556 
L 178.496775 366.287829 
L 179.310038 367.101244 
L 180.123301 366.946527 
L 180.936564 366.53912 
L 181.749827 361.689945 
L 182.56309 362.408563 
L 183.376353 362.796992 
L 184.189616 364.302846 
L 186.629404 366.940897 
L 187.442667 366.949283 
L 188.25593 366.752885 
L 189.069193 368.189635 
L 189.882456 362.113688 
L 190.695719 363.637664 
L 191.508982 364.019512 
L 192.322244 364.690343 
L 193.135507 365.21364 
L 193.94877 364.650943 
L 194.762033 366.182685 
L 195.575296 366.784743 
L 196.388559 367.157874 
L 197.201822 367.38153 
L 198.015085 361.999691 
L 199.64161 363.898293 
L 201.268136 365.178957 
L 202.081399 366.93813 
L 202.894662 366.551341 
L 203.707925 367.925492 
L 204.521188 367.708806 
L 205.334451 367.720182 
L 206.147714 363.225123 
L 206.960976 362.630073 
L 207.774239 364.113717 
L 208.587502 364.448021 
L 209.400765 365.561174 
L 210.214028 365.52985 
L 211.027291 366.411242 
L 211.840554 367.546857 
L 213.46708 367.872483 
L 214.280343 363.567988 
L 215.093605 363.381956 
L 216.720131 366.227239 
L 217.533394 366.236266 
L 218.346657 366.637703 
L 219.15992 367.16594 
L 219.973183 366.097769 
L 220.786446 368.892333 
L 221.599709 367.643081 
L 222.412971 363.045954 
L 223.226234 364.3027 
L 224.039497 364.440421 
L 224.85276 364.848953 
L 225.666023 366.053933 
L 226.479286 366.065513 
L 227.292549 367.458456 
L 228.105812 367.140819 
L 228.919075 367.479627 
L 229.732337 367.45801 
L 230.5456 363.240285 
L 231.358863 364.247439 
L 232.172126 365.69343 
L 233.798652 366.266872 
L 234.611915 365.943226 
L 235.425178 366.823172 
L 237.051703 368.073793 
L 237.864966 368.279394 
L 238.678229 364.080636 
L 240.304755 364.306854 
L 241.118018 365.115067 
L 241.931281 366.416455 
L 242.744544 366.611067 
L 243.557807 367.528676 
L 244.371069 367.983655 
L 245.184332 367.382607 
L 245.997595 367.358146 
L 246.810858 363.368289 
L 247.624121 364.60699 
L 248.437384 365.49839 
L 249.250647 365.877074 
L 250.06391 366.519386 
L 250.877173 367.383617 
L 251.690435 367.233685 
L 252.503698 367.545488 
L 253.316961 367.363989 
L 254.130224 367.056651 
L 254.943487 363.860213 
L 255.75675 364.110174 
L 256.570013 365.275482 
L 257.383276 366.002545 
L 258.196539 366.454593 
L 259.009801 367.121046 
L 259.823064 367.059903 
L 260.636327 366.568891 
L 261.44959 367.551312 
L 262.262853 367.66463 
L 263.076116 364.170939 
L 263.889379 364.673618 
L 264.702642 365.891955 
L 265.515905 365.518678 
L 266.329167 367.671104 
L 267.14243 366.941489 
L 267.955693 367.508913 
L 268.768956 367.580258 
L 269.582219 368.287296 
L 270.395482 367.284898 
L 271.208745 364.460203 
L 272.022008 364.095264 
L 272.835271 365.949516 
L 273.648533 365.811213 
L 274.461796 366.682986 
L 275.275059 366.357631 
L 276.088322 367.583587 
L 276.901585 367.525715 
L 277.714848 367.641518 
L 278.528111 367.528249 
L 279.341374 364.009602 
L 280.154637 364.084587 
L 280.967899 364.541925 
L 282.594425 366.902856 
L 283.407688 365.533413 
L 284.220951 367.984442 
L 285.034214 367.359194 
L 285.847477 368.066756 
L 286.66074 367.72623 
L 287.474003 365.66795 
L 288.287265 364.614416 
L 289.100528 365.429336 
L 289.913791 365.563145 
L 290.727054 366.679831 
L 291.540317 367.078821 
L 292.35358 367.865843 
L 293.166843 366.689567 
L 293.980106 366.9663 
L 294.793369 368.38316 
L 295.606631 364.914212 
L 296.419894 365.137315 
L 297.233157 366.662155 
L 298.859683 366.451856 
L 299.672946 367.123133 
L 300.486209 366.707272 
L 301.299472 366.958971 
L 302.112735 367.639227 
L 302.925997 367.975366 
L 303.73926 363.886344 
L 304.552523 364.378646 
L 305.365786 365.674764 
L 306.992312 365.914387 
L 307.805575 367.110009 
L 308.618838 368.069911 
L 309.432101 366.681879 
L 310.245363 367.436072 
L 311.058626 367.979501 
L 311.871889 364.889499 
L 312.685152 364.940605 
L 313.498415 365.813902 
L 314.311678 365.821949 
L 315.124941 367.533432 
L 315.938204 366.968784 
L 316.751467 366.149759 
L 317.564729 367.949177 
L 318.377992 368.228385 
L 319.191255 367.739839 
L 320.004518 364.216911 
L 320.817781 364.656884 
L 321.631044 364.948313 
L 322.444307 366.480268 
L 323.25757 366.845294 
L 324.070833 366.714096 
L 324.884095 367.702011 
L 325.697358 367.803127 
L 326.510621 368.088897 
L 327.323884 367.140945 
L 328.137147 365.630073 
L 328.95041 366.407825 
L 329.763673 365.905942 
L 330.576936 366.457194 
L 331.390199 366.863795 
L 332.203461 366.527598 
L 333.016724 367.17954 
L 333.829987 367.54045 
L 334.64325 367.757525 
L 335.456513 367.404855 
L 336.269776 365.441333 
L 338.709565 365.120532 
L 339.522827 366.360126 
L 340.33609 367.172628 
L 341.149353 367.359165 
L 341.962616 366.770541 
L 342.775879 368.056554 
L 343.589142 367.2557 
L 344.402405 365.257748 
L 345.215668 365.025511 
L 346.028931 365.300759 
L 346.842193 366.958466 
L 347.655456 365.893537 
L 348.468719 366.566406 
L 349.281982 365.63219 
L 350.095245 367.20799 
L 350.908508 367.755991 
L 351.721771 367.503962 
L 352.535034 364.901778 
L 354.161559 365.974851 
L 354.974822 366.230093 
L 355.788085 366.14179 
L 357.414611 366.863999 
L 358.227874 367.122221 
L 359.041137 366.953768 
L 359.8544 367.244343 
L 360.667663 364.764931 
L 362.294188 365.811592 
L 363.920714 365.963281 
L 364.733977 366.856059 
L 365.54724 366.777482 
L 366.360503 366.190392 
L 367.173766 367.170998 
L 367.987029 367.45835 
L 368.800291 364.711426 
L 369.613554 364.847497 
L 370.426817 366.153884 
L 372.866606 365.851341 
L 373.679869 366.465814 
L 374.493132 366.552632 
L 375.306395 366.798982 
L 376.119657 367.492217 
L 376.93292 365.413106 
L 377.746183 364.651147 
L 378.559446 366.602962 
L 379.372709 366.046167 
L 380.185972 365.789848 
L 381.812498 367.264863 
L 382.625761 366.92819 
L 383.439024 366.917076 
L 384.252286 368.137247 
L 385.065549 365.046866 
L 385.878812 364.762038 
L 386.692075 365.781675 
L 387.505338 366.111708 
L 388.318601 367.064737 
L 389.131864 366.239683 
L 389.945127 366.858185 
L 390.75839 367.641838 
L 391.571652 366.574754 
L 392.384915 366.736014 
L 393.198178 364.794071 
L 394.011441 365.356476 
L 394.824704 366.062853 
L 395.637967 366.305525 
L 396.45123 364.016309 
L 397.264493 367.13151 
L 398.077756 367.305486 
L 398.891018 366.978501 
L 399.704281 367.091916 
L 400.517544 366.954214 
L 401.330807 365.621007 
L 402.14407 365.448584 
L 402.957333 366.102797 
L 403.770596 365.708505 
L 405.397122 366.022104 
L 406.210384 367.025375 
L 407.023647 366.235364 
L 407.83691 366.214251 
L 408.650173 366.80766 
L 409.463436 365.248381 
L 410.276699 364.717202 
L 411.089962 365.96628 
L 411.903225 366.899633 
L 412.716488 365.853525 
L 414.343013 366.607903 
L 415.156276 366.754438 
L 415.969539 367.1259 
L 416.782802 366.689577 
L 418.409328 366.018076 
L 419.222591 366.546255 
L 420.035854 365.973065 
L 420.849116 366.340596 
L 421.662379 365.421531 
L 422.475642 366.660835 
L 423.288905 365.997284 
L 424.102168 366.628491 
L 424.915431 366.67689 
L 425.728694 365.815008 
L 426.541957 365.733597 
L 427.35522 366.087344 
L 428.168482 365.954457 
L 428.981745 365.687829 
L 429.795008 367.220328 
L 430.608271 365.953118 
L 431.421534 366.259476 
L 432.234797 366.741673 
L 433.04806 366.182588 
L 433.861323 365.140227 
L 434.674586 365.683325 
L 435.487848 365.373958 
L 437.114374 366.915329 
L 437.927637 366.546692 
L 438.7409 366.51132 
L 439.554163 365.9451 
L 440.367426 366.811902 
L 441.180689 366.920444 
L 441.993952 365.04343 
L 442.807214 365.424356 
L 443.620477 366.155282 
L 444.43374 366.235781 
L 445.247003 366.588363 
L 446.060266 367.267241 
L 446.873529 367.204205 
L 447.686792 367.321794 
L 448.500055 366.590673 
L 449.313318 366.327123 
L 450.12658 365.93349 
L 450.939843 364.456457 
L 451.753106 364.907651 
L 452.566369 365.760718 
L 453.379632 365.851797 
L 454.192895 366.244915 
L 455.006158 366.919454 
L 456.632684 365.393042 
L 457.445946 366.625463 
L 458.259209 366.482879 
L 459.072472 365.348749 
L 459.885735 366.430578 
L 460.698998 366.225424 
L 461.512261 365.716387 
L 462.325524 365.547487 
L 463.138787 367.00305 
L 463.95205 366.741081 
L 464.765312 366.246837 
L 465.578575 367.307728 
L 466.391838 365.101098 
L 467.205101 365.120813 
L 468.018364 365.497099 
L 468.831627 366.141828 
L 470.458153 365.989188 
L 471.271416 366.385218 
L 472.084678 366.444139 
L 472.897941 366.644711 
L 473.711204 367.40435 
L 474.524467 366.129239 
L 475.33773 365.545934 
L 476.150993 365.641236 
L 476.964256 366.007379 
L 478.590782 365.932374 
L 479.404044 366.980734 
L 480.217307 365.557738 
L 481.03057 365.527899 
L 481.843833 367.311834 
L 482.657096 365.118969 
L 483.470359 366.047594 
L 484.283622 364.729704 
L 485.096885 366.001642 
L 485.910148 366.753021 
L 486.72341 366.002875 
L 487.536673 365.472842 
L 488.349936 365.795119 
L 489.976462 367.057835 
L 490.789725 365.917241 
L 491.602988 365.422793 
L 492.416251 366.079957 
L 493.229514 365.091382 
L 494.042776 366.312815 
L 494.856039 366.26032 
L 495.669302 365.567736 
L 496.482565 366.186752 
L 497.295828 366.094284 
L 498.109091 366.170114 
L 498.109091 366.170114 
" clip-path="url(#pb41a444b4e)" style="fill: none; stroke: #ff0000; stroke-width: 1.5; stroke-linecap: square"/>
   </g>
   <g id="patch_8">
    <path d="M 72 384.48 
L 72 51.84 
" style="fill: none; stroke: #000000; stroke-width: 0.8; stroke-linejoin: miter; stroke-linecap: square"/>
   </g>
   <g id="patch_9">
    <path d="M 518.4 384.48 
L 518.4 51.84 
" style="fill: none; stroke: #000000; stroke-width: 0.8; stroke-linejoin: miter; stroke-linecap: square"/>
   </g>
   <g id="patch_10">
    <path d="M 72 384.48 
L 518.4 384.48 
" style="fill: none; stroke: #000000; stroke-width: 0.8; stroke-linejoin: miter; stroke-linecap: square"/>
   </g>
   <g id="patch_11">
    <path d="M 72 51.84 
L 518.4 51.84 
" style="fill: none; stroke: #000000; stroke-width: 0.8; stroke-linejoin: miter; stroke-linecap: square"/>
   </g>
   <g id="text_23">
    <!-- The learning curve on _0.001_8_clients_iid/host/4 -->
    <g transform="translate(143.545312 45.84) scale(0.12 -0.12)">
     <defs>
      <path id="DejaVuSans-54" d="M -19 4666 
L 3928 4666 
L 3928 4134 
L 2272 4134 
L 2272 0 
L 1638 0 
L 1638 4134 
L -19 4134 
L -19 4666 
z
" transform="scale(0.015625)"/>
      <path id="DejaVuSans-20" transform="scale(0.015625)"/>
      <path id="DejaVuSans-67" d="M 2906 1791 
Q 2906 2416 2648 2759 
Q 2391 3103 1925 3103 
Q 1463 3103 1205 2759 
Q 947 2416 947 1791 
Q 947 1169 1205 825 
Q 1463 481 1925 481 
Q 2391 481 2648 825 
Q 2906 1169 2906 1791 
z
M 3481 434 
Q 3481 -459 3084 -895 
Q 2688 -1331 1869 -1331 
Q 1566 -1331 1297 -1286 
Q 1028 -1241 775 -1147 
L 775 -588 
Q 1028 -725 1275 -790 
Q 1522 -856 1778 -856 
Q 2344 -856 2625 -561 
Q 2906 -266 2906 331 
L 2906 616 
Q 2728 306 2450 153 
Q 2172 0 1784 0 
Q 1141 0 747 490 
Q 353 981 353 1791 
Q 353 2603 747 3093 
Q 1141 3584 1784 3584 
Q 2172 3584 2450 3431 
Q 2728 3278 2906 2969 
L 2906 3500 
L 3481 3500 
L 3481 434 
z
" transform="scale(0.015625)"/>
      <path id="DejaVuSans-75" d="M 544 1381 
L 544 3500 
L 1119 3500 
L 1119 1403 
Q 1119 906 1312 657 
Q 1506 409 1894 409 
Q 2359 409 2629 706 
Q 2900 1003 2900 1516 
L 2900 3500 
L 3475 3500 
L 3475 0 
L 2900 0 
L 2900 538 
Q 2691 219 2414 64 
Q 2138 -91 1772 -91 
Q 1169 -91 856 284 
Q 544 659 544 1381 
z
M 1991 3584 
L 1991 3584 
z
" transform="scale(0.015625)"/>
      <path id="DejaVuSans-76" d="M 191 3500 
L 800 3500 
L 1894 563 
L 2988 3500 
L 3597 3500 
L 2284 0 
L 1503 0 
L 191 3500 
z
" transform="scale(0.015625)"/>
      <path id="DejaVuSans-3bb" d="M 1981 4316 
L 3597 0 
L 2988 0 
L 2006 2588 
L 800 0 
L 191 0 
L 1725 3356 
L 1494 3975 
Q 1347 4369 1013 4369 
L 713 4369 
L 713 4863 
L 1078 4856 
Q 1784 4847 1981 4316 
z
" transform="scale(0.015625)"/>
      <path id="DejaVuSans-5f" d="M 3263 -1063 
L 3263 -1509 
L -63 -1509 
L -63 -1063 
L 3263 -1063 
z
" transform="scale(0.015625)"/>
      <path id="DejaVuSans-64" d="M 2906 2969 
L 2906 4863 
L 3481 4863 
L 3481 0 
L 2906 0 
L 2906 525 
Q 2725 213 2448 61 
Q 2172 -91 1784 -91 
Q 1150 -91 751 415 
Q 353 922 353 1747 
Q 353 2572 751 3078 
Q 1150 3584 1784 3584 
Q 2172 3584 2448 3432 
Q 2725 3281 2906 2969 
z
M 947 1747 
Q 947 1113 1208 752 
Q 1469 391 1925 391 
Q 2381 391 2643 752 
Q 2906 1113 2906 1747 
Q 2906 2381 2643 2742 
Q 2381 3103 1925 3103 
Q 1469 3103 1208 2742 
Q 947 2381 947 1747 
z
" transform="scale(0.015625)"/>
      <path id="DejaVuSans-2f" d="M 1625 4666 
L 2156 4666 
L 531 -594 
L 0 -594 
L 1625 4666 
z
" transform="scale(0.015625)"/>
     </defs>
     <use xlink:href="#DejaVuSans-54"/>
     <use xlink:href="#DejaVuSans-68" x="61.083984"/>
     <use xlink:href="#DejaVuSans-65" x="124.462891"/>
     <use xlink:href="#DejaVuSans-20" x="185.986328"/>
     <use xlink:href="#DejaVuSans-6c" x="217.773438"/>
     <use xlink:href="#DejaVuSans-65" x="245.556641"/>
     <use xlink:href="#DejaVuSans-61" x="307.080078"/>
     <use xlink:href="#DejaVuSans-72" x="368.359375"/>
     <use xlink:href="#DejaVuSans-6e" x="407.722656"/>
     <use xlink:href="#DejaVuSans-69" x="471.101562"/>
     <use xlink:href="#DejaVuSans-6e" x="498.884766"/>
     <use xlink:href="#DejaVuSans-67" x="562.263672"/>
     <use xlink:href="#DejaVuSans-20" x="625.740234"/>
     <use xlink:href="#DejaVuSans-63" x="657.527344"/>
     <use xlink:href="#DejaVuSans-75" x="712.507812"/>
     <use xlink:href="#DejaVuSans-72" x="775.886719"/>
     <use xlink:href="#DejaVuSans-76" x="817"/>
     <use xlink:href="#DejaVuSans-65" x="876.179688"/>
     <use xlink:href="#DejaVuSans-20" x="937.703125"/>
     <use xlink:href="#DejaVuSans-6f" x="969.490234"/>
     <use xlink:href="#DejaVuSans-6e" x="1030.671875"/>
     <use xlink:href="#DejaVuSans-20" x="1094.050781"/>
     <use xlink:href="#DejaVuSans-3bb" x="1125.837891"/>
     <use xlink:href="#DejaVuSans-5f" x="1185.017578"/>
     <use xlink:href="#DejaVuSans-30" x="1235.017578"/>
     <use xlink:href="#DejaVuSans-2e" x="1298.640625"/>
     <use xlink:href="#DejaVuSans-30" x="1330.427734"/>
     <use xlink:href="#DejaVuSans-30" x="1394.050781"/>
     <use xlink:href="#DejaVuSans-31" x="1457.673828"/>
     <use xlink:href="#DejaVuSans-5f" x="1521.296875"/>
     <use xlink:href="#DejaVuSans-38" x="1571.296875"/>
     <use xlink:href="#DejaVuSans-5f" x="1634.919922"/>
     <use xlink:href="#DejaVuSans-63" x="1684.919922"/>
     <use xlink:href="#DejaVuSans-6c" x="1739.900391"/>
     <use xlink:href="#DejaVuSans-69" x="1767.683594"/>
     <use xlink:href="#DejaVuSans-65" x="1795.466797"/>
     <use xlink:href="#DejaVuSans-6e" x="1856.990234"/>
     <use xlink:href="#DejaVuSans-74" x="1920.369141"/>
     <use xlink:href="#DejaVuSans-73" x="1959.578125"/>
     <use xlink:href="#DejaVuSans-5f" x="2011.677734"/>
     <use xlink:href="#DejaVuSans-69" x="2061.677734"/>
     <use xlink:href="#DejaVuSans-69" x="2089.460938"/>
     <use xlink:href="#DejaVuSans-64" x="2117.244141"/>
     <use xlink:href="#DejaVuSans-2f" x="2180.720703"/>
     <use xlink:href="#DejaVuSans-68" x="2214.412109"/>
     <use xlink:href="#DejaVuSans-6f" x="2277.791016"/>
     <use xlink:href="#DejaVuSans-73" x="2338.972656"/>
     <use xlink:href="#DejaVuSans-74" x="2391.072266"/>
     <use xlink:href="#DejaVuSans-2f" x="2430.28125"/>
     <use xlink:href="#DejaVuSans-34" x="2463.972656"/>
    </g>
   </g>
   <g id="legend_2">
    <g id="patch_12">
     <path d="M 460.084375 74.518125 
L 511.4 74.518125 
Q 513.4 74.518125 513.4 72.518125 
L 513.4 58.84 
Q 513.4 56.84 511.4 56.84 
L 460.084375 56.84 
Q 458.084375 56.84 458.084375 58.84 
L 458.084375 72.518125 
Q 458.084375 74.518125 460.084375 74.518125 
z
" style="fill: #ffffff; opacity: 0.8; stroke: #cccccc; stroke-linejoin: miter"/>
    </g>
    <g id="line2d_23">
     <path d="M 462.084375 64.938438 
L 472.084375 64.938438 
L 482.084375 64.938438 
" style="fill: none; stroke: #ff0000; stroke-width: 1.5; stroke-linecap: square"/>
    </g>
    <g id="text_24">
     <!-- loss -->
     <g transform="translate(490.084375 68.438438) scale(0.1 -0.1)">
      <use xlink:href="#DejaVuSans-6c"/>
      <use xlink:href="#DejaVuSans-6f" x="27.783203"/>
      <use xlink:href="#DejaVuSans-73" x="88.964844"/>
      <use xlink:href="#DejaVuSans-73" x="141.064453"/>
     </g>
    </g>
   </g>
  </g>
 </g>
 <defs>
  <clipPath id="pb41a444b4e">
   <rect x="72" y="51.84" width="446.4" height="332.64"/>
  </clipPath>
 </defs>
</svg>
