<?xml version="1.0" encoding="utf-8" standalone="no"?>
<!DOCTYPE svg PUBLIC "-//W3C//DTD SVG 1.1//EN"
  "http://www.w3.org/Graphics/SVG/1.1/DTD/svg11.dtd">
<svg xmlns:xlink="http://www.w3.org/1999/xlink" width="576pt" height="432pt" viewBox="0 0 576 432" xmlns="http://www.w3.org/2000/svg" version="1.1">
 <metadata>
  <rdf:RDF xmlns:dc="http://purl.org/dc/elements/1.1/" xmlns:cc="http://creativecommons.org/ns#" xmlns:rdf="http://www.w3.org/1999/02/22-rdf-syntax-ns#">
   <cc:Work>
    <dc:type rdf:resource="http://purl.org/dc/dcmitype/StillImage"/>
    <dc:date>2023-04-11T13:24:21.597557</dc:date>
    <dc:format>image/svg+xml</dc:format>
    <dc:creator>
     <cc:Agent>
      <dc:title>Matplotlib v3.7.1, https://matplotlib.org/</dc:title>
     </cc:Agent>
    </dc:creator>
   </cc:Work>
  </rdf:RDF>
 </metadata>
 <defs>
  <style type="text/css">*{stroke-linejoin: round; stroke-linecap: butt}</style>
 </defs>
 <g id="figure_1">
  <g id="patch_1">
   <path d="M 0 432 
L 576 432 
L 576 0 
L 0 0 
z
" style="fill: #ffffff"/>
  </g>
  <g id="axes_1">
   <g id="patch_2">
    <path d="M 72 384.48 
L 518.4 384.48 
L 518.4 51.84 
L 72 51.84 
z
" style="fill: #ffffff"/>
   </g>
   <g id="matplotlib.axis_1">
    <g id="xtick_1">
     <g id="line2d_1">
      <defs>
       <path id="m53d1beb73c" d="M 0 0 
L 0 3.5 
" style="stroke: #000000; stroke-width: 0.8"/>
      </defs>
      <g>
       <use xlink:href="#m53d1beb73c" x="92.290909" y="384.48" style="stroke: #000000; stroke-width: 0.8"/>
      </g>
     </g>
     <g id="text_1">
      <!-- 0 -->
      <g transform="translate(89.109659 399.078438) scale(0.1 -0.1)">
       <defs>
        <path id="DejaVuSans-30" d="M 2034 4250 
Q 1547 4250 1301 3770 
Q 1056 3291 1056 2328 
Q 1056 1369 1301 889 
Q 1547 409 2034 409 
Q 2525 409 2770 889 
Q 3016 1369 3016 2328 
Q 3016 3291 2770 3770 
Q 2525 4250 2034 4250 
z
M 2034 4750 
Q 2819 4750 3233 4129 
Q 3647 3509 3647 2328 
Q 3647 1150 3233 529 
Q 2819 -91 2034 -91 
Q 1250 -91 836 529 
Q 422 1150 422 2328 
Q 422 3509 836 4129 
Q 1250 4750 2034 4750 
z
" transform="scale(0.015625)"/>
       </defs>
       <use xlink:href="#DejaVuSans-30"/>
      </g>
     </g>
    </g>
    <g id="xtick_2">
     <g id="line2d_2">
      <g>
       <use xlink:href="#m53d1beb73c" x="173.617198" y="384.48" style="stroke: #000000; stroke-width: 0.8"/>
      </g>
     </g>
     <g id="text_2">
      <!-- 100 -->
      <g transform="translate(164.073448 399.078438) scale(0.1 -0.1)">
       <defs>
        <path id="DejaVuSans-31" d="M 794 531 
L 1825 531 
L 1825 4091 
L 703 3866 
L 703 4441 
L 1819 4666 
L 2450 4666 
L 2450 531 
L 3481 531 
L 3481 0 
L 794 0 
L 794 531 
z
" transform="scale(0.015625)"/>
       </defs>
       <use xlink:href="#DejaVuSans-31"/>
       <use xlink:href="#DejaVuSans-30" x="63.623047"/>
       <use xlink:href="#DejaVuSans-30" x="127.246094"/>
      </g>
     </g>
    </g>
    <g id="xtick_3">
     <g id="line2d_3">
      <g>
       <use xlink:href="#m53d1beb73c" x="254.943487" y="384.48" style="stroke: #000000; stroke-width: 0.8"/>
      </g>
     </g>
     <g id="text_3">
      <!-- 200 -->
      <g transform="translate(245.399737 399.078438) scale(0.1 -0.1)">
       <defs>
        <path id="DejaVuSans-32" d="M 1228 531 
L 3431 531 
L 3431 0 
L 469 0 
L 469 531 
Q 828 903 1448 1529 
Q 2069 2156 2228 2338 
Q 2531 2678 2651 2914 
Q 2772 3150 2772 3378 
Q 2772 3750 2511 3984 
Q 2250 4219 1831 4219 
Q 1534 4219 1204 4116 
Q 875 4013 500 3803 
L 500 4441 
Q 881 4594 1212 4672 
Q 1544 4750 1819 4750 
Q 2544 4750 2975 4387 
Q 3406 4025 3406 3419 
Q 3406 3131 3298 2873 
Q 3191 2616 2906 2266 
Q 2828 2175 2409 1742 
Q 1991 1309 1228 531 
z
" transform="scale(0.015625)"/>
       </defs>
       <use xlink:href="#DejaVuSans-32"/>
       <use xlink:href="#DejaVuSans-30" x="63.623047"/>
       <use xlink:href="#DejaVuSans-30" x="127.246094"/>
      </g>
     </g>
    </g>
    <g id="xtick_4">
     <g id="line2d_4">
      <g>
       <use xlink:href="#m53d1beb73c" x="336.269776" y="384.48" style="stroke: #000000; stroke-width: 0.8"/>
      </g>
     </g>
     <g id="text_4">
      <!-- 300 -->
      <g transform="translate(326.726026 399.078438) scale(0.1 -0.1)">
       <defs>
        <path id="DejaVuSans-33" d="M 2597 2516 
Q 3050 2419 3304 2112 
Q 3559 1806 3559 1356 
Q 3559 666 3084 287 
Q 2609 -91 1734 -91 
Q 1441 -91 1130 -33 
Q 819 25 488 141 
L 488 750 
Q 750 597 1062 519 
Q 1375 441 1716 441 
Q 2309 441 2620 675 
Q 2931 909 2931 1356 
Q 2931 1769 2642 2001 
Q 2353 2234 1838 2234 
L 1294 2234 
L 1294 2753 
L 1863 2753 
Q 2328 2753 2575 2939 
Q 2822 3125 2822 3475 
Q 2822 3834 2567 4026 
Q 2313 4219 1838 4219 
Q 1578 4219 1281 4162 
Q 984 4106 628 3988 
L 628 4550 
Q 988 4650 1302 4700 
Q 1616 4750 1894 4750 
Q 2613 4750 3031 4423 
Q 3450 4097 3450 3541 
Q 3450 3153 3228 2886 
Q 3006 2619 2597 2516 
z
" transform="scale(0.015625)"/>
       </defs>
       <use xlink:href="#DejaVuSans-33"/>
       <use xlink:href="#DejaVuSans-30" x="63.623047"/>
       <use xlink:href="#DejaVuSans-30" x="127.246094"/>
      </g>
     </g>
    </g>
    <g id="xtick_5">
     <g id="line2d_5">
      <g>
       <use xlink:href="#m53d1beb73c" x="417.596065" y="384.48" style="stroke: #000000; stroke-width: 0.8"/>
      </g>
     </g>
     <g id="text_5">
      <!-- 400 -->
      <g transform="translate(408.052315 399.078438) scale(0.1 -0.1)">
       <defs>
        <path id="DejaVuSans-34" d="M 2419 4116 
L 825 1625 
L 2419 1625 
L 2419 4116 
z
M 2253 4666 
L 3047 4666 
L 3047 1625 
L 3713 1625 
L 3713 1100 
L 3047 1100 
L 3047 0 
L 2419 0 
L 2419 1100 
L 313 1100 
L 313 1709 
L 2253 4666 
z
" transform="scale(0.015625)"/>
       </defs>
       <use xlink:href="#DejaVuSans-34"/>
       <use xlink:href="#DejaVuSans-30" x="63.623047"/>
       <use xlink:href="#DejaVuSans-30" x="127.246094"/>
      </g>
     </g>
    </g>
    <g id="xtick_6">
     <g id="line2d_6">
      <g>
       <use xlink:href="#m53d1beb73c" x="498.922354" y="384.48" style="stroke: #000000; stroke-width: 0.8"/>
      </g>
     </g>
     <g id="text_6">
      <!-- 500 -->
      <g transform="translate(489.378604 399.078438) scale(0.1 -0.1)">
       <defs>
        <path id="DejaVuSans-35" d="M 691 4666 
L 3169 4666 
L 3169 4134 
L 1269 4134 
L 1269 2991 
Q 1406 3038 1543 3061 
Q 1681 3084 1819 3084 
Q 2600 3084 3056 2656 
Q 3513 2228 3513 1497 
Q 3513 744 3044 326 
Q 2575 -91 1722 -91 
Q 1428 -91 1123 -41 
Q 819 9 494 109 
L 494 744 
Q 775 591 1075 516 
Q 1375 441 1709 441 
Q 2250 441 2565 725 
Q 2881 1009 2881 1497 
Q 2881 1984 2565 2268 
Q 2250 2553 1709 2553 
Q 1456 2553 1204 2497 
Q 953 2441 691 2322 
L 691 4666 
z
" transform="scale(0.015625)"/>
       </defs>
       <use xlink:href="#DejaVuSans-35"/>
       <use xlink:href="#DejaVuSans-30" x="63.623047"/>
       <use xlink:href="#DejaVuSans-30" x="127.246094"/>
      </g>
     </g>
    </g>
    <g id="text_7">
     <!-- epoch -->
     <g transform="translate(279.971875 412.756563) scale(0.1 -0.1)">
      <defs>
       <path id="DejaVuSans-65" d="M 3597 1894 
L 3597 1613 
L 953 1613 
Q 991 1019 1311 708 
Q 1631 397 2203 397 
Q 2534 397 2845 478 
Q 3156 559 3463 722 
L 3463 178 
Q 3153 47 2828 -22 
Q 2503 -91 2169 -91 
Q 1331 -91 842 396 
Q 353 884 353 1716 
Q 353 2575 817 3079 
Q 1281 3584 2069 3584 
Q 2775 3584 3186 3129 
Q 3597 2675 3597 1894 
z
M 3022 2063 
Q 3016 2534 2758 2815 
Q 2500 3097 2075 3097 
Q 1594 3097 1305 2825 
Q 1016 2553 972 2059 
L 3022 2063 
z
" transform="scale(0.015625)"/>
       <path id="DejaVuSans-70" d="M 1159 525 
L 1159 -1331 
L 581 -1331 
L 581 3500 
L 1159 3500 
L 1159 2969 
Q 1341 3281 1617 3432 
Q 1894 3584 2278 3584 
Q 2916 3584 3314 3078 
Q 3713 2572 3713 1747 
Q 3713 922 3314 415 
Q 2916 -91 2278 -91 
Q 1894 -91 1617 61 
Q 1341 213 1159 525 
z
M 3116 1747 
Q 3116 2381 2855 2742 
Q 2594 3103 2138 3103 
Q 1681 3103 1420 2742 
Q 1159 2381 1159 1747 
Q 1159 1113 1420 752 
Q 1681 391 2138 391 
Q 2594 391 2855 752 
Q 3116 1113 3116 1747 
z
" transform="scale(0.015625)"/>
       <path id="DejaVuSans-6f" d="M 1959 3097 
Q 1497 3097 1228 2736 
Q 959 2375 959 1747 
Q 959 1119 1226 758 
Q 1494 397 1959 397 
Q 2419 397 2687 759 
Q 2956 1122 2956 1747 
Q 2956 2369 2687 2733 
Q 2419 3097 1959 3097 
z
M 1959 3584 
Q 2709 3584 3137 3096 
Q 3566 2609 3566 1747 
Q 3566 888 3137 398 
Q 2709 -91 1959 -91 
Q 1206 -91 779 398 
Q 353 888 353 1747 
Q 353 2609 779 3096 
Q 1206 3584 1959 3584 
z
" transform="scale(0.015625)"/>
       <path id="DejaVuSans-63" d="M 3122 3366 
L 3122 2828 
Q 2878 2963 2633 3030 
Q 2388 3097 2138 3097 
Q 1578 3097 1268 2742 
Q 959 2388 959 1747 
Q 959 1106 1268 751 
Q 1578 397 2138 397 
Q 2388 397 2633 464 
Q 2878 531 3122 666 
L 3122 134 
Q 2881 22 2623 -34 
Q 2366 -91 2075 -91 
Q 1284 -91 818 406 
Q 353 903 353 1747 
Q 353 2603 823 3093 
Q 1294 3584 2113 3584 
Q 2378 3584 2631 3529 
Q 2884 3475 3122 3366 
z
" transform="scale(0.015625)"/>
       <path id="DejaVuSans-68" d="M 3513 2113 
L 3513 0 
L 2938 0 
L 2938 2094 
Q 2938 2591 2744 2837 
Q 2550 3084 2163 3084 
Q 1697 3084 1428 2787 
Q 1159 2491 1159 1978 
L 1159 0 
L 581 0 
L 581 4863 
L 1159 4863 
L 1159 2956 
Q 1366 3272 1645 3428 
Q 1925 3584 2291 3584 
Q 2894 3584 3203 3211 
Q 3513 2838 3513 2113 
z
" transform="scale(0.015625)"/>
      </defs>
      <use xlink:href="#DejaVuSans-65"/>
      <use xlink:href="#DejaVuSans-70" x="61.523438"/>
      <use xlink:href="#DejaVuSans-6f" x="125"/>
      <use xlink:href="#DejaVuSans-63" x="186.181641"/>
      <use xlink:href="#DejaVuSans-68" x="241.162109"/>
     </g>
    </g>
   </g>
   <g id="matplotlib.axis_2">
    <g id="ytick_1">
     <g id="line2d_7">
      <defs>
       <path id="ma466493bef" d="M 0 0 
L -3.5 0 
" style="stroke: #000000; stroke-width: 0.8"/>
      </defs>
      <g>
       <use xlink:href="#ma466493bef" x="72" y="384.48" style="stroke: #000000; stroke-width: 0.8"/>
      </g>
     </g>
     <g id="text_8">
      <!-- 0.0 -->
      <g transform="translate(49.096875 388.279219) scale(0.1 -0.1)">
       <defs>
        <path id="DejaVuSans-2e" d="M 684 794 
L 1344 794 
L 1344 0 
L 684 0 
L 684 794 
z
" transform="scale(0.015625)"/>
       </defs>
       <use xlink:href="#DejaVuSans-30"/>
       <use xlink:href="#DejaVuSans-2e" x="63.623047"/>
       <use xlink:href="#DejaVuSans-30" x="95.410156"/>
      </g>
     </g>
    </g>
    <g id="ytick_2">
     <g id="line2d_8">
      <g>
       <use xlink:href="#ma466493bef" x="72" y="317.952" style="stroke: #000000; stroke-width: 0.8"/>
      </g>
     </g>
     <g id="text_9">
      <!-- 0.2 -->
      <g transform="translate(49.096875 321.751219) scale(0.1 -0.1)">
       <use xlink:href="#DejaVuSans-30"/>
       <use xlink:href="#DejaVuSans-2e" x="63.623047"/>
       <use xlink:href="#DejaVuSans-32" x="95.410156"/>
      </g>
     </g>
    </g>
    <g id="ytick_3">
     <g id="line2d_9">
      <g>
       <use xlink:href="#ma466493bef" x="72" y="251.424" style="stroke: #000000; stroke-width: 0.8"/>
      </g>
     </g>
     <g id="text_10">
      <!-- 0.4 -->
      <g transform="translate(49.096875 255.223219) scale(0.1 -0.1)">
       <use xlink:href="#DejaVuSans-30"/>
       <use xlink:href="#DejaVuSans-2e" x="63.623047"/>
       <use xlink:href="#DejaVuSans-34" x="95.410156"/>
      </g>
     </g>
    </g>
    <g id="ytick_4">
     <g id="line2d_10">
      <g>
       <use xlink:href="#ma466493bef" x="72" y="184.896" style="stroke: #000000; stroke-width: 0.8"/>
      </g>
     </g>
     <g id="text_11">
      <!-- 0.6 -->
      <g transform="translate(49.096875 188.695219) scale(0.1 -0.1)">
       <defs>
        <path id="DejaVuSans-36" d="M 2113 2584 
Q 1688 2584 1439 2293 
Q 1191 2003 1191 1497 
Q 1191 994 1439 701 
Q 1688 409 2113 409 
Q 2538 409 2786 701 
Q 3034 994 3034 1497 
Q 3034 2003 2786 2293 
Q 2538 2584 2113 2584 
z
M 3366 4563 
L 3366 3988 
Q 3128 4100 2886 4159 
Q 2644 4219 2406 4219 
Q 1781 4219 1451 3797 
Q 1122 3375 1075 2522 
Q 1259 2794 1537 2939 
Q 1816 3084 2150 3084 
Q 2853 3084 3261 2657 
Q 3669 2231 3669 1497 
Q 3669 778 3244 343 
Q 2819 -91 2113 -91 
Q 1303 -91 875 529 
Q 447 1150 447 2328 
Q 447 3434 972 4092 
Q 1497 4750 2381 4750 
Q 2619 4750 2861 4703 
Q 3103 4656 3366 4563 
z
" transform="scale(0.015625)"/>
       </defs>
       <use xlink:href="#DejaVuSans-30"/>
       <use xlink:href="#DejaVuSans-2e" x="63.623047"/>
       <use xlink:href="#DejaVuSans-36" x="95.410156"/>
      </g>
     </g>
    </g>
    <g id="ytick_5">
     <g id="line2d_11">
      <g>
       <use xlink:href="#ma466493bef" x="72" y="118.368" style="stroke: #000000; stroke-width: 0.8"/>
      </g>
     </g>
     <g id="text_12">
      <!-- 0.8 -->
      <g transform="translate(49.096875 122.167219) scale(0.1 -0.1)">
       <defs>
        <path id="DejaVuSans-38" d="M 2034 2216 
Q 1584 2216 1326 1975 
Q 1069 1734 1069 1313 
Q 1069 891 1326 650 
Q 1584 409 2034 409 
Q 2484 409 2743 651 
Q 3003 894 3003 1313 
Q 3003 1734 2745 1975 
Q 2488 2216 2034 2216 
z
M 1403 2484 
Q 997 2584 770 2862 
Q 544 3141 544 3541 
Q 544 4100 942 4425 
Q 1341 4750 2034 4750 
Q 2731 4750 3128 4425 
Q 3525 4100 3525 3541 
Q 3525 3141 3298 2862 
Q 3072 2584 2669 2484 
Q 3125 2378 3379 2068 
Q 3634 1759 3634 1313 
Q 3634 634 3220 271 
Q 2806 -91 2034 -91 
Q 1263 -91 848 271 
Q 434 634 434 1313 
Q 434 1759 690 2068 
Q 947 2378 1403 2484 
z
M 1172 3481 
Q 1172 3119 1398 2916 
Q 1625 2713 2034 2713 
Q 2441 2713 2670 2916 
Q 2900 3119 2900 3481 
Q 2900 3844 2670 4047 
Q 2441 4250 2034 4250 
Q 1625 4250 1398 4047 
Q 1172 3844 1172 3481 
z
" transform="scale(0.015625)"/>
       </defs>
       <use xlink:href="#DejaVuSans-30"/>
       <use xlink:href="#DejaVuSans-2e" x="63.623047"/>
       <use xlink:href="#DejaVuSans-38" x="95.410156"/>
      </g>
     </g>
    </g>
    <g id="ytick_6">
     <g id="line2d_12">
      <g>
       <use xlink:href="#ma466493bef" x="72" y="51.84" style="stroke: #000000; stroke-width: 0.8"/>
      </g>
     </g>
     <g id="text_13">
      <!-- 1.0 -->
      <g transform="translate(49.096875 55.639219) scale(0.1 -0.1)">
       <use xlink:href="#DejaVuSans-31"/>
       <use xlink:href="#DejaVuSans-2e" x="63.623047"/>
       <use xlink:href="#DejaVuSans-30" x="95.410156"/>
      </g>
     </g>
    </g>
    <g id="text_14">
     <!-- rate -->
     <g transform="translate(43.017187 228.31625) rotate(-90) scale(0.1 -0.1)">
      <defs>
       <path id="DejaVuSans-72" d="M 2631 2963 
Q 2534 3019 2420 3045 
Q 2306 3072 2169 3072 
Q 1681 3072 1420 2755 
Q 1159 2438 1159 1844 
L 1159 0 
L 581 0 
L 581 3500 
L 1159 3500 
L 1159 2956 
Q 1341 3275 1631 3429 
Q 1922 3584 2338 3584 
Q 2397 3584 2469 3576 
Q 2541 3569 2628 3553 
L 2631 2963 
z
" transform="scale(0.015625)"/>
       <path id="DejaVuSans-61" d="M 2194 1759 
Q 1497 1759 1228 1600 
Q 959 1441 959 1056 
Q 959 750 1161 570 
Q 1363 391 1709 391 
Q 2188 391 2477 730 
Q 2766 1069 2766 1631 
L 2766 1759 
L 2194 1759 
z
M 3341 1997 
L 3341 0 
L 2766 0 
L 2766 531 
Q 2569 213 2275 61 
Q 1981 -91 1556 -91 
Q 1019 -91 701 211 
Q 384 513 384 1019 
Q 384 1609 779 1909 
Q 1175 2209 1959 2209 
L 2766 2209 
L 2766 2266 
Q 2766 2663 2505 2880 
Q 2244 3097 1772 3097 
Q 1472 3097 1187 3025 
Q 903 2953 641 2809 
L 641 3341 
Q 956 3463 1253 3523 
Q 1550 3584 1831 3584 
Q 2591 3584 2966 3190 
Q 3341 2797 3341 1997 
z
" transform="scale(0.015625)"/>
       <path id="DejaVuSans-74" d="M 1172 4494 
L 1172 3500 
L 2356 3500 
L 2356 3053 
L 1172 3053 
L 1172 1153 
Q 1172 725 1289 603 
Q 1406 481 1766 481 
L 2356 481 
L 2356 0 
L 1766 0 
Q 1100 0 847 248 
Q 594 497 594 1153 
L 594 3053 
L 172 3053 
L 172 3500 
L 594 3500 
L 594 4494 
L 1172 4494 
z
" transform="scale(0.015625)"/>
      </defs>
      <use xlink:href="#DejaVuSans-72"/>
      <use xlink:href="#DejaVuSans-61" x="41.113281"/>
      <use xlink:href="#DejaVuSans-74" x="102.392578"/>
      <use xlink:href="#DejaVuSans-65" x="141.601562"/>
     </g>
    </g>
   </g>
   <g id="line2d_13">
    <path d="M 92.290909 375.353753 
L 93.104172 373.98153 
L 93.917435 370.156812 
L 94.730698 320.416001 
L 95.543961 189.011142 
L 96.357224 164.937591 
L 97.170486 178.119994 
L 98.797012 166.865042 
L 99.610275 174.226409 
L 100.423538 191.334199 
L 101.236801 179.550008 
L 102.050064 172.467685 
L 102.863327 147.530951 
L 103.67659 133.794783 
L 104.489852 129.456005 
L 105.303115 123.485534 
L 106.116378 121.346867 
L 106.929641 132.624005 
L 107.742904 129.600008 
L 108.556167 148.860007 
L 109.36943 141.396928 
L 110.182693 150.400001 
L 110.995956 145.2782 
L 111.809218 161.611194 
L 112.622481 135 
L 113.435744 142.231303 
L 114.249007 131.384349 
L 115.06227 146.340009 
L 115.875533 123.120006 
L 116.688796 155.228106 
L 117.502059 149.926158 
L 118.315322 139.620002 
L 119.941847 109.497604 
L 120.75511 117.546667 
L 121.568373 143.846817 
L 122.381636 137.682578 
L 123.194899 162.719993 
L 124.008162 143.711995 
L 124.821425 150.839999 
L 125.634688 146.879994 
L 126.44795 139.779311 
L 127.261213 125.759996 
L 128.074476 128.30896 
L 128.887739 130.108231 
L 129.701002 119.879995 
L 130.514265 122.064006 
L 131.327528 127.154718 
L 132.140791 123.342047 
L 132.954054 144.017348 
L 133.767316 126.24631 
L 134.580579 125.759996 
L 135.393842 131.039995 
L 136.207105 119.879995 
L 137.020368 119.115509 
L 137.833631 115.680005 
L 138.646894 120.537395 
L 139.460157 124.016597 
L 140.27342 119.659797 
L 141.086682 154.800004 
L 143.526471 122.853037 
L 144.339734 130.529037 
L 145.152997 104.165401 
L 145.96626 122.399992 
L 146.779523 112.937134 
L 147.592786 105.599995 
L 148.406048 117.794483 
L 149.219311 140.801863 
L 150.032574 130.328091 
L 150.845837 116.838629 
L 151.6591 110.975996 
L 152.472363 113.567014 
L 153.285626 97.843399 
L 154.098889 116.430294 
L 154.912152 108.270003 
L 155.725414 113.336467 
L 156.538677 106.371142 
L 157.35194 133.066046 
L 158.165203 135.955854 
L 158.978466 115.537014 
L 159.791729 107.280007 
L 160.604992 118.367996 
L 161.418255 101.735992 
L 162.231518 107.280007 
L 163.04478 88.799998 
L 163.858043 118.927055 
L 164.671306 98.963995 
L 165.484569 137.935054 
L 166.297832 116.099998 
L 167.111095 117.675007 
L 167.924358 112.031996 
L 168.737621 101.012866 
L 169.550884 94.959994 
L 170.364146 94.853801 
L 171.177409 104.508009 
L 171.990672 86.854742 
L 172.803935 89.396133 
L 173.617198 124.153046 
L 174.430461 111.36506 
L 175.243724 118.367996 
L 176.056987 112.937134 
L 176.87025 111.715202 
L 177.683512 108.959998 
L 178.496775 95.773591 
L 179.310038 92.690529 
L 180.123301 108.270003 
L 180.936564 89.442786 
L 181.749827 115.377982 
L 182.56309 128.872421 
L 183.376353 118.367996 
L 184.189616 104.165401 
L 185.002878 114.415843 
L 185.816141 90.974115 
L 186.629404 102.049812 
L 187.442667 97.053198 
L 188.25593 97.496468 
L 189.069193 100.588967 
L 189.882456 147.350486 
L 190.695719 136.697142 
L 191.508982 120.324712 
L 192.322244 100.349993 
L 193.135507 99.816928 
L 193.94877 99.816928 
L 194.762033 96.791344 
L 195.575296 82.848818 
L 196.388559 101.44422 
L 197.201822 94.853801 
L 198.015085 125.02081 
L 198.828348 120.537395 
L 199.64161 128.347206 
L 200.454873 95.520005 
L 201.268136 100.667898 
L 202.081399 98.471772 
L 202.894662 98.911691 
L 203.707925 106.771368 
L 204.521188 96.366613 
L 205.334451 99.359997 
L 206.147714 125.759996 
L 206.960976 117.124493 
L 207.774239 111.36506 
L 208.587502 102.049812 
L 209.400765 103.015382 
L 210.214028 87.712949 
L 211.027291 82.079991 
L 211.840554 89.497349 
L 212.653817 88.178821 
L 213.46708 106.771368 
L 214.280343 140.091426 
L 215.093605 126.952266 
L 215.906868 105.599995 
L 216.720131 97.948521 
L 217.533394 92.690529 
L 218.346657 101.11999 
L 219.15992 89.855998 
L 219.973183 99.359997 
L 220.786446 91.643075 
L 221.599709 80.626145 
L 222.412971 105.990704 
L 223.226234 110.32615 
L 224.039497 112.610763 
L 224.85276 109.971269 
L 225.666023 93.023998 
L 226.479286 111.239992 
L 227.292549 99.359997 
L 228.105812 83.113844 
L 228.919075 103.015382 
L 229.732337 100.667898 
L 230.5456 116.331437 
L 231.358863 96.885007 
L 232.172126 127.154718 
L 232.985389 110.744993 
L 233.798652 103.015382 
L 234.611915 96.390008 
L 235.425178 87.480003 
L 236.238441 90.449992 
L 237.051703 80.270768 
L 237.864966 83.773445 
L 238.678229 122.399992 
L 239.491492 114.866528 
L 240.304755 114.602255 
L 241.118018 106.771368 
L 241.931281 88.799998 
L 242.744544 95.773591 
L 243.557807 90.108315 
L 244.371069 90.011797 
L 245.184332 90.108315 
L 245.997595 91.643075 
L 246.810858 110.137735 
L 247.624121 117.063526 
L 248.437384 94.235302 
L 249.250647 102.527997 
L 250.06391 87.801079 
L 250.877173 101.580569 
L 251.690435 97.199996 
L 252.503698 89.497349 
L 253.316961 92.405855 
L 254.130224 94.175999 
L 254.943487 127.154718 
L 255.75675 103.015382 
L 256.570013 100.757654 
L 257.383276 107.770623 
L 258.196539 90.974115 
L 259.009801 101.44422 
L 259.823064 86.854742 
L 260.636327 83.113844 
L 261.44959 86.251033 
L 262.262853 98.526316 
L 263.076116 119.798704 
L 263.889379 113.567014 
L 264.702642 111.464154 
L 265.515905 90.594173 
L 266.329167 103.512224 
L 267.14243 88.128005 
L 267.955693 87.876005 
L 268.768956 93.42 
L 269.582219 93.42 
L 270.395482 88.799998 
L 271.208745 127.284128 
L 272.022008 105.187933 
L 272.835271 98.040002 
L 273.648533 110.19789 
L 274.461796 103.247991 
L 275.275059 87.480003 
L 276.088322 101.012866 
L 276.901585 80.270768 
L 277.714848 95.110242 
L 278.528111 93.023998 
L 279.341374 126.51429 
L 280.967899 102.049812 
L 281.781162 105.187933 
L 282.594425 98.040002 
L 283.407688 86.550261 
L 284.220951 91.512653 
L 285.034214 89.396133 
L 285.847477 88.486773 
L 286.66074 94.417927 
L 287.474003 102.049812 
L 288.287265 99.816928 
L 289.100528 98.911691 
L 289.913791 95.608413 
L 290.727054 102.330006 
L 291.540317 85.782861 
L 292.35358 97.721384 
L 293.166843 83.519998 
L 293.980106 86.550261 
L 294.793369 88.508979 
L 295.606631 129.755669 
L 296.419894 123.342047 
L 297.233157 105.695997 
L 298.04642 102.527997 
L 298.859683 77.183998 
L 299.672946 105.299994 
L 300.486209 79.055994 
L 301.299472 84.509994 
L 302.112735 98.471772 
L 302.925997 87.876005 
L 303.73926 112.031996 
L 304.552523 109.296005 
L 305.365786 93.42 
L 306.179049 105.695997 
L 306.992312 113.658059 
L 307.805575 91.512653 
L 308.618838 89.396133 
L 309.432101 94.124747 
L 310.245363 84.220879 
L 311.058626 85.383527 
L 311.871889 116.996293 
L 312.685152 118.367996 
L 313.498415 112.610763 
L 314.311678 97.616143 
L 315.124941 94.959994 
L 315.938204 90.449992 
L 316.751467 90.108315 
L 317.564729 78.810815 
L 318.377992 96.191997 
L 319.191255 79.819071 
L 320.004518 108.959998 
L 320.817781 106.708457 
L 321.631044 92.991343 
L 322.444307 94.564408 
L 323.25757 97.616143 
L 324.070833 92.63547 
L 324.884095 83.936839 
L 325.697358 80.905625 
L 326.510621 87.480003 
L 327.323884 87.285243 
L 328.137147 103.719633 
L 328.95041 108.459568 
L 329.763673 114.771894 
L 330.576936 102.527997 
L 331.390199 100.588967 
L 332.203461 93.42 
L 333.016724 88.460918 
L 333.829987 88.486773 
L 334.64325 95.608413 
L 335.456513 90.449992 
L 336.269776 118.978347 
L 337.083039 92.160001 
L 337.896302 108.778384 
L 338.709565 89.954993 
L 339.522827 88.799998 
L 340.33609 94.564408 
L 341.149353 91.30576 
L 341.962616 98.939469 
L 342.775879 88.799998 
L 343.589142 87.578186 
L 344.402405 117.709307 
L 346.028931 95.362995 
L 346.842193 97.053198 
L 347.655456 101.012866 
L 348.468719 90.797834 
L 349.281982 92.254199 
L 350.095245 88.460918 
L 350.908508 76.581816 
L 351.721771 90.011797 
L 352.535034 115.809237 
L 353.348297 110.714341 
L 354.161559 96.791344 
L 354.974822 93.42 
L 355.788085 97.199996 
L 356.601348 107.280007 
L 357.414611 81.80757 
L 358.227874 81.277161 
L 359.041137 85.72001 
L 359.8544 77.210844 
L 360.667663 131.039995 
L 361.480925 105.781629 
L 362.294188 105.299994 
L 363.107451 103.247991 
L 363.920714 79.055994 
L 364.733977 87.876005 
L 365.54724 93.023998 
L 366.360503 108.701535 
L 367.173766 90.449992 
L 367.987029 80.626145 
L 368.800291 112.610763 
L 369.613554 109.412309 
L 370.426817 117.124493 
L 371.24008 104.01882 
L 372.053343 96.618454 
L 372.866606 93.794589 
L 373.679869 103.247991 
L 374.493132 117.768649 
L 375.306395 80.76521 
L 376.119657 75.389744 
L 376.93292 118.367996 
L 377.746183 115.343999 
L 378.559446 107.280007 
L 379.372709 85.439994 
L 380.185972 112.320002 
L 380.999235 97.616143 
L 381.812498 93.052033 
L 382.625761 98.471772 
L 383.439024 105.990704 
L 384.252286 85.409183 
L 385.065549 117.768649 
L 385.878812 105.695997 
L 386.692075 113.658059 
L 387.505338 115.595999 
L 388.318601 94.235302 
L 389.131864 93.823695 
L 389.945127 105.187933 
L 390.75839 99.788099 
L 391.571652 90.797834 
L 392.384915 91.986199 
L 393.198178 117.768649 
L 394.011441 104.826905 
L 394.824704 115.809237 
L 395.637967 98.471772 
L 396.45123 115.926612 
L 397.264493 104.826905 
L 398.077756 85.72001 
L 398.891018 89.855998 
L 399.704281 96.390008 
L 400.517544 83.221128 
L 401.330807 99.8499 
L 402.14407 123.762159 
L 402.957333 100.223994 
L 403.770596 123.120006 
L 404.583859 99.762721 
L 405.397122 96.191997 
L 406.210384 82.848818 
L 407.023647 98.939469 
L 407.83691 106.797916 
L 408.650173 76.710275 
L 409.463436 105.062409 
L 410.276699 106.771368 
L 411.089962 106.771368 
L 411.903225 116.601777 
L 412.716488 90.108315 
L 413.52975 110.19789 
L 414.343013 92.690529 
L 415.156276 86.359248 
L 415.969539 93.42 
L 416.782802 88.178821 
L 417.596065 109.412309 
L 418.409328 98.880008 
L 419.222591 98.120341 
L 420.849116 108.219662 
L 421.662379 93.794589 
L 422.475642 106.741746 
L 423.288905 96.791344 
L 424.102168 80.083027 
L 424.915431 93.42 
L 425.728694 117.063526 
L 426.541957 114.015696 
L 427.35522 123.762159 
L 428.168482 95.362995 
L 429.795008 87.285243 
L 430.608271 94.959994 
L 431.421534 100.172305 
L 432.234797 81.018955 
L 433.04806 88.799998 
L 433.861323 128.376629 
L 434.674586 113.857637 
L 436.301111 93.42 
L 437.114374 116.601777 
L 437.927637 120.23327 
L 438.7409 111.147915 
L 439.554163 77.183998 
L 440.367426 83.936839 
L 441.180689 89.396133 
L 441.993952 108.959998 
L 442.807214 105.299994 
L 443.620477 111.122378 
L 444.43374 109.971269 
L 445.247003 103.45655 
L 446.060266 102.330006 
L 446.873529 96.191997 
L 447.686792 96.791344 
L 448.500055 77.92941 
L 449.313318 113.658059 
L 450.12658 97.496468 
L 450.939843 132.029992 
L 451.753106 102.527997 
L 452.566369 95.773591 
L 453.379632 99.816928 
L 454.192895 103.015382 
L 455.006158 107.280007 
L 455.819421 90.108315 
L 456.632684 88.799998 
L 457.445946 93.052033 
L 458.259209 122.88932 
L 459.072472 120.23327 
L 459.885735 116.430294 
L 460.698998 104.689346 
L 461.512261 111.775139 
L 462.325524 91.880006 
L 463.138787 97.053198 
L 463.95205 112.824001 
L 465.578575 99.762721 
L 466.391838 121.535996 
L 467.205101 94.959994 
L 468.018364 114.602255 
L 468.831627 91.880006 
L 469.64489 105.187933 
L 470.458153 101.012866 
L 471.271416 116.519991 
L 472.084678 101.11999 
L 472.897941 109.296005 
L 473.711204 102.330006 
L 474.524467 121.029121 
L 475.33773 129.060003 
L 476.150993 112.874857 
L 476.964256 120.765404 
L 477.777519 103.45655 
L 478.590782 108.863997 
L 479.404044 95.965713 
L 480.217307 101.580569 
L 481.03057 94.655057 
L 481.843833 121.535996 
L 482.657096 101.241985 
L 483.470359 109.823122 
L 484.283622 111.239992 
L 485.096885 111.775139 
L 485.910148 100.223994 
L 486.72341 118.951581 
L 487.536673 98.040002 
L 488.349936 100.588967 
L 489.163199 88.430405 
L 489.976462 91.880006 
L 490.789725 115.809237 
L 491.602988 106.771368 
L 492.416251 112.031996 
L 493.229514 87.023072 
L 494.042776 126.089994 
L 494.856039 106.272008 
L 495.669302 106.272008 
L 496.482565 88.430405 
L 498.109091 96.390008 
L 498.109091 96.390008 
" clip-path="url(#p4a31b2a5d0)" style="fill: none; stroke: #0000ff; stroke-width: 1.5; stroke-linecap: square"/>
   </g>
   <g id="line2d_14">
    <path d="M 92.290909 242.310578 
L 93.104172 266.005475 
L 93.917435 323.420057 
L 94.730698 337.090191 
L 95.543961 332.533481 
L 96.357224 324.3314 
L 97.170486 323.420057 
L 97.983749 320.686028 
L 98.797012 320.686028 
L 99.610275 323.420057 
L 100.423538 318.863342 
L 101.236801 321.597371 
L 102.050064 331.622138 
L 102.863327 337.090191 
L 103.67659 337.090191 
L 104.489852 342.558249 
L 105.303115 338.001534 
L 106.116378 336.178848 
L 106.929641 336.178848 
L 107.742904 330.710795 
L 108.556167 338.001534 
L 109.36943 332.533481 
L 110.182693 332.533481 
L 110.995956 326.154081 
L 111.809218 323.420057 
L 112.622481 324.3314 
L 113.435744 323.420057 
L 114.249007 320.686028 
L 115.06227 327.065424 
L 115.875533 324.3314 
L 116.688796 338.001534 
L 117.502059 334.356162 
L 118.315322 336.178848 
L 119.128584 332.533481 
L 119.941847 327.976767 
L 121.568373 322.508714 
L 123.194899 320.686028 
L 124.008162 315.21797 
L 124.821425 330.710795 
L 125.634688 325.242738 
L 126.44795 326.154081 
L 127.261213 320.686028 
L 128.074476 323.420057 
L 128.887739 325.242738 
L 129.701002 320.686028 
L 130.514265 319.774685 
L 131.327528 309.749917 
L 132.140791 307.927231 
L 132.954054 329.799452 
L 133.767316 330.710795 
L 134.580579 327.065424 
L 135.393842 326.154081 
L 136.207105 320.686028 
L 137.020368 319.774685 
L 137.833631 311.572603 
L 138.646894 317.951999 
L 139.460157 308.838574 
L 140.27342 309.749917 
L 141.086682 331.622138 
L 141.899945 325.242738 
L 142.713208 328.88811 
L 143.526471 320.686028 
L 144.339734 319.774685 
L 145.152997 316.129313 
L 145.96626 313.395289 
L 146.779523 311.572603 
L 147.592786 308.838574 
L 148.406048 299.725155 
L 149.219311 327.065424 
L 150.032574 322.508714 
L 150.845837 320.686028 
L 151.6591 317.040656 
L 152.472363 312.483946 
L 154.098889 308.838574 
L 154.912152 299.725155 
L 155.725414 296.079783 
L 156.538677 291.523068 
L 157.35194 325.242738 
L 158.165203 325.242738 
L 158.978466 315.21797 
L 159.791729 307.015889 
L 160.604992 311.572603 
L 162.231518 302.459179 
L 163.04478 296.991126 
L 163.858043 297.902469 
L 164.671306 290.611725 
L 165.484569 327.065424 
L 166.297832 319.774685 
L 167.111095 314.306632 
L 167.924358 306.104546 
L 168.737621 295.16844 
L 169.550884 298.813812 
L 170.364146 292.434411 
L 171.177409 292.434411 
L 171.990672 291.523068 
L 172.803935 284.232325 
L 173.617198 318.863342 
L 174.430461 313.395289 
L 175.243724 315.21797 
L 176.056987 311.572603 
L 176.87025 309.749917 
L 177.683512 309.749917 
L 178.496775 300.636498 
L 179.310038 293.345754 
L 180.123301 299.725155 
L 180.936564 291.523068 
L 181.749827 318.863342 
L 182.56309 317.951999 
L 183.376353 311.572603 
L 184.189616 316.129313 
L 185.002878 309.749917 
L 185.816141 302.459179 
L 186.629404 302.459179 
L 188.25593 304.281865 
L 189.069193 294.257097 
L 189.882456 318.863342 
L 190.695719 317.951999 
L 191.508982 310.66126 
L 192.322244 309.749917 
L 193.135507 303.370522 
L 193.94877 303.370522 
L 194.762033 296.991126 
L 195.575296 286.966353 
L 196.388559 296.079783 
L 197.201822 292.434411 
L 198.015085 313.395289 
L 198.828348 317.951999 
L 199.64161 314.306632 
L 200.454873 306.104546 
L 201.268136 299.725155 
L 202.894662 301.547836 
L 203.707925 301.547836 
L 204.521188 284.232325 
L 205.334451 291.523068 
L 206.147714 314.306632 
L 206.960976 306.104546 
L 207.774239 313.395289 
L 208.587502 302.459179 
L 209.400765 304.281865 
L 210.214028 301.547836 
L 211.027291 293.345754 
L 211.840554 298.813812 
L 212.653817 287.877696 
L 213.46708 301.547836 
L 214.280343 318.863342 
L 215.093605 318.863342 
L 215.906868 308.838574 
L 216.720131 305.193208 
L 217.533394 293.345754 
L 218.346657 300.636498 
L 219.15992 299.725155 
L 219.973183 302.459179 
L 220.786446 290.611725 
L 221.599709 297.902469 
L 222.412971 318.863342 
L 223.226234 316.129313 
L 224.039497 307.015889 
L 224.85276 307.015889 
L 225.666023 300.636498 
L 226.479286 300.636498 
L 227.292549 296.991126 
L 228.105812 287.877696 
L 228.919075 294.257097 
L 229.732337 299.725155 
L 230.5456 312.483946 
L 231.358863 308.838574 
L 232.172126 309.749917 
L 232.985389 312.483946 
L 234.611915 296.079783 
L 235.425178 293.345754 
L 236.238441 294.257097 
L 237.051703 286.966353 
L 237.864966 281.498306 
L 238.678229 313.395289 
L 239.491492 314.306632 
L 240.304755 306.104546 
L 241.118018 301.547836 
L 241.931281 289.700382 
L 242.744544 300.636498 
L 244.371069 286.05501 
L 245.184332 293.345754 
L 245.997595 290.611725 
L 246.810858 311.572603 
L 247.624121 309.749917 
L 248.437384 303.370522 
L 249.250647 303.370522 
L 250.06391 294.257097 
L 250.877173 301.547836 
L 251.690435 297.902469 
L 252.503698 298.813812 
L 253.316961 286.05501 
L 254.130224 296.991126 
L 254.943487 309.749917 
L 255.75675 304.281865 
L 256.570013 305.193208 
L 257.383276 298.813812 
L 258.196539 288.789039 
L 259.009801 296.079783 
L 259.823064 291.523068 
L 260.636327 287.877696 
L 261.44959 289.700382 
L 262.262853 295.16844 
L 263.076116 317.040656 
L 263.889379 312.483946 
L 264.702642 305.193208 
L 265.515905 301.547836 
L 266.329167 305.193208 
L 267.14243 295.16844 
L 267.955693 286.966353 
L 268.768956 295.16844 
L 269.582219 301.547836 
L 270.395482 296.991126 
L 271.208745 316.129313 
L 272.022008 303.370522 
L 272.835271 299.725155 
L 273.648533 298.813812 
L 274.461796 299.725155 
L 275.275059 293.345754 
L 276.088322 295.16844 
L 276.901585 286.966353 
L 277.714848 286.966353 
L 279.341374 315.21797 
L 280.154637 302.459179 
L 280.967899 302.459179 
L 281.781162 303.370522 
L 282.594425 299.725155 
L 283.407688 290.611725 
L 284.220951 296.991126 
L 285.034214 284.232325 
L 285.847477 288.789039 
L 286.66074 285.143668 
L 287.474003 302.459179 
L 288.287265 303.370522 
L 289.100528 301.547836 
L 289.913791 294.257097 
L 290.727054 297.902469 
L 291.540317 304.281865 
L 292.35358 293.345754 
L 293.166843 297.902469 
L 293.980106 290.611725 
L 294.793369 281.498306 
L 295.606631 307.015889 
L 296.419894 307.927231 
L 297.233157 304.281865 
L 298.04642 303.370522 
L 298.859683 296.079783 
L 299.672946 298.813812 
L 300.486209 292.434411 
L 301.299472 292.434411 
L 302.112735 300.636498 
L 302.925997 286.966353 
L 303.73926 306.104546 
L 304.552523 301.547836 
L 305.365786 295.16844 
L 306.179049 304.281865 
L 307.805575 296.991126 
L 308.618838 284.232325 
L 309.432101 290.611725 
L 310.245363 291.523068 
L 311.058626 286.966353 
L 311.871889 313.395289 
L 312.685152 307.927231 
L 313.498415 307.015889 
L 314.311678 298.813812 
L 315.124941 298.813812 
L 315.938204 294.257097 
L 316.751467 293.345754 
L 317.564729 291.523068 
L 318.377992 301.547836 
L 319.191255 295.16844 
L 320.004518 309.749917 
L 320.817781 310.66126 
L 321.631044 307.015889 
L 322.444307 297.902469 
L 324.070833 299.725155 
L 324.884095 290.611725 
L 325.697358 298.813812 
L 326.510621 293.345754 
L 327.323884 285.143668 
L 328.137147 300.636498 
L 328.95041 313.395289 
L 329.763673 302.459179 
L 330.576936 303.370522 
L 331.390199 294.257097 
L 333.016724 296.079783 
L 333.829987 288.789039 
L 334.64325 294.257097 
L 335.456513 294.257097 
L 336.269776 305.193208 
L 337.083039 305.193208 
L 337.896302 300.636498 
L 338.709565 307.015889 
L 339.522827 296.991126 
L 340.33609 297.902469 
L 341.149353 289.700382 
L 341.962616 296.079783 
L 342.775879 289.700382 
L 343.589142 286.05501 
L 344.402405 310.66126 
L 345.215668 299.725155 
L 346.028931 299.725155 
L 346.842193 303.370522 
L 347.655456 295.16844 
L 348.468719 295.16844 
L 349.281982 298.813812 
L 350.095245 296.079783 
L 350.908508 282.409649 
L 351.721771 286.05501 
L 352.535034 307.927231 
L 353.348297 299.725155 
L 354.161559 296.991126 
L 354.974822 301.547836 
L 355.788085 297.902469 
L 356.601348 302.459179 
L 357.414611 292.434411 
L 358.227874 290.611725 
L 359.041137 296.079783 
L 359.8544 285.143668 
L 360.667663 311.572603 
L 361.480925 299.725155 
L 362.294188 298.813812 
L 363.107451 299.725155 
L 363.920714 292.434411 
L 364.733977 286.966353 
L 365.54724 300.636498 
L 366.360503 296.079783 
L 367.173766 294.257097 
L 367.987029 297.902469 
L 368.800291 307.015889 
L 369.613554 306.104546 
L 371.24008 306.104546 
L 372.053343 302.459179 
L 372.866606 296.079783 
L 374.493132 303.370522 
L 375.306395 288.789039 
L 376.119657 288.789039 
L 376.93292 307.927231 
L 377.746183 303.370522 
L 378.559446 302.459179 
L 379.372709 303.370522 
L 380.185972 302.459179 
L 380.999235 298.813812 
L 381.812498 294.257097 
L 382.625761 300.636498 
L 383.439024 286.05501 
L 385.065549 303.370522 
L 385.878812 304.281865 
L 386.692075 300.636498 
L 387.505338 296.079783 
L 388.318601 303.370522 
L 389.131864 302.459179 
L 389.945127 303.370522 
L 390.75839 297.902469 
L 391.571652 295.16844 
L 392.384915 291.523068 
L 393.198178 303.370522 
L 394.011441 297.902469 
L 394.824704 307.927231 
L 395.637967 300.636498 
L 396.45123 304.281865 
L 397.264493 297.902469 
L 398.077756 296.079783 
L 398.891018 299.725155 
L 399.704281 296.079783 
L 400.517544 296.991126 
L 401.330807 308.838574 
L 402.14407 305.193208 
L 402.957333 298.813812 
L 403.770596 304.281865 
L 404.583859 292.434411 
L 405.397122 301.547836 
L 406.210384 286.966353 
L 407.023647 296.079783 
L 407.83691 296.991126 
L 408.650173 294.257097 
L 409.463436 307.927231 
L 410.276699 301.547836 
L 411.903225 301.547836 
L 412.716488 293.345754 
L 413.52975 298.813812 
L 414.343013 293.345754 
L 415.156276 297.902469 
L 415.969539 301.547836 
L 416.782802 287.877696 
L 417.596065 306.104546 
L 418.409328 307.015889 
L 419.222591 294.257097 
L 420.035854 294.257097 
L 421.662379 296.079783 
L 422.475642 306.104546 
L 423.288905 296.991126 
L 424.102168 296.079783 
L 424.915431 288.789039 
L 425.728694 309.749917 
L 426.541957 305.193208 
L 427.35522 305.193208 
L 428.168482 299.725155 
L 428.981745 289.700382 
L 429.795008 285.143668 
L 430.608271 298.813812 
L 431.421534 293.345754 
L 432.234797 289.700382 
L 433.861323 305.193208 
L 434.674586 296.991126 
L 435.487848 300.636498 
L 436.301111 295.16844 
L 437.114374 301.547836 
L 437.927637 307.015889 
L 438.7409 287.877696 
L 439.554163 296.079783 
L 440.367426 290.611725 
L 441.180689 284.232325 
L 441.993952 309.749917 
L 442.807214 298.813812 
L 443.620477 308.838574 
L 444.43374 307.015889 
L 445.247003 295.16844 
L 446.060266 297.902469 
L 446.873529 289.700382 
L 447.686792 296.991126 
L 449.313318 300.636498 
L 450.12658 304.281865 
L 450.939843 307.015889 
L 451.753106 303.370522 
L 452.566369 300.636498 
L 453.379632 303.370522 
L 454.192895 304.281865 
L 455.006158 302.459179 
L 455.819421 293.345754 
L 456.632684 296.991126 
L 457.445946 294.257097 
L 458.259209 310.66126 
L 459.072472 307.015889 
L 459.885735 308.838574 
L 460.698998 302.459179 
L 461.512261 301.547836 
L 462.325524 297.902469 
L 463.138787 303.370522 
L 463.95205 295.16844 
L 464.765312 300.636498 
L 465.578575 292.434411 
L 466.391838 308.838574 
L 467.205101 298.813812 
L 468.018364 306.104546 
L 468.831627 297.902469 
L 469.64489 303.370522 
L 470.458153 295.16844 
L 471.271416 305.193208 
L 472.084678 300.636498 
L 472.897941 301.547836 
L 474.524467 294.257097 
L 475.33773 306.104546 
L 476.150993 303.370522 
L 476.964256 304.281865 
L 477.777519 295.16844 
L 478.590782 305.193208 
L 479.404044 307.015889 
L 480.217307 301.547836 
L 481.03057 304.281865 
L 481.843833 308.838574 
L 482.657096 306.104546 
L 483.470359 302.459179 
L 484.283622 300.636498 
L 485.096885 301.547836 
L 485.910148 298.813812 
L 486.72341 301.547836 
L 487.536673 299.725155 
L 488.349936 294.257097 
L 489.163199 303.370522 
L 489.976462 297.902469 
L 490.789725 307.927231 
L 491.602988 301.547836 
L 492.416251 306.104546 
L 493.229514 299.725155 
L 494.042776 305.193208 
L 494.856039 300.636498 
L 495.669302 300.636498 
L 496.482565 303.370522 
L 497.295828 293.345754 
L 498.109091 296.079783 
L 498.109091 296.079783 
" clip-path="url(#p4a31b2a5d0)" style="fill: none; stroke: #008000; stroke-width: 1.5; stroke-linecap: square"/>
   </g>
   <g id="patch_3">
    <path d="M 72 384.48 
L 72 51.84 
" style="fill: none; stroke: #000000; stroke-width: 0.8; stroke-linejoin: miter; stroke-linecap: square"/>
   </g>
   <g id="patch_4">
    <path d="M 518.4 384.48 
L 518.4 51.84 
" style="fill: none; stroke: #000000; stroke-width: 0.8; stroke-linejoin: miter; stroke-linecap: square"/>
   </g>
   <g id="patch_5">
    <path d="M 72 384.48 
L 518.4 384.48 
" style="fill: none; stroke: #000000; stroke-width: 0.8; stroke-linejoin: miter; stroke-linecap: square"/>
   </g>
   <g id="patch_6">
    <path d="M 72 51.84 
L 518.4 51.84 
" style="fill: none; stroke: #000000; stroke-width: 0.8; stroke-linejoin: miter; stroke-linecap: square"/>
   </g>
   <g id="legend_1">
    <g id="patch_7">
     <path d="M 79 89.19625 
L 156.107812 89.19625 
Q 158.107812 89.19625 158.107812 87.19625 
L 158.107812 58.84 
Q 158.107812 56.84 156.107812 56.84 
L 79 56.84 
Q 77 56.84 77 58.84 
L 77 87.19625 
Q 77 89.19625 79 89.19625 
z
" style="fill: #ffffff; opacity: 0.8; stroke: #cccccc; stroke-linejoin: miter"/>
    </g>
    <g id="line2d_15">
     <path d="M 81 64.938437 
L 91 64.938437 
L 101 64.938437 
" style="fill: none; stroke: #0000ff; stroke-width: 1.5; stroke-linecap: square"/>
    </g>
    <g id="text_15">
     <!-- precision -->
     <g transform="translate(109 68.438437) scale(0.1 -0.1)">
      <defs>
       <path id="DejaVuSans-69" d="M 603 3500 
L 1178 3500 
L 1178 0 
L 603 0 
L 603 3500 
z
M 603 4863 
L 1178 4863 
L 1178 4134 
L 603 4134 
L 603 4863 
z
" transform="scale(0.015625)"/>
       <path id="DejaVuSans-73" d="M 2834 3397 
L 2834 2853 
Q 2591 2978 2328 3040 
Q 2066 3103 1784 3103 
Q 1356 3103 1142 2972 
Q 928 2841 928 2578 
Q 928 2378 1081 2264 
Q 1234 2150 1697 2047 
L 1894 2003 
Q 2506 1872 2764 1633 
Q 3022 1394 3022 966 
Q 3022 478 2636 193 
Q 2250 -91 1575 -91 
Q 1294 -91 989 -36 
Q 684 19 347 128 
L 347 722 
Q 666 556 975 473 
Q 1284 391 1588 391 
Q 1994 391 2212 530 
Q 2431 669 2431 922 
Q 2431 1156 2273 1281 
Q 2116 1406 1581 1522 
L 1381 1569 
Q 847 1681 609 1914 
Q 372 2147 372 2553 
Q 372 3047 722 3315 
Q 1072 3584 1716 3584 
Q 2034 3584 2315 3537 
Q 2597 3491 2834 3397 
z
" transform="scale(0.015625)"/>
       <path id="DejaVuSans-6e" d="M 3513 2113 
L 3513 0 
L 2938 0 
L 2938 2094 
Q 2938 2591 2744 2837 
Q 2550 3084 2163 3084 
Q 1697 3084 1428 2787 
Q 1159 2491 1159 1978 
L 1159 0 
L 581 0 
L 581 3500 
L 1159 3500 
L 1159 2956 
Q 1366 3272 1645 3428 
Q 1925 3584 2291 3584 
Q 2894 3584 3203 3211 
Q 3513 2838 3513 2113 
z
" transform="scale(0.015625)"/>
      </defs>
      <use xlink:href="#DejaVuSans-70"/>
      <use xlink:href="#DejaVuSans-72" x="63.476562"/>
      <use xlink:href="#DejaVuSans-65" x="102.339844"/>
      <use xlink:href="#DejaVuSans-63" x="163.863281"/>
      <use xlink:href="#DejaVuSans-69" x="218.84375"/>
      <use xlink:href="#DejaVuSans-73" x="246.626953"/>
      <use xlink:href="#DejaVuSans-69" x="298.726562"/>
      <use xlink:href="#DejaVuSans-6f" x="326.509766"/>
      <use xlink:href="#DejaVuSans-6e" x="387.691406"/>
     </g>
    </g>
    <g id="line2d_16">
     <path d="M 81 79.616562 
L 91 79.616562 
L 101 79.616562 
" style="fill: none; stroke: #008000; stroke-width: 1.5; stroke-linecap: square"/>
    </g>
    <g id="text_16">
     <!-- recall -->
     <g transform="translate(109 83.116562) scale(0.1 -0.1)">
      <defs>
       <path id="DejaVuSans-6c" d="M 603 4863 
L 1178 4863 
L 1178 0 
L 603 0 
L 603 4863 
z
" transform="scale(0.015625)"/>
      </defs>
      <use xlink:href="#DejaVuSans-72"/>
      <use xlink:href="#DejaVuSans-65" x="38.863281"/>
      <use xlink:href="#DejaVuSans-63" x="100.386719"/>
      <use xlink:href="#DejaVuSans-61" x="155.367188"/>
      <use xlink:href="#DejaVuSans-6c" x="216.646484"/>
      <use xlink:href="#DejaVuSans-6c" x="244.429688"/>
     </g>
    </g>
   </g>
  </g>
  <g id="axes_2">
   <g id="matplotlib.axis_3">
    <g id="ytick_7">
     <g id="line2d_17">
      <defs>
       <path id="m425a62eed7" d="M 0 0 
L 3.5 0 
" style="stroke: #000000; stroke-width: 0.8"/>
      </defs>
      <g>
       <use xlink:href="#m425a62eed7" x="518.4" y="358.68973" style="stroke: #000000; stroke-width: 0.8"/>
      </g>
     </g>
     <g id="text_17">
      <!-- 0.4 -->
      <g transform="translate(525.4 362.488949) scale(0.1 -0.1)">
       <use xlink:href="#DejaVuSans-30"/>
       <use xlink:href="#DejaVuSans-2e" x="63.623047"/>
       <use xlink:href="#DejaVuSans-34" x="95.410156"/>
      </g>
     </g>
    </g>
    <g id="ytick_8">
     <g id="line2d_18">
      <g>
       <use xlink:href="#m425a62eed7" x="518.4" y="293.091241" style="stroke: #000000; stroke-width: 0.8"/>
      </g>
     </g>
     <g id="text_18">
      <!-- 0.6 -->
      <g transform="translate(525.4 296.89046) scale(0.1 -0.1)">
       <use xlink:href="#DejaVuSans-30"/>
       <use xlink:href="#DejaVuSans-2e" x="63.623047"/>
       <use xlink:href="#DejaVuSans-36" x="95.410156"/>
      </g>
     </g>
    </g>
    <g id="ytick_9">
     <g id="line2d_19">
      <g>
       <use xlink:href="#m425a62eed7" x="518.4" y="227.492752" style="stroke: #000000; stroke-width: 0.8"/>
      </g>
     </g>
     <g id="text_19">
      <!-- 0.8 -->
      <g transform="translate(525.4 231.29197) scale(0.1 -0.1)">
       <use xlink:href="#DejaVuSans-30"/>
       <use xlink:href="#DejaVuSans-2e" x="63.623047"/>
       <use xlink:href="#DejaVuSans-38" x="95.410156"/>
      </g>
     </g>
    </g>
    <g id="ytick_10">
     <g id="line2d_20">
      <g>
       <use xlink:href="#m425a62eed7" x="518.4" y="161.894263" style="stroke: #000000; stroke-width: 0.8"/>
      </g>
     </g>
     <g id="text_20">
      <!-- 1.0 -->
      <g transform="translate(525.4 165.693481) scale(0.1 -0.1)">
       <use xlink:href="#DejaVuSans-31"/>
       <use xlink:href="#DejaVuSans-2e" x="63.623047"/>
       <use xlink:href="#DejaVuSans-30" x="95.410156"/>
      </g>
     </g>
    </g>
    <g id="ytick_11">
     <g id="line2d_21">
      <g>
       <use xlink:href="#m425a62eed7" x="518.4" y="96.295773" style="stroke: #000000; stroke-width: 0.8"/>
      </g>
     </g>
     <g id="text_21">
      <!-- 1.2 -->
      <g transform="translate(525.4 100.094992) scale(0.1 -0.1)">
       <use xlink:href="#DejaVuSans-31"/>
       <use xlink:href="#DejaVuSans-2e" x="63.623047"/>
       <use xlink:href="#DejaVuSans-32" x="95.410156"/>
      </g>
     </g>
    </g>
    <g id="text_22">
     <!-- loss -->
     <g transform="translate(552.901563 227.817812) rotate(-90) scale(0.1 -0.1)">
      <use xlink:href="#DejaVuSans-6c"/>
      <use xlink:href="#DejaVuSans-6f" x="27.783203"/>
      <use xlink:href="#DejaVuSans-73" x="88.964844"/>
      <use xlink:href="#DejaVuSans-73" x="141.064453"/>
     </g>
    </g>
   </g>
   <g id="line2d_22">
    <path d="M 92.290909 66.96 
L 93.104172 118.796684 
L 93.917435 190.193251 
L 94.730698 244.387181 
L 95.543961 273.968876 
L 96.357224 286.334543 
L 97.170486 289.355448 
L 97.983749 290.164402 
L 99.610275 287.20721 
L 100.423538 341.071461 
L 101.236801 338.787869 
L 102.050064 338.583436 
L 102.863327 337.775714 
L 103.67659 337.367981 
L 104.489852 337.981701 
L 105.303115 337.748011 
L 106.116378 338.74048 
L 107.742904 342.048162 
L 108.556167 335.684464 
L 109.36943 339.209814 
L 110.995956 343.359392 
L 112.622481 348.44971 
L 113.435744 349.238469 
L 114.249007 351.645899 
L 115.06227 352.989141 
L 115.875533 352.902174 
L 116.688796 345.881765 
L 118.315322 350.248963 
L 119.128584 353.247874 
L 119.941847 355.105513 
L 120.75511 356.480407 
L 121.568373 357.526168 
L 122.381636 358.051806 
L 123.194899 358.267578 
L 124.008162 358.644988 
L 124.821425 353.1651 
L 125.634688 353.656643 
L 126.44795 355.985052 
L 127.261213 357.253223 
L 128.887739 358.804672 
L 129.701002 359.894381 
L 130.514265 360.192752 
L 131.327528 360.634041 
L 132.140791 361.618495 
L 132.954054 355.462093 
L 133.767316 357.094087 
L 136.207105 360.230014 
L 137.020368 360.861181 
L 137.833631 361.818754 
L 138.646894 361.616295 
L 139.460157 363.01027 
L 140.27342 363.170921 
L 141.086682 356.158107 
L 141.899945 358.320079 
L 143.526471 360.549009 
L 144.339734 362.021496 
L 147.592786 364.667063 
L 148.406048 364.840558 
L 149.219311 358.259035 
L 150.032574 359.847882 
L 150.845837 361.019467 
L 151.6591 362.923253 
L 152.472363 363.891118 
L 153.285626 365.548039 
L 154.098889 364.366865 
L 154.912152 366.013159 
L 155.725414 366.479082 
L 156.538677 367.45681 
L 157.35194 359.644896 
L 158.165203 361.462887 
L 158.978466 364.013266 
L 159.791729 363.764865 
L 160.604992 365.6557 
L 161.418255 365.426526 
L 162.231518 366.802593 
L 163.04478 367.066389 
L 163.858043 366.903304 
L 164.671306 367.889165 
L 165.484569 360.465365 
L 166.297832 362.480781 
L 167.111095 364.049609 
L 167.924358 365.050348 
L 168.737621 366.996147 
L 169.550884 367.568274 
L 170.364146 367.943142 
L 171.177409 367.698437 
L 172.803935 369.271351 
L 173.617198 362.114934 
L 174.430461 363.787514 
L 175.243724 364.244864 
L 176.056987 365.323831 
L 176.87025 365.622387 
L 177.683512 365.693206 
L 178.496775 366.56384 
L 179.310038 367.707127 
L 180.123301 367.554178 
L 180.936564 368.320348 
L 181.749827 362.586086 
L 182.56309 363.301269 
L 183.376353 363.469565 
L 184.189616 364.551005 
L 185.002878 365.189406 
L 185.816141 367.029313 
L 186.629404 366.796054 
L 187.442667 367.334672 
L 188.25593 366.400198 
L 189.069193 367.643159 
L 189.882456 362.629135 
L 190.695719 362.579166 
L 192.322244 365.8889 
L 193.135507 366.173693 
L 193.94877 365.469614 
L 194.762033 367.222554 
L 195.575296 368.394099 
L 196.388559 367.306638 
L 197.201822 368.080715 
L 198.015085 362.761771 
L 198.828348 363.098743 
L 199.64161 365.346567 
L 200.454873 365.337604 
L 201.268136 366.120254 
L 202.081399 367.698319 
L 202.894662 367.200443 
L 203.707925 367.356549 
L 204.521188 368.118319 
L 205.334451 368.036542 
L 206.147714 363.384943 
L 206.960976 364.082434 
L 207.774239 363.784122 
L 208.587502 365.714897 
L 209.400765 366.77231 
L 210.214028 367.142399 
L 211.027291 368.189432 
L 211.840554 367.432031 
L 212.653817 368.255892 
L 213.46708 367.600502 
L 214.280343 363.00851 
L 215.093605 363.902438 
L 215.906868 365.398658 
L 216.720131 365.774827 
L 217.533394 366.856248 
L 218.346657 366.431527 
L 219.15992 367.492655 
L 219.973183 367.419235 
L 220.786446 368.385116 
L 221.599709 367.483564 
L 222.412971 363.75728 
L 223.226234 364.180887 
L 224.039497 365.014386 
L 224.85276 365.393575 
L 226.479286 366.694952 
L 227.292549 367.787359 
L 228.105812 368.232881 
L 228.919075 367.093036 
L 229.732337 368.053042 
L 230.5456 364.283172 
L 231.358863 364.557339 
L 232.172126 365.52715 
L 232.985389 365.435128 
L 233.798652 365.685689 
L 234.611915 367.234851 
L 235.425178 368.352018 
L 237.051703 368.249235 
L 237.864966 369.081395 
L 238.678229 364.20245 
L 240.304755 364.732486 
L 241.118018 366.721344 
L 241.931281 366.788341 
L 242.744544 367.006752 
L 244.371069 368.227241 
L 245.184332 367.870915 
L 245.997595 367.774593 
L 246.810858 364.44045 
L 249.250647 366.053647 
L 250.06391 367.171069 
L 250.877173 366.838741 
L 251.690435 367.295103 
L 252.503698 368.145308 
L 253.316961 368.177673 
L 254.130224 367.099829 
L 254.943487 363.911626 
L 255.75675 365.191752 
L 256.570013 365.614156 
L 257.383276 366.186899 
L 258.196539 367.216904 
L 259.009801 367.512752 
L 259.823064 367.507219 
L 260.636327 367.787877 
L 261.44959 368.70029 
L 262.262853 368.114028 
L 263.076116 364.143801 
L 264.702642 365.720332 
L 265.515905 366.381567 
L 266.329167 366.814558 
L 267.14243 367.612192 
L 267.955693 368.097626 
L 268.768956 367.303304 
L 269.582219 367.45029 
L 270.395482 368.062152 
L 271.208745 364.354108 
L 272.022008 365.498812 
L 272.835271 365.53931 
L 273.648533 366.821038 
L 274.461796 366.671277 
L 275.275059 367.886956 
L 276.088322 367.448883 
L 276.901585 368.136657 
L 277.714848 367.449244 
L 278.528111 367.751876 
L 279.341374 364.322565 
L 280.154637 365.467298 
L 280.967899 366.357716 
L 281.781162 366.024938 
L 282.594425 366.669224 
L 283.407688 367.01947 
L 284.220951 367.648262 
L 285.847477 369.36 
L 286.66074 367.756539 
L 287.474003 365.146953 
L 289.100528 366.601356 
L 289.913791 366.613047 
L 290.727054 367.582007 
L 291.540317 367.298368 
L 292.35358 367.757223 
L 293.166843 367.42813 
L 293.980106 367.492547 
L 294.793369 368.322889 
L 295.606631 364.887791 
L 296.419894 364.544407 
L 297.233157 366.060724 
L 298.04642 366.110303 
L 298.859683 367.039557 
L 299.672946 367.036615 
L 300.486209 367.783899 
L 301.299472 367.856058 
L 302.112735 367.687342 
L 302.925997 367.916007 
L 303.73926 364.863236 
L 304.552523 365.209591 
L 305.365786 366.543948 
L 306.179049 365.972848 
L 306.992312 366.795389 
L 307.805575 367.338553 
L 308.618838 367.495812 
L 309.432101 367.30261 
L 311.058626 368.232109 
L 311.871889 364.848456 
L 312.685152 365.584177 
L 313.498415 365.140179 
L 314.311678 366.286975 
L 315.124941 367.064825 
L 315.938204 367.386929 
L 316.751467 367.882792 
L 317.564729 368.057568 
L 318.377992 366.920841 
L 319.191255 367.514228 
L 320.004518 364.261022 
L 320.817781 366.133245 
L 321.631044 365.778952 
L 322.444307 367.037074 
L 324.070833 366.452367 
L 324.884095 367.388092 
L 325.697358 368.146383 
L 326.510621 368.320748 
L 327.323884 367.906359 
L 328.137147 364.975042 
L 328.95041 364.957437 
L 329.763673 366.238423 
L 330.576936 366.244288 
L 331.390199 367.30394 
L 332.203461 367.848306 
L 333.016724 366.944349 
L 333.829987 368.237241 
L 335.456513 367.78039 
L 336.269776 364.865562 
L 337.083039 365.395305 
L 337.896302 366.554192 
L 338.709565 366.882298 
L 339.522827 366.750483 
L 340.33609 366.860255 
L 341.149353 367.967345 
L 341.962616 367.212036 
L 342.775879 368.206988 
L 343.589142 367.861698 
L 344.402405 364.877742 
L 345.215668 365.608829 
L 346.028931 366.158669 
L 347.655456 366.29023 
L 349.281982 367.302825 
L 350.095245 366.802251 
L 350.908508 368.174662 
L 351.721771 368.072484 
L 352.535034 364.944749 
L 353.348297 365.086505 
L 354.161559 366.034664 
L 354.974822 366.377481 
L 355.788085 366.58818 
L 356.601348 367.051825 
L 357.414611 367.808082 
L 358.227874 368.301052 
L 359.8544 367.790448 
L 360.667663 364.831311 
L 361.480925 365.988439 
L 362.294188 366.343709 
L 363.107451 367.371837 
L 363.920714 367.657343 
L 364.733977 367.57102 
L 365.54724 367.035843 
L 366.360503 367.38212 
L 367.173766 367.883388 
L 367.987029 366.72584 
L 368.800291 365.914618 
L 369.613554 364.898533 
L 370.426817 365.971362 
L 371.24008 366.008174 
L 372.866606 366.989451 
L 373.679869 367.326901 
L 374.493132 366.4279 
L 375.306395 367.615037 
L 376.119657 367.348611 
L 376.93292 365.869527 
L 378.559446 365.497952 
L 379.372709 366.447607 
L 380.185972 366.369456 
L 380.999235 367.371778 
L 381.812498 367.192271 
L 382.625761 366.331901 
L 383.439024 368.032544 
L 384.252286 367.094111 
L 385.065549 365.826673 
L 385.878812 365.673871 
L 386.692075 366.364373 
L 387.505338 365.83029 
L 388.318601 366.684981 
L 389.131864 366.356954 
L 389.945127 366.725498 
L 390.75839 367.321202 
L 392.384915 367.324936 
L 393.198178 366.010765 
L 394.011441 366.369837 
L 394.824704 366.029093 
L 395.637967 365.484042 
L 396.45123 365.939046 
L 397.264493 366.873549 
L 398.077756 366.850197 
L 398.891018 366.57209 
L 399.704281 367.032539 
L 400.517544 367.762345 
L 401.330807 365.500875 
L 402.14407 365.873515 
L 402.957333 365.783624 
L 403.770596 365.923074 
L 404.583859 367.117248 
L 405.397122 366.702468 
L 406.210384 367.141441 
L 407.023647 367.087357 
L 407.83691 366.588512 
L 408.650173 367.07895 
L 409.463436 364.41963 
L 410.276699 366.332741 
L 411.089962 366.14429 
L 412.716488 366.66114 
L 413.52975 366.317453 
L 414.343013 366.849053 
L 415.156276 367.536622 
L 415.969539 366.342633 
L 416.782802 367.497073 
L 417.596065 365.552555 
L 418.409328 365.849312 
L 419.222591 365.531451 
L 420.035854 366.979334 
L 420.849116 366.581592 
L 421.662379 366.853081 
L 422.475642 366.689018 
L 424.102168 367.393517 
L 424.915431 368.560782 
L 425.728694 365.157442 
L 426.541957 365.095381 
L 427.35522 366.053374 
L 428.168482 366.269361 
L 428.981745 366.020158 
L 429.795008 367.205839 
L 430.608271 366.848154 
L 431.421534 366.956069 
L 432.234797 367.851053 
L 433.04806 367.514512 
L 433.861323 364.652821 
L 434.674586 366.035876 
L 435.487848 366.044977 
L 436.301111 367.425736 
L 437.114374 366.233936 
L 437.927637 365.792168 
L 438.7409 366.951514 
L 439.554163 366.705323 
L 440.367426 367.020017 
L 441.180689 367.776538 
L 441.993952 365.952095 
L 442.807214 366.220408 
L 443.620477 366.022983 
L 444.43374 366.094487 
L 445.247003 366.639107 
L 447.686792 366.250993 
L 448.500055 367.3491 
L 449.313318 367.276648 
L 450.12658 366.445964 
L 450.939843 365.335453 
L 451.753106 366.103793 
L 452.566369 366.139676 
L 453.379632 365.940942 
L 454.192895 366.43705 
L 455.006158 365.650851 
L 455.819421 367.627001 
L 456.632684 366.829777 
L 457.445946 366.933861 
L 458.259209 365.212709 
L 459.072472 365.547071 
L 459.885735 365.510386 
L 460.698998 366.554495 
L 461.512261 366.080519 
L 463.138787 366.332859 
L 463.95205 366.13517 
L 465.578575 367.45334 
L 466.391838 365.813839 
L 468.018364 366.212568 
L 468.831627 365.263647 
L 469.64489 366.104037 
L 470.458153 366.656243 
L 471.271416 365.508392 
L 472.084678 366.633966 
L 473.711204 367.03768 
L 474.524467 365.858168 
L 475.33773 365.458823 
L 476.150993 365.446526 
L 477.777519 366.019914 
L 478.590782 365.736108 
L 479.404044 366.512082 
L 480.217307 365.920346 
L 481.03057 366.47394 
L 482.657096 365.826175 
L 483.470359 365.86375 
L 484.283622 366.335175 
L 485.096885 364.515756 
L 485.910148 366.390873 
L 486.72341 366.040783 
L 487.536673 367.108881 
L 488.349936 366.637993 
L 489.163199 367.256844 
L 489.976462 366.542443 
L 490.789725 365.657371 
L 491.602988 366.259683 
L 492.416251 365.49063 
L 493.229514 366.148054 
L 494.042776 365.798042 
L 494.856039 366.075768 
L 495.669302 365.67525 
L 496.482565 365.973278 
L 497.295828 366.523001 
L 498.109091 366.721793 
L 498.109091 366.721793 
" clip-path="url(#p4a31b2a5d0)" style="fill: none; stroke: #ff0000; stroke-width: 1.5; stroke-linecap: square"/>
   </g>
   <g id="patch_8">
    <path d="M 72 384.48 
L 72 51.84 
" style="fill: none; stroke: #000000; stroke-width: 0.8; stroke-linejoin: miter; stroke-linecap: square"/>
   </g>
   <g id="patch_9">
    <path d="M 518.4 384.48 
L 518.4 51.84 
" style="fill: none; stroke: #000000; stroke-width: 0.8; stroke-linejoin: miter; stroke-linecap: square"/>
   </g>
   <g id="patch_10">
    <path d="M 72 384.48 
L 518.4 384.48 
" style="fill: none; stroke: #000000; stroke-width: 0.8; stroke-linejoin: miter; stroke-linecap: square"/>
   </g>
   <g id="patch_11">
    <path d="M 72 51.84 
L 518.4 51.84 
" style="fill: none; stroke: #000000; stroke-width: 0.8; stroke-linejoin: miter; stroke-linecap: square"/>
   </g>
   <g id="text_23">
    <!-- The learning curve on _0.001_8_clients_iid/host/5 -->
    <g transform="translate(143.545312 45.84) scale(0.12 -0.12)">
     <defs>
      <path id="DejaVuSans-54" d="M -19 4666 
L 3928 4666 
L 3928 4134 
L 2272 4134 
L 2272 0 
L 1638 0 
L 1638 4134 
L -19 4134 
L -19 4666 
z
" transform="scale(0.015625)"/>
      <path id="DejaVuSans-20" transform="scale(0.015625)"/>
      <path id="DejaVuSans-67" d="M 2906 1791 
Q 2906 2416 2648 2759 
Q 2391 3103 1925 3103 
Q 1463 3103 1205 2759 
Q 947 2416 947 1791 
Q 947 1169 1205 825 
Q 1463 481 1925 481 
Q 2391 481 2648 825 
Q 2906 1169 2906 1791 
z
M 3481 434 
Q 3481 -459 3084 -895 
Q 2688 -1331 1869 -1331 
Q 1566 -1331 1297 -1286 
Q 1028 -1241 775 -1147 
L 775 -588 
Q 1028 -725 1275 -790 
Q 1522 -856 1778 -856 
Q 2344 -856 2625 -561 
Q 2906 -266 2906 331 
L 2906 616 
Q 2728 306 2450 153 
Q 2172 0 1784 0 
Q 1141 0 747 490 
Q 353 981 353 1791 
Q 353 2603 747 3093 
Q 1141 3584 1784 3584 
Q 2172 3584 2450 3431 
Q 2728 3278 2906 2969 
L 2906 3500 
L 3481 3500 
L 3481 434 
z
" transform="scale(0.015625)"/>
      <path id="DejaVuSans-75" d="M 544 1381 
L 544 3500 
L 1119 3500 
L 1119 1403 
Q 1119 906 1312 657 
Q 1506 409 1894 409 
Q 2359 409 2629 706 
Q 2900 1003 2900 1516 
L 2900 3500 
L 3475 3500 
L 3475 0 
L 2900 0 
L 2900 538 
Q 2691 219 2414 64 
Q 2138 -91 1772 -91 
Q 1169 -91 856 284 
Q 544 659 544 1381 
z
M 1991 3584 
L 1991 3584 
z
" transform="scale(0.015625)"/>
      <path id="DejaVuSans-76" d="M 191 3500 
L 800 3500 
L 1894 563 
L 2988 3500 
L 3597 3500 
L 2284 0 
L 1503 0 
L 191 3500 
z
" transform="scale(0.015625)"/>
      <path id="DejaVuSans-3bb" d="M 1981 4316 
L 3597 0 
L 2988 0 
L 2006 2588 
L 800 0 
L 191 0 
L 1725 3356 
L 1494 3975 
Q 1347 4369 1013 4369 
L 713 4369 
L 713 4863 
L 1078 4856 
Q 1784 4847 1981 4316 
z
" transform="scale(0.015625)"/>
      <path id="DejaVuSans-5f" d="M 3263 -1063 
L 3263 -1509 
L -63 -1509 
L -63 -1063 
L 3263 -1063 
z
" transform="scale(0.015625)"/>
      <path id="DejaVuSans-64" d="M 2906 2969 
L 2906 4863 
L 3481 4863 
L 3481 0 
L 2906 0 
L 2906 525 
Q 2725 213 2448 61 
Q 2172 -91 1784 -91 
Q 1150 -91 751 415 
Q 353 922 353 1747 
Q 353 2572 751 3078 
Q 1150 3584 1784 3584 
Q 2172 3584 2448 3432 
Q 2725 3281 2906 2969 
z
M 947 1747 
Q 947 1113 1208 752 
Q 1469 391 1925 391 
Q 2381 391 2643 752 
Q 2906 1113 2906 1747 
Q 2906 2381 2643 2742 
Q 2381 3103 1925 3103 
Q 1469 3103 1208 2742 
Q 947 2381 947 1747 
z
" transform="scale(0.015625)"/>
      <path id="DejaVuSans-2f" d="M 1625 4666 
L 2156 4666 
L 531 -594 
L 0 -594 
L 1625 4666 
z
" transform="scale(0.015625)"/>
     </defs>
     <use xlink:href="#DejaVuSans-54"/>
     <use xlink:href="#DejaVuSans-68" x="61.083984"/>
     <use xlink:href="#DejaVuSans-65" x="124.462891"/>
     <use xlink:href="#DejaVuSans-20" x="185.986328"/>
     <use xlink:href="#DejaVuSans-6c" x="217.773438"/>
     <use xlink:href="#DejaVuSans-65" x="245.556641"/>
     <use xlink:href="#DejaVuSans-61" x="307.080078"/>
     <use xlink:href="#DejaVuSans-72" x="368.359375"/>
     <use xlink:href="#DejaVuSans-6e" x="407.722656"/>
     <use xlink:href="#DejaVuSans-69" x="471.101562"/>
     <use xlink:href="#DejaVuSans-6e" x="498.884766"/>
     <use xlink:href="#DejaVuSans-67" x="562.263672"/>
     <use xlink:href="#DejaVuSans-20" x="625.740234"/>
     <use xlink:href="#DejaVuSans-63" x="657.527344"/>
     <use xlink:href="#DejaVuSans-75" x="712.507812"/>
     <use xlink:href="#DejaVuSans-72" x="775.886719"/>
     <use xlink:href="#DejaVuSans-76" x="817"/>
     <use xlink:href="#DejaVuSans-65" x="876.179688"/>
     <use xlink:href="#DejaVuSans-20" x="937.703125"/>
     <use xlink:href="#DejaVuSans-6f" x="969.490234"/>
     <use xlink:href="#DejaVuSans-6e" x="1030.671875"/>
     <use xlink:href="#DejaVuSans-20" x="1094.050781"/>
     <use xlink:href="#DejaVuSans-3bb" x="1125.837891"/>
     <use xlink:href="#DejaVuSans-5f" x="1185.017578"/>
     <use xlink:href="#DejaVuSans-30" x="1235.017578"/>
     <use xlink:href="#DejaVuSans-2e" x="1298.640625"/>
     <use xlink:href="#DejaVuSans-30" x="1330.427734"/>
     <use xlink:href="#DejaVuSans-30" x="1394.050781"/>
     <use xlink:href="#DejaVuSans-31" x="1457.673828"/>
     <use xlink:href="#DejaVuSans-5f" x="1521.296875"/>
     <use xlink:href="#DejaVuSans-38" x="1571.296875"/>
     <use xlink:href="#DejaVuSans-5f" x="1634.919922"/>
     <use xlink:href="#DejaVuSans-63" x="1684.919922"/>
     <use xlink:href="#DejaVuSans-6c" x="1739.900391"/>
     <use xlink:href="#DejaVuSans-69" x="1767.683594"/>
     <use xlink:href="#DejaVuSans-65" x="1795.466797"/>
     <use xlink:href="#DejaVuSans-6e" x="1856.990234"/>
     <use xlink:href="#DejaVuSans-74" x="1920.369141"/>
     <use xlink:href="#DejaVuSans-73" x="1959.578125"/>
     <use xlink:href="#DejaVuSans-5f" x="2011.677734"/>
     <use xlink:href="#DejaVuSans-69" x="2061.677734"/>
     <use xlink:href="#DejaVuSans-69" x="2089.460938"/>
     <use xlink:href="#DejaVuSans-64" x="2117.244141"/>
     <use xlink:href="#DejaVuSans-2f" x="2180.720703"/>
     <use xlink:href="#DejaVuSans-68" x="2214.412109"/>
     <use xlink:href="#DejaVuSans-6f" x="2277.791016"/>
     <use xlink:href="#DejaVuSans-73" x="2338.972656"/>
     <use xlink:href="#DejaVuSans-74" x="2391.072266"/>
     <use xlink:href="#DejaVuSans-2f" x="2430.28125"/>
     <use xlink:href="#DejaVuSans-35" x="2463.972656"/>
    </g>
   </g>
   <g id="legend_2">
    <g id="patch_12">
     <path d="M 460.084375 74.518125 
L 511.4 74.518125 
Q 513.4 74.518125 513.4 72.518125 
L 513.4 58.84 
Q 513.4 56.84 511.4 56.84 
L 460.084375 56.84 
Q 458.084375 56.84 458.084375 58.84 
L 458.084375 72.518125 
Q 458.084375 74.518125 460.084375 74.518125 
z
" style="fill: #ffffff; opacity: 0.8; stroke: #cccccc; stroke-linejoin: miter"/>
    </g>
    <g id="line2d_23">
     <path d="M 462.084375 64.938438 
L 472.084375 64.938438 
L 482.084375 64.938438 
" style="fill: none; stroke: #ff0000; stroke-width: 1.5; stroke-linecap: square"/>
    </g>
    <g id="text_24">
     <!-- loss -->
     <g transform="translate(490.084375 68.438438) scale(0.1 -0.1)">
      <use xlink:href="#DejaVuSans-6c"/>
      <use xlink:href="#DejaVuSans-6f" x="27.783203"/>
      <use xlink:href="#DejaVuSans-73" x="88.964844"/>
      <use xlink:href="#DejaVuSans-73" x="141.064453"/>
     </g>
    </g>
   </g>
  </g>
 </g>
 <defs>
  <clipPath id="p4a31b2a5d0">
   <rect x="72" y="51.84" width="446.4" height="332.64"/>
  </clipPath>
 </defs>
</svg>
