<?xml version="1.0" encoding="utf-8" standalone="no"?>
<!DOCTYPE svg PUBLIC "-//W3C//DTD SVG 1.1//EN"
  "http://www.w3.org/Graphics/SVG/1.1/DTD/svg11.dtd">
<svg xmlns:xlink="http://www.w3.org/1999/xlink" width="576pt" height="432pt" viewBox="0 0 576 432" xmlns="http://www.w3.org/2000/svg" version="1.1">
 <metadata>
  <rdf:RDF xmlns:dc="http://purl.org/dc/elements/1.1/" xmlns:cc="http://creativecommons.org/ns#" xmlns:rdf="http://www.w3.org/1999/02/22-rdf-syntax-ns#">
   <cc:Work>
    <dc:type rdf:resource="http://purl.org/dc/dcmitype/StillImage"/>
    <dc:date>2023-04-11T13:24:21.836090</dc:date>
    <dc:format>image/svg+xml</dc:format>
    <dc:creator>
     <cc:Agent>
      <dc:title>Matplotlib v3.7.1, https://matplotlib.org/</dc:title>
     </cc:Agent>
    </dc:creator>
   </cc:Work>
  </rdf:RDF>
 </metadata>
 <defs>
  <style type="text/css">*{stroke-linejoin: round; stroke-linecap: butt}</style>
 </defs>
 <g id="figure_1">
  <g id="patch_1">
   <path d="M 0 432 
L 576 432 
L 576 0 
L 0 0 
z
" style="fill: #ffffff"/>
  </g>
  <g id="axes_1">
   <g id="patch_2">
    <path d="M 72 384.48 
L 518.4 384.48 
L 518.4 51.84 
L 72 51.84 
z
" style="fill: #ffffff"/>
   </g>
   <g id="matplotlib.axis_1">
    <g id="xtick_1">
     <g id="line2d_1">
      <defs>
       <path id="ma46f6a60de" d="M 0 0 
L 0 3.5 
" style="stroke: #000000; stroke-width: 0.8"/>
      </defs>
      <g>
       <use xlink:href="#ma46f6a60de" x="92.290909" y="384.48" style="stroke: #000000; stroke-width: 0.8"/>
      </g>
     </g>
     <g id="text_1">
      <!-- 0 -->
      <g transform="translate(89.109659 399.078438) scale(0.1 -0.1)">
       <defs>
        <path id="DejaVuSans-30" d="M 2034 4250 
Q 1547 4250 1301 3770 
Q 1056 3291 1056 2328 
Q 1056 1369 1301 889 
Q 1547 409 2034 409 
Q 2525 409 2770 889 
Q 3016 1369 3016 2328 
Q 3016 3291 2770 3770 
Q 2525 4250 2034 4250 
z
M 2034 4750 
Q 2819 4750 3233 4129 
Q 3647 3509 3647 2328 
Q 3647 1150 3233 529 
Q 2819 -91 2034 -91 
Q 1250 -91 836 529 
Q 422 1150 422 2328 
Q 422 3509 836 4129 
Q 1250 4750 2034 4750 
z
" transform="scale(0.015625)"/>
       </defs>
       <use xlink:href="#DejaVuSans-30"/>
      </g>
     </g>
    </g>
    <g id="xtick_2">
     <g id="line2d_2">
      <g>
       <use xlink:href="#ma46f6a60de" x="173.617198" y="384.48" style="stroke: #000000; stroke-width: 0.8"/>
      </g>
     </g>
     <g id="text_2">
      <!-- 100 -->
      <g transform="translate(164.073448 399.078438) scale(0.1 -0.1)">
       <defs>
        <path id="DejaVuSans-31" d="M 794 531 
L 1825 531 
L 1825 4091 
L 703 3866 
L 703 4441 
L 1819 4666 
L 2450 4666 
L 2450 531 
L 3481 531 
L 3481 0 
L 794 0 
L 794 531 
z
" transform="scale(0.015625)"/>
       </defs>
       <use xlink:href="#DejaVuSans-31"/>
       <use xlink:href="#DejaVuSans-30" x="63.623047"/>
       <use xlink:href="#DejaVuSans-30" x="127.246094"/>
      </g>
     </g>
    </g>
    <g id="xtick_3">
     <g id="line2d_3">
      <g>
       <use xlink:href="#ma46f6a60de" x="254.943487" y="384.48" style="stroke: #000000; stroke-width: 0.8"/>
      </g>
     </g>
     <g id="text_3">
      <!-- 200 -->
      <g transform="translate(245.399737 399.078438) scale(0.1 -0.1)">
       <defs>
        <path id="DejaVuSans-32" d="M 1228 531 
L 3431 531 
L 3431 0 
L 469 0 
L 469 531 
Q 828 903 1448 1529 
Q 2069 2156 2228 2338 
Q 2531 2678 2651 2914 
Q 2772 3150 2772 3378 
Q 2772 3750 2511 3984 
Q 2250 4219 1831 4219 
Q 1534 4219 1204 4116 
Q 875 4013 500 3803 
L 500 4441 
Q 881 4594 1212 4672 
Q 1544 4750 1819 4750 
Q 2544 4750 2975 4387 
Q 3406 4025 3406 3419 
Q 3406 3131 3298 2873 
Q 3191 2616 2906 2266 
Q 2828 2175 2409 1742 
Q 1991 1309 1228 531 
z
" transform="scale(0.015625)"/>
       </defs>
       <use xlink:href="#DejaVuSans-32"/>
       <use xlink:href="#DejaVuSans-30" x="63.623047"/>
       <use xlink:href="#DejaVuSans-30" x="127.246094"/>
      </g>
     </g>
    </g>
    <g id="xtick_4">
     <g id="line2d_4">
      <g>
       <use xlink:href="#ma46f6a60de" x="336.269776" y="384.48" style="stroke: #000000; stroke-width: 0.8"/>
      </g>
     </g>
     <g id="text_4">
      <!-- 300 -->
      <g transform="translate(326.726026 399.078438) scale(0.1 -0.1)">
       <defs>
        <path id="DejaVuSans-33" d="M 2597 2516 
Q 3050 2419 3304 2112 
Q 3559 1806 3559 1356 
Q 3559 666 3084 287 
Q 2609 -91 1734 -91 
Q 1441 -91 1130 -33 
Q 819 25 488 141 
L 488 750 
Q 750 597 1062 519 
Q 1375 441 1716 441 
Q 2309 441 2620 675 
Q 2931 909 2931 1356 
Q 2931 1769 2642 2001 
Q 2353 2234 1838 2234 
L 1294 2234 
L 1294 2753 
L 1863 2753 
Q 2328 2753 2575 2939 
Q 2822 3125 2822 3475 
Q 2822 3834 2567 4026 
Q 2313 4219 1838 4219 
Q 1578 4219 1281 4162 
Q 984 4106 628 3988 
L 628 4550 
Q 988 4650 1302 4700 
Q 1616 4750 1894 4750 
Q 2613 4750 3031 4423 
Q 3450 4097 3450 3541 
Q 3450 3153 3228 2886 
Q 3006 2619 2597 2516 
z
" transform="scale(0.015625)"/>
       </defs>
       <use xlink:href="#DejaVuSans-33"/>
       <use xlink:href="#DejaVuSans-30" x="63.623047"/>
       <use xlink:href="#DejaVuSans-30" x="127.246094"/>
      </g>
     </g>
    </g>
    <g id="xtick_5">
     <g id="line2d_5">
      <g>
       <use xlink:href="#ma46f6a60de" x="417.596065" y="384.48" style="stroke: #000000; stroke-width: 0.8"/>
      </g>
     </g>
     <g id="text_5">
      <!-- 400 -->
      <g transform="translate(408.052315 399.078438) scale(0.1 -0.1)">
       <defs>
        <path id="DejaVuSans-34" d="M 2419 4116 
L 825 1625 
L 2419 1625 
L 2419 4116 
z
M 2253 4666 
L 3047 4666 
L 3047 1625 
L 3713 1625 
L 3713 1100 
L 3047 1100 
L 3047 0 
L 2419 0 
L 2419 1100 
L 313 1100 
L 313 1709 
L 2253 4666 
z
" transform="scale(0.015625)"/>
       </defs>
       <use xlink:href="#DejaVuSans-34"/>
       <use xlink:href="#DejaVuSans-30" x="63.623047"/>
       <use xlink:href="#DejaVuSans-30" x="127.246094"/>
      </g>
     </g>
    </g>
    <g id="xtick_6">
     <g id="line2d_6">
      <g>
       <use xlink:href="#ma46f6a60de" x="498.922354" y="384.48" style="stroke: #000000; stroke-width: 0.8"/>
      </g>
     </g>
     <g id="text_6">
      <!-- 500 -->
      <g transform="translate(489.378604 399.078438) scale(0.1 -0.1)">
       <defs>
        <path id="DejaVuSans-35" d="M 691 4666 
L 3169 4666 
L 3169 4134 
L 1269 4134 
L 1269 2991 
Q 1406 3038 1543 3061 
Q 1681 3084 1819 3084 
Q 2600 3084 3056 2656 
Q 3513 2228 3513 1497 
Q 3513 744 3044 326 
Q 2575 -91 1722 -91 
Q 1428 -91 1123 -41 
Q 819 9 494 109 
L 494 744 
Q 775 591 1075 516 
Q 1375 441 1709 441 
Q 2250 441 2565 725 
Q 2881 1009 2881 1497 
Q 2881 1984 2565 2268 
Q 2250 2553 1709 2553 
Q 1456 2553 1204 2497 
Q 953 2441 691 2322 
L 691 4666 
z
" transform="scale(0.015625)"/>
       </defs>
       <use xlink:href="#DejaVuSans-35"/>
       <use xlink:href="#DejaVuSans-30" x="63.623047"/>
       <use xlink:href="#DejaVuSans-30" x="127.246094"/>
      </g>
     </g>
    </g>
    <g id="text_7">
     <!-- epoch -->
     <g transform="translate(279.971875 412.756563) scale(0.1 -0.1)">
      <defs>
       <path id="DejaVuSans-65" d="M 3597 1894 
L 3597 1613 
L 953 1613 
Q 991 1019 1311 708 
Q 1631 397 2203 397 
Q 2534 397 2845 478 
Q 3156 559 3463 722 
L 3463 178 
Q 3153 47 2828 -22 
Q 2503 -91 2169 -91 
Q 1331 -91 842 396 
Q 353 884 353 1716 
Q 353 2575 817 3079 
Q 1281 3584 2069 3584 
Q 2775 3584 3186 3129 
Q 3597 2675 3597 1894 
z
M 3022 2063 
Q 3016 2534 2758 2815 
Q 2500 3097 2075 3097 
Q 1594 3097 1305 2825 
Q 1016 2553 972 2059 
L 3022 2063 
z
" transform="scale(0.015625)"/>
       <path id="DejaVuSans-70" d="M 1159 525 
L 1159 -1331 
L 581 -1331 
L 581 3500 
L 1159 3500 
L 1159 2969 
Q 1341 3281 1617 3432 
Q 1894 3584 2278 3584 
Q 2916 3584 3314 3078 
Q 3713 2572 3713 1747 
Q 3713 922 3314 415 
Q 2916 -91 2278 -91 
Q 1894 -91 1617 61 
Q 1341 213 1159 525 
z
M 3116 1747 
Q 3116 2381 2855 2742 
Q 2594 3103 2138 3103 
Q 1681 3103 1420 2742 
Q 1159 2381 1159 1747 
Q 1159 1113 1420 752 
Q 1681 391 2138 391 
Q 2594 391 2855 752 
Q 3116 1113 3116 1747 
z
" transform="scale(0.015625)"/>
       <path id="DejaVuSans-6f" d="M 1959 3097 
Q 1497 3097 1228 2736 
Q 959 2375 959 1747 
Q 959 1119 1226 758 
Q 1494 397 1959 397 
Q 2419 397 2687 759 
Q 2956 1122 2956 1747 
Q 2956 2369 2687 2733 
Q 2419 3097 1959 3097 
z
M 1959 3584 
Q 2709 3584 3137 3096 
Q 3566 2609 3566 1747 
Q 3566 888 3137 398 
Q 2709 -91 1959 -91 
Q 1206 -91 779 398 
Q 353 888 353 1747 
Q 353 2609 779 3096 
Q 1206 3584 1959 3584 
z
" transform="scale(0.015625)"/>
       <path id="DejaVuSans-63" d="M 3122 3366 
L 3122 2828 
Q 2878 2963 2633 3030 
Q 2388 3097 2138 3097 
Q 1578 3097 1268 2742 
Q 959 2388 959 1747 
Q 959 1106 1268 751 
Q 1578 397 2138 397 
Q 2388 397 2633 464 
Q 2878 531 3122 666 
L 3122 134 
Q 2881 22 2623 -34 
Q 2366 -91 2075 -91 
Q 1284 -91 818 406 
Q 353 903 353 1747 
Q 353 2603 823 3093 
Q 1294 3584 2113 3584 
Q 2378 3584 2631 3529 
Q 2884 3475 3122 3366 
z
" transform="scale(0.015625)"/>
       <path id="DejaVuSans-68" d="M 3513 2113 
L 3513 0 
L 2938 0 
L 2938 2094 
Q 2938 2591 2744 2837 
Q 2550 3084 2163 3084 
Q 1697 3084 1428 2787 
Q 1159 2491 1159 1978 
L 1159 0 
L 581 0 
L 581 4863 
L 1159 4863 
L 1159 2956 
Q 1366 3272 1645 3428 
Q 1925 3584 2291 3584 
Q 2894 3584 3203 3211 
Q 3513 2838 3513 2113 
z
" transform="scale(0.015625)"/>
      </defs>
      <use xlink:href="#DejaVuSans-65"/>
      <use xlink:href="#DejaVuSans-70" x="61.523438"/>
      <use xlink:href="#DejaVuSans-6f" x="125"/>
      <use xlink:href="#DejaVuSans-63" x="186.181641"/>
      <use xlink:href="#DejaVuSans-68" x="241.162109"/>
     </g>
    </g>
   </g>
   <g id="matplotlib.axis_2">
    <g id="ytick_1">
     <g id="line2d_7">
      <defs>
       <path id="me20c0060f3" d="M 0 0 
L -3.5 0 
" style="stroke: #000000; stroke-width: 0.8"/>
      </defs>
      <g>
       <use xlink:href="#me20c0060f3" x="72" y="384.48" style="stroke: #000000; stroke-width: 0.8"/>
      </g>
     </g>
     <g id="text_8">
      <!-- 0.0 -->
      <g transform="translate(49.096875 388.279219) scale(0.1 -0.1)">
       <defs>
        <path id="DejaVuSans-2e" d="M 684 794 
L 1344 794 
L 1344 0 
L 684 0 
L 684 794 
z
" transform="scale(0.015625)"/>
       </defs>
       <use xlink:href="#DejaVuSans-30"/>
       <use xlink:href="#DejaVuSans-2e" x="63.623047"/>
       <use xlink:href="#DejaVuSans-30" x="95.410156"/>
      </g>
     </g>
    </g>
    <g id="ytick_2">
     <g id="line2d_8">
      <g>
       <use xlink:href="#me20c0060f3" x="72" y="317.952" style="stroke: #000000; stroke-width: 0.8"/>
      </g>
     </g>
     <g id="text_9">
      <!-- 0.2 -->
      <g transform="translate(49.096875 321.751219) scale(0.1 -0.1)">
       <use xlink:href="#DejaVuSans-30"/>
       <use xlink:href="#DejaVuSans-2e" x="63.623047"/>
       <use xlink:href="#DejaVuSans-32" x="95.410156"/>
      </g>
     </g>
    </g>
    <g id="ytick_3">
     <g id="line2d_9">
      <g>
       <use xlink:href="#me20c0060f3" x="72" y="251.424" style="stroke: #000000; stroke-width: 0.8"/>
      </g>
     </g>
     <g id="text_10">
      <!-- 0.4 -->
      <g transform="translate(49.096875 255.223219) scale(0.1 -0.1)">
       <use xlink:href="#DejaVuSans-30"/>
       <use xlink:href="#DejaVuSans-2e" x="63.623047"/>
       <use xlink:href="#DejaVuSans-34" x="95.410156"/>
      </g>
     </g>
    </g>
    <g id="ytick_4">
     <g id="line2d_10">
      <g>
       <use xlink:href="#me20c0060f3" x="72" y="184.896" style="stroke: #000000; stroke-width: 0.8"/>
      </g>
     </g>
     <g id="text_11">
      <!-- 0.6 -->
      <g transform="translate(49.096875 188.695219) scale(0.1 -0.1)">
       <defs>
        <path id="DejaVuSans-36" d="M 2113 2584 
Q 1688 2584 1439 2293 
Q 1191 2003 1191 1497 
Q 1191 994 1439 701 
Q 1688 409 2113 409 
Q 2538 409 2786 701 
Q 3034 994 3034 1497 
Q 3034 2003 2786 2293 
Q 2538 2584 2113 2584 
z
M 3366 4563 
L 3366 3988 
Q 3128 4100 2886 4159 
Q 2644 4219 2406 4219 
Q 1781 4219 1451 3797 
Q 1122 3375 1075 2522 
Q 1259 2794 1537 2939 
Q 1816 3084 2150 3084 
Q 2853 3084 3261 2657 
Q 3669 2231 3669 1497 
Q 3669 778 3244 343 
Q 2819 -91 2113 -91 
Q 1303 -91 875 529 
Q 447 1150 447 2328 
Q 447 3434 972 4092 
Q 1497 4750 2381 4750 
Q 2619 4750 2861 4703 
Q 3103 4656 3366 4563 
z
" transform="scale(0.015625)"/>
       </defs>
       <use xlink:href="#DejaVuSans-30"/>
       <use xlink:href="#DejaVuSans-2e" x="63.623047"/>
       <use xlink:href="#DejaVuSans-36" x="95.410156"/>
      </g>
     </g>
    </g>
    <g id="ytick_5">
     <g id="line2d_11">
      <g>
       <use xlink:href="#me20c0060f3" x="72" y="118.368" style="stroke: #000000; stroke-width: 0.8"/>
      </g>
     </g>
     <g id="text_12">
      <!-- 0.8 -->
      <g transform="translate(49.096875 122.167219) scale(0.1 -0.1)">
       <defs>
        <path id="DejaVuSans-38" d="M 2034 2216 
Q 1584 2216 1326 1975 
Q 1069 1734 1069 1313 
Q 1069 891 1326 650 
Q 1584 409 2034 409 
Q 2484 409 2743 651 
Q 3003 894 3003 1313 
Q 3003 1734 2745 1975 
Q 2488 2216 2034 2216 
z
M 1403 2484 
Q 997 2584 770 2862 
Q 544 3141 544 3541 
Q 544 4100 942 4425 
Q 1341 4750 2034 4750 
Q 2731 4750 3128 4425 
Q 3525 4100 3525 3541 
Q 3525 3141 3298 2862 
Q 3072 2584 2669 2484 
Q 3125 2378 3379 2068 
Q 3634 1759 3634 1313 
Q 3634 634 3220 271 
Q 2806 -91 2034 -91 
Q 1263 -91 848 271 
Q 434 634 434 1313 
Q 434 1759 690 2068 
Q 947 2378 1403 2484 
z
M 1172 3481 
Q 1172 3119 1398 2916 
Q 1625 2713 2034 2713 
Q 2441 2713 2670 2916 
Q 2900 3119 2900 3481 
Q 2900 3844 2670 4047 
Q 2441 4250 2034 4250 
Q 1625 4250 1398 4047 
Q 1172 3844 1172 3481 
z
" transform="scale(0.015625)"/>
       </defs>
       <use xlink:href="#DejaVuSans-30"/>
       <use xlink:href="#DejaVuSans-2e" x="63.623047"/>
       <use xlink:href="#DejaVuSans-38" x="95.410156"/>
      </g>
     </g>
    </g>
    <g id="ytick_6">
     <g id="line2d_12">
      <g>
       <use xlink:href="#me20c0060f3" x="72" y="51.84" style="stroke: #000000; stroke-width: 0.8"/>
      </g>
     </g>
     <g id="text_13">
      <!-- 1.0 -->
      <g transform="translate(49.096875 55.639219) scale(0.1 -0.1)">
       <use xlink:href="#DejaVuSans-31"/>
       <use xlink:href="#DejaVuSans-2e" x="63.623047"/>
       <use xlink:href="#DejaVuSans-30" x="95.410156"/>
      </g>
     </g>
    </g>
    <g id="text_14">
     <!-- rate -->
     <g transform="translate(43.017187 228.31625) rotate(-90) scale(0.1 -0.1)">
      <defs>
       <path id="DejaVuSans-72" d="M 2631 2963 
Q 2534 3019 2420 3045 
Q 2306 3072 2169 3072 
Q 1681 3072 1420 2755 
Q 1159 2438 1159 1844 
L 1159 0 
L 581 0 
L 581 3500 
L 1159 3500 
L 1159 2956 
Q 1341 3275 1631 3429 
Q 1922 3584 2338 3584 
Q 2397 3584 2469 3576 
Q 2541 3569 2628 3553 
L 2631 2963 
z
" transform="scale(0.015625)"/>
       <path id="DejaVuSans-61" d="M 2194 1759 
Q 1497 1759 1228 1600 
Q 959 1441 959 1056 
Q 959 750 1161 570 
Q 1363 391 1709 391 
Q 2188 391 2477 730 
Q 2766 1069 2766 1631 
L 2766 1759 
L 2194 1759 
z
M 3341 1997 
L 3341 0 
L 2766 0 
L 2766 531 
Q 2569 213 2275 61 
Q 1981 -91 1556 -91 
Q 1019 -91 701 211 
Q 384 513 384 1019 
Q 384 1609 779 1909 
Q 1175 2209 1959 2209 
L 2766 2209 
L 2766 2266 
Q 2766 2663 2505 2880 
Q 2244 3097 1772 3097 
Q 1472 3097 1187 3025 
Q 903 2953 641 2809 
L 641 3341 
Q 956 3463 1253 3523 
Q 1550 3584 1831 3584 
Q 2591 3584 2966 3190 
Q 3341 2797 3341 1997 
z
" transform="scale(0.015625)"/>
       <path id="DejaVuSans-74" d="M 1172 4494 
L 1172 3500 
L 2356 3500 
L 2356 3053 
L 1172 3053 
L 1172 1153 
Q 1172 725 1289 603 
Q 1406 481 1766 481 
L 2356 481 
L 2356 0 
L 1766 0 
Q 1100 0 847 248 
Q 594 497 594 1153 
L 594 3053 
L 172 3053 
L 172 3500 
L 594 3500 
L 594 4494 
L 1172 4494 
z
" transform="scale(0.015625)"/>
      </defs>
      <use xlink:href="#DejaVuSans-72"/>
      <use xlink:href="#DejaVuSans-61" x="41.113281"/>
      <use xlink:href="#DejaVuSans-74" x="102.392578"/>
      <use xlink:href="#DejaVuSans-65" x="141.601562"/>
     </g>
    </g>
   </g>
   <g id="line2d_13">
    <path d="M 92.290909 374.355886 
L 93.104172 373.308211 
L 93.917435 367.811765 
L 94.730698 328.819122 
L 95.543961 212.289873 
L 96.357224 188.809404 
L 97.170486 183.433838 
L 97.983749 184.180638 
L 98.797012 176.58 
L 99.610275 183.433838 
L 100.423538 214.168312 
L 101.236801 228.841102 
L 102.050064 185.820004 
L 102.863327 162.719993 
L 103.67659 116.221934 
L 104.489852 107.280007 
L 105.303115 145.661533 
L 106.116378 133.151995 
L 106.929641 150.120005 
L 107.742904 145.846954 
L 108.556167 167.155209 
L 109.36943 151.632004 
L 110.182693 169.480982 
L 110.995956 175.513849 
L 111.809218 164.105992 
L 112.622481 144.97919 
L 113.435744 162.719993 
L 114.249007 149.414406 
L 115.06227 152.895195 
L 115.875533 151.632004 
L 116.688796 169.242346 
L 117.502059 172.800004 
L 118.315322 140.1975 
L 119.128584 144.542959 
L 119.941847 145.395 
L 120.75511 122.399992 
L 121.568373 141.599995 
L 122.381636 116.221934 
L 123.194899 132.624005 
L 124.008162 138.080008 
L 124.821425 176.12307 
L 126.44795 142.186672 
L 127.261213 130.108231 
L 128.074476 139.376845 
L 128.887739 126.24631 
L 129.701002 123.42076 
L 130.514265 124.858546 
L 131.327528 127.079991 
L 132.140791 127.986516 
L 132.954054 145.541402 
L 133.767316 158.455388 
L 134.580579 142.559993 
L 135.393842 132.752424 
L 136.207105 126.684008 
L 137.020368 122.803192 
L 137.833631 118.367996 
L 138.646894 117.59441 
L 139.460157 122.853037 
L 140.27342 117.636919 
L 141.086682 157.311218 
L 141.899945 148.025057 
L 142.713208 152.032765 
L 143.526471 135 
L 144.339734 109.333339 
L 145.152997 106.627761 
L 145.96626 111.955663 
L 146.779523 89.215272 
L 147.592786 92.952799 
L 148.406048 107.828914 
L 149.219311 169.242346 
L 150.032574 138.080008 
L 150.845837 125.759996 
L 151.6591 117.546667 
L 152.472363 105.894008 
L 153.285626 99.359997 
L 154.098889 91.917102 
L 154.912152 101.914831 
L 155.725414 78.299995 
L 156.538677 101.382122 
L 157.35194 149.675288 
L 158.165203 136.052649 
L 158.978466 109.690441 
L 159.791729 126.153183 
L 160.604992 104.362103 
L 161.418255 92.496007 
L 162.231518 107.280007 
L 163.04478 93.857679 
L 163.858043 86.359248 
L 164.671306 87.36467 
L 165.484569 140.801863 
L 166.297832 132.132417 
L 167.111095 115.963371 
L 167.924358 113.015172 
L 169.550884 86.036645 
L 170.364146 94.564408 
L 171.177409 104.689346 
L 171.990672 82.079991 
L 172.803935 97.199996 
L 173.617198 145.846954 
L 174.430461 126.194819 
L 175.243724 132.258457 
L 176.056987 114.672006 
L 176.87025 114.672006 
L 177.683512 121.869464 
L 179.310038 100.349993 
L 180.123301 89.954993 
L 180.936564 90.221546 
L 181.749827 146.340009 
L 182.56309 150.535379 
L 183.376353 122.803192 
L 184.189616 111.640455 
L 185.002878 90.221546 
L 185.816141 97.013326 
L 186.629404 92.049228 
L 187.442667 97.843399 
L 188.25593 92.571429 
L 189.069193 92.254199 
L 189.882456 153.900002 
L 190.695719 132.132417 
L 191.508982 129.908574 
L 192.322244 132.258457 
L 193.135507 104.920845 
L 193.94877 106.708457 
L 194.762033 89.954993 
L 195.575296 88.430405 
L 196.388559 100.757654 
L 197.201822 79.274228 
L 198.015085 144.240004 
L 199.64161 103.940246 
L 200.454873 111.36506 
L 201.268136 101.382122 
L 202.081399 104.760009 
L 202.894662 106.213855 
L 203.707925 84.509994 
L 204.521188 87.023072 
L 205.334451 80.626145 
L 206.147714 147.38554 
L 206.960976 131.384349 
L 207.774239 104.165401 
L 208.587502 118.367996 
L 209.400765 104.53545 
L 210.214028 98.409595 
L 211.027291 95.520005 
L 211.840554 98.471772 
L 212.653817 103.45655 
L 213.46708 104.950585 
L 214.280343 140.801863 
L 215.093605 123.978788 
L 215.906868 124.153046 
L 216.720131 90.765953 
L 217.533394 105.491621 
L 218.346657 101.241985 
L 219.15992 86.132786 
L 219.973183 85.409183 
L 221.599709 95.362995 
L 222.412971 135 
L 223.226234 131.534993 
L 224.039497 121.869464 
L 224.85276 127.768697 
L 225.666023 109.542849 
L 226.479286 107.280007 
L 228.105812 89.497349 
L 228.919075 99.788099 
L 229.732337 88.460918 
L 230.5456 130.529037 
L 231.358863 133.43094 
L 232.172126 110.541173 
L 232.985389 109.068392 
L 233.798652 120.425571 
L 234.611915 102.239992 
L 235.425178 98.911691 
L 236.238441 96.191997 
L 237.051703 101.11999 
L 237.864966 87.36467 
L 238.678229 138.326397 
L 239.491492 137.375995 
L 240.304755 136.630583 
L 241.118018 111.122378 
L 241.931281 98.880008 
L 242.744544 99.816928 
L 243.557807 85.104008 
L 244.371069 83.221128 
L 245.184332 84.774644 
L 245.997595 84.509994 
L 246.810858 117.675007 
L 247.624121 127.154718 
L 248.437384 106.07479 
L 249.250647 96.618454 
L 250.06391 114.602255 
L 251.690435 87.22723 
L 252.503698 82.079991 
L 253.316961 84.509994 
L 254.130224 107.280007 
L 254.943487 114.21 
L 255.75675 133.369417 
L 256.570013 101.11999 
L 257.383276 101.883187 
L 258.196539 108.459568 
L 259.009801 95.773591 
L 259.823064 108.778384 
L 260.636327 101.11999 
L 261.44959 104.199999 
L 262.262853 95.083198 
L 263.076116 129.86666 
L 263.889379 127.871995 
L 264.702642 119.040009 
L 265.515905 125.02081 
L 266.329167 95.520005 
L 267.14243 105.695997 
L 267.955693 109.068392 
L 268.768956 96.390008 
L 269.582219 94.175999 
L 270.395482 87.801079 
L 271.208745 135 
L 272.022008 119.599999 
L 272.835271 115.809237 
L 273.648533 102.784874 
L 274.461796 118.978347 
L 275.275059 104.199999 
L 276.088322 86.854742 
L 276.901585 103.905391 
L 277.714848 95.773591 
L 278.528111 85.956921 
L 279.341374 114.866528 
L 280.154637 109.542849 
L 280.967899 117.124493 
L 281.781162 110.90692 
L 282.594425 108.959998 
L 284.220951 75.124798 
L 285.034214 100.282721 
L 286.66074 94.655057 
L 287.474003 127.284128 
L 288.287265 124.153046 
L 289.100528 119.659797 
L 289.913791 120.765404 
L 290.727054 97.199996 
L 291.540317 92.254199 
L 292.35358 84.135147 
L 293.166843 90.797834 
L 293.980106 93.42 
L 294.793369 103.247991 
L 295.606631 121.694393 
L 296.419894 116.921743 
L 297.233157 113.802359 
L 298.04642 104.199999 
L 298.859683 117.180008 
L 299.672946 112.937134 
L 300.486209 91.512653 
L 301.299472 94.853801 
L 302.112735 119.599999 
L 302.925997 86.036645 
L 303.73926 128.840004 
L 304.552523 131.919992 
L 305.365786 131.673603 
L 306.179049 103.815 
L 306.992312 106.741746 
L 307.805575 106.213855 
L 308.618838 99.359997 
L 309.432101 93.794589 
L 310.245363 83.519998 
L 311.058626 101.580569 
L 311.871889 127.5897 
L 312.685152 132.668417 
L 313.498415 105.187933 
L 314.311678 100.282721 
L 315.124941 120.878497 
L 315.938204 108.388806 
L 316.751467 98.471772 
L 317.564729 108.701535 
L 318.377992 108.701535 
L 319.191255 90.108315 
L 320.004518 119.040009 
L 320.817781 113.802359 
L 321.631044 118.367996 
L 322.444307 120.149997 
L 323.25757 112.610763 
L 324.070833 95.083198 
L 324.884095 101.11999 
L 325.697358 101.735992 
L 326.510621 89.442786 
L 327.323884 86.687998 
L 328.137147 118.367996 
L 328.95041 136.630583 
L 329.763673 107.798123 
L 330.576936 115.926612 
L 331.390199 104.689346 
L 332.203461 98.040002 
L 333.016724 107.828914 
L 333.829987 101.735992 
L 334.64325 102.049812 
L 335.456513 110.541173 
L 336.269776 105.695997 
L 337.083039 133.43094 
L 337.896302 123.585878 
L 338.709565 111.715202 
L 339.522827 112.874857 
L 340.33609 108.863997 
L 341.149353 115.926612 
L 341.962616 114.015696 
L 342.775879 103.247991 
L 343.589142 106.272008 
L 344.402405 112.874857 
L 345.215668 114.771894 
L 346.028931 115.926612 
L 346.842193 125.081837 
L 347.655456 95.083198 
L 348.468719 100.757654 
L 349.281982 101.735992 
L 350.095245 94.959994 
L 350.908508 84.804325 
L 351.721771 97.616143 
L 352.535034 126.51429 
L 353.348297 114.015696 
L 354.161559 128.603072 
L 354.974822 108.219662 
L 355.788085 121.694393 
L 356.601348 110.541173 
L 357.414611 111.038649 
L 358.227874 102.049812 
L 359.041137 100.588967 
L 359.8544 115.343999 
L 360.667663 115.809237 
L 361.480925 121.694393 
L 362.294188 116.519991 
L 363.107451 128.814546 
L 363.920714 115.199996 
L 364.733977 125.02081 
L 365.54724 101.735992 
L 366.360503 101.012866 
L 367.173766 102.049812 
L 367.987029 112.610763 
L 368.800291 139.891769 
L 369.613554 109.971269 
L 370.426817 113.440003 
L 371.24008 107.280007 
L 372.053343 106.272008 
L 372.866606 117.709307 
L 373.679869 104.199999 
L 374.493132 111.239992 
L 375.306395 109.296005 
L 376.119657 102.581688 
L 376.93292 122.61446 
L 377.746183 93.023998 
L 378.559446 116.331437 
L 379.372709 126.089994 
L 380.185972 112.320002 
L 380.999235 102.754281 
L 381.812498 96.191997 
L 382.625761 98.911691 
L 383.439024 113.658059 
L 384.252286 117.124493 
L 385.065549 122.88932 
L 385.878812 130.292839 
L 386.692075 128.603072 
L 387.505338 118.367996 
L 388.318601 123.585878 
L 389.131864 112.031996 
L 389.945127 92.63547 
L 390.75839 103.905391 
L 391.571652 95.965713 
L 392.384915 97.616143 
L 393.198178 132.668417 
L 394.011441 117.063526 
L 394.824704 114.602255 
L 395.637967 113.200772 
L 396.45123 105.062409 
L 397.264493 99.816928 
L 398.077756 111.775139 
L 398.891018 97.948521 
L 399.704281 96.885007 
L 400.517544 86.132786 
L 401.330807 118.367996 
L 402.14407 117.180008 
L 402.957333 116.430294 
L 403.770596 110.90692 
L 404.583859 92.991343 
L 405.397122 108.863997 
L 406.210384 93.023998 
L 407.023647 112.874857 
L 407.83691 89.145422 
L 408.650173 104.689346 
L 409.463436 113.802359 
L 410.276699 126.847064 
L 411.089962 122.206145 
L 411.903225 116.519991 
L 412.716488 104.53545 
L 413.52975 112.874857 
L 414.343013 111.775139 
L 415.156276 93.023998 
L 415.969539 98.040002 
L 416.782802 98.939469 
L 418.409328 131.446149 
L 419.222591 124.787368 
L 420.035854 131.320347 
L 420.849116 111.239992 
L 421.662379 113.115794 
L 422.475642 109.823122 
L 423.288905 99.359997 
L 424.102168 113.802359 
L 424.915431 106.741746 
L 425.728694 125.759996 
L 426.541957 127.045571 
L 427.35522 107.280007 
L 428.168482 121.869464 
L 428.981745 124.703996 
L 429.795008 108.388806 
L 430.608271 110.90692 
L 431.421534 97.948521 
L 432.234797 105.695997 
L 433.04806 115.343999 
L 433.861323 117.740376 
L 434.674586 117.230765 
L 435.487848 131.039995 
L 436.301111 120.878497 
L 437.114374 106.324132 
L 437.927637 117.740376 
L 438.7409 110.359995 
L 439.554163 108.326034 
L 440.367426 105.187933 
L 441.180689 111.544612 
L 441.993952 126.51429 
L 442.807214 124.703996 
L 443.620477 120.662066 
L 444.43374 122.030082 
L 445.247003 117.709307 
L 446.060266 112.610763 
L 446.873529 98.911691 
L 447.686792 106.213855 
L 448.500055 122.314578 
L 449.313318 111.775139 
L 450.12658 117.709307 
L 450.939843 119.040009 
L 451.753106 115.199996 
L 452.566369 117.124493 
L 453.379632 107.798123 
L 454.192895 113.802359 
L 455.006158 108.863997 
L 455.819421 118.978347 
L 456.632684 88.128005 
L 457.445946 103.512224 
L 458.259209 113.440003 
L 459.072472 137.771997 
L 459.885735 97.948521 
L 460.698998 114.21 
L 461.512261 114.415843 
L 462.325524 109.412309 
L 463.138787 95.965713 
L 463.95205 109.296005 
L 464.765312 125.081837 
L 465.578575 113.658059 
L 466.391838 114.771894 
L 467.205101 103.512224 
L 468.018364 126.089994 
L 468.831627 110.90692 
L 469.64489 109.097696 
L 470.458153 111.464154 
L 471.271416 117.709307 
L 472.084678 104.53545 
L 472.897941 93.42 
L 473.711204 103.512224 
L 474.524467 108.388806 
L 475.33773 112.031996 
L 476.150993 113.802359 
L 476.964256 112.610763 
L 477.777519 114.602255 
L 478.590782 102.527997 
L 479.404044 110.541173 
L 480.217307 105.062409 
L 481.03057 113.200772 
L 481.843833 108.778384 
L 482.657096 118.367996 
L 483.470359 108.863997 
L 484.283622 125.02081 
L 485.096885 114.602255 
L 485.910148 119.659797 
L 486.72341 117.124493 
L 487.536673 112.937134 
L 488.349936 101.11999 
L 489.163199 106.272008 
L 489.976462 107.863571 
L 490.789725 112.059318 
L 491.602988 107.280007 
L 492.416251 115.475471 
L 493.229514 115.680005 
L 494.042776 108.388806 
L 494.856039 111.998291 
L 495.669302 127.154718 
L 496.482565 119.545495 
L 497.295828 105.187933 
L 498.109091 124.296236 
L 498.109091 124.296236 
" clip-path="url(#p93a0486412)" style="fill: none; stroke: #0000ff; stroke-width: 1.5; stroke-linecap: square"/>
   </g>
   <g id="line2d_14">
    <path d="M 92.290909 248.035176 
L 93.104172 277.464446 
L 93.917435 322.94606 
L 94.730698 347.024558 
L 95.543961 345.240966 
L 96.357224 339.890189 
L 97.170486 335.431206 
L 97.983749 334.539412 
L 98.797012 330.972223 
L 99.610275 335.431206 
L 100.423538 327.405038 
L 101.236801 338.99839 
L 102.050064 346.132762 
L 102.863327 359.509706 
L 103.67659 362.185095 
L 104.489852 362.185095 
L 105.303115 359.509706 
L 106.116378 354.158927 
L 106.929641 356.834315 
L 107.742904 355.050723 
L 108.556167 340.781983 
L 109.36943 334.539412 
L 110.182693 337.214798 
L 110.995956 340.781983 
L 111.809218 337.214798 
L 112.622481 336.323005 
L 113.435744 338.106597 
L 114.249007 337.214798 
L 115.06227 335.431206 
L 115.875533 347.024558 
L 116.688796 335.431206 
L 117.502059 340.781983 
L 118.315322 342.565575 
L 119.128584 345.240966 
L 119.941847 343.457374 
L 120.75511 338.106597 
L 121.568373 343.457374 
L 122.381636 339.890189 
L 123.194899 337.214798 
L 124.008162 330.972223 
L 124.821425 333.647614 
L 125.634688 331.864021 
L 126.44795 331.864021 
L 127.261213 326.513245 
L 128.074476 334.539412 
L 129.701002 329.188631 
L 130.514265 327.405038 
L 131.327528 326.513245 
L 132.140791 327.405038 
L 132.954054 338.99839 
L 133.767316 337.214798 
L 134.580579 334.539412 
L 135.393842 334.539412 
L 136.207105 329.188631 
L 137.020368 331.864021 
L 138.646894 322.94606 
L 139.460157 322.054262 
L 140.27342 319.378876 
L 141.086682 334.539412 
L 141.899945 331.864021 
L 142.713208 332.75582 
L 143.526471 328.296837 
L 145.152997 321.162468 
L 145.96626 323.837854 
L 146.779523 314.028094 
L 147.592786 314.919893 
L 148.406048 309.569116 
L 149.219311 335.431206 
L 150.032574 330.972223 
L 150.845837 328.296837 
L 152.472363 324.729652 
L 153.285626 325.621446 
L 154.098889 319.378876 
L 154.912152 314.028094 
L 155.725414 312.244502 
L 156.538677 313.1363 
L 157.35194 330.972223 
L 158.165203 331.864021 
L 158.978466 316.703485 
L 159.791729 319.378876 
L 160.604992 313.1363 
L 161.418255 314.028094 
L 162.231518 308.677317 
L 163.04478 310.46091 
L 163.858043 299.759356 
L 164.671306 302.434747 
L 165.484569 328.296837 
L 166.297832 325.621446 
L 167.111095 324.729652 
L 167.924358 321.162468 
L 169.550884 298.867563 
L 170.364146 299.759356 
L 171.177409 304.218339 
L 171.990672 295.300378 
L 172.803935 299.759356 
L 173.617198 325.621446 
L 174.430461 325.621446 
L 175.243724 322.94606 
L 176.056987 319.378876 
L 176.87025 319.378876 
L 177.683512 317.595284 
L 178.496775 311.352708 
L 179.310038 311.352708 
L 180.123301 308.677317 
L 180.936564 302.434747 
L 181.749827 328.296837 
L 182.56309 327.405038 
L 183.376353 331.864021 
L 184.189616 319.378876 
L 185.002878 322.94606 
L 185.816141 322.054262 
L 186.629404 313.1363 
L 187.442667 312.244502 
L 188.25593 307.785524 
L 189.069193 300.65115 
L 189.882456 330.080429 
L 190.695719 325.621446 
L 191.508982 317.595284 
L 192.322244 322.94606 
L 193.135507 314.028094 
L 193.94877 312.244502 
L 195.575296 305.110133 
L 196.388559 306.893725 
L 197.201822 305.110133 
L 198.015085 326.513245 
L 198.828348 323.837854 
L 199.64161 322.054262 
L 200.454873 314.919893 
L 201.268136 313.1363 
L 202.081399 318.487077 
L 203.707925 294.408574 
L 204.521188 301.542948 
L 205.334451 299.759356 
L 206.147714 324.729652 
L 206.960976 322.054262 
L 207.774239 317.595284 
L 208.587502 316.703485 
L 209.400765 308.677317 
L 210.214028 307.785524 
L 211.027291 307.785524 
L 212.653817 297.083965 
L 213.46708 295.300378 
L 214.280343 328.296837 
L 215.093605 326.513245 
L 215.906868 320.270669 
L 216.720131 310.46091 
L 217.533394 314.919893 
L 218.346657 307.785524 
L 219.15992 306.893725 
L 219.973183 297.083965 
L 220.786446 302.434747 
L 221.599709 301.542948 
L 222.412971 320.270669 
L 223.226234 319.378876 
L 224.039497 317.595284 
L 224.85276 321.162468 
L 225.666023 312.244502 
L 227.292549 314.028094 
L 228.105812 300.65115 
L 228.919075 299.759356 
L 229.732337 297.975769 
L 230.5456 321.162468 
L 231.358863 313.1363 
L 232.172126 309.569116 
L 232.985389 315.811691 
L 233.798652 315.811691 
L 235.425178 303.326541 
L 236.238441 303.326541 
L 237.051703 302.434747 
L 237.864966 302.434747 
L 238.678229 318.487077 
L 239.491492 314.919893 
L 240.304755 316.703485 
L 241.118018 310.46091 
L 241.931281 308.677317 
L 242.744544 305.110133 
L 243.557807 296.192172 
L 244.371069 298.867563 
L 245.184332 303.326541 
L 245.997595 294.408574 
L 246.810858 315.811691 
L 247.624121 311.352708 
L 248.437384 315.811691 
L 249.250647 304.218339 
L 250.06391 307.785524 
L 250.877173 303.326541 
L 251.690435 309.569116 
L 252.503698 295.300378 
L 253.316961 294.408574 
L 254.130224 299.759356 
L 254.943487 314.919893 
L 255.75675 315.811691 
L 256.570013 302.434747 
L 257.383276 298.867563 
L 258.196539 314.919893 
L 259.009801 302.434747 
L 260.636327 302.434747 
L 261.44959 303.326541 
L 262.262853 306.893725 
L 263.076116 329.188631 
L 263.889379 312.244502 
L 264.702642 314.028094 
L 265.515905 314.919893 
L 266.329167 307.785524 
L 267.14243 306.001931 
L 267.955693 315.811691 
L 268.768956 297.975769 
L 269.582219 298.867563 
L 270.395482 296.192172 
L 271.208745 317.595284 
L 272.022008 307.785524 
L 272.835271 309.569116 
L 273.648533 300.65115 
L 274.461796 306.893725 
L 275.275059 303.326541 
L 276.088322 293.516781 
L 277.714848 302.434747 
L 278.528111 290.84139 
L 279.341374 315.811691 
L 280.154637 312.244502 
L 280.967899 307.785524 
L 281.781162 306.001931 
L 282.594425 311.352708 
L 283.407688 314.028094 
L 284.220951 301.542948 
L 285.034214 306.001931 
L 285.847477 300.65115 
L 286.66074 306.001931 
L 287.474003 317.595284 
L 288.287265 320.270669 
L 289.100528 311.352708 
L 289.913791 306.001931 
L 290.727054 299.759356 
L 292.35358 301.542948 
L 293.166843 297.083965 
L 293.980106 297.083965 
L 294.793369 301.542948 
L 295.606631 314.028094 
L 296.419894 318.487077 
L 298.04642 303.326541 
L 298.859683 304.218339 
L 299.672946 313.1363 
L 300.486209 298.867563 
L 301.299472 294.408574 
L 302.112735 307.785524 
L 302.925997 298.867563 
L 303.73926 310.46091 
L 304.552523 311.352708 
L 305.365786 316.703485 
L 306.992312 307.785524 
L 307.805575 306.893725 
L 308.618838 309.569116 
L 309.432101 297.975769 
L 310.245363 299.759356 
L 311.058626 303.326541 
L 311.871889 314.919893 
L 312.685152 312.244502 
L 313.498415 305.110133 
L 314.311678 306.001931 
L 315.124941 309.569116 
L 315.938204 310.46091 
L 316.751467 302.434747 
L 317.564729 297.975769 
L 318.377992 297.975769 
L 319.191255 295.300378 
L 320.004518 314.028094 
L 320.817781 310.46091 
L 321.631044 309.569116 
L 322.444307 305.110133 
L 323.25757 308.677317 
L 324.070833 306.893725 
L 324.884095 302.434747 
L 325.697358 308.677317 
L 326.510621 293.516781 
L 327.323884 300.65115 
L 328.137147 306.001931 
L 328.95041 316.703485 
L 329.763673 305.110133 
L 330.576936 306.001931 
L 331.390199 304.218339 
L 332.203461 301.542948 
L 333.016724 309.569116 
L 333.829987 293.516781 
L 334.64325 304.218339 
L 335.456513 309.569116 
L 336.269776 306.001931 
L 337.083039 313.1363 
L 337.896302 313.1363 
L 338.709565 311.352708 
L 339.522827 305.110133 
L 340.33609 306.893725 
L 341.149353 306.001931 
L 341.962616 306.893725 
L 342.775879 301.542948 
L 343.589142 302.434747 
L 344.402405 305.110133 
L 345.215668 304.218339 
L 346.028931 306.001931 
L 346.842193 308.677317 
L 347.655456 306.893725 
L 348.468719 306.893725 
L 349.281982 308.677317 
L 350.095245 300.65115 
L 350.908508 295.300378 
L 351.721771 300.65115 
L 352.535034 316.703485 
L 353.348297 306.893725 
L 354.161559 304.218339 
L 354.974822 297.083965 
L 355.788085 314.028094 
L 356.601348 309.569116 
L 357.414611 297.975769 
L 358.227874 304.218339 
L 359.041137 296.192172 
L 359.8544 305.110133 
L 361.480925 314.028094 
L 362.294188 306.893725 
L 363.107451 301.542948 
L 364.733977 314.919893 
L 365.54724 308.677317 
L 366.360503 297.083965 
L 367.173766 304.218339 
L 367.987029 308.677317 
L 368.800291 317.595284 
L 369.613554 308.677317 
L 370.426817 306.001931 
L 372.053343 302.434747 
L 372.866606 312.244502 
L 373.679869 303.326541 
L 374.493132 302.434747 
L 375.306395 303.326541 
L 376.119657 295.300378 
L 376.93292 318.487077 
L 377.746183 302.434747 
L 378.559446 314.028094 
L 379.372709 306.893725 
L 380.185972 304.218339 
L 380.999235 310.46091 
L 381.812498 303.326541 
L 382.625761 303.326541 
L 383.439024 302.434747 
L 384.252286 307.785524 
L 385.065549 312.244502 
L 385.878812 312.244502 
L 386.692075 313.1363 
L 387.505338 309.569116 
L 388.318601 313.1363 
L 389.131864 307.785524 
L 389.945127 301.542948 
L 390.75839 297.975769 
L 391.571652 308.677317 
L 392.384915 300.65115 
L 393.198178 312.244502 
L 394.011441 311.352708 
L 394.824704 307.785524 
L 395.637967 309.569116 
L 396.45123 309.569116 
L 397.264493 305.110133 
L 398.077756 303.326541 
L 399.704281 310.46091 
L 400.517544 306.893725 
L 401.330807 309.569116 
L 402.14407 304.218339 
L 402.957333 310.46091 
L 403.770596 306.001931 
L 404.583859 308.677317 
L 405.397122 306.893725 
L 406.210384 302.434747 
L 407.023647 305.110133 
L 407.83691 299.759356 
L 408.650173 304.218339 
L 409.463436 310.46091 
L 410.276699 314.028094 
L 411.089962 311.352708 
L 411.903225 306.893725 
L 412.716488 308.677317 
L 413.52975 305.110133 
L 414.343013 303.326541 
L 415.969539 301.542948 
L 416.782802 297.975769 
L 417.596065 308.677317 
L 418.409328 305.110133 
L 419.222591 305.110133 
L 420.035854 307.785524 
L 420.849116 302.434747 
L 421.662379 301.542948 
L 422.475642 304.218339 
L 423.288905 309.569116 
L 424.102168 310.46091 
L 424.915431 307.785524 
L 425.728694 309.569116 
L 426.541957 305.110133 
L 427.35522 308.677317 
L 428.168482 304.218339 
L 428.981745 311.352708 
L 429.795008 310.46091 
L 430.608271 306.001931 
L 431.421534 306.893725 
L 433.04806 305.110133 
L 433.861323 308.677317 
L 434.674586 300.65115 
L 435.487848 313.1363 
L 436.301111 309.569116 
L 437.114374 297.975769 
L 437.927637 308.677317 
L 438.7409 305.110133 
L 439.554163 306.001931 
L 440.367426 305.110133 
L 441.180689 298.867563 
L 441.993952 316.703485 
L 442.807214 311.352708 
L 443.620477 302.434747 
L 444.43374 307.785524 
L 445.247003 312.244502 
L 446.060266 308.677317 
L 446.873529 303.326541 
L 447.686792 306.893725 
L 448.500055 301.542948 
L 449.313318 303.326541 
L 450.12658 312.244502 
L 450.939843 314.028094 
L 451.753106 308.677317 
L 452.566369 307.785524 
L 453.379632 305.110133 
L 454.192895 310.46091 
L 455.006158 306.893725 
L 455.819421 306.893725 
L 456.632684 297.083965 
L 457.445946 306.893725 
L 459.072472 305.110133 
L 459.885735 306.893725 
L 460.698998 303.326541 
L 461.512261 311.352708 
L 462.325524 307.785524 
L 463.138787 308.677317 
L 463.95205 303.326541 
L 464.765312 308.677317 
L 465.578575 302.434747 
L 466.391838 304.218339 
L 467.205101 306.893725 
L 468.018364 306.893725 
L 468.831627 306.001931 
L 469.64489 294.408574 
L 470.458153 306.893725 
L 471.271416 312.244502 
L 472.084678 308.677317 
L 472.897941 303.326541 
L 474.524467 310.46091 
L 475.33773 307.785524 
L 476.150993 310.46091 
L 476.964256 308.677317 
L 477.777519 307.785524 
L 478.590782 305.110133 
L 479.404044 309.569116 
L 481.03057 309.569116 
L 481.843833 302.434747 
L 482.657096 306.001931 
L 483.470359 306.893725 
L 484.283622 314.919893 
L 485.096885 307.785524 
L 485.910148 311.352708 
L 486.72341 307.785524 
L 487.536673 313.1363 
L 488.349936 302.434747 
L 489.163199 302.434747 
L 489.976462 314.028094 
L 490.789725 299.759356 
L 491.602988 304.218339 
L 492.416251 301.542948 
L 493.229514 313.1363 
L 494.042776 310.46091 
L 494.856039 315.811691 
L 495.669302 311.352708 
L 496.482565 304.218339 
L 497.295828 305.110133 
L 498.109091 314.028094 
L 498.109091 314.028094 
" clip-path="url(#p93a0486412)" style="fill: none; stroke: #008000; stroke-width: 1.5; stroke-linecap: square"/>
   </g>
   <g id="patch_3">
    <path d="M 72 384.48 
L 72 51.84 
" style="fill: none; stroke: #000000; stroke-width: 0.8; stroke-linejoin: miter; stroke-linecap: square"/>
   </g>
   <g id="patch_4">
    <path d="M 518.4 384.48 
L 518.4 51.84 
" style="fill: none; stroke: #000000; stroke-width: 0.8; stroke-linejoin: miter; stroke-linecap: square"/>
   </g>
   <g id="patch_5">
    <path d="M 72 384.48 
L 518.4 384.48 
" style="fill: none; stroke: #000000; stroke-width: 0.8; stroke-linejoin: miter; stroke-linecap: square"/>
   </g>
   <g id="patch_6">
    <path d="M 72 51.84 
L 518.4 51.84 
" style="fill: none; stroke: #000000; stroke-width: 0.8; stroke-linejoin: miter; stroke-linecap: square"/>
   </g>
   <g id="legend_1">
    <g id="patch_7">
     <path d="M 79 89.19625 
L 156.107812 89.19625 
Q 158.107812 89.19625 158.107812 87.19625 
L 158.107812 58.84 
Q 158.107812 56.84 156.107812 56.84 
L 79 56.84 
Q 77 56.84 77 58.84 
L 77 87.19625 
Q 77 89.19625 79 89.19625 
z
" style="fill: #ffffff; opacity: 0.8; stroke: #cccccc; stroke-linejoin: miter"/>
    </g>
    <g id="line2d_15">
     <path d="M 81 64.938437 
L 91 64.938437 
L 101 64.938437 
" style="fill: none; stroke: #0000ff; stroke-width: 1.5; stroke-linecap: square"/>
    </g>
    <g id="text_15">
     <!-- precision -->
     <g transform="translate(109 68.438437) scale(0.1 -0.1)">
      <defs>
       <path id="DejaVuSans-69" d="M 603 3500 
L 1178 3500 
L 1178 0 
L 603 0 
L 603 3500 
z
M 603 4863 
L 1178 4863 
L 1178 4134 
L 603 4134 
L 603 4863 
z
" transform="scale(0.015625)"/>
       <path id="DejaVuSans-73" d="M 2834 3397 
L 2834 2853 
Q 2591 2978 2328 3040 
Q 2066 3103 1784 3103 
Q 1356 3103 1142 2972 
Q 928 2841 928 2578 
Q 928 2378 1081 2264 
Q 1234 2150 1697 2047 
L 1894 2003 
Q 2506 1872 2764 1633 
Q 3022 1394 3022 966 
Q 3022 478 2636 193 
Q 2250 -91 1575 -91 
Q 1294 -91 989 -36 
Q 684 19 347 128 
L 347 722 
Q 666 556 975 473 
Q 1284 391 1588 391 
Q 1994 391 2212 530 
Q 2431 669 2431 922 
Q 2431 1156 2273 1281 
Q 2116 1406 1581 1522 
L 1381 1569 
Q 847 1681 609 1914 
Q 372 2147 372 2553 
Q 372 3047 722 3315 
Q 1072 3584 1716 3584 
Q 2034 3584 2315 3537 
Q 2597 3491 2834 3397 
z
" transform="scale(0.015625)"/>
       <path id="DejaVuSans-6e" d="M 3513 2113 
L 3513 0 
L 2938 0 
L 2938 2094 
Q 2938 2591 2744 2837 
Q 2550 3084 2163 3084 
Q 1697 3084 1428 2787 
Q 1159 2491 1159 1978 
L 1159 0 
L 581 0 
L 581 3500 
L 1159 3500 
L 1159 2956 
Q 1366 3272 1645 3428 
Q 1925 3584 2291 3584 
Q 2894 3584 3203 3211 
Q 3513 2838 3513 2113 
z
" transform="scale(0.015625)"/>
      </defs>
      <use xlink:href="#DejaVuSans-70"/>
      <use xlink:href="#DejaVuSans-72" x="63.476562"/>
      <use xlink:href="#DejaVuSans-65" x="102.339844"/>
      <use xlink:href="#DejaVuSans-63" x="163.863281"/>
      <use xlink:href="#DejaVuSans-69" x="218.84375"/>
      <use xlink:href="#DejaVuSans-73" x="246.626953"/>
      <use xlink:href="#DejaVuSans-69" x="298.726562"/>
      <use xlink:href="#DejaVuSans-6f" x="326.509766"/>
      <use xlink:href="#DejaVuSans-6e" x="387.691406"/>
     </g>
    </g>
    <g id="line2d_16">
     <path d="M 81 79.616562 
L 91 79.616562 
L 101 79.616562 
" style="fill: none; stroke: #008000; stroke-width: 1.5; stroke-linecap: square"/>
    </g>
    <g id="text_16">
     <!-- recall -->
     <g transform="translate(109 83.116562) scale(0.1 -0.1)">
      <defs>
       <path id="DejaVuSans-6c" d="M 603 4863 
L 1178 4863 
L 1178 0 
L 603 0 
L 603 4863 
z
" transform="scale(0.015625)"/>
      </defs>
      <use xlink:href="#DejaVuSans-72"/>
      <use xlink:href="#DejaVuSans-65" x="38.863281"/>
      <use xlink:href="#DejaVuSans-63" x="100.386719"/>
      <use xlink:href="#DejaVuSans-61" x="155.367188"/>
      <use xlink:href="#DejaVuSans-6c" x="216.646484"/>
      <use xlink:href="#DejaVuSans-6c" x="244.429688"/>
     </g>
    </g>
   </g>
  </g>
  <g id="axes_2">
   <g id="matplotlib.axis_3">
    <g id="ytick_7">
     <g id="line2d_17">
      <defs>
       <path id="mc5c2e1bf38" d="M 0 0 
L 3.5 0 
" style="stroke: #000000; stroke-width: 0.8"/>
      </defs>
      <g>
       <use xlink:href="#mc5c2e1bf38" x="518.4" y="358.220197" style="stroke: #000000; stroke-width: 0.8"/>
      </g>
     </g>
     <g id="text_17">
      <!-- 0.4 -->
      <g transform="translate(525.4 362.019416) scale(0.1 -0.1)">
       <use xlink:href="#DejaVuSans-30"/>
       <use xlink:href="#DejaVuSans-2e" x="63.623047"/>
       <use xlink:href="#DejaVuSans-34" x="95.410156"/>
      </g>
     </g>
    </g>
    <g id="ytick_8">
     <g id="line2d_18">
      <g>
       <use xlink:href="#mc5c2e1bf38" x="518.4" y="287.150059" style="stroke: #000000; stroke-width: 0.8"/>
      </g>
     </g>
     <g id="text_18">
      <!-- 0.6 -->
      <g transform="translate(525.4 290.949277) scale(0.1 -0.1)">
       <use xlink:href="#DejaVuSans-30"/>
       <use xlink:href="#DejaVuSans-2e" x="63.623047"/>
       <use xlink:href="#DejaVuSans-36" x="95.410156"/>
      </g>
     </g>
    </g>
    <g id="ytick_9">
     <g id="line2d_19">
      <g>
       <use xlink:href="#mc5c2e1bf38" x="518.4" y="216.079921" style="stroke: #000000; stroke-width: 0.8"/>
      </g>
     </g>
     <g id="text_19">
      <!-- 0.8 -->
      <g transform="translate(525.4 219.879139) scale(0.1 -0.1)">
       <use xlink:href="#DejaVuSans-30"/>
       <use xlink:href="#DejaVuSans-2e" x="63.623047"/>
       <use xlink:href="#DejaVuSans-38" x="95.410156"/>
      </g>
     </g>
    </g>
    <g id="ytick_10">
     <g id="line2d_20">
      <g>
       <use xlink:href="#mc5c2e1bf38" x="518.4" y="145.009782" style="stroke: #000000; stroke-width: 0.8"/>
      </g>
     </g>
     <g id="text_20">
      <!-- 1.0 -->
      <g transform="translate(525.4 148.809001) scale(0.1 -0.1)">
       <use xlink:href="#DejaVuSans-31"/>
       <use xlink:href="#DejaVuSans-2e" x="63.623047"/>
       <use xlink:href="#DejaVuSans-30" x="95.410156"/>
      </g>
     </g>
    </g>
    <g id="ytick_11">
     <g id="line2d_21">
      <g>
       <use xlink:href="#mc5c2e1bf38" x="518.4" y="73.939644" style="stroke: #000000; stroke-width: 0.8"/>
      </g>
     </g>
     <g id="text_21">
      <!-- 1.2 -->
      <g transform="translate(525.4 77.738863) scale(0.1 -0.1)">
       <use xlink:href="#DejaVuSans-31"/>
       <use xlink:href="#DejaVuSans-2e" x="63.623047"/>
       <use xlink:href="#DejaVuSans-32" x="95.410156"/>
      </g>
     </g>
    </g>
    <g id="text_22">
     <!-- loss -->
     <g transform="translate(552.901563 227.817812) rotate(-90) scale(0.1 -0.1)">
      <use xlink:href="#DejaVuSans-6c"/>
      <use xlink:href="#DejaVuSans-6f" x="27.783203"/>
      <use xlink:href="#DejaVuSans-73" x="88.964844"/>
      <use xlink:href="#DejaVuSans-73" x="141.064453"/>
     </g>
    </g>
   </g>
   <g id="line2d_22">
    <path d="M 92.290909 66.96 
L 93.104172 114.990586 
L 93.917435 182.35442 
L 94.730698 234.993471 
L 95.543961 265.287273 
L 96.357224 278.427941 
L 97.170486 281.444115 
L 97.983749 282.596825 
L 98.797012 282.830912 
L 99.610275 280.686551 
L 100.423538 336.075409 
L 101.236801 334.603191 
L 102.050064 333.613932 
L 102.863327 333.645248 
L 103.67659 332.579527 
L 104.489852 332.541773 
L 106.116378 337.081358 
L 106.929641 338.30714 
L 107.742904 340.482319 
L 108.556167 330.785895 
L 109.36943 334.895133 
L 110.182693 336.253961 
L 110.995956 342.434785 
L 111.809218 345.970603 
L 112.622481 345.309431 
L 113.435744 347.371696 
L 114.249007 350.183097 
L 115.06227 351.278618 
L 115.875533 348.037147 
L 116.688796 341.429704 
L 117.502059 347.093839 
L 118.315322 346.141858 
L 119.128584 349.341212 
L 119.941847 354.174328 
L 120.75511 354.912492 
L 121.568373 355.304702 
L 122.381636 355.953378 
L 123.194899 355.657623 
L 124.008162 357.234378 
L 124.821425 351.940966 
L 125.634688 352.446567 
L 126.44795 354.437867 
L 127.261213 354.693495 
L 128.074476 354.545994 
L 128.887739 356.920916 
L 129.701002 357.368429 
L 130.514265 357.632064 
L 131.327528 359.497382 
L 132.140791 358.752441 
L 132.954054 353.54714 
L 133.767316 353.696802 
L 134.580579 355.942957 
L 135.393842 357.10184 
L 136.207105 357.758353 
L 137.833631 360.610007 
L 138.646894 359.964869 
L 139.460157 361.798501 
L 140.27342 361.76081 
L 141.086682 355.09637 
L 141.899945 356.423862 
L 142.713208 356.417454 
L 143.526471 359.212715 
L 144.339734 360.393796 
L 145.152997 361.942984 
L 145.96626 362.321014 
L 146.779523 363.311226 
L 147.592786 363.770908 
L 148.406048 364.017068 
L 149.219311 356.105327 
L 150.032574 358.030989 
L 150.845837 360.340463 
L 151.6591 361.696982 
L 153.285626 362.883919 
L 154.098889 364.459593 
L 154.912152 364.685251 
L 155.725414 366.115129 
L 156.538677 366.070967 
L 157.35194 357.512351 
L 158.978466 361.896217 
L 159.791729 361.64276 
L 160.604992 363.184609 
L 161.418255 363.937874 
L 162.231518 365.190704 
L 163.04478 366.684017 
L 163.858043 366.978935 
L 164.671306 367.940776 
L 165.484569 358.897856 
L 166.297832 361.356293 
L 167.924358 363.592504 
L 168.737621 365.083689 
L 169.550884 367.561909 
L 170.364146 367.130938 
L 171.177409 367.923588 
L 171.990672 369.36 
L 172.803935 367.637629 
L 173.617198 359.610603 
L 174.430461 361.321017 
L 175.243724 362.383772 
L 176.056987 364.203266 
L 176.87025 363.992446 
L 177.683512 364.192771 
L 178.496775 364.576097 
L 179.310038 365.873311 
L 180.123301 366.521647 
L 180.936564 366.390646 
L 181.749827 360.432927 
L 182.56309 362.113487 
L 183.376353 361.788885 
L 184.189616 362.851058 
L 185.002878 364.69313 
L 185.816141 365.250571 
L 186.629404 366.492884 
L 187.442667 365.880703 
L 188.25593 366.231357 
L 189.069193 367.037605 
L 189.882456 359.902344 
L 190.695719 362.905746 
L 191.508982 362.677091 
L 192.322244 363.267255 
L 193.135507 364.805281 
L 193.94877 365.240605 
L 194.762033 366.366193 
L 195.575296 366.752399 
L 196.388559 366.484306 
L 197.201822 366.751064 
L 198.015085 361.384961 
L 200.454873 364.4624 
L 201.268136 365.109582 
L 202.081399 364.722105 
L 202.894662 365.904181 
L 203.707925 367.624847 
L 204.521188 366.959057 
L 205.334451 367.157826 
L 206.147714 361.322934 
L 207.774239 364.845185 
L 208.587502 364.285796 
L 209.400765 364.347644 
L 211.027291 367.029557 
L 211.840554 366.397392 
L 212.653817 366.302206 
L 213.46708 365.595104 
L 214.280343 361.389345 
L 215.093605 363.602226 
L 215.906868 363.924986 
L 216.720131 364.796671 
L 217.533394 365.371723 
L 218.346657 366.66182 
L 219.15992 366.312044 
L 219.973183 366.252284 
L 220.786446 366.841982 
L 221.599709 367.092527 
L 222.412971 361.576603 
L 223.226234 363.195009 
L 224.039497 362.52026 
L 224.85276 363.587219 
L 225.666023 365.45311 
L 226.479286 365.430806 
L 227.292549 365.690586 
L 228.105812 367.136455 
L 228.919075 366.856215 
L 229.732337 367.482185 
L 230.5456 362.492174 
L 231.358863 362.658177 
L 232.172126 364.10501 
L 232.985389 364.496363 
L 233.798652 364.615122 
L 234.611915 365.639202 
L 235.425178 366.338478 
L 237.051703 367.278153 
L 237.864966 366.062824 
L 238.678229 362.685595 
L 239.491492 363.575358 
L 240.304755 363.596708 
L 241.118018 363.903127 
L 241.931281 365.448937 
L 242.744544 365.965922 
L 243.557807 366.955425 
L 244.371069 367.16238 
L 245.997595 367.837658 
L 246.810858 362.547276 
L 247.624121 363.661563 
L 248.437384 364.472609 
L 249.250647 364.699442 
L 250.06391 365.51142 
L 250.877173 366.561276 
L 251.690435 365.348149 
L 252.503698 367.385973 
L 253.316961 367.8585 
L 254.130224 367.138224 
L 254.943487 362.77144 
L 255.75675 364.290604 
L 256.570013 365.502312 
L 257.383276 365.158742 
L 258.196539 365.477647 
L 259.009801 366.312468 
L 259.823064 366.553153 
L 260.636327 366.298404 
L 261.44959 367.595575 
L 262.262853 366.429681 
L 263.076116 362.624955 
L 263.889379 364.025329 
L 264.702642 364.597987 
L 265.515905 364.535706 
L 266.329167 365.471812 
L 267.14243 365.747562 
L 267.955693 365.595379 
L 268.768956 367.018628 
L 269.582219 365.658328 
L 270.395482 367.20275 
L 271.208745 363.722087 
L 272.022008 364.089241 
L 272.835271 365.102889 
L 273.648533 364.878079 
L 274.461796 365.156264 
L 275.275059 366.262482 
L 276.088322 368.159952 
L 276.901585 367.21208 
L 277.714848 366.443735 
L 278.528111 367.749039 
L 279.341374 363.354477 
L 280.154637 364.200555 
L 280.967899 364.328888 
L 281.781162 366.280242 
L 282.594425 364.905306 
L 284.220951 367.07967 
L 285.034214 366.607979 
L 286.66074 367.666212 
L 287.474003 364.770016 
L 288.287265 362.977198 
L 289.913791 365.746058 
L 290.727054 365.704925 
L 291.540317 366.415946 
L 293.166843 366.598236 
L 293.980106 367.189004 
L 294.793369 367.292302 
L 295.606631 364.020224 
L 296.419894 364.041182 
L 297.233157 364.382274 
L 298.04642 366.011704 
L 298.859683 365.85877 
L 299.672946 365.162777 
L 300.486209 367.047581 
L 301.299472 366.96251 
L 302.112735 365.723945 
L 302.925997 367.745354 
L 303.73926 363.73435 
L 306.179049 364.948186 
L 306.992312 365.777543 
L 307.805575 366.103003 
L 308.618838 365.892161 
L 309.432101 366.522611 
L 310.245363 366.934202 
L 311.058626 366.126482 
L 311.871889 363.484737 
L 312.685152 363.885452 
L 313.498415 364.598315 
L 314.311678 365.041466 
L 315.124941 365.235945 
L 315.938204 365.893993 
L 316.751467 365.614071 
L 317.564729 366.954366 
L 319.191255 366.991813 
L 320.004518 363.675182 
L 320.817781 365.446332 
L 321.631044 365.584164 
L 322.444307 365.002949 
L 323.25757 365.320911 
L 324.070833 366.075691 
L 324.884095 365.973219 
L 325.697358 366.927647 
L 326.510621 366.707517 
L 327.323884 367.041736 
L 328.137147 364.044455 
L 328.95041 364.392313 
L 329.763673 365.144043 
L 330.576936 364.679861 
L 331.390199 366.016025 
L 332.203461 365.626748 
L 333.016724 366.108796 
L 333.829987 367.663268 
L 334.64325 366.45298 
L 336.269776 364.442458 
L 337.083039 364.345896 
L 337.896302 364.916521 
L 338.709565 364.871248 
L 340.33609 366.06276 
L 341.149353 365.466665 
L 341.962616 366.049342 
L 342.775879 366.238273 
L 343.589142 365.534464 
L 344.402405 365.037261 
L 345.215668 364.821368 
L 346.028931 365.296321 
L 346.842193 365.626017 
L 347.655456 366.088929 
L 348.468719 366.287655 
L 349.281982 366.893429 
L 350.095245 366.159989 
L 350.908508 367.473374 
L 351.721771 367.279932 
L 352.535034 363.664497 
L 353.348297 364.518581 
L 354.161559 365.652154 
L 354.974822 364.888997 
L 355.788085 365.206674 
L 356.601348 365.109222 
L 357.414611 366.594974 
L 358.227874 366.538782 
L 359.041137 366.241174 
L 359.8544 366.575869 
L 360.667663 363.775038 
L 361.480925 363.958218 
L 362.294188 364.413377 
L 363.107451 365.104541 
L 363.920714 364.878513 
L 364.733977 364.496924 
L 366.360503 366.620274 
L 367.173766 367.004447 
L 367.987029 365.955788 
L 368.800291 364.343238 
L 369.613554 365.051982 
L 370.426817 365.470753 
L 371.24008 364.734104 
L 372.866606 366.470581 
L 373.679869 366.308041 
L 374.493132 365.711449 
L 376.119657 366.476321 
L 376.93292 363.677046 
L 377.746183 365.643438 
L 378.559446 363.200124 
L 379.372709 364.425556 
L 380.185972 365.33685 
L 380.999235 365.788673 
L 381.812498 366.091851 
L 382.625761 366.988467 
L 383.439024 365.427375 
L 384.252286 366.309058 
L 385.065549 364.838503 
L 385.878812 365.336023 
L 386.692075 364.72022 
L 387.505338 365.898092 
L 388.318601 364.343206 
L 389.131864 364.847145 
L 389.945127 366.276631 
L 390.75839 366.589976 
L 391.571652 366.234979 
L 392.384915 366.371488 
L 393.198178 363.954871 
L 394.011441 365.20607 
L 394.824704 364.689625 
L 395.637967 365.689876 
L 396.45123 365.182179 
L 397.264493 366.555991 
L 398.077756 365.410748 
L 398.891018 364.977172 
L 399.704281 365.202131 
L 400.517544 365.700837 
L 401.330807 365.191 
L 402.14407 365.693636 
L 402.957333 364.968679 
L 403.770596 364.990685 
L 404.583859 366.055442 
L 406.210384 366.560831 
L 407.023647 366.127763 
L 407.83691 365.828948 
L 408.650173 365.67881 
L 409.463436 365.275648 
L 410.276699 364.360415 
L 411.089962 363.00844 
L 411.903225 364.998734 
L 412.716488 365.754721 
L 413.52975 364.867912 
L 414.343013 365.7983 
L 415.156276 366.185893 
L 415.969539 366.332134 
L 416.782802 366.659098 
L 418.409328 364.447605 
L 419.222591 363.960707 
L 420.035854 364.316932 
L 420.849116 365.430658 
L 421.662379 365.224137 
L 422.475642 366.304621 
L 423.288905 364.845281 
L 424.102168 365.578975 
L 424.915431 365.233637 
L 425.728694 364.132862 
L 426.541957 365.134935 
L 427.35522 365.632816 
L 428.168482 365.129873 
L 428.981745 365.397521 
L 429.795008 365.119601 
L 430.608271 366.755131 
L 431.421534 365.988279 
L 432.234797 366.181212 
L 433.04806 365.77068 
L 433.861323 363.773555 
L 434.674586 364.807484 
L 435.487848 365.38548 
L 436.301111 364.096781 
L 437.114374 365.617915 
L 437.927637 365.706673 
L 438.7409 365.485293 
L 441.180689 366.146751 
L 441.993952 363.915497 
L 442.807214 364.506487 
L 443.620477 364.775819 
L 444.43374 364.850862 
L 445.247003 363.99629 
L 446.060266 365.106882 
L 446.873529 364.90824 
L 447.686792 365.97413 
L 448.500055 365.060846 
L 449.313318 366.152534 
L 450.12658 364.624082 
L 450.939843 363.827354 
L 451.753106 364.546127 
L 452.566369 364.968435 
L 453.379632 365.912029 
L 454.192895 364.827341 
L 455.006158 365.383447 
L 455.819421 365.190322 
L 457.445946 366.160265 
L 458.259209 365.289744 
L 459.885735 364.844688 
L 460.698998 364.918724 
L 462.325524 365.54946 
L 463.138787 366.497374 
L 463.95205 366.003867 
L 464.765312 365.029075 
L 465.578575 366.105534 
L 466.391838 364.061378 
L 468.018364 365.180368 
L 468.831627 364.468023 
L 469.64489 366.194323 
L 470.458153 363.926627 
L 471.271416 364.767262 
L 472.084678 364.677446 
L 472.897941 364.946111 
L 473.711204 365.538976 
L 474.524467 365.643523 
L 475.33773 364.407532 
L 476.150993 365.170137 
L 476.964256 365.657375 
L 477.777519 365.136577 
L 478.590782 364.972565 
L 479.404044 364.538216 
L 481.03057 365.494772 
L 482.657096 364.060266 
L 483.470359 364.55803 
L 484.283622 364.538788 
L 485.096885 364.850618 
L 485.910148 364.918873 
L 486.72341 365.963423 
L 487.536673 364.068198 
L 488.349936 365.042482 
L 489.163199 365.17359 
L 489.976462 365.104753 
L 490.789725 365.29774 
L 491.602988 364.473064 
L 492.416251 365.2563 
L 493.229514 365.063917 
L 494.042776 365.308669 
L 494.856039 365.364469 
L 495.669302 364.789459 
L 496.482565 365.526108 
L 497.295828 365.320456 
L 498.109091 364.692537 
L 498.109091 364.692537 
" clip-path="url(#p93a0486412)" style="fill: none; stroke: #ff0000; stroke-width: 1.5; stroke-linecap: square"/>
   </g>
   <g id="patch_8">
    <path d="M 72 384.48 
L 72 51.84 
" style="fill: none; stroke: #000000; stroke-width: 0.8; stroke-linejoin: miter; stroke-linecap: square"/>
   </g>
   <g id="patch_9">
    <path d="M 518.4 384.48 
L 518.4 51.84 
" style="fill: none; stroke: #000000; stroke-width: 0.8; stroke-linejoin: miter; stroke-linecap: square"/>
   </g>
   <g id="patch_10">
    <path d="M 72 384.48 
L 518.4 384.48 
" style="fill: none; stroke: #000000; stroke-width: 0.8; stroke-linejoin: miter; stroke-linecap: square"/>
   </g>
   <g id="patch_11">
    <path d="M 72 51.84 
L 518.4 51.84 
" style="fill: none; stroke: #000000; stroke-width: 0.8; stroke-linejoin: miter; stroke-linecap: square"/>
   </g>
   <g id="text_23">
    <!-- The learning curve on _0.001_8_clients_iid/host/6 -->
    <g transform="translate(143.545312 45.84) scale(0.12 -0.12)">
     <defs>
      <path id="DejaVuSans-54" d="M -19 4666 
L 3928 4666 
L 3928 4134 
L 2272 4134 
L 2272 0 
L 1638 0 
L 1638 4134 
L -19 4134 
L -19 4666 
z
" transform="scale(0.015625)"/>
      <path id="DejaVuSans-20" transform="scale(0.015625)"/>
      <path id="DejaVuSans-67" d="M 2906 1791 
Q 2906 2416 2648 2759 
Q 2391 3103 1925 3103 
Q 1463 3103 1205 2759 
Q 947 2416 947 1791 
Q 947 1169 1205 825 
Q 1463 481 1925 481 
Q 2391 481 2648 825 
Q 2906 1169 2906 1791 
z
M 3481 434 
Q 3481 -459 3084 -895 
Q 2688 -1331 1869 -1331 
Q 1566 -1331 1297 -1286 
Q 1028 -1241 775 -1147 
L 775 -588 
Q 1028 -725 1275 -790 
Q 1522 -856 1778 -856 
Q 2344 -856 2625 -561 
Q 2906 -266 2906 331 
L 2906 616 
Q 2728 306 2450 153 
Q 2172 0 1784 0 
Q 1141 0 747 490 
Q 353 981 353 1791 
Q 353 2603 747 3093 
Q 1141 3584 1784 3584 
Q 2172 3584 2450 3431 
Q 2728 3278 2906 2969 
L 2906 3500 
L 3481 3500 
L 3481 434 
z
" transform="scale(0.015625)"/>
      <path id="DejaVuSans-75" d="M 544 1381 
L 544 3500 
L 1119 3500 
L 1119 1403 
Q 1119 906 1312 657 
Q 1506 409 1894 409 
Q 2359 409 2629 706 
Q 2900 1003 2900 1516 
L 2900 3500 
L 3475 3500 
L 3475 0 
L 2900 0 
L 2900 538 
Q 2691 219 2414 64 
Q 2138 -91 1772 -91 
Q 1169 -91 856 284 
Q 544 659 544 1381 
z
M 1991 3584 
L 1991 3584 
z
" transform="scale(0.015625)"/>
      <path id="DejaVuSans-76" d="M 191 3500 
L 800 3500 
L 1894 563 
L 2988 3500 
L 3597 3500 
L 2284 0 
L 1503 0 
L 191 3500 
z
" transform="scale(0.015625)"/>
      <path id="DejaVuSans-3bb" d="M 1981 4316 
L 3597 0 
L 2988 0 
L 2006 2588 
L 800 0 
L 191 0 
L 1725 3356 
L 1494 3975 
Q 1347 4369 1013 4369 
L 713 4369 
L 713 4863 
L 1078 4856 
Q 1784 4847 1981 4316 
z
" transform="scale(0.015625)"/>
      <path id="DejaVuSans-5f" d="M 3263 -1063 
L 3263 -1509 
L -63 -1509 
L -63 -1063 
L 3263 -1063 
z
" transform="scale(0.015625)"/>
      <path id="DejaVuSans-64" d="M 2906 2969 
L 2906 4863 
L 3481 4863 
L 3481 0 
L 2906 0 
L 2906 525 
Q 2725 213 2448 61 
Q 2172 -91 1784 -91 
Q 1150 -91 751 415 
Q 353 922 353 1747 
Q 353 2572 751 3078 
Q 1150 3584 1784 3584 
Q 2172 3584 2448 3432 
Q 2725 3281 2906 2969 
z
M 947 1747 
Q 947 1113 1208 752 
Q 1469 391 1925 391 
Q 2381 391 2643 752 
Q 2906 1113 2906 1747 
Q 2906 2381 2643 2742 
Q 2381 3103 1925 3103 
Q 1469 3103 1208 2742 
Q 947 2381 947 1747 
z
" transform="scale(0.015625)"/>
      <path id="DejaVuSans-2f" d="M 1625 4666 
L 2156 4666 
L 531 -594 
L 0 -594 
L 1625 4666 
z
" transform="scale(0.015625)"/>
     </defs>
     <use xlink:href="#DejaVuSans-54"/>
     <use xlink:href="#DejaVuSans-68" x="61.083984"/>
     <use xlink:href="#DejaVuSans-65" x="124.462891"/>
     <use xlink:href="#DejaVuSans-20" x="185.986328"/>
     <use xlink:href="#DejaVuSans-6c" x="217.773438"/>
     <use xlink:href="#DejaVuSans-65" x="245.556641"/>
     <use xlink:href="#DejaVuSans-61" x="307.080078"/>
     <use xlink:href="#DejaVuSans-72" x="368.359375"/>
     <use xlink:href="#DejaVuSans-6e" x="407.722656"/>
     <use xlink:href="#DejaVuSans-69" x="471.101562"/>
     <use xlink:href="#DejaVuSans-6e" x="498.884766"/>
     <use xlink:href="#DejaVuSans-67" x="562.263672"/>
     <use xlink:href="#DejaVuSans-20" x="625.740234"/>
     <use xlink:href="#DejaVuSans-63" x="657.527344"/>
     <use xlink:href="#DejaVuSans-75" x="712.507812"/>
     <use xlink:href="#DejaVuSans-72" x="775.886719"/>
     <use xlink:href="#DejaVuSans-76" x="817"/>
     <use xlink:href="#DejaVuSans-65" x="876.179688"/>
     <use xlink:href="#DejaVuSans-20" x="937.703125"/>
     <use xlink:href="#DejaVuSans-6f" x="969.490234"/>
     <use xlink:href="#DejaVuSans-6e" x="1030.671875"/>
     <use xlink:href="#DejaVuSans-20" x="1094.050781"/>
     <use xlink:href="#DejaVuSans-3bb" x="1125.837891"/>
     <use xlink:href="#DejaVuSans-5f" x="1185.017578"/>
     <use xlink:href="#DejaVuSans-30" x="1235.017578"/>
     <use xlink:href="#DejaVuSans-2e" x="1298.640625"/>
     <use xlink:href="#DejaVuSans-30" x="1330.427734"/>
     <use xlink:href="#DejaVuSans-30" x="1394.050781"/>
     <use xlink:href="#DejaVuSans-31" x="1457.673828"/>
     <use xlink:href="#DejaVuSans-5f" x="1521.296875"/>
     <use xlink:href="#DejaVuSans-38" x="1571.296875"/>
     <use xlink:href="#DejaVuSans-5f" x="1634.919922"/>
     <use xlink:href="#DejaVuSans-63" x="1684.919922"/>
     <use xlink:href="#DejaVuSans-6c" x="1739.900391"/>
     <use xlink:href="#DejaVuSans-69" x="1767.683594"/>
     <use xlink:href="#DejaVuSans-65" x="1795.466797"/>
     <use xlink:href="#DejaVuSans-6e" x="1856.990234"/>
     <use xlink:href="#DejaVuSans-74" x="1920.369141"/>
     <use xlink:href="#DejaVuSans-73" x="1959.578125"/>
     <use xlink:href="#DejaVuSans-5f" x="2011.677734"/>
     <use xlink:href="#DejaVuSans-69" x="2061.677734"/>
     <use xlink:href="#DejaVuSans-69" x="2089.460938"/>
     <use xlink:href="#DejaVuSans-64" x="2117.244141"/>
     <use xlink:href="#DejaVuSans-2f" x="2180.720703"/>
     <use xlink:href="#DejaVuSans-68" x="2214.412109"/>
     <use xlink:href="#DejaVuSans-6f" x="2277.791016"/>
     <use xlink:href="#DejaVuSans-73" x="2338.972656"/>
     <use xlink:href="#DejaVuSans-74" x="2391.072266"/>
     <use xlink:href="#DejaVuSans-2f" x="2430.28125"/>
     <use xlink:href="#DejaVuSans-36" x="2463.972656"/>
    </g>
   </g>
   <g id="legend_2">
    <g id="patch_12">
     <path d="M 460.084375 74.518125 
L 511.4 74.518125 
Q 513.4 74.518125 513.4 72.518125 
L 513.4 58.84 
Q 513.4 56.84 511.4 56.84 
L 460.084375 56.84 
Q 458.084375 56.84 458.084375 58.84 
L 458.084375 72.518125 
Q 458.084375 74.518125 460.084375 74.518125 
z
" style="fill: #ffffff; opacity: 0.8; stroke: #cccccc; stroke-linejoin: miter"/>
    </g>
    <g id="line2d_23">
     <path d="M 462.084375 64.938438 
L 472.084375 64.938438 
L 482.084375 64.938438 
" style="fill: none; stroke: #ff0000; stroke-width: 1.5; stroke-linecap: square"/>
    </g>
    <g id="text_24">
     <!-- loss -->
     <g transform="translate(490.084375 68.438438) scale(0.1 -0.1)">
      <use xlink:href="#DejaVuSans-6c"/>
      <use xlink:href="#DejaVuSans-6f" x="27.783203"/>
      <use xlink:href="#DejaVuSans-73" x="88.964844"/>
      <use xlink:href="#DejaVuSans-73" x="141.064453"/>
     </g>
    </g>
   </g>
  </g>
 </g>
 <defs>
  <clipPath id="p93a0486412">
   <rect x="72" y="51.84" width="446.4" height="332.64"/>
  </clipPath>
 </defs>
</svg>
