<?xml version="1.0" encoding="utf-8" standalone="no"?>
<!DOCTYPE svg PUBLIC "-//W3C//DTD SVG 1.1//EN"
  "http://www.w3.org/Graphics/SVG/1.1/DTD/svg11.dtd">
<!-- Created with matplotlib (https://matplotlib.org/) -->
<svg height="432pt" version="1.1" viewBox="0 0 576 432" width="576pt" xmlns="http://www.w3.org/2000/svg" xmlns:xlink="http://www.w3.org/1999/xlink">
 <metadata>
  <rdf:RDF xmlns:cc="http://creativecommons.org/ns#" xmlns:dc="http://purl.org/dc/elements/1.1/" xmlns:rdf="http://www.w3.org/1999/02/22-rdf-syntax-ns#">
   <cc:Work>
    <dc:type rdf:resource="http://purl.org/dc/dcmitype/StillImage"/>
    <dc:date>2023-04-18T10:01:55.068438</dc:date>
    <dc:format>image/svg+xml</dc:format>
    <dc:creator>
     <cc:Agent>
      <dc:title>Matplotlib v3.3.4, https://matplotlib.org/</dc:title>
     </cc:Agent>
    </dc:creator>
   </cc:Work>
  </rdf:RDF>
 </metadata>
 <defs>
  <style type="text/css">*{stroke-linecap:butt;stroke-linejoin:round;}</style>
 </defs>
 <g id="figure_1">
  <g id="patch_1">
   <path d="M 0 432 
L 576 432 
L 576 0 
L 0 0 
z
" style="fill:#ffffff;"/>
  </g>
  <g id="axes_1">
   <g id="patch_2">
    <path d="M 72 384.48 
L 518.4 384.48 
L 518.4 51.84 
L 72 51.84 
z
" style="fill:#ffffff;"/>
   </g>
   <g id="matplotlib.axis_1">
    <g id="xtick_1">
     <g id="line2d_1">
      <defs>
       <path d="M 0 0 
L 0 3.5 
" id="m7c0fe599dc" style="stroke:#000000;stroke-width:0.8;"/>
      </defs>
      <g>
       <use style="stroke:#000000;stroke-width:0.8;" x="92.290909" xlink:href="#m7c0fe599dc" y="384.48"/>
      </g>
     </g>
     <g id="text_1">
      <!-- 0 -->
      <g transform="translate(89.109659 399.078438)scale(0.1 -0.1)">
       <defs>
        <path d="M 31.78125 66.40625 
Q 24.171875 66.40625 20.328125 58.90625 
Q 16.5 51.421875 16.5 36.375 
Q 16.5 21.390625 20.328125 13.890625 
Q 24.171875 6.390625 31.78125 6.390625 
Q 39.453125 6.390625 43.28125 13.890625 
Q 47.125 21.390625 47.125 36.375 
Q 47.125 51.421875 43.28125 58.90625 
Q 39.453125 66.40625 31.78125 66.40625 
z
M 31.78125 74.21875 
Q 44.046875 74.21875 50.515625 64.515625 
Q 56.984375 54.828125 56.984375 36.375 
Q 56.984375 17.96875 50.515625 8.265625 
Q 44.046875 -1.421875 31.78125 -1.421875 
Q 19.53125 -1.421875 13.0625 8.265625 
Q 6.59375 17.96875 6.59375 36.375 
Q 6.59375 54.828125 13.0625 64.515625 
Q 19.53125 74.21875 31.78125 74.21875 
z
" id="DejaVuSans-48"/>
       </defs>
       <use xlink:href="#DejaVuSans-48"/>
      </g>
     </g>
    </g>
    <g id="xtick_2">
     <g id="line2d_2">
      <g>
       <use style="stroke:#000000;stroke-width:0.8;" x="173.617198" xlink:href="#m7c0fe599dc" y="384.48"/>
      </g>
     </g>
     <g id="text_2">
      <!-- 100 -->
      <g transform="translate(164.073448 399.078438)scale(0.1 -0.1)">
       <defs>
        <path d="M 12.40625 8.296875 
L 28.515625 8.296875 
L 28.515625 63.921875 
L 10.984375 60.40625 
L 10.984375 69.390625 
L 28.421875 72.90625 
L 38.28125 72.90625 
L 38.28125 8.296875 
L 54.390625 8.296875 
L 54.390625 0 
L 12.40625 0 
z
" id="DejaVuSans-49"/>
       </defs>
       <use xlink:href="#DejaVuSans-49"/>
       <use x="63.623047" xlink:href="#DejaVuSans-48"/>
       <use x="127.246094" xlink:href="#DejaVuSans-48"/>
      </g>
     </g>
    </g>
    <g id="xtick_3">
     <g id="line2d_3">
      <g>
       <use style="stroke:#000000;stroke-width:0.8;" x="254.943487" xlink:href="#m7c0fe599dc" y="384.48"/>
      </g>
     </g>
     <g id="text_3">
      <!-- 200 -->
      <g transform="translate(245.399737 399.078438)scale(0.1 -0.1)">
       <defs>
        <path d="M 19.1875 8.296875 
L 53.609375 8.296875 
L 53.609375 0 
L 7.328125 0 
L 7.328125 8.296875 
Q 12.9375 14.109375 22.625 23.890625 
Q 32.328125 33.6875 34.8125 36.53125 
Q 39.546875 41.84375 41.421875 45.53125 
Q 43.3125 49.21875 43.3125 52.78125 
Q 43.3125 58.59375 39.234375 62.25 
Q 35.15625 65.921875 28.609375 65.921875 
Q 23.96875 65.921875 18.8125 64.3125 
Q 13.671875 62.703125 7.8125 59.421875 
L 7.8125 69.390625 
Q 13.765625 71.78125 18.9375 73 
Q 24.125 74.21875 28.421875 74.21875 
Q 39.75 74.21875 46.484375 68.546875 
Q 53.21875 62.890625 53.21875 53.421875 
Q 53.21875 48.921875 51.53125 44.890625 
Q 49.859375 40.875 45.40625 35.40625 
Q 44.1875 33.984375 37.640625 27.21875 
Q 31.109375 20.453125 19.1875 8.296875 
z
" id="DejaVuSans-50"/>
       </defs>
       <use xlink:href="#DejaVuSans-50"/>
       <use x="63.623047" xlink:href="#DejaVuSans-48"/>
       <use x="127.246094" xlink:href="#DejaVuSans-48"/>
      </g>
     </g>
    </g>
    <g id="xtick_4">
     <g id="line2d_4">
      <g>
       <use style="stroke:#000000;stroke-width:0.8;" x="336.269776" xlink:href="#m7c0fe599dc" y="384.48"/>
      </g>
     </g>
     <g id="text_4">
      <!-- 300 -->
      <g transform="translate(326.726026 399.078438)scale(0.1 -0.1)">
       <defs>
        <path d="M 40.578125 39.3125 
Q 47.65625 37.796875 51.625 33 
Q 55.609375 28.21875 55.609375 21.1875 
Q 55.609375 10.40625 48.1875 4.484375 
Q 40.765625 -1.421875 27.09375 -1.421875 
Q 22.515625 -1.421875 17.65625 -0.515625 
Q 12.796875 0.390625 7.625 2.203125 
L 7.625 11.71875 
Q 11.71875 9.328125 16.59375 8.109375 
Q 21.484375 6.890625 26.8125 6.890625 
Q 36.078125 6.890625 40.9375 10.546875 
Q 45.796875 14.203125 45.796875 21.1875 
Q 45.796875 27.640625 41.28125 31.265625 
Q 36.765625 34.90625 28.71875 34.90625 
L 20.21875 34.90625 
L 20.21875 43.015625 
L 29.109375 43.015625 
Q 36.375 43.015625 40.234375 45.921875 
Q 44.09375 48.828125 44.09375 54.296875 
Q 44.09375 59.90625 40.109375 62.90625 
Q 36.140625 65.921875 28.71875 65.921875 
Q 24.65625 65.921875 20.015625 65.03125 
Q 15.375 64.15625 9.8125 62.3125 
L 9.8125 71.09375 
Q 15.4375 72.65625 20.34375 73.4375 
Q 25.25 74.21875 29.59375 74.21875 
Q 40.828125 74.21875 47.359375 69.109375 
Q 53.90625 64.015625 53.90625 55.328125 
Q 53.90625 49.265625 50.4375 45.09375 
Q 46.96875 40.921875 40.578125 39.3125 
z
" id="DejaVuSans-51"/>
       </defs>
       <use xlink:href="#DejaVuSans-51"/>
       <use x="63.623047" xlink:href="#DejaVuSans-48"/>
       <use x="127.246094" xlink:href="#DejaVuSans-48"/>
      </g>
     </g>
    </g>
    <g id="xtick_5">
     <g id="line2d_5">
      <g>
       <use style="stroke:#000000;stroke-width:0.8;" x="417.596065" xlink:href="#m7c0fe599dc" y="384.48"/>
      </g>
     </g>
     <g id="text_5">
      <!-- 400 -->
      <g transform="translate(408.052315 399.078438)scale(0.1 -0.1)">
       <defs>
        <path d="M 37.796875 64.3125 
L 12.890625 25.390625 
L 37.796875 25.390625 
z
M 35.203125 72.90625 
L 47.609375 72.90625 
L 47.609375 25.390625 
L 58.015625 25.390625 
L 58.015625 17.1875 
L 47.609375 17.1875 
L 47.609375 0 
L 37.796875 0 
L 37.796875 17.1875 
L 4.890625 17.1875 
L 4.890625 26.703125 
z
" id="DejaVuSans-52"/>
       </defs>
       <use xlink:href="#DejaVuSans-52"/>
       <use x="63.623047" xlink:href="#DejaVuSans-48"/>
       <use x="127.246094" xlink:href="#DejaVuSans-48"/>
      </g>
     </g>
    </g>
    <g id="xtick_6">
     <g id="line2d_6">
      <g>
       <use style="stroke:#000000;stroke-width:0.8;" x="498.922354" xlink:href="#m7c0fe599dc" y="384.48"/>
      </g>
     </g>
     <g id="text_6">
      <!-- 500 -->
      <g transform="translate(489.378604 399.078438)scale(0.1 -0.1)">
       <defs>
        <path d="M 10.796875 72.90625 
L 49.515625 72.90625 
L 49.515625 64.59375 
L 19.828125 64.59375 
L 19.828125 46.734375 
Q 21.96875 47.46875 24.109375 47.828125 
Q 26.265625 48.1875 28.421875 48.1875 
Q 40.625 48.1875 47.75 41.5 
Q 54.890625 34.8125 54.890625 23.390625 
Q 54.890625 11.625 47.5625 5.09375 
Q 40.234375 -1.421875 26.90625 -1.421875 
Q 22.3125 -1.421875 17.546875 -0.640625 
Q 12.796875 0.140625 7.71875 1.703125 
L 7.71875 11.625 
Q 12.109375 9.234375 16.796875 8.0625 
Q 21.484375 6.890625 26.703125 6.890625 
Q 35.15625 6.890625 40.078125 11.328125 
Q 45.015625 15.765625 45.015625 23.390625 
Q 45.015625 31 40.078125 35.4375 
Q 35.15625 39.890625 26.703125 39.890625 
Q 22.75 39.890625 18.8125 39.015625 
Q 14.890625 38.140625 10.796875 36.28125 
z
" id="DejaVuSans-53"/>
       </defs>
       <use xlink:href="#DejaVuSans-53"/>
       <use x="63.623047" xlink:href="#DejaVuSans-48"/>
       <use x="127.246094" xlink:href="#DejaVuSans-48"/>
      </g>
     </g>
    </g>
    <g id="text_7">
     <!-- epoch -->
     <g transform="translate(279.971875 412.756563)scale(0.1 -0.1)">
      <defs>
       <path d="M 56.203125 29.59375 
L 56.203125 25.203125 
L 14.890625 25.203125 
Q 15.484375 15.921875 20.484375 11.0625 
Q 25.484375 6.203125 34.421875 6.203125 
Q 39.59375 6.203125 44.453125 7.46875 
Q 49.3125 8.734375 54.109375 11.28125 
L 54.109375 2.78125 
Q 49.265625 0.734375 44.1875 -0.34375 
Q 39.109375 -1.421875 33.890625 -1.421875 
Q 20.796875 -1.421875 13.15625 6.1875 
Q 5.515625 13.8125 5.515625 26.8125 
Q 5.515625 40.234375 12.765625 48.109375 
Q 20.015625 56 32.328125 56 
Q 43.359375 56 49.78125 48.890625 
Q 56.203125 41.796875 56.203125 29.59375 
z
M 47.21875 32.234375 
Q 47.125 39.59375 43.09375 43.984375 
Q 39.0625 48.390625 32.421875 48.390625 
Q 24.90625 48.390625 20.390625 44.140625 
Q 15.875 39.890625 15.1875 32.171875 
z
" id="DejaVuSans-101"/>
       <path d="M 18.109375 8.203125 
L 18.109375 -20.796875 
L 9.078125 -20.796875 
L 9.078125 54.6875 
L 18.109375 54.6875 
L 18.109375 46.390625 
Q 20.953125 51.265625 25.265625 53.625 
Q 29.59375 56 35.59375 56 
Q 45.5625 56 51.78125 48.09375 
Q 58.015625 40.1875 58.015625 27.296875 
Q 58.015625 14.40625 51.78125 6.484375 
Q 45.5625 -1.421875 35.59375 -1.421875 
Q 29.59375 -1.421875 25.265625 0.953125 
Q 20.953125 3.328125 18.109375 8.203125 
z
M 48.6875 27.296875 
Q 48.6875 37.203125 44.609375 42.84375 
Q 40.53125 48.484375 33.40625 48.484375 
Q 26.265625 48.484375 22.1875 42.84375 
Q 18.109375 37.203125 18.109375 27.296875 
Q 18.109375 17.390625 22.1875 11.75 
Q 26.265625 6.109375 33.40625 6.109375 
Q 40.53125 6.109375 44.609375 11.75 
Q 48.6875 17.390625 48.6875 27.296875 
z
" id="DejaVuSans-112"/>
       <path d="M 30.609375 48.390625 
Q 23.390625 48.390625 19.1875 42.75 
Q 14.984375 37.109375 14.984375 27.296875 
Q 14.984375 17.484375 19.15625 11.84375 
Q 23.34375 6.203125 30.609375 6.203125 
Q 37.796875 6.203125 41.984375 11.859375 
Q 46.1875 17.53125 46.1875 27.296875 
Q 46.1875 37.015625 41.984375 42.703125 
Q 37.796875 48.390625 30.609375 48.390625 
z
M 30.609375 56 
Q 42.328125 56 49.015625 48.375 
Q 55.71875 40.765625 55.71875 27.296875 
Q 55.71875 13.875 49.015625 6.21875 
Q 42.328125 -1.421875 30.609375 -1.421875 
Q 18.84375 -1.421875 12.171875 6.21875 
Q 5.515625 13.875 5.515625 27.296875 
Q 5.515625 40.765625 12.171875 48.375 
Q 18.84375 56 30.609375 56 
z
" id="DejaVuSans-111"/>
       <path d="M 48.78125 52.59375 
L 48.78125 44.1875 
Q 44.96875 46.296875 41.140625 47.34375 
Q 37.3125 48.390625 33.40625 48.390625 
Q 24.65625 48.390625 19.8125 42.84375 
Q 14.984375 37.3125 14.984375 27.296875 
Q 14.984375 17.28125 19.8125 11.734375 
Q 24.65625 6.203125 33.40625 6.203125 
Q 37.3125 6.203125 41.140625 7.25 
Q 44.96875 8.296875 48.78125 10.40625 
L 48.78125 2.09375 
Q 45.015625 0.34375 40.984375 -0.53125 
Q 36.96875 -1.421875 32.421875 -1.421875 
Q 20.0625 -1.421875 12.78125 6.34375 
Q 5.515625 14.109375 5.515625 27.296875 
Q 5.515625 40.671875 12.859375 48.328125 
Q 20.21875 56 33.015625 56 
Q 37.15625 56 41.109375 55.140625 
Q 45.0625 54.296875 48.78125 52.59375 
z
" id="DejaVuSans-99"/>
       <path d="M 54.890625 33.015625 
L 54.890625 0 
L 45.90625 0 
L 45.90625 32.71875 
Q 45.90625 40.484375 42.875 44.328125 
Q 39.84375 48.1875 33.796875 48.1875 
Q 26.515625 48.1875 22.3125 43.546875 
Q 18.109375 38.921875 18.109375 30.90625 
L 18.109375 0 
L 9.078125 0 
L 9.078125 75.984375 
L 18.109375 75.984375 
L 18.109375 46.1875 
Q 21.34375 51.125 25.703125 53.5625 
Q 30.078125 56 35.796875 56 
Q 45.21875 56 50.046875 50.171875 
Q 54.890625 44.34375 54.890625 33.015625 
z
" id="DejaVuSans-104"/>
      </defs>
      <use xlink:href="#DejaVuSans-101"/>
      <use x="61.523438" xlink:href="#DejaVuSans-112"/>
      <use x="125" xlink:href="#DejaVuSans-111"/>
      <use x="186.181641" xlink:href="#DejaVuSans-99"/>
      <use x="241.162109" xlink:href="#DejaVuSans-104"/>
     </g>
    </g>
   </g>
   <g id="matplotlib.axis_2">
    <g id="ytick_1">
     <g id="line2d_7">
      <defs>
       <path d="M 0 0 
L -3.5 0 
" id="m32cc5c14b0" style="stroke:#000000;stroke-width:0.8;"/>
      </defs>
      <g>
       <use style="stroke:#000000;stroke-width:0.8;" x="72" xlink:href="#m32cc5c14b0" y="384.48"/>
      </g>
     </g>
     <g id="text_8">
      <!-- 0.0 -->
      <g transform="translate(49.096875 388.279219)scale(0.1 -0.1)">
       <defs>
        <path d="M 10.6875 12.40625 
L 21 12.40625 
L 21 0 
L 10.6875 0 
z
" id="DejaVuSans-46"/>
       </defs>
       <use xlink:href="#DejaVuSans-48"/>
       <use x="63.623047" xlink:href="#DejaVuSans-46"/>
       <use x="95.410156" xlink:href="#DejaVuSans-48"/>
      </g>
     </g>
    </g>
    <g id="ytick_2">
     <g id="line2d_8">
      <g>
       <use style="stroke:#000000;stroke-width:0.8;" x="72" xlink:href="#m32cc5c14b0" y="317.952"/>
      </g>
     </g>
     <g id="text_9">
      <!-- 0.2 -->
      <g transform="translate(49.096875 321.751219)scale(0.1 -0.1)">
       <use xlink:href="#DejaVuSans-48"/>
       <use x="63.623047" xlink:href="#DejaVuSans-46"/>
       <use x="95.410156" xlink:href="#DejaVuSans-50"/>
      </g>
     </g>
    </g>
    <g id="ytick_3">
     <g id="line2d_9">
      <g>
       <use style="stroke:#000000;stroke-width:0.8;" x="72" xlink:href="#m32cc5c14b0" y="251.424"/>
      </g>
     </g>
     <g id="text_10">
      <!-- 0.4 -->
      <g transform="translate(49.096875 255.223219)scale(0.1 -0.1)">
       <use xlink:href="#DejaVuSans-48"/>
       <use x="63.623047" xlink:href="#DejaVuSans-46"/>
       <use x="95.410156" xlink:href="#DejaVuSans-52"/>
      </g>
     </g>
    </g>
    <g id="ytick_4">
     <g id="line2d_10">
      <g>
       <use style="stroke:#000000;stroke-width:0.8;" x="72" xlink:href="#m32cc5c14b0" y="184.896"/>
      </g>
     </g>
     <g id="text_11">
      <!-- 0.6 -->
      <g transform="translate(49.096875 188.695219)scale(0.1 -0.1)">
       <defs>
        <path d="M 33.015625 40.375 
Q 26.375 40.375 22.484375 35.828125 
Q 18.609375 31.296875 18.609375 23.390625 
Q 18.609375 15.53125 22.484375 10.953125 
Q 26.375 6.390625 33.015625 6.390625 
Q 39.65625 6.390625 43.53125 10.953125 
Q 47.40625 15.53125 47.40625 23.390625 
Q 47.40625 31.296875 43.53125 35.828125 
Q 39.65625 40.375 33.015625 40.375 
z
M 52.59375 71.296875 
L 52.59375 62.3125 
Q 48.875 64.0625 45.09375 64.984375 
Q 41.3125 65.921875 37.59375 65.921875 
Q 27.828125 65.921875 22.671875 59.328125 
Q 17.53125 52.734375 16.796875 39.40625 
Q 19.671875 43.65625 24.015625 45.921875 
Q 28.375 48.1875 33.59375 48.1875 
Q 44.578125 48.1875 50.953125 41.515625 
Q 57.328125 34.859375 57.328125 23.390625 
Q 57.328125 12.15625 50.6875 5.359375 
Q 44.046875 -1.421875 33.015625 -1.421875 
Q 20.359375 -1.421875 13.671875 8.265625 
Q 6.984375 17.96875 6.984375 36.375 
Q 6.984375 53.65625 15.1875 63.9375 
Q 23.390625 74.21875 37.203125 74.21875 
Q 40.921875 74.21875 44.703125 73.484375 
Q 48.484375 72.75 52.59375 71.296875 
z
" id="DejaVuSans-54"/>
       </defs>
       <use xlink:href="#DejaVuSans-48"/>
       <use x="63.623047" xlink:href="#DejaVuSans-46"/>
       <use x="95.410156" xlink:href="#DejaVuSans-54"/>
      </g>
     </g>
    </g>
    <g id="ytick_5">
     <g id="line2d_11">
      <g>
       <use style="stroke:#000000;stroke-width:0.8;" x="72" xlink:href="#m32cc5c14b0" y="118.368"/>
      </g>
     </g>
     <g id="text_12">
      <!-- 0.8 -->
      <g transform="translate(49.096875 122.167219)scale(0.1 -0.1)">
       <defs>
        <path d="M 31.78125 34.625 
Q 24.75 34.625 20.71875 30.859375 
Q 16.703125 27.09375 16.703125 20.515625 
Q 16.703125 13.921875 20.71875 10.15625 
Q 24.75 6.390625 31.78125 6.390625 
Q 38.8125 6.390625 42.859375 10.171875 
Q 46.921875 13.96875 46.921875 20.515625 
Q 46.921875 27.09375 42.890625 30.859375 
Q 38.875 34.625 31.78125 34.625 
z
M 21.921875 38.8125 
Q 15.578125 40.375 12.03125 44.71875 
Q 8.5 49.078125 8.5 55.328125 
Q 8.5 64.0625 14.71875 69.140625 
Q 20.953125 74.21875 31.78125 74.21875 
Q 42.671875 74.21875 48.875 69.140625 
Q 55.078125 64.0625 55.078125 55.328125 
Q 55.078125 49.078125 51.53125 44.71875 
Q 48 40.375 41.703125 38.8125 
Q 48.828125 37.15625 52.796875 32.3125 
Q 56.78125 27.484375 56.78125 20.515625 
Q 56.78125 9.90625 50.3125 4.234375 
Q 43.84375 -1.421875 31.78125 -1.421875 
Q 19.734375 -1.421875 13.25 4.234375 
Q 6.78125 9.90625 6.78125 20.515625 
Q 6.78125 27.484375 10.78125 32.3125 
Q 14.796875 37.15625 21.921875 38.8125 
z
M 18.3125 54.390625 
Q 18.3125 48.734375 21.84375 45.5625 
Q 25.390625 42.390625 31.78125 42.390625 
Q 38.140625 42.390625 41.71875 45.5625 
Q 45.3125 48.734375 45.3125 54.390625 
Q 45.3125 60.0625 41.71875 63.234375 
Q 38.140625 66.40625 31.78125 66.40625 
Q 25.390625 66.40625 21.84375 63.234375 
Q 18.3125 60.0625 18.3125 54.390625 
z
" id="DejaVuSans-56"/>
       </defs>
       <use xlink:href="#DejaVuSans-48"/>
       <use x="63.623047" xlink:href="#DejaVuSans-46"/>
       <use x="95.410156" xlink:href="#DejaVuSans-56"/>
      </g>
     </g>
    </g>
    <g id="ytick_6">
     <g id="line2d_12">
      <g>
       <use style="stroke:#000000;stroke-width:0.8;" x="72" xlink:href="#m32cc5c14b0" y="51.84"/>
      </g>
     </g>
     <g id="text_13">
      <!-- 1.0 -->
      <g transform="translate(49.096875 55.639219)scale(0.1 -0.1)">
       <use xlink:href="#DejaVuSans-49"/>
       <use x="63.623047" xlink:href="#DejaVuSans-46"/>
       <use x="95.410156" xlink:href="#DejaVuSans-48"/>
      </g>
     </g>
    </g>
    <g id="text_14">
     <!-- rate -->
     <g transform="translate(43.017187 228.31625)rotate(-90)scale(0.1 -0.1)">
      <defs>
       <path d="M 41.109375 46.296875 
Q 39.59375 47.171875 37.8125 47.578125 
Q 36.03125 48 33.890625 48 
Q 26.265625 48 22.1875 43.046875 
Q 18.109375 38.09375 18.109375 28.8125 
L 18.109375 0 
L 9.078125 0 
L 9.078125 54.6875 
L 18.109375 54.6875 
L 18.109375 46.1875 
Q 20.953125 51.171875 25.484375 53.578125 
Q 30.03125 56 36.53125 56 
Q 37.453125 56 38.578125 55.875 
Q 39.703125 55.765625 41.0625 55.515625 
z
" id="DejaVuSans-114"/>
       <path d="M 34.28125 27.484375 
Q 23.390625 27.484375 19.1875 25 
Q 14.984375 22.515625 14.984375 16.5 
Q 14.984375 11.71875 18.140625 8.90625 
Q 21.296875 6.109375 26.703125 6.109375 
Q 34.1875 6.109375 38.703125 11.40625 
Q 43.21875 16.703125 43.21875 25.484375 
L 43.21875 27.484375 
z
M 52.203125 31.203125 
L 52.203125 0 
L 43.21875 0 
L 43.21875 8.296875 
Q 40.140625 3.328125 35.546875 0.953125 
Q 30.953125 -1.421875 24.3125 -1.421875 
Q 15.921875 -1.421875 10.953125 3.296875 
Q 6 8.015625 6 15.921875 
Q 6 25.140625 12.171875 29.828125 
Q 18.359375 34.515625 30.609375 34.515625 
L 43.21875 34.515625 
L 43.21875 35.40625 
Q 43.21875 41.609375 39.140625 45 
Q 35.0625 48.390625 27.6875 48.390625 
Q 23 48.390625 18.546875 47.265625 
Q 14.109375 46.140625 10.015625 43.890625 
L 10.015625 52.203125 
Q 14.9375 54.109375 19.578125 55.046875 
Q 24.21875 56 28.609375 56 
Q 40.484375 56 46.34375 49.84375 
Q 52.203125 43.703125 52.203125 31.203125 
z
" id="DejaVuSans-97"/>
       <path d="M 18.3125 70.21875 
L 18.3125 54.6875 
L 36.8125 54.6875 
L 36.8125 47.703125 
L 18.3125 47.703125 
L 18.3125 18.015625 
Q 18.3125 11.328125 20.140625 9.421875 
Q 21.96875 7.515625 27.59375 7.515625 
L 36.8125 7.515625 
L 36.8125 0 
L 27.59375 0 
Q 17.1875 0 13.234375 3.875 
Q 9.28125 7.765625 9.28125 18.015625 
L 9.28125 47.703125 
L 2.6875 47.703125 
L 2.6875 54.6875 
L 9.28125 54.6875 
L 9.28125 70.21875 
z
" id="DejaVuSans-116"/>
      </defs>
      <use xlink:href="#DejaVuSans-114"/>
      <use x="41.113281" xlink:href="#DejaVuSans-97"/>
      <use x="102.392578" xlink:href="#DejaVuSans-116"/>
      <use x="141.601562" xlink:href="#DejaVuSans-101"/>
     </g>
    </g>
   </g>
   <g id="line2d_13">
    <path clip-path="url(#p2b24c6fd5c)" d="M 92.290909 348.792394 
L 93.917435 142.857386 
L 94.730698 144.675879 
L 95.543961 142.000151 
L 96.357224 141.860391 
L 97.170486 135.5452 
L 97.983749 133.811596 
L 98.797012 134.680321 
L 99.610275 133.482182 
L 100.423538 310.534641 
L 101.236801 158.693866 
L 102.050064 143.346615 
L 102.863327 153.195265 
L 103.67659 158.561997 
L 104.489852 160.771635 
L 105.303115 149.848823 
L 106.116378 133.492809 
L 107.742904 111.32032 
L 108.556167 263.436 
L 109.36943 175.094996 
L 110.182693 141.69103 
L 110.995956 144.712786 
L 111.809218 153.277209 
L 112.622481 154.629046 
L 113.435744 145.890791 
L 114.249007 140.365642 
L 115.875533 118.153697 
L 116.688796 244.559998 
L 117.502059 165.857777 
L 118.315322 134.822302 
L 119.128584 137.834026 
L 119.941847 146.573451 
L 120.75511 151.625719 
L 121.568373 148.488044 
L 122.381636 138.724729 
L 123.194899 131.880963 
L 124.008162 123.985152 
L 124.821425 236.684877 
L 125.634688 170.618808 
L 126.44795 124.958831 
L 127.261213 128.92055 
L 128.887739 147.656306 
L 129.701002 149.307747 
L 130.514265 143.516779 
L 132.140791 128.789881 
L 132.954054 222.939311 
L 134.580579 118.870568 
L 135.393842 121.990428 
L 137.020368 142.73095 
L 137.833631 145.856848 
L 138.646894 143.226781 
L 139.460157 136.944046 
L 140.27342 127.994863 
L 141.086682 232.634482 
L 141.899945 158.647739 
L 142.713208 116.005355 
L 143.526471 111.943836 
L 145.152997 136.845794 
L 145.96626 142.741151 
L 146.779523 139.44503 
L 147.592786 138.625119 
L 148.406048 131.387115 
L 149.219311 229.396518 
L 150.032574 157.602455 
L 150.845837 101.888709 
L 151.6591 102.880023 
L 152.472363 121.829533 
L 153.285626 133.861173 
L 154.098889 140.571703 
L 154.912152 141.92003 
L 155.725414 138.146617 
L 156.538677 126.890812 
L 157.35194 225.031365 
L 158.165203 162.645048 
L 158.978466 117.088616 
L 159.791729 97.645477 
L 160.604992 109.594647 
L 161.418255 124.819626 
L 162.231518 137.251918 
L 163.04478 139.886981 
L 163.858043 139.748758 
L 164.671306 125.172436 
L 165.484569 222.66338 
L 166.297832 159.300777 
L 167.111095 108.162809 
L 167.924358 99.812794 
L 168.737621 107.91644 
L 169.550884 120.386185 
L 170.364146 126.891635 
L 171.177409 136.779394 
L 171.990672 138.079284 
L 172.803935 128.906394 
L 173.617198 234.598434 
L 174.430461 191.512631 
L 175.243724 135.236921 
L 176.056987 134.00473 
L 176.87025 108.265849 
L 177.683512 93.973914 
L 179.310038 105.808544 
L 180.123301 102.412109 
L 180.936564 112.532378 
L 181.749827 222.781911 
L 182.56309 202.319991 
L 183.376353 160.80421 
L 185.002878 103.859858 
L 185.816141 98.800691 
L 188.25593 115.019869 
L 189.069193 121.418938 
L 189.882456 225.318994 
L 191.508982 171.356745 
L 192.322244 125.447464 
L 193.94877 98.772308 
L 194.762033 100.125047 
L 195.575296 99.839233 
L 196.388559 102.554089 
L 197.201822 112.034524 
L 198.015085 236.428248 
L 198.828348 193.603446 
L 199.64161 177.246164 
L 200.454873 131.752118 
L 201.268136 106.906686 
L 202.081399 105.015657 
L 202.894662 97.151976 
L 203.707925 101.831736 
L 204.521188 99.10197 
L 205.334451 104.550776 
L 206.147714 242.70147 
L 206.960976 199.741871 
L 208.587502 131.444672 
L 209.400765 108.987141 
L 210.214028 94.200614 
L 211.027291 102.421923 
L 211.840554 94.354174 
L 213.46708 102.884683 
L 214.280343 230.207537 
L 215.093605 225.95625 
L 215.906868 181.738421 
L 216.720131 144.874723 
L 217.533394 126.795296 
L 218.346657 100.472395 
L 219.15992 102.002237 
L 219.973183 98.950344 
L 220.786446 104.857171 
L 221.599709 96.122831 
L 222.412971 240.130032 
L 223.226234 204.99097 
L 224.039497 161.269448 
L 224.85276 139.56181 
L 225.666023 105.297526 
L 226.479286 88.552628 
L 227.292549 94.57448 
L 228.105812 91.925885 
L 228.919075 87.772975 
L 229.732337 90.974115 
L 230.5456 241.154512 
L 231.358863 215.679379 
L 232.172126 186.635653 
L 232.985389 144.641925 
L 233.798652 135.582108 
L 234.611915 108.606316 
L 235.425178 102.335637 
L 236.238441 91.150822 
L 237.051703 93.758118 
L 237.864966 92.263735 
L 238.678229 244.559998 
L 241.118018 144.248193 
L 241.931281 130.494221 
L 242.744544 124.04722 
L 243.557807 99.100047 
L 244.371069 96.186 
L 245.184332 93.762202 
L 245.997595 98.539005 
L 246.810858 244.036549 
L 247.624121 210.197982 
L 248.437384 192.648653 
L 249.250647 165.422924 
L 250.06391 120.958399 
L 250.877173 118.069145 
L 251.690435 107.448218 
L 252.503698 106.418855 
L 253.316961 92.461082 
L 254.130224 86.847386 
L 254.943487 234.032773 
L 255.75675 211.351992 
L 257.383276 159.063875 
L 259.009801 109.284951 
L 259.823064 113.203726 
L 260.636327 101.59535 
L 261.44959 97.878651 
L 262.262853 93.607096 
L 263.076116 239.362756 
L 263.889379 222.933502 
L 264.702642 194.513025 
L 267.14243 125.881931 
L 268.768956 99.993764 
L 269.582219 91.515429 
L 270.395482 89.496953 
L 271.208745 245.321168 
L 272.022008 211.753907 
L 272.835271 206.339883 
L 273.648533 168.722723 
L 274.461796 139.748332 
L 275.275059 123.78382 
L 276.088322 104.07265 
L 276.901585 106.496993 
L 277.714848 97.683981 
L 278.528111 86.643368 
L 279.341374 234.479032 
L 280.154637 230.317804 
L 280.967899 213.303939 
L 281.781162 168.221678 
L 282.594425 152.316151 
L 283.407688 122.474403 
L 284.220951 121.984054 
L 285.034214 103.169327 
L 285.847477 100.86353 
L 286.66074 93.645035 
L 287.474003 244.337992 
L 289.100528 210.637619 
L 289.913791 173.849421 
L 290.727054 160.935722 
L 291.540317 136.106935 
L 292.35358 129.31683 
L 293.166843 107.762088 
L 293.980106 107.857594 
L 294.793369 97.351206 
L 295.606631 256.044 
L 296.419894 214.32774 
L 297.233157 192.902893 
L 298.04642 176.394371 
L 298.859683 165.511947 
L 299.672946 135.522022 
L 300.486209 130.339987 
L 301.299472 110.856777 
L 302.112735 107.835853 
L 302.925997 99.36658 
L 303.73926 241.166458 
L 304.552523 227.527744 
L 305.365786 206.080765 
L 306.179049 198.788763 
L 306.992312 161.158081 
L 307.805575 143.326461 
L 308.618838 140.733143 
L 309.432101 115.403301 
L 310.245363 105.522026 
L 311.058626 98.63242 
L 311.871889 255.272729 
L 312.685152 231.533162 
L 313.498415 204.469583 
L 314.311678 189.630901 
L 315.124941 169.851557 
L 315.938204 139.681188 
L 316.751467 129.43257 
L 317.564729 113.101201 
L 318.377992 115.232879 
L 319.191255 98.181665 
L 320.004518 244.655524 
L 320.817781 222.449999 
L 321.631044 204.552003 
L 322.444307 204.441042 
L 323.25757 158.174976 
L 324.070833 162.376621 
L 324.884095 130.388682 
L 325.697358 133.268855 
L 326.510621 115.558982 
L 327.323884 103.849211 
L 328.137147 242.78511 
L 328.95041 236.257682 
L 329.763673 219.113054 
L 330.576936 206.732108 
L 331.390199 188.697957 
L 332.203461 158.903724 
L 333.016724 154.944532 
L 333.829987 123.358117 
L 334.64325 109.435735 
L 335.456513 125.135002 
L 336.269776 242.938417 
L 337.083039 228.395076 
L 337.896302 224.197501 
L 338.709565 210.219361 
L 339.522827 176.864516 
L 340.33609 165.866967 
L 341.149353 150.870235 
L 341.962616 147.892018 
L 342.775879 133.612841 
L 343.589142 126.886827 
L 344.402405 243.682252 
L 345.215668 252.53651 
L 346.028931 220.737838 
L 347.655456 200.255605 
L 348.468719 163.370256 
L 349.281982 145.558195 
L 350.095245 140.960102 
L 350.908508 126.364696 
L 351.721771 126.189 
L 352.535034 256.935482 
L 353.348297 226.115242 
L 354.161559 224.365018 
L 354.974822 215.125832 
L 356.601348 170.095794 
L 357.414611 165.704347 
L 358.227874 158.869116 
L 359.041137 130.735385 
L 359.8544 121.645321 
L 360.667663 244.318938 
L 361.480925 230.303276 
L 362.294188 222.488329 
L 363.107451 221.152106 
L 363.920714 187.007308 
L 364.733977 178.072082 
L 365.54724 155.165929 
L 366.360503 156.795114 
L 367.173766 139.733015 
L 367.987029 127.38124 
L 368.800291 260.273076 
L 369.613554 249.153016 
L 370.426817 234.596327 
L 371.24008 216.968498 
L 372.053343 215.433446 
L 372.866606 174.637441 
L 373.679869 189.626608 
L 374.493132 156.463024 
L 375.306395 141.722852 
L 376.119657 145.057457 
L 376.93292 266.425097 
L 377.746183 240.994767 
L 378.559446 226.719456 
L 379.372709 226.890141 
L 380.185972 198.341141 
L 380.999235 204.82383 
L 381.812498 172.193122 
L 382.625761 155.720001 
L 383.439024 142.85926 
L 384.252286 142.097987 
L 385.065549 255.299416 
L 385.878812 247.117504 
L 386.692075 234.705083 
L 387.505338 226.09538 
L 388.318601 219.267669 
L 389.131864 187.880435 
L 389.945127 181.670911 
L 390.75839 198.179839 
L 391.571652 164.608009 
L 392.384915 157.09565 
L 393.198178 229.992707 
L 394.011441 244.302011 
L 394.824704 252.752885 
L 395.637967 221.797129 
L 396.45123 222.41892 
L 397.264493 208.136368 
L 398.077756 190.827037 
L 398.891018 176.92703 
L 399.704281 153.766874 
L 400.517544 142.958543 
L 401.330807 253.239626 
L 402.14407 259.618065 
L 402.957333 251.574915 
L 403.770596 231.222847 
L 404.583859 223.459792 
L 405.397122 199.749475 
L 406.210384 197.71472 
L 407.023647 180.826236 
L 407.83691 180.350846 
L 408.650173 166.428504 
L 409.463436 259.495411 
L 411.089962 232.242672 
L 411.903225 223.878417 
L 412.716488 227.104014 
L 413.52975 223.040765 
L 414.343013 209.332444 
L 415.969539 167.887049 
L 416.782802 180.363397 
L 417.596065 263.750613 
L 418.409328 245.51163 
L 419.222591 239.265 
L 420.035854 235.613967 
L 420.849116 233.361291 
L 421.662379 212.92584 
L 422.475642 221.968389 
L 423.288905 204.736631 
L 424.915431 174.477467 
L 425.728694 274.286691 
L 426.541957 256.455245 
L 427.35522 245.542976 
L 428.168482 249.183956 
L 428.981745 219.23834 
L 429.795008 238.22617 
L 430.608271 213.763784 
L 431.421534 209.818719 
L 432.234797 200.947147 
L 433.04806 189.732246 
L 433.861323 268.46452 
L 434.674586 254.87116 
L 435.487848 265.460494 
L 436.301111 240.092306 
L 437.114374 229.589666 
L 437.927637 223.540938 
L 438.7409 219.293186 
L 439.554163 214.170002 
L 440.367426 196.823997 
L 441.180689 183.653719 
L 441.993952 267.218688 
L 442.807214 264.271976 
L 444.43374 233.715691 
L 445.247003 237.930516 
L 446.060266 239.543999 
L 446.873529 222.630968 
L 447.686792 228.716336 
L 448.500055 204.359231 
L 449.313318 207.036233 
L 450.12658 263.21377 
L 450.939843 266.706767 
L 454.192895 232.398948 
L 455.006158 236.174012 
L 455.819421 225.02342 
L 456.632684 234.844273 
L 457.445946 192.028507 
L 458.259209 274.086316 
L 459.885735 262.842626 
L 461.512261 252.429871 
L 462.325524 236.98685 
L 463.138787 228.607888 
L 463.95205 242.386391 
L 464.765312 207.331406 
L 465.578575 223.91242 
L 466.391838 277.852235 
L 467.205101 277.478716 
L 468.018364 264.788997 
L 468.831627 256.325101 
L 469.64489 262.628148 
L 470.458153 245.277935 
L 471.271416 236.413789 
L 472.084678 245.999872 
L 472.897941 218.812419 
L 473.711204 223.16964 
L 474.524467 289.220393 
L 475.33773 252.941201 
L 476.150993 264.867159 
L 476.964256 260.703245 
L 477.777519 273.086669 
L 478.590782 258.314402 
L 479.404044 248.71109 
L 480.217307 228.868736 
L 481.03057 226.733459 
L 481.843833 238.260609 
L 482.657096 288.271548 
L 483.470359 261.4311 
L 484.283622 275.003542 
L 485.096885 270.041908 
L 485.910148 252.202104 
L 486.72341 254.268948 
L 487.536673 261.088694 
L 488.349936 248.653602 
L 489.976462 233.422308 
L 490.789725 280.275046 
L 491.602988 274.957469 
L 492.416251 272.017528 
L 493.229514 265.548148 
L 494.042776 276.606164 
L 494.856039 251.879669 
L 495.669302 247.391997 
L 496.482565 258.381179 
L 497.295828 251.008198 
L 498.109091 248.918509 
L 498.109091 248.918509 
" style="fill:none;stroke:#0000ff;stroke-linecap:square;stroke-width:1.5;"/>
   </g>
   <g id="line2d_14">
    <path clip-path="url(#p2b24c6fd5c)" d="M 92.290909 216.347198 
L 93.104172 184.343734 
L 93.917435 162.678357 
L 94.730698 156.366497 
L 95.543961 153.617201 
L 96.357224 161.391681 
L 97.170486 170.535366 
L 97.983749 172.84163 
L 98.797012 178.741983 
L 99.610275 166.086748 
L 100.423538 377.066017 
L 101.236801 321.943148 
L 102.050064 176.145712 
L 102.863327 133.702152 
L 104.489852 124.475937 
L 105.303115 137.316871 
L 106.116378 162.987845 
L 106.929641 183.870337 
L 107.742904 192.643775 
L 108.556167 369.610769 
L 109.36943 332.642874 
L 110.995956 153.039495 
L 111.809218 129.03747 
L 112.622481 121.407409 
L 113.435744 127.904958 
L 115.06227 152.762662 
L 115.875533 161.093078 
L 116.688796 367.716009 
L 117.502059 335.752665 
L 119.128584 172.706946 
L 119.941847 128.9962 
L 120.75511 125.031873 
L 121.568373 122.879773 
L 122.381636 125.876657 
L 123.194899 132.096253 
L 124.008162 143.175955 
L 124.821425 362.392224 
L 125.634688 344.84534 
L 127.261213 193.970571 
L 128.074476 136.008415 
L 128.887739 123.837471 
L 129.701002 118.483319 
L 130.514265 118.42142 
L 131.327528 120.573509 
L 132.140791 132.271057 
L 132.954054 359.746091 
L 133.767316 343.156906 
L 134.580579 284.369455 
L 135.393842 207.707294 
L 136.207105 146.511551 
L 137.020368 122.539911 
L 137.833631 113.272436 
L 138.646894 110.440611 
L 139.460157 112.335368 
L 140.27342 118.483319 
L 141.086682 360.405189 
L 141.899945 338.533482 
L 142.713208 292.648864 
L 143.526471 212.52615 
L 144.339734 150.197915 
L 145.152997 119.749345 
L 145.96626 111.161606 
L 146.779523 103.788878 
L 147.592786 105.488211 
L 148.406048 108.752173 
L 149.219311 360.641891 
L 150.032574 340.747475 
L 150.845837 289.99184 
L 152.472363 156.139538 
L 153.285626 120.480095 
L 154.912152 102.573847 
L 155.725414 102.399053 
L 156.538677 97.373868 
L 157.35194 353.269173 
L 158.165203 338.811449 
L 158.978466 294.502356 
L 160.604992 161.174468 
L 161.418255 127.163343 
L 162.231518 105.982248 
L 163.04478 100.504286 
L 163.858043 101.3892 
L 164.671306 95.005705 
L 165.484569 355.359371 
L 166.297832 336.999218 
L 167.111095 291.392565 
L 168.737621 167.281149 
L 169.550884 126.350074 
L 170.364146 103.788878 
L 171.177409 103.614084 
L 171.990672 97.713731 
L 172.803935 89.702548 
L 173.617198 354.762171 
L 174.430461 344.403457 
L 175.243724 332.09783 
L 176.056987 314.623731 
L 178.496775 216.06923 
L 180.123301 159.651088 
L 180.936564 142.990256 
L 181.749827 351.374413 
L 183.376353 328.216035 
L 185.002878 260.027564 
L 186.629404 174.139191 
L 187.442667 147.613688 
L 188.25593 128.316475 
L 189.069193 122.066514 
L 189.882456 352.754505 
L 191.508982 327.536302 
L 192.322244 304.593994 
L 193.135507 275.216032 
L 193.94877 234.882157 
L 196.388559 140.622093 
L 197.201822 135.504634 
L 198.015085 348.34715 
L 199.64161 334.734216 
L 200.454873 306.323692 
L 201.268136 271.488403 
L 202.081399 244.788097 
L 202.894662 202.754894 
L 203.707925 167.631897 
L 204.521188 143.752521 
L 205.334451 127.431561 
L 206.147714 356.615667 
L 206.960976 340.850638 
L 207.774239 330.347495 
L 208.587502 311.853806 
L 209.400765 274.72199 
L 210.214028 244.675188 
L 211.027291 220.703542 
L 211.840554 185.177633 
L 212.653817 158.65213 
L 213.46708 142.558129 
L 214.280343 348.583852 
L 215.093605 346.411125 
L 215.906868 335.372682 
L 217.533394 290.569553 
L 218.346657 258.524825 
L 219.973183 203.115396 
L 220.786446 182.696566 
L 221.599709 149.251112 
L 222.412971 353.310439 
L 224.039497 330.007632 
L 225.666023 289.333887 
L 227.292549 229.064328 
L 228.105812 208.583613 
L 228.919075 180.67801 
L 229.732337 162.060521 
L 230.5456 352.630709 
L 232.172126 334.311819 
L 232.985389 312.708337 
L 233.798652 297.953159 
L 236.238441 220.919611 
L 237.051703 200.211927 
L 237.864966 167.827331 
L 238.678229 351.776175 
L 239.491492 341.324041 
L 240.304755 338.163242 
L 242.744544 285.3902 
L 243.557807 254.714672 
L 244.371069 231.854893 
L 245.184332 213.464368 
L 245.997595 185.960527 
L 246.810858 352.970574 
L 247.624121 344.341561 
L 249.250647 323.97374 
L 250.06391 301.906598 
L 250.877173 286.430423 
L 251.690435 261.336015 
L 252.503698 244.448229 
L 253.316961 220.003182 
L 254.130224 190.028014 
L 254.943487 349.139787 
L 255.75675 346.091892 
L 256.570013 333.611459 
L 257.383276 326.599239 
L 259.009801 286.708391 
L 259.823064 273.949991 
L 260.636327 247.445118 
L 262.262853 210.251411 
L 263.076116 351.075812 
L 263.889379 347.173385 
L 264.702642 338.482475 
L 265.515905 328.57653 
L 266.329167 316.991897 
L 267.14243 299.106293 
L 267.955693 271.180065 
L 268.768956 253.201037 
L 269.582219 231.216428 
L 270.395482 217.46995 
L 271.208745 350.457982 
L 272.022008 344.114601 
L 272.835271 342.724766 
L 275.275059 303.626551 
L 276.088322 285.050332 
L 276.901585 269.470997 
L 277.714848 249.679742 
L 278.528111 223.761175 
L 279.341374 350.499246 
L 280.154637 348.728281 
L 281.781162 332.304156 
L 282.594425 321.739116 
L 283.407688 303.049985 
L 284.220951 289.889823 
L 285.034214 272.312562 
L 285.847477 261.058052 
L 286.66074 238.373077 
L 287.474003 353.907638 
L 288.287265 346.792255 
L 289.100528 341.551001 
L 289.913791 331.346458 
L 290.727054 326.424435 
L 291.540317 309.825505 
L 292.35358 298.024801 
L 293.166843 281.343339 
L 293.980106 270.006299 
L 294.793369 247.568912 
L 295.606631 355.163933 
L 296.419894 346.298218 
L 297.233157 340.995065 
L 298.04642 331.686323 
L 298.859683 328.061861 
L 299.672946 314.510824 
L 300.486209 305.696119 
L 301.299472 289.972353 
L 302.112735 276.761181 
L 302.925997 265.465406 
L 303.73926 354.566735 
L 304.552523 347.966022 
L 305.365786 344.557631 
L 306.179049 336.906944 
L 307.805575 313.192631 
L 308.618838 312.554168 
L 310.245363 279.76781 
L 311.058626 270.727289 
L 311.871889 355.359371 
L 312.685152 347.688054 
L 314.311678 340.521663 
L 315.124941 331.408357 
L 315.938204 318.330722 
L 316.751467 310.886365 
L 317.564729 298.127965 
L 318.377992 297.046473 
L 319.191255 274.310488 
L 320.004518 355.143302 
L 320.817781 351.35378 
L 321.631044 343.981061 
L 322.444307 337.844009 
L 323.25757 328.277932 
L 324.070833 324.189808 
L 324.884095 317.322017 
L 325.697358 306.355214 
L 326.510621 289.437051 
L 327.323884 285.029698 
L 328.137147 354.628632 
L 328.95041 352.157306 
L 329.763673 347.245027 
L 330.576936 346.071259 
L 331.390199 342.889828 
L 332.203461 330.039152 
L 333.016724 325.590534 
L 333.829987 316.817093 
L 334.64325 297.859742 
L 335.456513 296.809769 
L 336.269776 354.525469 
L 337.083039 350.159381 
L 337.896302 350.694682 
L 338.709565 344.104858 
L 339.522827 335.177246 
L 340.33609 329.410432 
L 341.149353 327.639467 
L 342.775879 316.302422 
L 343.589142 306.077249 
L 344.402405 353.907638 
L 345.215668 357.676527 
L 346.028931 349.24295 
L 346.842193 347.214651 
L 347.655456 343.105896 
L 348.468719 334.373719 
L 349.281982 329.451696 
L 350.095245 319.864986 
L 350.908508 312.131771 
L 351.721771 305.902445 
L 352.535034 356.780728 
L 353.348297 349.304847 
L 354.161559 354.288768 
L 354.974822 345.134197 
L 355.788085 343.445761 
L 356.601348 340.315337 
L 357.414611 330.893686 
L 358.227874 326.506967 
L 359.8544 308.033908 
L 360.667663 355.483166 
L 361.480925 351.560106 
L 362.294188 353.083481 
L 363.107451 348.110449 
L 363.920714 339.378274 
L 364.733977 338.822338 
L 365.54724 328.277932 
L 366.360503 330.193326 
L 367.173766 319.772712 
L 367.987029 316.045088 
L 368.800291 361.424784 
L 369.613554 354.803437 
L 370.426817 356.358332 
L 371.24008 347.410087 
L 372.053343 347.348189 
L 372.866606 337.905907 
L 373.679869 343.466393 
L 374.493132 335.197878 
L 375.306395 324.509041 
L 376.119657 324.292973 
L 376.93292 362.258684 
L 377.746183 353.567772 
L 378.559446 351.117078 
L 379.372709 353.053105 
L 380.185972 348.388416 
L 380.999235 348.625118 
L 381.812498 340.933168 
L 382.625761 335.856974 
L 383.439024 323.994372 
L 384.252286 326.4657 
L 385.065549 359.787358 
L 385.878812 361.62022 
L 386.692075 355.370259 
L 387.505338 353.928271 
L 388.318601 351.004172 
L 389.131864 346.854152 
L 389.945127 341.571633 
L 390.75839 344.382826 
L 391.571652 336.598602 
L 392.384915 331.81012 
L 393.198178 356.100999 
L 394.011441 359.148893 
L 394.824704 361.62022 
L 395.637967 352.074774 
L 396.45123 357.274765 
L 398.077756 347.471985 
L 398.891018 342.786663 
L 399.704281 334.651687 
L 400.517544 325.384207 
L 401.330807 357.892597 
L 402.14407 363.43245 
L 402.957333 357.490834 
L 403.770596 357.635262 
L 404.583859 357.058695 
L 405.397122 343.383863 
L 406.210384 348.964983 
L 407.023647 342.910459 
L 407.83691 343.847525 
L 408.650173 341.489101 
L 409.463436 364.390147 
L 410.276699 360.343291 
L 411.089962 357.377928 
L 411.903225 356.358332 
L 412.716488 354.9066 
L 413.52975 357.69716 
L 415.156276 349.088778 
L 415.969539 347.194017 
L 416.782802 344.217764 
L 417.596065 362.876518 
L 418.409328 358.705865 
L 419.222591 359.807989 
L 420.035854 357.274765 
L 420.849116 358.912191 
L 421.662379 353.907638 
L 422.475642 353.032471 
L 423.288905 351.178975 
L 424.102168 349.943311 
L 424.915431 344.341561 
L 425.728694 366.223011 
L 426.541957 361.023021 
L 427.35522 361.640853 
L 428.168482 362.021984 
L 428.981745 355.205201 
L 429.795008 359.787358 
L 430.608271 355.65797 
L 431.421534 353.39297 
L 432.234797 350.200647 
L 433.04806 347.749952 
L 433.861323 365.646444 
L 434.674586 363.030688 
L 435.487848 364.79191 
L 436.301111 360.10659 
L 437.927637 356.976164 
L 438.7409 356.440863 
L 439.554163 356.482129 
L 440.367426 349.438386 
L 441.180689 346.318851 
L 441.993952 364.029649 
L 442.807214 365.667076 
L 443.620477 365.327212 
L 444.43374 359.21079 
L 445.247003 360.322659 
L 446.060266 361.084919 
L 446.873529 358.489796 
L 447.686792 359.911152 
L 448.500055 353.866373 
L 449.313318 352.713239 
L 450.12658 366.624773 
L 450.939843 363.792948 
L 451.753106 364.966715 
L 452.566369 363.514982 
L 453.379632 360.827585 
L 454.192895 362.938414 
L 455.819421 357.913229 
L 456.632684 360.487719 
L 457.445946 352.713239 
L 458.259209 369.374067 
L 459.072472 366.048206 
L 459.885735 365.605179 
L 460.698998 367.221973 
L 461.512261 363.751683 
L 462.325524 362.021984 
L 463.138787 363.772316 
L 463.95205 365.007979 
L 464.765312 354.22687 
L 465.578575 358.345367 
L 466.391838 368.375106 
L 467.205101 369.3947 
L 468.018364 366.243643 
L 468.831627 364.688747 
L 469.64489 366.500978 
L 470.458153 363.494348 
L 471.271416 361.105551 
L 472.084678 365.368477 
L 472.897941 358.613591 
L 473.711204 361.280356 
L 474.524467 369.9919 
L 475.33773 365.749607 
L 476.150993 364.730013 
L 476.964256 366.326174 
L 477.777519 368.735603 
L 478.590782 365.965676 
L 479.404044 365.903779 
L 480.217307 363.195749 
L 481.03057 361.023021 
L 481.843833 361.321621 
L 482.657096 371.464265 
L 483.470359 366.202378 
L 484.283622 368.478269 
L 485.096885 370.012532 
L 485.910148 366.326174 
L 486.72341 365.625811 
L 487.536673 369.31217 
L 488.349936 363.43245 
L 489.163199 365.708342 
L 489.976462 362.299949 
L 490.789725 370.249234 
L 491.602988 370.650996 
L 492.416251 368.910407 
L 493.229514 368.354473 
L 494.042776 369.9919 
L 494.856039 366.861475 
L 495.669302 365.986308 
L 496.482565 368.117771 
L 497.295828 365.368477 
L 498.109091 366.90274 
L 498.109091 366.90274 
" style="fill:none;stroke:#008000;stroke-linecap:square;stroke-width:1.5;"/>
   </g>
   <g id="patch_3">
    <path d="M 72 384.48 
L 72 51.84 
" style="fill:none;stroke:#000000;stroke-linecap:square;stroke-linejoin:miter;stroke-width:0.8;"/>
   </g>
   <g id="patch_4">
    <path d="M 518.4 384.48 
L 518.4 51.84 
" style="fill:none;stroke:#000000;stroke-linecap:square;stroke-linejoin:miter;stroke-width:0.8;"/>
   </g>
   <g id="patch_5">
    <path d="M 72 384.48 
L 518.4 384.48 
" style="fill:none;stroke:#000000;stroke-linecap:square;stroke-linejoin:miter;stroke-width:0.8;"/>
   </g>
   <g id="patch_6">
    <path d="M 72 51.84 
L 518.4 51.84 
" style="fill:none;stroke:#000000;stroke-linecap:square;stroke-linejoin:miter;stroke-width:0.8;"/>
   </g>
   <g id="legend_1">
    <g id="patch_7">
     <path d="M 79 89.19625 
L 156.107812 89.19625 
Q 158.107812 89.19625 158.107812 87.19625 
L 158.107812 58.84 
Q 158.107812 56.84 156.107812 56.84 
L 79 56.84 
Q 77 56.84 77 58.84 
L 77 87.19625 
Q 77 89.19625 79 89.19625 
z
" style="fill:#ffffff;opacity:0.8;stroke:#cccccc;stroke-linejoin:miter;"/>
    </g>
    <g id="line2d_15">
     <path d="M 81 64.938437 
L 101 64.938437 
" style="fill:none;stroke:#0000ff;stroke-linecap:square;stroke-width:1.5;"/>
    </g>
    <g id="line2d_16"/>
    <g id="text_15">
     <!-- precision -->
     <g transform="translate(109 68.438437)scale(0.1 -0.1)">
      <defs>
       <path d="M 9.421875 54.6875 
L 18.40625 54.6875 
L 18.40625 0 
L 9.421875 0 
z
M 9.421875 75.984375 
L 18.40625 75.984375 
L 18.40625 64.59375 
L 9.421875 64.59375 
z
" id="DejaVuSans-105"/>
       <path d="M 44.28125 53.078125 
L 44.28125 44.578125 
Q 40.484375 46.53125 36.375 47.5 
Q 32.28125 48.484375 27.875 48.484375 
Q 21.1875 48.484375 17.84375 46.4375 
Q 14.5 44.390625 14.5 40.28125 
Q 14.5 37.15625 16.890625 35.375 
Q 19.28125 33.59375 26.515625 31.984375 
L 29.59375 31.296875 
Q 39.15625 29.25 43.1875 25.515625 
Q 47.21875 21.78125 47.21875 15.09375 
Q 47.21875 7.46875 41.1875 3.015625 
Q 35.15625 -1.421875 24.609375 -1.421875 
Q 20.21875 -1.421875 15.453125 -0.5625 
Q 10.6875 0.296875 5.421875 2 
L 5.421875 11.28125 
Q 10.40625 8.6875 15.234375 7.390625 
Q 20.0625 6.109375 24.8125 6.109375 
Q 31.15625 6.109375 34.5625 8.28125 
Q 37.984375 10.453125 37.984375 14.40625 
Q 37.984375 18.0625 35.515625 20.015625 
Q 33.0625 21.96875 24.703125 23.78125 
L 21.578125 24.515625 
Q 13.234375 26.265625 9.515625 29.90625 
Q 5.8125 33.546875 5.8125 39.890625 
Q 5.8125 47.609375 11.28125 51.796875 
Q 16.75 56 26.8125 56 
Q 31.78125 56 36.171875 55.265625 
Q 40.578125 54.546875 44.28125 53.078125 
z
" id="DejaVuSans-115"/>
       <path d="M 54.890625 33.015625 
L 54.890625 0 
L 45.90625 0 
L 45.90625 32.71875 
Q 45.90625 40.484375 42.875 44.328125 
Q 39.84375 48.1875 33.796875 48.1875 
Q 26.515625 48.1875 22.3125 43.546875 
Q 18.109375 38.921875 18.109375 30.90625 
L 18.109375 0 
L 9.078125 0 
L 9.078125 54.6875 
L 18.109375 54.6875 
L 18.109375 46.1875 
Q 21.34375 51.125 25.703125 53.5625 
Q 30.078125 56 35.796875 56 
Q 45.21875 56 50.046875 50.171875 
Q 54.890625 44.34375 54.890625 33.015625 
z
" id="DejaVuSans-110"/>
      </defs>
      <use xlink:href="#DejaVuSans-112"/>
      <use x="63.476562" xlink:href="#DejaVuSans-114"/>
      <use x="102.339844" xlink:href="#DejaVuSans-101"/>
      <use x="163.863281" xlink:href="#DejaVuSans-99"/>
      <use x="218.84375" xlink:href="#DejaVuSans-105"/>
      <use x="246.626953" xlink:href="#DejaVuSans-115"/>
      <use x="298.726562" xlink:href="#DejaVuSans-105"/>
      <use x="326.509766" xlink:href="#DejaVuSans-111"/>
      <use x="387.691406" xlink:href="#DejaVuSans-110"/>
     </g>
    </g>
    <g id="line2d_17">
     <path d="M 81 79.616562 
L 101 79.616562 
" style="fill:none;stroke:#008000;stroke-linecap:square;stroke-width:1.5;"/>
    </g>
    <g id="line2d_18"/>
    <g id="text_16">
     <!-- recall -->
     <g transform="translate(109 83.116562)scale(0.1 -0.1)">
      <defs>
       <path d="M 9.421875 75.984375 
L 18.40625 75.984375 
L 18.40625 0 
L 9.421875 0 
z
" id="DejaVuSans-108"/>
      </defs>
      <use xlink:href="#DejaVuSans-114"/>
      <use x="38.863281" xlink:href="#DejaVuSans-101"/>
      <use x="100.386719" xlink:href="#DejaVuSans-99"/>
      <use x="155.367188" xlink:href="#DejaVuSans-97"/>
      <use x="216.646484" xlink:href="#DejaVuSans-108"/>
      <use x="244.429688" xlink:href="#DejaVuSans-108"/>
     </g>
    </g>
   </g>
  </g>
  <g id="axes_2">
   <g id="matplotlib.axis_3">
    <g id="ytick_7">
     <g id="line2d_19">
      <defs>
       <path d="M 0 0 
L 3.5 0 
" id="mc30f54b49d" style="stroke:#000000;stroke-width:0.8;"/>
      </defs>
      <g>
       <use style="stroke:#000000;stroke-width:0.8;" x="518.4" xlink:href="#mc30f54b49d" y="349.051646"/>
      </g>
     </g>
     <g id="text_17">
      <!-- 0.2 -->
      <g transform="translate(525.4 352.850865)scale(0.1 -0.1)">
       <use xlink:href="#DejaVuSans-48"/>
       <use x="63.623047" xlink:href="#DejaVuSans-46"/>
       <use x="95.410156" xlink:href="#DejaVuSans-50"/>
      </g>
     </g>
    </g>
    <g id="ytick_8">
     <g id="line2d_20">
      <g>
       <use style="stroke:#000000;stroke-width:0.8;" x="518.4" xlink:href="#mc30f54b49d" y="306.214075"/>
      </g>
     </g>
     <g id="text_18">
      <!-- 0.3 -->
      <g transform="translate(525.4 310.013294)scale(0.1 -0.1)">
       <use xlink:href="#DejaVuSans-48"/>
       <use x="63.623047" xlink:href="#DejaVuSans-46"/>
       <use x="95.410156" xlink:href="#DejaVuSans-51"/>
      </g>
     </g>
    </g>
    <g id="ytick_9">
     <g id="line2d_21">
      <g>
       <use style="stroke:#000000;stroke-width:0.8;" x="518.4" xlink:href="#mc30f54b49d" y="263.376505"/>
      </g>
     </g>
     <g id="text_19">
      <!-- 0.4 -->
      <g transform="translate(525.4 267.175724)scale(0.1 -0.1)">
       <use xlink:href="#DejaVuSans-48"/>
       <use x="63.623047" xlink:href="#DejaVuSans-46"/>
       <use x="95.410156" xlink:href="#DejaVuSans-52"/>
      </g>
     </g>
    </g>
    <g id="ytick_10">
     <g id="line2d_22">
      <g>
       <use style="stroke:#000000;stroke-width:0.8;" x="518.4" xlink:href="#mc30f54b49d" y="220.538935"/>
      </g>
     </g>
     <g id="text_20">
      <!-- 0.5 -->
      <g transform="translate(525.4 224.338153)scale(0.1 -0.1)">
       <use xlink:href="#DejaVuSans-48"/>
       <use x="63.623047" xlink:href="#DejaVuSans-46"/>
       <use x="95.410156" xlink:href="#DejaVuSans-53"/>
      </g>
     </g>
    </g>
    <g id="ytick_11">
     <g id="line2d_23">
      <g>
       <use style="stroke:#000000;stroke-width:0.8;" x="518.4" xlink:href="#mc30f54b49d" y="177.701364"/>
      </g>
     </g>
     <g id="text_21">
      <!-- 0.6 -->
      <g transform="translate(525.4 181.500583)scale(0.1 -0.1)">
       <use xlink:href="#DejaVuSans-48"/>
       <use x="63.623047" xlink:href="#DejaVuSans-46"/>
       <use x="95.410156" xlink:href="#DejaVuSans-54"/>
      </g>
     </g>
    </g>
    <g id="ytick_12">
     <g id="line2d_24">
      <g>
       <use style="stroke:#000000;stroke-width:0.8;" x="518.4" xlink:href="#mc30f54b49d" y="134.863794"/>
      </g>
     </g>
     <g id="text_22">
      <!-- 0.7 -->
      <g transform="translate(525.4 138.663012)scale(0.1 -0.1)">
       <defs>
        <path d="M 8.203125 72.90625 
L 55.078125 72.90625 
L 55.078125 68.703125 
L 28.609375 0 
L 18.3125 0 
L 43.21875 64.59375 
L 8.203125 64.59375 
z
" id="DejaVuSans-55"/>
       </defs>
       <use xlink:href="#DejaVuSans-48"/>
       <use x="63.623047" xlink:href="#DejaVuSans-46"/>
       <use x="95.410156" xlink:href="#DejaVuSans-55"/>
      </g>
     </g>
    </g>
    <g id="ytick_13">
     <g id="line2d_25">
      <g>
       <use style="stroke:#000000;stroke-width:0.8;" x="518.4" xlink:href="#mc30f54b49d" y="92.026223"/>
      </g>
     </g>
     <g id="text_23">
      <!-- 0.8 -->
      <g transform="translate(525.4 95.825442)scale(0.1 -0.1)">
       <use xlink:href="#DejaVuSans-48"/>
       <use x="63.623047" xlink:href="#DejaVuSans-46"/>
       <use x="95.410156" xlink:href="#DejaVuSans-56"/>
      </g>
     </g>
    </g>
    <g id="text_24">
     <!-- loss -->
     <g transform="translate(552.901563 227.817812)rotate(-90)scale(0.1 -0.1)">
      <use xlink:href="#DejaVuSans-108"/>
      <use x="27.783203" xlink:href="#DejaVuSans-111"/>
      <use x="88.964844" xlink:href="#DejaVuSans-115"/>
      <use x="141.064453" xlink:href="#DejaVuSans-115"/>
     </g>
    </g>
   </g>
   <g id="line2d_26">
    <path clip-path="url(#p2b24c6fd5c)" d="M 92.290909 66.96 
L 93.104172 222.58427 
L 93.917435 301.879053 
L 94.730698 312.716548 
L 95.543961 312.500123 
L 96.357224 312.717238 
L 97.170486 313.809783 
L 97.983749 315.79795 
L 98.797012 317.200711 
L 99.610275 319.739214 
L 100.423538 259.085517 
L 101.236801 295.914164 
L 102.050064 324.002527 
L 103.67659 312.968522 
L 104.489852 312.706475 
L 105.303115 318.279865 
L 106.116378 325.650624 
L 106.929641 329.024949 
L 107.742904 335.046908 
L 108.556167 254.990684 
L 109.36943 280.720044 
L 110.182693 314.674573 
L 110.995956 328.151778 
L 111.809218 327.188277 
L 112.622481 322.899602 
L 113.435744 325.006709 
L 114.249007 329.926503 
L 115.06227 336.553238 
L 115.875533 340.26139 
L 116.688796 256.427053 
L 117.502059 277.546505 
L 118.315322 310.886955 
L 119.128584 332.195088 
L 119.941847 336.17821 
L 120.75511 331.070747 
L 121.568373 332.534807 
L 122.381636 335.191187 
L 124.008162 345.217914 
L 124.821425 256.981315 
L 125.634688 276.974575 
L 126.44795 308.519525 
L 127.261213 334.896923 
L 128.074476 341.393739 
L 128.887739 338.808725 
L 129.701002 338.235693 
L 130.514265 338.367393 
L 131.327528 342.968386 
L 132.140791 348.428293 
L 132.954054 255.787479 
L 133.767316 275.290081 
L 134.580579 308.633722 
L 135.393842 335.819335 
L 136.207105 345.137232 
L 137.020368 346.56176 
L 137.833631 344.980698 
L 138.646894 343.923509 
L 139.460157 347.612358 
L 140.27342 353.103741 
L 141.086682 257.448381 
L 141.899945 277.757186 
L 142.713208 311.327179 
L 143.526471 338.279728 
L 144.339734 350.736148 
L 145.152997 353.451475 
L 146.779523 349.993002 
L 147.592786 351.718273 
L 148.406048 357.252424 
L 149.219311 258.230947 
L 150.032574 278.030646 
L 150.845837 312.806119 
L 151.6591 339.878236 
L 152.472363 353.77371 
L 153.285626 355.842523 
L 154.098889 354.356626 
L 154.912152 353.883825 
L 155.725414 357.386489 
L 156.538677 362.049911 
L 157.35194 254.673524 
L 158.165203 276.989142 
L 159.791729 340.27514 
L 160.604992 356.402654 
L 161.418255 358.893863 
L 162.231518 357.851553 
L 163.04478 356.013803 
L 163.858043 354.512787 
L 164.671306 363.323918 
L 165.484569 253.873065 
L 166.297832 276.787244 
L 167.111095 311.023488 
L 167.924358 335.452318 
L 168.737621 355.771598 
L 169.550884 361.342721 
L 170.364146 362.38714 
L 171.177409 360.968549 
L 171.990672 361.548152 
L 172.803935 367.169799 
L 173.617198 249.122814 
L 174.430461 269.254643 
L 177.683512 334.838998 
L 178.496775 344.277505 
L 180.123301 360.182155 
L 180.936564 361.270817 
L 181.749827 249.206301 
L 185.002878 334.302476 
L 185.816141 347.249353 
L 186.629404 356.272189 
L 187.442667 362.514404 
L 188.25593 365.090546 
L 189.069193 364.684603 
L 189.882456 246.853298 
L 190.695719 262.63731 
L 193.135507 324.89368 
L 193.94877 342.898231 
L 194.762033 352.765586 
L 195.575296 359.300785 
L 196.388559 364.714496 
L 197.201822 366.178278 
L 198.015085 242.262221 
L 201.268136 328.68717 
L 202.081399 339.350405 
L 202.894662 351.705503 
L 203.707925 360.65353 
L 204.521188 366.794659 
L 205.334451 369.36 
L 206.147714 244.024968 
L 207.774239 281.498046 
L 209.400765 324.251489 
L 210.214028 338.775318 
L 211.027291 346.461291 
L 211.840554 358.456166 
L 212.653817 364.322839 
L 213.46708 367.484307 
L 214.280343 241.697089 
L 215.093605 256.495916 
L 215.906868 280.418076 
L 218.346657 335.27122 
L 219.15992 346.694112 
L 219.973183 353.033311 
L 220.786446 358.165695 
L 221.599709 368.103317 
L 222.412971 237.463942 
L 225.666023 318.018335 
L 226.479286 333.37175 
L 227.292549 344.9208 
L 228.105812 352.569198 
L 228.919075 361.653929 
L 229.732337 365.852922 
L 230.5456 237.885623 
L 231.358863 253.158359 
L 232.172126 271.954362 
L 232.985389 296.922858 
L 233.798652 314.050517 
L 235.425178 339.302364 
L 237.051703 356.696819 
L 237.864966 363.580485 
L 238.678229 231.898768 
L 239.491492 255.028882 
L 240.304755 272.368906 
L 241.118018 293.707835 
L 241.931281 309.197118 
L 242.744544 319.148663 
L 243.557807 335.291254 
L 244.371069 345.916084 
L 245.184332 351.398776 
L 245.997595 358.222659 
L 246.810858 234.071636 
L 247.624121 251.110745 
L 249.250647 288.106283 
L 250.06391 304.869384 
L 251.690435 331.626898 
L 253.316961 349.836404 
L 254.130224 358.364723 
L 254.943487 234.273444 
L 256.570013 268.966482 
L 257.383276 286.367492 
L 259.009801 316.79624 
L 259.823064 326.179397 
L 260.636327 338.656135 
L 261.44959 347.019586 
L 262.262853 353.368603 
L 263.076116 231.830033 
L 263.889379 248.944133 
L 264.702642 262.636934 
L 265.515905 283.693127 
L 267.955693 325.163349 
L 269.582219 344.21792 
L 270.395482 350.798098 
L 271.208745 230.49219 
L 274.461796 296.299861 
L 276.088322 323.162332 
L 276.901585 328.177956 
L 278.528111 346.944292 
L 279.341374 229.667117 
L 280.154637 245.414503 
L 280.967899 258.183615 
L 281.781162 277.207214 
L 282.594425 290.912794 
L 283.407688 306.534327 
L 284.220951 313.524335 
L 285.034214 324.813254 
L 285.847477 333.127515 
L 286.66074 343.279965 
L 287.474003 227.586354 
L 289.100528 256.891362 
L 290.727054 285.527106 
L 291.540317 300.52739 
L 292.35358 309.40995 
L 293.166843 320.217814 
L 293.980106 326.909994 
L 294.793369 337.332805 
L 295.606631 227.676646 
L 296.419894 244.214047 
L 298.04642 268.878354 
L 298.859683 284.221358 
L 300.486209 306.080136 
L 301.299472 316.785548 
L 302.925997 334.127455 
L 303.73926 228.143839 
L 304.552523 239.915102 
L 305.365786 256.56965 
L 306.179049 264.603691 
L 306.992312 281.607698 
L 307.805575 294.699486 
L 308.618838 302.143239 
L 309.432101 312.642393 
L 310.245363 319.398761 
L 311.058626 327.96319 
L 311.871889 225.660291 
L 315.124941 278.779311 
L 316.751467 296.777919 
L 317.564729 309.192471 
L 318.377992 312.024873 
L 319.191255 324.214651 
L 320.004518 228.999948 
L 320.817781 236.043282 
L 322.444307 260.471509 
L 323.25757 276.572951 
L 324.070833 283.424397 
L 324.884095 295.457394 
L 326.510621 312.512589 
L 327.323884 319.058633 
L 328.137147 227.025652 
L 328.95041 238.429046 
L 329.763673 246.071957 
L 333.016724 290.762078 
L 333.829987 297.611105 
L 334.64325 306.796131 
L 335.456513 308.594312 
L 336.269776 223.690667 
L 337.896302 247.767488 
L 340.33609 278.120383 
L 341.149353 284.014469 
L 342.775879 300.896632 
L 343.589142 306.238154 
L 344.402405 224.639359 
L 345.215668 232.360325 
L 346.028931 242.247616 
L 346.842193 255.599938 
L 347.655456 263.268025 
L 349.281982 282.028109 
L 350.908508 296.626686 
L 351.721771 301.532491 
L 352.535034 218.760255 
L 353.348297 232.658291 
L 354.974822 250.955439 
L 355.788085 259.508155 
L 356.601348 269.621357 
L 357.414611 275.247268 
L 358.227874 285.602403 
L 359.041137 290.676778 
L 359.8544 297.823656 
L 360.667663 221.015837 
L 363.920714 255.473293 
L 364.733977 266.01717 
L 366.360503 283.011187 
L 367.987029 293.175053 
L 368.800291 220.503635 
L 369.613554 226.902154 
L 370.426817 236.71778 
L 372.053343 250.847555 
L 372.866606 263.60136 
L 373.679869 268.214051 
L 374.493132 277.110335 
L 375.306395 279.950799 
L 376.119657 289.487411 
L 376.93292 216.874029 
L 379.372709 240.988524 
L 380.185972 251.660264 
L 380.999235 254.928632 
L 382.625761 271.925707 
L 384.252286 282.335343 
L 385.065549 222.41277 
L 385.878812 225.420751 
L 386.692075 230.585839 
L 387.505338 239.832068 
L 388.318601 243.927189 
L 389.945127 261.426335 
L 390.75839 265.620709 
L 391.571652 270.969707 
L 392.384915 277.667411 
L 393.198178 216.946384 
L 394.011441 221.567066 
L 394.824704 230.726119 
L 395.637967 235.377147 
L 396.45123 246.676723 
L 397.264493 251.084535 
L 398.077756 258.956549 
L 398.891018 262.893747 
L 399.704281 268.479609 
L 400.517544 272.928332 
L 401.330807 213.502947 
L 402.957333 226.513769 
L 403.770596 237.939543 
L 404.583859 239.423429 
L 405.397122 246.306511 
L 406.210384 256.112108 
L 407.023647 258.921441 
L 408.650173 267.999566 
L 409.463436 213.601684 
L 410.276699 216.555988 
L 411.089962 227.383174 
L 412.716488 234.873435 
L 413.52975 242.874475 
L 414.343013 245.446126 
L 415.156276 257.695408 
L 415.969539 259.487563 
L 416.782802 264.043793 
L 417.596065 211.496894 
L 418.409328 217.128984 
L 419.222591 221.623782 
L 420.849116 233.578603 
L 421.662379 240.296504 
L 423.288905 249.027212 
L 424.102168 256.026119 
L 424.915431 259.285672 
L 425.728694 208.826966 
L 426.541957 216.91508 
L 427.35522 221.437549 
L 428.168482 228.284546 
L 429.795008 238.760722 
L 430.608271 240.624912 
L 431.421534 246.487101 
L 433.04806 251.203839 
L 433.861323 208.374799 
L 434.674586 215.64882 
L 435.487848 217.407213 
L 436.301111 224.261589 
L 437.114374 228.37856 
L 437.927637 231.49648 
L 438.7409 240.153927 
L 439.554163 241.741938 
L 440.367426 247.5068 
L 441.180689 249.028112 
L 441.993952 207.804567 
L 443.620477 216.369545 
L 444.43374 220.020611 
L 445.247003 225.815686 
L 446.060266 227.665201 
L 446.873529 234.684464 
L 447.686792 235.539315 
L 448.500055 242.479138 
L 449.313318 245.842381 
L 450.12658 208.258215 
L 450.939843 210.371136 
L 451.753106 213.54883 
L 452.566369 218.656367 
L 453.379632 221.718376 
L 454.192895 223.869304 
L 455.006158 231.545178 
L 456.632684 237.23309 
L 457.445946 244.163715 
L 458.259209 204.65644 
L 459.072472 209.858851 
L 459.885735 211.193011 
L 460.698998 216.872855 
L 461.512261 221.037074 
L 462.325524 223.60598 
L 463.138787 228.764328 
L 463.95205 229.974179 
L 464.765312 232.773969 
L 465.578575 241.237906 
L 466.391838 204.055798 
L 467.205101 205.946236 
L 468.018364 208.736106 
L 469.64489 216.615091 
L 470.458153 221.145284 
L 471.271416 226.422309 
L 472.084678 226.414305 
L 472.897941 235.596248 
L 473.711204 235.568997 
L 474.524467 199.027012 
L 475.33773 203.470424 
L 476.150993 206.901815 
L 476.964256 211.185645 
L 477.777519 213.164339 
L 478.590782 215.573701 
L 479.404044 220.374456 
L 481.03057 227.613783 
L 481.843833 227.232203 
L 482.657096 198.760586 
L 483.470359 204.57744 
L 484.283622 207.839062 
L 485.096885 208.96759 
L 485.910148 212.482782 
L 486.72341 212.653726 
L 487.536673 217.694927 
L 488.349936 220.022488 
L 489.163199 224.559536 
L 489.976462 226.12089 
L 490.789725 198.499279 
L 491.602988 201.378452 
L 492.416251 203.581314 
L 493.229514 207.632856 
L 494.042776 208.177504 
L 495.669302 216.139701 
L 496.482565 218.580112 
L 497.295828 219.206377 
L 498.109091 222.861133 
L 498.109091 222.861133 
" style="fill:none;stroke:#ff0000;stroke-linecap:square;stroke-width:1.5;"/>
   </g>
   <g id="patch_8">
    <path d="M 72 384.48 
L 72 51.84 
" style="fill:none;stroke:#000000;stroke-linecap:square;stroke-linejoin:miter;stroke-width:0.8;"/>
   </g>
   <g id="patch_9">
    <path d="M 518.4 384.48 
L 518.4 51.84 
" style="fill:none;stroke:#000000;stroke-linecap:square;stroke-linejoin:miter;stroke-width:0.8;"/>
   </g>
   <g id="patch_10">
    <path d="M 72 384.48 
L 518.4 384.48 
" style="fill:none;stroke:#000000;stroke-linecap:square;stroke-linejoin:miter;stroke-width:0.8;"/>
   </g>
   <g id="patch_11">
    <path d="M 72 51.84 
L 518.4 51.84 
" style="fill:none;stroke:#000000;stroke-linecap:square;stroke-linejoin:miter;stroke-width:0.8;"/>
   </g>
   <g id="text_25">
    <!-- The learning curve on _non_iid_agg_modify/host/4 -->
    <g transform="translate(141.023438 45.84)scale(0.12 -0.12)">
     <defs>
      <path d="M -0.296875 72.90625 
L 61.375 72.90625 
L 61.375 64.59375 
L 35.5 64.59375 
L 35.5 0 
L 25.59375 0 
L 25.59375 64.59375 
L -0.296875 64.59375 
z
" id="DejaVuSans-84"/>
      <path id="DejaVuSans-32"/>
      <path d="M 45.40625 27.984375 
Q 45.40625 37.75 41.375 43.109375 
Q 37.359375 48.484375 30.078125 48.484375 
Q 22.859375 48.484375 18.828125 43.109375 
Q 14.796875 37.75 14.796875 27.984375 
Q 14.796875 18.265625 18.828125 12.890625 
Q 22.859375 7.515625 30.078125 7.515625 
Q 37.359375 7.515625 41.375 12.890625 
Q 45.40625 18.265625 45.40625 27.984375 
z
M 54.390625 6.78125 
Q 54.390625 -7.171875 48.1875 -13.984375 
Q 42 -20.796875 29.203125 -20.796875 
Q 24.46875 -20.796875 20.265625 -20.09375 
Q 16.0625 -19.390625 12.109375 -17.921875 
L 12.109375 -9.1875 
Q 16.0625 -11.328125 19.921875 -12.34375 
Q 23.78125 -13.375 27.78125 -13.375 
Q 36.625 -13.375 41.015625 -8.765625 
Q 45.40625 -4.15625 45.40625 5.171875 
L 45.40625 9.625 
Q 42.625 4.78125 38.28125 2.390625 
Q 33.9375 0 27.875 0 
Q 17.828125 0 11.671875 7.65625 
Q 5.515625 15.328125 5.515625 27.984375 
Q 5.515625 40.671875 11.671875 48.328125 
Q 17.828125 56 27.875 56 
Q 33.9375 56 38.28125 53.609375 
Q 42.625 51.21875 45.40625 46.390625 
L 45.40625 54.6875 
L 54.390625 54.6875 
z
" id="DejaVuSans-103"/>
      <path d="M 8.5 21.578125 
L 8.5 54.6875 
L 17.484375 54.6875 
L 17.484375 21.921875 
Q 17.484375 14.15625 20.5 10.265625 
Q 23.53125 6.390625 29.59375 6.390625 
Q 36.859375 6.390625 41.078125 11.03125 
Q 45.3125 15.671875 45.3125 23.6875 
L 45.3125 54.6875 
L 54.296875 54.6875 
L 54.296875 0 
L 45.3125 0 
L 45.3125 8.40625 
Q 42.046875 3.421875 37.71875 1 
Q 33.40625 -1.421875 27.6875 -1.421875 
Q 18.265625 -1.421875 13.375 4.4375 
Q 8.5 10.296875 8.5 21.578125 
z
M 31.109375 56 
z
" id="DejaVuSans-117"/>
      <path d="M 2.984375 54.6875 
L 12.5 54.6875 
L 29.59375 8.796875 
L 46.6875 54.6875 
L 56.203125 54.6875 
L 35.6875 0 
L 23.484375 0 
z
" id="DejaVuSans-118"/>
      <path d="M 30.953125 67.4375 
L 56.203125 0 
L 46.6875 0 
L 31.34375 40.4375 
L 12.5 0 
L 2.984375 0 
L 26.953125 52.4375 
L 23.34375 62.109375 
Q 21.046875 68.265625 15.828125 68.265625 
L 11.140625 68.265625 
L 11.140625 75.984375 
L 16.84375 75.875 
Q 27.875 75.734375 30.953125 67.4375 
z
" id="DejaVuSans-955"/>
      <path d="M 50.984375 -16.609375 
L 50.984375 -23.578125 
L -0.984375 -23.578125 
L -0.984375 -16.609375 
z
" id="DejaVuSans-95"/>
      <path d="M 45.40625 46.390625 
L 45.40625 75.984375 
L 54.390625 75.984375 
L 54.390625 0 
L 45.40625 0 
L 45.40625 8.203125 
Q 42.578125 3.328125 38.25 0.953125 
Q 33.9375 -1.421875 27.875 -1.421875 
Q 17.96875 -1.421875 11.734375 6.484375 
Q 5.515625 14.40625 5.515625 27.296875 
Q 5.515625 40.1875 11.734375 48.09375 
Q 17.96875 56 27.875 56 
Q 33.9375 56 38.25 53.625 
Q 42.578125 51.265625 45.40625 46.390625 
z
M 14.796875 27.296875 
Q 14.796875 17.390625 18.875 11.75 
Q 22.953125 6.109375 30.078125 6.109375 
Q 37.203125 6.109375 41.296875 11.75 
Q 45.40625 17.390625 45.40625 27.296875 
Q 45.40625 37.203125 41.296875 42.84375 
Q 37.203125 48.484375 30.078125 48.484375 
Q 22.953125 48.484375 18.875 42.84375 
Q 14.796875 37.203125 14.796875 27.296875 
z
" id="DejaVuSans-100"/>
      <path d="M 52 44.1875 
Q 55.375 50.25 60.0625 53.125 
Q 64.75 56 71.09375 56 
Q 79.640625 56 84.28125 50.015625 
Q 88.921875 44.046875 88.921875 33.015625 
L 88.921875 0 
L 79.890625 0 
L 79.890625 32.71875 
Q 79.890625 40.578125 77.09375 44.375 
Q 74.3125 48.1875 68.609375 48.1875 
Q 61.625 48.1875 57.5625 43.546875 
Q 53.515625 38.921875 53.515625 30.90625 
L 53.515625 0 
L 44.484375 0 
L 44.484375 32.71875 
Q 44.484375 40.625 41.703125 44.40625 
Q 38.921875 48.1875 33.109375 48.1875 
Q 26.21875 48.1875 22.15625 43.53125 
Q 18.109375 38.875 18.109375 30.90625 
L 18.109375 0 
L 9.078125 0 
L 9.078125 54.6875 
L 18.109375 54.6875 
L 18.109375 46.1875 
Q 21.1875 51.21875 25.484375 53.609375 
Q 29.78125 56 35.6875 56 
Q 41.65625 56 45.828125 52.96875 
Q 50 49.953125 52 44.1875 
z
" id="DejaVuSans-109"/>
      <path d="M 37.109375 75.984375 
L 37.109375 68.5 
L 28.515625 68.5 
Q 23.6875 68.5 21.796875 66.546875 
Q 19.921875 64.59375 19.921875 59.515625 
L 19.921875 54.6875 
L 34.71875 54.6875 
L 34.71875 47.703125 
L 19.921875 47.703125 
L 19.921875 0 
L 10.890625 0 
L 10.890625 47.703125 
L 2.296875 47.703125 
L 2.296875 54.6875 
L 10.890625 54.6875 
L 10.890625 58.5 
Q 10.890625 67.625 15.140625 71.796875 
Q 19.390625 75.984375 28.609375 75.984375 
z
" id="DejaVuSans-102"/>
      <path d="M 32.171875 -5.078125 
Q 28.375 -14.84375 24.75 -17.8125 
Q 21.140625 -20.796875 15.09375 -20.796875 
L 7.90625 -20.796875 
L 7.90625 -13.28125 
L 13.1875 -13.28125 
Q 16.890625 -13.28125 18.9375 -11.515625 
Q 21 -9.765625 23.484375 -3.21875 
L 25.09375 0.875 
L 2.984375 54.6875 
L 12.5 54.6875 
L 29.59375 11.921875 
L 46.6875 54.6875 
L 56.203125 54.6875 
z
" id="DejaVuSans-121"/>
      <path d="M 25.390625 72.90625 
L 33.6875 72.90625 
L 8.296875 -9.28125 
L 0 -9.28125 
z
" id="DejaVuSans-47"/>
     </defs>
     <use xlink:href="#DejaVuSans-84"/>
     <use x="61.083984" xlink:href="#DejaVuSans-104"/>
     <use x="124.462891" xlink:href="#DejaVuSans-101"/>
     <use x="185.986328" xlink:href="#DejaVuSans-32"/>
     <use x="217.773438" xlink:href="#DejaVuSans-108"/>
     <use x="245.556641" xlink:href="#DejaVuSans-101"/>
     <use x="307.080078" xlink:href="#DejaVuSans-97"/>
     <use x="368.359375" xlink:href="#DejaVuSans-114"/>
     <use x="407.722656" xlink:href="#DejaVuSans-110"/>
     <use x="471.101562" xlink:href="#DejaVuSans-105"/>
     <use x="498.884766" xlink:href="#DejaVuSans-110"/>
     <use x="562.263672" xlink:href="#DejaVuSans-103"/>
     <use x="625.740234" xlink:href="#DejaVuSans-32"/>
     <use x="657.527344" xlink:href="#DejaVuSans-99"/>
     <use x="712.507812" xlink:href="#DejaVuSans-117"/>
     <use x="775.886719" xlink:href="#DejaVuSans-114"/>
     <use x="817" xlink:href="#DejaVuSans-118"/>
     <use x="876.179688" xlink:href="#DejaVuSans-101"/>
     <use x="937.703125" xlink:href="#DejaVuSans-32"/>
     <use x="969.490234" xlink:href="#DejaVuSans-111"/>
     <use x="1030.671875" xlink:href="#DejaVuSans-110"/>
     <use x="1094.050781" xlink:href="#DejaVuSans-32"/>
     <use x="1125.837891" xlink:href="#DejaVuSans-955"/>
     <use x="1185.017578" xlink:href="#DejaVuSans-95"/>
     <use x="1235.017578" xlink:href="#DejaVuSans-110"/>
     <use x="1298.396484" xlink:href="#DejaVuSans-111"/>
     <use x="1359.578125" xlink:href="#DejaVuSans-110"/>
     <use x="1422.957031" xlink:href="#DejaVuSans-95"/>
     <use x="1472.957031" xlink:href="#DejaVuSans-105"/>
     <use x="1500.740234" xlink:href="#DejaVuSans-105"/>
     <use x="1528.523438" xlink:href="#DejaVuSans-100"/>
     <use x="1592" xlink:href="#DejaVuSans-95"/>
     <use x="1642" xlink:href="#DejaVuSans-97"/>
     <use x="1703.279297" xlink:href="#DejaVuSans-103"/>
     <use x="1766.755859" xlink:href="#DejaVuSans-103"/>
     <use x="1830.232422" xlink:href="#DejaVuSans-95"/>
     <use x="1880.232422" xlink:href="#DejaVuSans-109"/>
     <use x="1977.644531" xlink:href="#DejaVuSans-111"/>
     <use x="2038.826172" xlink:href="#DejaVuSans-100"/>
     <use x="2102.302734" xlink:href="#DejaVuSans-105"/>
     <use x="2130.085938" xlink:href="#DejaVuSans-102"/>
     <use x="2163.541016" xlink:href="#DejaVuSans-121"/>
     <use x="2222.720703" xlink:href="#DejaVuSans-47"/>
     <use x="2256.412109" xlink:href="#DejaVuSans-104"/>
     <use x="2319.791016" xlink:href="#DejaVuSans-111"/>
     <use x="2380.972656" xlink:href="#DejaVuSans-115"/>
     <use x="2433.072266" xlink:href="#DejaVuSans-116"/>
     <use x="2472.28125" xlink:href="#DejaVuSans-47"/>
     <use x="2505.972656" xlink:href="#DejaVuSans-52"/>
    </g>
   </g>
   <g id="legend_2">
    <g id="patch_12">
     <path d="M 460.084375 74.518125 
L 511.4 74.518125 
Q 513.4 74.518125 513.4 72.518125 
L 513.4 58.84 
Q 513.4 56.84 511.4 56.84 
L 460.084375 56.84 
Q 458.084375 56.84 458.084375 58.84 
L 458.084375 72.518125 
Q 458.084375 74.518125 460.084375 74.518125 
z
" style="fill:#ffffff;opacity:0.8;stroke:#cccccc;stroke-linejoin:miter;"/>
    </g>
    <g id="line2d_27">
     <path d="M 462.084375 64.938438 
L 482.084375 64.938438 
" style="fill:none;stroke:#ff0000;stroke-linecap:square;stroke-width:1.5;"/>
    </g>
    <g id="line2d_28"/>
    <g id="text_26">
     <!-- loss -->
     <g transform="translate(490.084375 68.438438)scale(0.1 -0.1)">
      <use xlink:href="#DejaVuSans-108"/>
      <use x="27.783203" xlink:href="#DejaVuSans-111"/>
      <use x="88.964844" xlink:href="#DejaVuSans-115"/>
      <use x="141.064453" xlink:href="#DejaVuSans-115"/>
     </g>
    </g>
   </g>
  </g>
 </g>
 <defs>
  <clipPath id="p2b24c6fd5c">
   <rect height="332.64" width="446.4" x="72" y="51.84"/>
  </clipPath>
 </defs>
</svg>
