<?xml version="1.0" encoding="utf-8" standalone="no"?>
<!DOCTYPE svg PUBLIC "-//W3C//DTD SVG 1.1//EN"
  "http://www.w3.org/Graphics/SVG/1.1/DTD/svg11.dtd">
<!-- Created with matplotlib (https://matplotlib.org/) -->
<svg height="432pt" version="1.1" viewBox="0 0 576 432" width="576pt" xmlns="http://www.w3.org/2000/svg" xmlns:xlink="http://www.w3.org/1999/xlink">
 <metadata>
  <rdf:RDF xmlns:cc="http://creativecommons.org/ns#" xmlns:dc="http://purl.org/dc/elements/1.1/" xmlns:rdf="http://www.w3.org/1999/02/22-rdf-syntax-ns#">
   <cc:Work>
    <dc:type rdf:resource="http://purl.org/dc/dcmitype/StillImage"/>
    <dc:date>2023-04-18T10:01:55.548728</dc:date>
    <dc:format>image/svg+xml</dc:format>
    <dc:creator>
     <cc:Agent>
      <dc:title>Matplotlib v3.3.4, https://matplotlib.org/</dc:title>
     </cc:Agent>
    </dc:creator>
   </cc:Work>
  </rdf:RDF>
 </metadata>
 <defs>
  <style type="text/css">*{stroke-linecap:butt;stroke-linejoin:round;}</style>
 </defs>
 <g id="figure_1">
  <g id="patch_1">
   <path d="M 0 432 
L 576 432 
L 576 0 
L 0 0 
z
" style="fill:#ffffff;"/>
  </g>
  <g id="axes_1">
   <g id="patch_2">
    <path d="M 72 384.48 
L 518.4 384.48 
L 518.4 51.84 
L 72 51.84 
z
" style="fill:#ffffff;"/>
   </g>
   <g id="matplotlib.axis_1">
    <g id="xtick_1">
     <g id="line2d_1">
      <defs>
       <path d="M 0 0 
L 0 3.5 
" id="m816492f28a" style="stroke:#000000;stroke-width:0.8;"/>
      </defs>
      <g>
       <use style="stroke:#000000;stroke-width:0.8;" x="92.290909" xlink:href="#m816492f28a" y="384.48"/>
      </g>
     </g>
     <g id="text_1">
      <!-- 0 -->
      <g transform="translate(89.109659 399.078438)scale(0.1 -0.1)">
       <defs>
        <path d="M 31.78125 66.40625 
Q 24.171875 66.40625 20.328125 58.90625 
Q 16.5 51.421875 16.5 36.375 
Q 16.5 21.390625 20.328125 13.890625 
Q 24.171875 6.390625 31.78125 6.390625 
Q 39.453125 6.390625 43.28125 13.890625 
Q 47.125 21.390625 47.125 36.375 
Q 47.125 51.421875 43.28125 58.90625 
Q 39.453125 66.40625 31.78125 66.40625 
z
M 31.78125 74.21875 
Q 44.046875 74.21875 50.515625 64.515625 
Q 56.984375 54.828125 56.984375 36.375 
Q 56.984375 17.96875 50.515625 8.265625 
Q 44.046875 -1.421875 31.78125 -1.421875 
Q 19.53125 -1.421875 13.0625 8.265625 
Q 6.59375 17.96875 6.59375 36.375 
Q 6.59375 54.828125 13.0625 64.515625 
Q 19.53125 74.21875 31.78125 74.21875 
z
" id="DejaVuSans-48"/>
       </defs>
       <use xlink:href="#DejaVuSans-48"/>
      </g>
     </g>
    </g>
    <g id="xtick_2">
     <g id="line2d_2">
      <g>
       <use style="stroke:#000000;stroke-width:0.8;" x="173.617198" xlink:href="#m816492f28a" y="384.48"/>
      </g>
     </g>
     <g id="text_2">
      <!-- 100 -->
      <g transform="translate(164.073448 399.078438)scale(0.1 -0.1)">
       <defs>
        <path d="M 12.40625 8.296875 
L 28.515625 8.296875 
L 28.515625 63.921875 
L 10.984375 60.40625 
L 10.984375 69.390625 
L 28.421875 72.90625 
L 38.28125 72.90625 
L 38.28125 8.296875 
L 54.390625 8.296875 
L 54.390625 0 
L 12.40625 0 
z
" id="DejaVuSans-49"/>
       </defs>
       <use xlink:href="#DejaVuSans-49"/>
       <use x="63.623047" xlink:href="#DejaVuSans-48"/>
       <use x="127.246094" xlink:href="#DejaVuSans-48"/>
      </g>
     </g>
    </g>
    <g id="xtick_3">
     <g id="line2d_3">
      <g>
       <use style="stroke:#000000;stroke-width:0.8;" x="254.943487" xlink:href="#m816492f28a" y="384.48"/>
      </g>
     </g>
     <g id="text_3">
      <!-- 200 -->
      <g transform="translate(245.399737 399.078438)scale(0.1 -0.1)">
       <defs>
        <path d="M 19.1875 8.296875 
L 53.609375 8.296875 
L 53.609375 0 
L 7.328125 0 
L 7.328125 8.296875 
Q 12.9375 14.109375 22.625 23.890625 
Q 32.328125 33.6875 34.8125 36.53125 
Q 39.546875 41.84375 41.421875 45.53125 
Q 43.3125 49.21875 43.3125 52.78125 
Q 43.3125 58.59375 39.234375 62.25 
Q 35.15625 65.921875 28.609375 65.921875 
Q 23.96875 65.921875 18.8125 64.3125 
Q 13.671875 62.703125 7.8125 59.421875 
L 7.8125 69.390625 
Q 13.765625 71.78125 18.9375 73 
Q 24.125 74.21875 28.421875 74.21875 
Q 39.75 74.21875 46.484375 68.546875 
Q 53.21875 62.890625 53.21875 53.421875 
Q 53.21875 48.921875 51.53125 44.890625 
Q 49.859375 40.875 45.40625 35.40625 
Q 44.1875 33.984375 37.640625 27.21875 
Q 31.109375 20.453125 19.1875 8.296875 
z
" id="DejaVuSans-50"/>
       </defs>
       <use xlink:href="#DejaVuSans-50"/>
       <use x="63.623047" xlink:href="#DejaVuSans-48"/>
       <use x="127.246094" xlink:href="#DejaVuSans-48"/>
      </g>
     </g>
    </g>
    <g id="xtick_4">
     <g id="line2d_4">
      <g>
       <use style="stroke:#000000;stroke-width:0.8;" x="336.269776" xlink:href="#m816492f28a" y="384.48"/>
      </g>
     </g>
     <g id="text_4">
      <!-- 300 -->
      <g transform="translate(326.726026 399.078438)scale(0.1 -0.1)">
       <defs>
        <path d="M 40.578125 39.3125 
Q 47.65625 37.796875 51.625 33 
Q 55.609375 28.21875 55.609375 21.1875 
Q 55.609375 10.40625 48.1875 4.484375 
Q 40.765625 -1.421875 27.09375 -1.421875 
Q 22.515625 -1.421875 17.65625 -0.515625 
Q 12.796875 0.390625 7.625 2.203125 
L 7.625 11.71875 
Q 11.71875 9.328125 16.59375 8.109375 
Q 21.484375 6.890625 26.8125 6.890625 
Q 36.078125 6.890625 40.9375 10.546875 
Q 45.796875 14.203125 45.796875 21.1875 
Q 45.796875 27.640625 41.28125 31.265625 
Q 36.765625 34.90625 28.71875 34.90625 
L 20.21875 34.90625 
L 20.21875 43.015625 
L 29.109375 43.015625 
Q 36.375 43.015625 40.234375 45.921875 
Q 44.09375 48.828125 44.09375 54.296875 
Q 44.09375 59.90625 40.109375 62.90625 
Q 36.140625 65.921875 28.71875 65.921875 
Q 24.65625 65.921875 20.015625 65.03125 
Q 15.375 64.15625 9.8125 62.3125 
L 9.8125 71.09375 
Q 15.4375 72.65625 20.34375 73.4375 
Q 25.25 74.21875 29.59375 74.21875 
Q 40.828125 74.21875 47.359375 69.109375 
Q 53.90625 64.015625 53.90625 55.328125 
Q 53.90625 49.265625 50.4375 45.09375 
Q 46.96875 40.921875 40.578125 39.3125 
z
" id="DejaVuSans-51"/>
       </defs>
       <use xlink:href="#DejaVuSans-51"/>
       <use x="63.623047" xlink:href="#DejaVuSans-48"/>
       <use x="127.246094" xlink:href="#DejaVuSans-48"/>
      </g>
     </g>
    </g>
    <g id="xtick_5">
     <g id="line2d_5">
      <g>
       <use style="stroke:#000000;stroke-width:0.8;" x="417.596065" xlink:href="#m816492f28a" y="384.48"/>
      </g>
     </g>
     <g id="text_5">
      <!-- 400 -->
      <g transform="translate(408.052315 399.078438)scale(0.1 -0.1)">
       <defs>
        <path d="M 37.796875 64.3125 
L 12.890625 25.390625 
L 37.796875 25.390625 
z
M 35.203125 72.90625 
L 47.609375 72.90625 
L 47.609375 25.390625 
L 58.015625 25.390625 
L 58.015625 17.1875 
L 47.609375 17.1875 
L 47.609375 0 
L 37.796875 0 
L 37.796875 17.1875 
L 4.890625 17.1875 
L 4.890625 26.703125 
z
" id="DejaVuSans-52"/>
       </defs>
       <use xlink:href="#DejaVuSans-52"/>
       <use x="63.623047" xlink:href="#DejaVuSans-48"/>
       <use x="127.246094" xlink:href="#DejaVuSans-48"/>
      </g>
     </g>
    </g>
    <g id="xtick_6">
     <g id="line2d_6">
      <g>
       <use style="stroke:#000000;stroke-width:0.8;" x="498.922354" xlink:href="#m816492f28a" y="384.48"/>
      </g>
     </g>
     <g id="text_6">
      <!-- 500 -->
      <g transform="translate(489.378604 399.078438)scale(0.1 -0.1)">
       <defs>
        <path d="M 10.796875 72.90625 
L 49.515625 72.90625 
L 49.515625 64.59375 
L 19.828125 64.59375 
L 19.828125 46.734375 
Q 21.96875 47.46875 24.109375 47.828125 
Q 26.265625 48.1875 28.421875 48.1875 
Q 40.625 48.1875 47.75 41.5 
Q 54.890625 34.8125 54.890625 23.390625 
Q 54.890625 11.625 47.5625 5.09375 
Q 40.234375 -1.421875 26.90625 -1.421875 
Q 22.3125 -1.421875 17.546875 -0.640625 
Q 12.796875 0.140625 7.71875 1.703125 
L 7.71875 11.625 
Q 12.109375 9.234375 16.796875 8.0625 
Q 21.484375 6.890625 26.703125 6.890625 
Q 35.15625 6.890625 40.078125 11.328125 
Q 45.015625 15.765625 45.015625 23.390625 
Q 45.015625 31 40.078125 35.4375 
Q 35.15625 39.890625 26.703125 39.890625 
Q 22.75 39.890625 18.8125 39.015625 
Q 14.890625 38.140625 10.796875 36.28125 
z
" id="DejaVuSans-53"/>
       </defs>
       <use xlink:href="#DejaVuSans-53"/>
       <use x="63.623047" xlink:href="#DejaVuSans-48"/>
       <use x="127.246094" xlink:href="#DejaVuSans-48"/>
      </g>
     </g>
    </g>
    <g id="text_7">
     <!-- epoch -->
     <g transform="translate(279.971875 412.756563)scale(0.1 -0.1)">
      <defs>
       <path d="M 56.203125 29.59375 
L 56.203125 25.203125 
L 14.890625 25.203125 
Q 15.484375 15.921875 20.484375 11.0625 
Q 25.484375 6.203125 34.421875 6.203125 
Q 39.59375 6.203125 44.453125 7.46875 
Q 49.3125 8.734375 54.109375 11.28125 
L 54.109375 2.78125 
Q 49.265625 0.734375 44.1875 -0.34375 
Q 39.109375 -1.421875 33.890625 -1.421875 
Q 20.796875 -1.421875 13.15625 6.1875 
Q 5.515625 13.8125 5.515625 26.8125 
Q 5.515625 40.234375 12.765625 48.109375 
Q 20.015625 56 32.328125 56 
Q 43.359375 56 49.78125 48.890625 
Q 56.203125 41.796875 56.203125 29.59375 
z
M 47.21875 32.234375 
Q 47.125 39.59375 43.09375 43.984375 
Q 39.0625 48.390625 32.421875 48.390625 
Q 24.90625 48.390625 20.390625 44.140625 
Q 15.875 39.890625 15.1875 32.171875 
z
" id="DejaVuSans-101"/>
       <path d="M 18.109375 8.203125 
L 18.109375 -20.796875 
L 9.078125 -20.796875 
L 9.078125 54.6875 
L 18.109375 54.6875 
L 18.109375 46.390625 
Q 20.953125 51.265625 25.265625 53.625 
Q 29.59375 56 35.59375 56 
Q 45.5625 56 51.78125 48.09375 
Q 58.015625 40.1875 58.015625 27.296875 
Q 58.015625 14.40625 51.78125 6.484375 
Q 45.5625 -1.421875 35.59375 -1.421875 
Q 29.59375 -1.421875 25.265625 0.953125 
Q 20.953125 3.328125 18.109375 8.203125 
z
M 48.6875 27.296875 
Q 48.6875 37.203125 44.609375 42.84375 
Q 40.53125 48.484375 33.40625 48.484375 
Q 26.265625 48.484375 22.1875 42.84375 
Q 18.109375 37.203125 18.109375 27.296875 
Q 18.109375 17.390625 22.1875 11.75 
Q 26.265625 6.109375 33.40625 6.109375 
Q 40.53125 6.109375 44.609375 11.75 
Q 48.6875 17.390625 48.6875 27.296875 
z
" id="DejaVuSans-112"/>
       <path d="M 30.609375 48.390625 
Q 23.390625 48.390625 19.1875 42.75 
Q 14.984375 37.109375 14.984375 27.296875 
Q 14.984375 17.484375 19.15625 11.84375 
Q 23.34375 6.203125 30.609375 6.203125 
Q 37.796875 6.203125 41.984375 11.859375 
Q 46.1875 17.53125 46.1875 27.296875 
Q 46.1875 37.015625 41.984375 42.703125 
Q 37.796875 48.390625 30.609375 48.390625 
z
M 30.609375 56 
Q 42.328125 56 49.015625 48.375 
Q 55.71875 40.765625 55.71875 27.296875 
Q 55.71875 13.875 49.015625 6.21875 
Q 42.328125 -1.421875 30.609375 -1.421875 
Q 18.84375 -1.421875 12.171875 6.21875 
Q 5.515625 13.875 5.515625 27.296875 
Q 5.515625 40.765625 12.171875 48.375 
Q 18.84375 56 30.609375 56 
z
" id="DejaVuSans-111"/>
       <path d="M 48.78125 52.59375 
L 48.78125 44.1875 
Q 44.96875 46.296875 41.140625 47.34375 
Q 37.3125 48.390625 33.40625 48.390625 
Q 24.65625 48.390625 19.8125 42.84375 
Q 14.984375 37.3125 14.984375 27.296875 
Q 14.984375 17.28125 19.8125 11.734375 
Q 24.65625 6.203125 33.40625 6.203125 
Q 37.3125 6.203125 41.140625 7.25 
Q 44.96875 8.296875 48.78125 10.40625 
L 48.78125 2.09375 
Q 45.015625 0.34375 40.984375 -0.53125 
Q 36.96875 -1.421875 32.421875 -1.421875 
Q 20.0625 -1.421875 12.78125 6.34375 
Q 5.515625 14.109375 5.515625 27.296875 
Q 5.515625 40.671875 12.859375 48.328125 
Q 20.21875 56 33.015625 56 
Q 37.15625 56 41.109375 55.140625 
Q 45.0625 54.296875 48.78125 52.59375 
z
" id="DejaVuSans-99"/>
       <path d="M 54.890625 33.015625 
L 54.890625 0 
L 45.90625 0 
L 45.90625 32.71875 
Q 45.90625 40.484375 42.875 44.328125 
Q 39.84375 48.1875 33.796875 48.1875 
Q 26.515625 48.1875 22.3125 43.546875 
Q 18.109375 38.921875 18.109375 30.90625 
L 18.109375 0 
L 9.078125 0 
L 9.078125 75.984375 
L 18.109375 75.984375 
L 18.109375 46.1875 
Q 21.34375 51.125 25.703125 53.5625 
Q 30.078125 56 35.796875 56 
Q 45.21875 56 50.046875 50.171875 
Q 54.890625 44.34375 54.890625 33.015625 
z
" id="DejaVuSans-104"/>
      </defs>
      <use xlink:href="#DejaVuSans-101"/>
      <use x="61.523438" xlink:href="#DejaVuSans-112"/>
      <use x="125" xlink:href="#DejaVuSans-111"/>
      <use x="186.181641" xlink:href="#DejaVuSans-99"/>
      <use x="241.162109" xlink:href="#DejaVuSans-104"/>
     </g>
    </g>
   </g>
   <g id="matplotlib.axis_2">
    <g id="ytick_1">
     <g id="line2d_7">
      <defs>
       <path d="M 0 0 
L -3.5 0 
" id="m96a71775c8" style="stroke:#000000;stroke-width:0.8;"/>
      </defs>
      <g>
       <use style="stroke:#000000;stroke-width:0.8;" x="72" xlink:href="#m96a71775c8" y="384.48"/>
      </g>
     </g>
     <g id="text_8">
      <!-- 0.0 -->
      <g transform="translate(49.096875 388.279219)scale(0.1 -0.1)">
       <defs>
        <path d="M 10.6875 12.40625 
L 21 12.40625 
L 21 0 
L 10.6875 0 
z
" id="DejaVuSans-46"/>
       </defs>
       <use xlink:href="#DejaVuSans-48"/>
       <use x="63.623047" xlink:href="#DejaVuSans-46"/>
       <use x="95.410156" xlink:href="#DejaVuSans-48"/>
      </g>
     </g>
    </g>
    <g id="ytick_2">
     <g id="line2d_8">
      <g>
       <use style="stroke:#000000;stroke-width:0.8;" x="72" xlink:href="#m96a71775c8" y="317.952"/>
      </g>
     </g>
     <g id="text_9">
      <!-- 0.2 -->
      <g transform="translate(49.096875 321.751219)scale(0.1 -0.1)">
       <use xlink:href="#DejaVuSans-48"/>
       <use x="63.623047" xlink:href="#DejaVuSans-46"/>
       <use x="95.410156" xlink:href="#DejaVuSans-50"/>
      </g>
     </g>
    </g>
    <g id="ytick_3">
     <g id="line2d_9">
      <g>
       <use style="stroke:#000000;stroke-width:0.8;" x="72" xlink:href="#m96a71775c8" y="251.424"/>
      </g>
     </g>
     <g id="text_10">
      <!-- 0.4 -->
      <g transform="translate(49.096875 255.223219)scale(0.1 -0.1)">
       <use xlink:href="#DejaVuSans-48"/>
       <use x="63.623047" xlink:href="#DejaVuSans-46"/>
       <use x="95.410156" xlink:href="#DejaVuSans-52"/>
      </g>
     </g>
    </g>
    <g id="ytick_4">
     <g id="line2d_10">
      <g>
       <use style="stroke:#000000;stroke-width:0.8;" x="72" xlink:href="#m96a71775c8" y="184.896"/>
      </g>
     </g>
     <g id="text_11">
      <!-- 0.6 -->
      <g transform="translate(49.096875 188.695219)scale(0.1 -0.1)">
       <defs>
        <path d="M 33.015625 40.375 
Q 26.375 40.375 22.484375 35.828125 
Q 18.609375 31.296875 18.609375 23.390625 
Q 18.609375 15.53125 22.484375 10.953125 
Q 26.375 6.390625 33.015625 6.390625 
Q 39.65625 6.390625 43.53125 10.953125 
Q 47.40625 15.53125 47.40625 23.390625 
Q 47.40625 31.296875 43.53125 35.828125 
Q 39.65625 40.375 33.015625 40.375 
z
M 52.59375 71.296875 
L 52.59375 62.3125 
Q 48.875 64.0625 45.09375 64.984375 
Q 41.3125 65.921875 37.59375 65.921875 
Q 27.828125 65.921875 22.671875 59.328125 
Q 17.53125 52.734375 16.796875 39.40625 
Q 19.671875 43.65625 24.015625 45.921875 
Q 28.375 48.1875 33.59375 48.1875 
Q 44.578125 48.1875 50.953125 41.515625 
Q 57.328125 34.859375 57.328125 23.390625 
Q 57.328125 12.15625 50.6875 5.359375 
Q 44.046875 -1.421875 33.015625 -1.421875 
Q 20.359375 -1.421875 13.671875 8.265625 
Q 6.984375 17.96875 6.984375 36.375 
Q 6.984375 53.65625 15.1875 63.9375 
Q 23.390625 74.21875 37.203125 74.21875 
Q 40.921875 74.21875 44.703125 73.484375 
Q 48.484375 72.75 52.59375 71.296875 
z
" id="DejaVuSans-54"/>
       </defs>
       <use xlink:href="#DejaVuSans-48"/>
       <use x="63.623047" xlink:href="#DejaVuSans-46"/>
       <use x="95.410156" xlink:href="#DejaVuSans-54"/>
      </g>
     </g>
    </g>
    <g id="ytick_5">
     <g id="line2d_11">
      <g>
       <use style="stroke:#000000;stroke-width:0.8;" x="72" xlink:href="#m96a71775c8" y="118.368"/>
      </g>
     </g>
     <g id="text_12">
      <!-- 0.8 -->
      <g transform="translate(49.096875 122.167219)scale(0.1 -0.1)">
       <defs>
        <path d="M 31.78125 34.625 
Q 24.75 34.625 20.71875 30.859375 
Q 16.703125 27.09375 16.703125 20.515625 
Q 16.703125 13.921875 20.71875 10.15625 
Q 24.75 6.390625 31.78125 6.390625 
Q 38.8125 6.390625 42.859375 10.171875 
Q 46.921875 13.96875 46.921875 20.515625 
Q 46.921875 27.09375 42.890625 30.859375 
Q 38.875 34.625 31.78125 34.625 
z
M 21.921875 38.8125 
Q 15.578125 40.375 12.03125 44.71875 
Q 8.5 49.078125 8.5 55.328125 
Q 8.5 64.0625 14.71875 69.140625 
Q 20.953125 74.21875 31.78125 74.21875 
Q 42.671875 74.21875 48.875 69.140625 
Q 55.078125 64.0625 55.078125 55.328125 
Q 55.078125 49.078125 51.53125 44.71875 
Q 48 40.375 41.703125 38.8125 
Q 48.828125 37.15625 52.796875 32.3125 
Q 56.78125 27.484375 56.78125 20.515625 
Q 56.78125 9.90625 50.3125 4.234375 
Q 43.84375 -1.421875 31.78125 -1.421875 
Q 19.734375 -1.421875 13.25 4.234375 
Q 6.78125 9.90625 6.78125 20.515625 
Q 6.78125 27.484375 10.78125 32.3125 
Q 14.796875 37.15625 21.921875 38.8125 
z
M 18.3125 54.390625 
Q 18.3125 48.734375 21.84375 45.5625 
Q 25.390625 42.390625 31.78125 42.390625 
Q 38.140625 42.390625 41.71875 45.5625 
Q 45.3125 48.734375 45.3125 54.390625 
Q 45.3125 60.0625 41.71875 63.234375 
Q 38.140625 66.40625 31.78125 66.40625 
Q 25.390625 66.40625 21.84375 63.234375 
Q 18.3125 60.0625 18.3125 54.390625 
z
" id="DejaVuSans-56"/>
       </defs>
       <use xlink:href="#DejaVuSans-48"/>
       <use x="63.623047" xlink:href="#DejaVuSans-46"/>
       <use x="95.410156" xlink:href="#DejaVuSans-56"/>
      </g>
     </g>
    </g>
    <g id="ytick_6">
     <g id="line2d_12">
      <g>
       <use style="stroke:#000000;stroke-width:0.8;" x="72" xlink:href="#m96a71775c8" y="51.84"/>
      </g>
     </g>
     <g id="text_13">
      <!-- 1.0 -->
      <g transform="translate(49.096875 55.639219)scale(0.1 -0.1)">
       <use xlink:href="#DejaVuSans-49"/>
       <use x="63.623047" xlink:href="#DejaVuSans-46"/>
       <use x="95.410156" xlink:href="#DejaVuSans-48"/>
      </g>
     </g>
    </g>
    <g id="text_14">
     <!-- rate -->
     <g transform="translate(43.017187 228.31625)rotate(-90)scale(0.1 -0.1)">
      <defs>
       <path d="M 41.109375 46.296875 
Q 39.59375 47.171875 37.8125 47.578125 
Q 36.03125 48 33.890625 48 
Q 26.265625 48 22.1875 43.046875 
Q 18.109375 38.09375 18.109375 28.8125 
L 18.109375 0 
L 9.078125 0 
L 9.078125 54.6875 
L 18.109375 54.6875 
L 18.109375 46.1875 
Q 20.953125 51.171875 25.484375 53.578125 
Q 30.03125 56 36.53125 56 
Q 37.453125 56 38.578125 55.875 
Q 39.703125 55.765625 41.0625 55.515625 
z
" id="DejaVuSans-114"/>
       <path d="M 34.28125 27.484375 
Q 23.390625 27.484375 19.1875 25 
Q 14.984375 22.515625 14.984375 16.5 
Q 14.984375 11.71875 18.140625 8.90625 
Q 21.296875 6.109375 26.703125 6.109375 
Q 34.1875 6.109375 38.703125 11.40625 
Q 43.21875 16.703125 43.21875 25.484375 
L 43.21875 27.484375 
z
M 52.203125 31.203125 
L 52.203125 0 
L 43.21875 0 
L 43.21875 8.296875 
Q 40.140625 3.328125 35.546875 0.953125 
Q 30.953125 -1.421875 24.3125 -1.421875 
Q 15.921875 -1.421875 10.953125 3.296875 
Q 6 8.015625 6 15.921875 
Q 6 25.140625 12.171875 29.828125 
Q 18.359375 34.515625 30.609375 34.515625 
L 43.21875 34.515625 
L 43.21875 35.40625 
Q 43.21875 41.609375 39.140625 45 
Q 35.0625 48.390625 27.6875 48.390625 
Q 23 48.390625 18.546875 47.265625 
Q 14.109375 46.140625 10.015625 43.890625 
L 10.015625 52.203125 
Q 14.9375 54.109375 19.578125 55.046875 
Q 24.21875 56 28.609375 56 
Q 40.484375 56 46.34375 49.84375 
Q 52.203125 43.703125 52.203125 31.203125 
z
" id="DejaVuSans-97"/>
       <path d="M 18.3125 70.21875 
L 18.3125 54.6875 
L 36.8125 54.6875 
L 36.8125 47.703125 
L 18.3125 47.703125 
L 18.3125 18.015625 
Q 18.3125 11.328125 20.140625 9.421875 
Q 21.96875 7.515625 27.59375 7.515625 
L 36.8125 7.515625 
L 36.8125 0 
L 27.59375 0 
Q 17.1875 0 13.234375 3.875 
Q 9.28125 7.765625 9.28125 18.015625 
L 9.28125 47.703125 
L 2.6875 47.703125 
L 2.6875 54.6875 
L 9.28125 54.6875 
L 9.28125 70.21875 
z
" id="DejaVuSans-116"/>
      </defs>
      <use xlink:href="#DejaVuSans-114"/>
      <use x="41.113281" xlink:href="#DejaVuSans-97"/>
      <use x="102.392578" xlink:href="#DejaVuSans-116"/>
      <use x="141.601562" xlink:href="#DejaVuSans-101"/>
     </g>
    </g>
   </g>
   <g id="line2d_13">
    <path clip-path="url(#p9e5ee69130)" d="M 92.290909 190.917255 
L 93.104172 161.837538 
L 93.917435 152.768246 
L 94.730698 149.057896 
L 95.543961 148.693182 
L 96.357224 147.022688 
L 97.170486 145.867158 
L 98.797012 140.355203 
L 99.610275 139.690188 
L 100.423538 178.011499 
L 101.236801 138.079683 
L 102.050064 135.436355 
L 102.863327 130.788589 
L 103.67659 128.805239 
L 104.489852 127.925532 
L 105.303115 124.816211 
L 106.116378 124.250387 
L 106.929641 122.780703 
L 107.742904 120.028123 
L 108.556167 167.508744 
L 109.36943 140.554938 
L 110.182693 135.309372 
L 110.995956 127.002294 
L 111.809218 126.533464 
L 112.622481 124.8171 
L 113.435744 120.021659 
L 114.249007 121.408652 
L 115.06227 118.040897 
L 115.875533 116.485228 
L 116.688796 168.940684 
L 117.502059 139.572591 
L 118.315322 135.427781 
L 119.128584 126.656994 
L 119.941847 122.250975 
L 120.75511 121.415251 
L 121.568373 119.124836 
L 122.381636 118.039504 
L 123.194899 114.323785 
L 124.008162 113.428005 
L 124.821425 170.435948 
L 125.634688 141.670531 
L 127.261213 127.682653 
L 128.074476 123.20903 
L 129.701002 117.629718 
L 130.514265 117.336581 
L 131.327528 113.300512 
L 132.140791 111.512984 
L 132.954054 165.730552 
L 133.767316 144.760076 
L 134.580579 136.304024 
L 135.393842 124.081638 
L 136.207105 121.477875 
L 137.020368 117.563955 
L 138.646894 113.534918 
L 139.460157 110.664402 
L 140.27342 106.91285 
L 141.086682 166.862564 
L 141.899945 146.542895 
L 143.526471 125.021258 
L 144.339734 121.775194 
L 145.152997 115.594606 
L 145.96626 110.427517 
L 146.779523 107.055635 
L 147.592786 107.509508 
L 148.406048 106.255676 
L 149.219311 165.230544 
L 150.032574 146.889497 
L 150.845837 135.047505 
L 151.6591 126.13778 
L 152.472363 122.201031 
L 153.285626 114.513884 
L 154.098889 111.84998 
L 154.912152 109.869541 
L 155.725414 104.504187 
L 156.538677 104.658403 
L 157.35194 167.629727 
L 158.165203 150.78595 
L 158.978466 130.403446 
L 159.791729 127.150313 
L 160.604992 118.101131 
L 161.418255 116.16762 
L 162.231518 110.005116 
L 163.04478 108.734764 
L 164.671306 100.061517 
L 165.484569 169.83182 
L 166.297832 149.990824 
L 167.111095 133.672175 
L 167.924358 123.100119 
L 168.737621 119.569186 
L 169.550884 114.036657 
L 170.364146 109.361626 
L 171.177409 103.862932 
L 171.990672 103.14203 
L 172.803935 99.815737 
L 173.617198 171.689125 
L 174.430461 156.31079 
L 175.243724 134.890351 
L 176.056987 127.891612 
L 176.87025 129.225651 
L 177.683512 121.930847 
L 178.496775 118.897272 
L 179.310038 115.431171 
L 180.123301 114.145059 
L 180.936564 112.639182 
L 181.749827 180.727217 
L 182.56309 143.140191 
L 183.376353 145.161396 
L 184.189616 133.877107 
L 185.002878 128.905485 
L 185.816141 125.66684 
L 186.629404 120.321768 
L 187.442667 117.387847 
L 188.25593 113.733261 
L 189.069193 112.052834 
L 189.882456 193.321482 
L 190.695719 141.035873 
L 191.508982 144.718106 
L 192.322244 132.838106 
L 193.135507 126.38784 
L 193.94877 122.173478 
L 194.762033 122.350984 
L 195.575296 118.210208 
L 196.388559 117.469629 
L 197.201822 110.972532 
L 198.015085 192.423434 
L 198.828348 142.051556 
L 199.64161 143.747165 
L 200.454873 138.490364 
L 201.268136 126.266493 
L 202.081399 123.655608 
L 202.894662 119.437944 
L 203.707925 118.088202 
L 204.521188 114.623272 
L 205.334451 109.73328 
L 206.147714 197.653638 
L 206.960976 138.427021 
L 207.774239 140.964746 
L 208.587502 137.137596 
L 209.400765 129.248319 
L 210.214028 124.412203 
L 211.840554 116.527073 
L 212.653817 114.321681 
L 213.46708 112.954918 
L 214.280343 198.388628 
L 215.093605 139.014464 
L 215.906868 138.94029 
L 216.720131 136.056587 
L 217.533394 128.028065 
L 218.346657 125.546863 
L 219.15992 119.301312 
L 219.973183 118.735503 
L 221.599709 113.262721 
L 222.412971 201.998051 
L 223.226234 137.703374 
L 224.039497 138.259078 
L 224.85276 135.55994 
L 225.666023 131.661621 
L 226.479286 128.775558 
L 227.292549 119.480689 
L 228.105812 117.265921 
L 228.919075 119.621747 
L 229.732337 113.818385 
L 230.5456 200.68525 
L 231.358863 141.935425 
L 232.172126 135.43532 
L 232.985389 134.277972 
L 234.611915 126.125861 
L 235.425178 124.072596 
L 236.238441 120.2764 
L 237.051703 118.124236 
L 237.864966 115.543316 
L 238.678229 202.885816 
L 239.491492 138.793532 
L 240.304755 137.582718 
L 241.931281 131.639505 
L 242.744544 124.31098 
L 243.557807 123.183815 
L 244.371069 118.624018 
L 245.184332 116.002595 
L 245.997595 112.841338 
L 246.810858 211.657996 
L 247.624121 144.809755 
L 248.437384 134.123881 
L 249.250647 135.300289 
L 250.06391 133.362495 
L 250.877173 125.707909 
L 251.690435 122.914094 
L 252.503698 121.893414 
L 253.316961 118.848532 
L 254.130224 114.7243 
L 254.943487 216.307284 
L 255.75675 140.988848 
L 256.570013 134.534968 
L 257.383276 134.399951 
L 258.196539 131.501105 
L 259.009801 126.295846 
L 259.823064 123.594445 
L 260.636327 118.6516 
L 261.44959 120.168123 
L 262.262853 116.79452 
L 263.076116 211.186678 
L 263.889379 143.278625 
L 264.702642 136.274513 
L 267.14243 125.318202 
L 267.955693 124.436356 
L 268.768956 119.71027 
L 269.582219 118.909664 
L 270.395482 115.13063 
L 271.208745 218.409371 
L 272.022008 148.35214 
L 272.835271 132.619409 
L 273.648533 130.805848 
L 274.461796 131.188474 
L 275.275059 126.60296 
L 276.088322 126.816043 
L 276.901585 122.169587 
L 277.714848 119.840745 
L 278.528111 116.602606 
L 279.341374 223.426904 
L 280.154637 150.75572 
L 280.967899 133.048119 
L 281.781162 130.297312 
L 282.594425 129.702033 
L 283.407688 126.936452 
L 284.220951 125.706185 
L 285.034214 122.825152 
L 286.66074 118.400533 
L 287.474003 221.419672 
L 288.287265 156.03302 
L 289.100528 132.4995 
L 289.913791 129.496467 
L 293.166843 120.031413 
L 293.980106 121.20706 
L 294.793369 119.675022 
L 295.606631 222.208743 
L 296.419894 157.324295 
L 297.233157 133.894145 
L 298.04642 129.122779 
L 298.859683 128.99705 
L 299.672946 126.392928 
L 300.486209 124.711952 
L 301.299472 123.295829 
L 302.112735 119.794771 
L 302.925997 118.643972 
L 303.73926 227.718151 
L 304.552523 159.472549 
L 305.365786 130.437194 
L 306.179049 128.726877 
L 306.992312 129.318748 
L 307.805575 126.572807 
L 308.618838 121.871188 
L 309.432101 121.631313 
L 310.245363 123.7994 
L 311.058626 118.32805 
L 311.871889 227.81782 
L 312.685152 166.122013 
L 313.498415 132.873107 
L 314.311678 128.527056 
L 315.124941 127.50871 
L 315.938204 123.948948 
L 316.751467 123.29426 
L 317.564729 125.48994 
L 318.377992 119.573351 
L 319.191255 119.245339 
L 320.004518 225.92774 
L 320.817781 168.459352 
L 321.631044 141.089467 
L 322.444307 132.394186 
L 323.25757 125.391303 
L 324.070833 123.81834 
L 324.884095 126.147544 
L 325.697358 124.288035 
L 326.510621 120.626596 
L 327.323884 120.205433 
L 328.137147 230.220041 
L 328.95041 172.074825 
L 329.763673 140.807678 
L 330.576936 130.917455 
L 331.390199 128.767289 
L 332.203461 123.918924 
L 333.016724 121.318684 
L 333.829987 123.08451 
L 334.64325 123.448582 
L 335.456513 118.136714 
L 336.269776 230.967118 
L 337.083039 176.113757 
L 337.896302 145.752899 
L 338.709565 132.115238 
L 339.522827 126.037219 
L 340.33609 124.329249 
L 341.149353 124.314089 
L 341.962616 126.147962 
L 342.775879 123.683449 
L 343.589142 119.4066 
L 344.402405 232.556715 
L 345.215668 178.604844 
L 346.028931 147.959991 
L 346.842193 134.067253 
L 347.655456 127.818335 
L 348.468719 123.675969 
L 350.095245 122.944461 
L 350.908508 122.745349 
L 351.721771 117.811791 
L 352.535034 230.813201 
L 353.348297 183.123551 
L 354.161559 151.918944 
L 354.974822 135.854976 
L 355.788085 128.931588 
L 357.414611 121.384142 
L 358.227874 123.357335 
L 359.041137 122.777825 
L 359.8544 117.965358 
L 360.667663 236.274845 
L 361.480925 188.305351 
L 362.294188 151.541765 
L 363.107451 137.298472 
L 364.733977 122.345574 
L 365.54724 120.754345 
L 366.360503 121.189333 
L 367.173766 120.010142 
L 367.987029 119.18275 
L 368.800291 235.852435 
L 369.613554 187.646005 
L 370.426817 154.699065 
L 371.24008 139.246762 
L 372.053343 131.192557 
L 372.866606 128.438497 
L 373.679869 122.909219 
L 374.493132 120.922964 
L 375.306395 123.522543 
L 376.119657 119.46913 
L 376.93292 242.017442 
L 377.746183 191.023874 
L 378.559446 160.566415 
L 379.372709 144.377779 
L 380.185972 135.153023 
L 380.999235 127.853243 
L 382.625761 120.927657 
L 383.439024 119.378463 
L 384.252286 119.455007 
L 385.065549 241.521653 
L 385.878812 193.581352 
L 386.692075 163.086673 
L 387.505338 146.900744 
L 388.318601 133.041021 
L 389.131864 132.985005 
L 389.945127 125.873861 
L 390.75839 122.662878 
L 391.571652 122.938543 
L 392.384915 119.708147 
L 393.198178 239.479796 
L 394.011441 195.272447 
L 394.824704 169.075984 
L 395.637967 151.74696 
L 396.45123 137.580025 
L 397.264493 135.11498 
L 398.077756 128.449961 
L 398.891018 124.141431 
L 399.704281 122.927966 
L 400.517544 118.480196 
L 401.330807 239.869518 
L 402.14407 198.813018 
L 402.957333 171.072261 
L 403.770596 153.866608 
L 404.583859 143.362416 
L 405.397122 127.292378 
L 406.210384 126.016066 
L 407.023647 119.179828 
L 407.83691 122.755791 
L 408.650173 116.87308 
L 409.463436 242.424046 
L 411.089962 168.379152 
L 412.716488 145.057997 
L 413.52975 140.206245 
L 414.343013 128.439801 
L 415.156276 128.73717 
L 415.969539 124.492776 
L 416.782802 121.441646 
L 417.596065 241.414681 
L 418.409328 200.096714 
L 420.035854 157.431189 
L 420.849116 141.766825 
L 421.662379 141.810618 
L 423.288905 128.02648 
L 424.102168 121.65277 
L 424.915431 124.205302 
L 425.728694 242.760117 
L 427.35522 179.731134 
L 428.981745 149.444597 
L 429.795008 143.48799 
L 431.421534 129.957663 
L 432.234797 124.964217 
L 433.04806 123.635344 
L 433.861323 246.711121 
L 435.487848 186.237732 
L 436.301111 167.384775 
L 437.927637 143.317673 
L 439.554163 138.664843 
L 440.367426 130.72857 
L 441.180689 124.963879 
L 441.993952 243.564773 
L 442.807214 211.466636 
L 443.620477 185.197488 
L 444.43374 168.615758 
L 445.247003 156.576122 
L 446.060266 147.890801 
L 446.873529 140.498949 
L 447.686792 138.807286 
L 448.500055 131.641082 
L 449.313318 127.149542 
L 450.12658 245.246066 
L 450.939843 210.515219 
L 452.566369 176.092824 
L 453.379632 164.863304 
L 454.192895 150.696746 
L 455.006158 145.581026 
L 455.819421 139.539969 
L 456.632684 135.689598 
L 457.445946 129.316501 
L 458.259209 245.35487 
L 459.072472 218.597907 
L 459.885735 199.550923 
L 460.698998 177.70955 
L 461.512261 164.852753 
L 463.138787 144.521351 
L 464.765312 137.31947 
L 465.578575 134.950396 
L 466.391838 250.483843 
L 467.205101 215.11097 
L 468.018364 198.375074 
L 468.831627 179.066361 
L 469.64489 168.097736 
L 470.458153 158.949339 
L 471.271416 151.478813 
L 472.897941 139.202506 
L 473.711204 137.742248 
L 474.524467 250.964057 
L 475.33773 230.898908 
L 476.150993 199.197527 
L 477.777519 175.436512 
L 478.590782 165.065317 
L 479.404044 156.839419 
L 480.217307 147.087436 
L 481.03057 144.187289 
L 481.843833 139.612262 
L 482.657096 243.536491 
L 483.470359 229.829272 
L 485.096885 188.957682 
L 486.72341 168.06819 
L 487.536673 162.769284 
L 488.349936 155.085715 
L 489.163199 145.418061 
L 489.976462 142.301455 
L 490.789725 249.325522 
L 491.602988 226.57402 
L 493.229514 189.091496 
L 494.042776 182.603091 
L 494.856039 171.607871 
L 495.669302 163.621973 
L 496.482565 161.87189 
L 497.295828 150.39861 
L 498.109091 146.873393 
L 498.109091 146.873393 
" style="fill:none;stroke:#0000ff;stroke-linecap:square;stroke-width:1.5;"/>
   </g>
   <g id="line2d_14">
    <path clip-path="url(#p9e5ee69130)" d="M 92.290909 222.160726 
L 93.104172 221.928893 
L 93.917435 219.857995 
L 94.730698 219.517342 
L 95.543961 217.902229 
L 96.357224 215.071281 
L 97.170486 214.52373 
L 97.983749 211.413033 
L 98.797012 210.027011 
L 99.610275 210.753175 
L 100.423538 225.892032 
L 101.236801 216.933938 
L 102.050064 204.856283 
L 102.863327 197.954027 
L 103.67659 194.109239 
L 104.489852 194.293234 
L 105.303115 191.846206 
L 106.116378 190.847704 
L 106.929641 189.352321 
L 107.742904 186.715734 
L 108.556167 223.849454 
L 109.36943 211.200184 
L 110.182693 192.74355 
L 110.995956 189.182639 
L 111.809218 190.616139 
L 113.435744 183.632649 
L 114.249007 185.775718 
L 115.06227 180.331368 
L 115.875533 181.16769 
L 116.688796 226.7652 
L 118.315322 185.343357 
L 119.128584 186.313546 
L 119.941847 184.584053 
L 120.75511 182.529408 
L 121.568373 179.178837 
L 122.381636 177.2498 
L 123.194899 174.741652 
L 124.008162 172.656942 
L 124.821425 231.27753 
L 125.634688 199.735798 
L 126.44795 183.151366 
L 127.261213 187.027002 
L 128.074476 179.920942 
L 128.887739 176.897101 
L 129.701002 174.798945 
L 130.514265 175.372022 
L 131.327528 170.897834 
L 132.140791 169.087228 
L 132.954054 233.588102 
L 133.767316 196.729843 
L 134.580579 183.925204 
L 135.393842 183.416985 
L 136.207105 180.366527 
L 137.020368 170.978657 
L 137.833631 171.685722 
L 139.460157 166.022624 
L 140.27342 162.796385 
L 141.086682 237.477443 
L 141.899945 191.06302 
L 142.713208 184.175508 
L 143.526471 183.400337 
L 144.339734 173.978078 
L 145.152997 169.492881 
L 145.96626 166.600844 
L 146.779523 161.761889 
L 147.592786 162.46753 
L 148.406048 158.355377 
L 149.219311 239.708181 
L 150.032574 185.584589 
L 150.845837 186.75531 
L 151.6591 178.766238 
L 152.472363 174.161265 
L 153.285626 166.836564 
L 154.098889 165.435644 
L 154.912152 159.952971 
L 155.725414 155.565829 
L 156.538677 153.324382 
L 157.35194 243.37393 
L 158.165203 181.218519 
L 158.978466 183.658983 
L 159.791729 177.267396 
L 160.604992 168.518177 
L 161.418255 165.196421 
L 162.231518 159.812122 
L 163.04478 157.610419 
L 163.858043 154.285074 
L 164.671306 146.558901 
L 165.484569 245.935522 
L 166.297832 175.792394 
L 167.111095 189.031326 
L 167.924358 173.048454 
L 168.737621 167.814695 
L 169.550884 160.751005 
L 170.364146 156.255697 
L 171.177409 150.112426 
L 171.990672 146.811631 
L 172.803935 145.631893 
L 173.617198 250.523738 
L 174.430461 165.737239 
L 175.243724 181.331279 
L 176.056987 186.21082 
L 176.87025 173.433097 
L 177.683512 171.157873 
L 180.123301 159.590793 
L 180.936564 160.313969 
L 181.749827 303.103632 
L 182.56309 192.233569 
L 183.376353 171.419209 
L 184.189616 179.074228 
L 185.002878 177.88044 
L 185.816141 169.447283 
L 187.442667 159.481781 
L 188.25593 161.063756 
L 189.069193 157.556066 
L 189.882456 309.143105 
L 190.695719 198.028261 
L 191.508982 173.586606 
L 192.322244 173.411793 
L 193.135507 175.458524 
L 193.94877 166.329449 
L 194.762033 165.868482 
L 195.575296 159.100871 
L 196.388559 157.800069 
L 197.201822 155.710645 
L 198.015085 311.406853 
L 198.828348 202.227547 
L 199.64161 174.28494 
L 200.454873 176.112999 
L 201.268136 170.811874 
L 202.081399 166.953144 
L 202.894662 161.976907 
L 203.707925 162.516962 
L 205.334451 150.977895 
L 206.147714 315.599094 
L 206.960976 208.065772 
L 207.774239 176.307626 
L 209.400765 173.393388 
L 210.214028 168.554415 
L 211.027291 165.380549 
L 211.840554 159.113573 
L 212.653817 154.460762 
L 213.46708 153.208001 
L 214.280343 319.220014 
L 215.093605 218.509482 
L 215.906868 178.447655 
L 216.720131 173.457672 
L 217.533394 170.12968 
L 218.346657 167.545871 
L 219.15992 161.37542 
L 219.973183 159.647118 
L 220.786446 153.811939 
L 221.599709 153.83335 
L 222.412971 319.264703 
L 223.226234 224.392849 
L 224.039497 182.963136 
L 224.85276 174.630612 
L 225.666023 171.47695 
L 226.479286 169.852947 
L 227.292549 161.254979 
L 228.105812 158.113752 
L 228.919075 158.224482 
L 229.732337 152.820428 
L 230.5456 323.368593 
L 231.358863 232.07744 
L 232.172126 187.137594 
L 232.985389 174.078412 
L 233.798652 168.534148 
L 234.611915 171.054303 
L 235.425178 165.54884 
L 236.238441 159.02071 
L 237.051703 155.769221 
L 237.864966 154.343527 
L 238.678229 323.796027 
L 239.491492 240.683315 
L 240.304755 194.596357 
L 241.118018 176.615822 
L 241.931281 170.567636 
L 242.744544 168.23146 
L 243.557807 165.161285 
L 244.371069 157.712196 
L 245.184332 157.585404 
L 245.997595 154.013891 
L 246.810858 328.902281 
L 247.624121 250.81081 
L 248.437384 196.403741 
L 249.250647 180.732312 
L 250.06391 171.944882 
L 250.877173 168.582875 
L 251.690435 164.637206 
L 252.503698 163.958276 
L 254.130224 152.192535 
L 254.943487 331.346925 
L 255.75675 256.167156 
L 256.570013 203.824015 
L 257.383276 184.499099 
L 258.196539 174.918094 
L 259.009801 171.073034 
L 259.823064 163.794822 
L 260.636327 160.631798 
L 261.44959 160.092635 
L 262.262853 156.559369 
L 263.076116 331.22111 
L 263.889379 261.988675 
L 264.702642 208.583079 
L 265.515905 188.33729 
L 266.329167 177.293505 
L 267.14243 171.134595 
L 267.955693 169.602092 
L 268.768956 161.940979 
L 270.395482 156.148277 
L 271.208745 331.912878 
L 272.022008 271.045276 
L 272.835271 220.20289 
L 273.648533 193.973625 
L 275.275059 173.705845 
L 276.088322 172.487212 
L 276.901585 164.330386 
L 277.714848 163.09685 
L 278.528111 158.742879 
L 279.341374 334.694482 
L 280.967899 222.2425 
L 281.781162 197.792745 
L 282.594425 185.839055 
L 283.407688 176.236436 
L 284.220951 172.352923 
L 285.847477 162.531125 
L 286.66074 160.919976 
L 287.474003 333.452385 
L 289.100528 235.421555 
L 289.913791 202.672657 
L 290.727054 190.953741 
L 291.540317 177.624162 
L 292.35358 171.712315 
L 293.166843 169.357013 
L 293.980106 164.293714 
L 294.793369 163.658081 
L 295.606631 334.175879 
L 297.233157 238.958666 
L 298.04642 212.928365 
L 298.859683 193.872455 
L 299.672946 181.35355 
L 300.486209 177.666422 
L 301.299472 172.659801 
L 302.112735 165.968776 
L 302.925997 166.126242 
L 303.73926 337.718969 
L 305.365786 248.643681 
L 306.179049 216.563068 
L 306.992312 198.377546 
L 307.805575 190.913448 
L 308.618838 179.117457 
L 309.432101 172.525473 
L 310.245363 169.191694 
L 311.058626 164.985529 
L 311.871889 338.116499 
L 312.685152 301.882948 
L 313.498415 253.020529 
L 314.311678 224.253701 
L 315.124941 206.047362 
L 316.751467 183.030763 
L 317.564729 179.031041 
L 318.377992 171.91582 
L 319.191255 168.66438 
L 320.004518 337.898327 
L 320.817781 303.057204 
L 321.631044 262.886359 
L 322.444307 234.686553 
L 324.070833 197.54816 
L 325.697358 182.519698 
L 326.510621 176.991203 
L 327.323884 173.530626 
L 328.137147 341.338025 
L 330.576936 239.79328 
L 331.390199 218.925993 
L 332.203461 204.488513 
L 333.016724 193.170679 
L 333.829987 184.784479 
L 334.64325 181.863947 
L 335.456513 172.566226 
L 336.269776 341.228488 
L 337.083039 313.137643 
L 337.896302 277.392447 
L 338.709565 249.863864 
L 339.522827 226.252403 
L 341.962616 189.527902 
L 342.775879 186.994425 
L 343.589142 178.276697 
L 344.402405 342.600553 
L 345.215668 316.711869 
L 346.028931 281.104936 
L 346.842193 255.013002 
L 348.468719 215.990993 
L 349.281982 205.231751 
L 350.908508 189.12136 
L 351.721771 183.170895 
L 352.535034 342.215418 
L 354.161559 289.812955 
L 354.974822 264.180047 
L 355.788085 246.00532 
L 356.601348 223.80494 
L 358.227874 202.939993 
L 359.041137 194.505681 
L 359.8544 188.157992 
L 360.667663 343.742054 
L 361.480925 320.547008 
L 363.107451 269.666279 
L 363.920714 251.732503 
L 364.733977 229.480292 
L 366.360503 206.548027 
L 367.173766 199.855577 
L 367.987029 195.42552 
L 368.800291 344.908765 
L 369.613554 327.116078 
L 370.426817 298.39757 
L 372.866606 241.077385 
L 373.679869 226.470972 
L 376.119657 197.937728 
L 376.93292 349.150216 
L 380.185972 262.942676 
L 381.812498 237.282077 
L 382.625761 221.455299 
L 383.439024 213.186845 
L 384.252286 207.827712 
L 385.065549 347.763552 
L 385.878812 330.775207 
L 386.692075 307.823459 
L 387.505338 288.8213 
L 388.318601 273.536786 
L 389.945127 246.72552 
L 390.75839 231.254009 
L 392.384915 214.702536 
L 393.198178 348.242839 
L 396.45123 279.36395 
L 399.704281 229.358147 
L 400.517544 218.680214 
L 401.330807 350.444856 
L 403.770596 301.69888 
L 405.397122 268.726991 
L 407.023647 245.512233 
L 407.83691 237.683949 
L 408.650173 226.652429 
L 409.463436 351.563698 
L 410.276699 339.012531 
L 411.089962 320.719962 
L 411.903225 306.118592 
L 412.716488 293.655642 
L 413.52975 279.17742 
L 415.156276 255.460418 
L 416.782802 237.019552 
L 417.596065 352.294992 
L 418.409328 339.648554 
L 419.222591 322.648639 
L 420.035854 311.268995 
L 420.849116 295.643239 
L 421.662379 288.2924 
L 423.288905 265.359062 
L 424.102168 253.593347 
L 424.915431 247.897126 
L 425.728694 353.154264 
L 426.541957 343.253798 
L 427.35522 328.181141 
L 428.981745 304.196005 
L 431.421534 273.071286 
L 432.234797 261.577309 
L 433.04806 253.733014 
L 433.861323 354.70316 
L 436.301111 320.973768 
L 437.114374 307.062606 
L 439.554163 281.055972 
L 441.180689 263.439864 
L 441.993952 355.052488 
L 443.620477 332.555721 
L 445.247003 313.141023 
L 446.060266 306.017812 
L 446.873529 295.975464 
L 447.686792 288.178879 
L 449.313318 269.937924 
L 450.12658 355.946075 
L 451.753106 336.819961 
L 452.566369 329.596729 
L 454.192895 308.057596 
L 455.006158 301.991076 
L 455.819421 293.357228 
L 456.632684 287.395702 
L 457.445946 277.606091 
L 458.259209 356.558514 
L 459.885735 341.64261 
L 461.512261 321.580967 
L 463.138787 307.33143 
L 464.765312 291.702258 
L 465.578575 287.830386 
L 466.391838 358.505928 
L 467.205101 349.082979 
L 468.018364 342.794358 
L 468.831627 333.882864 
L 469.64489 326.801561 
L 470.458153 321.365226 
L 471.271416 312.446872 
L 472.084678 306.309572 
L 472.897941 298.425365 
L 473.711204 292.920222 
L 474.524467 359.899854 
L 475.33773 353.496233 
L 476.150993 342.393514 
L 476.964256 338.371477 
L 477.777519 330.326821 
L 478.590782 323.717501 
L 479.404044 319.585348 
L 480.217307 311.494445 
L 481.03057 304.980327 
L 481.843833 295.645263 
L 482.657096 359.922097 
L 484.283622 348.881415 
L 485.096885 339.384766 
L 485.910148 332.68117 
L 486.72341 328.350402 
L 489.163199 311.218448 
L 489.976462 304.216264 
L 490.789725 360.379855 
L 491.602988 355.321698 
L 492.416251 348.757941 
L 493.229514 339.534424 
L 494.042776 336.408802 
L 494.856039 329.904896 
L 495.669302 325.55075 
L 496.482565 322.293708 
L 497.295828 314.596431 
L 498.109091 310.803795 
L 498.109091 310.803795 
" style="fill:none;stroke:#008000;stroke-linecap:square;stroke-width:1.5;"/>
   </g>
   <g id="patch_3">
    <path d="M 72 384.48 
L 72 51.84 
" style="fill:none;stroke:#000000;stroke-linecap:square;stroke-linejoin:miter;stroke-width:0.8;"/>
   </g>
   <g id="patch_4">
    <path d="M 518.4 384.48 
L 518.4 51.84 
" style="fill:none;stroke:#000000;stroke-linecap:square;stroke-linejoin:miter;stroke-width:0.8;"/>
   </g>
   <g id="patch_5">
    <path d="M 72 384.48 
L 518.4 384.48 
" style="fill:none;stroke:#000000;stroke-linecap:square;stroke-linejoin:miter;stroke-width:0.8;"/>
   </g>
   <g id="patch_6">
    <path d="M 72 51.84 
L 518.4 51.84 
" style="fill:none;stroke:#000000;stroke-linecap:square;stroke-linejoin:miter;stroke-width:0.8;"/>
   </g>
   <g id="legend_1">
    <g id="patch_7">
     <path d="M 79 89.19625 
L 156.107812 89.19625 
Q 158.107812 89.19625 158.107812 87.19625 
L 158.107812 58.84 
Q 158.107812 56.84 156.107812 56.84 
L 79 56.84 
Q 77 56.84 77 58.84 
L 77 87.19625 
Q 77 89.19625 79 89.19625 
z
" style="fill:#ffffff;opacity:0.8;stroke:#cccccc;stroke-linejoin:miter;"/>
    </g>
    <g id="line2d_15">
     <path d="M 81 64.938437 
L 101 64.938437 
" style="fill:none;stroke:#0000ff;stroke-linecap:square;stroke-width:1.5;"/>
    </g>
    <g id="line2d_16"/>
    <g id="text_15">
     <!-- precision -->
     <g transform="translate(109 68.438437)scale(0.1 -0.1)">
      <defs>
       <path d="M 9.421875 54.6875 
L 18.40625 54.6875 
L 18.40625 0 
L 9.421875 0 
z
M 9.421875 75.984375 
L 18.40625 75.984375 
L 18.40625 64.59375 
L 9.421875 64.59375 
z
" id="DejaVuSans-105"/>
       <path d="M 44.28125 53.078125 
L 44.28125 44.578125 
Q 40.484375 46.53125 36.375 47.5 
Q 32.28125 48.484375 27.875 48.484375 
Q 21.1875 48.484375 17.84375 46.4375 
Q 14.5 44.390625 14.5 40.28125 
Q 14.5 37.15625 16.890625 35.375 
Q 19.28125 33.59375 26.515625 31.984375 
L 29.59375 31.296875 
Q 39.15625 29.25 43.1875 25.515625 
Q 47.21875 21.78125 47.21875 15.09375 
Q 47.21875 7.46875 41.1875 3.015625 
Q 35.15625 -1.421875 24.609375 -1.421875 
Q 20.21875 -1.421875 15.453125 -0.5625 
Q 10.6875 0.296875 5.421875 2 
L 5.421875 11.28125 
Q 10.40625 8.6875 15.234375 7.390625 
Q 20.0625 6.109375 24.8125 6.109375 
Q 31.15625 6.109375 34.5625 8.28125 
Q 37.984375 10.453125 37.984375 14.40625 
Q 37.984375 18.0625 35.515625 20.015625 
Q 33.0625 21.96875 24.703125 23.78125 
L 21.578125 24.515625 
Q 13.234375 26.265625 9.515625 29.90625 
Q 5.8125 33.546875 5.8125 39.890625 
Q 5.8125 47.609375 11.28125 51.796875 
Q 16.75 56 26.8125 56 
Q 31.78125 56 36.171875 55.265625 
Q 40.578125 54.546875 44.28125 53.078125 
z
" id="DejaVuSans-115"/>
       <path d="M 54.890625 33.015625 
L 54.890625 0 
L 45.90625 0 
L 45.90625 32.71875 
Q 45.90625 40.484375 42.875 44.328125 
Q 39.84375 48.1875 33.796875 48.1875 
Q 26.515625 48.1875 22.3125 43.546875 
Q 18.109375 38.921875 18.109375 30.90625 
L 18.109375 0 
L 9.078125 0 
L 9.078125 54.6875 
L 18.109375 54.6875 
L 18.109375 46.1875 
Q 21.34375 51.125 25.703125 53.5625 
Q 30.078125 56 35.796875 56 
Q 45.21875 56 50.046875 50.171875 
Q 54.890625 44.34375 54.890625 33.015625 
z
" id="DejaVuSans-110"/>
      </defs>
      <use xlink:href="#DejaVuSans-112"/>
      <use x="63.476562" xlink:href="#DejaVuSans-114"/>
      <use x="102.339844" xlink:href="#DejaVuSans-101"/>
      <use x="163.863281" xlink:href="#DejaVuSans-99"/>
      <use x="218.84375" xlink:href="#DejaVuSans-105"/>
      <use x="246.626953" xlink:href="#DejaVuSans-115"/>
      <use x="298.726562" xlink:href="#DejaVuSans-105"/>
      <use x="326.509766" xlink:href="#DejaVuSans-111"/>
      <use x="387.691406" xlink:href="#DejaVuSans-110"/>
     </g>
    </g>
    <g id="line2d_17">
     <path d="M 81 79.616562 
L 101 79.616562 
" style="fill:none;stroke:#008000;stroke-linecap:square;stroke-width:1.5;"/>
    </g>
    <g id="line2d_18"/>
    <g id="text_16">
     <!-- recall -->
     <g transform="translate(109 83.116562)scale(0.1 -0.1)">
      <defs>
       <path d="M 9.421875 75.984375 
L 18.40625 75.984375 
L 18.40625 0 
L 9.421875 0 
z
" id="DejaVuSans-108"/>
      </defs>
      <use xlink:href="#DejaVuSans-114"/>
      <use x="38.863281" xlink:href="#DejaVuSans-101"/>
      <use x="100.386719" xlink:href="#DejaVuSans-99"/>
      <use x="155.367188" xlink:href="#DejaVuSans-97"/>
      <use x="216.646484" xlink:href="#DejaVuSans-108"/>
      <use x="244.429688" xlink:href="#DejaVuSans-108"/>
     </g>
    </g>
   </g>
  </g>
  <g id="axes_2">
   <g id="matplotlib.axis_3">
    <g id="ytick_7">
     <g id="line2d_19">
      <defs>
       <path d="M 0 0 
L 3.5 0 
" id="mb460593de1" style="stroke:#000000;stroke-width:0.8;"/>
      </defs>
      <g>
       <use style="stroke:#000000;stroke-width:0.8;" x="518.4" xlink:href="#mb460593de1" y="363.856872"/>
      </g>
     </g>
     <g id="text_17">
      <!-- 0.15 -->
      <g transform="translate(525.4 367.656091)scale(0.1 -0.1)">
       <use xlink:href="#DejaVuSans-48"/>
       <use x="63.623047" xlink:href="#DejaVuSans-46"/>
       <use x="95.410156" xlink:href="#DejaVuSans-49"/>
       <use x="159.033203" xlink:href="#DejaVuSans-53"/>
      </g>
     </g>
    </g>
    <g id="ytick_8">
     <g id="line2d_20">
      <g>
       <use style="stroke:#000000;stroke-width:0.8;" x="518.4" xlink:href="#mb460593de1" y="309.140715"/>
      </g>
     </g>
     <g id="text_18">
      <!-- 0.20 -->
      <g transform="translate(525.4 312.939934)scale(0.1 -0.1)">
       <use xlink:href="#DejaVuSans-48"/>
       <use x="63.623047" xlink:href="#DejaVuSans-46"/>
       <use x="95.410156" xlink:href="#DejaVuSans-50"/>
       <use x="159.033203" xlink:href="#DejaVuSans-48"/>
      </g>
     </g>
    </g>
    <g id="ytick_9">
     <g id="line2d_21">
      <g>
       <use style="stroke:#000000;stroke-width:0.8;" x="518.4" xlink:href="#mb460593de1" y="254.424558"/>
      </g>
     </g>
     <g id="text_19">
      <!-- 0.25 -->
      <g transform="translate(525.4 258.223777)scale(0.1 -0.1)">
       <use xlink:href="#DejaVuSans-48"/>
       <use x="63.623047" xlink:href="#DejaVuSans-46"/>
       <use x="95.410156" xlink:href="#DejaVuSans-50"/>
       <use x="159.033203" xlink:href="#DejaVuSans-53"/>
      </g>
     </g>
    </g>
    <g id="ytick_10">
     <g id="line2d_22">
      <g>
       <use style="stroke:#000000;stroke-width:0.8;" x="518.4" xlink:href="#mb460593de1" y="199.708402"/>
      </g>
     </g>
     <g id="text_20">
      <!-- 0.30 -->
      <g transform="translate(525.4 203.50762)scale(0.1 -0.1)">
       <use xlink:href="#DejaVuSans-48"/>
       <use x="63.623047" xlink:href="#DejaVuSans-46"/>
       <use x="95.410156" xlink:href="#DejaVuSans-51"/>
       <use x="159.033203" xlink:href="#DejaVuSans-48"/>
      </g>
     </g>
    </g>
    <g id="ytick_11">
     <g id="line2d_23">
      <g>
       <use style="stroke:#000000;stroke-width:0.8;" x="518.4" xlink:href="#mb460593de1" y="144.992245"/>
      </g>
     </g>
     <g id="text_21">
      <!-- 0.35 -->
      <g transform="translate(525.4 148.791464)scale(0.1 -0.1)">
       <use xlink:href="#DejaVuSans-48"/>
       <use x="63.623047" xlink:href="#DejaVuSans-46"/>
       <use x="95.410156" xlink:href="#DejaVuSans-51"/>
       <use x="159.033203" xlink:href="#DejaVuSans-53"/>
      </g>
     </g>
    </g>
    <g id="ytick_12">
     <g id="line2d_24">
      <g>
       <use style="stroke:#000000;stroke-width:0.8;" x="518.4" xlink:href="#mb460593de1" y="90.276088"/>
      </g>
     </g>
     <g id="text_22">
      <!-- 0.40 -->
      <g transform="translate(525.4 94.075307)scale(0.1 -0.1)">
       <use xlink:href="#DejaVuSans-48"/>
       <use x="63.623047" xlink:href="#DejaVuSans-46"/>
       <use x="95.410156" xlink:href="#DejaVuSans-52"/>
       <use x="159.033203" xlink:href="#DejaVuSans-48"/>
      </g>
     </g>
    </g>
    <g id="text_23">
     <!-- loss -->
     <g transform="translate(559.264063 227.817812)rotate(-90)scale(0.1 -0.1)">
      <use xlink:href="#DejaVuSans-108"/>
      <use x="27.783203" xlink:href="#DejaVuSans-111"/>
      <use x="88.964844" xlink:href="#DejaVuSans-115"/>
      <use x="141.064453" xlink:href="#DejaVuSans-115"/>
     </g>
    </g>
   </g>
   <g id="line2d_25">
    <path clip-path="url(#p9e5ee69130)" d="M 92.290909 107.760142 
L 93.104172 214.269998 
L 93.917435 231.326195 
L 94.730698 240.983677 
L 96.357224 248.800248 
L 97.170486 252.1313 
L 97.983749 253.386556 
L 98.797012 255.830706 
L 99.610275 257.351112 
L 100.423538 220.863047 
L 101.236801 264.167906 
L 102.050064 274.662639 
L 102.863327 280.669037 
L 103.67659 284.70973 
L 104.489852 287.831238 
L 106.116378 291.731211 
L 106.929641 293.299579 
L 107.742904 295.306234 
L 108.556167 227.697707 
L 109.36943 270.999226 
L 110.182693 287.038029 
L 110.995956 295.951514 
L 111.809218 297.6567 
L 112.622481 300.259084 
L 113.435744 303.672536 
L 114.249007 304.897081 
L 115.06227 308.016318 
L 115.875533 309.636126 
L 116.688796 233.270693 
L 117.502059 280.583639 
L 118.315322 297.311727 
L 119.128584 305.247733 
L 119.941847 310.139492 
L 120.75511 312.684644 
L 121.568373 316.315024 
L 123.194899 320.915279 
L 124.008162 322.403653 
L 124.821425 238.183388 
L 125.634688 287.997418 
L 126.44795 306.918765 
L 128.074476 320.106708 
L 128.887739 323.52485 
L 129.701002 325.923853 
L 130.514265 327.119582 
L 131.327528 331.53887 
L 132.140791 334.52143 
L 132.954054 242.45506 
L 133.767316 293.468859 
L 134.580579 313.411534 
L 135.393842 322.56473 
L 137.020368 332.874295 
L 138.646894 338.731297 
L 140.27342 346.115199 
L 141.086682 244.026141 
L 141.899945 296.726005 
L 142.713208 318.488468 
L 143.526471 327.733674 
L 144.339734 334.320894 
L 145.152997 339.958627 
L 146.779523 349.36118 
L 147.592786 348.916767 
L 148.406048 352.840836 
L 149.219311 244.544741 
L 150.032574 298.736812 
L 150.845837 321.651402 
L 151.6591 331.911696 
L 153.285626 347.350053 
L 154.098889 349.02595 
L 154.912152 354.142205 
L 155.725414 357.547597 
L 156.538677 360.2595 
L 157.35194 240.235041 
L 158.165203 302.51354 
L 158.978466 325.594039 
L 160.604992 344.390525 
L 161.418255 348.227728 
L 162.231518 353.522818 
L 163.04478 356.299968 
L 163.858043 360.987244 
L 164.671306 366.601912 
L 165.484569 241.022817 
L 166.297832 303.541228 
L 167.111095 323.615181 
L 167.924358 338.388649 
L 168.737621 345.219261 
L 169.550884 353.221457 
L 171.177409 363.666709 
L 171.990672 367.517887 
L 172.803935 369.36 
L 173.617198 234.622261 
L 174.430461 296.709173 
L 175.243724 320.99729 
L 176.87025 337.1404 
L 177.683512 342.716299 
L 178.496775 346.347772 
L 179.310038 352.414384 
L 180.123301 355.707748 
L 180.936564 354.47143 
L 181.749827 199.598027 
L 182.56309 294.870376 
L 183.376353 317.319883 
L 184.189616 329.252847 
L 185.816141 343.616579 
L 186.629404 347.578326 
L 187.442667 354.604033 
L 188.25593 356.053509 
L 189.069193 359.428848 
L 189.882456 187.426692 
L 190.695719 294.146231 
L 191.508982 314.091564 
L 192.322244 330.166878 
L 193.135507 338.914919 
L 193.94877 345.569201 
L 195.575296 353.987322 
L 196.388559 358.106926 
L 197.201822 362.902942 
L 198.015085 182.027937 
L 198.828348 290.044241 
L 199.64161 314.052488 
L 200.454873 330.143708 
L 201.268136 338.874968 
L 202.081399 344.663643 
L 202.894662 352.457021 
L 203.707925 353.751007 
L 205.334451 364.712501 
L 206.147714 173.857044 
L 206.960976 286.009584 
L 207.774239 315.163194 
L 208.587502 326.910066 
L 210.214028 345.761898 
L 211.027291 349.546522 
L 211.840554 357.608536 
L 212.653817 362.008212 
L 213.46708 364.378034 
L 214.280343 166.491388 
L 215.093605 279.596966 
L 215.906868 311.936052 
L 216.720131 328.211613 
L 217.533394 338.207119 
L 218.346657 343.918569 
L 219.15992 352.653542 
L 219.973183 354.981952 
L 220.786446 359.498085 
L 221.599709 362.593453 
L 222.412971 163.30939 
L 223.226234 278.990961 
L 224.039497 309.472011 
L 224.85276 325.527371 
L 225.666023 334.261851 
L 226.479286 341.584205 
L 227.292549 352.054554 
L 228.105812 355.846605 
L 228.919075 356.96726 
L 229.732337 363.458564 
L 230.5456 158.823138 
L 231.358863 268.836819 
L 232.172126 309.164637 
L 232.985389 324.980031 
L 233.798652 338.564234 
L 234.611915 341.763007 
L 235.425178 348.92535 
L 236.238441 357.230463 
L 237.051703 360.216696 
L 237.864966 362.114799 
L 238.678229 152.181162 
L 239.491492 265.271922 
L 240.304755 306.418081 
L 241.118018 322.66293 
L 242.744544 344.596239 
L 243.557807 348.151217 
L 244.371069 357.009695 
L 245.184332 359.349713 
L 245.997595 364.113115 
L 246.810858 147.306579 
L 247.624121 253.701544 
L 248.437384 302.279744 
L 249.250647 321.29885 
L 250.06391 332.99828 
L 251.690435 348.944758 
L 252.503698 351.285094 
L 254.130224 363.856246 
L 254.943487 145.011819 
L 255.75675 246.923702 
L 256.570013 298.356074 
L 257.383276 318.126688 
L 258.196539 331.246049 
L 259.009801 340.539952 
L 259.823064 346.955506 
L 260.636327 355.931758 
L 261.44959 356.609455 
L 262.262853 362.562281 
L 263.076116 141.022208 
L 263.889379 244.887851 
L 264.702642 294.21123 
L 265.515905 318.50016 
L 266.329167 328.604336 
L 267.14243 340.395563 
L 267.955693 345.294996 
L 269.582219 358.494563 
L 270.395482 361.331099 
L 271.208745 136.267077 
L 272.022008 235.489977 
L 272.835271 289.414279 
L 273.648533 313.24303 
L 275.275059 336.239743 
L 276.088322 341.658637 
L 276.901585 350.262733 
L 277.714848 353.191868 
L 278.528111 357.923782 
L 279.341374 131.4426 
L 280.154637 230.471107 
L 280.967899 285.593896 
L 281.781162 309.31777 
L 282.594425 323.941373 
L 283.407688 332.911698 
L 284.220951 339.139488 
L 285.034214 346.717165 
L 285.847477 352.877012 
L 286.66074 356.370195 
L 287.474003 129.609805 
L 288.287265 223.513433 
L 289.100528 278.62165 
L 289.913791 306.302354 
L 290.727054 322.038925 
L 291.540317 334.206213 
L 292.35358 343.466834 
L 293.166843 345.674759 
L 293.980106 350.871707 
L 294.793369 352.069696 
L 295.606631 126.540421 
L 296.419894 214.72655 
L 297.233157 271.071948 
L 298.04642 299.60745 
L 298.859683 318.01632 
L 299.672946 330.088565 
L 300.486209 335.983927 
L 301.299472 343.089562 
L 302.112735 348.501719 
L 302.925997 352.587862 
L 303.73926 121.718411 
L 304.552523 211.012881 
L 305.365786 265.986422 
L 306.179049 295.80713 
L 306.992312 312.482624 
L 308.618838 335.876533 
L 310.245363 346.082321 
L 311.058626 350.281278 
L 311.871889 122.053833 
L 312.685152 202.862312 
L 313.498415 259.225778 
L 314.311678 290.83988 
L 315.124941 310.544032 
L 315.938204 321.396177 
L 316.751467 330.263227 
L 317.564729 335.740324 
L 318.377992 343.282332 
L 319.191255 347.562103 
L 320.004518 119.794561 
L 320.817781 194.915023 
L 321.631044 249.949048 
L 322.444307 284.850111 
L 323.25757 304.553198 
L 324.070833 317.946758 
L 324.884095 328.150265 
L 325.697358 335.014014 
L 327.323884 346.054523 
L 328.137147 114.347978 
L 328.95041 188.43259 
L 329.763673 243.876681 
L 330.576936 279.930938 
L 331.390199 299.500887 
L 332.203461 313.449842 
L 333.016724 324.737627 
L 333.829987 332.774151 
L 334.64325 336.436231 
L 335.456513 344.058238 
L 336.269776 111.715314 
L 337.083039 184.335252 
L 337.896302 232.426331 
L 338.709565 273.445111 
L 339.522827 292.649357 
L 340.33609 308.318216 
L 341.149353 320.100757 
L 341.962616 328.797225 
L 342.775879 331.033776 
L 343.589142 338.830837 
L 344.402405 108.586589 
L 345.215668 177.886215 
L 346.028931 229.150044 
L 346.842193 263.754696 
L 347.655456 286.589376 
L 348.468719 303.352815 
L 350.908508 330.375559 
L 351.721771 337.378081 
L 352.535034 111.280801 
L 353.348297 172.474152 
L 354.161559 222.990024 
L 354.974822 255.412118 
L 355.788085 279.369528 
L 356.601348 296.74878 
L 357.414611 309.021424 
L 358.227874 316.991467 
L 359.8544 335.259006 
L 360.667663 105.4486 
L 361.480925 165.363585 
L 362.294188 214.772126 
L 363.920714 273.230301 
L 364.733977 293.803339 
L 365.54724 307.856563 
L 366.360503 315.688478 
L 367.173766 321.839524 
L 367.987029 329.073997 
L 368.800291 103.654671 
L 369.613554 165.455939 
L 370.426817 210.075249 
L 371.24008 240.682759 
L 372.053343 266.038596 
L 372.866606 282.856196 
L 373.679869 297.344697 
L 374.493132 308.440343 
L 376.119657 323.868087 
L 376.93292 101.426982 
L 377.746183 157.621466 
L 378.559446 199.329515 
L 379.372709 233.218849 
L 380.185972 259.670553 
L 380.999235 276.952853 
L 383.439024 310.225996 
L 384.252286 317.392155 
L 385.065549 101.126778 
L 385.878812 152.274769 
L 386.692075 193.263256 
L 387.505338 226.712767 
L 388.318601 248.873911 
L 390.75839 294.330117 
L 391.571652 305.045106 
L 392.384915 311.574315 
L 393.198178 94.980839 
L 394.011441 145.436833 
L 394.824704 186.807631 
L 395.637967 217.828888 
L 397.264493 260.469936 
L 398.077756 276.404158 
L 398.891018 287.181191 
L 399.704281 294.961178 
L 400.517544 304.784415 
L 401.330807 94.069986 
L 402.14407 142.220234 
L 402.957333 179.938572 
L 403.770596 209.770807 
L 404.583859 235.07336 
L 405.397122 254.561902 
L 406.210384 270.192226 
L 407.023647 282.389913 
L 407.83691 289.454845 
L 408.650173 302.015577 
L 409.463436 90.995376 
L 411.089962 171.962896 
L 411.903225 202.896261 
L 413.52975 241.850443 
L 414.343013 260.188781 
L 416.782802 291.456413 
L 417.596065 91.161752 
L 418.409328 134.096252 
L 419.222591 166.908439 
L 421.662379 235.526719 
L 422.475642 251.753804 
L 424.915431 284.786769 
L 425.728694 86.911521 
L 426.541957 127.420243 
L 428.168482 185.220773 
L 428.981745 210.104185 
L 430.608271 244.668084 
L 432.234797 268.643666 
L 433.04806 276.461566 
L 433.861323 83.252949 
L 434.674586 121.243647 
L 436.301111 180.363144 
L 437.927637 219.059769 
L 438.7409 231.744177 
L 439.554163 246.23961 
L 440.367426 257.648773 
L 441.180689 267.342429 
L 441.993952 83.744508 
L 442.807214 119.121671 
L 444.43374 174.452696 
L 446.873529 226.735241 
L 447.686792 239.470378 
L 448.500055 249.421571 
L 449.313318 261.094362 
L 450.12658 79.8667 
L 450.939843 112.479478 
L 451.753106 140.575344 
L 454.192895 204.664299 
L 455.819421 229.453729 
L 456.632684 241.557606 
L 457.445946 249.908919 
L 458.259209 76.657064 
L 459.885735 136.656546 
L 461.512261 178.690095 
L 462.325524 191.737302 
L 463.138787 208.985714 
L 463.95205 220.962583 
L 465.578575 241.276491 
L 466.391838 75.485713 
L 467.205101 105.680007 
L 468.831627 154.936475 
L 471.271416 199.332072 
L 472.897941 224.175991 
L 473.711204 232.06214 
L 474.524467 70.927093 
L 476.150993 122.340413 
L 477.777519 161.374191 
L 478.590782 176.148544 
L 479.404044 188.054398 
L 480.217307 206.028503 
L 481.843833 222.223997 
L 482.657096 67.40192 
L 485.096885 138.815288 
L 485.910148 154.219652 
L 486.72341 164.376428 
L 487.536673 182.816419 
L 489.163199 203.883835 
L 489.976462 214.259038 
L 490.789725 66.96 
L 492.416251 112.16336 
L 494.042776 145.945149 
L 495.669302 174.371246 
L 496.482565 181.381974 
L 498.109091 206.090338 
L 498.109091 206.090338 
" style="fill:none;stroke:#ff0000;stroke-linecap:square;stroke-width:1.5;"/>
   </g>
   <g id="patch_8">
    <path d="M 72 384.48 
L 72 51.84 
" style="fill:none;stroke:#000000;stroke-linecap:square;stroke-linejoin:miter;stroke-width:0.8;"/>
   </g>
   <g id="patch_9">
    <path d="M 518.4 384.48 
L 518.4 51.84 
" style="fill:none;stroke:#000000;stroke-linecap:square;stroke-linejoin:miter;stroke-width:0.8;"/>
   </g>
   <g id="patch_10">
    <path d="M 72 384.48 
L 518.4 384.48 
" style="fill:none;stroke:#000000;stroke-linecap:square;stroke-linejoin:miter;stroke-width:0.8;"/>
   </g>
   <g id="patch_11">
    <path d="M 72 51.84 
L 518.4 51.84 
" style="fill:none;stroke:#000000;stroke-linecap:square;stroke-linejoin:miter;stroke-width:0.8;"/>
   </g>
   <g id="text_24">
    <!-- The learning curve on _non_iid_agg_modify/host/5 -->
    <g transform="translate(141.023438 45.84)scale(0.12 -0.12)">
     <defs>
      <path d="M -0.296875 72.90625 
L 61.375 72.90625 
L 61.375 64.59375 
L 35.5 64.59375 
L 35.5 0 
L 25.59375 0 
L 25.59375 64.59375 
L -0.296875 64.59375 
z
" id="DejaVuSans-84"/>
      <path id="DejaVuSans-32"/>
      <path d="M 45.40625 27.984375 
Q 45.40625 37.75 41.375 43.109375 
Q 37.359375 48.484375 30.078125 48.484375 
Q 22.859375 48.484375 18.828125 43.109375 
Q 14.796875 37.75 14.796875 27.984375 
Q 14.796875 18.265625 18.828125 12.890625 
Q 22.859375 7.515625 30.078125 7.515625 
Q 37.359375 7.515625 41.375 12.890625 
Q 45.40625 18.265625 45.40625 27.984375 
z
M 54.390625 6.78125 
Q 54.390625 -7.171875 48.1875 -13.984375 
Q 42 -20.796875 29.203125 -20.796875 
Q 24.46875 -20.796875 20.265625 -20.09375 
Q 16.0625 -19.390625 12.109375 -17.921875 
L 12.109375 -9.1875 
Q 16.0625 -11.328125 19.921875 -12.34375 
Q 23.78125 -13.375 27.78125 -13.375 
Q 36.625 -13.375 41.015625 -8.765625 
Q 45.40625 -4.15625 45.40625 5.171875 
L 45.40625 9.625 
Q 42.625 4.78125 38.28125 2.390625 
Q 33.9375 0 27.875 0 
Q 17.828125 0 11.671875 7.65625 
Q 5.515625 15.328125 5.515625 27.984375 
Q 5.515625 40.671875 11.671875 48.328125 
Q 17.828125 56 27.875 56 
Q 33.9375 56 38.28125 53.609375 
Q 42.625 51.21875 45.40625 46.390625 
L 45.40625 54.6875 
L 54.390625 54.6875 
z
" id="DejaVuSans-103"/>
      <path d="M 8.5 21.578125 
L 8.5 54.6875 
L 17.484375 54.6875 
L 17.484375 21.921875 
Q 17.484375 14.15625 20.5 10.265625 
Q 23.53125 6.390625 29.59375 6.390625 
Q 36.859375 6.390625 41.078125 11.03125 
Q 45.3125 15.671875 45.3125 23.6875 
L 45.3125 54.6875 
L 54.296875 54.6875 
L 54.296875 0 
L 45.3125 0 
L 45.3125 8.40625 
Q 42.046875 3.421875 37.71875 1 
Q 33.40625 -1.421875 27.6875 -1.421875 
Q 18.265625 -1.421875 13.375 4.4375 
Q 8.5 10.296875 8.5 21.578125 
z
M 31.109375 56 
z
" id="DejaVuSans-117"/>
      <path d="M 2.984375 54.6875 
L 12.5 54.6875 
L 29.59375 8.796875 
L 46.6875 54.6875 
L 56.203125 54.6875 
L 35.6875 0 
L 23.484375 0 
z
" id="DejaVuSans-118"/>
      <path d="M 30.953125 67.4375 
L 56.203125 0 
L 46.6875 0 
L 31.34375 40.4375 
L 12.5 0 
L 2.984375 0 
L 26.953125 52.4375 
L 23.34375 62.109375 
Q 21.046875 68.265625 15.828125 68.265625 
L 11.140625 68.265625 
L 11.140625 75.984375 
L 16.84375 75.875 
Q 27.875 75.734375 30.953125 67.4375 
z
" id="DejaVuSans-955"/>
      <path d="M 50.984375 -16.609375 
L 50.984375 -23.578125 
L -0.984375 -23.578125 
L -0.984375 -16.609375 
z
" id="DejaVuSans-95"/>
      <path d="M 45.40625 46.390625 
L 45.40625 75.984375 
L 54.390625 75.984375 
L 54.390625 0 
L 45.40625 0 
L 45.40625 8.203125 
Q 42.578125 3.328125 38.25 0.953125 
Q 33.9375 -1.421875 27.875 -1.421875 
Q 17.96875 -1.421875 11.734375 6.484375 
Q 5.515625 14.40625 5.515625 27.296875 
Q 5.515625 40.1875 11.734375 48.09375 
Q 17.96875 56 27.875 56 
Q 33.9375 56 38.25 53.625 
Q 42.578125 51.265625 45.40625 46.390625 
z
M 14.796875 27.296875 
Q 14.796875 17.390625 18.875 11.75 
Q 22.953125 6.109375 30.078125 6.109375 
Q 37.203125 6.109375 41.296875 11.75 
Q 45.40625 17.390625 45.40625 27.296875 
Q 45.40625 37.203125 41.296875 42.84375 
Q 37.203125 48.484375 30.078125 48.484375 
Q 22.953125 48.484375 18.875 42.84375 
Q 14.796875 37.203125 14.796875 27.296875 
z
" id="DejaVuSans-100"/>
      <path d="M 52 44.1875 
Q 55.375 50.25 60.0625 53.125 
Q 64.75 56 71.09375 56 
Q 79.640625 56 84.28125 50.015625 
Q 88.921875 44.046875 88.921875 33.015625 
L 88.921875 0 
L 79.890625 0 
L 79.890625 32.71875 
Q 79.890625 40.578125 77.09375 44.375 
Q 74.3125 48.1875 68.609375 48.1875 
Q 61.625 48.1875 57.5625 43.546875 
Q 53.515625 38.921875 53.515625 30.90625 
L 53.515625 0 
L 44.484375 0 
L 44.484375 32.71875 
Q 44.484375 40.625 41.703125 44.40625 
Q 38.921875 48.1875 33.109375 48.1875 
Q 26.21875 48.1875 22.15625 43.53125 
Q 18.109375 38.875 18.109375 30.90625 
L 18.109375 0 
L 9.078125 0 
L 9.078125 54.6875 
L 18.109375 54.6875 
L 18.109375 46.1875 
Q 21.1875 51.21875 25.484375 53.609375 
Q 29.78125 56 35.6875 56 
Q 41.65625 56 45.828125 52.96875 
Q 50 49.953125 52 44.1875 
z
" id="DejaVuSans-109"/>
      <path d="M 37.109375 75.984375 
L 37.109375 68.5 
L 28.515625 68.5 
Q 23.6875 68.5 21.796875 66.546875 
Q 19.921875 64.59375 19.921875 59.515625 
L 19.921875 54.6875 
L 34.71875 54.6875 
L 34.71875 47.703125 
L 19.921875 47.703125 
L 19.921875 0 
L 10.890625 0 
L 10.890625 47.703125 
L 2.296875 47.703125 
L 2.296875 54.6875 
L 10.890625 54.6875 
L 10.890625 58.5 
Q 10.890625 67.625 15.140625 71.796875 
Q 19.390625 75.984375 28.609375 75.984375 
z
" id="DejaVuSans-102"/>
      <path d="M 32.171875 -5.078125 
Q 28.375 -14.84375 24.75 -17.8125 
Q 21.140625 -20.796875 15.09375 -20.796875 
L 7.90625 -20.796875 
L 7.90625 -13.28125 
L 13.1875 -13.28125 
Q 16.890625 -13.28125 18.9375 -11.515625 
Q 21 -9.765625 23.484375 -3.21875 
L 25.09375 0.875 
L 2.984375 54.6875 
L 12.5 54.6875 
L 29.59375 11.921875 
L 46.6875 54.6875 
L 56.203125 54.6875 
z
" id="DejaVuSans-121"/>
      <path d="M 25.390625 72.90625 
L 33.6875 72.90625 
L 8.296875 -9.28125 
L 0 -9.28125 
z
" id="DejaVuSans-47"/>
     </defs>
     <use xlink:href="#DejaVuSans-84"/>
     <use x="61.083984" xlink:href="#DejaVuSans-104"/>
     <use x="124.462891" xlink:href="#DejaVuSans-101"/>
     <use x="185.986328" xlink:href="#DejaVuSans-32"/>
     <use x="217.773438" xlink:href="#DejaVuSans-108"/>
     <use x="245.556641" xlink:href="#DejaVuSans-101"/>
     <use x="307.080078" xlink:href="#DejaVuSans-97"/>
     <use x="368.359375" xlink:href="#DejaVuSans-114"/>
     <use x="407.722656" xlink:href="#DejaVuSans-110"/>
     <use x="471.101562" xlink:href="#DejaVuSans-105"/>
     <use x="498.884766" xlink:href="#DejaVuSans-110"/>
     <use x="562.263672" xlink:href="#DejaVuSans-103"/>
     <use x="625.740234" xlink:href="#DejaVuSans-32"/>
     <use x="657.527344" xlink:href="#DejaVuSans-99"/>
     <use x="712.507812" xlink:href="#DejaVuSans-117"/>
     <use x="775.886719" xlink:href="#DejaVuSans-114"/>
     <use x="817" xlink:href="#DejaVuSans-118"/>
     <use x="876.179688" xlink:href="#DejaVuSans-101"/>
     <use x="937.703125" xlink:href="#DejaVuSans-32"/>
     <use x="969.490234" xlink:href="#DejaVuSans-111"/>
     <use x="1030.671875" xlink:href="#DejaVuSans-110"/>
     <use x="1094.050781" xlink:href="#DejaVuSans-32"/>
     <use x="1125.837891" xlink:href="#DejaVuSans-955"/>
     <use x="1185.017578" xlink:href="#DejaVuSans-95"/>
     <use x="1235.017578" xlink:href="#DejaVuSans-110"/>
     <use x="1298.396484" xlink:href="#DejaVuSans-111"/>
     <use x="1359.578125" xlink:href="#DejaVuSans-110"/>
     <use x="1422.957031" xlink:href="#DejaVuSans-95"/>
     <use x="1472.957031" xlink:href="#DejaVuSans-105"/>
     <use x="1500.740234" xlink:href="#DejaVuSans-105"/>
     <use x="1528.523438" xlink:href="#DejaVuSans-100"/>
     <use x="1592" xlink:href="#DejaVuSans-95"/>
     <use x="1642" xlink:href="#DejaVuSans-97"/>
     <use x="1703.279297" xlink:href="#DejaVuSans-103"/>
     <use x="1766.755859" xlink:href="#DejaVuSans-103"/>
     <use x="1830.232422" xlink:href="#DejaVuSans-95"/>
     <use x="1880.232422" xlink:href="#DejaVuSans-109"/>
     <use x="1977.644531" xlink:href="#DejaVuSans-111"/>
     <use x="2038.826172" xlink:href="#DejaVuSans-100"/>
     <use x="2102.302734" xlink:href="#DejaVuSans-105"/>
     <use x="2130.085938" xlink:href="#DejaVuSans-102"/>
     <use x="2163.541016" xlink:href="#DejaVuSans-121"/>
     <use x="2222.720703" xlink:href="#DejaVuSans-47"/>
     <use x="2256.412109" xlink:href="#DejaVuSans-104"/>
     <use x="2319.791016" xlink:href="#DejaVuSans-111"/>
     <use x="2380.972656" xlink:href="#DejaVuSans-115"/>
     <use x="2433.072266" xlink:href="#DejaVuSans-116"/>
     <use x="2472.28125" xlink:href="#DejaVuSans-47"/>
     <use x="2505.972656" xlink:href="#DejaVuSans-53"/>
    </g>
   </g>
   <g id="legend_2">
    <g id="patch_12">
     <path d="M 460.084375 74.518125 
L 511.4 74.518125 
Q 513.4 74.518125 513.4 72.518125 
L 513.4 58.84 
Q 513.4 56.84 511.4 56.84 
L 460.084375 56.84 
Q 458.084375 56.84 458.084375 58.84 
L 458.084375 72.518125 
Q 458.084375 74.518125 460.084375 74.518125 
z
" style="fill:#ffffff;opacity:0.8;stroke:#cccccc;stroke-linejoin:miter;"/>
    </g>
    <g id="line2d_26">
     <path d="M 462.084375 64.938438 
L 482.084375 64.938438 
" style="fill:none;stroke:#ff0000;stroke-linecap:square;stroke-width:1.5;"/>
    </g>
    <g id="line2d_27"/>
    <g id="text_25">
     <!-- loss -->
     <g transform="translate(490.084375 68.438438)scale(0.1 -0.1)">
      <use xlink:href="#DejaVuSans-108"/>
      <use x="27.783203" xlink:href="#DejaVuSans-111"/>
      <use x="88.964844" xlink:href="#DejaVuSans-115"/>
      <use x="141.064453" xlink:href="#DejaVuSans-115"/>
     </g>
    </g>
   </g>
  </g>
 </g>
 <defs>
  <clipPath id="p9e5ee69130">
   <rect height="332.64" width="446.4" x="72" y="51.84"/>
  </clipPath>
 </defs>
</svg>
