<?xml version="1.0" encoding="utf-8" standalone="no"?>
<!DOCTYPE svg PUBLIC "-//W3C//DTD SVG 1.1//EN"
  "http://www.w3.org/Graphics/SVG/1.1/DTD/svg11.dtd">
<!-- Created with matplotlib (https://matplotlib.org/) -->
<svg height="432pt" version="1.1" viewBox="0 0 576 432" width="576pt" xmlns="http://www.w3.org/2000/svg" xmlns:xlink="http://www.w3.org/1999/xlink">
 <metadata>
  <rdf:RDF xmlns:cc="http://creativecommons.org/ns#" xmlns:dc="http://purl.org/dc/elements/1.1/" xmlns:rdf="http://www.w3.org/1999/02/22-rdf-syntax-ns#">
   <cc:Work>
    <dc:type rdf:resource="http://purl.org/dc/dcmitype/StillImage"/>
    <dc:date>2023-04-18T10:01:56.009837</dc:date>
    <dc:format>image/svg+xml</dc:format>
    <dc:creator>
     <cc:Agent>
      <dc:title>Matplotlib v3.3.4, https://matplotlib.org/</dc:title>
     </cc:Agent>
    </dc:creator>
   </cc:Work>
  </rdf:RDF>
 </metadata>
 <defs>
  <style type="text/css">*{stroke-linecap:butt;stroke-linejoin:round;}</style>
 </defs>
 <g id="figure_1">
  <g id="patch_1">
   <path d="M 0 432 
L 576 432 
L 576 0 
L 0 0 
z
" style="fill:#ffffff;"/>
  </g>
  <g id="axes_1">
   <g id="patch_2">
    <path d="M 72 384.48 
L 518.4 384.48 
L 518.4 51.84 
L 72 51.84 
z
" style="fill:#ffffff;"/>
   </g>
   <g id="matplotlib.axis_1">
    <g id="xtick_1">
     <g id="line2d_1">
      <defs>
       <path d="M 0 0 
L 0 3.5 
" id="m5fdc38a971" style="stroke:#000000;stroke-width:0.8;"/>
      </defs>
      <g>
       <use style="stroke:#000000;stroke-width:0.8;" x="92.290909" xlink:href="#m5fdc38a971" y="384.48"/>
      </g>
     </g>
     <g id="text_1">
      <!-- 0 -->
      <g transform="translate(89.109659 399.078438)scale(0.1 -0.1)">
       <defs>
        <path d="M 31.78125 66.40625 
Q 24.171875 66.40625 20.328125 58.90625 
Q 16.5 51.421875 16.5 36.375 
Q 16.5 21.390625 20.328125 13.890625 
Q 24.171875 6.390625 31.78125 6.390625 
Q 39.453125 6.390625 43.28125 13.890625 
Q 47.125 21.390625 47.125 36.375 
Q 47.125 51.421875 43.28125 58.90625 
Q 39.453125 66.40625 31.78125 66.40625 
z
M 31.78125 74.21875 
Q 44.046875 74.21875 50.515625 64.515625 
Q 56.984375 54.828125 56.984375 36.375 
Q 56.984375 17.96875 50.515625 8.265625 
Q 44.046875 -1.421875 31.78125 -1.421875 
Q 19.53125 -1.421875 13.0625 8.265625 
Q 6.59375 17.96875 6.59375 36.375 
Q 6.59375 54.828125 13.0625 64.515625 
Q 19.53125 74.21875 31.78125 74.21875 
z
" id="DejaVuSans-48"/>
       </defs>
       <use xlink:href="#DejaVuSans-48"/>
      </g>
     </g>
    </g>
    <g id="xtick_2">
     <g id="line2d_2">
      <g>
       <use style="stroke:#000000;stroke-width:0.8;" x="173.617198" xlink:href="#m5fdc38a971" y="384.48"/>
      </g>
     </g>
     <g id="text_2">
      <!-- 100 -->
      <g transform="translate(164.073448 399.078438)scale(0.1 -0.1)">
       <defs>
        <path d="M 12.40625 8.296875 
L 28.515625 8.296875 
L 28.515625 63.921875 
L 10.984375 60.40625 
L 10.984375 69.390625 
L 28.421875 72.90625 
L 38.28125 72.90625 
L 38.28125 8.296875 
L 54.390625 8.296875 
L 54.390625 0 
L 12.40625 0 
z
" id="DejaVuSans-49"/>
       </defs>
       <use xlink:href="#DejaVuSans-49"/>
       <use x="63.623047" xlink:href="#DejaVuSans-48"/>
       <use x="127.246094" xlink:href="#DejaVuSans-48"/>
      </g>
     </g>
    </g>
    <g id="xtick_3">
     <g id="line2d_3">
      <g>
       <use style="stroke:#000000;stroke-width:0.8;" x="254.943487" xlink:href="#m5fdc38a971" y="384.48"/>
      </g>
     </g>
     <g id="text_3">
      <!-- 200 -->
      <g transform="translate(245.399737 399.078438)scale(0.1 -0.1)">
       <defs>
        <path d="M 19.1875 8.296875 
L 53.609375 8.296875 
L 53.609375 0 
L 7.328125 0 
L 7.328125 8.296875 
Q 12.9375 14.109375 22.625 23.890625 
Q 32.328125 33.6875 34.8125 36.53125 
Q 39.546875 41.84375 41.421875 45.53125 
Q 43.3125 49.21875 43.3125 52.78125 
Q 43.3125 58.59375 39.234375 62.25 
Q 35.15625 65.921875 28.609375 65.921875 
Q 23.96875 65.921875 18.8125 64.3125 
Q 13.671875 62.703125 7.8125 59.421875 
L 7.8125 69.390625 
Q 13.765625 71.78125 18.9375 73 
Q 24.125 74.21875 28.421875 74.21875 
Q 39.75 74.21875 46.484375 68.546875 
Q 53.21875 62.890625 53.21875 53.421875 
Q 53.21875 48.921875 51.53125 44.890625 
Q 49.859375 40.875 45.40625 35.40625 
Q 44.1875 33.984375 37.640625 27.21875 
Q 31.109375 20.453125 19.1875 8.296875 
z
" id="DejaVuSans-50"/>
       </defs>
       <use xlink:href="#DejaVuSans-50"/>
       <use x="63.623047" xlink:href="#DejaVuSans-48"/>
       <use x="127.246094" xlink:href="#DejaVuSans-48"/>
      </g>
     </g>
    </g>
    <g id="xtick_4">
     <g id="line2d_4">
      <g>
       <use style="stroke:#000000;stroke-width:0.8;" x="336.269776" xlink:href="#m5fdc38a971" y="384.48"/>
      </g>
     </g>
     <g id="text_4">
      <!-- 300 -->
      <g transform="translate(326.726026 399.078438)scale(0.1 -0.1)">
       <defs>
        <path d="M 40.578125 39.3125 
Q 47.65625 37.796875 51.625 33 
Q 55.609375 28.21875 55.609375 21.1875 
Q 55.609375 10.40625 48.1875 4.484375 
Q 40.765625 -1.421875 27.09375 -1.421875 
Q 22.515625 -1.421875 17.65625 -0.515625 
Q 12.796875 0.390625 7.625 2.203125 
L 7.625 11.71875 
Q 11.71875 9.328125 16.59375 8.109375 
Q 21.484375 6.890625 26.8125 6.890625 
Q 36.078125 6.890625 40.9375 10.546875 
Q 45.796875 14.203125 45.796875 21.1875 
Q 45.796875 27.640625 41.28125 31.265625 
Q 36.765625 34.90625 28.71875 34.90625 
L 20.21875 34.90625 
L 20.21875 43.015625 
L 29.109375 43.015625 
Q 36.375 43.015625 40.234375 45.921875 
Q 44.09375 48.828125 44.09375 54.296875 
Q 44.09375 59.90625 40.109375 62.90625 
Q 36.140625 65.921875 28.71875 65.921875 
Q 24.65625 65.921875 20.015625 65.03125 
Q 15.375 64.15625 9.8125 62.3125 
L 9.8125 71.09375 
Q 15.4375 72.65625 20.34375 73.4375 
Q 25.25 74.21875 29.59375 74.21875 
Q 40.828125 74.21875 47.359375 69.109375 
Q 53.90625 64.015625 53.90625 55.328125 
Q 53.90625 49.265625 50.4375 45.09375 
Q 46.96875 40.921875 40.578125 39.3125 
z
" id="DejaVuSans-51"/>
       </defs>
       <use xlink:href="#DejaVuSans-51"/>
       <use x="63.623047" xlink:href="#DejaVuSans-48"/>
       <use x="127.246094" xlink:href="#DejaVuSans-48"/>
      </g>
     </g>
    </g>
    <g id="xtick_5">
     <g id="line2d_5">
      <g>
       <use style="stroke:#000000;stroke-width:0.8;" x="417.596065" xlink:href="#m5fdc38a971" y="384.48"/>
      </g>
     </g>
     <g id="text_5">
      <!-- 400 -->
      <g transform="translate(408.052315 399.078438)scale(0.1 -0.1)">
       <defs>
        <path d="M 37.796875 64.3125 
L 12.890625 25.390625 
L 37.796875 25.390625 
z
M 35.203125 72.90625 
L 47.609375 72.90625 
L 47.609375 25.390625 
L 58.015625 25.390625 
L 58.015625 17.1875 
L 47.609375 17.1875 
L 47.609375 0 
L 37.796875 0 
L 37.796875 17.1875 
L 4.890625 17.1875 
L 4.890625 26.703125 
z
" id="DejaVuSans-52"/>
       </defs>
       <use xlink:href="#DejaVuSans-52"/>
       <use x="63.623047" xlink:href="#DejaVuSans-48"/>
       <use x="127.246094" xlink:href="#DejaVuSans-48"/>
      </g>
     </g>
    </g>
    <g id="xtick_6">
     <g id="line2d_6">
      <g>
       <use style="stroke:#000000;stroke-width:0.8;" x="498.922354" xlink:href="#m5fdc38a971" y="384.48"/>
      </g>
     </g>
     <g id="text_6">
      <!-- 500 -->
      <g transform="translate(489.378604 399.078438)scale(0.1 -0.1)">
       <defs>
        <path d="M 10.796875 72.90625 
L 49.515625 72.90625 
L 49.515625 64.59375 
L 19.828125 64.59375 
L 19.828125 46.734375 
Q 21.96875 47.46875 24.109375 47.828125 
Q 26.265625 48.1875 28.421875 48.1875 
Q 40.625 48.1875 47.75 41.5 
Q 54.890625 34.8125 54.890625 23.390625 
Q 54.890625 11.625 47.5625 5.09375 
Q 40.234375 -1.421875 26.90625 -1.421875 
Q 22.3125 -1.421875 17.546875 -0.640625 
Q 12.796875 0.140625 7.71875 1.703125 
L 7.71875 11.625 
Q 12.109375 9.234375 16.796875 8.0625 
Q 21.484375 6.890625 26.703125 6.890625 
Q 35.15625 6.890625 40.078125 11.328125 
Q 45.015625 15.765625 45.015625 23.390625 
Q 45.015625 31 40.078125 35.4375 
Q 35.15625 39.890625 26.703125 39.890625 
Q 22.75 39.890625 18.8125 39.015625 
Q 14.890625 38.140625 10.796875 36.28125 
z
" id="DejaVuSans-53"/>
       </defs>
       <use xlink:href="#DejaVuSans-53"/>
       <use x="63.623047" xlink:href="#DejaVuSans-48"/>
       <use x="127.246094" xlink:href="#DejaVuSans-48"/>
      </g>
     </g>
    </g>
    <g id="text_7">
     <!-- epoch -->
     <g transform="translate(279.971875 412.756563)scale(0.1 -0.1)">
      <defs>
       <path d="M 56.203125 29.59375 
L 56.203125 25.203125 
L 14.890625 25.203125 
Q 15.484375 15.921875 20.484375 11.0625 
Q 25.484375 6.203125 34.421875 6.203125 
Q 39.59375 6.203125 44.453125 7.46875 
Q 49.3125 8.734375 54.109375 11.28125 
L 54.109375 2.78125 
Q 49.265625 0.734375 44.1875 -0.34375 
Q 39.109375 -1.421875 33.890625 -1.421875 
Q 20.796875 -1.421875 13.15625 6.1875 
Q 5.515625 13.8125 5.515625 26.8125 
Q 5.515625 40.234375 12.765625 48.109375 
Q 20.015625 56 32.328125 56 
Q 43.359375 56 49.78125 48.890625 
Q 56.203125 41.796875 56.203125 29.59375 
z
M 47.21875 32.234375 
Q 47.125 39.59375 43.09375 43.984375 
Q 39.0625 48.390625 32.421875 48.390625 
Q 24.90625 48.390625 20.390625 44.140625 
Q 15.875 39.890625 15.1875 32.171875 
z
" id="DejaVuSans-101"/>
       <path d="M 18.109375 8.203125 
L 18.109375 -20.796875 
L 9.078125 -20.796875 
L 9.078125 54.6875 
L 18.109375 54.6875 
L 18.109375 46.390625 
Q 20.953125 51.265625 25.265625 53.625 
Q 29.59375 56 35.59375 56 
Q 45.5625 56 51.78125 48.09375 
Q 58.015625 40.1875 58.015625 27.296875 
Q 58.015625 14.40625 51.78125 6.484375 
Q 45.5625 -1.421875 35.59375 -1.421875 
Q 29.59375 -1.421875 25.265625 0.953125 
Q 20.953125 3.328125 18.109375 8.203125 
z
M 48.6875 27.296875 
Q 48.6875 37.203125 44.609375 42.84375 
Q 40.53125 48.484375 33.40625 48.484375 
Q 26.265625 48.484375 22.1875 42.84375 
Q 18.109375 37.203125 18.109375 27.296875 
Q 18.109375 17.390625 22.1875 11.75 
Q 26.265625 6.109375 33.40625 6.109375 
Q 40.53125 6.109375 44.609375 11.75 
Q 48.6875 17.390625 48.6875 27.296875 
z
" id="DejaVuSans-112"/>
       <path d="M 30.609375 48.390625 
Q 23.390625 48.390625 19.1875 42.75 
Q 14.984375 37.109375 14.984375 27.296875 
Q 14.984375 17.484375 19.15625 11.84375 
Q 23.34375 6.203125 30.609375 6.203125 
Q 37.796875 6.203125 41.984375 11.859375 
Q 46.1875 17.53125 46.1875 27.296875 
Q 46.1875 37.015625 41.984375 42.703125 
Q 37.796875 48.390625 30.609375 48.390625 
z
M 30.609375 56 
Q 42.328125 56 49.015625 48.375 
Q 55.71875 40.765625 55.71875 27.296875 
Q 55.71875 13.875 49.015625 6.21875 
Q 42.328125 -1.421875 30.609375 -1.421875 
Q 18.84375 -1.421875 12.171875 6.21875 
Q 5.515625 13.875 5.515625 27.296875 
Q 5.515625 40.765625 12.171875 48.375 
Q 18.84375 56 30.609375 56 
z
" id="DejaVuSans-111"/>
       <path d="M 48.78125 52.59375 
L 48.78125 44.1875 
Q 44.96875 46.296875 41.140625 47.34375 
Q 37.3125 48.390625 33.40625 48.390625 
Q 24.65625 48.390625 19.8125 42.84375 
Q 14.984375 37.3125 14.984375 27.296875 
Q 14.984375 17.28125 19.8125 11.734375 
Q 24.65625 6.203125 33.40625 6.203125 
Q 37.3125 6.203125 41.140625 7.25 
Q 44.96875 8.296875 48.78125 10.40625 
L 48.78125 2.09375 
Q 45.015625 0.34375 40.984375 -0.53125 
Q 36.96875 -1.421875 32.421875 -1.421875 
Q 20.0625 -1.421875 12.78125 6.34375 
Q 5.515625 14.109375 5.515625 27.296875 
Q 5.515625 40.671875 12.859375 48.328125 
Q 20.21875 56 33.015625 56 
Q 37.15625 56 41.109375 55.140625 
Q 45.0625 54.296875 48.78125 52.59375 
z
" id="DejaVuSans-99"/>
       <path d="M 54.890625 33.015625 
L 54.890625 0 
L 45.90625 0 
L 45.90625 32.71875 
Q 45.90625 40.484375 42.875 44.328125 
Q 39.84375 48.1875 33.796875 48.1875 
Q 26.515625 48.1875 22.3125 43.546875 
Q 18.109375 38.921875 18.109375 30.90625 
L 18.109375 0 
L 9.078125 0 
L 9.078125 75.984375 
L 18.109375 75.984375 
L 18.109375 46.1875 
Q 21.34375 51.125 25.703125 53.5625 
Q 30.078125 56 35.796875 56 
Q 45.21875 56 50.046875 50.171875 
Q 54.890625 44.34375 54.890625 33.015625 
z
" id="DejaVuSans-104"/>
      </defs>
      <use xlink:href="#DejaVuSans-101"/>
      <use x="61.523438" xlink:href="#DejaVuSans-112"/>
      <use x="125" xlink:href="#DejaVuSans-111"/>
      <use x="186.181641" xlink:href="#DejaVuSans-99"/>
      <use x="241.162109" xlink:href="#DejaVuSans-104"/>
     </g>
    </g>
   </g>
   <g id="matplotlib.axis_2">
    <g id="ytick_1">
     <g id="line2d_7">
      <defs>
       <path d="M 0 0 
L -3.5 0 
" id="mca3871800a" style="stroke:#000000;stroke-width:0.8;"/>
      </defs>
      <g>
       <use style="stroke:#000000;stroke-width:0.8;" x="72" xlink:href="#mca3871800a" y="384.48"/>
      </g>
     </g>
     <g id="text_8">
      <!-- 0.0 -->
      <g transform="translate(49.096875 388.279219)scale(0.1 -0.1)">
       <defs>
        <path d="M 10.6875 12.40625 
L 21 12.40625 
L 21 0 
L 10.6875 0 
z
" id="DejaVuSans-46"/>
       </defs>
       <use xlink:href="#DejaVuSans-48"/>
       <use x="63.623047" xlink:href="#DejaVuSans-46"/>
       <use x="95.410156" xlink:href="#DejaVuSans-48"/>
      </g>
     </g>
    </g>
    <g id="ytick_2">
     <g id="line2d_8">
      <g>
       <use style="stroke:#000000;stroke-width:0.8;" x="72" xlink:href="#mca3871800a" y="317.952"/>
      </g>
     </g>
     <g id="text_9">
      <!-- 0.2 -->
      <g transform="translate(49.096875 321.751219)scale(0.1 -0.1)">
       <use xlink:href="#DejaVuSans-48"/>
       <use x="63.623047" xlink:href="#DejaVuSans-46"/>
       <use x="95.410156" xlink:href="#DejaVuSans-50"/>
      </g>
     </g>
    </g>
    <g id="ytick_3">
     <g id="line2d_9">
      <g>
       <use style="stroke:#000000;stroke-width:0.8;" x="72" xlink:href="#mca3871800a" y="251.424"/>
      </g>
     </g>
     <g id="text_10">
      <!-- 0.4 -->
      <g transform="translate(49.096875 255.223219)scale(0.1 -0.1)">
       <use xlink:href="#DejaVuSans-48"/>
       <use x="63.623047" xlink:href="#DejaVuSans-46"/>
       <use x="95.410156" xlink:href="#DejaVuSans-52"/>
      </g>
     </g>
    </g>
    <g id="ytick_4">
     <g id="line2d_10">
      <g>
       <use style="stroke:#000000;stroke-width:0.8;" x="72" xlink:href="#mca3871800a" y="184.896"/>
      </g>
     </g>
     <g id="text_11">
      <!-- 0.6 -->
      <g transform="translate(49.096875 188.695219)scale(0.1 -0.1)">
       <defs>
        <path d="M 33.015625 40.375 
Q 26.375 40.375 22.484375 35.828125 
Q 18.609375 31.296875 18.609375 23.390625 
Q 18.609375 15.53125 22.484375 10.953125 
Q 26.375 6.390625 33.015625 6.390625 
Q 39.65625 6.390625 43.53125 10.953125 
Q 47.40625 15.53125 47.40625 23.390625 
Q 47.40625 31.296875 43.53125 35.828125 
Q 39.65625 40.375 33.015625 40.375 
z
M 52.59375 71.296875 
L 52.59375 62.3125 
Q 48.875 64.0625 45.09375 64.984375 
Q 41.3125 65.921875 37.59375 65.921875 
Q 27.828125 65.921875 22.671875 59.328125 
Q 17.53125 52.734375 16.796875 39.40625 
Q 19.671875 43.65625 24.015625 45.921875 
Q 28.375 48.1875 33.59375 48.1875 
Q 44.578125 48.1875 50.953125 41.515625 
Q 57.328125 34.859375 57.328125 23.390625 
Q 57.328125 12.15625 50.6875 5.359375 
Q 44.046875 -1.421875 33.015625 -1.421875 
Q 20.359375 -1.421875 13.671875 8.265625 
Q 6.984375 17.96875 6.984375 36.375 
Q 6.984375 53.65625 15.1875 63.9375 
Q 23.390625 74.21875 37.203125 74.21875 
Q 40.921875 74.21875 44.703125 73.484375 
Q 48.484375 72.75 52.59375 71.296875 
z
" id="DejaVuSans-54"/>
       </defs>
       <use xlink:href="#DejaVuSans-48"/>
       <use x="63.623047" xlink:href="#DejaVuSans-46"/>
       <use x="95.410156" xlink:href="#DejaVuSans-54"/>
      </g>
     </g>
    </g>
    <g id="ytick_5">
     <g id="line2d_11">
      <g>
       <use style="stroke:#000000;stroke-width:0.8;" x="72" xlink:href="#mca3871800a" y="118.368"/>
      </g>
     </g>
     <g id="text_12">
      <!-- 0.8 -->
      <g transform="translate(49.096875 122.167219)scale(0.1 -0.1)">
       <defs>
        <path d="M 31.78125 34.625 
Q 24.75 34.625 20.71875 30.859375 
Q 16.703125 27.09375 16.703125 20.515625 
Q 16.703125 13.921875 20.71875 10.15625 
Q 24.75 6.390625 31.78125 6.390625 
Q 38.8125 6.390625 42.859375 10.171875 
Q 46.921875 13.96875 46.921875 20.515625 
Q 46.921875 27.09375 42.890625 30.859375 
Q 38.875 34.625 31.78125 34.625 
z
M 21.921875 38.8125 
Q 15.578125 40.375 12.03125 44.71875 
Q 8.5 49.078125 8.5 55.328125 
Q 8.5 64.0625 14.71875 69.140625 
Q 20.953125 74.21875 31.78125 74.21875 
Q 42.671875 74.21875 48.875 69.140625 
Q 55.078125 64.0625 55.078125 55.328125 
Q 55.078125 49.078125 51.53125 44.71875 
Q 48 40.375 41.703125 38.8125 
Q 48.828125 37.15625 52.796875 32.3125 
Q 56.78125 27.484375 56.78125 20.515625 
Q 56.78125 9.90625 50.3125 4.234375 
Q 43.84375 -1.421875 31.78125 -1.421875 
Q 19.734375 -1.421875 13.25 4.234375 
Q 6.78125 9.90625 6.78125 20.515625 
Q 6.78125 27.484375 10.78125 32.3125 
Q 14.796875 37.15625 21.921875 38.8125 
z
M 18.3125 54.390625 
Q 18.3125 48.734375 21.84375 45.5625 
Q 25.390625 42.390625 31.78125 42.390625 
Q 38.140625 42.390625 41.71875 45.5625 
Q 45.3125 48.734375 45.3125 54.390625 
Q 45.3125 60.0625 41.71875 63.234375 
Q 38.140625 66.40625 31.78125 66.40625 
Q 25.390625 66.40625 21.84375 63.234375 
Q 18.3125 60.0625 18.3125 54.390625 
z
" id="DejaVuSans-56"/>
       </defs>
       <use xlink:href="#DejaVuSans-48"/>
       <use x="63.623047" xlink:href="#DejaVuSans-46"/>
       <use x="95.410156" xlink:href="#DejaVuSans-56"/>
      </g>
     </g>
    </g>
    <g id="ytick_6">
     <g id="line2d_12">
      <g>
       <use style="stroke:#000000;stroke-width:0.8;" x="72" xlink:href="#mca3871800a" y="51.84"/>
      </g>
     </g>
     <g id="text_13">
      <!-- 1.0 -->
      <g transform="translate(49.096875 55.639219)scale(0.1 -0.1)">
       <use xlink:href="#DejaVuSans-49"/>
       <use x="63.623047" xlink:href="#DejaVuSans-46"/>
       <use x="95.410156" xlink:href="#DejaVuSans-48"/>
      </g>
     </g>
    </g>
    <g id="text_14">
     <!-- rate -->
     <g transform="translate(43.017187 228.31625)rotate(-90)scale(0.1 -0.1)">
      <defs>
       <path d="M 41.109375 46.296875 
Q 39.59375 47.171875 37.8125 47.578125 
Q 36.03125 48 33.890625 48 
Q 26.265625 48 22.1875 43.046875 
Q 18.109375 38.09375 18.109375 28.8125 
L 18.109375 0 
L 9.078125 0 
L 9.078125 54.6875 
L 18.109375 54.6875 
L 18.109375 46.1875 
Q 20.953125 51.171875 25.484375 53.578125 
Q 30.03125 56 36.53125 56 
Q 37.453125 56 38.578125 55.875 
Q 39.703125 55.765625 41.0625 55.515625 
z
" id="DejaVuSans-114"/>
       <path d="M 34.28125 27.484375 
Q 23.390625 27.484375 19.1875 25 
Q 14.984375 22.515625 14.984375 16.5 
Q 14.984375 11.71875 18.140625 8.90625 
Q 21.296875 6.109375 26.703125 6.109375 
Q 34.1875 6.109375 38.703125 11.40625 
Q 43.21875 16.703125 43.21875 25.484375 
L 43.21875 27.484375 
z
M 52.203125 31.203125 
L 52.203125 0 
L 43.21875 0 
L 43.21875 8.296875 
Q 40.140625 3.328125 35.546875 0.953125 
Q 30.953125 -1.421875 24.3125 -1.421875 
Q 15.921875 -1.421875 10.953125 3.296875 
Q 6 8.015625 6 15.921875 
Q 6 25.140625 12.171875 29.828125 
Q 18.359375 34.515625 30.609375 34.515625 
L 43.21875 34.515625 
L 43.21875 35.40625 
Q 43.21875 41.609375 39.140625 45 
Q 35.0625 48.390625 27.6875 48.390625 
Q 23 48.390625 18.546875 47.265625 
Q 14.109375 46.140625 10.015625 43.890625 
L 10.015625 52.203125 
Q 14.9375 54.109375 19.578125 55.046875 
Q 24.21875 56 28.609375 56 
Q 40.484375 56 46.34375 49.84375 
Q 52.203125 43.703125 52.203125 31.203125 
z
" id="DejaVuSans-97"/>
       <path d="M 18.3125 70.21875 
L 18.3125 54.6875 
L 36.8125 54.6875 
L 36.8125 47.703125 
L 18.3125 47.703125 
L 18.3125 18.015625 
Q 18.3125 11.328125 20.140625 9.421875 
Q 21.96875 7.515625 27.59375 7.515625 
L 36.8125 7.515625 
L 36.8125 0 
L 27.59375 0 
Q 17.1875 0 13.234375 3.875 
Q 9.28125 7.765625 9.28125 18.015625 
L 9.28125 47.703125 
L 2.6875 47.703125 
L 2.6875 54.6875 
L 9.28125 54.6875 
L 9.28125 70.21875 
z
" id="DejaVuSans-116"/>
      </defs>
      <use xlink:href="#DejaVuSans-114"/>
      <use x="41.113281" xlink:href="#DejaVuSans-97"/>
      <use x="102.392578" xlink:href="#DejaVuSans-116"/>
      <use x="141.601562" xlink:href="#DejaVuSans-101"/>
     </g>
    </g>
   </g>
   <g id="line2d_13">
    <path clip-path="url(#p698b00c0eb)" d="M 92.290909 212.83138 
L 93.104172 129.732739 
L 93.917435 130.943213 
L 94.730698 132.512543 
L 95.543961 126.164799 
L 97.170486 127.269853 
L 97.983749 123.453915 
L 98.797012 123.180195 
L 99.610275 121.98935 
L 100.423538 109.363069 
L 101.236801 138.018882 
L 102.050064 120.423549 
L 102.863327 130.902127 
L 103.67659 120.601902 
L 104.489852 124.661284 
L 105.303115 121.370816 
L 106.116378 122.07179 
L 107.742904 118.827876 
L 108.556167 107.473805 
L 109.36943 139.38835 
L 110.182693 119.522989 
L 110.995956 127.332858 
L 111.809218 119.95416 
L 112.622481 118.790334 
L 113.435744 117.390689 
L 114.249007 115.508983 
L 115.06227 115.915345 
L 115.875533 114.649773 
L 116.688796 116.012681 
L 117.502059 140.281467 
L 118.315322 119.590438 
L 119.128584 122.643169 
L 119.941847 119.834212 
L 120.75511 114.914658 
L 121.568373 117.047332 
L 122.381636 113.593827 
L 123.194899 111.761617 
L 124.008162 109.358264 
L 124.821425 110.205405 
L 125.634688 139.820445 
L 126.44795 121.628808 
L 127.261213 118.365096 
L 128.074476 121.091142 
L 128.887739 114.862652 
L 129.701002 114.050941 
L 130.514265 110.727159 
L 132.140791 106.925529 
L 132.954054 114.760124 
L 133.767316 138.858669 
L 134.580579 123.146328 
L 135.393842 114.01363 
L 136.207105 123.102513 
L 137.020368 111.023973 
L 137.833631 111.535531 
L 138.646894 111.166231 
L 139.460157 106.506976 
L 140.27342 105.882764 
L 141.086682 112.422338 
L 141.899945 138.836394 
L 142.713208 127.369191 
L 143.526471 113.080009 
L 144.339734 119.926221 
L 145.152997 109.828763 
L 145.96626 106.023872 
L 146.779523 107.532562 
L 147.592786 102.241687 
L 148.406048 100.504807 
L 149.219311 114.374169 
L 150.032574 139.223207 
L 150.845837 127.402083 
L 151.6591 108.873442 
L 152.472363 116.178684 
L 153.285626 108.610839 
L 154.098889 104.539646 
L 154.912152 103.972034 
L 155.725414 100.342623 
L 156.538677 97.676313 
L 157.35194 112.759586 
L 158.165203 139.827193 
L 158.978466 129.852568 
L 159.791729 109.312835 
L 160.604992 113.615446 
L 161.418255 109.701767 
L 162.231518 102.644026 
L 163.04478 101.692348 
L 163.858043 98.8695 
L 164.671306 93.699911 
L 165.484569 109.489542 
L 166.297832 137.546152 
L 167.111095 130.789217 
L 167.924358 107.225178 
L 168.737621 109.617465 
L 169.550884 108.011512 
L 170.364146 99.773621 
L 171.177409 97.618698 
L 171.990672 97.216264 
L 172.803935 92.334802 
L 173.617198 116.24926 
L 174.430461 132.275173 
L 175.243724 132.225324 
L 176.87025 116.329086 
L 177.683512 112.456713 
L 178.496775 109.583462 
L 179.310038 111.579837 
L 180.123301 106.249363 
L 180.936564 105.354147 
L 181.749827 104.947819 
L 182.56309 112.117837 
L 183.376353 129.513325 
L 184.189616 131.618346 
L 185.002878 124.890507 
L 185.816141 113.539541 
L 186.629404 108.603712 
L 187.442667 107.785865 
L 188.25593 105.358769 
L 189.069193 105.069893 
L 189.882456 113.180865 
L 190.695719 110.408075 
L 191.508982 125.328154 
L 192.322244 130.680883 
L 193.135507 122.541452 
L 194.762033 109.462895 
L 195.575296 106.534776 
L 196.388559 107.663496 
L 197.201822 103.552675 
L 198.015085 113.688263 
L 198.828348 110.48825 
L 199.64161 121.755995 
L 200.454873 128.082034 
L 201.268136 124.01177 
L 202.894662 109.180126 
L 203.707925 105.204374 
L 204.521188 102.985874 
L 205.334451 99.47389 
L 206.147714 113.892581 
L 206.960976 104.753746 
L 207.774239 117.344078 
L 208.587502 126.126736 
L 209.400765 125.563553 
L 210.214028 117.836638 
L 211.027291 108.961535 
L 211.840554 105.923535 
L 212.653817 102.424877 
L 213.46708 99.834437 
L 214.280343 117.650743 
L 215.093605 104.230708 
L 215.906868 116.831529 
L 216.720131 125.59317 
L 217.533394 124.725424 
L 219.973183 106.01599 
L 220.786446 102.402007 
L 221.599709 100.254301 
L 222.412971 113.916562 
L 223.226234 101.354144 
L 224.85276 121.241728 
L 225.666023 124.457954 
L 226.479286 118.479282 
L 227.292549 114.341879 
L 228.105812 108.797366 
L 228.919075 107.114363 
L 229.732337 102.134552 
L 230.5456 115.969931 
L 231.358863 105.295796 
L 232.172126 109.826297 
L 232.985389 119.348882 
L 233.798652 121.663644 
L 234.611915 119.378151 
L 235.425178 114.361829 
L 237.051703 106.554162 
L 237.864966 101.885621 
L 238.678229 117.031758 
L 239.491492 103.376781 
L 240.304755 107.324384 
L 241.118018 116.373468 
L 241.931281 119.092924 
L 242.744544 118.029749 
L 243.557807 114.82617 
L 244.371069 109.027001 
L 245.184332 108.281433 
L 245.997595 104.770391 
L 246.810858 111.068648 
L 247.624121 108.223866 
L 248.437384 107.420324 
L 250.06391 118.995715 
L 250.877173 118.501297 
L 251.690435 113.311339 
L 252.503698 110.261832 
L 254.130224 101.889683 
L 254.943487 115.517467 
L 255.75675 106.415353 
L 256.570013 101.320083 
L 257.383276 110.773998 
L 259.009801 116.601641 
L 259.823064 111.698394 
L 260.636327 111.196462 
L 261.44959 107.496838 
L 262.262853 104.560627 
L 263.076116 112.518811 
L 263.889379 96.377755 
L 264.702642 101.942504 
L 265.515905 109.226943 
L 266.329167 112.76602 
L 267.14243 114.890362 
L 267.955693 113.099969 
L 268.768956 109.917674 
L 269.582219 108.682761 
L 270.395482 106.281824 
L 271.208745 113.021418 
L 272.022008 108.509041 
L 272.835271 102.025259 
L 273.648533 105.468704 
L 274.461796 111.803345 
L 275.275059 113.832724 
L 276.088322 112.312056 
L 276.901585 109.62096 
L 277.714848 107.938559 
L 278.528111 105.521077 
L 279.341374 119.68124 
L 280.154637 102.941583 
L 280.967899 102.714774 
L 281.781162 103.295987 
L 282.594425 108.671691 
L 283.407688 110.726106 
L 284.220951 111.973254 
L 285.034214 109.230767 
L 285.847477 110.605068 
L 286.66074 107.411937 
L 287.474003 122.305433 
L 288.287265 103.323201 
L 289.100528 98.664482 
L 289.913791 101.59598 
L 290.727054 105.121319 
L 291.540317 107.422136 
L 292.35358 111.591046 
L 293.166843 110.460537 
L 294.793369 106.983233 
L 295.606631 121.983442 
L 296.419894 108.907814 
L 297.233157 98.689771 
L 298.04642 102.465584 
L 298.859683 104.283581 
L 299.672946 107.487076 
L 300.486209 108.809455 
L 301.299472 108.749804 
L 302.112735 105.550029 
L 302.925997 105.427994 
L 303.73926 113.092321 
L 304.552523 107.472233 
L 305.365786 103.780043 
L 306.179049 97.117492 
L 306.992312 100.756008 
L 307.805575 105.77145 
L 308.618838 107.146393 
L 309.432101 107.602536 
L 310.245363 107.747728 
L 311.058626 106.50629 
L 311.871889 121.161649 
L 312.685152 107.237815 
L 313.498415 101.49631 
L 314.311678 97.602066 
L 315.938204 103.760483 
L 316.751467 106.126265 
L 317.564729 105.526447 
L 318.377992 106.671438 
L 319.191255 104.842672 
L 320.004518 117.326946 
L 320.817781 105.545305 
L 321.631044 101.16068 
L 322.444307 98.381106 
L 323.25757 99.041513 
L 324.070833 101.768139 
L 324.884095 100.840989 
L 325.697358 106.08879 
L 326.510621 105.025526 
L 327.323884 103.23457 
L 328.137147 111.856172 
L 328.95041 111.591924 
L 329.763673 102.696806 
L 330.576936 97.616763 
L 331.390199 102.160456 
L 332.203461 100.651662 
L 333.016724 101.18101 
L 333.829987 103.41696 
L 334.64325 104.3293 
L 335.456513 104.428323 
L 336.269776 115.606584 
L 337.083039 112.774739 
L 337.896302 100.540993 
L 338.709565 97.180202 
L 339.522827 95.461753 
L 340.33609 101.07967 
L 341.149353 96.662249 
L 341.962616 100.35209 
L 342.775879 99.586388 
L 343.589142 102.319725 
L 344.402405 110.45587 
L 345.215668 103.573955 
L 347.655456 97.519764 
L 348.468719 100.295373 
L 349.281982 96.304512 
L 350.095245 99.490708 
L 350.908508 98.905535 
L 351.721771 103.239158 
L 352.535034 118.917109 
L 353.348297 109.230591 
L 354.974822 98.450729 
L 356.601348 97.295887 
L 357.414611 100.703678 
L 358.227874 98.339014 
L 359.041137 97.631779 
L 359.8544 100.657625 
L 360.667663 122.991066 
L 361.480925 104.922528 
L 362.294188 98.700322 
L 363.107451 95.842311 
L 363.920714 97.687644 
L 364.733977 96.305192 
L 365.54724 94.260031 
L 366.360503 97.986326 
L 367.173766 98.473968 
L 367.987029 98.474863 
L 368.800291 109.365619 
L 369.613554 105.837908 
L 370.426817 105.280133 
L 372.053343 95.438313 
L 373.679869 93.957844 
L 374.493132 92.917485 
L 375.306395 94.972274 
L 376.119657 98.222595 
L 376.93292 115.294746 
L 377.746183 103.831122 
L 378.559446 108.494347 
L 379.372709 104.428883 
L 380.185972 95.952459 
L 380.999235 93.725285 
L 381.812498 94.276921 
L 382.625761 92.839137 
L 383.439024 93.928406 
L 384.252286 94.052428 
L 385.065549 120.125868 
L 385.878812 103.054726 
L 386.692075 97.879714 
L 387.505338 97.81744 
L 388.318601 104.061597 
L 389.131864 92.885556 
L 389.945127 97.972727 
L 390.75839 91.098881 
L 391.571652 89.996273 
L 392.384915 92.768057 
L 393.198178 108.418159 
L 394.011441 104.162176 
L 394.824704 98.911508 
L 395.637967 96.372757 
L 396.45123 96.545419 
L 397.264493 92.643567 
L 398.077756 94.963813 
L 398.891018 95.470261 
L 399.704281 94.604902 
L 400.517544 93.368046 
L 401.330807 106.95123 
L 402.14407 104.727057 
L 402.957333 97.626644 
L 403.770596 99.874525 
L 404.583859 100.590077 
L 405.397122 95.408506 
L 406.210384 95.761994 
L 407.023647 97.699413 
L 407.83691 90.176284 
L 408.650173 92.506729 
L 409.463436 114.497371 
L 410.276699 106.776936 
L 411.089962 101.630245 
L 411.903225 99.170383 
L 412.716488 99.58988 
L 413.52975 95.163877 
L 414.343013 96.194089 
L 415.156276 93.889392 
L 415.969539 97.313699 
L 416.782802 93.357778 
L 417.596065 103.73537 
L 418.409328 106.106629 
L 419.222591 104.70462 
L 420.035854 95.083394 
L 420.849116 94.826653 
L 421.662379 92.774325 
L 422.475642 95.305205 
L 423.288905 89.635937 
L 424.102168 92.021773 
L 424.915431 92.790172 
L 425.728694 104.888111 
L 426.541957 104.716935 
L 427.35522 102.952191 
L 428.168482 100.050642 
L 428.981745 104.234723 
L 429.795008 97.561148 
L 430.608271 96.151474 
L 431.421534 90.709833 
L 432.234797 90.246382 
L 433.04806 92.885085 
L 433.861323 103.951553 
L 434.674586 106.185431 
L 435.487848 102.570902 
L 436.301111 100.93226 
L 437.114374 98.479963 
L 437.927637 96.536547 
L 438.7409 92.515175 
L 439.554163 93.160332 
L 440.367426 89.047227 
L 441.180689 89.272113 
L 441.993952 102.201664 
L 442.807214 102.428124 
L 443.620477 98.131436 
L 444.43374 96.297519 
L 445.247003 98.422711 
L 446.060266 98.574263 
L 446.873529 94.583561 
L 447.686792 96.236107 
L 448.500055 93.521595 
L 449.313318 89.61207 
L 450.12658 105.591167 
L 450.939843 105.304044 
L 451.753106 101.627425 
L 452.566369 106.224212 
L 453.379632 96.055514 
L 454.192895 95.919519 
L 455.006158 92.436021 
L 455.819421 93.59433 
L 456.632684 93.98204 
L 457.445946 88.766577 
L 458.259209 103.674906 
L 459.072472 101.555741 
L 459.885735 95.292677 
L 460.698998 100.457111 
L 461.512261 99.158881 
L 462.325524 101.436549 
L 463.138787 96.478008 
L 463.95205 89.52413 
L 464.765312 93.750973 
L 465.578575 94.849757 
L 466.391838 106.416952 
L 467.205101 106.924054 
L 468.018364 99.427815 
L 468.831627 105.514985 
L 469.64489 96.475066 
L 470.458153 95.755441 
L 471.271416 97.044777 
L 472.084678 94.619202 
L 472.897941 94.065943 
L 473.711204 91.461554 
L 474.524467 104.449949 
L 475.33773 103.396415 
L 476.150993 98.882313 
L 476.964256 104.756904 
L 477.777519 96.923733 
L 478.590782 97.324066 
L 479.404044 94.302279 
L 480.217307 94.817944 
L 481.03057 97.391227 
L 481.843833 87.696446 
L 482.657096 108.960985 
L 483.470359 106.073117 
L 484.283622 101.341494 
L 485.096885 101.674172 
L 485.910148 96.837167 
L 486.72341 101.692497 
L 487.536673 97.385408 
L 488.349936 100.96488 
L 489.163199 96.190074 
L 489.976462 93.71975 
L 490.789725 104.379531 
L 491.602988 104.583012 
L 492.416251 101.698326 
L 493.229514 101.224285 
L 494.042776 96.532703 
L 494.856039 102.176989 
L 495.669302 95.299921 
L 496.482565 97.515802 
L 497.295828 95.046826 
L 498.109091 101.056743 
L 498.109091 101.056743 
" style="fill:none;stroke:#0000ff;stroke-linecap:square;stroke-width:1.5;"/>
   </g>
   <g id="line2d_14">
    <path clip-path="url(#p698b00c0eb)" d="M 92.290909 173.457497 
L 93.104172 136.667783 
L 93.917435 150.603182 
L 94.730698 136.752851 
L 95.543961 139.758612 
L 96.357224 133.61644 
L 97.170486 136.951471 
L 97.983749 133.22817 
L 98.797012 135.51341 
L 99.610275 133.322328 
L 100.423538 217.618759 
L 101.236801 120.13913 
L 102.050064 172.68963 
L 102.863327 126.960033 
L 103.67659 138.55998 
L 104.489852 125.309846 
L 105.303115 129.697524 
L 106.116378 126.181215 
L 106.929641 124.668582 
L 107.742904 122.515186 
L 108.556167 222.27964 
L 109.36943 113.539395 
L 110.182693 167.788004 
L 110.995956 131.342259 
L 111.809218 134.445469 
L 112.622481 127.117927 
L 113.435744 123.926112 
L 114.249007 125.189903 
L 115.875533 121.803765 
L 116.688796 230.124106 
L 117.502059 112.07914 
L 118.315322 156.638705 
L 119.128584 135.740123 
L 119.941847 127.062347 
L 120.75511 128.744131 
L 121.568373 120.396958 
L 122.381636 123.028331 
L 123.194899 120.520267 
L 124.008162 119.004729 
L 124.821425 237.526385 
L 125.634688 109.903895 
L 126.44795 146.987441 
L 127.261213 143.407607 
L 128.074476 119.994557 
L 128.887739 127.700887 
L 129.701002 116.888023 
L 130.514265 119.134794 
L 131.327528 118.558153 
L 132.140791 113.916051 
L 132.954054 242.622003 
L 133.767316 109.06322 
L 134.580579 140.344578 
L 135.393842 147.019546 
L 136.207105 118.169819 
L 137.020368 125.470027 
L 138.646894 113.686238 
L 139.460157 116.696783 
L 140.27342 111.782906 
L 141.086682 251.321654 
L 141.899945 109.822808 
L 143.526471 149.191031 
L 144.339734 117.150635 
L 145.152997 120.210259 
L 145.96626 120.716994 
L 146.779523 112.563476 
L 147.592786 110.04077 
L 148.406048 108.490408 
L 149.219311 253.021399 
L 150.032574 111.68454 
L 150.845837 123.615472 
L 151.6591 150.731593 
L 152.472363 121.369187 
L 153.285626 114.049938 
L 154.098889 115.748557 
L 154.912152 112.191256 
L 155.725414 106.160717 
L 156.538677 106.192244 
L 157.35194 260.563603 
L 158.165203 113.092224 
L 158.978466 120.051247 
L 159.791729 146.213796 
L 160.604992 120.822627 
L 161.418255 113.092014 
L 162.231518 114.393889 
L 163.04478 108.475754 
L 163.858043 105.150217 
L 164.671306 103.140925 
L 165.484569 266.131271 
L 166.297832 114.246868 
L 167.111095 115.878956 
L 167.924358 139.319233 
L 169.550884 109.967908 
L 170.364146 113.112133 
L 171.177409 107.657005 
L 171.990672 103.432676 
L 172.803935 102.731689 
L 173.617198 271.979793 
L 174.430461 124.061855 
L 175.243724 116.674926 
L 176.056987 121.697426 
L 176.87025 129.5803 
L 177.683512 128.815542 
L 178.496775 121.987075 
L 180.123301 113.677098 
L 180.936564 114.22889 
L 181.749827 313.951101 
L 182.56309 207.770036 
L 183.376353 125.473356 
L 184.189616 111.56425 
L 185.002878 116.068255 
L 185.816141 124.35555 
L 186.629404 127.391597 
L 187.442667 121.967949 
L 188.25593 117.856985 
L 189.069193 114.464639 
L 189.882456 314.223095 
L 191.508982 133.203094 
L 192.322244 113.795412 
L 193.135507 113.426236 
L 193.94877 120.974397 
L 194.762033 122.931021 
L 195.575296 121.610674 
L 196.388559 120.661214 
L 197.201822 112.234531 
L 198.015085 314.628338 
L 198.828348 232.649505 
L 199.64161 137.393061 
L 200.454873 114.325811 
L 201.268136 112.705717 
L 202.081399 119.680412 
L 202.894662 117.756369 
L 203.707925 118.822567 
L 204.521188 118.821065 
L 205.334451 109.704193 
L 206.147714 316.057658 
L 206.960976 240.100354 
L 207.774239 150.657869 
L 208.587502 118.450635 
L 209.400765 115.656327 
L 210.214028 114.097294 
L 211.027291 117.234456 
L 211.840554 118.837227 
L 212.653817 116.84854 
L 213.46708 113.232368 
L 214.280343 316.882126 
L 215.093605 250.063648 
L 215.906868 163.283739 
L 216.720131 122.998856 
L 217.533394 112.489891 
L 218.346657 113.878118 
L 219.15992 116.136294 
L 219.973183 117.03585 
L 220.786446 117.540171 
L 221.599709 111.111645 
L 222.412971 318.145729 
L 223.226234 260.245145 
L 224.039497 176.504821 
L 224.85276 129.174858 
L 225.666023 118.199839 
L 226.479286 113.643457 
L 227.292549 116.815499 
L 228.105812 119.368897 
L 228.919075 119.596136 
L 229.732337 114.843263 
L 230.5456 321.023442 
L 231.358863 268.262569 
L 232.172126 186.078335 
L 232.985389 135.7161 
L 233.798652 119.640768 
L 235.425178 115.876628 
L 236.238441 115.644332 
L 237.051703 116.359602 
L 237.864966 113.02371 
L 238.678229 318.89916 
L 239.491492 278.944161 
L 240.304755 203.936065 
L 241.118018 145.211433 
L 241.931281 124.029093 
L 242.744544 114.987142 
L 243.557807 117.361667 
L 244.371069 116.163883 
L 245.184332 115.198831 
L 245.997595 114.653651 
L 246.810858 321.285391 
L 247.624121 282.202881 
L 248.437384 210.761352 
L 249.250647 155.726579 
L 250.06391 133.718142 
L 250.877173 118.412401 
L 251.690435 118.34467 
L 252.503698 115.827609 
L 253.316961 114.137044 
L 254.130224 113.430873 
L 254.943487 320.026011 
L 255.75675 288.875245 
L 257.383276 167.820414 
L 258.196539 137.572663 
L 259.009801 124.81319 
L 259.823064 116.249426 
L 260.636327 116.773604 
L 261.44959 116.168686 
L 262.262853 115.020325 
L 263.076116 319.472466 
L 263.889379 292.095601 
L 265.515905 181.260472 
L 266.329167 145.015412 
L 267.14243 131.441653 
L 267.955693 122.05802 
L 268.768956 118.4892 
L 269.582219 116.203373 
L 270.395482 116.415843 
L 271.208745 319.476091 
L 272.022008 297.699033 
L 273.648533 193.261047 
L 274.461796 156.851752 
L 275.275059 133.744571 
L 276.088322 124.041532 
L 276.901585 119.894243 
L 277.714848 118.778452 
L 278.528111 116.885527 
L 279.341374 322.317802 
L 280.154637 297.280724 
L 280.967899 256.495218 
L 281.781162 203.43022 
L 282.594425 167.432354 
L 283.407688 143.05601 
L 284.220951 130.582066 
L 285.034214 123.468186 
L 285.847477 123.022983 
L 286.66074 120.4509 
L 287.474003 324.152968 
L 288.287265 303.276993 
L 290.727054 173.515095 
L 291.540317 148.690665 
L 293.166843 128.689532 
L 294.793369 119.692826 
L 295.606631 322.726955 
L 296.419894 305.4383 
L 298.859683 187.61809 
L 299.672946 162.889642 
L 300.486209 144.013227 
L 301.299472 133.905732 
L 302.112735 126.277795 
L 302.925997 123.685265 
L 303.73926 323.426339 
L 304.552523 306.775127 
L 305.365786 278.36347 
L 306.992312 199.283766 
L 307.805575 171.823324 
L 308.618838 153.582189 
L 309.432101 140.359897 
L 310.245363 132.646238 
L 311.058626 128.076195 
L 311.871889 323.414074 
L 312.685152 307.035844 
L 313.498415 279.297199 
L 315.938204 182.830186 
L 316.751467 163.441588 
L 317.564729 147.044634 
L 318.377992 136.538611 
L 319.191255 130.980946 
L 320.004518 324.570958 
L 320.817781 309.580948 
L 321.631044 286.826723 
L 323.25757 222.247394 
L 324.884095 170.821481 
L 325.697358 159.396972 
L 326.510621 144.516989 
L 327.323884 136.933605 
L 328.137147 324.530198 
L 328.95041 312.801914 
L 329.763673 289.356738 
L 332.203461 206.14928 
L 333.016724 182.360024 
L 334.64325 153.749689 
L 335.456513 144.029698 
L 336.269776 324.626481 
L 337.083039 315.624876 
L 338.709565 270.530188 
L 339.522827 241.765001 
L 341.149353 192.77958 
L 342.775879 160.822657 
L 343.589142 151.01001 
L 344.402405 326.092029 
L 345.215668 315.254071 
L 346.842193 274.72334 
L 349.281982 205.312595 
L 350.908508 171.821705 
L 351.721771 160.020857 
L 352.535034 326.874698 
L 353.348297 316.199078 
L 354.161559 302.438576 
L 354.974822 282.732448 
L 357.414611 216.472718 
L 359.041137 180.659053 
L 359.8544 169.025943 
L 360.667663 327.890907 
L 361.480925 319.167813 
L 362.294188 306.093938 
L 363.920714 266.883512 
L 364.733977 249.151141 
L 365.54724 227.011387 
L 366.360503 209.805433 
L 367.987029 182.52335 
L 368.800291 327.781379 
L 369.613554 321.78693 
L 370.426817 311.350631 
L 371.24008 295.485927 
L 372.866606 256.039768 
L 374.493132 222.929618 
L 375.306395 206.59184 
L 376.119657 193.372037 
L 376.93292 329.716722 
L 377.746183 321.705621 
L 378.559446 315.019136 
L 379.372709 298.670177 
L 380.185972 279.611431 
L 382.625761 232.320569 
L 384.252286 203.070042 
L 385.065549 333.812688 
L 386.692075 314.056426 
L 387.505338 299.894485 
L 388.318601 287.789048 
L 391.571652 228.788942 
L 392.384915 217.32609 
L 393.198178 329.66729 
L 394.011441 327.94818 
L 397.264493 281.555728 
L 398.077756 266.928194 
L 398.891018 255.706968 
L 399.704281 241.313861 
L 400.517544 229.824552 
L 401.330807 330.950699 
L 402.14407 326.440914 
L 402.957333 319.689569 
L 403.770596 311.087164 
L 404.583859 297.718009 
L 405.397122 288.506421 
L 406.210384 275.503982 
L 407.023647 265.084801 
L 407.83691 251.301324 
L 408.650173 245.521521 
L 409.463436 336.534307 
L 410.276699 327.88293 
L 411.089962 322.665448 
L 411.903225 313.27184 
L 412.716488 306.036385 
L 413.52975 294.427431 
L 414.343013 286.936965 
L 415.156276 272.997715 
L 416.782802 252.230987 
L 417.596065 334.911136 
L 418.409328 331.484089 
L 419.222591 325.517752 
L 420.035854 315.175427 
L 420.849116 308.96337 
L 422.475642 290.183912 
L 423.288905 280.013104 
L 424.102168 271.553112 
L 424.915431 260.812519 
L 425.728694 335.386942 
L 426.541957 334.126929 
L 427.35522 328.380674 
L 428.168482 319.867342 
L 428.981745 315.513963 
L 429.795008 302.903175 
L 431.421534 290.266636 
L 432.234797 280.273745 
L 433.04806 274.181654 
L 433.861323 337.012776 
L 434.674586 334.198602 
L 435.487848 328.190637 
L 436.301111 323.792878 
L 437.114374 316.543639 
L 437.927637 310.298375 
L 438.7409 300.018151 
L 439.554163 296.18898 
L 441.180689 280.141566 
L 441.993952 336.580754 
L 442.807214 337.284609 
L 443.620477 331.941293 
L 444.43374 324.163954 
L 445.247003 320.433615 
L 446.060266 314.086091 
L 447.686792 303.477908 
L 448.500055 295.569915 
L 449.313318 290.010011 
L 450.12658 341.642946 
L 450.939843 339.231597 
L 451.753106 333.43445 
L 452.566369 329.66685 
L 453.379632 322.018645 
L 454.192895 318.645846 
L 455.006158 311.061402 
L 455.819421 307.768409 
L 456.632684 303.374722 
L 457.445946 294.283681 
L 458.259209 340.50056 
L 459.072472 336.947151 
L 459.885735 336.161812 
L 461.512261 326.085438 
L 462.325524 323.433941 
L 465.578575 302.828518 
L 466.391838 343.012213 
L 467.205101 341.750691 
L 468.831627 334.153091 
L 469.64489 331.83538 
L 472.084678 318.13924 
L 472.897941 314.430644 
L 473.711204 307.60502 
L 474.524467 344.895225 
L 475.33773 342.452672 
L 476.150993 338.945189 
L 476.964256 336.018003 
L 477.777519 331.403449 
L 478.590782 330.659249 
L 479.404044 323.398326 
L 480.217307 321.984281 
L 481.843833 313.864184 
L 482.657096 343.254478 
L 483.470359 343.233779 
L 484.283622 340.669009 
L 485.096885 339.562835 
L 485.910148 333.301577 
L 486.72341 332.18427 
L 487.536673 330.247543 
L 489.163199 322.286037 
L 489.976462 319.928597 
L 490.789725 345.761964 
L 491.602988 344.597994 
L 492.416251 340.511347 
L 493.229514 340.90311 
L 494.042776 338.38784 
L 494.856039 333.994134 
L 495.669302 332.756116 
L 496.482565 328.564379 
L 497.295828 325.823079 
L 498.109091 323.650179 
L 498.109091 323.650179 
" style="fill:none;stroke:#008000;stroke-linecap:square;stroke-width:1.5;"/>
   </g>
   <g id="patch_3">
    <path d="M 72 384.48 
L 72 51.84 
" style="fill:none;stroke:#000000;stroke-linecap:square;stroke-linejoin:miter;stroke-width:0.8;"/>
   </g>
   <g id="patch_4">
    <path d="M 518.4 384.48 
L 518.4 51.84 
" style="fill:none;stroke:#000000;stroke-linecap:square;stroke-linejoin:miter;stroke-width:0.8;"/>
   </g>
   <g id="patch_5">
    <path d="M 72 384.48 
L 518.4 384.48 
" style="fill:none;stroke:#000000;stroke-linecap:square;stroke-linejoin:miter;stroke-width:0.8;"/>
   </g>
   <g id="patch_6">
    <path d="M 72 51.84 
L 518.4 51.84 
" style="fill:none;stroke:#000000;stroke-linecap:square;stroke-linejoin:miter;stroke-width:0.8;"/>
   </g>
   <g id="legend_1">
    <g id="patch_7">
     <path d="M 79 89.19625 
L 156.107812 89.19625 
Q 158.107812 89.19625 158.107812 87.19625 
L 158.107812 58.84 
Q 158.107812 56.84 156.107812 56.84 
L 79 56.84 
Q 77 56.84 77 58.84 
L 77 87.19625 
Q 77 89.19625 79 89.19625 
z
" style="fill:#ffffff;opacity:0.8;stroke:#cccccc;stroke-linejoin:miter;"/>
    </g>
    <g id="line2d_15">
     <path d="M 81 64.938437 
L 101 64.938437 
" style="fill:none;stroke:#0000ff;stroke-linecap:square;stroke-width:1.5;"/>
    </g>
    <g id="line2d_16"/>
    <g id="text_15">
     <!-- precision -->
     <g transform="translate(109 68.438437)scale(0.1 -0.1)">
      <defs>
       <path d="M 9.421875 54.6875 
L 18.40625 54.6875 
L 18.40625 0 
L 9.421875 0 
z
M 9.421875 75.984375 
L 18.40625 75.984375 
L 18.40625 64.59375 
L 9.421875 64.59375 
z
" id="DejaVuSans-105"/>
       <path d="M 44.28125 53.078125 
L 44.28125 44.578125 
Q 40.484375 46.53125 36.375 47.5 
Q 32.28125 48.484375 27.875 48.484375 
Q 21.1875 48.484375 17.84375 46.4375 
Q 14.5 44.390625 14.5 40.28125 
Q 14.5 37.15625 16.890625 35.375 
Q 19.28125 33.59375 26.515625 31.984375 
L 29.59375 31.296875 
Q 39.15625 29.25 43.1875 25.515625 
Q 47.21875 21.78125 47.21875 15.09375 
Q 47.21875 7.46875 41.1875 3.015625 
Q 35.15625 -1.421875 24.609375 -1.421875 
Q 20.21875 -1.421875 15.453125 -0.5625 
Q 10.6875 0.296875 5.421875 2 
L 5.421875 11.28125 
Q 10.40625 8.6875 15.234375 7.390625 
Q 20.0625 6.109375 24.8125 6.109375 
Q 31.15625 6.109375 34.5625 8.28125 
Q 37.984375 10.453125 37.984375 14.40625 
Q 37.984375 18.0625 35.515625 20.015625 
Q 33.0625 21.96875 24.703125 23.78125 
L 21.578125 24.515625 
Q 13.234375 26.265625 9.515625 29.90625 
Q 5.8125 33.546875 5.8125 39.890625 
Q 5.8125 47.609375 11.28125 51.796875 
Q 16.75 56 26.8125 56 
Q 31.78125 56 36.171875 55.265625 
Q 40.578125 54.546875 44.28125 53.078125 
z
" id="DejaVuSans-115"/>
       <path d="M 54.890625 33.015625 
L 54.890625 0 
L 45.90625 0 
L 45.90625 32.71875 
Q 45.90625 40.484375 42.875 44.328125 
Q 39.84375 48.1875 33.796875 48.1875 
Q 26.515625 48.1875 22.3125 43.546875 
Q 18.109375 38.921875 18.109375 30.90625 
L 18.109375 0 
L 9.078125 0 
L 9.078125 54.6875 
L 18.109375 54.6875 
L 18.109375 46.1875 
Q 21.34375 51.125 25.703125 53.5625 
Q 30.078125 56 35.796875 56 
Q 45.21875 56 50.046875 50.171875 
Q 54.890625 44.34375 54.890625 33.015625 
z
" id="DejaVuSans-110"/>
      </defs>
      <use xlink:href="#DejaVuSans-112"/>
      <use x="63.476562" xlink:href="#DejaVuSans-114"/>
      <use x="102.339844" xlink:href="#DejaVuSans-101"/>
      <use x="163.863281" xlink:href="#DejaVuSans-99"/>
      <use x="218.84375" xlink:href="#DejaVuSans-105"/>
      <use x="246.626953" xlink:href="#DejaVuSans-115"/>
      <use x="298.726562" xlink:href="#DejaVuSans-105"/>
      <use x="326.509766" xlink:href="#DejaVuSans-111"/>
      <use x="387.691406" xlink:href="#DejaVuSans-110"/>
     </g>
    </g>
    <g id="line2d_17">
     <path d="M 81 79.616562 
L 101 79.616562 
" style="fill:none;stroke:#008000;stroke-linecap:square;stroke-width:1.5;"/>
    </g>
    <g id="line2d_18"/>
    <g id="text_16">
     <!-- recall -->
     <g transform="translate(109 83.116562)scale(0.1 -0.1)">
      <defs>
       <path d="M 9.421875 75.984375 
L 18.40625 75.984375 
L 18.40625 0 
L 9.421875 0 
z
" id="DejaVuSans-108"/>
      </defs>
      <use xlink:href="#DejaVuSans-114"/>
      <use x="38.863281" xlink:href="#DejaVuSans-101"/>
      <use x="100.386719" xlink:href="#DejaVuSans-99"/>
      <use x="155.367188" xlink:href="#DejaVuSans-97"/>
      <use x="216.646484" xlink:href="#DejaVuSans-108"/>
      <use x="244.429688" xlink:href="#DejaVuSans-108"/>
     </g>
    </g>
   </g>
  </g>
  <g id="axes_2">
   <g id="matplotlib.axis_3">
    <g id="ytick_7">
     <g id="line2d_19">
      <defs>
       <path d="M 0 0 
L 3.5 0 
" id="m84f0810c39" style="stroke:#000000;stroke-width:0.8;"/>
      </defs>
      <g>
       <use style="stroke:#000000;stroke-width:0.8;" x="518.4" xlink:href="#m84f0810c39" y="360.731445"/>
      </g>
     </g>
     <g id="text_17">
      <!-- 0.15 -->
      <g transform="translate(525.4 364.530664)scale(0.1 -0.1)">
       <use xlink:href="#DejaVuSans-48"/>
       <use x="63.623047" xlink:href="#DejaVuSans-46"/>
       <use x="95.410156" xlink:href="#DejaVuSans-49"/>
       <use x="159.033203" xlink:href="#DejaVuSans-53"/>
      </g>
     </g>
    </g>
    <g id="ytick_8">
     <g id="line2d_20">
      <g>
       <use style="stroke:#000000;stroke-width:0.8;" x="518.4" xlink:href="#m84f0810c39" y="316.827864"/>
      </g>
     </g>
     <g id="text_18">
      <!-- 0.20 -->
      <g transform="translate(525.4 320.627083)scale(0.1 -0.1)">
       <use xlink:href="#DejaVuSans-48"/>
       <use x="63.623047" xlink:href="#DejaVuSans-46"/>
       <use x="95.410156" xlink:href="#DejaVuSans-50"/>
       <use x="159.033203" xlink:href="#DejaVuSans-48"/>
      </g>
     </g>
    </g>
    <g id="ytick_9">
     <g id="line2d_21">
      <g>
       <use style="stroke:#000000;stroke-width:0.8;" x="518.4" xlink:href="#m84f0810c39" y="272.924283"/>
      </g>
     </g>
     <g id="text_19">
      <!-- 0.25 -->
      <g transform="translate(525.4 276.723502)scale(0.1 -0.1)">
       <use xlink:href="#DejaVuSans-48"/>
       <use x="63.623047" xlink:href="#DejaVuSans-46"/>
       <use x="95.410156" xlink:href="#DejaVuSans-50"/>
       <use x="159.033203" xlink:href="#DejaVuSans-53"/>
      </g>
     </g>
    </g>
    <g id="ytick_10">
     <g id="line2d_22">
      <g>
       <use style="stroke:#000000;stroke-width:0.8;" x="518.4" xlink:href="#m84f0810c39" y="229.020703"/>
      </g>
     </g>
     <g id="text_20">
      <!-- 0.30 -->
      <g transform="translate(525.4 232.819921)scale(0.1 -0.1)">
       <use xlink:href="#DejaVuSans-48"/>
       <use x="63.623047" xlink:href="#DejaVuSans-46"/>
       <use x="95.410156" xlink:href="#DejaVuSans-51"/>
       <use x="159.033203" xlink:href="#DejaVuSans-48"/>
      </g>
     </g>
    </g>
    <g id="ytick_11">
     <g id="line2d_23">
      <g>
       <use style="stroke:#000000;stroke-width:0.8;" x="518.4" xlink:href="#m84f0810c39" y="185.117122"/>
      </g>
     </g>
     <g id="text_21">
      <!-- 0.35 -->
      <g transform="translate(525.4 188.916341)scale(0.1 -0.1)">
       <use xlink:href="#DejaVuSans-48"/>
       <use x="63.623047" xlink:href="#DejaVuSans-46"/>
       <use x="95.410156" xlink:href="#DejaVuSans-51"/>
       <use x="159.033203" xlink:href="#DejaVuSans-53"/>
      </g>
     </g>
    </g>
    <g id="ytick_12">
     <g id="line2d_24">
      <g>
       <use style="stroke:#000000;stroke-width:0.8;" x="518.4" xlink:href="#m84f0810c39" y="141.213541"/>
      </g>
     </g>
     <g id="text_22">
      <!-- 0.40 -->
      <g transform="translate(525.4 145.01276)scale(0.1 -0.1)">
       <use xlink:href="#DejaVuSans-48"/>
       <use x="63.623047" xlink:href="#DejaVuSans-46"/>
       <use x="95.410156" xlink:href="#DejaVuSans-52"/>
       <use x="159.033203" xlink:href="#DejaVuSans-48"/>
      </g>
     </g>
    </g>
    <g id="ytick_13">
     <g id="line2d_25">
      <g>
       <use style="stroke:#000000;stroke-width:0.8;" x="518.4" xlink:href="#m84f0810c39" y="97.309961"/>
      </g>
     </g>
     <g id="text_23">
      <!-- 0.45 -->
      <g transform="translate(525.4 101.109179)scale(0.1 -0.1)">
       <use xlink:href="#DejaVuSans-48"/>
       <use x="63.623047" xlink:href="#DejaVuSans-46"/>
       <use x="95.410156" xlink:href="#DejaVuSans-52"/>
       <use x="159.033203" xlink:href="#DejaVuSans-53"/>
      </g>
     </g>
    </g>
    <g id="ytick_14">
     <g id="line2d_26">
      <g>
       <use style="stroke:#000000;stroke-width:0.8;" x="518.4" xlink:href="#m84f0810c39" y="53.40638"/>
      </g>
     </g>
     <g id="text_24">
      <!-- 0.50 -->
      <g transform="translate(525.4 57.205599)scale(0.1 -0.1)">
       <use xlink:href="#DejaVuSans-48"/>
       <use x="63.623047" xlink:href="#DejaVuSans-46"/>
       <use x="95.410156" xlink:href="#DejaVuSans-53"/>
       <use x="159.033203" xlink:href="#DejaVuSans-48"/>
      </g>
     </g>
    </g>
    <g id="text_25">
     <!-- loss -->
     <g transform="translate(559.264063 227.817812)rotate(-90)scale(0.1 -0.1)">
      <use xlink:href="#DejaVuSans-108"/>
      <use x="27.783203" xlink:href="#DejaVuSans-111"/>
      <use x="88.964844" xlink:href="#DejaVuSans-115"/>
      <use x="141.064453" xlink:href="#DejaVuSans-115"/>
     </g>
    </g>
   </g>
   <g id="line2d_27">
    <path clip-path="url(#p698b00c0eb)" d="M 92.290909 66.96 
L 93.104172 240.56155 
L 93.917435 247.415613 
L 94.730698 256.815734 
L 96.357224 270.394239 
L 97.170486 273.017502 
L 97.983749 276.479593 
L 98.797012 278.960809 
L 99.610275 282.342816 
L 100.423538 235.524672 
L 102.050064 279.753211 
L 102.863327 289.097692 
L 103.67659 294.839965 
L 104.489852 296.417274 
L 105.303115 300.692911 
L 106.116378 302.072339 
L 107.742904 306.543179 
L 108.556167 241.26624 
L 110.182693 287.947691 
L 110.995956 299.822322 
L 112.622481 308.735742 
L 113.435744 311.169347 
L 114.249007 314.620907 
L 115.06227 315.78349 
L 115.875533 318.265332 
L 116.688796 244.08732 
L 118.315322 296.730217 
L 119.128584 307.811061 
L 119.941847 314.692177 
L 121.568373 320.942116 
L 122.381636 323.286238 
L 123.194899 326.119272 
L 124.008162 329.535357 
L 124.821425 246.640712 
L 125.634688 278.609213 
L 126.44795 303.26077 
L 128.074476 322.566304 
L 128.887739 326.307378 
L 129.701002 330.676961 
L 130.514265 333.907604 
L 131.327528 334.908391 
L 132.140791 337.902748 
L 132.954054 248.274927 
L 133.767316 286.571229 
L 134.580579 309.354758 
L 135.393842 322.456558 
L 136.207105 329.039928 
L 137.020368 334.516249 
L 138.646894 342.501008 
L 139.460157 343.913416 
L 140.27342 345.817854 
L 141.086682 247.352686 
L 141.899945 292.276738 
L 142.713208 314.894241 
L 143.526471 326.966841 
L 145.152997 342.153131 
L 145.96626 345.971394 
L 146.779523 348.415603 
L 147.592786 352.526408 
L 148.406048 355.807567 
L 149.219311 245.916926 
L 150.032574 294.472887 
L 150.845837 317.641109 
L 151.6591 330.556768 
L 152.472363 340.081092 
L 153.285626 347.482636 
L 154.098889 351.011007 
L 154.912152 353.448569 
L 155.725414 357.809741 
L 156.538677 359.450002 
L 157.35194 243.302865 
L 158.165203 298.453779 
L 158.978466 317.921513 
L 159.791729 332.998712 
L 160.604992 344.108432 
L 161.418255 351.727331 
L 162.231518 354.658971 
L 163.04478 358.677653 
L 163.858043 361.462007 
L 164.671306 366.358995 
L 165.484569 239.033142 
L 166.297832 300.474363 
L 167.924358 338.479901 
L 168.737621 348.426276 
L 169.550884 353.106588 
L 170.364146 358.619935 
L 171.177409 363.136215 
L 172.803935 369.36 
L 173.617198 235.336157 
L 174.430461 308.72516 
L 175.243724 316.134272 
L 176.056987 328.764838 
L 176.87025 335.672847 
L 178.496775 345.162985 
L 179.310038 347.813909 
L 180.123301 353.641119 
L 180.936564 354.599502 
L 181.749827 200.455035 
L 182.56309 288.511316 
L 183.376353 315.773837 
L 184.189616 323.811917 
L 185.816141 344.400575 
L 186.629404 346.700508 
L 188.25593 355.472765 
L 189.069193 357.582515 
L 189.882456 195.553733 
L 190.695719 287.058486 
L 191.508982 319.495208 
L 192.322244 325.630068 
L 193.135507 336.662258 
L 194.762033 349.926364 
L 196.388559 356.104761 
L 197.201822 359.243629 
L 198.015085 191.625916 
L 198.828348 278.062231 
L 199.64161 319.504694 
L 200.454873 326.142214 
L 201.268136 337.70118 
L 202.081399 343.154871 
L 202.894662 351.59998 
L 203.707925 357.110486 
L 204.521188 356.097532 
L 205.334451 363.457099 
L 206.147714 187.48573 
L 206.960976 271.427286 
L 207.774239 317.227202 
L 210.214028 345.080673 
L 211.840554 356.035784 
L 212.653817 358.914067 
L 213.46708 363.579931 
L 214.280343 182.367258 
L 215.093605 265.968652 
L 215.906868 316.371323 
L 216.720131 329.195608 
L 217.533394 335.519104 
L 219.15992 351.725419 
L 219.973183 356.157355 
L 220.786446 359.051569 
L 221.599709 364.476104 
L 222.412971 179.620572 
L 223.226234 259.331165 
L 224.039497 309.797782 
L 224.85276 328.688746 
L 225.666023 333.412182 
L 226.479286 345.083876 
L 227.292549 348.488769 
L 228.105812 353.352366 
L 228.919075 355.421906 
L 229.732337 362.287814 
L 230.5456 175.416375 
L 231.358863 252.874246 
L 232.172126 306.430073 
L 232.985389 327.280762 
L 233.798652 336.040172 
L 236.238441 354.759119 
L 237.051703 358.496091 
L 237.864966 363.614235 
L 238.678229 172.159097 
L 239.491492 243.979339 
L 240.304755 301.521963 
L 241.118018 326.780591 
L 241.931281 337.277041 
L 242.744544 343.801365 
L 243.557807 346.855297 
L 244.371069 354.723722 
L 245.184332 357.212295 
L 245.997595 361.140481 
L 246.810858 174.400347 
L 248.437384 294.030509 
L 249.250647 323.266493 
L 250.06391 331.779781 
L 250.877173 341.55742 
L 252.503698 352.719182 
L 254.130224 360.745111 
L 254.943487 170.668097 
L 256.570013 289.457117 
L 257.383276 319.432892 
L 258.196539 333.999841 
L 259.823064 349.213697 
L 260.636327 352.058618 
L 261.44959 358.140173 
L 262.262853 360.03363 
L 263.076116 167.264308 
L 264.702642 282.731949 
L 265.515905 314.996091 
L 266.329167 330.580005 
L 267.14243 339.906814 
L 268.768956 352.305843 
L 269.582219 355.679273 
L 270.395482 358.024242 
L 271.208745 166.001043 
L 272.835271 275.987233 
L 273.648533 311.906819 
L 274.461796 327.705469 
L 275.275059 336.090864 
L 276.088322 345.937186 
L 276.901585 350.436276 
L 277.714848 353.221474 
L 278.528111 356.764668 
L 279.341374 166.19751 
L 280.967899 270.248802 
L 281.781162 308.902099 
L 283.407688 336.82169 
L 284.220951 343.006127 
L 285.034214 347.636519 
L 286.66074 354.418278 
L 287.474003 159.74907 
L 289.100528 263.197989 
L 289.913791 299.592536 
L 290.727054 322.850894 
L 291.540317 334.550863 
L 293.166843 345.220526 
L 293.980106 348.965704 
L 294.793369 354.658231 
L 295.606631 162.271809 
L 298.04642 293.257824 
L 298.859683 315.541702 
L 300.486209 339.084593 
L 301.299472 344.085172 
L 302.112735 350.20502 
L 302.925997 351.47236 
L 303.73926 161.609767 
L 306.179049 289.521099 
L 306.992312 311.435941 
L 308.618838 336.086131 
L 309.432101 337.803386 
L 310.245363 346.877807 
L 311.058626 349.400429 
L 311.871889 155.128168 
L 313.498415 246.526326 
L 314.311678 282.450416 
L 315.124941 304.605798 
L 315.938204 321.199243 
L 316.751467 331.561218 
L 318.377992 346.384384 
L 319.191255 349.263025 
L 320.004518 156.080851 
L 321.631044 237.555932 
L 322.444307 274.263998 
L 323.25757 302.337791 
L 324.884095 328.8733 
L 325.697358 333.942967 
L 326.510621 341.938014 
L 327.323884 346.395265 
L 328.137147 155.60407 
L 330.576936 268.767373 
L 331.390199 292.455625 
L 332.203461 309.917114 
L 333.016724 324.117365 
L 333.829987 332.09402 
L 334.64325 336.680255 
L 335.456513 344.124186 
L 336.269776 153.483418 
L 337.896302 227.816009 
L 338.709565 260.00434 
L 339.522827 284.378795 
L 340.33609 303.59347 
L 341.149353 318.433776 
L 342.775879 336.913408 
L 343.589142 339.853174 
L 344.402405 153.126593 
L 346.842193 252.663648 
L 347.655456 276.158714 
L 348.468719 293.436968 
L 349.281982 314.735241 
L 350.095245 322.065533 
L 350.908508 332.100413 
L 351.721771 335.212346 
L 352.535034 148.726203 
L 354.161559 216.704836 
L 354.974822 247.517271 
L 355.788085 273.462478 
L 356.601348 291.444058 
L 358.227874 317.744936 
L 359.041137 325.916914 
L 359.8544 331.325514 
L 360.667663 148.344659 
L 363.107451 240.261315 
L 364.733977 283.212635 
L 365.54724 300.268063 
L 366.360503 311.516572 
L 367.173766 319.857366 
L 367.987029 329.6673 
L 368.800291 147.325844 
L 371.24008 233.618305 
L 372.866606 276.890437 
L 374.493132 304.09086 
L 375.306395 315.157525 
L 376.119657 320.718096 
L 376.93292 144.018974 
L 379.372709 227.098457 
L 380.185972 252.011701 
L 381.812498 283.954375 
L 382.625761 297.866882 
L 383.439024 305.935888 
L 384.252286 315.277923 
L 385.065549 141.797 
L 387.505338 223.109928 
L 388.318601 242.618151 
L 389.945127 276.088991 
L 390.75839 286.853231 
L 391.571652 301.982562 
L 392.384915 306.935644 
L 393.198178 139.126262 
L 394.824704 189.774623 
L 395.637967 214.92184 
L 396.45123 234.72868 
L 397.264493 251.755108 
L 398.077756 266.400898 
L 399.704281 290.48905 
L 400.517544 301.25409 
L 401.330807 137.442668 
L 402.957333 187.47346 
L 403.770596 204.601786 
L 404.583859 225.638139 
L 406.210384 259.824601 
L 407.83691 284.782857 
L 408.650173 292.08281 
L 409.463436 133.001063 
L 411.089962 178.947634 
L 413.52975 234.999508 
L 414.343013 247.220209 
L 415.156276 264.271111 
L 416.782802 284.195834 
L 417.596065 132.23099 
L 419.222591 169.596196 
L 420.849116 213.057689 
L 421.662379 225.330554 
L 423.288905 254.566395 
L 424.102168 265.48079 
L 424.915431 272.837728 
L 425.728694 125.698667 
L 426.541957 143.457975 
L 427.35522 166.616005 
L 428.981745 202.675056 
L 429.795008 218.954591 
L 432.234797 255.744507 
L 433.04806 263.405216 
L 433.861323 123.402822 
L 436.301111 179.851356 
L 438.7409 222.544569 
L 440.367426 247.715783 
L 441.180689 256.976095 
L 441.993952 119.51132 
L 442.807214 136.13872 
L 443.620477 155.155315 
L 444.43374 171.480435 
L 445.247003 185.379915 
L 446.060266 201.255833 
L 446.873529 214.180825 
L 448.500055 233.071362 
L 449.313318 245.706776 
L 450.12658 117.128815 
L 450.939843 130.948661 
L 451.753106 149.173068 
L 455.006158 206.78065 
L 455.819421 214.594769 
L 456.632684 224.433175 
L 457.445946 237.177901 
L 458.259209 111.495932 
L 460.698998 157.089722 
L 461.512261 168.580735 
L 463.138787 195.467603 
L 463.95205 206.801971 
L 464.765312 216.167975 
L 465.578575 224.187612 
L 466.391838 107.092225 
L 467.205101 122.424772 
L 468.018364 133.598792 
L 468.831627 149.815519 
L 470.458153 174.325747 
L 472.084678 195.291128 
L 472.897941 204.210144 
L 473.711204 215.388282 
L 474.524467 104.439007 
L 475.33773 116.568209 
L 476.150993 132.286091 
L 476.964256 142.224265 
L 477.777519 155.712515 
L 478.590782 164.004185 
L 479.404044 177.827773 
L 480.217307 181.671292 
L 481.03057 196.110587 
L 481.843833 205.83551 
L 482.657096 100.335784 
L 483.470359 112.201332 
L 484.283622 126.203265 
L 485.910148 145.186056 
L 486.72341 158.637635 
L 487.536673 167.73056 
L 488.349936 174.864378 
L 489.163199 184.012074 
L 489.976462 194.702329 
L 490.789725 96.803034 
L 491.602988 105.048859 
L 492.416251 118.943243 
L 494.042776 140.887855 
L 495.669302 157.959712 
L 496.482565 165.191718 
L 497.295828 175.214753 
L 498.109091 181.058287 
L 498.109091 181.058287 
" style="fill:none;stroke:#ff0000;stroke-linecap:square;stroke-width:1.5;"/>
   </g>
   <g id="patch_8">
    <path d="M 72 384.48 
L 72 51.84 
" style="fill:none;stroke:#000000;stroke-linecap:square;stroke-linejoin:miter;stroke-width:0.8;"/>
   </g>
   <g id="patch_9">
    <path d="M 518.4 384.48 
L 518.4 51.84 
" style="fill:none;stroke:#000000;stroke-linecap:square;stroke-linejoin:miter;stroke-width:0.8;"/>
   </g>
   <g id="patch_10">
    <path d="M 72 384.48 
L 518.4 384.48 
" style="fill:none;stroke:#000000;stroke-linecap:square;stroke-linejoin:miter;stroke-width:0.8;"/>
   </g>
   <g id="patch_11">
    <path d="M 72 51.84 
L 518.4 51.84 
" style="fill:none;stroke:#000000;stroke-linecap:square;stroke-linejoin:miter;stroke-width:0.8;"/>
   </g>
   <g id="text_26">
    <!-- The learning curve on _non_iid_agg_modify/host/6 -->
    <g transform="translate(141.023438 45.84)scale(0.12 -0.12)">
     <defs>
      <path d="M -0.296875 72.90625 
L 61.375 72.90625 
L 61.375 64.59375 
L 35.5 64.59375 
L 35.5 0 
L 25.59375 0 
L 25.59375 64.59375 
L -0.296875 64.59375 
z
" id="DejaVuSans-84"/>
      <path id="DejaVuSans-32"/>
      <path d="M 45.40625 27.984375 
Q 45.40625 37.75 41.375 43.109375 
Q 37.359375 48.484375 30.078125 48.484375 
Q 22.859375 48.484375 18.828125 43.109375 
Q 14.796875 37.75 14.796875 27.984375 
Q 14.796875 18.265625 18.828125 12.890625 
Q 22.859375 7.515625 30.078125 7.515625 
Q 37.359375 7.515625 41.375 12.890625 
Q 45.40625 18.265625 45.40625 27.984375 
z
M 54.390625 6.78125 
Q 54.390625 -7.171875 48.1875 -13.984375 
Q 42 -20.796875 29.203125 -20.796875 
Q 24.46875 -20.796875 20.265625 -20.09375 
Q 16.0625 -19.390625 12.109375 -17.921875 
L 12.109375 -9.1875 
Q 16.0625 -11.328125 19.921875 -12.34375 
Q 23.78125 -13.375 27.78125 -13.375 
Q 36.625 -13.375 41.015625 -8.765625 
Q 45.40625 -4.15625 45.40625 5.171875 
L 45.40625 9.625 
Q 42.625 4.78125 38.28125 2.390625 
Q 33.9375 0 27.875 0 
Q 17.828125 0 11.671875 7.65625 
Q 5.515625 15.328125 5.515625 27.984375 
Q 5.515625 40.671875 11.671875 48.328125 
Q 17.828125 56 27.875 56 
Q 33.9375 56 38.28125 53.609375 
Q 42.625 51.21875 45.40625 46.390625 
L 45.40625 54.6875 
L 54.390625 54.6875 
z
" id="DejaVuSans-103"/>
      <path d="M 8.5 21.578125 
L 8.5 54.6875 
L 17.484375 54.6875 
L 17.484375 21.921875 
Q 17.484375 14.15625 20.5 10.265625 
Q 23.53125 6.390625 29.59375 6.390625 
Q 36.859375 6.390625 41.078125 11.03125 
Q 45.3125 15.671875 45.3125 23.6875 
L 45.3125 54.6875 
L 54.296875 54.6875 
L 54.296875 0 
L 45.3125 0 
L 45.3125 8.40625 
Q 42.046875 3.421875 37.71875 1 
Q 33.40625 -1.421875 27.6875 -1.421875 
Q 18.265625 -1.421875 13.375 4.4375 
Q 8.5 10.296875 8.5 21.578125 
z
M 31.109375 56 
z
" id="DejaVuSans-117"/>
      <path d="M 2.984375 54.6875 
L 12.5 54.6875 
L 29.59375 8.796875 
L 46.6875 54.6875 
L 56.203125 54.6875 
L 35.6875 0 
L 23.484375 0 
z
" id="DejaVuSans-118"/>
      <path d="M 30.953125 67.4375 
L 56.203125 0 
L 46.6875 0 
L 31.34375 40.4375 
L 12.5 0 
L 2.984375 0 
L 26.953125 52.4375 
L 23.34375 62.109375 
Q 21.046875 68.265625 15.828125 68.265625 
L 11.140625 68.265625 
L 11.140625 75.984375 
L 16.84375 75.875 
Q 27.875 75.734375 30.953125 67.4375 
z
" id="DejaVuSans-955"/>
      <path d="M 50.984375 -16.609375 
L 50.984375 -23.578125 
L -0.984375 -23.578125 
L -0.984375 -16.609375 
z
" id="DejaVuSans-95"/>
      <path d="M 45.40625 46.390625 
L 45.40625 75.984375 
L 54.390625 75.984375 
L 54.390625 0 
L 45.40625 0 
L 45.40625 8.203125 
Q 42.578125 3.328125 38.25 0.953125 
Q 33.9375 -1.421875 27.875 -1.421875 
Q 17.96875 -1.421875 11.734375 6.484375 
Q 5.515625 14.40625 5.515625 27.296875 
Q 5.515625 40.1875 11.734375 48.09375 
Q 17.96875 56 27.875 56 
Q 33.9375 56 38.25 53.625 
Q 42.578125 51.265625 45.40625 46.390625 
z
M 14.796875 27.296875 
Q 14.796875 17.390625 18.875 11.75 
Q 22.953125 6.109375 30.078125 6.109375 
Q 37.203125 6.109375 41.296875 11.75 
Q 45.40625 17.390625 45.40625 27.296875 
Q 45.40625 37.203125 41.296875 42.84375 
Q 37.203125 48.484375 30.078125 48.484375 
Q 22.953125 48.484375 18.875 42.84375 
Q 14.796875 37.203125 14.796875 27.296875 
z
" id="DejaVuSans-100"/>
      <path d="M 52 44.1875 
Q 55.375 50.25 60.0625 53.125 
Q 64.75 56 71.09375 56 
Q 79.640625 56 84.28125 50.015625 
Q 88.921875 44.046875 88.921875 33.015625 
L 88.921875 0 
L 79.890625 0 
L 79.890625 32.71875 
Q 79.890625 40.578125 77.09375 44.375 
Q 74.3125 48.1875 68.609375 48.1875 
Q 61.625 48.1875 57.5625 43.546875 
Q 53.515625 38.921875 53.515625 30.90625 
L 53.515625 0 
L 44.484375 0 
L 44.484375 32.71875 
Q 44.484375 40.625 41.703125 44.40625 
Q 38.921875 48.1875 33.109375 48.1875 
Q 26.21875 48.1875 22.15625 43.53125 
Q 18.109375 38.875 18.109375 30.90625 
L 18.109375 0 
L 9.078125 0 
L 9.078125 54.6875 
L 18.109375 54.6875 
L 18.109375 46.1875 
Q 21.1875 51.21875 25.484375 53.609375 
Q 29.78125 56 35.6875 56 
Q 41.65625 56 45.828125 52.96875 
Q 50 49.953125 52 44.1875 
z
" id="DejaVuSans-109"/>
      <path d="M 37.109375 75.984375 
L 37.109375 68.5 
L 28.515625 68.5 
Q 23.6875 68.5 21.796875 66.546875 
Q 19.921875 64.59375 19.921875 59.515625 
L 19.921875 54.6875 
L 34.71875 54.6875 
L 34.71875 47.703125 
L 19.921875 47.703125 
L 19.921875 0 
L 10.890625 0 
L 10.890625 47.703125 
L 2.296875 47.703125 
L 2.296875 54.6875 
L 10.890625 54.6875 
L 10.890625 58.5 
Q 10.890625 67.625 15.140625 71.796875 
Q 19.390625 75.984375 28.609375 75.984375 
z
" id="DejaVuSans-102"/>
      <path d="M 32.171875 -5.078125 
Q 28.375 -14.84375 24.75 -17.8125 
Q 21.140625 -20.796875 15.09375 -20.796875 
L 7.90625 -20.796875 
L 7.90625 -13.28125 
L 13.1875 -13.28125 
Q 16.890625 -13.28125 18.9375 -11.515625 
Q 21 -9.765625 23.484375 -3.21875 
L 25.09375 0.875 
L 2.984375 54.6875 
L 12.5 54.6875 
L 29.59375 11.921875 
L 46.6875 54.6875 
L 56.203125 54.6875 
z
" id="DejaVuSans-121"/>
      <path d="M 25.390625 72.90625 
L 33.6875 72.90625 
L 8.296875 -9.28125 
L 0 -9.28125 
z
" id="DejaVuSans-47"/>
     </defs>
     <use xlink:href="#DejaVuSans-84"/>
     <use x="61.083984" xlink:href="#DejaVuSans-104"/>
     <use x="124.462891" xlink:href="#DejaVuSans-101"/>
     <use x="185.986328" xlink:href="#DejaVuSans-32"/>
     <use x="217.773438" xlink:href="#DejaVuSans-108"/>
     <use x="245.556641" xlink:href="#DejaVuSans-101"/>
     <use x="307.080078" xlink:href="#DejaVuSans-97"/>
     <use x="368.359375" xlink:href="#DejaVuSans-114"/>
     <use x="407.722656" xlink:href="#DejaVuSans-110"/>
     <use x="471.101562" xlink:href="#DejaVuSans-105"/>
     <use x="498.884766" xlink:href="#DejaVuSans-110"/>
     <use x="562.263672" xlink:href="#DejaVuSans-103"/>
     <use x="625.740234" xlink:href="#DejaVuSans-32"/>
     <use x="657.527344" xlink:href="#DejaVuSans-99"/>
     <use x="712.507812" xlink:href="#DejaVuSans-117"/>
     <use x="775.886719" xlink:href="#DejaVuSans-114"/>
     <use x="817" xlink:href="#DejaVuSans-118"/>
     <use x="876.179688" xlink:href="#DejaVuSans-101"/>
     <use x="937.703125" xlink:href="#DejaVuSans-32"/>
     <use x="969.490234" xlink:href="#DejaVuSans-111"/>
     <use x="1030.671875" xlink:href="#DejaVuSans-110"/>
     <use x="1094.050781" xlink:href="#DejaVuSans-32"/>
     <use x="1125.837891" xlink:href="#DejaVuSans-955"/>
     <use x="1185.017578" xlink:href="#DejaVuSans-95"/>
     <use x="1235.017578" xlink:href="#DejaVuSans-110"/>
     <use x="1298.396484" xlink:href="#DejaVuSans-111"/>
     <use x="1359.578125" xlink:href="#DejaVuSans-110"/>
     <use x="1422.957031" xlink:href="#DejaVuSans-95"/>
     <use x="1472.957031" xlink:href="#DejaVuSans-105"/>
     <use x="1500.740234" xlink:href="#DejaVuSans-105"/>
     <use x="1528.523438" xlink:href="#DejaVuSans-100"/>
     <use x="1592" xlink:href="#DejaVuSans-95"/>
     <use x="1642" xlink:href="#DejaVuSans-97"/>
     <use x="1703.279297" xlink:href="#DejaVuSans-103"/>
     <use x="1766.755859" xlink:href="#DejaVuSans-103"/>
     <use x="1830.232422" xlink:href="#DejaVuSans-95"/>
     <use x="1880.232422" xlink:href="#DejaVuSans-109"/>
     <use x="1977.644531" xlink:href="#DejaVuSans-111"/>
     <use x="2038.826172" xlink:href="#DejaVuSans-100"/>
     <use x="2102.302734" xlink:href="#DejaVuSans-105"/>
     <use x="2130.085938" xlink:href="#DejaVuSans-102"/>
     <use x="2163.541016" xlink:href="#DejaVuSans-121"/>
     <use x="2222.720703" xlink:href="#DejaVuSans-47"/>
     <use x="2256.412109" xlink:href="#DejaVuSans-104"/>
     <use x="2319.791016" xlink:href="#DejaVuSans-111"/>
     <use x="2380.972656" xlink:href="#DejaVuSans-115"/>
     <use x="2433.072266" xlink:href="#DejaVuSans-116"/>
     <use x="2472.28125" xlink:href="#DejaVuSans-47"/>
     <use x="2505.972656" xlink:href="#DejaVuSans-54"/>
    </g>
   </g>
   <g id="legend_2">
    <g id="patch_12">
     <path d="M 460.084375 74.518125 
L 511.4 74.518125 
Q 513.4 74.518125 513.4 72.518125 
L 513.4 58.84 
Q 513.4 56.84 511.4 56.84 
L 460.084375 56.84 
Q 458.084375 56.84 458.084375 58.84 
L 458.084375 72.518125 
Q 458.084375 74.518125 460.084375 74.518125 
z
" style="fill:#ffffff;opacity:0.8;stroke:#cccccc;stroke-linejoin:miter;"/>
    </g>
    <g id="line2d_28">
     <path d="M 462.084375 64.938438 
L 482.084375 64.938438 
" style="fill:none;stroke:#ff0000;stroke-linecap:square;stroke-width:1.5;"/>
    </g>
    <g id="line2d_29"/>
    <g id="text_27">
     <!-- loss -->
     <g transform="translate(490.084375 68.438438)scale(0.1 -0.1)">
      <use xlink:href="#DejaVuSans-108"/>
      <use x="27.783203" xlink:href="#DejaVuSans-111"/>
      <use x="88.964844" xlink:href="#DejaVuSans-115"/>
      <use x="141.064453" xlink:href="#DejaVuSans-115"/>
     </g>
    </g>
   </g>
  </g>
 </g>
 <defs>
  <clipPath id="p698b00c0eb">
   <rect height="332.64" width="446.4" x="72" y="51.84"/>
  </clipPath>
 </defs>
</svg>
