<?xml version="1.0" encoding="utf-8" standalone="no"?>
<!DOCTYPE svg PUBLIC "-//W3C//DTD SVG 1.1//EN"
  "http://www.w3.org/Graphics/SVG/1.1/DTD/svg11.dtd">
<!-- Created with matplotlib (https://matplotlib.org/) -->
<svg height="432pt" version="1.1" viewBox="0 0 576 432" width="576pt" xmlns="http://www.w3.org/2000/svg" xmlns:xlink="http://www.w3.org/1999/xlink">
 <metadata>
  <rdf:RDF xmlns:cc="http://creativecommons.org/ns#" xmlns:dc="http://purl.org/dc/elements/1.1/" xmlns:rdf="http://www.w3.org/1999/02/22-rdf-syntax-ns#">
   <cc:Work>
    <dc:type rdf:resource="http://purl.org/dc/dcmitype/StillImage"/>
    <dc:date>2023-04-18T10:01:56.412447</dc:date>
    <dc:format>image/svg+xml</dc:format>
    <dc:creator>
     <cc:Agent>
      <dc:title>Matplotlib v3.3.4, https://matplotlib.org/</dc:title>
     </cc:Agent>
    </dc:creator>
   </cc:Work>
  </rdf:RDF>
 </metadata>
 <defs>
  <style type="text/css">*{stroke-linecap:butt;stroke-linejoin:round;}</style>
 </defs>
 <g id="figure_1">
  <g id="patch_1">
   <path d="M 0 432 
L 576 432 
L 576 0 
L 0 0 
z
" style="fill:#ffffff;"/>
  </g>
  <g id="axes_1">
   <g id="patch_2">
    <path d="M 72 384.48 
L 518.4 384.48 
L 518.4 51.84 
L 72 51.84 
z
" style="fill:#ffffff;"/>
   </g>
   <g id="matplotlib.axis_1">
    <g id="xtick_1">
     <g id="line2d_1">
      <defs>
       <path d="M 0 0 
L 0 3.5 
" id="mbe9ee2691e" style="stroke:#000000;stroke-width:0.8;"/>
      </defs>
      <g>
       <use style="stroke:#000000;stroke-width:0.8;" x="92.290909" xlink:href="#mbe9ee2691e" y="384.48"/>
      </g>
     </g>
     <g id="text_1">
      <!-- 0 -->
      <g transform="translate(89.109659 399.078438)scale(0.1 -0.1)">
       <defs>
        <path d="M 31.78125 66.40625 
Q 24.171875 66.40625 20.328125 58.90625 
Q 16.5 51.421875 16.5 36.375 
Q 16.5 21.390625 20.328125 13.890625 
Q 24.171875 6.390625 31.78125 6.390625 
Q 39.453125 6.390625 43.28125 13.890625 
Q 47.125 21.390625 47.125 36.375 
Q 47.125 51.421875 43.28125 58.90625 
Q 39.453125 66.40625 31.78125 66.40625 
z
M 31.78125 74.21875 
Q 44.046875 74.21875 50.515625 64.515625 
Q 56.984375 54.828125 56.984375 36.375 
Q 56.984375 17.96875 50.515625 8.265625 
Q 44.046875 -1.421875 31.78125 -1.421875 
Q 19.53125 -1.421875 13.0625 8.265625 
Q 6.59375 17.96875 6.59375 36.375 
Q 6.59375 54.828125 13.0625 64.515625 
Q 19.53125 74.21875 31.78125 74.21875 
z
" id="DejaVuSans-48"/>
       </defs>
       <use xlink:href="#DejaVuSans-48"/>
      </g>
     </g>
    </g>
    <g id="xtick_2">
     <g id="line2d_2">
      <g>
       <use style="stroke:#000000;stroke-width:0.8;" x="173.617198" xlink:href="#mbe9ee2691e" y="384.48"/>
      </g>
     </g>
     <g id="text_2">
      <!-- 100 -->
      <g transform="translate(164.073448 399.078438)scale(0.1 -0.1)">
       <defs>
        <path d="M 12.40625 8.296875 
L 28.515625 8.296875 
L 28.515625 63.921875 
L 10.984375 60.40625 
L 10.984375 69.390625 
L 28.421875 72.90625 
L 38.28125 72.90625 
L 38.28125 8.296875 
L 54.390625 8.296875 
L 54.390625 0 
L 12.40625 0 
z
" id="DejaVuSans-49"/>
       </defs>
       <use xlink:href="#DejaVuSans-49"/>
       <use x="63.623047" xlink:href="#DejaVuSans-48"/>
       <use x="127.246094" xlink:href="#DejaVuSans-48"/>
      </g>
     </g>
    </g>
    <g id="xtick_3">
     <g id="line2d_3">
      <g>
       <use style="stroke:#000000;stroke-width:0.8;" x="254.943487" xlink:href="#mbe9ee2691e" y="384.48"/>
      </g>
     </g>
     <g id="text_3">
      <!-- 200 -->
      <g transform="translate(245.399737 399.078438)scale(0.1 -0.1)">
       <defs>
        <path d="M 19.1875 8.296875 
L 53.609375 8.296875 
L 53.609375 0 
L 7.328125 0 
L 7.328125 8.296875 
Q 12.9375 14.109375 22.625 23.890625 
Q 32.328125 33.6875 34.8125 36.53125 
Q 39.546875 41.84375 41.421875 45.53125 
Q 43.3125 49.21875 43.3125 52.78125 
Q 43.3125 58.59375 39.234375 62.25 
Q 35.15625 65.921875 28.609375 65.921875 
Q 23.96875 65.921875 18.8125 64.3125 
Q 13.671875 62.703125 7.8125 59.421875 
L 7.8125 69.390625 
Q 13.765625 71.78125 18.9375 73 
Q 24.125 74.21875 28.421875 74.21875 
Q 39.75 74.21875 46.484375 68.546875 
Q 53.21875 62.890625 53.21875 53.421875 
Q 53.21875 48.921875 51.53125 44.890625 
Q 49.859375 40.875 45.40625 35.40625 
Q 44.1875 33.984375 37.640625 27.21875 
Q 31.109375 20.453125 19.1875 8.296875 
z
" id="DejaVuSans-50"/>
       </defs>
       <use xlink:href="#DejaVuSans-50"/>
       <use x="63.623047" xlink:href="#DejaVuSans-48"/>
       <use x="127.246094" xlink:href="#DejaVuSans-48"/>
      </g>
     </g>
    </g>
    <g id="xtick_4">
     <g id="line2d_4">
      <g>
       <use style="stroke:#000000;stroke-width:0.8;" x="336.269776" xlink:href="#mbe9ee2691e" y="384.48"/>
      </g>
     </g>
     <g id="text_4">
      <!-- 300 -->
      <g transform="translate(326.726026 399.078438)scale(0.1 -0.1)">
       <defs>
        <path d="M 40.578125 39.3125 
Q 47.65625 37.796875 51.625 33 
Q 55.609375 28.21875 55.609375 21.1875 
Q 55.609375 10.40625 48.1875 4.484375 
Q 40.765625 -1.421875 27.09375 -1.421875 
Q 22.515625 -1.421875 17.65625 -0.515625 
Q 12.796875 0.390625 7.625 2.203125 
L 7.625 11.71875 
Q 11.71875 9.328125 16.59375 8.109375 
Q 21.484375 6.890625 26.8125 6.890625 
Q 36.078125 6.890625 40.9375 10.546875 
Q 45.796875 14.203125 45.796875 21.1875 
Q 45.796875 27.640625 41.28125 31.265625 
Q 36.765625 34.90625 28.71875 34.90625 
L 20.21875 34.90625 
L 20.21875 43.015625 
L 29.109375 43.015625 
Q 36.375 43.015625 40.234375 45.921875 
Q 44.09375 48.828125 44.09375 54.296875 
Q 44.09375 59.90625 40.109375 62.90625 
Q 36.140625 65.921875 28.71875 65.921875 
Q 24.65625 65.921875 20.015625 65.03125 
Q 15.375 64.15625 9.8125 62.3125 
L 9.8125 71.09375 
Q 15.4375 72.65625 20.34375 73.4375 
Q 25.25 74.21875 29.59375 74.21875 
Q 40.828125 74.21875 47.359375 69.109375 
Q 53.90625 64.015625 53.90625 55.328125 
Q 53.90625 49.265625 50.4375 45.09375 
Q 46.96875 40.921875 40.578125 39.3125 
z
" id="DejaVuSans-51"/>
       </defs>
       <use xlink:href="#DejaVuSans-51"/>
       <use x="63.623047" xlink:href="#DejaVuSans-48"/>
       <use x="127.246094" xlink:href="#DejaVuSans-48"/>
      </g>
     </g>
    </g>
    <g id="xtick_5">
     <g id="line2d_5">
      <g>
       <use style="stroke:#000000;stroke-width:0.8;" x="417.596065" xlink:href="#mbe9ee2691e" y="384.48"/>
      </g>
     </g>
     <g id="text_5">
      <!-- 400 -->
      <g transform="translate(408.052315 399.078438)scale(0.1 -0.1)">
       <defs>
        <path d="M 37.796875 64.3125 
L 12.890625 25.390625 
L 37.796875 25.390625 
z
M 35.203125 72.90625 
L 47.609375 72.90625 
L 47.609375 25.390625 
L 58.015625 25.390625 
L 58.015625 17.1875 
L 47.609375 17.1875 
L 47.609375 0 
L 37.796875 0 
L 37.796875 17.1875 
L 4.890625 17.1875 
L 4.890625 26.703125 
z
" id="DejaVuSans-52"/>
       </defs>
       <use xlink:href="#DejaVuSans-52"/>
       <use x="63.623047" xlink:href="#DejaVuSans-48"/>
       <use x="127.246094" xlink:href="#DejaVuSans-48"/>
      </g>
     </g>
    </g>
    <g id="xtick_6">
     <g id="line2d_6">
      <g>
       <use style="stroke:#000000;stroke-width:0.8;" x="498.922354" xlink:href="#mbe9ee2691e" y="384.48"/>
      </g>
     </g>
     <g id="text_6">
      <!-- 500 -->
      <g transform="translate(489.378604 399.078438)scale(0.1 -0.1)">
       <defs>
        <path d="M 10.796875 72.90625 
L 49.515625 72.90625 
L 49.515625 64.59375 
L 19.828125 64.59375 
L 19.828125 46.734375 
Q 21.96875 47.46875 24.109375 47.828125 
Q 26.265625 48.1875 28.421875 48.1875 
Q 40.625 48.1875 47.75 41.5 
Q 54.890625 34.8125 54.890625 23.390625 
Q 54.890625 11.625 47.5625 5.09375 
Q 40.234375 -1.421875 26.90625 -1.421875 
Q 22.3125 -1.421875 17.546875 -0.640625 
Q 12.796875 0.140625 7.71875 1.703125 
L 7.71875 11.625 
Q 12.109375 9.234375 16.796875 8.0625 
Q 21.484375 6.890625 26.703125 6.890625 
Q 35.15625 6.890625 40.078125 11.328125 
Q 45.015625 15.765625 45.015625 23.390625 
Q 45.015625 31 40.078125 35.4375 
Q 35.15625 39.890625 26.703125 39.890625 
Q 22.75 39.890625 18.8125 39.015625 
Q 14.890625 38.140625 10.796875 36.28125 
z
" id="DejaVuSans-53"/>
       </defs>
       <use xlink:href="#DejaVuSans-53"/>
       <use x="63.623047" xlink:href="#DejaVuSans-48"/>
       <use x="127.246094" xlink:href="#DejaVuSans-48"/>
      </g>
     </g>
    </g>
    <g id="text_7">
     <!-- epoch -->
     <g transform="translate(279.971875 412.756563)scale(0.1 -0.1)">
      <defs>
       <path d="M 56.203125 29.59375 
L 56.203125 25.203125 
L 14.890625 25.203125 
Q 15.484375 15.921875 20.484375 11.0625 
Q 25.484375 6.203125 34.421875 6.203125 
Q 39.59375 6.203125 44.453125 7.46875 
Q 49.3125 8.734375 54.109375 11.28125 
L 54.109375 2.78125 
Q 49.265625 0.734375 44.1875 -0.34375 
Q 39.109375 -1.421875 33.890625 -1.421875 
Q 20.796875 -1.421875 13.15625 6.1875 
Q 5.515625 13.8125 5.515625 26.8125 
Q 5.515625 40.234375 12.765625 48.109375 
Q 20.015625 56 32.328125 56 
Q 43.359375 56 49.78125 48.890625 
Q 56.203125 41.796875 56.203125 29.59375 
z
M 47.21875 32.234375 
Q 47.125 39.59375 43.09375 43.984375 
Q 39.0625 48.390625 32.421875 48.390625 
Q 24.90625 48.390625 20.390625 44.140625 
Q 15.875 39.890625 15.1875 32.171875 
z
" id="DejaVuSans-101"/>
       <path d="M 18.109375 8.203125 
L 18.109375 -20.796875 
L 9.078125 -20.796875 
L 9.078125 54.6875 
L 18.109375 54.6875 
L 18.109375 46.390625 
Q 20.953125 51.265625 25.265625 53.625 
Q 29.59375 56 35.59375 56 
Q 45.5625 56 51.78125 48.09375 
Q 58.015625 40.1875 58.015625 27.296875 
Q 58.015625 14.40625 51.78125 6.484375 
Q 45.5625 -1.421875 35.59375 -1.421875 
Q 29.59375 -1.421875 25.265625 0.953125 
Q 20.953125 3.328125 18.109375 8.203125 
z
M 48.6875 27.296875 
Q 48.6875 37.203125 44.609375 42.84375 
Q 40.53125 48.484375 33.40625 48.484375 
Q 26.265625 48.484375 22.1875 42.84375 
Q 18.109375 37.203125 18.109375 27.296875 
Q 18.109375 17.390625 22.1875 11.75 
Q 26.265625 6.109375 33.40625 6.109375 
Q 40.53125 6.109375 44.609375 11.75 
Q 48.6875 17.390625 48.6875 27.296875 
z
" id="DejaVuSans-112"/>
       <path d="M 30.609375 48.390625 
Q 23.390625 48.390625 19.1875 42.75 
Q 14.984375 37.109375 14.984375 27.296875 
Q 14.984375 17.484375 19.15625 11.84375 
Q 23.34375 6.203125 30.609375 6.203125 
Q 37.796875 6.203125 41.984375 11.859375 
Q 46.1875 17.53125 46.1875 27.296875 
Q 46.1875 37.015625 41.984375 42.703125 
Q 37.796875 48.390625 30.609375 48.390625 
z
M 30.609375 56 
Q 42.328125 56 49.015625 48.375 
Q 55.71875 40.765625 55.71875 27.296875 
Q 55.71875 13.875 49.015625 6.21875 
Q 42.328125 -1.421875 30.609375 -1.421875 
Q 18.84375 -1.421875 12.171875 6.21875 
Q 5.515625 13.875 5.515625 27.296875 
Q 5.515625 40.765625 12.171875 48.375 
Q 18.84375 56 30.609375 56 
z
" id="DejaVuSans-111"/>
       <path d="M 48.78125 52.59375 
L 48.78125 44.1875 
Q 44.96875 46.296875 41.140625 47.34375 
Q 37.3125 48.390625 33.40625 48.390625 
Q 24.65625 48.390625 19.8125 42.84375 
Q 14.984375 37.3125 14.984375 27.296875 
Q 14.984375 17.28125 19.8125 11.734375 
Q 24.65625 6.203125 33.40625 6.203125 
Q 37.3125 6.203125 41.140625 7.25 
Q 44.96875 8.296875 48.78125 10.40625 
L 48.78125 2.09375 
Q 45.015625 0.34375 40.984375 -0.53125 
Q 36.96875 -1.421875 32.421875 -1.421875 
Q 20.0625 -1.421875 12.78125 6.34375 
Q 5.515625 14.109375 5.515625 27.296875 
Q 5.515625 40.671875 12.859375 48.328125 
Q 20.21875 56 33.015625 56 
Q 37.15625 56 41.109375 55.140625 
Q 45.0625 54.296875 48.78125 52.59375 
z
" id="DejaVuSans-99"/>
       <path d="M 54.890625 33.015625 
L 54.890625 0 
L 45.90625 0 
L 45.90625 32.71875 
Q 45.90625 40.484375 42.875 44.328125 
Q 39.84375 48.1875 33.796875 48.1875 
Q 26.515625 48.1875 22.3125 43.546875 
Q 18.109375 38.921875 18.109375 30.90625 
L 18.109375 0 
L 9.078125 0 
L 9.078125 75.984375 
L 18.109375 75.984375 
L 18.109375 46.1875 
Q 21.34375 51.125 25.703125 53.5625 
Q 30.078125 56 35.796875 56 
Q 45.21875 56 50.046875 50.171875 
Q 54.890625 44.34375 54.890625 33.015625 
z
" id="DejaVuSans-104"/>
      </defs>
      <use xlink:href="#DejaVuSans-101"/>
      <use x="61.523438" xlink:href="#DejaVuSans-112"/>
      <use x="125" xlink:href="#DejaVuSans-111"/>
      <use x="186.181641" xlink:href="#DejaVuSans-99"/>
      <use x="241.162109" xlink:href="#DejaVuSans-104"/>
     </g>
    </g>
   </g>
   <g id="matplotlib.axis_2">
    <g id="ytick_1">
     <g id="line2d_7">
      <defs>
       <path d="M 0 0 
L -3.5 0 
" id="m6e61298626" style="stroke:#000000;stroke-width:0.8;"/>
      </defs>
      <g>
       <use style="stroke:#000000;stroke-width:0.8;" x="72" xlink:href="#m6e61298626" y="384.48"/>
      </g>
     </g>
     <g id="text_8">
      <!-- 0.0 -->
      <g transform="translate(49.096875 388.279219)scale(0.1 -0.1)">
       <defs>
        <path d="M 10.6875 12.40625 
L 21 12.40625 
L 21 0 
L 10.6875 0 
z
" id="DejaVuSans-46"/>
       </defs>
       <use xlink:href="#DejaVuSans-48"/>
       <use x="63.623047" xlink:href="#DejaVuSans-46"/>
       <use x="95.410156" xlink:href="#DejaVuSans-48"/>
      </g>
     </g>
    </g>
    <g id="ytick_2">
     <g id="line2d_8">
      <g>
       <use style="stroke:#000000;stroke-width:0.8;" x="72" xlink:href="#m6e61298626" y="317.952"/>
      </g>
     </g>
     <g id="text_9">
      <!-- 0.2 -->
      <g transform="translate(49.096875 321.751219)scale(0.1 -0.1)">
       <use xlink:href="#DejaVuSans-48"/>
       <use x="63.623047" xlink:href="#DejaVuSans-46"/>
       <use x="95.410156" xlink:href="#DejaVuSans-50"/>
      </g>
     </g>
    </g>
    <g id="ytick_3">
     <g id="line2d_9">
      <g>
       <use style="stroke:#000000;stroke-width:0.8;" x="72" xlink:href="#m6e61298626" y="251.424"/>
      </g>
     </g>
     <g id="text_10">
      <!-- 0.4 -->
      <g transform="translate(49.096875 255.223219)scale(0.1 -0.1)">
       <use xlink:href="#DejaVuSans-48"/>
       <use x="63.623047" xlink:href="#DejaVuSans-46"/>
       <use x="95.410156" xlink:href="#DejaVuSans-52"/>
      </g>
     </g>
    </g>
    <g id="ytick_4">
     <g id="line2d_10">
      <g>
       <use style="stroke:#000000;stroke-width:0.8;" x="72" xlink:href="#m6e61298626" y="184.896"/>
      </g>
     </g>
     <g id="text_11">
      <!-- 0.6 -->
      <g transform="translate(49.096875 188.695219)scale(0.1 -0.1)">
       <defs>
        <path d="M 33.015625 40.375 
Q 26.375 40.375 22.484375 35.828125 
Q 18.609375 31.296875 18.609375 23.390625 
Q 18.609375 15.53125 22.484375 10.953125 
Q 26.375 6.390625 33.015625 6.390625 
Q 39.65625 6.390625 43.53125 10.953125 
Q 47.40625 15.53125 47.40625 23.390625 
Q 47.40625 31.296875 43.53125 35.828125 
Q 39.65625 40.375 33.015625 40.375 
z
M 52.59375 71.296875 
L 52.59375 62.3125 
Q 48.875 64.0625 45.09375 64.984375 
Q 41.3125 65.921875 37.59375 65.921875 
Q 27.828125 65.921875 22.671875 59.328125 
Q 17.53125 52.734375 16.796875 39.40625 
Q 19.671875 43.65625 24.015625 45.921875 
Q 28.375 48.1875 33.59375 48.1875 
Q 44.578125 48.1875 50.953125 41.515625 
Q 57.328125 34.859375 57.328125 23.390625 
Q 57.328125 12.15625 50.6875 5.359375 
Q 44.046875 -1.421875 33.015625 -1.421875 
Q 20.359375 -1.421875 13.671875 8.265625 
Q 6.984375 17.96875 6.984375 36.375 
Q 6.984375 53.65625 15.1875 63.9375 
Q 23.390625 74.21875 37.203125 74.21875 
Q 40.921875 74.21875 44.703125 73.484375 
Q 48.484375 72.75 52.59375 71.296875 
z
" id="DejaVuSans-54"/>
       </defs>
       <use xlink:href="#DejaVuSans-48"/>
       <use x="63.623047" xlink:href="#DejaVuSans-46"/>
       <use x="95.410156" xlink:href="#DejaVuSans-54"/>
      </g>
     </g>
    </g>
    <g id="ytick_5">
     <g id="line2d_11">
      <g>
       <use style="stroke:#000000;stroke-width:0.8;" x="72" xlink:href="#m6e61298626" y="118.368"/>
      </g>
     </g>
     <g id="text_12">
      <!-- 0.8 -->
      <g transform="translate(49.096875 122.167219)scale(0.1 -0.1)">
       <defs>
        <path d="M 31.78125 34.625 
Q 24.75 34.625 20.71875 30.859375 
Q 16.703125 27.09375 16.703125 20.515625 
Q 16.703125 13.921875 20.71875 10.15625 
Q 24.75 6.390625 31.78125 6.390625 
Q 38.8125 6.390625 42.859375 10.171875 
Q 46.921875 13.96875 46.921875 20.515625 
Q 46.921875 27.09375 42.890625 30.859375 
Q 38.875 34.625 31.78125 34.625 
z
M 21.921875 38.8125 
Q 15.578125 40.375 12.03125 44.71875 
Q 8.5 49.078125 8.5 55.328125 
Q 8.5 64.0625 14.71875 69.140625 
Q 20.953125 74.21875 31.78125 74.21875 
Q 42.671875 74.21875 48.875 69.140625 
Q 55.078125 64.0625 55.078125 55.328125 
Q 55.078125 49.078125 51.53125 44.71875 
Q 48 40.375 41.703125 38.8125 
Q 48.828125 37.15625 52.796875 32.3125 
Q 56.78125 27.484375 56.78125 20.515625 
Q 56.78125 9.90625 50.3125 4.234375 
Q 43.84375 -1.421875 31.78125 -1.421875 
Q 19.734375 -1.421875 13.25 4.234375 
Q 6.78125 9.90625 6.78125 20.515625 
Q 6.78125 27.484375 10.78125 32.3125 
Q 14.796875 37.15625 21.921875 38.8125 
z
M 18.3125 54.390625 
Q 18.3125 48.734375 21.84375 45.5625 
Q 25.390625 42.390625 31.78125 42.390625 
Q 38.140625 42.390625 41.71875 45.5625 
Q 45.3125 48.734375 45.3125 54.390625 
Q 45.3125 60.0625 41.71875 63.234375 
Q 38.140625 66.40625 31.78125 66.40625 
Q 25.390625 66.40625 21.84375 63.234375 
Q 18.3125 60.0625 18.3125 54.390625 
z
" id="DejaVuSans-56"/>
       </defs>
       <use xlink:href="#DejaVuSans-48"/>
       <use x="63.623047" xlink:href="#DejaVuSans-46"/>
       <use x="95.410156" xlink:href="#DejaVuSans-56"/>
      </g>
     </g>
    </g>
    <g id="ytick_6">
     <g id="line2d_12">
      <g>
       <use style="stroke:#000000;stroke-width:0.8;" x="72" xlink:href="#m6e61298626" y="51.84"/>
      </g>
     </g>
     <g id="text_13">
      <!-- 1.0 -->
      <g transform="translate(49.096875 55.639219)scale(0.1 -0.1)">
       <use xlink:href="#DejaVuSans-49"/>
       <use x="63.623047" xlink:href="#DejaVuSans-46"/>
       <use x="95.410156" xlink:href="#DejaVuSans-48"/>
      </g>
     </g>
    </g>
    <g id="text_14">
     <!-- rate -->
     <g transform="translate(43.017187 228.31625)rotate(-90)scale(0.1 -0.1)">
      <defs>
       <path d="M 41.109375 46.296875 
Q 39.59375 47.171875 37.8125 47.578125 
Q 36.03125 48 33.890625 48 
Q 26.265625 48 22.1875 43.046875 
Q 18.109375 38.09375 18.109375 28.8125 
L 18.109375 0 
L 9.078125 0 
L 9.078125 54.6875 
L 18.109375 54.6875 
L 18.109375 46.1875 
Q 20.953125 51.171875 25.484375 53.578125 
Q 30.03125 56 36.53125 56 
Q 37.453125 56 38.578125 55.875 
Q 39.703125 55.765625 41.0625 55.515625 
z
" id="DejaVuSans-114"/>
       <path d="M 34.28125 27.484375 
Q 23.390625 27.484375 19.1875 25 
Q 14.984375 22.515625 14.984375 16.5 
Q 14.984375 11.71875 18.140625 8.90625 
Q 21.296875 6.109375 26.703125 6.109375 
Q 34.1875 6.109375 38.703125 11.40625 
Q 43.21875 16.703125 43.21875 25.484375 
L 43.21875 27.484375 
z
M 52.203125 31.203125 
L 52.203125 0 
L 43.21875 0 
L 43.21875 8.296875 
Q 40.140625 3.328125 35.546875 0.953125 
Q 30.953125 -1.421875 24.3125 -1.421875 
Q 15.921875 -1.421875 10.953125 3.296875 
Q 6 8.015625 6 15.921875 
Q 6 25.140625 12.171875 29.828125 
Q 18.359375 34.515625 30.609375 34.515625 
L 43.21875 34.515625 
L 43.21875 35.40625 
Q 43.21875 41.609375 39.140625 45 
Q 35.0625 48.390625 27.6875 48.390625 
Q 23 48.390625 18.546875 47.265625 
Q 14.109375 46.140625 10.015625 43.890625 
L 10.015625 52.203125 
Q 14.9375 54.109375 19.578125 55.046875 
Q 24.21875 56 28.609375 56 
Q 40.484375 56 46.34375 49.84375 
Q 52.203125 43.703125 52.203125 31.203125 
z
" id="DejaVuSans-97"/>
       <path d="M 18.3125 70.21875 
L 18.3125 54.6875 
L 36.8125 54.6875 
L 36.8125 47.703125 
L 18.3125 47.703125 
L 18.3125 18.015625 
Q 18.3125 11.328125 20.140625 9.421875 
Q 21.96875 7.515625 27.59375 7.515625 
L 36.8125 7.515625 
L 36.8125 0 
L 27.59375 0 
Q 17.1875 0 13.234375 3.875 
Q 9.28125 7.765625 9.28125 18.015625 
L 9.28125 47.703125 
L 2.6875 47.703125 
L 2.6875 54.6875 
L 9.28125 54.6875 
L 9.28125 70.21875 
z
" id="DejaVuSans-116"/>
      </defs>
      <use xlink:href="#DejaVuSans-114"/>
      <use x="41.113281" xlink:href="#DejaVuSans-97"/>
      <use x="102.392578" xlink:href="#DejaVuSans-116"/>
      <use x="141.601562" xlink:href="#DejaVuSans-101"/>
     </g>
    </g>
   </g>
   <g id="line2d_13">
    <path clip-path="url(#p4dce6e9464)" d="M 92.290909 183.368593 
L 93.104172 150.053725 
L 94.730698 144.625238 
L 95.543961 143.756767 
L 96.357224 144.115904 
L 97.170486 140.453385 
L 98.797012 138.848215 
L 99.610275 136.591791 
L 100.423538 169.900333 
L 101.236801 142.535254 
L 102.050064 139.885566 
L 102.863327 138.120811 
L 103.67659 137.145185 
L 104.489852 135.845877 
L 105.303115 134.901569 
L 106.116378 131.415315 
L 106.929641 131.228444 
L 107.742904 129.347313 
L 108.556167 169.362645 
L 109.36943 141.087539 
L 110.182693 137.229723 
L 110.995956 134.569671 
L 111.809218 133.097458 
L 112.622481 129.484155 
L 113.435744 128.281128 
L 114.249007 127.927751 
L 115.06227 126.562902 
L 115.875533 124.186278 
L 116.688796 167.517154 
L 117.502059 139.297625 
L 118.315322 133.671381 
L 119.128584 131.703777 
L 119.941847 129.010652 
L 120.75511 128.214144 
L 121.568373 125.155758 
L 122.381636 125.748648 
L 123.194899 122.837471 
L 124.008162 121.769567 
L 124.821425 166.338822 
L 125.634688 139.483799 
L 126.44795 133.651176 
L 127.261213 130.16853 
L 128.074476 129.2968 
L 128.887739 126.132019 
L 129.701002 121.607184 
L 130.514265 124.25615 
L 131.327528 118.92087 
L 132.140791 117.342249 
L 132.954054 166.770266 
L 133.767316 139.905167 
L 134.580579 133.095599 
L 135.393842 129.607983 
L 136.207105 127.199964 
L 137.833631 120.4145 
L 138.646894 118.201589 
L 139.460157 115.138487 
L 140.27342 113.285211 
L 141.086682 167.820131 
L 141.899945 138.944565 
L 142.713208 132.346611 
L 143.526471 127.521518 
L 144.339734 124.919302 
L 145.152997 121.927458 
L 145.96626 118.159914 
L 146.779523 116.364124 
L 147.592786 114.248759 
L 148.406048 110.265242 
L 149.219311 167.150517 
L 150.032574 139.143839 
L 152.472363 122.506103 
L 153.285626 119.008583 
L 154.098889 117.433094 
L 154.912152 112.848478 
L 155.725414 112.651274 
L 156.538677 108.342395 
L 157.35194 169.077863 
L 158.165203 140.274872 
L 158.978466 135.364603 
L 159.791729 125.283348 
L 160.604992 120.280237 
L 162.231518 115.336413 
L 163.04478 112.051133 
L 163.858043 109.405524 
L 164.671306 103.064267 
L 165.484569 167.596806 
L 166.297832 142.04797 
L 167.924358 127.274298 
L 168.737621 120.855581 
L 169.550884 117.922684 
L 170.364146 113.179343 
L 171.177409 109.996827 
L 171.990672 105.722842 
L 172.803935 103.912041 
L 173.617198 168.883303 
L 174.430461 145.157106 
L 175.243724 132.526448 
L 176.056987 129.116413 
L 176.87025 128.872474 
L 177.683512 127.302931 
L 178.496775 121.864058 
L 180.123301 117.438213 
L 180.936564 115.866489 
L 181.749827 170.929365 
L 182.56309 150.266744 
L 183.376353 138.355487 
L 184.189616 130.633798 
L 185.002878 128.658964 
L 185.816141 128.209792 
L 188.25593 117.859107 
L 189.069193 116.156095 
L 189.882456 179.730015 
L 190.695719 148.401287 
L 191.508982 140.355011 
L 192.322244 133.741104 
L 193.135507 130.99469 
L 193.94877 127.388681 
L 196.388559 118.917535 
L 197.201822 115.313753 
L 198.015085 181.950336 
L 198.828348 147.741696 
L 199.64161 140.870113 
L 200.454873 132.123103 
L 202.081399 126.011092 
L 202.894662 124.482789 
L 203.707925 119.875722 
L 204.521188 116.688903 
L 205.334451 114.039005 
L 206.147714 183.031164 
L 206.960976 148.141034 
L 207.774239 141.818433 
L 208.587502 131.978956 
L 209.400765 130.619123 
L 210.214028 127.476479 
L 211.027291 123.431667 
L 211.840554 121.478673 
L 212.653817 116.352041 
L 213.46708 115.921732 
L 214.280343 185.957439 
L 215.093605 146.68296 
L 215.906868 141.77847 
L 217.533394 127.22706 
L 218.346657 128.151203 
L 219.973183 119.441342 
L 220.786446 118.767663 
L 221.599709 115.757796 
L 222.412971 183.595907 
L 223.226234 145.194237 
L 224.039497 142.747256 
L 224.85276 135.049989 
L 225.666023 128.949768 
L 226.479286 128.274801 
L 227.292549 122.886262 
L 228.105812 121.824269 
L 228.919075 118.980155 
L 229.732337 114.331529 
L 230.5456 190.899639 
L 231.358863 146.217393 
L 232.172126 142.93939 
L 232.985389 136.575128 
L 234.611915 126.476338 
L 235.425178 124.718595 
L 236.238441 120.000249 
L 237.051703 119.526826 
L 237.864966 116.644265 
L 238.678229 191.142619 
L 239.491492 144.450837 
L 240.304755 142.895384 
L 241.118018 137.841162 
L 241.931281 129.355312 
L 242.744544 129.076708 
L 243.557807 122.044331 
L 244.371069 124.485681 
L 245.184332 118.8582 
L 245.997595 119.237348 
L 246.810858 197.225455 
L 247.624121 145.524758 
L 248.437384 143.022937 
L 250.06391 131.748465 
L 250.877173 127.445785 
L 251.690435 127.331622 
L 252.503698 119.082458 
L 253.316961 118.252014 
L 254.130224 120.505135 
L 254.943487 195.451036 
L 255.75675 143.042248 
L 256.570013 141.153078 
L 257.383276 136.803673 
L 258.196539 133.301459 
L 259.009801 126.90313 
L 259.823064 126.140584 
L 260.636327 123.147119 
L 261.44959 121.16609 
L 262.262853 115.936264 
L 263.076116 198.494019 
L 263.889379 144.259021 
L 264.702642 140.531671 
L 265.515905 135.644479 
L 266.329167 131.745901 
L 267.14243 130.853098 
L 267.955693 123.243338 
L 268.768956 123.191125 
L 270.395482 118.542452 
L 271.208745 200.781358 
L 272.022008 142.586148 
L 273.648533 139.421093 
L 274.461796 133.197643 
L 276.088322 127.346179 
L 276.901585 121.301783 
L 277.714848 120.939263 
L 278.528111 118.83225 
L 279.341374 205.242815 
L 280.154637 146.975133 
L 280.967899 140.601747 
L 281.781162 138.836205 
L 282.594425 133.686594 
L 283.407688 131.943068 
L 284.220951 128.249932 
L 285.034214 127.467892 
L 285.847477 121.055271 
L 286.66074 120.905545 
L 287.474003 196.808092 
L 288.287265 145.511334 
L 289.100528 139.009131 
L 289.913791 138.175564 
L 290.727054 134.143688 
L 291.540317 131.455826 
L 292.35358 127.956662 
L 293.166843 125.40902 
L 293.980106 124.04645 
L 294.793369 119.96238 
L 295.606631 205.848627 
L 296.419894 148.080378 
L 297.233157 140.937552 
L 298.04642 138.023551 
L 298.859683 133.046666 
L 299.672946 130.84948 
L 300.486209 129.587665 
L 301.299472 125.380679 
L 302.112735 124.380657 
L 302.925997 121.083728 
L 303.73926 203.655381 
L 304.552523 149.016212 
L 305.365786 138.306156 
L 306.179049 137.524715 
L 306.992312 135.402608 
L 307.805575 130.240541 
L 308.618838 129.625798 
L 309.432101 127.228133 
L 310.245363 125.673892 
L 311.058626 123.133239 
L 311.871889 207.499896 
L 312.685152 155.426713 
L 313.498415 137.724261 
L 314.311678 135.239099 
L 316.751467 129.541377 
L 317.564729 129.389646 
L 318.377992 125.326398 
L 319.191255 125.141203 
L 320.004518 208.605568 
L 320.817781 155.085884 
L 321.631044 139.378579 
L 323.25757 134.383531 
L 324.884095 130.940446 
L 325.697358 128.442958 
L 326.510621 127.19645 
L 327.323884 124.646747 
L 328.137147 211.745522 
L 328.95041 161.3497 
L 329.763673 137.443796 
L 330.576936 130.235535 
L 331.390199 134.359064 
L 332.203461 132.197876 
L 333.016724 132.306043 
L 333.829987 127.657521 
L 334.64325 127.312977 
L 335.456513 123.905961 
L 336.269776 214.464635 
L 337.083039 164.150436 
L 337.896302 139.548322 
L 338.709565 137.044288 
L 339.522827 132.221849 
L 340.33609 131.351714 
L 341.149353 131.138347 
L 341.962616 128.665755 
L 342.775879 127.252545 
L 343.589142 127.106131 
L 344.402405 214.008176 
L 345.215668 167.255378 
L 346.028931 140.749412 
L 346.842193 137.821947 
L 347.655456 132.081014 
L 348.468719 132.890286 
L 349.281982 128.536389 
L 350.095245 129.586679 
L 350.908508 126.539408 
L 351.721771 126.952821 
L 352.535034 211.897343 
L 353.348297 173.719417 
L 354.161559 145.431584 
L 354.974822 136.090526 
L 355.788085 132.630166 
L 357.414611 129.787486 
L 358.227874 129.653568 
L 359.041137 126.489356 
L 359.8544 126.348685 
L 360.667663 221.479421 
L 361.480925 175.66894 
L 362.294188 148.883451 
L 363.107451 131.329155 
L 363.920714 130.746146 
L 364.733977 131.731812 
L 365.54724 130.745206 
L 366.360503 129.504691 
L 367.173766 127.154685 
L 367.987029 128.452353 
L 368.800291 218.90366 
L 369.613554 176.52423 
L 370.426817 147.722187 
L 371.24008 137.24517 
L 372.053343 133.480946 
L 372.866606 131.05742 
L 373.679869 125.828421 
L 374.493132 130.526064 
L 376.119657 128.062934 
L 376.93292 220.965935 
L 377.746183 183.520935 
L 378.559446 152.638086 
L 379.372709 136.59453 
L 380.185972 132.461529 
L 380.999235 129.78053 
L 381.812498 130.558389 
L 382.625761 130.248667 
L 383.439024 127.665468 
L 384.252286 128.019007 
L 385.065549 219.28353 
L 386.692075 154.018085 
L 387.505338 142.470055 
L 388.318601 132.698664 
L 389.131864 129.599322 
L 389.945127 127.769067 
L 390.75839 126.92056 
L 391.571652 127.067214 
L 392.384915 128.383147 
L 393.198178 216.666397 
L 394.824704 157.789736 
L 395.637967 144.67864 
L 396.45123 137.816522 
L 397.264493 132.1316 
L 398.077756 129.043778 
L 398.891018 128.450327 
L 399.704281 130.125525 
L 400.517544 128.263806 
L 401.330807 222.659878 
L 402.14407 188.668274 
L 402.957333 165.371792 
L 403.770596 146.622901 
L 404.583859 137.341737 
L 406.210384 128.070283 
L 407.023647 128.117806 
L 407.83691 127.913485 
L 408.650173 125.129406 
L 409.463436 224.09001 
L 411.089962 167.711545 
L 411.903225 148.167187 
L 412.716488 138.410376 
L 413.52975 131.709744 
L 414.343013 130.330229 
L 415.156276 130.717041 
L 415.969539 125.107457 
L 416.782802 123.991273 
L 417.596065 224.980786 
L 420.035854 153.752951 
L 421.662379 132.3729 
L 422.475642 130.876512 
L 423.288905 128.267042 
L 424.102168 127.213719 
L 424.915431 127.706136 
L 425.728694 228.282039 
L 427.35522 177.96541 
L 428.168482 160.199167 
L 428.981745 149.282906 
L 429.795008 135.448207 
L 430.608271 132.476191 
L 431.421534 128.145522 
L 432.234797 125.767492 
L 433.04806 128.264414 
L 433.861323 224.251167 
L 434.674586 207.235293 
L 435.487848 181.819074 
L 436.301111 162.810965 
L 437.927637 139.538582 
L 438.7409 133.726255 
L 439.554163 133.34198 
L 440.367426 128.405298 
L 441.180689 126.716433 
L 441.993952 233.717155 
L 442.807214 208.036599 
L 443.620477 189.860521 
L 444.43374 166.385996 
L 445.247003 149.84757 
L 446.060266 145.764481 
L 446.873529 135.540245 
L 447.686792 133.969178 
L 448.500055 130.096903 
L 449.313318 127.586384 
L 450.12658 234.882188 
L 450.939843 216.044699 
L 452.566369 172.518245 
L 454.192895 148.005276 
L 455.006158 137.656418 
L 455.819421 134.328724 
L 456.632684 130.347821 
L 457.445946 127.714987 
L 458.259209 237.334862 
L 459.072472 228.095986 
L 459.885735 204.748827 
L 460.698998 175.760256 
L 462.325524 156.322215 
L 463.138787 145.008403 
L 463.95205 141.084238 
L 464.765312 133.465953 
L 465.578575 130.593635 
L 466.391838 240.617951 
L 467.205101 228.984982 
L 468.831627 184.402057 
L 469.64489 170.582493 
L 470.458153 162.321702 
L 471.271416 155.920683 
L 472.084678 142.523548 
L 472.897941 138.866428 
L 473.711204 136.104329 
L 474.524467 245.165273 
L 475.33773 230.484129 
L 476.150993 207.44554 
L 476.964256 196.934172 
L 477.777519 175.597729 
L 478.590782 162.109853 
L 479.404044 158.379362 
L 480.217307 146.423001 
L 481.03057 142.84748 
L 481.843833 140.246998 
L 482.657096 242.179253 
L 484.283622 218.871796 
L 485.096885 197.844304 
L 485.910148 184.036833 
L 487.536673 161.386584 
L 488.349936 152.572487 
L 489.163199 147.791731 
L 489.976462 144.285041 
L 490.789725 242.384762 
L 491.602988 228.726904 
L 492.416251 221.560003 
L 493.229514 206.858031 
L 494.042776 196.141995 
L 495.669302 170.554041 
L 497.295828 148.364604 
L 498.109091 144.655411 
L 498.109091 144.655411 
" style="fill:none;stroke:#0000ff;stroke-linecap:square;stroke-width:1.5;"/>
   </g>
   <g id="line2d_14">
    <path clip-path="url(#p4dce6e9464)" d="M 92.290909 198.167996 
L 93.104172 190.119491 
L 93.917435 188.344008 
L 94.730698 185.989575 
L 95.543961 184.805324 
L 96.357224 181.354388 
L 97.170486 180.562487 
L 97.983749 178.149525 
L 98.797012 178.229465 
L 99.610275 175.353504 
L 100.423538 208.840195 
L 101.236801 186.791862 
L 102.050064 175.025054 
L 102.863327 170.727799 
L 103.67659 169.016442 
L 104.489852 166.814832 
L 105.303115 165.712948 
L 106.116378 163.859005 
L 106.929641 163.551394 
L 107.742904 164.029357 
L 108.556167 202.783232 
L 109.36943 183.037241 
L 110.182693 171.520696 
L 110.995956 167.196839 
L 111.809218 164.500737 
L 112.622481 162.679208 
L 113.435744 159.871347 
L 114.249007 157.849822 
L 115.06227 158.589979 
L 115.875533 156.351883 
L 116.688796 198.799476 
L 117.502059 181.060854 
L 118.315322 169.483294 
L 119.128584 161.08814 
L 119.941847 158.929792 
L 120.75511 159.478103 
L 121.568373 157.155327 
L 122.381636 154.381999 
L 123.194899 153.429577 
L 124.008162 152.904949 
L 124.821425 198.132069 
L 125.634688 179.284207 
L 126.44795 165.167888 
L 127.261213 160.573342 
L 128.887739 155.564338 
L 129.701002 150.453795 
L 130.514265 150.247959 
L 131.327528 149.547788 
L 132.140791 145.384952 
L 132.954054 199.75499 
L 133.767316 178.95533 
L 134.580579 162.978468 
L 135.393842 156.422264 
L 136.207105 153.895539 
L 137.020368 149.522552 
L 137.833631 147.842484 
L 138.646894 144.998645 
L 139.460157 143.044879 
L 140.27342 138.37752 
L 141.086682 201.432654 
L 141.899945 178.31658 
L 142.713208 160.351782 
L 143.526471 154.992366 
L 144.339734 151.514104 
L 145.152997 150.352939 
L 145.96626 145.243738 
L 148.406048 137.170755 
L 149.219311 204.131796 
L 150.032574 174.877653 
L 150.845837 158.294396 
L 151.6591 154.572625 
L 152.472363 148.667289 
L 153.285626 146.542533 
L 154.098889 143.169402 
L 154.912152 137.485216 
L 155.725414 138.133019 
L 156.538677 132.558941 
L 157.35194 205.546204 
L 158.165203 176.280738 
L 158.978466 158.985195 
L 159.791729 152.220709 
L 160.604992 148.697314 
L 161.418255 143.33431 
L 162.231518 141.021824 
L 163.04478 137.812472 
L 163.858043 133.922911 
L 164.671306 127.328322 
L 165.484569 207.129197 
L 166.297832 174.970329 
L 167.111095 155.005421 
L 167.924358 151.667887 
L 168.737621 144.479802 
L 169.550884 142.120054 
L 170.364146 136.187829 
L 171.177409 133.449109 
L 171.990672 127.02887 
L 172.803935 127.801415 
L 173.617198 211.006186 
L 174.430461 157.623436 
L 175.243724 166.525674 
L 176.056987 155.01065 
L 176.87025 155.184354 
L 177.683512 152.226348 
L 178.496775 146.910174 
L 179.310038 145.39071 
L 180.123301 142.502759 
L 180.936564 138.926841 
L 181.749827 268.377482 
L 182.56309 153.847237 
L 183.376353 164.047765 
L 184.189616 159.503317 
L 185.002878 152.011808 
L 185.816141 150.972189 
L 187.442667 143.432537 
L 188.25593 141.847878 
L 189.069193 139.426217 
L 189.882456 274.807807 
L 190.695719 157.39311 
L 191.508982 162.444253 
L 192.322244 161.923829 
L 193.135507 152.006758 
L 193.94877 151.153969 
L 194.762033 147.07479 
L 195.575296 144.847773 
L 196.388559 141.091961 
L 197.201822 138.833235 
L 198.015085 280.848511 
L 198.828348 159.267143 
L 199.64161 158.51752 
L 200.454873 161.250006 
L 201.268136 153.782043 
L 202.894662 143.530487 
L 203.707925 143.444966 
L 204.521188 138.704269 
L 205.334451 135.705693 
L 206.147714 286.412552 
L 206.960976 166.178208 
L 207.774239 156.914783 
L 208.587502 160.312288 
L 210.214028 149.527841 
L 211.027291 145.546372 
L 211.840554 143.091793 
L 212.653817 139.180437 
L 213.46708 137.65703 
L 214.280343 292.21028 
L 215.093605 170.036711 
L 215.906868 155.476092 
L 216.720131 159.731873 
L 217.533394 154.799818 
L 218.346657 150.866815 
L 219.15992 142.488194 
L 219.973183 142.801377 
L 220.786446 139.197474 
L 221.599709 137.728248 
L 222.412971 294.002099 
L 223.226234 176.114152 
L 224.039497 154.274411 
L 224.85276 158.690011 
L 225.666023 155.284843 
L 226.479286 150.547302 
L 227.292549 147.030637 
L 228.105812 142.654502 
L 228.919075 140.527201 
L 229.732337 135.647198 
L 230.5456 300.816552 
L 231.358863 185.082573 
L 232.172126 154.436572 
L 232.985389 159.777222 
L 233.798652 157.549698 
L 234.611915 152.074473 
L 235.425178 147.891634 
L 236.238441 140.551195 
L 237.051703 139.755893 
L 237.864966 138.45602 
L 238.678229 302.77737 
L 239.491492 192.620489 
L 240.304755 157.957704 
L 241.118018 158.593726 
L 241.931281 156.287941 
L 242.744544 153.392409 
L 243.557807 146.154522 
L 244.371069 145.03399 
L 245.184332 140.390434 
L 245.997595 138.482809 
L 246.810858 309.553478 
L 247.624121 200.776466 
L 248.437384 159.681145 
L 249.250647 156.569749 
L 250.06391 155.372934 
L 250.877173 152.858907 
L 252.503698 140.410458 
L 253.316961 142.346934 
L 254.130224 141.657203 
L 254.943487 309.599817 
L 255.75675 208.181108 
L 256.570013 165.032405 
L 257.383276 157.650683 
L 258.196539 156.443199 
L 259.009801 152.525074 
L 259.823064 150.241492 
L 260.636327 146.203674 
L 261.44959 141.043543 
L 262.262853 139.509489 
L 263.076116 313.583405 
L 263.889379 218.788808 
L 264.702642 165.071988 
L 265.515905 157.196117 
L 266.329167 155.72463 
L 267.14243 156.11727 
L 267.955693 148.773405 
L 268.768956 149.113483 
L 269.582219 142.164585 
L 270.395482 139.116677 
L 271.208745 314.94358 
L 272.022008 228.333959 
L 272.835271 173.176724 
L 273.648533 160.280665 
L 274.461796 157.419318 
L 275.275059 153.803667 
L 276.088322 152.596607 
L 276.901585 146.935591 
L 277.714848 144.273309 
L 278.528111 143.531825 
L 279.341374 320.362239 
L 280.154637 237.137219 
L 280.967899 176.489648 
L 281.781162 165.20925 
L 282.594425 156.885241 
L 283.407688 155.305059 
L 284.220951 151.798773 
L 285.034214 151.867574 
L 285.847477 148.381476 
L 286.66074 144.134433 
L 287.474003 317.164079 
L 288.287265 245.129053 
L 289.100528 185.541247 
L 289.913791 166.593981 
L 290.727054 160.735864 
L 291.540317 156.835118 
L 292.35358 155.437333 
L 293.166843 151.070331 
L 293.980106 149.499998 
L 294.793369 143.081866 
L 295.606631 321.160092 
L 296.419894 251.200144 
L 297.233157 191.57891 
L 298.04642 172.317697 
L 298.859683 160.883237 
L 299.672946 157.496698 
L 300.486209 155.519258 
L 301.299472 150.404299 
L 302.112735 149.487046 
L 302.925997 145.507219 
L 303.73926 320.936986 
L 305.365786 201.77703 
L 306.179049 174.31064 
L 306.992312 165.353186 
L 307.805575 160.320447 
L 308.618838 156.433904 
L 309.432101 154.092997 
L 310.245363 148.614601 
L 311.058626 147.849379 
L 311.871889 323.497466 
L 312.685152 271.523614 
L 313.498415 209.549434 
L 314.311678 178.923738 
L 315.938204 162.254898 
L 316.751467 155.13643 
L 317.564729 156.720882 
L 318.377992 151.261187 
L 319.191255 147.965355 
L 320.004518 323.518435 
L 320.817781 275.65239 
L 321.631044 220.51966 
L 322.444307 188.10458 
L 323.25757 171.683108 
L 324.070833 163.858037 
L 324.884095 159.837886 
L 325.697358 154.980586 
L 327.323884 150.255409 
L 328.137147 326.977093 
L 328.95041 283.358439 
L 329.763673 227.14055 
L 330.576936 193.921277 
L 331.390199 178.273654 
L 332.203461 165.862059 
L 333.016724 163.936998 
L 334.64325 154.248925 
L 335.456513 150.448932 
L 336.269776 328.896758 
L 337.083039 291.496855 
L 337.896302 238.566308 
L 338.709565 204.397248 
L 339.522827 182.665389 
L 340.33609 171.672 
L 341.149353 164.491221 
L 341.962616 160.650731 
L 342.775879 155.498796 
L 343.589142 153.989028 
L 344.402405 328.13515 
L 345.215668 295.61097 
L 346.028931 247.175487 
L 346.842193 213.723311 
L 347.655456 187.59313 
L 348.468719 175.973765 
L 349.281982 166.623111 
L 350.095245 164.457504 
L 351.721771 154.854095 
L 352.535034 329.804821 
L 353.348297 304.015439 
L 354.161559 259.151651 
L 354.974822 223.587701 
L 355.788085 197.944796 
L 356.601348 184.651457 
L 357.414611 174.382851 
L 358.227874 165.732505 
L 359.041137 164.774202 
L 359.8544 157.94459 
L 360.667663 334.278026 
L 361.480925 307.106015 
L 363.107451 230.312249 
L 363.920714 206.778701 
L 364.733977 189.643329 
L 365.54724 179.416678 
L 366.360503 171.626667 
L 367.173766 167.5938 
L 367.987029 162.788421 
L 368.800291 335.451514 
L 369.613554 309.511435 
L 371.24008 242.931415 
L 372.053343 216.620612 
L 372.866606 196.664922 
L 373.679869 182.567944 
L 375.306395 171.187802 
L 376.119657 161.202871 
L 376.93292 335.404611 
L 377.746183 315.274731 
L 379.372709 248.891359 
L 380.999235 207.358045 
L 381.812498 192.009825 
L 382.625761 184.722209 
L 383.439024 175.039631 
L 384.252286 171.646335 
L 385.065549 337.249208 
L 385.878812 318.519361 
L 386.692075 292.774141 
L 388.318601 234.710132 
L 389.131864 214.62223 
L 389.945127 200.268642 
L 390.75839 189.105932 
L 391.571652 179.59865 
L 392.384915 174.899851 
L 393.198178 337.158942 
L 394.011441 323.043974 
L 396.45123 248.122624 
L 397.264493 227.574456 
L 398.077756 210.052957 
L 398.891018 196.33099 
L 399.704281 190.77814 
L 400.517544 181.13841 
L 401.330807 340.027183 
L 402.14407 325.914535 
L 403.770596 279.555144 
L 404.583859 256.112867 
L 406.210384 219.187309 
L 407.023647 205.835939 
L 408.650173 187.360994 
L 409.463436 340.834194 
L 410.276699 329.208818 
L 411.089962 310.800714 
L 411.903225 284.794086 
L 414.343013 228.609321 
L 415.969539 204.125901 
L 416.782802 195.6773 
L 417.596065 343.814485 
L 418.409328 333.648286 
L 420.035854 296.590744 
L 421.662379 257.891209 
L 422.475642 240.422899 
L 423.288905 229.897715 
L 424.102168 213.870402 
L 424.915431 202.603306 
L 425.728694 343.090793 
L 426.541957 335.425455 
L 427.35522 321.209048 
L 428.981745 285.766672 
L 429.795008 267.431807 
L 431.421534 237.31774 
L 432.234797 225.362586 
L 433.04806 215.710709 
L 433.861323 344.196319 
L 434.674586 337.92391 
L 435.487848 325.614784 
L 436.301111 309.545575 
L 437.114374 295.97312 
L 438.7409 261.520129 
L 439.554163 250.782884 
L 441.180689 224.989851 
L 441.993952 347.791104 
L 443.620477 328.84061 
L 444.43374 315.654689 
L 445.247003 299.429714 
L 446.060266 287.331294 
L 448.500055 246.654451 
L 449.313318 235.213159 
L 450.12658 348.500338 
L 450.939843 343.117415 
L 452.566369 322.600876 
L 454.192895 299.193795 
L 455.006158 281.860322 
L 455.819421 271.642916 
L 456.632684 258.021496 
L 457.445946 246.433251 
L 458.259209 352.564597 
L 459.072472 347.820405 
L 459.885735 340.3482 
L 460.698998 326.004014 
L 461.512261 317.745652 
L 462.325524 307.10396 
L 464.765312 270.215585 
L 465.578575 260.615703 
L 466.391838 353.211813 
L 467.205101 349.189432 
L 468.831627 332.307341 
L 469.64489 322.298343 
L 471.271416 305.565528 
L 472.897941 282.862176 
L 473.711204 273.805827 
L 474.524467 353.304204 
L 475.33773 351.636197 
L 476.150993 345.477623 
L 477.777519 328.34605 
L 478.590782 318.274354 
L 479.404044 310.590552 
L 481.843833 283.441659 
L 482.657096 354.848009 
L 483.470359 351.700364 
L 484.283622 347.055278 
L 485.096885 339.422837 
L 486.72341 326.066523 
L 487.536673 318.776035 
L 489.163199 300.614454 
L 489.976462 292.912361 
L 490.789725 356.676297 
L 491.602988 352.246007 
L 492.416251 349.794309 
L 493.229514 344.05186 
L 494.042776 340.058708 
L 494.856039 334.014022 
L 498.109091 304.77723 
L 498.109091 304.77723 
" style="fill:none;stroke:#008000;stroke-linecap:square;stroke-width:1.5;"/>
   </g>
   <g id="patch_3">
    <path d="M 72 384.48 
L 72 51.84 
" style="fill:none;stroke:#000000;stroke-linecap:square;stroke-linejoin:miter;stroke-width:0.8;"/>
   </g>
   <g id="patch_4">
    <path d="M 518.4 384.48 
L 518.4 51.84 
" style="fill:none;stroke:#000000;stroke-linecap:square;stroke-linejoin:miter;stroke-width:0.8;"/>
   </g>
   <g id="patch_5">
    <path d="M 72 384.48 
L 518.4 384.48 
" style="fill:none;stroke:#000000;stroke-linecap:square;stroke-linejoin:miter;stroke-width:0.8;"/>
   </g>
   <g id="patch_6">
    <path d="M 72 51.84 
L 518.4 51.84 
" style="fill:none;stroke:#000000;stroke-linecap:square;stroke-linejoin:miter;stroke-width:0.8;"/>
   </g>
   <g id="legend_1">
    <g id="patch_7">
     <path d="M 79 89.19625 
L 156.107812 89.19625 
Q 158.107812 89.19625 158.107812 87.19625 
L 158.107812 58.84 
Q 158.107812 56.84 156.107812 56.84 
L 79 56.84 
Q 77 56.84 77 58.84 
L 77 87.19625 
Q 77 89.19625 79 89.19625 
z
" style="fill:#ffffff;opacity:0.8;stroke:#cccccc;stroke-linejoin:miter;"/>
    </g>
    <g id="line2d_15">
     <path d="M 81 64.938437 
L 101 64.938437 
" style="fill:none;stroke:#0000ff;stroke-linecap:square;stroke-width:1.5;"/>
    </g>
    <g id="line2d_16"/>
    <g id="text_15">
     <!-- precision -->
     <g transform="translate(109 68.438437)scale(0.1 -0.1)">
      <defs>
       <path d="M 9.421875 54.6875 
L 18.40625 54.6875 
L 18.40625 0 
L 9.421875 0 
z
M 9.421875 75.984375 
L 18.40625 75.984375 
L 18.40625 64.59375 
L 9.421875 64.59375 
z
" id="DejaVuSans-105"/>
       <path d="M 44.28125 53.078125 
L 44.28125 44.578125 
Q 40.484375 46.53125 36.375 47.5 
Q 32.28125 48.484375 27.875 48.484375 
Q 21.1875 48.484375 17.84375 46.4375 
Q 14.5 44.390625 14.5 40.28125 
Q 14.5 37.15625 16.890625 35.375 
Q 19.28125 33.59375 26.515625 31.984375 
L 29.59375 31.296875 
Q 39.15625 29.25 43.1875 25.515625 
Q 47.21875 21.78125 47.21875 15.09375 
Q 47.21875 7.46875 41.1875 3.015625 
Q 35.15625 -1.421875 24.609375 -1.421875 
Q 20.21875 -1.421875 15.453125 -0.5625 
Q 10.6875 0.296875 5.421875 2 
L 5.421875 11.28125 
Q 10.40625 8.6875 15.234375 7.390625 
Q 20.0625 6.109375 24.8125 6.109375 
Q 31.15625 6.109375 34.5625 8.28125 
Q 37.984375 10.453125 37.984375 14.40625 
Q 37.984375 18.0625 35.515625 20.015625 
Q 33.0625 21.96875 24.703125 23.78125 
L 21.578125 24.515625 
Q 13.234375 26.265625 9.515625 29.90625 
Q 5.8125 33.546875 5.8125 39.890625 
Q 5.8125 47.609375 11.28125 51.796875 
Q 16.75 56 26.8125 56 
Q 31.78125 56 36.171875 55.265625 
Q 40.578125 54.546875 44.28125 53.078125 
z
" id="DejaVuSans-115"/>
       <path d="M 54.890625 33.015625 
L 54.890625 0 
L 45.90625 0 
L 45.90625 32.71875 
Q 45.90625 40.484375 42.875 44.328125 
Q 39.84375 48.1875 33.796875 48.1875 
Q 26.515625 48.1875 22.3125 43.546875 
Q 18.109375 38.921875 18.109375 30.90625 
L 18.109375 0 
L 9.078125 0 
L 9.078125 54.6875 
L 18.109375 54.6875 
L 18.109375 46.1875 
Q 21.34375 51.125 25.703125 53.5625 
Q 30.078125 56 35.796875 56 
Q 45.21875 56 50.046875 50.171875 
Q 54.890625 44.34375 54.890625 33.015625 
z
" id="DejaVuSans-110"/>
      </defs>
      <use xlink:href="#DejaVuSans-112"/>
      <use x="63.476562" xlink:href="#DejaVuSans-114"/>
      <use x="102.339844" xlink:href="#DejaVuSans-101"/>
      <use x="163.863281" xlink:href="#DejaVuSans-99"/>
      <use x="218.84375" xlink:href="#DejaVuSans-105"/>
      <use x="246.626953" xlink:href="#DejaVuSans-115"/>
      <use x="298.726562" xlink:href="#DejaVuSans-105"/>
      <use x="326.509766" xlink:href="#DejaVuSans-111"/>
      <use x="387.691406" xlink:href="#DejaVuSans-110"/>
     </g>
    </g>
    <g id="line2d_17">
     <path d="M 81 79.616562 
L 101 79.616562 
" style="fill:none;stroke:#008000;stroke-linecap:square;stroke-width:1.5;"/>
    </g>
    <g id="line2d_18"/>
    <g id="text_16">
     <!-- recall -->
     <g transform="translate(109 83.116562)scale(0.1 -0.1)">
      <defs>
       <path d="M 9.421875 75.984375 
L 18.40625 75.984375 
L 18.40625 0 
L 9.421875 0 
z
" id="DejaVuSans-108"/>
      </defs>
      <use xlink:href="#DejaVuSans-114"/>
      <use x="38.863281" xlink:href="#DejaVuSans-101"/>
      <use x="100.386719" xlink:href="#DejaVuSans-99"/>
      <use x="155.367188" xlink:href="#DejaVuSans-97"/>
      <use x="216.646484" xlink:href="#DejaVuSans-108"/>
      <use x="244.429688" xlink:href="#DejaVuSans-108"/>
     </g>
    </g>
   </g>
  </g>
  <g id="axes_2">
   <g id="matplotlib.axis_3">
    <g id="ytick_7">
     <g id="line2d_19">
      <defs>
       <path d="M 0 0 
L 3.5 0 
" id="mf3b850e592" style="stroke:#000000;stroke-width:0.8;"/>
      </defs>
      <g>
       <use style="stroke:#000000;stroke-width:0.8;" x="518.4" xlink:href="#mf3b850e592" y="338.611638"/>
      </g>
     </g>
     <g id="text_17">
      <!-- 0.15 -->
      <g transform="translate(525.4 342.410856)scale(0.1 -0.1)">
       <use xlink:href="#DejaVuSans-48"/>
       <use x="63.623047" xlink:href="#DejaVuSans-46"/>
       <use x="95.410156" xlink:href="#DejaVuSans-49"/>
       <use x="159.033203" xlink:href="#DejaVuSans-53"/>
      </g>
     </g>
    </g>
    <g id="ytick_8">
     <g id="line2d_20">
      <g>
       <use style="stroke:#000000;stroke-width:0.8;" x="518.4" xlink:href="#mf3b850e592" y="267.249904"/>
      </g>
     </g>
     <g id="text_18">
      <!-- 0.20 -->
      <g transform="translate(525.4 271.049123)scale(0.1 -0.1)">
       <use xlink:href="#DejaVuSans-48"/>
       <use x="63.623047" xlink:href="#DejaVuSans-46"/>
       <use x="95.410156" xlink:href="#DejaVuSans-50"/>
       <use x="159.033203" xlink:href="#DejaVuSans-48"/>
      </g>
     </g>
    </g>
    <g id="ytick_9">
     <g id="line2d_21">
      <g>
       <use style="stroke:#000000;stroke-width:0.8;" x="518.4" xlink:href="#mf3b850e592" y="195.888171"/>
      </g>
     </g>
     <g id="text_19">
      <!-- 0.25 -->
      <g transform="translate(525.4 199.68739)scale(0.1 -0.1)">
       <use xlink:href="#DejaVuSans-48"/>
       <use x="63.623047" xlink:href="#DejaVuSans-46"/>
       <use x="95.410156" xlink:href="#DejaVuSans-50"/>
       <use x="159.033203" xlink:href="#DejaVuSans-53"/>
      </g>
     </g>
    </g>
    <g id="ytick_10">
     <g id="line2d_22">
      <g>
       <use style="stroke:#000000;stroke-width:0.8;" x="518.4" xlink:href="#mf3b850e592" y="124.526437"/>
      </g>
     </g>
     <g id="text_20">
      <!-- 0.30 -->
      <g transform="translate(525.4 128.325656)scale(0.1 -0.1)">
       <use xlink:href="#DejaVuSans-48"/>
       <use x="63.623047" xlink:href="#DejaVuSans-46"/>
       <use x="95.410156" xlink:href="#DejaVuSans-51"/>
       <use x="159.033203" xlink:href="#DejaVuSans-48"/>
      </g>
     </g>
    </g>
    <g id="ytick_11">
     <g id="line2d_23">
      <g>
       <use style="stroke:#000000;stroke-width:0.8;" x="518.4" xlink:href="#mf3b850e592" y="53.164704"/>
      </g>
     </g>
     <g id="text_21">
      <!-- 0.35 -->
      <g transform="translate(525.4 56.963923)scale(0.1 -0.1)">
       <use xlink:href="#DejaVuSans-48"/>
       <use x="63.623047" xlink:href="#DejaVuSans-46"/>
       <use x="95.410156" xlink:href="#DejaVuSans-51"/>
       <use x="159.033203" xlink:href="#DejaVuSans-53"/>
      </g>
     </g>
    </g>
    <g id="text_22">
     <!-- loss -->
     <g transform="translate(559.264063 227.817812)rotate(-90)scale(0.1 -0.1)">
      <use xlink:href="#DejaVuSans-108"/>
      <use x="27.783203" xlink:href="#DejaVuSans-111"/>
      <use x="88.964844" xlink:href="#DejaVuSans-115"/>
      <use x="141.064453" xlink:href="#DejaVuSans-115"/>
     </g>
    </g>
   </g>
   <g id="line2d_24">
    <path clip-path="url(#p4dce6e9464)" d="M 92.290909 66.96 
L 93.104172 206.520026 
L 93.917435 219.069808 
L 95.543961 230.89852 
L 96.357224 232.834607 
L 97.983749 239.342107 
L 99.610275 243.258414 
L 100.423538 206.923505 
L 101.236801 252.407645 
L 102.050064 262.465068 
L 102.863327 266.614088 
L 103.67659 269.487506 
L 106.929641 278.172906 
L 107.742904 279.535944 
L 108.556167 217.372585 
L 109.36943 265.690788 
L 110.182693 276.590724 
L 110.995956 282.57939 
L 111.809218 285.281413 
L 112.622481 288.854657 
L 113.435744 291.301079 
L 114.249007 292.474124 
L 115.06227 295.905371 
L 115.875533 297.7625 
L 116.688796 227.611876 
L 117.502059 278.925302 
L 118.315322 290.838067 
L 119.128584 296.79106 
L 119.941847 300.476041 
L 120.75511 303.27295 
L 121.568373 307.022045 
L 122.381636 307.363932 
L 123.194899 311.08125 
L 124.008162 312.677656 
L 124.821425 235.929669 
L 125.634688 287.645763 
L 126.44795 301.89188 
L 127.261213 308.509585 
L 128.074476 310.875558 
L 128.887739 315.313848 
L 129.701002 319.04432 
L 130.514265 320.203058 
L 132.140791 327.601595 
L 132.954054 240.256365 
L 133.767316 297.878991 
L 134.580579 312.010063 
L 135.393842 319.132267 
L 137.020368 327.842378 
L 137.833631 331.174474 
L 138.646894 333.443884 
L 139.460157 338.036434 
L 140.27342 341.267915 
L 141.086682 246.465203 
L 141.899945 303.916843 
L 142.713208 319.126008 
L 143.526471 328.461602 
L 144.339734 333.222741 
L 145.152997 335.484724 
L 145.96626 340.695981 
L 147.592786 346.332551 
L 148.406048 349.992126 
L 149.219311 248.846259 
L 150.032574 308.201249 
L 150.845837 323.6436 
L 151.6591 332.020357 
L 152.472363 338.858288 
L 153.285626 342.741525 
L 154.098889 347.317515 
L 154.912152 353.019411 
L 155.725414 353.664682 
L 156.538677 358.278867 
L 157.35194 247.015585 
L 158.165203 308.958972 
L 158.978466 325.92256 
L 159.791729 336.046428 
L 161.418255 349.392974 
L 163.858043 360.514768 
L 164.671306 366.805125 
L 165.484569 247.495696 
L 166.297832 313.57255 
L 167.111095 331.452191 
L 168.737621 348.140433 
L 169.550884 351.68076 
L 170.364146 359.115685 
L 171.177409 362.616226 
L 171.990672 367.884536 
L 172.803935 369.36 
L 173.617198 246.038524 
L 174.430461 310.798319 
L 175.243724 326.439958 
L 176.056987 335.030159 
L 177.683512 341.933331 
L 178.496775 347.180108 
L 179.310038 349.565918 
L 180.936564 356.436929 
L 181.749827 225.878907 
L 182.56309 300.256798 
L 183.376353 320.596704 
L 184.189616 331.731745 
L 185.002878 340.518886 
L 186.629404 348.287218 
L 187.442667 353.210701 
L 188.25593 355.547252 
L 189.069193 360.53569 
L 189.882456 218.058703 
L 190.695719 300.751072 
L 191.508982 321.119583 
L 193.135507 341.012967 
L 194.762033 351.874057 
L 195.575296 354.712202 
L 197.201822 362.63899 
L 198.015085 216.048862 
L 198.828348 300.18717 
L 199.64161 320.952662 
L 200.454873 332.523956 
L 201.268136 342.257177 
L 202.081399 348.816698 
L 202.894662 352.582588 
L 203.707925 355.648419 
L 204.521188 361.071858 
L 205.334451 364.078763 
L 206.147714 210.329074 
L 206.960976 298.751984 
L 207.774239 320.54438 
L 208.587502 331.842747 
L 211.027291 354.360557 
L 211.840554 355.527021 
L 212.653817 363.077329 
L 213.46708 364.177455 
L 214.280343 203.620653 
L 215.093605 297.009713 
L 215.906868 322.19151 
L 217.533394 342.782589 
L 218.346657 346.690798 
L 219.15992 353.605489 
L 219.973183 356.794075 
L 220.786446 360.681563 
L 221.599709 363.632762 
L 222.412971 203.72633 
L 223.226234 296.434346 
L 224.039497 320.947911 
L 224.85276 332.680862 
L 225.666023 342.426286 
L 226.479286 345.887712 
L 227.292549 353.450547 
L 228.105812 357.947059 
L 228.919075 360.662105 
L 229.732337 365.793095 
L 230.5456 195.803454 
L 231.358863 293.313936 
L 232.172126 317.400444 
L 232.985389 330.193905 
L 233.798652 338.912281 
L 235.425178 352.77435 
L 236.238441 358.801735 
L 237.051703 359.763374 
L 237.864966 364.826386 
L 238.678229 189.355188 
L 239.491492 290.9839 
L 240.304755 318.742422 
L 241.931281 338.494924 
L 242.744544 344.433348 
L 243.557807 354.298357 
L 244.371069 355.460225 
L 245.184332 360.414646 
L 245.997595 364.259021 
L 246.810858 186.934268 
L 247.624121 287.938627 
L 248.437384 314.575195 
L 249.250647 328.567733 
L 250.06391 338.621858 
L 251.690435 350.482155 
L 252.503698 360.395933 
L 253.316961 360.370212 
L 254.130224 362.606302 
L 254.943487 186.314365 
L 255.75675 283.781568 
L 256.570013 312.291591 
L 257.383276 328.474074 
L 259.009801 344.682282 
L 259.823064 349.248371 
L 260.636327 355.223283 
L 262.262853 365.467499 
L 263.076116 178.555363 
L 263.889379 280.64322 
L 264.702642 314.007356 
L 265.515905 328.708568 
L 267.14243 343.770897 
L 267.955693 350.345536 
L 268.768956 353.427056 
L 269.582219 360.548067 
L 270.395482 362.993131 
L 271.208745 177.921056 
L 272.022008 276.962575 
L 272.835271 311.144552 
L 274.461796 334.443238 
L 275.275059 342.445778 
L 276.088322 346.160263 
L 276.901585 352.74706 
L 278.528111 361.353133 
L 279.341374 173.647265 
L 280.154637 270.219226 
L 280.967899 308.790709 
L 281.781162 318.610815 
L 282.594425 333.349138 
L 283.407688 340.053148 
L 284.220951 345.474168 
L 285.034214 348.226408 
L 285.847477 354.469533 
L 286.66074 359.720167 
L 287.474003 174.252067 
L 288.287265 264.900971 
L 289.100528 304.003477 
L 289.913791 320.38081 
L 290.727054 331.861005 
L 291.540317 336.057787 
L 292.35358 344.36966 
L 293.166843 349.301098 
L 293.980106 352.34952 
L 294.793369 359.762875 
L 295.606631 168.073267 
L 296.419894 259.557266 
L 297.233157 301.871525 
L 298.04642 317.082069 
L 298.859683 329.450853 
L 299.672946 336.828761 
L 300.486209 341.791883 
L 301.299472 347.842809 
L 302.112735 352.686636 
L 302.925997 356.626054 
L 303.73926 167.708592 
L 304.552523 254.790685 
L 305.365786 297.896607 
L 306.179049 317.28341 
L 306.992312 325.237052 
L 307.805575 336.230002 
L 308.618838 340.633453 
L 309.432101 347.562446 
L 310.245363 351.155377 
L 311.058626 354.026762 
L 311.871889 164.968132 
L 312.685152 247.88639 
L 313.498415 294.409555 
L 314.311678 315.002878 
L 315.124941 325.806641 
L 315.938204 332.05577 
L 316.751467 339.47058 
L 317.564729 343.323976 
L 318.377992 350.028649 
L 319.191255 352.607469 
L 320.004518 160.795575 
L 320.817781 242.504231 
L 321.631044 288.149864 
L 322.444307 311.332766 
L 323.25757 323.632448 
L 324.070833 333.217177 
L 324.884095 336.236141 
L 325.697358 343.624718 
L 326.510621 345.581033 
L 327.323884 350.261289 
L 328.137147 159.083156 
L 328.95041 236.75082 
L 329.763673 286.547188 
L 330.576936 310.545285 
L 332.203461 330.445729 
L 333.016724 335.29943 
L 333.829987 340.840285 
L 335.456513 349.238359 
L 336.269776 155.524565 
L 337.083039 230.060058 
L 337.896302 278.386872 
L 338.709565 300.673236 
L 339.522827 318.39968 
L 340.33609 324.233219 
L 341.149353 333.727307 
L 341.962616 338.840593 
L 343.589142 347.616308 
L 344.402405 151.665634 
L 345.215668 223.971394 
L 346.028931 273.187589 
L 346.842193 297.367643 
L 347.655456 316.244595 
L 348.468719 322.550632 
L 349.281982 331.077853 
L 350.095245 334.857188 
L 351.721771 346.163374 
L 352.535034 151.478181 
L 353.348297 217.777093 
L 354.161559 265.502942 
L 354.974822 293.069131 
L 355.788085 309.246435 
L 356.601348 319.865944 
L 357.414611 324.791403 
L 358.227874 333.240555 
L 359.8544 341.755655 
L 360.667663 148.390054 
L 361.480925 212.684784 
L 362.294188 257.127037 
L 363.107451 290.749171 
L 363.920714 306.197748 
L 364.733977 316.043083 
L 366.360503 330.725098 
L 367.173766 335.411157 
L 367.987029 338.76509 
L 368.800291 148.866845 
L 369.613554 208.596423 
L 370.426817 253.782395 
L 371.24008 281.047024 
L 372.053343 301.056945 
L 372.866606 313.352277 
L 373.679869 322.803273 
L 375.306395 331.494965 
L 376.119657 337.116284 
L 376.93292 143.328709 
L 377.746183 200.495113 
L 378.559446 245.487085 
L 379.372709 274.872996 
L 380.185972 294.760673 
L 380.999235 307.309823 
L 382.625761 323.689074 
L 383.439024 329.566283 
L 384.252286 334.333485 
L 385.065549 140.64111 
L 385.878812 194.223614 
L 386.692075 239.870063 
L 387.505338 269.258078 
L 388.318601 289.376181 
L 389.131864 304.394098 
L 390.75839 321.759359 
L 391.571652 328.109761 
L 392.384915 330.238708 
L 393.198178 138.966495 
L 394.011441 190.533676 
L 394.824704 234.93615 
L 395.637967 262.651097 
L 397.264493 298.267459 
L 398.077756 306.594648 
L 398.891018 316.749438 
L 399.704281 319.546684 
L 400.517544 326.462337 
L 401.330807 137.340033 
L 402.14407 183.723021 
L 402.957333 222.234543 
L 403.770596 254.811709 
L 404.583859 273.965324 
L 406.210384 303.39836 
L 407.023647 312.352449 
L 407.83691 315.479719 
L 408.650173 323.21438 
L 409.463436 133.99634 
L 410.276699 180.185798 
L 411.089962 219.698411 
L 412.716488 271.683533 
L 413.52975 286.709625 
L 415.969539 313.607811 
L 416.782802 318.233407 
L 417.596065 129.508191 
L 418.409328 172.14659 
L 419.222591 207.843889 
L 420.035854 237.543103 
L 420.849116 262.721341 
L 422.475642 290.628191 
L 424.102168 308.580029 
L 424.915431 314.686838 
L 425.728694 126.471773 
L 427.35522 204.000629 
L 428.168482 230.665431 
L 429.795008 269.796956 
L 430.608271 282.148297 
L 431.421534 292.500397 
L 432.234797 301.078466 
L 433.04806 306.279693 
L 433.861323 122.567846 
L 435.487848 195.387112 
L 437.114374 244.066166 
L 438.7409 275.094394 
L 439.554163 283.71853 
L 440.367426 293.735365 
L 441.180689 301.897342 
L 441.993952 120.176524 
L 443.620477 184.917985 
L 445.247003 238.184447 
L 446.873529 268.184188 
L 447.686792 276.74881 
L 448.500055 287.37665 
L 449.313318 295.070327 
L 450.12658 114.321067 
L 450.939843 149.350794 
L 452.566369 204.219297 
L 453.379632 226.390492 
L 455.819421 271.963473 
L 457.445946 288.720216 
L 458.259209 112.806806 
L 459.885735 171.642619 
L 460.698998 197.814434 
L 461.512261 217.390937 
L 463.138787 248.424762 
L 463.95205 258.571886 
L 465.578575 283.017218 
L 466.391838 107.445893 
L 468.018364 162.586762 
L 468.831627 186.867918 
L 469.64489 206.605936 
L 471.271416 238.379346 
L 472.897941 262.761848 
L 473.711204 269.890202 
L 474.524467 101.841458 
L 475.33773 131.685405 
L 476.964256 178.630239 
L 479.404044 229.302687 
L 481.03057 250.594751 
L 481.843833 260.111175 
L 482.657096 98.180563 
L 483.470359 125.288254 
L 486.72341 206.940995 
L 487.536673 218.093401 
L 488.349936 233.543304 
L 489.163199 244.530126 
L 489.976462 251.13952 
L 490.789725 97.125586 
L 493.229514 162.991326 
L 494.856039 195.084525 
L 495.669302 207.221154 
L 496.482565 221.712578 
L 497.295828 233.446324 
L 498.109091 242.420686 
L 498.109091 242.420686 
" style="fill:none;stroke:#ff0000;stroke-linecap:square;stroke-width:1.5;"/>
   </g>
   <g id="patch_8">
    <path d="M 72 384.48 
L 72 51.84 
" style="fill:none;stroke:#000000;stroke-linecap:square;stroke-linejoin:miter;stroke-width:0.8;"/>
   </g>
   <g id="patch_9">
    <path d="M 518.4 384.48 
L 518.4 51.84 
" style="fill:none;stroke:#000000;stroke-linecap:square;stroke-linejoin:miter;stroke-width:0.8;"/>
   </g>
   <g id="patch_10">
    <path d="M 72 384.48 
L 518.4 384.48 
" style="fill:none;stroke:#000000;stroke-linecap:square;stroke-linejoin:miter;stroke-width:0.8;"/>
   </g>
   <g id="patch_11">
    <path d="M 72 51.84 
L 518.4 51.84 
" style="fill:none;stroke:#000000;stroke-linecap:square;stroke-linejoin:miter;stroke-width:0.8;"/>
   </g>
   <g id="text_23">
    <!-- The learning curve on _non_iid_agg_modify/host/7 -->
    <g transform="translate(141.023438 45.84)scale(0.12 -0.12)">
     <defs>
      <path d="M -0.296875 72.90625 
L 61.375 72.90625 
L 61.375 64.59375 
L 35.5 64.59375 
L 35.5 0 
L 25.59375 0 
L 25.59375 64.59375 
L -0.296875 64.59375 
z
" id="DejaVuSans-84"/>
      <path id="DejaVuSans-32"/>
      <path d="M 45.40625 27.984375 
Q 45.40625 37.75 41.375 43.109375 
Q 37.359375 48.484375 30.078125 48.484375 
Q 22.859375 48.484375 18.828125 43.109375 
Q 14.796875 37.75 14.796875 27.984375 
Q 14.796875 18.265625 18.828125 12.890625 
Q 22.859375 7.515625 30.078125 7.515625 
Q 37.359375 7.515625 41.375 12.890625 
Q 45.40625 18.265625 45.40625 27.984375 
z
M 54.390625 6.78125 
Q 54.390625 -7.171875 48.1875 -13.984375 
Q 42 -20.796875 29.203125 -20.796875 
Q 24.46875 -20.796875 20.265625 -20.09375 
Q 16.0625 -19.390625 12.109375 -17.921875 
L 12.109375 -9.1875 
Q 16.0625 -11.328125 19.921875 -12.34375 
Q 23.78125 -13.375 27.78125 -13.375 
Q 36.625 -13.375 41.015625 -8.765625 
Q 45.40625 -4.15625 45.40625 5.171875 
L 45.40625 9.625 
Q 42.625 4.78125 38.28125 2.390625 
Q 33.9375 0 27.875 0 
Q 17.828125 0 11.671875 7.65625 
Q 5.515625 15.328125 5.515625 27.984375 
Q 5.515625 40.671875 11.671875 48.328125 
Q 17.828125 56 27.875 56 
Q 33.9375 56 38.28125 53.609375 
Q 42.625 51.21875 45.40625 46.390625 
L 45.40625 54.6875 
L 54.390625 54.6875 
z
" id="DejaVuSans-103"/>
      <path d="M 8.5 21.578125 
L 8.5 54.6875 
L 17.484375 54.6875 
L 17.484375 21.921875 
Q 17.484375 14.15625 20.5 10.265625 
Q 23.53125 6.390625 29.59375 6.390625 
Q 36.859375 6.390625 41.078125 11.03125 
Q 45.3125 15.671875 45.3125 23.6875 
L 45.3125 54.6875 
L 54.296875 54.6875 
L 54.296875 0 
L 45.3125 0 
L 45.3125 8.40625 
Q 42.046875 3.421875 37.71875 1 
Q 33.40625 -1.421875 27.6875 -1.421875 
Q 18.265625 -1.421875 13.375 4.4375 
Q 8.5 10.296875 8.5 21.578125 
z
M 31.109375 56 
z
" id="DejaVuSans-117"/>
      <path d="M 2.984375 54.6875 
L 12.5 54.6875 
L 29.59375 8.796875 
L 46.6875 54.6875 
L 56.203125 54.6875 
L 35.6875 0 
L 23.484375 0 
z
" id="DejaVuSans-118"/>
      <path d="M 30.953125 67.4375 
L 56.203125 0 
L 46.6875 0 
L 31.34375 40.4375 
L 12.5 0 
L 2.984375 0 
L 26.953125 52.4375 
L 23.34375 62.109375 
Q 21.046875 68.265625 15.828125 68.265625 
L 11.140625 68.265625 
L 11.140625 75.984375 
L 16.84375 75.875 
Q 27.875 75.734375 30.953125 67.4375 
z
" id="DejaVuSans-955"/>
      <path d="M 50.984375 -16.609375 
L 50.984375 -23.578125 
L -0.984375 -23.578125 
L -0.984375 -16.609375 
z
" id="DejaVuSans-95"/>
      <path d="M 45.40625 46.390625 
L 45.40625 75.984375 
L 54.390625 75.984375 
L 54.390625 0 
L 45.40625 0 
L 45.40625 8.203125 
Q 42.578125 3.328125 38.25 0.953125 
Q 33.9375 -1.421875 27.875 -1.421875 
Q 17.96875 -1.421875 11.734375 6.484375 
Q 5.515625 14.40625 5.515625 27.296875 
Q 5.515625 40.1875 11.734375 48.09375 
Q 17.96875 56 27.875 56 
Q 33.9375 56 38.25 53.625 
Q 42.578125 51.265625 45.40625 46.390625 
z
M 14.796875 27.296875 
Q 14.796875 17.390625 18.875 11.75 
Q 22.953125 6.109375 30.078125 6.109375 
Q 37.203125 6.109375 41.296875 11.75 
Q 45.40625 17.390625 45.40625 27.296875 
Q 45.40625 37.203125 41.296875 42.84375 
Q 37.203125 48.484375 30.078125 48.484375 
Q 22.953125 48.484375 18.875 42.84375 
Q 14.796875 37.203125 14.796875 27.296875 
z
" id="DejaVuSans-100"/>
      <path d="M 52 44.1875 
Q 55.375 50.25 60.0625 53.125 
Q 64.75 56 71.09375 56 
Q 79.640625 56 84.28125 50.015625 
Q 88.921875 44.046875 88.921875 33.015625 
L 88.921875 0 
L 79.890625 0 
L 79.890625 32.71875 
Q 79.890625 40.578125 77.09375 44.375 
Q 74.3125 48.1875 68.609375 48.1875 
Q 61.625 48.1875 57.5625 43.546875 
Q 53.515625 38.921875 53.515625 30.90625 
L 53.515625 0 
L 44.484375 0 
L 44.484375 32.71875 
Q 44.484375 40.625 41.703125 44.40625 
Q 38.921875 48.1875 33.109375 48.1875 
Q 26.21875 48.1875 22.15625 43.53125 
Q 18.109375 38.875 18.109375 30.90625 
L 18.109375 0 
L 9.078125 0 
L 9.078125 54.6875 
L 18.109375 54.6875 
L 18.109375 46.1875 
Q 21.1875 51.21875 25.484375 53.609375 
Q 29.78125 56 35.6875 56 
Q 41.65625 56 45.828125 52.96875 
Q 50 49.953125 52 44.1875 
z
" id="DejaVuSans-109"/>
      <path d="M 37.109375 75.984375 
L 37.109375 68.5 
L 28.515625 68.5 
Q 23.6875 68.5 21.796875 66.546875 
Q 19.921875 64.59375 19.921875 59.515625 
L 19.921875 54.6875 
L 34.71875 54.6875 
L 34.71875 47.703125 
L 19.921875 47.703125 
L 19.921875 0 
L 10.890625 0 
L 10.890625 47.703125 
L 2.296875 47.703125 
L 2.296875 54.6875 
L 10.890625 54.6875 
L 10.890625 58.5 
Q 10.890625 67.625 15.140625 71.796875 
Q 19.390625 75.984375 28.609375 75.984375 
z
" id="DejaVuSans-102"/>
      <path d="M 32.171875 -5.078125 
Q 28.375 -14.84375 24.75 -17.8125 
Q 21.140625 -20.796875 15.09375 -20.796875 
L 7.90625 -20.796875 
L 7.90625 -13.28125 
L 13.1875 -13.28125 
Q 16.890625 -13.28125 18.9375 -11.515625 
Q 21 -9.765625 23.484375 -3.21875 
L 25.09375 0.875 
L 2.984375 54.6875 
L 12.5 54.6875 
L 29.59375 11.921875 
L 46.6875 54.6875 
L 56.203125 54.6875 
z
" id="DejaVuSans-121"/>
      <path d="M 25.390625 72.90625 
L 33.6875 72.90625 
L 8.296875 -9.28125 
L 0 -9.28125 
z
" id="DejaVuSans-47"/>
      <path d="M 8.203125 72.90625 
L 55.078125 72.90625 
L 55.078125 68.703125 
L 28.609375 0 
L 18.3125 0 
L 43.21875 64.59375 
L 8.203125 64.59375 
z
" id="DejaVuSans-55"/>
     </defs>
     <use xlink:href="#DejaVuSans-84"/>
     <use x="61.083984" xlink:href="#DejaVuSans-104"/>
     <use x="124.462891" xlink:href="#DejaVuSans-101"/>
     <use x="185.986328" xlink:href="#DejaVuSans-32"/>
     <use x="217.773438" xlink:href="#DejaVuSans-108"/>
     <use x="245.556641" xlink:href="#DejaVuSans-101"/>
     <use x="307.080078" xlink:href="#DejaVuSans-97"/>
     <use x="368.359375" xlink:href="#DejaVuSans-114"/>
     <use x="407.722656" xlink:href="#DejaVuSans-110"/>
     <use x="471.101562" xlink:href="#DejaVuSans-105"/>
     <use x="498.884766" xlink:href="#DejaVuSans-110"/>
     <use x="562.263672" xlink:href="#DejaVuSans-103"/>
     <use x="625.740234" xlink:href="#DejaVuSans-32"/>
     <use x="657.527344" xlink:href="#DejaVuSans-99"/>
     <use x="712.507812" xlink:href="#DejaVuSans-117"/>
     <use x="775.886719" xlink:href="#DejaVuSans-114"/>
     <use x="817" xlink:href="#DejaVuSans-118"/>
     <use x="876.179688" xlink:href="#DejaVuSans-101"/>
     <use x="937.703125" xlink:href="#DejaVuSans-32"/>
     <use x="969.490234" xlink:href="#DejaVuSans-111"/>
     <use x="1030.671875" xlink:href="#DejaVuSans-110"/>
     <use x="1094.050781" xlink:href="#DejaVuSans-32"/>
     <use x="1125.837891" xlink:href="#DejaVuSans-955"/>
     <use x="1185.017578" xlink:href="#DejaVuSans-95"/>
     <use x="1235.017578" xlink:href="#DejaVuSans-110"/>
     <use x="1298.396484" xlink:href="#DejaVuSans-111"/>
     <use x="1359.578125" xlink:href="#DejaVuSans-110"/>
     <use x="1422.957031" xlink:href="#DejaVuSans-95"/>
     <use x="1472.957031" xlink:href="#DejaVuSans-105"/>
     <use x="1500.740234" xlink:href="#DejaVuSans-105"/>
     <use x="1528.523438" xlink:href="#DejaVuSans-100"/>
     <use x="1592" xlink:href="#DejaVuSans-95"/>
     <use x="1642" xlink:href="#DejaVuSans-97"/>
     <use x="1703.279297" xlink:href="#DejaVuSans-103"/>
     <use x="1766.755859" xlink:href="#DejaVuSans-103"/>
     <use x="1830.232422" xlink:href="#DejaVuSans-95"/>
     <use x="1880.232422" xlink:href="#DejaVuSans-109"/>
     <use x="1977.644531" xlink:href="#DejaVuSans-111"/>
     <use x="2038.826172" xlink:href="#DejaVuSans-100"/>
     <use x="2102.302734" xlink:href="#DejaVuSans-105"/>
     <use x="2130.085938" xlink:href="#DejaVuSans-102"/>
     <use x="2163.541016" xlink:href="#DejaVuSans-121"/>
     <use x="2222.720703" xlink:href="#DejaVuSans-47"/>
     <use x="2256.412109" xlink:href="#DejaVuSans-104"/>
     <use x="2319.791016" xlink:href="#DejaVuSans-111"/>
     <use x="2380.972656" xlink:href="#DejaVuSans-115"/>
     <use x="2433.072266" xlink:href="#DejaVuSans-116"/>
     <use x="2472.28125" xlink:href="#DejaVuSans-47"/>
     <use x="2505.972656" xlink:href="#DejaVuSans-55"/>
    </g>
   </g>
   <g id="legend_2">
    <g id="patch_12">
     <path d="M 460.084375 74.518125 
L 511.4 74.518125 
Q 513.4 74.518125 513.4 72.518125 
L 513.4 58.84 
Q 513.4 56.84 511.4 56.84 
L 460.084375 56.84 
Q 458.084375 56.84 458.084375 58.84 
L 458.084375 72.518125 
Q 458.084375 74.518125 460.084375 74.518125 
z
" style="fill:#ffffff;opacity:0.8;stroke:#cccccc;stroke-linejoin:miter;"/>
    </g>
    <g id="line2d_25">
     <path d="M 462.084375 64.938438 
L 482.084375 64.938438 
" style="fill:none;stroke:#ff0000;stroke-linecap:square;stroke-width:1.5;"/>
    </g>
    <g id="line2d_26"/>
    <g id="text_24">
     <!-- loss -->
     <g transform="translate(490.084375 68.438438)scale(0.1 -0.1)">
      <use xlink:href="#DejaVuSans-108"/>
      <use x="27.783203" xlink:href="#DejaVuSans-111"/>
      <use x="88.964844" xlink:href="#DejaVuSans-115"/>
      <use x="141.064453" xlink:href="#DejaVuSans-115"/>
     </g>
    </g>
   </g>
  </g>
 </g>
 <defs>
  <clipPath id="p4dce6e9464">
   <rect height="332.64" width="446.4" x="72" y="51.84"/>
  </clipPath>
 </defs>
</svg>
