<?xml version="1.0" encoding="utf-8" standalone="no"?>
<!DOCTYPE svg PUBLIC "-//W3C//DTD SVG 1.1//EN"
  "http://www.w3.org/Graphics/SVG/1.1/DTD/svg11.dtd">
<!-- Created with matplotlib (https://matplotlib.org/) -->
<svg height="432pt" version="1.1" viewBox="0 0 576 432" width="576pt" xmlns="http://www.w3.org/2000/svg" xmlns:xlink="http://www.w3.org/1999/xlink">
 <metadata>
  <rdf:RDF xmlns:cc="http://creativecommons.org/ns#" xmlns:dc="http://purl.org/dc/elements/1.1/" xmlns:rdf="http://www.w3.org/1999/02/22-rdf-syntax-ns#">
   <cc:Work>
    <dc:type rdf:resource="http://purl.org/dc/dcmitype/StillImage"/>
    <dc:date>2023-04-18T10:01:56.976049</dc:date>
    <dc:format>image/svg+xml</dc:format>
    <dc:creator>
     <cc:Agent>
      <dc:title>Matplotlib v3.3.4, https://matplotlib.org/</dc:title>
     </cc:Agent>
    </dc:creator>
   </cc:Work>
  </rdf:RDF>
 </metadata>
 <defs>
  <style type="text/css">*{stroke-linecap:butt;stroke-linejoin:round;}</style>
 </defs>
 <g id="figure_1">
  <g id="patch_1">
   <path d="M 0 432 
L 576 432 
L 576 0 
L 0 0 
z
" style="fill:#ffffff;"/>
  </g>
  <g id="axes_1">
   <g id="patch_2">
    <path d="M 72 384.48 
L 518.4 384.48 
L 518.4 51.84 
L 72 51.84 
z
" style="fill:#ffffff;"/>
   </g>
   <g id="matplotlib.axis_1">
    <g id="xtick_1">
     <g id="line2d_1">
      <defs>
       <path d="M 0 0 
L 0 3.5 
" id="mf9fed88363" style="stroke:#000000;stroke-width:0.8;"/>
      </defs>
      <g>
       <use style="stroke:#000000;stroke-width:0.8;" x="92.290909" xlink:href="#mf9fed88363" y="384.48"/>
      </g>
     </g>
     <g id="text_1">
      <!-- 0 -->
      <g transform="translate(89.109659 399.078438)scale(0.1 -0.1)">
       <defs>
        <path d="M 31.78125 66.40625 
Q 24.171875 66.40625 20.328125 58.90625 
Q 16.5 51.421875 16.5 36.375 
Q 16.5 21.390625 20.328125 13.890625 
Q 24.171875 6.390625 31.78125 6.390625 
Q 39.453125 6.390625 43.28125 13.890625 
Q 47.125 21.390625 47.125 36.375 
Q 47.125 51.421875 43.28125 58.90625 
Q 39.453125 66.40625 31.78125 66.40625 
z
M 31.78125 74.21875 
Q 44.046875 74.21875 50.515625 64.515625 
Q 56.984375 54.828125 56.984375 36.375 
Q 56.984375 17.96875 50.515625 8.265625 
Q 44.046875 -1.421875 31.78125 -1.421875 
Q 19.53125 -1.421875 13.0625 8.265625 
Q 6.59375 17.96875 6.59375 36.375 
Q 6.59375 54.828125 13.0625 64.515625 
Q 19.53125 74.21875 31.78125 74.21875 
z
" id="DejaVuSans-48"/>
       </defs>
       <use xlink:href="#DejaVuSans-48"/>
      </g>
     </g>
    </g>
    <g id="xtick_2">
     <g id="line2d_2">
      <g>
       <use style="stroke:#000000;stroke-width:0.8;" x="173.617198" xlink:href="#mf9fed88363" y="384.48"/>
      </g>
     </g>
     <g id="text_2">
      <!-- 100 -->
      <g transform="translate(164.073448 399.078438)scale(0.1 -0.1)">
       <defs>
        <path d="M 12.40625 8.296875 
L 28.515625 8.296875 
L 28.515625 63.921875 
L 10.984375 60.40625 
L 10.984375 69.390625 
L 28.421875 72.90625 
L 38.28125 72.90625 
L 38.28125 8.296875 
L 54.390625 8.296875 
L 54.390625 0 
L 12.40625 0 
z
" id="DejaVuSans-49"/>
       </defs>
       <use xlink:href="#DejaVuSans-49"/>
       <use x="63.623047" xlink:href="#DejaVuSans-48"/>
       <use x="127.246094" xlink:href="#DejaVuSans-48"/>
      </g>
     </g>
    </g>
    <g id="xtick_3">
     <g id="line2d_3">
      <g>
       <use style="stroke:#000000;stroke-width:0.8;" x="254.943487" xlink:href="#mf9fed88363" y="384.48"/>
      </g>
     </g>
     <g id="text_3">
      <!-- 200 -->
      <g transform="translate(245.399737 399.078438)scale(0.1 -0.1)">
       <defs>
        <path d="M 19.1875 8.296875 
L 53.609375 8.296875 
L 53.609375 0 
L 7.328125 0 
L 7.328125 8.296875 
Q 12.9375 14.109375 22.625 23.890625 
Q 32.328125 33.6875 34.8125 36.53125 
Q 39.546875 41.84375 41.421875 45.53125 
Q 43.3125 49.21875 43.3125 52.78125 
Q 43.3125 58.59375 39.234375 62.25 
Q 35.15625 65.921875 28.609375 65.921875 
Q 23.96875 65.921875 18.8125 64.3125 
Q 13.671875 62.703125 7.8125 59.421875 
L 7.8125 69.390625 
Q 13.765625 71.78125 18.9375 73 
Q 24.125 74.21875 28.421875 74.21875 
Q 39.75 74.21875 46.484375 68.546875 
Q 53.21875 62.890625 53.21875 53.421875 
Q 53.21875 48.921875 51.53125 44.890625 
Q 49.859375 40.875 45.40625 35.40625 
Q 44.1875 33.984375 37.640625 27.21875 
Q 31.109375 20.453125 19.1875 8.296875 
z
" id="DejaVuSans-50"/>
       </defs>
       <use xlink:href="#DejaVuSans-50"/>
       <use x="63.623047" xlink:href="#DejaVuSans-48"/>
       <use x="127.246094" xlink:href="#DejaVuSans-48"/>
      </g>
     </g>
    </g>
    <g id="xtick_4">
     <g id="line2d_4">
      <g>
       <use style="stroke:#000000;stroke-width:0.8;" x="336.269776" xlink:href="#mf9fed88363" y="384.48"/>
      </g>
     </g>
     <g id="text_4">
      <!-- 300 -->
      <g transform="translate(326.726026 399.078438)scale(0.1 -0.1)">
       <defs>
        <path d="M 40.578125 39.3125 
Q 47.65625 37.796875 51.625 33 
Q 55.609375 28.21875 55.609375 21.1875 
Q 55.609375 10.40625 48.1875 4.484375 
Q 40.765625 -1.421875 27.09375 -1.421875 
Q 22.515625 -1.421875 17.65625 -0.515625 
Q 12.796875 0.390625 7.625 2.203125 
L 7.625 11.71875 
Q 11.71875 9.328125 16.59375 8.109375 
Q 21.484375 6.890625 26.8125 6.890625 
Q 36.078125 6.890625 40.9375 10.546875 
Q 45.796875 14.203125 45.796875 21.1875 
Q 45.796875 27.640625 41.28125 31.265625 
Q 36.765625 34.90625 28.71875 34.90625 
L 20.21875 34.90625 
L 20.21875 43.015625 
L 29.109375 43.015625 
Q 36.375 43.015625 40.234375 45.921875 
Q 44.09375 48.828125 44.09375 54.296875 
Q 44.09375 59.90625 40.109375 62.90625 
Q 36.140625 65.921875 28.71875 65.921875 
Q 24.65625 65.921875 20.015625 65.03125 
Q 15.375 64.15625 9.8125 62.3125 
L 9.8125 71.09375 
Q 15.4375 72.65625 20.34375 73.4375 
Q 25.25 74.21875 29.59375 74.21875 
Q 40.828125 74.21875 47.359375 69.109375 
Q 53.90625 64.015625 53.90625 55.328125 
Q 53.90625 49.265625 50.4375 45.09375 
Q 46.96875 40.921875 40.578125 39.3125 
z
" id="DejaVuSans-51"/>
       </defs>
       <use xlink:href="#DejaVuSans-51"/>
       <use x="63.623047" xlink:href="#DejaVuSans-48"/>
       <use x="127.246094" xlink:href="#DejaVuSans-48"/>
      </g>
     </g>
    </g>
    <g id="xtick_5">
     <g id="line2d_5">
      <g>
       <use style="stroke:#000000;stroke-width:0.8;" x="417.596065" xlink:href="#mf9fed88363" y="384.48"/>
      </g>
     </g>
     <g id="text_5">
      <!-- 400 -->
      <g transform="translate(408.052315 399.078438)scale(0.1 -0.1)">
       <defs>
        <path d="M 37.796875 64.3125 
L 12.890625 25.390625 
L 37.796875 25.390625 
z
M 35.203125 72.90625 
L 47.609375 72.90625 
L 47.609375 25.390625 
L 58.015625 25.390625 
L 58.015625 17.1875 
L 47.609375 17.1875 
L 47.609375 0 
L 37.796875 0 
L 37.796875 17.1875 
L 4.890625 17.1875 
L 4.890625 26.703125 
z
" id="DejaVuSans-52"/>
       </defs>
       <use xlink:href="#DejaVuSans-52"/>
       <use x="63.623047" xlink:href="#DejaVuSans-48"/>
       <use x="127.246094" xlink:href="#DejaVuSans-48"/>
      </g>
     </g>
    </g>
    <g id="xtick_6">
     <g id="line2d_6">
      <g>
       <use style="stroke:#000000;stroke-width:0.8;" x="498.922354" xlink:href="#mf9fed88363" y="384.48"/>
      </g>
     </g>
     <g id="text_6">
      <!-- 500 -->
      <g transform="translate(489.378604 399.078438)scale(0.1 -0.1)">
       <defs>
        <path d="M 10.796875 72.90625 
L 49.515625 72.90625 
L 49.515625 64.59375 
L 19.828125 64.59375 
L 19.828125 46.734375 
Q 21.96875 47.46875 24.109375 47.828125 
Q 26.265625 48.1875 28.421875 48.1875 
Q 40.625 48.1875 47.75 41.5 
Q 54.890625 34.8125 54.890625 23.390625 
Q 54.890625 11.625 47.5625 5.09375 
Q 40.234375 -1.421875 26.90625 -1.421875 
Q 22.3125 -1.421875 17.546875 -0.640625 
Q 12.796875 0.140625 7.71875 1.703125 
L 7.71875 11.625 
Q 12.109375 9.234375 16.796875 8.0625 
Q 21.484375 6.890625 26.703125 6.890625 
Q 35.15625 6.890625 40.078125 11.328125 
Q 45.015625 15.765625 45.015625 23.390625 
Q 45.015625 31 40.078125 35.4375 
Q 35.15625 39.890625 26.703125 39.890625 
Q 22.75 39.890625 18.8125 39.015625 
Q 14.890625 38.140625 10.796875 36.28125 
z
" id="DejaVuSans-53"/>
       </defs>
       <use xlink:href="#DejaVuSans-53"/>
       <use x="63.623047" xlink:href="#DejaVuSans-48"/>
       <use x="127.246094" xlink:href="#DejaVuSans-48"/>
      </g>
     </g>
    </g>
    <g id="text_7">
     <!-- epoch -->
     <g transform="translate(279.971875 412.756563)scale(0.1 -0.1)">
      <defs>
       <path d="M 56.203125 29.59375 
L 56.203125 25.203125 
L 14.890625 25.203125 
Q 15.484375 15.921875 20.484375 11.0625 
Q 25.484375 6.203125 34.421875 6.203125 
Q 39.59375 6.203125 44.453125 7.46875 
Q 49.3125 8.734375 54.109375 11.28125 
L 54.109375 2.78125 
Q 49.265625 0.734375 44.1875 -0.34375 
Q 39.109375 -1.421875 33.890625 -1.421875 
Q 20.796875 -1.421875 13.15625 6.1875 
Q 5.515625 13.8125 5.515625 26.8125 
Q 5.515625 40.234375 12.765625 48.109375 
Q 20.015625 56 32.328125 56 
Q 43.359375 56 49.78125 48.890625 
Q 56.203125 41.796875 56.203125 29.59375 
z
M 47.21875 32.234375 
Q 47.125 39.59375 43.09375 43.984375 
Q 39.0625 48.390625 32.421875 48.390625 
Q 24.90625 48.390625 20.390625 44.140625 
Q 15.875 39.890625 15.1875 32.171875 
z
" id="DejaVuSans-101"/>
       <path d="M 18.109375 8.203125 
L 18.109375 -20.796875 
L 9.078125 -20.796875 
L 9.078125 54.6875 
L 18.109375 54.6875 
L 18.109375 46.390625 
Q 20.953125 51.265625 25.265625 53.625 
Q 29.59375 56 35.59375 56 
Q 45.5625 56 51.78125 48.09375 
Q 58.015625 40.1875 58.015625 27.296875 
Q 58.015625 14.40625 51.78125 6.484375 
Q 45.5625 -1.421875 35.59375 -1.421875 
Q 29.59375 -1.421875 25.265625 0.953125 
Q 20.953125 3.328125 18.109375 8.203125 
z
M 48.6875 27.296875 
Q 48.6875 37.203125 44.609375 42.84375 
Q 40.53125 48.484375 33.40625 48.484375 
Q 26.265625 48.484375 22.1875 42.84375 
Q 18.109375 37.203125 18.109375 27.296875 
Q 18.109375 17.390625 22.1875 11.75 
Q 26.265625 6.109375 33.40625 6.109375 
Q 40.53125 6.109375 44.609375 11.75 
Q 48.6875 17.390625 48.6875 27.296875 
z
" id="DejaVuSans-112"/>
       <path d="M 30.609375 48.390625 
Q 23.390625 48.390625 19.1875 42.75 
Q 14.984375 37.109375 14.984375 27.296875 
Q 14.984375 17.484375 19.15625 11.84375 
Q 23.34375 6.203125 30.609375 6.203125 
Q 37.796875 6.203125 41.984375 11.859375 
Q 46.1875 17.53125 46.1875 27.296875 
Q 46.1875 37.015625 41.984375 42.703125 
Q 37.796875 48.390625 30.609375 48.390625 
z
M 30.609375 56 
Q 42.328125 56 49.015625 48.375 
Q 55.71875 40.765625 55.71875 27.296875 
Q 55.71875 13.875 49.015625 6.21875 
Q 42.328125 -1.421875 30.609375 -1.421875 
Q 18.84375 -1.421875 12.171875 6.21875 
Q 5.515625 13.875 5.515625 27.296875 
Q 5.515625 40.765625 12.171875 48.375 
Q 18.84375 56 30.609375 56 
z
" id="DejaVuSans-111"/>
       <path d="M 48.78125 52.59375 
L 48.78125 44.1875 
Q 44.96875 46.296875 41.140625 47.34375 
Q 37.3125 48.390625 33.40625 48.390625 
Q 24.65625 48.390625 19.8125 42.84375 
Q 14.984375 37.3125 14.984375 27.296875 
Q 14.984375 17.28125 19.8125 11.734375 
Q 24.65625 6.203125 33.40625 6.203125 
Q 37.3125 6.203125 41.140625 7.25 
Q 44.96875 8.296875 48.78125 10.40625 
L 48.78125 2.09375 
Q 45.015625 0.34375 40.984375 -0.53125 
Q 36.96875 -1.421875 32.421875 -1.421875 
Q 20.0625 -1.421875 12.78125 6.34375 
Q 5.515625 14.109375 5.515625 27.296875 
Q 5.515625 40.671875 12.859375 48.328125 
Q 20.21875 56 33.015625 56 
Q 37.15625 56 41.109375 55.140625 
Q 45.0625 54.296875 48.78125 52.59375 
z
" id="DejaVuSans-99"/>
       <path d="M 54.890625 33.015625 
L 54.890625 0 
L 45.90625 0 
L 45.90625 32.71875 
Q 45.90625 40.484375 42.875 44.328125 
Q 39.84375 48.1875 33.796875 48.1875 
Q 26.515625 48.1875 22.3125 43.546875 
Q 18.109375 38.921875 18.109375 30.90625 
L 18.109375 0 
L 9.078125 0 
L 9.078125 75.984375 
L 18.109375 75.984375 
L 18.109375 46.1875 
Q 21.34375 51.125 25.703125 53.5625 
Q 30.078125 56 35.796875 56 
Q 45.21875 56 50.046875 50.171875 
Q 54.890625 44.34375 54.890625 33.015625 
z
" id="DejaVuSans-104"/>
      </defs>
      <use xlink:href="#DejaVuSans-101"/>
      <use x="61.523438" xlink:href="#DejaVuSans-112"/>
      <use x="125" xlink:href="#DejaVuSans-111"/>
      <use x="186.181641" xlink:href="#DejaVuSans-99"/>
      <use x="241.162109" xlink:href="#DejaVuSans-104"/>
     </g>
    </g>
   </g>
   <g id="matplotlib.axis_2">
    <g id="ytick_1">
     <g id="line2d_7">
      <defs>
       <path d="M 0 0 
L -3.5 0 
" id="mcf90e3b43b" style="stroke:#000000;stroke-width:0.8;"/>
      </defs>
      <g>
       <use style="stroke:#000000;stroke-width:0.8;" x="72" xlink:href="#mcf90e3b43b" y="384.48"/>
      </g>
     </g>
     <g id="text_8">
      <!-- 0.0 -->
      <g transform="translate(49.096875 388.279219)scale(0.1 -0.1)">
       <defs>
        <path d="M 10.6875 12.40625 
L 21 12.40625 
L 21 0 
L 10.6875 0 
z
" id="DejaVuSans-46"/>
       </defs>
       <use xlink:href="#DejaVuSans-48"/>
       <use x="63.623047" xlink:href="#DejaVuSans-46"/>
       <use x="95.410156" xlink:href="#DejaVuSans-48"/>
      </g>
     </g>
    </g>
    <g id="ytick_2">
     <g id="line2d_8">
      <g>
       <use style="stroke:#000000;stroke-width:0.8;" x="72" xlink:href="#mcf90e3b43b" y="317.952"/>
      </g>
     </g>
     <g id="text_9">
      <!-- 0.2 -->
      <g transform="translate(49.096875 321.751219)scale(0.1 -0.1)">
       <use xlink:href="#DejaVuSans-48"/>
       <use x="63.623047" xlink:href="#DejaVuSans-46"/>
       <use x="95.410156" xlink:href="#DejaVuSans-50"/>
      </g>
     </g>
    </g>
    <g id="ytick_3">
     <g id="line2d_9">
      <g>
       <use style="stroke:#000000;stroke-width:0.8;" x="72" xlink:href="#mcf90e3b43b" y="251.424"/>
      </g>
     </g>
     <g id="text_10">
      <!-- 0.4 -->
      <g transform="translate(49.096875 255.223219)scale(0.1 -0.1)">
       <use xlink:href="#DejaVuSans-48"/>
       <use x="63.623047" xlink:href="#DejaVuSans-46"/>
       <use x="95.410156" xlink:href="#DejaVuSans-52"/>
      </g>
     </g>
    </g>
    <g id="ytick_4">
     <g id="line2d_10">
      <g>
       <use style="stroke:#000000;stroke-width:0.8;" x="72" xlink:href="#mcf90e3b43b" y="184.896"/>
      </g>
     </g>
     <g id="text_11">
      <!-- 0.6 -->
      <g transform="translate(49.096875 188.695219)scale(0.1 -0.1)">
       <defs>
        <path d="M 33.015625 40.375 
Q 26.375 40.375 22.484375 35.828125 
Q 18.609375 31.296875 18.609375 23.390625 
Q 18.609375 15.53125 22.484375 10.953125 
Q 26.375 6.390625 33.015625 6.390625 
Q 39.65625 6.390625 43.53125 10.953125 
Q 47.40625 15.53125 47.40625 23.390625 
Q 47.40625 31.296875 43.53125 35.828125 
Q 39.65625 40.375 33.015625 40.375 
z
M 52.59375 71.296875 
L 52.59375 62.3125 
Q 48.875 64.0625 45.09375 64.984375 
Q 41.3125 65.921875 37.59375 65.921875 
Q 27.828125 65.921875 22.671875 59.328125 
Q 17.53125 52.734375 16.796875 39.40625 
Q 19.671875 43.65625 24.015625 45.921875 
Q 28.375 48.1875 33.59375 48.1875 
Q 44.578125 48.1875 50.953125 41.515625 
Q 57.328125 34.859375 57.328125 23.390625 
Q 57.328125 12.15625 50.6875 5.359375 
Q 44.046875 -1.421875 33.015625 -1.421875 
Q 20.359375 -1.421875 13.671875 8.265625 
Q 6.984375 17.96875 6.984375 36.375 
Q 6.984375 53.65625 15.1875 63.9375 
Q 23.390625 74.21875 37.203125 74.21875 
Q 40.921875 74.21875 44.703125 73.484375 
Q 48.484375 72.75 52.59375 71.296875 
z
" id="DejaVuSans-54"/>
       </defs>
       <use xlink:href="#DejaVuSans-48"/>
       <use x="63.623047" xlink:href="#DejaVuSans-46"/>
       <use x="95.410156" xlink:href="#DejaVuSans-54"/>
      </g>
     </g>
    </g>
    <g id="ytick_5">
     <g id="line2d_11">
      <g>
       <use style="stroke:#000000;stroke-width:0.8;" x="72" xlink:href="#mcf90e3b43b" y="118.368"/>
      </g>
     </g>
     <g id="text_12">
      <!-- 0.8 -->
      <g transform="translate(49.096875 122.167219)scale(0.1 -0.1)">
       <defs>
        <path d="M 31.78125 34.625 
Q 24.75 34.625 20.71875 30.859375 
Q 16.703125 27.09375 16.703125 20.515625 
Q 16.703125 13.921875 20.71875 10.15625 
Q 24.75 6.390625 31.78125 6.390625 
Q 38.8125 6.390625 42.859375 10.171875 
Q 46.921875 13.96875 46.921875 20.515625 
Q 46.921875 27.09375 42.890625 30.859375 
Q 38.875 34.625 31.78125 34.625 
z
M 21.921875 38.8125 
Q 15.578125 40.375 12.03125 44.71875 
Q 8.5 49.078125 8.5 55.328125 
Q 8.5 64.0625 14.71875 69.140625 
Q 20.953125 74.21875 31.78125 74.21875 
Q 42.671875 74.21875 48.875 69.140625 
Q 55.078125 64.0625 55.078125 55.328125 
Q 55.078125 49.078125 51.53125 44.71875 
Q 48 40.375 41.703125 38.8125 
Q 48.828125 37.15625 52.796875 32.3125 
Q 56.78125 27.484375 56.78125 20.515625 
Q 56.78125 9.90625 50.3125 4.234375 
Q 43.84375 -1.421875 31.78125 -1.421875 
Q 19.734375 -1.421875 13.25 4.234375 
Q 6.78125 9.90625 6.78125 20.515625 
Q 6.78125 27.484375 10.78125 32.3125 
Q 14.796875 37.15625 21.921875 38.8125 
z
M 18.3125 54.390625 
Q 18.3125 48.734375 21.84375 45.5625 
Q 25.390625 42.390625 31.78125 42.390625 
Q 38.140625 42.390625 41.71875 45.5625 
Q 45.3125 48.734375 45.3125 54.390625 
Q 45.3125 60.0625 41.71875 63.234375 
Q 38.140625 66.40625 31.78125 66.40625 
Q 25.390625 66.40625 21.84375 63.234375 
Q 18.3125 60.0625 18.3125 54.390625 
z
" id="DejaVuSans-56"/>
       </defs>
       <use xlink:href="#DejaVuSans-48"/>
       <use x="63.623047" xlink:href="#DejaVuSans-46"/>
       <use x="95.410156" xlink:href="#DejaVuSans-56"/>
      </g>
     </g>
    </g>
    <g id="ytick_6">
     <g id="line2d_12">
      <g>
       <use style="stroke:#000000;stroke-width:0.8;" x="72" xlink:href="#mcf90e3b43b" y="51.84"/>
      </g>
     </g>
     <g id="text_13">
      <!-- 1.0 -->
      <g transform="translate(49.096875 55.639219)scale(0.1 -0.1)">
       <use xlink:href="#DejaVuSans-49"/>
       <use x="63.623047" xlink:href="#DejaVuSans-46"/>
       <use x="95.410156" xlink:href="#DejaVuSans-48"/>
      </g>
     </g>
    </g>
    <g id="text_14">
     <!-- rate -->
     <g transform="translate(43.017187 228.31625)rotate(-90)scale(0.1 -0.1)">
      <defs>
       <path d="M 41.109375 46.296875 
Q 39.59375 47.171875 37.8125 47.578125 
Q 36.03125 48 33.890625 48 
Q 26.265625 48 22.1875 43.046875 
Q 18.109375 38.09375 18.109375 28.8125 
L 18.109375 0 
L 9.078125 0 
L 9.078125 54.6875 
L 18.109375 54.6875 
L 18.109375 46.1875 
Q 20.953125 51.171875 25.484375 53.578125 
Q 30.03125 56 36.53125 56 
Q 37.453125 56 38.578125 55.875 
Q 39.703125 55.765625 41.0625 55.515625 
z
" id="DejaVuSans-114"/>
       <path d="M 34.28125 27.484375 
Q 23.390625 27.484375 19.1875 25 
Q 14.984375 22.515625 14.984375 16.5 
Q 14.984375 11.71875 18.140625 8.90625 
Q 21.296875 6.109375 26.703125 6.109375 
Q 34.1875 6.109375 38.703125 11.40625 
Q 43.21875 16.703125 43.21875 25.484375 
L 43.21875 27.484375 
z
M 52.203125 31.203125 
L 52.203125 0 
L 43.21875 0 
L 43.21875 8.296875 
Q 40.140625 3.328125 35.546875 0.953125 
Q 30.953125 -1.421875 24.3125 -1.421875 
Q 15.921875 -1.421875 10.953125 3.296875 
Q 6 8.015625 6 15.921875 
Q 6 25.140625 12.171875 29.828125 
Q 18.359375 34.515625 30.609375 34.515625 
L 43.21875 34.515625 
L 43.21875 35.40625 
Q 43.21875 41.609375 39.140625 45 
Q 35.0625 48.390625 27.6875 48.390625 
Q 23 48.390625 18.546875 47.265625 
Q 14.109375 46.140625 10.015625 43.890625 
L 10.015625 52.203125 
Q 14.9375 54.109375 19.578125 55.046875 
Q 24.21875 56 28.609375 56 
Q 40.484375 56 46.34375 49.84375 
Q 52.203125 43.703125 52.203125 31.203125 
z
" id="DejaVuSans-97"/>
       <path d="M 18.3125 70.21875 
L 18.3125 54.6875 
L 36.8125 54.6875 
L 36.8125 47.703125 
L 18.3125 47.703125 
L 18.3125 18.015625 
Q 18.3125 11.328125 20.140625 9.421875 
Q 21.96875 7.515625 27.59375 7.515625 
L 36.8125 7.515625 
L 36.8125 0 
L 27.59375 0 
Q 17.1875 0 13.234375 3.875 
Q 9.28125 7.765625 9.28125 18.015625 
L 9.28125 47.703125 
L 2.6875 47.703125 
L 2.6875 54.6875 
L 9.28125 54.6875 
L 9.28125 70.21875 
z
" id="DejaVuSans-116"/>
      </defs>
      <use xlink:href="#DejaVuSans-114"/>
      <use x="41.113281" xlink:href="#DejaVuSans-97"/>
      <use x="102.392578" xlink:href="#DejaVuSans-116"/>
      <use x="141.601562" xlink:href="#DejaVuSans-101"/>
     </g>
    </g>
   </g>
   <g id="line2d_13">
    <path clip-path="url(#pb21aabb9b1)" d="M 92.290909 192.58242 
L 93.104172 165.926327 
L 93.917435 162.801054 
L 94.730698 160.974377 
L 95.543961 158.143097 
L 96.357224 158.470376 
L 97.170486 153.149021 
L 97.983749 154.513225 
L 98.797012 148.233226 
L 99.610275 149.838141 
L 100.423538 162.00331 
L 101.236801 141.80411 
L 102.050064 141.715283 
L 102.863327 140.16589 
L 103.67659 139.380487 
L 104.489852 137.747688 
L 105.303115 134.349367 
L 106.116378 132.898468 
L 106.929641 132.824578 
L 107.742904 131.43804 
L 108.556167 159.282479 
L 109.36943 141.01945 
L 110.995956 134.817352 
L 111.809218 132.70399 
L 112.622481 130.985714 
L 113.435744 130.151968 
L 114.249007 125.026745 
L 115.06227 127.05039 
L 115.875533 124.193125 
L 116.688796 160.312001 
L 117.502059 140.942792 
L 118.315322 136.567575 
L 119.128584 130.382655 
L 119.941847 130.365347 
L 120.75511 126.531555 
L 122.381636 123.952695 
L 123.194899 120.314919 
L 124.008162 119.325101 
L 124.821425 158.461171 
L 125.634688 143.172176 
L 126.44795 135.572755 
L 127.261213 130.925643 
L 128.887739 122.568845 
L 129.701002 122.654139 
L 130.514265 121.274721 
L 131.327528 117.430039 
L 132.140791 115.669002 
L 132.954054 157.359524 
L 133.767316 141.573745 
L 134.580579 133.981211 
L 135.393842 128.173748 
L 136.207105 126.947204 
L 137.020368 122.584603 
L 137.833631 120.822525 
L 138.646894 114.694305 
L 139.460157 114.843278 
L 140.27342 111.590997 
L 141.086682 159.700865 
L 141.899945 141.572819 
L 142.713208 135.74536 
L 143.526471 128.952936 
L 144.339734 125.247923 
L 145.152997 123.720991 
L 145.96626 119.960754 
L 146.779523 115.179101 
L 147.592786 114.338371 
L 148.406048 112.149304 
L 149.219311 161.25452 
L 150.032574 142.438817 
L 150.845837 133.741027 
L 153.285626 119.312895 
L 154.098889 118.825583 
L 154.912152 113.579033 
L 155.725414 112.687508 
L 156.538677 109.702912 
L 157.35194 164.423212 
L 158.165203 144.046386 
L 158.978466 133.125247 
L 159.791729 128.290927 
L 160.604992 124.638273 
L 161.418255 121.840774 
L 162.231518 114.316511 
L 163.04478 112.846651 
L 164.671306 108.536086 
L 165.484569 164.774708 
L 166.297832 144.892297 
L 167.111095 135.415999 
L 167.924358 129.161956 
L 168.737621 121.012209 
L 169.550884 116.419906 
L 170.364146 113.965122 
L 171.177409 109.801978 
L 172.803935 107.557601 
L 173.617198 167.408037 
L 174.430461 144.755468 
L 175.243724 136.045439 
L 176.056987 131.419779 
L 176.87025 128.946778 
L 177.683512 122.394703 
L 178.496775 120.442024 
L 179.310038 120.540698 
L 180.123301 115.928077 
L 180.936564 113.990501 
L 181.749827 171.587332 
L 182.56309 150.886756 
L 183.376353 142.804209 
L 184.189616 132.847104 
L 185.002878 127.903101 
L 185.816141 127.09492 
L 186.629404 122.27096 
L 187.442667 121.658226 
L 189.069193 113.691848 
L 189.882456 172.313895 
L 190.695719 148.479406 
L 191.508982 142.678904 
L 192.322244 135.701779 
L 193.135507 132.550596 
L 193.94877 127.01504 
L 194.762033 122.472748 
L 195.575296 119.897546 
L 196.388559 115.993861 
L 197.201822 114.393819 
L 198.015085 174.32795 
L 198.828348 152.819135 
L 199.64161 143.995003 
L 200.454873 137.253351 
L 202.081399 127.344067 
L 202.894662 123.422327 
L 203.707925 122.8317 
L 204.521188 115.787002 
L 205.334451 115.134007 
L 206.147714 176.552822 
L 206.960976 153.368184 
L 207.774239 143.249215 
L 210.214028 126.949699 
L 211.027291 124.622808 
L 212.653817 116.998552 
L 213.46708 116.536764 
L 214.280343 175.35112 
L 215.093605 154.464997 
L 215.906868 143.08136 
L 216.720131 137.745051 
L 217.533394 130.814794 
L 218.346657 126.836387 
L 219.15992 122.195578 
L 219.973183 121.739388 
L 220.786446 121.081906 
L 221.599709 114.649089 
L 222.412971 177.928231 
L 223.226234 154.641291 
L 224.85276 135.379992 
L 225.666023 133.71081 
L 228.105812 120.500222 
L 228.919075 117.407598 
L 229.732337 115.928581 
L 230.5456 176.291048 
L 231.358863 152.780694 
L 232.172126 143.982441 
L 233.798652 133.442628 
L 234.611915 127.978774 
L 235.425178 126.67156 
L 236.238441 121.879776 
L 237.051703 119.405594 
L 237.864966 115.628915 
L 238.678229 178.535608 
L 239.491492 153.403835 
L 240.304755 143.490876 
L 241.118018 135.67251 
L 241.931281 136.022514 
L 242.744544 128.227451 
L 243.557807 127.929909 
L 244.371069 123.496132 
L 245.184332 121.375858 
L 245.997595 118.158706 
L 246.810858 182.607577 
L 247.624121 153.921502 
L 248.437384 144.99694 
L 249.250647 138.836883 
L 250.877173 128.204087 
L 251.690435 126.072524 
L 252.503698 124.525765 
L 253.316961 120.30623 
L 254.130224 120.054626 
L 254.943487 181.543707 
L 255.75675 154.817765 
L 256.570013 145.003385 
L 259.009801 130.278518 
L 259.823064 128.324337 
L 260.636327 124.9505 
L 261.44959 122.603255 
L 262.262853 116.931171 
L 263.076116 182.360256 
L 263.889379 154.419258 
L 265.515905 140.906237 
L 266.329167 136.243622 
L 267.14243 134.776895 
L 267.955693 127.378999 
L 268.768956 125.795851 
L 270.395482 117.678202 
L 271.208745 187.25294 
L 272.022008 154.135005 
L 272.835271 146.729505 
L 274.461796 134.775635 
L 275.275059 131.268303 
L 276.088322 128.877805 
L 276.901585 124.898896 
L 278.528111 120.293055 
L 279.341374 188.270071 
L 280.154637 153.268466 
L 281.781162 140.476663 
L 282.594425 136.379643 
L 284.220951 129.661748 
L 285.034214 125.011692 
L 285.847477 124.540732 
L 286.66074 123.898127 
L 287.474003 191.195894 
L 288.287265 154.728419 
L 289.100528 144.636504 
L 289.913791 140.845775 
L 290.727054 135.084108 
L 291.540317 136.072767 
L 292.35358 131.828034 
L 293.166843 125.370695 
L 293.980106 123.660107 
L 294.793369 122.400967 
L 295.606631 184.882708 
L 296.419894 152.724885 
L 297.233157 148.495609 
L 298.04642 141.081463 
L 298.859683 136.751009 
L 299.672946 135.794941 
L 300.486209 132.874325 
L 301.299472 127.29085 
L 302.112735 125.965569 
L 302.925997 123.900134 
L 303.73926 189.64181 
L 304.552523 154.275302 
L 305.365786 148.002616 
L 306.179049 143.443438 
L 307.805575 135.204061 
L 308.618838 130.940933 
L 309.432101 128.423151 
L 310.245363 128.258569 
L 311.058626 123.661413 
L 311.871889 189.424165 
L 312.685152 151.780514 
L 313.498415 146.271739 
L 314.311678 142.305701 
L 315.124941 138.952284 
L 315.938204 137.111426 
L 316.751467 135.753226 
L 317.564729 129.695474 
L 318.377992 126.54693 
L 319.191255 124.536775 
L 320.004518 189.064725 
L 320.817781 152.700793 
L 321.631044 146.874492 
L 322.444307 142.651656 
L 323.25757 140.493797 
L 324.070833 135.459963 
L 324.884095 131.914895 
L 325.697358 133.709098 
L 326.510621 127.406649 
L 327.323884 126.683403 
L 328.137147 191.554236 
L 328.95041 155.821813 
L 329.763673 148.219319 
L 330.576936 142.168551 
L 331.390199 138.688958 
L 332.203461 133.969705 
L 333.016724 133.828526 
L 333.829987 132.087966 
L 335.456513 127.183978 
L 336.269776 197.214158 
L 337.083039 155.782428 
L 337.896302 146.343893 
L 339.522827 138.466918 
L 340.33609 138.179516 
L 341.149353 134.847135 
L 341.962616 132.067664 
L 342.775879 128.400873 
L 343.589142 127.542544 
L 344.402405 193.61771 
L 345.215668 156.984055 
L 346.028931 147.677698 
L 346.842193 141.471205 
L 347.655456 139.802454 
L 348.468719 140.087242 
L 349.281982 135.765461 
L 350.095245 133.272629 
L 350.908508 133.345776 
L 351.721771 128.995759 
L 352.535034 193.415183 
L 353.348297 156.476725 
L 354.161559 146.483848 
L 354.974822 144.344989 
L 355.788085 137.542723 
L 356.601348 137.061392 
L 357.414611 136.048934 
L 359.041137 132.293361 
L 359.8544 129.17796 
L 360.667663 199.355919 
L 361.480925 157.559025 
L 362.294188 147.120758 
L 363.107451 142.507293 
L 363.920714 139.252207 
L 364.733977 138.403893 
L 365.54724 135.954525 
L 366.360503 136.904272 
L 367.173766 130.430831 
L 367.987029 130.284233 
L 368.800291 199.313512 
L 369.613554 158.490844 
L 370.426817 148.094075 
L 371.24008 141.375494 
L 372.053343 137.854662 
L 372.866606 137.181903 
L 373.679869 139.570418 
L 374.493132 134.432509 
L 375.306395 132.071949 
L 376.119657 131.142685 
L 376.93292 198.204161 
L 377.746183 160.86483 
L 378.559446 147.605665 
L 379.372709 142.059749 
L 380.185972 139.64523 
L 380.999235 137.593759 
L 381.812498 136.311739 
L 382.625761 135.597055 
L 383.439024 134.498984 
L 384.252286 133.688653 
L 385.065549 196.938311 
L 385.878812 164.648543 
L 387.505338 141.833518 
L 388.318601 137.791723 
L 389.131864 138.315503 
L 389.945127 136.38579 
L 391.571652 131.321183 
L 392.384915 131.965748 
L 393.198178 200.337636 
L 394.011441 164.328077 
L 394.824704 151.595259 
L 395.637967 143.589833 
L 396.45123 140.088295 
L 397.264493 137.656334 
L 398.077756 137.277131 
L 398.891018 136.139468 
L 399.704281 135.305671 
L 400.517544 130.363535 
L 401.330807 200.46612 
L 402.14407 167.636999 
L 402.957333 153.387418 
L 403.770596 144.762522 
L 404.583859 143.199315 
L 405.397122 136.729211 
L 406.210384 138.009012 
L 407.023647 135.255129 
L 407.83691 134.806248 
L 408.650173 134.76024 
L 409.463436 202.976125 
L 410.276699 164.786968 
L 411.089962 153.209711 
L 411.903225 145.022296 
L 412.716488 141.334373 
L 413.52975 138.758804 
L 414.343013 135.16023 
L 415.156276 137.529418 
L 415.969539 133.404367 
L 416.782802 133.907806 
L 417.596065 198.589897 
L 418.409328 167.921206 
L 419.222591 153.092347 
L 420.035854 147.409439 
L 420.849116 142.916245 
L 421.662379 139.052678 
L 422.475642 137.344159 
L 423.288905 137.370511 
L 424.102168 135.497999 
L 424.915431 134.695017 
L 425.728694 202.728357 
L 426.541957 170.35044 
L 427.35522 156.067387 
L 428.168482 144.854442 
L 428.981745 140.91823 
L 429.795008 139.341895 
L 430.608271 134.902833 
L 431.421534 135.503495 
L 432.234797 133.720977 
L 433.04806 134.266908 
L 433.861323 199.817697 
L 434.674586 169.601732 
L 435.487848 157.751534 
L 436.301111 148.385299 
L 437.114374 143.264001 
L 437.927637 139.044708 
L 438.7409 138.531679 
L 439.554163 136.034979 
L 440.367426 135.52246 
L 441.180689 134.235062 
L 441.993952 203.376173 
L 442.807214 174.114741 
L 443.620477 163.560039 
L 444.43374 150.129651 
L 445.247003 143.705991 
L 446.060266 140.926434 
L 446.873529 136.765394 
L 447.686792 135.796955 
L 448.500055 134.179345 
L 449.313318 132.165469 
L 450.12658 204.193192 
L 450.939843 176.628262 
L 451.753106 161.360431 
L 452.566369 150.209007 
L 453.379632 144.926558 
L 454.192895 142.240168 
L 455.006158 139.058273 
L 455.819421 135.352005 
L 456.632684 135.128864 
L 457.445946 135.549531 
L 458.259209 204.36007 
L 459.072472 176.305809 
L 459.885735 162.489008 
L 460.698998 151.388965 
L 461.512261 142.463448 
L 462.325524 143.994503 
L 463.138787 140.266029 
L 463.95205 139.400068 
L 464.765312 134.62593 
L 465.578575 133.838704 
L 466.391838 205.537389 
L 467.205101 180.944848 
L 468.018364 166.107562 
L 468.831627 158.545591 
L 469.64489 148.921055 
L 470.458153 143.325261 
L 472.084678 136.604314 
L 472.897941 135.666673 
L 473.711204 134.425826 
L 474.524467 202.659349 
L 475.33773 180.17854 
L 476.150993 163.34967 
L 477.777519 147.293024 
L 478.590782 147.130094 
L 479.404044 141.00341 
L 480.217307 140.459153 
L 481.03057 138.133059 
L 481.843833 133.753083 
L 482.657096 205.099845 
L 483.470359 179.536388 
L 484.283622 165.742144 
L 485.096885 160.640922 
L 485.910148 153.04921 
L 486.72341 150.735539 
L 488.349936 137.692332 
L 489.163199 137.170308 
L 489.976462 134.974217 
L 490.789725 209.205921 
L 491.602988 186.542318 
L 492.416251 168.939305 
L 494.042776 153.515084 
L 494.856039 148.730492 
L 496.482565 143.109471 
L 497.295828 137.170669 
L 498.109091 135.715427 
L 498.109091 135.715427 
" style="fill:none;stroke:#0000ff;stroke-linecap:square;stroke-width:1.5;"/>
   </g>
   <g id="line2d_14">
    <path clip-path="url(#pb21aabb9b1)" d="M 92.290909 259.695997 
L 93.104172 255.846687 
L 93.917435 253.085736 
L 94.730698 252.37796 
L 95.543961 248.01658 
L 96.357224 248.799281 
L 97.170486 246.674053 
L 97.983749 245.57083 
L 98.797012 241.726468 
L 99.610275 242.910947 
L 100.423538 247.968522 
L 101.236801 237.082158 
L 102.050064 234.666951 
L 103.67659 230.611291 
L 104.489852 229.447612 
L 105.303115 226.91097 
L 106.116378 225.934174 
L 106.929641 224.000542 
L 107.742904 223.433264 
L 108.556167 240.657405 
L 109.36943 228.902347 
L 110.182693 225.541348 
L 111.809218 221.835725 
L 113.435744 218.978295 
L 114.249007 216.145904 
L 115.06227 214.272963 
L 115.875533 212.894071 
L 116.688796 236.852874 
L 117.502059 224.987242 
L 118.315322 221.38621 
L 119.128584 217.126026 
L 119.941847 214.92526 
L 120.75511 214.024692 
L 121.568373 210.78488 
L 122.381636 208.725478 
L 123.194899 206.198355 
L 124.008162 204.1494 
L 124.821425 235.16838 
L 125.634688 223.01023 
L 126.44795 217.023308 
L 127.261213 213.218972 
L 128.074476 210.481133 
L 128.887739 207.336575 
L 129.701002 206.498986 
L 130.514265 202.851063 
L 131.327528 199.981904 
L 132.140791 197.556217 
L 132.954054 233.606024 
L 133.767316 215.905633 
L 135.393842 210.625363 
L 136.207105 206.331145 
L 137.020368 203.559692 
L 137.833631 201.959202 
L 138.646894 195.086965 
L 139.460157 194.246165 
L 140.27342 192.693611 
L 141.086682 235.794785 
L 141.899945 213.667099 
L 142.713208 213.030787 
L 143.526471 207.470713 
L 144.339734 204.340564 
L 145.152997 202.475475 
L 145.96626 198.804115 
L 146.779523 195.794292 
L 147.592786 192.332278 
L 148.406048 190.38605 
L 149.219311 232.800218 
L 150.032574 212.436169 
L 150.845837 211.278124 
L 151.6591 205.701045 
L 152.472363 202.723106 
L 153.285626 197.360887 
L 154.098889 194.706932 
L 154.912152 189.865128 
L 155.725414 189.552698 
L 156.538677 183.946064 
L 157.35194 232.41896 
L 158.165203 212.023481 
L 158.978466 209.699766 
L 159.791729 202.425391 
L 160.604992 199.414008 
L 161.418255 197.329228 
L 162.231518 189.254343 
L 163.04478 186.30336 
L 163.858043 184.947212 
L 164.671306 179.215388 
L 165.484569 231.84952 
L 166.297832 212.123478 
L 167.111095 206.052633 
L 167.924358 201.554108 
L 168.737621 193.452215 
L 169.550884 190.296263 
L 170.364146 185.651209 
L 171.177409 182.571241 
L 171.990672 178.750477 
L 172.803935 176.257408 
L 173.617198 231.189202 
L 174.430461 210.910845 
L 175.243724 205.599755 
L 176.056987 202.496725 
L 176.87025 200.3964 
L 177.683512 195.81626 
L 178.496775 192.411865 
L 179.310038 192.007144 
L 180.123301 187.371927 
L 180.936564 185.279954 
L 181.749827 242.220915 
L 182.56309 212.302988 
L 184.189616 200.775296 
L 185.002878 197.729714 
L 185.816141 195.134217 
L 186.629404 190.611203 
L 187.442667 189.134669 
L 188.25593 185.217269 
L 189.069193 183.335048 
L 189.882456 244.381504 
L 190.695719 207.285111 
L 191.508982 205.269099 
L 192.322244 199.625136 
L 193.135507 195.182925 
L 193.94877 192.326467 
L 195.575296 187.529245 
L 196.388559 182.166942 
L 197.201822 181.731898 
L 198.015085 249.130253 
L 198.828348 206.781654 
L 199.64161 204.551313 
L 200.454873 199.579872 
L 201.268136 196.565633 
L 202.081399 191.624387 
L 202.894662 188.57056 
L 203.707925 187.694506 
L 204.521188 181.92353 
L 205.334451 179.36202 
L 206.147714 250.929308 
L 206.960976 207.648578 
L 207.774239 204.297257 
L 208.587502 198.095487 
L 209.400765 195.664502 
L 210.214028 189.885045 
L 211.027291 189.85548 
L 211.840554 182.995986 
L 212.653817 181.583293 
L 213.46708 179.49653 
L 214.280343 255.029963 
L 215.093605 207.724312 
L 215.906868 205.191446 
L 216.720131 198.240246 
L 217.533394 195.046659 
L 219.15992 185.186216 
L 219.973183 184.57341 
L 220.786446 183.778085 
L 221.599709 179.045059 
L 222.412971 257.664124 
L 223.226234 205.096482 
L 224.039497 202.855295 
L 224.85276 197.167052 
L 225.666023 195.961559 
L 226.479286 190.197757 
L 227.292549 187.381212 
L 228.105812 182.086379 
L 228.919075 179.487325 
L 229.732337 178.472099 
L 230.5456 260.645661 
L 231.358863 203.086462 
L 232.172126 203.310767 
L 232.985389 197.548057 
L 233.798652 194.755144 
L 236.238441 182.990135 
L 237.051703 182.499129 
L 237.864966 177.664276 
L 238.678229 264.834883 
L 239.491492 206.326108 
L 240.304755 203.356819 
L 241.118018 195.754716 
L 241.931281 192.873252 
L 242.744544 188.453338 
L 243.557807 188.679028 
L 244.371069 184.829833 
L 245.184332 181.845842 
L 245.997595 177.301609 
L 246.810858 267.735274 
L 247.624121 206.308095 
L 248.437384 203.849839 
L 250.06391 193.333565 
L 250.877173 189.427849 
L 251.690435 186.784467 
L 252.503698 183.29812 
L 253.316961 183.096009 
L 254.130224 179.889785 
L 254.943487 268.521787 
L 255.75675 209.795238 
L 256.570013 201.367874 
L 257.383276 197.940747 
L 258.196539 195.13278 
L 259.823064 185.863029 
L 260.636327 185.078685 
L 261.44959 180.715662 
L 262.262853 177.162252 
L 263.076116 271.249826 
L 263.889379 211.086728 
L 264.702642 203.630196 
L 265.515905 198.96274 
L 266.329167 196.112986 
L 267.14243 192.158028 
L 267.955693 187.27476 
L 269.582219 182.240022 
L 270.395482 178.368592 
L 271.208745 274.578673 
L 272.022008 215.496719 
L 272.835271 202.644437 
L 273.648533 200.856734 
L 274.461796 194.261263 
L 275.275059 191.314363 
L 276.088322 188.989196 
L 276.901585 183.613795 
L 277.714848 182.273125 
L 278.528111 180.11626 
L 279.341374 277.175323 
L 280.154637 215.839007 
L 280.967899 202.23506 
L 281.781162 200.892003 
L 282.594425 194.929523 
L 284.220951 188.79735 
L 285.034214 185.43983 
L 285.847477 184.570891 
L 286.66074 182.808848 
L 287.474003 281.515361 
L 288.287265 220.571568 
L 289.100528 204.166792 
L 289.913791 197.935766 
L 291.540317 193.785137 
L 292.35358 190.488123 
L 293.166843 185.381374 
L 293.980106 184.572834 
L 294.793369 181.366458 
L 295.606631 281.14711 
L 296.419894 224.91075 
L 297.233157 207.210461 
L 298.04642 200.268968 
L 298.859683 196.202321 
L 299.672946 193.887004 
L 300.486209 192.334537 
L 301.299472 187.103123 
L 302.112735 184.473491 
L 302.925997 184.569108 
L 303.73926 283.454839 
L 304.552523 228.80477 
L 305.365786 209.232794 
L 306.179049 203.96366 
L 306.992312 197.279513 
L 307.805575 193.424586 
L 308.618838 191.912697 
L 309.432101 187.89756 
L 310.245363 187.612466 
L 311.058626 183.416433 
L 311.871889 285.973782 
L 312.685152 233.459648 
L 313.498415 212.306322 
L 314.311678 204.350014 
L 315.124941 199.693899 
L 317.564729 188.902152 
L 318.377992 186.58412 
L 319.191255 184.663312 
L 320.004518 286.761557 
L 320.817781 235.324153 
L 321.631044 213.109612 
L 322.444307 204.811398 
L 324.070833 196.680403 
L 324.884095 192.541066 
L 325.697358 191.483158 
L 326.510621 188.071726 
L 327.323884 186.545541 
L 328.137147 290.983457 
L 328.95041 240.16833 
L 329.763673 217.632007 
L 330.576936 206.350268 
L 331.390199 199.740064 
L 332.203461 197.061096 
L 333.016724 193.29573 
L 333.829987 191.374678 
L 334.64325 188.396986 
L 335.456513 187.731017 
L 336.269776 295.010638 
L 337.083039 246.525799 
L 337.896302 220.763378 
L 338.709565 208.299407 
L 339.522827 202.553636 
L 340.33609 197.90621 
L 341.149353 194.792134 
L 341.962616 192.305651 
L 342.775879 189.102142 
L 343.589142 187.595074 
L 344.402405 295.502511 
L 345.215668 248.884468 
L 346.028931 224.716652 
L 346.842193 211.541528 
L 347.655456 205.26591 
L 348.468719 201.512057 
L 349.281982 195.839382 
L 350.095245 193.253103 
L 350.908508 192.300098 
L 351.721771 188.488237 
L 352.535034 297.415413 
L 353.348297 254.038551 
L 354.161559 229.884697 
L 354.974822 215.8634 
L 355.788085 204.38988 
L 358.227874 195.766661 
L 359.041137 191.866869 
L 359.8544 190.152858 
L 360.667663 300.936768 
L 361.480925 258.453493 
L 362.294188 232.026949 
L 363.107451 218.749022 
L 363.920714 208.618502 
L 364.733977 203.04287 
L 365.54724 199.093461 
L 366.360503 197.391644 
L 367.173766 192.021161 
L 367.987029 191.391015 
L 368.800291 300.099619 
L 369.613554 260.199861 
L 370.426817 237.546122 
L 371.24008 219.836656 
L 372.053343 212.027223 
L 372.866606 205.431868 
L 373.679869 203.016716 
L 374.493132 198.003016 
L 375.306395 194.919001 
L 376.119657 192.461359 
L 376.93292 302.91659 
L 377.746183 266.931971 
L 378.559446 242.694578 
L 379.372709 226.712093 
L 380.185972 216.245338 
L 380.999235 209.122837 
L 381.812498 203.09562 
L 382.625761 199.610947 
L 384.252286 193.63356 
L 385.065549 304.997141 
L 385.878812 272.470328 
L 386.692075 247.534672 
L 387.505338 229.605945 
L 388.318601 216.852752 
L 389.945127 207.648365 
L 390.75839 201.229183 
L 391.571652 196.047261 
L 392.384915 196.321197 
L 393.198178 309.386438 
L 394.011441 275.799946 
L 394.824704 250.506574 
L 395.637967 233.645859 
L 396.45123 223.128237 
L 397.264493 215.150826 
L 398.077756 211.469533 
L 399.704281 202.251067 
L 400.517544 196.663262 
L 401.330807 310.896997 
L 402.14407 278.380876 
L 402.957333 256.773307 
L 403.770596 240.147358 
L 404.583859 227.566005 
L 405.397122 219.898127 
L 406.210384 214.008957 
L 407.023647 206.740655 
L 407.83691 205.601666 
L 408.650173 200.934506 
L 409.463436 314.254782 
L 410.276699 282.886392 
L 411.089962 259.999221 
L 412.716488 231.584321 
L 413.52975 224.511316 
L 414.343013 214.522353 
L 415.156276 212.083389 
L 415.969539 205.051432 
L 416.782802 203.023335 
L 417.596065 313.946705 
L 418.409328 285.852941 
L 419.222591 266.165379 
L 420.035854 250.966136 
L 420.849116 238.07417 
L 421.662379 228.022776 
L 422.475642 221.150046 
L 423.288905 216.752765 
L 424.102168 209.287246 
L 424.915431 207.86646 
L 425.728694 317.732552 
L 426.541957 287.443517 
L 428.168482 253.128625 
L 428.981745 239.595359 
L 429.795008 233.983933 
L 430.608271 224.808287 
L 431.421534 220.74578 
L 432.234797 215.658242 
L 433.04806 211.580003 
L 433.861323 318.164532 
L 434.674586 292.725517 
L 435.487848 274.721327 
L 436.301111 259.561538 
L 437.114374 249.283262 
L 437.927637 237.310927 
L 438.7409 232.149906 
L 439.554163 224.5819 
L 441.180689 212.980236 
L 441.993952 322.384051 
L 442.807214 295.931995 
L 444.43374 264.919876 
L 446.060266 244.360929 
L 446.873529 237.081021 
L 447.686792 226.688986 
L 448.500055 223.360566 
L 449.313318 218.83419 
L 450.12658 322.99736 
L 450.939843 300.811242 
L 451.753106 283.35189 
L 452.566369 268.728113 
L 455.006158 241.068343 
L 456.632684 227.279457 
L 457.445946 224.308786 
L 458.259209 325.751905 
L 459.072472 303.929238 
L 460.698998 274.532828 
L 461.512261 263.408513 
L 463.138787 246.014797 
L 465.578575 227.555452 
L 466.391838 327.94462 
L 467.205101 307.988156 
L 468.018364 293.494047 
L 469.64489 269.813905 
L 471.271416 251.647052 
L 472.084678 243.41047 
L 472.897941 237.9464 
L 473.711204 234.703809 
L 474.524467 328.490356 
L 475.33773 307.769106 
L 476.150993 294.439 
L 476.964256 284.528048 
L 477.777519 272.789538 
L 478.590782 264.195215 
L 479.404044 256.866964 
L 481.843833 239.466107 
L 482.657096 330.913235 
L 483.470359 310.674539 
L 485.096885 286.910869 
L 486.72341 272.461019 
L 487.536673 262.966164 
L 489.976462 244.917017 
L 490.789725 332.755656 
L 491.602988 315.851877 
L 492.416251 302.534176 
L 493.229514 293.851387 
L 494.042776 283.937866 
L 494.856039 275.683251 
L 495.669302 269.384744 
L 496.482565 261.607308 
L 497.295828 257.004227 
L 498.109091 249.003837 
L 498.109091 249.003837 
" style="fill:none;stroke:#008000;stroke-linecap:square;stroke-width:1.5;"/>
   </g>
   <g id="patch_3">
    <path d="M 72 384.48 
L 72 51.84 
" style="fill:none;stroke:#000000;stroke-linecap:square;stroke-linejoin:miter;stroke-width:0.8;"/>
   </g>
   <g id="patch_4">
    <path d="M 518.4 384.48 
L 518.4 51.84 
" style="fill:none;stroke:#000000;stroke-linecap:square;stroke-linejoin:miter;stroke-width:0.8;"/>
   </g>
   <g id="patch_5">
    <path d="M 72 384.48 
L 518.4 384.48 
" style="fill:none;stroke:#000000;stroke-linecap:square;stroke-linejoin:miter;stroke-width:0.8;"/>
   </g>
   <g id="patch_6">
    <path d="M 72 51.84 
L 518.4 51.84 
" style="fill:none;stroke:#000000;stroke-linecap:square;stroke-linejoin:miter;stroke-width:0.8;"/>
   </g>
   <g id="legend_1">
    <g id="patch_7">
     <path d="M 79 89.19625 
L 156.107812 89.19625 
Q 158.107812 89.19625 158.107812 87.19625 
L 158.107812 58.84 
Q 158.107812 56.84 156.107812 56.84 
L 79 56.84 
Q 77 56.84 77 58.84 
L 77 87.19625 
Q 77 89.19625 79 89.19625 
z
" style="fill:#ffffff;opacity:0.8;stroke:#cccccc;stroke-linejoin:miter;"/>
    </g>
    <g id="line2d_15">
     <path d="M 81 64.938437 
L 101 64.938437 
" style="fill:none;stroke:#0000ff;stroke-linecap:square;stroke-width:1.5;"/>
    </g>
    <g id="line2d_16"/>
    <g id="text_15">
     <!-- precision -->
     <g transform="translate(109 68.438437)scale(0.1 -0.1)">
      <defs>
       <path d="M 9.421875 54.6875 
L 18.40625 54.6875 
L 18.40625 0 
L 9.421875 0 
z
M 9.421875 75.984375 
L 18.40625 75.984375 
L 18.40625 64.59375 
L 9.421875 64.59375 
z
" id="DejaVuSans-105"/>
       <path d="M 44.28125 53.078125 
L 44.28125 44.578125 
Q 40.484375 46.53125 36.375 47.5 
Q 32.28125 48.484375 27.875 48.484375 
Q 21.1875 48.484375 17.84375 46.4375 
Q 14.5 44.390625 14.5 40.28125 
Q 14.5 37.15625 16.890625 35.375 
Q 19.28125 33.59375 26.515625 31.984375 
L 29.59375 31.296875 
Q 39.15625 29.25 43.1875 25.515625 
Q 47.21875 21.78125 47.21875 15.09375 
Q 47.21875 7.46875 41.1875 3.015625 
Q 35.15625 -1.421875 24.609375 -1.421875 
Q 20.21875 -1.421875 15.453125 -0.5625 
Q 10.6875 0.296875 5.421875 2 
L 5.421875 11.28125 
Q 10.40625 8.6875 15.234375 7.390625 
Q 20.0625 6.109375 24.8125 6.109375 
Q 31.15625 6.109375 34.5625 8.28125 
Q 37.984375 10.453125 37.984375 14.40625 
Q 37.984375 18.0625 35.515625 20.015625 
Q 33.0625 21.96875 24.703125 23.78125 
L 21.578125 24.515625 
Q 13.234375 26.265625 9.515625 29.90625 
Q 5.8125 33.546875 5.8125 39.890625 
Q 5.8125 47.609375 11.28125 51.796875 
Q 16.75 56 26.8125 56 
Q 31.78125 56 36.171875 55.265625 
Q 40.578125 54.546875 44.28125 53.078125 
z
" id="DejaVuSans-115"/>
       <path d="M 54.890625 33.015625 
L 54.890625 0 
L 45.90625 0 
L 45.90625 32.71875 
Q 45.90625 40.484375 42.875 44.328125 
Q 39.84375 48.1875 33.796875 48.1875 
Q 26.515625 48.1875 22.3125 43.546875 
Q 18.109375 38.921875 18.109375 30.90625 
L 18.109375 0 
L 9.078125 0 
L 9.078125 54.6875 
L 18.109375 54.6875 
L 18.109375 46.1875 
Q 21.34375 51.125 25.703125 53.5625 
Q 30.078125 56 35.796875 56 
Q 45.21875 56 50.046875 50.171875 
Q 54.890625 44.34375 54.890625 33.015625 
z
" id="DejaVuSans-110"/>
      </defs>
      <use xlink:href="#DejaVuSans-112"/>
      <use x="63.476562" xlink:href="#DejaVuSans-114"/>
      <use x="102.339844" xlink:href="#DejaVuSans-101"/>
      <use x="163.863281" xlink:href="#DejaVuSans-99"/>
      <use x="218.84375" xlink:href="#DejaVuSans-105"/>
      <use x="246.626953" xlink:href="#DejaVuSans-115"/>
      <use x="298.726562" xlink:href="#DejaVuSans-105"/>
      <use x="326.509766" xlink:href="#DejaVuSans-111"/>
      <use x="387.691406" xlink:href="#DejaVuSans-110"/>
     </g>
    </g>
    <g id="line2d_17">
     <path d="M 81 79.616562 
L 101 79.616562 
" style="fill:none;stroke:#008000;stroke-linecap:square;stroke-width:1.5;"/>
    </g>
    <g id="line2d_18"/>
    <g id="text_16">
     <!-- recall -->
     <g transform="translate(109 83.116562)scale(0.1 -0.1)">
      <defs>
       <path d="M 9.421875 75.984375 
L 18.40625 75.984375 
L 18.40625 0 
L 9.421875 0 
z
" id="DejaVuSans-108"/>
      </defs>
      <use xlink:href="#DejaVuSans-114"/>
      <use x="38.863281" xlink:href="#DejaVuSans-101"/>
      <use x="100.386719" xlink:href="#DejaVuSans-99"/>
      <use x="155.367188" xlink:href="#DejaVuSans-97"/>
      <use x="216.646484" xlink:href="#DejaVuSans-108"/>
      <use x="244.429688" xlink:href="#DejaVuSans-108"/>
     </g>
    </g>
   </g>
  </g>
  <g id="axes_2">
   <g id="matplotlib.axis_3">
    <g id="ytick_7">
     <g id="line2d_19">
      <defs>
       <path d="M 0 0 
L 3.5 0 
" id="mf74420a581" style="stroke:#000000;stroke-width:0.8;"/>
      </defs>
      <g>
       <use style="stroke:#000000;stroke-width:0.8;" x="518.4" xlink:href="#mf74420a581" y="359.777351"/>
      </g>
     </g>
     <g id="text_17">
      <!-- 0.150 -->
      <g transform="translate(525.4 363.576569)scale(0.1 -0.1)">
       <use xlink:href="#DejaVuSans-48"/>
       <use x="63.623047" xlink:href="#DejaVuSans-46"/>
       <use x="95.410156" xlink:href="#DejaVuSans-49"/>
       <use x="159.033203" xlink:href="#DejaVuSans-53"/>
       <use x="222.65625" xlink:href="#DejaVuSans-48"/>
      </g>
     </g>
    </g>
    <g id="ytick_8">
     <g id="line2d_20">
      <g>
       <use style="stroke:#000000;stroke-width:0.8;" x="518.4" xlink:href="#mf74420a581" y="322.265424"/>
      </g>
     </g>
     <g id="text_18">
      <!-- 0.175 -->
      <g transform="translate(525.4 326.064642)scale(0.1 -0.1)">
       <defs>
        <path d="M 8.203125 72.90625 
L 55.078125 72.90625 
L 55.078125 68.703125 
L 28.609375 0 
L 18.3125 0 
L 43.21875 64.59375 
L 8.203125 64.59375 
z
" id="DejaVuSans-55"/>
       </defs>
       <use xlink:href="#DejaVuSans-48"/>
       <use x="63.623047" xlink:href="#DejaVuSans-46"/>
       <use x="95.410156" xlink:href="#DejaVuSans-49"/>
       <use x="159.033203" xlink:href="#DejaVuSans-55"/>
       <use x="222.65625" xlink:href="#DejaVuSans-53"/>
      </g>
     </g>
    </g>
    <g id="ytick_9">
     <g id="line2d_21">
      <g>
       <use style="stroke:#000000;stroke-width:0.8;" x="518.4" xlink:href="#mf74420a581" y="284.753497"/>
      </g>
     </g>
     <g id="text_19">
      <!-- 0.200 -->
      <g transform="translate(525.4 288.552715)scale(0.1 -0.1)">
       <use xlink:href="#DejaVuSans-48"/>
       <use x="63.623047" xlink:href="#DejaVuSans-46"/>
       <use x="95.410156" xlink:href="#DejaVuSans-50"/>
       <use x="159.033203" xlink:href="#DejaVuSans-48"/>
       <use x="222.65625" xlink:href="#DejaVuSans-48"/>
      </g>
     </g>
    </g>
    <g id="ytick_10">
     <g id="line2d_22">
      <g>
       <use style="stroke:#000000;stroke-width:0.8;" x="518.4" xlink:href="#mf74420a581" y="247.24157"/>
      </g>
     </g>
     <g id="text_20">
      <!-- 0.225 -->
      <g transform="translate(525.4 251.040789)scale(0.1 -0.1)">
       <use xlink:href="#DejaVuSans-48"/>
       <use x="63.623047" xlink:href="#DejaVuSans-46"/>
       <use x="95.410156" xlink:href="#DejaVuSans-50"/>
       <use x="159.033203" xlink:href="#DejaVuSans-50"/>
       <use x="222.65625" xlink:href="#DejaVuSans-53"/>
      </g>
     </g>
    </g>
    <g id="ytick_11">
     <g id="line2d_23">
      <g>
       <use style="stroke:#000000;stroke-width:0.8;" x="518.4" xlink:href="#mf74420a581" y="209.729643"/>
      </g>
     </g>
     <g id="text_21">
      <!-- 0.250 -->
      <g transform="translate(525.4 213.528862)scale(0.1 -0.1)">
       <use xlink:href="#DejaVuSans-48"/>
       <use x="63.623047" xlink:href="#DejaVuSans-46"/>
       <use x="95.410156" xlink:href="#DejaVuSans-50"/>
       <use x="159.033203" xlink:href="#DejaVuSans-53"/>
       <use x="222.65625" xlink:href="#DejaVuSans-48"/>
      </g>
     </g>
    </g>
    <g id="ytick_12">
     <g id="line2d_24">
      <g>
       <use style="stroke:#000000;stroke-width:0.8;" x="518.4" xlink:href="#mf74420a581" y="172.217716"/>
      </g>
     </g>
     <g id="text_22">
      <!-- 0.275 -->
      <g transform="translate(525.4 176.016935)scale(0.1 -0.1)">
       <use xlink:href="#DejaVuSans-48"/>
       <use x="63.623047" xlink:href="#DejaVuSans-46"/>
       <use x="95.410156" xlink:href="#DejaVuSans-50"/>
       <use x="159.033203" xlink:href="#DejaVuSans-55"/>
       <use x="222.65625" xlink:href="#DejaVuSans-53"/>
      </g>
     </g>
    </g>
    <g id="ytick_13">
     <g id="line2d_25">
      <g>
       <use style="stroke:#000000;stroke-width:0.8;" x="518.4" xlink:href="#mf74420a581" y="134.705789"/>
      </g>
     </g>
     <g id="text_23">
      <!-- 0.300 -->
      <g transform="translate(525.4 138.505008)scale(0.1 -0.1)">
       <use xlink:href="#DejaVuSans-48"/>
       <use x="63.623047" xlink:href="#DejaVuSans-46"/>
       <use x="95.410156" xlink:href="#DejaVuSans-51"/>
       <use x="159.033203" xlink:href="#DejaVuSans-48"/>
       <use x="222.65625" xlink:href="#DejaVuSans-48"/>
      </g>
     </g>
    </g>
    <g id="ytick_14">
     <g id="line2d_26">
      <g>
       <use style="stroke:#000000;stroke-width:0.8;" x="518.4" xlink:href="#mf74420a581" y="97.193862"/>
      </g>
     </g>
     <g id="text_24">
      <!-- 0.325 -->
      <g transform="translate(525.4 100.993081)scale(0.1 -0.1)">
       <use xlink:href="#DejaVuSans-48"/>
       <use x="63.623047" xlink:href="#DejaVuSans-46"/>
       <use x="95.410156" xlink:href="#DejaVuSans-51"/>
       <use x="159.033203" xlink:href="#DejaVuSans-50"/>
       <use x="222.65625" xlink:href="#DejaVuSans-53"/>
      </g>
     </g>
    </g>
    <g id="ytick_15">
     <g id="line2d_27">
      <g>
       <use style="stroke:#000000;stroke-width:0.8;" x="518.4" xlink:href="#mf74420a581" y="59.681935"/>
      </g>
     </g>
     <g id="text_25">
      <!-- 0.350 -->
      <g transform="translate(525.4 63.481154)scale(0.1 -0.1)">
       <use xlink:href="#DejaVuSans-48"/>
       <use x="63.623047" xlink:href="#DejaVuSans-46"/>
       <use x="95.410156" xlink:href="#DejaVuSans-51"/>
       <use x="159.033203" xlink:href="#DejaVuSans-53"/>
       <use x="222.65625" xlink:href="#DejaVuSans-48"/>
      </g>
     </g>
    </g>
    <g id="text_26">
     <!-- loss -->
     <g transform="translate(565.626562 227.817812)rotate(-90)scale(0.1 -0.1)">
      <use xlink:href="#DejaVuSans-108"/>
      <use x="27.783203" xlink:href="#DejaVuSans-111"/>
      <use x="88.964844" xlink:href="#DejaVuSans-115"/>
      <use x="141.064453" xlink:href="#DejaVuSans-115"/>
     </g>
    </g>
   </g>
   <g id="line2d_28">
    <path clip-path="url(#pb21aabb9b1)" d="M 92.290909 66.96 
L 93.104172 180.284372 
L 93.917435 192.171665 
L 94.730698 199.161731 
L 95.543961 203.580974 
L 97.170486 209.031025 
L 97.983749 212.143717 
L 98.797012 217.420029 
L 99.610275 217.310274 
L 100.423538 220.836055 
L 101.236801 244.958941 
L 102.050064 251.179368 
L 103.67659 257.123239 
L 104.489852 259.444141 
L 105.303115 262.275796 
L 106.116378 264.622594 
L 106.929641 266.560742 
L 107.742904 267.747278 
L 108.556167 237.995529 
L 109.36943 262.734292 
L 110.182693 268.751348 
L 110.995956 273.494455 
L 111.809218 277.091213 
L 113.435744 281.023793 
L 114.249007 286.138365 
L 115.06227 287.405481 
L 115.875533 290.194065 
L 116.688796 249.779085 
L 117.502059 277.85579 
L 119.128584 290.777998 
L 121.568373 299.929872 
L 122.381636 303.566597 
L 123.194899 306.446016 
L 124.008162 306.898172 
L 124.821425 260.598097 
L 125.634688 286.701255 
L 126.44795 296.942028 
L 127.261213 303.341497 
L 128.887739 311.443364 
L 129.701002 313.42984 
L 130.514265 317.727479 
L 131.327528 321.239207 
L 132.140791 324.076967 
L 132.954054 269.130578 
L 133.767316 299.584274 
L 134.580579 307.753638 
L 137.020368 325.284537 
L 137.833631 327.182279 
L 138.646894 333.242967 
L 139.460157 333.915731 
L 140.27342 336.915783 
L 141.086682 271.999579 
L 141.899945 305.757026 
L 142.713208 314.35781 
L 144.339734 328.713475 
L 145.152997 331.381556 
L 145.96626 335.374822 
L 146.779523 340.752308 
L 147.592786 343.123623 
L 148.406048 346.297433 
L 149.219311 275.95146 
L 150.032574 311.361926 
L 150.845837 321.077964 
L 151.6591 328.376013 
L 152.472363 334.574268 
L 154.912152 348.260664 
L 155.725414 350.786239 
L 156.538677 354.345628 
L 157.35194 276.17414 
L 158.165203 312.142174 
L 158.978466 326.359505 
L 159.791729 334.808169 
L 161.418255 343.71526 
L 162.231518 351.051068 
L 163.04478 354.154135 
L 163.858043 356.621833 
L 164.671306 361.597552 
L 165.484569 275.210411 
L 166.297832 314.988971 
L 167.111095 329.92279 
L 167.924358 335.260811 
L 168.737621 344.14408 
L 169.550884 350.941401 
L 170.364146 354.441805 
L 171.177409 360.475414 
L 171.990672 364.462032 
L 172.803935 365.445555 
L 173.617198 274.918049 
L 174.430461 317.057162 
L 175.243724 329.425351 
L 176.056987 333.648472 
L 176.87025 339.0854 
L 177.683512 345.394418 
L 178.496775 348.708875 
L 179.310038 351.148275 
L 180.123301 355.221513 
L 180.936564 358.252652 
L 181.749827 271.716215 
L 182.56309 310.613762 
L 183.376353 325.292179 
L 184.189616 335.425521 
L 185.816141 344.789052 
L 186.629404 350.62867 
L 187.442667 354.251825 
L 188.25593 358.606754 
L 189.069193 361.707522 
L 189.882456 266.75775 
L 190.695719 314.905955 
L 192.322244 336.093708 
L 193.94877 347.886042 
L 194.762033 352.953186 
L 195.575296 355.22786 
L 196.388559 362.471634 
L 197.201822 364.198869 
L 198.015085 266.166375 
L 198.828348 309.701879 
L 199.64161 325.652793 
L 200.454873 334.863353 
L 201.268136 342.721656 
L 202.081399 349.095208 
L 202.894662 354.373279 
L 203.707925 355.764945 
L 204.521188 362.611763 
L 205.334451 365.112372 
L 206.147714 264.107069 
L 206.960976 310.512115 
L 207.774239 326.988676 
L 208.587502 335.743183 
L 210.214028 350.502234 
L 211.027291 353.944979 
L 211.840554 359.195276 
L 212.653817 363.367442 
L 213.46708 365.455082 
L 214.280343 261.412797 
L 215.093605 310.76137 
L 215.906868 327.740944 
L 217.533394 344.243069 
L 218.346657 350.658152 
L 219.15992 355.99799 
L 219.973183 359.568235 
L 220.786446 361.463763 
L 221.599709 368.122707 
L 222.412971 257.875751 
L 223.226234 310.211953 
L 224.039497 326.129813 
L 224.85276 337.087874 
L 225.666023 342.469972 
L 226.479286 350.306606 
L 227.292549 354.832945 
L 228.105812 362.32059 
L 228.919075 364.689309 
L 229.732337 367.773269 
L 230.5456 257.900722 
L 231.358863 314.116872 
L 232.985389 335.799211 
L 234.611915 351.212644 
L 235.425178 355.718484 
L 236.238441 361.564423 
L 237.051703 364.291249 
L 237.864966 367.898891 
L 238.678229 253.313365 
L 239.491492 310.181017 
L 240.304755 325.974263 
L 241.118018 337.82144 
L 241.931281 344.584197 
L 242.744544 350.22774 
L 243.557807 354.585756 
L 244.371069 358.000672 
L 245.184332 363.497191 
L 245.997595 367.790173 
L 246.810858 251.975699 
L 247.624121 310.819575 
L 249.250647 336.643015 
L 250.06391 345.516615 
L 250.877173 352.31571 
L 251.690435 356.685765 
L 252.503698 358.413114 
L 253.316961 364.392267 
L 254.130224 366.600524 
L 254.943487 250.250536 
L 255.75675 307.215634 
L 256.570013 326.977154 
L 258.196539 344.366622 
L 260.636327 361.273013 
L 261.44959 363.819719 
L 262.262853 369.36 
L 263.076116 247.938018 
L 263.889379 308.438986 
L 264.702642 323.62578 
L 265.515905 333.910097 
L 267.14243 348.185383 
L 267.955693 354.300921 
L 269.582219 363.181238 
L 270.395482 367.972689 
L 271.208745 244.322801 
L 272.022008 308.007594 
L 272.835271 324.067012 
L 274.461796 343.858947 
L 275.275059 349.269677 
L 276.088322 352.43231 
L 276.901585 359.90791 
L 277.714848 362.448637 
L 278.528111 367.300454 
L 279.341374 241.404032 
L 280.154637 305.453462 
L 280.967899 323.74455 
L 282.594425 340.675015 
L 285.034214 357.999054 
L 286.66074 362.605692 
L 287.474003 236.089429 
L 288.287265 303.062048 
L 289.100528 321.87822 
L 289.913791 331.823321 
L 290.727054 339.718495 
L 293.166843 357.230625 
L 294.793369 364.605937 
L 295.606631 237.745106 
L 296.419894 302.404526 
L 297.233157 318.458714 
L 298.04642 330.819648 
L 298.859683 338.627143 
L 299.672946 344.131797 
L 300.486209 348.350333 
L 301.299472 354.892417 
L 302.112735 359.290279 
L 302.925997 361.159928 
L 303.73926 234.979359 
L 304.552523 298.175268 
L 305.365786 319.744078 
L 306.992312 338.211966 
L 309.432101 355.059408 
L 310.245363 357.014762 
L 311.058626 362.893507 
L 311.871889 234.295045 
L 312.685152 299.598312 
L 313.498415 316.559299 
L 314.311678 327.686399 
L 315.124941 335.926207 
L 315.938204 342.348998 
L 316.751467 346.021106 
L 317.564729 352.846353 
L 319.191255 359.945308 
L 320.004518 231.618657 
L 320.817781 297.311477 
L 321.631044 316.510662 
L 322.444307 328.161081 
L 324.070833 341.374563 
L 324.884095 346.583729 
L 325.697358 350.130664 
L 326.510621 356.035023 
L 327.323884 360.016108 
L 328.137147 226.314298 
L 328.95041 291.947119 
L 329.763673 316.892939 
L 330.576936 329.858376 
L 331.390199 334.833351 
L 332.203461 340.850599 
L 333.016724 345.751614 
L 333.829987 349.794577 
L 335.456513 356.591117 
L 336.269776 224.465065 
L 337.083039 290.747876 
L 337.896302 312.833189 
L 338.709565 325.002604 
L 339.522827 332.519712 
L 340.33609 338.948387 
L 341.149353 343.225571 
L 341.962616 349.897636 
L 342.775879 354.198534 
L 343.589142 357.076594 
L 344.402405 224.912506 
L 345.215668 288.225467 
L 346.028931 311.973544 
L 346.842193 323.77909 
L 347.655456 331.72317 
L 348.468719 335.046317 
L 349.281982 342.809786 
L 350.095245 347.790121 
L 350.908508 347.634123 
L 351.721771 355.964369 
L 352.535034 221.201691 
L 353.348297 282.540797 
L 354.161559 306.185957 
L 354.974822 321.210396 
L 355.788085 330.611706 
L 356.601348 336.348254 
L 357.414611 339.839579 
L 358.227874 344.554398 
L 359.041137 348.330965 
L 359.8544 353.079846 
L 360.667663 218.833062 
L 361.480925 278.017151 
L 362.294188 307.369052 
L 363.920714 328.735317 
L 365.54724 338.701035 
L 366.360503 342.583874 
L 367.173766 348.014014 
L 367.987029 351.084755 
L 368.800291 217.6964 
L 369.613554 278.126683 
L 370.426817 300.473021 
L 371.24008 316.301352 
L 372.053343 327.666378 
L 372.866606 333.534221 
L 373.679869 335.301383 
L 374.493132 341.772795 
L 375.306395 346.360464 
L 376.119657 348.473996 
L 376.93292 213.344577 
L 377.746183 271.553465 
L 378.559446 299.822398 
L 379.372709 313.230367 
L 380.185972 324.327804 
L 381.812498 337.263443 
L 382.625761 341.432844 
L 383.439024 344.357223 
L 384.252286 346.32696 
L 385.065549 211.894049 
L 385.878812 267.738602 
L 386.692075 294.454326 
L 387.505338 312.492253 
L 388.318601 321.915564 
L 389.131864 329.221919 
L 389.945127 332.141434 
L 391.571652 344.502952 
L 392.384915 345.549033 
L 393.198178 209.295254 
L 394.011441 263.504264 
L 394.824704 293.76359 
L 395.637967 308.755603 
L 396.45123 319.32 
L 397.264493 325.465584 
L 398.077756 329.571692 
L 398.891018 335.217723 
L 399.704281 338.850542 
L 400.517544 346.035245 
L 401.330807 208.639944 
L 402.14407 259.958953 
L 402.957333 287.17185 
L 403.770596 304.670778 
L 405.397122 323.863691 
L 406.210384 328.768499 
L 407.023647 334.441527 
L 407.83691 337.872618 
L 408.650173 340.25955 
L 409.463436 204.82046 
L 410.276699 259.464776 
L 411.089962 284.26409 
L 411.903225 301.58605 
L 412.716488 313.843147 
L 413.52975 319.428734 
L 414.343013 328.566832 
L 415.156276 330.570588 
L 415.969539 336.560217 
L 416.782802 337.871613 
L 417.596065 202.350931 
L 418.409328 252.781014 
L 419.222591 280.679528 
L 420.035854 294.921933 
L 420.849116 306.969529 
L 421.662379 315.728634 
L 424.102168 333.984023 
L 424.915431 335.412407 
L 425.728694 199.441701 
L 426.541957 248.714789 
L 427.35522 275.400904 
L 428.168482 293.499495 
L 428.981745 304.095227 
L 429.795008 312.237629 
L 430.608271 321.524749 
L 431.421534 326.238892 
L 432.234797 327.946295 
L 433.04806 335.309511 
L 433.861323 199.07482 
L 434.674586 245.110149 
L 435.487848 270.885213 
L 436.301111 287.776069 
L 437.927637 311.973917 
L 438.7409 316.337767 
L 439.554163 322.851629 
L 440.367426 325.186752 
L 441.180689 329.467327 
L 441.993952 193.178857 
L 442.807214 238.202722 
L 443.620477 264.747815 
L 444.43374 283.132052 
L 445.247003 294.102443 
L 446.873529 312.573778 
L 447.686792 320.482783 
L 449.313318 327.350386 
L 450.12658 190.802548 
L 450.939843 236.175891 
L 451.753106 260.318821 
L 452.566369 278.861357 
L 453.379632 290.618203 
L 454.192895 299.666969 
L 455.819421 314.792296 
L 457.445946 323.989016 
L 458.259209 188.122631 
L 459.072472 232.639863 
L 459.885735 256.442015 
L 460.698998 273.546803 
L 462.325524 296.770482 
L 463.138787 302.367685 
L 463.95205 311.33627 
L 464.765312 316.975869 
L 465.578575 320.025728 
L 466.391838 186.798066 
L 467.205101 224.702658 
L 468.018364 249.827878 
L 468.831627 266.346203 
L 469.64489 279.586525 
L 470.458153 290.518811 
L 471.271416 299.059937 
L 472.084678 306.069108 
L 472.897941 311.514866 
L 473.711204 315.259778 
L 474.524467 183.744346 
L 475.33773 220.853979 
L 476.150993 244.105976 
L 476.964256 263.4313 
L 477.777519 275.568277 
L 478.590782 284.157931 
L 479.404044 294.379666 
L 480.217307 299.614298 
L 481.03057 307.240898 
L 481.843833 312.383279 
L 482.657096 180.406759 
L 483.470359 216.886682 
L 484.283622 239.219645 
L 485.096885 256.287663 
L 487.536673 288.422797 
L 488.349936 294.247862 
L 489.163199 302.621096 
L 489.976462 308.428768 
L 490.789725 176.018122 
L 491.602988 210.585804 
L 492.416251 235.386331 
L 493.229514 250.720591 
L 494.856039 274.627765 
L 496.482565 289.752396 
L 498.109091 304.18451 
L 498.109091 304.18451 
" style="fill:none;stroke:#ff0000;stroke-linecap:square;stroke-width:1.5;"/>
   </g>
   <g id="patch_8">
    <path d="M 72 384.48 
L 72 51.84 
" style="fill:none;stroke:#000000;stroke-linecap:square;stroke-linejoin:miter;stroke-width:0.8;"/>
   </g>
   <g id="patch_9">
    <path d="M 518.4 384.48 
L 518.4 51.84 
" style="fill:none;stroke:#000000;stroke-linecap:square;stroke-linejoin:miter;stroke-width:0.8;"/>
   </g>
   <g id="patch_10">
    <path d="M 72 384.48 
L 518.4 384.48 
" style="fill:none;stroke:#000000;stroke-linecap:square;stroke-linejoin:miter;stroke-width:0.8;"/>
   </g>
   <g id="patch_11">
    <path d="M 72 51.84 
L 518.4 51.84 
" style="fill:none;stroke:#000000;stroke-linecap:square;stroke-linejoin:miter;stroke-width:0.8;"/>
   </g>
   <g id="text_27">
    <!-- The learning curve on _non_iid_agg_modify/host/8 -->
    <g transform="translate(141.023438 45.84)scale(0.12 -0.12)">
     <defs>
      <path d="M -0.296875 72.90625 
L 61.375 72.90625 
L 61.375 64.59375 
L 35.5 64.59375 
L 35.5 0 
L 25.59375 0 
L 25.59375 64.59375 
L -0.296875 64.59375 
z
" id="DejaVuSans-84"/>
      <path id="DejaVuSans-32"/>
      <path d="M 45.40625 27.984375 
Q 45.40625 37.75 41.375 43.109375 
Q 37.359375 48.484375 30.078125 48.484375 
Q 22.859375 48.484375 18.828125 43.109375 
Q 14.796875 37.75 14.796875 27.984375 
Q 14.796875 18.265625 18.828125 12.890625 
Q 22.859375 7.515625 30.078125 7.515625 
Q 37.359375 7.515625 41.375 12.890625 
Q 45.40625 18.265625 45.40625 27.984375 
z
M 54.390625 6.78125 
Q 54.390625 -7.171875 48.1875 -13.984375 
Q 42 -20.796875 29.203125 -20.796875 
Q 24.46875 -20.796875 20.265625 -20.09375 
Q 16.0625 -19.390625 12.109375 -17.921875 
L 12.109375 -9.1875 
Q 16.0625 -11.328125 19.921875 -12.34375 
Q 23.78125 -13.375 27.78125 -13.375 
Q 36.625 -13.375 41.015625 -8.765625 
Q 45.40625 -4.15625 45.40625 5.171875 
L 45.40625 9.625 
Q 42.625 4.78125 38.28125 2.390625 
Q 33.9375 0 27.875 0 
Q 17.828125 0 11.671875 7.65625 
Q 5.515625 15.328125 5.515625 27.984375 
Q 5.515625 40.671875 11.671875 48.328125 
Q 17.828125 56 27.875 56 
Q 33.9375 56 38.28125 53.609375 
Q 42.625 51.21875 45.40625 46.390625 
L 45.40625 54.6875 
L 54.390625 54.6875 
z
" id="DejaVuSans-103"/>
      <path d="M 8.5 21.578125 
L 8.5 54.6875 
L 17.484375 54.6875 
L 17.484375 21.921875 
Q 17.484375 14.15625 20.5 10.265625 
Q 23.53125 6.390625 29.59375 6.390625 
Q 36.859375 6.390625 41.078125 11.03125 
Q 45.3125 15.671875 45.3125 23.6875 
L 45.3125 54.6875 
L 54.296875 54.6875 
L 54.296875 0 
L 45.3125 0 
L 45.3125 8.40625 
Q 42.046875 3.421875 37.71875 1 
Q 33.40625 -1.421875 27.6875 -1.421875 
Q 18.265625 -1.421875 13.375 4.4375 
Q 8.5 10.296875 8.5 21.578125 
z
M 31.109375 56 
z
" id="DejaVuSans-117"/>
      <path d="M 2.984375 54.6875 
L 12.5 54.6875 
L 29.59375 8.796875 
L 46.6875 54.6875 
L 56.203125 54.6875 
L 35.6875 0 
L 23.484375 0 
z
" id="DejaVuSans-118"/>
      <path d="M 30.953125 67.4375 
L 56.203125 0 
L 46.6875 0 
L 31.34375 40.4375 
L 12.5 0 
L 2.984375 0 
L 26.953125 52.4375 
L 23.34375 62.109375 
Q 21.046875 68.265625 15.828125 68.265625 
L 11.140625 68.265625 
L 11.140625 75.984375 
L 16.84375 75.875 
Q 27.875 75.734375 30.953125 67.4375 
z
" id="DejaVuSans-955"/>
      <path d="M 50.984375 -16.609375 
L 50.984375 -23.578125 
L -0.984375 -23.578125 
L -0.984375 -16.609375 
z
" id="DejaVuSans-95"/>
      <path d="M 45.40625 46.390625 
L 45.40625 75.984375 
L 54.390625 75.984375 
L 54.390625 0 
L 45.40625 0 
L 45.40625 8.203125 
Q 42.578125 3.328125 38.25 0.953125 
Q 33.9375 -1.421875 27.875 -1.421875 
Q 17.96875 -1.421875 11.734375 6.484375 
Q 5.515625 14.40625 5.515625 27.296875 
Q 5.515625 40.1875 11.734375 48.09375 
Q 17.96875 56 27.875 56 
Q 33.9375 56 38.25 53.625 
Q 42.578125 51.265625 45.40625 46.390625 
z
M 14.796875 27.296875 
Q 14.796875 17.390625 18.875 11.75 
Q 22.953125 6.109375 30.078125 6.109375 
Q 37.203125 6.109375 41.296875 11.75 
Q 45.40625 17.390625 45.40625 27.296875 
Q 45.40625 37.203125 41.296875 42.84375 
Q 37.203125 48.484375 30.078125 48.484375 
Q 22.953125 48.484375 18.875 42.84375 
Q 14.796875 37.203125 14.796875 27.296875 
z
" id="DejaVuSans-100"/>
      <path d="M 52 44.1875 
Q 55.375 50.25 60.0625 53.125 
Q 64.75 56 71.09375 56 
Q 79.640625 56 84.28125 50.015625 
Q 88.921875 44.046875 88.921875 33.015625 
L 88.921875 0 
L 79.890625 0 
L 79.890625 32.71875 
Q 79.890625 40.578125 77.09375 44.375 
Q 74.3125 48.1875 68.609375 48.1875 
Q 61.625 48.1875 57.5625 43.546875 
Q 53.515625 38.921875 53.515625 30.90625 
L 53.515625 0 
L 44.484375 0 
L 44.484375 32.71875 
Q 44.484375 40.625 41.703125 44.40625 
Q 38.921875 48.1875 33.109375 48.1875 
Q 26.21875 48.1875 22.15625 43.53125 
Q 18.109375 38.875 18.109375 30.90625 
L 18.109375 0 
L 9.078125 0 
L 9.078125 54.6875 
L 18.109375 54.6875 
L 18.109375 46.1875 
Q 21.1875 51.21875 25.484375 53.609375 
Q 29.78125 56 35.6875 56 
Q 41.65625 56 45.828125 52.96875 
Q 50 49.953125 52 44.1875 
z
" id="DejaVuSans-109"/>
      <path d="M 37.109375 75.984375 
L 37.109375 68.5 
L 28.515625 68.5 
Q 23.6875 68.5 21.796875 66.546875 
Q 19.921875 64.59375 19.921875 59.515625 
L 19.921875 54.6875 
L 34.71875 54.6875 
L 34.71875 47.703125 
L 19.921875 47.703125 
L 19.921875 0 
L 10.890625 0 
L 10.890625 47.703125 
L 2.296875 47.703125 
L 2.296875 54.6875 
L 10.890625 54.6875 
L 10.890625 58.5 
Q 10.890625 67.625 15.140625 71.796875 
Q 19.390625 75.984375 28.609375 75.984375 
z
" id="DejaVuSans-102"/>
      <path d="M 32.171875 -5.078125 
Q 28.375 -14.84375 24.75 -17.8125 
Q 21.140625 -20.796875 15.09375 -20.796875 
L 7.90625 -20.796875 
L 7.90625 -13.28125 
L 13.1875 -13.28125 
Q 16.890625 -13.28125 18.9375 -11.515625 
Q 21 -9.765625 23.484375 -3.21875 
L 25.09375 0.875 
L 2.984375 54.6875 
L 12.5 54.6875 
L 29.59375 11.921875 
L 46.6875 54.6875 
L 56.203125 54.6875 
z
" id="DejaVuSans-121"/>
      <path d="M 25.390625 72.90625 
L 33.6875 72.90625 
L 8.296875 -9.28125 
L 0 -9.28125 
z
" id="DejaVuSans-47"/>
     </defs>
     <use xlink:href="#DejaVuSans-84"/>
     <use x="61.083984" xlink:href="#DejaVuSans-104"/>
     <use x="124.462891" xlink:href="#DejaVuSans-101"/>
     <use x="185.986328" xlink:href="#DejaVuSans-32"/>
     <use x="217.773438" xlink:href="#DejaVuSans-108"/>
     <use x="245.556641" xlink:href="#DejaVuSans-101"/>
     <use x="307.080078" xlink:href="#DejaVuSans-97"/>
     <use x="368.359375" xlink:href="#DejaVuSans-114"/>
     <use x="407.722656" xlink:href="#DejaVuSans-110"/>
     <use x="471.101562" xlink:href="#DejaVuSans-105"/>
     <use x="498.884766" xlink:href="#DejaVuSans-110"/>
     <use x="562.263672" xlink:href="#DejaVuSans-103"/>
     <use x="625.740234" xlink:href="#DejaVuSans-32"/>
     <use x="657.527344" xlink:href="#DejaVuSans-99"/>
     <use x="712.507812" xlink:href="#DejaVuSans-117"/>
     <use x="775.886719" xlink:href="#DejaVuSans-114"/>
     <use x="817" xlink:href="#DejaVuSans-118"/>
     <use x="876.179688" xlink:href="#DejaVuSans-101"/>
     <use x="937.703125" xlink:href="#DejaVuSans-32"/>
     <use x="969.490234" xlink:href="#DejaVuSans-111"/>
     <use x="1030.671875" xlink:href="#DejaVuSans-110"/>
     <use x="1094.050781" xlink:href="#DejaVuSans-32"/>
     <use x="1125.837891" xlink:href="#DejaVuSans-955"/>
     <use x="1185.017578" xlink:href="#DejaVuSans-95"/>
     <use x="1235.017578" xlink:href="#DejaVuSans-110"/>
     <use x="1298.396484" xlink:href="#DejaVuSans-111"/>
     <use x="1359.578125" xlink:href="#DejaVuSans-110"/>
     <use x="1422.957031" xlink:href="#DejaVuSans-95"/>
     <use x="1472.957031" xlink:href="#DejaVuSans-105"/>
     <use x="1500.740234" xlink:href="#DejaVuSans-105"/>
     <use x="1528.523438" xlink:href="#DejaVuSans-100"/>
     <use x="1592" xlink:href="#DejaVuSans-95"/>
     <use x="1642" xlink:href="#DejaVuSans-97"/>
     <use x="1703.279297" xlink:href="#DejaVuSans-103"/>
     <use x="1766.755859" xlink:href="#DejaVuSans-103"/>
     <use x="1830.232422" xlink:href="#DejaVuSans-95"/>
     <use x="1880.232422" xlink:href="#DejaVuSans-109"/>
     <use x="1977.644531" xlink:href="#DejaVuSans-111"/>
     <use x="2038.826172" xlink:href="#DejaVuSans-100"/>
     <use x="2102.302734" xlink:href="#DejaVuSans-105"/>
     <use x="2130.085938" xlink:href="#DejaVuSans-102"/>
     <use x="2163.541016" xlink:href="#DejaVuSans-121"/>
     <use x="2222.720703" xlink:href="#DejaVuSans-47"/>
     <use x="2256.412109" xlink:href="#DejaVuSans-104"/>
     <use x="2319.791016" xlink:href="#DejaVuSans-111"/>
     <use x="2380.972656" xlink:href="#DejaVuSans-115"/>
     <use x="2433.072266" xlink:href="#DejaVuSans-116"/>
     <use x="2472.28125" xlink:href="#DejaVuSans-47"/>
     <use x="2505.972656" xlink:href="#DejaVuSans-56"/>
    </g>
   </g>
   <g id="legend_2">
    <g id="patch_12">
     <path d="M 460.084375 74.518125 
L 511.4 74.518125 
Q 513.4 74.518125 513.4 72.518125 
L 513.4 58.84 
Q 513.4 56.84 511.4 56.84 
L 460.084375 56.84 
Q 458.084375 56.84 458.084375 58.84 
L 458.084375 72.518125 
Q 458.084375 74.518125 460.084375 74.518125 
z
" style="fill:#ffffff;opacity:0.8;stroke:#cccccc;stroke-linejoin:miter;"/>
    </g>
    <g id="line2d_29">
     <path d="M 462.084375 64.938438 
L 482.084375 64.938438 
" style="fill:none;stroke:#ff0000;stroke-linecap:square;stroke-width:1.5;"/>
    </g>
    <g id="line2d_30"/>
    <g id="text_28">
     <!-- loss -->
     <g transform="translate(490.084375 68.438438)scale(0.1 -0.1)">
      <use xlink:href="#DejaVuSans-108"/>
      <use x="27.783203" xlink:href="#DejaVuSans-111"/>
      <use x="88.964844" xlink:href="#DejaVuSans-115"/>
      <use x="141.064453" xlink:href="#DejaVuSans-115"/>
     </g>
    </g>
   </g>
  </g>
 </g>
 <defs>
  <clipPath id="pb21aabb9b1">
   <rect height="332.64" width="446.4" x="72" y="51.84"/>
  </clipPath>
 </defs>
</svg>
