<?xml version="1.0" encoding="utf-8" standalone="no"?>
<!DOCTYPE svg PUBLIC "-//W3C//DTD SVG 1.1//EN"
  "http://www.w3.org/Graphics/SVG/1.1/DTD/svg11.dtd">
<!-- Created with matplotlib (https://matplotlib.org/) -->
<svg height="432pt" version="1.1" viewBox="0 0 576 432" width="576pt" xmlns="http://www.w3.org/2000/svg" xmlns:xlink="http://www.w3.org/1999/xlink">
 <metadata>
  <rdf:RDF xmlns:cc="http://creativecommons.org/ns#" xmlns:dc="http://purl.org/dc/elements/1.1/" xmlns:rdf="http://www.w3.org/1999/02/22-rdf-syntax-ns#">
   <cc:Work>
    <dc:type rdf:resource="http://purl.org/dc/dcmitype/StillImage"/>
    <dc:date>2023-04-18T10:01:57.442468</dc:date>
    <dc:format>image/svg+xml</dc:format>
    <dc:creator>
     <cc:Agent>
      <dc:title>Matplotlib v3.3.4, https://matplotlib.org/</dc:title>
     </cc:Agent>
    </dc:creator>
   </cc:Work>
  </rdf:RDF>
 </metadata>
 <defs>
  <style type="text/css">*{stroke-linecap:butt;stroke-linejoin:round;}</style>
 </defs>
 <g id="figure_1">
  <g id="patch_1">
   <path d="M 0 432 
L 576 432 
L 576 0 
L 0 0 
z
" style="fill:#ffffff;"/>
  </g>
  <g id="axes_1">
   <g id="patch_2">
    <path d="M 72 384.48 
L 518.4 384.48 
L 518.4 51.84 
L 72 51.84 
z
" style="fill:#ffffff;"/>
   </g>
   <g id="matplotlib.axis_1">
    <g id="xtick_1">
     <g id="line2d_1">
      <defs>
       <path d="M 0 0 
L 0 3.5 
" id="mfbc43f92a3" style="stroke:#000000;stroke-width:0.8;"/>
      </defs>
      <g>
       <use style="stroke:#000000;stroke-width:0.8;" x="92.290909" xlink:href="#mfbc43f92a3" y="384.48"/>
      </g>
     </g>
     <g id="text_1">
      <!-- 0 -->
      <g transform="translate(89.109659 399.078438)scale(0.1 -0.1)">
       <defs>
        <path d="M 31.78125 66.40625 
Q 24.171875 66.40625 20.328125 58.90625 
Q 16.5 51.421875 16.5 36.375 
Q 16.5 21.390625 20.328125 13.890625 
Q 24.171875 6.390625 31.78125 6.390625 
Q 39.453125 6.390625 43.28125 13.890625 
Q 47.125 21.390625 47.125 36.375 
Q 47.125 51.421875 43.28125 58.90625 
Q 39.453125 66.40625 31.78125 66.40625 
z
M 31.78125 74.21875 
Q 44.046875 74.21875 50.515625 64.515625 
Q 56.984375 54.828125 56.984375 36.375 
Q 56.984375 17.96875 50.515625 8.265625 
Q 44.046875 -1.421875 31.78125 -1.421875 
Q 19.53125 -1.421875 13.0625 8.265625 
Q 6.59375 17.96875 6.59375 36.375 
Q 6.59375 54.828125 13.0625 64.515625 
Q 19.53125 74.21875 31.78125 74.21875 
z
" id="DejaVuSans-48"/>
       </defs>
       <use xlink:href="#DejaVuSans-48"/>
      </g>
     </g>
    </g>
    <g id="xtick_2">
     <g id="line2d_2">
      <g>
       <use style="stroke:#000000;stroke-width:0.8;" x="173.617198" xlink:href="#mfbc43f92a3" y="384.48"/>
      </g>
     </g>
     <g id="text_2">
      <!-- 100 -->
      <g transform="translate(164.073448 399.078438)scale(0.1 -0.1)">
       <defs>
        <path d="M 12.40625 8.296875 
L 28.515625 8.296875 
L 28.515625 63.921875 
L 10.984375 60.40625 
L 10.984375 69.390625 
L 28.421875 72.90625 
L 38.28125 72.90625 
L 38.28125 8.296875 
L 54.390625 8.296875 
L 54.390625 0 
L 12.40625 0 
z
" id="DejaVuSans-49"/>
       </defs>
       <use xlink:href="#DejaVuSans-49"/>
       <use x="63.623047" xlink:href="#DejaVuSans-48"/>
       <use x="127.246094" xlink:href="#DejaVuSans-48"/>
      </g>
     </g>
    </g>
    <g id="xtick_3">
     <g id="line2d_3">
      <g>
       <use style="stroke:#000000;stroke-width:0.8;" x="254.943487" xlink:href="#mfbc43f92a3" y="384.48"/>
      </g>
     </g>
     <g id="text_3">
      <!-- 200 -->
      <g transform="translate(245.399737 399.078438)scale(0.1 -0.1)">
       <defs>
        <path d="M 19.1875 8.296875 
L 53.609375 8.296875 
L 53.609375 0 
L 7.328125 0 
L 7.328125 8.296875 
Q 12.9375 14.109375 22.625 23.890625 
Q 32.328125 33.6875 34.8125 36.53125 
Q 39.546875 41.84375 41.421875 45.53125 
Q 43.3125 49.21875 43.3125 52.78125 
Q 43.3125 58.59375 39.234375 62.25 
Q 35.15625 65.921875 28.609375 65.921875 
Q 23.96875 65.921875 18.8125 64.3125 
Q 13.671875 62.703125 7.8125 59.421875 
L 7.8125 69.390625 
Q 13.765625 71.78125 18.9375 73 
Q 24.125 74.21875 28.421875 74.21875 
Q 39.75 74.21875 46.484375 68.546875 
Q 53.21875 62.890625 53.21875 53.421875 
Q 53.21875 48.921875 51.53125 44.890625 
Q 49.859375 40.875 45.40625 35.40625 
Q 44.1875 33.984375 37.640625 27.21875 
Q 31.109375 20.453125 19.1875 8.296875 
z
" id="DejaVuSans-50"/>
       </defs>
       <use xlink:href="#DejaVuSans-50"/>
       <use x="63.623047" xlink:href="#DejaVuSans-48"/>
       <use x="127.246094" xlink:href="#DejaVuSans-48"/>
      </g>
     </g>
    </g>
    <g id="xtick_4">
     <g id="line2d_4">
      <g>
       <use style="stroke:#000000;stroke-width:0.8;" x="336.269776" xlink:href="#mfbc43f92a3" y="384.48"/>
      </g>
     </g>
     <g id="text_4">
      <!-- 300 -->
      <g transform="translate(326.726026 399.078438)scale(0.1 -0.1)">
       <defs>
        <path d="M 40.578125 39.3125 
Q 47.65625 37.796875 51.625 33 
Q 55.609375 28.21875 55.609375 21.1875 
Q 55.609375 10.40625 48.1875 4.484375 
Q 40.765625 -1.421875 27.09375 -1.421875 
Q 22.515625 -1.421875 17.65625 -0.515625 
Q 12.796875 0.390625 7.625 2.203125 
L 7.625 11.71875 
Q 11.71875 9.328125 16.59375 8.109375 
Q 21.484375 6.890625 26.8125 6.890625 
Q 36.078125 6.890625 40.9375 10.546875 
Q 45.796875 14.203125 45.796875 21.1875 
Q 45.796875 27.640625 41.28125 31.265625 
Q 36.765625 34.90625 28.71875 34.90625 
L 20.21875 34.90625 
L 20.21875 43.015625 
L 29.109375 43.015625 
Q 36.375 43.015625 40.234375 45.921875 
Q 44.09375 48.828125 44.09375 54.296875 
Q 44.09375 59.90625 40.109375 62.90625 
Q 36.140625 65.921875 28.71875 65.921875 
Q 24.65625 65.921875 20.015625 65.03125 
Q 15.375 64.15625 9.8125 62.3125 
L 9.8125 71.09375 
Q 15.4375 72.65625 20.34375 73.4375 
Q 25.25 74.21875 29.59375 74.21875 
Q 40.828125 74.21875 47.359375 69.109375 
Q 53.90625 64.015625 53.90625 55.328125 
Q 53.90625 49.265625 50.4375 45.09375 
Q 46.96875 40.921875 40.578125 39.3125 
z
" id="DejaVuSans-51"/>
       </defs>
       <use xlink:href="#DejaVuSans-51"/>
       <use x="63.623047" xlink:href="#DejaVuSans-48"/>
       <use x="127.246094" xlink:href="#DejaVuSans-48"/>
      </g>
     </g>
    </g>
    <g id="xtick_5">
     <g id="line2d_5">
      <g>
       <use style="stroke:#000000;stroke-width:0.8;" x="417.596065" xlink:href="#mfbc43f92a3" y="384.48"/>
      </g>
     </g>
     <g id="text_5">
      <!-- 400 -->
      <g transform="translate(408.052315 399.078438)scale(0.1 -0.1)">
       <defs>
        <path d="M 37.796875 64.3125 
L 12.890625 25.390625 
L 37.796875 25.390625 
z
M 35.203125 72.90625 
L 47.609375 72.90625 
L 47.609375 25.390625 
L 58.015625 25.390625 
L 58.015625 17.1875 
L 47.609375 17.1875 
L 47.609375 0 
L 37.796875 0 
L 37.796875 17.1875 
L 4.890625 17.1875 
L 4.890625 26.703125 
z
" id="DejaVuSans-52"/>
       </defs>
       <use xlink:href="#DejaVuSans-52"/>
       <use x="63.623047" xlink:href="#DejaVuSans-48"/>
       <use x="127.246094" xlink:href="#DejaVuSans-48"/>
      </g>
     </g>
    </g>
    <g id="xtick_6">
     <g id="line2d_6">
      <g>
       <use style="stroke:#000000;stroke-width:0.8;" x="498.922354" xlink:href="#mfbc43f92a3" y="384.48"/>
      </g>
     </g>
     <g id="text_6">
      <!-- 500 -->
      <g transform="translate(489.378604 399.078438)scale(0.1 -0.1)">
       <defs>
        <path d="M 10.796875 72.90625 
L 49.515625 72.90625 
L 49.515625 64.59375 
L 19.828125 64.59375 
L 19.828125 46.734375 
Q 21.96875 47.46875 24.109375 47.828125 
Q 26.265625 48.1875 28.421875 48.1875 
Q 40.625 48.1875 47.75 41.5 
Q 54.890625 34.8125 54.890625 23.390625 
Q 54.890625 11.625 47.5625 5.09375 
Q 40.234375 -1.421875 26.90625 -1.421875 
Q 22.3125 -1.421875 17.546875 -0.640625 
Q 12.796875 0.140625 7.71875 1.703125 
L 7.71875 11.625 
Q 12.109375 9.234375 16.796875 8.0625 
Q 21.484375 6.890625 26.703125 6.890625 
Q 35.15625 6.890625 40.078125 11.328125 
Q 45.015625 15.765625 45.015625 23.390625 
Q 45.015625 31 40.078125 35.4375 
Q 35.15625 39.890625 26.703125 39.890625 
Q 22.75 39.890625 18.8125 39.015625 
Q 14.890625 38.140625 10.796875 36.28125 
z
" id="DejaVuSans-53"/>
       </defs>
       <use xlink:href="#DejaVuSans-53"/>
       <use x="63.623047" xlink:href="#DejaVuSans-48"/>
       <use x="127.246094" xlink:href="#DejaVuSans-48"/>
      </g>
     </g>
    </g>
    <g id="text_7">
     <!-- epoch -->
     <g transform="translate(279.971875 412.756563)scale(0.1 -0.1)">
      <defs>
       <path d="M 56.203125 29.59375 
L 56.203125 25.203125 
L 14.890625 25.203125 
Q 15.484375 15.921875 20.484375 11.0625 
Q 25.484375 6.203125 34.421875 6.203125 
Q 39.59375 6.203125 44.453125 7.46875 
Q 49.3125 8.734375 54.109375 11.28125 
L 54.109375 2.78125 
Q 49.265625 0.734375 44.1875 -0.34375 
Q 39.109375 -1.421875 33.890625 -1.421875 
Q 20.796875 -1.421875 13.15625 6.1875 
Q 5.515625 13.8125 5.515625 26.8125 
Q 5.515625 40.234375 12.765625 48.109375 
Q 20.015625 56 32.328125 56 
Q 43.359375 56 49.78125 48.890625 
Q 56.203125 41.796875 56.203125 29.59375 
z
M 47.21875 32.234375 
Q 47.125 39.59375 43.09375 43.984375 
Q 39.0625 48.390625 32.421875 48.390625 
Q 24.90625 48.390625 20.390625 44.140625 
Q 15.875 39.890625 15.1875 32.171875 
z
" id="DejaVuSans-101"/>
       <path d="M 18.109375 8.203125 
L 18.109375 -20.796875 
L 9.078125 -20.796875 
L 9.078125 54.6875 
L 18.109375 54.6875 
L 18.109375 46.390625 
Q 20.953125 51.265625 25.265625 53.625 
Q 29.59375 56 35.59375 56 
Q 45.5625 56 51.78125 48.09375 
Q 58.015625 40.1875 58.015625 27.296875 
Q 58.015625 14.40625 51.78125 6.484375 
Q 45.5625 -1.421875 35.59375 -1.421875 
Q 29.59375 -1.421875 25.265625 0.953125 
Q 20.953125 3.328125 18.109375 8.203125 
z
M 48.6875 27.296875 
Q 48.6875 37.203125 44.609375 42.84375 
Q 40.53125 48.484375 33.40625 48.484375 
Q 26.265625 48.484375 22.1875 42.84375 
Q 18.109375 37.203125 18.109375 27.296875 
Q 18.109375 17.390625 22.1875 11.75 
Q 26.265625 6.109375 33.40625 6.109375 
Q 40.53125 6.109375 44.609375 11.75 
Q 48.6875 17.390625 48.6875 27.296875 
z
" id="DejaVuSans-112"/>
       <path d="M 30.609375 48.390625 
Q 23.390625 48.390625 19.1875 42.75 
Q 14.984375 37.109375 14.984375 27.296875 
Q 14.984375 17.484375 19.15625 11.84375 
Q 23.34375 6.203125 30.609375 6.203125 
Q 37.796875 6.203125 41.984375 11.859375 
Q 46.1875 17.53125 46.1875 27.296875 
Q 46.1875 37.015625 41.984375 42.703125 
Q 37.796875 48.390625 30.609375 48.390625 
z
M 30.609375 56 
Q 42.328125 56 49.015625 48.375 
Q 55.71875 40.765625 55.71875 27.296875 
Q 55.71875 13.875 49.015625 6.21875 
Q 42.328125 -1.421875 30.609375 -1.421875 
Q 18.84375 -1.421875 12.171875 6.21875 
Q 5.515625 13.875 5.515625 27.296875 
Q 5.515625 40.765625 12.171875 48.375 
Q 18.84375 56 30.609375 56 
z
" id="DejaVuSans-111"/>
       <path d="M 48.78125 52.59375 
L 48.78125 44.1875 
Q 44.96875 46.296875 41.140625 47.34375 
Q 37.3125 48.390625 33.40625 48.390625 
Q 24.65625 48.390625 19.8125 42.84375 
Q 14.984375 37.3125 14.984375 27.296875 
Q 14.984375 17.28125 19.8125 11.734375 
Q 24.65625 6.203125 33.40625 6.203125 
Q 37.3125 6.203125 41.140625 7.25 
Q 44.96875 8.296875 48.78125 10.40625 
L 48.78125 2.09375 
Q 45.015625 0.34375 40.984375 -0.53125 
Q 36.96875 -1.421875 32.421875 -1.421875 
Q 20.0625 -1.421875 12.78125 6.34375 
Q 5.515625 14.109375 5.515625 27.296875 
Q 5.515625 40.671875 12.859375 48.328125 
Q 20.21875 56 33.015625 56 
Q 37.15625 56 41.109375 55.140625 
Q 45.0625 54.296875 48.78125 52.59375 
z
" id="DejaVuSans-99"/>
       <path d="M 54.890625 33.015625 
L 54.890625 0 
L 45.90625 0 
L 45.90625 32.71875 
Q 45.90625 40.484375 42.875 44.328125 
Q 39.84375 48.1875 33.796875 48.1875 
Q 26.515625 48.1875 22.3125 43.546875 
Q 18.109375 38.921875 18.109375 30.90625 
L 18.109375 0 
L 9.078125 0 
L 9.078125 75.984375 
L 18.109375 75.984375 
L 18.109375 46.1875 
Q 21.34375 51.125 25.703125 53.5625 
Q 30.078125 56 35.796875 56 
Q 45.21875 56 50.046875 50.171875 
Q 54.890625 44.34375 54.890625 33.015625 
z
" id="DejaVuSans-104"/>
      </defs>
      <use xlink:href="#DejaVuSans-101"/>
      <use x="61.523438" xlink:href="#DejaVuSans-112"/>
      <use x="125" xlink:href="#DejaVuSans-111"/>
      <use x="186.181641" xlink:href="#DejaVuSans-99"/>
      <use x="241.162109" xlink:href="#DejaVuSans-104"/>
     </g>
    </g>
   </g>
   <g id="matplotlib.axis_2">
    <g id="ytick_1">
     <g id="line2d_7">
      <defs>
       <path d="M 0 0 
L -3.5 0 
" id="m215618a75d" style="stroke:#000000;stroke-width:0.8;"/>
      </defs>
      <g>
       <use style="stroke:#000000;stroke-width:0.8;" x="72" xlink:href="#m215618a75d" y="384.48"/>
      </g>
     </g>
     <g id="text_8">
      <!-- 0.0 -->
      <g transform="translate(49.096875 388.279219)scale(0.1 -0.1)">
       <defs>
        <path d="M 10.6875 12.40625 
L 21 12.40625 
L 21 0 
L 10.6875 0 
z
" id="DejaVuSans-46"/>
       </defs>
       <use xlink:href="#DejaVuSans-48"/>
       <use x="63.623047" xlink:href="#DejaVuSans-46"/>
       <use x="95.410156" xlink:href="#DejaVuSans-48"/>
      </g>
     </g>
    </g>
    <g id="ytick_2">
     <g id="line2d_8">
      <g>
       <use style="stroke:#000000;stroke-width:0.8;" x="72" xlink:href="#m215618a75d" y="317.952"/>
      </g>
     </g>
     <g id="text_9">
      <!-- 0.2 -->
      <g transform="translate(49.096875 321.751219)scale(0.1 -0.1)">
       <use xlink:href="#DejaVuSans-48"/>
       <use x="63.623047" xlink:href="#DejaVuSans-46"/>
       <use x="95.410156" xlink:href="#DejaVuSans-50"/>
      </g>
     </g>
    </g>
    <g id="ytick_3">
     <g id="line2d_9">
      <g>
       <use style="stroke:#000000;stroke-width:0.8;" x="72" xlink:href="#m215618a75d" y="251.424"/>
      </g>
     </g>
     <g id="text_10">
      <!-- 0.4 -->
      <g transform="translate(49.096875 255.223219)scale(0.1 -0.1)">
       <use xlink:href="#DejaVuSans-48"/>
       <use x="63.623047" xlink:href="#DejaVuSans-46"/>
       <use x="95.410156" xlink:href="#DejaVuSans-52"/>
      </g>
     </g>
    </g>
    <g id="ytick_4">
     <g id="line2d_10">
      <g>
       <use style="stroke:#000000;stroke-width:0.8;" x="72" xlink:href="#m215618a75d" y="184.896"/>
      </g>
     </g>
     <g id="text_11">
      <!-- 0.6 -->
      <g transform="translate(49.096875 188.695219)scale(0.1 -0.1)">
       <defs>
        <path d="M 33.015625 40.375 
Q 26.375 40.375 22.484375 35.828125 
Q 18.609375 31.296875 18.609375 23.390625 
Q 18.609375 15.53125 22.484375 10.953125 
Q 26.375 6.390625 33.015625 6.390625 
Q 39.65625 6.390625 43.53125 10.953125 
Q 47.40625 15.53125 47.40625 23.390625 
Q 47.40625 31.296875 43.53125 35.828125 
Q 39.65625 40.375 33.015625 40.375 
z
M 52.59375 71.296875 
L 52.59375 62.3125 
Q 48.875 64.0625 45.09375 64.984375 
Q 41.3125 65.921875 37.59375 65.921875 
Q 27.828125 65.921875 22.671875 59.328125 
Q 17.53125 52.734375 16.796875 39.40625 
Q 19.671875 43.65625 24.015625 45.921875 
Q 28.375 48.1875 33.59375 48.1875 
Q 44.578125 48.1875 50.953125 41.515625 
Q 57.328125 34.859375 57.328125 23.390625 
Q 57.328125 12.15625 50.6875 5.359375 
Q 44.046875 -1.421875 33.015625 -1.421875 
Q 20.359375 -1.421875 13.671875 8.265625 
Q 6.984375 17.96875 6.984375 36.375 
Q 6.984375 53.65625 15.1875 63.9375 
Q 23.390625 74.21875 37.203125 74.21875 
Q 40.921875 74.21875 44.703125 73.484375 
Q 48.484375 72.75 52.59375 71.296875 
z
" id="DejaVuSans-54"/>
       </defs>
       <use xlink:href="#DejaVuSans-48"/>
       <use x="63.623047" xlink:href="#DejaVuSans-46"/>
       <use x="95.410156" xlink:href="#DejaVuSans-54"/>
      </g>
     </g>
    </g>
    <g id="ytick_5">
     <g id="line2d_11">
      <g>
       <use style="stroke:#000000;stroke-width:0.8;" x="72" xlink:href="#m215618a75d" y="118.368"/>
      </g>
     </g>
     <g id="text_12">
      <!-- 0.8 -->
      <g transform="translate(49.096875 122.167219)scale(0.1 -0.1)">
       <defs>
        <path d="M 31.78125 34.625 
Q 24.75 34.625 20.71875 30.859375 
Q 16.703125 27.09375 16.703125 20.515625 
Q 16.703125 13.921875 20.71875 10.15625 
Q 24.75 6.390625 31.78125 6.390625 
Q 38.8125 6.390625 42.859375 10.171875 
Q 46.921875 13.96875 46.921875 20.515625 
Q 46.921875 27.09375 42.890625 30.859375 
Q 38.875 34.625 31.78125 34.625 
z
M 21.921875 38.8125 
Q 15.578125 40.375 12.03125 44.71875 
Q 8.5 49.078125 8.5 55.328125 
Q 8.5 64.0625 14.71875 69.140625 
Q 20.953125 74.21875 31.78125 74.21875 
Q 42.671875 74.21875 48.875 69.140625 
Q 55.078125 64.0625 55.078125 55.328125 
Q 55.078125 49.078125 51.53125 44.71875 
Q 48 40.375 41.703125 38.8125 
Q 48.828125 37.15625 52.796875 32.3125 
Q 56.78125 27.484375 56.78125 20.515625 
Q 56.78125 9.90625 50.3125 4.234375 
Q 43.84375 -1.421875 31.78125 -1.421875 
Q 19.734375 -1.421875 13.25 4.234375 
Q 6.78125 9.90625 6.78125 20.515625 
Q 6.78125 27.484375 10.78125 32.3125 
Q 14.796875 37.15625 21.921875 38.8125 
z
M 18.3125 54.390625 
Q 18.3125 48.734375 21.84375 45.5625 
Q 25.390625 42.390625 31.78125 42.390625 
Q 38.140625 42.390625 41.71875 45.5625 
Q 45.3125 48.734375 45.3125 54.390625 
Q 45.3125 60.0625 41.71875 63.234375 
Q 38.140625 66.40625 31.78125 66.40625 
Q 25.390625 66.40625 21.84375 63.234375 
Q 18.3125 60.0625 18.3125 54.390625 
z
" id="DejaVuSans-56"/>
       </defs>
       <use xlink:href="#DejaVuSans-48"/>
       <use x="63.623047" xlink:href="#DejaVuSans-46"/>
       <use x="95.410156" xlink:href="#DejaVuSans-56"/>
      </g>
     </g>
    </g>
    <g id="ytick_6">
     <g id="line2d_12">
      <g>
       <use style="stroke:#000000;stroke-width:0.8;" x="72" xlink:href="#m215618a75d" y="51.84"/>
      </g>
     </g>
     <g id="text_13">
      <!-- 1.0 -->
      <g transform="translate(49.096875 55.639219)scale(0.1 -0.1)">
       <use xlink:href="#DejaVuSans-49"/>
       <use x="63.623047" xlink:href="#DejaVuSans-46"/>
       <use x="95.410156" xlink:href="#DejaVuSans-48"/>
      </g>
     </g>
    </g>
    <g id="text_14">
     <!-- rate -->
     <g transform="translate(43.017187 228.31625)rotate(-90)scale(0.1 -0.1)">
      <defs>
       <path d="M 41.109375 46.296875 
Q 39.59375 47.171875 37.8125 47.578125 
Q 36.03125 48 33.890625 48 
Q 26.265625 48 22.1875 43.046875 
Q 18.109375 38.09375 18.109375 28.8125 
L 18.109375 0 
L 9.078125 0 
L 9.078125 54.6875 
L 18.109375 54.6875 
L 18.109375 46.1875 
Q 20.953125 51.171875 25.484375 53.578125 
Q 30.03125 56 36.53125 56 
Q 37.453125 56 38.578125 55.875 
Q 39.703125 55.765625 41.0625 55.515625 
z
" id="DejaVuSans-114"/>
       <path d="M 34.28125 27.484375 
Q 23.390625 27.484375 19.1875 25 
Q 14.984375 22.515625 14.984375 16.5 
Q 14.984375 11.71875 18.140625 8.90625 
Q 21.296875 6.109375 26.703125 6.109375 
Q 34.1875 6.109375 38.703125 11.40625 
Q 43.21875 16.703125 43.21875 25.484375 
L 43.21875 27.484375 
z
M 52.203125 31.203125 
L 52.203125 0 
L 43.21875 0 
L 43.21875 8.296875 
Q 40.140625 3.328125 35.546875 0.953125 
Q 30.953125 -1.421875 24.3125 -1.421875 
Q 15.921875 -1.421875 10.953125 3.296875 
Q 6 8.015625 6 15.921875 
Q 6 25.140625 12.171875 29.828125 
Q 18.359375 34.515625 30.609375 34.515625 
L 43.21875 34.515625 
L 43.21875 35.40625 
Q 43.21875 41.609375 39.140625 45 
Q 35.0625 48.390625 27.6875 48.390625 
Q 23 48.390625 18.546875 47.265625 
Q 14.109375 46.140625 10.015625 43.890625 
L 10.015625 52.203125 
Q 14.9375 54.109375 19.578125 55.046875 
Q 24.21875 56 28.609375 56 
Q 40.484375 56 46.34375 49.84375 
Q 52.203125 43.703125 52.203125 31.203125 
z
" id="DejaVuSans-97"/>
       <path d="M 18.3125 70.21875 
L 18.3125 54.6875 
L 36.8125 54.6875 
L 36.8125 47.703125 
L 18.3125 47.703125 
L 18.3125 18.015625 
Q 18.3125 11.328125 20.140625 9.421875 
Q 21.96875 7.515625 27.59375 7.515625 
L 36.8125 7.515625 
L 36.8125 0 
L 27.59375 0 
Q 17.1875 0 13.234375 3.875 
Q 9.28125 7.765625 9.28125 18.015625 
L 9.28125 47.703125 
L 2.6875 47.703125 
L 2.6875 54.6875 
L 9.28125 54.6875 
L 9.28125 70.21875 
z
" id="DejaVuSans-116"/>
      </defs>
      <use xlink:href="#DejaVuSans-114"/>
      <use x="41.113281" xlink:href="#DejaVuSans-97"/>
      <use x="102.392578" xlink:href="#DejaVuSans-116"/>
      <use x="141.601562" xlink:href="#DejaVuSans-101"/>
     </g>
    </g>
   </g>
   <g id="line2d_13">
    <path clip-path="url(#pc0a0531a76)" d="M 92.290909 194.786003 
L 93.104172 115.89952 
L 93.917435 118.197403 
L 94.730698 114.975842 
L 95.543961 112.582867 
L 96.357224 112.898213 
L 97.170486 113.078574 
L 98.797012 109.171417 
L 99.610275 108.513774 
L 100.423538 102.016523 
L 101.236801 125.880118 
L 102.050064 109.45497 
L 102.863327 109.852453 
L 103.67659 106.990591 
L 104.489852 105.842242 
L 105.303115 104.177955 
L 106.116378 106.522148 
L 106.929641 103.541746 
L 107.742904 105.55436 
L 108.556167 102.35061 
L 109.36943 126.880462 
L 110.182693 107.934188 
L 110.995956 111.905657 
L 111.809218 108.191074 
L 112.622481 103.416206 
L 113.435744 106.429678 
L 114.249007 104.001258 
L 115.06227 102.219169 
L 115.875533 102.029932 
L 116.688796 104.120662 
L 117.502059 129.936774 
L 118.315322 109.053458 
L 119.128584 107.609922 
L 119.941847 108.875452 
L 120.75511 104.708325 
L 122.381636 104.092986 
L 123.194899 100.64806 
L 124.008162 99.671114 
L 124.821425 106.137698 
L 125.634688 127.186752 
L 126.44795 110.547108 
L 127.261213 105.712988 
L 128.074476 107.990314 
L 128.887739 102.842372 
L 129.701002 102.700837 
L 130.514265 101.597325 
L 131.327528 98.360259 
L 132.140791 95.794369 
L 132.954054 107.13568 
L 133.767316 129.245887 
L 134.580579 111.04391 
L 135.393842 105.848833 
L 136.207105 107.225939 
L 137.020368 103.997848 
L 137.833631 98.882936 
L 138.646894 101.209681 
L 140.27342 93.290129 
L 141.086682 106.43463 
L 141.899945 126.048893 
L 142.713208 114.301481 
L 143.526471 104.834404 
L 144.339734 104.306859 
L 145.152997 101.836818 
L 145.96626 97.502209 
L 146.779523 99.482829 
L 147.592786 94.063629 
L 148.406048 93.874573 
L 150.032574 126.835314 
L 150.845837 115.341371 
L 151.6591 101.617725 
L 152.472363 103.823431 
L 153.285626 101.147072 
L 154.098889 96.347323 
L 154.912152 96.076737 
L 155.725414 92.522518 
L 156.538677 91.781949 
L 157.35194 112.396225 
L 158.165203 125.652496 
L 158.978466 119.962283 
L 159.791729 101.062706 
L 160.604992 101.926387 
L 161.418255 99.913864 
L 162.231518 95.106246 
L 163.858043 90.118596 
L 164.671306 89.676536 
L 165.484569 113.036319 
L 166.297832 127.000086 
L 167.111095 120.935909 
L 167.924358 101.458856 
L 168.737621 100.326476 
L 169.550884 100.370527 
L 170.364146 94.333127 
L 171.177409 89.800656 
L 171.990672 90.035312 
L 172.803935 86.481507 
L 173.617198 106.96162 
L 174.430461 121.311685 
L 175.243724 117.521392 
L 176.056987 114.861699 
L 176.87025 107.774732 
L 177.683512 105.035391 
L 178.496775 105.3001 
L 179.310038 104.102695 
L 180.123301 99.888459 
L 180.936564 99.141879 
L 181.749827 114.142395 
L 182.56309 106.722649 
L 183.376353 116.973201 
L 184.189616 116.661394 
L 185.002878 113.642134 
L 185.816141 106.608677 
L 187.442667 100.612512 
L 188.25593 99.836818 
L 189.069193 96.408366 
L 189.882456 118.388554 
L 190.695719 108.399228 
L 191.508982 115.171298 
L 192.322244 115.543834 
L 193.135507 113.446416 
L 193.94877 109.85305 
L 194.762033 101.342032 
L 195.575296 99.590185 
L 196.388559 97.023489 
L 197.201822 95.421223 
L 198.015085 123.996901 
L 198.828348 102.249079 
L 199.64161 114.320242 
L 200.454873 117.739735 
L 201.268136 113.175025 
L 202.081399 107.755643 
L 202.894662 103.606289 
L 203.707925 101.324641 
L 204.521188 96.892664 
L 205.334451 96.029664 
L 206.147714 119.978462 
L 206.960976 106.562599 
L 207.774239 110.598466 
L 208.587502 114.042562 
L 209.400765 112.867601 
L 210.214028 107.664847 
L 211.027291 101.282005 
L 211.840554 100.756149 
L 212.653817 96.257966 
L 213.46708 96.177416 
L 214.280343 122.672876 
L 215.093605 100.711195 
L 215.906868 110.636954 
L 216.720131 113.291178 
L 217.533394 109.876166 
L 219.15992 106.891849 
L 219.973183 101.787694 
L 220.786446 100.490863 
L 221.599709 94.213369 
L 222.412971 125.080453 
L 223.226234 104.371955 
L 224.039497 108.469935 
L 224.85276 111.584704 
L 225.666023 113.124868 
L 226.479286 108.842839 
L 227.292549 106.173622 
L 228.105812 100.891437 
L 228.919075 99.142423 
L 229.732337 98.666184 
L 230.5456 126.036977 
L 231.358863 106.124328 
L 232.172126 106.515246 
L 232.985389 109.970976 
L 233.798652 111.487502 
L 234.611915 108.430345 
L 236.238441 101.292866 
L 237.051703 101.20242 
L 237.864966 99.337925 
L 238.678229 123.734734 
L 239.491492 102.784363 
L 240.304755 104.531945 
L 241.118018 109.226384 
L 241.931281 110.263046 
L 242.744544 110.263037 
L 243.557807 103.94061 
L 244.371069 102.481005 
L 245.184332 98.782773 
L 245.997595 98.045153 
L 246.810858 133.00467 
L 247.624121 104.032204 
L 248.437384 102.417502 
L 249.250647 107.128954 
L 250.06391 109.651331 
L 250.877173 108.500988 
L 252.503698 102.729652 
L 253.316961 101.715482 
L 254.130224 99.451104 
L 254.943487 124.636205 
L 255.75675 104.687951 
L 256.570013 101.363718 
L 257.383276 105.511884 
L 258.196539 108.999383 
L 259.823064 104.623422 
L 260.636327 105.111452 
L 261.44959 101.277251 
L 262.262853 100.835572 
L 263.076116 130.727484 
L 263.889379 103.528008 
L 264.702642 100.443962 
L 265.515905 103.319806 
L 266.329167 104.797385 
L 267.14243 105.255113 
L 267.955693 105.236343 
L 268.768956 100.094821 
L 269.582219 100.327344 
L 270.395482 99.359056 
L 271.208745 129.87511 
L 272.022008 109.963228 
L 272.835271 102.975721 
L 273.648533 101.089199 
L 274.461796 104.669528 
L 275.275059 106.958926 
L 276.088322 103.4818 
L 276.901585 102.462106 
L 277.714848 101.671757 
L 278.528111 99.485059 
L 279.341374 127.455994 
L 280.154637 112.058278 
L 280.967899 100.787747 
L 281.781162 99.238487 
L 282.594425 105.373471 
L 283.407688 104.389264 
L 284.220951 104.792485 
L 285.034214 100.424036 
L 285.847477 100.95748 
L 286.66074 97.726332 
L 287.474003 127.7641 
L 288.287265 104.132851 
L 289.100528 100.062935 
L 289.913791 98.65229 
L 290.727054 102.208813 
L 292.35358 105.010418 
L 293.166843 102.278744 
L 293.980106 101.010266 
L 294.793369 101.521857 
L 295.606631 124.051275 
L 296.419894 105.535412 
L 297.233157 98.876563 
L 298.04642 99.732481 
L 298.859683 103.422544 
L 299.672946 101.534229 
L 300.486209 101.916223 
L 301.299472 101.782486 
L 302.112735 101.27377 
L 302.925997 99.499131 
L 303.73926 125.71511 
L 304.552523 108.625276 
L 305.365786 102.937636 
L 306.179049 95.901749 
L 306.992312 96.697801 
L 307.805575 101.453283 
L 308.618838 100.670339 
L 309.432101 100.577754 
L 310.245363 99.506602 
L 311.058626 96.85976 
L 311.871889 124.582818 
L 312.685152 109.336242 
L 313.498415 99.349185 
L 314.311678 99.336925 
L 315.124941 97.610763 
L 315.938204 100.709065 
L 316.751467 99.196978 
L 317.564729 100.648663 
L 318.377992 100.410481 
L 319.191255 99.866171 
L 320.004518 125.299267 
L 321.631044 101.686561 
L 323.25757 96.886293 
L 324.070833 101.467067 
L 324.884095 100.029877 
L 325.697358 99.695235 
L 327.323884 97.437556 
L 328.137147 135.421608 
L 328.95041 114.968268 
L 329.763673 100.839149 
L 331.390199 95.79143 
L 332.203461 97.180313 
L 333.016724 96.051248 
L 333.829987 100.112218 
L 334.64325 98.505471 
L 335.456513 97.5582 
L 336.269776 125.099903 
L 337.896302 98.593573 
L 338.709565 95.560388 
L 339.522827 96.167071 
L 340.33609 95.648426 
L 341.149353 95.382756 
L 341.962616 98.912661 
L 342.775879 97.479181 
L 343.589142 100.402495 
L 344.402405 131.043518 
L 345.215668 109.117508 
L 346.028931 108.653091 
L 346.842193 98.749327 
L 347.655456 97.389669 
L 348.468719 95.164163 
L 349.281982 94.480602 
L 350.095245 96.903413 
L 350.908508 98.087635 
L 351.721771 97.398556 
L 352.535034 126.740585 
L 353.348297 106.569321 
L 354.161559 103.411021 
L 354.974822 97.361716 
L 355.788085 94.153712 
L 356.601348 93.54179 
L 357.414611 94.951147 
L 358.227874 96.124839 
L 359.041137 96.073349 
L 359.8544 94.641836 
L 360.667663 128.080726 
L 361.480925 109.3956 
L 362.294188 104.926108 
L 363.107451 97.752922 
L 363.920714 96.242767 
L 364.733977 95.249905 
L 365.54724 94.02146 
L 366.360503 96.86451 
L 367.173766 92.302869 
L 367.987029 96.18653 
L 368.800291 128.784325 
L 369.613554 116.757815 
L 370.426817 102.035891 
L 371.24008 93.485957 
L 372.053343 95.782938 
L 372.866606 90.936682 
L 373.679869 92.898037 
L 374.493132 92.374444 
L 375.306395 94.050149 
L 376.119657 90.685187 
L 376.93292 122.157338 
L 377.746183 117.392304 
L 379.372709 96.261171 
L 380.185972 100.480483 
L 381.812498 91.531134 
L 382.625761 95.515911 
L 383.439024 93.393677 
L 384.252286 91.99314 
L 385.065549 122.903738 
L 386.692075 101.931311 
L 387.505338 101.034252 
L 388.318601 93.447991 
L 389.131864 96.137982 
L 389.945127 88.335119 
L 390.75839 91.765314 
L 391.571652 94.600193 
L 392.384915 94.104521 
L 393.198178 123.53161 
L 394.011441 112.068143 
L 394.824704 104.734736 
L 395.637967 96.132682 
L 396.45123 96.936127 
L 397.264493 92.769971 
L 398.077756 91.362844 
L 398.891018 90.178343 
L 399.704281 92.663344 
L 400.517544 88.718752 
L 401.330807 122.807056 
L 402.957333 106.711074 
L 403.770596 102.402713 
L 404.583859 95.371175 
L 406.210384 90.721256 
L 407.023647 92.76408 
L 407.83691 92.008418 
L 408.650173 88.535373 
L 409.463436 121.528711 
L 410.276699 110.327461 
L 411.089962 110.473947 
L 411.903225 103.306425 
L 412.716488 93.852885 
L 413.52975 96.577888 
L 414.343013 93.079907 
L 415.156276 87.905283 
L 415.969539 87.351357 
L 416.782802 90.473592 
L 417.596065 120.696891 
L 418.409328 106.321381 
L 419.222591 107.705203 
L 420.035854 93.802996 
L 420.849116 101.519919 
L 421.662379 91.164442 
L 422.475642 92.629978 
L 423.288905 91.366809 
L 424.102168 92.329072 
L 424.915431 87.968518 
L 425.728694 124.143311 
L 426.541957 118.461958 
L 427.35522 101.75733 
L 428.168482 104.599378 
L 428.981745 93.904384 
L 429.795008 96.974415 
L 430.608271 92.913346 
L 431.421534 92.40945 
L 432.234797 88.567917 
L 433.04806 91.176881 
L 433.861323 121.318215 
L 434.674586 113.255214 
L 435.487848 109.504106 
L 436.301111 102.417759 
L 437.114374 92.599002 
L 437.927637 98.183265 
L 439.554163 93.633348 
L 440.367426 87.83182 
L 441.180689 90.981 
L 441.993952 119.669023 
L 442.807214 109.412721 
L 443.620477 101.146655 
L 444.43374 107.95279 
L 445.247003 101.492161 
L 446.060266 92.012383 
L 446.873529 93.68618 
L 447.686792 94.460619 
L 448.500055 89.427063 
L 449.313318 90.986371 
L 450.12658 121.720613 
L 450.939843 108.102633 
L 451.753106 107.832428 
L 452.566369 97.274446 
L 453.379632 102.510871 
L 454.192895 98.781393 
L 455.006158 97.051881 
L 455.819421 89.251709 
L 456.632684 95.205332 
L 457.445946 91.227263 
L 458.259209 120.2019 
L 459.072472 114.219746 
L 459.885735 103.383333 
L 460.698998 104.086963 
L 461.512261 93.494855 
L 462.325524 100.430592 
L 463.138787 99.157664 
L 463.95205 93.296767 
L 464.765312 92.742876 
L 465.578575 89.721199 
L 466.391838 117.520782 
L 467.205101 104.497287 
L 468.018364 104.765814 
L 468.831627 98.264674 
L 469.64489 93.127655 
L 470.458153 104.257254 
L 471.271416 96.970419 
L 472.084678 94.828485 
L 472.897941 89.135845 
L 473.711204 90.765127 
L 474.524467 113.559819 
L 475.33773 109.974646 
L 476.150993 102.979112 
L 476.964256 99.755118 
L 477.777519 100.446006 
L 478.590782 102.394214 
L 479.404044 99.96735 
L 480.217307 95.893832 
L 481.03057 93.191409 
L 481.843833 92.741658 
L 482.657096 111.551496 
L 483.470359 106.864865 
L 484.283622 104.445607 
L 485.096885 103.05077 
L 485.910148 104.178017 
L 486.72341 100.722109 
L 487.536673 101.706256 
L 488.349936 99.871399 
L 489.163199 91.220989 
L 489.976462 95.548643 
L 490.789725 108.66903 
L 491.602988 106.581563 
L 492.416251 106.007032 
L 493.229514 106.660824 
L 494.042776 96.431854 
L 494.856039 97.411397 
L 495.669302 99.433725 
L 496.482565 102.701542 
L 497.295828 95.880114 
L 498.109091 90.774051 
L 498.109091 90.774051 
" style="fill:none;stroke:#0000ff;stroke-linecap:square;stroke-width:1.5;"/>
   </g>
   <g id="line2d_14">
    <path clip-path="url(#pc0a0531a76)" d="M 92.290909 174.867 
L 93.104172 154.289649 
L 93.917435 154.893818 
L 94.730698 150.29906 
L 95.543961 152.395172 
L 96.357224 148.698058 
L 97.170486 151.793203 
L 97.983749 148.682651 
L 98.797012 148.424749 
L 99.610275 147.258349 
L 100.423538 214.486533 
L 101.236801 140.981191 
L 102.050064 167.894446 
L 102.863327 148.494535 
L 103.67659 149.235845 
L 104.489852 143.934029 
L 105.303115 143.436819 
L 106.116378 142.065162 
L 106.929641 141.372177 
L 107.742904 138.319389 
L 108.556167 217.896032 
L 109.36943 135.56185 
L 110.182693 164.014134 
L 110.995956 148.571598 
L 111.809218 143.169597 
L 112.622481 144.159602 
L 113.435744 138.839614 
L 114.249007 140.637628 
L 115.06227 137.207235 
L 115.875533 136.613962 
L 116.688796 222.070153 
L 117.502059 133.133389 
L 118.315322 159.449147 
L 119.128584 148.107678 
L 119.941847 141.1649 
L 120.75511 141.545387 
L 121.568373 136.488072 
L 122.381636 137.127546 
L 123.194899 131.904567 
L 124.008162 132.252434 
L 124.821425 226.900569 
L 125.634688 131.612776 
L 126.44795 152.781234 
L 127.261213 149.024761 
L 128.074476 136.846007 
L 128.887739 138.582278 
L 129.701002 135.116159 
L 130.514265 132.689954 
L 131.327528 130.873566 
L 132.140791 126.875159 
L 132.954054 231.727032 
L 133.767316 130.954447 
L 134.580579 148.192995 
L 135.393842 152.65668 
L 136.207105 135.850388 
L 137.020368 132.681082 
L 137.833631 133.776172 
L 138.646894 127.443173 
L 139.460157 126.125597 
L 140.27342 125.435154 
L 141.086682 235.252829 
L 141.899945 129.054788 
L 142.713208 142.527549 
L 143.526471 149.60005 
L 144.339734 133.438862 
L 145.152997 132.911046 
L 145.96626 129.328217 
L 146.779523 126.395798 
L 147.592786 120.042802 
L 148.406048 119.377923 
L 149.219311 240.199262 
L 150.032574 130.743471 
L 150.845837 139.67246 
L 151.6591 150.536892 
L 152.472363 133.849382 
L 153.285626 129.451919 
L 154.098889 127.272695 
L 155.725414 119.193674 
L 156.538677 116.453723 
L 157.35194 242.226006 
L 158.165203 129.271584 
L 158.978466 135.187886 
L 159.791729 146.069158 
L 160.604992 131.281775 
L 161.418255 123.166874 
L 162.231518 123.151085 
L 163.858043 113.916049 
L 164.671306 114.034521 
L 165.484569 245.244988 
L 166.297832 130.740633 
L 167.111095 131.066955 
L 167.924358 145.83341 
L 168.737621 130.023817 
L 170.364146 117.534372 
L 171.177409 116.267802 
L 171.990672 109.673365 
L 172.803935 108.200789 
L 173.617198 249.207067 
L 174.430461 137.271368 
L 175.243724 133.516642 
L 176.056987 134.103706 
L 176.87025 138.38274 
L 177.683512 138.142848 
L 178.496775 131.492176 
L 179.310038 126.229399 
L 180.936564 124.027709 
L 181.749827 300.712977 
L 182.56309 186.61572 
L 183.376353 137.52575 
L 184.189616 128.701202 
L 185.002878 132.193343 
L 185.816141 132.68375 
L 186.629404 133.791494 
L 187.442667 127.809569 
L 188.25593 123.728264 
L 189.069193 120.678412 
L 189.882456 300.388483 
L 190.695719 198.278899 
L 191.508982 139.711461 
L 192.322244 130.527464 
L 193.135507 127.93534 
L 193.94877 132.722153 
L 195.575296 125.498402 
L 196.388559 124.176706 
L 197.201822 120.487845 
L 198.015085 306.560207 
L 198.828348 204.602411 
L 199.64161 143.185608 
L 200.454873 131.130009 
L 201.268136 128.355844 
L 202.081399 129.558964 
L 202.894662 129.291819 
L 203.707925 126.465864 
L 204.521188 120.287693 
L 205.334451 118.152967 
L 206.147714 302.936631 
L 206.960976 218.317261 
L 207.774239 148.646403 
L 208.587502 132.686555 
L 209.400765 126.536987 
L 210.214028 127.633469 
L 211.027291 126.869753 
L 211.840554 126.703474 
L 212.653817 119.582468 
L 213.46708 117.843595 
L 214.280343 308.112514 
L 215.906868 153.552 
L 216.720131 134.015253 
L 217.533394 126.908417 
L 218.346657 127.423474 
L 219.15992 127.458149 
L 219.973183 124.555455 
L 220.786446 124.346195 
L 221.599709 118.646031 
L 222.412971 308.158389 
L 224.039497 164.473215 
L 224.85276 137.234537 
L 225.666023 131.962234 
L 226.479286 127.787209 
L 227.292549 126.633225 
L 228.105812 123.577899 
L 228.919075 123.320689 
L 229.732337 122.30069 
L 230.5456 310.049008 
L 231.358863 248.306323 
L 232.172126 171.681723 
L 232.985389 142.452533 
L 233.798652 130.725424 
L 234.611915 131.325126 
L 235.425178 129.301712 
L 237.051703 123.513261 
L 237.864966 122.417354 
L 238.678229 309.81864 
L 239.491492 255.518951 
L 240.304755 180.644413 
L 241.118018 144.147122 
L 241.931281 133.460559 
L 242.744544 130.226718 
L 243.557807 128.157439 
L 245.184332 121.663531 
L 245.997595 122.690194 
L 246.810858 310.509716 
L 247.624121 263.45532 
L 248.437384 187.522046 
L 249.250647 151.444554 
L 250.06391 135.698435 
L 250.877173 130.283456 
L 251.690435 128.256309 
L 252.503698 124.279971 
L 253.316961 124.482357 
L 254.130224 122.099674 
L 254.943487 309.985543 
L 255.75675 268.028927 
L 256.570013 203.270103 
L 257.383276 160.083105 
L 258.196539 139.743343 
L 259.823064 128.43737 
L 260.636327 129.885929 
L 261.44959 123.363017 
L 262.262853 124.405028 
L 263.076116 311.763423 
L 263.889379 273.762379 
L 264.702642 213.27367 
L 265.515905 166.19082 
L 266.329167 145.804207 
L 267.14243 135.267363 
L 267.955693 131.447299 
L 268.768956 128.754856 
L 269.582219 124.439827 
L 270.395482 124.884909 
L 271.208745 312.265012 
L 272.022008 279.659258 
L 272.835271 222.252619 
L 273.648533 175.695985 
L 274.461796 150.513395 
L 275.275059 138.956548 
L 276.088322 133.715658 
L 276.901585 132.49791 
L 277.714848 128.730042 
L 278.528111 126.16427 
L 279.341374 312.316419 
L 280.154637 284.022909 
L 281.781162 180.672362 
L 282.594425 157.891767 
L 283.407688 144.605579 
L 284.220951 136.633088 
L 285.034214 131.479958 
L 285.847477 131.358479 
L 286.66074 128.238458 
L 287.474003 312.59707 
L 288.287265 286.136446 
L 289.913791 196.062938 
L 290.727054 164.856138 
L 291.540317 146.953656 
L 292.35358 140.420654 
L 293.166843 137.083213 
L 293.980106 132.223771 
L 294.793369 131.56029 
L 295.606631 315.216884 
L 296.419894 288.036386 
L 298.04642 202.355848 
L 298.859683 171.583018 
L 299.672946 154.45795 
L 300.486209 145.382181 
L 301.299472 141.698677 
L 302.925997 130.775912 
L 303.73926 317.624004 
L 304.552523 295.210825 
L 306.992312 181.389594 
L 307.805575 160.990003 
L 308.618838 149.284818 
L 310.245363 135.333618 
L 311.058626 131.993622 
L 311.871889 314.454464 
L 312.685152 296.360445 
L 315.124941 188.026517 
L 316.751467 152.890137 
L 317.564729 145.580811 
L 318.377992 143.276849 
L 319.191255 137.250359 
L 320.004518 313.818024 
L 320.817781 298.892983 
L 321.631044 270.468417 
L 323.25757 202.543059 
L 324.070833 177.704962 
L 324.884095 163.25826 
L 326.510621 143.498562 
L 327.323884 139.628512 
L 328.137147 319.725442 
L 328.95041 303.232816 
L 329.763673 276.553818 
L 331.390199 210.576527 
L 332.203461 185.985264 
L 333.016724 168.836631 
L 333.829987 159.978611 
L 334.64325 149.304744 
L 335.456513 145.970784 
L 336.269776 316.502843 
L 337.083039 305.21997 
L 337.896302 279.277334 
L 339.522827 219.519287 
L 340.33609 196.637491 
L 341.149353 178.917555 
L 341.962616 164.296191 
L 342.775879 154.673081 
L 343.589142 150.599624 
L 344.402405 319.804484 
L 345.215668 305.974234 
L 346.028931 287.26995 
L 347.655456 229.282085 
L 349.281982 187.440046 
L 350.095245 173.540095 
L 350.908508 162.885418 
L 351.721771 157.784184 
L 352.535034 319.859907 
L 353.348297 308.231988 
L 354.161559 290.433545 
L 356.601348 218.088185 
L 358.227874 184.415503 
L 359.041137 170.767247 
L 359.8544 166.838122 
L 360.667663 321.703986 
L 361.480925 310.396004 
L 362.294188 294.107644 
L 364.733977 225.756212 
L 365.54724 206.104433 
L 366.360503 194.929695 
L 367.173766 181.484549 
L 367.987029 171.827966 
L 368.800291 323.380378 
L 369.613554 311.409852 
L 370.426817 296.724717 
L 372.053343 256.876265 
L 372.866606 234.921297 
L 374.493132 204.055316 
L 376.119657 178.008463 
L 376.93292 323.582489 
L 377.746183 317.73433 
L 378.559446 301.925725 
L 379.372709 281.455804 
L 380.185972 267.876927 
L 380.999235 245.940587 
L 381.812498 232.56169 
L 383.439024 201.031308 
L 384.252286 187.719409 
L 385.065549 323.905356 
L 385.878812 316.879922 
L 386.692075 305.265153 
L 389.945127 238.016833 
L 390.75839 228.082396 
L 392.384915 198.081644 
L 393.198178 324.665601 
L 394.011441 320.306767 
L 394.824704 308.206886 
L 397.264493 264.009805 
L 398.077756 247.595253 
L 398.891018 238.86558 
L 399.704281 222.248045 
L 400.517544 208.545276 
L 401.330807 325.732941 
L 402.14407 322.360207 
L 405.397122 272.650224 
L 407.023647 243.44695 
L 407.83691 233.916609 
L 408.650173 219.694035 
L 409.463436 327.92786 
L 411.089962 316.596412 
L 411.903225 301.995174 
L 412.716488 292.094436 
L 415.969539 244.54056 
L 416.782802 233.992387 
L 417.596065 328.997417 
L 418.409328 323.534122 
L 420.849116 300.278118 
L 421.662379 285.38936 
L 422.475642 275.957684 
L 423.288905 263.290293 
L 424.915431 241.542266 
L 425.728694 329.67269 
L 426.541957 328.032681 
L 428.981745 302.198403 
L 430.608271 284.378546 
L 432.234797 263.294939 
L 433.04806 255.751106 
L 433.861323 331.439397 
L 434.674586 326.388799 
L 435.487848 320.463039 
L 436.301111 313.695363 
L 437.114374 305.57812 
L 437.927637 300.114201 
L 438.7409 293.348026 
L 440.367426 273.188875 
L 441.180689 263.89701 
L 441.993952 333.228938 
L 442.807214 329.559466 
L 444.43374 316.898508 
L 445.247003 311.361434 
L 446.060266 302.079396 
L 446.873529 297.60021 
L 447.686792 291.562245 
L 448.500055 283.009954 
L 449.313318 275.816573 
L 450.12658 335.330425 
L 450.939843 332.059958 
L 451.753106 325.725479 
L 452.566369 317.729789 
L 453.379632 315.929878 
L 455.006158 301.618336 
L 455.819421 296.523402 
L 456.632684 289.216937 
L 457.445946 283.034956 
L 458.259209 336.810303 
L 459.072472 333.806327 
L 459.885735 327.689918 
L 460.698998 324.225951 
L 461.512261 319.81895 
L 462.325524 313.809472 
L 463.138787 309.162645 
L 463.95205 305.775983 
L 465.578575 289.295019 
L 466.391838 337.951263 
L 467.205101 334.33521 
L 468.831627 325.857022 
L 469.64489 323.309092 
L 470.458153 317.057295 
L 471.271416 313.855001 
L 472.084678 305.816183 
L 472.897941 304.16453 
L 473.711204 298.482381 
L 474.524467 337.381619 
L 475.33773 334.896591 
L 476.150993 334.043114 
L 476.964256 325.634657 
L 477.777519 322.989793 
L 478.590782 322.256874 
L 479.404044 316.479141 
L 480.217307 311.750117 
L 481.03057 308.103716 
L 481.843833 303.713489 
L 482.657096 340.115701 
L 483.470359 336.457164 
L 484.283622 334.723151 
L 485.096885 330.910416 
L 485.910148 329.522553 
L 486.72341 321.407235 
L 487.536673 319.785845 
L 488.349936 316.160756 
L 489.976462 311.130167 
L 490.789725 340.111056 
L 491.602988 337.529527 
L 492.416251 337.318684 
L 493.229514 333.350843 
L 494.042776 330.82832 
L 495.669302 322.450558 
L 496.482565 321.38306 
L 497.295828 314.557779 
L 498.109091 313.511131 
L 498.109091 313.511131 
" style="fill:none;stroke:#008000;stroke-linecap:square;stroke-width:1.5;"/>
   </g>
   <g id="patch_3">
    <path d="M 72 384.48 
L 72 51.84 
" style="fill:none;stroke:#000000;stroke-linecap:square;stroke-linejoin:miter;stroke-width:0.8;"/>
   </g>
   <g id="patch_4">
    <path d="M 518.4 384.48 
L 518.4 51.84 
" style="fill:none;stroke:#000000;stroke-linecap:square;stroke-linejoin:miter;stroke-width:0.8;"/>
   </g>
   <g id="patch_5">
    <path d="M 72 384.48 
L 518.4 384.48 
" style="fill:none;stroke:#000000;stroke-linecap:square;stroke-linejoin:miter;stroke-width:0.8;"/>
   </g>
   <g id="patch_6">
    <path d="M 72 51.84 
L 518.4 51.84 
" style="fill:none;stroke:#000000;stroke-linecap:square;stroke-linejoin:miter;stroke-width:0.8;"/>
   </g>
   <g id="legend_1">
    <g id="patch_7">
     <path d="M 79 89.19625 
L 156.107812 89.19625 
Q 158.107812 89.19625 158.107812 87.19625 
L 158.107812 58.84 
Q 158.107812 56.84 156.107812 56.84 
L 79 56.84 
Q 77 56.84 77 58.84 
L 77 87.19625 
Q 77 89.19625 79 89.19625 
z
" style="fill:#ffffff;opacity:0.8;stroke:#cccccc;stroke-linejoin:miter;"/>
    </g>
    <g id="line2d_15">
     <path d="M 81 64.938437 
L 101 64.938437 
" style="fill:none;stroke:#0000ff;stroke-linecap:square;stroke-width:1.5;"/>
    </g>
    <g id="line2d_16"/>
    <g id="text_15">
     <!-- precision -->
     <g transform="translate(109 68.438437)scale(0.1 -0.1)">
      <defs>
       <path d="M 9.421875 54.6875 
L 18.40625 54.6875 
L 18.40625 0 
L 9.421875 0 
z
M 9.421875 75.984375 
L 18.40625 75.984375 
L 18.40625 64.59375 
L 9.421875 64.59375 
z
" id="DejaVuSans-105"/>
       <path d="M 44.28125 53.078125 
L 44.28125 44.578125 
Q 40.484375 46.53125 36.375 47.5 
Q 32.28125 48.484375 27.875 48.484375 
Q 21.1875 48.484375 17.84375 46.4375 
Q 14.5 44.390625 14.5 40.28125 
Q 14.5 37.15625 16.890625 35.375 
Q 19.28125 33.59375 26.515625 31.984375 
L 29.59375 31.296875 
Q 39.15625 29.25 43.1875 25.515625 
Q 47.21875 21.78125 47.21875 15.09375 
Q 47.21875 7.46875 41.1875 3.015625 
Q 35.15625 -1.421875 24.609375 -1.421875 
Q 20.21875 -1.421875 15.453125 -0.5625 
Q 10.6875 0.296875 5.421875 2 
L 5.421875 11.28125 
Q 10.40625 8.6875 15.234375 7.390625 
Q 20.0625 6.109375 24.8125 6.109375 
Q 31.15625 6.109375 34.5625 8.28125 
Q 37.984375 10.453125 37.984375 14.40625 
Q 37.984375 18.0625 35.515625 20.015625 
Q 33.0625 21.96875 24.703125 23.78125 
L 21.578125 24.515625 
Q 13.234375 26.265625 9.515625 29.90625 
Q 5.8125 33.546875 5.8125 39.890625 
Q 5.8125 47.609375 11.28125 51.796875 
Q 16.75 56 26.8125 56 
Q 31.78125 56 36.171875 55.265625 
Q 40.578125 54.546875 44.28125 53.078125 
z
" id="DejaVuSans-115"/>
       <path d="M 54.890625 33.015625 
L 54.890625 0 
L 45.90625 0 
L 45.90625 32.71875 
Q 45.90625 40.484375 42.875 44.328125 
Q 39.84375 48.1875 33.796875 48.1875 
Q 26.515625 48.1875 22.3125 43.546875 
Q 18.109375 38.921875 18.109375 30.90625 
L 18.109375 0 
L 9.078125 0 
L 9.078125 54.6875 
L 18.109375 54.6875 
L 18.109375 46.1875 
Q 21.34375 51.125 25.703125 53.5625 
Q 30.078125 56 35.796875 56 
Q 45.21875 56 50.046875 50.171875 
Q 54.890625 44.34375 54.890625 33.015625 
z
" id="DejaVuSans-110"/>
      </defs>
      <use xlink:href="#DejaVuSans-112"/>
      <use x="63.476562" xlink:href="#DejaVuSans-114"/>
      <use x="102.339844" xlink:href="#DejaVuSans-101"/>
      <use x="163.863281" xlink:href="#DejaVuSans-99"/>
      <use x="218.84375" xlink:href="#DejaVuSans-105"/>
      <use x="246.626953" xlink:href="#DejaVuSans-115"/>
      <use x="298.726562" xlink:href="#DejaVuSans-105"/>
      <use x="326.509766" xlink:href="#DejaVuSans-111"/>
      <use x="387.691406" xlink:href="#DejaVuSans-110"/>
     </g>
    </g>
    <g id="line2d_17">
     <path d="M 81 79.616562 
L 101 79.616562 
" style="fill:none;stroke:#008000;stroke-linecap:square;stroke-width:1.5;"/>
    </g>
    <g id="line2d_18"/>
    <g id="text_16">
     <!-- recall -->
     <g transform="translate(109 83.116562)scale(0.1 -0.1)">
      <defs>
       <path d="M 9.421875 75.984375 
L 18.40625 75.984375 
L 18.40625 0 
L 9.421875 0 
z
" id="DejaVuSans-108"/>
      </defs>
      <use xlink:href="#DejaVuSans-114"/>
      <use x="38.863281" xlink:href="#DejaVuSans-101"/>
      <use x="100.386719" xlink:href="#DejaVuSans-99"/>
      <use x="155.367188" xlink:href="#DejaVuSans-97"/>
      <use x="216.646484" xlink:href="#DejaVuSans-108"/>
      <use x="244.429688" xlink:href="#DejaVuSans-108"/>
     </g>
    </g>
   </g>
  </g>
  <g id="axes_2">
   <g id="matplotlib.axis_3">
    <g id="ytick_7">
     <g id="line2d_19">
      <defs>
       <path d="M 0 0 
L 3.5 0 
" id="mce0a35510a" style="stroke:#000000;stroke-width:0.8;"/>
      </defs>
      <g>
       <use style="stroke:#000000;stroke-width:0.8;" x="518.4" xlink:href="#mce0a35510a" y="349.920201"/>
      </g>
     </g>
     <g id="text_17">
      <!-- 0.15 -->
      <g transform="translate(525.4 353.71942)scale(0.1 -0.1)">
       <use xlink:href="#DejaVuSans-48"/>
       <use x="63.623047" xlink:href="#DejaVuSans-46"/>
       <use x="95.410156" xlink:href="#DejaVuSans-49"/>
       <use x="159.033203" xlink:href="#DejaVuSans-53"/>
      </g>
     </g>
    </g>
    <g id="ytick_8">
     <g id="line2d_20">
      <g>
       <use style="stroke:#000000;stroke-width:0.8;" x="518.4" xlink:href="#mce0a35510a" y="301.035426"/>
      </g>
     </g>
     <g id="text_18">
      <!-- 0.20 -->
      <g transform="translate(525.4 304.834645)scale(0.1 -0.1)">
       <use xlink:href="#DejaVuSans-48"/>
       <use x="63.623047" xlink:href="#DejaVuSans-46"/>
       <use x="95.410156" xlink:href="#DejaVuSans-50"/>
       <use x="159.033203" xlink:href="#DejaVuSans-48"/>
      </g>
     </g>
    </g>
    <g id="ytick_9">
     <g id="line2d_21">
      <g>
       <use style="stroke:#000000;stroke-width:0.8;" x="518.4" xlink:href="#mce0a35510a" y="252.150651"/>
      </g>
     </g>
     <g id="text_19">
      <!-- 0.25 -->
      <g transform="translate(525.4 255.94987)scale(0.1 -0.1)">
       <use xlink:href="#DejaVuSans-48"/>
       <use x="63.623047" xlink:href="#DejaVuSans-46"/>
       <use x="95.410156" xlink:href="#DejaVuSans-50"/>
       <use x="159.033203" xlink:href="#DejaVuSans-53"/>
      </g>
     </g>
    </g>
    <g id="ytick_10">
     <g id="line2d_22">
      <g>
       <use style="stroke:#000000;stroke-width:0.8;" x="518.4" xlink:href="#mce0a35510a" y="203.265876"/>
      </g>
     </g>
     <g id="text_20">
      <!-- 0.30 -->
      <g transform="translate(525.4 207.065095)scale(0.1 -0.1)">
       <use xlink:href="#DejaVuSans-48"/>
       <use x="63.623047" xlink:href="#DejaVuSans-46"/>
       <use x="95.410156" xlink:href="#DejaVuSans-51"/>
       <use x="159.033203" xlink:href="#DejaVuSans-48"/>
      </g>
     </g>
    </g>
    <g id="ytick_11">
     <g id="line2d_23">
      <g>
       <use style="stroke:#000000;stroke-width:0.8;" x="518.4" xlink:href="#mce0a35510a" y="154.381101"/>
      </g>
     </g>
     <g id="text_21">
      <!-- 0.35 -->
      <g transform="translate(525.4 158.18032)scale(0.1 -0.1)">
       <use xlink:href="#DejaVuSans-48"/>
       <use x="63.623047" xlink:href="#DejaVuSans-46"/>
       <use x="95.410156" xlink:href="#DejaVuSans-51"/>
       <use x="159.033203" xlink:href="#DejaVuSans-53"/>
      </g>
     </g>
    </g>
    <g id="ytick_12">
     <g id="line2d_24">
      <g>
       <use style="stroke:#000000;stroke-width:0.8;" x="518.4" xlink:href="#mce0a35510a" y="105.496326"/>
      </g>
     </g>
     <g id="text_22">
      <!-- 0.40 -->
      <g transform="translate(525.4 109.295545)scale(0.1 -0.1)">
       <use xlink:href="#DejaVuSans-48"/>
       <use x="63.623047" xlink:href="#DejaVuSans-46"/>
       <use x="95.410156" xlink:href="#DejaVuSans-52"/>
       <use x="159.033203" xlink:href="#DejaVuSans-48"/>
      </g>
     </g>
    </g>
    <g id="ytick_13">
     <g id="line2d_25">
      <g>
       <use style="stroke:#000000;stroke-width:0.8;" x="518.4" xlink:href="#mce0a35510a" y="56.611551"/>
      </g>
     </g>
     <g id="text_23">
      <!-- 0.45 -->
      <g transform="translate(525.4 60.41077)scale(0.1 -0.1)">
       <use xlink:href="#DejaVuSans-48"/>
       <use x="63.623047" xlink:href="#DejaVuSans-46"/>
       <use x="95.410156" xlink:href="#DejaVuSans-52"/>
       <use x="159.033203" xlink:href="#DejaVuSans-53"/>
      </g>
     </g>
    </g>
    <g id="text_24">
     <!-- loss -->
     <g transform="translate(559.264063 227.817812)rotate(-90)scale(0.1 -0.1)">
      <use xlink:href="#DejaVuSans-108"/>
      <use x="27.783203" xlink:href="#DejaVuSans-111"/>
      <use x="88.964844" xlink:href="#DejaVuSans-115"/>
      <use x="141.064453" xlink:href="#DejaVuSans-115"/>
     </g>
    </g>
   </g>
   <g id="line2d_26">
    <path clip-path="url(#pc0a0531a76)" d="M 92.290909 66.96 
L 93.104172 239.72689 
L 93.917435 244.890786 
L 94.730698 253.042138 
L 95.543961 262.565547 
L 96.357224 266.851231 
L 97.170486 269.959678 
L 97.983749 272.401336 
L 98.797012 276.095929 
L 99.610275 278.518764 
L 100.423538 237.893141 
L 101.236801 263.735793 
L 102.050064 281.459449 
L 102.863327 288.744539 
L 103.67659 292.959624 
L 105.303115 298.141696 
L 107.742904 303.957788 
L 108.556167 242.772999 
L 109.36943 272.494319 
L 110.182693 290.186337 
L 110.995956 298.454357 
L 111.809218 303.489495 
L 112.622481 307.329646 
L 113.435744 309.870426 
L 114.249007 311.35889 
L 115.06227 314.120077 
L 115.875533 315.199643 
L 116.688796 248.4536 
L 117.502059 279.248423 
L 118.315322 298.492588 
L 119.128584 307.477328 
L 120.75511 315.903699 
L 121.568373 318.701394 
L 122.381636 322.668533 
L 123.194899 325.590666 
L 124.008162 326.579229 
L 124.821425 252.502742 
L 125.634688 286.900626 
L 126.44795 304.945366 
L 127.261213 316.188815 
L 128.887739 325.320333 
L 129.701002 329.214752 
L 130.514265 331.536897 
L 132.140791 337.445918 
L 132.954054 255.095292 
L 133.767316 292.857068 
L 134.580579 312.323765 
L 135.393842 321.849901 
L 136.207105 329.082226 
L 137.020368 334.512171 
L 139.460157 345.311508 
L 140.27342 346.155799 
L 141.086682 253.539533 
L 141.899945 297.674089 
L 142.713208 317.787762 
L 143.526471 328.803868 
L 144.339734 334.93499 
L 145.152997 339.677467 
L 146.779523 346.389551 
L 147.592786 352.278222 
L 148.406048 352.551048 
L 149.219311 255.395979 
L 150.032574 302.060225 
L 150.845837 320.536033 
L 151.6591 332.838746 
L 152.472363 340.588909 
L 153.285626 346.516069 
L 154.098889 349.188657 
L 154.912152 352.978984 
L 155.725414 358.442929 
L 156.538677 358.361614 
L 157.35194 252.522724 
L 158.165203 305.413702 
L 158.978466 322.592623 
L 159.791729 337.413267 
L 160.604992 346.337644 
L 161.418255 351.472687 
L 162.231518 355.492903 
L 163.04478 360.703654 
L 163.858043 364.443798 
L 164.671306 363.716342 
L 165.484569 246.309877 
L 166.297832 305.974739 
L 167.111095 324.716498 
L 167.924358 339.002947 
L 168.737621 348.995891 
L 171.177409 364.549553 
L 171.990672 367.771716 
L 172.803935 369.36 
L 173.617198 246.393679 
L 174.430461 308.635884 
L 176.056987 329.322739 
L 176.87025 337.553838 
L 177.683512 341.834797 
L 178.496775 344.393339 
L 180.123301 352.829447 
L 180.936564 354.251085 
L 181.749827 213.379398 
L 182.56309 295.686063 
L 183.376353 315.777626 
L 184.189616 328.178325 
L 185.002878 336.040613 
L 185.816141 345.388686 
L 186.629404 345.457588 
L 187.442667 352.395206 
L 189.069193 358.65695 
L 189.882456 207.141461 
L 190.695719 290.986149 
L 191.508982 317.349962 
L 193.135507 339.829747 
L 193.94877 343.542697 
L 195.575296 356.136739 
L 197.201822 360.68426 
L 198.015085 203.745411 
L 198.828348 286.811122 
L 199.64161 316.379387 
L 200.454873 328.825482 
L 201.268136 339.078018 
L 202.081399 343.525077 
L 202.894662 350.972254 
L 204.521188 361.321557 
L 205.334451 363.266924 
L 206.147714 201.490073 
L 206.960976 281.950441 
L 207.774239 316.874648 
L 209.400765 338.990202 
L 210.214028 347.47783 
L 211.027291 351.971748 
L 211.840554 354.921287 
L 212.653817 361.801427 
L 213.46708 362.705753 
L 214.280343 199.110435 
L 215.093605 275.005068 
L 215.906868 313.06255 
L 216.720131 328.310371 
L 217.533394 340.807572 
L 218.346657 346.012102 
L 219.15992 350.185145 
L 219.973183 355.029636 
L 221.599709 362.253724 
L 222.412971 195.967754 
L 223.226234 268.843119 
L 224.039497 310.520148 
L 224.85276 327.193126 
L 226.479286 346.011655 
L 227.292549 350.996795 
L 228.105812 357.28966 
L 228.919075 359.87814 
L 229.732337 361.045823 
L 230.5456 190.389371 
L 231.358863 265.532248 
L 232.172126 308.137597 
L 232.985389 324.375635 
L 233.798652 337.364543 
L 234.611915 344.843188 
L 237.051703 358.969774 
L 237.864966 361.462883 
L 238.678229 188.263573 
L 239.491492 259.08932 
L 240.304755 305.001916 
L 241.118018 325.719414 
L 241.931281 335.661007 
L 242.744544 341.171049 
L 243.557807 349.826524 
L 244.371069 352.4734 
L 245.184332 359.441488 
L 245.997595 360.912129 
L 246.810858 185.79073 
L 247.624121 253.889801 
L 248.437384 302.952769 
L 249.250647 324.162955 
L 250.877173 343.859766 
L 251.690435 348.799806 
L 252.503698 355.038049 
L 253.316961 357.167178 
L 254.130224 361.630364 
L 254.943487 184.34581 
L 255.75675 250.47798 
L 256.570013 295.840301 
L 257.383276 317.321473 
L 258.196539 334.476774 
L 259.009801 341.721834 
L 259.823064 347.229749 
L 261.44959 356.314319 
L 262.262853 358.127374 
L 263.076116 180.780125 
L 263.889379 243.039754 
L 264.702642 291.272357 
L 265.515905 318.880179 
L 266.329167 330.526462 
L 267.14243 339.979368 
L 267.955693 346.896818 
L 268.768956 352.6993 
L 269.582219 355.980003 
L 270.395482 358.721664 
L 271.208745 181.153022 
L 272.022008 235.956159 
L 272.835271 283.002349 
L 273.648533 316.56652 
L 274.461796 329.743926 
L 275.275059 336.136624 
L 276.088322 345.795522 
L 276.901585 348.345897 
L 277.714848 352.078291 
L 278.528111 357.35419 
L 279.341374 176.435758 
L 280.154637 234.410708 
L 280.967899 281.953125 
L 281.781162 312.173027 
L 282.594425 324.445387 
L 283.407688 333.963654 
L 285.034214 350.719789 
L 285.847477 351.605405 
L 286.66074 357.647761 
L 287.474003 180.148302 
L 289.100528 277.377066 
L 289.913791 306.12125 
L 290.727054 324.849304 
L 291.540317 334.128029 
L 292.35358 338.920265 
L 293.166843 345.936442 
L 293.980106 351.010369 
L 294.793369 351.850139 
L 295.606631 178.572625 
L 297.233157 271.471529 
L 298.04642 300.783658 
L 299.672946 332.343034 
L 301.299472 342.832846 
L 302.112735 348.077838 
L 302.925997 352.544721 
L 303.73926 177.095556 
L 305.365786 264.845445 
L 306.179049 293.957446 
L 306.992312 314.526041 
L 307.805575 326.964914 
L 308.618838 335.487183 
L 309.432101 340.865414 
L 310.245363 348.309184 
L 311.058626 353.187242 
L 311.871889 173.461616 
L 313.498415 260.724742 
L 315.124941 313.159906 
L 315.938204 322.89707 
L 316.751467 334.256628 
L 317.564729 339.230828 
L 318.377992 341.136327 
L 319.191255 349.075728 
L 320.004518 173.228149 
L 320.817781 216.945995 
L 321.631044 253.953038 
L 322.444307 284.622795 
L 323.25757 306.174279 
L 324.884095 329.338658 
L 325.697358 334.93245 
L 326.510621 343.764642 
L 327.323884 348.034311 
L 328.137147 168.063037 
L 329.763673 249.817108 
L 330.576936 278.906811 
L 331.390199 302.188021 
L 332.203461 316.651399 
L 333.829987 332.393405 
L 334.64325 335.916673 
L 335.456513 341.679821 
L 336.269776 168.42942 
L 337.896302 245.398809 
L 339.522827 296.313501 
L 340.33609 309.569592 
L 341.149353 320.157693 
L 341.962616 327.076043 
L 342.775879 335.664039 
L 343.589142 336.481614 
L 344.402405 167.367552 
L 346.028931 238.769791 
L 346.842193 267.968173 
L 347.655456 290.057916 
L 348.468719 302.909037 
L 349.281982 318.586895 
L 350.095245 323.582348 
L 350.908508 331.901182 
L 351.721771 335.770961 
L 352.535034 164.729641 
L 354.161559 234.609967 
L 355.788085 280.978015 
L 356.601348 298.197599 
L 357.414611 307.526645 
L 358.227874 319.117594 
L 359.041137 326.128328 
L 359.8544 330.691242 
L 360.667663 166.963614 
L 361.480925 199.135539 
L 363.920714 278.585661 
L 364.733977 290.529575 
L 365.54724 305.45003 
L 366.360503 313.482098 
L 367.173766 322.689512 
L 367.987029 328.654653 
L 368.800291 164.876692 
L 371.24008 249.546611 
L 372.053343 270.782585 
L 372.866606 288.687507 
L 373.679869 300.699308 
L 375.306395 318.989227 
L 376.119657 325.460732 
L 376.93292 161.54801 
L 379.372709 244.419069 
L 380.185972 263.244996 
L 381.812498 294.083897 
L 384.252286 319.625977 
L 385.065549 159.762455 
L 386.692075 214.95828 
L 389.131864 274.915235 
L 389.945127 287.28131 
L 392.384915 313.967465 
L 393.198178 155.023762 
L 394.824704 211.328998 
L 395.637967 229.282138 
L 396.45123 250.156709 
L 398.077756 280.317841 
L 398.891018 289.683814 
L 399.704281 300.499497 
L 400.517544 309.771091 
L 401.330807 151.8667 
L 402.14407 182.693096 
L 402.957333 202.125862 
L 403.770596 224.998034 
L 404.583859 243.441814 
L 405.397122 257.1736 
L 406.210384 273.326412 
L 407.023647 281.625735 
L 407.83691 294.629605 
L 408.650173 303.04413 
L 409.463436 149.886636 
L 411.089962 198.912568 
L 411.903225 219.928309 
L 413.52975 253.090631 
L 414.343013 263.320167 
L 415.156276 277.385377 
L 415.969539 284.924207 
L 416.782802 294.685438 
L 417.596065 148.253972 
L 419.222591 192.201947 
L 420.035854 213.393358 
L 420.849116 226.284527 
L 421.662379 245.359459 
L 422.475642 258.154535 
L 423.288905 267.00975 
L 424.915431 289.302777 
L 425.728694 145.49414 
L 426.541957 165.40575 
L 427.35522 190.125138 
L 428.168482 203.302222 
L 428.981745 224.304494 
L 430.608271 248.002226 
L 431.421534 260.874944 
L 432.234797 271.017954 
L 433.04806 277.863154 
L 433.861323 142.893758 
L 434.674586 161.05112 
L 435.487848 182.114239 
L 436.301111 196.92923 
L 437.114374 217.444591 
L 438.7409 240.843991 
L 441.180689 272.249744 
L 441.993952 137.837 
L 442.807214 159.521756 
L 443.620477 177.382568 
L 444.43374 192.569637 
L 445.247003 205.659867 
L 446.060266 220.956999 
L 448.500055 254.308144 
L 449.313318 260.061895 
L 450.12658 135.877577 
L 452.566369 188.619473 
L 453.379632 199.037083 
L 454.192895 213.65299 
L 455.006158 226.033445 
L 455.819421 236.09804 
L 456.632684 241.916498 
L 457.445946 253.228967 
L 458.259209 131.230483 
L 459.885735 164.93523 
L 462.325524 204.148277 
L 463.138787 215.52365 
L 464.765312 232.01946 
L 465.578575 245.455325 
L 466.391838 130.359531 
L 468.831627 175.028445 
L 469.64489 186.962029 
L 472.084678 216.832154 
L 472.897941 224.45544 
L 473.711204 235.740664 
L 474.524467 124.320842 
L 475.33773 139.292601 
L 476.150993 151.923658 
L 476.964256 168.869883 
L 477.777519 179.938003 
L 479.404044 197.493502 
L 480.217307 209.551171 
L 481.03057 219.510265 
L 481.843833 225.362801 
L 482.657096 124.436166 
L 484.283622 148.693529 
L 485.096885 161.465295 
L 487.536673 191.318375 
L 488.349936 198.970934 
L 489.163199 208.179622 
L 489.976462 215.066769 
L 490.789725 119.058087 
L 491.602988 129.414127 
L 492.416251 143.727841 
L 495.669302 184.570626 
L 496.482565 188.725404 
L 497.295828 198.185203 
L 498.109091 205.098221 
L 498.109091 205.098221 
" style="fill:none;stroke:#ff0000;stroke-linecap:square;stroke-width:1.5;"/>
   </g>
   <g id="patch_8">
    <path d="M 72 384.48 
L 72 51.84 
" style="fill:none;stroke:#000000;stroke-linecap:square;stroke-linejoin:miter;stroke-width:0.8;"/>
   </g>
   <g id="patch_9">
    <path d="M 518.4 384.48 
L 518.4 51.84 
" style="fill:none;stroke:#000000;stroke-linecap:square;stroke-linejoin:miter;stroke-width:0.8;"/>
   </g>
   <g id="patch_10">
    <path d="M 72 384.48 
L 518.4 384.48 
" style="fill:none;stroke:#000000;stroke-linecap:square;stroke-linejoin:miter;stroke-width:0.8;"/>
   </g>
   <g id="patch_11">
    <path d="M 72 51.84 
L 518.4 51.84 
" style="fill:none;stroke:#000000;stroke-linecap:square;stroke-linejoin:miter;stroke-width:0.8;"/>
   </g>
   <g id="text_25">
    <!-- The learning curve on _non_iid_agg_modify/host/9 -->
    <g transform="translate(141.023438 45.84)scale(0.12 -0.12)">
     <defs>
      <path d="M -0.296875 72.90625 
L 61.375 72.90625 
L 61.375 64.59375 
L 35.5 64.59375 
L 35.5 0 
L 25.59375 0 
L 25.59375 64.59375 
L -0.296875 64.59375 
z
" id="DejaVuSans-84"/>
      <path id="DejaVuSans-32"/>
      <path d="M 45.40625 27.984375 
Q 45.40625 37.75 41.375 43.109375 
Q 37.359375 48.484375 30.078125 48.484375 
Q 22.859375 48.484375 18.828125 43.109375 
Q 14.796875 37.75 14.796875 27.984375 
Q 14.796875 18.265625 18.828125 12.890625 
Q 22.859375 7.515625 30.078125 7.515625 
Q 37.359375 7.515625 41.375 12.890625 
Q 45.40625 18.265625 45.40625 27.984375 
z
M 54.390625 6.78125 
Q 54.390625 -7.171875 48.1875 -13.984375 
Q 42 -20.796875 29.203125 -20.796875 
Q 24.46875 -20.796875 20.265625 -20.09375 
Q 16.0625 -19.390625 12.109375 -17.921875 
L 12.109375 -9.1875 
Q 16.0625 -11.328125 19.921875 -12.34375 
Q 23.78125 -13.375 27.78125 -13.375 
Q 36.625 -13.375 41.015625 -8.765625 
Q 45.40625 -4.15625 45.40625 5.171875 
L 45.40625 9.625 
Q 42.625 4.78125 38.28125 2.390625 
Q 33.9375 0 27.875 0 
Q 17.828125 0 11.671875 7.65625 
Q 5.515625 15.328125 5.515625 27.984375 
Q 5.515625 40.671875 11.671875 48.328125 
Q 17.828125 56 27.875 56 
Q 33.9375 56 38.28125 53.609375 
Q 42.625 51.21875 45.40625 46.390625 
L 45.40625 54.6875 
L 54.390625 54.6875 
z
" id="DejaVuSans-103"/>
      <path d="M 8.5 21.578125 
L 8.5 54.6875 
L 17.484375 54.6875 
L 17.484375 21.921875 
Q 17.484375 14.15625 20.5 10.265625 
Q 23.53125 6.390625 29.59375 6.390625 
Q 36.859375 6.390625 41.078125 11.03125 
Q 45.3125 15.671875 45.3125 23.6875 
L 45.3125 54.6875 
L 54.296875 54.6875 
L 54.296875 0 
L 45.3125 0 
L 45.3125 8.40625 
Q 42.046875 3.421875 37.71875 1 
Q 33.40625 -1.421875 27.6875 -1.421875 
Q 18.265625 -1.421875 13.375 4.4375 
Q 8.5 10.296875 8.5 21.578125 
z
M 31.109375 56 
z
" id="DejaVuSans-117"/>
      <path d="M 2.984375 54.6875 
L 12.5 54.6875 
L 29.59375 8.796875 
L 46.6875 54.6875 
L 56.203125 54.6875 
L 35.6875 0 
L 23.484375 0 
z
" id="DejaVuSans-118"/>
      <path d="M 30.953125 67.4375 
L 56.203125 0 
L 46.6875 0 
L 31.34375 40.4375 
L 12.5 0 
L 2.984375 0 
L 26.953125 52.4375 
L 23.34375 62.109375 
Q 21.046875 68.265625 15.828125 68.265625 
L 11.140625 68.265625 
L 11.140625 75.984375 
L 16.84375 75.875 
Q 27.875 75.734375 30.953125 67.4375 
z
" id="DejaVuSans-955"/>
      <path d="M 50.984375 -16.609375 
L 50.984375 -23.578125 
L -0.984375 -23.578125 
L -0.984375 -16.609375 
z
" id="DejaVuSans-95"/>
      <path d="M 45.40625 46.390625 
L 45.40625 75.984375 
L 54.390625 75.984375 
L 54.390625 0 
L 45.40625 0 
L 45.40625 8.203125 
Q 42.578125 3.328125 38.25 0.953125 
Q 33.9375 -1.421875 27.875 -1.421875 
Q 17.96875 -1.421875 11.734375 6.484375 
Q 5.515625 14.40625 5.515625 27.296875 
Q 5.515625 40.1875 11.734375 48.09375 
Q 17.96875 56 27.875 56 
Q 33.9375 56 38.25 53.625 
Q 42.578125 51.265625 45.40625 46.390625 
z
M 14.796875 27.296875 
Q 14.796875 17.390625 18.875 11.75 
Q 22.953125 6.109375 30.078125 6.109375 
Q 37.203125 6.109375 41.296875 11.75 
Q 45.40625 17.390625 45.40625 27.296875 
Q 45.40625 37.203125 41.296875 42.84375 
Q 37.203125 48.484375 30.078125 48.484375 
Q 22.953125 48.484375 18.875 42.84375 
Q 14.796875 37.203125 14.796875 27.296875 
z
" id="DejaVuSans-100"/>
      <path d="M 52 44.1875 
Q 55.375 50.25 60.0625 53.125 
Q 64.75 56 71.09375 56 
Q 79.640625 56 84.28125 50.015625 
Q 88.921875 44.046875 88.921875 33.015625 
L 88.921875 0 
L 79.890625 0 
L 79.890625 32.71875 
Q 79.890625 40.578125 77.09375 44.375 
Q 74.3125 48.1875 68.609375 48.1875 
Q 61.625 48.1875 57.5625 43.546875 
Q 53.515625 38.921875 53.515625 30.90625 
L 53.515625 0 
L 44.484375 0 
L 44.484375 32.71875 
Q 44.484375 40.625 41.703125 44.40625 
Q 38.921875 48.1875 33.109375 48.1875 
Q 26.21875 48.1875 22.15625 43.53125 
Q 18.109375 38.875 18.109375 30.90625 
L 18.109375 0 
L 9.078125 0 
L 9.078125 54.6875 
L 18.109375 54.6875 
L 18.109375 46.1875 
Q 21.1875 51.21875 25.484375 53.609375 
Q 29.78125 56 35.6875 56 
Q 41.65625 56 45.828125 52.96875 
Q 50 49.953125 52 44.1875 
z
" id="DejaVuSans-109"/>
      <path d="M 37.109375 75.984375 
L 37.109375 68.5 
L 28.515625 68.5 
Q 23.6875 68.5 21.796875 66.546875 
Q 19.921875 64.59375 19.921875 59.515625 
L 19.921875 54.6875 
L 34.71875 54.6875 
L 34.71875 47.703125 
L 19.921875 47.703125 
L 19.921875 0 
L 10.890625 0 
L 10.890625 47.703125 
L 2.296875 47.703125 
L 2.296875 54.6875 
L 10.890625 54.6875 
L 10.890625 58.5 
Q 10.890625 67.625 15.140625 71.796875 
Q 19.390625 75.984375 28.609375 75.984375 
z
" id="DejaVuSans-102"/>
      <path d="M 32.171875 -5.078125 
Q 28.375 -14.84375 24.75 -17.8125 
Q 21.140625 -20.796875 15.09375 -20.796875 
L 7.90625 -20.796875 
L 7.90625 -13.28125 
L 13.1875 -13.28125 
Q 16.890625 -13.28125 18.9375 -11.515625 
Q 21 -9.765625 23.484375 -3.21875 
L 25.09375 0.875 
L 2.984375 54.6875 
L 12.5 54.6875 
L 29.59375 11.921875 
L 46.6875 54.6875 
L 56.203125 54.6875 
z
" id="DejaVuSans-121"/>
      <path d="M 25.390625 72.90625 
L 33.6875 72.90625 
L 8.296875 -9.28125 
L 0 -9.28125 
z
" id="DejaVuSans-47"/>
      <path d="M 10.984375 1.515625 
L 10.984375 10.5 
Q 14.703125 8.734375 18.5 7.8125 
Q 22.3125 6.890625 25.984375 6.890625 
Q 35.75 6.890625 40.890625 13.453125 
Q 46.046875 20.015625 46.78125 33.40625 
Q 43.953125 29.203125 39.59375 26.953125 
Q 35.25 24.703125 29.984375 24.703125 
Q 19.046875 24.703125 12.671875 31.3125 
Q 6.296875 37.9375 6.296875 49.421875 
Q 6.296875 60.640625 12.9375 67.421875 
Q 19.578125 74.21875 30.609375 74.21875 
Q 43.265625 74.21875 49.921875 64.515625 
Q 56.59375 54.828125 56.59375 36.375 
Q 56.59375 19.140625 48.40625 8.859375 
Q 40.234375 -1.421875 26.421875 -1.421875 
Q 22.703125 -1.421875 18.890625 -0.6875 
Q 15.09375 0.046875 10.984375 1.515625 
z
M 30.609375 32.421875 
Q 37.25 32.421875 41.125 36.953125 
Q 45.015625 41.5 45.015625 49.421875 
Q 45.015625 57.28125 41.125 61.84375 
Q 37.25 66.40625 30.609375 66.40625 
Q 23.96875 66.40625 20.09375 61.84375 
Q 16.21875 57.28125 16.21875 49.421875 
Q 16.21875 41.5 20.09375 36.953125 
Q 23.96875 32.421875 30.609375 32.421875 
z
" id="DejaVuSans-57"/>
     </defs>
     <use xlink:href="#DejaVuSans-84"/>
     <use x="61.083984" xlink:href="#DejaVuSans-104"/>
     <use x="124.462891" xlink:href="#DejaVuSans-101"/>
     <use x="185.986328" xlink:href="#DejaVuSans-32"/>
     <use x="217.773438" xlink:href="#DejaVuSans-108"/>
     <use x="245.556641" xlink:href="#DejaVuSans-101"/>
     <use x="307.080078" xlink:href="#DejaVuSans-97"/>
     <use x="368.359375" xlink:href="#DejaVuSans-114"/>
     <use x="407.722656" xlink:href="#DejaVuSans-110"/>
     <use x="471.101562" xlink:href="#DejaVuSans-105"/>
     <use x="498.884766" xlink:href="#DejaVuSans-110"/>
     <use x="562.263672" xlink:href="#DejaVuSans-103"/>
     <use x="625.740234" xlink:href="#DejaVuSans-32"/>
     <use x="657.527344" xlink:href="#DejaVuSans-99"/>
     <use x="712.507812" xlink:href="#DejaVuSans-117"/>
     <use x="775.886719" xlink:href="#DejaVuSans-114"/>
     <use x="817" xlink:href="#DejaVuSans-118"/>
     <use x="876.179688" xlink:href="#DejaVuSans-101"/>
     <use x="937.703125" xlink:href="#DejaVuSans-32"/>
     <use x="969.490234" xlink:href="#DejaVuSans-111"/>
     <use x="1030.671875" xlink:href="#DejaVuSans-110"/>
     <use x="1094.050781" xlink:href="#DejaVuSans-32"/>
     <use x="1125.837891" xlink:href="#DejaVuSans-955"/>
     <use x="1185.017578" xlink:href="#DejaVuSans-95"/>
     <use x="1235.017578" xlink:href="#DejaVuSans-110"/>
     <use x="1298.396484" xlink:href="#DejaVuSans-111"/>
     <use x="1359.578125" xlink:href="#DejaVuSans-110"/>
     <use x="1422.957031" xlink:href="#DejaVuSans-95"/>
     <use x="1472.957031" xlink:href="#DejaVuSans-105"/>
     <use x="1500.740234" xlink:href="#DejaVuSans-105"/>
     <use x="1528.523438" xlink:href="#DejaVuSans-100"/>
     <use x="1592" xlink:href="#DejaVuSans-95"/>
     <use x="1642" xlink:href="#DejaVuSans-97"/>
     <use x="1703.279297" xlink:href="#DejaVuSans-103"/>
     <use x="1766.755859" xlink:href="#DejaVuSans-103"/>
     <use x="1830.232422" xlink:href="#DejaVuSans-95"/>
     <use x="1880.232422" xlink:href="#DejaVuSans-109"/>
     <use x="1977.644531" xlink:href="#DejaVuSans-111"/>
     <use x="2038.826172" xlink:href="#DejaVuSans-100"/>
     <use x="2102.302734" xlink:href="#DejaVuSans-105"/>
     <use x="2130.085938" xlink:href="#DejaVuSans-102"/>
     <use x="2163.541016" xlink:href="#DejaVuSans-121"/>
     <use x="2222.720703" xlink:href="#DejaVuSans-47"/>
     <use x="2256.412109" xlink:href="#DejaVuSans-104"/>
     <use x="2319.791016" xlink:href="#DejaVuSans-111"/>
     <use x="2380.972656" xlink:href="#DejaVuSans-115"/>
     <use x="2433.072266" xlink:href="#DejaVuSans-116"/>
     <use x="2472.28125" xlink:href="#DejaVuSans-47"/>
     <use x="2505.972656" xlink:href="#DejaVuSans-57"/>
    </g>
   </g>
   <g id="legend_2">
    <g id="patch_12">
     <path d="M 460.084375 74.518125 
L 511.4 74.518125 
Q 513.4 74.518125 513.4 72.518125 
L 513.4 58.84 
Q 513.4 56.84 511.4 56.84 
L 460.084375 56.84 
Q 458.084375 56.84 458.084375 58.84 
L 458.084375 72.518125 
Q 458.084375 74.518125 460.084375 74.518125 
z
" style="fill:#ffffff;opacity:0.8;stroke:#cccccc;stroke-linejoin:miter;"/>
    </g>
    <g id="line2d_27">
     <path d="M 462.084375 64.938438 
L 482.084375 64.938438 
" style="fill:none;stroke:#ff0000;stroke-linecap:square;stroke-width:1.5;"/>
    </g>
    <g id="line2d_28"/>
    <g id="text_26">
     <!-- loss -->
     <g transform="translate(490.084375 68.438438)scale(0.1 -0.1)">
      <use xlink:href="#DejaVuSans-108"/>
      <use x="27.783203" xlink:href="#DejaVuSans-111"/>
      <use x="88.964844" xlink:href="#DejaVuSans-115"/>
      <use x="141.064453" xlink:href="#DejaVuSans-115"/>
     </g>
    </g>
   </g>
  </g>
 </g>
 <defs>
  <clipPath id="pc0a0531a76">
   <rect height="332.64" width="446.4" x="72" y="51.84"/>
  </clipPath>
 </defs>
</svg>
