<?xml version="1.0" encoding="utf-8" standalone="no"?>
<!DOCTYPE svg PUBLIC "-//W3C//DTD SVG 1.1//EN"
  "http://www.w3.org/Graphics/SVG/1.1/DTD/svg11.dtd">
<!-- Created with matplotlib (https://matplotlib.org/) -->
<svg height="432pt" version="1.1" viewBox="0 0 576 432" width="576pt" xmlns="http://www.w3.org/2000/svg" xmlns:xlink="http://www.w3.org/1999/xlink">
 <metadata>
  <rdf:RDF xmlns:cc="http://creativecommons.org/ns#" xmlns:dc="http://purl.org/dc/elements/1.1/" xmlns:rdf="http://www.w3.org/1999/02/22-rdf-syntax-ns#">
   <cc:Work>
    <dc:type rdf:resource="http://purl.org/dc/dcmitype/StillImage"/>
    <dc:date>2023-04-17T00:04:46.410168</dc:date>
    <dc:format>image/svg+xml</dc:format>
    <dc:creator>
     <cc:Agent>
      <dc:title>Matplotlib v3.3.4, https://matplotlib.org/</dc:title>
     </cc:Agent>
    </dc:creator>
   </cc:Work>
  </rdf:RDF>
 </metadata>
 <defs>
  <style type="text/css">*{stroke-linecap:butt;stroke-linejoin:round;}</style>
 </defs>
 <g id="figure_1">
  <g id="patch_1">
   <path d="M 0 432 
L 576 432 
L 576 0 
L 0 0 
z
" style="fill:#ffffff;"/>
  </g>
  <g id="axes_1">
   <g id="patch_2">
    <path d="M 72 384.48 
L 518.4 384.48 
L 518.4 51.84 
L 72 51.84 
z
" style="fill:#ffffff;"/>
   </g>
   <g id="matplotlib.axis_1">
    <g id="xtick_1">
     <g id="line2d_1">
      <defs>
       <path d="M 0 0 
L 0 3.5 
" id="m8556d5508c" style="stroke:#000000;stroke-width:0.8;"/>
      </defs>
      <g>
       <use style="stroke:#000000;stroke-width:0.8;" x="92.290909" xlink:href="#m8556d5508c" y="384.48"/>
      </g>
     </g>
     <g id="text_1">
      <!-- 0 -->
      <g transform="translate(89.109659 399.078438)scale(0.1 -0.1)">
       <defs>
        <path d="M 31.78125 66.40625 
Q 24.171875 66.40625 20.328125 58.90625 
Q 16.5 51.421875 16.5 36.375 
Q 16.5 21.390625 20.328125 13.890625 
Q 24.171875 6.390625 31.78125 6.390625 
Q 39.453125 6.390625 43.28125 13.890625 
Q 47.125 21.390625 47.125 36.375 
Q 47.125 51.421875 43.28125 58.90625 
Q 39.453125 66.40625 31.78125 66.40625 
z
M 31.78125 74.21875 
Q 44.046875 74.21875 50.515625 64.515625 
Q 56.984375 54.828125 56.984375 36.375 
Q 56.984375 17.96875 50.515625 8.265625 
Q 44.046875 -1.421875 31.78125 -1.421875 
Q 19.53125 -1.421875 13.0625 8.265625 
Q 6.59375 17.96875 6.59375 36.375 
Q 6.59375 54.828125 13.0625 64.515625 
Q 19.53125 74.21875 31.78125 74.21875 
z
" id="DejaVuSans-48"/>
       </defs>
       <use xlink:href="#DejaVuSans-48"/>
      </g>
     </g>
    </g>
    <g id="xtick_2">
     <g id="line2d_2">
      <g>
       <use style="stroke:#000000;stroke-width:0.8;" x="173.617198" xlink:href="#m8556d5508c" y="384.48"/>
      </g>
     </g>
     <g id="text_2">
      <!-- 100 -->
      <g transform="translate(164.073448 399.078438)scale(0.1 -0.1)">
       <defs>
        <path d="M 12.40625 8.296875 
L 28.515625 8.296875 
L 28.515625 63.921875 
L 10.984375 60.40625 
L 10.984375 69.390625 
L 28.421875 72.90625 
L 38.28125 72.90625 
L 38.28125 8.296875 
L 54.390625 8.296875 
L 54.390625 0 
L 12.40625 0 
z
" id="DejaVuSans-49"/>
       </defs>
       <use xlink:href="#DejaVuSans-49"/>
       <use x="63.623047" xlink:href="#DejaVuSans-48"/>
       <use x="127.246094" xlink:href="#DejaVuSans-48"/>
      </g>
     </g>
    </g>
    <g id="xtick_3">
     <g id="line2d_3">
      <g>
       <use style="stroke:#000000;stroke-width:0.8;" x="254.943487" xlink:href="#m8556d5508c" y="384.48"/>
      </g>
     </g>
     <g id="text_3">
      <!-- 200 -->
      <g transform="translate(245.399737 399.078438)scale(0.1 -0.1)">
       <defs>
        <path d="M 19.1875 8.296875 
L 53.609375 8.296875 
L 53.609375 0 
L 7.328125 0 
L 7.328125 8.296875 
Q 12.9375 14.109375 22.625 23.890625 
Q 32.328125 33.6875 34.8125 36.53125 
Q 39.546875 41.84375 41.421875 45.53125 
Q 43.3125 49.21875 43.3125 52.78125 
Q 43.3125 58.59375 39.234375 62.25 
Q 35.15625 65.921875 28.609375 65.921875 
Q 23.96875 65.921875 18.8125 64.3125 
Q 13.671875 62.703125 7.8125 59.421875 
L 7.8125 69.390625 
Q 13.765625 71.78125 18.9375 73 
Q 24.125 74.21875 28.421875 74.21875 
Q 39.75 74.21875 46.484375 68.546875 
Q 53.21875 62.890625 53.21875 53.421875 
Q 53.21875 48.921875 51.53125 44.890625 
Q 49.859375 40.875 45.40625 35.40625 
Q 44.1875 33.984375 37.640625 27.21875 
Q 31.109375 20.453125 19.1875 8.296875 
z
" id="DejaVuSans-50"/>
       </defs>
       <use xlink:href="#DejaVuSans-50"/>
       <use x="63.623047" xlink:href="#DejaVuSans-48"/>
       <use x="127.246094" xlink:href="#DejaVuSans-48"/>
      </g>
     </g>
    </g>
    <g id="xtick_4">
     <g id="line2d_4">
      <g>
       <use style="stroke:#000000;stroke-width:0.8;" x="336.269776" xlink:href="#m8556d5508c" y="384.48"/>
      </g>
     </g>
     <g id="text_4">
      <!-- 300 -->
      <g transform="translate(326.726026 399.078438)scale(0.1 -0.1)">
       <defs>
        <path d="M 40.578125 39.3125 
Q 47.65625 37.796875 51.625 33 
Q 55.609375 28.21875 55.609375 21.1875 
Q 55.609375 10.40625 48.1875 4.484375 
Q 40.765625 -1.421875 27.09375 -1.421875 
Q 22.515625 -1.421875 17.65625 -0.515625 
Q 12.796875 0.390625 7.625 2.203125 
L 7.625 11.71875 
Q 11.71875 9.328125 16.59375 8.109375 
Q 21.484375 6.890625 26.8125 6.890625 
Q 36.078125 6.890625 40.9375 10.546875 
Q 45.796875 14.203125 45.796875 21.1875 
Q 45.796875 27.640625 41.28125 31.265625 
Q 36.765625 34.90625 28.71875 34.90625 
L 20.21875 34.90625 
L 20.21875 43.015625 
L 29.109375 43.015625 
Q 36.375 43.015625 40.234375 45.921875 
Q 44.09375 48.828125 44.09375 54.296875 
Q 44.09375 59.90625 40.109375 62.90625 
Q 36.140625 65.921875 28.71875 65.921875 
Q 24.65625 65.921875 20.015625 65.03125 
Q 15.375 64.15625 9.8125 62.3125 
L 9.8125 71.09375 
Q 15.4375 72.65625 20.34375 73.4375 
Q 25.25 74.21875 29.59375 74.21875 
Q 40.828125 74.21875 47.359375 69.109375 
Q 53.90625 64.015625 53.90625 55.328125 
Q 53.90625 49.265625 50.4375 45.09375 
Q 46.96875 40.921875 40.578125 39.3125 
z
" id="DejaVuSans-51"/>
       </defs>
       <use xlink:href="#DejaVuSans-51"/>
       <use x="63.623047" xlink:href="#DejaVuSans-48"/>
       <use x="127.246094" xlink:href="#DejaVuSans-48"/>
      </g>
     </g>
    </g>
    <g id="xtick_5">
     <g id="line2d_5">
      <g>
       <use style="stroke:#000000;stroke-width:0.8;" x="417.596065" xlink:href="#m8556d5508c" y="384.48"/>
      </g>
     </g>
     <g id="text_5">
      <!-- 400 -->
      <g transform="translate(408.052315 399.078438)scale(0.1 -0.1)">
       <defs>
        <path d="M 37.796875 64.3125 
L 12.890625 25.390625 
L 37.796875 25.390625 
z
M 35.203125 72.90625 
L 47.609375 72.90625 
L 47.609375 25.390625 
L 58.015625 25.390625 
L 58.015625 17.1875 
L 47.609375 17.1875 
L 47.609375 0 
L 37.796875 0 
L 37.796875 17.1875 
L 4.890625 17.1875 
L 4.890625 26.703125 
z
" id="DejaVuSans-52"/>
       </defs>
       <use xlink:href="#DejaVuSans-52"/>
       <use x="63.623047" xlink:href="#DejaVuSans-48"/>
       <use x="127.246094" xlink:href="#DejaVuSans-48"/>
      </g>
     </g>
    </g>
    <g id="xtick_6">
     <g id="line2d_6">
      <g>
       <use style="stroke:#000000;stroke-width:0.8;" x="498.922354" xlink:href="#m8556d5508c" y="384.48"/>
      </g>
     </g>
     <g id="text_6">
      <!-- 500 -->
      <g transform="translate(489.378604 399.078438)scale(0.1 -0.1)">
       <defs>
        <path d="M 10.796875 72.90625 
L 49.515625 72.90625 
L 49.515625 64.59375 
L 19.828125 64.59375 
L 19.828125 46.734375 
Q 21.96875 47.46875 24.109375 47.828125 
Q 26.265625 48.1875 28.421875 48.1875 
Q 40.625 48.1875 47.75 41.5 
Q 54.890625 34.8125 54.890625 23.390625 
Q 54.890625 11.625 47.5625 5.09375 
Q 40.234375 -1.421875 26.90625 -1.421875 
Q 22.3125 -1.421875 17.546875 -0.640625 
Q 12.796875 0.140625 7.71875 1.703125 
L 7.71875 11.625 
Q 12.109375 9.234375 16.796875 8.0625 
Q 21.484375 6.890625 26.703125 6.890625 
Q 35.15625 6.890625 40.078125 11.328125 
Q 45.015625 15.765625 45.015625 23.390625 
Q 45.015625 31 40.078125 35.4375 
Q 35.15625 39.890625 26.703125 39.890625 
Q 22.75 39.890625 18.8125 39.015625 
Q 14.890625 38.140625 10.796875 36.28125 
z
" id="DejaVuSans-53"/>
       </defs>
       <use xlink:href="#DejaVuSans-53"/>
       <use x="63.623047" xlink:href="#DejaVuSans-48"/>
       <use x="127.246094" xlink:href="#DejaVuSans-48"/>
      </g>
     </g>
    </g>
    <g id="text_7">
     <!-- epoch -->
     <g transform="translate(279.971875 412.756563)scale(0.1 -0.1)">
      <defs>
       <path d="M 56.203125 29.59375 
L 56.203125 25.203125 
L 14.890625 25.203125 
Q 15.484375 15.921875 20.484375 11.0625 
Q 25.484375 6.203125 34.421875 6.203125 
Q 39.59375 6.203125 44.453125 7.46875 
Q 49.3125 8.734375 54.109375 11.28125 
L 54.109375 2.78125 
Q 49.265625 0.734375 44.1875 -0.34375 
Q 39.109375 -1.421875 33.890625 -1.421875 
Q 20.796875 -1.421875 13.15625 6.1875 
Q 5.515625 13.8125 5.515625 26.8125 
Q 5.515625 40.234375 12.765625 48.109375 
Q 20.015625 56 32.328125 56 
Q 43.359375 56 49.78125 48.890625 
Q 56.203125 41.796875 56.203125 29.59375 
z
M 47.21875 32.234375 
Q 47.125 39.59375 43.09375 43.984375 
Q 39.0625 48.390625 32.421875 48.390625 
Q 24.90625 48.390625 20.390625 44.140625 
Q 15.875 39.890625 15.1875 32.171875 
z
" id="DejaVuSans-101"/>
       <path d="M 18.109375 8.203125 
L 18.109375 -20.796875 
L 9.078125 -20.796875 
L 9.078125 54.6875 
L 18.109375 54.6875 
L 18.109375 46.390625 
Q 20.953125 51.265625 25.265625 53.625 
Q 29.59375 56 35.59375 56 
Q 45.5625 56 51.78125 48.09375 
Q 58.015625 40.1875 58.015625 27.296875 
Q 58.015625 14.40625 51.78125 6.484375 
Q 45.5625 -1.421875 35.59375 -1.421875 
Q 29.59375 -1.421875 25.265625 0.953125 
Q 20.953125 3.328125 18.109375 8.203125 
z
M 48.6875 27.296875 
Q 48.6875 37.203125 44.609375 42.84375 
Q 40.53125 48.484375 33.40625 48.484375 
Q 26.265625 48.484375 22.1875 42.84375 
Q 18.109375 37.203125 18.109375 27.296875 
Q 18.109375 17.390625 22.1875 11.75 
Q 26.265625 6.109375 33.40625 6.109375 
Q 40.53125 6.109375 44.609375 11.75 
Q 48.6875 17.390625 48.6875 27.296875 
z
" id="DejaVuSans-112"/>
       <path d="M 30.609375 48.390625 
Q 23.390625 48.390625 19.1875 42.75 
Q 14.984375 37.109375 14.984375 27.296875 
Q 14.984375 17.484375 19.15625 11.84375 
Q 23.34375 6.203125 30.609375 6.203125 
Q 37.796875 6.203125 41.984375 11.859375 
Q 46.1875 17.53125 46.1875 27.296875 
Q 46.1875 37.015625 41.984375 42.703125 
Q 37.796875 48.390625 30.609375 48.390625 
z
M 30.609375 56 
Q 42.328125 56 49.015625 48.375 
Q 55.71875 40.765625 55.71875 27.296875 
Q 55.71875 13.875 49.015625 6.21875 
Q 42.328125 -1.421875 30.609375 -1.421875 
Q 18.84375 -1.421875 12.171875 6.21875 
Q 5.515625 13.875 5.515625 27.296875 
Q 5.515625 40.765625 12.171875 48.375 
Q 18.84375 56 30.609375 56 
z
" id="DejaVuSans-111"/>
       <path d="M 48.78125 52.59375 
L 48.78125 44.1875 
Q 44.96875 46.296875 41.140625 47.34375 
Q 37.3125 48.390625 33.40625 48.390625 
Q 24.65625 48.390625 19.8125 42.84375 
Q 14.984375 37.3125 14.984375 27.296875 
Q 14.984375 17.28125 19.8125 11.734375 
Q 24.65625 6.203125 33.40625 6.203125 
Q 37.3125 6.203125 41.140625 7.25 
Q 44.96875 8.296875 48.78125 10.40625 
L 48.78125 2.09375 
Q 45.015625 0.34375 40.984375 -0.53125 
Q 36.96875 -1.421875 32.421875 -1.421875 
Q 20.0625 -1.421875 12.78125 6.34375 
Q 5.515625 14.109375 5.515625 27.296875 
Q 5.515625 40.671875 12.859375 48.328125 
Q 20.21875 56 33.015625 56 
Q 37.15625 56 41.109375 55.140625 
Q 45.0625 54.296875 48.78125 52.59375 
z
" id="DejaVuSans-99"/>
       <path d="M 54.890625 33.015625 
L 54.890625 0 
L 45.90625 0 
L 45.90625 32.71875 
Q 45.90625 40.484375 42.875 44.328125 
Q 39.84375 48.1875 33.796875 48.1875 
Q 26.515625 48.1875 22.3125 43.546875 
Q 18.109375 38.921875 18.109375 30.90625 
L 18.109375 0 
L 9.078125 0 
L 9.078125 75.984375 
L 18.109375 75.984375 
L 18.109375 46.1875 
Q 21.34375 51.125 25.703125 53.5625 
Q 30.078125 56 35.796875 56 
Q 45.21875 56 50.046875 50.171875 
Q 54.890625 44.34375 54.890625 33.015625 
z
" id="DejaVuSans-104"/>
      </defs>
      <use xlink:href="#DejaVuSans-101"/>
      <use x="61.523438" xlink:href="#DejaVuSans-112"/>
      <use x="125" xlink:href="#DejaVuSans-111"/>
      <use x="186.181641" xlink:href="#DejaVuSans-99"/>
      <use x="241.162109" xlink:href="#DejaVuSans-104"/>
     </g>
    </g>
   </g>
   <g id="matplotlib.axis_2">
    <g id="ytick_1">
     <g id="line2d_7">
      <defs>
       <path d="M 0 0 
L -3.5 0 
" id="mfe150036f7" style="stroke:#000000;stroke-width:0.8;"/>
      </defs>
      <g>
       <use style="stroke:#000000;stroke-width:0.8;" x="72" xlink:href="#mfe150036f7" y="384.48"/>
      </g>
     </g>
     <g id="text_8">
      <!-- 0.0 -->
      <g transform="translate(49.096875 388.279219)scale(0.1 -0.1)">
       <defs>
        <path d="M 10.6875 12.40625 
L 21 12.40625 
L 21 0 
L 10.6875 0 
z
" id="DejaVuSans-46"/>
       </defs>
       <use xlink:href="#DejaVuSans-48"/>
       <use x="63.623047" xlink:href="#DejaVuSans-46"/>
       <use x="95.410156" xlink:href="#DejaVuSans-48"/>
      </g>
     </g>
    </g>
    <g id="ytick_2">
     <g id="line2d_8">
      <g>
       <use style="stroke:#000000;stroke-width:0.8;" x="72" xlink:href="#mfe150036f7" y="317.952"/>
      </g>
     </g>
     <g id="text_9">
      <!-- 0.2 -->
      <g transform="translate(49.096875 321.751219)scale(0.1 -0.1)">
       <use xlink:href="#DejaVuSans-48"/>
       <use x="63.623047" xlink:href="#DejaVuSans-46"/>
       <use x="95.410156" xlink:href="#DejaVuSans-50"/>
      </g>
     </g>
    </g>
    <g id="ytick_3">
     <g id="line2d_9">
      <g>
       <use style="stroke:#000000;stroke-width:0.8;" x="72" xlink:href="#mfe150036f7" y="251.424"/>
      </g>
     </g>
     <g id="text_10">
      <!-- 0.4 -->
      <g transform="translate(49.096875 255.223219)scale(0.1 -0.1)">
       <use xlink:href="#DejaVuSans-48"/>
       <use x="63.623047" xlink:href="#DejaVuSans-46"/>
       <use x="95.410156" xlink:href="#DejaVuSans-52"/>
      </g>
     </g>
    </g>
    <g id="ytick_4">
     <g id="line2d_10">
      <g>
       <use style="stroke:#000000;stroke-width:0.8;" x="72" xlink:href="#mfe150036f7" y="184.896"/>
      </g>
     </g>
     <g id="text_11">
      <!-- 0.6 -->
      <g transform="translate(49.096875 188.695219)scale(0.1 -0.1)">
       <defs>
        <path d="M 33.015625 40.375 
Q 26.375 40.375 22.484375 35.828125 
Q 18.609375 31.296875 18.609375 23.390625 
Q 18.609375 15.53125 22.484375 10.953125 
Q 26.375 6.390625 33.015625 6.390625 
Q 39.65625 6.390625 43.53125 10.953125 
Q 47.40625 15.53125 47.40625 23.390625 
Q 47.40625 31.296875 43.53125 35.828125 
Q 39.65625 40.375 33.015625 40.375 
z
M 52.59375 71.296875 
L 52.59375 62.3125 
Q 48.875 64.0625 45.09375 64.984375 
Q 41.3125 65.921875 37.59375 65.921875 
Q 27.828125 65.921875 22.671875 59.328125 
Q 17.53125 52.734375 16.796875 39.40625 
Q 19.671875 43.65625 24.015625 45.921875 
Q 28.375 48.1875 33.59375 48.1875 
Q 44.578125 48.1875 50.953125 41.515625 
Q 57.328125 34.859375 57.328125 23.390625 
Q 57.328125 12.15625 50.6875 5.359375 
Q 44.046875 -1.421875 33.015625 -1.421875 
Q 20.359375 -1.421875 13.671875 8.265625 
Q 6.984375 17.96875 6.984375 36.375 
Q 6.984375 53.65625 15.1875 63.9375 
Q 23.390625 74.21875 37.203125 74.21875 
Q 40.921875 74.21875 44.703125 73.484375 
Q 48.484375 72.75 52.59375 71.296875 
z
" id="DejaVuSans-54"/>
       </defs>
       <use xlink:href="#DejaVuSans-48"/>
       <use x="63.623047" xlink:href="#DejaVuSans-46"/>
       <use x="95.410156" xlink:href="#DejaVuSans-54"/>
      </g>
     </g>
    </g>
    <g id="ytick_5">
     <g id="line2d_11">
      <g>
       <use style="stroke:#000000;stroke-width:0.8;" x="72" xlink:href="#mfe150036f7" y="118.368"/>
      </g>
     </g>
     <g id="text_12">
      <!-- 0.8 -->
      <g transform="translate(49.096875 122.167219)scale(0.1 -0.1)">
       <defs>
        <path d="M 31.78125 34.625 
Q 24.75 34.625 20.71875 30.859375 
Q 16.703125 27.09375 16.703125 20.515625 
Q 16.703125 13.921875 20.71875 10.15625 
Q 24.75 6.390625 31.78125 6.390625 
Q 38.8125 6.390625 42.859375 10.171875 
Q 46.921875 13.96875 46.921875 20.515625 
Q 46.921875 27.09375 42.890625 30.859375 
Q 38.875 34.625 31.78125 34.625 
z
M 21.921875 38.8125 
Q 15.578125 40.375 12.03125 44.71875 
Q 8.5 49.078125 8.5 55.328125 
Q 8.5 64.0625 14.71875 69.140625 
Q 20.953125 74.21875 31.78125 74.21875 
Q 42.671875 74.21875 48.875 69.140625 
Q 55.078125 64.0625 55.078125 55.328125 
Q 55.078125 49.078125 51.53125 44.71875 
Q 48 40.375 41.703125 38.8125 
Q 48.828125 37.15625 52.796875 32.3125 
Q 56.78125 27.484375 56.78125 20.515625 
Q 56.78125 9.90625 50.3125 4.234375 
Q 43.84375 -1.421875 31.78125 -1.421875 
Q 19.734375 -1.421875 13.25 4.234375 
Q 6.78125 9.90625 6.78125 20.515625 
Q 6.78125 27.484375 10.78125 32.3125 
Q 14.796875 37.15625 21.921875 38.8125 
z
M 18.3125 54.390625 
Q 18.3125 48.734375 21.84375 45.5625 
Q 25.390625 42.390625 31.78125 42.390625 
Q 38.140625 42.390625 41.71875 45.5625 
Q 45.3125 48.734375 45.3125 54.390625 
Q 45.3125 60.0625 41.71875 63.234375 
Q 38.140625 66.40625 31.78125 66.40625 
Q 25.390625 66.40625 21.84375 63.234375 
Q 18.3125 60.0625 18.3125 54.390625 
z
" id="DejaVuSans-56"/>
       </defs>
       <use xlink:href="#DejaVuSans-48"/>
       <use x="63.623047" xlink:href="#DejaVuSans-46"/>
       <use x="95.410156" xlink:href="#DejaVuSans-56"/>
      </g>
     </g>
    </g>
    <g id="ytick_6">
     <g id="line2d_12">
      <g>
       <use style="stroke:#000000;stroke-width:0.8;" x="72" xlink:href="#mfe150036f7" y="51.84"/>
      </g>
     </g>
     <g id="text_13">
      <!-- 1.0 -->
      <g transform="translate(49.096875 55.639219)scale(0.1 -0.1)">
       <use xlink:href="#DejaVuSans-49"/>
       <use x="63.623047" xlink:href="#DejaVuSans-46"/>
       <use x="95.410156" xlink:href="#DejaVuSans-48"/>
      </g>
     </g>
    </g>
    <g id="text_14">
     <!-- rate -->
     <g transform="translate(43.017187 228.31625)rotate(-90)scale(0.1 -0.1)">
      <defs>
       <path d="M 41.109375 46.296875 
Q 39.59375 47.171875 37.8125 47.578125 
Q 36.03125 48 33.890625 48 
Q 26.265625 48 22.1875 43.046875 
Q 18.109375 38.09375 18.109375 28.8125 
L 18.109375 0 
L 9.078125 0 
L 9.078125 54.6875 
L 18.109375 54.6875 
L 18.109375 46.1875 
Q 20.953125 51.171875 25.484375 53.578125 
Q 30.03125 56 36.53125 56 
Q 37.453125 56 38.578125 55.875 
Q 39.703125 55.765625 41.0625 55.515625 
z
" id="DejaVuSans-114"/>
       <path d="M 34.28125 27.484375 
Q 23.390625 27.484375 19.1875 25 
Q 14.984375 22.515625 14.984375 16.5 
Q 14.984375 11.71875 18.140625 8.90625 
Q 21.296875 6.109375 26.703125 6.109375 
Q 34.1875 6.109375 38.703125 11.40625 
Q 43.21875 16.703125 43.21875 25.484375 
L 43.21875 27.484375 
z
M 52.203125 31.203125 
L 52.203125 0 
L 43.21875 0 
L 43.21875 8.296875 
Q 40.140625 3.328125 35.546875 0.953125 
Q 30.953125 -1.421875 24.3125 -1.421875 
Q 15.921875 -1.421875 10.953125 3.296875 
Q 6 8.015625 6 15.921875 
Q 6 25.140625 12.171875 29.828125 
Q 18.359375 34.515625 30.609375 34.515625 
L 43.21875 34.515625 
L 43.21875 35.40625 
Q 43.21875 41.609375 39.140625 45 
Q 35.0625 48.390625 27.6875 48.390625 
Q 23 48.390625 18.546875 47.265625 
Q 14.109375 46.140625 10.015625 43.890625 
L 10.015625 52.203125 
Q 14.9375 54.109375 19.578125 55.046875 
Q 24.21875 56 28.609375 56 
Q 40.484375 56 46.34375 49.84375 
Q 52.203125 43.703125 52.203125 31.203125 
z
" id="DejaVuSans-97"/>
       <path d="M 18.3125 70.21875 
L 18.3125 54.6875 
L 36.8125 54.6875 
L 36.8125 47.703125 
L 18.3125 47.703125 
L 18.3125 18.015625 
Q 18.3125 11.328125 20.140625 9.421875 
Q 21.96875 7.515625 27.59375 7.515625 
L 36.8125 7.515625 
L 36.8125 0 
L 27.59375 0 
Q 17.1875 0 13.234375 3.875 
Q 9.28125 7.765625 9.28125 18.015625 
L 9.28125 47.703125 
L 2.6875 47.703125 
L 2.6875 54.6875 
L 9.28125 54.6875 
L 9.28125 70.21875 
z
" id="DejaVuSans-116"/>
      </defs>
      <use xlink:href="#DejaVuSans-114"/>
      <use x="41.113281" xlink:href="#DejaVuSans-97"/>
      <use x="102.392578" xlink:href="#DejaVuSans-116"/>
      <use x="141.601562" xlink:href="#DejaVuSans-101"/>
     </g>
    </g>
   </g>
   <g id="line2d_13">
    <path clip-path="url(#p2cbc4dc6ce)" d="M 92.290909 171.232162 
L 93.104172 155.727996 
L 93.917435 150.606859 
L 94.730698 146.709909 
L 97.170486 138.162391 
L 97.983749 137.654759 
L 98.797012 135.475075 
L 99.610275 135.0482 
L 100.423538 132.733176 
L 101.236801 132.799872 
L 102.863327 130.054973 
L 103.67659 129.324688 
L 105.303115 128.109967 
L 106.116378 127.022648 
L 106.929641 126.487042 
L 107.742904 125.590255 
L 108.556167 125.195469 
L 109.36943 124.445148 
L 110.182693 124.246117 
L 110.995956 123.136699 
L 112.622481 121.68339 
L 113.435744 121.337054 
L 114.249007 121.251846 
L 115.06227 120.808531 
L 115.875533 119.403064 
L 116.688796 119.521716 
L 117.502059 119.199745 
L 118.315322 118.465809 
L 119.128584 118.870181 
L 119.941847 117.826341 
L 121.568373 117.128469 
L 122.381636 117.019884 
L 123.194899 116.408385 
L 124.008162 115.349011 
L 124.821425 115.433265 
L 125.634688 115.241285 
L 126.44795 114.785793 
L 127.261213 114.905343 
L 128.887739 114.012452 
L 129.701002 114.19703 
L 131.327528 112.967723 
L 132.140791 111.960513 
L 132.954054 111.660083 
L 133.767316 112.216586 
L 134.580579 111.827635 
L 136.207105 110.754473 
L 137.833631 110.273104 
L 138.646894 110.135128 
L 139.460157 110.209807 
L 140.27342 109.512853 
L 141.086682 109.142036 
L 141.899945 108.106205 
L 143.526471 108.399219 
L 144.339734 108.207783 
L 145.152997 107.225536 
L 145.96626 107.620755 
L 146.779523 107.025212 
L 147.592786 106.94174 
L 148.406048 106.073053 
L 150.032574 105.887526 
L 150.845837 105.403492 
L 151.6591 105.577212 
L 152.472363 104.436241 
L 153.285626 104.921258 
L 154.912152 103.662574 
L 155.725414 103.921577 
L 156.538677 103.481698 
L 157.35194 102.713797 
L 158.978466 102.96923 
L 159.791729 102.464247 
L 160.604992 102.229936 
L 163.04478 101.02002 
L 163.858043 101.038301 
L 164.671306 100.804695 
L 165.484569 99.746781 
L 166.297832 99.778543 
L 167.111095 99.3789 
L 167.924358 99.630514 
L 168.737621 100.149063 
L 169.550884 99.214339 
L 170.364146 99.212859 
L 171.177409 98.807829 
L 171.990672 98.004064 
L 172.803935 98.110002 
L 173.617198 96.877905 
L 174.430461 89.312961 
L 175.243724 87.304245 
L 176.87025 85.930446 
L 180.123301 84.740477 
L 180.936564 85.491528 
L 181.749827 84.382816 
L 183.376353 84.484048 
L 184.189616 84.400573 
L 185.816141 83.241838 
L 186.629404 83.389854 
L 187.442667 82.847733 
L 188.25593 83.233172 
L 189.882456 82.642524 
L 190.695719 82.586514 
L 191.508982 82.385773 
L 192.322244 81.877681 
L 193.94877 82.303945 
L 194.762033 81.930869 
L 195.575296 81.734569 
L 196.388559 81.111518 
L 197.201822 81.111828 
L 198.015085 80.771529 
L 198.828348 81.157902 
L 199.64161 81.282262 
L 200.454873 80.857199 
L 201.268136 80.898822 
L 202.081399 80.665125 
L 202.894662 80.19706 
L 203.707925 80.152774 
L 204.521188 80.826564 
L 206.147714 79.592196 
L 206.960976 79.819423 
L 207.774239 79.887385 
L 208.587502 79.553173 
L 209.400765 79.451516 
L 211.027291 78.789857 
L 211.840554 78.721235 
L 212.653817 78.879514 
L 213.46708 78.775911 
L 214.280343 78.131103 
L 215.093605 78.141434 
L 215.906868 78.674153 
L 216.720131 78.139583 
L 217.533394 78.252949 
L 218.346657 78.603268 
L 219.15992 77.896936 
L 219.973183 77.78771 
L 220.786446 77.396849 
L 222.412971 77.640258 
L 223.226234 77.029071 
L 224.039497 77.184682 
L 224.85276 77.672978 
L 225.666023 77.042265 
L 226.479286 77.264129 
L 227.292549 76.88268 
L 228.105812 76.725515 
L 228.919075 76.890541 
L 229.732337 76.123873 
L 230.5456 75.978786 
L 232.172126 76.506833 
L 232.985389 76.358371 
L 233.798652 75.584287 
L 234.611915 76.062192 
L 237.051703 75.639653 
L 237.864966 76.130122 
L 238.678229 75.559829 
L 239.491492 75.320779 
L 241.118018 75.281313 
L 241.931281 75.449259 
L 242.744544 75.337117 
L 244.371069 74.755053 
L 245.184332 75.489347 
L 245.997595 74.727232 
L 247.624121 74.347808 
L 248.437384 74.450259 
L 249.250647 74.356568 
L 250.06391 74.643799 
L 250.877173 74.275711 
L 251.690435 74.391693 
L 252.503698 74.744607 
L 253.316961 74.303557 
L 254.130224 74.033789 
L 256.570013 73.910798 
L 257.383276 73.570726 
L 258.196539 74.035054 
L 259.009801 73.899596 
L 259.823064 73.448495 
L 260.636327 74.075944 
L 261.44959 73.473503 
L 262.262853 73.596529 
L 263.076116 72.5486 
L 263.889379 73.001094 
L 264.702642 73.310481 
L 265.515905 72.585943 
L 266.329167 72.92849 
L 267.14243 72.966134 
L 267.955693 73.242205 
L 270.395482 72.555009 
L 271.208745 72.590754 
L 272.022008 72.764352 
L 272.835271 72.429014 
L 274.461796 72.371692 
L 275.275059 72.705788 
L 276.088322 72.18797 
L 276.901585 72.642679 
L 278.528111 72.115181 
L 279.341374 72.627296 
L 280.154637 72.108111 
L 281.781162 72.250846 
L 282.594425 71.891329 
L 283.407688 71.671951 
L 284.220951 72.091983 
L 285.847477 71.919048 
L 286.66074 72.089568 
L 287.474003 71.533051 
L 288.287265 71.670222 
L 289.100528 71.360509 
L 289.913791 71.618936 
L 290.727054 71.315905 
L 292.35358 71.32869 
L 293.166843 71.66233 
L 294.793369 71.042364 
L 295.606631 71.22988 
L 296.419894 70.917829 
L 298.04642 70.786284 
L 298.859683 71.204819 
L 299.672946 71.006269 
L 300.486209 71.05105 
L 301.299472 70.744776 
L 302.112735 71.128863 
L 302.925997 70.15809 
L 303.73926 70.440505 
L 304.552523 71.040194 
L 305.365786 70.564069 
L 306.179049 70.417621 
L 306.992312 70.734131 
L 307.805575 70.72286 
L 308.618838 70.419944 
L 309.432101 70.582877 
L 310.245363 70.345492 
L 311.058626 70.404935 
L 311.871889 70.029349 
L 312.685152 70.326705 
L 314.311678 70.240951 
L 315.124941 70.661899 
L 315.938204 69.977376 
L 316.751467 69.856869 
L 318.377992 70.278896 
L 320.004518 69.894816 
L 320.817781 70.363381 
L 322.444307 69.718267 
L 323.25757 69.566695 
L 324.884095 69.834662 
L 325.697358 69.746793 
L 326.510621 70.019871 
L 328.137147 69.69505 
L 328.95041 69.704701 
L 329.763673 69.535766 
L 330.576936 69.68091 
L 331.390199 69.692951 
L 332.203461 69.920643 
L 333.016724 69.887452 
L 333.829987 69.469054 
L 334.64325 69.337776 
L 336.269776 69.688951 
L 337.083039 69.073286 
L 337.896302 69.33191 
L 338.709565 69.155252 
L 339.522827 69.755256 
L 340.33609 69.333561 
L 341.149353 69.121948 
L 341.962616 69.11069 
L 342.775879 69.412422 
L 343.589142 69.2152 
L 344.402405 69.149416 
L 345.215668 69.296769 
L 346.028931 69.082681 
L 346.842193 69.243427 
L 347.655456 68.937889 
L 348.468719 68.892705 
L 349.281982 69.080692 
L 350.095245 68.9287 
L 350.908508 69.256579 
L 351.721771 68.576781 
L 352.535034 69.140161 
L 353.348297 69.242183 
L 354.974822 68.37327 
L 355.788085 69.012119 
L 356.601348 68.714704 
L 357.414611 68.755395 
L 358.227874 68.320264 
L 359.041137 68.687571 
L 359.8544 68.887958 
L 360.667663 68.656904 
L 361.480925 69.00673 
L 362.294188 68.624694 
L 363.107451 68.406782 
L 363.920714 68.767156 
L 364.733977 68.757926 
L 365.54724 68.356822 
L 366.360503 68.557862 
L 367.987029 68.522934 
L 368.800291 68.513905 
L 369.613554 68.033952 
L 370.426817 68.388305 
L 372.053343 68.562527 
L 374.493132 68.396067 
L 375.306395 68.619762 
L 376.119657 67.963147 
L 376.93292 68.280487 
L 377.746183 68.179223 
L 378.559446 68.309616 
L 379.372709 68.102022 
L 380.185972 68.369455 
L 380.999235 67.791583 
L 381.812498 68.490841 
L 382.625761 67.91403 
L 383.439024 68.264341 
L 384.252286 68.27178 
L 385.065549 68.157837 
L 385.878812 68.232552 
L 388.318601 67.884269 
L 389.131864 67.980962 
L 390.75839 68.320699 
L 391.571652 68.033432 
L 392.384915 68.180067 
L 393.198178 67.915185 
L 394.011441 67.899275 
L 394.824704 68.114896 
L 396.45123 68.235759 
L 397.264493 68.064809 
L 398.077756 67.55919 
L 398.891018 68.227892 
L 399.704281 68.27007 
L 400.517544 67.922227 
L 402.14407 68.057945 
L 402.957333 67.786848 
L 404.583859 67.893965 
L 405.397122 68.421246 
L 406.210384 67.781969 
L 407.83691 68.021631 
L 409.463436 67.913204 
L 410.276699 67.459663 
L 411.089962 68.037013 
L 411.903225 67.799104 
L 412.716488 67.90228 
L 413.52975 67.579999 
L 414.343013 68.014659 
L 415.156276 67.877246 
L 415.969539 67.571842 
L 416.782802 67.79613 
L 419.222591 67.7853 
L 420.849116 67.632462 
L 422.475642 67.849111 
L 424.102168 67.503097 
L 425.728694 67.727229 
L 426.541957 67.37434 
L 427.35522 67.683844 
L 428.168482 67.479764 
L 428.981745 67.68145 
L 429.795008 67.745068 
L 430.608271 67.528146 
L 431.421534 67.541247 
L 432.234797 67.263142 
L 434.674586 67.729942 
L 436.301111 67.58567 
L 437.114374 67.718331 
L 437.927637 67.490517 
L 438.7409 67.412197 
L 439.554163 67.525418 
L 440.367426 67.330945 
L 441.180689 67.953048 
L 441.993952 67.564811 
L 443.620477 67.502296 
L 444.43374 67.643197 
L 446.060266 67.384997 
L 446.873529 67.41853 
L 447.686792 67.626555 
L 448.500055 67.550471 
L 449.313318 67.615511 
L 450.12658 67.355583 
L 450.939843 67.655699 
L 451.753106 67.597829 
L 452.566369 67.336882 
L 453.379632 67.466661 
L 454.192895 67.315582 
L 455.006158 67.56597 
L 455.819421 67.516509 
L 456.632684 67.259591 
L 457.445946 67.648119 
L 458.259209 67.611297 
L 459.072472 67.217163 
L 459.885735 67.515764 
L 461.512261 67.648135 
L 462.325524 67.401742 
L 463.138787 67.515886 
L 463.95205 67.439114 
L 464.765312 67.076473 
L 465.578575 67.416169 
L 466.391838 67.471064 
L 467.205101 67.245476 
L 468.018364 67.508562 
L 469.64489 67.550771 
L 470.458153 67.273977 
L 471.271416 67.128627 
L 472.084678 67.312717 
L 474.524467 67.331681 
L 475.33773 67.570648 
L 476.150993 67.30569 
L 476.964256 67.515749 
L 477.777519 67.302305 
L 478.590782 67.30736 
L 479.404044 67.116089 
L 480.217307 67.490908 
L 481.03057 67.614031 
L 481.843833 67.151477 
L 482.657096 67.308263 
L 484.283622 67.335579 
L 485.096885 66.992748 
L 485.910148 67.581986 
L 486.72341 67.517499 
L 487.536673 67.010416 
L 488.349936 67.333307 
L 489.163199 67.460814 
L 490.789725 67.05026 
L 491.602988 67.183191 
L 492.416251 67.017989 
L 494.042776 67.368898 
L 494.856039 67.309723 
L 495.669302 67.415224 
L 496.482565 67.160539 
L 497.295828 67.704328 
L 498.109091 66.951956 
L 498.109091 66.951956 
" style="fill:none;stroke:#0000ff;stroke-linecap:square;stroke-width:1.5;"/>
   </g>
   <g id="line2d_14">
    <path clip-path="url(#p2cbc4dc6ce)" d="M 92.290909 326.50194 
L 93.104172 317.033118 
L 93.917435 312.318677 
L 94.730698 308.272349 
L 95.543961 305.491403 
L 96.357224 302.245836 
L 97.170486 299.626027 
L 97.983749 297.708843 
L 98.797012 295.254599 
L 99.610275 293.682909 
L 100.423538 292.863793 
L 102.050064 288.895658 
L 104.489852 283.604066 
L 106.116378 280.825211 
L 106.929641 279.700489 
L 107.742904 278.376434 
L 108.556167 278.129679 
L 109.36943 276.418093 
L 110.995956 273.842995 
L 111.809218 273.081111 
L 113.435744 270.424979 
L 115.875533 267.31087 
L 116.688796 266.520806 
L 118.315322 264.357074 
L 119.128584 264.099111 
L 120.75511 261.017576 
L 121.568373 260.757344 
L 122.381636 259.572937 
L 123.194899 258.872731 
L 124.008162 257.154704 
L 124.821425 256.714661 
L 126.44795 254.984055 
L 127.261213 254.397609 
L 128.074476 253.135284 
L 128.887739 252.35546 
L 129.701002 251.745552 
L 130.514265 250.510928 
L 132.954054 248.181469 
L 133.767316 247.818003 
L 134.580579 246.448621 
L 135.393842 245.439512 
L 136.207105 244.753854 
L 137.020368 243.893497 
L 137.833631 242.717557 
L 138.646894 242.7468 
L 139.460157 241.835905 
L 140.27342 240.164897 
L 141.086682 239.683035 
L 141.899945 238.553139 
L 142.713208 238.175254 
L 143.526471 238.068451 
L 145.152997 236.001094 
L 147.592786 233.434204 
L 148.406048 233.128359 
L 149.219311 231.826967 
L 150.032574 231.225725 
L 150.845837 229.985002 
L 151.6591 229.459605 
L 152.472363 228.410928 
L 154.098889 226.806282 
L 154.912152 225.27036 
L 155.725414 225.09162 
L 157.35194 222.808154 
L 158.165203 221.876985 
L 158.978466 221.466763 
L 159.791729 220.465668 
L 160.604992 219.714473 
L 161.418255 219.15643 
L 162.231518 217.641406 
L 163.858043 216.068229 
L 164.671306 214.969305 
L 165.484569 214.331756 
L 166.297832 213.02121 
L 167.111095 212.386221 
L 167.924358 212.252192 
L 168.737621 211.688361 
L 169.550884 210.356416 
L 170.364146 209.934601 
L 171.177409 208.779072 
L 171.990672 207.39062 
L 172.803935 206.625584 
L 173.617198 206.046917 
L 174.430461 195.137564 
L 175.243724 191.839354 
L 176.056987 189.566146 
L 176.87025 187.955221 
L 177.683512 186.066819 
L 178.496775 185.573916 
L 179.310038 184.30562 
L 180.123301 183.266121 
L 180.936564 182.696143 
L 181.749827 181.394542 
L 183.376353 180.417593 
L 184.189616 179.584297 
L 185.002878 178.069633 
L 185.816141 177.289138 
L 186.629404 176.909353 
L 187.442667 175.065296 
L 188.25593 175.103367 
L 189.069193 174.82028 
L 189.882456 174.131954 
L 190.695719 173.596966 
L 191.508982 172.581094 
L 192.322244 171.958003 
L 193.135507 171.475207 
L 193.94877 171.250181 
L 194.762033 170.008313 
L 195.575296 170.095333 
L 196.388559 168.446284 
L 197.201822 168.417464 
L 198.015085 167.956392 
L 198.828348 167.626303 
L 200.454873 167.498334 
L 201.268136 166.468081 
L 202.081399 165.7188 
L 202.894662 164.553081 
L 203.707925 164.360242 
L 204.521188 164.722629 
L 205.334451 163.642431 
L 206.147714 161.897459 
L 206.960976 162.999601 
L 207.774239 162.274758 
L 208.587502 162.013354 
L 209.400765 161.562546 
L 210.214028 160.401993 
L 211.027291 160.209066 
L 211.840554 159.30139 
L 213.46708 158.305772 
L 214.280343 158.333315 
L 215.093605 157.889559 
L 215.906868 158.259357 
L 216.720131 156.919549 
L 217.533394 156.733842 
L 218.346657 156.855929 
L 219.15992 156.197782 
L 219.973183 156.084498 
L 220.786446 154.723153 
L 222.412971 154.30672 
L 223.226234 153.690287 
L 224.039497 153.336218 
L 224.85276 153.964431 
L 225.666023 153.343888 
L 226.479286 153.108426 
L 227.292549 152.147587 
L 228.105812 151.837496 
L 228.919075 151.668061 
L 229.732337 150.781816 
L 231.358863 150.244043 
L 232.172126 151.217401 
L 232.985389 149.867555 
L 233.798652 149.325173 
L 234.611915 149.553726 
L 235.425178 149.117439 
L 237.051703 147.723034 
L 237.864966 148.484718 
L 238.678229 147.624102 
L 239.491492 147.172294 
L 240.304755 147.013129 
L 241.118018 147.001959 
L 241.931281 146.732659 
L 242.744544 146.599354 
L 243.557807 146.299743 
L 244.371069 145.127497 
L 245.184332 146.312701 
L 245.997595 144.973146 
L 247.624121 144.123049 
L 248.437384 144.655308 
L 249.250647 143.746753 
L 250.06391 144.457694 
L 250.877173 142.954406 
L 251.690435 143.048533 
L 252.503698 144.048338 
L 253.316961 142.623682 
L 254.130224 142.555369 
L 254.943487 142.706519 
L 255.75675 141.505954 
L 256.570013 141.370509 
L 257.383276 141.70853 
L 258.196539 141.021992 
L 259.009801 141.339669 
L 259.823064 141.157559 
L 260.636327 141.211794 
L 261.44959 140.357199 
L 262.262853 140.374017 
L 263.076116 138.463973 
L 263.889379 139.465104 
L 264.702642 139.625736 
L 265.515905 138.956463 
L 266.329167 138.929048 
L 267.14243 139.387441 
L 267.955693 139.13439 
L 268.768956 139.103393 
L 269.582219 138.264766 
L 270.395482 137.621979 
L 271.208745 137.508703 
L 272.022008 137.68871 
L 273.648533 136.83685 
L 274.461796 137.270576 
L 275.275059 137.085959 
L 276.088322 135.780044 
L 276.901585 136.566502 
L 277.714848 136.438114 
L 278.528111 135.85941 
L 279.341374 136.438419 
L 280.154637 135.778334 
L 280.967899 135.611182 
L 281.781162 135.874605 
L 282.594425 135.285256 
L 283.407688 134.465551 
L 284.220951 135.041827 
L 285.034214 135.048025 
L 285.847477 134.774162 
L 286.66074 134.974943 
L 287.474003 133.42726 
L 288.287265 134.068497 
L 289.100528 133.467008 
L 289.913791 133.973187 
L 290.727054 133.313203 
L 291.540317 133.497556 
L 293.166843 133.462497 
L 293.980106 132.800256 
L 294.793369 131.855083 
L 295.606631 131.988711 
L 296.419894 132.482967 
L 297.233157 132.127802 
L 298.04642 131.484057 
L 298.859683 132.208748 
L 299.672946 132.19659 
L 300.486209 131.646192 
L 301.299472 131.59195 
L 302.112735 132.241159 
L 302.925997 130.313435 
L 303.73926 130.637887 
L 304.552523 131.18392 
L 305.365786 131.287049 
L 306.179049 130.140267 
L 306.992312 130.913723 
L 307.805575 130.284217 
L 308.618838 130.046388 
L 309.432101 130.525764 
L 310.245363 130.00972 
L 311.058626 130.22042 
L 311.871889 128.751578 
L 312.685152 129.786669 
L 313.498415 129.745095 
L 314.311678 130.10707 
L 315.938204 128.969331 
L 316.751467 128.712176 
L 317.564729 129.33422 
L 318.377992 129.126192 
L 320.004518 128.883112 
L 320.817781 129.201251 
L 321.631044 128.590744 
L 322.444307 128.49635 
L 323.25757 127.150216 
L 324.070833 128.290746 
L 324.884095 128.651991 
L 326.510621 128.444276 
L 327.323884 128.089136 
L 328.137147 127.051485 
L 329.763673 126.915297 
L 330.576936 127.521413 
L 331.390199 127.436804 
L 332.203461 127.821589 
L 333.016724 126.818889 
L 333.829987 127.274351 
L 334.64325 126.848733 
L 336.269776 126.421003 
L 337.083039 125.956638 
L 337.896302 125.96332 
L 338.709565 126.460728 
L 339.522827 126.756056 
L 340.33609 125.84792 
L 341.149353 126.404595 
L 341.962616 125.665828 
L 342.775879 126.141953 
L 343.589142 125.626709 
L 344.402405 126.199103 
L 346.028931 125.733974 
L 346.842193 126.300537 
L 347.655456 124.994513 
L 348.468719 125.333907 
L 349.281982 125.397722 
L 350.095245 125.045663 
L 350.908508 125.579181 
L 351.721771 124.644703 
L 353.348297 124.972439 
L 354.161559 124.649314 
L 354.974822 123.827953 
L 355.788085 124.786238 
L 356.601348 124.385883 
L 358.227874 124.174064 
L 359.041137 123.623036 
L 359.8544 123.889091 
L 360.667663 123.405098 
L 361.480925 124.338134 
L 362.294188 123.836549 
L 363.107451 124.051638 
L 363.920714 123.71714 
L 365.54724 123.57996 
L 366.360503 123.319154 
L 367.173766 123.475923 
L 367.987029 123.512922 
L 368.800291 122.835774 
L 370.426817 123.230094 
L 371.24008 123.143951 
L 372.053343 123.585501 
L 372.866606 123.070237 
L 373.679869 123.44371 
L 374.493132 122.692182 
L 375.306395 123.759909 
L 376.119657 122.723159 
L 377.746183 122.069539 
L 378.559446 122.456861 
L 379.372709 122.336968 
L 380.185972 122.681979 
L 380.999235 121.914588 
L 381.812498 123.079203 
L 382.625761 121.893205 
L 384.252286 122.374583 
L 385.065549 121.790334 
L 385.878812 122.175401 
L 386.692075 121.781404 
L 387.505338 121.692083 
L 388.318601 121.443871 
L 389.945127 121.992781 
L 391.571652 121.817033 
L 392.384915 122.027374 
L 393.198178 121.312039 
L 394.011441 121.192927 
L 395.637967 121.947423 
L 396.45123 121.415021 
L 397.264493 121.773645 
L 398.077756 121.072525 
L 398.891018 121.489356 
L 399.704281 121.648055 
L 400.517544 121.461051 
L 401.330807 121.67223 
L 402.14407 120.795621 
L 402.957333 120.865613 
L 403.770596 121.409764 
L 404.583859 120.894182 
L 405.397122 121.642227 
L 406.210384 121.17089 
L 407.023647 121.176549 
L 407.83691 121.38522 
L 408.650173 121.930174 
L 409.463436 120.794537 
L 410.276699 120.380233 
L 411.903225 120.868934 
L 412.716488 120.956692 
L 413.52975 120.479221 
L 414.343013 121.354242 
L 415.969539 120.172798 
L 417.596065 120.98561 
L 418.409328 120.698409 
L 419.222591 120.725791 
L 420.035854 120.113538 
L 420.849116 119.84478 
L 421.662379 120.520029 
L 422.475642 120.826365 
L 423.288905 120.044589 
L 424.102168 119.780874 
L 424.915431 120.238382 
L 425.728694 120.233155 
L 426.541957 119.674656 
L 427.35522 120.15121 
L 428.168482 120.469769 
L 429.795008 120.165342 
L 430.608271 120.234635 
L 431.421534 120.136912 
L 432.234797 119.775865 
L 433.04806 119.811581 
L 434.674586 119.663113 
L 435.487848 120.112538 
L 436.301111 119.873422 
L 437.114374 120.153924 
L 437.927637 119.633061 
L 438.7409 119.707385 
L 439.554163 120.08149 
L 440.367426 119.96636 
L 441.180689 120.621529 
L 441.993952 119.715762 
L 443.620477 119.417194 
L 444.43374 119.287569 
L 445.247003 119.871504 
L 446.060266 119.517204 
L 446.873529 120.049027 
L 448.500055 119.789628 
L 449.313318 119.678324 
L 450.939843 118.971681 
L 451.753106 119.49421 
L 452.566369 119.653716 
L 453.379632 119.422413 
L 454.192895 119.505433 
L 455.006158 119.72883 
L 455.819421 118.864727 
L 457.445946 119.437853 
L 458.259209 119.44231 
L 459.072472 119.141248 
L 459.885735 119.70945 
L 460.698998 119.100097 
L 461.512261 119.938932 
L 462.325524 119.04969 
L 463.138787 119.485806 
L 463.95205 119.165277 
L 464.765312 118.99096 
L 465.578575 119.892774 
L 466.391838 119.14169 
L 467.205101 118.873829 
L 468.018364 119.06571 
L 469.64489 119.83977 
L 470.458153 118.590008 
L 472.084678 119.333293 
L 473.711204 118.634227 
L 474.524467 118.687211 
L 475.33773 118.889655 
L 476.150993 118.74652 
L 476.964256 119.603172 
L 478.590782 118.670677 
L 479.404044 118.862679 
L 480.217307 118.860063 
L 481.03057 119.025108 
L 481.843833 118.957173 
L 482.657096 118.636016 
L 483.470359 118.642125 
L 484.283622 119.11152 
L 485.096885 118.50981 
L 485.910148 119.266568 
L 486.72341 118.762009 
L 487.536673 118.001475 
L 488.349936 118.736451 
L 489.976462 119.208072 
L 490.789725 117.962992 
L 491.602988 117.845581 
L 492.416251 118.570952 
L 493.229514 118.185374 
L 494.042776 118.699711 
L 494.856039 118.937248 
L 496.482565 118.591589 
L 497.295828 119.261028 
L 498.109091 118.49758 
L 498.109091 118.49758 
" style="fill:none;stroke:#008000;stroke-linecap:square;stroke-width:1.5;"/>
   </g>
   <g id="patch_3">
    <path d="M 72 384.48 
L 72 51.84 
" style="fill:none;stroke:#000000;stroke-linecap:square;stroke-linejoin:miter;stroke-width:0.8;"/>
   </g>
   <g id="patch_4">
    <path d="M 518.4 384.48 
L 518.4 51.84 
" style="fill:none;stroke:#000000;stroke-linecap:square;stroke-linejoin:miter;stroke-width:0.8;"/>
   </g>
   <g id="patch_5">
    <path d="M 72 384.48 
L 518.4 384.48 
" style="fill:none;stroke:#000000;stroke-linecap:square;stroke-linejoin:miter;stroke-width:0.8;"/>
   </g>
   <g id="patch_6">
    <path d="M 72 51.84 
L 518.4 51.84 
" style="fill:none;stroke:#000000;stroke-linecap:square;stroke-linejoin:miter;stroke-width:0.8;"/>
   </g>
   <g id="legend_1">
    <g id="patch_7">
     <path d="M 79 89.19625 
L 156.107812 89.19625 
Q 158.107812 89.19625 158.107812 87.19625 
L 158.107812 58.84 
Q 158.107812 56.84 156.107812 56.84 
L 79 56.84 
Q 77 56.84 77 58.84 
L 77 87.19625 
Q 77 89.19625 79 89.19625 
z
" style="fill:#ffffff;opacity:0.8;stroke:#cccccc;stroke-linejoin:miter;"/>
    </g>
    <g id="line2d_15">
     <path d="M 81 64.938437 
L 101 64.938437 
" style="fill:none;stroke:#0000ff;stroke-linecap:square;stroke-width:1.5;"/>
    </g>
    <g id="line2d_16"/>
    <g id="text_15">
     <!-- precision -->
     <g transform="translate(109 68.438437)scale(0.1 -0.1)">
      <defs>
       <path d="M 9.421875 54.6875 
L 18.40625 54.6875 
L 18.40625 0 
L 9.421875 0 
z
M 9.421875 75.984375 
L 18.40625 75.984375 
L 18.40625 64.59375 
L 9.421875 64.59375 
z
" id="DejaVuSans-105"/>
       <path d="M 44.28125 53.078125 
L 44.28125 44.578125 
Q 40.484375 46.53125 36.375 47.5 
Q 32.28125 48.484375 27.875 48.484375 
Q 21.1875 48.484375 17.84375 46.4375 
Q 14.5 44.390625 14.5 40.28125 
Q 14.5 37.15625 16.890625 35.375 
Q 19.28125 33.59375 26.515625 31.984375 
L 29.59375 31.296875 
Q 39.15625 29.25 43.1875 25.515625 
Q 47.21875 21.78125 47.21875 15.09375 
Q 47.21875 7.46875 41.1875 3.015625 
Q 35.15625 -1.421875 24.609375 -1.421875 
Q 20.21875 -1.421875 15.453125 -0.5625 
Q 10.6875 0.296875 5.421875 2 
L 5.421875 11.28125 
Q 10.40625 8.6875 15.234375 7.390625 
Q 20.0625 6.109375 24.8125 6.109375 
Q 31.15625 6.109375 34.5625 8.28125 
Q 37.984375 10.453125 37.984375 14.40625 
Q 37.984375 18.0625 35.515625 20.015625 
Q 33.0625 21.96875 24.703125 23.78125 
L 21.578125 24.515625 
Q 13.234375 26.265625 9.515625 29.90625 
Q 5.8125 33.546875 5.8125 39.890625 
Q 5.8125 47.609375 11.28125 51.796875 
Q 16.75 56 26.8125 56 
Q 31.78125 56 36.171875 55.265625 
Q 40.578125 54.546875 44.28125 53.078125 
z
" id="DejaVuSans-115"/>
       <path d="M 54.890625 33.015625 
L 54.890625 0 
L 45.90625 0 
L 45.90625 32.71875 
Q 45.90625 40.484375 42.875 44.328125 
Q 39.84375 48.1875 33.796875 48.1875 
Q 26.515625 48.1875 22.3125 43.546875 
Q 18.109375 38.921875 18.109375 30.90625 
L 18.109375 0 
L 9.078125 0 
L 9.078125 54.6875 
L 18.109375 54.6875 
L 18.109375 46.1875 
Q 21.34375 51.125 25.703125 53.5625 
Q 30.078125 56 35.796875 56 
Q 45.21875 56 50.046875 50.171875 
Q 54.890625 44.34375 54.890625 33.015625 
z
" id="DejaVuSans-110"/>
      </defs>
      <use xlink:href="#DejaVuSans-112"/>
      <use x="63.476562" xlink:href="#DejaVuSans-114"/>
      <use x="102.339844" xlink:href="#DejaVuSans-101"/>
      <use x="163.863281" xlink:href="#DejaVuSans-99"/>
      <use x="218.84375" xlink:href="#DejaVuSans-105"/>
      <use x="246.626953" xlink:href="#DejaVuSans-115"/>
      <use x="298.726562" xlink:href="#DejaVuSans-105"/>
      <use x="326.509766" xlink:href="#DejaVuSans-111"/>
      <use x="387.691406" xlink:href="#DejaVuSans-110"/>
     </g>
    </g>
    <g id="line2d_17">
     <path d="M 81 79.616562 
L 101 79.616562 
" style="fill:none;stroke:#008000;stroke-linecap:square;stroke-width:1.5;"/>
    </g>
    <g id="line2d_18"/>
    <g id="text_16">
     <!-- recall -->
     <g transform="translate(109 83.116562)scale(0.1 -0.1)">
      <defs>
       <path d="M 9.421875 75.984375 
L 18.40625 75.984375 
L 18.40625 0 
L 9.421875 0 
z
" id="DejaVuSans-108"/>
      </defs>
      <use xlink:href="#DejaVuSans-114"/>
      <use x="38.863281" xlink:href="#DejaVuSans-101"/>
      <use x="100.386719" xlink:href="#DejaVuSans-99"/>
      <use x="155.367188" xlink:href="#DejaVuSans-97"/>
      <use x="216.646484" xlink:href="#DejaVuSans-108"/>
      <use x="244.429688" xlink:href="#DejaVuSans-108"/>
     </g>
    </g>
   </g>
  </g>
  <g id="axes_2">
   <g id="matplotlib.axis_3">
    <g id="ytick_7">
     <g id="line2d_19">
      <defs>
       <path d="M 0 0 
L 3.5 0 
" id="m0224b1308b" style="stroke:#000000;stroke-width:0.8;"/>
      </defs>
      <g>
       <use style="stroke:#000000;stroke-width:0.8;" x="518.4" xlink:href="#m0224b1308b" y="365.750653"/>
      </g>
     </g>
     <g id="text_17">
      <!-- 0.08 -->
      <g transform="translate(525.4 369.549871)scale(0.1 -0.1)">
       <use xlink:href="#DejaVuSans-48"/>
       <use x="63.623047" xlink:href="#DejaVuSans-46"/>
       <use x="95.410156" xlink:href="#DejaVuSans-48"/>
       <use x="159.033203" xlink:href="#DejaVuSans-56"/>
      </g>
     </g>
    </g>
    <g id="ytick_8">
     <g id="line2d_20">
      <g>
       <use style="stroke:#000000;stroke-width:0.8;" x="518.4" xlink:href="#m0224b1308b" y="324.624852"/>
      </g>
     </g>
     <g id="text_18">
      <!-- 0.10 -->
      <g transform="translate(525.4 328.424071)scale(0.1 -0.1)">
       <use xlink:href="#DejaVuSans-48"/>
       <use x="63.623047" xlink:href="#DejaVuSans-46"/>
       <use x="95.410156" xlink:href="#DejaVuSans-49"/>
       <use x="159.033203" xlink:href="#DejaVuSans-48"/>
      </g>
     </g>
    </g>
    <g id="ytick_9">
     <g id="line2d_21">
      <g>
       <use style="stroke:#000000;stroke-width:0.8;" x="518.4" xlink:href="#m0224b1308b" y="283.499052"/>
      </g>
     </g>
     <g id="text_19">
      <!-- 0.12 -->
      <g transform="translate(525.4 287.298271)scale(0.1 -0.1)">
       <use xlink:href="#DejaVuSans-48"/>
       <use x="63.623047" xlink:href="#DejaVuSans-46"/>
       <use x="95.410156" xlink:href="#DejaVuSans-49"/>
       <use x="159.033203" xlink:href="#DejaVuSans-50"/>
      </g>
     </g>
    </g>
    <g id="ytick_10">
     <g id="line2d_22">
      <g>
       <use style="stroke:#000000;stroke-width:0.8;" x="518.4" xlink:href="#m0224b1308b" y="242.373252"/>
      </g>
     </g>
     <g id="text_20">
      <!-- 0.14 -->
      <g transform="translate(525.4 246.172471)scale(0.1 -0.1)">
       <use xlink:href="#DejaVuSans-48"/>
       <use x="63.623047" xlink:href="#DejaVuSans-46"/>
       <use x="95.410156" xlink:href="#DejaVuSans-49"/>
       <use x="159.033203" xlink:href="#DejaVuSans-52"/>
      </g>
     </g>
    </g>
    <g id="ytick_11">
     <g id="line2d_23">
      <g>
       <use style="stroke:#000000;stroke-width:0.8;" x="518.4" xlink:href="#m0224b1308b" y="201.247452"/>
      </g>
     </g>
     <g id="text_21">
      <!-- 0.16 -->
      <g transform="translate(525.4 205.046671)scale(0.1 -0.1)">
       <use xlink:href="#DejaVuSans-48"/>
       <use x="63.623047" xlink:href="#DejaVuSans-46"/>
       <use x="95.410156" xlink:href="#DejaVuSans-49"/>
       <use x="159.033203" xlink:href="#DejaVuSans-54"/>
      </g>
     </g>
    </g>
    <g id="ytick_12">
     <g id="line2d_24">
      <g>
       <use style="stroke:#000000;stroke-width:0.8;" x="518.4" xlink:href="#m0224b1308b" y="160.121652"/>
      </g>
     </g>
     <g id="text_22">
      <!-- 0.18 -->
      <g transform="translate(525.4 163.920871)scale(0.1 -0.1)">
       <use xlink:href="#DejaVuSans-48"/>
       <use x="63.623047" xlink:href="#DejaVuSans-46"/>
       <use x="95.410156" xlink:href="#DejaVuSans-49"/>
       <use x="159.033203" xlink:href="#DejaVuSans-56"/>
      </g>
     </g>
    </g>
    <g id="ytick_13">
     <g id="line2d_25">
      <g>
       <use style="stroke:#000000;stroke-width:0.8;" x="518.4" xlink:href="#m0224b1308b" y="118.995852"/>
      </g>
     </g>
     <g id="text_23">
      <!-- 0.20 -->
      <g transform="translate(525.4 122.795071)scale(0.1 -0.1)">
       <use xlink:href="#DejaVuSans-48"/>
       <use x="63.623047" xlink:href="#DejaVuSans-46"/>
       <use x="95.410156" xlink:href="#DejaVuSans-50"/>
       <use x="159.033203" xlink:href="#DejaVuSans-48"/>
      </g>
     </g>
    </g>
    <g id="ytick_14">
     <g id="line2d_26">
      <g>
       <use style="stroke:#000000;stroke-width:0.8;" x="518.4" xlink:href="#m0224b1308b" y="77.870052"/>
      </g>
     </g>
     <g id="text_24">
      <!-- 0.22 -->
      <g transform="translate(525.4 81.669271)scale(0.1 -0.1)">
       <use xlink:href="#DejaVuSans-48"/>
       <use x="63.623047" xlink:href="#DejaVuSans-46"/>
       <use x="95.410156" xlink:href="#DejaVuSans-50"/>
       <use x="159.033203" xlink:href="#DejaVuSans-50"/>
      </g>
     </g>
    </g>
    <g id="text_25">
     <!-- loss -->
     <g transform="translate(559.264063 227.817812)rotate(-90)scale(0.1 -0.1)">
      <use xlink:href="#DejaVuSans-108"/>
      <use x="27.783203" xlink:href="#DejaVuSans-111"/>
      <use x="88.964844" xlink:href="#DejaVuSans-115"/>
      <use x="141.064453" xlink:href="#DejaVuSans-115"/>
     </g>
    </g>
   </g>
   <g id="line2d_27">
    <path clip-path="url(#p2cbc4dc6ce)" d="M 92.290909 66.96 
L 93.104172 92.240727 
L 93.917435 101.815086 
L 94.730698 108.828448 
L 96.357224 119.644556 
L 97.983749 128.510192 
L 98.797012 132.635847 
L 99.610275 135.990654 
L 100.423538 148.864897 
L 104.489852 165.624323 
L 105.303115 168.213275 
L 106.116378 171.367382 
L 107.742904 176.660981 
L 108.556167 177.860081 
L 110.182693 183.102255 
L 110.995956 186.018573 
L 111.809218 188.008678 
L 112.622481 191.042911 
L 115.875533 200.497444 
L 116.688796 201.627663 
L 117.502059 203.623076 
L 118.315322 206.165488 
L 119.128584 208.062356 
L 120.75511 213.097454 
L 121.568373 214.848904 
L 124.008162 221.584278 
L 124.821425 222.418292 
L 125.634688 224.603042 
L 127.261213 228.242358 
L 128.074476 230.449088 
L 128.887739 232.21022 
L 129.701002 234.275441 
L 132.140791 239.781112 
L 132.954054 240.963719 
L 133.767316 242.376421 
L 136.207105 247.522393 
L 137.020368 248.838526 
L 137.833631 250.584983 
L 138.646894 251.624286 
L 140.27342 254.907149 
L 141.086682 255.829563 
L 142.713208 258.153743 
L 143.526471 258.945746 
L 145.152997 261.964261 
L 145.96626 262.944637 
L 146.779523 264.292083 
L 147.592786 265.195537 
L 148.406048 266.329159 
L 149.219311 267.189972 
L 150.032574 267.779893 
L 150.845837 269.189796 
L 151.6591 270.003766 
L 152.472363 271.095586 
L 153.285626 271.817174 
L 154.912152 274.290225 
L 155.725414 274.829815 
L 157.35194 276.994667 
L 158.978466 278.437401 
L 159.791729 279.658575 
L 160.604992 280.201866 
L 161.418255 280.96283 
L 162.231518 282.179196 
L 163.858043 284.01615 
L 164.671306 284.646913 
L 165.484569 285.787502 
L 167.111095 287.314278 
L 167.924358 287.77647 
L 168.737621 288.616489 
L 169.550884 289.720041 
L 170.364146 290.176814 
L 171.990672 292.110403 
L 173.617198 293.649394 
L 174.430461 301.63141 
L 175.243724 304.410483 
L 176.056987 306.117126 
L 177.683512 308.794422 
L 178.496775 308.993728 
L 179.310038 310.480378 
L 180.123301 311.360738 
L 180.936564 311.640484 
L 181.749827 312.44459 
L 185.002878 314.90169 
L 185.816141 315.775906 
L 186.629404 316.187613 
L 187.442667 317.320934 
L 189.069193 317.811716 
L 189.882456 318.407858 
L 190.695719 318.792297 
L 191.508982 319.523284 
L 192.322244 320.065219 
L 193.135507 320.217468 
L 193.94877 320.695451 
L 194.762033 321.679964 
L 195.575296 321.879206 
L 196.388559 322.775604 
L 198.015085 323.541242 
L 198.828348 323.643236 
L 200.454873 324.238804 
L 201.268136 324.94445 
L 202.081399 325.451106 
L 202.894662 326.348568 
L 203.707925 326.626457 
L 204.521188 326.349235 
L 205.334451 326.976257 
L 206.147714 328.054836 
L 206.960976 327.751631 
L 207.774239 328.278137 
L 208.587502 328.4899 
L 210.214028 329.75806 
L 211.027291 329.931663 
L 211.840554 330.596056 
L 212.653817 330.797223 
L 213.46708 331.199224 
L 214.280343 331.317573 
L 215.906868 332.039318 
L 216.720131 332.484346 
L 218.346657 332.681259 
L 219.15992 333.478888 
L 219.973183 333.675796 
L 220.786446 334.411371 
L 222.412971 334.841052 
L 224.039497 335.656766 
L 224.85276 335.165062 
L 227.292549 336.800012 
L 228.105812 337.109862 
L 228.919075 337.137565 
L 229.732337 337.814449 
L 230.5456 337.850367 
L 231.358863 338.401642 
L 232.172126 338.216428 
L 233.798652 339.022017 
L 234.611915 339.127379 
L 235.425178 339.345641 
L 237.051703 340.475021 
L 237.864966 339.92761 
L 238.678229 340.685709 
L 239.491492 341.024053 
L 240.304755 341.141636 
L 241.118018 341.481401 
L 241.931281 341.534711 
L 242.744544 341.789854 
L 243.557807 341.920372 
L 244.371069 342.6938 
L 245.184332 342.147008 
L 245.997595 343.071671 
L 247.624121 343.444312 
L 248.437384 343.310447 
L 249.250647 343.854747 
L 250.06391 343.839373 
L 250.877173 344.574963 
L 251.690435 344.54135 
L 252.503698 344.275002 
L 253.316961 345.026262 
L 254.130224 345.418051 
L 254.943487 344.992598 
L 255.75675 345.956651 
L 256.570013 345.995503 
L 258.196539 346.323312 
L 259.009801 346.276882 
L 259.823064 346.57506 
L 260.636327 346.678156 
L 261.44959 347.199414 
L 262.262853 347.320683 
L 263.076116 348.386011 
L 264.702642 347.926298 
L 265.515905 348.321442 
L 266.329167 348.575328 
L 267.14243 348.249762 
L 267.955693 348.364418 
L 268.768956 348.600856 
L 270.395482 349.575381 
L 271.208745 349.485909 
L 272.022008 349.668073 
L 273.648533 350.322435 
L 274.461796 350.119862 
L 275.275059 350.21569 
L 276.088322 351.139753 
L 276.901585 350.815081 
L 277.714848 350.772551 
L 278.528111 351.35658 
L 279.341374 350.872092 
L 280.154637 351.413477 
L 280.967899 351.671242 
L 281.781162 351.586077 
L 282.594425 351.916317 
L 283.407688 352.495947 
L 284.220951 352.297424 
L 285.034214 352.411172 
L 286.66074 352.390228 
L 287.474003 353.095529 
L 288.287265 352.938604 
L 289.100528 353.668262 
L 289.913791 353.278764 
L 290.727054 353.717516 
L 291.540317 353.657533 
L 292.35358 353.820369 
L 293.166843 353.712555 
L 294.793369 354.880468 
L 295.606631 354.591707 
L 296.419894 354.556347 
L 297.233157 355.003651 
L 298.04642 355.174539 
L 299.672946 355.026616 
L 301.299472 355.60201 
L 302.112735 355.193454 
L 302.925997 356.229679 
L 304.552523 356.015858 
L 305.365786 355.991125 
L 306.179049 356.497675 
L 306.992312 356.14899 
L 307.805575 356.616158 
L 308.618838 356.856892 
L 309.432101 356.67837 
L 310.245363 357.052708 
L 311.058626 356.80574 
L 311.871889 357.493752 
L 312.685152 357.197973 
L 313.498415 357.329436 
L 314.311678 357.229599 
L 315.124941 357.381735 
L 315.938204 357.994877 
L 316.751467 358.197341 
L 317.564729 357.797582 
L 318.377992 358.138009 
L 319.191255 358.068066 
L 320.004518 358.214191 
L 320.817781 358.124244 
L 321.631044 358.570882 
L 322.444307 358.609134 
L 323.25757 359.178431 
L 324.070833 358.743264 
L 324.884095 358.622042 
L 325.697358 358.938996 
L 326.510621 358.747674 
L 328.137147 359.666318 
L 329.763673 359.797216 
L 330.576936 359.588457 
L 331.390199 359.645525 
L 332.203461 359.395201 
L 333.016724 360.060366 
L 333.829987 359.942335 
L 335.456513 360.331886 
L 336.269776 360.165787 
L 337.083039 360.690692 
L 337.896302 360.773727 
L 339.522827 360.473613 
L 340.33609 360.958977 
L 341.149353 360.663708 
L 341.962616 361.289654 
L 342.775879 360.986247 
L 343.589142 361.433284 
L 344.402405 360.917191 
L 345.215668 361.22719 
L 346.028931 361.336689 
L 346.842193 361.328992 
L 347.655456 361.964178 
L 348.468719 361.720159 
L 349.281982 361.688861 
L 350.095245 361.825711 
L 350.908508 361.635015 
L 351.721771 362.170606 
L 353.348297 361.915292 
L 354.161559 362.243975 
L 354.974822 362.972333 
L 355.788085 362.270071 
L 356.601348 362.606761 
L 357.414611 362.443617 
L 359.041137 363.084916 
L 360.667663 363.015083 
L 361.480925 362.728992 
L 362.294188 363.139812 
L 363.107451 363.221531 
L 363.920714 362.965531 
L 364.733977 363.357875 
L 365.54724 363.193493 
L 366.360503 363.549185 
L 368.800291 363.866996 
L 369.613554 363.725524 
L 370.426817 363.810194 
L 371.24008 363.75663 
L 372.053343 363.55464 
L 372.866606 363.984063 
L 373.679869 363.812024 
L 374.493132 364.124831 
L 375.306395 363.826628 
L 376.119657 364.177674 
L 377.746183 364.577331 
L 378.559446 364.325243 
L 379.372709 364.558613 
L 380.185972 364.497682 
L 380.999235 364.906417 
L 381.812498 364.399821 
L 382.625761 365.058628 
L 383.439024 364.967368 
L 384.252286 364.722547 
L 389.131864 365.412254 
L 389.945127 365.129282 
L 391.571652 365.363425 
L 392.384915 365.145007 
L 394.011441 365.711144 
L 394.824704 365.51875 
L 395.637967 365.573599 
L 396.45123 365.752819 
L 397.264493 365.511121 
L 398.077756 366.091523 
L 398.891018 365.718178 
L 399.704281 365.513536 
L 400.517544 365.772443 
L 401.330807 365.649227 
L 402.14407 365.951455 
L 402.957333 366.038639 
L 403.770596 366.009881 
L 404.583859 366.266032 
L 405.397122 365.788491 
L 406.210384 366.302307 
L 407.83691 366.123382 
L 408.650173 365.716777 
L 409.463436 366.254114 
L 410.276699 366.634708 
L 411.089962 366.48074 
L 411.903225 366.539347 
L 412.716488 366.21836 
L 413.52975 366.762995 
L 414.343013 366.180386 
L 415.156276 366.75577 
L 415.969539 366.933221 
L 416.782802 366.801997 
L 417.596065 366.348838 
L 418.409328 366.722857 
L 419.222591 366.575955 
L 420.035854 367.114651 
L 420.849116 367.255374 
L 421.662379 366.887993 
L 422.475642 366.859061 
L 423.288905 367.225637 
L 424.915431 367.118428 
L 425.728694 366.962294 
L 426.541957 367.424209 
L 428.168482 367.105466 
L 428.981745 367.261598 
L 429.795008 367.212085 
L 430.608271 367.010488 
L 431.421534 367.064566 
L 432.234797 367.49037 
L 433.861323 367.32852 
L 434.674586 367.50907 
L 435.487848 367.414405 
L 437.927637 367.642694 
L 439.554163 367.44204 
L 440.367426 367.708696 
L 441.180689 367.48756 
L 441.993952 367.484088 
L 442.807214 367.914224 
L 444.43374 367.750821 
L 446.060266 368.025447 
L 446.873529 367.82484 
L 447.686792 367.748003 
L 450.12658 367.902222 
L 450.939843 368.219552 
L 451.753106 367.927964 
L 453.379632 368.053605 
L 454.192895 367.946604 
L 457.445946 368.258952 
L 458.259209 368.105375 
L 459.072472 368.319204 
L 459.885735 367.935608 
L 460.698998 368.426287 
L 461.512261 367.862496 
L 462.325524 368.418226 
L 463.138787 368.36085 
L 464.765312 368.674198 
L 465.578575 368.263423 
L 467.205101 368.567129 
L 468.831627 368.357291 
L 469.64489 368.168679 
L 470.458153 368.852216 
L 471.271416 368.850772 
L 472.084678 368.499755 
L 473.711204 368.830842 
L 475.33773 368.744863 
L 476.150993 368.967654 
L 476.964256 368.346419 
L 477.777519 368.49617 
L 478.590782 368.849654 
L 479.404044 368.746911 
L 483.470359 368.898653 
L 484.283622 368.69659 
L 485.096885 369.25281 
L 485.910148 368.759023 
L 486.72341 368.8163 
L 487.536673 369.36 
L 488.349936 369.10606 
L 489.163199 368.976849 
L 489.976462 368.683411 
L 490.789725 369.170267 
L 491.602988 369.317493 
L 492.416251 369.064685 
L 493.229514 369.31157 
L 494.856039 369.014582 
L 496.482565 369.114995 
L 497.295828 368.695354 
L 498.109091 369.292219 
L 498.109091 369.292219 
" style="fill:none;stroke:#ff0000;stroke-linecap:square;stroke-width:1.5;"/>
   </g>
   <g id="patch_8">
    <path d="M 72 384.48 
L 72 51.84 
" style="fill:none;stroke:#000000;stroke-linecap:square;stroke-linejoin:miter;stroke-width:0.8;"/>
   </g>
   <g id="patch_9">
    <path d="M 518.4 384.48 
L 518.4 51.84 
" style="fill:none;stroke:#000000;stroke-linecap:square;stroke-linejoin:miter;stroke-width:0.8;"/>
   </g>
   <g id="patch_10">
    <path d="M 72 384.48 
L 518.4 384.48 
" style="fill:none;stroke:#000000;stroke-linecap:square;stroke-linejoin:miter;stroke-width:0.8;"/>
   </g>
   <g id="patch_11">
    <path d="M 72 51.84 
L 518.4 51.84 
" style="fill:none;stroke:#000000;stroke-linecap:square;stroke-linejoin:miter;stroke-width:0.8;"/>
   </g>
   <g id="text_26">
    <!-- The learning curve on _non_iid/guest/2 -->
    <g transform="translate(175.03875 45.84)scale(0.12 -0.12)">
     <defs>
      <path d="M -0.296875 72.90625 
L 61.375 72.90625 
L 61.375 64.59375 
L 35.5 64.59375 
L 35.5 0 
L 25.59375 0 
L 25.59375 64.59375 
L -0.296875 64.59375 
z
" id="DejaVuSans-84"/>
      <path id="DejaVuSans-32"/>
      <path d="M 45.40625 27.984375 
Q 45.40625 37.75 41.375 43.109375 
Q 37.359375 48.484375 30.078125 48.484375 
Q 22.859375 48.484375 18.828125 43.109375 
Q 14.796875 37.75 14.796875 27.984375 
Q 14.796875 18.265625 18.828125 12.890625 
Q 22.859375 7.515625 30.078125 7.515625 
Q 37.359375 7.515625 41.375 12.890625 
Q 45.40625 18.265625 45.40625 27.984375 
z
M 54.390625 6.78125 
Q 54.390625 -7.171875 48.1875 -13.984375 
Q 42 -20.796875 29.203125 -20.796875 
Q 24.46875 -20.796875 20.265625 -20.09375 
Q 16.0625 -19.390625 12.109375 -17.921875 
L 12.109375 -9.1875 
Q 16.0625 -11.328125 19.921875 -12.34375 
Q 23.78125 -13.375 27.78125 -13.375 
Q 36.625 -13.375 41.015625 -8.765625 
Q 45.40625 -4.15625 45.40625 5.171875 
L 45.40625 9.625 
Q 42.625 4.78125 38.28125 2.390625 
Q 33.9375 0 27.875 0 
Q 17.828125 0 11.671875 7.65625 
Q 5.515625 15.328125 5.515625 27.984375 
Q 5.515625 40.671875 11.671875 48.328125 
Q 17.828125 56 27.875 56 
Q 33.9375 56 38.28125 53.609375 
Q 42.625 51.21875 45.40625 46.390625 
L 45.40625 54.6875 
L 54.390625 54.6875 
z
" id="DejaVuSans-103"/>
      <path d="M 8.5 21.578125 
L 8.5 54.6875 
L 17.484375 54.6875 
L 17.484375 21.921875 
Q 17.484375 14.15625 20.5 10.265625 
Q 23.53125 6.390625 29.59375 6.390625 
Q 36.859375 6.390625 41.078125 11.03125 
Q 45.3125 15.671875 45.3125 23.6875 
L 45.3125 54.6875 
L 54.296875 54.6875 
L 54.296875 0 
L 45.3125 0 
L 45.3125 8.40625 
Q 42.046875 3.421875 37.71875 1 
Q 33.40625 -1.421875 27.6875 -1.421875 
Q 18.265625 -1.421875 13.375 4.4375 
Q 8.5 10.296875 8.5 21.578125 
z
M 31.109375 56 
z
" id="DejaVuSans-117"/>
      <path d="M 2.984375 54.6875 
L 12.5 54.6875 
L 29.59375 8.796875 
L 46.6875 54.6875 
L 56.203125 54.6875 
L 35.6875 0 
L 23.484375 0 
z
" id="DejaVuSans-118"/>
      <path d="M 30.953125 67.4375 
L 56.203125 0 
L 46.6875 0 
L 31.34375 40.4375 
L 12.5 0 
L 2.984375 0 
L 26.953125 52.4375 
L 23.34375 62.109375 
Q 21.046875 68.265625 15.828125 68.265625 
L 11.140625 68.265625 
L 11.140625 75.984375 
L 16.84375 75.875 
Q 27.875 75.734375 30.953125 67.4375 
z
" id="DejaVuSans-955"/>
      <path d="M 50.984375 -16.609375 
L 50.984375 -23.578125 
L -0.984375 -23.578125 
L -0.984375 -16.609375 
z
" id="DejaVuSans-95"/>
      <path d="M 45.40625 46.390625 
L 45.40625 75.984375 
L 54.390625 75.984375 
L 54.390625 0 
L 45.40625 0 
L 45.40625 8.203125 
Q 42.578125 3.328125 38.25 0.953125 
Q 33.9375 -1.421875 27.875 -1.421875 
Q 17.96875 -1.421875 11.734375 6.484375 
Q 5.515625 14.40625 5.515625 27.296875 
Q 5.515625 40.1875 11.734375 48.09375 
Q 17.96875 56 27.875 56 
Q 33.9375 56 38.25 53.625 
Q 42.578125 51.265625 45.40625 46.390625 
z
M 14.796875 27.296875 
Q 14.796875 17.390625 18.875 11.75 
Q 22.953125 6.109375 30.078125 6.109375 
Q 37.203125 6.109375 41.296875 11.75 
Q 45.40625 17.390625 45.40625 27.296875 
Q 45.40625 37.203125 41.296875 42.84375 
Q 37.203125 48.484375 30.078125 48.484375 
Q 22.953125 48.484375 18.875 42.84375 
Q 14.796875 37.203125 14.796875 27.296875 
z
" id="DejaVuSans-100"/>
      <path d="M 25.390625 72.90625 
L 33.6875 72.90625 
L 8.296875 -9.28125 
L 0 -9.28125 
z
" id="DejaVuSans-47"/>
     </defs>
     <use xlink:href="#DejaVuSans-84"/>
     <use x="61.083984" xlink:href="#DejaVuSans-104"/>
     <use x="124.462891" xlink:href="#DejaVuSans-101"/>
     <use x="185.986328" xlink:href="#DejaVuSans-32"/>
     <use x="217.773438" xlink:href="#DejaVuSans-108"/>
     <use x="245.556641" xlink:href="#DejaVuSans-101"/>
     <use x="307.080078" xlink:href="#DejaVuSans-97"/>
     <use x="368.359375" xlink:href="#DejaVuSans-114"/>
     <use x="407.722656" xlink:href="#DejaVuSans-110"/>
     <use x="471.101562" xlink:href="#DejaVuSans-105"/>
     <use x="498.884766" xlink:href="#DejaVuSans-110"/>
     <use x="562.263672" xlink:href="#DejaVuSans-103"/>
     <use x="625.740234" xlink:href="#DejaVuSans-32"/>
     <use x="657.527344" xlink:href="#DejaVuSans-99"/>
     <use x="712.507812" xlink:href="#DejaVuSans-117"/>
     <use x="775.886719" xlink:href="#DejaVuSans-114"/>
     <use x="817" xlink:href="#DejaVuSans-118"/>
     <use x="876.179688" xlink:href="#DejaVuSans-101"/>
     <use x="937.703125" xlink:href="#DejaVuSans-32"/>
     <use x="969.490234" xlink:href="#DejaVuSans-111"/>
     <use x="1030.671875" xlink:href="#DejaVuSans-110"/>
     <use x="1094.050781" xlink:href="#DejaVuSans-32"/>
     <use x="1125.837891" xlink:href="#DejaVuSans-955"/>
     <use x="1185.017578" xlink:href="#DejaVuSans-95"/>
     <use x="1235.017578" xlink:href="#DejaVuSans-110"/>
     <use x="1298.396484" xlink:href="#DejaVuSans-111"/>
     <use x="1359.578125" xlink:href="#DejaVuSans-110"/>
     <use x="1422.957031" xlink:href="#DejaVuSans-95"/>
     <use x="1472.957031" xlink:href="#DejaVuSans-105"/>
     <use x="1500.740234" xlink:href="#DejaVuSans-105"/>
     <use x="1528.523438" xlink:href="#DejaVuSans-100"/>
     <use x="1592" xlink:href="#DejaVuSans-47"/>
     <use x="1625.691406" xlink:href="#DejaVuSans-103"/>
     <use x="1689.167969" xlink:href="#DejaVuSans-117"/>
     <use x="1752.546875" xlink:href="#DejaVuSans-101"/>
     <use x="1814.070312" xlink:href="#DejaVuSans-115"/>
     <use x="1866.169922" xlink:href="#DejaVuSans-116"/>
     <use x="1905.378906" xlink:href="#DejaVuSans-47"/>
     <use x="1939.070312" xlink:href="#DejaVuSans-50"/>
    </g>
   </g>
   <g id="legend_2">
    <g id="patch_12">
     <path d="M 460.084375 74.518125 
L 511.4 74.518125 
Q 513.4 74.518125 513.4 72.518125 
L 513.4 58.84 
Q 513.4 56.84 511.4 56.84 
L 460.084375 56.84 
Q 458.084375 56.84 458.084375 58.84 
L 458.084375 72.518125 
Q 458.084375 74.518125 460.084375 74.518125 
z
" style="fill:#ffffff;opacity:0.8;stroke:#cccccc;stroke-linejoin:miter;"/>
    </g>
    <g id="line2d_28">
     <path d="M 462.084375 64.938438 
L 482.084375 64.938438 
" style="fill:none;stroke:#ff0000;stroke-linecap:square;stroke-width:1.5;"/>
    </g>
    <g id="line2d_29"/>
    <g id="text_27">
     <!-- loss -->
     <g transform="translate(490.084375 68.438438)scale(0.1 -0.1)">
      <use xlink:href="#DejaVuSans-108"/>
      <use x="27.783203" xlink:href="#DejaVuSans-111"/>
      <use x="88.964844" xlink:href="#DejaVuSans-115"/>
      <use x="141.064453" xlink:href="#DejaVuSans-115"/>
     </g>
    </g>
   </g>
  </g>
 </g>
 <defs>
  <clipPath id="p2cbc4dc6ce">
   <rect height="332.64" width="446.4" x="72" y="51.84"/>
  </clipPath>
 </defs>
</svg>
