<?xml version="1.0" encoding="utf-8" standalone="no"?>
<!DOCTYPE svg PUBLIC "-//W3C//DTD SVG 1.1//EN"
  "http://www.w3.org/Graphics/SVG/1.1/DTD/svg11.dtd">
<!-- Created with matplotlib (https://matplotlib.org/) -->
<svg height="432pt" version="1.1" viewBox="0 0 576 432" width="576pt" xmlns="http://www.w3.org/2000/svg" xmlns:xlink="http://www.w3.org/1999/xlink">
 <metadata>
  <rdf:RDF xmlns:cc="http://creativecommons.org/ns#" xmlns:dc="http://purl.org/dc/elements/1.1/" xmlns:rdf="http://www.w3.org/1999/02/22-rdf-syntax-ns#">
   <cc:Work>
    <dc:type rdf:resource="http://purl.org/dc/dcmitype/StillImage"/>
    <dc:date>2023-04-17T00:04:46.764645</dc:date>
    <dc:format>image/svg+xml</dc:format>
    <dc:creator>
     <cc:Agent>
      <dc:title>Matplotlib v3.3.4, https://matplotlib.org/</dc:title>
     </cc:Agent>
    </dc:creator>
   </cc:Work>
  </rdf:RDF>
 </metadata>
 <defs>
  <style type="text/css">*{stroke-linecap:butt;stroke-linejoin:round;}</style>
 </defs>
 <g id="figure_1">
  <g id="patch_1">
   <path d="M 0 432 
L 576 432 
L 576 0 
L 0 0 
z
" style="fill:#ffffff;"/>
  </g>
  <g id="axes_1">
   <g id="patch_2">
    <path d="M 72 384.48 
L 518.4 384.48 
L 518.4 51.84 
L 72 51.84 
z
" style="fill:#ffffff;"/>
   </g>
   <g id="matplotlib.axis_1">
    <g id="xtick_1">
     <g id="line2d_1">
      <defs>
       <path d="M 0 0 
L 0 3.5 
" id="m037ccd3055" style="stroke:#000000;stroke-width:0.8;"/>
      </defs>
      <g>
       <use style="stroke:#000000;stroke-width:0.8;" x="92.290909" xlink:href="#m037ccd3055" y="384.48"/>
      </g>
     </g>
     <g id="text_1">
      <!-- 0 -->
      <g transform="translate(89.109659 399.078438)scale(0.1 -0.1)">
       <defs>
        <path d="M 31.78125 66.40625 
Q 24.171875 66.40625 20.328125 58.90625 
Q 16.5 51.421875 16.5 36.375 
Q 16.5 21.390625 20.328125 13.890625 
Q 24.171875 6.390625 31.78125 6.390625 
Q 39.453125 6.390625 43.28125 13.890625 
Q 47.125 21.390625 47.125 36.375 
Q 47.125 51.421875 43.28125 58.90625 
Q 39.453125 66.40625 31.78125 66.40625 
z
M 31.78125 74.21875 
Q 44.046875 74.21875 50.515625 64.515625 
Q 56.984375 54.828125 56.984375 36.375 
Q 56.984375 17.96875 50.515625 8.265625 
Q 44.046875 -1.421875 31.78125 -1.421875 
Q 19.53125 -1.421875 13.0625 8.265625 
Q 6.59375 17.96875 6.59375 36.375 
Q 6.59375 54.828125 13.0625 64.515625 
Q 19.53125 74.21875 31.78125 74.21875 
z
" id="DejaVuSans-48"/>
       </defs>
       <use xlink:href="#DejaVuSans-48"/>
      </g>
     </g>
    </g>
    <g id="xtick_2">
     <g id="line2d_2">
      <g>
       <use style="stroke:#000000;stroke-width:0.8;" x="173.617198" xlink:href="#m037ccd3055" y="384.48"/>
      </g>
     </g>
     <g id="text_2">
      <!-- 100 -->
      <g transform="translate(164.073448 399.078438)scale(0.1 -0.1)">
       <defs>
        <path d="M 12.40625 8.296875 
L 28.515625 8.296875 
L 28.515625 63.921875 
L 10.984375 60.40625 
L 10.984375 69.390625 
L 28.421875 72.90625 
L 38.28125 72.90625 
L 38.28125 8.296875 
L 54.390625 8.296875 
L 54.390625 0 
L 12.40625 0 
z
" id="DejaVuSans-49"/>
       </defs>
       <use xlink:href="#DejaVuSans-49"/>
       <use x="63.623047" xlink:href="#DejaVuSans-48"/>
       <use x="127.246094" xlink:href="#DejaVuSans-48"/>
      </g>
     </g>
    </g>
    <g id="xtick_3">
     <g id="line2d_3">
      <g>
       <use style="stroke:#000000;stroke-width:0.8;" x="254.943487" xlink:href="#m037ccd3055" y="384.48"/>
      </g>
     </g>
     <g id="text_3">
      <!-- 200 -->
      <g transform="translate(245.399737 399.078438)scale(0.1 -0.1)">
       <defs>
        <path d="M 19.1875 8.296875 
L 53.609375 8.296875 
L 53.609375 0 
L 7.328125 0 
L 7.328125 8.296875 
Q 12.9375 14.109375 22.625 23.890625 
Q 32.328125 33.6875 34.8125 36.53125 
Q 39.546875 41.84375 41.421875 45.53125 
Q 43.3125 49.21875 43.3125 52.78125 
Q 43.3125 58.59375 39.234375 62.25 
Q 35.15625 65.921875 28.609375 65.921875 
Q 23.96875 65.921875 18.8125 64.3125 
Q 13.671875 62.703125 7.8125 59.421875 
L 7.8125 69.390625 
Q 13.765625 71.78125 18.9375 73 
Q 24.125 74.21875 28.421875 74.21875 
Q 39.75 74.21875 46.484375 68.546875 
Q 53.21875 62.890625 53.21875 53.421875 
Q 53.21875 48.921875 51.53125 44.890625 
Q 49.859375 40.875 45.40625 35.40625 
Q 44.1875 33.984375 37.640625 27.21875 
Q 31.109375 20.453125 19.1875 8.296875 
z
" id="DejaVuSans-50"/>
       </defs>
       <use xlink:href="#DejaVuSans-50"/>
       <use x="63.623047" xlink:href="#DejaVuSans-48"/>
       <use x="127.246094" xlink:href="#DejaVuSans-48"/>
      </g>
     </g>
    </g>
    <g id="xtick_4">
     <g id="line2d_4">
      <g>
       <use style="stroke:#000000;stroke-width:0.8;" x="336.269776" xlink:href="#m037ccd3055" y="384.48"/>
      </g>
     </g>
     <g id="text_4">
      <!-- 300 -->
      <g transform="translate(326.726026 399.078438)scale(0.1 -0.1)">
       <defs>
        <path d="M 40.578125 39.3125 
Q 47.65625 37.796875 51.625 33 
Q 55.609375 28.21875 55.609375 21.1875 
Q 55.609375 10.40625 48.1875 4.484375 
Q 40.765625 -1.421875 27.09375 -1.421875 
Q 22.515625 -1.421875 17.65625 -0.515625 
Q 12.796875 0.390625 7.625 2.203125 
L 7.625 11.71875 
Q 11.71875 9.328125 16.59375 8.109375 
Q 21.484375 6.890625 26.8125 6.890625 
Q 36.078125 6.890625 40.9375 10.546875 
Q 45.796875 14.203125 45.796875 21.1875 
Q 45.796875 27.640625 41.28125 31.265625 
Q 36.765625 34.90625 28.71875 34.90625 
L 20.21875 34.90625 
L 20.21875 43.015625 
L 29.109375 43.015625 
Q 36.375 43.015625 40.234375 45.921875 
Q 44.09375 48.828125 44.09375 54.296875 
Q 44.09375 59.90625 40.109375 62.90625 
Q 36.140625 65.921875 28.71875 65.921875 
Q 24.65625 65.921875 20.015625 65.03125 
Q 15.375 64.15625 9.8125 62.3125 
L 9.8125 71.09375 
Q 15.4375 72.65625 20.34375 73.4375 
Q 25.25 74.21875 29.59375 74.21875 
Q 40.828125 74.21875 47.359375 69.109375 
Q 53.90625 64.015625 53.90625 55.328125 
Q 53.90625 49.265625 50.4375 45.09375 
Q 46.96875 40.921875 40.578125 39.3125 
z
" id="DejaVuSans-51"/>
       </defs>
       <use xlink:href="#DejaVuSans-51"/>
       <use x="63.623047" xlink:href="#DejaVuSans-48"/>
       <use x="127.246094" xlink:href="#DejaVuSans-48"/>
      </g>
     </g>
    </g>
    <g id="xtick_5">
     <g id="line2d_5">
      <g>
       <use style="stroke:#000000;stroke-width:0.8;" x="417.596065" xlink:href="#m037ccd3055" y="384.48"/>
      </g>
     </g>
     <g id="text_5">
      <!-- 400 -->
      <g transform="translate(408.052315 399.078438)scale(0.1 -0.1)">
       <defs>
        <path d="M 37.796875 64.3125 
L 12.890625 25.390625 
L 37.796875 25.390625 
z
M 35.203125 72.90625 
L 47.609375 72.90625 
L 47.609375 25.390625 
L 58.015625 25.390625 
L 58.015625 17.1875 
L 47.609375 17.1875 
L 47.609375 0 
L 37.796875 0 
L 37.796875 17.1875 
L 4.890625 17.1875 
L 4.890625 26.703125 
z
" id="DejaVuSans-52"/>
       </defs>
       <use xlink:href="#DejaVuSans-52"/>
       <use x="63.623047" xlink:href="#DejaVuSans-48"/>
       <use x="127.246094" xlink:href="#DejaVuSans-48"/>
      </g>
     </g>
    </g>
    <g id="xtick_6">
     <g id="line2d_6">
      <g>
       <use style="stroke:#000000;stroke-width:0.8;" x="498.922354" xlink:href="#m037ccd3055" y="384.48"/>
      </g>
     </g>
     <g id="text_6">
      <!-- 500 -->
      <g transform="translate(489.378604 399.078438)scale(0.1 -0.1)">
       <defs>
        <path d="M 10.796875 72.90625 
L 49.515625 72.90625 
L 49.515625 64.59375 
L 19.828125 64.59375 
L 19.828125 46.734375 
Q 21.96875 47.46875 24.109375 47.828125 
Q 26.265625 48.1875 28.421875 48.1875 
Q 40.625 48.1875 47.75 41.5 
Q 54.890625 34.8125 54.890625 23.390625 
Q 54.890625 11.625 47.5625 5.09375 
Q 40.234375 -1.421875 26.90625 -1.421875 
Q 22.3125 -1.421875 17.546875 -0.640625 
Q 12.796875 0.140625 7.71875 1.703125 
L 7.71875 11.625 
Q 12.109375 9.234375 16.796875 8.0625 
Q 21.484375 6.890625 26.703125 6.890625 
Q 35.15625 6.890625 40.078125 11.328125 
Q 45.015625 15.765625 45.015625 23.390625 
Q 45.015625 31 40.078125 35.4375 
Q 35.15625 39.890625 26.703125 39.890625 
Q 22.75 39.890625 18.8125 39.015625 
Q 14.890625 38.140625 10.796875 36.28125 
z
" id="DejaVuSans-53"/>
       </defs>
       <use xlink:href="#DejaVuSans-53"/>
       <use x="63.623047" xlink:href="#DejaVuSans-48"/>
       <use x="127.246094" xlink:href="#DejaVuSans-48"/>
      </g>
     </g>
    </g>
    <g id="text_7">
     <!-- epoch -->
     <g transform="translate(279.971875 412.756563)scale(0.1 -0.1)">
      <defs>
       <path d="M 56.203125 29.59375 
L 56.203125 25.203125 
L 14.890625 25.203125 
Q 15.484375 15.921875 20.484375 11.0625 
Q 25.484375 6.203125 34.421875 6.203125 
Q 39.59375 6.203125 44.453125 7.46875 
Q 49.3125 8.734375 54.109375 11.28125 
L 54.109375 2.78125 
Q 49.265625 0.734375 44.1875 -0.34375 
Q 39.109375 -1.421875 33.890625 -1.421875 
Q 20.796875 -1.421875 13.15625 6.1875 
Q 5.515625 13.8125 5.515625 26.8125 
Q 5.515625 40.234375 12.765625 48.109375 
Q 20.015625 56 32.328125 56 
Q 43.359375 56 49.78125 48.890625 
Q 56.203125 41.796875 56.203125 29.59375 
z
M 47.21875 32.234375 
Q 47.125 39.59375 43.09375 43.984375 
Q 39.0625 48.390625 32.421875 48.390625 
Q 24.90625 48.390625 20.390625 44.140625 
Q 15.875 39.890625 15.1875 32.171875 
z
" id="DejaVuSans-101"/>
       <path d="M 18.109375 8.203125 
L 18.109375 -20.796875 
L 9.078125 -20.796875 
L 9.078125 54.6875 
L 18.109375 54.6875 
L 18.109375 46.390625 
Q 20.953125 51.265625 25.265625 53.625 
Q 29.59375 56 35.59375 56 
Q 45.5625 56 51.78125 48.09375 
Q 58.015625 40.1875 58.015625 27.296875 
Q 58.015625 14.40625 51.78125 6.484375 
Q 45.5625 -1.421875 35.59375 -1.421875 
Q 29.59375 -1.421875 25.265625 0.953125 
Q 20.953125 3.328125 18.109375 8.203125 
z
M 48.6875 27.296875 
Q 48.6875 37.203125 44.609375 42.84375 
Q 40.53125 48.484375 33.40625 48.484375 
Q 26.265625 48.484375 22.1875 42.84375 
Q 18.109375 37.203125 18.109375 27.296875 
Q 18.109375 17.390625 22.1875 11.75 
Q 26.265625 6.109375 33.40625 6.109375 
Q 40.53125 6.109375 44.609375 11.75 
Q 48.6875 17.390625 48.6875 27.296875 
z
" id="DejaVuSans-112"/>
       <path d="M 30.609375 48.390625 
Q 23.390625 48.390625 19.1875 42.75 
Q 14.984375 37.109375 14.984375 27.296875 
Q 14.984375 17.484375 19.15625 11.84375 
Q 23.34375 6.203125 30.609375 6.203125 
Q 37.796875 6.203125 41.984375 11.859375 
Q 46.1875 17.53125 46.1875 27.296875 
Q 46.1875 37.015625 41.984375 42.703125 
Q 37.796875 48.390625 30.609375 48.390625 
z
M 30.609375 56 
Q 42.328125 56 49.015625 48.375 
Q 55.71875 40.765625 55.71875 27.296875 
Q 55.71875 13.875 49.015625 6.21875 
Q 42.328125 -1.421875 30.609375 -1.421875 
Q 18.84375 -1.421875 12.171875 6.21875 
Q 5.515625 13.875 5.515625 27.296875 
Q 5.515625 40.765625 12.171875 48.375 
Q 18.84375 56 30.609375 56 
z
" id="DejaVuSans-111"/>
       <path d="M 48.78125 52.59375 
L 48.78125 44.1875 
Q 44.96875 46.296875 41.140625 47.34375 
Q 37.3125 48.390625 33.40625 48.390625 
Q 24.65625 48.390625 19.8125 42.84375 
Q 14.984375 37.3125 14.984375 27.296875 
Q 14.984375 17.28125 19.8125 11.734375 
Q 24.65625 6.203125 33.40625 6.203125 
Q 37.3125 6.203125 41.140625 7.25 
Q 44.96875 8.296875 48.78125 10.40625 
L 48.78125 2.09375 
Q 45.015625 0.34375 40.984375 -0.53125 
Q 36.96875 -1.421875 32.421875 -1.421875 
Q 20.0625 -1.421875 12.78125 6.34375 
Q 5.515625 14.109375 5.515625 27.296875 
Q 5.515625 40.671875 12.859375 48.328125 
Q 20.21875 56 33.015625 56 
Q 37.15625 56 41.109375 55.140625 
Q 45.0625 54.296875 48.78125 52.59375 
z
" id="DejaVuSans-99"/>
       <path d="M 54.890625 33.015625 
L 54.890625 0 
L 45.90625 0 
L 45.90625 32.71875 
Q 45.90625 40.484375 42.875 44.328125 
Q 39.84375 48.1875 33.796875 48.1875 
Q 26.515625 48.1875 22.3125 43.546875 
Q 18.109375 38.921875 18.109375 30.90625 
L 18.109375 0 
L 9.078125 0 
L 9.078125 75.984375 
L 18.109375 75.984375 
L 18.109375 46.1875 
Q 21.34375 51.125 25.703125 53.5625 
Q 30.078125 56 35.796875 56 
Q 45.21875 56 50.046875 50.171875 
Q 54.890625 44.34375 54.890625 33.015625 
z
" id="DejaVuSans-104"/>
      </defs>
      <use xlink:href="#DejaVuSans-101"/>
      <use x="61.523438" xlink:href="#DejaVuSans-112"/>
      <use x="125" xlink:href="#DejaVuSans-111"/>
      <use x="186.181641" xlink:href="#DejaVuSans-99"/>
      <use x="241.162109" xlink:href="#DejaVuSans-104"/>
     </g>
    </g>
   </g>
   <g id="matplotlib.axis_2">
    <g id="ytick_1">
     <g id="line2d_7">
      <defs>
       <path d="M 0 0 
L -3.5 0 
" id="md7ec3242e0" style="stroke:#000000;stroke-width:0.8;"/>
      </defs>
      <g>
       <use style="stroke:#000000;stroke-width:0.8;" x="72" xlink:href="#md7ec3242e0" y="384.48"/>
      </g>
     </g>
     <g id="text_8">
      <!-- 0.0 -->
      <g transform="translate(49.096875 388.279219)scale(0.1 -0.1)">
       <defs>
        <path d="M 10.6875 12.40625 
L 21 12.40625 
L 21 0 
L 10.6875 0 
z
" id="DejaVuSans-46"/>
       </defs>
       <use xlink:href="#DejaVuSans-48"/>
       <use x="63.623047" xlink:href="#DejaVuSans-46"/>
       <use x="95.410156" xlink:href="#DejaVuSans-48"/>
      </g>
     </g>
    </g>
    <g id="ytick_2">
     <g id="line2d_8">
      <g>
       <use style="stroke:#000000;stroke-width:0.8;" x="72" xlink:href="#md7ec3242e0" y="317.952"/>
      </g>
     </g>
     <g id="text_9">
      <!-- 0.2 -->
      <g transform="translate(49.096875 321.751219)scale(0.1 -0.1)">
       <use xlink:href="#DejaVuSans-48"/>
       <use x="63.623047" xlink:href="#DejaVuSans-46"/>
       <use x="95.410156" xlink:href="#DejaVuSans-50"/>
      </g>
     </g>
    </g>
    <g id="ytick_3">
     <g id="line2d_9">
      <g>
       <use style="stroke:#000000;stroke-width:0.8;" x="72" xlink:href="#md7ec3242e0" y="251.424"/>
      </g>
     </g>
     <g id="text_10">
      <!-- 0.4 -->
      <g transform="translate(49.096875 255.223219)scale(0.1 -0.1)">
       <use xlink:href="#DejaVuSans-48"/>
       <use x="63.623047" xlink:href="#DejaVuSans-46"/>
       <use x="95.410156" xlink:href="#DejaVuSans-52"/>
      </g>
     </g>
    </g>
    <g id="ytick_4">
     <g id="line2d_10">
      <g>
       <use style="stroke:#000000;stroke-width:0.8;" x="72" xlink:href="#md7ec3242e0" y="184.896"/>
      </g>
     </g>
     <g id="text_11">
      <!-- 0.6 -->
      <g transform="translate(49.096875 188.695219)scale(0.1 -0.1)">
       <defs>
        <path d="M 33.015625 40.375 
Q 26.375 40.375 22.484375 35.828125 
Q 18.609375 31.296875 18.609375 23.390625 
Q 18.609375 15.53125 22.484375 10.953125 
Q 26.375 6.390625 33.015625 6.390625 
Q 39.65625 6.390625 43.53125 10.953125 
Q 47.40625 15.53125 47.40625 23.390625 
Q 47.40625 31.296875 43.53125 35.828125 
Q 39.65625 40.375 33.015625 40.375 
z
M 52.59375 71.296875 
L 52.59375 62.3125 
Q 48.875 64.0625 45.09375 64.984375 
Q 41.3125 65.921875 37.59375 65.921875 
Q 27.828125 65.921875 22.671875 59.328125 
Q 17.53125 52.734375 16.796875 39.40625 
Q 19.671875 43.65625 24.015625 45.921875 
Q 28.375 48.1875 33.59375 48.1875 
Q 44.578125 48.1875 50.953125 41.515625 
Q 57.328125 34.859375 57.328125 23.390625 
Q 57.328125 12.15625 50.6875 5.359375 
Q 44.046875 -1.421875 33.015625 -1.421875 
Q 20.359375 -1.421875 13.671875 8.265625 
Q 6.984375 17.96875 6.984375 36.375 
Q 6.984375 53.65625 15.1875 63.9375 
Q 23.390625 74.21875 37.203125 74.21875 
Q 40.921875 74.21875 44.703125 73.484375 
Q 48.484375 72.75 52.59375 71.296875 
z
" id="DejaVuSans-54"/>
       </defs>
       <use xlink:href="#DejaVuSans-48"/>
       <use x="63.623047" xlink:href="#DejaVuSans-46"/>
       <use x="95.410156" xlink:href="#DejaVuSans-54"/>
      </g>
     </g>
    </g>
    <g id="ytick_5">
     <g id="line2d_11">
      <g>
       <use style="stroke:#000000;stroke-width:0.8;" x="72" xlink:href="#md7ec3242e0" y="118.368"/>
      </g>
     </g>
     <g id="text_12">
      <!-- 0.8 -->
      <g transform="translate(49.096875 122.167219)scale(0.1 -0.1)">
       <defs>
        <path d="M 31.78125 34.625 
Q 24.75 34.625 20.71875 30.859375 
Q 16.703125 27.09375 16.703125 20.515625 
Q 16.703125 13.921875 20.71875 10.15625 
Q 24.75 6.390625 31.78125 6.390625 
Q 38.8125 6.390625 42.859375 10.171875 
Q 46.921875 13.96875 46.921875 20.515625 
Q 46.921875 27.09375 42.890625 30.859375 
Q 38.875 34.625 31.78125 34.625 
z
M 21.921875 38.8125 
Q 15.578125 40.375 12.03125 44.71875 
Q 8.5 49.078125 8.5 55.328125 
Q 8.5 64.0625 14.71875 69.140625 
Q 20.953125 74.21875 31.78125 74.21875 
Q 42.671875 74.21875 48.875 69.140625 
Q 55.078125 64.0625 55.078125 55.328125 
Q 55.078125 49.078125 51.53125 44.71875 
Q 48 40.375 41.703125 38.8125 
Q 48.828125 37.15625 52.796875 32.3125 
Q 56.78125 27.484375 56.78125 20.515625 
Q 56.78125 9.90625 50.3125 4.234375 
Q 43.84375 -1.421875 31.78125 -1.421875 
Q 19.734375 -1.421875 13.25 4.234375 
Q 6.78125 9.90625 6.78125 20.515625 
Q 6.78125 27.484375 10.78125 32.3125 
Q 14.796875 37.15625 21.921875 38.8125 
z
M 18.3125 54.390625 
Q 18.3125 48.734375 21.84375 45.5625 
Q 25.390625 42.390625 31.78125 42.390625 
Q 38.140625 42.390625 41.71875 45.5625 
Q 45.3125 48.734375 45.3125 54.390625 
Q 45.3125 60.0625 41.71875 63.234375 
Q 38.140625 66.40625 31.78125 66.40625 
Q 25.390625 66.40625 21.84375 63.234375 
Q 18.3125 60.0625 18.3125 54.390625 
z
" id="DejaVuSans-56"/>
       </defs>
       <use xlink:href="#DejaVuSans-48"/>
       <use x="63.623047" xlink:href="#DejaVuSans-46"/>
       <use x="95.410156" xlink:href="#DejaVuSans-56"/>
      </g>
     </g>
    </g>
    <g id="ytick_6">
     <g id="line2d_12">
      <g>
       <use style="stroke:#000000;stroke-width:0.8;" x="72" xlink:href="#md7ec3242e0" y="51.84"/>
      </g>
     </g>
     <g id="text_13">
      <!-- 1.0 -->
      <g transform="translate(49.096875 55.639219)scale(0.1 -0.1)">
       <use xlink:href="#DejaVuSans-49"/>
       <use x="63.623047" xlink:href="#DejaVuSans-46"/>
       <use x="95.410156" xlink:href="#DejaVuSans-48"/>
      </g>
     </g>
    </g>
    <g id="text_14">
     <!-- rate -->
     <g transform="translate(43.017187 228.31625)rotate(-90)scale(0.1 -0.1)">
      <defs>
       <path d="M 41.109375 46.296875 
Q 39.59375 47.171875 37.8125 47.578125 
Q 36.03125 48 33.890625 48 
Q 26.265625 48 22.1875 43.046875 
Q 18.109375 38.09375 18.109375 28.8125 
L 18.109375 0 
L 9.078125 0 
L 9.078125 54.6875 
L 18.109375 54.6875 
L 18.109375 46.1875 
Q 20.953125 51.171875 25.484375 53.578125 
Q 30.03125 56 36.53125 56 
Q 37.453125 56 38.578125 55.875 
Q 39.703125 55.765625 41.0625 55.515625 
z
" id="DejaVuSans-114"/>
       <path d="M 34.28125 27.484375 
Q 23.390625 27.484375 19.1875 25 
Q 14.984375 22.515625 14.984375 16.5 
Q 14.984375 11.71875 18.140625 8.90625 
Q 21.296875 6.109375 26.703125 6.109375 
Q 34.1875 6.109375 38.703125 11.40625 
Q 43.21875 16.703125 43.21875 25.484375 
L 43.21875 27.484375 
z
M 52.203125 31.203125 
L 52.203125 0 
L 43.21875 0 
L 43.21875 8.296875 
Q 40.140625 3.328125 35.546875 0.953125 
Q 30.953125 -1.421875 24.3125 -1.421875 
Q 15.921875 -1.421875 10.953125 3.296875 
Q 6 8.015625 6 15.921875 
Q 6 25.140625 12.171875 29.828125 
Q 18.359375 34.515625 30.609375 34.515625 
L 43.21875 34.515625 
L 43.21875 35.40625 
Q 43.21875 41.609375 39.140625 45 
Q 35.0625 48.390625 27.6875 48.390625 
Q 23 48.390625 18.546875 47.265625 
Q 14.109375 46.140625 10.015625 43.890625 
L 10.015625 52.203125 
Q 14.9375 54.109375 19.578125 55.046875 
Q 24.21875 56 28.609375 56 
Q 40.484375 56 46.34375 49.84375 
Q 52.203125 43.703125 52.203125 31.203125 
z
" id="DejaVuSans-97"/>
       <path d="M 18.3125 70.21875 
L 18.3125 54.6875 
L 36.8125 54.6875 
L 36.8125 47.703125 
L 18.3125 47.703125 
L 18.3125 18.015625 
Q 18.3125 11.328125 20.140625 9.421875 
Q 21.96875 7.515625 27.59375 7.515625 
L 36.8125 7.515625 
L 36.8125 0 
L 27.59375 0 
Q 17.1875 0 13.234375 3.875 
Q 9.28125 7.765625 9.28125 18.015625 
L 9.28125 47.703125 
L 2.6875 47.703125 
L 2.6875 54.6875 
L 9.28125 54.6875 
L 9.28125 70.21875 
z
" id="DejaVuSans-116"/>
      </defs>
      <use xlink:href="#DejaVuSans-114"/>
      <use x="41.113281" xlink:href="#DejaVuSans-97"/>
      <use x="102.392578" xlink:href="#DejaVuSans-116"/>
      <use x="141.601562" xlink:href="#DejaVuSans-101"/>
     </g>
    </g>
   </g>
   <g id="line2d_13">
    <path clip-path="url(#pcf3b8f2682)" d="M 92.290909 209.862837 
L 93.104172 152.41334 
L 93.917435 152.805899 
L 94.730698 148.962783 
L 95.543961 148.399626 
L 96.357224 146.53753 
L 97.170486 143.644193 
L 97.983749 143.899491 
L 98.797012 142.966466 
L 99.610275 140.138834 
L 100.423538 195.035284 
L 102.050064 128.388605 
L 102.863327 145.744504 
L 103.67659 133.209767 
L 104.489852 131.469317 
L 105.303115 130.609228 
L 106.116378 126.138653 
L 106.929641 125.476917 
L 107.742904 125.148748 
L 108.556167 196.766018 
L 109.36943 167.374308 
L 110.182693 125.968083 
L 110.995956 144.974557 
L 111.809218 127.365042 
L 112.622481 132.220123 
L 113.435744 126.004356 
L 114.249007 124.529529 
L 115.06227 120.615808 
L 115.875533 118.945137 
L 116.688796 195.915305 
L 117.502059 167.477818 
L 118.315322 128.228943 
L 119.128584 142.510241 
L 119.941847 127.114781 
L 120.75511 130.027513 
L 121.568373 123.126321 
L 122.381636 123.933156 
L 123.194899 119.962478 
L 124.008162 118.213138 
L 124.821425 194.435804 
L 125.634688 169.049264 
L 126.44795 129.962329 
L 127.261213 135.311572 
L 128.074476 128.301285 
L 128.887739 126.367527 
L 129.701002 123.564929 
L 131.327528 115.748168 
L 132.140791 114.845836 
L 132.954054 194.880298 
L 133.767316 167.134123 
L 134.580579 132.747271 
L 135.393842 129.347867 
L 136.207105 135.449735 
L 137.020368 123.24161 
L 137.833631 125.001034 
L 138.646894 116.032845 
L 139.460157 116.802738 
L 140.27342 110.123438 
L 141.086682 199.216258 
L 141.899945 165.464168 
L 142.713208 138.9475 
L 143.526471 130.740415 
L 144.339734 132.855912 
L 145.152997 121.195596 
L 145.96626 120.026055 
L 146.779523 112.180083 
L 147.592786 110.571578 
L 148.406048 110.073478 
L 149.219311 192.354797 
L 150.032574 162.571514 
L 151.6591 126.003672 
L 152.472363 134.760545 
L 153.285626 121.036697 
L 154.098889 119.196897 
L 154.912152 112.556322 
L 155.725414 108.021397 
L 156.538677 106.892595 
L 157.35194 198.437096 
L 158.165203 163.940814 
L 158.978466 146.497581 
L 159.791729 124.996565 
L 160.604992 128.945921 
L 161.418255 117.227886 
L 162.231518 112.735599 
L 163.04478 112.04667 
L 164.671306 103.790974 
L 165.484569 194.909461 
L 166.297832 159.320881 
L 167.111095 147.899745 
L 167.924358 124.01841 
L 168.737621 126.645637 
L 169.550884 120.504934 
L 170.364146 112.688215 
L 171.177409 109.478119 
L 171.990672 105.12598 
L 172.803935 102.310674 
L 173.617198 200.752375 
L 174.430461 147.569917 
L 175.243724 150.639119 
L 176.056987 142.61692 
L 176.87025 131.500437 
L 177.683512 126.948261 
L 178.496775 126.249399 
L 179.310038 123.415016 
L 180.123301 119.583882 
L 180.936564 117.756826 
L 181.749827 236.462367 
L 182.56309 135.524086 
L 183.376353 143.300176 
L 184.189616 150.003808 
L 185.816141 128.590732 
L 186.629404 123.501874 
L 187.442667 120.419191 
L 188.25593 119.391418 
L 189.069193 117.516853 
L 189.882456 249.131246 
L 190.695719 140.140381 
L 191.508982 136.192389 
L 192.322244 145.732479 
L 193.135507 142.730978 
L 193.94877 131.563136 
L 194.762033 126.683845 
L 195.575296 118.478586 
L 196.388559 120.080468 
L 197.201822 114.660265 
L 198.015085 249.221737 
L 198.828348 145.145264 
L 199.64161 132.340074 
L 200.454873 143.934978 
L 201.268136 142.608692 
L 202.081399 132.079997 
L 202.894662 124.186932 
L 203.707925 120.051919 
L 204.521188 118.698185 
L 205.334451 118.947128 
L 206.147714 239.141687 
L 206.960976 139.845414 
L 207.774239 127.516422 
L 208.587502 137.79711 
L 209.400765 141.197703 
L 210.214028 130.895725 
L 211.027291 124.813571 
L 211.840554 119.998678 
L 212.653817 117.278814 
L 213.46708 113.615618 
L 214.280343 254.518865 
L 215.093605 144.884734 
L 215.906868 124.092366 
L 216.720131 136.55645 
L 217.533394 136.638435 
L 218.346657 134.516936 
L 219.15992 129.105351 
L 219.973183 121.549978 
L 220.786446 116.981369 
L 221.599709 114.879389 
L 222.412971 265.082696 
L 223.226234 160.205765 
L 224.039497 127.995023 
L 224.85276 131.360775 
L 225.666023 137.383951 
L 226.479286 134.496244 
L 227.292549 129.263817 
L 228.105812 127.086299 
L 228.919075 121.348322 
L 229.732337 114.454224 
L 230.5456 262.141365 
L 231.358863 158.669549 
L 232.172126 128.203404 
L 232.985389 127.364322 
L 233.798652 133.541837 
L 234.611915 132.311325 
L 235.425178 130.671106 
L 236.238441 124.710834 
L 237.864966 116.152159 
L 238.678229 256.758062 
L 239.491492 172.663173 
L 240.304755 128.883355 
L 241.118018 126.069117 
L 241.931281 127.960283 
L 242.744544 130.745445 
L 243.557807 131.097271 
L 244.371069 123.650006 
L 245.184332 121.630852 
L 245.997595 115.684187 
L 246.810858 267.402863 
L 247.624121 181.691471 
L 248.437384 128.092302 
L 249.250647 119.96138 
L 250.06391 122.455932 
L 250.877173 130.735871 
L 251.690435 129.553916 
L 253.316961 120.763542 
L 254.130224 123.173806 
L 254.943487 269.22758 
L 255.75675 187.974347 
L 256.570013 133.453887 
L 257.383276 115.199673 
L 258.196539 122.916417 
L 259.009801 126.039454 
L 259.823064 128.055277 
L 260.636327 122.692015 
L 261.44959 122.538301 
L 262.262853 120.013471 
L 263.076116 268.935097 
L 263.889379 189.016899 
L 264.702642 139.527524 
L 265.515905 116.144987 
L 266.329167 116.616976 
L 267.14243 116.24232 
L 267.955693 123.325565 
L 268.768956 125.455005 
L 269.582219 121.04714 
L 270.395482 120.705245 
L 271.208745 274.522288 
L 272.022008 188.655743 
L 272.835271 130.322097 
L 273.648533 120.90602 
L 274.461796 118.376319 
L 275.275059 120.472563 
L 276.088322 120.436494 
L 276.901585 122.301181 
L 277.714848 121.681672 
L 278.528111 120.721511 
L 279.341374 271.414517 
L 280.967899 140.552778 
L 281.781162 120.36183 
L 283.407688 118.459001 
L 284.220951 122.218326 
L 285.034214 123.745395 
L 286.66074 121.778453 
L 287.474003 267.745213 
L 289.100528 147.074127 
L 289.913791 126.904287 
L 290.727054 116.203384 
L 291.540317 113.278941 
L 292.35358 118.330569 
L 293.166843 116.418166 
L 293.980106 120.225175 
L 294.793369 118.626947 
L 295.606631 277.84922 
L 297.233157 162.42145 
L 298.04642 127.264349 
L 298.859683 116.449949 
L 299.672946 116.632049 
L 300.486209 114.648022 
L 301.299472 116.330317 
L 302.112735 116.494367 
L 302.925997 117.88256 
L 303.73926 271.620098 
L 304.552523 210.305036 
L 305.365786 162.094145 
L 306.179049 133.139413 
L 306.992312 115.015354 
L 307.805575 116.666607 
L 308.618838 110.928541 
L 309.432101 113.940219 
L 310.245363 111.198242 
L 311.058626 113.518408 
L 311.871889 280.247848 
L 313.498415 167.387173 
L 314.311678 138.964575 
L 315.124941 118.829215 
L 315.938204 113.294162 
L 316.751467 110.697397 
L 317.564729 112.426783 
L 318.377992 113.427593 
L 319.191255 113.864207 
L 320.004518 276.075958 
L 321.631044 169.041815 
L 323.25757 118.774751 
L 324.070833 113.916707 
L 324.884095 112.262266 
L 325.697358 107.529385 
L 326.510621 110.712291 
L 327.323884 110.053075 
L 328.137147 281.368368 
L 328.95041 224.302967 
L 330.576936 143.556599 
L 331.390199 130.510435 
L 332.203461 121.214685 
L 333.016724 115.601461 
L 333.829987 111.334905 
L 334.64325 107.922382 
L 335.456513 105.195025 
L 336.269776 272.078357 
L 337.083039 229.622569 
L 337.896302 174.117317 
L 338.709565 149.037848 
L 339.522827 135.895709 
L 340.33609 126.084964 
L 341.149353 108.120532 
L 341.962616 109.318246 
L 342.775879 110.238012 
L 343.589142 112.737594 
L 344.402405 286.739769 
L 345.215668 245.484247 
L 346.028931 183.539039 
L 347.655456 133.531801 
L 348.468719 124.829791 
L 349.281982 113.763681 
L 350.095245 109.386312 
L 350.908508 116.197792 
L 351.721771 108.727742 
L 352.535034 275.931686 
L 354.161559 189.174404 
L 354.974822 164.151542 
L 356.601348 128.114351 
L 357.414611 130.959851 
L 358.227874 114.569721 
L 359.041137 112.122478 
L 359.8544 108.026223 
L 360.667663 280.953044 
L 361.480925 236.159237 
L 362.294188 199.124882 
L 363.107451 167.689369 
L 363.920714 152.607342 
L 364.733977 134.756809 
L 365.54724 123.172608 
L 366.360503 116.758967 
L 367.173766 111.468673 
L 367.987029 108.09941 
L 368.800291 277.427142 
L 369.613554 248.319481 
L 371.24008 178.823949 
L 372.053343 148.596513 
L 373.679869 134.433443 
L 374.493132 120.910317 
L 375.306395 122.889078 
L 376.119657 111.716868 
L 376.93292 277.923214 
L 377.746183 254.888989 
L 378.559446 204.283913 
L 379.372709 187.111236 
L 380.185972 160.205299 
L 381.812498 134.130841 
L 382.625761 122.976453 
L 383.439024 116.912169 
L 384.252286 120.001746 
L 385.065549 285.378044 
L 385.878812 259.336934 
L 386.692075 201.368975 
L 387.505338 182.333855 
L 388.318601 166.732642 
L 389.131864 154.329924 
L 389.945127 137.037762 
L 390.75839 127.678202 
L 391.571652 124.650826 
L 392.384915 119.273928 
L 393.198178 280.66458 
L 394.011441 254.158765 
L 394.824704 217.990119 
L 395.637967 187.981879 
L 396.45123 177.770288 
L 397.264493 160.179899 
L 398.077756 139.806337 
L 398.891018 138.659518 
L 399.704281 122.961502 
L 400.517544 126.679392 
L 401.330807 284.765291 
L 402.957333 225.196519 
L 404.583859 178.389868 
L 406.210384 151.244882 
L 407.023647 139.448914 
L 407.83691 136.624958 
L 408.650173 122.571969 
L 409.463436 284.116895 
L 410.276699 260.560828 
L 411.089962 227.079266 
L 412.716488 174.481874 
L 413.52975 165.518119 
L 414.343013 153.078604 
L 415.156276 151.243758 
L 416.782802 128.452644 
L 417.596065 283.360054 
L 418.409328 259.326626 
L 419.222591 231.343618 
L 420.035854 217.356453 
L 420.849116 188.3725 
L 421.662379 176.172232 
L 422.475642 155.276973 
L 423.288905 151.055837 
L 424.102168 141.863042 
L 424.915431 134.148669 
L 425.728694 282.025195 
L 426.541957 260.982498 
L 428.168482 210.494675 
L 428.981745 194.421453 
L 429.795008 175.346187 
L 430.608271 167.540194 
L 431.421534 151.822342 
L 432.234797 143.410285 
L 433.04806 142.902358 
L 433.861323 286.457896 
L 434.674586 257.310541 
L 435.487848 244.264342 
L 436.301111 227.49688 
L 437.114374 197.809898 
L 437.927637 183.362733 
L 438.7409 171.590549 
L 439.554163 146.690136 
L 440.367426 159.340547 
L 441.180689 145.01999 
L 441.993952 287.387107 
L 443.620477 256.046857 
L 444.43374 232.184518 
L 445.247003 201.108619 
L 446.060266 193.167581 
L 446.873529 183.086899 
L 447.686792 161.361064 
L 448.500055 162.200273 
L 449.313318 153.813902 
L 450.12658 287.247548 
L 450.939843 267.9566 
L 451.753106 251.333598 
L 452.566369 231.273663 
L 453.379632 207.588327 
L 454.192895 198.206978 
L 455.819421 175.418489 
L 456.632684 166.361139 
L 457.445946 154.97571 
L 458.259209 288.737726 
L 460.698998 236.66967 
L 461.512261 212.446494 
L 462.325524 216.414509 
L 463.138787 197.047969 
L 463.95205 187.962693 
L 464.765312 172.187594 
L 465.578575 160.96893 
L 466.391838 275.790575 
L 467.205101 265.844659 
L 469.64489 230.210654 
L 470.458153 200.12407 
L 471.271416 202.33347 
L 472.084678 177.701805 
L 472.897941 176.459361 
L 473.711204 178.345495 
L 474.524467 279.432564 
L 475.33773 277.283312 
L 476.150993 260.646456 
L 476.964256 248.631952 
L 477.777519 232.430105 
L 478.590782 220.595806 
L 479.404044 200.789988 
L 480.217307 203.664813 
L 481.03057 182.362479 
L 481.843833 181.791238 
L 482.657096 285.353717 
L 485.096885 251.416381 
L 485.910148 234.956963 
L 486.72341 223.734723 
L 487.536673 207.228931 
L 488.349936 203.501246 
L 489.163199 186.825236 
L 489.976462 182.487628 
L 490.789725 283.422298 
L 491.602988 271.995119 
L 492.416251 265.373444 
L 493.229514 253.616599 
L 494.042776 234.886816 
L 494.856039 225.831904 
L 495.669302 218.74664 
L 496.482565 207.232637 
L 497.295828 199.031861 
L 498.109091 202.169819 
L 498.109091 202.169819 
" style="fill:none;stroke:#0000ff;stroke-linecap:square;stroke-width:1.5;"/>
   </g>
   <g id="line2d_14">
    <path clip-path="url(#pcf3b8f2682)" d="M 92.290909 192.909085 
L 93.104172 185.331095 
L 93.917435 180.829626 
L 94.730698 183.066075 
L 95.543961 181.182225 
L 96.357224 177.030471 
L 97.170486 179.253103 
L 97.983749 176.688499 
L 98.797012 176.4016 
L 99.610275 175.379022 
L 100.423538 269.054165 
L 101.236801 155.59686 
L 102.050064 207.131224 
L 102.863327 181.121993 
L 104.489852 172.10241 
L 105.303115 166.064427 
L 106.116378 166.66874 
L 106.929641 164.944537 
L 107.742904 161.357075 
L 108.556167 279.405086 
L 109.36943 146.369301 
L 110.182693 210.092227 
L 110.995956 174.55234 
L 111.809218 180.38932 
L 112.622481 162.392277 
L 113.435744 168.498201 
L 114.249007 159.833753 
L 115.06227 159.424051 
L 115.875533 156.883241 
L 116.688796 288.057925 
L 117.502059 140.534609 
L 118.315322 209.399583 
L 119.128584 170.74475 
L 119.941847 178.791226 
L 120.75511 159.196775 
L 121.568373 166.041015 
L 122.381636 157.204032 
L 123.194899 157.530422 
L 124.008162 154.482518 
L 124.821425 296.64682 
L 125.634688 137.818531 
L 126.44795 199.791263 
L 127.261213 168.42956 
L 128.074476 171.773139 
L 128.887739 158.468861 
L 129.701002 160.301636 
L 131.327528 150.243549 
L 132.140791 148.534554 
L 132.954054 304.762623 
L 133.767316 133.940804 
L 134.580579 188.364456 
L 135.393842 173.270726 
L 136.207105 164.401544 
L 137.020368 163.751245 
L 139.460157 147.387226 
L 140.27342 144.461276 
L 141.086682 312.316459 
L 141.899945 135.467609 
L 142.713208 178.225207 
L 143.526471 177.05189 
L 144.339734 159.393156 
L 145.152997 158.637679 
L 145.96626 148.350781 
L 146.779523 149.846224 
L 147.592786 141.859017 
L 148.406048 141.914029 
L 149.219311 316.026708 
L 150.032574 138.282637 
L 150.845837 167.195234 
L 151.6591 183.687218 
L 152.472363 156.946003 
L 153.285626 157.163904 
L 154.098889 147.697023 
L 154.912152 143.897909 
L 156.538677 133.507971 
L 157.35194 324.186701 
L 158.165203 138.109495 
L 158.978466 158.463063 
L 159.791729 183.879166 
L 160.604992 153.620195 
L 161.418255 150.22348 
L 162.231518 144.385014 
L 163.04478 137.513901 
L 163.858043 137.418383 
L 164.671306 130.984208 
L 165.484569 328.620976 
L 166.297832 140.592105 
L 167.111095 149.834528 
L 167.924358 180.184316 
L 168.737621 153.947588 
L 169.550884 146.401579 
L 170.364146 143.012643 
L 171.177409 135.006238 
L 171.990672 130.793658 
L 172.803935 128.008268 
L 173.617198 332.191159 
L 174.430461 161.493581 
L 175.243724 144.257075 
L 176.056987 154.375264 
L 176.87025 166.209429 
L 177.683512 165.891889 
L 178.496775 153.611725 
L 179.310038 150.736883 
L 180.123301 145.395801 
L 180.936564 142.346876 
L 181.749827 369.118189 
L 182.56309 288.301122 
L 183.376353 166.982539 
L 184.189616 139.537346 
L 185.002878 145.673193 
L 185.816141 157.241457 
L 186.629404 158.22171 
L 187.442667 152.495314 
L 188.25593 148.105578 
L 189.069193 142.552352 
L 189.882456 369.452878 
L 190.695719 303.337963 
L 191.508982 180.973815 
L 192.322244 143.653594 
L 193.135507 143.415483 
L 193.94877 152.239403 
L 194.762033 154.182767 
L 195.575296 154.051323 
L 196.388559 146.742402 
L 197.201822 137.675551 
L 198.015085 368.811364 
L 198.828348 312.789916 
L 199.64161 196.661351 
L 200.454873 145.575684 
L 201.268136 142.548239 
L 202.081399 149.459455 
L 202.894662 151.399544 
L 203.707925 150.705898 
L 204.521188 141.4729 
L 205.334451 140.46159 
L 206.147714 367.231348 
L 206.960976 318.402736 
L 207.774239 216.070136 
L 208.587502 154.237463 
L 209.400765 144.520061 
L 210.214028 146.660525 
L 211.027291 147.915251 
L 211.840554 145.494309 
L 212.653817 146.161067 
L 213.46708 140.75028 
L 214.280343 370.051706 
L 215.093605 325.681409 
L 215.906868 234.532363 
L 216.720131 165.789279 
L 217.533394 147.64667 
L 218.346657 145.00766 
L 219.15992 148.963366 
L 219.973183 145.040489 
L 220.786446 146.949854 
L 221.599709 142.705625 
L 222.412971 371.192547 
L 223.226234 335.19778 
L 224.85276 179.852725 
L 225.666023 152.723708 
L 226.479286 146.4645 
L 227.292549 145.309219 
L 228.105812 146.563311 
L 228.919075 148.553013 
L 229.732337 140.266107 
L 230.5456 371.942058 
L 231.358863 341.508657 
L 232.172126 273.532005 
L 232.985389 195.289126 
L 233.798652 158.26528 
L 234.611915 150.064357 
L 235.425178 146.49928 
L 236.238441 144.998195 
L 237.051703 145.149854 
L 237.864966 138.601162 
L 238.678229 370.06017 
L 239.491492 344.520561 
L 240.304755 288.571915 
L 241.118018 217.929606 
L 241.931281 169.669249 
L 242.744544 151.55028 
L 243.557807 148.861061 
L 244.371069 144.152136 
L 245.184332 145.470398 
L 245.997595 139.617633 
L 246.810858 371.904967 
L 247.624121 351.348421 
L 248.437384 298.926081 
L 250.06391 177.35765 
L 250.877173 161.870467 
L 251.690435 151.666037 
L 252.503698 149.386456 
L 253.316961 146.035995 
L 254.130224 146.109837 
L 254.943487 372.101596 
L 255.75675 351.909845 
L 256.570013 309.447182 
L 258.196539 202.855901 
L 259.009801 170.279362 
L 259.823064 159.786607 
L 260.636327 146.605303 
L 261.44959 145.399713 
L 262.262853 141.496399 
L 263.076116 371.88405 
L 263.889379 354.523214 
L 264.702642 319.797977 
L 266.329167 218.144972 
L 267.14243 180.470912 
L 267.955693 163.363616 
L 269.582219 147.773114 
L 270.395482 150.490689 
L 271.208745 372.415529 
L 272.022008 354.409557 
L 272.835271 326.636578 
L 273.648533 285.925668 
L 274.461796 237.459361 
L 275.275059 198.839779 
L 276.088322 174.067041 
L 276.901585 160.647296 
L 277.714848 151.988216 
L 278.528111 150.30088 
L 279.341374 372.515776 
L 280.154637 358.888863 
L 280.967899 333.212461 
L 281.781162 297.841895 
L 283.407688 214.334834 
L 284.220951 189.574055 
L 285.034214 173.901921 
L 285.847477 161.399647 
L 286.66074 153.770409 
L 287.474003 371.225505 
L 288.287265 358.731285 
L 289.100528 335.14883 
L 289.913791 306.613271 
L 290.727054 272.657328 
L 291.540317 232.77338 
L 292.35358 203.581154 
L 293.166843 182.133551 
L 294.793369 159.522596 
L 295.606631 373.095014 
L 296.419894 362.084374 
L 297.233157 341.82933 
L 298.04642 317.032282 
L 299.672946 249.960461 
L 300.486209 217.504589 
L 301.299472 192.685961 
L 302.112735 175.399109 
L 302.925997 164.978119 
L 303.73926 372.527251 
L 304.552523 362.38399 
L 306.179049 323.809301 
L 306.992312 298.548028 
L 307.805575 267.870857 
L 308.618838 232.612433 
L 309.432101 207.355503 
L 310.245363 186.202318 
L 311.058626 174.768306 
L 311.871889 373.383416 
L 312.685152 363.440558 
L 314.311678 327.602415 
L 315.124941 304.531589 
L 316.751467 249.727298 
L 317.564729 224.703523 
L 319.191255 184.978549 
L 320.004518 373.11505 
L 320.817781 364.256195 
L 322.444307 332.141916 
L 323.25757 315.104547 
L 324.070833 292.722646 
L 326.510621 216.970719 
L 327.323884 201.538498 
L 328.137147 373.609203 
L 328.95041 365.160676 
L 331.390199 322.729988 
L 334.64325 237.44647 
L 335.456513 213.58432 
L 336.269776 372.452302 
L 337.083039 365.634466 
L 338.709565 341.810264 
L 339.522827 328.909908 
L 340.33609 312.600408 
L 341.962616 274.54187 
L 342.775879 250.306489 
L 343.589142 233.459039 
L 344.402405 373.558894 
L 345.215668 368.501647 
L 346.028931 354.903782 
L 346.842193 346.693145 
L 347.655456 334.987249 
L 348.468719 317.071342 
L 349.281982 304.229368 
L 350.908508 273.577843 
L 351.721771 244.30668 
L 352.535034 373.087663 
L 353.348297 367.519022 
L 354.161559 356.782115 
L 355.788085 339.551304 
L 356.601348 326.47562 
L 357.414611 315.759895 
L 359.8544 268.362029 
L 360.667663 373.26154 
L 361.480925 367.151832 
L 362.294188 357.515889 
L 363.920714 343.49398 
L 364.733977 334.139182 
L 365.54724 321.797611 
L 367.987029 279.800467 
L 368.800291 373.537519 
L 369.613554 368.442168 
L 370.426817 360.761833 
L 372.053343 343.028903 
L 372.866606 335.688824 
L 373.679869 326.606338 
L 375.306395 303.729258 
L 376.119657 294.695056 
L 376.93292 372.722846 
L 377.746183 370.200206 
L 378.559446 361.007477 
L 379.372709 354.128647 
L 380.185972 348.862113 
L 380.999235 340.721565 
L 381.812498 330.983018 
L 382.625761 322.840776 
L 383.439024 315.934961 
L 384.252286 304.98423 
L 385.065549 374.022029 
L 385.878812 370.718942 
L 386.692075 362.012541 
L 388.318601 349.86681 
L 389.131864 342.915881 
L 389.945127 337.251232 
L 390.75839 330.075683 
L 391.571652 321.669697 
L 392.384915 311.587898 
L 393.198178 373.15363 
L 394.011441 370.162857 
L 395.637967 356.573695 
L 396.45123 353.745537 
L 397.264493 348.339363 
L 398.077756 344.298541 
L 399.704281 326.311234 
L 400.517544 320.281484 
L 401.330807 373.368259 
L 402.14407 369.410495 
L 402.957333 366.509428 
L 404.583859 353.769841 
L 405.397122 349.222824 
L 407.83691 332.805966 
L 408.650173 328.652168 
L 409.463436 373.877168 
L 410.276699 370.766724 
L 412.716488 355.890112 
L 413.52975 351.93334 
L 414.343013 344.701157 
L 415.156276 343.728167 
L 415.969539 341.383508 
L 416.782802 333.119899 
L 417.596065 373.153499 
L 418.409328 370.45688 
L 419.222591 365.613288 
L 420.035854 361.701038 
L 420.849116 356.266771 
L 421.662379 354.878773 
L 423.288905 347.102741 
L 424.915431 334.361086 
L 425.728694 373.066428 
L 426.541957 370.565408 
L 428.168482 364.280276 
L 428.981745 360.404098 
L 429.795008 355.227108 
L 430.608271 352.361049 
L 431.421534 348.376407 
L 432.234797 347.70362 
L 433.04806 343.364779 
L 433.861323 372.801471 
L 434.674586 370.735239 
L 436.301111 365.286295 
L 437.114374 359.171917 
L 437.927637 358.084237 
L 439.554163 349.390484 
L 440.367426 348.605333 
L 441.180689 343.923089 
L 441.993952 374.179574 
L 442.807214 372.121323 
L 444.43374 365.479143 
L 445.247003 361.350726 
L 446.060266 357.931855 
L 446.873529 355.598705 
L 447.686792 351.85512 
L 448.500055 349.733985 
L 449.313318 348.712054 
L 450.12658 373.654596 
L 450.939843 371.368433 
L 451.753106 369.597116 
L 454.192895 359.334106 
L 455.006158 358.108327 
L 455.819421 353.134429 
L 456.632684 351.917122 
L 457.445946 350.074452 
L 458.259209 373.584656 
L 459.072472 371.832349 
L 459.885735 370.347844 
L 460.698998 367.577112 
L 461.512261 364.262799 
L 462.325524 363.794808 
L 463.138787 360.700797 
L 463.95205 357.017918 
L 464.765312 355.649888 
L 465.578575 352.933786 
L 466.391838 372.947518 
L 467.205101 371.944119 
L 468.831627 367.898973 
L 469.64489 365.358205 
L 470.458153 361.785561 
L 471.271416 360.180115 
L 472.084678 357.399281 
L 472.897941 358.222182 
L 473.711204 356.778929 
L 474.524467 373.002822 
L 475.33773 372.700857 
L 476.150993 370.386388 
L 476.964256 367.710869 
L 477.777519 365.939063 
L 478.590782 364.600974 
L 479.404044 360.459535 
L 480.217307 361.338157 
L 481.03057 358.901934 
L 481.843833 354.827468 
L 482.657096 373.509735 
L 484.283622 371.489923 
L 485.910148 366.958266 
L 488.349936 360.727661 
L 489.163199 357.162332 
L 489.976462 356.534104 
L 490.789725 373.477442 
L 491.602988 372.021025 
L 492.416251 370.897673 
L 493.229514 370.293604 
L 494.042776 366.895502 
L 494.856039 364.927479 
L 495.669302 363.358066 
L 496.482565 362.767393 
L 497.295828 362.614943 
L 498.109091 361.007857 
L 498.109091 361.007857 
" style="fill:none;stroke:#008000;stroke-linecap:square;stroke-width:1.5;"/>
   </g>
   <g id="patch_3">
    <path d="M 72 384.48 
L 72 51.84 
" style="fill:none;stroke:#000000;stroke-linecap:square;stroke-linejoin:miter;stroke-width:0.8;"/>
   </g>
   <g id="patch_4">
    <path d="M 518.4 384.48 
L 518.4 51.84 
" style="fill:none;stroke:#000000;stroke-linecap:square;stroke-linejoin:miter;stroke-width:0.8;"/>
   </g>
   <g id="patch_5">
    <path d="M 72 384.48 
L 518.4 384.48 
" style="fill:none;stroke:#000000;stroke-linecap:square;stroke-linejoin:miter;stroke-width:0.8;"/>
   </g>
   <g id="patch_6">
    <path d="M 72 51.84 
L 518.4 51.84 
" style="fill:none;stroke:#000000;stroke-linecap:square;stroke-linejoin:miter;stroke-width:0.8;"/>
   </g>
   <g id="legend_1">
    <g id="patch_7">
     <path d="M 79 89.19625 
L 156.107812 89.19625 
Q 158.107812 89.19625 158.107812 87.19625 
L 158.107812 58.84 
Q 158.107812 56.84 156.107812 56.84 
L 79 56.84 
Q 77 56.84 77 58.84 
L 77 87.19625 
Q 77 89.19625 79 89.19625 
z
" style="fill:#ffffff;opacity:0.8;stroke:#cccccc;stroke-linejoin:miter;"/>
    </g>
    <g id="line2d_15">
     <path d="M 81 64.938437 
L 101 64.938437 
" style="fill:none;stroke:#0000ff;stroke-linecap:square;stroke-width:1.5;"/>
    </g>
    <g id="line2d_16"/>
    <g id="text_15">
     <!-- precision -->
     <g transform="translate(109 68.438437)scale(0.1 -0.1)">
      <defs>
       <path d="M 9.421875 54.6875 
L 18.40625 54.6875 
L 18.40625 0 
L 9.421875 0 
z
M 9.421875 75.984375 
L 18.40625 75.984375 
L 18.40625 64.59375 
L 9.421875 64.59375 
z
" id="DejaVuSans-105"/>
       <path d="M 44.28125 53.078125 
L 44.28125 44.578125 
Q 40.484375 46.53125 36.375 47.5 
Q 32.28125 48.484375 27.875 48.484375 
Q 21.1875 48.484375 17.84375 46.4375 
Q 14.5 44.390625 14.5 40.28125 
Q 14.5 37.15625 16.890625 35.375 
Q 19.28125 33.59375 26.515625 31.984375 
L 29.59375 31.296875 
Q 39.15625 29.25 43.1875 25.515625 
Q 47.21875 21.78125 47.21875 15.09375 
Q 47.21875 7.46875 41.1875 3.015625 
Q 35.15625 -1.421875 24.609375 -1.421875 
Q 20.21875 -1.421875 15.453125 -0.5625 
Q 10.6875 0.296875 5.421875 2 
L 5.421875 11.28125 
Q 10.40625 8.6875 15.234375 7.390625 
Q 20.0625 6.109375 24.8125 6.109375 
Q 31.15625 6.109375 34.5625 8.28125 
Q 37.984375 10.453125 37.984375 14.40625 
Q 37.984375 18.0625 35.515625 20.015625 
Q 33.0625 21.96875 24.703125 23.78125 
L 21.578125 24.515625 
Q 13.234375 26.265625 9.515625 29.90625 
Q 5.8125 33.546875 5.8125 39.890625 
Q 5.8125 47.609375 11.28125 51.796875 
Q 16.75 56 26.8125 56 
Q 31.78125 56 36.171875 55.265625 
Q 40.578125 54.546875 44.28125 53.078125 
z
" id="DejaVuSans-115"/>
       <path d="M 54.890625 33.015625 
L 54.890625 0 
L 45.90625 0 
L 45.90625 32.71875 
Q 45.90625 40.484375 42.875 44.328125 
Q 39.84375 48.1875 33.796875 48.1875 
Q 26.515625 48.1875 22.3125 43.546875 
Q 18.109375 38.921875 18.109375 30.90625 
L 18.109375 0 
L 9.078125 0 
L 9.078125 54.6875 
L 18.109375 54.6875 
L 18.109375 46.1875 
Q 21.34375 51.125 25.703125 53.5625 
Q 30.078125 56 35.796875 56 
Q 45.21875 56 50.046875 50.171875 
Q 54.890625 44.34375 54.890625 33.015625 
z
" id="DejaVuSans-110"/>
      </defs>
      <use xlink:href="#DejaVuSans-112"/>
      <use x="63.476562" xlink:href="#DejaVuSans-114"/>
      <use x="102.339844" xlink:href="#DejaVuSans-101"/>
      <use x="163.863281" xlink:href="#DejaVuSans-99"/>
      <use x="218.84375" xlink:href="#DejaVuSans-105"/>
      <use x="246.626953" xlink:href="#DejaVuSans-115"/>
      <use x="298.726562" xlink:href="#DejaVuSans-105"/>
      <use x="326.509766" xlink:href="#DejaVuSans-111"/>
      <use x="387.691406" xlink:href="#DejaVuSans-110"/>
     </g>
    </g>
    <g id="line2d_17">
     <path d="M 81 79.616562 
L 101 79.616562 
" style="fill:none;stroke:#008000;stroke-linecap:square;stroke-width:1.5;"/>
    </g>
    <g id="line2d_18"/>
    <g id="text_16">
     <!-- recall -->
     <g transform="translate(109 83.116562)scale(0.1 -0.1)">
      <defs>
       <path d="M 9.421875 75.984375 
L 18.40625 75.984375 
L 18.40625 0 
L 9.421875 0 
z
" id="DejaVuSans-108"/>
      </defs>
      <use xlink:href="#DejaVuSans-114"/>
      <use x="38.863281" xlink:href="#DejaVuSans-101"/>
      <use x="100.386719" xlink:href="#DejaVuSans-99"/>
      <use x="155.367188" xlink:href="#DejaVuSans-97"/>
      <use x="216.646484" xlink:href="#DejaVuSans-108"/>
      <use x="244.429688" xlink:href="#DejaVuSans-108"/>
     </g>
    </g>
   </g>
  </g>
  <g id="axes_2">
   <g id="matplotlib.axis_3">
    <g id="ytick_7">
     <g id="line2d_19">
      <defs>
       <path d="M 0 0 
L 3.5 0 
" id="m19500dadc4" style="stroke:#000000;stroke-width:0.8;"/>
      </defs>
      <g>
       <use style="stroke:#000000;stroke-width:0.8;" x="518.4" xlink:href="#m19500dadc4" y="334.523133"/>
      </g>
     </g>
     <g id="text_17">
      <!-- 0.2 -->
      <g transform="translate(525.4 338.322352)scale(0.1 -0.1)">
       <use xlink:href="#DejaVuSans-48"/>
       <use x="63.623047" xlink:href="#DejaVuSans-46"/>
       <use x="95.410156" xlink:href="#DejaVuSans-50"/>
      </g>
     </g>
    </g>
    <g id="ytick_8">
     <g id="line2d_20">
      <g>
       <use style="stroke:#000000;stroke-width:0.8;" x="518.4" xlink:href="#m19500dadc4" y="273.892958"/>
      </g>
     </g>
     <g id="text_18">
      <!-- 0.3 -->
      <g transform="translate(525.4 277.692177)scale(0.1 -0.1)">
       <use xlink:href="#DejaVuSans-48"/>
       <use x="63.623047" xlink:href="#DejaVuSans-46"/>
       <use x="95.410156" xlink:href="#DejaVuSans-51"/>
      </g>
     </g>
    </g>
    <g id="ytick_9">
     <g id="line2d_21">
      <g>
       <use style="stroke:#000000;stroke-width:0.8;" x="518.4" xlink:href="#m19500dadc4" y="213.262783"/>
      </g>
     </g>
     <g id="text_19">
      <!-- 0.4 -->
      <g transform="translate(525.4 217.062002)scale(0.1 -0.1)">
       <use xlink:href="#DejaVuSans-48"/>
       <use x="63.623047" xlink:href="#DejaVuSans-46"/>
       <use x="95.410156" xlink:href="#DejaVuSans-52"/>
      </g>
     </g>
    </g>
    <g id="ytick_10">
     <g id="line2d_22">
      <g>
       <use style="stroke:#000000;stroke-width:0.8;" x="518.4" xlink:href="#m19500dadc4" y="152.632608"/>
      </g>
     </g>
     <g id="text_20">
      <!-- 0.5 -->
      <g transform="translate(525.4 156.431827)scale(0.1 -0.1)">
       <use xlink:href="#DejaVuSans-48"/>
       <use x="63.623047" xlink:href="#DejaVuSans-46"/>
       <use x="95.410156" xlink:href="#DejaVuSans-53"/>
      </g>
     </g>
    </g>
    <g id="ytick_11">
     <g id="line2d_23">
      <g>
       <use style="stroke:#000000;stroke-width:0.8;" x="518.4" xlink:href="#m19500dadc4" y="92.002433"/>
      </g>
     </g>
     <g id="text_21">
      <!-- 0.6 -->
      <g transform="translate(525.4 95.801652)scale(0.1 -0.1)">
       <use xlink:href="#DejaVuSans-48"/>
       <use x="63.623047" xlink:href="#DejaVuSans-46"/>
       <use x="95.410156" xlink:href="#DejaVuSans-54"/>
      </g>
     </g>
    </g>
    <g id="text_22">
     <!-- loss -->
     <g transform="translate(552.901563 227.817812)rotate(-90)scale(0.1 -0.1)">
      <use xlink:href="#DejaVuSans-108"/>
      <use x="27.783203" xlink:href="#DejaVuSans-111"/>
      <use x="88.964844" xlink:href="#DejaVuSans-115"/>
      <use x="141.064453" xlink:href="#DejaVuSans-115"/>
     </g>
    </g>
   </g>
   <g id="line2d_24">
    <path clip-path="url(#pcf3b8f2682)" d="M 92.290909 191.056441 
L 93.104172 290.900475 
L 93.917435 294.081677 
L 94.730698 297.912088 
L 96.357224 303.699461 
L 97.170486 305.426136 
L 97.983749 306.809432 
L 98.797012 307.684141 
L 99.610275 309.569644 
L 100.423538 241.337107 
L 101.236801 278.470346 
L 102.050064 307.400519 
L 103.67659 320.504585 
L 105.303115 325.114935 
L 106.116378 326.638807 
L 107.742904 328.382896 
L 108.556167 239.730859 
L 109.36943 282.098979 
L 110.182693 310.657998 
L 110.995956 320.742565 
L 111.809218 326.318177 
L 113.435744 331.391669 
L 114.249007 333.473878 
L 115.06227 335.038846 
L 115.875533 336.178608 
L 116.688796 236.588646 
L 117.502059 285.907146 
L 118.315322 313.094241 
L 119.128584 327.118666 
L 120.75511 335.656754 
L 121.568373 337.06394 
L 122.381636 338.820263 
L 123.194899 341.189201 
L 124.008162 342.383364 
L 124.821425 236.245942 
L 125.634688 290.550294 
L 126.44795 317.677281 
L 127.261213 333.11922 
L 128.887739 341.075949 
L 129.701002 342.700235 
L 130.514265 345.824858 
L 131.327528 347.885446 
L 132.140791 349.125333 
L 132.954054 233.32526 
L 133.767316 297.084186 
L 134.580579 322.588599 
L 135.393842 336.607099 
L 136.207105 342.20976 
L 137.020368 345.194738 
L 137.833631 347.408133 
L 138.646894 350.608884 
L 139.460157 351.501203 
L 140.27342 355.627023 
L 141.086682 229.447525 
L 141.899945 299.942269 
L 142.713208 322.378314 
L 143.526471 339.831917 
L 145.152997 349.888186 
L 145.96626 353.002046 
L 147.592786 357.287539 
L 148.406048 358.887092 
L 149.219311 226.496134 
L 150.032574 304.363977 
L 150.845837 324.462918 
L 151.6591 341.775414 
L 153.285626 352.347143 
L 154.098889 356.807447 
L 154.912152 358.772242 
L 155.725414 362.852865 
L 156.538677 364.027976 
L 157.35194 220.805859 
L 158.165203 306.742241 
L 159.791729 342.93303 
L 160.604992 351.060706 
L 161.418255 355.001703 
L 162.231518 360.119031 
L 163.04478 362.776481 
L 163.858043 363.337116 
L 164.671306 366.471318 
L 165.484569 214.694711 
L 166.297832 309.579034 
L 167.924358 344.447493 
L 168.737621 352.709397 
L 170.364146 361.249688 
L 171.990672 367.581778 
L 172.803935 369.36 
L 173.617198 206.020903 
L 174.430461 320.465831 
L 175.243724 328.55007 
L 176.056987 338.458424 
L 176.87025 346.298706 
L 177.683512 349.113223 
L 178.496775 352.548365 
L 179.310038 354.967679 
L 180.123301 359.001058 
L 180.936564 360.425857 
L 181.749827 149.910458 
L 182.56309 277.200352 
L 183.376353 326.253474 
L 184.189616 332.869688 
L 185.002878 341.956188 
L 185.816141 349.305876 
L 186.629404 352.637507 
L 188.25593 359.762691 
L 189.069193 360.950819 
L 189.882456 142.192967 
L 190.695719 267.137862 
L 191.508982 325.486495 
L 193.135507 342.506457 
L 193.94877 348.918924 
L 195.575296 357.186294 
L 196.388559 359.217472 
L 197.201822 362.910683 
L 198.015085 135.445893 
L 198.828348 252.453648 
L 199.64161 321.019594 
L 200.454873 334.445116 
L 201.268136 341.664314 
L 202.081399 350.395889 
L 202.894662 354.958875 
L 203.707925 357.475236 
L 204.521188 361.106137 
L 205.334451 361.163608 
L 206.147714 132.760855 
L 206.960976 243.388513 
L 207.774239 315.832497 
L 208.587502 334.744197 
L 209.400765 340.783874 
L 210.214028 349.935533 
L 211.840554 358.625001 
L 212.653817 361.480417 
L 213.46708 363.872046 
L 214.280343 125.149727 
L 215.093605 229.469302 
L 215.906868 309.670546 
L 216.720131 334.758525 
L 218.346657 348.020004 
L 219.15992 350.91303 
L 219.973183 357.782979 
L 220.786446 359.999473 
L 221.599709 362.834471 
L 222.412971 117.696612 
L 223.226234 219.466455 
L 224.039497 299.068895 
L 224.85276 330.561807 
L 225.666023 339.769689 
L 226.479286 346.672341 
L 227.292549 351.62819 
L 228.105812 355.827213 
L 228.919075 358.352513 
L 229.732337 363.477764 
L 230.5456 116.867167 
L 232.172126 289.624717 
L 232.985389 327.978129 
L 233.798652 339.485017 
L 234.611915 346.925283 
L 235.425178 350.495693 
L 236.238441 356.3419 
L 237.051703 358.804073 
L 237.864966 362.669159 
L 238.678229 110.482213 
L 240.304755 276.621801 
L 241.118018 321.421325 
L 241.931281 339.822753 
L 242.744544 345.649474 
L 243.557807 349.797088 
L 244.371069 355.802854 
L 245.997595 362.773307 
L 246.810858 105.588896 
L 248.437384 266.819235 
L 249.250647 315.712599 
L 250.06391 337.926146 
L 250.877173 342.05159 
L 252.503698 353.184003 
L 253.316961 356.555273 
L 254.130224 358.993683 
L 254.943487 101.618811 
L 256.570013 252.524503 
L 257.383276 305.729601 
L 258.196539 329.367407 
L 259.009801 341.341913 
L 260.636327 353.035963 
L 261.44959 356.070771 
L 262.262853 357.741463 
L 263.076116 99.165368 
L 264.702642 242.659917 
L 265.515905 297.343689 
L 266.329167 323.361461 
L 267.14243 341.04652 
L 267.955693 346.579974 
L 268.768956 349.646509 
L 269.582219 355.167485 
L 270.395482 355.911188 
L 271.208745 96.464651 
L 272.835271 232.724181 
L 273.648533 283.805226 
L 274.461796 319.172898 
L 275.275059 334.925939 
L 276.088322 342.715038 
L 276.901585 349.084251 
L 277.714848 353.48231 
L 278.528111 355.798668 
L 279.341374 92.909204 
L 281.781162 274.776018 
L 282.594425 308.879658 
L 283.407688 328.919128 
L 284.220951 338.409777 
L 285.847477 349.978667 
L 286.66074 353.854114 
L 287.474003 94.444573 
L 289.100528 212.725178 
L 289.913791 261.406821 
L 290.727054 300.571859 
L 291.540317 321.046935 
L 292.35358 334.459683 
L 293.166843 343.797525 
L 293.980106 346.821226 
L 294.793369 351.772271 
L 295.606631 88.394509 
L 298.04642 254.862278 
L 298.859683 289.19095 
L 299.672946 314.080893 
L 300.486209 331.218544 
L 302.112735 347.925107 
L 302.925997 350.461558 
L 303.73926 88.179739 
L 306.179049 240.228262 
L 306.992312 278.476028 
L 307.805575 303.870267 
L 308.618838 323.003967 
L 309.432101 336.159437 
L 310.245363 344.044976 
L 311.058626 347.138536 
L 311.871889 89.144851 
L 314.311678 232.548097 
L 315.124941 269.665253 
L 315.938204 295.783424 
L 316.751467 316.947309 
L 317.564729 328.559822 
L 318.377992 336.718655 
L 319.191255 343.749317 
L 320.004518 86.120059 
L 322.444307 222.660417 
L 323.25757 257.660825 
L 324.070833 285.531429 
L 325.697358 323.099874 
L 326.510621 332.265294 
L 327.323884 338.231149 
L 328.137147 85.604979 
L 330.576936 215.774126 
L 331.390199 248.71075 
L 333.016724 297.815151 
L 333.829987 312.310534 
L 334.64325 323.807797 
L 335.456513 333.453024 
L 336.269776 82.620384 
L 337.896302 168.565505 
L 338.709565 206.566273 
L 340.33609 267.22794 
L 341.149353 287.574644 
L 341.962616 304.751703 
L 342.775879 318.068741 
L 343.589142 328.06968 
L 344.402405 81.778761 
L 346.842193 196.839449 
L 348.468719 255.553361 
L 349.281982 278.10512 
L 350.095245 296.09578 
L 351.721771 320.147108 
L 352.535034 81.948438 
L 354.974822 190.007244 
L 356.601348 244.563846 
L 357.414611 263.820351 
L 358.227874 285.739523 
L 359.8544 311.127729 
L 360.667663 80.999584 
L 362.294188 150.63147 
L 363.920714 211.231991 
L 365.54724 254.77109 
L 366.360503 274.130453 
L 367.173766 287.441436 
L 367.987029 303.246133 
L 368.800291 79.337912 
L 370.426817 146.256017 
L 371.24008 175.894376 
L 372.866606 225.153549 
L 374.493132 262.781463 
L 375.306395 279.140852 
L 376.119657 292.778925 
L 376.93292 79.047337 
L 378.559446 140.894267 
L 380.185972 193.94378 
L 381.812498 235.915466 
L 383.439024 267.605017 
L 384.252286 279.293743 
L 385.065549 75.391949 
L 386.692075 137.224629 
L 387.505338 163.136914 
L 389.131864 206.480854 
L 392.384915 270.734916 
L 393.198178 75.770777 
L 394.824704 132.066819 
L 395.637967 155.427131 
L 396.45123 174.100596 
L 397.264493 197.009471 
L 400.517544 259.568724 
L 401.330807 72.864133 
L 402.14407 102.174425 
L 403.770596 151.11026 
L 404.583859 171.04347 
L 405.397122 187.350202 
L 407.023647 222.41673 
L 407.83691 233.243537 
L 408.650173 251.855819 
L 409.463436 74.833885 
L 410.276699 96.200303 
L 411.903225 146.426805 
L 412.716488 162.240611 
L 413.52975 180.945862 
L 414.343013 194.559428 
L 415.156276 213.556104 
L 415.969539 223.109946 
L 416.782802 237.940925 
L 417.596065 73.242762 
L 418.409328 97.970155 
L 420.035854 138.303462 
L 420.849116 155.781206 
L 421.662379 170.638563 
L 423.288905 202.418305 
L 424.915431 226.601633 
L 425.728694 71.879174 
L 426.541957 92.572029 
L 427.35522 116.172428 
L 430.608271 180.592242 
L 431.421534 193.981998 
L 432.234797 204.589087 
L 433.04806 217.344119 
L 433.861323 69.521092 
L 435.487848 110.547475 
L 437.114374 144.019368 
L 439.554163 185.173651 
L 440.367426 195.338395 
L 441.180689 207.357693 
L 441.993952 69.064625 
L 444.43374 123.159354 
L 446.873529 163.674391 
L 448.500055 188.728815 
L 449.313318 196.244967 
L 450.12658 68.553703 
L 452.566369 117.770963 
L 454.192895 144.627571 
L 456.632684 177.809609 
L 457.445946 187.070677 
L 458.259209 68.871902 
L 459.885735 98.783772 
L 460.698998 115.514149 
L 463.138787 150.481186 
L 463.95205 160.753644 
L 464.765312 167.815111 
L 465.578575 179.139297 
L 466.391838 68.709034 
L 468.831627 111.819868 
L 469.64489 120.789152 
L 471.271416 144.531347 
L 472.897941 163.476631 
L 473.711204 171.474066 
L 474.524467 68.409359 
L 475.33773 82.830909 
L 476.150993 91.935043 
L 476.964256 108.634005 
L 477.777519 116.981216 
L 479.404044 136.558331 
L 480.217307 144.261896 
L 481.03057 156.320776 
L 481.843833 161.523752 
L 482.657096 66.96 
L 483.470359 78.703788 
L 484.283622 92.63101 
L 485.910148 113.562426 
L 486.72341 120.755641 
L 487.536673 131.204777 
L 488.349936 138.548209 
L 489.976462 157.789918 
L 490.789725 67.298646 
L 491.602988 79.110883 
L 492.416251 88.907028 
L 493.229514 100.612693 
L 494.042776 109.192563 
L 494.856039 119.971871 
L 496.482565 134.388404 
L 498.109091 149.675862 
L 498.109091 149.675862 
" style="fill:none;stroke:#ff0000;stroke-linecap:square;stroke-width:1.5;"/>
   </g>
   <g id="patch_8">
    <path d="M 72 384.48 
L 72 51.84 
" style="fill:none;stroke:#000000;stroke-linecap:square;stroke-linejoin:miter;stroke-width:0.8;"/>
   </g>
   <g id="patch_9">
    <path d="M 518.4 384.48 
L 518.4 51.84 
" style="fill:none;stroke:#000000;stroke-linecap:square;stroke-linejoin:miter;stroke-width:0.8;"/>
   </g>
   <g id="patch_10">
    <path d="M 72 384.48 
L 518.4 384.48 
" style="fill:none;stroke:#000000;stroke-linecap:square;stroke-linejoin:miter;stroke-width:0.8;"/>
   </g>
   <g id="patch_11">
    <path d="M 72 51.84 
L 518.4 51.84 
" style="fill:none;stroke:#000000;stroke-linecap:square;stroke-linejoin:miter;stroke-width:0.8;"/>
   </g>
   <g id="text_23">
    <!-- The learning curve on _non_iid/host/3 -->
    <g transform="translate(178.868437 45.84)scale(0.12 -0.12)">
     <defs>
      <path d="M -0.296875 72.90625 
L 61.375 72.90625 
L 61.375 64.59375 
L 35.5 64.59375 
L 35.5 0 
L 25.59375 0 
L 25.59375 64.59375 
L -0.296875 64.59375 
z
" id="DejaVuSans-84"/>
      <path id="DejaVuSans-32"/>
      <path d="M 45.40625 27.984375 
Q 45.40625 37.75 41.375 43.109375 
Q 37.359375 48.484375 30.078125 48.484375 
Q 22.859375 48.484375 18.828125 43.109375 
Q 14.796875 37.75 14.796875 27.984375 
Q 14.796875 18.265625 18.828125 12.890625 
Q 22.859375 7.515625 30.078125 7.515625 
Q 37.359375 7.515625 41.375 12.890625 
Q 45.40625 18.265625 45.40625 27.984375 
z
M 54.390625 6.78125 
Q 54.390625 -7.171875 48.1875 -13.984375 
Q 42 -20.796875 29.203125 -20.796875 
Q 24.46875 -20.796875 20.265625 -20.09375 
Q 16.0625 -19.390625 12.109375 -17.921875 
L 12.109375 -9.1875 
Q 16.0625 -11.328125 19.921875 -12.34375 
Q 23.78125 -13.375 27.78125 -13.375 
Q 36.625 -13.375 41.015625 -8.765625 
Q 45.40625 -4.15625 45.40625 5.171875 
L 45.40625 9.625 
Q 42.625 4.78125 38.28125 2.390625 
Q 33.9375 0 27.875 0 
Q 17.828125 0 11.671875 7.65625 
Q 5.515625 15.328125 5.515625 27.984375 
Q 5.515625 40.671875 11.671875 48.328125 
Q 17.828125 56 27.875 56 
Q 33.9375 56 38.28125 53.609375 
Q 42.625 51.21875 45.40625 46.390625 
L 45.40625 54.6875 
L 54.390625 54.6875 
z
" id="DejaVuSans-103"/>
      <path d="M 8.5 21.578125 
L 8.5 54.6875 
L 17.484375 54.6875 
L 17.484375 21.921875 
Q 17.484375 14.15625 20.5 10.265625 
Q 23.53125 6.390625 29.59375 6.390625 
Q 36.859375 6.390625 41.078125 11.03125 
Q 45.3125 15.671875 45.3125 23.6875 
L 45.3125 54.6875 
L 54.296875 54.6875 
L 54.296875 0 
L 45.3125 0 
L 45.3125 8.40625 
Q 42.046875 3.421875 37.71875 1 
Q 33.40625 -1.421875 27.6875 -1.421875 
Q 18.265625 -1.421875 13.375 4.4375 
Q 8.5 10.296875 8.5 21.578125 
z
M 31.109375 56 
z
" id="DejaVuSans-117"/>
      <path d="M 2.984375 54.6875 
L 12.5 54.6875 
L 29.59375 8.796875 
L 46.6875 54.6875 
L 56.203125 54.6875 
L 35.6875 0 
L 23.484375 0 
z
" id="DejaVuSans-118"/>
      <path d="M 30.953125 67.4375 
L 56.203125 0 
L 46.6875 0 
L 31.34375 40.4375 
L 12.5 0 
L 2.984375 0 
L 26.953125 52.4375 
L 23.34375 62.109375 
Q 21.046875 68.265625 15.828125 68.265625 
L 11.140625 68.265625 
L 11.140625 75.984375 
L 16.84375 75.875 
Q 27.875 75.734375 30.953125 67.4375 
z
" id="DejaVuSans-955"/>
      <path d="M 50.984375 -16.609375 
L 50.984375 -23.578125 
L -0.984375 -23.578125 
L -0.984375 -16.609375 
z
" id="DejaVuSans-95"/>
      <path d="M 45.40625 46.390625 
L 45.40625 75.984375 
L 54.390625 75.984375 
L 54.390625 0 
L 45.40625 0 
L 45.40625 8.203125 
Q 42.578125 3.328125 38.25 0.953125 
Q 33.9375 -1.421875 27.875 -1.421875 
Q 17.96875 -1.421875 11.734375 6.484375 
Q 5.515625 14.40625 5.515625 27.296875 
Q 5.515625 40.1875 11.734375 48.09375 
Q 17.96875 56 27.875 56 
Q 33.9375 56 38.25 53.625 
Q 42.578125 51.265625 45.40625 46.390625 
z
M 14.796875 27.296875 
Q 14.796875 17.390625 18.875 11.75 
Q 22.953125 6.109375 30.078125 6.109375 
Q 37.203125 6.109375 41.296875 11.75 
Q 45.40625 17.390625 45.40625 27.296875 
Q 45.40625 37.203125 41.296875 42.84375 
Q 37.203125 48.484375 30.078125 48.484375 
Q 22.953125 48.484375 18.875 42.84375 
Q 14.796875 37.203125 14.796875 27.296875 
z
" id="DejaVuSans-100"/>
      <path d="M 25.390625 72.90625 
L 33.6875 72.90625 
L 8.296875 -9.28125 
L 0 -9.28125 
z
" id="DejaVuSans-47"/>
     </defs>
     <use xlink:href="#DejaVuSans-84"/>
     <use x="61.083984" xlink:href="#DejaVuSans-104"/>
     <use x="124.462891" xlink:href="#DejaVuSans-101"/>
     <use x="185.986328" xlink:href="#DejaVuSans-32"/>
     <use x="217.773438" xlink:href="#DejaVuSans-108"/>
     <use x="245.556641" xlink:href="#DejaVuSans-101"/>
     <use x="307.080078" xlink:href="#DejaVuSans-97"/>
     <use x="368.359375" xlink:href="#DejaVuSans-114"/>
     <use x="407.722656" xlink:href="#DejaVuSans-110"/>
     <use x="471.101562" xlink:href="#DejaVuSans-105"/>
     <use x="498.884766" xlink:href="#DejaVuSans-110"/>
     <use x="562.263672" xlink:href="#DejaVuSans-103"/>
     <use x="625.740234" xlink:href="#DejaVuSans-32"/>
     <use x="657.527344" xlink:href="#DejaVuSans-99"/>
     <use x="712.507812" xlink:href="#DejaVuSans-117"/>
     <use x="775.886719" xlink:href="#DejaVuSans-114"/>
     <use x="817" xlink:href="#DejaVuSans-118"/>
     <use x="876.179688" xlink:href="#DejaVuSans-101"/>
     <use x="937.703125" xlink:href="#DejaVuSans-32"/>
     <use x="969.490234" xlink:href="#DejaVuSans-111"/>
     <use x="1030.671875" xlink:href="#DejaVuSans-110"/>
     <use x="1094.050781" xlink:href="#DejaVuSans-32"/>
     <use x="1125.837891" xlink:href="#DejaVuSans-955"/>
     <use x="1185.017578" xlink:href="#DejaVuSans-95"/>
     <use x="1235.017578" xlink:href="#DejaVuSans-110"/>
     <use x="1298.396484" xlink:href="#DejaVuSans-111"/>
     <use x="1359.578125" xlink:href="#DejaVuSans-110"/>
     <use x="1422.957031" xlink:href="#DejaVuSans-95"/>
     <use x="1472.957031" xlink:href="#DejaVuSans-105"/>
     <use x="1500.740234" xlink:href="#DejaVuSans-105"/>
     <use x="1528.523438" xlink:href="#DejaVuSans-100"/>
     <use x="1592" xlink:href="#DejaVuSans-47"/>
     <use x="1625.691406" xlink:href="#DejaVuSans-104"/>
     <use x="1689.070312" xlink:href="#DejaVuSans-111"/>
     <use x="1750.251953" xlink:href="#DejaVuSans-115"/>
     <use x="1802.351562" xlink:href="#DejaVuSans-116"/>
     <use x="1841.560547" xlink:href="#DejaVuSans-47"/>
     <use x="1875.251953" xlink:href="#DejaVuSans-51"/>
    </g>
   </g>
   <g id="legend_2">
    <g id="patch_12">
     <path d="M 460.084375 74.518125 
L 511.4 74.518125 
Q 513.4 74.518125 513.4 72.518125 
L 513.4 58.84 
Q 513.4 56.84 511.4 56.84 
L 460.084375 56.84 
Q 458.084375 56.84 458.084375 58.84 
L 458.084375 72.518125 
Q 458.084375 74.518125 460.084375 74.518125 
z
" style="fill:#ffffff;opacity:0.8;stroke:#cccccc;stroke-linejoin:miter;"/>
    </g>
    <g id="line2d_25">
     <path d="M 462.084375 64.938438 
L 482.084375 64.938438 
" style="fill:none;stroke:#ff0000;stroke-linecap:square;stroke-width:1.5;"/>
    </g>
    <g id="line2d_26"/>
    <g id="text_24">
     <!-- loss -->
     <g transform="translate(490.084375 68.438438)scale(0.1 -0.1)">
      <use xlink:href="#DejaVuSans-108"/>
      <use x="27.783203" xlink:href="#DejaVuSans-111"/>
      <use x="88.964844" xlink:href="#DejaVuSans-115"/>
      <use x="141.064453" xlink:href="#DejaVuSans-115"/>
     </g>
    </g>
   </g>
  </g>
 </g>
 <defs>
  <clipPath id="pcf3b8f2682">
   <rect height="332.64" width="446.4" x="72" y="51.84"/>
  </clipPath>
 </defs>
</svg>
