<?xml version="1.0" encoding="utf-8" standalone="no"?>
<!DOCTYPE svg PUBLIC "-//W3C//DTD SVG 1.1//EN"
  "http://www.w3.org/Graphics/SVG/1.1/DTD/svg11.dtd">
<!-- Created with matplotlib (https://matplotlib.org/) -->
<svg height="432pt" version="1.1" viewBox="0 0 576 432" width="576pt" xmlns="http://www.w3.org/2000/svg" xmlns:xlink="http://www.w3.org/1999/xlink">
 <metadata>
  <rdf:RDF xmlns:cc="http://creativecommons.org/ns#" xmlns:dc="http://purl.org/dc/elements/1.1/" xmlns:rdf="http://www.w3.org/1999/02/22-rdf-syntax-ns#">
   <cc:Work>
    <dc:type rdf:resource="http://purl.org/dc/dcmitype/StillImage"/>
    <dc:date>2023-04-17T00:04:47.505393</dc:date>
    <dc:format>image/svg+xml</dc:format>
    <dc:creator>
     <cc:Agent>
      <dc:title>Matplotlib v3.3.4, https://matplotlib.org/</dc:title>
     </cc:Agent>
    </dc:creator>
   </cc:Work>
  </rdf:RDF>
 </metadata>
 <defs>
  <style type="text/css">*{stroke-linecap:butt;stroke-linejoin:round;}</style>
 </defs>
 <g id="figure_1">
  <g id="patch_1">
   <path d="M 0 432 
L 576 432 
L 576 0 
L 0 0 
z
" style="fill:#ffffff;"/>
  </g>
  <g id="axes_1">
   <g id="patch_2">
    <path d="M 72 384.48 
L 518.4 384.48 
L 518.4 51.84 
L 72 51.84 
z
" style="fill:#ffffff;"/>
   </g>
   <g id="matplotlib.axis_1">
    <g id="xtick_1">
     <g id="line2d_1">
      <defs>
       <path d="M 0 0 
L 0 3.5 
" id="m83884b7d93" style="stroke:#000000;stroke-width:0.8;"/>
      </defs>
      <g>
       <use style="stroke:#000000;stroke-width:0.8;" x="92.290909" xlink:href="#m83884b7d93" y="384.48"/>
      </g>
     </g>
     <g id="text_1">
      <!-- 0 -->
      <g transform="translate(89.109659 399.078438)scale(0.1 -0.1)">
       <defs>
        <path d="M 31.78125 66.40625 
Q 24.171875 66.40625 20.328125 58.90625 
Q 16.5 51.421875 16.5 36.375 
Q 16.5 21.390625 20.328125 13.890625 
Q 24.171875 6.390625 31.78125 6.390625 
Q 39.453125 6.390625 43.28125 13.890625 
Q 47.125 21.390625 47.125 36.375 
Q 47.125 51.421875 43.28125 58.90625 
Q 39.453125 66.40625 31.78125 66.40625 
z
M 31.78125 74.21875 
Q 44.046875 74.21875 50.515625 64.515625 
Q 56.984375 54.828125 56.984375 36.375 
Q 56.984375 17.96875 50.515625 8.265625 
Q 44.046875 -1.421875 31.78125 -1.421875 
Q 19.53125 -1.421875 13.0625 8.265625 
Q 6.59375 17.96875 6.59375 36.375 
Q 6.59375 54.828125 13.0625 64.515625 
Q 19.53125 74.21875 31.78125 74.21875 
z
" id="DejaVuSans-48"/>
       </defs>
       <use xlink:href="#DejaVuSans-48"/>
      </g>
     </g>
    </g>
    <g id="xtick_2">
     <g id="line2d_2">
      <g>
       <use style="stroke:#000000;stroke-width:0.8;" x="173.617198" xlink:href="#m83884b7d93" y="384.48"/>
      </g>
     </g>
     <g id="text_2">
      <!-- 100 -->
      <g transform="translate(164.073448 399.078438)scale(0.1 -0.1)">
       <defs>
        <path d="M 12.40625 8.296875 
L 28.515625 8.296875 
L 28.515625 63.921875 
L 10.984375 60.40625 
L 10.984375 69.390625 
L 28.421875 72.90625 
L 38.28125 72.90625 
L 38.28125 8.296875 
L 54.390625 8.296875 
L 54.390625 0 
L 12.40625 0 
z
" id="DejaVuSans-49"/>
       </defs>
       <use xlink:href="#DejaVuSans-49"/>
       <use x="63.623047" xlink:href="#DejaVuSans-48"/>
       <use x="127.246094" xlink:href="#DejaVuSans-48"/>
      </g>
     </g>
    </g>
    <g id="xtick_3">
     <g id="line2d_3">
      <g>
       <use style="stroke:#000000;stroke-width:0.8;" x="254.943487" xlink:href="#m83884b7d93" y="384.48"/>
      </g>
     </g>
     <g id="text_3">
      <!-- 200 -->
      <g transform="translate(245.399737 399.078438)scale(0.1 -0.1)">
       <defs>
        <path d="M 19.1875 8.296875 
L 53.609375 8.296875 
L 53.609375 0 
L 7.328125 0 
L 7.328125 8.296875 
Q 12.9375 14.109375 22.625 23.890625 
Q 32.328125 33.6875 34.8125 36.53125 
Q 39.546875 41.84375 41.421875 45.53125 
Q 43.3125 49.21875 43.3125 52.78125 
Q 43.3125 58.59375 39.234375 62.25 
Q 35.15625 65.921875 28.609375 65.921875 
Q 23.96875 65.921875 18.8125 64.3125 
Q 13.671875 62.703125 7.8125 59.421875 
L 7.8125 69.390625 
Q 13.765625 71.78125 18.9375 73 
Q 24.125 74.21875 28.421875 74.21875 
Q 39.75 74.21875 46.484375 68.546875 
Q 53.21875 62.890625 53.21875 53.421875 
Q 53.21875 48.921875 51.53125 44.890625 
Q 49.859375 40.875 45.40625 35.40625 
Q 44.1875 33.984375 37.640625 27.21875 
Q 31.109375 20.453125 19.1875 8.296875 
z
" id="DejaVuSans-50"/>
       </defs>
       <use xlink:href="#DejaVuSans-50"/>
       <use x="63.623047" xlink:href="#DejaVuSans-48"/>
       <use x="127.246094" xlink:href="#DejaVuSans-48"/>
      </g>
     </g>
    </g>
    <g id="xtick_4">
     <g id="line2d_4">
      <g>
       <use style="stroke:#000000;stroke-width:0.8;" x="336.269776" xlink:href="#m83884b7d93" y="384.48"/>
      </g>
     </g>
     <g id="text_4">
      <!-- 300 -->
      <g transform="translate(326.726026 399.078438)scale(0.1 -0.1)">
       <defs>
        <path d="M 40.578125 39.3125 
Q 47.65625 37.796875 51.625 33 
Q 55.609375 28.21875 55.609375 21.1875 
Q 55.609375 10.40625 48.1875 4.484375 
Q 40.765625 -1.421875 27.09375 -1.421875 
Q 22.515625 -1.421875 17.65625 -0.515625 
Q 12.796875 0.390625 7.625 2.203125 
L 7.625 11.71875 
Q 11.71875 9.328125 16.59375 8.109375 
Q 21.484375 6.890625 26.8125 6.890625 
Q 36.078125 6.890625 40.9375 10.546875 
Q 45.796875 14.203125 45.796875 21.1875 
Q 45.796875 27.640625 41.28125 31.265625 
Q 36.765625 34.90625 28.71875 34.90625 
L 20.21875 34.90625 
L 20.21875 43.015625 
L 29.109375 43.015625 
Q 36.375 43.015625 40.234375 45.921875 
Q 44.09375 48.828125 44.09375 54.296875 
Q 44.09375 59.90625 40.109375 62.90625 
Q 36.140625 65.921875 28.71875 65.921875 
Q 24.65625 65.921875 20.015625 65.03125 
Q 15.375 64.15625 9.8125 62.3125 
L 9.8125 71.09375 
Q 15.4375 72.65625 20.34375 73.4375 
Q 25.25 74.21875 29.59375 74.21875 
Q 40.828125 74.21875 47.359375 69.109375 
Q 53.90625 64.015625 53.90625 55.328125 
Q 53.90625 49.265625 50.4375 45.09375 
Q 46.96875 40.921875 40.578125 39.3125 
z
" id="DejaVuSans-51"/>
       </defs>
       <use xlink:href="#DejaVuSans-51"/>
       <use x="63.623047" xlink:href="#DejaVuSans-48"/>
       <use x="127.246094" xlink:href="#DejaVuSans-48"/>
      </g>
     </g>
    </g>
    <g id="xtick_5">
     <g id="line2d_5">
      <g>
       <use style="stroke:#000000;stroke-width:0.8;" x="417.596065" xlink:href="#m83884b7d93" y="384.48"/>
      </g>
     </g>
     <g id="text_5">
      <!-- 400 -->
      <g transform="translate(408.052315 399.078438)scale(0.1 -0.1)">
       <defs>
        <path d="M 37.796875 64.3125 
L 12.890625 25.390625 
L 37.796875 25.390625 
z
M 35.203125 72.90625 
L 47.609375 72.90625 
L 47.609375 25.390625 
L 58.015625 25.390625 
L 58.015625 17.1875 
L 47.609375 17.1875 
L 47.609375 0 
L 37.796875 0 
L 37.796875 17.1875 
L 4.890625 17.1875 
L 4.890625 26.703125 
z
" id="DejaVuSans-52"/>
       </defs>
       <use xlink:href="#DejaVuSans-52"/>
       <use x="63.623047" xlink:href="#DejaVuSans-48"/>
       <use x="127.246094" xlink:href="#DejaVuSans-48"/>
      </g>
     </g>
    </g>
    <g id="xtick_6">
     <g id="line2d_6">
      <g>
       <use style="stroke:#000000;stroke-width:0.8;" x="498.922354" xlink:href="#m83884b7d93" y="384.48"/>
      </g>
     </g>
     <g id="text_6">
      <!-- 500 -->
      <g transform="translate(489.378604 399.078438)scale(0.1 -0.1)">
       <defs>
        <path d="M 10.796875 72.90625 
L 49.515625 72.90625 
L 49.515625 64.59375 
L 19.828125 64.59375 
L 19.828125 46.734375 
Q 21.96875 47.46875 24.109375 47.828125 
Q 26.265625 48.1875 28.421875 48.1875 
Q 40.625 48.1875 47.75 41.5 
Q 54.890625 34.8125 54.890625 23.390625 
Q 54.890625 11.625 47.5625 5.09375 
Q 40.234375 -1.421875 26.90625 -1.421875 
Q 22.3125 -1.421875 17.546875 -0.640625 
Q 12.796875 0.140625 7.71875 1.703125 
L 7.71875 11.625 
Q 12.109375 9.234375 16.796875 8.0625 
Q 21.484375 6.890625 26.703125 6.890625 
Q 35.15625 6.890625 40.078125 11.328125 
Q 45.015625 15.765625 45.015625 23.390625 
Q 45.015625 31 40.078125 35.4375 
Q 35.15625 39.890625 26.703125 39.890625 
Q 22.75 39.890625 18.8125 39.015625 
Q 14.890625 38.140625 10.796875 36.28125 
z
" id="DejaVuSans-53"/>
       </defs>
       <use xlink:href="#DejaVuSans-53"/>
       <use x="63.623047" xlink:href="#DejaVuSans-48"/>
       <use x="127.246094" xlink:href="#DejaVuSans-48"/>
      </g>
     </g>
    </g>
    <g id="text_7">
     <!-- epoch -->
     <g transform="translate(279.971875 412.756563)scale(0.1 -0.1)">
      <defs>
       <path d="M 56.203125 29.59375 
L 56.203125 25.203125 
L 14.890625 25.203125 
Q 15.484375 15.921875 20.484375 11.0625 
Q 25.484375 6.203125 34.421875 6.203125 
Q 39.59375 6.203125 44.453125 7.46875 
Q 49.3125 8.734375 54.109375 11.28125 
L 54.109375 2.78125 
Q 49.265625 0.734375 44.1875 -0.34375 
Q 39.109375 -1.421875 33.890625 -1.421875 
Q 20.796875 -1.421875 13.15625 6.1875 
Q 5.515625 13.8125 5.515625 26.8125 
Q 5.515625 40.234375 12.765625 48.109375 
Q 20.015625 56 32.328125 56 
Q 43.359375 56 49.78125 48.890625 
Q 56.203125 41.796875 56.203125 29.59375 
z
M 47.21875 32.234375 
Q 47.125 39.59375 43.09375 43.984375 
Q 39.0625 48.390625 32.421875 48.390625 
Q 24.90625 48.390625 20.390625 44.140625 
Q 15.875 39.890625 15.1875 32.171875 
z
" id="DejaVuSans-101"/>
       <path d="M 18.109375 8.203125 
L 18.109375 -20.796875 
L 9.078125 -20.796875 
L 9.078125 54.6875 
L 18.109375 54.6875 
L 18.109375 46.390625 
Q 20.953125 51.265625 25.265625 53.625 
Q 29.59375 56 35.59375 56 
Q 45.5625 56 51.78125 48.09375 
Q 58.015625 40.1875 58.015625 27.296875 
Q 58.015625 14.40625 51.78125 6.484375 
Q 45.5625 -1.421875 35.59375 -1.421875 
Q 29.59375 -1.421875 25.265625 0.953125 
Q 20.953125 3.328125 18.109375 8.203125 
z
M 48.6875 27.296875 
Q 48.6875 37.203125 44.609375 42.84375 
Q 40.53125 48.484375 33.40625 48.484375 
Q 26.265625 48.484375 22.1875 42.84375 
Q 18.109375 37.203125 18.109375 27.296875 
Q 18.109375 17.390625 22.1875 11.75 
Q 26.265625 6.109375 33.40625 6.109375 
Q 40.53125 6.109375 44.609375 11.75 
Q 48.6875 17.390625 48.6875 27.296875 
z
" id="DejaVuSans-112"/>
       <path d="M 30.609375 48.390625 
Q 23.390625 48.390625 19.1875 42.75 
Q 14.984375 37.109375 14.984375 27.296875 
Q 14.984375 17.484375 19.15625 11.84375 
Q 23.34375 6.203125 30.609375 6.203125 
Q 37.796875 6.203125 41.984375 11.859375 
Q 46.1875 17.53125 46.1875 27.296875 
Q 46.1875 37.015625 41.984375 42.703125 
Q 37.796875 48.390625 30.609375 48.390625 
z
M 30.609375 56 
Q 42.328125 56 49.015625 48.375 
Q 55.71875 40.765625 55.71875 27.296875 
Q 55.71875 13.875 49.015625 6.21875 
Q 42.328125 -1.421875 30.609375 -1.421875 
Q 18.84375 -1.421875 12.171875 6.21875 
Q 5.515625 13.875 5.515625 27.296875 
Q 5.515625 40.765625 12.171875 48.375 
Q 18.84375 56 30.609375 56 
z
" id="DejaVuSans-111"/>
       <path d="M 48.78125 52.59375 
L 48.78125 44.1875 
Q 44.96875 46.296875 41.140625 47.34375 
Q 37.3125 48.390625 33.40625 48.390625 
Q 24.65625 48.390625 19.8125 42.84375 
Q 14.984375 37.3125 14.984375 27.296875 
Q 14.984375 17.28125 19.8125 11.734375 
Q 24.65625 6.203125 33.40625 6.203125 
Q 37.3125 6.203125 41.140625 7.25 
Q 44.96875 8.296875 48.78125 10.40625 
L 48.78125 2.09375 
Q 45.015625 0.34375 40.984375 -0.53125 
Q 36.96875 -1.421875 32.421875 -1.421875 
Q 20.0625 -1.421875 12.78125 6.34375 
Q 5.515625 14.109375 5.515625 27.296875 
Q 5.515625 40.671875 12.859375 48.328125 
Q 20.21875 56 33.015625 56 
Q 37.15625 56 41.109375 55.140625 
Q 45.0625 54.296875 48.78125 52.59375 
z
" id="DejaVuSans-99"/>
       <path d="M 54.890625 33.015625 
L 54.890625 0 
L 45.90625 0 
L 45.90625 32.71875 
Q 45.90625 40.484375 42.875 44.328125 
Q 39.84375 48.1875 33.796875 48.1875 
Q 26.515625 48.1875 22.3125 43.546875 
Q 18.109375 38.921875 18.109375 30.90625 
L 18.109375 0 
L 9.078125 0 
L 9.078125 75.984375 
L 18.109375 75.984375 
L 18.109375 46.1875 
Q 21.34375 51.125 25.703125 53.5625 
Q 30.078125 56 35.796875 56 
Q 45.21875 56 50.046875 50.171875 
Q 54.890625 44.34375 54.890625 33.015625 
z
" id="DejaVuSans-104"/>
      </defs>
      <use xlink:href="#DejaVuSans-101"/>
      <use x="61.523438" xlink:href="#DejaVuSans-112"/>
      <use x="125" xlink:href="#DejaVuSans-111"/>
      <use x="186.181641" xlink:href="#DejaVuSans-99"/>
      <use x="241.162109" xlink:href="#DejaVuSans-104"/>
     </g>
    </g>
   </g>
   <g id="matplotlib.axis_2">
    <g id="ytick_1">
     <g id="line2d_7">
      <defs>
       <path d="M 0 0 
L -3.5 0 
" id="mf80908d93b" style="stroke:#000000;stroke-width:0.8;"/>
      </defs>
      <g>
       <use style="stroke:#000000;stroke-width:0.8;" x="72" xlink:href="#mf80908d93b" y="384.48"/>
      </g>
     </g>
     <g id="text_8">
      <!-- 0.0 -->
      <g transform="translate(49.096875 388.279219)scale(0.1 -0.1)">
       <defs>
        <path d="M 10.6875 12.40625 
L 21 12.40625 
L 21 0 
L 10.6875 0 
z
" id="DejaVuSans-46"/>
       </defs>
       <use xlink:href="#DejaVuSans-48"/>
       <use x="63.623047" xlink:href="#DejaVuSans-46"/>
       <use x="95.410156" xlink:href="#DejaVuSans-48"/>
      </g>
     </g>
    </g>
    <g id="ytick_2">
     <g id="line2d_8">
      <g>
       <use style="stroke:#000000;stroke-width:0.8;" x="72" xlink:href="#mf80908d93b" y="317.952"/>
      </g>
     </g>
     <g id="text_9">
      <!-- 0.2 -->
      <g transform="translate(49.096875 321.751219)scale(0.1 -0.1)">
       <use xlink:href="#DejaVuSans-48"/>
       <use x="63.623047" xlink:href="#DejaVuSans-46"/>
       <use x="95.410156" xlink:href="#DejaVuSans-50"/>
      </g>
     </g>
    </g>
    <g id="ytick_3">
     <g id="line2d_9">
      <g>
       <use style="stroke:#000000;stroke-width:0.8;" x="72" xlink:href="#mf80908d93b" y="251.424"/>
      </g>
     </g>
     <g id="text_10">
      <!-- 0.4 -->
      <g transform="translate(49.096875 255.223219)scale(0.1 -0.1)">
       <use xlink:href="#DejaVuSans-48"/>
       <use x="63.623047" xlink:href="#DejaVuSans-46"/>
       <use x="95.410156" xlink:href="#DejaVuSans-52"/>
      </g>
     </g>
    </g>
    <g id="ytick_4">
     <g id="line2d_10">
      <g>
       <use style="stroke:#000000;stroke-width:0.8;" x="72" xlink:href="#mf80908d93b" y="184.896"/>
      </g>
     </g>
     <g id="text_11">
      <!-- 0.6 -->
      <g transform="translate(49.096875 188.695219)scale(0.1 -0.1)">
       <defs>
        <path d="M 33.015625 40.375 
Q 26.375 40.375 22.484375 35.828125 
Q 18.609375 31.296875 18.609375 23.390625 
Q 18.609375 15.53125 22.484375 10.953125 
Q 26.375 6.390625 33.015625 6.390625 
Q 39.65625 6.390625 43.53125 10.953125 
Q 47.40625 15.53125 47.40625 23.390625 
Q 47.40625 31.296875 43.53125 35.828125 
Q 39.65625 40.375 33.015625 40.375 
z
M 52.59375 71.296875 
L 52.59375 62.3125 
Q 48.875 64.0625 45.09375 64.984375 
Q 41.3125 65.921875 37.59375 65.921875 
Q 27.828125 65.921875 22.671875 59.328125 
Q 17.53125 52.734375 16.796875 39.40625 
Q 19.671875 43.65625 24.015625 45.921875 
Q 28.375 48.1875 33.59375 48.1875 
Q 44.578125 48.1875 50.953125 41.515625 
Q 57.328125 34.859375 57.328125 23.390625 
Q 57.328125 12.15625 50.6875 5.359375 
Q 44.046875 -1.421875 33.015625 -1.421875 
Q 20.359375 -1.421875 13.671875 8.265625 
Q 6.984375 17.96875 6.984375 36.375 
Q 6.984375 53.65625 15.1875 63.9375 
Q 23.390625 74.21875 37.203125 74.21875 
Q 40.921875 74.21875 44.703125 73.484375 
Q 48.484375 72.75 52.59375 71.296875 
z
" id="DejaVuSans-54"/>
       </defs>
       <use xlink:href="#DejaVuSans-48"/>
       <use x="63.623047" xlink:href="#DejaVuSans-46"/>
       <use x="95.410156" xlink:href="#DejaVuSans-54"/>
      </g>
     </g>
    </g>
    <g id="ytick_5">
     <g id="line2d_11">
      <g>
       <use style="stroke:#000000;stroke-width:0.8;" x="72" xlink:href="#mf80908d93b" y="118.368"/>
      </g>
     </g>
     <g id="text_12">
      <!-- 0.8 -->
      <g transform="translate(49.096875 122.167219)scale(0.1 -0.1)">
       <defs>
        <path d="M 31.78125 34.625 
Q 24.75 34.625 20.71875 30.859375 
Q 16.703125 27.09375 16.703125 20.515625 
Q 16.703125 13.921875 20.71875 10.15625 
Q 24.75 6.390625 31.78125 6.390625 
Q 38.8125 6.390625 42.859375 10.171875 
Q 46.921875 13.96875 46.921875 20.515625 
Q 46.921875 27.09375 42.890625 30.859375 
Q 38.875 34.625 31.78125 34.625 
z
M 21.921875 38.8125 
Q 15.578125 40.375 12.03125 44.71875 
Q 8.5 49.078125 8.5 55.328125 
Q 8.5 64.0625 14.71875 69.140625 
Q 20.953125 74.21875 31.78125 74.21875 
Q 42.671875 74.21875 48.875 69.140625 
Q 55.078125 64.0625 55.078125 55.328125 
Q 55.078125 49.078125 51.53125 44.71875 
Q 48 40.375 41.703125 38.8125 
Q 48.828125 37.15625 52.796875 32.3125 
Q 56.78125 27.484375 56.78125 20.515625 
Q 56.78125 9.90625 50.3125 4.234375 
Q 43.84375 -1.421875 31.78125 -1.421875 
Q 19.734375 -1.421875 13.25 4.234375 
Q 6.78125 9.90625 6.78125 20.515625 
Q 6.78125 27.484375 10.78125 32.3125 
Q 14.796875 37.15625 21.921875 38.8125 
z
M 18.3125 54.390625 
Q 18.3125 48.734375 21.84375 45.5625 
Q 25.390625 42.390625 31.78125 42.390625 
Q 38.140625 42.390625 41.71875 45.5625 
Q 45.3125 48.734375 45.3125 54.390625 
Q 45.3125 60.0625 41.71875 63.234375 
Q 38.140625 66.40625 31.78125 66.40625 
Q 25.390625 66.40625 21.84375 63.234375 
Q 18.3125 60.0625 18.3125 54.390625 
z
" id="DejaVuSans-56"/>
       </defs>
       <use xlink:href="#DejaVuSans-48"/>
       <use x="63.623047" xlink:href="#DejaVuSans-46"/>
       <use x="95.410156" xlink:href="#DejaVuSans-56"/>
      </g>
     </g>
    </g>
    <g id="ytick_6">
     <g id="line2d_12">
      <g>
       <use style="stroke:#000000;stroke-width:0.8;" x="72" xlink:href="#mf80908d93b" y="51.84"/>
      </g>
     </g>
     <g id="text_13">
      <!-- 1.0 -->
      <g transform="translate(49.096875 55.639219)scale(0.1 -0.1)">
       <use xlink:href="#DejaVuSans-49"/>
       <use x="63.623047" xlink:href="#DejaVuSans-46"/>
       <use x="95.410156" xlink:href="#DejaVuSans-48"/>
      </g>
     </g>
    </g>
    <g id="text_14">
     <!-- rate -->
     <g transform="translate(43.017187 228.31625)rotate(-90)scale(0.1 -0.1)">
      <defs>
       <path d="M 41.109375 46.296875 
Q 39.59375 47.171875 37.8125 47.578125 
Q 36.03125 48 33.890625 48 
Q 26.265625 48 22.1875 43.046875 
Q 18.109375 38.09375 18.109375 28.8125 
L 18.109375 0 
L 9.078125 0 
L 9.078125 54.6875 
L 18.109375 54.6875 
L 18.109375 46.1875 
Q 20.953125 51.171875 25.484375 53.578125 
Q 30.03125 56 36.53125 56 
Q 37.453125 56 38.578125 55.875 
Q 39.703125 55.765625 41.0625 55.515625 
z
" id="DejaVuSans-114"/>
       <path d="M 34.28125 27.484375 
Q 23.390625 27.484375 19.1875 25 
Q 14.984375 22.515625 14.984375 16.5 
Q 14.984375 11.71875 18.140625 8.90625 
Q 21.296875 6.109375 26.703125 6.109375 
Q 34.1875 6.109375 38.703125 11.40625 
Q 43.21875 16.703125 43.21875 25.484375 
L 43.21875 27.484375 
z
M 52.203125 31.203125 
L 52.203125 0 
L 43.21875 0 
L 43.21875 8.296875 
Q 40.140625 3.328125 35.546875 0.953125 
Q 30.953125 -1.421875 24.3125 -1.421875 
Q 15.921875 -1.421875 10.953125 3.296875 
Q 6 8.015625 6 15.921875 
Q 6 25.140625 12.171875 29.828125 
Q 18.359375 34.515625 30.609375 34.515625 
L 43.21875 34.515625 
L 43.21875 35.40625 
Q 43.21875 41.609375 39.140625 45 
Q 35.0625 48.390625 27.6875 48.390625 
Q 23 48.390625 18.546875 47.265625 
Q 14.109375 46.140625 10.015625 43.890625 
L 10.015625 52.203125 
Q 14.9375 54.109375 19.578125 55.046875 
Q 24.21875 56 28.609375 56 
Q 40.484375 56 46.34375 49.84375 
Q 52.203125 43.703125 52.203125 31.203125 
z
" id="DejaVuSans-97"/>
       <path d="M 18.3125 70.21875 
L 18.3125 54.6875 
L 36.8125 54.6875 
L 36.8125 47.703125 
L 18.3125 47.703125 
L 18.3125 18.015625 
Q 18.3125 11.328125 20.140625 9.421875 
Q 21.96875 7.515625 27.59375 7.515625 
L 36.8125 7.515625 
L 36.8125 0 
L 27.59375 0 
Q 17.1875 0 13.234375 3.875 
Q 9.28125 7.765625 9.28125 18.015625 
L 9.28125 47.703125 
L 2.6875 47.703125 
L 2.6875 54.6875 
L 9.28125 54.6875 
L 9.28125 70.21875 
z
" id="DejaVuSans-116"/>
      </defs>
      <use xlink:href="#DejaVuSans-114"/>
      <use x="41.113281" xlink:href="#DejaVuSans-97"/>
      <use x="102.392578" xlink:href="#DejaVuSans-116"/>
      <use x="141.601562" xlink:href="#DejaVuSans-101"/>
     </g>
    </g>
   </g>
   <g id="line2d_13">
    <path clip-path="url(#pa6f287668f)" d="M 92.290909 195.267637 
L 93.104172 158.971234 
L 93.917435 154.056528 
L 94.730698 151.519196 
L 95.543961 147.261789 
L 96.357224 149.286829 
L 97.983749 141.761902 
L 98.797012 144.51314 
L 99.610275 138.819975 
L 100.423538 187.757084 
L 101.236801 143.787898 
L 102.050064 137.3707 
L 102.863327 134.24192 
L 103.67659 131.731666 
L 104.489852 129.966778 
L 105.303115 126.017474 
L 106.116378 126.9825 
L 106.929641 122.87395 
L 107.742904 120.500247 
L 108.556167 177.987745 
L 109.36943 141.068945 
L 110.182693 136.546019 
L 111.809218 125.719117 
L 112.622481 122.015582 
L 113.435744 122.658914 
L 115.875533 116.254381 
L 116.688796 180.545269 
L 117.502059 143.691135 
L 118.315322 137.729896 
L 119.128584 129.121263 
L 119.941847 123.30627 
L 120.75511 123.073748 
L 122.381636 116.222067 
L 123.194899 114.222983 
L 124.008162 113.706558 
L 124.821425 176.276706 
L 125.634688 146.287858 
L 126.44795 137.965673 
L 127.261213 123.854205 
L 128.074476 121.930592 
L 128.887739 120.769012 
L 129.701002 116.818481 
L 130.514265 114.038848 
L 131.327528 112.580396 
L 132.140791 109.607847 
L 132.954054 174.715463 
L 133.767316 146.402045 
L 135.393842 128.806665 
L 136.207105 123.128164 
L 139.460157 107.391769 
L 140.27342 106.585903 
L 141.086682 168.095937 
L 141.899945 154.861581 
L 142.713208 136.395838 
L 143.526471 128.26865 
L 145.152997 116.042894 
L 145.96626 115.631131 
L 146.779523 108.339511 
L 147.592786 105.913618 
L 148.406048 105.52242 
L 149.219311 169.11653 
L 150.032574 157.893281 
L 150.845837 133.974303 
L 151.6591 125.826451 
L 152.472363 124.3872 
L 153.285626 115.314263 
L 154.098889 111.431961 
L 155.725414 106.350408 
L 156.538677 102.5417 
L 157.35194 167.023271 
L 158.165203 158.330409 
L 158.978466 129.865442 
L 159.791729 129.741301 
L 161.418255 115.410728 
L 162.231518 109.950654 
L 163.04478 108.220143 
L 163.858043 102.268779 
L 164.671306 100.901831 
L 165.484569 174.137541 
L 166.297832 160.07935 
L 167.111095 129.278466 
L 167.924358 131.271179 
L 168.737621 118.04147 
L 170.364146 108.695672 
L 171.177409 105.803514 
L 171.990672 102.379253 
L 172.803935 97.808028 
L 173.617198 171.140043 
L 174.430461 162.7686 
L 175.243724 138.482942 
L 176.056987 127.596066 
L 176.87025 126.187933 
L 178.496775 118.178517 
L 179.310038 118.59802 
L 180.123301 114.47217 
L 180.936564 113.087154 
L 181.749827 188.716254 
L 182.56309 137.474476 
L 183.376353 147.431167 
L 184.189616 135.197641 
L 185.002878 131.239661 
L 185.816141 125.124972 
L 186.629404 122.790981 
L 188.25593 112.606725 
L 189.069193 111.648321 
L 189.882456 186.447265 
L 190.695719 133.428904 
L 191.508982 145.466937 
L 193.135507 129.371482 
L 193.94877 124.35917 
L 194.762033 122.006936 
L 195.575296 118.821219 
L 196.388559 114.030657 
L 197.201822 113.497604 
L 198.015085 205.508122 
L 198.828348 130.173859 
L 199.64161 143.814515 
L 200.454873 139.316914 
L 201.268136 131.418822 
L 202.081399 128.080626 
L 202.894662 119.938193 
L 203.707925 118.689009 
L 204.521188 114.582613 
L 205.334451 114.461984 
L 206.147714 204.487316 
L 206.960976 131.210144 
L 207.774239 139.655006 
L 208.587502 140.22976 
L 209.400765 130.700165 
L 210.214028 126.01699 
L 211.027291 123.447289 
L 211.840554 117.626439 
L 212.653817 115.137947 
L 213.46708 110.887081 
L 214.280343 202.828214 
L 215.093605 129.061171 
L 215.906868 137.359326 
L 216.720131 135.739904 
L 218.346657 126.448936 
L 219.15992 118.499563 
L 219.973183 118.738161 
L 220.786446 115.400892 
L 221.599709 114.256764 
L 222.412971 215.721441 
L 223.226234 126.305782 
L 224.039497 135.546769 
L 224.85276 135.443937 
L 225.666023 130.483575 
L 226.479286 126.238852 
L 227.292549 120.657732 
L 228.919075 118.429851 
L 229.732337 113.703217 
L 230.5456 217.624246 
L 231.358863 129.478815 
L 232.172126 130.369015 
L 232.985389 136.27705 
L 233.798652 131.25381 
L 234.611915 125.449401 
L 235.425178 126.213959 
L 236.238441 118.338983 
L 237.051703 116.648982 
L 237.864966 116.548884 
L 238.678229 213.227936 
L 239.491492 135.531391 
L 240.304755 127.384251 
L 241.118018 132.313561 
L 241.931281 128.655347 
L 242.744544 127.67073 
L 243.557807 123.564629 
L 244.371069 123.010882 
L 245.184332 120.582426 
L 245.997595 115.587025 
L 246.810858 226.392439 
L 247.624121 129.580551 
L 248.437384 126.020879 
L 249.250647 129.653139 
L 250.06391 131.705596 
L 250.877173 126.202837 
L 251.690435 124.025111 
L 252.503698 122.617882 
L 254.130224 115.403272 
L 254.943487 225.522118 
L 255.75675 134.423245 
L 256.570013 120.790365 
L 257.383276 126.592987 
L 258.196539 127.025866 
L 259.009801 126.057218 
L 260.636327 119.753983 
L 261.44959 118.829411 
L 262.262853 116.407078 
L 263.076116 223.06007 
L 263.889379 138.084928 
L 264.702642 124.522159 
L 266.329167 128.656199 
L 267.955693 122.468692 
L 268.768956 122.621786 
L 269.582219 119.384251 
L 270.395482 118.166546 
L 271.208745 230.450999 
L 272.022008 140.340197 
L 272.835271 125.69585 
L 273.648533 120.436638 
L 274.461796 123.885387 
L 275.275059 126.41142 
L 276.088322 123.224402 
L 276.901585 122.01727 
L 277.714848 119.680249 
L 278.528111 117.701009 
L 279.341374 234.048851 
L 280.154637 149.625507 
L 280.967899 125.394865 
L 281.781162 121.295701 
L 282.594425 123.6823 
L 283.407688 123.546097 
L 284.220951 123.707765 
L 285.034214 121.124682 
L 285.847477 120.949908 
L 286.66074 115.444318 
L 287.474003 231.999552 
L 288.287265 146.610908 
L 289.100528 118.417336 
L 289.913791 123.108583 
L 290.727054 122.664879 
L 291.540317 124.411565 
L 292.35358 121.444871 
L 293.166843 123.977909 
L 293.980106 119.357072 
L 294.793369 122.210401 
L 295.606631 236.350114 
L 296.419894 152.056385 
L 297.233157 129.835571 
L 298.04642 118.50333 
L 298.859683 117.03761 
L 299.672946 122.071321 
L 300.486209 118.841347 
L 301.299472 120.372212 
L 302.112735 117.899073 
L 302.925997 118.526162 
L 303.73926 239.221562 
L 304.552523 156.813508 
L 305.365786 128.555383 
L 306.179049 120.500004 
L 306.992312 121.108482 
L 308.618838 120.748233 
L 309.432101 121.06969 
L 310.245363 118.985642 
L 311.058626 117.66147 
L 311.871889 243.699509 
L 312.685152 160.297553 
L 313.498415 133.460638 
L 314.311678 118.400348 
L 315.124941 116.849009 
L 315.938204 117.321312 
L 316.751467 120.155183 
L 317.564729 120.470336 
L 318.377992 119.208761 
L 319.191255 120.259012 
L 320.004518 240.698732 
L 320.817781 165.811327 
L 321.631044 131.360164 
L 322.444307 123.177119 
L 323.25757 119.167614 
L 324.070833 118.479574 
L 324.884095 119.031015 
L 326.510621 114.436487 
L 327.323884 118.871021 
L 328.137147 251.074648 
L 328.95041 169.590671 
L 329.763673 136.015134 
L 330.576936 122.234319 
L 331.390199 119.778238 
L 332.203461 117.769979 
L 333.016724 118.403971 
L 333.829987 116.694344 
L 334.64325 117.263979 
L 335.456513 119.145432 
L 336.269776 249.81072 
L 337.083039 174.627151 
L 337.896302 135.252296 
L 338.709565 124.497534 
L 339.522827 120.558797 
L 340.33609 115.532386 
L 341.149353 116.947171 
L 341.962616 115.648528 
L 342.775879 118.557463 
L 343.589142 114.260359 
L 344.402405 256.737742 
L 345.215668 176.048889 
L 346.028931 144.072495 
L 346.842193 129.206492 
L 347.655456 120.448776 
L 348.468719 117.163246 
L 349.281982 114.551541 
L 350.095245 117.242199 
L 350.908508 114.258457 
L 351.721771 110.460363 
L 352.535034 247.598624 
L 353.348297 179.274772 
L 354.161559 143.794575 
L 354.974822 128.244816 
L 355.788085 121.186769 
L 356.601348 118.663081 
L 357.414611 113.287083 
L 358.227874 115.52229 
L 359.041137 111.809032 
L 359.8544 115.134098 
L 360.667663 256.941237 
L 361.480925 190.027835 
L 362.294188 146.659523 
L 363.107451 133.55257 
L 363.920714 122.29232 
L 364.733977 116.832754 
L 365.54724 114.344089 
L 366.360503 114.833917 
L 367.173766 111.097739 
L 367.987029 114.016653 
L 368.800291 251.977203 
L 369.613554 192.8625 
L 370.426817 151.481954 
L 371.24008 133.889429 
L 372.053343 128.48488 
L 372.866606 118.761992 
L 373.679869 117.914416 
L 374.493132 111.600339 
L 375.306395 118.335155 
L 376.119657 116.252285 
L 376.93292 254.159193 
L 377.746183 195.939815 
L 378.559446 157.321047 
L 379.372709 136.096972 
L 380.185972 131.735162 
L 380.999235 125.041957 
L 381.812498 119.58184 
L 382.625761 119.010137 
L 383.439024 118.664425 
L 384.252286 113.069727 
L 385.065549 251.522011 
L 385.878812 200.690653 
L 386.692075 158.753007 
L 388.318601 130.619488 
L 389.131864 125.107567 
L 389.945127 116.059687 
L 390.75839 117.927922 
L 391.571652 116.936512 
L 392.384915 117.617448 
L 393.198178 256.539837 
L 394.011441 202.547998 
L 394.824704 171.003054 
L 395.637967 149.27662 
L 396.45123 143.940617 
L 397.264493 130.160092 
L 398.077756 123.478745 
L 398.891018 120.190764 
L 399.704281 120.101713 
L 400.517544 120.159759 
L 401.330807 255.546173 
L 402.957333 168.648257 
L 403.770596 155.676278 
L 404.583859 139.927408 
L 405.397122 126.890508 
L 406.210384 128.069171 
L 407.83691 115.746309 
L 408.650173 115.30383 
L 409.463436 258.579948 
L 410.276699 209.459711 
L 411.903225 157.353334 
L 412.716488 142.929955 
L 413.52975 133.498631 
L 414.343013 131.042517 
L 415.156276 123.988094 
L 415.969539 124.177201 
L 416.782802 121.459949 
L 417.596065 263.306076 
L 418.409328 214.414727 
L 419.222591 183.399408 
L 420.035854 158.164414 
L 420.849116 144.308981 
L 421.662379 136.379272 
L 422.475642 132.29561 
L 423.288905 124.502088 
L 424.102168 121.152857 
L 424.915431 120.794215 
L 425.728694 258.084474 
L 426.541957 212.951617 
L 427.35522 183.889362 
L 428.981745 151.322106 
L 430.608271 130.567998 
L 431.421534 124.326502 
L 432.234797 124.491052 
L 433.04806 121.061057 
L 433.861323 259.859764 
L 434.674586 223.082957 
L 435.487848 193.029746 
L 436.301111 168.534173 
L 437.114374 155.109528 
L 437.927637 149.217589 
L 438.7409 137.124332 
L 439.554163 133.511778 
L 440.367426 124.153863 
L 441.180689 122.399882 
L 441.993952 259.072987 
L 443.620477 191.039305 
L 444.43374 180.63619 
L 445.247003 161.170736 
L 446.060266 151.880687 
L 446.873529 139.773469 
L 447.686792 141.420746 
L 448.500055 135.88468 
L 449.313318 127.264981 
L 450.12658 261.639684 
L 450.939843 225.602069 
L 451.753106 197.104601 
L 453.379632 160.025875 
L 454.192895 151.06086 
L 455.006158 148.20702 
L 455.819421 137.915655 
L 456.632684 129.866816 
L 457.445946 129.300806 
L 458.259209 261.302677 
L 459.072472 234.74294 
L 459.885735 200.093582 
L 462.325524 155.687042 
L 463.138787 147.042381 
L 463.95205 144.692175 
L 464.765312 139.010845 
L 465.578575 131.5642 
L 466.391838 262.134085 
L 467.205101 229.118653 
L 468.831627 188.410824 
L 470.458153 162.016476 
L 471.271416 152.418367 
L 472.084678 147.796907 
L 472.897941 143.978615 
L 473.711204 141.156624 
L 474.524467 265.236811 
L 475.33773 241.67989 
L 476.150993 208.398702 
L 476.964256 190.968315 
L 477.777519 180.535622 
L 478.590782 166.710636 
L 479.404044 160.213859 
L 480.217307 147.073219 
L 481.03057 148.202121 
L 481.843833 141.749709 
L 482.657096 266.368306 
L 483.470359 240.610063 
L 484.283622 220.630038 
L 485.096885 188.406532 
L 485.910148 180.561656 
L 486.72341 171.179105 
L 487.536673 159.844583 
L 488.349936 158.798995 
L 489.163199 150.811222 
L 489.976462 150.137764 
L 490.789725 266.353997 
L 491.602988 236.309158 
L 494.856039 174.833991 
L 495.669302 169.740442 
L 496.482565 160.392599 
L 497.295828 154.533093 
L 498.109091 149.572418 
L 498.109091 149.572418 
" style="fill:none;stroke:#0000ff;stroke-linecap:square;stroke-width:1.5;"/>
   </g>
   <g id="line2d_14">
    <path clip-path="url(#pa6f287668f)" d="M 92.290909 231.772271 
L 93.104172 223.232113 
L 93.917435 221.294975 
L 94.730698 219.749845 
L 95.543961 218.937301 
L 96.357224 217.304774 
L 97.170486 213.577106 
L 97.983749 210.957001 
L 98.797012 211.544004 
L 99.610275 208.381311 
L 100.423538 233.891578 
L 101.236801 221.75559 
L 102.050064 202.016124 
L 102.863327 198.677558 
L 103.67659 196.740389 
L 105.303115 191.623229 
L 106.116378 192.286961 
L 107.742904 183.426253 
L 108.556167 237.222149 
L 110.182693 191.262324 
L 110.995956 191.024588 
L 111.809218 189.882268 
L 112.622481 185.82315 
L 113.435744 183.424965 
L 114.249007 181.60797 
L 115.06227 180.537904 
L 115.875533 176.525841 
L 116.688796 241.186113 
L 117.502059 207.206656 
L 118.315322 186.713785 
L 119.128584 190.133193 
L 120.75511 183.167851 
L 121.568373 177.269347 
L 122.381636 176.243883 
L 123.194899 174.900068 
L 124.008162 171.267036 
L 124.821425 245.686753 
L 125.634688 197.902304 
L 126.44795 185.97372 
L 127.261213 189.208532 
L 128.074476 179.985001 
L 128.887739 177.683533 
L 129.701002 172.953271 
L 130.514265 173.322213 
L 131.327528 169.965808 
L 132.140791 166.060483 
L 132.954054 252.610849 
L 133.767316 191.391626 
L 134.580579 188.495128 
L 135.393842 188.691962 
L 136.207105 176.105418 
L 137.020368 173.722328 
L 139.460157 163.296173 
L 140.27342 160.888498 
L 141.086682 255.67344 
L 141.899945 185.775948 
L 142.713208 190.574161 
L 143.526471 183.336272 
L 144.339734 174.223435 
L 145.152997 170.875575 
L 145.96626 168.968436 
L 146.779523 162.01628 
L 147.592786 158.300593 
L 148.406048 155.484058 
L 149.219311 261.925059 
L 150.032574 177.506147 
L 150.845837 194.407115 
L 151.6591 179.669263 
L 152.472363 174.916495 
L 153.285626 165.989102 
L 154.098889 163.088028 
L 154.912152 159.672679 
L 155.725414 155.478986 
L 156.538677 150.557475 
L 157.35194 263.162491 
L 158.165203 171.939909 
L 158.978466 190.730595 
L 159.791729 174.232622 
L 160.604992 172.273741 
L 161.418255 164.874867 
L 162.231518 160.077164 
L 163.858043 149.246817 
L 164.671306 146.62158 
L 165.484569 269.011835 
L 166.297832 167.483347 
L 167.111095 194.805964 
L 167.924358 171.97613 
L 168.737621 166.775385 
L 169.550884 158.301376 
L 170.364146 156.530791 
L 171.177409 148.698343 
L 171.990672 146.936749 
L 172.803935 143.200187 
L 173.617198 273.577408 
L 174.430461 159.299008 
L 175.243724 180.251399 
L 176.056987 185.728407 
L 176.87025 174.240976 
L 177.683512 166.66632 
L 178.496775 167.218265 
L 179.310038 166.712527 
L 180.123301 160.611857 
L 180.936564 158.470825 
L 181.749827 338.909391 
L 182.56309 202.269752 
L 183.376353 167.740832 
L 184.189616 176.027731 
L 185.002878 177.70283 
L 185.816141 168.889739 
L 186.629404 164.960074 
L 187.442667 162.371801 
L 188.25593 156.734599 
L 189.069193 155.805239 
L 189.882456 339.165237 
L 190.695719 212.621564 
L 191.508982 170.882003 
L 192.322244 173.164633 
L 193.135507 173.984048 
L 194.762033 163.870118 
L 195.575296 161.032471 
L 196.388559 155.303907 
L 197.201822 156.286501 
L 198.015085 345.045735 
L 198.828348 223.8042 
L 199.64161 174.354795 
L 200.454873 171.436863 
L 201.268136 172.944365 
L 202.081399 168.884073 
L 202.894662 160.95169 
L 204.521188 155.023696 
L 205.334451 154.088233 
L 206.147714 346.842092 
L 206.960976 233.912487 
L 207.774239 177.324884 
L 208.587502 173.94205 
L 209.400765 171.713618 
L 210.214028 170.471096 
L 211.027291 161.368217 
L 211.840554 159.210586 
L 212.653817 153.806494 
L 213.46708 151.345279 
L 214.280343 349.667033 
L 215.093605 245.837991 
L 215.906868 183.788292 
L 216.720131 170.74765 
L 217.533394 170.762739 
L 218.346657 165.195451 
L 219.15992 162.538091 
L 219.973183 156.196232 
L 220.786446 156.40938 
L 221.599709 151.472276 
L 222.412971 353.333361 
L 223.226234 253.2993 
L 224.039497 193.53281 
L 224.85276 175.802584 
L 225.666023 172.592025 
L 226.479286 168.033163 
L 227.292549 162.039192 
L 229.732337 152.248631 
L 230.5456 355.463855 
L 231.358863 264.602615 
L 232.172126 197.296241 
L 232.985389 176.847798 
L 234.611915 165.950829 
L 235.425178 166.794759 
L 236.238441 161.767366 
L 237.051703 155.979907 
L 237.864966 155.842092 
L 238.678229 353.629745 
L 239.491492 272.771763 
L 240.304755 207.731381 
L 241.118018 181.745322 
L 241.931281 171.207686 
L 242.744544 170.190303 
L 243.557807 168.471085 
L 244.371069 161.566524 
L 245.184332 160.227504 
L 245.997595 155.645278 
L 246.810858 358.403118 
L 247.624121 280.190802 
L 248.437384 215.889643 
L 249.250647 185.345026 
L 250.06391 175.06326 
L 250.877173 170.904212 
L 251.690435 169.309679 
L 252.503698 164.444938 
L 253.316961 160.646704 
L 254.130224 154.446371 
L 254.943487 357.689313 
L 256.570013 225.895784 
L 257.383276 193.915128 
L 258.196539 177.997422 
L 259.009801 172.574935 
L 259.823064 166.329731 
L 260.636327 164.614913 
L 261.44959 159.97934 
L 262.262853 157.227649 
L 263.076116 359.212345 
L 264.702642 234.741725 
L 265.515905 201.116478 
L 266.329167 186.756208 
L 267.14243 176.051567 
L 267.955693 167.651725 
L 268.768956 167.550899 
L 269.582219 160.354649 
L 270.395482 154.71229 
L 271.208745 358.995479 
L 272.835271 247.202887 
L 273.648533 208.220794 
L 274.461796 190.406842 
L 275.275059 179.859173 
L 276.088322 171.930811 
L 276.901585 166.556228 
L 277.714848 162.687155 
L 278.528111 163.777299 
L 279.341374 361.451899 
L 280.154637 313.249721 
L 280.967899 256.70409 
L 281.781162 218.282738 
L 282.594425 195.276372 
L 283.407688 182.915766 
L 284.220951 175.720495 
L 285.034214 170.88627 
L 285.847477 168.177758 
L 286.66074 159.955467 
L 287.474003 361.902089 
L 288.287265 318.979422 
L 289.100528 265.576557 
L 289.913791 228.641894 
L 290.727054 206.488364 
L 291.540317 188.120066 
L 292.35358 180.394244 
L 293.980106 169.099817 
L 294.793369 168.220103 
L 295.606631 362.64736 
L 296.419894 322.983186 
L 297.233157 273.909926 
L 298.04642 239.428831 
L 298.859683 214.498108 
L 299.672946 196.761411 
L 300.486209 184.53431 
L 301.299472 175.96039 
L 302.112735 169.543305 
L 302.925997 167.56922 
L 303.73926 363.281103 
L 304.552523 328.17162 
L 305.365786 282.270985 
L 306.179049 249.026968 
L 306.992312 221.405874 
L 308.618838 189.590313 
L 309.432101 183.418163 
L 310.245363 178.274921 
L 311.058626 169.798309 
L 311.871889 363.263939 
L 312.685152 331.858323 
L 314.311678 259.449016 
L 315.124941 229.519053 
L 315.938204 211.422023 
L 316.751467 197.75035 
L 318.377992 180.679902 
L 319.191255 175.443303 
L 320.004518 363.883779 
L 320.817781 334.532507 
L 322.444307 265.254603 
L 324.070833 217.95446 
L 324.884095 207.48842 
L 325.697358 194.668925 
L 326.510621 185.37879 
L 327.323884 179.504642 
L 328.137147 363.896779 
L 328.95041 337.889024 
L 329.763673 302.228386 
L 331.390199 246.636219 
L 332.203461 226.720127 
L 333.829987 199.751743 
L 334.64325 192.019323 
L 335.456513 182.862725 
L 336.269776 365.550227 
L 337.896302 310.393959 
L 339.522827 258.497613 
L 340.33609 235.107374 
L 341.149353 219.061338 
L 341.962616 208.035568 
L 343.589142 189.991889 
L 344.402405 366.281646 
L 345.215668 343.344515 
L 346.028931 314.604831 
L 346.842193 291.363307 
L 347.655456 264.537446 
L 350.095245 214.633403 
L 351.721771 193.212995 
L 352.535034 365.537378 
L 354.161559 319.75368 
L 355.788085 272.345773 
L 356.601348 259.277534 
L 357.414611 238.062495 
L 358.227874 220.827072 
L 359.8544 203.870426 
L 360.667663 366.83434 
L 361.480925 348.463691 
L 363.107451 301.405769 
L 364.733977 263.714252 
L 366.360503 231.761029 
L 367.987029 211.785664 
L 368.800291 365.793589 
L 369.613554 350.23226 
L 371.24008 307.712764 
L 372.053343 292.248986 
L 373.679869 256.188708 
L 374.493132 239.961364 
L 375.306395 230.560432 
L 376.119657 219.844766 
L 376.93292 366.466524 
L 378.559446 332.605815 
L 379.372709 313.347353 
L 382.625761 247.876073 
L 383.439024 233.313984 
L 384.252286 224.102832 
L 385.065549 366.29863 
L 385.878812 352.275413 
L 386.692075 334.024227 
L 387.505338 320.123839 
L 388.318601 301.298555 
L 389.131864 287.084312 
L 390.75839 253.633263 
L 391.571652 246.284383 
L 392.384915 232.817694 
L 393.198178 366.33962 
L 394.824704 339.486092 
L 395.637967 322.541944 
L 398.077756 280.183045 
L 398.891018 263.932802 
L 400.517544 240.606607 
L 401.330807 366.430116 
L 402.957333 342.646276 
L 406.210384 285.77295 
L 407.023647 276.629048 
L 407.83691 261.694487 
L 408.650173 250.524905 
L 409.463436 367.269681 
L 411.089962 345.120937 
L 411.903225 329.701064 
L 412.716488 319.625657 
L 413.52975 305.536166 
L 414.343013 295.858402 
L 416.782802 258.989021 
L 417.596065 367.72068 
L 420.035854 334.88809 
L 420.849116 322.001098 
L 421.662379 312.285507 
L 424.102168 277.280791 
L 424.915431 268.553088 
L 425.728694 366.855639 
L 429.795008 316.893734 
L 431.421534 294.467063 
L 433.04806 277.309192 
L 433.861323 368.13024 
L 434.674586 358.734098 
L 435.487848 352.39676 
L 436.301111 336.604196 
L 437.114374 329.403848 
L 437.927637 320.245307 
L 438.7409 307.66923 
L 439.554163 300.809736 
L 441.180689 283.115434 
L 441.993952 367.869549 
L 442.807214 360.038328 
L 443.620477 347.840206 
L 444.43374 343.023589 
L 445.247003 333.609643 
L 446.060266 327.43797 
L 447.686792 305.139756 
L 448.500055 299.983682 
L 449.313318 288.406333 
L 450.12658 367.615525 
L 450.939843 361.115667 
L 451.753106 351.057147 
L 452.566369 345.587 
L 453.379632 336.909276 
L 454.192895 330.032679 
L 455.006158 319.540321 
L 455.819421 315.161375 
L 456.632684 307.586077 
L 457.445946 298.26529 
L 458.259209 367.672419 
L 459.072472 363.092812 
L 459.885735 352.191584 
L 460.698998 345.671023 
L 461.512261 340.218239 
L 462.325524 330.996631 
L 463.95205 318.476397 
L 464.765312 312.941762 
L 465.578575 303.377761 
L 466.391838 368.668817 
L 467.205101 361.675261 
L 468.018364 355.957192 
L 468.831627 347.962033 
L 470.458153 333.747539 
L 471.271416 326.192104 
L 472.084678 323.19592 
L 472.897941 318.747612 
L 473.711204 311.221627 
L 474.524467 368.823349 
L 475.33773 363.913277 
L 476.150993 355.541042 
L 476.964256 350.81951 
L 477.777519 344.391248 
L 478.590782 339.950866 
L 479.404044 331.447023 
L 480.217307 325.866096 
L 481.843833 313.587527 
L 482.657096 368.837574 
L 484.283622 357.158273 
L 485.910148 343.933954 
L 486.72341 341.052286 
L 487.536673 335.004394 
L 488.349936 331.503248 
L 489.163199 326.637496 
L 489.976462 321.034045 
L 490.789725 368.75962 
L 492.416251 358.179067 
L 493.229514 354.789063 
L 494.042776 348.734176 
L 494.856039 341.44722 
L 495.669302 338.677948 
L 496.482565 333.588051 
L 497.295828 326.944752 
L 498.109091 323.639217 
L 498.109091 323.639217 
" style="fill:none;stroke:#008000;stroke-linecap:square;stroke-width:1.5;"/>
   </g>
   <g id="patch_3">
    <path d="M 72 384.48 
L 72 51.84 
" style="fill:none;stroke:#000000;stroke-linecap:square;stroke-linejoin:miter;stroke-width:0.8;"/>
   </g>
   <g id="patch_4">
    <path d="M 518.4 384.48 
L 518.4 51.84 
" style="fill:none;stroke:#000000;stroke-linecap:square;stroke-linejoin:miter;stroke-width:0.8;"/>
   </g>
   <g id="patch_5">
    <path d="M 72 384.48 
L 518.4 384.48 
" style="fill:none;stroke:#000000;stroke-linecap:square;stroke-linejoin:miter;stroke-width:0.8;"/>
   </g>
   <g id="patch_6">
    <path d="M 72 51.84 
L 518.4 51.84 
" style="fill:none;stroke:#000000;stroke-linecap:square;stroke-linejoin:miter;stroke-width:0.8;"/>
   </g>
   <g id="legend_1">
    <g id="patch_7">
     <path d="M 79 89.19625 
L 156.107812 89.19625 
Q 158.107812 89.19625 158.107812 87.19625 
L 158.107812 58.84 
Q 158.107812 56.84 156.107812 56.84 
L 79 56.84 
Q 77 56.84 77 58.84 
L 77 87.19625 
Q 77 89.19625 79 89.19625 
z
" style="fill:#ffffff;opacity:0.8;stroke:#cccccc;stroke-linejoin:miter;"/>
    </g>
    <g id="line2d_15">
     <path d="M 81 64.938437 
L 101 64.938437 
" style="fill:none;stroke:#0000ff;stroke-linecap:square;stroke-width:1.5;"/>
    </g>
    <g id="line2d_16"/>
    <g id="text_15">
     <!-- precision -->
     <g transform="translate(109 68.438437)scale(0.1 -0.1)">
      <defs>
       <path d="M 9.421875 54.6875 
L 18.40625 54.6875 
L 18.40625 0 
L 9.421875 0 
z
M 9.421875 75.984375 
L 18.40625 75.984375 
L 18.40625 64.59375 
L 9.421875 64.59375 
z
" id="DejaVuSans-105"/>
       <path d="M 44.28125 53.078125 
L 44.28125 44.578125 
Q 40.484375 46.53125 36.375 47.5 
Q 32.28125 48.484375 27.875 48.484375 
Q 21.1875 48.484375 17.84375 46.4375 
Q 14.5 44.390625 14.5 40.28125 
Q 14.5 37.15625 16.890625 35.375 
Q 19.28125 33.59375 26.515625 31.984375 
L 29.59375 31.296875 
Q 39.15625 29.25 43.1875 25.515625 
Q 47.21875 21.78125 47.21875 15.09375 
Q 47.21875 7.46875 41.1875 3.015625 
Q 35.15625 -1.421875 24.609375 -1.421875 
Q 20.21875 -1.421875 15.453125 -0.5625 
Q 10.6875 0.296875 5.421875 2 
L 5.421875 11.28125 
Q 10.40625 8.6875 15.234375 7.390625 
Q 20.0625 6.109375 24.8125 6.109375 
Q 31.15625 6.109375 34.5625 8.28125 
Q 37.984375 10.453125 37.984375 14.40625 
Q 37.984375 18.0625 35.515625 20.015625 
Q 33.0625 21.96875 24.703125 23.78125 
L 21.578125 24.515625 
Q 13.234375 26.265625 9.515625 29.90625 
Q 5.8125 33.546875 5.8125 39.890625 
Q 5.8125 47.609375 11.28125 51.796875 
Q 16.75 56 26.8125 56 
Q 31.78125 56 36.171875 55.265625 
Q 40.578125 54.546875 44.28125 53.078125 
z
" id="DejaVuSans-115"/>
       <path d="M 54.890625 33.015625 
L 54.890625 0 
L 45.90625 0 
L 45.90625 32.71875 
Q 45.90625 40.484375 42.875 44.328125 
Q 39.84375 48.1875 33.796875 48.1875 
Q 26.515625 48.1875 22.3125 43.546875 
Q 18.109375 38.921875 18.109375 30.90625 
L 18.109375 0 
L 9.078125 0 
L 9.078125 54.6875 
L 18.109375 54.6875 
L 18.109375 46.1875 
Q 21.34375 51.125 25.703125 53.5625 
Q 30.078125 56 35.796875 56 
Q 45.21875 56 50.046875 50.171875 
Q 54.890625 44.34375 54.890625 33.015625 
z
" id="DejaVuSans-110"/>
      </defs>
      <use xlink:href="#DejaVuSans-112"/>
      <use x="63.476562" xlink:href="#DejaVuSans-114"/>
      <use x="102.339844" xlink:href="#DejaVuSans-101"/>
      <use x="163.863281" xlink:href="#DejaVuSans-99"/>
      <use x="218.84375" xlink:href="#DejaVuSans-105"/>
      <use x="246.626953" xlink:href="#DejaVuSans-115"/>
      <use x="298.726562" xlink:href="#DejaVuSans-105"/>
      <use x="326.509766" xlink:href="#DejaVuSans-111"/>
      <use x="387.691406" xlink:href="#DejaVuSans-110"/>
     </g>
    </g>
    <g id="line2d_17">
     <path d="M 81 79.616562 
L 101 79.616562 
" style="fill:none;stroke:#008000;stroke-linecap:square;stroke-width:1.5;"/>
    </g>
    <g id="line2d_18"/>
    <g id="text_16">
     <!-- recall -->
     <g transform="translate(109 83.116562)scale(0.1 -0.1)">
      <defs>
       <path d="M 9.421875 75.984375 
L 18.40625 75.984375 
L 18.40625 0 
L 9.421875 0 
z
" id="DejaVuSans-108"/>
      </defs>
      <use xlink:href="#DejaVuSans-114"/>
      <use x="38.863281" xlink:href="#DejaVuSans-101"/>
      <use x="100.386719" xlink:href="#DejaVuSans-99"/>
      <use x="155.367188" xlink:href="#DejaVuSans-97"/>
      <use x="216.646484" xlink:href="#DejaVuSans-108"/>
      <use x="244.429688" xlink:href="#DejaVuSans-108"/>
     </g>
    </g>
   </g>
  </g>
  <g id="axes_2">
   <g id="matplotlib.axis_3">
    <g id="ytick_7">
     <g id="line2d_19">
      <defs>
       <path d="M 0 0 
L 3.5 0 
" id="m9d89d23aa5" style="stroke:#000000;stroke-width:0.8;"/>
      </defs>
      <g>
       <use style="stroke:#000000;stroke-width:0.8;" x="518.4" xlink:href="#m9d89d23aa5" y="364.51106"/>
      </g>
     </g>
     <g id="text_17">
      <!-- 0.15 -->
      <g transform="translate(525.4 368.310278)scale(0.1 -0.1)">
       <use xlink:href="#DejaVuSans-48"/>
       <use x="63.623047" xlink:href="#DejaVuSans-46"/>
       <use x="95.410156" xlink:href="#DejaVuSans-49"/>
       <use x="159.033203" xlink:href="#DejaVuSans-53"/>
      </g>
     </g>
    </g>
    <g id="ytick_8">
     <g id="line2d_20">
      <g>
       <use style="stroke:#000000;stroke-width:0.8;" x="518.4" xlink:href="#m9d89d23aa5" y="324.367418"/>
      </g>
     </g>
     <g id="text_18">
      <!-- 0.20 -->
      <g transform="translate(525.4 328.166637)scale(0.1 -0.1)">
       <use xlink:href="#DejaVuSans-48"/>
       <use x="63.623047" xlink:href="#DejaVuSans-46"/>
       <use x="95.410156" xlink:href="#DejaVuSans-50"/>
       <use x="159.033203" xlink:href="#DejaVuSans-48"/>
      </g>
     </g>
    </g>
    <g id="ytick_9">
     <g id="line2d_21">
      <g>
       <use style="stroke:#000000;stroke-width:0.8;" x="518.4" xlink:href="#m9d89d23aa5" y="284.223777"/>
      </g>
     </g>
     <g id="text_19">
      <!-- 0.25 -->
      <g transform="translate(525.4 288.022996)scale(0.1 -0.1)">
       <use xlink:href="#DejaVuSans-48"/>
       <use x="63.623047" xlink:href="#DejaVuSans-46"/>
       <use x="95.410156" xlink:href="#DejaVuSans-50"/>
       <use x="159.033203" xlink:href="#DejaVuSans-53"/>
      </g>
     </g>
    </g>
    <g id="ytick_10">
     <g id="line2d_22">
      <g>
       <use style="stroke:#000000;stroke-width:0.8;" x="518.4" xlink:href="#m9d89d23aa5" y="244.080135"/>
      </g>
     </g>
     <g id="text_20">
      <!-- 0.30 -->
      <g transform="translate(525.4 247.879354)scale(0.1 -0.1)">
       <use xlink:href="#DejaVuSans-48"/>
       <use x="63.623047" xlink:href="#DejaVuSans-46"/>
       <use x="95.410156" xlink:href="#DejaVuSans-51"/>
       <use x="159.033203" xlink:href="#DejaVuSans-48"/>
      </g>
     </g>
    </g>
    <g id="ytick_11">
     <g id="line2d_23">
      <g>
       <use style="stroke:#000000;stroke-width:0.8;" x="518.4" xlink:href="#m9d89d23aa5" y="203.936494"/>
      </g>
     </g>
     <g id="text_21">
      <!-- 0.35 -->
      <g transform="translate(525.4 207.735713)scale(0.1 -0.1)">
       <use xlink:href="#DejaVuSans-48"/>
       <use x="63.623047" xlink:href="#DejaVuSans-46"/>
       <use x="95.410156" xlink:href="#DejaVuSans-51"/>
       <use x="159.033203" xlink:href="#DejaVuSans-53"/>
      </g>
     </g>
    </g>
    <g id="ytick_12">
     <g id="line2d_24">
      <g>
       <use style="stroke:#000000;stroke-width:0.8;" x="518.4" xlink:href="#m9d89d23aa5" y="163.792853"/>
      </g>
     </g>
     <g id="text_22">
      <!-- 0.40 -->
      <g transform="translate(525.4 167.592071)scale(0.1 -0.1)">
       <use xlink:href="#DejaVuSans-48"/>
       <use x="63.623047" xlink:href="#DejaVuSans-46"/>
       <use x="95.410156" xlink:href="#DejaVuSans-52"/>
       <use x="159.033203" xlink:href="#DejaVuSans-48"/>
      </g>
     </g>
    </g>
    <g id="ytick_13">
     <g id="line2d_25">
      <g>
       <use style="stroke:#000000;stroke-width:0.8;" x="518.4" xlink:href="#m9d89d23aa5" y="123.649211"/>
      </g>
     </g>
     <g id="text_23">
      <!-- 0.45 -->
      <g transform="translate(525.4 127.44843)scale(0.1 -0.1)">
       <use xlink:href="#DejaVuSans-48"/>
       <use x="63.623047" xlink:href="#DejaVuSans-46"/>
       <use x="95.410156" xlink:href="#DejaVuSans-52"/>
       <use x="159.033203" xlink:href="#DejaVuSans-53"/>
      </g>
     </g>
    </g>
    <g id="ytick_14">
     <g id="line2d_26">
      <g>
       <use style="stroke:#000000;stroke-width:0.8;" x="518.4" xlink:href="#m9d89d23aa5" y="83.50557"/>
      </g>
     </g>
     <g id="text_24">
      <!-- 0.50 -->
      <g transform="translate(525.4 87.304788)scale(0.1 -0.1)">
       <use xlink:href="#DejaVuSans-48"/>
       <use x="63.623047" xlink:href="#DejaVuSans-46"/>
       <use x="95.410156" xlink:href="#DejaVuSans-53"/>
       <use x="159.033203" xlink:href="#DejaVuSans-48"/>
      </g>
     </g>
    </g>
    <g id="text_25">
     <!-- loss -->
     <g transform="translate(559.264063 227.817812)rotate(-90)scale(0.1 -0.1)">
      <use xlink:href="#DejaVuSans-108"/>
      <use x="27.783203" xlink:href="#DejaVuSans-111"/>
      <use x="88.964844" xlink:href="#DejaVuSans-115"/>
      <use x="141.064453" xlink:href="#DejaVuSans-115"/>
     </g>
    </g>
   </g>
   <g id="line2d_27">
    <path clip-path="url(#pa6f287668f)" d="M 92.290909 168.866313 
L 93.104172 256.124199 
L 93.917435 267.411063 
L 94.730698 273.597469 
L 95.543961 277.940719 
L 97.170486 281.448873 
L 97.983749 283.861527 
L 98.797012 284.416337 
L 99.610275 287.618401 
L 100.423538 237.169589 
L 101.236801 283.308145 
L 102.050064 296.998324 
L 102.863327 302.672351 
L 103.67659 306.389419 
L 104.489852 307.682298 
L 105.303115 309.539139 
L 106.116378 310.722393 
L 106.929641 313.209079 
L 107.742904 315.087115 
L 108.556167 241.34757 
L 109.36943 289.668187 
L 110.182693 305.67058 
L 110.995956 312.729411 
L 111.809218 316.001519 
L 112.622481 318.493931 
L 113.435744 319.836849 
L 114.249007 322.141432 
L 115.875533 325.731083 
L 116.688796 241.279588 
L 117.502059 295.679544 
L 118.315322 313.590092 
L 119.128584 320.000416 
L 119.941847 324.537762 
L 120.75511 326.124063 
L 121.568373 328.569702 
L 122.381636 330.619539 
L 123.194899 334.033423 
L 124.008162 334.427574 
L 124.821425 247.197857 
L 125.634688 299.424453 
L 126.44795 318.985122 
L 127.261213 326.143469 
L 128.074476 331.592044 
L 128.887739 333.557216 
L 129.701002 337.350895 
L 131.327528 340.924738 
L 132.140791 343.27285 
L 132.954054 247.724478 
L 133.767316 304.630226 
L 134.580579 323.36623 
L 135.393842 331.362814 
L 136.207105 337.17675 
L 137.020368 340.3271 
L 137.833631 344.576056 
L 138.646894 346.453781 
L 139.460157 350.004434 
L 140.27342 351.322762 
L 141.086682 250.141538 
L 141.899945 305.613085 
L 142.713208 327.928641 
L 143.526471 336.563153 
L 144.339734 342.626959 
L 145.152997 345.108889 
L 145.96626 348.97797 
L 146.779523 353.670473 
L 147.592786 356.052389 
L 148.406048 357.298747 
L 149.219311 244.86755 
L 150.032574 308.697995 
L 150.845837 329.402818 
L 151.6591 340.31586 
L 153.285626 350.772006 
L 154.912152 356.217617 
L 155.725414 360.512465 
L 156.538677 363.241113 
L 157.35194 245.612027 
L 158.165203 308.24431 
L 158.978466 331.64655 
L 159.791729 342.41901 
L 160.604992 347.415352 
L 161.418255 353.199067 
L 162.231518 358.141189 
L 163.04478 359.65995 
L 163.858043 364.562605 
L 164.671306 367.461575 
L 165.484569 242.037334 
L 166.297832 309.333042 
L 167.111095 333.561025 
L 167.924358 342.259237 
L 168.737621 352.385716 
L 169.550884 357.969858 
L 170.364146 360.966385 
L 171.990672 367.67959 
L 172.803935 369.36 
L 173.617198 237.150957 
L 174.430461 305.178635 
L 175.243724 326.775138 
L 176.056987 337.2655 
L 177.683512 349.85989 
L 178.496775 351.285922 
L 179.310038 353.439061 
L 180.123301 357.174283 
L 180.936564 359.194735 
L 181.749827 189.744957 
L 182.56309 304.928642 
L 183.376353 323.883259 
L 184.189616 335.148905 
L 185.816141 348.234221 
L 186.629404 351.613571 
L 188.25593 360.416093 
L 189.069193 362.558453 
L 189.882456 182.1235 
L 190.695719 300.146644 
L 191.508982 322.754959 
L 192.322244 335.559039 
L 193.135507 344.211074 
L 193.94877 349.635433 
L 195.575296 356.576552 
L 196.388559 360.855178 
L 197.201822 362.269633 
L 198.015085 168.497278 
L 198.828348 296.464159 
L 199.64161 322.789003 
L 200.454873 333.946246 
L 201.268136 343.195722 
L 202.894662 355.258969 
L 203.707925 358.321447 
L 204.521188 360.465328 
L 205.334451 363.185974 
L 206.147714 165.261137 
L 206.960976 290.042799 
L 207.774239 320.326853 
L 209.400765 342.704255 
L 210.214028 347.453881 
L 211.027291 354.108068 
L 211.840554 357.438244 
L 212.653817 362.42657 
L 213.46708 364.93325 
L 214.280343 152.26657 
L 215.093605 281.816592 
L 215.906868 319.380962 
L 216.720131 333.123347 
L 217.533394 343.419854 
L 218.346657 349.77175 
L 219.973183 358.476258 
L 220.786446 360.381658 
L 221.599709 364.358664 
L 222.412971 146.825105 
L 223.226234 273.911055 
L 224.039497 315.651773 
L 224.85276 330.035507 
L 225.666023 341.320066 
L 227.292549 354.408278 
L 228.105812 357.594198 
L 228.919075 359.706993 
L 229.732337 364.637702 
L 230.5456 140.959655 
L 231.358863 267.265469 
L 232.172126 315.804487 
L 232.985389 329.991262 
L 233.798652 340.627976 
L 234.611915 347.214085 
L 235.425178 350.479419 
L 237.051703 360.043602 
L 237.864966 361.634085 
L 238.678229 139.465885 
L 239.491492 256.35451 
L 240.304755 311.349382 
L 241.118018 328.975796 
L 241.931281 339.529111 
L 244.371069 354.768657 
L 245.184332 357.237382 
L 245.997595 361.805391 
L 246.810858 130.961706 
L 247.624121 249.435743 
L 248.437384 307.669717 
L 249.250647 326.947886 
L 250.06391 333.81437 
L 250.877173 344.173658 
L 251.690435 347.977075 
L 252.503698 353.406498 
L 253.316961 356.880644 
L 254.130224 362.159369 
L 254.943487 127.864648 
L 255.75675 239.758052 
L 256.570013 300.833848 
L 257.383276 322.926614 
L 258.196539 334.096898 
L 259.009801 342.445404 
L 259.823064 349.411608 
L 260.636327 353.018879 
L 261.44959 358.349018 
L 262.262853 360.949769 
L 263.076116 121.88371 
L 263.889379 230.703016 
L 264.702642 294.059098 
L 265.515905 319.934616 
L 266.329167 332.455501 
L 267.14243 341.662551 
L 267.955693 347.996283 
L 270.395482 359.619921 
L 271.208745 116.148678 
L 272.022008 223.369351 
L 272.835271 283.387398 
L 273.648533 316.391223 
L 274.461796 328.875358 
L 275.275059 337.175668 
L 276.088322 342.861306 
L 276.901585 350.436302 
L 277.714848 355.731027 
L 278.528111 357.423303 
L 279.341374 112.540074 
L 280.154637 211.30303 
L 280.967899 277.721598 
L 281.781162 309.151654 
L 282.594425 325.150175 
L 283.407688 333.733913 
L 284.220951 343.659715 
L 285.847477 350.245616 
L 286.66074 357.471901 
L 287.474003 110.149529 
L 288.287265 202.734478 
L 289.100528 269.326119 
L 289.913791 303.555354 
L 290.727054 319.149924 
L 291.540317 332.537207 
L 292.35358 340.633613 
L 293.166843 345.000057 
L 294.793369 351.969476 
L 295.606631 106.245283 
L 296.419894 199.45372 
L 297.233157 262.430472 
L 298.04642 296.864431 
L 298.859683 316.991217 
L 299.672946 328.0773 
L 300.486209 336.586156 
L 302.112735 350.437984 
L 302.925997 353.070678 
L 303.73926 104.708575 
L 304.552523 187.021305 
L 305.365786 250.855028 
L 306.179049 289.33784 
L 306.992312 309.696377 
L 307.805575 324.390315 
L 308.618838 333.942164 
L 310.245363 343.85206 
L 311.058626 349.506695 
L 311.871889 100.373535 
L 312.685152 181.61719 
L 313.498415 241.129712 
L 314.311678 280.236989 
L 315.124941 304.691872 
L 315.938204 319.465858 
L 316.751467 329.774899 
L 317.564729 335.644753 
L 318.377992 343.394282 
L 319.191255 346.967045 
L 320.004518 97.589733 
L 320.817781 174.911934 
L 321.631044 233.354428 
L 322.444307 271.670047 
L 323.25757 298.856314 
L 324.070833 316.343909 
L 324.884095 322.476175 
L 325.697358 333.597695 
L 326.510621 341.563115 
L 327.323884 344.013114 
L 328.137147 99.312546 
L 328.95041 171.544463 
L 329.763673 228.121011 
L 330.576936 267.366837 
L 331.390199 292.147426 
L 332.203461 307.195792 
L 333.829987 328.462349 
L 334.64325 334.800169 
L 335.456513 340.036345 
L 336.269776 94.880147 
L 337.083039 162.121804 
L 337.896302 218.572382 
L 338.709565 256.160186 
L 339.522827 283.947911 
L 340.33609 302.936789 
L 341.149353 318.669171 
L 342.775879 330.865541 
L 343.589142 338.607924 
L 344.402405 90.251159 
L 345.215668 156.266365 
L 346.028931 210.688679 
L 346.842193 248.167138 
L 347.655456 277.05098 
L 348.468719 296.919606 
L 349.281982 310.298053 
L 350.095245 320.938929 
L 350.908508 327.530293 
L 351.721771 335.552951 
L 352.535034 92.271769 
L 353.348297 154.620694 
L 354.161559 204.059113 
L 354.974822 244.114344 
L 355.788085 270.702919 
L 356.601348 288.124725 
L 357.414611 302.570721 
L 358.227874 313.531432 
L 359.041137 322.475759 
L 359.8544 327.615777 
L 360.667663 87.98817 
L 362.294188 197.138907 
L 363.107451 234.38334 
L 363.920714 260.707213 
L 364.733977 280.131849 
L 365.54724 296.809704 
L 366.360503 304.951829 
L 367.173766 317.09825 
L 367.987029 324.148653 
L 368.800291 87.699469 
L 370.426817 186.51942 
L 371.24008 223.720245 
L 372.053343 250.121927 
L 372.866606 272.156453 
L 373.679869 289.719675 
L 374.493132 303.441629 
L 376.119657 317.902683 
L 376.93292 83.825625 
L 377.746183 137.921556 
L 378.559446 181.138219 
L 379.372709 217.24255 
L 380.185972 244.609521 
L 380.999235 266.274944 
L 381.812498 283.457452 
L 384.252286 313.324696 
L 385.065549 84.180967 
L 386.692075 174.832827 
L 387.505338 208.249768 
L 388.318601 236.829238 
L 389.131864 258.515883 
L 389.945127 275.206912 
L 391.571652 297.30865 
L 392.384915 305.61266 
L 393.198178 81.368031 
L 394.824704 170.661257 
L 395.637967 206.062315 
L 397.264493 249.828848 
L 398.077756 264.786802 
L 399.704281 288.473767 
L 400.517544 298.926023 
L 401.330807 79.491969 
L 402.14407 123.801537 
L 402.957333 161.506708 
L 403.770596 192.808495 
L 404.583859 219.360331 
L 405.397122 240.312577 
L 406.210384 257.547072 
L 407.023647 267.497217 
L 407.83691 280.829442 
L 408.650173 289.4072 
L 409.463436 76.855277 
L 411.089962 154.477247 
L 412.716488 210.446171 
L 413.52975 230.891024 
L 414.343013 247.320426 
L 416.782802 286.905423 
L 417.596065 76.680018 
L 419.222591 150.834404 
L 420.849116 203.283489 
L 422.475642 239.830265 
L 423.288905 254.617302 
L 424.102168 265.131285 
L 424.915431 273.495534 
L 425.728694 77.445729 
L 426.541957 114.15101 
L 428.168482 171.04086 
L 428.981745 191.897859 
L 429.795008 217.074815 
L 430.608271 230.219185 
L 431.421534 245.834353 
L 432.234797 254.651768 
L 433.04806 266.657278 
L 433.861323 75.926392 
L 434.674586 110.673809 
L 436.301111 166.495121 
L 437.114374 188.031263 
L 438.7409 225.598002 
L 441.180689 259.645992 
L 441.993952 75.247428 
L 443.620477 135.32762 
L 445.247003 181.299173 
L 446.873529 214.987095 
L 447.686792 225.850566 
L 448.500055 234.631617 
L 449.313318 247.780861 
L 450.12658 72.804514 
L 450.939843 105.593709 
L 452.566369 154.439711 
L 454.192895 190.495822 
L 455.006158 203.394347 
L 455.819421 218.475605 
L 457.445946 238.496206 
L 458.259209 71.556691 
L 459.885735 126.809667 
L 462.325524 183.556389 
L 463.138787 196.323711 
L 463.95205 205.272019 
L 464.765312 219.549956 
L 465.578575 231.43168 
L 466.391838 73.167065 
L 468.018364 123.435775 
L 469.64489 162.101387 
L 470.458153 176.451934 
L 471.271416 187.421449 
L 472.084678 204.991075 
L 472.897941 211.565364 
L 473.711204 220.207841 
L 474.524467 70.591604 
L 475.33773 91.929679 
L 476.150993 116.558559 
L 476.964256 137.643699 
L 477.777519 155.838218 
L 478.590782 168.322979 
L 479.404044 184.839673 
L 481.843833 220.037751 
L 482.657096 70.125268 
L 483.470359 92.803855 
L 484.283622 110.950923 
L 485.096885 132.583619 
L 485.910148 149.308547 
L 486.72341 162.744138 
L 487.536673 178.283877 
L 488.349936 184.450163 
L 489.163199 197.465418 
L 489.976462 207.03395 
L 490.789725 66.96 
L 492.416251 111.047282 
L 494.042776 144.136816 
L 494.856039 155.450409 
L 496.482565 180.047129 
L 497.295828 191.051874 
L 498.109091 200.539126 
L 498.109091 200.539126 
" style="fill:none;stroke:#ff0000;stroke-linecap:square;stroke-width:1.5;"/>
   </g>
   <g id="patch_8">
    <path d="M 72 384.48 
L 72 51.84 
" style="fill:none;stroke:#000000;stroke-linecap:square;stroke-linejoin:miter;stroke-width:0.8;"/>
   </g>
   <g id="patch_9">
    <path d="M 518.4 384.48 
L 518.4 51.84 
" style="fill:none;stroke:#000000;stroke-linecap:square;stroke-linejoin:miter;stroke-width:0.8;"/>
   </g>
   <g id="patch_10">
    <path d="M 72 384.48 
L 518.4 384.48 
" style="fill:none;stroke:#000000;stroke-linecap:square;stroke-linejoin:miter;stroke-width:0.8;"/>
   </g>
   <g id="patch_11">
    <path d="M 72 51.84 
L 518.4 51.84 
" style="fill:none;stroke:#000000;stroke-linecap:square;stroke-linejoin:miter;stroke-width:0.8;"/>
   </g>
   <g id="text_26">
    <!-- The learning curve on _non_iid/host/5 -->
    <g transform="translate(178.868437 45.84)scale(0.12 -0.12)">
     <defs>
      <path d="M -0.296875 72.90625 
L 61.375 72.90625 
L 61.375 64.59375 
L 35.5 64.59375 
L 35.5 0 
L 25.59375 0 
L 25.59375 64.59375 
L -0.296875 64.59375 
z
" id="DejaVuSans-84"/>
      <path id="DejaVuSans-32"/>
      <path d="M 45.40625 27.984375 
Q 45.40625 37.75 41.375 43.109375 
Q 37.359375 48.484375 30.078125 48.484375 
Q 22.859375 48.484375 18.828125 43.109375 
Q 14.796875 37.75 14.796875 27.984375 
Q 14.796875 18.265625 18.828125 12.890625 
Q 22.859375 7.515625 30.078125 7.515625 
Q 37.359375 7.515625 41.375 12.890625 
Q 45.40625 18.265625 45.40625 27.984375 
z
M 54.390625 6.78125 
Q 54.390625 -7.171875 48.1875 -13.984375 
Q 42 -20.796875 29.203125 -20.796875 
Q 24.46875 -20.796875 20.265625 -20.09375 
Q 16.0625 -19.390625 12.109375 -17.921875 
L 12.109375 -9.1875 
Q 16.0625 -11.328125 19.921875 -12.34375 
Q 23.78125 -13.375 27.78125 -13.375 
Q 36.625 -13.375 41.015625 -8.765625 
Q 45.40625 -4.15625 45.40625 5.171875 
L 45.40625 9.625 
Q 42.625 4.78125 38.28125 2.390625 
Q 33.9375 0 27.875 0 
Q 17.828125 0 11.671875 7.65625 
Q 5.515625 15.328125 5.515625 27.984375 
Q 5.515625 40.671875 11.671875 48.328125 
Q 17.828125 56 27.875 56 
Q 33.9375 56 38.28125 53.609375 
Q 42.625 51.21875 45.40625 46.390625 
L 45.40625 54.6875 
L 54.390625 54.6875 
z
" id="DejaVuSans-103"/>
      <path d="M 8.5 21.578125 
L 8.5 54.6875 
L 17.484375 54.6875 
L 17.484375 21.921875 
Q 17.484375 14.15625 20.5 10.265625 
Q 23.53125 6.390625 29.59375 6.390625 
Q 36.859375 6.390625 41.078125 11.03125 
Q 45.3125 15.671875 45.3125 23.6875 
L 45.3125 54.6875 
L 54.296875 54.6875 
L 54.296875 0 
L 45.3125 0 
L 45.3125 8.40625 
Q 42.046875 3.421875 37.71875 1 
Q 33.40625 -1.421875 27.6875 -1.421875 
Q 18.265625 -1.421875 13.375 4.4375 
Q 8.5 10.296875 8.5 21.578125 
z
M 31.109375 56 
z
" id="DejaVuSans-117"/>
      <path d="M 2.984375 54.6875 
L 12.5 54.6875 
L 29.59375 8.796875 
L 46.6875 54.6875 
L 56.203125 54.6875 
L 35.6875 0 
L 23.484375 0 
z
" id="DejaVuSans-118"/>
      <path d="M 30.953125 67.4375 
L 56.203125 0 
L 46.6875 0 
L 31.34375 40.4375 
L 12.5 0 
L 2.984375 0 
L 26.953125 52.4375 
L 23.34375 62.109375 
Q 21.046875 68.265625 15.828125 68.265625 
L 11.140625 68.265625 
L 11.140625 75.984375 
L 16.84375 75.875 
Q 27.875 75.734375 30.953125 67.4375 
z
" id="DejaVuSans-955"/>
      <path d="M 50.984375 -16.609375 
L 50.984375 -23.578125 
L -0.984375 -23.578125 
L -0.984375 -16.609375 
z
" id="DejaVuSans-95"/>
      <path d="M 45.40625 46.390625 
L 45.40625 75.984375 
L 54.390625 75.984375 
L 54.390625 0 
L 45.40625 0 
L 45.40625 8.203125 
Q 42.578125 3.328125 38.25 0.953125 
Q 33.9375 -1.421875 27.875 -1.421875 
Q 17.96875 -1.421875 11.734375 6.484375 
Q 5.515625 14.40625 5.515625 27.296875 
Q 5.515625 40.1875 11.734375 48.09375 
Q 17.96875 56 27.875 56 
Q 33.9375 56 38.25 53.625 
Q 42.578125 51.265625 45.40625 46.390625 
z
M 14.796875 27.296875 
Q 14.796875 17.390625 18.875 11.75 
Q 22.953125 6.109375 30.078125 6.109375 
Q 37.203125 6.109375 41.296875 11.75 
Q 45.40625 17.390625 45.40625 27.296875 
Q 45.40625 37.203125 41.296875 42.84375 
Q 37.203125 48.484375 30.078125 48.484375 
Q 22.953125 48.484375 18.875 42.84375 
Q 14.796875 37.203125 14.796875 27.296875 
z
" id="DejaVuSans-100"/>
      <path d="M 25.390625 72.90625 
L 33.6875 72.90625 
L 8.296875 -9.28125 
L 0 -9.28125 
z
" id="DejaVuSans-47"/>
     </defs>
     <use xlink:href="#DejaVuSans-84"/>
     <use x="61.083984" xlink:href="#DejaVuSans-104"/>
     <use x="124.462891" xlink:href="#DejaVuSans-101"/>
     <use x="185.986328" xlink:href="#DejaVuSans-32"/>
     <use x="217.773438" xlink:href="#DejaVuSans-108"/>
     <use x="245.556641" xlink:href="#DejaVuSans-101"/>
     <use x="307.080078" xlink:href="#DejaVuSans-97"/>
     <use x="368.359375" xlink:href="#DejaVuSans-114"/>
     <use x="407.722656" xlink:href="#DejaVuSans-110"/>
     <use x="471.101562" xlink:href="#DejaVuSans-105"/>
     <use x="498.884766" xlink:href="#DejaVuSans-110"/>
     <use x="562.263672" xlink:href="#DejaVuSans-103"/>
     <use x="625.740234" xlink:href="#DejaVuSans-32"/>
     <use x="657.527344" xlink:href="#DejaVuSans-99"/>
     <use x="712.507812" xlink:href="#DejaVuSans-117"/>
     <use x="775.886719" xlink:href="#DejaVuSans-114"/>
     <use x="817" xlink:href="#DejaVuSans-118"/>
     <use x="876.179688" xlink:href="#DejaVuSans-101"/>
     <use x="937.703125" xlink:href="#DejaVuSans-32"/>
     <use x="969.490234" xlink:href="#DejaVuSans-111"/>
     <use x="1030.671875" xlink:href="#DejaVuSans-110"/>
     <use x="1094.050781" xlink:href="#DejaVuSans-32"/>
     <use x="1125.837891" xlink:href="#DejaVuSans-955"/>
     <use x="1185.017578" xlink:href="#DejaVuSans-95"/>
     <use x="1235.017578" xlink:href="#DejaVuSans-110"/>
     <use x="1298.396484" xlink:href="#DejaVuSans-111"/>
     <use x="1359.578125" xlink:href="#DejaVuSans-110"/>
     <use x="1422.957031" xlink:href="#DejaVuSans-95"/>
     <use x="1472.957031" xlink:href="#DejaVuSans-105"/>
     <use x="1500.740234" xlink:href="#DejaVuSans-105"/>
     <use x="1528.523438" xlink:href="#DejaVuSans-100"/>
     <use x="1592" xlink:href="#DejaVuSans-47"/>
     <use x="1625.691406" xlink:href="#DejaVuSans-104"/>
     <use x="1689.070312" xlink:href="#DejaVuSans-111"/>
     <use x="1750.251953" xlink:href="#DejaVuSans-115"/>
     <use x="1802.351562" xlink:href="#DejaVuSans-116"/>
     <use x="1841.560547" xlink:href="#DejaVuSans-47"/>
     <use x="1875.251953" xlink:href="#DejaVuSans-53"/>
    </g>
   </g>
   <g id="legend_2">
    <g id="patch_12">
     <path d="M 460.084375 74.518125 
L 511.4 74.518125 
Q 513.4 74.518125 513.4 72.518125 
L 513.4 58.84 
Q 513.4 56.84 511.4 56.84 
L 460.084375 56.84 
Q 458.084375 56.84 458.084375 58.84 
L 458.084375 72.518125 
Q 458.084375 74.518125 460.084375 74.518125 
z
" style="fill:#ffffff;opacity:0.8;stroke:#cccccc;stroke-linejoin:miter;"/>
    </g>
    <g id="line2d_28">
     <path d="M 462.084375 64.938438 
L 482.084375 64.938438 
" style="fill:none;stroke:#ff0000;stroke-linecap:square;stroke-width:1.5;"/>
    </g>
    <g id="line2d_29"/>
    <g id="text_27">
     <!-- loss -->
     <g transform="translate(490.084375 68.438438)scale(0.1 -0.1)">
      <use xlink:href="#DejaVuSans-108"/>
      <use x="27.783203" xlink:href="#DejaVuSans-111"/>
      <use x="88.964844" xlink:href="#DejaVuSans-115"/>
      <use x="141.064453" xlink:href="#DejaVuSans-115"/>
     </g>
    </g>
   </g>
  </g>
 </g>
 <defs>
  <clipPath id="pa6f287668f">
   <rect height="332.64" width="446.4" x="72" y="51.84"/>
  </clipPath>
 </defs>
</svg>
