<?xml version="1.0" encoding="utf-8" standalone="no"?>
<!DOCTYPE svg PUBLIC "-//W3C//DTD SVG 1.1//EN"
  "http://www.w3.org/Graphics/SVG/1.1/DTD/svg11.dtd">
<!-- Created with matplotlib (https://matplotlib.org/) -->
<svg height="345.6pt" version="1.1" viewBox="0 0 460.8 345.6" width="460.8pt" xmlns="http://www.w3.org/2000/svg" xmlns:xlink="http://www.w3.org/1999/xlink">
 <metadata>
  <rdf:RDF xmlns:cc="http://creativecommons.org/ns#" xmlns:dc="http://purl.org/dc/elements/1.1/" xmlns:rdf="http://www.w3.org/1999/02/22-rdf-syntax-ns#">
   <cc:Work>
    <dc:type rdf:resource="http://purl.org/dc/dcmitype/StillImage"/>
    <dc:date>2023-04-17T00:04:50.778499</dc:date>
    <dc:format>image/svg+xml</dc:format>
    <dc:creator>
     <cc:Agent>
      <dc:title>Matplotlib v3.3.4, https://matplotlib.org/</dc:title>
     </cc:Agent>
    </dc:creator>
   </cc:Work>
  </rdf:RDF>
 </metadata>
 <defs>
  <style type="text/css">*{stroke-linecap:butt;stroke-linejoin:round;}</style>
 </defs>
 <g id="figure_1">
  <g id="patch_1">
   <path d="M 0 345.6 
L 460.8 345.6 
L 460.8 0 
L 0 0 
z
" style="fill:#ffffff;"/>
  </g>
  <g id="axes_1">
   <g id="patch_2">
    <path d="M 57.6 307.584 
L 414.72 307.584 
L 414.72 41.472 
L 57.6 41.472 
z
" style="fill:#ffffff;"/>
   </g>
   <g id="matplotlib.axis_1">
    <g id="xtick_1">
     <g id="line2d_1">
      <defs>
       <path d="M 0 0 
L 0 3.5 
" id="m37ea1f7689" style="stroke:#000000;stroke-width:0.8;"/>
      </defs>
      <g>
       <use style="stroke:#000000;stroke-width:0.8;" x="73.832727" xlink:href="#m37ea1f7689" y="307.584"/>
      </g>
     </g>
     <g id="text_1">
      <!-- 0 -->
      <g transform="translate(70.651477 322.182437)scale(0.1 -0.1)">
       <defs>
        <path d="M 31.78125 66.40625 
Q 24.171875 66.40625 20.328125 58.90625 
Q 16.5 51.421875 16.5 36.375 
Q 16.5 21.390625 20.328125 13.890625 
Q 24.171875 6.390625 31.78125 6.390625 
Q 39.453125 6.390625 43.28125 13.890625 
Q 47.125 21.390625 47.125 36.375 
Q 47.125 51.421875 43.28125 58.90625 
Q 39.453125 66.40625 31.78125 66.40625 
z
M 31.78125 74.21875 
Q 44.046875 74.21875 50.515625 64.515625 
Q 56.984375 54.828125 56.984375 36.375 
Q 56.984375 17.96875 50.515625 8.265625 
Q 44.046875 -1.421875 31.78125 -1.421875 
Q 19.53125 -1.421875 13.0625 8.265625 
Q 6.59375 17.96875 6.59375 36.375 
Q 6.59375 54.828125 13.0625 64.515625 
Q 19.53125 74.21875 31.78125 74.21875 
z
" id="DejaVuSans-48"/>
       </defs>
       <use xlink:href="#DejaVuSans-48"/>
      </g>
     </g>
    </g>
    <g id="xtick_2">
     <g id="line2d_2">
      <g>
       <use style="stroke:#000000;stroke-width:0.8;" x="138.893758" xlink:href="#m37ea1f7689" y="307.584"/>
      </g>
     </g>
     <g id="text_2">
      <!-- 100 -->
      <g transform="translate(129.350008 322.182437)scale(0.1 -0.1)">
       <defs>
        <path d="M 12.40625 8.296875 
L 28.515625 8.296875 
L 28.515625 63.921875 
L 10.984375 60.40625 
L 10.984375 69.390625 
L 28.421875 72.90625 
L 38.28125 72.90625 
L 38.28125 8.296875 
L 54.390625 8.296875 
L 54.390625 0 
L 12.40625 0 
z
" id="DejaVuSans-49"/>
       </defs>
       <use xlink:href="#DejaVuSans-49"/>
       <use x="63.623047" xlink:href="#DejaVuSans-48"/>
       <use x="127.246094" xlink:href="#DejaVuSans-48"/>
      </g>
     </g>
    </g>
    <g id="xtick_3">
     <g id="line2d_3">
      <g>
       <use style="stroke:#000000;stroke-width:0.8;" x="203.95479" xlink:href="#m37ea1f7689" y="307.584"/>
      </g>
     </g>
     <g id="text_3">
      <!-- 200 -->
      <g transform="translate(194.41104 322.182437)scale(0.1 -0.1)">
       <defs>
        <path d="M 19.1875 8.296875 
L 53.609375 8.296875 
L 53.609375 0 
L 7.328125 0 
L 7.328125 8.296875 
Q 12.9375 14.109375 22.625 23.890625 
Q 32.328125 33.6875 34.8125 36.53125 
Q 39.546875 41.84375 41.421875 45.53125 
Q 43.3125 49.21875 43.3125 52.78125 
Q 43.3125 58.59375 39.234375 62.25 
Q 35.15625 65.921875 28.609375 65.921875 
Q 23.96875 65.921875 18.8125 64.3125 
Q 13.671875 62.703125 7.8125 59.421875 
L 7.8125 69.390625 
Q 13.765625 71.78125 18.9375 73 
Q 24.125 74.21875 28.421875 74.21875 
Q 39.75 74.21875 46.484375 68.546875 
Q 53.21875 62.890625 53.21875 53.421875 
Q 53.21875 48.921875 51.53125 44.890625 
Q 49.859375 40.875 45.40625 35.40625 
Q 44.1875 33.984375 37.640625 27.21875 
Q 31.109375 20.453125 19.1875 8.296875 
z
" id="DejaVuSans-50"/>
       </defs>
       <use xlink:href="#DejaVuSans-50"/>
       <use x="63.623047" xlink:href="#DejaVuSans-48"/>
       <use x="127.246094" xlink:href="#DejaVuSans-48"/>
      </g>
     </g>
    </g>
    <g id="xtick_4">
     <g id="line2d_4">
      <g>
       <use style="stroke:#000000;stroke-width:0.8;" x="269.015821" xlink:href="#m37ea1f7689" y="307.584"/>
      </g>
     </g>
     <g id="text_4">
      <!-- 300 -->
      <g transform="translate(259.472071 322.182437)scale(0.1 -0.1)">
       <defs>
        <path d="M 40.578125 39.3125 
Q 47.65625 37.796875 51.625 33 
Q 55.609375 28.21875 55.609375 21.1875 
Q 55.609375 10.40625 48.1875 4.484375 
Q 40.765625 -1.421875 27.09375 -1.421875 
Q 22.515625 -1.421875 17.65625 -0.515625 
Q 12.796875 0.390625 7.625 2.203125 
L 7.625 11.71875 
Q 11.71875 9.328125 16.59375 8.109375 
Q 21.484375 6.890625 26.8125 6.890625 
Q 36.078125 6.890625 40.9375 10.546875 
Q 45.796875 14.203125 45.796875 21.1875 
Q 45.796875 27.640625 41.28125 31.265625 
Q 36.765625 34.90625 28.71875 34.90625 
L 20.21875 34.90625 
L 20.21875 43.015625 
L 29.109375 43.015625 
Q 36.375 43.015625 40.234375 45.921875 
Q 44.09375 48.828125 44.09375 54.296875 
Q 44.09375 59.90625 40.109375 62.90625 
Q 36.140625 65.921875 28.71875 65.921875 
Q 24.65625 65.921875 20.015625 65.03125 
Q 15.375 64.15625 9.8125 62.3125 
L 9.8125 71.09375 
Q 15.4375 72.65625 20.34375 73.4375 
Q 25.25 74.21875 29.59375 74.21875 
Q 40.828125 74.21875 47.359375 69.109375 
Q 53.90625 64.015625 53.90625 55.328125 
Q 53.90625 49.265625 50.4375 45.09375 
Q 46.96875 40.921875 40.578125 39.3125 
z
" id="DejaVuSans-51"/>
       </defs>
       <use xlink:href="#DejaVuSans-51"/>
       <use x="63.623047" xlink:href="#DejaVuSans-48"/>
       <use x="127.246094" xlink:href="#DejaVuSans-48"/>
      </g>
     </g>
    </g>
    <g id="xtick_5">
     <g id="line2d_5">
      <g>
       <use style="stroke:#000000;stroke-width:0.8;" x="334.076852" xlink:href="#m37ea1f7689" y="307.584"/>
      </g>
     </g>
     <g id="text_5">
      <!-- 400 -->
      <g transform="translate(324.533102 322.182437)scale(0.1 -0.1)">
       <defs>
        <path d="M 37.796875 64.3125 
L 12.890625 25.390625 
L 37.796875 25.390625 
z
M 35.203125 72.90625 
L 47.609375 72.90625 
L 47.609375 25.390625 
L 58.015625 25.390625 
L 58.015625 17.1875 
L 47.609375 17.1875 
L 47.609375 0 
L 37.796875 0 
L 37.796875 17.1875 
L 4.890625 17.1875 
L 4.890625 26.703125 
z
" id="DejaVuSans-52"/>
       </defs>
       <use xlink:href="#DejaVuSans-52"/>
       <use x="63.623047" xlink:href="#DejaVuSans-48"/>
       <use x="127.246094" xlink:href="#DejaVuSans-48"/>
      </g>
     </g>
    </g>
    <g id="xtick_6">
     <g id="line2d_6">
      <g>
       <use style="stroke:#000000;stroke-width:0.8;" x="399.137883" xlink:href="#m37ea1f7689" y="307.584"/>
      </g>
     </g>
     <g id="text_6">
      <!-- 500 -->
      <g transform="translate(389.594133 322.182437)scale(0.1 -0.1)">
       <defs>
        <path d="M 10.796875 72.90625 
L 49.515625 72.90625 
L 49.515625 64.59375 
L 19.828125 64.59375 
L 19.828125 46.734375 
Q 21.96875 47.46875 24.109375 47.828125 
Q 26.265625 48.1875 28.421875 48.1875 
Q 40.625 48.1875 47.75 41.5 
Q 54.890625 34.8125 54.890625 23.390625 
Q 54.890625 11.625 47.5625 5.09375 
Q 40.234375 -1.421875 26.90625 -1.421875 
Q 22.3125 -1.421875 17.546875 -0.640625 
Q 12.796875 0.140625 7.71875 1.703125 
L 7.71875 11.625 
Q 12.109375 9.234375 16.796875 8.0625 
Q 21.484375 6.890625 26.703125 6.890625 
Q 35.15625 6.890625 40.078125 11.328125 
Q 45.015625 15.765625 45.015625 23.390625 
Q 45.015625 31 40.078125 35.4375 
Q 35.15625 39.890625 26.703125 39.890625 
Q 22.75 39.890625 18.8125 39.015625 
Q 14.890625 38.140625 10.796875 36.28125 
z
" id="DejaVuSans-53"/>
       </defs>
       <use xlink:href="#DejaVuSans-53"/>
       <use x="63.623047" xlink:href="#DejaVuSans-48"/>
       <use x="127.246094" xlink:href="#DejaVuSans-48"/>
      </g>
     </g>
    </g>
    <g id="text_7">
     <!-- epoch -->
     <g transform="translate(220.931875 335.860562)scale(0.1 -0.1)">
      <defs>
       <path d="M 56.203125 29.59375 
L 56.203125 25.203125 
L 14.890625 25.203125 
Q 15.484375 15.921875 20.484375 11.0625 
Q 25.484375 6.203125 34.421875 6.203125 
Q 39.59375 6.203125 44.453125 7.46875 
Q 49.3125 8.734375 54.109375 11.28125 
L 54.109375 2.78125 
Q 49.265625 0.734375 44.1875 -0.34375 
Q 39.109375 -1.421875 33.890625 -1.421875 
Q 20.796875 -1.421875 13.15625 6.1875 
Q 5.515625 13.8125 5.515625 26.8125 
Q 5.515625 40.234375 12.765625 48.109375 
Q 20.015625 56 32.328125 56 
Q 43.359375 56 49.78125 48.890625 
Q 56.203125 41.796875 56.203125 29.59375 
z
M 47.21875 32.234375 
Q 47.125 39.59375 43.09375 43.984375 
Q 39.0625 48.390625 32.421875 48.390625 
Q 24.90625 48.390625 20.390625 44.140625 
Q 15.875 39.890625 15.1875 32.171875 
z
" id="DejaVuSans-101"/>
       <path d="M 18.109375 8.203125 
L 18.109375 -20.796875 
L 9.078125 -20.796875 
L 9.078125 54.6875 
L 18.109375 54.6875 
L 18.109375 46.390625 
Q 20.953125 51.265625 25.265625 53.625 
Q 29.59375 56 35.59375 56 
Q 45.5625 56 51.78125 48.09375 
Q 58.015625 40.1875 58.015625 27.296875 
Q 58.015625 14.40625 51.78125 6.484375 
Q 45.5625 -1.421875 35.59375 -1.421875 
Q 29.59375 -1.421875 25.265625 0.953125 
Q 20.953125 3.328125 18.109375 8.203125 
z
M 48.6875 27.296875 
Q 48.6875 37.203125 44.609375 42.84375 
Q 40.53125 48.484375 33.40625 48.484375 
Q 26.265625 48.484375 22.1875 42.84375 
Q 18.109375 37.203125 18.109375 27.296875 
Q 18.109375 17.390625 22.1875 11.75 
Q 26.265625 6.109375 33.40625 6.109375 
Q 40.53125 6.109375 44.609375 11.75 
Q 48.6875 17.390625 48.6875 27.296875 
z
" id="DejaVuSans-112"/>
       <path d="M 30.609375 48.390625 
Q 23.390625 48.390625 19.1875 42.75 
Q 14.984375 37.109375 14.984375 27.296875 
Q 14.984375 17.484375 19.15625 11.84375 
Q 23.34375 6.203125 30.609375 6.203125 
Q 37.796875 6.203125 41.984375 11.859375 
Q 46.1875 17.53125 46.1875 27.296875 
Q 46.1875 37.015625 41.984375 42.703125 
Q 37.796875 48.390625 30.609375 48.390625 
z
M 30.609375 56 
Q 42.328125 56 49.015625 48.375 
Q 55.71875 40.765625 55.71875 27.296875 
Q 55.71875 13.875 49.015625 6.21875 
Q 42.328125 -1.421875 30.609375 -1.421875 
Q 18.84375 -1.421875 12.171875 6.21875 
Q 5.515625 13.875 5.515625 27.296875 
Q 5.515625 40.765625 12.171875 48.375 
Q 18.84375 56 30.609375 56 
z
" id="DejaVuSans-111"/>
       <path d="M 48.78125 52.59375 
L 48.78125 44.1875 
Q 44.96875 46.296875 41.140625 47.34375 
Q 37.3125 48.390625 33.40625 48.390625 
Q 24.65625 48.390625 19.8125 42.84375 
Q 14.984375 37.3125 14.984375 27.296875 
Q 14.984375 17.28125 19.8125 11.734375 
Q 24.65625 6.203125 33.40625 6.203125 
Q 37.3125 6.203125 41.140625 7.25 
Q 44.96875 8.296875 48.78125 10.40625 
L 48.78125 2.09375 
Q 45.015625 0.34375 40.984375 -0.53125 
Q 36.96875 -1.421875 32.421875 -1.421875 
Q 20.0625 -1.421875 12.78125 6.34375 
Q 5.515625 14.109375 5.515625 27.296875 
Q 5.515625 40.671875 12.859375 48.328125 
Q 20.21875 56 33.015625 56 
Q 37.15625 56 41.109375 55.140625 
Q 45.0625 54.296875 48.78125 52.59375 
z
" id="DejaVuSans-99"/>
       <path d="M 54.890625 33.015625 
L 54.890625 0 
L 45.90625 0 
L 45.90625 32.71875 
Q 45.90625 40.484375 42.875 44.328125 
Q 39.84375 48.1875 33.796875 48.1875 
Q 26.515625 48.1875 22.3125 43.546875 
Q 18.109375 38.921875 18.109375 30.90625 
L 18.109375 0 
L 9.078125 0 
L 9.078125 75.984375 
L 18.109375 75.984375 
L 18.109375 46.1875 
Q 21.34375 51.125 25.703125 53.5625 
Q 30.078125 56 35.796875 56 
Q 45.21875 56 50.046875 50.171875 
Q 54.890625 44.34375 54.890625 33.015625 
z
" id="DejaVuSans-104"/>
      </defs>
      <use xlink:href="#DejaVuSans-101"/>
      <use x="61.523438" xlink:href="#DejaVuSans-112"/>
      <use x="125" xlink:href="#DejaVuSans-111"/>
      <use x="186.181641" xlink:href="#DejaVuSans-99"/>
      <use x="241.162109" xlink:href="#DejaVuSans-104"/>
     </g>
    </g>
   </g>
   <g id="matplotlib.axis_2">
    <g id="ytick_1">
     <g id="line2d_7">
      <defs>
       <path d="M 0 0 
L -3.5 0 
" id="md6bf7a1195" style="stroke:#000000;stroke-width:0.8;"/>
      </defs>
      <g>
       <use style="stroke:#000000;stroke-width:0.8;" x="57.6" xlink:href="#md6bf7a1195" y="256.44015"/>
      </g>
     </g>
     <g id="text_8">
      <!-- 0.2 -->
      <g transform="translate(34.696875 260.239368)scale(0.1 -0.1)">
       <defs>
        <path d="M 10.6875 12.40625 
L 21 12.40625 
L 21 0 
L 10.6875 0 
z
" id="DejaVuSans-46"/>
       </defs>
       <use xlink:href="#DejaVuSans-48"/>
       <use x="63.623047" xlink:href="#DejaVuSans-46"/>
       <use x="95.410156" xlink:href="#DejaVuSans-50"/>
      </g>
     </g>
    </g>
    <g id="ytick_2">
     <g id="line2d_8">
      <g>
       <use style="stroke:#000000;stroke-width:0.8;" x="57.6" xlink:href="#md6bf7a1195" y="202.319945"/>
      </g>
     </g>
     <g id="text_9">
      <!-- 0.4 -->
      <g transform="translate(34.696875 206.119164)scale(0.1 -0.1)">
       <use xlink:href="#DejaVuSans-48"/>
       <use x="63.623047" xlink:href="#DejaVuSans-46"/>
       <use x="95.410156" xlink:href="#DejaVuSans-52"/>
      </g>
     </g>
    </g>
    <g id="ytick_3">
     <g id="line2d_9">
      <g>
       <use style="stroke:#000000;stroke-width:0.8;" x="57.6" xlink:href="#md6bf7a1195" y="148.199741"/>
      </g>
     </g>
     <g id="text_10">
      <!-- 0.6 -->
      <g transform="translate(34.696875 151.99896)scale(0.1 -0.1)">
       <defs>
        <path d="M 33.015625 40.375 
Q 26.375 40.375 22.484375 35.828125 
Q 18.609375 31.296875 18.609375 23.390625 
Q 18.609375 15.53125 22.484375 10.953125 
Q 26.375 6.390625 33.015625 6.390625 
Q 39.65625 6.390625 43.53125 10.953125 
Q 47.40625 15.53125 47.40625 23.390625 
Q 47.40625 31.296875 43.53125 35.828125 
Q 39.65625 40.375 33.015625 40.375 
z
M 52.59375 71.296875 
L 52.59375 62.3125 
Q 48.875 64.0625 45.09375 64.984375 
Q 41.3125 65.921875 37.59375 65.921875 
Q 27.828125 65.921875 22.671875 59.328125 
Q 17.53125 52.734375 16.796875 39.40625 
Q 19.671875 43.65625 24.015625 45.921875 
Q 28.375 48.1875 33.59375 48.1875 
Q 44.578125 48.1875 50.953125 41.515625 
Q 57.328125 34.859375 57.328125 23.390625 
Q 57.328125 12.15625 50.6875 5.359375 
Q 44.046875 -1.421875 33.015625 -1.421875 
Q 20.359375 -1.421875 13.671875 8.265625 
Q 6.984375 17.96875 6.984375 36.375 
Q 6.984375 53.65625 15.1875 63.9375 
Q 23.390625 74.21875 37.203125 74.21875 
Q 40.921875 74.21875 44.703125 73.484375 
Q 48.484375 72.75 52.59375 71.296875 
z
" id="DejaVuSans-54"/>
       </defs>
       <use xlink:href="#DejaVuSans-48"/>
       <use x="63.623047" xlink:href="#DejaVuSans-46"/>
       <use x="95.410156" xlink:href="#DejaVuSans-54"/>
      </g>
     </g>
    </g>
    <g id="ytick_4">
     <g id="line2d_10">
      <g>
       <use style="stroke:#000000;stroke-width:0.8;" x="57.6" xlink:href="#md6bf7a1195" y="94.079537"/>
      </g>
     </g>
     <g id="text_11">
      <!-- 0.8 -->
      <g transform="translate(34.696875 97.878756)scale(0.1 -0.1)">
       <defs>
        <path d="M 31.78125 34.625 
Q 24.75 34.625 20.71875 30.859375 
Q 16.703125 27.09375 16.703125 20.515625 
Q 16.703125 13.921875 20.71875 10.15625 
Q 24.75 6.390625 31.78125 6.390625 
Q 38.8125 6.390625 42.859375 10.171875 
Q 46.921875 13.96875 46.921875 20.515625 
Q 46.921875 27.09375 42.890625 30.859375 
Q 38.875 34.625 31.78125 34.625 
z
M 21.921875 38.8125 
Q 15.578125 40.375 12.03125 44.71875 
Q 8.5 49.078125 8.5 55.328125 
Q 8.5 64.0625 14.71875 69.140625 
Q 20.953125 74.21875 31.78125 74.21875 
Q 42.671875 74.21875 48.875 69.140625 
Q 55.078125 64.0625 55.078125 55.328125 
Q 55.078125 49.078125 51.53125 44.71875 
Q 48 40.375 41.703125 38.8125 
Q 48.828125 37.15625 52.796875 32.3125 
Q 56.78125 27.484375 56.78125 20.515625 
Q 56.78125 9.90625 50.3125 4.234375 
Q 43.84375 -1.421875 31.78125 -1.421875 
Q 19.734375 -1.421875 13.25 4.234375 
Q 6.78125 9.90625 6.78125 20.515625 
Q 6.78125 27.484375 10.78125 32.3125 
Q 14.796875 37.15625 21.921875 38.8125 
z
M 18.3125 54.390625 
Q 18.3125 48.734375 21.84375 45.5625 
Q 25.390625 42.390625 31.78125 42.390625 
Q 38.140625 42.390625 41.71875 45.5625 
Q 45.3125 48.734375 45.3125 54.390625 
Q 45.3125 60.0625 41.71875 63.234375 
Q 38.140625 66.40625 31.78125 66.40625 
Q 25.390625 66.40625 21.84375 63.234375 
Q 18.3125 60.0625 18.3125 54.390625 
z
" id="DejaVuSans-56"/>
       </defs>
       <use xlink:href="#DejaVuSans-48"/>
       <use x="63.623047" xlink:href="#DejaVuSans-46"/>
       <use x="95.410156" xlink:href="#DejaVuSans-56"/>
      </g>
     </g>
    </g>
    <g id="text_12">
     <!-- loss value -->
     <g transform="translate(28.617187 199.432687)rotate(-90)scale(0.1 -0.1)">
      <defs>
       <path d="M 9.421875 75.984375 
L 18.40625 75.984375 
L 18.40625 0 
L 9.421875 0 
z
" id="DejaVuSans-108"/>
       <path d="M 44.28125 53.078125 
L 44.28125 44.578125 
Q 40.484375 46.53125 36.375 47.5 
Q 32.28125 48.484375 27.875 48.484375 
Q 21.1875 48.484375 17.84375 46.4375 
Q 14.5 44.390625 14.5 40.28125 
Q 14.5 37.15625 16.890625 35.375 
Q 19.28125 33.59375 26.515625 31.984375 
L 29.59375 31.296875 
Q 39.15625 29.25 43.1875 25.515625 
Q 47.21875 21.78125 47.21875 15.09375 
Q 47.21875 7.46875 41.1875 3.015625 
Q 35.15625 -1.421875 24.609375 -1.421875 
Q 20.21875 -1.421875 15.453125 -0.5625 
Q 10.6875 0.296875 5.421875 2 
L 5.421875 11.28125 
Q 10.40625 8.6875 15.234375 7.390625 
Q 20.0625 6.109375 24.8125 6.109375 
Q 31.15625 6.109375 34.5625 8.28125 
Q 37.984375 10.453125 37.984375 14.40625 
Q 37.984375 18.0625 35.515625 20.015625 
Q 33.0625 21.96875 24.703125 23.78125 
L 21.578125 24.515625 
Q 13.234375 26.265625 9.515625 29.90625 
Q 5.8125 33.546875 5.8125 39.890625 
Q 5.8125 47.609375 11.28125 51.796875 
Q 16.75 56 26.8125 56 
Q 31.78125 56 36.171875 55.265625 
Q 40.578125 54.546875 44.28125 53.078125 
z
" id="DejaVuSans-115"/>
       <path id="DejaVuSans-32"/>
       <path d="M 2.984375 54.6875 
L 12.5 54.6875 
L 29.59375 8.796875 
L 46.6875 54.6875 
L 56.203125 54.6875 
L 35.6875 0 
L 23.484375 0 
z
" id="DejaVuSans-118"/>
       <path d="M 34.28125 27.484375 
Q 23.390625 27.484375 19.1875 25 
Q 14.984375 22.515625 14.984375 16.5 
Q 14.984375 11.71875 18.140625 8.90625 
Q 21.296875 6.109375 26.703125 6.109375 
Q 34.1875 6.109375 38.703125 11.40625 
Q 43.21875 16.703125 43.21875 25.484375 
L 43.21875 27.484375 
z
M 52.203125 31.203125 
L 52.203125 0 
L 43.21875 0 
L 43.21875 8.296875 
Q 40.140625 3.328125 35.546875 0.953125 
Q 30.953125 -1.421875 24.3125 -1.421875 
Q 15.921875 -1.421875 10.953125 3.296875 
Q 6 8.015625 6 15.921875 
Q 6 25.140625 12.171875 29.828125 
Q 18.359375 34.515625 30.609375 34.515625 
L 43.21875 34.515625 
L 43.21875 35.40625 
Q 43.21875 41.609375 39.140625 45 
Q 35.0625 48.390625 27.6875 48.390625 
Q 23 48.390625 18.546875 47.265625 
Q 14.109375 46.140625 10.015625 43.890625 
L 10.015625 52.203125 
Q 14.9375 54.109375 19.578125 55.046875 
Q 24.21875 56 28.609375 56 
Q 40.484375 56 46.34375 49.84375 
Q 52.203125 43.703125 52.203125 31.203125 
z
" id="DejaVuSans-97"/>
       <path d="M 8.5 21.578125 
L 8.5 54.6875 
L 17.484375 54.6875 
L 17.484375 21.921875 
Q 17.484375 14.15625 20.5 10.265625 
Q 23.53125 6.390625 29.59375 6.390625 
Q 36.859375 6.390625 41.078125 11.03125 
Q 45.3125 15.671875 45.3125 23.6875 
L 45.3125 54.6875 
L 54.296875 54.6875 
L 54.296875 0 
L 45.3125 0 
L 45.3125 8.40625 
Q 42.046875 3.421875 37.71875 1 
Q 33.40625 -1.421875 27.6875 -1.421875 
Q 18.265625 -1.421875 13.375 4.4375 
Q 8.5 10.296875 8.5 21.578125 
z
M 31.109375 56 
z
" id="DejaVuSans-117"/>
      </defs>
      <use xlink:href="#DejaVuSans-108"/>
      <use x="27.783203" xlink:href="#DejaVuSans-111"/>
      <use x="88.964844" xlink:href="#DejaVuSans-115"/>
      <use x="141.064453" xlink:href="#DejaVuSans-115"/>
      <use x="193.164062" xlink:href="#DejaVuSans-32"/>
      <use x="224.951172" xlink:href="#DejaVuSans-118"/>
      <use x="284.130859" xlink:href="#DejaVuSans-97"/>
      <use x="345.410156" xlink:href="#DejaVuSans-108"/>
      <use x="373.193359" xlink:href="#DejaVuSans-117"/>
      <use x="436.572266" xlink:href="#DejaVuSans-101"/>
     </g>
    </g>
   </g>
   <g id="line2d_11">
    <path clip-path="url(#p888df3d4fb)" d="M 73.832727 86.497883 
L 73.832727 211.949719 
L 74.483338 266.024442 
L 74.483338 265.412974 
L 75.133948 259.75034 
L 75.133948 267.990468 
L 75.133948 267.57412 
L 75.784558 266.043325 
L 75.784558 271.057682 
L 75.784558 270.827665 
L 76.435169 269.549875 
L 76.435169 273.503363 
L 76.435169 273.358907 
L 77.085779 270.842121 
L 77.085779 274.630272 
L 77.085779 274.354042 
L 77.736389 272.335573 
L 77.736389 276.377792 
L 77.736389 276.074832 
L 78.386999 273.352733 
L 78.386999 276.479903 
L 78.386999 276.39547 
L 79.03761 275.511287 
L 79.03761 278.081492 
L 79.03761 277.904526 
L 79.68822 275.122907 
L 79.68822 278.5902 
L 79.68822 278.41391 
L 80.33883 186.606569 
L 80.33883 200.390683 
L 80.33883 236.674362 
L 80.989441 256.065741 
L 80.989441 255.019743 
L 81.640051 256.194862 
L 81.640051 268.490727 
L 81.640051 268.048103 
L 82.290661 264.904878 
L 82.290661 273.84264 
L 82.290661 273.578696 
L 82.941272 271.291421 
L 82.941272 277.392277 
L 82.941272 277.221453 
L 83.591882 274.39849 
L 83.591882 279.628484 
L 83.591882 279.428084 
L 84.242492 276.88367 
L 84.242492 280.141073 
L 84.242492 279.931044 
L 84.893103 279.11537 
L 84.893103 281.776904 
L 84.893103 281.463508 
L 85.543713 279.807152 
L 85.543713 282.181157 
L 85.543713 281.865565 
L 86.194323 280.636262 
L 86.194323 282.814885 
L 86.194323 282.56097 
L 86.844934 184.689362 
L 86.844934 198.496076 
L 86.844934 233.939043 
L 87.495544 258.796311 
L 87.495544 256.225485 
L 88.146154 255.10452 
L 88.146154 268.402322 
L 88.796764 264.571825 
L 88.796764 274.049203 
L 88.796764 273.852332 
L 89.447375 272.617545 
L 89.447375 277.780308 
L 89.447375 277.663811 
L 90.097985 276.472762 
L 90.097985 280.317566 
L 90.097985 280.005418 
L 90.748595 278.358471 
L 90.748595 281.726411 
L 90.748595 281.444135 
L 91.399206 281.340931 
L 91.399206 282.884084 
L 91.399206 282.484635 
L 92.049816 281.280324 
L 92.049816 283.435106 
L 92.049816 283.1369 
L 92.700426 282.606061 
L 92.700426 284.523862 
L 92.700426 284.228238 
L 93.351037 181.345885 
L 93.351037 192.880248 
L 93.351037 229.256523 
L 94.001647 261.802065 
L 94.001647 256.684362 
L 94.652257 252.822792 
L 94.652257 267.060472 
L 95.302868 266.781537 
L 95.302868 274.23273 
L 95.302868 274.010702 
L 95.953478 272.779683 
L 95.953478 278.848883 
L 95.953478 278.562403 
L 96.604088 276.243261 
L 96.604088 281.628185 
L 96.604088 281.389174 
L 97.254698 279.421089 
L 97.254698 282.295358 
L 97.254698 282.213056 
L 97.905309 280.407991 
L 97.905309 283.72831 
L 97.905309 283.546262 
L 98.555919 281.258348 
L 98.555919 284.922498 
L 98.555919 284.708761 
L 99.206529 281.32785 
L 99.206529 285.753044 
L 99.206529 285.461576 
L 99.85714 179.526638 
L 99.85714 197.296825 
L 99.85714 226.481379 
L 100.50775 263.093724 
L 100.50775 258.458656 
L 101.15836 253.250628 
L 101.15836 266.537886 
L 101.808971 269.589827 
L 101.808971 275.048791 
L 101.808971 274.682911 
L 102.459581 274.307195 
L 102.459581 279.555446 
L 102.459581 279.308298 
L 103.110191 276.654004 
L 103.110191 282.175809 
L 103.760802 280.654606 
L 103.760802 284.01952 
L 103.760802 283.831157 
L 104.411412 282.117802 
L 104.411412 285.280289 
L 104.411412 285.16497 
L 105.062022 284.696594 
L 105.062022 286.289642 
L 105.062022 285.969191 
L 105.712633 283.316598 
L 105.712633 286.171654 
L 105.712633 285.974863 
L 106.363243 179.499533 
L 106.363243 195.491108 
L 106.363243 224.113955 
L 107.013853 265.538568 
L 107.013853 259.822195 
L 107.664463 251.958656 
L 107.664463 266.110037 
L 108.315074 270.158607 
L 108.315074 275.725424 
L 108.315074 275.632553 
L 108.965684 273.296015 
L 108.965684 279.890467 
L 108.965684 279.828591 
L 109.616294 277.910155 
L 109.616294 283.077649 
L 109.616294 282.869376 
L 110.266905 281.425054 
L 110.266905 284.382145 
L 110.266905 284.347025 
L 110.917515 282.594104 
L 110.917515 286.228578 
L 110.917515 286.063171 
L 111.568125 284.713517 
L 111.568125 287.041696 
L 111.568125 286.649652 
L 112.218736 282.968994 
L 112.218736 287.564484 
L 112.218736 287.362772 
L 112.869346 174.939859 
L 112.869346 191.3021 
L 112.869346 220.880262 
L 113.519956 265.675631 
L 113.519956 261.470737 
L 114.170567 253.722895 
L 114.170567 265.619308 
L 114.821177 267.608761 
L 114.821177 276.428565 
L 114.821177 276.138221 
L 115.471787 272.168447 
L 115.471787 279.774138 
L 115.471787 279.686245 
L 116.122398 278.31115 
L 116.122398 283.286947 
L 116.773008 284.479752 
L 116.773008 283.974263 
L 116.773008 285.118299 
L 116.773008 285.090838 
L 117.423618 282.724243 
L 117.423618 286.480275 
L 117.423618 286.319971 
L 118.074228 285.044613 
L 118.074228 287.658903 
L 118.724839 283.930896 
L 118.724839 288.514956 
L 119.375449 171.284897 
L 119.375449 187.699102 
L 119.375449 215.543109 
L 120.026059 266.777194 
L 120.026059 263.557741 
L 120.67667 254.379506 
L 120.67667 265.476717 
L 121.32728 270.560064 
L 121.32728 277.40033 
L 121.32728 277.030526 
L 121.97789 274.496002 
L 121.97789 280.4914 
L 121.97789 280.256466 
L 122.628501 279.871596 
L 122.628501 283.906672 
L 123.279111 282.771951 
L 123.279111 286.43255 
L 123.279111 286.150406 
L 123.929721 285.62283 
L 123.929721 288.219264 
L 123.929721 287.970681 
L 124.580332 285.202196 
L 124.580332 288.785079 
L 124.580332 288.676562 
L 125.230942 288.920245 
L 125.230942 290.084379 
L 125.230942 289.972087 
L 125.881552 169.631408 
L 125.881552 185.829686 
L 125.881552 213.41923 
L 126.532163 266.910993 
L 126.532163 264.243517 
L 127.182773 254.125122 
L 127.182773 265.405122 
L 127.833383 266.815448 
L 127.833383 278.24978 
L 127.833383 277.705245 
L 128.483993 274.858205 
L 128.483993 281.265927 
L 128.483993 281.074986 
L 129.134604 282.76035 
L 129.134604 285.41959 
L 129.134604 285.102928 
L 129.785214 282.883028 
L 129.785214 287.09996 
L 129.785214 286.856788 
L 130.435824 285.373152 
L 130.435824 288.662924 
L 130.435824 288.444915 
L 131.086435 288.101535 
L 131.086435 289.928313 
L 131.086435 289.576748 
L 131.737045 288.061974 
L 131.737045 291.277033 
L 131.737045 291.03958 
L 132.387655 170.062651 
L 132.387655 189.105492 
L 132.387655 208.57096 
L 133.038266 266.329407 
L 133.038266 264.43618 
L 133.688876 254.79414 
L 133.688876 264.630247 
L 134.339486 272.899062 
L 134.339486 276.963278 
L 134.990097 278.111279 
L 134.990097 281.358154 
L 134.990097 281.27023 
L 135.640707 281.536732 
L 135.640707 285.320863 
L 135.640707 285.095822 
L 136.291317 285.192093 
L 136.291317 287.66041 
L 136.941927 284.92263 
L 136.941927 289.064359 
L 136.941927 288.783294 
L 137.592538 286.341836 
L 137.592538 290.225759 
L 137.592538 290.093039 
L 138.243148 289.396609 
L 138.243148 292.204996 
L 138.243148 292.108929 
L 138.893758 162.603824 
L 138.893758 178.397751 
L 138.893758 204.495239 
L 139.544369 265.817605 
L 139.544369 266.84025 
L 139.544369 266.692414 
L 140.194979 268.185876 
L 140.194979 272.889171 
L 140.194979 272.281393 
L 140.845589 268.92593 
L 140.845589 274.544315 
L 140.845589 274.311948 
L 141.4962 272.494307 
L 141.4962 278.132337 
L 141.4962 277.655875 
L 142.14681 275.259315 
L 142.14681 281.008207 
L 142.14681 280.584006 
L 142.79742 278.394493 
L 142.79742 282.40272 
L 142.79742 282.056362 
L 143.448031 281.405407 
L 143.448031 284.161997 
L 143.448031 283.886878 
L 144.098641 280.070453 
L 144.098641 285.076458 
L 144.098641 284.8572 
L 144.749251 284.738328 
L 144.749251 284.788185 
L 144.749251 286.124954 
L 144.749251 285.997998 
L 145.399862 161.425933 
L 145.399862 180.67911 
L 146.050472 208.346219 
L 146.050472 236.035413 
L 146.701082 257.738011 
L 146.701082 268.430635 
L 146.701082 268.309576 
L 147.351692 267.474511 
L 147.351692 273.361089 
L 147.351692 272.996687 
L 148.002303 269.069322 
L 148.002303 276.163812 
L 148.002303 276.154743 
L 148.652913 273.541677 
L 148.652913 280.191621 
L 148.652913 279.857704 
L 149.303523 277.064558 
L 149.303523 282.382487 
L 149.303523 282.28628 
L 149.954134 279.397073 
L 149.954134 284.572597 
L 149.954134 284.505248 
L 150.604744 282.679132 
L 150.604744 285.342213 
L 150.604744 285.119346 
L 151.255354 284.120302 
L 151.255354 286.760852 
L 151.255354 286.429134 
L 151.905965 157.558374 
L 151.905965 176.698867 
L 152.556575 203.14464 
L 152.556575 230.75846 
L 153.207185 253.395584 
L 153.207185 266.559653 
L 153.857796 266.274527 
L 153.857796 274.294303 
L 153.857796 273.757769 
L 154.508406 268.954733 
L 154.508406 276.214705 
L 154.508406 275.852976 
L 155.159016 274.470184 
L 155.159016 280.204829 
L 155.159016 279.970718 
L 155.809627 275.865643 
L 155.809627 282.391403 
L 155.809627 282.372102 
L 156.460237 278.377273 
L 156.460237 285.113437 
L 156.460237 284.626726 
L 157.110847 281.42951 
L 157.110847 285.387555 
L 157.110847 285.253707 
L 157.761457 283.312924 
L 157.761457 287.467314 
L 157.761457 287.207301 
L 158.412068 158.104666 
L 158.412068 174.136967 
L 159.062678 198.245166 
L 159.062678 224.123355 
L 159.713288 246.513943 
L 159.713288 263.379497 
L 160.363899 268.659945 
L 160.363899 274.920703 
L 160.363899 274.550512 
L 161.014509 272.728461 
L 161.014509 277.280808 
L 161.014509 276.864946 
L 161.665119 274.697608 
L 161.665119 280.248433 
L 161.665119 279.902869 
L 162.31573 276.516085 
L 162.31573 282.405279 
L 162.31573 282.30849 
L 162.96634 279.445663 
L 162.96634 284.566029 
L 162.96634 284.269827 
L 163.61695 281.302614 
L 163.61695 286.337319 
L 163.61695 286.054989 
L 164.267561 282.541884 
L 164.267561 287.098278 
L 164.267561 286.9202 
L 164.918171 155.688466 
L 164.918171 171.870701 
L 165.568781 194.984504 
L 165.568781 219.976342 
L 166.219392 247.368525 
L 166.219392 259.649266 
L 166.870002 266.332818 
L 166.870002 273.762259 
L 166.870002 273.658158 
L 167.520612 273.849597 
L 167.520612 278.972298 
L 167.520612 278.477295 
L 168.171222 275.381549 
L 168.171222 279.759695 
L 168.171222 279.571807 
L 168.821833 275.932014 
L 168.821833 282.370693 
L 168.821833 281.843743 
L 169.472443 281.122757 
L 169.472443 284.892802 
L 169.472443 284.566474 
L 170.123053 282.698693 
L 170.123053 286.934708 
L 170.123053 286.740678 
L 170.773664 282.495386 
L 170.773664 286.971389 
L 170.773664 286.856982 
L 171.424274 157.113631 
L 171.424274 167.552515 
L 172.074884 185.330694 
L 172.074884 212.35994 
L 172.725495 235.802635 
L 172.725495 253.21362 
L 173.376105 262.169968 
L 173.376105 271.95228 
L 173.376105 271.925764 
L 174.026715 271.10536 
L 174.026715 277.911318 
L 174.026715 277.634686 
L 174.677326 275.464997 
L 174.677326 279.324156 
L 174.677326 279.104017 
L 175.327936 276.461621 
L 175.327936 282.366253 
L 175.327936 281.833427 
L 175.978546 280.305319 
L 175.978546 283.294926 
L 175.978546 283.169059 
L 176.629156 281.485927 
L 176.629156 286.004062 
L 176.629156 285.838096 
L 177.279767 282.648384 
L 177.279767 286.368871 
L 177.279767 286.050494 
L 177.930377 151.058985 
L 177.930377 164.875442 
L 178.580987 184.533031 
L 178.580987 206.747957 
L 179.231598 227.144796 
L 179.231598 246.821237 
L 179.882208 255.999164 
L 179.882208 269.134254 
L 180.532818 269.020342 
L 180.532818 276.124776 
L 180.532818 276.071797 
L 181.183429 274.453268 
L 181.183429 278.763515 
L 181.183429 278.196038 
L 181.834039 277.786806 
L 181.834039 281.180406 
L 181.834039 281.127902 
L 182.484649 279.237135 
L 182.484649 283.853279 
L 182.484649 283.683071 
L 183.13526 281.778563 
L 183.13526 285.299571 
L 183.13526 285.108423 
L 183.78587 280.963688 
L 183.78587 285.288734 
L 183.78587 285.273722 
L 184.43648 150.527515 
L 184.43648 162.151607 
L 185.087091 179.624751 
L 185.087091 201.694082 
L 185.737701 221.94691 
L 185.737701 242.332187 
L 186.388311 253.301882 
L 186.388311 265.79263 
L 187.038921 267.296119 
L 187.038921 275.074949 
L 187.038921 274.589689 
L 187.689532 273.142724 
L 187.689532 279.302513 
L 187.689532 278.912465 
L 188.340142 277.341766 
L 188.340142 280.942462 
L 188.340142 280.714181 
L 188.990752 279.59844 
L 188.990752 282.74757 
L 189.641363 282.33847 
L 189.641363 285.393579 
L 189.641363 285.040657 
L 190.291973 282.395269 
L 190.291973 285.951697 
L 190.291973 285.521236 
L 190.942583 144.885032 
L 190.942583 160.255016 
L 191.593194 177.931641 
L 191.593194 196.88108 
L 192.243804 216.159265 
L 192.243804 235.116966 
L 192.894414 247.748141 
L 192.894414 261.806907 
L 193.545025 264.716487 
L 193.545025 273.97193 
L 194.195635 272.389037 
L 194.195635 279.396652 
L 194.195635 279.000903 
L 194.846245 274.040642 
L 194.846245 280.907369 
L 194.846245 280.619846 
L 195.496856 277.356432 
L 195.496856 282.943746 
L 195.496856 282.535036 
L 196.147466 278.284777 
L 196.147466 284.111585 
L 196.147466 284.106071 
L 196.798076 283.888835 
L 196.798076 286.482104 
L 196.798076 286.066633 
L 197.448686 147.029393 
L 197.448686 159.190659 
L 198.099297 172.406303 
L 198.099297 193.109128 
L 198.749907 214.808725 
L 198.749907 229.357701 
L 199.400517 242.856929 
L 199.400517 257.245183 
L 200.051128 261.918435 
L 200.051128 271.187451 
L 200.051128 271.155873 
L 200.701738 269.290234 
L 200.701738 276.913461 
L 200.701738 276.735874 
L 201.352348 276.150394 
L 201.352348 280.733437 
L 201.352348 280.245153 
L 202.002959 278.257723 
L 202.002959 282.204843 
L 202.002959 281.992593 
L 202.653569 278.100424 
L 202.653569 283.780794 
L 202.653569 283.617696 
L 203.304179 283.727274 
L 203.304179 285.561756 
L 203.304179 285.321843 
L 203.95479 145.493388 
L 203.95479 157.872887 
L 204.6054 167.791806 
L 204.6054 188.511549 
L 205.25601 206.32585 
L 205.25601 224.552649 
L 205.906621 235.787708 
L 205.906621 251.294012 
L 206.557231 256.742351 
L 206.557231 267.487514 
L 207.207841 270.37968 
L 207.207841 275.761497 
L 207.207841 275.488785 
L 207.858451 275.219024 
L 207.858451 279.798608 
L 207.858451 279.436988 
L 208.509062 277.436436 
L 208.509062 281.26102 
L 208.509062 280.815337 
L 209.159672 278.890031 
L 209.159672 283.880035 
L 209.159672 283.26058 
L 209.810282 280.030679 
L 209.810282 284.760735 
L 209.810282 284.732531 
L 210.460893 142.809478 
L 210.460893 154.961258 
L 211.111503 166.091237 
L 211.111503 184.483578 
L 211.762113 201.986919 
L 211.762113 218.856095 
L 212.412724 231.463276 
L 212.412724 246.467296 
L 213.063334 251.317945 
L 213.063334 263.820673 
L 213.713944 265.325597 
L 213.713944 273.425875 
L 213.713944 273.174865 
L 214.364555 272.210701 
L 214.364555 278.247954 
L 214.364555 277.885586 
L 215.015165 276.340491 
L 215.015165 280.495346 
L 215.015165 280.383912 
L 215.665775 279.872394 
L 215.665775 282.000543 
L 216.316385 280.220246 
L 216.316385 284.151004 
L 216.316385 284.025583 
L 216.966996 144.758322 
L 216.966996 155.051355 
L 217.617606 166.818449 
L 217.617606 181.485987 
L 218.268216 197.919052 
L 218.268216 215.044942 
L 218.918827 225.92918 
L 218.918827 241.22476 
L 219.569437 247.020138 
L 219.569437 259.290098 
L 220.220047 261.749297 
L 220.220047 269.255456 
L 220.870658 269.858558 
L 220.870658 277.343115 
L 220.870658 276.783799 
L 221.521268 276.071628 
L 221.521268 280.067308 
L 221.521268 279.912786 
L 222.171878 276.524984 
L 222.171878 282.639614 
L 222.171878 282.428571 
L 222.822489 276.660758 
L 222.822489 282.593098 
L 222.822489 282.423914 
L 223.473099 142.397928 
L 223.473099 153.568871 
L 224.123709 164.140086 
L 224.123709 178.921489 
L 224.77432 192.098705 
L 224.77432 210.036943 
L 225.42493 220.679036 
L 225.42493 236.36142 
L 226.07554 244.623434 
L 226.07554 254.534389 
L 226.72615 256.530004 
L 226.72615 266.413034 
L 226.72615 266.273714 
L 227.376761 263.71202 
L 227.376761 273.756892 
L 227.376761 273.552998 
L 228.027371 274.363054 
L 228.027371 278.821877 
L 228.027371 278.239471 
L 228.677981 272.912603 
L 228.677981 280.460789 
L 228.677981 280.188184 
L 229.328592 278.01244 
L 229.328592 282.46885 
L 229.979202 143.58656 
L 229.979202 153.518129 
L 230.629812 160.857883 
L 230.629812 177.595816 
L 231.280423 188.728107 
L 231.280423 205.872037 
L 231.931033 214.230244 
L 231.931033 229.222496 
L 232.581643 238.37861 
L 232.581643 251.529542 
L 233.232254 253.526927 
L 233.232254 262.777026 
L 233.882864 263.492895 
L 233.882864 271.663979 
L 233.882864 271.550614 
L 234.533474 269.549363 
L 234.533474 275.012073 
L 234.533474 274.852454 
L 235.184085 274.099945 
L 235.184085 279.402095 
L 235.184085 279.179947 
L 235.834695 275.328726 
L 235.834695 281.548891 
L 235.834695 281.350723 
L 236.485305 138.827321 
L 236.485305 152.501876 
L 237.135915 160.927367 
L 237.135915 175.199498 
L 237.786526 187.026635 
L 237.786526 202.266319 
L 238.437136 213.23991 
L 238.437136 226.113654 
L 239.087746 230.98392 
L 239.087746 244.219688 
L 239.738357 245.225037 
L 239.738357 257.787705 
L 239.738357 257.743911 
L 240.388967 259.851977 
L 240.388967 268.036024 
L 241.039577 267.777826 
L 241.039577 273.728123 
L 241.690188 271.125227 
L 241.690188 277.190158 
L 241.690188 276.974742 
L 242.340798 274.557486 
L 242.340798 280.814185 
L 242.340798 280.432168 
L 242.991408 139.489307 
L 242.991408 150.919579 
L 243.642019 160.547189 
L 243.642019 173.987826 
L 244.292629 183.236858 
L 244.292629 198.104195 
L 244.943239 205.707107 
L 244.943239 220.629375 
L 245.59385 227.121667 
L 245.59385 239.468726 
L 246.24446 244.786644 
L 246.24446 254.845934 
L 246.89507 255.952829 
L 246.89507 263.928987 
L 246.89507 263.912745 
L 247.54568 261.412288 
L 247.54568 269.781645 
L 247.54568 269.702415 
L 248.196291 267.767294 
L 248.196291 275.398516 
L 248.196291 275.09366 
L 248.846901 272.823123 
L 248.846901 278.487406 
L 248.846901 277.905666 
L 249.497511 139.315113 
L 249.497511 150.193271 
L 250.148122 153.341749 
L 250.148122 171.577683 
L 250.798732 181.915781 
L 250.798732 195.469841 
L 251.449342 201.056352 
L 251.449342 216.590907 
L 252.099953 223.452576 
L 252.099953 234.347996 
L 252.750563 235.911748 
L 252.750563 248.884695 
L 252.750563 248.77831 
L 253.401173 248.237077 
L 253.401173 259.691312 
L 254.051784 259.706372 
L 254.051784 267.866677 
L 254.051784 267.358148 
L 254.702394 269.078822 
L 254.702394 272.619214 
L 254.702394 272.295331 
L 255.353004 270.617657 
L 255.353004 275.965464 
L 255.353004 275.684445 
L 256.003615 138.151739 
L 256.003615 149.334141 
L 256.654225 156.32779 
L 256.654225 169.330032 
L 257.304835 179.032322 
L 257.304835 192.041439 
L 257.955445 197.485011 
L 257.955445 212.070122 
L 258.606056 215.291408 
L 258.606056 229.491095 
L 259.256666 233.909291 
L 259.256666 244.952843 
L 259.907276 244.187417 
L 259.907276 254.817279 
L 260.557887 253.494959 
L 260.557887 262.816604 
L 261.208497 263.676028 
L 261.208497 268.85244 
L 261.208497 268.814937 
L 261.859107 266.116862 
L 261.859107 273.158302 
L 261.859107 273.095367 
L 262.509718 137.180187 
L 262.509718 149.719096 
L 263.160328 153.633637 
L 263.160328 167.760569 
L 263.810938 178.045609 
L 263.810938 189.217429 
L 264.461549 195.912813 
L 264.461549 208.369801 
L 265.112159 211.737357 
L 265.112159 224.82838 
L 265.762769 228.387058 
L 265.762769 239.026281 
L 265.762769 238.960406 
L 266.413379 239.309443 
L 266.413379 249.847484 
L 267.06399 251.351195 
L 267.06399 259.76368 
L 267.7146 258.541695 
L 267.7146 266.18387 
L 267.7146 265.840353 
L 268.36521 264.162711 
L 268.36521 270.59032 
L 268.36521 270.171192 
L 269.015821 138.92758 
L 269.015821 149.252748 
L 269.666431 153.621137 
L 269.666431 166.044511 
L 270.317041 172.702643 
L 270.317041 185.766576 
L 270.967652 192.687796 
L 270.967652 204.628265 
L 271.618262 209.421053 
L 271.618262 221.400093 
L 272.268872 220.725955 
L 272.268872 233.621363 
L 272.919483 232.190318 
L 272.919483 245.286513 
L 273.570093 245.725397 
L 273.570093 254.39213 
L 274.220703 248.861853 
L 274.220703 260.844633 
L 274.220703 260.840495 
L 274.871314 260.007006 
L 274.871314 267.578679 
L 274.871314 267.358934 
L 275.521924 137.738996 
L 275.521924 147.740364 
L 276.172534 152.184859 
L 276.172534 164.604708 
L 276.823144 171.319364 
L 276.823144 184.055679 
L 277.473755 189.936183 
L 277.473755 200.840477 
L 278.124365 205.504566 
L 278.124365 215.733125 
L 278.774975 216.0022 
L 278.774975 228.967653 
L 279.425586 225.943398 
L 279.425586 240.38646 
L 280.076196 240.500471 
L 280.076196 250.085903 
L 280.076196 249.825384 
L 280.726806 250.649064 
L 280.726806 257.420017 
L 280.726806 257.325315 
L 281.377417 249.453178 
L 281.377417 262.212676 
L 281.377417 261.850394 
L 282.028027 135.848345 
L 282.028027 147.331244 
L 282.678637 152.053358 
L 282.678637 164.672388 
L 283.329248 168.355324 
L 283.329248 180.527206 
L 283.979858 185.278073 
L 283.979858 197.423106 
L 284.630468 202.608316 
L 284.630468 211.337534 
L 285.281079 210.906178 
L 285.281079 224.193149 
L 285.931689 225.910954 
L 285.931689 235.871503 
L 285.931689 235.711378 
L 286.582299 233.501846 
L 286.582299 244.313318 
L 287.232909 246.05518 
L 287.232909 253.309686 
L 287.232909 252.877118 
L 287.88352 249.822876 
L 287.88352 258.421252 
L 288.53413 137.441204 
L 288.53413 147.714584 
L 289.18474 150.815613 
L 289.18474 162.069473 
L 289.835351 167.452257 
L 289.835351 177.892484 
L 290.485961 184.194288 
L 290.485961 193.123204 
L 291.136571 193.898557 
L 291.136571 207.743212 
L 291.787182 206.201318 
L 291.787182 218.641683 
L 292.437792 219.320814 
L 292.437792 229.930881 
L 292.437792 229.788053 
L 293.088402 226.216261 
L 293.088402 239.888449 
L 293.088402 239.741347 
L 293.739013 239.114927 
L 293.739013 246.961308 
L 293.739013 246.85394 
L 294.389623 243.236999 
L 294.389623 254.218016 
L 294.389623 253.801975 
L 295.040233 136.065217 
L 295.040233 147.038663 
L 295.690844 150.272386 
L 295.690844 161.568313 
L 296.341454 166.83069 
L 296.341454 174.893667 
L 296.992064 178.52578 
L 296.992064 190.327018 
L 297.642674 192.836804 
L 297.642674 201.793158 
L 297.642674 201.775074 
L 298.293285 205.133968 
L 298.293285 215.20292 
L 298.943895 212.28194 
L 298.943895 224.752272 
L 298.943895 224.538398 
L 299.594505 222.442944 
L 299.594505 234.718457 
L 299.594505 234.518408 
L 300.245116 233.129498 
L 300.245116 242.732598 
L 300.245116 242.036158 
L 300.895726 239.045555 
L 300.895726 248.374041 
L 301.546336 137.722092 
L 301.546336 146.828767 
L 302.196947 145.921502 
L 302.196947 158.851315 
L 302.847557 161.255546 
L 302.847557 173.574212 
L 303.498167 171.838753 
L 303.498167 186.087657 
L 303.498167 186.011704 
L 304.148778 184.153038 
L 304.148778 198.537538 
L 304.148778 198.494337 
L 304.799388 200.045115 
L 304.799388 211.011249 
L 305.449998 207.154732 
L 305.449998 220.938989 
L 305.449998 220.668488 
L 306.100608 214.877503 
L 306.100608 228.122617 
L 306.751219 223.416713 
L 306.751219 236.061754 
L 306.751219 235.82909 
L 307.401829 230.708209 
L 307.401829 243.631374 
L 307.401829 243.49094 
L 308.052439 134.121727 
L 308.052439 146.444256 
L 308.70305 146.573569 
L 308.70305 158.330741 
L 309.35366 160.932916 
L 309.35366 171.011539 
L 310.00427 172.574562 
L 310.00427 183.295865 
L 310.654881 182.71913 
L 310.654881 195.655061 
L 311.305491 193.146103 
L 311.305491 205.391017 
L 311.305491 205.360937 
L 311.956101 204.525361 
L 311.956101 216.046885 
L 311.956101 216.029533 
L 312.606712 209.70344 
L 312.606712 223.211462 
L 312.606712 223.031642 
L 313.257322 222.892728 
L 313.257322 231.424465 
L 313.907932 227.621426 
L 313.907932 239.124092 
L 313.907932 238.806933 
L 314.558543 136.796396 
L 314.558543 145.196948 
L 315.209153 145.141662 
L 315.209153 157.657812 
L 315.209153 157.498521 
L 315.859763 157.274099 
L 315.859763 168.613085 
L 316.510373 169.516843 
L 316.510373 181.322305 
L 317.160984 180.393205 
L 317.160984 191.296488 
L 317.160984 190.909779 
L 317.811594 190.436088 
L 317.811594 201.679314 
L 318.462204 200.544697 
L 318.462204 210.963381 
L 319.112815 208.317598 
L 319.112815 220.235313 
L 319.112815 220.085468 
L 319.763425 214.780963 
L 319.763425 225.599347 
L 319.763425 225.472822 
L 320.414035 220.424632 
L 320.414035 232.675748 
L 320.414035 232.425275 
L 321.064646 137.759254 
L 321.064646 144.634831 
L 321.715256 146.97628 
L 321.715256 156.400607 
L 322.365866 156.531436 
L 322.365866 167.387388 
L 323.016477 166.7054 
L 323.016477 177.539677 
L 323.016477 177.378256 
L 323.667087 174.488406 
L 323.667087 186.940943 
L 323.667087 186.933851 
L 324.317697 190.020272 
L 324.317697 198.42824 
L 324.317697 198.0597 
L 324.968308 194.517244 
L 324.968308 205.748638 
L 324.968308 205.44803 
L 325.618918 202.87776 
L 325.618918 213.132216 
L 326.269528 207.849193 
L 326.269528 219.455603 
L 326.920138 216.736573 
L 326.920138 227.167674 
L 326.920138 227.099419 
L 327.570749 136.83888 
L 327.570749 144.522845 
L 328.221359 146.009761 
L 328.221359 154.471125 
L 328.871969 153.960493 
L 328.871969 165.408233 
L 329.52258 163.235406 
L 329.52258 175.370771 
L 329.52258 175.184917 
L 330.17319 177.075913 
L 330.17319 184.815654 
L 330.17319 184.393577 
L 330.8238 183.67419 
L 330.8238 193.521604 
L 330.8238 193.476912 
L 331.474411 189.176165 
L 331.474411 201.670144 
L 331.474411 201.298379 
L 332.125021 197.673108 
L 332.125021 208.157778 
L 332.125021 207.70519 
L 332.775631 206.229624 
L 332.775631 214.874457 
L 332.775631 214.553935 
L 333.426242 214.107219 
L 333.426242 222.597226 
L 333.426242 222.446872 
L 334.076852 134.844826 
L 334.076852 143.08318 
L 334.727462 141.874249 
L 334.727462 153.584921 
L 335.378073 153.222878 
L 335.378073 163.555522 
L 335.378073 163.502199 
L 336.028683 161.366417 
L 336.028683 172.192977 
L 336.028683 171.734128 
L 336.679293 171.441574 
L 336.679293 180.835329 
L 336.679293 180.302947 
L 337.329903 178.967838 
L 337.329903 189.403281 
L 337.329903 189.170443 
L 337.980514 186.72436 
L 337.980514 196.43532 
L 337.980514 196.229292 
L 338.631124 191.030839 
L 338.631124 203.101538 
L 338.631124 202.759549 
L 339.281734 198.684829 
L 339.281734 211.014753 
L 339.281734 210.493667 
L 339.932345 205.550671 
L 339.932345 215.52464 
L 339.932345 215.383002 
L 340.582955 133.062934 
L 340.582955 142.963607 
L 341.233565 142.641332 
L 341.233565 151.094477 
L 341.884176 150.99863 
L 341.884176 160.579445 
L 341.884176 160.544235 
L 342.534786 161.963822 
L 342.534786 169.425067 
L 343.185396 168.9896 
L 343.185396 177.721353 
L 343.185396 177.027933 
L 343.836007 178.453949 
L 343.836007 185.353008 
L 343.836007 185.045864 
L 344.486617 184.057473 
L 344.486617 191.802997 
L 345.137227 189.305955 
L 345.137227 199.186383 
L 345.137227 198.848632 
L 345.787837 194.901818 
L 345.787837 205.358181 
L 345.787837 205.079907 
L 346.438448 201.262965 
L 346.438448 211.403595 
L 346.438448 211.032627 
L 347.089058 133.231128 
L 347.089058 142.672326 
L 347.739668 143.830658 
L 347.739668 151.650217 
L 347.739668 151.489946 
L 348.390279 150.873549 
L 348.390279 159.798467 
L 349.040889 156.709694 
L 349.040889 167.160862 
L 349.040889 166.802696 
L 349.691499 163.730924 
L 349.691499 175.619109 
L 349.691499 175.57926 
L 350.34211 176.356951 
L 350.34211 182.481782 
L 350.34211 182.052749 
L 350.99272 174.244921 
L 350.99272 188.250035 
L 350.99272 188.039855 
L 351.64333 185.444243 
L 351.64333 194.486561 
L 351.64333 193.931261 
L 352.293941 188.561349 
L 352.293941 200.286628 
L 352.293941 199.979272 
L 352.944551 196.314378 
L 352.944551 207.0503 
L 352.944551 206.46958 
L 353.595161 135.260876 
L 353.595161 142.37989 
L 354.245772 139.186951 
L 354.245772 149.756375 
L 354.245772 149.556882 
L 354.896382 150.536532 
L 354.896382 158.757829 
L 354.896382 158.612151 
L 355.546992 158.131989 
L 355.546992 165.946289 
L 355.546992 165.673732 
L 356.197602 166.053962 
L 356.197602 172.336631 
L 356.197602 172.080866 
L 356.848213 170.253265 
L 356.848213 178.839365 
L 356.848213 178.642914 
L 357.498823 175.032246 
L 357.498823 185.743229 
L 357.498823 185.431467 
L 358.149433 180.756286 
L 358.149433 190.261869 
L 358.149433 190.030913 
L 358.800044 185.527832 
L 358.800044 197.246987 
L 358.800044 196.948078 
L 359.450654 191.257388 
L 359.450654 202.225908 
L 359.450654 201.714068 
L 360.101264 133.865356 
L 360.101264 142.696997 
L 360.751875 142.258992 
L 360.751875 150.265552 
L 360.751875 150.190611 
L 361.402485 145.109387 
L 361.402485 156.189907 
L 361.402485 155.857619 
L 362.053095 154.225574 
L 362.053095 163.339685 
L 362.053095 162.842897 
L 362.703706 159.222475 
L 362.703706 168.433932 
L 362.703706 167.950147 
L 363.354316 164.982153 
L 363.354316 175.99695 
L 363.354316 175.599101 
L 364.004926 172.420755 
L 364.004926 182.165332 
L 364.004926 181.723865 
L 364.655537 175.445328 
L 364.655537 185.950329 
L 364.655537 185.725531 
L 365.306147 182.433726 
L 365.306147 191.898819 
L 365.306147 191.740552 
L 365.956757 191.322719 
L 365.956757 198.223884 
L 365.956757 198.156134 
L 366.607367 135.324779 
L 366.607367 141.845332 
L 367.257978 142.510993 
L 367.257978 149.927935 
L 367.257978 149.883967 
L 367.908588 145.864406 
L 367.908588 154.500744 
L 368.559198 153.311539 
L 368.559198 161.663732 
L 369.209809 158.462086 
L 369.209809 167.114607 
L 369.209809 166.680816 
L 369.860419 164.957895 
L 369.860419 173.504835 
L 369.860419 172.849646 
L 370.511029 168.512631 
L 370.511029 178.027525 
L 371.16164 173.849033 
L 371.16164 183.865612 
L 371.16164 183.435425 
L 371.81225 179.699953 
L 371.81225 189.495042 
L 371.81225 188.775587 
L 372.46286 184.984943 
L 372.46286 192.714936 
L 372.46286 192.547173 
L 373.113471 135.332053 
L 373.113471 141.665063 
L 373.764081 139.393984 
L 373.764081 147.738892 
L 373.764081 147.606039 
L 374.414691 145.007355 
L 374.414691 153.87091 
L 374.414691 153.77995 
L 375.065302 151.041227 
L 375.065302 159.957395 
L 375.715912 159.169137 
L 375.715912 166.347952 
L 375.715912 165.531975 
L 376.366522 163.310552 
L 376.366522 169.899658 
L 376.366522 169.580436 
L 377.017132 166.31906 
L 377.017132 175.204551 
L 377.017132 175.015018 
L 377.667743 172.788627 
L 377.667743 179.779167 
L 378.318353 175.731675 
L 378.318353 184.893965 
L 378.318353 184.64789 
L 378.968963 179.912268 
L 378.968963 189.626365 
L 378.968963 189.251234 
L 379.619574 134.828245 
L 379.619574 141.651757 
L 380.270184 140.230341 
L 380.270184 146.183852 
L 380.920794 144.450402 
L 380.920794 152.222974 
L 381.571405 151.873616 
L 381.571405 157.608996 
L 381.571405 157.274905 
L 382.222015 159.00983 
L 382.222015 158.962886 
L 382.222015 163.396674 
L 382.222015 163.333191 
L 382.872625 160.179752 
L 382.872625 166.893824 
L 382.872625 166.841666 
L 383.523236 165.939769 
L 383.523236 172.925419 
L 383.523236 172.733188 
L 384.173846 168.324421 
L 384.173846 176.52582 
L 384.173846 176.331204 
L 384.824456 175.400303 
L 384.824456 181.343943 
L 384.824456 180.931151 
L 385.475066 175.496715 
L 385.475066 184.746887 
L 385.475066 184.640192 
L 386.125677 132.279319 
L 386.125677 140.747262 
L 386.776287 139.664227 
L 386.776287 146.332529 
L 386.776287 146.075364 
L 387.426897 144.137223 
L 387.426897 151.031839 
L 387.426897 151.00415 
L 388.077508 147.961911 
L 388.077508 154.920118 
L 388.077508 154.553122 
L 388.728118 154.98548 
L 388.728118 160.553728 
L 388.728118 160.018292 
L 389.378728 159.770267 
L 389.378728 166.40193 
L 389.378728 166.040123 
L 390.029339 164.314796 
L 390.029339 169.492746 
L 390.029339 169.186332 
L 390.679949 164.108263 
L 390.679949 174.258475 
L 390.679949 173.96605 
L 391.330559 169.326359 
L 391.330559 177.193537 
L 391.330559 176.930801 
L 391.98117 174.15434 
L 391.98117 181.741751 
L 391.98117 181.509066 
L 392.63178 132.464868 
L 392.63178 140.228253 
L 393.28239 138.68003 
L 393.28239 145.690465 
L 393.28239 145.455185 
L 393.933001 144.20703 
L 393.933001 150.795025 
L 393.933001 150.443148 
L 394.583611 146.73944 
L 394.583611 155.501207 
L 394.583611 155.223914 
L 395.234221 152.715167 
L 395.234221 152.859183 
L 395.234221 159.219388 
L 395.234221 158.81589 
L 395.884831 154.313494 
L 395.884831 162.118396 
L 395.884831 161.807021 
L 396.535442 160.709802 
L 396.535442 168.154192 
L 396.535442 167.886762 
L 397.186052 163.904585 
L 397.186052 170.626244 
L 397.836662 166.6079 
L 397.836662 175.023573 
L 397.836662 174.691094 
L 398.487273 171.206413 
L 398.487273 179.295348 
L 398.487273 178.680962 
" style="fill:none;stroke:#0000ff;stroke-linecap:square;stroke-width:1.5;"/>
   </g>
   <g id="line2d_12">
    <path clip-path="url(#p888df3d4fb)" d="M 73.832727 277.630471 
L 73.832727 277.624333 
L 79.68822 277.597854 
L 79.68822 277.598774 
L 80.33883 281.471174 
L 80.33883 281.470781 
L 86.194323 281.483486 
L 86.194323 281.484108 
L 86.844934 283.585425 
L 86.844934 283.585099 
L 92.700426 283.597945 
L 92.700426 283.598533 
L 93.351037 285.534949 
L 93.351037 285.534586 
L 99.206529 285.545185 
L 99.206529 285.545749 
L 99.85714 287.320834 
L 99.85714 287.320423 
L 105.712633 287.327853 
L 105.712633 287.328334 
L 106.363243 288.90789 
L 106.363243 288.907368 
L 112.218736 288.912734 
L 112.218736 288.913155 
L 112.869346 290.127423 
L 112.869346 290.126738 
L 118.724839 290.127272 
L 118.724839 290.127543 
L 119.375449 290.958002 
L 119.375449 290.95704 
L 125.230942 290.950502 
L 125.230942 290.950625 
L 125.881552 291.518595 
L 125.881552 291.517518 
L 131.737045 291.507724 
L 131.737045 291.507976 
L 132.387655 291.979422 
L 132.387655 291.978036 
L 138.243148 291.961592 
L 138.243148 291.961641 
L 138.893758 292.387385 
L 138.893758 292.385829 
L 144.749251 292.381208 
L 144.749251 292.381411 
L 145.399862 292.820062 
L 145.399862 292.81978 
L 151.255354 292.807435 
L 151.255354 292.807498 
L 151.905965 293.09575 
L 151.905965 293.095343 
L 157.761457 293.080393 
L 158.412068 293.311791 
L 158.412068 293.311407 
L 164.267561 293.295983 
L 164.267561 293.295988 
L 164.918171 293.496303 
L 164.918171 293.495976 
L 170.773664 293.479184 
L 171.424274 293.661695 
L 171.424274 293.661255 
L 177.279767 293.643006 
L 177.279767 293.643067 
L 177.930377 293.809794 
L 177.930377 293.809434 
L 183.78587 293.79072 
L 184.43648 293.945004 
L 184.43648 293.94469 
L 190.291973 293.925487 
L 190.942583 294.068656 
L 190.942583 294.068398 
L 196.798076 294.049307 
L 197.448686 294.182573 
L 197.448686 294.182308 
L 203.304179 294.163467 
L 203.95479 294.288446 
L 203.95479 294.2882 
L 216.316385 294.366806 
L 217.617606 294.475825 
L 217.617606 294.474812 
L 229.328592 294.543008 
L 230.629812 294.638141 
L 230.629812 294.637217 
L 242.340798 294.694042 
L 243.642019 294.779041 
L 243.642019 294.778258 
L 255.353004 294.826079 
L 256.654225 294.900121 
L 256.654225 294.899481 
L 268.36521 294.939271 
L 269.666431 295.004217 
L 269.666431 295.003705 
L 287.88352 295.082823 
L 289.835351 295.133942 
L 289.835351 295.13336 
L 307.401829 295.196622 
L 309.35366 295.237959 
L 309.35366 295.237503 
L 333.426242 295.314544 
L 336.028683 295.343286 
L 336.028683 295.342935 
L 365.956757 295.417114 
L 369.860419 295.435274 
L 369.860419 295.435061 
L 398.487273 295.485215 
L 398.487273 295.485215 
" style="fill:none;stroke:#008000;stroke-linecap:square;stroke-width:1.5;"/>
   </g>
   <g id="line2d_13">
    <path clip-path="url(#p888df3d4fb)" d="M 73.832727 53.568 
L 73.832727 179.013696 
L 74.483338 233.069342 
L 74.483338 232.456904 
L 75.133948 226.786134 
L 75.133948 235.023421 
L 75.133948 234.606735 
L 75.784558 233.073176 
L 75.784558 238.086898 
L 75.784558 237.856829 
L 76.435169 236.57867 
L 76.435169 240.532419 
L 76.435169 240.388027 
L 77.085779 237.871859 
L 77.085779 241.660601 
L 77.085779 241.384476 
L 77.736389 239.36696 
L 77.736389 243.40991 
L 77.736389 243.107071 
L 78.386999 240.386067 
L 78.386999 243.51402 
L 78.386999 243.429718 
L 79.03761 242.546702 
L 79.03761 245.117701 
L 79.03761 244.940864 
L 79.68822 242.160403 
L 79.68822 245.628492 
L 79.68822 245.452329 
L 80.33883 157.516858 
L 80.33883 171.301362 
L 80.33883 207.58479 
L 80.989441 226.973921 
L 80.989441 225.927703 
L 81.640051 227.10399 
L 81.640051 239.401425 
L 81.640051 238.959014 
L 82.290661 235.817571 
L 82.290661 244.756016 
L 82.290661 244.492168 
L 82.941272 242.20579 
L 82.941272 248.307512 
L 82.941272 248.136841 
L 83.591882 245.315251 
L 83.591882 250.546046 
L 83.591882 250.34576 
L 84.242492 247.802342 
L 84.242492 251.060348 
L 84.242492 250.850419 
L 84.893103 250.035655 
L 84.893103 252.69777 
L 84.893103 252.384464 
L 85.543713 250.728911 
L 85.543713 253.103429 
L 85.543713 252.787922 
L 86.194323 251.559393 
L 86.194323 253.738554 
L 86.194323 253.484725 
L 86.844934 157.713923 
L 86.844934 171.520994 
L 86.844934 206.963787 
L 87.495544 231.818874 
L 87.495544 229.247564 
L 88.146154 228.127525 
L 88.146154 241.427259 
L 88.796764 237.598809 
L 88.796764 247.076953 
L 88.796764 246.88018 
L 89.447375 245.646268 
L 89.447375 250.809747 
L 89.447375 250.693391 
L 90.097985 249.50365 
L 90.097985 253.349351 
L 90.097985 253.037332 
L 90.748595 251.391514 
L 90.748595 254.760062 
L 90.748595 254.477885 
L 91.399206 254.375579 
L 91.399206 255.919339 
L 91.399206 255.519987 
L 92.049816 254.316542 
L 92.049816 256.471766 
L 92.049816 256.173728 
L 92.700426 255.643651 
L 92.700426 257.561957 
L 92.700426 257.266417 
L 93.351037 156.320016 
L 93.351037 167.854712 
L 93.351037 204.230754 
L 94.001647 236.773823 
L 94.001647 231.655126 
L 94.652257 227.79383 
L 94.652257 242.03342 
L 95.302868 241.756724 
L 95.302868 249.208766 
L 95.302868 248.986833 
L 95.953478 247.756616 
L 95.953478 253.826318 
L 95.953478 253.539944 
L 96.604088 251.221824 
L 96.604088 256.607621 
L 96.604088 256.368743 
L 97.254698 254.401808 
L 97.254698 257.276649 
L 97.254698 257.194433 
L 97.905309 255.390134 
L 97.905309 258.710972 
L 97.905309 258.529011 
L 98.555919 256.241882 
L 98.555919 259.906535 
L 98.555919 259.692878 
L 99.206529 256.312681 
L 99.206529 260.73836 
L 99.206529 260.446972 
L 99.85714 156.286709 
L 99.85714 174.057296 
L 99.85714 203.241447 
L 100.50775 239.851114 
L 100.50775 235.214651 
L 101.15836 230.00632 
L 101.15836 243.295345 
L 101.808971 246.349584 
L 101.808971 251.809457 
L 101.808971 251.44367 
L 102.459581 251.068678 
L 102.459581 256.317119 
L 102.459581 256.070024 
L 103.110191 253.41629 
L 103.110191 258.938943 
L 103.760802 257.418817 
L 103.760802 260.784233 
L 103.760802 260.595941 
L 104.411412 258.883184 
L 104.411412 262.046002 
L 104.411412 261.930745 
L 105.062022 261.462925 
L 105.062022 263.056403 
L 105.062022 262.736026 
L 105.712633 260.084099 
L 105.712633 262.939567 
L 105.712633 262.742844 
L 106.363243 157.846746 
L 106.363243 173.838644 
L 106.363243 202.460968 
L 107.013853 243.882618 
L 107.013853 238.164538 
L 107.664463 230.300224 
L 107.664463 244.453253 
L 108.315074 248.50411 
L 108.315074 254.071919 
L 108.315074 253.97915 
L 108.965684 251.64341 
L 108.965684 258.23799 
L 108.965684 258.17614 
L 109.616294 256.257987 
L 109.616294 261.426006 
L 109.616294 261.217832 
L 110.266905 259.774392 
L 110.266905 262.731998 
L 110.266905 262.696953 
L 110.917515 260.944674 
L 110.917515 264.579403 
L 110.917515 264.414044 
L 111.568125 263.064833 
L 111.568125 265.39341 
L 111.568125 265.001433 
L 112.218736 261.321376 
L 112.218736 265.917223 
L 112.218736 265.715573 
L 112.869346 154.50664 
L 112.869346 170.86917 
L 112.869346 200.446645 
L 113.519956 245.237971 
L 113.519956 241.031235 
L 114.170567 233.281507 
L 114.170567 245.178969 
L 114.821177 247.170272 
L 114.821177 255.991043 
L 114.821177 255.70079 
L 115.471787 251.73168 
L 115.471787 259.337268 
L 115.471787 259.249356 
L 116.122398 257.874165 
L 116.122398 262.850445 
L 116.773008 264.044061 
L 116.773008 263.538681 
L 116.773008 264.683167 
L 116.773008 264.655784 
L 117.423618 262.289863 
L 117.423618 266.046161 
L 117.423618 265.885898 
L 118.074228 264.610882 
L 118.074228 267.225445 
L 118.724839 263.497814 
L 118.724839 268.082144 
L 119.375449 151.682374 
L 119.375449 168.09673 
L 119.375449 195.939797 
L 120.026059 247.16907 
L 120.026059 243.947207 
L 120.67667 234.765995 
L 120.67667 245.863505 
L 121.32728 250.947936 
L 121.32728 257.789148 
L 121.32728 257.419443 
L 121.97789 254.885641 
L 121.97789 260.880863 
L 121.97789 260.645873 
L 122.628501 260.260486 
L 122.628501 264.295336 
L 123.279111 263.160615 
L 123.279111 266.821502 
L 123.279111 266.53941 
L 123.929721 266.012309 
L 123.929721 268.608927 
L 123.929721 268.360387 
L 124.580332 265.592074 
L 124.580332 269.175073 
L 124.580332 269.066574 
L 125.230942 269.310391 
L 125.230942 270.474631 
L 125.230942 270.362359 
L 125.881552 150.589516 
L 125.881552 166.78788 
L 125.881552 194.376393 
L 126.532163 247.863037 
L 126.532163 245.192775 
L 127.182773 235.070673 
L 127.182773 246.350436 
L 127.833383 247.76133 
L 127.833383 259.19622 
L 127.833383 258.651728 
L 128.483993 255.804974 
L 128.483993 262.212473 
L 128.483993 262.021475 
L 129.134604 263.706323 
L 129.134604 266.365286 
L 129.134604 266.048601 
L 129.785214 263.828573 
L 129.785214 268.045774 
L 129.785214 267.802658 
L 130.435824 266.31952 
L 130.435824 269.609469 
L 130.435824 269.391481 
L 131.086435 269.048269 
L 131.086435 270.875243 
L 131.086435 270.523719 
L 131.737045 269.009342 
L 131.737045 272.224628 
L 131.737045 271.987202 
L 132.387655 151.481647 
L 132.387655 170.524261 
L 132.387655 189.988642 
L 133.038266 247.738749 
L 133.038266 245.844239 
L 133.688876 236.19716 
L 133.688876 246.032332 
L 134.339486 254.301282 
L 134.339486 258.365833 
L 134.990097 259.513932 
L 134.990097 262.760497 
L 134.990097 262.672502 
L 135.640707 262.938304 
L 135.640707 266.72199 
L 135.640707 266.496898 
L 136.291317 266.59277 
L 136.291317 269.061143 
L 136.941927 266.323665 
L 136.941927 270.46558 
L 136.941927 270.184529 
L 137.592538 267.743153 
L 137.592538 271.627018 
L 137.592538 271.494296 
L 138.243148 270.797847 
L 138.243148 273.60627 
L 138.243148 273.510215 
L 138.893758 144.430789 
L 138.893758 160.224644 
L 138.893758 186.320712 
L 139.544369 247.636849 
L 139.544369 248.659261 
L 139.544369 248.511205 
L 140.194979 250.002808 
L 140.194979 254.705496 
L 140.194979 254.09766 
L 140.845589 250.74179 
L 140.845589 256.360441 
L 140.845589 256.128139 
L 141.4962 254.311123 
L 141.4962 259.949684 
L 141.4962 259.473309 
L 142.14681 257.07753 
L 142.14681 262.826844 
L 142.14681 262.402703 
L 142.79742 260.213712 
L 142.79742 264.222227 
L 142.79742 263.875911 
L 143.448031 263.225317 
L 143.448031 265.982113 
L 143.448031 265.707026 
L 144.098641 261.89087 
L 144.098641 266.897039 
L 144.098641 266.677808 
L 144.749251 266.559181 
L 144.749251 266.609069 
L 144.749251 267.945981 
L 144.749251 267.819055 
L 145.399862 143.685577 
L 145.399862 162.938535 
L 146.050472 190.604459 
L 146.050472 218.291512 
L 146.701082 239.990792 
L 146.701082 250.68114 
L 146.701082 250.559741 
L 147.351692 249.721755 
L 147.351692 255.607204 
L 147.351692 255.242672 
L 148.002303 251.314276 
L 148.002303 258.408656 
L 148.002303 258.399596 
L 148.652913 255.786659 
L 148.652913 262.436851 
L 148.652913 262.102978 
L 149.303523 259.310242 
L 149.303523 264.628443 
L 149.303523 264.532279 
L 149.954134 261.643446 
L 149.954134 266.819169 
L 149.954134 266.751847 
L 150.604744 264.925959 
L 150.604744 267.589149 
L 150.604744 267.366298 
L 151.255354 266.367383 
L 151.255354 269.007991 
L 151.255354 268.676278 
L 151.905965 140.093744 
L 151.905965 159.233856 
L 152.556575 185.678163 
L 152.556575 213.289764 
L 153.207185 235.923676 
L 153.207185 249.085175 
L 153.857796 248.797039 
L 153.857796 256.815361 
L 153.857796 256.278633 
L 154.508406 251.47397 
L 154.508406 258.733461 
L 154.508406 258.371694 
L 155.159016 256.988659 
L 155.159016 262.723481 
L 155.159016 262.489412 
L 155.809627 258.384739 
L 155.809627 264.910787 
L 155.809627 264.891528 
L 156.460237 260.897053 
L 156.460237 267.633377 
L 156.460237 267.146684 
L 157.110847 263.94961 
L 157.110847 267.90767 
L 157.110847 267.773817 
L 157.761457 265.832994 
L 157.761457 269.987356 
L 157.761457 269.727341 
L 158.412068 140.856085 
L 158.412068 156.888021 
L 159.062678 180.994916 
L 159.062678 206.871034 
L 159.713288 229.258633 
L 159.713288 246.121618 
L 160.363899 251.399018 
L 160.363899 257.658512 
L 160.363899 257.287913 
L 161.014509 255.464239 
L 161.014509 260.016077 
L 161.014509 259.600161 
L 161.665119 257.432406 
L 161.665119 262.983275 
L 161.665119 262.637728 
L 162.31573 259.251112 
L 162.31573 265.14048 
L 162.31573 265.043718 
L 162.96634 262.181109 
L 162.96634 267.301549 
L 162.96634 267.005357 
L 163.61695 264.038215 
L 163.61695 269.07293 
L 163.61695 268.790602 
L 164.267561 265.277513 
L 164.267561 269.833915 
L 164.267561 269.655834 
L 164.918171 138.624401 
L 164.918171 154.806326 
L 165.568781 177.918948 
L 165.568781 202.908879 
L 166.219392 230.297878 
L 166.219392 242.576515 
L 166.870002 249.257004 
L 166.870002 256.684733 
L 166.870002 256.580391 
L 167.520612 256.769775 
L 167.520612 261.891635 
L 167.520612 261.396527 
L 168.171222 258.299924 
L 168.171222 262.677874 
L 168.171222 262.48997 
L 168.821833 258.850079 
L 168.821833 265.288842 
L 168.821833 264.761907 
L 169.472443 264.041049 
L 169.472443 267.811235 
L 169.472443 267.484931 
L 170.123053 265.617364 
L 170.123053 269.853488 
L 170.123053 269.659465 
L 170.773664 265.414235 
L 170.773664 269.890225 
L 170.773664 269.775813 
L 171.424274 140.21497 
L 171.424274 150.653415 
L 172.074884 168.430308 
L 172.074884 195.457633 
L 172.725495 218.897458 
L 172.725495 236.305928 
L 173.376105 245.259113 
L 173.376105 255.039729 
L 173.376105 255.012965 
L 174.026715 254.190425 
L 174.026715 260.995469 
L 174.026715 260.718719 
L 174.677326 258.548062 
L 174.677326 262.406943 
L 174.677326 262.186772 
L 175.327936 259.544129 
L 175.327936 265.448705 
L 175.327936 264.915877 
L 175.978546 263.387769 
L 175.978546 266.377414 
L 175.978546 266.251551 
L 176.629156 264.568454 
L 176.629156 269.086641 
L 176.629156 268.920683 
L 177.279767 265.731034 
L 177.279767 269.451581 
L 177.279767 269.133207 
L 177.930377 134.308421 
L 177.930377 148.124525 
L 178.580987 167.780951 
L 178.580987 189.994132 
L 179.231598 210.388313 
L 179.231598 230.062438 
L 179.882208 239.237435 
L 179.882208 252.370561 
L 180.532818 252.254415 
L 180.532818 259.357731 
L 180.532818 259.30459 
L 181.183429 257.684685 
L 181.183429 261.994413 
L 181.183429 261.426876 
L 181.834039 261.017166 
L 181.834039 264.410728 
L 181.834039 264.358228 
L 182.484649 262.467497 
L 182.484649 267.083674 
L 182.484649 266.91347 
L 183.13526 265.009 
L 183.13526 268.53001 
L 183.13526 268.338858 
L 183.78587 264.194094 
L 183.78587 268.519108 
L 183.78587 268.504088 
L 184.43648 133.912162 
L 184.43648 145.535941 
L 185.087091 163.008131 
L 185.087091 185.075828 
L 185.737701 205.326138 
L 185.737701 225.709143 
L 186.388311 236.675968 
L 186.388311 249.164788 
L 187.038921 250.666052 
L 187.038921 258.443786 
L 187.038921 257.95837 
L 187.689532 256.510077 
L 187.689532 262.669281 
L 187.689532 262.279151 
L 188.340142 260.707746 
L 188.340142 264.308176 
L 188.340142 264.079865 
L 188.990752 262.963881 
L 188.990752 266.112932 
L 189.641363 265.703736 
L 189.641363 268.758807 
L 189.641363 268.405872 
L 190.291973 265.760437 
L 190.291973 269.31684 
L 190.291973 268.886369 
L 190.942583 128.393308 
L 190.942583 143.763061 
L 191.593194 161.438772 
L 191.593194 180.386732 
L 192.243804 199.662654 
L 192.243804 218.618325 
L 192.894414 231.24688 
L 192.894414 245.303746 
L 193.545025 248.211089 
L 193.545025 257.465195 
L 194.195635 255.880821 
L 194.195635 262.887739 
L 194.195635 262.49189 
L 194.846245 257.530777 
L 194.846245 264.397141 
L 194.846245 264.109571 
L 195.496856 260.84577 
L 195.496856 266.432956 
L 195.496856 266.024229 
L 196.147466 261.773833 
L 196.147466 267.600599 
L 196.147466 267.595081 
L 196.798076 267.377809 
L 196.798076 269.971062 
L 196.798076 269.555586 
L 197.448686 130.651605 
L 197.448686 142.812613 
L 198.099297 156.027418 
L 198.099297 176.728922 
L 198.749907 198.426259 
L 198.749907 212.973609 
L 199.400517 226.470335 
L 199.400517 240.85685 
L 200.051128 245.528037 
L 200.051128 254.795878 
L 200.051128 254.764123 
L 200.701738 252.896941 
L 200.701738 260.519371 
L 200.701738 260.341665 
L 201.352348 259.755158 
L 201.352348 264.337723 
L 201.352348 263.849378 
L 202.002959 261.861451 
L 202.002959 265.80842 
L 202.002959 265.596149 
L 202.653569 261.703801 
L 202.653569 267.384105 
L 202.653569 267.220996 
L 203.304179 267.330478 
L 203.304179 269.164882 
L 203.304179 268.924956 
L 203.95479 129.221471 
L 203.95479 141.600732 
L 204.6054 151.518857 
L 204.6054 172.237372 
L 205.25601 190.049796 
L 205.25601 208.274887 
L 205.906621 219.507686 
L 205.906621 235.012288 
L 206.557231 240.458543 
L 206.557231 251.202334 
L 207.207841 254.092933 
L 207.207841 259.473937 
L 207.207841 259.201102 
L 207.858451 258.930281 
L 207.858451 263.509315 
L 207.858451 263.147617 
L 208.509062 261.146408 
L 208.509062 264.970713 
L 208.509062 264.524992 
L 209.159672 262.599348 
L 209.159672 267.589184 
L 209.159672 266.969707 
L 209.810282 263.739613 
L 209.810282 268.469592 
L 209.810282 268.441376 
L 210.460893 126.634819 
L 210.460893 138.786363 
L 211.111503 149.915643 
L 211.111503 168.306846 
L 211.762113 185.808446 
L 211.762113 202.676007 
L 212.412724 215.281029 
L 212.412724 230.283453 
L 213.063334 235.132141 
L 213.063334 247.633573 
L 213.713944 249.136971 
L 213.713944 257.236386 
L 213.713944 256.985242 
L 214.364555 256.019902 
L 214.364555 262.056519 
L 214.364555 261.69406 
L 215.015165 260.14818 
L 215.015165 264.302694 
L 215.015165 264.191214 
L 215.665775 263.67929 
L 215.665775 265.807255 
L 216.316385 264.026771 
L 216.316385 267.957465 
L 216.316385 267.832035 
L 216.966996 128.67468 
L 216.966996 138.967515 
L 217.617606 150.733919 
L 217.617606 165.400444 
L 218.268216 181.831991 
L 218.268216 198.956409 
L 218.918827 209.838659 
L 218.918827 225.132653 
L 219.569437 230.926065 
L 219.569437 243.19467 
L 220.220047 245.652223 
L 220.220047 253.157327 
L 220.870658 253.759178 
L 220.870658 261.243069 
L 220.870658 260.683652 
L 221.521268 259.970598 
L 221.521268 263.965833 
L 221.521268 263.811247 
L 222.171878 260.422898 
L 222.171878 266.537251 
L 222.171878 266.326163 
L 222.822489 260.557951 
L 222.822489 266.490081 
L 222.822489 266.320868 
L 223.473099 126.399028 
L 223.473099 137.569799 
L 224.123709 148.14046 
L 224.123709 162.920915 
L 224.77432 176.0967 
L 224.77432 194.033593 
L 225.42493 204.673878 
L 225.42493 220.354844 
L 226.07554 228.61505 
L 226.07554 238.524728 
L 226.72615 240.518794 
L 226.72615 250.40093 
L 226.72615 250.261469 
L 227.376761 247.698523 
L 227.376761 257.742717 
L 227.376761 257.538719 
L 228.027371 258.347864 
L 228.027371 262.806203 
L 228.027371 262.223726 
L 228.677981 256.896247 
L 228.677981 264.444133 
L 228.677981 264.171483 
L 229.328592 261.995346 
L 229.328592 266.451504 
L 229.979202 127.66529 
L 229.979202 137.596596 
L 230.629812 144.935677 
L 230.629812 161.67268 
L 231.280423 172.803611 
L 231.280423 189.946263 
L 231.931033 198.302755 
L 231.931033 213.293638 
L 232.581643 222.448041 
L 232.581643 235.597746 
L 233.232254 237.593616 
L 233.232254 246.842738 
L 233.882864 247.55743 
L 233.882864 255.727904 
L 233.882864 255.614445 
L 234.533474 253.612363 
L 234.533474 259.074592 
L 234.533474 258.914899 
L 235.184085 258.161734 
L 235.184085 263.463534 
L 235.184085 263.241332 
L 235.834695 259.389637 
L 235.834695 265.60955 
L 235.834695 265.41134 
L 236.485305 122.97876 
L 236.485305 136.653091 
L 237.135915 145.078 
L 237.135915 159.34928 
L 237.786526 171.175138 
L 237.786526 186.413617 
L 238.437136 197.385599 
L 238.437136 210.258133 
L 239.087746 215.126843 
L 239.087746 228.361462 
L 239.738357 229.365383 
L 239.738357 241.927178 
L 239.738357 241.88324 
L 240.388967 243.990045 
L 240.388967 252.173267 
L 241.039577 251.91408 
L 241.039577 257.863768 
L 241.690188 255.260166 
L 241.690188 261.324727 
L 241.690188 261.109253 
L 242.340798 258.69149 
L 242.340798 264.947916 
L 242.340798 264.565857 
L 242.991408 123.708795 
L 242.991408 135.138835 
L 243.642019 144.76587 
L 243.642019 158.205729 
L 244.292629 167.453612 
L 244.292629 182.319891 
L 244.943239 189.921336 
L 244.943239 204.842414 
L 245.59385 211.333195 
L 245.59385 223.679172 
L 246.24446 228.995729 
L 246.24446 239.054114 
L 246.89507 240.159905 
L 246.89507 248.135401 
L 246.89507 248.119054 
L 247.54568 245.617675 
L 247.54568 253.986481 
L 247.54568 253.907165 
L 248.196291 251.97129 
L 248.196291 259.602103 
L 248.196291 259.297184 
L 248.846901 257.026094 
L 248.846901 262.690072 
L 248.846901 262.108283 
L 249.497511 123.597246 
L 249.497511 134.475186 
L 250.148122 137.62314 
L 250.148122 155.858367 
L 250.798732 166.195398 
L 250.798732 179.748468 
L 251.449342 185.33367 
L 251.449342 200.867201 
L 252.099953 207.727532 
L 252.099953 218.621939 
L 252.750563 220.184414 
L 252.750563 233.156554 
L 252.750563 233.050038 
L 253.401173 232.507634 
L 253.401173 243.961051 
L 254.051784 243.975106 
L 254.051784 252.134845 
L 254.051784 251.626226 
L 254.702394 253.3461 
L 254.702394 256.886046 
L 254.702394 256.562094 
L 255.353004 254.88381 
L 255.353004 260.231247 
L 255.353004 259.95017 
L 256.003615 122.492178 
L 256.003615 133.674379 
L 256.654225 140.667552 
L 256.654225 153.669159 
L 257.304835 163.370471 
L 257.304835 176.378724 
L 257.955445 181.821128 
L 257.955445 196.405292 
L 258.606056 199.625364 
L 258.606056 213.82412 
L 259.256666 218.241118 
L 259.256666 229.283812 
L 259.907276 228.517316 
L 259.907276 239.146416 
L 260.557887 237.823141 
L 260.557887 247.144125 
L 261.208497 248.002754 
L 261.208497 253.178689 
L 261.208497 253.141109 
L 261.859107 250.442354 
L 261.859107 257.483405 
L 261.859107 257.420408 
L 262.509718 121.574289 
L 262.509718 134.112985 
L 263.160328 138.027061 
L 263.160328 152.153395 
L 263.810938 162.437533 
L 263.810938 173.608467 
L 264.461549 180.302656 
L 264.461549 192.758741 
L 265.112159 196.125128 
L 265.112159 209.215267 
L 265.762769 212.772828 
L 265.762769 223.411334 
L 265.762769 223.34534 
L 266.413379 223.693311 
L 266.413379 234.230589 
L 267.06399 235.733345 
L 267.06399 244.145143 
L 267.7146 242.92232 
L 267.7146 250.564015 
L 267.7146 250.220422 
L 268.36521 248.542106 
L 268.36521 254.969303 
L 268.36521 254.550109 
L 269.015821 123.372116 
L 269.015821 133.697051 
L 269.666431 138.064996 
L 269.666431 150.487862 
L 270.317041 157.145212 
L 270.317041 170.208401 
L 270.967652 177.128615 
L 270.967652 189.068268 
L 271.618262 193.85996 
L 271.618262 205.838149 
L 272.268872 205.162912 
L 272.268872 218.057551 
L 272.919483 216.625573 
L 272.919483 229.721082 
L 273.570093 230.159095 
L 273.570093 238.825205 
L 274.220703 233.29416 
L 274.220703 245.276465 
L 274.220703 245.272251 
L 274.871314 244.438087 
L 274.871314 252.009365 
L 274.871314 251.789556 
L 275.521924 122.230871 
L 275.521924 132.23197 
L 276.172534 136.67596 
L 276.172534 149.095255 
L 276.823144 155.809111 
L 276.823144 168.544701 
L 277.473755 174.424244 
L 277.473755 185.327798 
L 278.124365 189.990925 
L 278.124365 200.218747 
L 278.774975 200.486874 
L 278.774975 213.451586 
L 279.425586 210.426378 
L 279.425586 224.868751 
L 280.076196 224.981903 
L 280.076196 234.566817 
L 280.076196 234.306211 
L 280.726806 235.129125 
L 280.726806 241.899599 
L 280.726806 241.804818 
L 281.377417 233.931993 
L 281.377417 246.691071 
L 281.377417 246.328723 
L 282.028027 120.383527 
L 282.028027 131.866223 
L 282.678637 136.587928 
L 282.678637 149.206467 
L 283.329248 152.888667 
L 283.329248 165.059874 
L 283.979858 169.809812 
L 283.979858 181.954105 
L 284.630468 187.138345 
L 284.630468 195.866839 
L 285.281079 195.434545 
L 285.281079 208.720844 
L 285.931689 210.437789 
L 285.931689 220.397802 
L 285.931689 220.23759 
L 286.582299 218.027278 
L 286.582299 228.838185 
L 287.232909 230.579322 
L 287.232909 237.833359 
L 287.232909 237.400715 
L 287.88352 234.345792 
L 287.88352 242.943722 
L 288.53413 122.016596 
L 288.53413 132.289722 
L 289.18474 135.390328 
L 289.18474 146.64372 
L 289.835351 152.025842 
L 289.835351 162.465489 
L 290.485961 168.766519 
L 290.485961 177.694807 
L 291.136571 178.469352 
L 291.136571 192.31338 
L 291.787182 190.770694 
L 291.787182 203.210433 
L 292.437792 203.888755 
L 292.437792 214.498309 
L 292.437792 214.355393 
L 293.088402 210.782823 
L 293.088402 224.454535 
L 293.088402 224.307355 
L 293.739013 223.68023 
L 293.739013 231.526164 
L 293.739013 231.418725 
L 294.389623 227.801137 
L 294.389623 238.781753 
L 294.389623 238.365645 
L 295.040233 120.677996 
L 295.040233 131.651226 
L 295.690844 134.884584 
L 295.690844 146.180088 
L 296.341454 151.441841 
L 296.341454 159.504254 
L 296.992064 163.135599 
L 296.992064 174.936235 
L 297.642674 177.445253 
L 297.642674 186.401088 
L 297.642674 186.382916 
L 298.293285 189.741013 
L 298.293285 199.809394 
L 298.943895 196.887662 
L 298.943895 209.357505 
L 298.943895 209.143551 
L 299.594505 207.047385 
L 299.594505 219.322451 
L 299.594505 219.122329 
L 300.245116 217.732761 
L 300.245116 227.33543 
L 300.245116 226.63892 
L 300.895726 223.647681 
L 300.895726 232.975711 
L 301.546336 122.368936 
L 301.546336 131.475393 
L 302.196947 130.567766 
L 302.196947 143.497181 
L 302.847557 145.900841 
L 302.847557 158.218981 
L 303.498167 156.482823 
L 303.498167 170.731248 
L 303.498167 170.655211 
L 304.148778 168.795777 
L 304.148778 183.179783 
L 304.148778 183.136499 
L 304.799388 184.686531 
L 304.799388 195.652114 
L 305.449998 191.794874 
L 305.449998 205.578671 
L 305.449998 205.308091 
L 306.100608 199.516412 
L 306.100608 212.761023 
L 306.751219 208.054484 
L 306.751219 220.699114 
L 306.751219 220.466382 
L 307.401829 215.3449 
L 307.401829 228.267701 
L 307.401829 228.127208 
L 308.052439 118.800765 
L 308.052439 131.1231 
L 308.70305 131.252074 
L 308.70305 143.008875 
L 309.35366 145.610518 
L 309.35366 155.688685 
L 310.00427 157.251099 
L 310.00427 167.971899 
L 310.654881 167.394482 
L 310.654881 180.329868 
L 311.305491 177.820205 
L 311.305491 190.064683 
L 311.305491 190.034531 
L 311.956101 189.19831 
L 311.956101 200.71942 
L 311.956101 200.701998 
L 312.606712 194.375276 
L 312.606712 207.882887 
L 312.606712 207.702997 
L 313.257322 207.563467 
L 313.257322 216.094738 
L 313.907932 212.291109 
L 313.907932 223.793408 
L 313.907932 223.476189 
L 314.558543 121.50524 
L 314.558543 129.905598 
L 315.209153 129.850006 
L 315.209153 142.365873 
L 315.209153 142.20653 
L 315.859763 141.98162 
L 315.859763 153.320181 
L 316.510373 154.223348 
L 316.510373 166.028354 
L 317.160984 165.098653 
L 317.160984 176.001524 
L 317.160984 175.614744 
L 317.811594 175.140424 
L 317.811594 186.383164 
L 318.462204 185.247904 
L 318.462204 195.66611 
L 319.112815 193.019724 
L 319.112815 204.937068 
L 319.112815 204.787158 
L 319.763425 199.482089 
L 319.763425 210.300102 
L 319.763425 210.173515 
L 320.414035 205.124774 
L 320.414035 217.375544 
L 320.414035 217.125011 
L 321.064646 122.495549 
L 321.064646 129.370913 
L 321.715256 131.712011 
L 321.715256 141.135987 
L 322.365866 141.266328 
L 322.365866 152.121871 
L 323.016477 151.439324 
L 323.016477 162.273242 
L 323.016477 162.11176 
L 323.667087 159.221346 
L 323.667087 171.673509 
L 323.667087 171.666352 
L 324.317697 174.752197 
L 324.317697 183.159783 
L 324.317697 182.791179 
L 324.968308 179.248161 
L 324.968308 190.479192 
L 324.968308 190.178523 
L 325.618918 187.607717 
L 325.618918 197.861765 
L 326.269528 192.578215 
L 326.269528 204.184216 
L 326.920138 201.464675 
L 326.920138 211.895465 
L 326.920138 211.827156 
L 327.570749 121.600337 
L 327.570749 129.284155 
L 328.221359 130.770847 
L 328.221359 139.231953 
L 328.871969 138.72095 
L 328.871969 150.168343 
L 329.52258 147.995041 
L 329.52258 160.130093 
L 329.52258 159.944185 
L 330.17319 161.834693 
L 330.17319 169.57411 
L 330.17319 169.15198 
L 330.8238 168.432114 
L 330.8238 178.279216 
L 330.8238 178.234469 
L 331.474411 173.933227 
L 331.474411 186.426882 
L 331.474411 186.055064 
L 332.125021 182.429315 
L 332.125021 192.913672 
L 332.125021 192.46103 
L 332.775631 190.984984 
L 332.775631 199.629515 
L 332.775631 199.308941 
L 333.426242 198.861765 
L 333.426242 207.351468 
L 333.426242 207.201062 
L 334.076852 119.629509 
L 334.076852 127.867693 
L 334.727462 126.658497 
L 334.727462 138.368927 
L 335.378073 138.006545 
L 335.378073 148.338922 
L 335.378073 148.285553 
L 336.028683 146.149342 
L 336.028683 156.975607 
L 336.028683 156.516708 
L 336.679293 156.223693 
L 336.679293 165.617143 
L 336.679293 165.08471 
L 337.329903 163.749133 
L 337.329903 174.184292 
L 337.329903 173.951404 
L 337.980514 171.504881 
L 337.980514 181.21555 
L 337.980514 181.009472 
L 338.631124 175.810571 
L 338.631124 187.880979 
L 338.631124 187.538942 
L 339.281734 183.463802 
L 339.281734 195.793455 
L 339.281734 195.272324 
L 339.932345 190.328918 
L 339.932345 200.302636 
L 339.932345 200.160955 
L 340.582955 117.869294 
L 340.582955 127.769812 
L 341.233565 127.447305 
L 341.233565 135.900214 
L 341.884176 135.804038 
L 341.884176 145.384598 
L 341.884176 145.349344 
L 342.534786 146.768521 
L 342.534786 154.229447 
L 343.185396 153.793557 
L 343.185396 162.525033 
L 343.185396 161.831563 
L 343.836007 163.257148 
L 343.836007 170.155914 
L 343.836007 169.848723 
L 344.486617 168.859906 
L 344.486617 176.605103 
L 345.137227 174.107646 
L 345.137227 183.987809 
L 345.137227 183.650013 
L 345.787837 179.702807 
L 345.787837 190.158913 
L 345.787837 189.880596 
L 346.438448 186.063269 
L 346.438448 196.203639 
L 346.438448 195.832626 
L 347.089058 118.057117 
L 347.089058 127.498203 
L 347.739668 128.656325 
L 347.739668 136.475704 
L 347.739668 136.315401 
L 348.390279 135.698716 
L 348.390279 144.62338 
L 349.040889 141.534264 
L 349.040889 151.98519 
L 349.040889 151.626982 
L 349.691499 148.554832 
L 349.691499 160.442767 
L 349.691499 160.402874 
L 350.34211 161.180175 
L 350.34211 167.304763 
L 350.34211 166.875687 
L 350.99272 159.067475 
L 350.99272 173.072336 
L 350.99272 172.862114 
L 351.64333 170.26612 
L 351.64333 179.308189 
L 351.64333 178.752847 
L 352.293941 173.382564 
L 352.293941 185.107607 
L 352.293941 184.800211 
L 352.944551 181.134965 
L 352.944551 191.870657 
L 352.944551 191.289899 
L 353.595161 120.105284 
L 353.595161 127.224204 
L 354.245772 124.031102 
L 354.245772 134.600374 
L 354.245772 134.400853 
L 354.896382 135.380247 
L 354.896382 143.601344 
L 354.896382 143.455631 
L 355.546992 142.975155 
L 355.546992 150.789256 
L 355.546992 150.516663 
L 356.197602 150.896565 
L 356.197602 157.179018 
L 356.197602 156.923217 
L 356.848213 155.095286 
L 356.848213 163.68117 
L 356.848213 163.484683 
L 357.498823 159.873671 
L 357.498823 170.584435 
L 357.498823 170.272633 
L 358.149433 165.59709 
L 358.149433 175.102442 
L 358.149433 174.871447 
L 358.800044 170.368023 
L 358.800044 182.086972 
L 358.800044 181.788028 
L 359.450654 176.097023 
L 359.450654 187.065334 
L 359.450654 186.553459 
L 360.101264 118.726748 
L 360.101264 127.558275 
L 360.751875 127.120111 
L 360.751875 135.126525 
L 360.751875 135.051558 
L 361.402485 129.970103 
L 361.402485 141.050452 
L 361.402485 140.718133 
L 362.053095 139.085822 
L 362.053095 148.199728 
L 362.053095 147.702907 
L 362.703706 144.082175 
L 362.703706 153.293422 
L 362.703706 152.809601 
L 363.354316 149.841288 
L 363.354316 160.855883 
L 363.354316 160.457999 
L 364.004926 157.279341 
L 364.004926 167.023714 
L 364.004926 166.582214 
L 364.655537 160.303366 
L 364.655537 170.808171 
L 364.655537 170.583339 
L 365.306147 167.29124 
L 365.306147 176.75613 
L 365.306147 176.59783 
L 365.956757 176.179701 
L 365.956757 183.080676 
L 365.956757 183.012894 
L 366.607367 120.201704 
L 366.607367 126.722172 
L 367.257978 127.387692 
L 367.257978 134.80451 
L 367.257978 134.760519 
L 367.908588 130.74075 
L 367.908588 139.376891 
L 368.559198 138.187416 
L 368.559198 146.539401 
L 369.209809 143.337495 
L 369.209809 151.989831 
L 369.209809 151.556008 
L 369.860419 149.83282 
L 369.860419 158.379572 
L 369.860419 157.724352 
L 370.511029 153.387056 
L 370.511029 162.90173 
L 371.16164 158.722942 
L 371.16164 168.73934 
L 371.16164 168.309121 
L 371.81225 164.573362 
L 371.81225 174.368265 
L 371.81225 173.648776 
L 372.46286 169.857844 
L 372.46286 177.587644 
L 372.46286 177.419849 
L 373.113471 120.223204 
L 373.113471 126.556137 
L 373.764081 124.284925 
L 373.764081 132.629728 
L 373.764081 132.496854 
L 374.414691 129.897973 
L 374.414691 138.761381 
L 374.414691 138.670395 
L 375.065302 135.931442 
L 375.065302 144.847415 
L 375.715912 144.0589 
L 375.715912 151.237541 
L 375.715912 150.421533 
L 376.366522 148.199831 
L 376.366522 154.788772 
L 376.366522 154.469523 
L 377.017132 151.207888 
L 377.017132 160.093213 
L 377.017132 159.903651 
L 377.667743 157.677003 
L 377.667743 164.667336 
L 378.318353 160.619592 
L 378.318353 169.781714 
L 378.318353 169.53561 
L 378.968963 164.799717 
L 378.968963 174.51365 
L 378.968963 174.138489 
L 379.619574 119.732525 
L 379.619574 126.555964 
L 380.270184 125.134428 
L 380.270184 131.087813 
L 380.920794 129.354182 
L 380.920794 137.126609 
L 381.571405 136.777057 
L 381.571405 142.512288 
L 381.571405 142.178171 
L 382.222015 143.912868 
L 382.222015 143.8659 
L 382.222015 148.299551 
L 382.222015 148.236041 
L 382.872625 145.082371 
L 382.872625 151.796289 
L 382.872625 151.744104 
L 383.523236 150.841968 
L 383.523236 157.827465 
L 383.523236 157.635209 
L 384.173846 153.226217 
L 384.173846 161.427463 
L 384.173846 161.23282 
L 384.824456 160.301688 
L 384.824456 166.245173 
L 384.824456 165.832353 
L 385.475066 160.397688 
L 385.475066 169.647705 
L 385.475066 169.540986 
L 386.125677 117.195792 
L 386.125677 125.663665 
L 386.776287 124.580507 
L 386.776287 131.248712 
L 386.776287 130.991531 
L 387.426897 129.053229 
L 387.426897 135.947732 
L 387.426897 135.920023 
L 388.077508 132.877595 
L 388.077508 139.835683 
L 388.077508 139.468666 
L 388.728118 139.900824 
L 388.728118 145.468944 
L 388.728118 144.933486 
L 389.378728 144.685257 
L 389.378728 151.316783 
L 389.378728 150.954952 
L 390.029339 149.229415 
L 390.029339 154.407234 
L 390.029339 154.100798 
L 390.679949 149.022527 
L 390.679949 159.172593 
L 390.679949 158.880144 
L 391.330559 154.240236 
L 391.330559 162.107288 
L 391.330559 161.844529 
L 391.98117 159.067878 
L 391.98117 166.655162 
L 391.98117 166.422455 
L 392.63178 117.392519 
L 392.63178 125.155843 
L 393.28239 123.60752 
L 393.28239 130.617872 
L 393.28239 130.382576 
L 393.933001 129.134278 
L 393.933001 135.722158 
L 393.933001 135.370263 
L 394.583611 131.666382 
L 394.583611 140.428035 
L 394.583611 140.150724 
L 395.234221 137.641802 
L 395.234221 137.785802 
L 395.234221 144.145905 
L 395.234221 143.742387 
L 395.884831 139.239806 
L 395.884831 147.044584 
L 395.884831 146.733188 
L 396.535442 145.635776 
L 396.535442 153.080043 
L 396.535442 152.812594 
L 397.186052 148.830236 
L 397.186052 155.551755 
L 397.836662 151.533244 
L 397.836662 159.948789 
L 397.836662 159.616289 
L 398.487273 156.131418 
L 398.487273 164.220229 
L 398.487273 163.605823 
" style="fill:none;stroke:#ff0000;stroke-linecap:square;stroke-width:1.5;"/>
   </g>
   <g id="patch_3">
    <path d="M 57.6 307.584 
L 57.6 41.472 
" style="fill:none;stroke:#000000;stroke-linecap:square;stroke-linejoin:miter;stroke-width:0.8;"/>
   </g>
   <g id="patch_4">
    <path d="M 414.72 307.584 
L 414.72 41.472 
" style="fill:none;stroke:#000000;stroke-linecap:square;stroke-linejoin:miter;stroke-width:0.8;"/>
   </g>
   <g id="patch_5">
    <path d="M 57.6 307.584 
L 414.72 307.584 
" style="fill:none;stroke:#000000;stroke-linecap:square;stroke-linejoin:miter;stroke-width:0.8;"/>
   </g>
   <g id="patch_6">
    <path d="M 57.6 41.472 
L 414.72 41.472 
" style="fill:none;stroke:#000000;stroke-linecap:square;stroke-linejoin:miter;stroke-width:0.8;"/>
   </g>
   <g id="text_13">
    <!-- The loss curve on _non_iid/host/6 -->
    <g transform="translate(132.717187 35.472)scale(0.12 -0.12)">
     <defs>
      <path d="M -0.296875 72.90625 
L 61.375 72.90625 
L 61.375 64.59375 
L 35.5 64.59375 
L 35.5 0 
L 25.59375 0 
L 25.59375 64.59375 
L -0.296875 64.59375 
z
" id="DejaVuSans-84"/>
      <path d="M 41.109375 46.296875 
Q 39.59375 47.171875 37.8125 47.578125 
Q 36.03125 48 33.890625 48 
Q 26.265625 48 22.1875 43.046875 
Q 18.109375 38.09375 18.109375 28.8125 
L 18.109375 0 
L 9.078125 0 
L 9.078125 54.6875 
L 18.109375 54.6875 
L 18.109375 46.1875 
Q 20.953125 51.171875 25.484375 53.578125 
Q 30.03125 56 36.53125 56 
Q 37.453125 56 38.578125 55.875 
Q 39.703125 55.765625 41.0625 55.515625 
z
" id="DejaVuSans-114"/>
      <path d="M 54.890625 33.015625 
L 54.890625 0 
L 45.90625 0 
L 45.90625 32.71875 
Q 45.90625 40.484375 42.875 44.328125 
Q 39.84375 48.1875 33.796875 48.1875 
Q 26.515625 48.1875 22.3125 43.546875 
Q 18.109375 38.921875 18.109375 30.90625 
L 18.109375 0 
L 9.078125 0 
L 9.078125 54.6875 
L 18.109375 54.6875 
L 18.109375 46.1875 
Q 21.34375 51.125 25.703125 53.5625 
Q 30.078125 56 35.796875 56 
Q 45.21875 56 50.046875 50.171875 
Q 54.890625 44.34375 54.890625 33.015625 
z
" id="DejaVuSans-110"/>
      <path d="M 30.953125 67.4375 
L 56.203125 0 
L 46.6875 0 
L 31.34375 40.4375 
L 12.5 0 
L 2.984375 0 
L 26.953125 52.4375 
L 23.34375 62.109375 
Q 21.046875 68.265625 15.828125 68.265625 
L 11.140625 68.265625 
L 11.140625 75.984375 
L 16.84375 75.875 
Q 27.875 75.734375 30.953125 67.4375 
z
" id="DejaVuSans-955"/>
      <path d="M 50.984375 -16.609375 
L 50.984375 -23.578125 
L -0.984375 -23.578125 
L -0.984375 -16.609375 
z
" id="DejaVuSans-95"/>
      <path d="M 9.421875 54.6875 
L 18.40625 54.6875 
L 18.40625 0 
L 9.421875 0 
z
M 9.421875 75.984375 
L 18.40625 75.984375 
L 18.40625 64.59375 
L 9.421875 64.59375 
z
" id="DejaVuSans-105"/>
      <path d="M 45.40625 46.390625 
L 45.40625 75.984375 
L 54.390625 75.984375 
L 54.390625 0 
L 45.40625 0 
L 45.40625 8.203125 
Q 42.578125 3.328125 38.25 0.953125 
Q 33.9375 -1.421875 27.875 -1.421875 
Q 17.96875 -1.421875 11.734375 6.484375 
Q 5.515625 14.40625 5.515625 27.296875 
Q 5.515625 40.1875 11.734375 48.09375 
Q 17.96875 56 27.875 56 
Q 33.9375 56 38.25 53.625 
Q 42.578125 51.265625 45.40625 46.390625 
z
M 14.796875 27.296875 
Q 14.796875 17.390625 18.875 11.75 
Q 22.953125 6.109375 30.078125 6.109375 
Q 37.203125 6.109375 41.296875 11.75 
Q 45.40625 17.390625 45.40625 27.296875 
Q 45.40625 37.203125 41.296875 42.84375 
Q 37.203125 48.484375 30.078125 48.484375 
Q 22.953125 48.484375 18.875 42.84375 
Q 14.796875 37.203125 14.796875 27.296875 
z
" id="DejaVuSans-100"/>
      <path d="M 25.390625 72.90625 
L 33.6875 72.90625 
L 8.296875 -9.28125 
L 0 -9.28125 
z
" id="DejaVuSans-47"/>
      <path d="M 18.3125 70.21875 
L 18.3125 54.6875 
L 36.8125 54.6875 
L 36.8125 47.703125 
L 18.3125 47.703125 
L 18.3125 18.015625 
Q 18.3125 11.328125 20.140625 9.421875 
Q 21.96875 7.515625 27.59375 7.515625 
L 36.8125 7.515625 
L 36.8125 0 
L 27.59375 0 
Q 17.1875 0 13.234375 3.875 
Q 9.28125 7.765625 9.28125 18.015625 
L 9.28125 47.703125 
L 2.6875 47.703125 
L 2.6875 54.6875 
L 9.28125 54.6875 
L 9.28125 70.21875 
z
" id="DejaVuSans-116"/>
     </defs>
     <use xlink:href="#DejaVuSans-84"/>
     <use x="61.083984" xlink:href="#DejaVuSans-104"/>
     <use x="124.462891" xlink:href="#DejaVuSans-101"/>
     <use x="185.986328" xlink:href="#DejaVuSans-32"/>
     <use x="217.773438" xlink:href="#DejaVuSans-108"/>
     <use x="245.556641" xlink:href="#DejaVuSans-111"/>
     <use x="306.738281" xlink:href="#DejaVuSans-115"/>
     <use x="358.837891" xlink:href="#DejaVuSans-115"/>
     <use x="410.9375" xlink:href="#DejaVuSans-32"/>
     <use x="442.724609" xlink:href="#DejaVuSans-99"/>
     <use x="497.705078" xlink:href="#DejaVuSans-117"/>
     <use x="561.083984" xlink:href="#DejaVuSans-114"/>
     <use x="602.197266" xlink:href="#DejaVuSans-118"/>
     <use x="661.376953" xlink:href="#DejaVuSans-101"/>
     <use x="722.900391" xlink:href="#DejaVuSans-32"/>
     <use x="754.6875" xlink:href="#DejaVuSans-111"/>
     <use x="815.869141" xlink:href="#DejaVuSans-110"/>
     <use x="879.248047" xlink:href="#DejaVuSans-32"/>
     <use x="911.035156" xlink:href="#DejaVuSans-955"/>
     <use x="970.214844" xlink:href="#DejaVuSans-95"/>
     <use x="1020.214844" xlink:href="#DejaVuSans-110"/>
     <use x="1083.59375" xlink:href="#DejaVuSans-111"/>
     <use x="1144.775391" xlink:href="#DejaVuSans-110"/>
     <use x="1208.154297" xlink:href="#DejaVuSans-95"/>
     <use x="1258.154297" xlink:href="#DejaVuSans-105"/>
     <use x="1285.9375" xlink:href="#DejaVuSans-105"/>
     <use x="1313.720703" xlink:href="#DejaVuSans-100"/>
     <use x="1377.197266" xlink:href="#DejaVuSans-47"/>
     <use x="1410.888672" xlink:href="#DejaVuSans-104"/>
     <use x="1474.267578" xlink:href="#DejaVuSans-111"/>
     <use x="1535.449219" xlink:href="#DejaVuSans-115"/>
     <use x="1587.548828" xlink:href="#DejaVuSans-116"/>
     <use x="1626.757812" xlink:href="#DejaVuSans-47"/>
     <use x="1660.449219" xlink:href="#DejaVuSans-54"/>
    </g>
   </g>
   <g id="legend_1">
    <g id="patch_7">
     <path d="M 317.418438 94.34075 
L 407.72 94.34075 
Q 409.72 94.34075 409.72 92.34075 
L 409.72 48.472 
Q 409.72 46.472 407.72 46.472 
L 317.418438 46.472 
Q 315.418438 46.472 315.418438 48.472 
L 315.418438 92.34075 
Q 315.418438 94.34075 317.418438 94.34075 
z
" style="fill:#ffffff;opacity:0.8;stroke:#cccccc;stroke-linejoin:miter;"/>
    </g>
    <g id="line2d_14">
     <path d="M 319.418438 54.570438 
L 339.418438 54.570438 
" style="fill:none;stroke:#0000ff;stroke-linecap:square;stroke-width:1.5;"/>
    </g>
    <g id="line2d_15"/>
    <g id="text_14">
     <!-- obj_loss -->
     <g transform="translate(347.418438 58.070438)scale(0.1 -0.1)">
      <defs>
       <path d="M 48.6875 27.296875 
Q 48.6875 37.203125 44.609375 42.84375 
Q 40.53125 48.484375 33.40625 48.484375 
Q 26.265625 48.484375 22.1875 42.84375 
Q 18.109375 37.203125 18.109375 27.296875 
Q 18.109375 17.390625 22.1875 11.75 
Q 26.265625 6.109375 33.40625 6.109375 
Q 40.53125 6.109375 44.609375 11.75 
Q 48.6875 17.390625 48.6875 27.296875 
z
M 18.109375 46.390625 
Q 20.953125 51.265625 25.265625 53.625 
Q 29.59375 56 35.59375 56 
Q 45.5625 56 51.78125 48.09375 
Q 58.015625 40.1875 58.015625 27.296875 
Q 58.015625 14.40625 51.78125 6.484375 
Q 45.5625 -1.421875 35.59375 -1.421875 
Q 29.59375 -1.421875 25.265625 0.953125 
Q 20.953125 3.328125 18.109375 8.203125 
L 18.109375 0 
L 9.078125 0 
L 9.078125 75.984375 
L 18.109375 75.984375 
z
" id="DejaVuSans-98"/>
       <path d="M 9.421875 54.6875 
L 18.40625 54.6875 
L 18.40625 -0.984375 
Q 18.40625 -11.421875 14.421875 -16.109375 
Q 10.453125 -20.796875 1.609375 -20.796875 
L -1.8125 -20.796875 
L -1.8125 -13.1875 
L 0.59375 -13.1875 
Q 5.71875 -13.1875 7.5625 -10.8125 
Q 9.421875 -8.453125 9.421875 -0.984375 
z
M 9.421875 75.984375 
L 18.40625 75.984375 
L 18.40625 64.59375 
L 9.421875 64.59375 
z
" id="DejaVuSans-106"/>
      </defs>
      <use xlink:href="#DejaVuSans-111"/>
      <use x="61.181641" xlink:href="#DejaVuSans-98"/>
      <use x="124.658203" xlink:href="#DejaVuSans-106"/>
      <use x="152.441406" xlink:href="#DejaVuSans-95"/>
      <use x="202.441406" xlink:href="#DejaVuSans-108"/>
      <use x="230.224609" xlink:href="#DejaVuSans-111"/>
      <use x="291.40625" xlink:href="#DejaVuSans-115"/>
      <use x="343.505859" xlink:href="#DejaVuSans-115"/>
     </g>
    </g>
    <g id="line2d_16">
     <path d="M 319.418438 69.526688 
L 339.418438 69.526688 
" style="fill:none;stroke:#008000;stroke-linecap:square;stroke-width:1.5;"/>
    </g>
    <g id="line2d_17"/>
    <g id="text_15">
     <!-- reg_loss -->
     <g transform="translate(347.418438 73.026688)scale(0.1 -0.1)">
      <defs>
       <path d="M 45.40625 27.984375 
Q 45.40625 37.75 41.375 43.109375 
Q 37.359375 48.484375 30.078125 48.484375 
Q 22.859375 48.484375 18.828125 43.109375 
Q 14.796875 37.75 14.796875 27.984375 
Q 14.796875 18.265625 18.828125 12.890625 
Q 22.859375 7.515625 30.078125 7.515625 
Q 37.359375 7.515625 41.375 12.890625 
Q 45.40625 18.265625 45.40625 27.984375 
z
M 54.390625 6.78125 
Q 54.390625 -7.171875 48.1875 -13.984375 
Q 42 -20.796875 29.203125 -20.796875 
Q 24.46875 -20.796875 20.265625 -20.09375 
Q 16.0625 -19.390625 12.109375 -17.921875 
L 12.109375 -9.1875 
Q 16.0625 -11.328125 19.921875 -12.34375 
Q 23.78125 -13.375 27.78125 -13.375 
Q 36.625 -13.375 41.015625 -8.765625 
Q 45.40625 -4.15625 45.40625 5.171875 
L 45.40625 9.625 
Q 42.625 4.78125 38.28125 2.390625 
Q 33.9375 0 27.875 0 
Q 17.828125 0 11.671875 7.65625 
Q 5.515625 15.328125 5.515625 27.984375 
Q 5.515625 40.671875 11.671875 48.328125 
Q 17.828125 56 27.875 56 
Q 33.9375 56 38.28125 53.609375 
Q 42.625 51.21875 45.40625 46.390625 
L 45.40625 54.6875 
L 54.390625 54.6875 
z
" id="DejaVuSans-103"/>
      </defs>
      <use xlink:href="#DejaVuSans-114"/>
      <use x="38.863281" xlink:href="#DejaVuSans-101"/>
      <use x="100.386719" xlink:href="#DejaVuSans-103"/>
      <use x="163.863281" xlink:href="#DejaVuSans-95"/>
      <use x="213.863281" xlink:href="#DejaVuSans-108"/>
      <use x="241.646484" xlink:href="#DejaVuSans-111"/>
      <use x="302.828125" xlink:href="#DejaVuSans-115"/>
      <use x="354.927734" xlink:href="#DejaVuSans-115"/>
     </g>
    </g>
    <g id="line2d_18">
     <path d="M 319.418438 84.482938 
L 339.418438 84.482938 
" style="fill:none;stroke:#ff0000;stroke-linecap:square;stroke-width:1.5;"/>
    </g>
    <g id="line2d_19"/>
    <g id="text_16">
     <!-- overall_loss -->
     <g transform="translate(347.418438 87.982938)scale(0.1 -0.1)">
      <use xlink:href="#DejaVuSans-111"/>
      <use x="61.181641" xlink:href="#DejaVuSans-118"/>
      <use x="120.361328" xlink:href="#DejaVuSans-101"/>
      <use x="181.884766" xlink:href="#DejaVuSans-114"/>
      <use x="222.998047" xlink:href="#DejaVuSans-97"/>
      <use x="284.277344" xlink:href="#DejaVuSans-108"/>
      <use x="312.060547" xlink:href="#DejaVuSans-108"/>
      <use x="339.84375" xlink:href="#DejaVuSans-95"/>
      <use x="389.84375" xlink:href="#DejaVuSans-108"/>
      <use x="417.626953" xlink:href="#DejaVuSans-111"/>
      <use x="478.808594" xlink:href="#DejaVuSans-115"/>
      <use x="530.908203" xlink:href="#DejaVuSans-115"/>
     </g>
    </g>
   </g>
  </g>
 </g>
 <defs>
  <clipPath id="p888df3d4fb">
   <rect height="266.112" width="357.12" x="57.6" y="41.472"/>
  </clipPath>
 </defs>
</svg>
