<?xml version="1.0" encoding="utf-8" standalone="no"?>
<!DOCTYPE svg PUBLIC "-//W3C//DTD SVG 1.1//EN"
  "http://www.w3.org/Graphics/SVG/1.1/DTD/svg11.dtd">
<!-- Created with matplotlib (https://matplotlib.org/) -->
<svg height="432pt" version="1.1" viewBox="0 0 576 432" width="576pt" xmlns="http://www.w3.org/2000/svg" xmlns:xlink="http://www.w3.org/1999/xlink">
 <metadata>
  <rdf:RDF xmlns:cc="http://creativecommons.org/ns#" xmlns:dc="http://purl.org/dc/elements/1.1/" xmlns:rdf="http://www.w3.org/1999/02/22-rdf-syntax-ns#">
   <cc:Work>
    <dc:type rdf:resource="http://purl.org/dc/dcmitype/StillImage"/>
    <dc:date>2023-04-17T00:04:48.930153</dc:date>
    <dc:format>image/svg+xml</dc:format>
    <dc:creator>
     <cc:Agent>
      <dc:title>Matplotlib v3.3.4, https://matplotlib.org/</dc:title>
     </cc:Agent>
    </dc:creator>
   </cc:Work>
  </rdf:RDF>
 </metadata>
 <defs>
  <style type="text/css">*{stroke-linecap:butt;stroke-linejoin:round;}</style>
 </defs>
 <g id="figure_1">
  <g id="patch_1">
   <path d="M 0 432 
L 576 432 
L 576 0 
L 0 0 
z
" style="fill:#ffffff;"/>
  </g>
  <g id="axes_1">
   <g id="patch_2">
    <path d="M 72 384.48 
L 518.4 384.48 
L 518.4 51.84 
L 72 51.84 
z
" style="fill:#ffffff;"/>
   </g>
   <g id="matplotlib.axis_1">
    <g id="xtick_1">
     <g id="line2d_1">
      <defs>
       <path d="M 0 0 
L 0 3.5 
" id="m95da801a03" style="stroke:#000000;stroke-width:0.8;"/>
      </defs>
      <g>
       <use style="stroke:#000000;stroke-width:0.8;" x="92.290909" xlink:href="#m95da801a03" y="384.48"/>
      </g>
     </g>
     <g id="text_1">
      <!-- 0 -->
      <g transform="translate(89.109659 399.078438)scale(0.1 -0.1)">
       <defs>
        <path d="M 31.78125 66.40625 
Q 24.171875 66.40625 20.328125 58.90625 
Q 16.5 51.421875 16.5 36.375 
Q 16.5 21.390625 20.328125 13.890625 
Q 24.171875 6.390625 31.78125 6.390625 
Q 39.453125 6.390625 43.28125 13.890625 
Q 47.125 21.390625 47.125 36.375 
Q 47.125 51.421875 43.28125 58.90625 
Q 39.453125 66.40625 31.78125 66.40625 
z
M 31.78125 74.21875 
Q 44.046875 74.21875 50.515625 64.515625 
Q 56.984375 54.828125 56.984375 36.375 
Q 56.984375 17.96875 50.515625 8.265625 
Q 44.046875 -1.421875 31.78125 -1.421875 
Q 19.53125 -1.421875 13.0625 8.265625 
Q 6.59375 17.96875 6.59375 36.375 
Q 6.59375 54.828125 13.0625 64.515625 
Q 19.53125 74.21875 31.78125 74.21875 
z
" id="DejaVuSans-48"/>
       </defs>
       <use xlink:href="#DejaVuSans-48"/>
      </g>
     </g>
    </g>
    <g id="xtick_2">
     <g id="line2d_2">
      <g>
       <use style="stroke:#000000;stroke-width:0.8;" x="173.617198" xlink:href="#m95da801a03" y="384.48"/>
      </g>
     </g>
     <g id="text_2">
      <!-- 100 -->
      <g transform="translate(164.073448 399.078438)scale(0.1 -0.1)">
       <defs>
        <path d="M 12.40625 8.296875 
L 28.515625 8.296875 
L 28.515625 63.921875 
L 10.984375 60.40625 
L 10.984375 69.390625 
L 28.421875 72.90625 
L 38.28125 72.90625 
L 38.28125 8.296875 
L 54.390625 8.296875 
L 54.390625 0 
L 12.40625 0 
z
" id="DejaVuSans-49"/>
       </defs>
       <use xlink:href="#DejaVuSans-49"/>
       <use x="63.623047" xlink:href="#DejaVuSans-48"/>
       <use x="127.246094" xlink:href="#DejaVuSans-48"/>
      </g>
     </g>
    </g>
    <g id="xtick_3">
     <g id="line2d_3">
      <g>
       <use style="stroke:#000000;stroke-width:0.8;" x="254.943487" xlink:href="#m95da801a03" y="384.48"/>
      </g>
     </g>
     <g id="text_3">
      <!-- 200 -->
      <g transform="translate(245.399737 399.078438)scale(0.1 -0.1)">
       <defs>
        <path d="M 19.1875 8.296875 
L 53.609375 8.296875 
L 53.609375 0 
L 7.328125 0 
L 7.328125 8.296875 
Q 12.9375 14.109375 22.625 23.890625 
Q 32.328125 33.6875 34.8125 36.53125 
Q 39.546875 41.84375 41.421875 45.53125 
Q 43.3125 49.21875 43.3125 52.78125 
Q 43.3125 58.59375 39.234375 62.25 
Q 35.15625 65.921875 28.609375 65.921875 
Q 23.96875 65.921875 18.8125 64.3125 
Q 13.671875 62.703125 7.8125 59.421875 
L 7.8125 69.390625 
Q 13.765625 71.78125 18.9375 73 
Q 24.125 74.21875 28.421875 74.21875 
Q 39.75 74.21875 46.484375 68.546875 
Q 53.21875 62.890625 53.21875 53.421875 
Q 53.21875 48.921875 51.53125 44.890625 
Q 49.859375 40.875 45.40625 35.40625 
Q 44.1875 33.984375 37.640625 27.21875 
Q 31.109375 20.453125 19.1875 8.296875 
z
" id="DejaVuSans-50"/>
       </defs>
       <use xlink:href="#DejaVuSans-50"/>
       <use x="63.623047" xlink:href="#DejaVuSans-48"/>
       <use x="127.246094" xlink:href="#DejaVuSans-48"/>
      </g>
     </g>
    </g>
    <g id="xtick_4">
     <g id="line2d_4">
      <g>
       <use style="stroke:#000000;stroke-width:0.8;" x="336.269776" xlink:href="#m95da801a03" y="384.48"/>
      </g>
     </g>
     <g id="text_4">
      <!-- 300 -->
      <g transform="translate(326.726026 399.078438)scale(0.1 -0.1)">
       <defs>
        <path d="M 40.578125 39.3125 
Q 47.65625 37.796875 51.625 33 
Q 55.609375 28.21875 55.609375 21.1875 
Q 55.609375 10.40625 48.1875 4.484375 
Q 40.765625 -1.421875 27.09375 -1.421875 
Q 22.515625 -1.421875 17.65625 -0.515625 
Q 12.796875 0.390625 7.625 2.203125 
L 7.625 11.71875 
Q 11.71875 9.328125 16.59375 8.109375 
Q 21.484375 6.890625 26.8125 6.890625 
Q 36.078125 6.890625 40.9375 10.546875 
Q 45.796875 14.203125 45.796875 21.1875 
Q 45.796875 27.640625 41.28125 31.265625 
Q 36.765625 34.90625 28.71875 34.90625 
L 20.21875 34.90625 
L 20.21875 43.015625 
L 29.109375 43.015625 
Q 36.375 43.015625 40.234375 45.921875 
Q 44.09375 48.828125 44.09375 54.296875 
Q 44.09375 59.90625 40.109375 62.90625 
Q 36.140625 65.921875 28.71875 65.921875 
Q 24.65625 65.921875 20.015625 65.03125 
Q 15.375 64.15625 9.8125 62.3125 
L 9.8125 71.09375 
Q 15.4375 72.65625 20.34375 73.4375 
Q 25.25 74.21875 29.59375 74.21875 
Q 40.828125 74.21875 47.359375 69.109375 
Q 53.90625 64.015625 53.90625 55.328125 
Q 53.90625 49.265625 50.4375 45.09375 
Q 46.96875 40.921875 40.578125 39.3125 
z
" id="DejaVuSans-51"/>
       </defs>
       <use xlink:href="#DejaVuSans-51"/>
       <use x="63.623047" xlink:href="#DejaVuSans-48"/>
       <use x="127.246094" xlink:href="#DejaVuSans-48"/>
      </g>
     </g>
    </g>
    <g id="xtick_5">
     <g id="line2d_5">
      <g>
       <use style="stroke:#000000;stroke-width:0.8;" x="417.596065" xlink:href="#m95da801a03" y="384.48"/>
      </g>
     </g>
     <g id="text_5">
      <!-- 400 -->
      <g transform="translate(408.052315 399.078438)scale(0.1 -0.1)">
       <defs>
        <path d="M 37.796875 64.3125 
L 12.890625 25.390625 
L 37.796875 25.390625 
z
M 35.203125 72.90625 
L 47.609375 72.90625 
L 47.609375 25.390625 
L 58.015625 25.390625 
L 58.015625 17.1875 
L 47.609375 17.1875 
L 47.609375 0 
L 37.796875 0 
L 37.796875 17.1875 
L 4.890625 17.1875 
L 4.890625 26.703125 
z
" id="DejaVuSans-52"/>
       </defs>
       <use xlink:href="#DejaVuSans-52"/>
       <use x="63.623047" xlink:href="#DejaVuSans-48"/>
       <use x="127.246094" xlink:href="#DejaVuSans-48"/>
      </g>
     </g>
    </g>
    <g id="xtick_6">
     <g id="line2d_6">
      <g>
       <use style="stroke:#000000;stroke-width:0.8;" x="498.922354" xlink:href="#m95da801a03" y="384.48"/>
      </g>
     </g>
     <g id="text_6">
      <!-- 500 -->
      <g transform="translate(489.378604 399.078438)scale(0.1 -0.1)">
       <defs>
        <path d="M 10.796875 72.90625 
L 49.515625 72.90625 
L 49.515625 64.59375 
L 19.828125 64.59375 
L 19.828125 46.734375 
Q 21.96875 47.46875 24.109375 47.828125 
Q 26.265625 48.1875 28.421875 48.1875 
Q 40.625 48.1875 47.75 41.5 
Q 54.890625 34.8125 54.890625 23.390625 
Q 54.890625 11.625 47.5625 5.09375 
Q 40.234375 -1.421875 26.90625 -1.421875 
Q 22.3125 -1.421875 17.546875 -0.640625 
Q 12.796875 0.140625 7.71875 1.703125 
L 7.71875 11.625 
Q 12.109375 9.234375 16.796875 8.0625 
Q 21.484375 6.890625 26.703125 6.890625 
Q 35.15625 6.890625 40.078125 11.328125 
Q 45.015625 15.765625 45.015625 23.390625 
Q 45.015625 31 40.078125 35.4375 
Q 35.15625 39.890625 26.703125 39.890625 
Q 22.75 39.890625 18.8125 39.015625 
Q 14.890625 38.140625 10.796875 36.28125 
z
" id="DejaVuSans-53"/>
       </defs>
       <use xlink:href="#DejaVuSans-53"/>
       <use x="63.623047" xlink:href="#DejaVuSans-48"/>
       <use x="127.246094" xlink:href="#DejaVuSans-48"/>
      </g>
     </g>
    </g>
    <g id="text_7">
     <!-- epoch -->
     <g transform="translate(279.971875 412.756563)scale(0.1 -0.1)">
      <defs>
       <path d="M 56.203125 29.59375 
L 56.203125 25.203125 
L 14.890625 25.203125 
Q 15.484375 15.921875 20.484375 11.0625 
Q 25.484375 6.203125 34.421875 6.203125 
Q 39.59375 6.203125 44.453125 7.46875 
Q 49.3125 8.734375 54.109375 11.28125 
L 54.109375 2.78125 
Q 49.265625 0.734375 44.1875 -0.34375 
Q 39.109375 -1.421875 33.890625 -1.421875 
Q 20.796875 -1.421875 13.15625 6.1875 
Q 5.515625 13.8125 5.515625 26.8125 
Q 5.515625 40.234375 12.765625 48.109375 
Q 20.015625 56 32.328125 56 
Q 43.359375 56 49.78125 48.890625 
Q 56.203125 41.796875 56.203125 29.59375 
z
M 47.21875 32.234375 
Q 47.125 39.59375 43.09375 43.984375 
Q 39.0625 48.390625 32.421875 48.390625 
Q 24.90625 48.390625 20.390625 44.140625 
Q 15.875 39.890625 15.1875 32.171875 
z
" id="DejaVuSans-101"/>
       <path d="M 18.109375 8.203125 
L 18.109375 -20.796875 
L 9.078125 -20.796875 
L 9.078125 54.6875 
L 18.109375 54.6875 
L 18.109375 46.390625 
Q 20.953125 51.265625 25.265625 53.625 
Q 29.59375 56 35.59375 56 
Q 45.5625 56 51.78125 48.09375 
Q 58.015625 40.1875 58.015625 27.296875 
Q 58.015625 14.40625 51.78125 6.484375 
Q 45.5625 -1.421875 35.59375 -1.421875 
Q 29.59375 -1.421875 25.265625 0.953125 
Q 20.953125 3.328125 18.109375 8.203125 
z
M 48.6875 27.296875 
Q 48.6875 37.203125 44.609375 42.84375 
Q 40.53125 48.484375 33.40625 48.484375 
Q 26.265625 48.484375 22.1875 42.84375 
Q 18.109375 37.203125 18.109375 27.296875 
Q 18.109375 17.390625 22.1875 11.75 
Q 26.265625 6.109375 33.40625 6.109375 
Q 40.53125 6.109375 44.609375 11.75 
Q 48.6875 17.390625 48.6875 27.296875 
z
" id="DejaVuSans-112"/>
       <path d="M 30.609375 48.390625 
Q 23.390625 48.390625 19.1875 42.75 
Q 14.984375 37.109375 14.984375 27.296875 
Q 14.984375 17.484375 19.15625 11.84375 
Q 23.34375 6.203125 30.609375 6.203125 
Q 37.796875 6.203125 41.984375 11.859375 
Q 46.1875 17.53125 46.1875 27.296875 
Q 46.1875 37.015625 41.984375 42.703125 
Q 37.796875 48.390625 30.609375 48.390625 
z
M 30.609375 56 
Q 42.328125 56 49.015625 48.375 
Q 55.71875 40.765625 55.71875 27.296875 
Q 55.71875 13.875 49.015625 6.21875 
Q 42.328125 -1.421875 30.609375 -1.421875 
Q 18.84375 -1.421875 12.171875 6.21875 
Q 5.515625 13.875 5.515625 27.296875 
Q 5.515625 40.765625 12.171875 48.375 
Q 18.84375 56 30.609375 56 
z
" id="DejaVuSans-111"/>
       <path d="M 48.78125 52.59375 
L 48.78125 44.1875 
Q 44.96875 46.296875 41.140625 47.34375 
Q 37.3125 48.390625 33.40625 48.390625 
Q 24.65625 48.390625 19.8125 42.84375 
Q 14.984375 37.3125 14.984375 27.296875 
Q 14.984375 17.28125 19.8125 11.734375 
Q 24.65625 6.203125 33.40625 6.203125 
Q 37.3125 6.203125 41.140625 7.25 
Q 44.96875 8.296875 48.78125 10.40625 
L 48.78125 2.09375 
Q 45.015625 0.34375 40.984375 -0.53125 
Q 36.96875 -1.421875 32.421875 -1.421875 
Q 20.0625 -1.421875 12.78125 6.34375 
Q 5.515625 14.109375 5.515625 27.296875 
Q 5.515625 40.671875 12.859375 48.328125 
Q 20.21875 56 33.015625 56 
Q 37.15625 56 41.109375 55.140625 
Q 45.0625 54.296875 48.78125 52.59375 
z
" id="DejaVuSans-99"/>
       <path d="M 54.890625 33.015625 
L 54.890625 0 
L 45.90625 0 
L 45.90625 32.71875 
Q 45.90625 40.484375 42.875 44.328125 
Q 39.84375 48.1875 33.796875 48.1875 
Q 26.515625 48.1875 22.3125 43.546875 
Q 18.109375 38.921875 18.109375 30.90625 
L 18.109375 0 
L 9.078125 0 
L 9.078125 75.984375 
L 18.109375 75.984375 
L 18.109375 46.1875 
Q 21.34375 51.125 25.703125 53.5625 
Q 30.078125 56 35.796875 56 
Q 45.21875 56 50.046875 50.171875 
Q 54.890625 44.34375 54.890625 33.015625 
z
" id="DejaVuSans-104"/>
      </defs>
      <use xlink:href="#DejaVuSans-101"/>
      <use x="61.523438" xlink:href="#DejaVuSans-112"/>
      <use x="125" xlink:href="#DejaVuSans-111"/>
      <use x="186.181641" xlink:href="#DejaVuSans-99"/>
      <use x="241.162109" xlink:href="#DejaVuSans-104"/>
     </g>
    </g>
   </g>
   <g id="matplotlib.axis_2">
    <g id="ytick_1">
     <g id="line2d_7">
      <defs>
       <path d="M 0 0 
L -3.5 0 
" id="m42156f9a20" style="stroke:#000000;stroke-width:0.8;"/>
      </defs>
      <g>
       <use style="stroke:#000000;stroke-width:0.8;" x="72" xlink:href="#m42156f9a20" y="384.48"/>
      </g>
     </g>
     <g id="text_8">
      <!-- 0.0 -->
      <g transform="translate(49.096875 388.279219)scale(0.1 -0.1)">
       <defs>
        <path d="M 10.6875 12.40625 
L 21 12.40625 
L 21 0 
L 10.6875 0 
z
" id="DejaVuSans-46"/>
       </defs>
       <use xlink:href="#DejaVuSans-48"/>
       <use x="63.623047" xlink:href="#DejaVuSans-46"/>
       <use x="95.410156" xlink:href="#DejaVuSans-48"/>
      </g>
     </g>
    </g>
    <g id="ytick_2">
     <g id="line2d_8">
      <g>
       <use style="stroke:#000000;stroke-width:0.8;" x="72" xlink:href="#m42156f9a20" y="317.952"/>
      </g>
     </g>
     <g id="text_9">
      <!-- 0.2 -->
      <g transform="translate(49.096875 321.751219)scale(0.1 -0.1)">
       <use xlink:href="#DejaVuSans-48"/>
       <use x="63.623047" xlink:href="#DejaVuSans-46"/>
       <use x="95.410156" xlink:href="#DejaVuSans-50"/>
      </g>
     </g>
    </g>
    <g id="ytick_3">
     <g id="line2d_9">
      <g>
       <use style="stroke:#000000;stroke-width:0.8;" x="72" xlink:href="#m42156f9a20" y="251.424"/>
      </g>
     </g>
     <g id="text_10">
      <!-- 0.4 -->
      <g transform="translate(49.096875 255.223219)scale(0.1 -0.1)">
       <use xlink:href="#DejaVuSans-48"/>
       <use x="63.623047" xlink:href="#DejaVuSans-46"/>
       <use x="95.410156" xlink:href="#DejaVuSans-52"/>
      </g>
     </g>
    </g>
    <g id="ytick_4">
     <g id="line2d_10">
      <g>
       <use style="stroke:#000000;stroke-width:0.8;" x="72" xlink:href="#m42156f9a20" y="184.896"/>
      </g>
     </g>
     <g id="text_11">
      <!-- 0.6 -->
      <g transform="translate(49.096875 188.695219)scale(0.1 -0.1)">
       <defs>
        <path d="M 33.015625 40.375 
Q 26.375 40.375 22.484375 35.828125 
Q 18.609375 31.296875 18.609375 23.390625 
Q 18.609375 15.53125 22.484375 10.953125 
Q 26.375 6.390625 33.015625 6.390625 
Q 39.65625 6.390625 43.53125 10.953125 
Q 47.40625 15.53125 47.40625 23.390625 
Q 47.40625 31.296875 43.53125 35.828125 
Q 39.65625 40.375 33.015625 40.375 
z
M 52.59375 71.296875 
L 52.59375 62.3125 
Q 48.875 64.0625 45.09375 64.984375 
Q 41.3125 65.921875 37.59375 65.921875 
Q 27.828125 65.921875 22.671875 59.328125 
Q 17.53125 52.734375 16.796875 39.40625 
Q 19.671875 43.65625 24.015625 45.921875 
Q 28.375 48.1875 33.59375 48.1875 
Q 44.578125 48.1875 50.953125 41.515625 
Q 57.328125 34.859375 57.328125 23.390625 
Q 57.328125 12.15625 50.6875 5.359375 
Q 44.046875 -1.421875 33.015625 -1.421875 
Q 20.359375 -1.421875 13.671875 8.265625 
Q 6.984375 17.96875 6.984375 36.375 
Q 6.984375 53.65625 15.1875 63.9375 
Q 23.390625 74.21875 37.203125 74.21875 
Q 40.921875 74.21875 44.703125 73.484375 
Q 48.484375 72.75 52.59375 71.296875 
z
" id="DejaVuSans-54"/>
       </defs>
       <use xlink:href="#DejaVuSans-48"/>
       <use x="63.623047" xlink:href="#DejaVuSans-46"/>
       <use x="95.410156" xlink:href="#DejaVuSans-54"/>
      </g>
     </g>
    </g>
    <g id="ytick_5">
     <g id="line2d_11">
      <g>
       <use style="stroke:#000000;stroke-width:0.8;" x="72" xlink:href="#m42156f9a20" y="118.368"/>
      </g>
     </g>
     <g id="text_12">
      <!-- 0.8 -->
      <g transform="translate(49.096875 122.167219)scale(0.1 -0.1)">
       <defs>
        <path d="M 31.78125 34.625 
Q 24.75 34.625 20.71875 30.859375 
Q 16.703125 27.09375 16.703125 20.515625 
Q 16.703125 13.921875 20.71875 10.15625 
Q 24.75 6.390625 31.78125 6.390625 
Q 38.8125 6.390625 42.859375 10.171875 
Q 46.921875 13.96875 46.921875 20.515625 
Q 46.921875 27.09375 42.890625 30.859375 
Q 38.875 34.625 31.78125 34.625 
z
M 21.921875 38.8125 
Q 15.578125 40.375 12.03125 44.71875 
Q 8.5 49.078125 8.5 55.328125 
Q 8.5 64.0625 14.71875 69.140625 
Q 20.953125 74.21875 31.78125 74.21875 
Q 42.671875 74.21875 48.875 69.140625 
Q 55.078125 64.0625 55.078125 55.328125 
Q 55.078125 49.078125 51.53125 44.71875 
Q 48 40.375 41.703125 38.8125 
Q 48.828125 37.15625 52.796875 32.3125 
Q 56.78125 27.484375 56.78125 20.515625 
Q 56.78125 9.90625 50.3125 4.234375 
Q 43.84375 -1.421875 31.78125 -1.421875 
Q 19.734375 -1.421875 13.25 4.234375 
Q 6.78125 9.90625 6.78125 20.515625 
Q 6.78125 27.484375 10.78125 32.3125 
Q 14.796875 37.15625 21.921875 38.8125 
z
M 18.3125 54.390625 
Q 18.3125 48.734375 21.84375 45.5625 
Q 25.390625 42.390625 31.78125 42.390625 
Q 38.140625 42.390625 41.71875 45.5625 
Q 45.3125 48.734375 45.3125 54.390625 
Q 45.3125 60.0625 41.71875 63.234375 
Q 38.140625 66.40625 31.78125 66.40625 
Q 25.390625 66.40625 21.84375 63.234375 
Q 18.3125 60.0625 18.3125 54.390625 
z
" id="DejaVuSans-56"/>
       </defs>
       <use xlink:href="#DejaVuSans-48"/>
       <use x="63.623047" xlink:href="#DejaVuSans-46"/>
       <use x="95.410156" xlink:href="#DejaVuSans-56"/>
      </g>
     </g>
    </g>
    <g id="ytick_6">
     <g id="line2d_12">
      <g>
       <use style="stroke:#000000;stroke-width:0.8;" x="72" xlink:href="#m42156f9a20" y="51.84"/>
      </g>
     </g>
     <g id="text_13">
      <!-- 1.0 -->
      <g transform="translate(49.096875 55.639219)scale(0.1 -0.1)">
       <use xlink:href="#DejaVuSans-49"/>
       <use x="63.623047" xlink:href="#DejaVuSans-46"/>
       <use x="95.410156" xlink:href="#DejaVuSans-48"/>
      </g>
     </g>
    </g>
    <g id="text_14">
     <!-- rate -->
     <g transform="translate(43.017187 228.31625)rotate(-90)scale(0.1 -0.1)">
      <defs>
       <path d="M 41.109375 46.296875 
Q 39.59375 47.171875 37.8125 47.578125 
Q 36.03125 48 33.890625 48 
Q 26.265625 48 22.1875 43.046875 
Q 18.109375 38.09375 18.109375 28.8125 
L 18.109375 0 
L 9.078125 0 
L 9.078125 54.6875 
L 18.109375 54.6875 
L 18.109375 46.1875 
Q 20.953125 51.171875 25.484375 53.578125 
Q 30.03125 56 36.53125 56 
Q 37.453125 56 38.578125 55.875 
Q 39.703125 55.765625 41.0625 55.515625 
z
" id="DejaVuSans-114"/>
       <path d="M 34.28125 27.484375 
Q 23.390625 27.484375 19.1875 25 
Q 14.984375 22.515625 14.984375 16.5 
Q 14.984375 11.71875 18.140625 8.90625 
Q 21.296875 6.109375 26.703125 6.109375 
Q 34.1875 6.109375 38.703125 11.40625 
Q 43.21875 16.703125 43.21875 25.484375 
L 43.21875 27.484375 
z
M 52.203125 31.203125 
L 52.203125 0 
L 43.21875 0 
L 43.21875 8.296875 
Q 40.140625 3.328125 35.546875 0.953125 
Q 30.953125 -1.421875 24.3125 -1.421875 
Q 15.921875 -1.421875 10.953125 3.296875 
Q 6 8.015625 6 15.921875 
Q 6 25.140625 12.171875 29.828125 
Q 18.359375 34.515625 30.609375 34.515625 
L 43.21875 34.515625 
L 43.21875 35.40625 
Q 43.21875 41.609375 39.140625 45 
Q 35.0625 48.390625 27.6875 48.390625 
Q 23 48.390625 18.546875 47.265625 
Q 14.109375 46.140625 10.015625 43.890625 
L 10.015625 52.203125 
Q 14.9375 54.109375 19.578125 55.046875 
Q 24.21875 56 28.609375 56 
Q 40.484375 56 46.34375 49.84375 
Q 52.203125 43.703125 52.203125 31.203125 
z
" id="DejaVuSans-97"/>
       <path d="M 18.3125 70.21875 
L 18.3125 54.6875 
L 36.8125 54.6875 
L 36.8125 47.703125 
L 18.3125 47.703125 
L 18.3125 18.015625 
Q 18.3125 11.328125 20.140625 9.421875 
Q 21.96875 7.515625 27.59375 7.515625 
L 36.8125 7.515625 
L 36.8125 0 
L 27.59375 0 
Q 17.1875 0 13.234375 3.875 
Q 9.28125 7.765625 9.28125 18.015625 
L 9.28125 47.703125 
L 2.6875 47.703125 
L 2.6875 54.6875 
L 9.28125 54.6875 
L 9.28125 70.21875 
z
" id="DejaVuSans-116"/>
      </defs>
      <use xlink:href="#DejaVuSans-114"/>
      <use x="41.113281" xlink:href="#DejaVuSans-97"/>
      <use x="102.392578" xlink:href="#DejaVuSans-116"/>
      <use x="141.601562" xlink:href="#DejaVuSans-101"/>
     </g>
    </g>
   </g>
   <g id="line2d_13">
    <path clip-path="url(#p249c5193b3)" d="M 92.290909 191.964979 
L 93.104172 116.112357 
L 93.917435 117.538318 
L 94.730698 115.031327 
L 95.543961 113.721144 
L 96.357224 113.135742 
L 97.170486 113.064098 
L 97.983749 109.670665 
L 98.797012 110.779715 
L 99.610275 110.505059 
L 100.423538 90.858196 
L 101.236801 138.844136 
L 102.050064 107.536221 
L 102.863327 111.761633 
L 103.67659 106.739781 
L 104.489852 104.506205 
L 105.303115 105.925057 
L 106.116378 103.643376 
L 106.929641 103.570096 
L 107.742904 102.61707 
L 108.556167 94.356616 
L 109.36943 136.93356 
L 110.182693 109.584028 
L 110.995956 109.226071 
L 111.809218 108.486021 
L 112.622481 104.358305 
L 113.435744 103.767515 
L 114.249007 102.808702 
L 115.06227 102.96766 
L 115.875533 99.884879 
L 116.688796 87.513255 
L 117.502059 137.942553 
L 118.315322 112.795012 
L 119.128584 108.186891 
L 119.941847 106.82529 
L 120.75511 105.823739 
L 121.568373 99.972375 
L 122.381636 102.625039 
L 123.194899 99.831489 
L 124.008162 100.698746 
L 124.821425 88.939172 
L 125.634688 132.859315 
L 127.261213 104.283902 
L 128.074476 106.795182 
L 128.887739 105.419758 
L 129.701002 100.440798 
L 130.514265 101.22632 
L 131.327528 97.224432 
L 132.140791 97.225763 
L 132.954054 90.356179 
L 133.767316 132.586305 
L 134.580579 120.909724 
L 135.393842 102.231689 
L 136.207105 104.451904 
L 137.020368 103.634232 
L 137.833631 97.852107 
L 139.460157 96.148334 
L 140.27342 94.374449 
L 141.086682 91.938486 
L 141.899945 129.682144 
L 142.713208 123.631683 
L 143.526471 104.625268 
L 144.339734 102.245226 
L 145.152997 103.122837 
L 145.96626 99.147567 
L 146.779523 93.736803 
L 147.592786 94.810565 
L 148.406048 92.034444 
L 149.219311 90.617557 
L 150.032574 127.823807 
L 150.845837 123.451745 
L 151.6591 103.603438 
L 152.472363 102.015291 
L 153.285626 102.504559 
L 154.098889 97.072201 
L 154.912152 92.939907 
L 155.725414 89.772088 
L 156.538677 89.30691 
L 157.35194 91.471678 
L 158.165203 124.369807 
L 158.978466 127.086577 
L 159.791729 105.387105 
L 160.604992 98.444757 
L 161.418255 99.212723 
L 162.231518 97.98391 
L 163.04478 92.144316 
L 163.858043 90.836834 
L 164.671306 87.033138 
L 165.484569 89.970163 
L 166.297832 123.19889 
L 167.111095 128.971269 
L 167.924358 109.342902 
L 168.737621 96.314164 
L 169.550884 99.427576 
L 170.364146 96.380115 
L 171.177409 89.032439 
L 171.990672 88.396924 
L 172.803935 85.582854 
L 174.430461 113.175202 
L 175.243724 119.971134 
L 176.056987 118.922058 
L 176.87025 111.13729 
L 178.496775 102.404273 
L 179.310038 101.466344 
L 180.123301 99.066315 
L 180.936564 97.654552 
L 182.56309 87.070895 
L 183.376353 111.442149 
L 184.189616 117.584078 
L 185.002878 117.018937 
L 185.816141 108.737096 
L 186.629404 101.644901 
L 187.442667 98.865858 
L 188.25593 100.979493 
L 189.069193 96.869993 
L 189.882456 108.656308 
L 190.695719 91.45887 
L 191.508982 105.0474 
L 192.322244 114.69916 
L 193.135507 115.532861 
L 193.94877 107.97827 
L 194.762033 104.336667 
L 196.388559 98.695175 
L 197.201822 95.870553 
L 198.015085 95.502976 
L 198.828348 89.074208 
L 199.64161 103.278213 
L 200.454873 113.17831 
L 201.268136 114.851365 
L 202.894662 103.715114 
L 203.707925 101.816613 
L 204.521188 97.044001 
L 205.334451 96.139427 
L 206.147714 101.283501 
L 206.960976 89.472264 
L 208.587502 109.447081 
L 209.400765 111.3846 
L 210.214028 109.554488 
L 211.027291 104.7982 
L 211.840554 102.032864 
L 212.653817 97.376279 
L 213.46708 96.110308 
L 214.280343 97.396124 
L 215.093605 90.695252 
L 215.906868 93.597759 
L 216.720131 105.273715 
L 217.533394 110.629429 
L 218.346657 108.512536 
L 219.15992 104.800421 
L 219.973183 100.330726 
L 220.786446 99.170263 
L 221.599709 96.549793 
L 222.412971 100.332074 
L 223.226234 91.400067 
L 224.039497 92.340893 
L 224.85276 103.602555 
L 225.666023 108.75012 
L 226.479286 106.304149 
L 227.292549 104.832357 
L 228.105812 102.660916 
L 228.919075 99.589449 
L 229.732337 95.234879 
L 230.5456 96.608318 
L 231.358863 90.869304 
L 232.172126 91.929053 
L 232.985389 98.229338 
L 233.798652 103.292978 
L 234.611915 104.823481 
L 235.425178 103.602421 
L 236.238441 100.757647 
L 237.051703 96.722735 
L 237.864966 96.546751 
L 238.678229 96.147935 
L 239.491492 94.548099 
L 240.304755 92.175416 
L 241.118018 95.433489 
L 241.931281 100.373933 
L 242.744544 103.428153 
L 243.557807 105.571709 
L 244.371069 100.951482 
L 245.184332 100.432711 
L 245.997595 97.36532 
L 246.810858 101.522494 
L 247.624121 92.884031 
L 248.437384 85.452911 
L 249.250647 90.499277 
L 250.06391 98.227783 
L 250.877173 102.438177 
L 251.690435 106.034103 
L 252.503698 101.378681 
L 254.130224 96.421245 
L 254.943487 103.199743 
L 255.75675 93.348828 
L 256.570013 88.210663 
L 257.383276 87.771742 
L 258.196539 96.494694 
L 259.009801 99.377766 
L 259.823064 100.256144 
L 260.636327 99.917073 
L 261.44959 99.818879 
L 262.262853 95.906644 
L 263.076116 102.860298 
L 263.889379 87.367344 
L 264.702642 90.420648 
L 265.515905 86.762089 
L 267.14243 95.52356 
L 267.955693 99.314135 
L 268.768956 99.547839 
L 269.582219 98.821867 
L 270.395482 99.6559 
L 271.208745 99.093132 
L 272.022008 96.469917 
L 272.835271 90.006539 
L 273.648533 87.823164 
L 274.461796 90.028648 
L 275.275059 96.551355 
L 276.088322 96.969703 
L 276.901585 97.764113 
L 277.714848 97.313122 
L 278.528111 99.077305 
L 279.341374 105.5192 
L 280.967899 88.208035 
L 281.781162 83.369166 
L 282.594425 89.078933 
L 283.407688 90.490271 
L 284.220951 96.754469 
L 285.034214 98.273556 
L 285.847477 97.340624 
L 286.66074 95.780834 
L 287.474003 110.416768 
L 288.287265 88.12051 
L 289.100528 91.026436 
L 289.913791 87.896013 
L 290.727054 88.443845 
L 291.540317 87.23457 
L 292.35358 92.829223 
L 293.166843 92.976378 
L 293.980106 93.600945 
L 294.793369 93.90501 
L 295.606631 104.615956 
L 296.419894 95.74007 
L 297.233157 95.267119 
L 298.04642 88.88248 
L 298.859683 84.159779 
L 299.672946 89.576196 
L 300.486209 89.448657 
L 301.299472 92.329611 
L 302.112735 92.440946 
L 302.925997 93.755912 
L 303.73926 107.243578 
L 305.365786 89.164506 
L 306.179049 89.477727 
L 306.992312 85.020521 
L 307.805575 86.009846 
L 308.618838 85.952447 
L 309.432101 88.269778 
L 310.245363 91.129591 
L 311.058626 90.47272 
L 311.871889 105.09989 
L 312.685152 94.944223 
L 313.498415 104.171924 
L 314.311678 90.608433 
L 315.124941 85.716154 
L 315.938204 84.370946 
L 316.751467 88.400202 
L 317.564729 87.554358 
L 318.377992 86.481014 
L 320.004518 94.179423 
L 320.817781 96.028542 
L 321.631044 90.168346 
L 322.444307 89.339836 
L 323.25757 82.14655 
L 324.070833 84.04056 
L 324.884095 84.949517 
L 325.697358 84.575392 
L 326.510621 87.310745 
L 327.323884 89.517795 
L 328.137147 107.452758 
L 328.95041 97.963221 
L 329.763673 90.810484 
L 330.576936 91.198551 
L 331.390199 85.013915 
L 332.203461 82.664981 
L 333.016724 82.190709 
L 333.829987 84.286312 
L 334.64325 84.811288 
L 335.456513 86.434278 
L 336.269776 108.960675 
L 337.083039 99.266377 
L 337.896302 92.941943 
L 338.709565 93.13088 
L 339.522827 86.118951 
L 340.33609 84.978944 
L 341.149353 81.496847 
L 341.962616 83.93848 
L 342.775879 85.430383 
L 343.589142 82.520298 
L 344.402405 107.872335 
L 345.215668 97.183379 
L 346.842193 92.241551 
L 347.655456 88.287519 
L 348.468719 87.857549 
L 349.281982 82.447637 
L 350.095245 80.044281 
L 350.908508 86.195943 
L 351.721771 83.291423 
L 352.535034 101.257889 
L 353.348297 100.943928 
L 354.161559 93.114611 
L 354.974822 92.615359 
L 355.788085 88.989358 
L 356.601348 87.020052 
L 357.414611 80.390863 
L 358.227874 87.891466 
L 359.041137 83.011943 
L 359.8544 84.443495 
L 360.667663 105.746412 
L 361.480925 96.426532 
L 362.294188 94.189816 
L 363.107451 99.479161 
L 363.920714 90.943622 
L 364.733977 90.806701 
L 365.54724 84.893951 
L 366.360503 83.98079 
L 367.173766 82.261334 
L 367.987029 78.959318 
L 368.800291 119.648963 
L 369.613554 97.349632 
L 370.426817 89.973071 
L 371.24008 89.657152 
L 372.053343 91.400982 
L 372.866606 88.899734 
L 373.679869 87.708336 
L 374.493132 81.696783 
L 375.306395 81.407154 
L 376.119657 81.849347 
L 376.93292 110.093321 
L 377.746183 100.932294 
L 378.559446 102.12695 
L 379.372709 90.608563 
L 380.185972 95.249612 
L 380.999235 85.219724 
L 381.812498 85.755458 
L 382.625761 86.656427 
L 383.439024 81.539975 
L 384.252286 81.147596 
L 385.065549 100.774368 
L 385.878812 96.269802 
L 386.692075 95.417533 
L 387.505338 94.242536 
L 388.318601 93.540893 
L 389.131864 91.262597 
L 390.75839 79.257202 
L 391.571652 82.699698 
L 392.384915 79.947349 
L 393.198178 107.706935 
L 394.011441 106.632813 
L 394.824704 94.255974 
L 395.637967 96.263707 
L 396.45123 95.529797 
L 397.264493 93.43333 
L 398.077756 89.076918 
L 398.891018 83.899121 
L 399.704281 87.037568 
L 400.517544 78.46738 
L 401.330807 104.795634 
L 402.14407 104.819417 
L 402.957333 91.184899 
L 403.770596 98.302215 
L 404.583859 88.61403 
L 405.397122 93.249059 
L 406.210384 88.305735 
L 407.023647 86.485184 
L 407.83691 81.323025 
L 408.650173 83.305967 
L 409.463436 105.27156 
L 410.276699 94.054159 
L 411.089962 96.752622 
L 411.903225 93.50886 
L 412.716488 89.443539 
L 413.52975 90.809248 
L 414.343013 88.741359 
L 415.156276 89.035592 
L 415.969539 86.242653 
L 416.782802 85.113492 
L 417.596065 111.372999 
L 418.409328 100.678023 
L 419.222591 92.805772 
L 420.035854 93.923226 
L 420.849116 94.597323 
L 421.662379 95.846056 
L 422.475642 91.085981 
L 423.288905 95.686191 
L 424.102168 85.342484 
L 424.915431 87.68251 
L 425.728694 107.078457 
L 426.541957 96.555028 
L 427.35522 96.660145 
L 428.168482 92.223231 
L 428.981745 93.996989 
L 429.795008 90.285536 
L 430.608271 88.806501 
L 431.421534 92.772632 
L 433.04806 86.212783 
L 433.861323 109.714526 
L 434.674586 94.482096 
L 435.487848 99.379467 
L 436.301111 93.231887 
L 437.114374 93.180458 
L 437.927637 94.445447 
L 438.7409 86.982277 
L 439.554163 92.822975 
L 440.367426 90.090182 
L 441.180689 91.085831 
L 441.993952 102.07499 
L 442.807214 99.436921 
L 443.620477 94.009182 
L 444.43374 95.025493 
L 445.247003 96.44861 
L 446.060266 96.206392 
L 446.873529 91.854471 
L 447.686792 95.896218 
L 448.500055 92.368855 
L 449.313318 85.707307 
L 450.12658 110.172126 
L 450.939843 103.161118 
L 451.753106 101.620688 
L 452.566369 91.403414 
L 453.379632 95.262533 
L 454.192895 103.373594 
L 455.006158 94.280769 
L 455.819421 92.130787 
L 456.632684 89.0761 
L 457.445946 86.525314 
L 458.259209 107.371151 
L 459.072472 97.898725 
L 459.885735 95.346411 
L 460.698998 97.47702 
L 461.512261 98.744394 
L 462.325524 95.568243 
L 463.138787 87.450234 
L 463.95205 94.702401 
L 464.765312 103.265976 
L 465.578575 83.231083 
L 466.391838 113.981462 
L 467.205101 97.884006 
L 468.018364 107.763291 
L 468.831627 87.343396 
L 469.64489 95.09101 
L 470.458153 104.111606 
L 471.271416 94.586431 
L 472.084678 93.915196 
L 472.897941 89.456748 
L 473.711204 86.275242 
L 474.524467 107.936067 
L 475.33773 103.469301 
L 476.150993 102.986835 
L 476.964256 98.944084 
L 477.777519 91.099212 
L 478.590782 95.069207 
L 480.217307 96.6793 
L 481.03057 91.508247 
L 481.843833 90.796931 
L 482.657096 103.695039 
L 483.470359 94.003151 
L 484.283622 97.506721 
L 485.096885 100.470032 
L 485.910148 100.144807 
L 487.536673 92.836358 
L 488.349936 85.350943 
L 489.163199 95.008665 
L 489.976462 99.084923 
L 490.789725 105.943758 
L 491.602988 105.98687 
L 492.416251 104.678353 
L 493.229514 100.08986 
L 494.042776 100.565311 
L 494.856039 92.520846 
L 495.669302 102.632176 
L 496.482565 94.520293 
L 497.295828 93.71044 
L 498.109091 96.131369 
L 498.109091 96.131369 
" style="fill:none;stroke:#0000ff;stroke-linecap:square;stroke-width:1.5;"/>
   </g>
   <g id="line2d_14">
    <path clip-path="url(#p249c5193b3)" d="M 92.290909 171.536598 
L 93.104172 152.107329 
L 93.917435 160.959993 
L 94.730698 150.355287 
L 95.543961 153.384401 
L 96.357224 150.575755 
L 97.170486 150.101313 
L 97.983749 148.935673 
L 98.797012 149.192314 
L 99.610275 148.38597 
L 100.423538 246.201242 
L 101.236801 130.598979 
L 102.050064 163.109211 
L 102.863327 167.20977 
L 103.67659 147.452956 
L 104.489852 150.062481 
L 105.303115 142.331774 
L 106.116378 143.824475 
L 106.929641 141.110083 
L 107.742904 140.365158 
L 108.556167 256.828619 
L 109.36943 128.595472 
L 110.182693 155.193995 
L 110.995956 166.84728 
L 111.809218 144.233973 
L 112.622481 144.060355 
L 113.435744 141.025006 
L 114.249007 138.725428 
L 115.06227 137.780891 
L 115.875533 136.603841 
L 116.688796 262.728438 
L 117.502059 125.593423 
L 118.315322 150.05461 
L 119.128584 161.302461 
L 119.941847 144.95123 
L 120.75511 139.541734 
L 121.568373 140.046446 
L 122.381636 134.497148 
L 123.194899 135.969667 
L 124.008162 132.382776 
L 124.821425 270.210215 
L 125.634688 126.858996 
L 127.261213 158.982966 
L 128.074476 142.796821 
L 128.887739 136.087562 
L 129.701002 137.29878 
L 130.514265 131.430014 
L 131.327528 131.741087 
L 132.140791 128.542926 
L 132.954054 276.717763 
L 133.767316 126.003928 
L 134.580579 139.77385 
L 135.393842 157.279682 
L 136.207105 144.327688 
L 137.020368 134.270569 
L 138.646894 129.262325 
L 139.460157 125.550628 
L 140.27342 123.074424 
L 141.086682 283.127986 
L 141.899945 127.113599 
L 142.713208 132.654739 
L 143.526471 153.443133 
L 144.339734 143.784946 
L 145.152997 131.117386 
L 145.96626 130.08719 
L 146.779523 126.514603 
L 147.592786 123.872112 
L 148.406048 120.456646 
L 149.219311 290.78356 
L 150.032574 129.514673 
L 150.845837 127.262733 
L 151.6591 148.123832 
L 152.472363 146.167341 
L 153.285626 129.228479 
L 154.098889 125.181484 
L 154.912152 122.373836 
L 155.725414 117.352591 
L 156.538677 115.53287 
L 157.35194 293.798555 
L 158.165203 132.312329 
L 158.978466 125.118243 
L 159.791729 144.605346 
L 160.604992 144.065534 
L 161.418255 127.632945 
L 162.231518 122.443561 
L 163.04478 123.5795 
L 163.858043 117.726614 
L 164.671306 110.79197 
L 165.484569 299.019697 
L 166.297832 134.761919 
L 167.111095 122.722483 
L 167.924358 141.683997 
L 168.737621 142.933315 
L 169.550884 124.286199 
L 170.364146 119.61103 
L 171.177409 116.775571 
L 171.990672 112.43973 
L 172.803935 110.099476 
L 173.617198 306.804156 
L 174.430461 153.512073 
L 175.243724 133.303847 
L 176.056987 130.903998 
L 176.87025 133.936439 
L 177.683512 137.795193 
L 178.496775 134.986361 
L 179.310038 131.160395 
L 180.123301 126.559826 
L 180.936564 125.030681 
L 181.749827 342.667288 
L 183.376353 152.439899 
L 184.189616 127.909528 
L 185.002878 125.964962 
L 185.816141 127.442926 
L 186.629404 132.760357 
L 187.442667 131.543409 
L 188.25593 129.017476 
L 189.069193 123.123815 
L 189.882456 344.229769 
L 190.695719 268.616695 
L 191.508982 162.594487 
L 192.322244 130.633399 
L 193.135507 125.525415 
L 193.94877 125.289938 
L 194.762033 128.561185 
L 195.575296 128.6597 
L 196.388559 125.635163 
L 197.201822 117.419663 
L 198.015085 345.240066 
L 198.828348 278.459746 
L 199.64161 173.920103 
L 200.454873 133.084767 
L 201.268136 126.892078 
L 202.081399 126.000692 
L 203.707925 126.348698 
L 204.521188 126.263903 
L 205.334451 121.965314 
L 206.147714 347.437685 
L 206.960976 291.430291 
L 207.774239 191.465887 
L 208.587502 139.487926 
L 209.400765 128.331869 
L 210.214028 123.956716 
L 211.027291 124.843513 
L 211.840554 125.95819 
L 212.653817 122.678558 
L 213.46708 122.927553 
L 214.280343 346.282836 
L 215.093605 299.527884 
L 215.906868 203.421148 
L 216.720131 145.194147 
L 217.533394 131.477381 
L 218.346657 127.502658 
L 219.15992 124.710975 
L 219.973183 123.660026 
L 220.786446 123.692778 
L 221.599709 120.918609 
L 222.412971 346.255811 
L 223.226234 308.954629 
L 224.039497 223.787967 
L 224.85276 157.41033 
L 225.666023 135.937829 
L 226.479286 125.35135 
L 227.292549 126.966517 
L 228.105812 121.544098 
L 228.919075 123.551135 
L 229.732337 118.841636 
L 230.5456 346.049607 
L 231.358863 314.311687 
L 232.985389 168.358763 
L 233.798652 137.515799 
L 234.611915 129.406246 
L 235.425178 126.156351 
L 237.051703 121.154405 
L 237.864966 120.583995 
L 238.678229 348.150702 
L 239.491492 318.202729 
L 241.118018 188.573131 
L 241.931281 147.824845 
L 242.744544 133.027117 
L 243.557807 127.615878 
L 244.371069 124.388612 
L 245.997595 122.788482 
L 246.810858 347.323673 
L 247.624121 323.029593 
L 248.437384 267.397121 
L 249.250647 202.243718 
L 250.06391 159.317347 
L 250.877173 138.950096 
L 251.690435 133.571411 
L 252.503698 126.673345 
L 253.316961 121.215245 
L 254.130224 122.778245 
L 254.943487 349.543106 
L 255.75675 325.750721 
L 256.570013 279.270497 
L 257.383276 217.735926 
L 258.196539 171.177823 
L 259.009801 144.654153 
L 259.823064 135.617028 
L 261.44959 126.028319 
L 262.262853 124.523452 
L 263.076116 349.228895 
L 263.889379 328.277201 
L 264.702642 288.679636 
L 266.329167 185.36383 
L 267.14243 153.495637 
L 267.955693 140.468758 
L 268.768956 133.974183 
L 269.582219 128.568941 
L 270.395482 125.762155 
L 271.208745 347.569884 
L 272.022008 329.711986 
L 272.835271 299.031376 
L 274.461796 202.275155 
L 275.275059 164.963659 
L 276.088322 149.444221 
L 276.901585 140.490125 
L 277.714848 130.278755 
L 278.528111 126.149957 
L 279.341374 349.306886 
L 280.154637 334.384399 
L 280.967899 302.54106 
L 283.407688 182.49405 
L 284.220951 156.373886 
L 285.034214 144.342708 
L 285.847477 135.8554 
L 286.66074 131.177669 
L 287.474003 349.762548 
L 288.287265 337.052094 
L 289.913791 274.073276 
L 290.727054 231.840115 
L 291.540317 196.322726 
L 292.35358 169.6375 
L 293.166843 151.217686 
L 293.980106 141.613655 
L 294.793369 135.839431 
L 295.606631 349.827223 
L 296.419894 335.038669 
L 297.233157 315.01005 
L 299.672946 215.821406 
L 300.486209 181.641479 
L 301.299472 161.879417 
L 302.112735 148.955784 
L 302.925997 139.056725 
L 303.73926 349.448234 
L 304.552523 337.411014 
L 305.365786 320.663593 
L 306.179049 294.330949 
L 308.618838 196.475494 
L 309.432101 175.339059 
L 310.245363 159.552661 
L 311.058626 148.025896 
L 311.871889 350.291699 
L 312.685152 337.842894 
L 313.498415 321.109808 
L 314.311678 299.528683 
L 315.124941 272.076088 
L 315.938204 238.456032 
L 316.751467 216.246465 
L 317.564729 186.323301 
L 318.377992 168.684642 
L 319.191255 156.509238 
L 320.004518 349.835734 
L 320.817781 340.452887 
L 321.631044 326.296308 
L 322.444307 306.732357 
L 323.25757 279.080741 
L 324.070833 255.650584 
L 325.697358 202.295896 
L 327.323884 168.43416 
L 328.137147 350.15924 
L 328.95041 340.924588 
L 329.763673 328.38139 
L 331.390199 289.077147 
L 334.64325 197.384579 
L 335.456513 177.599221 
L 336.269776 350.781682 
L 337.083039 341.619517 
L 339.522827 298.81643 
L 342.775879 210.161436 
L 343.589142 193.042156 
L 344.402405 350.395113 
L 346.028931 333.032533 
L 346.842193 319.413056 
L 347.655456 300.893029 
L 348.468719 287.514449 
L 350.095245 246.511896 
L 350.908508 229.030227 
L 351.721771 205.849067 
L 352.535034 349.832973 
L 353.348297 343.212738 
L 354.161559 331.509386 
L 354.974822 322.055587 
L 355.788085 311.152268 
L 357.414611 277.567983 
L 358.227874 264.927633 
L 359.8544 225.057499 
L 360.667663 350.086304 
L 361.480925 343.754772 
L 362.294188 335.693177 
L 363.107451 325.852032 
L 365.54724 288.859955 
L 366.360503 269.70594 
L 367.173766 254.450868 
L 367.987029 235.428854 
L 368.800291 353.448422 
L 369.613554 344.144608 
L 370.426817 337.361515 
L 371.24008 328.028241 
L 373.679869 296.3066 
L 376.119657 253.12888 
L 376.93292 351.812588 
L 379.372709 330.204284 
L 380.185972 319.878502 
L 380.999235 312.653591 
L 381.812498 304.09445 
L 383.439024 280.018532 
L 384.252286 266.865534 
L 385.065549 350.760909 
L 385.878812 343.317207 
L 386.692075 338.350396 
L 387.505338 330.223241 
L 388.318601 324.554775 
L 390.75839 300.313547 
L 392.384915 278.981696 
L 393.198178 351.227966 
L 394.011441 346.274261 
L 394.824704 338.221937 
L 395.637967 334.167354 
L 396.45123 326.635294 
L 397.264493 316.689657 
L 398.077756 311.415684 
L 399.704281 298.495541 
L 400.517544 286.68573 
L 401.330807 352.357869 
L 402.957333 341.375176 
L 403.770596 334.096535 
L 404.583859 329.740151 
L 405.397122 322.63822 
L 406.210384 317.443714 
L 407.023647 311.42774 
L 407.83691 301.783795 
L 408.650173 296.578243 
L 409.463436 351.748236 
L 410.276699 345.953859 
L 411.089962 342.159006 
L 411.903225 335.925051 
L 413.52975 326.145828 
L 414.343013 319.731256 
L 415.969539 309.469333 
L 416.782802 302.641232 
L 417.596065 352.05905 
L 418.409328 344.275783 
L 419.222591 341.729027 
L 420.035854 335.694465 
L 420.849116 333.344202 
L 421.662379 326.508737 
L 422.475642 322.907997 
L 423.288905 317.016312 
L 424.102168 316.054746 
L 424.915431 307.625771 
L 425.728694 352.047534 
L 426.541957 347.796497 
L 427.35522 342.206436 
L 428.168482 337.588055 
L 428.981745 333.660162 
L 429.795008 328.771644 
L 430.608271 326.583422 
L 431.421534 323.201673 
L 432.234797 318.92606 
L 433.04806 312.325799 
L 433.861323 351.773265 
L 434.674586 347.741307 
L 436.301111 338.913043 
L 437.114374 335.224545 
L 437.927637 333.857664 
L 438.7409 328.351159 
L 439.554163 326.02903 
L 440.367426 319.254891 
L 441.180689 316.460929 
L 441.993952 352.043568 
L 442.807214 349.495612 
L 445.247003 334.369369 
L 446.060266 333.634384 
L 448.500055 324.62553 
L 449.313318 318.886577 
L 450.12658 352.363329 
L 450.939843 348.397888 
L 452.566369 341.464209 
L 453.379632 339.633768 
L 454.192895 336.504984 
L 455.006158 332.421628 
L 457.445946 323.716492 
L 458.259209 351.583791 
L 459.072472 349.308944 
L 459.885735 343.914479 
L 460.698998 341.639374 
L 461.512261 338.513355 
L 462.325524 337.621272 
L 463.138787 334.48691 
L 463.95205 328.944503 
L 464.765312 330.952336 
L 465.578575 325.793666 
L 466.391838 350.553914 
L 468.018364 346.413316 
L 468.831627 341.378546 
L 469.64489 339.573088 
L 470.458153 338.212342 
L 471.271416 335.574597 
L 472.084678 330.603561 
L 472.897941 330.703046 
L 473.711204 329.774613 
L 474.524467 353.458392 
L 476.964256 343.515576 
L 477.777519 340.731121 
L 478.590782 336.912366 
L 479.404044 336.963992 
L 480.217307 334.071523 
L 481.03057 332.391298 
L 481.843833 329.509179 
L 482.657096 353.070507 
L 483.470359 349.013208 
L 484.283622 346.204391 
L 485.096885 342.932234 
L 485.910148 343.297254 
L 486.72341 339.28271 
L 488.349936 336.160961 
L 489.163199 336.48191 
L 489.976462 333.175748 
L 490.789725 353.345941 
L 491.602988 348.858842 
L 492.416251 347.490826 
L 493.229514 343.61472 
L 494.042776 343.617416 
L 494.856039 340.112912 
L 495.669302 338.205122 
L 496.482565 337.595831 
L 497.295828 335.01652 
L 498.109091 333.639165 
L 498.109091 333.639165 
" style="fill:none;stroke:#008000;stroke-linecap:square;stroke-width:1.5;"/>
   </g>
   <g id="patch_3">
    <path d="M 72 384.48 
L 72 51.84 
" style="fill:none;stroke:#000000;stroke-linecap:square;stroke-linejoin:miter;stroke-width:0.8;"/>
   </g>
   <g id="patch_4">
    <path d="M 518.4 384.48 
L 518.4 51.84 
" style="fill:none;stroke:#000000;stroke-linecap:square;stroke-linejoin:miter;stroke-width:0.8;"/>
   </g>
   <g id="patch_5">
    <path d="M 72 384.48 
L 518.4 384.48 
" style="fill:none;stroke:#000000;stroke-linecap:square;stroke-linejoin:miter;stroke-width:0.8;"/>
   </g>
   <g id="patch_6">
    <path d="M 72 51.84 
L 518.4 51.84 
" style="fill:none;stroke:#000000;stroke-linecap:square;stroke-linejoin:miter;stroke-width:0.8;"/>
   </g>
   <g id="legend_1">
    <g id="patch_7">
     <path d="M 79 89.19625 
L 156.107812 89.19625 
Q 158.107812 89.19625 158.107812 87.19625 
L 158.107812 58.84 
Q 158.107812 56.84 156.107812 56.84 
L 79 56.84 
Q 77 56.84 77 58.84 
L 77 87.19625 
Q 77 89.19625 79 89.19625 
z
" style="fill:#ffffff;opacity:0.8;stroke:#cccccc;stroke-linejoin:miter;"/>
    </g>
    <g id="line2d_15">
     <path d="M 81 64.938437 
L 101 64.938437 
" style="fill:none;stroke:#0000ff;stroke-linecap:square;stroke-width:1.5;"/>
    </g>
    <g id="line2d_16"/>
    <g id="text_15">
     <!-- precision -->
     <g transform="translate(109 68.438437)scale(0.1 -0.1)">
      <defs>
       <path d="M 9.421875 54.6875 
L 18.40625 54.6875 
L 18.40625 0 
L 9.421875 0 
z
M 9.421875 75.984375 
L 18.40625 75.984375 
L 18.40625 64.59375 
L 9.421875 64.59375 
z
" id="DejaVuSans-105"/>
       <path d="M 44.28125 53.078125 
L 44.28125 44.578125 
Q 40.484375 46.53125 36.375 47.5 
Q 32.28125 48.484375 27.875 48.484375 
Q 21.1875 48.484375 17.84375 46.4375 
Q 14.5 44.390625 14.5 40.28125 
Q 14.5 37.15625 16.890625 35.375 
Q 19.28125 33.59375 26.515625 31.984375 
L 29.59375 31.296875 
Q 39.15625 29.25 43.1875 25.515625 
Q 47.21875 21.78125 47.21875 15.09375 
Q 47.21875 7.46875 41.1875 3.015625 
Q 35.15625 -1.421875 24.609375 -1.421875 
Q 20.21875 -1.421875 15.453125 -0.5625 
Q 10.6875 0.296875 5.421875 2 
L 5.421875 11.28125 
Q 10.40625 8.6875 15.234375 7.390625 
Q 20.0625 6.109375 24.8125 6.109375 
Q 31.15625 6.109375 34.5625 8.28125 
Q 37.984375 10.453125 37.984375 14.40625 
Q 37.984375 18.0625 35.515625 20.015625 
Q 33.0625 21.96875 24.703125 23.78125 
L 21.578125 24.515625 
Q 13.234375 26.265625 9.515625 29.90625 
Q 5.8125 33.546875 5.8125 39.890625 
Q 5.8125 47.609375 11.28125 51.796875 
Q 16.75 56 26.8125 56 
Q 31.78125 56 36.171875 55.265625 
Q 40.578125 54.546875 44.28125 53.078125 
z
" id="DejaVuSans-115"/>
       <path d="M 54.890625 33.015625 
L 54.890625 0 
L 45.90625 0 
L 45.90625 32.71875 
Q 45.90625 40.484375 42.875 44.328125 
Q 39.84375 48.1875 33.796875 48.1875 
Q 26.515625 48.1875 22.3125 43.546875 
Q 18.109375 38.921875 18.109375 30.90625 
L 18.109375 0 
L 9.078125 0 
L 9.078125 54.6875 
L 18.109375 54.6875 
L 18.109375 46.1875 
Q 21.34375 51.125 25.703125 53.5625 
Q 30.078125 56 35.796875 56 
Q 45.21875 56 50.046875 50.171875 
Q 54.890625 44.34375 54.890625 33.015625 
z
" id="DejaVuSans-110"/>
      </defs>
      <use xlink:href="#DejaVuSans-112"/>
      <use x="63.476562" xlink:href="#DejaVuSans-114"/>
      <use x="102.339844" xlink:href="#DejaVuSans-101"/>
      <use x="163.863281" xlink:href="#DejaVuSans-99"/>
      <use x="218.84375" xlink:href="#DejaVuSans-105"/>
      <use x="246.626953" xlink:href="#DejaVuSans-115"/>
      <use x="298.726562" xlink:href="#DejaVuSans-105"/>
      <use x="326.509766" xlink:href="#DejaVuSans-111"/>
      <use x="387.691406" xlink:href="#DejaVuSans-110"/>
     </g>
    </g>
    <g id="line2d_17">
     <path d="M 81 79.616562 
L 101 79.616562 
" style="fill:none;stroke:#008000;stroke-linecap:square;stroke-width:1.5;"/>
    </g>
    <g id="line2d_18"/>
    <g id="text_16">
     <!-- recall -->
     <g transform="translate(109 83.116562)scale(0.1 -0.1)">
      <defs>
       <path d="M 9.421875 75.984375 
L 18.40625 75.984375 
L 18.40625 0 
L 9.421875 0 
z
" id="DejaVuSans-108"/>
      </defs>
      <use xlink:href="#DejaVuSans-114"/>
      <use x="38.863281" xlink:href="#DejaVuSans-101"/>
      <use x="100.386719" xlink:href="#DejaVuSans-99"/>
      <use x="155.367188" xlink:href="#DejaVuSans-97"/>
      <use x="216.646484" xlink:href="#DejaVuSans-108"/>
      <use x="244.429688" xlink:href="#DejaVuSans-108"/>
     </g>
    </g>
   </g>
  </g>
  <g id="axes_2">
   <g id="matplotlib.axis_3">
    <g id="ytick_7">
     <g id="line2d_19">
      <defs>
       <path d="M 0 0 
L 3.5 0 
" id="ma6848333b0" style="stroke:#000000;stroke-width:0.8;"/>
      </defs>
      <g>
       <use style="stroke:#000000;stroke-width:0.8;" x="518.4" xlink:href="#ma6848333b0" y="321.093117"/>
      </g>
     </g>
     <g id="text_17">
      <!-- 0.2 -->
      <g transform="translate(525.4 324.892336)scale(0.1 -0.1)">
       <use xlink:href="#DejaVuSans-48"/>
       <use x="63.623047" xlink:href="#DejaVuSans-46"/>
       <use x="95.410156" xlink:href="#DejaVuSans-50"/>
      </g>
     </g>
    </g>
    <g id="ytick_8">
     <g id="line2d_20">
      <g>
       <use style="stroke:#000000;stroke-width:0.8;" x="518.4" xlink:href="#ma6848333b0" y="251.987977"/>
      </g>
     </g>
     <g id="text_18">
      <!-- 0.3 -->
      <g transform="translate(525.4 255.787195)scale(0.1 -0.1)">
       <use xlink:href="#DejaVuSans-48"/>
       <use x="63.623047" xlink:href="#DejaVuSans-46"/>
       <use x="95.410156" xlink:href="#DejaVuSans-51"/>
      </g>
     </g>
    </g>
    <g id="ytick_9">
     <g id="line2d_21">
      <g>
       <use style="stroke:#000000;stroke-width:0.8;" x="518.4" xlink:href="#ma6848333b0" y="182.882836"/>
      </g>
     </g>
     <g id="text_19">
      <!-- 0.4 -->
      <g transform="translate(525.4 186.682055)scale(0.1 -0.1)">
       <use xlink:href="#DejaVuSans-48"/>
       <use x="63.623047" xlink:href="#DejaVuSans-46"/>
       <use x="95.410156" xlink:href="#DejaVuSans-52"/>
      </g>
     </g>
    </g>
    <g id="ytick_10">
     <g id="line2d_22">
      <g>
       <use style="stroke:#000000;stroke-width:0.8;" x="518.4" xlink:href="#ma6848333b0" y="113.777696"/>
      </g>
     </g>
     <g id="text_20">
      <!-- 0.5 -->
      <g transform="translate(525.4 117.576915)scale(0.1 -0.1)">
       <use xlink:href="#DejaVuSans-48"/>
       <use x="63.623047" xlink:href="#DejaVuSans-46"/>
       <use x="95.410156" xlink:href="#DejaVuSans-53"/>
      </g>
     </g>
    </g>
    <g id="text_21">
     <!-- loss -->
     <g transform="translate(552.901563 227.817812)rotate(-90)scale(0.1 -0.1)">
      <use xlink:href="#DejaVuSans-108"/>
      <use x="27.783203" xlink:href="#DejaVuSans-111"/>
      <use x="88.964844" xlink:href="#DejaVuSans-115"/>
      <use x="141.064453" xlink:href="#DejaVuSans-115"/>
     </g>
    </g>
   </g>
   <g id="line2d_23">
    <path clip-path="url(#p249c5193b3)" d="M 92.290909 147.006173 
L 93.104172 277.1532 
L 93.917435 279.093933 
L 94.730698 288.429009 
L 95.543961 294.390543 
L 96.357224 298.333789 
L 97.170486 300.251462 
L 97.983749 301.841744 
L 98.797012 302.488152 
L 99.610275 304.21697 
L 100.423538 231.885203 
L 101.236801 273.121648 
L 102.050064 294.846285 
L 102.863327 307.075787 
L 103.67659 311.89919 
L 104.489852 316.040346 
L 105.303115 317.0058 
L 106.116378 319.079435 
L 106.929641 321.463261 
L 107.742904 322.106779 
L 108.556167 231.182651 
L 109.36943 282.034153 
L 110.182693 301.271731 
L 110.995956 314.762245 
L 111.809218 319.745362 
L 112.622481 323.348361 
L 113.435744 326.238157 
L 114.249007 328.237225 
L 115.06227 329.179134 
L 115.875533 331.303508 
L 116.688796 230.047137 
L 117.502059 288.332882 
L 119.128584 319.870161 
L 119.941847 327.109267 
L 121.568373 333.576014 
L 122.381636 334.1465 
L 123.194899 336.835378 
L 124.008162 338.545651 
L 124.821425 229.495274 
L 125.634688 294.541832 
L 126.44795 308.898107 
L 127.261213 327.641072 
L 128.074476 333.595331 
L 128.887739 337.017509 
L 129.701002 338.667532 
L 131.327528 344.80186 
L 132.140791 345.458011 
L 132.954054 228.04357 
L 133.767316 299.667677 
L 134.580579 314.120297 
L 135.393842 331.967779 
L 136.207105 338.952471 
L 137.020368 342.885313 
L 137.833631 347.394822 
L 138.646894 348.689508 
L 140.27342 353.625514 
L 141.086682 222.973902 
L 141.899945 304.999744 
L 142.713208 316.245278 
L 143.526471 334.423635 
L 144.339734 343.615096 
L 146.779523 353.149015 
L 148.406048 357.902506 
L 149.219311 218.393781 
L 150.032574 309.152092 
L 150.845837 319.906679 
L 151.6591 338.824306 
L 153.285626 351.91393 
L 154.912152 358.016397 
L 155.725414 362.604547 
L 156.538677 363.325978 
L 157.35194 214.246785 
L 158.165203 312.637154 
L 158.978466 321.168497 
L 159.791729 339.995502 
L 160.604992 348.893612 
L 161.418255 354.372693 
L 162.231518 358.364241 
L 163.04478 360.37809 
L 164.671306 367.141327 
L 165.484569 208.100734 
L 166.297832 313.057831 
L 167.111095 322.077603 
L 167.924358 341.89896 
L 168.737621 351.544919 
L 169.550884 355.651917 
L 171.177409 366.580111 
L 171.990672 367.642814 
L 172.803935 369.36 
L 173.617198 200.078517 
L 174.430461 315.642704 
L 176.056987 335.735013 
L 176.87025 343.65967 
L 177.683512 347.642346 
L 178.496775 352.354369 
L 179.310038 354.563241 
L 180.123301 357.774426 
L 180.936564 358.23328 
L 181.749827 147.851584 
L 182.56309 270.847022 
L 183.376353 322.956882 
L 184.189616 333.545506 
L 185.002878 340.114077 
L 185.816141 349.345749 
L 187.442667 355.808698 
L 188.25593 357.315903 
L 189.069193 360.9755 
L 189.882456 141.055363 
L 190.695719 260.92367 
L 191.508982 321.114241 
L 192.322244 332.852869 
L 193.94877 350.352066 
L 195.575296 357.484799 
L 196.388559 360.187574 
L 197.201822 364.373128 
L 198.015085 134.796591 
L 198.828348 250.417297 
L 199.64161 319.299724 
L 200.454873 334.617737 
L 202.081399 349.270142 
L 203.707925 357.679373 
L 204.521188 360.551076 
L 205.334451 362.141849 
L 206.147714 130.702132 
L 206.960976 239.560439 
L 207.774239 314.586092 
L 208.587502 333.583629 
L 210.214028 348.928661 
L 211.027291 354.753202 
L 211.840554 358.941564 
L 212.653817 361.365779 
L 213.46708 363.1302 
L 214.280343 123.600696 
L 215.093605 229.166488 
L 215.906868 307.348641 
L 216.720131 333.299197 
L 218.346657 349.073955 
L 219.973183 358.474817 
L 220.786446 360.140214 
L 221.599709 363.630351 
L 222.412971 118.1822 
L 223.226234 214.808616 
L 224.039497 296.62928 
L 224.85276 330.11815 
L 226.479286 349.254154 
L 227.292549 352.241925 
L 228.105812 357.614885 
L 228.919075 360.906281 
L 229.732337 364.790663 
L 230.5456 113.227436 
L 232.172126 287.774365 
L 232.985389 328.116178 
L 233.798652 341.530552 
L 235.425178 353.887771 
L 236.238441 358.228692 
L 237.051703 363.196018 
L 237.864966 363.986955 
L 238.678229 111.505077 
L 240.304755 274.347863 
L 241.118018 321.627243 
L 241.931281 339.833468 
L 242.744544 346.659477 
L 243.557807 350.74147 
L 244.371069 356.804962 
L 245.184332 360.184856 
L 245.997595 362.090289 
L 246.810858 107.505353 
L 248.437384 265.588788 
L 249.250647 314.382988 
L 250.06391 334.371969 
L 250.877173 345.88511 
L 251.690435 348.978327 
L 252.503698 356.11545 
L 253.316961 360.995616 
L 254.130224 361.310952 
L 254.943487 103.800097 
L 256.570013 254.369292 
L 257.383276 305.58013 
L 258.196539 331.915759 
L 259.009801 342.58414 
L 259.823064 348.856864 
L 261.44959 356.926336 
L 262.262853 361.98727 
L 263.076116 98.624436 
L 265.515905 297.786673 
L 266.329167 324.513928 
L 267.14243 340.644027 
L 267.955693 348.062203 
L 268.768956 352.410852 
L 269.582219 355.980288 
L 270.395482 360.520345 
L 271.208745 97.946542 
L 273.648533 286.50978 
L 274.461796 318.54364 
L 275.275059 335.131613 
L 276.088322 343.832987 
L 277.714848 355.969949 
L 278.528111 357.490568 
L 279.341374 93.853919 
L 281.781162 275.932919 
L 282.594425 309.578421 
L 283.407688 329.301714 
L 284.220951 340.996264 
L 285.847477 354.130393 
L 286.66074 356.898042 
L 287.474003 94.105159 
L 288.287265 148.790677 
L 289.100528 212.729184 
L 289.913791 263.26118 
L 290.727054 302.920755 
L 291.540317 324.590367 
L 292.35358 337.821542 
L 293.166843 345.442 
L 294.793369 355.559135 
L 295.606631 90.600939 
L 298.04642 254.167068 
L 298.859683 291.975861 
L 299.672946 317.023393 
L 300.486209 331.833332 
L 301.299472 341.995773 
L 302.112735 347.92388 
L 302.925997 352.751441 
L 303.73926 89.551501 
L 304.552523 136.972304 
L 305.365786 194.34383 
L 306.179049 241.752589 
L 306.992312 282.141934 
L 307.805575 310.169015 
L 308.618838 325.876461 
L 309.432101 336.318209 
L 310.245363 344.864837 
L 311.058626 350.046955 
L 311.871889 88.217403 
L 314.311678 233.385796 
L 315.124941 270.8122 
L 315.938204 300.116911 
L 317.564729 332.782911 
L 318.377992 339.554969 
L 319.191255 345.19216 
L 320.004518 86.92707 
L 320.817781 129.575585 
L 321.631044 179.166108 
L 323.25757 260.125891 
L 324.070833 289.622525 
L 324.884095 309.62783 
L 325.697358 324.394024 
L 326.510621 334.602415 
L 327.323884 341.350404 
L 328.137147 85.823424 
L 330.576936 215.582351 
L 331.390199 251.732076 
L 332.203461 278.541608 
L 333.016724 301.67876 
L 333.829987 318.929474 
L 334.64325 327.155202 
L 335.456513 338.218127 
L 336.269776 83.005456 
L 338.709565 206.598016 
L 339.522827 240.892034 
L 341.149353 292.022001 
L 342.775879 321.646606 
L 343.589142 329.372806 
L 344.402405 84.676067 
L 346.028931 162.697575 
L 346.842193 199.436839 
L 348.468719 257.565665 
L 349.281982 280.926875 
L 350.095245 299.104804 
L 350.908508 313.664231 
L 351.721771 323.997613 
L 352.535034 81.913553 
L 354.161559 156.405318 
L 356.601348 248.752371 
L 357.414611 272.757359 
L 359.8544 315.032795 
L 360.667663 83.674745 
L 361.480925 115.118285 
L 362.294188 153.49126 
L 364.733977 237.343287 
L 366.360503 279.066145 
L 367.173766 295.166148 
L 367.987029 307.775114 
L 368.800291 80.899733 
L 371.24008 176.465358 
L 372.866606 226.636027 
L 374.493132 267.966914 
L 375.306395 280.692399 
L 376.119657 296.863084 
L 376.93292 80.938905 
L 379.372709 167.175715 
L 380.185972 193.398399 
L 381.812498 238.45472 
L 383.439024 270.750809 
L 384.252286 284.991567 
L 385.065549 78.818816 
L 385.878812 109.097128 
L 388.318601 185.157344 
L 389.945127 226.695416 
L 391.571652 260.432105 
L 392.384915 272.638111 
L 393.198178 79.295772 
L 394.011441 102.861048 
L 395.637967 157.8689 
L 396.45123 175.118408 
L 397.264493 198.102898 
L 398.891018 234.434956 
L 399.704281 247.141007 
L 400.517544 262.175393 
L 401.330807 77.491061 
L 402.14407 100.205617 
L 403.770596 150.277276 
L 404.583859 171.564304 
L 407.023647 222.634742 
L 407.83691 239.060431 
L 408.650173 250.970821 
L 409.463436 75.68223 
L 411.903225 144.883348 
L 412.716488 164.132428 
L 413.52975 178.598749 
L 414.343013 197.042535 
L 415.969539 226.322989 
L 416.782802 238.70739 
L 417.596065 74.877279 
L 420.035854 139.172239 
L 422.475642 187.718507 
L 424.915431 228.610454 
L 425.728694 73.359497 
L 427.35522 113.908623 
L 428.168482 133.024831 
L 429.795008 164.213792 
L 432.234797 206.214015 
L 433.04806 214.971032 
L 433.861323 74.195084 
L 435.487848 110.31106 
L 436.301111 128.329852 
L 437.114374 140.822072 
L 437.927637 158.920928 
L 438.7409 170.316635 
L 440.367426 197.022565 
L 441.180689 206.587401 
L 441.993952 72.241837 
L 444.43374 122.514288 
L 445.247003 135.202318 
L 446.060266 150.99395 
L 448.500055 184.065611 
L 449.313318 196.49885 
L 450.12658 71.241358 
L 453.379632 130.873674 
L 455.819421 167.752581 
L 456.632684 177.010454 
L 457.445946 187.676503 
L 458.259209 72.086281 
L 459.072472 85.288793 
L 459.885735 101.126835 
L 463.95205 160.517932 
L 464.765312 169.364549 
L 465.578575 180.518874 
L 466.391838 70.8394 
L 468.831627 111.11927 
L 469.64489 121.584038 
L 470.458153 129.423775 
L 471.271416 140.843237 
L 472.084678 153.897855 
L 472.897941 161.914111 
L 473.711204 171.289535 
L 474.524467 69.409855 
L 477.777519 116.294461 
L 479.404044 136.036857 
L 481.843833 160.461267 
L 482.657096 69.600591 
L 484.283622 92.789538 
L 485.910148 112.120904 
L 487.536673 130.207865 
L 488.349936 139.316926 
L 489.976462 154.102266 
L 490.789725 66.96 
L 491.602988 80.046279 
L 492.416251 88.749956 
L 494.856039 117.739864 
L 495.669302 125.8174 
L 496.482565 135.234664 
L 497.295828 140.464615 
L 498.109091 148.997605 
L 498.109091 148.997605 
" style="fill:none;stroke:#ff0000;stroke-linecap:square;stroke-width:1.5;"/>
   </g>
   <g id="patch_8">
    <path d="M 72 384.48 
L 72 51.84 
" style="fill:none;stroke:#000000;stroke-linecap:square;stroke-linejoin:miter;stroke-width:0.8;"/>
   </g>
   <g id="patch_9">
    <path d="M 518.4 384.48 
L 518.4 51.84 
" style="fill:none;stroke:#000000;stroke-linecap:square;stroke-linejoin:miter;stroke-width:0.8;"/>
   </g>
   <g id="patch_10">
    <path d="M 72 384.48 
L 518.4 384.48 
" style="fill:none;stroke:#000000;stroke-linecap:square;stroke-linejoin:miter;stroke-width:0.8;"/>
   </g>
   <g id="patch_11">
    <path d="M 72 51.84 
L 518.4 51.84 
" style="fill:none;stroke:#000000;stroke-linecap:square;stroke-linejoin:miter;stroke-width:0.8;"/>
   </g>
   <g id="text_22">
    <!-- The learning curve on _non_iid/host/9 -->
    <g transform="translate(178.868437 45.84)scale(0.12 -0.12)">
     <defs>
      <path d="M -0.296875 72.90625 
L 61.375 72.90625 
L 61.375 64.59375 
L 35.5 64.59375 
L 35.5 0 
L 25.59375 0 
L 25.59375 64.59375 
L -0.296875 64.59375 
z
" id="DejaVuSans-84"/>
      <path id="DejaVuSans-32"/>
      <path d="M 45.40625 27.984375 
Q 45.40625 37.75 41.375 43.109375 
Q 37.359375 48.484375 30.078125 48.484375 
Q 22.859375 48.484375 18.828125 43.109375 
Q 14.796875 37.75 14.796875 27.984375 
Q 14.796875 18.265625 18.828125 12.890625 
Q 22.859375 7.515625 30.078125 7.515625 
Q 37.359375 7.515625 41.375 12.890625 
Q 45.40625 18.265625 45.40625 27.984375 
z
M 54.390625 6.78125 
Q 54.390625 -7.171875 48.1875 -13.984375 
Q 42 -20.796875 29.203125 -20.796875 
Q 24.46875 -20.796875 20.265625 -20.09375 
Q 16.0625 -19.390625 12.109375 -17.921875 
L 12.109375 -9.1875 
Q 16.0625 -11.328125 19.921875 -12.34375 
Q 23.78125 -13.375 27.78125 -13.375 
Q 36.625 -13.375 41.015625 -8.765625 
Q 45.40625 -4.15625 45.40625 5.171875 
L 45.40625 9.625 
Q 42.625 4.78125 38.28125 2.390625 
Q 33.9375 0 27.875 0 
Q 17.828125 0 11.671875 7.65625 
Q 5.515625 15.328125 5.515625 27.984375 
Q 5.515625 40.671875 11.671875 48.328125 
Q 17.828125 56 27.875 56 
Q 33.9375 56 38.28125 53.609375 
Q 42.625 51.21875 45.40625 46.390625 
L 45.40625 54.6875 
L 54.390625 54.6875 
z
" id="DejaVuSans-103"/>
      <path d="M 8.5 21.578125 
L 8.5 54.6875 
L 17.484375 54.6875 
L 17.484375 21.921875 
Q 17.484375 14.15625 20.5 10.265625 
Q 23.53125 6.390625 29.59375 6.390625 
Q 36.859375 6.390625 41.078125 11.03125 
Q 45.3125 15.671875 45.3125 23.6875 
L 45.3125 54.6875 
L 54.296875 54.6875 
L 54.296875 0 
L 45.3125 0 
L 45.3125 8.40625 
Q 42.046875 3.421875 37.71875 1 
Q 33.40625 -1.421875 27.6875 -1.421875 
Q 18.265625 -1.421875 13.375 4.4375 
Q 8.5 10.296875 8.5 21.578125 
z
M 31.109375 56 
z
" id="DejaVuSans-117"/>
      <path d="M 2.984375 54.6875 
L 12.5 54.6875 
L 29.59375 8.796875 
L 46.6875 54.6875 
L 56.203125 54.6875 
L 35.6875 0 
L 23.484375 0 
z
" id="DejaVuSans-118"/>
      <path d="M 30.953125 67.4375 
L 56.203125 0 
L 46.6875 0 
L 31.34375 40.4375 
L 12.5 0 
L 2.984375 0 
L 26.953125 52.4375 
L 23.34375 62.109375 
Q 21.046875 68.265625 15.828125 68.265625 
L 11.140625 68.265625 
L 11.140625 75.984375 
L 16.84375 75.875 
Q 27.875 75.734375 30.953125 67.4375 
z
" id="DejaVuSans-955"/>
      <path d="M 50.984375 -16.609375 
L 50.984375 -23.578125 
L -0.984375 -23.578125 
L -0.984375 -16.609375 
z
" id="DejaVuSans-95"/>
      <path d="M 45.40625 46.390625 
L 45.40625 75.984375 
L 54.390625 75.984375 
L 54.390625 0 
L 45.40625 0 
L 45.40625 8.203125 
Q 42.578125 3.328125 38.25 0.953125 
Q 33.9375 -1.421875 27.875 -1.421875 
Q 17.96875 -1.421875 11.734375 6.484375 
Q 5.515625 14.40625 5.515625 27.296875 
Q 5.515625 40.1875 11.734375 48.09375 
Q 17.96875 56 27.875 56 
Q 33.9375 56 38.25 53.625 
Q 42.578125 51.265625 45.40625 46.390625 
z
M 14.796875 27.296875 
Q 14.796875 17.390625 18.875 11.75 
Q 22.953125 6.109375 30.078125 6.109375 
Q 37.203125 6.109375 41.296875 11.75 
Q 45.40625 17.390625 45.40625 27.296875 
Q 45.40625 37.203125 41.296875 42.84375 
Q 37.203125 48.484375 30.078125 48.484375 
Q 22.953125 48.484375 18.875 42.84375 
Q 14.796875 37.203125 14.796875 27.296875 
z
" id="DejaVuSans-100"/>
      <path d="M 25.390625 72.90625 
L 33.6875 72.90625 
L 8.296875 -9.28125 
L 0 -9.28125 
z
" id="DejaVuSans-47"/>
      <path d="M 10.984375 1.515625 
L 10.984375 10.5 
Q 14.703125 8.734375 18.5 7.8125 
Q 22.3125 6.890625 25.984375 6.890625 
Q 35.75 6.890625 40.890625 13.453125 
Q 46.046875 20.015625 46.78125 33.40625 
Q 43.953125 29.203125 39.59375 26.953125 
Q 35.25 24.703125 29.984375 24.703125 
Q 19.046875 24.703125 12.671875 31.3125 
Q 6.296875 37.9375 6.296875 49.421875 
Q 6.296875 60.640625 12.9375 67.421875 
Q 19.578125 74.21875 30.609375 74.21875 
Q 43.265625 74.21875 49.921875 64.515625 
Q 56.59375 54.828125 56.59375 36.375 
Q 56.59375 19.140625 48.40625 8.859375 
Q 40.234375 -1.421875 26.421875 -1.421875 
Q 22.703125 -1.421875 18.890625 -0.6875 
Q 15.09375 0.046875 10.984375 1.515625 
z
M 30.609375 32.421875 
Q 37.25 32.421875 41.125 36.953125 
Q 45.015625 41.5 45.015625 49.421875 
Q 45.015625 57.28125 41.125 61.84375 
Q 37.25 66.40625 30.609375 66.40625 
Q 23.96875 66.40625 20.09375 61.84375 
Q 16.21875 57.28125 16.21875 49.421875 
Q 16.21875 41.5 20.09375 36.953125 
Q 23.96875 32.421875 30.609375 32.421875 
z
" id="DejaVuSans-57"/>
     </defs>
     <use xlink:href="#DejaVuSans-84"/>
     <use x="61.083984" xlink:href="#DejaVuSans-104"/>
     <use x="124.462891" xlink:href="#DejaVuSans-101"/>
     <use x="185.986328" xlink:href="#DejaVuSans-32"/>
     <use x="217.773438" xlink:href="#DejaVuSans-108"/>
     <use x="245.556641" xlink:href="#DejaVuSans-101"/>
     <use x="307.080078" xlink:href="#DejaVuSans-97"/>
     <use x="368.359375" xlink:href="#DejaVuSans-114"/>
     <use x="407.722656" xlink:href="#DejaVuSans-110"/>
     <use x="471.101562" xlink:href="#DejaVuSans-105"/>
     <use x="498.884766" xlink:href="#DejaVuSans-110"/>
     <use x="562.263672" xlink:href="#DejaVuSans-103"/>
     <use x="625.740234" xlink:href="#DejaVuSans-32"/>
     <use x="657.527344" xlink:href="#DejaVuSans-99"/>
     <use x="712.507812" xlink:href="#DejaVuSans-117"/>
     <use x="775.886719" xlink:href="#DejaVuSans-114"/>
     <use x="817" xlink:href="#DejaVuSans-118"/>
     <use x="876.179688" xlink:href="#DejaVuSans-101"/>
     <use x="937.703125" xlink:href="#DejaVuSans-32"/>
     <use x="969.490234" xlink:href="#DejaVuSans-111"/>
     <use x="1030.671875" xlink:href="#DejaVuSans-110"/>
     <use x="1094.050781" xlink:href="#DejaVuSans-32"/>
     <use x="1125.837891" xlink:href="#DejaVuSans-955"/>
     <use x="1185.017578" xlink:href="#DejaVuSans-95"/>
     <use x="1235.017578" xlink:href="#DejaVuSans-110"/>
     <use x="1298.396484" xlink:href="#DejaVuSans-111"/>
     <use x="1359.578125" xlink:href="#DejaVuSans-110"/>
     <use x="1422.957031" xlink:href="#DejaVuSans-95"/>
     <use x="1472.957031" xlink:href="#DejaVuSans-105"/>
     <use x="1500.740234" xlink:href="#DejaVuSans-105"/>
     <use x="1528.523438" xlink:href="#DejaVuSans-100"/>
     <use x="1592" xlink:href="#DejaVuSans-47"/>
     <use x="1625.691406" xlink:href="#DejaVuSans-104"/>
     <use x="1689.070312" xlink:href="#DejaVuSans-111"/>
     <use x="1750.251953" xlink:href="#DejaVuSans-115"/>
     <use x="1802.351562" xlink:href="#DejaVuSans-116"/>
     <use x="1841.560547" xlink:href="#DejaVuSans-47"/>
     <use x="1875.251953" xlink:href="#DejaVuSans-57"/>
    </g>
   </g>
   <g id="legend_2">
    <g id="patch_12">
     <path d="M 460.084375 74.518125 
L 511.4 74.518125 
Q 513.4 74.518125 513.4 72.518125 
L 513.4 58.84 
Q 513.4 56.84 511.4 56.84 
L 460.084375 56.84 
Q 458.084375 56.84 458.084375 58.84 
L 458.084375 72.518125 
Q 458.084375 74.518125 460.084375 74.518125 
z
" style="fill:#ffffff;opacity:0.8;stroke:#cccccc;stroke-linejoin:miter;"/>
    </g>
    <g id="line2d_24">
     <path d="M 462.084375 64.938438 
L 482.084375 64.938438 
" style="fill:none;stroke:#ff0000;stroke-linecap:square;stroke-width:1.5;"/>
    </g>
    <g id="line2d_25"/>
    <g id="text_23">
     <!-- loss -->
     <g transform="translate(490.084375 68.438438)scale(0.1 -0.1)">
      <use xlink:href="#DejaVuSans-108"/>
      <use x="27.783203" xlink:href="#DejaVuSans-111"/>
      <use x="88.964844" xlink:href="#DejaVuSans-115"/>
      <use x="141.064453" xlink:href="#DejaVuSans-115"/>
     </g>
    </g>
   </g>
  </g>
 </g>
 <defs>
  <clipPath id="p249c5193b3">
   <rect height="332.64" width="446.4" x="72" y="51.84"/>
  </clipPath>
 </defs>
</svg>
