<?xml version="1.0" encoding="utf-8" standalone="no"?>
<!DOCTYPE svg PUBLIC "-//W3C//DTD SVG 1.1//EN"
  "http://www.w3.org/Graphics/SVG/1.1/DTD/svg11.dtd">
<!-- Created with matplotlib (https://matplotlib.org/) -->
<svg height="345.6pt" version="1.1" viewBox="0 0 460.8 345.6" width="460.8pt" xmlns="http://www.w3.org/2000/svg" xmlns:xlink="http://www.w3.org/1999/xlink">
 <metadata>
  <rdf:RDF xmlns:cc="http://creativecommons.org/ns#" xmlns:dc="http://purl.org/dc/elements/1.1/" xmlns:rdf="http://www.w3.org/1999/02/22-rdf-syntax-ns#">
   <cc:Work>
    <dc:type rdf:resource="http://purl.org/dc/dcmitype/StillImage"/>
    <dc:date>2023-03-20T09:56:34.789633</dc:date>
    <dc:format>image/svg+xml</dc:format>
    <dc:creator>
     <cc:Agent>
      <dc:title>Matplotlib v3.3.4, https://matplotlib.org/</dc:title>
     </cc:Agent>
    </dc:creator>
   </cc:Work>
  </rdf:RDF>
 </metadata>
 <defs>
  <style type="text/css">*{stroke-linecap:butt;stroke-linejoin:round;}</style>
 </defs>
 <g id="figure_1">
  <g id="patch_1">
   <path d="M 0 345.6 
L 460.8 345.6 
L 460.8 0 
L 0 0 
z
" style="fill:#ffffff;"/>
  </g>
  <g id="axes_1">
   <g id="patch_2">
    <path d="M 57.6 307.584 
L 414.72 307.584 
L 414.72 41.472 
L 57.6 41.472 
z
" style="fill:#ffffff;"/>
   </g>
   <g id="patch_3">
    <path clip-path="url(#p33ff0f152e)" d="M 73.832727 307.584 
L 77.44 307.584 
L 77.44 54.144 
L 73.832727 54.144 
z
" style="fill:#1f77b4;opacity:0.5;stroke:#0000ff;stroke-linejoin:miter;"/>
   </g>
   <g id="patch_4">
    <path clip-path="url(#p33ff0f152e)" d="M 77.44 307.584 
L 81.047273 307.584 
L 81.047273 294.281901 
L 77.44 294.281901 
z
" style="fill:#1f77b4;opacity:0.5;stroke:#0000ff;stroke-linejoin:miter;"/>
   </g>
   <g id="patch_5">
    <path clip-path="url(#p33ff0f152e)" d="M 81.047273 307.584 
L 84.654545 307.584 
L 84.654545 259.276376 
L 81.047273 259.276376 
z
" style="fill:#1f77b4;opacity:0.5;stroke:#0000ff;stroke-linejoin:miter;"/>
   </g>
   <g id="patch_6">
    <path clip-path="url(#p33ff0f152e)" d="M 84.654545 307.584 
L 88.261818 307.584 
L 88.261818 293.58179 
L 84.654545 293.58179 
z
" style="fill:#1f77b4;opacity:0.5;stroke:#0000ff;stroke-linejoin:miter;"/>
   </g>
   <g id="patch_7">
    <path clip-path="url(#p33ff0f152e)" d="M 88.261818 307.584 
L 91.869091 307.584 
L 91.869091 300.349525 
L 88.261818 300.349525 
z
" style="fill:#1f77b4;opacity:0.5;stroke:#0000ff;stroke-linejoin:miter;"/>
   </g>
   <g id="patch_8">
    <path clip-path="url(#p33ff0f152e)" d="M 91.869091 307.584 
L 95.476364 307.584 
L 95.476364 291.248088 
L 91.869091 291.248088 
z
" style="fill:#1f77b4;opacity:0.5;stroke:#0000ff;stroke-linejoin:miter;"/>
   </g>
   <g id="patch_9">
    <path clip-path="url(#p33ff0f152e)" d="M 95.476364 307.584 
L 99.083636 307.584 
L 99.083636 292.648309 
L 95.476364 292.648309 
z
" style="fill:#1f77b4;opacity:0.5;stroke:#0000ff;stroke-linejoin:miter;"/>
   </g>
   <g id="patch_10">
    <path clip-path="url(#p33ff0f152e)" d="M 99.083636 307.584 
L 102.690909 307.584 
L 102.690909 280.513061 
L 99.083636 280.513061 
z
" style="fill:#1f77b4;opacity:0.5;stroke:#0000ff;stroke-linejoin:miter;"/>
   </g>
   <g id="patch_11">
    <path clip-path="url(#p33ff0f152e)" d="M 102.690909 307.584 
L 106.298182 307.584 
L 106.298182 299.182674 
L 102.690909 299.182674 
z
" style="fill:#1f77b4;opacity:0.5;stroke:#0000ff;stroke-linejoin:miter;"/>
   </g>
   <g id="patch_12">
    <path clip-path="url(#p33ff0f152e)" d="M 106.298182 307.584 
L 109.905455 307.584 
L 109.905455 289.847867 
L 106.298182 289.847867 
z
" style="fill:#1f77b4;opacity:0.5;stroke:#0000ff;stroke-linejoin:miter;"/>
   </g>
   <g id="patch_13">
    <path clip-path="url(#p33ff0f152e)" d="M 109.905455 307.584 
L 113.512727 307.584 
L 113.512727 299.882785 
L 109.905455 299.882785 
z
" style="fill:#1f77b4;opacity:0.5;stroke:#0000ff;stroke-linejoin:miter;"/>
   </g>
   <g id="patch_14">
    <path clip-path="url(#p33ff0f152e)" d="M 113.512727 307.584 
L 117.12 307.584 
L 117.12 307.584 
L 113.512727 307.584 
z
" style="fill:#1f77b4;opacity:0.5;stroke:#0000ff;stroke-linejoin:miter;"/>
   </g>
   <g id="patch_15">
    <path clip-path="url(#p33ff0f152e)" d="M 117.12 307.584 
L 120.727273 307.584 
L 120.727273 302.449856 
L 117.12 302.449856 
z
" style="fill:#1f77b4;opacity:0.5;stroke:#0000ff;stroke-linejoin:miter;"/>
   </g>
   <g id="patch_16">
    <path clip-path="url(#p33ff0f152e)" d="M 120.727273 307.584 
L 124.334545 307.584 
L 124.334545 301.283006 
L 120.727273 301.283006 
z
" style="fill:#1f77b4;opacity:0.5;stroke:#0000ff;stroke-linejoin:miter;"/>
   </g>
   <g id="patch_17">
    <path clip-path="url(#p33ff0f152e)" d="M 124.334545 307.584 
L 127.941818 307.584 
L 127.941818 284.480354 
L 124.334545 284.480354 
z
" style="fill:#1f77b4;opacity:0.5;stroke:#0000ff;stroke-linejoin:miter;"/>
   </g>
   <g id="patch_18">
    <path clip-path="url(#p33ff0f152e)" d="M 127.941818 307.584 
L 131.549091 307.584 
L 131.549091 294.515271 
L 127.941818 294.515271 
z
" style="fill:#1f77b4;opacity:0.5;stroke:#0000ff;stroke-linejoin:miter;"/>
   </g>
   <g id="patch_19">
    <path clip-path="url(#p33ff0f152e)" d="M 131.549091 307.584 
L 135.156364 307.584 
L 135.156364 290.081238 
L 131.549091 290.081238 
z
" style="fill:#1f77b4;opacity:0.5;stroke:#0000ff;stroke-linejoin:miter;"/>
   </g>
   <g id="patch_20">
    <path clip-path="url(#p33ff0f152e)" d="M 135.156364 307.584 
L 138.763636 307.584 
L 138.763636 286.814055 
L 135.156364 286.814055 
z
" style="fill:#1f77b4;opacity:0.5;stroke:#0000ff;stroke-linejoin:miter;"/>
   </g>
   <g id="patch_21">
    <path clip-path="url(#p33ff0f152e)" d="M 138.763636 307.584 
L 142.370909 307.584 
L 142.370909 295.215381 
L 138.763636 295.215381 
z
" style="fill:#1f77b4;opacity:0.5;stroke:#0000ff;stroke-linejoin:miter;"/>
   </g>
   <g id="patch_22">
    <path clip-path="url(#p33ff0f152e)" d="M 142.370909 307.584 
L 145.978182 307.584 
L 145.978182 301.516376 
L 142.370909 301.516376 
z
" style="fill:#1f77b4;opacity:0.5;stroke:#0000ff;stroke-linejoin:miter;"/>
   </g>
   <g id="patch_23">
    <path clip-path="url(#p33ff0f152e)" d="M 145.978182 307.584 
L 149.585455 307.584 
L 149.585455 299.882785 
L 145.978182 299.882785 
z
" style="fill:#1f77b4;opacity:0.5;stroke:#0000ff;stroke-linejoin:miter;"/>
   </g>
   <g id="patch_24">
    <path clip-path="url(#p33ff0f152e)" d="M 149.585455 307.584 
L 153.192727 307.584 
L 153.192727 301.049635 
L 149.585455 301.049635 
z
" style="fill:#1f77b4;opacity:0.5;stroke:#0000ff;stroke-linejoin:miter;"/>
   </g>
   <g id="patch_25">
    <path clip-path="url(#p33ff0f152e)" d="M 153.192727 307.584 
L 156.8 307.584 
L 156.8 302.916597 
L 153.192727 302.916597 
z
" style="fill:#1f77b4;opacity:0.5;stroke:#0000ff;stroke-linejoin:miter;"/>
   </g>
   <g id="patch_26">
    <path clip-path="url(#p33ff0f152e)" d="M 156.8 307.584 
L 160.407273 307.584 
L 160.407273 300.349525 
L 156.8 300.349525 
z
" style="fill:#1f77b4;opacity:0.5;stroke:#0000ff;stroke-linejoin:miter;"/>
   </g>
   <g id="patch_27">
    <path clip-path="url(#p33ff0f152e)" d="M 160.407273 307.584 
L 164.014545 307.584 
L 164.014545 298.482564 
L 160.407273 298.482564 
z
" style="fill:#1f77b4;opacity:0.5;stroke:#0000ff;stroke-linejoin:miter;"/>
   </g>
   <g id="patch_28">
    <path clip-path="url(#p33ff0f152e)" d="M 164.014545 307.584 
L 167.621818 307.584 
L 167.621818 307.584 
L 164.014545 307.584 
z
" style="fill:#1f77b4;opacity:0.5;stroke:#0000ff;stroke-linejoin:miter;"/>
   </g>
   <g id="patch_29">
    <path clip-path="url(#p33ff0f152e)" d="M 167.621818 307.584 
L 171.229091 307.584 
L 171.229091 288.447646 
L 167.621818 288.447646 
z
" style="fill:#1f77b4;opacity:0.5;stroke:#0000ff;stroke-linejoin:miter;"/>
   </g>
   <g id="patch_30">
    <path clip-path="url(#p33ff0f152e)" d="M 171.229091 307.584 
L 174.836364 307.584 
L 174.836364 292.648309 
L 171.229091 292.648309 
z
" style="fill:#1f77b4;opacity:0.5;stroke:#0000ff;stroke-linejoin:miter;"/>
   </g>
   <g id="patch_31">
    <path clip-path="url(#p33ff0f152e)" d="M 174.836364 307.584 
L 178.443636 307.584 
L 178.443636 307.584 
L 174.836364 307.584 
z
" style="fill:#1f77b4;opacity:0.5;stroke:#0000ff;stroke-linejoin:miter;"/>
   </g>
   <g id="patch_32">
    <path clip-path="url(#p33ff0f152e)" d="M 178.443636 307.584 
L 182.050909 307.584 
L 182.050909 307.584 
L 178.443636 307.584 
z
" style="fill:#1f77b4;opacity:0.5;stroke:#0000ff;stroke-linejoin:miter;"/>
   </g>
   <g id="patch_33">
    <path clip-path="url(#p33ff0f152e)" d="M 182.050909 307.584 
L 185.658182 307.584 
L 185.658182 281.679912 
L 182.050909 281.679912 
z
" style="fill:#1f77b4;opacity:0.5;stroke:#0000ff;stroke-linejoin:miter;"/>
   </g>
   <g id="patch_34">
    <path clip-path="url(#p33ff0f152e)" d="M 185.658182 307.584 
L 189.265455 307.584 
L 189.265455 289.847867 
L 185.658182 289.847867 
z
" style="fill:#1f77b4;opacity:0.5;stroke:#0000ff;stroke-linejoin:miter;"/>
   </g>
   <g id="patch_35">
    <path clip-path="url(#p33ff0f152e)" d="M 189.265455 307.584 
L 192.872727 307.584 
L 192.872727 296.148862 
L 189.265455 296.148862 
z
" style="fill:#1f77b4;opacity:0.5;stroke:#0000ff;stroke-linejoin:miter;"/>
   </g>
   <g id="patch_36">
    <path clip-path="url(#p33ff0f152e)" d="M 192.872727 307.584 
L 196.48 307.584 
L 196.48 296.382232 
L 192.872727 296.382232 
z
" style="fill:#1f77b4;opacity:0.5;stroke:#0000ff;stroke-linejoin:miter;"/>
   </g>
   <g id="patch_37">
    <path clip-path="url(#p33ff0f152e)" d="M 196.48 307.584 
L 200.087273 307.584 
L 200.087273 296.382232 
L 196.48 296.382232 
z
" style="fill:#1f77b4;opacity:0.5;stroke:#0000ff;stroke-linejoin:miter;"/>
   </g>
   <g id="patch_38">
    <path clip-path="url(#p33ff0f152e)" d="M 200.087273 307.584 
L 203.694545 307.584 
L 203.694545 298.015823 
L 200.087273 298.015823 
z
" style="fill:#1f77b4;opacity:0.5;stroke:#0000ff;stroke-linejoin:miter;"/>
   </g>
   <g id="patch_39">
    <path clip-path="url(#p33ff0f152e)" d="M 203.694545 307.584 
L 207.301818 307.584 
L 207.301818 294.04853 
L 203.694545 294.04853 
z
" style="fill:#1f77b4;opacity:0.5;stroke:#0000ff;stroke-linejoin:miter;"/>
   </g>
   <g id="patch_40">
    <path clip-path="url(#p33ff0f152e)" d="M 207.301818 307.584 
L 210.909091 307.584 
L 210.909091 298.249193 
L 207.301818 298.249193 
z
" style="fill:#1f77b4;opacity:0.5;stroke:#0000ff;stroke-linejoin:miter;"/>
   </g>
   <g id="patch_41">
    <path clip-path="url(#p33ff0f152e)" d="M 210.909091 307.584 
L 214.516364 307.584 
L 214.516364 300.116155 
L 210.909091 300.116155 
z
" style="fill:#1f77b4;opacity:0.5;stroke:#0000ff;stroke-linejoin:miter;"/>
   </g>
   <g id="patch_42">
    <path clip-path="url(#p33ff0f152e)" d="M 214.516364 307.584 
L 218.123636 307.584 
L 218.123636 300.582895 
L 214.516364 300.582895 
z
" style="fill:#1f77b4;opacity:0.5;stroke:#0000ff;stroke-linejoin:miter;"/>
   </g>
   <g id="patch_43">
    <path clip-path="url(#p33ff0f152e)" d="M 218.123636 307.584 
L 221.730909 307.584 
L 221.730909 293.81516 
L 218.123636 293.81516 
z
" style="fill:#1f77b4;opacity:0.5;stroke:#0000ff;stroke-linejoin:miter;"/>
   </g>
   <g id="patch_44">
    <path clip-path="url(#p33ff0f152e)" d="M 221.730909 307.584 
L 225.338182 307.584 
L 225.338182 288.447646 
L 221.730909 288.447646 
z
" style="fill:#1f77b4;opacity:0.5;stroke:#0000ff;stroke-linejoin:miter;"/>
   </g>
   <g id="patch_45">
    <path clip-path="url(#p33ff0f152e)" d="M 225.338182 307.584 
L 228.945455 307.584 
L 228.945455 297.082343 
L 225.338182 297.082343 
z
" style="fill:#1f77b4;opacity:0.5;stroke:#0000ff;stroke-linejoin:miter;"/>
   </g>
   <g id="patch_46">
    <path clip-path="url(#p33ff0f152e)" d="M 228.945455 307.584 
L 232.552727 307.584 
L 232.552727 275.845657 
L 228.945455 275.845657 
z
" style="fill:#1f77b4;opacity:0.5;stroke:#0000ff;stroke-linejoin:miter;"/>
   </g>
   <g id="patch_47">
    <path clip-path="url(#p33ff0f152e)" d="M 232.552727 307.584 
L 236.16 307.584 
L 236.16 307.584 
L 232.552727 307.584 
z
" style="fill:#1f77b4;opacity:0.5;stroke:#0000ff;stroke-linejoin:miter;"/>
   </g>
   <g id="patch_48">
    <path clip-path="url(#p33ff0f152e)" d="M 236.16 307.584 
L 239.767273 307.584 
L 239.767273 298.015823 
L 236.16 298.015823 
z
" style="fill:#1f77b4;opacity:0.5;stroke:#0000ff;stroke-linejoin:miter;"/>
   </g>
   <g id="patch_49">
    <path clip-path="url(#p33ff0f152e)" d="M 239.767273 307.584 
L 243.374545 307.584 
L 243.374545 272.578475 
L 239.767273 272.578475 
z
" style="fill:#1f77b4;opacity:0.5;stroke:#0000ff;stroke-linejoin:miter;"/>
   </g>
   <g id="patch_50">
    <path clip-path="url(#p33ff0f152e)" d="M 243.374545 307.584 
L 246.981818 307.584 
L 246.981818 295.682122 
L 243.374545 295.682122 
z
" style="fill:#1f77b4;opacity:0.5;stroke:#0000ff;stroke-linejoin:miter;"/>
   </g>
   <g id="patch_51">
    <path clip-path="url(#p33ff0f152e)" d="M 246.981818 307.584 
L 250.589091 307.584 
L 250.589091 292.648309 
L 246.981818 292.648309 
z
" style="fill:#1f77b4;opacity:0.5;stroke:#0000ff;stroke-linejoin:miter;"/>
   </g>
   <g id="patch_52">
    <path clip-path="url(#p33ff0f152e)" d="M 250.589091 307.584 
L 254.196364 307.584 
L 254.196364 295.215381 
L 250.589091 295.215381 
z
" style="fill:#1f77b4;opacity:0.5;stroke:#0000ff;stroke-linejoin:miter;"/>
   </g>
   <g id="patch_53">
    <path clip-path="url(#p33ff0f152e)" d="M 254.196364 307.584 
L 257.803636 307.584 
L 257.803636 280.513061 
L 254.196364 280.513061 
z
" style="fill:#1f77b4;opacity:0.5;stroke:#0000ff;stroke-linejoin:miter;"/>
   </g>
   <g id="patch_54">
    <path clip-path="url(#p33ff0f152e)" d="M 257.803636 307.584 
L 261.410909 307.584 
L 261.410909 297.782453 
L 257.803636 297.782453 
z
" style="fill:#1f77b4;opacity:0.5;stroke:#0000ff;stroke-linejoin:miter;"/>
   </g>
   <g id="patch_55">
    <path clip-path="url(#p33ff0f152e)" d="M 261.410909 307.584 
L 265.018182 307.584 
L 265.018182 301.516376 
L 261.410909 301.516376 
z
" style="fill:#1f77b4;opacity:0.5;stroke:#0000ff;stroke-linejoin:miter;"/>
   </g>
   <g id="patch_56">
    <path clip-path="url(#p33ff0f152e)" d="M 265.018182 307.584 
L 268.625455 307.584 
L 268.625455 296.615602 
L 265.018182 296.615602 
z
" style="fill:#1f77b4;opacity:0.5;stroke:#0000ff;stroke-linejoin:miter;"/>
   </g>
   <g id="patch_57">
    <path clip-path="url(#p33ff0f152e)" d="M 268.625455 307.584 
L 272.232727 307.584 
L 272.232727 301.749746 
L 268.625455 301.749746 
z
" style="fill:#1f77b4;opacity:0.5;stroke:#0000ff;stroke-linejoin:miter;"/>
   </g>
   <g id="patch_58">
    <path clip-path="url(#p33ff0f152e)" d="M 272.232727 307.584 
L 275.84 307.584 
L 275.84 298.015823 
L 272.232727 298.015823 
z
" style="fill:#1f77b4;opacity:0.5;stroke:#0000ff;stroke-linejoin:miter;"/>
   </g>
   <g id="patch_59">
    <path clip-path="url(#p33ff0f152e)" d="M 275.84 307.584 
L 279.447273 307.584 
L 279.447273 299.649414 
L 275.84 299.649414 
z
" style="fill:#1f77b4;opacity:0.5;stroke:#0000ff;stroke-linejoin:miter;"/>
   </g>
   <g id="patch_60">
    <path clip-path="url(#p33ff0f152e)" d="M 279.447273 307.584 
L 283.054545 307.584 
L 283.054545 303.616707 
L 279.447273 303.616707 
z
" style="fill:#1f77b4;opacity:0.5;stroke:#0000ff;stroke-linejoin:miter;"/>
   </g>
   <g id="patch_61">
    <path clip-path="url(#p33ff0f152e)" d="M 283.054545 307.584 
L 286.661818 307.584 
L 286.661818 294.04853 
L 283.054545 294.04853 
z
" style="fill:#1f77b4;opacity:0.5;stroke:#0000ff;stroke-linejoin:miter;"/>
   </g>
   <g id="patch_62">
    <path clip-path="url(#p33ff0f152e)" d="M 286.661818 307.584 
L 290.269091 307.584 
L 290.269091 303.616707 
L 286.661818 303.616707 
z
" style="fill:#1f77b4;opacity:0.5;stroke:#0000ff;stroke-linejoin:miter;"/>
   </g>
   <g id="patch_63">
    <path clip-path="url(#p33ff0f152e)" d="M 290.269091 307.584 
L 293.876364 307.584 
L 293.876364 298.715934 
L 290.269091 298.715934 
z
" style="fill:#1f77b4;opacity:0.5;stroke:#0000ff;stroke-linejoin:miter;"/>
   </g>
   <g id="patch_64">
    <path clip-path="url(#p33ff0f152e)" d="M 293.876364 307.584 
L 297.483636 307.584 
L 297.483636 259.743116 
L 293.876364 259.743116 
z
" style="fill:#1f77b4;opacity:0.5;stroke:#0000ff;stroke-linejoin:miter;"/>
   </g>
   <g id="patch_65">
    <path clip-path="url(#p33ff0f152e)" d="M 297.483636 307.584 
L 301.090909 307.584 
L 301.090909 286.113945 
L 297.483636 286.113945 
z
" style="fill:#1f77b4;opacity:0.5;stroke:#0000ff;stroke-linejoin:miter;"/>
   </g>
   <g id="patch_66">
    <path clip-path="url(#p33ff0f152e)" d="M 301.090909 307.584 
L 304.698182 307.584 
L 304.698182 290.781348 
L 301.090909 290.781348 
z
" style="fill:#1f77b4;opacity:0.5;stroke:#0000ff;stroke-linejoin:miter;"/>
   </g>
   <g id="patch_67">
    <path clip-path="url(#p33ff0f152e)" d="M 304.698182 307.584 
L 308.305455 307.584 
L 308.305455 291.248088 
L 304.698182 291.248088 
z
" style="fill:#1f77b4;opacity:0.5;stroke:#0000ff;stroke-linejoin:miter;"/>
   </g>
   <g id="patch_68">
    <path clip-path="url(#p33ff0f152e)" d="M 308.305455 307.584 
L 311.912727 307.584 
L 311.912727 307.584 
L 308.305455 307.584 
z
" style="fill:#1f77b4;opacity:0.5;stroke:#0000ff;stroke-linejoin:miter;"/>
   </g>
   <g id="patch_69">
    <path clip-path="url(#p33ff0f152e)" d="M 311.912727 307.584 
L 315.52 307.584 
L 315.52 264.87726 
L 311.912727 264.87726 
z
" style="fill:#1f77b4;opacity:0.5;stroke:#0000ff;stroke-linejoin:miter;"/>
   </g>
   <g id="patch_70">
    <path clip-path="url(#p33ff0f152e)" d="M 315.52 307.584 
L 319.127273 307.584 
L 319.127273 307.584 
L 315.52 307.584 
z
" style="fill:#1f77b4;opacity:0.5;stroke:#0000ff;stroke-linejoin:miter;"/>
   </g>
   <g id="patch_71">
    <path clip-path="url(#p33ff0f152e)" d="M 319.127273 307.584 
L 322.734545 307.584 
L 322.734545 307.584 
L 319.127273 307.584 
z
" style="fill:#1f77b4;opacity:0.5;stroke:#0000ff;stroke-linejoin:miter;"/>
   </g>
   <g id="patch_72">
    <path clip-path="url(#p33ff0f152e)" d="M 322.734545 307.584 
L 326.341818 307.584 
L 326.341818 293.58179 
L 322.734545 293.58179 
z
" style="fill:#1f77b4;opacity:0.5;stroke:#0000ff;stroke-linejoin:miter;"/>
   </g>
   <g id="patch_73">
    <path clip-path="url(#p33ff0f152e)" d="M 326.341818 307.584 
L 329.949091 307.584 
L 329.949091 307.584 
L 326.341818 307.584 
z
" style="fill:#1f77b4;opacity:0.5;stroke:#0000ff;stroke-linejoin:miter;"/>
   </g>
   <g id="patch_74">
    <path clip-path="url(#p33ff0f152e)" d="M 329.949091 307.584 
L 333.556364 307.584 
L 333.556364 288.681017 
L 329.949091 288.681017 
z
" style="fill:#1f77b4;opacity:0.5;stroke:#0000ff;stroke-linejoin:miter;"/>
   </g>
   <g id="patch_75">
    <path clip-path="url(#p33ff0f152e)" d="M 333.556364 307.584 
L 337.163636 307.584 
L 337.163636 294.281901 
L 333.556364 294.281901 
z
" style="fill:#1f77b4;opacity:0.5;stroke:#0000ff;stroke-linejoin:miter;"/>
   </g>
   <g id="patch_76">
    <path clip-path="url(#p33ff0f152e)" d="M 337.163636 307.584 
L 340.770909 307.584 
L 340.770909 300.816265 
L 337.163636 300.816265 
z
" style="fill:#1f77b4;opacity:0.5;stroke:#0000ff;stroke-linejoin:miter;"/>
   </g>
   <g id="patch_77">
    <path clip-path="url(#p33ff0f152e)" d="M 340.770909 307.584 
L 344.378182 307.584 
L 344.378182 294.281901 
L 340.770909 294.281901 
z
" style="fill:#1f77b4;opacity:0.5;stroke:#0000ff;stroke-linejoin:miter;"/>
   </g>
   <g id="patch_78">
    <path clip-path="url(#p33ff0f152e)" d="M 344.378182 307.584 
L 347.985455 307.584 
L 347.985455 300.116155 
L 344.378182 300.116155 
z
" style="fill:#1f77b4;opacity:0.5;stroke:#0000ff;stroke-linejoin:miter;"/>
   </g>
   <g id="patch_79">
    <path clip-path="url(#p33ff0f152e)" d="M 347.985455 307.584 
L 351.592727 307.584 
L 351.592727 291.014718 
L 347.985455 291.014718 
z
" style="fill:#1f77b4;opacity:0.5;stroke:#0000ff;stroke-linejoin:miter;"/>
   </g>
   <g id="patch_80">
    <path clip-path="url(#p33ff0f152e)" d="M 351.592727 307.584 
L 355.2 307.584 
L 355.2 300.582895 
L 351.592727 300.582895 
z
" style="fill:#1f77b4;opacity:0.5;stroke:#0000ff;stroke-linejoin:miter;"/>
   </g>
   <g id="patch_81">
    <path clip-path="url(#p33ff0f152e)" d="M 355.2 307.584 
L 358.807273 307.584 
L 358.807273 298.015823 
L 355.2 298.015823 
z
" style="fill:#1f77b4;opacity:0.5;stroke:#0000ff;stroke-linejoin:miter;"/>
   </g>
   <g id="patch_82">
    <path clip-path="url(#p33ff0f152e)" d="M 358.807273 307.584 
L 362.414545 307.584 
L 362.414545 306.88389 
L 358.807273 306.88389 
z
" style="fill:#1f77b4;opacity:0.5;stroke:#0000ff;stroke-linejoin:miter;"/>
   </g>
   <g id="patch_83">
    <path clip-path="url(#p33ff0f152e)" d="M 362.414545 307.584 
L 366.021818 307.584 
L 366.021818 290.081238 
L 362.414545 290.081238 
z
" style="fill:#1f77b4;opacity:0.5;stroke:#0000ff;stroke-linejoin:miter;"/>
   </g>
   <g id="patch_84">
    <path clip-path="url(#p33ff0f152e)" d="M 366.021818 307.584 
L 369.629091 307.584 
L 369.629091 300.116155 
L 366.021818 300.116155 
z
" style="fill:#1f77b4;opacity:0.5;stroke:#0000ff;stroke-linejoin:miter;"/>
   </g>
   <g id="patch_85">
    <path clip-path="url(#p33ff0f152e)" d="M 369.629091 307.584 
L 373.236364 307.584 
L 373.236364 307.584 
L 369.629091 307.584 
z
" style="fill:#1f77b4;opacity:0.5;stroke:#0000ff;stroke-linejoin:miter;"/>
   </g>
   <g id="patch_86">
    <path clip-path="url(#p33ff0f152e)" d="M 373.236364 307.584 
L 376.843636 307.584 
L 376.843636 284.947094 
L 373.236364 284.947094 
z
" style="fill:#1f77b4;opacity:0.5;stroke:#0000ff;stroke-linejoin:miter;"/>
   </g>
   <g id="patch_87">
    <path clip-path="url(#p33ff0f152e)" d="M 376.843636 307.584 
L 380.450909 307.584 
L 380.450909 283.313503 
L 376.843636 283.313503 
z
" style="fill:#1f77b4;opacity:0.5;stroke:#0000ff;stroke-linejoin:miter;"/>
   </g>
   <g id="patch_88">
    <path clip-path="url(#p33ff0f152e)" d="M 380.450909 307.584 
L 384.058182 307.584 
L 384.058182 296.382232 
L 380.450909 296.382232 
z
" style="fill:#1f77b4;opacity:0.5;stroke:#0000ff;stroke-linejoin:miter;"/>
   </g>
   <g id="patch_89">
    <path clip-path="url(#p33ff0f152e)" d="M 384.058182 307.584 
L 387.665455 307.584 
L 387.665455 305.483669 
L 384.058182 305.483669 
z
" style="fill:#1f77b4;opacity:0.5;stroke:#0000ff;stroke-linejoin:miter;"/>
   </g>
   <g id="patch_90">
    <path clip-path="url(#p33ff0f152e)" d="M 387.665455 307.584 
L 391.272727 307.584 
L 391.272727 297.315713 
L 387.665455 297.315713 
z
" style="fill:#1f77b4;opacity:0.5;stroke:#0000ff;stroke-linejoin:miter;"/>
   </g>
   <g id="patch_91">
    <path clip-path="url(#p33ff0f152e)" d="M 391.272727 307.584 
L 394.88 307.584 
L 394.88 306.183779 
L 391.272727 306.183779 
z
" style="fill:#1f77b4;opacity:0.5;stroke:#0000ff;stroke-linejoin:miter;"/>
   </g>
   <g id="patch_92">
    <path clip-path="url(#p33ff0f152e)" d="M 394.88 307.584 
L 398.487273 307.584 
L 398.487273 307.584 
L 394.88 307.584 
z
" style="fill:#1f77b4;opacity:0.5;stroke:#0000ff;stroke-linejoin:miter;"/>
   </g>
   <g id="matplotlib.axis_1">
    <g id="xtick_1">
     <g id="line2d_1">
      <defs>
       <path d="M 0 0 
L 0 3.5 
" id="m0b340c2eed" style="stroke:#000000;stroke-width:0.8;"/>
      </defs>
      <g>
       <use style="stroke:#000000;stroke-width:0.8;" x="73.832727" xlink:href="#m0b340c2eed" y="307.584"/>
      </g>
     </g>
     <g id="text_1">
      <!-- 0 -->
      <g transform="translate(71.332727 321.419937)scale(0.1 -0.1)">
       <defs>
        <path d="M 46.484375 35.15625 
Q 46.484375 21.09375 41.40625 10.9375 
Q 36.328125 0.78125 25 0.78125 
Q 13.671875 0.78125 8.390625 10.9375 
Q 3.125 21.09375 3.125 35.15625 
Q 3.125 49.21875 8.390625 59.171875 
Q 13.671875 69.140625 25 69.140625 
Q 36.328125 69.140625 41.40625 59.171875 
Q 46.484375 49.21875 46.484375 35.15625 
z
M 37.109375 35.15625 
Q 37.109375 47.65625 34.171875 54.6875 
Q 31.25 61.71875 25 61.71875 
Q 18.75 61.71875 15.625 54.6875 
Q 12.5 47.65625 12.5 35.15625 
Q 12.5 22.65625 15.625 15.421875 
Q 18.75 8.203125 25 8.203125 
Q 31.25 8.203125 34.171875 15.421875 
Q 37.109375 22.65625 37.109375 35.15625 
z
" id="SimHei-48"/>
       </defs>
       <use xlink:href="#SimHei-48"/>
      </g>
     </g>
    </g>
    <g id="xtick_2">
     <g id="line2d_2">
      <g>
       <use style="stroke:#000000;stroke-width:0.8;" x="145.978182" xlink:href="#m0b340c2eed" y="307.584"/>
      </g>
     </g>
     <g id="text_2">
      <!-- 20 -->
      <g transform="translate(140.978182 321.419937)scale(0.1 -0.1)">
       <defs>
        <path d="M 44.53125 1.5625 
L 4.6875 1.5625 
L 4.6875 7.8125 
Q 7.03125 14.0625 11.125 19.328125 
Q 15.234375 24.609375 23.046875 31.25 
Q 28.90625 36.328125 31.4375 40.625 
Q 33.984375 44.921875 33.984375 50 
Q 33.984375 55.078125 31.828125 58.390625 
Q 29.6875 61.71875 25 61.71875 
Q 21.09375 61.71875 18.15625 58.203125 
Q 15.234375 54.6875 15.234375 45.703125 
L 6.25 45.703125 
Q 6.640625 57.03125 11.515625 63.078125 
Q 16.40625 69.140625 25.390625 69.140625 
Q 33.984375 69.140625 38.671875 63.859375 
Q 43.359375 58.59375 43.359375 49.609375 
Q 43.359375 42.1875 39.0625 36.71875 
Q 34.765625 31.25 28.515625 25.78125 
Q 21.484375 19.53125 18.75 16.40625 
Q 16.015625 13.28125 13.671875 8.984375 
L 44.53125 8.984375 
z
" id="SimHei-50"/>
       </defs>
       <use xlink:href="#SimHei-50"/>
       <use x="50" xlink:href="#SimHei-48"/>
      </g>
     </g>
    </g>
    <g id="xtick_3">
     <g id="line2d_3">
      <g>
       <use style="stroke:#000000;stroke-width:0.8;" x="218.123636" xlink:href="#m0b340c2eed" y="307.584"/>
      </g>
     </g>
     <g id="text_3">
      <!-- 40 -->
      <g transform="translate(213.123636 321.419937)scale(0.1 -0.1)">
       <defs>
        <path d="M 46.484375 18.75 
L 38.28125 18.75 
L 38.28125 1.5625 
L 29.296875 1.5625 
L 29.296875 18.75 
L 3.125 18.75 
L 3.125 26.171875 
L 29.296875 69.140625 
L 38.28125 69.140625 
L 38.28125 26.171875 
L 46.484375 26.171875 
z
M 29.296875 26.171875 
L 29.296875 55.078125 
L 11.71875 26.171875 
z
" id="SimHei-52"/>
       </defs>
       <use xlink:href="#SimHei-52"/>
       <use x="50" xlink:href="#SimHei-48"/>
      </g>
     </g>
    </g>
    <g id="xtick_4">
     <g id="line2d_4">
      <g>
       <use style="stroke:#000000;stroke-width:0.8;" x="290.269091" xlink:href="#m0b340c2eed" y="307.584"/>
      </g>
     </g>
     <g id="text_4">
      <!-- 60 -->
      <g transform="translate(285.269091 321.419937)scale(0.1 -0.1)">
       <defs>
        <path d="M 44.53125 24.21875 
Q 44.53125 13.28125 39.84375 7.03125 
Q 35.15625 0.78125 25.78125 0.78125 
Q 16.40625 0.78125 10.9375 8.59375 
Q 5.46875 16.40625 5.46875 33.984375 
Q 5.46875 50 11.125 59.5625 
Q 16.796875 69.140625 27.34375 69.140625 
Q 34.765625 69.140625 39.25 63.671875 
Q 43.75 58.203125 43.75 51.5625 
L 34.765625 51.5625 
Q 34.765625 55.46875 32.609375 58.59375 
Q 30.46875 61.71875 26.953125 61.71875 
Q 21.09375 61.71875 17.96875 55.65625 
Q 14.84375 49.609375 14.453125 37.109375 
Q 17.1875 42.1875 20.3125 44.140625 
Q 23.4375 46.09375 27.734375 46.09375 
Q 35.15625 46.09375 39.84375 40.234375 
Q 44.53125 34.375 44.53125 24.21875 
z
M 35.15625 24.21875 
Q 35.15625 31.25 32.8125 35.15625 
Q 30.46875 39.0625 26.171875 39.0625 
Q 21.09375 39.0625 18.15625 35.15625 
Q 15.234375 31.25 15.234375 25.78125 
Q 15.234375 17.1875 18.15625 12.5 
Q 21.09375 7.8125 26.171875 7.8125 
Q 29.6875 7.8125 32.421875 11.328125 
Q 35.15625 14.84375 35.15625 24.21875 
z
" id="SimHei-54"/>
       </defs>
       <use xlink:href="#SimHei-54"/>
       <use x="50" xlink:href="#SimHei-48"/>
      </g>
     </g>
    </g>
    <g id="xtick_5">
     <g id="line2d_5">
      <g>
       <use style="stroke:#000000;stroke-width:0.8;" x="362.414545" xlink:href="#m0b340c2eed" y="307.584"/>
      </g>
     </g>
     <g id="text_5">
      <!-- 80 -->
      <g transform="translate(357.414545 321.419937)scale(0.1 -0.1)">
       <defs>
        <path d="M 44.921875 20.703125 
Q 44.921875 10.9375 39.453125 5.859375 
Q 33.984375 0.78125 24.609375 0.78125 
Q 15.234375 0.78125 9.765625 5.859375 
Q 4.296875 10.9375 4.296875 20.703125 
Q 4.296875 25.78125 7.421875 29.875 
Q 10.546875 33.984375 16.015625 35.9375 
Q 11.328125 37.890625 8.78125 41.40625 
Q 6.25 44.921875 6.25 50.390625 
Q 6.25 58.984375 11.71875 64.0625 
Q 17.1875 69.140625 24.609375 69.140625 
Q 32.03125 69.140625 37.5 64.0625 
Q 42.96875 58.984375 42.96875 50.390625 
Q 42.96875 44.921875 40.421875 41.40625 
Q 37.890625 37.890625 33.203125 35.9375 
Q 38.671875 33.984375 41.796875 29.875 
Q 44.921875 25.78125 44.921875 20.703125 
z
M 34.375 50.390625 
Q 34.375 56.640625 31.640625 59.375 
Q 28.90625 62.109375 24.609375 62.109375 
Q 20.3125 62.109375 17.578125 59.375 
Q 14.84375 56.640625 14.84375 50.390625 
Q 14.84375 44.140625 17.765625 41.59375 
Q 20.703125 39.0625 24.609375 39.0625 
Q 28.515625 39.0625 31.4375 41.59375 
Q 34.375 44.140625 34.375 50.390625 
z
M 35.9375 20.703125 
Q 35.9375 26.171875 33 29.296875 
Q 30.078125 32.421875 24.609375 32.421875 
Q 19.140625 32.421875 16.203125 29.296875 
Q 13.28125 26.171875 13.28125 20.703125 
Q 13.28125 14.453125 16.40625 11.125 
Q 19.53125 7.8125 24.609375 7.8125 
Q 29.6875 7.8125 32.8125 11.125 
Q 35.9375 14.453125 35.9375 20.703125 
z
" id="SimHei-56"/>
       </defs>
       <use xlink:href="#SimHei-56"/>
       <use x="50" xlink:href="#SimHei-48"/>
      </g>
     </g>
    </g>
    <g id="text_6">
     <!-- label_id -->
     <g transform="translate(216.16 333.544937)scale(0.1 -0.1)">
      <defs>
       <path d="M 28.90625 1.5625 
L 21.09375 1.5625 
L 21.09375 68.359375 
L 28.90625 68.359375 
z
" id="SimHei-108"/>
       <path d="M 45.3125 1.5625 
L 35.9375 1.5625 
Q 35.15625 2.34375 34.765625 3.703125 
Q 34.375 5.078125 34.375 7.03125 
Q 31.640625 3.90625 27.734375 2.34375 
Q 23.828125 0.78125 19.53125 0.78125 
Q 13.28125 0.78125 8.984375 3.90625 
Q 4.6875 7.03125 4.6875 12.890625 
Q 4.6875 18.75 8.59375 22.265625 
Q 12.5 25.78125 20.703125 26.953125 
Q 26.171875 27.734375 30.265625 28.90625 
Q 34.375 30.078125 34.375 32.03125 
Q 34.375 34.375 32.609375 36.71875 
Q 30.859375 39.0625 25 39.0625 
Q 20.3125 39.0625 18.15625 37.296875 
Q 16.015625 35.546875 15.234375 32.421875 
L 6.640625 32.421875 
Q 7.421875 38.671875 12.296875 42.375 
Q 17.1875 46.09375 25 46.09375 
Q 33.59375 46.09375 37.890625 42.1875 
Q 42.1875 38.28125 42.1875 31.25 
L 42.1875 9.765625 
Q 42.1875 7.421875 42.96875 5.46875 
Q 43.75 3.515625 45.3125 1.5625 
z
M 34.375 16.015625 
L 34.375 23.828125 
Q 32.03125 23.046875 29.875 22.453125 
Q 27.734375 21.875 22.65625 21.09375 
Q 16.796875 20.3125 15.03125 18.359375 
Q 13.28125 16.40625 13.28125 13.671875 
Q 13.28125 11.328125 15.03125 9.5625 
Q 16.796875 7.8125 20.3125 7.8125 
Q 23.828125 7.8125 27.921875 9.765625 
Q 32.03125 11.71875 34.375 16.015625 
z
" id="SimHei-97"/>
       <path d="M 44.53125 23.4375 
Q 44.53125 12.109375 39.0625 6.4375 
Q 33.59375 0.78125 25.78125 0.78125 
Q 21.484375 0.78125 18.359375 2.34375 
Q 15.234375 3.90625 12.890625 7.421875 
L 12.890625 1.5625 
L 5.078125 1.5625 
L 5.078125 68.359375 
L 12.890625 68.359375 
L 12.890625 39.453125 
Q 15.234375 42.96875 18.359375 44.71875 
Q 21.484375 46.484375 25.78125 46.484375 
Q 33.59375 46.484375 39.0625 40.625 
Q 44.53125 34.765625 44.53125 23.4375 
z
M 35.9375 23.4375 
Q 35.9375 30.859375 33 35.15625 
Q 30.078125 39.453125 24.21875 39.453125 
Q 19.53125 39.453125 16.203125 35.15625 
Q 12.890625 30.859375 12.890625 23.4375 
Q 12.890625 16.015625 16.203125 11.90625 
Q 19.53125 7.8125 24.21875 7.8125 
Q 30.078125 7.8125 33 11.90625 
Q 35.9375 16.015625 35.9375 23.4375 
z
" id="SimHei-98"/>
       <path d="M 44.921875 16.40625 
Q 44.140625 9.375 38.671875 5.078125 
Q 33.203125 0.78125 25.78125 0.78125 
Q 16.40625 0.78125 10.34375 6.828125 
Q 4.296875 12.890625 4.296875 23.4375 
Q 4.296875 33.984375 10.34375 40.03125 
Q 16.40625 46.09375 25.78125 46.09375 
Q 33.984375 46.09375 39.25 40.8125 
Q 44.53125 35.546875 44.53125 23.4375 
L 12.890625 23.4375 
Q 12.890625 14.84375 16.59375 11.328125 
Q 20.3125 7.8125 25.78125 7.8125 
Q 30.078125 7.8125 32.8125 9.953125 
Q 35.546875 12.109375 36.328125 16.40625 
z
M 35.546875 29.6875 
Q 34.765625 35.15625 32.03125 37.296875 
Q 29.296875 39.453125 25 39.453125 
Q 21.09375 39.453125 17.96875 37.296875 
Q 14.84375 35.15625 13.28125 29.6875 
z
" id="SimHei-101"/>
       <path d="M 49.609375 -13.671875 
L 0 -13.671875 
L 0 -8.984375 
L 49.609375 -8.984375 
z
" id="SimHei-95"/>
       <path d="M 28.515625 57.8125 
L 20.703125 57.8125 
L 20.703125 67.96875 
L 28.515625 67.96875 
z
M 28.515625 1.5625 
L 20.703125 1.5625 
L 20.703125 45.3125 
L 28.515625 45.3125 
z
" id="SimHei-105"/>
       <path d="M 43.359375 1.5625 
L 35.546875 1.5625 
L 35.546875 7.421875 
Q 33.203125 3.90625 30.078125 2.34375 
Q 26.953125 0.78125 22.65625 0.78125 
Q 14.84375 0.78125 9.375 6.4375 
Q 3.90625 12.109375 3.90625 23.4375 
Q 3.90625 34.765625 9.375 40.625 
Q 14.84375 46.484375 22.65625 46.484375 
Q 26.953125 46.484375 30.078125 44.71875 
Q 33.203125 42.96875 35.546875 39.453125 
L 35.546875 68.359375 
L 43.359375 68.359375 
z
M 35.546875 23.4375 
Q 35.546875 30.859375 32.21875 35.15625 
Q 28.90625 39.453125 24.21875 39.453125 
Q 18.359375 39.453125 15.421875 35.15625 
Q 12.5 30.859375 12.5 23.4375 
Q 12.5 16.015625 15.421875 11.90625 
Q 18.359375 7.8125 24.21875 7.8125 
Q 28.90625 7.8125 32.21875 11.90625 
Q 35.546875 16.015625 35.546875 23.4375 
z
" id="SimHei-100"/>
      </defs>
      <use xlink:href="#SimHei-108"/>
      <use x="50" xlink:href="#SimHei-97"/>
      <use x="100" xlink:href="#SimHei-98"/>
      <use x="150" xlink:href="#SimHei-101"/>
      <use x="200" xlink:href="#SimHei-108"/>
      <use x="250" xlink:href="#SimHei-95"/>
      <use x="300" xlink:href="#SimHei-105"/>
      <use x="350" xlink:href="#SimHei-100"/>
     </g>
    </g>
   </g>
   <g id="matplotlib.axis_2">
    <g id="ytick_1">
     <g id="line2d_6">
      <defs>
       <path d="M 0 0 
L -3.5 0 
" id="mcd1c7e9c2c" style="stroke:#000000;stroke-width:0.8;"/>
      </defs>
      <g>
       <use style="stroke:#000000;stroke-width:0.8;" x="57.6" xlink:href="#mcd1c7e9c2c" y="307.584"/>
      </g>
     </g>
     <g id="text_7">
      <!-- 0 -->
      <g transform="translate(45.6 311.001969)scale(0.1 -0.1)">
       <use xlink:href="#SimHei-48"/>
      </g>
     </g>
    </g>
    <g id="ytick_2">
     <g id="line2d_7">
      <g>
       <use style="stroke:#000000;stroke-width:0.8;" x="57.6" xlink:href="#mcd1c7e9c2c" y="260.909967"/>
      </g>
     </g>
     <g id="text_8">
      <!-- 200 -->
      <g transform="translate(35.6 264.327936)scale(0.1 -0.1)">
       <use xlink:href="#SimHei-50"/>
       <use x="50" xlink:href="#SimHei-48"/>
       <use x="100" xlink:href="#SimHei-48"/>
      </g>
     </g>
    </g>
    <g id="ytick_3">
     <g id="line2d_8">
      <g>
       <use style="stroke:#000000;stroke-width:0.8;" x="57.6" xlink:href="#mcd1c7e9c2c" y="214.235934"/>
      </g>
     </g>
     <g id="text_9">
      <!-- 400 -->
      <g transform="translate(35.6 217.653902)scale(0.1 -0.1)">
       <use xlink:href="#SimHei-52"/>
       <use x="50" xlink:href="#SimHei-48"/>
       <use x="100" xlink:href="#SimHei-48"/>
      </g>
     </g>
    </g>
    <g id="ytick_4">
     <g id="line2d_9">
      <g>
       <use style="stroke:#000000;stroke-width:0.8;" x="57.6" xlink:href="#mcd1c7e9c2c" y="167.561901"/>
      </g>
     </g>
     <g id="text_10">
      <!-- 600 -->
      <g transform="translate(35.6 170.979869)scale(0.1 -0.1)">
       <use xlink:href="#SimHei-54"/>
       <use x="50" xlink:href="#SimHei-48"/>
       <use x="100" xlink:href="#SimHei-48"/>
      </g>
     </g>
    </g>
    <g id="ytick_5">
     <g id="line2d_10">
      <g>
       <use style="stroke:#000000;stroke-width:0.8;" x="57.6" xlink:href="#mcd1c7e9c2c" y="120.887867"/>
      </g>
     </g>
     <g id="text_11">
      <!-- 800 -->
      <g transform="translate(35.6 124.305836)scale(0.1 -0.1)">
       <use xlink:href="#SimHei-56"/>
       <use x="50" xlink:href="#SimHei-48"/>
       <use x="100" xlink:href="#SimHei-48"/>
      </g>
     </g>
    </g>
    <g id="ytick_6">
     <g id="line2d_11">
      <g>
       <use style="stroke:#000000;stroke-width:0.8;" x="57.6" xlink:href="#mcd1c7e9c2c" y="74.213834"/>
      </g>
     </g>
     <g id="text_12">
      <!-- 1000 -->
      <g transform="translate(30.6 77.631803)scale(0.1 -0.1)">
       <defs>
        <path d="M 30.46875 1.5625 
L 21.484375 1.5625 
L 21.484375 53.515625 
L 9.765625 53.515625 
L 9.765625 58.203125 
Q 16.796875 58.203125 20.703125 60.9375 
Q 24.609375 63.671875 25.78125 69.140625 
L 30.46875 69.140625 
z
" id="SimHei-49"/>
       </defs>
       <use xlink:href="#SimHei-49"/>
       <use x="50" xlink:href="#SimHei-48"/>
       <use x="100" xlink:href="#SimHei-48"/>
       <use x="150" xlink:href="#SimHei-48"/>
      </g>
     </g>
    </g>
    <g id="text_13">
     <!-- label_occurrence -->
     <g transform="translate(25.232813 214.528)rotate(-90)scale(0.1 -0.1)">
      <defs>
       <path d="M 46.09375 23.4375 
Q 46.09375 13.28125 39.84375 7.03125 
Q 33.59375 0.78125 25 0.78125 
Q 16.40625 0.78125 10.15625 7.03125 
Q 3.90625 13.28125 3.90625 23.4375 
Q 3.90625 33.59375 10.15625 39.84375 
Q 16.40625 46.09375 25 46.09375 
Q 33.59375 46.09375 39.84375 39.84375 
Q 46.09375 33.59375 46.09375 23.4375 
z
M 37.5 23.4375 
Q 37.5 31.25 33.59375 35.15625 
Q 29.6875 39.0625 25 39.0625 
Q 20.3125 39.0625 16.40625 35.15625 
Q 12.5 31.25 12.5 23.4375 
Q 12.5 15.625 16.40625 11.71875 
Q 20.3125 7.8125 25 7.8125 
Q 29.6875 7.8125 33.59375 11.71875 
Q 37.5 15.625 37.5 23.4375 
z
" id="SimHei-111"/>
       <path d="M 44.921875 19.140625 
Q 44.921875 10.9375 39.25 5.859375 
Q 33.59375 0.78125 25 0.78125 
Q 16.40625 0.78125 10.15625 6.828125 
Q 3.90625 12.890625 3.90625 23.4375 
Q 3.90625 33.984375 10.15625 40.03125 
Q 16.40625 46.09375 25 46.09375 
Q 33.59375 46.09375 38.671875 41.59375 
Q 43.75 37.109375 43.75 30.859375 
L 35.15625 30.859375 
Q 34.765625 35.546875 31.828125 37.296875 
Q 28.90625 39.0625 25 39.0625 
Q 20.3125 39.0625 16.40625 35.34375 
Q 12.5 31.640625 12.5 23.4375 
Q 12.5 15.234375 16.40625 11.515625 
Q 20.3125 7.8125 25 7.8125 
Q 30.078125 7.8125 33.203125 10.546875 
Q 36.328125 13.28125 36.328125 19.140625 
z
" id="SimHei-99"/>
       <path d="M 44.140625 1.5625 
L 36.328125 1.5625 
L 36.328125 9.765625 
Q 33.203125 5.46875 29.484375 3.125 
Q 25.78125 0.78125 19.921875 0.78125 
Q 12.890625 0.78125 9.375 4.6875 
Q 5.859375 8.59375 5.859375 14.453125 
L 5.859375 45.3125 
L 13.671875 45.3125 
L 13.671875 17.1875 
Q 13.671875 12.5 16.015625 9.765625 
Q 18.359375 7.03125 22.265625 7.03125 
Q 27.34375 7.03125 31.828125 12.296875 
Q 36.328125 17.578125 36.328125 25.390625 
L 36.328125 45.3125 
L 44.140625 45.3125 
z
" id="SimHei-117"/>
       <path d="M 39.453125 37.5 
Q 32.03125 38.671875 26.953125 35.34375 
Q 21.875 32.03125 18.359375 23.828125 
L 18.359375 1.5625 
L 10.546875 1.5625 
L 10.546875 45.3125 
L 18.359375 45.3125 
L 18.359375 33.984375 
Q 21.875 40.234375 27.140625 43.15625 
Q 32.421875 46.09375 39.453125 46.09375 
z
" id="SimHei-114"/>
       <path d="M 44.140625 1.5625 
L 36.328125 1.5625 
L 36.328125 29.6875 
Q 36.328125 34.375 33.984375 37.109375 
Q 31.640625 39.84375 27.734375 39.84375 
Q 22.65625 39.84375 18.15625 34.5625 
Q 13.671875 29.296875 13.671875 21.484375 
L 13.671875 1.5625 
L 5.859375 1.5625 
L 5.859375 45.3125 
L 13.671875 45.3125 
L 13.671875 37.109375 
Q 16.796875 41.40625 20.5 43.75 
Q 24.21875 46.09375 30.078125 46.09375 
Q 37.109375 46.09375 40.625 42.1875 
Q 44.140625 38.28125 44.140625 32.421875 
z
" id="SimHei-110"/>
      </defs>
      <use xlink:href="#SimHei-108"/>
      <use x="50" xlink:href="#SimHei-97"/>
      <use x="100" xlink:href="#SimHei-98"/>
      <use x="150" xlink:href="#SimHei-101"/>
      <use x="200" xlink:href="#SimHei-108"/>
      <use x="250" xlink:href="#SimHei-95"/>
      <use x="300" xlink:href="#SimHei-111"/>
      <use x="350" xlink:href="#SimHei-99"/>
      <use x="400" xlink:href="#SimHei-99"/>
      <use x="450" xlink:href="#SimHei-117"/>
      <use x="500" xlink:href="#SimHei-114"/>
      <use x="550" xlink:href="#SimHei-114"/>
      <use x="600" xlink:href="#SimHei-101"/>
      <use x="650" xlink:href="#SimHei-110"/>
      <use x="700" xlink:href="#SimHei-99"/>
      <use x="750" xlink:href="#SimHei-101"/>
     </g>
    </g>
   </g>
   <g id="patch_93">
    <path d="M 57.6 307.584 
L 57.6 41.472 
" style="fill:none;stroke:#000000;stroke-linecap:square;stroke-linejoin:miter;stroke-width:0.8;"/>
   </g>
   <g id="patch_94">
    <path d="M 414.72 307.584 
L 414.72 41.472 
" style="fill:none;stroke:#000000;stroke-linecap:square;stroke-linejoin:miter;stroke-width:0.8;"/>
   </g>
   <g id="patch_95">
    <path d="M 57.6 307.584 
L 414.72 307.584 
" style="fill:none;stroke:#000000;stroke-linecap:square;stroke-linejoin:miter;stroke-width:0.8;"/>
   </g>
   <g id="patch_96">
    <path d="M 57.6 41.472 
L 414.72 41.472 
" style="fill:none;stroke:#000000;stroke-linecap:square;stroke-linejoin:miter;stroke-width:0.8;"/>
   </g>
   <g id="text_14">
    <!-- guest_label_distribution -->
    <g transform="translate(164.16 35.472)scale(0.12 -0.12)">
     <defs>
      <path d="M 46.875 38.671875 
Q 44.140625 39.453125 41.59375 39.640625 
Q 39.0625 39.84375 36.328125 39.0625 
Q 37.5 37.890625 38.28125 36.125 
Q 39.0625 34.375 39.0625 30.859375 
Q 39.0625 24.21875 34.5625 19.921875 
Q 30.078125 15.625 23.4375 15.625 
Q 21.875 15.625 19.328125 16.203125 
Q 16.796875 16.796875 15.234375 17.578125 
Q 14.0625 16.796875 13.671875 16.015625 
Q 13.28125 15.234375 13.28125 14.0625 
Q 13.28125 12.109375 16.015625 11.125 
Q 18.75 10.15625 25.78125 10.15625 
Q 37.109375 10.15625 41.203125 7.03125 
Q 45.3125 3.90625 45.3125 -0.78125 
Q 45.3125 -7.03125 39.25 -9.953125 
Q 33.203125 -12.890625 25 -12.890625 
Q 14.453125 -12.890625 9.375 -10.15625 
Q 4.296875 -7.421875 4.296875 -2.734375 
Q 4.296875 -0.390625 6.25 1.953125 
Q 8.203125 4.296875 11.328125 5.859375 
Q 8.984375 7.03125 7.609375 8.78125 
Q 6.25 10.546875 6.25 13.28125 
Q 6.25 15.625 8 17.375 
Q 9.765625 19.140625 12.109375 20.3125 
Q 10.15625 22.265625 8.984375 25 
Q 7.8125 27.734375 7.8125 30.859375 
Q 7.8125 37.5 12.296875 41.796875 
Q 16.796875 46.09375 23.4375 46.09375 
Q 26.953125 46.09375 29.484375 45.109375 
Q 32.03125 44.140625 33.984375 42.1875 
Q 37.109375 44.53125 40.234375 45.5 
Q 43.359375 46.484375 46.875 46.09375 
z
M 31.25 30.859375 
Q 31.25 34.765625 29.296875 37.109375 
Q 27.34375 39.453125 23.4375 39.453125 
Q 19.53125 39.453125 17.578125 37.109375 
Q 15.625 34.765625 15.625 30.859375 
Q 15.625 26.953125 17.578125 24.609375 
Q 19.53125 22.265625 23.4375 22.265625 
Q 27.34375 22.265625 29.296875 24.609375 
Q 31.25 26.953125 31.25 30.859375 
z
M 37.890625 -1.5625 
Q 37.890625 0 36.125 1.5625 
Q 34.375 3.125 27.34375 3.125 
Q 25.78125 3.125 23.046875 3.3125 
Q 20.3125 3.515625 16.796875 3.90625 
Q 13.671875 2.734375 12.5 1.171875 
Q 11.328125 -0.390625 11.328125 -1.953125 
Q 11.328125 -4.296875 14.453125 -5.859375 
Q 17.578125 -7.421875 25.390625 -7.421875 
Q 32.03125 -7.421875 34.953125 -5.65625 
Q 37.890625 -3.90625 37.890625 -1.5625 
z
" id="SimHei-103"/>
      <path d="M 43.359375 13.671875 
Q 43.359375 7.421875 38.46875 4.09375 
Q 33.59375 0.78125 26.171875 0.78125 
Q 16.796875 0.78125 11.71875 4.484375 
Q 6.640625 8.203125 6.640625 15.234375 
L 14.453125 15.234375 
Q 14.453125 10.546875 17.765625 8.984375 
Q 21.09375 7.421875 25.78125 7.421875 
Q 30.46875 7.421875 32.8125 9.171875 
Q 35.15625 10.9375 35.15625 13.671875 
Q 35.15625 15.625 33.203125 17.578125 
Q 31.25 19.53125 23.4375 20.703125 
Q 14.453125 21.875 11.125 25.1875 
Q 7.8125 28.515625 7.8125 33.984375 
Q 7.8125 38.671875 12.296875 42.375 
Q 16.796875 46.09375 25.390625 46.09375 
Q 33.203125 46.09375 37.6875 42.578125 
Q 42.1875 39.0625 42.1875 33.203125 
L 34.375 33.203125 
Q 34.375 36.71875 31.828125 38.078125 
Q 29.296875 39.453125 25.390625 39.453125 
Q 20.3125 39.453125 18.15625 37.6875 
Q 16.015625 35.9375 16.015625 33.59375 
Q 16.015625 30.859375 17.96875 29.296875 
Q 19.921875 27.734375 26.171875 26.953125 
Q 36.328125 25.390625 39.84375 22.0625 
Q 43.359375 18.75 43.359375 13.671875 
z
" id="SimHei-115"/>
      <path d="M 43.359375 2.734375 
Q 41.40625 1.953125 38.859375 1.359375 
Q 36.328125 0.78125 32.03125 0.78125 
Q 25 0.78125 20.703125 4.6875 
Q 16.40625 8.59375 16.40625 15.625 
L 16.40625 39.0625 
L 3.125 39.0625 
L 3.125 45.3125 
L 16.40625 45.3125 
L 16.40625 60.546875 
L 24.21875 60.546875 
L 24.21875 45.3125 
L 40.234375 45.3125 
L 40.234375 39.0625 
L 24.21875 39.0625 
L 24.21875 15.234375 
Q 24.21875 12.109375 25.78125 9.953125 
Q 27.34375 7.8125 31.640625 7.8125 
Q 35.9375 7.8125 38.671875 8.59375 
Q 41.40625 9.375 43.359375 10.546875 
z
" id="SimHei-116"/>
     </defs>
     <use xlink:href="#SimHei-103"/>
     <use x="50" xlink:href="#SimHei-117"/>
     <use x="100" xlink:href="#SimHei-101"/>
     <use x="150" xlink:href="#SimHei-115"/>
     <use x="200" xlink:href="#SimHei-116"/>
     <use x="250" xlink:href="#SimHei-95"/>
     <use x="300" xlink:href="#SimHei-108"/>
     <use x="350" xlink:href="#SimHei-97"/>
     <use x="400" xlink:href="#SimHei-98"/>
     <use x="450" xlink:href="#SimHei-101"/>
     <use x="500" xlink:href="#SimHei-108"/>
     <use x="550" xlink:href="#SimHei-95"/>
     <use x="600" xlink:href="#SimHei-100"/>
     <use x="650" xlink:href="#SimHei-105"/>
     <use x="700" xlink:href="#SimHei-115"/>
     <use x="750" xlink:href="#SimHei-116"/>
     <use x="800" xlink:href="#SimHei-114"/>
     <use x="850" xlink:href="#SimHei-105"/>
     <use x="900" xlink:href="#SimHei-98"/>
     <use x="950" xlink:href="#SimHei-117"/>
     <use x="1000" xlink:href="#SimHei-116"/>
     <use x="1050" xlink:href="#SimHei-105"/>
     <use x="1100" xlink:href="#SimHei-111"/>
     <use x="1150" xlink:href="#SimHei-110"/>
    </g>
   </g>
  </g>
 </g>
 <defs>
  <clipPath id="p33ff0f152e">
   <rect height="266.112" width="357.12" x="57.6" y="41.472"/>
  </clipPath>
 </defs>
</svg>
