<?xml version="1.0" encoding="utf-8" standalone="no"?>
<!DOCTYPE svg PUBLIC "-//W3C//DTD SVG 1.1//EN"
  "http://www.w3.org/Graphics/SVG/1.1/DTD/svg11.dtd">
<svg xmlns:xlink="http://www.w3.org/1999/xlink" width="576pt" height="432pt" viewBox="0 0 576 432" xmlns="http://www.w3.org/2000/svg" version="1.1">
 <metadata>
  <rdf:RDF xmlns:dc="http://purl.org/dc/elements/1.1/" xmlns:cc="http://creativecommons.org/ns#" xmlns:rdf="http://www.w3.org/1999/02/22-rdf-syntax-ns#">
   <cc:Work>
    <dc:type rdf:resource="http://purl.org/dc/dcmitype/StillImage"/>
    <dc:date>2023-12-26T13:14:41.006490</dc:date>
    <dc:format>image/svg+xml</dc:format>
    <dc:creator>
     <cc:Agent>
      <dc:title>Matplotlib v3.7.1, https://matplotlib.org/</dc:title>
     </cc:Agent>
    </dc:creator>
   </cc:Work>
  </rdf:RDF>
 </metadata>
 <defs>
  <style type="text/css">*{stroke-linejoin: round; stroke-linecap: butt}</style>
 </defs>
 <g id="figure_1">
  <g id="patch_1">
   <path d="M 0 432 
L 576 432 
L 576 0 
L 0 0 
z
" style="fill: #ffffff"/>
  </g>
  <g id="axes_1">
   <g id="patch_2">
    <path d="M 72 384.48 
L 518.4 384.48 
L 518.4 51.84 
L 72 51.84 
z
" style="fill: #ffffff"/>
   </g>
   <g id="matplotlib.axis_1">
    <g id="xtick_1">
     <g id="line2d_1">
      <defs>
       <path id="m7468ea4998" d="M 0 0 
L 0 3.5 
" style="stroke: #000000; stroke-width: 0.8"/>
      </defs>
      <g>
       <use xlink:href="#m7468ea4998" x="92.290909" y="384.48" style="stroke: #000000; stroke-width: 0.8"/>
      </g>
     </g>
     <g id="text_1">
      <!-- 0 -->
      <g transform="translate(89.109659 399.078438) scale(0.1 -0.1)">
       <defs>
        <path id="DejaVuSans-30" d="M 2034 4250 
Q 1547 4250 1301 3770 
Q 1056 3291 1056 2328 
Q 1056 1369 1301 889 
Q 1547 409 2034 409 
Q 2525 409 2770 889 
Q 3016 1369 3016 2328 
Q 3016 3291 2770 3770 
Q 2525 4250 2034 4250 
z
M 2034 4750 
Q 2819 4750 3233 4129 
Q 3647 3509 3647 2328 
Q 3647 1150 3233 529 
Q 2819 -91 2034 -91 
Q 1250 -91 836 529 
Q 422 1150 422 2328 
Q 422 3509 836 4129 
Q 1250 4750 2034 4750 
z
" transform="scale(0.015625)"/>
       </defs>
       <use xlink:href="#DejaVuSans-30"/>
      </g>
     </g>
    </g>
    <g id="xtick_2">
     <g id="line2d_2">
      <g>
       <use xlink:href="#m7468ea4998" x="190.314625" y="384.48" style="stroke: #000000; stroke-width: 0.8"/>
      </g>
     </g>
     <g id="text_2">
      <!-- 50 -->
      <g transform="translate(183.952125 399.078438) scale(0.1 -0.1)">
       <defs>
        <path id="DejaVuSans-35" d="M 691 4666 
L 3169 4666 
L 3169 4134 
L 1269 4134 
L 1269 2991 
Q 1406 3038 1543 3061 
Q 1681 3084 1819 3084 
Q 2600 3084 3056 2656 
Q 3513 2228 3513 1497 
Q 3513 744 3044 326 
Q 2575 -91 1722 -91 
Q 1428 -91 1123 -41 
Q 819 9 494 109 
L 494 744 
Q 775 591 1075 516 
Q 1375 441 1709 441 
Q 2250 441 2565 725 
Q 2881 1009 2881 1497 
Q 2881 1984 2565 2268 
Q 2250 2553 1709 2553 
Q 1456 2553 1204 2497 
Q 953 2441 691 2322 
L 691 4666 
z
" transform="scale(0.015625)"/>
       </defs>
       <use xlink:href="#DejaVuSans-35"/>
       <use xlink:href="#DejaVuSans-30" x="63.623047"/>
      </g>
     </g>
    </g>
    <g id="xtick_3">
     <g id="line2d_3">
      <g>
       <use xlink:href="#m7468ea4998" x="288.33834" y="384.48" style="stroke: #000000; stroke-width: 0.8"/>
      </g>
     </g>
     <g id="text_3">
      <!-- 100 -->
      <g transform="translate(278.79459 399.078438) scale(0.1 -0.1)">
       <defs>
        <path id="DejaVuSans-31" d="M 794 531 
L 1825 531 
L 1825 4091 
L 703 3866 
L 703 4441 
L 1819 4666 
L 2450 4666 
L 2450 531 
L 3481 531 
L 3481 0 
L 794 0 
L 794 531 
z
" transform="scale(0.015625)"/>
       </defs>
       <use xlink:href="#DejaVuSans-31"/>
       <use xlink:href="#DejaVuSans-30" x="63.623047"/>
       <use xlink:href="#DejaVuSans-30" x="127.246094"/>
      </g>
     </g>
    </g>
    <g id="xtick_4">
     <g id="line2d_4">
      <g>
       <use xlink:href="#m7468ea4998" x="386.362055" y="384.48" style="stroke: #000000; stroke-width: 0.8"/>
      </g>
     </g>
     <g id="text_4">
      <!-- 150 -->
      <g transform="translate(376.818305 399.078438) scale(0.1 -0.1)">
       <use xlink:href="#DejaVuSans-31"/>
       <use xlink:href="#DejaVuSans-35" x="63.623047"/>
       <use xlink:href="#DejaVuSans-30" x="127.246094"/>
      </g>
     </g>
    </g>
    <g id="xtick_5">
     <g id="line2d_5">
      <g>
       <use xlink:href="#m7468ea4998" x="484.385771" y="384.48" style="stroke: #000000; stroke-width: 0.8"/>
      </g>
     </g>
     <g id="text_5">
      <!-- 200 -->
      <g transform="translate(474.842021 399.078438) scale(0.1 -0.1)">
       <defs>
        <path id="DejaVuSans-32" d="M 1228 531 
L 3431 531 
L 3431 0 
L 469 0 
L 469 531 
Q 828 903 1448 1529 
Q 2069 2156 2228 2338 
Q 2531 2678 2651 2914 
Q 2772 3150 2772 3378 
Q 2772 3750 2511 3984 
Q 2250 4219 1831 4219 
Q 1534 4219 1204 4116 
Q 875 4013 500 3803 
L 500 4441 
Q 881 4594 1212 4672 
Q 1544 4750 1819 4750 
Q 2544 4750 2975 4387 
Q 3406 4025 3406 3419 
Q 3406 3131 3298 2873 
Q 3191 2616 2906 2266 
Q 2828 2175 2409 1742 
Q 1991 1309 1228 531 
z
" transform="scale(0.015625)"/>
       </defs>
       <use xlink:href="#DejaVuSans-32"/>
       <use xlink:href="#DejaVuSans-30" x="63.623047"/>
       <use xlink:href="#DejaVuSans-30" x="127.246094"/>
      </g>
     </g>
    </g>
    <g id="text_6">
     <!-- epoch -->
     <g transform="translate(279.971875 412.756563) scale(0.1 -0.1)">
      <defs>
       <path id="DejaVuSans-65" d="M 3597 1894 
L 3597 1613 
L 953 1613 
Q 991 1019 1311 708 
Q 1631 397 2203 397 
Q 2534 397 2845 478 
Q 3156 559 3463 722 
L 3463 178 
Q 3153 47 2828 -22 
Q 2503 -91 2169 -91 
Q 1331 -91 842 396 
Q 353 884 353 1716 
Q 353 2575 817 3079 
Q 1281 3584 2069 3584 
Q 2775 3584 3186 3129 
Q 3597 2675 3597 1894 
z
M 3022 2063 
Q 3016 2534 2758 2815 
Q 2500 3097 2075 3097 
Q 1594 3097 1305 2825 
Q 1016 2553 972 2059 
L 3022 2063 
z
" transform="scale(0.015625)"/>
       <path id="DejaVuSans-70" d="M 1159 525 
L 1159 -1331 
L 581 -1331 
L 581 3500 
L 1159 3500 
L 1159 2969 
Q 1341 3281 1617 3432 
Q 1894 3584 2278 3584 
Q 2916 3584 3314 3078 
Q 3713 2572 3713 1747 
Q 3713 922 3314 415 
Q 2916 -91 2278 -91 
Q 1894 -91 1617 61 
Q 1341 213 1159 525 
z
M 3116 1747 
Q 3116 2381 2855 2742 
Q 2594 3103 2138 3103 
Q 1681 3103 1420 2742 
Q 1159 2381 1159 1747 
Q 1159 1113 1420 752 
Q 1681 391 2138 391 
Q 2594 391 2855 752 
Q 3116 1113 3116 1747 
z
" transform="scale(0.015625)"/>
       <path id="DejaVuSans-6f" d="M 1959 3097 
Q 1497 3097 1228 2736 
Q 959 2375 959 1747 
Q 959 1119 1226 758 
Q 1494 397 1959 397 
Q 2419 397 2687 759 
Q 2956 1122 2956 1747 
Q 2956 2369 2687 2733 
Q 2419 3097 1959 3097 
z
M 1959 3584 
Q 2709 3584 3137 3096 
Q 3566 2609 3566 1747 
Q 3566 888 3137 398 
Q 2709 -91 1959 -91 
Q 1206 -91 779 398 
Q 353 888 353 1747 
Q 353 2609 779 3096 
Q 1206 3584 1959 3584 
z
" transform="scale(0.015625)"/>
       <path id="DejaVuSans-63" d="M 3122 3366 
L 3122 2828 
Q 2878 2963 2633 3030 
Q 2388 3097 2138 3097 
Q 1578 3097 1268 2742 
Q 959 2388 959 1747 
Q 959 1106 1268 751 
Q 1578 397 2138 397 
Q 2388 397 2633 464 
Q 2878 531 3122 666 
L 3122 134 
Q 2881 22 2623 -34 
Q 2366 -91 2075 -91 
Q 1284 -91 818 406 
Q 353 903 353 1747 
Q 353 2603 823 3093 
Q 1294 3584 2113 3584 
Q 2378 3584 2631 3529 
Q 2884 3475 3122 3366 
z
" transform="scale(0.015625)"/>
       <path id="DejaVuSans-68" d="M 3513 2113 
L 3513 0 
L 2938 0 
L 2938 2094 
Q 2938 2591 2744 2837 
Q 2550 3084 2163 3084 
Q 1697 3084 1428 2787 
Q 1159 2491 1159 1978 
L 1159 0 
L 581 0 
L 581 4863 
L 1159 4863 
L 1159 2956 
Q 1366 3272 1645 3428 
Q 1925 3584 2291 3584 
Q 2894 3584 3203 3211 
Q 3513 2838 3513 2113 
z
" transform="scale(0.015625)"/>
      </defs>
      <use xlink:href="#DejaVuSans-65"/>
      <use xlink:href="#DejaVuSans-70" x="61.523438"/>
      <use xlink:href="#DejaVuSans-6f" x="125"/>
      <use xlink:href="#DejaVuSans-63" x="186.181641"/>
      <use xlink:href="#DejaVuSans-68" x="241.162109"/>
     </g>
    </g>
   </g>
   <g id="matplotlib.axis_2">
    <g id="ytick_1">
     <g id="line2d_6">
      <defs>
       <path id="m2e7841dd89" d="M 0 0 
L -3.5 0 
" style="stroke: #000000; stroke-width: 0.8"/>
      </defs>
      <g>
       <use xlink:href="#m2e7841dd89" x="72" y="384.48" style="stroke: #000000; stroke-width: 0.8"/>
      </g>
     </g>
     <g id="text_7">
      <!-- 0 -->
      <g transform="translate(58.6375 388.279219) scale(0.1 -0.1)">
       <use xlink:href="#DejaVuSans-30"/>
      </g>
     </g>
    </g>
    <g id="ytick_2">
     <g id="line2d_7">
      <g>
       <use xlink:href="#m2e7841dd89" x="72" y="317.952" style="stroke: #000000; stroke-width: 0.8"/>
      </g>
     </g>
     <g id="text_8">
      <!-- 20 -->
      <g transform="translate(52.275 321.751219) scale(0.1 -0.1)">
       <use xlink:href="#DejaVuSans-32"/>
       <use xlink:href="#DejaVuSans-30" x="63.623047"/>
      </g>
     </g>
    </g>
    <g id="ytick_3">
     <g id="line2d_8">
      <g>
       <use xlink:href="#m2e7841dd89" x="72" y="251.424" style="stroke: #000000; stroke-width: 0.8"/>
      </g>
     </g>
     <g id="text_9">
      <!-- 40 -->
      <g transform="translate(52.275 255.223219) scale(0.1 -0.1)">
       <defs>
        <path id="DejaVuSans-34" d="M 2419 4116 
L 825 1625 
L 2419 1625 
L 2419 4116 
z
M 2253 4666 
L 3047 4666 
L 3047 1625 
L 3713 1625 
L 3713 1100 
L 3047 1100 
L 3047 0 
L 2419 0 
L 2419 1100 
L 313 1100 
L 313 1709 
L 2253 4666 
z
" transform="scale(0.015625)"/>
       </defs>
       <use xlink:href="#DejaVuSans-34"/>
       <use xlink:href="#DejaVuSans-30" x="63.623047"/>
      </g>
     </g>
    </g>
    <g id="ytick_4">
     <g id="line2d_9">
      <g>
       <use xlink:href="#m2e7841dd89" x="72" y="184.896" style="stroke: #000000; stroke-width: 0.8"/>
      </g>
     </g>
     <g id="text_10">
      <!-- 60 -->
      <g transform="translate(52.275 188.695219) scale(0.1 -0.1)">
       <defs>
        <path id="DejaVuSans-36" d="M 2113 2584 
Q 1688 2584 1439 2293 
Q 1191 2003 1191 1497 
Q 1191 994 1439 701 
Q 1688 409 2113 409 
Q 2538 409 2786 701 
Q 3034 994 3034 1497 
Q 3034 2003 2786 2293 
Q 2538 2584 2113 2584 
z
M 3366 4563 
L 3366 3988 
Q 3128 4100 2886 4159 
Q 2644 4219 2406 4219 
Q 1781 4219 1451 3797 
Q 1122 3375 1075 2522 
Q 1259 2794 1537 2939 
Q 1816 3084 2150 3084 
Q 2853 3084 3261 2657 
Q 3669 2231 3669 1497 
Q 3669 778 3244 343 
Q 2819 -91 2113 -91 
Q 1303 -91 875 529 
Q 447 1150 447 2328 
Q 447 3434 972 4092 
Q 1497 4750 2381 4750 
Q 2619 4750 2861 4703 
Q 3103 4656 3366 4563 
z
" transform="scale(0.015625)"/>
       </defs>
       <use xlink:href="#DejaVuSans-36"/>
       <use xlink:href="#DejaVuSans-30" x="63.623047"/>
      </g>
     </g>
    </g>
    <g id="ytick_5">
     <g id="line2d_10">
      <g>
       <use xlink:href="#m2e7841dd89" x="72" y="118.368" style="stroke: #000000; stroke-width: 0.8"/>
      </g>
     </g>
     <g id="text_11">
      <!-- 80 -->
      <g transform="translate(52.275 122.167219) scale(0.1 -0.1)">
       <defs>
        <path id="DejaVuSans-38" d="M 2034 2216 
Q 1584 2216 1326 1975 
Q 1069 1734 1069 1313 
Q 1069 891 1326 650 
Q 1584 409 2034 409 
Q 2484 409 2743 651 
Q 3003 894 3003 1313 
Q 3003 1734 2745 1975 
Q 2488 2216 2034 2216 
z
M 1403 2484 
Q 997 2584 770 2862 
Q 544 3141 544 3541 
Q 544 4100 942 4425 
Q 1341 4750 2034 4750 
Q 2731 4750 3128 4425 
Q 3525 4100 3525 3541 
Q 3525 3141 3298 2862 
Q 3072 2584 2669 2484 
Q 3125 2378 3379 2068 
Q 3634 1759 3634 1313 
Q 3634 634 3220 271 
Q 2806 -91 2034 -91 
Q 1263 -91 848 271 
Q 434 634 434 1313 
Q 434 1759 690 2068 
Q 947 2378 1403 2484 
z
M 1172 3481 
Q 1172 3119 1398 2916 
Q 1625 2713 2034 2713 
Q 2441 2713 2670 2916 
Q 2900 3119 2900 3481 
Q 2900 3844 2670 4047 
Q 2441 4250 2034 4250 
Q 1625 4250 1398 4047 
Q 1172 3844 1172 3481 
z
" transform="scale(0.015625)"/>
       </defs>
       <use xlink:href="#DejaVuSans-38"/>
       <use xlink:href="#DejaVuSans-30" x="63.623047"/>
      </g>
     </g>
    </g>
    <g id="ytick_6">
     <g id="line2d_11">
      <g>
       <use xlink:href="#m2e7841dd89" x="72" y="51.84" style="stroke: #000000; stroke-width: 0.8"/>
      </g>
     </g>
     <g id="text_12">
      <!-- 100 -->
      <g transform="translate(45.9125 55.639219) scale(0.1 -0.1)">
       <use xlink:href="#DejaVuSans-31"/>
       <use xlink:href="#DejaVuSans-30" x="63.623047"/>
       <use xlink:href="#DejaVuSans-30" x="127.246094"/>
      </g>
     </g>
    </g>
    <g id="text_13">
     <!-- rate -->
     <g transform="translate(39.832812 228.31625) rotate(-90) scale(0.1 -0.1)">
      <defs>
       <path id="DejaVuSans-72" d="M 2631 2963 
Q 2534 3019 2420 3045 
Q 2306 3072 2169 3072 
Q 1681 3072 1420 2755 
Q 1159 2438 1159 1844 
L 1159 0 
L 581 0 
L 581 3500 
L 1159 3500 
L 1159 2956 
Q 1341 3275 1631 3429 
Q 1922 3584 2338 3584 
Q 2397 3584 2469 3576 
Q 2541 3569 2628 3553 
L 2631 2963 
z
" transform="scale(0.015625)"/>
       <path id="DejaVuSans-61" d="M 2194 1759 
Q 1497 1759 1228 1600 
Q 959 1441 959 1056 
Q 959 750 1161 570 
Q 1363 391 1709 391 
Q 2188 391 2477 730 
Q 2766 1069 2766 1631 
L 2766 1759 
L 2194 1759 
z
M 3341 1997 
L 3341 0 
L 2766 0 
L 2766 531 
Q 2569 213 2275 61 
Q 1981 -91 1556 -91 
Q 1019 -91 701 211 
Q 384 513 384 1019 
Q 384 1609 779 1909 
Q 1175 2209 1959 2209 
L 2766 2209 
L 2766 2266 
Q 2766 2663 2505 2880 
Q 2244 3097 1772 3097 
Q 1472 3097 1187 3025 
Q 903 2953 641 2809 
L 641 3341 
Q 956 3463 1253 3523 
Q 1550 3584 1831 3584 
Q 2591 3584 2966 3190 
Q 3341 2797 3341 1997 
z
" transform="scale(0.015625)"/>
       <path id="DejaVuSans-74" d="M 1172 4494 
L 1172 3500 
L 2356 3500 
L 2356 3053 
L 1172 3053 
L 1172 1153 
Q 1172 725 1289 603 
Q 1406 481 1766 481 
L 2356 481 
L 2356 0 
L 1766 0 
Q 1100 0 847 248 
Q 594 497 594 1153 
L 594 3053 
L 172 3053 
L 172 3500 
L 594 3500 
L 594 4494 
L 1172 4494 
z
" transform="scale(0.015625)"/>
      </defs>
      <use xlink:href="#DejaVuSans-72"/>
      <use xlink:href="#DejaVuSans-61" x="41.113281"/>
      <use xlink:href="#DejaVuSans-74" x="102.392578"/>
      <use xlink:href="#DejaVuSans-65" x="141.601562"/>
     </g>
    </g>
   </g>
   <g id="line2d_12">
    <path d="M 92.290909 248.640698 
L 94.251383 260.004545 
L 96.211858 249.484873 
L 98.172332 236.000343 
L 100.132806 246.730173 
L 102.093281 196.611997 
L 104.053755 234.61949 
L 106.014229 159.190708 
L 107.974704 192.357521 
L 109.935178 181.358439 
L 111.895652 100.570319 
L 113.856126 151.233787 
L 115.816601 180.915268 
L 117.777075 148.362955 
L 119.737549 204.766794 
L 121.698024 163.725501 
L 123.658498 144.894233 
L 125.618972 111.304197 
L 127.579447 182.149713 
L 129.539921 169.812312 
L 131.500395 149.760748 
L 133.46087 187.85289 
L 135.421344 229.703526 
L 137.381818 141.051408 
L 139.342292 170.069573 
L 141.302767 147.160069 
L 143.263241 176.409191 
L 145.223715 192.666986 
L 147.18419 189.3776 
L 149.144664 153.972855 
L 151.105138 113.417965 
L 153.065613 213.874105 
L 155.026087 155.106686 
L 156.986561 159.318412 
L 158.947036 158.983823 
L 160.90751 112.543678 
L 162.867984 166.575599 
L 164.828458 172.690224 
L 166.788933 139.199392 
L 168.749407 152.960205 
L 170.709881 156.511229 
L 172.670356 172.574296 
L 174.63083 160.259013 
L 176.591304 188.234785 
L 178.551779 160.65253 
L 180.512253 151.270307 
L 182.472727 111.283335 
L 184.433202 147.754432 
L 186.393676 167.519499 
L 188.35415 164.661635 
L 190.314625 179.800635 
L 192.275099 162.305655 
L 194.235573 129.852648 
L 196.196047 143.980128 
L 198.156522 203.034742 
L 200.116996 157.462311 
L 202.07747 147.506662 
L 204.037945 129.262523 
L 205.998419 137.615754 
L 207.958893 72.244578 
L 209.919368 165.166843 
L 211.879842 116.577806 
L 215.800791 175.457779 
L 217.761265 148.870574 
L 219.721739 197.030031 
L 221.682213 135.036164 
L 223.642688 146.181426 
L 225.603162 181.607325 
L 227.563636 145.672132 
L 229.524111 180.839488 
L 231.484585 156.842088 
L 233.445059 158.199858 
L 235.405534 193.516884 
L 237.366008 190.097332 
L 239.326482 144.061846 
L 241.286957 178.908673 
L 243.247431 176.124673 
L 245.207905 175.569025 
L 247.168379 183.653739 
L 249.128854 146.399452 
L 251.089328 175.686401 
L 253.049802 165.422328 
L 255.010277 158.743286 
L 256.970751 112.409807 
L 258.931225 160.791629 
L 260.8917 115.275868 
L 262.852174 157.642168 
L 264.812648 193.294086 
L 266.773123 156.696822 
L 268.733597 134.304301 
L 270.694071 173.891258 
L 272.654545 175.479033 
L 274.61502 155.24543 
L 276.575494 119.185921 
L 278.535968 149.074084 
L 280.496443 173.09114 
L 282.456917 151.053651 
L 284.417391 143.824583 
L 286.377866 184.908448 
L 288.33834 119.758839 
L 290.298814 179.255317 
L 292.259289 129.296251 
L 294.219763 168.930158 
L 296.180237 176.582969 
L 298.140711 141.789463 
L 300.101186 181.836644 
L 302.06166 58.357076 
L 304.022134 174.323821 
L 305.982609 159.569988 
L 307.943083 149.227116 
L 309.903557 175.302692 
L 311.864032 199.477957 
L 313.824506 141.176853 
L 315.78498 176.64238 
L 317.745455 142.819243 
L 319.705929 113.367563 
L 321.666403 174.31575 
L 323.626877 149.97649 
L 325.587352 131.294066 
L 327.547826 231.046387 
L 329.5083 117.061443 
L 331.468775 147.507728 
L 333.429249 163.079595 
L 335.389723 131.794655 
L 337.350198 148.841008 
L 339.310672 139.398384 
L 341.271146 112.050906 
L 343.231621 145.056833 
L 345.192095 150.623639 
L 347.152569 127.648025 
L 349.113043 86.434007 
L 351.073518 156.673397 
L 353.033992 148.033213 
L 354.994466 188.045221 
L 356.954941 168.9648 
L 358.915415 191.521696 
L 360.875889 178.988983 
L 362.836364 121.496829 
L 364.796838 147.739052 
L 366.757312 145.674848 
L 368.717787 82.899631 
L 370.678261 101.332255 
L 372.638735 159.952467 
L 374.599209 125.107746 
L 376.559684 162.600882 
L 378.520158 185.446052 
L 380.480632 119.331517 
L 382.441107 165.766002 
L 384.401581 169.246145 
L 386.362055 115.900203 
L 388.32253 119.5634 
L 392.243478 158.106999 
L 394.203953 137.707192 
L 396.164427 144.059486 
L 398.124901 143.845952 
L 400.085375 152.200045 
L 402.04585 184.388152 
L 404.006324 152.731215 
L 405.966798 177.860341 
L 407.927273 143.484843 
L 409.887747 210.859302 
L 411.848221 152.411168 
L 413.808696 154.904674 
L 415.76917 174.306906 
L 417.729644 160.905553 
L 419.690119 148.692824 
L 421.650593 159.167233 
L 423.611067 150.377722 
L 425.571542 176.954192 
L 427.532016 142.850915 
L 429.49249 173.019687 
L 431.452964 128.378872 
L 433.413439 168.966475 
L 435.373913 175.017222 
L 437.334387 137.844413 
L 439.294862 168.778827 
L 441.255336 142.323475 
L 443.21581 162.37306 
L 445.176285 171.637452 
L 447.136759 110.842792 
L 449.097233 155.898493 
L 451.057708 143.069017 
L 453.018182 177.204093 
L 454.978656 188.059115 
L 456.93913 194.576547 
L 458.899605 134.98523 
L 460.860079 130.429575 
L 462.820553 127.923964 
L 464.781028 168.51682 
L 466.741502 148.815427 
L 468.701976 181.52954 
L 470.662451 140.263941 
L 472.622925 121.896539 
L 474.583399 172.456439 
L 476.543874 177.735987 
L 478.504348 130.605143 
L 480.464822 58.178641 
L 482.425296 118.527123 
L 484.385771 144.938366 
L 486.346245 149.833711 
L 488.306719 145.524963 
L 490.267194 138.604065 
L 492.227668 192.219488 
L 494.188142 172.716428 
L 496.148617 174.183668 
L 498.109091 152.933151 
L 498.109091 152.933151 
" clip-path="url(#p526fa42724)" style="fill: none; stroke: #0000ff; stroke-width: 1.5; stroke-linecap: square"/>
   </g>
   <g id="line2d_13">
    <path d="M 92.290909 258.194505 
L 94.251383 251.816833 
L 96.211858 226.266412 
L 98.172332 222.49608 
L 100.132806 234.172132 
L 102.093281 230.695796 
L 104.053755 229.91423 
L 106.014229 237.300796 
L 107.974704 161.587344 
L 109.935178 218.753233 
L 111.895652 213.310882 
L 113.856126 218.132693 
L 115.816601 197.724004 
L 117.777075 184.535017 
L 119.737549 186.956283 
L 121.698024 190.007188 
L 123.658498 184.653991 
L 125.618972 178.64725 
L 127.579447 212.158499 
L 129.539921 215.839804 
L 131.500395 186.081477 
L 133.46087 194.171228 
L 135.421344 213.680392 
L 137.381818 191.965983 
L 139.342292 186.827742 
L 143.263241 190.88032 
L 145.223715 192.562807 
L 147.18419 152.675484 
L 149.144664 184.860166 
L 151.105138 187.380484 
L 153.065613 186.74332 
L 155.026087 184.147146 
L 156.986561 184.850014 
L 158.947036 190.255973 
L 160.90751 209.828557 
L 162.867984 182.772118 
L 164.828458 188.992432 
L 166.788933 189.462225 
L 168.749407 192.891699 
L 170.709881 176.793001 
L 172.670356 188.786994 
L 174.63083 180.272852 
L 176.591304 189.071105 
L 178.551779 178.009858 
L 180.512253 181.211599 
L 182.472727 184.098217 
L 184.433202 191.791291 
L 186.393676 176.461775 
L 188.35415 179.936715 
L 190.314625 191.202613 
L 192.275099 185.122223 
L 194.235573 175.573467 
L 196.196047 190.293482 
L 198.156522 190.517789 
L 200.116996 184.847451 
L 202.07747 177.284568 
L 204.037945 180.281379 
L 205.998419 192.178185 
L 207.958893 193.717589 
L 209.919368 175.30811 
L 211.879842 178.391245 
L 213.840316 179.622276 
L 215.800791 181.567976 
L 217.761265 175.403647 
L 219.721739 185.479082 
L 221.682213 184.324719 
L 223.642688 187.72176 
L 225.603162 174.246987 
L 227.563636 185.497875 
L 229.524111 191.634376 
L 231.484585 189.605892 
L 233.445059 183.465203 
L 235.405534 176.841753 
L 237.366008 188.232602 
L 239.326482 190.539513 
L 241.286957 173.835146 
L 243.247431 174.927231 
L 245.207905 181.086535 
L 247.168379 184.219919 
L 249.128854 175.632649 
L 251.089328 176.877384 
L 253.049802 190.906003 
L 255.010277 185.956869 
L 256.970751 167.064159 
L 258.931225 176.265346 
L 260.8917 178.130659 
L 262.852174 187.3455 
L 264.812648 160.718362 
L 266.773123 177.064068 
L 268.733597 178.76663 
L 270.694071 182.737502 
L 272.654545 177.542692 
L 274.61502 190.77288 
L 276.575494 188.71082 
L 278.535968 187.412562 
L 280.496443 173.950694 
L 282.456917 179.839325 
L 284.417391 180.49839 
L 286.377866 187.151418 
L 288.33834 172.690339 
L 290.298814 176.948304 
L 292.259289 181.479837 
L 294.219763 192.843023 
L 296.180237 174.703152 
L 298.140711 177.05063 
L 300.101186 183.716525 
L 302.06166 191.550513 
L 304.022134 175.782623 
L 305.982609 176.720317 
L 307.943083 188.693411 
L 309.903557 184.390551 
L 311.864032 176.955626 
L 313.824506 177.693161 
L 315.78498 182.81615 
L 317.745455 181.403054 
L 319.705929 174.996983 
L 321.666403 179.294539 
L 323.626877 189.021731 
L 325.587352 189.476563 
L 327.547826 170.528694 
L 329.5083 179.295351 
L 331.468775 181.787753 
L 333.429249 189.644391 
L 335.389723 183.050837 
L 337.350198 180.418904 
L 339.310672 191.594545 
L 341.271146 190.577466 
L 343.231621 176.49129 
L 345.192095 182.685273 
L 347.152569 189.770471 
L 349.113043 189.0691 
L 351.073518 176.339362 
L 353.033992 181.474761 
L 354.994466 188.060067 
L 356.954941 179.181643 
L 358.915415 176.033768 
L 360.875889 182.034571 
L 362.836364 190.374096 
L 364.796838 180.062236 
L 366.757312 168.886736 
L 368.717787 181.997442 
L 370.678261 191.260298 
L 372.638735 188.023827 
L 374.599209 177.340604 
L 376.559684 185.172295 
L 378.520158 190.4179 
L 380.480632 190.942878 
L 382.441107 169.892 
L 384.401581 177.135331 
L 386.362055 176.041165 
L 388.32253 187.511221 
L 390.283004 171.602201 
L 392.243478 188.850922 
L 394.203953 186.660841 
L 396.164427 187.890171 
L 398.124901 164.672142 
L 400.085375 182.2771 
L 402.04585 180.007787 
L 404.006324 180.904444 
L 405.966798 178.650765 
L 407.927273 190.300664 
L 409.887747 189.916079 
L 411.848221 190.361966 
L 413.808696 173.946393 
L 415.76917 179.555658 
L 417.729644 180.194864 
L 419.690119 192.564064 
L 421.650593 175.423835 
L 423.611067 178.706991 
L 425.571542 183.454696 
L 427.532016 190.876196 
L 429.49249 179.130671 
L 431.452964 179.519772 
L 433.413439 183.821122 
L 435.373913 183.744924 
L 437.334387 130.68808 
L 439.294862 178.426128 
L 441.255336 192.036725 
L 443.21581 190.21505 
L 445.176285 175.685195 
L 447.136759 177.487596 
L 449.097233 181.863647 
L 451.057708 181.583469 
L 453.018182 177.628484 
L 454.978656 185.996091 
L 456.93913 181.191106 
L 458.899605 182.873353 
L 460.860079 174.057741 
L 462.820553 180.127484 
L 464.781028 179.467912 
L 466.741502 182.880548 
L 468.701976 177.773598 
L 470.662451 178.577383 
L 472.622925 187.98869 
L 474.583399 180.494684 
L 476.543874 176.529878 
L 478.504348 180.919646 
L 480.464822 191.487181 
L 482.425296 189.791713 
L 484.385771 175.732678 
L 486.346245 176.225273 
L 488.306719 190.017022 
L 492.227668 176.451623 
L 494.188142 179.562852 
L 496.148617 183.979509 
L 498.109091 192.722298 
L 498.109091 192.722298 
" clip-path="url(#p526fa42724)" style="fill: none; stroke: #008000; stroke-width: 1.5; stroke-linecap: square"/>
   </g>
   <g id="patch_3">
    <path d="M 72 384.48 
L 72 51.84 
" style="fill: none; stroke: #000000; stroke-width: 0.8; stroke-linejoin: miter; stroke-linecap: square"/>
   </g>
   <g id="patch_4">
    <path d="M 518.4 384.48 
L 518.4 51.84 
" style="fill: none; stroke: #000000; stroke-width: 0.8; stroke-linejoin: miter; stroke-linecap: square"/>
   </g>
   <g id="patch_5">
    <path d="M 72 384.48 
L 518.4 384.48 
" style="fill: none; stroke: #000000; stroke-width: 0.8; stroke-linejoin: miter; stroke-linecap: square"/>
   </g>
   <g id="patch_6">
    <path d="M 72 51.84 
L 518.4 51.84 
" style="fill: none; stroke: #000000; stroke-width: 0.8; stroke-linejoin: miter; stroke-linecap: square"/>
   </g>
   <g id="legend_1">
    <g id="patch_7">
     <path d="M 79 89.19625 
L 160.740625 89.19625 
Q 162.740625 89.19625 162.740625 87.19625 
L 162.740625 58.84 
Q 162.740625 56.84 160.740625 56.84 
L 79 56.84 
Q 77 56.84 77 58.84 
L 77 87.19625 
Q 77 89.19625 79 89.19625 
z
" style="fill: #ffffff; opacity: 0.8; stroke: #cccccc; stroke-linejoin: miter"/>
    </g>
    <g id="line2d_14">
     <path d="M 81 64.938437 
L 91 64.938437 
L 101 64.938437 
" style="fill: none; stroke: #0000ff; stroke-width: 1.5; stroke-linecap: square"/>
    </g>
    <g id="text_14">
     <!-- train mAP -->
     <g transform="translate(109 68.438437) scale(0.1 -0.1)">
      <defs>
       <path id="DejaVuSans-69" d="M 603 3500 
L 1178 3500 
L 1178 0 
L 603 0 
L 603 3500 
z
M 603 4863 
L 1178 4863 
L 1178 4134 
L 603 4134 
L 603 4863 
z
" transform="scale(0.015625)"/>
       <path id="DejaVuSans-6e" d="M 3513 2113 
L 3513 0 
L 2938 0 
L 2938 2094 
Q 2938 2591 2744 2837 
Q 2550 3084 2163 3084 
Q 1697 3084 1428 2787 
Q 1159 2491 1159 1978 
L 1159 0 
L 581 0 
L 581 3500 
L 1159 3500 
L 1159 2956 
Q 1366 3272 1645 3428 
Q 1925 3584 2291 3584 
Q 2894 3584 3203 3211 
Q 3513 2838 3513 2113 
z
" transform="scale(0.015625)"/>
       <path id="DejaVuSans-20" transform="scale(0.015625)"/>
       <path id="DejaVuSans-6d" d="M 3328 2828 
Q 3544 3216 3844 3400 
Q 4144 3584 4550 3584 
Q 5097 3584 5394 3201 
Q 5691 2819 5691 2113 
L 5691 0 
L 5113 0 
L 5113 2094 
Q 5113 2597 4934 2840 
Q 4756 3084 4391 3084 
Q 3944 3084 3684 2787 
Q 3425 2491 3425 1978 
L 3425 0 
L 2847 0 
L 2847 2094 
Q 2847 2600 2669 2842 
Q 2491 3084 2119 3084 
Q 1678 3084 1418 2786 
Q 1159 2488 1159 1978 
L 1159 0 
L 581 0 
L 581 3500 
L 1159 3500 
L 1159 2956 
Q 1356 3278 1631 3431 
Q 1906 3584 2284 3584 
Q 2666 3584 2933 3390 
Q 3200 3197 3328 2828 
z
" transform="scale(0.015625)"/>
       <path id="DejaVuSans-41" d="M 2188 4044 
L 1331 1722 
L 3047 1722 
L 2188 4044 
z
M 1831 4666 
L 2547 4666 
L 4325 0 
L 3669 0 
L 3244 1197 
L 1141 1197 
L 716 0 
L 50 0 
L 1831 4666 
z
" transform="scale(0.015625)"/>
       <path id="DejaVuSans-50" d="M 1259 4147 
L 1259 2394 
L 2053 2394 
Q 2494 2394 2734 2622 
Q 2975 2850 2975 3272 
Q 2975 3691 2734 3919 
Q 2494 4147 2053 4147 
L 1259 4147 
z
M 628 4666 
L 2053 4666 
Q 2838 4666 3239 4311 
Q 3641 3956 3641 3272 
Q 3641 2581 3239 2228 
Q 2838 1875 2053 1875 
L 1259 1875 
L 1259 0 
L 628 0 
L 628 4666 
z
" transform="scale(0.015625)"/>
      </defs>
      <use xlink:href="#DejaVuSans-74"/>
      <use xlink:href="#DejaVuSans-72" x="39.208984"/>
      <use xlink:href="#DejaVuSans-61" x="80.322266"/>
      <use xlink:href="#DejaVuSans-69" x="141.601562"/>
      <use xlink:href="#DejaVuSans-6e" x="169.384766"/>
      <use xlink:href="#DejaVuSans-20" x="232.763672"/>
      <use xlink:href="#DejaVuSans-6d" x="264.550781"/>
      <use xlink:href="#DejaVuSans-41" x="361.962891"/>
      <use xlink:href="#DejaVuSans-50" x="430.371094"/>
     </g>
    </g>
    <g id="line2d_15">
     <path d="M 81 79.616562 
L 91 79.616562 
L 101 79.616562 
" style="fill: none; stroke: #008000; stroke-width: 1.5; stroke-linecap: square"/>
    </g>
    <g id="text_15">
     <!-- valid mAP -->
     <g transform="translate(109 83.116562) scale(0.1 -0.1)">
      <defs>
       <path id="DejaVuSans-76" d="M 191 3500 
L 800 3500 
L 1894 563 
L 2988 3500 
L 3597 3500 
L 2284 0 
L 1503 0 
L 191 3500 
z
" transform="scale(0.015625)"/>
       <path id="DejaVuSans-6c" d="M 603 4863 
L 1178 4863 
L 1178 0 
L 603 0 
L 603 4863 
z
" transform="scale(0.015625)"/>
       <path id="DejaVuSans-64" d="M 2906 2969 
L 2906 4863 
L 3481 4863 
L 3481 0 
L 2906 0 
L 2906 525 
Q 2725 213 2448 61 
Q 2172 -91 1784 -91 
Q 1150 -91 751 415 
Q 353 922 353 1747 
Q 353 2572 751 3078 
Q 1150 3584 1784 3584 
Q 2172 3584 2448 3432 
Q 2725 3281 2906 2969 
z
M 947 1747 
Q 947 1113 1208 752 
Q 1469 391 1925 391 
Q 2381 391 2643 752 
Q 2906 1113 2906 1747 
Q 2906 2381 2643 2742 
Q 2381 3103 1925 3103 
Q 1469 3103 1208 2742 
Q 947 2381 947 1747 
z
" transform="scale(0.015625)"/>
      </defs>
      <use xlink:href="#DejaVuSans-76"/>
      <use xlink:href="#DejaVuSans-61" x="59.179688"/>
      <use xlink:href="#DejaVuSans-6c" x="120.458984"/>
      <use xlink:href="#DejaVuSans-69" x="148.242188"/>
      <use xlink:href="#DejaVuSans-64" x="176.025391"/>
      <use xlink:href="#DejaVuSans-20" x="239.501953"/>
      <use xlink:href="#DejaVuSans-6d" x="271.289062"/>
      <use xlink:href="#DejaVuSans-41" x="368.701172"/>
      <use xlink:href="#DejaVuSans-50" x="437.109375"/>
     </g>
    </g>
   </g>
  </g>
  <g id="axes_2">
   <g id="matplotlib.axis_3">
    <g id="ytick_7">
     <g id="line2d_16">
      <defs>
       <path id="ma8b787f01b" d="M 0 0 
L 3.5 0 
" style="stroke: #000000; stroke-width: 0.8"/>
      </defs>
      <g>
       <use xlink:href="#ma8b787f01b" x="518.4" y="356.634883" style="stroke: #000000; stroke-width: 0.8"/>
      </g>
     </g>
     <g id="text_16">
      <!-- 0.2 -->
      <g transform="translate(525.4 360.434102) scale(0.1 -0.1)">
       <defs>
        <path id="DejaVuSans-2e" d="M 684 794 
L 1344 794 
L 1344 0 
L 684 0 
L 684 794 
z
" transform="scale(0.015625)"/>
       </defs>
       <use xlink:href="#DejaVuSans-30"/>
       <use xlink:href="#DejaVuSans-2e" x="63.623047"/>
       <use xlink:href="#DejaVuSans-32" x="95.410156"/>
      </g>
     </g>
    </g>
    <g id="ytick_8">
     <g id="line2d_17">
      <g>
       <use xlink:href="#ma8b787f01b" x="518.4" y="314.054892" style="stroke: #000000; stroke-width: 0.8"/>
      </g>
     </g>
     <g id="text_17">
      <!-- 0.4 -->
      <g transform="translate(525.4 317.854111) scale(0.1 -0.1)">
       <use xlink:href="#DejaVuSans-30"/>
       <use xlink:href="#DejaVuSans-2e" x="63.623047"/>
       <use xlink:href="#DejaVuSans-34" x="95.410156"/>
      </g>
     </g>
    </g>
    <g id="ytick_9">
     <g id="line2d_18">
      <g>
       <use xlink:href="#ma8b787f01b" x="518.4" y="271.474901" style="stroke: #000000; stroke-width: 0.8"/>
      </g>
     </g>
     <g id="text_18">
      <!-- 0.6 -->
      <g transform="translate(525.4 275.27412) scale(0.1 -0.1)">
       <use xlink:href="#DejaVuSans-30"/>
       <use xlink:href="#DejaVuSans-2e" x="63.623047"/>
       <use xlink:href="#DejaVuSans-36" x="95.410156"/>
      </g>
     </g>
    </g>
    <g id="ytick_10">
     <g id="line2d_19">
      <g>
       <use xlink:href="#ma8b787f01b" x="518.4" y="228.89491" style="stroke: #000000; stroke-width: 0.8"/>
      </g>
     </g>
     <g id="text_19">
      <!-- 0.8 -->
      <g transform="translate(525.4 232.694129) scale(0.1 -0.1)">
       <use xlink:href="#DejaVuSans-30"/>
       <use xlink:href="#DejaVuSans-2e" x="63.623047"/>
       <use xlink:href="#DejaVuSans-38" x="95.410156"/>
      </g>
     </g>
    </g>
    <g id="ytick_11">
     <g id="line2d_20">
      <g>
       <use xlink:href="#ma8b787f01b" x="518.4" y="186.314919" style="stroke: #000000; stroke-width: 0.8"/>
      </g>
     </g>
     <g id="text_20">
      <!-- 1.0 -->
      <g transform="translate(525.4 190.114137) scale(0.1 -0.1)">
       <use xlink:href="#DejaVuSans-31"/>
       <use xlink:href="#DejaVuSans-2e" x="63.623047"/>
       <use xlink:href="#DejaVuSans-30" x="95.410156"/>
      </g>
     </g>
    </g>
    <g id="ytick_12">
     <g id="line2d_21">
      <g>
       <use xlink:href="#ma8b787f01b" x="518.4" y="143.734928" style="stroke: #000000; stroke-width: 0.8"/>
      </g>
     </g>
     <g id="text_21">
      <!-- 1.2 -->
      <g transform="translate(525.4 147.534146) scale(0.1 -0.1)">
       <use xlink:href="#DejaVuSans-31"/>
       <use xlink:href="#DejaVuSans-2e" x="63.623047"/>
       <use xlink:href="#DejaVuSans-32" x="95.410156"/>
      </g>
     </g>
    </g>
    <g id="ytick_13">
     <g id="line2d_22">
      <g>
       <use xlink:href="#ma8b787f01b" x="518.4" y="101.154936" style="stroke: #000000; stroke-width: 0.8"/>
      </g>
     </g>
     <g id="text_22">
      <!-- 1.4 -->
      <g transform="translate(525.4 104.954155) scale(0.1 -0.1)">
       <use xlink:href="#DejaVuSans-31"/>
       <use xlink:href="#DejaVuSans-2e" x="63.623047"/>
       <use xlink:href="#DejaVuSans-34" x="95.410156"/>
      </g>
     </g>
    </g>
    <g id="ytick_14">
     <g id="line2d_23">
      <g>
       <use xlink:href="#ma8b787f01b" x="518.4" y="58.574945" style="stroke: #000000; stroke-width: 0.8"/>
      </g>
     </g>
     <g id="text_23">
      <!-- 1.6 -->
      <g transform="translate(525.4 62.374164) scale(0.1 -0.1)">
       <use xlink:href="#DejaVuSans-31"/>
       <use xlink:href="#DejaVuSans-2e" x="63.623047"/>
       <use xlink:href="#DejaVuSans-36" x="95.410156"/>
      </g>
     </g>
    </g>
    <g id="text_24">
     <!-- loss -->
     <g transform="translate(552.901563 227.817812) rotate(-90) scale(0.1 -0.1)">
      <defs>
       <path id="DejaVuSans-73" d="M 2834 3397 
L 2834 2853 
Q 2591 2978 2328 3040 
Q 2066 3103 1784 3103 
Q 1356 3103 1142 2972 
Q 928 2841 928 2578 
Q 928 2378 1081 2264 
Q 1234 2150 1697 2047 
L 1894 2003 
Q 2506 1872 2764 1633 
Q 3022 1394 3022 966 
Q 3022 478 2636 193 
Q 2250 -91 1575 -91 
Q 1294 -91 989 -36 
Q 684 19 347 128 
L 347 722 
Q 666 556 975 473 
Q 1284 391 1588 391 
Q 1994 391 2212 530 
Q 2431 669 2431 922 
Q 2431 1156 2273 1281 
Q 2116 1406 1581 1522 
L 1381 1569 
Q 847 1681 609 1914 
Q 372 2147 372 2553 
Q 372 3047 722 3315 
Q 1072 3584 1716 3584 
Q 2034 3584 2315 3537 
Q 2597 3491 2834 3397 
z
" transform="scale(0.015625)"/>
      </defs>
      <use xlink:href="#DejaVuSans-6c"/>
      <use xlink:href="#DejaVuSans-6f" x="27.783203"/>
      <use xlink:href="#DejaVuSans-73" x="88.964844"/>
      <use xlink:href="#DejaVuSans-73" x="141.064453"/>
     </g>
    </g>
   </g>
   <g id="line2d_24">
    <path d="M 92.290909 324.015362 
L 94.251383 324.309651 
L 96.211858 258.480954 
L 98.172332 179.727371 
L 100.132806 354.005063 
L 102.093281 353.637343 
L 104.053755 345.844769 
L 106.014229 310.007683 
L 107.974704 352.955064 
L 109.935178 339.987825 
L 111.895652 350.696043 
L 113.856126 306.818446 
L 115.816601 356.206402 
L 117.777075 369.36 
L 119.737549 349.001864 
L 121.698024 336.018823 
L 123.658498 354.416437 
L 125.618972 348.906421 
L 127.579447 353.796599 
L 129.539921 317.303232 
L 131.500395 337.759327 
L 133.46087 319.642386 
L 135.421344 339.036731 
L 137.381818 300.286687 
L 139.342292 342.517285 
L 141.302767 337.199024 
L 143.263241 316.506132 
L 145.223715 303.618357 
L 147.18419 354.192876 
L 149.144664 354.644284 
L 151.105138 345.680525 
L 153.065613 347.351434 
L 155.026087 339.217344 
L 156.986561 342.478963 
L 158.947036 325.385561 
L 160.90751 357.126613 
L 162.867984 355.838096 
L 164.828458 321.966868 
L 166.788933 325.635099 
L 168.749407 284.214347 
L 170.709881 356.980696 
L 172.670356 342.950163 
L 174.63083 339.616133 
L 176.591304 338.396799 
L 178.551779 350.145806 
L 180.512253 321.026509 
L 182.472727 308.908065 
L 184.433202 300.834383 
L 186.393676 337.143063 
L 188.35415 340.692558 
L 190.314625 323.000408 
L 192.275099 348.028879 
L 194.235573 343.136376 
L 196.196047 312.151826 
L 198.156522 314.141106 
L 200.116996 251.584393 
L 202.07747 343.224073 
L 204.037945 319.275688 
L 205.998419 298.069679 
L 207.958893 243.215264 
L 209.919368 354.019002 
L 211.879842 353.848542 
L 213.840316 337.091986 
L 215.800791 329.833596 
L 217.761265 341.101255 
L 219.721739 347.831606 
L 221.682213 356.90689 
L 223.642688 338.02055 
L 225.603162 344.936041 
L 227.563636 347.887788 
L 229.524111 310.257374 
L 231.484585 318.256655 
L 233.445059 346.463324 
L 235.405534 336.718669 
L 237.366008 324.626817 
L 239.326482 315.442668 
L 241.286957 345.299927 
L 243.247431 355.495521 
L 245.207905 326.8977 
L 247.168379 316.109901 
L 249.128854 340.858932 
L 251.089328 342.478109 
L 253.049802 310.229012 
L 255.010277 348.704506 
L 256.970751 346.40734 
L 258.931225 343.115443 
L 260.8917 329.488647 
L 262.852174 344.122944 
L 264.812648 348.04875 
L 266.773123 342.193146 
L 268.733597 327.350754 
L 270.694071 316.84903 
L 272.654545 329.752089 
L 274.61502 276.51045 
L 276.575494 326.878554 
L 278.535968 346.455886 
L 280.496443 339.364972 
L 282.456917 313.8632 
L 284.417391 343.743403 
L 286.377866 328.700805 
L 288.33834 339.193815 
L 290.298814 333.550899 
L 292.259289 284.855466 
L 294.219763 271.124721 
L 296.180237 334.527165 
L 298.140711 315.012855 
L 300.101186 249.558764 
L 302.06166 225.181741 
L 304.022134 334.564946 
L 305.982609 335.506182 
L 307.943083 301.334184 
L 309.903557 253.799167 
L 311.864032 319.941837 
L 313.824506 332.780484 
L 315.78498 286.40336 
L 319.705929 332.628244 
L 321.666403 300.587082 
L 323.626877 271.760209 
L 325.587352 292.62576 
L 327.547826 337.636962 
L 331.468775 267.106494 
L 333.429249 295.11002 
L 335.389723 332.155648 
L 337.350198 272.461115 
L 339.310672 218.374554 
L 343.231621 324.396536 
L 345.192095 237.234579 
L 347.152569 271.245759 
L 349.113043 322.140624 
L 351.073518 321.227006 
L 353.033992 273.831351 
L 354.994466 270.08937 
L 356.954941 305.887407 
L 358.915415 324.968511 
L 360.875889 229.433104 
L 362.836364 212.142195 
L 364.796838 280.804102 
L 366.757312 332.76188 
L 368.717787 233.522821 
L 370.678261 205.034137 
L 372.638735 281.403445 
L 374.599209 321.235974 
L 376.559684 295.533053 
L 378.520158 239.306716 
L 380.480632 221.663492 
L 382.441107 329.342296 
L 384.401581 311.358284 
L 386.362055 326.352526 
L 388.32253 293.147124 
L 390.283004 325.48458 
L 392.243478 229.634602 
L 394.203953 278.03 
L 396.164427 288.07295 
L 398.124901 329.34293 
L 400.085375 214.079541 
L 402.04585 264.99303 
L 404.006324 280.577835 
L 405.966798 291.947034 
L 407.927273 227.432026 
L 409.887747 256.176752 
L 411.848221 251.129635 
L 413.808696 327.399254 
L 415.76917 251.945591 
L 417.729644 228.989906 
L 419.690119 139.319312 
L 421.650593 318.262336 
L 423.611067 278.907921 
L 425.571542 192.968893 
L 427.532016 160.562428 
L 429.49249 294.568118 
L 431.452964 246.368064 
L 433.413439 158.115251 
L 435.373913 172.766082 
L 437.334387 330.133307 
L 439.294862 281.0978 
L 441.255336 137.460877 
L 443.21581 223.938987 
L 445.176285 319.731914 
L 447.136759 293.953313 
L 449.097233 219.794684 
L 451.057708 217.527691 
L 453.018182 304.109054 
L 454.978656 271.036376 
L 456.93913 268.607669 
L 458.899605 179.494724 
L 460.860079 324.394939 
L 462.820553 266.436113 
L 464.781028 271.314751 
L 466.741502 184.980553 
L 468.701976 286.142593 
L 470.662451 255.734821 
L 472.622925 260.757499 
L 474.583399 252.042782 
L 476.543874 303.656965 
L 478.504348 265.368558 
L 480.464822 181.851589 
L 482.425296 221.888483 
L 484.385771 310.899155 
L 486.346245 295.366144 
L 488.306719 209.678975 
L 490.267194 66.96 
L 492.227668 310.671675 
L 494.188142 239.189931 
L 496.148617 159.31542 
L 498.109091 130.809471 
L 498.109091 130.809471 
" clip-path="url(#p526fa42724)" style="fill: none; stroke: #ff0000; stroke-width: 1.5; stroke-linecap: square"/>
   </g>
   <g id="patch_8">
    <path d="M 72 384.48 
L 72 51.84 
" style="fill: none; stroke: #000000; stroke-width: 0.8; stroke-linejoin: miter; stroke-linecap: square"/>
   </g>
   <g id="patch_9">
    <path d="M 518.4 384.48 
L 518.4 51.84 
" style="fill: none; stroke: #000000; stroke-width: 0.8; stroke-linejoin: miter; stroke-linecap: square"/>
   </g>
   <g id="patch_10">
    <path d="M 72 384.48 
L 518.4 384.48 
" style="fill: none; stroke: #000000; stroke-width: 0.8; stroke-linejoin: miter; stroke-linecap: square"/>
   </g>
   <g id="patch_11">
    <path d="M 72 51.84 
L 518.4 51.84 
" style="fill: none; stroke: #000000; stroke-width: 0.8; stroke-linejoin: miter; stroke-linecap: square"/>
   </g>
   <g id="text_25">
    <!-- The learning curve on c_gcn_with_agg/host/3 -->
    <g transform="translate(159.605625 45.84) scale(0.12 -0.12)">
     <defs>
      <path id="DejaVuSans-54" d="M -19 4666 
L 3928 4666 
L 3928 4134 
L 2272 4134 
L 2272 0 
L 1638 0 
L 1638 4134 
L -19 4134 
L -19 4666 
z
" transform="scale(0.015625)"/>
      <path id="DejaVuSans-67" d="M 2906 1791 
Q 2906 2416 2648 2759 
Q 2391 3103 1925 3103 
Q 1463 3103 1205 2759 
Q 947 2416 947 1791 
Q 947 1169 1205 825 
Q 1463 481 1925 481 
Q 2391 481 2648 825 
Q 2906 1169 2906 1791 
z
M 3481 434 
Q 3481 -459 3084 -895 
Q 2688 -1331 1869 -1331 
Q 1566 -1331 1297 -1286 
Q 1028 -1241 775 -1147 
L 775 -588 
Q 1028 -725 1275 -790 
Q 1522 -856 1778 -856 
Q 2344 -856 2625 -561 
Q 2906 -266 2906 331 
L 2906 616 
Q 2728 306 2450 153 
Q 2172 0 1784 0 
Q 1141 0 747 490 
Q 353 981 353 1791 
Q 353 2603 747 3093 
Q 1141 3584 1784 3584 
Q 2172 3584 2450 3431 
Q 2728 3278 2906 2969 
L 2906 3500 
L 3481 3500 
L 3481 434 
z
" transform="scale(0.015625)"/>
      <path id="DejaVuSans-75" d="M 544 1381 
L 544 3500 
L 1119 3500 
L 1119 1403 
Q 1119 906 1312 657 
Q 1506 409 1894 409 
Q 2359 409 2629 706 
Q 2900 1003 2900 1516 
L 2900 3500 
L 3475 3500 
L 3475 0 
L 2900 0 
L 2900 538 
Q 2691 219 2414 64 
Q 2138 -91 1772 -91 
Q 1169 -91 856 284 
Q 544 659 544 1381 
z
M 1991 3584 
L 1991 3584 
z
" transform="scale(0.015625)"/>
      <path id="DejaVuSans-5f" d="M 3263 -1063 
L 3263 -1509 
L -63 -1509 
L -63 -1063 
L 3263 -1063 
z
" transform="scale(0.015625)"/>
      <path id="DejaVuSans-77" d="M 269 3500 
L 844 3500 
L 1563 769 
L 2278 3500 
L 2956 3500 
L 3675 769 
L 4391 3500 
L 4966 3500 
L 4050 0 
L 3372 0 
L 2619 2869 
L 1863 0 
L 1184 0 
L 269 3500 
z
" transform="scale(0.015625)"/>
      <path id="DejaVuSans-2f" d="M 1625 4666 
L 2156 4666 
L 531 -594 
L 0 -594 
L 1625 4666 
z
" transform="scale(0.015625)"/>
      <path id="DejaVuSans-33" d="M 2597 2516 
Q 3050 2419 3304 2112 
Q 3559 1806 3559 1356 
Q 3559 666 3084 287 
Q 2609 -91 1734 -91 
Q 1441 -91 1130 -33 
Q 819 25 488 141 
L 488 750 
Q 750 597 1062 519 
Q 1375 441 1716 441 
Q 2309 441 2620 675 
Q 2931 909 2931 1356 
Q 2931 1769 2642 2001 
Q 2353 2234 1838 2234 
L 1294 2234 
L 1294 2753 
L 1863 2753 
Q 2328 2753 2575 2939 
Q 2822 3125 2822 3475 
Q 2822 3834 2567 4026 
Q 2313 4219 1838 4219 
Q 1578 4219 1281 4162 
Q 984 4106 628 3988 
L 628 4550 
Q 988 4650 1302 4700 
Q 1616 4750 1894 4750 
Q 2613 4750 3031 4423 
Q 3450 4097 3450 3541 
Q 3450 3153 3228 2886 
Q 3006 2619 2597 2516 
z
" transform="scale(0.015625)"/>
     </defs>
     <use xlink:href="#DejaVuSans-54"/>
     <use xlink:href="#DejaVuSans-68" x="61.083984"/>
     <use xlink:href="#DejaVuSans-65" x="124.462891"/>
     <use xlink:href="#DejaVuSans-20" x="185.986328"/>
     <use xlink:href="#DejaVuSans-6c" x="217.773438"/>
     <use xlink:href="#DejaVuSans-65" x="245.556641"/>
     <use xlink:href="#DejaVuSans-61" x="307.080078"/>
     <use xlink:href="#DejaVuSans-72" x="368.359375"/>
     <use xlink:href="#DejaVuSans-6e" x="407.722656"/>
     <use xlink:href="#DejaVuSans-69" x="471.101562"/>
     <use xlink:href="#DejaVuSans-6e" x="498.884766"/>
     <use xlink:href="#DejaVuSans-67" x="562.263672"/>
     <use xlink:href="#DejaVuSans-20" x="625.740234"/>
     <use xlink:href="#DejaVuSans-63" x="657.527344"/>
     <use xlink:href="#DejaVuSans-75" x="712.507812"/>
     <use xlink:href="#DejaVuSans-72" x="775.886719"/>
     <use xlink:href="#DejaVuSans-76" x="817"/>
     <use xlink:href="#DejaVuSans-65" x="876.179688"/>
     <use xlink:href="#DejaVuSans-20" x="937.703125"/>
     <use xlink:href="#DejaVuSans-6f" x="969.490234"/>
     <use xlink:href="#DejaVuSans-6e" x="1030.671875"/>
     <use xlink:href="#DejaVuSans-20" x="1094.050781"/>
     <use xlink:href="#DejaVuSans-63" x="1125.837891"/>
     <use xlink:href="#DejaVuSans-5f" x="1180.818359"/>
     <use xlink:href="#DejaVuSans-67" x="1230.818359"/>
     <use xlink:href="#DejaVuSans-63" x="1294.294922"/>
     <use xlink:href="#DejaVuSans-6e" x="1349.275391"/>
     <use xlink:href="#DejaVuSans-5f" x="1412.654297"/>
     <use xlink:href="#DejaVuSans-77" x="1462.654297"/>
     <use xlink:href="#DejaVuSans-69" x="1544.441406"/>
     <use xlink:href="#DejaVuSans-74" x="1572.224609"/>
     <use xlink:href="#DejaVuSans-68" x="1611.433594"/>
     <use xlink:href="#DejaVuSans-5f" x="1674.8125"/>
     <use xlink:href="#DejaVuSans-61" x="1724.8125"/>
     <use xlink:href="#DejaVuSans-67" x="1786.091797"/>
     <use xlink:href="#DejaVuSans-67" x="1849.568359"/>
     <use xlink:href="#DejaVuSans-2f" x="1913.044922"/>
     <use xlink:href="#DejaVuSans-68" x="1946.736328"/>
     <use xlink:href="#DejaVuSans-6f" x="2010.115234"/>
     <use xlink:href="#DejaVuSans-73" x="2071.296875"/>
     <use xlink:href="#DejaVuSans-74" x="2123.396484"/>
     <use xlink:href="#DejaVuSans-2f" x="2162.605469"/>
     <use xlink:href="#DejaVuSans-33" x="2196.296875"/>
    </g>
   </g>
   <g id="legend_2">
    <g id="patch_12">
     <path d="M 460.084375 74.518125 
L 511.4 74.518125 
Q 513.4 74.518125 513.4 72.518125 
L 513.4 58.84 
Q 513.4 56.84 511.4 56.84 
L 460.084375 56.84 
Q 458.084375 56.84 458.084375 58.84 
L 458.084375 72.518125 
Q 458.084375 74.518125 460.084375 74.518125 
z
" style="fill: #ffffff; opacity: 0.8; stroke: #cccccc; stroke-linejoin: miter"/>
    </g>
    <g id="line2d_25">
     <path d="M 462.084375 64.938438 
L 472.084375 64.938438 
L 482.084375 64.938438 
" style="fill: none; stroke: #ff0000; stroke-width: 1.5; stroke-linecap: square"/>
    </g>
    <g id="text_26">
     <!-- loss -->
     <g transform="translate(490.084375 68.438438) scale(0.1 -0.1)">
      <use xlink:href="#DejaVuSans-6c"/>
      <use xlink:href="#DejaVuSans-6f" x="27.783203"/>
      <use xlink:href="#DejaVuSans-73" x="88.964844"/>
      <use xlink:href="#DejaVuSans-73" x="141.064453"/>
     </g>
    </g>
   </g>
  </g>
 </g>
 <defs>
  <clipPath id="p526fa42724">
   <rect x="72" y="51.84" width="446.4" height="332.64"/>
  </clipPath>
 </defs>
</svg>
