<?xml version="1.0" encoding="utf-8" standalone="no"?>
<!DOCTYPE svg PUBLIC "-//W3C//DTD SVG 1.1//EN"
  "http://www.w3.org/Graphics/SVG/1.1/DTD/svg11.dtd">
<svg xmlns:xlink="http://www.w3.org/1999/xlink" width="576pt" height="432pt" viewBox="0 0 576 432" xmlns="http://www.w3.org/2000/svg" version="1.1">
 <metadata>
  <rdf:RDF xmlns:dc="http://purl.org/dc/elements/1.1/" xmlns:cc="http://creativecommons.org/ns#" xmlns:rdf="http://www.w3.org/1999/02/22-rdf-syntax-ns#">
   <cc:Work>
    <dc:type rdf:resource="http://purl.org/dc/dcmitype/StillImage"/>
    <dc:date>2023-10-15T21:40:10.077507</dc:date>
    <dc:format>image/svg+xml</dc:format>
    <dc:creator>
     <cc:Agent>
      <dc:title>Matplotlib v3.7.1, https://matplotlib.org/</dc:title>
     </cc:Agent>
    </dc:creator>
   </cc:Work>
  </rdf:RDF>
 </metadata>
 <defs>
  <style type="text/css">*{stroke-linejoin: round; stroke-linecap: butt}</style>
 </defs>
 <g id="figure_1">
  <g id="patch_1">
   <path d="M 0 432 
L 576 432 
L 576 0 
L 0 0 
z
" style="fill: #ffffff"/>
  </g>
  <g id="axes_1">
   <g id="patch_2">
    <path d="M 72 384.48 
L 518.4 384.48 
L 518.4 51.84 
L 72 51.84 
z
" style="fill: #ffffff"/>
   </g>
   <g id="matplotlib.axis_1">
    <g id="xtick_1">
     <g id="line2d_1">
      <defs>
       <path id="m81fb14ffe7" d="M 0 0 
L 0 3.5 
" style="stroke: #000000; stroke-width: 0.8"/>
      </defs>
      <g>
       <use xlink:href="#m81fb14ffe7" x="92.290909" y="384.48" style="stroke: #000000; stroke-width: 0.8"/>
      </g>
     </g>
     <g id="text_1">
      <!-- 0 -->
      <g transform="translate(89.109659 399.078438) scale(0.1 -0.1)">
       <defs>
        <path id="DejaVuSans-30" d="M 2034 4250 
Q 1547 4250 1301 3770 
Q 1056 3291 1056 2328 
Q 1056 1369 1301 889 
Q 1547 409 2034 409 
Q 2525 409 2770 889 
Q 3016 1369 3016 2328 
Q 3016 3291 2770 3770 
Q 2525 4250 2034 4250 
z
M 2034 4750 
Q 2819 4750 3233 4129 
Q 3647 3509 3647 2328 
Q 3647 1150 3233 529 
Q 2819 -91 2034 -91 
Q 1250 -91 836 529 
Q 422 1150 422 2328 
Q 422 3509 836 4129 
Q 1250 4750 2034 4750 
z
" transform="scale(0.015625)"/>
       </defs>
       <use xlink:href="#DejaVuSans-30"/>
      </g>
     </g>
    </g>
    <g id="xtick_2">
     <g id="line2d_2">
      <g>
       <use xlink:href="#m81fb14ffe7" x="143.273093" y="384.48" style="stroke: #000000; stroke-width: 0.8"/>
      </g>
     </g>
     <g id="text_2">
      <!-- 25 -->
      <g transform="translate(136.910593 399.078438) scale(0.1 -0.1)">
       <defs>
        <path id="DejaVuSans-32" d="M 1228 531 
L 3431 531 
L 3431 0 
L 469 0 
L 469 531 
Q 828 903 1448 1529 
Q 2069 2156 2228 2338 
Q 2531 2678 2651 2914 
Q 2772 3150 2772 3378 
Q 2772 3750 2511 3984 
Q 2250 4219 1831 4219 
Q 1534 4219 1204 4116 
Q 875 4013 500 3803 
L 500 4441 
Q 881 4594 1212 4672 
Q 1544 4750 1819 4750 
Q 2544 4750 2975 4387 
Q 3406 4025 3406 3419 
Q 3406 3131 3298 2873 
Q 3191 2616 2906 2266 
Q 2828 2175 2409 1742 
Q 1991 1309 1228 531 
z
" transform="scale(0.015625)"/>
        <path id="DejaVuSans-35" d="M 691 4666 
L 3169 4666 
L 3169 4134 
L 1269 4134 
L 1269 2991 
Q 1406 3038 1543 3061 
Q 1681 3084 1819 3084 
Q 2600 3084 3056 2656 
Q 3513 2228 3513 1497 
Q 3513 744 3044 326 
Q 2575 -91 1722 -91 
Q 1428 -91 1123 -41 
Q 819 9 494 109 
L 494 744 
Q 775 591 1075 516 
Q 1375 441 1709 441 
Q 2250 441 2565 725 
Q 2881 1009 2881 1497 
Q 2881 1984 2565 2268 
Q 2250 2553 1709 2553 
Q 1456 2553 1204 2497 
Q 953 2441 691 2322 
L 691 4666 
z
" transform="scale(0.015625)"/>
       </defs>
       <use xlink:href="#DejaVuSans-32"/>
       <use xlink:href="#DejaVuSans-35" x="63.623047"/>
      </g>
     </g>
    </g>
    <g id="xtick_3">
     <g id="line2d_3">
      <g>
       <use xlink:href="#m81fb14ffe7" x="194.255276" y="384.48" style="stroke: #000000; stroke-width: 0.8"/>
      </g>
     </g>
     <g id="text_3">
      <!-- 50 -->
      <g transform="translate(187.892776 399.078438) scale(0.1 -0.1)">
       <use xlink:href="#DejaVuSans-35"/>
       <use xlink:href="#DejaVuSans-30" x="63.623047"/>
      </g>
     </g>
    </g>
    <g id="xtick_4">
     <g id="line2d_4">
      <g>
       <use xlink:href="#m81fb14ffe7" x="245.23746" y="384.48" style="stroke: #000000; stroke-width: 0.8"/>
      </g>
     </g>
     <g id="text_4">
      <!-- 75 -->
      <g transform="translate(238.87496 399.078438) scale(0.1 -0.1)">
       <defs>
        <path id="DejaVuSans-37" d="M 525 4666 
L 3525 4666 
L 3525 4397 
L 1831 0 
L 1172 0 
L 2766 4134 
L 525 4134 
L 525 4666 
z
" transform="scale(0.015625)"/>
       </defs>
       <use xlink:href="#DejaVuSans-37"/>
       <use xlink:href="#DejaVuSans-35" x="63.623047"/>
      </g>
     </g>
    </g>
    <g id="xtick_5">
     <g id="line2d_5">
      <g>
       <use xlink:href="#m81fb14ffe7" x="296.219644" y="384.48" style="stroke: #000000; stroke-width: 0.8"/>
      </g>
     </g>
     <g id="text_5">
      <!-- 100 -->
      <g transform="translate(286.675894 399.078438) scale(0.1 -0.1)">
       <defs>
        <path id="DejaVuSans-31" d="M 794 531 
L 1825 531 
L 1825 4091 
L 703 3866 
L 703 4441 
L 1819 4666 
L 2450 4666 
L 2450 531 
L 3481 531 
L 3481 0 
L 794 0 
L 794 531 
z
" transform="scale(0.015625)"/>
       </defs>
       <use xlink:href="#DejaVuSans-31"/>
       <use xlink:href="#DejaVuSans-30" x="63.623047"/>
       <use xlink:href="#DejaVuSans-30" x="127.246094"/>
      </g>
     </g>
    </g>
    <g id="xtick_6">
     <g id="line2d_6">
      <g>
       <use xlink:href="#m81fb14ffe7" x="347.201827" y="384.48" style="stroke: #000000; stroke-width: 0.8"/>
      </g>
     </g>
     <g id="text_6">
      <!-- 125 -->
      <g transform="translate(337.658077 399.078438) scale(0.1 -0.1)">
       <use xlink:href="#DejaVuSans-31"/>
       <use xlink:href="#DejaVuSans-32" x="63.623047"/>
       <use xlink:href="#DejaVuSans-35" x="127.246094"/>
      </g>
     </g>
    </g>
    <g id="xtick_7">
     <g id="line2d_7">
      <g>
       <use xlink:href="#m81fb14ffe7" x="398.184011" y="384.48" style="stroke: #000000; stroke-width: 0.8"/>
      </g>
     </g>
     <g id="text_7">
      <!-- 150 -->
      <g transform="translate(388.640261 399.078438) scale(0.1 -0.1)">
       <use xlink:href="#DejaVuSans-31"/>
       <use xlink:href="#DejaVuSans-35" x="63.623047"/>
       <use xlink:href="#DejaVuSans-30" x="127.246094"/>
      </g>
     </g>
    </g>
    <g id="xtick_8">
     <g id="line2d_8">
      <g>
       <use xlink:href="#m81fb14ffe7" x="449.166195" y="384.48" style="stroke: #000000; stroke-width: 0.8"/>
      </g>
     </g>
     <g id="text_8">
      <!-- 175 -->
      <g transform="translate(439.622445 399.078438) scale(0.1 -0.1)">
       <use xlink:href="#DejaVuSans-31"/>
       <use xlink:href="#DejaVuSans-37" x="63.623047"/>
       <use xlink:href="#DejaVuSans-35" x="127.246094"/>
      </g>
     </g>
    </g>
    <g id="xtick_9">
     <g id="line2d_9">
      <g>
       <use xlink:href="#m81fb14ffe7" x="500.148378" y="384.48" style="stroke: #000000; stroke-width: 0.8"/>
      </g>
     </g>
     <g id="text_9">
      <!-- 200 -->
      <g transform="translate(490.604628 399.078438) scale(0.1 -0.1)">
       <use xlink:href="#DejaVuSans-32"/>
       <use xlink:href="#DejaVuSans-30" x="63.623047"/>
       <use xlink:href="#DejaVuSans-30" x="127.246094"/>
      </g>
     </g>
    </g>
    <g id="text_10">
     <!-- epoch -->
     <g transform="translate(279.971875 412.756563) scale(0.1 -0.1)">
      <defs>
       <path id="DejaVuSans-65" d="M 3597 1894 
L 3597 1613 
L 953 1613 
Q 991 1019 1311 708 
Q 1631 397 2203 397 
Q 2534 397 2845 478 
Q 3156 559 3463 722 
L 3463 178 
Q 3153 47 2828 -22 
Q 2503 -91 2169 -91 
Q 1331 -91 842 396 
Q 353 884 353 1716 
Q 353 2575 817 3079 
Q 1281 3584 2069 3584 
Q 2775 3584 3186 3129 
Q 3597 2675 3597 1894 
z
M 3022 2063 
Q 3016 2534 2758 2815 
Q 2500 3097 2075 3097 
Q 1594 3097 1305 2825 
Q 1016 2553 972 2059 
L 3022 2063 
z
" transform="scale(0.015625)"/>
       <path id="DejaVuSans-70" d="M 1159 525 
L 1159 -1331 
L 581 -1331 
L 581 3500 
L 1159 3500 
L 1159 2969 
Q 1341 3281 1617 3432 
Q 1894 3584 2278 3584 
Q 2916 3584 3314 3078 
Q 3713 2572 3713 1747 
Q 3713 922 3314 415 
Q 2916 -91 2278 -91 
Q 1894 -91 1617 61 
Q 1341 213 1159 525 
z
M 3116 1747 
Q 3116 2381 2855 2742 
Q 2594 3103 2138 3103 
Q 1681 3103 1420 2742 
Q 1159 2381 1159 1747 
Q 1159 1113 1420 752 
Q 1681 391 2138 391 
Q 2594 391 2855 752 
Q 3116 1113 3116 1747 
z
" transform="scale(0.015625)"/>
       <path id="DejaVuSans-6f" d="M 1959 3097 
Q 1497 3097 1228 2736 
Q 959 2375 959 1747 
Q 959 1119 1226 758 
Q 1494 397 1959 397 
Q 2419 397 2687 759 
Q 2956 1122 2956 1747 
Q 2956 2369 2687 2733 
Q 2419 3097 1959 3097 
z
M 1959 3584 
Q 2709 3584 3137 3096 
Q 3566 2609 3566 1747 
Q 3566 888 3137 398 
Q 2709 -91 1959 -91 
Q 1206 -91 779 398 
Q 353 888 353 1747 
Q 353 2609 779 3096 
Q 1206 3584 1959 3584 
z
" transform="scale(0.015625)"/>
       <path id="DejaVuSans-63" d="M 3122 3366 
L 3122 2828 
Q 2878 2963 2633 3030 
Q 2388 3097 2138 3097 
Q 1578 3097 1268 2742 
Q 959 2388 959 1747 
Q 959 1106 1268 751 
Q 1578 397 2138 397 
Q 2388 397 2633 464 
Q 2878 531 3122 666 
L 3122 134 
Q 2881 22 2623 -34 
Q 2366 -91 2075 -91 
Q 1284 -91 818 406 
Q 353 903 353 1747 
Q 353 2603 823 3093 
Q 1294 3584 2113 3584 
Q 2378 3584 2631 3529 
Q 2884 3475 3122 3366 
z
" transform="scale(0.015625)"/>
       <path id="DejaVuSans-68" d="M 3513 2113 
L 3513 0 
L 2938 0 
L 2938 2094 
Q 2938 2591 2744 2837 
Q 2550 3084 2163 3084 
Q 1697 3084 1428 2787 
Q 1159 2491 1159 1978 
L 1159 0 
L 581 0 
L 581 4863 
L 1159 4863 
L 1159 2956 
Q 1366 3272 1645 3428 
Q 1925 3584 2291 3584 
Q 2894 3584 3203 3211 
Q 3513 2838 3513 2113 
z
" transform="scale(0.015625)"/>
      </defs>
      <use xlink:href="#DejaVuSans-65"/>
      <use xlink:href="#DejaVuSans-70" x="61.523438"/>
      <use xlink:href="#DejaVuSans-6f" x="125"/>
      <use xlink:href="#DejaVuSans-63" x="186.181641"/>
      <use xlink:href="#DejaVuSans-68" x="241.162109"/>
     </g>
    </g>
   </g>
   <g id="matplotlib.axis_2">
    <g id="ytick_1">
     <g id="line2d_10">
      <defs>
       <path id="m935f051218" d="M 0 0 
L -3.5 0 
" style="stroke: #000000; stroke-width: 0.8"/>
      </defs>
      <g>
       <use xlink:href="#m935f051218" x="72" y="384.48" style="stroke: #000000; stroke-width: 0.8"/>
      </g>
     </g>
     <g id="text_11">
      <!-- 0 -->
      <g transform="translate(58.6375 388.279219) scale(0.1 -0.1)">
       <use xlink:href="#DejaVuSans-30"/>
      </g>
     </g>
    </g>
    <g id="ytick_2">
     <g id="line2d_11">
      <g>
       <use xlink:href="#m935f051218" x="72" y="317.952" style="stroke: #000000; stroke-width: 0.8"/>
      </g>
     </g>
     <g id="text_12">
      <!-- 20 -->
      <g transform="translate(52.275 321.751219) scale(0.1 -0.1)">
       <use xlink:href="#DejaVuSans-32"/>
       <use xlink:href="#DejaVuSans-30" x="63.623047"/>
      </g>
     </g>
    </g>
    <g id="ytick_3">
     <g id="line2d_12">
      <g>
       <use xlink:href="#m935f051218" x="72" y="251.424" style="stroke: #000000; stroke-width: 0.8"/>
      </g>
     </g>
     <g id="text_13">
      <!-- 40 -->
      <g transform="translate(52.275 255.223219) scale(0.1 -0.1)">
       <defs>
        <path id="DejaVuSans-34" d="M 2419 4116 
L 825 1625 
L 2419 1625 
L 2419 4116 
z
M 2253 4666 
L 3047 4666 
L 3047 1625 
L 3713 1625 
L 3713 1100 
L 3047 1100 
L 3047 0 
L 2419 0 
L 2419 1100 
L 313 1100 
L 313 1709 
L 2253 4666 
z
" transform="scale(0.015625)"/>
       </defs>
       <use xlink:href="#DejaVuSans-34"/>
       <use xlink:href="#DejaVuSans-30" x="63.623047"/>
      </g>
     </g>
    </g>
    <g id="ytick_4">
     <g id="line2d_13">
      <g>
       <use xlink:href="#m935f051218" x="72" y="184.896" style="stroke: #000000; stroke-width: 0.8"/>
      </g>
     </g>
     <g id="text_14">
      <!-- 60 -->
      <g transform="translate(52.275 188.695219) scale(0.1 -0.1)">
       <defs>
        <path id="DejaVuSans-36" d="M 2113 2584 
Q 1688 2584 1439 2293 
Q 1191 2003 1191 1497 
Q 1191 994 1439 701 
Q 1688 409 2113 409 
Q 2538 409 2786 701 
Q 3034 994 3034 1497 
Q 3034 2003 2786 2293 
Q 2538 2584 2113 2584 
z
M 3366 4563 
L 3366 3988 
Q 3128 4100 2886 4159 
Q 2644 4219 2406 4219 
Q 1781 4219 1451 3797 
Q 1122 3375 1075 2522 
Q 1259 2794 1537 2939 
Q 1816 3084 2150 3084 
Q 2853 3084 3261 2657 
Q 3669 2231 3669 1497 
Q 3669 778 3244 343 
Q 2819 -91 2113 -91 
Q 1303 -91 875 529 
Q 447 1150 447 2328 
Q 447 3434 972 4092 
Q 1497 4750 2381 4750 
Q 2619 4750 2861 4703 
Q 3103 4656 3366 4563 
z
" transform="scale(0.015625)"/>
       </defs>
       <use xlink:href="#DejaVuSans-36"/>
       <use xlink:href="#DejaVuSans-30" x="63.623047"/>
      </g>
     </g>
    </g>
    <g id="ytick_5">
     <g id="line2d_14">
      <g>
       <use xlink:href="#m935f051218" x="72" y="118.368" style="stroke: #000000; stroke-width: 0.8"/>
      </g>
     </g>
     <g id="text_15">
      <!-- 80 -->
      <g transform="translate(52.275 122.167219) scale(0.1 -0.1)">
       <defs>
        <path id="DejaVuSans-38" d="M 2034 2216 
Q 1584 2216 1326 1975 
Q 1069 1734 1069 1313 
Q 1069 891 1326 650 
Q 1584 409 2034 409 
Q 2484 409 2743 651 
Q 3003 894 3003 1313 
Q 3003 1734 2745 1975 
Q 2488 2216 2034 2216 
z
M 1403 2484 
Q 997 2584 770 2862 
Q 544 3141 544 3541 
Q 544 4100 942 4425 
Q 1341 4750 2034 4750 
Q 2731 4750 3128 4425 
Q 3525 4100 3525 3541 
Q 3525 3141 3298 2862 
Q 3072 2584 2669 2484 
Q 3125 2378 3379 2068 
Q 3634 1759 3634 1313 
Q 3634 634 3220 271 
Q 2806 -91 2034 -91 
Q 1263 -91 848 271 
Q 434 634 434 1313 
Q 434 1759 690 2068 
Q 947 2378 1403 2484 
z
M 1172 3481 
Q 1172 3119 1398 2916 
Q 1625 2713 2034 2713 
Q 2441 2713 2670 2916 
Q 2900 3119 2900 3481 
Q 2900 3844 2670 4047 
Q 2441 4250 2034 4250 
Q 1625 4250 1398 4047 
Q 1172 3844 1172 3481 
z
" transform="scale(0.015625)"/>
       </defs>
       <use xlink:href="#DejaVuSans-38"/>
       <use xlink:href="#DejaVuSans-30" x="63.623047"/>
      </g>
     </g>
    </g>
    <g id="ytick_6">
     <g id="line2d_15">
      <g>
       <use xlink:href="#m935f051218" x="72" y="51.84" style="stroke: #000000; stroke-width: 0.8"/>
      </g>
     </g>
     <g id="text_16">
      <!-- 100 -->
      <g transform="translate(45.9125 55.639219) scale(0.1 -0.1)">
       <use xlink:href="#DejaVuSans-31"/>
       <use xlink:href="#DejaVuSans-30" x="63.623047"/>
       <use xlink:href="#DejaVuSans-30" x="127.246094"/>
      </g>
     </g>
    </g>
    <g id="text_17">
     <!-- rate -->
     <g transform="translate(39.832812 228.31625) rotate(-90) scale(0.1 -0.1)">
      <defs>
       <path id="DejaVuSans-72" d="M 2631 2963 
Q 2534 3019 2420 3045 
Q 2306 3072 2169 3072 
Q 1681 3072 1420 2755 
Q 1159 2438 1159 1844 
L 1159 0 
L 581 0 
L 581 3500 
L 1159 3500 
L 1159 2956 
Q 1341 3275 1631 3429 
Q 1922 3584 2338 3584 
Q 2397 3584 2469 3576 
Q 2541 3569 2628 3553 
L 2631 2963 
z
" transform="scale(0.015625)"/>
       <path id="DejaVuSans-61" d="M 2194 1759 
Q 1497 1759 1228 1600 
Q 959 1441 959 1056 
Q 959 750 1161 570 
Q 1363 391 1709 391 
Q 2188 391 2477 730 
Q 2766 1069 2766 1631 
L 2766 1759 
L 2194 1759 
z
M 3341 1997 
L 3341 0 
L 2766 0 
L 2766 531 
Q 2569 213 2275 61 
Q 1981 -91 1556 -91 
Q 1019 -91 701 211 
Q 384 513 384 1019 
Q 384 1609 779 1909 
Q 1175 2209 1959 2209 
L 2766 2209 
L 2766 2266 
Q 2766 2663 2505 2880 
Q 2244 3097 1772 3097 
Q 1472 3097 1187 3025 
Q 903 2953 641 2809 
L 641 3341 
Q 956 3463 1253 3523 
Q 1550 3584 1831 3584 
Q 2591 3584 2966 3190 
Q 3341 2797 3341 1997 
z
" transform="scale(0.015625)"/>
       <path id="DejaVuSans-74" d="M 1172 4494 
L 1172 3500 
L 2356 3500 
L 2356 3053 
L 1172 3053 
L 1172 1153 
Q 1172 725 1289 603 
Q 1406 481 1766 481 
L 2356 481 
L 2356 0 
L 1766 0 
Q 1100 0 847 248 
Q 594 497 594 1153 
L 594 3053 
L 172 3053 
L 172 3500 
L 594 3500 
L 594 4494 
L 1172 4494 
z
" transform="scale(0.015625)"/>
      </defs>
      <use xlink:href="#DejaVuSans-72"/>
      <use xlink:href="#DejaVuSans-61" x="41.113281"/>
      <use xlink:href="#DejaVuSans-74" x="102.392578"/>
      <use xlink:href="#DejaVuSans-65" x="141.601562"/>
     </g>
    </g>
   </g>
   <g id="line2d_16">
    <path d="M 92.290909 282.05582 
L 94.330196 281.456116 
L 96.369484 265.836746 
L 98.408771 268.27447 
L 100.448058 262.010988 
L 102.487346 235.540917 
L 104.526633 246.000366 
L 106.565921 244.755681 
L 108.605208 247.15582 
L 110.644495 221.875426 
L 112.683783 214.424728 
L 114.72307 205.453305 
L 116.762357 240.54077 
L 118.801645 229.696597 
L 120.840932 173.741399 
L 122.880219 149.831833 
L 124.919507 234.84565 
L 126.958794 214.328874 
L 128.998081 176.570585 
L 131.037369 112.6994 
L 133.076656 233.658092 
L 135.115943 187.113389 
L 137.155231 137.797742 
L 139.194518 131.54082 
L 141.233805 269.612002 
L 143.273093 227.534597 
L 145.31238 119.008653 
L 147.351667 163.156923 
L 149.390955 247.061945 
L 151.430242 180.928871 
L 153.469529 162.086893 
L 155.508817 148.238906 
L 157.548104 251.360554 
L 159.587392 167.500566 
L 161.626679 157.815705 
L 163.665966 165.942839 
L 165.705254 247.527563 
L 167.744541 172.019219 
L 169.783828 162.834084 
L 171.823116 186.516958 
L 173.862403 263.601567 
L 175.90169 200.499045 
L 177.940978 185.432271 
L 179.980265 149.640657 
L 182.019552 244.625173 
L 184.05884 212.737698 
L 186.098127 160.0771 
L 188.137414 126.49087 
L 190.176702 241.503285 
L 192.215989 169.294059 
L 194.255276 170.551306 
L 196.294564 171.172747 
L 198.333851 243.400562 
L 200.373138 216.74075 
L 202.412426 134.483422 
L 204.451713 137.908316 
L 206.491 251.246326 
L 208.530288 217.191915 
L 210.569575 187.720136 
L 212.608862 149.722604 
L 214.64815 247.290998 
L 216.687437 214.52274 
L 218.726725 204.794355 
L 220.766012 173.873887 
L 222.805299 249.225036 
L 224.844587 218.883412 
L 226.883874 181.420045 
L 228.923161 131.760572 
L 230.962449 253.714377 
L 233.001736 206.734357 
L 235.041023 209.942506 
L 237.080311 129.090204 
L 239.119598 241.148456 
L 241.158885 215.435779 
L 243.198173 196.664442 
L 245.23746 184.237963 
L 247.276747 238.910663 
L 249.316035 222.434652 
L 251.355322 145.250394 
L 253.394609 155.464141 
L 255.433897 225.942812 
L 257.473184 212.597685 
L 259.512471 225.784387 
L 261.551759 157.931431 
L 263.591046 250.121757 
L 265.630333 218.317689 
L 267.669621 136.506793 
L 269.708908 126.944586 
L 271.748196 250.524906 
L 273.787483 208.903895 
L 275.82677 205.790534 
L 277.866058 167.075275 
L 279.905345 257.018368 
L 281.944632 172.121113 
L 283.98392 168.769893 
L 286.023207 148.56885 
L 288.062494 232.063351 
L 290.101782 212.690113 
L 292.141069 182.395084 
L 294.180356 145.38391 
L 296.219644 242.686655 
L 298.258931 175.309848 
L 300.298218 143.171343 
L 302.337506 113.499404 
L 304.376793 259.263469 
L 308.455368 157.543344 
L 310.494655 135.976282 
L 312.533942 237.29218 
L 314.57323 222.201957 
L 316.612517 161.106144 
L 318.651804 133.349515 
L 320.691092 242.015662 
L 322.730379 188.369113 
L 324.769667 160.931947 
L 326.808954 109.265168 
L 328.848241 242.665984 
L 330.887529 239.378502 
L 332.926816 174.861323 
L 334.966103 123.237687 
L 337.005391 230.189446 
L 339.044678 182.605826 
L 341.083965 146.904204 
L 343.123253 108.166181 
L 345.16254 230.826977 
L 347.201827 167.023884 
L 349.241115 175.577489 
L 351.280402 178.264391 
L 353.319689 205.412065 
L 355.358977 173.009916 
L 357.398264 182.501673 
L 359.437551 133.018707 
L 361.476839 250.241746 
L 363.516126 187.909205 
L 365.555413 201.472954 
L 367.594701 137.82977 
L 369.633988 238.640701 
L 371.673275 193.514904 
L 373.712563 185.824837 
L 375.75185 127.351935 
L 377.791138 235.43934 
L 379.830425 180.879764 
L 381.869712 144.201174 
L 383.909 166.99815 
L 385.948287 239.643567 
L 387.987574 210.432526 
L 390.026862 169.101792 
L 392.066149 190.295411 
L 394.105436 234.300648 
L 396.144724 207.660796 
L 398.184011 163.760118 
L 400.223298 141.852579 
L 402.262586 233.312235 
L 404.301873 220.316239 
L 406.34116 194.298146 
L 408.380448 148.489974 
L 410.419735 217.209616 
L 412.459022 187.181986 
L 414.49831 191.103015 
L 416.537597 175.886078 
L 418.576884 215.435703 
L 420.616172 226.029238 
L 422.655459 206.356206 
L 424.694746 197.491931 
L 426.734034 228.228862 
L 428.773321 230.716213 
L 430.812608 207.653119 
L 432.851896 202.676335 
L 434.891183 225.155713 
L 436.930471 203.899017 
L 438.969758 201.233585 
L 441.009045 171.418512 
L 443.048333 216.114144 
L 445.08762 214.379187 
L 447.126907 212.386017 
L 449.166195 198.415159 
L 451.205482 242.068157 
L 453.244769 222.779633 
L 455.284057 225.305167 
L 457.323344 202.439453 
L 459.362631 244.881596 
L 461.401919 212.781818 
L 463.441206 217.301156 
L 465.480493 229.029196 
L 467.519781 198.640621 
L 469.559068 217.720674 
L 471.598355 211.363622 
L 473.637643 214.368705 
L 475.67693 240.0666 
L 477.716217 195.185616 
L 479.755505 195.241068 
L 481.794792 223.172288 
L 483.834079 223.92203 
L 485.873367 232.384451 
L 487.912654 215.014231 
L 489.951942 215.405109 
L 491.991229 196.155541 
L 494.030516 236.96509 
L 496.069804 239.959059 
L 498.109091 218.860597 
L 498.109091 218.860597 
" clip-path="url(#p940748cee8)" style="fill: none; stroke: #0000ff; stroke-width: 1.5; stroke-linecap: square"/>
   </g>
   <g id="line2d_17">
    <path d="M 92.290909 277.28042 
L 94.330196 275.412747 
L 96.369484 276.589074 
L 98.408771 271.20168 
L 100.448058 217.174328 
L 102.487346 252.362989 
L 104.526633 262.477989 
L 106.565921 250.913742 
L 108.605208 201.751647 
L 110.644495 206.396862 
L 112.683783 201.244612 
L 114.72307 213.035349 
L 116.762357 201.047536 
L 118.801645 239.109681 
L 120.840932 217.312957 
L 122.880219 229.490829 
L 124.919507 219.234091 
L 126.958794 237.111435 
L 128.998081 194.609983 
L 131.037369 223.647423 
L 133.076656 186.287994 
L 135.115943 222.706442 
L 137.155231 209.826108 
L 139.194518 199.724457 
L 141.233805 207.326131 
L 143.273093 227.153236 
L 145.31238 241.707454 
L 147.351667 241.41616 
L 149.390955 239.866427 
L 151.430242 247.88045 
L 153.469529 241.516913 
L 155.508817 240.832393 
L 157.548104 242.174759 
L 159.587392 228.085677 
L 161.626679 251.260626 
L 163.665966 259.957506 
L 165.705254 249.536455 
L 167.744541 197.154423 
L 169.783828 217.507254 
L 171.823116 228.207519 
L 173.862403 231.197693 
L 175.90169 229.955774 
L 177.940978 228.066326 
L 179.980265 237.969581 
L 182.019552 230.513453 
L 184.05884 249.953739 
L 186.098127 237.044144 
L 188.137414 225.321675 
L 190.176702 254.998779 
L 192.215989 236.823263 
L 194.255276 222.853535 
L 196.294564 251.137211 
L 198.333851 248.92401 
L 200.373138 251.760137 
L 202.412426 228.208838 
L 204.451713 234.792025 
L 206.491 215.584065 
L 208.530288 246.089875 
L 210.569575 211.424606 
L 212.608862 238.529403 
L 214.64815 225.041878 
L 216.687437 252.259102 
L 218.726725 257.12129 
L 220.766012 212.86459 
L 222.805299 245.277931 
L 224.844587 241.010778 
L 226.883874 254.049435 
L 228.923161 241.366901 
L 230.962449 254.052214 
L 233.001736 258.324087 
L 235.041023 248.925571 
L 237.080311 254.429858 
L 239.119598 265.506484 
L 241.158885 250.436361 
L 243.198173 264.283295 
L 245.23746 237.695469 
L 247.276747 251.873756 
L 249.316035 242.589151 
L 251.355322 254.007498 
L 253.394609 231.036908 
L 255.433897 266.515974 
L 257.473184 237.322901 
L 259.512471 255.250329 
L 261.551759 250.813484 
L 263.591046 263.498341 
L 265.630333 254.740655 
L 267.669621 252.426828 
L 269.708908 254.462317 
L 271.748196 257.201371 
L 273.787483 248.75447 
L 275.82677 247.662068 
L 277.866058 210.037955 
L 279.905345 263.546407 
L 281.944632 259.185469 
L 283.98392 238.581772 
L 286.023207 241.069555 
L 288.062494 206.609762 
L 290.101782 234.611356 
L 292.141069 248.845197 
L 294.180356 232.994383 
L 296.219644 241.324303 
L 298.258931 252.089105 
L 300.298218 247.08372 
L 302.337506 249.278356 
L 304.376793 203.298437 
L 306.41608 221.854996 
L 308.455368 222.233909 
L 310.494655 227.555839 
L 312.533942 254.532615 
L 314.57323 251.191369 
L 316.612517 239.445476 
L 318.651804 260.886445 
L 320.691092 263.815596 
L 322.730379 259.02259 
L 324.769667 265.783667 
L 326.808954 255.32932 
L 328.848241 248.78387 
L 330.887529 247.967028 
L 332.926816 256.745423 
L 334.966103 253.517275 
L 337.005391 239.175081 
L 339.044678 232.533435 
L 341.083965 236.263136 
L 343.123253 254.283704 
L 345.16254 207.376228 
L 347.201827 255.845162 
L 349.241115 236.296344 
L 351.280402 230.684731 
L 353.319689 208.738503 
L 355.358977 237.688756 
L 357.398264 227.844544 
L 359.437551 238.966103 
L 361.476839 255.61852 
L 363.516126 219.618054 
L 365.555413 229.713334 
L 367.594701 236.846941 
L 369.633988 253.103836 
L 371.673275 240.947434 
L 373.712563 246.788099 
L 375.75185 241.634148 
L 377.791138 242.773868 
L 379.830425 229.188052 
L 381.869712 251.162234 
L 383.909 253.19483 
L 385.948287 217.475836 
L 387.987574 226.564837 
L 390.026862 232.629594 
L 392.066149 225.502497 
L 394.105436 241.7047 
L 396.144724 247.642362 
L 398.184011 241.872553 
L 400.223298 234.965297 
L 402.262586 215.798284 
L 404.301873 247.996619 
L 406.34116 254.203254 
L 408.380448 238.279629 
L 410.419735 249.055026 
L 412.459022 241.365277 
L 414.49831 212.763127 
L 416.537597 256.845147 
L 418.576884 190.827685 
L 420.616172 233.934057 
L 422.655459 195.729894 
L 424.694746 224.788957 
L 426.734034 210.216352 
L 428.773321 222.366752 
L 430.812608 236.694227 
L 432.851896 229.111993 
L 434.891183 227.519091 
L 436.930471 228.569288 
L 438.969758 229.27831 
L 441.009045 230.685645 
L 443.048333 248.367233 
L 445.08762 235.946769 
L 447.126907 246.36716 
L 449.166195 201.405511 
L 451.205482 245.170999 
L 453.244769 227.73968 
L 455.284057 232.90094 
L 457.323344 237.17799 
L 459.362631 224.804451 
L 461.401919 239.681013 
L 463.441206 226.728845 
L 465.480493 250.367458 
L 467.519781 216.347765 
L 469.559068 246.040984 
L 471.598355 216.457349 
L 473.637643 227.52961 
L 475.67693 246.297928 
L 477.716217 224.852505 
L 479.755505 230.319866 
L 481.794792 235.051177 
L 483.834079 246.547004 
L 485.873367 212.203406 
L 487.912654 227.482851 
L 489.951942 224.793068 
L 491.991229 217.303656 
L 494.030516 238.658097 
L 498.109091 245.957159 
L 498.109091 245.957159 
" clip-path="url(#p940748cee8)" style="fill: none; stroke: #008000; stroke-width: 1.5; stroke-linecap: square"/>
   </g>
   <g id="patch_3">
    <path d="M 72 384.48 
L 72 51.84 
" style="fill: none; stroke: #000000; stroke-width: 0.8; stroke-linejoin: miter; stroke-linecap: square"/>
   </g>
   <g id="patch_4">
    <path d="M 518.4 384.48 
L 518.4 51.84 
" style="fill: none; stroke: #000000; stroke-width: 0.8; stroke-linejoin: miter; stroke-linecap: square"/>
   </g>
   <g id="patch_5">
    <path d="M 72 384.48 
L 518.4 384.48 
" style="fill: none; stroke: #000000; stroke-width: 0.8; stroke-linejoin: miter; stroke-linecap: square"/>
   </g>
   <g id="patch_6">
    <path d="M 72 51.84 
L 518.4 51.84 
" style="fill: none; stroke: #000000; stroke-width: 0.8; stroke-linejoin: miter; stroke-linecap: square"/>
   </g>
   <g id="legend_1">
    <g id="patch_7">
     <path d="M 79 89.19625 
L 160.740625 89.19625 
Q 162.740625 89.19625 162.740625 87.19625 
L 162.740625 58.84 
Q 162.740625 56.84 160.740625 56.84 
L 79 56.84 
Q 77 56.84 77 58.84 
L 77 87.19625 
Q 77 89.19625 79 89.19625 
z
" style="fill: #ffffff; opacity: 0.8; stroke: #cccccc; stroke-linejoin: miter"/>
    </g>
    <g id="line2d_18">
     <path d="M 81 64.938437 
L 91 64.938437 
L 101 64.938437 
" style="fill: none; stroke: #0000ff; stroke-width: 1.5; stroke-linecap: square"/>
    </g>
    <g id="text_18">
     <!-- train mAP -->
     <g transform="translate(109 68.438437) scale(0.1 -0.1)">
      <defs>
       <path id="DejaVuSans-69" d="M 603 3500 
L 1178 3500 
L 1178 0 
L 603 0 
L 603 3500 
z
M 603 4863 
L 1178 4863 
L 1178 4134 
L 603 4134 
L 603 4863 
z
" transform="scale(0.015625)"/>
       <path id="DejaVuSans-6e" d="M 3513 2113 
L 3513 0 
L 2938 0 
L 2938 2094 
Q 2938 2591 2744 2837 
Q 2550 3084 2163 3084 
Q 1697 3084 1428 2787 
Q 1159 2491 1159 1978 
L 1159 0 
L 581 0 
L 581 3500 
L 1159 3500 
L 1159 2956 
Q 1366 3272 1645 3428 
Q 1925 3584 2291 3584 
Q 2894 3584 3203 3211 
Q 3513 2838 3513 2113 
z
" transform="scale(0.015625)"/>
       <path id="DejaVuSans-20" transform="scale(0.015625)"/>
       <path id="DejaVuSans-6d" d="M 3328 2828 
Q 3544 3216 3844 3400 
Q 4144 3584 4550 3584 
Q 5097 3584 5394 3201 
Q 5691 2819 5691 2113 
L 5691 0 
L 5113 0 
L 5113 2094 
Q 5113 2597 4934 2840 
Q 4756 3084 4391 3084 
Q 3944 3084 3684 2787 
Q 3425 2491 3425 1978 
L 3425 0 
L 2847 0 
L 2847 2094 
Q 2847 2600 2669 2842 
Q 2491 3084 2119 3084 
Q 1678 3084 1418 2786 
Q 1159 2488 1159 1978 
L 1159 0 
L 581 0 
L 581 3500 
L 1159 3500 
L 1159 2956 
Q 1356 3278 1631 3431 
Q 1906 3584 2284 3584 
Q 2666 3584 2933 3390 
Q 3200 3197 3328 2828 
z
" transform="scale(0.015625)"/>
       <path id="DejaVuSans-41" d="M 2188 4044 
L 1331 1722 
L 3047 1722 
L 2188 4044 
z
M 1831 4666 
L 2547 4666 
L 4325 0 
L 3669 0 
L 3244 1197 
L 1141 1197 
L 716 0 
L 50 0 
L 1831 4666 
z
" transform="scale(0.015625)"/>
       <path id="DejaVuSans-50" d="M 1259 4147 
L 1259 2394 
L 2053 2394 
Q 2494 2394 2734 2622 
Q 2975 2850 2975 3272 
Q 2975 3691 2734 3919 
Q 2494 4147 2053 4147 
L 1259 4147 
z
M 628 4666 
L 2053 4666 
Q 2838 4666 3239 4311 
Q 3641 3956 3641 3272 
Q 3641 2581 3239 2228 
Q 2838 1875 2053 1875 
L 1259 1875 
L 1259 0 
L 628 0 
L 628 4666 
z
" transform="scale(0.015625)"/>
      </defs>
      <use xlink:href="#DejaVuSans-74"/>
      <use xlink:href="#DejaVuSans-72" x="39.208984"/>
      <use xlink:href="#DejaVuSans-61" x="80.322266"/>
      <use xlink:href="#DejaVuSans-69" x="141.601562"/>
      <use xlink:href="#DejaVuSans-6e" x="169.384766"/>
      <use xlink:href="#DejaVuSans-20" x="232.763672"/>
      <use xlink:href="#DejaVuSans-6d" x="264.550781"/>
      <use xlink:href="#DejaVuSans-41" x="361.962891"/>
      <use xlink:href="#DejaVuSans-50" x="430.371094"/>
     </g>
    </g>
    <g id="line2d_19">
     <path d="M 81 79.616562 
L 91 79.616562 
L 101 79.616562 
" style="fill: none; stroke: #008000; stroke-width: 1.5; stroke-linecap: square"/>
    </g>
    <g id="text_19">
     <!-- valid mAP -->
     <g transform="translate(109 83.116562) scale(0.1 -0.1)">
      <defs>
       <path id="DejaVuSans-76" d="M 191 3500 
L 800 3500 
L 1894 563 
L 2988 3500 
L 3597 3500 
L 2284 0 
L 1503 0 
L 191 3500 
z
" transform="scale(0.015625)"/>
       <path id="DejaVuSans-6c" d="M 603 4863 
L 1178 4863 
L 1178 0 
L 603 0 
L 603 4863 
z
" transform="scale(0.015625)"/>
       <path id="DejaVuSans-64" d="M 2906 2969 
L 2906 4863 
L 3481 4863 
L 3481 0 
L 2906 0 
L 2906 525 
Q 2725 213 2448 61 
Q 2172 -91 1784 -91 
Q 1150 -91 751 415 
Q 353 922 353 1747 
Q 353 2572 751 3078 
Q 1150 3584 1784 3584 
Q 2172 3584 2448 3432 
Q 2725 3281 2906 2969 
z
M 947 1747 
Q 947 1113 1208 752 
Q 1469 391 1925 391 
Q 2381 391 2643 752 
Q 2906 1113 2906 1747 
Q 2906 2381 2643 2742 
Q 2381 3103 1925 3103 
Q 1469 3103 1208 2742 
Q 947 2381 947 1747 
z
" transform="scale(0.015625)"/>
      </defs>
      <use xlink:href="#DejaVuSans-76"/>
      <use xlink:href="#DejaVuSans-61" x="59.179688"/>
      <use xlink:href="#DejaVuSans-6c" x="120.458984"/>
      <use xlink:href="#DejaVuSans-69" x="148.242188"/>
      <use xlink:href="#DejaVuSans-64" x="176.025391"/>
      <use xlink:href="#DejaVuSans-20" x="239.501953"/>
      <use xlink:href="#DejaVuSans-6d" x="271.289062"/>
      <use xlink:href="#DejaVuSans-41" x="368.701172"/>
      <use xlink:href="#DejaVuSans-50" x="437.109375"/>
     </g>
    </g>
   </g>
  </g>
  <g id="axes_2">
   <g id="matplotlib.axis_3">
    <g id="ytick_7">
     <g id="line2d_20">
      <defs>
       <path id="m9462cbc5fd" d="M 0 0 
L 3.5 0 
" style="stroke: #000000; stroke-width: 0.8"/>
      </defs>
      <g>
       <use xlink:href="#m9462cbc5fd" x="518.4" y="376.708513" style="stroke: #000000; stroke-width: 0.8"/>
      </g>
     </g>
     <g id="text_20">
      <!-- 1 -->
      <g transform="translate(525.4 380.507732) scale(0.1 -0.1)">
       <use xlink:href="#DejaVuSans-31"/>
      </g>
     </g>
    </g>
    <g id="ytick_8">
     <g id="line2d_21">
      <g>
       <use xlink:href="#m9462cbc5fd" x="518.4" y="328.637926" style="stroke: #000000; stroke-width: 0.8"/>
      </g>
     </g>
     <g id="text_21">
      <!-- 2 -->
      <g transform="translate(525.4 332.437145) scale(0.1 -0.1)">
       <use xlink:href="#DejaVuSans-32"/>
      </g>
     </g>
    </g>
    <g id="ytick_9">
     <g id="line2d_22">
      <g>
       <use xlink:href="#m9462cbc5fd" x="518.4" y="280.567338" style="stroke: #000000; stroke-width: 0.8"/>
      </g>
     </g>
     <g id="text_22">
      <!-- 3 -->
      <g transform="translate(525.4 284.366557) scale(0.1 -0.1)">
       <defs>
        <path id="DejaVuSans-33" d="M 2597 2516 
Q 3050 2419 3304 2112 
Q 3559 1806 3559 1356 
Q 3559 666 3084 287 
Q 2609 -91 1734 -91 
Q 1441 -91 1130 -33 
Q 819 25 488 141 
L 488 750 
Q 750 597 1062 519 
Q 1375 441 1716 441 
Q 2309 441 2620 675 
Q 2931 909 2931 1356 
Q 2931 1769 2642 2001 
Q 2353 2234 1838 2234 
L 1294 2234 
L 1294 2753 
L 1863 2753 
Q 2328 2753 2575 2939 
Q 2822 3125 2822 3475 
Q 2822 3834 2567 4026 
Q 2313 4219 1838 4219 
Q 1578 4219 1281 4162 
Q 984 4106 628 3988 
L 628 4550 
Q 988 4650 1302 4700 
Q 1616 4750 1894 4750 
Q 2613 4750 3031 4423 
Q 3450 4097 3450 3541 
Q 3450 3153 3228 2886 
Q 3006 2619 2597 2516 
z
" transform="scale(0.015625)"/>
       </defs>
       <use xlink:href="#DejaVuSans-33"/>
      </g>
     </g>
    </g>
    <g id="ytick_10">
     <g id="line2d_23">
      <g>
       <use xlink:href="#m9462cbc5fd" x="518.4" y="232.496751" style="stroke: #000000; stroke-width: 0.8"/>
      </g>
     </g>
     <g id="text_23">
      <!-- 4 -->
      <g transform="translate(525.4 236.295969) scale(0.1 -0.1)">
       <use xlink:href="#DejaVuSans-34"/>
      </g>
     </g>
    </g>
    <g id="ytick_11">
     <g id="line2d_24">
      <g>
       <use xlink:href="#m9462cbc5fd" x="518.4" y="184.426163" style="stroke: #000000; stroke-width: 0.8"/>
      </g>
     </g>
     <g id="text_24">
      <!-- 5 -->
      <g transform="translate(525.4 188.225382) scale(0.1 -0.1)">
       <use xlink:href="#DejaVuSans-35"/>
      </g>
     </g>
    </g>
    <g id="ytick_12">
     <g id="line2d_25">
      <g>
       <use xlink:href="#m9462cbc5fd" x="518.4" y="136.355575" style="stroke: #000000; stroke-width: 0.8"/>
      </g>
     </g>
     <g id="text_25">
      <!-- 6 -->
      <g transform="translate(525.4 140.154794) scale(0.1 -0.1)">
       <use xlink:href="#DejaVuSans-36"/>
      </g>
     </g>
    </g>
    <g id="ytick_13">
     <g id="line2d_26">
      <g>
       <use xlink:href="#m9462cbc5fd" x="518.4" y="88.284988" style="stroke: #000000; stroke-width: 0.8"/>
      </g>
     </g>
     <g id="text_26">
      <!-- 7 -->
      <g transform="translate(525.4 92.084207) scale(0.1 -0.1)">
       <use xlink:href="#DejaVuSans-37"/>
      </g>
     </g>
    </g>
    <g id="text_27">
     <!-- loss -->
     <g transform="translate(543.360937 227.817812) rotate(-90) scale(0.1 -0.1)">
      <defs>
       <path id="DejaVuSans-73" d="M 2834 3397 
L 2834 2853 
Q 2591 2978 2328 3040 
Q 2066 3103 1784 3103 
Q 1356 3103 1142 2972 
Q 928 2841 928 2578 
Q 928 2378 1081 2264 
Q 1234 2150 1697 2047 
L 1894 2003 
Q 2506 1872 2764 1633 
Q 3022 1394 3022 966 
Q 3022 478 2636 193 
Q 2250 -91 1575 -91 
Q 1294 -91 989 -36 
Q 684 19 347 128 
L 347 722 
Q 666 556 975 473 
Q 1284 391 1588 391 
Q 1994 391 2212 530 
Q 2431 669 2431 922 
Q 2431 1156 2273 1281 
Q 2116 1406 1581 1522 
L 1381 1569 
Q 847 1681 609 1914 
Q 372 2147 372 2553 
Q 372 3047 722 3315 
Q 1072 3584 1716 3584 
Q 2034 3584 2315 3537 
Q 2597 3491 2834 3397 
z
" transform="scale(0.015625)"/>
      </defs>
      <use xlink:href="#DejaVuSans-6c"/>
      <use xlink:href="#DejaVuSans-6f" x="27.783203"/>
      <use xlink:href="#DejaVuSans-73" x="88.964844"/>
      <use xlink:href="#DejaVuSans-73" x="141.064453"/>
     </g>
    </g>
   </g>
   <g id="line2d_27">
    <path d="M 92.290909 274.252706 
L 94.330196 303.629043 
L 96.369484 322.572294 
L 98.408771 339.959522 
L 100.448058 298.972889 
L 102.487346 338.591804 
L 104.526633 346.881965 
L 106.565921 352.190385 
L 108.605208 320.83075 
L 110.644495 336.913148 
L 112.683783 345.689975 
L 114.72307 362.648987 
L 116.762357 336.923736 
L 118.801645 351.381191 
L 120.840932 364.135496 
L 122.880219 358.513046 
L 124.919507 349.075638 
L 126.958794 361.207317 
L 128.998081 364.885449 
L 131.037369 366.148121 
L 133.076656 318.483811 
L 135.115943 310.98203 
L 137.155231 367.77057 
L 139.194518 360.046358 
L 141.233805 336.005951 
L 143.273093 252.38973 
L 145.31238 344.793 
L 147.351667 327.090568 
L 149.390955 280.175578 
L 151.430242 291.011667 
L 153.469529 304.620896 
L 155.508817 340.707173 
L 157.548104 342.735745 
L 159.587392 351.512229 
L 161.626679 328.435929 
L 163.665966 260.217718 
L 165.705254 351.612241 
L 167.744541 365.308489 
L 169.783828 369.36 
L 171.823116 364.497081 
L 173.862403 327.148941 
L 175.90169 363.063635 
L 177.940978 356.412276 
L 179.980265 361.62492 
L 182.019552 349.620582 
L 184.05884 342.154312 
L 186.098127 355.443784 
L 188.137414 340.569492 
L 190.176702 298.037991 
L 192.215989 329.361361 
L 194.255276 352.527814 
L 196.294564 314.66888 
L 198.333851 314.914942 
L 200.373138 356.399475 
L 202.412426 354.957837 
L 204.451713 352.102161 
L 206.491 335.335184 
L 208.530288 280.053724 
L 210.569575 360.9884 
L 212.608862 352.110402 
L 214.64815 297.135275 
L 216.687437 342.392773 
L 218.726725 280.512561 
L 220.766012 296.898089 
L 222.805299 185.934479 
L 224.844587 316.880107 
L 226.883874 299.174931 
L 228.923161 359.908772 
L 230.962449 329.920181 
L 233.001736 196.552956 
L 235.041023 328.543611 
L 237.080311 335.131743 
L 239.119598 280.432371 
L 241.158885 329.549456 
L 243.198173 269.695533 
L 245.23746 342.187154 
L 247.276747 309.812832 
L 249.316035 341.87714 
L 251.355322 338.896725 
L 253.394609 359.292841 
L 255.433897 156.962756 
L 257.473184 330.723155 
L 259.512471 307.279683 
L 261.551759 338.107188 
L 263.591046 132.579024 
L 265.630333 138.782768 
L 267.669621 258.365812 
L 269.708908 193.428056 
L 271.748196 315.390699 
L 273.787483 344.535241 
L 275.82677 308.92147 
L 277.866058 301.713053 
L 279.905345 209.820823 
L 281.944632 239.841776 
L 283.98392 332.48762 
L 286.023207 298.522018 
L 288.062494 310.538578 
L 290.101782 340.678068 
L 292.141069 302.314687 
L 294.180356 304.003441 
L 296.219644 262.516481 
L 298.258931 276.440631 
L 300.298218 299.849244 
L 302.337506 248.699239 
L 304.376793 311.928919 
L 308.455368 330.045014 
L 310.494655 318.493614 
L 314.57323 260.313039 
L 316.612517 185.900919 
L 318.651804 205.452242 
L 320.691092 219.362362 
L 322.730379 312.770437 
L 324.769667 300.273117 
L 326.808954 307.865462 
L 328.848241 311.857552 
L 330.887529 235.233437 
L 332.926816 281.901892 
L 337.005391 327.713741 
L 339.044678 293.565421 
L 341.083965 325.795013 
L 343.123253 322.585565 
L 345.16254 300.248089 
L 347.201827 295.443867 
L 349.241115 264.773493 
L 351.280402 289.724262 
L 353.319689 322.479507 
L 355.358977 301.540825 
L 357.398264 326.049014 
L 359.437551 331.171337 
L 361.476839 261.453941 
L 363.516126 324.152872 
L 365.555413 318.995598 
L 367.594701 283.959626 
L 369.633988 296.171006 
L 371.673275 313.510348 
L 373.712563 321.817522 
L 375.75185 316.180921 
L 377.791138 268.329769 
L 379.830425 289.467781 
L 381.869712 264.286386 
L 383.909 311.99042 
L 385.948287 286.356256 
L 387.987574 331.843188 
L 390.026862 335.144009 
L 392.066149 300.122881 
L 394.105436 206.094047 
L 396.144724 243.595419 
L 398.184011 253.288082 
L 400.223298 231.531199 
L 402.262586 272.35703 
L 404.301873 256.421489 
L 406.34116 166.741567 
L 408.380448 270.776053 
L 410.419735 270.461329 
L 412.459022 297.285446 
L 414.49831 285.412323 
L 416.537597 287.77999 
L 418.576884 287.548372 
L 420.616172 297.737267 
L 422.655459 268.662903 
L 424.694746 275.572052 
L 426.734034 200.841883 
L 428.773321 245.143095 
L 430.812608 263.069645 
L 432.851896 311.988834 
L 434.891183 258.879839 
L 436.930471 295.641758 
L 438.969758 293.252137 
L 441.009045 305.541533 
L 443.048333 72.41539 
L 445.08762 234.30203 
L 447.126907 247.677493 
L 449.166195 283.191395 
L 451.205482 199.6579 
L 453.244769 235.141323 
L 455.284057 240.889275 
L 457.323344 281.892331 
L 459.362631 135.281676 
L 461.401919 130.966145 
L 463.441206 223.031001 
L 465.480493 202.439512 
L 467.519781 89.578662 
L 473.637643 209.125662 
L 475.67693 105.146559 
L 477.716217 89.408224 
L 481.794792 157.046629 
L 483.834079 76.124289 
L 485.873367 78.767941 
L 487.912654 116.515408 
L 489.951942 161.872313 
L 491.991229 66.96 
L 494.030516 81.551527 
L 496.069804 67.339545 
L 498.109091 92.684569 
L 498.109091 92.684569 
" clip-path="url(#p940748cee8)" style="fill: none; stroke: #ff0000; stroke-width: 1.5; stroke-linecap: square"/>
   </g>
   <g id="patch_8">
    <path d="M 72 384.48 
L 72 51.84 
" style="fill: none; stroke: #000000; stroke-width: 0.8; stroke-linejoin: miter; stroke-linecap: square"/>
   </g>
   <g id="patch_9">
    <path d="M 518.4 384.48 
L 518.4 51.84 
" style="fill: none; stroke: #000000; stroke-width: 0.8; stroke-linejoin: miter; stroke-linecap: square"/>
   </g>
   <g id="patch_10">
    <path d="M 72 384.48 
L 518.4 384.48 
" style="fill: none; stroke: #000000; stroke-width: 0.8; stroke-linejoin: miter; stroke-linecap: square"/>
   </g>
   <g id="patch_11">
    <path d="M 72 51.84 
L 518.4 51.84 
" style="fill: none; stroke: #000000; stroke-width: 0.8; stroke-linejoin: miter; stroke-linecap: square"/>
   </g>
   <g id="text_28">
    <!-- The learning curve on voc/voc_fpsl_200_onecycle/host/1 -->
    <g transform="translate(125.934375 45.84) scale(0.12 -0.12)">
     <defs>
      <path id="DejaVuSans-54" d="M -19 4666 
L 3928 4666 
L 3928 4134 
L 2272 4134 
L 2272 0 
L 1638 0 
L 1638 4134 
L -19 4134 
L -19 4666 
z
" transform="scale(0.015625)"/>
      <path id="DejaVuSans-67" d="M 2906 1791 
Q 2906 2416 2648 2759 
Q 2391 3103 1925 3103 
Q 1463 3103 1205 2759 
Q 947 2416 947 1791 
Q 947 1169 1205 825 
Q 1463 481 1925 481 
Q 2391 481 2648 825 
Q 2906 1169 2906 1791 
z
M 3481 434 
Q 3481 -459 3084 -895 
Q 2688 -1331 1869 -1331 
Q 1566 -1331 1297 -1286 
Q 1028 -1241 775 -1147 
L 775 -588 
Q 1028 -725 1275 -790 
Q 1522 -856 1778 -856 
Q 2344 -856 2625 -561 
Q 2906 -266 2906 331 
L 2906 616 
Q 2728 306 2450 153 
Q 2172 0 1784 0 
Q 1141 0 747 490 
Q 353 981 353 1791 
Q 353 2603 747 3093 
Q 1141 3584 1784 3584 
Q 2172 3584 2450 3431 
Q 2728 3278 2906 2969 
L 2906 3500 
L 3481 3500 
L 3481 434 
z
" transform="scale(0.015625)"/>
      <path id="DejaVuSans-75" d="M 544 1381 
L 544 3500 
L 1119 3500 
L 1119 1403 
Q 1119 906 1312 657 
Q 1506 409 1894 409 
Q 2359 409 2629 706 
Q 2900 1003 2900 1516 
L 2900 3500 
L 3475 3500 
L 3475 0 
L 2900 0 
L 2900 538 
Q 2691 219 2414 64 
Q 2138 -91 1772 -91 
Q 1169 -91 856 284 
Q 544 659 544 1381 
z
M 1991 3584 
L 1991 3584 
z
" transform="scale(0.015625)"/>
      <path id="DejaVuSans-2f" d="M 1625 4666 
L 2156 4666 
L 531 -594 
L 0 -594 
L 1625 4666 
z
" transform="scale(0.015625)"/>
      <path id="DejaVuSans-5f" d="M 3263 -1063 
L 3263 -1509 
L -63 -1509 
L -63 -1063 
L 3263 -1063 
z
" transform="scale(0.015625)"/>
      <path id="DejaVuSans-66" d="M 2375 4863 
L 2375 4384 
L 1825 4384 
Q 1516 4384 1395 4259 
Q 1275 4134 1275 3809 
L 1275 3500 
L 2222 3500 
L 2222 3053 
L 1275 3053 
L 1275 0 
L 697 0 
L 697 3053 
L 147 3053 
L 147 3500 
L 697 3500 
L 697 3744 
Q 697 4328 969 4595 
Q 1241 4863 1831 4863 
L 2375 4863 
z
" transform="scale(0.015625)"/>
      <path id="DejaVuSans-79" d="M 2059 -325 
Q 1816 -950 1584 -1140 
Q 1353 -1331 966 -1331 
L 506 -1331 
L 506 -850 
L 844 -850 
Q 1081 -850 1212 -737 
Q 1344 -625 1503 -206 
L 1606 56 
L 191 3500 
L 800 3500 
L 1894 763 
L 2988 3500 
L 3597 3500 
L 2059 -325 
z
" transform="scale(0.015625)"/>
     </defs>
     <use xlink:href="#DejaVuSans-54"/>
     <use xlink:href="#DejaVuSans-68" x="61.083984"/>
     <use xlink:href="#DejaVuSans-65" x="124.462891"/>
     <use xlink:href="#DejaVuSans-20" x="185.986328"/>
     <use xlink:href="#DejaVuSans-6c" x="217.773438"/>
     <use xlink:href="#DejaVuSans-65" x="245.556641"/>
     <use xlink:href="#DejaVuSans-61" x="307.080078"/>
     <use xlink:href="#DejaVuSans-72" x="368.359375"/>
     <use xlink:href="#DejaVuSans-6e" x="407.722656"/>
     <use xlink:href="#DejaVuSans-69" x="471.101562"/>
     <use xlink:href="#DejaVuSans-6e" x="498.884766"/>
     <use xlink:href="#DejaVuSans-67" x="562.263672"/>
     <use xlink:href="#DejaVuSans-20" x="625.740234"/>
     <use xlink:href="#DejaVuSans-63" x="657.527344"/>
     <use xlink:href="#DejaVuSans-75" x="712.507812"/>
     <use xlink:href="#DejaVuSans-72" x="775.886719"/>
     <use xlink:href="#DejaVuSans-76" x="817"/>
     <use xlink:href="#DejaVuSans-65" x="876.179688"/>
     <use xlink:href="#DejaVuSans-20" x="937.703125"/>
     <use xlink:href="#DejaVuSans-6f" x="969.490234"/>
     <use xlink:href="#DejaVuSans-6e" x="1030.671875"/>
     <use xlink:href="#DejaVuSans-20" x="1094.050781"/>
     <use xlink:href="#DejaVuSans-76" x="1125.837891"/>
     <use xlink:href="#DejaVuSans-6f" x="1185.017578"/>
     <use xlink:href="#DejaVuSans-63" x="1246.199219"/>
     <use xlink:href="#DejaVuSans-2f" x="1301.179688"/>
     <use xlink:href="#DejaVuSans-76" x="1334.871094"/>
     <use xlink:href="#DejaVuSans-6f" x="1394.050781"/>
     <use xlink:href="#DejaVuSans-63" x="1455.232422"/>
     <use xlink:href="#DejaVuSans-5f" x="1510.212891"/>
     <use xlink:href="#DejaVuSans-66" x="1560.212891"/>
     <use xlink:href="#DejaVuSans-70" x="1595.417969"/>
     <use xlink:href="#DejaVuSans-73" x="1658.894531"/>
     <use xlink:href="#DejaVuSans-6c" x="1710.994141"/>
     <use xlink:href="#DejaVuSans-5f" x="1738.777344"/>
     <use xlink:href="#DejaVuSans-32" x="1788.777344"/>
     <use xlink:href="#DejaVuSans-30" x="1852.400391"/>
     <use xlink:href="#DejaVuSans-30" x="1916.023438"/>
     <use xlink:href="#DejaVuSans-5f" x="1979.646484"/>
     <use xlink:href="#DejaVuSans-6f" x="2029.646484"/>
     <use xlink:href="#DejaVuSans-6e" x="2090.828125"/>
     <use xlink:href="#DejaVuSans-65" x="2154.207031"/>
     <use xlink:href="#DejaVuSans-63" x="2215.730469"/>
     <use xlink:href="#DejaVuSans-79" x="2270.710938"/>
     <use xlink:href="#DejaVuSans-63" x="2329.890625"/>
     <use xlink:href="#DejaVuSans-6c" x="2384.871094"/>
     <use xlink:href="#DejaVuSans-65" x="2412.654297"/>
     <use xlink:href="#DejaVuSans-2f" x="2474.177734"/>
     <use xlink:href="#DejaVuSans-68" x="2507.869141"/>
     <use xlink:href="#DejaVuSans-6f" x="2571.248047"/>
     <use xlink:href="#DejaVuSans-73" x="2632.429688"/>
     <use xlink:href="#DejaVuSans-74" x="2684.529297"/>
     <use xlink:href="#DejaVuSans-2f" x="2723.738281"/>
     <use xlink:href="#DejaVuSans-31" x="2757.429688"/>
    </g>
   </g>
   <g id="legend_2">
    <g id="patch_12">
     <path d="M 460.084375 74.518125 
L 511.4 74.518125 
Q 513.4 74.518125 513.4 72.518125 
L 513.4 58.84 
Q 513.4 56.84 511.4 56.84 
L 460.084375 56.84 
Q 458.084375 56.84 458.084375 58.84 
L 458.084375 72.518125 
Q 458.084375 74.518125 460.084375 74.518125 
z
" style="fill: #ffffff; opacity: 0.8; stroke: #cccccc; stroke-linejoin: miter"/>
    </g>
    <g id="line2d_28">
     <path d="M 462.084375 64.938438 
L 472.084375 64.938438 
L 482.084375 64.938438 
" style="fill: none; stroke: #ff0000; stroke-width: 1.5; stroke-linecap: square"/>
    </g>
    <g id="text_29">
     <!-- loss -->
     <g transform="translate(490.084375 68.438438) scale(0.1 -0.1)">
      <use xlink:href="#DejaVuSans-6c"/>
      <use xlink:href="#DejaVuSans-6f" x="27.783203"/>
      <use xlink:href="#DejaVuSans-73" x="88.964844"/>
      <use xlink:href="#DejaVuSans-73" x="141.064453"/>
     </g>
    </g>
   </g>
  </g>
 </g>
 <defs>
  <clipPath id="p940748cee8">
   <rect x="72" y="51.84" width="446.4" height="332.64"/>
  </clipPath>
 </defs>
</svg>
