<?xml version="1.0" encoding="utf-8" standalone="no"?>
<!DOCTYPE svg PUBLIC "-//W3C//DTD SVG 1.1//EN"
  "http://www.w3.org/Graphics/SVG/1.1/DTD/svg11.dtd">
<svg xmlns:xlink="http://www.w3.org/1999/xlink" width="576pt" height="432pt" viewBox="0 0 576 432" xmlns="http://www.w3.org/2000/svg" version="1.1">
 <metadata>
  <rdf:RDF xmlns:dc="http://purl.org/dc/elements/1.1/" xmlns:cc="http://creativecommons.org/ns#" xmlns:rdf="http://www.w3.org/1999/02/22-rdf-syntax-ns#">
   <cc:Work>
    <dc:type rdf:resource="http://purl.org/dc/dcmitype/StillImage"/>
    <dc:date>2023-10-15T21:40:10.217723</dc:date>
    <dc:format>image/svg+xml</dc:format>
    <dc:creator>
     <cc:Agent>
      <dc:title>Matplotlib v3.7.1, https://matplotlib.org/</dc:title>
     </cc:Agent>
    </dc:creator>
   </cc:Work>
  </rdf:RDF>
 </metadata>
 <defs>
  <style type="text/css">*{stroke-linejoin: round; stroke-linecap: butt}</style>
 </defs>
 <g id="figure_1">
  <g id="patch_1">
   <path d="M 0 432 
L 576 432 
L 576 0 
L 0 0 
z
" style="fill: #ffffff"/>
  </g>
  <g id="axes_1">
   <g id="patch_2">
    <path d="M 72 384.48 
L 518.4 384.48 
L 518.4 51.84 
L 72 51.84 
z
" style="fill: #ffffff"/>
   </g>
   <g id="matplotlib.axis_1">
    <g id="xtick_1">
     <g id="line2d_1">
      <defs>
       <path id="m721f8ed9c4" d="M 0 0 
L 0 3.5 
" style="stroke: #000000; stroke-width: 0.8"/>
      </defs>
      <g>
       <use xlink:href="#m721f8ed9c4" x="92.290909" y="384.48" style="stroke: #000000; stroke-width: 0.8"/>
      </g>
     </g>
     <g id="text_1">
      <!-- 0 -->
      <g transform="translate(89.109659 399.078438) scale(0.1 -0.1)">
       <defs>
        <path id="DejaVuSans-30" d="M 2034 4250 
Q 1547 4250 1301 3770 
Q 1056 3291 1056 2328 
Q 1056 1369 1301 889 
Q 1547 409 2034 409 
Q 2525 409 2770 889 
Q 3016 1369 3016 2328 
Q 3016 3291 2770 3770 
Q 2525 4250 2034 4250 
z
M 2034 4750 
Q 2819 4750 3233 4129 
Q 3647 3509 3647 2328 
Q 3647 1150 3233 529 
Q 2819 -91 2034 -91 
Q 1250 -91 836 529 
Q 422 1150 422 2328 
Q 422 3509 836 4129 
Q 1250 4750 2034 4750 
z
" transform="scale(0.015625)"/>
       </defs>
       <use xlink:href="#DejaVuSans-30"/>
      </g>
     </g>
    </g>
    <g id="xtick_2">
     <g id="line2d_2">
      <g>
       <use xlink:href="#m721f8ed9c4" x="143.273093" y="384.48" style="stroke: #000000; stroke-width: 0.8"/>
      </g>
     </g>
     <g id="text_2">
      <!-- 25 -->
      <g transform="translate(136.910593 399.078438) scale(0.1 -0.1)">
       <defs>
        <path id="DejaVuSans-32" d="M 1228 531 
L 3431 531 
L 3431 0 
L 469 0 
L 469 531 
Q 828 903 1448 1529 
Q 2069 2156 2228 2338 
Q 2531 2678 2651 2914 
Q 2772 3150 2772 3378 
Q 2772 3750 2511 3984 
Q 2250 4219 1831 4219 
Q 1534 4219 1204 4116 
Q 875 4013 500 3803 
L 500 4441 
Q 881 4594 1212 4672 
Q 1544 4750 1819 4750 
Q 2544 4750 2975 4387 
Q 3406 4025 3406 3419 
Q 3406 3131 3298 2873 
Q 3191 2616 2906 2266 
Q 2828 2175 2409 1742 
Q 1991 1309 1228 531 
z
" transform="scale(0.015625)"/>
        <path id="DejaVuSans-35" d="M 691 4666 
L 3169 4666 
L 3169 4134 
L 1269 4134 
L 1269 2991 
Q 1406 3038 1543 3061 
Q 1681 3084 1819 3084 
Q 2600 3084 3056 2656 
Q 3513 2228 3513 1497 
Q 3513 744 3044 326 
Q 2575 -91 1722 -91 
Q 1428 -91 1123 -41 
Q 819 9 494 109 
L 494 744 
Q 775 591 1075 516 
Q 1375 441 1709 441 
Q 2250 441 2565 725 
Q 2881 1009 2881 1497 
Q 2881 1984 2565 2268 
Q 2250 2553 1709 2553 
Q 1456 2553 1204 2497 
Q 953 2441 691 2322 
L 691 4666 
z
" transform="scale(0.015625)"/>
       </defs>
       <use xlink:href="#DejaVuSans-32"/>
       <use xlink:href="#DejaVuSans-35" x="63.623047"/>
      </g>
     </g>
    </g>
    <g id="xtick_3">
     <g id="line2d_3">
      <g>
       <use xlink:href="#m721f8ed9c4" x="194.255276" y="384.48" style="stroke: #000000; stroke-width: 0.8"/>
      </g>
     </g>
     <g id="text_3">
      <!-- 50 -->
      <g transform="translate(187.892776 399.078438) scale(0.1 -0.1)">
       <use xlink:href="#DejaVuSans-35"/>
       <use xlink:href="#DejaVuSans-30" x="63.623047"/>
      </g>
     </g>
    </g>
    <g id="xtick_4">
     <g id="line2d_4">
      <g>
       <use xlink:href="#m721f8ed9c4" x="245.23746" y="384.48" style="stroke: #000000; stroke-width: 0.8"/>
      </g>
     </g>
     <g id="text_4">
      <!-- 75 -->
      <g transform="translate(238.87496 399.078438) scale(0.1 -0.1)">
       <defs>
        <path id="DejaVuSans-37" d="M 525 4666 
L 3525 4666 
L 3525 4397 
L 1831 0 
L 1172 0 
L 2766 4134 
L 525 4134 
L 525 4666 
z
" transform="scale(0.015625)"/>
       </defs>
       <use xlink:href="#DejaVuSans-37"/>
       <use xlink:href="#DejaVuSans-35" x="63.623047"/>
      </g>
     </g>
    </g>
    <g id="xtick_5">
     <g id="line2d_5">
      <g>
       <use xlink:href="#m721f8ed9c4" x="296.219644" y="384.48" style="stroke: #000000; stroke-width: 0.8"/>
      </g>
     </g>
     <g id="text_5">
      <!-- 100 -->
      <g transform="translate(286.675894 399.078438) scale(0.1 -0.1)">
       <defs>
        <path id="DejaVuSans-31" d="M 794 531 
L 1825 531 
L 1825 4091 
L 703 3866 
L 703 4441 
L 1819 4666 
L 2450 4666 
L 2450 531 
L 3481 531 
L 3481 0 
L 794 0 
L 794 531 
z
" transform="scale(0.015625)"/>
       </defs>
       <use xlink:href="#DejaVuSans-31"/>
       <use xlink:href="#DejaVuSans-30" x="63.623047"/>
       <use xlink:href="#DejaVuSans-30" x="127.246094"/>
      </g>
     </g>
    </g>
    <g id="xtick_6">
     <g id="line2d_6">
      <g>
       <use xlink:href="#m721f8ed9c4" x="347.201827" y="384.48" style="stroke: #000000; stroke-width: 0.8"/>
      </g>
     </g>
     <g id="text_6">
      <!-- 125 -->
      <g transform="translate(337.658077 399.078438) scale(0.1 -0.1)">
       <use xlink:href="#DejaVuSans-31"/>
       <use xlink:href="#DejaVuSans-32" x="63.623047"/>
       <use xlink:href="#DejaVuSans-35" x="127.246094"/>
      </g>
     </g>
    </g>
    <g id="xtick_7">
     <g id="line2d_7">
      <g>
       <use xlink:href="#m721f8ed9c4" x="398.184011" y="384.48" style="stroke: #000000; stroke-width: 0.8"/>
      </g>
     </g>
     <g id="text_7">
      <!-- 150 -->
      <g transform="translate(388.640261 399.078438) scale(0.1 -0.1)">
       <use xlink:href="#DejaVuSans-31"/>
       <use xlink:href="#DejaVuSans-35" x="63.623047"/>
       <use xlink:href="#DejaVuSans-30" x="127.246094"/>
      </g>
     </g>
    </g>
    <g id="xtick_8">
     <g id="line2d_8">
      <g>
       <use xlink:href="#m721f8ed9c4" x="449.166195" y="384.48" style="stroke: #000000; stroke-width: 0.8"/>
      </g>
     </g>
     <g id="text_8">
      <!-- 175 -->
      <g transform="translate(439.622445 399.078438) scale(0.1 -0.1)">
       <use xlink:href="#DejaVuSans-31"/>
       <use xlink:href="#DejaVuSans-37" x="63.623047"/>
       <use xlink:href="#DejaVuSans-35" x="127.246094"/>
      </g>
     </g>
    </g>
    <g id="xtick_9">
     <g id="line2d_9">
      <g>
       <use xlink:href="#m721f8ed9c4" x="500.148378" y="384.48" style="stroke: #000000; stroke-width: 0.8"/>
      </g>
     </g>
     <g id="text_9">
      <!-- 200 -->
      <g transform="translate(490.604628 399.078438) scale(0.1 -0.1)">
       <use xlink:href="#DejaVuSans-32"/>
       <use xlink:href="#DejaVuSans-30" x="63.623047"/>
       <use xlink:href="#DejaVuSans-30" x="127.246094"/>
      </g>
     </g>
    </g>
    <g id="text_10">
     <!-- epoch -->
     <g transform="translate(279.971875 412.756563) scale(0.1 -0.1)">
      <defs>
       <path id="DejaVuSans-65" d="M 3597 1894 
L 3597 1613 
L 953 1613 
Q 991 1019 1311 708 
Q 1631 397 2203 397 
Q 2534 397 2845 478 
Q 3156 559 3463 722 
L 3463 178 
Q 3153 47 2828 -22 
Q 2503 -91 2169 -91 
Q 1331 -91 842 396 
Q 353 884 353 1716 
Q 353 2575 817 3079 
Q 1281 3584 2069 3584 
Q 2775 3584 3186 3129 
Q 3597 2675 3597 1894 
z
M 3022 2063 
Q 3016 2534 2758 2815 
Q 2500 3097 2075 3097 
Q 1594 3097 1305 2825 
Q 1016 2553 972 2059 
L 3022 2063 
z
" transform="scale(0.015625)"/>
       <path id="DejaVuSans-70" d="M 1159 525 
L 1159 -1331 
L 581 -1331 
L 581 3500 
L 1159 3500 
L 1159 2969 
Q 1341 3281 1617 3432 
Q 1894 3584 2278 3584 
Q 2916 3584 3314 3078 
Q 3713 2572 3713 1747 
Q 3713 922 3314 415 
Q 2916 -91 2278 -91 
Q 1894 -91 1617 61 
Q 1341 213 1159 525 
z
M 3116 1747 
Q 3116 2381 2855 2742 
Q 2594 3103 2138 3103 
Q 1681 3103 1420 2742 
Q 1159 2381 1159 1747 
Q 1159 1113 1420 752 
Q 1681 391 2138 391 
Q 2594 391 2855 752 
Q 3116 1113 3116 1747 
z
" transform="scale(0.015625)"/>
       <path id="DejaVuSans-6f" d="M 1959 3097 
Q 1497 3097 1228 2736 
Q 959 2375 959 1747 
Q 959 1119 1226 758 
Q 1494 397 1959 397 
Q 2419 397 2687 759 
Q 2956 1122 2956 1747 
Q 2956 2369 2687 2733 
Q 2419 3097 1959 3097 
z
M 1959 3584 
Q 2709 3584 3137 3096 
Q 3566 2609 3566 1747 
Q 3566 888 3137 398 
Q 2709 -91 1959 -91 
Q 1206 -91 779 398 
Q 353 888 353 1747 
Q 353 2609 779 3096 
Q 1206 3584 1959 3584 
z
" transform="scale(0.015625)"/>
       <path id="DejaVuSans-63" d="M 3122 3366 
L 3122 2828 
Q 2878 2963 2633 3030 
Q 2388 3097 2138 3097 
Q 1578 3097 1268 2742 
Q 959 2388 959 1747 
Q 959 1106 1268 751 
Q 1578 397 2138 397 
Q 2388 397 2633 464 
Q 2878 531 3122 666 
L 3122 134 
Q 2881 22 2623 -34 
Q 2366 -91 2075 -91 
Q 1284 -91 818 406 
Q 353 903 353 1747 
Q 353 2603 823 3093 
Q 1294 3584 2113 3584 
Q 2378 3584 2631 3529 
Q 2884 3475 3122 3366 
z
" transform="scale(0.015625)"/>
       <path id="DejaVuSans-68" d="M 3513 2113 
L 3513 0 
L 2938 0 
L 2938 2094 
Q 2938 2591 2744 2837 
Q 2550 3084 2163 3084 
Q 1697 3084 1428 2787 
Q 1159 2491 1159 1978 
L 1159 0 
L 581 0 
L 581 4863 
L 1159 4863 
L 1159 2956 
Q 1366 3272 1645 3428 
Q 1925 3584 2291 3584 
Q 2894 3584 3203 3211 
Q 3513 2838 3513 2113 
z
" transform="scale(0.015625)"/>
      </defs>
      <use xlink:href="#DejaVuSans-65"/>
      <use xlink:href="#DejaVuSans-70" x="61.523438"/>
      <use xlink:href="#DejaVuSans-6f" x="125"/>
      <use xlink:href="#DejaVuSans-63" x="186.181641"/>
      <use xlink:href="#DejaVuSans-68" x="241.162109"/>
     </g>
    </g>
   </g>
   <g id="matplotlib.axis_2">
    <g id="ytick_1">
     <g id="line2d_10">
      <defs>
       <path id="m8415b5291c" d="M 0 0 
L -3.5 0 
" style="stroke: #000000; stroke-width: 0.8"/>
      </defs>
      <g>
       <use xlink:href="#m8415b5291c" x="72" y="384.48" style="stroke: #000000; stroke-width: 0.8"/>
      </g>
     </g>
     <g id="text_11">
      <!-- 0 -->
      <g transform="translate(58.6375 388.279219) scale(0.1 -0.1)">
       <use xlink:href="#DejaVuSans-30"/>
      </g>
     </g>
    </g>
    <g id="ytick_2">
     <g id="line2d_11">
      <g>
       <use xlink:href="#m8415b5291c" x="72" y="317.952" style="stroke: #000000; stroke-width: 0.8"/>
      </g>
     </g>
     <g id="text_12">
      <!-- 20 -->
      <g transform="translate(52.275 321.751219) scale(0.1 -0.1)">
       <use xlink:href="#DejaVuSans-32"/>
       <use xlink:href="#DejaVuSans-30" x="63.623047"/>
      </g>
     </g>
    </g>
    <g id="ytick_3">
     <g id="line2d_12">
      <g>
       <use xlink:href="#m8415b5291c" x="72" y="251.424" style="stroke: #000000; stroke-width: 0.8"/>
      </g>
     </g>
     <g id="text_13">
      <!-- 40 -->
      <g transform="translate(52.275 255.223219) scale(0.1 -0.1)">
       <defs>
        <path id="DejaVuSans-34" d="M 2419 4116 
L 825 1625 
L 2419 1625 
L 2419 4116 
z
M 2253 4666 
L 3047 4666 
L 3047 1625 
L 3713 1625 
L 3713 1100 
L 3047 1100 
L 3047 0 
L 2419 0 
L 2419 1100 
L 313 1100 
L 313 1709 
L 2253 4666 
z
" transform="scale(0.015625)"/>
       </defs>
       <use xlink:href="#DejaVuSans-34"/>
       <use xlink:href="#DejaVuSans-30" x="63.623047"/>
      </g>
     </g>
    </g>
    <g id="ytick_4">
     <g id="line2d_13">
      <g>
       <use xlink:href="#m8415b5291c" x="72" y="184.896" style="stroke: #000000; stroke-width: 0.8"/>
      </g>
     </g>
     <g id="text_14">
      <!-- 60 -->
      <g transform="translate(52.275 188.695219) scale(0.1 -0.1)">
       <defs>
        <path id="DejaVuSans-36" d="M 2113 2584 
Q 1688 2584 1439 2293 
Q 1191 2003 1191 1497 
Q 1191 994 1439 701 
Q 1688 409 2113 409 
Q 2538 409 2786 701 
Q 3034 994 3034 1497 
Q 3034 2003 2786 2293 
Q 2538 2584 2113 2584 
z
M 3366 4563 
L 3366 3988 
Q 3128 4100 2886 4159 
Q 2644 4219 2406 4219 
Q 1781 4219 1451 3797 
Q 1122 3375 1075 2522 
Q 1259 2794 1537 2939 
Q 1816 3084 2150 3084 
Q 2853 3084 3261 2657 
Q 3669 2231 3669 1497 
Q 3669 778 3244 343 
Q 2819 -91 2113 -91 
Q 1303 -91 875 529 
Q 447 1150 447 2328 
Q 447 3434 972 4092 
Q 1497 4750 2381 4750 
Q 2619 4750 2861 4703 
Q 3103 4656 3366 4563 
z
" transform="scale(0.015625)"/>
       </defs>
       <use xlink:href="#DejaVuSans-36"/>
       <use xlink:href="#DejaVuSans-30" x="63.623047"/>
      </g>
     </g>
    </g>
    <g id="ytick_5">
     <g id="line2d_14">
      <g>
       <use xlink:href="#m8415b5291c" x="72" y="118.368" style="stroke: #000000; stroke-width: 0.8"/>
      </g>
     </g>
     <g id="text_15">
      <!-- 80 -->
      <g transform="translate(52.275 122.167219) scale(0.1 -0.1)">
       <defs>
        <path id="DejaVuSans-38" d="M 2034 2216 
Q 1584 2216 1326 1975 
Q 1069 1734 1069 1313 
Q 1069 891 1326 650 
Q 1584 409 2034 409 
Q 2484 409 2743 651 
Q 3003 894 3003 1313 
Q 3003 1734 2745 1975 
Q 2488 2216 2034 2216 
z
M 1403 2484 
Q 997 2584 770 2862 
Q 544 3141 544 3541 
Q 544 4100 942 4425 
Q 1341 4750 2034 4750 
Q 2731 4750 3128 4425 
Q 3525 4100 3525 3541 
Q 3525 3141 3298 2862 
Q 3072 2584 2669 2484 
Q 3125 2378 3379 2068 
Q 3634 1759 3634 1313 
Q 3634 634 3220 271 
Q 2806 -91 2034 -91 
Q 1263 -91 848 271 
Q 434 634 434 1313 
Q 434 1759 690 2068 
Q 947 2378 1403 2484 
z
M 1172 3481 
Q 1172 3119 1398 2916 
Q 1625 2713 2034 2713 
Q 2441 2713 2670 2916 
Q 2900 3119 2900 3481 
Q 2900 3844 2670 4047 
Q 2441 4250 2034 4250 
Q 1625 4250 1398 4047 
Q 1172 3844 1172 3481 
z
" transform="scale(0.015625)"/>
       </defs>
       <use xlink:href="#DejaVuSans-38"/>
       <use xlink:href="#DejaVuSans-30" x="63.623047"/>
      </g>
     </g>
    </g>
    <g id="ytick_6">
     <g id="line2d_15">
      <g>
       <use xlink:href="#m8415b5291c" x="72" y="51.84" style="stroke: #000000; stroke-width: 0.8"/>
      </g>
     </g>
     <g id="text_16">
      <!-- 100 -->
      <g transform="translate(45.9125 55.639219) scale(0.1 -0.1)">
       <use xlink:href="#DejaVuSans-31"/>
       <use xlink:href="#DejaVuSans-30" x="63.623047"/>
       <use xlink:href="#DejaVuSans-30" x="127.246094"/>
      </g>
     </g>
    </g>
    <g id="text_17">
     <!-- rate -->
     <g transform="translate(39.832812 228.31625) rotate(-90) scale(0.1 -0.1)">
      <defs>
       <path id="DejaVuSans-72" d="M 2631 2963 
Q 2534 3019 2420 3045 
Q 2306 3072 2169 3072 
Q 1681 3072 1420 2755 
Q 1159 2438 1159 1844 
L 1159 0 
L 581 0 
L 581 3500 
L 1159 3500 
L 1159 2956 
Q 1341 3275 1631 3429 
Q 1922 3584 2338 3584 
Q 2397 3584 2469 3576 
Q 2541 3569 2628 3553 
L 2631 2963 
z
" transform="scale(0.015625)"/>
       <path id="DejaVuSans-61" d="M 2194 1759 
Q 1497 1759 1228 1600 
Q 959 1441 959 1056 
Q 959 750 1161 570 
Q 1363 391 1709 391 
Q 2188 391 2477 730 
Q 2766 1069 2766 1631 
L 2766 1759 
L 2194 1759 
z
M 3341 1997 
L 3341 0 
L 2766 0 
L 2766 531 
Q 2569 213 2275 61 
Q 1981 -91 1556 -91 
Q 1019 -91 701 211 
Q 384 513 384 1019 
Q 384 1609 779 1909 
Q 1175 2209 1959 2209 
L 2766 2209 
L 2766 2266 
Q 2766 2663 2505 2880 
Q 2244 3097 1772 3097 
Q 1472 3097 1187 3025 
Q 903 2953 641 2809 
L 641 3341 
Q 956 3463 1253 3523 
Q 1550 3584 1831 3584 
Q 2591 3584 2966 3190 
Q 3341 2797 3341 1997 
z
" transform="scale(0.015625)"/>
       <path id="DejaVuSans-74" d="M 1172 4494 
L 1172 3500 
L 2356 3500 
L 2356 3053 
L 1172 3053 
L 1172 1153 
Q 1172 725 1289 603 
Q 1406 481 1766 481 
L 2356 481 
L 2356 0 
L 1766 0 
Q 1100 0 847 248 
Q 594 497 594 1153 
L 594 3053 
L 172 3053 
L 172 3500 
L 594 3500 
L 594 4494 
L 1172 4494 
z
" transform="scale(0.015625)"/>
      </defs>
      <use xlink:href="#DejaVuSans-72"/>
      <use xlink:href="#DejaVuSans-61" x="41.113281"/>
      <use xlink:href="#DejaVuSans-74" x="102.392578"/>
      <use xlink:href="#DejaVuSans-65" x="141.601562"/>
     </g>
    </g>
   </g>
   <g id="line2d_16">
    <path d="M 92.290909 196.928758 
L 94.330196 213.258133 
L 96.369484 219.811627 
L 98.408771 204.769814 
L 100.448058 166.881866 
L 102.487346 214.645305 
L 104.526633 167.173083 
L 106.565921 170.168574 
L 108.605208 163.628657 
L 110.644495 138.595995 
L 112.683783 199.61448 
L 114.72307 118.167181 
L 116.762357 192.999557 
L 118.801645 162.85926 
L 120.840932 136.105002 
L 122.880219 122.776434 
L 124.919507 185.898143 
L 126.958794 176.140598 
L 128.998081 100.188424 
L 131.037369 111.493875 
L 133.076656 175.653409 
L 135.115943 186.219396 
L 137.155231 90.067892 
L 139.194518 86.187379 
L 141.233805 143.024529 
L 143.273093 103.213582 
L 145.31238 158.888756 
L 147.351667 83.365756 
L 149.390955 200.256973 
L 151.430242 107.685488 
L 153.469529 112.131863 
L 155.508817 67.798584 
L 157.548104 167.266374 
L 159.587392 149.348298 
L 161.626679 114.069987 
L 163.665966 72.875282 
L 165.705254 201.364855 
L 167.744541 101.257135 
L 169.783828 90.181029 
L 171.823116 95.107665 
L 173.862403 146.831317 
L 175.90169 136.302852 
L 177.940978 141.213804 
L 179.980265 111.294147 
L 182.019552 203.152409 
L 184.05884 139.313773 
L 186.098127 152.005088 
L 188.137414 127.797072 
L 190.176702 149.114131 
L 192.215989 120.409262 
L 194.255276 138.119921 
L 196.294564 62.276976 
L 198.333851 146.727748 
L 200.373138 158.441537 
L 202.412426 69.913037 
L 204.451713 98.520199 
L 206.491 143.564455 
L 208.530288 182.690565 
L 210.569575 122.701314 
L 212.608862 120.02384 
L 214.64815 189.458215 
L 216.687437 133.470417 
L 218.726725 113.489786 
L 220.766012 113.583026 
L 222.805299 177.654979 
L 224.844587 157.055444 
L 226.883874 151.599211 
L 228.923161 86.504127 
L 230.962449 204.70534 
L 233.001736 141.693913 
L 235.041023 129.309118 
L 237.080311 113.940253 
L 239.119598 170.224026 
L 241.158885 183.20864 
L 243.198173 162.850073 
L 245.23746 127.502302 
L 247.276747 176.119902 
L 249.316035 136.413705 
L 251.355322 161.346122 
L 253.394609 95.221589 
L 255.433897 198.837989 
L 257.473184 153.970723 
L 259.512471 101.030302 
L 261.551759 89.292987 
L 263.591046 179.054611 
L 265.630333 117.973899 
L 267.669621 165.932129 
L 269.708908 166.296183 
L 271.748196 170.426343 
L 273.787483 181.844512 
L 275.82677 91.005751 
L 279.905345 164.708382 
L 281.944632 129.724537 
L 283.98392 110.466937 
L 286.023207 119.778862 
L 288.062494 209.672163 
L 290.101782 141.174087 
L 292.141069 126.938723 
L 294.180356 81.431337 
L 296.219644 161.294655 
L 298.258931 134.563212 
L 300.298218 87.610144 
L 302.337506 109.138174 
L 304.376793 212.594259 
L 306.41608 148.881639 
L 308.455368 117.405879 
L 310.494655 108.064312 
L 312.533942 155.323342 
L 314.57323 174.781025 
L 316.612517 122.25539 
L 318.651804 155.703434 
L 320.691092 151.424836 
L 322.730379 133.646544 
L 324.769667 97.226813 
L 326.808954 95.862825 
L 328.848241 160.113087 
L 330.887529 134.334299 
L 332.926816 132.392774 
L 334.966103 114.064074 
L 337.005391 204.467709 
L 339.044678 131.578329 
L 341.083965 116.1448 
L 343.123253 66.315444 
L 345.16254 155.894305 
L 347.201827 162.416356 
L 349.241115 150.142947 
L 351.280402 155.540327 
L 353.319689 183.107608 
L 355.358977 173.40115 
L 357.398264 126.380449 
L 359.437551 119.491376 
L 361.476839 157.885039 
L 363.516126 172.447797 
L 365.555413 171.383084 
L 367.594701 112.862533 
L 369.633988 176.919589 
L 371.673275 170.095154 
L 373.712563 159.011917 
L 375.75185 101.691258 
L 377.791138 188.563651 
L 379.830425 186.358546 
L 381.869712 118.201061 
L 383.909 118.654269 
L 385.948287 145.89564 
L 387.987574 120.210118 
L 390.026862 101.615376 
L 392.066149 92.14042 
L 394.105436 141.939779 
L 396.144724 121.690593 
L 398.184011 104.238033 
L 400.223298 158.948649 
L 402.262586 146.208201 
L 404.301873 148.437517 
L 406.34116 186.161469 
L 408.380448 100.100564 
L 410.419735 202.518215 
L 412.459022 137.538045 
L 414.49831 160.82858 
L 416.537597 131.834093 
L 418.576884 207.611067 
L 420.616172 167.860255 
L 422.655459 107.61585 
L 424.694746 122.791204 
L 426.734034 166.532557 
L 428.773321 129.588154 
L 430.812608 146.713713 
L 432.851896 191.93525 
L 434.891183 176.305202 
L 436.930471 137.479167 
L 438.969758 202.026838 
L 441.009045 130.389579 
L 443.048333 154.15766 
L 445.08762 204.067123 
L 447.126907 151.574467 
L 449.166195 186.645893 
L 451.205482 185.098025 
L 453.244769 162.625144 
L 455.284057 134.761722 
L 457.323344 137.833094 
L 459.362631 173.817978 
L 461.401919 162.603598 
L 463.441206 97.663398 
L 465.480493 144.441634 
L 467.519781 210.853135 
L 469.559068 153.094609 
L 471.598355 161.540369 
L 473.637643 174.461879 
L 475.67693 166.712998 
L 477.716217 164.012481 
L 479.755505 171.727862 
L 481.794792 151.45732 
L 483.834079 169.61771 
L 485.873367 159.653813 
L 487.912654 188.336768 
L 489.951942 209.252289 
L 491.991229 157.626332 
L 494.030516 148.929122 
L 496.069804 130.909507 
L 498.109091 171.361436 
L 498.109091 171.361436 
" clip-path="url(#p032bebc2b7)" style="fill: none; stroke: #0000ff; stroke-width: 1.5; stroke-linecap: square"/>
   </g>
   <g id="line2d_17">
    <path d="M 92.290909 165.874317 
L 94.330196 175.141259 
L 96.369484 150.587703 
L 98.408771 143.664573 
L 100.448058 130.100163 
L 102.487346 99.498613 
L 104.526633 113.729307 
L 106.565921 129.108096 
L 108.605208 63.596045 
L 110.644495 62.711505 
L 112.683783 83.532924 
L 114.72307 119.81759 
L 116.762357 106.746334 
L 118.801645 111.519253 
L 120.840932 136.399188 
L 122.880219 135.938595 
L 124.919507 74.020306 
L 126.958794 123.95417 
L 128.998081 80.711148 
L 131.037369 128.987117 
L 133.076656 89.734724 
L 135.115943 109.309884 
L 137.155231 86.486743 
L 139.194518 82.212155 
L 141.233805 112.693944 
L 143.273093 136.392742 
L 145.31238 113.460119 
L 147.351667 102.413502 
L 149.390955 120.581125 
L 151.430242 127.740326 
L 153.469529 132.622778 
L 155.508817 146.596719 
L 157.548104 67.584009 
L 159.587392 94.237033 
L 161.626679 101.324793 
L 163.665966 116.287173 
L 165.705254 106.803258 
L 167.744541 113.107358 
L 169.783828 84.319426 
L 171.823116 107.511671 
L 173.862403 97.961138 
L 175.90169 115.564446 
L 177.940978 109.549203 
L 179.980265 98.450383 
L 182.019552 130.665239 
L 184.05884 153.258325 
L 186.098127 148.431477 
L 188.137414 152.728678 
L 190.176702 98.289915 
L 192.215989 100.615517 
L 194.255276 151.730392 
L 196.294564 73.017554 
L 198.333851 97.222118 
L 200.373138 111.444691 
L 202.412426 148.985462 
L 204.451713 110.734959 
L 206.491 94.867027 
L 208.530288 93.196416 
L 210.569575 86.727737 
L 212.608862 93.540852 
L 214.64815 116.830804 
L 216.687437 123.158379 
L 218.726725 140.220645 
L 220.766012 105.941458 
L 222.805299 137.746605 
L 224.844587 138.25798 
L 226.883874 107.6729 
L 228.923161 101.849974 
L 230.962449 120.761819 
L 233.001736 111.314373 
L 235.041023 123.80091 
L 237.080311 141.902904 
L 239.119598 116.045316 
L 241.158885 114.61575 
L 243.198173 104.133601 
L 245.23746 120.655534 
L 247.276747 74.464657 
L 249.316035 116.171523 
L 251.355322 115.372788 
L 253.394609 122.014447 
L 255.433897 90.587642 
L 257.473184 102.709922 
L 261.551759 125.055771 
L 263.591046 87.629153 
L 265.630333 129.386878 
L 267.669621 103.409529 
L 269.708908 105.19886 
L 271.748196 94.462622 
L 273.787483 154.962714 
L 275.82677 122.847773 
L 277.866058 146.107169 
L 279.905345 79.462961 
L 281.944632 72.057234 
L 283.98392 114.103512 
L 286.023207 73.486623 
L 288.062494 98.557708 
L 290.101782 101.714048 
L 292.141069 81.966847 
L 294.180356 130.39968 
L 296.219644 111.878231 
L 298.258931 88.148395 
L 300.298218 90.636317 
L 302.337506 85.008323 
L 304.376793 90.42022 
L 306.41608 131.74971 
L 308.455368 90.063577 
L 310.494655 67.378622 
L 312.533942 128.870376 
L 314.57323 118.951196 
L 316.612517 132.54309 
L 318.651804 98.462641 
L 320.691092 88.099186 
L 322.730379 106.67464 
L 324.769667 70.070054 
L 326.808954 126.987932 
L 328.848241 78.138842 
L 330.887529 99.458033 
L 332.926816 98.188859 
L 334.966103 81.674361 
L 337.005391 114.345648 
L 339.044678 86.951371 
L 341.083965 128.400647 
L 343.123253 132.019559 
L 345.16254 88.375177 
L 347.201827 143.263264 
L 349.241115 111.991165 
L 351.280402 135.093215 
L 353.319689 125.119421 
L 355.358977 131.357436 
L 357.398264 127.880542 
L 359.437551 120.509888 
L 361.476839 125.080617 
L 363.516126 79.961647 
L 365.555413 127.400763 
L 367.594701 88.677586 
L 369.633988 87.063924 
L 371.673275 142.411513 
L 373.712563 91.905949 
L 375.75185 116.367597 
L 377.791138 88.71847 
L 379.830425 134.053182 
L 381.869712 123.672851 
L 383.909 129.77263 
L 385.948287 131.078375 
L 387.987574 75.374371 
L 390.026862 109.384345 
L 392.066149 90.008735 
L 394.105436 80.78604 
L 396.144724 103.729932 
L 398.184011 99.909566 
L 400.223298 116.384423 
L 402.262586 80.638617 
L 404.301873 114.353819 
L 406.34116 118.351174 
L 408.380448 106.186613 
L 410.419735 72.996211 
L 412.459022 106.492601 
L 414.49831 120.686623 
L 416.537597 132.602044 
L 418.576884 97.710399 
L 420.616172 114.297936 
L 422.655459 84.218369 
L 424.694746 91.29405 
L 426.734034 97.565463 
L 428.773321 83.039643 
L 430.812608 86.777148 
L 432.851896 92.855279 
L 434.891183 95.570389 
L 436.930471 126.994251 
L 438.969758 129.651067 
L 441.009045 85.244393 
L 443.048333 84.523418 
L 445.08762 80.911181 
L 447.126907 83.781074 
L 449.166195 81.499529 
L 451.205482 91.219184 
L 453.244769 116.867983 
L 455.284057 77.675103 
L 457.323344 86.630207 
L 461.401919 127.471188 
L 463.441206 95.659189 
L 465.480493 90.218056 
L 467.519781 76.713261 
L 469.559068 98.69191 
L 471.598355 70.909216 
L 473.637643 71.216371 
L 475.67693 84.262782 
L 477.716217 107.530984 
L 479.755505 84.751519 
L 481.794792 106.257673 
L 483.834079 119.396054 
L 485.873367 73.090618 
L 487.912654 122.804046 
L 491.991229 131.595434 
L 494.030516 92.272312 
L 496.069804 116.903792 
L 498.109091 133.532671 
L 498.109091 133.532671 
" clip-path="url(#p032bebc2b7)" style="fill: none; stroke: #008000; stroke-width: 1.5; stroke-linecap: square"/>
   </g>
   <g id="patch_3">
    <path d="M 72 384.48 
L 72 51.84 
" style="fill: none; stroke: #000000; stroke-width: 0.8; stroke-linejoin: miter; stroke-linecap: square"/>
   </g>
   <g id="patch_4">
    <path d="M 518.4 384.48 
L 518.4 51.84 
" style="fill: none; stroke: #000000; stroke-width: 0.8; stroke-linejoin: miter; stroke-linecap: square"/>
   </g>
   <g id="patch_5">
    <path d="M 72 384.48 
L 518.4 384.48 
" style="fill: none; stroke: #000000; stroke-width: 0.8; stroke-linejoin: miter; stroke-linecap: square"/>
   </g>
   <g id="patch_6">
    <path d="M 72 51.84 
L 518.4 51.84 
" style="fill: none; stroke: #000000; stroke-width: 0.8; stroke-linejoin: miter; stroke-linecap: square"/>
   </g>
   <g id="legend_1">
    <g id="patch_7">
     <path d="M 79 89.19625 
L 160.740625 89.19625 
Q 162.740625 89.19625 162.740625 87.19625 
L 162.740625 58.84 
Q 162.740625 56.84 160.740625 56.84 
L 79 56.84 
Q 77 56.84 77 58.84 
L 77 87.19625 
Q 77 89.19625 79 89.19625 
z
" style="fill: #ffffff; opacity: 0.8; stroke: #cccccc; stroke-linejoin: miter"/>
    </g>
    <g id="line2d_18">
     <path d="M 81 64.938437 
L 91 64.938437 
L 101 64.938437 
" style="fill: none; stroke: #0000ff; stroke-width: 1.5; stroke-linecap: square"/>
    </g>
    <g id="text_18">
     <!-- train mAP -->
     <g transform="translate(109 68.438437) scale(0.1 -0.1)">
      <defs>
       <path id="DejaVuSans-69" d="M 603 3500 
L 1178 3500 
L 1178 0 
L 603 0 
L 603 3500 
z
M 603 4863 
L 1178 4863 
L 1178 4134 
L 603 4134 
L 603 4863 
z
" transform="scale(0.015625)"/>
       <path id="DejaVuSans-6e" d="M 3513 2113 
L 3513 0 
L 2938 0 
L 2938 2094 
Q 2938 2591 2744 2837 
Q 2550 3084 2163 3084 
Q 1697 3084 1428 2787 
Q 1159 2491 1159 1978 
L 1159 0 
L 581 0 
L 581 3500 
L 1159 3500 
L 1159 2956 
Q 1366 3272 1645 3428 
Q 1925 3584 2291 3584 
Q 2894 3584 3203 3211 
Q 3513 2838 3513 2113 
z
" transform="scale(0.015625)"/>
       <path id="DejaVuSans-20" transform="scale(0.015625)"/>
       <path id="DejaVuSans-6d" d="M 3328 2828 
Q 3544 3216 3844 3400 
Q 4144 3584 4550 3584 
Q 5097 3584 5394 3201 
Q 5691 2819 5691 2113 
L 5691 0 
L 5113 0 
L 5113 2094 
Q 5113 2597 4934 2840 
Q 4756 3084 4391 3084 
Q 3944 3084 3684 2787 
Q 3425 2491 3425 1978 
L 3425 0 
L 2847 0 
L 2847 2094 
Q 2847 2600 2669 2842 
Q 2491 3084 2119 3084 
Q 1678 3084 1418 2786 
Q 1159 2488 1159 1978 
L 1159 0 
L 581 0 
L 581 3500 
L 1159 3500 
L 1159 2956 
Q 1356 3278 1631 3431 
Q 1906 3584 2284 3584 
Q 2666 3584 2933 3390 
Q 3200 3197 3328 2828 
z
" transform="scale(0.015625)"/>
       <path id="DejaVuSans-41" d="M 2188 4044 
L 1331 1722 
L 3047 1722 
L 2188 4044 
z
M 1831 4666 
L 2547 4666 
L 4325 0 
L 3669 0 
L 3244 1197 
L 1141 1197 
L 716 0 
L 50 0 
L 1831 4666 
z
" transform="scale(0.015625)"/>
       <path id="DejaVuSans-50" d="M 1259 4147 
L 1259 2394 
L 2053 2394 
Q 2494 2394 2734 2622 
Q 2975 2850 2975 3272 
Q 2975 3691 2734 3919 
Q 2494 4147 2053 4147 
L 1259 4147 
z
M 628 4666 
L 2053 4666 
Q 2838 4666 3239 4311 
Q 3641 3956 3641 3272 
Q 3641 2581 3239 2228 
Q 2838 1875 2053 1875 
L 1259 1875 
L 1259 0 
L 628 0 
L 628 4666 
z
" transform="scale(0.015625)"/>
      </defs>
      <use xlink:href="#DejaVuSans-74"/>
      <use xlink:href="#DejaVuSans-72" x="39.208984"/>
      <use xlink:href="#DejaVuSans-61" x="80.322266"/>
      <use xlink:href="#DejaVuSans-69" x="141.601562"/>
      <use xlink:href="#DejaVuSans-6e" x="169.384766"/>
      <use xlink:href="#DejaVuSans-20" x="232.763672"/>
      <use xlink:href="#DejaVuSans-6d" x="264.550781"/>
      <use xlink:href="#DejaVuSans-41" x="361.962891"/>
      <use xlink:href="#DejaVuSans-50" x="430.371094"/>
     </g>
    </g>
    <g id="line2d_19">
     <path d="M 81 79.616562 
L 91 79.616562 
L 101 79.616562 
" style="fill: none; stroke: #008000; stroke-width: 1.5; stroke-linecap: square"/>
    </g>
    <g id="text_19">
     <!-- valid mAP -->
     <g transform="translate(109 83.116562) scale(0.1 -0.1)">
      <defs>
       <path id="DejaVuSans-76" d="M 191 3500 
L 800 3500 
L 1894 563 
L 2988 3500 
L 3597 3500 
L 2284 0 
L 1503 0 
L 191 3500 
z
" transform="scale(0.015625)"/>
       <path id="DejaVuSans-6c" d="M 603 4863 
L 1178 4863 
L 1178 0 
L 603 0 
L 603 4863 
z
" transform="scale(0.015625)"/>
       <path id="DejaVuSans-64" d="M 2906 2969 
L 2906 4863 
L 3481 4863 
L 3481 0 
L 2906 0 
L 2906 525 
Q 2725 213 2448 61 
Q 2172 -91 1784 -91 
Q 1150 -91 751 415 
Q 353 922 353 1747 
Q 353 2572 751 3078 
Q 1150 3584 1784 3584 
Q 2172 3584 2448 3432 
Q 2725 3281 2906 2969 
z
M 947 1747 
Q 947 1113 1208 752 
Q 1469 391 1925 391 
Q 2381 391 2643 752 
Q 2906 1113 2906 1747 
Q 2906 2381 2643 2742 
Q 2381 3103 1925 3103 
Q 1469 3103 1208 2742 
Q 947 2381 947 1747 
z
" transform="scale(0.015625)"/>
      </defs>
      <use xlink:href="#DejaVuSans-76"/>
      <use xlink:href="#DejaVuSans-61" x="59.179688"/>
      <use xlink:href="#DejaVuSans-6c" x="120.458984"/>
      <use xlink:href="#DejaVuSans-69" x="148.242188"/>
      <use xlink:href="#DejaVuSans-64" x="176.025391"/>
      <use xlink:href="#DejaVuSans-20" x="239.501953"/>
      <use xlink:href="#DejaVuSans-6d" x="271.289062"/>
      <use xlink:href="#DejaVuSans-41" x="368.701172"/>
      <use xlink:href="#DejaVuSans-50" x="437.109375"/>
     </g>
    </g>
   </g>
  </g>
  <g id="axes_2">
   <g id="matplotlib.axis_3">
    <g id="ytick_7">
     <g id="line2d_20">
      <defs>
       <path id="m59ff260a1b" d="M 0 0 
L 3.5 0 
" style="stroke: #000000; stroke-width: 0.8"/>
      </defs>
      <g>
       <use xlink:href="#m59ff260a1b" x="518.4" y="339.722677" style="stroke: #000000; stroke-width: 0.8"/>
      </g>
     </g>
     <g id="text_20">
      <!-- 2 -->
      <g transform="translate(525.4 343.521896) scale(0.1 -0.1)">
       <use xlink:href="#DejaVuSans-32"/>
      </g>
     </g>
    </g>
    <g id="ytick_8">
     <g id="line2d_21">
      <g>
       <use xlink:href="#m59ff260a1b" x="518.4" y="267.02942" style="stroke: #000000; stroke-width: 0.8"/>
      </g>
     </g>
     <g id="text_21">
      <!-- 4 -->
      <g transform="translate(525.4 270.828638) scale(0.1 -0.1)">
       <use xlink:href="#DejaVuSans-34"/>
      </g>
     </g>
    </g>
    <g id="ytick_9">
     <g id="line2d_22">
      <g>
       <use xlink:href="#m59ff260a1b" x="518.4" y="194.336162" style="stroke: #000000; stroke-width: 0.8"/>
      </g>
     </g>
     <g id="text_22">
      <!-- 6 -->
      <g transform="translate(525.4 198.135381) scale(0.1 -0.1)">
       <use xlink:href="#DejaVuSans-36"/>
      </g>
     </g>
    </g>
    <g id="ytick_10">
     <g id="line2d_23">
      <g>
       <use xlink:href="#m59ff260a1b" x="518.4" y="121.642905" style="stroke: #000000; stroke-width: 0.8"/>
      </g>
     </g>
     <g id="text_23">
      <!-- 8 -->
      <g transform="translate(525.4 125.442123) scale(0.1 -0.1)">
       <use xlink:href="#DejaVuSans-38"/>
      </g>
     </g>
    </g>
    <g id="text_24">
     <!-- loss -->
     <g transform="translate(543.360937 227.817812) rotate(-90) scale(0.1 -0.1)">
      <defs>
       <path id="DejaVuSans-73" d="M 2834 3397 
L 2834 2853 
Q 2591 2978 2328 3040 
Q 2066 3103 1784 3103 
Q 1356 3103 1142 2972 
Q 928 2841 928 2578 
Q 928 2378 1081 2264 
Q 1234 2150 1697 2047 
L 1894 2003 
Q 2506 1872 2764 1633 
Q 3022 1394 3022 966 
Q 3022 478 2636 193 
Q 2250 -91 1575 -91 
Q 1294 -91 989 -36 
Q 684 19 347 128 
L 347 722 
Q 666 556 975 473 
Q 1284 391 1588 391 
Q 1994 391 2212 530 
Q 2431 669 2431 922 
Q 2431 1156 2273 1281 
Q 2116 1406 1581 1522 
L 1381 1569 
Q 847 1681 609 1914 
Q 372 2147 372 2553 
Q 372 3047 722 3315 
Q 1072 3584 1716 3584 
Q 2034 3584 2315 3537 
Q 2597 3491 2834 3397 
z
" transform="scale(0.015625)"/>
      </defs>
      <use xlink:href="#DejaVuSans-6c"/>
      <use xlink:href="#DejaVuSans-6f" x="27.783203"/>
      <use xlink:href="#DejaVuSans-73" x="88.964844"/>
      <use xlink:href="#DejaVuSans-73" x="141.064453"/>
     </g>
    </g>
   </g>
   <g id="line2d_24">
    <path d="M 92.290909 204.099739 
L 94.330196 157.868187 
L 96.369484 225.005918 
L 98.408771 227.112041 
L 100.448058 316.903091 
L 102.487346 311.183738 
L 104.526633 328.394751 
L 106.565921 334.527183 
L 108.605208 346.54387 
L 110.644495 331.136556 
L 112.683783 328.951762 
L 114.72307 303.927888 
L 116.762357 339.064672 
L 118.801645 335.166283 
L 120.840932 314.032384 
L 122.880219 328.828837 
L 124.919507 346.911021 
L 126.958794 329.557639 
L 128.998081 355.030307 
L 131.037369 344.943998 
L 133.076656 318.748366 
L 135.115943 348.89343 
L 137.155231 337.877862 
L 139.194518 369.36 
L 141.233805 313.227585 
L 143.273093 186.564187 
L 145.31238 259.671829 
L 147.351667 220.635777 
L 149.390955 310.251097 
L 151.430242 310.267529 
L 153.469529 331.404864 
L 155.508817 350.124708 
L 157.548104 357.400067 
L 159.587392 367.338917 
L 161.626679 361.40514 
L 163.665966 366.307579 
L 165.705254 328.920044 
L 167.744541 352.341907 
L 169.783828 349.734875 
L 171.823116 357.73828 
L 173.862403 346.283745 
L 175.90169 364.024624 
L 177.940978 364.718169 
L 179.980265 352.887941 
L 182.019552 323.164429 
L 184.05884 320.357871 
L 186.098127 331.176814 
L 188.137414 304.347922 
L 190.176702 364.795032 
L 192.215989 328.139437 
L 194.255276 322.474168 
L 196.294564 363.208245 
L 198.333851 353.670036 
L 200.373138 346.292171 
L 202.412426 298.289354 
L 204.451713 323.48814 
L 206.491 331.665366 
L 208.530288 346.274067 
L 210.569575 345.796412 
L 212.608862 355.165622 
L 214.64815 329.590009 
L 216.687437 335.668497 
L 218.726725 337.395715 
L 220.766012 335.119236 
L 222.805299 336.424011 
L 224.844587 337.376489 
L 226.883874 344.23745 
L 228.923161 366.653741 
L 230.962449 349.686175 
L 233.001736 325.289887 
L 235.041023 338.637332 
L 237.080311 315.934299 
L 239.119598 329.565775 
L 241.158885 315.232876 
L 243.198173 339.420346 
L 245.23746 355.557408 
L 247.276747 349.762072 
L 249.316035 327.8778 
L 251.355322 315.166064 
L 253.394609 333.217286 
L 255.433897 353.065951 
L 257.473184 308.70104 
L 259.512471 304.099261 
L 261.551759 345.778153 
L 263.591046 321.984808 
L 265.630333 277.731024 
L 267.669621 319.404661 
L 269.708908 329.708089 
L 271.748196 354.233414 
L 273.787483 270.02684 
L 275.82677 354.913458 
L 277.866058 284.594359 
L 279.905345 335.792607 
L 281.944632 355.991445 
L 283.98392 318.958867 
L 286.023207 358.27665 
L 288.062494 325.176839 
L 290.101782 309.68169 
L 292.141069 167.603139 
L 294.180356 308.410696 
L 298.258931 331.44219 
L 300.298218 323.597999 
L 302.337506 289.317837 
L 304.376793 335.308507 
L 306.41608 299.74174 
L 308.455368 258.225742 
L 310.494655 344.693172 
L 312.533942 272.510482 
L 314.57323 319.003867 
L 316.612517 240.246688 
L 320.691092 317.033868 
L 322.730379 312.090359 
L 324.769667 365.461258 
L 326.808954 315.727894 
L 328.848241 330.269052 
L 330.887529 338.110705 
L 332.926816 345.498985 
L 334.966103 347.96246 
L 337.005391 328.619751 
L 339.044678 326.364761 
L 341.083965 312.697123 
L 343.123253 313.74815 
L 345.16254 311.283017 
L 347.201827 299.86419 
L 349.241115 306.870621 
L 351.280402 329.728822 
L 353.319689 251.245298 
L 355.358977 323.967968 
L 357.398264 303.460528 
L 359.437551 333.852895 
L 361.476839 318.357094 
L 363.516126 344.387081 
L 365.555413 214.056068 
L 367.594701 319.211152 
L 369.633988 314.265009 
L 371.673275 312.460569 
L 373.712563 321.509294 
L 375.75185 311.324677 
L 377.791138 307.602431 
L 379.830425 279.514252 
L 381.869712 274.871634 
L 383.909 305.55096 
L 385.948287 265.045194 
L 387.987574 342.317114 
L 390.026862 318.530379 
L 392.066149 333.319459 
L 394.105436 295.792296 
L 396.144724 322.506571 
L 398.184011 271.495765 
L 400.223298 327.05519 
L 402.262586 263.898669 
L 404.301873 340.341673 
L 406.34116 304.380425 
L 408.380448 296.049064 
L 410.419735 268.02043 
L 412.459022 287.992164 
L 414.49831 275.126032 
L 416.537597 286.277951 
L 418.576884 277.299874 
L 420.616172 275.917433 
L 422.655459 308.643945 
L 424.694746 258.548361 
L 426.734034 279.780928 
L 428.773321 259.662796 
L 430.812608 282.23085 
L 432.851896 280.423897 
L 434.891183 247.181182 
L 436.930471 259.022676 
L 438.969758 224.696956 
L 441.009045 240.748258 
L 443.048333 189.056842 
L 445.08762 270.270087 
L 447.126907 191.710517 
L 449.166195 234.190678 
L 451.205482 171.369571 
L 453.244769 165.67838 
L 455.284057 219.272261 
L 457.323344 199.242871 
L 459.362631 202.3058 
L 461.401919 178.51886 
L 463.441206 219.645589 
L 465.480493 195.466549 
L 467.519781 221.282865 
L 469.559068 161.095787 
L 471.598355 198.207875 
L 473.637643 150.800439 
L 475.67693 226.201139 
L 477.716217 185.332936 
L 479.755505 180.417894 
L 481.794792 199.009255 
L 483.834079 168.372786 
L 485.873367 140.038269 
L 487.912654 158.757734 
L 489.951942 100.768422 
L 491.991229 158.648253 
L 494.030516 91.158171 
L 496.069804 66.96 
L 498.109091 96.640455 
L 498.109091 96.640455 
" clip-path="url(#p032bebc2b7)" style="fill: none; stroke: #ff0000; stroke-width: 1.5; stroke-linecap: square"/>
   </g>
   <g id="patch_8">
    <path d="M 72 384.48 
L 72 51.84 
" style="fill: none; stroke: #000000; stroke-width: 0.8; stroke-linejoin: miter; stroke-linecap: square"/>
   </g>
   <g id="patch_9">
    <path d="M 518.4 384.48 
L 518.4 51.84 
" style="fill: none; stroke: #000000; stroke-width: 0.8; stroke-linejoin: miter; stroke-linecap: square"/>
   </g>
   <g id="patch_10">
    <path d="M 72 384.48 
L 518.4 384.48 
" style="fill: none; stroke: #000000; stroke-width: 0.8; stroke-linejoin: miter; stroke-linecap: square"/>
   </g>
   <g id="patch_11">
    <path d="M 72 51.84 
L 518.4 51.84 
" style="fill: none; stroke: #000000; stroke-width: 0.8; stroke-linejoin: miter; stroke-linecap: square"/>
   </g>
   <g id="text_25">
    <!-- The learning curve on voc/voc_fpsl_200_onecycle/host/2 -->
    <g transform="translate(125.934375 45.84) scale(0.12 -0.12)">
     <defs>
      <path id="DejaVuSans-54" d="M -19 4666 
L 3928 4666 
L 3928 4134 
L 2272 4134 
L 2272 0 
L 1638 0 
L 1638 4134 
L -19 4134 
L -19 4666 
z
" transform="scale(0.015625)"/>
      <path id="DejaVuSans-67" d="M 2906 1791 
Q 2906 2416 2648 2759 
Q 2391 3103 1925 3103 
Q 1463 3103 1205 2759 
Q 947 2416 947 1791 
Q 947 1169 1205 825 
Q 1463 481 1925 481 
Q 2391 481 2648 825 
Q 2906 1169 2906 1791 
z
M 3481 434 
Q 3481 -459 3084 -895 
Q 2688 -1331 1869 -1331 
Q 1566 -1331 1297 -1286 
Q 1028 -1241 775 -1147 
L 775 -588 
Q 1028 -725 1275 -790 
Q 1522 -856 1778 -856 
Q 2344 -856 2625 -561 
Q 2906 -266 2906 331 
L 2906 616 
Q 2728 306 2450 153 
Q 2172 0 1784 0 
Q 1141 0 747 490 
Q 353 981 353 1791 
Q 353 2603 747 3093 
Q 1141 3584 1784 3584 
Q 2172 3584 2450 3431 
Q 2728 3278 2906 2969 
L 2906 3500 
L 3481 3500 
L 3481 434 
z
" transform="scale(0.015625)"/>
      <path id="DejaVuSans-75" d="M 544 1381 
L 544 3500 
L 1119 3500 
L 1119 1403 
Q 1119 906 1312 657 
Q 1506 409 1894 409 
Q 2359 409 2629 706 
Q 2900 1003 2900 1516 
L 2900 3500 
L 3475 3500 
L 3475 0 
L 2900 0 
L 2900 538 
Q 2691 219 2414 64 
Q 2138 -91 1772 -91 
Q 1169 -91 856 284 
Q 544 659 544 1381 
z
M 1991 3584 
L 1991 3584 
z
" transform="scale(0.015625)"/>
      <path id="DejaVuSans-2f" d="M 1625 4666 
L 2156 4666 
L 531 -594 
L 0 -594 
L 1625 4666 
z
" transform="scale(0.015625)"/>
      <path id="DejaVuSans-5f" d="M 3263 -1063 
L 3263 -1509 
L -63 -1509 
L -63 -1063 
L 3263 -1063 
z
" transform="scale(0.015625)"/>
      <path id="DejaVuSans-66" d="M 2375 4863 
L 2375 4384 
L 1825 4384 
Q 1516 4384 1395 4259 
Q 1275 4134 1275 3809 
L 1275 3500 
L 2222 3500 
L 2222 3053 
L 1275 3053 
L 1275 0 
L 697 0 
L 697 3053 
L 147 3053 
L 147 3500 
L 697 3500 
L 697 3744 
Q 697 4328 969 4595 
Q 1241 4863 1831 4863 
L 2375 4863 
z
" transform="scale(0.015625)"/>
      <path id="DejaVuSans-79" d="M 2059 -325 
Q 1816 -950 1584 -1140 
Q 1353 -1331 966 -1331 
L 506 -1331 
L 506 -850 
L 844 -850 
Q 1081 -850 1212 -737 
Q 1344 -625 1503 -206 
L 1606 56 
L 191 3500 
L 800 3500 
L 1894 763 
L 2988 3500 
L 3597 3500 
L 2059 -325 
z
" transform="scale(0.015625)"/>
     </defs>
     <use xlink:href="#DejaVuSans-54"/>
     <use xlink:href="#DejaVuSans-68" x="61.083984"/>
     <use xlink:href="#DejaVuSans-65" x="124.462891"/>
     <use xlink:href="#DejaVuSans-20" x="185.986328"/>
     <use xlink:href="#DejaVuSans-6c" x="217.773438"/>
     <use xlink:href="#DejaVuSans-65" x="245.556641"/>
     <use xlink:href="#DejaVuSans-61" x="307.080078"/>
     <use xlink:href="#DejaVuSans-72" x="368.359375"/>
     <use xlink:href="#DejaVuSans-6e" x="407.722656"/>
     <use xlink:href="#DejaVuSans-69" x="471.101562"/>
     <use xlink:href="#DejaVuSans-6e" x="498.884766"/>
     <use xlink:href="#DejaVuSans-67" x="562.263672"/>
     <use xlink:href="#DejaVuSans-20" x="625.740234"/>
     <use xlink:href="#DejaVuSans-63" x="657.527344"/>
     <use xlink:href="#DejaVuSans-75" x="712.507812"/>
     <use xlink:href="#DejaVuSans-72" x="775.886719"/>
     <use xlink:href="#DejaVuSans-76" x="817"/>
     <use xlink:href="#DejaVuSans-65" x="876.179688"/>
     <use xlink:href="#DejaVuSans-20" x="937.703125"/>
     <use xlink:href="#DejaVuSans-6f" x="969.490234"/>
     <use xlink:href="#DejaVuSans-6e" x="1030.671875"/>
     <use xlink:href="#DejaVuSans-20" x="1094.050781"/>
     <use xlink:href="#DejaVuSans-76" x="1125.837891"/>
     <use xlink:href="#DejaVuSans-6f" x="1185.017578"/>
     <use xlink:href="#DejaVuSans-63" x="1246.199219"/>
     <use xlink:href="#DejaVuSans-2f" x="1301.179688"/>
     <use xlink:href="#DejaVuSans-76" x="1334.871094"/>
     <use xlink:href="#DejaVuSans-6f" x="1394.050781"/>
     <use xlink:href="#DejaVuSans-63" x="1455.232422"/>
     <use xlink:href="#DejaVuSans-5f" x="1510.212891"/>
     <use xlink:href="#DejaVuSans-66" x="1560.212891"/>
     <use xlink:href="#DejaVuSans-70" x="1595.417969"/>
     <use xlink:href="#DejaVuSans-73" x="1658.894531"/>
     <use xlink:href="#DejaVuSans-6c" x="1710.994141"/>
     <use xlink:href="#DejaVuSans-5f" x="1738.777344"/>
     <use xlink:href="#DejaVuSans-32" x="1788.777344"/>
     <use xlink:href="#DejaVuSans-30" x="1852.400391"/>
     <use xlink:href="#DejaVuSans-30" x="1916.023438"/>
     <use xlink:href="#DejaVuSans-5f" x="1979.646484"/>
     <use xlink:href="#DejaVuSans-6f" x="2029.646484"/>
     <use xlink:href="#DejaVuSans-6e" x="2090.828125"/>
     <use xlink:href="#DejaVuSans-65" x="2154.207031"/>
     <use xlink:href="#DejaVuSans-63" x="2215.730469"/>
     <use xlink:href="#DejaVuSans-79" x="2270.710938"/>
     <use xlink:href="#DejaVuSans-63" x="2329.890625"/>
     <use xlink:href="#DejaVuSans-6c" x="2384.871094"/>
     <use xlink:href="#DejaVuSans-65" x="2412.654297"/>
     <use xlink:href="#DejaVuSans-2f" x="2474.177734"/>
     <use xlink:href="#DejaVuSans-68" x="2507.869141"/>
     <use xlink:href="#DejaVuSans-6f" x="2571.248047"/>
     <use xlink:href="#DejaVuSans-73" x="2632.429688"/>
     <use xlink:href="#DejaVuSans-74" x="2684.529297"/>
     <use xlink:href="#DejaVuSans-2f" x="2723.738281"/>
     <use xlink:href="#DejaVuSans-32" x="2757.429688"/>
    </g>
   </g>
   <g id="legend_2">
    <g id="patch_12">
     <path d="M 460.084375 74.518125 
L 511.4 74.518125 
Q 513.4 74.518125 513.4 72.518125 
L 513.4 58.84 
Q 513.4 56.84 511.4 56.84 
L 460.084375 56.84 
Q 458.084375 56.84 458.084375 58.84 
L 458.084375 72.518125 
Q 458.084375 74.518125 460.084375 74.518125 
z
" style="fill: #ffffff; opacity: 0.8; stroke: #cccccc; stroke-linejoin: miter"/>
    </g>
    <g id="line2d_25">
     <path d="M 462.084375 64.938438 
L 472.084375 64.938438 
L 482.084375 64.938438 
" style="fill: none; stroke: #ff0000; stroke-width: 1.5; stroke-linecap: square"/>
    </g>
    <g id="text_26">
     <!-- loss -->
     <g transform="translate(490.084375 68.438438) scale(0.1 -0.1)">
      <use xlink:href="#DejaVuSans-6c"/>
      <use xlink:href="#DejaVuSans-6f" x="27.783203"/>
      <use xlink:href="#DejaVuSans-73" x="88.964844"/>
      <use xlink:href="#DejaVuSans-73" x="141.064453"/>
     </g>
    </g>
   </g>
  </g>
 </g>
 <defs>
  <clipPath id="p032bebc2b7">
   <rect x="72" y="51.84" width="446.4" height="332.64"/>
  </clipPath>
 </defs>
</svg>
