<?xml version="1.0" encoding="utf-8" standalone="no"?>
<!DOCTYPE svg PUBLIC "-//W3C//DTD SVG 1.1//EN"
  "http://www.w3.org/Graphics/SVG/1.1/DTD/svg11.dtd">
<svg xmlns:xlink="http://www.w3.org/1999/xlink" width="576pt" height="432pt" viewBox="0 0 576 432" xmlns="http://www.w3.org/2000/svg" version="1.1">
 <metadata>
  <rdf:RDF xmlns:dc="http://purl.org/dc/elements/1.1/" xmlns:cc="http://creativecommons.org/ns#" xmlns:rdf="http://www.w3.org/1999/02/22-rdf-syntax-ns#">
   <cc:Work>
    <dc:type rdf:resource="http://purl.org/dc/dcmitype/StillImage"/>
    <dc:date>2023-10-15T21:40:10.334782</dc:date>
    <dc:format>image/svg+xml</dc:format>
    <dc:creator>
     <cc:Agent>
      <dc:title>Matplotlib v3.7.1, https://matplotlib.org/</dc:title>
     </cc:Agent>
    </dc:creator>
   </cc:Work>
  </rdf:RDF>
 </metadata>
 <defs>
  <style type="text/css">*{stroke-linejoin: round; stroke-linecap: butt}</style>
 </defs>
 <g id="figure_1">
  <g id="patch_1">
   <path d="M 0 432 
L 576 432 
L 576 0 
L 0 0 
z
" style="fill: #ffffff"/>
  </g>
  <g id="axes_1">
   <g id="patch_2">
    <path d="M 72 384.48 
L 518.4 384.48 
L 518.4 51.84 
L 72 51.84 
z
" style="fill: #ffffff"/>
   </g>
   <g id="matplotlib.axis_1">
    <g id="xtick_1">
     <g id="line2d_1">
      <defs>
       <path id="m533916c7a2" d="M 0 0 
L 0 3.5 
" style="stroke: #000000; stroke-width: 0.8"/>
      </defs>
      <g>
       <use xlink:href="#m533916c7a2" x="92.290909" y="384.48" style="stroke: #000000; stroke-width: 0.8"/>
      </g>
     </g>
     <g id="text_1">
      <!-- 0 -->
      <g transform="translate(89.109659 399.078438) scale(0.1 -0.1)">
       <defs>
        <path id="DejaVuSans-30" d="M 2034 4250 
Q 1547 4250 1301 3770 
Q 1056 3291 1056 2328 
Q 1056 1369 1301 889 
Q 1547 409 2034 409 
Q 2525 409 2770 889 
Q 3016 1369 3016 2328 
Q 3016 3291 2770 3770 
Q 2525 4250 2034 4250 
z
M 2034 4750 
Q 2819 4750 3233 4129 
Q 3647 3509 3647 2328 
Q 3647 1150 3233 529 
Q 2819 -91 2034 -91 
Q 1250 -91 836 529 
Q 422 1150 422 2328 
Q 422 3509 836 4129 
Q 1250 4750 2034 4750 
z
" transform="scale(0.015625)"/>
       </defs>
       <use xlink:href="#DejaVuSans-30"/>
      </g>
     </g>
    </g>
    <g id="xtick_2">
     <g id="line2d_2">
      <g>
       <use xlink:href="#m533916c7a2" x="143.273093" y="384.48" style="stroke: #000000; stroke-width: 0.8"/>
      </g>
     </g>
     <g id="text_2">
      <!-- 25 -->
      <g transform="translate(136.910593 399.078438) scale(0.1 -0.1)">
       <defs>
        <path id="DejaVuSans-32" d="M 1228 531 
L 3431 531 
L 3431 0 
L 469 0 
L 469 531 
Q 828 903 1448 1529 
Q 2069 2156 2228 2338 
Q 2531 2678 2651 2914 
Q 2772 3150 2772 3378 
Q 2772 3750 2511 3984 
Q 2250 4219 1831 4219 
Q 1534 4219 1204 4116 
Q 875 4013 500 3803 
L 500 4441 
Q 881 4594 1212 4672 
Q 1544 4750 1819 4750 
Q 2544 4750 2975 4387 
Q 3406 4025 3406 3419 
Q 3406 3131 3298 2873 
Q 3191 2616 2906 2266 
Q 2828 2175 2409 1742 
Q 1991 1309 1228 531 
z
" transform="scale(0.015625)"/>
        <path id="DejaVuSans-35" d="M 691 4666 
L 3169 4666 
L 3169 4134 
L 1269 4134 
L 1269 2991 
Q 1406 3038 1543 3061 
Q 1681 3084 1819 3084 
Q 2600 3084 3056 2656 
Q 3513 2228 3513 1497 
Q 3513 744 3044 326 
Q 2575 -91 1722 -91 
Q 1428 -91 1123 -41 
Q 819 9 494 109 
L 494 744 
Q 775 591 1075 516 
Q 1375 441 1709 441 
Q 2250 441 2565 725 
Q 2881 1009 2881 1497 
Q 2881 1984 2565 2268 
Q 2250 2553 1709 2553 
Q 1456 2553 1204 2497 
Q 953 2441 691 2322 
L 691 4666 
z
" transform="scale(0.015625)"/>
       </defs>
       <use xlink:href="#DejaVuSans-32"/>
       <use xlink:href="#DejaVuSans-35" x="63.623047"/>
      </g>
     </g>
    </g>
    <g id="xtick_3">
     <g id="line2d_3">
      <g>
       <use xlink:href="#m533916c7a2" x="194.255276" y="384.48" style="stroke: #000000; stroke-width: 0.8"/>
      </g>
     </g>
     <g id="text_3">
      <!-- 50 -->
      <g transform="translate(187.892776 399.078438) scale(0.1 -0.1)">
       <use xlink:href="#DejaVuSans-35"/>
       <use xlink:href="#DejaVuSans-30" x="63.623047"/>
      </g>
     </g>
    </g>
    <g id="xtick_4">
     <g id="line2d_4">
      <g>
       <use xlink:href="#m533916c7a2" x="245.23746" y="384.48" style="stroke: #000000; stroke-width: 0.8"/>
      </g>
     </g>
     <g id="text_4">
      <!-- 75 -->
      <g transform="translate(238.87496 399.078438) scale(0.1 -0.1)">
       <defs>
        <path id="DejaVuSans-37" d="M 525 4666 
L 3525 4666 
L 3525 4397 
L 1831 0 
L 1172 0 
L 2766 4134 
L 525 4134 
L 525 4666 
z
" transform="scale(0.015625)"/>
       </defs>
       <use xlink:href="#DejaVuSans-37"/>
       <use xlink:href="#DejaVuSans-35" x="63.623047"/>
      </g>
     </g>
    </g>
    <g id="xtick_5">
     <g id="line2d_5">
      <g>
       <use xlink:href="#m533916c7a2" x="296.219644" y="384.48" style="stroke: #000000; stroke-width: 0.8"/>
      </g>
     </g>
     <g id="text_5">
      <!-- 100 -->
      <g transform="translate(286.675894 399.078438) scale(0.1 -0.1)">
       <defs>
        <path id="DejaVuSans-31" d="M 794 531 
L 1825 531 
L 1825 4091 
L 703 3866 
L 703 4441 
L 1819 4666 
L 2450 4666 
L 2450 531 
L 3481 531 
L 3481 0 
L 794 0 
L 794 531 
z
" transform="scale(0.015625)"/>
       </defs>
       <use xlink:href="#DejaVuSans-31"/>
       <use xlink:href="#DejaVuSans-30" x="63.623047"/>
       <use xlink:href="#DejaVuSans-30" x="127.246094"/>
      </g>
     </g>
    </g>
    <g id="xtick_6">
     <g id="line2d_6">
      <g>
       <use xlink:href="#m533916c7a2" x="347.201827" y="384.48" style="stroke: #000000; stroke-width: 0.8"/>
      </g>
     </g>
     <g id="text_6">
      <!-- 125 -->
      <g transform="translate(337.658077 399.078438) scale(0.1 -0.1)">
       <use xlink:href="#DejaVuSans-31"/>
       <use xlink:href="#DejaVuSans-32" x="63.623047"/>
       <use xlink:href="#DejaVuSans-35" x="127.246094"/>
      </g>
     </g>
    </g>
    <g id="xtick_7">
     <g id="line2d_7">
      <g>
       <use xlink:href="#m533916c7a2" x="398.184011" y="384.48" style="stroke: #000000; stroke-width: 0.8"/>
      </g>
     </g>
     <g id="text_7">
      <!-- 150 -->
      <g transform="translate(388.640261 399.078438) scale(0.1 -0.1)">
       <use xlink:href="#DejaVuSans-31"/>
       <use xlink:href="#DejaVuSans-35" x="63.623047"/>
       <use xlink:href="#DejaVuSans-30" x="127.246094"/>
      </g>
     </g>
    </g>
    <g id="xtick_8">
     <g id="line2d_8">
      <g>
       <use xlink:href="#m533916c7a2" x="449.166195" y="384.48" style="stroke: #000000; stroke-width: 0.8"/>
      </g>
     </g>
     <g id="text_8">
      <!-- 175 -->
      <g transform="translate(439.622445 399.078438) scale(0.1 -0.1)">
       <use xlink:href="#DejaVuSans-31"/>
       <use xlink:href="#DejaVuSans-37" x="63.623047"/>
       <use xlink:href="#DejaVuSans-35" x="127.246094"/>
      </g>
     </g>
    </g>
    <g id="xtick_9">
     <g id="line2d_9">
      <g>
       <use xlink:href="#m533916c7a2" x="500.148378" y="384.48" style="stroke: #000000; stroke-width: 0.8"/>
      </g>
     </g>
     <g id="text_9">
      <!-- 200 -->
      <g transform="translate(490.604628 399.078438) scale(0.1 -0.1)">
       <use xlink:href="#DejaVuSans-32"/>
       <use xlink:href="#DejaVuSans-30" x="63.623047"/>
       <use xlink:href="#DejaVuSans-30" x="127.246094"/>
      </g>
     </g>
    </g>
    <g id="text_10">
     <!-- epoch -->
     <g transform="translate(279.971875 412.756563) scale(0.1 -0.1)">
      <defs>
       <path id="DejaVuSans-65" d="M 3597 1894 
L 3597 1613 
L 953 1613 
Q 991 1019 1311 708 
Q 1631 397 2203 397 
Q 2534 397 2845 478 
Q 3156 559 3463 722 
L 3463 178 
Q 3153 47 2828 -22 
Q 2503 -91 2169 -91 
Q 1331 -91 842 396 
Q 353 884 353 1716 
Q 353 2575 817 3079 
Q 1281 3584 2069 3584 
Q 2775 3584 3186 3129 
Q 3597 2675 3597 1894 
z
M 3022 2063 
Q 3016 2534 2758 2815 
Q 2500 3097 2075 3097 
Q 1594 3097 1305 2825 
Q 1016 2553 972 2059 
L 3022 2063 
z
" transform="scale(0.015625)"/>
       <path id="DejaVuSans-70" d="M 1159 525 
L 1159 -1331 
L 581 -1331 
L 581 3500 
L 1159 3500 
L 1159 2969 
Q 1341 3281 1617 3432 
Q 1894 3584 2278 3584 
Q 2916 3584 3314 3078 
Q 3713 2572 3713 1747 
Q 3713 922 3314 415 
Q 2916 -91 2278 -91 
Q 1894 -91 1617 61 
Q 1341 213 1159 525 
z
M 3116 1747 
Q 3116 2381 2855 2742 
Q 2594 3103 2138 3103 
Q 1681 3103 1420 2742 
Q 1159 2381 1159 1747 
Q 1159 1113 1420 752 
Q 1681 391 2138 391 
Q 2594 391 2855 752 
Q 3116 1113 3116 1747 
z
" transform="scale(0.015625)"/>
       <path id="DejaVuSans-6f" d="M 1959 3097 
Q 1497 3097 1228 2736 
Q 959 2375 959 1747 
Q 959 1119 1226 758 
Q 1494 397 1959 397 
Q 2419 397 2687 759 
Q 2956 1122 2956 1747 
Q 2956 2369 2687 2733 
Q 2419 3097 1959 3097 
z
M 1959 3584 
Q 2709 3584 3137 3096 
Q 3566 2609 3566 1747 
Q 3566 888 3137 398 
Q 2709 -91 1959 -91 
Q 1206 -91 779 398 
Q 353 888 353 1747 
Q 353 2609 779 3096 
Q 1206 3584 1959 3584 
z
" transform="scale(0.015625)"/>
       <path id="DejaVuSans-63" d="M 3122 3366 
L 3122 2828 
Q 2878 2963 2633 3030 
Q 2388 3097 2138 3097 
Q 1578 3097 1268 2742 
Q 959 2388 959 1747 
Q 959 1106 1268 751 
Q 1578 397 2138 397 
Q 2388 397 2633 464 
Q 2878 531 3122 666 
L 3122 134 
Q 2881 22 2623 -34 
Q 2366 -91 2075 -91 
Q 1284 -91 818 406 
Q 353 903 353 1747 
Q 353 2603 823 3093 
Q 1294 3584 2113 3584 
Q 2378 3584 2631 3529 
Q 2884 3475 3122 3366 
z
" transform="scale(0.015625)"/>
       <path id="DejaVuSans-68" d="M 3513 2113 
L 3513 0 
L 2938 0 
L 2938 2094 
Q 2938 2591 2744 2837 
Q 2550 3084 2163 3084 
Q 1697 3084 1428 2787 
Q 1159 2491 1159 1978 
L 1159 0 
L 581 0 
L 581 4863 
L 1159 4863 
L 1159 2956 
Q 1366 3272 1645 3428 
Q 1925 3584 2291 3584 
Q 2894 3584 3203 3211 
Q 3513 2838 3513 2113 
z
" transform="scale(0.015625)"/>
      </defs>
      <use xlink:href="#DejaVuSans-65"/>
      <use xlink:href="#DejaVuSans-70" x="61.523438"/>
      <use xlink:href="#DejaVuSans-6f" x="125"/>
      <use xlink:href="#DejaVuSans-63" x="186.181641"/>
      <use xlink:href="#DejaVuSans-68" x="241.162109"/>
     </g>
    </g>
   </g>
   <g id="matplotlib.axis_2">
    <g id="ytick_1">
     <g id="line2d_10">
      <defs>
       <path id="m5e927bdaf5" d="M 0 0 
L -3.5 0 
" style="stroke: #000000; stroke-width: 0.8"/>
      </defs>
      <g>
       <use xlink:href="#m5e927bdaf5" x="72" y="384.48" style="stroke: #000000; stroke-width: 0.8"/>
      </g>
     </g>
     <g id="text_11">
      <!-- 0 -->
      <g transform="translate(58.6375 388.279219) scale(0.1 -0.1)">
       <use xlink:href="#DejaVuSans-30"/>
      </g>
     </g>
    </g>
    <g id="ytick_2">
     <g id="line2d_11">
      <g>
       <use xlink:href="#m5e927bdaf5" x="72" y="317.952" style="stroke: #000000; stroke-width: 0.8"/>
      </g>
     </g>
     <g id="text_12">
      <!-- 20 -->
      <g transform="translate(52.275 321.751219) scale(0.1 -0.1)">
       <use xlink:href="#DejaVuSans-32"/>
       <use xlink:href="#DejaVuSans-30" x="63.623047"/>
      </g>
     </g>
    </g>
    <g id="ytick_3">
     <g id="line2d_12">
      <g>
       <use xlink:href="#m5e927bdaf5" x="72" y="251.424" style="stroke: #000000; stroke-width: 0.8"/>
      </g>
     </g>
     <g id="text_13">
      <!-- 40 -->
      <g transform="translate(52.275 255.223219) scale(0.1 -0.1)">
       <defs>
        <path id="DejaVuSans-34" d="M 2419 4116 
L 825 1625 
L 2419 1625 
L 2419 4116 
z
M 2253 4666 
L 3047 4666 
L 3047 1625 
L 3713 1625 
L 3713 1100 
L 3047 1100 
L 3047 0 
L 2419 0 
L 2419 1100 
L 313 1100 
L 313 1709 
L 2253 4666 
z
" transform="scale(0.015625)"/>
       </defs>
       <use xlink:href="#DejaVuSans-34"/>
       <use xlink:href="#DejaVuSans-30" x="63.623047"/>
      </g>
     </g>
    </g>
    <g id="ytick_4">
     <g id="line2d_13">
      <g>
       <use xlink:href="#m5e927bdaf5" x="72" y="184.896" style="stroke: #000000; stroke-width: 0.8"/>
      </g>
     </g>
     <g id="text_14">
      <!-- 60 -->
      <g transform="translate(52.275 188.695219) scale(0.1 -0.1)">
       <defs>
        <path id="DejaVuSans-36" d="M 2113 2584 
Q 1688 2584 1439 2293 
Q 1191 2003 1191 1497 
Q 1191 994 1439 701 
Q 1688 409 2113 409 
Q 2538 409 2786 701 
Q 3034 994 3034 1497 
Q 3034 2003 2786 2293 
Q 2538 2584 2113 2584 
z
M 3366 4563 
L 3366 3988 
Q 3128 4100 2886 4159 
Q 2644 4219 2406 4219 
Q 1781 4219 1451 3797 
Q 1122 3375 1075 2522 
Q 1259 2794 1537 2939 
Q 1816 3084 2150 3084 
Q 2853 3084 3261 2657 
Q 3669 2231 3669 1497 
Q 3669 778 3244 343 
Q 2819 -91 2113 -91 
Q 1303 -91 875 529 
Q 447 1150 447 2328 
Q 447 3434 972 4092 
Q 1497 4750 2381 4750 
Q 2619 4750 2861 4703 
Q 3103 4656 3366 4563 
z
" transform="scale(0.015625)"/>
       </defs>
       <use xlink:href="#DejaVuSans-36"/>
       <use xlink:href="#DejaVuSans-30" x="63.623047"/>
      </g>
     </g>
    </g>
    <g id="ytick_5">
     <g id="line2d_14">
      <g>
       <use xlink:href="#m5e927bdaf5" x="72" y="118.368" style="stroke: #000000; stroke-width: 0.8"/>
      </g>
     </g>
     <g id="text_15">
      <!-- 80 -->
      <g transform="translate(52.275 122.167219) scale(0.1 -0.1)">
       <defs>
        <path id="DejaVuSans-38" d="M 2034 2216 
Q 1584 2216 1326 1975 
Q 1069 1734 1069 1313 
Q 1069 891 1326 650 
Q 1584 409 2034 409 
Q 2484 409 2743 651 
Q 3003 894 3003 1313 
Q 3003 1734 2745 1975 
Q 2488 2216 2034 2216 
z
M 1403 2484 
Q 997 2584 770 2862 
Q 544 3141 544 3541 
Q 544 4100 942 4425 
Q 1341 4750 2034 4750 
Q 2731 4750 3128 4425 
Q 3525 4100 3525 3541 
Q 3525 3141 3298 2862 
Q 3072 2584 2669 2484 
Q 3125 2378 3379 2068 
Q 3634 1759 3634 1313 
Q 3634 634 3220 271 
Q 2806 -91 2034 -91 
Q 1263 -91 848 271 
Q 434 634 434 1313 
Q 434 1759 690 2068 
Q 947 2378 1403 2484 
z
M 1172 3481 
Q 1172 3119 1398 2916 
Q 1625 2713 2034 2713 
Q 2441 2713 2670 2916 
Q 2900 3119 2900 3481 
Q 2900 3844 2670 4047 
Q 2441 4250 2034 4250 
Q 1625 4250 1398 4047 
Q 1172 3844 1172 3481 
z
" transform="scale(0.015625)"/>
       </defs>
       <use xlink:href="#DejaVuSans-38"/>
       <use xlink:href="#DejaVuSans-30" x="63.623047"/>
      </g>
     </g>
    </g>
    <g id="ytick_6">
     <g id="line2d_15">
      <g>
       <use xlink:href="#m5e927bdaf5" x="72" y="51.84" style="stroke: #000000; stroke-width: 0.8"/>
      </g>
     </g>
     <g id="text_16">
      <!-- 100 -->
      <g transform="translate(45.9125 55.639219) scale(0.1 -0.1)">
       <use xlink:href="#DejaVuSans-31"/>
       <use xlink:href="#DejaVuSans-30" x="63.623047"/>
       <use xlink:href="#DejaVuSans-30" x="127.246094"/>
      </g>
     </g>
    </g>
    <g id="text_17">
     <!-- rate -->
     <g transform="translate(39.832812 228.31625) rotate(-90) scale(0.1 -0.1)">
      <defs>
       <path id="DejaVuSans-72" d="M 2631 2963 
Q 2534 3019 2420 3045 
Q 2306 3072 2169 3072 
Q 1681 3072 1420 2755 
Q 1159 2438 1159 1844 
L 1159 0 
L 581 0 
L 581 3500 
L 1159 3500 
L 1159 2956 
Q 1341 3275 1631 3429 
Q 1922 3584 2338 3584 
Q 2397 3584 2469 3576 
Q 2541 3569 2628 3553 
L 2631 2963 
z
" transform="scale(0.015625)"/>
       <path id="DejaVuSans-61" d="M 2194 1759 
Q 1497 1759 1228 1600 
Q 959 1441 959 1056 
Q 959 750 1161 570 
Q 1363 391 1709 391 
Q 2188 391 2477 730 
Q 2766 1069 2766 1631 
L 2766 1759 
L 2194 1759 
z
M 3341 1997 
L 3341 0 
L 2766 0 
L 2766 531 
Q 2569 213 2275 61 
Q 1981 -91 1556 -91 
Q 1019 -91 701 211 
Q 384 513 384 1019 
Q 384 1609 779 1909 
Q 1175 2209 1959 2209 
L 2766 2209 
L 2766 2266 
Q 2766 2663 2505 2880 
Q 2244 3097 1772 3097 
Q 1472 3097 1187 3025 
Q 903 2953 641 2809 
L 641 3341 
Q 956 3463 1253 3523 
Q 1550 3584 1831 3584 
Q 2591 3584 2966 3190 
Q 3341 2797 3341 1997 
z
" transform="scale(0.015625)"/>
       <path id="DejaVuSans-74" d="M 1172 4494 
L 1172 3500 
L 2356 3500 
L 2356 3053 
L 1172 3053 
L 1172 1153 
Q 1172 725 1289 603 
Q 1406 481 1766 481 
L 2356 481 
L 2356 0 
L 1766 0 
Q 1100 0 847 248 
Q 594 497 594 1153 
L 594 3053 
L 172 3053 
L 172 3500 
L 594 3500 
L 594 4494 
L 1172 4494 
z
" transform="scale(0.015625)"/>
      </defs>
      <use xlink:href="#DejaVuSans-72"/>
      <use xlink:href="#DejaVuSans-61" x="41.113281"/>
      <use xlink:href="#DejaVuSans-74" x="102.392578"/>
      <use xlink:href="#DejaVuSans-65" x="141.601562"/>
     </g>
    </g>
   </g>
   <g id="line2d_16">
    <path d="M 92.290909 285.585914 
L 94.330196 245.931171 
L 96.369484 238.750348 
L 98.408771 242.604378 
L 100.448058 251.95715 
L 102.487346 203.750794 
L 104.526633 191.565169 
L 106.565921 224.635316 
L 108.605208 169.437371 
L 110.644495 227.840115 
L 112.683783 188.813032 
L 114.72307 96.068872 
L 116.762357 169.879489 
L 118.801645 163.567267 
L 120.840932 181.358832 
L 122.880219 125.905339 
L 124.919507 136.092845 
L 126.958794 140.597007 
L 128.998081 114.973789 
L 131.037369 95.1469 
L 133.076656 177.107935 
L 135.115943 176.214703 
L 137.155231 128.369787 
L 139.194518 66.243927 
L 141.233805 173.956328 
L 143.273093 122.893429 
L 145.31238 137.276571 
L 147.351667 94.121992 
L 149.390955 120.43931 
L 151.430242 131.456894 
L 153.469529 61.02785 
L 155.508817 86.073354 
L 157.548104 166.167032 
L 159.587392 144.250535 
L 161.626679 96.471399 
L 163.665966 55.456019 
L 165.705254 178.424516 
L 167.744541 169.327533 
L 169.783828 58.75836 
L 171.823116 133.125246 
L 173.862403 181.923883 
L 175.90169 197.818779 
L 177.940978 84.999948 
L 179.980265 89.117673 
L 182.019552 227.990584 
L 184.05884 96.966101 
L 186.098127 95.852217 
L 188.137414 87.017076 
L 190.176702 184.452741 
L 194.255276 60.27807 
L 196.294564 79.072108 
L 198.333851 257.177643 
L 200.373138 189.989461 
L 202.412426 133.233738 
L 204.451713 149.238866 
L 206.491 199.683103 
L 208.530288 122.887795 
L 210.569575 123.969093 
L 212.608862 88.46093 
L 214.64815 211.257362 
L 216.687437 112.767541 
L 218.726725 158.96852 
L 220.766012 102.523467 
L 222.805299 203.224649 
L 224.844587 186.709999 
L 226.883874 158.543787 
L 228.923161 78.497211 
L 230.962449 147.531584 
L 233.001736 145.234075 
L 235.041023 167.811782 
L 237.080311 91.048996 
L 239.119598 181.990882 
L 241.158885 183.530057 
L 243.198173 139.199595 
L 245.23746 99.550512 
L 247.276747 149.913475 
L 249.316035 168.138022 
L 251.355322 104.635078 
L 253.394609 55.617451 
L 255.433897 172.663298 
L 257.473184 168.60303 
L 259.512471 109.491391 
L 261.551759 59.194539 
L 263.591046 194.556193 
L 265.630333 170.67599 
L 269.708908 81.071471 
L 271.748196 186.830622 
L 273.787483 161.492607 
L 275.82677 161.813745 
L 277.866058 126.213129 
L 279.905345 245.242871 
L 281.944632 84.014403 
L 283.98392 163.220395 
L 286.023207 119.52622 
L 288.062494 147.186843 
L 290.101782 190.4322 
L 292.141069 139.838395 
L 294.180356 107.386962 
L 296.219644 198.410084 
L 298.258931 129.035666 
L 300.298218 80.905115 
L 302.337506 126.632076 
L 304.376793 223.85951 
L 306.41608 139.761347 
L 308.455368 152.91125 
L 310.494655 70.120658 
L 312.533942 173.411124 
L 314.57323 135.472876 
L 316.612517 91.661732 
L 318.651804 91.938509 
L 320.691092 183.375173 
L 322.730379 130.993332 
L 324.769667 102.124011 
L 326.808954 81.788843 
L 328.848241 210.647671 
L 330.887529 153.023448 
L 332.926816 74.87099 
L 334.966103 65.768691 
L 337.005391 202.859238 
L 339.044678 217.396148 
L 341.083965 160.677579 
L 343.123253 132.06628 
L 345.16254 213.479661 
L 347.201827 143.691956 
L 349.241115 148.068845 
L 351.280402 115.256987 
L 353.319689 130.858039 
L 355.358977 175.674726 
L 357.398264 111.754257 
L 359.437551 119.122094 
L 361.476839 182.188668 
L 363.516126 164.583774 
L 365.555413 158.269497 
L 367.594701 120.999717 
L 369.633988 160.888473 
L 371.673275 179.192188 
L 373.712563 84.707361 
L 375.75185 114.016185 
L 377.791138 212.068507 
L 379.830425 133.642686 
L 381.869712 121.635395 
L 383.909 124.961262 
L 385.948287 205.863002 
L 387.987574 139.858825 
L 390.026862 144.395166 
L 392.066149 107.599734 
L 394.105436 163.630967 
L 396.144724 139.632424 
L 398.184011 147.366345 
L 400.223298 112.477568 
L 402.262586 202.766467 
L 404.301873 152.573869 
L 408.380448 96.299791 
L 410.419735 240.5084 
L 412.459022 190.399221 
L 414.49831 94.519089 
L 416.537597 167.795388 
L 418.576884 229.308168 
L 420.616172 190.707467 
L 422.655459 96.10864 
L 424.694746 110.432803 
L 426.734034 189.815962 
L 428.773321 199.053046 
L 430.812608 157.872984 
L 432.851896 132.260704 
L 434.891183 239.553727 
L 436.930471 185.515081 
L 438.969758 120.263083 
L 441.009045 111.757734 
L 443.048333 160.184019 
L 445.08762 183.593326 
L 447.126907 165.897361 
L 449.166195 158.927331 
L 451.205482 186.863094 
L 453.244769 220.96193 
L 455.284057 168.61874 
L 457.323344 189.068516 
L 459.362631 175.47911 
L 461.401919 182.914491 
L 463.441206 131.970096 
L 465.480493 136.090841 
L 467.519781 165.483718 
L 469.559068 161.352315 
L 471.598355 199.810706 
L 473.637643 182.704244 
L 475.67693 211.462382 
L 477.716217 204.714235 
L 479.755505 213.82779 
L 481.794792 177.856014 
L 483.834079 165.56295 
L 485.873367 223.090659 
L 487.912654 172.001695 
L 489.951942 205.718091 
L 491.991229 164.997163 
L 494.030516 223.259057 
L 496.069804 158.574342 
L 498.109091 193.212901 
L 498.109091 193.212901 
" clip-path="url(#p31b18a3158)" style="fill: none; stroke: #0000ff; stroke-width: 1.5; stroke-linecap: square"/>
   </g>
   <g id="line2d_17">
    <path d="M 92.290909 260.933268 
L 94.330196 278.023488 
L 96.369484 273.525531 
L 98.408771 284.242406 
L 100.448058 177.083825 
L 102.487346 210.909462 
L 104.526633 225.330977 
L 106.565921 170.859908 
L 108.605208 112.224646 
L 110.644495 167.394155 
L 112.683783 217.387367 
L 114.72307 171.591758 
L 116.762357 143.501415 
L 118.801645 184.868655 
L 120.840932 197.781092 
L 122.880219 155.409095 
L 124.919507 158.888603 
L 126.958794 169.503863 
L 128.998081 202.828872 
L 131.037369 177.532033 
L 133.076656 124.838253 
L 135.115943 207.500367 
L 137.155231 142.308502 
L 139.194518 157.62118 
L 141.233805 137.253756 
L 143.273093 167.02769 
L 145.31238 172.038278 
L 147.351667 200.394371 
L 149.390955 158.266172 
L 151.430242 139.29517 
L 153.469529 176.354411 
L 155.508817 205.55053 
L 157.548104 139.423788 
L 161.626679 187.200551 
L 163.665966 172.727873 
L 165.705254 165.332184 
L 167.744541 133.673521 
L 169.783828 123.783932 
L 171.823116 134.286562 
L 173.862403 167.263354 
L 175.90169 220.626693 
L 177.940978 177.161445 
L 179.980265 148.60905 
L 182.019552 138.364544 
L 184.05884 215.333403 
L 186.098127 179.551673 
L 188.137414 177.362683 
L 190.176702 147.23392 
L 192.215989 206.023723 
L 194.255276 146.962803 
L 196.294564 136.58945 
L 198.333851 199.233385 
L 200.373138 123.579991 
L 202.412426 153.989731 
L 204.451713 126.900072 
L 206.491 173.428876 
L 208.530288 152.195426 
L 210.569575 174.316067 
L 212.608862 118.708984 
L 214.64815 175.373713 
L 216.687437 180.402865 
L 218.726725 130.644404 
L 220.766012 146.91235 
L 222.805299 151.294442 
L 224.844587 178.010252 
L 226.883874 139.198783 
L 228.923161 137.92537 
L 230.962449 140.299369 
L 233.001736 183.216139 
L 235.041023 123.464088 
L 237.080311 147.109541 
L 239.119598 184.137173 
L 241.158885 153.780867 
L 243.198173 172.766969 
L 245.23746 196.013917 
L 249.316035 127.288184 
L 251.355322 167.915605 
L 253.394609 169.207265 
L 255.433897 121.747542 
L 257.473184 198.489264 
L 259.512471 210.425927 
L 261.551759 204.0798 
L 263.591046 122.830896 
L 265.630333 140.80681 
L 267.669621 162.772415 
L 269.708908 163.670329 
L 271.748196 135.58076 
L 273.787483 184.668711 
L 275.82677 186.173956 
L 277.866058 221.484725 
L 279.905345 155.421937 
L 281.944632 130.46546 
L 283.98392 187.281685 
L 286.023207 165.994662 
L 288.062494 135.45737 
L 290.101782 212.344421 
L 292.141069 187.636133 
L 294.180356 214.892668 
L 296.219644 193.897915 
L 298.258931 135.852157 
L 300.298218 237.876696 
L 302.337506 146.284539 
L 304.376793 169.503634 
L 306.41608 189.359556 
L 308.455368 163.678094 
L 310.494655 153.072784 
L 312.533942 156.862543 
L 314.57323 166.120539 
L 316.612517 193.464553 
L 318.651804 168.758194 
L 320.691092 122.509809 
L 322.730379 150.78662 
L 324.769667 147.748975 
L 326.808954 162.049993 
L 328.848241 197.868013 
L 330.887529 128.432878 
L 332.926816 140.693876 
L 334.966103 159.762763 
L 337.005391 141.879911 
L 339.044678 81.973115 
L 341.083965 168.804307 
L 343.123253 145.977587 
L 345.16254 115.213742 
L 349.241115 141.364755 
L 351.280402 120.400887 
L 353.319689 152.199588 
L 355.358977 168.636581 
L 357.398264 146.088034 
L 359.437551 164.067374 
L 361.476839 153.121815 
L 363.516126 128.614232 
L 365.555413 122.935861 
L 367.594701 127.86935 
L 369.633988 122.532345 
L 371.673275 164.856008 
L 373.712563 149.634896 
L 375.75185 179.249175 
L 377.791138 124.804728 
L 379.830425 165.224072 
L 381.869712 190.647892 
L 383.909 221.714882 
L 385.948287 140.238791 
L 387.987574 158.381822 
L 390.026862 136.519584 
L 392.066149 167.492445 
L 394.105436 166.878821 
L 396.144724 179.216564 
L 398.184011 157.598136 
L 400.223298 172.256012 
L 402.262586 138.770319 
L 404.301873 179.388515 
L 406.34116 134.807048 
L 408.380448 132.864152 
L 410.419735 153.466479 
L 412.459022 140.243587 
L 414.49831 139.756956 
L 416.537597 163.570947 
L 418.576884 131.378474 
L 420.616172 148.697062 
L 422.655459 162.704528 
L 424.694746 201.080845 
L 426.734034 126.205972 
L 428.773321 96.694323 
L 430.812608 171.017812 
L 432.851896 125.819104 
L 434.891183 143.082798 
L 436.930471 102.720226 
L 438.969758 128.716887 
L 441.009045 168.235728 
L 443.048333 163.023864 
L 445.08762 103.868904 
L 447.126907 140.793614 
L 449.166195 167.250513 
L 451.205482 122.373603 
L 453.244769 102.183574 
L 455.284057 173.374503 
L 457.323344 128.069078 
L 459.362631 155.787868 
L 461.401919 199.544093 
L 463.441206 145.509203 
L 465.480493 136.483724 
L 467.519781 90.691592 
L 469.559068 126.156129 
L 471.598355 143.109851 
L 473.637643 190.806227 
L 475.67693 141.218017 
L 477.716217 123.370289 
L 479.755505 174.813954 
L 481.794792 122.621626 
L 483.834079 160.177345 
L 485.873367 149.731537 
L 487.912654 164.610168 
L 489.951942 160.906974 
L 491.991229 128.718892 
L 494.030516 171.45894 
L 496.069804 134.657391 
L 498.109091 142.266044 
L 498.109091 142.266044 
" clip-path="url(#p31b18a3158)" style="fill: none; stroke: #008000; stroke-width: 1.5; stroke-linecap: square"/>
   </g>
   <g id="patch_3">
    <path d="M 72 384.48 
L 72 51.84 
" style="fill: none; stroke: #000000; stroke-width: 0.8; stroke-linejoin: miter; stroke-linecap: square"/>
   </g>
   <g id="patch_4">
    <path d="M 518.4 384.48 
L 518.4 51.84 
" style="fill: none; stroke: #000000; stroke-width: 0.8; stroke-linejoin: miter; stroke-linecap: square"/>
   </g>
   <g id="patch_5">
    <path d="M 72 384.48 
L 518.4 384.48 
" style="fill: none; stroke: #000000; stroke-width: 0.8; stroke-linejoin: miter; stroke-linecap: square"/>
   </g>
   <g id="patch_6">
    <path d="M 72 51.84 
L 518.4 51.84 
" style="fill: none; stroke: #000000; stroke-width: 0.8; stroke-linejoin: miter; stroke-linecap: square"/>
   </g>
   <g id="legend_1">
    <g id="patch_7">
     <path d="M 79 89.19625 
L 160.740625 89.19625 
Q 162.740625 89.19625 162.740625 87.19625 
L 162.740625 58.84 
Q 162.740625 56.84 160.740625 56.84 
L 79 56.84 
Q 77 56.84 77 58.84 
L 77 87.19625 
Q 77 89.19625 79 89.19625 
z
" style="fill: #ffffff; opacity: 0.8; stroke: #cccccc; stroke-linejoin: miter"/>
    </g>
    <g id="line2d_18">
     <path d="M 81 64.938437 
L 91 64.938437 
L 101 64.938437 
" style="fill: none; stroke: #0000ff; stroke-width: 1.5; stroke-linecap: square"/>
    </g>
    <g id="text_18">
     <!-- train mAP -->
     <g transform="translate(109 68.438437) scale(0.1 -0.1)">
      <defs>
       <path id="DejaVuSans-69" d="M 603 3500 
L 1178 3500 
L 1178 0 
L 603 0 
L 603 3500 
z
M 603 4863 
L 1178 4863 
L 1178 4134 
L 603 4134 
L 603 4863 
z
" transform="scale(0.015625)"/>
       <path id="DejaVuSans-6e" d="M 3513 2113 
L 3513 0 
L 2938 0 
L 2938 2094 
Q 2938 2591 2744 2837 
Q 2550 3084 2163 3084 
Q 1697 3084 1428 2787 
Q 1159 2491 1159 1978 
L 1159 0 
L 581 0 
L 581 3500 
L 1159 3500 
L 1159 2956 
Q 1366 3272 1645 3428 
Q 1925 3584 2291 3584 
Q 2894 3584 3203 3211 
Q 3513 2838 3513 2113 
z
" transform="scale(0.015625)"/>
       <path id="DejaVuSans-20" transform="scale(0.015625)"/>
       <path id="DejaVuSans-6d" d="M 3328 2828 
Q 3544 3216 3844 3400 
Q 4144 3584 4550 3584 
Q 5097 3584 5394 3201 
Q 5691 2819 5691 2113 
L 5691 0 
L 5113 0 
L 5113 2094 
Q 5113 2597 4934 2840 
Q 4756 3084 4391 3084 
Q 3944 3084 3684 2787 
Q 3425 2491 3425 1978 
L 3425 0 
L 2847 0 
L 2847 2094 
Q 2847 2600 2669 2842 
Q 2491 3084 2119 3084 
Q 1678 3084 1418 2786 
Q 1159 2488 1159 1978 
L 1159 0 
L 581 0 
L 581 3500 
L 1159 3500 
L 1159 2956 
Q 1356 3278 1631 3431 
Q 1906 3584 2284 3584 
Q 2666 3584 2933 3390 
Q 3200 3197 3328 2828 
z
" transform="scale(0.015625)"/>
       <path id="DejaVuSans-41" d="M 2188 4044 
L 1331 1722 
L 3047 1722 
L 2188 4044 
z
M 1831 4666 
L 2547 4666 
L 4325 0 
L 3669 0 
L 3244 1197 
L 1141 1197 
L 716 0 
L 50 0 
L 1831 4666 
z
" transform="scale(0.015625)"/>
       <path id="DejaVuSans-50" d="M 1259 4147 
L 1259 2394 
L 2053 2394 
Q 2494 2394 2734 2622 
Q 2975 2850 2975 3272 
Q 2975 3691 2734 3919 
Q 2494 4147 2053 4147 
L 1259 4147 
z
M 628 4666 
L 2053 4666 
Q 2838 4666 3239 4311 
Q 3641 3956 3641 3272 
Q 3641 2581 3239 2228 
Q 2838 1875 2053 1875 
L 1259 1875 
L 1259 0 
L 628 0 
L 628 4666 
z
" transform="scale(0.015625)"/>
      </defs>
      <use xlink:href="#DejaVuSans-74"/>
      <use xlink:href="#DejaVuSans-72" x="39.208984"/>
      <use xlink:href="#DejaVuSans-61" x="80.322266"/>
      <use xlink:href="#DejaVuSans-69" x="141.601562"/>
      <use xlink:href="#DejaVuSans-6e" x="169.384766"/>
      <use xlink:href="#DejaVuSans-20" x="232.763672"/>
      <use xlink:href="#DejaVuSans-6d" x="264.550781"/>
      <use xlink:href="#DejaVuSans-41" x="361.962891"/>
      <use xlink:href="#DejaVuSans-50" x="430.371094"/>
     </g>
    </g>
    <g id="line2d_19">
     <path d="M 81 79.616562 
L 91 79.616562 
L 101 79.616562 
" style="fill: none; stroke: #008000; stroke-width: 1.5; stroke-linecap: square"/>
    </g>
    <g id="text_19">
     <!-- valid mAP -->
     <g transform="translate(109 83.116562) scale(0.1 -0.1)">
      <defs>
       <path id="DejaVuSans-76" d="M 191 3500 
L 800 3500 
L 1894 563 
L 2988 3500 
L 3597 3500 
L 2284 0 
L 1503 0 
L 191 3500 
z
" transform="scale(0.015625)"/>
       <path id="DejaVuSans-6c" d="M 603 4863 
L 1178 4863 
L 1178 0 
L 603 0 
L 603 4863 
z
" transform="scale(0.015625)"/>
       <path id="DejaVuSans-64" d="M 2906 2969 
L 2906 4863 
L 3481 4863 
L 3481 0 
L 2906 0 
L 2906 525 
Q 2725 213 2448 61 
Q 2172 -91 1784 -91 
Q 1150 -91 751 415 
Q 353 922 353 1747 
Q 353 2572 751 3078 
Q 1150 3584 1784 3584 
Q 2172 3584 2448 3432 
Q 2725 3281 2906 2969 
z
M 947 1747 
Q 947 1113 1208 752 
Q 1469 391 1925 391 
Q 2381 391 2643 752 
Q 2906 1113 2906 1747 
Q 2906 2381 2643 2742 
Q 2381 3103 1925 3103 
Q 1469 3103 1208 2742 
Q 947 2381 947 1747 
z
" transform="scale(0.015625)"/>
      </defs>
      <use xlink:href="#DejaVuSans-76"/>
      <use xlink:href="#DejaVuSans-61" x="59.179688"/>
      <use xlink:href="#DejaVuSans-6c" x="120.458984"/>
      <use xlink:href="#DejaVuSans-69" x="148.242188"/>
      <use xlink:href="#DejaVuSans-64" x="176.025391"/>
      <use xlink:href="#DejaVuSans-20" x="239.501953"/>
      <use xlink:href="#DejaVuSans-6d" x="271.289062"/>
      <use xlink:href="#DejaVuSans-41" x="368.701172"/>
      <use xlink:href="#DejaVuSans-50" x="437.109375"/>
     </g>
    </g>
   </g>
  </g>
  <g id="axes_2">
   <g id="matplotlib.axis_3">
    <g id="ytick_7">
     <g id="line2d_20">
      <defs>
       <path id="m10ac552ab4" d="M 0 0 
L 3.5 0 
" style="stroke: #000000; stroke-width: 0.8"/>
      </defs>
      <g>
       <use xlink:href="#m10ac552ab4" x="518.4" y="372.735088" style="stroke: #000000; stroke-width: 0.8"/>
      </g>
     </g>
     <g id="text_20">
      <!-- 1 -->
      <g transform="translate(525.4 376.534307) scale(0.1 -0.1)">
       <use xlink:href="#DejaVuSans-31"/>
      </g>
     </g>
    </g>
    <g id="ytick_8">
     <g id="line2d_21">
      <g>
       <use xlink:href="#m10ac552ab4" x="518.4" y="327.711986" style="stroke: #000000; stroke-width: 0.8"/>
      </g>
     </g>
     <g id="text_21">
      <!-- 2 -->
      <g transform="translate(525.4 331.511205) scale(0.1 -0.1)">
       <use xlink:href="#DejaVuSans-32"/>
      </g>
     </g>
    </g>
    <g id="ytick_9">
     <g id="line2d_22">
      <g>
       <use xlink:href="#m10ac552ab4" x="518.4" y="282.688884" style="stroke: #000000; stroke-width: 0.8"/>
      </g>
     </g>
     <g id="text_22">
      <!-- 3 -->
      <g transform="translate(525.4 286.488103) scale(0.1 -0.1)">
       <defs>
        <path id="DejaVuSans-33" d="M 2597 2516 
Q 3050 2419 3304 2112 
Q 3559 1806 3559 1356 
Q 3559 666 3084 287 
Q 2609 -91 1734 -91 
Q 1441 -91 1130 -33 
Q 819 25 488 141 
L 488 750 
Q 750 597 1062 519 
Q 1375 441 1716 441 
Q 2309 441 2620 675 
Q 2931 909 2931 1356 
Q 2931 1769 2642 2001 
Q 2353 2234 1838 2234 
L 1294 2234 
L 1294 2753 
L 1863 2753 
Q 2328 2753 2575 2939 
Q 2822 3125 2822 3475 
Q 2822 3834 2567 4026 
Q 2313 4219 1838 4219 
Q 1578 4219 1281 4162 
Q 984 4106 628 3988 
L 628 4550 
Q 988 4650 1302 4700 
Q 1616 4750 1894 4750 
Q 2613 4750 3031 4423 
Q 3450 4097 3450 3541 
Q 3450 3153 3228 2886 
Q 3006 2619 2597 2516 
z
" transform="scale(0.015625)"/>
       </defs>
       <use xlink:href="#DejaVuSans-33"/>
      </g>
     </g>
    </g>
    <g id="ytick_10">
     <g id="line2d_23">
      <g>
       <use xlink:href="#m10ac552ab4" x="518.4" y="237.665782" style="stroke: #000000; stroke-width: 0.8"/>
      </g>
     </g>
     <g id="text_23">
      <!-- 4 -->
      <g transform="translate(525.4 241.465001) scale(0.1 -0.1)">
       <use xlink:href="#DejaVuSans-34"/>
      </g>
     </g>
    </g>
    <g id="ytick_11">
     <g id="line2d_24">
      <g>
       <use xlink:href="#m10ac552ab4" x="518.4" y="192.64268" style="stroke: #000000; stroke-width: 0.8"/>
      </g>
     </g>
     <g id="text_24">
      <!-- 5 -->
      <g transform="translate(525.4 196.441899) scale(0.1 -0.1)">
       <use xlink:href="#DejaVuSans-35"/>
      </g>
     </g>
    </g>
    <g id="ytick_12">
     <g id="line2d_25">
      <g>
       <use xlink:href="#m10ac552ab4" x="518.4" y="147.619578" style="stroke: #000000; stroke-width: 0.8"/>
      </g>
     </g>
     <g id="text_25">
      <!-- 6 -->
      <g transform="translate(525.4 151.418797) scale(0.1 -0.1)">
       <use xlink:href="#DejaVuSans-36"/>
      </g>
     </g>
    </g>
    <g id="ytick_13">
     <g id="line2d_26">
      <g>
       <use xlink:href="#m10ac552ab4" x="518.4" y="102.596476" style="stroke: #000000; stroke-width: 0.8"/>
      </g>
     </g>
     <g id="text_26">
      <!-- 7 -->
      <g transform="translate(525.4 106.395695) scale(0.1 -0.1)">
       <use xlink:href="#DejaVuSans-37"/>
      </g>
     </g>
    </g>
    <g id="ytick_14">
     <g id="line2d_27">
      <g>
       <use xlink:href="#m10ac552ab4" x="518.4" y="57.573374" style="stroke: #000000; stroke-width: 0.8"/>
      </g>
     </g>
     <g id="text_27">
      <!-- 8 -->
      <g transform="translate(525.4 61.372593) scale(0.1 -0.1)">
       <use xlink:href="#DejaVuSans-38"/>
      </g>
     </g>
    </g>
    <g id="text_28">
     <!-- loss -->
     <g transform="translate(543.360937 227.817812) rotate(-90) scale(0.1 -0.1)">
      <defs>
       <path id="DejaVuSans-73" d="M 2834 3397 
L 2834 2853 
Q 2591 2978 2328 3040 
Q 2066 3103 1784 3103 
Q 1356 3103 1142 2972 
Q 928 2841 928 2578 
Q 928 2378 1081 2264 
Q 1234 2150 1697 2047 
L 1894 2003 
Q 2506 1872 2764 1633 
Q 3022 1394 3022 966 
Q 3022 478 2636 193 
Q 2250 -91 1575 -91 
Q 1294 -91 989 -36 
Q 684 19 347 128 
L 347 722 
Q 666 556 975 473 
Q 1284 391 1588 391 
Q 1994 391 2212 530 
Q 2431 669 2431 922 
Q 2431 1156 2273 1281 
Q 2116 1406 1581 1522 
L 1381 1569 
Q 847 1681 609 1914 
Q 372 2147 372 2553 
Q 372 3047 722 3315 
Q 1072 3584 1716 3584 
Q 2034 3584 2315 3537 
Q 2597 3491 2834 3397 
z
" transform="scale(0.015625)"/>
      </defs>
      <use xlink:href="#DejaVuSans-6c"/>
      <use xlink:href="#DejaVuSans-6f" x="27.783203"/>
      <use xlink:href="#DejaVuSans-73" x="88.964844"/>
      <use xlink:href="#DejaVuSans-73" x="141.064453"/>
     </g>
    </g>
   </g>
   <g id="line2d_28">
    <path d="M 92.290909 222.790172 
L 94.330196 195.56546 
L 96.369484 199.113462 
L 98.408771 234.002558 
L 100.448058 319.927352 
L 102.487346 260.72779 
L 104.526633 181.499779 
L 106.565921 281.112292 
L 108.605208 333.648682 
L 110.644495 279.628925 
L 112.683783 263.98827 
L 114.72307 197.985404 
L 116.762357 329.84588 
L 118.801645 257.000175 
L 120.840932 323.419232 
L 122.880219 343.545408 
L 124.919507 323.968212 
L 126.958794 267.331667 
L 128.998081 287.902233 
L 131.037369 262.013103 
L 133.076656 306.546538 
L 135.115943 301.159903 
L 137.155231 317.428737 
L 139.194518 342.860469 
L 141.233805 300.669773 
L 143.273093 280.932227 
L 145.31238 311.328472 
L 147.351667 287.848312 
L 149.390955 294.849412 
L 151.430242 282.172828 
L 153.469529 284.582603 
L 155.508817 279.348386 
L 157.548104 337.568067 
L 159.587392 345.181906 
L 161.626679 344.935669 
L 163.665966 328.653093 
L 165.705254 344.513791 
L 167.744541 348.559936 
L 169.783828 345.799661 
L 171.823116 363.790567 
L 173.862403 332.869758 
L 175.90169 337.241344 
L 177.940978 338.927506 
L 179.980265 355.99396 
L 182.019552 333.789341 
L 184.05884 349.753903 
L 186.098127 341.353621 
L 188.137414 357.653825 
L 190.176702 311.63424 
L 192.215989 342.302439 
L 194.255276 278.592851 
L 196.294564 345.179594 
L 198.333851 329.928311 
L 200.373138 358.383596 
L 202.412426 340.838113 
L 204.451713 369.36 
L 206.491 333.313321 
L 208.530288 334.568984 
L 210.569575 347.788194 
L 212.608862 351.860857 
L 214.64815 332.039611 
L 216.687437 323.097345 
L 218.726725 335.289915 
L 220.766012 328.714526 
L 222.805299 339.946503 
L 224.844587 338.859242 
L 226.883874 334.417183 
L 228.923161 364.838364 
L 230.962449 328.945534 
L 233.001736 312.671719 
L 235.041023 341.487729 
L 237.080311 310.635289 
L 239.119598 312.409454 
L 241.158885 252.910939 
L 243.198173 297.029071 
L 245.23746 267.922484 
L 247.276747 329.385351 
L 249.316035 328.258639 
L 251.355322 302.646742 
L 253.394609 304.427184 
L 255.433897 329.603814 
L 257.473184 312.580166 
L 259.512471 293.894057 
L 261.551759 311.843637 
L 263.591046 324.056009 
L 265.630333 272.170897 
L 267.669621 294.977391 
L 269.708908 329.700027 
L 271.748196 324.666319 
L 273.787483 230.169985 
L 275.82677 204.174858 
L 279.905345 324.261879 
L 283.98392 297.865564 
L 286.023207 280.893984 
L 288.062494 323.040287 
L 290.101782 345.247094 
L 292.141069 240.014311 
L 294.180356 209.798416 
L 296.219644 294.305346 
L 298.258931 328.596562 
L 300.298218 224.6595 
L 302.337506 306.33848 
L 304.376793 300.511626 
L 306.41608 289.678235 
L 308.455368 328.987587 
L 310.494655 289.116702 
L 312.533942 288.505394 
L 314.57323 322.707606 
L 316.612517 161.435594 
L 318.651804 275.833711 
L 320.691092 326.860999 
L 322.730379 312.997832 
L 324.769667 347.965518 
L 326.808954 314.153065 
L 328.848241 325.909568 
L 330.887529 335.499118 
L 332.926816 336.410158 
L 334.966103 314.727911 
L 337.005391 310.058019 
L 339.044678 323.657786 
L 341.083965 317.439008 
L 343.123253 335.322108 
L 345.16254 218.785012 
L 347.201827 260.3241 
L 349.241115 257.611964 
L 351.280402 262.62739 
L 353.319689 288.710633 
L 355.358977 291.273515 
L 357.398264 303.59473 
L 359.437551 314.738861 
L 361.476839 254.78142 
L 363.516126 283.736712 
L 365.555413 300.914694 
L 367.594701 282.981198 
L 369.633988 239.324122 
L 371.673275 305.338157 
L 373.712563 155.97175 
L 375.75185 287.322412 
L 377.791138 266.003817 
L 379.830425 158.775091 
L 381.869712 294.542228 
L 383.909 139.433983 
L 385.948287 242.290385 
L 387.987574 289.190119 
L 390.026862 280.983561 
L 392.066149 310.606992 
L 394.105436 244.794391 
L 396.144724 275.345882 
L 398.184011 254.821661 
L 400.223298 297.722292 
L 402.262586 245.7613 
L 404.301873 275.373385 
L 406.34116 270.996302 
L 408.380448 296.156484 
L 410.419735 258.42878 
L 412.459022 227.425661 
L 414.49831 258.204499 
L 416.537597 283.899866 
L 418.576884 233.578275 
L 420.616172 250.116212 
L 422.655459 236.608783 
L 424.694746 225.558458 
L 426.734034 256.098812 
L 428.773321 276.368325 
L 430.812608 213.858711 
L 432.851896 180.975127 
L 434.891183 205.676533 
L 436.930471 193.34207 
L 438.969758 162.761086 
L 441.009045 135.344113 
L 443.048333 197.097794 
L 445.08762 226.958866 
L 447.126907 191.384433 
L 449.166195 207.516712 
L 451.205482 202.340444 
L 453.244769 245.817559 
L 455.284057 155.068052 
L 457.323344 169.976358 
L 459.362631 208.517241 
L 461.401919 155.574718 
L 463.441206 115.790402 
L 465.480493 198.339061 
L 467.519781 228.961552 
L 469.559068 187.667951 
L 471.598355 114.276829 
L 473.637643 66.96 
L 475.67693 257.370366 
L 477.716217 156.658621 
L 479.755505 136.201912 
L 481.794792 120.098907 
L 483.834079 179.004069 
L 485.873367 131.195228 
L 487.912654 104.974868 
L 489.951942 92.547999 
L 491.991229 195.093017 
L 494.030516 119.20616 
L 496.069804 73.931891 
L 498.109091 104.87733 
L 498.109091 104.87733 
" clip-path="url(#p31b18a3158)" style="fill: none; stroke: #ff0000; stroke-width: 1.5; stroke-linecap: square"/>
   </g>
   <g id="patch_8">
    <path d="M 72 384.48 
L 72 51.84 
" style="fill: none; stroke: #000000; stroke-width: 0.8; stroke-linejoin: miter; stroke-linecap: square"/>
   </g>
   <g id="patch_9">
    <path d="M 518.4 384.48 
L 518.4 51.84 
" style="fill: none; stroke: #000000; stroke-width: 0.8; stroke-linejoin: miter; stroke-linecap: square"/>
   </g>
   <g id="patch_10">
    <path d="M 72 384.48 
L 518.4 384.48 
" style="fill: none; stroke: #000000; stroke-width: 0.8; stroke-linejoin: miter; stroke-linecap: square"/>
   </g>
   <g id="patch_11">
    <path d="M 72 51.84 
L 518.4 51.84 
" style="fill: none; stroke: #000000; stroke-width: 0.8; stroke-linejoin: miter; stroke-linecap: square"/>
   </g>
   <g id="text_29">
    <!-- The learning curve on voc/voc_fpsl_200_onecycle/host/3 -->
    <g transform="translate(125.934375 45.84) scale(0.12 -0.12)">
     <defs>
      <path id="DejaVuSans-54" d="M -19 4666 
L 3928 4666 
L 3928 4134 
L 2272 4134 
L 2272 0 
L 1638 0 
L 1638 4134 
L -19 4134 
L -19 4666 
z
" transform="scale(0.015625)"/>
      <path id="DejaVuSans-67" d="M 2906 1791 
Q 2906 2416 2648 2759 
Q 2391 3103 1925 3103 
Q 1463 3103 1205 2759 
Q 947 2416 947 1791 
Q 947 1169 1205 825 
Q 1463 481 1925 481 
Q 2391 481 2648 825 
Q 2906 1169 2906 1791 
z
M 3481 434 
Q 3481 -459 3084 -895 
Q 2688 -1331 1869 -1331 
Q 1566 -1331 1297 -1286 
Q 1028 -1241 775 -1147 
L 775 -588 
Q 1028 -725 1275 -790 
Q 1522 -856 1778 -856 
Q 2344 -856 2625 -561 
Q 2906 -266 2906 331 
L 2906 616 
Q 2728 306 2450 153 
Q 2172 0 1784 0 
Q 1141 0 747 490 
Q 353 981 353 1791 
Q 353 2603 747 3093 
Q 1141 3584 1784 3584 
Q 2172 3584 2450 3431 
Q 2728 3278 2906 2969 
L 2906 3500 
L 3481 3500 
L 3481 434 
z
" transform="scale(0.015625)"/>
      <path id="DejaVuSans-75" d="M 544 1381 
L 544 3500 
L 1119 3500 
L 1119 1403 
Q 1119 906 1312 657 
Q 1506 409 1894 409 
Q 2359 409 2629 706 
Q 2900 1003 2900 1516 
L 2900 3500 
L 3475 3500 
L 3475 0 
L 2900 0 
L 2900 538 
Q 2691 219 2414 64 
Q 2138 -91 1772 -91 
Q 1169 -91 856 284 
Q 544 659 544 1381 
z
M 1991 3584 
L 1991 3584 
z
" transform="scale(0.015625)"/>
      <path id="DejaVuSans-2f" d="M 1625 4666 
L 2156 4666 
L 531 -594 
L 0 -594 
L 1625 4666 
z
" transform="scale(0.015625)"/>
      <path id="DejaVuSans-5f" d="M 3263 -1063 
L 3263 -1509 
L -63 -1509 
L -63 -1063 
L 3263 -1063 
z
" transform="scale(0.015625)"/>
      <path id="DejaVuSans-66" d="M 2375 4863 
L 2375 4384 
L 1825 4384 
Q 1516 4384 1395 4259 
Q 1275 4134 1275 3809 
L 1275 3500 
L 2222 3500 
L 2222 3053 
L 1275 3053 
L 1275 0 
L 697 0 
L 697 3053 
L 147 3053 
L 147 3500 
L 697 3500 
L 697 3744 
Q 697 4328 969 4595 
Q 1241 4863 1831 4863 
L 2375 4863 
z
" transform="scale(0.015625)"/>
      <path id="DejaVuSans-79" d="M 2059 -325 
Q 1816 -950 1584 -1140 
Q 1353 -1331 966 -1331 
L 506 -1331 
L 506 -850 
L 844 -850 
Q 1081 -850 1212 -737 
Q 1344 -625 1503 -206 
L 1606 56 
L 191 3500 
L 800 3500 
L 1894 763 
L 2988 3500 
L 3597 3500 
L 2059 -325 
z
" transform="scale(0.015625)"/>
     </defs>
     <use xlink:href="#DejaVuSans-54"/>
     <use xlink:href="#DejaVuSans-68" x="61.083984"/>
     <use xlink:href="#DejaVuSans-65" x="124.462891"/>
     <use xlink:href="#DejaVuSans-20" x="185.986328"/>
     <use xlink:href="#DejaVuSans-6c" x="217.773438"/>
     <use xlink:href="#DejaVuSans-65" x="245.556641"/>
     <use xlink:href="#DejaVuSans-61" x="307.080078"/>
     <use xlink:href="#DejaVuSans-72" x="368.359375"/>
     <use xlink:href="#DejaVuSans-6e" x="407.722656"/>
     <use xlink:href="#DejaVuSans-69" x="471.101562"/>
     <use xlink:href="#DejaVuSans-6e" x="498.884766"/>
     <use xlink:href="#DejaVuSans-67" x="562.263672"/>
     <use xlink:href="#DejaVuSans-20" x="625.740234"/>
     <use xlink:href="#DejaVuSans-63" x="657.527344"/>
     <use xlink:href="#DejaVuSans-75" x="712.507812"/>
     <use xlink:href="#DejaVuSans-72" x="775.886719"/>
     <use xlink:href="#DejaVuSans-76" x="817"/>
     <use xlink:href="#DejaVuSans-65" x="876.179688"/>
     <use xlink:href="#DejaVuSans-20" x="937.703125"/>
     <use xlink:href="#DejaVuSans-6f" x="969.490234"/>
     <use xlink:href="#DejaVuSans-6e" x="1030.671875"/>
     <use xlink:href="#DejaVuSans-20" x="1094.050781"/>
     <use xlink:href="#DejaVuSans-76" x="1125.837891"/>
     <use xlink:href="#DejaVuSans-6f" x="1185.017578"/>
     <use xlink:href="#DejaVuSans-63" x="1246.199219"/>
     <use xlink:href="#DejaVuSans-2f" x="1301.179688"/>
     <use xlink:href="#DejaVuSans-76" x="1334.871094"/>
     <use xlink:href="#DejaVuSans-6f" x="1394.050781"/>
     <use xlink:href="#DejaVuSans-63" x="1455.232422"/>
     <use xlink:href="#DejaVuSans-5f" x="1510.212891"/>
     <use xlink:href="#DejaVuSans-66" x="1560.212891"/>
     <use xlink:href="#DejaVuSans-70" x="1595.417969"/>
     <use xlink:href="#DejaVuSans-73" x="1658.894531"/>
     <use xlink:href="#DejaVuSans-6c" x="1710.994141"/>
     <use xlink:href="#DejaVuSans-5f" x="1738.777344"/>
     <use xlink:href="#DejaVuSans-32" x="1788.777344"/>
     <use xlink:href="#DejaVuSans-30" x="1852.400391"/>
     <use xlink:href="#DejaVuSans-30" x="1916.023438"/>
     <use xlink:href="#DejaVuSans-5f" x="1979.646484"/>
     <use xlink:href="#DejaVuSans-6f" x="2029.646484"/>
     <use xlink:href="#DejaVuSans-6e" x="2090.828125"/>
     <use xlink:href="#DejaVuSans-65" x="2154.207031"/>
     <use xlink:href="#DejaVuSans-63" x="2215.730469"/>
     <use xlink:href="#DejaVuSans-79" x="2270.710938"/>
     <use xlink:href="#DejaVuSans-63" x="2329.890625"/>
     <use xlink:href="#DejaVuSans-6c" x="2384.871094"/>
     <use xlink:href="#DejaVuSans-65" x="2412.654297"/>
     <use xlink:href="#DejaVuSans-2f" x="2474.177734"/>
     <use xlink:href="#DejaVuSans-68" x="2507.869141"/>
     <use xlink:href="#DejaVuSans-6f" x="2571.248047"/>
     <use xlink:href="#DejaVuSans-73" x="2632.429688"/>
     <use xlink:href="#DejaVuSans-74" x="2684.529297"/>
     <use xlink:href="#DejaVuSans-2f" x="2723.738281"/>
     <use xlink:href="#DejaVuSans-33" x="2757.429688"/>
    </g>
   </g>
   <g id="legend_2">
    <g id="patch_12">
     <path d="M 460.084375 74.518125 
L 511.4 74.518125 
Q 513.4 74.518125 513.4 72.518125 
L 513.4 58.84 
Q 513.4 56.84 511.4 56.84 
L 460.084375 56.84 
Q 458.084375 56.84 458.084375 58.84 
L 458.084375 72.518125 
Q 458.084375 74.518125 460.084375 74.518125 
z
" style="fill: #ffffff; opacity: 0.8; stroke: #cccccc; stroke-linejoin: miter"/>
    </g>
    <g id="line2d_29">
     <path d="M 462.084375 64.938438 
L 472.084375 64.938438 
L 482.084375 64.938438 
" style="fill: none; stroke: #ff0000; stroke-width: 1.5; stroke-linecap: square"/>
    </g>
    <g id="text_30">
     <!-- loss -->
     <g transform="translate(490.084375 68.438438) scale(0.1 -0.1)">
      <use xlink:href="#DejaVuSans-6c"/>
      <use xlink:href="#DejaVuSans-6f" x="27.783203"/>
      <use xlink:href="#DejaVuSans-73" x="88.964844"/>
      <use xlink:href="#DejaVuSans-73" x="141.064453"/>
     </g>
    </g>
   </g>
  </g>
 </g>
 <defs>
  <clipPath id="p31b18a3158">
   <rect x="72" y="51.84" width="446.4" height="332.64"/>
  </clipPath>
 </defs>
</svg>
