<?xml version="1.0" encoding="utf-8" standalone="no"?>
<!DOCTYPE svg PUBLIC "-//W3C//DTD SVG 1.1//EN"
  "http://www.w3.org/Graphics/SVG/1.1/DTD/svg11.dtd">
<svg xmlns:xlink="http://www.w3.org/1999/xlink" width="576pt" height="432pt" viewBox="0 0 576 432" xmlns="http://www.w3.org/2000/svg" version="1.1">
 <metadata>
  <rdf:RDF xmlns:dc="http://purl.org/dc/elements/1.1/" xmlns:cc="http://creativecommons.org/ns#" xmlns:rdf="http://www.w3.org/1999/02/22-rdf-syntax-ns#">
   <cc:Work>
    <dc:type rdf:resource="http://purl.org/dc/dcmitype/StillImage"/>
    <dc:date>2023-10-15T21:40:10.590903</dc:date>
    <dc:format>image/svg+xml</dc:format>
    <dc:creator>
     <cc:Agent>
      <dc:title>Matplotlib v3.7.1, https://matplotlib.org/</dc:title>
     </cc:Agent>
    </dc:creator>
   </cc:Work>
  </rdf:RDF>
 </metadata>
 <defs>
  <style type="text/css">*{stroke-linejoin: round; stroke-linecap: butt}</style>
 </defs>
 <g id="figure_1">
  <g id="patch_1">
   <path d="M 0 432 
L 576 432 
L 576 0 
L 0 0 
z
" style="fill: #ffffff"/>
  </g>
  <g id="axes_1">
   <g id="patch_2">
    <path d="M 72 384.48 
L 518.4 384.48 
L 518.4 51.84 
L 72 51.84 
z
" style="fill: #ffffff"/>
   </g>
   <g id="matplotlib.axis_1">
    <g id="xtick_1">
     <g id="line2d_1">
      <defs>
       <path id="mae77b2aa6f" d="M 0 0 
L 0 3.5 
" style="stroke: #000000; stroke-width: 0.8"/>
      </defs>
      <g>
       <use xlink:href="#mae77b2aa6f" x="92.290909" y="384.48" style="stroke: #000000; stroke-width: 0.8"/>
      </g>
     </g>
     <g id="text_1">
      <!-- 0 -->
      <g transform="translate(89.109659 399.078438) scale(0.1 -0.1)">
       <defs>
        <path id="DejaVuSans-30" d="M 2034 4250 
Q 1547 4250 1301 3770 
Q 1056 3291 1056 2328 
Q 1056 1369 1301 889 
Q 1547 409 2034 409 
Q 2525 409 2770 889 
Q 3016 1369 3016 2328 
Q 3016 3291 2770 3770 
Q 2525 4250 2034 4250 
z
M 2034 4750 
Q 2819 4750 3233 4129 
Q 3647 3509 3647 2328 
Q 3647 1150 3233 529 
Q 2819 -91 2034 -91 
Q 1250 -91 836 529 
Q 422 1150 422 2328 
Q 422 3509 836 4129 
Q 1250 4750 2034 4750 
z
" transform="scale(0.015625)"/>
       </defs>
       <use xlink:href="#DejaVuSans-30"/>
      </g>
     </g>
    </g>
    <g id="xtick_2">
     <g id="line2d_2">
      <g>
       <use xlink:href="#mae77b2aa6f" x="143.273093" y="384.48" style="stroke: #000000; stroke-width: 0.8"/>
      </g>
     </g>
     <g id="text_2">
      <!-- 25 -->
      <g transform="translate(136.910593 399.078438) scale(0.1 -0.1)">
       <defs>
        <path id="DejaVuSans-32" d="M 1228 531 
L 3431 531 
L 3431 0 
L 469 0 
L 469 531 
Q 828 903 1448 1529 
Q 2069 2156 2228 2338 
Q 2531 2678 2651 2914 
Q 2772 3150 2772 3378 
Q 2772 3750 2511 3984 
Q 2250 4219 1831 4219 
Q 1534 4219 1204 4116 
Q 875 4013 500 3803 
L 500 4441 
Q 881 4594 1212 4672 
Q 1544 4750 1819 4750 
Q 2544 4750 2975 4387 
Q 3406 4025 3406 3419 
Q 3406 3131 3298 2873 
Q 3191 2616 2906 2266 
Q 2828 2175 2409 1742 
Q 1991 1309 1228 531 
z
" transform="scale(0.015625)"/>
        <path id="DejaVuSans-35" d="M 691 4666 
L 3169 4666 
L 3169 4134 
L 1269 4134 
L 1269 2991 
Q 1406 3038 1543 3061 
Q 1681 3084 1819 3084 
Q 2600 3084 3056 2656 
Q 3513 2228 3513 1497 
Q 3513 744 3044 326 
Q 2575 -91 1722 -91 
Q 1428 -91 1123 -41 
Q 819 9 494 109 
L 494 744 
Q 775 591 1075 516 
Q 1375 441 1709 441 
Q 2250 441 2565 725 
Q 2881 1009 2881 1497 
Q 2881 1984 2565 2268 
Q 2250 2553 1709 2553 
Q 1456 2553 1204 2497 
Q 953 2441 691 2322 
L 691 4666 
z
" transform="scale(0.015625)"/>
       </defs>
       <use xlink:href="#DejaVuSans-32"/>
       <use xlink:href="#DejaVuSans-35" x="63.623047"/>
      </g>
     </g>
    </g>
    <g id="xtick_3">
     <g id="line2d_3">
      <g>
       <use xlink:href="#mae77b2aa6f" x="194.255276" y="384.48" style="stroke: #000000; stroke-width: 0.8"/>
      </g>
     </g>
     <g id="text_3">
      <!-- 50 -->
      <g transform="translate(187.892776 399.078438) scale(0.1 -0.1)">
       <use xlink:href="#DejaVuSans-35"/>
       <use xlink:href="#DejaVuSans-30" x="63.623047"/>
      </g>
     </g>
    </g>
    <g id="xtick_4">
     <g id="line2d_4">
      <g>
       <use xlink:href="#mae77b2aa6f" x="245.23746" y="384.48" style="stroke: #000000; stroke-width: 0.8"/>
      </g>
     </g>
     <g id="text_4">
      <!-- 75 -->
      <g transform="translate(238.87496 399.078438) scale(0.1 -0.1)">
       <defs>
        <path id="DejaVuSans-37" d="M 525 4666 
L 3525 4666 
L 3525 4397 
L 1831 0 
L 1172 0 
L 2766 4134 
L 525 4134 
L 525 4666 
z
" transform="scale(0.015625)"/>
       </defs>
       <use xlink:href="#DejaVuSans-37"/>
       <use xlink:href="#DejaVuSans-35" x="63.623047"/>
      </g>
     </g>
    </g>
    <g id="xtick_5">
     <g id="line2d_5">
      <g>
       <use xlink:href="#mae77b2aa6f" x="296.219644" y="384.48" style="stroke: #000000; stroke-width: 0.8"/>
      </g>
     </g>
     <g id="text_5">
      <!-- 100 -->
      <g transform="translate(286.675894 399.078438) scale(0.1 -0.1)">
       <defs>
        <path id="DejaVuSans-31" d="M 794 531 
L 1825 531 
L 1825 4091 
L 703 3866 
L 703 4441 
L 1819 4666 
L 2450 4666 
L 2450 531 
L 3481 531 
L 3481 0 
L 794 0 
L 794 531 
z
" transform="scale(0.015625)"/>
       </defs>
       <use xlink:href="#DejaVuSans-31"/>
       <use xlink:href="#DejaVuSans-30" x="63.623047"/>
       <use xlink:href="#DejaVuSans-30" x="127.246094"/>
      </g>
     </g>
    </g>
    <g id="xtick_6">
     <g id="line2d_6">
      <g>
       <use xlink:href="#mae77b2aa6f" x="347.201827" y="384.48" style="stroke: #000000; stroke-width: 0.8"/>
      </g>
     </g>
     <g id="text_6">
      <!-- 125 -->
      <g transform="translate(337.658077 399.078438) scale(0.1 -0.1)">
       <use xlink:href="#DejaVuSans-31"/>
       <use xlink:href="#DejaVuSans-32" x="63.623047"/>
       <use xlink:href="#DejaVuSans-35" x="127.246094"/>
      </g>
     </g>
    </g>
    <g id="xtick_7">
     <g id="line2d_7">
      <g>
       <use xlink:href="#mae77b2aa6f" x="398.184011" y="384.48" style="stroke: #000000; stroke-width: 0.8"/>
      </g>
     </g>
     <g id="text_7">
      <!-- 150 -->
      <g transform="translate(388.640261 399.078438) scale(0.1 -0.1)">
       <use xlink:href="#DejaVuSans-31"/>
       <use xlink:href="#DejaVuSans-35" x="63.623047"/>
       <use xlink:href="#DejaVuSans-30" x="127.246094"/>
      </g>
     </g>
    </g>
    <g id="xtick_8">
     <g id="line2d_8">
      <g>
       <use xlink:href="#mae77b2aa6f" x="449.166195" y="384.48" style="stroke: #000000; stroke-width: 0.8"/>
      </g>
     </g>
     <g id="text_8">
      <!-- 175 -->
      <g transform="translate(439.622445 399.078438) scale(0.1 -0.1)">
       <use xlink:href="#DejaVuSans-31"/>
       <use xlink:href="#DejaVuSans-37" x="63.623047"/>
       <use xlink:href="#DejaVuSans-35" x="127.246094"/>
      </g>
     </g>
    </g>
    <g id="xtick_9">
     <g id="line2d_9">
      <g>
       <use xlink:href="#mae77b2aa6f" x="500.148378" y="384.48" style="stroke: #000000; stroke-width: 0.8"/>
      </g>
     </g>
     <g id="text_9">
      <!-- 200 -->
      <g transform="translate(490.604628 399.078438) scale(0.1 -0.1)">
       <use xlink:href="#DejaVuSans-32"/>
       <use xlink:href="#DejaVuSans-30" x="63.623047"/>
       <use xlink:href="#DejaVuSans-30" x="127.246094"/>
      </g>
     </g>
    </g>
    <g id="text_10">
     <!-- epoch -->
     <g transform="translate(279.971875 412.756563) scale(0.1 -0.1)">
      <defs>
       <path id="DejaVuSans-65" d="M 3597 1894 
L 3597 1613 
L 953 1613 
Q 991 1019 1311 708 
Q 1631 397 2203 397 
Q 2534 397 2845 478 
Q 3156 559 3463 722 
L 3463 178 
Q 3153 47 2828 -22 
Q 2503 -91 2169 -91 
Q 1331 -91 842 396 
Q 353 884 353 1716 
Q 353 2575 817 3079 
Q 1281 3584 2069 3584 
Q 2775 3584 3186 3129 
Q 3597 2675 3597 1894 
z
M 3022 2063 
Q 3016 2534 2758 2815 
Q 2500 3097 2075 3097 
Q 1594 3097 1305 2825 
Q 1016 2553 972 2059 
L 3022 2063 
z
" transform="scale(0.015625)"/>
       <path id="DejaVuSans-70" d="M 1159 525 
L 1159 -1331 
L 581 -1331 
L 581 3500 
L 1159 3500 
L 1159 2969 
Q 1341 3281 1617 3432 
Q 1894 3584 2278 3584 
Q 2916 3584 3314 3078 
Q 3713 2572 3713 1747 
Q 3713 922 3314 415 
Q 2916 -91 2278 -91 
Q 1894 -91 1617 61 
Q 1341 213 1159 525 
z
M 3116 1747 
Q 3116 2381 2855 2742 
Q 2594 3103 2138 3103 
Q 1681 3103 1420 2742 
Q 1159 2381 1159 1747 
Q 1159 1113 1420 752 
Q 1681 391 2138 391 
Q 2594 391 2855 752 
Q 3116 1113 3116 1747 
z
" transform="scale(0.015625)"/>
       <path id="DejaVuSans-6f" d="M 1959 3097 
Q 1497 3097 1228 2736 
Q 959 2375 959 1747 
Q 959 1119 1226 758 
Q 1494 397 1959 397 
Q 2419 397 2687 759 
Q 2956 1122 2956 1747 
Q 2956 2369 2687 2733 
Q 2419 3097 1959 3097 
z
M 1959 3584 
Q 2709 3584 3137 3096 
Q 3566 2609 3566 1747 
Q 3566 888 3137 398 
Q 2709 -91 1959 -91 
Q 1206 -91 779 398 
Q 353 888 353 1747 
Q 353 2609 779 3096 
Q 1206 3584 1959 3584 
z
" transform="scale(0.015625)"/>
       <path id="DejaVuSans-63" d="M 3122 3366 
L 3122 2828 
Q 2878 2963 2633 3030 
Q 2388 3097 2138 3097 
Q 1578 3097 1268 2742 
Q 959 2388 959 1747 
Q 959 1106 1268 751 
Q 1578 397 2138 397 
Q 2388 397 2633 464 
Q 2878 531 3122 666 
L 3122 134 
Q 2881 22 2623 -34 
Q 2366 -91 2075 -91 
Q 1284 -91 818 406 
Q 353 903 353 1747 
Q 353 2603 823 3093 
Q 1294 3584 2113 3584 
Q 2378 3584 2631 3529 
Q 2884 3475 3122 3366 
z
" transform="scale(0.015625)"/>
       <path id="DejaVuSans-68" d="M 3513 2113 
L 3513 0 
L 2938 0 
L 2938 2094 
Q 2938 2591 2744 2837 
Q 2550 3084 2163 3084 
Q 1697 3084 1428 2787 
Q 1159 2491 1159 1978 
L 1159 0 
L 581 0 
L 581 4863 
L 1159 4863 
L 1159 2956 
Q 1366 3272 1645 3428 
Q 1925 3584 2291 3584 
Q 2894 3584 3203 3211 
Q 3513 2838 3513 2113 
z
" transform="scale(0.015625)"/>
      </defs>
      <use xlink:href="#DejaVuSans-65"/>
      <use xlink:href="#DejaVuSans-70" x="61.523438"/>
      <use xlink:href="#DejaVuSans-6f" x="125"/>
      <use xlink:href="#DejaVuSans-63" x="186.181641"/>
      <use xlink:href="#DejaVuSans-68" x="241.162109"/>
     </g>
    </g>
   </g>
   <g id="matplotlib.axis_2">
    <g id="ytick_1">
     <g id="line2d_10">
      <defs>
       <path id="m0612f517a8" d="M 0 0 
L -3.5 0 
" style="stroke: #000000; stroke-width: 0.8"/>
      </defs>
      <g>
       <use xlink:href="#m0612f517a8" x="72" y="384.48" style="stroke: #000000; stroke-width: 0.8"/>
      </g>
     </g>
     <g id="text_11">
      <!-- 0 -->
      <g transform="translate(58.6375 388.279219) scale(0.1 -0.1)">
       <use xlink:href="#DejaVuSans-30"/>
      </g>
     </g>
    </g>
    <g id="ytick_2">
     <g id="line2d_11">
      <g>
       <use xlink:href="#m0612f517a8" x="72" y="317.952" style="stroke: #000000; stroke-width: 0.8"/>
      </g>
     </g>
     <g id="text_12">
      <!-- 20 -->
      <g transform="translate(52.275 321.751219) scale(0.1 -0.1)">
       <use xlink:href="#DejaVuSans-32"/>
       <use xlink:href="#DejaVuSans-30" x="63.623047"/>
      </g>
     </g>
    </g>
    <g id="ytick_3">
     <g id="line2d_12">
      <g>
       <use xlink:href="#m0612f517a8" x="72" y="251.424" style="stroke: #000000; stroke-width: 0.8"/>
      </g>
     </g>
     <g id="text_13">
      <!-- 40 -->
      <g transform="translate(52.275 255.223219) scale(0.1 -0.1)">
       <defs>
        <path id="DejaVuSans-34" d="M 2419 4116 
L 825 1625 
L 2419 1625 
L 2419 4116 
z
M 2253 4666 
L 3047 4666 
L 3047 1625 
L 3713 1625 
L 3713 1100 
L 3047 1100 
L 3047 0 
L 2419 0 
L 2419 1100 
L 313 1100 
L 313 1709 
L 2253 4666 
z
" transform="scale(0.015625)"/>
       </defs>
       <use xlink:href="#DejaVuSans-34"/>
       <use xlink:href="#DejaVuSans-30" x="63.623047"/>
      </g>
     </g>
    </g>
    <g id="ytick_4">
     <g id="line2d_13">
      <g>
       <use xlink:href="#m0612f517a8" x="72" y="184.896" style="stroke: #000000; stroke-width: 0.8"/>
      </g>
     </g>
     <g id="text_14">
      <!-- 60 -->
      <g transform="translate(52.275 188.695219) scale(0.1 -0.1)">
       <defs>
        <path id="DejaVuSans-36" d="M 2113 2584 
Q 1688 2584 1439 2293 
Q 1191 2003 1191 1497 
Q 1191 994 1439 701 
Q 1688 409 2113 409 
Q 2538 409 2786 701 
Q 3034 994 3034 1497 
Q 3034 2003 2786 2293 
Q 2538 2584 2113 2584 
z
M 3366 4563 
L 3366 3988 
Q 3128 4100 2886 4159 
Q 2644 4219 2406 4219 
Q 1781 4219 1451 3797 
Q 1122 3375 1075 2522 
Q 1259 2794 1537 2939 
Q 1816 3084 2150 3084 
Q 2853 3084 3261 2657 
Q 3669 2231 3669 1497 
Q 3669 778 3244 343 
Q 2819 -91 2113 -91 
Q 1303 -91 875 529 
Q 447 1150 447 2328 
Q 447 3434 972 4092 
Q 1497 4750 2381 4750 
Q 2619 4750 2861 4703 
Q 3103 4656 3366 4563 
z
" transform="scale(0.015625)"/>
       </defs>
       <use xlink:href="#DejaVuSans-36"/>
       <use xlink:href="#DejaVuSans-30" x="63.623047"/>
      </g>
     </g>
    </g>
    <g id="ytick_5">
     <g id="line2d_14">
      <g>
       <use xlink:href="#m0612f517a8" x="72" y="118.368" style="stroke: #000000; stroke-width: 0.8"/>
      </g>
     </g>
     <g id="text_15">
      <!-- 80 -->
      <g transform="translate(52.275 122.167219) scale(0.1 -0.1)">
       <defs>
        <path id="DejaVuSans-38" d="M 2034 2216 
Q 1584 2216 1326 1975 
Q 1069 1734 1069 1313 
Q 1069 891 1326 650 
Q 1584 409 2034 409 
Q 2484 409 2743 651 
Q 3003 894 3003 1313 
Q 3003 1734 2745 1975 
Q 2488 2216 2034 2216 
z
M 1403 2484 
Q 997 2584 770 2862 
Q 544 3141 544 3541 
Q 544 4100 942 4425 
Q 1341 4750 2034 4750 
Q 2731 4750 3128 4425 
Q 3525 4100 3525 3541 
Q 3525 3141 3298 2862 
Q 3072 2584 2669 2484 
Q 3125 2378 3379 2068 
Q 3634 1759 3634 1313 
Q 3634 634 3220 271 
Q 2806 -91 2034 -91 
Q 1263 -91 848 271 
Q 434 634 434 1313 
Q 434 1759 690 2068 
Q 947 2378 1403 2484 
z
M 1172 3481 
Q 1172 3119 1398 2916 
Q 1625 2713 2034 2713 
Q 2441 2713 2670 2916 
Q 2900 3119 2900 3481 
Q 2900 3844 2670 4047 
Q 2441 4250 2034 4250 
Q 1625 4250 1398 4047 
Q 1172 3844 1172 3481 
z
" transform="scale(0.015625)"/>
       </defs>
       <use xlink:href="#DejaVuSans-38"/>
       <use xlink:href="#DejaVuSans-30" x="63.623047"/>
      </g>
     </g>
    </g>
    <g id="ytick_6">
     <g id="line2d_15">
      <g>
       <use xlink:href="#m0612f517a8" x="72" y="51.84" style="stroke: #000000; stroke-width: 0.8"/>
      </g>
     </g>
     <g id="text_16">
      <!-- 100 -->
      <g transform="translate(45.9125 55.639219) scale(0.1 -0.1)">
       <use xlink:href="#DejaVuSans-31"/>
       <use xlink:href="#DejaVuSans-30" x="63.623047"/>
       <use xlink:href="#DejaVuSans-30" x="127.246094"/>
      </g>
     </g>
    </g>
    <g id="text_17">
     <!-- rate -->
     <g transform="translate(39.832812 228.31625) rotate(-90) scale(0.1 -0.1)">
      <defs>
       <path id="DejaVuSans-72" d="M 2631 2963 
Q 2534 3019 2420 3045 
Q 2306 3072 2169 3072 
Q 1681 3072 1420 2755 
Q 1159 2438 1159 1844 
L 1159 0 
L 581 0 
L 581 3500 
L 1159 3500 
L 1159 2956 
Q 1341 3275 1631 3429 
Q 1922 3584 2338 3584 
Q 2397 3584 2469 3576 
Q 2541 3569 2628 3553 
L 2631 2963 
z
" transform="scale(0.015625)"/>
       <path id="DejaVuSans-61" d="M 2194 1759 
Q 1497 1759 1228 1600 
Q 959 1441 959 1056 
Q 959 750 1161 570 
Q 1363 391 1709 391 
Q 2188 391 2477 730 
Q 2766 1069 2766 1631 
L 2766 1759 
L 2194 1759 
z
M 3341 1997 
L 3341 0 
L 2766 0 
L 2766 531 
Q 2569 213 2275 61 
Q 1981 -91 1556 -91 
Q 1019 -91 701 211 
Q 384 513 384 1019 
Q 384 1609 779 1909 
Q 1175 2209 1959 2209 
L 2766 2209 
L 2766 2266 
Q 2766 2663 2505 2880 
Q 2244 3097 1772 3097 
Q 1472 3097 1187 3025 
Q 903 2953 641 2809 
L 641 3341 
Q 956 3463 1253 3523 
Q 1550 3584 1831 3584 
Q 2591 3584 2966 3190 
Q 3341 2797 3341 1997 
z
" transform="scale(0.015625)"/>
       <path id="DejaVuSans-74" d="M 1172 4494 
L 1172 3500 
L 2356 3500 
L 2356 3053 
L 1172 3053 
L 1172 1153 
Q 1172 725 1289 603 
Q 1406 481 1766 481 
L 2356 481 
L 2356 0 
L 1766 0 
Q 1100 0 847 248 
Q 594 497 594 1153 
L 594 3053 
L 172 3053 
L 172 3500 
L 594 3500 
L 594 4494 
L 1172 4494 
z
" transform="scale(0.015625)"/>
      </defs>
      <use xlink:href="#DejaVuSans-72"/>
      <use xlink:href="#DejaVuSans-61" x="41.113281"/>
      <use xlink:href="#DejaVuSans-74" x="102.392578"/>
      <use xlink:href="#DejaVuSans-65" x="141.601562"/>
     </g>
    </g>
   </g>
   <g id="line2d_16">
    <path d="M 92.290909 225.751662 
L 94.330196 226.145624 
L 96.369484 233.576767 
L 98.408771 228.996318 
L 100.448058 159.110258 
L 102.487346 205.733699 
L 104.526633 162.344306 
L 106.565921 148.776294 
L 108.605208 121.459827 
L 110.644495 121.631614 
L 112.683783 118.034908 
L 114.72307 87.462188 
L 116.762357 139.459673 
L 118.801645 155.871617 
L 120.840932 123.600801 
L 122.880219 142.059235 
L 124.919507 122.28493 
L 126.958794 128.691382 
L 128.998081 120.598154 
L 131.037369 122.959311 
L 133.076656 138.200853 
L 135.115943 158.023986 
L 139.194518 65.023327 
L 141.233805 155.453203 
L 143.273093 135.638166 
L 145.31238 114.552862 
L 147.351667 109.339729 
L 149.390955 123.284586 
L 151.430242 131.468644 
L 153.469529 61.647743 
L 155.508817 107.029583 
L 157.548104 123.132976 
L 159.587392 111.099748 
L 161.626679 116.094525 
L 163.665966 113.698853 
L 165.705254 129.923098 
L 167.744541 123.971326 
L 169.783828 174.263547 
L 171.823116 110.302307 
L 173.862403 131.665809 
L 175.90169 145.518111 
L 177.940978 89.662319 
L 179.980265 101.720595 
L 182.019552 163.249808 
L 184.05884 112.685138 
L 186.098127 120.883027 
L 188.137414 71.231192 
L 190.176702 185.778839 
L 192.215989 109.806616 
L 194.255276 162.7144 
L 196.294564 110.246043 
L 198.333851 167.436029 
L 200.373138 70.772173 
L 202.412426 124.760037 
L 204.451713 124.894263 
L 206.491 139.214949 
L 208.530288 105.578648 
L 212.608862 103.993766 
L 214.64815 161.102236 
L 216.687437 176.627838 
L 218.726725 164.01446 
L 220.766012 104.965683 
L 222.805299 119.727649 
L 224.844587 103.340652 
L 226.883874 130.891183 
L 228.923161 109.732841 
L 230.962449 181.774302 
L 233.001736 127.527731 
L 235.041023 170.012218 
L 237.080311 140.034063 
L 239.119598 186.543859 
L 241.158885 152.398555 
L 243.198173 193.642164 
L 245.23746 90.383396 
L 247.276747 160.143008 
L 249.316035 116.463375 
L 251.355322 116.573492 
L 253.394609 124.961618 
L 255.433897 136.825825 
L 257.473184 92.82414 
L 259.512471 110.342101 
L 261.551759 105.205331 
L 263.591046 184.369131 
L 265.630333 136.806284 
L 267.669621 62.248197 
L 269.708908 73.693483 
L 271.748196 220.538389 
L 273.787483 56.288938 
L 275.82677 100.790299 
L 277.866058 109.179998 
L 279.905345 156.584446 
L 281.944632 108.055505 
L 283.98392 155.940697 
L 286.023207 117.643294 
L 288.062494 170.991977 
L 290.101782 152.185148 
L 292.141069 102.484511 
L 294.180356 67.479678 
L 296.219644 190.192209 
L 298.258931 102.927796 
L 300.298218 61.960659 
L 302.337506 90.260692 
L 304.376793 178.130774 
L 308.455368 69.134783 
L 310.494655 117.935653 
L 312.533942 182.438988 
L 314.57323 114.284841 
L 316.612517 160.195795 
L 318.651804 100.99023 
L 320.691092 179.498366 
L 322.730379 110.103772 
L 324.769667 108.501658 
L 326.808954 211.597027 
L 328.848241 121.039941 
L 330.887529 129.006201 
L 332.926816 113.713547 
L 334.966103 155.560097 
L 337.005391 152.275952 
L 339.044678 110.430646 
L 341.083965 107.107165 
L 343.123253 62.46904 
L 345.16254 173.893758 
L 347.201827 177.634765 
L 349.241115 106.500823 
L 351.280402 88.097765 
L 353.319689 167.830765 
L 355.358977 115.661874 
L 357.398264 121.506625 
L 359.437551 118.007297 
L 361.476839 126.257084 
L 363.516126 157.606714 
L 367.594701 65.860815 
L 369.633988 104.362057 
L 371.673275 127.877699 
L 373.712563 108.215364 
L 375.75185 181.510684 
L 377.791138 127.39957 
L 379.830425 124.417961 
L 381.869712 171.768912 
L 383.909 119.047609 
L 385.948287 172.813183 
L 387.987574 124.463363 
L 390.026862 105.646231 
L 392.066149 65.838634 
L 394.105436 138.934315 
L 396.144724 115.528104 
L 398.184011 116.947037 
L 400.223298 107.617169 
L 402.262586 141.559078 
L 404.301873 166.09209 
L 406.34116 162.242057 
L 408.380448 88.339621 
L 410.419735 186.038054 
L 412.459022 112.987699 
L 414.49831 113.635763 
L 416.537597 153.41925 
L 418.576884 117.99212 
L 420.616172 115.07779 
L 422.655459 122.526914 
L 424.694746 118.661501 
L 426.734034 170.142231 
L 428.773321 75.657011 
L 430.812608 116.628411 
L 432.851896 144.97854 
L 434.891183 183.5941 
L 436.930471 168.644499 
L 438.969758 124.494147 
L 441.009045 117.179859 
L 443.048333 68.504231 
L 445.08762 160.654561 
L 447.126907 119.672755 
L 449.166195 136.894753 
L 451.205482 142.805209 
L 453.244769 138.163039 
L 455.284057 179.427915 
L 457.323344 165.314825 
L 459.362631 184.646137 
L 461.401919 158.107557 
L 463.441206 163.917946 
L 465.480493 156.618859 
L 467.519781 123.605217 
L 469.559068 147.175702 
L 471.598355 185.046177 
L 473.637643 64.169242 
L 475.67693 150.946224 
L 477.716217 185.27693 
L 479.755505 95.956979 
L 481.794792 110.518481 
L 483.834079 191.174075 
L 485.873367 174.795123 
L 487.912654 102.39627 
L 489.951942 88.768009 
L 491.991229 188.130987 
L 494.030516 164.437797 
L 496.069804 135.136993 
L 498.109091 131.585562 
L 498.109091 131.585562 
" clip-path="url(#p48da7e008a)" style="fill: none; stroke: #0000ff; stroke-width: 1.5; stroke-linecap: square"/>
   </g>
   <g id="line2d_17">
    <path d="M 92.290909 219.32393 
L 94.330196 203.496249 
L 96.369484 216.38516 
L 98.408771 230.583205 
L 100.448058 140.373626 
L 102.487346 124.17509 
L 104.526633 106.119462 
L 106.565921 148.362473 
L 108.605208 94.077529 
L 110.644495 175.470151 
L 112.683783 142.446256 
L 114.72307 153.914941 
L 116.762357 156.502245 
L 118.801645 61.855618 
L 120.840932 75.72939 
L 122.880219 119.279872 
L 124.919507 97.284194 
L 126.958794 98.914123 
L 128.998081 132.653435 
L 131.037369 141.135715 
L 133.076656 108.614465 
L 135.115943 129.048761 
L 137.155231 145.705809 
L 139.194518 118.385384 
L 141.233805 150.215148 
L 143.273093 94.325629 
L 145.31238 214.602682 
L 147.351667 112.061412 
L 149.390955 138.291809 
L 151.430242 103.232185 
L 153.469529 173.612527 
L 155.508817 155.577227 
L 157.548104 146.312278 
L 159.587392 92.245461 
L 161.626679 103.38882 
L 163.665966 113.268334 
L 165.705254 167.723871 
L 167.744541 112.223834 
L 169.783828 86.596226 
L 171.823116 110.199043 
L 173.862403 99.941467 
L 175.90169 100.251312 
L 177.940978 104.629393 
L 179.980265 60.457013 
L 182.019552 106.490596 
L 184.05884 72.027263 
L 186.098127 103.915143 
L 188.137414 125.279178 
L 190.176702 94.513404 
L 192.215989 98.175662 
L 194.255276 67.010178 
L 196.294564 106.971212 
L 198.333851 114.061689 
L 200.373138 161.238366 
L 202.412426 166.335697 
L 204.451713 133.548735 
L 206.491 121.496296 
L 208.530288 152.875339 
L 210.569575 128.826624 
L 212.608862 136.81075 
L 214.64815 100.144139 
L 216.687437 204.938974 
L 220.766012 148.372904 
L 222.805299 112.493607 
L 224.844587 156.291275 
L 226.883874 103.594842 
L 228.923161 168.435939 
L 230.962449 95.951193 
L 233.001736 155.718687 
L 235.041023 176.999759 
L 237.080311 167.380983 
L 239.119598 113.046526 
L 241.158885 150.941377 
L 243.198173 155.532637 
L 245.23746 141.497992 
L 247.276747 160.317738 
L 249.316035 163.247803 
L 251.355322 203.123706 
L 253.394609 180.942766 
L 255.433897 146.65981 
L 257.473184 116.538927 
L 259.512471 154.858079 
L 261.551759 120.462024 
L 263.591046 108.127605 
L 265.630333 139.704854 
L 267.669621 209.158884 
L 269.708908 155.185664 
L 271.748196 169.886747 
L 273.787483 147.279855 
L 275.82677 172.805214 
L 277.866058 172.375228 
L 279.905345 159.116628 
L 281.944632 202.29288 
L 283.98392 119.448182 
L 286.023207 207.701706 
L 288.062494 180.052757 
L 290.101782 166.824003 
L 292.141069 142.814776 
L 294.180356 106.997555 
L 296.219644 165.067588 
L 298.258931 108.904515 
L 300.298218 105.066461 
L 302.337506 206.877136 
L 304.376793 198.201752 
L 306.41608 201.473513 
L 308.455368 166.57098 
L 310.494655 171.977408 
L 312.533942 198.886652 
L 314.57323 194.982322 
L 316.612517 171.335829 
L 318.651804 111.849909 
L 320.691092 112.621539 
L 322.730379 138.565287 
L 324.769667 131.211789 
L 326.808954 172.044674 
L 328.848241 112.22122 
L 330.887529 145.563208 
L 332.926816 169.991306 
L 334.966103 153.877965 
L 337.005391 112.094404 
L 339.044678 181.499264 
L 341.083965 96.618442 
L 343.123253 96.40775 
L 345.16254 109.835903 
L 347.201827 172.232461 
L 349.241115 146.113158 
L 351.280402 111.931424 
L 353.319689 151.117326 
L 355.358977 152.262781 
L 357.398264 115.323097 
L 359.437551 178.563501 
L 361.476839 158.605507 
L 363.516126 115.339746 
L 365.555413 101.875277 
L 367.594701 201.580432 
L 369.633988 145.678502 
L 371.673275 111.667869 
L 373.712563 111.266357 
L 375.75185 114.97082 
L 377.791138 93.433654 
L 379.830425 154.801739 
L 381.869712 150.178806 
L 383.909 86.878256 
L 385.948287 140.925099 
L 387.987574 151.699481 
L 390.026862 217.183083 
L 392.066149 163.648681 
L 394.105436 132.152871 
L 396.144724 115.219731 
L 398.184011 146.017913 
L 400.223298 134.890365 
L 402.262586 188.522842 
L 404.301873 179.234405 
L 406.34116 199.433506 
L 408.380448 105.792283 
L 412.459022 170.338356 
L 414.49831 166.47774 
L 416.537597 124.4977 
L 418.576884 155.019131 
L 420.616172 200.803979 
L 422.655459 115.170269 
L 424.694746 111.727889 
L 426.734034 166.69135 
L 428.773321 166.764262 
L 430.812608 191.424509 
L 432.851896 207.056511 
L 434.891183 196.654785 
L 436.930471 121.148155 
L 438.969758 170.54887 
L 441.009045 124.41758 
L 443.048333 121.925064 
L 445.08762 169.574542 
L 447.126907 173.591945 
L 449.166195 161.818313 
L 451.205482 147.11822 
L 453.244769 145.973095 
L 455.284057 151.110144 
L 457.323344 119.774117 
L 459.362631 203.026101 
L 461.401919 128.098999 
L 463.441206 126.064335 
L 465.480493 221.259453 
L 467.519781 138.789861 
L 469.559068 194.771884 
L 471.598355 183.891459 
L 473.637643 143.859682 
L 475.67693 92.202953 
L 477.716217 179.920574 
L 479.755505 167.690981 
L 481.794792 198.315486 
L 483.834079 174.589241 
L 485.873367 136.992942 
L 487.912654 154.297368 
L 489.951942 178.720467 
L 491.991229 156.291554 
L 494.030516 219.005254 
L 496.069804 195.482239 
L 498.109091 219.434948 
L 498.109091 219.434948 
" clip-path="url(#p48da7e008a)" style="fill: none; stroke: #008000; stroke-width: 1.5; stroke-linecap: square"/>
   </g>
   <g id="patch_3">
    <path d="M 72 384.48 
L 72 51.84 
" style="fill: none; stroke: #000000; stroke-width: 0.8; stroke-linejoin: miter; stroke-linecap: square"/>
   </g>
   <g id="patch_4">
    <path d="M 518.4 384.48 
L 518.4 51.84 
" style="fill: none; stroke: #000000; stroke-width: 0.8; stroke-linejoin: miter; stroke-linecap: square"/>
   </g>
   <g id="patch_5">
    <path d="M 72 384.48 
L 518.4 384.48 
" style="fill: none; stroke: #000000; stroke-width: 0.8; stroke-linejoin: miter; stroke-linecap: square"/>
   </g>
   <g id="patch_6">
    <path d="M 72 51.84 
L 518.4 51.84 
" style="fill: none; stroke: #000000; stroke-width: 0.8; stroke-linejoin: miter; stroke-linecap: square"/>
   </g>
   <g id="legend_1">
    <g id="patch_7">
     <path d="M 79 89.19625 
L 160.740625 89.19625 
Q 162.740625 89.19625 162.740625 87.19625 
L 162.740625 58.84 
Q 162.740625 56.84 160.740625 56.84 
L 79 56.84 
Q 77 56.84 77 58.84 
L 77 87.19625 
Q 77 89.19625 79 89.19625 
z
" style="fill: #ffffff; opacity: 0.8; stroke: #cccccc; stroke-linejoin: miter"/>
    </g>
    <g id="line2d_18">
     <path d="M 81 64.938437 
L 91 64.938437 
L 101 64.938437 
" style="fill: none; stroke: #0000ff; stroke-width: 1.5; stroke-linecap: square"/>
    </g>
    <g id="text_18">
     <!-- train mAP -->
     <g transform="translate(109 68.438437) scale(0.1 -0.1)">
      <defs>
       <path id="DejaVuSans-69" d="M 603 3500 
L 1178 3500 
L 1178 0 
L 603 0 
L 603 3500 
z
M 603 4863 
L 1178 4863 
L 1178 4134 
L 603 4134 
L 603 4863 
z
" transform="scale(0.015625)"/>
       <path id="DejaVuSans-6e" d="M 3513 2113 
L 3513 0 
L 2938 0 
L 2938 2094 
Q 2938 2591 2744 2837 
Q 2550 3084 2163 3084 
Q 1697 3084 1428 2787 
Q 1159 2491 1159 1978 
L 1159 0 
L 581 0 
L 581 3500 
L 1159 3500 
L 1159 2956 
Q 1366 3272 1645 3428 
Q 1925 3584 2291 3584 
Q 2894 3584 3203 3211 
Q 3513 2838 3513 2113 
z
" transform="scale(0.015625)"/>
       <path id="DejaVuSans-20" transform="scale(0.015625)"/>
       <path id="DejaVuSans-6d" d="M 3328 2828 
Q 3544 3216 3844 3400 
Q 4144 3584 4550 3584 
Q 5097 3584 5394 3201 
Q 5691 2819 5691 2113 
L 5691 0 
L 5113 0 
L 5113 2094 
Q 5113 2597 4934 2840 
Q 4756 3084 4391 3084 
Q 3944 3084 3684 2787 
Q 3425 2491 3425 1978 
L 3425 0 
L 2847 0 
L 2847 2094 
Q 2847 2600 2669 2842 
Q 2491 3084 2119 3084 
Q 1678 3084 1418 2786 
Q 1159 2488 1159 1978 
L 1159 0 
L 581 0 
L 581 3500 
L 1159 3500 
L 1159 2956 
Q 1356 3278 1631 3431 
Q 1906 3584 2284 3584 
Q 2666 3584 2933 3390 
Q 3200 3197 3328 2828 
z
" transform="scale(0.015625)"/>
       <path id="DejaVuSans-41" d="M 2188 4044 
L 1331 1722 
L 3047 1722 
L 2188 4044 
z
M 1831 4666 
L 2547 4666 
L 4325 0 
L 3669 0 
L 3244 1197 
L 1141 1197 
L 716 0 
L 50 0 
L 1831 4666 
z
" transform="scale(0.015625)"/>
       <path id="DejaVuSans-50" d="M 1259 4147 
L 1259 2394 
L 2053 2394 
Q 2494 2394 2734 2622 
Q 2975 2850 2975 3272 
Q 2975 3691 2734 3919 
Q 2494 4147 2053 4147 
L 1259 4147 
z
M 628 4666 
L 2053 4666 
Q 2838 4666 3239 4311 
Q 3641 3956 3641 3272 
Q 3641 2581 3239 2228 
Q 2838 1875 2053 1875 
L 1259 1875 
L 1259 0 
L 628 0 
L 628 4666 
z
" transform="scale(0.015625)"/>
      </defs>
      <use xlink:href="#DejaVuSans-74"/>
      <use xlink:href="#DejaVuSans-72" x="39.208984"/>
      <use xlink:href="#DejaVuSans-61" x="80.322266"/>
      <use xlink:href="#DejaVuSans-69" x="141.601562"/>
      <use xlink:href="#DejaVuSans-6e" x="169.384766"/>
      <use xlink:href="#DejaVuSans-20" x="232.763672"/>
      <use xlink:href="#DejaVuSans-6d" x="264.550781"/>
      <use xlink:href="#DejaVuSans-41" x="361.962891"/>
      <use xlink:href="#DejaVuSans-50" x="430.371094"/>
     </g>
    </g>
    <g id="line2d_19">
     <path d="M 81 79.616562 
L 91 79.616562 
L 101 79.616562 
" style="fill: none; stroke: #008000; stroke-width: 1.5; stroke-linecap: square"/>
    </g>
    <g id="text_19">
     <!-- valid mAP -->
     <g transform="translate(109 83.116562) scale(0.1 -0.1)">
      <defs>
       <path id="DejaVuSans-76" d="M 191 3500 
L 800 3500 
L 1894 563 
L 2988 3500 
L 3597 3500 
L 2284 0 
L 1503 0 
L 191 3500 
z
" transform="scale(0.015625)"/>
       <path id="DejaVuSans-6c" d="M 603 4863 
L 1178 4863 
L 1178 0 
L 603 0 
L 603 4863 
z
" transform="scale(0.015625)"/>
       <path id="DejaVuSans-64" d="M 2906 2969 
L 2906 4863 
L 3481 4863 
L 3481 0 
L 2906 0 
L 2906 525 
Q 2725 213 2448 61 
Q 2172 -91 1784 -91 
Q 1150 -91 751 415 
Q 353 922 353 1747 
Q 353 2572 751 3078 
Q 1150 3584 1784 3584 
Q 2172 3584 2448 3432 
Q 2725 3281 2906 2969 
z
M 947 1747 
Q 947 1113 1208 752 
Q 1469 391 1925 391 
Q 2381 391 2643 752 
Q 2906 1113 2906 1747 
Q 2906 2381 2643 2742 
Q 2381 3103 1925 3103 
Q 1469 3103 1208 2742 
Q 947 2381 947 1747 
z
" transform="scale(0.015625)"/>
      </defs>
      <use xlink:href="#DejaVuSans-76"/>
      <use xlink:href="#DejaVuSans-61" x="59.179688"/>
      <use xlink:href="#DejaVuSans-6c" x="120.458984"/>
      <use xlink:href="#DejaVuSans-69" x="148.242188"/>
      <use xlink:href="#DejaVuSans-64" x="176.025391"/>
      <use xlink:href="#DejaVuSans-20" x="239.501953"/>
      <use xlink:href="#DejaVuSans-6d" x="271.289062"/>
      <use xlink:href="#DejaVuSans-41" x="368.701172"/>
      <use xlink:href="#DejaVuSans-50" x="437.109375"/>
     </g>
    </g>
   </g>
  </g>
  <g id="axes_2">
   <g id="matplotlib.axis_3">
    <g id="ytick_7">
     <g id="line2d_20">
      <defs>
       <path id="m76bb76f870" d="M 0 0 
L 3.5 0 
" style="stroke: #000000; stroke-width: 0.8"/>
      </defs>
      <g>
       <use xlink:href="#m76bb76f870" x="518.4" y="321.497153" style="stroke: #000000; stroke-width: 0.8"/>
      </g>
     </g>
     <g id="text_20">
      <!-- 2 -->
      <g transform="translate(525.4 325.296371) scale(0.1 -0.1)">
       <use xlink:href="#DejaVuSans-32"/>
      </g>
     </g>
    </g>
    <g id="ytick_8">
     <g id="line2d_21">
      <g>
       <use xlink:href="#m76bb76f870" x="518.4" y="248.173723" style="stroke: #000000; stroke-width: 0.8"/>
      </g>
     </g>
     <g id="text_21">
      <!-- 4 -->
      <g transform="translate(525.4 251.972942) scale(0.1 -0.1)">
       <use xlink:href="#DejaVuSans-34"/>
      </g>
     </g>
    </g>
    <g id="ytick_9">
     <g id="line2d_22">
      <g>
       <use xlink:href="#m76bb76f870" x="518.4" y="174.850293" style="stroke: #000000; stroke-width: 0.8"/>
      </g>
     </g>
     <g id="text_22">
      <!-- 6 -->
      <g transform="translate(525.4 178.649512) scale(0.1 -0.1)">
       <use xlink:href="#DejaVuSans-36"/>
      </g>
     </g>
    </g>
    <g id="ytick_10">
     <g id="line2d_23">
      <g>
       <use xlink:href="#m76bb76f870" x="518.4" y="101.526864" style="stroke: #000000; stroke-width: 0.8"/>
      </g>
     </g>
     <g id="text_23">
      <!-- 8 -->
      <g transform="translate(525.4 105.326082) scale(0.1 -0.1)">
       <use xlink:href="#DejaVuSans-38"/>
      </g>
     </g>
    </g>
    <g id="text_24">
     <!-- loss -->
     <g transform="translate(543.360937 227.817812) rotate(-90) scale(0.1 -0.1)">
      <defs>
       <path id="DejaVuSans-73" d="M 2834 3397 
L 2834 2853 
Q 2591 2978 2328 3040 
Q 2066 3103 1784 3103 
Q 1356 3103 1142 2972 
Q 928 2841 928 2578 
Q 928 2378 1081 2264 
Q 1234 2150 1697 2047 
L 1894 2003 
Q 2506 1872 2764 1633 
Q 3022 1394 3022 966 
Q 3022 478 2636 193 
Q 2250 -91 1575 -91 
Q 1294 -91 989 -36 
Q 684 19 347 128 
L 347 722 
Q 666 556 975 473 
Q 1284 391 1588 391 
Q 1994 391 2212 530 
Q 2431 669 2431 922 
Q 2431 1156 2273 1281 
Q 2116 1406 1581 1522 
L 1381 1569 
Q 847 1681 609 1914 
Q 372 2147 372 2553 
Q 372 3047 722 3315 
Q 1072 3584 1716 3584 
Q 2034 3584 2315 3537 
Q 2597 3491 2834 3397 
z
" transform="scale(0.015625)"/>
      </defs>
      <use xlink:href="#DejaVuSans-6c"/>
      <use xlink:href="#DejaVuSans-6f" x="27.783203"/>
      <use xlink:href="#DejaVuSans-73" x="88.964844"/>
      <use xlink:href="#DejaVuSans-73" x="141.064453"/>
     </g>
    </g>
   </g>
   <g id="line2d_24">
    <path d="M 92.290909 222.774446 
L 94.330196 227.947601 
L 96.369484 231.688912 
L 98.408771 244.958386 
L 100.448058 324.05478 
L 102.487346 215.832819 
L 104.526633 308.768899 
L 106.565921 304.945789 
L 108.605208 301.840635 
L 110.644495 311.854289 
L 112.683783 337.664095 
L 114.72307 298.936047 
L 116.762357 353.301868 
L 118.801645 334.207519 
L 120.840932 337.433887 
L 122.880219 347.821741 
L 124.919507 330.834392 
L 126.958794 349.306506 
L 128.998081 347.551435 
L 131.037369 349.216098 
L 133.076656 323.403484 
L 135.115943 334.25698 
L 137.155231 342.3274 
L 139.194518 340.800454 
L 141.233805 345.96927 
L 143.273093 306.659514 
L 145.31238 100.93604 
L 147.351667 307.068859 
L 149.390955 345.985426 
L 151.430242 350.121599 
L 153.469529 344.895031 
L 155.508817 338.087435 
L 157.548104 337.402804 
L 159.587392 342.718781 
L 161.626679 358.100378 
L 163.665966 344.165041 
L 165.705254 349.817226 
L 167.744541 350.467322 
L 169.783828 366.246333 
L 171.823116 350.313841 
L 173.862403 354.306655 
L 175.90169 355.462041 
L 177.940978 365.037254 
L 179.980265 364.139084 
L 182.019552 331.293321 
L 184.05884 320.725672 
L 186.098127 351.371659 
L 188.137414 310.048633 
L 190.176702 363.491103 
L 192.215989 369.36 
L 194.255276 366.377276 
L 196.294564 365.686532 
L 198.333851 356.92456 
L 200.373138 342.264548 
L 202.412426 345.325827 
L 204.451713 350.262444 
L 206.491 327.35851 
L 208.530288 301.003892 
L 210.569575 328.113991 
L 212.608862 357.99734 
L 214.64815 314.486187 
L 216.687437 190.378479 
L 218.726725 270.425251 
L 220.766012 274.450147 
L 222.805299 342.307813 
L 224.844587 214.391256 
L 226.883874 292.631235 
L 228.923161 316.693197 
L 230.962449 81.098115 
L 233.001736 117.933425 
L 235.041023 66.96 
L 237.080311 96.123457 
L 239.119598 352.310741 
L 241.158885 314.114378 
L 243.198173 333.650372 
L 245.23746 306.478902 
L 247.276747 333.337452 
L 249.316035 342.209196 
L 251.355322 334.785608 
L 253.394609 331.200629 
L 255.433897 337.152995 
L 257.473184 323.415237 
L 259.512471 306.174758 
L 261.551759 333.025573 
L 263.591046 344.530283 
L 265.630333 326.29188 
L 267.669621 275.152818 
L 269.708908 352.386165 
L 271.748196 297.386447 
L 273.787483 324.50177 
L 275.82677 293.515102 
L 277.866058 230.445046 
L 279.905345 334.23269 
L 281.944632 254.890168 
L 283.98392 236.107221 
L 286.023207 250.102018 
L 288.062494 295.54953 
L 290.101782 231.766443 
L 292.141069 300.971095 
L 294.180356 235.688564 
L 296.219644 321.942244 
L 298.258931 269.123891 
L 300.298218 250.062042 
L 302.337506 232.609324 
L 304.376793 313.654251 
L 306.41608 343.947487 
L 308.455368 338.862398 
L 310.494655 348.839156 
L 312.533942 305.393069 
L 314.57323 234.563946 
L 316.612517 214.291012 
L 318.651804 326.406621 
L 320.691092 280.801571 
L 322.730379 343.754918 
L 324.769667 248.626512 
L 326.808954 279.148958 
L 328.848241 329.942595 
L 330.887529 325.396109 
L 332.926816 321.343041 
L 334.966103 326.523894 
L 337.005391 302.793976 
L 339.044678 285.506465 
L 341.083965 349.482571 
L 343.123253 345.986811 
L 345.16254 226.857761 
L 347.201827 328.935118 
L 349.241115 265.636019 
L 351.280402 330.52948 
L 353.319689 257.421921 
L 355.358977 305.575243 
L 357.398264 324.912489 
L 359.437551 342.473692 
L 361.476839 298.453184 
L 363.516126 325.961832 
L 365.555413 329.336227 
L 367.594701 343.533693 
L 369.633988 310.109827 
L 371.673275 312.566166 
L 373.712563 308.985126 
L 375.75185 313.215544 
L 377.791138 294.850954 
L 379.830425 289.598685 
L 381.869712 291.410921 
L 383.909 347.026586 
L 385.948287 315.593275 
L 387.987574 250.674488 
L 390.026862 294.178149 
L 392.066149 324.653847 
L 394.105436 320.008492 
L 396.144724 296.981382 
L 398.184011 319.00955 
L 400.223298 336.438931 
L 402.262586 275.71559 
L 404.301873 247.807725 
L 406.34116 187.181364 
L 408.380448 286.055558 
L 410.419735 244.039178 
L 412.459022 271.559666 
L 414.49831 218.630728 
L 416.537597 296.176228 
L 418.576884 273.336391 
L 420.616172 255.158138 
L 422.655459 294.078849 
L 424.694746 294.69272 
L 426.734034 217.774526 
L 428.773321 230.108632 
L 430.812608 243.329002 
L 432.851896 97.903297 
L 434.891183 238.532474 
L 436.930471 189.820187 
L 438.969758 204.161909 
L 441.009045 258.710802 
L 443.048333 237.58994 
L 445.08762 188.634295 
L 447.126907 216.382801 
L 449.166195 187.316189 
L 451.205482 238.950896 
L 453.244769 189.95458 
L 455.284057 205.223632 
L 457.323344 171.833752 
L 459.362631 200.239803 
L 461.401919 179.30902 
L 463.441206 218.405845 
L 465.480493 163.397937 
L 467.519781 243.734708 
L 469.559068 206.58613 
L 471.598355 111.961014 
L 473.637643 185.350349 
L 475.67693 231.351628 
L 477.716217 102.448335 
L 479.755505 108.22318 
L 481.794792 161.686241 
L 483.834079 243.985003 
L 485.873367 222.624312 
L 487.912654 135.808484 
L 489.951942 168.417257 
L 491.991229 244.846589 
L 494.030516 154.268512 
L 496.069804 86.70905 
L 498.109091 147.463866 
L 498.109091 147.463866 
" clip-path="url(#p48da7e008a)" style="fill: none; stroke: #ff0000; stroke-width: 1.5; stroke-linecap: square"/>
   </g>
   <g id="patch_8">
    <path d="M 72 384.48 
L 72 51.84 
" style="fill: none; stroke: #000000; stroke-width: 0.8; stroke-linejoin: miter; stroke-linecap: square"/>
   </g>
   <g id="patch_9">
    <path d="M 518.4 384.48 
L 518.4 51.84 
" style="fill: none; stroke: #000000; stroke-width: 0.8; stroke-linejoin: miter; stroke-linecap: square"/>
   </g>
   <g id="patch_10">
    <path d="M 72 384.48 
L 518.4 384.48 
" style="fill: none; stroke: #000000; stroke-width: 0.8; stroke-linejoin: miter; stroke-linecap: square"/>
   </g>
   <g id="patch_11">
    <path d="M 72 51.84 
L 518.4 51.84 
" style="fill: none; stroke: #000000; stroke-width: 0.8; stroke-linejoin: miter; stroke-linecap: square"/>
   </g>
   <g id="text_25">
    <!-- The learning curve on voc/voc_fpsl_200_onecycle/host/5 -->
    <g transform="translate(125.934375 45.84) scale(0.12 -0.12)">
     <defs>
      <path id="DejaVuSans-54" d="M -19 4666 
L 3928 4666 
L 3928 4134 
L 2272 4134 
L 2272 0 
L 1638 0 
L 1638 4134 
L -19 4134 
L -19 4666 
z
" transform="scale(0.015625)"/>
      <path id="DejaVuSans-67" d="M 2906 1791 
Q 2906 2416 2648 2759 
Q 2391 3103 1925 3103 
Q 1463 3103 1205 2759 
Q 947 2416 947 1791 
Q 947 1169 1205 825 
Q 1463 481 1925 481 
Q 2391 481 2648 825 
Q 2906 1169 2906 1791 
z
M 3481 434 
Q 3481 -459 3084 -895 
Q 2688 -1331 1869 -1331 
Q 1566 -1331 1297 -1286 
Q 1028 -1241 775 -1147 
L 775 -588 
Q 1028 -725 1275 -790 
Q 1522 -856 1778 -856 
Q 2344 -856 2625 -561 
Q 2906 -266 2906 331 
L 2906 616 
Q 2728 306 2450 153 
Q 2172 0 1784 0 
Q 1141 0 747 490 
Q 353 981 353 1791 
Q 353 2603 747 3093 
Q 1141 3584 1784 3584 
Q 2172 3584 2450 3431 
Q 2728 3278 2906 2969 
L 2906 3500 
L 3481 3500 
L 3481 434 
z
" transform="scale(0.015625)"/>
      <path id="DejaVuSans-75" d="M 544 1381 
L 544 3500 
L 1119 3500 
L 1119 1403 
Q 1119 906 1312 657 
Q 1506 409 1894 409 
Q 2359 409 2629 706 
Q 2900 1003 2900 1516 
L 2900 3500 
L 3475 3500 
L 3475 0 
L 2900 0 
L 2900 538 
Q 2691 219 2414 64 
Q 2138 -91 1772 -91 
Q 1169 -91 856 284 
Q 544 659 544 1381 
z
M 1991 3584 
L 1991 3584 
z
" transform="scale(0.015625)"/>
      <path id="DejaVuSans-2f" d="M 1625 4666 
L 2156 4666 
L 531 -594 
L 0 -594 
L 1625 4666 
z
" transform="scale(0.015625)"/>
      <path id="DejaVuSans-5f" d="M 3263 -1063 
L 3263 -1509 
L -63 -1509 
L -63 -1063 
L 3263 -1063 
z
" transform="scale(0.015625)"/>
      <path id="DejaVuSans-66" d="M 2375 4863 
L 2375 4384 
L 1825 4384 
Q 1516 4384 1395 4259 
Q 1275 4134 1275 3809 
L 1275 3500 
L 2222 3500 
L 2222 3053 
L 1275 3053 
L 1275 0 
L 697 0 
L 697 3053 
L 147 3053 
L 147 3500 
L 697 3500 
L 697 3744 
Q 697 4328 969 4595 
Q 1241 4863 1831 4863 
L 2375 4863 
z
" transform="scale(0.015625)"/>
      <path id="DejaVuSans-79" d="M 2059 -325 
Q 1816 -950 1584 -1140 
Q 1353 -1331 966 -1331 
L 506 -1331 
L 506 -850 
L 844 -850 
Q 1081 -850 1212 -737 
Q 1344 -625 1503 -206 
L 1606 56 
L 191 3500 
L 800 3500 
L 1894 763 
L 2988 3500 
L 3597 3500 
L 2059 -325 
z
" transform="scale(0.015625)"/>
     </defs>
     <use xlink:href="#DejaVuSans-54"/>
     <use xlink:href="#DejaVuSans-68" x="61.083984"/>
     <use xlink:href="#DejaVuSans-65" x="124.462891"/>
     <use xlink:href="#DejaVuSans-20" x="185.986328"/>
     <use xlink:href="#DejaVuSans-6c" x="217.773438"/>
     <use xlink:href="#DejaVuSans-65" x="245.556641"/>
     <use xlink:href="#DejaVuSans-61" x="307.080078"/>
     <use xlink:href="#DejaVuSans-72" x="368.359375"/>
     <use xlink:href="#DejaVuSans-6e" x="407.722656"/>
     <use xlink:href="#DejaVuSans-69" x="471.101562"/>
     <use xlink:href="#DejaVuSans-6e" x="498.884766"/>
     <use xlink:href="#DejaVuSans-67" x="562.263672"/>
     <use xlink:href="#DejaVuSans-20" x="625.740234"/>
     <use xlink:href="#DejaVuSans-63" x="657.527344"/>
     <use xlink:href="#DejaVuSans-75" x="712.507812"/>
     <use xlink:href="#DejaVuSans-72" x="775.886719"/>
     <use xlink:href="#DejaVuSans-76" x="817"/>
     <use xlink:href="#DejaVuSans-65" x="876.179688"/>
     <use xlink:href="#DejaVuSans-20" x="937.703125"/>
     <use xlink:href="#DejaVuSans-6f" x="969.490234"/>
     <use xlink:href="#DejaVuSans-6e" x="1030.671875"/>
     <use xlink:href="#DejaVuSans-20" x="1094.050781"/>
     <use xlink:href="#DejaVuSans-76" x="1125.837891"/>
     <use xlink:href="#DejaVuSans-6f" x="1185.017578"/>
     <use xlink:href="#DejaVuSans-63" x="1246.199219"/>
     <use xlink:href="#DejaVuSans-2f" x="1301.179688"/>
     <use xlink:href="#DejaVuSans-76" x="1334.871094"/>
     <use xlink:href="#DejaVuSans-6f" x="1394.050781"/>
     <use xlink:href="#DejaVuSans-63" x="1455.232422"/>
     <use xlink:href="#DejaVuSans-5f" x="1510.212891"/>
     <use xlink:href="#DejaVuSans-66" x="1560.212891"/>
     <use xlink:href="#DejaVuSans-70" x="1595.417969"/>
     <use xlink:href="#DejaVuSans-73" x="1658.894531"/>
     <use xlink:href="#DejaVuSans-6c" x="1710.994141"/>
     <use xlink:href="#DejaVuSans-5f" x="1738.777344"/>
     <use xlink:href="#DejaVuSans-32" x="1788.777344"/>
     <use xlink:href="#DejaVuSans-30" x="1852.400391"/>
     <use xlink:href="#DejaVuSans-30" x="1916.023438"/>
     <use xlink:href="#DejaVuSans-5f" x="1979.646484"/>
     <use xlink:href="#DejaVuSans-6f" x="2029.646484"/>
     <use xlink:href="#DejaVuSans-6e" x="2090.828125"/>
     <use xlink:href="#DejaVuSans-65" x="2154.207031"/>
     <use xlink:href="#DejaVuSans-63" x="2215.730469"/>
     <use xlink:href="#DejaVuSans-79" x="2270.710938"/>
     <use xlink:href="#DejaVuSans-63" x="2329.890625"/>
     <use xlink:href="#DejaVuSans-6c" x="2384.871094"/>
     <use xlink:href="#DejaVuSans-65" x="2412.654297"/>
     <use xlink:href="#DejaVuSans-2f" x="2474.177734"/>
     <use xlink:href="#DejaVuSans-68" x="2507.869141"/>
     <use xlink:href="#DejaVuSans-6f" x="2571.248047"/>
     <use xlink:href="#DejaVuSans-73" x="2632.429688"/>
     <use xlink:href="#DejaVuSans-74" x="2684.529297"/>
     <use xlink:href="#DejaVuSans-2f" x="2723.738281"/>
     <use xlink:href="#DejaVuSans-35" x="2757.429688"/>
    </g>
   </g>
   <g id="legend_2">
    <g id="patch_12">
     <path d="M 460.084375 74.518125 
L 511.4 74.518125 
Q 513.4 74.518125 513.4 72.518125 
L 513.4 58.84 
Q 513.4 56.84 511.4 56.84 
L 460.084375 56.84 
Q 458.084375 56.84 458.084375 58.84 
L 458.084375 72.518125 
Q 458.084375 74.518125 460.084375 74.518125 
z
" style="fill: #ffffff; opacity: 0.8; stroke: #cccccc; stroke-linejoin: miter"/>
    </g>
    <g id="line2d_25">
     <path d="M 462.084375 64.938438 
L 472.084375 64.938438 
L 482.084375 64.938438 
" style="fill: none; stroke: #ff0000; stroke-width: 1.5; stroke-linecap: square"/>
    </g>
    <g id="text_26">
     <!-- loss -->
     <g transform="translate(490.084375 68.438438) scale(0.1 -0.1)">
      <use xlink:href="#DejaVuSans-6c"/>
      <use xlink:href="#DejaVuSans-6f" x="27.783203"/>
      <use xlink:href="#DejaVuSans-73" x="88.964844"/>
      <use xlink:href="#DejaVuSans-73" x="141.064453"/>
     </g>
    </g>
   </g>
  </g>
 </g>
 <defs>
  <clipPath id="p48da7e008a">
   <rect x="72" y="51.84" width="446.4" height="332.64"/>
  </clipPath>
 </defs>
</svg>
