<?xml version="1.0" encoding="utf-8" standalone="no"?>
<!DOCTYPE svg PUBLIC "-//W3C//DTD SVG 1.1//EN"
  "http://www.w3.org/Graphics/SVG/1.1/DTD/svg11.dtd">
<svg xmlns:xlink="http://www.w3.org/1999/xlink" width="576pt" height="432pt" viewBox="0 0 576 432" xmlns="http://www.w3.org/2000/svg" version="1.1">
 <metadata>
  <rdf:RDF xmlns:dc="http://purl.org/dc/elements/1.1/" xmlns:cc="http://creativecommons.org/ns#" xmlns:rdf="http://www.w3.org/1999/02/22-rdf-syntax-ns#">
   <cc:Work>
    <dc:type rdf:resource="http://purl.org/dc/dcmitype/StillImage"/>
    <dc:date>2023-10-15T21:40:10.960440</dc:date>
    <dc:format>image/svg+xml</dc:format>
    <dc:creator>
     <cc:Agent>
      <dc:title>Matplotlib v3.7.1, https://matplotlib.org/</dc:title>
     </cc:Agent>
    </dc:creator>
   </cc:Work>
  </rdf:RDF>
 </metadata>
 <defs>
  <style type="text/css">*{stroke-linejoin: round; stroke-linecap: butt}</style>
 </defs>
 <g id="figure_1">
  <g id="patch_1">
   <path d="M 0 432 
L 576 432 
L 576 0 
L 0 0 
z
" style="fill: #ffffff"/>
  </g>
  <g id="axes_1">
   <g id="patch_2">
    <path d="M 72 384.48 
L 518.4 384.48 
L 518.4 51.84 
L 72 51.84 
z
" style="fill: #ffffff"/>
   </g>
   <g id="matplotlib.axis_1">
    <g id="xtick_1">
     <g id="line2d_1">
      <defs>
       <path id="m19710d56d6" d="M 0 0 
L 0 3.5 
" style="stroke: #000000; stroke-width: 0.8"/>
      </defs>
      <g>
       <use xlink:href="#m19710d56d6" x="92.290909" y="384.48" style="stroke: #000000; stroke-width: 0.8"/>
      </g>
     </g>
     <g id="text_1">
      <!-- 0 -->
      <g transform="translate(89.109659 399.078438) scale(0.1 -0.1)">
       <defs>
        <path id="DejaVuSans-30" d="M 2034 4250 
Q 1547 4250 1301 3770 
Q 1056 3291 1056 2328 
Q 1056 1369 1301 889 
Q 1547 409 2034 409 
Q 2525 409 2770 889 
Q 3016 1369 3016 2328 
Q 3016 3291 2770 3770 
Q 2525 4250 2034 4250 
z
M 2034 4750 
Q 2819 4750 3233 4129 
Q 3647 3509 3647 2328 
Q 3647 1150 3233 529 
Q 2819 -91 2034 -91 
Q 1250 -91 836 529 
Q 422 1150 422 2328 
Q 422 3509 836 4129 
Q 1250 4750 2034 4750 
z
" transform="scale(0.015625)"/>
       </defs>
       <use xlink:href="#DejaVuSans-30"/>
      </g>
     </g>
    </g>
    <g id="xtick_2">
     <g id="line2d_2">
      <g>
       <use xlink:href="#m19710d56d6" x="143.273093" y="384.48" style="stroke: #000000; stroke-width: 0.8"/>
      </g>
     </g>
     <g id="text_2">
      <!-- 25 -->
      <g transform="translate(136.910593 399.078438) scale(0.1 -0.1)">
       <defs>
        <path id="DejaVuSans-32" d="M 1228 531 
L 3431 531 
L 3431 0 
L 469 0 
L 469 531 
Q 828 903 1448 1529 
Q 2069 2156 2228 2338 
Q 2531 2678 2651 2914 
Q 2772 3150 2772 3378 
Q 2772 3750 2511 3984 
Q 2250 4219 1831 4219 
Q 1534 4219 1204 4116 
Q 875 4013 500 3803 
L 500 4441 
Q 881 4594 1212 4672 
Q 1544 4750 1819 4750 
Q 2544 4750 2975 4387 
Q 3406 4025 3406 3419 
Q 3406 3131 3298 2873 
Q 3191 2616 2906 2266 
Q 2828 2175 2409 1742 
Q 1991 1309 1228 531 
z
" transform="scale(0.015625)"/>
        <path id="DejaVuSans-35" d="M 691 4666 
L 3169 4666 
L 3169 4134 
L 1269 4134 
L 1269 2991 
Q 1406 3038 1543 3061 
Q 1681 3084 1819 3084 
Q 2600 3084 3056 2656 
Q 3513 2228 3513 1497 
Q 3513 744 3044 326 
Q 2575 -91 1722 -91 
Q 1428 -91 1123 -41 
Q 819 9 494 109 
L 494 744 
Q 775 591 1075 516 
Q 1375 441 1709 441 
Q 2250 441 2565 725 
Q 2881 1009 2881 1497 
Q 2881 1984 2565 2268 
Q 2250 2553 1709 2553 
Q 1456 2553 1204 2497 
Q 953 2441 691 2322 
L 691 4666 
z
" transform="scale(0.015625)"/>
       </defs>
       <use xlink:href="#DejaVuSans-32"/>
       <use xlink:href="#DejaVuSans-35" x="63.623047"/>
      </g>
     </g>
    </g>
    <g id="xtick_3">
     <g id="line2d_3">
      <g>
       <use xlink:href="#m19710d56d6" x="194.255276" y="384.48" style="stroke: #000000; stroke-width: 0.8"/>
      </g>
     </g>
     <g id="text_3">
      <!-- 50 -->
      <g transform="translate(187.892776 399.078438) scale(0.1 -0.1)">
       <use xlink:href="#DejaVuSans-35"/>
       <use xlink:href="#DejaVuSans-30" x="63.623047"/>
      </g>
     </g>
    </g>
    <g id="xtick_4">
     <g id="line2d_4">
      <g>
       <use xlink:href="#m19710d56d6" x="245.23746" y="384.48" style="stroke: #000000; stroke-width: 0.8"/>
      </g>
     </g>
     <g id="text_4">
      <!-- 75 -->
      <g transform="translate(238.87496 399.078438) scale(0.1 -0.1)">
       <defs>
        <path id="DejaVuSans-37" d="M 525 4666 
L 3525 4666 
L 3525 4397 
L 1831 0 
L 1172 0 
L 2766 4134 
L 525 4134 
L 525 4666 
z
" transform="scale(0.015625)"/>
       </defs>
       <use xlink:href="#DejaVuSans-37"/>
       <use xlink:href="#DejaVuSans-35" x="63.623047"/>
      </g>
     </g>
    </g>
    <g id="xtick_5">
     <g id="line2d_5">
      <g>
       <use xlink:href="#m19710d56d6" x="296.219644" y="384.48" style="stroke: #000000; stroke-width: 0.8"/>
      </g>
     </g>
     <g id="text_5">
      <!-- 100 -->
      <g transform="translate(286.675894 399.078438) scale(0.1 -0.1)">
       <defs>
        <path id="DejaVuSans-31" d="M 794 531 
L 1825 531 
L 1825 4091 
L 703 3866 
L 703 4441 
L 1819 4666 
L 2450 4666 
L 2450 531 
L 3481 531 
L 3481 0 
L 794 0 
L 794 531 
z
" transform="scale(0.015625)"/>
       </defs>
       <use xlink:href="#DejaVuSans-31"/>
       <use xlink:href="#DejaVuSans-30" x="63.623047"/>
       <use xlink:href="#DejaVuSans-30" x="127.246094"/>
      </g>
     </g>
    </g>
    <g id="xtick_6">
     <g id="line2d_6">
      <g>
       <use xlink:href="#m19710d56d6" x="347.201827" y="384.48" style="stroke: #000000; stroke-width: 0.8"/>
      </g>
     </g>
     <g id="text_6">
      <!-- 125 -->
      <g transform="translate(337.658077 399.078438) scale(0.1 -0.1)">
       <use xlink:href="#DejaVuSans-31"/>
       <use xlink:href="#DejaVuSans-32" x="63.623047"/>
       <use xlink:href="#DejaVuSans-35" x="127.246094"/>
      </g>
     </g>
    </g>
    <g id="xtick_7">
     <g id="line2d_7">
      <g>
       <use xlink:href="#m19710d56d6" x="398.184011" y="384.48" style="stroke: #000000; stroke-width: 0.8"/>
      </g>
     </g>
     <g id="text_7">
      <!-- 150 -->
      <g transform="translate(388.640261 399.078438) scale(0.1 -0.1)">
       <use xlink:href="#DejaVuSans-31"/>
       <use xlink:href="#DejaVuSans-35" x="63.623047"/>
       <use xlink:href="#DejaVuSans-30" x="127.246094"/>
      </g>
     </g>
    </g>
    <g id="xtick_8">
     <g id="line2d_8">
      <g>
       <use xlink:href="#m19710d56d6" x="449.166195" y="384.48" style="stroke: #000000; stroke-width: 0.8"/>
      </g>
     </g>
     <g id="text_8">
      <!-- 175 -->
      <g transform="translate(439.622445 399.078438) scale(0.1 -0.1)">
       <use xlink:href="#DejaVuSans-31"/>
       <use xlink:href="#DejaVuSans-37" x="63.623047"/>
       <use xlink:href="#DejaVuSans-35" x="127.246094"/>
      </g>
     </g>
    </g>
    <g id="xtick_9">
     <g id="line2d_9">
      <g>
       <use xlink:href="#m19710d56d6" x="500.148378" y="384.48" style="stroke: #000000; stroke-width: 0.8"/>
      </g>
     </g>
     <g id="text_9">
      <!-- 200 -->
      <g transform="translate(490.604628 399.078438) scale(0.1 -0.1)">
       <use xlink:href="#DejaVuSans-32"/>
       <use xlink:href="#DejaVuSans-30" x="63.623047"/>
       <use xlink:href="#DejaVuSans-30" x="127.246094"/>
      </g>
     </g>
    </g>
    <g id="text_10">
     <!-- epoch -->
     <g transform="translate(279.971875 412.756563) scale(0.1 -0.1)">
      <defs>
       <path id="DejaVuSans-65" d="M 3597 1894 
L 3597 1613 
L 953 1613 
Q 991 1019 1311 708 
Q 1631 397 2203 397 
Q 2534 397 2845 478 
Q 3156 559 3463 722 
L 3463 178 
Q 3153 47 2828 -22 
Q 2503 -91 2169 -91 
Q 1331 -91 842 396 
Q 353 884 353 1716 
Q 353 2575 817 3079 
Q 1281 3584 2069 3584 
Q 2775 3584 3186 3129 
Q 3597 2675 3597 1894 
z
M 3022 2063 
Q 3016 2534 2758 2815 
Q 2500 3097 2075 3097 
Q 1594 3097 1305 2825 
Q 1016 2553 972 2059 
L 3022 2063 
z
" transform="scale(0.015625)"/>
       <path id="DejaVuSans-70" d="M 1159 525 
L 1159 -1331 
L 581 -1331 
L 581 3500 
L 1159 3500 
L 1159 2969 
Q 1341 3281 1617 3432 
Q 1894 3584 2278 3584 
Q 2916 3584 3314 3078 
Q 3713 2572 3713 1747 
Q 3713 922 3314 415 
Q 2916 -91 2278 -91 
Q 1894 -91 1617 61 
Q 1341 213 1159 525 
z
M 3116 1747 
Q 3116 2381 2855 2742 
Q 2594 3103 2138 3103 
Q 1681 3103 1420 2742 
Q 1159 2381 1159 1747 
Q 1159 1113 1420 752 
Q 1681 391 2138 391 
Q 2594 391 2855 752 
Q 3116 1113 3116 1747 
z
" transform="scale(0.015625)"/>
       <path id="DejaVuSans-6f" d="M 1959 3097 
Q 1497 3097 1228 2736 
Q 959 2375 959 1747 
Q 959 1119 1226 758 
Q 1494 397 1959 397 
Q 2419 397 2687 759 
Q 2956 1122 2956 1747 
Q 2956 2369 2687 2733 
Q 2419 3097 1959 3097 
z
M 1959 3584 
Q 2709 3584 3137 3096 
Q 3566 2609 3566 1747 
Q 3566 888 3137 398 
Q 2709 -91 1959 -91 
Q 1206 -91 779 398 
Q 353 888 353 1747 
Q 353 2609 779 3096 
Q 1206 3584 1959 3584 
z
" transform="scale(0.015625)"/>
       <path id="DejaVuSans-63" d="M 3122 3366 
L 3122 2828 
Q 2878 2963 2633 3030 
Q 2388 3097 2138 3097 
Q 1578 3097 1268 2742 
Q 959 2388 959 1747 
Q 959 1106 1268 751 
Q 1578 397 2138 397 
Q 2388 397 2633 464 
Q 2878 531 3122 666 
L 3122 134 
Q 2881 22 2623 -34 
Q 2366 -91 2075 -91 
Q 1284 -91 818 406 
Q 353 903 353 1747 
Q 353 2603 823 3093 
Q 1294 3584 2113 3584 
Q 2378 3584 2631 3529 
Q 2884 3475 3122 3366 
z
" transform="scale(0.015625)"/>
       <path id="DejaVuSans-68" d="M 3513 2113 
L 3513 0 
L 2938 0 
L 2938 2094 
Q 2938 2591 2744 2837 
Q 2550 3084 2163 3084 
Q 1697 3084 1428 2787 
Q 1159 2491 1159 1978 
L 1159 0 
L 581 0 
L 581 4863 
L 1159 4863 
L 1159 2956 
Q 1366 3272 1645 3428 
Q 1925 3584 2291 3584 
Q 2894 3584 3203 3211 
Q 3513 2838 3513 2113 
z
" transform="scale(0.015625)"/>
      </defs>
      <use xlink:href="#DejaVuSans-65"/>
      <use xlink:href="#DejaVuSans-70" x="61.523438"/>
      <use xlink:href="#DejaVuSans-6f" x="125"/>
      <use xlink:href="#DejaVuSans-63" x="186.181641"/>
      <use xlink:href="#DejaVuSans-68" x="241.162109"/>
     </g>
    </g>
   </g>
   <g id="matplotlib.axis_2">
    <g id="ytick_1">
     <g id="line2d_10">
      <defs>
       <path id="m541d6e9cf8" d="M 0 0 
L -3.5 0 
" style="stroke: #000000; stroke-width: 0.8"/>
      </defs>
      <g>
       <use xlink:href="#m541d6e9cf8" x="72" y="384.48" style="stroke: #000000; stroke-width: 0.8"/>
      </g>
     </g>
     <g id="text_11">
      <!-- 0 -->
      <g transform="translate(58.6375 388.279219) scale(0.1 -0.1)">
       <use xlink:href="#DejaVuSans-30"/>
      </g>
     </g>
    </g>
    <g id="ytick_2">
     <g id="line2d_11">
      <g>
       <use xlink:href="#m541d6e9cf8" x="72" y="317.952" style="stroke: #000000; stroke-width: 0.8"/>
      </g>
     </g>
     <g id="text_12">
      <!-- 20 -->
      <g transform="translate(52.275 321.751219) scale(0.1 -0.1)">
       <use xlink:href="#DejaVuSans-32"/>
       <use xlink:href="#DejaVuSans-30" x="63.623047"/>
      </g>
     </g>
    </g>
    <g id="ytick_3">
     <g id="line2d_12">
      <g>
       <use xlink:href="#m541d6e9cf8" x="72" y="251.424" style="stroke: #000000; stroke-width: 0.8"/>
      </g>
     </g>
     <g id="text_13">
      <!-- 40 -->
      <g transform="translate(52.275 255.223219) scale(0.1 -0.1)">
       <defs>
        <path id="DejaVuSans-34" d="M 2419 4116 
L 825 1625 
L 2419 1625 
L 2419 4116 
z
M 2253 4666 
L 3047 4666 
L 3047 1625 
L 3713 1625 
L 3713 1100 
L 3047 1100 
L 3047 0 
L 2419 0 
L 2419 1100 
L 313 1100 
L 313 1709 
L 2253 4666 
z
" transform="scale(0.015625)"/>
       </defs>
       <use xlink:href="#DejaVuSans-34"/>
       <use xlink:href="#DejaVuSans-30" x="63.623047"/>
      </g>
     </g>
    </g>
    <g id="ytick_4">
     <g id="line2d_13">
      <g>
       <use xlink:href="#m541d6e9cf8" x="72" y="184.896" style="stroke: #000000; stroke-width: 0.8"/>
      </g>
     </g>
     <g id="text_14">
      <!-- 60 -->
      <g transform="translate(52.275 188.695219) scale(0.1 -0.1)">
       <defs>
        <path id="DejaVuSans-36" d="M 2113 2584 
Q 1688 2584 1439 2293 
Q 1191 2003 1191 1497 
Q 1191 994 1439 701 
Q 1688 409 2113 409 
Q 2538 409 2786 701 
Q 3034 994 3034 1497 
Q 3034 2003 2786 2293 
Q 2538 2584 2113 2584 
z
M 3366 4563 
L 3366 3988 
Q 3128 4100 2886 4159 
Q 2644 4219 2406 4219 
Q 1781 4219 1451 3797 
Q 1122 3375 1075 2522 
Q 1259 2794 1537 2939 
Q 1816 3084 2150 3084 
Q 2853 3084 3261 2657 
Q 3669 2231 3669 1497 
Q 3669 778 3244 343 
Q 2819 -91 2113 -91 
Q 1303 -91 875 529 
Q 447 1150 447 2328 
Q 447 3434 972 4092 
Q 1497 4750 2381 4750 
Q 2619 4750 2861 4703 
Q 3103 4656 3366 4563 
z
" transform="scale(0.015625)"/>
       </defs>
       <use xlink:href="#DejaVuSans-36"/>
       <use xlink:href="#DejaVuSans-30" x="63.623047"/>
      </g>
     </g>
    </g>
    <g id="ytick_5">
     <g id="line2d_14">
      <g>
       <use xlink:href="#m541d6e9cf8" x="72" y="118.368" style="stroke: #000000; stroke-width: 0.8"/>
      </g>
     </g>
     <g id="text_15">
      <!-- 80 -->
      <g transform="translate(52.275 122.167219) scale(0.1 -0.1)">
       <defs>
        <path id="DejaVuSans-38" d="M 2034 2216 
Q 1584 2216 1326 1975 
Q 1069 1734 1069 1313 
Q 1069 891 1326 650 
Q 1584 409 2034 409 
Q 2484 409 2743 651 
Q 3003 894 3003 1313 
Q 3003 1734 2745 1975 
Q 2488 2216 2034 2216 
z
M 1403 2484 
Q 997 2584 770 2862 
Q 544 3141 544 3541 
Q 544 4100 942 4425 
Q 1341 4750 2034 4750 
Q 2731 4750 3128 4425 
Q 3525 4100 3525 3541 
Q 3525 3141 3298 2862 
Q 3072 2584 2669 2484 
Q 3125 2378 3379 2068 
Q 3634 1759 3634 1313 
Q 3634 634 3220 271 
Q 2806 -91 2034 -91 
Q 1263 -91 848 271 
Q 434 634 434 1313 
Q 434 1759 690 2068 
Q 947 2378 1403 2484 
z
M 1172 3481 
Q 1172 3119 1398 2916 
Q 1625 2713 2034 2713 
Q 2441 2713 2670 2916 
Q 2900 3119 2900 3481 
Q 2900 3844 2670 4047 
Q 2441 4250 2034 4250 
Q 1625 4250 1398 4047 
Q 1172 3844 1172 3481 
z
" transform="scale(0.015625)"/>
       </defs>
       <use xlink:href="#DejaVuSans-38"/>
       <use xlink:href="#DejaVuSans-30" x="63.623047"/>
      </g>
     </g>
    </g>
    <g id="ytick_6">
     <g id="line2d_15">
      <g>
       <use xlink:href="#m541d6e9cf8" x="72" y="51.84" style="stroke: #000000; stroke-width: 0.8"/>
      </g>
     </g>
     <g id="text_16">
      <!-- 100 -->
      <g transform="translate(45.9125 55.639219) scale(0.1 -0.1)">
       <use xlink:href="#DejaVuSans-31"/>
       <use xlink:href="#DejaVuSans-30" x="63.623047"/>
       <use xlink:href="#DejaVuSans-30" x="127.246094"/>
      </g>
     </g>
    </g>
    <g id="text_17">
     <!-- rate -->
     <g transform="translate(39.832812 228.31625) rotate(-90) scale(0.1 -0.1)">
      <defs>
       <path id="DejaVuSans-72" d="M 2631 2963 
Q 2534 3019 2420 3045 
Q 2306 3072 2169 3072 
Q 1681 3072 1420 2755 
Q 1159 2438 1159 1844 
L 1159 0 
L 581 0 
L 581 3500 
L 1159 3500 
L 1159 2956 
Q 1341 3275 1631 3429 
Q 1922 3584 2338 3584 
Q 2397 3584 2469 3576 
Q 2541 3569 2628 3553 
L 2631 2963 
z
" transform="scale(0.015625)"/>
       <path id="DejaVuSans-61" d="M 2194 1759 
Q 1497 1759 1228 1600 
Q 959 1441 959 1056 
Q 959 750 1161 570 
Q 1363 391 1709 391 
Q 2188 391 2477 730 
Q 2766 1069 2766 1631 
L 2766 1759 
L 2194 1759 
z
M 3341 1997 
L 3341 0 
L 2766 0 
L 2766 531 
Q 2569 213 2275 61 
Q 1981 -91 1556 -91 
Q 1019 -91 701 211 
Q 384 513 384 1019 
Q 384 1609 779 1909 
Q 1175 2209 1959 2209 
L 2766 2209 
L 2766 2266 
Q 2766 2663 2505 2880 
Q 2244 3097 1772 3097 
Q 1472 3097 1187 3025 
Q 903 2953 641 2809 
L 641 3341 
Q 956 3463 1253 3523 
Q 1550 3584 1831 3584 
Q 2591 3584 2966 3190 
Q 3341 2797 3341 1997 
z
" transform="scale(0.015625)"/>
       <path id="DejaVuSans-74" d="M 1172 4494 
L 1172 3500 
L 2356 3500 
L 2356 3053 
L 1172 3053 
L 1172 1153 
Q 1172 725 1289 603 
Q 1406 481 1766 481 
L 2356 481 
L 2356 0 
L 1766 0 
Q 1100 0 847 248 
Q 594 497 594 1153 
L 594 3053 
L 172 3053 
L 172 3500 
L 594 3500 
L 594 4494 
L 1172 4494 
z
" transform="scale(0.015625)"/>
      </defs>
      <use xlink:href="#DejaVuSans-72"/>
      <use xlink:href="#DejaVuSans-61" x="41.113281"/>
      <use xlink:href="#DejaVuSans-74" x="102.392578"/>
      <use xlink:href="#DejaVuSans-65" x="141.601562"/>
     </g>
    </g>
   </g>
   <g id="line2d_16">
    <path d="M 92.290909 159.019734 
L 94.330196 122.912666 
L 96.369484 138.103171 
L 98.408771 119.399328 
L 100.448058 96.166808 
L 102.487346 82.437007 
L 104.526633 75.722335 
L 106.565921 76.574314 
L 108.605208 88.622845 
L 110.644495 94.084255 
L 112.683783 94.736911 
L 114.72307 97.771663 
L 116.762357 82.823419 
L 118.801645 71.613975 
L 120.840932 66.618538 
L 122.880219 99.995142 
L 124.919507 71.877302 
L 126.958794 77.823465 
L 128.998081 79.108882 
L 131.037369 91.574025 
L 133.076656 99.560892 
L 135.115943 88.076676 
L 137.155231 85.137906 
L 139.194518 100.98419 
L 141.233805 113.793033 
L 143.273093 100.83164 
L 145.31238 84.77469 
L 147.351667 70.578409 
L 149.390955 84.803088 
L 151.430242 108.5632 
L 153.469529 86.462989 
L 155.508817 80.456933 
L 157.548104 95.616654 
L 159.587392 90.620304 
L 161.626679 104.241104 
L 163.665966 95.293257 
L 165.705254 97.576503 
L 167.744541 70.029321 
L 169.783828 88.385379 
L 171.823116 77.261307 
L 173.862403 110.672477 
L 175.90169 92.215896 
L 177.940978 93.790779 
L 179.980265 72.615915 
L 182.019552 115.732553 
L 184.05884 84.186316 
L 186.098127 84.292753 
L 188.137414 74.105577 
L 190.176702 133.634108 
L 192.215989 124.655731 
L 194.255276 75.621887 
L 196.294564 81.482855 
L 198.333851 106.204962 
L 200.373138 96.4865 
L 202.412426 83.552389 
L 204.451713 77.966929 
L 206.491 116.20251 
L 208.530288 99.707503 
L 210.569575 78.459321 
L 212.608862 89.392039 
L 214.64815 109.377442 
L 216.687437 80.602249 
L 218.726725 69.375218 
L 220.766012 70.539554 
L 222.805299 93.659192 
L 224.844587 85.232922 
L 226.883874 78.281088 
L 228.923161 66.446625 
L 230.962449 96.346817 
L 233.001736 82.050139 
L 235.041023 89.397039 
L 237.080311 80.863089 
L 239.119598 97.298685 
L 241.158885 97.293406 
L 243.198173 83.890988 
L 245.23746 72.737808 
L 247.276747 89.854205 
L 249.316035 91.426068 
L 251.355322 109.91115 
L 253.394609 68.443703 
L 255.433897 93.01661 
L 257.473184 81.175142 
L 259.512471 88.513311 
L 261.551759 79.257041 
L 263.591046 90.24983 
L 265.630333 82.441525 
L 267.669621 77.298512 
L 269.708908 77.798772 
L 271.748196 92.312943 
L 273.787483 89.61712 
L 275.82677 76.281853 
L 277.866058 71.501066 
L 279.905345 113.916879 
L 281.944632 85.49899 
L 283.98392 85.752063 
L 286.023207 69.245204 
L 288.062494 100.23474 
L 292.141069 87.526091 
L 294.180356 90.680425 
L 296.219644 99.492193 
L 298.258931 84.72977 
L 300.298218 76.326823 
L 302.337506 77.684442 
L 304.376793 88.867848 
L 306.41608 91.423759 
L 308.455368 79.001023 
L 310.494655 59.280343 
L 312.533942 105.541037 
L 314.57323 87.704476 
L 316.612517 79.044167 
L 318.651804 65.304926 
L 320.691092 107.559611 
L 322.730379 83.0736 
L 324.769667 94.866722 
L 326.808954 69.561673 
L 328.848241 71.109198 
L 330.887529 96.686507 
L 332.926816 76.096286 
L 334.966103 89.44343 
L 337.005391 81.234603 
L 339.044678 87.901209 
L 341.083965 74.639159 
L 343.123253 69.89408 
L 345.16254 82.22624 
L 347.201827 88.189584 
L 349.241115 77.685432 
L 351.280402 75.144925 
L 353.319689 102.721317 
L 355.358977 71.077145 
L 357.398264 73.123509 
L 359.437551 62.671255 
L 361.476839 94.846952 
L 363.516126 83.895074 
L 365.555413 76.090829 
L 367.594701 77.212936 
L 371.673275 97.271733 
L 373.712563 68.584934 
L 375.75185 74.766482 
L 377.791138 110.733943 
L 379.830425 72.840692 
L 381.869712 73.920239 
L 383.909 81.847847 
L 385.948287 88.956698 
L 387.987574 77.258897 
L 390.026862 75.624577 
L 392.066149 90.799425 
L 394.105436 85.596367 
L 396.144724 66.828874 
L 398.184011 68.519508 
L 400.223298 87.015883 
L 402.262586 93.329653 
L 404.301873 79.294119 
L 406.34116 73.848392 
L 408.380448 66.440991 
L 410.419735 81.036449 
L 412.459022 77.607926 
L 414.49831 68.778165 
L 416.537597 69.64867 
L 418.576884 82.119879 
L 420.616172 80.948995 
L 424.694746 75.660412 
L 426.734034 89.227257 
L 428.773321 80.487564 
L 430.812608 69.469448 
L 432.851896 73.348463 
L 434.891183 101.328321 
L 436.930471 82.646557 
L 438.969758 68.873512 
L 441.009045 86.991951 
L 443.048333 85.112603 
L 445.08762 84.996218 
L 447.126907 73.413584 
L 449.166195 85.383036 
L 451.205482 73.675997 
L 453.244769 96.32154 
L 455.284057 71.295577 
L 457.323344 81.228436 
L 459.362631 93.639473 
L 461.401919 77.611606 
L 463.441206 89.04471 
L 465.480493 82.416146 
L 467.519781 86.517781 
L 469.559068 83.521097 
L 471.598355 85.958517 
L 473.637643 88.030868 
L 475.67693 95.203468 
L 477.716217 105.42016 
L 479.755505 88.408727 
L 481.794792 74.373193 
L 483.834079 105.321057 
L 485.873367 79.294322 
L 487.912654 77.088836 
L 489.951942 76.989708 
L 491.991229 82.803091 
L 494.030516 82.056509 
L 496.069804 91.936175 
L 498.109091 95.80613 
L 498.109091 95.80613 
" clip-path="url(#p971d6decbe)" style="fill: none; stroke: #0000ff; stroke-width: 1.5; stroke-linecap: square"/>
   </g>
   <g id="line2d_17">
    <path d="M 92.290909 231.926942 
L 94.330196 221.007332 
L 96.369484 232.770063 
L 98.408771 230.826077 
L 100.448058 188.756603 
L 102.487346 200.378929 
L 104.526633 185.159694 
L 106.565921 186.149453 
L 108.605208 187.288538 
L 110.644495 193.147425 
L 112.683783 189.546367 
L 114.72307 152.90554 
L 116.762357 158.964992 
L 118.801645 170.528897 
L 120.840932 147.494074 
L 122.880219 186.207963 
L 124.919507 188.246421 
L 126.958794 174.823712 
L 128.998081 191.911216 
L 133.076656 162.94712 
L 135.115943 169.813581 
L 137.155231 189.489849 
L 139.194518 202.04926 
L 141.233805 161.030339 
L 143.273093 151.29434 
L 145.31238 140.558965 
L 147.351667 195.331796 
L 149.390955 184.357571 
L 151.430242 202.228736 
L 153.469529 229.359153 
L 155.508817 200.264409 
L 157.548104 145.261535 
L 159.587392 197.499278 
L 161.626679 177.819304 
L 163.665966 176.914576 
L 165.705254 192.835625 
L 167.744541 202.62068 
L 169.783828 163.697661 
L 171.823116 204.50032 
L 173.862403 203.208419 
L 175.90169 161.174615 
L 177.940978 145.466009 
L 179.980265 211.948975 
L 182.019552 206.929352 
L 184.05884 165.985196 
L 186.098127 145.952564 
L 188.137414 160.684685 
L 190.176702 206.499683 
L 192.215989 193.578705 
L 194.255276 200.046509 
L 196.294564 202.244991 
L 198.333851 194.241158 
L 200.373138 184.831095 
L 202.412426 138.176921 
L 204.451713 166.705384 
L 206.491 174.275703 
L 208.530288 205.718713 
L 210.569575 212.053179 
L 212.608862 205.104327 
L 214.64815 189.978777 
L 216.687437 182.571413 
L 218.726725 197.312797 
L 220.766012 195.239862 
L 222.805299 164.845324 
L 224.844587 193.153414 
L 226.883874 188.658757 
L 228.923161 138.28412 
L 230.962449 189.130744 
L 233.001736 212.868219 
L 235.041023 181.919733 
L 237.080311 193.350312 
L 241.158885 212.257335 
L 243.198173 206.121709 
L 245.23746 221.1628 
L 247.276747 194.027815 
L 249.316035 206.126785 
L 251.355322 202.903104 
L 253.394609 194.489156 
L 255.433897 200.665591 
L 257.473184 195.13071 
L 259.512471 193.790171 
L 261.551759 191.355518 
L 263.591046 185.722334 
L 265.630333 198.401747 
L 267.669621 201.598603 
L 269.708908 192.154253 
L 271.748196 210.735861 
L 273.787483 208.700093 
L 275.82677 174.357003 
L 277.866058 202.190034 
L 279.905345 160.915425 
L 281.944632 180.17583 
L 283.98392 186.934433 
L 286.023207 205.678856 
L 288.062494 193.303502 
L 290.101782 203.428755 
L 292.141069 175.772992 
L 294.180356 200.987034 
L 296.219644 188.267815 
L 298.258931 166.852529 
L 300.298218 200.52856 
L 302.337506 164.958309 
L 304.376793 174.303124 
L 306.41608 165.169102 
L 308.455368 174.554016 
L 310.494655 167.818964 
L 312.533942 185.799243 
L 314.57323 176.835294 
L 316.612517 193.190238 
L 318.651804 196.40628 
L 320.691092 191.65643 
L 322.730379 211.841979 
L 324.769667 165.446183 
L 326.808954 140.770925 
L 328.848241 188.352211 
L 330.887529 128.014997 
L 332.926816 157.49411 
L 334.966103 151.605962 
L 337.005391 154.095128 
L 339.044678 190.322071 
L 341.083965 195.338749 
L 343.123253 188.106598 
L 345.16254 165.745446 
L 347.201827 176.656808 
L 349.241115 167.873984 
L 351.280402 196.898139 
L 353.319689 174.571971 
L 355.358977 174.837975 
L 357.398264 164.27299 
L 359.437551 157.641635 
L 361.476839 184.292895 
L 363.516126 128.107628 
L 365.555413 168.902851 
L 367.594701 155.983028 
L 369.633988 161.423476 
L 371.673275 157.778044 
L 373.712563 168.128784 
L 375.75185 183.407822 
L 377.791138 163.942893 
L 379.830425 185.906137 
L 381.869712 164.210052 
L 383.909 173.675757 
L 385.948287 156.893377 
L 387.987574 177.097022 
L 390.026862 130.956254 
L 392.066149 135.064816 
L 394.105436 193.513635 
L 396.144724 164.927322 
L 398.184011 167.863833 
L 400.223298 194.105701 
L 402.262586 162.857889 
L 404.301873 189.614609 
L 406.34116 156.750979 
L 408.380448 168.092137 
L 410.419735 186.480908 
L 412.459022 146.871516 
L 416.537597 186.566293 
L 418.576884 148.155867 
L 420.616172 150.843696 
L 422.655459 157.645746 
L 424.694746 139.951152 
L 426.734034 155.08882 
L 428.773321 190.599419 
L 430.812608 184.231162 
L 432.851896 151.472725 
L 434.891183 163.647514 
L 436.930471 156.684868 
L 438.969758 131.690705 
L 441.009045 164.779264 
L 443.048333 167.372634 
L 445.08762 148.907728 
L 447.126907 144.130393 
L 449.166195 164.952929 
L 451.205482 181.518044 
L 453.244769 151.543201 
L 455.284057 182.866234 
L 457.323344 163.983143 
L 459.362631 155.584232 
L 461.401919 143.972286 
L 463.441206 152.332597 
L 465.480493 162.949556 
L 467.519781 143.09904 
L 469.559068 156.856655 
L 471.598355 162.393693 
L 473.637643 164.746501 
L 475.67693 169.965445 
L 477.716217 188.58639 
L 479.755505 137.101866 
L 481.794792 169.35347 
L 483.834079 171.83888 
L 485.873367 164.242384 
L 487.912654 132.151856 
L 489.951942 166.992947 
L 491.991229 173.380987 
L 494.030516 148.933437 
L 496.069804 166.850879 
L 498.109091 149.685805 
L 498.109091 149.685805 
" clip-path="url(#p971d6decbe)" style="fill: none; stroke: #008000; stroke-width: 1.5; stroke-linecap: square"/>
   </g>
   <g id="patch_3">
    <path d="M 72 384.48 
L 72 51.84 
" style="fill: none; stroke: #000000; stroke-width: 0.8; stroke-linejoin: miter; stroke-linecap: square"/>
   </g>
   <g id="patch_4">
    <path d="M 518.4 384.48 
L 518.4 51.84 
" style="fill: none; stroke: #000000; stroke-width: 0.8; stroke-linejoin: miter; stroke-linecap: square"/>
   </g>
   <g id="patch_5">
    <path d="M 72 384.48 
L 518.4 384.48 
" style="fill: none; stroke: #000000; stroke-width: 0.8; stroke-linejoin: miter; stroke-linecap: square"/>
   </g>
   <g id="patch_6">
    <path d="M 72 51.84 
L 518.4 51.84 
" style="fill: none; stroke: #000000; stroke-width: 0.8; stroke-linejoin: miter; stroke-linecap: square"/>
   </g>
   <g id="legend_1">
    <g id="patch_7">
     <path d="M 79 89.19625 
L 160.740625 89.19625 
Q 162.740625 89.19625 162.740625 87.19625 
L 162.740625 58.84 
Q 162.740625 56.84 160.740625 56.84 
L 79 56.84 
Q 77 56.84 77 58.84 
L 77 87.19625 
Q 77 89.19625 79 89.19625 
z
" style="fill: #ffffff; opacity: 0.8; stroke: #cccccc; stroke-linejoin: miter"/>
    </g>
    <g id="line2d_18">
     <path d="M 81 64.938437 
L 91 64.938437 
L 101 64.938437 
" style="fill: none; stroke: #0000ff; stroke-width: 1.5; stroke-linecap: square"/>
    </g>
    <g id="text_18">
     <!-- train mAP -->
     <g transform="translate(109 68.438437) scale(0.1 -0.1)">
      <defs>
       <path id="DejaVuSans-69" d="M 603 3500 
L 1178 3500 
L 1178 0 
L 603 0 
L 603 3500 
z
M 603 4863 
L 1178 4863 
L 1178 4134 
L 603 4134 
L 603 4863 
z
" transform="scale(0.015625)"/>
       <path id="DejaVuSans-6e" d="M 3513 2113 
L 3513 0 
L 2938 0 
L 2938 2094 
Q 2938 2591 2744 2837 
Q 2550 3084 2163 3084 
Q 1697 3084 1428 2787 
Q 1159 2491 1159 1978 
L 1159 0 
L 581 0 
L 581 3500 
L 1159 3500 
L 1159 2956 
Q 1366 3272 1645 3428 
Q 1925 3584 2291 3584 
Q 2894 3584 3203 3211 
Q 3513 2838 3513 2113 
z
" transform="scale(0.015625)"/>
       <path id="DejaVuSans-20" transform="scale(0.015625)"/>
       <path id="DejaVuSans-6d" d="M 3328 2828 
Q 3544 3216 3844 3400 
Q 4144 3584 4550 3584 
Q 5097 3584 5394 3201 
Q 5691 2819 5691 2113 
L 5691 0 
L 5113 0 
L 5113 2094 
Q 5113 2597 4934 2840 
Q 4756 3084 4391 3084 
Q 3944 3084 3684 2787 
Q 3425 2491 3425 1978 
L 3425 0 
L 2847 0 
L 2847 2094 
Q 2847 2600 2669 2842 
Q 2491 3084 2119 3084 
Q 1678 3084 1418 2786 
Q 1159 2488 1159 1978 
L 1159 0 
L 581 0 
L 581 3500 
L 1159 3500 
L 1159 2956 
Q 1356 3278 1631 3431 
Q 1906 3584 2284 3584 
Q 2666 3584 2933 3390 
Q 3200 3197 3328 2828 
z
" transform="scale(0.015625)"/>
       <path id="DejaVuSans-41" d="M 2188 4044 
L 1331 1722 
L 3047 1722 
L 2188 4044 
z
M 1831 4666 
L 2547 4666 
L 4325 0 
L 3669 0 
L 3244 1197 
L 1141 1197 
L 716 0 
L 50 0 
L 1831 4666 
z
" transform="scale(0.015625)"/>
       <path id="DejaVuSans-50" d="M 1259 4147 
L 1259 2394 
L 2053 2394 
Q 2494 2394 2734 2622 
Q 2975 2850 2975 3272 
Q 2975 3691 2734 3919 
Q 2494 4147 2053 4147 
L 1259 4147 
z
M 628 4666 
L 2053 4666 
Q 2838 4666 3239 4311 
Q 3641 3956 3641 3272 
Q 3641 2581 3239 2228 
Q 2838 1875 2053 1875 
L 1259 1875 
L 1259 0 
L 628 0 
L 628 4666 
z
" transform="scale(0.015625)"/>
      </defs>
      <use xlink:href="#DejaVuSans-74"/>
      <use xlink:href="#DejaVuSans-72" x="39.208984"/>
      <use xlink:href="#DejaVuSans-61" x="80.322266"/>
      <use xlink:href="#DejaVuSans-69" x="141.601562"/>
      <use xlink:href="#DejaVuSans-6e" x="169.384766"/>
      <use xlink:href="#DejaVuSans-20" x="232.763672"/>
      <use xlink:href="#DejaVuSans-6d" x="264.550781"/>
      <use xlink:href="#DejaVuSans-41" x="361.962891"/>
      <use xlink:href="#DejaVuSans-50" x="430.371094"/>
     </g>
    </g>
    <g id="line2d_19">
     <path d="M 81 79.616562 
L 91 79.616562 
L 101 79.616562 
" style="fill: none; stroke: #008000; stroke-width: 1.5; stroke-linecap: square"/>
    </g>
    <g id="text_19">
     <!-- valid mAP -->
     <g transform="translate(109 83.116562) scale(0.1 -0.1)">
      <defs>
       <path id="DejaVuSans-76" d="M 191 3500 
L 800 3500 
L 1894 563 
L 2988 3500 
L 3597 3500 
L 2284 0 
L 1503 0 
L 191 3500 
z
" transform="scale(0.015625)"/>
       <path id="DejaVuSans-6c" d="M 603 4863 
L 1178 4863 
L 1178 0 
L 603 0 
L 603 4863 
z
" transform="scale(0.015625)"/>
       <path id="DejaVuSans-64" d="M 2906 2969 
L 2906 4863 
L 3481 4863 
L 3481 0 
L 2906 0 
L 2906 525 
Q 2725 213 2448 61 
Q 2172 -91 1784 -91 
Q 1150 -91 751 415 
Q 353 922 353 1747 
Q 353 2572 751 3078 
Q 1150 3584 1784 3584 
Q 2172 3584 2448 3432 
Q 2725 3281 2906 2969 
z
M 947 1747 
Q 947 1113 1208 752 
Q 1469 391 1925 391 
Q 2381 391 2643 752 
Q 2906 1113 2906 1747 
Q 2906 2381 2643 2742 
Q 2381 3103 1925 3103 
Q 1469 3103 1208 2742 
Q 947 2381 947 1747 
z
" transform="scale(0.015625)"/>
      </defs>
      <use xlink:href="#DejaVuSans-76"/>
      <use xlink:href="#DejaVuSans-61" x="59.179688"/>
      <use xlink:href="#DejaVuSans-6c" x="120.458984"/>
      <use xlink:href="#DejaVuSans-69" x="148.242188"/>
      <use xlink:href="#DejaVuSans-64" x="176.025391"/>
      <use xlink:href="#DejaVuSans-20" x="239.501953"/>
      <use xlink:href="#DejaVuSans-6d" x="271.289062"/>
      <use xlink:href="#DejaVuSans-41" x="368.701172"/>
      <use xlink:href="#DejaVuSans-50" x="437.109375"/>
     </g>
    </g>
   </g>
  </g>
  <g id="axes_2">
   <g id="matplotlib.axis_3">
    <g id="ytick_7">
     <g id="line2d_20">
      <defs>
       <path id="mca28635a14" d="M 0 0 
L 3.5 0 
" style="stroke: #000000; stroke-width: 0.8"/>
      </defs>
      <g>
       <use xlink:href="#mca28635a14" x="518.4" y="334.27973" style="stroke: #000000; stroke-width: 0.8"/>
      </g>
     </g>
     <g id="text_20">
      <!-- 2 -->
      <g transform="translate(525.4 338.078948) scale(0.1 -0.1)">
       <use xlink:href="#DejaVuSans-32"/>
      </g>
     </g>
    </g>
    <g id="ytick_8">
     <g id="line2d_21">
      <g>
       <use xlink:href="#mca28635a14" x="518.4" y="273.222488" style="stroke: #000000; stroke-width: 0.8"/>
      </g>
     </g>
     <g id="text_21">
      <!-- 4 -->
      <g transform="translate(525.4 277.021707) scale(0.1 -0.1)">
       <use xlink:href="#DejaVuSans-34"/>
      </g>
     </g>
    </g>
    <g id="ytick_9">
     <g id="line2d_22">
      <g>
       <use xlink:href="#mca28635a14" x="518.4" y="212.165247" style="stroke: #000000; stroke-width: 0.8"/>
      </g>
     </g>
     <g id="text_22">
      <!-- 6 -->
      <g transform="translate(525.4 215.964466) scale(0.1 -0.1)">
       <use xlink:href="#DejaVuSans-36"/>
      </g>
     </g>
    </g>
    <g id="ytick_10">
     <g id="line2d_23">
      <g>
       <use xlink:href="#mca28635a14" x="518.4" y="151.108006" style="stroke: #000000; stroke-width: 0.8"/>
      </g>
     </g>
     <g id="text_23">
      <!-- 8 -->
      <g transform="translate(525.4 154.907225) scale(0.1 -0.1)">
       <use xlink:href="#DejaVuSans-38"/>
      </g>
     </g>
    </g>
    <g id="ytick_11">
     <g id="line2d_24">
      <g>
       <use xlink:href="#mca28635a14" x="518.4" y="90.050765" style="stroke: #000000; stroke-width: 0.8"/>
      </g>
     </g>
     <g id="text_24">
      <!-- 10 -->
      <g transform="translate(525.4 93.849984) scale(0.1 -0.1)">
       <use xlink:href="#DejaVuSans-31"/>
       <use xlink:href="#DejaVuSans-30" x="63.623047"/>
      </g>
     </g>
    </g>
    <g id="text_25">
     <!-- loss -->
     <g transform="translate(549.723438 227.817812) rotate(-90) scale(0.1 -0.1)">
      <defs>
       <path id="DejaVuSans-73" d="M 2834 3397 
L 2834 2853 
Q 2591 2978 2328 3040 
Q 2066 3103 1784 3103 
Q 1356 3103 1142 2972 
Q 928 2841 928 2578 
Q 928 2378 1081 2264 
Q 1234 2150 1697 2047 
L 1894 2003 
Q 2506 1872 2764 1633 
Q 3022 1394 3022 966 
Q 3022 478 2636 193 
Q 2250 -91 1575 -91 
Q 1294 -91 989 -36 
Q 684 19 347 128 
L 347 722 
Q 666 556 975 473 
Q 1284 391 1588 391 
Q 1994 391 2212 530 
Q 2431 669 2431 922 
Q 2431 1156 2273 1281 
Q 2116 1406 1581 1522 
L 1381 1569 
Q 847 1681 609 1914 
Q 372 2147 372 2553 
Q 372 3047 722 3315 
Q 1072 3584 1716 3584 
Q 2034 3584 2315 3537 
Q 2597 3491 2834 3397 
z
" transform="scale(0.015625)"/>
      </defs>
      <use xlink:href="#DejaVuSans-6c"/>
      <use xlink:href="#DejaVuSans-6f" x="27.783203"/>
      <use xlink:href="#DejaVuSans-73" x="88.964844"/>
      <use xlink:href="#DejaVuSans-73" x="141.064453"/>
     </g>
    </g>
   </g>
   <g id="line2d_25">
    <path d="M 92.290909 198.736608 
L 94.330196 177.970726 
L 96.369484 153.676773 
L 98.408771 186.503515 
L 100.448058 295.831431 
L 102.487346 307.910051 
L 104.526633 328.022501 
L 106.565921 344.938031 
L 108.605208 269.952715 
L 110.644495 302.944075 
L 112.683783 263.792626 
L 114.72307 347.405393 
L 116.762357 297.007727 
L 118.801645 152.22648 
L 120.840932 351.716044 
L 122.880219 353.79096 
L 124.919507 301.024059 
L 126.958794 352.606619 
L 128.998081 343.810827 
L 131.037369 347.360875 
L 133.076656 326.998773 
L 135.115943 344.571705 
L 137.155231 357.258045 
L 139.194518 322.26713 
L 141.233805 330.90271 
L 143.273093 334.985692 
L 145.31238 368.756998 
L 147.351667 277.960222 
L 149.390955 249.160207 
L 151.430242 251.083635 
L 153.469529 236.981888 
L 155.508817 274.76187 
L 157.548104 318.944461 
L 159.587392 335.105758 
L 161.626679 318.394283 
L 163.665966 369.36 
L 165.705254 327.586866 
L 167.744541 361.257328 
L 169.783828 365.744408 
L 171.823116 362.216948 
L 173.862403 319.138196 
L 175.90169 364.08609 
L 177.940978 364.276212 
L 179.980265 356.857424 
L 182.019552 360.85763 
L 184.05884 368.098474 
L 186.098127 365.36446 
L 188.137414 365.777078 
L 190.176702 327.327233 
L 192.215989 352.828459 
L 194.255276 357.810449 
L 196.294564 357.134434 
L 198.333851 348.617039 
L 200.373138 355.233373 
L 202.412426 365.71895 
L 204.451713 361.923453 
L 206.491 337.801404 
L 208.530288 341.522517 
L 210.569575 305.632784 
L 212.608862 347.810744 
L 214.64815 299.83287 
L 216.687437 356.759908 
L 218.726725 346.062105 
L 220.766012 366.407994 
L 222.805299 344.702087 
L 224.844587 357.132745 
L 226.883874 365.331559 
L 228.923161 359.608527 
L 230.962449 241.757389 
L 233.001736 348.405446 
L 235.041023 338.937777 
L 237.080311 350.90441 
L 239.119598 306.342692 
L 241.158885 271.798514 
L 243.198173 264.237105 
L 245.23746 279.102561 
L 247.276747 341.87208 
L 249.316035 342.502492 
L 251.355322 350.753889 
L 253.394609 355.806057 
L 255.433897 305.508031 
L 257.473184 348.815763 
L 259.512471 350.186335 
L 261.551759 350.914263 
L 265.630333 333.955004 
L 267.669621 318.575274 
L 269.708908 340.959745 
L 271.748196 238.238003 
L 273.787483 252.288183 
L 275.82677 208.688504 
L 277.866058 286.138405 
L 279.905345 352.880789 
L 281.944632 296.886849 
L 283.98392 330.703471 
L 286.023207 323.997069 
L 288.062494 203.196492 
L 290.101782 273.699581 
L 292.141069 283.418175 
L 294.180356 273.57275 
L 296.219644 331.064017 
L 298.258931 319.946166 
L 300.298218 337.820441 
L 302.337506 343.764556 
L 304.376793 342.384405 
L 306.41608 342.490101 
L 308.455368 341.300392 
L 310.494655 364.384401 
L 312.533942 309.633276 
L 314.57323 363.697409 
L 316.612517 345.720095 
L 318.651804 356.112974 
L 320.691092 323.16039 
L 322.730379 265.319956 
L 324.769667 324.217603 
L 326.808954 362.524815 
L 328.848241 305.932453 
L 330.887529 359.790883 
L 332.926816 346.414125 
L 334.966103 340.521289 
L 337.005391 335.118575 
L 339.044678 320.428439 
L 341.083965 325.190083 
L 343.123253 345.309932 
L 345.16254 309.116647 
L 347.201827 348.45645 
L 349.241115 344.433349 
L 351.280402 351.581932 
L 353.319689 300.843526 
L 355.358977 311.862318 
L 357.398264 303.27133 
L 359.437551 338.422305 
L 361.476839 256.303876 
L 363.516126 314.186698 
L 365.555413 315.35169 
L 367.594701 317.320945 
L 369.633988 247.038604 
L 371.673275 337.220591 
L 373.712563 340.820972 
L 375.75185 320.078875 
L 377.791138 262.265425 
L 379.830425 323.691846 
L 381.869712 316.019702 
L 383.909 346.700462 
L 385.948287 295.602252 
L 387.987574 315.943583 
L 390.026862 338.627563 
L 392.066149 319.531178 
L 394.105436 162.06276 
L 396.144724 291.160728 
L 398.184011 317.731421 
L 400.223298 281.694216 
L 402.262586 197.526514 
L 404.301873 302.059456 
L 406.34116 323.613902 
L 408.380448 324.950081 
L 410.419735 250.432669 
L 412.459022 292.452986 
L 414.49831 294.61397 
L 416.537597 303.875847 
L 418.576884 256.946526 
L 420.616172 296.184242 
L 422.655459 256.813472 
L 424.694746 247.268195 
L 426.734034 234.709588 
L 428.773321 223.334667 
L 430.812608 200.848659 
L 432.851896 304.523108 
L 434.891183 222.384906 
L 436.930471 203.875465 
L 438.969758 285.411715 
L 441.009045 211.49975 
L 443.048333 183.89613 
L 445.08762 217.168242 
L 447.126907 210.912824 
L 449.166195 229.261037 
L 451.205482 151.313066 
L 453.244769 198.021965 
L 455.284057 230.557142 
L 457.323344 256.625555 
L 459.362631 69.650329 
L 461.401919 166.82852 
L 463.441206 239.949798 
L 465.480493 220.623708 
L 467.519781 199.208803 
L 469.559068 135.081689 
L 471.598355 185.930914 
L 473.637643 193.73574 
L 475.67693 146.596861 
L 477.716217 66.96 
L 479.755505 88.516989 
L 481.794792 192.138591 
L 483.834079 175.131659 
L 485.873367 105.063639 
L 487.912654 78.48672 
L 489.951942 168.807047 
L 491.991229 214.39112 
L 494.030516 96.990936 
L 496.069804 94.992146 
L 498.109091 114.440628 
L 498.109091 114.440628 
" clip-path="url(#p971d6decbe)" style="fill: none; stroke: #ff0000; stroke-width: 1.5; stroke-linecap: square"/>
   </g>
   <g id="patch_8">
    <path d="M 72 384.48 
L 72 51.84 
" style="fill: none; stroke: #000000; stroke-width: 0.8; stroke-linejoin: miter; stroke-linecap: square"/>
   </g>
   <g id="patch_9">
    <path d="M 518.4 384.48 
L 518.4 51.84 
" style="fill: none; stroke: #000000; stroke-width: 0.8; stroke-linejoin: miter; stroke-linecap: square"/>
   </g>
   <g id="patch_10">
    <path d="M 72 384.48 
L 518.4 384.48 
" style="fill: none; stroke: #000000; stroke-width: 0.8; stroke-linejoin: miter; stroke-linecap: square"/>
   </g>
   <g id="patch_11">
    <path d="M 72 51.84 
L 518.4 51.84 
" style="fill: none; stroke: #000000; stroke-width: 0.8; stroke-linejoin: miter; stroke-linecap: square"/>
   </g>
   <g id="text_26">
    <!-- The learning curve on voc/voc_fpsl_200_onecycle/host/8 -->
    <g transform="translate(125.934375 45.84) scale(0.12 -0.12)">
     <defs>
      <path id="DejaVuSans-54" d="M -19 4666 
L 3928 4666 
L 3928 4134 
L 2272 4134 
L 2272 0 
L 1638 0 
L 1638 4134 
L -19 4134 
L -19 4666 
z
" transform="scale(0.015625)"/>
      <path id="DejaVuSans-67" d="M 2906 1791 
Q 2906 2416 2648 2759 
Q 2391 3103 1925 3103 
Q 1463 3103 1205 2759 
Q 947 2416 947 1791 
Q 947 1169 1205 825 
Q 1463 481 1925 481 
Q 2391 481 2648 825 
Q 2906 1169 2906 1791 
z
M 3481 434 
Q 3481 -459 3084 -895 
Q 2688 -1331 1869 -1331 
Q 1566 -1331 1297 -1286 
Q 1028 -1241 775 -1147 
L 775 -588 
Q 1028 -725 1275 -790 
Q 1522 -856 1778 -856 
Q 2344 -856 2625 -561 
Q 2906 -266 2906 331 
L 2906 616 
Q 2728 306 2450 153 
Q 2172 0 1784 0 
Q 1141 0 747 490 
Q 353 981 353 1791 
Q 353 2603 747 3093 
Q 1141 3584 1784 3584 
Q 2172 3584 2450 3431 
Q 2728 3278 2906 2969 
L 2906 3500 
L 3481 3500 
L 3481 434 
z
" transform="scale(0.015625)"/>
      <path id="DejaVuSans-75" d="M 544 1381 
L 544 3500 
L 1119 3500 
L 1119 1403 
Q 1119 906 1312 657 
Q 1506 409 1894 409 
Q 2359 409 2629 706 
Q 2900 1003 2900 1516 
L 2900 3500 
L 3475 3500 
L 3475 0 
L 2900 0 
L 2900 538 
Q 2691 219 2414 64 
Q 2138 -91 1772 -91 
Q 1169 -91 856 284 
Q 544 659 544 1381 
z
M 1991 3584 
L 1991 3584 
z
" transform="scale(0.015625)"/>
      <path id="DejaVuSans-2f" d="M 1625 4666 
L 2156 4666 
L 531 -594 
L 0 -594 
L 1625 4666 
z
" transform="scale(0.015625)"/>
      <path id="DejaVuSans-5f" d="M 3263 -1063 
L 3263 -1509 
L -63 -1509 
L -63 -1063 
L 3263 -1063 
z
" transform="scale(0.015625)"/>
      <path id="DejaVuSans-66" d="M 2375 4863 
L 2375 4384 
L 1825 4384 
Q 1516 4384 1395 4259 
Q 1275 4134 1275 3809 
L 1275 3500 
L 2222 3500 
L 2222 3053 
L 1275 3053 
L 1275 0 
L 697 0 
L 697 3053 
L 147 3053 
L 147 3500 
L 697 3500 
L 697 3744 
Q 697 4328 969 4595 
Q 1241 4863 1831 4863 
L 2375 4863 
z
" transform="scale(0.015625)"/>
      <path id="DejaVuSans-79" d="M 2059 -325 
Q 1816 -950 1584 -1140 
Q 1353 -1331 966 -1331 
L 506 -1331 
L 506 -850 
L 844 -850 
Q 1081 -850 1212 -737 
Q 1344 -625 1503 -206 
L 1606 56 
L 191 3500 
L 800 3500 
L 1894 763 
L 2988 3500 
L 3597 3500 
L 2059 -325 
z
" transform="scale(0.015625)"/>
     </defs>
     <use xlink:href="#DejaVuSans-54"/>
     <use xlink:href="#DejaVuSans-68" x="61.083984"/>
     <use xlink:href="#DejaVuSans-65" x="124.462891"/>
     <use xlink:href="#DejaVuSans-20" x="185.986328"/>
     <use xlink:href="#DejaVuSans-6c" x="217.773438"/>
     <use xlink:href="#DejaVuSans-65" x="245.556641"/>
     <use xlink:href="#DejaVuSans-61" x="307.080078"/>
     <use xlink:href="#DejaVuSans-72" x="368.359375"/>
     <use xlink:href="#DejaVuSans-6e" x="407.722656"/>
     <use xlink:href="#DejaVuSans-69" x="471.101562"/>
     <use xlink:href="#DejaVuSans-6e" x="498.884766"/>
     <use xlink:href="#DejaVuSans-67" x="562.263672"/>
     <use xlink:href="#DejaVuSans-20" x="625.740234"/>
     <use xlink:href="#DejaVuSans-63" x="657.527344"/>
     <use xlink:href="#DejaVuSans-75" x="712.507812"/>
     <use xlink:href="#DejaVuSans-72" x="775.886719"/>
     <use xlink:href="#DejaVuSans-76" x="817"/>
     <use xlink:href="#DejaVuSans-65" x="876.179688"/>
     <use xlink:href="#DejaVuSans-20" x="937.703125"/>
     <use xlink:href="#DejaVuSans-6f" x="969.490234"/>
     <use xlink:href="#DejaVuSans-6e" x="1030.671875"/>
     <use xlink:href="#DejaVuSans-20" x="1094.050781"/>
     <use xlink:href="#DejaVuSans-76" x="1125.837891"/>
     <use xlink:href="#DejaVuSans-6f" x="1185.017578"/>
     <use xlink:href="#DejaVuSans-63" x="1246.199219"/>
     <use xlink:href="#DejaVuSans-2f" x="1301.179688"/>
     <use xlink:href="#DejaVuSans-76" x="1334.871094"/>
     <use xlink:href="#DejaVuSans-6f" x="1394.050781"/>
     <use xlink:href="#DejaVuSans-63" x="1455.232422"/>
     <use xlink:href="#DejaVuSans-5f" x="1510.212891"/>
     <use xlink:href="#DejaVuSans-66" x="1560.212891"/>
     <use xlink:href="#DejaVuSans-70" x="1595.417969"/>
     <use xlink:href="#DejaVuSans-73" x="1658.894531"/>
     <use xlink:href="#DejaVuSans-6c" x="1710.994141"/>
     <use xlink:href="#DejaVuSans-5f" x="1738.777344"/>
     <use xlink:href="#DejaVuSans-32" x="1788.777344"/>
     <use xlink:href="#DejaVuSans-30" x="1852.400391"/>
     <use xlink:href="#DejaVuSans-30" x="1916.023438"/>
     <use xlink:href="#DejaVuSans-5f" x="1979.646484"/>
     <use xlink:href="#DejaVuSans-6f" x="2029.646484"/>
     <use xlink:href="#DejaVuSans-6e" x="2090.828125"/>
     <use xlink:href="#DejaVuSans-65" x="2154.207031"/>
     <use xlink:href="#DejaVuSans-63" x="2215.730469"/>
     <use xlink:href="#DejaVuSans-79" x="2270.710938"/>
     <use xlink:href="#DejaVuSans-63" x="2329.890625"/>
     <use xlink:href="#DejaVuSans-6c" x="2384.871094"/>
     <use xlink:href="#DejaVuSans-65" x="2412.654297"/>
     <use xlink:href="#DejaVuSans-2f" x="2474.177734"/>
     <use xlink:href="#DejaVuSans-68" x="2507.869141"/>
     <use xlink:href="#DejaVuSans-6f" x="2571.248047"/>
     <use xlink:href="#DejaVuSans-73" x="2632.429688"/>
     <use xlink:href="#DejaVuSans-74" x="2684.529297"/>
     <use xlink:href="#DejaVuSans-2f" x="2723.738281"/>
     <use xlink:href="#DejaVuSans-38" x="2757.429688"/>
    </g>
   </g>
   <g id="legend_2">
    <g id="patch_12">
     <path d="M 460.084375 74.518125 
L 511.4 74.518125 
Q 513.4 74.518125 513.4 72.518125 
L 513.4 58.84 
Q 513.4 56.84 511.4 56.84 
L 460.084375 56.84 
Q 458.084375 56.84 458.084375 58.84 
L 458.084375 72.518125 
Q 458.084375 74.518125 460.084375 74.518125 
z
" style="fill: #ffffff; opacity: 0.8; stroke: #cccccc; stroke-linejoin: miter"/>
    </g>
    <g id="line2d_26">
     <path d="M 462.084375 64.938438 
L 472.084375 64.938438 
L 482.084375 64.938438 
" style="fill: none; stroke: #ff0000; stroke-width: 1.5; stroke-linecap: square"/>
    </g>
    <g id="text_27">
     <!-- loss -->
     <g transform="translate(490.084375 68.438438) scale(0.1 -0.1)">
      <use xlink:href="#DejaVuSans-6c"/>
      <use xlink:href="#DejaVuSans-6f" x="27.783203"/>
      <use xlink:href="#DejaVuSans-73" x="88.964844"/>
      <use xlink:href="#DejaVuSans-73" x="141.064453"/>
     </g>
    </g>
   </g>
  </g>
 </g>
 <defs>
  <clipPath id="p971d6decbe">
   <rect x="72" y="51.84" width="446.4" height="332.64"/>
  </clipPath>
 </defs>
</svg>
