<?xml version="1.0" encoding="utf-8" standalone="no"?>
<!DOCTYPE svg PUBLIC "-//W3C//DTD SVG 1.1//EN"
  "http://www.w3.org/Graphics/SVG/1.1/DTD/svg11.dtd">
<!-- Created with matplotlib (https://matplotlib.org/) -->
<svg height="432pt" version="1.1" viewBox="0 0 576 432" width="576pt" xmlns="http://www.w3.org/2000/svg" xmlns:xlink="http://www.w3.org/1999/xlink">
 <metadata>
  <rdf:RDF xmlns:cc="http://creativecommons.org/ns#" xmlns:dc="http://purl.org/dc/elements/1.1/" xmlns:rdf="http://www.w3.org/1999/02/22-rdf-syntax-ns#">
   <cc:Work>
    <dc:type rdf:resource="http://purl.org/dc/dcmitype/StillImage"/>
    <dc:date>2023-03-28T10:21:36.452348</dc:date>
    <dc:format>image/svg+xml</dc:format>
    <dc:creator>
     <cc:Agent>
      <dc:title>Matplotlib v3.3.4, https://matplotlib.org/</dc:title>
     </cc:Agent>
    </dc:creator>
   </cc:Work>
  </rdf:RDF>
 </metadata>
 <defs>
  <style type="text/css">*{stroke-linecap:butt;stroke-linejoin:round;}</style>
 </defs>
 <g id="figure_1">
  <g id="patch_1">
   <path d="M 0 432 
L 576 432 
L 576 0 
L 0 0 
z
" style="fill:#ffffff;"/>
  </g>
  <g id="axes_1">
   <g id="patch_2">
    <path d="M 72 384.48 
L 518.4 384.48 
L 518.4 51.84 
L 72 51.84 
z
" style="fill:#ffffff;"/>
   </g>
   <g id="matplotlib.axis_1">
    <g id="xtick_1">
     <g id="line2d_1">
      <defs>
       <path d="M 0 0 
L 0 3.5 
" id="m6caaa179d0" style="stroke:#000000;stroke-width:0.8;"/>
      </defs>
      <g>
       <use style="stroke:#000000;stroke-width:0.8;" x="92.290909" xlink:href="#m6caaa179d0" y="384.48"/>
      </g>
     </g>
     <g id="text_1">
      <!-- 0 -->
      <g transform="translate(89.790909 398.315938)scale(0.1 -0.1)">
       <defs>
        <path d="M 46.484375 35.15625 
Q 46.484375 21.09375 41.40625 10.9375 
Q 36.328125 0.78125 25 0.78125 
Q 13.671875 0.78125 8.390625 10.9375 
Q 3.125 21.09375 3.125 35.15625 
Q 3.125 49.21875 8.390625 59.171875 
Q 13.671875 69.140625 25 69.140625 
Q 36.328125 69.140625 41.40625 59.171875 
Q 46.484375 49.21875 46.484375 35.15625 
z
M 37.109375 35.15625 
Q 37.109375 47.65625 34.171875 54.6875 
Q 31.25 61.71875 25 61.71875 
Q 18.75 61.71875 15.625 54.6875 
Q 12.5 47.65625 12.5 35.15625 
Q 12.5 22.65625 15.625 15.421875 
Q 18.75 8.203125 25 8.203125 
Q 31.25 8.203125 34.171875 15.421875 
Q 37.109375 22.65625 37.109375 35.15625 
z
" id="SimHei-48"/>
       </defs>
       <use xlink:href="#SimHei-48"/>
      </g>
     </g>
    </g>
    <g id="xtick_2">
     <g id="line2d_2">
      <g>
       <use style="stroke:#000000;stroke-width:0.8;" x="173.53579" xlink:href="#m6caaa179d0" y="384.48"/>
      </g>
     </g>
     <g id="text_2">
      <!-- 200 -->
      <g transform="translate(166.03579 398.315938)scale(0.1 -0.1)">
       <defs>
        <path d="M 44.53125 1.5625 
L 4.6875 1.5625 
L 4.6875 7.8125 
Q 7.03125 14.0625 11.125 19.328125 
Q 15.234375 24.609375 23.046875 31.25 
Q 28.90625 36.328125 31.4375 40.625 
Q 33.984375 44.921875 33.984375 50 
Q 33.984375 55.078125 31.828125 58.390625 
Q 29.6875 61.71875 25 61.71875 
Q 21.09375 61.71875 18.15625 58.203125 
Q 15.234375 54.6875 15.234375 45.703125 
L 6.25 45.703125 
Q 6.640625 57.03125 11.515625 63.078125 
Q 16.40625 69.140625 25.390625 69.140625 
Q 33.984375 69.140625 38.671875 63.859375 
Q 43.359375 58.59375 43.359375 49.609375 
Q 43.359375 42.1875 39.0625 36.71875 
Q 34.765625 31.25 28.515625 25.78125 
Q 21.484375 19.53125 18.75 16.40625 
Q 16.015625 13.28125 13.671875 8.984375 
L 44.53125 8.984375 
z
" id="SimHei-50"/>
       </defs>
       <use xlink:href="#SimHei-50"/>
       <use x="50" xlink:href="#SimHei-48"/>
       <use x="100" xlink:href="#SimHei-48"/>
      </g>
     </g>
    </g>
    <g id="xtick_3">
     <g id="line2d_3">
      <g>
       <use style="stroke:#000000;stroke-width:0.8;" x="254.780672" xlink:href="#m6caaa179d0" y="384.48"/>
      </g>
     </g>
     <g id="text_3">
      <!-- 400 -->
      <g transform="translate(247.280672 398.315938)scale(0.1 -0.1)">
       <defs>
        <path d="M 46.484375 18.75 
L 38.28125 18.75 
L 38.28125 1.5625 
L 29.296875 1.5625 
L 29.296875 18.75 
L 3.125 18.75 
L 3.125 26.171875 
L 29.296875 69.140625 
L 38.28125 69.140625 
L 38.28125 26.171875 
L 46.484375 26.171875 
z
M 29.296875 26.171875 
L 29.296875 55.078125 
L 11.71875 26.171875 
z
" id="SimHei-52"/>
       </defs>
       <use xlink:href="#SimHei-52"/>
       <use x="50" xlink:href="#SimHei-48"/>
       <use x="100" xlink:href="#SimHei-48"/>
      </g>
     </g>
    </g>
    <g id="xtick_4">
     <g id="line2d_4">
      <g>
       <use style="stroke:#000000;stroke-width:0.8;" x="336.025553" xlink:href="#m6caaa179d0" y="384.48"/>
      </g>
     </g>
     <g id="text_4">
      <!-- 600 -->
      <g transform="translate(328.525553 398.315938)scale(0.1 -0.1)">
       <defs>
        <path d="M 44.53125 24.21875 
Q 44.53125 13.28125 39.84375 7.03125 
Q 35.15625 0.78125 25.78125 0.78125 
Q 16.40625 0.78125 10.9375 8.59375 
Q 5.46875 16.40625 5.46875 33.984375 
Q 5.46875 50 11.125 59.5625 
Q 16.796875 69.140625 27.34375 69.140625 
Q 34.765625 69.140625 39.25 63.671875 
Q 43.75 58.203125 43.75 51.5625 
L 34.765625 51.5625 
Q 34.765625 55.46875 32.609375 58.59375 
Q 30.46875 61.71875 26.953125 61.71875 
Q 21.09375 61.71875 17.96875 55.65625 
Q 14.84375 49.609375 14.453125 37.109375 
Q 17.1875 42.1875 20.3125 44.140625 
Q 23.4375 46.09375 27.734375 46.09375 
Q 35.15625 46.09375 39.84375 40.234375 
Q 44.53125 34.375 44.53125 24.21875 
z
M 35.15625 24.21875 
Q 35.15625 31.25 32.8125 35.15625 
Q 30.46875 39.0625 26.171875 39.0625 
Q 21.09375 39.0625 18.15625 35.15625 
Q 15.234375 31.25 15.234375 25.78125 
Q 15.234375 17.1875 18.15625 12.5 
Q 21.09375 7.8125 26.171875 7.8125 
Q 29.6875 7.8125 32.421875 11.328125 
Q 35.15625 14.84375 35.15625 24.21875 
z
" id="SimHei-54"/>
       </defs>
       <use xlink:href="#SimHei-54"/>
       <use x="50" xlink:href="#SimHei-48"/>
       <use x="100" xlink:href="#SimHei-48"/>
      </g>
     </g>
    </g>
    <g id="xtick_5">
     <g id="line2d_5">
      <g>
       <use style="stroke:#000000;stroke-width:0.8;" x="417.270434" xlink:href="#m6caaa179d0" y="384.48"/>
      </g>
     </g>
     <g id="text_5">
      <!-- 800 -->
      <g transform="translate(409.770434 398.315938)scale(0.1 -0.1)">
       <defs>
        <path d="M 44.921875 20.703125 
Q 44.921875 10.9375 39.453125 5.859375 
Q 33.984375 0.78125 24.609375 0.78125 
Q 15.234375 0.78125 9.765625 5.859375 
Q 4.296875 10.9375 4.296875 20.703125 
Q 4.296875 25.78125 7.421875 29.875 
Q 10.546875 33.984375 16.015625 35.9375 
Q 11.328125 37.890625 8.78125 41.40625 
Q 6.25 44.921875 6.25 50.390625 
Q 6.25 58.984375 11.71875 64.0625 
Q 17.1875 69.140625 24.609375 69.140625 
Q 32.03125 69.140625 37.5 64.0625 
Q 42.96875 58.984375 42.96875 50.390625 
Q 42.96875 44.921875 40.421875 41.40625 
Q 37.890625 37.890625 33.203125 35.9375 
Q 38.671875 33.984375 41.796875 29.875 
Q 44.921875 25.78125 44.921875 20.703125 
z
M 34.375 50.390625 
Q 34.375 56.640625 31.640625 59.375 
Q 28.90625 62.109375 24.609375 62.109375 
Q 20.3125 62.109375 17.578125 59.375 
Q 14.84375 56.640625 14.84375 50.390625 
Q 14.84375 44.140625 17.765625 41.59375 
Q 20.703125 39.0625 24.609375 39.0625 
Q 28.515625 39.0625 31.4375 41.59375 
Q 34.375 44.140625 34.375 50.390625 
z
M 35.9375 20.703125 
Q 35.9375 26.171875 33 29.296875 
Q 30.078125 32.421875 24.609375 32.421875 
Q 19.140625 32.421875 16.203125 29.296875 
Q 13.28125 26.171875 13.28125 20.703125 
Q 13.28125 14.453125 16.40625 11.125 
Q 19.53125 7.8125 24.609375 7.8125 
Q 29.6875 7.8125 32.8125 11.125 
Q 35.9375 14.453125 35.9375 20.703125 
z
" id="SimHei-56"/>
       </defs>
       <use xlink:href="#SimHei-56"/>
       <use x="50" xlink:href="#SimHei-48"/>
       <use x="100" xlink:href="#SimHei-48"/>
      </g>
     </g>
    </g>
    <g id="xtick_6">
     <g id="line2d_6">
      <g>
       <use style="stroke:#000000;stroke-width:0.8;" x="498.515315" xlink:href="#m6caaa179d0" y="384.48"/>
      </g>
     </g>
     <g id="text_6">
      <!-- 1000 -->
      <g transform="translate(488.515315 398.315938)scale(0.1 -0.1)">
       <defs>
        <path d="M 30.46875 1.5625 
L 21.484375 1.5625 
L 21.484375 53.515625 
L 9.765625 53.515625 
L 9.765625 58.203125 
Q 16.796875 58.203125 20.703125 60.9375 
Q 24.609375 63.671875 25.78125 69.140625 
L 30.46875 69.140625 
z
" id="SimHei-49"/>
       </defs>
       <use xlink:href="#SimHei-49"/>
       <use x="50" xlink:href="#SimHei-48"/>
       <use x="100" xlink:href="#SimHei-48"/>
       <use x="150" xlink:href="#SimHei-48"/>
      </g>
     </g>
    </g>
    <g id="text_7">
     <!-- epoch -->
     <g transform="translate(282.7 410.440938)scale(0.1 -0.1)">
      <defs>
       <path d="M 44.921875 16.40625 
Q 44.140625 9.375 38.671875 5.078125 
Q 33.203125 0.78125 25.78125 0.78125 
Q 16.40625 0.78125 10.34375 6.828125 
Q 4.296875 12.890625 4.296875 23.4375 
Q 4.296875 33.984375 10.34375 40.03125 
Q 16.40625 46.09375 25.78125 46.09375 
Q 33.984375 46.09375 39.25 40.8125 
Q 44.53125 35.546875 44.53125 23.4375 
L 12.890625 23.4375 
Q 12.890625 14.84375 16.59375 11.328125 
Q 20.3125 7.8125 25.78125 7.8125 
Q 30.078125 7.8125 32.8125 9.953125 
Q 35.546875 12.109375 36.328125 16.40625 
z
M 35.546875 29.6875 
Q 34.765625 35.15625 32.03125 37.296875 
Q 29.296875 39.453125 25 39.453125 
Q 21.09375 39.453125 17.96875 37.296875 
Q 14.84375 35.15625 13.28125 29.6875 
z
" id="SimHei-101"/>
       <path d="M 44.53125 23.4375 
Q 44.53125 12.109375 39.0625 6.25 
Q 33.59375 0.390625 25.78125 0.390625 
Q 21.484375 0.390625 18.359375 2.140625 
Q 15.234375 3.90625 12.890625 7.421875 
L 12.890625 -12.890625 
L 5.078125 -12.890625 
L 5.078125 45.3125 
L 12.890625 45.3125 
L 12.890625 39.453125 
Q 15.234375 42.96875 18.359375 44.53125 
Q 21.484375 46.09375 25.78125 46.09375 
Q 33.59375 46.09375 39.0625 40.421875 
Q 44.53125 34.765625 44.53125 23.4375 
z
M 35.9375 23.4375 
Q 35.9375 30.859375 33 34.953125 
Q 30.078125 39.0625 24.21875 39.0625 
Q 19.53125 39.0625 16.203125 34.953125 
Q 12.890625 30.859375 12.890625 23.4375 
Q 12.890625 16.015625 16.203125 11.71875 
Q 19.53125 7.421875 24.21875 7.421875 
Q 30.078125 7.421875 33 11.71875 
Q 35.9375 16.015625 35.9375 23.4375 
z
" id="SimHei-112"/>
       <path d="M 46.09375 23.4375 
Q 46.09375 13.28125 39.84375 7.03125 
Q 33.59375 0.78125 25 0.78125 
Q 16.40625 0.78125 10.15625 7.03125 
Q 3.90625 13.28125 3.90625 23.4375 
Q 3.90625 33.59375 10.15625 39.84375 
Q 16.40625 46.09375 25 46.09375 
Q 33.59375 46.09375 39.84375 39.84375 
Q 46.09375 33.59375 46.09375 23.4375 
z
M 37.5 23.4375 
Q 37.5 31.25 33.59375 35.15625 
Q 29.6875 39.0625 25 39.0625 
Q 20.3125 39.0625 16.40625 35.15625 
Q 12.5 31.25 12.5 23.4375 
Q 12.5 15.625 16.40625 11.71875 
Q 20.3125 7.8125 25 7.8125 
Q 29.6875 7.8125 33.59375 11.71875 
Q 37.5 15.625 37.5 23.4375 
z
" id="SimHei-111"/>
       <path d="M 44.921875 19.140625 
Q 44.921875 10.9375 39.25 5.859375 
Q 33.59375 0.78125 25 0.78125 
Q 16.40625 0.78125 10.15625 6.828125 
Q 3.90625 12.890625 3.90625 23.4375 
Q 3.90625 33.984375 10.15625 40.03125 
Q 16.40625 46.09375 25 46.09375 
Q 33.59375 46.09375 38.671875 41.59375 
Q 43.75 37.109375 43.75 30.859375 
L 35.15625 30.859375 
Q 34.765625 35.546875 31.828125 37.296875 
Q 28.90625 39.0625 25 39.0625 
Q 20.3125 39.0625 16.40625 35.34375 
Q 12.5 31.640625 12.5 23.4375 
Q 12.5 15.234375 16.40625 11.515625 
Q 20.3125 7.8125 25 7.8125 
Q 30.078125 7.8125 33.203125 10.546875 
Q 36.328125 13.28125 36.328125 19.140625 
z
" id="SimHei-99"/>
       <path d="M 44.140625 1.5625 
L 36.328125 1.5625 
L 36.328125 29.6875 
Q 36.328125 34.375 33.984375 37.109375 
Q 31.640625 39.84375 27.734375 39.84375 
Q 22.65625 39.84375 18.15625 34.5625 
Q 13.671875 29.296875 13.671875 21.484375 
L 13.671875 1.5625 
L 5.859375 1.5625 
L 5.859375 68.359375 
L 13.671875 68.359375 
L 13.671875 37.109375 
Q 16.796875 41.40625 20.5 43.75 
Q 24.21875 46.09375 30.078125 46.09375 
Q 37.109375 46.09375 40.625 42.1875 
Q 44.140625 38.28125 44.140625 32.421875 
z
" id="SimHei-104"/>
      </defs>
      <use xlink:href="#SimHei-101"/>
      <use x="50" xlink:href="#SimHei-112"/>
      <use x="100" xlink:href="#SimHei-111"/>
      <use x="150" xlink:href="#SimHei-99"/>
      <use x="200" xlink:href="#SimHei-104"/>
     </g>
    </g>
   </g>
   <g id="matplotlib.axis_2">
    <g id="ytick_1">
     <g id="line2d_7">
      <defs>
       <path d="M 0 0 
L -3.5 0 
" id="m299ec422b6" style="stroke:#000000;stroke-width:0.8;"/>
      </defs>
      <g>
       <use style="stroke:#000000;stroke-width:0.8;" x="72" xlink:href="#m299ec422b6" y="384.48"/>
      </g>
     </g>
     <g id="text_8">
      <!-- 0.0 -->
      <g transform="translate(50 387.897969)scale(0.1 -0.1)">
       <defs>
        <path d="M 17.1875 1.5625 
L 8.203125 1.5625 
L 8.203125 10.15625 
L 17.1875 10.15625 
z
" id="SimHei-46"/>
       </defs>
       <use xlink:href="#SimHei-48"/>
       <use x="50" xlink:href="#SimHei-46"/>
       <use x="100" xlink:href="#SimHei-48"/>
      </g>
     </g>
    </g>
    <g id="ytick_2">
     <g id="line2d_8">
      <g>
       <use style="stroke:#000000;stroke-width:0.8;" x="72" xlink:href="#m299ec422b6" y="317.952"/>
      </g>
     </g>
     <g id="text_9">
      <!-- 0.2 -->
      <g transform="translate(50 321.369969)scale(0.1 -0.1)">
       <use xlink:href="#SimHei-48"/>
       <use x="50" xlink:href="#SimHei-46"/>
       <use x="100" xlink:href="#SimHei-50"/>
      </g>
     </g>
    </g>
    <g id="ytick_3">
     <g id="line2d_9">
      <g>
       <use style="stroke:#000000;stroke-width:0.8;" x="72" xlink:href="#m299ec422b6" y="251.424"/>
      </g>
     </g>
     <g id="text_10">
      <!-- 0.4 -->
      <g transform="translate(50 254.841969)scale(0.1 -0.1)">
       <use xlink:href="#SimHei-48"/>
       <use x="50" xlink:href="#SimHei-46"/>
       <use x="100" xlink:href="#SimHei-52"/>
      </g>
     </g>
    </g>
    <g id="ytick_4">
     <g id="line2d_10">
      <g>
       <use style="stroke:#000000;stroke-width:0.8;" x="72" xlink:href="#m299ec422b6" y="184.896"/>
      </g>
     </g>
     <g id="text_11">
      <!-- 0.6 -->
      <g transform="translate(50 188.313969)scale(0.1 -0.1)">
       <use xlink:href="#SimHei-48"/>
       <use x="50" xlink:href="#SimHei-46"/>
       <use x="100" xlink:href="#SimHei-54"/>
      </g>
     </g>
    </g>
    <g id="ytick_5">
     <g id="line2d_11">
      <g>
       <use style="stroke:#000000;stroke-width:0.8;" x="72" xlink:href="#m299ec422b6" y="118.368"/>
      </g>
     </g>
     <g id="text_12">
      <!-- 0.8 -->
      <g transform="translate(50 121.785969)scale(0.1 -0.1)">
       <use xlink:href="#SimHei-48"/>
       <use x="50" xlink:href="#SimHei-46"/>
       <use x="100" xlink:href="#SimHei-56"/>
      </g>
     </g>
    </g>
    <g id="ytick_6">
     <g id="line2d_12">
      <g>
       <use style="stroke:#000000;stroke-width:0.8;" x="72" xlink:href="#m299ec422b6" y="51.84"/>
      </g>
     </g>
     <g id="text_13">
      <!-- 1.0 -->
      <g transform="translate(50 55.257969)scale(0.1 -0.1)">
       <use xlink:href="#SimHei-49"/>
       <use x="50" xlink:href="#SimHei-46"/>
       <use x="100" xlink:href="#SimHei-48"/>
      </g>
     </g>
    </g>
    <g id="text_14">
     <!-- rate -->
     <g transform="translate(44.710938 228.16)rotate(-90)scale(0.1 -0.1)">
      <defs>
       <path d="M 39.453125 37.5 
Q 32.03125 38.671875 26.953125 35.34375 
Q 21.875 32.03125 18.359375 23.828125 
L 18.359375 1.5625 
L 10.546875 1.5625 
L 10.546875 45.3125 
L 18.359375 45.3125 
L 18.359375 33.984375 
Q 21.875 40.234375 27.140625 43.15625 
Q 32.421875 46.09375 39.453125 46.09375 
z
" id="SimHei-114"/>
       <path d="M 45.3125 1.5625 
L 35.9375 1.5625 
Q 35.15625 2.34375 34.765625 3.703125 
Q 34.375 5.078125 34.375 7.03125 
Q 31.640625 3.90625 27.734375 2.34375 
Q 23.828125 0.78125 19.53125 0.78125 
Q 13.28125 0.78125 8.984375 3.90625 
Q 4.6875 7.03125 4.6875 12.890625 
Q 4.6875 18.75 8.59375 22.265625 
Q 12.5 25.78125 20.703125 26.953125 
Q 26.171875 27.734375 30.265625 28.90625 
Q 34.375 30.078125 34.375 32.03125 
Q 34.375 34.375 32.609375 36.71875 
Q 30.859375 39.0625 25 39.0625 
Q 20.3125 39.0625 18.15625 37.296875 
Q 16.015625 35.546875 15.234375 32.421875 
L 6.640625 32.421875 
Q 7.421875 38.671875 12.296875 42.375 
Q 17.1875 46.09375 25 46.09375 
Q 33.59375 46.09375 37.890625 42.1875 
Q 42.1875 38.28125 42.1875 31.25 
L 42.1875 9.765625 
Q 42.1875 7.421875 42.96875 5.46875 
Q 43.75 3.515625 45.3125 1.5625 
z
M 34.375 16.015625 
L 34.375 23.828125 
Q 32.03125 23.046875 29.875 22.453125 
Q 27.734375 21.875 22.65625 21.09375 
Q 16.796875 20.3125 15.03125 18.359375 
Q 13.28125 16.40625 13.28125 13.671875 
Q 13.28125 11.328125 15.03125 9.5625 
Q 16.796875 7.8125 20.3125 7.8125 
Q 23.828125 7.8125 27.921875 9.765625 
Q 32.03125 11.71875 34.375 16.015625 
z
" id="SimHei-97"/>
       <path d="M 43.359375 2.734375 
Q 41.40625 1.953125 38.859375 1.359375 
Q 36.328125 0.78125 32.03125 0.78125 
Q 25 0.78125 20.703125 4.6875 
Q 16.40625 8.59375 16.40625 15.625 
L 16.40625 39.0625 
L 3.125 39.0625 
L 3.125 45.3125 
L 16.40625 45.3125 
L 16.40625 60.546875 
L 24.21875 60.546875 
L 24.21875 45.3125 
L 40.234375 45.3125 
L 40.234375 39.0625 
L 24.21875 39.0625 
L 24.21875 15.234375 
Q 24.21875 12.109375 25.78125 9.953125 
Q 27.34375 7.8125 31.640625 7.8125 
Q 35.9375 7.8125 38.671875 8.59375 
Q 41.40625 9.375 43.359375 10.546875 
z
" id="SimHei-116"/>
      </defs>
      <use xlink:href="#SimHei-114"/>
      <use x="50" xlink:href="#SimHei-97"/>
      <use x="100" xlink:href="#SimHei-116"/>
      <use x="150" xlink:href="#SimHei-101"/>
     </g>
    </g>
   </g>
   <g id="line2d_13">
    <path clip-path="url(#pae7ace3271)" d="M 92.290909 346.507885 
L 93.103358 150.378399 
L 93.509582 149.321567 
L 93.915807 142.600192 
L 94.322031 141.544886 
L 94.728256 135.028412 
L 95.13448 132.877413 
L 95.540704 136.577556 
L 95.946929 143.787634 
L 96.353153 363.189375 
L 96.759378 353.120499 
L 97.165602 353.120499 
L 97.571826 349.149375 
L 97.978051 349.149375 
L 98.384275 353.120499 
L 98.7905 353.120499 
L 99.196724 362.829375 
L 99.602948 340.990576 
L 100.009173 354.818305 
L 100.415397 364.029375 
L 100.821622 293.596878 
L 101.227846 353.725364 
L 101.63407 334.038456 
L 102.040295 270.650623 
L 102.446519 267.730128 
L 102.852744 360.137344 
L 103.665192 254.222811 
L 104.071417 302.874241 
L 104.477641 320.274287 
L 104.883866 351.466634 
L 105.29009 336.311517 
L 105.696314 351.480361 
L 106.102539 354.754124 
L 106.508763 327.261093 
L 106.914988 351.279151 
L 107.321212 353.513808 
L 107.727437 347.064961 
L 108.539885 355.684017 
L 108.94611 333.912655 
L 109.352334 332.623078 
L 109.758559 355.102957 
L 110.164783 329.705156 
L 110.571007 325.535784 
L 110.977232 360.993798 
L 111.383456 283.445722 
L 111.789681 369.643406 
L 112.195905 289.857411 
L 112.602129 363.989498 
L 113.008354 324.527423 
L 113.414578 353.189621 
L 113.820803 349.78746 
L 114.227027 355.61691 
L 114.633251 325.462424 
L 115.039476 308.017796 
L 115.4457 376.614052 
L 116.258149 307.561125 
L 116.664373 361.352065 
L 117.070598 365.21184 
L 117.476822 294.84088 
L 117.883047 348.139491 
L 118.289271 370.644934 
L 118.695495 331.002322 
L 119.507944 371.805468 
L 119.914169 324.297465 
L 120.320393 370.712812 
L 120.726618 350.024361 
L 121.132842 361.249736 
L 121.539066 352.923749 
L 121.945291 356.493986 
L 122.351515 335.126496 
L 122.75774 339.285303 
L 123.163964 337.189093 
L 123.570188 349.55019 
L 123.976413 335.18269 
L 124.382637 350.614456 
L 124.788862 349.074207 
L 125.195086 345.693044 
L 125.60131 353.164462 
L 126.007535 354.558678 
L 126.413759 352.730986 
L 126.819984 336.401036 
L 127.226208 366.800795 
L 127.632432 313.135649 
L 128.038657 229.923531 
L 128.444881 369.803083 
L 128.851106 349.368599 
L 129.25733 358.487827 
L 129.663554 330.745983 
L 130.069779 370.210556 
L 130.476003 197.108751 
L 130.882228 270.564783 
L 131.288452 370.406111 
L 131.694676 197.108751 
L 132.100901 280.125752 
L 132.507125 287.217883 
L 132.91335 360.680499 
L 133.319574 311.398875 
L 133.725799 346.871707 
L 134.132023 368.776666 
L 134.538247 338.895312 
L 134.944472 320.843624 
L 135.756921 368.838884 
L 136.163145 256.612818 
L 136.569369 356.380215 
L 136.975594 349.149375 
L 137.381818 353.120499 
L 137.788043 353.120499 
L 138.194267 349.149375 
L 138.600491 353.120499 
L 139.41294 366.814687 
L 139.819165 348.969375 
L 140.225389 352.764141 
L 140.631613 352.944141 
L 141.037838 373.96125 
L 141.444062 341.085982 
L 141.850287 369.010327 
L 142.256511 320.748749 
L 142.662735 366.521284 
L 143.06896 356.631831 
L 143.475184 367.024141 
L 143.881409 346.648323 
L 144.287633 364.643729 
L 144.693857 358.056099 
L 145.100082 361.602234 
L 145.506306 331.566562 
L 145.912531 347.891655 
L 146.318755 355.129539 
L 146.72498 328.961607 
L 147.131204 353.239356 
L 147.537428 327.209228 
L 147.943653 355.574204 
L 148.349877 316.869272 
L 148.756102 357.927691 
L 149.162326 337.048337 
L 149.56855 345.157097 
L 149.974775 358.65118 
L 150.380999 354.661715 
L 150.787224 330.789825 
L 151.599672 360.688131 
L 152.005897 344.344286 
L 152.412121 342.557084 
L 152.818346 361.733525 
L 153.22457 353.583162 
L 153.630794 361.430089 
L 154.037019 347.450079 
L 154.443243 338.861824 
L 154.849468 370.478925 
L 155.255692 334.160895 
L 155.661916 347.134592 
L 156.068141 372.606725 
L 156.474365 327.660639 
L 156.88059 344.276957 
L 157.286814 355.760498 
L 157.693038 344.933891 
L 158.099263 367.056313 
L 158.505487 325.829376 
L 158.911712 367.618947 
L 159.317936 325.829376 
L 159.724161 367.880175 
L 160.130385 324.885839 
L 160.536609 367.654651 
L 160.942834 321.691432 
L 161.349058 368.219061 
L 161.755283 337.52543 
L 162.567731 354.954029 
L 162.973956 320.634148 
L 163.38018 367.905234 
L 164.192629 315.116965 
L 164.598853 368.740167 
L 165.005078 340.489543 
L 165.411302 330.432385 
L 165.817527 362.679726 
L 166.629975 339.133558 
L 167.0362 341.856897 
L 167.442424 364.288275 
L 167.848649 339.69719 
L 168.254873 338.00862 
L 168.661097 353.988317 
L 169.067322 356.771365 
L 169.879771 343.51875 
L 170.285995 355.924687 
L 170.692219 355.370625 
L 171.098444 342.538027 
L 171.504668 354.604687 
L 171.910893 355.211642 
L 172.317117 343.56015 
L 172.723342 359.837709 
L 173.129566 346.272976 
L 173.53579 361.604102 
L 173.942015 349.28802 
L 174.348239 353.281367 
L 174.754464 360.177188 
L 175.160688 348.313655 
L 175.566912 354.945 
L 175.973137 368.473207 
L 176.379361 340.951623 
L 176.785586 355.780569 
L 177.19181 349.368 
L 177.598034 369.5904 
L 178.004259 353.943621 
L 178.410483 355.283589 
L 178.816708 384.48 
L 179.222932 345.313126 
L 179.629156 352.523817 
L 180.035381 349.227602 
L 180.441605 342.612829 
L 180.84783 338.565936 
L 181.254054 358.155263 
L 182.066503 349.149375 
L 182.472727 353.120499 
L 182.878952 353.120499 
L 183.285176 349.149375 
L 183.6914 353.120499 
L 184.097625 353.120499 
L 184.503849 349.149375 
L 184.910074 282.88125 
L 185.316298 353.120499 
L 185.722523 349.630702 
L 186.128747 381.88125 
L 186.534971 381.63375 
L 186.941196 351.320044 
L 187.34742 351.843814 
L 187.753645 350.307596 
L 188.159869 378.973125 
L 188.566093 367.605804 
L 188.972318 350.155581 
L 189.378542 353.145277 
L 189.784767 363.009375 
L 190.190991 354.509419 
L 190.597215 332.144712 
L 191.00344 351.106125 
L 191.409664 348.690816 
L 191.815889 327.390793 
L 192.222113 355.129846 
L 192.628337 350.343903 
L 193.034562 333.309374 
L 193.440786 356.32125 
L 193.847011 338.091429 
L 194.253235 351.950624 
L 194.659459 370.861875 
L 195.065684 343.52873 
L 195.471908 355.440554 
L 195.878133 357.765468 
L 196.284357 354.780839 
L 196.690581 328.446787 
L 197.096806 354.499061 
L 197.50303 349.324393 
L 197.909255 258.080496 
L 198.315479 349.149375 
L 198.721704 258.080496 
L 199.127928 349.149375 
L 199.534152 353.120499 
L 199.940377 349.149375 
L 200.346601 353.120499 
L 200.752826 249.029075 
L 201.15905 357.069375 
L 201.565274 352.594768 
L 201.971499 353.425225 
L 202.377723 366.670312 
L 202.783948 347.866543 
L 203.190172 365.296361 
L 203.596396 297.578624 
L 204.408845 376.316625 
L 204.81507 326.612664 
L 205.221294 348.149156 
L 205.627518 377.910272 
L 206.033743 348.398896 
L 206.439967 288.335088 
L 206.846192 348.838232 
L 207.252416 364.131699 
L 207.65864 311.317361 
L 208.064865 342.840164 
L 208.471089 360.413116 
L 208.877314 315.765274 
L 209.283538 372.0555 
L 209.689762 333.088318 
L 210.095987 360.07375 
L 210.502211 349.823448 
L 210.908436 347.079019 
L 211.31466 372.024135 
L 211.720885 348.946309 
L 212.533333 364.922239 
L 212.939558 346.712981 
L 213.752007 374.280937 
L 214.158231 354.243259 
L 214.564455 352.102108 
L 214.97068 365.56104 
L 215.376904 372.703125 
L 215.783129 343.18793 
L 216.595577 362.488549 
L 217.001802 344.6985 
L 217.814251 357.133166 
L 218.220475 338.316375 
L 218.626699 358.125375 
L 219.032924 352.261703 
L 219.439148 287.08875 
L 219.845373 345.664375 
L 220.251597 341.340578 
L 220.657821 350.071435 
L 221.064046 341.543494 
L 221.47027 349.612439 
L 221.876495 342.554927 
L 222.282719 351.445787 
L 222.688943 366.814687 
L 223.095168 358.714688 
L 223.501392 363.728405 
L 223.907617 300.657938 
L 224.720066 370.8213 
L 225.12629 277.097564 
L 225.532514 306.331873 
L 225.938739 374.838194 
L 226.344963 253.130495 
L 226.751188 236.35125 
L 227.157412 349.149375 
L 227.563636 353.120499 
L 227.969861 353.120499 
L 228.376085 349.149375 
L 228.78231 349.149375 
L 229.188534 353.120499 
L 230.000983 353.120499 
L 230.407207 368.315776 
L 230.813432 331.728125 
L 231.219656 355.232498 
L 231.62588 323.072619 
L 232.032105 342.954006 
L 232.438329 352.908129 
L 232.844554 355.311795 
L 233.250778 349.124625 
L 233.657002 349.362692 
L 234.063227 353.581128 
L 234.469451 342.054584 
L 234.875676 378.245561 
L 235.2819 350.62885 
L 235.688124 347.123858 
L 236.094349 376.551379 
L 236.500573 341.948824 
L 236.906798 354.267415 
L 237.313022 338.830222 
L 238.125471 359.58375 
L 238.531695 344.222955 
L 238.93792 359.791875 
L 239.344144 357.754087 
L 239.750369 347.40014 
L 240.156593 357.37399 
L 240.562817 351.556054 
L 240.969042 372.97125 
L 241.375266 345.795085 
L 241.781491 345.559039 
L 242.187715 347.09248 
L 242.593939 350.359355 
L 243.000164 356.521085 
L 243.406388 354.769239 
L 243.812613 352.494672 
L 244.218837 351.703886 
L 244.625061 354.769239 
L 245.031286 355.447174 
L 245.43751 351.876734 
L 245.843735 361.339278 
L 246.249959 341.268614 
L 246.656183 346.03117 
L 247.062408 353.562285 
L 247.468632 336.037587 
L 247.874857 356.223625 
L 248.281081 338.431909 
L 248.687305 357.656727 
L 249.09353 337.46337 
L 249.499754 357.254562 
L 249.905979 337.532888 
L 250.312203 356.848986 
L 250.718428 350.869166 
L 251.124652 348.77845 
L 251.530876 355.598347 
L 251.937101 352.251063 
L 252.343325 347.931395 
L 252.74955 359.861368 
L 253.155774 350.972419 
L 253.561998 349.23687 
L 253.968223 359.429219 
L 254.374447 351.674858 
L 254.780672 305.600498 
L 255.186896 370.994595 
L 255.59312 369.847265 
L 255.999345 349.149375 
L 256.405569 353.120499 
L 256.811794 349.149375 
L 257.218018 342.060819 
L 257.624242 339.259144 
L 258.030467 345.649848 
L 258.436691 338.856384 
L 258.842916 363.184447 
L 259.24914 362.428674 
L 259.655364 313.411405 
L 260.061589 288.175879 
L 260.467813 301.806274 
L 260.874038 296.387982 
L 261.280262 320.459999 
L 261.686486 325.035555 
L 262.092711 266.143155 
L 262.498935 345.105942 
L 262.90516 364.374377 
L 263.311384 369.691874 
L 263.717609 335.216508 
L 264.123833 357.833964 
L 264.530057 367.858125 
L 264.936282 339.386213 
L 265.342506 370.930449 
L 265.748731 322.434261 
L 266.154955 365.239678 
L 266.561179 358.560194 
L 266.967404 358.183126 
L 267.373628 356.510381 
L 267.779853 350.068218 
L 268.186077 339.406599 
L 268.592301 373.78894 
L 268.998526 320.95482 
L 269.40475 294.58894 
L 269.810975 337.65864 
L 270.217199 341.706302 
L 270.623423 309.905759 
L 271.029648 355.656514 
L 271.435872 363.71353 
L 271.842097 333.778493 
L 272.248321 317.139374 
L 272.654545 343.599097 
L 273.06077 361.293735 
L 273.466994 311.35406 
L 273.873219 355.267125 
L 274.279443 327.644669 
L 274.685667 366.267079 
L 275.498116 318.344918 
L 275.904341 363.864053 
L 276.310565 345.566251 
L 276.71679 321.756038 
L 277.123014 360.471417 
L 277.935463 328.240439 
L 278.341687 359.967794 
L 278.747912 347.560874 
L 279.154136 368.974648 
L 279.56036 346.287803 
L 279.966585 309.818713 
L 280.372809 305.600498 
L 280.779034 282.88125 
L 281.185258 368.960499 
L 281.591482 350.05972 
L 281.997707 339.278561 
L 282.403931 355.490486 
L 282.810156 345.87446 
L 283.21638 358.221977 
L 283.622604 276.229687 
L 284.028829 285.117485 
L 284.435053 316.655717 
L 284.841278 265.758751 
L 285.247502 279.381961 
L 285.653726 146.940159 
L 286.059951 366.582665 
L 286.466175 255.687192 
L 286.8724 204.478753 
L 287.278624 357.895695 
L 287.684848 366.368618 
L 288.091073 226.146038 
L 288.497297 345.511901 
L 288.903522 348.131497 
L 289.309746 267.293662 
L 289.715971 350.340061 
L 290.122195 287.171247 
L 290.528419 368.280796 
L 290.934644 179.49144 
L 291.340868 361.094153 
L 291.747093 281.804621 
L 292.559541 377.586365 
L 292.965766 308.452813 
L 293.37199 375.823199 
L 293.778215 328.269762 
L 294.184439 379.636875 
L 294.590663 351.198549 
L 294.996888 367.340625 
L 295.403112 344.427373 
L 295.809337 357.389373 
L 296.215561 313.942499 
L 296.621785 350.312183 
L 297.02801 367.670624 
L 297.434234 346.393727 
L 297.840459 365.126134 
L 298.246683 355.458749 
L 298.652907 365.656879 
L 299.059132 365.797768 
L 299.465356 356.265825 
L 299.871581 360.170624 
L 300.277805 336.04727 
L 300.684029 357.858911 
L 301.090254 336.790875 
L 301.496478 338.659841 
L 301.902703 359.869749 
L 302.308927 328.575938 
L 302.715152 339.17397 
L 303.121376 370.203145 
L 303.5276 267.309371 
L 303.933825 335.709087 
L 304.340049 370.294394 
L 304.746274 261.781872 
L 305.558722 376.128991 
L 305.964947 323.204548 
L 306.371171 361.950745 
L 306.777396 263.838372 
L 307.18362 355.532113 
L 307.589844 361.724727 
L 307.996069 279.447187 
L 308.808518 355.445037 
L 309.214742 370.83756 
L 310.027191 314.183123 
L 310.83964 373.409709 
L 311.245864 351.450485 
L 311.652088 349.405715 
L 312.058313 357.879015 
L 312.464537 294.69185 
L 312.870762 264.855739 
L 313.276986 338.255326 
L 313.68321 377.288892 
L 314.495659 277.775217 
L 315.308108 377.277621 
L 316.120557 279.129087 
L 316.526781 363.3975 
L 316.933006 356.074011 
L 317.33923 306.366974 
L 317.745455 365.325975 
L 318.151679 354.46063 
L 318.557903 333.151564 
L 318.964128 369.287853 
L 319.370352 299.768444 
L 319.776577 365.927999 
L 320.182801 355.273352 
L 320.589025 287.205624 
L 320.99525 365.142076 
L 321.401474 346.189102 
L 321.807699 364.167692 
L 322.213923 361.111257 
L 322.620147 346.917811 
L 323.026372 374.693041 
L 323.838821 347.192259 
L 324.245045 341.074407 
L 324.651269 343.123889 
L 325.057494 333.564751 
L 325.463718 345.1627 
L 325.869943 333.148502 
L 326.682391 250.267818 
L 327.088616 291.000545 
L 327.49484 245.13529 
L 327.901065 329.0895 
L 328.307289 361.632084 
L 329.119738 294.222771 
L 329.525962 362.560781 
L 329.932187 293.669602 
L 330.338411 324.812502 
L 330.744636 332.578124 
L 331.15086 354.744375 
L 331.557084 346.529999 
L 331.963309 364.361506 
L 332.369533 351.690488 
L 332.775758 326.594117 
L 333.181982 361.061567 
L 333.588206 329.04 
L 333.994431 375.559344 
L 334.400655 344.457187 
L 335.213104 350.610712 
L 335.619328 351.927608 
L 336.025553 347.878264 
L 336.431777 352.41423 
L 336.838002 373.59 
L 337.244226 348.290579 
L 337.65045 353.184142 
L 338.056675 320.897249 
L 338.462899 342.387321 
L 338.869124 354.342762 
L 339.275348 332.288438 
L 339.681572 345.21974 
L 340.087797 364.468021 
L 340.494021 350.247064 
L 340.900246 228.511143 
L 341.30647 378.976298 
L 342.118919 319.42053 
L 342.525143 332.454374 
L 342.931368 376.264259 
L 343.743817 303.305487 
L 344.150041 357.069375 
L 344.556265 369.968306 
L 344.96249 352.940499 
L 345.368714 327.139349 
L 346.181163 379.8972 
L 346.587387 351.089729 
L 346.993612 252.106871 
L 347.399836 380.003878 
L 347.806061 355.360414 
L 348.212285 304.764658 
L 348.618509 340.567656 
L 349.024734 358.522024 
L 349.430958 333.783076 
L 349.837183 359.091577 
L 350.243407 353.715595 
L 350.649631 332.532718 
L 351.055856 361.863251 
L 351.46208 349.899498 
L 351.868305 329.509871 
L 352.274529 357.152498 
L 352.680753 369.929062 
L 353.086978 322.915944 
L 353.493202 354.301743 
L 353.899427 364.222125 
L 354.305651 306.27 
L 354.711876 355.832828 
L 355.1181 272.589371 
L 355.524324 306.27 
L 355.930549 363.183976 
L 356.336773 338.198734 
L 356.742998 330.710624 
L 357.149222 370.187317 
L 357.555446 351.190513 
L 357.961671 346.520625 
L 358.367895 364.069252 
L 358.77412 345.933003 
L 359.180344 368.125381 
L 359.586568 344.162445 
L 359.992793 326.84909 
L 360.399017 342.305646 
L 360.805242 325.628035 
L 361.211466 339.938945 
L 361.61769 346.516997 
L 362.023915 343.5435 
L 362.430139 375.97425 
L 362.836364 354.543251 
L 363.242588 353.181223 
L 363.648812 332.351019 
L 364.055037 367.555641 
L 364.461261 352.896375 
L 364.867486 277.745621 
L 365.27371 357.069375 
L 365.679934 352.940499 
L 366.086159 368.270296 
L 366.492383 366.522922 
L 366.898608 349.692439 
L 367.304832 272.225621 
L 367.711057 357.085909 
L 368.117281 342.564786 
L 368.523505 357.069375 
L 368.92973 353.120499 
L 369.335954 353.120499 
L 369.742179 349.149375 
L 370.148403 357.069375 
L 370.554627 353.120499 
L 370.960852 242.078904 
L 371.367076 380.033289 
L 371.773301 347.133914 
L 372.179525 352.346698 
L 372.585749 366.370661 
L 372.991974 297.359995 
L 373.398198 359.067898 
L 373.804423 381.638994 
L 374.210647 334.123085 
L 374.616871 379.90125 
L 375.023096 311.75563 
L 375.42932 379.715625 
L 375.835545 245.753338 
L 376.241769 377.678994 
L 376.647993 348.744705 
L 377.054218 340.484971 
L 377.460442 380.538495 
L 377.866667 359.42836 
L 378.272891 345.132562 
L 378.679115 373.040859 
L 379.08534 344.336587 
L 379.491564 338.776865 
L 379.897789 363.654072 
L 380.304013 345.433844 
L 380.710238 368.64 
L 381.116462 309.301873 
L 381.522686 354.470499 
L 381.928911 355.738125 
L 382.335135 250.469061 
L 382.74136 295.417126 
L 383.147584 357.289961 
L 383.553808 370.774264 
L 383.960033 338.153956 
L 384.366257 360.375261 
L 384.772482 351.437499 
L 385.178706 338.094375 
L 385.58493 364.989375 
L 386.397379 342.146671 
L 386.803604 373.731428 
L 387.209828 354.492625 
L 387.616052 344.718034 
L 388.022277 364.106552 
L 388.428501 350.914685 
L 388.834726 324.44357 
L 389.24095 349.759296 
L 389.647174 358.824271 
L 390.053399 314.45775 
L 390.459623 337.45839 
L 390.865848 366.766286 
L 391.272072 323.276785 
L 391.678296 353.254163 
L 392.084521 373.457284 
L 392.490745 324.634528 
L 392.89697 351.789375 
L 393.303194 354.183748 
L 393.709419 370.094062 
L 394.521867 352.418881 
L 394.928092 352.372613 
L 395.334316 358.306874 
L 395.740541 358.306874 
L 396.146765 263.300625 
L 396.552989 352.9575 
L 396.959214 334.783196 
L 397.365438 363.090423 
L 397.771663 345.516874 
L 398.177887 359.242875 
L 398.584111 354.567937 
L 398.990336 342.730714 
L 399.39656 350.533215 
L 399.802785 346.745088 
L 400.209009 352.352462 
L 400.615233 346.415625 
L 401.021458 356.793144 
L 401.427682 352.729453 
L 401.833907 343.568053 
L 402.240131 330.865313 
L 402.646355 364.580776 
L 403.05258 344.162016 
L 403.458804 314.732142 
L 403.865029 353.783487 
L 404.271253 352.139452 
L 404.677477 347.398312 
L 405.083702 352.72816 
L 405.489926 352.395238 
L 405.896151 349.43549 
L 406.302375 352.906563 
L 406.7086 359.170173 
L 407.114824 346.585743 
L 407.521048 361.224339 
L 407.927273 356.237097 
L 408.333497 346.540879 
L 408.739722 345.355215 
L 409.145946 368.399067 
L 409.55217 340.538437 
L 409.958395 336.930486 
L 410.364619 366.155084 
L 410.770844 341.142749 
L 411.177068 350.363975 
L 411.583292 350.308035 
L 412.395741 358.582959 
L 412.801966 240.436719 
L 413.20819 327.250557 
L 413.614414 355.223555 
L 414.020639 326.459296 
L 414.426863 355.02862 
L 414.833088 352.15921 
L 415.239312 346.261165 
L 415.645536 360.721819 
L 416.051761 349.049636 
L 416.457985 353.625233 
L 416.86421 360.729879 
L 417.270434 346.339052 
L 417.676658 343.570017 
L 418.082883 341.99309 
L 418.489107 335.146177 
L 418.895332 330.905349 
L 419.301556 330.905349 
L 420.520229 320.570625 
L 420.926454 315.841424 
L 421.332678 349.149375 
L 498.109091 349.149375 
L 498.109091 349.149375 
" style="fill:none;stroke:#0000ff;stroke-linecap:square;stroke-width:1.5;"/>
   </g>
   <g id="line2d_14">
    <path clip-path="url(#pae7ace3271)" d="M 92.290909 226.026859 
L 93.103358 172.839429 
L 93.509582 166.210279 
L 93.915807 163.901141 
L 94.322031 168.831424 
L 94.728256 165.752566 
L 95.13448 168.070289 
L 95.946929 153.267435 
L 96.353153 377.545714 
L 96.759378 56.002289 
L 97.165602 56.002289 
L 97.571826 380.317714 
L 97.978051 380.317714 
L 98.384275 56.002289 
L 99.196724 373.849714 
L 99.602948 63.399423 
L 100.009173 223.566862 
L 100.415397 243.929141 
L 100.821622 274.673139 
L 101.227846 72.942858 
L 101.63407 240.564004 
L 102.040295 311.567998 
L 102.446519 137.850859 
L 102.852744 143.868002 
L 103.665192 292.452003 
L 104.071417 204.672005 
L 104.477641 215.449719 
L 104.883866 152.183994 
L 105.29009 314.346856 
L 106.102539 122.127422 
L 106.508763 316.661142 
L 107.321212 122.281705 
L 107.727437 314.038285 
L 108.539885 135.395993 
L 108.94611 306.649716 
L 109.758559 104.237134 
L 110.164783 333.006857 
L 110.571007 207.469718 
L 110.977232 193.26686 
L 111.383456 164.669145 
L 111.789681 270.726857 
L 112.195905 151.733141 
L 112.602129 230.417139 
L 113.008354 250.908003 
L 113.414578 115.799998 
L 113.820803 319.292572 
L 114.227027 153.063436 
L 114.633251 268.777718 
L 115.039476 129.406279 
L 115.4457 328.367998 
L 116.258149 112.878862 
L 116.664373 176.127426 
L 117.070598 338.696571 
L 117.883047 85.150284 
L 118.289271 314.322855 
L 118.695495 261.272576 
L 119.10172 127.806854 
L 119.507944 351.324001 
L 119.914169 120.610288 
L 120.320393 316.016572 
L 120.726618 231.075433 
L 121.132842 192.791996 
L 121.539066 340.107429 
L 121.945291 190.952576 
L 122.351515 243.829712 
L 122.75774 190.950856 
L 123.163964 240.596569 
L 123.570188 224.067424 
L 123.976413 217.030286 
L 124.382637 221.290282 
L 124.788862 216.02743 
L 125.195086 212.900571 
L 125.60131 252.665141 
L 126.007535 201.358288 
L 126.413759 190.270288 
L 126.819984 210.406284 
L 127.226208 251.309146 
L 127.632432 197.345147 
L 128.038657 183.159424 
L 128.444881 256.700573 
L 128.851106 207.929142 
L 129.25733 233.943428 
L 129.663554 217.033711 
L 130.069779 248.535428 
L 130.476003 185.936567 
L 130.882228 212.274864 
L 131.288452 250.383428 
L 131.694676 185.936567 
L 132.100901 209.96057 
L 132.507125 224.045141 
L 132.91335 199.222282 
L 133.319574 204.435431 
L 133.725799 188.828571 
L 134.132023 272.72914 
L 134.538247 228.075432 
L 134.944472 163.59086 
L 135.350696 200.087999 
L 135.756921 277.812001 
L 136.163145 199.429711 
L 136.569369 217.918285 
L 136.975594 380.317714 
L 137.381818 56.002289 
L 138.194267 380.317714 
L 138.600491 56.002289 
L 139.41294 380.317714 
L 140.225389 56.002289 
L 141.037838 377.386286 
L 141.444062 134.072577 
L 141.850287 282.509147 
L 142.256511 199.304569 
L 142.662735 216.778284 
L 143.06896 219.541714 
L 143.475184 218.626284 
L 143.881409 219.541714 
L 144.287633 219.550284 
L 144.693857 216.769717 
L 145.100082 245.507996 
L 145.506306 168.589719 
L 145.912531 287.687998 
L 146.318755 184.302851 
L 146.72498 184.172573 
L 147.537428 290.921139 
L 147.943653 136.158852 
L 148.756102 268.580572 
L 149.162326 242.060571 
L 149.56855 166.374862 
L 149.974775 192.893138 
L 150.380999 252.527999 
L 150.787224 226.481142 
L 151.193448 178.714285 
L 151.599672 216.281145 
L 152.005897 264.870857 
L 152.412121 177.944576 
L 152.818346 230.756568 
L 153.22457 222.536568 
L 153.630794 326.531998 
L 154.037019 96.851995 
L 154.849468 319.136571 
L 155.255692 105.174857 
L 156.068141 318.672 
L 156.474365 107.022862 
L 156.88059 224.867997 
L 157.286814 206.614283 
L 158.099263 266.641712 
L 158.505487 166.707429 
L 158.911712 268.376573 
L 159.317936 166.707429 
L 159.724161 275.010858 
L 160.130385 162.695993 
L 160.536609 275.782288 
L 160.942834 133.227427 
L 161.349058 287.53543 
L 161.755283 181.225708 
L 162.161507 200.550858 
L 162.567731 232.683429 
L 162.973956 134.929714 
L 163.38018 273.339427 
L 164.192629 131.84229 
L 164.598853 301.70057 
L 165.005078 208.818859 
L 165.411302 197.667433 
L 165.817527 266.555999 
L 166.223751 204.010283 
L 166.629975 176.393141 
L 167.442424 259.618283 
L 167.848649 203.254289 
L 168.254873 176.701707 
L 168.661097 225.865715 
L 169.067322 224.628002 
L 169.473546 117.335997 
L 169.879771 275.000573 
L 170.285995 321.911999 
L 170.692219 140.043425 
L 171.098444 159.068574 
L 171.504668 323.759999 
L 171.910893 158.867996 
L 172.317117 202.993714 
L 172.723342 266.905715 
L 173.129566 157.068002 
L 173.53579 307.690283 
L 173.942015 160.818862 
L 174.348239 208.839429 
L 174.754464 307.227429 
L 175.160688 143.725715 
L 175.566912 205.57714 
L 175.973137 337.004571 
L 176.379361 117.983999 
L 177.19181 345.327428 
L 177.598034 297.624 
L 178.004259 66.342854 
L 178.410483 121.140003 
L 178.816708 384.48 
L 179.222932 321.181713 
L 179.629156 53.688005 
L 180.035381 143.016001 
L 180.441605 304.366287 
L 181.254054 180.087426 
L 181.660278 218.626284 
L 182.066503 380.317714 
L 182.472727 56.002289 
L 183.285176 380.317714 
L 183.6914 56.002289 
L 184.503849 380.317714 
L 185.316298 56.002289 
L 185.722523 84.488571 
L 186.128747 384.171429 
L 186.534971 383.247429 
L 187.34742 54.152579 
L 187.753645 74.480572 
L 188.159869 381.243429 
L 188.566093 370.925142 
L 189.378542 82.047425 
L 189.784767 381.241714 
L 190.190991 129.445715 
L 190.597215 181.703997 
L 191.00344 282.335999 
L 191.409664 152.118853 
L 191.815889 265.172568 
L 192.222113 175.770865 
L 192.628337 210.413144 
L 193.034562 282.270855 
L 193.440786 170.835427 
L 193.847011 346.596 
L 194.253235 67.419434 
L 194.659459 259.971429 
L 195.065684 304.549714 
L 195.471908 112.824001 
L 195.878133 323.957144 
L 196.284357 151.704005 
L 196.690581 261.778284 
L 197.096806 160.188001 
L 197.50303 265.520574 
L 197.909255 207.538283 
L 198.315479 217.693719 
L 198.721704 207.538283 
L 199.127928 217.693719 
L 199.534152 218.626284 
L 199.940377 380.317714 
L 200.346601 56.002289 
L 200.752826 122.530285 
L 201.15905 380.317714 
L 201.565274 56.156571 
L 202.377723 372.313714 
L 202.783948 94.98685 
L 203.190172 270.231428 
L 203.596396 194.732568 
L 204.002621 153.109712 
L 204.408845 332.953714 
L 204.81507 121.691994 
L 205.221294 217.115997 
L 205.627518 354.725142 
L 206.033743 103.657713 
L 206.439967 188.537141 
L 206.846192 315.53657 
L 207.65864 120.077143 
L 208.064865 319.697141 
L 208.471089 172.630285 
L 208.877314 147.805712 
L 209.283538 322.865141 
L 209.689762 81.111428 
L 210.095987 316.940574 
L 210.502211 196.462285 
L 210.908436 159.985717 
L 211.31466 352.553142 
L 211.720885 131.089711 
L 212.127109 212.797713 
L 212.533333 327.334286 
L 212.939558 71.106859 
L 213.752007 361.517143 
L 214.158231 231.553716 
L 214.564455 56.773723 
L 215.376904 379.546286 
L 215.783129 181.282291 
L 216.189353 59.237145 
L 216.595577 335.298858 
L 217.001802 280.606289 
L 217.408026 115.642285 
L 217.814251 256.642289 
L 218.220475 139.620002 
L 218.626699 370.153714 
L 219.032924 58.774286 
L 219.439148 361.667999 
L 219.845373 152.473715 
L 220.251597 233.240575 
L 220.657821 198.759434 
L 221.064046 223.700575 
L 221.47027 219.406289 
L 221.876495 217.837714 
L 222.282719 79.560003 
L 222.688943 380.317714 
L 223.095168 217.693719 
L 223.501392 188.602284 
L 223.907617 187.17771 
L 224.313841 218.593713 
L 224.720066 268.546281 
L 225.12629 144.322286 
L 225.532514 188.674288 
L 225.938739 292.616571 
L 226.344963 112.366288 
L 226.751188 349.302858 
L 227.563636 56.002289 
L 228.376085 380.317714 
L 228.78231 380.317714 
L 229.188534 56.002289 
L 229.594758 56.002289 
L 230.000983 218.626284 
L 230.407207 336.497144 
L 230.813432 305.41714 
L 231.219656 100.354286 
L 231.62588 259.727997 
L 232.032105 179.694854 
L 232.438329 202.734849 
L 232.844554 247.069711 
L 233.250778 126.157713 
L 233.657002 259.278856 
L 234.063227 216.106284 
L 234.469451 74.958856 
L 234.875676 363.209142 
L 235.2819 275.276568 
L 235.688124 70.184571 
L 236.094349 367.990286 
L 236.500573 112.880567 
L 236.906798 275.957141 
L 237.313022 148.51714 
L 237.719247 282.358283 
L 238.531695 144.548575 
L 238.93792 358.097142 
L 239.344144 160.457141 
L 239.750369 195.526283 
L 240.156593 359.065713 
L 240.562817 56.002289 
L 240.969042 367.539428 
L 241.375266 122.574855 
L 241.781491 284.91257 
L 242.187715 163.152001 
L 242.593939 128.741147 
L 243.000164 316.818858 
L 243.406388 305.864571 
L 243.812613 130.455429 
L 244.218837 135.999434 
L 244.625061 305.864571 
L 245.031286 305.864571 
L 245.43751 131.226854 
L 245.843735 246.879428 
L 246.249959 175.920003 
L 246.656183 206.936573 
L 247.062408 220.145138 
L 247.468632 189.653137 
L 247.874857 239.429147 
L 248.281081 180.876001 
L 248.687305 243.586285 
L 249.09353 179.336572 
L 249.499754 242.506285 
L 249.905979 179.49257 
L 250.312203 242.506285 
L 250.718428 209.117149 
L 251.124652 159.903425 
L 251.530876 277.494855 
L 252.343325 163.287429 
L 252.74955 278.576571 
L 253.155774 209.891999 
L 253.561998 162.672002 
L 253.968223 278.268 
L 254.374447 209.891999 
L 254.780672 190.906283 
L 255.186896 268.056002 
L 255.59312 231.582853 
L 255.999345 217.693719 
L 256.405569 218.626284 
L 256.811794 215.845714 
L 257.218018 227.501141 
L 257.624242 198.348001 
L 258.030467 226.884 
L 258.436691 198.348001 
L 258.842916 219.089142 
L 259.24914 217.230862 
L 259.655364 284.586859 
L 260.061589 144.099432 
L 260.467813 226.093712 
L 260.874038 185.902291 
L 261.280262 232.282289 
L 261.686486 209.129142 
L 262.092711 249.061711 
L 262.498935 76.352568 
L 263.311384 370.150286 
L 263.717609 134.98972 
L 264.123833 147.034287 
L 264.530057 363.065143 
L 264.936282 132.521143 
L 265.342506 297.174856 
L 265.748731 161.170284 
L 266.154955 219.106287 
L 266.561179 229.085144 
L 266.967404 197.837141 
L 267.373628 237.713142 
L 267.779853 201.690859 
L 268.186077 230.137715 
L 268.592301 284.194287 
L 268.998526 172.688567 
L 269.40475 237.994284 
L 269.810975 190.892575 
L 270.217199 226.182856 
L 270.623423 196.282277 
L 271.029648 240.533142 
L 271.435872 211.083431 
L 271.842097 209.055433 
L 272.248321 238.038855 
L 272.654545 229.421148 
L 273.06077 194.886851 
L 273.466994 209.473716 
L 273.873219 212.039995 
L 274.279443 192.683999 
L 274.685667 245.982853 
L 275.091892 210.299997 
L 275.498116 208.89429 
L 275.904341 226.520568 
L 276.310565 233.094857 
L 276.71679 247.743429 
L 277.123014 192.275996 
L 277.529238 232.777716 
L 277.935463 247.743429 
L 278.341687 191.502857 
L 278.747912 234.786859 
L 279.154136 256.044 
L 279.56036 181.2 
L 279.966585 242.158286 
L 280.372809 205.690283 
L 280.779034 197.794286 
L 281.185258 220.474284 
L 281.591482 230.629713 
L 281.997707 266.09657 
L 282.403931 203.57314 
L 282.810156 229.950855 
L 283.21638 118.741713 
L 283.622604 314.184 
L 284.028829 229.210289 
L 284.435053 207.109714 
L 284.841278 149.931432 
L 285.247502 259.592572 
L 285.653726 212.958852 
L 286.059951 206.441139 
L 286.466175 248.196002 
L 286.8724 218.307433 
L 287.278624 237.431999 
L 288.091073 203.346855 
L 288.497297 218.93143 
L 288.903522 211.074861 
L 289.309746 211.683428 
L 290.122195 232.498286 
L 290.528419 234.207428 
L 290.934644 202.724569 
L 291.340868 144.239999 
L 291.747093 325.189713 
L 292.153317 158.612576 
L 292.559541 333.258855 
L 292.965766 101.480572 
L 293.37199 328.949143 
L 293.778215 80.99658 
L 294.184439 378.154286 
L 294.590663 55.541145 
L 294.996888 381.552 
L 295.403112 137.929715 
L 295.809337 187.299432 
L 296.215561 309.61543 
L 296.621785 125.962279 
L 297.02801 300.24343 
L 297.434234 135.565721 
L 297.840459 276.805712 
L 298.246683 206.425716 
L 298.652907 228.346287 
L 299.059132 227.706854 
L 299.465356 152.256001 
L 299.871581 343.354285 
L 300.277805 154.122861 
L 300.684029 164.497712 
L 301.090254 291.54343 
L 301.496478 190.158856 
L 301.902703 189.029145 
L 302.308927 252.83657 
L 302.715152 192.618858 
L 303.121376 271.421147 
L 303.5276 279.601713 
L 303.933825 68.345152 
L 304.340049 251.686283 
L 304.746274 326.262856 
L 305.152498 77.756579 
L 305.558722 328.649145 
L 306.371171 174.586282 
L 306.777396 311.629713 
L 307.18362 114.222858 
L 307.589844 190.505143 
L 307.996069 333.779999 
L 308.402293 291.678853 
L 308.808518 163.969712 
L 309.214742 284.132571 
L 309.620966 268.760573 
L 310.027191 141.099435 
L 310.433415 203.595425 
L 310.83964 310.34057 
L 311.245864 233.093139 
L 311.652088 241.260001 
L 312.058313 112.268571 
L 312.464537 263.725713 
L 312.870762 310.652571 
L 313.276986 206.802856 
L 313.68321 327.452571 
L 314.495659 108.867437 
L 315.308108 328.224 
L 315.714333 99.469719 
L 316.120557 244.013148 
L 316.526781 338.545713 
L 316.933006 123.084 
L 317.33923 177.846854 
L 317.745455 347.473713 
L 318.151679 138.353143 
L 318.557903 218.658856 
L 318.964128 260.934854 
L 319.370352 119.178856 
L 319.776577 340.707427 
L 320.182801 114.154286 
L 320.589025 256.04571 
L 320.99525 256.491431 
L 321.401474 88.993716 
L 321.807699 354.250286 
L 322.620147 71.724 
L 323.026372 370.143428 
L 323.432596 221.070856 
L 323.838821 203.466858 
L 324.245045 229.273715 
L 324.651269 204.236572 
L 325.463718 225.984003 
L 325.869943 214.956 
L 326.276167 252.519429 
L 326.682391 203.240573 
L 327.088616 220.890862 
L 327.49484 215.429148 
L 327.901065 237.368568 
L 328.307289 202.306281 
L 328.713514 221.543999 
L 329.119738 225.121716 
L 329.525962 188.581712 
L 329.932187 234.802284 
L 330.338411 228.514281 
L 330.744636 177.468007 
L 331.15086 208.971432 
L 331.557084 309.264 
L 331.963309 230.44971 
L 332.369533 121.669708 
L 332.775758 292.894286 
L 333.588206 148.930283 
L 333.994431 344.713713 
L 334.400655 179.597137 
L 334.80688 269.898857 
L 335.213104 124.462286 
L 335.619328 321.430285 
L 336.025553 220.465716 
L 336.431777 56.156571 
L 336.838002 375.226286 
L 337.65045 100.354286 
L 338.056675 343.78457 
L 338.869124 93.769717 
L 339.275348 342.704573 
L 339.681572 215.038286 
L 340.087797 349.825714 
L 340.494021 56.156571 
L 340.900246 189.214284 
L 341.30647 364.909714 
L 341.712695 198.982283 
L 342.118919 105.480003 
L 342.525143 237.805713 
L 342.931368 327.449143 
L 343.743817 112.261721 
L 344.150041 380.317714 
L 344.556265 285.440575 
L 344.96249 56.002289 
L 345.368714 85.72457 
L 345.774939 380.317714 
L 346.181163 366.303428 
L 346.587387 57.850283 
L 346.993612 170.75143 
L 347.399836 367.227428 
L 347.806061 149.787434 
L 348.212285 206.549141 
L 348.618509 279.051425 
L 349.024734 188.117138 
L 349.430958 202.736574 
L 349.837183 239.89886 
L 350.649631 203.199433 
L 351.055856 238.203428 
L 351.46208 223.880573 
L 351.868305 203.199433 
L 352.274529 144.706283 
L 352.680753 340.203429 
L 353.493202 90.498855 
L 353.899427 380.009143 
L 354.305651 182.979433 
L 354.711876 108.670288 
L 355.1181 349.825714 
L 355.524324 182.979433 
L 355.930549 213.608569 
L 356.336773 122.069141 
L 356.742998 345.017144 
L 357.149222 300.238288 
L 357.555446 55.386862 
L 357.961671 291.293138 
L 358.367895 286.506859 
L 358.77412 127.023434 
L 359.180344 327.342856 
L 359.586568 138.42686 
L 359.992793 238.628571 
L 360.399017 124.462286 
L 360.805242 287.39486 
L 361.211466 182.777137 
L 361.61769 286.294286 
L 362.023915 105.433717 
L 362.430139 365.369142 
L 362.836364 189.072003 
L 363.242588 218.859431 
L 363.648812 132.457707 
L 364.055037 304.786285 
L 364.461261 53.688005 
L 364.867486 295.765715 
L 365.27371 369.229714 
L 365.679934 56.002289 
L 366.492383 360.442286 
L 366.898608 69.862285 
L 367.304832 274.513714 
L 367.711057 196.983425 
L 368.117281 248.423995 
L 368.523505 380.317714 
L 368.92973 56.002289 
L 369.335954 56.002289 
L 369.742179 380.317714 
L 370.148403 380.317714 
L 370.554627 56.002289 
L 370.960852 176.276564 
L 371.367076 376.774286 
L 371.773301 59.547426 
L 372.179525 228.197147 
L 372.585749 209.844 
L 372.991974 313.332002 
L 373.398198 176.897141 
L 373.804423 364.577143 
L 374.210647 72.046286 
L 374.616871 365.974285 
L 375.023096 93.802292 
L 375.42932 342.051429 
L 375.835545 205.505147 
L 376.241769 362.729143 
L 376.647993 141.937711 
L 377.054218 94.201705 
L 377.460442 373.534286 
L 377.866667 213.675433 
L 378.272891 137.63657 
L 378.679115 347.655428 
L 379.08534 177.869144 
L 379.491564 125.809721 
L 379.897789 310.510286 
L 380.304013 192.807431 
L 380.710238 382.632 
L 381.116462 175.885712 
L 381.522686 71.71028 
L 381.928911 155.363999 
L 382.335135 308.948572 
L 382.74136 297.699427 
L 383.147584 116.555997 
L 383.553808 265.679997 
L 383.960033 189.375432 
L 384.366257 234.320575 
L 384.772482 56.926281 
L 385.178706 344.833714 
L 385.58493 382.165714 
L 385.991155 90.562291 
L 386.397379 149.177143 
L 386.803604 366.924 
L 387.209828 151.97143 
L 387.616052 156.903433 
L 388.022277 331.469143 
L 388.428501 169.030278 
L 388.834726 289.218857 
L 389.24095 133.066284 
L 389.647174 180.83486 
L 390.053399 279.663431 
L 390.459623 194.005719 
L 390.865848 250.938854 
L 391.272072 244.825718 
L 391.678296 195.551996 
L 392.084521 322.645716 
L 392.490745 134.619433 
L 392.89697 252.805712 
L 393.303194 83.454857 
L 393.709419 377.696571 
L 394.115643 377.850857 
L 394.521867 61.863424 
L 394.928092 61.39543 
L 395.334316 378.313714 
L 395.740541 378.313714 
L 396.146765 183.44057 
L 396.552989 58.006281 
L 396.959214 280.055997 
L 397.365438 264.622285 
L 397.771663 146.749712 
L 398.177887 310.861714 
L 398.584111 163.289144 
L 398.990336 320.027998 
L 399.39656 86.650287 
L 399.802785 347.177143 
L 400.209009 93.306858 
L 400.615233 347.633143 
L 401.021458 276.279427 
L 401.427682 115.179436 
L 401.833907 178.537717 
L 402.240131 279.181712 
L 402.646355 255.464574 
L 403.05258 140.274855 
L 403.458804 252.514284 
L 403.865029 223.919999 
L 404.271253 132.886285 
L 404.677477 336.239999 
L 405.083702 121.918288 
L 405.489926 310.050857 
L 405.896151 122.727433 
L 406.302375 318.097715 
L 406.7086 196.935429 
L 407.114824 201.490285 
L 407.521048 293.487428 
L 407.927273 184.141708 
L 408.333497 235.976576 
L 408.739722 190.189717 
L 409.145946 280.40743 
L 409.55217 249.514287 
L 409.958395 136.306285 
L 410.364619 287.82857 
L 410.770844 306.466285 
L 411.177068 143.559437 
L 411.583292 135.243435 
L 411.989517 292.760573 
L 412.395741 312.800572 
L 412.801966 191.405145 
L 413.20819 224.112002 
L 413.614414 102.551997 
L 414.020639 298.590856 
L 414.426863 267.69086 
L 414.833088 116.885143 
L 415.239312 240.903424 
L 415.645536 304.026859 
L 416.051761 129.365149 
L 416.457985 279.186857 
L 416.86421 244.393715 
L 417.270434 314.713716 
L 417.676658 220.932002 
L 418.082883 209.535422 
L 418.489107 181.326855 
L 418.895332 170.064002 
L 419.301556 170.064002 
L 420.114005 144.939428 
L 420.926454 150.180002 
L 421.332678 380.317714 
L 498.109091 380.317714 
L 498.109091 380.317714 
" style="fill:none;stroke:#008000;stroke-linecap:square;stroke-width:1.5;"/>
   </g>
   <g id="patch_3">
    <path d="M 72 384.48 
L 72 51.84 
" style="fill:none;stroke:#000000;stroke-linecap:square;stroke-linejoin:miter;stroke-width:0.8;"/>
   </g>
   <g id="patch_4">
    <path d="M 518.4 384.48 
L 518.4 51.84 
" style="fill:none;stroke:#000000;stroke-linecap:square;stroke-linejoin:miter;stroke-width:0.8;"/>
   </g>
   <g id="patch_5">
    <path d="M 72 384.48 
L 518.4 384.48 
" style="fill:none;stroke:#000000;stroke-linecap:square;stroke-linejoin:miter;stroke-width:0.8;"/>
   </g>
   <g id="patch_6">
    <path d="M 72 51.84 
L 518.4 51.84 
" style="fill:none;stroke:#000000;stroke-linecap:square;stroke-linejoin:miter;stroke-width:0.8;"/>
   </g>
   <g id="legend_1">
    <g id="patch_7">
     <path d="M 79 86.418125 
L 156 86.418125 
Q 158 86.418125 158 84.418125 
L 158 58.84 
Q 158 56.84 156 56.84 
L 79 56.84 
Q 77 56.84 77 58.84 
L 77 84.418125 
Q 77 86.418125 79 86.418125 
z
" style="fill:#ffffff;opacity:0.8;stroke:#cccccc;stroke-linejoin:miter;"/>
    </g>
    <g id="line2d_15">
     <path d="M 81 64.34 
L 101 64.34 
" style="fill:none;stroke:#0000ff;stroke-linecap:square;stroke-width:1.5;"/>
    </g>
    <g id="line2d_16"/>
    <g id="text_15">
     <!-- precision -->
     <g transform="translate(109 67.84)scale(0.1 -0.1)">
      <defs>
       <path d="M 28.515625 57.8125 
L 20.703125 57.8125 
L 20.703125 67.96875 
L 28.515625 67.96875 
z
M 28.515625 1.5625 
L 20.703125 1.5625 
L 20.703125 45.3125 
L 28.515625 45.3125 
z
" id="SimHei-105"/>
       <path d="M 43.359375 13.671875 
Q 43.359375 7.421875 38.46875 4.09375 
Q 33.59375 0.78125 26.171875 0.78125 
Q 16.796875 0.78125 11.71875 4.484375 
Q 6.640625 8.203125 6.640625 15.234375 
L 14.453125 15.234375 
Q 14.453125 10.546875 17.765625 8.984375 
Q 21.09375 7.421875 25.78125 7.421875 
Q 30.46875 7.421875 32.8125 9.171875 
Q 35.15625 10.9375 35.15625 13.671875 
Q 35.15625 15.625 33.203125 17.578125 
Q 31.25 19.53125 23.4375 20.703125 
Q 14.453125 21.875 11.125 25.1875 
Q 7.8125 28.515625 7.8125 33.984375 
Q 7.8125 38.671875 12.296875 42.375 
Q 16.796875 46.09375 25.390625 46.09375 
Q 33.203125 46.09375 37.6875 42.578125 
Q 42.1875 39.0625 42.1875 33.203125 
L 34.375 33.203125 
Q 34.375 36.71875 31.828125 38.078125 
Q 29.296875 39.453125 25.390625 39.453125 
Q 20.3125 39.453125 18.15625 37.6875 
Q 16.015625 35.9375 16.015625 33.59375 
Q 16.015625 30.859375 17.96875 29.296875 
Q 19.921875 27.734375 26.171875 26.953125 
Q 36.328125 25.390625 39.84375 22.0625 
Q 43.359375 18.75 43.359375 13.671875 
z
" id="SimHei-115"/>
       <path d="M 44.140625 1.5625 
L 36.328125 1.5625 
L 36.328125 29.6875 
Q 36.328125 34.375 33.984375 37.109375 
Q 31.640625 39.84375 27.734375 39.84375 
Q 22.65625 39.84375 18.15625 34.5625 
Q 13.671875 29.296875 13.671875 21.484375 
L 13.671875 1.5625 
L 5.859375 1.5625 
L 5.859375 45.3125 
L 13.671875 45.3125 
L 13.671875 37.109375 
Q 16.796875 41.40625 20.5 43.75 
Q 24.21875 46.09375 30.078125 46.09375 
Q 37.109375 46.09375 40.625 42.1875 
Q 44.140625 38.28125 44.140625 32.421875 
z
" id="SimHei-110"/>
      </defs>
      <use xlink:href="#SimHei-112"/>
      <use x="50" xlink:href="#SimHei-114"/>
      <use x="100" xlink:href="#SimHei-101"/>
      <use x="150" xlink:href="#SimHei-99"/>
      <use x="200" xlink:href="#SimHei-105"/>
      <use x="250" xlink:href="#SimHei-115"/>
      <use x="300" xlink:href="#SimHei-105"/>
      <use x="350" xlink:href="#SimHei-111"/>
      <use x="400" xlink:href="#SimHei-110"/>
     </g>
    </g>
    <g id="line2d_17">
     <path d="M 81 77.629062 
L 101 77.629062 
" style="fill:none;stroke:#008000;stroke-linecap:square;stroke-width:1.5;"/>
    </g>
    <g id="line2d_18"/>
    <g id="text_16">
     <!-- recall -->
     <g transform="translate(109 81.129062)scale(0.1 -0.1)">
      <defs>
       <path d="M 28.90625 1.5625 
L 21.09375 1.5625 
L 21.09375 68.359375 
L 28.90625 68.359375 
z
" id="SimHei-108"/>
      </defs>
      <use xlink:href="#SimHei-114"/>
      <use x="50" xlink:href="#SimHei-101"/>
      <use x="100" xlink:href="#SimHei-99"/>
      <use x="150" xlink:href="#SimHei-97"/>
      <use x="200" xlink:href="#SimHei-108"/>
      <use x="250" xlink:href="#SimHei-108"/>
     </g>
    </g>
   </g>
  </g>
  <g id="axes_2">
   <g id="matplotlib.axis_3">
    <g id="ytick_7">
     <g id="line2d_19">
      <defs>
       <path d="M 0 0 
L 3.5 0 
" id="mf15129cd16" style="stroke:#000000;stroke-width:0.8;"/>
      </defs>
      <g>
       <use style="stroke:#000000;stroke-width:0.8;" x="518.4" xlink:href="#mf15129cd16" y="369.749438"/>
      </g>
     </g>
     <g id="text_17">
      <!-- 0 -->
      <g transform="translate(525.4 373.167407)scale(0.1 -0.1)">
       <use xlink:href="#SimHei-48"/>
      </g>
     </g>
    </g>
    <g id="ytick_8">
     <g id="line2d_20">
      <g>
       <use style="stroke:#000000;stroke-width:0.8;" x="518.4" xlink:href="#mf15129cd16" y="307.541377"/>
      </g>
     </g>
     <g id="text_18">
      <!-- 100 -->
      <g transform="translate(525.4 310.959346)scale(0.1 -0.1)">
       <use xlink:href="#SimHei-49"/>
       <use x="50" xlink:href="#SimHei-48"/>
       <use x="100" xlink:href="#SimHei-48"/>
      </g>
     </g>
    </g>
    <g id="ytick_9">
     <g id="line2d_21">
      <g>
       <use style="stroke:#000000;stroke-width:0.8;" x="518.4" xlink:href="#mf15129cd16" y="245.333317"/>
      </g>
     </g>
     <g id="text_19">
      <!-- 200 -->
      <g transform="translate(525.4 248.751286)scale(0.1 -0.1)">
       <use xlink:href="#SimHei-50"/>
       <use x="50" xlink:href="#SimHei-48"/>
       <use x="100" xlink:href="#SimHei-48"/>
      </g>
     </g>
    </g>
    <g id="ytick_10">
     <g id="line2d_22">
      <g>
       <use style="stroke:#000000;stroke-width:0.8;" x="518.4" xlink:href="#mf15129cd16" y="183.125257"/>
      </g>
     </g>
     <g id="text_20">
      <!-- 300 -->
      <g transform="translate(525.4 186.543225)scale(0.1 -0.1)">
       <defs>
        <path d="M 44.140625 20.3125 
Q 44.140625 11.328125 38.46875 6.046875 
Q 32.8125 0.78125 24.21875 0.78125 
Q 15.625 0.78125 9.953125 6.046875 
Q 4.296875 11.328125 4.296875 22.265625 
L 13.28125 22.265625 
Q 13.28125 14.84375 16.203125 11.515625 
Q 19.140625 8.203125 24.21875 8.203125 
Q 29.296875 8.203125 32.03125 11.328125 
Q 34.765625 14.453125 34.765625 21.09375 
Q 34.765625 26.5625 31.828125 29.6875 
Q 28.90625 32.8125 21.484375 32.8125 
L 21.484375 39.453125 
Q 27.734375 39.453125 30.65625 42.578125 
Q 33.59375 45.703125 33.59375 51.953125 
Q 33.59375 56.640625 31.4375 59.375 
Q 29.296875 62.109375 24.609375 62.109375 
Q 19.921875 62.109375 17.375 58.78125 
Q 14.84375 55.46875 14.453125 49.21875 
L 5.859375 49.21875 
Q 6.640625 58.203125 11.515625 63.671875 
Q 16.40625 69.140625 24.609375 69.140625 
Q 33.203125 69.140625 37.890625 64.25 
Q 42.578125 59.375 42.578125 52.34375 
Q 42.578125 45.703125 40.234375 41.984375 
Q 37.890625 38.28125 32.421875 36.328125 
Q 37.890625 35.15625 41.015625 30.859375 
Q 44.140625 26.5625 44.140625 20.3125 
z
" id="SimHei-51"/>
       </defs>
       <use xlink:href="#SimHei-51"/>
       <use x="50" xlink:href="#SimHei-48"/>
       <use x="100" xlink:href="#SimHei-48"/>
      </g>
     </g>
    </g>
    <g id="ytick_11">
     <g id="line2d_23">
      <g>
       <use style="stroke:#000000;stroke-width:0.8;" x="518.4" xlink:href="#mf15129cd16" y="120.917196"/>
      </g>
     </g>
     <g id="text_21">
      <!-- 400 -->
      <g transform="translate(525.4 124.335165)scale(0.1 -0.1)">
       <use xlink:href="#SimHei-52"/>
       <use x="50" xlink:href="#SimHei-48"/>
       <use x="100" xlink:href="#SimHei-48"/>
      </g>
     </g>
    </g>
    <g id="ytick_12">
     <g id="line2d_24">
      <g>
       <use style="stroke:#000000;stroke-width:0.8;" x="518.4" xlink:href="#mf15129cd16" y="58.709136"/>
      </g>
     </g>
     <g id="text_22">
      <!-- 500 -->
      <g transform="translate(525.4 62.127105)scale(0.1 -0.1)">
       <defs>
        <path d="M 44.140625 25.78125 
Q 44.140625 14.0625 38.46875 7.421875 
Q 32.8125 0.78125 23.4375 0.78125 
Q 15.234375 0.78125 9.953125 6.25 
Q 4.6875 11.71875 4.296875 21.09375 
L 13.28125 21.09375 
Q 13.28125 15.234375 16.015625 11.71875 
Q 18.75 8.203125 23.828125 8.203125 
Q 28.90625 8.203125 31.828125 12.5 
Q 34.765625 16.796875 34.765625 25.78125 
Q 34.765625 33.59375 32.21875 37.296875 
Q 29.6875 41.015625 25.390625 41.015625 
Q 21.875 41.015625 19.328125 39.453125 
Q 16.796875 37.890625 14.453125 33.984375 
L 6.640625 33.984375 
L 8.984375 68.359375 
L 42.578125 68.359375 
L 42.578125 60.9375 
L 16.40625 60.9375 
L 14.84375 42.96875 
Q 17.1875 45.3125 19.921875 46.484375 
Q 22.65625 47.65625 27.34375 47.65625 
Q 34.765625 47.65625 39.453125 41.984375 
Q 44.140625 36.328125 44.140625 25.78125 
z
" id="SimHei-53"/>
       </defs>
       <use xlink:href="#SimHei-53"/>
       <use x="50" xlink:href="#SimHei-48"/>
       <use x="100" xlink:href="#SimHei-48"/>
      </g>
     </g>
    </g>
    <g id="text_23">
     <!-- loss -->
     <g transform="translate(551.235937 228.16)rotate(-90)scale(0.1 -0.1)">
      <use xlink:href="#SimHei-108"/>
      <use x="50" xlink:href="#SimHei-111"/>
      <use x="100" xlink:href="#SimHei-115"/>
      <use x="150" xlink:href="#SimHei-115"/>
     </g>
    </g>
   </g>
   <g id="line2d_25">
    <path clip-path="url(#pae7ace3271)" d="M 92.290909 66.96 
L 92.697133 69.987024 
L 93.509582 84.275988 
L 94.322031 105.425722 
L 95.540704 145.269019 
L 95.946929 160.052014 
L 96.353153 364.522614 
L 96.759378 354.514317 
L 97.165602 348.710716 
L 97.571826 347.277901 
L 97.978051 349.32209 
L 98.384275 354.270237 
L 98.7905 361.638834 
L 99.196724 366.030938 
L 99.602948 361.574915 
L 100.009173 360.239605 
L 100.415397 367.809377 
L 100.821622 367.525758 
L 101.227846 367.810929 
L 102.040295 367.962369 
L 102.446519 367.937961 
L 102.852744 368.128338 
L 103.258968 367.872176 
L 103.665192 368.09615 
L 104.071417 368.055162 
L 104.477641 368.281307 
L 104.883866 368.074074 
L 105.29009 368.025935 
L 105.696314 368.116485 
L 106.102539 367.891222 
L 106.508763 367.944175 
L 106.914988 367.791591 
L 107.321212 368.210957 
L 107.727437 367.993936 
L 108.133661 368.235069 
L 108.94611 367.919605 
L 109.758559 368.243258 
L 110.164783 367.998124 
L 110.571007 368.102431 
L 110.977232 367.884394 
L 111.383456 367.94654 
L 111.789681 367.796753 
L 112.195905 368.117431 
L 112.602129 367.869367 
L 113.008354 367.86729 
L 113.414578 367.68318 
L 113.820803 367.877175 
L 114.227027 367.770621 
L 115.039476 368.138687 
L 115.4457 367.93655 
L 115.851925 368.028559 
L 116.258149 367.849033 
L 116.664373 368.033306 
L 117.070598 367.815176 
L 117.883047 368.122196 
L 118.289271 368.030281 
L 119.10172 368.219036 
L 119.507944 367.803454 
L 119.914169 368.038321 
L 121.539066 367.835126 
L 121.945291 368.01212 
L 122.75774 368.091368 
L 123.976413 368.324983 
L 124.382637 368.071937 
L 124.788862 368.235575 
L 125.195086 368.009076 
L 125.60131 368.358293 
L 126.007535 368.099415 
L 126.819984 368.140134 
L 127.226208 368.37287 
L 127.632432 368.019718 
L 128.444881 368.117011 
L 128.851106 368.211053 
L 129.25733 367.632825 
L 129.663554 368.171184 
L 130.069779 367.812827 
L 130.476003 368.029481 
L 131.288452 367.843125 
L 131.694676 368.263841 
L 132.507125 367.837123 
L 132.91335 368.171279 
L 133.319574 367.922422 
L 133.725799 368.357918 
L 134.132023 368.56628 
L 134.538247 368.325871 
L 134.944472 368.395809 
L 135.350696 368.675171 
L 135.756921 368.579657 
L 136.975594 368.774292 
L 137.381818 368.631937 
L 137.788043 368.809409 
L 138.194267 368.702404 
L 139.006716 368.777219 
L 140.225389 368.932848 
L 140.631613 368.892199 
L 141.037838 368.988453 
L 141.850287 368.916238 
L 142.256511 368.963894 
L 143.06896 368.799728 
L 143.475184 368.84806 
L 143.881409 368.714259 
L 145.100082 368.960493 
L 145.506306 368.793322 
L 146.318755 368.924571 
L 146.72498 368.844683 
L 147.537428 368.978631 
L 147.943653 368.8811 
L 148.756102 368.995065 
L 149.162326 368.990471 
L 149.56855 368.834123 
L 149.974775 368.990715 
L 150.787224 368.920446 
L 151.193448 369.010299 
L 152.412121 368.985431 
L 156.88059 369.032348 
L 157.286814 369.091189 
L 157.693038 369.010387 
L 158.099263 369.121714 
L 159.317936 369.051964 
L 160.536609 369.090495 
L 162.161507 369.028966 
L 166.223751 369.113326 
L 167.442424 369.087659 
L 169.473546 369.146137 
L 169.879771 369.06369 
L 171.098444 369.124828 
L 176.379361 369.199802 
L 179.629156 369.158712 
L 181.660278 369.202068 
L 182.066503 369.112693 
L 184.097625 369.19803 
L 184.910074 369.143592 
L 189.784767 369.209515 
L 190.597215 369.188419 
L 217.408026 369.269054 
L 219.439148 369.252515 
L 222.282719 369.274308 
L 224.313841 369.253562 
L 226.344963 369.276315 
L 227.969861 369.264765 
L 232.844554 369.277941 
L 240.969042 369.283125 
L 268.592301 369.305172 
L 278.747912 369.303448 
L 299.465356 369.310883 
L 310.83964 369.312635 
L 340.494021 369.313855 
L 375.42932 369.316813 
L 498.109091 369.36 
L 498.109091 369.36 
" style="fill:none;stroke:#ff0000;stroke-linecap:square;stroke-width:1.5;"/>
   </g>
   <g id="patch_8">
    <path d="M 72 384.48 
L 72 51.84 
" style="fill:none;stroke:#000000;stroke-linecap:square;stroke-linejoin:miter;stroke-width:0.8;"/>
   </g>
   <g id="patch_9">
    <path d="M 518.4 384.48 
L 518.4 51.84 
" style="fill:none;stroke:#000000;stroke-linecap:square;stroke-linejoin:miter;stroke-width:0.8;"/>
   </g>
   <g id="patch_10">
    <path d="M 72 384.48 
L 518.4 384.48 
" style="fill:none;stroke:#000000;stroke-linecap:square;stroke-linejoin:miter;stroke-width:0.8;"/>
   </g>
   <g id="patch_11">
    <path d="M 72 51.84 
L 518.4 51.84 
" style="fill:none;stroke:#000000;stroke-linecap:square;stroke-linejoin:miter;stroke-width:0.8;"/>
   </g>
   <g id="text_24">
    <!-- The learning curve on 8clients_non_iid/host/4 -->
    <g transform="translate(160.2 45.84)scale(0.12 -0.12)">
     <defs>
      <path d="M 44.921875 60.9375 
L 29.296875 60.9375 
L 29.296875 1.5625 
L 20.3125 1.5625 
L 20.3125 60.9375 
L 4.6875 60.9375 
L 4.6875 68.359375 
L 44.921875 68.359375 
z
" id="SimHei-84"/>
      <path id="SimHei-32"/>
      <path d="M 46.875 38.671875 
Q 44.140625 39.453125 41.59375 39.640625 
Q 39.0625 39.84375 36.328125 39.0625 
Q 37.5 37.890625 38.28125 36.125 
Q 39.0625 34.375 39.0625 30.859375 
Q 39.0625 24.21875 34.5625 19.921875 
Q 30.078125 15.625 23.4375 15.625 
Q 21.875 15.625 19.328125 16.203125 
Q 16.796875 16.796875 15.234375 17.578125 
Q 14.0625 16.796875 13.671875 16.015625 
Q 13.28125 15.234375 13.28125 14.0625 
Q 13.28125 12.109375 16.015625 11.125 
Q 18.75 10.15625 25.78125 10.15625 
Q 37.109375 10.15625 41.203125 7.03125 
Q 45.3125 3.90625 45.3125 -0.78125 
Q 45.3125 -7.03125 39.25 -9.953125 
Q 33.203125 -12.890625 25 -12.890625 
Q 14.453125 -12.890625 9.375 -10.15625 
Q 4.296875 -7.421875 4.296875 -2.734375 
Q 4.296875 -0.390625 6.25 1.953125 
Q 8.203125 4.296875 11.328125 5.859375 
Q 8.984375 7.03125 7.609375 8.78125 
Q 6.25 10.546875 6.25 13.28125 
Q 6.25 15.625 8 17.375 
Q 9.765625 19.140625 12.109375 20.3125 
Q 10.15625 22.265625 8.984375 25 
Q 7.8125 27.734375 7.8125 30.859375 
Q 7.8125 37.5 12.296875 41.796875 
Q 16.796875 46.09375 23.4375 46.09375 
Q 26.953125 46.09375 29.484375 45.109375 
Q 32.03125 44.140625 33.984375 42.1875 
Q 37.109375 44.53125 40.234375 45.5 
Q 43.359375 46.484375 46.875 46.09375 
z
M 31.25 30.859375 
Q 31.25 34.765625 29.296875 37.109375 
Q 27.34375 39.453125 23.4375 39.453125 
Q 19.53125 39.453125 17.578125 37.109375 
Q 15.625 34.765625 15.625 30.859375 
Q 15.625 26.953125 17.578125 24.609375 
Q 19.53125 22.265625 23.4375 22.265625 
Q 27.34375 22.265625 29.296875 24.609375 
Q 31.25 26.953125 31.25 30.859375 
z
M 37.890625 -1.5625 
Q 37.890625 0 36.125 1.5625 
Q 34.375 3.125 27.34375 3.125 
Q 25.78125 3.125 23.046875 3.3125 
Q 20.3125 3.515625 16.796875 3.90625 
Q 13.671875 2.734375 12.5 1.171875 
Q 11.328125 -0.390625 11.328125 -1.953125 
Q 11.328125 -4.296875 14.453125 -5.859375 
Q 17.578125 -7.421875 25.390625 -7.421875 
Q 32.03125 -7.421875 34.953125 -5.65625 
Q 37.890625 -3.90625 37.890625 -1.5625 
z
" id="SimHei-103"/>
      <path d="M 44.140625 1.5625 
L 36.328125 1.5625 
L 36.328125 9.765625 
Q 33.203125 5.46875 29.484375 3.125 
Q 25.78125 0.78125 19.921875 0.78125 
Q 12.890625 0.78125 9.375 4.6875 
Q 5.859375 8.59375 5.859375 14.453125 
L 5.859375 45.3125 
L 13.671875 45.3125 
L 13.671875 17.1875 
Q 13.671875 12.5 16.015625 9.765625 
Q 18.359375 7.03125 22.265625 7.03125 
Q 27.34375 7.03125 31.828125 12.296875 
Q 36.328125 17.578125 36.328125 25.390625 
L 36.328125 45.3125 
L 44.140625 45.3125 
z
" id="SimHei-117"/>
      <path d="M 45.3125 45.3125 
L 28.90625 0.78125 
L 20.3125 0.78125 
L 3.90625 45.3125 
L 12.109375 45.3125 
L 24.21875 11.328125 
L 25 11.328125 
L 37.109375 45.3125 
z
" id="SimHei-118"/>
      <path d="M 49.609375 -13.671875 
L 0 -13.671875 
L 0 -8.984375 
L 49.609375 -8.984375 
z
" id="SimHei-95"/>
      <path d="M 43.359375 1.5625 
L 35.546875 1.5625 
L 35.546875 7.421875 
Q 33.203125 3.90625 30.078125 2.34375 
Q 26.953125 0.78125 22.65625 0.78125 
Q 14.84375 0.78125 9.375 6.4375 
Q 3.90625 12.109375 3.90625 23.4375 
Q 3.90625 34.765625 9.375 40.625 
Q 14.84375 46.484375 22.65625 46.484375 
Q 26.953125 46.484375 30.078125 44.71875 
Q 33.203125 42.96875 35.546875 39.453125 
L 35.546875 68.359375 
L 43.359375 68.359375 
z
M 35.546875 23.4375 
Q 35.546875 30.859375 32.21875 35.15625 
Q 28.90625 39.453125 24.21875 39.453125 
Q 18.359375 39.453125 15.421875 35.15625 
Q 12.5 30.859375 12.5 23.4375 
Q 12.5 16.015625 15.421875 11.90625 
Q 18.359375 7.8125 24.21875 7.8125 
Q 28.90625 7.8125 32.21875 11.90625 
Q 35.546875 16.015625 35.546875 23.4375 
z
" id="SimHei-100"/>
      <path d="M 47.265625 70.703125 
L 5.859375 -3.125 
L 1.953125 -0.78125 
L 43.359375 73.046875 
z
" id="SimHei-47"/>
     </defs>
     <use xlink:href="#SimHei-84"/>
     <use x="50" xlink:href="#SimHei-104"/>
     <use x="100" xlink:href="#SimHei-101"/>
     <use x="150" xlink:href="#SimHei-32"/>
     <use x="200" xlink:href="#SimHei-108"/>
     <use x="250" xlink:href="#SimHei-101"/>
     <use x="300" xlink:href="#SimHei-97"/>
     <use x="350" xlink:href="#SimHei-114"/>
     <use x="400" xlink:href="#SimHei-110"/>
     <use x="450" xlink:href="#SimHei-105"/>
     <use x="500" xlink:href="#SimHei-110"/>
     <use x="550" xlink:href="#SimHei-103"/>
     <use x="600" xlink:href="#SimHei-32"/>
     <use x="650" xlink:href="#SimHei-99"/>
     <use x="700" xlink:href="#SimHei-117"/>
     <use x="750" xlink:href="#SimHei-114"/>
     <use x="800" xlink:href="#SimHei-118"/>
     <use x="850" xlink:href="#SimHei-101"/>
     <use x="900" xlink:href="#SimHei-32"/>
     <use x="950" xlink:href="#SimHei-111"/>
     <use x="1000" xlink:href="#SimHei-110"/>
     <use x="1050" xlink:href="#SimHei-32"/>
     <use x="1100" xlink:href="#SimHei-56"/>
     <use x="1150" xlink:href="#SimHei-99"/>
     <use x="1200" xlink:href="#SimHei-108"/>
     <use x="1250" xlink:href="#SimHei-105"/>
     <use x="1300" xlink:href="#SimHei-101"/>
     <use x="1350" xlink:href="#SimHei-110"/>
     <use x="1400" xlink:href="#SimHei-116"/>
     <use x="1450" xlink:href="#SimHei-115"/>
     <use x="1500" xlink:href="#SimHei-95"/>
     <use x="1550" xlink:href="#SimHei-110"/>
     <use x="1600" xlink:href="#SimHei-111"/>
     <use x="1650" xlink:href="#SimHei-110"/>
     <use x="1700" xlink:href="#SimHei-95"/>
     <use x="1750" xlink:href="#SimHei-105"/>
     <use x="1800" xlink:href="#SimHei-105"/>
     <use x="1850" xlink:href="#SimHei-100"/>
     <use x="1900" xlink:href="#SimHei-47"/>
     <use x="1950" xlink:href="#SimHei-104"/>
     <use x="2000" xlink:href="#SimHei-111"/>
     <use x="2050" xlink:href="#SimHei-115"/>
     <use x="2100" xlink:href="#SimHei-116"/>
     <use x="2150" xlink:href="#SimHei-47"/>
     <use x="2200" xlink:href="#SimHei-52"/>
    </g>
   </g>
   <g id="legend_2">
    <g id="patch_12">
     <path d="M 459.4 73.129062 
L 511.4 73.129062 
Q 513.4 73.129062 513.4 71.129062 
L 513.4 58.84 
Q 513.4 56.84 511.4 56.84 
L 459.4 56.84 
Q 457.4 56.84 457.4 58.84 
L 457.4 71.129062 
Q 457.4 73.129062 459.4 73.129062 
z
" style="fill:#ffffff;opacity:0.8;stroke:#cccccc;stroke-linejoin:miter;"/>
    </g>
    <g id="line2d_26">
     <path d="M 461.4 64.34 
L 481.4 64.34 
" style="fill:none;stroke:#ff0000;stroke-linecap:square;stroke-width:1.5;"/>
    </g>
    <g id="line2d_27"/>
    <g id="text_25">
     <!-- loss -->
     <g transform="translate(489.4 67.84)scale(0.1 -0.1)">
      <use xlink:href="#SimHei-108"/>
      <use x="50" xlink:href="#SimHei-111"/>
      <use x="100" xlink:href="#SimHei-115"/>
      <use x="150" xlink:href="#SimHei-115"/>
     </g>
    </g>
   </g>
  </g>
 </g>
 <defs>
  <clipPath id="pae7ace3271">
   <rect height="332.64" width="446.4" x="72" y="51.84"/>
  </clipPath>
 </defs>
</svg>
