<?xml version="1.0" encoding="utf-8" standalone="no"?>
<!DOCTYPE svg PUBLIC "-//W3C//DTD SVG 1.1//EN"
  "http://www.w3.org/Graphics/SVG/1.1/DTD/svg11.dtd">
<!-- Created with matplotlib (https://matplotlib.org/) -->
<svg height="432pt" version="1.1" viewBox="0 0 576 432" width="576pt" xmlns="http://www.w3.org/2000/svg" xmlns:xlink="http://www.w3.org/1999/xlink">
 <metadata>
  <rdf:RDF xmlns:cc="http://creativecommons.org/ns#" xmlns:dc="http://purl.org/dc/elements/1.1/" xmlns:rdf="http://www.w3.org/1999/02/22-rdf-syntax-ns#">
   <cc:Work>
    <dc:type rdf:resource="http://purl.org/dc/dcmitype/StillImage"/>
    <dc:date>2023-03-28T10:21:37.650898</dc:date>
    <dc:format>image/svg+xml</dc:format>
    <dc:creator>
     <cc:Agent>
      <dc:title>Matplotlib v3.3.4, https://matplotlib.org/</dc:title>
     </cc:Agent>
    </dc:creator>
   </cc:Work>
  </rdf:RDF>
 </metadata>
 <defs>
  <style type="text/css">*{stroke-linecap:butt;stroke-linejoin:round;}</style>
 </defs>
 <g id="figure_1">
  <g id="patch_1">
   <path d="M 0 432 
L 576 432 
L 576 0 
L 0 0 
z
" style="fill:#ffffff;"/>
  </g>
  <g id="axes_1">
   <g id="patch_2">
    <path d="M 72 384.48 
L 518.4 384.48 
L 518.4 51.84 
L 72 51.84 
z
" style="fill:#ffffff;"/>
   </g>
   <g id="matplotlib.axis_1">
    <g id="xtick_1">
     <g id="line2d_1">
      <defs>
       <path d="M 0 0 
L 0 3.5 
" id="m27d0dcdc24" style="stroke:#000000;stroke-width:0.8;"/>
      </defs>
      <g>
       <use style="stroke:#000000;stroke-width:0.8;" x="92.290909" xlink:href="#m27d0dcdc24" y="384.48"/>
      </g>
     </g>
     <g id="text_1">
      <!-- 0 -->
      <g transform="translate(89.790909 398.315938)scale(0.1 -0.1)">
       <defs>
        <path d="M 46.484375 35.15625 
Q 46.484375 21.09375 41.40625 10.9375 
Q 36.328125 0.78125 25 0.78125 
Q 13.671875 0.78125 8.390625 10.9375 
Q 3.125 21.09375 3.125 35.15625 
Q 3.125 49.21875 8.390625 59.171875 
Q 13.671875 69.140625 25 69.140625 
Q 36.328125 69.140625 41.40625 59.171875 
Q 46.484375 49.21875 46.484375 35.15625 
z
M 37.109375 35.15625 
Q 37.109375 47.65625 34.171875 54.6875 
Q 31.25 61.71875 25 61.71875 
Q 18.75 61.71875 15.625 54.6875 
Q 12.5 47.65625 12.5 35.15625 
Q 12.5 22.65625 15.625 15.421875 
Q 18.75 8.203125 25 8.203125 
Q 31.25 8.203125 34.171875 15.421875 
Q 37.109375 22.65625 37.109375 35.15625 
z
" id="SimHei-48"/>
       </defs>
       <use xlink:href="#SimHei-48"/>
      </g>
     </g>
    </g>
    <g id="xtick_2">
     <g id="line2d_2">
      <g>
       <use style="stroke:#000000;stroke-width:0.8;" x="173.53579" xlink:href="#m27d0dcdc24" y="384.48"/>
      </g>
     </g>
     <g id="text_2">
      <!-- 200 -->
      <g transform="translate(166.03579 398.315938)scale(0.1 -0.1)">
       <defs>
        <path d="M 44.53125 1.5625 
L 4.6875 1.5625 
L 4.6875 7.8125 
Q 7.03125 14.0625 11.125 19.328125 
Q 15.234375 24.609375 23.046875 31.25 
Q 28.90625 36.328125 31.4375 40.625 
Q 33.984375 44.921875 33.984375 50 
Q 33.984375 55.078125 31.828125 58.390625 
Q 29.6875 61.71875 25 61.71875 
Q 21.09375 61.71875 18.15625 58.203125 
Q 15.234375 54.6875 15.234375 45.703125 
L 6.25 45.703125 
Q 6.640625 57.03125 11.515625 63.078125 
Q 16.40625 69.140625 25.390625 69.140625 
Q 33.984375 69.140625 38.671875 63.859375 
Q 43.359375 58.59375 43.359375 49.609375 
Q 43.359375 42.1875 39.0625 36.71875 
Q 34.765625 31.25 28.515625 25.78125 
Q 21.484375 19.53125 18.75 16.40625 
Q 16.015625 13.28125 13.671875 8.984375 
L 44.53125 8.984375 
z
" id="SimHei-50"/>
       </defs>
       <use xlink:href="#SimHei-50"/>
       <use x="50" xlink:href="#SimHei-48"/>
       <use x="100" xlink:href="#SimHei-48"/>
      </g>
     </g>
    </g>
    <g id="xtick_3">
     <g id="line2d_3">
      <g>
       <use style="stroke:#000000;stroke-width:0.8;" x="254.780672" xlink:href="#m27d0dcdc24" y="384.48"/>
      </g>
     </g>
     <g id="text_3">
      <!-- 400 -->
      <g transform="translate(247.280672 398.315938)scale(0.1 -0.1)">
       <defs>
        <path d="M 46.484375 18.75 
L 38.28125 18.75 
L 38.28125 1.5625 
L 29.296875 1.5625 
L 29.296875 18.75 
L 3.125 18.75 
L 3.125 26.171875 
L 29.296875 69.140625 
L 38.28125 69.140625 
L 38.28125 26.171875 
L 46.484375 26.171875 
z
M 29.296875 26.171875 
L 29.296875 55.078125 
L 11.71875 26.171875 
z
" id="SimHei-52"/>
       </defs>
       <use xlink:href="#SimHei-52"/>
       <use x="50" xlink:href="#SimHei-48"/>
       <use x="100" xlink:href="#SimHei-48"/>
      </g>
     </g>
    </g>
    <g id="xtick_4">
     <g id="line2d_4">
      <g>
       <use style="stroke:#000000;stroke-width:0.8;" x="336.025553" xlink:href="#m27d0dcdc24" y="384.48"/>
      </g>
     </g>
     <g id="text_4">
      <!-- 600 -->
      <g transform="translate(328.525553 398.315938)scale(0.1 -0.1)">
       <defs>
        <path d="M 44.53125 24.21875 
Q 44.53125 13.28125 39.84375 7.03125 
Q 35.15625 0.78125 25.78125 0.78125 
Q 16.40625 0.78125 10.9375 8.59375 
Q 5.46875 16.40625 5.46875 33.984375 
Q 5.46875 50 11.125 59.5625 
Q 16.796875 69.140625 27.34375 69.140625 
Q 34.765625 69.140625 39.25 63.671875 
Q 43.75 58.203125 43.75 51.5625 
L 34.765625 51.5625 
Q 34.765625 55.46875 32.609375 58.59375 
Q 30.46875 61.71875 26.953125 61.71875 
Q 21.09375 61.71875 17.96875 55.65625 
Q 14.84375 49.609375 14.453125 37.109375 
Q 17.1875 42.1875 20.3125 44.140625 
Q 23.4375 46.09375 27.734375 46.09375 
Q 35.15625 46.09375 39.84375 40.234375 
Q 44.53125 34.375 44.53125 24.21875 
z
M 35.15625 24.21875 
Q 35.15625 31.25 32.8125 35.15625 
Q 30.46875 39.0625 26.171875 39.0625 
Q 21.09375 39.0625 18.15625 35.15625 
Q 15.234375 31.25 15.234375 25.78125 
Q 15.234375 17.1875 18.15625 12.5 
Q 21.09375 7.8125 26.171875 7.8125 
Q 29.6875 7.8125 32.421875 11.328125 
Q 35.15625 14.84375 35.15625 24.21875 
z
" id="SimHei-54"/>
       </defs>
       <use xlink:href="#SimHei-54"/>
       <use x="50" xlink:href="#SimHei-48"/>
       <use x="100" xlink:href="#SimHei-48"/>
      </g>
     </g>
    </g>
    <g id="xtick_5">
     <g id="line2d_5">
      <g>
       <use style="stroke:#000000;stroke-width:0.8;" x="417.270434" xlink:href="#m27d0dcdc24" y="384.48"/>
      </g>
     </g>
     <g id="text_5">
      <!-- 800 -->
      <g transform="translate(409.770434 398.315938)scale(0.1 -0.1)">
       <defs>
        <path d="M 44.921875 20.703125 
Q 44.921875 10.9375 39.453125 5.859375 
Q 33.984375 0.78125 24.609375 0.78125 
Q 15.234375 0.78125 9.765625 5.859375 
Q 4.296875 10.9375 4.296875 20.703125 
Q 4.296875 25.78125 7.421875 29.875 
Q 10.546875 33.984375 16.015625 35.9375 
Q 11.328125 37.890625 8.78125 41.40625 
Q 6.25 44.921875 6.25 50.390625 
Q 6.25 58.984375 11.71875 64.0625 
Q 17.1875 69.140625 24.609375 69.140625 
Q 32.03125 69.140625 37.5 64.0625 
Q 42.96875 58.984375 42.96875 50.390625 
Q 42.96875 44.921875 40.421875 41.40625 
Q 37.890625 37.890625 33.203125 35.9375 
Q 38.671875 33.984375 41.796875 29.875 
Q 44.921875 25.78125 44.921875 20.703125 
z
M 34.375 50.390625 
Q 34.375 56.640625 31.640625 59.375 
Q 28.90625 62.109375 24.609375 62.109375 
Q 20.3125 62.109375 17.578125 59.375 
Q 14.84375 56.640625 14.84375 50.390625 
Q 14.84375 44.140625 17.765625 41.59375 
Q 20.703125 39.0625 24.609375 39.0625 
Q 28.515625 39.0625 31.4375 41.59375 
Q 34.375 44.140625 34.375 50.390625 
z
M 35.9375 20.703125 
Q 35.9375 26.171875 33 29.296875 
Q 30.078125 32.421875 24.609375 32.421875 
Q 19.140625 32.421875 16.203125 29.296875 
Q 13.28125 26.171875 13.28125 20.703125 
Q 13.28125 14.453125 16.40625 11.125 
Q 19.53125 7.8125 24.609375 7.8125 
Q 29.6875 7.8125 32.8125 11.125 
Q 35.9375 14.453125 35.9375 20.703125 
z
" id="SimHei-56"/>
       </defs>
       <use xlink:href="#SimHei-56"/>
       <use x="50" xlink:href="#SimHei-48"/>
       <use x="100" xlink:href="#SimHei-48"/>
      </g>
     </g>
    </g>
    <g id="xtick_6">
     <g id="line2d_6">
      <g>
       <use style="stroke:#000000;stroke-width:0.8;" x="498.515315" xlink:href="#m27d0dcdc24" y="384.48"/>
      </g>
     </g>
     <g id="text_6">
      <!-- 1000 -->
      <g transform="translate(488.515315 398.315938)scale(0.1 -0.1)">
       <defs>
        <path d="M 30.46875 1.5625 
L 21.484375 1.5625 
L 21.484375 53.515625 
L 9.765625 53.515625 
L 9.765625 58.203125 
Q 16.796875 58.203125 20.703125 60.9375 
Q 24.609375 63.671875 25.78125 69.140625 
L 30.46875 69.140625 
z
" id="SimHei-49"/>
       </defs>
       <use xlink:href="#SimHei-49"/>
       <use x="50" xlink:href="#SimHei-48"/>
       <use x="100" xlink:href="#SimHei-48"/>
       <use x="150" xlink:href="#SimHei-48"/>
      </g>
     </g>
    </g>
    <g id="text_7">
     <!-- epoch -->
     <g transform="translate(282.7 410.440938)scale(0.1 -0.1)">
      <defs>
       <path d="M 44.921875 16.40625 
Q 44.140625 9.375 38.671875 5.078125 
Q 33.203125 0.78125 25.78125 0.78125 
Q 16.40625 0.78125 10.34375 6.828125 
Q 4.296875 12.890625 4.296875 23.4375 
Q 4.296875 33.984375 10.34375 40.03125 
Q 16.40625 46.09375 25.78125 46.09375 
Q 33.984375 46.09375 39.25 40.8125 
Q 44.53125 35.546875 44.53125 23.4375 
L 12.890625 23.4375 
Q 12.890625 14.84375 16.59375 11.328125 
Q 20.3125 7.8125 25.78125 7.8125 
Q 30.078125 7.8125 32.8125 9.953125 
Q 35.546875 12.109375 36.328125 16.40625 
z
M 35.546875 29.6875 
Q 34.765625 35.15625 32.03125 37.296875 
Q 29.296875 39.453125 25 39.453125 
Q 21.09375 39.453125 17.96875 37.296875 
Q 14.84375 35.15625 13.28125 29.6875 
z
" id="SimHei-101"/>
       <path d="M 44.53125 23.4375 
Q 44.53125 12.109375 39.0625 6.25 
Q 33.59375 0.390625 25.78125 0.390625 
Q 21.484375 0.390625 18.359375 2.140625 
Q 15.234375 3.90625 12.890625 7.421875 
L 12.890625 -12.890625 
L 5.078125 -12.890625 
L 5.078125 45.3125 
L 12.890625 45.3125 
L 12.890625 39.453125 
Q 15.234375 42.96875 18.359375 44.53125 
Q 21.484375 46.09375 25.78125 46.09375 
Q 33.59375 46.09375 39.0625 40.421875 
Q 44.53125 34.765625 44.53125 23.4375 
z
M 35.9375 23.4375 
Q 35.9375 30.859375 33 34.953125 
Q 30.078125 39.0625 24.21875 39.0625 
Q 19.53125 39.0625 16.203125 34.953125 
Q 12.890625 30.859375 12.890625 23.4375 
Q 12.890625 16.015625 16.203125 11.71875 
Q 19.53125 7.421875 24.21875 7.421875 
Q 30.078125 7.421875 33 11.71875 
Q 35.9375 16.015625 35.9375 23.4375 
z
" id="SimHei-112"/>
       <path d="M 46.09375 23.4375 
Q 46.09375 13.28125 39.84375 7.03125 
Q 33.59375 0.78125 25 0.78125 
Q 16.40625 0.78125 10.15625 7.03125 
Q 3.90625 13.28125 3.90625 23.4375 
Q 3.90625 33.59375 10.15625 39.84375 
Q 16.40625 46.09375 25 46.09375 
Q 33.59375 46.09375 39.84375 39.84375 
Q 46.09375 33.59375 46.09375 23.4375 
z
M 37.5 23.4375 
Q 37.5 31.25 33.59375 35.15625 
Q 29.6875 39.0625 25 39.0625 
Q 20.3125 39.0625 16.40625 35.15625 
Q 12.5 31.25 12.5 23.4375 
Q 12.5 15.625 16.40625 11.71875 
Q 20.3125 7.8125 25 7.8125 
Q 29.6875 7.8125 33.59375 11.71875 
Q 37.5 15.625 37.5 23.4375 
z
" id="SimHei-111"/>
       <path d="M 44.921875 19.140625 
Q 44.921875 10.9375 39.25 5.859375 
Q 33.59375 0.78125 25 0.78125 
Q 16.40625 0.78125 10.15625 6.828125 
Q 3.90625 12.890625 3.90625 23.4375 
Q 3.90625 33.984375 10.15625 40.03125 
Q 16.40625 46.09375 25 46.09375 
Q 33.59375 46.09375 38.671875 41.59375 
Q 43.75 37.109375 43.75 30.859375 
L 35.15625 30.859375 
Q 34.765625 35.546875 31.828125 37.296875 
Q 28.90625 39.0625 25 39.0625 
Q 20.3125 39.0625 16.40625 35.34375 
Q 12.5 31.640625 12.5 23.4375 
Q 12.5 15.234375 16.40625 11.515625 
Q 20.3125 7.8125 25 7.8125 
Q 30.078125 7.8125 33.203125 10.546875 
Q 36.328125 13.28125 36.328125 19.140625 
z
" id="SimHei-99"/>
       <path d="M 44.140625 1.5625 
L 36.328125 1.5625 
L 36.328125 29.6875 
Q 36.328125 34.375 33.984375 37.109375 
Q 31.640625 39.84375 27.734375 39.84375 
Q 22.65625 39.84375 18.15625 34.5625 
Q 13.671875 29.296875 13.671875 21.484375 
L 13.671875 1.5625 
L 5.859375 1.5625 
L 5.859375 68.359375 
L 13.671875 68.359375 
L 13.671875 37.109375 
Q 16.796875 41.40625 20.5 43.75 
Q 24.21875 46.09375 30.078125 46.09375 
Q 37.109375 46.09375 40.625 42.1875 
Q 44.140625 38.28125 44.140625 32.421875 
z
" id="SimHei-104"/>
      </defs>
      <use xlink:href="#SimHei-101"/>
      <use x="50" xlink:href="#SimHei-112"/>
      <use x="100" xlink:href="#SimHei-111"/>
      <use x="150" xlink:href="#SimHei-99"/>
      <use x="200" xlink:href="#SimHei-104"/>
     </g>
    </g>
   </g>
   <g id="matplotlib.axis_2">
    <g id="ytick_1">
     <g id="line2d_7">
      <defs>
       <path d="M 0 0 
L -3.5 0 
" id="m57ecd069e2" style="stroke:#000000;stroke-width:0.8;"/>
      </defs>
      <g>
       <use style="stroke:#000000;stroke-width:0.8;" x="72" xlink:href="#m57ecd069e2" y="384.48"/>
      </g>
     </g>
     <g id="text_8">
      <!-- 0.0 -->
      <g transform="translate(50 387.897969)scale(0.1 -0.1)">
       <defs>
        <path d="M 17.1875 1.5625 
L 8.203125 1.5625 
L 8.203125 10.15625 
L 17.1875 10.15625 
z
" id="SimHei-46"/>
       </defs>
       <use xlink:href="#SimHei-48"/>
       <use x="50" xlink:href="#SimHei-46"/>
       <use x="100" xlink:href="#SimHei-48"/>
      </g>
     </g>
    </g>
    <g id="ytick_2">
     <g id="line2d_8">
      <g>
       <use style="stroke:#000000;stroke-width:0.8;" x="72" xlink:href="#m57ecd069e2" y="317.952"/>
      </g>
     </g>
     <g id="text_9">
      <!-- 0.2 -->
      <g transform="translate(50 321.369969)scale(0.1 -0.1)">
       <use xlink:href="#SimHei-48"/>
       <use x="50" xlink:href="#SimHei-46"/>
       <use x="100" xlink:href="#SimHei-50"/>
      </g>
     </g>
    </g>
    <g id="ytick_3">
     <g id="line2d_9">
      <g>
       <use style="stroke:#000000;stroke-width:0.8;" x="72" xlink:href="#m57ecd069e2" y="251.424"/>
      </g>
     </g>
     <g id="text_10">
      <!-- 0.4 -->
      <g transform="translate(50 254.841969)scale(0.1 -0.1)">
       <use xlink:href="#SimHei-48"/>
       <use x="50" xlink:href="#SimHei-46"/>
       <use x="100" xlink:href="#SimHei-52"/>
      </g>
     </g>
    </g>
    <g id="ytick_4">
     <g id="line2d_10">
      <g>
       <use style="stroke:#000000;stroke-width:0.8;" x="72" xlink:href="#m57ecd069e2" y="184.896"/>
      </g>
     </g>
     <g id="text_11">
      <!-- 0.6 -->
      <g transform="translate(50 188.313969)scale(0.1 -0.1)">
       <use xlink:href="#SimHei-48"/>
       <use x="50" xlink:href="#SimHei-46"/>
       <use x="100" xlink:href="#SimHei-54"/>
      </g>
     </g>
    </g>
    <g id="ytick_5">
     <g id="line2d_11">
      <g>
       <use style="stroke:#000000;stroke-width:0.8;" x="72" xlink:href="#m57ecd069e2" y="118.368"/>
      </g>
     </g>
     <g id="text_12">
      <!-- 0.8 -->
      <g transform="translate(50 121.785969)scale(0.1 -0.1)">
       <use xlink:href="#SimHei-48"/>
       <use x="50" xlink:href="#SimHei-46"/>
       <use x="100" xlink:href="#SimHei-56"/>
      </g>
     </g>
    </g>
    <g id="ytick_6">
     <g id="line2d_12">
      <g>
       <use style="stroke:#000000;stroke-width:0.8;" x="72" xlink:href="#m57ecd069e2" y="51.84"/>
      </g>
     </g>
     <g id="text_13">
      <!-- 1.0 -->
      <g transform="translate(50 55.257969)scale(0.1 -0.1)">
       <use xlink:href="#SimHei-49"/>
       <use x="50" xlink:href="#SimHei-46"/>
       <use x="100" xlink:href="#SimHei-48"/>
      </g>
     </g>
    </g>
    <g id="text_14">
     <!-- rate -->
     <g transform="translate(44.710938 228.16)rotate(-90)scale(0.1 -0.1)">
      <defs>
       <path d="M 39.453125 37.5 
Q 32.03125 38.671875 26.953125 35.34375 
Q 21.875 32.03125 18.359375 23.828125 
L 18.359375 1.5625 
L 10.546875 1.5625 
L 10.546875 45.3125 
L 18.359375 45.3125 
L 18.359375 33.984375 
Q 21.875 40.234375 27.140625 43.15625 
Q 32.421875 46.09375 39.453125 46.09375 
z
" id="SimHei-114"/>
       <path d="M 45.3125 1.5625 
L 35.9375 1.5625 
Q 35.15625 2.34375 34.765625 3.703125 
Q 34.375 5.078125 34.375 7.03125 
Q 31.640625 3.90625 27.734375 2.34375 
Q 23.828125 0.78125 19.53125 0.78125 
Q 13.28125 0.78125 8.984375 3.90625 
Q 4.6875 7.03125 4.6875 12.890625 
Q 4.6875 18.75 8.59375 22.265625 
Q 12.5 25.78125 20.703125 26.953125 
Q 26.171875 27.734375 30.265625 28.90625 
Q 34.375 30.078125 34.375 32.03125 
Q 34.375 34.375 32.609375 36.71875 
Q 30.859375 39.0625 25 39.0625 
Q 20.3125 39.0625 18.15625 37.296875 
Q 16.015625 35.546875 15.234375 32.421875 
L 6.640625 32.421875 
Q 7.421875 38.671875 12.296875 42.375 
Q 17.1875 46.09375 25 46.09375 
Q 33.59375 46.09375 37.890625 42.1875 
Q 42.1875 38.28125 42.1875 31.25 
L 42.1875 9.765625 
Q 42.1875 7.421875 42.96875 5.46875 
Q 43.75 3.515625 45.3125 1.5625 
z
M 34.375 16.015625 
L 34.375 23.828125 
Q 32.03125 23.046875 29.875 22.453125 
Q 27.734375 21.875 22.65625 21.09375 
Q 16.796875 20.3125 15.03125 18.359375 
Q 13.28125 16.40625 13.28125 13.671875 
Q 13.28125 11.328125 15.03125 9.5625 
Q 16.796875 7.8125 20.3125 7.8125 
Q 23.828125 7.8125 27.921875 9.765625 
Q 32.03125 11.71875 34.375 16.015625 
z
" id="SimHei-97"/>
       <path d="M 43.359375 2.734375 
Q 41.40625 1.953125 38.859375 1.359375 
Q 36.328125 0.78125 32.03125 0.78125 
Q 25 0.78125 20.703125 4.6875 
Q 16.40625 8.59375 16.40625 15.625 
L 16.40625 39.0625 
L 3.125 39.0625 
L 3.125 45.3125 
L 16.40625 45.3125 
L 16.40625 60.546875 
L 24.21875 60.546875 
L 24.21875 45.3125 
L 40.234375 45.3125 
L 40.234375 39.0625 
L 24.21875 39.0625 
L 24.21875 15.234375 
Q 24.21875 12.109375 25.78125 9.953125 
Q 27.34375 7.8125 31.640625 7.8125 
Q 35.9375 7.8125 38.671875 8.59375 
Q 41.40625 9.375 43.359375 10.546875 
z
" id="SimHei-116"/>
      </defs>
      <use xlink:href="#SimHei-114"/>
      <use x="50" xlink:href="#SimHei-97"/>
      <use x="100" xlink:href="#SimHei-116"/>
      <use x="150" xlink:href="#SimHei-101"/>
     </g>
    </g>
   </g>
   <g id="line2d_13">
    <path clip-path="url(#pa39d777189)" d="M 92.290909 202.975729 
L 93.103358 248.549687 
L 93.915807 365.015681 
L 94.322031 363.437667 
L 94.728256 325.46236 
L 95.13448 325.434684 
L 95.540704 348.864891 
L 95.946929 297.941363 
L 96.353153 342.467478 
L 96.759378 319.358911 
L 97.165602 269.798485 
L 97.571826 360.263289 
L 97.978051 343.943119 
L 98.384275 333.854639 
L 98.7905 345.999329 
L 99.196724 285.493823 
L 99.602948 330.351227 
L 100.009173 304.726549 
L 100.415397 332.248782 
L 100.821622 339.595311 
L 101.227846 358.141204 
L 101.63407 339.093626 
L 102.040295 354.59963 
L 102.446519 357.140699 
L 102.852744 282.729641 
L 103.258968 361.282212 
L 103.665192 362.995387 
L 104.071417 350.823274 
L 104.477641 346.649548 
L 104.883866 359.879842 
L 105.29009 343.647728 
L 105.696314 339.523681 
L 106.508763 267.639253 
L 106.914988 343.563416 
L 107.321212 329.850129 
L 107.727437 335.64719 
L 108.133661 268.157801 
L 108.539885 354.720051 
L 108.94611 339.567413 
L 109.352334 270.173082 
L 109.758559 349.511244 
L 110.164783 366.656009 
L 110.571007 268.488713 
L 110.977232 334.402975 
L 111.383456 354.404799 
L 111.789681 352.48812 
L 112.195905 349.581482 
L 112.602129 353.780157 
L 113.008354 336.219243 
L 113.414578 264.984549 
L 113.820803 292.005516 
L 114.227027 329.95698 
L 114.633251 343.165338 
L 115.039476 360.426664 
L 115.4457 359.67086 
L 115.851925 280.060682 
L 116.258149 284.007218 
L 116.664373 343.244551 
L 117.070598 362.677859 
L 117.476822 365.091202 
L 117.883047 349.748544 
L 118.289271 329.161231 
L 118.695495 302.443396 
L 119.10172 346.624297 
L 119.507944 340.181147 
L 119.914169 352.401412 
L 120.320393 349.285913 
L 120.726618 364.558934 
L 121.132842 318.539517 
L 121.539066 329.110987 
L 121.945291 296.317896 
L 122.351515 275.110605 
L 122.75774 281.357271 
L 123.163964 340.628804 
L 123.570188 363.837907 
L 123.976413 329.916284 
L 124.382637 308.517136 
L 124.788862 349.652812 
L 125.195086 332.858822 
L 125.60131 340.293392 
L 126.007535 276.49485 
L 126.413759 290.900978 
L 126.819984 334.902438 
L 127.226208 298.49206 
L 127.632432 353.985796 
L 128.038657 301.063977 
L 128.444881 270.158977 
L 128.851106 343.898627 
L 129.663554 308.231998 
L 130.069779 350.623104 
L 130.476003 335.415767 
L 130.882228 348.828232 
L 131.288452 356.894411 
L 131.694676 355.293364 
L 132.507125 287.606641 
L 132.91335 294.551908 
L 133.319574 282.910614 
L 133.725799 287.544477 
L 134.132023 315.461396 
L 134.538247 311.521097 
L 134.944472 336.970923 
L 135.350696 345.598531 
L 135.756921 337.635632 
L 136.163145 366.244006 
L 136.569369 365.465216 
L 136.975594 353.793006 
L 137.381818 361.394056 
L 137.788043 356.91648 
L 138.194267 357.129048 
L 138.600491 320.28291 
L 139.006716 340.602127 
L 139.41294 345.781664 
L 139.819165 321.279937 
L 140.225389 325.605793 
L 140.631613 319.133293 
L 141.037838 365.383672 
L 141.444062 366.693438 
L 141.850287 301.936557 
L 142.256511 285.784671 
L 142.662735 318.8327 
L 143.06896 315.096395 
L 143.475184 317.693326 
L 143.881409 266.629033 
L 144.287633 268.060325 
L 144.693857 286.565943 
L 145.100082 351.06933 
L 145.912531 338.099555 
L 146.318755 339.939752 
L 146.72498 357.57538 
L 147.131204 359.068281 
L 147.537428 361.997401 
L 147.943653 284.260785 
L 148.756102 258.053526 
L 149.162326 351.502283 
L 149.56855 331.886239 
L 149.974775 363.730861 
L 150.787224 328.800153 
L 151.193448 332.169038 
L 151.599672 338.960713 
L 152.005897 351.863064 
L 152.412121 351.773214 
L 152.818346 347.627529 
L 153.630794 364.67038 
L 154.037019 364.386986 
L 154.443243 339.108243 
L 154.849468 324.19716 
L 155.255692 341.479436 
L 155.661916 295.45986 
L 156.068141 297.40544 
L 156.474365 250.126734 
L 156.88059 291.830439 
L 157.286814 348.365788 
L 157.693038 343.145396 
L 158.099263 249.954161 
L 158.505487 283.112178 
L 158.911712 229.454835 
L 159.317936 282.618093 
L 159.724161 245.672742 
L 160.130385 338.694283 
L 160.536609 351.443869 
L 160.942834 352.559903 
L 161.349058 362.528056 
L 161.755283 353.475548 
L 162.161507 356.221058 
L 162.567731 340.213167 
L 162.973956 353.734177 
L 163.786405 291.444197 
L 164.192629 318.47765 
L 164.598853 329.16705 
L 165.005078 327.946105 
L 165.411302 360.391104 
L 165.817527 353.800795 
L 166.223751 306.775207 
L 166.629975 341.17518 
L 167.0362 349.949809 
L 167.442424 328.560289 
L 167.848649 266.581388 
L 168.254873 270.725944 
L 168.661097 320.45495 
L 169.067322 294.910817 
L 169.473546 349.045722 
L 169.879771 363.957575 
L 170.285995 355.041262 
L 170.692219 353.71466 
L 171.098444 364.143425 
L 171.504668 364.987176 
L 171.910893 363.160587 
L 172.317117 339.94699 
L 172.723342 344.166184 
L 173.53579 326.660366 
L 173.942015 335.174035 
L 174.348239 351.182792 
L 175.160688 268.344876 
L 175.566912 247.692388 
L 175.973137 272.666501 
L 176.379361 246.677642 
L 177.19181 301.536117 
L 177.598034 316.884371 
L 178.004259 349.593813 
L 178.410483 357.002659 
L 178.816708 367.85916 
L 179.222932 347.183263 
L 179.629156 348.430928 
L 180.441605 270.025059 
L 180.84783 246.502278 
L 181.254054 281.19011 
L 181.660278 345.023143 
L 182.066503 313.669645 
L 182.472727 323.346035 
L 182.878952 319.910996 
L 183.285176 342.330259 
L 183.6914 352.087693 
L 184.097625 350.625706 
L 184.503849 350.133419 
L 184.910074 347.090171 
L 185.316298 357.364627 
L 185.722523 339.85874 
L 186.128747 360.609789 
L 186.534971 365.107699 
L 186.941196 357.318843 
L 187.34742 358.985459 
L 187.753645 336.523322 
L 188.159869 359.329132 
L 188.566093 354.41578 
L 188.972318 316.486128 
L 189.378542 296.846996 
L 189.784767 347.885376 
L 190.190991 356.366582 
L 190.597215 339.793849 
L 191.00344 343.877447 
L 191.409664 363.565868 
L 191.815889 362.174513 
L 192.222113 337.475239 
L 192.628337 297.527257 
L 193.034562 288.883419 
L 193.847011 345.702624 
L 194.253235 358.239616 
L 194.659459 334.245233 
L 195.065684 338.819231 
L 195.471908 346.404004 
L 195.878133 366.540555 
L 196.284357 365.081954 
L 196.690581 333.005838 
L 197.096806 281.117385 
L 197.50303 306.784798 
L 197.909255 342.149665 
L 198.315479 350.155402 
L 198.721704 362.767992 
L 199.127928 350.7037 
L 199.534152 334.39355 
L 200.346601 260.078969 
L 200.752826 332.579565 
L 201.15905 356.108667 
L 201.565274 303.629138 
L 201.971499 343.905825 
L 202.377723 360.82306 
L 202.783948 329.10119 
L 203.190172 358.288018 
L 203.596396 314.093012 
L 204.002621 368.611115 
L 204.408845 366.310014 
L 204.81507 357.021399 
L 205.221294 327.256789 
L 205.627518 326.877619 
L 206.033743 349.369937 
L 206.439967 282.173586 
L 207.252416 356.760865 
L 207.65864 360.62398 
L 208.471089 339.536456 
L 208.877314 345.828571 
L 209.283538 342.425589 
L 209.689762 357.143473 
L 210.095987 357.144478 
L 210.502211 346.331557 
L 211.31466 311.652814 
L 211.720885 268.29218 
L 212.127109 319.624147 
L 212.533333 354.740963 
L 212.939558 343.618392 
L 213.345782 340.078585 
L 213.752007 325.759421 
L 214.158231 339.110985 
L 214.564455 302.130794 
L 214.97068 288.108775 
L 215.376904 333.489627 
L 215.783129 346.827191 
L 216.189353 343.657658 
L 216.595577 336.549966 
L 217.001802 285.742047 
L 217.408026 275.52323 
L 217.814251 304.613421 
L 218.220475 309.468116 
L 218.626699 355.791856 
L 219.032924 359.252472 
L 219.439148 334.370548 
L 219.845373 325.828879 
L 220.251597 338.278311 
L 220.657821 365.004254 
L 221.064046 269.538387 
L 221.47027 304.618853 
L 221.876495 327.499177 
L 222.282719 343.266595 
L 222.688943 294.499502 
L 223.095168 261.688396 
L 223.501392 262.474047 
L 223.907617 271.635563 
L 224.313841 249.93187 
L 224.720066 275.142366 
L 225.12629 253.797541 
L 225.532514 330.922949 
L 225.938739 335.001094 
L 226.344963 352.194514 
L 226.751188 359.836094 
L 227.157412 296.937493 
L 227.563636 323.474621 
L 227.969861 334.558272 
L 228.376085 339.136417 
L 228.78231 285.299123 
L 229.188534 335.505239 
L 229.594758 325.876856 
L 230.000983 294.945543 
L 230.407207 352.245126 
L 230.813432 311.766312 
L 231.219656 329.93739 
L 231.62588 320.381319 
L 232.032105 327.979052 
L 232.438329 310.895297 
L 232.844554 324.707749 
L 233.250778 334.133987 
L 234.063227 305.91895 
L 234.469451 333.34306 
L 234.875676 322.667483 
L 235.2819 306.885313 
L 235.688124 355.056825 
L 236.094349 352.871777 
L 236.500573 298.627109 
L 236.906798 260.820049 
L 237.719247 350.826382 
L 238.125471 357.625042 
L 238.531695 361.890928 
L 238.93792 354.458298 
L 239.344144 355.800513 
L 239.750369 360.833773 
L 240.156593 340.351798 
L 240.562817 311.471293 
L 240.969042 272.795248 
L 241.375266 254.218969 
L 241.781491 276.132633 
L 242.187715 256.485851 
L 242.593939 335.646528 
L 243.000164 357.399098 
L 243.406388 359.40141 
L 243.812613 335.82398 
L 244.218837 337.727172 
L 244.625061 327.453686 
L 245.031286 335.621472 
L 245.43751 340.967267 
L 245.843735 319.984934 
L 246.249959 261.370588 
L 246.656183 359.43921 
L 247.062408 362.545479 
L 247.468632 363.578225 
L 247.874857 333.937399 
L 248.281081 347.844302 
L 248.687305 341.765664 
L 249.09353 360.041017 
L 249.499754 343.392276 
L 249.905979 340.532075 
L 250.718428 364.186315 
L 251.124652 362.220299 
L 251.530876 288.46243 
L 251.937101 352.664765 
L 252.343325 342.774773 
L 253.155774 360.537424 
L 253.561998 345.238168 
L 253.968223 348.802867 
L 254.374447 350.850654 
L 254.780672 303.70724 
L 255.186896 309.518545 
L 255.59312 283.943142 
L 255.999345 291.280402 
L 256.405569 294.859045 
L 256.811794 311.395233 
L 257.218018 349.311822 
L 257.624242 346.836355 
L 258.030467 337.582391 
L 258.436691 350.399595 
L 258.842916 357.56134 
L 259.655364 363.651735 
L 260.061589 338.485146 
L 260.467813 330.937931 
L 260.874038 340.229867 
L 261.280262 341.026125 
L 261.686486 309.53908 
L 262.092711 244.64436 
L 262.498935 299.943849 
L 262.90516 336.524823 
L 263.311384 309.955019 
L 263.717609 348.744142 
L 264.123833 362.906414 
L 264.530057 355.237526 
L 264.936282 358.218226 
L 265.342506 305.750072 
L 265.748731 271.201923 
L 266.154955 269.946993 
L 266.561179 285.937963 
L 266.967404 316.721788 
L 267.373628 306.901349 
L 267.779853 250.483791 
L 268.186077 302.152923 
L 268.592301 335.235044 
L 268.998526 358.646256 
L 269.40475 327.3822 
L 269.810975 282.293311 
L 270.217199 283.439084 
L 270.623423 286.749069 
L 271.029648 344.141243 
L 271.435872 349.181651 
L 271.842097 339.871439 
L 272.248321 342.208332 
L 272.654545 256.759471 
L 273.06077 254.680007 
L 273.873219 309.410716 
L 274.279443 284.144968 
L 274.685667 279.138694 
L 275.091892 350.726709 
L 275.498116 299.748508 
L 276.310565 352.388636 
L 276.71679 363.786488 
L 277.123014 361.117608 
L 277.529238 290.913199 
L 277.935463 331.268899 
L 278.341687 339.561286 
L 279.154136 350.432731 
L 279.56036 336.194743 
L 279.966585 308.152449 
L 280.372809 337.778151 
L 280.779034 354.018358 
L 281.185258 267.829246 
L 281.591482 270.646278 
L 281.997707 260.448111 
L 282.403931 261.519941 
L 282.810156 259.197057 
L 283.622604 364.534441 
L 284.028829 348.681391 
L 284.841278 296.290404 
L 285.247502 282.831014 
L 285.653726 288.433327 
L 286.059951 349.319396 
L 286.466175 324.51499 
L 286.8724 339.216109 
L 287.278624 362.789513 
L 287.684848 361.69846 
L 288.091073 329.805556 
L 288.497297 358.661391 
L 288.903522 298.884591 
L 289.309746 356.682019 
L 289.715971 353.954988 
L 290.528419 327.968235 
L 290.934644 319.335554 
L 291.340868 323.458475 
L 291.747093 360.052422 
L 292.153317 357.941147 
L 292.559541 314.904552 
L 292.965766 358.163528 
L 293.37199 350.604174 
L 293.778215 329.955135 
L 294.184439 362.51768 
L 294.996888 267.036566 
L 295.403112 326.498744 
L 295.809337 308.365592 
L 296.215561 324.126298 
L 296.621785 332.04581 
L 297.02801 344.602399 
L 297.434234 363.354691 
L 297.840459 360.951812 
L 298.246683 330.798734 
L 298.652907 360.303687 
L 299.059132 344.958385 
L 299.465356 364.853554 
L 299.871581 313.143403 
L 300.277805 326.43544 
L 300.684029 363.712538 
L 301.090254 341.762369 
L 301.902703 365.032101 
L 302.308927 361.64557 
L 302.715152 314.840132 
L 303.121376 308.630733 
L 303.5276 339.196775 
L 303.933825 299.226466 
L 304.340049 336.035773 
L 304.746274 352.152757 
L 305.152498 324.949099 
L 305.558722 268.082509 
L 305.964947 268.308279 
L 306.371171 356.49829 
L 307.18362 344.122288 
L 307.589844 352.9855 
L 307.996069 368.332187 
L 308.402293 308.494421 
L 308.808518 354.524833 
L 309.214742 362.472916 
L 309.620966 309.002317 
L 310.027191 275.204872 
L 310.433415 273.821395 
L 310.83964 299.685081 
L 311.245864 348.948315 
L 311.652088 341.645505 
L 312.058313 310.174366 
L 312.464537 347.475793 
L 312.870762 317.389471 
L 313.276986 274.314822 
L 313.68321 320.633655 
L 314.089435 326.032925 
L 314.495659 349.190078 
L 314.901884 357.192864 
L 315.308108 347.223615 
L 315.714333 346.808134 
L 316.120557 346.744087 
L 316.526781 354.908013 
L 316.933006 365.451233 
L 317.33923 367.45831 
L 317.745455 292.359011 
L 318.151679 295.136803 
L 318.557903 319.122611 
L 318.964128 330.750671 
L 319.370352 331.964706 
L 319.776577 362.976721 
L 320.182801 360.155773 
L 320.589025 315.439819 
L 321.807699 269.912673 
L 322.213923 290.517551 
L 322.620147 234.929756 
L 323.026372 286.707961 
L 323.432596 247.297979 
L 323.838821 331.155601 
L 324.245045 345.390622 
L 324.651269 325.208866 
L 325.057494 293.330028 
L 325.463718 278.601318 
L 325.869943 277.243113 
L 326.276167 281.372829 
L 326.682391 275.944729 
L 327.088616 264.968731 
L 327.49484 266.809261 
L 327.901065 346.236359 
L 328.713514 338.15676 
L 329.119738 341.425053 
L 329.525962 336.233291 
L 329.932187 358.6787 
L 330.338411 362.062242 
L 330.744636 362.464577 
L 331.15086 298.212244 
L 331.557084 304.179475 
L 331.963309 356.199772 
L 332.369533 342.9758 
L 332.775758 325.181838 
L 333.181982 275.654049 
L 333.588206 287.192042 
L 333.994431 264.167631 
L 334.400655 258.122761 
L 334.80688 260.220837 
L 335.213104 269.642624 
L 335.619328 331.565603 
L 336.025553 319.677701 
L 336.431777 249.297518 
L 336.838002 265.979779 
L 337.244226 251.146406 
L 337.65045 253.30045 
L 338.056675 251.546685 
L 338.462899 256.544495 
L 338.869124 342.836589 
L 339.275348 312.314776 
L 339.681572 305.253342 
L 340.087797 345.526871 
L 340.494021 346.504702 
L 340.900246 329.079658 
L 341.30647 324.703232 
L 341.712695 313.920005 
L 342.118919 364.684816 
L 342.525143 362.764114 
L 342.931368 353.71171 
L 343.743817 364.193362 
L 344.150041 344.529559 
L 344.556265 343.54269 
L 344.96249 353.633619 
L 345.368714 352.4831 
L 345.774939 331.035288 
L 346.181163 354.622306 
L 346.587387 287.295619 
L 346.993612 295.290435 
L 347.399836 339.929502 
L 347.806061 345.73357 
L 348.212285 359.002468 
L 348.618509 363.774941 
L 349.024734 330.74098 
L 349.430958 330.651991 
L 349.837183 327.443853 
L 350.243407 298.487586 
L 350.649631 323.122212 
L 351.055856 304.756688 
L 351.46208 355.056365 
L 351.868305 311.251201 
L 352.274529 328.939229 
L 352.680753 352.804449 
L 353.086978 343.641302 
L 353.493202 324.877668 
L 353.899427 295.837869 
L 354.305651 229.988168 
L 354.711876 253.652776 
L 355.1181 218.125648 
L 355.524324 257.817795 
L 355.930549 270.230098 
L 356.336773 355.505675 
L 356.742998 349.159054 
L 357.149222 310.935409 
L 357.555446 320.443454 
L 357.961671 348.929558 
L 358.367895 354.62126 
L 358.77412 367.63597 
L 359.180344 355.801252 
L 359.586568 289.678817 
L 360.399017 361.882415 
L 360.805242 335.318607 
L 361.211466 348.86749 
L 361.61769 350.378709 
L 362.023915 360.763795 
L 362.836364 289.876411 
L 363.242588 262.140197 
L 363.648812 287.496924 
L 364.055037 332.435865 
L 364.461261 360.450556 
L 364.867486 362.067122 
L 365.27371 350.856352 
L 365.679934 293.291569 
L 366.898608 246.629488 
L 367.304832 315.281123 
L 367.711057 270.773134 
L 368.117281 269.457035 
L 368.523505 337.725763 
L 368.92973 349.203456 
L 369.335954 321.483074 
L 369.742179 244.015371 
L 370.148403 265.048676 
L 370.960852 359.323472 
L 371.367076 277.84855 
L 371.773301 263.771439 
L 372.179525 281.288349 
L 372.585749 327.586089 
L 372.991974 340.440853 
L 373.398198 360.952614 
L 374.210647 280.74959 
L 374.616871 274.34346 
L 375.023096 353.830074 
L 375.42932 311.115228 
L 375.835545 359.038367 
L 376.241769 353.256453 
L 376.647993 360.910016 
L 377.054218 339.887136 
L 377.460442 329.186706 
L 377.866667 339.753124 
L 378.272891 324.599987 
L 378.679115 323.423276 
L 379.08534 327.894107 
L 379.491564 334.552698 
L 379.897789 360.582058 
L 380.304013 301.033092 
L 380.710238 301.637453 
L 381.116462 304.371325 
L 381.522686 336.026451 
L 381.928911 310.057145 
L 382.335135 252.6126 
L 382.74136 280.713678 
L 383.147584 268.582705 
L 383.553808 248.489293 
L 383.960033 293.319066 
L 384.772482 345.912019 
L 385.178706 357.937647 
L 385.58493 346.859511 
L 385.991155 340.841442 
L 386.397379 262.408317 
L 386.803604 279.079484 
L 387.209828 257.131474 
L 387.616052 280.074656 
L 388.022277 268.683206 
L 388.428501 320.085949 
L 388.834726 354.712283 
L 389.24095 332.078286 
L 389.647174 345.209402 
L 390.053399 324.620569 
L 390.459623 332.067897 
L 390.865848 335.218642 
L 391.272072 345.795876 
L 391.678296 342.462176 
L 392.084521 362.297575 
L 392.490745 349.042928 
L 392.89697 298.38197 
L 393.303194 354.917755 
L 393.709419 363.680623 
L 394.115643 364.756308 
L 394.521867 364.729224 
L 394.928092 340.415554 
L 395.334316 248.011362 
L 396.146765 331.341061 
L 396.552989 327.773658 
L 396.959214 363.229643 
L 397.365438 364.266645 
L 397.771663 324.351939 
L 398.177887 307.327617 
L 398.584111 330.765852 
L 398.990336 317.777552 
L 399.39656 267.150039 
L 399.802785 326.809866 
L 400.209009 293.570378 
L 400.615233 341.692944 
L 401.021458 365.709042 
L 401.427682 362.651255 
L 401.833907 339.631299 
L 402.240131 295.34308 
L 402.646355 338.755585 
L 403.05258 344.635126 
L 403.458804 334.647277 
L 403.865029 335.634642 
L 404.271253 351.068191 
L 404.677477 321.872808 
L 405.083702 363.080916 
L 405.489926 359.200729 
L 405.896151 358.444825 
L 406.302375 332.775713 
L 406.7086 353.712188 
L 407.114824 359.591334 
L 407.521048 263.91933 
L 407.927273 270.66764 
L 408.333497 240.546705 
L 409.145946 342.756249 
L 409.55217 338.846855 
L 409.958395 288.906578 
L 410.364619 348.374676 
L 411.583292 245.569533 
L 411.989517 267.543199 
L 412.395741 246.62501 
L 412.801966 271.140939 
L 413.614414 362.187343 
L 414.020639 361.560108 
L 414.426863 365.103812 
L 414.833088 297.663222 
L 415.239312 351.474357 
L 415.645536 358.093255 
L 416.051761 272.111642 
L 416.86421 331.510355 
L 417.270434 183.675606 
L 417.676658 160.9875 
L 420.926454 160.9875 
L 421.332678 308.963382 
L 498.109091 308.963382 
L 498.109091 308.963382 
" style="fill:none;stroke:#0000ff;stroke-linecap:square;stroke-width:1.5;"/>
   </g>
   <g id="line2d_14">
    <path clip-path="url(#pa39d777189)" d="M 92.290909 249.838089 
L 92.697133 245.737253 
L 93.103358 240.253709 
L 93.509582 236.585638 
L 94.322031 214.101965 
L 94.728256 223.481378 
L 95.13448 213.116066 
L 95.540704 215.479194 
L 95.946929 226.025097 
L 96.353153 210.194486 
L 96.759378 227.409788 
L 97.165602 220.666265 
L 97.571826 205.128696 
L 97.978051 216.769464 
L 98.384275 239.457275 
L 99.196724 209.985852 
L 99.602948 217.721236 
L 100.009173 215.561358 
L 100.415397 227.332568 
L 101.227846 207.443983 
L 101.63407 223.473315 
L 102.040295 207.141884 
L 102.446519 230.848716 
L 102.852744 216.389219 
L 103.258968 231.092718 
L 104.071417 224.189943 
L 104.477641 223.045578 
L 104.883866 211.431358 
L 105.29009 208.357202 
L 106.102539 225.081563 
L 106.508763 207.584248 
L 106.914988 228.309434 
L 107.321212 220.675882 
L 107.727437 221.833682 
L 108.133661 219.254269 
L 108.539885 218.851911 
L 108.94611 217.433612 
L 109.352334 245.094879 
L 109.758559 208.133144 
L 110.164783 229.515427 
L 110.571007 225.069922 
L 110.977232 207.175076 
L 111.383456 219.402255 
L 111.789681 220.348767 
L 112.195905 219.508333 
L 112.602129 215.292993 
L 113.008354 219.382927 
L 113.414578 236.732604 
L 113.820803 214.37035 
L 114.633251 236.590645 
L 115.039476 212.65979 
L 115.4457 225.22261 
L 115.851925 214.488082 
L 116.258149 213.685498 
L 116.664373 229.374754 
L 117.070598 220.287256 
L 117.476822 227.313265 
L 117.883047 221.378032 
L 118.289271 232.130429 
L 118.695495 225.943274 
L 119.10172 223.704268 
L 119.507944 222.887517 
L 119.914169 236.723842 
L 120.320393 207.128854 
L 120.726618 236.50058 
L 121.132842 208.156372 
L 121.539066 231.839069 
L 121.945291 224.307123 
L 122.351515 220.817882 
L 122.75774 220.232593 
L 123.163964 224.19747 
L 123.570188 233.366114 
L 123.976413 212.094446 
L 124.382637 222.238506 
L 124.788862 216.042282 
L 125.195086 228.223815 
L 126.007535 213.711706 
L 126.413759 216.533205 
L 126.819984 217.677965 
L 127.226208 216.181505 
L 127.632432 211.158129 
L 128.038657 224.725855 
L 128.444881 229.018072 
L 128.851106 215.00613 
L 129.25733 208.605903 
L 129.663554 225.822582 
L 130.069779 228.705744 
L 130.476003 219.239223 
L 130.882228 222.100148 
L 131.288452 218.196775 
L 131.694676 219.753628 
L 132.100901 224.687462 
L 132.91335 207.301057 
L 133.725799 224.67913 
L 134.132023 217.505551 
L 134.538247 223.735886 
L 134.944472 224.779275 
L 135.350696 222.841402 
L 135.756921 214.235265 
L 136.163145 216.279089 
L 136.569369 228.786319 
L 136.975594 234.853024 
L 137.381818 213.657769 
L 137.788043 228.166037 
L 138.194267 216.062896 
L 138.600491 229.858626 
L 139.006716 212.953841 
L 139.41294 216.975626 
L 140.631613 224.106045 
L 141.444062 214.17433 
L 141.850287 227.69988 
L 142.256511 219.012336 
L 142.662735 221.997169 
L 143.475184 208.342624 
L 143.881409 210.943547 
L 144.287633 220.711189 
L 144.693857 220.716415 
L 145.100082 223.48333 
L 145.912531 222.768497 
L 146.318755 224.628887 
L 146.72498 222.79464 
L 147.131204 224.655489 
L 147.537428 219.409158 
L 147.943653 227.054663 
L 148.349877 213.312327 
L 148.756102 224.915312 
L 149.162326 223.021376 
L 149.56855 224.289799 
L 149.974775 208.669065 
L 150.380999 221.070191 
L 150.787224 227.982059 
L 151.193448 217.317772 
L 151.599672 226.834005 
L 152.005897 227.613655 
L 152.412121 227.724628 
L 152.818346 217.555391 
L 153.22457 220.786548 
L 153.630794 229.954466 
L 154.037019 231.499892 
L 154.443243 211.1815 
L 154.849468 214.346438 
L 155.255692 228.554638 
L 155.661916 218.277628 
L 156.068141 218.939534 
L 156.474365 224.60223 
L 156.88059 222.052366 
L 157.286814 211.656509 
L 157.693038 212.64723 
L 158.099263 229.525342 
L 158.505487 205.360474 
L 158.911712 240.255657 
L 159.317936 206.050751 
L 159.724161 219.751505 
L 160.130385 218.764223 
L 160.536609 230.312425 
L 160.942834 211.516796 
L 161.349058 218.15789 
L 161.755283 216.019391 
L 162.161507 222.606056 
L 162.567731 224.611895 
L 162.973956 224.784992 
L 163.38018 221.615898 
L 163.786405 219.380241 
L 164.192629 224.364248 
L 164.598853 220.689202 
L 165.005078 220.580124 
L 165.411302 224.67677 
L 165.817527 225.178343 
L 166.223751 215.399649 
L 166.629975 227.310778 
L 167.0362 203.419944 
L 167.442424 215.49822 
L 168.254873 221.681858 
L 168.661097 238.736342 
L 169.067322 222.274357 
L 169.473546 221.517846 
L 169.879771 215.99038 
L 170.285995 236.387526 
L 170.692219 213.007929 
L 171.098444 235.395289 
L 171.504668 221.229998 
L 171.910893 211.721842 
L 172.723342 221.086971 
L 173.129566 229.947674 
L 173.942015 212.559649 
L 174.348239 218.838098 
L 174.754464 222.252614 
L 175.160688 213.6424 
L 175.566912 226.376311 
L 175.973137 214.688537 
L 176.379361 224.827842 
L 176.785586 216.827662 
L 177.19181 226.870225 
L 177.598034 227.434079 
L 178.004259 218.790292 
L 178.410483 219.470918 
L 178.816708 226.129984 
L 179.222932 214.61074 
L 179.629156 208.199271 
L 180.035381 227.746414 
L 180.441605 216.007337 
L 180.84783 229.694366 
L 181.254054 205.148676 
L 181.660278 264.898405 
L 182.066503 217.154845 
L 182.472727 190.963415 
L 182.878952 238.99405 
L 183.6914 209.800025 
L 184.097625 226.19055 
L 184.503849 227.955988 
L 184.910074 245.224492 
L 185.316298 196.96402 
L 185.722523 229.518084 
L 186.128747 219.394757 
L 186.941196 236.895776 
L 187.34742 219.996296 
L 187.753645 223.567563 
L 188.159869 214.980145 
L 188.566093 223.320577 
L 188.972318 229.263112 
L 189.378542 214.928867 
L 189.784767 229.388345 
L 190.190991 211.53239 
L 190.597215 223.895932 
L 191.00344 223.557033 
L 191.409664 219.83712 
L 191.815889 220.543963 
L 192.222113 220.781391 
L 192.628337 220.184985 
L 193.034562 225.513393 
L 193.440786 217.074159 
L 193.847011 241.728849 
L 194.253235 222.262546 
L 194.659459 242.167027 
L 195.065684 202.610152 
L 195.471908 231.649315 
L 195.878133 231.041412 
L 196.284357 231.341304 
L 196.690581 215.720025 
L 197.096806 224.316065 
L 197.50303 223.98098 
L 197.909255 245.608756 
L 198.315479 201.539453 
L 198.721704 225.406843 
L 199.127928 231.385161 
L 199.534152 204.924715 
L 199.940377 219.129119 
L 200.346601 216.884893 
L 200.752826 222.4685 
L 201.15905 220.09757 
L 201.565274 229.796768 
L 201.971499 211.553121 
L 202.377723 226.182693 
L 202.783948 218.47262 
L 203.190172 231.896614 
L 203.596396 216.26093 
L 204.002621 226.833195 
L 204.408845 231.324022 
L 204.81507 227.012875 
L 205.221294 230.509643 
L 205.627518 224.939587 
L 206.033743 202.371476 
L 206.439967 216.411291 
L 206.846192 225.534901 
L 207.252416 219.021443 
L 207.65864 240.646634 
L 208.064865 214.408741 
L 208.471089 229.291435 
L 208.877314 224.228866 
L 209.283538 230.13114 
L 209.689762 230.972977 
L 210.095987 218.473401 
L 210.502211 230.800095 
L 210.908436 228.149134 
L 211.31466 209.934213 
L 211.720885 217.035486 
L 212.127109 217.897469 
L 212.533333 231.771642 
L 212.939558 213.386936 
L 213.345782 207.0308 
L 213.752007 219.186081 
L 214.158231 222.049493 
L 214.564455 220.064714 
L 214.97068 221.231522 
L 215.783129 213.156722 
L 216.189353 222.666714 
L 216.595577 210.719937 
L 217.001802 240.681684 
L 217.408026 219.312331 
L 217.814251 217.954261 
L 218.220475 228.63585 
L 218.626699 210.748712 
L 219.032924 227.956761 
L 219.439148 217.78009 
L 219.845373 226.471969 
L 220.251597 200.538495 
L 220.657821 224.291865 
L 221.064046 229.440673 
L 221.47027 210.579765 
L 222.282719 220.344315 
L 222.688943 222.348615 
L 223.095168 228.583138 
L 223.501392 223.60555 
L 223.907617 214.326621 
L 224.313841 226.039873 
L 224.720066 217.571361 
L 225.12629 222.343433 
L 225.532514 235.91596 
L 225.938739 222.75201 
L 226.344963 227.957293 
L 226.751188 217.697102 
L 227.157412 225.583163 
L 227.563636 217.853617 
L 227.969861 218.526393 
L 228.376085 216.627076 
L 228.78231 220.169098 
L 229.188534 214.618753 
L 229.594758 222.777002 
L 230.000983 216.125184 
L 230.407207 220.679346 
L 230.813432 215.169393 
L 231.219656 223.115023 
L 231.62588 218.947894 
L 232.032105 230.270698 
L 232.438329 225.570157 
L 232.844554 213.680267 
L 233.250778 216.543731 
L 233.657002 215.123094 
L 234.063227 229.727839 
L 234.469451 219.268365 
L 234.875676 218.546997 
L 235.2819 220.27581 
L 235.688124 209.692447 
L 236.094349 221.454301 
L 236.500573 218.264663 
L 236.906798 226.01477 
L 237.313022 210.205971 
L 237.719247 220.782328 
L 238.125471 218.752952 
L 238.531695 237.520102 
L 238.93792 216.745899 
L 239.344144 237.322331 
L 239.750369 213.05504 
L 240.156593 223.210919 
L 240.562817 224.634727 
L 240.969042 216.961769 
L 241.375266 230.262976 
L 241.781491 215.431854 
L 242.187715 228.848003 
L 242.593939 221.700433 
L 243.000164 217.953807 
L 243.406388 232.486043 
L 243.812613 231.452501 
L 244.218837 216.107129 
L 244.625061 224.41085 
L 245.031286 226.288858 
L 245.43751 219.187813 
L 245.843735 219.080599 
L 246.249959 233.082732 
L 246.656183 220.092695 
L 247.062408 223.017966 
L 247.468632 223.412732 
L 247.874857 217.952363 
L 248.281081 217.551884 
L 248.687305 227.566352 
L 249.09353 218.763095 
L 249.499754 219.992778 
L 249.905979 212.537032 
L 250.312203 220.136063 
L 250.718428 222.033747 
L 251.124652 216.574395 
L 251.530876 219.184438 
L 251.937101 219.802197 
L 252.343325 231.218246 
L 252.74955 220.046797 
L 253.155774 215.932601 
L 253.968223 226.24234 
L 254.374447 216.711625 
L 254.780672 241.296497 
L 255.186896 219.449075 
L 255.59312 216.810519 
L 255.999345 222.258782 
L 256.405569 207.577036 
L 256.811794 237.229158 
L 257.218018 205.320373 
L 257.624242 237.707471 
L 258.030467 219.985361 
L 258.436691 230.463356 
L 258.842916 215.918065 
L 259.24914 225.066848 
L 259.655364 222.098379 
L 260.061589 227.154486 
L 260.467813 219.71442 
L 260.874038 225.803122 
L 261.280262 219.293325 
L 261.686486 217.665847 
L 262.092711 225.093643 
L 262.498935 215.640341 
L 262.90516 213.617642 
L 263.311384 220.493695 
L 263.717609 219.763744 
L 264.123833 220.453376 
L 264.530057 211.908443 
L 264.936282 222.32165 
L 265.342506 220.111653 
L 265.748731 220.57619 
L 266.154955 227.372191 
L 266.561179 212.466283 
L 266.967404 238.14288 
L 267.373628 206.361921 
L 267.779853 237.469586 
L 268.186077 209.047472 
L 268.592301 226.074431 
L 268.998526 220.397231 
L 269.40475 223.212222 
L 269.810975 218.289882 
L 270.217199 231.999209 
L 270.623423 215.631533 
L 271.029648 225.830292 
L 271.435872 212.635483 
L 271.842097 225.277579 
L 272.248321 207.92104 
L 272.654545 211.206233 
L 273.06077 236.73967 
L 273.466994 217.789803 
L 273.873219 217.550954 
L 274.279443 213.24294 
L 274.685667 215.833419 
L 275.091892 224.653971 
L 275.498116 219.234337 
L 275.904341 226.624363 
L 276.310565 230.115106 
L 276.71679 218.560093 
L 277.123014 211.015069 
L 277.935463 217.75126 
L 278.341687 214.766116 
L 278.747912 226.605535 
L 279.154136 228.059126 
L 279.56036 224.072256 
L 279.966585 223.757086 
L 280.372809 238.88441 
L 280.779034 207.068796 
L 281.185258 232.483776 
L 281.591482 214.34891 
L 281.997707 219.23022 
L 282.403931 221.966816 
L 282.810156 219.239573 
L 283.21638 219.563968 
L 283.622604 223.038045 
L 284.028829 222.146241 
L 284.435053 229.83917 
L 284.841278 226.982699 
L 285.247502 213.728669 
L 285.653726 218.472669 
L 286.059951 225.421705 
L 286.466175 216.707126 
L 286.8724 212.093082 
L 287.684848 229.053615 
L 288.091073 219.800775 
L 288.497297 223.709401 
L 288.903522 224.852265 
L 289.309746 219.762605 
L 289.715971 218.322136 
L 290.122195 216.45584 
L 290.528419 217.580704 
L 290.934644 223.186148 
L 291.340868 218.447173 
L 291.747093 231.882401 
L 292.153317 224.775599 
L 292.559541 219.616836 
L 292.965766 238.732662 
L 293.37199 213.072049 
L 293.778215 200.647657 
L 294.184439 251.01581 
L 294.590663 218.051494 
L 294.996888 206.830262 
L 295.403112 223.355446 
L 295.809337 218.410289 
L 296.215561 219.945018 
L 296.621785 219.623422 
L 297.02801 220.480448 
L 297.434234 220.430924 
L 297.840459 225.864861 
L 298.246683 217.403054 
L 298.652907 225.87096 
L 299.059132 212.46609 
L 299.465356 231.22651 
L 299.871581 211.93458 
L 300.277805 219.749395 
L 300.684029 218.313082 
L 301.090254 233.190161 
L 301.496478 222.374769 
L 301.902703 218.253973 
L 302.308927 218.961404 
L 302.715152 227.024056 
L 303.121376 210.051942 
L 303.5276 238.661975 
L 303.933825 227.164718 
L 304.340049 232.630273 
L 304.746274 220.928959 
L 305.152498 214.083707 
L 305.558722 226.912124 
L 305.964947 220.855588 
L 306.371171 239.81207 
L 306.777396 199.941695 
L 307.18362 217.498352 
L 307.589844 220.372801 
L 307.996069 228.042693 
L 308.808518 222.621675 
L 309.214742 226.32247 
L 309.620966 225.905588 
L 310.027191 224.573219 
L 310.433415 215.791481 
L 310.83964 210.37484 
L 311.245864 220.729608 
L 311.652088 219.935353 
L 312.058313 217.267213 
L 312.464537 206.515706 
L 312.870762 236.982016 
L 313.276986 221.395779 
L 313.68321 224.250346 
L 314.089435 216.741804 
L 314.495659 214.796915 
L 314.901884 210.708003 
L 315.308108 234.16912 
L 315.714333 229.653744 
L 316.120557 216.154375 
L 316.526781 237.398231 
L 316.933006 227.053004 
L 317.33923 231.839563 
L 317.745455 215.286156 
L 318.151679 231.387671 
L 318.557903 227.124171 
L 318.964128 224.997058 
L 319.370352 213.157413 
L 319.776577 228.033127 
L 320.182801 223.399288 
L 320.589025 212.141447 
L 320.99525 225.063025 
L 321.401474 209.40199 
L 321.807699 221.585965 
L 322.213923 214.878728 
L 322.620147 228.233235 
L 323.026372 213.06241 
L 323.432596 224.256945 
L 323.838821 222.061922 
L 324.245045 223.031085 
L 324.651269 224.465164 
L 325.057494 212.398915 
L 325.463718 223.899251 
L 325.869943 229.40438 
L 326.276167 207.043312 
L 326.682391 227.473872 
L 327.088616 217.570063 
L 327.49484 223.064657 
L 327.901065 224.836733 
L 328.307289 230.201263 
L 328.713514 219.125684 
L 329.119738 219.927078 
L 329.525962 223.202497 
L 329.932187 216.942236 
L 330.338411 223.165328 
L 330.744636 213.871572 
L 331.15086 224.714123 
L 331.557084 214.325041 
L 332.369533 230.730006 
L 332.775758 210.361259 
L 333.181982 232.672704 
L 333.588206 216.678656 
L 333.994431 223.083496 
L 334.400655 227.497068 
L 334.80688 218.067137 
L 335.213104 218.732201 
L 335.619328 229.962417 
L 336.025553 223.505025 
L 336.431777 231.817994 
L 336.838002 214.740801 
L 337.244226 221.153142 
L 337.65045 223.905821 
L 338.056675 224.62149 
L 338.462899 221.183214 
L 338.869124 230.593746 
L 339.275348 215.0396 
L 339.681572 218.250472 
L 340.087797 229.524967 
L 340.494021 216.461358 
L 340.900246 227.653888 
L 341.30647 216.363467 
L 342.118919 239.878351 
L 342.525143 215.631854 
L 343.337592 226.547938 
L 343.743817 230.975369 
L 344.150041 222.492692 
L 344.556265 232.197451 
L 344.96249 211.005456 
L 345.368714 217.271318 
L 345.774939 215.42231 
L 346.181163 225.387319 
L 346.587387 224.011446 
L 346.993612 212.417275 
L 347.399836 214.79025 
L 347.806061 213.573606 
L 348.212285 226.149109 
L 348.618509 229.136461 
L 349.024734 222.384958 
L 349.430958 229.026075 
L 349.837183 217.257469 
L 350.243407 219.970962 
L 350.649631 229.26425 
L 351.055856 219.210251 
L 351.868305 228.644162 
L 352.274529 216.393954 
L 352.680753 234.779903 
L 353.086978 222.427052 
L 353.493202 223.918344 
L 353.899427 221.880957 
L 354.305651 234.093995 
L 354.711876 213.002959 
L 355.1181 237.206434 
L 355.524324 207.15164 
L 355.930549 219.483592 
L 356.336773 219.590765 
L 356.742998 220.916497 
L 357.149222 215.991852 
L 357.555446 225.944118 
L 357.961671 225.222094 
L 358.367895 221.284076 
L 358.77412 232.845747 
L 359.180344 223.449819 
L 359.586568 237.155941 
L 360.399017 207.185942 
L 360.805242 226.952979 
L 361.211466 201.578104 
L 361.61769 232.732667 
L 362.023915 220.952969 
L 362.430139 230.898032 
L 362.836364 220.982436 
L 363.242588 221.264578 
L 363.648812 219.224467 
L 364.055037 223.282169 
L 364.461261 218.358929 
L 364.867486 221.963588 
L 365.27371 219.460866 
L 365.679934 229.262383 
L 366.086159 210.70893 
L 366.492383 221.264578 
L 366.898608 227.006248 
L 367.304832 219.110984 
L 368.117281 217.352878 
L 368.523505 228.899441 
L 368.92973 214.759276 
L 369.742179 225.866772 
L 370.148403 213.345773 
L 370.554627 231.638182 
L 370.960852 221.264136 
L 371.367076 227.428307 
L 371.773301 223.8226 
L 372.179525 211.862699 
L 372.585749 219.765413 
L 372.991974 218.740938 
L 373.398198 232.003228 
L 373.804423 233.691692 
L 374.210647 221.012851 
L 374.616871 214.041515 
L 375.023096 227.463154 
L 375.42932 222.860545 
L 375.835545 225.152363 
L 376.241769 217.447595 
L 376.647993 213.592557 
L 377.054218 218.433779 
L 377.460442 215.663474 
L 377.866667 223.929306 
L 378.272891 215.79657 
L 378.679115 228.984691 
L 379.08534 215.902397 
L 379.491564 227.484418 
L 379.897789 219.04023 
L 380.304013 223.460873 
L 380.710238 223.220406 
L 381.116462 225.619196 
L 381.522686 224.054562 
L 381.928911 223.756641 
L 382.335135 228.000627 
L 382.74136 219.665435 
L 383.147584 220.887839 
L 383.553808 225.164568 
L 383.960033 216.121734 
L 384.366257 226.202381 
L 384.772482 228.129063 
L 385.178706 225.502728 
L 385.58493 219.598068 
L 385.991155 219.609775 
L 386.397379 231.824662 
L 386.803604 219.816117 
L 387.209828 221.079701 
L 387.616052 218.060803 
L 388.022277 222.911705 
L 388.428501 221.213833 
L 388.834726 228.053174 
L 389.24095 228.408091 
L 389.647174 219.978001 
L 390.053399 224.438707 
L 390.459623 216.313361 
L 390.865848 236.840467 
L 391.272072 226.158508 
L 391.678296 225.813323 
L 392.084521 216.568287 
L 392.490745 218.281234 
L 392.89697 229.675698 
L 393.303194 226.527938 
L 393.709419 226.412256 
L 394.115643 218.768583 
L 394.521867 219.901493 
L 394.928092 232.713543 
L 395.334316 224.052298 
L 395.740541 209.51339 
L 396.146765 227.271495 
L 396.552989 220.324556 
L 396.959214 222.094931 
L 397.365438 232.908536 
L 397.771663 219.193323 
L 398.177887 228.998854 
L 398.584111 228.7351 
L 398.990336 213.812745 
L 399.39656 224.063281 
L 399.802785 228.442844 
L 400.209009 226.253904 
L 400.615233 220.922033 
L 401.021458 234.319548 
L 401.427682 221.042241 
L 401.833907 220.483563 
L 402.240131 229.85986 
L 402.646355 245.322586 
L 403.05258 206.277496 
L 403.458804 239.540737 
L 403.865029 221.299554 
L 404.271253 230.864458 
L 404.677477 219.147695 
L 405.083702 226.906104 
L 405.489926 227.522342 
L 405.896151 222.785196 
L 406.302375 223.215668 
L 406.7086 224.153798 
L 407.114824 231.92796 
L 407.521048 235.918393 
L 407.927273 215.525573 
L 408.333497 230.150238 
L 408.739722 209.904946 
L 409.145946 231.951565 
L 409.55217 221.638005 
L 409.958395 223.84296 
L 410.364619 232.576579 
L 410.770844 221.101534 
L 411.177068 220.894821 
L 411.583292 233.235204 
L 411.989517 212.630136 
L 412.395741 231.118465 
L 412.801966 223.35243 
L 413.20819 240.59939 
L 413.614414 225.785154 
L 414.020639 233.841525 
L 414.426863 230.222876 
L 414.833088 221.327937 
L 415.239312 219.158103 
L 415.645536 224.541217 
L 416.051761 217.777181 
L 416.457985 234.30686 
L 416.86421 220.646593 
L 417.270434 265.303536 
L 417.676658 254.795152 
L 420.926454 254.795152 
L 421.332678 369.885058 
L 498.109091 369.885058 
L 498.109091 369.885058 
" style="fill:none;stroke:#008000;stroke-linecap:square;stroke-width:1.5;"/>
   </g>
   <g id="patch_3">
    <path d="M 72 384.48 
L 72 51.84 
" style="fill:none;stroke:#000000;stroke-linecap:square;stroke-linejoin:miter;stroke-width:0.8;"/>
   </g>
   <g id="patch_4">
    <path d="M 518.4 384.48 
L 518.4 51.84 
" style="fill:none;stroke:#000000;stroke-linecap:square;stroke-linejoin:miter;stroke-width:0.8;"/>
   </g>
   <g id="patch_5">
    <path d="M 72 384.48 
L 518.4 384.48 
" style="fill:none;stroke:#000000;stroke-linecap:square;stroke-linejoin:miter;stroke-width:0.8;"/>
   </g>
   <g id="patch_6">
    <path d="M 72 51.84 
L 518.4 51.84 
" style="fill:none;stroke:#000000;stroke-linecap:square;stroke-linejoin:miter;stroke-width:0.8;"/>
   </g>
   <g id="legend_1">
    <g id="patch_7">
     <path d="M 79 86.418125 
L 156 86.418125 
Q 158 86.418125 158 84.418125 
L 158 58.84 
Q 158 56.84 156 56.84 
L 79 56.84 
Q 77 56.84 77 58.84 
L 77 84.418125 
Q 77 86.418125 79 86.418125 
z
" style="fill:#ffffff;opacity:0.8;stroke:#cccccc;stroke-linejoin:miter;"/>
    </g>
    <g id="line2d_15">
     <path d="M 81 64.34 
L 101 64.34 
" style="fill:none;stroke:#0000ff;stroke-linecap:square;stroke-width:1.5;"/>
    </g>
    <g id="line2d_16"/>
    <g id="text_15">
     <!-- precision -->
     <g transform="translate(109 67.84)scale(0.1 -0.1)">
      <defs>
       <path d="M 28.515625 57.8125 
L 20.703125 57.8125 
L 20.703125 67.96875 
L 28.515625 67.96875 
z
M 28.515625 1.5625 
L 20.703125 1.5625 
L 20.703125 45.3125 
L 28.515625 45.3125 
z
" id="SimHei-105"/>
       <path d="M 43.359375 13.671875 
Q 43.359375 7.421875 38.46875 4.09375 
Q 33.59375 0.78125 26.171875 0.78125 
Q 16.796875 0.78125 11.71875 4.484375 
Q 6.640625 8.203125 6.640625 15.234375 
L 14.453125 15.234375 
Q 14.453125 10.546875 17.765625 8.984375 
Q 21.09375 7.421875 25.78125 7.421875 
Q 30.46875 7.421875 32.8125 9.171875 
Q 35.15625 10.9375 35.15625 13.671875 
Q 35.15625 15.625 33.203125 17.578125 
Q 31.25 19.53125 23.4375 20.703125 
Q 14.453125 21.875 11.125 25.1875 
Q 7.8125 28.515625 7.8125 33.984375 
Q 7.8125 38.671875 12.296875 42.375 
Q 16.796875 46.09375 25.390625 46.09375 
Q 33.203125 46.09375 37.6875 42.578125 
Q 42.1875 39.0625 42.1875 33.203125 
L 34.375 33.203125 
Q 34.375 36.71875 31.828125 38.078125 
Q 29.296875 39.453125 25.390625 39.453125 
Q 20.3125 39.453125 18.15625 37.6875 
Q 16.015625 35.9375 16.015625 33.59375 
Q 16.015625 30.859375 17.96875 29.296875 
Q 19.921875 27.734375 26.171875 26.953125 
Q 36.328125 25.390625 39.84375 22.0625 
Q 43.359375 18.75 43.359375 13.671875 
z
" id="SimHei-115"/>
       <path d="M 44.140625 1.5625 
L 36.328125 1.5625 
L 36.328125 29.6875 
Q 36.328125 34.375 33.984375 37.109375 
Q 31.640625 39.84375 27.734375 39.84375 
Q 22.65625 39.84375 18.15625 34.5625 
Q 13.671875 29.296875 13.671875 21.484375 
L 13.671875 1.5625 
L 5.859375 1.5625 
L 5.859375 45.3125 
L 13.671875 45.3125 
L 13.671875 37.109375 
Q 16.796875 41.40625 20.5 43.75 
Q 24.21875 46.09375 30.078125 46.09375 
Q 37.109375 46.09375 40.625 42.1875 
Q 44.140625 38.28125 44.140625 32.421875 
z
" id="SimHei-110"/>
      </defs>
      <use xlink:href="#SimHei-112"/>
      <use x="50" xlink:href="#SimHei-114"/>
      <use x="100" xlink:href="#SimHei-101"/>
      <use x="150" xlink:href="#SimHei-99"/>
      <use x="200" xlink:href="#SimHei-105"/>
      <use x="250" xlink:href="#SimHei-115"/>
      <use x="300" xlink:href="#SimHei-105"/>
      <use x="350" xlink:href="#SimHei-111"/>
      <use x="400" xlink:href="#SimHei-110"/>
     </g>
    </g>
    <g id="line2d_17">
     <path d="M 81 77.629062 
L 101 77.629062 
" style="fill:none;stroke:#008000;stroke-linecap:square;stroke-width:1.5;"/>
    </g>
    <g id="line2d_18"/>
    <g id="text_16">
     <!-- recall -->
     <g transform="translate(109 81.129062)scale(0.1 -0.1)">
      <defs>
       <path d="M 28.90625 1.5625 
L 21.09375 1.5625 
L 21.09375 68.359375 
L 28.90625 68.359375 
z
" id="SimHei-108"/>
      </defs>
      <use xlink:href="#SimHei-114"/>
      <use x="50" xlink:href="#SimHei-101"/>
      <use x="100" xlink:href="#SimHei-99"/>
      <use x="150" xlink:href="#SimHei-97"/>
      <use x="200" xlink:href="#SimHei-108"/>
      <use x="250" xlink:href="#SimHei-108"/>
     </g>
    </g>
   </g>
  </g>
  <g id="axes_2">
   <g id="matplotlib.axis_3">
    <g id="ytick_7">
     <g id="line2d_19">
      <defs>
       <path d="M 0 0 
L 3.5 0 
" id="me1cc9cd719" style="stroke:#000000;stroke-width:0.8;"/>
      </defs>
      <g>
       <use style="stroke:#000000;stroke-width:0.8;" x="518.4" xlink:href="#me1cc9cd719" y="369.786321"/>
      </g>
     </g>
     <g id="text_17">
      <!-- 0 -->
      <g transform="translate(525.4 373.204289)scale(0.1 -0.1)">
       <use xlink:href="#SimHei-48"/>
      </g>
     </g>
    </g>
    <g id="ytick_8">
     <g id="line2d_20">
      <g>
       <use style="stroke:#000000;stroke-width:0.8;" x="518.4" xlink:href="#me1cc9cd719" y="300.933309"/>
      </g>
     </g>
     <g id="text_18">
      <!-- 100 -->
      <g transform="translate(525.4 304.351277)scale(0.1 -0.1)">
       <use xlink:href="#SimHei-49"/>
       <use x="50" xlink:href="#SimHei-48"/>
       <use x="100" xlink:href="#SimHei-48"/>
      </g>
     </g>
    </g>
    <g id="ytick_9">
     <g id="line2d_21">
      <g>
       <use style="stroke:#000000;stroke-width:0.8;" x="518.4" xlink:href="#me1cc9cd719" y="232.080297"/>
      </g>
     </g>
     <g id="text_19">
      <!-- 200 -->
      <g transform="translate(525.4 235.498266)scale(0.1 -0.1)">
       <use xlink:href="#SimHei-50"/>
       <use x="50" xlink:href="#SimHei-48"/>
       <use x="100" xlink:href="#SimHei-48"/>
      </g>
     </g>
    </g>
    <g id="ytick_10">
     <g id="line2d_22">
      <g>
       <use style="stroke:#000000;stroke-width:0.8;" x="518.4" xlink:href="#me1cc9cd719" y="163.227285"/>
      </g>
     </g>
     <g id="text_20">
      <!-- 300 -->
      <g transform="translate(525.4 166.645254)scale(0.1 -0.1)">
       <defs>
        <path d="M 44.140625 20.3125 
Q 44.140625 11.328125 38.46875 6.046875 
Q 32.8125 0.78125 24.21875 0.78125 
Q 15.625 0.78125 9.953125 6.046875 
Q 4.296875 11.328125 4.296875 22.265625 
L 13.28125 22.265625 
Q 13.28125 14.84375 16.203125 11.515625 
Q 19.140625 8.203125 24.21875 8.203125 
Q 29.296875 8.203125 32.03125 11.328125 
Q 34.765625 14.453125 34.765625 21.09375 
Q 34.765625 26.5625 31.828125 29.6875 
Q 28.90625 32.8125 21.484375 32.8125 
L 21.484375 39.453125 
Q 27.734375 39.453125 30.65625 42.578125 
Q 33.59375 45.703125 33.59375 51.953125 
Q 33.59375 56.640625 31.4375 59.375 
Q 29.296875 62.109375 24.609375 62.109375 
Q 19.921875 62.109375 17.375 58.78125 
Q 14.84375 55.46875 14.453125 49.21875 
L 5.859375 49.21875 
Q 6.640625 58.203125 11.515625 63.671875 
Q 16.40625 69.140625 24.609375 69.140625 
Q 33.203125 69.140625 37.890625 64.25 
Q 42.578125 59.375 42.578125 52.34375 
Q 42.578125 45.703125 40.234375 41.984375 
Q 37.890625 38.28125 32.421875 36.328125 
Q 37.890625 35.15625 41.015625 30.859375 
Q 44.140625 26.5625 44.140625 20.3125 
z
" id="SimHei-51"/>
       </defs>
       <use xlink:href="#SimHei-51"/>
       <use x="50" xlink:href="#SimHei-48"/>
       <use x="100" xlink:href="#SimHei-48"/>
      </g>
     </g>
    </g>
    <g id="ytick_11">
     <g id="line2d_23">
      <g>
       <use style="stroke:#000000;stroke-width:0.8;" x="518.4" xlink:href="#me1cc9cd719" y="94.374273"/>
      </g>
     </g>
     <g id="text_21">
      <!-- 400 -->
      <g transform="translate(525.4 97.792242)scale(0.1 -0.1)">
       <use xlink:href="#SimHei-52"/>
       <use x="50" xlink:href="#SimHei-48"/>
       <use x="100" xlink:href="#SimHei-48"/>
      </g>
     </g>
    </g>
    <g id="text_22">
     <!-- loss -->
     <g transform="translate(551.235937 228.16)rotate(-90)scale(0.1 -0.1)">
      <use xlink:href="#SimHei-108"/>
      <use x="50" xlink:href="#SimHei-111"/>
      <use x="100" xlink:href="#SimHei-115"/>
      <use x="150" xlink:href="#SimHei-115"/>
     </g>
    </g>
   </g>
   <g id="line2d_24">
    <path clip-path="url(#pa39d777189)" d="M 92.290909 66.96 
L 92.697133 175.8587 
L 93.509582 291.014733 
L 93.915807 331.696971 
L 94.322031 357.347764 
L 94.728256 365.090329 
L 95.13448 367.308454 
L 95.540704 367.540707 
L 95.946929 367.604771 
L 96.353153 367.176103 
L 96.759378 367.703132 
L 97.165602 367.873412 
L 97.571826 367.922359 
L 97.978051 367.853878 
L 98.7905 368.081441 
L 99.196724 367.924643 
L 99.602948 368.031689 
L 100.009173 368.022736 
L 100.415397 367.736884 
L 100.821622 368.017345 
L 101.227846 367.873483 
L 101.63407 367.949091 
L 102.446519 367.843474 
L 102.852744 367.946788 
L 103.258968 367.808574 
L 103.665192 367.881733 
L 104.883866 367.804948 
L 105.29009 367.961422 
L 105.696314 367.865271 
L 106.508763 367.898466 
L 106.914988 367.835178 
L 107.321212 367.93304 
L 107.727437 367.816591 
L 108.133661 367.900065 
L 108.539885 367.799082 
L 108.94611 367.910644 
L 109.758559 367.800995 
L 112.195905 367.892246 
L 112.602129 367.772652 
L 113.008354 368.034758 
L 116.258149 368.080476 
L 116.664373 367.868325 
L 117.476822 368.084831 
L 117.883047 368.031268 
L 118.289271 368.122681 
L 119.10172 368.051377 
L 119.507944 368.146007 
L 119.914169 368.030642 
L 120.320393 368.094999 
L 120.726618 367.99499 
L 121.539066 368.223793 
L 121.945291 368.112211 
L 122.351515 368.19364 
L 122.75774 368.160139 
L 123.163964 368.256433 
L 123.976413 368.103726 
L 124.382637 368.283636 
L 124.788862 367.926839 
L 125.195086 368.14065 
L 126.007535 367.947319 
L 130.882228 368.042484 
L 132.100901 368.006719 
L 132.507125 368.125417 
L 132.91335 368.057717 
L 133.725799 368.752427 
L 135.350696 368.676586 
L 135.756921 368.877962 
L 136.975594 368.720451 
L 137.788043 368.755521 
L 139.41294 368.795151 
L 143.06896 368.831619 
L 148.756102 369.022186 
L 149.162326 368.888571 
L 149.56855 369.016826 
L 151.193448 368.948314 
L 152.818346 368.999296 
L 153.630794 369.032925 
L 156.88059 369.067163 
L 158.099263 369.036537 
L 197.50303 369.212652 
L 245.031286 369.282935 
L 264.936282 369.290406 
L 382.74136 369.30815 
L 498.109091 369.36 
L 498.109091 369.36 
" style="fill:none;stroke:#ff0000;stroke-linecap:square;stroke-width:1.5;"/>
   </g>
   <g id="patch_8">
    <path d="M 72 384.48 
L 72 51.84 
" style="fill:none;stroke:#000000;stroke-linecap:square;stroke-linejoin:miter;stroke-width:0.8;"/>
   </g>
   <g id="patch_9">
    <path d="M 518.4 384.48 
L 518.4 51.84 
" style="fill:none;stroke:#000000;stroke-linecap:square;stroke-linejoin:miter;stroke-width:0.8;"/>
   </g>
   <g id="patch_10">
    <path d="M 72 384.48 
L 518.4 384.48 
" style="fill:none;stroke:#000000;stroke-linecap:square;stroke-linejoin:miter;stroke-width:0.8;"/>
   </g>
   <g id="patch_11">
    <path d="M 72 51.84 
L 518.4 51.84 
" style="fill:none;stroke:#000000;stroke-linecap:square;stroke-linejoin:miter;stroke-width:0.8;"/>
   </g>
   <g id="text_23">
    <!-- The learning curve on 8clients_non_iid/host/8 -->
    <g transform="translate(160.2 45.84)scale(0.12 -0.12)">
     <defs>
      <path d="M 44.921875 60.9375 
L 29.296875 60.9375 
L 29.296875 1.5625 
L 20.3125 1.5625 
L 20.3125 60.9375 
L 4.6875 60.9375 
L 4.6875 68.359375 
L 44.921875 68.359375 
z
" id="SimHei-84"/>
      <path id="SimHei-32"/>
      <path d="M 46.875 38.671875 
Q 44.140625 39.453125 41.59375 39.640625 
Q 39.0625 39.84375 36.328125 39.0625 
Q 37.5 37.890625 38.28125 36.125 
Q 39.0625 34.375 39.0625 30.859375 
Q 39.0625 24.21875 34.5625 19.921875 
Q 30.078125 15.625 23.4375 15.625 
Q 21.875 15.625 19.328125 16.203125 
Q 16.796875 16.796875 15.234375 17.578125 
Q 14.0625 16.796875 13.671875 16.015625 
Q 13.28125 15.234375 13.28125 14.0625 
Q 13.28125 12.109375 16.015625 11.125 
Q 18.75 10.15625 25.78125 10.15625 
Q 37.109375 10.15625 41.203125 7.03125 
Q 45.3125 3.90625 45.3125 -0.78125 
Q 45.3125 -7.03125 39.25 -9.953125 
Q 33.203125 -12.890625 25 -12.890625 
Q 14.453125 -12.890625 9.375 -10.15625 
Q 4.296875 -7.421875 4.296875 -2.734375 
Q 4.296875 -0.390625 6.25 1.953125 
Q 8.203125 4.296875 11.328125 5.859375 
Q 8.984375 7.03125 7.609375 8.78125 
Q 6.25 10.546875 6.25 13.28125 
Q 6.25 15.625 8 17.375 
Q 9.765625 19.140625 12.109375 20.3125 
Q 10.15625 22.265625 8.984375 25 
Q 7.8125 27.734375 7.8125 30.859375 
Q 7.8125 37.5 12.296875 41.796875 
Q 16.796875 46.09375 23.4375 46.09375 
Q 26.953125 46.09375 29.484375 45.109375 
Q 32.03125 44.140625 33.984375 42.1875 
Q 37.109375 44.53125 40.234375 45.5 
Q 43.359375 46.484375 46.875 46.09375 
z
M 31.25 30.859375 
Q 31.25 34.765625 29.296875 37.109375 
Q 27.34375 39.453125 23.4375 39.453125 
Q 19.53125 39.453125 17.578125 37.109375 
Q 15.625 34.765625 15.625 30.859375 
Q 15.625 26.953125 17.578125 24.609375 
Q 19.53125 22.265625 23.4375 22.265625 
Q 27.34375 22.265625 29.296875 24.609375 
Q 31.25 26.953125 31.25 30.859375 
z
M 37.890625 -1.5625 
Q 37.890625 0 36.125 1.5625 
Q 34.375 3.125 27.34375 3.125 
Q 25.78125 3.125 23.046875 3.3125 
Q 20.3125 3.515625 16.796875 3.90625 
Q 13.671875 2.734375 12.5 1.171875 
Q 11.328125 -0.390625 11.328125 -1.953125 
Q 11.328125 -4.296875 14.453125 -5.859375 
Q 17.578125 -7.421875 25.390625 -7.421875 
Q 32.03125 -7.421875 34.953125 -5.65625 
Q 37.890625 -3.90625 37.890625 -1.5625 
z
" id="SimHei-103"/>
      <path d="M 44.140625 1.5625 
L 36.328125 1.5625 
L 36.328125 9.765625 
Q 33.203125 5.46875 29.484375 3.125 
Q 25.78125 0.78125 19.921875 0.78125 
Q 12.890625 0.78125 9.375 4.6875 
Q 5.859375 8.59375 5.859375 14.453125 
L 5.859375 45.3125 
L 13.671875 45.3125 
L 13.671875 17.1875 
Q 13.671875 12.5 16.015625 9.765625 
Q 18.359375 7.03125 22.265625 7.03125 
Q 27.34375 7.03125 31.828125 12.296875 
Q 36.328125 17.578125 36.328125 25.390625 
L 36.328125 45.3125 
L 44.140625 45.3125 
z
" id="SimHei-117"/>
      <path d="M 45.3125 45.3125 
L 28.90625 0.78125 
L 20.3125 0.78125 
L 3.90625 45.3125 
L 12.109375 45.3125 
L 24.21875 11.328125 
L 25 11.328125 
L 37.109375 45.3125 
z
" id="SimHei-118"/>
      <path d="M 49.609375 -13.671875 
L 0 -13.671875 
L 0 -8.984375 
L 49.609375 -8.984375 
z
" id="SimHei-95"/>
      <path d="M 43.359375 1.5625 
L 35.546875 1.5625 
L 35.546875 7.421875 
Q 33.203125 3.90625 30.078125 2.34375 
Q 26.953125 0.78125 22.65625 0.78125 
Q 14.84375 0.78125 9.375 6.4375 
Q 3.90625 12.109375 3.90625 23.4375 
Q 3.90625 34.765625 9.375 40.625 
Q 14.84375 46.484375 22.65625 46.484375 
Q 26.953125 46.484375 30.078125 44.71875 
Q 33.203125 42.96875 35.546875 39.453125 
L 35.546875 68.359375 
L 43.359375 68.359375 
z
M 35.546875 23.4375 
Q 35.546875 30.859375 32.21875 35.15625 
Q 28.90625 39.453125 24.21875 39.453125 
Q 18.359375 39.453125 15.421875 35.15625 
Q 12.5 30.859375 12.5 23.4375 
Q 12.5 16.015625 15.421875 11.90625 
Q 18.359375 7.8125 24.21875 7.8125 
Q 28.90625 7.8125 32.21875 11.90625 
Q 35.546875 16.015625 35.546875 23.4375 
z
" id="SimHei-100"/>
      <path d="M 47.265625 70.703125 
L 5.859375 -3.125 
L 1.953125 -0.78125 
L 43.359375 73.046875 
z
" id="SimHei-47"/>
     </defs>
     <use xlink:href="#SimHei-84"/>
     <use x="50" xlink:href="#SimHei-104"/>
     <use x="100" xlink:href="#SimHei-101"/>
     <use x="150" xlink:href="#SimHei-32"/>
     <use x="200" xlink:href="#SimHei-108"/>
     <use x="250" xlink:href="#SimHei-101"/>
     <use x="300" xlink:href="#SimHei-97"/>
     <use x="350" xlink:href="#SimHei-114"/>
     <use x="400" xlink:href="#SimHei-110"/>
     <use x="450" xlink:href="#SimHei-105"/>
     <use x="500" xlink:href="#SimHei-110"/>
     <use x="550" xlink:href="#SimHei-103"/>
     <use x="600" xlink:href="#SimHei-32"/>
     <use x="650" xlink:href="#SimHei-99"/>
     <use x="700" xlink:href="#SimHei-117"/>
     <use x="750" xlink:href="#SimHei-114"/>
     <use x="800" xlink:href="#SimHei-118"/>
     <use x="850" xlink:href="#SimHei-101"/>
     <use x="900" xlink:href="#SimHei-32"/>
     <use x="950" xlink:href="#SimHei-111"/>
     <use x="1000" xlink:href="#SimHei-110"/>
     <use x="1050" xlink:href="#SimHei-32"/>
     <use x="1100" xlink:href="#SimHei-56"/>
     <use x="1150" xlink:href="#SimHei-99"/>
     <use x="1200" xlink:href="#SimHei-108"/>
     <use x="1250" xlink:href="#SimHei-105"/>
     <use x="1300" xlink:href="#SimHei-101"/>
     <use x="1350" xlink:href="#SimHei-110"/>
     <use x="1400" xlink:href="#SimHei-116"/>
     <use x="1450" xlink:href="#SimHei-115"/>
     <use x="1500" xlink:href="#SimHei-95"/>
     <use x="1550" xlink:href="#SimHei-110"/>
     <use x="1600" xlink:href="#SimHei-111"/>
     <use x="1650" xlink:href="#SimHei-110"/>
     <use x="1700" xlink:href="#SimHei-95"/>
     <use x="1750" xlink:href="#SimHei-105"/>
     <use x="1800" xlink:href="#SimHei-105"/>
     <use x="1850" xlink:href="#SimHei-100"/>
     <use x="1900" xlink:href="#SimHei-47"/>
     <use x="1950" xlink:href="#SimHei-104"/>
     <use x="2000" xlink:href="#SimHei-111"/>
     <use x="2050" xlink:href="#SimHei-115"/>
     <use x="2100" xlink:href="#SimHei-116"/>
     <use x="2150" xlink:href="#SimHei-47"/>
     <use x="2200" xlink:href="#SimHei-56"/>
    </g>
   </g>
   <g id="legend_2">
    <g id="patch_12">
     <path d="M 459.4 73.129062 
L 511.4 73.129062 
Q 513.4 73.129062 513.4 71.129062 
L 513.4 58.84 
Q 513.4 56.84 511.4 56.84 
L 459.4 56.84 
Q 457.4 56.84 457.4 58.84 
L 457.4 71.129062 
Q 457.4 73.129062 459.4 73.129062 
z
" style="fill:#ffffff;opacity:0.8;stroke:#cccccc;stroke-linejoin:miter;"/>
    </g>
    <g id="line2d_25">
     <path d="M 461.4 64.34 
L 481.4 64.34 
" style="fill:none;stroke:#ff0000;stroke-linecap:square;stroke-width:1.5;"/>
    </g>
    <g id="line2d_26"/>
    <g id="text_24">
     <!-- loss -->
     <g transform="translate(489.4 67.84)scale(0.1 -0.1)">
      <use xlink:href="#SimHei-108"/>
      <use x="50" xlink:href="#SimHei-111"/>
      <use x="100" xlink:href="#SimHei-115"/>
      <use x="150" xlink:href="#SimHei-115"/>
     </g>
    </g>
   </g>
  </g>
 </g>
 <defs>
  <clipPath id="pa39d777189">
   <rect height="332.64" width="446.4" x="72" y="51.84"/>
  </clipPath>
 </defs>
</svg>
