<?xml version="1.0" encoding="utf-8" standalone="no"?>
<!DOCTYPE svg PUBLIC "-//W3C//DTD SVG 1.1//EN"
  "http://www.w3.org/Graphics/SVG/1.1/DTD/svg11.dtd">
<svg xmlns:xlink="http://www.w3.org/1999/xlink" width="576pt" height="432pt" viewBox="0 0 576 432" xmlns="http://www.w3.org/2000/svg" version="1.1">
 <metadata>
  <rdf:RDF xmlns:dc="http://purl.org/dc/elements/1.1/" xmlns:cc="http://creativecommons.org/ns#" xmlns:rdf="http://www.w3.org/1999/02/22-rdf-syntax-ns#">
   <cc:Work>
    <dc:type rdf:resource="http://purl.org/dc/dcmitype/StillImage"/>
    <dc:date>2023-10-15T21:40:09.915529</dc:date>
    <dc:format>image/svg+xml</dc:format>
    <dc:creator>
     <cc:Agent>
      <dc:title>Matplotlib v3.7.1, https://matplotlib.org/</dc:title>
     </cc:Agent>
    </dc:creator>
   </cc:Work>
  </rdf:RDF>
 </metadata>
 <defs>
  <style type="text/css">*{stroke-linejoin: round; stroke-linecap: butt}</style>
 </defs>
 <g id="figure_1">
  <g id="patch_1">
   <path d="M 0 432 
L 576 432 
L 576 0 
L 0 0 
z
" style="fill: #ffffff"/>
  </g>
  <g id="axes_1">
   <g id="patch_2">
    <path d="M 72 384.48 
L 518.4 384.48 
L 518.4 51.84 
L 72 51.84 
z
" style="fill: #ffffff"/>
   </g>
   <g id="matplotlib.axis_1">
    <g id="xtick_1">
     <g id="line2d_1">
      <defs>
       <path id="m076da65d9f" d="M 0 0 
L 0 3.5 
" style="stroke: #000000; stroke-width: 0.8"/>
      </defs>
      <g>
       <use xlink:href="#m076da65d9f" x="92.290909" y="384.48" style="stroke: #000000; stroke-width: 0.8"/>
      </g>
     </g>
     <g id="text_1">
      <!-- 0 -->
      <g transform="translate(89.109659 399.078438) scale(0.1 -0.1)">
       <defs>
        <path id="DejaVuSans-30" d="M 2034 4250 
Q 1547 4250 1301 3770 
Q 1056 3291 1056 2328 
Q 1056 1369 1301 889 
Q 1547 409 2034 409 
Q 2525 409 2770 889 
Q 3016 1369 3016 2328 
Q 3016 3291 2770 3770 
Q 2525 4250 2034 4250 
z
M 2034 4750 
Q 2819 4750 3233 4129 
Q 3647 3509 3647 2328 
Q 3647 1150 3233 529 
Q 2819 -91 2034 -91 
Q 1250 -91 836 529 
Q 422 1150 422 2328 
Q 422 3509 836 4129 
Q 1250 4750 2034 4750 
z
" transform="scale(0.015625)"/>
       </defs>
       <use xlink:href="#DejaVuSans-30"/>
      </g>
     </g>
    </g>
    <g id="xtick_2">
     <g id="line2d_2">
      <g>
       <use xlink:href="#m076da65d9f" x="143.273093" y="384.48" style="stroke: #000000; stroke-width: 0.8"/>
      </g>
     </g>
     <g id="text_2">
      <!-- 25 -->
      <g transform="translate(136.910593 399.078438) scale(0.1 -0.1)">
       <defs>
        <path id="DejaVuSans-32" d="M 1228 531 
L 3431 531 
L 3431 0 
L 469 0 
L 469 531 
Q 828 903 1448 1529 
Q 2069 2156 2228 2338 
Q 2531 2678 2651 2914 
Q 2772 3150 2772 3378 
Q 2772 3750 2511 3984 
Q 2250 4219 1831 4219 
Q 1534 4219 1204 4116 
Q 875 4013 500 3803 
L 500 4441 
Q 881 4594 1212 4672 
Q 1544 4750 1819 4750 
Q 2544 4750 2975 4387 
Q 3406 4025 3406 3419 
Q 3406 3131 3298 2873 
Q 3191 2616 2906 2266 
Q 2828 2175 2409 1742 
Q 1991 1309 1228 531 
z
" transform="scale(0.015625)"/>
        <path id="DejaVuSans-35" d="M 691 4666 
L 3169 4666 
L 3169 4134 
L 1269 4134 
L 1269 2991 
Q 1406 3038 1543 3061 
Q 1681 3084 1819 3084 
Q 2600 3084 3056 2656 
Q 3513 2228 3513 1497 
Q 3513 744 3044 326 
Q 2575 -91 1722 -91 
Q 1428 -91 1123 -41 
Q 819 9 494 109 
L 494 744 
Q 775 591 1075 516 
Q 1375 441 1709 441 
Q 2250 441 2565 725 
Q 2881 1009 2881 1497 
Q 2881 1984 2565 2268 
Q 2250 2553 1709 2553 
Q 1456 2553 1204 2497 
Q 953 2441 691 2322 
L 691 4666 
z
" transform="scale(0.015625)"/>
       </defs>
       <use xlink:href="#DejaVuSans-32"/>
       <use xlink:href="#DejaVuSans-35" x="63.623047"/>
      </g>
     </g>
    </g>
    <g id="xtick_3">
     <g id="line2d_3">
      <g>
       <use xlink:href="#m076da65d9f" x="194.255276" y="384.48" style="stroke: #000000; stroke-width: 0.8"/>
      </g>
     </g>
     <g id="text_3">
      <!-- 50 -->
      <g transform="translate(187.892776 399.078438) scale(0.1 -0.1)">
       <use xlink:href="#DejaVuSans-35"/>
       <use xlink:href="#DejaVuSans-30" x="63.623047"/>
      </g>
     </g>
    </g>
    <g id="xtick_4">
     <g id="line2d_4">
      <g>
       <use xlink:href="#m076da65d9f" x="245.23746" y="384.48" style="stroke: #000000; stroke-width: 0.8"/>
      </g>
     </g>
     <g id="text_4">
      <!-- 75 -->
      <g transform="translate(238.87496 399.078438) scale(0.1 -0.1)">
       <defs>
        <path id="DejaVuSans-37" d="M 525 4666 
L 3525 4666 
L 3525 4397 
L 1831 0 
L 1172 0 
L 2766 4134 
L 525 4134 
L 525 4666 
z
" transform="scale(0.015625)"/>
       </defs>
       <use xlink:href="#DejaVuSans-37"/>
       <use xlink:href="#DejaVuSans-35" x="63.623047"/>
      </g>
     </g>
    </g>
    <g id="xtick_5">
     <g id="line2d_5">
      <g>
       <use xlink:href="#m076da65d9f" x="296.219644" y="384.48" style="stroke: #000000; stroke-width: 0.8"/>
      </g>
     </g>
     <g id="text_5">
      <!-- 100 -->
      <g transform="translate(286.675894 399.078438) scale(0.1 -0.1)">
       <defs>
        <path id="DejaVuSans-31" d="M 794 531 
L 1825 531 
L 1825 4091 
L 703 3866 
L 703 4441 
L 1819 4666 
L 2450 4666 
L 2450 531 
L 3481 531 
L 3481 0 
L 794 0 
L 794 531 
z
" transform="scale(0.015625)"/>
       </defs>
       <use xlink:href="#DejaVuSans-31"/>
       <use xlink:href="#DejaVuSans-30" x="63.623047"/>
       <use xlink:href="#DejaVuSans-30" x="127.246094"/>
      </g>
     </g>
    </g>
    <g id="xtick_6">
     <g id="line2d_6">
      <g>
       <use xlink:href="#m076da65d9f" x="347.201827" y="384.48" style="stroke: #000000; stroke-width: 0.8"/>
      </g>
     </g>
     <g id="text_6">
      <!-- 125 -->
      <g transform="translate(337.658077 399.078438) scale(0.1 -0.1)">
       <use xlink:href="#DejaVuSans-31"/>
       <use xlink:href="#DejaVuSans-32" x="63.623047"/>
       <use xlink:href="#DejaVuSans-35" x="127.246094"/>
      </g>
     </g>
    </g>
    <g id="xtick_7">
     <g id="line2d_7">
      <g>
       <use xlink:href="#m076da65d9f" x="398.184011" y="384.48" style="stroke: #000000; stroke-width: 0.8"/>
      </g>
     </g>
     <g id="text_7">
      <!-- 150 -->
      <g transform="translate(388.640261 399.078438) scale(0.1 -0.1)">
       <use xlink:href="#DejaVuSans-31"/>
       <use xlink:href="#DejaVuSans-35" x="63.623047"/>
       <use xlink:href="#DejaVuSans-30" x="127.246094"/>
      </g>
     </g>
    </g>
    <g id="xtick_8">
     <g id="line2d_8">
      <g>
       <use xlink:href="#m076da65d9f" x="449.166195" y="384.48" style="stroke: #000000; stroke-width: 0.8"/>
      </g>
     </g>
     <g id="text_8">
      <!-- 175 -->
      <g transform="translate(439.622445 399.078438) scale(0.1 -0.1)">
       <use xlink:href="#DejaVuSans-31"/>
       <use xlink:href="#DejaVuSans-37" x="63.623047"/>
       <use xlink:href="#DejaVuSans-35" x="127.246094"/>
      </g>
     </g>
    </g>
    <g id="xtick_9">
     <g id="line2d_9">
      <g>
       <use xlink:href="#m076da65d9f" x="500.148378" y="384.48" style="stroke: #000000; stroke-width: 0.8"/>
      </g>
     </g>
     <g id="text_9">
      <!-- 200 -->
      <g transform="translate(490.604628 399.078438) scale(0.1 -0.1)">
       <use xlink:href="#DejaVuSans-32"/>
       <use xlink:href="#DejaVuSans-30" x="63.623047"/>
       <use xlink:href="#DejaVuSans-30" x="127.246094"/>
      </g>
     </g>
    </g>
    <g id="text_10">
     <!-- epoch -->
     <g transform="translate(279.971875 412.756563) scale(0.1 -0.1)">
      <defs>
       <path id="DejaVuSans-65" d="M 3597 1894 
L 3597 1613 
L 953 1613 
Q 991 1019 1311 708 
Q 1631 397 2203 397 
Q 2534 397 2845 478 
Q 3156 559 3463 722 
L 3463 178 
Q 3153 47 2828 -22 
Q 2503 -91 2169 -91 
Q 1331 -91 842 396 
Q 353 884 353 1716 
Q 353 2575 817 3079 
Q 1281 3584 2069 3584 
Q 2775 3584 3186 3129 
Q 3597 2675 3597 1894 
z
M 3022 2063 
Q 3016 2534 2758 2815 
Q 2500 3097 2075 3097 
Q 1594 3097 1305 2825 
Q 1016 2553 972 2059 
L 3022 2063 
z
" transform="scale(0.015625)"/>
       <path id="DejaVuSans-70" d="M 1159 525 
L 1159 -1331 
L 581 -1331 
L 581 3500 
L 1159 3500 
L 1159 2969 
Q 1341 3281 1617 3432 
Q 1894 3584 2278 3584 
Q 2916 3584 3314 3078 
Q 3713 2572 3713 1747 
Q 3713 922 3314 415 
Q 2916 -91 2278 -91 
Q 1894 -91 1617 61 
Q 1341 213 1159 525 
z
M 3116 1747 
Q 3116 2381 2855 2742 
Q 2594 3103 2138 3103 
Q 1681 3103 1420 2742 
Q 1159 2381 1159 1747 
Q 1159 1113 1420 752 
Q 1681 391 2138 391 
Q 2594 391 2855 752 
Q 3116 1113 3116 1747 
z
" transform="scale(0.015625)"/>
       <path id="DejaVuSans-6f" d="M 1959 3097 
Q 1497 3097 1228 2736 
Q 959 2375 959 1747 
Q 959 1119 1226 758 
Q 1494 397 1959 397 
Q 2419 397 2687 759 
Q 2956 1122 2956 1747 
Q 2956 2369 2687 2733 
Q 2419 3097 1959 3097 
z
M 1959 3584 
Q 2709 3584 3137 3096 
Q 3566 2609 3566 1747 
Q 3566 888 3137 398 
Q 2709 -91 1959 -91 
Q 1206 -91 779 398 
Q 353 888 353 1747 
Q 353 2609 779 3096 
Q 1206 3584 1959 3584 
z
" transform="scale(0.015625)"/>
       <path id="DejaVuSans-63" d="M 3122 3366 
L 3122 2828 
Q 2878 2963 2633 3030 
Q 2388 3097 2138 3097 
Q 1578 3097 1268 2742 
Q 959 2388 959 1747 
Q 959 1106 1268 751 
Q 1578 397 2138 397 
Q 2388 397 2633 464 
Q 2878 531 3122 666 
L 3122 134 
Q 2881 22 2623 -34 
Q 2366 -91 2075 -91 
Q 1284 -91 818 406 
Q 353 903 353 1747 
Q 353 2603 823 3093 
Q 1294 3584 2113 3584 
Q 2378 3584 2631 3529 
Q 2884 3475 3122 3366 
z
" transform="scale(0.015625)"/>
       <path id="DejaVuSans-68" d="M 3513 2113 
L 3513 0 
L 2938 0 
L 2938 2094 
Q 2938 2591 2744 2837 
Q 2550 3084 2163 3084 
Q 1697 3084 1428 2787 
Q 1159 2491 1159 1978 
L 1159 0 
L 581 0 
L 581 4863 
L 1159 4863 
L 1159 2956 
Q 1366 3272 1645 3428 
Q 1925 3584 2291 3584 
Q 2894 3584 3203 3211 
Q 3513 2838 3513 2113 
z
" transform="scale(0.015625)"/>
      </defs>
      <use xlink:href="#DejaVuSans-65"/>
      <use xlink:href="#DejaVuSans-70" x="61.523438"/>
      <use xlink:href="#DejaVuSans-6f" x="125"/>
      <use xlink:href="#DejaVuSans-63" x="186.181641"/>
      <use xlink:href="#DejaVuSans-68" x="241.162109"/>
     </g>
    </g>
   </g>
   <g id="matplotlib.axis_2">
    <g id="ytick_1">
     <g id="line2d_10">
      <defs>
       <path id="m6b799f8b2b" d="M 0 0 
L -3.5 0 
" style="stroke: #000000; stroke-width: 0.8"/>
      </defs>
      <g>
       <use xlink:href="#m6b799f8b2b" x="72" y="384.48" style="stroke: #000000; stroke-width: 0.8"/>
      </g>
     </g>
     <g id="text_11">
      <!-- 0 -->
      <g transform="translate(58.6375 388.279219) scale(0.1 -0.1)">
       <use xlink:href="#DejaVuSans-30"/>
      </g>
     </g>
    </g>
    <g id="ytick_2">
     <g id="line2d_11">
      <g>
       <use xlink:href="#m6b799f8b2b" x="72" y="317.952" style="stroke: #000000; stroke-width: 0.8"/>
      </g>
     </g>
     <g id="text_12">
      <!-- 20 -->
      <g transform="translate(52.275 321.751219) scale(0.1 -0.1)">
       <use xlink:href="#DejaVuSans-32"/>
       <use xlink:href="#DejaVuSans-30" x="63.623047"/>
      </g>
     </g>
    </g>
    <g id="ytick_3">
     <g id="line2d_12">
      <g>
       <use xlink:href="#m6b799f8b2b" x="72" y="251.424" style="stroke: #000000; stroke-width: 0.8"/>
      </g>
     </g>
     <g id="text_13">
      <!-- 40 -->
      <g transform="translate(52.275 255.223219) scale(0.1 -0.1)">
       <defs>
        <path id="DejaVuSans-34" d="M 2419 4116 
L 825 1625 
L 2419 1625 
L 2419 4116 
z
M 2253 4666 
L 3047 4666 
L 3047 1625 
L 3713 1625 
L 3713 1100 
L 3047 1100 
L 3047 0 
L 2419 0 
L 2419 1100 
L 313 1100 
L 313 1709 
L 2253 4666 
z
" transform="scale(0.015625)"/>
       </defs>
       <use xlink:href="#DejaVuSans-34"/>
       <use xlink:href="#DejaVuSans-30" x="63.623047"/>
      </g>
     </g>
    </g>
    <g id="ytick_4">
     <g id="line2d_13">
      <g>
       <use xlink:href="#m6b799f8b2b" x="72" y="184.896" style="stroke: #000000; stroke-width: 0.8"/>
      </g>
     </g>
     <g id="text_14">
      <!-- 60 -->
      <g transform="translate(52.275 188.695219) scale(0.1 -0.1)">
       <defs>
        <path id="DejaVuSans-36" d="M 2113 2584 
Q 1688 2584 1439 2293 
Q 1191 2003 1191 1497 
Q 1191 994 1439 701 
Q 1688 409 2113 409 
Q 2538 409 2786 701 
Q 3034 994 3034 1497 
Q 3034 2003 2786 2293 
Q 2538 2584 2113 2584 
z
M 3366 4563 
L 3366 3988 
Q 3128 4100 2886 4159 
Q 2644 4219 2406 4219 
Q 1781 4219 1451 3797 
Q 1122 3375 1075 2522 
Q 1259 2794 1537 2939 
Q 1816 3084 2150 3084 
Q 2853 3084 3261 2657 
Q 3669 2231 3669 1497 
Q 3669 778 3244 343 
Q 2819 -91 2113 -91 
Q 1303 -91 875 529 
Q 447 1150 447 2328 
Q 447 3434 972 4092 
Q 1497 4750 2381 4750 
Q 2619 4750 2861 4703 
Q 3103 4656 3366 4563 
z
" transform="scale(0.015625)"/>
       </defs>
       <use xlink:href="#DejaVuSans-36"/>
       <use xlink:href="#DejaVuSans-30" x="63.623047"/>
      </g>
     </g>
    </g>
    <g id="ytick_5">
     <g id="line2d_14">
      <g>
       <use xlink:href="#m6b799f8b2b" x="72" y="118.368" style="stroke: #000000; stroke-width: 0.8"/>
      </g>
     </g>
     <g id="text_15">
      <!-- 80 -->
      <g transform="translate(52.275 122.167219) scale(0.1 -0.1)">
       <defs>
        <path id="DejaVuSans-38" d="M 2034 2216 
Q 1584 2216 1326 1975 
Q 1069 1734 1069 1313 
Q 1069 891 1326 650 
Q 1584 409 2034 409 
Q 2484 409 2743 651 
Q 3003 894 3003 1313 
Q 3003 1734 2745 1975 
Q 2488 2216 2034 2216 
z
M 1403 2484 
Q 997 2584 770 2862 
Q 544 3141 544 3541 
Q 544 4100 942 4425 
Q 1341 4750 2034 4750 
Q 2731 4750 3128 4425 
Q 3525 4100 3525 3541 
Q 3525 3141 3298 2862 
Q 3072 2584 2669 2484 
Q 3125 2378 3379 2068 
Q 3634 1759 3634 1313 
Q 3634 634 3220 271 
Q 2806 -91 2034 -91 
Q 1263 -91 848 271 
Q 434 634 434 1313 
Q 434 1759 690 2068 
Q 947 2378 1403 2484 
z
M 1172 3481 
Q 1172 3119 1398 2916 
Q 1625 2713 2034 2713 
Q 2441 2713 2670 2916 
Q 2900 3119 2900 3481 
Q 2900 3844 2670 4047 
Q 2441 4250 2034 4250 
Q 1625 4250 1398 4047 
Q 1172 3844 1172 3481 
z
" transform="scale(0.015625)"/>
       </defs>
       <use xlink:href="#DejaVuSans-38"/>
       <use xlink:href="#DejaVuSans-30" x="63.623047"/>
      </g>
     </g>
    </g>
    <g id="ytick_6">
     <g id="line2d_15">
      <g>
       <use xlink:href="#m6b799f8b2b" x="72" y="51.84" style="stroke: #000000; stroke-width: 0.8"/>
      </g>
     </g>
     <g id="text_16">
      <!-- 100 -->
      <g transform="translate(45.9125 55.639219) scale(0.1 -0.1)">
       <use xlink:href="#DejaVuSans-31"/>
       <use xlink:href="#DejaVuSans-30" x="63.623047"/>
       <use xlink:href="#DejaVuSans-30" x="127.246094"/>
      </g>
     </g>
    </g>
    <g id="text_17">
     <!-- rate -->
     <g transform="translate(39.832812 228.31625) rotate(-90) scale(0.1 -0.1)">
      <defs>
       <path id="DejaVuSans-72" d="M 2631 2963 
Q 2534 3019 2420 3045 
Q 2306 3072 2169 3072 
Q 1681 3072 1420 2755 
Q 1159 2438 1159 1844 
L 1159 0 
L 581 0 
L 581 3500 
L 1159 3500 
L 1159 2956 
Q 1341 3275 1631 3429 
Q 1922 3584 2338 3584 
Q 2397 3584 2469 3576 
Q 2541 3569 2628 3553 
L 2631 2963 
z
" transform="scale(0.015625)"/>
       <path id="DejaVuSans-61" d="M 2194 1759 
Q 1497 1759 1228 1600 
Q 959 1441 959 1056 
Q 959 750 1161 570 
Q 1363 391 1709 391 
Q 2188 391 2477 730 
Q 2766 1069 2766 1631 
L 2766 1759 
L 2194 1759 
z
M 3341 1997 
L 3341 0 
L 2766 0 
L 2766 531 
Q 2569 213 2275 61 
Q 1981 -91 1556 -91 
Q 1019 -91 701 211 
Q 384 513 384 1019 
Q 384 1609 779 1909 
Q 1175 2209 1959 2209 
L 2766 2209 
L 2766 2266 
Q 2766 2663 2505 2880 
Q 2244 3097 1772 3097 
Q 1472 3097 1187 3025 
Q 903 2953 641 2809 
L 641 3341 
Q 956 3463 1253 3523 
Q 1550 3584 1831 3584 
Q 2591 3584 2966 3190 
Q 3341 2797 3341 1997 
z
" transform="scale(0.015625)"/>
       <path id="DejaVuSans-74" d="M 1172 4494 
L 1172 3500 
L 2356 3500 
L 2356 3053 
L 1172 3053 
L 1172 1153 
Q 1172 725 1289 603 
Q 1406 481 1766 481 
L 2356 481 
L 2356 0 
L 1766 0 
Q 1100 0 847 248 
Q 594 497 594 1153 
L 594 3053 
L 172 3053 
L 172 3500 
L 594 3500 
L 594 4494 
L 1172 4494 
z
" transform="scale(0.015625)"/>
      </defs>
      <use xlink:href="#DejaVuSans-72"/>
      <use xlink:href="#DejaVuSans-61" x="41.113281"/>
      <use xlink:href="#DejaVuSans-74" x="102.392578"/>
      <use xlink:href="#DejaVuSans-65" x="141.601562"/>
     </g>
    </g>
   </g>
   <g id="line2d_16">
    <path d="M 92.290909 285.422534 
L 94.330196 179.272891 
L 96.369484 146.657424 
L 98.408771 129.717838 
L 100.448058 134.683125 
L 102.487346 116.132821 
L 104.526633 113.311223 
L 106.565921 108.870685 
L 108.605208 113.018737 
L 110.644495 102.912112 
L 112.683783 98.460738 
L 114.72307 96.710997 
L 116.762357 99.148315 
L 118.801645 93.54811 
L 120.840932 87.597176 
L 122.880219 88.355458 
L 124.919507 95.786893 
L 126.958794 85.767823 
L 128.998081 85.757951 
L 131.037369 88.538563 
L 133.076656 87.48678 
L 135.115943 84.386857 
L 137.155231 83.745062 
L 139.194518 84.208142 
L 141.233805 86.664037 
L 143.273093 87.396382 
L 145.31238 87.664936 
L 147.351667 88.213034 
L 149.390955 86.644648 
L 151.430242 85.610173 
L 153.469529 85.744348 
L 155.508817 89.641433 
L 157.548104 87.659607 
L 159.587392 88.508286 
L 161.626679 92.162068 
L 163.665966 89.372092 
L 165.705254 91.16462 
L 167.744541 89.6191 
L 169.783828 89.702747 
L 171.823116 92.542389 
L 173.862403 84.151294 
L 175.90169 93.923863 
L 177.940978 91.132669 
L 179.980265 92.279748 
L 182.019552 90.966288 
L 184.05884 90.660503 
L 186.098127 93.118885 
L 188.137414 90.378244 
L 190.176702 90.0517 
L 192.215989 87.970771 
L 194.255276 90.679004 
L 196.294564 85.345425 
L 198.333851 89.776243 
L 200.373138 90.288252 
L 202.412426 84.606761 
L 204.451713 86.811841 
L 206.491 83.125473 
L 208.530288 85.65225 
L 210.569575 82.039784 
L 212.608862 79.987076 
L 214.64815 81.445777 
L 216.687437 81.074516 
L 218.726725 80.445385 
L 220.766012 80.541214 
L 222.805299 78.187874 
L 224.844587 77.308004 
L 226.883874 76.156864 
L 228.923161 76.677071 
L 230.962449 76.377377 
L 235.041023 75.520018 
L 239.119598 71.080165 
L 243.198173 74.330582 
L 245.23746 70.547574 
L 247.276747 71.785914 
L 249.316035 72.489201 
L 251.355322 69.433081 
L 253.394609 73.190102 
L 255.433897 66.224995 
L 257.473184 70.205727 
L 259.512471 70.92688 
L 261.551759 67.590608 
L 263.591046 68.231286 
L 265.630333 68.621885 
L 267.669621 66.908309 
L 269.708908 66.574177 
L 271.748196 65.889441 
L 273.787483 64.843318 
L 275.82677 65.418139 
L 277.866058 65.410322 
L 279.905345 64.944425 
L 281.944632 64.188148 
L 283.98392 65.004369 
L 286.023207 65.05873 
L 288.062494 63.473847 
L 290.101782 61.239861 
L 292.141069 62.810024 
L 294.180356 62.251141 
L 296.219644 60.405368 
L 298.258931 61.997458 
L 302.337506 61.708652 
L 304.376793 62.133486 
L 306.41608 58.997551 
L 308.455368 61.437915 
L 310.494655 60.662325 
L 312.533942 59.422005 
L 314.57323 60.53287 
L 316.612517 59.535726 
L 318.651804 59.317497 
L 320.691092 58.782571 
L 322.730379 59.116678 
L 326.808954 58.264775 
L 328.848241 58.456636 
L 330.887529 57.034074 
L 332.926816 57.970055 
L 334.966103 58.560154 
L 337.005391 57.710409 
L 339.044678 58.597994 
L 341.083965 57.484668 
L 343.123253 57.872653 
L 345.16254 57.097977 
L 347.201827 56.946493 
L 349.241115 57.096175 
L 351.280402 58.02434 
L 353.319689 56.367307 
L 355.358977 56.428164 
L 357.398264 56.34741 
L 359.437551 55.493528 
L 361.476839 56.366292 
L 363.516126 55.637677 
L 365.555413 55.46414 
L 367.594701 55.961176 
L 369.633988 56.252825 
L 371.673275 56.265768 
L 373.712563 55.816747 
L 375.75185 54.42634 
L 377.791138 55.007658 
L 379.830425 54.930609 
L 381.869712 55.310879 
L 383.909 54.196005 
L 385.948287 54.944796 
L 387.987574 54.186818 
L 390.026862 54.439765 
L 392.066149 54.443775 
L 394.105436 54.89376 
L 396.144724 54.109338 
L 400.223298 53.72785 
L 402.262586 54.201259 
L 404.301873 54.420858 
L 406.34116 54.025285 
L 408.380448 53.784215 
L 410.419735 54.141416 
L 412.459022 53.842738 
L 414.49831 53.950901 
L 416.537597 53.45592 
L 418.576884 53.79962 
L 420.616172 53.493556 
L 422.655459 53.459397 
L 424.694746 53.66684 
L 432.851896 53.177671 
L 434.891183 53.93476 
L 436.930471 53.00223 
L 438.969758 53.651892 
L 441.009045 52.917847 
L 443.048333 54.013788 
L 445.08762 53.637934 
L 447.126907 53.628544 
L 449.166195 53.187696 
L 451.205482 53.314055 
L 455.284057 53.056134 
L 457.323344 53.156734 
L 459.362631 53.053571 
L 461.401919 53.142877 
L 463.441206 52.727762 
L 465.480493 52.785397 
L 467.519781 53.735768 
L 469.559068 52.923861 
L 471.598355 52.698806 
L 473.637643 52.782174 
L 475.67693 53.125112 
L 477.716217 53.013219 
L 479.755505 53.244695 
L 481.794792 52.794178 
L 483.834079 52.920232 
L 485.873367 52.855441 
L 487.912654 53.209318 
L 491.991229 53.034892 
L 494.030516 53.27147 
L 496.069804 53.106789 
L 498.109091 53.355777 
L 498.109091 53.355777 
" clip-path="url(#pb772aa393f)" style="fill: none; stroke: #0000ff; stroke-width: 1.5; stroke-linecap: square"/>
   </g>
   <g id="line2d_17">
    <path d="M 92.290909 193.233673 
L 94.330196 145.143881 
L 96.369484 121.866999 
L 98.408771 115.438417 
L 100.448058 115.463212 
L 102.487346 107.232965 
L 104.526633 105.354683 
L 106.565921 105.774366 
L 108.605208 104.922616 
L 110.644495 105.674933 
L 112.683783 103.94915 
L 114.72307 104.053176 
L 116.762357 106.831123 
L 118.801645 104.46885 
L 120.840932 103.952323 
L 122.880219 106.855334 
L 124.919507 105.479241 
L 126.958794 104.412941 
L 128.998081 111.085079 
L 131.037369 113.117028 
L 133.076656 110.447447 
L 135.115943 110.150037 
L 137.155231 114.683003 
L 139.194518 115.877311 
L 141.233805 113.865234 
L 143.273093 116.861512 
L 145.31238 119.291394 
L 147.351667 123.978204 
L 149.390955 118.705482 
L 151.430242 124.05774 
L 153.469529 126.055808 
L 155.508817 128.794926 
L 157.548104 126.469197 
L 159.587392 123.90986 
L 161.626679 130.838904 
L 163.665966 132.628158 
L 165.705254 130.685517 
L 167.744541 128.044131 
L 169.783828 141.15353 
L 171.823116 129.233795 
L 173.862403 134.442994 
L 175.90169 132.397621 
L 177.940978 133.242139 
L 179.980265 139.809819 
L 182.019552 137.449525 
L 184.05884 141.799843 
L 186.098127 141.492738 
L 188.137414 134.891304 
L 190.176702 139.715615 
L 192.215989 137.913468 
L 194.255276 139.773604 
L 196.294564 146.156353 
L 198.333851 138.117206 
L 200.373138 137.934405 
L 202.412426 144.854084 
L 204.451713 139.611436 
L 206.491 141.827784 
L 208.530288 137.445109 
L 210.569575 135.734477 
L 212.608862 137.998105 
L 214.64815 131.932257 
L 216.687437 141.959777 
L 218.726725 134.300622 
L 220.766012 145.297344 
L 222.805299 142.013554 
L 224.844587 140.668803 
L 226.883874 142.711334 
L 228.923161 142.79021 
L 230.962449 143.063231 
L 233.001736 138.737403 
L 235.041023 138.476006 
L 237.080311 134.546691 
L 239.119598 134.096275 
L 241.158885 142.58802 
L 243.198173 140.144637 
L 245.23746 141.348944 
L 247.276747 139.35717 
L 249.316035 138.518515 
L 251.355322 139.247002 
L 253.394609 141.683406 
L 255.433897 133.850256 
L 257.473184 138.886755 
L 259.512471 140.356978 
L 261.551759 144.796069 
L 263.591046 133.28853 
L 265.630333 134.96079 
L 267.669621 134.53489 
L 269.708908 136.297522 
L 271.748196 136.095561 
L 273.787483 139.106685 
L 275.82677 150.415384 
L 277.866058 138.099948 
L 279.905345 135.956944 
L 281.944632 137.958997 
L 283.98392 137.077147 
L 286.023207 137.785408 
L 288.062494 136.489256 
L 290.101782 138.41558 
L 292.141069 137.468229 
L 294.180356 134.856079 
L 296.219644 132.610825 
L 298.258931 141.699344 
L 300.298218 137.417345 
L 302.337506 135.530561 
L 304.376793 137.317151 
L 306.41608 139.976835 
L 308.455368 133.531985 
L 310.494655 131.564524 
L 312.533942 133.388547 
L 314.57323 133.236809 
L 316.612517 137.804366 
L 318.651804 131.913832 
L 320.691092 135.956462 
L 324.769667 138.797931 
L 326.808954 137.248553 
L 328.848241 137.256547 
L 330.887529 134.449517 
L 332.926816 135.556955 
L 334.966103 139.285247 
L 337.005391 132.813522 
L 339.044678 133.204172 
L 341.083965 135.656667 
L 343.123253 135.192774 
L 345.16254 133.564977 
L 347.201827 132.927091 
L 349.241115 133.091848 
L 351.280402 136.743776 
L 353.319689 136.071477 
L 355.358977 133.106643 
L 357.398264 136.503621 
L 359.437551 135.475338 
L 361.476839 132.462082 
L 363.516126 132.538547 
L 365.555413 131.288279 
L 367.594701 129.450324 
L 369.633988 135.959812 
L 371.673275 130.923642 
L 373.712563 130.383082 
L 375.75185 130.001771 
L 377.791138 133.202929 
L 379.830425 133.80455 
L 381.869712 135.073826 
L 383.909 130.008903 
L 385.948287 129.379518 
L 387.987574 131.526659 
L 390.026862 131.853838 
L 392.066149 129.452024 
L 394.105436 128.793175 
L 396.144724 132.527888 
L 398.184011 132.882856 
L 400.223298 129.087032 
L 402.262586 132.086685 
L 404.301873 130.062883 
L 406.34116 130.68275 
L 408.380448 130.108183 
L 410.419735 129.819504 
L 412.459022 127.663201 
L 414.49831 131.959894 
L 416.537597 128.891618 
L 418.576884 129.408602 
L 420.616172 127.600212 
L 422.655459 129.636779 
L 424.694746 130.588647 
L 426.734034 128.351895 
L 428.773321 126.6505 
L 430.812608 127.352265 
L 432.851896 124.136108 
L 434.891183 126.930348 
L 436.930471 126.444022 
L 438.969758 128.591975 
L 441.009045 128.296519 
L 443.048333 127.540116 
L 445.08762 129.671877 
L 447.126907 125.924652 
L 449.166195 126.594592 
L 451.205482 125.981728 
L 453.244769 128.789216 
L 455.284057 126.183385 
L 457.323344 126.619285 
L 459.362631 125.587424 
L 461.401919 128.166277 
L 463.441206 128.819797 
L 465.480493 127.172991 
L 467.519781 126.381895 
L 469.559068 127.606988 
L 471.598355 124.985042 
L 473.637643 126.554012 
L 475.67693 127.161749 
L 479.755505 126.435266 
L 481.794792 125.456218 
L 483.834079 128.984452 
L 485.873367 127.228951 
L 487.912654 130.005502 
L 489.951942 122.76037 
L 491.991229 129.123196 
L 494.030516 129.178724 
L 496.069804 127.760933 
L 498.109091 126.535156 
L 498.109091 126.535156 
" clip-path="url(#pb772aa393f)" style="fill: none; stroke: #008000; stroke-width: 1.5; stroke-linecap: square"/>
   </g>
   <g id="patch_3">
    <path d="M 72 384.48 
L 72 51.84 
" style="fill: none; stroke: #000000; stroke-width: 0.8; stroke-linejoin: miter; stroke-linecap: square"/>
   </g>
   <g id="patch_4">
    <path d="M 518.4 384.48 
L 518.4 51.84 
" style="fill: none; stroke: #000000; stroke-width: 0.8; stroke-linejoin: miter; stroke-linecap: square"/>
   </g>
   <g id="patch_5">
    <path d="M 72 384.48 
L 518.4 384.48 
" style="fill: none; stroke: #000000; stroke-width: 0.8; stroke-linejoin: miter; stroke-linecap: square"/>
   </g>
   <g id="patch_6">
    <path d="M 72 51.84 
L 518.4 51.84 
" style="fill: none; stroke: #000000; stroke-width: 0.8; stroke-linejoin: miter; stroke-linecap: square"/>
   </g>
   <g id="legend_1">
    <g id="patch_7">
     <path d="M 79 89.19625 
L 160.740625 89.19625 
Q 162.740625 89.19625 162.740625 87.19625 
L 162.740625 58.84 
Q 162.740625 56.84 160.740625 56.84 
L 79 56.84 
Q 77 56.84 77 58.84 
L 77 87.19625 
Q 77 89.19625 79 89.19625 
z
" style="fill: #ffffff; opacity: 0.8; stroke: #cccccc; stroke-linejoin: miter"/>
    </g>
    <g id="line2d_18">
     <path d="M 81 64.938437 
L 91 64.938437 
L 101 64.938437 
" style="fill: none; stroke: #0000ff; stroke-width: 1.5; stroke-linecap: square"/>
    </g>
    <g id="text_18">
     <!-- train mAP -->
     <g transform="translate(109 68.438437) scale(0.1 -0.1)">
      <defs>
       <path id="DejaVuSans-69" d="M 603 3500 
L 1178 3500 
L 1178 0 
L 603 0 
L 603 3500 
z
M 603 4863 
L 1178 4863 
L 1178 4134 
L 603 4134 
L 603 4863 
z
" transform="scale(0.015625)"/>
       <path id="DejaVuSans-6e" d="M 3513 2113 
L 3513 0 
L 2938 0 
L 2938 2094 
Q 2938 2591 2744 2837 
Q 2550 3084 2163 3084 
Q 1697 3084 1428 2787 
Q 1159 2491 1159 1978 
L 1159 0 
L 581 0 
L 581 3500 
L 1159 3500 
L 1159 2956 
Q 1366 3272 1645 3428 
Q 1925 3584 2291 3584 
Q 2894 3584 3203 3211 
Q 3513 2838 3513 2113 
z
" transform="scale(0.015625)"/>
       <path id="DejaVuSans-20" transform="scale(0.015625)"/>
       <path id="DejaVuSans-6d" d="M 3328 2828 
Q 3544 3216 3844 3400 
Q 4144 3584 4550 3584 
Q 5097 3584 5394 3201 
Q 5691 2819 5691 2113 
L 5691 0 
L 5113 0 
L 5113 2094 
Q 5113 2597 4934 2840 
Q 4756 3084 4391 3084 
Q 3944 3084 3684 2787 
Q 3425 2491 3425 1978 
L 3425 0 
L 2847 0 
L 2847 2094 
Q 2847 2600 2669 2842 
Q 2491 3084 2119 3084 
Q 1678 3084 1418 2786 
Q 1159 2488 1159 1978 
L 1159 0 
L 581 0 
L 581 3500 
L 1159 3500 
L 1159 2956 
Q 1356 3278 1631 3431 
Q 1906 3584 2284 3584 
Q 2666 3584 2933 3390 
Q 3200 3197 3328 2828 
z
" transform="scale(0.015625)"/>
       <path id="DejaVuSans-41" d="M 2188 4044 
L 1331 1722 
L 3047 1722 
L 2188 4044 
z
M 1831 4666 
L 2547 4666 
L 4325 0 
L 3669 0 
L 3244 1197 
L 1141 1197 
L 716 0 
L 50 0 
L 1831 4666 
z
" transform="scale(0.015625)"/>
       <path id="DejaVuSans-50" d="M 1259 4147 
L 1259 2394 
L 2053 2394 
Q 2494 2394 2734 2622 
Q 2975 2850 2975 3272 
Q 2975 3691 2734 3919 
Q 2494 4147 2053 4147 
L 1259 4147 
z
M 628 4666 
L 2053 4666 
Q 2838 4666 3239 4311 
Q 3641 3956 3641 3272 
Q 3641 2581 3239 2228 
Q 2838 1875 2053 1875 
L 1259 1875 
L 1259 0 
L 628 0 
L 628 4666 
z
" transform="scale(0.015625)"/>
      </defs>
      <use xlink:href="#DejaVuSans-74"/>
      <use xlink:href="#DejaVuSans-72" x="39.208984"/>
      <use xlink:href="#DejaVuSans-61" x="80.322266"/>
      <use xlink:href="#DejaVuSans-69" x="141.601562"/>
      <use xlink:href="#DejaVuSans-6e" x="169.384766"/>
      <use xlink:href="#DejaVuSans-20" x="232.763672"/>
      <use xlink:href="#DejaVuSans-6d" x="264.550781"/>
      <use xlink:href="#DejaVuSans-41" x="361.962891"/>
      <use xlink:href="#DejaVuSans-50" x="430.371094"/>
     </g>
    </g>
    <g id="line2d_19">
     <path d="M 81 79.616562 
L 91 79.616562 
L 101 79.616562 
" style="fill: none; stroke: #008000; stroke-width: 1.5; stroke-linecap: square"/>
    </g>
    <g id="text_19">
     <!-- valid mAP -->
     <g transform="translate(109 83.116562) scale(0.1 -0.1)">
      <defs>
       <path id="DejaVuSans-76" d="M 191 3500 
L 800 3500 
L 1894 563 
L 2988 3500 
L 3597 3500 
L 2284 0 
L 1503 0 
L 191 3500 
z
" transform="scale(0.015625)"/>
       <path id="DejaVuSans-6c" d="M 603 4863 
L 1178 4863 
L 1178 0 
L 603 0 
L 603 4863 
z
" transform="scale(0.015625)"/>
       <path id="DejaVuSans-64" d="M 2906 2969 
L 2906 4863 
L 3481 4863 
L 3481 0 
L 2906 0 
L 2906 525 
Q 2725 213 2448 61 
Q 2172 -91 1784 -91 
Q 1150 -91 751 415 
Q 353 922 353 1747 
Q 353 2572 751 3078 
Q 1150 3584 1784 3584 
Q 2172 3584 2448 3432 
Q 2725 3281 2906 2969 
z
M 947 1747 
Q 947 1113 1208 752 
Q 1469 391 1925 391 
Q 2381 391 2643 752 
Q 2906 1113 2906 1747 
Q 2906 2381 2643 2742 
Q 2381 3103 1925 3103 
Q 1469 3103 1208 2742 
Q 947 2381 947 1747 
z
" transform="scale(0.015625)"/>
      </defs>
      <use xlink:href="#DejaVuSans-76"/>
      <use xlink:href="#DejaVuSans-61" x="59.179688"/>
      <use xlink:href="#DejaVuSans-6c" x="120.458984"/>
      <use xlink:href="#DejaVuSans-69" x="148.242188"/>
      <use xlink:href="#DejaVuSans-64" x="176.025391"/>
      <use xlink:href="#DejaVuSans-20" x="239.501953"/>
      <use xlink:href="#DejaVuSans-6d" x="271.289062"/>
      <use xlink:href="#DejaVuSans-41" x="368.701172"/>
      <use xlink:href="#DejaVuSans-50" x="437.109375"/>
     </g>
    </g>
   </g>
  </g>
  <g id="axes_2">
   <g id="matplotlib.axis_3">
    <g id="ytick_7">
     <g id="line2d_20">
      <defs>
       <path id="mef68a4caa6" d="M 0 0 
L 3.5 0 
" style="stroke: #000000; stroke-width: 0.8"/>
      </defs>
      <g>
       <use xlink:href="#mef68a4caa6" x="518.4" y="374.94615" style="stroke: #000000; stroke-width: 0.8"/>
      </g>
     </g>
     <g id="text_20">
      <!-- 2.0 -->
      <g transform="translate(525.4 378.745369) scale(0.1 -0.1)">
       <defs>
        <path id="DejaVuSans-2e" d="M 684 794 
L 1344 794 
L 1344 0 
L 684 0 
L 684 794 
z
" transform="scale(0.015625)"/>
       </defs>
       <use xlink:href="#DejaVuSans-32"/>
       <use xlink:href="#DejaVuSans-2e" x="63.623047"/>
       <use xlink:href="#DejaVuSans-30" x="95.410156"/>
      </g>
     </g>
    </g>
    <g id="ytick_8">
     <g id="line2d_21">
      <g>
       <use xlink:href="#mef68a4caa6" x="518.4" y="325.611156" style="stroke: #000000; stroke-width: 0.8"/>
      </g>
     </g>
     <g id="text_21">
      <!-- 2.5 -->
      <g transform="translate(525.4 329.410375) scale(0.1 -0.1)">
       <use xlink:href="#DejaVuSans-32"/>
       <use xlink:href="#DejaVuSans-2e" x="63.623047"/>
       <use xlink:href="#DejaVuSans-35" x="95.410156"/>
      </g>
     </g>
    </g>
    <g id="ytick_9">
     <g id="line2d_22">
      <g>
       <use xlink:href="#mef68a4caa6" x="518.4" y="276.276162" style="stroke: #000000; stroke-width: 0.8"/>
      </g>
     </g>
     <g id="text_22">
      <!-- 3.0 -->
      <g transform="translate(525.4 280.075381) scale(0.1 -0.1)">
       <defs>
        <path id="DejaVuSans-33" d="M 2597 2516 
Q 3050 2419 3304 2112 
Q 3559 1806 3559 1356 
Q 3559 666 3084 287 
Q 2609 -91 1734 -91 
Q 1441 -91 1130 -33 
Q 819 25 488 141 
L 488 750 
Q 750 597 1062 519 
Q 1375 441 1716 441 
Q 2309 441 2620 675 
Q 2931 909 2931 1356 
Q 2931 1769 2642 2001 
Q 2353 2234 1838 2234 
L 1294 2234 
L 1294 2753 
L 1863 2753 
Q 2328 2753 2575 2939 
Q 2822 3125 2822 3475 
Q 2822 3834 2567 4026 
Q 2313 4219 1838 4219 
Q 1578 4219 1281 4162 
Q 984 4106 628 3988 
L 628 4550 
Q 988 4650 1302 4700 
Q 1616 4750 1894 4750 
Q 2613 4750 3031 4423 
Q 3450 4097 3450 3541 
Q 3450 3153 3228 2886 
Q 3006 2619 2597 2516 
z
" transform="scale(0.015625)"/>
       </defs>
       <use xlink:href="#DejaVuSans-33"/>
       <use xlink:href="#DejaVuSans-2e" x="63.623047"/>
       <use xlink:href="#DejaVuSans-30" x="95.410156"/>
      </g>
     </g>
    </g>
    <g id="ytick_10">
     <g id="line2d_23">
      <g>
       <use xlink:href="#mef68a4caa6" x="518.4" y="226.941169" style="stroke: #000000; stroke-width: 0.8"/>
      </g>
     </g>
     <g id="text_23">
      <!-- 3.5 -->
      <g transform="translate(525.4 230.740387) scale(0.1 -0.1)">
       <use xlink:href="#DejaVuSans-33"/>
       <use xlink:href="#DejaVuSans-2e" x="63.623047"/>
       <use xlink:href="#DejaVuSans-35" x="95.410156"/>
      </g>
     </g>
    </g>
    <g id="ytick_11">
     <g id="line2d_24">
      <g>
       <use xlink:href="#mef68a4caa6" x="518.4" y="177.606175" style="stroke: #000000; stroke-width: 0.8"/>
      </g>
     </g>
     <g id="text_24">
      <!-- 4.0 -->
      <g transform="translate(525.4 181.405394) scale(0.1 -0.1)">
       <use xlink:href="#DejaVuSans-34"/>
       <use xlink:href="#DejaVuSans-2e" x="63.623047"/>
       <use xlink:href="#DejaVuSans-30" x="95.410156"/>
      </g>
     </g>
    </g>
    <g id="ytick_12">
     <g id="line2d_25">
      <g>
       <use xlink:href="#mef68a4caa6" x="518.4" y="128.271181" style="stroke: #000000; stroke-width: 0.8"/>
      </g>
     </g>
     <g id="text_25">
      <!-- 4.5 -->
      <g transform="translate(525.4 132.0704) scale(0.1 -0.1)">
       <use xlink:href="#DejaVuSans-34"/>
       <use xlink:href="#DejaVuSans-2e" x="63.623047"/>
       <use xlink:href="#DejaVuSans-35" x="95.410156"/>
      </g>
     </g>
    </g>
    <g id="ytick_13">
     <g id="line2d_26">
      <g>
       <use xlink:href="#mef68a4caa6" x="518.4" y="78.936187" style="stroke: #000000; stroke-width: 0.8"/>
      </g>
     </g>
     <g id="text_26">
      <!-- 5.0 -->
      <g transform="translate(525.4 82.735406) scale(0.1 -0.1)">
       <use xlink:href="#DejaVuSans-35"/>
       <use xlink:href="#DejaVuSans-2e" x="63.623047"/>
       <use xlink:href="#DejaVuSans-30" x="95.410156"/>
      </g>
     </g>
    </g>
    <g id="text_27">
     <!-- loss -->
     <g transform="translate(552.901563 227.817812) rotate(-90) scale(0.1 -0.1)">
      <defs>
       <path id="DejaVuSans-73" d="M 2834 3397 
L 2834 2853 
Q 2591 2978 2328 3040 
Q 2066 3103 1784 3103 
Q 1356 3103 1142 2972 
Q 928 2841 928 2578 
Q 928 2378 1081 2264 
Q 1234 2150 1697 2047 
L 1894 2003 
Q 2506 1872 2764 1633 
Q 3022 1394 3022 966 
Q 3022 478 2636 193 
Q 2250 -91 1575 -91 
Q 1294 -91 989 -36 
Q 684 19 347 128 
L 347 722 
Q 666 556 975 473 
Q 1284 391 1588 391 
Q 1994 391 2212 530 
Q 2431 669 2431 922 
Q 2431 1156 2273 1281 
Q 2116 1406 1581 1522 
L 1381 1569 
Q 847 1681 609 1914 
Q 372 2147 372 2553 
Q 372 3047 722 3315 
Q 1072 3584 1716 3584 
Q 2034 3584 2315 3537 
Q 2597 3491 2834 3397 
z
" transform="scale(0.015625)"/>
      </defs>
      <use xlink:href="#DejaVuSans-6c"/>
      <use xlink:href="#DejaVuSans-6f" x="27.783203"/>
      <use xlink:href="#DejaVuSans-73" x="88.964844"/>
      <use xlink:href="#DejaVuSans-73" x="141.064453"/>
     </g>
    </g>
   </g>
   <g id="line2d_27">
    <path d="M 92.290909 220.645941 
L 94.330196 295.043328 
L 96.369484 336.107765 
L 98.408771 347.571719 
L 102.487346 366.182144 
L 104.526633 369.36 
L 106.565921 363.141814 
L 108.605208 359.403774 
L 110.644495 362.538655 
L 112.683783 361.466221 
L 114.72307 355.722475 
L 116.762357 357.07216 
L 118.801645 349.107536 
L 120.840932 348.284252 
L 122.880219 328.588918 
L 124.919507 336.28417 
L 126.958794 324.94345 
L 128.998081 303.646975 
L 131.037369 293.06699 
L 133.076656 300.513322 
L 135.115943 286.682231 
L 137.155231 285.391674 
L 139.194518 272.682405 
L 141.233805 282.158144 
L 143.273093 280.469089 
L 145.31238 234.406139 
L 147.351667 217.398329 
L 149.390955 280.301644 
L 151.430242 250.252181 
L 153.469529 240.105724 
L 155.508817 226.754087 
L 157.548104 258.441476 
L 159.587392 237.551088 
L 161.626679 242.206129 
L 163.665966 236.553003 
L 165.705254 257.874683 
L 167.744541 236.765262 
L 169.783828 185.772346 
L 171.823116 249.614794 
L 173.862403 204.388879 
L 175.90169 236.467075 
L 177.940978 232.061993 
L 179.980265 213.26411 
L 182.019552 241.893396 
L 184.05884 225.467833 
L 186.098127 173.226076 
L 188.137414 186.376241 
L 190.176702 164.70763 
L 192.215989 156.799948 
L 194.255276 219.204095 
L 196.294564 139.9943 
L 198.333851 202.238212 
L 200.373138 175.29751 
L 202.412426 168.436812 
L 204.451713 215.565912 
L 206.491 187.856582 
L 208.530288 218.759436 
L 210.569575 204.397624 
L 212.608862 165.38276 
L 214.64815 233.914267 
L 216.687437 193.698792 
L 218.726725 231.379447 
L 220.766012 150.665839 
L 222.805299 173.022474 
L 224.844587 171.410639 
L 226.883874 183.171955 
L 228.923161 174.481392 
L 230.962449 143.684618 
L 233.001736 209.605874 
L 235.041023 165.521002 
L 237.080311 191.438736 
L 239.119598 192.375379 
L 241.158885 173.677565 
L 243.198173 142.813976 
L 245.23746 162.585649 
L 247.276747 111.879445 
L 249.316035 172.523726 
L 251.355322 163.144115 
L 253.394609 139.182082 
L 255.433897 193.576598 
L 257.473184 176.625708 
L 259.512471 162.906999 
L 261.551759 106.996378 
L 263.591046 167.108106 
L 265.630333 158.89504 
L 267.669621 187.344277 
L 269.708908 88.042178 
L 271.748196 183.358692 
L 273.787483 163.591737 
L 275.82677 130.577743 
L 277.866058 186.936154 
L 279.905345 181.689747 
L 281.944632 182.202484 
L 283.98392 173.941421 
L 286.023207 182.206556 
L 288.062494 171.422366 
L 290.101782 131.086167 
L 292.141069 158.011078 
L 294.180356 170.225874 
L 296.219644 138.89678 
L 298.258931 140.25333 
L 300.298218 130.638516 
L 302.337506 161.874796 
L 304.376793 93.240919 
L 306.41608 101.961833 
L 308.455368 169.474059 
L 310.494655 149.219872 
L 312.533942 158.704212 
L 314.57323 164.7517 
L 316.612517 121.463214 
L 318.651804 150.447372 
L 320.691092 144.166362 
L 322.730379 88.097428 
L 324.769667 144.228339 
L 326.808954 105.966819 
L 328.848241 116.679747 
L 330.887529 130.560906 
L 332.926816 133.002219 
L 334.966103 110.435386 
L 337.005391 123.50999 
L 339.044678 142.498982 
L 341.083965 103.067465 
L 343.123253 122.276861 
L 345.16254 133.097657 
L 347.201827 66.96 
L 349.241115 85.218553 
L 351.280402 114.784985 
L 353.319689 129.665081 
L 355.358977 152.695755 
L 357.398264 133.119454 
L 359.437551 126.79271 
L 361.476839 126.709868 
L 363.516126 118.829163 
L 365.555413 129.785777 
L 367.594701 160.036595 
L 369.633988 107.767193 
L 371.673275 148.916318 
L 373.712563 117.575077 
L 377.791138 106.607761 
L 379.830425 127.461599 
L 381.869712 107.425633 
L 383.909 141.265356 
L 385.948287 135.621939 
L 387.987574 118.770581 
L 390.026862 127.338686 
L 392.066149 116.975985 
L 394.105436 137.601832 
L 396.144724 111.085078 
L 398.184011 110.307773 
L 400.223298 100.982493 
L 402.262586 125.963275 
L 404.301873 117.190348 
L 406.34116 109.884454 
L 408.380448 120.813608 
L 410.419735 115.015521 
L 412.459022 145.436639 
L 414.49831 97.323814 
L 416.537597 135.600083 
L 418.576884 153.449849 
L 420.616172 120.474736 
L 422.655459 124.011045 
L 424.694746 114.970739 
L 426.734034 138.732286 
L 428.773321 131.65124 
L 430.812608 120.984981 
L 432.851896 138.61739 
L 436.930471 148.211183 
L 438.969758 137.562251 
L 441.009045 131.121467 
L 443.048333 161.192958 
L 445.08762 130.781931 
L 447.126907 160.848806 
L 449.166195 138.335466 
L 451.205482 140.303006 
L 453.244769 159.749462 
L 455.284057 149.787724 
L 457.323344 130.835794 
L 459.362631 155.532373 
L 461.401919 137.0791 
L 463.441206 134.42557 
L 465.480493 162.942974 
L 467.519781 147.811852 
L 469.559068 177.694551 
L 471.598355 174.889196 
L 473.637643 167.179465 
L 475.67693 164.614133 
L 477.716217 181.1614 
L 479.755505 164.086317 
L 481.794792 169.211971 
L 483.834079 169.173121 
L 485.873367 164.015957 
L 487.912654 163.291574 
L 489.951942 199.416091 
L 491.991229 165.089083 
L 494.030516 162.396688 
L 496.069804 165.518246 
L 498.109091 167.55444 
L 498.109091 167.55444 
" clip-path="url(#pb772aa393f)" style="fill: none; stroke: #ff0000; stroke-width: 1.5; stroke-linecap: square"/>
   </g>
   <g id="patch_8">
    <path d="M 72 384.48 
L 72 51.84 
" style="fill: none; stroke: #000000; stroke-width: 0.8; stroke-linejoin: miter; stroke-linecap: square"/>
   </g>
   <g id="patch_9">
    <path d="M 518.4 384.48 
L 518.4 51.84 
" style="fill: none; stroke: #000000; stroke-width: 0.8; stroke-linejoin: miter; stroke-linecap: square"/>
   </g>
   <g id="patch_10">
    <path d="M 72 384.48 
L 518.4 384.48 
" style="fill: none; stroke: #000000; stroke-width: 0.8; stroke-linejoin: miter; stroke-linecap: square"/>
   </g>
   <g id="patch_11">
    <path d="M 72 51.84 
L 518.4 51.84 
" style="fill: none; stroke: #000000; stroke-width: 0.8; stroke-linejoin: miter; stroke-linecap: square"/>
   </g>
   <g id="text_28">
    <!-- The learning curve on voc/voc_fpsl_200_onecycle/guest/10 -->
    <g transform="translate(118.287187 45.84) scale(0.12 -0.12)">
     <defs>
      <path id="DejaVuSans-54" d="M -19 4666 
L 3928 4666 
L 3928 4134 
L 2272 4134 
L 2272 0 
L 1638 0 
L 1638 4134 
L -19 4134 
L -19 4666 
z
" transform="scale(0.015625)"/>
      <path id="DejaVuSans-67" d="M 2906 1791 
Q 2906 2416 2648 2759 
Q 2391 3103 1925 3103 
Q 1463 3103 1205 2759 
Q 947 2416 947 1791 
Q 947 1169 1205 825 
Q 1463 481 1925 481 
Q 2391 481 2648 825 
Q 2906 1169 2906 1791 
z
M 3481 434 
Q 3481 -459 3084 -895 
Q 2688 -1331 1869 -1331 
Q 1566 -1331 1297 -1286 
Q 1028 -1241 775 -1147 
L 775 -588 
Q 1028 -725 1275 -790 
Q 1522 -856 1778 -856 
Q 2344 -856 2625 -561 
Q 2906 -266 2906 331 
L 2906 616 
Q 2728 306 2450 153 
Q 2172 0 1784 0 
Q 1141 0 747 490 
Q 353 981 353 1791 
Q 353 2603 747 3093 
Q 1141 3584 1784 3584 
Q 2172 3584 2450 3431 
Q 2728 3278 2906 2969 
L 2906 3500 
L 3481 3500 
L 3481 434 
z
" transform="scale(0.015625)"/>
      <path id="DejaVuSans-75" d="M 544 1381 
L 544 3500 
L 1119 3500 
L 1119 1403 
Q 1119 906 1312 657 
Q 1506 409 1894 409 
Q 2359 409 2629 706 
Q 2900 1003 2900 1516 
L 2900 3500 
L 3475 3500 
L 3475 0 
L 2900 0 
L 2900 538 
Q 2691 219 2414 64 
Q 2138 -91 1772 -91 
Q 1169 -91 856 284 
Q 544 659 544 1381 
z
M 1991 3584 
L 1991 3584 
z
" transform="scale(0.015625)"/>
      <path id="DejaVuSans-2f" d="M 1625 4666 
L 2156 4666 
L 531 -594 
L 0 -594 
L 1625 4666 
z
" transform="scale(0.015625)"/>
      <path id="DejaVuSans-5f" d="M 3263 -1063 
L 3263 -1509 
L -63 -1509 
L -63 -1063 
L 3263 -1063 
z
" transform="scale(0.015625)"/>
      <path id="DejaVuSans-66" d="M 2375 4863 
L 2375 4384 
L 1825 4384 
Q 1516 4384 1395 4259 
Q 1275 4134 1275 3809 
L 1275 3500 
L 2222 3500 
L 2222 3053 
L 1275 3053 
L 1275 0 
L 697 0 
L 697 3053 
L 147 3053 
L 147 3500 
L 697 3500 
L 697 3744 
Q 697 4328 969 4595 
Q 1241 4863 1831 4863 
L 2375 4863 
z
" transform="scale(0.015625)"/>
      <path id="DejaVuSans-79" d="M 2059 -325 
Q 1816 -950 1584 -1140 
Q 1353 -1331 966 -1331 
L 506 -1331 
L 506 -850 
L 844 -850 
Q 1081 -850 1212 -737 
Q 1344 -625 1503 -206 
L 1606 56 
L 191 3500 
L 800 3500 
L 1894 763 
L 2988 3500 
L 3597 3500 
L 2059 -325 
z
" transform="scale(0.015625)"/>
     </defs>
     <use xlink:href="#DejaVuSans-54"/>
     <use xlink:href="#DejaVuSans-68" x="61.083984"/>
     <use xlink:href="#DejaVuSans-65" x="124.462891"/>
     <use xlink:href="#DejaVuSans-20" x="185.986328"/>
     <use xlink:href="#DejaVuSans-6c" x="217.773438"/>
     <use xlink:href="#DejaVuSans-65" x="245.556641"/>
     <use xlink:href="#DejaVuSans-61" x="307.080078"/>
     <use xlink:href="#DejaVuSans-72" x="368.359375"/>
     <use xlink:href="#DejaVuSans-6e" x="407.722656"/>
     <use xlink:href="#DejaVuSans-69" x="471.101562"/>
     <use xlink:href="#DejaVuSans-6e" x="498.884766"/>
     <use xlink:href="#DejaVuSans-67" x="562.263672"/>
     <use xlink:href="#DejaVuSans-20" x="625.740234"/>
     <use xlink:href="#DejaVuSans-63" x="657.527344"/>
     <use xlink:href="#DejaVuSans-75" x="712.507812"/>
     <use xlink:href="#DejaVuSans-72" x="775.886719"/>
     <use xlink:href="#DejaVuSans-76" x="817"/>
     <use xlink:href="#DejaVuSans-65" x="876.179688"/>
     <use xlink:href="#DejaVuSans-20" x="937.703125"/>
     <use xlink:href="#DejaVuSans-6f" x="969.490234"/>
     <use xlink:href="#DejaVuSans-6e" x="1030.671875"/>
     <use xlink:href="#DejaVuSans-20" x="1094.050781"/>
     <use xlink:href="#DejaVuSans-76" x="1125.837891"/>
     <use xlink:href="#DejaVuSans-6f" x="1185.017578"/>
     <use xlink:href="#DejaVuSans-63" x="1246.199219"/>
     <use xlink:href="#DejaVuSans-2f" x="1301.179688"/>
     <use xlink:href="#DejaVuSans-76" x="1334.871094"/>
     <use xlink:href="#DejaVuSans-6f" x="1394.050781"/>
     <use xlink:href="#DejaVuSans-63" x="1455.232422"/>
     <use xlink:href="#DejaVuSans-5f" x="1510.212891"/>
     <use xlink:href="#DejaVuSans-66" x="1560.212891"/>
     <use xlink:href="#DejaVuSans-70" x="1595.417969"/>
     <use xlink:href="#DejaVuSans-73" x="1658.894531"/>
     <use xlink:href="#DejaVuSans-6c" x="1710.994141"/>
     <use xlink:href="#DejaVuSans-5f" x="1738.777344"/>
     <use xlink:href="#DejaVuSans-32" x="1788.777344"/>
     <use xlink:href="#DejaVuSans-30" x="1852.400391"/>
     <use xlink:href="#DejaVuSans-30" x="1916.023438"/>
     <use xlink:href="#DejaVuSans-5f" x="1979.646484"/>
     <use xlink:href="#DejaVuSans-6f" x="2029.646484"/>
     <use xlink:href="#DejaVuSans-6e" x="2090.828125"/>
     <use xlink:href="#DejaVuSans-65" x="2154.207031"/>
     <use xlink:href="#DejaVuSans-63" x="2215.730469"/>
     <use xlink:href="#DejaVuSans-79" x="2270.710938"/>
     <use xlink:href="#DejaVuSans-63" x="2329.890625"/>
     <use xlink:href="#DejaVuSans-6c" x="2384.871094"/>
     <use xlink:href="#DejaVuSans-65" x="2412.654297"/>
     <use xlink:href="#DejaVuSans-2f" x="2474.177734"/>
     <use xlink:href="#DejaVuSans-67" x="2507.869141"/>
     <use xlink:href="#DejaVuSans-75" x="2571.345703"/>
     <use xlink:href="#DejaVuSans-65" x="2634.724609"/>
     <use xlink:href="#DejaVuSans-73" x="2696.248047"/>
     <use xlink:href="#DejaVuSans-74" x="2748.347656"/>
     <use xlink:href="#DejaVuSans-2f" x="2787.556641"/>
     <use xlink:href="#DejaVuSans-31" x="2821.248047"/>
     <use xlink:href="#DejaVuSans-30" x="2884.871094"/>
    </g>
   </g>
   <g id="legend_2">
    <g id="patch_12">
     <path d="M 460.084375 74.518125 
L 511.4 74.518125 
Q 513.4 74.518125 513.4 72.518125 
L 513.4 58.84 
Q 513.4 56.84 511.4 56.84 
L 460.084375 56.84 
Q 458.084375 56.84 458.084375 58.84 
L 458.084375 72.518125 
Q 458.084375 74.518125 460.084375 74.518125 
z
" style="fill: #ffffff; opacity: 0.8; stroke: #cccccc; stroke-linejoin: miter"/>
    </g>
    <g id="line2d_28">
     <path d="M 462.084375 64.938438 
L 472.084375 64.938438 
L 482.084375 64.938438 
" style="fill: none; stroke: #ff0000; stroke-width: 1.5; stroke-linecap: square"/>
    </g>
    <g id="text_29">
     <!-- loss -->
     <g transform="translate(490.084375 68.438438) scale(0.1 -0.1)">
      <use xlink:href="#DejaVuSans-6c"/>
      <use xlink:href="#DejaVuSans-6f" x="27.783203"/>
      <use xlink:href="#DejaVuSans-73" x="88.964844"/>
      <use xlink:href="#DejaVuSans-73" x="141.064453"/>
     </g>
    </g>
   </g>
  </g>
 </g>
 <defs>
  <clipPath id="pb772aa393f">
   <rect x="72" y="51.84" width="446.4" height="332.64"/>
  </clipPath>
 </defs>
</svg>
