<?xml version="1.0" encoding="utf-8" standalone="no"?>
<!DOCTYPE svg PUBLIC "-//W3C//DTD SVG 1.1//EN"
  "http://www.w3.org/Graphics/SVG/1.1/DTD/svg11.dtd">
<svg xmlns:xlink="http://www.w3.org/1999/xlink" width="460.8pt" height="345.6pt" viewBox="0 0 460.8 345.6" xmlns="http://www.w3.org/2000/svg" version="1.1">
 <metadata>
  <rdf:RDF xmlns:dc="http://purl.org/dc/elements/1.1/" xmlns:cc="http://creativecommons.org/ns#" xmlns:rdf="http://www.w3.org/1999/02/22-rdf-syntax-ns#">
   <cc:Work>
    <dc:type rdf:resource="http://purl.org/dc/dcmitype/StillImage"/>
    <dc:date>2023-04-11T22:56:08.481965</dc:date>
    <dc:format>image/svg+xml</dc:format>
    <dc:creator>
     <cc:Agent>
      <dc:title>Matplotlib v3.7.1, https://matplotlib.org/</dc:title>
     </cc:Agent>
    </dc:creator>
   </cc:Work>
  </rdf:RDF>
 </metadata>
 <defs>
  <style type="text/css">*{stroke-linejoin: round; stroke-linecap: butt}</style>
 </defs>
 <g id="figure_1">
  <g id="patch_1">
   <path d="M 0 345.6 
L 460.8 345.6 
L 460.8 0 
L 0 0 
z
" style="fill: #ffffff"/>
  </g>
  <g id="axes_1">
   <g id="patch_2">
    <path d="M 57.6 307.584 
L 414.72 307.584 
L 414.72 41.472 
L 57.6 41.472 
z
" style="fill: #ffffff"/>
   </g>
   <g id="matplotlib.axis_1">
    <g id="xtick_1">
     <g id="line2d_1">
      <defs>
       <path id="m126c332877" d="M 0 0 
L 0 3.5 
" style="stroke: #000000; stroke-width: 0.8"/>
      </defs>
      <g>
       <use xlink:href="#m126c332877" x="73.832727" y="307.584" style="stroke: #000000; stroke-width: 0.8"/>
      </g>
     </g>
     <g id="text_1">
      <!-- 0 -->
      <g transform="translate(70.651477 322.182437) scale(0.1 -0.1)">
       <defs>
        <path id="DejaVuSans-30" d="M 2034 4250 
Q 1547 4250 1301 3770 
Q 1056 3291 1056 2328 
Q 1056 1369 1301 889 
Q 1547 409 2034 409 
Q 2525 409 2770 889 
Q 3016 1369 3016 2328 
Q 3016 3291 2770 3770 
Q 2525 4250 2034 4250 
z
M 2034 4750 
Q 2819 4750 3233 4129 
Q 3647 3509 3647 2328 
Q 3647 1150 3233 529 
Q 2819 -91 2034 -91 
Q 1250 -91 836 529 
Q 422 1150 422 2328 
Q 422 3509 836 4129 
Q 1250 4750 2034 4750 
z
" transform="scale(0.015625)"/>
       </defs>
       <use xlink:href="#DejaVuSans-30"/>
      </g>
     </g>
    </g>
    <g id="xtick_2">
     <g id="line2d_2">
      <g>
       <use xlink:href="#m126c332877" x="138.893758" y="307.584" style="stroke: #000000; stroke-width: 0.8"/>
      </g>
     </g>
     <g id="text_2">
      <!-- 100 -->
      <g transform="translate(129.350008 322.182437) scale(0.1 -0.1)">
       <defs>
        <path id="DejaVuSans-31" d="M 794 531 
L 1825 531 
L 1825 4091 
L 703 3866 
L 703 4441 
L 1819 4666 
L 2450 4666 
L 2450 531 
L 3481 531 
L 3481 0 
L 794 0 
L 794 531 
z
" transform="scale(0.015625)"/>
       </defs>
       <use xlink:href="#DejaVuSans-31"/>
       <use xlink:href="#DejaVuSans-30" x="63.623047"/>
       <use xlink:href="#DejaVuSans-30" x="127.246094"/>
      </g>
     </g>
    </g>
    <g id="xtick_3">
     <g id="line2d_3">
      <g>
       <use xlink:href="#m126c332877" x="203.95479" y="307.584" style="stroke: #000000; stroke-width: 0.8"/>
      </g>
     </g>
     <g id="text_3">
      <!-- 200 -->
      <g transform="translate(194.41104 322.182437) scale(0.1 -0.1)">
       <defs>
        <path id="DejaVuSans-32" d="M 1228 531 
L 3431 531 
L 3431 0 
L 469 0 
L 469 531 
Q 828 903 1448 1529 
Q 2069 2156 2228 2338 
Q 2531 2678 2651 2914 
Q 2772 3150 2772 3378 
Q 2772 3750 2511 3984 
Q 2250 4219 1831 4219 
Q 1534 4219 1204 4116 
Q 875 4013 500 3803 
L 500 4441 
Q 881 4594 1212 4672 
Q 1544 4750 1819 4750 
Q 2544 4750 2975 4387 
Q 3406 4025 3406 3419 
Q 3406 3131 3298 2873 
Q 3191 2616 2906 2266 
Q 2828 2175 2409 1742 
Q 1991 1309 1228 531 
z
" transform="scale(0.015625)"/>
       </defs>
       <use xlink:href="#DejaVuSans-32"/>
       <use xlink:href="#DejaVuSans-30" x="63.623047"/>
       <use xlink:href="#DejaVuSans-30" x="127.246094"/>
      </g>
     </g>
    </g>
    <g id="xtick_4">
     <g id="line2d_4">
      <g>
       <use xlink:href="#m126c332877" x="269.015821" y="307.584" style="stroke: #000000; stroke-width: 0.8"/>
      </g>
     </g>
     <g id="text_4">
      <!-- 300 -->
      <g transform="translate(259.472071 322.182437) scale(0.1 -0.1)">
       <defs>
        <path id="DejaVuSans-33" d="M 2597 2516 
Q 3050 2419 3304 2112 
Q 3559 1806 3559 1356 
Q 3559 666 3084 287 
Q 2609 -91 1734 -91 
Q 1441 -91 1130 -33 
Q 819 25 488 141 
L 488 750 
Q 750 597 1062 519 
Q 1375 441 1716 441 
Q 2309 441 2620 675 
Q 2931 909 2931 1356 
Q 2931 1769 2642 2001 
Q 2353 2234 1838 2234 
L 1294 2234 
L 1294 2753 
L 1863 2753 
Q 2328 2753 2575 2939 
Q 2822 3125 2822 3475 
Q 2822 3834 2567 4026 
Q 2313 4219 1838 4219 
Q 1578 4219 1281 4162 
Q 984 4106 628 3988 
L 628 4550 
Q 988 4650 1302 4700 
Q 1616 4750 1894 4750 
Q 2613 4750 3031 4423 
Q 3450 4097 3450 3541 
Q 3450 3153 3228 2886 
Q 3006 2619 2597 2516 
z
" transform="scale(0.015625)"/>
       </defs>
       <use xlink:href="#DejaVuSans-33"/>
       <use xlink:href="#DejaVuSans-30" x="63.623047"/>
       <use xlink:href="#DejaVuSans-30" x="127.246094"/>
      </g>
     </g>
    </g>
    <g id="xtick_5">
     <g id="line2d_5">
      <g>
       <use xlink:href="#m126c332877" x="334.076852" y="307.584" style="stroke: #000000; stroke-width: 0.8"/>
      </g>
     </g>
     <g id="text_5">
      <!-- 400 -->
      <g transform="translate(324.533102 322.182437) scale(0.1 -0.1)">
       <defs>
        <path id="DejaVuSans-34" d="M 2419 4116 
L 825 1625 
L 2419 1625 
L 2419 4116 
z
M 2253 4666 
L 3047 4666 
L 3047 1625 
L 3713 1625 
L 3713 1100 
L 3047 1100 
L 3047 0 
L 2419 0 
L 2419 1100 
L 313 1100 
L 313 1709 
L 2253 4666 
z
" transform="scale(0.015625)"/>
       </defs>
       <use xlink:href="#DejaVuSans-34"/>
       <use xlink:href="#DejaVuSans-30" x="63.623047"/>
       <use xlink:href="#DejaVuSans-30" x="127.246094"/>
      </g>
     </g>
    </g>
    <g id="xtick_6">
     <g id="line2d_6">
      <g>
       <use xlink:href="#m126c332877" x="399.137883" y="307.584" style="stroke: #000000; stroke-width: 0.8"/>
      </g>
     </g>
     <g id="text_6">
      <!-- 500 -->
      <g transform="translate(389.594133 322.182437) scale(0.1 -0.1)">
       <defs>
        <path id="DejaVuSans-35" d="M 691 4666 
L 3169 4666 
L 3169 4134 
L 1269 4134 
L 1269 2991 
Q 1406 3038 1543 3061 
Q 1681 3084 1819 3084 
Q 2600 3084 3056 2656 
Q 3513 2228 3513 1497 
Q 3513 744 3044 326 
Q 2575 -91 1722 -91 
Q 1428 -91 1123 -41 
Q 819 9 494 109 
L 494 744 
Q 775 591 1075 516 
Q 1375 441 1709 441 
Q 2250 441 2565 725 
Q 2881 1009 2881 1497 
Q 2881 1984 2565 2268 
Q 2250 2553 1709 2553 
Q 1456 2553 1204 2497 
Q 953 2441 691 2322 
L 691 4666 
z
" transform="scale(0.015625)"/>
       </defs>
       <use xlink:href="#DejaVuSans-35"/>
       <use xlink:href="#DejaVuSans-30" x="63.623047"/>
       <use xlink:href="#DejaVuSans-30" x="127.246094"/>
      </g>
     </g>
    </g>
    <g id="text_7">
     <!-- epoch -->
     <g transform="translate(220.931875 335.860562) scale(0.1 -0.1)">
      <defs>
       <path id="DejaVuSans-65" d="M 3597 1894 
L 3597 1613 
L 953 1613 
Q 991 1019 1311 708 
Q 1631 397 2203 397 
Q 2534 397 2845 478 
Q 3156 559 3463 722 
L 3463 178 
Q 3153 47 2828 -22 
Q 2503 -91 2169 -91 
Q 1331 -91 842 396 
Q 353 884 353 1716 
Q 353 2575 817 3079 
Q 1281 3584 2069 3584 
Q 2775 3584 3186 3129 
Q 3597 2675 3597 1894 
z
M 3022 2063 
Q 3016 2534 2758 2815 
Q 2500 3097 2075 3097 
Q 1594 3097 1305 2825 
Q 1016 2553 972 2059 
L 3022 2063 
z
" transform="scale(0.015625)"/>
       <path id="DejaVuSans-70" d="M 1159 525 
L 1159 -1331 
L 581 -1331 
L 581 3500 
L 1159 3500 
L 1159 2969 
Q 1341 3281 1617 3432 
Q 1894 3584 2278 3584 
Q 2916 3584 3314 3078 
Q 3713 2572 3713 1747 
Q 3713 922 3314 415 
Q 2916 -91 2278 -91 
Q 1894 -91 1617 61 
Q 1341 213 1159 525 
z
M 3116 1747 
Q 3116 2381 2855 2742 
Q 2594 3103 2138 3103 
Q 1681 3103 1420 2742 
Q 1159 2381 1159 1747 
Q 1159 1113 1420 752 
Q 1681 391 2138 391 
Q 2594 391 2855 752 
Q 3116 1113 3116 1747 
z
" transform="scale(0.015625)"/>
       <path id="DejaVuSans-6f" d="M 1959 3097 
Q 1497 3097 1228 2736 
Q 959 2375 959 1747 
Q 959 1119 1226 758 
Q 1494 397 1959 397 
Q 2419 397 2687 759 
Q 2956 1122 2956 1747 
Q 2956 2369 2687 2733 
Q 2419 3097 1959 3097 
z
M 1959 3584 
Q 2709 3584 3137 3096 
Q 3566 2609 3566 1747 
Q 3566 888 3137 398 
Q 2709 -91 1959 -91 
Q 1206 -91 779 398 
Q 353 888 353 1747 
Q 353 2609 779 3096 
Q 1206 3584 1959 3584 
z
" transform="scale(0.015625)"/>
       <path id="DejaVuSans-63" d="M 3122 3366 
L 3122 2828 
Q 2878 2963 2633 3030 
Q 2388 3097 2138 3097 
Q 1578 3097 1268 2742 
Q 959 2388 959 1747 
Q 959 1106 1268 751 
Q 1578 397 2138 397 
Q 2388 397 2633 464 
Q 2878 531 3122 666 
L 3122 134 
Q 2881 22 2623 -34 
Q 2366 -91 2075 -91 
Q 1284 -91 818 406 
Q 353 903 353 1747 
Q 353 2603 823 3093 
Q 1294 3584 2113 3584 
Q 2378 3584 2631 3529 
Q 2884 3475 3122 3366 
z
" transform="scale(0.015625)"/>
       <path id="DejaVuSans-68" d="M 3513 2113 
L 3513 0 
L 2938 0 
L 2938 2094 
Q 2938 2591 2744 2837 
Q 2550 3084 2163 3084 
Q 1697 3084 1428 2787 
Q 1159 2491 1159 1978 
L 1159 0 
L 581 0 
L 581 4863 
L 1159 4863 
L 1159 2956 
Q 1366 3272 1645 3428 
Q 1925 3584 2291 3584 
Q 2894 3584 3203 3211 
Q 3513 2838 3513 2113 
z
" transform="scale(0.015625)"/>
      </defs>
      <use xlink:href="#DejaVuSans-65"/>
      <use xlink:href="#DejaVuSans-70" x="61.523438"/>
      <use xlink:href="#DejaVuSans-6f" x="125"/>
      <use xlink:href="#DejaVuSans-63" x="186.181641"/>
      <use xlink:href="#DejaVuSans-68" x="241.162109"/>
     </g>
    </g>
   </g>
   <g id="matplotlib.axis_2">
    <g id="ytick_1">
     <g id="line2d_7">
      <defs>
       <path id="m1a98ea0687" d="M 0 0 
L -3.5 0 
" style="stroke: #000000; stroke-width: 0.8"/>
      </defs>
      <g>
       <use xlink:href="#m1a98ea0687" x="57.6" y="257.741614" style="stroke: #000000; stroke-width: 0.8"/>
      </g>
     </g>
     <g id="text_8">
      <!-- 0.2 -->
      <g transform="translate(34.696875 261.540833) scale(0.1 -0.1)">
       <defs>
        <path id="DejaVuSans-2e" d="M 684 794 
L 1344 794 
L 1344 0 
L 684 0 
L 684 794 
z
" transform="scale(0.015625)"/>
       </defs>
       <use xlink:href="#DejaVuSans-30"/>
       <use xlink:href="#DejaVuSans-2e" x="63.623047"/>
       <use xlink:href="#DejaVuSans-32" x="95.410156"/>
      </g>
     </g>
    </g>
    <g id="ytick_2">
     <g id="line2d_8">
      <g>
       <use xlink:href="#m1a98ea0687" x="57.6" y="201.445241" style="stroke: #000000; stroke-width: 0.8"/>
      </g>
     </g>
     <g id="text_9">
      <!-- 0.4 -->
      <g transform="translate(34.696875 205.244459) scale(0.1 -0.1)">
       <use xlink:href="#DejaVuSans-30"/>
       <use xlink:href="#DejaVuSans-2e" x="63.623047"/>
       <use xlink:href="#DejaVuSans-34" x="95.410156"/>
      </g>
     </g>
    </g>
    <g id="ytick_3">
     <g id="line2d_9">
      <g>
       <use xlink:href="#m1a98ea0687" x="57.6" y="145.148867" style="stroke: #000000; stroke-width: 0.8"/>
      </g>
     </g>
     <g id="text_10">
      <!-- 0.6 -->
      <g transform="translate(34.696875 148.948086) scale(0.1 -0.1)">
       <defs>
        <path id="DejaVuSans-36" d="M 2113 2584 
Q 1688 2584 1439 2293 
Q 1191 2003 1191 1497 
Q 1191 994 1439 701 
Q 1688 409 2113 409 
Q 2538 409 2786 701 
Q 3034 994 3034 1497 
Q 3034 2003 2786 2293 
Q 2538 2584 2113 2584 
z
M 3366 4563 
L 3366 3988 
Q 3128 4100 2886 4159 
Q 2644 4219 2406 4219 
Q 1781 4219 1451 3797 
Q 1122 3375 1075 2522 
Q 1259 2794 1537 2939 
Q 1816 3084 2150 3084 
Q 2853 3084 3261 2657 
Q 3669 2231 3669 1497 
Q 3669 778 3244 343 
Q 2819 -91 2113 -91 
Q 1303 -91 875 529 
Q 447 1150 447 2328 
Q 447 3434 972 4092 
Q 1497 4750 2381 4750 
Q 2619 4750 2861 4703 
Q 3103 4656 3366 4563 
z
" transform="scale(0.015625)"/>
       </defs>
       <use xlink:href="#DejaVuSans-30"/>
       <use xlink:href="#DejaVuSans-2e" x="63.623047"/>
       <use xlink:href="#DejaVuSans-36" x="95.410156"/>
      </g>
     </g>
    </g>
    <g id="ytick_4">
     <g id="line2d_10">
      <g>
       <use xlink:href="#m1a98ea0687" x="57.6" y="88.852493" style="stroke: #000000; stroke-width: 0.8"/>
      </g>
     </g>
     <g id="text_11">
      <!-- 0.8 -->
      <g transform="translate(34.696875 92.651712) scale(0.1 -0.1)">
       <defs>
        <path id="DejaVuSans-38" d="M 2034 2216 
Q 1584 2216 1326 1975 
Q 1069 1734 1069 1313 
Q 1069 891 1326 650 
Q 1584 409 2034 409 
Q 2484 409 2743 651 
Q 3003 894 3003 1313 
Q 3003 1734 2745 1975 
Q 2488 2216 2034 2216 
z
M 1403 2484 
Q 997 2584 770 2862 
Q 544 3141 544 3541 
Q 544 4100 942 4425 
Q 1341 4750 2034 4750 
Q 2731 4750 3128 4425 
Q 3525 4100 3525 3541 
Q 3525 3141 3298 2862 
Q 3072 2584 2669 2484 
Q 3125 2378 3379 2068 
Q 3634 1759 3634 1313 
Q 3634 634 3220 271 
Q 2806 -91 2034 -91 
Q 1263 -91 848 271 
Q 434 634 434 1313 
Q 434 1759 690 2068 
Q 947 2378 1403 2484 
z
M 1172 3481 
Q 1172 3119 1398 2916 
Q 1625 2713 2034 2713 
Q 2441 2713 2670 2916 
Q 2900 3119 2900 3481 
Q 2900 3844 2670 4047 
Q 2441 4250 2034 4250 
Q 1625 4250 1398 4047 
Q 1172 3844 1172 3481 
z
" transform="scale(0.015625)"/>
       </defs>
       <use xlink:href="#DejaVuSans-30"/>
       <use xlink:href="#DejaVuSans-2e" x="63.623047"/>
       <use xlink:href="#DejaVuSans-38" x="95.410156"/>
      </g>
     </g>
    </g>
    <g id="text_12">
     <!-- loss value -->
     <g transform="translate(28.617187 199.432687) rotate(-90) scale(0.1 -0.1)">
      <defs>
       <path id="DejaVuSans-6c" d="M 603 4863 
L 1178 4863 
L 1178 0 
L 603 0 
L 603 4863 
z
" transform="scale(0.015625)"/>
       <path id="DejaVuSans-73" d="M 2834 3397 
L 2834 2853 
Q 2591 2978 2328 3040 
Q 2066 3103 1784 3103 
Q 1356 3103 1142 2972 
Q 928 2841 928 2578 
Q 928 2378 1081 2264 
Q 1234 2150 1697 2047 
L 1894 2003 
Q 2506 1872 2764 1633 
Q 3022 1394 3022 966 
Q 3022 478 2636 193 
Q 2250 -91 1575 -91 
Q 1294 -91 989 -36 
Q 684 19 347 128 
L 347 722 
Q 666 556 975 473 
Q 1284 391 1588 391 
Q 1994 391 2212 530 
Q 2431 669 2431 922 
Q 2431 1156 2273 1281 
Q 2116 1406 1581 1522 
L 1381 1569 
Q 847 1681 609 1914 
Q 372 2147 372 2553 
Q 372 3047 722 3315 
Q 1072 3584 1716 3584 
Q 2034 3584 2315 3537 
Q 2597 3491 2834 3397 
z
" transform="scale(0.015625)"/>
       <path id="DejaVuSans-20" transform="scale(0.015625)"/>
       <path id="DejaVuSans-76" d="M 191 3500 
L 800 3500 
L 1894 563 
L 2988 3500 
L 3597 3500 
L 2284 0 
L 1503 0 
L 191 3500 
z
" transform="scale(0.015625)"/>
       <path id="DejaVuSans-61" d="M 2194 1759 
Q 1497 1759 1228 1600 
Q 959 1441 959 1056 
Q 959 750 1161 570 
Q 1363 391 1709 391 
Q 2188 391 2477 730 
Q 2766 1069 2766 1631 
L 2766 1759 
L 2194 1759 
z
M 3341 1997 
L 3341 0 
L 2766 0 
L 2766 531 
Q 2569 213 2275 61 
Q 1981 -91 1556 -91 
Q 1019 -91 701 211 
Q 384 513 384 1019 
Q 384 1609 779 1909 
Q 1175 2209 1959 2209 
L 2766 2209 
L 2766 2266 
Q 2766 2663 2505 2880 
Q 2244 3097 1772 3097 
Q 1472 3097 1187 3025 
Q 903 2953 641 2809 
L 641 3341 
Q 956 3463 1253 3523 
Q 1550 3584 1831 3584 
Q 2591 3584 2966 3190 
Q 3341 2797 3341 1997 
z
" transform="scale(0.015625)"/>
       <path id="DejaVuSans-75" d="M 544 1381 
L 544 3500 
L 1119 3500 
L 1119 1403 
Q 1119 906 1312 657 
Q 1506 409 1894 409 
Q 2359 409 2629 706 
Q 2900 1003 2900 1516 
L 2900 3500 
L 3475 3500 
L 3475 0 
L 2900 0 
L 2900 538 
Q 2691 219 2414 64 
Q 2138 -91 1772 -91 
Q 1169 -91 856 284 
Q 544 659 544 1381 
z
M 1991 3584 
L 1991 3584 
z
" transform="scale(0.015625)"/>
      </defs>
      <use xlink:href="#DejaVuSans-6c"/>
      <use xlink:href="#DejaVuSans-6f" x="27.783203"/>
      <use xlink:href="#DejaVuSans-73" x="88.964844"/>
      <use xlink:href="#DejaVuSans-73" x="141.064453"/>
      <use xlink:href="#DejaVuSans-20" x="193.164062"/>
      <use xlink:href="#DejaVuSans-76" x="224.951172"/>
      <use xlink:href="#DejaVuSans-61" x="284.130859"/>
      <use xlink:href="#DejaVuSans-6c" x="345.410156"/>
      <use xlink:href="#DejaVuSans-75" x="373.193359"/>
      <use xlink:href="#DejaVuSans-65" x="436.572266"/>
     </g>
    </g>
   </g>
   <g id="line2d_11">
    <path d="M 73.832727 87.824391 
L 74.483338 132.854635 
L 75.133948 192.308286 
L 75.784558 239.70514 
L 76.435169 263.882267 
L 77.085779 274.581263 
L 77.736389 277.344702 
L 78.386999 277.598132 
L 79.03761 276.455592 
L 79.68822 274.343713 
L 80.33883 265.654945 
L 81.640051 263.702054 
L 82.941272 263.729553 
L 83.591882 264.315218 
L 84.242492 265.215774 
L 84.893103 266.455468 
L 85.543713 268.481409 
L 86.194323 269.339525 
L 86.844934 261.718846 
L 88.146154 265.772879 
L 89.447375 271.368842 
L 90.097985 271.905223 
L 90.748595 274.457847 
L 91.399206 274.787858 
L 92.049816 276.948439 
L 92.700426 278.152188 
L 93.351037 269.42773 
L 94.001647 271.190723 
L 95.302868 276.064221 
L 95.953478 278.097166 
L 97.254698 280.954368 
L 97.905309 282.005375 
L 99.206529 283.54962 
L 99.85714 275.608805 
L 102.459581 283.080251 
L 103.760802 285.39631 
L 104.411412 285.884862 
L 105.062022 286.522955 
L 105.712633 286.902538 
L 106.363243 279.84845 
L 107.013853 280.679087 
L 108.315074 284.276886 
L 108.965684 286.246508 
L 109.616294 287.028198 
L 110.266905 287.192653 
L 110.917515 286.845213 
L 111.568125 288.658149 
L 112.218736 289.788456 
L 112.869346 282.130228 
L 113.519956 283.659463 
L 114.170567 285.540923 
L 114.821177 286.998259 
L 115.471787 287.251796 
L 116.122398 289.102343 
L 117.423618 290.042398 
L 118.074228 289.899272 
L 118.724839 291.8433 
L 119.375449 284.051575 
L 120.026059 285.07941 
L 121.97789 289.737993 
L 122.628501 290.533649 
L 123.279111 290.563544 
L 124.580332 293.282076 
L 125.230942 292.891228 
L 125.881552 285.072 
L 126.532163 287.006866 
L 128.483993 291.414489 
L 129.134604 290.866431 
L 129.785214 293.031338 
L 130.435824 292.226742 
L 131.086435 293.73607 
L 131.737045 294.451843 
L 132.387655 286.117389 
L 133.038266 287.76336 
L 133.688876 288.793945 
L 134.339486 290.883968 
L 134.990097 291.722775 
L 135.640707 293.517101 
L 136.291317 292.836097 
L 136.941927 294.603985 
L 137.592538 295.282787 
L 138.243148 295.488 
L 138.893758 287.128965 
L 139.544369 288.537749 
L 140.194979 289.170729 
L 140.845589 290.552022 
L 141.4962 291.273353 
L 142.14681 290.566078 
L 142.79742 291.998088 
L 143.448031 292.227784 
L 144.098641 292.582415 
L 144.749251 292.794014 
L 145.399862 287.517556 
L 146.050472 288.091151 
L 146.701082 289.302297 
L 148.652913 290.990021 
L 149.303523 291.990676 
L 149.954134 292.633757 
L 150.604744 292.326007 
L 151.255354 292.900705 
L 151.905965 287.959808 
L 152.556575 288.172221 
L 153.207185 289.111457 
L 153.857796 290.442125 
L 154.508406 290.818835 
L 155.159016 292.082203 
L 155.809627 293.09046 
L 156.460237 292.81213 
L 157.110847 293.629154 
L 157.761457 292.902754 
L 158.412068 287.943091 
L 159.062678 288.676904 
L 160.363899 289.625576 
L 161.014509 291.289615 
L 161.665119 292.440013 
L 162.31573 292.381102 
L 162.96634 293.210513 
L 163.61695 291.908334 
L 164.267561 293.291102 
L 164.918171 288.278696 
L 165.568781 288.657621 
L 166.219392 290.610857 
L 166.870002 291.526228 
L 168.171222 292.140318 
L 168.821833 292.90408 
L 169.472443 292.82672 
L 170.123053 292.34559 
L 170.773664 292.080665 
L 171.424274 288.218506 
L 172.074884 289.862598 
L 172.725495 290.466704 
L 173.376105 291.407862 
L 174.026715 291.472567 
L 174.677326 292.381218 
L 176.629156 292.641137 
L 177.279767 293.940648 
L 177.930377 288.153113 
L 178.580987 289.21258 
L 179.231598 291.274624 
L 179.882208 291.168862 
L 181.183429 292.048079 
L 181.834039 292.968734 
L 182.484649 293.535808 
L 183.13526 293.401167 
L 183.78587 293.754049 
L 184.43648 290.196643 
L 185.087091 290.150548 
L 185.737701 289.926391 
L 186.388311 290.782058 
L 187.038921 291.968513 
L 188.340142 292.657847 
L 189.641363 292.889164 
L 190.291973 293.669987 
L 190.942583 288.574877 
L 191.593194 290.191828 
L 192.243804 290.294454 
L 193.545025 292.485895 
L 194.846245 292.396508 
L 195.496856 292.816771 
L 196.147466 293.454187 
L 196.798076 293.601547 
L 197.448686 288.897656 
L 198.099297 290.126166 
L 198.749907 289.95827 
L 199.400517 291.886588 
L 200.051128 291.912451 
L 200.701738 292.365512 
L 201.352348 293.610745 
L 202.002959 293.237531 
L 202.653569 292.607458 
L 203.304179 293.596553 
L 203.95479 289.165007 
L 204.6054 289.648165 
L 205.25601 291.411389 
L 205.906621 290.91163 
L 206.557231 292.250442 
L 207.207841 292.63405 
L 207.858451 292.743449 
L 208.509062 293.454145 
L 209.159672 293.799902 
L 209.810282 293.811038 
L 210.460893 289.545509 
L 211.111503 289.777227 
L 211.762113 290.490786 
L 212.412724 291.604802 
L 213.063334 291.552336 
L 214.364555 292.805715 
L 215.015165 293.154358 
L 215.665775 292.759643 
L 216.316385 293.295873 
L 216.966996 289.312212 
L 217.617606 290.448947 
L 218.268216 290.755136 
L 218.918827 290.701312 
L 219.569437 292.43262 
L 220.220047 293.051891 
L 220.870658 292.484574 
L 221.521268 292.910933 
L 222.171878 292.843244 
L 222.822489 293.17935 
L 223.473099 289.483594 
L 224.123709 290.71624 
L 224.77432 291.236457 
L 225.42493 291.992541 
L 226.07554 292.543675 
L 226.72615 292.471209 
L 227.376761 292.581436 
L 228.027371 293.071053 
L 228.677981 293.29308 
L 229.328592 293.949099 
L 229.979202 288.839249 
L 230.629812 290.52958 
L 231.280423 291.52542 
L 231.931033 291.460359 
L 232.581643 292.34653 
L 233.232254 292.413676 
L 233.882864 292.091124 
L 234.533474 292.380056 
L 235.184085 293.318395 
L 235.834695 292.914778 
L 236.485305 290.046999 
L 237.135915 290.173588 
L 237.786526 290.592588 
L 238.437136 291.762247 
L 239.087746 292.042412 
L 239.738357 292.618879 
L 240.388967 292.138382 
L 241.690188 292.698046 
L 242.340798 292.972012 
L 242.991408 290.313967 
L 243.642019 290.759129 
L 244.292629 291.559726 
L 244.943239 291.871086 
L 245.59385 291.778794 
L 246.24446 292.495171 
L 246.89507 292.79289 
L 247.54568 292.382751 
L 248.196291 293.657659 
L 248.846901 293.860308 
L 249.497511 290.552391 
L 250.148122 290.558511 
L 250.798732 291.795282 
L 251.449342 291.583471 
L 252.099953 291.616842 
L 252.750563 292.453238 
L 253.401173 292.020287 
L 254.702394 293.112114 
L 255.353004 293.302976 
L 256.003615 290.340964 
L 256.654225 291.442618 
L 257.304835 290.475856 
L 257.955445 291.317661 
L 258.606056 292.418795 
L 259.256666 292.325516 
L 259.907276 292.610316 
L 260.557887 293.111892 
L 261.208497 292.748031 
L 261.859107 292.97969 
L 262.509718 289.110147 
L 263.160328 290.355823 
L 264.461549 291.961897 
L 265.112159 292.206395 
L 265.762769 291.310797 
L 266.413379 291.870496 
L 267.06399 292.662352 
L 267.7146 293.646173 
L 268.36521 293.335485 
L 269.015821 290.521009 
L 269.666431 289.983307 
L 270.317041 290.156284 
L 270.967652 291.394817 
L 271.618262 291.92339 
L 272.268872 292.733346 
L 272.919483 292.37683 
L 273.570093 292.274044 
L 274.220703 293.091698 
L 274.871314 292.672792 
L 275.521924 290.654215 
L 276.172534 289.758084 
L 276.823144 291.351268 
L 277.473755 291.076359 
L 278.124365 292.4479 
L 278.774975 292.763378 
L 279.425586 293.242287 
L 280.076196 292.461503 
L 280.726806 293.475719 
L 281.377417 292.54939 
L 282.028027 289.90863 
L 283.979858 291.945343 
L 284.630468 291.296146 
L 285.281079 292.299999 
L 285.931689 291.947266 
L 286.582299 292.94379 
L 287.232909 293.226315 
L 287.88352 292.68228 
L 288.53413 291.204884 
L 289.18474 290.038396 
L 291.136571 292.635533 
L 291.787182 291.211538 
L 292.437792 292.470449 
L 293.088402 292.408022 
L 293.739013 292.039445 
L 294.389623 292.641093 
L 295.040233 290.885735 
L 295.690844 290.753574 
L 296.341454 291.13912 
L 296.992064 291.128204 
L 297.642674 292.660643 
L 298.293285 290.749822 
L 298.943895 292.134572 
L 299.594505 292.535165 
L 300.245116 291.806284 
L 300.895726 293.377345 
L 301.546336 291.245481 
L 302.196947 290.910812 
L 303.498167 291.152512 
L 304.148778 291.860763 
L 304.799388 292.142199 
L 305.449998 291.751197 
L 306.100608 292.380754 
L 306.751219 292.315911 
L 307.401829 292.599107 
L 308.052439 290.598287 
L 308.70305 290.311987 
L 309.35366 291.09896 
L 310.654881 291.502966 
L 311.956101 292.799526 
L 312.606712 292.406124 
L 313.257322 292.923053 
L 313.907932 292.410138 
L 314.558543 289.746828 
L 315.209153 290.804196 
L 315.859763 290.928019 
L 316.510373 290.498235 
L 317.811594 291.94501 
L 318.462204 292.449995 
L 319.112815 292.107233 
L 319.763425 292.099825 
L 320.414035 292.221635 
L 321.064646 290.977213 
L 321.715256 290.965383 
L 322.365866 291.747457 
L 323.016477 291.376506 
L 323.667087 291.931598 
L 324.317697 291.904874 
L 324.968308 292.226404 
L 325.618918 291.962255 
L 326.269528 292.544617 
L 326.920138 292.00413 
L 327.570749 290.927212 
L 328.221359 290.660422 
L 328.871969 290.782832 
L 329.52258 291.337653 
L 331.474411 291.935593 
L 332.125021 291.725332 
L 332.775631 292.305129 
L 333.426242 292.33877 
L 334.076852 290.289496 
L 334.727462 291.038502 
L 335.378073 291.044362 
L 336.028683 291.508085 
L 336.679293 292.754597 
L 337.329903 291.56783 
L 337.980514 292.786106 
L 338.631124 292.037815 
L 339.281734 291.798235 
L 339.932345 292.795367 
L 340.582955 291.088569 
L 341.233565 291.198823 
L 341.884176 291.516409 
L 342.534786 291.301978 
L 343.185396 290.885769 
L 343.836007 291.019938 
L 344.486617 291.381988 
L 345.137227 292.058334 
L 345.787837 292.464898 
L 346.438448 291.492752 
L 347.089058 289.990261 
L 347.739668 291.049024 
L 348.390279 291.392919 
L 349.040889 291.190944 
L 349.691499 291.913246 
L 350.34211 291.861782 
L 350.99272 291.938387 
L 351.64333 291.557547 
L 352.293941 291.67316 
L 352.944551 292.759023 
L 353.595161 290.514329 
L 354.245772 290.806858 
L 354.896382 291.404716 
L 355.546992 290.124061 
L 356.197602 291.531903 
L 356.848213 291.067475 
L 357.498823 291.896634 
L 358.149433 291.710373 
L 358.800044 292.01117 
L 359.450654 291.807731 
L 360.751875 290.183195 
L 361.402485 292.014744 
L 362.053095 290.496224 
L 363.354316 291.259447 
L 364.004926 291.262295 
L 364.655537 292.262721 
L 365.306147 292.676007 
L 365.956757 290.946225 
L 366.607367 290.336644 
L 367.257978 290.793421 
L 368.559198 290.973239 
L 369.209809 291.890959 
L 369.860419 290.890635 
L 370.511029 290.86418 
L 371.16164 291.952639 
L 372.46286 291.447299 
L 373.113471 290.352545 
L 373.764081 291.356176 
L 374.414691 291.335539 
L 375.065302 291.618771 
L 375.715912 291.422943 
L 376.366522 292.144288 
L 377.017132 291.578211 
L 377.667743 292.767692 
L 378.318353 291.163007 
L 378.968963 292.301497 
L 379.619574 290.832993 
L 380.270184 291.275417 
L 380.920794 291.516855 
L 381.571405 291.244689 
L 382.222015 290.515302 
L 382.872625 291.374082 
L 383.523236 291.742399 
L 384.173846 291.891932 
L 384.824456 290.105089 
L 385.475066 292.245919 
L 386.125677 290.315613 
L 386.776287 290.903656 
L 387.426897 290.453701 
L 388.077508 291.106485 
L 388.728118 290.785806 
L 389.378728 290.986999 
L 390.029339 291.782164 
L 390.679949 290.630529 
L 391.330559 292.121521 
L 391.98117 290.651419 
L 392.63178 289.558185 
L 393.28239 289.862235 
L 393.933001 291.002141 
L 394.583611 291.552837 
L 395.234221 291.144593 
L 395.884831 291.905796 
L 396.535442 291.189859 
L 397.186052 291.256244 
L 397.836662 291.947814 
L 398.487273 292.229909 
L 398.487273 292.229909 
" clip-path="url(#pd36de89a17)" style="fill: none; stroke: #0000ff; stroke-width: 1.5; stroke-linecap: square"/>
   </g>
   <g id="line2d_12">
    <path d="M 73.832727 279.781604 
L 79.68822 279.76082 
L 80.33883 292.823675 
L 98.555919 292.805071 
L 307.401829 292.828933 
L 398.487273 292.829157 
L 398.487273 292.829157 
" clip-path="url(#pd36de89a17)" style="fill: none; stroke: #008000; stroke-width: 1.5; stroke-linecap: square"/>
   </g>
   <g id="line2d_13">
    <path d="M 73.832727 53.568 
L 74.483338 98.59759 
L 75.133948 158.049966 
L 75.784558 205.444883 
L 76.435169 229.61953 
L 77.085779 240.315695 
L 77.736389 243.076143 
L 78.386999 243.326583 
L 79.03761 242.181157 
L 79.68822 240.066547 
L 80.33883 244.440634 
L 81.640051 242.478918 
L 82.941272 242.499412 
L 83.591882 243.082242 
L 84.242492 243.980382 
L 84.893103 245.218021 
L 85.543713 247.242246 
L 86.194323 248.098937 
L 86.844934 240.479243 
L 88.146154 244.532739 
L 89.447375 250.128669 
L 90.097985 250.665129 
L 90.748595 253.217879 
L 91.399206 253.54805 
L 92.049816 255.708807 
L 92.700426 256.912736 
L 93.351037 248.190199 
L 94.001647 249.953854 
L 95.302868 254.828644 
L 95.953478 256.862202 
L 97.254698 259.720509 
L 97.905309 260.772005 
L 99.206529 262.31712 
L 99.85714 254.377704 
L 102.459581 261.851608 
L 103.760802 264.168606 
L 104.411412 264.657557 
L 105.062022 265.296004 
L 105.712633 265.675908 
L 106.363243 258.622795 
L 107.013853 259.453946 
L 108.315074 263.052685 
L 108.965684 265.022722 
L 109.616294 265.804769 
L 110.266905 265.969525 
L 110.917515 265.622337 
L 111.568125 267.435504 
L 112.218736 268.566006 
L 112.869346 260.908806 
L 113.519956 262.438439 
L 114.170567 264.320264 
L 114.821177 265.777925 
L 115.471787 266.031741 
L 116.122398 267.882535 
L 117.423618 268.822942 
L 118.074228 268.679938 
L 118.724839 270.624063 
L 119.375449 262.833426 
L 120.026059 263.861538 
L 121.97789 268.520773 
L 122.628501 269.316561 
L 123.279111 269.346551 
L 124.580332 272.065181 
L 125.230942 271.674329 
L 125.881552 263.856215 
L 126.532163 265.791263 
L 128.483993 270.199224 
L 129.134604 269.651203 
L 129.785214 271.816126 
L 130.435824 271.011504 
L 131.086435 272.520782 
L 131.737045 273.236486 
L 132.387655 264.903349 
L 133.038266 266.549436 
L 133.688876 267.580106 
L 134.339486 269.670183 
L 134.990097 270.509014 
L 135.640707 272.303318 
L 136.291317 271.622264 
L 136.941927 273.390064 
L 137.592538 274.068748 
L 138.243148 274.273809 
L 138.893758 265.916143 
L 139.544369 267.324973 
L 140.194979 267.957972 
L 140.845589 269.339286 
L 141.4962 270.060632 
L 142.14681 269.353371 
L 142.79742 270.785392 
L 143.448031 271.01509 
L 144.098641 271.369715 
L 144.749251 271.581314 
L 145.399862 266.305237 
L 146.050472 266.878885 
L 146.701082 268.090075 
L 148.652913 269.777875 
L 149.303523 270.778543 
L 149.954134 271.421629 
L 150.604744 271.113881 
L 151.255354 271.688574 
L 151.905965 266.747957 
L 152.556575 266.960416 
L 153.207185 267.899691 
L 153.857796 269.230383 
L 154.508406 269.607116 
L 155.159016 270.870497 
L 155.809627 271.878765 
L 156.460237 271.600432 
L 157.110847 272.417452 
L 157.761457 271.691044 
L 158.412068 266.731632 
L 159.062678 267.465481 
L 160.363899 268.414206 
L 161.014509 270.078261 
L 161.665119 271.228665 
L 162.31573 271.169755 
L 162.96634 271.999161 
L 163.61695 270.696974 
L 164.267561 272.079736 
L 164.918171 267.067562 
L 165.568781 267.446518 
L 166.219392 269.399782 
L 166.870002 270.31517 
L 168.171222 270.929273 
L 168.821833 271.693028 
L 169.472443 271.615658 
L 170.123053 271.134518 
L 170.773664 270.869582 
L 171.424274 267.007641 
L 172.074884 268.651756 
L 172.725495 269.255885 
L 173.376105 270.197051 
L 174.026715 270.261762 
L 174.677326 271.170413 
L 176.629156 271.430316 
L 177.279767 272.729818 
L 177.930377 266.942468 
L 178.580987 268.001959 
L 179.231598 270.064021 
L 179.882208 269.958268 
L 181.183429 270.837491 
L 181.834039 271.758146 
L 182.484649 272.325217 
L 183.13526 272.190564 
L 183.78587 272.543436 
L 184.43648 268.986197 
L 185.087091 268.940122 
L 185.737701 268.715972 
L 186.388311 269.571648 
L 187.038921 270.758107 
L 188.340142 271.447437 
L 189.641363 271.678742 
L 190.291973 272.459556 
L 190.942583 267.364597 
L 191.593194 268.981566 
L 192.243804 269.084199 
L 193.545025 271.275659 
L 194.846245 271.18626 
L 195.496856 271.606518 
L 196.147466 272.24393 
L 196.798076 272.391284 
L 197.448686 267.687529 
L 198.099297 268.916054 
L 198.749907 268.748169 
L 199.400517 270.676493 
L 200.051128 270.702355 
L 200.701738 271.155414 
L 201.352348 272.400641 
L 202.002959 272.027423 
L 202.653569 271.397348 
L 203.304179 272.386435 
L 203.95479 267.955006 
L 204.6054 268.438185 
L 205.25601 270.201413 
L 205.906621 269.701658 
L 206.557231 271.040475 
L 207.207841 271.424083 
L 207.858451 271.533481 
L 208.509062 272.244173 
L 209.159672 272.589926 
L 209.810282 272.601058 
L 210.460893 268.335632 
L 211.111503 268.567356 
L 211.762113 269.28093 
L 212.412724 270.394947 
L 213.063334 270.342488 
L 214.364555 271.59586 
L 215.015165 271.9445 
L 215.665775 271.549781 
L 216.316385 272.086002 
L 216.966996 268.10244 
L 217.617606 269.239183 
L 218.268216 269.545383 
L 218.918827 269.49156 
L 219.569437 271.222869 
L 220.220047 271.842139 
L 220.870658 271.274821 
L 221.521268 271.701174 
L 222.171878 271.633484 
L 222.822489 271.969582 
L 223.473099 268.273916 
L 224.123709 269.506568 
L 224.77432 270.026792 
L 225.42493 270.782884 
L 226.07554 271.33402 
L 226.72615 271.261549 
L 227.376761 271.371774 
L 228.027371 271.861387 
L 228.677981 272.08341 
L 229.328592 272.739423 
L 229.979202 267.629655 
L 230.629812 269.319992 
L 231.280423 270.315837 
L 231.931033 270.250781 
L 232.581643 271.13695 
L 233.232254 271.204094 
L 233.882864 270.881536 
L 234.533474 271.170464 
L 235.184085 272.108799 
L 235.834695 271.705179 
L 236.485305 268.837476 
L 237.135915 268.96408 
L 237.786526 269.38308 
L 238.437136 270.552745 
L 239.087746 270.83291 
L 239.738357 271.409377 
L 240.388967 270.928874 
L 241.690188 271.488534 
L 242.340798 271.762496 
L 242.991408 269.104517 
L 243.642019 269.549686 
L 244.292629 270.350289 
L 244.943239 270.661649 
L 245.59385 270.569359 
L 246.24446 271.28573 
L 246.89507 271.583453 
L 247.54568 271.173308 
L 248.196291 272.448214 
L 248.846901 272.650854 
L 249.497511 269.343003 
L 250.148122 269.349126 
L 250.798732 270.585902 
L 251.449342 270.374088 
L 252.099953 270.407459 
L 252.750563 271.243857 
L 253.401173 270.810902 
L 254.702394 271.902727 
L 255.353004 272.093586 
L 256.003615 269.13163 
L 256.654225 270.233291 
L 257.304835 269.26653 
L 257.955445 270.108335 
L 258.606056 271.209472 
L 259.256666 271.116188 
L 259.907276 271.400988 
L 260.557887 271.902564 
L 261.208497 271.538695 
L 261.859107 271.770356 
L 262.509718 267.900865 
L 263.160328 269.146545 
L 264.461549 270.752625 
L 265.112159 270.997121 
L 265.762769 270.101519 
L 266.413379 270.661221 
L 267.06399 271.453074 
L 267.7146 272.436889 
L 268.36521 272.126201 
L 269.015821 269.311771 
L 269.666431 268.774078 
L 270.317041 268.947055 
L 270.967652 270.185592 
L 271.618262 270.714163 
L 272.268872 271.524119 
L 272.919483 271.167603 
L 273.570093 271.064815 
L 274.220703 271.882464 
L 274.871314 271.463556 
L 275.521924 269.445019 
L 276.172534 268.548892 
L 276.823144 270.142083 
L 277.473755 269.867173 
L 278.124365 271.238719 
L 278.774975 271.554193 
L 279.425586 272.033102 
L 280.076196 271.252313 
L 280.726806 272.266529 
L 281.377417 271.340199 
L 282.028027 268.699472 
L 283.979858 270.736192 
L 284.630468 270.086998 
L 285.281079 271.09085 
L 285.931689 270.738113 
L 286.582299 271.734637 
L 287.232909 272.017159 
L 287.88352 271.473124 
L 288.53413 269.995761 
L 289.18474 268.82928 
L 291.136571 271.426415 
L 291.787182 270.002422 
L 292.437792 271.261331 
L 293.088402 271.198902 
L 293.739013 270.830327 
L 294.389623 271.431972 
L 295.040233 269.676651 
L 295.690844 269.544485 
L 296.341454 269.930035 
L 296.992064 269.919121 
L 297.642674 271.451564 
L 298.293285 269.540735 
L 298.943895 270.925485 
L 299.594505 271.32608 
L 300.245116 270.597197 
L 300.895726 272.168254 
L 301.546336 270.036422 
L 302.196947 269.701759 
L 303.498167 269.943457 
L 304.148778 270.651712 
L 304.799388 270.933144 
L 305.449998 270.542142 
L 306.100608 271.171697 
L 306.751219 271.106851 
L 307.401829 271.390049 
L 308.052439 269.389259 
L 308.70305 269.102957 
L 309.35366 269.889932 
L 310.654881 270.293942 
L 311.956101 271.5905 
L 312.606712 271.197094 
L 313.257322 271.714025 
L 313.907932 271.201108 
L 314.558543 268.537823 
L 315.209153 269.595196 
L 315.859763 269.719019 
L 316.510373 269.289235 
L 317.811594 270.736007 
L 318.462204 271.240997 
L 319.112815 270.89823 
L 319.763425 270.890823 
L 320.414035 271.012628 
L 321.064646 269.768232 
L 321.715256 269.756403 
L 322.365866 270.538476 
L 323.016477 270.167531 
L 323.667087 270.722619 
L 324.317697 270.695896 
L 324.968308 271.017427 
L 325.618918 270.753275 
L 326.269528 271.335635 
L 326.920138 270.795148 
L 327.570749 269.718251 
L 328.221359 269.451462 
L 328.871969 269.573871 
L 329.52258 270.128699 
L 331.474411 270.726637 
L 332.125021 270.516371 
L 332.775631 271.096168 
L 333.426242 271.129807 
L 334.076852 269.080559 
L 334.727462 269.829562 
L 335.378073 269.835426 
L 336.028683 270.299143 
L 336.679293 271.545658 
L 337.329903 270.358888 
L 337.980514 271.577166 
L 338.631124 270.828875 
L 339.281734 270.589295 
L 339.932345 271.586423 
L 340.582955 269.879643 
L 341.233565 269.989902 
L 341.884176 270.30749 
L 342.534786 270.093055 
L 343.185396 269.676844 
L 343.836007 269.811019 
L 344.486617 270.173067 
L 345.137227 270.849407 
L 345.787837 271.255971 
L 346.438448 270.283825 
L 347.089058 268.781355 
L 347.739668 269.840115 
L 348.390279 270.184015 
L 349.040889 269.982037 
L 349.691499 270.704339 
L 350.34211 270.652874 
L 350.99272 270.729476 
L 351.64333 270.348641 
L 352.293941 270.464251 
L 352.944551 271.550116 
L 353.595161 269.305433 
L 354.245772 269.597964 
L 354.896382 270.195826 
L 355.546992 268.915169 
L 356.197602 270.323009 
L 356.848213 269.858579 
L 357.498823 270.687742 
L 358.149433 270.501481 
L 358.800044 270.802275 
L 359.450654 270.598833 
L 360.751875 268.974314 
L 361.402485 270.805865 
L 362.053095 269.287343 
L 363.354316 270.05057 
L 364.004926 270.053418 
L 364.655537 271.053842 
L 365.306147 271.467126 
L 365.956757 269.737344 
L 366.607367 269.127775 
L 367.257978 269.58455 
L 368.559198 269.764373 
L 369.209809 270.682092 
L 369.860419 269.681768 
L 370.511029 269.655318 
L 371.16164 270.743767 
L 372.46286 270.238429 
L 373.113471 269.143684 
L 373.764081 270.147318 
L 374.414691 270.126686 
L 375.065302 270.409913 
L 375.715912 270.214084 
L 376.366522 270.935434 
L 377.017132 270.369357 
L 377.667743 271.558832 
L 378.318353 269.954144 
L 378.968963 271.092636 
L 379.619574 269.624145 
L 380.270184 270.066571 
L 380.920794 270.30801 
L 381.571405 270.035839 
L 382.222015 269.306453 
L 382.872625 270.165232 
L 383.523236 270.533551 
L 384.173846 270.683082 
L 384.824456 268.89624 
L 385.475066 271.037065 
L 386.125677 269.106774 
L 386.776287 269.694821 
L 387.426897 269.244862 
L 388.077508 269.897646 
L 388.728118 269.576967 
L 389.378728 269.778164 
L 390.029339 270.573323 
L 390.679949 269.42169 
L 391.330559 270.912684 
L 391.98117 269.442582 
L 392.63178 268.349352 
L 393.28239 268.653409 
L 393.933001 269.793314 
L 394.583611 270.344006 
L 395.234221 269.935765 
L 395.884831 270.696966 
L 396.535442 269.981031 
L 397.186052 270.047411 
L 397.836662 270.738985 
L 398.487273 271.021076 
L 398.487273 271.021076 
" clip-path="url(#pd36de89a17)" style="fill: none; stroke: #ff0000; stroke-width: 1.5; stroke-linecap: square"/>
   </g>
   <g id="patch_3">
    <path d="M 57.6 307.584 
L 57.6 41.472 
" style="fill: none; stroke: #000000; stroke-width: 0.8; stroke-linejoin: miter; stroke-linecap: square"/>
   </g>
   <g id="patch_4">
    <path d="M 414.72 307.584 
L 414.72 41.472 
" style="fill: none; stroke: #000000; stroke-width: 0.8; stroke-linejoin: miter; stroke-linecap: square"/>
   </g>
   <g id="patch_5">
    <path d="M 57.6 307.584 
L 414.72 307.584 
" style="fill: none; stroke: #000000; stroke-width: 0.8; stroke-linejoin: miter; stroke-linecap: square"/>
   </g>
   <g id="patch_6">
    <path d="M 57.6 41.472 
L 414.72 41.472 
" style="fill: none; stroke: #000000; stroke-width: 0.8; stroke-linejoin: miter; stroke-linecap: square"/>
   </g>
   <g id="text_13">
    <!-- The loss curve on λ_0.00025_8_clients_iid/guest/2 -->
    <g transform="translate(85.929375 35.472) scale(0.12 -0.12)">
     <defs>
      <path id="DejaVuSans-54" d="M -19 4666 
L 3928 4666 
L 3928 4134 
L 2272 4134 
L 2272 0 
L 1638 0 
L 1638 4134 
L -19 4134 
L -19 4666 
z
" transform="scale(0.015625)"/>
      <path id="DejaVuSans-72" d="M 2631 2963 
Q 2534 3019 2420 3045 
Q 2306 3072 2169 3072 
Q 1681 3072 1420 2755 
Q 1159 2438 1159 1844 
L 1159 0 
L 581 0 
L 581 3500 
L 1159 3500 
L 1159 2956 
Q 1341 3275 1631 3429 
Q 1922 3584 2338 3584 
Q 2397 3584 2469 3576 
Q 2541 3569 2628 3553 
L 2631 2963 
z
" transform="scale(0.015625)"/>
      <path id="DejaVuSans-6e" d="M 3513 2113 
L 3513 0 
L 2938 0 
L 2938 2094 
Q 2938 2591 2744 2837 
Q 2550 3084 2163 3084 
Q 1697 3084 1428 2787 
Q 1159 2491 1159 1978 
L 1159 0 
L 581 0 
L 581 3500 
L 1159 3500 
L 1159 2956 
Q 1366 3272 1645 3428 
Q 1925 3584 2291 3584 
Q 2894 3584 3203 3211 
Q 3513 2838 3513 2113 
z
" transform="scale(0.015625)"/>
      <path id="DejaVuSans-3bb" d="M 1981 4316 
L 3597 0 
L 2988 0 
L 2006 2588 
L 800 0 
L 191 0 
L 1725 3356 
L 1494 3975 
Q 1347 4369 1013 4369 
L 713 4369 
L 713 4863 
L 1078 4856 
Q 1784 4847 1981 4316 
z
" transform="scale(0.015625)"/>
      <path id="DejaVuSans-5f" d="M 3263 -1063 
L 3263 -1509 
L -63 -1509 
L -63 -1063 
L 3263 -1063 
z
" transform="scale(0.015625)"/>
      <path id="DejaVuSans-69" d="M 603 3500 
L 1178 3500 
L 1178 0 
L 603 0 
L 603 3500 
z
M 603 4863 
L 1178 4863 
L 1178 4134 
L 603 4134 
L 603 4863 
z
" transform="scale(0.015625)"/>
      <path id="DejaVuSans-74" d="M 1172 4494 
L 1172 3500 
L 2356 3500 
L 2356 3053 
L 1172 3053 
L 1172 1153 
Q 1172 725 1289 603 
Q 1406 481 1766 481 
L 2356 481 
L 2356 0 
L 1766 0 
Q 1100 0 847 248 
Q 594 497 594 1153 
L 594 3053 
L 172 3053 
L 172 3500 
L 594 3500 
L 594 4494 
L 1172 4494 
z
" transform="scale(0.015625)"/>
      <path id="DejaVuSans-64" d="M 2906 2969 
L 2906 4863 
L 3481 4863 
L 3481 0 
L 2906 0 
L 2906 525 
Q 2725 213 2448 61 
Q 2172 -91 1784 -91 
Q 1150 -91 751 415 
Q 353 922 353 1747 
Q 353 2572 751 3078 
Q 1150 3584 1784 3584 
Q 2172 3584 2448 3432 
Q 2725 3281 2906 2969 
z
M 947 1747 
Q 947 1113 1208 752 
Q 1469 391 1925 391 
Q 2381 391 2643 752 
Q 2906 1113 2906 1747 
Q 2906 2381 2643 2742 
Q 2381 3103 1925 3103 
Q 1469 3103 1208 2742 
Q 947 2381 947 1747 
z
" transform="scale(0.015625)"/>
      <path id="DejaVuSans-2f" d="M 1625 4666 
L 2156 4666 
L 531 -594 
L 0 -594 
L 1625 4666 
z
" transform="scale(0.015625)"/>
      <path id="DejaVuSans-67" d="M 2906 1791 
Q 2906 2416 2648 2759 
Q 2391 3103 1925 3103 
Q 1463 3103 1205 2759 
Q 947 2416 947 1791 
Q 947 1169 1205 825 
Q 1463 481 1925 481 
Q 2391 481 2648 825 
Q 2906 1169 2906 1791 
z
M 3481 434 
Q 3481 -459 3084 -895 
Q 2688 -1331 1869 -1331 
Q 1566 -1331 1297 -1286 
Q 1028 -1241 775 -1147 
L 775 -588 
Q 1028 -725 1275 -790 
Q 1522 -856 1778 -856 
Q 2344 -856 2625 -561 
Q 2906 -266 2906 331 
L 2906 616 
Q 2728 306 2450 153 
Q 2172 0 1784 0 
Q 1141 0 747 490 
Q 353 981 353 1791 
Q 353 2603 747 3093 
Q 1141 3584 1784 3584 
Q 2172 3584 2450 3431 
Q 2728 3278 2906 2969 
L 2906 3500 
L 3481 3500 
L 3481 434 
z
" transform="scale(0.015625)"/>
     </defs>
     <use xlink:href="#DejaVuSans-54"/>
     <use xlink:href="#DejaVuSans-68" x="61.083984"/>
     <use xlink:href="#DejaVuSans-65" x="124.462891"/>
     <use xlink:href="#DejaVuSans-20" x="185.986328"/>
     <use xlink:href="#DejaVuSans-6c" x="217.773438"/>
     <use xlink:href="#DejaVuSans-6f" x="245.556641"/>
     <use xlink:href="#DejaVuSans-73" x="306.738281"/>
     <use xlink:href="#DejaVuSans-73" x="358.837891"/>
     <use xlink:href="#DejaVuSans-20" x="410.9375"/>
     <use xlink:href="#DejaVuSans-63" x="442.724609"/>
     <use xlink:href="#DejaVuSans-75" x="497.705078"/>
     <use xlink:href="#DejaVuSans-72" x="561.083984"/>
     <use xlink:href="#DejaVuSans-76" x="602.197266"/>
     <use xlink:href="#DejaVuSans-65" x="661.376953"/>
     <use xlink:href="#DejaVuSans-20" x="722.900391"/>
     <use xlink:href="#DejaVuSans-6f" x="754.6875"/>
     <use xlink:href="#DejaVuSans-6e" x="815.869141"/>
     <use xlink:href="#DejaVuSans-20" x="879.248047"/>
     <use xlink:href="#DejaVuSans-3bb" x="911.035156"/>
     <use xlink:href="#DejaVuSans-5f" x="970.214844"/>
     <use xlink:href="#DejaVuSans-30" x="1020.214844"/>
     <use xlink:href="#DejaVuSans-2e" x="1083.837891"/>
     <use xlink:href="#DejaVuSans-30" x="1115.625"/>
     <use xlink:href="#DejaVuSans-30" x="1179.248047"/>
     <use xlink:href="#DejaVuSans-30" x="1242.871094"/>
     <use xlink:href="#DejaVuSans-32" x="1306.494141"/>
     <use xlink:href="#DejaVuSans-35" x="1370.117188"/>
     <use xlink:href="#DejaVuSans-5f" x="1433.740234"/>
     <use xlink:href="#DejaVuSans-38" x="1483.740234"/>
     <use xlink:href="#DejaVuSans-5f" x="1547.363281"/>
     <use xlink:href="#DejaVuSans-63" x="1597.363281"/>
     <use xlink:href="#DejaVuSans-6c" x="1652.34375"/>
     <use xlink:href="#DejaVuSans-69" x="1680.126953"/>
     <use xlink:href="#DejaVuSans-65" x="1707.910156"/>
     <use xlink:href="#DejaVuSans-6e" x="1769.433594"/>
     <use xlink:href="#DejaVuSans-74" x="1832.8125"/>
     <use xlink:href="#DejaVuSans-73" x="1872.021484"/>
     <use xlink:href="#DejaVuSans-5f" x="1924.121094"/>
     <use xlink:href="#DejaVuSans-69" x="1974.121094"/>
     <use xlink:href="#DejaVuSans-69" x="2001.904297"/>
     <use xlink:href="#DejaVuSans-64" x="2029.6875"/>
     <use xlink:href="#DejaVuSans-2f" x="2093.164062"/>
     <use xlink:href="#DejaVuSans-67" x="2126.855469"/>
     <use xlink:href="#DejaVuSans-75" x="2190.332031"/>
     <use xlink:href="#DejaVuSans-65" x="2253.710938"/>
     <use xlink:href="#DejaVuSans-73" x="2315.234375"/>
     <use xlink:href="#DejaVuSans-74" x="2367.333984"/>
     <use xlink:href="#DejaVuSans-2f" x="2406.542969"/>
     <use xlink:href="#DejaVuSans-32" x="2440.234375"/>
    </g>
   </g>
   <g id="legend_1">
    <g id="patch_7">
     <path d="M 317.418438 94.34075 
L 407.72 94.34075 
Q 409.72 94.34075 409.72 92.34075 
L 409.72 48.472 
Q 409.72 46.472 407.72 46.472 
L 317.418438 46.472 
Q 315.418438 46.472 315.418438 48.472 
L 315.418438 92.34075 
Q 315.418438 94.34075 317.418438 94.34075 
z
" style="fill: #ffffff; opacity: 0.8; stroke: #cccccc; stroke-linejoin: miter"/>
    </g>
    <g id="line2d_14">
     <path d="M 319.418438 54.570438 
L 329.418438 54.570438 
L 339.418438 54.570438 
" style="fill: none; stroke: #0000ff; stroke-width: 1.5; stroke-linecap: square"/>
    </g>
    <g id="text_14">
     <!-- obj_loss -->
     <g transform="translate(347.418438 58.070438) scale(0.1 -0.1)">
      <defs>
       <path id="DejaVuSans-62" d="M 3116 1747 
Q 3116 2381 2855 2742 
Q 2594 3103 2138 3103 
Q 1681 3103 1420 2742 
Q 1159 2381 1159 1747 
Q 1159 1113 1420 752 
Q 1681 391 2138 391 
Q 2594 391 2855 752 
Q 3116 1113 3116 1747 
z
M 1159 2969 
Q 1341 3281 1617 3432 
Q 1894 3584 2278 3584 
Q 2916 3584 3314 3078 
Q 3713 2572 3713 1747 
Q 3713 922 3314 415 
Q 2916 -91 2278 -91 
Q 1894 -91 1617 61 
Q 1341 213 1159 525 
L 1159 0 
L 581 0 
L 581 4863 
L 1159 4863 
L 1159 2969 
z
" transform="scale(0.015625)"/>
       <path id="DejaVuSans-6a" d="M 603 3500 
L 1178 3500 
L 1178 -63 
Q 1178 -731 923 -1031 
Q 669 -1331 103 -1331 
L -116 -1331 
L -116 -844 
L 38 -844 
Q 366 -844 484 -692 
Q 603 -541 603 -63 
L 603 3500 
z
M 603 4863 
L 1178 4863 
L 1178 4134 
L 603 4134 
L 603 4863 
z
" transform="scale(0.015625)"/>
      </defs>
      <use xlink:href="#DejaVuSans-6f"/>
      <use xlink:href="#DejaVuSans-62" x="61.181641"/>
      <use xlink:href="#DejaVuSans-6a" x="124.658203"/>
      <use xlink:href="#DejaVuSans-5f" x="152.441406"/>
      <use xlink:href="#DejaVuSans-6c" x="202.441406"/>
      <use xlink:href="#DejaVuSans-6f" x="230.224609"/>
      <use xlink:href="#DejaVuSans-73" x="291.40625"/>
      <use xlink:href="#DejaVuSans-73" x="343.505859"/>
     </g>
    </g>
    <g id="line2d_15">
     <path d="M 319.418438 69.526688 
L 329.418438 69.526688 
L 339.418438 69.526688 
" style="fill: none; stroke: #008000; stroke-width: 1.5; stroke-linecap: square"/>
    </g>
    <g id="text_15">
     <!-- reg_loss -->
     <g transform="translate(347.418438 73.026688) scale(0.1 -0.1)">
      <use xlink:href="#DejaVuSans-72"/>
      <use xlink:href="#DejaVuSans-65" x="38.863281"/>
      <use xlink:href="#DejaVuSans-67" x="100.386719"/>
      <use xlink:href="#DejaVuSans-5f" x="163.863281"/>
      <use xlink:href="#DejaVuSans-6c" x="213.863281"/>
      <use xlink:href="#DejaVuSans-6f" x="241.646484"/>
      <use xlink:href="#DejaVuSans-73" x="302.828125"/>
      <use xlink:href="#DejaVuSans-73" x="354.927734"/>
     </g>
    </g>
    <g id="line2d_16">
     <path d="M 319.418438 84.482938 
L 329.418438 84.482938 
L 339.418438 84.482938 
" style="fill: none; stroke: #ff0000; stroke-width: 1.5; stroke-linecap: square"/>
    </g>
    <g id="text_16">
     <!-- overall_loss -->
     <g transform="translate(347.418438 87.982938) scale(0.1 -0.1)">
      <use xlink:href="#DejaVuSans-6f"/>
      <use xlink:href="#DejaVuSans-76" x="61.181641"/>
      <use xlink:href="#DejaVuSans-65" x="120.361328"/>
      <use xlink:href="#DejaVuSans-72" x="181.884766"/>
      <use xlink:href="#DejaVuSans-61" x="222.998047"/>
      <use xlink:href="#DejaVuSans-6c" x="284.277344"/>
      <use xlink:href="#DejaVuSans-6c" x="312.060547"/>
      <use xlink:href="#DejaVuSans-5f" x="339.84375"/>
      <use xlink:href="#DejaVuSans-6c" x="389.84375"/>
      <use xlink:href="#DejaVuSans-6f" x="417.626953"/>
      <use xlink:href="#DejaVuSans-73" x="478.808594"/>
      <use xlink:href="#DejaVuSans-73" x="530.908203"/>
     </g>
    </g>
   </g>
  </g>
 </g>
 <defs>
  <clipPath id="pd36de89a17">
   <rect x="57.6" y="41.472" width="357.12" height="266.112"/>
  </clipPath>
 </defs>
</svg>
