<?xml version="1.0" encoding="utf-8" standalone="no"?>
<!DOCTYPE svg PUBLIC "-//W3C//DTD SVG 1.1//EN"
  "http://www.w3.org/Graphics/SVG/1.1/DTD/svg11.dtd">
<svg xmlns:xlink="http://www.w3.org/1999/xlink" width="576pt" height="432pt" viewBox="0 0 576 432" xmlns="http://www.w3.org/2000/svg" version="1.1">
 <metadata>
  <rdf:RDF xmlns:dc="http://purl.org/dc/elements/1.1/" xmlns:cc="http://creativecommons.org/ns#" xmlns:rdf="http://www.w3.org/1999/02/22-rdf-syntax-ns#">
   <cc:Work>
    <dc:type rdf:resource="http://purl.org/dc/dcmitype/StillImage"/>
    <dc:date>2023-04-11T22:54:52.056779</dc:date>
    <dc:format>image/svg+xml</dc:format>
    <dc:creator>
     <cc:Agent>
      <dc:title>Matplotlib v3.7.1, https://matplotlib.org/</dc:title>
     </cc:Agent>
    </dc:creator>
   </cc:Work>
  </rdf:RDF>
 </metadata>
 <defs>
  <style type="text/css">*{stroke-linejoin: round; stroke-linecap: butt}</style>
 </defs>
 <g id="figure_1">
  <g id="patch_1">
   <path d="M 0 432 
L 576 432 
L 576 0 
L 0 0 
z
" style="fill: #ffffff"/>
  </g>
  <g id="axes_1">
   <g id="patch_2">
    <path d="M 72 384.48 
L 518.4 384.48 
L 518.4 51.84 
L 72 51.84 
z
" style="fill: #ffffff"/>
   </g>
   <g id="matplotlib.axis_1">
    <g id="xtick_1">
     <g id="line2d_1">
      <defs>
       <path id="m1faf4f9baa" d="M 0 0 
L 0 3.5 
" style="stroke: #000000; stroke-width: 0.8"/>
      </defs>
      <g>
       <use xlink:href="#m1faf4f9baa" x="92.290909" y="384.48" style="stroke: #000000; stroke-width: 0.8"/>
      </g>
     </g>
     <g id="text_1">
      <!-- 0 -->
      <g transform="translate(89.109659 399.078438) scale(0.1 -0.1)">
       <defs>
        <path id="DejaVuSans-30" d="M 2034 4250 
Q 1547 4250 1301 3770 
Q 1056 3291 1056 2328 
Q 1056 1369 1301 889 
Q 1547 409 2034 409 
Q 2525 409 2770 889 
Q 3016 1369 3016 2328 
Q 3016 3291 2770 3770 
Q 2525 4250 2034 4250 
z
M 2034 4750 
Q 2819 4750 3233 4129 
Q 3647 3509 3647 2328 
Q 3647 1150 3233 529 
Q 2819 -91 2034 -91 
Q 1250 -91 836 529 
Q 422 1150 422 2328 
Q 422 3509 836 4129 
Q 1250 4750 2034 4750 
z
" transform="scale(0.015625)"/>
       </defs>
       <use xlink:href="#DejaVuSans-30"/>
      </g>
     </g>
    </g>
    <g id="xtick_2">
     <g id="line2d_2">
      <g>
       <use xlink:href="#m1faf4f9baa" x="173.617198" y="384.48" style="stroke: #000000; stroke-width: 0.8"/>
      </g>
     </g>
     <g id="text_2">
      <!-- 100 -->
      <g transform="translate(164.073448 399.078438) scale(0.1 -0.1)">
       <defs>
        <path id="DejaVuSans-31" d="M 794 531 
L 1825 531 
L 1825 4091 
L 703 3866 
L 703 4441 
L 1819 4666 
L 2450 4666 
L 2450 531 
L 3481 531 
L 3481 0 
L 794 0 
L 794 531 
z
" transform="scale(0.015625)"/>
       </defs>
       <use xlink:href="#DejaVuSans-31"/>
       <use xlink:href="#DejaVuSans-30" x="63.623047"/>
       <use xlink:href="#DejaVuSans-30" x="127.246094"/>
      </g>
     </g>
    </g>
    <g id="xtick_3">
     <g id="line2d_3">
      <g>
       <use xlink:href="#m1faf4f9baa" x="254.943487" y="384.48" style="stroke: #000000; stroke-width: 0.8"/>
      </g>
     </g>
     <g id="text_3">
      <!-- 200 -->
      <g transform="translate(245.399737 399.078438) scale(0.1 -0.1)">
       <defs>
        <path id="DejaVuSans-32" d="M 1228 531 
L 3431 531 
L 3431 0 
L 469 0 
L 469 531 
Q 828 903 1448 1529 
Q 2069 2156 2228 2338 
Q 2531 2678 2651 2914 
Q 2772 3150 2772 3378 
Q 2772 3750 2511 3984 
Q 2250 4219 1831 4219 
Q 1534 4219 1204 4116 
Q 875 4013 500 3803 
L 500 4441 
Q 881 4594 1212 4672 
Q 1544 4750 1819 4750 
Q 2544 4750 2975 4387 
Q 3406 4025 3406 3419 
Q 3406 3131 3298 2873 
Q 3191 2616 2906 2266 
Q 2828 2175 2409 1742 
Q 1991 1309 1228 531 
z
" transform="scale(0.015625)"/>
       </defs>
       <use xlink:href="#DejaVuSans-32"/>
       <use xlink:href="#DejaVuSans-30" x="63.623047"/>
       <use xlink:href="#DejaVuSans-30" x="127.246094"/>
      </g>
     </g>
    </g>
    <g id="xtick_4">
     <g id="line2d_4">
      <g>
       <use xlink:href="#m1faf4f9baa" x="336.269776" y="384.48" style="stroke: #000000; stroke-width: 0.8"/>
      </g>
     </g>
     <g id="text_4">
      <!-- 300 -->
      <g transform="translate(326.726026 399.078438) scale(0.1 -0.1)">
       <defs>
        <path id="DejaVuSans-33" d="M 2597 2516 
Q 3050 2419 3304 2112 
Q 3559 1806 3559 1356 
Q 3559 666 3084 287 
Q 2609 -91 1734 -91 
Q 1441 -91 1130 -33 
Q 819 25 488 141 
L 488 750 
Q 750 597 1062 519 
Q 1375 441 1716 441 
Q 2309 441 2620 675 
Q 2931 909 2931 1356 
Q 2931 1769 2642 2001 
Q 2353 2234 1838 2234 
L 1294 2234 
L 1294 2753 
L 1863 2753 
Q 2328 2753 2575 2939 
Q 2822 3125 2822 3475 
Q 2822 3834 2567 4026 
Q 2313 4219 1838 4219 
Q 1578 4219 1281 4162 
Q 984 4106 628 3988 
L 628 4550 
Q 988 4650 1302 4700 
Q 1616 4750 1894 4750 
Q 2613 4750 3031 4423 
Q 3450 4097 3450 3541 
Q 3450 3153 3228 2886 
Q 3006 2619 2597 2516 
z
" transform="scale(0.015625)"/>
       </defs>
       <use xlink:href="#DejaVuSans-33"/>
       <use xlink:href="#DejaVuSans-30" x="63.623047"/>
       <use xlink:href="#DejaVuSans-30" x="127.246094"/>
      </g>
     </g>
    </g>
    <g id="xtick_5">
     <g id="line2d_5">
      <g>
       <use xlink:href="#m1faf4f9baa" x="417.596065" y="384.48" style="stroke: #000000; stroke-width: 0.8"/>
      </g>
     </g>
     <g id="text_5">
      <!-- 400 -->
      <g transform="translate(408.052315 399.078438) scale(0.1 -0.1)">
       <defs>
        <path id="DejaVuSans-34" d="M 2419 4116 
L 825 1625 
L 2419 1625 
L 2419 4116 
z
M 2253 4666 
L 3047 4666 
L 3047 1625 
L 3713 1625 
L 3713 1100 
L 3047 1100 
L 3047 0 
L 2419 0 
L 2419 1100 
L 313 1100 
L 313 1709 
L 2253 4666 
z
" transform="scale(0.015625)"/>
       </defs>
       <use xlink:href="#DejaVuSans-34"/>
       <use xlink:href="#DejaVuSans-30" x="63.623047"/>
       <use xlink:href="#DejaVuSans-30" x="127.246094"/>
      </g>
     </g>
    </g>
    <g id="xtick_6">
     <g id="line2d_6">
      <g>
       <use xlink:href="#m1faf4f9baa" x="498.922354" y="384.48" style="stroke: #000000; stroke-width: 0.8"/>
      </g>
     </g>
     <g id="text_6">
      <!-- 500 -->
      <g transform="translate(489.378604 399.078438) scale(0.1 -0.1)">
       <defs>
        <path id="DejaVuSans-35" d="M 691 4666 
L 3169 4666 
L 3169 4134 
L 1269 4134 
L 1269 2991 
Q 1406 3038 1543 3061 
Q 1681 3084 1819 3084 
Q 2600 3084 3056 2656 
Q 3513 2228 3513 1497 
Q 3513 744 3044 326 
Q 2575 -91 1722 -91 
Q 1428 -91 1123 -41 
Q 819 9 494 109 
L 494 744 
Q 775 591 1075 516 
Q 1375 441 1709 441 
Q 2250 441 2565 725 
Q 2881 1009 2881 1497 
Q 2881 1984 2565 2268 
Q 2250 2553 1709 2553 
Q 1456 2553 1204 2497 
Q 953 2441 691 2322 
L 691 4666 
z
" transform="scale(0.015625)"/>
       </defs>
       <use xlink:href="#DejaVuSans-35"/>
       <use xlink:href="#DejaVuSans-30" x="63.623047"/>
       <use xlink:href="#DejaVuSans-30" x="127.246094"/>
      </g>
     </g>
    </g>
    <g id="text_7">
     <!-- epoch -->
     <g transform="translate(279.971875 412.756563) scale(0.1 -0.1)">
      <defs>
       <path id="DejaVuSans-65" d="M 3597 1894 
L 3597 1613 
L 953 1613 
Q 991 1019 1311 708 
Q 1631 397 2203 397 
Q 2534 397 2845 478 
Q 3156 559 3463 722 
L 3463 178 
Q 3153 47 2828 -22 
Q 2503 -91 2169 -91 
Q 1331 -91 842 396 
Q 353 884 353 1716 
Q 353 2575 817 3079 
Q 1281 3584 2069 3584 
Q 2775 3584 3186 3129 
Q 3597 2675 3597 1894 
z
M 3022 2063 
Q 3016 2534 2758 2815 
Q 2500 3097 2075 3097 
Q 1594 3097 1305 2825 
Q 1016 2553 972 2059 
L 3022 2063 
z
" transform="scale(0.015625)"/>
       <path id="DejaVuSans-70" d="M 1159 525 
L 1159 -1331 
L 581 -1331 
L 581 3500 
L 1159 3500 
L 1159 2969 
Q 1341 3281 1617 3432 
Q 1894 3584 2278 3584 
Q 2916 3584 3314 3078 
Q 3713 2572 3713 1747 
Q 3713 922 3314 415 
Q 2916 -91 2278 -91 
Q 1894 -91 1617 61 
Q 1341 213 1159 525 
z
M 3116 1747 
Q 3116 2381 2855 2742 
Q 2594 3103 2138 3103 
Q 1681 3103 1420 2742 
Q 1159 2381 1159 1747 
Q 1159 1113 1420 752 
Q 1681 391 2138 391 
Q 2594 391 2855 752 
Q 3116 1113 3116 1747 
z
" transform="scale(0.015625)"/>
       <path id="DejaVuSans-6f" d="M 1959 3097 
Q 1497 3097 1228 2736 
Q 959 2375 959 1747 
Q 959 1119 1226 758 
Q 1494 397 1959 397 
Q 2419 397 2687 759 
Q 2956 1122 2956 1747 
Q 2956 2369 2687 2733 
Q 2419 3097 1959 3097 
z
M 1959 3584 
Q 2709 3584 3137 3096 
Q 3566 2609 3566 1747 
Q 3566 888 3137 398 
Q 2709 -91 1959 -91 
Q 1206 -91 779 398 
Q 353 888 353 1747 
Q 353 2609 779 3096 
Q 1206 3584 1959 3584 
z
" transform="scale(0.015625)"/>
       <path id="DejaVuSans-63" d="M 3122 3366 
L 3122 2828 
Q 2878 2963 2633 3030 
Q 2388 3097 2138 3097 
Q 1578 3097 1268 2742 
Q 959 2388 959 1747 
Q 959 1106 1268 751 
Q 1578 397 2138 397 
Q 2388 397 2633 464 
Q 2878 531 3122 666 
L 3122 134 
Q 2881 22 2623 -34 
Q 2366 -91 2075 -91 
Q 1284 -91 818 406 
Q 353 903 353 1747 
Q 353 2603 823 3093 
Q 1294 3584 2113 3584 
Q 2378 3584 2631 3529 
Q 2884 3475 3122 3366 
z
" transform="scale(0.015625)"/>
       <path id="DejaVuSans-68" d="M 3513 2113 
L 3513 0 
L 2938 0 
L 2938 2094 
Q 2938 2591 2744 2837 
Q 2550 3084 2163 3084 
Q 1697 3084 1428 2787 
Q 1159 2491 1159 1978 
L 1159 0 
L 581 0 
L 581 4863 
L 1159 4863 
L 1159 2956 
Q 1366 3272 1645 3428 
Q 1925 3584 2291 3584 
Q 2894 3584 3203 3211 
Q 3513 2838 3513 2113 
z
" transform="scale(0.015625)"/>
      </defs>
      <use xlink:href="#DejaVuSans-65"/>
      <use xlink:href="#DejaVuSans-70" x="61.523438"/>
      <use xlink:href="#DejaVuSans-6f" x="125"/>
      <use xlink:href="#DejaVuSans-63" x="186.181641"/>
      <use xlink:href="#DejaVuSans-68" x="241.162109"/>
     </g>
    </g>
   </g>
   <g id="matplotlib.axis_2">
    <g id="ytick_1">
     <g id="line2d_7">
      <defs>
       <path id="m55e9d178db" d="M 0 0 
L -3.5 0 
" style="stroke: #000000; stroke-width: 0.8"/>
      </defs>
      <g>
       <use xlink:href="#m55e9d178db" x="72" y="384.48" style="stroke: #000000; stroke-width: 0.8"/>
      </g>
     </g>
     <g id="text_8">
      <!-- 0.0 -->
      <g transform="translate(49.096875 388.279219) scale(0.1 -0.1)">
       <defs>
        <path id="DejaVuSans-2e" d="M 684 794 
L 1344 794 
L 1344 0 
L 684 0 
L 684 794 
z
" transform="scale(0.015625)"/>
       </defs>
       <use xlink:href="#DejaVuSans-30"/>
       <use xlink:href="#DejaVuSans-2e" x="63.623047"/>
       <use xlink:href="#DejaVuSans-30" x="95.410156"/>
      </g>
     </g>
    </g>
    <g id="ytick_2">
     <g id="line2d_8">
      <g>
       <use xlink:href="#m55e9d178db" x="72" y="317.952" style="stroke: #000000; stroke-width: 0.8"/>
      </g>
     </g>
     <g id="text_9">
      <!-- 0.2 -->
      <g transform="translate(49.096875 321.751219) scale(0.1 -0.1)">
       <use xlink:href="#DejaVuSans-30"/>
       <use xlink:href="#DejaVuSans-2e" x="63.623047"/>
       <use xlink:href="#DejaVuSans-32" x="95.410156"/>
      </g>
     </g>
    </g>
    <g id="ytick_3">
     <g id="line2d_9">
      <g>
       <use xlink:href="#m55e9d178db" x="72" y="251.424" style="stroke: #000000; stroke-width: 0.8"/>
      </g>
     </g>
     <g id="text_10">
      <!-- 0.4 -->
      <g transform="translate(49.096875 255.223219) scale(0.1 -0.1)">
       <use xlink:href="#DejaVuSans-30"/>
       <use xlink:href="#DejaVuSans-2e" x="63.623047"/>
       <use xlink:href="#DejaVuSans-34" x="95.410156"/>
      </g>
     </g>
    </g>
    <g id="ytick_4">
     <g id="line2d_10">
      <g>
       <use xlink:href="#m55e9d178db" x="72" y="184.896" style="stroke: #000000; stroke-width: 0.8"/>
      </g>
     </g>
     <g id="text_11">
      <!-- 0.6 -->
      <g transform="translate(49.096875 188.695219) scale(0.1 -0.1)">
       <defs>
        <path id="DejaVuSans-36" d="M 2113 2584 
Q 1688 2584 1439 2293 
Q 1191 2003 1191 1497 
Q 1191 994 1439 701 
Q 1688 409 2113 409 
Q 2538 409 2786 701 
Q 3034 994 3034 1497 
Q 3034 2003 2786 2293 
Q 2538 2584 2113 2584 
z
M 3366 4563 
L 3366 3988 
Q 3128 4100 2886 4159 
Q 2644 4219 2406 4219 
Q 1781 4219 1451 3797 
Q 1122 3375 1075 2522 
Q 1259 2794 1537 2939 
Q 1816 3084 2150 3084 
Q 2853 3084 3261 2657 
Q 3669 2231 3669 1497 
Q 3669 778 3244 343 
Q 2819 -91 2113 -91 
Q 1303 -91 875 529 
Q 447 1150 447 2328 
Q 447 3434 972 4092 
Q 1497 4750 2381 4750 
Q 2619 4750 2861 4703 
Q 3103 4656 3366 4563 
z
" transform="scale(0.015625)"/>
       </defs>
       <use xlink:href="#DejaVuSans-30"/>
       <use xlink:href="#DejaVuSans-2e" x="63.623047"/>
       <use xlink:href="#DejaVuSans-36" x="95.410156"/>
      </g>
     </g>
    </g>
    <g id="ytick_5">
     <g id="line2d_11">
      <g>
       <use xlink:href="#m55e9d178db" x="72" y="118.368" style="stroke: #000000; stroke-width: 0.8"/>
      </g>
     </g>
     <g id="text_12">
      <!-- 0.8 -->
      <g transform="translate(49.096875 122.167219) scale(0.1 -0.1)">
       <defs>
        <path id="DejaVuSans-38" d="M 2034 2216 
Q 1584 2216 1326 1975 
Q 1069 1734 1069 1313 
Q 1069 891 1326 650 
Q 1584 409 2034 409 
Q 2484 409 2743 651 
Q 3003 894 3003 1313 
Q 3003 1734 2745 1975 
Q 2488 2216 2034 2216 
z
M 1403 2484 
Q 997 2584 770 2862 
Q 544 3141 544 3541 
Q 544 4100 942 4425 
Q 1341 4750 2034 4750 
Q 2731 4750 3128 4425 
Q 3525 4100 3525 3541 
Q 3525 3141 3298 2862 
Q 3072 2584 2669 2484 
Q 3125 2378 3379 2068 
Q 3634 1759 3634 1313 
Q 3634 634 3220 271 
Q 2806 -91 2034 -91 
Q 1263 -91 848 271 
Q 434 634 434 1313 
Q 434 1759 690 2068 
Q 947 2378 1403 2484 
z
M 1172 3481 
Q 1172 3119 1398 2916 
Q 1625 2713 2034 2713 
Q 2441 2713 2670 2916 
Q 2900 3119 2900 3481 
Q 2900 3844 2670 4047 
Q 2441 4250 2034 4250 
Q 1625 4250 1398 4047 
Q 1172 3844 1172 3481 
z
" transform="scale(0.015625)"/>
       </defs>
       <use xlink:href="#DejaVuSans-30"/>
       <use xlink:href="#DejaVuSans-2e" x="63.623047"/>
       <use xlink:href="#DejaVuSans-38" x="95.410156"/>
      </g>
     </g>
    </g>
    <g id="ytick_6">
     <g id="line2d_12">
      <g>
       <use xlink:href="#m55e9d178db" x="72" y="51.84" style="stroke: #000000; stroke-width: 0.8"/>
      </g>
     </g>
     <g id="text_13">
      <!-- 1.0 -->
      <g transform="translate(49.096875 55.639219) scale(0.1 -0.1)">
       <use xlink:href="#DejaVuSans-31"/>
       <use xlink:href="#DejaVuSans-2e" x="63.623047"/>
       <use xlink:href="#DejaVuSans-30" x="95.410156"/>
      </g>
     </g>
    </g>
    <g id="text_14">
     <!-- rate -->
     <g transform="translate(43.017187 228.31625) rotate(-90) scale(0.1 -0.1)">
      <defs>
       <path id="DejaVuSans-72" d="M 2631 2963 
Q 2534 3019 2420 3045 
Q 2306 3072 2169 3072 
Q 1681 3072 1420 2755 
Q 1159 2438 1159 1844 
L 1159 0 
L 581 0 
L 581 3500 
L 1159 3500 
L 1159 2956 
Q 1341 3275 1631 3429 
Q 1922 3584 2338 3584 
Q 2397 3584 2469 3576 
Q 2541 3569 2628 3553 
L 2631 2963 
z
" transform="scale(0.015625)"/>
       <path id="DejaVuSans-61" d="M 2194 1759 
Q 1497 1759 1228 1600 
Q 959 1441 959 1056 
Q 959 750 1161 570 
Q 1363 391 1709 391 
Q 2188 391 2477 730 
Q 2766 1069 2766 1631 
L 2766 1759 
L 2194 1759 
z
M 3341 1997 
L 3341 0 
L 2766 0 
L 2766 531 
Q 2569 213 2275 61 
Q 1981 -91 1556 -91 
Q 1019 -91 701 211 
Q 384 513 384 1019 
Q 384 1609 779 1909 
Q 1175 2209 1959 2209 
L 2766 2209 
L 2766 2266 
Q 2766 2663 2505 2880 
Q 2244 3097 1772 3097 
Q 1472 3097 1187 3025 
Q 903 2953 641 2809 
L 641 3341 
Q 956 3463 1253 3523 
Q 1550 3584 1831 3584 
Q 2591 3584 2966 3190 
Q 3341 2797 3341 1997 
z
" transform="scale(0.015625)"/>
       <path id="DejaVuSans-74" d="M 1172 4494 
L 1172 3500 
L 2356 3500 
L 2356 3053 
L 1172 3053 
L 1172 1153 
Q 1172 725 1289 603 
Q 1406 481 1766 481 
L 2356 481 
L 2356 0 
L 1766 0 
Q 1100 0 847 248 
Q 594 497 594 1153 
L 594 3053 
L 172 3053 
L 172 3500 
L 594 3500 
L 594 4494 
L 1172 4494 
z
" transform="scale(0.015625)"/>
      </defs>
      <use xlink:href="#DejaVuSans-72"/>
      <use xlink:href="#DejaVuSans-61" x="41.113281"/>
      <use xlink:href="#DejaVuSans-74" x="102.392578"/>
      <use xlink:href="#DejaVuSans-65" x="141.601562"/>
     </g>
    </g>
   </g>
   <g id="line2d_13">
    <path d="M 92.290909 372.859882 
L 93.104172 370.748976 
L 93.917435 364.699223 
L 94.730698 324.902687 
L 95.543961 213.783155 
L 96.357224 224.099997 
L 97.170486 168.264008 
L 97.983749 182.519997 
L 98.797012 169.242346 
L 99.610275 144.240004 
L 100.423538 229.831574 
L 101.236801 226.762758 
L 102.050064 219.658377 
L 102.863327 201.527996 
L 104.489852 142.559993 
L 105.303115 179.778454 
L 106.116378 149.675288 
L 106.929641 154.800004 
L 107.742904 157.311218 
L 108.556167 183.145258 
L 109.36943 194.399992 
L 110.182693 184.09445 
L 110.995956 194.399992 
L 111.809218 190.790883 
L 112.622481 167.999993 
L 113.435744 132.132417 
L 114.249007 143.602768 
L 115.06227 140.1975 
L 115.875533 150.226476 
L 116.688796 195.984001 
L 117.502059 202.320001 
L 118.315322 187.522103 
L 119.941847 167.760008 
L 120.75511 144.240004 
L 121.568373 142.559993 
L 122.381636 170.640003 
L 123.194899 149.675288 
L 124.008162 158.455388 
L 124.821425 190.440007 
L 125.634688 172.071326 
L 126.44795 178.559992 
L 127.261213 166.984618 
L 128.074476 128.973914 
L 128.887739 143.955687 
L 129.701002 130.108231 
L 130.514265 118.367996 
L 131.327528 128.973914 
L 132.140791 120.801945 
L 132.954054 184.895992 
L 133.767316 178.158994 
L 134.580579 172.800004 
L 135.393842 158.284798 
L 136.207105 149.675288 
L 137.020368 143.75369 
L 137.833631 108.219662 
L 138.646894 143.955687 
L 139.460157 131.673603 
L 140.27342 88.799998 
L 141.086682 177.594145 
L 141.899945 188.809404 
L 142.713208 161.316448 
L 143.526471 166.826658 
L 144.339734 141.396928 
L 145.152997 129.600008 
L 145.96626 128.257291 
L 146.779523 108.6322 
L 147.592786 107.280007 
L 148.406048 85.782861 
L 149.219311 182.36963 
L 150.032574 170.640003 
L 152.472363 109.690441 
L 153.285626 105.781629 
L 154.098889 92.296212 
L 154.912152 103.940246 
L 155.725414 76.877415 
L 156.538677 76.253939 
L 157.35194 166.679998 
L 158.165203 154.190763 
L 158.978466 153.078257 
L 159.791729 138.779996 
L 160.604992 97.199996 
L 161.418255 126.952266 
L 162.231518 92.991343 
L 163.04478 94.304676 
L 163.858043 73.399997 
L 164.671306 76.031997 
L 165.484569 161.3678 
L 166.297832 142.559993 
L 167.111095 144.017348 
L 167.924358 113.981535 
L 168.737621 114.866528 
L 169.550884 86.036645 
L 170.364146 83.221128 
L 171.177409 78.883896 
L 171.990672 80.76521 
L 172.803935 64.440008 
L 173.617198 165.079155 
L 174.430461 156.490781 
L 175.243724 139.569226 
L 176.056987 128.872421 
L 176.87025 123.85485 
L 177.683512 117.063526 
L 178.496775 109.068392 
L 179.310038 84.030977 
L 180.123301 87.607747 
L 180.936564 87.996513 
L 181.749827 159.024004 
L 182.56309 141.084872 
L 183.376353 126.590564 
L 184.189616 140.308094 
L 185.002878 102.754281 
L 185.816141 122.281408 
L 186.629404 103.815 
L 187.442667 82.388577 
L 188.25593 86.854742 
L 189.069193 75.124798 
L 189.882456 147.935994 
L 190.695719 152.032765 
L 191.508982 130.529037 
L 192.322244 119.075737 
L 193.135507 115.537014 
L 193.94877 99.816928 
L 194.762033 95.227836 
L 195.575296 99.359997 
L 196.388559 82.079991 
L 197.201822 78.187715 
L 198.015085 171.44089 
L 198.828348 151.632004 
L 199.64161 140.091426 
L 200.454873 135.875377 
L 201.268136 105.695997 
L 202.081399 111.715202 
L 202.894662 97.199996 
L 203.707925 86.687998 
L 204.521188 96.420621 
L 205.334451 77.427691 
L 206.147714 152.753254 
L 206.960976 148.025057 
L 207.774239 130.713407 
L 208.587502 116.996293 
L 209.400765 109.412309 
L 210.214028 89.954993 
L 211.027291 82.079991 
L 211.840554 98.880008 
L 212.653817 88.799998 
L 213.46708 89.497349 
L 214.280343 151.989681 
L 215.093605 141.540673 
L 215.906868 126.153183 
L 216.720131 114.015696 
L 217.533394 105.695997 
L 218.346657 103.015382 
L 219.15992 89.145422 
L 219.973183 113.200772 
L 220.786446 90.974115 
L 221.599709 63.614872 
L 222.412971 159.024004 
L 223.226234 130.108231 
L 224.039497 116.996293 
L 224.85276 127.768697 
L 225.666023 106.708457 
L 226.479286 99.359997 
L 227.292549 85.439994 
L 228.105812 90.797834 
L 228.919075 83.113844 
L 229.732337 81.018955 
L 230.5456 142.266416 
L 231.358863 135.875377 
L 232.172126 100.860635 
L 232.985389 125.432911 
L 233.798652 108.863997 
L 234.611915 94.655057 
L 235.425178 97.496468 
L 236.238441 92.63547 
L 237.051703 89.145422 
L 237.864966 78.810815 
L 238.678229 148.860007 
L 239.491492 142.231303 
L 240.304755 131.534993 
L 241.931281 106.148565 
L 242.744544 101.580569 
L 243.557807 109.296005 
L 244.371069 90.797834 
L 245.184332 94.175999 
L 245.997595 82.357429 
L 246.810858 150.535379 
L 247.624121 128.603072 
L 248.437384 132.258457 
L 249.250647 119.659797 
L 250.06391 114.015696 
L 250.877173 112.610763 
L 251.690435 82.331991 
L 252.503698 89.772626 
L 253.316961 102.155291 
L 254.130224 80.76521 
L 254.943487 137.571964 
L 255.75675 135.840006 
L 256.570013 124.296236 
L 257.383276 128.840004 
L 258.196539 92.991343 
L 259.009801 106.148565 
L 259.823064 103.512224 
L 260.636327 80.905625 
L 261.44959 98.963995 
L 262.262853 76.379007 
L 263.076116 122.281408 
L 263.889379 140.091426 
L 264.702642 131.801546 
L 265.515905 117.768649 
L 266.329167 117.063526 
L 267.14243 103.45655 
L 267.955693 98.471772 
L 268.768956 96.618454 
L 269.582219 101.11999 
L 270.395482 100.223994 
L 271.208745 138.465007 
L 272.022008 116.221934 
L 272.835271 135.840006 
L 273.648533 125.759996 
L 275.275059 89.772626 
L 276.088322 106.771368 
L 276.901585 103.719633 
L 277.714848 102.155291 
L 278.528111 87.876005 
L 279.341374 134.105807 
L 280.154637 125.759996 
L 281.781162 113.115794 
L 282.594425 103.719633 
L 283.407688 106.821827 
L 284.220951 104.508009 
L 285.034214 98.574555 
L 285.847477 85.104008 
L 286.66074 80.76521 
L 287.474003 147.8598 
L 288.287265 127.871995 
L 289.100528 120.878497 
L 289.913791 120.149997 
L 290.727054 100.282721 
L 291.540317 89.145422 
L 292.35358 108.388806 
L 293.166843 112.320002 
L 293.980106 95.995751 
L 294.793369 93.42 
L 295.606631 142.559993 
L 296.419894 143.711995 
L 297.233157 120.878497 
L 298.04642 124.703996 
L 298.859683 103.45655 
L 299.672946 104.362103 
L 300.486209 108.219662 
L 301.299472 106.324132 
L 302.112735 102.155291 
L 302.925997 93.769409 
L 303.73926 131.801546 
L 304.552523 124.605 
L 306.179049 117.124493 
L 306.992312 99.8499 
L 307.805575 105.187933 
L 308.618838 95.362995 
L 309.432101 92.63547 
L 310.245363 93.07636 
L 311.058626 102.155291 
L 311.871889 124.947688 
L 312.685152 129.559621 
L 313.498415 116.601777 
L 314.311678 118.367996 
L 315.124941 110.90692 
L 315.938204 106.821827 
L 316.751467 127.045571 
L 317.564729 118.904512 
L 318.377992 94.124747 
L 319.191255 91.986199 
L 320.004518 129.908574 
L 320.817781 126.450844 
L 321.631044 118.367996 
L 322.444307 122.61446 
L 324.070833 104.689346 
L 324.884095 101.735992 
L 325.697358 105.858458 
L 326.510621 106.371142 
L 327.323884 98.409595 
L 328.137147 145.919996 
L 328.95041 135 
L 329.763673 129.559621 
L 330.576936 114.415843 
L 331.390199 108.388806 
L 332.203461 111.122378 
L 333.016724 108.863997 
L 333.829987 99.788099 
L 334.64325 102.330006 
L 335.456513 97.443867 
L 336.269776 145.919996 
L 337.083039 142.266416 
L 337.896302 140.939997 
L 338.709565 129.755669 
L 339.522827 114.771894 
L 340.33609 108.219662 
L 341.149353 89.145422 
L 341.962616 112.320002 
L 342.775879 97.616143 
L 343.589142 96.791344 
L 344.402405 135.840006 
L 345.215668 126.952266 
L 346.028931 111.464154 
L 346.842193 123.85485 
L 347.655456 109.971269 
L 348.468719 107.280007 
L 349.281982 94.486151 
L 350.095245 103.015382 
L 350.908508 92.690529 
L 351.721771 108.778384 
L 352.535034 129.691906 
L 353.348297 129.908574 
L 354.161559 114.602255 
L 354.974822 104.199999 
L 355.788085 113.802359 
L 356.601348 120.23327 
L 358.227874 94.564408 
L 359.041137 90.449992 
L 359.8544 98.120341 
L 360.667663 134.176629 
L 361.480925 135.723126 
L 362.294188 131.563643 
L 363.107451 110.137735 
L 363.920714 102.049812 
L 364.733977 115.041599 
L 365.54724 103.247991 
L 366.360503 120.567274 
L 367.173766 116.601777 
L 367.987029 99.788099 
L 368.800291 128.603072 
L 369.613554 133.43094 
L 370.426817 118.978347 
L 371.24008 138.326397 
L 372.053343 109.412309 
L 372.866606 131.039995 
L 373.679869 96.791344 
L 374.493132 115.926612 
L 375.306395 105.062409 
L 376.119657 99.359997 
L 376.93292 125.759996 
L 377.746183 122.206145 
L 378.559446 129.348345 
L 379.372709 126.450844 
L 380.185972 117.709307 
L 380.999235 124.517643 
L 381.812498 117.180008 
L 382.625761 112.320002 
L 383.439024 110.359995 
L 384.252286 103.015382 
L 385.065549 129.119999 
L 385.878812 119.040009 
L 386.692075 115.680005 
L 387.505338 123.342047 
L 388.318601 128.347206 
L 389.131864 119.599999 
L 389.945127 104.508009 
L 390.75839 115.926612 
L 391.571652 103.719633 
L 392.384915 105.599995 
L 393.198178 142.559993 
L 394.824704 122.680007 
L 395.637967 140.763558 
L 396.45123 115.926612 
L 397.264493 104.826905 
L 398.077756 114.602255 
L 398.891018 116.676604 
L 399.704281 114.926901 
L 400.517544 109.296005 
L 401.330807 122.399992 
L 402.14407 124.296236 
L 403.770596 117.740376 
L 404.583859 123.762159 
L 405.397122 113.200772 
L 406.210384 106.741746 
L 407.023647 110.714341 
L 407.83691 110.359995 
L 408.650173 105.858458 
L 409.463436 126.847064 
L 410.276699 130.464004 
L 411.089962 122.206145 
L 411.903225 138.198454 
L 412.716488 126.397232 
L 413.52975 112.610763 
L 414.343013 121.391993 
L 415.156276 119.545495 
L 415.969539 126.758914 
L 416.782802 112.320002 
L 417.596065 127.284128 
L 418.409328 126.153183 
L 419.222591 126.118842 
L 420.035854 121.535996 
L 420.849116 107.280007 
L 421.662379 119.659797 
L 422.475642 114.015696 
L 423.288905 105.062409 
L 424.102168 103.719633 
L 424.915431 107.280007 
L 425.728694 112.610763 
L 426.541957 129.755669 
L 427.35522 122.61446 
L 428.168482 114.21 
L 428.981745 135.777194 
L 429.795008 117.740376 
L 430.608271 118.367996 
L 431.421534 97.616143 
L 432.234797 112.610763 
L 433.04806 116.519991 
L 433.861323 121.535996 
L 435.487848 126.450844 
L 436.301111 134.237061 
L 437.114374 123.120006 
L 437.927637 126.450844 
L 439.554163 111.715202 
L 440.367426 117.230765 
L 441.180689 113.115794 
L 441.993952 140.308094 
L 442.807214 111.122378 
L 443.620477 126.952266 
L 444.43374 127.284128 
L 445.247003 110.137735 
L 446.060266 117.740376 
L 446.873529 115.926612 
L 447.686792 115.343999 
L 448.500055 120.003932 
L 449.313318 112.031996 
L 450.12658 116.430294 
L 450.939843 141.994768 
L 451.753106 129.559621 
L 452.566369 127.871995 
L 453.379632 134.237061 
L 455.006158 115.343999 
L 455.819421 143.09522 
L 456.632684 112.582966 
L 457.445946 122.489213 
L 458.259209 127.284128 
L 459.072472 138.745954 
L 459.885735 124.153046 
L 460.698998 125.759996 
L 461.512261 100.282721 
L 462.325524 114.415843 
L 463.138787 125.02081 
L 463.95205 100.667898 
L 464.765312 110.359995 
L 465.578575 123.120006 
L 466.391838 128.603072 
L 467.205101 125.432911 
L 468.831627 135 
L 469.64489 127.871995 
L 470.458153 125.759996 
L 471.271416 139.376845 
L 472.084678 112.582966 
L 472.897941 124.41599 
L 473.711204 111.715202 
L 474.524467 130.464004 
L 475.33773 116.331437 
L 476.150993 110.137735 
L 476.964256 132.132417 
L 477.777519 124.296236 
L 478.590782 114.602255 
L 479.404044 116.033677 
L 480.217307 121.869464 
L 481.03057 135.777194 
L 481.843833 110.19789 
L 482.657096 137.571964 
L 483.470359 123.585878 
L 484.283622 140.340551 
L 485.096885 124.605 
L 485.910148 128.376629 
L 486.72341 131.534993 
L 487.536673 122.88932 
L 488.349936 135 
L 489.163199 109.296005 
L 489.976462 122.206145 
L 490.789725 142.294729 
L 491.602988 135.749199 
L 492.416251 133.541058 
L 493.229514 110.541173 
L 494.042776 126.118842 
L 494.856039 134.237061 
L 495.669302 138.745954 
L 496.482565 124.605 
L 497.295828 93.42 
L 498.109091 113.658059 
L 498.109091 113.658059 
" clip-path="url(#pea4c099a5f)" style="fill: none; stroke: #0000ff; stroke-width: 1.5; stroke-linecap: square"/>
   </g>
   <g id="line2d_14">
    <path d="M 92.290909 207.415809 
L 93.104172 235.780464 
L 93.917435 300.245581 
L 94.730698 343.222326 
L 95.543961 350.958138 
L 96.357224 361.272557 
L 97.170486 350.958138 
L 97.983749 355.255815 
L 98.797012 356.115348 
L 99.610275 350.958138 
L 100.423538 338.924649 
L 101.236801 337.205584 
L 102.050064 337.205584 
L 102.863327 346.660464 
L 103.67659 353.536744 
L 104.489852 356.974883 
L 105.303115 363.851163 
L 106.116378 363.851163 
L 106.929641 359.553489 
L 107.742904 360.413024 
L 108.556167 344.941396 
L 109.36943 346.660464 
L 110.182693 341.503255 
L 110.995956 346.660464 
L 111.809218 344.941396 
L 112.622481 349.23907 
L 113.435744 346.660464 
L 114.249007 348.379535 
L 115.06227 344.081861 
L 115.875533 341.503255 
L 116.688796 340.64372 
L 117.502059 344.941396 
L 118.315322 345.800929 
L 119.128584 347.52 
L 119.941847 347.52 
L 120.75511 350.958138 
L 121.568373 350.098606 
L 122.381636 353.536744 
L 123.194899 343.222326 
L 124.008162 338.924649 
L 124.821425 342.36279 
L 125.634688 338.924649 
L 127.261213 340.64372 
L 128.074476 338.924649 
L 128.887739 344.081861 
L 129.701002 339.784185 
L 130.514265 336.346048 
L 131.327528 338.924649 
L 132.140791 328.610231 
L 132.954054 343.222326 
L 133.767316 342.36279 
L 134.580579 342.36279 
L 135.393842 340.64372 
L 136.207105 343.222326 
L 137.020368 337.205584 
L 137.833631 342.36279 
L 138.646894 344.081861 
L 139.460157 335.486513 
L 140.27342 322.593489 
L 141.086682 340.64372 
L 141.899945 341.503255 
L 142.713208 338.924649 
L 143.526471 338.924649 
L 144.339734 335.486513 
L 145.152997 333.767442 
L 145.96626 335.486513 
L 147.592786 315.717211 
L 148.406048 308.840929 
L 149.219311 343.222326 
L 150.032574 338.065114 
L 150.845837 338.924649 
L 151.6591 334.626978 
L 152.472363 335.486513 
L 153.285626 331.188837 
L 154.098889 328.610231 
L 154.912152 324.312559 
L 156.538677 297.666975 
L 157.35194 337.205584 
L 158.165203 330.329301 
L 159.791729 328.610231 
L 160.604992 319.155347 
L 161.418255 322.593489 
L 162.231518 311.419535 
L 163.04478 313.998141 
L 163.858043 297.666975 
L 164.671306 296.80744 
L 165.484569 337.205584 
L 166.297832 329.469766 
L 167.111095 332.907907 
L 167.924358 320.874418 
L 168.737621 318.295812 
L 169.550884 301.964651 
L 170.364146 301.964651 
L 171.177409 287.352561 
L 171.990672 276.178603 
L 172.803935 275.319067 
L 173.617198 331.188837 
L 174.430461 332.048372 
L 176.056987 321.733953 
L 176.87025 319.155347 
L 177.683512 313.998141 
L 178.496775 318.295812 
L 179.310038 312.27907 
L 180.936564 313.998141 
L 181.749827 332.048372 
L 182.56309 332.907907 
L 183.376353 325.172094 
L 184.189616 325.172094 
L 185.002878 313.138605 
L 185.816141 326.891165 
L 186.629404 314.857676 
L 187.442667 307.981394 
L 188.25593 311.419535 
L 189.069193 304.543257 
L 189.882456 329.469766 
L 190.695719 334.626978 
L 191.508982 323.453024 
L 192.322244 320.014883 
L 193.135507 319.155347 
L 193.94877 307.981394 
L 194.762033 298.52651 
L 195.575296 301.964651 
L 196.388559 298.52651 
L 197.201822 304.543257 
L 198.015085 335.486513 
L 198.828348 330.329301 
L 199.64161 322.593489 
L 200.454873 323.453024 
L 201.268136 308.840929 
L 202.894662 319.155347 
L 203.707925 303.683722 
L 204.521188 312.27907 
L 205.334451 301.964651 
L 206.147714 331.188837 
L 206.960976 333.767442 
L 207.774239 320.874418 
L 208.587502 317.436277 
L 209.400765 310.559999 
L 210.214028 311.419535 
L 211.027291 298.52651 
L 211.840554 311.419535 
L 212.653817 308.840929 
L 213.46708 303.683722 
L 214.280343 328.610231 
L 215.093605 328.610231 
L 215.906868 321.733953 
L 216.720131 309.700464 
L 217.533394 308.840929 
L 218.346657 308.840929 
L 219.15992 302.824187 
L 219.973183 312.27907 
L 220.786446 307.121858 
L 221.599709 290.790703 
L 222.412971 332.048372 
L 223.226234 328.610231 
L 224.039497 317.436277 
L 224.85276 323.453024 
L 225.666023 314.857676 
L 226.479286 312.27907 
L 227.292549 307.981394 
L 228.919075 293.369299 
L 229.732337 295.088369 
L 230.5456 320.014883 
L 231.358863 323.453024 
L 232.172126 314.857676 
L 232.985389 308.840929 
L 233.798652 309.700464 
L 234.611915 308.840929 
L 235.425178 308.840929 
L 236.238441 304.543257 
L 237.051703 302.824187 
L 237.864966 296.80744 
L 238.678229 326.03163 
L 239.491492 326.891165 
L 240.304755 321.733953 
L 241.118018 319.155347 
L 241.931281 313.998141 
L 242.744544 306.262328 
L 243.557807 306.262328 
L 244.371069 300.245581 
L 245.184332 301.964651 
L 245.997595 299.386046 
L 246.810858 329.469766 
L 247.624121 324.312559 
L 248.437384 325.172094 
L 249.250647 313.998141 
L 250.06391 309.700464 
L 250.877173 311.419535 
L 251.690435 290.790703 
L 252.503698 297.666975 
L 253.316961 297.666975 
L 254.130224 294.228834 
L 254.943487 322.593489 
L 255.75675 320.874418 
L 256.570013 316.576747 
L 257.383276 313.138605 
L 258.196539 311.419535 
L 259.009801 313.998141 
L 259.823064 309.700464 
L 260.636327 303.683722 
L 262.262853 287.352561 
L 263.076116 326.891165 
L 263.889379 322.593489 
L 264.702642 316.576747 
L 265.515905 307.981394 
L 266.329167 313.998141 
L 267.14243 300.245581 
L 267.955693 305.402793 
L 268.768956 307.121858 
L 270.395482 303.683722 
L 271.208745 323.453024 
L 272.022008 320.014883 
L 272.835271 320.874418 
L 273.648533 318.295812 
L 274.461796 302.824187 
L 275.275059 297.666975 
L 276.088322 306.262328 
L 276.901585 305.402793 
L 277.714848 297.666975 
L 278.528111 292.509763 
L 279.341374 324.312559 
L 280.154637 318.295812 
L 280.967899 310.559999 
L 281.781162 304.543257 
L 282.594425 305.402793 
L 283.407688 297.666975 
L 284.220951 297.666975 
L 285.034214 295.088369 
L 285.847477 299.386046 
L 286.66074 294.228834 
L 287.474003 325.172094 
L 288.287265 314.857676 
L 289.100528 312.27907 
L 289.913791 307.981394 
L 290.727054 308.840929 
L 291.540317 302.824187 
L 292.35358 313.138605 
L 293.166843 307.121858 
L 293.980106 300.245581 
L 294.793369 300.245581 
L 295.606631 322.593489 
L 296.419894 319.155347 
L 297.233157 312.27907 
L 298.04642 313.998141 
L 298.859683 300.245581 
L 299.672946 301.964651 
L 300.486209 300.245581 
L 301.299472 301.105116 
L 302.112735 297.666975 
L 302.925997 295.088369 
L 303.73926 316.576747 
L 304.552523 320.014883 
L 305.365786 312.27907 
L 306.179049 310.559999 
L 306.992312 313.138605 
L 307.805575 307.981394 
L 308.618838 304.543257 
L 309.432101 304.543257 
L 310.245363 293.369299 
L 311.058626 297.666975 
L 311.871889 323.453024 
L 312.685152 313.998141 
L 313.498415 306.262328 
L 314.311678 315.717211 
L 315.124941 308.840929 
L 315.938204 297.666975 
L 316.751467 307.981394 
L 317.564729 299.386046 
L 318.377992 295.947904 
L 319.191255 296.80744 
L 320.004518 320.014883 
L 320.817781 313.138605 
L 321.631044 315.717211 
L 322.444307 320.874418 
L 323.25757 306.262328 
L 324.070833 307.121858 
L 324.884095 296.80744 
L 325.697358 300.245581 
L 326.510621 296.80744 
L 328.137147 323.453024 
L 328.95041 320.014883 
L 329.763673 313.998141 
L 330.576936 313.998141 
L 331.390199 313.138605 
L 332.203461 313.138605 
L 333.016724 309.700464 
L 333.829987 302.824187 
L 334.64325 302.824187 
L 335.456513 292.509763 
L 336.269776 323.453024 
L 337.083039 320.014883 
L 337.896302 313.998141 
L 338.709565 311.419535 
L 339.522827 307.121858 
L 340.33609 300.245581 
L 341.149353 302.824187 
L 341.962616 314.857676 
L 342.775879 303.683722 
L 343.589142 301.964651 
L 344.402405 320.874418 
L 345.215668 322.593489 
L 346.028931 309.700464 
L 346.842193 319.155347 
L 349.281982 296.80744 
L 350.095245 308.840929 
L 350.908508 298.52651 
L 351.721771 305.402793 
L 352.535034 322.593489 
L 353.348297 320.014883 
L 354.161559 310.559999 
L 354.974822 306.262328 
L 355.788085 313.138605 
L 356.601348 311.419535 
L 357.414611 306.262328 
L 359.041137 299.386046 
L 359.8544 299.386046 
L 360.667663 319.155347 
L 361.480925 310.559999 
L 362.294188 305.402793 
L 363.107451 315.717211 
L 363.920714 307.121858 
L 364.733977 314.857676 
L 365.54724 304.543257 
L 366.360503 301.964651 
L 367.173766 306.262328 
L 367.987029 302.824187 
L 368.800291 315.717211 
L 369.613554 315.717211 
L 370.426817 309.700464 
L 371.24008 320.874418 
L 372.053343 310.559999 
L 372.866606 315.717211 
L 373.679869 301.964651 
L 374.493132 308.840929 
L 375.306395 312.27907 
L 376.119657 301.964651 
L 376.93292 312.27907 
L 377.746183 313.998141 
L 378.559446 316.576747 
L 379.372709 313.138605 
L 380.185972 314.857676 
L 380.999235 304.543257 
L 381.812498 307.121858 
L 382.625761 307.121858 
L 384.252286 308.840929 
L 385.065549 319.155347 
L 385.878812 316.576747 
L 386.692075 315.717211 
L 387.505338 312.27907 
L 388.318601 318.295812 
L 389.131864 310.559999 
L 389.945127 297.666975 
L 390.75839 308.840929 
L 391.571652 305.402793 
L 392.384915 313.138605 
L 393.198178 322.593489 
L 394.011441 322.593489 
L 394.824704 311.419535 
L 395.637967 320.874418 
L 396.45123 308.840929 
L 397.264493 302.824187 
L 398.077756 310.559999 
L 398.891018 302.824187 
L 399.704281 303.683722 
L 400.517544 306.262328 
L 401.330807 317.436277 
L 402.14407 316.576747 
L 402.957333 312.27907 
L 403.770596 311.419535 
L 404.583859 309.700464 
L 405.397122 312.27907 
L 406.210384 310.559999 
L 407.023647 304.543257 
L 407.83691 307.981394 
L 408.650173 300.245581 
L 409.463436 316.576747 
L 410.276699 312.27907 
L 411.089962 313.998141 
L 411.903225 318.295812 
L 412.716488 307.121858 
L 413.52975 311.419535 
L 414.343013 309.700464 
L 415.156276 307.121858 
L 415.969539 310.559999 
L 416.782802 314.857676 
L 417.596065 320.014883 
L 418.409328 321.733953 
L 419.222591 315.717211 
L 420.035854 313.138605 
L 420.849116 302.824187 
L 421.662379 313.998141 
L 422.475642 309.700464 
L 423.288905 312.27907 
L 424.102168 305.402793 
L 424.915431 307.121858 
L 425.728694 311.419535 
L 426.541957 311.419535 
L 427.35522 320.874418 
L 428.168482 317.436277 
L 428.981745 315.717211 
L 429.795008 311.419535 
L 430.608271 308.840929 
L 431.421534 303.683722 
L 432.234797 311.419535 
L 433.04806 309.700464 
L 433.861323 313.138605 
L 434.674586 319.155347 
L 435.487848 313.138605 
L 436.301111 313.998141 
L 437.114374 308.840929 
L 437.927637 313.138605 
L 438.7409 309.700464 
L 439.554163 313.998141 
L 440.367426 303.683722 
L 441.180689 304.543257 
L 441.993952 325.172094 
L 442.807214 313.138605 
L 443.620477 322.593489 
L 444.43374 320.014883 
L 446.060266 311.419535 
L 446.873529 308.840929 
L 447.686792 307.981394 
L 448.500055 301.105116 
L 449.313318 310.559999 
L 450.12658 313.138605 
L 450.939843 317.436277 
L 451.753106 313.998141 
L 452.566369 314.857676 
L 453.379632 313.998141 
L 454.192895 313.998141 
L 455.006158 307.981394 
L 455.819421 313.998141 
L 456.632684 303.683722 
L 457.445946 307.981394 
L 458.259209 320.014883 
L 459.072472 313.998141 
L 459.885735 307.121858 
L 460.698998 312.27907 
L 461.512261 308.840929 
L 462.325524 313.998141 
L 463.138787 317.436277 
L 463.95205 304.543257 
L 464.765312 307.981394 
L 465.578575 318.295812 
L 466.391838 324.312559 
L 467.205101 308.840929 
L 468.018364 320.014883 
L 470.458153 312.27907 
L 471.271416 312.27907 
L 472.084678 303.683722 
L 472.897941 310.559999 
L 473.711204 313.998141 
L 474.524467 312.27907 
L 475.33773 316.576747 
L 476.150993 315.717211 
L 476.964256 308.840929 
L 477.777519 316.576747 
L 478.590782 310.559999 
L 479.404044 305.402793 
L 480.217307 307.121858 
L 481.03057 315.717211 
L 481.843833 303.683722 
L 482.657096 322.593489 
L 483.470359 315.717211 
L 484.283622 315.717211 
L 485.096885 320.014883 
L 485.910148 309.700464 
L 486.72341 321.733953 
L 487.536673 314.857676 
L 488.349936 309.700464 
L 489.163199 306.262328 
L 489.976462 313.998141 
L 490.789725 313.138605 
L 491.602988 313.138605 
L 492.416251 310.559999 
L 493.229514 312.27907 
L 494.042776 315.717211 
L 494.856039 313.998141 
L 495.669302 313.998141 
L 496.482565 320.014883 
L 497.295828 306.262328 
L 498.109091 305.402793 
L 498.109091 305.402793 
" clip-path="url(#pea4c099a5f)" style="fill: none; stroke: #008000; stroke-width: 1.5; stroke-linecap: square"/>
   </g>
   <g id="patch_3">
    <path d="M 72 384.48 
L 72 51.84 
" style="fill: none; stroke: #000000; stroke-width: 0.8; stroke-linejoin: miter; stroke-linecap: square"/>
   </g>
   <g id="patch_4">
    <path d="M 518.4 384.48 
L 518.4 51.84 
" style="fill: none; stroke: #000000; stroke-width: 0.8; stroke-linejoin: miter; stroke-linecap: square"/>
   </g>
   <g id="patch_5">
    <path d="M 72 384.48 
L 518.4 384.48 
" style="fill: none; stroke: #000000; stroke-width: 0.8; stroke-linejoin: miter; stroke-linecap: square"/>
   </g>
   <g id="patch_6">
    <path d="M 72 51.84 
L 518.4 51.84 
" style="fill: none; stroke: #000000; stroke-width: 0.8; stroke-linejoin: miter; stroke-linecap: square"/>
   </g>
   <g id="legend_1">
    <g id="patch_7">
     <path d="M 79 89.19625 
L 156.107812 89.19625 
Q 158.107812 89.19625 158.107812 87.19625 
L 158.107812 58.84 
Q 158.107812 56.84 156.107812 56.84 
L 79 56.84 
Q 77 56.84 77 58.84 
L 77 87.19625 
Q 77 89.19625 79 89.19625 
z
" style="fill: #ffffff; opacity: 0.8; stroke: #cccccc; stroke-linejoin: miter"/>
    </g>
    <g id="line2d_15">
     <path d="M 81 64.938437 
L 91 64.938437 
L 101 64.938437 
" style="fill: none; stroke: #0000ff; stroke-width: 1.5; stroke-linecap: square"/>
    </g>
    <g id="text_15">
     <!-- precision -->
     <g transform="translate(109 68.438437) scale(0.1 -0.1)">
      <defs>
       <path id="DejaVuSans-69" d="M 603 3500 
L 1178 3500 
L 1178 0 
L 603 0 
L 603 3500 
z
M 603 4863 
L 1178 4863 
L 1178 4134 
L 603 4134 
L 603 4863 
z
" transform="scale(0.015625)"/>
       <path id="DejaVuSans-73" d="M 2834 3397 
L 2834 2853 
Q 2591 2978 2328 3040 
Q 2066 3103 1784 3103 
Q 1356 3103 1142 2972 
Q 928 2841 928 2578 
Q 928 2378 1081 2264 
Q 1234 2150 1697 2047 
L 1894 2003 
Q 2506 1872 2764 1633 
Q 3022 1394 3022 966 
Q 3022 478 2636 193 
Q 2250 -91 1575 -91 
Q 1294 -91 989 -36 
Q 684 19 347 128 
L 347 722 
Q 666 556 975 473 
Q 1284 391 1588 391 
Q 1994 391 2212 530 
Q 2431 669 2431 922 
Q 2431 1156 2273 1281 
Q 2116 1406 1581 1522 
L 1381 1569 
Q 847 1681 609 1914 
Q 372 2147 372 2553 
Q 372 3047 722 3315 
Q 1072 3584 1716 3584 
Q 2034 3584 2315 3537 
Q 2597 3491 2834 3397 
z
" transform="scale(0.015625)"/>
       <path id="DejaVuSans-6e" d="M 3513 2113 
L 3513 0 
L 2938 0 
L 2938 2094 
Q 2938 2591 2744 2837 
Q 2550 3084 2163 3084 
Q 1697 3084 1428 2787 
Q 1159 2491 1159 1978 
L 1159 0 
L 581 0 
L 581 3500 
L 1159 3500 
L 1159 2956 
Q 1366 3272 1645 3428 
Q 1925 3584 2291 3584 
Q 2894 3584 3203 3211 
Q 3513 2838 3513 2113 
z
" transform="scale(0.015625)"/>
      </defs>
      <use xlink:href="#DejaVuSans-70"/>
      <use xlink:href="#DejaVuSans-72" x="63.476562"/>
      <use xlink:href="#DejaVuSans-65" x="102.339844"/>
      <use xlink:href="#DejaVuSans-63" x="163.863281"/>
      <use xlink:href="#DejaVuSans-69" x="218.84375"/>
      <use xlink:href="#DejaVuSans-73" x="246.626953"/>
      <use xlink:href="#DejaVuSans-69" x="298.726562"/>
      <use xlink:href="#DejaVuSans-6f" x="326.509766"/>
      <use xlink:href="#DejaVuSans-6e" x="387.691406"/>
     </g>
    </g>
    <g id="line2d_16">
     <path d="M 81 79.616562 
L 91 79.616562 
L 101 79.616562 
" style="fill: none; stroke: #008000; stroke-width: 1.5; stroke-linecap: square"/>
    </g>
    <g id="text_16">
     <!-- recall -->
     <g transform="translate(109 83.116562) scale(0.1 -0.1)">
      <defs>
       <path id="DejaVuSans-6c" d="M 603 4863 
L 1178 4863 
L 1178 0 
L 603 0 
L 603 4863 
z
" transform="scale(0.015625)"/>
      </defs>
      <use xlink:href="#DejaVuSans-72"/>
      <use xlink:href="#DejaVuSans-65" x="38.863281"/>
      <use xlink:href="#DejaVuSans-63" x="100.386719"/>
      <use xlink:href="#DejaVuSans-61" x="155.367188"/>
      <use xlink:href="#DejaVuSans-6c" x="216.646484"/>
      <use xlink:href="#DejaVuSans-6c" x="244.429688"/>
     </g>
    </g>
   </g>
  </g>
  <g id="axes_2">
   <g id="matplotlib.axis_3">
    <g id="ytick_7">
     <g id="line2d_17">
      <defs>
       <path id="m15e9e7d82f" d="M 0 0 
L 3.5 0 
" style="stroke: #000000; stroke-width: 0.8"/>
      </defs>
      <g>
       <use xlink:href="#m15e9e7d82f" x="518.4" y="346.708419" style="stroke: #000000; stroke-width: 0.8"/>
      </g>
     </g>
     <g id="text_17">
      <!-- 0.2 -->
      <g transform="translate(525.4 350.507637) scale(0.1 -0.1)">
       <use xlink:href="#DejaVuSans-30"/>
       <use xlink:href="#DejaVuSans-2e" x="63.623047"/>
       <use xlink:href="#DejaVuSans-32" x="95.410156"/>
      </g>
     </g>
    </g>
    <g id="ytick_8">
     <g id="line2d_18">
      <g>
       <use xlink:href="#m15e9e7d82f" x="518.4" y="308.141189" style="stroke: #000000; stroke-width: 0.8"/>
      </g>
     </g>
     <g id="text_18">
      <!-- 0.3 -->
      <g transform="translate(525.4 311.940407) scale(0.1 -0.1)">
       <use xlink:href="#DejaVuSans-30"/>
       <use xlink:href="#DejaVuSans-2e" x="63.623047"/>
       <use xlink:href="#DejaVuSans-33" x="95.410156"/>
      </g>
     </g>
    </g>
    <g id="ytick_9">
     <g id="line2d_19">
      <g>
       <use xlink:href="#m15e9e7d82f" x="518.4" y="269.573959" style="stroke: #000000; stroke-width: 0.8"/>
      </g>
     </g>
     <g id="text_19">
      <!-- 0.4 -->
      <g transform="translate(525.4 273.373177) scale(0.1 -0.1)">
       <use xlink:href="#DejaVuSans-30"/>
       <use xlink:href="#DejaVuSans-2e" x="63.623047"/>
       <use xlink:href="#DejaVuSans-34" x="95.410156"/>
      </g>
     </g>
    </g>
    <g id="ytick_10">
     <g id="line2d_20">
      <g>
       <use xlink:href="#m15e9e7d82f" x="518.4" y="231.006728" style="stroke: #000000; stroke-width: 0.8"/>
      </g>
     </g>
     <g id="text_20">
      <!-- 0.5 -->
      <g transform="translate(525.4 234.805947) scale(0.1 -0.1)">
       <use xlink:href="#DejaVuSans-30"/>
       <use xlink:href="#DejaVuSans-2e" x="63.623047"/>
       <use xlink:href="#DejaVuSans-35" x="95.410156"/>
      </g>
     </g>
    </g>
    <g id="ytick_11">
     <g id="line2d_21">
      <g>
       <use xlink:href="#m15e9e7d82f" x="518.4" y="192.439498" style="stroke: #000000; stroke-width: 0.8"/>
      </g>
     </g>
     <g id="text_21">
      <!-- 0.6 -->
      <g transform="translate(525.4 196.238717) scale(0.1 -0.1)">
       <use xlink:href="#DejaVuSans-30"/>
       <use xlink:href="#DejaVuSans-2e" x="63.623047"/>
       <use xlink:href="#DejaVuSans-36" x="95.410156"/>
      </g>
     </g>
    </g>
    <g id="ytick_12">
     <g id="line2d_22">
      <g>
       <use xlink:href="#m15e9e7d82f" x="518.4" y="153.872268" style="stroke: #000000; stroke-width: 0.8"/>
      </g>
     </g>
     <g id="text_22">
      <!-- 0.7 -->
      <g transform="translate(525.4 157.671487) scale(0.1 -0.1)">
       <defs>
        <path id="DejaVuSans-37" d="M 525 4666 
L 3525 4666 
L 3525 4397 
L 1831 0 
L 1172 0 
L 2766 4134 
L 525 4134 
L 525 4666 
z
" transform="scale(0.015625)"/>
       </defs>
       <use xlink:href="#DejaVuSans-30"/>
       <use xlink:href="#DejaVuSans-2e" x="63.623047"/>
       <use xlink:href="#DejaVuSans-37" x="95.410156"/>
      </g>
     </g>
    </g>
    <g id="ytick_13">
     <g id="line2d_23">
      <g>
       <use xlink:href="#m15e9e7d82f" x="518.4" y="115.305038" style="stroke: #000000; stroke-width: 0.8"/>
      </g>
     </g>
     <g id="text_23">
      <!-- 0.8 -->
      <g transform="translate(525.4 119.104257) scale(0.1 -0.1)">
       <use xlink:href="#DejaVuSans-30"/>
       <use xlink:href="#DejaVuSans-2e" x="63.623047"/>
       <use xlink:href="#DejaVuSans-38" x="95.410156"/>
      </g>
     </g>
    </g>
    <g id="ytick_14">
     <g id="line2d_24">
      <g>
       <use xlink:href="#m15e9e7d82f" x="518.4" y="76.737808" style="stroke: #000000; stroke-width: 0.8"/>
      </g>
     </g>
     <g id="text_24">
      <!-- 0.9 -->
      <g transform="translate(525.4 80.537027) scale(0.1 -0.1)">
       <defs>
        <path id="DejaVuSans-39" d="M 703 97 
L 703 672 
Q 941 559 1184 500 
Q 1428 441 1663 441 
Q 2288 441 2617 861 
Q 2947 1281 2994 2138 
Q 2813 1869 2534 1725 
Q 2256 1581 1919 1581 
Q 1219 1581 811 2004 
Q 403 2428 403 3163 
Q 403 3881 828 4315 
Q 1253 4750 1959 4750 
Q 2769 4750 3195 4129 
Q 3622 3509 3622 2328 
Q 3622 1225 3098 567 
Q 2575 -91 1691 -91 
Q 1453 -91 1209 -44 
Q 966 3 703 97 
z
M 1959 2075 
Q 2384 2075 2632 2365 
Q 2881 2656 2881 3163 
Q 2881 3666 2632 3958 
Q 2384 4250 1959 4250 
Q 1534 4250 1286 3958 
Q 1038 3666 1038 3163 
Q 1038 2656 1286 2365 
Q 1534 2075 1959 2075 
z
" transform="scale(0.015625)"/>
       </defs>
       <use xlink:href="#DejaVuSans-30"/>
       <use xlink:href="#DejaVuSans-2e" x="63.623047"/>
       <use xlink:href="#DejaVuSans-39" x="95.410156"/>
      </g>
     </g>
    </g>
    <g id="text_25">
     <!-- loss -->
     <g transform="translate(552.901563 227.817812) rotate(-90) scale(0.1 -0.1)">
      <use xlink:href="#DejaVuSans-6c"/>
      <use xlink:href="#DejaVuSans-6f" x="27.783203"/>
      <use xlink:href="#DejaVuSans-73" x="88.964844"/>
      <use xlink:href="#DejaVuSans-73" x="141.064453"/>
     </g>
    </g>
   </g>
   <g id="line2d_25">
    <path d="M 92.290909 66.96 
L 93.104172 128.65728 
L 93.917435 210.115936 
L 94.730698 275.054067 
L 95.543961 308.176953 
L 96.357224 322.8323 
L 97.170486 326.614527 
L 97.983749 326.957667 
L 98.797012 325.388263 
L 99.610275 322.490931 
L 100.423538 328.484084 
L 102.050064 325.79624 
L 102.863327 325.884766 
L 103.67659 325.82432 
L 104.489852 326.622884 
L 105.303115 327.85347 
L 106.116378 329.549221 
L 106.929641 332.322712 
L 107.742904 333.496507 
L 108.556167 323.056386 
L 110.182693 328.610282 
L 111.809218 336.277544 
L 112.622481 337.012575 
L 113.435744 340.510224 
L 114.249007 340.962607 
L 115.06227 343.923168 
L 115.875533 345.572731 
L 116.688796 333.621549 
L 117.502059 336.038022 
L 119.128584 342.717213 
L 119.941847 345.503492 
L 121.568373 349.419801 
L 122.381636 350.860508 
L 123.194899 351.818475 
L 124.008162 352.977546 
L 124.821425 342.099357 
L 125.634688 344.579581 
L 126.44795 347.450586 
L 128.074476 352.339725 
L 129.701002 355.51436 
L 130.514265 356.184295 
L 131.327528 357.059064 
L 132.140791 357.579589 
L 132.954054 347.915769 
L 133.767316 349.05457 
L 135.393842 353.98538 
L 136.207105 356.684626 
L 137.020368 357.756148 
L 137.833631 357.981888 
L 138.646894 357.506189 
L 139.460157 359.990499 
L 140.27342 361.539455 
L 141.086682 351.047945 
L 141.899945 353.143771 
L 142.713208 355.722153 
L 143.526471 357.719367 
L 144.339734 358.067133 
L 145.152997 360.602999 
L 145.96626 361.325588 
L 146.779523 361.891497 
L 147.592786 361.69556 
L 148.406048 364.359301 
L 149.219311 353.684963 
L 150.032574 355.09363 
L 152.472363 361.47748 
L 153.285626 362.567829 
L 154.098889 362.608919 
L 155.725414 366.333849 
L 156.538677 365.798324 
L 157.35194 355.086337 
L 158.165203 357.737642 
L 158.978466 359.641968 
L 160.604992 363.777208 
L 161.418255 363.026339 
L 162.231518 365.992606 
L 163.04478 364.890154 
L 163.858043 366.95809 
L 164.671306 367.938712 
L 165.484569 356.521067 
L 166.297832 358.776452 
L 167.111095 360.188625 
L 167.924358 363.052344 
L 168.737621 364.201668 
L 169.550884 366.660133 
L 170.364146 365.726987 
L 171.177409 368.149137 
L 171.990672 369.079037 
L 172.803935 369.36 
L 173.617198 357.908747 
L 174.430461 359.839055 
L 175.243724 360.706358 
L 176.056987 362.598966 
L 176.87025 363.587317 
L 177.683512 362.618264 
L 178.496775 364.580347 
L 179.310038 364.895068 
L 180.123301 365.380957 
L 180.936564 365.670879 
L 181.749827 358.441864 
L 182.56309 359.227848 
L 183.376353 360.887359 
L 185.002878 362.695417 
L 185.816141 363.199897 
L 186.629404 364.570962 
L 187.442667 365.452087 
L 188.25593 365.030426 
L 189.069193 365.817841 
L 189.882456 359.048456 
L 190.695719 359.339557 
L 191.508982 360.626504 
L 192.322244 362.449751 
L 193.135507 362.965932 
L 193.94877 364.696953 
L 194.762033 366.078431 
L 195.575296 365.697074 
L 196.388559 366.816514 
L 197.201822 365.821226 
L 198.015085 359.026089 
L 198.828348 360.031572 
L 199.64161 360.777235 
L 200.454873 361.331467 
L 201.268136 363.611472 
L 202.081399 365.187698 
L 202.894662 365.106981 
L 203.707925 366.243392 
L 204.521188 364.459201 
L 205.334451 366.353791 
L 206.147714 359.486363 
L 206.960976 360.00559 
L 207.774239 362.681854 
L 208.587502 363.936072 
L 210.214028 364.777485 
L 211.027291 365.823944 
L 211.840554 365.717936 
L 212.653817 365.058701 
L 213.46708 364.6957 
L 214.280343 359.404262 
L 215.093605 361.656946 
L 215.906868 362.484693 
L 216.720131 363.774232 
L 217.533394 363.862896 
L 218.346657 365.107884 
L 220.786446 365.463989 
L 221.599709 367.244502 
L 222.412971 359.314966 
L 223.226234 360.766626 
L 224.039497 363.591961 
L 224.85276 363.447063 
L 226.479286 364.65173 
L 227.292549 365.913166 
L 228.105812 366.690138 
L 228.919075 366.505643 
L 229.732337 366.98913 
L 230.5456 362.11518 
L 231.358863 362.05205 
L 232.172126 361.744932 
L 232.985389 362.917336 
L 233.798652 364.542963 
L 235.425178 365.487448 
L 236.238441 365.569928 
L 237.051703 365.80437 
L 237.864966 366.874202 
L 238.678229 359.893346 
L 239.491492 362.108836 
L 240.304755 362.249458 
L 241.931281 365.252087 
L 242.744544 365.12209 
L 243.557807 365.129596 
L 244.371069 365.705413 
L 245.184332 366.578762 
L 245.997595 366.780659 
L 246.810858 360.335811 
L 247.624121 362.019074 
L 248.437384 361.789046 
L 249.250647 364.431138 
L 250.06391 364.466574 
L 250.877173 365.087333 
L 251.690435 366.79348 
L 252.503698 366.282115 
L 253.316961 365.418818 
L 254.130224 366.774015 
L 254.943487 360.702295 
L 255.75675 361.364322 
L 256.570013 363.780208 
L 257.383276 363.095469 
L 258.196539 364.929848 
L 259.009801 365.455449 
L 259.823064 365.605341 
L 260.636327 366.579095 
L 261.44959 367.052829 
L 262.262853 367.068082 
L 263.076116 361.223809 
L 263.889379 361.541306 
L 264.702642 362.519008 
L 265.515905 364.045379 
L 266.329167 363.973502 
L 267.955693 365.69081 
L 268.768956 366.168498 
L 269.582219 365.627674 
L 270.395482 366.362377 
L 271.208745 360.904301 
L 272.022008 362.461809 
L 272.835271 362.881349 
L 273.648533 362.807603 
L 274.461796 365.179755 
L 275.275059 366.028249 
L 276.088322 365.250937 
L 276.901585 365.835105 
L 277.714848 365.74236 
L 278.528111 366.202864 
L 279.341374 361.139248 
L 280.154637 362.828166 
L 280.967899 363.540951 
L 281.781162 364.57691 
L 282.594425 365.33205 
L 283.407688 365.232754 
L 284.220951 365.383778 
L 285.034214 366.054622 
L 285.847477 366.358826 
L 286.66074 367.257662 
L 287.474003 360.256514 
L 288.287265 362.57253 
L 289.100528 363.936986 
L 289.913791 363.84785 
L 290.727054 365.062034 
L 291.540317 365.154032 
L 292.35358 364.712079 
L 293.166843 365.107953 
L 293.980106 366.393612 
L 294.793369 365.840593 
L 295.606631 361.91141 
L 296.419894 362.084877 
L 297.233157 362.65897 
L 298.04642 364.261586 
L 298.859683 364.645454 
L 299.672946 365.4353 
L 300.486209 364.776939 
L 301.299472 365.08539 
L 302.925997 365.919125 
L 303.73926 362.277297 
L 304.552523 362.887245 
L 305.365786 363.984191 
L 306.179049 364.4108 
L 306.992312 364.284349 
L 307.805575 365.265885 
L 308.618838 365.67381 
L 309.432101 365.111849 
L 310.245363 366.858662 
L 311.058626 367.13631 
L 311.871889 362.604057 
L 312.685152 362.612448 
L 313.498415 364.307015 
L 314.311678 364.016799 
L 315.124941 364.062522 
L 315.938204 365.208513 
L 316.751467 364.6153 
L 318.377992 366.111264 
L 319.191255 366.372768 
L 320.004518 362.314445 
L 320.817781 363.823885 
L 321.631044 362.499279 
L 322.444307 363.652677 
L 323.25757 365.161399 
L 324.070833 365.033587 
L 324.884095 365.423806 
L 325.697358 366.111039 
L 326.510621 365.612485 
L 327.323884 365.929895 
L 328.137147 360.628113 
L 328.95041 362.334881 
L 330.576936 364.535452 
L 331.390199 364.870448 
L 332.203461 363.643339 
L 333.016724 364.410214 
L 333.829987 365.495172 
L 334.64325 366.843145 
L 335.456513 366.417456 
L 336.269776 362.561266 
L 337.083039 361.824545 
L 337.896302 362.06155 
L 338.709565 363.758531 
L 339.522827 364.482752 
L 340.33609 365.592514 
L 341.149353 365.104033 
L 341.962616 364.963198 
L 342.775879 366.0835 
L 343.589142 365.509533 
L 344.402405 362.743835 
L 345.215668 361.516008 
L 346.028931 363.698918 
L 346.842193 363.32225 
L 347.655456 365.201473 
L 348.468719 365.63372 
L 349.281982 366.289897 
L 350.095245 365.220099 
L 350.908508 366.609727 
L 351.721771 365.340515 
L 352.535034 361.722324 
L 354.974822 364.512935 
L 355.788085 363.623443 
L 356.601348 364.99887 
L 357.414611 364.515567 
L 358.227874 365.880954 
L 359.041137 366.268052 
L 359.8544 365.522642 
L 360.667663 363.498435 
L 361.480925 361.900181 
L 363.107451 364.288769 
L 363.920714 365.458644 
L 364.733977 363.507561 
L 365.54724 365.232455 
L 366.360503 365.146917 
L 367.173766 364.641914 
L 367.987029 365.466259 
L 368.800291 363.061206 
L 369.613554 362.880119 
L 370.426817 363.40838 
L 371.24008 363.393426 
L 372.053343 365.493103 
L 372.866606 362.874981 
L 373.679869 364.772295 
L 374.493132 365.321171 
L 375.306395 364.322492 
L 376.119657 366.475075 
L 376.93292 363.554146 
L 377.746183 363.095607 
L 379.372709 363.42677 
L 380.185972 364.397185 
L 380.999235 364.782789 
L 381.812498 364.247057 
L 382.625761 365.109642 
L 383.439024 365.020794 
L 384.252286 365.408818 
L 385.065549 362.667435 
L 385.878812 362.275159 
L 386.692075 363.353433 
L 388.318601 363.906986 
L 389.945127 365.683465 
L 390.75839 365.14444 
L 391.571652 365.852713 
L 392.384915 365.14994 
L 393.198178 361.500841 
L 394.011441 362.949599 
L 394.824704 363.119256 
L 395.637967 362.530387 
L 397.264493 364.512682 
L 398.077756 365.204594 
L 398.891018 364.734952 
L 399.704281 364.724803 
L 400.517544 364.891694 
L 401.330807 363.186685 
L 402.14407 363.170478 
L 402.957333 364.242034 
L 403.770596 363.733784 
L 404.583859 364.494338 
L 405.397122 364.457724 
L 406.210384 364.898269 
L 407.023647 364.536342 
L 407.83691 365.334262 
L 408.650173 364.593714 
L 409.463436 363.118204 
L 410.276699 362.752662 
L 411.089962 362.920382 
L 411.903225 363.680579 
L 414.343013 364.499843 
L 415.156276 364.211748 
L 415.969539 365.006157 
L 416.782802 365.052247 
L 417.596065 362.24447 
L 418.409328 363.270717 
L 419.222591 363.278751 
L 420.035854 363.914113 
L 420.849116 365.622024 
L 421.662379 363.995972 
L 422.475642 365.665196 
L 423.288905 364.639926 
L 424.102168 364.311665 
L 424.915431 365.677879 
L 425.728694 363.339336 
L 426.541957 363.490406 
L 427.35522 363.925549 
L 428.168482 363.631741 
L 428.981745 363.06147 
L 429.795008 363.24531 
L 430.608271 363.74137 
L 431.421534 364.668057 
L 432.234797 365.22511 
L 433.04806 363.893125 
L 433.861323 361.834516 
L 434.674586 363.285176 
L 435.487848 363.75637 
L 436.301111 363.479631 
L 437.114374 364.469292 
L 437.927637 364.398777 
L 438.7409 364.503734 
L 439.554163 363.981933 
L 440.367426 364.140336 
L 441.180689 365.628133 
L 441.993952 362.552582 
L 442.807214 362.953392 
L 443.620477 363.772553 
L 444.43374 362.017861 
L 445.247003 363.946813 
L 446.060266 363.310474 
L 446.873529 364.446552 
L 447.686792 364.191346 
L 448.500055 364.603478 
L 449.313318 364.324733 
L 450.939843 362.098899 
L 451.753106 364.608398 
L 452.566369 362.527795 
L 454.192895 363.57353 
L 455.006158 363.577432 
L 455.819421 364.948164 
L 456.632684 365.514424 
L 457.445946 363.144364 
L 458.259209 362.309163 
L 459.072472 362.935014 
L 460.698998 363.181398 
L 461.512261 364.438811 
L 462.325524 363.068217 
L 463.138787 363.031976 
L 463.95205 364.523314 
L 465.578575 363.830925 
L 466.391838 362.330962 
L 467.205101 363.70609 
L 468.018364 363.67782 
L 468.831627 364.065884 
L 469.64489 363.79757 
L 470.458153 364.785927 
L 471.271416 364.010317 
L 472.084678 365.640076 
L 472.897941 363.441413 
L 473.711204 365.001318 
L 474.524467 362.989265 
L 475.33773 363.595455 
L 476.150993 363.926262 
L 476.964256 363.553347 
L 477.777519 362.553978 
L 478.590782 363.730635 
L 479.404044 364.235288 
L 480.217307 364.440167 
L 481.03057 361.991925 
L 481.843833 364.925176 
L 482.657096 362.280388 
L 483.470359 363.086101 
L 484.283622 362.46959 
L 485.096885 363.364002 
L 485.910148 362.924623 
L 486.72341 363.200294 
L 487.536673 364.28978 
L 488.349936 362.711871 
L 489.163199 364.754756 
L 489.976462 362.740496 
L 490.789725 361.242607 
L 491.602988 361.65921 
L 492.416251 363.221052 
L 493.229514 363.975582 
L 494.042776 363.41623 
L 494.856039 364.459189 
L 495.669302 363.478251 
L 496.482565 363.569203 
L 497.295828 364.516762 
L 498.109091 364.903269 
L 498.109091 364.903269 
" clip-path="url(#pea4c099a5f)" style="fill: none; stroke: #ff0000; stroke-width: 1.5; stroke-linecap: square"/>
   </g>
   <g id="patch_8">
    <path d="M 72 384.48 
L 72 51.84 
" style="fill: none; stroke: #000000; stroke-width: 0.8; stroke-linejoin: miter; stroke-linecap: square"/>
   </g>
   <g id="patch_9">
    <path d="M 518.4 384.48 
L 518.4 51.84 
" style="fill: none; stroke: #000000; stroke-width: 0.8; stroke-linejoin: miter; stroke-linecap: square"/>
   </g>
   <g id="patch_10">
    <path d="M 72 384.48 
L 518.4 384.48 
" style="fill: none; stroke: #000000; stroke-width: 0.8; stroke-linejoin: miter; stroke-linecap: square"/>
   </g>
   <g id="patch_11">
    <path d="M 72 51.84 
L 518.4 51.84 
" style="fill: none; stroke: #000000; stroke-width: 0.8; stroke-linejoin: miter; stroke-linecap: square"/>
   </g>
   <g id="text_26">
    <!-- The learning curve on _0.00025_8_clients_iid/guest/2 -->
    <g transform="translate(132.080625 45.84) scale(0.12 -0.12)">
     <defs>
      <path id="DejaVuSans-54" d="M -19 4666 
L 3928 4666 
L 3928 4134 
L 2272 4134 
L 2272 0 
L 1638 0 
L 1638 4134 
L -19 4134 
L -19 4666 
z
" transform="scale(0.015625)"/>
      <path id="DejaVuSans-20" transform="scale(0.015625)"/>
      <path id="DejaVuSans-67" d="M 2906 1791 
Q 2906 2416 2648 2759 
Q 2391 3103 1925 3103 
Q 1463 3103 1205 2759 
Q 947 2416 947 1791 
Q 947 1169 1205 825 
Q 1463 481 1925 481 
Q 2391 481 2648 825 
Q 2906 1169 2906 1791 
z
M 3481 434 
Q 3481 -459 3084 -895 
Q 2688 -1331 1869 -1331 
Q 1566 -1331 1297 -1286 
Q 1028 -1241 775 -1147 
L 775 -588 
Q 1028 -725 1275 -790 
Q 1522 -856 1778 -856 
Q 2344 -856 2625 -561 
Q 2906 -266 2906 331 
L 2906 616 
Q 2728 306 2450 153 
Q 2172 0 1784 0 
Q 1141 0 747 490 
Q 353 981 353 1791 
Q 353 2603 747 3093 
Q 1141 3584 1784 3584 
Q 2172 3584 2450 3431 
Q 2728 3278 2906 2969 
L 2906 3500 
L 3481 3500 
L 3481 434 
z
" transform="scale(0.015625)"/>
      <path id="DejaVuSans-75" d="M 544 1381 
L 544 3500 
L 1119 3500 
L 1119 1403 
Q 1119 906 1312 657 
Q 1506 409 1894 409 
Q 2359 409 2629 706 
Q 2900 1003 2900 1516 
L 2900 3500 
L 3475 3500 
L 3475 0 
L 2900 0 
L 2900 538 
Q 2691 219 2414 64 
Q 2138 -91 1772 -91 
Q 1169 -91 856 284 
Q 544 659 544 1381 
z
M 1991 3584 
L 1991 3584 
z
" transform="scale(0.015625)"/>
      <path id="DejaVuSans-76" d="M 191 3500 
L 800 3500 
L 1894 563 
L 2988 3500 
L 3597 3500 
L 2284 0 
L 1503 0 
L 191 3500 
z
" transform="scale(0.015625)"/>
      <path id="DejaVuSans-3bb" d="M 1981 4316 
L 3597 0 
L 2988 0 
L 2006 2588 
L 800 0 
L 191 0 
L 1725 3356 
L 1494 3975 
Q 1347 4369 1013 4369 
L 713 4369 
L 713 4863 
L 1078 4856 
Q 1784 4847 1981 4316 
z
" transform="scale(0.015625)"/>
      <path id="DejaVuSans-5f" d="M 3263 -1063 
L 3263 -1509 
L -63 -1509 
L -63 -1063 
L 3263 -1063 
z
" transform="scale(0.015625)"/>
      <path id="DejaVuSans-64" d="M 2906 2969 
L 2906 4863 
L 3481 4863 
L 3481 0 
L 2906 0 
L 2906 525 
Q 2725 213 2448 61 
Q 2172 -91 1784 -91 
Q 1150 -91 751 415 
Q 353 922 353 1747 
Q 353 2572 751 3078 
Q 1150 3584 1784 3584 
Q 2172 3584 2448 3432 
Q 2725 3281 2906 2969 
z
M 947 1747 
Q 947 1113 1208 752 
Q 1469 391 1925 391 
Q 2381 391 2643 752 
Q 2906 1113 2906 1747 
Q 2906 2381 2643 2742 
Q 2381 3103 1925 3103 
Q 1469 3103 1208 2742 
Q 947 2381 947 1747 
z
" transform="scale(0.015625)"/>
      <path id="DejaVuSans-2f" d="M 1625 4666 
L 2156 4666 
L 531 -594 
L 0 -594 
L 1625 4666 
z
" transform="scale(0.015625)"/>
     </defs>
     <use xlink:href="#DejaVuSans-54"/>
     <use xlink:href="#DejaVuSans-68" x="61.083984"/>
     <use xlink:href="#DejaVuSans-65" x="124.462891"/>
     <use xlink:href="#DejaVuSans-20" x="185.986328"/>
     <use xlink:href="#DejaVuSans-6c" x="217.773438"/>
     <use xlink:href="#DejaVuSans-65" x="245.556641"/>
     <use xlink:href="#DejaVuSans-61" x="307.080078"/>
     <use xlink:href="#DejaVuSans-72" x="368.359375"/>
     <use xlink:href="#DejaVuSans-6e" x="407.722656"/>
     <use xlink:href="#DejaVuSans-69" x="471.101562"/>
     <use xlink:href="#DejaVuSans-6e" x="498.884766"/>
     <use xlink:href="#DejaVuSans-67" x="562.263672"/>
     <use xlink:href="#DejaVuSans-20" x="625.740234"/>
     <use xlink:href="#DejaVuSans-63" x="657.527344"/>
     <use xlink:href="#DejaVuSans-75" x="712.507812"/>
     <use xlink:href="#DejaVuSans-72" x="775.886719"/>
     <use xlink:href="#DejaVuSans-76" x="817"/>
     <use xlink:href="#DejaVuSans-65" x="876.179688"/>
     <use xlink:href="#DejaVuSans-20" x="937.703125"/>
     <use xlink:href="#DejaVuSans-6f" x="969.490234"/>
     <use xlink:href="#DejaVuSans-6e" x="1030.671875"/>
     <use xlink:href="#DejaVuSans-20" x="1094.050781"/>
     <use xlink:href="#DejaVuSans-3bb" x="1125.837891"/>
     <use xlink:href="#DejaVuSans-5f" x="1185.017578"/>
     <use xlink:href="#DejaVuSans-30" x="1235.017578"/>
     <use xlink:href="#DejaVuSans-2e" x="1298.640625"/>
     <use xlink:href="#DejaVuSans-30" x="1330.427734"/>
     <use xlink:href="#DejaVuSans-30" x="1394.050781"/>
     <use xlink:href="#DejaVuSans-30" x="1457.673828"/>
     <use xlink:href="#DejaVuSans-32" x="1521.296875"/>
     <use xlink:href="#DejaVuSans-35" x="1584.919922"/>
     <use xlink:href="#DejaVuSans-5f" x="1648.542969"/>
     <use xlink:href="#DejaVuSans-38" x="1698.542969"/>
     <use xlink:href="#DejaVuSans-5f" x="1762.166016"/>
     <use xlink:href="#DejaVuSans-63" x="1812.166016"/>
     <use xlink:href="#DejaVuSans-6c" x="1867.146484"/>
     <use xlink:href="#DejaVuSans-69" x="1894.929688"/>
     <use xlink:href="#DejaVuSans-65" x="1922.712891"/>
     <use xlink:href="#DejaVuSans-6e" x="1984.236328"/>
     <use xlink:href="#DejaVuSans-74" x="2047.615234"/>
     <use xlink:href="#DejaVuSans-73" x="2086.824219"/>
     <use xlink:href="#DejaVuSans-5f" x="2138.923828"/>
     <use xlink:href="#DejaVuSans-69" x="2188.923828"/>
     <use xlink:href="#DejaVuSans-69" x="2216.707031"/>
     <use xlink:href="#DejaVuSans-64" x="2244.490234"/>
     <use xlink:href="#DejaVuSans-2f" x="2307.966797"/>
     <use xlink:href="#DejaVuSans-67" x="2341.658203"/>
     <use xlink:href="#DejaVuSans-75" x="2405.134766"/>
     <use xlink:href="#DejaVuSans-65" x="2468.513672"/>
     <use xlink:href="#DejaVuSans-73" x="2530.037109"/>
     <use xlink:href="#DejaVuSans-74" x="2582.136719"/>
     <use xlink:href="#DejaVuSans-2f" x="2621.345703"/>
     <use xlink:href="#DejaVuSans-32" x="2655.037109"/>
    </g>
   </g>
   <g id="legend_2">
    <g id="patch_12">
     <path d="M 460.084375 74.518125 
L 511.4 74.518125 
Q 513.4 74.518125 513.4 72.518125 
L 513.4 58.84 
Q 513.4 56.84 511.4 56.84 
L 460.084375 56.84 
Q 458.084375 56.84 458.084375 58.84 
L 458.084375 72.518125 
Q 458.084375 74.518125 460.084375 74.518125 
z
" style="fill: #ffffff; opacity: 0.8; stroke: #cccccc; stroke-linejoin: miter"/>
    </g>
    <g id="line2d_26">
     <path d="M 462.084375 64.938438 
L 472.084375 64.938438 
L 482.084375 64.938438 
" style="fill: none; stroke: #ff0000; stroke-width: 1.5; stroke-linecap: square"/>
    </g>
    <g id="text_27">
     <!-- loss -->
     <g transform="translate(490.084375 68.438438) scale(0.1 -0.1)">
      <use xlink:href="#DejaVuSans-6c"/>
      <use xlink:href="#DejaVuSans-6f" x="27.783203"/>
      <use xlink:href="#DejaVuSans-73" x="88.964844"/>
      <use xlink:href="#DejaVuSans-73" x="141.064453"/>
     </g>
    </g>
   </g>
  </g>
 </g>
 <defs>
  <clipPath id="pea4c099a5f">
   <rect x="72" y="51.84" width="446.4" height="332.64"/>
  </clipPath>
 </defs>
</svg>
