<?xml version="1.0" encoding="utf-8" standalone="no"?>
<!DOCTYPE svg PUBLIC "-//W3C//DTD SVG 1.1//EN"
  "http://www.w3.org/Graphics/SVG/1.1/DTD/svg11.dtd">
<!-- Created with matplotlib (https://matplotlib.org/) -->
<svg height="432pt" version="1.1" viewBox="0 0 576 432" width="576pt" xmlns="http://www.w3.org/2000/svg" xmlns:xlink="http://www.w3.org/1999/xlink">
 <metadata>
  <rdf:RDF xmlns:cc="http://creativecommons.org/ns#" xmlns:dc="http://purl.org/dc/elements/1.1/" xmlns:rdf="http://www.w3.org/1999/02/22-rdf-syntax-ns#">
   <cc:Work>
    <dc:type rdf:resource="http://purl.org/dc/dcmitype/StillImage"/>
    <dc:date>2023-04-17T00:04:51.322345</dc:date>
    <dc:format>image/svg+xml</dc:format>
    <dc:creator>
     <cc:Agent>
      <dc:title>Matplotlib v3.3.4, https://matplotlib.org/</dc:title>
     </cc:Agent>
    </dc:creator>
   </cc:Work>
  </rdf:RDF>
 </metadata>
 <defs>
  <style type="text/css">*{stroke-linecap:butt;stroke-linejoin:round;}</style>
 </defs>
 <g id="figure_1">
  <g id="patch_1">
   <path d="M 0 432 
L 576 432 
L 576 0 
L 0 0 
z
" style="fill:#ffffff;"/>
  </g>
  <g id="axes_1">
   <g id="patch_2">
    <path d="M 72 384.48 
L 518.4 384.48 
L 518.4 51.84 
L 72 51.84 
z
" style="fill:#ffffff;"/>
   </g>
   <g id="matplotlib.axis_1">
    <g id="xtick_1">
     <g id="line2d_1">
      <defs>
       <path d="M 0 0 
L 0 3.5 
" id="mdf39aed856" style="stroke:#000000;stroke-width:0.8;"/>
      </defs>
      <g>
       <use style="stroke:#000000;stroke-width:0.8;" x="92.290909" xlink:href="#mdf39aed856" y="384.48"/>
      </g>
     </g>
     <g id="text_1">
      <!-- 0 -->
      <g transform="translate(89.109659 399.078438)scale(0.1 -0.1)">
       <defs>
        <path d="M 31.78125 66.40625 
Q 24.171875 66.40625 20.328125 58.90625 
Q 16.5 51.421875 16.5 36.375 
Q 16.5 21.390625 20.328125 13.890625 
Q 24.171875 6.390625 31.78125 6.390625 
Q 39.453125 6.390625 43.28125 13.890625 
Q 47.125 21.390625 47.125 36.375 
Q 47.125 51.421875 43.28125 58.90625 
Q 39.453125 66.40625 31.78125 66.40625 
z
M 31.78125 74.21875 
Q 44.046875 74.21875 50.515625 64.515625 
Q 56.984375 54.828125 56.984375 36.375 
Q 56.984375 17.96875 50.515625 8.265625 
Q 44.046875 -1.421875 31.78125 -1.421875 
Q 19.53125 -1.421875 13.0625 8.265625 
Q 6.59375 17.96875 6.59375 36.375 
Q 6.59375 54.828125 13.0625 64.515625 
Q 19.53125 74.21875 31.78125 74.21875 
z
" id="DejaVuSans-48"/>
       </defs>
       <use xlink:href="#DejaVuSans-48"/>
      </g>
     </g>
    </g>
    <g id="xtick_2">
     <g id="line2d_2">
      <g>
       <use style="stroke:#000000;stroke-width:0.8;" x="173.617198" xlink:href="#mdf39aed856" y="384.48"/>
      </g>
     </g>
     <g id="text_2">
      <!-- 100 -->
      <g transform="translate(164.073448 399.078438)scale(0.1 -0.1)">
       <defs>
        <path d="M 12.40625 8.296875 
L 28.515625 8.296875 
L 28.515625 63.921875 
L 10.984375 60.40625 
L 10.984375 69.390625 
L 28.421875 72.90625 
L 38.28125 72.90625 
L 38.28125 8.296875 
L 54.390625 8.296875 
L 54.390625 0 
L 12.40625 0 
z
" id="DejaVuSans-49"/>
       </defs>
       <use xlink:href="#DejaVuSans-49"/>
       <use x="63.623047" xlink:href="#DejaVuSans-48"/>
       <use x="127.246094" xlink:href="#DejaVuSans-48"/>
      </g>
     </g>
    </g>
    <g id="xtick_3">
     <g id="line2d_3">
      <g>
       <use style="stroke:#000000;stroke-width:0.8;" x="254.943487" xlink:href="#mdf39aed856" y="384.48"/>
      </g>
     </g>
     <g id="text_3">
      <!-- 200 -->
      <g transform="translate(245.399737 399.078438)scale(0.1 -0.1)">
       <defs>
        <path d="M 19.1875 8.296875 
L 53.609375 8.296875 
L 53.609375 0 
L 7.328125 0 
L 7.328125 8.296875 
Q 12.9375 14.109375 22.625 23.890625 
Q 32.328125 33.6875 34.8125 36.53125 
Q 39.546875 41.84375 41.421875 45.53125 
Q 43.3125 49.21875 43.3125 52.78125 
Q 43.3125 58.59375 39.234375 62.25 
Q 35.15625 65.921875 28.609375 65.921875 
Q 23.96875 65.921875 18.8125 64.3125 
Q 13.671875 62.703125 7.8125 59.421875 
L 7.8125 69.390625 
Q 13.765625 71.78125 18.9375 73 
Q 24.125 74.21875 28.421875 74.21875 
Q 39.75 74.21875 46.484375 68.546875 
Q 53.21875 62.890625 53.21875 53.421875 
Q 53.21875 48.921875 51.53125 44.890625 
Q 49.859375 40.875 45.40625 35.40625 
Q 44.1875 33.984375 37.640625 27.21875 
Q 31.109375 20.453125 19.1875 8.296875 
z
" id="DejaVuSans-50"/>
       </defs>
       <use xlink:href="#DejaVuSans-50"/>
       <use x="63.623047" xlink:href="#DejaVuSans-48"/>
       <use x="127.246094" xlink:href="#DejaVuSans-48"/>
      </g>
     </g>
    </g>
    <g id="xtick_4">
     <g id="line2d_4">
      <g>
       <use style="stroke:#000000;stroke-width:0.8;" x="336.269776" xlink:href="#mdf39aed856" y="384.48"/>
      </g>
     </g>
     <g id="text_4">
      <!-- 300 -->
      <g transform="translate(326.726026 399.078438)scale(0.1 -0.1)">
       <defs>
        <path d="M 40.578125 39.3125 
Q 47.65625 37.796875 51.625 33 
Q 55.609375 28.21875 55.609375 21.1875 
Q 55.609375 10.40625 48.1875 4.484375 
Q 40.765625 -1.421875 27.09375 -1.421875 
Q 22.515625 -1.421875 17.65625 -0.515625 
Q 12.796875 0.390625 7.625 2.203125 
L 7.625 11.71875 
Q 11.71875 9.328125 16.59375 8.109375 
Q 21.484375 6.890625 26.8125 6.890625 
Q 36.078125 6.890625 40.9375 10.546875 
Q 45.796875 14.203125 45.796875 21.1875 
Q 45.796875 27.640625 41.28125 31.265625 
Q 36.765625 34.90625 28.71875 34.90625 
L 20.21875 34.90625 
L 20.21875 43.015625 
L 29.109375 43.015625 
Q 36.375 43.015625 40.234375 45.921875 
Q 44.09375 48.828125 44.09375 54.296875 
Q 44.09375 59.90625 40.109375 62.90625 
Q 36.140625 65.921875 28.71875 65.921875 
Q 24.65625 65.921875 20.015625 65.03125 
Q 15.375 64.15625 9.8125 62.3125 
L 9.8125 71.09375 
Q 15.4375 72.65625 20.34375 73.4375 
Q 25.25 74.21875 29.59375 74.21875 
Q 40.828125 74.21875 47.359375 69.109375 
Q 53.90625 64.015625 53.90625 55.328125 
Q 53.90625 49.265625 50.4375 45.09375 
Q 46.96875 40.921875 40.578125 39.3125 
z
" id="DejaVuSans-51"/>
       </defs>
       <use xlink:href="#DejaVuSans-51"/>
       <use x="63.623047" xlink:href="#DejaVuSans-48"/>
       <use x="127.246094" xlink:href="#DejaVuSans-48"/>
      </g>
     </g>
    </g>
    <g id="xtick_5">
     <g id="line2d_5">
      <g>
       <use style="stroke:#000000;stroke-width:0.8;" x="417.596065" xlink:href="#mdf39aed856" y="384.48"/>
      </g>
     </g>
     <g id="text_5">
      <!-- 400 -->
      <g transform="translate(408.052315 399.078438)scale(0.1 -0.1)">
       <defs>
        <path d="M 37.796875 64.3125 
L 12.890625 25.390625 
L 37.796875 25.390625 
z
M 35.203125 72.90625 
L 47.609375 72.90625 
L 47.609375 25.390625 
L 58.015625 25.390625 
L 58.015625 17.1875 
L 47.609375 17.1875 
L 47.609375 0 
L 37.796875 0 
L 37.796875 17.1875 
L 4.890625 17.1875 
L 4.890625 26.703125 
z
" id="DejaVuSans-52"/>
       </defs>
       <use xlink:href="#DejaVuSans-52"/>
       <use x="63.623047" xlink:href="#DejaVuSans-48"/>
       <use x="127.246094" xlink:href="#DejaVuSans-48"/>
      </g>
     </g>
    </g>
    <g id="xtick_6">
     <g id="line2d_6">
      <g>
       <use style="stroke:#000000;stroke-width:0.8;" x="498.922354" xlink:href="#mdf39aed856" y="384.48"/>
      </g>
     </g>
     <g id="text_6">
      <!-- 500 -->
      <g transform="translate(489.378604 399.078438)scale(0.1 -0.1)">
       <defs>
        <path d="M 10.796875 72.90625 
L 49.515625 72.90625 
L 49.515625 64.59375 
L 19.828125 64.59375 
L 19.828125 46.734375 
Q 21.96875 47.46875 24.109375 47.828125 
Q 26.265625 48.1875 28.421875 48.1875 
Q 40.625 48.1875 47.75 41.5 
Q 54.890625 34.8125 54.890625 23.390625 
Q 54.890625 11.625 47.5625 5.09375 
Q 40.234375 -1.421875 26.90625 -1.421875 
Q 22.3125 -1.421875 17.546875 -0.640625 
Q 12.796875 0.140625 7.71875 1.703125 
L 7.71875 11.625 
Q 12.109375 9.234375 16.796875 8.0625 
Q 21.484375 6.890625 26.703125 6.890625 
Q 35.15625 6.890625 40.078125 11.328125 
Q 45.015625 15.765625 45.015625 23.390625 
Q 45.015625 31 40.078125 35.4375 
Q 35.15625 39.890625 26.703125 39.890625 
Q 22.75 39.890625 18.8125 39.015625 
Q 14.890625 38.140625 10.796875 36.28125 
z
" id="DejaVuSans-53"/>
       </defs>
       <use xlink:href="#DejaVuSans-53"/>
       <use x="63.623047" xlink:href="#DejaVuSans-48"/>
       <use x="127.246094" xlink:href="#DejaVuSans-48"/>
      </g>
     </g>
    </g>
    <g id="text_7">
     <!-- epoch -->
     <g transform="translate(279.971875 412.756563)scale(0.1 -0.1)">
      <defs>
       <path d="M 56.203125 29.59375 
L 56.203125 25.203125 
L 14.890625 25.203125 
Q 15.484375 15.921875 20.484375 11.0625 
Q 25.484375 6.203125 34.421875 6.203125 
Q 39.59375 6.203125 44.453125 7.46875 
Q 49.3125 8.734375 54.109375 11.28125 
L 54.109375 2.78125 
Q 49.265625 0.734375 44.1875 -0.34375 
Q 39.109375 -1.421875 33.890625 -1.421875 
Q 20.796875 -1.421875 13.15625 6.1875 
Q 5.515625 13.8125 5.515625 26.8125 
Q 5.515625 40.234375 12.765625 48.109375 
Q 20.015625 56 32.328125 56 
Q 43.359375 56 49.78125 48.890625 
Q 56.203125 41.796875 56.203125 29.59375 
z
M 47.21875 32.234375 
Q 47.125 39.59375 43.09375 43.984375 
Q 39.0625 48.390625 32.421875 48.390625 
Q 24.90625 48.390625 20.390625 44.140625 
Q 15.875 39.890625 15.1875 32.171875 
z
" id="DejaVuSans-101"/>
       <path d="M 18.109375 8.203125 
L 18.109375 -20.796875 
L 9.078125 -20.796875 
L 9.078125 54.6875 
L 18.109375 54.6875 
L 18.109375 46.390625 
Q 20.953125 51.265625 25.265625 53.625 
Q 29.59375 56 35.59375 56 
Q 45.5625 56 51.78125 48.09375 
Q 58.015625 40.1875 58.015625 27.296875 
Q 58.015625 14.40625 51.78125 6.484375 
Q 45.5625 -1.421875 35.59375 -1.421875 
Q 29.59375 -1.421875 25.265625 0.953125 
Q 20.953125 3.328125 18.109375 8.203125 
z
M 48.6875 27.296875 
Q 48.6875 37.203125 44.609375 42.84375 
Q 40.53125 48.484375 33.40625 48.484375 
Q 26.265625 48.484375 22.1875 42.84375 
Q 18.109375 37.203125 18.109375 27.296875 
Q 18.109375 17.390625 22.1875 11.75 
Q 26.265625 6.109375 33.40625 6.109375 
Q 40.53125 6.109375 44.609375 11.75 
Q 48.6875 17.390625 48.6875 27.296875 
z
" id="DejaVuSans-112"/>
       <path d="M 30.609375 48.390625 
Q 23.390625 48.390625 19.1875 42.75 
Q 14.984375 37.109375 14.984375 27.296875 
Q 14.984375 17.484375 19.15625 11.84375 
Q 23.34375 6.203125 30.609375 6.203125 
Q 37.796875 6.203125 41.984375 11.859375 
Q 46.1875 17.53125 46.1875 27.296875 
Q 46.1875 37.015625 41.984375 42.703125 
Q 37.796875 48.390625 30.609375 48.390625 
z
M 30.609375 56 
Q 42.328125 56 49.015625 48.375 
Q 55.71875 40.765625 55.71875 27.296875 
Q 55.71875 13.875 49.015625 6.21875 
Q 42.328125 -1.421875 30.609375 -1.421875 
Q 18.84375 -1.421875 12.171875 6.21875 
Q 5.515625 13.875 5.515625 27.296875 
Q 5.515625 40.765625 12.171875 48.375 
Q 18.84375 56 30.609375 56 
z
" id="DejaVuSans-111"/>
       <path d="M 48.78125 52.59375 
L 48.78125 44.1875 
Q 44.96875 46.296875 41.140625 47.34375 
Q 37.3125 48.390625 33.40625 48.390625 
Q 24.65625 48.390625 19.8125 42.84375 
Q 14.984375 37.3125 14.984375 27.296875 
Q 14.984375 17.28125 19.8125 11.734375 
Q 24.65625 6.203125 33.40625 6.203125 
Q 37.3125 6.203125 41.140625 7.25 
Q 44.96875 8.296875 48.78125 10.40625 
L 48.78125 2.09375 
Q 45.015625 0.34375 40.984375 -0.53125 
Q 36.96875 -1.421875 32.421875 -1.421875 
Q 20.0625 -1.421875 12.78125 6.34375 
Q 5.515625 14.109375 5.515625 27.296875 
Q 5.515625 40.671875 12.859375 48.328125 
Q 20.21875 56 33.015625 56 
Q 37.15625 56 41.109375 55.140625 
Q 45.0625 54.296875 48.78125 52.59375 
z
" id="DejaVuSans-99"/>
       <path d="M 54.890625 33.015625 
L 54.890625 0 
L 45.90625 0 
L 45.90625 32.71875 
Q 45.90625 40.484375 42.875 44.328125 
Q 39.84375 48.1875 33.796875 48.1875 
Q 26.515625 48.1875 22.3125 43.546875 
Q 18.109375 38.921875 18.109375 30.90625 
L 18.109375 0 
L 9.078125 0 
L 9.078125 75.984375 
L 18.109375 75.984375 
L 18.109375 46.1875 
Q 21.34375 51.125 25.703125 53.5625 
Q 30.078125 56 35.796875 56 
Q 45.21875 56 50.046875 50.171875 
Q 54.890625 44.34375 54.890625 33.015625 
z
" id="DejaVuSans-104"/>
      </defs>
      <use xlink:href="#DejaVuSans-101"/>
      <use x="61.523438" xlink:href="#DejaVuSans-112"/>
      <use x="125" xlink:href="#DejaVuSans-111"/>
      <use x="186.181641" xlink:href="#DejaVuSans-99"/>
      <use x="241.162109" xlink:href="#DejaVuSans-104"/>
     </g>
    </g>
   </g>
   <g id="matplotlib.axis_2">
    <g id="ytick_1">
     <g id="line2d_7">
      <defs>
       <path d="M 0 0 
L -3.5 0 
" id="md88e5bdd45" style="stroke:#000000;stroke-width:0.8;"/>
      </defs>
      <g>
       <use style="stroke:#000000;stroke-width:0.8;" x="72" xlink:href="#md88e5bdd45" y="384.48"/>
      </g>
     </g>
     <g id="text_8">
      <!-- 0.0 -->
      <g transform="translate(49.096875 388.279219)scale(0.1 -0.1)">
       <defs>
        <path d="M 10.6875 12.40625 
L 21 12.40625 
L 21 0 
L 10.6875 0 
z
" id="DejaVuSans-46"/>
       </defs>
       <use xlink:href="#DejaVuSans-48"/>
       <use x="63.623047" xlink:href="#DejaVuSans-46"/>
       <use x="95.410156" xlink:href="#DejaVuSans-48"/>
      </g>
     </g>
    </g>
    <g id="ytick_2">
     <g id="line2d_8">
      <g>
       <use style="stroke:#000000;stroke-width:0.8;" x="72" xlink:href="#md88e5bdd45" y="317.952"/>
      </g>
     </g>
     <g id="text_9">
      <!-- 0.2 -->
      <g transform="translate(49.096875 321.751219)scale(0.1 -0.1)">
       <use xlink:href="#DejaVuSans-48"/>
       <use x="63.623047" xlink:href="#DejaVuSans-46"/>
       <use x="95.410156" xlink:href="#DejaVuSans-50"/>
      </g>
     </g>
    </g>
    <g id="ytick_3">
     <g id="line2d_9">
      <g>
       <use style="stroke:#000000;stroke-width:0.8;" x="72" xlink:href="#md88e5bdd45" y="251.424"/>
      </g>
     </g>
     <g id="text_10">
      <!-- 0.4 -->
      <g transform="translate(49.096875 255.223219)scale(0.1 -0.1)">
       <use xlink:href="#DejaVuSans-48"/>
       <use x="63.623047" xlink:href="#DejaVuSans-46"/>
       <use x="95.410156" xlink:href="#DejaVuSans-52"/>
      </g>
     </g>
    </g>
    <g id="ytick_4">
     <g id="line2d_10">
      <g>
       <use style="stroke:#000000;stroke-width:0.8;" x="72" xlink:href="#md88e5bdd45" y="184.896"/>
      </g>
     </g>
     <g id="text_11">
      <!-- 0.6 -->
      <g transform="translate(49.096875 188.695219)scale(0.1 -0.1)">
       <defs>
        <path d="M 33.015625 40.375 
Q 26.375 40.375 22.484375 35.828125 
Q 18.609375 31.296875 18.609375 23.390625 
Q 18.609375 15.53125 22.484375 10.953125 
Q 26.375 6.390625 33.015625 6.390625 
Q 39.65625 6.390625 43.53125 10.953125 
Q 47.40625 15.53125 47.40625 23.390625 
Q 47.40625 31.296875 43.53125 35.828125 
Q 39.65625 40.375 33.015625 40.375 
z
M 52.59375 71.296875 
L 52.59375 62.3125 
Q 48.875 64.0625 45.09375 64.984375 
Q 41.3125 65.921875 37.59375 65.921875 
Q 27.828125 65.921875 22.671875 59.328125 
Q 17.53125 52.734375 16.796875 39.40625 
Q 19.671875 43.65625 24.015625 45.921875 
Q 28.375 48.1875 33.59375 48.1875 
Q 44.578125 48.1875 50.953125 41.515625 
Q 57.328125 34.859375 57.328125 23.390625 
Q 57.328125 12.15625 50.6875 5.359375 
Q 44.046875 -1.421875 33.015625 -1.421875 
Q 20.359375 -1.421875 13.671875 8.265625 
Q 6.984375 17.96875 6.984375 36.375 
Q 6.984375 53.65625 15.1875 63.9375 
Q 23.390625 74.21875 37.203125 74.21875 
Q 40.921875 74.21875 44.703125 73.484375 
Q 48.484375 72.75 52.59375 71.296875 
z
" id="DejaVuSans-54"/>
       </defs>
       <use xlink:href="#DejaVuSans-48"/>
       <use x="63.623047" xlink:href="#DejaVuSans-46"/>
       <use x="95.410156" xlink:href="#DejaVuSans-54"/>
      </g>
     </g>
    </g>
    <g id="ytick_5">
     <g id="line2d_11">
      <g>
       <use style="stroke:#000000;stroke-width:0.8;" x="72" xlink:href="#md88e5bdd45" y="118.368"/>
      </g>
     </g>
     <g id="text_12">
      <!-- 0.8 -->
      <g transform="translate(49.096875 122.167219)scale(0.1 -0.1)">
       <defs>
        <path d="M 31.78125 34.625 
Q 24.75 34.625 20.71875 30.859375 
Q 16.703125 27.09375 16.703125 20.515625 
Q 16.703125 13.921875 20.71875 10.15625 
Q 24.75 6.390625 31.78125 6.390625 
Q 38.8125 6.390625 42.859375 10.171875 
Q 46.921875 13.96875 46.921875 20.515625 
Q 46.921875 27.09375 42.890625 30.859375 
Q 38.875 34.625 31.78125 34.625 
z
M 21.921875 38.8125 
Q 15.578125 40.375 12.03125 44.71875 
Q 8.5 49.078125 8.5 55.328125 
Q 8.5 64.0625 14.71875 69.140625 
Q 20.953125 74.21875 31.78125 74.21875 
Q 42.671875 74.21875 48.875 69.140625 
Q 55.078125 64.0625 55.078125 55.328125 
Q 55.078125 49.078125 51.53125 44.71875 
Q 48 40.375 41.703125 38.8125 
Q 48.828125 37.15625 52.796875 32.3125 
Q 56.78125 27.484375 56.78125 20.515625 
Q 56.78125 9.90625 50.3125 4.234375 
Q 43.84375 -1.421875 31.78125 -1.421875 
Q 19.734375 -1.421875 13.25 4.234375 
Q 6.78125 9.90625 6.78125 20.515625 
Q 6.78125 27.484375 10.78125 32.3125 
Q 14.796875 37.15625 21.921875 38.8125 
z
M 18.3125 54.390625 
Q 18.3125 48.734375 21.84375 45.5625 
Q 25.390625 42.390625 31.78125 42.390625 
Q 38.140625 42.390625 41.71875 45.5625 
Q 45.3125 48.734375 45.3125 54.390625 
Q 45.3125 60.0625 41.71875 63.234375 
Q 38.140625 66.40625 31.78125 66.40625 
Q 25.390625 66.40625 21.84375 63.234375 
Q 18.3125 60.0625 18.3125 54.390625 
z
" id="DejaVuSans-56"/>
       </defs>
       <use xlink:href="#DejaVuSans-48"/>
       <use x="63.623047" xlink:href="#DejaVuSans-46"/>
       <use x="95.410156" xlink:href="#DejaVuSans-56"/>
      </g>
     </g>
    </g>
    <g id="ytick_6">
     <g id="line2d_12">
      <g>
       <use style="stroke:#000000;stroke-width:0.8;" x="72" xlink:href="#md88e5bdd45" y="51.84"/>
      </g>
     </g>
     <g id="text_13">
      <!-- 1.0 -->
      <g transform="translate(49.096875 55.639219)scale(0.1 -0.1)">
       <use xlink:href="#DejaVuSans-49"/>
       <use x="63.623047" xlink:href="#DejaVuSans-46"/>
       <use x="95.410156" xlink:href="#DejaVuSans-48"/>
      </g>
     </g>
    </g>
    <g id="text_14">
     <!-- rate -->
     <g transform="translate(43.017187 228.31625)rotate(-90)scale(0.1 -0.1)">
      <defs>
       <path d="M 41.109375 46.296875 
Q 39.59375 47.171875 37.8125 47.578125 
Q 36.03125 48 33.890625 48 
Q 26.265625 48 22.1875 43.046875 
Q 18.109375 38.09375 18.109375 28.8125 
L 18.109375 0 
L 9.078125 0 
L 9.078125 54.6875 
L 18.109375 54.6875 
L 18.109375 46.1875 
Q 20.953125 51.171875 25.484375 53.578125 
Q 30.03125 56 36.53125 56 
Q 37.453125 56 38.578125 55.875 
Q 39.703125 55.765625 41.0625 55.515625 
z
" id="DejaVuSans-114"/>
       <path d="M 34.28125 27.484375 
Q 23.390625 27.484375 19.1875 25 
Q 14.984375 22.515625 14.984375 16.5 
Q 14.984375 11.71875 18.140625 8.90625 
Q 21.296875 6.109375 26.703125 6.109375 
Q 34.1875 6.109375 38.703125 11.40625 
Q 43.21875 16.703125 43.21875 25.484375 
L 43.21875 27.484375 
z
M 52.203125 31.203125 
L 52.203125 0 
L 43.21875 0 
L 43.21875 8.296875 
Q 40.140625 3.328125 35.546875 0.953125 
Q 30.953125 -1.421875 24.3125 -1.421875 
Q 15.921875 -1.421875 10.953125 3.296875 
Q 6 8.015625 6 15.921875 
Q 6 25.140625 12.171875 29.828125 
Q 18.359375 34.515625 30.609375 34.515625 
L 43.21875 34.515625 
L 43.21875 35.40625 
Q 43.21875 41.609375 39.140625 45 
Q 35.0625 48.390625 27.6875 48.390625 
Q 23 48.390625 18.546875 47.265625 
Q 14.109375 46.140625 10.015625 43.890625 
L 10.015625 52.203125 
Q 14.9375 54.109375 19.578125 55.046875 
Q 24.21875 56 28.609375 56 
Q 40.484375 56 46.34375 49.84375 
Q 52.203125 43.703125 52.203125 31.203125 
z
" id="DejaVuSans-97"/>
       <path d="M 18.3125 70.21875 
L 18.3125 54.6875 
L 36.8125 54.6875 
L 36.8125 47.703125 
L 18.3125 47.703125 
L 18.3125 18.015625 
Q 18.3125 11.328125 20.140625 9.421875 
Q 21.96875 7.515625 27.59375 7.515625 
L 36.8125 7.515625 
L 36.8125 0 
L 27.59375 0 
Q 17.1875 0 13.234375 3.875 
Q 9.28125 7.765625 9.28125 18.015625 
L 9.28125 47.703125 
L 2.6875 47.703125 
L 2.6875 54.6875 
L 9.28125 54.6875 
L 9.28125 70.21875 
z
" id="DejaVuSans-116"/>
      </defs>
      <use xlink:href="#DejaVuSans-114"/>
      <use x="41.113281" xlink:href="#DejaVuSans-97"/>
      <use x="102.392578" xlink:href="#DejaVuSans-116"/>
      <use x="141.601562" xlink:href="#DejaVuSans-101"/>
     </g>
    </g>
   </g>
   <g id="line2d_13">
    <path clip-path="url(#pe5680796bf)" d="M 92.290909 171.609167 
L 93.104172 156.784394 
L 93.917435 150.425584 
L 94.730698 146.440693 
L 95.543961 143.418243 
L 96.357224 140.909719 
L 97.170486 138.815125 
L 100.423538 132.883032 
L 101.236801 132.414995 
L 102.863327 129.144857 
L 103.67659 128.542013 
L 104.489852 127.706754 
L 105.303115 127.11974 
L 106.116378 126.057392 
L 106.929641 125.37558 
L 107.742904 125.707336 
L 108.556167 124.064644 
L 109.36943 124.157571 
L 110.182693 122.871048 
L 110.995956 122.578854 
L 111.809218 122.593946 
L 112.622481 121.82827 
L 113.435744 120.681613 
L 114.249007 120.824298 
L 115.06227 119.903317 
L 115.875533 119.56697 
L 116.688796 118.626613 
L 117.502059 118.698111 
L 118.315322 118.384488 
L 119.128584 117.828987 
L 119.941847 117.591847 
L 120.75511 116.963431 
L 121.568373 116.535266 
L 122.381636 116.55165 
L 123.194899 115.705487 
L 124.008162 115.711681 
L 124.821425 114.59964 
L 125.634688 114.751221 
L 126.44795 114.217973 
L 127.261213 114.161661 
L 128.887739 113.611697 
L 129.701002 112.630656 
L 130.514265 112.914786 
L 131.327528 112.735913 
L 132.140791 112.394698 
L 132.954054 111.066686 
L 133.767316 111.102983 
L 134.580579 110.952637 
L 136.207105 111.055425 
L 137.020368 110.261917 
L 137.833631 110.280157 
L 138.646894 109.367591 
L 139.460157 109.365364 
L 140.27342 108.615257 
L 141.086682 108.235637 
L 141.899945 108.568889 
L 142.713208 107.976857 
L 143.526471 107.913967 
L 144.339734 107.489705 
L 145.152997 107.436711 
L 145.96626 108.129992 
L 146.779523 107.193616 
L 147.592786 106.83616 
L 149.219311 105.618577 
L 150.032574 105.362426 
L 150.845837 105.455919 
L 151.6591 104.629371 
L 153.285626 104.354583 
L 154.098889 104.654438 
L 154.912152 104.677992 
L 155.725414 103.76376 
L 156.538677 103.385908 
L 158.165203 102.239036 
L 158.978466 102.590684 
L 159.791729 102.282195 
L 160.604992 101.513728 
L 161.418255 101.95302 
L 162.231518 101.253527 
L 163.04478 100.784095 
L 163.858043 101.280069 
L 164.671306 101.237635 
L 165.484569 99.681272 
L 166.297832 99.148441 
L 167.111095 99.817314 
L 167.924358 99.339877 
L 168.737621 99.469391 
L 169.550884 99.308734 
L 170.364146 98.223062 
L 171.177409 98.6576 
L 171.990672 98.274602 
L 172.803935 98.444669 
L 173.617198 97.09407 
L 174.430461 88.794834 
L 175.243724 86.96042 
L 176.056987 86.162318 
L 176.87025 86.453081 
L 177.683512 85.507534 
L 178.496775 85.510101 
L 179.310038 84.965972 
L 180.123301 85.392304 
L 181.749827 84.669065 
L 182.56309 83.613605 
L 183.376353 84.298329 
L 185.816141 83.56232 
L 186.629404 83.493798 
L 187.442667 83.55107 
L 188.25593 83.391458 
L 189.069193 82.788139 
L 189.882456 83.553212 
L 190.695719 82.699156 
L 191.508982 82.035472 
L 193.135507 82.137571 
L 193.94877 81.579384 
L 194.762033 82.247099 
L 195.575296 81.946185 
L 196.388559 81.97256 
L 197.201822 81.430101 
L 198.015085 81.764284 
L 198.828348 81.262913 
L 199.64161 81.031121 
L 200.454873 80.233122 
L 201.268136 80.751712 
L 202.081399 80.672463 
L 202.894662 80.790321 
L 203.707925 80.181119 
L 204.521188 80.382099 
L 205.334451 79.97886 
L 206.147714 80.711007 
L 206.960976 79.684978 
L 207.774239 79.920236 
L 208.587502 79.933479 
L 209.400765 79.563562 
L 210.214028 78.680803 
L 211.840554 79.185519 
L 212.653817 78.935449 
L 213.46708 78.916157 
L 214.280343 79.324117 
L 215.093605 78.658246 
L 217.533394 78.359153 
L 218.346657 77.908847 
L 219.15992 78.125464 
L 219.973183 77.781556 
L 220.786446 78.151948 
L 221.599709 77.996721 
L 222.412971 78.512408 
L 223.226234 77.598871 
L 224.039497 77.467616 
L 224.85276 77.213205 
L 226.479286 77.035418 
L 228.105812 77.18602 
L 228.919075 76.763491 
L 229.732337 76.974119 
L 230.5456 77.610916 
L 231.358863 76.08415 
L 232.172126 76.568621 
L 233.798652 76.462081 
L 234.611915 76.178447 
L 235.425178 76.444016 
L 236.238441 75.914601 
L 237.051703 75.795521 
L 237.864966 76.047753 
L 238.678229 77.030768 
L 239.491492 75.43993 
L 240.304755 75.709672 
L 241.931281 75.751127 
L 242.744544 75.187452 
L 243.557807 75.561684 
L 244.371069 74.964197 
L 245.184332 75.193441 
L 245.997595 74.962379 
L 246.810858 76.02466 
L 247.624121 74.656437 
L 248.437384 74.495421 
L 249.250647 74.834569 
L 250.06391 74.739183 
L 250.877173 74.793451 
L 251.690435 74.402908 
L 253.316961 74.387974 
L 254.130224 73.893969 
L 254.943487 75.450286 
L 255.75675 74.019521 
L 256.570013 74.05602 
L 257.383276 73.885559 
L 258.196539 73.889816 
L 259.009801 73.752493 
L 259.823064 73.891309 
L 260.636327 73.255169 
L 261.44959 73.990614 
L 262.262853 73.685078 
L 263.076116 75.140813 
L 263.889379 73.393112 
L 264.702642 73.59899 
L 265.515905 73.460948 
L 266.329167 73.145313 
L 267.14243 73.189854 
L 268.768956 72.631604 
L 270.395482 72.972312 
L 271.208745 74.795132 
L 272.022008 72.753867 
L 274.461796 72.562071 
L 275.275059 73.10074 
L 276.088322 72.756202 
L 276.901585 71.891472 
L 277.714848 72.356458 
L 278.528111 71.96543 
L 279.341374 74.380146 
L 280.154637 72.054749 
L 280.967899 72.201226 
L 281.781162 72.139504 
L 282.594425 72.301298 
L 284.220951 72.006874 
L 285.034214 72.100344 
L 285.847477 72.453603 
L 286.66074 71.789765 
L 287.474003 74.105722 
L 288.287265 71.617162 
L 289.100528 71.966619 
L 290.727054 71.384997 
L 291.540317 72.201278 
L 292.35358 71.284614 
L 293.166843 71.155826 
L 293.980106 71.335986 
L 294.793369 71.669105 
L 295.606631 73.702726 
L 296.419894 71.302277 
L 297.233157 71.301392 
L 298.04642 71.050782 
L 298.859683 71.241278 
L 301.299472 71.036169 
L 302.112735 71.246237 
L 302.925997 70.925768 
L 303.73926 73.243232 
L 304.552523 71.073162 
L 305.365786 70.87282 
L 306.179049 70.811657 
L 306.992312 70.992107 
L 308.618838 70.664912 
L 309.432101 70.904868 
L 310.245363 70.800011 
L 311.058626 71.003841 
L 311.871889 73.314249 
L 312.685152 70.239805 
L 313.498415 70.634008 
L 315.938204 70.2265 
L 316.751467 70.558944 
L 317.564729 70.171073 
L 318.377992 69.968244 
L 319.191255 70.327696 
L 320.004518 73.142059 
L 320.817781 70.322353 
L 322.444307 70.202129 
L 323.25757 70.091039 
L 324.070833 70.140684 
L 324.884095 69.822123 
L 325.697358 70.492676 
L 326.510621 70.194548 
L 327.323884 69.732763 
L 328.137147 73.342768 
L 328.95041 69.858201 
L 329.763673 70.032749 
L 331.390199 69.81473 
L 332.203461 69.448644 
L 333.016724 69.732454 
L 335.456513 69.340348 
L 336.269776 73.093446 
L 337.083039 69.722046 
L 337.896302 69.937982 
L 340.33609 69.402775 
L 341.149353 69.633604 
L 341.962616 69.476559 
L 342.775879 69.56743 
L 343.589142 69.455246 
L 344.402405 73.246742 
L 345.215668 69.571767 
L 346.028931 69.133085 
L 347.655456 69.675131 
L 348.468719 69.415533 
L 349.281982 69.468064 
L 350.095245 68.913596 
L 350.908508 69.113841 
L 351.721771 69.001195 
L 352.535034 72.984084 
L 353.348297 69.36102 
L 354.161559 68.885731 
L 355.788085 68.991197 
L 356.601348 69.354714 
L 357.414611 68.973333 
L 358.227874 68.829269 
L 359.041137 68.978448 
L 359.8544 68.789719 
L 360.667663 72.716906 
L 361.480925 68.897862 
L 363.107451 68.795683 
L 363.920714 68.499661 
L 364.733977 68.840482 
L 365.54724 68.490163 
L 366.360503 69.065284 
L 367.173766 68.956748 
L 367.987029 68.703233 
L 368.800291 73.073826 
L 369.613554 68.723922 
L 371.24008 68.528858 
L 372.866606 68.745523 
L 373.679869 68.184669 
L 376.119657 68.889385 
L 376.93292 72.967965 
L 377.746183 68.704557 
L 378.559446 68.685149 
L 380.185972 68.327451 
L 380.999235 68.333724 
L 381.812498 68.795473 
L 382.625761 68.370034 
L 384.252286 68.460392 
L 385.065549 73.07558 
L 385.878812 68.54051 
L 386.692075 68.396891 
L 387.505338 68.43881 
L 388.318601 68.609494 
L 389.131864 68.343841 
L 389.945127 68.249909 
L 390.75839 68.299722 
L 391.571652 68.237724 
L 392.384915 68.429291 
L 393.198178 72.814456 
L 394.011441 68.429868 
L 394.824704 68.181377 
L 397.264493 68.608719 
L 398.077756 68.291683 
L 400.517544 67.950124 
L 401.330807 72.83189 
L 402.14407 68.311567 
L 402.957333 68.381846 
L 404.583859 67.9829 
L 406.210384 68.090292 
L 407.023647 67.91858 
L 407.83691 68.122346 
L 408.650173 68.000176 
L 409.463436 73.290488 
L 410.276699 68.15849 
L 411.903225 68.0684 
L 412.716488 67.790058 
L 413.52975 68.305861 
L 414.343013 67.979966 
L 415.156276 68.13072 
L 415.969539 67.958629 
L 416.782802 67.937384 
L 417.596065 73.024895 
L 418.409328 68.51251 
L 419.222591 67.750309 
L 420.849116 67.968132 
L 421.662379 68.232239 
L 422.475642 67.684685 
L 424.102168 68.054219 
L 424.915431 67.526023 
L 425.728694 72.904889 
L 426.541957 68.180433 
L 427.35522 67.906151 
L 428.168482 67.885623 
L 428.981745 67.388822 
L 431.421534 68.066267 
L 432.234797 67.73075 
L 433.04806 67.550358 
L 433.861323 72.364007 
L 434.674586 67.882473 
L 435.487848 67.982859 
L 436.301111 67.831686 
L 437.114374 67.930548 
L 437.927637 67.820243 
L 438.7409 67.580357 
L 439.554163 67.794358 
L 440.367426 67.615185 
L 441.180689 67.744847 
L 441.993952 72.927693 
L 442.807214 68.156126 
L 443.620477 68.015577 
L 444.43374 68.197949 
L 446.060266 67.417497 
L 446.873529 67.567932 
L 447.686792 67.602866 
L 448.500055 67.822338 
L 449.313318 67.655235 
L 450.12658 72.48339 
L 450.939843 68.143883 
L 451.753106 68.027632 
L 452.566369 67.763816 
L 453.379632 67.675129 
L 454.192895 67.767397 
L 456.632684 67.474031 
L 457.445946 67.701216 
L 458.259209 72.508037 
L 459.072472 68.113368 
L 460.698998 67.871184 
L 462.325524 67.428969 
L 463.138787 67.546697 
L 463.95205 67.927566 
L 464.765312 67.602262 
L 465.578575 67.720618 
L 466.391838 72.058522 
L 467.205101 67.899608 
L 468.018364 67.801572 
L 469.64489 68.173431 
L 470.458153 67.469653 
L 471.271416 67.758619 
L 472.084678 67.359802 
L 472.897941 67.140501 
L 473.711204 67.852957 
L 474.524467 72.11005 
L 475.33773 67.916385 
L 476.150993 67.860711 
L 476.964256 67.513885 
L 477.777519 67.360442 
L 479.404044 67.748577 
L 480.217307 67.645576 
L 481.03057 67.880507 
L 481.843833 67.686458 
L 482.657096 71.829067 
L 483.470359 67.847515 
L 484.283622 67.565507 
L 485.910148 67.775877 
L 486.72341 67.685348 
L 487.536673 67.218108 
L 488.349936 67.343119 
L 489.163199 67.837604 
L 489.976462 67.682226 
L 490.789725 72.038001 
L 491.602988 68.33723 
L 492.416251 67.429751 
L 493.229514 67.827317 
L 494.042776 67.539072 
L 496.482565 67.546018 
L 498.109091 67.55566 
L 498.109091 67.55566 
" style="fill:none;stroke:#0000ff;stroke-linecap:square;stroke-width:1.5;"/>
   </g>
   <g id="line2d_14">
    <path clip-path="url(#pe5680796bf)" d="M 92.290909 326.587508 
L 93.104172 317.210289 
L 93.917435 312.48442 
L 95.543961 304.957808 
L 98.797012 294.987033 
L 99.610275 292.897235 
L 100.423538 292.479798 
L 102.050064 288.078153 
L 102.863327 286.250224 
L 104.489852 283.426837 
L 105.303115 281.536373 
L 106.929641 278.511794 
L 107.742904 277.391271 
L 108.556167 277.346637 
L 110.182693 274.074294 
L 110.995956 273.293166 
L 111.809218 271.719374 
L 112.622481 270.910778 
L 113.435744 269.45462 
L 115.06227 267.204648 
L 115.875533 265.582911 
L 116.688796 265.929253 
L 117.502059 264.605353 
L 118.315322 263.635999 
L 119.128584 262.301529 
L 120.75511 260.470184 
L 122.381636 258.243594 
L 123.194899 257.455849 
L 124.008162 256.191523 
L 124.821425 256.309824 
L 125.634688 255.009207 
L 126.44795 254.495323 
L 128.074476 252.240378 
L 128.887739 251.620435 
L 129.701002 250.02869 
L 130.514265 249.503856 
L 132.140791 247.611303 
L 132.954054 247.941028 
L 133.767316 246.571042 
L 134.580579 245.827827 
L 135.393842 245.388783 
L 136.207105 244.158407 
L 137.833631 242.116304 
L 138.646894 241.379262 
L 140.27342 239.400168 
L 141.899945 238.981787 
L 142.713208 237.625407 
L 143.526471 237.229824 
L 144.339734 236.120286 
L 145.152997 235.3003 
L 145.96626 234.712066 
L 146.779523 233.399042 
L 147.592786 233.14894 
L 148.406048 231.958519 
L 149.219311 231.386277 
L 150.032574 230.506728 
L 150.845837 229.886382 
L 151.6591 228.222639 
L 152.472363 227.803946 
L 154.098889 225.942436 
L 154.912152 225.445937 
L 155.725414 224.284302 
L 156.538677 223.614043 
L 157.35194 223.443376 
L 158.978466 221.576105 
L 159.791729 221.084074 
L 160.604992 219.049295 
L 161.418255 218.663846 
L 162.231518 217.791897 
L 163.04478 216.316021 
L 163.858043 216.058252 
L 164.671306 215.335892 
L 166.297832 213.516253 
L 167.111095 212.78927 
L 167.924358 211.574503 
L 169.550884 210.077935 
L 170.364146 208.806291 
L 171.177409 208.820481 
L 171.990672 207.455558 
L 172.803935 206.752019 
L 173.617198 206.702618 
L 174.430461 196.555395 
L 175.243724 192.020382 
L 176.056987 189.192583 
L 176.87025 188.675037 
L 177.683512 185.794004 
L 178.496775 185.380367 
L 179.310038 184.149943 
L 180.123301 183.372249 
L 180.936564 182.236698 
L 181.749827 181.735391 
L 182.56309 180.954014 
L 183.376353 180.784879 
L 184.189616 179.258875 
L 185.002878 179.391205 
L 185.816141 177.840811 
L 186.629404 177.385018 
L 187.442667 176.309265 
L 188.25593 176.074333 
L 189.069193 174.761091 
L 189.882456 175.029046 
L 191.508982 173.209614 
L 192.322244 172.602633 
L 193.94877 171.044665 
L 194.762033 171.526362 
L 195.575296 170.627896 
L 196.388559 169.397572 
L 197.201822 169.235618 
L 198.015085 167.99157 
L 198.828348 168.856989 
L 199.64161 167.916352 
L 200.454873 166.775305 
L 201.268136 166.556081 
L 202.081399 165.990678 
L 202.894662 166.015655 
L 203.707925 164.764651 
L 204.521188 164.700668 
L 205.334451 164.104421 
L 206.147714 163.291833 
L 206.960976 163.587564 
L 207.774239 163.203207 
L 208.587502 162.492719 
L 209.400765 162.119545 
L 210.214028 160.690116 
L 211.027291 160.964483 
L 211.840554 160.497898 
L 212.653817 159.793496 
L 213.46708 160.117871 
L 214.280343 158.087377 
L 215.093605 159.468171 
L 215.906868 158.925297 
L 216.720131 158.547659 
L 217.533394 158.025499 
L 218.346657 157.275484 
L 219.15992 157.279516 
L 219.973183 156.717029 
L 220.786446 156.64305 
L 221.599709 155.916434 
L 222.412971 154.518081 
L 223.226234 154.73543 
L 224.039497 154.320151 
L 224.85276 154.351544 
L 226.479286 153.209054 
L 227.292549 152.79037 
L 228.105812 153.456559 
L 228.919075 152.224361 
L 229.732337 152.787739 
L 230.5456 151.026958 
L 231.358863 151.128878 
L 232.172126 150.963574 
L 232.985389 151.210092 
L 233.798652 150.881279 
L 234.611915 150.868997 
L 235.425178 149.611058 
L 236.238441 149.812483 
L 237.051703 149.033755 
L 237.864966 149.002969 
L 238.678229 148.006265 
L 239.491492 148.119528 
L 240.304755 147.940982 
L 241.118018 148.501223 
L 241.931281 148.295693 
L 242.744544 146.132221 
L 243.557807 147.191619 
L 244.371069 146.410915 
L 245.184332 147.099039 
L 245.997595 146.205985 
L 246.810858 144.010623 
L 247.624121 145.472013 
L 248.437384 145.389023 
L 249.250647 145.138417 
L 250.06391 144.453811 
L 250.877173 145.101403 
L 252.503698 143.731153 
L 253.316961 143.917018 
L 254.130224 143.182519 
L 254.943487 141.565953 
L 255.75675 142.619226 
L 256.570013 143.012038 
L 257.383276 142.276913 
L 258.196539 142.422909 
L 259.009801 142.091664 
L 259.823064 142.056649 
L 260.636327 140.825692 
L 261.44959 141.775367 
L 262.262853 141.215337 
L 263.076116 139.174299 
L 263.889379 140.819313 
L 264.702642 140.216949 
L 265.515905 140.388131 
L 267.14243 139.423565 
L 267.955693 139.47323 
L 268.768956 138.923688 
L 269.582219 138.863945 
L 270.395482 138.945381 
L 271.208745 137.358197 
L 272.022008 138.262464 
L 273.648533 137.987069 
L 274.461796 137.218908 
L 275.275059 138.444631 
L 276.088322 137.730034 
L 276.901585 136.381144 
L 277.714848 137.28357 
L 278.528111 136.690552 
L 279.341374 135.144832 
L 280.967899 136.490469 
L 281.781162 136.428762 
L 283.407688 136.073619 
L 284.220951 136.271884 
L 285.034214 135.634718 
L 285.847477 136.32558 
L 286.66074 134.987417 
L 287.474003 132.96029 
L 288.287265 134.567276 
L 289.100528 135.160552 
L 289.913791 134.798272 
L 290.727054 133.917487 
L 291.540317 134.040559 
L 292.35358 134.35742 
L 293.166843 133.30672 
L 293.980106 133.755842 
L 294.793369 133.94933 
L 295.606631 131.89232 
L 296.419894 132.844397 
L 297.233157 133.314985 
L 298.04642 132.96626 
L 298.859683 132.924335 
L 299.672946 132.669633 
L 300.486209 132.676199 
L 301.299472 132.897639 
L 302.112735 132.961991 
L 302.925997 132.219017 
L 303.73926 129.825445 
L 304.552523 131.591987 
L 305.365786 131.905526 
L 306.179049 131.816006 
L 306.992312 131.323123 
L 307.805575 131.099071 
L 308.618838 131.544162 
L 309.432101 131.403344 
L 310.245363 131.605851 
L 311.058626 131.6157 
L 311.871889 128.272797 
L 312.685152 129.532945 
L 313.498415 130.538426 
L 315.938204 129.991718 
L 318.377992 129.861146 
L 319.191255 129.496144 
L 320.004518 127.56395 
L 320.817781 128.875699 
L 322.444307 129.166263 
L 323.25757 130.005919 
L 324.070833 129.143068 
L 326.510621 128.944194 
L 327.323884 128.023389 
L 328.137147 126.333042 
L 328.95041 127.983012 
L 329.763673 128.393591 
L 330.576936 128.666133 
L 331.390199 127.96715 
L 332.203461 127.545515 
L 333.016724 127.916724 
L 333.829987 127.39146 
L 334.64325 127.633671 
L 335.456513 127.289501 
L 336.269776 124.598492 
L 337.083039 126.984715 
L 337.896302 127.806855 
L 338.709565 127.423834 
L 339.522827 127.461554 
L 340.33609 127.3587 
L 341.149353 126.829354 
L 341.962616 127.199818 
L 343.589142 127.2679 
L 344.402405 123.919717 
L 345.215668 126.41415 
L 346.028931 125.59055 
L 346.842193 126.166457 
L 347.655456 126.352808 
L 348.468719 126.193972 
L 349.281982 126.250965 
L 350.095245 125.659197 
L 350.908508 125.920293 
L 351.721771 125.546988 
L 352.535034 123.105 
L 353.348297 125.045406 
L 354.974822 125.048386 
L 355.788085 125.23141 
L 356.601348 125.70523 
L 357.414611 125.08624 
L 358.227874 124.960791 
L 359.041137 124.983837 
L 359.8544 124.806205 
L 360.667663 122.045581 
L 361.480925 123.709906 
L 362.294188 124.537297 
L 363.107451 124.833763 
L 363.920714 124.395556 
L 364.733977 124.649155 
L 365.54724 124.391783 
L 366.360503 125.145384 
L 367.173766 123.957475 
L 367.987029 123.733661 
L 368.800291 122.032408 
L 369.613554 123.609902 
L 370.426817 123.84971 
L 371.24008 124.409493 
L 372.053343 124.214129 
L 374.493132 123.092789 
L 375.306395 123.832419 
L 376.119657 123.988188 
L 376.93292 120.685905 
L 377.746183 122.782308 
L 378.559446 123.009858 
L 379.372709 122.946452 
L 380.185972 123.192644 
L 382.625761 123.476766 
L 383.439024 123.081954 
L 384.252286 123.334412 
L 385.065549 119.797421 
L 385.878812 121.951446 
L 386.692075 123.187508 
L 387.505338 122.797794 
L 388.318601 122.612933 
L 389.131864 123.0549 
L 389.945127 122.42532 
L 390.75839 122.576683 
L 391.571652 122.342189 
L 392.384915 123.099941 
L 393.198178 119.272529 
L 394.011441 121.704252 
L 395.637967 122.394426 
L 396.45123 122.374473 
L 397.264493 122.773112 
L 398.891018 122.346978 
L 399.704281 121.844244 
L 400.517544 122.543963 
L 401.330807 119.092395 
L 402.14407 120.821455 
L 402.957333 122.148332 
L 403.770596 121.382113 
L 404.583859 121.601595 
L 405.397122 121.425597 
L 406.210384 122.343556 
L 407.023647 121.791615 
L 407.83691 121.633323 
L 408.650173 121.866694 
L 409.463436 118.442344 
L 410.276699 120.543537 
L 411.089962 120.891906 
L 411.903225 121.592714 
L 412.716488 121.509159 
L 413.52975 121.170174 
L 414.343013 122.055176 
L 415.156276 121.11574 
L 415.969539 121.595703 
L 416.782802 122.227561 
L 417.596065 117.702782 
L 418.409328 120.705948 
L 419.222591 120.285633 
L 420.035854 121.273107 
L 420.849116 120.976669 
L 421.662379 121.076752 
L 422.475642 120.824455 
L 423.288905 121.289614 
L 424.102168 120.79721 
L 424.915431 121.068716 
L 425.728694 117.302992 
L 426.541957 119.779566 
L 427.35522 120.206605 
L 428.168482 120.414198 
L 428.981745 120.382169 
L 429.795008 120.738897 
L 430.608271 120.845507 
L 431.421534 121.214861 
L 432.234797 120.620888 
L 433.04806 120.508669 
L 433.861323 115.994148 
L 434.674586 118.966519 
L 435.487848 119.527121 
L 436.301111 120.450286 
L 437.114374 120.282029 
L 437.927637 119.809619 
L 439.554163 120.605555 
L 440.367426 120.179038 
L 441.180689 120.372122 
L 441.993952 116.570247 
L 442.807214 118.795041 
L 444.43374 120.345462 
L 445.247003 120.039558 
L 446.060266 119.893903 
L 446.873529 120.15139 
L 447.686792 120.713536 
L 448.500055 120.766272 
L 449.313318 121.003328 
L 450.12658 116.330068 
L 450.939843 118.376087 
L 451.753106 119.247993 
L 452.566369 119.507365 
L 453.379632 119.289535 
L 454.192895 120.193172 
L 455.006158 119.313561 
L 455.819421 119.973715 
L 456.632684 119.549368 
L 457.445946 119.935846 
L 458.259209 115.894913 
L 459.072472 117.881265 
L 459.885735 118.84659 
L 460.698998 119.322556 
L 461.512261 119.432995 
L 462.325524 119.23767 
L 463.138787 120.008229 
L 463.95205 119.621399 
L 464.765312 119.596553 
L 465.578575 120.02252 
L 466.391838 115.277145 
L 467.205101 117.912523 
L 468.018364 118.897743 
L 468.831627 119.5327 
L 469.64489 119.597181 
L 470.458153 119.827473 
L 471.271416 119.187489 
L 472.084678 119.486732 
L 472.897941 119.494343 
L 473.711204 120.338841 
L 474.524467 115.82682 
L 475.33773 117.639597 
L 476.150993 118.864575 
L 476.964256 118.931162 
L 477.777519 118.701738 
L 478.590782 119.184715 
L 479.404044 119.141957 
L 481.03057 120.037595 
L 481.843833 119.702821 
L 482.657096 115.852131 
L 483.470359 117.285984 
L 484.283622 118.014622 
L 485.096885 118.948825 
L 485.910148 119.519432 
L 486.72341 119.010261 
L 487.536673 119.142977 
L 488.349936 118.926612 
L 489.163199 119.447833 
L 489.976462 119.775553 
L 490.789725 115.783331 
L 491.602988 117.411964 
L 492.416251 117.602945 
L 493.229514 118.987158 
L 494.042776 118.658935 
L 494.856039 118.896878 
L 495.669302 118.769144 
L 496.482565 119.190914 
L 497.295828 119.739194 
L 498.109091 119.005674 
L 498.109091 119.005674 
" style="fill:none;stroke:#008000;stroke-linecap:square;stroke-width:1.5;"/>
   </g>
   <g id="patch_3">
    <path d="M 72 384.48 
L 72 51.84 
" style="fill:none;stroke:#000000;stroke-linecap:square;stroke-linejoin:miter;stroke-width:0.8;"/>
   </g>
   <g id="patch_4">
    <path d="M 518.4 384.48 
L 518.4 51.84 
" style="fill:none;stroke:#000000;stroke-linecap:square;stroke-linejoin:miter;stroke-width:0.8;"/>
   </g>
   <g id="patch_5">
    <path d="M 72 384.48 
L 518.4 384.48 
" style="fill:none;stroke:#000000;stroke-linecap:square;stroke-linejoin:miter;stroke-width:0.8;"/>
   </g>
   <g id="patch_6">
    <path d="M 72 51.84 
L 518.4 51.84 
" style="fill:none;stroke:#000000;stroke-linecap:square;stroke-linejoin:miter;stroke-width:0.8;"/>
   </g>
   <g id="legend_1">
    <g id="patch_7">
     <path d="M 79 89.19625 
L 156.107812 89.19625 
Q 158.107812 89.19625 158.107812 87.19625 
L 158.107812 58.84 
Q 158.107812 56.84 156.107812 56.84 
L 79 56.84 
Q 77 56.84 77 58.84 
L 77 87.19625 
Q 77 89.19625 79 89.19625 
z
" style="fill:#ffffff;opacity:0.8;stroke:#cccccc;stroke-linejoin:miter;"/>
    </g>
    <g id="line2d_15">
     <path d="M 81 64.938437 
L 101 64.938437 
" style="fill:none;stroke:#0000ff;stroke-linecap:square;stroke-width:1.5;"/>
    </g>
    <g id="line2d_16"/>
    <g id="text_15">
     <!-- precision -->
     <g transform="translate(109 68.438437)scale(0.1 -0.1)">
      <defs>
       <path d="M 9.421875 54.6875 
L 18.40625 54.6875 
L 18.40625 0 
L 9.421875 0 
z
M 9.421875 75.984375 
L 18.40625 75.984375 
L 18.40625 64.59375 
L 9.421875 64.59375 
z
" id="DejaVuSans-105"/>
       <path d="M 44.28125 53.078125 
L 44.28125 44.578125 
Q 40.484375 46.53125 36.375 47.5 
Q 32.28125 48.484375 27.875 48.484375 
Q 21.1875 48.484375 17.84375 46.4375 
Q 14.5 44.390625 14.5 40.28125 
Q 14.5 37.15625 16.890625 35.375 
Q 19.28125 33.59375 26.515625 31.984375 
L 29.59375 31.296875 
Q 39.15625 29.25 43.1875 25.515625 
Q 47.21875 21.78125 47.21875 15.09375 
Q 47.21875 7.46875 41.1875 3.015625 
Q 35.15625 -1.421875 24.609375 -1.421875 
Q 20.21875 -1.421875 15.453125 -0.5625 
Q 10.6875 0.296875 5.421875 2 
L 5.421875 11.28125 
Q 10.40625 8.6875 15.234375 7.390625 
Q 20.0625 6.109375 24.8125 6.109375 
Q 31.15625 6.109375 34.5625 8.28125 
Q 37.984375 10.453125 37.984375 14.40625 
Q 37.984375 18.0625 35.515625 20.015625 
Q 33.0625 21.96875 24.703125 23.78125 
L 21.578125 24.515625 
Q 13.234375 26.265625 9.515625 29.90625 
Q 5.8125 33.546875 5.8125 39.890625 
Q 5.8125 47.609375 11.28125 51.796875 
Q 16.75 56 26.8125 56 
Q 31.78125 56 36.171875 55.265625 
Q 40.578125 54.546875 44.28125 53.078125 
z
" id="DejaVuSans-115"/>
       <path d="M 54.890625 33.015625 
L 54.890625 0 
L 45.90625 0 
L 45.90625 32.71875 
Q 45.90625 40.484375 42.875 44.328125 
Q 39.84375 48.1875 33.796875 48.1875 
Q 26.515625 48.1875 22.3125 43.546875 
Q 18.109375 38.921875 18.109375 30.90625 
L 18.109375 0 
L 9.078125 0 
L 9.078125 54.6875 
L 18.109375 54.6875 
L 18.109375 46.1875 
Q 21.34375 51.125 25.703125 53.5625 
Q 30.078125 56 35.796875 56 
Q 45.21875 56 50.046875 50.171875 
Q 54.890625 44.34375 54.890625 33.015625 
z
" id="DejaVuSans-110"/>
      </defs>
      <use xlink:href="#DejaVuSans-112"/>
      <use x="63.476562" xlink:href="#DejaVuSans-114"/>
      <use x="102.339844" xlink:href="#DejaVuSans-101"/>
      <use x="163.863281" xlink:href="#DejaVuSans-99"/>
      <use x="218.84375" xlink:href="#DejaVuSans-105"/>
      <use x="246.626953" xlink:href="#DejaVuSans-115"/>
      <use x="298.726562" xlink:href="#DejaVuSans-105"/>
      <use x="326.509766" xlink:href="#DejaVuSans-111"/>
      <use x="387.691406" xlink:href="#DejaVuSans-110"/>
     </g>
    </g>
    <g id="line2d_17">
     <path d="M 81 79.616562 
L 101 79.616562 
" style="fill:none;stroke:#008000;stroke-linecap:square;stroke-width:1.5;"/>
    </g>
    <g id="line2d_18"/>
    <g id="text_16">
     <!-- recall -->
     <g transform="translate(109 83.116562)scale(0.1 -0.1)">
      <defs>
       <path d="M 9.421875 75.984375 
L 18.40625 75.984375 
L 18.40625 0 
L 9.421875 0 
z
" id="DejaVuSans-108"/>
      </defs>
      <use xlink:href="#DejaVuSans-114"/>
      <use x="38.863281" xlink:href="#DejaVuSans-101"/>
      <use x="100.386719" xlink:href="#DejaVuSans-99"/>
      <use x="155.367188" xlink:href="#DejaVuSans-97"/>
      <use x="216.646484" xlink:href="#DejaVuSans-108"/>
      <use x="244.429688" xlink:href="#DejaVuSans-108"/>
     </g>
    </g>
   </g>
  </g>
  <g id="axes_2">
   <g id="matplotlib.axis_3">
    <g id="ytick_7">
     <g id="line2d_19">
      <defs>
       <path d="M 0 0 
L 3.5 0 
" id="m0014682c3b" style="stroke:#000000;stroke-width:0.8;"/>
      </defs>
      <g>
       <use style="stroke:#000000;stroke-width:0.8;" x="518.4" xlink:href="#m0014682c3b" y="368.147002"/>
      </g>
     </g>
     <g id="text_17">
      <!-- 0.08 -->
      <g transform="translate(525.4 371.946221)scale(0.1 -0.1)">
       <use xlink:href="#DejaVuSans-48"/>
       <use x="63.623047" xlink:href="#DejaVuSans-46"/>
       <use x="95.410156" xlink:href="#DejaVuSans-48"/>
       <use x="159.033203" xlink:href="#DejaVuSans-56"/>
      </g>
     </g>
    </g>
    <g id="ytick_8">
     <g id="line2d_20">
      <g>
       <use style="stroke:#000000;stroke-width:0.8;" x="518.4" xlink:href="#m0014682c3b" y="326.586359"/>
      </g>
     </g>
     <g id="text_18">
      <!-- 0.10 -->
      <g transform="translate(525.4 330.385578)scale(0.1 -0.1)">
       <use xlink:href="#DejaVuSans-48"/>
       <use x="63.623047" xlink:href="#DejaVuSans-46"/>
       <use x="95.410156" xlink:href="#DejaVuSans-49"/>
       <use x="159.033203" xlink:href="#DejaVuSans-48"/>
      </g>
     </g>
    </g>
    <g id="ytick_9">
     <g id="line2d_21">
      <g>
       <use style="stroke:#000000;stroke-width:0.8;" x="518.4" xlink:href="#m0014682c3b" y="285.025716"/>
      </g>
     </g>
     <g id="text_19">
      <!-- 0.12 -->
      <g transform="translate(525.4 288.824934)scale(0.1 -0.1)">
       <use xlink:href="#DejaVuSans-48"/>
       <use x="63.623047" xlink:href="#DejaVuSans-46"/>
       <use x="95.410156" xlink:href="#DejaVuSans-49"/>
       <use x="159.033203" xlink:href="#DejaVuSans-50"/>
      </g>
     </g>
    </g>
    <g id="ytick_10">
     <g id="line2d_22">
      <g>
       <use style="stroke:#000000;stroke-width:0.8;" x="518.4" xlink:href="#m0014682c3b" y="243.465072"/>
      </g>
     </g>
     <g id="text_20">
      <!-- 0.14 -->
      <g transform="translate(525.4 247.264291)scale(0.1 -0.1)">
       <use xlink:href="#DejaVuSans-48"/>
       <use x="63.623047" xlink:href="#DejaVuSans-46"/>
       <use x="95.410156" xlink:href="#DejaVuSans-49"/>
       <use x="159.033203" xlink:href="#DejaVuSans-52"/>
      </g>
     </g>
    </g>
    <g id="ytick_11">
     <g id="line2d_23">
      <g>
       <use style="stroke:#000000;stroke-width:0.8;" x="518.4" xlink:href="#m0014682c3b" y="201.904429"/>
      </g>
     </g>
     <g id="text_21">
      <!-- 0.16 -->
      <g transform="translate(525.4 205.703648)scale(0.1 -0.1)">
       <use xlink:href="#DejaVuSans-48"/>
       <use x="63.623047" xlink:href="#DejaVuSans-46"/>
       <use x="95.410156" xlink:href="#DejaVuSans-49"/>
       <use x="159.033203" xlink:href="#DejaVuSans-54"/>
      </g>
     </g>
    </g>
    <g id="ytick_12">
     <g id="line2d_24">
      <g>
       <use style="stroke:#000000;stroke-width:0.8;" x="518.4" xlink:href="#m0014682c3b" y="160.343785"/>
      </g>
     </g>
     <g id="text_22">
      <!-- 0.18 -->
      <g transform="translate(525.4 164.143004)scale(0.1 -0.1)">
       <use xlink:href="#DejaVuSans-48"/>
       <use x="63.623047" xlink:href="#DejaVuSans-46"/>
       <use x="95.410156" xlink:href="#DejaVuSans-49"/>
       <use x="159.033203" xlink:href="#DejaVuSans-56"/>
      </g>
     </g>
    </g>
    <g id="ytick_13">
     <g id="line2d_25">
      <g>
       <use style="stroke:#000000;stroke-width:0.8;" x="518.4" xlink:href="#m0014682c3b" y="118.783142"/>
      </g>
     </g>
     <g id="text_23">
      <!-- 0.20 -->
      <g transform="translate(525.4 122.582361)scale(0.1 -0.1)">
       <use xlink:href="#DejaVuSans-48"/>
       <use x="63.623047" xlink:href="#DejaVuSans-46"/>
       <use x="95.410156" xlink:href="#DejaVuSans-50"/>
       <use x="159.033203" xlink:href="#DejaVuSans-48"/>
      </g>
     </g>
    </g>
    <g id="ytick_14">
     <g id="line2d_26">
      <g>
       <use style="stroke:#000000;stroke-width:0.8;" x="518.4" xlink:href="#m0014682c3b" y="77.222499"/>
      </g>
     </g>
     <g id="text_24">
      <!-- 0.22 -->
      <g transform="translate(525.4 81.021718)scale(0.1 -0.1)">
       <use xlink:href="#DejaVuSans-48"/>
       <use x="63.623047" xlink:href="#DejaVuSans-46"/>
       <use x="95.410156" xlink:href="#DejaVuSans-50"/>
       <use x="159.033203" xlink:href="#DejaVuSans-50"/>
      </g>
     </g>
    </g>
    <g id="text_25">
     <!-- loss -->
     <g transform="translate(559.264063 227.817812)rotate(-90)scale(0.1 -0.1)">
      <use xlink:href="#DejaVuSans-108"/>
      <use x="27.783203" xlink:href="#DejaVuSans-111"/>
      <use x="88.964844" xlink:href="#DejaVuSans-115"/>
      <use x="141.064453" xlink:href="#DejaVuSans-115"/>
     </g>
    </g>
   </g>
   <g id="line2d_27">
    <path clip-path="url(#pe5680796bf)" d="M 92.290909 66.96 
L 93.104172 92.054808 
L 93.917435 101.40487 
L 94.730698 108.547178 
L 95.543961 114.631162 
L 97.983749 128.823998 
L 99.610275 136.769979 
L 100.423538 149.392745 
L 102.050064 156.778535 
L 103.67659 163.309137 
L 104.489852 166.208479 
L 105.303115 169.727826 
L 107.742904 178.205546 
L 108.556167 178.417373 
L 109.36943 181.841124 
L 110.182693 184.756193 
L 110.995956 187.074397 
L 112.622481 192.417273 
L 113.435744 194.737404 
L 115.06227 199.758577 
L 115.875533 202.405463 
L 116.688796 202.501241 
L 117.502059 205.430644 
L 124.008162 223.431935 
L 124.821425 223.447529 
L 125.634688 226.321676 
L 126.44795 228.097668 
L 128.887739 234.225175 
L 132.140791 241.755833 
L 132.954054 241.764059 
L 133.767316 244.308557 
L 135.393842 247.382635 
L 137.020368 250.983543 
L 137.833631 252.520091 
L 138.646894 253.537273 
L 139.460157 255.26249 
L 140.27342 256.702518 
L 141.086682 256.946465 
L 143.526471 261.242857 
L 145.152997 263.534041 
L 145.96626 264.903321 
L 146.779523 265.996455 
L 147.592786 266.783063 
L 148.406048 268.121174 
L 149.219311 268.375355 
L 150.032574 269.95848 
L 150.845837 270.729767 
L 151.6591 272.254332 
L 152.472363 272.950689 
L 154.098889 274.965534 
L 154.912152 275.678229 
L 155.725414 276.759609 
L 156.538677 277.531938 
L 157.35194 277.48998 
L 158.165203 278.98061 
L 158.978466 280.057792 
L 159.791729 280.554019 
L 160.604992 282.496718 
L 161.418255 283.139418 
L 162.231518 283.501572 
L 163.04478 285.098624 
L 163.858043 285.559738 
L 164.671306 286.340502 
L 165.484569 286.433102 
L 166.297832 288.12491 
L 167.111095 288.801262 
L 168.737621 290.702979 
L 169.550884 291.380121 
L 170.364146 292.349533 
L 171.177409 292.850729 
L 172.803935 294.514443 
L 173.617198 294.238933 
L 174.430461 303.213893 
L 175.243724 306.303555 
L 176.056987 308.289861 
L 176.87025 309.092005 
L 177.683512 310.735267 
L 178.496775 311.419939 
L 179.310038 312.626951 
L 180.123301 312.993937 
L 180.936564 313.755182 
L 181.749827 311.820007 
L 182.56309 315.050879 
L 183.376353 315.342061 
L 184.189616 316.40345 
L 185.002878 316.609218 
L 185.816141 317.436368 
L 188.25593 319.09129 
L 189.069193 320.071018 
L 189.882456 317.377465 
L 190.695719 320.437755 
L 191.508982 321.510685 
L 192.322244 321.590141 
L 193.135507 322.666645 
L 193.94877 322.994764 
L 194.762033 322.939222 
L 196.388559 324.39482 
L 197.201822 324.517503 
L 198.015085 322.262325 
L 198.828348 325.023125 
L 199.64161 325.81852 
L 200.454873 326.855252 
L 201.268136 326.928285 
L 202.894662 327.680186 
L 203.707925 328.414995 
L 204.521188 328.452832 
L 205.334451 329.147164 
L 206.147714 326.376581 
L 206.960976 329.505693 
L 207.774239 329.766739 
L 208.587502 330.188817 
L 209.400765 330.7493 
L 210.214028 331.792254 
L 211.027291 331.788004 
L 212.653817 332.68097 
L 213.46708 332.454575 
L 214.280343 330.273212 
L 215.093605 332.934764 
L 215.906868 333.595051 
L 217.533394 334.1197 
L 218.346657 334.79845 
L 219.15992 334.794409 
L 219.973183 335.480936 
L 220.786446 335.719037 
L 221.599709 336.143487 
L 222.412971 333.056913 
L 223.226234 336.665722 
L 224.039497 337.308462 
L 224.85276 337.245093 
L 226.479286 338.247358 
L 227.292549 338.522731 
L 228.105812 338.409468 
L 228.919075 339.104828 
L 229.732337 338.95521 
L 230.5456 335.49369 
L 231.358863 339.66888 
L 232.172126 339.995881 
L 232.985389 339.970565 
L 233.798652 340.132334 
L 235.425178 341.342391 
L 236.238441 341.380696 
L 237.051703 342.195866 
L 237.864966 342.053745 
L 238.678229 338.119393 
L 239.491492 342.282666 
L 240.304755 342.878014 
L 241.118018 342.71369 
L 241.931281 342.829682 
L 242.744544 344.115633 
L 243.557807 343.772278 
L 244.371069 344.199467 
L 245.184332 344.092984 
L 245.997595 344.796081 
L 246.810858 340.504054 
L 247.624121 344.610963 
L 248.437384 344.752898 
L 249.250647 345.385813 
L 250.06391 345.856167 
L 250.877173 345.598928 
L 252.503698 346.575082 
L 253.316961 346.780502 
L 254.130224 347.111479 
L 254.943487 342.35107 
L 255.75675 347.009443 
L 256.570013 347.262773 
L 257.383276 347.808485 
L 259.823064 348.518305 
L 260.636327 349.0874 
L 261.44959 348.635261 
L 262.262853 348.907966 
L 263.076116 344.095731 
L 263.889379 348.907261 
L 264.702642 349.579937 
L 265.515905 349.553154 
L 266.329167 350.309047 
L 267.14243 350.410349 
L 267.955693 350.902479 
L 270.395482 351.065564 
L 271.208745 345.399047 
L 272.022008 350.912395 
L 272.835271 351.497543 
L 274.461796 352.220866 
L 275.275059 351.633141 
L 276.088322 352.312985 
L 276.901585 353.196088 
L 277.714848 352.68193 
L 278.528111 353.026896 
L 279.341374 346.616445 
L 280.154637 352.740372 
L 280.967899 353.068596 
L 282.594425 353.533295 
L 283.407688 353.81852 
L 284.220951 353.559294 
L 285.034214 353.995054 
L 285.847477 353.934608 
L 286.66074 354.464443 
L 287.474003 348.247076 
L 288.287265 354.145647 
L 289.100528 354.265797 
L 290.727054 355.499239 
L 291.540317 355.255406 
L 292.35358 355.609703 
L 293.166843 356.164432 
L 294.793369 355.709988 
L 295.606631 348.964815 
L 296.419894 355.502495 
L 297.233157 355.872839 
L 298.04642 356.388051 
L 298.859683 356.495586 
L 299.672946 356.849416 
L 300.486209 356.788885 
L 302.112735 357.004141 
L 302.925997 357.313092 
L 303.73926 349.868387 
L 304.552523 357.034492 
L 305.365786 357.222908 
L 306.179049 357.532824 
L 306.992312 357.993208 
L 307.805575 358.19936 
L 311.058626 358.30732 
L 311.871889 350.43316 
L 312.685152 358.181713 
L 313.498415 358.352279 
L 314.311678 358.91073 
L 315.124941 359.105268 
L 315.938204 359.548458 
L 316.751467 359.714803 
L 317.564729 359.574565 
L 319.191255 360.102125 
L 320.004518 350.941133 
L 320.817781 359.054951 
L 321.631044 359.611475 
L 322.444307 359.951786 
L 323.25757 359.926336 
L 324.884095 360.498403 
L 325.697358 360.790344 
L 326.510621 360.638543 
L 327.323884 361.308144 
L 328.137147 350.917687 
L 328.95041 360.05805 
L 329.763673 360.461953 
L 330.576936 360.552964 
L 331.390199 361.312691 
L 332.203461 361.618334 
L 333.016724 361.261458 
L 333.829987 361.821961 
L 334.64325 361.676445 
L 335.456513 362.173633 
L 336.269776 351.720094 
L 337.083039 360.592091 
L 338.709565 361.534481 
L 339.522827 361.957089 
L 341.962616 362.535358 
L 342.775879 362.419873 
L 343.589142 362.580187 
L 344.402405 351.448946 
L 345.215668 361.180538 
L 346.028931 362.568435 
L 346.842193 362.551545 
L 347.655456 362.66705 
L 348.468719 363.161696 
L 349.281982 363.185445 
L 350.095245 363.595068 
L 350.908508 363.63026 
L 351.721771 364.05032 
L 352.535034 351.702038 
L 353.348297 362.249277 
L 354.161559 363.364563 
L 354.974822 363.648211 
L 355.788085 363.758278 
L 356.601348 363.52247 
L 357.414611 364.088058 
L 358.227874 364.315935 
L 359.041137 364.35729 
L 359.8544 364.539909 
L 360.667663 351.512119 
L 361.480925 363.04291 
L 363.107451 363.858701 
L 363.920714 364.491201 
L 364.733977 364.518942 
L 365.54724 364.799942 
L 366.360503 364.578872 
L 367.173766 365.292065 
L 367.987029 365.404778 
L 368.800291 350.8176 
L 369.613554 363.261233 
L 370.426817 364.305951 
L 371.24008 364.318361 
L 372.053343 364.843328 
L 372.866606 364.977117 
L 373.679869 365.366844 
L 374.493132 365.913136 
L 375.306395 365.518683 
L 376.119657 365.60206 
L 376.93292 351.028112 
L 377.746183 363.875151 
L 378.559446 364.75314 
L 379.372709 365.365561 
L 381.812498 365.854379 
L 382.625761 365.822618 
L 383.439024 366.167261 
L 384.252286 366.162343 
L 385.065549 350.636408 
L 385.878812 364.112749 
L 387.505338 365.603262 
L 388.318601 365.981896 
L 389.131864 366.155635 
L 389.945127 366.723225 
L 390.75839 366.418105 
L 391.571652 366.776349 
L 392.384915 366.398685 
L 393.198178 349.828451 
L 394.011441 364.319518 
L 394.824704 365.630396 
L 396.45123 366.41747 
L 397.264493 366.400033 
L 398.077756 366.519661 
L 398.891018 366.976275 
L 399.704281 367.239444 
L 400.517544 367.140255 
L 401.330807 349.18085 
L 402.14407 364.777175 
L 402.957333 365.406453 
L 403.770596 366.659954 
L 405.397122 367.18206 
L 406.210384 366.974762 
L 407.023647 367.330507 
L 407.83691 367.554093 
L 408.650173 367.545484 
L 409.463436 348.269864 
L 410.276699 364.849212 
L 411.089962 366.176337 
L 411.903225 366.869191 
L 412.716488 367.051576 
L 413.52975 367.365729 
L 414.343013 367.3243 
L 415.156276 367.684102 
L 415.969539 367.651981 
L 416.782802 367.3826 
L 417.596065 348.051791 
L 418.409328 364.333262 
L 419.222591 366.521596 
L 420.849116 367.472548 
L 421.662379 367.639081 
L 422.475642 368.12455 
L 423.288905 367.843405 
L 424.102168 368.276693 
L 424.915431 368.241154 
L 425.728694 346.719301 
L 426.541957 364.636446 
L 427.35522 366.592841 
L 428.981745 367.869764 
L 429.795008 367.725367 
L 430.608271 368.23043 
L 431.421534 367.879968 
L 433.04806 368.494849 
L 433.861323 346.511223 
L 434.674586 364.921335 
L 435.487848 366.653292 
L 436.301111 367.091504 
L 437.114374 367.755176 
L 437.927637 368.227508 
L 438.7409 368.502565 
L 439.554163 368.312096 
L 440.367426 368.731231 
L 441.180689 368.593884 
L 441.993952 344.62484 
L 442.807214 364.808975 
L 443.620477 366.519754 
L 446.060266 368.433946 
L 446.873529 368.432835 
L 447.686792 368.232029 
L 449.313318 368.569925 
L 450.12658 343.664752 
L 450.939843 364.475169 
L 451.753106 366.604581 
L 452.566369 367.541445 
L 453.379632 368.203291 
L 454.192895 368.125052 
L 455.006158 368.856717 
L 455.819421 368.833984 
L 457.445946 369.071904 
L 458.259209 342.217462 
L 459.072472 364.382294 
L 459.885735 366.772139 
L 461.512261 368.18672 
L 462.325524 368.65749 
L 463.138787 368.694953 
L 463.95205 368.980251 
L 465.578575 369.0242 
L 466.391838 341.132647 
L 467.205101 364.257144 
L 468.018364 366.391347 
L 469.64489 368.024352 
L 470.458153 368.233713 
L 471.271416 368.873616 
L 472.084678 369.004322 
L 472.897941 369.341498 
L 473.711204 368.951296 
L 474.524467 338.840496 
L 475.33773 363.625282 
L 476.150993 365.977886 
L 476.964256 367.433258 
L 477.777519 368.509524 
L 478.590782 368.353179 
L 479.404044 368.748418 
L 480.217307 368.956651 
L 481.03057 368.783474 
L 481.843833 369.36 
L 482.657096 337.710966 
L 483.470359 363.355268 
L 484.283622 366.209807 
L 485.096885 367.104054 
L 487.536673 368.91756 
L 488.349936 369.067946 
L 489.163199 368.957331 
L 489.976462 369.287361 
L 490.789725 335.383751 
L 491.602988 362.534922 
L 492.416251 366.193767 
L 493.229514 366.888944 
L 494.042776 368.000506 
L 495.669302 368.693517 
L 497.295828 368.786261 
L 498.109091 369.356777 
L 498.109091 369.356777 
" style="fill:none;stroke:#ff0000;stroke-linecap:square;stroke-width:1.5;"/>
   </g>
   <g id="patch_8">
    <path d="M 72 384.48 
L 72 51.84 
" style="fill:none;stroke:#000000;stroke-linecap:square;stroke-linejoin:miter;stroke-width:0.8;"/>
   </g>
   <g id="patch_9">
    <path d="M 518.4 384.48 
L 518.4 51.84 
" style="fill:none;stroke:#000000;stroke-linecap:square;stroke-linejoin:miter;stroke-width:0.8;"/>
   </g>
   <g id="patch_10">
    <path d="M 72 384.48 
L 518.4 384.48 
" style="fill:none;stroke:#000000;stroke-linecap:square;stroke-linejoin:miter;stroke-width:0.8;"/>
   </g>
   <g id="patch_11">
    <path d="M 72 51.84 
L 518.4 51.84 
" style="fill:none;stroke:#000000;stroke-linecap:square;stroke-linejoin:miter;stroke-width:0.8;"/>
   </g>
   <g id="text_26">
    <!-- The learning curve on _non_iid_agg/guest/2 -->
    <g transform="translate(160.74375 45.84)scale(0.12 -0.12)">
     <defs>
      <path d="M -0.296875 72.90625 
L 61.375 72.90625 
L 61.375 64.59375 
L 35.5 64.59375 
L 35.5 0 
L 25.59375 0 
L 25.59375 64.59375 
L -0.296875 64.59375 
z
" id="DejaVuSans-84"/>
      <path id="DejaVuSans-32"/>
      <path d="M 45.40625 27.984375 
Q 45.40625 37.75 41.375 43.109375 
Q 37.359375 48.484375 30.078125 48.484375 
Q 22.859375 48.484375 18.828125 43.109375 
Q 14.796875 37.75 14.796875 27.984375 
Q 14.796875 18.265625 18.828125 12.890625 
Q 22.859375 7.515625 30.078125 7.515625 
Q 37.359375 7.515625 41.375 12.890625 
Q 45.40625 18.265625 45.40625 27.984375 
z
M 54.390625 6.78125 
Q 54.390625 -7.171875 48.1875 -13.984375 
Q 42 -20.796875 29.203125 -20.796875 
Q 24.46875 -20.796875 20.265625 -20.09375 
Q 16.0625 -19.390625 12.109375 -17.921875 
L 12.109375 -9.1875 
Q 16.0625 -11.328125 19.921875 -12.34375 
Q 23.78125 -13.375 27.78125 -13.375 
Q 36.625 -13.375 41.015625 -8.765625 
Q 45.40625 -4.15625 45.40625 5.171875 
L 45.40625 9.625 
Q 42.625 4.78125 38.28125 2.390625 
Q 33.9375 0 27.875 0 
Q 17.828125 0 11.671875 7.65625 
Q 5.515625 15.328125 5.515625 27.984375 
Q 5.515625 40.671875 11.671875 48.328125 
Q 17.828125 56 27.875 56 
Q 33.9375 56 38.28125 53.609375 
Q 42.625 51.21875 45.40625 46.390625 
L 45.40625 54.6875 
L 54.390625 54.6875 
z
" id="DejaVuSans-103"/>
      <path d="M 8.5 21.578125 
L 8.5 54.6875 
L 17.484375 54.6875 
L 17.484375 21.921875 
Q 17.484375 14.15625 20.5 10.265625 
Q 23.53125 6.390625 29.59375 6.390625 
Q 36.859375 6.390625 41.078125 11.03125 
Q 45.3125 15.671875 45.3125 23.6875 
L 45.3125 54.6875 
L 54.296875 54.6875 
L 54.296875 0 
L 45.3125 0 
L 45.3125 8.40625 
Q 42.046875 3.421875 37.71875 1 
Q 33.40625 -1.421875 27.6875 -1.421875 
Q 18.265625 -1.421875 13.375 4.4375 
Q 8.5 10.296875 8.5 21.578125 
z
M 31.109375 56 
z
" id="DejaVuSans-117"/>
      <path d="M 2.984375 54.6875 
L 12.5 54.6875 
L 29.59375 8.796875 
L 46.6875 54.6875 
L 56.203125 54.6875 
L 35.6875 0 
L 23.484375 0 
z
" id="DejaVuSans-118"/>
      <path d="M 30.953125 67.4375 
L 56.203125 0 
L 46.6875 0 
L 31.34375 40.4375 
L 12.5 0 
L 2.984375 0 
L 26.953125 52.4375 
L 23.34375 62.109375 
Q 21.046875 68.265625 15.828125 68.265625 
L 11.140625 68.265625 
L 11.140625 75.984375 
L 16.84375 75.875 
Q 27.875 75.734375 30.953125 67.4375 
z
" id="DejaVuSans-955"/>
      <path d="M 50.984375 -16.609375 
L 50.984375 -23.578125 
L -0.984375 -23.578125 
L -0.984375 -16.609375 
z
" id="DejaVuSans-95"/>
      <path d="M 45.40625 46.390625 
L 45.40625 75.984375 
L 54.390625 75.984375 
L 54.390625 0 
L 45.40625 0 
L 45.40625 8.203125 
Q 42.578125 3.328125 38.25 0.953125 
Q 33.9375 -1.421875 27.875 -1.421875 
Q 17.96875 -1.421875 11.734375 6.484375 
Q 5.515625 14.40625 5.515625 27.296875 
Q 5.515625 40.1875 11.734375 48.09375 
Q 17.96875 56 27.875 56 
Q 33.9375 56 38.25 53.625 
Q 42.578125 51.265625 45.40625 46.390625 
z
M 14.796875 27.296875 
Q 14.796875 17.390625 18.875 11.75 
Q 22.953125 6.109375 30.078125 6.109375 
Q 37.203125 6.109375 41.296875 11.75 
Q 45.40625 17.390625 45.40625 27.296875 
Q 45.40625 37.203125 41.296875 42.84375 
Q 37.203125 48.484375 30.078125 48.484375 
Q 22.953125 48.484375 18.875 42.84375 
Q 14.796875 37.203125 14.796875 27.296875 
z
" id="DejaVuSans-100"/>
      <path d="M 25.390625 72.90625 
L 33.6875 72.90625 
L 8.296875 -9.28125 
L 0 -9.28125 
z
" id="DejaVuSans-47"/>
     </defs>
     <use xlink:href="#DejaVuSans-84"/>
     <use x="61.083984" xlink:href="#DejaVuSans-104"/>
     <use x="124.462891" xlink:href="#DejaVuSans-101"/>
     <use x="185.986328" xlink:href="#DejaVuSans-32"/>
     <use x="217.773438" xlink:href="#DejaVuSans-108"/>
     <use x="245.556641" xlink:href="#DejaVuSans-101"/>
     <use x="307.080078" xlink:href="#DejaVuSans-97"/>
     <use x="368.359375" xlink:href="#DejaVuSans-114"/>
     <use x="407.722656" xlink:href="#DejaVuSans-110"/>
     <use x="471.101562" xlink:href="#DejaVuSans-105"/>
     <use x="498.884766" xlink:href="#DejaVuSans-110"/>
     <use x="562.263672" xlink:href="#DejaVuSans-103"/>
     <use x="625.740234" xlink:href="#DejaVuSans-32"/>
     <use x="657.527344" xlink:href="#DejaVuSans-99"/>
     <use x="712.507812" xlink:href="#DejaVuSans-117"/>
     <use x="775.886719" xlink:href="#DejaVuSans-114"/>
     <use x="817" xlink:href="#DejaVuSans-118"/>
     <use x="876.179688" xlink:href="#DejaVuSans-101"/>
     <use x="937.703125" xlink:href="#DejaVuSans-32"/>
     <use x="969.490234" xlink:href="#DejaVuSans-111"/>
     <use x="1030.671875" xlink:href="#DejaVuSans-110"/>
     <use x="1094.050781" xlink:href="#DejaVuSans-32"/>
     <use x="1125.837891" xlink:href="#DejaVuSans-955"/>
     <use x="1185.017578" xlink:href="#DejaVuSans-95"/>
     <use x="1235.017578" xlink:href="#DejaVuSans-110"/>
     <use x="1298.396484" xlink:href="#DejaVuSans-111"/>
     <use x="1359.578125" xlink:href="#DejaVuSans-110"/>
     <use x="1422.957031" xlink:href="#DejaVuSans-95"/>
     <use x="1472.957031" xlink:href="#DejaVuSans-105"/>
     <use x="1500.740234" xlink:href="#DejaVuSans-105"/>
     <use x="1528.523438" xlink:href="#DejaVuSans-100"/>
     <use x="1592" xlink:href="#DejaVuSans-95"/>
     <use x="1642" xlink:href="#DejaVuSans-97"/>
     <use x="1703.279297" xlink:href="#DejaVuSans-103"/>
     <use x="1766.755859" xlink:href="#DejaVuSans-103"/>
     <use x="1830.232422" xlink:href="#DejaVuSans-47"/>
     <use x="1863.923828" xlink:href="#DejaVuSans-103"/>
     <use x="1927.400391" xlink:href="#DejaVuSans-117"/>
     <use x="1990.779297" xlink:href="#DejaVuSans-101"/>
     <use x="2052.302734" xlink:href="#DejaVuSans-115"/>
     <use x="2104.402344" xlink:href="#DejaVuSans-116"/>
     <use x="2143.611328" xlink:href="#DejaVuSans-47"/>
     <use x="2177.302734" xlink:href="#DejaVuSans-50"/>
    </g>
   </g>
   <g id="legend_2">
    <g id="patch_12">
     <path d="M 460.084375 74.518125 
L 511.4 74.518125 
Q 513.4 74.518125 513.4 72.518125 
L 513.4 58.84 
Q 513.4 56.84 511.4 56.84 
L 460.084375 56.84 
Q 458.084375 56.84 458.084375 58.84 
L 458.084375 72.518125 
Q 458.084375 74.518125 460.084375 74.518125 
z
" style="fill:#ffffff;opacity:0.8;stroke:#cccccc;stroke-linejoin:miter;"/>
    </g>
    <g id="line2d_28">
     <path d="M 462.084375 64.938438 
L 482.084375 64.938438 
" style="fill:none;stroke:#ff0000;stroke-linecap:square;stroke-width:1.5;"/>
    </g>
    <g id="line2d_29"/>
    <g id="text_27">
     <!-- loss -->
     <g transform="translate(490.084375 68.438438)scale(0.1 -0.1)">
      <use xlink:href="#DejaVuSans-108"/>
      <use x="27.783203" xlink:href="#DejaVuSans-111"/>
      <use x="88.964844" xlink:href="#DejaVuSans-115"/>
      <use x="141.064453" xlink:href="#DejaVuSans-115"/>
     </g>
    </g>
   </g>
  </g>
 </g>
 <defs>
  <clipPath id="pe5680796bf">
   <rect height="332.64" width="446.4" x="72" y="51.84"/>
  </clipPath>
 </defs>
</svg>
