<?xml version="1.0" encoding="utf-8" standalone="no"?>
<!DOCTYPE svg PUBLIC "-//W3C//DTD SVG 1.1//EN"
  "http://www.w3.org/Graphics/SVG/1.1/DTD/svg11.dtd">
<svg xmlns:xlink="http://www.w3.org/1999/xlink" width="576pt" height="432pt" viewBox="0 0 576 432" xmlns="http://www.w3.org/2000/svg" version="1.1">
 <metadata>
  <rdf:RDF xmlns:dc="http://purl.org/dc/elements/1.1/" xmlns:cc="http://creativecommons.org/ns#" xmlns:rdf="http://www.w3.org/1999/02/22-rdf-syntax-ns#">
   <cc:Work>
    <dc:type rdf:resource="http://purl.org/dc/dcmitype/StillImage"/>
    <dc:date>2023-10-19T23:28:35.337280</dc:date>
    <dc:format>image/svg+xml</dc:format>
    <dc:creator>
     <cc:Agent>
      <dc:title>Matplotlib v3.7.1, https://matplotlib.org/</dc:title>
     </cc:Agent>
    </dc:creator>
   </cc:Work>
  </rdf:RDF>
 </metadata>
 <defs>
  <style type="text/css">*{stroke-linejoin: round; stroke-linecap: butt}</style>
 </defs>
 <g id="figure_1">
  <g id="patch_1">
   <path d="M 0 432 
L 576 432 
L 576 0 
L 0 0 
z
" style="fill: #ffffff"/>
  </g>
  <g id="axes_1">
   <g id="patch_2">
    <path d="M 72 384.48 
L 518.4 384.48 
L 518.4 51.84 
L 72 51.84 
z
" style="fill: #ffffff"/>
   </g>
   <g id="matplotlib.axis_1">
    <g id="xtick_1">
     <g id="line2d_1">
      <defs>
       <path id="m193d157aa8" d="M 0 0 
L 0 3.5 
" style="stroke: #000000; stroke-width: 0.8"/>
      </defs>
      <g>
       <use xlink:href="#m193d157aa8" x="92.290909" y="384.48" style="stroke: #000000; stroke-width: 0.8"/>
      </g>
     </g>
     <g id="text_1">
      <!-- 0 -->
      <g transform="translate(89.109659 399.078438) scale(0.1 -0.1)">
       <defs>
        <path id="DejaVuSans-30" d="M 2034 4250 
Q 1547 4250 1301 3770 
Q 1056 3291 1056 2328 
Q 1056 1369 1301 889 
Q 1547 409 2034 409 
Q 2525 409 2770 889 
Q 3016 1369 3016 2328 
Q 3016 3291 2770 3770 
Q 2525 4250 2034 4250 
z
M 2034 4750 
Q 2819 4750 3233 4129 
Q 3647 3509 3647 2328 
Q 3647 1150 3233 529 
Q 2819 -91 2034 -91 
Q 1250 -91 836 529 
Q 422 1150 422 2328 
Q 422 3509 836 4129 
Q 1250 4750 2034 4750 
z
" transform="scale(0.015625)"/>
       </defs>
       <use xlink:href="#DejaVuSans-30"/>
      </g>
     </g>
    </g>
    <g id="xtick_2">
     <g id="line2d_2">
      <g>
       <use xlink:href="#m193d157aa8" x="143.273093" y="384.48" style="stroke: #000000; stroke-width: 0.8"/>
      </g>
     </g>
     <g id="text_2">
      <!-- 25 -->
      <g transform="translate(136.910593 399.078438) scale(0.1 -0.1)">
       <defs>
        <path id="DejaVuSans-32" d="M 1228 531 
L 3431 531 
L 3431 0 
L 469 0 
L 469 531 
Q 828 903 1448 1529 
Q 2069 2156 2228 2338 
Q 2531 2678 2651 2914 
Q 2772 3150 2772 3378 
Q 2772 3750 2511 3984 
Q 2250 4219 1831 4219 
Q 1534 4219 1204 4116 
Q 875 4013 500 3803 
L 500 4441 
Q 881 4594 1212 4672 
Q 1544 4750 1819 4750 
Q 2544 4750 2975 4387 
Q 3406 4025 3406 3419 
Q 3406 3131 3298 2873 
Q 3191 2616 2906 2266 
Q 2828 2175 2409 1742 
Q 1991 1309 1228 531 
z
" transform="scale(0.015625)"/>
        <path id="DejaVuSans-35" d="M 691 4666 
L 3169 4666 
L 3169 4134 
L 1269 4134 
L 1269 2991 
Q 1406 3038 1543 3061 
Q 1681 3084 1819 3084 
Q 2600 3084 3056 2656 
Q 3513 2228 3513 1497 
Q 3513 744 3044 326 
Q 2575 -91 1722 -91 
Q 1428 -91 1123 -41 
Q 819 9 494 109 
L 494 744 
Q 775 591 1075 516 
Q 1375 441 1709 441 
Q 2250 441 2565 725 
Q 2881 1009 2881 1497 
Q 2881 1984 2565 2268 
Q 2250 2553 1709 2553 
Q 1456 2553 1204 2497 
Q 953 2441 691 2322 
L 691 4666 
z
" transform="scale(0.015625)"/>
       </defs>
       <use xlink:href="#DejaVuSans-32"/>
       <use xlink:href="#DejaVuSans-35" x="63.623047"/>
      </g>
     </g>
    </g>
    <g id="xtick_3">
     <g id="line2d_3">
      <g>
       <use xlink:href="#m193d157aa8" x="194.255276" y="384.48" style="stroke: #000000; stroke-width: 0.8"/>
      </g>
     </g>
     <g id="text_3">
      <!-- 50 -->
      <g transform="translate(187.892776 399.078438) scale(0.1 -0.1)">
       <use xlink:href="#DejaVuSans-35"/>
       <use xlink:href="#DejaVuSans-30" x="63.623047"/>
      </g>
     </g>
    </g>
    <g id="xtick_4">
     <g id="line2d_4">
      <g>
       <use xlink:href="#m193d157aa8" x="245.23746" y="384.48" style="stroke: #000000; stroke-width: 0.8"/>
      </g>
     </g>
     <g id="text_4">
      <!-- 75 -->
      <g transform="translate(238.87496 399.078438) scale(0.1 -0.1)">
       <defs>
        <path id="DejaVuSans-37" d="M 525 4666 
L 3525 4666 
L 3525 4397 
L 1831 0 
L 1172 0 
L 2766 4134 
L 525 4134 
L 525 4666 
z
" transform="scale(0.015625)"/>
       </defs>
       <use xlink:href="#DejaVuSans-37"/>
       <use xlink:href="#DejaVuSans-35" x="63.623047"/>
      </g>
     </g>
    </g>
    <g id="xtick_5">
     <g id="line2d_5">
      <g>
       <use xlink:href="#m193d157aa8" x="296.219644" y="384.48" style="stroke: #000000; stroke-width: 0.8"/>
      </g>
     </g>
     <g id="text_5">
      <!-- 100 -->
      <g transform="translate(286.675894 399.078438) scale(0.1 -0.1)">
       <defs>
        <path id="DejaVuSans-31" d="M 794 531 
L 1825 531 
L 1825 4091 
L 703 3866 
L 703 4441 
L 1819 4666 
L 2450 4666 
L 2450 531 
L 3481 531 
L 3481 0 
L 794 0 
L 794 531 
z
" transform="scale(0.015625)"/>
       </defs>
       <use xlink:href="#DejaVuSans-31"/>
       <use xlink:href="#DejaVuSans-30" x="63.623047"/>
       <use xlink:href="#DejaVuSans-30" x="127.246094"/>
      </g>
     </g>
    </g>
    <g id="xtick_6">
     <g id="line2d_6">
      <g>
       <use xlink:href="#m193d157aa8" x="347.201827" y="384.48" style="stroke: #000000; stroke-width: 0.8"/>
      </g>
     </g>
     <g id="text_6">
      <!-- 125 -->
      <g transform="translate(337.658077 399.078438) scale(0.1 -0.1)">
       <use xlink:href="#DejaVuSans-31"/>
       <use xlink:href="#DejaVuSans-32" x="63.623047"/>
       <use xlink:href="#DejaVuSans-35" x="127.246094"/>
      </g>
     </g>
    </g>
    <g id="xtick_7">
     <g id="line2d_7">
      <g>
       <use xlink:href="#m193d157aa8" x="398.184011" y="384.48" style="stroke: #000000; stroke-width: 0.8"/>
      </g>
     </g>
     <g id="text_7">
      <!-- 150 -->
      <g transform="translate(388.640261 399.078438) scale(0.1 -0.1)">
       <use xlink:href="#DejaVuSans-31"/>
       <use xlink:href="#DejaVuSans-35" x="63.623047"/>
       <use xlink:href="#DejaVuSans-30" x="127.246094"/>
      </g>
     </g>
    </g>
    <g id="xtick_8">
     <g id="line2d_8">
      <g>
       <use xlink:href="#m193d157aa8" x="449.166195" y="384.48" style="stroke: #000000; stroke-width: 0.8"/>
      </g>
     </g>
     <g id="text_8">
      <!-- 175 -->
      <g transform="translate(439.622445 399.078438) scale(0.1 -0.1)">
       <use xlink:href="#DejaVuSans-31"/>
       <use xlink:href="#DejaVuSans-37" x="63.623047"/>
       <use xlink:href="#DejaVuSans-35" x="127.246094"/>
      </g>
     </g>
    </g>
    <g id="xtick_9">
     <g id="line2d_9">
      <g>
       <use xlink:href="#m193d157aa8" x="500.148378" y="384.48" style="stroke: #000000; stroke-width: 0.8"/>
      </g>
     </g>
     <g id="text_9">
      <!-- 200 -->
      <g transform="translate(490.604628 399.078438) scale(0.1 -0.1)">
       <use xlink:href="#DejaVuSans-32"/>
       <use xlink:href="#DejaVuSans-30" x="63.623047"/>
       <use xlink:href="#DejaVuSans-30" x="127.246094"/>
      </g>
     </g>
    </g>
    <g id="text_10">
     <!-- epoch -->
     <g transform="translate(279.971875 412.756563) scale(0.1 -0.1)">
      <defs>
       <path id="DejaVuSans-65" d="M 3597 1894 
L 3597 1613 
L 953 1613 
Q 991 1019 1311 708 
Q 1631 397 2203 397 
Q 2534 397 2845 478 
Q 3156 559 3463 722 
L 3463 178 
Q 3153 47 2828 -22 
Q 2503 -91 2169 -91 
Q 1331 -91 842 396 
Q 353 884 353 1716 
Q 353 2575 817 3079 
Q 1281 3584 2069 3584 
Q 2775 3584 3186 3129 
Q 3597 2675 3597 1894 
z
M 3022 2063 
Q 3016 2534 2758 2815 
Q 2500 3097 2075 3097 
Q 1594 3097 1305 2825 
Q 1016 2553 972 2059 
L 3022 2063 
z
" transform="scale(0.015625)"/>
       <path id="DejaVuSans-70" d="M 1159 525 
L 1159 -1331 
L 581 -1331 
L 581 3500 
L 1159 3500 
L 1159 2969 
Q 1341 3281 1617 3432 
Q 1894 3584 2278 3584 
Q 2916 3584 3314 3078 
Q 3713 2572 3713 1747 
Q 3713 922 3314 415 
Q 2916 -91 2278 -91 
Q 1894 -91 1617 61 
Q 1341 213 1159 525 
z
M 3116 1747 
Q 3116 2381 2855 2742 
Q 2594 3103 2138 3103 
Q 1681 3103 1420 2742 
Q 1159 2381 1159 1747 
Q 1159 1113 1420 752 
Q 1681 391 2138 391 
Q 2594 391 2855 752 
Q 3116 1113 3116 1747 
z
" transform="scale(0.015625)"/>
       <path id="DejaVuSans-6f" d="M 1959 3097 
Q 1497 3097 1228 2736 
Q 959 2375 959 1747 
Q 959 1119 1226 758 
Q 1494 397 1959 397 
Q 2419 397 2687 759 
Q 2956 1122 2956 1747 
Q 2956 2369 2687 2733 
Q 2419 3097 1959 3097 
z
M 1959 3584 
Q 2709 3584 3137 3096 
Q 3566 2609 3566 1747 
Q 3566 888 3137 398 
Q 2709 -91 1959 -91 
Q 1206 -91 779 398 
Q 353 888 353 1747 
Q 353 2609 779 3096 
Q 1206 3584 1959 3584 
z
" transform="scale(0.015625)"/>
       <path id="DejaVuSans-63" d="M 3122 3366 
L 3122 2828 
Q 2878 2963 2633 3030 
Q 2388 3097 2138 3097 
Q 1578 3097 1268 2742 
Q 959 2388 959 1747 
Q 959 1106 1268 751 
Q 1578 397 2138 397 
Q 2388 397 2633 464 
Q 2878 531 3122 666 
L 3122 134 
Q 2881 22 2623 -34 
Q 2366 -91 2075 -91 
Q 1284 -91 818 406 
Q 353 903 353 1747 
Q 353 2603 823 3093 
Q 1294 3584 2113 3584 
Q 2378 3584 2631 3529 
Q 2884 3475 3122 3366 
z
" transform="scale(0.015625)"/>
       <path id="DejaVuSans-68" d="M 3513 2113 
L 3513 0 
L 2938 0 
L 2938 2094 
Q 2938 2591 2744 2837 
Q 2550 3084 2163 3084 
Q 1697 3084 1428 2787 
Q 1159 2491 1159 1978 
L 1159 0 
L 581 0 
L 581 4863 
L 1159 4863 
L 1159 2956 
Q 1366 3272 1645 3428 
Q 1925 3584 2291 3584 
Q 2894 3584 3203 3211 
Q 3513 2838 3513 2113 
z
" transform="scale(0.015625)"/>
      </defs>
      <use xlink:href="#DejaVuSans-65"/>
      <use xlink:href="#DejaVuSans-70" x="61.523438"/>
      <use xlink:href="#DejaVuSans-6f" x="125"/>
      <use xlink:href="#DejaVuSans-63" x="186.181641"/>
      <use xlink:href="#DejaVuSans-68" x="241.162109"/>
     </g>
    </g>
   </g>
   <g id="matplotlib.axis_2">
    <g id="ytick_1">
     <g id="line2d_10">
      <defs>
       <path id="m60b96aed4b" d="M 0 0 
L -3.5 0 
" style="stroke: #000000; stroke-width: 0.8"/>
      </defs>
      <g>
       <use xlink:href="#m60b96aed4b" x="72" y="384.48" style="stroke: #000000; stroke-width: 0.8"/>
      </g>
     </g>
     <g id="text_11">
      <!-- 0 -->
      <g transform="translate(58.6375 388.279219) scale(0.1 -0.1)">
       <use xlink:href="#DejaVuSans-30"/>
      </g>
     </g>
    </g>
    <g id="ytick_2">
     <g id="line2d_11">
      <g>
       <use xlink:href="#m60b96aed4b" x="72" y="317.952" style="stroke: #000000; stroke-width: 0.8"/>
      </g>
     </g>
     <g id="text_12">
      <!-- 20 -->
      <g transform="translate(52.275 321.751219) scale(0.1 -0.1)">
       <use xlink:href="#DejaVuSans-32"/>
       <use xlink:href="#DejaVuSans-30" x="63.623047"/>
      </g>
     </g>
    </g>
    <g id="ytick_3">
     <g id="line2d_12">
      <g>
       <use xlink:href="#m60b96aed4b" x="72" y="251.424" style="stroke: #000000; stroke-width: 0.8"/>
      </g>
     </g>
     <g id="text_13">
      <!-- 40 -->
      <g transform="translate(52.275 255.223219) scale(0.1 -0.1)">
       <defs>
        <path id="DejaVuSans-34" d="M 2419 4116 
L 825 1625 
L 2419 1625 
L 2419 4116 
z
M 2253 4666 
L 3047 4666 
L 3047 1625 
L 3713 1625 
L 3713 1100 
L 3047 1100 
L 3047 0 
L 2419 0 
L 2419 1100 
L 313 1100 
L 313 1709 
L 2253 4666 
z
" transform="scale(0.015625)"/>
       </defs>
       <use xlink:href="#DejaVuSans-34"/>
       <use xlink:href="#DejaVuSans-30" x="63.623047"/>
      </g>
     </g>
    </g>
    <g id="ytick_4">
     <g id="line2d_13">
      <g>
       <use xlink:href="#m60b96aed4b" x="72" y="184.896" style="stroke: #000000; stroke-width: 0.8"/>
      </g>
     </g>
     <g id="text_14">
      <!-- 60 -->
      <g transform="translate(52.275 188.695219) scale(0.1 -0.1)">
       <defs>
        <path id="DejaVuSans-36" d="M 2113 2584 
Q 1688 2584 1439 2293 
Q 1191 2003 1191 1497 
Q 1191 994 1439 701 
Q 1688 409 2113 409 
Q 2538 409 2786 701 
Q 3034 994 3034 1497 
Q 3034 2003 2786 2293 
Q 2538 2584 2113 2584 
z
M 3366 4563 
L 3366 3988 
Q 3128 4100 2886 4159 
Q 2644 4219 2406 4219 
Q 1781 4219 1451 3797 
Q 1122 3375 1075 2522 
Q 1259 2794 1537 2939 
Q 1816 3084 2150 3084 
Q 2853 3084 3261 2657 
Q 3669 2231 3669 1497 
Q 3669 778 3244 343 
Q 2819 -91 2113 -91 
Q 1303 -91 875 529 
Q 447 1150 447 2328 
Q 447 3434 972 4092 
Q 1497 4750 2381 4750 
Q 2619 4750 2861 4703 
Q 3103 4656 3366 4563 
z
" transform="scale(0.015625)"/>
       </defs>
       <use xlink:href="#DejaVuSans-36"/>
       <use xlink:href="#DejaVuSans-30" x="63.623047"/>
      </g>
     </g>
    </g>
    <g id="ytick_5">
     <g id="line2d_14">
      <g>
       <use xlink:href="#m60b96aed4b" x="72" y="118.368" style="stroke: #000000; stroke-width: 0.8"/>
      </g>
     </g>
     <g id="text_15">
      <!-- 80 -->
      <g transform="translate(52.275 122.167219) scale(0.1 -0.1)">
       <defs>
        <path id="DejaVuSans-38" d="M 2034 2216 
Q 1584 2216 1326 1975 
Q 1069 1734 1069 1313 
Q 1069 891 1326 650 
Q 1584 409 2034 409 
Q 2484 409 2743 651 
Q 3003 894 3003 1313 
Q 3003 1734 2745 1975 
Q 2488 2216 2034 2216 
z
M 1403 2484 
Q 997 2584 770 2862 
Q 544 3141 544 3541 
Q 544 4100 942 4425 
Q 1341 4750 2034 4750 
Q 2731 4750 3128 4425 
Q 3525 4100 3525 3541 
Q 3525 3141 3298 2862 
Q 3072 2584 2669 2484 
Q 3125 2378 3379 2068 
Q 3634 1759 3634 1313 
Q 3634 634 3220 271 
Q 2806 -91 2034 -91 
Q 1263 -91 848 271 
Q 434 634 434 1313 
Q 434 1759 690 2068 
Q 947 2378 1403 2484 
z
M 1172 3481 
Q 1172 3119 1398 2916 
Q 1625 2713 2034 2713 
Q 2441 2713 2670 2916 
Q 2900 3119 2900 3481 
Q 2900 3844 2670 4047 
Q 2441 4250 2034 4250 
Q 1625 4250 1398 4047 
Q 1172 3844 1172 3481 
z
" transform="scale(0.015625)"/>
       </defs>
       <use xlink:href="#DejaVuSans-38"/>
       <use xlink:href="#DejaVuSans-30" x="63.623047"/>
      </g>
     </g>
    </g>
    <g id="ytick_6">
     <g id="line2d_15">
      <g>
       <use xlink:href="#m60b96aed4b" x="72" y="51.84" style="stroke: #000000; stroke-width: 0.8"/>
      </g>
     </g>
     <g id="text_16">
      <!-- 100 -->
      <g transform="translate(45.9125 55.639219) scale(0.1 -0.1)">
       <use xlink:href="#DejaVuSans-31"/>
       <use xlink:href="#DejaVuSans-30" x="63.623047"/>
       <use xlink:href="#DejaVuSans-30" x="127.246094"/>
      </g>
     </g>
    </g>
    <g id="text_17">
     <!-- rate -->
     <g transform="translate(39.832812 228.31625) rotate(-90) scale(0.1 -0.1)">
      <defs>
       <path id="DejaVuSans-72" d="M 2631 2963 
Q 2534 3019 2420 3045 
Q 2306 3072 2169 3072 
Q 1681 3072 1420 2755 
Q 1159 2438 1159 1844 
L 1159 0 
L 581 0 
L 581 3500 
L 1159 3500 
L 1159 2956 
Q 1341 3275 1631 3429 
Q 1922 3584 2338 3584 
Q 2397 3584 2469 3576 
Q 2541 3569 2628 3553 
L 2631 2963 
z
" transform="scale(0.015625)"/>
       <path id="DejaVuSans-61" d="M 2194 1759 
Q 1497 1759 1228 1600 
Q 959 1441 959 1056 
Q 959 750 1161 570 
Q 1363 391 1709 391 
Q 2188 391 2477 730 
Q 2766 1069 2766 1631 
L 2766 1759 
L 2194 1759 
z
M 3341 1997 
L 3341 0 
L 2766 0 
L 2766 531 
Q 2569 213 2275 61 
Q 1981 -91 1556 -91 
Q 1019 -91 701 211 
Q 384 513 384 1019 
Q 384 1609 779 1909 
Q 1175 2209 1959 2209 
L 2766 2209 
L 2766 2266 
Q 2766 2663 2505 2880 
Q 2244 3097 1772 3097 
Q 1472 3097 1187 3025 
Q 903 2953 641 2809 
L 641 3341 
Q 956 3463 1253 3523 
Q 1550 3584 1831 3584 
Q 2591 3584 2966 3190 
Q 3341 2797 3341 1997 
z
" transform="scale(0.015625)"/>
       <path id="DejaVuSans-74" d="M 1172 4494 
L 1172 3500 
L 2356 3500 
L 2356 3053 
L 1172 3053 
L 1172 1153 
Q 1172 725 1289 603 
Q 1406 481 1766 481 
L 2356 481 
L 2356 0 
L 1766 0 
Q 1100 0 847 248 
Q 594 497 594 1153 
L 594 3053 
L 172 3053 
L 172 3500 
L 594 3500 
L 594 4494 
L 1172 4494 
z
" transform="scale(0.015625)"/>
      </defs>
      <use xlink:href="#DejaVuSans-72"/>
      <use xlink:href="#DejaVuSans-61" x="41.113281"/>
      <use xlink:href="#DejaVuSans-74" x="102.392578"/>
      <use xlink:href="#DejaVuSans-65" x="141.601562"/>
     </g>
    </g>
   </g>
   <g id="line2d_16">
    <path d="M 92.290909 248.731223 
L 94.330196 199.71895 
L 96.369484 99.643702 
L 98.408771 81.729279 
L 100.448058 197.88437 
L 102.487346 156.154586 
L 104.526633 109.380411 
L 106.565921 133.30764 
L 108.605208 159.103203 
L 110.644495 168.136473 
L 112.683783 145.664595 
L 114.72307 55.031311 
L 116.762357 207.100403 
L 118.801645 136.68033 
L 120.840932 76.563147 
L 122.880219 55.549868 
L 124.919507 162.451226 
L 126.958794 189.137127 
L 128.998081 57.762181 
L 131.037369 93.677489 
L 133.076656 186.715861 
L 135.115943 192.753805 
L 137.155231 88.768618 
L 139.194518 91.323159 
L 141.233805 229.424059 
L 143.273093 148.614176 
L 145.31238 112.177468 
L 147.351667 59.897597 
L 149.390955 215.874293 
L 151.430242 110.482672 
L 153.469529 110.864109 
L 155.508817 124.418012 
L 157.548104 123.798601 
L 159.587392 117.577538 
L 161.626679 108.018757 
L 163.665966 124.091036 
L 165.705254 157.045267 
L 167.744541 199.073095 
L 169.783828 149.617334 
L 171.823116 135.43661 
L 173.862403 192.79969 
L 175.90169 153.640651 
L 177.940978 90.739176 
L 179.980265 97.769531 
L 182.019552 157.436958 
L 184.05884 125.121375 
L 186.098127 116.513954 
L 188.137414 88.908555 
L 190.176702 172.850083 
L 192.215989 142.512595 
L 194.255276 82.023162 
L 196.294564 151.629944 
L 198.333851 200.149965 
L 200.373138 103.535381 
L 202.412426 119.601366 
L 204.451713 78.773252 
L 206.491 174.939641 
L 208.530288 138.45215 
L 210.569575 125.209666 
L 212.608862 136.168067 
L 214.64815 136.478851 
L 216.687437 163.672537 
L 218.726725 100.257631 
L 220.766012 116.787762 
L 222.805299 165.799933 
L 224.844587 146.902732 
L 226.883874 151.472167 
L 228.923161 125.156448 
L 230.962449 204.496019 
L 233.001736 209.931479 
L 235.041023 101.144226 
L 237.080311 159.261641 
L 239.119598 195.509787 
L 241.158885 155.634887 
L 243.198173 159.182866 
L 245.23746 118.308564 
L 247.276747 204.444158 
L 249.316035 208.370516 
L 251.355322 161.865847 
L 253.394609 123.022605 
L 255.433897 168.025798 
L 257.473184 136.401396 
L 259.512471 168.558466 
L 261.551759 116.726828 
L 263.591046 177.776592 
L 267.669621 199.499325 
L 269.708908 153.969378 
L 271.748196 183.130017 
L 273.787483 166.985613 
L 275.82677 156.212145 
L 277.866058 189.27478 
L 279.905345 190.576375 
L 281.944632 234.44476 
L 283.98392 143.493192 
L 286.023207 240.056156 
L 288.062494 172.811521 
L 290.101782 168.695357 
L 292.141069 121.835631 
L 294.180356 206.729383 
L 296.219644 162.088923 
L 298.258931 183.145955 
L 300.298218 124.005308 
L 302.337506 136.452991 
L 304.376793 231.162518 
L 306.41608 176.580812 
L 308.455368 190.218463 
L 310.494655 127.565139 
L 312.533942 217.06732 
L 316.612517 145.084597 
L 318.651804 190.782245 
L 320.691092 170.608814 
L 322.730379 165.147505 
L 324.769667 225.772079 
L 326.808954 124.433924 
L 328.848241 191.42154 
L 330.887529 181.444929 
L 332.926816 165.220189 
L 334.966103 184.038019 
L 337.005391 131.314115 
L 339.044678 133.098243 
L 341.083965 153.395419 
L 343.123253 230.96142 
L 345.16254 142.691615 
L 347.201827 137.668617 
L 349.241115 143.204843 
L 351.280402 177.343116 
L 353.319689 126.267591 
L 355.358977 161.108098 
L 357.398264 170.796208 
L 359.437551 186.578082 
L 361.476839 157.923741 
L 363.516126 197.777742 
L 365.555413 154.160553 
L 367.594701 169.465465 
L 369.633988 210.649689 
L 371.673275 164.424169 
L 373.712563 124.818052 
L 375.75185 188.679047 
L 377.791138 207.162719 
L 379.830425 205.907338 
L 381.869712 154.39439 
L 383.909 161.431039 
L 385.948287 231.555782 
L 387.987574 150.675665 
L 390.026862 196.637731 
L 392.066149 141.464568 
L 394.105436 203.392337 
L 396.144724 179.115659 
L 398.184011 198.763656 
L 400.223298 252.955829 
L 402.262586 178.267233 
L 404.301873 164.115593 
L 406.34116 179.658009 
L 408.380448 157.526569 
L 410.419735 166.881333 
L 412.459022 146.559844 
L 414.49831 196.8737 
L 416.537597 213.196794 
L 418.576884 161.655638 
L 420.616172 204.393185 
L 422.655459 181.654973 
L 424.694746 254.237857 
L 426.734034 237.798518 
L 428.773321 215.770203 
L 430.812608 203.28694 
L 432.851896 137.013194 
L 434.891183 190.057881 
L 436.930471 110.227187 
L 438.969758 193.267097 
L 441.009045 191.519031 
L 443.048333 217.238801 
L 445.08762 191.509768 
L 447.126907 213.622136 
L 449.166195 131.964056 
L 451.205482 175.871866 
L 453.244769 158.532798 
L 455.284057 175.710903 
L 457.323344 119.62045 
L 459.362631 210.930742 
L 461.401919 143.561003 
L 463.441206 144.564897 
L 465.480493 203.272068 
L 467.519781 198.659465 
L 469.559068 207.240974 
L 471.598355 134.360109 
L 473.637643 103.407397 
L 475.67693 196.298041 
L 477.716217 171.154196 
L 479.755505 158.643296 
L 481.794792 169.21564 
L 483.834079 216.381112 
L 485.873367 161.179615 
L 487.912654 206.887693 
L 489.951942 124.481534 
L 491.991229 206.537852 
L 494.030516 156.286986 
L 496.069804 192.025242 
L 498.109091 192.183844 
L 498.109091 192.183844 
" clip-path="url(#p8bcb93860b)" style="fill: none; stroke: #0000ff; stroke-width: 1.5; stroke-linecap: square"/>
   </g>
   <g id="line2d_17">
    <path d="M 92.290909 269.23569 
L 94.330196 275.406478 
L 96.369484 274.05358 
L 98.408771 261.270281 
L 100.448058 162.135163 
L 102.487346 211.196314 
L 104.526633 170.709718 
L 106.565921 164.356561 
L 108.605208 191.92506 
L 110.644495 154.247246 
L 112.683783 151.048474 
L 114.72307 112.634685 
L 116.762357 171.126406 
L 118.801645 173.172351 
L 120.840932 164.55535 
L 122.880219 211.245625 
L 124.919507 154.336781 
L 126.958794 142.840535 
L 128.998081 139.01583 
L 131.037369 159.110994 
L 133.076656 155.708485 
L 135.115943 173.672902 
L 137.155231 176.677009 
L 139.194518 139.8672 
L 141.233805 211.837081 
L 143.273093 159.870951 
L 145.31238 141.897727 
L 147.351667 184.854202 
L 149.390955 124.346901 
L 151.430242 165.704993 
L 153.469529 139.368387 
L 155.508817 155.578547 
L 157.548104 160.604971 
L 159.587392 140.857085 
L 161.626679 197.012418 
L 163.665966 175.52691 
L 165.705254 159.160076 
L 167.744541 169.603701 
L 169.783828 142.642127 
L 171.823116 168.736191 
L 173.862403 150.659804 
L 175.90169 107.925339 
L 177.940978 146.386662 
L 179.980265 131.824119 
L 182.019552 94.285531 
L 184.05884 115.816403 
L 186.098127 151.155825 
L 188.137414 164.579231 
L 190.176702 128.723587 
L 192.215989 128.023168 
L 194.255276 117.028933 
L 196.294564 135.573045 
L 198.333851 146.295046 
L 200.373138 145.371398 
L 202.412426 134.637216 
L 204.451713 168.432462 
L 206.491 161.240371 
L 208.530288 203.585454 
L 210.569575 132.65308 
L 212.608862 158.424762 
L 214.64815 117.701664 
L 216.687437 125.729036 
L 218.726725 178.028296 
L 220.766012 164.008775 
L 222.805299 116.806948 
L 224.844587 175.091099 
L 226.883874 150.609884 
L 228.923161 118.039045 
L 230.962449 109.69287 
L 233.001736 151.477902 
L 235.041023 179.698157 
L 237.080311 165.97847 
L 239.119598 121.762135 
L 241.158885 131.785747 
L 243.198173 146.111103 
L 245.23746 140.302922 
L 247.276747 137.107398 
L 249.316035 151.599439 
L 251.355322 181.050332 
L 253.394609 176.711651 
L 255.433897 150.386503 
L 257.473184 128.121231 
L 259.512471 129.878407 
L 261.551759 132.293646 
L 263.591046 139.718406 
L 265.630333 170.432434 
L 267.669621 165.84366 
L 269.708908 163.930229 
L 271.748196 143.70901 
L 273.787483 120.475195 
L 275.82677 156.785367 
L 277.866058 121.164448 
L 279.905345 120.532551 
L 281.944632 125.413658 
L 283.98392 110.998996 
L 286.023207 160.253099 
L 288.062494 118.851814 
L 290.101782 125.420916 
L 292.141069 169.30789 
L 294.180356 140.528282 
L 296.219644 121.045956 
L 298.258931 120.158828 
L 300.298218 141.972467 
L 302.337506 122.188112 
L 304.376793 151.669332 
L 306.41608 137.73856 
L 308.455368 166.621407 
L 310.494655 147.171591 
L 312.533942 136.826485 
L 314.57323 155.285096 
L 316.612517 123.095542 
L 318.651804 145.136318 
L 320.691092 138.751336 
L 322.730379 230.644875 
L 324.769667 121.027049 
L 326.808954 112.560276 
L 328.848241 150.977338 
L 330.887529 157.327881 
L 332.926816 178.040211 
L 334.966103 96.735284 
L 337.005391 111.477886 
L 339.044678 139.439345 
L 341.083965 137.369862 
L 343.123253 124.250641 
L 345.16254 152.005037 
L 347.201827 133.483487 
L 349.241115 168.323132 
L 351.280402 109.225628 
L 353.319689 102.159718 
L 355.358977 120.058533 
L 357.398264 117.68697 
L 359.437551 136.19677 
L 361.476839 124.210188 
L 363.516126 129.92122 
L 365.555413 190.516761 
L 367.594701 103.113617 
L 369.633988 168.419468 
L 371.673275 156.210089 
L 373.712563 109.289632 
L 375.75185 165.746512 
L 377.791138 160.965522 
L 379.830425 171.043749 
L 381.869712 162.245001 
L 383.909 184.311928 
L 385.948287 139.533093 
L 387.987574 135.565076 
L 390.026862 179.008816 
L 392.066149 129.631323 
L 394.105436 131.574167 
L 396.144724 136.556484 
L 398.184011 135.273732 
L 400.223298 179.893114 
L 402.262586 134.140814 
L 404.301873 127.00694 
L 406.34116 190.194049 
L 408.380448 122.66246 
L 410.419735 170.879525 
L 412.459022 173.943665 
L 414.49831 164.760129 
L 416.537597 169.134124 
L 418.576884 103.87134 
L 420.616172 163.888253 
L 422.655459 157.874456 
L 424.694746 159.385995 
L 426.734034 159.975485 
L 428.773321 172.870069 
L 430.812608 149.338806 
L 432.851896 174.825653 
L 434.891183 146.631233 
L 436.930471 100.083231 
L 438.969758 132.63699 
L 441.009045 120.373123 
L 443.048333 122.313659 
L 445.08762 130.721782 
L 447.126907 148.551263 
L 449.166195 194.935334 
L 451.205482 206.075774 
L 453.244769 140.360607 
L 455.284057 156.050002 
L 457.323344 144.260712 
L 459.362631 177.205426 
L 461.401919 157.086076 
L 463.441206 158.976463 
L 465.480493 118.260827 
L 467.519781 133.42867 
L 469.559068 155.753785 
L 471.598355 152.08102 
L 473.637643 157.480888 
L 475.67693 145.45903 
L 477.716217 172.429474 
L 479.755505 159.303693 
L 481.794792 207.331422 
L 483.834079 140.457756 
L 485.873367 180.991645 
L 487.912654 177.612115 
L 489.951942 195.064053 
L 491.991229 125.756114 
L 494.030516 125.552402 
L 496.069804 215.279055 
L 498.109091 199.778793 
L 498.109091 199.778793 
" clip-path="url(#p8bcb93860b)" style="fill: none; stroke: #008000; stroke-width: 1.5; stroke-linecap: square"/>
   </g>
   <g id="patch_3">
    <path d="M 72 384.48 
L 72 51.84 
" style="fill: none; stroke: #000000; stroke-width: 0.8; stroke-linejoin: miter; stroke-linecap: square"/>
   </g>
   <g id="patch_4">
    <path d="M 518.4 384.48 
L 518.4 51.84 
" style="fill: none; stroke: #000000; stroke-width: 0.8; stroke-linejoin: miter; stroke-linecap: square"/>
   </g>
   <g id="patch_5">
    <path d="M 72 384.48 
L 518.4 384.48 
" style="fill: none; stroke: #000000; stroke-width: 0.8; stroke-linejoin: miter; stroke-linecap: square"/>
   </g>
   <g id="patch_6">
    <path d="M 72 51.84 
L 518.4 51.84 
" style="fill: none; stroke: #000000; stroke-width: 0.8; stroke-linejoin: miter; stroke-linecap: square"/>
   </g>
   <g id="legend_1">
    <g id="patch_7">
     <path d="M 79 89.19625 
L 160.740625 89.19625 
Q 162.740625 89.19625 162.740625 87.19625 
L 162.740625 58.84 
Q 162.740625 56.84 160.740625 56.84 
L 79 56.84 
Q 77 56.84 77 58.84 
L 77 87.19625 
Q 77 89.19625 79 89.19625 
z
" style="fill: #ffffff; opacity: 0.8; stroke: #cccccc; stroke-linejoin: miter"/>
    </g>
    <g id="line2d_18">
     <path d="M 81 64.938437 
L 91 64.938437 
L 101 64.938437 
" style="fill: none; stroke: #0000ff; stroke-width: 1.5; stroke-linecap: square"/>
    </g>
    <g id="text_18">
     <!-- train mAP -->
     <g transform="translate(109 68.438437) scale(0.1 -0.1)">
      <defs>
       <path id="DejaVuSans-69" d="M 603 3500 
L 1178 3500 
L 1178 0 
L 603 0 
L 603 3500 
z
M 603 4863 
L 1178 4863 
L 1178 4134 
L 603 4134 
L 603 4863 
z
" transform="scale(0.015625)"/>
       <path id="DejaVuSans-6e" d="M 3513 2113 
L 3513 0 
L 2938 0 
L 2938 2094 
Q 2938 2591 2744 2837 
Q 2550 3084 2163 3084 
Q 1697 3084 1428 2787 
Q 1159 2491 1159 1978 
L 1159 0 
L 581 0 
L 581 3500 
L 1159 3500 
L 1159 2956 
Q 1366 3272 1645 3428 
Q 1925 3584 2291 3584 
Q 2894 3584 3203 3211 
Q 3513 2838 3513 2113 
z
" transform="scale(0.015625)"/>
       <path id="DejaVuSans-20" transform="scale(0.015625)"/>
       <path id="DejaVuSans-6d" d="M 3328 2828 
Q 3544 3216 3844 3400 
Q 4144 3584 4550 3584 
Q 5097 3584 5394 3201 
Q 5691 2819 5691 2113 
L 5691 0 
L 5113 0 
L 5113 2094 
Q 5113 2597 4934 2840 
Q 4756 3084 4391 3084 
Q 3944 3084 3684 2787 
Q 3425 2491 3425 1978 
L 3425 0 
L 2847 0 
L 2847 2094 
Q 2847 2600 2669 2842 
Q 2491 3084 2119 3084 
Q 1678 3084 1418 2786 
Q 1159 2488 1159 1978 
L 1159 0 
L 581 0 
L 581 3500 
L 1159 3500 
L 1159 2956 
Q 1356 3278 1631 3431 
Q 1906 3584 2284 3584 
Q 2666 3584 2933 3390 
Q 3200 3197 3328 2828 
z
" transform="scale(0.015625)"/>
       <path id="DejaVuSans-41" d="M 2188 4044 
L 1331 1722 
L 3047 1722 
L 2188 4044 
z
M 1831 4666 
L 2547 4666 
L 4325 0 
L 3669 0 
L 3244 1197 
L 1141 1197 
L 716 0 
L 50 0 
L 1831 4666 
z
" transform="scale(0.015625)"/>
       <path id="DejaVuSans-50" d="M 1259 4147 
L 1259 2394 
L 2053 2394 
Q 2494 2394 2734 2622 
Q 2975 2850 2975 3272 
Q 2975 3691 2734 3919 
Q 2494 4147 2053 4147 
L 1259 4147 
z
M 628 4666 
L 2053 4666 
Q 2838 4666 3239 4311 
Q 3641 3956 3641 3272 
Q 3641 2581 3239 2228 
Q 2838 1875 2053 1875 
L 1259 1875 
L 1259 0 
L 628 0 
L 628 4666 
z
" transform="scale(0.015625)"/>
      </defs>
      <use xlink:href="#DejaVuSans-74"/>
      <use xlink:href="#DejaVuSans-72" x="39.208984"/>
      <use xlink:href="#DejaVuSans-61" x="80.322266"/>
      <use xlink:href="#DejaVuSans-69" x="141.601562"/>
      <use xlink:href="#DejaVuSans-6e" x="169.384766"/>
      <use xlink:href="#DejaVuSans-20" x="232.763672"/>
      <use xlink:href="#DejaVuSans-6d" x="264.550781"/>
      <use xlink:href="#DejaVuSans-41" x="361.962891"/>
      <use xlink:href="#DejaVuSans-50" x="430.371094"/>
     </g>
    </g>
    <g id="line2d_19">
     <path d="M 81 79.616562 
L 91 79.616562 
L 101 79.616562 
" style="fill: none; stroke: #008000; stroke-width: 1.5; stroke-linecap: square"/>
    </g>
    <g id="text_19">
     <!-- valid mAP -->
     <g transform="translate(109 83.116562) scale(0.1 -0.1)">
      <defs>
       <path id="DejaVuSans-76" d="M 191 3500 
L 800 3500 
L 1894 563 
L 2988 3500 
L 3597 3500 
L 2284 0 
L 1503 0 
L 191 3500 
z
" transform="scale(0.015625)"/>
       <path id="DejaVuSans-6c" d="M 603 4863 
L 1178 4863 
L 1178 0 
L 603 0 
L 603 4863 
z
" transform="scale(0.015625)"/>
       <path id="DejaVuSans-64" d="M 2906 2969 
L 2906 4863 
L 3481 4863 
L 3481 0 
L 2906 0 
L 2906 525 
Q 2725 213 2448 61 
Q 2172 -91 1784 -91 
Q 1150 -91 751 415 
Q 353 922 353 1747 
Q 353 2572 751 3078 
Q 1150 3584 1784 3584 
Q 2172 3584 2448 3432 
Q 2725 3281 2906 2969 
z
M 947 1747 
Q 947 1113 1208 752 
Q 1469 391 1925 391 
Q 2381 391 2643 752 
Q 2906 1113 2906 1747 
Q 2906 2381 2643 2742 
Q 2381 3103 1925 3103 
Q 1469 3103 1208 2742 
Q 947 2381 947 1747 
z
" transform="scale(0.015625)"/>
      </defs>
      <use xlink:href="#DejaVuSans-76"/>
      <use xlink:href="#DejaVuSans-61" x="59.179688"/>
      <use xlink:href="#DejaVuSans-6c" x="120.458984"/>
      <use xlink:href="#DejaVuSans-69" x="148.242188"/>
      <use xlink:href="#DejaVuSans-64" x="176.025391"/>
      <use xlink:href="#DejaVuSans-20" x="239.501953"/>
      <use xlink:href="#DejaVuSans-6d" x="271.289062"/>
      <use xlink:href="#DejaVuSans-41" x="368.701172"/>
      <use xlink:href="#DejaVuSans-50" x="437.109375"/>
     </g>
    </g>
   </g>
  </g>
  <g id="axes_2">
   <g id="matplotlib.axis_3">
    <g id="ytick_7">
     <g id="line2d_20">
      <defs>
       <path id="me72714d3fa" d="M 0 0 
L 3.5 0 
" style="stroke: #000000; stroke-width: 0.8"/>
      </defs>
      <g>
       <use xlink:href="#me72714d3fa" x="518.4" y="366.144571" style="stroke: #000000; stroke-width: 0.8"/>
      </g>
     </g>
     <g id="text_20">
      <!-- 1 -->
      <g transform="translate(525.4 369.94379) scale(0.1 -0.1)">
       <use xlink:href="#DejaVuSans-31"/>
      </g>
     </g>
    </g>
    <g id="ytick_8">
     <g id="line2d_21">
      <g>
       <use xlink:href="#me72714d3fa" x="518.4" y="325.283763" style="stroke: #000000; stroke-width: 0.8"/>
      </g>
     </g>
     <g id="text_21">
      <!-- 2 -->
      <g transform="translate(525.4 329.082982) scale(0.1 -0.1)">
       <use xlink:href="#DejaVuSans-32"/>
      </g>
     </g>
    </g>
    <g id="ytick_9">
     <g id="line2d_22">
      <g>
       <use xlink:href="#me72714d3fa" x="518.4" y="284.422955" style="stroke: #000000; stroke-width: 0.8"/>
      </g>
     </g>
     <g id="text_22">
      <!-- 3 -->
      <g transform="translate(525.4 288.222174) scale(0.1 -0.1)">
       <defs>
        <path id="DejaVuSans-33" d="M 2597 2516 
Q 3050 2419 3304 2112 
Q 3559 1806 3559 1356 
Q 3559 666 3084 287 
Q 2609 -91 1734 -91 
Q 1441 -91 1130 -33 
Q 819 25 488 141 
L 488 750 
Q 750 597 1062 519 
Q 1375 441 1716 441 
Q 2309 441 2620 675 
Q 2931 909 2931 1356 
Q 2931 1769 2642 2001 
Q 2353 2234 1838 2234 
L 1294 2234 
L 1294 2753 
L 1863 2753 
Q 2328 2753 2575 2939 
Q 2822 3125 2822 3475 
Q 2822 3834 2567 4026 
Q 2313 4219 1838 4219 
Q 1578 4219 1281 4162 
Q 984 4106 628 3988 
L 628 4550 
Q 988 4650 1302 4700 
Q 1616 4750 1894 4750 
Q 2613 4750 3031 4423 
Q 3450 4097 3450 3541 
Q 3450 3153 3228 2886 
Q 3006 2619 2597 2516 
z
" transform="scale(0.015625)"/>
       </defs>
       <use xlink:href="#DejaVuSans-33"/>
      </g>
     </g>
    </g>
    <g id="ytick_10">
     <g id="line2d_23">
      <g>
       <use xlink:href="#me72714d3fa" x="518.4" y="243.562147" style="stroke: #000000; stroke-width: 0.8"/>
      </g>
     </g>
     <g id="text_23">
      <!-- 4 -->
      <g transform="translate(525.4 247.361366) scale(0.1 -0.1)">
       <use xlink:href="#DejaVuSans-34"/>
      </g>
     </g>
    </g>
    <g id="ytick_11">
     <g id="line2d_24">
      <g>
       <use xlink:href="#me72714d3fa" x="518.4" y="202.701339" style="stroke: #000000; stroke-width: 0.8"/>
      </g>
     </g>
     <g id="text_24">
      <!-- 5 -->
      <g transform="translate(525.4 206.500558) scale(0.1 -0.1)">
       <use xlink:href="#DejaVuSans-35"/>
      </g>
     </g>
    </g>
    <g id="ytick_12">
     <g id="line2d_25">
      <g>
       <use xlink:href="#me72714d3fa" x="518.4" y="161.840531" style="stroke: #000000; stroke-width: 0.8"/>
      </g>
     </g>
     <g id="text_25">
      <!-- 6 -->
      <g transform="translate(525.4 165.63975) scale(0.1 -0.1)">
       <use xlink:href="#DejaVuSans-36"/>
      </g>
     </g>
    </g>
    <g id="ytick_13">
     <g id="line2d_26">
      <g>
       <use xlink:href="#me72714d3fa" x="518.4" y="120.979723" style="stroke: #000000; stroke-width: 0.8"/>
      </g>
     </g>
     <g id="text_26">
      <!-- 7 -->
      <g transform="translate(525.4 124.778942) scale(0.1 -0.1)">
       <use xlink:href="#DejaVuSans-37"/>
      </g>
     </g>
    </g>
    <g id="ytick_14">
     <g id="line2d_27">
      <g>
       <use xlink:href="#me72714d3fa" x="518.4" y="80.118915" style="stroke: #000000; stroke-width: 0.8"/>
      </g>
     </g>
     <g id="text_27">
      <!-- 8 -->
      <g transform="translate(525.4 83.918134) scale(0.1 -0.1)">
       <use xlink:href="#DejaVuSans-38"/>
      </g>
     </g>
    </g>
    <g id="text_28">
     <!-- loss -->
     <g transform="translate(543.360937 227.817812) rotate(-90) scale(0.1 -0.1)">
      <defs>
       <path id="DejaVuSans-73" d="M 2834 3397 
L 2834 2853 
Q 2591 2978 2328 3040 
Q 2066 3103 1784 3103 
Q 1356 3103 1142 2972 
Q 928 2841 928 2578 
Q 928 2378 1081 2264 
Q 1234 2150 1697 2047 
L 1894 2003 
Q 2506 1872 2764 1633 
Q 3022 1394 3022 966 
Q 3022 478 2636 193 
Q 2250 -91 1575 -91 
Q 1294 -91 989 -36 
Q 684 19 347 128 
L 347 722 
Q 666 556 975 473 
Q 1284 391 1588 391 
Q 1994 391 2212 530 
Q 2431 669 2431 922 
Q 2431 1156 2273 1281 
Q 2116 1406 1581 1522 
L 1381 1569 
Q 847 1681 609 1914 
Q 372 2147 372 2553 
Q 372 3047 722 3315 
Q 1072 3584 1716 3584 
Q 2034 3584 2315 3537 
Q 2597 3491 2834 3397 
z
" transform="scale(0.015625)"/>
      </defs>
      <use xlink:href="#DejaVuSans-6c"/>
      <use xlink:href="#DejaVuSans-6f" x="27.783203"/>
      <use xlink:href="#DejaVuSans-73" x="88.964844"/>
      <use xlink:href="#DejaVuSans-73" x="141.064453"/>
     </g>
    </g>
   </g>
   <g id="line2d_28">
    <path d="M 92.290909 346.590385 
L 94.330196 315.140261 
L 96.369484 318.969574 
L 98.408771 340.794743 
L 100.448058 335.159474 
L 102.487346 346.68565 
L 104.526633 346.017646 
L 106.565921 348.623075 
L 108.605208 347.771707 
L 110.644495 368.594393 
L 112.683783 360.041671 
L 114.72307 367.140521 
L 116.762357 353.601056 
L 118.801645 360.508154 
L 120.840932 361.57841 
L 122.880219 361.09669 
L 124.919507 346.849931 
L 126.958794 362.009535 
L 128.998081 356.572725 
L 131.037369 369.36 
L 133.076656 347.632745 
L 135.115943 348.256362 
L 137.155231 359.508226 
L 139.194518 366.410166 
L 141.233805 351.180044 
L 143.273093 359.976077 
L 145.31238 361.701377 
L 147.351667 347.099785 
L 149.390955 339.231575 
L 151.430242 362.123298 
L 153.469529 354.110918 
L 155.508817 355.706805 
L 159.587392 338.606575 
L 161.626679 351.860533 
L 163.665966 345.161051 
L 165.705254 317.908553 
L 167.744541 350.502544 
L 169.783828 353.333523 
L 171.823116 348.73204 
L 173.862403 329.297172 
L 175.90169 324.066381 
L 177.940978 335.452664 
L 179.980265 349.30262 
L 182.019552 306.62105 
L 184.05884 338.394946 
L 186.098127 327.940371 
L 188.137414 333.068423 
L 190.176702 312.747632 
L 192.215989 324.430747 
L 194.255276 351.071427 
L 196.294564 322.180929 
L 198.333851 340.769443 
L 200.373138 301.884833 
L 202.412426 278.819167 
L 204.451713 297.998918 
L 206.491 286.654944 
L 208.530288 283.166223 
L 210.569575 302.799064 
L 212.608862 305.889654 
L 214.64815 301.794518 
L 216.687437 287.973053 
L 218.726725 270.700777 
L 220.766012 312.613179 
L 222.805299 277.774134 
L 224.844587 280.290955 
L 226.883874 307.813414 
L 228.923161 319.50563 
L 230.962449 298.138184 
L 233.001736 296.42177 
L 235.041023 292.378866 
L 237.080311 301.163303 
L 239.119598 270.736059 
L 241.158885 238.11025 
L 243.198173 288.49864 
L 245.23746 290.894036 
L 247.276747 253.937022 
L 249.316035 272.671166 
L 251.355322 66.96 
L 253.394609 274.733385 
L 255.433897 275.546202 
L 257.473184 219.384475 
L 259.512471 250.189668 
L 261.551759 222.001752 
L 263.591046 275.771671 
L 265.630333 239.68328 
L 267.669621 257.891468 
L 269.708908 193.789094 
L 271.748196 277.149901 
L 273.787483 248.213872 
L 275.82677 216.867715 
L 277.866058 244.561867 
L 279.905345 275.609835 
L 281.944632 199.690025 
L 283.98392 238.741405 
L 286.023207 233.574215 
L 288.062494 271.099156 
L 290.101782 267.412789 
L 292.141069 231.074814 
L 294.180356 224.35191 
L 296.219644 258.251643 
L 298.258931 227.660198 
L 300.298218 209.877667 
L 302.337506 224.956517 
L 304.376793 274.994584 
L 306.41608 223.262989 
L 308.455368 225.178308 
L 310.494655 199.413959 
L 312.533942 252.070107 
L 314.57323 231.968956 
L 316.612517 215.892106 
L 318.651804 214.183148 
L 320.691092 251.141184 
L 322.730379 148.048687 
L 324.769667 212.513178 
L 326.808954 202.167257 
L 328.848241 231.360394 
L 330.887529 185.458496 
L 332.926816 205.352183 
L 334.966103 221.15103 
L 337.005391 244.888595 
L 339.044678 201.408542 
L 341.083965 204.391997 
L 343.123253 231.442375 
L 345.16254 249.374472 
L 347.201827 228.769304 
L 349.241115 182.135809 
L 351.280402 225.545587 
L 353.319689 251.122807 
L 355.358977 230.935471 
L 357.398264 206.856122 
L 359.437551 208.19117 
L 361.476839 234.272384 
L 363.516126 223.883057 
L 365.555413 211.997804 
L 369.633988 232.083935 
L 371.673275 211.234076 
L 373.712563 219.630748 
L 375.75185 185.053612 
L 377.791138 234.192447 
L 379.830425 204.999113 
L 381.869712 165.847521 
L 383.909 168.530746 
L 385.948287 243.863814 
L 387.987574 201.437314 
L 390.026862 172.362767 
L 392.066149 177.228135 
L 394.105436 228.270751 
L 396.144724 210.39833 
L 398.184011 197.557878 
L 400.223298 172.123716 
L 402.262586 244.634702 
L 404.301873 156.146045 
L 406.34116 175.652756 
L 408.380448 178.472698 
L 410.419735 216.30865 
L 412.459022 203.198291 
L 414.49831 185.717708 
L 416.537597 163.554019 
L 418.576884 240.072696 
L 420.616172 190.178193 
L 422.655459 212.168419 
L 424.694746 167.374252 
L 426.734034 212.284376 
L 428.773321 217.865263 
L 430.812608 186.992957 
L 432.851896 170.437612 
L 434.891183 238.346879 
L 436.930471 179.310585 
L 438.969758 195.563543 
L 441.009045 153.612534 
L 443.048333 203.221907 
L 445.08762 189.329771 
L 447.126907 144.101852 
L 449.166195 78.46339 
L 451.205482 225.319618 
L 453.244769 175.453477 
L 455.284057 170.751582 
L 457.323344 175.053604 
L 459.362631 220.150021 
L 461.401919 174.612486 
L 463.441206 205.990136 
L 465.480493 149.889178 
L 467.519781 252.486603 
L 469.559068 214.242327 
L 471.598355 186.991123 
L 473.637643 164.051301 
L 475.67693 234.330196 
L 477.716217 203.385716 
L 479.755505 187.975669 
L 481.794792 148.309826 
L 483.834079 220.095916 
L 485.873367 196.512843 
L 489.951942 144.144294 
L 491.991229 225.252942 
L 494.030516 209.135106 
L 496.069804 84.380754 
L 498.109091 174.055852 
L 498.109091 174.055852 
" clip-path="url(#p8bcb93860b)" style="fill: none; stroke: #ff0000; stroke-width: 1.5; stroke-linecap: square"/>
   </g>
   <g id="patch_8">
    <path d="M 72 384.48 
L 72 51.84 
" style="fill: none; stroke: #000000; stroke-width: 0.8; stroke-linejoin: miter; stroke-linecap: square"/>
   </g>
   <g id="patch_9">
    <path d="M 518.4 384.48 
L 518.4 51.84 
" style="fill: none; stroke: #000000; stroke-width: 0.8; stroke-linejoin: miter; stroke-linecap: square"/>
   </g>
   <g id="patch_10">
    <path d="M 72 384.48 
L 518.4 384.48 
" style="fill: none; stroke: #000000; stroke-width: 0.8; stroke-linejoin: miter; stroke-linecap: square"/>
   </g>
   <g id="patch_11">
    <path d="M 72 51.84 
L 518.4 51.84 
" style="fill: none; stroke: #000000; stroke-width: 0.8; stroke-linejoin: miter; stroke-linecap: square"/>
   </g>
   <g id="text_29">
    <!-- The learning curve on voc/voc_fpsl_plateau_weight_decay/host/3 -->
    <g transform="translate(100.126875 45.84) scale(0.12 -0.12)">
     <defs>
      <path id="DejaVuSans-54" d="M -19 4666 
L 3928 4666 
L 3928 4134 
L 2272 4134 
L 2272 0 
L 1638 0 
L 1638 4134 
L -19 4134 
L -19 4666 
z
" transform="scale(0.015625)"/>
      <path id="DejaVuSans-67" d="M 2906 1791 
Q 2906 2416 2648 2759 
Q 2391 3103 1925 3103 
Q 1463 3103 1205 2759 
Q 947 2416 947 1791 
Q 947 1169 1205 825 
Q 1463 481 1925 481 
Q 2391 481 2648 825 
Q 2906 1169 2906 1791 
z
M 3481 434 
Q 3481 -459 3084 -895 
Q 2688 -1331 1869 -1331 
Q 1566 -1331 1297 -1286 
Q 1028 -1241 775 -1147 
L 775 -588 
Q 1028 -725 1275 -790 
Q 1522 -856 1778 -856 
Q 2344 -856 2625 -561 
Q 2906 -266 2906 331 
L 2906 616 
Q 2728 306 2450 153 
Q 2172 0 1784 0 
Q 1141 0 747 490 
Q 353 981 353 1791 
Q 353 2603 747 3093 
Q 1141 3584 1784 3584 
Q 2172 3584 2450 3431 
Q 2728 3278 2906 2969 
L 2906 3500 
L 3481 3500 
L 3481 434 
z
" transform="scale(0.015625)"/>
      <path id="DejaVuSans-75" d="M 544 1381 
L 544 3500 
L 1119 3500 
L 1119 1403 
Q 1119 906 1312 657 
Q 1506 409 1894 409 
Q 2359 409 2629 706 
Q 2900 1003 2900 1516 
L 2900 3500 
L 3475 3500 
L 3475 0 
L 2900 0 
L 2900 538 
Q 2691 219 2414 64 
Q 2138 -91 1772 -91 
Q 1169 -91 856 284 
Q 544 659 544 1381 
z
M 1991 3584 
L 1991 3584 
z
" transform="scale(0.015625)"/>
      <path id="DejaVuSans-2f" d="M 1625 4666 
L 2156 4666 
L 531 -594 
L 0 -594 
L 1625 4666 
z
" transform="scale(0.015625)"/>
      <path id="DejaVuSans-5f" d="M 3263 -1063 
L 3263 -1509 
L -63 -1509 
L -63 -1063 
L 3263 -1063 
z
" transform="scale(0.015625)"/>
      <path id="DejaVuSans-66" d="M 2375 4863 
L 2375 4384 
L 1825 4384 
Q 1516 4384 1395 4259 
Q 1275 4134 1275 3809 
L 1275 3500 
L 2222 3500 
L 2222 3053 
L 1275 3053 
L 1275 0 
L 697 0 
L 697 3053 
L 147 3053 
L 147 3500 
L 697 3500 
L 697 3744 
Q 697 4328 969 4595 
Q 1241 4863 1831 4863 
L 2375 4863 
z
" transform="scale(0.015625)"/>
      <path id="DejaVuSans-77" d="M 269 3500 
L 844 3500 
L 1563 769 
L 2278 3500 
L 2956 3500 
L 3675 769 
L 4391 3500 
L 4966 3500 
L 4050 0 
L 3372 0 
L 2619 2869 
L 1863 0 
L 1184 0 
L 269 3500 
z
" transform="scale(0.015625)"/>
      <path id="DejaVuSans-79" d="M 2059 -325 
Q 1816 -950 1584 -1140 
Q 1353 -1331 966 -1331 
L 506 -1331 
L 506 -850 
L 844 -850 
Q 1081 -850 1212 -737 
Q 1344 -625 1503 -206 
L 1606 56 
L 191 3500 
L 800 3500 
L 1894 763 
L 2988 3500 
L 3597 3500 
L 2059 -325 
z
" transform="scale(0.015625)"/>
     </defs>
     <use xlink:href="#DejaVuSans-54"/>
     <use xlink:href="#DejaVuSans-68" x="61.083984"/>
     <use xlink:href="#DejaVuSans-65" x="124.462891"/>
     <use xlink:href="#DejaVuSans-20" x="185.986328"/>
     <use xlink:href="#DejaVuSans-6c" x="217.773438"/>
     <use xlink:href="#DejaVuSans-65" x="245.556641"/>
     <use xlink:href="#DejaVuSans-61" x="307.080078"/>
     <use xlink:href="#DejaVuSans-72" x="368.359375"/>
     <use xlink:href="#DejaVuSans-6e" x="407.722656"/>
     <use xlink:href="#DejaVuSans-69" x="471.101562"/>
     <use xlink:href="#DejaVuSans-6e" x="498.884766"/>
     <use xlink:href="#DejaVuSans-67" x="562.263672"/>
     <use xlink:href="#DejaVuSans-20" x="625.740234"/>
     <use xlink:href="#DejaVuSans-63" x="657.527344"/>
     <use xlink:href="#DejaVuSans-75" x="712.507812"/>
     <use xlink:href="#DejaVuSans-72" x="775.886719"/>
     <use xlink:href="#DejaVuSans-76" x="817"/>
     <use xlink:href="#DejaVuSans-65" x="876.179688"/>
     <use xlink:href="#DejaVuSans-20" x="937.703125"/>
     <use xlink:href="#DejaVuSans-6f" x="969.490234"/>
     <use xlink:href="#DejaVuSans-6e" x="1030.671875"/>
     <use xlink:href="#DejaVuSans-20" x="1094.050781"/>
     <use xlink:href="#DejaVuSans-76" x="1125.837891"/>
     <use xlink:href="#DejaVuSans-6f" x="1185.017578"/>
     <use xlink:href="#DejaVuSans-63" x="1246.199219"/>
     <use xlink:href="#DejaVuSans-2f" x="1301.179688"/>
     <use xlink:href="#DejaVuSans-76" x="1334.871094"/>
     <use xlink:href="#DejaVuSans-6f" x="1394.050781"/>
     <use xlink:href="#DejaVuSans-63" x="1455.232422"/>
     <use xlink:href="#DejaVuSans-5f" x="1510.212891"/>
     <use xlink:href="#DejaVuSans-66" x="1560.212891"/>
     <use xlink:href="#DejaVuSans-70" x="1595.417969"/>
     <use xlink:href="#DejaVuSans-73" x="1658.894531"/>
     <use xlink:href="#DejaVuSans-6c" x="1710.994141"/>
     <use xlink:href="#DejaVuSans-5f" x="1738.777344"/>
     <use xlink:href="#DejaVuSans-70" x="1788.777344"/>
     <use xlink:href="#DejaVuSans-6c" x="1852.253906"/>
     <use xlink:href="#DejaVuSans-61" x="1880.037109"/>
     <use xlink:href="#DejaVuSans-74" x="1941.316406"/>
     <use xlink:href="#DejaVuSans-65" x="1980.525391"/>
     <use xlink:href="#DejaVuSans-61" x="2042.048828"/>
     <use xlink:href="#DejaVuSans-75" x="2103.328125"/>
     <use xlink:href="#DejaVuSans-5f" x="2166.707031"/>
     <use xlink:href="#DejaVuSans-77" x="2216.707031"/>
     <use xlink:href="#DejaVuSans-65" x="2298.494141"/>
     <use xlink:href="#DejaVuSans-69" x="2360.017578"/>
     <use xlink:href="#DejaVuSans-67" x="2387.800781"/>
     <use xlink:href="#DejaVuSans-68" x="2451.277344"/>
     <use xlink:href="#DejaVuSans-74" x="2514.65625"/>
     <use xlink:href="#DejaVuSans-5f" x="2553.865234"/>
     <use xlink:href="#DejaVuSans-64" x="2603.865234"/>
     <use xlink:href="#DejaVuSans-65" x="2667.341797"/>
     <use xlink:href="#DejaVuSans-63" x="2728.865234"/>
     <use xlink:href="#DejaVuSans-61" x="2783.845703"/>
     <use xlink:href="#DejaVuSans-79" x="2845.125"/>
     <use xlink:href="#DejaVuSans-2f" x="2904.304688"/>
     <use xlink:href="#DejaVuSans-68" x="2937.996094"/>
     <use xlink:href="#DejaVuSans-6f" x="3001.375"/>
     <use xlink:href="#DejaVuSans-73" x="3062.556641"/>
     <use xlink:href="#DejaVuSans-74" x="3114.65625"/>
     <use xlink:href="#DejaVuSans-2f" x="3153.865234"/>
     <use xlink:href="#DejaVuSans-33" x="3187.556641"/>
    </g>
   </g>
   <g id="legend_2">
    <g id="patch_12">
     <path d="M 460.084375 74.518125 
L 511.4 74.518125 
Q 513.4 74.518125 513.4 72.518125 
L 513.4 58.84 
Q 513.4 56.84 511.4 56.84 
L 460.084375 56.84 
Q 458.084375 56.84 458.084375 58.84 
L 458.084375 72.518125 
Q 458.084375 74.518125 460.084375 74.518125 
z
" style="fill: #ffffff; opacity: 0.8; stroke: #cccccc; stroke-linejoin: miter"/>
    </g>
    <g id="line2d_29">
     <path d="M 462.084375 64.938438 
L 472.084375 64.938438 
L 482.084375 64.938438 
" style="fill: none; stroke: #ff0000; stroke-width: 1.5; stroke-linecap: square"/>
    </g>
    <g id="text_30">
     <!-- loss -->
     <g transform="translate(490.084375 68.438438) scale(0.1 -0.1)">
      <use xlink:href="#DejaVuSans-6c"/>
      <use xlink:href="#DejaVuSans-6f" x="27.783203"/>
      <use xlink:href="#DejaVuSans-73" x="88.964844"/>
      <use xlink:href="#DejaVuSans-73" x="141.064453"/>
     </g>
    </g>
   </g>
  </g>
 </g>
 <defs>
  <clipPath id="p8bcb93860b">
   <rect x="72" y="51.84" width="446.4" height="332.64"/>
  </clipPath>
 </defs>
</svg>
