<?xml version="1.0" encoding="utf-8" standalone="no"?>
<!DOCTYPE svg PUBLIC "-//W3C//DTD SVG 1.1//EN"
  "http://www.w3.org/Graphics/SVG/1.1/DTD/svg11.dtd">
<svg xmlns:xlink="http://www.w3.org/1999/xlink" width="576pt" height="432pt" viewBox="0 0 576 432" xmlns="http://www.w3.org/2000/svg" version="1.1">
 <metadata>
  <rdf:RDF xmlns:dc="http://purl.org/dc/elements/1.1/" xmlns:cc="http://creativecommons.org/ns#" xmlns:rdf="http://www.w3.org/1999/02/22-rdf-syntax-ns#">
   <cc:Work>
    <dc:type rdf:resource="http://purl.org/dc/dcmitype/StillImage"/>
    <dc:date>2023-10-19T23:05:38.906306</dc:date>
    <dc:format>image/svg+xml</dc:format>
    <dc:creator>
     <cc:Agent>
      <dc:title>Matplotlib v3.7.1, https://matplotlib.org/</dc:title>
     </cc:Agent>
    </dc:creator>
   </cc:Work>
  </rdf:RDF>
 </metadata>
 <defs>
  <style type="text/css">*{stroke-linejoin: round; stroke-linecap: butt}</style>
 </defs>
 <g id="figure_1">
  <g id="patch_1">
   <path d="M 0 432 
L 576 432 
L 576 0 
L 0 0 
z
" style="fill: #ffffff"/>
  </g>
  <g id="axes_1">
   <g id="patch_2">
    <path d="M 72 384.48 
L 518.4 384.48 
L 518.4 51.84 
L 72 51.84 
z
" style="fill: #ffffff"/>
   </g>
   <g id="matplotlib.axis_1">
    <g id="xtick_1">
     <g id="line2d_1">
      <defs>
       <path id="m8b64a59745" d="M 0 0 
L 0 3.5 
" style="stroke: #000000; stroke-width: 0.8"/>
      </defs>
      <g>
       <use xlink:href="#m8b64a59745" x="92.290909" y="384.48" style="stroke: #000000; stroke-width: 0.8"/>
      </g>
     </g>
     <g id="text_1">
      <!-- 0 -->
      <g transform="translate(89.109659 399.078438) scale(0.1 -0.1)">
       <defs>
        <path id="DejaVuSans-30" d="M 2034 4250 
Q 1547 4250 1301 3770 
Q 1056 3291 1056 2328 
Q 1056 1369 1301 889 
Q 1547 409 2034 409 
Q 2525 409 2770 889 
Q 3016 1369 3016 2328 
Q 3016 3291 2770 3770 
Q 2525 4250 2034 4250 
z
M 2034 4750 
Q 2819 4750 3233 4129 
Q 3647 3509 3647 2328 
Q 3647 1150 3233 529 
Q 2819 -91 2034 -91 
Q 1250 -91 836 529 
Q 422 1150 422 2328 
Q 422 3509 836 4129 
Q 1250 4750 2034 4750 
z
" transform="scale(0.015625)"/>
       </defs>
       <use xlink:href="#DejaVuSans-30"/>
      </g>
     </g>
    </g>
    <g id="xtick_2">
     <g id="line2d_2">
      <g>
       <use xlink:href="#m8b64a59745" x="143.273093" y="384.48" style="stroke: #000000; stroke-width: 0.8"/>
      </g>
     </g>
     <g id="text_2">
      <!-- 25 -->
      <g transform="translate(136.910593 399.078438) scale(0.1 -0.1)">
       <defs>
        <path id="DejaVuSans-32" d="M 1228 531 
L 3431 531 
L 3431 0 
L 469 0 
L 469 531 
Q 828 903 1448 1529 
Q 2069 2156 2228 2338 
Q 2531 2678 2651 2914 
Q 2772 3150 2772 3378 
Q 2772 3750 2511 3984 
Q 2250 4219 1831 4219 
Q 1534 4219 1204 4116 
Q 875 4013 500 3803 
L 500 4441 
Q 881 4594 1212 4672 
Q 1544 4750 1819 4750 
Q 2544 4750 2975 4387 
Q 3406 4025 3406 3419 
Q 3406 3131 3298 2873 
Q 3191 2616 2906 2266 
Q 2828 2175 2409 1742 
Q 1991 1309 1228 531 
z
" transform="scale(0.015625)"/>
        <path id="DejaVuSans-35" d="M 691 4666 
L 3169 4666 
L 3169 4134 
L 1269 4134 
L 1269 2991 
Q 1406 3038 1543 3061 
Q 1681 3084 1819 3084 
Q 2600 3084 3056 2656 
Q 3513 2228 3513 1497 
Q 3513 744 3044 326 
Q 2575 -91 1722 -91 
Q 1428 -91 1123 -41 
Q 819 9 494 109 
L 494 744 
Q 775 591 1075 516 
Q 1375 441 1709 441 
Q 2250 441 2565 725 
Q 2881 1009 2881 1497 
Q 2881 1984 2565 2268 
Q 2250 2553 1709 2553 
Q 1456 2553 1204 2497 
Q 953 2441 691 2322 
L 691 4666 
z
" transform="scale(0.015625)"/>
       </defs>
       <use xlink:href="#DejaVuSans-32"/>
       <use xlink:href="#DejaVuSans-35" x="63.623047"/>
      </g>
     </g>
    </g>
    <g id="xtick_3">
     <g id="line2d_3">
      <g>
       <use xlink:href="#m8b64a59745" x="194.255276" y="384.48" style="stroke: #000000; stroke-width: 0.8"/>
      </g>
     </g>
     <g id="text_3">
      <!-- 50 -->
      <g transform="translate(187.892776 399.078438) scale(0.1 -0.1)">
       <use xlink:href="#DejaVuSans-35"/>
       <use xlink:href="#DejaVuSans-30" x="63.623047"/>
      </g>
     </g>
    </g>
    <g id="xtick_4">
     <g id="line2d_4">
      <g>
       <use xlink:href="#m8b64a59745" x="245.23746" y="384.48" style="stroke: #000000; stroke-width: 0.8"/>
      </g>
     </g>
     <g id="text_4">
      <!-- 75 -->
      <g transform="translate(238.87496 399.078438) scale(0.1 -0.1)">
       <defs>
        <path id="DejaVuSans-37" d="M 525 4666 
L 3525 4666 
L 3525 4397 
L 1831 0 
L 1172 0 
L 2766 4134 
L 525 4134 
L 525 4666 
z
" transform="scale(0.015625)"/>
       </defs>
       <use xlink:href="#DejaVuSans-37"/>
       <use xlink:href="#DejaVuSans-35" x="63.623047"/>
      </g>
     </g>
    </g>
    <g id="xtick_5">
     <g id="line2d_5">
      <g>
       <use xlink:href="#m8b64a59745" x="296.219644" y="384.48" style="stroke: #000000; stroke-width: 0.8"/>
      </g>
     </g>
     <g id="text_5">
      <!-- 100 -->
      <g transform="translate(286.675894 399.078438) scale(0.1 -0.1)">
       <defs>
        <path id="DejaVuSans-31" d="M 794 531 
L 1825 531 
L 1825 4091 
L 703 3866 
L 703 4441 
L 1819 4666 
L 2450 4666 
L 2450 531 
L 3481 531 
L 3481 0 
L 794 0 
L 794 531 
z
" transform="scale(0.015625)"/>
       </defs>
       <use xlink:href="#DejaVuSans-31"/>
       <use xlink:href="#DejaVuSans-30" x="63.623047"/>
       <use xlink:href="#DejaVuSans-30" x="127.246094"/>
      </g>
     </g>
    </g>
    <g id="xtick_6">
     <g id="line2d_6">
      <g>
       <use xlink:href="#m8b64a59745" x="347.201827" y="384.48" style="stroke: #000000; stroke-width: 0.8"/>
      </g>
     </g>
     <g id="text_6">
      <!-- 125 -->
      <g transform="translate(337.658077 399.078438) scale(0.1 -0.1)">
       <use xlink:href="#DejaVuSans-31"/>
       <use xlink:href="#DejaVuSans-32" x="63.623047"/>
       <use xlink:href="#DejaVuSans-35" x="127.246094"/>
      </g>
     </g>
    </g>
    <g id="xtick_7">
     <g id="line2d_7">
      <g>
       <use xlink:href="#m8b64a59745" x="398.184011" y="384.48" style="stroke: #000000; stroke-width: 0.8"/>
      </g>
     </g>
     <g id="text_7">
      <!-- 150 -->
      <g transform="translate(388.640261 399.078438) scale(0.1 -0.1)">
       <use xlink:href="#DejaVuSans-31"/>
       <use xlink:href="#DejaVuSans-35" x="63.623047"/>
       <use xlink:href="#DejaVuSans-30" x="127.246094"/>
      </g>
     </g>
    </g>
    <g id="xtick_8">
     <g id="line2d_8">
      <g>
       <use xlink:href="#m8b64a59745" x="449.166195" y="384.48" style="stroke: #000000; stroke-width: 0.8"/>
      </g>
     </g>
     <g id="text_8">
      <!-- 175 -->
      <g transform="translate(439.622445 399.078438) scale(0.1 -0.1)">
       <use xlink:href="#DejaVuSans-31"/>
       <use xlink:href="#DejaVuSans-37" x="63.623047"/>
       <use xlink:href="#DejaVuSans-35" x="127.246094"/>
      </g>
     </g>
    </g>
    <g id="xtick_9">
     <g id="line2d_9">
      <g>
       <use xlink:href="#m8b64a59745" x="500.148378" y="384.48" style="stroke: #000000; stroke-width: 0.8"/>
      </g>
     </g>
     <g id="text_9">
      <!-- 200 -->
      <g transform="translate(490.604628 399.078438) scale(0.1 -0.1)">
       <use xlink:href="#DejaVuSans-32"/>
       <use xlink:href="#DejaVuSans-30" x="63.623047"/>
       <use xlink:href="#DejaVuSans-30" x="127.246094"/>
      </g>
     </g>
    </g>
    <g id="text_10">
     <!-- epoch -->
     <g transform="translate(279.971875 412.756563) scale(0.1 -0.1)">
      <defs>
       <path id="DejaVuSans-65" d="M 3597 1894 
L 3597 1613 
L 953 1613 
Q 991 1019 1311 708 
Q 1631 397 2203 397 
Q 2534 397 2845 478 
Q 3156 559 3463 722 
L 3463 178 
Q 3153 47 2828 -22 
Q 2503 -91 2169 -91 
Q 1331 -91 842 396 
Q 353 884 353 1716 
Q 353 2575 817 3079 
Q 1281 3584 2069 3584 
Q 2775 3584 3186 3129 
Q 3597 2675 3597 1894 
z
M 3022 2063 
Q 3016 2534 2758 2815 
Q 2500 3097 2075 3097 
Q 1594 3097 1305 2825 
Q 1016 2553 972 2059 
L 3022 2063 
z
" transform="scale(0.015625)"/>
       <path id="DejaVuSans-70" d="M 1159 525 
L 1159 -1331 
L 581 -1331 
L 581 3500 
L 1159 3500 
L 1159 2969 
Q 1341 3281 1617 3432 
Q 1894 3584 2278 3584 
Q 2916 3584 3314 3078 
Q 3713 2572 3713 1747 
Q 3713 922 3314 415 
Q 2916 -91 2278 -91 
Q 1894 -91 1617 61 
Q 1341 213 1159 525 
z
M 3116 1747 
Q 3116 2381 2855 2742 
Q 2594 3103 2138 3103 
Q 1681 3103 1420 2742 
Q 1159 2381 1159 1747 
Q 1159 1113 1420 752 
Q 1681 391 2138 391 
Q 2594 391 2855 752 
Q 3116 1113 3116 1747 
z
" transform="scale(0.015625)"/>
       <path id="DejaVuSans-6f" d="M 1959 3097 
Q 1497 3097 1228 2736 
Q 959 2375 959 1747 
Q 959 1119 1226 758 
Q 1494 397 1959 397 
Q 2419 397 2687 759 
Q 2956 1122 2956 1747 
Q 2956 2369 2687 2733 
Q 2419 3097 1959 3097 
z
M 1959 3584 
Q 2709 3584 3137 3096 
Q 3566 2609 3566 1747 
Q 3566 888 3137 398 
Q 2709 -91 1959 -91 
Q 1206 -91 779 398 
Q 353 888 353 1747 
Q 353 2609 779 3096 
Q 1206 3584 1959 3584 
z
" transform="scale(0.015625)"/>
       <path id="DejaVuSans-63" d="M 3122 3366 
L 3122 2828 
Q 2878 2963 2633 3030 
Q 2388 3097 2138 3097 
Q 1578 3097 1268 2742 
Q 959 2388 959 1747 
Q 959 1106 1268 751 
Q 1578 397 2138 397 
Q 2388 397 2633 464 
Q 2878 531 3122 666 
L 3122 134 
Q 2881 22 2623 -34 
Q 2366 -91 2075 -91 
Q 1284 -91 818 406 
Q 353 903 353 1747 
Q 353 2603 823 3093 
Q 1294 3584 2113 3584 
Q 2378 3584 2631 3529 
Q 2884 3475 3122 3366 
z
" transform="scale(0.015625)"/>
       <path id="DejaVuSans-68" d="M 3513 2113 
L 3513 0 
L 2938 0 
L 2938 2094 
Q 2938 2591 2744 2837 
Q 2550 3084 2163 3084 
Q 1697 3084 1428 2787 
Q 1159 2491 1159 1978 
L 1159 0 
L 581 0 
L 581 4863 
L 1159 4863 
L 1159 2956 
Q 1366 3272 1645 3428 
Q 1925 3584 2291 3584 
Q 2894 3584 3203 3211 
Q 3513 2838 3513 2113 
z
" transform="scale(0.015625)"/>
      </defs>
      <use xlink:href="#DejaVuSans-65"/>
      <use xlink:href="#DejaVuSans-70" x="61.523438"/>
      <use xlink:href="#DejaVuSans-6f" x="125"/>
      <use xlink:href="#DejaVuSans-63" x="186.181641"/>
      <use xlink:href="#DejaVuSans-68" x="241.162109"/>
     </g>
    </g>
   </g>
   <g id="matplotlib.axis_2">
    <g id="ytick_1">
     <g id="line2d_10">
      <defs>
       <path id="mfa719226ce" d="M 0 0 
L -3.5 0 
" style="stroke: #000000; stroke-width: 0.8"/>
      </defs>
      <g>
       <use xlink:href="#mfa719226ce" x="72" y="384.48" style="stroke: #000000; stroke-width: 0.8"/>
      </g>
     </g>
     <g id="text_11">
      <!-- 0 -->
      <g transform="translate(58.6375 388.279219) scale(0.1 -0.1)">
       <use xlink:href="#DejaVuSans-30"/>
      </g>
     </g>
    </g>
    <g id="ytick_2">
     <g id="line2d_11">
      <g>
       <use xlink:href="#mfa719226ce" x="72" y="317.952" style="stroke: #000000; stroke-width: 0.8"/>
      </g>
     </g>
     <g id="text_12">
      <!-- 20 -->
      <g transform="translate(52.275 321.751219) scale(0.1 -0.1)">
       <use xlink:href="#DejaVuSans-32"/>
       <use xlink:href="#DejaVuSans-30" x="63.623047"/>
      </g>
     </g>
    </g>
    <g id="ytick_3">
     <g id="line2d_12">
      <g>
       <use xlink:href="#mfa719226ce" x="72" y="251.424" style="stroke: #000000; stroke-width: 0.8"/>
      </g>
     </g>
     <g id="text_13">
      <!-- 40 -->
      <g transform="translate(52.275 255.223219) scale(0.1 -0.1)">
       <defs>
        <path id="DejaVuSans-34" d="M 2419 4116 
L 825 1625 
L 2419 1625 
L 2419 4116 
z
M 2253 4666 
L 3047 4666 
L 3047 1625 
L 3713 1625 
L 3713 1100 
L 3047 1100 
L 3047 0 
L 2419 0 
L 2419 1100 
L 313 1100 
L 313 1709 
L 2253 4666 
z
" transform="scale(0.015625)"/>
       </defs>
       <use xlink:href="#DejaVuSans-34"/>
       <use xlink:href="#DejaVuSans-30" x="63.623047"/>
      </g>
     </g>
    </g>
    <g id="ytick_4">
     <g id="line2d_13">
      <g>
       <use xlink:href="#mfa719226ce" x="72" y="184.896" style="stroke: #000000; stroke-width: 0.8"/>
      </g>
     </g>
     <g id="text_14">
      <!-- 60 -->
      <g transform="translate(52.275 188.695219) scale(0.1 -0.1)">
       <defs>
        <path id="DejaVuSans-36" d="M 2113 2584 
Q 1688 2584 1439 2293 
Q 1191 2003 1191 1497 
Q 1191 994 1439 701 
Q 1688 409 2113 409 
Q 2538 409 2786 701 
Q 3034 994 3034 1497 
Q 3034 2003 2786 2293 
Q 2538 2584 2113 2584 
z
M 3366 4563 
L 3366 3988 
Q 3128 4100 2886 4159 
Q 2644 4219 2406 4219 
Q 1781 4219 1451 3797 
Q 1122 3375 1075 2522 
Q 1259 2794 1537 2939 
Q 1816 3084 2150 3084 
Q 2853 3084 3261 2657 
Q 3669 2231 3669 1497 
Q 3669 778 3244 343 
Q 2819 -91 2113 -91 
Q 1303 -91 875 529 
Q 447 1150 447 2328 
Q 447 3434 972 4092 
Q 1497 4750 2381 4750 
Q 2619 4750 2861 4703 
Q 3103 4656 3366 4563 
z
" transform="scale(0.015625)"/>
       </defs>
       <use xlink:href="#DejaVuSans-36"/>
       <use xlink:href="#DejaVuSans-30" x="63.623047"/>
      </g>
     </g>
    </g>
    <g id="ytick_5">
     <g id="line2d_14">
      <g>
       <use xlink:href="#mfa719226ce" x="72" y="118.368" style="stroke: #000000; stroke-width: 0.8"/>
      </g>
     </g>
     <g id="text_15">
      <!-- 80 -->
      <g transform="translate(52.275 122.167219) scale(0.1 -0.1)">
       <defs>
        <path id="DejaVuSans-38" d="M 2034 2216 
Q 1584 2216 1326 1975 
Q 1069 1734 1069 1313 
Q 1069 891 1326 650 
Q 1584 409 2034 409 
Q 2484 409 2743 651 
Q 3003 894 3003 1313 
Q 3003 1734 2745 1975 
Q 2488 2216 2034 2216 
z
M 1403 2484 
Q 997 2584 770 2862 
Q 544 3141 544 3541 
Q 544 4100 942 4425 
Q 1341 4750 2034 4750 
Q 2731 4750 3128 4425 
Q 3525 4100 3525 3541 
Q 3525 3141 3298 2862 
Q 3072 2584 2669 2484 
Q 3125 2378 3379 2068 
Q 3634 1759 3634 1313 
Q 3634 634 3220 271 
Q 2806 -91 2034 -91 
Q 1263 -91 848 271 
Q 434 634 434 1313 
Q 434 1759 690 2068 
Q 947 2378 1403 2484 
z
M 1172 3481 
Q 1172 3119 1398 2916 
Q 1625 2713 2034 2713 
Q 2441 2713 2670 2916 
Q 2900 3119 2900 3481 
Q 2900 3844 2670 4047 
Q 2441 4250 2034 4250 
Q 1625 4250 1398 4047 
Q 1172 3844 1172 3481 
z
" transform="scale(0.015625)"/>
       </defs>
       <use xlink:href="#DejaVuSans-38"/>
       <use xlink:href="#DejaVuSans-30" x="63.623047"/>
      </g>
     </g>
    </g>
    <g id="ytick_6">
     <g id="line2d_15">
      <g>
       <use xlink:href="#mfa719226ce" x="72" y="51.84" style="stroke: #000000; stroke-width: 0.8"/>
      </g>
     </g>
     <g id="text_16">
      <!-- 100 -->
      <g transform="translate(45.9125 55.639219) scale(0.1 -0.1)">
       <use xlink:href="#DejaVuSans-31"/>
       <use xlink:href="#DejaVuSans-30" x="63.623047"/>
       <use xlink:href="#DejaVuSans-30" x="127.246094"/>
      </g>
     </g>
    </g>
    <g id="text_17">
     <!-- rate -->
     <g transform="translate(39.832812 228.31625) rotate(-90) scale(0.1 -0.1)">
      <defs>
       <path id="DejaVuSans-72" d="M 2631 2963 
Q 2534 3019 2420 3045 
Q 2306 3072 2169 3072 
Q 1681 3072 1420 2755 
Q 1159 2438 1159 1844 
L 1159 0 
L 581 0 
L 581 3500 
L 1159 3500 
L 1159 2956 
Q 1341 3275 1631 3429 
Q 1922 3584 2338 3584 
Q 2397 3584 2469 3576 
Q 2541 3569 2628 3553 
L 2631 2963 
z
" transform="scale(0.015625)"/>
       <path id="DejaVuSans-61" d="M 2194 1759 
Q 1497 1759 1228 1600 
Q 959 1441 959 1056 
Q 959 750 1161 570 
Q 1363 391 1709 391 
Q 2188 391 2477 730 
Q 2766 1069 2766 1631 
L 2766 1759 
L 2194 1759 
z
M 3341 1997 
L 3341 0 
L 2766 0 
L 2766 531 
Q 2569 213 2275 61 
Q 1981 -91 1556 -91 
Q 1019 -91 701 211 
Q 384 513 384 1019 
Q 384 1609 779 1909 
Q 1175 2209 1959 2209 
L 2766 2209 
L 2766 2266 
Q 2766 2663 2505 2880 
Q 2244 3097 1772 3097 
Q 1472 3097 1187 3025 
Q 903 2953 641 2809 
L 641 3341 
Q 956 3463 1253 3523 
Q 1550 3584 1831 3584 
Q 2591 3584 2966 3190 
Q 3341 2797 3341 1997 
z
" transform="scale(0.015625)"/>
       <path id="DejaVuSans-74" d="M 1172 4494 
L 1172 3500 
L 2356 3500 
L 2356 3053 
L 1172 3053 
L 1172 1153 
Q 1172 725 1289 603 
Q 1406 481 1766 481 
L 2356 481 
L 2356 0 
L 1766 0 
Q 1100 0 847 248 
Q 594 497 594 1153 
L 594 3053 
L 172 3053 
L 172 3500 
L 594 3500 
L 594 4494 
L 1172 4494 
z
" transform="scale(0.015625)"/>
      </defs>
      <use xlink:href="#DejaVuSans-72"/>
      <use xlink:href="#DejaVuSans-61" x="41.113281"/>
      <use xlink:href="#DejaVuSans-74" x="102.392578"/>
      <use xlink:href="#DejaVuSans-65" x="141.601562"/>
     </g>
    </g>
   </g>
   <g id="line2d_16">
    <path d="M 92.290909 206.291009 
L 94.330196 114.087371 
L 96.369484 104.263234 
L 98.408771 58.677606 
L 100.448058 82.941962 
L 102.487346 55.324228 
L 104.526633 165.646013 
L 106.565921 156.40601 
L 108.605208 140.015994 
L 110.644495 100.996244 
L 112.683783 118.368 
L 114.72307 128.927985 
L 116.762357 133.006271 
L 118.801645 87.191248 
L 120.840932 148.637245 
L 122.880219 144.239977 
L 124.919507 145.625994 
L 126.958794 55.007988 
L 128.998081 84.488015 
L 131.037369 53.225992 
L 133.076656 101.359257 
L 135.115943 90.186003 
L 137.155231 94.501857 
L 139.194518 108.666008 
L 141.233805 158.86561 
L 143.273093 160.118518 
L 145.31238 52.610007 
L 147.351667 148.175256 
L 149.390955 52.610007 
L 151.430242 53.476248 
L 153.469529 53.476248 
L 155.508817 91.052244 
L 157.548104 186.112591 
L 159.587392 170.744487 
L 161.626679 80.32999 
L 163.665966 146.021999 
L 165.705254 139.397217 
L 167.744541 51.84 
L 171.823116 136.319982 
L 173.862403 156.714003 
L 175.90169 135 
L 177.940978 142.661516 
L 179.980265 155.443508 
L 182.019552 180.202845 
L 184.05884 81.407989 
L 186.098127 84.727257 
L 188.137414 51.84 
L 190.176702 84.727257 
L 192.215989 143.192255 
L 194.255276 88.799986 
L 196.294564 53.688006 
L 198.333851 145.098022 
L 200.373138 162.719983 
L 202.412426 181.969995 
L 204.451713 135.770007 
L 206.491 147.578508 
L 208.530288 54.46626 
L 210.569575 56.930251 
L 214.64815 128.716253 
L 216.687437 143.239002 
L 218.726725 130.379986 
L 220.766012 162.107856 
L 222.805299 97.201257 
L 224.844587 169.966257 
L 226.883874 136.848006 
L 228.923161 144.883498 
L 230.962449 90.186003 
L 233.001736 162.527488 
L 235.041023 100.746013 
L 237.080311 108.049998 
L 239.119598 158.716005 
L 241.158885 153.257234 
L 243.198173 149.15697 
L 245.23746 129.725502 
L 247.276747 169.61974 
L 249.316035 100.435255 
L 251.355322 176.984253 
L 253.394609 163.42124 
L 255.433897 175.039987 
L 257.473184 192.781366 
L 259.512471 55.073997 
L 261.551759 59.02024 
L 263.591046 176.117999 
L 265.630333 109.127997 
L 267.669621 149.629998 
L 269.708908 127.453981 
L 271.748196 159.573998 
L 273.787483 107.983989 
L 275.82677 90.436234 
L 277.866058 187.079483 
L 281.944632 95.268006 
L 283.98392 94.805992 
L 286.023207 156.493997 
L 288.062494 82.802254 
L 290.101782 143.786237 
L 292.141069 134.315265 
L 294.180356 192.538241 
L 296.219644 168.725989 
L 298.258931 168.533493 
L 300.298218 59.405256 
L 302.337506 183.13324 
L 304.376793 54.766005 
L 306.41608 129.329497 
L 308.455368 101.88284 
L 310.494655 132.632244 
L 312.533942 148.956252 
L 314.57323 140.421363 
L 316.612517 101.978009 
L 318.651804 174.084096 
L 320.691092 138.345104 
L 322.730379 112.084253 
L 324.769667 130.831011 
L 326.808954 197.131862 
L 328.848241 163.798008 
L 330.887529 147.867264 
L 332.926816 148.340242 
L 334.966103 98.491014 
L 337.005391 82.486013 
L 339.044678 181.200001 
L 341.083965 149.275259 
L 343.123253 127.396245 
L 345.16254 55.621257 
L 347.201827 95.999488 
L 349.241115 107.280017 
L 351.280402 174.049987 
L 353.319689 183.509996 
L 355.358977 130.234238 
L 357.398264 186.928253 
L 359.437551 104.527271 
L 361.476839 146.850858 
L 363.516126 142.288606 
L 365.555413 135.451 
L 367.594701 95.66401 
L 369.633988 206.228857 
L 371.673275 186.00425 
L 373.712563 121.073999 
L 375.75185 176.117999 
L 377.791138 108.292007 
L 379.830425 140.998849 
L 381.869712 189.447251 
L 383.909 57.383992 
L 385.948287 185.446014 
L 387.987574 149.132226 
L 390.026862 151.104002 
L 392.066149 165.954006 
L 394.105436 132.998023 
L 396.144724 154.812068 
L 398.184011 177.966004 
L 400.223298 108.496608 
L 402.262586 127.911579 
L 404.301873 153.28751 
L 406.34116 137.299031 
L 408.380448 118.060008 
L 410.419735 143.558009 
L 412.459022 186.22423 
L 414.49831 143.777989 
L 416.537597 167.174987 
L 418.576884 164.356257 
L 420.616172 179.844236 
L 422.655459 188.927489 
L 424.694746 206.992253 
L 426.734034 147.935989 
L 428.773321 129.541255 
L 430.812608 150.746522 
L 432.851896 174.239729 
L 434.891183 142.268277 
L 436.930471 112.370242 
L 438.969758 160.679533 
L 441.009045 88.676241 
L 443.048333 160.787873 
L 445.08762 170.824251 
L 447.126907 188.379695 
L 449.166195 54.092258 
L 451.205482 182.220252 
L 453.244769 152.264481 
L 455.284057 155.328011 
L 457.323344 124.990016 
L 459.362631 119.146229 
L 461.401919 185.905236 
L 463.441206 176.267592 
L 465.480493 182.116835 
L 467.519781 143.555242 
L 469.559068 64.022503 
L 471.598355 178.119988 
L 473.637643 91.564863 
L 475.67693 169.804013 
L 477.716217 93.871 
L 479.755505 158.765518 
L 481.794792 164.557 
L 483.834079 188.369252 
L 485.873367 196.157254 
L 487.912654 201.666604 
L 489.951942 199.888986 
L 491.991229 145.202505 
L 494.030516 182.586006 
L 496.069804 139.100264 
L 498.109091 113.991111 
L 498.109091 113.991111 
" clip-path="url(#pdce23d2daa)" style="fill: none; stroke: #0000ff; stroke-width: 1.5; stroke-linecap: square"/>
   </g>
   <g id="line2d_17">
    <path d="M 92.290909 192.076125 
L 94.330196 186.938988 
L 96.369484 181.368235 
L 98.408771 156.275616 
L 100.448058 140.7575 
L 102.487346 143.119038 
L 104.526633 100.511491 
L 106.565921 117.728159 
L 108.605208 131.07 
L 112.683783 66.132389 
L 114.72307 70.143879 
L 116.762357 140.489403 
L 118.801645 136.345741 
L 120.840932 75.601762 
L 122.880219 135.379991 
L 124.919507 128.304006 
L 128.998081 138.399261 
L 131.037369 124.420144 
L 133.076656 128.700011 
L 135.115943 110.406562 
L 137.155231 110.813657 
L 139.194518 131.46537 
L 141.233805 130.21023 
L 143.273093 124.505973 
L 145.31238 97.890231 
L 147.351667 109.477509 
L 149.390955 137.996404 
L 151.430242 129.830391 
L 153.469529 128.04776 
L 155.508817 140.560284 
L 157.548104 139.264792 
L 159.587392 130.127547 
L 161.626679 139.508171 
L 165.705254 64.592427 
L 167.744541 119.270406 
L 169.783828 73.782307 
L 171.823116 142.656288 
L 173.862403 64.23959 
L 175.90169 144.997269 
L 177.940978 132.153303 
L 179.980265 145.694389 
L 182.019552 118.076377 
L 184.05884 147.629291 
L 186.098127 125.0074 
L 188.137414 128.352225 
L 190.176702 135.834163 
L 192.215989 101.859238 
L 194.255276 103.969225 
L 196.294564 102.330642 
L 198.333851 136.980024 
L 200.373138 132.06326 
L 202.412426 117.383064 
L 204.451713 139.950035 
L 206.491 112.509519 
L 208.530288 138.676165 
L 210.569575 107.1464 
L 212.608862 101.604591 
L 214.64815 139.869433 
L 216.687437 129.829452 
L 218.726725 70.761286 
L 220.766012 151.249547 
L 222.805299 131.862263 
L 224.844587 119.41085 
L 226.883874 103.096613 
L 228.923161 136.085359 
L 230.962449 103.356006 
L 233.001736 122.727403 
L 235.041023 115.857288 
L 237.080311 135.882966 
L 239.119598 125.80677 
L 241.158885 64.231368 
L 243.198173 139.025372 
L 245.23746 124.092128 
L 247.276747 132.126478 
L 249.316035 63.928553 
L 251.355322 131.322515 
L 253.394609 125.531287 
L 255.433897 59.242149 
L 257.473184 140.919871 
L 259.512471 102.84321 
L 261.551759 141.69843 
L 263.591046 60.813301 
L 265.630333 132.111631 
L 267.669621 124.520947 
L 269.708908 101.004264 
L 271.748196 56.443493 
L 273.787483 135.986637 
L 275.82677 133.608577 
L 277.866058 64.063997 
L 279.905345 55.381152 
L 281.944632 104.19324 
L 283.98392 100.883996 
L 286.023207 135.637785 
L 288.062494 128.630981 
L 290.101782 69.67179 
L 292.141069 117.933268 
L 294.180356 143.663075 
L 296.219644 61.603763 
L 298.258931 58.503256 
L 300.298218 57.570218 
L 302.337506 134.672365 
L 304.376793 138.607466 
L 306.41608 147.337134 
L 308.455368 59.078635 
L 310.494655 140.887387 
L 312.533942 57.251389 
L 314.57323 127.095207 
L 316.612517 132.703532 
L 318.651804 105.014283 
L 320.691092 140.043148 
L 322.730379 99.566983 
L 324.769667 116.561437 
L 326.808954 103.489471 
L 328.848241 136.03077 
L 330.887529 71.735715 
L 332.926816 153.900298 
L 334.966103 131.069568 
L 337.005391 143.522733 
L 339.044678 65.362129 
L 341.083965 141.10856 
L 343.123253 136.357162 
L 345.16254 61.252449 
L 347.201827 127.194842 
L 349.241115 137.95651 
L 351.280402 109.864453 
L 353.319689 58.340225 
L 355.358977 135.352252 
L 357.398264 61.20659 
L 359.437551 134.790577 
L 361.476839 68.620718 
L 363.516126 55.200585 
L 365.555413 144.010176 
L 367.594701 137.070168 
L 369.633988 138.495293 
L 371.673275 145.430682 
L 373.712563 133.604136 
L 375.75185 123.511139 
L 377.791138 100.8474 
L 379.830425 139.552761 
L 381.869712 133.013657 
L 383.909 142.534421 
L 385.948287 130.07443 
L 387.987574 136.439109 
L 390.026862 118.002297 
L 392.066149 132.654907 
L 394.105436 65.079971 
L 396.144724 139.331791 
L 398.184011 96.502158 
L 400.223298 142.061672 
L 402.262586 57.12602 
L 404.301873 138.976544 
L 406.34116 64.023646 
L 408.380448 135.28769 
L 410.419735 56.908476 
L 412.459022 139.960821 
L 414.49831 140.557366 
L 416.537597 133.026625 
L 418.576884 122.555388 
L 420.616172 145.851456 
L 422.655459 110.428616 
L 424.694746 139.050624 
L 426.734034 62.738279 
L 428.773321 104.900384 
L 430.812608 129.333278 
L 432.851896 125.468628 
L 434.891183 53.99308 
L 436.930471 63.356345 
L 438.969758 135.039996 
L 441.009045 150.183451 
L 443.048333 114.292556 
L 445.08762 130.075242 
L 447.126907 65.399739 
L 449.166195 146.154678 
L 451.205482 122.920152 
L 453.244769 149.917713 
L 455.284057 128.779801 
L 457.323344 132.080797 
L 459.362631 120.252018 
L 461.401919 131.458873 
L 463.441206 140.990347 
L 465.480493 63.890993 
L 467.519781 61.704287 
L 469.559068 136.353304 
L 471.598355 146.737442 
L 473.637643 143.491847 
L 475.67693 66.569075 
L 477.716217 128.942095 
L 479.755505 137.459803 
L 481.794792 131.537978 
L 483.834079 150.762028 
L 485.873367 61.822474 
L 487.912654 140.670757 
L 489.951942 137.596161 
L 491.991229 135.285634 
L 494.030516 62.939099 
L 496.069804 142.741153 
L 498.109091 69.894283 
L 498.109091 69.894283 
" clip-path="url(#pdce23d2daa)" style="fill: none; stroke: #008000; stroke-width: 1.5; stroke-linecap: square"/>
   </g>
   <g id="patch_3">
    <path d="M 72 384.48 
L 72 51.84 
" style="fill: none; stroke: #000000; stroke-width: 0.8; stroke-linejoin: miter; stroke-linecap: square"/>
   </g>
   <g id="patch_4">
    <path d="M 518.4 384.48 
L 518.4 51.84 
" style="fill: none; stroke: #000000; stroke-width: 0.8; stroke-linejoin: miter; stroke-linecap: square"/>
   </g>
   <g id="patch_5">
    <path d="M 72 384.48 
L 518.4 384.48 
" style="fill: none; stroke: #000000; stroke-width: 0.8; stroke-linejoin: miter; stroke-linecap: square"/>
   </g>
   <g id="patch_6">
    <path d="M 72 51.84 
L 518.4 51.84 
" style="fill: none; stroke: #000000; stroke-width: 0.8; stroke-linejoin: miter; stroke-linecap: square"/>
   </g>
   <g id="legend_1">
    <g id="patch_7">
     <path d="M 79 89.19625 
L 160.740625 89.19625 
Q 162.740625 89.19625 162.740625 87.19625 
L 162.740625 58.84 
Q 162.740625 56.84 160.740625 56.84 
L 79 56.84 
Q 77 56.84 77 58.84 
L 77 87.19625 
Q 77 89.19625 79 89.19625 
z
" style="fill: #ffffff; opacity: 0.8; stroke: #cccccc; stroke-linejoin: miter"/>
    </g>
    <g id="line2d_18">
     <path d="M 81 64.938437 
L 91 64.938437 
L 101 64.938437 
" style="fill: none; stroke: #0000ff; stroke-width: 1.5; stroke-linecap: square"/>
    </g>
    <g id="text_18">
     <!-- train mAP -->
     <g transform="translate(109 68.438437) scale(0.1 -0.1)">
      <defs>
       <path id="DejaVuSans-69" d="M 603 3500 
L 1178 3500 
L 1178 0 
L 603 0 
L 603 3500 
z
M 603 4863 
L 1178 4863 
L 1178 4134 
L 603 4134 
L 603 4863 
z
" transform="scale(0.015625)"/>
       <path id="DejaVuSans-6e" d="M 3513 2113 
L 3513 0 
L 2938 0 
L 2938 2094 
Q 2938 2591 2744 2837 
Q 2550 3084 2163 3084 
Q 1697 3084 1428 2787 
Q 1159 2491 1159 1978 
L 1159 0 
L 581 0 
L 581 3500 
L 1159 3500 
L 1159 2956 
Q 1366 3272 1645 3428 
Q 1925 3584 2291 3584 
Q 2894 3584 3203 3211 
Q 3513 2838 3513 2113 
z
" transform="scale(0.015625)"/>
       <path id="DejaVuSans-20" transform="scale(0.015625)"/>
       <path id="DejaVuSans-6d" d="M 3328 2828 
Q 3544 3216 3844 3400 
Q 4144 3584 4550 3584 
Q 5097 3584 5394 3201 
Q 5691 2819 5691 2113 
L 5691 0 
L 5113 0 
L 5113 2094 
Q 5113 2597 4934 2840 
Q 4756 3084 4391 3084 
Q 3944 3084 3684 2787 
Q 3425 2491 3425 1978 
L 3425 0 
L 2847 0 
L 2847 2094 
Q 2847 2600 2669 2842 
Q 2491 3084 2119 3084 
Q 1678 3084 1418 2786 
Q 1159 2488 1159 1978 
L 1159 0 
L 581 0 
L 581 3500 
L 1159 3500 
L 1159 2956 
Q 1356 3278 1631 3431 
Q 1906 3584 2284 3584 
Q 2666 3584 2933 3390 
Q 3200 3197 3328 2828 
z
" transform="scale(0.015625)"/>
       <path id="DejaVuSans-41" d="M 2188 4044 
L 1331 1722 
L 3047 1722 
L 2188 4044 
z
M 1831 4666 
L 2547 4666 
L 4325 0 
L 3669 0 
L 3244 1197 
L 1141 1197 
L 716 0 
L 50 0 
L 1831 4666 
z
" transform="scale(0.015625)"/>
       <path id="DejaVuSans-50" d="M 1259 4147 
L 1259 2394 
L 2053 2394 
Q 2494 2394 2734 2622 
Q 2975 2850 2975 3272 
Q 2975 3691 2734 3919 
Q 2494 4147 2053 4147 
L 1259 4147 
z
M 628 4666 
L 2053 4666 
Q 2838 4666 3239 4311 
Q 3641 3956 3641 3272 
Q 3641 2581 3239 2228 
Q 2838 1875 2053 1875 
L 1259 1875 
L 1259 0 
L 628 0 
L 628 4666 
z
" transform="scale(0.015625)"/>
      </defs>
      <use xlink:href="#DejaVuSans-74"/>
      <use xlink:href="#DejaVuSans-72" x="39.208984"/>
      <use xlink:href="#DejaVuSans-61" x="80.322266"/>
      <use xlink:href="#DejaVuSans-69" x="141.601562"/>
      <use xlink:href="#DejaVuSans-6e" x="169.384766"/>
      <use xlink:href="#DejaVuSans-20" x="232.763672"/>
      <use xlink:href="#DejaVuSans-6d" x="264.550781"/>
      <use xlink:href="#DejaVuSans-41" x="361.962891"/>
      <use xlink:href="#DejaVuSans-50" x="430.371094"/>
     </g>
    </g>
    <g id="line2d_19">
     <path d="M 81 79.616562 
L 91 79.616562 
L 101 79.616562 
" style="fill: none; stroke: #008000; stroke-width: 1.5; stroke-linecap: square"/>
    </g>
    <g id="text_19">
     <!-- valid mAP -->
     <g transform="translate(109 83.116562) scale(0.1 -0.1)">
      <defs>
       <path id="DejaVuSans-76" d="M 191 3500 
L 800 3500 
L 1894 563 
L 2988 3500 
L 3597 3500 
L 2284 0 
L 1503 0 
L 191 3500 
z
" transform="scale(0.015625)"/>
       <path id="DejaVuSans-6c" d="M 603 4863 
L 1178 4863 
L 1178 0 
L 603 0 
L 603 4863 
z
" transform="scale(0.015625)"/>
       <path id="DejaVuSans-64" d="M 2906 2969 
L 2906 4863 
L 3481 4863 
L 3481 0 
L 2906 0 
L 2906 525 
Q 2725 213 2448 61 
Q 2172 -91 1784 -91 
Q 1150 -91 751 415 
Q 353 922 353 1747 
Q 353 2572 751 3078 
Q 1150 3584 1784 3584 
Q 2172 3584 2448 3432 
Q 2725 3281 2906 2969 
z
M 947 1747 
Q 947 1113 1208 752 
Q 1469 391 1925 391 
Q 2381 391 2643 752 
Q 2906 1113 2906 1747 
Q 2906 2381 2643 2742 
Q 2381 3103 1925 3103 
Q 1469 3103 1208 2742 
Q 947 2381 947 1747 
z
" transform="scale(0.015625)"/>
      </defs>
      <use xlink:href="#DejaVuSans-76"/>
      <use xlink:href="#DejaVuSans-61" x="59.179688"/>
      <use xlink:href="#DejaVuSans-6c" x="120.458984"/>
      <use xlink:href="#DejaVuSans-69" x="148.242188"/>
      <use xlink:href="#DejaVuSans-64" x="176.025391"/>
      <use xlink:href="#DejaVuSans-20" x="239.501953"/>
      <use xlink:href="#DejaVuSans-6d" x="271.289062"/>
      <use xlink:href="#DejaVuSans-41" x="368.701172"/>
      <use xlink:href="#DejaVuSans-50" x="437.109375"/>
     </g>
    </g>
   </g>
  </g>
  <g id="axes_2">
   <g id="matplotlib.axis_3">
    <g id="ytick_7">
     <g id="line2d_20">
      <defs>
       <path id="mb6a739a51d" d="M 0 0 
L 3.5 0 
" style="stroke: #000000; stroke-width: 0.8"/>
      </defs>
      <g>
       <use xlink:href="#mb6a739a51d" x="518.4" y="356.581679" style="stroke: #000000; stroke-width: 0.8"/>
      </g>
     </g>
     <g id="text_20">
      <!-- 1 -->
      <g transform="translate(525.4 360.380898) scale(0.1 -0.1)">
       <use xlink:href="#DejaVuSans-31"/>
      </g>
     </g>
    </g>
    <g id="ytick_8">
     <g id="line2d_21">
      <g>
       <use xlink:href="#mb6a739a51d" x="518.4" y="301.746277" style="stroke: #000000; stroke-width: 0.8"/>
      </g>
     </g>
     <g id="text_21">
      <!-- 2 -->
      <g transform="translate(525.4 305.545496) scale(0.1 -0.1)">
       <use xlink:href="#DejaVuSans-32"/>
      </g>
     </g>
    </g>
    <g id="ytick_9">
     <g id="line2d_22">
      <g>
       <use xlink:href="#mb6a739a51d" x="518.4" y="246.910874" style="stroke: #000000; stroke-width: 0.8"/>
      </g>
     </g>
     <g id="text_22">
      <!-- 3 -->
      <g transform="translate(525.4 250.710093) scale(0.1 -0.1)">
       <defs>
        <path id="DejaVuSans-33" d="M 2597 2516 
Q 3050 2419 3304 2112 
Q 3559 1806 3559 1356 
Q 3559 666 3084 287 
Q 2609 -91 1734 -91 
Q 1441 -91 1130 -33 
Q 819 25 488 141 
L 488 750 
Q 750 597 1062 519 
Q 1375 441 1716 441 
Q 2309 441 2620 675 
Q 2931 909 2931 1356 
Q 2931 1769 2642 2001 
Q 2353 2234 1838 2234 
L 1294 2234 
L 1294 2753 
L 1863 2753 
Q 2328 2753 2575 2939 
Q 2822 3125 2822 3475 
Q 2822 3834 2567 4026 
Q 2313 4219 1838 4219 
Q 1578 4219 1281 4162 
Q 984 4106 628 3988 
L 628 4550 
Q 988 4650 1302 4700 
Q 1616 4750 1894 4750 
Q 2613 4750 3031 4423 
Q 3450 4097 3450 3541 
Q 3450 3153 3228 2886 
Q 3006 2619 2597 2516 
z
" transform="scale(0.015625)"/>
       </defs>
       <use xlink:href="#DejaVuSans-33"/>
      </g>
     </g>
    </g>
    <g id="ytick_10">
     <g id="line2d_23">
      <g>
       <use xlink:href="#mb6a739a51d" x="518.4" y="192.075471" style="stroke: #000000; stroke-width: 0.8"/>
      </g>
     </g>
     <g id="text_23">
      <!-- 4 -->
      <g transform="translate(525.4 195.87469) scale(0.1 -0.1)">
       <use xlink:href="#DejaVuSans-34"/>
      </g>
     </g>
    </g>
    <g id="ytick_11">
     <g id="line2d_24">
      <g>
       <use xlink:href="#mb6a739a51d" x="518.4" y="137.240069" style="stroke: #000000; stroke-width: 0.8"/>
      </g>
     </g>
     <g id="text_24">
      <!-- 5 -->
      <g transform="translate(525.4 141.039287) scale(0.1 -0.1)">
       <use xlink:href="#DejaVuSans-35"/>
      </g>
     </g>
    </g>
    <g id="ytick_12">
     <g id="line2d_25">
      <g>
       <use xlink:href="#mb6a739a51d" x="518.4" y="82.404666" style="stroke: #000000; stroke-width: 0.8"/>
      </g>
     </g>
     <g id="text_25">
      <!-- 6 -->
      <g transform="translate(525.4 86.203885) scale(0.1 -0.1)">
       <use xlink:href="#DejaVuSans-36"/>
      </g>
     </g>
    </g>
    <g id="text_26">
     <!-- loss -->
     <g transform="translate(543.360937 227.817812) rotate(-90) scale(0.1 -0.1)">
      <defs>
       <path id="DejaVuSans-73" d="M 2834 3397 
L 2834 2853 
Q 2591 2978 2328 3040 
Q 2066 3103 1784 3103 
Q 1356 3103 1142 2972 
Q 928 2841 928 2578 
Q 928 2378 1081 2264 
Q 1234 2150 1697 2047 
L 1894 2003 
Q 2506 1872 2764 1633 
Q 3022 1394 3022 966 
Q 3022 478 2636 193 
Q 2250 -91 1575 -91 
Q 1294 -91 989 -36 
Q 684 19 347 128 
L 347 722 
Q 666 556 975 473 
Q 1284 391 1588 391 
Q 1994 391 2212 530 
Q 2431 669 2431 922 
Q 2431 1156 2273 1281 
Q 2116 1406 1581 1522 
L 1381 1569 
Q 847 1681 609 1914 
Q 372 2147 372 2553 
Q 372 3047 722 3315 
Q 1072 3584 1716 3584 
Q 2034 3584 2315 3537 
Q 2597 3491 2834 3397 
z
" transform="scale(0.015625)"/>
      </defs>
      <use xlink:href="#DejaVuSans-6c"/>
      <use xlink:href="#DejaVuSans-6f" x="27.783203"/>
      <use xlink:href="#DejaVuSans-73" x="88.964844"/>
      <use xlink:href="#DejaVuSans-73" x="141.064453"/>
     </g>
    </g>
   </g>
   <g id="line2d_26">
    <path d="M 92.290909 289.782801 
L 94.330196 267.177413 
L 96.369484 286.876316 
L 98.408771 287.699804 
L 100.448058 336.44515 
L 102.487346 345.481125 
L 104.526633 361.670091 
L 106.565921 359.9689 
L 108.605208 321.294681 
L 112.683783 350.479742 
L 114.72307 369.36 
L 116.762357 316.542938 
L 118.801645 337.950267 
L 120.840932 339.463778 
L 122.880219 357.136733 
L 124.919507 321.988418 
L 126.958794 343.745673 
L 128.998081 334.862981 
L 131.037369 357.439911 
L 133.076656 324.611753 
L 135.115943 333.550313 
L 137.155231 356.912172 
L 139.194518 339.612981 
L 141.233805 305.007131 
L 143.273093 318.502486 
L 145.31238 352.10146 
L 147.351667 364.036389 
L 149.390955 272.807215 
L 151.430242 297.195068 
L 153.469529 302.841498 
L 155.508817 294.286847 
L 157.548104 273.697382 
L 159.587392 307.200252 
L 161.626679 325.784043 
L 163.665966 347.891083 
L 165.705254 286.037728 
L 167.744541 280.995429 
L 169.783828 298.590432 
L 171.823116 318.564914 
L 173.862403 283.977702 
L 175.90169 270.649705 
L 177.940978 302.867946 
L 179.980265 293.217136 
L 182.019552 270.556991 
L 184.05884 244.726432 
L 186.098127 269.565101 
L 188.137414 312.625526 
L 190.176702 218.574025 
L 192.215989 278.766742 
L 194.255276 240.517291 
L 196.294564 270.21036 
L 198.333851 246.610743 
L 200.373138 265.237315 
L 202.412426 298.940199 
L 204.451713 244.809111 
L 206.491 296.917731 
L 208.530288 292.397122 
L 210.569575 235.277968 
L 212.608862 280.77826 
L 214.64815 209.525639 
L 216.687437 239.254719 
L 218.726725 223.173821 
L 220.766012 213.771874 
L 222.805299 284.390835 
L 224.844587 253.751878 
L 226.883874 215.235325 
L 228.923161 247.815127 
L 230.962449 263.734198 
L 233.001736 217.967084 
L 235.041023 228.237955 
L 237.080311 241.339827 
L 239.119598 274.074164 
L 241.158885 231.145352 
L 243.198173 146.119578 
L 245.23746 195.996943 
L 247.276747 237.233359 
L 249.316035 206.911743 
L 251.355322 181.871907 
L 253.394609 147.118023 
L 255.433897 288.510524 
L 259.512471 172.563146 
L 261.551759 191.91839 
L 263.591046 229.494494 
L 265.630333 233.578777 
L 267.669621 148.149194 
L 269.708908 189.603771 
L 271.748196 270.710892 
L 273.787483 200.744878 
L 275.82677 219.327553 
L 277.866058 205.887211 
L 279.905345 288.58041 
L 281.944632 236.350344 
L 283.98392 212.380159 
L 286.023207 150.859075 
L 288.062494 260.469655 
L 290.101782 246.839665 
L 292.141069 143.37828 
L 294.180356 128.460214 
L 296.219644 210.315249 
L 298.258931 201.206568 
L 300.298218 213.909347 
L 302.337506 175.688527 
L 304.376793 185.943026 
L 306.41608 177.992334 
L 308.455368 149.788356 
L 310.494655 125.134477 
L 312.533942 266.219105 
L 314.57323 208.195454 
L 316.612517 173.576072 
L 318.651804 112.646748 
L 320.691092 205.277202 
L 322.730379 207.330813 
L 324.769667 157.247743 
L 326.808954 140.784331 
L 328.848241 221.071688 
L 330.887529 155.167691 
L 332.926816 128.769432 
L 334.966103 164.872863 
L 337.005391 221.772603 
L 339.044678 186.244533 
L 341.083965 139.42658 
L 343.123253 128.161129 
L 345.16254 229.313005 
L 347.201827 199.575502 
L 349.241115 144.633024 
L 351.280402 135.299569 
L 353.319689 228.984349 
L 355.358977 153.247942 
L 357.398264 193.525484 
L 359.437551 157.994545 
L 361.476839 217.953554 
L 363.516126 223.258672 
L 365.555413 119.659639 
L 369.633988 234.391934 
L 371.673275 192.741041 
L 373.712563 144.691368 
L 375.75185 122.447709 
L 377.791138 231.154695 
L 379.830425 153.362007 
L 381.869712 199.728844 
L 383.909 141.532159 
L 385.948287 240.272419 
L 387.987574 215.836016 
L 390.026862 163.484449 
L 392.066149 101.463804 
L 394.105436 229.872087 
L 396.144724 174.568979 
L 398.184011 177.083279 
L 400.223298 171.6549 
L 402.262586 202.585655 
L 404.301873 181.352986 
L 406.34116 148.346812 
L 408.380448 162.143654 
L 410.419735 243.211243 
L 412.459022 180.730398 
L 414.49831 176.905358 
L 416.537597 134.028681 
L 418.576884 212.329232 
L 420.616172 189.474888 
L 422.655459 147.862853 
L 424.694746 148.998194 
L 426.734034 214.14213 
L 428.773321 178.356301 
L 430.812608 175.719991 
L 432.851896 118.700424 
L 434.891183 248.472073 
L 436.930471 197.345847 
L 438.969758 139.619318 
L 441.009045 66.96 
L 443.048333 195.314382 
L 445.08762 198.691521 
L 447.126907 133.82408 
L 449.166195 167.282267 
L 451.205482 222.478085 
L 453.244769 145.549625 
L 455.284057 163.98161 
L 457.323344 122.798229 
L 459.362631 196.454043 
L 461.401919 191.677577 
L 463.441206 115.000654 
L 465.480493 118.940451 
L 467.519781 249.742364 
L 469.559068 232.516488 
L 471.598355 125.453802 
L 473.637643 87.630951 
L 475.67693 196.689409 
L 477.716217 136.340149 
L 479.755505 138.629269 
L 481.794792 129.809386 
L 483.834079 168.337447 
L 485.873367 233.675087 
L 487.912654 101.372057 
L 489.951942 74.330366 
L 491.991229 201.298094 
L 494.030516 176.256609 
L 496.069804 137.403713 
L 498.109091 136.058886 
L 498.109091 136.058886 
" clip-path="url(#pdce23d2daa)" style="fill: none; stroke: #ff0000; stroke-width: 1.5; stroke-linecap: square"/>
   </g>
   <g id="patch_8">
    <path d="M 72 384.48 
L 72 51.84 
" style="fill: none; stroke: #000000; stroke-width: 0.8; stroke-linejoin: miter; stroke-linecap: square"/>
   </g>
   <g id="patch_9">
    <path d="M 518.4 384.48 
L 518.4 51.84 
" style="fill: none; stroke: #000000; stroke-width: 0.8; stroke-linejoin: miter; stroke-linecap: square"/>
   </g>
   <g id="patch_10">
    <path d="M 72 384.48 
L 518.4 384.48 
" style="fill: none; stroke: #000000; stroke-width: 0.8; stroke-linejoin: miter; stroke-linecap: square"/>
   </g>
   <g id="patch_11">
    <path d="M 72 51.84 
L 518.4 51.84 
" style="fill: none; stroke: #000000; stroke-width: 0.8; stroke-linejoin: miter; stroke-linecap: square"/>
   </g>
   <g id="text_27">
    <!-- The learning curve on voc/voc_fpsl_plateau_weight_decay/host/7 -->
    <g transform="translate(100.126875 45.84) scale(0.12 -0.12)">
     <defs>
      <path id="DejaVuSans-54" d="M -19 4666 
L 3928 4666 
L 3928 4134 
L 2272 4134 
L 2272 0 
L 1638 0 
L 1638 4134 
L -19 4134 
L -19 4666 
z
" transform="scale(0.015625)"/>
      <path id="DejaVuSans-67" d="M 2906 1791 
Q 2906 2416 2648 2759 
Q 2391 3103 1925 3103 
Q 1463 3103 1205 2759 
Q 947 2416 947 1791 
Q 947 1169 1205 825 
Q 1463 481 1925 481 
Q 2391 481 2648 825 
Q 2906 1169 2906 1791 
z
M 3481 434 
Q 3481 -459 3084 -895 
Q 2688 -1331 1869 -1331 
Q 1566 -1331 1297 -1286 
Q 1028 -1241 775 -1147 
L 775 -588 
Q 1028 -725 1275 -790 
Q 1522 -856 1778 -856 
Q 2344 -856 2625 -561 
Q 2906 -266 2906 331 
L 2906 616 
Q 2728 306 2450 153 
Q 2172 0 1784 0 
Q 1141 0 747 490 
Q 353 981 353 1791 
Q 353 2603 747 3093 
Q 1141 3584 1784 3584 
Q 2172 3584 2450 3431 
Q 2728 3278 2906 2969 
L 2906 3500 
L 3481 3500 
L 3481 434 
z
" transform="scale(0.015625)"/>
      <path id="DejaVuSans-75" d="M 544 1381 
L 544 3500 
L 1119 3500 
L 1119 1403 
Q 1119 906 1312 657 
Q 1506 409 1894 409 
Q 2359 409 2629 706 
Q 2900 1003 2900 1516 
L 2900 3500 
L 3475 3500 
L 3475 0 
L 2900 0 
L 2900 538 
Q 2691 219 2414 64 
Q 2138 -91 1772 -91 
Q 1169 -91 856 284 
Q 544 659 544 1381 
z
M 1991 3584 
L 1991 3584 
z
" transform="scale(0.015625)"/>
      <path id="DejaVuSans-2f" d="M 1625 4666 
L 2156 4666 
L 531 -594 
L 0 -594 
L 1625 4666 
z
" transform="scale(0.015625)"/>
      <path id="DejaVuSans-5f" d="M 3263 -1063 
L 3263 -1509 
L -63 -1509 
L -63 -1063 
L 3263 -1063 
z
" transform="scale(0.015625)"/>
      <path id="DejaVuSans-66" d="M 2375 4863 
L 2375 4384 
L 1825 4384 
Q 1516 4384 1395 4259 
Q 1275 4134 1275 3809 
L 1275 3500 
L 2222 3500 
L 2222 3053 
L 1275 3053 
L 1275 0 
L 697 0 
L 697 3053 
L 147 3053 
L 147 3500 
L 697 3500 
L 697 3744 
Q 697 4328 969 4595 
Q 1241 4863 1831 4863 
L 2375 4863 
z
" transform="scale(0.015625)"/>
      <path id="DejaVuSans-77" d="M 269 3500 
L 844 3500 
L 1563 769 
L 2278 3500 
L 2956 3500 
L 3675 769 
L 4391 3500 
L 4966 3500 
L 4050 0 
L 3372 0 
L 2619 2869 
L 1863 0 
L 1184 0 
L 269 3500 
z
" transform="scale(0.015625)"/>
      <path id="DejaVuSans-79" d="M 2059 -325 
Q 1816 -950 1584 -1140 
Q 1353 -1331 966 -1331 
L 506 -1331 
L 506 -850 
L 844 -850 
Q 1081 -850 1212 -737 
Q 1344 -625 1503 -206 
L 1606 56 
L 191 3500 
L 800 3500 
L 1894 763 
L 2988 3500 
L 3597 3500 
L 2059 -325 
z
" transform="scale(0.015625)"/>
     </defs>
     <use xlink:href="#DejaVuSans-54"/>
     <use xlink:href="#DejaVuSans-68" x="61.083984"/>
     <use xlink:href="#DejaVuSans-65" x="124.462891"/>
     <use xlink:href="#DejaVuSans-20" x="185.986328"/>
     <use xlink:href="#DejaVuSans-6c" x="217.773438"/>
     <use xlink:href="#DejaVuSans-65" x="245.556641"/>
     <use xlink:href="#DejaVuSans-61" x="307.080078"/>
     <use xlink:href="#DejaVuSans-72" x="368.359375"/>
     <use xlink:href="#DejaVuSans-6e" x="407.722656"/>
     <use xlink:href="#DejaVuSans-69" x="471.101562"/>
     <use xlink:href="#DejaVuSans-6e" x="498.884766"/>
     <use xlink:href="#DejaVuSans-67" x="562.263672"/>
     <use xlink:href="#DejaVuSans-20" x="625.740234"/>
     <use xlink:href="#DejaVuSans-63" x="657.527344"/>
     <use xlink:href="#DejaVuSans-75" x="712.507812"/>
     <use xlink:href="#DejaVuSans-72" x="775.886719"/>
     <use xlink:href="#DejaVuSans-76" x="817"/>
     <use xlink:href="#DejaVuSans-65" x="876.179688"/>
     <use xlink:href="#DejaVuSans-20" x="937.703125"/>
     <use xlink:href="#DejaVuSans-6f" x="969.490234"/>
     <use xlink:href="#DejaVuSans-6e" x="1030.671875"/>
     <use xlink:href="#DejaVuSans-20" x="1094.050781"/>
     <use xlink:href="#DejaVuSans-76" x="1125.837891"/>
     <use xlink:href="#DejaVuSans-6f" x="1185.017578"/>
     <use xlink:href="#DejaVuSans-63" x="1246.199219"/>
     <use xlink:href="#DejaVuSans-2f" x="1301.179688"/>
     <use xlink:href="#DejaVuSans-76" x="1334.871094"/>
     <use xlink:href="#DejaVuSans-6f" x="1394.050781"/>
     <use xlink:href="#DejaVuSans-63" x="1455.232422"/>
     <use xlink:href="#DejaVuSans-5f" x="1510.212891"/>
     <use xlink:href="#DejaVuSans-66" x="1560.212891"/>
     <use xlink:href="#DejaVuSans-70" x="1595.417969"/>
     <use xlink:href="#DejaVuSans-73" x="1658.894531"/>
     <use xlink:href="#DejaVuSans-6c" x="1710.994141"/>
     <use xlink:href="#DejaVuSans-5f" x="1738.777344"/>
     <use xlink:href="#DejaVuSans-70" x="1788.777344"/>
     <use xlink:href="#DejaVuSans-6c" x="1852.253906"/>
     <use xlink:href="#DejaVuSans-61" x="1880.037109"/>
     <use xlink:href="#DejaVuSans-74" x="1941.316406"/>
     <use xlink:href="#DejaVuSans-65" x="1980.525391"/>
     <use xlink:href="#DejaVuSans-61" x="2042.048828"/>
     <use xlink:href="#DejaVuSans-75" x="2103.328125"/>
     <use xlink:href="#DejaVuSans-5f" x="2166.707031"/>
     <use xlink:href="#DejaVuSans-77" x="2216.707031"/>
     <use xlink:href="#DejaVuSans-65" x="2298.494141"/>
     <use xlink:href="#DejaVuSans-69" x="2360.017578"/>
     <use xlink:href="#DejaVuSans-67" x="2387.800781"/>
     <use xlink:href="#DejaVuSans-68" x="2451.277344"/>
     <use xlink:href="#DejaVuSans-74" x="2514.65625"/>
     <use xlink:href="#DejaVuSans-5f" x="2553.865234"/>
     <use xlink:href="#DejaVuSans-64" x="2603.865234"/>
     <use xlink:href="#DejaVuSans-65" x="2667.341797"/>
     <use xlink:href="#DejaVuSans-63" x="2728.865234"/>
     <use xlink:href="#DejaVuSans-61" x="2783.845703"/>
     <use xlink:href="#DejaVuSans-79" x="2845.125"/>
     <use xlink:href="#DejaVuSans-2f" x="2904.304688"/>
     <use xlink:href="#DejaVuSans-68" x="2937.996094"/>
     <use xlink:href="#DejaVuSans-6f" x="3001.375"/>
     <use xlink:href="#DejaVuSans-73" x="3062.556641"/>
     <use xlink:href="#DejaVuSans-74" x="3114.65625"/>
     <use xlink:href="#DejaVuSans-2f" x="3153.865234"/>
     <use xlink:href="#DejaVuSans-37" x="3187.556641"/>
    </g>
   </g>
   <g id="legend_2">
    <g id="patch_12">
     <path d="M 460.084375 74.518125 
L 511.4 74.518125 
Q 513.4 74.518125 513.4 72.518125 
L 513.4 58.84 
Q 513.4 56.84 511.4 56.84 
L 460.084375 56.84 
Q 458.084375 56.84 458.084375 58.84 
L 458.084375 72.518125 
Q 458.084375 74.518125 460.084375 74.518125 
z
" style="fill: #ffffff; opacity: 0.8; stroke: #cccccc; stroke-linejoin: miter"/>
    </g>
    <g id="line2d_27">
     <path d="M 462.084375 64.938438 
L 472.084375 64.938438 
L 482.084375 64.938438 
" style="fill: none; stroke: #ff0000; stroke-width: 1.5; stroke-linecap: square"/>
    </g>
    <g id="text_28">
     <!-- loss -->
     <g transform="translate(490.084375 68.438438) scale(0.1 -0.1)">
      <use xlink:href="#DejaVuSans-6c"/>
      <use xlink:href="#DejaVuSans-6f" x="27.783203"/>
      <use xlink:href="#DejaVuSans-73" x="88.964844"/>
      <use xlink:href="#DejaVuSans-73" x="141.064453"/>
     </g>
    </g>
   </g>
  </g>
 </g>
 <defs>
  <clipPath id="pdce23d2daa">
   <rect x="72" y="51.84" width="446.4" height="332.64"/>
  </clipPath>
 </defs>
</svg>
