<?xml version="1.0" encoding="utf-8" standalone="no"?>
<!DOCTYPE svg PUBLIC "-//W3C//DTD SVG 1.1//EN"
  "http://www.w3.org/Graphics/SVG/1.1/DTD/svg11.dtd">
<svg xmlns:xlink="http://www.w3.org/1999/xlink" width="576pt" height="432pt" viewBox="0 0 576 432" xmlns="http://www.w3.org/2000/svg" version="1.1">
 <metadata>
  <rdf:RDF xmlns:dc="http://purl.org/dc/elements/1.1/" xmlns:cc="http://creativecommons.org/ns#" xmlns:rdf="http://www.w3.org/1999/02/22-rdf-syntax-ns#">
   <cc:Work>
    <dc:type rdf:resource="http://purl.org/dc/dcmitype/StillImage"/>
    <dc:date>2023-10-19T23:05:39.030745</dc:date>
    <dc:format>image/svg+xml</dc:format>
    <dc:creator>
     <cc:Agent>
      <dc:title>Matplotlib v3.7.1, https://matplotlib.org/</dc:title>
     </cc:Agent>
    </dc:creator>
   </cc:Work>
  </rdf:RDF>
 </metadata>
 <defs>
  <style type="text/css">*{stroke-linejoin: round; stroke-linecap: butt}</style>
 </defs>
 <g id="figure_1">
  <g id="patch_1">
   <path d="M 0 432 
L 576 432 
L 576 0 
L 0 0 
z
" style="fill: #ffffff"/>
  </g>
  <g id="axes_1">
   <g id="patch_2">
    <path d="M 72 384.48 
L 518.4 384.48 
L 518.4 51.84 
L 72 51.84 
z
" style="fill: #ffffff"/>
   </g>
   <g id="matplotlib.axis_1">
    <g id="xtick_1">
     <g id="line2d_1">
      <defs>
       <path id="m707c1f1e46" d="M 0 0 
L 0 3.5 
" style="stroke: #000000; stroke-width: 0.8"/>
      </defs>
      <g>
       <use xlink:href="#m707c1f1e46" x="92.290909" y="384.48" style="stroke: #000000; stroke-width: 0.8"/>
      </g>
     </g>
     <g id="text_1">
      <!-- 0 -->
      <g transform="translate(89.109659 399.078438) scale(0.1 -0.1)">
       <defs>
        <path id="DejaVuSans-30" d="M 2034 4250 
Q 1547 4250 1301 3770 
Q 1056 3291 1056 2328 
Q 1056 1369 1301 889 
Q 1547 409 2034 409 
Q 2525 409 2770 889 
Q 3016 1369 3016 2328 
Q 3016 3291 2770 3770 
Q 2525 4250 2034 4250 
z
M 2034 4750 
Q 2819 4750 3233 4129 
Q 3647 3509 3647 2328 
Q 3647 1150 3233 529 
Q 2819 -91 2034 -91 
Q 1250 -91 836 529 
Q 422 1150 422 2328 
Q 422 3509 836 4129 
Q 1250 4750 2034 4750 
z
" transform="scale(0.015625)"/>
       </defs>
       <use xlink:href="#DejaVuSans-30"/>
      </g>
     </g>
    </g>
    <g id="xtick_2">
     <g id="line2d_2">
      <g>
       <use xlink:href="#m707c1f1e46" x="143.273093" y="384.48" style="stroke: #000000; stroke-width: 0.8"/>
      </g>
     </g>
     <g id="text_2">
      <!-- 25 -->
      <g transform="translate(136.910593 399.078438) scale(0.1 -0.1)">
       <defs>
        <path id="DejaVuSans-32" d="M 1228 531 
L 3431 531 
L 3431 0 
L 469 0 
L 469 531 
Q 828 903 1448 1529 
Q 2069 2156 2228 2338 
Q 2531 2678 2651 2914 
Q 2772 3150 2772 3378 
Q 2772 3750 2511 3984 
Q 2250 4219 1831 4219 
Q 1534 4219 1204 4116 
Q 875 4013 500 3803 
L 500 4441 
Q 881 4594 1212 4672 
Q 1544 4750 1819 4750 
Q 2544 4750 2975 4387 
Q 3406 4025 3406 3419 
Q 3406 3131 3298 2873 
Q 3191 2616 2906 2266 
Q 2828 2175 2409 1742 
Q 1991 1309 1228 531 
z
" transform="scale(0.015625)"/>
        <path id="DejaVuSans-35" d="M 691 4666 
L 3169 4666 
L 3169 4134 
L 1269 4134 
L 1269 2991 
Q 1406 3038 1543 3061 
Q 1681 3084 1819 3084 
Q 2600 3084 3056 2656 
Q 3513 2228 3513 1497 
Q 3513 744 3044 326 
Q 2575 -91 1722 -91 
Q 1428 -91 1123 -41 
Q 819 9 494 109 
L 494 744 
Q 775 591 1075 516 
Q 1375 441 1709 441 
Q 2250 441 2565 725 
Q 2881 1009 2881 1497 
Q 2881 1984 2565 2268 
Q 2250 2553 1709 2553 
Q 1456 2553 1204 2497 
Q 953 2441 691 2322 
L 691 4666 
z
" transform="scale(0.015625)"/>
       </defs>
       <use xlink:href="#DejaVuSans-32"/>
       <use xlink:href="#DejaVuSans-35" x="63.623047"/>
      </g>
     </g>
    </g>
    <g id="xtick_3">
     <g id="line2d_3">
      <g>
       <use xlink:href="#m707c1f1e46" x="194.255276" y="384.48" style="stroke: #000000; stroke-width: 0.8"/>
      </g>
     </g>
     <g id="text_3">
      <!-- 50 -->
      <g transform="translate(187.892776 399.078438) scale(0.1 -0.1)">
       <use xlink:href="#DejaVuSans-35"/>
       <use xlink:href="#DejaVuSans-30" x="63.623047"/>
      </g>
     </g>
    </g>
    <g id="xtick_4">
     <g id="line2d_4">
      <g>
       <use xlink:href="#m707c1f1e46" x="245.23746" y="384.48" style="stroke: #000000; stroke-width: 0.8"/>
      </g>
     </g>
     <g id="text_4">
      <!-- 75 -->
      <g transform="translate(238.87496 399.078438) scale(0.1 -0.1)">
       <defs>
        <path id="DejaVuSans-37" d="M 525 4666 
L 3525 4666 
L 3525 4397 
L 1831 0 
L 1172 0 
L 2766 4134 
L 525 4134 
L 525 4666 
z
" transform="scale(0.015625)"/>
       </defs>
       <use xlink:href="#DejaVuSans-37"/>
       <use xlink:href="#DejaVuSans-35" x="63.623047"/>
      </g>
     </g>
    </g>
    <g id="xtick_5">
     <g id="line2d_5">
      <g>
       <use xlink:href="#m707c1f1e46" x="296.219644" y="384.48" style="stroke: #000000; stroke-width: 0.8"/>
      </g>
     </g>
     <g id="text_5">
      <!-- 100 -->
      <g transform="translate(286.675894 399.078438) scale(0.1 -0.1)">
       <defs>
        <path id="DejaVuSans-31" d="M 794 531 
L 1825 531 
L 1825 4091 
L 703 3866 
L 703 4441 
L 1819 4666 
L 2450 4666 
L 2450 531 
L 3481 531 
L 3481 0 
L 794 0 
L 794 531 
z
" transform="scale(0.015625)"/>
       </defs>
       <use xlink:href="#DejaVuSans-31"/>
       <use xlink:href="#DejaVuSans-30" x="63.623047"/>
       <use xlink:href="#DejaVuSans-30" x="127.246094"/>
      </g>
     </g>
    </g>
    <g id="xtick_6">
     <g id="line2d_6">
      <g>
       <use xlink:href="#m707c1f1e46" x="347.201827" y="384.48" style="stroke: #000000; stroke-width: 0.8"/>
      </g>
     </g>
     <g id="text_6">
      <!-- 125 -->
      <g transform="translate(337.658077 399.078438) scale(0.1 -0.1)">
       <use xlink:href="#DejaVuSans-31"/>
       <use xlink:href="#DejaVuSans-32" x="63.623047"/>
       <use xlink:href="#DejaVuSans-35" x="127.246094"/>
      </g>
     </g>
    </g>
    <g id="xtick_7">
     <g id="line2d_7">
      <g>
       <use xlink:href="#m707c1f1e46" x="398.184011" y="384.48" style="stroke: #000000; stroke-width: 0.8"/>
      </g>
     </g>
     <g id="text_7">
      <!-- 150 -->
      <g transform="translate(388.640261 399.078438) scale(0.1 -0.1)">
       <use xlink:href="#DejaVuSans-31"/>
       <use xlink:href="#DejaVuSans-35" x="63.623047"/>
       <use xlink:href="#DejaVuSans-30" x="127.246094"/>
      </g>
     </g>
    </g>
    <g id="xtick_8">
     <g id="line2d_8">
      <g>
       <use xlink:href="#m707c1f1e46" x="449.166195" y="384.48" style="stroke: #000000; stroke-width: 0.8"/>
      </g>
     </g>
     <g id="text_8">
      <!-- 175 -->
      <g transform="translate(439.622445 399.078438) scale(0.1 -0.1)">
       <use xlink:href="#DejaVuSans-31"/>
       <use xlink:href="#DejaVuSans-37" x="63.623047"/>
       <use xlink:href="#DejaVuSans-35" x="127.246094"/>
      </g>
     </g>
    </g>
    <g id="xtick_9">
     <g id="line2d_9">
      <g>
       <use xlink:href="#m707c1f1e46" x="500.148378" y="384.48" style="stroke: #000000; stroke-width: 0.8"/>
      </g>
     </g>
     <g id="text_9">
      <!-- 200 -->
      <g transform="translate(490.604628 399.078438) scale(0.1 -0.1)">
       <use xlink:href="#DejaVuSans-32"/>
       <use xlink:href="#DejaVuSans-30" x="63.623047"/>
       <use xlink:href="#DejaVuSans-30" x="127.246094"/>
      </g>
     </g>
    </g>
    <g id="text_10">
     <!-- epoch -->
     <g transform="translate(279.971875 412.756563) scale(0.1 -0.1)">
      <defs>
       <path id="DejaVuSans-65" d="M 3597 1894 
L 3597 1613 
L 953 1613 
Q 991 1019 1311 708 
Q 1631 397 2203 397 
Q 2534 397 2845 478 
Q 3156 559 3463 722 
L 3463 178 
Q 3153 47 2828 -22 
Q 2503 -91 2169 -91 
Q 1331 -91 842 396 
Q 353 884 353 1716 
Q 353 2575 817 3079 
Q 1281 3584 2069 3584 
Q 2775 3584 3186 3129 
Q 3597 2675 3597 1894 
z
M 3022 2063 
Q 3016 2534 2758 2815 
Q 2500 3097 2075 3097 
Q 1594 3097 1305 2825 
Q 1016 2553 972 2059 
L 3022 2063 
z
" transform="scale(0.015625)"/>
       <path id="DejaVuSans-70" d="M 1159 525 
L 1159 -1331 
L 581 -1331 
L 581 3500 
L 1159 3500 
L 1159 2969 
Q 1341 3281 1617 3432 
Q 1894 3584 2278 3584 
Q 2916 3584 3314 3078 
Q 3713 2572 3713 1747 
Q 3713 922 3314 415 
Q 2916 -91 2278 -91 
Q 1894 -91 1617 61 
Q 1341 213 1159 525 
z
M 3116 1747 
Q 3116 2381 2855 2742 
Q 2594 3103 2138 3103 
Q 1681 3103 1420 2742 
Q 1159 2381 1159 1747 
Q 1159 1113 1420 752 
Q 1681 391 2138 391 
Q 2594 391 2855 752 
Q 3116 1113 3116 1747 
z
" transform="scale(0.015625)"/>
       <path id="DejaVuSans-6f" d="M 1959 3097 
Q 1497 3097 1228 2736 
Q 959 2375 959 1747 
Q 959 1119 1226 758 
Q 1494 397 1959 397 
Q 2419 397 2687 759 
Q 2956 1122 2956 1747 
Q 2956 2369 2687 2733 
Q 2419 3097 1959 3097 
z
M 1959 3584 
Q 2709 3584 3137 3096 
Q 3566 2609 3566 1747 
Q 3566 888 3137 398 
Q 2709 -91 1959 -91 
Q 1206 -91 779 398 
Q 353 888 353 1747 
Q 353 2609 779 3096 
Q 1206 3584 1959 3584 
z
" transform="scale(0.015625)"/>
       <path id="DejaVuSans-63" d="M 3122 3366 
L 3122 2828 
Q 2878 2963 2633 3030 
Q 2388 3097 2138 3097 
Q 1578 3097 1268 2742 
Q 959 2388 959 1747 
Q 959 1106 1268 751 
Q 1578 397 2138 397 
Q 2388 397 2633 464 
Q 2878 531 3122 666 
L 3122 134 
Q 2881 22 2623 -34 
Q 2366 -91 2075 -91 
Q 1284 -91 818 406 
Q 353 903 353 1747 
Q 353 2603 823 3093 
Q 1294 3584 2113 3584 
Q 2378 3584 2631 3529 
Q 2884 3475 3122 3366 
z
" transform="scale(0.015625)"/>
       <path id="DejaVuSans-68" d="M 3513 2113 
L 3513 0 
L 2938 0 
L 2938 2094 
Q 2938 2591 2744 2837 
Q 2550 3084 2163 3084 
Q 1697 3084 1428 2787 
Q 1159 2491 1159 1978 
L 1159 0 
L 581 0 
L 581 4863 
L 1159 4863 
L 1159 2956 
Q 1366 3272 1645 3428 
Q 1925 3584 2291 3584 
Q 2894 3584 3203 3211 
Q 3513 2838 3513 2113 
z
" transform="scale(0.015625)"/>
      </defs>
      <use xlink:href="#DejaVuSans-65"/>
      <use xlink:href="#DejaVuSans-70" x="61.523438"/>
      <use xlink:href="#DejaVuSans-6f" x="125"/>
      <use xlink:href="#DejaVuSans-63" x="186.181641"/>
      <use xlink:href="#DejaVuSans-68" x="241.162109"/>
     </g>
    </g>
   </g>
   <g id="matplotlib.axis_2">
    <g id="ytick_1">
     <g id="line2d_10">
      <defs>
       <path id="mf39be41ecd" d="M 0 0 
L -3.5 0 
" style="stroke: #000000; stroke-width: 0.8"/>
      </defs>
      <g>
       <use xlink:href="#mf39be41ecd" x="72" y="384.48" style="stroke: #000000; stroke-width: 0.8"/>
      </g>
     </g>
     <g id="text_11">
      <!-- 0 -->
      <g transform="translate(58.6375 388.279219) scale(0.1 -0.1)">
       <use xlink:href="#DejaVuSans-30"/>
      </g>
     </g>
    </g>
    <g id="ytick_2">
     <g id="line2d_11">
      <g>
       <use xlink:href="#mf39be41ecd" x="72" y="317.952" style="stroke: #000000; stroke-width: 0.8"/>
      </g>
     </g>
     <g id="text_12">
      <!-- 20 -->
      <g transform="translate(52.275 321.751219) scale(0.1 -0.1)">
       <use xlink:href="#DejaVuSans-32"/>
       <use xlink:href="#DejaVuSans-30" x="63.623047"/>
      </g>
     </g>
    </g>
    <g id="ytick_3">
     <g id="line2d_12">
      <g>
       <use xlink:href="#mf39be41ecd" x="72" y="251.424" style="stroke: #000000; stroke-width: 0.8"/>
      </g>
     </g>
     <g id="text_13">
      <!-- 40 -->
      <g transform="translate(52.275 255.223219) scale(0.1 -0.1)">
       <defs>
        <path id="DejaVuSans-34" d="M 2419 4116 
L 825 1625 
L 2419 1625 
L 2419 4116 
z
M 2253 4666 
L 3047 4666 
L 3047 1625 
L 3713 1625 
L 3713 1100 
L 3047 1100 
L 3047 0 
L 2419 0 
L 2419 1100 
L 313 1100 
L 313 1709 
L 2253 4666 
z
" transform="scale(0.015625)"/>
       </defs>
       <use xlink:href="#DejaVuSans-34"/>
       <use xlink:href="#DejaVuSans-30" x="63.623047"/>
      </g>
     </g>
    </g>
    <g id="ytick_4">
     <g id="line2d_13">
      <g>
       <use xlink:href="#mf39be41ecd" x="72" y="184.896" style="stroke: #000000; stroke-width: 0.8"/>
      </g>
     </g>
     <g id="text_14">
      <!-- 60 -->
      <g transform="translate(52.275 188.695219) scale(0.1 -0.1)">
       <defs>
        <path id="DejaVuSans-36" d="M 2113 2584 
Q 1688 2584 1439 2293 
Q 1191 2003 1191 1497 
Q 1191 994 1439 701 
Q 1688 409 2113 409 
Q 2538 409 2786 701 
Q 3034 994 3034 1497 
Q 3034 2003 2786 2293 
Q 2538 2584 2113 2584 
z
M 3366 4563 
L 3366 3988 
Q 3128 4100 2886 4159 
Q 2644 4219 2406 4219 
Q 1781 4219 1451 3797 
Q 1122 3375 1075 2522 
Q 1259 2794 1537 2939 
Q 1816 3084 2150 3084 
Q 2853 3084 3261 2657 
Q 3669 2231 3669 1497 
Q 3669 778 3244 343 
Q 2819 -91 2113 -91 
Q 1303 -91 875 529 
Q 447 1150 447 2328 
Q 447 3434 972 4092 
Q 1497 4750 2381 4750 
Q 2619 4750 2861 4703 
Q 3103 4656 3366 4563 
z
" transform="scale(0.015625)"/>
       </defs>
       <use xlink:href="#DejaVuSans-36"/>
       <use xlink:href="#DejaVuSans-30" x="63.623047"/>
      </g>
     </g>
    </g>
    <g id="ytick_5">
     <g id="line2d_14">
      <g>
       <use xlink:href="#mf39be41ecd" x="72" y="118.368" style="stroke: #000000; stroke-width: 0.8"/>
      </g>
     </g>
     <g id="text_15">
      <!-- 80 -->
      <g transform="translate(52.275 122.167219) scale(0.1 -0.1)">
       <defs>
        <path id="DejaVuSans-38" d="M 2034 2216 
Q 1584 2216 1326 1975 
Q 1069 1734 1069 1313 
Q 1069 891 1326 650 
Q 1584 409 2034 409 
Q 2484 409 2743 651 
Q 3003 894 3003 1313 
Q 3003 1734 2745 1975 
Q 2488 2216 2034 2216 
z
M 1403 2484 
Q 997 2584 770 2862 
Q 544 3141 544 3541 
Q 544 4100 942 4425 
Q 1341 4750 2034 4750 
Q 2731 4750 3128 4425 
Q 3525 4100 3525 3541 
Q 3525 3141 3298 2862 
Q 3072 2584 2669 2484 
Q 3125 2378 3379 2068 
Q 3634 1759 3634 1313 
Q 3634 634 3220 271 
Q 2806 -91 2034 -91 
Q 1263 -91 848 271 
Q 434 634 434 1313 
Q 434 1759 690 2068 
Q 947 2378 1403 2484 
z
M 1172 3481 
Q 1172 3119 1398 2916 
Q 1625 2713 2034 2713 
Q 2441 2713 2670 2916 
Q 2900 3119 2900 3481 
Q 2900 3844 2670 4047 
Q 2441 4250 2034 4250 
Q 1625 4250 1398 4047 
Q 1172 3844 1172 3481 
z
" transform="scale(0.015625)"/>
       </defs>
       <use xlink:href="#DejaVuSans-38"/>
       <use xlink:href="#DejaVuSans-30" x="63.623047"/>
      </g>
     </g>
    </g>
    <g id="ytick_6">
     <g id="line2d_15">
      <g>
       <use xlink:href="#mf39be41ecd" x="72" y="51.84" style="stroke: #000000; stroke-width: 0.8"/>
      </g>
     </g>
     <g id="text_16">
      <!-- 100 -->
      <g transform="translate(45.9125 55.639219) scale(0.1 -0.1)">
       <use xlink:href="#DejaVuSans-31"/>
       <use xlink:href="#DejaVuSans-30" x="63.623047"/>
       <use xlink:href="#DejaVuSans-30" x="127.246094"/>
      </g>
     </g>
    </g>
    <g id="text_17">
     <!-- rate -->
     <g transform="translate(39.832812 228.31625) rotate(-90) scale(0.1 -0.1)">
      <defs>
       <path id="DejaVuSans-72" d="M 2631 2963 
Q 2534 3019 2420 3045 
Q 2306 3072 2169 3072 
Q 1681 3072 1420 2755 
Q 1159 2438 1159 1844 
L 1159 0 
L 581 0 
L 581 3500 
L 1159 3500 
L 1159 2956 
Q 1341 3275 1631 3429 
Q 1922 3584 2338 3584 
Q 2397 3584 2469 3576 
Q 2541 3569 2628 3553 
L 2631 2963 
z
" transform="scale(0.015625)"/>
       <path id="DejaVuSans-61" d="M 2194 1759 
Q 1497 1759 1228 1600 
Q 959 1441 959 1056 
Q 959 750 1161 570 
Q 1363 391 1709 391 
Q 2188 391 2477 730 
Q 2766 1069 2766 1631 
L 2766 1759 
L 2194 1759 
z
M 3341 1997 
L 3341 0 
L 2766 0 
L 2766 531 
Q 2569 213 2275 61 
Q 1981 -91 1556 -91 
Q 1019 -91 701 211 
Q 384 513 384 1019 
Q 384 1609 779 1909 
Q 1175 2209 1959 2209 
L 2766 2209 
L 2766 2266 
Q 2766 2663 2505 2880 
Q 2244 3097 1772 3097 
Q 1472 3097 1187 3025 
Q 903 2953 641 2809 
L 641 3341 
Q 956 3463 1253 3523 
Q 1550 3584 1831 3584 
Q 2591 3584 2966 3190 
Q 3341 2797 3341 1997 
z
" transform="scale(0.015625)"/>
       <path id="DejaVuSans-74" d="M 1172 4494 
L 1172 3500 
L 2356 3500 
L 2356 3053 
L 1172 3053 
L 1172 1153 
Q 1172 725 1289 603 
Q 1406 481 1766 481 
L 2356 481 
L 2356 0 
L 1766 0 
Q 1100 0 847 248 
Q 594 497 594 1153 
L 594 3053 
L 172 3053 
L 172 3500 
L 594 3500 
L 594 4494 
L 1172 4494 
z
" transform="scale(0.015625)"/>
      </defs>
      <use xlink:href="#DejaVuSans-72"/>
      <use xlink:href="#DejaVuSans-61" x="41.113281"/>
      <use xlink:href="#DejaVuSans-74" x="102.392578"/>
      <use xlink:href="#DejaVuSans-65" x="141.601562"/>
     </g>
    </g>
   </g>
   <g id="line2d_16">
    <path d="M 92.290909 123.67115 
L 94.330196 98.083665 
L 96.369484 100.046686 
L 98.408771 105.956076 
L 100.448058 101.457015 
L 102.487346 78.656791 
L 104.526633 67.893524 
L 106.565921 80.714168 
L 108.605208 95.498721 
L 110.644495 104.329218 
L 112.683783 72.7457 
L 114.72307 70.863764 
L 116.762357 83.503992 
L 118.801645 93.18058 
L 120.840932 70.505877 
L 122.880219 76.054843 
L 124.919507 95.404288 
L 126.958794 84.512937 
L 128.998081 62.664631 
L 131.037369 63.688244 
L 133.076656 92.533151 
L 135.115943 78.437826 
L 137.155231 76.513938 
L 139.194518 71.972623 
L 141.233805 89.547862 
L 143.273093 95.75918 
L 145.31238 80.701454 
L 147.351667 81.399132 
L 149.390955 87.344432 
L 151.430242 68.58265 
L 153.469529 83.285814 
L 155.508817 65.005537 
L 157.548104 99.059617 
L 159.587392 78.003195 
L 161.626679 66.252556 
L 163.665966 67.723768 
L 165.705254 76.930627 
L 169.783828 73.99541 
L 171.823116 65.836578 
L 173.862403 78.594004 
L 175.90169 73.638614 
L 177.940978 70.915307 
L 179.980265 74.492471 
L 182.019552 77.658353 
L 184.05884 79.398297 
L 186.098127 76.373723 
L 188.137414 69.114201 
L 190.176702 80.552102 
L 192.215989 81.644566 
L 194.255276 63.260364 
L 196.294564 64.211116 
L 198.333851 86.226564 
L 200.373138 90.179328 
L 202.412426 78.495968 
L 204.451713 63.124031 
L 206.491 85.967805 
L 208.530288 65.976794 
L 210.569575 84.258315 
L 212.608862 61.590769 
L 214.64815 73.240503 
L 216.687437 69.572002 
L 218.726725 79.000313 
L 220.766012 65.845029 
L 222.805299 82.157464 
L 224.844587 74.157299 
L 226.883874 73.512941 
L 228.923161 68.636706 
L 230.962449 86.294933 
L 233.001736 66.243927 
L 235.041023 74.133494 
L 237.080311 75.295419 
L 239.119598 71.297963 
L 241.158885 75.091554 
L 243.198173 75.050695 
L 245.23746 71.344507 
L 247.276747 83.892384 
L 249.316035 74.914108 
L 251.355322 63.171692 
L 253.394609 73.951911 
L 255.433897 71.390391 
L 257.473184 72.386215 
L 259.512471 65.375427 
L 261.551759 72.633654 
L 263.591046 75.293947 
L 265.630333 78.402347 
L 267.669621 63.788007 
L 269.708908 71.704322 
L 271.748196 78.579107 
L 273.787483 73.516976 
L 275.82677 77.50291 
L 277.866058 74.29523 
L 279.905345 78.969072 
L 281.944632 97.627336 
L 283.98392 83.380628 
L 286.023207 72.115453 
L 288.062494 85.246119 
L 290.101782 71.91004 
L 292.141069 65.821656 
L 294.180356 74.027945 
L 296.219644 79.735551 
L 298.258931 74.152807 
L 300.298218 74.963469 
L 302.337506 73.197335 
L 304.376793 79.960581 
L 306.41608 68.629143 
L 308.455368 70.798389 
L 310.494655 68.417411 
L 312.533942 84.527174 
L 314.57323 76.819393 
L 316.612517 87.97204 
L 318.651804 66.769565 
L 320.691092 79.982737 
L 322.730379 69.585224 
L 324.769667 91.163453 
L 326.808954 76.252211 
L 328.848241 72.280184 
L 330.887529 90.780721 
L 332.926816 88.58597 
L 334.966103 68.390688 
L 337.005391 72.204023 
L 339.044678 74.485467 
L 341.083965 80.104122 
L 343.123253 81.834448 
L 345.16254 78.346616 
L 347.201827 75.204108 
L 349.241115 70.92155 
L 351.280402 79.365737 
L 353.319689 79.736185 
L 355.358977 74.555689 
L 357.398264 70.431848 
L 359.437551 91.021968 
L 361.476839 71.09392 
L 363.516126 78.927248 
L 365.555413 77.94853 
L 367.594701 70.370458 
L 369.633988 82.926989 
L 371.673275 77.6498 
L 373.712563 85.360373 
L 375.75185 87.732062 
L 377.791138 86.715986 
L 379.830425 70.036021 
L 381.869712 93.487151 
L 383.909 78.529162 
L 385.948287 78.040526 
L 387.987574 74.709381 
L 390.026862 83.000992 
L 392.066149 67.740188 
L 394.105436 85.943569 
L 396.144724 80.65529 
L 398.184011 88.958246 
L 400.223298 73.970615 
L 402.262586 87.89187 
L 404.301873 70.832903 
L 406.34116 76.369408 
L 408.380448 82.801137 
L 410.419735 78.237666 
L 412.459022 77.59714 
L 414.49831 78.624991 
L 416.537597 75.44406 
L 418.576884 75.754388 
L 420.616172 83.436435 
L 422.655459 85.324056 
L 424.694746 79.993421 
L 426.734034 84.341201 
L 428.773321 85.315351 
L 430.812608 76.158641 
L 432.851896 81.485342 
L 434.891183 83.856219 
L 436.930471 77.942718 
L 438.969758 72.375201 
L 441.009045 76.869947 
L 443.048333 76.219549 
L 445.08762 74.457931 
L 447.126907 74.015966 
L 449.166195 83.728464 
L 451.205482 83.500795 
L 453.244769 76.411283 
L 455.284057 83.520996 
L 457.323344 72.019776 
L 459.362631 84.702209 
L 461.401919 75.585799 
L 463.441206 81.726386 
L 465.480493 83.328678 
L 467.519781 84.607116 
L 469.559068 79.447125 
L 471.598355 79.50042 
L 473.637643 76.23871 
L 475.67693 79.877213 
L 477.716217 77.374597 
L 479.755505 79.85219 
L 481.794792 74.252239 
L 483.834079 66.78601 
L 485.873367 69.040299 
L 487.912654 80.59159 
L 489.951942 70.254022 
L 491.991229 98.624149 
L 496.069804 80.223045 
L 498.109091 90.173847 
L 498.109091 90.173847 
" clip-path="url(#p1f68082bc2)" style="fill: none; stroke: #0000ff; stroke-width: 1.5; stroke-linecap: square"/>
   </g>
   <g id="line2d_17">
    <path d="M 92.290909 225.62496 
L 94.330196 220.91314 
L 96.369484 228.46332 
L 98.408771 220.208305 
L 100.448058 164.886412 
L 102.487346 157.538624 
L 104.526633 158.230516 
L 106.565921 163.990731 
L 108.605208 202.455594 
L 110.644495 193.852297 
L 112.683783 187.378694 
L 114.72307 189.472554 
L 116.762357 199.574712 
L 118.801645 194.881684 
L 120.840932 189.551201 
L 122.880219 182.799895 
L 124.919507 168.714645 
L 126.958794 196.19555 
L 128.998081 187.763533 
L 131.037369 191.529614 
L 133.076656 185.931465 
L 135.115943 198.257674 
L 137.155231 192.140181 
L 139.194518 204.25519 
L 141.233805 188.317582 
L 143.273093 165.106087 
L 145.31238 182.342373 
L 147.351667 178.296875 
L 149.390955 183.192423 
L 151.430242 197.202502 
L 153.469529 184.207204 
L 155.508817 190.579344 
L 157.548104 188.85148 
L 159.587392 170.998525 
L 161.626679 193.960828 
L 163.665966 193.766417 
L 165.705254 152.398987 
L 167.744541 180.102423 
L 169.783828 188.949403 
L 171.823116 138.287952 
L 173.862403 152.721267 
L 175.90169 180.812232 
L 177.940978 145.299806 
L 179.980265 193.832921 
L 182.019552 193.396514 
L 184.05884 194.197165 
L 186.098127 201.746305 
L 188.137414 149.548965 
L 190.176702 187.46875 
L 192.215989 152.096374 
L 194.255276 188.154259 
L 196.294564 200.755938 
L 198.333851 190.188618 
L 200.373138 162.183077 
L 202.412426 200.262581 
L 204.451713 178.672387 
L 206.491 159.314174 
L 208.530288 161.466771 
L 210.569575 184.607435 
L 212.608862 177.295824 
L 214.64815 161.762633 
L 216.687437 178.115217 
L 218.726725 172.518248 
L 220.766012 196.735641 
L 222.805299 189.388767 
L 224.844587 159.044198 
L 226.883874 131.431566 
L 228.923161 167.926518 
L 230.962449 185.266246 
L 233.001736 190.499682 
L 235.041023 160.006979 
L 237.080311 177.74308 
L 239.119598 158.248585 
L 241.158885 157.989801 
L 243.198173 166.729088 
L 245.23746 158.401312 
L 247.276747 161.425354 
L 249.316035 138.072489 
L 251.355322 178.209409 
L 253.394609 170.678756 
L 255.433897 179.143068 
L 257.473184 145.794406 
L 259.512471 181.257242 
L 261.551759 141.599556 
L 263.591046 134.908993 
L 265.630333 177.274798 
L 267.669621 176.852564 
L 269.708908 185.240639 
L 271.748196 180.754965 
L 273.787483 160.929739 
L 275.82677 171.925484 
L 277.866058 175.436626 
L 279.905345 171.038039 
L 281.944632 189.667308 
L 283.98392 192.399611 
L 286.023207 174.643424 
L 288.062494 162.790586 
L 290.101782 173.474278 
L 292.141069 176.538582 
L 294.180356 171.227412 
L 296.219644 148.078032 
L 298.258931 165.397381 
L 300.298218 134.669522 
L 302.337506 176.703859 
L 304.376793 154.076195 
L 306.41608 177.12353 
L 308.455368 140.861856 
L 310.494655 177.600771 
L 312.533942 163.549527 
L 314.57323 166.126757 
L 316.612517 182.798004 
L 318.651804 184.391515 
L 320.691092 158.297718 
L 322.730379 171.475715 
L 324.769667 169.718031 
L 326.808954 185.035696 
L 328.848241 141.170889 
L 330.887529 169.977424 
L 332.926816 127.250903 
L 334.966103 176.307258 
L 337.005391 144.035707 
L 339.044678 166.533547 
L 341.083965 180.609255 
L 345.16254 131.063046 
L 347.201827 186.406625 
L 349.241115 161.141725 
L 351.280402 163.398754 
L 353.319689 155.742771 
L 355.358977 142.962631 
L 357.398264 166.917497 
L 359.437551 160.414125 
L 361.476839 163.181693 
L 363.516126 149.681592 
L 365.555413 176.129013 
L 367.594701 127.137995 
L 369.633988 144.687703 
L 371.673275 161.144085 
L 373.712563 180.313736 
L 375.75185 182.623896 
L 377.791138 188.393083 
L 379.830425 145.231182 
L 381.869712 162.714755 
L 383.909 186.182381 
L 385.948287 164.772006 
L 387.987574 162.953109 
L 390.026862 162.431583 
L 392.066149 158.834573 
L 394.105436 131.312795 
L 396.144724 173.467692 
L 398.184011 163.283892 
L 400.223298 184.007781 
L 402.262586 166.018441 
L 404.301873 145.173852 
L 406.34116 130.529592 
L 408.380448 157.220455 
L 410.419735 158.28211 
L 414.49831 183.629845 
L 416.537597 161.330033 
L 418.576884 158.950628 
L 420.616172 174.591626 
L 422.655459 152.117032 
L 424.694746 146.4211 
L 426.734034 181.684475 
L 428.773321 160.996509 
L 430.812608 165.365556 
L 432.851896 133.708137 
L 434.891183 183.238307 
L 436.930471 134.832705 
L 438.969758 163.014728 
L 441.009045 155.818601 
L 443.048333 171.272814 
L 445.08762 145.810064 
L 447.126907 160.034337 
L 449.166195 184.301105 
L 451.205482 165.494758 
L 453.244769 168.058054 
L 455.284057 144.176075 
L 457.323344 167.71773 
L 459.362631 161.584578 
L 461.401919 163.870057 
L 463.441206 159.38734 
L 465.480493 144.605782 
L 467.519781 173.062272 
L 469.559068 127.843616 
L 471.598355 158.965576 
L 473.637643 151.489373 
L 475.67693 136.331225 
L 477.716217 161.015112 
L 479.755505 172.880778 
L 481.794792 173.033823 
L 483.834079 163.38274 
L 485.873367 138.129616 
L 487.912654 186.652732 
L 489.951942 168.912393 
L 491.991229 183.516315 
L 494.030516 188.011328 
L 496.069804 177.446318 
L 498.109091 160.512822 
L 498.109091 160.512822 
" clip-path="url(#p1f68082bc2)" style="fill: none; stroke: #008000; stroke-width: 1.5; stroke-linecap: square"/>
   </g>
   <g id="patch_3">
    <path d="M 72 384.48 
L 72 51.84 
" style="fill: none; stroke: #000000; stroke-width: 0.8; stroke-linejoin: miter; stroke-linecap: square"/>
   </g>
   <g id="patch_4">
    <path d="M 518.4 384.48 
L 518.4 51.84 
" style="fill: none; stroke: #000000; stroke-width: 0.8; stroke-linejoin: miter; stroke-linecap: square"/>
   </g>
   <g id="patch_5">
    <path d="M 72 384.48 
L 518.4 384.48 
" style="fill: none; stroke: #000000; stroke-width: 0.8; stroke-linejoin: miter; stroke-linecap: square"/>
   </g>
   <g id="patch_6">
    <path d="M 72 51.84 
L 518.4 51.84 
" style="fill: none; stroke: #000000; stroke-width: 0.8; stroke-linejoin: miter; stroke-linecap: square"/>
   </g>
   <g id="legend_1">
    <g id="patch_7">
     <path d="M 79 89.19625 
L 160.740625 89.19625 
Q 162.740625 89.19625 162.740625 87.19625 
L 162.740625 58.84 
Q 162.740625 56.84 160.740625 56.84 
L 79 56.84 
Q 77 56.84 77 58.84 
L 77 87.19625 
Q 77 89.19625 79 89.19625 
z
" style="fill: #ffffff; opacity: 0.8; stroke: #cccccc; stroke-linejoin: miter"/>
    </g>
    <g id="line2d_18">
     <path d="M 81 64.938437 
L 91 64.938437 
L 101 64.938437 
" style="fill: none; stroke: #0000ff; stroke-width: 1.5; stroke-linecap: square"/>
    </g>
    <g id="text_18">
     <!-- train mAP -->
     <g transform="translate(109 68.438437) scale(0.1 -0.1)">
      <defs>
       <path id="DejaVuSans-69" d="M 603 3500 
L 1178 3500 
L 1178 0 
L 603 0 
L 603 3500 
z
M 603 4863 
L 1178 4863 
L 1178 4134 
L 603 4134 
L 603 4863 
z
" transform="scale(0.015625)"/>
       <path id="DejaVuSans-6e" d="M 3513 2113 
L 3513 0 
L 2938 0 
L 2938 2094 
Q 2938 2591 2744 2837 
Q 2550 3084 2163 3084 
Q 1697 3084 1428 2787 
Q 1159 2491 1159 1978 
L 1159 0 
L 581 0 
L 581 3500 
L 1159 3500 
L 1159 2956 
Q 1366 3272 1645 3428 
Q 1925 3584 2291 3584 
Q 2894 3584 3203 3211 
Q 3513 2838 3513 2113 
z
" transform="scale(0.015625)"/>
       <path id="DejaVuSans-20" transform="scale(0.015625)"/>
       <path id="DejaVuSans-6d" d="M 3328 2828 
Q 3544 3216 3844 3400 
Q 4144 3584 4550 3584 
Q 5097 3584 5394 3201 
Q 5691 2819 5691 2113 
L 5691 0 
L 5113 0 
L 5113 2094 
Q 5113 2597 4934 2840 
Q 4756 3084 4391 3084 
Q 3944 3084 3684 2787 
Q 3425 2491 3425 1978 
L 3425 0 
L 2847 0 
L 2847 2094 
Q 2847 2600 2669 2842 
Q 2491 3084 2119 3084 
Q 1678 3084 1418 2786 
Q 1159 2488 1159 1978 
L 1159 0 
L 581 0 
L 581 3500 
L 1159 3500 
L 1159 2956 
Q 1356 3278 1631 3431 
Q 1906 3584 2284 3584 
Q 2666 3584 2933 3390 
Q 3200 3197 3328 2828 
z
" transform="scale(0.015625)"/>
       <path id="DejaVuSans-41" d="M 2188 4044 
L 1331 1722 
L 3047 1722 
L 2188 4044 
z
M 1831 4666 
L 2547 4666 
L 4325 0 
L 3669 0 
L 3244 1197 
L 1141 1197 
L 716 0 
L 50 0 
L 1831 4666 
z
" transform="scale(0.015625)"/>
       <path id="DejaVuSans-50" d="M 1259 4147 
L 1259 2394 
L 2053 2394 
Q 2494 2394 2734 2622 
Q 2975 2850 2975 3272 
Q 2975 3691 2734 3919 
Q 2494 4147 2053 4147 
L 1259 4147 
z
M 628 4666 
L 2053 4666 
Q 2838 4666 3239 4311 
Q 3641 3956 3641 3272 
Q 3641 2581 3239 2228 
Q 2838 1875 2053 1875 
L 1259 1875 
L 1259 0 
L 628 0 
L 628 4666 
z
" transform="scale(0.015625)"/>
      </defs>
      <use xlink:href="#DejaVuSans-74"/>
      <use xlink:href="#DejaVuSans-72" x="39.208984"/>
      <use xlink:href="#DejaVuSans-61" x="80.322266"/>
      <use xlink:href="#DejaVuSans-69" x="141.601562"/>
      <use xlink:href="#DejaVuSans-6e" x="169.384766"/>
      <use xlink:href="#DejaVuSans-20" x="232.763672"/>
      <use xlink:href="#DejaVuSans-6d" x="264.550781"/>
      <use xlink:href="#DejaVuSans-41" x="361.962891"/>
      <use xlink:href="#DejaVuSans-50" x="430.371094"/>
     </g>
    </g>
    <g id="line2d_19">
     <path d="M 81 79.616562 
L 91 79.616562 
L 101 79.616562 
" style="fill: none; stroke: #008000; stroke-width: 1.5; stroke-linecap: square"/>
    </g>
    <g id="text_19">
     <!-- valid mAP -->
     <g transform="translate(109 83.116562) scale(0.1 -0.1)">
      <defs>
       <path id="DejaVuSans-76" d="M 191 3500 
L 800 3500 
L 1894 563 
L 2988 3500 
L 3597 3500 
L 2284 0 
L 1503 0 
L 191 3500 
z
" transform="scale(0.015625)"/>
       <path id="DejaVuSans-6c" d="M 603 4863 
L 1178 4863 
L 1178 0 
L 603 0 
L 603 4863 
z
" transform="scale(0.015625)"/>
       <path id="DejaVuSans-64" d="M 2906 2969 
L 2906 4863 
L 3481 4863 
L 3481 0 
L 2906 0 
L 2906 525 
Q 2725 213 2448 61 
Q 2172 -91 1784 -91 
Q 1150 -91 751 415 
Q 353 922 353 1747 
Q 353 2572 751 3078 
Q 1150 3584 1784 3584 
Q 2172 3584 2448 3432 
Q 2725 3281 2906 2969 
z
M 947 1747 
Q 947 1113 1208 752 
Q 1469 391 1925 391 
Q 2381 391 2643 752 
Q 2906 1113 2906 1747 
Q 2906 2381 2643 2742 
Q 2381 3103 1925 3103 
Q 1469 3103 1208 2742 
Q 947 2381 947 1747 
z
" transform="scale(0.015625)"/>
      </defs>
      <use xlink:href="#DejaVuSans-76"/>
      <use xlink:href="#DejaVuSans-61" x="59.179688"/>
      <use xlink:href="#DejaVuSans-6c" x="120.458984"/>
      <use xlink:href="#DejaVuSans-69" x="148.242188"/>
      <use xlink:href="#DejaVuSans-64" x="176.025391"/>
      <use xlink:href="#DejaVuSans-20" x="239.501953"/>
      <use xlink:href="#DejaVuSans-6d" x="271.289062"/>
      <use xlink:href="#DejaVuSans-41" x="368.701172"/>
      <use xlink:href="#DejaVuSans-50" x="437.109375"/>
     </g>
    </g>
   </g>
  </g>
  <g id="axes_2">
   <g id="matplotlib.axis_3">
    <g id="ytick_7">
     <g id="line2d_20">
      <defs>
       <path id="m12b648440c" d="M 0 0 
L 3.5 0 
" style="stroke: #000000; stroke-width: 0.8"/>
      </defs>
      <g>
       <use xlink:href="#m12b648440c" x="518.4" y="356.100657" style="stroke: #000000; stroke-width: 0.8"/>
      </g>
     </g>
     <g id="text_20">
      <!-- 1 -->
      <g transform="translate(525.4 359.899876) scale(0.1 -0.1)">
       <use xlink:href="#DejaVuSans-31"/>
      </g>
     </g>
    </g>
    <g id="ytick_8">
     <g id="line2d_21">
      <g>
       <use xlink:href="#m12b648440c" x="518.4" y="314.649445" style="stroke: #000000; stroke-width: 0.8"/>
      </g>
     </g>
     <g id="text_21">
      <!-- 2 -->
      <g transform="translate(525.4 318.448664) scale(0.1 -0.1)">
       <use xlink:href="#DejaVuSans-32"/>
      </g>
     </g>
    </g>
    <g id="ytick_9">
     <g id="line2d_22">
      <g>
       <use xlink:href="#m12b648440c" x="518.4" y="273.198233" style="stroke: #000000; stroke-width: 0.8"/>
      </g>
     </g>
     <g id="text_22">
      <!-- 3 -->
      <g transform="translate(525.4 276.997452) scale(0.1 -0.1)">
       <defs>
        <path id="DejaVuSans-33" d="M 2597 2516 
Q 3050 2419 3304 2112 
Q 3559 1806 3559 1356 
Q 3559 666 3084 287 
Q 2609 -91 1734 -91 
Q 1441 -91 1130 -33 
Q 819 25 488 141 
L 488 750 
Q 750 597 1062 519 
Q 1375 441 1716 441 
Q 2309 441 2620 675 
Q 2931 909 2931 1356 
Q 2931 1769 2642 2001 
Q 2353 2234 1838 2234 
L 1294 2234 
L 1294 2753 
L 1863 2753 
Q 2328 2753 2575 2939 
Q 2822 3125 2822 3475 
Q 2822 3834 2567 4026 
Q 2313 4219 1838 4219 
Q 1578 4219 1281 4162 
Q 984 4106 628 3988 
L 628 4550 
Q 988 4650 1302 4700 
Q 1616 4750 1894 4750 
Q 2613 4750 3031 4423 
Q 3450 4097 3450 3541 
Q 3450 3153 3228 2886 
Q 3006 2619 2597 2516 
z
" transform="scale(0.015625)"/>
       </defs>
       <use xlink:href="#DejaVuSans-33"/>
      </g>
     </g>
    </g>
    <g id="ytick_10">
     <g id="line2d_23">
      <g>
       <use xlink:href="#m12b648440c" x="518.4" y="231.747021" style="stroke: #000000; stroke-width: 0.8"/>
      </g>
     </g>
     <g id="text_23">
      <!-- 4 -->
      <g transform="translate(525.4 235.546239) scale(0.1 -0.1)">
       <use xlink:href="#DejaVuSans-34"/>
      </g>
     </g>
    </g>
    <g id="ytick_11">
     <g id="line2d_24">
      <g>
       <use xlink:href="#m12b648440c" x="518.4" y="190.295809" style="stroke: #000000; stroke-width: 0.8"/>
      </g>
     </g>
     <g id="text_24">
      <!-- 5 -->
      <g transform="translate(525.4 194.095027) scale(0.1 -0.1)">
       <use xlink:href="#DejaVuSans-35"/>
      </g>
     </g>
    </g>
    <g id="ytick_12">
     <g id="line2d_25">
      <g>
       <use xlink:href="#m12b648440c" x="518.4" y="148.844596" style="stroke: #000000; stroke-width: 0.8"/>
      </g>
     </g>
     <g id="text_25">
      <!-- 6 -->
      <g transform="translate(525.4 152.643815) scale(0.1 -0.1)">
       <use xlink:href="#DejaVuSans-36"/>
      </g>
     </g>
    </g>
    <g id="ytick_13">
     <g id="line2d_26">
      <g>
       <use xlink:href="#m12b648440c" x="518.4" y="107.393384" style="stroke: #000000; stroke-width: 0.8"/>
      </g>
     </g>
     <g id="text_26">
      <!-- 7 -->
      <g transform="translate(525.4 111.192603) scale(0.1 -0.1)">
       <use xlink:href="#DejaVuSans-37"/>
      </g>
     </g>
    </g>
    <g id="ytick_14">
     <g id="line2d_27">
      <g>
       <use xlink:href="#m12b648440c" x="518.4" y="65.942172" style="stroke: #000000; stroke-width: 0.8"/>
      </g>
     </g>
     <g id="text_27">
      <!-- 8 -->
      <g transform="translate(525.4 69.741391) scale(0.1 -0.1)">
       <use xlink:href="#DejaVuSans-38"/>
      </g>
     </g>
    </g>
    <g id="text_28">
     <!-- loss -->
     <g transform="translate(543.360937 227.817812) rotate(-90) scale(0.1 -0.1)">
      <defs>
       <path id="DejaVuSans-73" d="M 2834 3397 
L 2834 2853 
Q 2591 2978 2328 3040 
Q 2066 3103 1784 3103 
Q 1356 3103 1142 2972 
Q 928 2841 928 2578 
Q 928 2378 1081 2264 
Q 1234 2150 1697 2047 
L 1894 2003 
Q 2506 1872 2764 1633 
Q 3022 1394 3022 966 
Q 3022 478 2636 193 
Q 2250 -91 1575 -91 
Q 1294 -91 989 -36 
Q 684 19 347 128 
L 347 722 
Q 666 556 975 473 
Q 1284 391 1588 391 
Q 1994 391 2212 530 
Q 2431 669 2431 922 
Q 2431 1156 2273 1281 
Q 2116 1406 1581 1522 
L 1381 1569 
Q 847 1681 609 1914 
Q 372 2147 372 2553 
Q 372 3047 722 3315 
Q 1072 3584 1716 3584 
Q 2034 3584 2315 3537 
Q 2597 3491 2834 3397 
z
" transform="scale(0.015625)"/>
      </defs>
      <use xlink:href="#DejaVuSans-6c"/>
      <use xlink:href="#DejaVuSans-6f" x="27.783203"/>
      <use xlink:href="#DejaVuSans-73" x="88.964844"/>
      <use xlink:href="#DejaVuSans-73" x="141.064453"/>
     </g>
    </g>
   </g>
   <g id="line2d_28">
    <path d="M 92.290909 314.572107 
L 94.330196 314.129008 
L 96.369484 343.770378 
L 98.408771 330.319047 
L 100.448058 356.381678 
L 102.487346 343.398151 
L 104.526633 362.965789 
L 106.565921 353.799922 
L 108.605208 340.141172 
L 110.644495 358.864985 
L 112.683783 360.247878 
L 114.72307 365.777082 
L 116.762357 348.15763 
L 118.801645 361.455474 
L 120.840932 362.916227 
L 122.880219 361.94501 
L 124.919507 354.98817 
L 126.958794 357.689031 
L 128.998081 366.021595 
L 131.037369 349.17472 
L 133.076656 361.20715 
L 135.115943 350.012125 
L 137.155231 362.592623 
L 139.194518 352.988464 
L 141.233805 350.460958 
L 143.273093 363.237422 
L 145.31238 359.809948 
L 147.351667 369.36 
L 149.390955 353.596316 
L 151.430242 342.813915 
L 153.469529 364.895345 
L 155.508817 361.752979 
L 157.548104 333.683836 
L 159.587392 361.327021 
L 161.626679 359.850241 
L 163.665966 358.813206 
L 165.705254 350.17907 
L 167.744541 356.781152 
L 169.783828 355.485455 
L 171.823116 357.778508 
L 173.862403 319.794107 
L 175.90169 347.905422 
L 177.940978 357.511384 
L 179.980265 350.289799 
L 182.019552 312.699238 
L 184.05884 341.433243 
L 186.098127 336.616836 
L 188.137414 357.818156 
L 190.176702 317.519268 
L 192.215989 340.787916 
L 194.255276 344.047441 
L 196.294564 342.501792 
L 198.333851 291.432614 
L 200.373138 343.751635 
L 202.412426 322.266595 
L 204.451713 349.704812 
L 206.491 272.231129 
L 208.530288 326.723493 
L 210.569575 336.77946 
L 212.608862 344.226941 
L 214.64815 290.660058 
L 216.687437 299.086499 
L 218.726725 312.126851 
L 220.766012 319.883298 
L 222.805299 277.925582 
L 224.844587 326.502367 
L 226.883874 346.907412 
L 228.923161 345.816677 
L 230.962449 234.872369 
L 233.001736 311.37128 
L 235.041023 335.622868 
L 237.080311 330.522233 
L 239.119598 267.953608 
L 241.158885 286.999297 
L 243.198173 314.811138 
L 245.23746 321.471461 
L 247.276747 253.642809 
L 249.316035 297.72826 
L 251.355322 301.293399 
L 253.394609 316.568125 
L 255.433897 250.252702 
L 257.473184 270.290046 
L 261.551759 320.254417 
L 263.591046 233.354105 
L 265.630333 250.618529 
L 267.669621 298.719679 
L 269.708908 309.35889 
L 271.748196 205.046644 
L 273.787483 277.195517 
L 275.82677 276.647542 
L 277.866058 312.899139 
L 279.905345 227.805019 
L 281.944632 242.415485 
L 283.98392 278.59908 
L 286.023207 272.543531 
L 288.062494 181.581003 
L 290.101782 273.552326 
L 292.141069 251.950753 
L 294.180356 282.121683 
L 296.219644 218.411036 
L 298.258931 236.0766 
L 300.298218 228.817143 
L 302.337506 254.928481 
L 304.376793 230.140996 
L 306.41608 191.233823 
L 308.455368 233.779985 
L 310.494655 238.994508 
L 312.533942 159.918377 
L 314.57323 150.740497 
L 316.612517 172.793612 
L 318.651804 226.078152 
L 320.691092 200.849321 
L 322.730379 169.939506 
L 324.769667 175.08306 
L 326.808954 207.423184 
L 328.848241 179.565125 
L 330.887529 180.895499 
L 332.926816 210.227398 
L 334.966103 231.869591 
L 337.005391 173.380098 
L 339.044678 174.773133 
L 341.083965 149.229778 
L 343.123253 217.859704 
L 345.16254 173.061081 
L 347.201827 161.490799 
L 349.241115 197.50827 
L 351.280402 200.230187 
L 353.319689 182.748508 
L 355.358977 195.250399 
L 357.398264 201.898577 
L 359.437551 217.103426 
L 361.476839 192.038973 
L 363.516126 161.749206 
L 365.555413 128.330365 
L 367.594701 175.447895 
L 369.633988 185.715385 
L 371.673275 125.820619 
L 373.712563 158.064798 
L 375.75185 171.691539 
L 377.791138 155.756943 
L 379.830425 138.783448 
L 381.869712 124.781555 
L 383.909 101.449386 
L 385.948287 158.9258 
L 387.987574 138.644275 
L 390.026862 151.931147 
L 392.066149 193.361101 
L 394.105436 164.574009 
L 396.144724 116.389266 
L 398.184011 129.462217 
L 400.223298 151.538336 
L 402.262586 168.239876 
L 404.301873 153.480611 
L 406.34116 170.127261 
L 408.380448 176.163688 
L 410.419735 185.321622 
L 412.459022 119.935055 
L 414.49831 145.386797 
L 416.537597 146.360528 
L 418.576884 190.556474 
L 420.616172 171.867793 
L 422.655459 142.573811 
L 424.694746 127.985483 
L 426.734034 146.444833 
L 428.773321 144.692035 
L 430.812608 145.803287 
L 432.851896 129.858801 
L 434.891183 145.300419 
L 436.930471 143.266355 
L 438.969758 134.775019 
L 441.009045 149.78812 
L 443.048333 159.977747 
L 445.08762 146.78611 
L 447.126907 123.805312 
L 449.166195 128.638861 
L 451.205482 158.359093 
L 453.244769 118.049315 
L 455.284057 112.034795 
L 457.323344 126.455806 
L 459.362631 156.039502 
L 461.401919 112.090877 
L 463.441206 139.749775 
L 465.480493 137.302032 
L 467.519781 129.208079 
L 469.559068 102.385266 
L 471.598355 133.892819 
L 473.637643 138.217186 
L 475.67693 147.047344 
L 477.716217 145.668737 
L 479.755505 132.221627 
L 481.794792 123.912976 
L 483.834079 183.353128 
L 485.873367 111.508378 
L 487.912654 66.96 
L 489.951942 132.08635 
L 491.991229 171.580119 
L 494.030516 124.021195 
L 496.069804 104.233424 
L 498.109091 88.544589 
L 498.109091 88.544589 
" clip-path="url(#p1f68082bc2)" style="fill: none; stroke: #ff0000; stroke-width: 1.5; stroke-linecap: square"/>
   </g>
   <g id="patch_8">
    <path d="M 72 384.48 
L 72 51.84 
" style="fill: none; stroke: #000000; stroke-width: 0.8; stroke-linejoin: miter; stroke-linecap: square"/>
   </g>
   <g id="patch_9">
    <path d="M 518.4 384.48 
L 518.4 51.84 
" style="fill: none; stroke: #000000; stroke-width: 0.8; stroke-linejoin: miter; stroke-linecap: square"/>
   </g>
   <g id="patch_10">
    <path d="M 72 384.48 
L 518.4 384.48 
" style="fill: none; stroke: #000000; stroke-width: 0.8; stroke-linejoin: miter; stroke-linecap: square"/>
   </g>
   <g id="patch_11">
    <path d="M 72 51.84 
L 518.4 51.84 
" style="fill: none; stroke: #000000; stroke-width: 0.8; stroke-linejoin: miter; stroke-linecap: square"/>
   </g>
   <g id="text_29">
    <!-- The learning curve on voc/voc_fpsl_plateau_weight_decay/host/8 -->
    <g transform="translate(100.126875 45.84) scale(0.12 -0.12)">
     <defs>
      <path id="DejaVuSans-54" d="M -19 4666 
L 3928 4666 
L 3928 4134 
L 2272 4134 
L 2272 0 
L 1638 0 
L 1638 4134 
L -19 4134 
L -19 4666 
z
" transform="scale(0.015625)"/>
      <path id="DejaVuSans-67" d="M 2906 1791 
Q 2906 2416 2648 2759 
Q 2391 3103 1925 3103 
Q 1463 3103 1205 2759 
Q 947 2416 947 1791 
Q 947 1169 1205 825 
Q 1463 481 1925 481 
Q 2391 481 2648 825 
Q 2906 1169 2906 1791 
z
M 3481 434 
Q 3481 -459 3084 -895 
Q 2688 -1331 1869 -1331 
Q 1566 -1331 1297 -1286 
Q 1028 -1241 775 -1147 
L 775 -588 
Q 1028 -725 1275 -790 
Q 1522 -856 1778 -856 
Q 2344 -856 2625 -561 
Q 2906 -266 2906 331 
L 2906 616 
Q 2728 306 2450 153 
Q 2172 0 1784 0 
Q 1141 0 747 490 
Q 353 981 353 1791 
Q 353 2603 747 3093 
Q 1141 3584 1784 3584 
Q 2172 3584 2450 3431 
Q 2728 3278 2906 2969 
L 2906 3500 
L 3481 3500 
L 3481 434 
z
" transform="scale(0.015625)"/>
      <path id="DejaVuSans-75" d="M 544 1381 
L 544 3500 
L 1119 3500 
L 1119 1403 
Q 1119 906 1312 657 
Q 1506 409 1894 409 
Q 2359 409 2629 706 
Q 2900 1003 2900 1516 
L 2900 3500 
L 3475 3500 
L 3475 0 
L 2900 0 
L 2900 538 
Q 2691 219 2414 64 
Q 2138 -91 1772 -91 
Q 1169 -91 856 284 
Q 544 659 544 1381 
z
M 1991 3584 
L 1991 3584 
z
" transform="scale(0.015625)"/>
      <path id="DejaVuSans-2f" d="M 1625 4666 
L 2156 4666 
L 531 -594 
L 0 -594 
L 1625 4666 
z
" transform="scale(0.015625)"/>
      <path id="DejaVuSans-5f" d="M 3263 -1063 
L 3263 -1509 
L -63 -1509 
L -63 -1063 
L 3263 -1063 
z
" transform="scale(0.015625)"/>
      <path id="DejaVuSans-66" d="M 2375 4863 
L 2375 4384 
L 1825 4384 
Q 1516 4384 1395 4259 
Q 1275 4134 1275 3809 
L 1275 3500 
L 2222 3500 
L 2222 3053 
L 1275 3053 
L 1275 0 
L 697 0 
L 697 3053 
L 147 3053 
L 147 3500 
L 697 3500 
L 697 3744 
Q 697 4328 969 4595 
Q 1241 4863 1831 4863 
L 2375 4863 
z
" transform="scale(0.015625)"/>
      <path id="DejaVuSans-77" d="M 269 3500 
L 844 3500 
L 1563 769 
L 2278 3500 
L 2956 3500 
L 3675 769 
L 4391 3500 
L 4966 3500 
L 4050 0 
L 3372 0 
L 2619 2869 
L 1863 0 
L 1184 0 
L 269 3500 
z
" transform="scale(0.015625)"/>
      <path id="DejaVuSans-79" d="M 2059 -325 
Q 1816 -950 1584 -1140 
Q 1353 -1331 966 -1331 
L 506 -1331 
L 506 -850 
L 844 -850 
Q 1081 -850 1212 -737 
Q 1344 -625 1503 -206 
L 1606 56 
L 191 3500 
L 800 3500 
L 1894 763 
L 2988 3500 
L 3597 3500 
L 2059 -325 
z
" transform="scale(0.015625)"/>
     </defs>
     <use xlink:href="#DejaVuSans-54"/>
     <use xlink:href="#DejaVuSans-68" x="61.083984"/>
     <use xlink:href="#DejaVuSans-65" x="124.462891"/>
     <use xlink:href="#DejaVuSans-20" x="185.986328"/>
     <use xlink:href="#DejaVuSans-6c" x="217.773438"/>
     <use xlink:href="#DejaVuSans-65" x="245.556641"/>
     <use xlink:href="#DejaVuSans-61" x="307.080078"/>
     <use xlink:href="#DejaVuSans-72" x="368.359375"/>
     <use xlink:href="#DejaVuSans-6e" x="407.722656"/>
     <use xlink:href="#DejaVuSans-69" x="471.101562"/>
     <use xlink:href="#DejaVuSans-6e" x="498.884766"/>
     <use xlink:href="#DejaVuSans-67" x="562.263672"/>
     <use xlink:href="#DejaVuSans-20" x="625.740234"/>
     <use xlink:href="#DejaVuSans-63" x="657.527344"/>
     <use xlink:href="#DejaVuSans-75" x="712.507812"/>
     <use xlink:href="#DejaVuSans-72" x="775.886719"/>
     <use xlink:href="#DejaVuSans-76" x="817"/>
     <use xlink:href="#DejaVuSans-65" x="876.179688"/>
     <use xlink:href="#DejaVuSans-20" x="937.703125"/>
     <use xlink:href="#DejaVuSans-6f" x="969.490234"/>
     <use xlink:href="#DejaVuSans-6e" x="1030.671875"/>
     <use xlink:href="#DejaVuSans-20" x="1094.050781"/>
     <use xlink:href="#DejaVuSans-76" x="1125.837891"/>
     <use xlink:href="#DejaVuSans-6f" x="1185.017578"/>
     <use xlink:href="#DejaVuSans-63" x="1246.199219"/>
     <use xlink:href="#DejaVuSans-2f" x="1301.179688"/>
     <use xlink:href="#DejaVuSans-76" x="1334.871094"/>
     <use xlink:href="#DejaVuSans-6f" x="1394.050781"/>
     <use xlink:href="#DejaVuSans-63" x="1455.232422"/>
     <use xlink:href="#DejaVuSans-5f" x="1510.212891"/>
     <use xlink:href="#DejaVuSans-66" x="1560.212891"/>
     <use xlink:href="#DejaVuSans-70" x="1595.417969"/>
     <use xlink:href="#DejaVuSans-73" x="1658.894531"/>
     <use xlink:href="#DejaVuSans-6c" x="1710.994141"/>
     <use xlink:href="#DejaVuSans-5f" x="1738.777344"/>
     <use xlink:href="#DejaVuSans-70" x="1788.777344"/>
     <use xlink:href="#DejaVuSans-6c" x="1852.253906"/>
     <use xlink:href="#DejaVuSans-61" x="1880.037109"/>
     <use xlink:href="#DejaVuSans-74" x="1941.316406"/>
     <use xlink:href="#DejaVuSans-65" x="1980.525391"/>
     <use xlink:href="#DejaVuSans-61" x="2042.048828"/>
     <use xlink:href="#DejaVuSans-75" x="2103.328125"/>
     <use xlink:href="#DejaVuSans-5f" x="2166.707031"/>
     <use xlink:href="#DejaVuSans-77" x="2216.707031"/>
     <use xlink:href="#DejaVuSans-65" x="2298.494141"/>
     <use xlink:href="#DejaVuSans-69" x="2360.017578"/>
     <use xlink:href="#DejaVuSans-67" x="2387.800781"/>
     <use xlink:href="#DejaVuSans-68" x="2451.277344"/>
     <use xlink:href="#DejaVuSans-74" x="2514.65625"/>
     <use xlink:href="#DejaVuSans-5f" x="2553.865234"/>
     <use xlink:href="#DejaVuSans-64" x="2603.865234"/>
     <use xlink:href="#DejaVuSans-65" x="2667.341797"/>
     <use xlink:href="#DejaVuSans-63" x="2728.865234"/>
     <use xlink:href="#DejaVuSans-61" x="2783.845703"/>
     <use xlink:href="#DejaVuSans-79" x="2845.125"/>
     <use xlink:href="#DejaVuSans-2f" x="2904.304688"/>
     <use xlink:href="#DejaVuSans-68" x="2937.996094"/>
     <use xlink:href="#DejaVuSans-6f" x="3001.375"/>
     <use xlink:href="#DejaVuSans-73" x="3062.556641"/>
     <use xlink:href="#DejaVuSans-74" x="3114.65625"/>
     <use xlink:href="#DejaVuSans-2f" x="3153.865234"/>
     <use xlink:href="#DejaVuSans-38" x="3187.556641"/>
    </g>
   </g>
   <g id="legend_2">
    <g id="patch_12">
     <path d="M 460.084375 74.518125 
L 511.4 74.518125 
Q 513.4 74.518125 513.4 72.518125 
L 513.4 58.84 
Q 513.4 56.84 511.4 56.84 
L 460.084375 56.84 
Q 458.084375 56.84 458.084375 58.84 
L 458.084375 72.518125 
Q 458.084375 74.518125 460.084375 74.518125 
z
" style="fill: #ffffff; opacity: 0.8; stroke: #cccccc; stroke-linejoin: miter"/>
    </g>
    <g id="line2d_29">
     <path d="M 462.084375 64.938438 
L 472.084375 64.938438 
L 482.084375 64.938438 
" style="fill: none; stroke: #ff0000; stroke-width: 1.5; stroke-linecap: square"/>
    </g>
    <g id="text_30">
     <!-- loss -->
     <g transform="translate(490.084375 68.438438) scale(0.1 -0.1)">
      <use xlink:href="#DejaVuSans-6c"/>
      <use xlink:href="#DejaVuSans-6f" x="27.783203"/>
      <use xlink:href="#DejaVuSans-73" x="88.964844"/>
      <use xlink:href="#DejaVuSans-73" x="141.064453"/>
     </g>
    </g>
   </g>
  </g>
 </g>
 <defs>
  <clipPath id="p1f68082bc2">
   <rect x="72" y="51.84" width="446.4" height="332.64"/>
  </clipPath>
 </defs>
</svg>
