<?xml version="1.0" encoding="utf-8" standalone="no"?>
<!DOCTYPE svg PUBLIC "-//W3C//DTD SVG 1.1//EN"
  "http://www.w3.org/Graphics/SVG/1.1/DTD/svg11.dtd">
<svg xmlns:xlink="http://www.w3.org/1999/xlink" width="576pt" height="432pt" viewBox="0 0 576 432" xmlns="http://www.w3.org/2000/svg" version="1.1">
 <metadata>
  <rdf:RDF xmlns:dc="http://purl.org/dc/elements/1.1/" xmlns:cc="http://creativecommons.org/ns#" xmlns:rdf="http://www.w3.org/1999/02/22-rdf-syntax-ns#">
   <cc:Work>
    <dc:type rdf:resource="http://purl.org/dc/dcmitype/StillImage"/>
    <dc:date>2023-10-19T23:28:36.069628</dc:date>
    <dc:format>image/svg+xml</dc:format>
    <dc:creator>
     <cc:Agent>
      <dc:title>Matplotlib v3.7.1, https://matplotlib.org/</dc:title>
     </cc:Agent>
    </dc:creator>
   </cc:Work>
  </rdf:RDF>
 </metadata>
 <defs>
  <style type="text/css">*{stroke-linejoin: round; stroke-linecap: butt}</style>
 </defs>
 <g id="figure_1">
  <g id="patch_1">
   <path d="M 0 432 
L 576 432 
L 576 0 
L 0 0 
z
" style="fill: #ffffff"/>
  </g>
  <g id="axes_1">
   <g id="patch_2">
    <path d="M 72 384.48 
L 518.4 384.48 
L 518.4 51.84 
L 72 51.84 
z
" style="fill: #ffffff"/>
   </g>
   <g id="matplotlib.axis_1">
    <g id="xtick_1">
     <g id="line2d_1">
      <defs>
       <path id="m52830fa7a8" d="M 0 0 
L 0 3.5 
" style="stroke: #000000; stroke-width: 0.8"/>
      </defs>
      <g>
       <use xlink:href="#m52830fa7a8" x="92.290909" y="384.48" style="stroke: #000000; stroke-width: 0.8"/>
      </g>
     </g>
     <g id="text_1">
      <!-- 0 -->
      <g transform="translate(89.109659 399.078438) scale(0.1 -0.1)">
       <defs>
        <path id="DejaVuSans-30" d="M 2034 4250 
Q 1547 4250 1301 3770 
Q 1056 3291 1056 2328 
Q 1056 1369 1301 889 
Q 1547 409 2034 409 
Q 2525 409 2770 889 
Q 3016 1369 3016 2328 
Q 3016 3291 2770 3770 
Q 2525 4250 2034 4250 
z
M 2034 4750 
Q 2819 4750 3233 4129 
Q 3647 3509 3647 2328 
Q 3647 1150 3233 529 
Q 2819 -91 2034 -91 
Q 1250 -91 836 529 
Q 422 1150 422 2328 
Q 422 3509 836 4129 
Q 1250 4750 2034 4750 
z
" transform="scale(0.015625)"/>
       </defs>
       <use xlink:href="#DejaVuSans-30"/>
      </g>
     </g>
    </g>
    <g id="xtick_2">
     <g id="line2d_2">
      <g>
       <use xlink:href="#m52830fa7a8" x="143.273093" y="384.48" style="stroke: #000000; stroke-width: 0.8"/>
      </g>
     </g>
     <g id="text_2">
      <!-- 25 -->
      <g transform="translate(136.910593 399.078438) scale(0.1 -0.1)">
       <defs>
        <path id="DejaVuSans-32" d="M 1228 531 
L 3431 531 
L 3431 0 
L 469 0 
L 469 531 
Q 828 903 1448 1529 
Q 2069 2156 2228 2338 
Q 2531 2678 2651 2914 
Q 2772 3150 2772 3378 
Q 2772 3750 2511 3984 
Q 2250 4219 1831 4219 
Q 1534 4219 1204 4116 
Q 875 4013 500 3803 
L 500 4441 
Q 881 4594 1212 4672 
Q 1544 4750 1819 4750 
Q 2544 4750 2975 4387 
Q 3406 4025 3406 3419 
Q 3406 3131 3298 2873 
Q 3191 2616 2906 2266 
Q 2828 2175 2409 1742 
Q 1991 1309 1228 531 
z
" transform="scale(0.015625)"/>
        <path id="DejaVuSans-35" d="M 691 4666 
L 3169 4666 
L 3169 4134 
L 1269 4134 
L 1269 2991 
Q 1406 3038 1543 3061 
Q 1681 3084 1819 3084 
Q 2600 3084 3056 2656 
Q 3513 2228 3513 1497 
Q 3513 744 3044 326 
Q 2575 -91 1722 -91 
Q 1428 -91 1123 -41 
Q 819 9 494 109 
L 494 744 
Q 775 591 1075 516 
Q 1375 441 1709 441 
Q 2250 441 2565 725 
Q 2881 1009 2881 1497 
Q 2881 1984 2565 2268 
Q 2250 2553 1709 2553 
Q 1456 2553 1204 2497 
Q 953 2441 691 2322 
L 691 4666 
z
" transform="scale(0.015625)"/>
       </defs>
       <use xlink:href="#DejaVuSans-32"/>
       <use xlink:href="#DejaVuSans-35" x="63.623047"/>
      </g>
     </g>
    </g>
    <g id="xtick_3">
     <g id="line2d_3">
      <g>
       <use xlink:href="#m52830fa7a8" x="194.255276" y="384.48" style="stroke: #000000; stroke-width: 0.8"/>
      </g>
     </g>
     <g id="text_3">
      <!-- 50 -->
      <g transform="translate(187.892776 399.078438) scale(0.1 -0.1)">
       <use xlink:href="#DejaVuSans-35"/>
       <use xlink:href="#DejaVuSans-30" x="63.623047"/>
      </g>
     </g>
    </g>
    <g id="xtick_4">
     <g id="line2d_4">
      <g>
       <use xlink:href="#m52830fa7a8" x="245.23746" y="384.48" style="stroke: #000000; stroke-width: 0.8"/>
      </g>
     </g>
     <g id="text_4">
      <!-- 75 -->
      <g transform="translate(238.87496 399.078438) scale(0.1 -0.1)">
       <defs>
        <path id="DejaVuSans-37" d="M 525 4666 
L 3525 4666 
L 3525 4397 
L 1831 0 
L 1172 0 
L 2766 4134 
L 525 4134 
L 525 4666 
z
" transform="scale(0.015625)"/>
       </defs>
       <use xlink:href="#DejaVuSans-37"/>
       <use xlink:href="#DejaVuSans-35" x="63.623047"/>
      </g>
     </g>
    </g>
    <g id="xtick_5">
     <g id="line2d_5">
      <g>
       <use xlink:href="#m52830fa7a8" x="296.219644" y="384.48" style="stroke: #000000; stroke-width: 0.8"/>
      </g>
     </g>
     <g id="text_5">
      <!-- 100 -->
      <g transform="translate(286.675894 399.078438) scale(0.1 -0.1)">
       <defs>
        <path id="DejaVuSans-31" d="M 794 531 
L 1825 531 
L 1825 4091 
L 703 3866 
L 703 4441 
L 1819 4666 
L 2450 4666 
L 2450 531 
L 3481 531 
L 3481 0 
L 794 0 
L 794 531 
z
" transform="scale(0.015625)"/>
       </defs>
       <use xlink:href="#DejaVuSans-31"/>
       <use xlink:href="#DejaVuSans-30" x="63.623047"/>
       <use xlink:href="#DejaVuSans-30" x="127.246094"/>
      </g>
     </g>
    </g>
    <g id="xtick_6">
     <g id="line2d_6">
      <g>
       <use xlink:href="#m52830fa7a8" x="347.201827" y="384.48" style="stroke: #000000; stroke-width: 0.8"/>
      </g>
     </g>
     <g id="text_6">
      <!-- 125 -->
      <g transform="translate(337.658077 399.078438) scale(0.1 -0.1)">
       <use xlink:href="#DejaVuSans-31"/>
       <use xlink:href="#DejaVuSans-32" x="63.623047"/>
       <use xlink:href="#DejaVuSans-35" x="127.246094"/>
      </g>
     </g>
    </g>
    <g id="xtick_7">
     <g id="line2d_7">
      <g>
       <use xlink:href="#m52830fa7a8" x="398.184011" y="384.48" style="stroke: #000000; stroke-width: 0.8"/>
      </g>
     </g>
     <g id="text_7">
      <!-- 150 -->
      <g transform="translate(388.640261 399.078438) scale(0.1 -0.1)">
       <use xlink:href="#DejaVuSans-31"/>
       <use xlink:href="#DejaVuSans-35" x="63.623047"/>
       <use xlink:href="#DejaVuSans-30" x="127.246094"/>
      </g>
     </g>
    </g>
    <g id="xtick_8">
     <g id="line2d_8">
      <g>
       <use xlink:href="#m52830fa7a8" x="449.166195" y="384.48" style="stroke: #000000; stroke-width: 0.8"/>
      </g>
     </g>
     <g id="text_8">
      <!-- 175 -->
      <g transform="translate(439.622445 399.078438) scale(0.1 -0.1)">
       <use xlink:href="#DejaVuSans-31"/>
       <use xlink:href="#DejaVuSans-37" x="63.623047"/>
       <use xlink:href="#DejaVuSans-35" x="127.246094"/>
      </g>
     </g>
    </g>
    <g id="xtick_9">
     <g id="line2d_9">
      <g>
       <use xlink:href="#m52830fa7a8" x="500.148378" y="384.48" style="stroke: #000000; stroke-width: 0.8"/>
      </g>
     </g>
     <g id="text_9">
      <!-- 200 -->
      <g transform="translate(490.604628 399.078438) scale(0.1 -0.1)">
       <use xlink:href="#DejaVuSans-32"/>
       <use xlink:href="#DejaVuSans-30" x="63.623047"/>
       <use xlink:href="#DejaVuSans-30" x="127.246094"/>
      </g>
     </g>
    </g>
    <g id="text_10">
     <!-- epoch -->
     <g transform="translate(279.971875 412.756563) scale(0.1 -0.1)">
      <defs>
       <path id="DejaVuSans-65" d="M 3597 1894 
L 3597 1613 
L 953 1613 
Q 991 1019 1311 708 
Q 1631 397 2203 397 
Q 2534 397 2845 478 
Q 3156 559 3463 722 
L 3463 178 
Q 3153 47 2828 -22 
Q 2503 -91 2169 -91 
Q 1331 -91 842 396 
Q 353 884 353 1716 
Q 353 2575 817 3079 
Q 1281 3584 2069 3584 
Q 2775 3584 3186 3129 
Q 3597 2675 3597 1894 
z
M 3022 2063 
Q 3016 2534 2758 2815 
Q 2500 3097 2075 3097 
Q 1594 3097 1305 2825 
Q 1016 2553 972 2059 
L 3022 2063 
z
" transform="scale(0.015625)"/>
       <path id="DejaVuSans-70" d="M 1159 525 
L 1159 -1331 
L 581 -1331 
L 581 3500 
L 1159 3500 
L 1159 2969 
Q 1341 3281 1617 3432 
Q 1894 3584 2278 3584 
Q 2916 3584 3314 3078 
Q 3713 2572 3713 1747 
Q 3713 922 3314 415 
Q 2916 -91 2278 -91 
Q 1894 -91 1617 61 
Q 1341 213 1159 525 
z
M 3116 1747 
Q 3116 2381 2855 2742 
Q 2594 3103 2138 3103 
Q 1681 3103 1420 2742 
Q 1159 2381 1159 1747 
Q 1159 1113 1420 752 
Q 1681 391 2138 391 
Q 2594 391 2855 752 
Q 3116 1113 3116 1747 
z
" transform="scale(0.015625)"/>
       <path id="DejaVuSans-6f" d="M 1959 3097 
Q 1497 3097 1228 2736 
Q 959 2375 959 1747 
Q 959 1119 1226 758 
Q 1494 397 1959 397 
Q 2419 397 2687 759 
Q 2956 1122 2956 1747 
Q 2956 2369 2687 2733 
Q 2419 3097 1959 3097 
z
M 1959 3584 
Q 2709 3584 3137 3096 
Q 3566 2609 3566 1747 
Q 3566 888 3137 398 
Q 2709 -91 1959 -91 
Q 1206 -91 779 398 
Q 353 888 353 1747 
Q 353 2609 779 3096 
Q 1206 3584 1959 3584 
z
" transform="scale(0.015625)"/>
       <path id="DejaVuSans-63" d="M 3122 3366 
L 3122 2828 
Q 2878 2963 2633 3030 
Q 2388 3097 2138 3097 
Q 1578 3097 1268 2742 
Q 959 2388 959 1747 
Q 959 1106 1268 751 
Q 1578 397 2138 397 
Q 2388 397 2633 464 
Q 2878 531 3122 666 
L 3122 134 
Q 2881 22 2623 -34 
Q 2366 -91 2075 -91 
Q 1284 -91 818 406 
Q 353 903 353 1747 
Q 353 2603 823 3093 
Q 1294 3584 2113 3584 
Q 2378 3584 2631 3529 
Q 2884 3475 3122 3366 
z
" transform="scale(0.015625)"/>
       <path id="DejaVuSans-68" d="M 3513 2113 
L 3513 0 
L 2938 0 
L 2938 2094 
Q 2938 2591 2744 2837 
Q 2550 3084 2163 3084 
Q 1697 3084 1428 2787 
Q 1159 2491 1159 1978 
L 1159 0 
L 581 0 
L 581 4863 
L 1159 4863 
L 1159 2956 
Q 1366 3272 1645 3428 
Q 1925 3584 2291 3584 
Q 2894 3584 3203 3211 
Q 3513 2838 3513 2113 
z
" transform="scale(0.015625)"/>
      </defs>
      <use xlink:href="#DejaVuSans-65"/>
      <use xlink:href="#DejaVuSans-70" x="61.523438"/>
      <use xlink:href="#DejaVuSans-6f" x="125"/>
      <use xlink:href="#DejaVuSans-63" x="186.181641"/>
      <use xlink:href="#DejaVuSans-68" x="241.162109"/>
     </g>
    </g>
   </g>
   <g id="matplotlib.axis_2">
    <g id="ytick_1">
     <g id="line2d_10">
      <defs>
       <path id="mdf65cc4957" d="M 0 0 
L -3.5 0 
" style="stroke: #000000; stroke-width: 0.8"/>
      </defs>
      <g>
       <use xlink:href="#mdf65cc4957" x="72" y="384.48" style="stroke: #000000; stroke-width: 0.8"/>
      </g>
     </g>
     <g id="text_11">
      <!-- 0 -->
      <g transform="translate(58.6375 388.279219) scale(0.1 -0.1)">
       <use xlink:href="#DejaVuSans-30"/>
      </g>
     </g>
    </g>
    <g id="ytick_2">
     <g id="line2d_11">
      <g>
       <use xlink:href="#mdf65cc4957" x="72" y="317.952" style="stroke: #000000; stroke-width: 0.8"/>
      </g>
     </g>
     <g id="text_12">
      <!-- 20 -->
      <g transform="translate(52.275 321.751219) scale(0.1 -0.1)">
       <use xlink:href="#DejaVuSans-32"/>
       <use xlink:href="#DejaVuSans-30" x="63.623047"/>
      </g>
     </g>
    </g>
    <g id="ytick_3">
     <g id="line2d_12">
      <g>
       <use xlink:href="#mdf65cc4957" x="72" y="251.424" style="stroke: #000000; stroke-width: 0.8"/>
      </g>
     </g>
     <g id="text_13">
      <!-- 40 -->
      <g transform="translate(52.275 255.223219) scale(0.1 -0.1)">
       <defs>
        <path id="DejaVuSans-34" d="M 2419 4116 
L 825 1625 
L 2419 1625 
L 2419 4116 
z
M 2253 4666 
L 3047 4666 
L 3047 1625 
L 3713 1625 
L 3713 1100 
L 3047 1100 
L 3047 0 
L 2419 0 
L 2419 1100 
L 313 1100 
L 313 1709 
L 2253 4666 
z
" transform="scale(0.015625)"/>
       </defs>
       <use xlink:href="#DejaVuSans-34"/>
       <use xlink:href="#DejaVuSans-30" x="63.623047"/>
      </g>
     </g>
    </g>
    <g id="ytick_4">
     <g id="line2d_13">
      <g>
       <use xlink:href="#mdf65cc4957" x="72" y="184.896" style="stroke: #000000; stroke-width: 0.8"/>
      </g>
     </g>
     <g id="text_14">
      <!-- 60 -->
      <g transform="translate(52.275 188.695219) scale(0.1 -0.1)">
       <defs>
        <path id="DejaVuSans-36" d="M 2113 2584 
Q 1688 2584 1439 2293 
Q 1191 2003 1191 1497 
Q 1191 994 1439 701 
Q 1688 409 2113 409 
Q 2538 409 2786 701 
Q 3034 994 3034 1497 
Q 3034 2003 2786 2293 
Q 2538 2584 2113 2584 
z
M 3366 4563 
L 3366 3988 
Q 3128 4100 2886 4159 
Q 2644 4219 2406 4219 
Q 1781 4219 1451 3797 
Q 1122 3375 1075 2522 
Q 1259 2794 1537 2939 
Q 1816 3084 2150 3084 
Q 2853 3084 3261 2657 
Q 3669 2231 3669 1497 
Q 3669 778 3244 343 
Q 2819 -91 2113 -91 
Q 1303 -91 875 529 
Q 447 1150 447 2328 
Q 447 3434 972 4092 
Q 1497 4750 2381 4750 
Q 2619 4750 2861 4703 
Q 3103 4656 3366 4563 
z
" transform="scale(0.015625)"/>
       </defs>
       <use xlink:href="#DejaVuSans-36"/>
       <use xlink:href="#DejaVuSans-30" x="63.623047"/>
      </g>
     </g>
    </g>
    <g id="ytick_5">
     <g id="line2d_14">
      <g>
       <use xlink:href="#mdf65cc4957" x="72" y="118.368" style="stroke: #000000; stroke-width: 0.8"/>
      </g>
     </g>
     <g id="text_15">
      <!-- 80 -->
      <g transform="translate(52.275 122.167219) scale(0.1 -0.1)">
       <defs>
        <path id="DejaVuSans-38" d="M 2034 2216 
Q 1584 2216 1326 1975 
Q 1069 1734 1069 1313 
Q 1069 891 1326 650 
Q 1584 409 2034 409 
Q 2484 409 2743 651 
Q 3003 894 3003 1313 
Q 3003 1734 2745 1975 
Q 2488 2216 2034 2216 
z
M 1403 2484 
Q 997 2584 770 2862 
Q 544 3141 544 3541 
Q 544 4100 942 4425 
Q 1341 4750 2034 4750 
Q 2731 4750 3128 4425 
Q 3525 4100 3525 3541 
Q 3525 3141 3298 2862 
Q 3072 2584 2669 2484 
Q 3125 2378 3379 2068 
Q 3634 1759 3634 1313 
Q 3634 634 3220 271 
Q 2806 -91 2034 -91 
Q 1263 -91 848 271 
Q 434 634 434 1313 
Q 434 1759 690 2068 
Q 947 2378 1403 2484 
z
M 1172 3481 
Q 1172 3119 1398 2916 
Q 1625 2713 2034 2713 
Q 2441 2713 2670 2916 
Q 2900 3119 2900 3481 
Q 2900 3844 2670 4047 
Q 2441 4250 2034 4250 
Q 1625 4250 1398 4047 
Q 1172 3844 1172 3481 
z
" transform="scale(0.015625)"/>
       </defs>
       <use xlink:href="#DejaVuSans-38"/>
       <use xlink:href="#DejaVuSans-30" x="63.623047"/>
      </g>
     </g>
    </g>
    <g id="ytick_6">
     <g id="line2d_15">
      <g>
       <use xlink:href="#mdf65cc4957" x="72" y="51.84" style="stroke: #000000; stroke-width: 0.8"/>
      </g>
     </g>
     <g id="text_16">
      <!-- 100 -->
      <g transform="translate(45.9125 55.639219) scale(0.1 -0.1)">
       <use xlink:href="#DejaVuSans-31"/>
       <use xlink:href="#DejaVuSans-30" x="63.623047"/>
       <use xlink:href="#DejaVuSans-30" x="127.246094"/>
      </g>
     </g>
    </g>
    <g id="text_17">
     <!-- rate -->
     <g transform="translate(39.832812 228.31625) rotate(-90) scale(0.1 -0.1)">
      <defs>
       <path id="DejaVuSans-72" d="M 2631 2963 
Q 2534 3019 2420 3045 
Q 2306 3072 2169 3072 
Q 1681 3072 1420 2755 
Q 1159 2438 1159 1844 
L 1159 0 
L 581 0 
L 581 3500 
L 1159 3500 
L 1159 2956 
Q 1341 3275 1631 3429 
Q 1922 3584 2338 3584 
Q 2397 3584 2469 3576 
Q 2541 3569 2628 3553 
L 2631 2963 
z
" transform="scale(0.015625)"/>
       <path id="DejaVuSans-61" d="M 2194 1759 
Q 1497 1759 1228 1600 
Q 959 1441 959 1056 
Q 959 750 1161 570 
Q 1363 391 1709 391 
Q 2188 391 2477 730 
Q 2766 1069 2766 1631 
L 2766 1759 
L 2194 1759 
z
M 3341 1997 
L 3341 0 
L 2766 0 
L 2766 531 
Q 2569 213 2275 61 
Q 1981 -91 1556 -91 
Q 1019 -91 701 211 
Q 384 513 384 1019 
Q 384 1609 779 1909 
Q 1175 2209 1959 2209 
L 2766 2209 
L 2766 2266 
Q 2766 2663 2505 2880 
Q 2244 3097 1772 3097 
Q 1472 3097 1187 3025 
Q 903 2953 641 2809 
L 641 3341 
Q 956 3463 1253 3523 
Q 1550 3584 1831 3584 
Q 2591 3584 2966 3190 
Q 3341 2797 3341 1997 
z
" transform="scale(0.015625)"/>
       <path id="DejaVuSans-74" d="M 1172 4494 
L 1172 3500 
L 2356 3500 
L 2356 3053 
L 1172 3053 
L 1172 1153 
Q 1172 725 1289 603 
Q 1406 481 1766 481 
L 2356 481 
L 2356 0 
L 1766 0 
Q 1100 0 847 248 
Q 594 497 594 1153 
L 594 3053 
L 172 3053 
L 172 3500 
L 594 3500 
L 594 4494 
L 1172 4494 
z
" transform="scale(0.015625)"/>
      </defs>
      <use xlink:href="#DejaVuSans-72"/>
      <use xlink:href="#DejaVuSans-61" x="41.113281"/>
      <use xlink:href="#DejaVuSans-74" x="102.392578"/>
      <use xlink:href="#DejaVuSans-65" x="141.601562"/>
     </g>
    </g>
   </g>
   <g id="line2d_16">
    <path d="M 92.290909 107.22454 
L 94.330196 59.601608 
L 96.369484 75.402008 
L 98.408771 51.84 
L 100.448058 72.241939 
L 102.487346 62.262713 
L 104.526633 61.15393 
L 106.565921 74.903043 
L 108.605208 72.685452 
L 110.644495 73.350696 
L 112.683783 64.480305 
L 114.72307 72.241913 
L 116.762357 70.46786 
L 118.801645 69.802565 
L 120.840932 51.84 
L 122.880219 61.8192 
L 124.919507 87.543374 
L 126.958794 97.522548 
L 128.998081 64.203147 
L 131.037369 63.815035 
L 133.076656 73.12894 
L 135.115943 67.806705 
L 137.155231 67.141435 
L 141.233805 74.903043 
L 143.273093 82.387418 
L 145.31238 74.903043 
L 147.351667 56.275183 
L 149.390955 80.890548 
L 151.430242 69.359026 
L 153.469529 76.011826 
L 155.508817 64.923843 
L 157.548104 84.216948 
L 159.587392 72.685452 
L 161.626679 57.383966 
L 163.665966 58.936313 
L 165.705254 74.903043 
L 167.744541 69.802565 
L 169.783828 70.46781 
L 171.823116 69.359026 
L 173.862403 76.677096 
L 175.90169 58.936313 
L 177.940978 79.338252 
L 179.980265 62.262713 
L 182.019552 74.903043 
L 184.05884 74.903043 
L 186.098127 78.229443 
L 188.137414 58.936313 
L 190.176702 69.802565 
L 192.215989 61.15393 
L 194.255276 73.350696 
L 196.294564 60.045122 
L 198.333851 71.576643 
L 200.373138 54.057592 
L 202.412426 58.936313 
L 204.451713 69.359026 
L 206.491 62.262713 
L 208.530288 83.773435 
L 210.569575 62.262713 
L 212.608862 65.589139 
L 214.64815 67.141435 
L 216.687437 62.262713 
L 218.726725 69.802565 
L 220.766012 67.141435 
L 222.805299 72.241939 
L 224.844587 81.555843 
L 226.883874 74.903043 
L 228.923161 64.480305 
L 230.962449 78.229443 
L 233.001736 64.923843 
L 235.041023 66.697922 
L 237.080311 72.685452 
L 239.119598 70.46786 
L 241.158885 64.923843 
L 243.198173 70.024322 
L 245.23746 61.597418 
L 247.276747 64.923843 
L 251.355322 76.011826 
L 253.394609 71.576643 
L 255.433897 84.882218 
L 257.473184 74.903043 
L 259.512471 58.936313 
L 261.551759 64.480305 
L 263.591046 72.685452 
L 265.630333 62.262713 
L 267.669621 60.045122 
L 269.708908 84.882218 
L 271.748196 63.815035 
L 273.787483 67.141435 
L 275.82677 85.991052 
L 277.866058 54.057592 
L 279.905345 72.685452 
L 281.944632 54.057592 
L 283.98392 64.923843 
L 286.023207 63.815035 
L 288.062494 73.350696 
L 290.101782 60.045122 
L 292.141069 74.903043 
L 294.180356 77.12066 
L 296.219644 76.45539 
L 298.258931 69.359026 
L 300.298218 64.480305 
L 302.337506 67.529522 
L 304.376793 62.262713 
L 306.41608 64.480305 
L 308.455368 64.923843 
L 310.494655 62.262713 
L 312.533942 67.141435 
L 314.57323 70.46786 
L 316.612517 63.815035 
L 318.651804 77.12066 
L 320.691092 62.262713 
L 322.730379 67.141435 
L 324.769667 70.46781 
L 326.808954 56.718722 
L 328.848241 80.890574 
L 330.887529 58.936313 
L 332.926816 67.141435 
L 334.966103 80.890574 
L 337.005391 77.12066 
L 339.044678 80.890574 
L 341.083965 62.262713 
L 343.123253 64.923843 
L 345.16254 64.923843 
L 347.201827 83.773435 
L 349.241115 62.262713 
L 351.280402 54.057592 
L 353.319689 72.685452 
L 355.358977 79.338201 
L 357.398264 64.480305 
L 359.437551 72.685452 
L 361.476839 70.024322 
L 363.516126 66.697922 
L 365.555413 74.903043 
L 367.594701 54.057592 
L 369.633988 64.923843 
L 371.673275 64.923843 
L 373.712563 83.773435 
L 375.75185 70.46786 
L 377.791138 66.697922 
L 379.830425 63.815035 
L 381.869712 63.815035 
L 383.909 66.697922 
L 385.948287 70.024322 
L 387.987574 87.543374 
L 390.026862 83.773435 
L 392.066149 72.685452 
L 394.105436 76.011826 
L 396.144724 61.15393 
L 398.184011 73.794235 
L 400.223298 61.8192 
L 402.262586 62.262713 
L 404.301873 76.011826 
L 406.34116 71.576643 
L 408.380448 70.46786 
L 410.419735 68.915513 
L 412.459022 66.697922 
L 414.49831 68.915513 
L 416.537597 58.936313 
L 418.576884 64.923843 
L 420.616172 72.685452 
L 422.655459 84.216948 
L 424.694746 67.141435 
L 426.734034 67.141435 
L 428.773321 60.045096 
L 432.851896 78.61753 
L 434.891183 66.697922 
L 436.930471 81.555843 
L 438.969758 64.923843 
L 441.009045 80.835122 
L 443.048333 69.359026 
L 445.08762 73.794235 
L 447.126907 79.338252 
L 449.166195 76.011826 
L 451.205482 64.480305 
L 453.244769 60.045096 
L 455.284057 64.923843 
L 457.323344 79.338252 
L 459.362631 54.057592 
L 461.401919 62.262713 
L 463.441206 80.835122 
L 465.480493 64.923843 
L 469.559068 85.991052 
L 471.598355 70.024322 
L 473.637643 56.718722 
L 475.67693 69.802565 
L 477.716217 63.815035 
L 479.755505 96.136531 
L 481.794792 58.936313 
L 483.834079 73.350696 
L 485.873367 72.685452 
L 487.912654 59.601608 
L 489.951942 59.601608 
L 491.991229 64.480305 
L 494.030516 78.229443 
L 496.069804 57.383966 
L 498.109091 62.262713 
L 498.109091 62.262713 
" clip-path="url(#pc319d0378d)" style="fill: none; stroke: #0000ff; stroke-width: 1.5; stroke-linecap: square"/>
   </g>
   <g id="line2d_17">
    <path d="M 92.290909 111.900006 
L 94.330196 121.139983 
L 96.369484 121.139983 
L 98.408771 98.040014 
L 100.448058 84.180023 
L 102.487346 74.94002 
L 104.526633 74.94002 
L 106.565921 61.080028 
L 108.605208 98.040014 
L 110.644495 84.180023 
L 112.683783 74.94002 
L 114.72307 74.94002 
L 116.762357 111.900006 
L 118.801645 74.94002 
L 120.840932 70.320006 
L 122.880219 74.94002 
L 124.919507 74.94002 
L 126.958794 84.180023 
L 128.998081 111.900006 
L 131.037369 111.900006 
L 133.076656 102.660028 
L 137.155231 102.660028 
L 139.194518 74.94002 
L 143.273093 74.94002 
L 145.31238 84.180023 
L 147.351667 74.94002 
L 149.390955 84.180023 
L 151.430242 74.94002 
L 153.469529 51.84 
L 155.508817 102.660028 
L 157.548104 111.900006 
L 159.587392 84.180023 
L 161.626679 84.180023 
L 163.665966 111.900006 
L 165.705254 74.94002 
L 169.783828 74.94002 
L 171.823116 102.660028 
L 173.862403 102.660028 
L 175.90169 74.94002 
L 179.980265 74.94002 
L 182.019552 102.660028 
L 184.05884 70.320006 
L 186.098127 74.94002 
L 188.137414 84.180023 
L 190.176702 84.180023 
L 192.215989 88.800011 
L 194.255276 61.080028 
L 196.294564 84.180023 
L 198.333851 111.900006 
L 200.373138 111.900006 
L 202.412426 61.080028 
L 204.451713 74.94002 
L 206.491 102.660028 
L 208.530288 102.660028 
L 210.569575 111.900006 
L 212.608862 61.080028 
L 214.64815 70.320006 
L 216.687437 88.800011 
L 218.726725 61.080028 
L 220.766012 111.900006 
L 222.805299 98.040014 
L 224.844587 88.800011 
L 228.923161 61.080028 
L 230.962449 74.94002 
L 233.001736 111.900006 
L 235.041023 111.900006 
L 237.080311 84.180023 
L 239.119598 74.94002 
L 241.158885 74.94002 
L 243.198173 102.660028 
L 245.23746 74.94002 
L 247.276747 111.900006 
L 249.316035 61.080028 
L 251.355322 74.94002 
L 253.394609 111.900006 
L 255.433897 74.94002 
L 257.473184 61.080028 
L 259.512471 121.139983 
L 261.551759 111.900006 
L 263.591046 111.900006 
L 265.630333 74.94002 
L 267.669621 74.94002 
L 269.708908 102.660028 
L 271.748196 102.660028 
L 273.787483 74.94002 
L 275.82677 61.080028 
L 277.866058 135 
L 279.905345 111.900006 
L 281.944632 61.080028 
L 283.98392 84.180023 
L 286.023207 102.660028 
L 288.062494 102.660028 
L 290.101782 84.180023 
L 292.141069 70.320006 
L 294.180356 74.94002 
L 296.219644 74.94002 
L 298.258931 84.180023 
L 300.298218 74.94002 
L 302.337506 70.320006 
L 304.376793 61.080028 
L 306.41608 84.180023 
L 308.455368 61.080028 
L 310.494655 102.660028 
L 312.533942 84.180023 
L 314.57323 102.660028 
L 316.612517 61.080028 
L 318.651804 102.660028 
L 320.691092 61.080028 
L 322.730379 102.660028 
L 324.769667 88.800011 
L 326.808954 102.660028 
L 328.848241 121.139983 
L 330.887529 84.180023 
L 332.926816 61.080028 
L 334.966103 74.94002 
L 337.005391 61.080028 
L 339.044678 84.180023 
L 341.083965 84.180023 
L 343.123253 88.800011 
L 345.16254 74.94002 
L 347.201827 70.320006 
L 349.241115 61.080028 
L 351.280402 111.900006 
L 353.319689 74.94002 
L 355.358977 74.94002 
L 357.398264 111.900006 
L 359.437551 74.94002 
L 361.476839 74.94002 
L 363.516126 102.660028 
L 365.555413 102.660028 
L 367.594701 74.94002 
L 369.633988 88.800011 
L 371.673275 88.800011 
L 373.712563 98.040014 
L 375.75185 61.080028 
L 377.791138 61.080028 
L 379.830425 125.760023 
L 381.869712 121.139983 
L 383.909 74.94002 
L 385.948287 98.040014 
L 387.987574 61.080028 
L 390.026862 102.660028 
L 392.066149 98.040014 
L 394.105436 74.94002 
L 396.144724 74.94002 
L 398.184011 61.080028 
L 400.223298 111.900006 
L 402.262586 111.900006 
L 406.34116 84.180023 
L 408.380448 135 
L 410.419735 111.900006 
L 412.459022 84.180023 
L 414.49831 84.180023 
L 416.537597 74.94002 
L 418.576884 102.660028 
L 420.616172 88.800011 
L 422.655459 98.040014 
L 424.694746 74.94002 
L 426.734034 74.94002 
L 428.773321 107.280017 
L 430.812608 61.080028 
L 432.851896 121.139983 
L 434.891183 102.660028 
L 436.930471 111.900006 
L 438.969758 102.660028 
L 441.009045 74.94002 
L 443.048333 88.800011 
L 445.08762 111.900006 
L 447.126907 125.760023 
L 449.166195 98.040014 
L 451.205482 74.94002 
L 453.244769 84.180023 
L 455.284057 102.660028 
L 457.323344 70.320006 
L 459.362631 107.280017 
L 461.401919 102.660028 
L 463.441206 70.320006 
L 465.480493 74.94002 
L 469.559068 102.660028 
L 471.598355 102.660028 
L 473.637643 84.180023 
L 475.67693 121.139983 
L 477.716217 88.800011 
L 479.755505 102.660028 
L 481.794792 74.94002 
L 483.834079 98.040014 
L 485.873367 102.660028 
L 487.912654 111.900006 
L 489.951942 79.559983 
L 491.991229 102.660028 
L 494.030516 111.900006 
L 496.069804 125.760023 
L 498.109091 74.94002 
L 498.109091 74.94002 
" clip-path="url(#pc319d0378d)" style="fill: none; stroke: #008000; stroke-width: 1.5; stroke-linecap: square"/>
   </g>
   <g id="patch_3">
    <path d="M 72 384.48 
L 72 51.84 
" style="fill: none; stroke: #000000; stroke-width: 0.8; stroke-linejoin: miter; stroke-linecap: square"/>
   </g>
   <g id="patch_4">
    <path d="M 518.4 384.48 
L 518.4 51.84 
" style="fill: none; stroke: #000000; stroke-width: 0.8; stroke-linejoin: miter; stroke-linecap: square"/>
   </g>
   <g id="patch_5">
    <path d="M 72 384.48 
L 518.4 384.48 
" style="fill: none; stroke: #000000; stroke-width: 0.8; stroke-linejoin: miter; stroke-linecap: square"/>
   </g>
   <g id="patch_6">
    <path d="M 72 51.84 
L 518.4 51.84 
" style="fill: none; stroke: #000000; stroke-width: 0.8; stroke-linejoin: miter; stroke-linecap: square"/>
   </g>
   <g id="legend_1">
    <g id="patch_7">
     <path d="M 79 89.19625 
L 160.740625 89.19625 
Q 162.740625 89.19625 162.740625 87.19625 
L 162.740625 58.84 
Q 162.740625 56.84 160.740625 56.84 
L 79 56.84 
Q 77 56.84 77 58.84 
L 77 87.19625 
Q 77 89.19625 79 89.19625 
z
" style="fill: #ffffff; opacity: 0.8; stroke: #cccccc; stroke-linejoin: miter"/>
    </g>
    <g id="line2d_18">
     <path d="M 81 64.938437 
L 91 64.938437 
L 101 64.938437 
" style="fill: none; stroke: #0000ff; stroke-width: 1.5; stroke-linecap: square"/>
    </g>
    <g id="text_18">
     <!-- train mAP -->
     <g transform="translate(109 68.438437) scale(0.1 -0.1)">
      <defs>
       <path id="DejaVuSans-69" d="M 603 3500 
L 1178 3500 
L 1178 0 
L 603 0 
L 603 3500 
z
M 603 4863 
L 1178 4863 
L 1178 4134 
L 603 4134 
L 603 4863 
z
" transform="scale(0.015625)"/>
       <path id="DejaVuSans-6e" d="M 3513 2113 
L 3513 0 
L 2938 0 
L 2938 2094 
Q 2938 2591 2744 2837 
Q 2550 3084 2163 3084 
Q 1697 3084 1428 2787 
Q 1159 2491 1159 1978 
L 1159 0 
L 581 0 
L 581 3500 
L 1159 3500 
L 1159 2956 
Q 1366 3272 1645 3428 
Q 1925 3584 2291 3584 
Q 2894 3584 3203 3211 
Q 3513 2838 3513 2113 
z
" transform="scale(0.015625)"/>
       <path id="DejaVuSans-20" transform="scale(0.015625)"/>
       <path id="DejaVuSans-6d" d="M 3328 2828 
Q 3544 3216 3844 3400 
Q 4144 3584 4550 3584 
Q 5097 3584 5394 3201 
Q 5691 2819 5691 2113 
L 5691 0 
L 5113 0 
L 5113 2094 
Q 5113 2597 4934 2840 
Q 4756 3084 4391 3084 
Q 3944 3084 3684 2787 
Q 3425 2491 3425 1978 
L 3425 0 
L 2847 0 
L 2847 2094 
Q 2847 2600 2669 2842 
Q 2491 3084 2119 3084 
Q 1678 3084 1418 2786 
Q 1159 2488 1159 1978 
L 1159 0 
L 581 0 
L 581 3500 
L 1159 3500 
L 1159 2956 
Q 1356 3278 1631 3431 
Q 1906 3584 2284 3584 
Q 2666 3584 2933 3390 
Q 3200 3197 3328 2828 
z
" transform="scale(0.015625)"/>
       <path id="DejaVuSans-41" d="M 2188 4044 
L 1331 1722 
L 3047 1722 
L 2188 4044 
z
M 1831 4666 
L 2547 4666 
L 4325 0 
L 3669 0 
L 3244 1197 
L 1141 1197 
L 716 0 
L 50 0 
L 1831 4666 
z
" transform="scale(0.015625)"/>
       <path id="DejaVuSans-50" d="M 1259 4147 
L 1259 2394 
L 2053 2394 
Q 2494 2394 2734 2622 
Q 2975 2850 2975 3272 
Q 2975 3691 2734 3919 
Q 2494 4147 2053 4147 
L 1259 4147 
z
M 628 4666 
L 2053 4666 
Q 2838 4666 3239 4311 
Q 3641 3956 3641 3272 
Q 3641 2581 3239 2228 
Q 2838 1875 2053 1875 
L 1259 1875 
L 1259 0 
L 628 0 
L 628 4666 
z
" transform="scale(0.015625)"/>
      </defs>
      <use xlink:href="#DejaVuSans-74"/>
      <use xlink:href="#DejaVuSans-72" x="39.208984"/>
      <use xlink:href="#DejaVuSans-61" x="80.322266"/>
      <use xlink:href="#DejaVuSans-69" x="141.601562"/>
      <use xlink:href="#DejaVuSans-6e" x="169.384766"/>
      <use xlink:href="#DejaVuSans-20" x="232.763672"/>
      <use xlink:href="#DejaVuSans-6d" x="264.550781"/>
      <use xlink:href="#DejaVuSans-41" x="361.962891"/>
      <use xlink:href="#DejaVuSans-50" x="430.371094"/>
     </g>
    </g>
    <g id="line2d_19">
     <path d="M 81 79.616562 
L 91 79.616562 
L 101 79.616562 
" style="fill: none; stroke: #008000; stroke-width: 1.5; stroke-linecap: square"/>
    </g>
    <g id="text_19">
     <!-- valid mAP -->
     <g transform="translate(109 83.116562) scale(0.1 -0.1)">
      <defs>
       <path id="DejaVuSans-76" d="M 191 3500 
L 800 3500 
L 1894 563 
L 2988 3500 
L 3597 3500 
L 2284 0 
L 1503 0 
L 191 3500 
z
" transform="scale(0.015625)"/>
       <path id="DejaVuSans-6c" d="M 603 4863 
L 1178 4863 
L 1178 0 
L 603 0 
L 603 4863 
z
" transform="scale(0.015625)"/>
       <path id="DejaVuSans-64" d="M 2906 2969 
L 2906 4863 
L 3481 4863 
L 3481 0 
L 2906 0 
L 2906 525 
Q 2725 213 2448 61 
Q 2172 -91 1784 -91 
Q 1150 -91 751 415 
Q 353 922 353 1747 
Q 353 2572 751 3078 
Q 1150 3584 1784 3584 
Q 2172 3584 2448 3432 
Q 2725 3281 2906 2969 
z
M 947 1747 
Q 947 1113 1208 752 
Q 1469 391 1925 391 
Q 2381 391 2643 752 
Q 2906 1113 2906 1747 
Q 2906 2381 2643 2742 
Q 2381 3103 1925 3103 
Q 1469 3103 1208 2742 
Q 947 2381 947 1747 
z
" transform="scale(0.015625)"/>
      </defs>
      <use xlink:href="#DejaVuSans-76"/>
      <use xlink:href="#DejaVuSans-61" x="59.179688"/>
      <use xlink:href="#DejaVuSans-6c" x="120.458984"/>
      <use xlink:href="#DejaVuSans-69" x="148.242188"/>
      <use xlink:href="#DejaVuSans-64" x="176.025391"/>
      <use xlink:href="#DejaVuSans-20" x="239.501953"/>
      <use xlink:href="#DejaVuSans-6d" x="271.289062"/>
      <use xlink:href="#DejaVuSans-41" x="368.701172"/>
      <use xlink:href="#DejaVuSans-50" x="437.109375"/>
     </g>
    </g>
   </g>
  </g>
  <g id="axes_2">
   <g id="matplotlib.axis_3">
    <g id="ytick_7">
     <g id="line2d_20">
      <defs>
       <path id="mcbc3c6d2d5" d="M 0 0 
L 3.5 0 
" style="stroke: #000000; stroke-width: 0.8"/>
      </defs>
      <g>
       <use xlink:href="#mcbc3c6d2d5" x="518.4" y="344.559694" style="stroke: #000000; stroke-width: 0.8"/>
      </g>
     </g>
     <g id="text_20">
      <!-- 2 -->
      <g transform="translate(525.4 348.358913) scale(0.1 -0.1)">
       <use xlink:href="#DejaVuSans-32"/>
      </g>
     </g>
    </g>
    <g id="ytick_8">
     <g id="line2d_21">
      <g>
       <use xlink:href="#mcbc3c6d2d5" x="518.4" y="293.148351" style="stroke: #000000; stroke-width: 0.8"/>
      </g>
     </g>
     <g id="text_21">
      <!-- 4 -->
      <g transform="translate(525.4 296.94757) scale(0.1 -0.1)">
       <use xlink:href="#DejaVuSans-34"/>
      </g>
     </g>
    </g>
    <g id="ytick_9">
     <g id="line2d_22">
      <g>
       <use xlink:href="#mcbc3c6d2d5" x="518.4" y="241.737009" style="stroke: #000000; stroke-width: 0.8"/>
      </g>
     </g>
     <g id="text_22">
      <!-- 6 -->
      <g transform="translate(525.4 245.536228) scale(0.1 -0.1)">
       <use xlink:href="#DejaVuSans-36"/>
      </g>
     </g>
    </g>
    <g id="ytick_10">
     <g id="line2d_23">
      <g>
       <use xlink:href="#mcbc3c6d2d5" x="518.4" y="190.325666" style="stroke: #000000; stroke-width: 0.8"/>
      </g>
     </g>
     <g id="text_23">
      <!-- 8 -->
      <g transform="translate(525.4 194.124885) scale(0.1 -0.1)">
       <use xlink:href="#DejaVuSans-38"/>
      </g>
     </g>
    </g>
    <g id="ytick_11">
     <g id="line2d_24">
      <g>
       <use xlink:href="#mcbc3c6d2d5" x="518.4" y="138.914324" style="stroke: #000000; stroke-width: 0.8"/>
      </g>
     </g>
     <g id="text_24">
      <!-- 10 -->
      <g transform="translate(525.4 142.713542) scale(0.1 -0.1)">
       <use xlink:href="#DejaVuSans-31"/>
       <use xlink:href="#DejaVuSans-30" x="63.623047"/>
      </g>
     </g>
    </g>
    <g id="ytick_12">
     <g id="line2d_25">
      <g>
       <use xlink:href="#mcbc3c6d2d5" x="518.4" y="87.502981" style="stroke: #000000; stroke-width: 0.8"/>
      </g>
     </g>
     <g id="text_25">
      <!-- 12 -->
      <g transform="translate(525.4 91.3022) scale(0.1 -0.1)">
       <use xlink:href="#DejaVuSans-31"/>
       <use xlink:href="#DejaVuSans-32" x="63.623047"/>
      </g>
     </g>
    </g>
    <g id="text_26">
     <!-- loss -->
     <g transform="translate(549.723438 227.817812) rotate(-90) scale(0.1 -0.1)">
      <defs>
       <path id="DejaVuSans-73" d="M 2834 3397 
L 2834 2853 
Q 2591 2978 2328 3040 
Q 2066 3103 1784 3103 
Q 1356 3103 1142 2972 
Q 928 2841 928 2578 
Q 928 2378 1081 2264 
Q 1234 2150 1697 2047 
L 1894 2003 
Q 2506 1872 2764 1633 
Q 3022 1394 3022 966 
Q 3022 478 2636 193 
Q 2250 -91 1575 -91 
Q 1294 -91 989 -36 
Q 684 19 347 128 
L 347 722 
Q 666 556 975 473 
Q 1284 391 1588 391 
Q 1994 391 2212 530 
Q 2431 669 2431 922 
Q 2431 1156 2273 1281 
Q 2116 1406 1581 1522 
L 1381 1569 
Q 847 1681 609 1914 
Q 372 2147 372 2553 
Q 372 3047 722 3315 
Q 1072 3584 1716 3584 
Q 2034 3584 2315 3537 
Q 2597 3491 2834 3397 
z
" transform="scale(0.015625)"/>
      </defs>
      <use xlink:href="#DejaVuSans-6c"/>
      <use xlink:href="#DejaVuSans-6f" x="27.783203"/>
      <use xlink:href="#DejaVuSans-73" x="88.964844"/>
      <use xlink:href="#DejaVuSans-73" x="141.064453"/>
     </g>
    </g>
   </g>
   <g id="line2d_26">
    <path d="M 92.290909 317.561447 
L 94.330196 335.896702 
L 96.369484 346.944044 
L 98.408771 356.611415 
L 100.448058 355.161608 
L 102.487346 354.720547 
L 104.526633 363.41618 
L 106.565921 369.36 
L 108.605208 338.255049 
L 110.644495 345.676827 
L 112.683783 335.138251 
L 114.72307 352.999689 
L 116.762357 345.714706 
L 118.801645 353.710445 
L 120.840932 359.403399 
L 122.880219 348.691785 
L 124.919507 335.057491 
L 126.958794 338.743593 
L 128.998081 327.932839 
L 131.037369 325.326763 
L 133.076656 311.958656 
L 135.115943 323.27433 
L 137.155231 310.6475 
L 139.194518 345.304642 
L 141.233805 323.844262 
L 143.273093 329.075196 
L 145.31238 345.044432 
L 147.351667 321.515323 
L 149.390955 327.293829 
L 151.430242 312.748014 
L 153.469529 351.900365 
L 155.508817 332.045922 
L 157.548104 302.030457 
L 159.587392 342.862783 
L 161.626679 337.583263 
L 163.665966 306.532224 
L 165.705254 272.079925 
L 167.744541 304.429755 
L 169.783828 305.966777 
L 171.823116 305.948517 
L 173.862403 287.456423 
L 175.90169 291.535663 
L 177.940978 294.021216 
L 179.980265 329.704882 
L 182.019552 275.545055 
L 184.05884 293.683742 
L 186.098127 305.996396 
L 188.137414 307.563263 
L 190.176702 322.56321 
L 192.215989 276.908765 
L 194.255276 323.486147 
L 196.294564 290.699447 
L 198.333851 273.510973 
L 200.373138 252.030465 
L 202.412426 253.136644 
L 204.451713 315.625138 
L 206.491 271.960664 
L 208.530288 284.674277 
L 210.569575 271.398204 
L 212.608862 306.295516 
L 214.64815 310.944427 
L 216.687437 275.732624 
L 218.726725 329.565751 
L 220.766012 262.205345 
L 222.805299 289.926964 
L 224.844587 307.136966 
L 226.883874 287.108251 
L 228.923161 265.796548 
L 230.962449 274.130867 
L 233.001736 257.399331 
L 235.041023 254.254169 
L 237.080311 253.527322 
L 239.119598 276.892617 
L 241.158885 278.638104 
L 243.198173 231.675001 
L 245.23746 249.054212 
L 247.276747 261.704352 
L 249.316035 260.584924 
L 251.355322 221.755503 
L 253.394609 250.663267 
L 255.433897 234.050562 
L 257.473184 311.323257 
L 259.512471 289.310799 
L 261.551759 261.471025 
L 263.591046 292.707967 
L 265.630333 253.803476 
L 267.669621 320.574973 
L 269.708908 194.698807 
L 271.748196 268.998842 
L 273.787483 277.195559 
L 275.82677 275.976818 
L 277.866058 191.842007 
L 279.905345 215.130141 
L 281.944632 235.818572 
L 283.98392 194.033143 
L 286.023207 239.48659 
L 288.062494 246.570158 
L 290.101782 242.077226 
L 292.141069 226.851435 
L 294.180356 181.808666 
L 296.219644 257.829275 
L 298.258931 245.847663 
L 300.298218 257.122656 
L 302.337506 230.316324 
L 304.376793 201.140145 
L 306.41608 177.654951 
L 308.455368 205.415245 
L 310.494655 177.513347 
L 312.533942 206.799172 
L 314.57323 217.980145 
L 316.612517 212.448194 
L 318.651804 207.738081 
L 320.691092 208.389854 
L 322.730379 135.959256 
L 324.769667 180.47876 
L 328.848241 216.616343 
L 330.887529 164.904048 
L 332.926816 155.040086 
L 334.966103 200.971658 
L 337.005391 289.95351 
L 339.044678 250.501679 
L 341.083965 219.364467 
L 343.123253 176.238738 
L 345.16254 265.968158 
L 349.241115 165.392788 
L 351.280402 129.589431 
L 353.319689 230.397934 
L 355.358977 249.114437 
L 357.398264 185.162841 
L 359.437551 182.503312 
L 361.476839 219.790345 
L 363.516126 210.291458 
L 365.555413 166.263911 
L 367.594701 159.406921 
L 369.633988 251.467255 
L 371.673275 147.00533 
L 373.712563 154.119343 
L 375.75185 103.033744 
L 377.791138 230.482682 
L 379.830425 146.448628 
L 381.869712 113.000166 
L 383.909 190.465205 
L 385.948287 205.310947 
L 387.987574 250.761595 
L 390.026862 208.224894 
L 392.066149 122.903143 
L 394.105436 255.793554 
L 396.144724 223.807211 
L 398.184011 177.866992 
L 400.223298 109.84578 
L 402.262586 207.141414 
L 404.301873 192.134297 
L 406.34116 161.027909 
L 408.380448 181.345219 
L 410.419735 214.960146 
L 412.459022 119.908999 
L 414.49831 135.650669 
L 416.537597 198.477101 
L 418.576884 200.311314 
L 420.616172 169.629896 
L 422.655459 127.758276 
L 424.694746 142.229453 
L 426.734034 221.173251 
L 428.773321 136.129843 
L 430.812608 205.053801 
L 432.851896 118.976326 
L 434.891183 218.72455 
L 436.930471 171.660405 
L 438.969758 157.902549 
L 441.009045 137.882427 
L 443.048333 139.393197 
L 445.08762 210.467223 
L 447.126907 162.790428 
L 449.166195 66.96 
L 451.205482 241.882363 
L 453.244769 151.613126 
L 455.284057 116.961304 
L 457.323344 99.763051 
L 459.362631 211.209538 
L 461.401919 204.184042 
L 463.441206 193.223516 
L 465.480493 181.539799 
L 467.519781 211.800867 
L 469.559068 251.599488 
L 471.598355 180.552458 
L 473.637643 135.228426 
L 475.67693 208.248881 
L 477.716217 161.917124 
L 479.755505 140.638845 
L 481.794792 135.132579 
L 483.834079 206.05036 
L 485.873367 216.8701 
L 487.912654 144.112156 
L 489.951942 145.25588 
L 491.991229 232.662277 
L 494.030516 133.632075 
L 496.069804 129.348131 
L 498.109091 135.82413 
L 498.109091 135.82413 
" clip-path="url(#pc319d0378d)" style="fill: none; stroke: #ff0000; stroke-width: 1.5; stroke-linecap: square"/>
   </g>
   <g id="patch_8">
    <path d="M 72 384.48 
L 72 51.84 
" style="fill: none; stroke: #000000; stroke-width: 0.8; stroke-linejoin: miter; stroke-linecap: square"/>
   </g>
   <g id="patch_9">
    <path d="M 518.4 384.48 
L 518.4 51.84 
" style="fill: none; stroke: #000000; stroke-width: 0.8; stroke-linejoin: miter; stroke-linecap: square"/>
   </g>
   <g id="patch_10">
    <path d="M 72 384.48 
L 518.4 384.48 
" style="fill: none; stroke: #000000; stroke-width: 0.8; stroke-linejoin: miter; stroke-linecap: square"/>
   </g>
   <g id="patch_11">
    <path d="M 72 51.84 
L 518.4 51.84 
" style="fill: none; stroke: #000000; stroke-width: 0.8; stroke-linejoin: miter; stroke-linecap: square"/>
   </g>
   <g id="text_27">
    <!-- The learning curve on voc/voc_fpsl_plateau_weight_decay/host/9 -->
    <g transform="translate(100.126875 45.84) scale(0.12 -0.12)">
     <defs>
      <path id="DejaVuSans-54" d="M -19 4666 
L 3928 4666 
L 3928 4134 
L 2272 4134 
L 2272 0 
L 1638 0 
L 1638 4134 
L -19 4134 
L -19 4666 
z
" transform="scale(0.015625)"/>
      <path id="DejaVuSans-67" d="M 2906 1791 
Q 2906 2416 2648 2759 
Q 2391 3103 1925 3103 
Q 1463 3103 1205 2759 
Q 947 2416 947 1791 
Q 947 1169 1205 825 
Q 1463 481 1925 481 
Q 2391 481 2648 825 
Q 2906 1169 2906 1791 
z
M 3481 434 
Q 3481 -459 3084 -895 
Q 2688 -1331 1869 -1331 
Q 1566 -1331 1297 -1286 
Q 1028 -1241 775 -1147 
L 775 -588 
Q 1028 -725 1275 -790 
Q 1522 -856 1778 -856 
Q 2344 -856 2625 -561 
Q 2906 -266 2906 331 
L 2906 616 
Q 2728 306 2450 153 
Q 2172 0 1784 0 
Q 1141 0 747 490 
Q 353 981 353 1791 
Q 353 2603 747 3093 
Q 1141 3584 1784 3584 
Q 2172 3584 2450 3431 
Q 2728 3278 2906 2969 
L 2906 3500 
L 3481 3500 
L 3481 434 
z
" transform="scale(0.015625)"/>
      <path id="DejaVuSans-75" d="M 544 1381 
L 544 3500 
L 1119 3500 
L 1119 1403 
Q 1119 906 1312 657 
Q 1506 409 1894 409 
Q 2359 409 2629 706 
Q 2900 1003 2900 1516 
L 2900 3500 
L 3475 3500 
L 3475 0 
L 2900 0 
L 2900 538 
Q 2691 219 2414 64 
Q 2138 -91 1772 -91 
Q 1169 -91 856 284 
Q 544 659 544 1381 
z
M 1991 3584 
L 1991 3584 
z
" transform="scale(0.015625)"/>
      <path id="DejaVuSans-2f" d="M 1625 4666 
L 2156 4666 
L 531 -594 
L 0 -594 
L 1625 4666 
z
" transform="scale(0.015625)"/>
      <path id="DejaVuSans-5f" d="M 3263 -1063 
L 3263 -1509 
L -63 -1509 
L -63 -1063 
L 3263 -1063 
z
" transform="scale(0.015625)"/>
      <path id="DejaVuSans-66" d="M 2375 4863 
L 2375 4384 
L 1825 4384 
Q 1516 4384 1395 4259 
Q 1275 4134 1275 3809 
L 1275 3500 
L 2222 3500 
L 2222 3053 
L 1275 3053 
L 1275 0 
L 697 0 
L 697 3053 
L 147 3053 
L 147 3500 
L 697 3500 
L 697 3744 
Q 697 4328 969 4595 
Q 1241 4863 1831 4863 
L 2375 4863 
z
" transform="scale(0.015625)"/>
      <path id="DejaVuSans-77" d="M 269 3500 
L 844 3500 
L 1563 769 
L 2278 3500 
L 2956 3500 
L 3675 769 
L 4391 3500 
L 4966 3500 
L 4050 0 
L 3372 0 
L 2619 2869 
L 1863 0 
L 1184 0 
L 269 3500 
z
" transform="scale(0.015625)"/>
      <path id="DejaVuSans-79" d="M 2059 -325 
Q 1816 -950 1584 -1140 
Q 1353 -1331 966 -1331 
L 506 -1331 
L 506 -850 
L 844 -850 
Q 1081 -850 1212 -737 
Q 1344 -625 1503 -206 
L 1606 56 
L 191 3500 
L 800 3500 
L 1894 763 
L 2988 3500 
L 3597 3500 
L 2059 -325 
z
" transform="scale(0.015625)"/>
      <path id="DejaVuSans-39" d="M 703 97 
L 703 672 
Q 941 559 1184 500 
Q 1428 441 1663 441 
Q 2288 441 2617 861 
Q 2947 1281 2994 2138 
Q 2813 1869 2534 1725 
Q 2256 1581 1919 1581 
Q 1219 1581 811 2004 
Q 403 2428 403 3163 
Q 403 3881 828 4315 
Q 1253 4750 1959 4750 
Q 2769 4750 3195 4129 
Q 3622 3509 3622 2328 
Q 3622 1225 3098 567 
Q 2575 -91 1691 -91 
Q 1453 -91 1209 -44 
Q 966 3 703 97 
z
M 1959 2075 
Q 2384 2075 2632 2365 
Q 2881 2656 2881 3163 
Q 2881 3666 2632 3958 
Q 2384 4250 1959 4250 
Q 1534 4250 1286 3958 
Q 1038 3666 1038 3163 
Q 1038 2656 1286 2365 
Q 1534 2075 1959 2075 
z
" transform="scale(0.015625)"/>
     </defs>
     <use xlink:href="#DejaVuSans-54"/>
     <use xlink:href="#DejaVuSans-68" x="61.083984"/>
     <use xlink:href="#DejaVuSans-65" x="124.462891"/>
     <use xlink:href="#DejaVuSans-20" x="185.986328"/>
     <use xlink:href="#DejaVuSans-6c" x="217.773438"/>
     <use xlink:href="#DejaVuSans-65" x="245.556641"/>
     <use xlink:href="#DejaVuSans-61" x="307.080078"/>
     <use xlink:href="#DejaVuSans-72" x="368.359375"/>
     <use xlink:href="#DejaVuSans-6e" x="407.722656"/>
     <use xlink:href="#DejaVuSans-69" x="471.101562"/>
     <use xlink:href="#DejaVuSans-6e" x="498.884766"/>
     <use xlink:href="#DejaVuSans-67" x="562.263672"/>
     <use xlink:href="#DejaVuSans-20" x="625.740234"/>
     <use xlink:href="#DejaVuSans-63" x="657.527344"/>
     <use xlink:href="#DejaVuSans-75" x="712.507812"/>
     <use xlink:href="#DejaVuSans-72" x="775.886719"/>
     <use xlink:href="#DejaVuSans-76" x="817"/>
     <use xlink:href="#DejaVuSans-65" x="876.179688"/>
     <use xlink:href="#DejaVuSans-20" x="937.703125"/>
     <use xlink:href="#DejaVuSans-6f" x="969.490234"/>
     <use xlink:href="#DejaVuSans-6e" x="1030.671875"/>
     <use xlink:href="#DejaVuSans-20" x="1094.050781"/>
     <use xlink:href="#DejaVuSans-76" x="1125.837891"/>
     <use xlink:href="#DejaVuSans-6f" x="1185.017578"/>
     <use xlink:href="#DejaVuSans-63" x="1246.199219"/>
     <use xlink:href="#DejaVuSans-2f" x="1301.179688"/>
     <use xlink:href="#DejaVuSans-76" x="1334.871094"/>
     <use xlink:href="#DejaVuSans-6f" x="1394.050781"/>
     <use xlink:href="#DejaVuSans-63" x="1455.232422"/>
     <use xlink:href="#DejaVuSans-5f" x="1510.212891"/>
     <use xlink:href="#DejaVuSans-66" x="1560.212891"/>
     <use xlink:href="#DejaVuSans-70" x="1595.417969"/>
     <use xlink:href="#DejaVuSans-73" x="1658.894531"/>
     <use xlink:href="#DejaVuSans-6c" x="1710.994141"/>
     <use xlink:href="#DejaVuSans-5f" x="1738.777344"/>
     <use xlink:href="#DejaVuSans-70" x="1788.777344"/>
     <use xlink:href="#DejaVuSans-6c" x="1852.253906"/>
     <use xlink:href="#DejaVuSans-61" x="1880.037109"/>
     <use xlink:href="#DejaVuSans-74" x="1941.316406"/>
     <use xlink:href="#DejaVuSans-65" x="1980.525391"/>
     <use xlink:href="#DejaVuSans-61" x="2042.048828"/>
     <use xlink:href="#DejaVuSans-75" x="2103.328125"/>
     <use xlink:href="#DejaVuSans-5f" x="2166.707031"/>
     <use xlink:href="#DejaVuSans-77" x="2216.707031"/>
     <use xlink:href="#DejaVuSans-65" x="2298.494141"/>
     <use xlink:href="#DejaVuSans-69" x="2360.017578"/>
     <use xlink:href="#DejaVuSans-67" x="2387.800781"/>
     <use xlink:href="#DejaVuSans-68" x="2451.277344"/>
     <use xlink:href="#DejaVuSans-74" x="2514.65625"/>
     <use xlink:href="#DejaVuSans-5f" x="2553.865234"/>
     <use xlink:href="#DejaVuSans-64" x="2603.865234"/>
     <use xlink:href="#DejaVuSans-65" x="2667.341797"/>
     <use xlink:href="#DejaVuSans-63" x="2728.865234"/>
     <use xlink:href="#DejaVuSans-61" x="2783.845703"/>
     <use xlink:href="#DejaVuSans-79" x="2845.125"/>
     <use xlink:href="#DejaVuSans-2f" x="2904.304688"/>
     <use xlink:href="#DejaVuSans-68" x="2937.996094"/>
     <use xlink:href="#DejaVuSans-6f" x="3001.375"/>
     <use xlink:href="#DejaVuSans-73" x="3062.556641"/>
     <use xlink:href="#DejaVuSans-74" x="3114.65625"/>
     <use xlink:href="#DejaVuSans-2f" x="3153.865234"/>
     <use xlink:href="#DejaVuSans-39" x="3187.556641"/>
    </g>
   </g>
   <g id="legend_2">
    <g id="patch_12">
     <path d="M 460.084375 74.518125 
L 511.4 74.518125 
Q 513.4 74.518125 513.4 72.518125 
L 513.4 58.84 
Q 513.4 56.84 511.4 56.84 
L 460.084375 56.84 
Q 458.084375 56.84 458.084375 58.84 
L 458.084375 72.518125 
Q 458.084375 74.518125 460.084375 74.518125 
z
" style="fill: #ffffff; opacity: 0.8; stroke: #cccccc; stroke-linejoin: miter"/>
    </g>
    <g id="line2d_27">
     <path d="M 462.084375 64.938438 
L 472.084375 64.938438 
L 482.084375 64.938438 
" style="fill: none; stroke: #ff0000; stroke-width: 1.5; stroke-linecap: square"/>
    </g>
    <g id="text_28">
     <!-- loss -->
     <g transform="translate(490.084375 68.438438) scale(0.1 -0.1)">
      <use xlink:href="#DejaVuSans-6c"/>
      <use xlink:href="#DejaVuSans-6f" x="27.783203"/>
      <use xlink:href="#DejaVuSans-73" x="88.964844"/>
      <use xlink:href="#DejaVuSans-73" x="141.064453"/>
     </g>
    </g>
   </g>
  </g>
 </g>
 <defs>
  <clipPath id="pc319d0378d">
   <rect x="72" y="51.84" width="446.4" height="332.64"/>
  </clipPath>
 </defs>
</svg>
