<?xml version="1.0" encoding="utf-8" standalone="no"?>
<!DOCTYPE svg PUBLIC "-//W3C//DTD SVG 1.1//EN"
  "http://www.w3.org/Graphics/SVG/1.1/DTD/svg11.dtd">
<!-- Created with matplotlib (https://matplotlib.org/) -->
<svg height="432pt" version="1.1" viewBox="0 0 576 432" width="576pt" xmlns="http://www.w3.org/2000/svg" xmlns:xlink="http://www.w3.org/1999/xlink">
 <metadata>
  <rdf:RDF xmlns:cc="http://creativecommons.org/ns#" xmlns:dc="http://purl.org/dc/elements/1.1/" xmlns:rdf="http://www.w3.org/1999/02/22-rdf-syntax-ns#">
   <cc:Work>
    <dc:type rdf:resource="http://purl.org/dc/dcmitype/StillImage"/>
    <dc:date>2023-03-29T12:28:07.507093</dc:date>
    <dc:format>image/svg+xml</dc:format>
    <dc:creator>
     <cc:Agent>
      <dc:title>Matplotlib v3.3.4, https://matplotlib.org/</dc:title>
     </cc:Agent>
    </dc:creator>
   </cc:Work>
  </rdf:RDF>
 </metadata>
 <defs>
  <style type="text/css">*{stroke-linecap:butt;stroke-linejoin:round;}</style>
 </defs>
 <g id="figure_1">
  <g id="patch_1">
   <path d="M 0 432 
L 576 432 
L 576 0 
L 0 0 
z
" style="fill:#ffffff;"/>
  </g>
  <g id="axes_1">
   <g id="patch_2">
    <path d="M 72 384.48 
L 518.4 384.48 
L 518.4 51.84 
L 72 51.84 
z
" style="fill:#ffffff;"/>
   </g>
   <g id="matplotlib.axis_1">
    <g id="xtick_1">
     <g id="line2d_1">
      <defs>
       <path d="M 0 0 
L 0 3.5 
" id="m3ace4899f1" style="stroke:#000000;stroke-width:0.8;"/>
      </defs>
      <g>
       <use style="stroke:#000000;stroke-width:0.8;" x="92.290909" xlink:href="#m3ace4899f1" y="384.48"/>
      </g>
     </g>
     <g id="text_1">
      <!-- 0 -->
      <g transform="translate(89.109659 399.078438)scale(0.1 -0.1)">
       <defs>
        <path d="M 31.78125 66.40625 
Q 24.171875 66.40625 20.328125 58.90625 
Q 16.5 51.421875 16.5 36.375 
Q 16.5 21.390625 20.328125 13.890625 
Q 24.171875 6.390625 31.78125 6.390625 
Q 39.453125 6.390625 43.28125 13.890625 
Q 47.125 21.390625 47.125 36.375 
Q 47.125 51.421875 43.28125 58.90625 
Q 39.453125 66.40625 31.78125 66.40625 
z
M 31.78125 74.21875 
Q 44.046875 74.21875 50.515625 64.515625 
Q 56.984375 54.828125 56.984375 36.375 
Q 56.984375 17.96875 50.515625 8.265625 
Q 44.046875 -1.421875 31.78125 -1.421875 
Q 19.53125 -1.421875 13.0625 8.265625 
Q 6.59375 17.96875 6.59375 36.375 
Q 6.59375 54.828125 13.0625 64.515625 
Q 19.53125 74.21875 31.78125 74.21875 
z
" id="DejaVuSans-48"/>
       </defs>
       <use xlink:href="#DejaVuSans-48"/>
      </g>
     </g>
    </g>
    <g id="xtick_2">
     <g id="line2d_2">
      <g>
       <use style="stroke:#000000;stroke-width:0.8;" x="173.53579" xlink:href="#m3ace4899f1" y="384.48"/>
      </g>
     </g>
     <g id="text_2">
      <!-- 200 -->
      <g transform="translate(163.99204 399.078438)scale(0.1 -0.1)">
       <defs>
        <path d="M 19.1875 8.296875 
L 53.609375 8.296875 
L 53.609375 0 
L 7.328125 0 
L 7.328125 8.296875 
Q 12.9375 14.109375 22.625 23.890625 
Q 32.328125 33.6875 34.8125 36.53125 
Q 39.546875 41.84375 41.421875 45.53125 
Q 43.3125 49.21875 43.3125 52.78125 
Q 43.3125 58.59375 39.234375 62.25 
Q 35.15625 65.921875 28.609375 65.921875 
Q 23.96875 65.921875 18.8125 64.3125 
Q 13.671875 62.703125 7.8125 59.421875 
L 7.8125 69.390625 
Q 13.765625 71.78125 18.9375 73 
Q 24.125 74.21875 28.421875 74.21875 
Q 39.75 74.21875 46.484375 68.546875 
Q 53.21875 62.890625 53.21875 53.421875 
Q 53.21875 48.921875 51.53125 44.890625 
Q 49.859375 40.875 45.40625 35.40625 
Q 44.1875 33.984375 37.640625 27.21875 
Q 31.109375 20.453125 19.1875 8.296875 
z
" id="DejaVuSans-50"/>
       </defs>
       <use xlink:href="#DejaVuSans-50"/>
       <use x="63.623047" xlink:href="#DejaVuSans-48"/>
       <use x="127.246094" xlink:href="#DejaVuSans-48"/>
      </g>
     </g>
    </g>
    <g id="xtick_3">
     <g id="line2d_3">
      <g>
       <use style="stroke:#000000;stroke-width:0.8;" x="254.780672" xlink:href="#m3ace4899f1" y="384.48"/>
      </g>
     </g>
     <g id="text_3">
      <!-- 400 -->
      <g transform="translate(245.236922 399.078438)scale(0.1 -0.1)">
       <defs>
        <path d="M 37.796875 64.3125 
L 12.890625 25.390625 
L 37.796875 25.390625 
z
M 35.203125 72.90625 
L 47.609375 72.90625 
L 47.609375 25.390625 
L 58.015625 25.390625 
L 58.015625 17.1875 
L 47.609375 17.1875 
L 47.609375 0 
L 37.796875 0 
L 37.796875 17.1875 
L 4.890625 17.1875 
L 4.890625 26.703125 
z
" id="DejaVuSans-52"/>
       </defs>
       <use xlink:href="#DejaVuSans-52"/>
       <use x="63.623047" xlink:href="#DejaVuSans-48"/>
       <use x="127.246094" xlink:href="#DejaVuSans-48"/>
      </g>
     </g>
    </g>
    <g id="xtick_4">
     <g id="line2d_4">
      <g>
       <use style="stroke:#000000;stroke-width:0.8;" x="336.025553" xlink:href="#m3ace4899f1" y="384.48"/>
      </g>
     </g>
     <g id="text_4">
      <!-- 600 -->
      <g transform="translate(326.481803 399.078438)scale(0.1 -0.1)">
       <defs>
        <path d="M 33.015625 40.375 
Q 26.375 40.375 22.484375 35.828125 
Q 18.609375 31.296875 18.609375 23.390625 
Q 18.609375 15.53125 22.484375 10.953125 
Q 26.375 6.390625 33.015625 6.390625 
Q 39.65625 6.390625 43.53125 10.953125 
Q 47.40625 15.53125 47.40625 23.390625 
Q 47.40625 31.296875 43.53125 35.828125 
Q 39.65625 40.375 33.015625 40.375 
z
M 52.59375 71.296875 
L 52.59375 62.3125 
Q 48.875 64.0625 45.09375 64.984375 
Q 41.3125 65.921875 37.59375 65.921875 
Q 27.828125 65.921875 22.671875 59.328125 
Q 17.53125 52.734375 16.796875 39.40625 
Q 19.671875 43.65625 24.015625 45.921875 
Q 28.375 48.1875 33.59375 48.1875 
Q 44.578125 48.1875 50.953125 41.515625 
Q 57.328125 34.859375 57.328125 23.390625 
Q 57.328125 12.15625 50.6875 5.359375 
Q 44.046875 -1.421875 33.015625 -1.421875 
Q 20.359375 -1.421875 13.671875 8.265625 
Q 6.984375 17.96875 6.984375 36.375 
Q 6.984375 53.65625 15.1875 63.9375 
Q 23.390625 74.21875 37.203125 74.21875 
Q 40.921875 74.21875 44.703125 73.484375 
Q 48.484375 72.75 52.59375 71.296875 
z
" id="DejaVuSans-54"/>
       </defs>
       <use xlink:href="#DejaVuSans-54"/>
       <use x="63.623047" xlink:href="#DejaVuSans-48"/>
       <use x="127.246094" xlink:href="#DejaVuSans-48"/>
      </g>
     </g>
    </g>
    <g id="xtick_5">
     <g id="line2d_5">
      <g>
       <use style="stroke:#000000;stroke-width:0.8;" x="417.270434" xlink:href="#m3ace4899f1" y="384.48"/>
      </g>
     </g>
     <g id="text_5">
      <!-- 800 -->
      <g transform="translate(407.726684 399.078438)scale(0.1 -0.1)">
       <defs>
        <path d="M 31.78125 34.625 
Q 24.75 34.625 20.71875 30.859375 
Q 16.703125 27.09375 16.703125 20.515625 
Q 16.703125 13.921875 20.71875 10.15625 
Q 24.75 6.390625 31.78125 6.390625 
Q 38.8125 6.390625 42.859375 10.171875 
Q 46.921875 13.96875 46.921875 20.515625 
Q 46.921875 27.09375 42.890625 30.859375 
Q 38.875 34.625 31.78125 34.625 
z
M 21.921875 38.8125 
Q 15.578125 40.375 12.03125 44.71875 
Q 8.5 49.078125 8.5 55.328125 
Q 8.5 64.0625 14.71875 69.140625 
Q 20.953125 74.21875 31.78125 74.21875 
Q 42.671875 74.21875 48.875 69.140625 
Q 55.078125 64.0625 55.078125 55.328125 
Q 55.078125 49.078125 51.53125 44.71875 
Q 48 40.375 41.703125 38.8125 
Q 48.828125 37.15625 52.796875 32.3125 
Q 56.78125 27.484375 56.78125 20.515625 
Q 56.78125 9.90625 50.3125 4.234375 
Q 43.84375 -1.421875 31.78125 -1.421875 
Q 19.734375 -1.421875 13.25 4.234375 
Q 6.78125 9.90625 6.78125 20.515625 
Q 6.78125 27.484375 10.78125 32.3125 
Q 14.796875 37.15625 21.921875 38.8125 
z
M 18.3125 54.390625 
Q 18.3125 48.734375 21.84375 45.5625 
Q 25.390625 42.390625 31.78125 42.390625 
Q 38.140625 42.390625 41.71875 45.5625 
Q 45.3125 48.734375 45.3125 54.390625 
Q 45.3125 60.0625 41.71875 63.234375 
Q 38.140625 66.40625 31.78125 66.40625 
Q 25.390625 66.40625 21.84375 63.234375 
Q 18.3125 60.0625 18.3125 54.390625 
z
" id="DejaVuSans-56"/>
       </defs>
       <use xlink:href="#DejaVuSans-56"/>
       <use x="63.623047" xlink:href="#DejaVuSans-48"/>
       <use x="127.246094" xlink:href="#DejaVuSans-48"/>
      </g>
     </g>
    </g>
    <g id="xtick_6">
     <g id="line2d_6">
      <g>
       <use style="stroke:#000000;stroke-width:0.8;" x="498.515315" xlink:href="#m3ace4899f1" y="384.48"/>
      </g>
     </g>
     <g id="text_6">
      <!-- 1000 -->
      <g transform="translate(485.790315 399.078438)scale(0.1 -0.1)">
       <defs>
        <path d="M 12.40625 8.296875 
L 28.515625 8.296875 
L 28.515625 63.921875 
L 10.984375 60.40625 
L 10.984375 69.390625 
L 28.421875 72.90625 
L 38.28125 72.90625 
L 38.28125 8.296875 
L 54.390625 8.296875 
L 54.390625 0 
L 12.40625 0 
z
" id="DejaVuSans-49"/>
       </defs>
       <use xlink:href="#DejaVuSans-49"/>
       <use x="63.623047" xlink:href="#DejaVuSans-48"/>
       <use x="127.246094" xlink:href="#DejaVuSans-48"/>
       <use x="190.869141" xlink:href="#DejaVuSans-48"/>
      </g>
     </g>
    </g>
    <g id="text_7">
     <!-- epoch -->
     <g transform="translate(279.971875 412.756563)scale(0.1 -0.1)">
      <defs>
       <path d="M 56.203125 29.59375 
L 56.203125 25.203125 
L 14.890625 25.203125 
Q 15.484375 15.921875 20.484375 11.0625 
Q 25.484375 6.203125 34.421875 6.203125 
Q 39.59375 6.203125 44.453125 7.46875 
Q 49.3125 8.734375 54.109375 11.28125 
L 54.109375 2.78125 
Q 49.265625 0.734375 44.1875 -0.34375 
Q 39.109375 -1.421875 33.890625 -1.421875 
Q 20.796875 -1.421875 13.15625 6.1875 
Q 5.515625 13.8125 5.515625 26.8125 
Q 5.515625 40.234375 12.765625 48.109375 
Q 20.015625 56 32.328125 56 
Q 43.359375 56 49.78125 48.890625 
Q 56.203125 41.796875 56.203125 29.59375 
z
M 47.21875 32.234375 
Q 47.125 39.59375 43.09375 43.984375 
Q 39.0625 48.390625 32.421875 48.390625 
Q 24.90625 48.390625 20.390625 44.140625 
Q 15.875 39.890625 15.1875 32.171875 
z
" id="DejaVuSans-101"/>
       <path d="M 18.109375 8.203125 
L 18.109375 -20.796875 
L 9.078125 -20.796875 
L 9.078125 54.6875 
L 18.109375 54.6875 
L 18.109375 46.390625 
Q 20.953125 51.265625 25.265625 53.625 
Q 29.59375 56 35.59375 56 
Q 45.5625 56 51.78125 48.09375 
Q 58.015625 40.1875 58.015625 27.296875 
Q 58.015625 14.40625 51.78125 6.484375 
Q 45.5625 -1.421875 35.59375 -1.421875 
Q 29.59375 -1.421875 25.265625 0.953125 
Q 20.953125 3.328125 18.109375 8.203125 
z
M 48.6875 27.296875 
Q 48.6875 37.203125 44.609375 42.84375 
Q 40.53125 48.484375 33.40625 48.484375 
Q 26.265625 48.484375 22.1875 42.84375 
Q 18.109375 37.203125 18.109375 27.296875 
Q 18.109375 17.390625 22.1875 11.75 
Q 26.265625 6.109375 33.40625 6.109375 
Q 40.53125 6.109375 44.609375 11.75 
Q 48.6875 17.390625 48.6875 27.296875 
z
" id="DejaVuSans-112"/>
       <path d="M 30.609375 48.390625 
Q 23.390625 48.390625 19.1875 42.75 
Q 14.984375 37.109375 14.984375 27.296875 
Q 14.984375 17.484375 19.15625 11.84375 
Q 23.34375 6.203125 30.609375 6.203125 
Q 37.796875 6.203125 41.984375 11.859375 
Q 46.1875 17.53125 46.1875 27.296875 
Q 46.1875 37.015625 41.984375 42.703125 
Q 37.796875 48.390625 30.609375 48.390625 
z
M 30.609375 56 
Q 42.328125 56 49.015625 48.375 
Q 55.71875 40.765625 55.71875 27.296875 
Q 55.71875 13.875 49.015625 6.21875 
Q 42.328125 -1.421875 30.609375 -1.421875 
Q 18.84375 -1.421875 12.171875 6.21875 
Q 5.515625 13.875 5.515625 27.296875 
Q 5.515625 40.765625 12.171875 48.375 
Q 18.84375 56 30.609375 56 
z
" id="DejaVuSans-111"/>
       <path d="M 48.78125 52.59375 
L 48.78125 44.1875 
Q 44.96875 46.296875 41.140625 47.34375 
Q 37.3125 48.390625 33.40625 48.390625 
Q 24.65625 48.390625 19.8125 42.84375 
Q 14.984375 37.3125 14.984375 27.296875 
Q 14.984375 17.28125 19.8125 11.734375 
Q 24.65625 6.203125 33.40625 6.203125 
Q 37.3125 6.203125 41.140625 7.25 
Q 44.96875 8.296875 48.78125 10.40625 
L 48.78125 2.09375 
Q 45.015625 0.34375 40.984375 -0.53125 
Q 36.96875 -1.421875 32.421875 -1.421875 
Q 20.0625 -1.421875 12.78125 6.34375 
Q 5.515625 14.109375 5.515625 27.296875 
Q 5.515625 40.671875 12.859375 48.328125 
Q 20.21875 56 33.015625 56 
Q 37.15625 56 41.109375 55.140625 
Q 45.0625 54.296875 48.78125 52.59375 
z
" id="DejaVuSans-99"/>
       <path d="M 54.890625 33.015625 
L 54.890625 0 
L 45.90625 0 
L 45.90625 32.71875 
Q 45.90625 40.484375 42.875 44.328125 
Q 39.84375 48.1875 33.796875 48.1875 
Q 26.515625 48.1875 22.3125 43.546875 
Q 18.109375 38.921875 18.109375 30.90625 
L 18.109375 0 
L 9.078125 0 
L 9.078125 75.984375 
L 18.109375 75.984375 
L 18.109375 46.1875 
Q 21.34375 51.125 25.703125 53.5625 
Q 30.078125 56 35.796875 56 
Q 45.21875 56 50.046875 50.171875 
Q 54.890625 44.34375 54.890625 33.015625 
z
" id="DejaVuSans-104"/>
      </defs>
      <use xlink:href="#DejaVuSans-101"/>
      <use x="61.523438" xlink:href="#DejaVuSans-112"/>
      <use x="125" xlink:href="#DejaVuSans-111"/>
      <use x="186.181641" xlink:href="#DejaVuSans-99"/>
      <use x="241.162109" xlink:href="#DejaVuSans-104"/>
     </g>
    </g>
   </g>
   <g id="matplotlib.axis_2">
    <g id="ytick_1">
     <g id="line2d_7">
      <defs>
       <path d="M 0 0 
L -3.5 0 
" id="m22fc125ae0" style="stroke:#000000;stroke-width:0.8;"/>
      </defs>
      <g>
       <use style="stroke:#000000;stroke-width:0.8;" x="72" xlink:href="#m22fc125ae0" y="384.48"/>
      </g>
     </g>
     <g id="text_8">
      <!-- 0.0 -->
      <g transform="translate(49.096875 388.279219)scale(0.1 -0.1)">
       <defs>
        <path d="M 10.6875 12.40625 
L 21 12.40625 
L 21 0 
L 10.6875 0 
z
" id="DejaVuSans-46"/>
       </defs>
       <use xlink:href="#DejaVuSans-48"/>
       <use x="63.623047" xlink:href="#DejaVuSans-46"/>
       <use x="95.410156" xlink:href="#DejaVuSans-48"/>
      </g>
     </g>
    </g>
    <g id="ytick_2">
     <g id="line2d_8">
      <g>
       <use style="stroke:#000000;stroke-width:0.8;" x="72" xlink:href="#m22fc125ae0" y="317.952"/>
      </g>
     </g>
     <g id="text_9">
      <!-- 0.2 -->
      <g transform="translate(49.096875 321.751219)scale(0.1 -0.1)">
       <use xlink:href="#DejaVuSans-48"/>
       <use x="63.623047" xlink:href="#DejaVuSans-46"/>
       <use x="95.410156" xlink:href="#DejaVuSans-50"/>
      </g>
     </g>
    </g>
    <g id="ytick_3">
     <g id="line2d_9">
      <g>
       <use style="stroke:#000000;stroke-width:0.8;" x="72" xlink:href="#m22fc125ae0" y="251.424"/>
      </g>
     </g>
     <g id="text_10">
      <!-- 0.4 -->
      <g transform="translate(49.096875 255.223219)scale(0.1 -0.1)">
       <use xlink:href="#DejaVuSans-48"/>
       <use x="63.623047" xlink:href="#DejaVuSans-46"/>
       <use x="95.410156" xlink:href="#DejaVuSans-52"/>
      </g>
     </g>
    </g>
    <g id="ytick_4">
     <g id="line2d_10">
      <g>
       <use style="stroke:#000000;stroke-width:0.8;" x="72" xlink:href="#m22fc125ae0" y="184.896"/>
      </g>
     </g>
     <g id="text_11">
      <!-- 0.6 -->
      <g transform="translate(49.096875 188.695219)scale(0.1 -0.1)">
       <use xlink:href="#DejaVuSans-48"/>
       <use x="63.623047" xlink:href="#DejaVuSans-46"/>
       <use x="95.410156" xlink:href="#DejaVuSans-54"/>
      </g>
     </g>
    </g>
    <g id="ytick_5">
     <g id="line2d_11">
      <g>
       <use style="stroke:#000000;stroke-width:0.8;" x="72" xlink:href="#m22fc125ae0" y="118.368"/>
      </g>
     </g>
     <g id="text_12">
      <!-- 0.8 -->
      <g transform="translate(49.096875 122.167219)scale(0.1 -0.1)">
       <use xlink:href="#DejaVuSans-48"/>
       <use x="63.623047" xlink:href="#DejaVuSans-46"/>
       <use x="95.410156" xlink:href="#DejaVuSans-56"/>
      </g>
     </g>
    </g>
    <g id="ytick_6">
     <g id="line2d_12">
      <g>
       <use style="stroke:#000000;stroke-width:0.8;" x="72" xlink:href="#m22fc125ae0" y="51.84"/>
      </g>
     </g>
     <g id="text_13">
      <!-- 1.0 -->
      <g transform="translate(49.096875 55.639219)scale(0.1 -0.1)">
       <use xlink:href="#DejaVuSans-49"/>
       <use x="63.623047" xlink:href="#DejaVuSans-46"/>
       <use x="95.410156" xlink:href="#DejaVuSans-48"/>
      </g>
     </g>
    </g>
    <g id="text_14">
     <!-- rate -->
     <g transform="translate(43.017187 228.31625)rotate(-90)scale(0.1 -0.1)">
      <defs>
       <path d="M 41.109375 46.296875 
Q 39.59375 47.171875 37.8125 47.578125 
Q 36.03125 48 33.890625 48 
Q 26.265625 48 22.1875 43.046875 
Q 18.109375 38.09375 18.109375 28.8125 
L 18.109375 0 
L 9.078125 0 
L 9.078125 54.6875 
L 18.109375 54.6875 
L 18.109375 46.1875 
Q 20.953125 51.171875 25.484375 53.578125 
Q 30.03125 56 36.53125 56 
Q 37.453125 56 38.578125 55.875 
Q 39.703125 55.765625 41.0625 55.515625 
z
" id="DejaVuSans-114"/>
       <path d="M 34.28125 27.484375 
Q 23.390625 27.484375 19.1875 25 
Q 14.984375 22.515625 14.984375 16.5 
Q 14.984375 11.71875 18.140625 8.90625 
Q 21.296875 6.109375 26.703125 6.109375 
Q 34.1875 6.109375 38.703125 11.40625 
Q 43.21875 16.703125 43.21875 25.484375 
L 43.21875 27.484375 
z
M 52.203125 31.203125 
L 52.203125 0 
L 43.21875 0 
L 43.21875 8.296875 
Q 40.140625 3.328125 35.546875 0.953125 
Q 30.953125 -1.421875 24.3125 -1.421875 
Q 15.921875 -1.421875 10.953125 3.296875 
Q 6 8.015625 6 15.921875 
Q 6 25.140625 12.171875 29.828125 
Q 18.359375 34.515625 30.609375 34.515625 
L 43.21875 34.515625 
L 43.21875 35.40625 
Q 43.21875 41.609375 39.140625 45 
Q 35.0625 48.390625 27.6875 48.390625 
Q 23 48.390625 18.546875 47.265625 
Q 14.109375 46.140625 10.015625 43.890625 
L 10.015625 52.203125 
Q 14.9375 54.109375 19.578125 55.046875 
Q 24.21875 56 28.609375 56 
Q 40.484375 56 46.34375 49.84375 
Q 52.203125 43.703125 52.203125 31.203125 
z
" id="DejaVuSans-97"/>
       <path d="M 18.3125 70.21875 
L 18.3125 54.6875 
L 36.8125 54.6875 
L 36.8125 47.703125 
L 18.3125 47.703125 
L 18.3125 18.015625 
Q 18.3125 11.328125 20.140625 9.421875 
Q 21.96875 7.515625 27.59375 7.515625 
L 36.8125 7.515625 
L 36.8125 0 
L 27.59375 0 
Q 17.1875 0 13.234375 3.875 
Q 9.28125 7.765625 9.28125 18.015625 
L 9.28125 47.703125 
L 2.6875 47.703125 
L 2.6875 54.6875 
L 9.28125 54.6875 
L 9.28125 70.21875 
z
" id="DejaVuSans-116"/>
      </defs>
      <use xlink:href="#DejaVuSans-114"/>
      <use x="41.113281" xlink:href="#DejaVuSans-97"/>
      <use x="102.392578" xlink:href="#DejaVuSans-116"/>
      <use x="141.601562" xlink:href="#DejaVuSans-101"/>
     </g>
    </g>
   </g>
   <g id="line2d_13">
    <path clip-path="url(#pf137970ca4)" d="M 92.290909 247.18274 
L 92.697133 147.229741 
L 93.103358 150.819197 
L 93.509582 152.579306 
L 93.915807 302.606174 
L 94.322031 153.019377 
L 94.728256 160.188817 
L 95.13448 289.59819 
L 95.540704 158.758859 
L 95.946929 324.642344 
L 96.353153 356.189506 
L 96.759378 357.086868 
L 97.165602 358.309781 
L 97.571826 356.984839 
L 97.978051 356.492849 
L 98.384275 357.751968 
L 98.7905 359.631328 
L 99.196724 358.59856 
L 99.602948 356.641797 
L 100.009173 357.885533 
L 100.415397 324.208711 
L 100.821622 335.683518 
L 101.227846 326.924033 
L 101.63407 291.949431 
L 102.446519 359.724869 
L 102.852744 347.396145 
L 103.258968 313.376766 
L 103.665192 341.236857 
L 104.071417 334.569257 
L 104.477641 276.172735 
L 104.883866 323.003634 
L 105.29009 328.458458 
L 105.696314 261.474479 
L 106.102539 323.885529 
L 106.508763 310.70813 
L 106.914988 226.451915 
L 107.321212 285.163917 
L 107.727437 255.92131 
L 108.133661 298.076087 
L 108.539885 169.030038 
L 108.94611 355.648661 
L 109.352334 353.084646 
L 109.758559 351.409839 
L 110.164783 352.078871 
L 110.571007 358.215263 
L 110.977232 349.696478 
L 111.383456 354.465856 
L 111.789681 362.008108 
L 112.195905 353.40885 
L 112.602129 328.525088 
L 113.008354 357.854213 
L 113.414578 315.021692 
L 113.820803 320.560494 
L 114.227027 358.186403 
L 114.633251 331.760612 
L 115.039476 335.736274 
L 115.4457 280.022969 
L 115.851925 336.770682 
L 116.258149 344.838393 
L 116.664373 345.046145 
L 117.476822 348.608461 
L 117.883047 329.323138 
L 118.289271 332.992747 
L 118.695495 322.244308 
L 119.10172 353.372697 
L 119.507944 359.361385 
L 119.914169 354.281387 
L 120.320393 350.819 
L 120.726618 343.43348 
L 121.132842 353.920873 
L 121.539066 353.012975 
L 121.945291 304.874792 
L 122.351515 271.469145 
L 122.75774 266.840918 
L 123.163964 268.221102 
L 123.570188 283.596698 
L 123.976413 323.339217 
L 124.382637 188.896564 
L 124.788862 369.187756 
L 125.195086 286.880111 
L 125.60131 328.094047 
L 126.007535 357.532005 
L 126.413759 355.593983 
L 126.819984 356.945618 
L 127.226208 327.312423 
L 127.632432 344.825218 
L 128.444881 310.478017 
L 128.851106 273.211923 
L 129.25733 341.904431 
L 129.663554 361.260583 
L 130.069779 356.372683 
L 130.476003 357.879052 
L 130.882228 297.746078 
L 131.288452 267.407708 
L 131.694676 296.081347 
L 132.100901 348.206957 
L 132.507125 349.628346 
L 132.91335 337.29633 
L 133.319574 342.114575 
L 133.725799 350.831561 
L 134.132023 320.260249 
L 134.538247 341.509577 
L 134.944472 356.515845 
L 135.350696 331.907987 
L 135.756921 327.278083 
L 136.163145 358.174991 
L 136.569369 335.890173 
L 136.975594 336.914117 
L 137.381818 352.116965 
L 138.194267 356.487362 
L 138.600491 356.250437 
L 139.006716 356.86891 
L 139.41294 352.439763 
L 139.819165 325.210911 
L 140.225389 314.741759 
L 140.631613 274.544669 
L 141.037838 356.150108 
L 141.444062 322.748373 
L 141.850287 343.918242 
L 142.256511 299.960519 
L 142.662735 337.079488 
L 143.06896 309.426766 
L 143.475184 319.872683 
L 143.881409 347.809002 
L 144.287633 349.869562 
L 145.100082 340.77925 
L 145.506306 356.618396 
L 145.912531 355.07163 
L 146.318755 360.766496 
L 146.72498 357.543568 
L 147.131204 333.46921 
L 147.537428 338.0497 
L 147.943653 282.164828 
L 148.349877 334.871911 
L 149.162326 358.373781 
L 149.56855 353.488802 
L 149.974775 358.727162 
L 150.380999 309.375506 
L 150.787224 290.746076 
L 151.193448 297.979841 
L 151.599672 285.725553 
L 152.005897 302.411416 
L 152.412121 297.063084 
L 152.818346 327.967815 
L 153.22457 319.895813 
L 153.630794 352.471918 
L 154.037019 309.70439 
L 154.443243 367.25794 
L 155.255692 353.613942 
L 155.661916 300.577013 
L 156.068141 227.063067 
L 156.474365 264.107365 
L 156.88059 264.107365 
L 157.286814 325.538635 
L 157.693038 364.653633 
L 158.099263 342.468716 
L 158.505487 360.346752 
L 158.911712 344.748703 
L 159.317936 359.625598 
L 159.724161 358.058546 
L 160.130385 296.885282 
L 160.536609 315.579897 
L 160.942834 238.491944 
L 161.349058 339.5998 
L 161.755283 329.775917 
L 162.161507 308.426345 
L 162.567731 318.869728 
L 162.973956 306.152007 
L 163.38018 272.884187 
L 163.786405 327.421521 
L 164.192629 352.185331 
L 164.598853 358.836928 
L 165.411302 284.006803 
L 166.223751 359.12619 
L 166.629975 351.639643 
L 167.0362 372.722184 
L 167.442424 269.273591 
L 167.848649 273.803357 
L 168.254873 289.803144 
L 168.661097 351.871661 
L 169.067322 321.304211 
L 169.473546 361.778449 
L 169.879771 357.512033 
L 170.285995 355.723381 
L 170.692219 350.928983 
L 171.098444 294.238347 
L 171.504668 357.405876 
L 171.910893 325.265651 
L 172.317117 326.208391 
L 173.129566 279.484771 
L 173.53579 293.067781 
L 173.942015 302.830189 
L 174.348239 306.181743 
L 174.754464 258.731185 
L 175.566912 311.244859 
L 175.973137 334.489704 
L 176.379361 294.203723 
L 176.785586 267.439174 
L 177.19181 263.237636 
L 177.598034 345.376703 
L 178.004259 336.663945 
L 178.410483 324.77743 
L 178.816708 305.805698 
L 179.222932 305.805698 
L 179.629156 280.783495 
L 180.035381 267.451381 
L 180.441605 293.043527 
L 180.84783 297.150193 
L 181.254054 321.79026 
L 181.660278 360.764562 
L 182.066503 361.237579 
L 182.472727 362.373003 
L 182.878952 362.17245 
L 183.285176 346.532825 
L 183.6914 309.840185 
L 184.097625 310.80953 
L 184.503849 329.851937 
L 184.910074 332.401187 
L 185.316298 316.050114 
L 185.722523 354.277154 
L 186.128747 357.704865 
L 186.534971 359.056598 
L 186.941196 307.281866 
L 187.34742 317.171838 
L 187.753645 290.663401 
L 188.159869 347.145212 
L 188.566093 311.424063 
L 188.972318 306.933877 
L 189.784767 336.69356 
L 190.190991 314.766436 
L 191.00344 342.011564 
L 191.409664 324.641914 
L 191.815889 352.490666 
L 192.222113 353.559528 
L 192.628337 348.939435 
L 193.440786 358.494347 
L 193.847011 339.731587 
L 194.253235 347.347595 
L 194.659459 316.359282 
L 195.471908 360.334773 
L 195.878133 324.785061 
L 196.284357 341.057881 
L 197.096806 333.154044 
L 197.50303 225.288521 
L 197.909255 331.451071 
L 198.315479 315.144803 
L 198.721704 346.160602 
L 199.127928 287.743045 
L 199.534152 351.397011 
L 199.940377 346.179901 
L 200.346601 345.920573 
L 200.752826 346.537328 
L 201.15905 326.606481 
L 201.565274 293.53006 
L 201.971499 330.727512 
L 202.377723 334.668667 
L 202.783948 317.265545 
L 203.190172 343.981433 
L 203.596396 357.393244 
L 204.002621 357.887965 
L 204.408845 356.743143 
L 204.81507 356.301495 
L 205.221294 356.7763 
L 205.627518 356.620666 
L 206.033743 358.646856 
L 206.439967 355.888657 
L 206.846192 354.084346 
L 207.252416 360.121856 
L 207.65864 354.683949 
L 208.064865 361.012514 
L 208.471089 319.959447 
L 208.877314 331.510354 
L 209.283538 334.817198 
L 209.689762 315.43868 
L 210.095987 322.219788 
L 210.502211 326.409494 
L 210.908436 324.606217 
L 211.31466 327.627383 
L 211.720885 295.805227 
L 212.127109 342.677494 
L 212.533333 354.503268 
L 212.939558 343.450848 
L 213.345782 292.694796 
L 213.752007 268.914202 
L 214.158231 351.104714 
L 214.564455 357.085585 
L 214.97068 357.34794 
L 215.376904 354.556679 
L 215.783129 357.709034 
L 216.189353 354.455638 
L 216.595577 354.881936 
L 217.001802 358.632442 
L 217.408026 359.882764 
L 217.814251 309.8802 
L 218.220475 310.543742 
L 218.626699 345.728275 
L 219.032924 361.198094 
L 219.439148 326.296918 
L 219.845373 359.372632 
L 220.251597 343.828874 
L 220.657821 360.143249 
L 221.064046 344.990775 
L 221.47027 365.446656 
L 221.876495 362.904815 
L 222.282719 364.112777 
L 222.688943 364.770358 
L 223.095168 364.181041 
L 223.501392 276.796215 
L 223.907617 267.762204 
L 224.313841 295.816273 
L 224.720066 277.55618 
L 225.12629 337.09985 
L 225.532514 366.950012 
L 225.938739 362.375201 
L 226.344963 347.514602 
L 226.751188 357.491906 
L 227.157412 328.041419 
L 227.563636 321.965473 
L 227.969861 356.990825 
L 228.376085 353.234058 
L 228.78231 356.933384 
L 229.188534 358.812952 
L 229.594758 358.184404 
L 230.000983 353.696297 
L 230.407207 351.6734 
L 230.813432 357.151068 
L 231.219656 355.727597 
L 231.62588 352.458709 
L 232.032105 351.692882 
L 232.438329 315.360519 
L 232.844554 297.788734 
L 233.250778 357.367875 
L 233.657002 353.772626 
L 234.063227 354.489375 
L 234.469451 344.473846 
L 234.875676 330.278574 
L 235.2819 341.386941 
L 235.688124 347.02089 
L 236.094349 356.633656 
L 236.500573 329.780457 
L 236.906798 323.376571 
L 237.313022 282.622143 
L 237.719247 322.862554 
L 238.125471 291.419588 
L 238.531695 335.817715 
L 238.93792 336.748258 
L 239.344144 330.918522 
L 239.750369 322.86959 
L 240.156593 288.138093 
L 240.562817 293.200656 
L 240.969042 293.385038 
L 241.375266 266.723572 
L 241.781491 270.575094 
L 242.187715 273.057786 
L 242.593939 356.270242 
L 243.000164 335.801294 
L 243.406388 276.138869 
L 243.812613 300.260854 
L 244.218837 312.751992 
L 244.625061 319.859868 
L 245.031286 340.747634 
L 245.43751 350.668913 
L 245.843735 343.06765 
L 246.249959 252.909049 
L 246.656183 330.512559 
L 247.062408 320.532651 
L 247.468632 319.68566 
L 248.281081 335.802258 
L 248.687305 301.31826 
L 249.09353 325.467292 
L 249.499754 269.459808 
L 249.905979 293.536476 
L 250.312203 329.853264 
L 250.718428 347.884906 
L 251.124652 350.522879 
L 251.530876 345.287725 
L 251.937101 353.461247 
L 252.343325 355.066263 
L 252.74955 356.126249 
L 253.155774 356.454169 
L 253.561998 360.778639 
L 253.968223 321.311425 
L 254.374447 314.37702 
L 254.780672 351.72161 
L 255.186896 369.381087 
L 255.59312 346.995994 
L 255.999345 354.641021 
L 256.405569 346.859366 
L 256.811794 313.777958 
L 257.218018 318.387813 
L 257.624242 321.576166 
L 258.030467 272.819515 
L 258.436691 262.477396 
L 258.842916 358.741467 
L 259.24914 351.511149 
L 259.655364 326.95859 
L 260.061589 354.23945 
L 260.874038 247.419251 
L 261.280262 360.637918 
L 261.686486 318.44211 
L 262.092711 289.215051 
L 262.498935 322.271175 
L 262.90516 320.19316 
L 263.311384 357.675426 
L 263.717609 325.075171 
L 264.123833 314.669436 
L 264.530057 254.484853 
L 264.936282 308.050252 
L 265.342506 275.983386 
L 265.748731 264.179567 
L 266.154955 265.238594 
L 266.561179 226.102919 
L 266.967404 258.669034 
L 267.373628 319.173517 
L 267.779853 352.657092 
L 268.186077 302.329397 
L 268.592301 330.167403 
L 269.40475 341.328508 
L 269.810975 353.90707 
L 270.217199 352.08796 
L 270.623423 331.634058 
L 271.029648 338.161485 
L 271.435872 342.171173 
L 271.842097 352.209564 
L 272.248321 358.775865 
L 272.654545 361.076058 
L 273.06077 362.677131 
L 273.466994 287.481464 
L 273.873219 345.449717 
L 274.279443 328.214222 
L 274.685667 295.772656 
L 275.091892 349.876233 
L 275.498116 342.322826 
L 275.904341 355.211771 
L 276.310565 341.056487 
L 276.71679 354.712546 
L 277.529238 327.040418 
L 277.935463 337.91417 
L 278.341687 329.643206 
L 278.747912 345.717149 
L 279.154136 342.982776 
L 279.56036 246.937128 
L 279.966585 264.633484 
L 280.372809 273.268102 
L 280.779034 287.85374 
L 281.185258 276.191476 
L 281.591482 273.132232 
L 281.997707 284.263728 
L 282.403931 310.272033 
L 282.810156 305.966 
L 283.21638 328.423291 
L 283.622604 339.380397 
L 284.028829 342.627651 
L 284.435053 336.986901 
L 284.841278 355.903831 
L 285.247502 310.405363 
L 285.653726 338.607989 
L 286.059951 338.866928 
L 286.466175 324.25295 
L 286.8724 321.214995 
L 287.278624 349.844324 
L 287.684848 263.788227 
L 288.091073 263.893033 
L 288.497297 286.151689 
L 288.903522 296.803688 
L 289.309746 352.981705 
L 289.715971 330.910481 
L 290.122195 318.153859 
L 290.528419 345.909719 
L 290.934644 323.164361 
L 291.340868 325.30294 
L 291.747093 334.165556 
L 292.153317 350.723343 
L 292.559541 346.415739 
L 292.965766 328.699941 
L 293.37199 322.539628 
L 293.778215 329.467823 
L 294.184439 297.85826 
L 294.590663 314.696232 
L 294.996888 348.483794 
L 295.403112 355.562061 
L 295.809337 339.905094 
L 296.215561 337.423911 
L 296.621785 364.902545 
L 297.02801 351.342143 
L 297.434234 369.299783 
L 297.840459 329.59133 
L 298.652907 234.132481 
L 299.465356 339.139419 
L 299.871581 314.927875 
L 300.277805 338.310387 
L 300.684029 341.908252 
L 301.090254 344.225364 
L 301.496478 336.241249 
L 301.902703 351.50998 
L 302.308927 336.683618 
L 302.715152 331.866107 
L 303.121376 279.755989 
L 303.5276 319.360508 
L 303.933825 288.331461 
L 304.340049 323.593918 
L 304.746274 348.362321 
L 305.152498 352.774309 
L 305.558722 347.111791 
L 305.964947 353.868294 
L 306.371171 238.579952 
L 306.777396 259.036309 
L 307.18362 257.684333 
L 307.589844 349.558424 
L 307.996069 346.473354 
L 308.402293 359.996669 
L 308.808518 337.915121 
L 309.214742 349.138286 
L 309.620966 351.755975 
L 310.027191 349.177351 
L 310.433415 350.823197 
L 310.83964 327.361151 
L 311.245864 311.336442 
L 311.652088 350.67495 
L 312.058313 340.235938 
L 312.464537 318.763856 
L 312.870762 290.0212 
L 313.68321 345.849322 
L 314.089435 351.431456 
L 314.495659 355.480405 
L 314.901884 353.991605 
L 315.308108 353.635304 
L 316.120557 359.468889 
L 316.526781 357.753359 
L 316.933006 345.703492 
L 317.33923 355.691066 
L 317.745455 338.940001 
L 318.151679 348.493768 
L 318.557903 333.715004 
L 318.964128 299.499067 
L 319.370352 332.943186 
L 319.776577 339.946334 
L 320.182801 344.075284 
L 320.589025 332.829552 
L 320.99525 315.066223 
L 321.401474 356.769962 
L 321.807699 354.78075 
L 322.213923 293.328144 
L 322.620147 262.703309 
L 323.026372 264.57851 
L 323.432596 264.067855 
L 323.838821 368.443562 
L 324.245045 365.458106 
L 324.651269 353.416911 
L 325.057494 357.876081 
L 325.463718 353.027407 
L 325.869943 354.797896 
L 326.276167 358.743815 
L 326.682391 326.524879 
L 327.088616 318.377931 
L 327.49484 282.920728 
L 327.901065 302.158144 
L 328.307289 355.665745 
L 328.713514 356.332327 
L 329.119738 357.526993 
L 329.525962 279.34987 
L 329.932187 258.508616 
L 330.338411 184.141434 
L 330.744636 327.469781 
L 331.15086 216.216094 
L 331.557084 319.640672 
L 331.963309 333.671795 
L 332.369533 327.119218 
L 332.775758 340.770239 
L 333.181982 340.02374 
L 333.588206 332.67253 
L 333.994431 336.137038 
L 334.400655 246.254211 
L 334.80688 251.495413 
L 335.213104 179.85819 
L 335.619328 325.692823 
L 336.025553 293.982424 
L 336.431777 314.827084 
L 336.838002 316.500373 
L 337.244226 316.885764 
L 337.65045 312.773751 
L 338.462899 222.909521 
L 338.869124 261.194065 
L 339.275348 224.134376 
L 339.681572 299.628178 
L 340.087797 340.320605 
L 340.494021 339.210765 
L 340.900246 347.657928 
L 341.30647 349.54341 
L 341.712695 356.13101 
L 342.118919 360.623011 
L 342.525143 341.685145 
L 342.931368 268.399103 
L 343.337592 301.814174 
L 343.743817 227.296327 
L 344.150041 346.773292 
L 344.556265 295.680094 
L 344.96249 266.336606 
L 345.368714 257.287199 
L 345.774939 331.603712 
L 346.181163 328.587024 
L 346.587387 346.441009 
L 346.993612 312.279128 
L 347.399836 329.11892 
L 347.806061 278.764072 
L 348.212285 355.63414 
L 348.618509 354.700761 
L 349.024734 357.275432 
L 349.430958 355.336616 
L 349.837183 330.164724 
L 350.243407 314.748997 
L 350.649631 338.529581 
L 351.055856 355.654314 
L 351.46208 333.045613 
L 351.868305 354.098822 
L 352.274529 340.633339 
L 352.680753 336.584356 
L 353.086978 357.012062 
L 353.493202 324.751946 
L 353.899427 327.906798 
L 354.305651 322.006349 
L 354.711876 319.833979 
L 355.1181 252.122914 
L 355.524324 260.315782 
L 355.930549 260.315782 
L 356.336773 363.860781 
L 356.742998 372.105008 
L 357.555446 335.36855 
L 357.961671 363.408868 
L 358.77412 226.75723 
L 359.180344 264.107365 
L 359.586568 285.47381 
L 359.992793 314.516646 
L 360.399017 307.665431 
L 360.805242 351.623957 
L 361.211466 345.745872 
L 361.61769 352.098509 
L 362.023915 356.181314 
L 362.430139 351.096766 
L 362.836364 289.184158 
L 363.648812 336.661488 
L 364.055037 346.586902 
L 364.461261 337.569553 
L 364.867486 350.006373 
L 365.27371 349.545227 
L 365.679934 309.475624 
L 366.086159 307.419287 
L 366.492383 274.440497 
L 367.304832 330.339934 
L 367.711057 312.252329 
L 368.117281 264.897315 
L 368.523505 316.631497 
L 368.92973 274.47479 
L 369.335954 277.995847 
L 369.742179 341.785028 
L 370.148403 342.066472 
L 370.554627 351.033304 
L 371.367076 271.187208 
L 371.773301 252.91295 
L 372.179525 247.017454 
L 372.585749 358.060663 
L 372.991974 328.664126 
L 373.398198 361.264178 
L 373.804423 318.406999 
L 374.210647 306.427855 
L 374.616871 327.970923 
L 375.023096 356.146226 
L 375.42932 356.284829 
L 375.835545 357.007236 
L 376.241769 353.947192 
L 376.647993 357.201103 
L 377.054218 351.881068 
L 377.460442 358.399432 
L 377.866667 356.583212 
L 378.272891 358.348552 
L 378.679115 227.464884 
L 379.08534 255.249553 
L 379.491564 270.362038 
L 379.897789 243.272253 
L 380.304013 308.015614 
L 380.710238 308.485 
L 381.116462 274.439896 
L 381.522686 298.261849 
L 382.335135 251.203129 
L 382.74136 284.138468 
L 383.147584 288.654412 
L 383.553808 285.961487 
L 383.960033 267.353152 
L 384.772482 345.956755 
L 385.178706 366.041391 
L 385.58493 330.466987 
L 385.991155 359.196991 
L 386.397379 361.057371 
L 386.803604 344.594527 
L 387.209828 360.53282 
L 387.616052 327.801215 
L 388.022277 263.258512 
L 388.428501 267.999034 
L 389.24095 302.928762 
L 389.647174 327.322147 
L 390.053399 363.808448 
L 390.459623 358.224572 
L 390.865848 357.04677 
L 391.272072 366.994026 
L 391.678296 366.734349 
L 392.084521 356.172734 
L 392.490745 357.264726 
L 392.89697 361.803428 
L 393.303194 356.919235 
L 393.709419 354.335862 
L 394.115643 358.085134 
L 394.521867 360.123999 
L 394.928092 360.517552 
L 395.334316 361.415237 
L 395.740541 359.073249 
L 396.146765 312.833225 
L 396.552989 305.275583 
L 396.959214 348.0562 
L 397.365438 355.996567 
L 397.771663 358.644007 
L 398.177887 345.808216 
L 398.584111 272.733323 
L 398.990336 281.575093 
L 399.39656 285.942055 
L 399.802785 311.222231 
L 400.209009 306.754907 
L 400.615233 299.952416 
L 401.021458 345.431982 
L 401.427682 328.759214 
L 401.833907 351.22228 
L 402.240131 305.37635 
L 402.646355 361.744541 
L 403.05258 262.607556 
L 403.458804 226.945092 
L 403.865029 263.141966 
L 404.271253 263.141966 
L 404.677477 301.928644 
L 405.083702 321.276271 
L 405.489926 294.616338 
L 405.896151 347.997451 
L 406.302375 353.496167 
L 406.7086 356.492789 
L 407.114824 316.248581 
L 407.521048 304.503555 
L 407.927273 321.14705 
L 408.333497 289.797231 
L 408.739722 310.765472 
L 409.145946 322.608466 
L 409.55217 328.85552 
L 409.958395 297.008113 
L 410.364619 336.592898 
L 410.770844 310.188528 
L 411.177068 311.690099 
L 411.583292 230.31917 
L 411.989517 290.931279 
L 412.395741 270.656369 
L 412.801966 236.909704 
L 413.20819 288.144368 
L 413.614414 299.991393 
L 414.020639 305.838453 
L 414.426863 365.104229 
L 414.833088 367.053569 
L 415.239312 332.877523 
L 415.645536 286.037707 
L 416.051761 300.12326 
L 416.457985 349.174894 
L 416.86421 336.170373 
L 417.270434 355.240123 
L 417.676658 334.595982 
L 418.082883 250.388641 
L 418.489107 191.737191 
L 418.895332 159.794688 
L 419.301556 153.019377 
L 420.926454 153.019377 
L 421.332678 316.72 
L 498.109091 316.72 
L 498.109091 316.72 
" style="fill:none;stroke:#0000ff;stroke-linecap:square;stroke-width:1.5;"/>
   </g>
   <g id="line2d_14">
    <path clip-path="url(#pf137970ca4)" d="M 92.290909 187.159902 
L 92.697133 182.297235 
L 93.103358 166.817478 
L 93.509582 159.17944 
L 93.915807 157.408578 
L 94.322031 157.554031 
L 94.728256 173.299582 
L 95.13448 166.183149 
L 95.540704 164.227485 
L 95.946929 223.035736 
L 96.353153 203.601687 
L 96.759378 225.207068 
L 97.165602 235.784682 
L 97.571826 211.307454 
L 97.978051 204.573973 
L 98.384275 228.627834 
L 98.7905 235.784682 
L 99.196724 212.936152 
L 99.602948 201.025935 
L 100.009173 225.737877 
L 100.415397 223.383825 
L 100.821622 214.129332 
L 101.227846 222.395076 
L 101.63407 224.373896 
L 102.040295 208.833933 
L 102.446519 217.546312 
L 102.852744 221.637162 
L 103.258968 219.727896 
L 103.665192 217.178095 
L 104.071417 196.600555 
L 104.477641 289.534317 
L 104.883866 175.674117 
L 105.29009 172.020304 
L 105.696314 258.477434 
L 106.102539 190.270751 
L 106.508763 250.696746 
L 106.914988 201.492665 
L 107.321212 243.818455 
L 107.727437 195.613554 
L 108.133661 202.386401 
L 108.539885 247.279228 
L 108.94611 171.987057 
L 109.352334 220.529566 
L 109.758559 226.045807 
L 110.164783 221.207026 
L 110.571007 240.058954 
L 110.977232 202.007922 
L 111.383456 235.236135 
L 111.789681 245.825105 
L 112.195905 198.595758 
L 112.602129 218.071168 
L 113.008354 217.937092 
L 113.414578 206.328269 
L 113.820803 217.284028 
L 114.227027 221.712328 
L 114.633251 201.049507 
L 115.039476 221.037296 
L 115.4457 193.572462 
L 115.851925 207.305834 
L 116.258149 239.817779 
L 116.664373 237.226456 
L 117.070598 236.628682 
L 117.476822 186.875302 
L 117.883047 258.407428 
L 118.289271 212.469669 
L 118.695495 186.942483 
L 119.507944 254.727974 
L 120.320393 186.182913 
L 120.726618 233.554641 
L 121.132842 223.426744 
L 121.539066 221.284473 
L 121.945291 231.211096 
L 122.351515 230.856825 
L 122.75774 215.809595 
L 123.163964 215.066683 
L 123.570188 211.701528 
L 123.976413 247.890937 
L 124.382637 176.487927 
L 124.788862 243.267378 
L 125.195086 188.317079 
L 125.60131 234.82225 
L 126.007535 214.823116 
L 126.413759 212.836287 
L 126.819984 226.582562 
L 127.226208 229.557623 
L 127.632432 214.61961 
L 128.038657 214.784679 
L 128.444881 208.029884 
L 128.851106 235.667864 
L 129.25733 192.506649 
L 129.663554 249.918748 
L 130.069779 191.515447 
L 130.476003 252.654663 
L 130.882228 207.07705 
L 131.288452 201.128484 
L 131.694676 220.478343 
L 132.100901 217.601052 
L 132.507125 222.825237 
L 132.91335 179.26465 
L 133.319574 231.465765 
L 133.725799 222.327264 
L 134.132023 225.560363 
L 134.538247 218.983056 
L 134.944472 217.795124 
L 135.350696 213.280492 
L 135.756921 219.436108 
L 136.163145 222.033576 
L 136.569369 219.433587 
L 136.975594 227.322739 
L 137.381818 229.43682 
L 137.788043 223.132468 
L 138.194267 223.8063 
L 138.600491 224.195044 
L 139.006716 223.271077 
L 139.41294 222.974305 
L 139.819165 216.653498 
L 140.225389 226.903397 
L 140.631613 192.650427 
L 141.037838 255.075733 
L 141.444062 187.755246 
L 141.850287 227.681816 
L 142.256511 199.772254 
L 142.662735 245.284295 
L 143.06896 214.750001 
L 143.475184 213.980448 
L 143.881409 221.680107 
L 144.287633 219.494878 
L 145.100082 212.031737 
L 145.506306 246.371859 
L 145.912531 191.235253 
L 146.318755 244.865602 
L 146.72498 208.397529 
L 147.131204 229.20667 
L 147.537428 231.76148 
L 147.943653 191.238739 
L 148.349877 229.33936 
L 148.756102 214.493636 
L 149.162326 211.243462 
L 149.56855 212.003233 
L 150.380999 219.686421 
L 150.787224 228.473911 
L 151.193448 224.232044 
L 151.599672 215.610682 
L 152.005897 220.776255 
L 152.412121 213.157914 
L 152.818346 213.50561 
L 153.22457 186.005648 
L 153.630794 267.96343 
L 154.037019 212.735887 
L 154.443243 267.657909 
L 154.849468 171.242185 
L 155.255692 225.146894 
L 155.661916 250.561338 
L 156.068141 199.868124 
L 156.474365 217.072794 
L 156.88059 217.072794 
L 157.286814 226.692245 
L 157.693038 219.494819 
L 158.099263 270.427957 
L 158.505487 174.031914 
L 158.911712 190.89322 
L 159.317936 253.358736 
L 159.724161 249.86202 
L 160.130385 163.777418 
L 160.536609 243.685538 
L 160.942834 197.366466 
L 161.349058 208.366553 
L 161.755283 241.14102 
L 162.567731 182.700834 
L 162.973956 229.588121 
L 163.38018 200.734159 
L 163.786405 220.244534 
L 164.192629 186.692343 
L 164.598853 229.091897 
L 165.005078 256.942438 
L 165.411302 182.907282 
L 165.817527 236.358372 
L 166.223751 220.480069 
L 166.629975 210.924671 
L 167.0362 259.979684 
L 167.442424 225.464637 
L 167.848649 219.331893 
L 168.254873 190.786863 
L 168.661097 262.620881 
L 169.067322 208.472331 
L 169.473546 231.019757 
L 169.879771 182.917533 
L 170.285995 216.06842 
L 170.692219 231.342435 
L 171.098444 221.538314 
L 171.504668 196.5874 
L 171.910893 227.636752 
L 172.317117 225.377442 
L 172.723342 220.09157 
L 173.129566 231.361969 
L 173.53579 224.062203 
L 173.942015 224.848166 
L 174.348239 228.710618 
L 174.754464 224.233425 
L 175.160688 214.460269 
L 175.566912 212.131256 
L 175.973137 254.357052 
L 176.379361 196.351375 
L 177.19181 223.223513 
L 177.598034 197.709871 
L 178.004259 209.940362 
L 178.410483 207.233144 
L 178.816708 223.022168 
L 179.222932 223.022168 
L 179.629156 246.544192 
L 180.035381 253.318231 
L 180.441605 219.346262 
L 180.84783 217.613762 
L 181.254054 196.391979 
L 181.660278 222.013156 
L 182.066503 217.048777 
L 182.472727 219.744009 
L 182.878952 218.025828 
L 183.285176 225.541376 
L 183.6914 211.695312 
L 184.097625 245.251118 
L 184.503849 222.130651 
L 184.910074 220.833809 
L 185.316298 193.51951 
L 185.722523 257.386949 
L 186.128747 221.227853 
L 186.534971 214.111111 
L 186.941196 197.590544 
L 187.34742 235.148619 
L 187.753645 232.354214 
L 188.159869 180.201753 
L 188.566093 198.329289 
L 188.972318 208.666153 
L 189.378542 250.77087 
L 189.784767 214.038634 
L 190.190991 216.277187 
L 190.597215 213.405733 
L 191.00344 230.632616 
L 191.409664 213.739787 
L 191.815889 208.6923 
L 192.222113 201.57301 
L 192.628337 224.141049 
L 193.034562 227.733299 
L 193.440786 213.552796 
L 193.847011 220.517173 
L 194.253235 244.085574 
L 194.659459 191.098506 
L 195.065684 212.368476 
L 195.471908 246.060297 
L 195.878133 193.463746 
L 196.284357 222.485484 
L 196.690581 233.23789 
L 197.096806 219.96137 
L 197.50303 185.930559 
L 197.909255 224.024604 
L 198.315479 202.380927 
L 198.721704 237.985742 
L 199.127928 208.890031 
L 199.534152 224.013294 
L 199.940377 228.228762 
L 200.346601 225.054406 
L 200.752826 226.699962 
L 201.15905 218.590001 
L 201.565274 213.349651 
L 201.971499 219.320979 
L 202.377723 219.320979 
L 202.783948 200.044601 
L 203.190172 224.69275 
L 203.596396 217.276192 
L 204.002621 216.887806 
L 204.408845 217.701784 
L 204.81507 216.52518 
L 205.221294 216.27284 
L 205.627518 216.265268 
L 206.033743 241.668924 
L 206.439967 216.137205 
L 206.846192 204.937653 
L 207.252416 235.258574 
L 207.65864 201.366742 
L 208.064865 250.636951 
L 208.471089 188.432119 
L 208.877314 216.677373 
L 209.283538 215.172253 
L 209.689762 241.822402 
L 210.095987 223.279269 
L 210.502211 229.93664 
L 210.908436 251.923416 
L 211.31466 181.449615 
L 211.720885 247.416003 
L 212.127109 216.396585 
L 212.533333 218.603722 
L 212.939558 283.893628 
L 213.345782 192.711296 
L 213.752007 229.926403 
L 214.158231 197.696823 
L 214.564455 214.071325 
L 214.97068 218.293344 
L 215.376904 215.326128 
L 215.783129 219.866479 
L 216.189353 216.374369 
L 216.595577 216.632333 
L 217.001802 219.945631 
L 217.408026 228.990481 
L 217.814251 209.592669 
L 218.220475 227.668314 
L 218.626699 223.57286 
L 219.032924 226.754376 
L 219.439148 188.737369 
L 219.845373 218.279261 
L 220.251597 222.430794 
L 220.657821 260.84729 
L 221.064046 216.329717 
L 221.47027 216.012981 
L 221.876495 222.979294 
L 222.282719 219.760727 
L 222.688943 218.142336 
L 223.095168 221.205333 
L 223.501392 233.390192 
L 223.907617 220.696869 
L 224.313841 246.606522 
L 224.720066 219.026675 
L 225.12629 177.054145 
L 225.532514 265.226643 
L 225.938739 175.022486 
L 226.344963 229.27879 
L 226.751188 228.38797 
L 227.157412 241.561029 
L 227.563636 222.767944 
L 227.969861 221.768982 
L 228.376085 246.84492 
L 228.78231 185.023256 
L 229.188534 195.795214 
L 229.594758 257.367288 
L 230.000983 241.39159 
L 230.407207 190.834281 
L 230.813432 206.930159 
L 231.219656 208.43759 
L 231.62588 224.298618 
L 232.032105 214.487866 
L 232.438329 219.581168 
L 232.844554 208.947092 
L 233.250778 229.781198 
L 233.657002 240.080473 
L 234.063227 218.057953 
L 234.469451 214.020649 
L 234.875676 215.399601 
L 235.2819 213.072209 
L 235.688124 221.667173 
L 236.094349 219.57849 
L 236.500573 212.794004 
L 236.906798 212.129084 
L 237.313022 205.067058 
L 238.125471 223.054246 
L 238.531695 176.803301 
L 238.93792 217.321249 
L 239.344144 240.042904 
L 239.750369 211.182842 
L 240.156593 209.909134 
L 240.562817 223.345031 
L 240.969042 215.870794 
L 241.375266 234.868293 
L 241.781491 216.893531 
L 242.187715 209.798051 
L 242.593939 244.910157 
L 243.000164 196.688485 
L 243.406388 194.524313 
L 243.812613 224.500887 
L 244.218837 227.587393 
L 244.625061 211.41651 
L 245.031286 227.604605 
L 245.43751 233.825091 
L 245.843735 204.891715 
L 246.249959 206.883672 
L 246.656183 211.994148 
L 247.062408 208.14584 
L 247.468632 198.538141 
L 248.281081 221.922119 
L 248.687305 211.841289 
L 249.09353 210.138956 
L 249.499754 200.672883 
L 249.905979 217.522167 
L 250.312203 217.914353 
L 250.718428 208.595044 
L 251.124652 202.672445 
L 251.530876 207.435304 
L 251.937101 214.321313 
L 252.343325 213.431692 
L 252.74955 215.656692 
L 253.155774 213.500225 
L 253.561998 228.462541 
L 253.968223 229.430947 
L 254.374447 218.006517 
L 254.780672 178.948722 
L 255.186896 266.907425 
L 255.59312 212.777152 
L 255.999345 214.738363 
L 256.405569 199.284755 
L 256.811794 209.97357 
L 257.218018 210.476768 
L 257.624242 207.535284 
L 258.030467 199.123477 
L 258.436691 224.730477 
L 258.842916 168.036582 
L 259.24914 260.626024 
L 259.655364 210.980489 
L 260.061589 220.600108 
L 260.467813 181.554824 
L 260.874038 222.1709 
L 261.280262 209.647012 
L 261.686486 210.346963 
L 262.092711 230.059337 
L 262.498935 182.339788 
L 262.90516 248.061704 
L 263.311384 214.152883 
L 263.717609 193.403362 
L 264.123833 228.248347 
L 264.530057 191.487326 
L 264.936282 246.13121 
L 265.342506 215.475266 
L 265.748731 209.167617 
L 266.154955 214.617895 
L 266.561179 197.161415 
L 266.967404 158.72842 
L 267.373628 176.841976 
L 268.186077 259.097647 
L 268.592301 195.848311 
L 268.998526 199.553648 
L 269.40475 212.75612 
L 269.810975 213.472545 
L 270.217199 212.721739 
L 270.623423 218.353461 
L 271.029648 232.33631 
L 271.435872 214.391893 
L 271.842097 204.39811 
L 272.248321 220.02678 
L 272.654545 218.917243 
L 273.06077 219.088545 
L 273.466994 247.990771 
L 273.873219 209.322349 
L 274.279443 181.725655 
L 274.685667 220.163669 
L 275.091892 220.257927 
L 275.498116 202.391213 
L 275.904341 232.267119 
L 276.310565 196.29649 
L 276.71679 221.33067 
L 277.123014 202.955641 
L 277.529238 230.742433 
L 277.935463 224.344056 
L 278.747912 206.703959 
L 279.56036 233.035898 
L 279.966585 210.821178 
L 280.372809 209.704818 
L 280.779034 179.716485 
L 281.185258 222.071019 
L 281.591482 208.202913 
L 281.997707 251.844155 
L 282.403931 208.936703 
L 282.810156 191.396946 
L 283.21638 233.4302 
L 283.622604 202.254397 
L 284.028829 205.968868 
L 284.435053 249.113067 
L 284.841278 188.748626 
L 285.247502 228.107329 
L 285.653726 215.818319 
L 286.059951 208.321258 
L 286.466175 180.196634 
L 286.8724 256.383142 
L 287.278624 227.755749 
L 287.684848 218.493193 
L 288.091073 219.477364 
L 288.497297 232.667744 
L 288.903522 199.881471 
L 289.309746 246.990354 
L 289.715971 215.618614 
L 290.122195 195.827283 
L 290.528419 240.009955 
L 291.340868 187.244833 
L 291.747093 233.688972 
L 292.153317 226.469034 
L 292.559541 198.249627 
L 292.965766 231.419657 
L 293.37199 218.988604 
L 293.778215 223.324517 
L 294.184439 191.169125 
L 294.590663 213.09876 
L 294.996888 216.074114 
L 295.403112 221.553593 
L 295.809337 208.768011 
L 296.215561 222.811047 
L 296.621785 225.83692 
L 297.02801 175.221083 
L 297.434234 269.559672 
L 297.840459 219.663252 
L 298.246683 220.070621 
L 298.652907 200.171225 
L 299.059132 243.579743 
L 299.465356 193.57613 
L 299.871581 214.063438 
L 300.277805 211.470396 
L 300.684029 233.360777 
L 301.090254 224.82453 
L 301.496478 204.793508 
L 301.902703 215.15889 
L 302.308927 215.257702 
L 302.715152 219.168972 
L 303.121376 208.64497 
L 303.5276 214.87732 
L 303.933825 219.025609 
L 304.340049 218.383285 
L 304.746274 235.49281 
L 305.152498 185.219582 
L 305.558722 233.884901 
L 305.964947 222.699074 
L 306.371171 224.505543 
L 306.777396 216.832606 
L 307.18362 220.99216 
L 307.589844 220.281401 
L 307.996069 222.952253 
L 308.402293 251.593511 
L 308.808518 141.334537 
L 309.214742 293.987143 
L 309.620966 216.595693 
L 310.027191 183.921029 
L 310.433415 226.272712 
L 310.83964 223.722839 
L 311.245864 251.08328 
L 311.652088 216.337697 
L 312.058313 225.13678 
L 312.464537 195.902116 
L 312.870762 215.515659 
L 313.276986 225.788447 
L 313.68321 197.080123 
L 314.495659 235.955011 
L 314.901884 223.149845 
L 315.308108 214.757048 
L 315.714333 221.951037 
L 316.120557 246.043424 
L 316.526781 235.431092 
L 316.933006 182.055988 
L 317.33923 242.115692 
L 317.745455 197.884921 
L 318.557903 229.839065 
L 318.964128 215.571998 
L 319.370352 214.387756 
L 319.776577 201.494351 
L 320.182801 237.282174 
L 320.589025 210.164052 
L 320.99525 207.574438 
L 321.401474 210.335369 
L 321.807699 225.495858 
L 322.620147 212.652447 
L 323.026372 213.362735 
L 323.432596 207.463645 
L 323.838821 272.586868 
L 324.245045 212.738295 
L 324.651269 216.212611 
L 325.057494 226.889217 
L 325.463718 210.457295 
L 325.869943 203.764732 
L 326.276167 218.60457 
L 326.682391 210.688799 
L 327.088616 210.688799 
L 327.49484 200.723102 
L 327.901065 220.161111 
L 328.307289 205.750843 
L 328.713514 223.014492 
L 329.119738 210.672075 
L 329.525962 224.766338 
L 329.932187 217.483381 
L 330.338411 226.817302 
L 330.744636 193.416789 
L 331.15086 234.31946 
L 331.557084 241.71373 
L 331.963309 193.701418 
L 332.369533 223.33654 
L 332.775758 208.458237 
L 333.181982 227.900599 
L 333.588206 209.42954 
L 333.994431 204.891522 
L 334.400655 206.386258 
L 334.80688 210.25593 
L 335.213104 243.050144 
L 335.619328 175.998553 
L 336.025553 220.271812 
L 336.431777 219.705384 
L 336.838002 215.854531 
L 337.244226 220.6994 
L 337.65045 228.586368 
L 338.056675 216.062546 
L 338.462899 209.245482 
L 338.869124 226.47103 
L 339.275348 207.530043 
L 339.681572 233.34137 
L 340.087797 206.389891 
L 340.494021 210.284685 
L 340.900246 218.739571 
L 341.30647 215.556476 
L 341.712695 252.967734 
L 342.118919 219.25115 
L 342.525143 220.995031 
L 342.931368 212.166599 
L 343.337592 234.152735 
L 343.743817 186.877666 
L 344.150041 215.255338 
L 344.556265 201.602378 
L 344.96249 212.098694 
L 345.368714 193.543108 
L 345.774939 223.322838 
L 346.181163 219.010636 
L 346.587387 224.161556 
L 346.993612 220.905609 
L 347.399836 222.984056 
L 347.806061 238.435114 
L 348.212285 214.520178 
L 348.618509 224.595582 
L 349.024734 214.942094 
L 349.430958 210.85379 
L 349.837183 223.294583 
L 350.243407 218.406058 
L 350.649631 226.59329 
L 351.055856 218.991667 
L 351.46208 205.754458 
L 351.868305 223.610415 
L 352.274529 192.849297 
L 352.680753 211.654375 
L 353.086978 219.210344 
L 353.493202 200.877631 
L 353.899427 208.107491 
L 354.305651 211.677868 
L 354.711876 223.793576 
L 355.1181 197.119866 
L 355.524324 217.507178 
L 355.930549 217.507178 
L 356.336773 162.980642 
L 356.742998 272.038322 
L 357.149222 217.832415 
L 357.555446 217.832415 
L 357.961671 244.119946 
L 358.367895 246.158549 
L 358.77412 195.608191 
L 359.180344 217.072794 
L 359.586568 214.49347 
L 359.992793 239.704383 
L 360.399017 181.316363 
L 360.805242 218.847432 
L 361.211466 231.959668 
L 361.61769 227.730785 
L 362.023915 237.247701 
L 362.430139 222.834263 
L 362.836364 200.149216 
L 363.242588 202.184552 
L 363.648812 223.823605 
L 364.055037 222.144048 
L 364.461261 208.779604 
L 364.867486 234.024152 
L 365.27371 229.533445 
L 365.679934 235.246945 
L 366.086159 202.329074 
L 366.492383 201.982894 
L 366.898608 242.97978 
L 367.304832 180.095575 
L 367.711057 227.718047 
L 368.117281 207.973725 
L 368.523505 225.164742 
L 368.92973 203.654747 
L 369.335954 212.161244 
L 369.742179 252.078069 
L 370.148403 209.561082 
L 370.554627 232.187788 
L 370.960852 209.304416 
L 371.367076 211.589524 
L 371.773301 203.203669 
L 372.585749 221.818416 
L 372.991974 240.389672 
L 373.398198 224.605968 
L 373.804423 224.773839 
L 374.210647 221.086758 
L 374.616871 221.892787 
L 375.023096 216.478596 
L 375.42932 218.605935 
L 375.835545 217.617138 
L 376.647993 220.858428 
L 377.054218 227.032538 
L 377.460442 211.211862 
L 377.866667 258.170818 
L 378.272891 210.192528 
L 378.679115 250.330264 
L 379.08534 208.5186 
L 379.491564 220.591439 
L 379.897789 218.920515 
L 380.304013 210.367045 
L 380.710238 231.905085 
L 381.116462 219.155911 
L 381.522686 222.153674 
L 381.928911 228.211754 
L 382.335135 241.639757 
L 382.74136 215.538092 
L 383.147584 215.087645 
L 383.553808 211.470161 
L 383.960033 250.837344 
L 384.366257 220.156344 
L 384.772482 170.554932 
L 385.178706 257.703334 
L 385.991155 208.091729 
L 386.397379 224.900499 
L 386.803604 230.116719 
L 387.209828 225.390343 
L 387.616052 200.802375 
L 388.022277 217.693985 
L 388.428501 207.753452 
L 388.834726 227.540334 
L 389.24095 211.357424 
L 390.053399 260.270744 
L 390.459623 174.436248 
L 390.865848 175.049994 
L 391.272072 263.258299 
L 391.678296 264.793895 
L 392.084521 175.886366 
L 392.490745 175.569175 
L 392.89697 279.039486 
L 393.303194 198.268622 
L 393.709419 227.701034 
L 394.115643 220.743807 
L 394.521867 227.44088 
L 394.928092 218.136488 
L 395.334316 216.505698 
L 395.740541 215.476044 
L 396.146765 224.111629 
L 396.552989 217.876001 
L 396.959214 209.285004 
L 397.365438 218.121266 
L 397.771663 223.09301 
L 398.177887 222.416017 
L 398.584111 222.324103 
L 398.990336 221.001736 
L 399.39656 205.323978 
L 399.802785 225.482604 
L 400.209009 219.819266 
L 400.615233 218.380805 
L 401.021458 247.924161 
L 401.427682 209.601055 
L 401.833907 254.703684 
L 402.646355 223.82332 
L 403.05258 232.101408 
L 403.458804 198.553475 
L 403.865029 221.702108 
L 404.271253 221.702108 
L 404.677477 234.827339 
L 405.083702 242.582697 
L 405.489926 223.466254 
L 405.896151 227.840505 
L 406.302375 223.941579 
L 406.7086 207.494451 
L 407.114824 212.165021 
L 407.521048 195.481236 
L 407.927273 235.131503 
L 408.333497 225.411058 
L 408.739722 201.744451 
L 409.145946 224.173089 
L 409.55217 192.807226 
L 409.958395 248.729932 
L 410.364619 246.034912 
L 410.770844 193.944596 
L 411.177068 195.996253 
L 411.583292 270.548923 
L 411.989517 184.111066 
L 412.395741 267.412771 
L 412.801966 205.686073 
L 413.20819 229.624324 
L 413.614414 219.160741 
L 414.020639 214.988511 
L 414.426863 223.265554 
L 414.833088 225.322595 
L 415.239312 223.814551 
L 415.645536 216.461567 
L 416.051761 226.469524 
L 416.457985 185.351276 
L 416.86421 269.246682 
L 417.270434 93.434328 
L 417.676658 102.412185 
L 418.082883 122.233255 
L 418.489107 134.757874 
L 418.895332 154.331435 
L 419.301556 157.554031 
L 420.926454 157.554031 
L 421.332678 375.04642 
L 498.109091 375.04642 
L 498.109091 375.04642 
" style="fill:none;stroke:#008000;stroke-linecap:square;stroke-width:1.5;"/>
   </g>
   <g id="patch_3">
    <path d="M 72 384.48 
L 72 51.84 
" style="fill:none;stroke:#000000;stroke-linecap:square;stroke-linejoin:miter;stroke-width:0.8;"/>
   </g>
   <g id="patch_4">
    <path d="M 518.4 384.48 
L 518.4 51.84 
" style="fill:none;stroke:#000000;stroke-linecap:square;stroke-linejoin:miter;stroke-width:0.8;"/>
   </g>
   <g id="patch_5">
    <path d="M 72 384.48 
L 518.4 384.48 
" style="fill:none;stroke:#000000;stroke-linecap:square;stroke-linejoin:miter;stroke-width:0.8;"/>
   </g>
   <g id="patch_6">
    <path d="M 72 51.84 
L 518.4 51.84 
" style="fill:none;stroke:#000000;stroke-linecap:square;stroke-linejoin:miter;stroke-width:0.8;"/>
   </g>
   <g id="legend_1">
    <g id="patch_7">
     <path d="M 79 89.19625 
L 156.107812 89.19625 
Q 158.107812 89.19625 158.107812 87.19625 
L 158.107812 58.84 
Q 158.107812 56.84 156.107812 56.84 
L 79 56.84 
Q 77 56.84 77 58.84 
L 77 87.19625 
Q 77 89.19625 79 89.19625 
z
" style="fill:#ffffff;opacity:0.8;stroke:#cccccc;stroke-linejoin:miter;"/>
    </g>
    <g id="line2d_15">
     <path d="M 81 64.938437 
L 101 64.938437 
" style="fill:none;stroke:#0000ff;stroke-linecap:square;stroke-width:1.5;"/>
    </g>
    <g id="line2d_16"/>
    <g id="text_15">
     <!-- precision -->
     <g transform="translate(109 68.438437)scale(0.1 -0.1)">
      <defs>
       <path d="M 9.421875 54.6875 
L 18.40625 54.6875 
L 18.40625 0 
L 9.421875 0 
z
M 9.421875 75.984375 
L 18.40625 75.984375 
L 18.40625 64.59375 
L 9.421875 64.59375 
z
" id="DejaVuSans-105"/>
       <path d="M 44.28125 53.078125 
L 44.28125 44.578125 
Q 40.484375 46.53125 36.375 47.5 
Q 32.28125 48.484375 27.875 48.484375 
Q 21.1875 48.484375 17.84375 46.4375 
Q 14.5 44.390625 14.5 40.28125 
Q 14.5 37.15625 16.890625 35.375 
Q 19.28125 33.59375 26.515625 31.984375 
L 29.59375 31.296875 
Q 39.15625 29.25 43.1875 25.515625 
Q 47.21875 21.78125 47.21875 15.09375 
Q 47.21875 7.46875 41.1875 3.015625 
Q 35.15625 -1.421875 24.609375 -1.421875 
Q 20.21875 -1.421875 15.453125 -0.5625 
Q 10.6875 0.296875 5.421875 2 
L 5.421875 11.28125 
Q 10.40625 8.6875 15.234375 7.390625 
Q 20.0625 6.109375 24.8125 6.109375 
Q 31.15625 6.109375 34.5625 8.28125 
Q 37.984375 10.453125 37.984375 14.40625 
Q 37.984375 18.0625 35.515625 20.015625 
Q 33.0625 21.96875 24.703125 23.78125 
L 21.578125 24.515625 
Q 13.234375 26.265625 9.515625 29.90625 
Q 5.8125 33.546875 5.8125 39.890625 
Q 5.8125 47.609375 11.28125 51.796875 
Q 16.75 56 26.8125 56 
Q 31.78125 56 36.171875 55.265625 
Q 40.578125 54.546875 44.28125 53.078125 
z
" id="DejaVuSans-115"/>
       <path d="M 54.890625 33.015625 
L 54.890625 0 
L 45.90625 0 
L 45.90625 32.71875 
Q 45.90625 40.484375 42.875 44.328125 
Q 39.84375 48.1875 33.796875 48.1875 
Q 26.515625 48.1875 22.3125 43.546875 
Q 18.109375 38.921875 18.109375 30.90625 
L 18.109375 0 
L 9.078125 0 
L 9.078125 54.6875 
L 18.109375 54.6875 
L 18.109375 46.1875 
Q 21.34375 51.125 25.703125 53.5625 
Q 30.078125 56 35.796875 56 
Q 45.21875 56 50.046875 50.171875 
Q 54.890625 44.34375 54.890625 33.015625 
z
" id="DejaVuSans-110"/>
      </defs>
      <use xlink:href="#DejaVuSans-112"/>
      <use x="63.476562" xlink:href="#DejaVuSans-114"/>
      <use x="102.339844" xlink:href="#DejaVuSans-101"/>
      <use x="163.863281" xlink:href="#DejaVuSans-99"/>
      <use x="218.84375" xlink:href="#DejaVuSans-105"/>
      <use x="246.626953" xlink:href="#DejaVuSans-115"/>
      <use x="298.726562" xlink:href="#DejaVuSans-105"/>
      <use x="326.509766" xlink:href="#DejaVuSans-111"/>
      <use x="387.691406" xlink:href="#DejaVuSans-110"/>
     </g>
    </g>
    <g id="line2d_17">
     <path d="M 81 79.616562 
L 101 79.616562 
" style="fill:none;stroke:#008000;stroke-linecap:square;stroke-width:1.5;"/>
    </g>
    <g id="line2d_18"/>
    <g id="text_16">
     <!-- recall -->
     <g transform="translate(109 83.116562)scale(0.1 -0.1)">
      <defs>
       <path d="M 9.421875 75.984375 
L 18.40625 75.984375 
L 18.40625 0 
L 9.421875 0 
z
" id="DejaVuSans-108"/>
      </defs>
      <use xlink:href="#DejaVuSans-114"/>
      <use x="38.863281" xlink:href="#DejaVuSans-101"/>
      <use x="100.386719" xlink:href="#DejaVuSans-99"/>
      <use x="155.367188" xlink:href="#DejaVuSans-97"/>
      <use x="216.646484" xlink:href="#DejaVuSans-108"/>
      <use x="244.429688" xlink:href="#DejaVuSans-108"/>
     </g>
    </g>
   </g>
  </g>
  <g id="axes_2">
   <g id="matplotlib.axis_3">
    <g id="ytick_7">
     <g id="line2d_19">
      <defs>
       <path d="M 0 0 
L 3.5 0 
" id="m09c763607b" style="stroke:#000000;stroke-width:0.8;"/>
      </defs>
      <g>
       <use style="stroke:#000000;stroke-width:0.8;" x="518.4" xlink:href="#m09c763607b" y="369.76014"/>
      </g>
     </g>
     <g id="text_17">
      <!-- 0 -->
      <g transform="translate(525.4 373.559359)scale(0.1 -0.1)">
       <use xlink:href="#DejaVuSans-48"/>
      </g>
     </g>
    </g>
    <g id="ytick_8">
     <g id="line2d_20">
      <g>
       <use style="stroke:#000000;stroke-width:0.8;" x="518.4" xlink:href="#m09c763607b" y="306.703275"/>
      </g>
     </g>
     <g id="text_18">
      <!-- 100 -->
      <g transform="translate(525.4 310.502494)scale(0.1 -0.1)">
       <use xlink:href="#DejaVuSans-49"/>
       <use x="63.623047" xlink:href="#DejaVuSans-48"/>
       <use x="127.246094" xlink:href="#DejaVuSans-48"/>
      </g>
     </g>
    </g>
    <g id="ytick_9">
     <g id="line2d_21">
      <g>
       <use style="stroke:#000000;stroke-width:0.8;" x="518.4" xlink:href="#m09c763607b" y="243.646411"/>
      </g>
     </g>
     <g id="text_19">
      <!-- 200 -->
      <g transform="translate(525.4 247.445629)scale(0.1 -0.1)">
       <use xlink:href="#DejaVuSans-50"/>
       <use x="63.623047" xlink:href="#DejaVuSans-48"/>
       <use x="127.246094" xlink:href="#DejaVuSans-48"/>
      </g>
     </g>
    </g>
    <g id="ytick_10">
     <g id="line2d_22">
      <g>
       <use style="stroke:#000000;stroke-width:0.8;" x="518.4" xlink:href="#m09c763607b" y="180.589546"/>
      </g>
     </g>
     <g id="text_20">
      <!-- 300 -->
      <g transform="translate(525.4 184.388765)scale(0.1 -0.1)">
       <defs>
        <path d="M 40.578125 39.3125 
Q 47.65625 37.796875 51.625 33 
Q 55.609375 28.21875 55.609375 21.1875 
Q 55.609375 10.40625 48.1875 4.484375 
Q 40.765625 -1.421875 27.09375 -1.421875 
Q 22.515625 -1.421875 17.65625 -0.515625 
Q 12.796875 0.390625 7.625 2.203125 
L 7.625 11.71875 
Q 11.71875 9.328125 16.59375 8.109375 
Q 21.484375 6.890625 26.8125 6.890625 
Q 36.078125 6.890625 40.9375 10.546875 
Q 45.796875 14.203125 45.796875 21.1875 
Q 45.796875 27.640625 41.28125 31.265625 
Q 36.765625 34.90625 28.71875 34.90625 
L 20.21875 34.90625 
L 20.21875 43.015625 
L 29.109375 43.015625 
Q 36.375 43.015625 40.234375 45.921875 
Q 44.09375 48.828125 44.09375 54.296875 
Q 44.09375 59.90625 40.109375 62.90625 
Q 36.140625 65.921875 28.71875 65.921875 
Q 24.65625 65.921875 20.015625 65.03125 
Q 15.375 64.15625 9.8125 62.3125 
L 9.8125 71.09375 
Q 15.4375 72.65625 20.34375 73.4375 
Q 25.25 74.21875 29.59375 74.21875 
Q 40.828125 74.21875 47.359375 69.109375 
Q 53.90625 64.015625 53.90625 55.328125 
Q 53.90625 49.265625 50.4375 45.09375 
Q 46.96875 40.921875 40.578125 39.3125 
z
" id="DejaVuSans-51"/>
       </defs>
       <use xlink:href="#DejaVuSans-51"/>
       <use x="63.623047" xlink:href="#DejaVuSans-48"/>
       <use x="127.246094" xlink:href="#DejaVuSans-48"/>
      </g>
     </g>
    </g>
    <g id="ytick_11">
     <g id="line2d_23">
      <g>
       <use style="stroke:#000000;stroke-width:0.8;" x="518.4" xlink:href="#m09c763607b" y="117.532681"/>
      </g>
     </g>
     <g id="text_21">
      <!-- 400 -->
      <g transform="translate(525.4 121.3319)scale(0.1 -0.1)">
       <use xlink:href="#DejaVuSans-52"/>
       <use x="63.623047" xlink:href="#DejaVuSans-48"/>
       <use x="127.246094" xlink:href="#DejaVuSans-48"/>
      </g>
     </g>
    </g>
    <g id="ytick_12">
     <g id="line2d_24">
      <g>
       <use style="stroke:#000000;stroke-width:0.8;" x="518.4" xlink:href="#m09c763607b" y="54.475816"/>
      </g>
     </g>
     <g id="text_22">
      <!-- 500 -->
      <g transform="translate(525.4 58.275035)scale(0.1 -0.1)">
       <defs>
        <path d="M 10.796875 72.90625 
L 49.515625 72.90625 
L 49.515625 64.59375 
L 19.828125 64.59375 
L 19.828125 46.734375 
Q 21.96875 47.46875 24.109375 47.828125 
Q 26.265625 48.1875 28.421875 48.1875 
Q 40.625 48.1875 47.75 41.5 
Q 54.890625 34.8125 54.890625 23.390625 
Q 54.890625 11.625 47.5625 5.09375 
Q 40.234375 -1.421875 26.90625 -1.421875 
Q 22.3125 -1.421875 17.546875 -0.640625 
Q 12.796875 0.140625 7.71875 1.703125 
L 7.71875 11.625 
Q 12.109375 9.234375 16.796875 8.0625 
Q 21.484375 6.890625 26.703125 6.890625 
Q 35.15625 6.890625 40.078125 11.328125 
Q 45.015625 15.765625 45.015625 23.390625 
Q 45.015625 31 40.078125 35.4375 
Q 35.15625 39.890625 26.703125 39.890625 
Q 22.75 39.890625 18.8125 39.015625 
Q 14.890625 38.140625 10.796875 36.28125 
z
" id="DejaVuSans-53"/>
       </defs>
       <use xlink:href="#DejaVuSans-53"/>
       <use x="63.623047" xlink:href="#DejaVuSans-48"/>
       <use x="127.246094" xlink:href="#DejaVuSans-48"/>
      </g>
     </g>
    </g>
    <g id="text_23">
     <!-- loss -->
     <g transform="translate(556.085938 227.817812)rotate(-90)scale(0.1 -0.1)">
      <use xlink:href="#DejaVuSans-108"/>
      <use x="27.783203" xlink:href="#DejaVuSans-111"/>
      <use x="88.964844" xlink:href="#DejaVuSans-115"/>
      <use x="141.064453" xlink:href="#DejaVuSans-115"/>
     </g>
    </g>
   </g>
   <g id="line2d_25">
    <path clip-path="url(#pf137970ca4)" d="M 92.290909 66.96 
L 92.697133 90.834189 
L 93.915807 203.79559 
L 94.322031 219.170674 
L 95.13448 257.563947 
L 95.946929 290.679043 
L 96.353153 363.471044 
L 96.759378 361.033025 
L 97.165602 365.828928 
L 97.571826 365.713972 
L 97.978051 367.053464 
L 98.384275 367.428108 
L 98.7905 367.552083 
L 99.196724 367.555431 
L 99.602948 367.778926 
L 100.009173 367.709206 
L 100.415397 367.478369 
L 100.821622 367.615003 
L 101.63407 367.744035 
L 102.040295 367.807838 
L 102.446519 368.020583 
L 103.258968 368.026905 
L 103.665192 367.806296 
L 104.071417 367.863722 
L 104.477641 367.739379 
L 104.883866 367.947809 
L 105.696314 368.143218 
L 106.102539 367.739497 
L 106.508763 367.814577 
L 106.914988 368.1278 
L 107.321212 368.128201 
L 107.727437 367.918668 
L 108.133661 368.024804 
L 108.539885 367.940921 
L 108.94611 368.227505 
L 110.571007 368.040125 
L 110.977232 368.097485 
L 111.383456 367.964093 
L 111.789681 368.010556 
L 112.602129 367.785287 
L 114.227027 367.940211 
L 114.633251 367.723258 
L 115.039476 367.903749 
L 115.851925 367.652121 
L 116.258149 367.517367 
L 116.664373 367.569692 
L 117.070598 367.813047 
L 118.289271 367.964557 
L 118.695495 367.807098 
L 119.10172 367.952365 
L 119.914169 367.841765 
L 121.539066 368.20031 
L 121.945291 367.949138 
L 122.75774 368.151936 
L 123.570188 367.874156 
L 123.976413 367.956329 
L 124.382637 367.804482 
L 126.007535 367.880047 
L 126.413759 367.886869 
L 126.819984 368.067246 
L 127.226208 368.027661 
L 127.632432 367.86426 
L 128.038657 368.011974 
L 128.851106 367.906232 
L 129.25733 367.63108 
L 129.663554 367.72259 
L 130.069779 367.246795 
L 130.476003 367.698795 
L 130.882228 367.90185 
L 131.288452 367.903247 
L 131.694676 367.668537 
L 132.100901 367.86752 
L 132.91335 367.545803 
L 133.319574 368.242331 
L 133.725799 368.555141 
L 134.538247 368.756316 
L 134.944472 368.654036 
L 136.569369 368.681123 
L 136.975594 368.863393 
L 138.600491 368.922412 
L 141.037838 368.906809 
L 141.444062 368.85045 
L 141.850287 368.981332 
L 142.662735 368.851845 
L 144.693857 368.94282 
L 145.506306 368.946284 
L 146.318755 369.047863 
L 148.349877 369.032045 
L 152.412121 369.011741 
L 152.818346 369.082292 
L 153.630794 368.993268 
L 154.443243 369.081579 
L 155.661916 369.036244 
L 156.474365 369.10238 
L 157.693038 369.079659 
L 158.505487 369.070506 
L 161.755283 369.079005 
L 163.38018 369.100258 
L 167.848649 369.084485 
L 169.473546 369.09588 
L 176.785586 369.170366 
L 180.84783 369.161669 
L 332.369533 369.318658 
L 498.109091 369.36 
L 498.109091 369.36 
" style="fill:none;stroke:#ff0000;stroke-linecap:square;stroke-width:1.5;"/>
   </g>
   <g id="patch_8">
    <path d="M 72 384.48 
L 72 51.84 
" style="fill:none;stroke:#000000;stroke-linecap:square;stroke-linejoin:miter;stroke-width:0.8;"/>
   </g>
   <g id="patch_9">
    <path d="M 518.4 384.48 
L 518.4 51.84 
" style="fill:none;stroke:#000000;stroke-linecap:square;stroke-linejoin:miter;stroke-width:0.8;"/>
   </g>
   <g id="patch_10">
    <path d="M 72 384.48 
L 518.4 384.48 
" style="fill:none;stroke:#000000;stroke-linecap:square;stroke-linejoin:miter;stroke-width:0.8;"/>
   </g>
   <g id="patch_11">
    <path d="M 72 51.84 
L 518.4 51.84 
" style="fill:none;stroke:#000000;stroke-linecap:square;stroke-linejoin:miter;stroke-width:0.8;"/>
   </g>
   <g id="text_24">
    <!-- The learning curve on 8clients_non_iid_agg/host/3 -->
    <g transform="translate(144.702188 45.84)scale(0.12 -0.12)">
     <defs>
      <path d="M -0.296875 72.90625 
L 61.375 72.90625 
L 61.375 64.59375 
L 35.5 64.59375 
L 35.5 0 
L 25.59375 0 
L 25.59375 64.59375 
L -0.296875 64.59375 
z
" id="DejaVuSans-84"/>
      <path id="DejaVuSans-32"/>
      <path d="M 45.40625 27.984375 
Q 45.40625 37.75 41.375 43.109375 
Q 37.359375 48.484375 30.078125 48.484375 
Q 22.859375 48.484375 18.828125 43.109375 
Q 14.796875 37.75 14.796875 27.984375 
Q 14.796875 18.265625 18.828125 12.890625 
Q 22.859375 7.515625 30.078125 7.515625 
Q 37.359375 7.515625 41.375 12.890625 
Q 45.40625 18.265625 45.40625 27.984375 
z
M 54.390625 6.78125 
Q 54.390625 -7.171875 48.1875 -13.984375 
Q 42 -20.796875 29.203125 -20.796875 
Q 24.46875 -20.796875 20.265625 -20.09375 
Q 16.0625 -19.390625 12.109375 -17.921875 
L 12.109375 -9.1875 
Q 16.0625 -11.328125 19.921875 -12.34375 
Q 23.78125 -13.375 27.78125 -13.375 
Q 36.625 -13.375 41.015625 -8.765625 
Q 45.40625 -4.15625 45.40625 5.171875 
L 45.40625 9.625 
Q 42.625 4.78125 38.28125 2.390625 
Q 33.9375 0 27.875 0 
Q 17.828125 0 11.671875 7.65625 
Q 5.515625 15.328125 5.515625 27.984375 
Q 5.515625 40.671875 11.671875 48.328125 
Q 17.828125 56 27.875 56 
Q 33.9375 56 38.28125 53.609375 
Q 42.625 51.21875 45.40625 46.390625 
L 45.40625 54.6875 
L 54.390625 54.6875 
z
" id="DejaVuSans-103"/>
      <path d="M 8.5 21.578125 
L 8.5 54.6875 
L 17.484375 54.6875 
L 17.484375 21.921875 
Q 17.484375 14.15625 20.5 10.265625 
Q 23.53125 6.390625 29.59375 6.390625 
Q 36.859375 6.390625 41.078125 11.03125 
Q 45.3125 15.671875 45.3125 23.6875 
L 45.3125 54.6875 
L 54.296875 54.6875 
L 54.296875 0 
L 45.3125 0 
L 45.3125 8.40625 
Q 42.046875 3.421875 37.71875 1 
Q 33.40625 -1.421875 27.6875 -1.421875 
Q 18.265625 -1.421875 13.375 4.4375 
Q 8.5 10.296875 8.5 21.578125 
z
M 31.109375 56 
z
" id="DejaVuSans-117"/>
      <path d="M 2.984375 54.6875 
L 12.5 54.6875 
L 29.59375 8.796875 
L 46.6875 54.6875 
L 56.203125 54.6875 
L 35.6875 0 
L 23.484375 0 
z
" id="DejaVuSans-118"/>
      <path d="M 50.984375 -16.609375 
L 50.984375 -23.578125 
L -0.984375 -23.578125 
L -0.984375 -16.609375 
z
" id="DejaVuSans-95"/>
      <path d="M 45.40625 46.390625 
L 45.40625 75.984375 
L 54.390625 75.984375 
L 54.390625 0 
L 45.40625 0 
L 45.40625 8.203125 
Q 42.578125 3.328125 38.25 0.953125 
Q 33.9375 -1.421875 27.875 -1.421875 
Q 17.96875 -1.421875 11.734375 6.484375 
Q 5.515625 14.40625 5.515625 27.296875 
Q 5.515625 40.1875 11.734375 48.09375 
Q 17.96875 56 27.875 56 
Q 33.9375 56 38.25 53.625 
Q 42.578125 51.265625 45.40625 46.390625 
z
M 14.796875 27.296875 
Q 14.796875 17.390625 18.875 11.75 
Q 22.953125 6.109375 30.078125 6.109375 
Q 37.203125 6.109375 41.296875 11.75 
Q 45.40625 17.390625 45.40625 27.296875 
Q 45.40625 37.203125 41.296875 42.84375 
Q 37.203125 48.484375 30.078125 48.484375 
Q 22.953125 48.484375 18.875 42.84375 
Q 14.796875 37.203125 14.796875 27.296875 
z
" id="DejaVuSans-100"/>
      <path d="M 25.390625 72.90625 
L 33.6875 72.90625 
L 8.296875 -9.28125 
L 0 -9.28125 
z
" id="DejaVuSans-47"/>
     </defs>
     <use xlink:href="#DejaVuSans-84"/>
     <use x="61.083984" xlink:href="#DejaVuSans-104"/>
     <use x="124.462891" xlink:href="#DejaVuSans-101"/>
     <use x="185.986328" xlink:href="#DejaVuSans-32"/>
     <use x="217.773438" xlink:href="#DejaVuSans-108"/>
     <use x="245.556641" xlink:href="#DejaVuSans-101"/>
     <use x="307.080078" xlink:href="#DejaVuSans-97"/>
     <use x="368.359375" xlink:href="#DejaVuSans-114"/>
     <use x="407.722656" xlink:href="#DejaVuSans-110"/>
     <use x="471.101562" xlink:href="#DejaVuSans-105"/>
     <use x="498.884766" xlink:href="#DejaVuSans-110"/>
     <use x="562.263672" xlink:href="#DejaVuSans-103"/>
     <use x="625.740234" xlink:href="#DejaVuSans-32"/>
     <use x="657.527344" xlink:href="#DejaVuSans-99"/>
     <use x="712.507812" xlink:href="#DejaVuSans-117"/>
     <use x="775.886719" xlink:href="#DejaVuSans-114"/>
     <use x="817" xlink:href="#DejaVuSans-118"/>
     <use x="876.179688" xlink:href="#DejaVuSans-101"/>
     <use x="937.703125" xlink:href="#DejaVuSans-32"/>
     <use x="969.490234" xlink:href="#DejaVuSans-111"/>
     <use x="1030.671875" xlink:href="#DejaVuSans-110"/>
     <use x="1094.050781" xlink:href="#DejaVuSans-32"/>
     <use x="1125.837891" xlink:href="#DejaVuSans-56"/>
     <use x="1189.460938" xlink:href="#DejaVuSans-99"/>
     <use x="1244.441406" xlink:href="#DejaVuSans-108"/>
     <use x="1272.224609" xlink:href="#DejaVuSans-105"/>
     <use x="1300.007812" xlink:href="#DejaVuSans-101"/>
     <use x="1361.53125" xlink:href="#DejaVuSans-110"/>
     <use x="1424.910156" xlink:href="#DejaVuSans-116"/>
     <use x="1464.119141" xlink:href="#DejaVuSans-115"/>
     <use x="1516.21875" xlink:href="#DejaVuSans-95"/>
     <use x="1566.21875" xlink:href="#DejaVuSans-110"/>
     <use x="1629.597656" xlink:href="#DejaVuSans-111"/>
     <use x="1690.779297" xlink:href="#DejaVuSans-110"/>
     <use x="1754.158203" xlink:href="#DejaVuSans-95"/>
     <use x="1804.158203" xlink:href="#DejaVuSans-105"/>
     <use x="1831.941406" xlink:href="#DejaVuSans-105"/>
     <use x="1859.724609" xlink:href="#DejaVuSans-100"/>
     <use x="1923.201172" xlink:href="#DejaVuSans-95"/>
     <use x="1973.201172" xlink:href="#DejaVuSans-97"/>
     <use x="2034.480469" xlink:href="#DejaVuSans-103"/>
     <use x="2097.957031" xlink:href="#DejaVuSans-103"/>
     <use x="2161.433594" xlink:href="#DejaVuSans-47"/>
     <use x="2195.125" xlink:href="#DejaVuSans-104"/>
     <use x="2258.503906" xlink:href="#DejaVuSans-111"/>
     <use x="2319.685547" xlink:href="#DejaVuSans-115"/>
     <use x="2371.785156" xlink:href="#DejaVuSans-116"/>
     <use x="2410.994141" xlink:href="#DejaVuSans-47"/>
     <use x="2444.685547" xlink:href="#DejaVuSans-51"/>
    </g>
   </g>
   <g id="legend_2">
    <g id="patch_12">
     <path d="M 460.084375 74.518125 
L 511.4 74.518125 
Q 513.4 74.518125 513.4 72.518125 
L 513.4 58.84 
Q 513.4 56.84 511.4 56.84 
L 460.084375 56.84 
Q 458.084375 56.84 458.084375 58.84 
L 458.084375 72.518125 
Q 458.084375 74.518125 460.084375 74.518125 
z
" style="fill:#ffffff;opacity:0.8;stroke:#cccccc;stroke-linejoin:miter;"/>
    </g>
    <g id="line2d_26">
     <path d="M 462.084375 64.938438 
L 482.084375 64.938438 
" style="fill:none;stroke:#ff0000;stroke-linecap:square;stroke-width:1.5;"/>
    </g>
    <g id="line2d_27"/>
    <g id="text_25">
     <!-- loss -->
     <g transform="translate(490.084375 68.438438)scale(0.1 -0.1)">
      <use xlink:href="#DejaVuSans-108"/>
      <use x="27.783203" xlink:href="#DejaVuSans-111"/>
      <use x="88.964844" xlink:href="#DejaVuSans-115"/>
      <use x="141.064453" xlink:href="#DejaVuSans-115"/>
     </g>
    </g>
   </g>
  </g>
 </g>
 <defs>
  <clipPath id="pf137970ca4">
   <rect height="332.64" width="446.4" x="72" y="51.84"/>
  </clipPath>
 </defs>
</svg>
