<?xml version="1.0" encoding="utf-8" standalone="no"?>
<!DOCTYPE svg PUBLIC "-//W3C//DTD SVG 1.1//EN"
  "http://www.w3.org/Graphics/SVG/1.1/DTD/svg11.dtd">
<!-- Created with matplotlib (https://matplotlib.org/) -->
<svg height="432pt" version="1.1" viewBox="0 0 576 432" width="576pt" xmlns="http://www.w3.org/2000/svg" xmlns:xlink="http://www.w3.org/1999/xlink">
 <metadata>
  <rdf:RDF xmlns:cc="http://creativecommons.org/ns#" xmlns:dc="http://purl.org/dc/elements/1.1/" xmlns:rdf="http://www.w3.org/1999/02/22-rdf-syntax-ns#">
   <cc:Work>
    <dc:type rdf:resource="http://purl.org/dc/dcmitype/StillImage"/>
    <dc:date>2023-03-29T12:28:09.389886</dc:date>
    <dc:format>image/svg+xml</dc:format>
    <dc:creator>
     <cc:Agent>
      <dc:title>Matplotlib v3.3.4, https://matplotlib.org/</dc:title>
     </cc:Agent>
    </dc:creator>
   </cc:Work>
  </rdf:RDF>
 </metadata>
 <defs>
  <style type="text/css">*{stroke-linecap:butt;stroke-linejoin:round;}</style>
 </defs>
 <g id="figure_1">
  <g id="patch_1">
   <path d="M 0 432 
L 576 432 
L 576 0 
L 0 0 
z
" style="fill:#ffffff;"/>
  </g>
  <g id="axes_1">
   <g id="patch_2">
    <path d="M 72 384.48 
L 518.4 384.48 
L 518.4 51.84 
L 72 51.84 
z
" style="fill:#ffffff;"/>
   </g>
   <g id="matplotlib.axis_1">
    <g id="xtick_1">
     <g id="line2d_1">
      <defs>
       <path d="M 0 0 
L 0 3.5 
" id="me8f0a7f094" style="stroke:#000000;stroke-width:0.8;"/>
      </defs>
      <g>
       <use style="stroke:#000000;stroke-width:0.8;" x="92.290909" xlink:href="#me8f0a7f094" y="384.48"/>
      </g>
     </g>
     <g id="text_1">
      <!-- 0 -->
      <g transform="translate(89.109659 399.078438)scale(0.1 -0.1)">
       <defs>
        <path d="M 31.78125 66.40625 
Q 24.171875 66.40625 20.328125 58.90625 
Q 16.5 51.421875 16.5 36.375 
Q 16.5 21.390625 20.328125 13.890625 
Q 24.171875 6.390625 31.78125 6.390625 
Q 39.453125 6.390625 43.28125 13.890625 
Q 47.125 21.390625 47.125 36.375 
Q 47.125 51.421875 43.28125 58.90625 
Q 39.453125 66.40625 31.78125 66.40625 
z
M 31.78125 74.21875 
Q 44.046875 74.21875 50.515625 64.515625 
Q 56.984375 54.828125 56.984375 36.375 
Q 56.984375 17.96875 50.515625 8.265625 
Q 44.046875 -1.421875 31.78125 -1.421875 
Q 19.53125 -1.421875 13.0625 8.265625 
Q 6.59375 17.96875 6.59375 36.375 
Q 6.59375 54.828125 13.0625 64.515625 
Q 19.53125 74.21875 31.78125 74.21875 
z
" id="DejaVuSans-48"/>
       </defs>
       <use xlink:href="#DejaVuSans-48"/>
      </g>
     </g>
    </g>
    <g id="xtick_2">
     <g id="line2d_2">
      <g>
       <use style="stroke:#000000;stroke-width:0.8;" x="173.53579" xlink:href="#me8f0a7f094" y="384.48"/>
      </g>
     </g>
     <g id="text_2">
      <!-- 200 -->
      <g transform="translate(163.99204 399.078438)scale(0.1 -0.1)">
       <defs>
        <path d="M 19.1875 8.296875 
L 53.609375 8.296875 
L 53.609375 0 
L 7.328125 0 
L 7.328125 8.296875 
Q 12.9375 14.109375 22.625 23.890625 
Q 32.328125 33.6875 34.8125 36.53125 
Q 39.546875 41.84375 41.421875 45.53125 
Q 43.3125 49.21875 43.3125 52.78125 
Q 43.3125 58.59375 39.234375 62.25 
Q 35.15625 65.921875 28.609375 65.921875 
Q 23.96875 65.921875 18.8125 64.3125 
Q 13.671875 62.703125 7.8125 59.421875 
L 7.8125 69.390625 
Q 13.765625 71.78125 18.9375 73 
Q 24.125 74.21875 28.421875 74.21875 
Q 39.75 74.21875 46.484375 68.546875 
Q 53.21875 62.890625 53.21875 53.421875 
Q 53.21875 48.921875 51.53125 44.890625 
Q 49.859375 40.875 45.40625 35.40625 
Q 44.1875 33.984375 37.640625 27.21875 
Q 31.109375 20.453125 19.1875 8.296875 
z
" id="DejaVuSans-50"/>
       </defs>
       <use xlink:href="#DejaVuSans-50"/>
       <use x="63.623047" xlink:href="#DejaVuSans-48"/>
       <use x="127.246094" xlink:href="#DejaVuSans-48"/>
      </g>
     </g>
    </g>
    <g id="xtick_3">
     <g id="line2d_3">
      <g>
       <use style="stroke:#000000;stroke-width:0.8;" x="254.780672" xlink:href="#me8f0a7f094" y="384.48"/>
      </g>
     </g>
     <g id="text_3">
      <!-- 400 -->
      <g transform="translate(245.236922 399.078438)scale(0.1 -0.1)">
       <defs>
        <path d="M 37.796875 64.3125 
L 12.890625 25.390625 
L 37.796875 25.390625 
z
M 35.203125 72.90625 
L 47.609375 72.90625 
L 47.609375 25.390625 
L 58.015625 25.390625 
L 58.015625 17.1875 
L 47.609375 17.1875 
L 47.609375 0 
L 37.796875 0 
L 37.796875 17.1875 
L 4.890625 17.1875 
L 4.890625 26.703125 
z
" id="DejaVuSans-52"/>
       </defs>
       <use xlink:href="#DejaVuSans-52"/>
       <use x="63.623047" xlink:href="#DejaVuSans-48"/>
       <use x="127.246094" xlink:href="#DejaVuSans-48"/>
      </g>
     </g>
    </g>
    <g id="xtick_4">
     <g id="line2d_4">
      <g>
       <use style="stroke:#000000;stroke-width:0.8;" x="336.025553" xlink:href="#me8f0a7f094" y="384.48"/>
      </g>
     </g>
     <g id="text_4">
      <!-- 600 -->
      <g transform="translate(326.481803 399.078438)scale(0.1 -0.1)">
       <defs>
        <path d="M 33.015625 40.375 
Q 26.375 40.375 22.484375 35.828125 
Q 18.609375 31.296875 18.609375 23.390625 
Q 18.609375 15.53125 22.484375 10.953125 
Q 26.375 6.390625 33.015625 6.390625 
Q 39.65625 6.390625 43.53125 10.953125 
Q 47.40625 15.53125 47.40625 23.390625 
Q 47.40625 31.296875 43.53125 35.828125 
Q 39.65625 40.375 33.015625 40.375 
z
M 52.59375 71.296875 
L 52.59375 62.3125 
Q 48.875 64.0625 45.09375 64.984375 
Q 41.3125 65.921875 37.59375 65.921875 
Q 27.828125 65.921875 22.671875 59.328125 
Q 17.53125 52.734375 16.796875 39.40625 
Q 19.671875 43.65625 24.015625 45.921875 
Q 28.375 48.1875 33.59375 48.1875 
Q 44.578125 48.1875 50.953125 41.515625 
Q 57.328125 34.859375 57.328125 23.390625 
Q 57.328125 12.15625 50.6875 5.359375 
Q 44.046875 -1.421875 33.015625 -1.421875 
Q 20.359375 -1.421875 13.671875 8.265625 
Q 6.984375 17.96875 6.984375 36.375 
Q 6.984375 53.65625 15.1875 63.9375 
Q 23.390625 74.21875 37.203125 74.21875 
Q 40.921875 74.21875 44.703125 73.484375 
Q 48.484375 72.75 52.59375 71.296875 
z
" id="DejaVuSans-54"/>
       </defs>
       <use xlink:href="#DejaVuSans-54"/>
       <use x="63.623047" xlink:href="#DejaVuSans-48"/>
       <use x="127.246094" xlink:href="#DejaVuSans-48"/>
      </g>
     </g>
    </g>
    <g id="xtick_5">
     <g id="line2d_5">
      <g>
       <use style="stroke:#000000;stroke-width:0.8;" x="417.270434" xlink:href="#me8f0a7f094" y="384.48"/>
      </g>
     </g>
     <g id="text_5">
      <!-- 800 -->
      <g transform="translate(407.726684 399.078438)scale(0.1 -0.1)">
       <defs>
        <path d="M 31.78125 34.625 
Q 24.75 34.625 20.71875 30.859375 
Q 16.703125 27.09375 16.703125 20.515625 
Q 16.703125 13.921875 20.71875 10.15625 
Q 24.75 6.390625 31.78125 6.390625 
Q 38.8125 6.390625 42.859375 10.171875 
Q 46.921875 13.96875 46.921875 20.515625 
Q 46.921875 27.09375 42.890625 30.859375 
Q 38.875 34.625 31.78125 34.625 
z
M 21.921875 38.8125 
Q 15.578125 40.375 12.03125 44.71875 
Q 8.5 49.078125 8.5 55.328125 
Q 8.5 64.0625 14.71875 69.140625 
Q 20.953125 74.21875 31.78125 74.21875 
Q 42.671875 74.21875 48.875 69.140625 
Q 55.078125 64.0625 55.078125 55.328125 
Q 55.078125 49.078125 51.53125 44.71875 
Q 48 40.375 41.703125 38.8125 
Q 48.828125 37.15625 52.796875 32.3125 
Q 56.78125 27.484375 56.78125 20.515625 
Q 56.78125 9.90625 50.3125 4.234375 
Q 43.84375 -1.421875 31.78125 -1.421875 
Q 19.734375 -1.421875 13.25 4.234375 
Q 6.78125 9.90625 6.78125 20.515625 
Q 6.78125 27.484375 10.78125 32.3125 
Q 14.796875 37.15625 21.921875 38.8125 
z
M 18.3125 54.390625 
Q 18.3125 48.734375 21.84375 45.5625 
Q 25.390625 42.390625 31.78125 42.390625 
Q 38.140625 42.390625 41.71875 45.5625 
Q 45.3125 48.734375 45.3125 54.390625 
Q 45.3125 60.0625 41.71875 63.234375 
Q 38.140625 66.40625 31.78125 66.40625 
Q 25.390625 66.40625 21.84375 63.234375 
Q 18.3125 60.0625 18.3125 54.390625 
z
" id="DejaVuSans-56"/>
       </defs>
       <use xlink:href="#DejaVuSans-56"/>
       <use x="63.623047" xlink:href="#DejaVuSans-48"/>
       <use x="127.246094" xlink:href="#DejaVuSans-48"/>
      </g>
     </g>
    </g>
    <g id="xtick_6">
     <g id="line2d_6">
      <g>
       <use style="stroke:#000000;stroke-width:0.8;" x="498.515315" xlink:href="#me8f0a7f094" y="384.48"/>
      </g>
     </g>
     <g id="text_6">
      <!-- 1000 -->
      <g transform="translate(485.790315 399.078438)scale(0.1 -0.1)">
       <defs>
        <path d="M 12.40625 8.296875 
L 28.515625 8.296875 
L 28.515625 63.921875 
L 10.984375 60.40625 
L 10.984375 69.390625 
L 28.421875 72.90625 
L 38.28125 72.90625 
L 38.28125 8.296875 
L 54.390625 8.296875 
L 54.390625 0 
L 12.40625 0 
z
" id="DejaVuSans-49"/>
       </defs>
       <use xlink:href="#DejaVuSans-49"/>
       <use x="63.623047" xlink:href="#DejaVuSans-48"/>
       <use x="127.246094" xlink:href="#DejaVuSans-48"/>
       <use x="190.869141" xlink:href="#DejaVuSans-48"/>
      </g>
     </g>
    </g>
    <g id="text_7">
     <!-- epoch -->
     <g transform="translate(279.971875 412.756563)scale(0.1 -0.1)">
      <defs>
       <path d="M 56.203125 29.59375 
L 56.203125 25.203125 
L 14.890625 25.203125 
Q 15.484375 15.921875 20.484375 11.0625 
Q 25.484375 6.203125 34.421875 6.203125 
Q 39.59375 6.203125 44.453125 7.46875 
Q 49.3125 8.734375 54.109375 11.28125 
L 54.109375 2.78125 
Q 49.265625 0.734375 44.1875 -0.34375 
Q 39.109375 -1.421875 33.890625 -1.421875 
Q 20.796875 -1.421875 13.15625 6.1875 
Q 5.515625 13.8125 5.515625 26.8125 
Q 5.515625 40.234375 12.765625 48.109375 
Q 20.015625 56 32.328125 56 
Q 43.359375 56 49.78125 48.890625 
Q 56.203125 41.796875 56.203125 29.59375 
z
M 47.21875 32.234375 
Q 47.125 39.59375 43.09375 43.984375 
Q 39.0625 48.390625 32.421875 48.390625 
Q 24.90625 48.390625 20.390625 44.140625 
Q 15.875 39.890625 15.1875 32.171875 
z
" id="DejaVuSans-101"/>
       <path d="M 18.109375 8.203125 
L 18.109375 -20.796875 
L 9.078125 -20.796875 
L 9.078125 54.6875 
L 18.109375 54.6875 
L 18.109375 46.390625 
Q 20.953125 51.265625 25.265625 53.625 
Q 29.59375 56 35.59375 56 
Q 45.5625 56 51.78125 48.09375 
Q 58.015625 40.1875 58.015625 27.296875 
Q 58.015625 14.40625 51.78125 6.484375 
Q 45.5625 -1.421875 35.59375 -1.421875 
Q 29.59375 -1.421875 25.265625 0.953125 
Q 20.953125 3.328125 18.109375 8.203125 
z
M 48.6875 27.296875 
Q 48.6875 37.203125 44.609375 42.84375 
Q 40.53125 48.484375 33.40625 48.484375 
Q 26.265625 48.484375 22.1875 42.84375 
Q 18.109375 37.203125 18.109375 27.296875 
Q 18.109375 17.390625 22.1875 11.75 
Q 26.265625 6.109375 33.40625 6.109375 
Q 40.53125 6.109375 44.609375 11.75 
Q 48.6875 17.390625 48.6875 27.296875 
z
" id="DejaVuSans-112"/>
       <path d="M 30.609375 48.390625 
Q 23.390625 48.390625 19.1875 42.75 
Q 14.984375 37.109375 14.984375 27.296875 
Q 14.984375 17.484375 19.15625 11.84375 
Q 23.34375 6.203125 30.609375 6.203125 
Q 37.796875 6.203125 41.984375 11.859375 
Q 46.1875 17.53125 46.1875 27.296875 
Q 46.1875 37.015625 41.984375 42.703125 
Q 37.796875 48.390625 30.609375 48.390625 
z
M 30.609375 56 
Q 42.328125 56 49.015625 48.375 
Q 55.71875 40.765625 55.71875 27.296875 
Q 55.71875 13.875 49.015625 6.21875 
Q 42.328125 -1.421875 30.609375 -1.421875 
Q 18.84375 -1.421875 12.171875 6.21875 
Q 5.515625 13.875 5.515625 27.296875 
Q 5.515625 40.765625 12.171875 48.375 
Q 18.84375 56 30.609375 56 
z
" id="DejaVuSans-111"/>
       <path d="M 48.78125 52.59375 
L 48.78125 44.1875 
Q 44.96875 46.296875 41.140625 47.34375 
Q 37.3125 48.390625 33.40625 48.390625 
Q 24.65625 48.390625 19.8125 42.84375 
Q 14.984375 37.3125 14.984375 27.296875 
Q 14.984375 17.28125 19.8125 11.734375 
Q 24.65625 6.203125 33.40625 6.203125 
Q 37.3125 6.203125 41.140625 7.25 
Q 44.96875 8.296875 48.78125 10.40625 
L 48.78125 2.09375 
Q 45.015625 0.34375 40.984375 -0.53125 
Q 36.96875 -1.421875 32.421875 -1.421875 
Q 20.0625 -1.421875 12.78125 6.34375 
Q 5.515625 14.109375 5.515625 27.296875 
Q 5.515625 40.671875 12.859375 48.328125 
Q 20.21875 56 33.015625 56 
Q 37.15625 56 41.109375 55.140625 
Q 45.0625 54.296875 48.78125 52.59375 
z
" id="DejaVuSans-99"/>
       <path d="M 54.890625 33.015625 
L 54.890625 0 
L 45.90625 0 
L 45.90625 32.71875 
Q 45.90625 40.484375 42.875 44.328125 
Q 39.84375 48.1875 33.796875 48.1875 
Q 26.515625 48.1875 22.3125 43.546875 
Q 18.109375 38.921875 18.109375 30.90625 
L 18.109375 0 
L 9.078125 0 
L 9.078125 75.984375 
L 18.109375 75.984375 
L 18.109375 46.1875 
Q 21.34375 51.125 25.703125 53.5625 
Q 30.078125 56 35.796875 56 
Q 45.21875 56 50.046875 50.171875 
Q 54.890625 44.34375 54.890625 33.015625 
z
" id="DejaVuSans-104"/>
      </defs>
      <use xlink:href="#DejaVuSans-101"/>
      <use x="61.523438" xlink:href="#DejaVuSans-112"/>
      <use x="125" xlink:href="#DejaVuSans-111"/>
      <use x="186.181641" xlink:href="#DejaVuSans-99"/>
      <use x="241.162109" xlink:href="#DejaVuSans-104"/>
     </g>
    </g>
   </g>
   <g id="matplotlib.axis_2">
    <g id="ytick_1">
     <g id="line2d_7">
      <defs>
       <path d="M 0 0 
L -3.5 0 
" id="macd371b788" style="stroke:#000000;stroke-width:0.8;"/>
      </defs>
      <g>
       <use style="stroke:#000000;stroke-width:0.8;" x="72" xlink:href="#macd371b788" y="384.48"/>
      </g>
     </g>
     <g id="text_8">
      <!-- 0.0 -->
      <g transform="translate(49.096875 388.279219)scale(0.1 -0.1)">
       <defs>
        <path d="M 10.6875 12.40625 
L 21 12.40625 
L 21 0 
L 10.6875 0 
z
" id="DejaVuSans-46"/>
       </defs>
       <use xlink:href="#DejaVuSans-48"/>
       <use x="63.623047" xlink:href="#DejaVuSans-46"/>
       <use x="95.410156" xlink:href="#DejaVuSans-48"/>
      </g>
     </g>
    </g>
    <g id="ytick_2">
     <g id="line2d_8">
      <g>
       <use style="stroke:#000000;stroke-width:0.8;" x="72" xlink:href="#macd371b788" y="317.952"/>
      </g>
     </g>
     <g id="text_9">
      <!-- 0.2 -->
      <g transform="translate(49.096875 321.751219)scale(0.1 -0.1)">
       <use xlink:href="#DejaVuSans-48"/>
       <use x="63.623047" xlink:href="#DejaVuSans-46"/>
       <use x="95.410156" xlink:href="#DejaVuSans-50"/>
      </g>
     </g>
    </g>
    <g id="ytick_3">
     <g id="line2d_9">
      <g>
       <use style="stroke:#000000;stroke-width:0.8;" x="72" xlink:href="#macd371b788" y="251.424"/>
      </g>
     </g>
     <g id="text_10">
      <!-- 0.4 -->
      <g transform="translate(49.096875 255.223219)scale(0.1 -0.1)">
       <use xlink:href="#DejaVuSans-48"/>
       <use x="63.623047" xlink:href="#DejaVuSans-46"/>
       <use x="95.410156" xlink:href="#DejaVuSans-52"/>
      </g>
     </g>
    </g>
    <g id="ytick_4">
     <g id="line2d_10">
      <g>
       <use style="stroke:#000000;stroke-width:0.8;" x="72" xlink:href="#macd371b788" y="184.896"/>
      </g>
     </g>
     <g id="text_11">
      <!-- 0.6 -->
      <g transform="translate(49.096875 188.695219)scale(0.1 -0.1)">
       <use xlink:href="#DejaVuSans-48"/>
       <use x="63.623047" xlink:href="#DejaVuSans-46"/>
       <use x="95.410156" xlink:href="#DejaVuSans-54"/>
      </g>
     </g>
    </g>
    <g id="ytick_5">
     <g id="line2d_11">
      <g>
       <use style="stroke:#000000;stroke-width:0.8;" x="72" xlink:href="#macd371b788" y="118.368"/>
      </g>
     </g>
     <g id="text_12">
      <!-- 0.8 -->
      <g transform="translate(49.096875 122.167219)scale(0.1 -0.1)">
       <use xlink:href="#DejaVuSans-48"/>
       <use x="63.623047" xlink:href="#DejaVuSans-46"/>
       <use x="95.410156" xlink:href="#DejaVuSans-56"/>
      </g>
     </g>
    </g>
    <g id="ytick_6">
     <g id="line2d_12">
      <g>
       <use style="stroke:#000000;stroke-width:0.8;" x="72" xlink:href="#macd371b788" y="51.84"/>
      </g>
     </g>
     <g id="text_13">
      <!-- 1.0 -->
      <g transform="translate(49.096875 55.639219)scale(0.1 -0.1)">
       <use xlink:href="#DejaVuSans-49"/>
       <use x="63.623047" xlink:href="#DejaVuSans-46"/>
       <use x="95.410156" xlink:href="#DejaVuSans-48"/>
      </g>
     </g>
    </g>
    <g id="text_14">
     <!-- rate -->
     <g transform="translate(43.017187 228.31625)rotate(-90)scale(0.1 -0.1)">
      <defs>
       <path d="M 41.109375 46.296875 
Q 39.59375 47.171875 37.8125 47.578125 
Q 36.03125 48 33.890625 48 
Q 26.265625 48 22.1875 43.046875 
Q 18.109375 38.09375 18.109375 28.8125 
L 18.109375 0 
L 9.078125 0 
L 9.078125 54.6875 
L 18.109375 54.6875 
L 18.109375 46.1875 
Q 20.953125 51.171875 25.484375 53.578125 
Q 30.03125 56 36.53125 56 
Q 37.453125 56 38.578125 55.875 
Q 39.703125 55.765625 41.0625 55.515625 
z
" id="DejaVuSans-114"/>
       <path d="M 34.28125 27.484375 
Q 23.390625 27.484375 19.1875 25 
Q 14.984375 22.515625 14.984375 16.5 
Q 14.984375 11.71875 18.140625 8.90625 
Q 21.296875 6.109375 26.703125 6.109375 
Q 34.1875 6.109375 38.703125 11.40625 
Q 43.21875 16.703125 43.21875 25.484375 
L 43.21875 27.484375 
z
M 52.203125 31.203125 
L 52.203125 0 
L 43.21875 0 
L 43.21875 8.296875 
Q 40.140625 3.328125 35.546875 0.953125 
Q 30.953125 -1.421875 24.3125 -1.421875 
Q 15.921875 -1.421875 10.953125 3.296875 
Q 6 8.015625 6 15.921875 
Q 6 25.140625 12.171875 29.828125 
Q 18.359375 34.515625 30.609375 34.515625 
L 43.21875 34.515625 
L 43.21875 35.40625 
Q 43.21875 41.609375 39.140625 45 
Q 35.0625 48.390625 27.6875 48.390625 
Q 23 48.390625 18.546875 47.265625 
Q 14.109375 46.140625 10.015625 43.890625 
L 10.015625 52.203125 
Q 14.9375 54.109375 19.578125 55.046875 
Q 24.21875 56 28.609375 56 
Q 40.484375 56 46.34375 49.84375 
Q 52.203125 43.703125 52.203125 31.203125 
z
" id="DejaVuSans-97"/>
       <path d="M 18.3125 70.21875 
L 18.3125 54.6875 
L 36.8125 54.6875 
L 36.8125 47.703125 
L 18.3125 47.703125 
L 18.3125 18.015625 
Q 18.3125 11.328125 20.140625 9.421875 
Q 21.96875 7.515625 27.59375 7.515625 
L 36.8125 7.515625 
L 36.8125 0 
L 27.59375 0 
Q 17.1875 0 13.234375 3.875 
Q 9.28125 7.765625 9.28125 18.015625 
L 9.28125 47.703125 
L 2.6875 47.703125 
L 2.6875 54.6875 
L 9.28125 54.6875 
L 9.28125 70.21875 
z
" id="DejaVuSans-116"/>
      </defs>
      <use xlink:href="#DejaVuSans-114"/>
      <use x="41.113281" xlink:href="#DejaVuSans-97"/>
      <use x="102.392578" xlink:href="#DejaVuSans-116"/>
      <use x="141.601562" xlink:href="#DejaVuSans-101"/>
     </g>
    </g>
   </g>
   <g id="line2d_13">
    <path clip-path="url(#p640299aa7a)" d="M 92.290909 260.181814 
L 92.697133 136.527721 
L 93.509582 126.228434 
L 93.915807 140.160281 
L 94.322031 318.242818 
L 94.728256 136.128622 
L 95.13448 138.704087 
L 95.540704 278.122395 
L 95.946929 175.470009 
L 96.353153 343.212851 
L 96.759378 337.430758 
L 97.165602 320.022486 
L 97.571826 282.207061 
L 97.978051 281.495119 
L 98.384275 234.066517 
L 98.7905 233.961268 
L 99.196724 280.665446 
L 99.602948 297.700075 
L 100.009173 249.422356 
L 100.415397 186.548278 
L 100.821622 316.852999 
L 101.227846 220.318493 
L 101.63407 228.158405 
L 102.040295 221.54009 
L 102.446519 315.306472 
L 102.852744 233.954769 
L 103.258968 234.448534 
L 103.665192 291.781681 
L 104.071417 315.089256 
L 104.477641 351.341925 
L 104.883866 353.749732 
L 105.29009 353.024842 
L 105.696314 301.522072 
L 106.102539 299.754451 
L 106.508763 239.768361 
L 106.914988 238.258377 
L 107.321212 243.845135 
L 107.727437 323.570664 
L 108.133661 203.818817 
L 108.539885 340.113459 
L 109.352334 300.415172 
L 110.164783 334.446943 
L 110.571007 320.458061 
L 110.977232 336.396225 
L 111.383456 341.766469 
L 111.789681 359.746993 
L 112.195905 329.482596 
L 112.602129 278.371472 
L 113.008354 355.290956 
L 113.414578 351.94878 
L 113.820803 313.747822 
L 114.227027 325.804617 
L 114.633251 281.547416 
L 115.039476 294.733477 
L 115.4457 341.470791 
L 116.258149 320.671565 
L 116.664373 345.212599 
L 117.070598 340.054972 
L 117.476822 345.732639 
L 117.883047 346.505992 
L 118.289271 344.596025 
L 118.695495 351.753669 
L 119.507944 349.50374 
L 119.914169 327.8947 
L 120.320393 232.329228 
L 121.132842 349.638284 
L 121.539066 302.708716 
L 121.945291 280.916403 
L 122.351515 267.118086 
L 122.75774 278.349828 
L 123.163964 224.140912 
L 123.570188 272.745233 
L 123.976413 263.627007 
L 124.382637 330.746849 
L 124.788862 323.269817 
L 125.195086 348.266694 
L 125.60131 311.057431 
L 126.007535 314.532295 
L 126.413759 232.281186 
L 126.819984 221.803933 
L 127.226208 285.569322 
L 127.632432 279.675248 
L 128.038657 232.477293 
L 128.444881 232.875126 
L 128.851106 272.634407 
L 129.25733 232.565984 
L 129.663554 225.765992 
L 130.069779 326.003765 
L 130.476003 329.455742 
L 130.882228 214.169866 
L 131.288452 222.347404 
L 131.694676 324.964399 
L 132.100901 175.320768 
L 132.507125 223.670617 
L 132.91335 342.908503 
L 133.319574 301.420359 
L 133.725799 362.171187 
L 134.132023 320.468457 
L 134.538247 340.546273 
L 134.944472 316.166308 
L 135.350696 349.552394 
L 135.756921 346.0179 
L 136.163145 347.323346 
L 136.569369 347.790116 
L 136.975594 315.539513 
L 137.381818 296.943825 
L 137.788043 312.511743 
L 138.194267 350.843038 
L 138.600491 327.776777 
L 139.006716 315.307823 
L 139.41294 333.681689 
L 139.819165 338.94248 
L 140.225389 286.292564 
L 140.631613 346.631721 
L 141.037838 317.932205 
L 141.444062 345.944567 
L 142.256511 278.798601 
L 142.662735 323.901963 
L 143.06896 323.98572 
L 143.475184 343.26645 
L 143.881409 346.568775 
L 144.287633 290.23703 
L 144.693857 318.98014 
L 145.100082 301.191585 
L 145.506306 334.276877 
L 145.912531 353.496804 
L 146.318755 352.77428 
L 146.72498 353.124185 
L 147.131204 341.671239 
L 147.537428 310.883703 
L 147.943653 236.237701 
L 148.349877 273.975673 
L 148.756102 281.453424 
L 149.162326 250.210833 
L 149.56855 252.056646 
L 149.974775 322.168529 
L 150.380999 357.59589 
L 150.787224 347.277607 
L 151.193448 347.801212 
L 151.599672 329.717434 
L 152.005897 212.251179 
L 152.412121 212.322742 
L 152.818346 311.499756 
L 153.22457 275.074063 
L 153.630794 326.546511 
L 154.443243 301.463031 
L 154.849468 290.957214 
L 155.255692 342.226465 
L 155.661916 306.037111 
L 156.068141 364.330178 
L 156.474365 354.738285 
L 156.88059 355.837378 
L 157.286814 301.252375 
L 157.693038 309.586029 
L 158.099263 358.027091 
L 158.505487 354.761238 
L 158.911712 355.055485 
L 159.317936 323.448116 
L 159.724161 231.970176 
L 160.130385 233.948686 
L 160.942834 335.9921 
L 161.349058 342.086099 
L 161.755283 329.116246 
L 162.161507 328.162148 
L 162.567731 316.681761 
L 162.973956 314.124659 
L 163.38018 344.809593 
L 163.786405 345.145208 
L 164.192629 231.473741 
L 164.598853 207.257623 
L 165.005078 323.591499 
L 165.411302 203.288194 
L 165.817527 320.872805 
L 166.223751 283.305226 
L 166.629975 269.791972 
L 167.0362 333.87901 
L 167.442424 348.086728 
L 168.254873 363.465522 
L 168.661097 339.541585 
L 169.067322 331.337554 
L 169.473546 249.077239 
L 169.879771 309.777634 
L 170.285995 293.4621 
L 170.692219 328.369797 
L 171.098444 329.36583 
L 171.504668 279.622335 
L 171.910893 317.291662 
L 172.317117 369.994399 
L 172.723342 304.153903 
L 173.53579 361.569101 
L 173.942015 248.223959 
L 174.348239 356.285466 
L 174.754464 316.587227 
L 175.160688 368.839362 
L 175.566912 310.731122 
L 175.973137 305.560073 
L 176.379361 310.646089 
L 176.785586 272.503837 
L 177.19181 279.145389 
L 177.598034 180.121165 
L 178.004259 320.926126 
L 178.410483 233.557549 
L 178.816708 348.315219 
L 179.222932 325.849941 
L 179.629156 339.639335 
L 180.441605 278.248234 
L 180.84783 226.73705 
L 181.254054 231.561544 
L 181.660278 344.882648 
L 182.066503 353.637303 
L 182.472727 306.273019 
L 182.878952 337.059082 
L 183.285176 346.371989 
L 184.097625 311.983834 
L 184.503849 317.632723 
L 184.910074 336.636128 
L 185.316298 303.216557 
L 185.722523 310.998831 
L 186.128747 266.408593 
L 186.534971 336.144617 
L 186.941196 356.647248 
L 187.34742 352.695796 
L 187.753645 338.813537 
L 188.159869 355.993037 
L 188.566093 340.590492 
L 188.972318 331.261302 
L 189.378542 318.847259 
L 189.784767 335.882354 
L 190.190991 326.239677 
L 190.597215 327.152485 
L 191.00344 329.689627 
L 191.409664 325.827685 
L 191.815889 320.233084 
L 192.222113 323.088932 
L 192.628337 345.441295 
L 193.034562 313.290246 
L 193.440786 323.790091 
L 193.847011 321.88626 
L 194.253235 301.231096 
L 194.659459 349.365549 
L 195.065684 346.850285 
L 195.471908 296.262551 
L 195.878133 274.064386 
L 196.690581 335.00047 
L 197.096806 322.313432 
L 197.50303 347.964118 
L 197.909255 348.03459 
L 198.315479 351.15696 
L 198.721704 346.834139 
L 199.127928 345.313445 
L 199.534152 350.023413 
L 200.752826 329.213322 
L 201.15905 274.146581 
L 201.565274 281.453424 
L 201.971499 276.449841 
L 202.377723 290.399812 
L 202.783948 322.630894 
L 203.190172 342.609966 
L 203.596396 353.611844 
L 204.002621 352.726647 
L 204.408845 346.637547 
L 204.81507 286.513213 
L 205.221294 296.720549 
L 205.627518 241.505605 
L 206.033743 337.85762 
L 206.439967 324.404227 
L 206.846192 243.503013 
L 207.252416 355.990622 
L 207.65864 303.666797 
L 208.064865 336.07051 
L 208.471089 331.927241 
L 208.877314 237.175577 
L 209.283538 251.822834 
L 209.689762 301.253577 
L 210.095987 332.274656 
L 210.502211 375.233175 
L 210.908436 360.787396 
L 211.31466 361.198868 
L 211.720885 360.215327 
L 212.127109 373.533975 
L 212.533333 358.774165 
L 212.939558 359.256268 
L 213.345782 372.623653 
L 214.158231 346.169176 
L 214.564455 353.78798 
L 214.97068 355.657935 
L 215.783129 367.723555 
L 216.189353 300.334633 
L 216.595577 324.078886 
L 217.001802 340.027745 
L 217.408026 351.231526 
L 217.814251 330.499341 
L 218.220475 275.965556 
L 218.626699 182.220058 
L 219.032924 282.207061 
L 219.439148 281.239533 
L 220.251597 180.775134 
L 220.657821 327.477926 
L 221.064046 228.852734 
L 221.876495 335.145105 
L 222.688943 357.014163 
L 223.095168 332.313234 
L 223.501392 337.167027 
L 223.907617 292.542146 
L 224.313841 322.583274 
L 224.720066 280.274053 
L 225.12629 324.313593 
L 225.532514 297.345327 
L 225.938739 293.400736 
L 226.344963 291.076505 
L 226.751188 308.514049 
L 227.157412 302.780559 
L 227.563636 321.515719 
L 227.969861 306.152723 
L 228.376085 254.596851 
L 228.78231 225.847619 
L 229.188534 352.865167 
L 229.594758 229.007188 
L 230.000983 307.988594 
L 230.407207 349.686241 
L 230.813432 346.67071 
L 231.219656 348.296169 
L 231.62588 348.466174 
L 232.032105 347.417909 
L 232.438329 349.31126 
L 233.250778 349.494882 
L 233.657002 333.128415 
L 234.063227 279.6299 
L 234.875676 359.438241 
L 235.2819 312.595745 
L 235.688124 309.719044 
L 236.094349 313.126283 
L 236.500573 323.336745 
L 236.906798 288.185482 
L 237.313022 228.834815 
L 237.719247 309.314752 
L 238.531695 329.591355 
L 238.93792 318.317407 
L 239.344144 349.32705 
L 239.750369 342.304779 
L 240.156593 344.673253 
L 240.562817 339.489166 
L 240.969042 339.020171 
L 241.375266 346.165877 
L 241.781491 343.880936 
L 242.187715 319.924078 
L 242.593939 315.830084 
L 243.000164 315.963505 
L 243.406388 336.810925 
L 244.218837 275.526983 
L 244.625061 345.738131 
L 245.031286 354.19157 
L 245.43751 303.196478 
L 245.843735 273.976543 
L 246.249959 280.825005 
L 246.656183 309.282394 
L 247.062408 232.459001 
L 247.468632 233.000307 
L 247.874857 333.462051 
L 248.281081 351.407463 
L 248.687305 350.057151 
L 249.09353 349.386315 
L 249.499754 313.608616 
L 249.905979 311.303825 
L 250.312203 314.971351 
L 250.718428 339.920994 
L 251.124652 347.0475 
L 251.530876 320.340733 
L 251.937101 284.625364 
L 252.343325 233.542604 
L 252.74955 275.852658 
L 253.155774 234.303 
L 253.561998 282.318809 
L 253.968223 234.820154 
L 254.374447 233.961268 
L 254.780672 323.389224 
L 255.186896 223.180748 
L 255.59312 355.985554 
L 255.999345 358.387363 
L 256.405569 319.457475 
L 256.811794 349.510985 
L 257.218018 340.63274 
L 257.624242 294.997063 
L 258.030467 265.360058 
L 258.436691 263.723118 
L 258.842916 230.301989 
L 259.24914 262.832323 
L 259.655364 327.656687 
L 260.061589 356.94346 
L 260.467813 301.139045 
L 260.874038 290.149634 
L 261.280262 314.611529 
L 261.686486 225.436328 
L 262.092711 308.616073 
L 262.498935 316.106887 
L 262.90516 253.292059 
L 263.311384 276.340672 
L 263.717609 337.344256 
L 264.123833 348.982959 
L 264.530057 231.090011 
L 264.936282 233.259407 
L 265.342506 311.508337 
L 265.748731 294.694427 
L 266.154955 234.820154 
L 266.561179 233.961268 
L 266.967404 315.396694 
L 267.373628 300.863048 
L 267.779853 316.976022 
L 268.186077 351.555686 
L 268.592301 353.42066 
L 268.998526 269.058096 
L 269.40475 212.753099 
L 269.810975 296.481528 
L 270.217199 264.957488 
L 270.623423 281.636898 
L 271.029648 322.142206 
L 271.435872 266.441667 
L 271.842097 355.2741 
L 272.248321 348.677665 
L 272.654545 301.246486 
L 273.06077 331.072015 
L 273.466994 327.862249 
L 273.873219 352.766997 
L 274.279443 309.370579 
L 274.685667 304.966129 
L 275.091892 337.148211 
L 275.498116 336.431502 
L 275.904341 338.034496 
L 276.310565 346.974898 
L 276.71679 326.433118 
L 277.529238 356.602965 
L 277.935463 355.995581 
L 278.341687 340.513242 
L 278.747912 362.110341 
L 279.154136 285.890881 
L 279.56036 349.907907 
L 279.966585 334.735651 
L 280.779034 262.503024 
L 281.185258 343.174569 
L 281.591482 315.557706 
L 281.997707 200.280601 
L 282.403931 314.209802 
L 282.810156 263.954861 
L 283.21638 319.843721 
L 283.622604 338.102135 
L 284.028829 281.184137 
L 284.435053 291.880265 
L 284.841278 292.392652 
L 285.247502 303.49245 
L 285.653726 257.545953 
L 286.059951 285.46937 
L 286.466175 335.482349 
L 286.8724 343.508191 
L 287.278624 320.426098 
L 287.684848 361.858928 
L 288.091073 336.599541 
L 288.497297 339.287281 
L 288.903522 357.111864 
L 289.309746 241.706841 
L 289.715971 243.682157 
L 290.122195 247.316963 
L 290.528419 334.216565 
L 290.934644 204.872383 
L 291.340868 356.648091 
L 291.747093 322.974179 
L 292.153317 330.268992 
L 292.559541 287.856671 
L 292.965766 314.615316 
L 293.778215 290.519393 
L 294.184439 286.669609 
L 294.590663 242.576433 
L 294.996888 316.29748 
L 295.403112 271.7905 
L 295.809337 289.680656 
L 296.215561 323.295522 
L 296.621785 307.644417 
L 297.02801 229.715221 
L 297.434234 220.334791 
L 297.840459 318.108439 
L 298.246683 175.368071 
L 298.652907 273.009297 
L 299.059132 223.746508 
L 299.465356 344.330012 
L 300.277805 339.195873 
L 300.684029 303.455351 
L 301.090254 344.046754 
L 301.496478 244.496352 
L 301.902703 338.924274 
L 302.308927 356.548329 
L 302.715152 321.672853 
L 303.121376 343.285358 
L 303.5276 347.670415 
L 303.933825 350.565293 
L 304.340049 350.683309 
L 304.746274 337.785527 
L 305.152498 337.194855 
L 305.558722 335.565119 
L 305.964947 276.475462 
L 306.371171 280.219325 
L 306.777396 234.663967 
L 307.18362 318.654491 
L 308.402293 360.597522 
L 308.808518 360.861177 
L 309.214742 356.471094 
L 309.620966 346.038104 
L 310.027191 305.482086 
L 310.433415 221.238276 
L 310.83964 290.262825 
L 311.245864 285.503728 
L 311.652088 339.486211 
L 312.058313 331.824756 
L 312.464537 345.649045 
L 312.870762 327.654121 
L 313.68321 348.518117 
L 314.089435 339.280447 
L 314.495659 314.601839 
L 314.901884 338.869061 
L 315.308108 347.614272 
L 315.714333 345.666872 
L 316.120557 346.148155 
L 316.526781 347.25774 
L 316.933006 341.939642 
L 317.33923 247.231351 
L 317.745455 341.376157 
L 318.151679 283.749616 
L 318.557903 250.093069 
L 318.964128 227.091038 
L 319.776577 334.564054 
L 320.182801 285.134514 
L 320.589025 296.110308 
L 320.99525 262.626293 
L 321.401474 266.012374 
L 321.807699 321.324868 
L 322.213923 325.591809 
L 322.620147 340.848814 
L 323.026372 343.736928 
L 323.432596 347.551107 
L 323.838821 269.066649 
L 324.245045 357.181415 
L 324.651269 345.144761 
L 325.057494 313.227911 
L 325.463718 309.053886 
L 325.869943 291.537892 
L 326.276167 321.735975 
L 326.682391 322.504143 
L 327.088616 341.184437 
L 327.49484 314.207311 
L 327.901065 301.337859 
L 328.713514 348.624972 
L 329.525962 354.677417 
L 329.932187 282.983513 
L 330.338411 268.153012 
L 330.744636 224.085907 
L 331.15086 334.707356 
L 331.557084 320.035792 
L 331.963309 347.783323 
L 332.775758 343.681739 
L 333.181982 349.787017 
L 333.588206 345.507239 
L 333.994431 343.200571 
L 334.400655 359.104745 
L 334.80688 343.910994 
L 335.213104 351.432903 
L 335.619328 278.444629 
L 336.025553 256.763843 
L 336.431777 257.150274 
L 336.838002 330.98987 
L 337.244226 352.869836 
L 337.65045 346.390566 
L 338.056675 347.920194 
L 338.462899 266.478234 
L 338.869124 269.247546 
L 339.275348 269.223272 
L 339.681572 302.775211 
L 340.087797 351.006266 
L 340.494021 350.944019 
L 340.900246 349.972966 
L 341.30647 350.453111 
L 341.712695 350.23344 
L 342.118919 348.581215 
L 342.525143 351.589559 
L 342.931368 351.249287 
L 343.337592 349.983744 
L 343.743817 339.894081 
L 344.150041 355.041933 
L 344.556265 342.014449 
L 344.96249 343.628608 
L 345.368714 345.749843 
L 345.774939 346.642355 
L 346.181163 344.30054 
L 346.587387 351.693722 
L 346.993612 348.397706 
L 347.399836 348.058814 
L 347.806061 338.150656 
L 348.212285 353.891183 
L 348.618509 333.651514 
L 349.024734 339.581739 
L 349.430958 340.586436 
L 349.837183 343.380188 
L 350.243407 348.03125 
L 350.649631 345.019146 
L 351.055856 340.738758 
L 351.46208 342.240441 
L 351.868305 345.627658 
L 352.274529 351.102261 
L 352.680753 348.987213 
L 353.086978 342.753942 
L 353.493202 346.790009 
L 353.899427 348.367497 
L 354.305651 334.427956 
L 355.1181 273.949434 
L 355.524324 291.932606 
L 355.930549 316.180955 
L 356.336773 323.05573 
L 356.742998 322.280162 
L 357.149222 350.516383 
L 357.555446 324.023865 
L 357.961671 283.312461 
L 358.367895 278.581183 
L 358.77412 331.851825 
L 359.180344 270.26341 
L 359.992793 353.031117 
L 360.399017 330.42358 
L 360.805242 327.487167 
L 361.211466 335.278176 
L 361.61769 354.050041 
L 362.023915 309.125607 
L 362.430139 249.494581 
L 362.836364 236.012224 
L 363.242588 279.663108 
L 363.648812 283.514684 
L 364.055037 242.164945 
L 364.461261 302.818616 
L 364.867486 306.16547 
L 365.27371 252.758477 
L 365.679934 289.138349 
L 366.086159 288.338794 
L 366.492383 246.761674 
L 366.898608 239.118347 
L 367.711057 319.406372 
L 368.117281 341.037315 
L 368.523505 346.996475 
L 368.92973 345.634154 
L 369.335954 346.850018 
L 370.148403 341.904931 
L 370.554627 335.012614 
L 370.960852 298.094265 
L 371.367076 229.015281 
L 371.773301 340.664828 
L 372.179525 324.890135 
L 372.585749 295.447976 
L 372.991974 252.452146 
L 373.398198 337.497573 
L 373.804423 343.226704 
L 374.210647 356.456691 
L 374.616871 356.546924 
L 375.023096 356.024079 
L 375.42932 348.664509 
L 375.835545 347.134724 
L 376.241769 347.019265 
L 376.647993 354.088634 
L 377.054218 350.258558 
L 377.460442 340.042397 
L 377.866667 345.041306 
L 378.272891 352.251457 
L 378.679115 297.132646 
L 379.08534 290.88816 
L 379.491564 351.133744 
L 379.897789 345.194789 
L 380.304013 346.355019 
L 380.710238 352.764645 
L 381.522686 340.526038 
L 382.335135 295.352389 
L 382.74136 324.103671 
L 383.553808 299.396428 
L 383.960033 297.165493 
L 384.366257 283.440574 
L 384.772482 311.816957 
L 385.178706 314.177112 
L 385.58493 334.897706 
L 385.991155 282.928002 
L 386.397379 325.320198 
L 386.803604 256.864049 
L 387.616052 306.222368 
L 388.022277 316.575549 
L 388.428501 282.248348 
L 388.834726 325.989079 
L 389.24095 277.51032 
L 389.647174 275.634226 
L 390.053399 336.833549 
L 390.459623 298.359722 
L 390.865848 307.83627 
L 391.272072 351.973299 
L 391.678296 341.824448 
L 392.490745 346.475153 
L 392.89697 351.671933 
L 393.303194 349.328833 
L 393.709419 349.138413 
L 394.115643 346.947794 
L 394.521867 346.062561 
L 394.928092 349.979555 
L 395.334316 352.369133 
L 395.740541 351.27363 
L 396.146765 265.2654 
L 396.552989 343.956531 
L 396.959214 349.137936 
L 397.771663 337.504125 
L 398.177887 319.115488 
L 398.584111 321.941216 
L 398.990336 353.859395 
L 399.39656 301.402344 
L 399.802785 340.18328 
L 400.209009 339.00115 
L 400.615233 276.465228 
L 401.021458 288.04121 
L 401.427682 327.465046 
L 401.833907 302.079045 
L 402.240131 297.783392 
L 402.646355 232.985757 
L 403.05258 225.000837 
L 403.458804 341.513274 
L 403.865029 267.379387 
L 404.271253 233.301331 
L 404.677477 233.961268 
L 405.083702 346.321183 
L 405.489926 303.735578 
L 405.896151 355.564132 
L 406.302375 306.252887 
L 406.7086 197.028553 
L 407.114824 329.211951 
L 407.521048 185.879195 
L 407.927273 329.211951 
L 408.333497 187.061627 
L 408.739722 282.318809 
L 409.145946 304.344685 
L 409.55217 261.046029 
L 409.958395 277.298736 
L 410.364619 249.59413 
L 410.770844 263.80679 
L 411.177068 312.611625 
L 411.583292 335.202705 
L 411.989517 334.144636 
L 412.395741 326.535092 
L 412.801966 249.36879 
L 413.20819 255.465057 
L 413.614414 361.582414 
L 414.020639 375.987308 
L 414.426863 316.498868 
L 414.833088 365.799269 
L 415.239312 365.046042 
L 415.645536 229.382214 
L 416.051761 233.961268 
L 416.457985 307.456833 
L 416.86421 336.18321 
L 417.270434 252.751791 
L 417.676658 86.039552 
L 418.489107 86.039552 
L 418.895332 102.030524 
L 419.301556 105.755398 
L 419.707781 106.275148 
L 420.520229 106.275148 
L 420.926454 108.21555 
L 421.332678 86.039552 
L 498.109091 86.039552 
L 498.109091 86.039552 
" style="fill:none;stroke:#0000ff;stroke-linecap:square;stroke-width:1.5;"/>
   </g>
   <g id="line2d_14">
    <path clip-path="url(#p640299aa7a)" d="M 92.290909 205.848202 
L 92.697133 116.765718 
L 93.509582 145.762146 
L 93.915807 112.926629 
L 94.322031 113.472725 
L 94.728256 120.689697 
L 95.13448 112.887844 
L 95.540704 126.651873 
L 95.946929 170.503296 
L 96.353153 232.258272 
L 96.759378 208.231703 
L 97.165602 155.437761 
L 97.571826 238.428366 
L 97.978051 239.72224 
L 98.384275 197.891633 
L 98.7905 194.037531 
L 99.196724 236.596569 
L 99.602948 224.061618 
L 100.009173 193.082366 
L 100.415397 213.995166 
L 100.821622 193.630857 
L 101.227846 217.572896 
L 101.63407 216.420736 
L 102.040295 214.447558 
L 102.446519 242.604726 
L 102.852744 199.03314 
L 103.258968 197.444394 
L 103.665192 193.879171 
L 104.071417 232.488217 
L 104.477641 196.006692 
L 104.883866 239.853536 
L 105.29009 239.940617 
L 105.696314 203.951672 
L 106.102539 221.792433 
L 106.508763 201.258206 
L 107.321212 216.516543 
L 107.727437 193.499637 
L 108.133661 210.906436 
L 108.539885 195.781585 
L 108.94611 258.540853 
L 109.352334 186.667293 
L 109.758559 206.613254 
L 110.164783 235.946637 
L 110.977232 196.36634 
L 111.383456 199.720072 
L 111.789681 275.137343 
L 112.195905 166.252589 
L 112.602129 248.20404 
L 113.008354 232.169395 
L 113.414578 202.514404 
L 113.820803 202.038994 
L 114.227027 224.369094 
L 114.633251 231.327471 
L 115.039476 209.028607 
L 115.4457 204.165716 
L 115.851925 220.272795 
L 116.258149 218.51646 
L 116.664373 171.108139 
L 117.070598 281.904771 
L 117.476822 205.331238 
L 117.883047 208.145593 
L 118.289271 209.23664 
L 118.695495 239.286733 
L 119.10172 241.857649 
L 119.507944 233.605821 
L 119.914169 211.233106 
L 120.320393 212.242391 
L 120.726618 263.139192 
L 121.132842 200.514583 
L 121.539066 231.432865 
L 121.945291 247.861698 
L 122.351515 197.003722 
L 122.75774 220.483924 
L 123.163964 213.245144 
L 123.570188 203.291842 
L 123.976413 208.151362 
L 124.382637 242.769924 
L 124.788862 226.624279 
L 125.195086 219.632539 
L 126.007535 196.589509 
L 126.413759 218.020403 
L 126.819984 210.143444 
L 127.226208 222.720223 
L 127.632432 243.484503 
L 128.038657 204.257594 
L 128.444881 202.914697 
L 128.851106 245.987629 
L 129.25733 206.118074 
L 129.663554 203.083219 
L 130.069779 208.340162 
L 130.476003 220.016428 
L 130.882228 213.982913 
L 131.288452 193.252542 
L 131.694676 252.259267 
L 132.100901 180.776962 
L 132.507125 193.54967 
L 132.91335 237.352474 
L 133.319574 229.154288 
L 133.725799 208.028297 
L 134.132023 227.033941 
L 134.538247 218.083478 
L 134.944472 196.965789 
L 135.350696 219.439352 
L 135.756921 218.859677 
L 136.163145 218.688682 
L 136.569369 218.98986 
L 136.975594 213.458329 
L 137.381818 210.751156 
L 137.788043 224.841049 
L 138.194267 201.337059 
L 138.600491 237.58047 
L 139.006716 202.195127 
L 139.41294 217.556162 
L 139.819165 197.190499 
L 140.225389 212.693499 
L 140.631613 248.323636 
L 141.037838 211.662681 
L 141.444062 226.877579 
L 141.850287 231.16196 
L 142.256511 232.003322 
L 142.662735 210.100752 
L 143.06896 226.10762 
L 143.475184 207.948264 
L 143.881409 208.236059 
L 144.287633 225.405265 
L 144.693857 218.380005 
L 145.100082 220.291964 
L 145.506306 207.690197 
L 145.912531 234.749755 
L 146.318755 232.746503 
L 146.72498 233.141471 
L 147.131204 205.212486 
L 147.537428 193.906286 
L 147.943653 233.442905 
L 148.349877 211.881963 
L 148.756102 239.198855 
L 149.162326 228.210655 
L 149.56855 232.237759 
L 149.974775 199.990434 
L 150.380999 245.06616 
L 150.787224 195.903871 
L 151.193448 197.073406 
L 151.599672 199.99549 
L 152.005897 233.554963 
L 152.818346 240.025446 
L 153.22457 178.053979 
L 154.037019 229.500935 
L 154.443243 236.136737 
L 154.849468 233.432766 
L 155.255692 197.707414 
L 155.661916 175.839752 
L 156.068141 302.44241 
L 156.474365 189.549729 
L 156.88059 191.185051 
L 157.286814 244.249396 
L 157.693038 221.041953 
L 158.099263 263.278441 
L 158.505487 193.953869 
L 158.911712 202.817174 
L 159.317936 256.56472 
L 159.724161 196.36244 
L 160.130385 194.094102 
L 160.536609 236.958135 
L 160.942834 244.046216 
L 162.161507 195.599036 
L 162.567731 209.61304 
L 162.973956 217.826877 
L 163.38018 231.510469 
L 163.786405 223.902272 
L 164.192629 203.438957 
L 164.598853 189.048107 
L 165.005078 255.543036 
L 165.411302 213.861717 
L 165.817527 264.53417 
L 166.223751 214.711925 
L 166.629975 203.209764 
L 167.0362 246.405977 
L 167.442424 196.56808 
L 167.848649 187.848483 
L 168.254873 248.800969 
L 168.661097 255.256624 
L 169.067322 179.263931 
L 169.473546 250.806165 
L 169.879771 162.88294 
L 170.285995 245.645394 
L 170.692219 206.951443 
L 171.098444 209.90237 
L 171.504668 224.484855 
L 171.910893 213.961047 
L 172.317117 251.593714 
L 172.723342 112.936011 
L 173.129566 329.591336 
L 173.53579 186.318676 
L 173.942015 155.666324 
L 174.348239 246.921932 
L 174.754464 171.128044 
L 175.160688 293.738152 
L 175.566912 205.608972 
L 175.973137 216.435518 
L 176.379361 200.752802 
L 176.785586 230.493528 
L 177.19181 236.922789 
L 177.598034 211.301106 
L 178.004259 218.661273 
L 178.410483 212.741823 
L 178.816708 229.327874 
L 179.222932 204.466827 
L 179.629156 226.871213 
L 180.035381 225.91601 
L 180.441605 237.706371 
L 180.84783 181.865688 
L 181.254054 198.009714 
L 181.660278 192.859628 
L 182.066503 272.891929 
L 182.472727 173.834319 
L 182.878952 227.997813 
L 183.285176 229.627324 
L 183.6914 204.109975 
L 184.097625 241.349621 
L 184.503849 224.718083 
L 184.910074 199.516733 
L 185.316298 208.517534 
L 185.722523 241.097561 
L 186.128747 201.631057 
L 186.534971 199.769727 
L 186.941196 239.89959 
L 187.34742 242.771842 
L 187.753645 194.880525 
L 188.159869 239.814621 
L 188.566093 241.259117 
L 188.972318 186.636019 
L 189.378542 257.00746 
L 189.784767 200.369495 
L 190.190991 212.96133 
L 190.597215 207.377448 
L 191.409664 214.943063 
L 191.815889 210.163903 
L 192.222113 199.154204 
L 192.628337 253.785275 
L 193.034562 201.286445 
L 193.440786 192.367378 
L 193.847011 232.646038 
L 194.253235 197.682023 
L 194.659459 200.182073 
L 195.065684 234.422808 
L 195.878133 240.116099 
L 196.284357 239.972468 
L 196.690581 197.294842 
L 197.096806 198.796 
L 197.50303 238.084779 
L 197.909255 192.786011 
L 198.315479 212.134186 
L 198.721704 217.179903 
L 199.127928 210.346316 
L 199.534152 215.985202 
L 199.940377 216.62459 
L 200.346601 213.158977 
L 200.752826 217.038916 
L 201.15905 190.811521 
L 201.565274 239.198855 
L 201.971499 230.495808 
L 202.377723 239.915105 
L 202.783948 184.068886 
L 203.190172 191.806917 
L 203.596396 239.250696 
L 204.002621 238.407626 
L 204.408845 197.494741 
L 204.81507 193.441728 
L 205.221294 238.752178 
L 205.627518 233.995634 
L 206.033743 203.23914 
L 206.439967 256.90484 
L 206.846192 147.977349 
L 207.252416 269.774373 
L 207.65864 181.535443 
L 208.064865 234.667537 
L 208.471089 230.534475 
L 208.877314 182.405297 
L 209.283538 198.661615 
L 209.689762 225.514556 
L 210.095987 185.047948 
L 210.502211 316.65678 
L 210.908436 185.660933 
L 211.31466 185.630912 
L 211.720885 187.284979 
L 212.127109 316.308449 
L 212.533333 185.276493 
L 212.939558 186.774031 
L 213.345782 314.40785 
L 213.752007 189.305282 
L 214.158231 188.75645 
L 214.564455 205.970583 
L 214.97068 196.871043 
L 215.376904 242.790029 
L 215.783129 252.838532 
L 216.189353 192.453649 
L 216.595577 219.438916 
L 217.001802 221.980831 
L 217.408026 237.496205 
L 217.814251 211.500694 
L 218.220475 215.676357 
L 218.626699 180.178709 
L 219.032924 238.428366 
L 219.439148 232.145978 
L 220.251597 167.390441 
L 220.657821 264.045088 
L 221.064046 201.238307 
L 221.47027 202.124068 
L 221.876495 193.204951 
L 222.282719 251.078999 
L 222.688943 235.439699 
L 223.095168 187.743267 
L 223.501392 247.453851 
L 223.907617 162.39075 
L 224.313841 233.339004 
L 224.720066 202.107161 
L 225.12629 232.970908 
L 225.532514 205.037181 
L 225.938739 205.020195 
L 226.344963 237.65108 
L 226.751188 192.306897 
L 227.157412 203.621152 
L 227.563636 242.757529 
L 227.969861 237.322235 
L 228.78231 174.413211 
L 229.188534 230.932974 
L 229.594758 225.233656 
L 230.000983 193.399718 
L 230.407207 197.202269 
L 231.219656 219.044753 
L 231.62588 222.089963 
L 232.032105 215.718422 
L 232.438329 222.109871 
L 232.844554 223.205327 
L 233.250778 228.173092 
L 233.657002 202.832409 
L 234.063227 206.342786 
L 234.469451 198.200046 
L 234.875676 247.257776 
L 235.2819 240.386038 
L 235.688124 201.686732 
L 236.094349 201.014573 
L 236.500573 233.8344 
L 236.906798 248.696855 
L 237.313022 149.271268 
L 237.719247 206.278637 
L 238.125471 237.570584 
L 238.531695 198.478547 
L 238.93792 195.024693 
L 239.344144 210.02337 
L 239.750369 229.535731 
L 240.156593 236.733509 
L 240.562817 196.317421 
L 240.969042 201.67848 
L 241.375266 235.82572 
L 241.781491 236.973008 
L 242.187715 195.2538 
L 242.593939 208.929304 
L 243.000164 203.853944 
L 243.406388 229.835984 
L 243.812613 233.639177 
L 244.218837 183.33108 
L 244.625061 245.381052 
L 245.031286 231.170676 
L 245.43751 209.106079 
L 245.843735 202.558271 
L 246.249959 239.000196 
L 246.656183 212.360558 
L 247.062408 233.405382 
L 247.468632 198.570747 
L 247.874857 247.53748 
L 248.281081 227.948097 
L 249.09353 216.90292 
L 249.499754 213.343601 
L 249.905979 213.467552 
L 250.312203 214.578251 
L 250.718428 196.581283 
L 251.124652 268.508173 
L 251.530876 200.340054 
L 251.937101 218.464652 
L 252.343325 212.096939 
L 252.74955 209.324419 
L 253.155774 208.836136 
L 253.561998 237.286859 
L 253.968223 197.121144 
L 254.374447 194.037531 
L 254.780672 245.092318 
L 255.186896 274.182171 
L 255.59312 204.287923 
L 255.999345 187.080472 
L 256.405569 269.919533 
L 256.811794 192.883405 
L 257.218018 195.564302 
L 257.624242 248.926196 
L 258.436691 216.827823 
L 258.842916 236.347519 
L 259.24914 238.41003 
L 259.655364 225.379727 
L 260.061589 242.804485 
L 260.467813 206.648026 
L 260.874038 195.388768 
L 261.280262 177.164519 
L 261.686486 250.787299 
L 262.498935 197.680316 
L 262.90516 239.978544 
L 263.311384 197.295514 
L 263.717609 193.053147 
L 264.123833 228.715163 
L 264.530057 197.717726 
L 264.936282 196.764838 
L 265.342506 233.187344 
L 266.154955 197.121144 
L 266.561179 194.037531 
L 266.967404 241.812852 
L 267.373628 195.257119 
L 267.779853 198.214126 
L 268.186077 194.723714 
L 268.592301 249.121125 
L 269.40475 231.688785 
L 269.810975 236.670397 
L 270.217199 198.038095 
L 270.623423 192.363086 
L 271.029648 254.211165 
L 271.435872 229.183047 
L 271.842097 243.319294 
L 272.654545 163.455413 
L 273.06077 240.02828 
L 273.466994 238.140776 
L 273.873219 233.860703 
L 274.279443 199.348801 
L 274.685667 199.829412 
L 275.091892 206.556881 
L 275.498116 197.351969 
L 275.904341 240.409832 
L 276.310565 235.968334 
L 276.71679 198.132271 
L 277.123014 199.560771 
L 277.529238 232.050072 
L 277.935463 250.44861 
L 278.341687 127.30097 
L 278.747912 297.940293 
L 279.154136 231.541948 
L 279.56036 240.128801 
L 279.966585 184.345084 
L 280.372809 229.433642 
L 280.779034 228.309285 
L 281.185258 230.042058 
L 281.591482 164.180775 
L 281.997707 267.984292 
L 282.403931 190.100667 
L 282.810156 229.308037 
L 283.21638 227.47496 
L 283.622604 205.788035 
L 284.028829 216.283883 
L 284.841278 244.339099 
L 285.247502 240.732444 
L 285.653726 196.64125 
L 286.059951 199.351993 
L 286.466175 200.298154 
L 286.8724 274.137898 
L 287.278624 164.564899 
L 287.684848 282.703318 
L 288.091073 196.893085 
L 288.497297 193.172793 
L 288.903522 245.808679 
L 289.309746 197.153696 
L 289.715971 197.121144 
L 290.122195 194.037531 
L 290.528419 282.448183 
L 290.934644 156.137172 
L 291.340868 241.631805 
L 291.747093 242.981503 
L 292.559541 150.557465 
L 292.965766 198.311828 
L 293.37199 196.171816 
L 293.778215 207.857888 
L 294.184439 238.428366 
L 294.590663 202.521929 
L 294.996888 191.091421 
L 295.403112 243.359686 
L 295.809337 240.031685 
L 296.215561 199.626014 
L 296.621785 200.560072 
L 297.02801 197.710162 
L 297.434234 214.896331 
L 297.840459 207.016856 
L 298.246683 215.229911 
L 298.652907 220.043317 
L 299.465356 198.494373 
L 299.871581 229.84882 
L 300.277805 228.680072 
L 300.684029 214.476452 
L 301.090254 238.943567 
L 301.496478 202.797487 
L 301.902703 188.716423 
L 302.308927 270.912109 
L 302.715152 140.469711 
L 303.121376 241.629714 
L 303.5276 217.858137 
L 303.933825 230.735516 
L 304.340049 226.198337 
L 304.746274 200.954407 
L 305.152498 195.220711 
L 305.558722 195.872731 
L 305.964947 228.616513 
L 306.371171 232.636724 
L 306.777396 205.176298 
L 307.18362 229.130497 
L 307.589844 196.030236 
L 307.996069 197.446523 
L 308.402293 241.611401 
L 308.808518 243.332482 
L 309.214742 235.964125 
L 309.620966 200.932777 
L 310.027191 189.840616 
L 310.433415 255.786078 
L 310.83964 195.974974 
L 311.245864 192.306996 
L 311.652088 229.017204 
L 312.058313 218.61162 
L 312.464537 211.392994 
L 312.870762 213.086117 
L 313.276986 208.356894 
L 314.089435 222.202078 
L 314.495659 209.374468 
L 315.308108 217.721235 
L 315.714333 186.97439 
L 316.120557 221.160911 
L 316.526781 225.979245 
L 316.933006 214.58883 
L 317.33923 217.923921 
L 317.745455 219.563984 
L 318.151679 212.859707 
L 318.557903 209.435558 
L 318.964128 216.324966 
L 319.370352 209.426192 
L 319.776577 236.762509 
L 320.182801 210.18619 
L 320.589025 215.420525 
L 320.99525 215.575662 
L 321.401474 192.298583 
L 321.807699 193.808038 
L 322.213923 244.08223 
L 322.620147 231.898376 
L 323.026372 230.396013 
L 323.432596 184.766787 
L 323.838821 225.499412 
L 324.245045 172.988533 
L 325.057494 253.751486 
L 325.463718 210.326202 
L 326.276167 220.183185 
L 326.682391 221.338566 
L 327.088616 218.192758 
L 327.49484 203.101424 
L 327.901065 207.830002 
L 328.307289 202.032116 
L 328.713514 227.877127 
L 329.119738 226.487235 
L 329.525962 240.173199 
L 329.932187 201.665065 
L 330.338411 208.589707 
L 330.744636 230.206378 
L 331.15086 195.449902 
L 331.557084 241.715117 
L 331.963309 200.616944 
L 332.369533 229.741271 
L 332.775758 227.971669 
L 333.181982 197.667748 
L 333.588206 204.063524 
L 333.994431 190.702903 
L 334.400655 260.18897 
L 334.80688 190.029795 
L 335.213104 235.72985 
L 335.619328 189.055917 
L 336.025553 186.509337 
L 336.431777 187.270215 
L 336.838002 240.110667 
L 337.244226 236.184683 
L 337.65045 198.01277 
L 338.056675 200.771737 
L 338.462899 249.558977 
L 338.869124 221.048633 
L 339.275348 237.130701 
L 339.681572 244.850887 
L 340.087797 192.31847 
L 340.494021 250.401245 
L 340.900246 230.763936 
L 341.30647 217.186212 
L 341.712695 214.20263 
L 342.118919 233.35947 
L 342.525143 207.050366 
L 342.931368 227.958671 
L 343.337592 224.930827 
L 343.743817 193.860926 
L 344.150041 243.415408 
L 344.556265 200.274003 
L 344.96249 211.533116 
L 345.774939 207.633042 
L 346.181163 222.618897 
L 346.587387 233.234558 
L 346.993612 206.83861 
L 347.399836 216.307175 
L 347.806061 213.541582 
L 348.212285 239.390938 
L 348.618509 188.540916 
L 349.024734 216.8319 
L 349.430958 221.955136 
L 349.837183 216.642006 
L 350.243407 235.554501 
L 350.649631 226.167509 
L 351.055856 208.983263 
L 351.46208 209.471522 
L 351.868305 223.231028 
L 352.274529 222.83476 
L 352.680753 215.284207 
L 353.086978 214.582214 
L 353.493202 221.608237 
L 353.899427 222.315218 
L 354.305651 222.573912 
L 354.711876 207.727006 
L 355.1181 197.249435 
L 355.930549 229.780615 
L 356.336773 238.975889 
L 356.742998 213.585342 
L 357.149222 231.622175 
L 357.555446 225.456202 
L 357.961671 240.688821 
L 358.367895 176.727847 
L 358.77412 237.184763 
L 359.180344 199.329993 
L 359.586568 244.458953 
L 359.992793 187.062744 
L 360.399017 211.36215 
L 360.805242 211.730523 
L 361.211466 210.864592 
L 361.61769 190.829589 
L 362.023915 212.687103 
L 362.430139 211.118173 
L 362.836364 198.847137 
L 363.242588 227.410101 
L 363.648812 235.085554 
L 364.055037 204.268553 
L 364.461261 194.894296 
L 364.867486 202.126893 
L 365.27371 227.676861 
L 365.679934 213.496238 
L 366.086159 216.896551 
L 366.492383 204.53147 
L 366.898608 205.338304 
L 367.304832 203.034943 
L 367.711057 220.019366 
L 368.117281 222.936569 
L 368.523505 233.903281 
L 368.92973 225.165008 
L 369.335954 222.754806 
L 369.742179 242.828469 
L 370.148403 196.000752 
L 370.554627 202.624185 
L 370.960852 251.115053 
L 371.367076 188.333403 
L 371.773301 204.857881 
L 372.179525 234.236302 
L 372.585749 190.61321 
L 372.991974 231.907775 
L 373.804423 196.063611 
L 374.210647 242.716285 
L 374.616871 239.244678 
L 375.023096 238.046887 
L 375.42932 193.655845 
L 375.835545 192.862628 
L 376.241769 195.869942 
L 376.647993 270.901542 
L 377.054218 209.669997 
L 377.460442 197.412408 
L 377.866667 216.873877 
L 378.272891 244.016379 
L 378.679115 201.749424 
L 379.08534 202.430281 
L 379.491564 247.556001 
L 379.897789 207.796336 
L 380.304013 190.605417 
L 380.710238 300.198945 
L 381.116462 142.410357 
L 381.522686 246.821278 
L 381.928911 230.235993 
L 382.335135 236.389772 
L 382.74136 200.132978 
L 383.147584 189.416833 
L 383.553808 238.003191 
L 383.960033 201.084576 
L 384.366257 219.052241 
L 384.772482 227.697158 
L 385.178706 247.422501 
L 385.58493 205.634747 
L 385.991155 235.001747 
L 386.397379 168.704668 
L 386.803604 265.933964 
L 387.209828 217.071712 
L 387.616052 223.71247 
L 388.022277 196.200004 
L 388.428501 239.462061 
L 388.834726 204.068747 
L 389.24095 247.431322 
L 389.647174 263.928591 
L 390.053399 167.657398 
L 390.459623 235.456853 
L 390.865848 220.066343 
L 391.272072 234.846407 
L 391.678296 207.039978 
L 392.084521 207.444011 
L 392.490745 206.344518 
L 392.89697 252.150481 
L 393.303194 199.642366 
L 393.709419 226.496184 
L 394.115643 211.026936 
L 394.521867 200.51878 
L 394.928092 204.114993 
L 395.334316 231.741665 
L 395.740541 234.313528 
L 396.146765 177.849522 
L 396.552989 233.358661 
L 396.959214 211.317751 
L 397.365438 230.388449 
L 397.771663 223.809934 
L 398.584111 195.895189 
L 398.990336 282.173752 
L 399.39656 155.932813 
L 399.802785 239.447081 
L 400.209009 236.179737 
L 400.615233 173.014647 
L 401.021458 238.378326 
L 401.427682 234.938233 
L 401.833907 202.00146 
L 402.240131 244.067417 
L 403.05258 163.891014 
L 403.458804 271.665228 
L 403.865029 203.623833 
L 404.271253 200.968 
L 404.677477 194.037531 
L 405.083702 212.239059 
L 405.489926 265.640795 
L 405.896151 245.48605 
L 406.302375 194.599949 
L 406.7086 209.180826 
L 407.114824 280.182827 
L 407.521048 165.907018 
L 407.927273 280.182827 
L 408.333497 156.137172 
L 408.739722 237.286859 
L 409.145946 239.163084 
L 409.55217 216.898068 
L 409.958395 248.54221 
L 410.770844 200.813876 
L 411.583292 240.648579 
L 411.989517 246.090243 
L 412.395741 243.544927 
L 412.801966 196.267585 
L 413.20819 198.365287 
L 413.614414 184.217143 
L 414.020639 316.976667 
L 414.426863 130.124632 
L 414.833088 250.729123 
L 415.239312 247.897438 
L 415.645536 150.514661 
L 416.051761 194.037531 
L 416.457985 250.042826 
L 416.86421 187.588162 
L 417.270434 331.270712 
L 417.676658 351.500693 
L 418.489107 351.500693 
L 418.895332 328.701223 
L 419.301556 273.405901 
L 419.707781 261.505628 
L 420.520229 261.505628 
L 420.926454 250.356366 
L 421.332678 351.500693 
L 498.109091 351.500693 
L 498.109091 351.500693 
" style="fill:none;stroke:#008000;stroke-linecap:square;stroke-width:1.5;"/>
   </g>
   <g id="patch_3">
    <path d="M 72 384.48 
L 72 51.84 
" style="fill:none;stroke:#000000;stroke-linecap:square;stroke-linejoin:miter;stroke-width:0.8;"/>
   </g>
   <g id="patch_4">
    <path d="M 518.4 384.48 
L 518.4 51.84 
" style="fill:none;stroke:#000000;stroke-linecap:square;stroke-linejoin:miter;stroke-width:0.8;"/>
   </g>
   <g id="patch_5">
    <path d="M 72 384.48 
L 518.4 384.48 
" style="fill:none;stroke:#000000;stroke-linecap:square;stroke-linejoin:miter;stroke-width:0.8;"/>
   </g>
   <g id="patch_6">
    <path d="M 72 51.84 
L 518.4 51.84 
" style="fill:none;stroke:#000000;stroke-linecap:square;stroke-linejoin:miter;stroke-width:0.8;"/>
   </g>
   <g id="legend_1">
    <g id="patch_7">
     <path d="M 79 89.19625 
L 156.107812 89.19625 
Q 158.107812 89.19625 158.107812 87.19625 
L 158.107812 58.84 
Q 158.107812 56.84 156.107812 56.84 
L 79 56.84 
Q 77 56.84 77 58.84 
L 77 87.19625 
Q 77 89.19625 79 89.19625 
z
" style="fill:#ffffff;opacity:0.8;stroke:#cccccc;stroke-linejoin:miter;"/>
    </g>
    <g id="line2d_15">
     <path d="M 81 64.938437 
L 101 64.938437 
" style="fill:none;stroke:#0000ff;stroke-linecap:square;stroke-width:1.5;"/>
    </g>
    <g id="line2d_16"/>
    <g id="text_15">
     <!-- precision -->
     <g transform="translate(109 68.438437)scale(0.1 -0.1)">
      <defs>
       <path d="M 9.421875 54.6875 
L 18.40625 54.6875 
L 18.40625 0 
L 9.421875 0 
z
M 9.421875 75.984375 
L 18.40625 75.984375 
L 18.40625 64.59375 
L 9.421875 64.59375 
z
" id="DejaVuSans-105"/>
       <path d="M 44.28125 53.078125 
L 44.28125 44.578125 
Q 40.484375 46.53125 36.375 47.5 
Q 32.28125 48.484375 27.875 48.484375 
Q 21.1875 48.484375 17.84375 46.4375 
Q 14.5 44.390625 14.5 40.28125 
Q 14.5 37.15625 16.890625 35.375 
Q 19.28125 33.59375 26.515625 31.984375 
L 29.59375 31.296875 
Q 39.15625 29.25 43.1875 25.515625 
Q 47.21875 21.78125 47.21875 15.09375 
Q 47.21875 7.46875 41.1875 3.015625 
Q 35.15625 -1.421875 24.609375 -1.421875 
Q 20.21875 -1.421875 15.453125 -0.5625 
Q 10.6875 0.296875 5.421875 2 
L 5.421875 11.28125 
Q 10.40625 8.6875 15.234375 7.390625 
Q 20.0625 6.109375 24.8125 6.109375 
Q 31.15625 6.109375 34.5625 8.28125 
Q 37.984375 10.453125 37.984375 14.40625 
Q 37.984375 18.0625 35.515625 20.015625 
Q 33.0625 21.96875 24.703125 23.78125 
L 21.578125 24.515625 
Q 13.234375 26.265625 9.515625 29.90625 
Q 5.8125 33.546875 5.8125 39.890625 
Q 5.8125 47.609375 11.28125 51.796875 
Q 16.75 56 26.8125 56 
Q 31.78125 56 36.171875 55.265625 
Q 40.578125 54.546875 44.28125 53.078125 
z
" id="DejaVuSans-115"/>
       <path d="M 54.890625 33.015625 
L 54.890625 0 
L 45.90625 0 
L 45.90625 32.71875 
Q 45.90625 40.484375 42.875 44.328125 
Q 39.84375 48.1875 33.796875 48.1875 
Q 26.515625 48.1875 22.3125 43.546875 
Q 18.109375 38.921875 18.109375 30.90625 
L 18.109375 0 
L 9.078125 0 
L 9.078125 54.6875 
L 18.109375 54.6875 
L 18.109375 46.1875 
Q 21.34375 51.125 25.703125 53.5625 
Q 30.078125 56 35.796875 56 
Q 45.21875 56 50.046875 50.171875 
Q 54.890625 44.34375 54.890625 33.015625 
z
" id="DejaVuSans-110"/>
      </defs>
      <use xlink:href="#DejaVuSans-112"/>
      <use x="63.476562" xlink:href="#DejaVuSans-114"/>
      <use x="102.339844" xlink:href="#DejaVuSans-101"/>
      <use x="163.863281" xlink:href="#DejaVuSans-99"/>
      <use x="218.84375" xlink:href="#DejaVuSans-105"/>
      <use x="246.626953" xlink:href="#DejaVuSans-115"/>
      <use x="298.726562" xlink:href="#DejaVuSans-105"/>
      <use x="326.509766" xlink:href="#DejaVuSans-111"/>
      <use x="387.691406" xlink:href="#DejaVuSans-110"/>
     </g>
    </g>
    <g id="line2d_17">
     <path d="M 81 79.616562 
L 101 79.616562 
" style="fill:none;stroke:#008000;stroke-linecap:square;stroke-width:1.5;"/>
    </g>
    <g id="line2d_18"/>
    <g id="text_16">
     <!-- recall -->
     <g transform="translate(109 83.116562)scale(0.1 -0.1)">
      <defs>
       <path d="M 9.421875 75.984375 
L 18.40625 75.984375 
L 18.40625 0 
L 9.421875 0 
z
" id="DejaVuSans-108"/>
      </defs>
      <use xlink:href="#DejaVuSans-114"/>
      <use x="38.863281" xlink:href="#DejaVuSans-101"/>
      <use x="100.386719" xlink:href="#DejaVuSans-99"/>
      <use x="155.367188" xlink:href="#DejaVuSans-97"/>
      <use x="216.646484" xlink:href="#DejaVuSans-108"/>
      <use x="244.429688" xlink:href="#DejaVuSans-108"/>
     </g>
    </g>
   </g>
  </g>
  <g id="axes_2">
   <g id="matplotlib.axis_3">
    <g id="ytick_7">
     <g id="line2d_19">
      <defs>
       <path d="M 0 0 
L 3.5 0 
" id="m7008813f4e" style="stroke:#000000;stroke-width:0.8;"/>
      </defs>
      <g>
       <use style="stroke:#000000;stroke-width:0.8;" x="518.4" xlink:href="#m7008813f4e" y="369.758489"/>
      </g>
     </g>
     <g id="text_17">
      <!-- 0 -->
      <g transform="translate(525.4 373.557708)scale(0.1 -0.1)">
       <use xlink:href="#DejaVuSans-48"/>
      </g>
     </g>
    </g>
    <g id="ytick_8">
     <g id="line2d_20">
      <g>
       <use style="stroke:#000000;stroke-width:0.8;" x="518.4" xlink:href="#m7008813f4e" y="306.99761"/>
      </g>
     </g>
     <g id="text_18">
      <!-- 100 -->
      <g transform="translate(525.4 310.796829)scale(0.1 -0.1)">
       <use xlink:href="#DejaVuSans-49"/>
       <use x="63.623047" xlink:href="#DejaVuSans-48"/>
       <use x="127.246094" xlink:href="#DejaVuSans-48"/>
      </g>
     </g>
    </g>
    <g id="ytick_9">
     <g id="line2d_21">
      <g>
       <use style="stroke:#000000;stroke-width:0.8;" x="518.4" xlink:href="#m7008813f4e" y="244.236732"/>
      </g>
     </g>
     <g id="text_19">
      <!-- 200 -->
      <g transform="translate(525.4 248.035951)scale(0.1 -0.1)">
       <use xlink:href="#DejaVuSans-50"/>
       <use x="63.623047" xlink:href="#DejaVuSans-48"/>
       <use x="127.246094" xlink:href="#DejaVuSans-48"/>
      </g>
     </g>
    </g>
    <g id="ytick_10">
     <g id="line2d_22">
      <g>
       <use style="stroke:#000000;stroke-width:0.8;" x="518.4" xlink:href="#m7008813f4e" y="181.475853"/>
      </g>
     </g>
     <g id="text_20">
      <!-- 300 -->
      <g transform="translate(525.4 185.275072)scale(0.1 -0.1)">
       <defs>
        <path d="M 40.578125 39.3125 
Q 47.65625 37.796875 51.625 33 
Q 55.609375 28.21875 55.609375 21.1875 
Q 55.609375 10.40625 48.1875 4.484375 
Q 40.765625 -1.421875 27.09375 -1.421875 
Q 22.515625 -1.421875 17.65625 -0.515625 
Q 12.796875 0.390625 7.625 2.203125 
L 7.625 11.71875 
Q 11.71875 9.328125 16.59375 8.109375 
Q 21.484375 6.890625 26.8125 6.890625 
Q 36.078125 6.890625 40.9375 10.546875 
Q 45.796875 14.203125 45.796875 21.1875 
Q 45.796875 27.640625 41.28125 31.265625 
Q 36.765625 34.90625 28.71875 34.90625 
L 20.21875 34.90625 
L 20.21875 43.015625 
L 29.109375 43.015625 
Q 36.375 43.015625 40.234375 45.921875 
Q 44.09375 48.828125 44.09375 54.296875 
Q 44.09375 59.90625 40.109375 62.90625 
Q 36.140625 65.921875 28.71875 65.921875 
Q 24.65625 65.921875 20.015625 65.03125 
Q 15.375 64.15625 9.8125 62.3125 
L 9.8125 71.09375 
Q 15.4375 72.65625 20.34375 73.4375 
Q 25.25 74.21875 29.59375 74.21875 
Q 40.828125 74.21875 47.359375 69.109375 
Q 53.90625 64.015625 53.90625 55.328125 
Q 53.90625 49.265625 50.4375 45.09375 
Q 46.96875 40.921875 40.578125 39.3125 
z
" id="DejaVuSans-51"/>
       </defs>
       <use xlink:href="#DejaVuSans-51"/>
       <use x="63.623047" xlink:href="#DejaVuSans-48"/>
       <use x="127.246094" xlink:href="#DejaVuSans-48"/>
      </g>
     </g>
    </g>
    <g id="ytick_11">
     <g id="line2d_23">
      <g>
       <use style="stroke:#000000;stroke-width:0.8;" x="518.4" xlink:href="#m7008813f4e" y="118.714975"/>
      </g>
     </g>
     <g id="text_21">
      <!-- 400 -->
      <g transform="translate(525.4 122.514193)scale(0.1 -0.1)">
       <use xlink:href="#DejaVuSans-52"/>
       <use x="63.623047" xlink:href="#DejaVuSans-48"/>
       <use x="127.246094" xlink:href="#DejaVuSans-48"/>
      </g>
     </g>
    </g>
    <g id="ytick_12">
     <g id="line2d_24">
      <g>
       <use style="stroke:#000000;stroke-width:0.8;" x="518.4" xlink:href="#m7008813f4e" y="55.954096"/>
      </g>
     </g>
     <g id="text_22">
      <!-- 500 -->
      <g transform="translate(525.4 59.753315)scale(0.1 -0.1)">
       <defs>
        <path d="M 10.796875 72.90625 
L 49.515625 72.90625 
L 49.515625 64.59375 
L 19.828125 64.59375 
L 19.828125 46.734375 
Q 21.96875 47.46875 24.109375 47.828125 
Q 26.265625 48.1875 28.421875 48.1875 
Q 40.625 48.1875 47.75 41.5 
Q 54.890625 34.8125 54.890625 23.390625 
Q 54.890625 11.625 47.5625 5.09375 
Q 40.234375 -1.421875 26.90625 -1.421875 
Q 22.3125 -1.421875 17.546875 -0.640625 
Q 12.796875 0.140625 7.71875 1.703125 
L 7.71875 11.625 
Q 12.109375 9.234375 16.796875 8.0625 
Q 21.484375 6.890625 26.703125 6.890625 
Q 35.15625 6.890625 40.078125 11.328125 
Q 45.015625 15.765625 45.015625 23.390625 
Q 45.015625 31 40.078125 35.4375 
Q 35.15625 39.890625 26.703125 39.890625 
Q 22.75 39.890625 18.8125 39.015625 
Q 14.890625 38.140625 10.796875 36.28125 
z
" id="DejaVuSans-53"/>
       </defs>
       <use xlink:href="#DejaVuSans-53"/>
       <use x="63.623047" xlink:href="#DejaVuSans-48"/>
       <use x="127.246094" xlink:href="#DejaVuSans-48"/>
      </g>
     </g>
    </g>
    <g id="text_23">
     <!-- loss -->
     <g transform="translate(556.085938 227.817812)rotate(-90)scale(0.1 -0.1)">
      <use xlink:href="#DejaVuSans-108"/>
      <use x="27.783203" xlink:href="#DejaVuSans-111"/>
      <use x="88.964844" xlink:href="#DejaVuSans-115"/>
      <use x="141.064453" xlink:href="#DejaVuSans-115"/>
     </g>
    </g>
   </g>
   <g id="line2d_25">
    <path clip-path="url(#p640299aa7a)" d="M 92.290909 66.96 
L 92.697133 84.464907 
L 93.509582 147.08894 
L 93.915807 184.049743 
L 94.322031 206.113511 
L 94.728256 218.09085 
L 95.540704 251.504743 
L 95.946929 264.854052 
L 96.353153 363.265118 
L 96.759378 360.096283 
L 97.571826 366.112607 
L 97.978051 365.771904 
L 98.384275 366.846064 
L 98.7905 367.299914 
L 99.196724 367.504942 
L 100.009173 367.690872 
L 100.415397 367.473252 
L 100.821622 367.469904 
L 101.227846 367.805328 
L 101.63407 367.989416 
L 102.446519 367.768025 
L 103.258968 368.032424 
L 103.665192 368.071844 
L 104.477641 367.79165 
L 105.696314 368.044437 
L 106.102539 367.947796 
L 106.508763 368.075402 
L 107.321212 367.965069 
L 107.727437 367.779741 
L 108.133661 368.106642 
L 108.539885 367.824512 
L 109.352334 368.221239 
L 110.571007 368.029445 
L 111.383456 368.044346 
L 111.789681 367.824805 
L 112.195905 367.985317 
L 112.602129 367.984224 
L 113.008354 368.17995 
L 113.820803 367.957455 
L 114.227027 367.881913 
L 114.633251 368.049559 
L 115.4457 368.068347 
L 115.851925 368.134352 
L 116.258149 368.022498 
L 116.664373 367.725808 
L 117.070598 367.710664 
L 118.289271 368.032154 
L 119.10172 367.932849 
L 119.914169 368.087028 
L 121.132842 367.847282 
L 121.945291 368.182334 
L 122.75774 367.962492 
L 123.163964 368.056755 
L 123.570188 368.021619 
L 124.382637 368.150421 
L 125.195086 368.179281 
L 126.007535 368.371233 
L 126.819984 367.995467 
L 127.632432 368.312882 
L 128.038657 368.193443 
L 128.851106 368.149855 
L 129.663554 368.122155 
L 130.476003 368.282703 
L 130.882228 368.135574 
L 132.91335 368.134652 
L 133.319574 368.52504 
L 134.944472 368.750374 
L 135.756921 368.801777 
L 136.163145 368.918519 
L 137.381818 368.81252 
L 140.225389 368.920072 
L 141.444062 368.880729 
L 143.475184 368.940765 
L 144.693857 368.895724 
L 145.912531 368.974443 
L 146.72498 369.011444 
L 148.349877 369.003732 
L 151.193448 369.040921 
L 152.818346 369.05994 
L 216.595577 369.280119 
L 227.563636 369.288797 
L 234.063227 369.294542 
L 246.249959 369.298251 
L 368.92973 369.322421 
L 498.109091 369.36 
L 498.109091 369.36 
" style="fill:none;stroke:#ff0000;stroke-linecap:square;stroke-width:1.5;"/>
   </g>
   <g id="patch_8">
    <path d="M 72 384.48 
L 72 51.84 
" style="fill:none;stroke:#000000;stroke-linecap:square;stroke-linejoin:miter;stroke-width:0.8;"/>
   </g>
   <g id="patch_9">
    <path d="M 518.4 384.48 
L 518.4 51.84 
" style="fill:none;stroke:#000000;stroke-linecap:square;stroke-linejoin:miter;stroke-width:0.8;"/>
   </g>
   <g id="patch_10">
    <path d="M 72 384.48 
L 518.4 384.48 
" style="fill:none;stroke:#000000;stroke-linecap:square;stroke-linejoin:miter;stroke-width:0.8;"/>
   </g>
   <g id="patch_11">
    <path d="M 72 51.84 
L 518.4 51.84 
" style="fill:none;stroke:#000000;stroke-linecap:square;stroke-linejoin:miter;stroke-width:0.8;"/>
   </g>
   <g id="text_24">
    <!-- The learning curve on 8clients_non_iid_agg/host/6 -->
    <g transform="translate(144.702188 45.84)scale(0.12 -0.12)">
     <defs>
      <path d="M -0.296875 72.90625 
L 61.375 72.90625 
L 61.375 64.59375 
L 35.5 64.59375 
L 35.5 0 
L 25.59375 0 
L 25.59375 64.59375 
L -0.296875 64.59375 
z
" id="DejaVuSans-84"/>
      <path id="DejaVuSans-32"/>
      <path d="M 45.40625 27.984375 
Q 45.40625 37.75 41.375 43.109375 
Q 37.359375 48.484375 30.078125 48.484375 
Q 22.859375 48.484375 18.828125 43.109375 
Q 14.796875 37.75 14.796875 27.984375 
Q 14.796875 18.265625 18.828125 12.890625 
Q 22.859375 7.515625 30.078125 7.515625 
Q 37.359375 7.515625 41.375 12.890625 
Q 45.40625 18.265625 45.40625 27.984375 
z
M 54.390625 6.78125 
Q 54.390625 -7.171875 48.1875 -13.984375 
Q 42 -20.796875 29.203125 -20.796875 
Q 24.46875 -20.796875 20.265625 -20.09375 
Q 16.0625 -19.390625 12.109375 -17.921875 
L 12.109375 -9.1875 
Q 16.0625 -11.328125 19.921875 -12.34375 
Q 23.78125 -13.375 27.78125 -13.375 
Q 36.625 -13.375 41.015625 -8.765625 
Q 45.40625 -4.15625 45.40625 5.171875 
L 45.40625 9.625 
Q 42.625 4.78125 38.28125 2.390625 
Q 33.9375 0 27.875 0 
Q 17.828125 0 11.671875 7.65625 
Q 5.515625 15.328125 5.515625 27.984375 
Q 5.515625 40.671875 11.671875 48.328125 
Q 17.828125 56 27.875 56 
Q 33.9375 56 38.28125 53.609375 
Q 42.625 51.21875 45.40625 46.390625 
L 45.40625 54.6875 
L 54.390625 54.6875 
z
" id="DejaVuSans-103"/>
      <path d="M 8.5 21.578125 
L 8.5 54.6875 
L 17.484375 54.6875 
L 17.484375 21.921875 
Q 17.484375 14.15625 20.5 10.265625 
Q 23.53125 6.390625 29.59375 6.390625 
Q 36.859375 6.390625 41.078125 11.03125 
Q 45.3125 15.671875 45.3125 23.6875 
L 45.3125 54.6875 
L 54.296875 54.6875 
L 54.296875 0 
L 45.3125 0 
L 45.3125 8.40625 
Q 42.046875 3.421875 37.71875 1 
Q 33.40625 -1.421875 27.6875 -1.421875 
Q 18.265625 -1.421875 13.375 4.4375 
Q 8.5 10.296875 8.5 21.578125 
z
M 31.109375 56 
z
" id="DejaVuSans-117"/>
      <path d="M 2.984375 54.6875 
L 12.5 54.6875 
L 29.59375 8.796875 
L 46.6875 54.6875 
L 56.203125 54.6875 
L 35.6875 0 
L 23.484375 0 
z
" id="DejaVuSans-118"/>
      <path d="M 50.984375 -16.609375 
L 50.984375 -23.578125 
L -0.984375 -23.578125 
L -0.984375 -16.609375 
z
" id="DejaVuSans-95"/>
      <path d="M 45.40625 46.390625 
L 45.40625 75.984375 
L 54.390625 75.984375 
L 54.390625 0 
L 45.40625 0 
L 45.40625 8.203125 
Q 42.578125 3.328125 38.25 0.953125 
Q 33.9375 -1.421875 27.875 -1.421875 
Q 17.96875 -1.421875 11.734375 6.484375 
Q 5.515625 14.40625 5.515625 27.296875 
Q 5.515625 40.1875 11.734375 48.09375 
Q 17.96875 56 27.875 56 
Q 33.9375 56 38.25 53.625 
Q 42.578125 51.265625 45.40625 46.390625 
z
M 14.796875 27.296875 
Q 14.796875 17.390625 18.875 11.75 
Q 22.953125 6.109375 30.078125 6.109375 
Q 37.203125 6.109375 41.296875 11.75 
Q 45.40625 17.390625 45.40625 27.296875 
Q 45.40625 37.203125 41.296875 42.84375 
Q 37.203125 48.484375 30.078125 48.484375 
Q 22.953125 48.484375 18.875 42.84375 
Q 14.796875 37.203125 14.796875 27.296875 
z
" id="DejaVuSans-100"/>
      <path d="M 25.390625 72.90625 
L 33.6875 72.90625 
L 8.296875 -9.28125 
L 0 -9.28125 
z
" id="DejaVuSans-47"/>
     </defs>
     <use xlink:href="#DejaVuSans-84"/>
     <use x="61.083984" xlink:href="#DejaVuSans-104"/>
     <use x="124.462891" xlink:href="#DejaVuSans-101"/>
     <use x="185.986328" xlink:href="#DejaVuSans-32"/>
     <use x="217.773438" xlink:href="#DejaVuSans-108"/>
     <use x="245.556641" xlink:href="#DejaVuSans-101"/>
     <use x="307.080078" xlink:href="#DejaVuSans-97"/>
     <use x="368.359375" xlink:href="#DejaVuSans-114"/>
     <use x="407.722656" xlink:href="#DejaVuSans-110"/>
     <use x="471.101562" xlink:href="#DejaVuSans-105"/>
     <use x="498.884766" xlink:href="#DejaVuSans-110"/>
     <use x="562.263672" xlink:href="#DejaVuSans-103"/>
     <use x="625.740234" xlink:href="#DejaVuSans-32"/>
     <use x="657.527344" xlink:href="#DejaVuSans-99"/>
     <use x="712.507812" xlink:href="#DejaVuSans-117"/>
     <use x="775.886719" xlink:href="#DejaVuSans-114"/>
     <use x="817" xlink:href="#DejaVuSans-118"/>
     <use x="876.179688" xlink:href="#DejaVuSans-101"/>
     <use x="937.703125" xlink:href="#DejaVuSans-32"/>
     <use x="969.490234" xlink:href="#DejaVuSans-111"/>
     <use x="1030.671875" xlink:href="#DejaVuSans-110"/>
     <use x="1094.050781" xlink:href="#DejaVuSans-32"/>
     <use x="1125.837891" xlink:href="#DejaVuSans-56"/>
     <use x="1189.460938" xlink:href="#DejaVuSans-99"/>
     <use x="1244.441406" xlink:href="#DejaVuSans-108"/>
     <use x="1272.224609" xlink:href="#DejaVuSans-105"/>
     <use x="1300.007812" xlink:href="#DejaVuSans-101"/>
     <use x="1361.53125" xlink:href="#DejaVuSans-110"/>
     <use x="1424.910156" xlink:href="#DejaVuSans-116"/>
     <use x="1464.119141" xlink:href="#DejaVuSans-115"/>
     <use x="1516.21875" xlink:href="#DejaVuSans-95"/>
     <use x="1566.21875" xlink:href="#DejaVuSans-110"/>
     <use x="1629.597656" xlink:href="#DejaVuSans-111"/>
     <use x="1690.779297" xlink:href="#DejaVuSans-110"/>
     <use x="1754.158203" xlink:href="#DejaVuSans-95"/>
     <use x="1804.158203" xlink:href="#DejaVuSans-105"/>
     <use x="1831.941406" xlink:href="#DejaVuSans-105"/>
     <use x="1859.724609" xlink:href="#DejaVuSans-100"/>
     <use x="1923.201172" xlink:href="#DejaVuSans-95"/>
     <use x="1973.201172" xlink:href="#DejaVuSans-97"/>
     <use x="2034.480469" xlink:href="#DejaVuSans-103"/>
     <use x="2097.957031" xlink:href="#DejaVuSans-103"/>
     <use x="2161.433594" xlink:href="#DejaVuSans-47"/>
     <use x="2195.125" xlink:href="#DejaVuSans-104"/>
     <use x="2258.503906" xlink:href="#DejaVuSans-111"/>
     <use x="2319.685547" xlink:href="#DejaVuSans-115"/>
     <use x="2371.785156" xlink:href="#DejaVuSans-116"/>
     <use x="2410.994141" xlink:href="#DejaVuSans-47"/>
     <use x="2444.685547" xlink:href="#DejaVuSans-54"/>
    </g>
   </g>
   <g id="legend_2">
    <g id="patch_12">
     <path d="M 460.084375 74.518125 
L 511.4 74.518125 
Q 513.4 74.518125 513.4 72.518125 
L 513.4 58.84 
Q 513.4 56.84 511.4 56.84 
L 460.084375 56.84 
Q 458.084375 56.84 458.084375 58.84 
L 458.084375 72.518125 
Q 458.084375 74.518125 460.084375 74.518125 
z
" style="fill:#ffffff;opacity:0.8;stroke:#cccccc;stroke-linejoin:miter;"/>
    </g>
    <g id="line2d_26">
     <path d="M 462.084375 64.938438 
L 482.084375 64.938438 
" style="fill:none;stroke:#ff0000;stroke-linecap:square;stroke-width:1.5;"/>
    </g>
    <g id="line2d_27"/>
    <g id="text_25">
     <!-- loss -->
     <g transform="translate(490.084375 68.438438)scale(0.1 -0.1)">
      <use xlink:href="#DejaVuSans-108"/>
      <use x="27.783203" xlink:href="#DejaVuSans-111"/>
      <use x="88.964844" xlink:href="#DejaVuSans-115"/>
      <use x="141.064453" xlink:href="#DejaVuSans-115"/>
     </g>
    </g>
   </g>
  </g>
 </g>
 <defs>
  <clipPath id="p640299aa7a">
   <rect height="332.64" width="446.4" x="72" y="51.84"/>
  </clipPath>
 </defs>
</svg>
