<?xml version="1.0" encoding="utf-8" standalone="no"?>
<!DOCTYPE svg PUBLIC "-//W3C//DTD SVG 1.1//EN"
  "http://www.w3.org/Graphics/SVG/1.1/DTD/svg11.dtd">
<!-- Created with matplotlib (https://matplotlib.org/) -->
<svg height="432pt" version="1.1" viewBox="0 0 576 432" width="576pt" xmlns="http://www.w3.org/2000/svg" xmlns:xlink="http://www.w3.org/1999/xlink">
 <metadata>
  <rdf:RDF xmlns:cc="http://creativecommons.org/ns#" xmlns:dc="http://purl.org/dc/elements/1.1/" xmlns:rdf="http://www.w3.org/1999/02/22-rdf-syntax-ns#">
   <cc:Work>
    <dc:type rdf:resource="http://purl.org/dc/dcmitype/StillImage"/>
    <dc:date>2023-03-29T12:28:10.083255</dc:date>
    <dc:format>image/svg+xml</dc:format>
    <dc:creator>
     <cc:Agent>
      <dc:title>Matplotlib v3.3.4, https://matplotlib.org/</dc:title>
     </cc:Agent>
    </dc:creator>
   </cc:Work>
  </rdf:RDF>
 </metadata>
 <defs>
  <style type="text/css">*{stroke-linecap:butt;stroke-linejoin:round;}</style>
 </defs>
 <g id="figure_1">
  <g id="patch_1">
   <path d="M 0 432 
L 576 432 
L 576 0 
L 0 0 
z
" style="fill:#ffffff;"/>
  </g>
  <g id="axes_1">
   <g id="patch_2">
    <path d="M 72 384.48 
L 518.4 384.48 
L 518.4 51.84 
L 72 51.84 
z
" style="fill:#ffffff;"/>
   </g>
   <g id="matplotlib.axis_1">
    <g id="xtick_1">
     <g id="line2d_1">
      <defs>
       <path d="M 0 0 
L 0 3.5 
" id="mf9abe093eb" style="stroke:#000000;stroke-width:0.8;"/>
      </defs>
      <g>
       <use style="stroke:#000000;stroke-width:0.8;" x="92.290909" xlink:href="#mf9abe093eb" y="384.48"/>
      </g>
     </g>
     <g id="text_1">
      <!-- 0 -->
      <g transform="translate(89.109659 399.078438)scale(0.1 -0.1)">
       <defs>
        <path d="M 31.78125 66.40625 
Q 24.171875 66.40625 20.328125 58.90625 
Q 16.5 51.421875 16.5 36.375 
Q 16.5 21.390625 20.328125 13.890625 
Q 24.171875 6.390625 31.78125 6.390625 
Q 39.453125 6.390625 43.28125 13.890625 
Q 47.125 21.390625 47.125 36.375 
Q 47.125 51.421875 43.28125 58.90625 
Q 39.453125 66.40625 31.78125 66.40625 
z
M 31.78125 74.21875 
Q 44.046875 74.21875 50.515625 64.515625 
Q 56.984375 54.828125 56.984375 36.375 
Q 56.984375 17.96875 50.515625 8.265625 
Q 44.046875 -1.421875 31.78125 -1.421875 
Q 19.53125 -1.421875 13.0625 8.265625 
Q 6.59375 17.96875 6.59375 36.375 
Q 6.59375 54.828125 13.0625 64.515625 
Q 19.53125 74.21875 31.78125 74.21875 
z
" id="DejaVuSans-48"/>
       </defs>
       <use xlink:href="#DejaVuSans-48"/>
      </g>
     </g>
    </g>
    <g id="xtick_2">
     <g id="line2d_2">
      <g>
       <use style="stroke:#000000;stroke-width:0.8;" x="173.53579" xlink:href="#mf9abe093eb" y="384.48"/>
      </g>
     </g>
     <g id="text_2">
      <!-- 200 -->
      <g transform="translate(163.99204 399.078438)scale(0.1 -0.1)">
       <defs>
        <path d="M 19.1875 8.296875 
L 53.609375 8.296875 
L 53.609375 0 
L 7.328125 0 
L 7.328125 8.296875 
Q 12.9375 14.109375 22.625 23.890625 
Q 32.328125 33.6875 34.8125 36.53125 
Q 39.546875 41.84375 41.421875 45.53125 
Q 43.3125 49.21875 43.3125 52.78125 
Q 43.3125 58.59375 39.234375 62.25 
Q 35.15625 65.921875 28.609375 65.921875 
Q 23.96875 65.921875 18.8125 64.3125 
Q 13.671875 62.703125 7.8125 59.421875 
L 7.8125 69.390625 
Q 13.765625 71.78125 18.9375 73 
Q 24.125 74.21875 28.421875 74.21875 
Q 39.75 74.21875 46.484375 68.546875 
Q 53.21875 62.890625 53.21875 53.421875 
Q 53.21875 48.921875 51.53125 44.890625 
Q 49.859375 40.875 45.40625 35.40625 
Q 44.1875 33.984375 37.640625 27.21875 
Q 31.109375 20.453125 19.1875 8.296875 
z
" id="DejaVuSans-50"/>
       </defs>
       <use xlink:href="#DejaVuSans-50"/>
       <use x="63.623047" xlink:href="#DejaVuSans-48"/>
       <use x="127.246094" xlink:href="#DejaVuSans-48"/>
      </g>
     </g>
    </g>
    <g id="xtick_3">
     <g id="line2d_3">
      <g>
       <use style="stroke:#000000;stroke-width:0.8;" x="254.780672" xlink:href="#mf9abe093eb" y="384.48"/>
      </g>
     </g>
     <g id="text_3">
      <!-- 400 -->
      <g transform="translate(245.236922 399.078438)scale(0.1 -0.1)">
       <defs>
        <path d="M 37.796875 64.3125 
L 12.890625 25.390625 
L 37.796875 25.390625 
z
M 35.203125 72.90625 
L 47.609375 72.90625 
L 47.609375 25.390625 
L 58.015625 25.390625 
L 58.015625 17.1875 
L 47.609375 17.1875 
L 47.609375 0 
L 37.796875 0 
L 37.796875 17.1875 
L 4.890625 17.1875 
L 4.890625 26.703125 
z
" id="DejaVuSans-52"/>
       </defs>
       <use xlink:href="#DejaVuSans-52"/>
       <use x="63.623047" xlink:href="#DejaVuSans-48"/>
       <use x="127.246094" xlink:href="#DejaVuSans-48"/>
      </g>
     </g>
    </g>
    <g id="xtick_4">
     <g id="line2d_4">
      <g>
       <use style="stroke:#000000;stroke-width:0.8;" x="336.025553" xlink:href="#mf9abe093eb" y="384.48"/>
      </g>
     </g>
     <g id="text_4">
      <!-- 600 -->
      <g transform="translate(326.481803 399.078438)scale(0.1 -0.1)">
       <defs>
        <path d="M 33.015625 40.375 
Q 26.375 40.375 22.484375 35.828125 
Q 18.609375 31.296875 18.609375 23.390625 
Q 18.609375 15.53125 22.484375 10.953125 
Q 26.375 6.390625 33.015625 6.390625 
Q 39.65625 6.390625 43.53125 10.953125 
Q 47.40625 15.53125 47.40625 23.390625 
Q 47.40625 31.296875 43.53125 35.828125 
Q 39.65625 40.375 33.015625 40.375 
z
M 52.59375 71.296875 
L 52.59375 62.3125 
Q 48.875 64.0625 45.09375 64.984375 
Q 41.3125 65.921875 37.59375 65.921875 
Q 27.828125 65.921875 22.671875 59.328125 
Q 17.53125 52.734375 16.796875 39.40625 
Q 19.671875 43.65625 24.015625 45.921875 
Q 28.375 48.1875 33.59375 48.1875 
Q 44.578125 48.1875 50.953125 41.515625 
Q 57.328125 34.859375 57.328125 23.390625 
Q 57.328125 12.15625 50.6875 5.359375 
Q 44.046875 -1.421875 33.015625 -1.421875 
Q 20.359375 -1.421875 13.671875 8.265625 
Q 6.984375 17.96875 6.984375 36.375 
Q 6.984375 53.65625 15.1875 63.9375 
Q 23.390625 74.21875 37.203125 74.21875 
Q 40.921875 74.21875 44.703125 73.484375 
Q 48.484375 72.75 52.59375 71.296875 
z
" id="DejaVuSans-54"/>
       </defs>
       <use xlink:href="#DejaVuSans-54"/>
       <use x="63.623047" xlink:href="#DejaVuSans-48"/>
       <use x="127.246094" xlink:href="#DejaVuSans-48"/>
      </g>
     </g>
    </g>
    <g id="xtick_5">
     <g id="line2d_5">
      <g>
       <use style="stroke:#000000;stroke-width:0.8;" x="417.270434" xlink:href="#mf9abe093eb" y="384.48"/>
      </g>
     </g>
     <g id="text_5">
      <!-- 800 -->
      <g transform="translate(407.726684 399.078438)scale(0.1 -0.1)">
       <defs>
        <path d="M 31.78125 34.625 
Q 24.75 34.625 20.71875 30.859375 
Q 16.703125 27.09375 16.703125 20.515625 
Q 16.703125 13.921875 20.71875 10.15625 
Q 24.75 6.390625 31.78125 6.390625 
Q 38.8125 6.390625 42.859375 10.171875 
Q 46.921875 13.96875 46.921875 20.515625 
Q 46.921875 27.09375 42.890625 30.859375 
Q 38.875 34.625 31.78125 34.625 
z
M 21.921875 38.8125 
Q 15.578125 40.375 12.03125 44.71875 
Q 8.5 49.078125 8.5 55.328125 
Q 8.5 64.0625 14.71875 69.140625 
Q 20.953125 74.21875 31.78125 74.21875 
Q 42.671875 74.21875 48.875 69.140625 
Q 55.078125 64.0625 55.078125 55.328125 
Q 55.078125 49.078125 51.53125 44.71875 
Q 48 40.375 41.703125 38.8125 
Q 48.828125 37.15625 52.796875 32.3125 
Q 56.78125 27.484375 56.78125 20.515625 
Q 56.78125 9.90625 50.3125 4.234375 
Q 43.84375 -1.421875 31.78125 -1.421875 
Q 19.734375 -1.421875 13.25 4.234375 
Q 6.78125 9.90625 6.78125 20.515625 
Q 6.78125 27.484375 10.78125 32.3125 
Q 14.796875 37.15625 21.921875 38.8125 
z
M 18.3125 54.390625 
Q 18.3125 48.734375 21.84375 45.5625 
Q 25.390625 42.390625 31.78125 42.390625 
Q 38.140625 42.390625 41.71875 45.5625 
Q 45.3125 48.734375 45.3125 54.390625 
Q 45.3125 60.0625 41.71875 63.234375 
Q 38.140625 66.40625 31.78125 66.40625 
Q 25.390625 66.40625 21.84375 63.234375 
Q 18.3125 60.0625 18.3125 54.390625 
z
" id="DejaVuSans-56"/>
       </defs>
       <use xlink:href="#DejaVuSans-56"/>
       <use x="63.623047" xlink:href="#DejaVuSans-48"/>
       <use x="127.246094" xlink:href="#DejaVuSans-48"/>
      </g>
     </g>
    </g>
    <g id="xtick_6">
     <g id="line2d_6">
      <g>
       <use style="stroke:#000000;stroke-width:0.8;" x="498.515315" xlink:href="#mf9abe093eb" y="384.48"/>
      </g>
     </g>
     <g id="text_6">
      <!-- 1000 -->
      <g transform="translate(485.790315 399.078438)scale(0.1 -0.1)">
       <defs>
        <path d="M 12.40625 8.296875 
L 28.515625 8.296875 
L 28.515625 63.921875 
L 10.984375 60.40625 
L 10.984375 69.390625 
L 28.421875 72.90625 
L 38.28125 72.90625 
L 38.28125 8.296875 
L 54.390625 8.296875 
L 54.390625 0 
L 12.40625 0 
z
" id="DejaVuSans-49"/>
       </defs>
       <use xlink:href="#DejaVuSans-49"/>
       <use x="63.623047" xlink:href="#DejaVuSans-48"/>
       <use x="127.246094" xlink:href="#DejaVuSans-48"/>
       <use x="190.869141" xlink:href="#DejaVuSans-48"/>
      </g>
     </g>
    </g>
    <g id="text_7">
     <!-- epoch -->
     <g transform="translate(279.971875 412.756563)scale(0.1 -0.1)">
      <defs>
       <path d="M 56.203125 29.59375 
L 56.203125 25.203125 
L 14.890625 25.203125 
Q 15.484375 15.921875 20.484375 11.0625 
Q 25.484375 6.203125 34.421875 6.203125 
Q 39.59375 6.203125 44.453125 7.46875 
Q 49.3125 8.734375 54.109375 11.28125 
L 54.109375 2.78125 
Q 49.265625 0.734375 44.1875 -0.34375 
Q 39.109375 -1.421875 33.890625 -1.421875 
Q 20.796875 -1.421875 13.15625 6.1875 
Q 5.515625 13.8125 5.515625 26.8125 
Q 5.515625 40.234375 12.765625 48.109375 
Q 20.015625 56 32.328125 56 
Q 43.359375 56 49.78125 48.890625 
Q 56.203125 41.796875 56.203125 29.59375 
z
M 47.21875 32.234375 
Q 47.125 39.59375 43.09375 43.984375 
Q 39.0625 48.390625 32.421875 48.390625 
Q 24.90625 48.390625 20.390625 44.140625 
Q 15.875 39.890625 15.1875 32.171875 
z
" id="DejaVuSans-101"/>
       <path d="M 18.109375 8.203125 
L 18.109375 -20.796875 
L 9.078125 -20.796875 
L 9.078125 54.6875 
L 18.109375 54.6875 
L 18.109375 46.390625 
Q 20.953125 51.265625 25.265625 53.625 
Q 29.59375 56 35.59375 56 
Q 45.5625 56 51.78125 48.09375 
Q 58.015625 40.1875 58.015625 27.296875 
Q 58.015625 14.40625 51.78125 6.484375 
Q 45.5625 -1.421875 35.59375 -1.421875 
Q 29.59375 -1.421875 25.265625 0.953125 
Q 20.953125 3.328125 18.109375 8.203125 
z
M 48.6875 27.296875 
Q 48.6875 37.203125 44.609375 42.84375 
Q 40.53125 48.484375 33.40625 48.484375 
Q 26.265625 48.484375 22.1875 42.84375 
Q 18.109375 37.203125 18.109375 27.296875 
Q 18.109375 17.390625 22.1875 11.75 
Q 26.265625 6.109375 33.40625 6.109375 
Q 40.53125 6.109375 44.609375 11.75 
Q 48.6875 17.390625 48.6875 27.296875 
z
" id="DejaVuSans-112"/>
       <path d="M 30.609375 48.390625 
Q 23.390625 48.390625 19.1875 42.75 
Q 14.984375 37.109375 14.984375 27.296875 
Q 14.984375 17.484375 19.15625 11.84375 
Q 23.34375 6.203125 30.609375 6.203125 
Q 37.796875 6.203125 41.984375 11.859375 
Q 46.1875 17.53125 46.1875 27.296875 
Q 46.1875 37.015625 41.984375 42.703125 
Q 37.796875 48.390625 30.609375 48.390625 
z
M 30.609375 56 
Q 42.328125 56 49.015625 48.375 
Q 55.71875 40.765625 55.71875 27.296875 
Q 55.71875 13.875 49.015625 6.21875 
Q 42.328125 -1.421875 30.609375 -1.421875 
Q 18.84375 -1.421875 12.171875 6.21875 
Q 5.515625 13.875 5.515625 27.296875 
Q 5.515625 40.765625 12.171875 48.375 
Q 18.84375 56 30.609375 56 
z
" id="DejaVuSans-111"/>
       <path d="M 48.78125 52.59375 
L 48.78125 44.1875 
Q 44.96875 46.296875 41.140625 47.34375 
Q 37.3125 48.390625 33.40625 48.390625 
Q 24.65625 48.390625 19.8125 42.84375 
Q 14.984375 37.3125 14.984375 27.296875 
Q 14.984375 17.28125 19.8125 11.734375 
Q 24.65625 6.203125 33.40625 6.203125 
Q 37.3125 6.203125 41.140625 7.25 
Q 44.96875 8.296875 48.78125 10.40625 
L 48.78125 2.09375 
Q 45.015625 0.34375 40.984375 -0.53125 
Q 36.96875 -1.421875 32.421875 -1.421875 
Q 20.0625 -1.421875 12.78125 6.34375 
Q 5.515625 14.109375 5.515625 27.296875 
Q 5.515625 40.671875 12.859375 48.328125 
Q 20.21875 56 33.015625 56 
Q 37.15625 56 41.109375 55.140625 
Q 45.0625 54.296875 48.78125 52.59375 
z
" id="DejaVuSans-99"/>
       <path d="M 54.890625 33.015625 
L 54.890625 0 
L 45.90625 0 
L 45.90625 32.71875 
Q 45.90625 40.484375 42.875 44.328125 
Q 39.84375 48.1875 33.796875 48.1875 
Q 26.515625 48.1875 22.3125 43.546875 
Q 18.109375 38.921875 18.109375 30.90625 
L 18.109375 0 
L 9.078125 0 
L 9.078125 75.984375 
L 18.109375 75.984375 
L 18.109375 46.1875 
Q 21.34375 51.125 25.703125 53.5625 
Q 30.078125 56 35.796875 56 
Q 45.21875 56 50.046875 50.171875 
Q 54.890625 44.34375 54.890625 33.015625 
z
" id="DejaVuSans-104"/>
      </defs>
      <use xlink:href="#DejaVuSans-101"/>
      <use x="61.523438" xlink:href="#DejaVuSans-112"/>
      <use x="125" xlink:href="#DejaVuSans-111"/>
      <use x="186.181641" xlink:href="#DejaVuSans-99"/>
      <use x="241.162109" xlink:href="#DejaVuSans-104"/>
     </g>
    </g>
   </g>
   <g id="matplotlib.axis_2">
    <g id="ytick_1">
     <g id="line2d_7">
      <defs>
       <path d="M 0 0 
L -3.5 0 
" id="m2fe861d001" style="stroke:#000000;stroke-width:0.8;"/>
      </defs>
      <g>
       <use style="stroke:#000000;stroke-width:0.8;" x="72" xlink:href="#m2fe861d001" y="384.48"/>
      </g>
     </g>
     <g id="text_8">
      <!-- 0.0 -->
      <g transform="translate(49.096875 388.279219)scale(0.1 -0.1)">
       <defs>
        <path d="M 10.6875 12.40625 
L 21 12.40625 
L 21 0 
L 10.6875 0 
z
" id="DejaVuSans-46"/>
       </defs>
       <use xlink:href="#DejaVuSans-48"/>
       <use x="63.623047" xlink:href="#DejaVuSans-46"/>
       <use x="95.410156" xlink:href="#DejaVuSans-48"/>
      </g>
     </g>
    </g>
    <g id="ytick_2">
     <g id="line2d_8">
      <g>
       <use style="stroke:#000000;stroke-width:0.8;" x="72" xlink:href="#m2fe861d001" y="317.952"/>
      </g>
     </g>
     <g id="text_9">
      <!-- 0.2 -->
      <g transform="translate(49.096875 321.751219)scale(0.1 -0.1)">
       <use xlink:href="#DejaVuSans-48"/>
       <use x="63.623047" xlink:href="#DejaVuSans-46"/>
       <use x="95.410156" xlink:href="#DejaVuSans-50"/>
      </g>
     </g>
    </g>
    <g id="ytick_3">
     <g id="line2d_9">
      <g>
       <use style="stroke:#000000;stroke-width:0.8;" x="72" xlink:href="#m2fe861d001" y="251.424"/>
      </g>
     </g>
     <g id="text_10">
      <!-- 0.4 -->
      <g transform="translate(49.096875 255.223219)scale(0.1 -0.1)">
       <use xlink:href="#DejaVuSans-48"/>
       <use x="63.623047" xlink:href="#DejaVuSans-46"/>
       <use x="95.410156" xlink:href="#DejaVuSans-52"/>
      </g>
     </g>
    </g>
    <g id="ytick_4">
     <g id="line2d_10">
      <g>
       <use style="stroke:#000000;stroke-width:0.8;" x="72" xlink:href="#m2fe861d001" y="184.896"/>
      </g>
     </g>
     <g id="text_11">
      <!-- 0.6 -->
      <g transform="translate(49.096875 188.695219)scale(0.1 -0.1)">
       <use xlink:href="#DejaVuSans-48"/>
       <use x="63.623047" xlink:href="#DejaVuSans-46"/>
       <use x="95.410156" xlink:href="#DejaVuSans-54"/>
      </g>
     </g>
    </g>
    <g id="ytick_5">
     <g id="line2d_11">
      <g>
       <use style="stroke:#000000;stroke-width:0.8;" x="72" xlink:href="#m2fe861d001" y="118.368"/>
      </g>
     </g>
     <g id="text_12">
      <!-- 0.8 -->
      <g transform="translate(49.096875 122.167219)scale(0.1 -0.1)">
       <use xlink:href="#DejaVuSans-48"/>
       <use x="63.623047" xlink:href="#DejaVuSans-46"/>
       <use x="95.410156" xlink:href="#DejaVuSans-56"/>
      </g>
     </g>
    </g>
    <g id="ytick_6">
     <g id="line2d_12">
      <g>
       <use style="stroke:#000000;stroke-width:0.8;" x="72" xlink:href="#m2fe861d001" y="51.84"/>
      </g>
     </g>
     <g id="text_13">
      <!-- 1.0 -->
      <g transform="translate(49.096875 55.639219)scale(0.1 -0.1)">
       <use xlink:href="#DejaVuSans-49"/>
       <use x="63.623047" xlink:href="#DejaVuSans-46"/>
       <use x="95.410156" xlink:href="#DejaVuSans-48"/>
      </g>
     </g>
    </g>
    <g id="text_14">
     <!-- rate -->
     <g transform="translate(43.017187 228.31625)rotate(-90)scale(0.1 -0.1)">
      <defs>
       <path d="M 41.109375 46.296875 
Q 39.59375 47.171875 37.8125 47.578125 
Q 36.03125 48 33.890625 48 
Q 26.265625 48 22.1875 43.046875 
Q 18.109375 38.09375 18.109375 28.8125 
L 18.109375 0 
L 9.078125 0 
L 9.078125 54.6875 
L 18.109375 54.6875 
L 18.109375 46.1875 
Q 20.953125 51.171875 25.484375 53.578125 
Q 30.03125 56 36.53125 56 
Q 37.453125 56 38.578125 55.875 
Q 39.703125 55.765625 41.0625 55.515625 
z
" id="DejaVuSans-114"/>
       <path d="M 34.28125 27.484375 
Q 23.390625 27.484375 19.1875 25 
Q 14.984375 22.515625 14.984375 16.5 
Q 14.984375 11.71875 18.140625 8.90625 
Q 21.296875 6.109375 26.703125 6.109375 
Q 34.1875 6.109375 38.703125 11.40625 
Q 43.21875 16.703125 43.21875 25.484375 
L 43.21875 27.484375 
z
M 52.203125 31.203125 
L 52.203125 0 
L 43.21875 0 
L 43.21875 8.296875 
Q 40.140625 3.328125 35.546875 0.953125 
Q 30.953125 -1.421875 24.3125 -1.421875 
Q 15.921875 -1.421875 10.953125 3.296875 
Q 6 8.015625 6 15.921875 
Q 6 25.140625 12.171875 29.828125 
Q 18.359375 34.515625 30.609375 34.515625 
L 43.21875 34.515625 
L 43.21875 35.40625 
Q 43.21875 41.609375 39.140625 45 
Q 35.0625 48.390625 27.6875 48.390625 
Q 23 48.390625 18.546875 47.265625 
Q 14.109375 46.140625 10.015625 43.890625 
L 10.015625 52.203125 
Q 14.9375 54.109375 19.578125 55.046875 
Q 24.21875 56 28.609375 56 
Q 40.484375 56 46.34375 49.84375 
Q 52.203125 43.703125 52.203125 31.203125 
z
" id="DejaVuSans-97"/>
       <path d="M 18.3125 70.21875 
L 18.3125 54.6875 
L 36.8125 54.6875 
L 36.8125 47.703125 
L 18.3125 47.703125 
L 18.3125 18.015625 
Q 18.3125 11.328125 20.140625 9.421875 
Q 21.96875 7.515625 27.59375 7.515625 
L 36.8125 7.515625 
L 36.8125 0 
L 27.59375 0 
Q 17.1875 0 13.234375 3.875 
Q 9.28125 7.765625 9.28125 18.015625 
L 9.28125 47.703125 
L 2.6875 47.703125 
L 2.6875 54.6875 
L 9.28125 54.6875 
L 9.28125 70.21875 
z
" id="DejaVuSans-116"/>
      </defs>
      <use xlink:href="#DejaVuSans-114"/>
      <use x="41.113281" xlink:href="#DejaVuSans-97"/>
      <use x="102.392578" xlink:href="#DejaVuSans-116"/>
      <use x="141.601562" xlink:href="#DejaVuSans-101"/>
     </g>
    </g>
   </g>
   <g id="line2d_13">
    <path clip-path="url(#pad9b7b2253)" d="M 92.290909 210.901 
L 92.697133 143.55672 
L 93.103358 247.135547 
L 93.509582 144.871693 
L 93.915807 211.637113 
L 94.322031 241.545567 
L 94.728256 261.043872 
L 95.13448 337.661309 
L 95.540704 363.61827 
L 95.946929 361.791316 
L 96.353153 360.98122 
L 96.759378 363.598531 
L 97.165602 363.708468 
L 97.571826 356.398564 
L 98.384275 280.89751 
L 98.7905 304.788831 
L 99.196724 273.19197 
L 99.602948 260.676586 
L 100.009173 260.582608 
L 100.415397 269.273148 
L 100.821622 316.577221 
L 101.227846 296.118058 
L 101.63407 282.456814 
L 102.040295 291.677595 
L 102.852744 226.733453 
L 103.258968 276.249145 
L 103.665192 289.575653 
L 104.071417 298.211977 
L 104.477641 353.348701 
L 104.883866 371.373243 
L 105.29009 330.632625 
L 105.696314 268.843254 
L 106.508763 365.654273 
L 106.914988 278.140354 
L 107.321212 361.251843 
L 107.727437 354.883095 
L 108.133661 355.099471 
L 108.539885 358.972578 
L 108.94611 353.516345 
L 109.352334 342.492967 
L 109.758559 334.74904 
L 110.164783 349.589444 
L 110.571007 324.986553 
L 110.977232 267.109865 
L 111.383456 321.261899 
L 111.789681 360.268628 
L 112.195905 354.3577 
L 112.602129 340.848346 
L 113.008354 346.79677 
L 113.414578 262.585262 
L 113.820803 345.269473 
L 114.227027 355.74764 
L 115.039476 345.553247 
L 115.4457 348.885666 
L 115.851925 358.731308 
L 116.258149 278.119766 
L 116.664373 317.160517 
L 117.070598 322.763069 
L 117.476822 264.212756 
L 117.883047 320.525461 
L 118.289271 306.830419 
L 118.695495 331.618823 
L 119.10172 325.82033 
L 119.507944 352.890712 
L 119.914169 363.79266 
L 120.320393 362.745289 
L 120.726618 339.757412 
L 121.132842 359.719587 
L 121.539066 343.939158 
L 121.945291 354.224851 
L 122.351515 352.939153 
L 122.75774 321.886979 
L 123.163964 263.990264 
L 123.570188 318.037335 
L 123.976413 324.785469 
L 124.788862 355.956405 
L 125.195086 357.153346 
L 125.60131 300.875579 
L 126.007535 316.306983 
L 126.819984 356.891594 
L 127.226208 353.546351 
L 127.632432 356.262193 
L 128.038657 350.151167 
L 128.444881 290.640414 
L 128.851106 286.544637 
L 129.25733 276.602661 
L 129.663554 247.431934 
L 130.069779 283.980715 
L 130.476003 214.05299 
L 130.882228 283.970557 
L 131.288452 237.472314 
L 131.694676 301.052651 
L 132.100901 335.331486 
L 132.507125 336.795636 
L 132.91335 332.537051 
L 133.319574 348.057799 
L 133.725799 342.130979 
L 134.132023 345.257755 
L 134.944472 285.160009 
L 135.350696 295.063259 
L 135.756921 293.585153 
L 136.163145 357.177133 
L 136.569369 324.36469 
L 136.975594 308.034601 
L 137.381818 351.70557 
L 137.788043 346.235248 
L 138.194267 355.738183 
L 138.600491 362.211802 
L 139.006716 291.79655 
L 139.41294 296.000249 
L 139.819165 273.169771 
L 140.225389 273.199676 
L 140.631613 322.386887 
L 141.037838 292.039013 
L 141.444062 318.054644 
L 141.850287 297.598712 
L 142.256511 308.263275 
L 142.662735 310.584083 
L 143.06896 334.19931 
L 143.475184 334.158405 
L 143.881409 359.351523 
L 144.287633 354.477766 
L 144.693857 363.846534 
L 145.100082 332.850728 
L 145.506306 338.832865 
L 145.912531 351.894799 
L 146.72498 338.008716 
L 147.131204 349.44063 
L 147.537428 309.613573 
L 148.349877 260.603269 
L 148.756102 274.494355 
L 149.162326 306.032912 
L 149.56855 295.35742 
L 149.974775 304.471121 
L 150.380999 319.662978 
L 150.787224 308.413243 
L 151.599672 351.687939 
L 152.005897 326.565993 
L 152.412121 250.032411 
L 152.818346 283.796289 
L 153.22457 285.067105 
L 153.630794 370.564269 
L 154.037019 367.348138 
L 154.443243 325.716858 
L 154.849468 367.508426 
L 155.255692 353.502706 
L 155.661916 309.198164 
L 156.068141 350.613789 
L 156.474365 332.266868 
L 156.88059 328.223395 
L 157.286814 341.378699 
L 157.693038 337.848425 
L 158.099263 364.518918 
L 158.505487 363.434312 
L 158.911712 268.243363 
L 159.317936 283.970557 
L 159.724161 278.932137 
L 160.130385 362.161845 
L 160.942834 348.891563 
L 161.349058 363.570579 
L 161.755283 361.939748 
L 162.161507 364.030939 
L 162.567731 364.581338 
L 162.973956 359.232024 
L 163.38018 317.20842 
L 163.786405 228.767072 
L 164.192629 274.288659 
L 164.598853 267.464649 
L 165.005078 302.365304 
L 165.411302 351.446885 
L 165.817527 367.448246 
L 166.223751 362.941246 
L 166.629975 313.109036 
L 167.0362 335.203194 
L 167.442424 283.468409 
L 167.848649 269.058452 
L 168.254873 295.582593 
L 168.661097 237.338982 
L 169.067322 284.45362 
L 169.473546 358.336794 
L 169.879771 341.134237 
L 170.285995 357.940992 
L 170.692219 285.085586 
L 171.098444 271.551465 
L 171.504668 263.635102 
L 171.910893 283.375892 
L 172.317117 236.367233 
L 172.723342 283.102731 
L 173.129566 237.007596 
L 173.53579 314.819554 
L 173.942015 370.863238 
L 174.348239 369.39971 
L 174.754464 296.313308 
L 175.160688 284.197858 
L 175.566912 214.240041 
L 175.973137 329.158819 
L 176.379361 314.253716 
L 176.785586 272.667112 
L 177.19181 260.795929 
L 177.598034 309.438718 
L 178.004259 344.024112 
L 178.410483 354.555456 
L 179.222932 349.516053 
L 180.035381 262.082999 
L 180.441605 354.068361 
L 180.84783 334.724306 
L 181.254054 327.427054 
L 181.660278 358.846412 
L 182.066503 352.976395 
L 182.472727 351.645648 
L 182.878952 311.436863 
L 183.285176 328.823766 
L 183.6914 358.155466 
L 184.097625 359.032891 
L 184.503849 316.810724 
L 184.910074 287.656611 
L 185.316298 287.246728 
L 185.722523 344.389256 
L 186.128747 345.845409 
L 186.534971 337.334384 
L 186.941196 280.102602 
L 187.34742 271.542892 
L 187.753645 283.753844 
L 188.159869 259.33516 
L 188.566093 272.314418 
L 188.972318 256.833076 
L 189.378542 328.548378 
L 189.784767 356.506008 
L 190.190991 347.46512 
L 190.597215 342.555159 
L 191.00344 323.791452 
L 191.409664 345.150648 
L 192.222113 331.719498 
L 192.628337 335.732407 
L 193.034562 342.613308 
L 193.440786 361.408059 
L 193.847011 349.266866 
L 194.253235 351.686388 
L 194.659459 348.795222 
L 195.065684 331.357993 
L 195.471908 331.139386 
L 195.878133 335.243452 
L 196.284357 350.760256 
L 196.690581 358.141346 
L 197.096806 295.397808 
L 197.50303 282.248298 
L 197.909255 361.718246 
L 198.315479 354.020635 
L 198.721704 356.573546 
L 199.127928 364.084625 
L 199.534152 287.325152 
L 199.940377 279.442363 
L 200.346601 276.038474 
L 200.752826 261.527565 
L 201.15905 325.07142 
L 201.565274 326.110055 
L 201.971499 335.237651 
L 202.377723 349.342511 
L 202.783948 348.804829 
L 203.190172 355.080387 
L 203.596396 306.916825 
L 204.002621 303.500562 
L 204.408845 339.100736 
L 204.81507 351.984864 
L 205.221294 260.083414 
L 205.627518 241.154677 
L 206.033743 338.35621 
L 206.439967 323.837908 
L 206.846192 322.266745 
L 207.252416 327.881535 
L 207.65864 296.132017 
L 208.064865 326.158058 
L 208.471089 337.850597 
L 208.877314 291.562779 
L 209.283538 336.223323 
L 209.689762 320.576061 
L 210.095987 360.951942 
L 210.502211 347.0905 
L 211.31466 249.278001 
L 211.720885 283.128711 
L 212.127109 236.359117 
L 212.533333 257.43252 
L 212.939558 300.725919 
L 213.345782 289.8802 
L 213.752007 346.901771 
L 214.158231 357.80679 
L 214.564455 360.743704 
L 214.97068 361.92916 
L 215.376904 362.345414 
L 216.189353 346.619638 
L 216.595577 308.801164 
L 217.408026 343.223292 
L 217.814251 344.149697 
L 218.220475 344.239641 
L 218.626699 320.736323 
L 219.032924 358.92506 
L 219.439148 368.632739 
L 219.845373 323.400529 
L 220.251597 328.158552 
L 220.657821 361.015711 
L 221.064046 311.91176 
L 221.47027 320.675708 
L 221.876495 295.438201 
L 222.282719 346.585254 
L 222.688943 354.547567 
L 223.095168 344.599338 
L 223.501392 325.799597 
L 223.907617 351.050003 
L 224.313841 352.832287 
L 224.720066 360.291517 
L 225.12629 345.224351 
L 225.532514 363.157871 
L 225.938739 361.07676 
L 226.344963 302.843998 
L 226.751188 352.545182 
L 227.157412 335.458826 
L 227.563636 325.428687 
L 227.969861 358.35339 
L 228.376085 363.151825 
L 228.78231 361.21306 
L 229.188534 341.625192 
L 229.594758 236.526928 
L 230.000983 270.357681 
L 230.407207 293.774136 
L 230.813432 291.761803 
L 231.219656 250.90472 
L 231.62588 281.623734 
L 232.032105 236.64377 
L 232.438329 260.39282 
L 232.844554 260.861065 
L 233.250778 237.113566 
L 233.657002 303.283202 
L 234.063227 238.295795 
L 234.469451 354.582569 
L 235.2819 348.413925 
L 235.688124 309.01798 
L 236.094349 315.3952 
L 236.500573 311.843444 
L 236.906798 276.759538 
L 237.313022 284.090376 
L 237.719247 214.429044 
L 238.125471 284.45362 
L 238.531695 326.481123 
L 238.93792 334.004739 
L 239.344144 359.514482 
L 239.750369 354.556334 
L 240.156593 352.761914 
L 240.562817 320.421527 
L 240.969042 355.112472 
L 241.375266 359.279652 
L 241.781491 364.813328 
L 242.187715 327.137304 
L 242.593939 346.956611 
L 243.000164 329.944738 
L 243.406388 354.667389 
L 243.812613 247.565469 
L 244.218837 276.640987 
L 245.031286 256.961524 
L 245.43751 271.653941 
L 245.843735 247.031019 
L 246.249959 261.064869 
L 246.656183 314.484288 
L 247.062408 330.600053 
L 247.468632 305.954076 
L 247.874857 249.356966 
L 248.281081 260.485507 
L 248.687305 244.001939 
L 249.09353 270.103133 
L 249.499754 261.134133 
L 249.905979 282.10494 
L 250.312203 280.25562 
L 250.718428 339.463961 
L 251.124652 360.23299 
L 251.530876 363.487268 
L 251.937101 363.913594 
L 252.343325 362.415903 
L 252.74955 320.010393 
L 253.561998 269.757124 
L 253.968223 260.459514 
L 254.374447 223.32882 
L 254.780672 282.497334 
L 255.999345 372.997131 
L 256.405569 374.31892 
L 256.811794 255.7011 
L 257.218018 281.932954 
L 257.624242 249.278573 
L 258.030467 292.715031 
L 258.436691 281.943011 
L 258.842916 368.183483 
L 259.24914 366.278399 
L 259.655364 366.284004 
L 260.061589 363.139771 
L 260.467813 369.381597 
L 260.874038 355.095982 
L 261.686486 315.841195 
L 262.092711 308.211886 
L 262.498935 336.438559 
L 262.90516 336.620719 
L 263.311384 337.315152 
L 263.717609 372.119161 
L 264.123833 367.720694 
L 264.530057 295.29951 
L 264.936282 307.557391 
L 265.342506 284.434055 
L 265.748731 241.011249 
L 266.154955 324.95028 
L 266.561179 295.78531 
L 266.967404 330.391241 
L 267.373628 331.864384 
L 267.779853 332.03765 
L 268.186077 351.634732 
L 268.592301 273.428315 
L 269.40475 306.706859 
L 270.217199 261.302604 
L 270.623423 272.955307 
L 271.029648 350.883056 
L 271.435872 322.46481 
L 271.842097 372.176775 
L 272.248321 370.948126 
L 272.654545 228.052959 
L 273.06077 302.402568 
L 273.873219 247.575437 
L 274.279443 290.637743 
L 274.685667 214.291136 
L 275.091892 352.496463 
L 275.498116 357.363765 
L 275.904341 307.3463 
L 276.310565 287.979223 
L 276.71679 214.05299 
L 277.123014 283.970557 
L 277.529238 237.472314 
L 277.935463 260.841683 
L 278.341687 261.371642 
L 278.747912 281.206884 
L 279.154136 319.766429 
L 279.56036 309.349687 
L 279.966585 317.323066 
L 280.372809 317.266013 
L 280.779034 296.185477 
L 281.591482 316.724189 
L 281.997707 302.959709 
L 282.403931 315.008707 
L 282.810156 363.369551 
L 283.622604 264.672159 
L 284.028829 348.4498 
L 284.435053 360.557019 
L 284.841278 306.710613 
L 285.247502 357.972355 
L 285.653726 363.962842 
L 286.059951 361.413763 
L 286.466175 360.550876 
L 286.8724 361.188703 
L 287.278624 367.484185 
L 287.684848 365.963428 
L 288.091073 245.552585 
L 288.497297 330.582244 
L 288.903522 343.544573 
L 289.309746 301.812991 
L 289.715971 237.946203 
L 290.122195 260.735712 
L 290.528419 292.461399 
L 290.934644 346.147483 
L 291.340868 363.650093 
L 291.747093 359.271836 
L 292.153317 367.239567 
L 292.559541 367.154903 
L 292.965766 341.567321 
L 293.37199 367.720292 
L 293.778215 354.846637 
L 294.184439 313.967563 
L 294.590663 286.662958 
L 294.996888 328.696277 
L 295.403112 300.90526 
L 295.809337 370.520015 
L 296.215561 360.483527 
L 296.621785 346.247547 
L 297.434234 220.917766 
L 298.246683 331.058893 
L 298.652907 285.345382 
L 299.059132 363.684856 
L 299.465356 332.102008 
L 299.871581 345.416674 
L 300.277805 366.804597 
L 300.684029 365.156873 
L 301.090254 367.686165 
L 301.902703 363.369626 
L 302.308927 367.482562 
L 303.121376 309.923968 
L 303.5276 360.145339 
L 303.933825 367.756928 
L 304.340049 365.696313 
L 304.746274 368.672279 
L 305.152498 363.824407 
L 305.558722 334.864855 
L 305.964947 263.347314 
L 306.371171 286.29817 
L 306.777396 282.474725 
L 307.18362 287.183799 
L 307.589844 350.412605 
L 307.996069 345.145469 
L 308.402293 239.309131 
L 308.808518 214.92788 
L 309.214742 267.462955 
L 309.620966 196.21249 
L 310.027191 283.273205 
L 310.433415 237.472314 
L 310.83964 284.180783 
L 311.245864 310.75078 
L 311.652088 357.278094 
L 312.058313 359.288783 
L 312.464537 337.860872 
L 312.870762 325.148667 
L 313.276986 350.642279 
L 313.68321 351.439577 
L 314.089435 338.520822 
L 314.495659 311.358258 
L 314.901884 271.73175 
L 315.308108 269.682358 
L 315.714333 323.088843 
L 316.120557 256.472668 
L 316.526781 360.095007 
L 316.933006 360.539187 
L 317.33923 346.302322 
L 317.745455 268.176582 
L 318.151679 341.19466 
L 318.557903 339.535788 
L 318.964128 323.244386 
L 319.370352 352.926437 
L 319.776577 359.890412 
L 320.182801 363.807374 
L 320.589025 302.286878 
L 320.99525 293.588582 
L 321.401474 276.209391 
L 321.807699 298.761195 
L 322.213923 345.726088 
L 322.620147 298.289509 
L 323.026372 360.035045 
L 323.432596 330.778175 
L 323.838821 366.504824 
L 324.245045 360.093605 
L 324.651269 328.907689 
L 325.057494 360.889033 
L 325.463718 361.188146 
L 325.869943 230.737301 
L 326.276167 284.563508 
L 326.682391 238.408419 
L 327.088616 280.157156 
L 327.49484 235.539302 
L 327.901065 333.043642 
L 328.307289 362.518481 
L 328.713514 362.651826 
L 329.119738 365.417009 
L 329.525962 365.389553 
L 329.932187 360.518925 
L 330.338411 363.69469 
L 331.15086 289.736669 
L 331.557084 349.576888 
L 331.963309 360.831413 
L 332.369533 358.208798 
L 332.775758 332.955515 
L 333.181982 290.324236 
L 333.588206 266.462587 
L 333.994431 316.607368 
L 334.400655 281.707671 
L 334.80688 269.296574 
L 335.213104 261.371642 
L 335.619328 237.263376 
L 336.025553 342.470658 
L 336.431777 353.160241 
L 336.838002 261.547561 
L 337.244226 251.925785 
L 337.65045 232.703791 
L 338.462899 327.800216 
L 338.869124 346.49951 
L 339.275348 343.086721 
L 339.681572 338.224206 
L 340.087797 358.130302 
L 340.494021 357.766242 
L 340.900246 359.163174 
L 341.30647 357.194427 
L 341.712695 357.624326 
L 342.118919 344.145014 
L 342.525143 344.830132 
L 342.931368 316.495339 
L 343.337592 278.684056 
L 343.743817 286.382789 
L 344.150041 353.451221 
L 344.556265 331.693966 
L 344.96249 355.712213 
L 345.368714 354.088463 
L 345.774939 258.183473 
L 346.181163 241.284527 
L 346.587387 306.882205 
L 346.993612 237.664927 
L 347.399836 260.600151 
L 347.806061 260.809089 
L 348.212285 342.734391 
L 348.618509 273.873205 
L 349.024734 260.466665 
L 349.430958 260.445264 
L 349.837183 237.263376 
L 350.243407 283.970557 
L 350.649631 214.344475 
L 351.055856 284.45362 
L 351.46208 237.664927 
L 351.868305 260.600151 
L 352.274529 354.887859 
L 352.680753 346.249326 
L 353.086978 355.475349 
L 353.493202 320.504622 
L 354.305651 351.127184 
L 354.711876 335.706262 
L 355.524324 278.188036 
L 355.930549 272.455541 
L 356.336773 304.641185 
L 356.742998 371.444586 
L 357.149222 343.614209 
L 357.555446 372.83427 
L 357.961671 374.702792 
L 358.367895 369.938073 
L 358.77412 328.968056 
L 359.180344 352.593004 
L 359.586568 237.153382 
L 359.992793 283.648043 
L 360.399017 300.667043 
L 360.805242 336.741201 
L 361.211466 362.570926 
L 362.023915 362.719853 
L 362.430139 361.909544 
L 362.836364 362.179544 
L 363.242588 359.141514 
L 363.648812 297.678547 
L 364.055037 333.133313 
L 364.461261 329.34234 
L 364.867486 345.245969 
L 365.27371 340.741848 
L 366.086159 317.111646 
L 366.492383 343.201367 
L 366.898608 348.353236 
L 367.711057 241.922291 
L 368.117281 276.359872 
L 368.523505 335.599978 
L 368.92973 318.109788 
L 369.335954 354.837273 
L 369.742179 332.220041 
L 370.148403 340.873619 
L 370.554627 328.901264 
L 370.960852 310.260821 
L 371.367076 263.447895 
L 371.773301 294.338983 
L 372.179525 282.892306 
L 372.585749 324.714314 
L 372.991974 337.641168 
L 373.398198 356.761759 
L 373.804423 367.870496 
L 374.210647 365.856973 
L 374.616871 363.215292 
L 375.023096 334.522648 
L 375.42932 342.547678 
L 375.835545 340.989222 
L 376.241769 368.358264 
L 376.647993 364.957441 
L 377.054218 356.903646 
L 377.460442 359.359628 
L 378.272891 317.498625 
L 379.08534 255.450613 
L 379.491564 290.76347 
L 379.897789 267.55761 
L 380.710238 362.026657 
L 381.116462 357.740018 
L 381.522686 355.40128 
L 381.928911 360.909233 
L 382.335135 362.42206 
L 382.74136 341.973448 
L 383.147584 234.580471 
L 383.553808 352.781728 
L 383.960033 360.602674 
L 384.366257 361.331738 
L 384.772482 328.125635 
L 385.178706 331.903595 
L 385.58493 317.792949 
L 385.991155 283.25834 
L 386.397379 287.403509 
L 387.209828 237.665361 
L 387.616052 281.179708 
L 388.022277 358.87684 
L 388.428501 360.318698 
L 388.834726 366.455555 
L 389.24095 365.71403 
L 389.647174 366.542904 
L 390.053399 361.088664 
L 390.459623 284.236059 
L 390.865848 259.893379 
L 391.272072 262.99422 
L 392.084521 315.839957 
L 392.490745 323.728554 
L 392.89697 343.967497 
L 393.303194 353.05908 
L 393.709419 349.091697 
L 394.115643 271.01473 
L 394.521867 373.511338 
L 394.928092 369.886082 
L 395.334316 371.237423 
L 395.740541 332.979371 
L 396.146765 281.679727 
L 396.552989 260.349799 
L 396.959214 330.37148 
L 397.365438 358.9902 
L 397.771663 361.6264 
L 398.177887 327.453453 
L 398.584111 338.9981 
L 398.990336 313.927061 
L 399.39656 340.231985 
L 399.802785 328.215494 
L 400.209009 341.773474 
L 400.615233 271.671081 
L 401.021458 349.531761 
L 401.427682 349.441693 
L 401.833907 364.135059 
L 402.240131 367.573255 
L 402.646355 359.367081 
L 403.05258 326.142412 
L 403.458804 261.724454 
L 403.865029 356.115017 
L 404.271253 371.000886 
L 404.677477 370.839755 
L 405.489926 349.842969 
L 405.896151 358.541531 
L 406.302375 362.834316 
L 406.7086 345.005872 
L 407.114824 359.249343 
L 407.521048 345.016253 
L 407.927273 342.49291 
L 408.739722 247.336902 
L 409.55217 343.189891 
L 409.958395 321.72504 
L 410.364619 356.429248 
L 410.770844 355.981844 
L 411.177068 346.571512 
L 411.583292 330.249108 
L 411.989517 341.915005 
L 412.395741 311.732997 
L 412.801966 300.50463 
L 413.20819 280.298473 
L 413.614414 300.656578 
L 414.426863 263.095895 
L 414.833088 263.900939 
L 415.239312 265.719546 
L 415.645536 316.666983 
L 416.051761 314.41262 
L 416.457985 321.351253 
L 416.86421 315.20758 
L 417.270434 271.666046 
L 417.676658 181.555064 
L 418.489107 147.09696 
L 418.895332 145.01796 
L 420.926454 145.01796 
L 421.332678 328.08272 
L 498.109091 328.08272 
L 498.109091 328.08272 
" style="fill:none;stroke:#0000ff;stroke-linecap:square;stroke-width:1.5;"/>
   </g>
   <g id="line2d_14">
    <path clip-path="url(#pad9b7b2253)" d="M 92.290909 186.193914 
L 92.697133 184.087955 
L 93.103358 171.394565 
L 93.509582 173.53155 
L 93.915807 171.199202 
L 94.322031 182.157132 
L 94.728256 219.357012 
L 95.13448 215.887281 
L 95.540704 220.296893 
L 95.946929 226.140878 
L 96.353153 211.035429 
L 96.759378 223.731702 
L 97.165602 232.111329 
L 97.571826 207.497724 
L 97.978051 226.824023 
L 98.384275 208.154064 
L 98.7905 223.467081 
L 99.196724 208.559084 
L 99.602948 220.385105 
L 100.009173 220.104549 
L 100.415397 179.300878 
L 100.821622 222.051093 
L 101.227846 241.470911 
L 101.63407 213.952156 
L 102.040295 249.658543 
L 102.852744 193.939234 
L 103.258968 222.339533 
L 103.665192 221.539937 
L 104.071417 218.907374 
L 104.477641 219.132593 
L 104.883866 249.107155 
L 105.29009 206.832071 
L 105.696314 217.675806 
L 106.102539 216.444058 
L 106.508763 240.607745 
L 106.914988 204.860293 
L 107.321212 193.437437 
L 107.727437 247.671932 
L 108.539885 211.691743 
L 108.94611 224.916002 
L 109.352334 204.168112 
L 109.758559 219.693724 
L 110.164783 218.125854 
L 110.571007 214.340941 
L 110.977232 223.935621 
L 111.383456 220.392015 
L 111.789681 221.513042 
L 112.195905 218.186404 
L 112.602129 230.489256 
L 113.008354 181.204808 
L 113.414578 219.484417 
L 113.820803 197.954847 
L 114.227027 237.798976 
L 114.633251 213.567016 
L 115.039476 223.879554 
L 115.4457 222.975526 
L 115.851925 205.919055 
L 116.258149 220.026534 
L 116.664373 223.405385 
L 117.070598 209.027737 
L 117.476822 221.953336 
L 117.883047 216.686374 
L 118.289271 203.292543 
L 118.695495 230.579701 
L 119.10172 204.391263 
L 119.507944 215.667388 
L 119.914169 232.639842 
L 120.320393 231.179292 
L 120.726618 217.546836 
L 121.132842 198.99205 
L 121.539066 224.199123 
L 121.945291 226.578569 
L 122.351515 216.111825 
L 123.163964 207.791359 
L 123.570188 222.07187 
L 123.976413 217.522112 
L 124.382637 224.089981 
L 124.788862 223.857151 
L 125.195086 226.859665 
L 126.007535 204.265735 
L 126.413759 226.354779 
L 126.819984 215.10402 
L 127.226208 210.608487 
L 127.632432 220.151237 
L 128.038657 217.182849 
L 128.444881 225.823942 
L 128.851106 199.827567 
L 129.25733 210.831156 
L 129.663554 228.375646 
L 130.069779 226.824624 
L 130.476003 200.275169 
L 130.882228 227.324271 
L 131.288452 208.650398 
L 131.694676 217.99802 
L 132.100901 223.857205 
L 132.91335 199.849684 
L 133.319574 209.71746 
L 133.725799 190.446848 
L 134.132023 225.020203 
L 134.538247 233.101826 
L 134.944472 200.04239 
L 135.350696 212.093028 
L 135.756921 194.708578 
L 136.163145 215.360632 
L 136.569369 201.575219 
L 136.975594 218.249329 
L 137.381818 212.717035 
L 137.788043 216.185654 
L 138.194267 209.433631 
L 138.600491 228.351951 
L 139.006716 209.913465 
L 139.41294 226.3057 
L 139.819165 216.924831 
L 140.225389 225.978087 
L 140.631613 209.817661 
L 141.037838 208.673208 
L 141.444062 213.486321 
L 141.850287 223.540722 
L 142.256511 214.666986 
L 142.662735 209.746766 
L 143.475184 236.026358 
L 143.881409 202.112011 
L 144.287633 205.782303 
L 144.693857 238.458485 
L 145.100082 223.029998 
L 145.506306 227.137211 
L 145.912531 222.307342 
L 146.318755 199.93816 
L 146.72498 216.050899 
L 147.131204 215.055944 
L 147.537428 207.5297 
L 147.943653 221.720684 
L 148.349877 216.122104 
L 148.756102 218.739112 
L 149.162326 216.170884 
L 149.56855 238.07059 
L 149.974775 217.605405 
L 150.380999 231.105301 
L 150.787224 205.658774 
L 151.193448 219.537849 
L 151.599672 200.733697 
L 152.005897 234.11557 
L 152.412121 209.21391 
L 152.818346 226.882565 
L 153.22457 230.427344 
L 153.630794 245.786227 
L 154.037019 189.905661 
L 154.443243 213.682059 
L 154.849468 220.130912 
L 155.255692 219.335657 
L 155.661916 204.558013 
L 156.068141 240.866733 
L 156.474365 203.74474 
L 157.286814 243.658364 
L 157.693038 199.043305 
L 158.099263 234.16229 
L 158.505487 220.48754 
L 158.911712 216.599605 
L 159.317936 227.324271 
L 159.724161 210.28875 
L 160.130385 232.358013 
L 160.536609 203.905617 
L 160.942834 205.299861 
L 161.349058 226.258781 
L 161.755283 216.797521 
L 162.161507 229.510394 
L 162.567731 223.903526 
L 162.973956 206.521343 
L 163.38018 208.387839 
L 163.786405 218.966196 
L 164.192629 207.333621 
L 164.598853 224.722477 
L 165.005078 213.125965 
L 165.411302 221.874897 
L 165.817527 241.148708 
L 166.223751 184.899605 
L 166.629975 219.212742 
L 167.0362 207.051009 
L 167.442424 229.165772 
L 167.848649 227.474118 
L 168.661097 212.005716 
L 169.067322 227.909616 
L 169.473546 214.390033 
L 169.879771 221.3624 
L 170.285995 220.53312 
L 170.692219 205.125699 
L 171.098444 218.034117 
L 171.504668 225.698599 
L 171.910893 210.785217 
L 172.317117 191.079811 
L 172.723342 216.000469 
L 173.129566 208.410386 
L 173.53579 185.233971 
L 174.348239 248.883586 
L 174.754464 237.36258 
L 175.160688 230.209699 
L 175.566912 203.295009 
L 175.973137 230.923923 
L 176.379361 197.600377 
L 176.785586 226.157675 
L 177.19181 215.7212 
L 177.598034 211.341694 
L 178.004259 211.361334 
L 178.410483 204.516749 
L 178.816708 227.771403 
L 179.222932 233.063807 
L 179.629156 200.793733 
L 180.035381 208.121084 
L 180.441605 225.441711 
L 180.84783 213.220103 
L 181.254054 208.098292 
L 181.660278 211.867609 
L 182.472727 236.569165 
L 182.878952 203.932206 
L 183.285176 208.580753 
L 183.6914 222.888366 
L 184.097625 205.891041 
L 184.503849 218.427905 
L 184.910074 214.796009 
L 185.316298 220.56444 
L 185.722523 215.880009 
L 186.128747 225.759293 
L 186.534971 213.732306 
L 186.941196 207.172027 
L 187.34742 218.034117 
L 187.753645 215.36629 
L 188.159869 199.574897 
L 188.566093 221.250647 
L 188.972318 215.268958 
L 189.378542 216.125083 
L 189.784767 211.267174 
L 190.190991 220.219316 
L 190.597215 199.577567 
L 191.00344 217.10274 
L 191.409664 213.157464 
L 191.815889 221.430899 
L 192.222113 204.289019 
L 193.034562 218.699434 
L 193.440786 214.725864 
L 193.847011 207.053161 
L 194.253235 223.584695 
L 194.659459 220.039599 
L 195.065684 209.088588 
L 195.471908 219.322242 
L 195.878133 218.732165 
L 196.284357 225.96609 
L 196.690581 205.408876 
L 197.50303 230.189216 
L 198.315479 197.953553 
L 199.127928 239.55123 
L 199.534152 198.648108 
L 199.940377 226.630231 
L 200.346601 242.493892 
L 200.752826 216.677616 
L 201.15905 229.353867 
L 201.565274 233.205618 
L 201.971499 231.035489 
L 202.377723 195.353348 
L 202.783948 229.267227 
L 203.190172 218.723475 
L 203.596396 227.286114 
L 204.002621 194.513622 
L 204.408845 214.494163 
L 204.81507 219.970253 
L 205.221294 206.684496 
L 205.627518 204.485467 
L 206.033743 225.66958 
L 206.846192 204.172785 
L 207.252416 221.228929 
L 207.65864 206.071877 
L 208.064865 233.07484 
L 208.471089 227.608393 
L 208.877314 214.23249 
L 209.283538 212.869831 
L 209.689762 216.017367 
L 210.095987 227.327141 
L 210.502211 211.960625 
L 210.908436 222.628978 
L 211.31466 207.318146 
L 211.720885 217.334565 
L 212.127109 198.358363 
L 212.533333 214.973212 
L 212.939558 209.582345 
L 213.345782 208.171712 
L 213.752007 218.916058 
L 214.158231 214.193118 
L 214.564455 221.55309 
L 214.97068 219.746056 
L 215.376904 228.310758 
L 215.783129 202.803953 
L 216.189353 200.521453 
L 216.595577 215.443878 
L 217.001802 209.475986 
L 217.408026 228.626068 
L 217.814251 229.650578 
L 218.220475 206.349155 
L 218.626699 226.25314 
L 219.032924 217.773598 
L 219.439148 220.42448 
L 219.845373 232.835864 
L 220.251597 218.01852 
L 220.657821 220.973151 
L 221.064046 219.525864 
L 221.47027 198.107646 
L 221.876495 218.85636 
L 222.282719 222.785783 
L 222.688943 215.345248 
L 223.095168 205.474856 
L 223.501392 225.043925 
L 223.907617 220.064316 
L 224.313841 200.234637 
L 224.720066 223.610572 
L 225.12629 217.241019 
L 225.532514 218.024923 
L 225.938739 229.895134 
L 226.344963 204.667673 
L 227.157412 234.285204 
L 227.563636 205.533056 
L 227.969861 237.952428 
L 228.376085 206.180359 
L 228.78231 221.722732 
L 229.188534 215.233912 
L 229.594758 213.74372 
L 230.000983 215.914997 
L 230.407207 222.172445 
L 230.813432 208.978582 
L 231.219656 217.976495 
L 231.62588 222.481906 
L 232.032105 220.776137 
L 232.438329 214.897641 
L 232.844554 219.359322 
L 233.250778 209.234477 
L 233.657002 227.493845 
L 234.063227 192.614655 
L 234.469451 245.083119 
L 234.875676 218.230394 
L 235.2819 227.245081 
L 236.094349 209.504529 
L 236.500573 212.681054 
L 236.906798 213.100342 
L 237.313022 229.222488 
L 237.719247 199.789144 
L 238.125471 227.909616 
L 238.531695 217.246514 
L 238.93792 209.689291 
L 239.344144 241.018828 
L 239.750369 220.558581 
L 240.156593 211.201009 
L 240.562817 222.523224 
L 240.969042 196.133195 
L 241.781491 243.189493 
L 242.187715 223.818606 
L 242.593939 222.73748 
L 243.000164 211.527493 
L 243.406388 225.664061 
L 243.812613 207.583921 
L 244.218837 221.088931 
L 244.625061 219.50528 
L 245.031286 231.253671 
L 245.43751 208.97842 
L 245.843735 234.957463 
L 246.249959 217.200693 
L 246.656183 210.005032 
L 247.062408 213.760461 
L 247.468632 214.332724 
L 247.874857 231.384244 
L 248.281081 214.041704 
L 248.687305 207.015632 
L 249.09353 217.985736 
L 249.499754 221.131823 
L 249.905979 222.200308 
L 250.312203 230.220304 
L 250.718428 207.500564 
L 251.124652 245.893668 
L 251.530876 231.207638 
L 251.937101 208.408135 
L 252.343325 205.630408 
L 252.74955 225.144131 
L 253.155774 213.393922 
L 253.561998 212.421118 
L 253.968223 218.17164 
L 254.374447 194.947903 
L 254.780672 242.625908 
L 255.59312 209.561521 
L 255.999345 222.338622 
L 256.405569 228.252923 
L 256.811794 210.374604 
L 257.218018 210.737301 
L 257.624242 210.197053 
L 258.030467 218.246518 
L 258.436691 213.443023 
L 258.842916 258.821335 
L 259.24914 192.281069 
L 260.061589 244.517563 
L 260.467813 220.457891 
L 260.874038 234.59318 
L 261.686486 206.586911 
L 262.092711 216.815582 
L 262.498935 222.93869 
L 262.90516 209.042185 
L 263.311384 171.370514 
L 263.717609 250.060651 
L 264.123833 218.382323 
L 264.530057 218.425524 
L 264.936282 222.989724 
L 265.342506 215.779141 
L 265.748731 204.029073 
L 266.154955 232.94113 
L 266.967404 213.70383 
L 267.779853 240.588701 
L 268.186077 205.955426 
L 268.592301 213.582126 
L 268.998526 216.354336 
L 269.40475 215.635904 
L 269.810975 221.014519 
L 270.217199 207.196334 
L 271.029648 219.384019 
L 271.435872 206.374307 
L 271.842097 236.064611 
L 272.248321 223.47185 
L 273.06077 243.474281 
L 273.466994 216.017003 
L 273.873219 206.121126 
L 274.279443 227.940733 
L 274.685667 204.147474 
L 275.091892 224.599785 
L 275.498116 213.483149 
L 275.904341 206.855976 
L 276.310565 227.998117 
L 276.71679 200.275169 
L 277.123014 227.324271 
L 277.529238 208.650398 
L 277.935463 218.747348 
L 278.341687 218.552785 
L 278.747912 219.509716 
L 279.154136 209.445381 
L 279.56036 238.723393 
L 279.966585 241.631237 
L 280.372809 220.354455 
L 280.779034 232.966148 
L 281.185258 217.719603 
L 281.591482 220.104909 
L 281.997707 197.600612 
L 282.403931 197.141868 
L 282.810156 249.659011 
L 283.21638 210.543369 
L 283.622604 217.595542 
L 284.028829 218.311972 
L 284.435053 222.441145 
L 284.841278 202.939158 
L 285.653726 228.672326 
L 286.059951 196.297266 
L 286.466175 193.106185 
L 286.8724 203.075102 
L 287.278624 235.20042 
L 287.684848 190.102629 
L 288.091073 221.145784 
L 288.497297 210.145363 
L 289.309746 232.027877 
L 289.715971 209.115823 
L 290.122195 217.923257 
L 290.528419 211.191927 
L 290.934644 223.98881 
L 291.340868 231.470814 
L 291.747093 199.09805 
L 292.153317 238.208182 
L 292.559541 204.410372 
L 292.965766 240.195986 
L 293.37199 239.171328 
L 293.778215 194.795546 
L 294.184439 222.094766 
L 294.590663 207.205432 
L 294.996888 238.972986 
L 295.403112 141.273825 
L 295.809337 245.78746 
L 296.621785 199.046966 
L 297.02801 236.018096 
L 297.434234 217.236893 
L 297.840459 218.382953 
L 298.246683 217.80997 
L 298.652907 210.647862 
L 299.059132 220.096826 
L 299.465356 239.220338 
L 299.871581 213.629178 
L 300.277805 219.35025 
L 300.684029 195.685721 
L 301.090254 245.466707 
L 301.902703 194.943574 
L 302.308927 245.830334 
L 302.715152 220.319025 
L 303.121376 252.140455 
L 303.5276 186.508138 
L 303.933825 219.204694 
L 304.340049 186.380263 
L 304.746274 251.801395 
L 305.152498 186.813216 
L 305.558722 255.346108 
L 306.371171 213.956553 
L 306.777396 201.597352 
L 307.18362 203.685634 
L 307.589844 218.741857 
L 307.996069 210.749498 
L 308.402293 218.556406 
L 308.808518 233.451347 
L 309.214742 204.234236 
L 309.620966 238.196505 
L 310.027191 216.401763 
L 310.433415 208.650398 
L 310.83964 221.497324 
L 311.245864 216.623022 
L 311.652088 216.179066 
L 312.058313 213.901454 
L 312.464537 229.060153 
L 312.870762 225.26066 
L 313.276986 200.897176 
L 313.68321 220.845818 
L 314.089435 209.031984 
L 314.495659 214.522763 
L 314.901884 217.530179 
L 315.308108 217.538381 
L 315.714333 223.301493 
L 316.120557 207.696335 
L 316.526781 221.720952 
L 316.933006 219.110786 
L 317.33923 217.716346 
L 317.745455 206.303099 
L 318.151679 222.305938 
L 318.557903 212.519615 
L 318.964128 220.402088 
L 319.370352 205.883273 
L 319.776577 214.744134 
L 320.182801 240.355592 
L 320.589025 218.451442 
L 320.99525 222.525628 
L 321.401474 218.507115 
L 321.807699 224.256356 
L 322.213923 208.008471 
L 322.620147 208.447793 
L 323.026372 220.145476 
L 323.432596 222.598343 
L 323.838821 231.804925 
L 324.245045 221.369483 
L 324.651269 234.916813 
L 325.057494 225.270891 
L 325.463718 220.322541 
L 325.869943 210.036874 
L 326.276167 219.566185 
L 326.682391 218.677626 
L 327.088616 219.881648 
L 327.49484 220.008852 
L 327.901065 207.57745 
L 328.307289 218.149851 
L 328.713514 201.095544 
L 329.119738 239.562847 
L 329.525962 237.934928 
L 329.932187 202.902381 
L 330.338411 202.911346 
L 330.744636 224.745612 
L 331.15086 215.045053 
L 331.963309 224.322991 
L 332.369533 214.841941 
L 332.775758 223.650605 
L 333.181982 215.688817 
L 333.588206 212.984255 
L 333.994431 232.570472 
L 334.80688 209.314898 
L 335.213104 218.552785 
L 336.025553 198.817569 
L 336.431777 231.400089 
L 336.838002 236.980072 
L 337.244226 215.31944 
L 337.65045 225.783812 
L 338.056675 223.700282 
L 338.462899 222.207163 
L 338.869124 221.361167 
L 339.275348 217.121169 
L 339.681572 226.8671 
L 340.494021 218.19979 
L 340.900246 219.984852 
L 341.30647 225.380662 
L 341.712695 217.845556 
L 342.118919 216.593633 
L 342.525143 222.982913 
L 342.931368 223.334662 
L 343.337592 218.591817 
L 343.743817 215.780955 
L 344.150041 218.243853 
L 344.556265 212.725461 
L 344.96249 211.240287 
L 345.368714 224.384438 
L 345.774939 216.089254 
L 346.181163 212.376317 
L 346.587387 229.182366 
L 346.993612 209.437437 
L 347.399836 216.96068 
L 347.806061 217.361323 
L 348.212285 222.72261 
L 348.618509 219.421759 
L 349.024734 217.528472 
L 349.430958 217.130949 
L 349.837183 208.249756 
L 350.243407 227.324271 
L 350.649631 203.998476 
L 351.055856 227.909616 
L 351.46208 209.437437 
L 351.868305 216.96068 
L 353.086978 222.248715 
L 353.493202 206.401666 
L 354.305651 223.55597 
L 354.711876 202.89397 
L 355.1181 240.118486 
L 355.524324 215.841735 
L 355.930549 220.829122 
L 356.742998 267.273739 
L 357.149222 170.353423 
L 357.555446 219.243224 
L 357.961671 251.044923 
L 358.367895 221.121002 
L 358.77412 204.974732 
L 359.180344 237.152904 
L 359.586568 200.951241 
L 359.992793 231.701423 
L 360.399017 213.9912 
L 360.805242 213.270543 
L 361.211466 220.207976 
L 361.61769 218.551685 
L 362.023915 220.528263 
L 362.430139 212.593853 
L 362.836364 220.139817 
L 363.242588 218.168665 
L 364.055037 206.077819 
L 364.461261 193.916417 
L 364.867486 213.502561 
L 365.27371 216.825028 
L 365.679934 229.981268 
L 366.086159 208.189867 
L 366.492383 209.75514 
L 367.304832 229.194361 
L 367.711057 209.115823 
L 368.117281 218.616183 
L 368.523505 221.207393 
L 368.92973 203.697864 
L 369.335954 245.556543 
L 369.742179 214.243028 
L 370.148403 230.891221 
L 370.554627 211.972726 
L 370.960852 239.769354 
L 371.367076 207.504664 
L 371.773301 226.881038 
L 372.179525 227.916342 
L 372.585749 232.097303 
L 372.991974 190.005183 
L 373.398198 204.088655 
L 373.804423 247.475918 
L 374.210647 194.480802 
L 374.616871 225.829946 
L 375.023096 231.483029 
L 375.42932 234.803561 
L 375.835545 250.350888 
L 376.241769 186.314757 
L 376.647993 243.834473 
L 377.054218 199.51086 
L 377.460442 207.863264 
L 377.866667 240.035731 
L 378.272891 206.762776 
L 378.679115 218.968526 
L 379.08534 209.2674 
L 379.491564 232.810174 
L 379.897789 208.39669 
L 380.304013 226.072099 
L 380.710238 235.151835 
L 381.116462 226.665552 
L 381.522686 214.005755 
L 381.928911 224.588967 
L 382.335135 211.085766 
L 382.74136 224.971132 
L 383.147584 208.294084 
L 383.553808 215.699979 
L 383.960033 216.486457 
L 384.366257 217.963508 
L 384.772482 229.70996 
L 385.178706 224.549461 
L 385.58493 221.97145 
L 385.991155 225.65052 
L 386.397379 216.820017 
L 386.803604 222.494691 
L 387.209828 212.056333 
L 387.616052 209.691435 
L 388.022277 220.158823 
L 388.428501 226.476222 
L 388.834726 215.709594 
L 389.24095 251.641249 
L 389.647174 226.238631 
L 390.053399 227.737672 
L 390.459623 189.603399 
L 390.865848 213.301091 
L 391.272072 272.063819 
L 391.678296 223.873148 
L 392.084521 202.949463 
L 392.490745 245.579162 
L 392.89697 211.616729 
L 393.303194 191.893713 
L 393.709419 243.165402 
L 394.115643 207.769982 
L 394.521867 253.634033 
L 394.928092 186.433006 
L 395.334316 221.556249 
L 395.740541 225.967369 
L 396.146765 218.26451 
L 396.552989 229.000635 
L 396.959214 217.314499 
L 397.365438 222.186442 
L 397.771663 217.613662 
L 398.177887 224.073827 
L 398.584111 223.341869 
L 398.990336 214.682227 
L 399.39656 221.2869 
L 399.802785 221.200731 
L 400.209009 217.007081 
L 400.615233 222.303473 
L 401.021458 242.762545 
L 401.427682 195.527213 
L 402.240131 246.065306 
L 402.646355 204.069484 
L 403.05258 218.807067 
L 403.458804 227.328151 
L 403.865029 201.228359 
L 404.271253 250.18547 
L 404.677477 249.677924 
L 405.489926 198.06533 
L 405.896151 201.14528 
L 406.302375 246.915264 
L 406.7086 240.162705 
L 407.114824 210.569224 
L 407.521048 243.224509 
L 407.927273 212.896954 
L 408.333497 234.990813 
L 408.739722 216.353646 
L 409.55217 230.757476 
L 409.958395 237.608679 
L 410.364619 200.388688 
L 410.770844 239.43875 
L 411.177068 222.919287 
L 411.989517 236.872636 
L 412.395741 228.95129 
L 412.801966 204.067045 
L 413.20819 192.316347 
L 413.614414 234.422673 
L 414.426863 207.286837 
L 414.833088 207.622158 
L 415.239312 204.200271 
L 415.645536 235.146329 
L 416.051761 226.536866 
L 416.457985 230.537601 
L 416.86421 245.399857 
L 417.270434 143.388128 
L 417.676658 152.247407 
L 418.082883 152.792 
L 418.489107 170.552683 
L 418.895332 172.628864 
L 420.926454 172.628864 
L 421.332678 374.521026 
L 498.109091 374.521026 
L 498.109091 374.521026 
" style="fill:none;stroke:#008000;stroke-linecap:square;stroke-width:1.5;"/>
   </g>
   <g id="patch_3">
    <path d="M 72 384.48 
L 72 51.84 
" style="fill:none;stroke:#000000;stroke-linecap:square;stroke-linejoin:miter;stroke-width:0.8;"/>
   </g>
   <g id="patch_4">
    <path d="M 518.4 384.48 
L 518.4 51.84 
" style="fill:none;stroke:#000000;stroke-linecap:square;stroke-linejoin:miter;stroke-width:0.8;"/>
   </g>
   <g id="patch_5">
    <path d="M 72 384.48 
L 518.4 384.48 
" style="fill:none;stroke:#000000;stroke-linecap:square;stroke-linejoin:miter;stroke-width:0.8;"/>
   </g>
   <g id="patch_6">
    <path d="M 72 51.84 
L 518.4 51.84 
" style="fill:none;stroke:#000000;stroke-linecap:square;stroke-linejoin:miter;stroke-width:0.8;"/>
   </g>
   <g id="legend_1">
    <g id="patch_7">
     <path d="M 79 89.19625 
L 156.107812 89.19625 
Q 158.107812 89.19625 158.107812 87.19625 
L 158.107812 58.84 
Q 158.107812 56.84 156.107812 56.84 
L 79 56.84 
Q 77 56.84 77 58.84 
L 77 87.19625 
Q 77 89.19625 79 89.19625 
z
" style="fill:#ffffff;opacity:0.8;stroke:#cccccc;stroke-linejoin:miter;"/>
    </g>
    <g id="line2d_15">
     <path d="M 81 64.938437 
L 101 64.938437 
" style="fill:none;stroke:#0000ff;stroke-linecap:square;stroke-width:1.5;"/>
    </g>
    <g id="line2d_16"/>
    <g id="text_15">
     <!-- precision -->
     <g transform="translate(109 68.438437)scale(0.1 -0.1)">
      <defs>
       <path d="M 9.421875 54.6875 
L 18.40625 54.6875 
L 18.40625 0 
L 9.421875 0 
z
M 9.421875 75.984375 
L 18.40625 75.984375 
L 18.40625 64.59375 
L 9.421875 64.59375 
z
" id="DejaVuSans-105"/>
       <path d="M 44.28125 53.078125 
L 44.28125 44.578125 
Q 40.484375 46.53125 36.375 47.5 
Q 32.28125 48.484375 27.875 48.484375 
Q 21.1875 48.484375 17.84375 46.4375 
Q 14.5 44.390625 14.5 40.28125 
Q 14.5 37.15625 16.890625 35.375 
Q 19.28125 33.59375 26.515625 31.984375 
L 29.59375 31.296875 
Q 39.15625 29.25 43.1875 25.515625 
Q 47.21875 21.78125 47.21875 15.09375 
Q 47.21875 7.46875 41.1875 3.015625 
Q 35.15625 -1.421875 24.609375 -1.421875 
Q 20.21875 -1.421875 15.453125 -0.5625 
Q 10.6875 0.296875 5.421875 2 
L 5.421875 11.28125 
Q 10.40625 8.6875 15.234375 7.390625 
Q 20.0625 6.109375 24.8125 6.109375 
Q 31.15625 6.109375 34.5625 8.28125 
Q 37.984375 10.453125 37.984375 14.40625 
Q 37.984375 18.0625 35.515625 20.015625 
Q 33.0625 21.96875 24.703125 23.78125 
L 21.578125 24.515625 
Q 13.234375 26.265625 9.515625 29.90625 
Q 5.8125 33.546875 5.8125 39.890625 
Q 5.8125 47.609375 11.28125 51.796875 
Q 16.75 56 26.8125 56 
Q 31.78125 56 36.171875 55.265625 
Q 40.578125 54.546875 44.28125 53.078125 
z
" id="DejaVuSans-115"/>
       <path d="M 54.890625 33.015625 
L 54.890625 0 
L 45.90625 0 
L 45.90625 32.71875 
Q 45.90625 40.484375 42.875 44.328125 
Q 39.84375 48.1875 33.796875 48.1875 
Q 26.515625 48.1875 22.3125 43.546875 
Q 18.109375 38.921875 18.109375 30.90625 
L 18.109375 0 
L 9.078125 0 
L 9.078125 54.6875 
L 18.109375 54.6875 
L 18.109375 46.1875 
Q 21.34375 51.125 25.703125 53.5625 
Q 30.078125 56 35.796875 56 
Q 45.21875 56 50.046875 50.171875 
Q 54.890625 44.34375 54.890625 33.015625 
z
" id="DejaVuSans-110"/>
      </defs>
      <use xlink:href="#DejaVuSans-112"/>
      <use x="63.476562" xlink:href="#DejaVuSans-114"/>
      <use x="102.339844" xlink:href="#DejaVuSans-101"/>
      <use x="163.863281" xlink:href="#DejaVuSans-99"/>
      <use x="218.84375" xlink:href="#DejaVuSans-105"/>
      <use x="246.626953" xlink:href="#DejaVuSans-115"/>
      <use x="298.726562" xlink:href="#DejaVuSans-105"/>
      <use x="326.509766" xlink:href="#DejaVuSans-111"/>
      <use x="387.691406" xlink:href="#DejaVuSans-110"/>
     </g>
    </g>
    <g id="line2d_17">
     <path d="M 81 79.616562 
L 101 79.616562 
" style="fill:none;stroke:#008000;stroke-linecap:square;stroke-width:1.5;"/>
    </g>
    <g id="line2d_18"/>
    <g id="text_16">
     <!-- recall -->
     <g transform="translate(109 83.116562)scale(0.1 -0.1)">
      <defs>
       <path d="M 9.421875 75.984375 
L 18.40625 75.984375 
L 18.40625 0 
L 9.421875 0 
z
" id="DejaVuSans-108"/>
      </defs>
      <use xlink:href="#DejaVuSans-114"/>
      <use x="38.863281" xlink:href="#DejaVuSans-101"/>
      <use x="100.386719" xlink:href="#DejaVuSans-99"/>
      <use x="155.367188" xlink:href="#DejaVuSans-97"/>
      <use x="216.646484" xlink:href="#DejaVuSans-108"/>
      <use x="244.429688" xlink:href="#DejaVuSans-108"/>
     </g>
    </g>
   </g>
  </g>
  <g id="axes_2">
   <g id="matplotlib.axis_3">
    <g id="ytick_7">
     <g id="line2d_19">
      <defs>
       <path d="M 0 0 
L 3.5 0 
" id="m5728d870b4" style="stroke:#000000;stroke-width:0.8;"/>
      </defs>
      <g>
       <use style="stroke:#000000;stroke-width:0.8;" x="518.4" xlink:href="#m5728d870b4" y="369.768438"/>
      </g>
     </g>
     <g id="text_17">
      <!-- 0 -->
      <g transform="translate(525.4 373.567657)scale(0.1 -0.1)">
       <use xlink:href="#DejaVuSans-48"/>
      </g>
     </g>
    </g>
    <g id="ytick_8">
     <g id="line2d_20">
      <g>
       <use style="stroke:#000000;stroke-width:0.8;" x="518.4" xlink:href="#m5728d870b4" y="305.12771"/>
      </g>
     </g>
     <g id="text_18">
      <!-- 100 -->
      <g transform="translate(525.4 308.926929)scale(0.1 -0.1)">
       <use xlink:href="#DejaVuSans-49"/>
       <use x="63.623047" xlink:href="#DejaVuSans-48"/>
       <use x="127.246094" xlink:href="#DejaVuSans-48"/>
      </g>
     </g>
    </g>
    <g id="ytick_9">
     <g id="line2d_21">
      <g>
       <use style="stroke:#000000;stroke-width:0.8;" x="518.4" xlink:href="#m5728d870b4" y="240.486982"/>
      </g>
     </g>
     <g id="text_19">
      <!-- 200 -->
      <g transform="translate(525.4 244.2862)scale(0.1 -0.1)">
       <use xlink:href="#DejaVuSans-50"/>
       <use x="63.623047" xlink:href="#DejaVuSans-48"/>
       <use x="127.246094" xlink:href="#DejaVuSans-48"/>
      </g>
     </g>
    </g>
    <g id="ytick_10">
     <g id="line2d_22">
      <g>
       <use style="stroke:#000000;stroke-width:0.8;" x="518.4" xlink:href="#m5728d870b4" y="175.846253"/>
      </g>
     </g>
     <g id="text_20">
      <!-- 300 -->
      <g transform="translate(525.4 179.645472)scale(0.1 -0.1)">
       <defs>
        <path d="M 40.578125 39.3125 
Q 47.65625 37.796875 51.625 33 
Q 55.609375 28.21875 55.609375 21.1875 
Q 55.609375 10.40625 48.1875 4.484375 
Q 40.765625 -1.421875 27.09375 -1.421875 
Q 22.515625 -1.421875 17.65625 -0.515625 
Q 12.796875 0.390625 7.625 2.203125 
L 7.625 11.71875 
Q 11.71875 9.328125 16.59375 8.109375 
Q 21.484375 6.890625 26.8125 6.890625 
Q 36.078125 6.890625 40.9375 10.546875 
Q 45.796875 14.203125 45.796875 21.1875 
Q 45.796875 27.640625 41.28125 31.265625 
Q 36.765625 34.90625 28.71875 34.90625 
L 20.21875 34.90625 
L 20.21875 43.015625 
L 29.109375 43.015625 
Q 36.375 43.015625 40.234375 45.921875 
Q 44.09375 48.828125 44.09375 54.296875 
Q 44.09375 59.90625 40.109375 62.90625 
Q 36.140625 65.921875 28.71875 65.921875 
Q 24.65625 65.921875 20.015625 65.03125 
Q 15.375 64.15625 9.8125 62.3125 
L 9.8125 71.09375 
Q 15.4375 72.65625 20.34375 73.4375 
Q 25.25 74.21875 29.59375 74.21875 
Q 40.828125 74.21875 47.359375 69.109375 
Q 53.90625 64.015625 53.90625 55.328125 
Q 53.90625 49.265625 50.4375 45.09375 
Q 46.96875 40.921875 40.578125 39.3125 
z
" id="DejaVuSans-51"/>
       </defs>
       <use xlink:href="#DejaVuSans-51"/>
       <use x="63.623047" xlink:href="#DejaVuSans-48"/>
       <use x="127.246094" xlink:href="#DejaVuSans-48"/>
      </g>
     </g>
    </g>
    <g id="ytick_11">
     <g id="line2d_23">
      <g>
       <use style="stroke:#000000;stroke-width:0.8;" x="518.4" xlink:href="#m5728d870b4" y="111.205525"/>
      </g>
     </g>
     <g id="text_21">
      <!-- 400 -->
      <g transform="translate(525.4 115.004744)scale(0.1 -0.1)">
       <use xlink:href="#DejaVuSans-52"/>
       <use x="63.623047" xlink:href="#DejaVuSans-48"/>
       <use x="127.246094" xlink:href="#DejaVuSans-48"/>
      </g>
     </g>
    </g>
    <g id="text_22">
     <!-- loss -->
     <g transform="translate(556.085938 227.817812)rotate(-90)scale(0.1 -0.1)">
      <use xlink:href="#DejaVuSans-108"/>
      <use x="27.783203" xlink:href="#DejaVuSans-111"/>
      <use x="88.964844" xlink:href="#DejaVuSans-115"/>
      <use x="141.064453" xlink:href="#DejaVuSans-115"/>
     </g>
    </g>
   </g>
   <g id="line2d_24">
    <path clip-path="url(#pad9b7b2253)" d="M 92.290909 66.96 
L 93.509582 223.041261 
L 94.728256 310.585212 
L 95.13448 332.74642 
L 95.946929 360.317633 
L 96.353153 364.156522 
L 96.759378 366.115319 
L 97.165602 367.347097 
L 97.571826 367.7936 
L 97.978051 367.69037 
L 98.384275 367.847755 
L 98.7905 367.828804 
L 99.196724 367.662807 
L 99.602948 367.932371 
L 100.009173 367.808275 
L 100.415397 367.077246 
L 100.821622 367.74256 
L 102.446519 367.717256 
L 102.852744 367.813691 
L 103.258968 367.686027 
L 104.071417 367.737037 
L 104.477641 367.662187 
L 105.696314 367.870051 
L 107.727437 367.816748 
L 108.133661 367.914417 
L 108.539885 367.727568 
L 108.94611 367.929704 
L 109.758559 367.800934 
L 110.164783 367.902154 
L 110.571007 367.870222 
L 110.977232 367.983187 
L 111.789681 367.91206 
L 112.195905 367.982928 
L 112.602129 367.693805 
L 113.008354 367.914874 
L 113.414578 367.977517 
L 114.227027 367.818391 
L 114.633251 367.935199 
L 115.039476 367.771359 
L 115.851925 367.927123 
L 116.258149 367.694224 
L 117.070598 367.903817 
L 117.476822 367.998464 
L 117.883047 367.944837 
L 118.289271 368.12939 
L 118.695495 368.1275 
L 119.10172 367.924286 
L 119.507944 367.973806 
L 119.914169 368.169453 
L 120.320393 367.861962 
L 120.726618 367.97148 
L 123.570188 367.879406 
L 123.976413 368.07626 
L 124.788862 367.719573 
L 125.195086 367.828536 
L 125.60131 367.637026 
L 126.819984 367.733822 
L 127.226208 367.599428 
L 128.038657 367.745826 
L 128.444881 367.565292 
L 128.851106 367.587666 
L 129.25733 367.862605 
L 129.663554 367.893134 
L 130.069779 367.741542 
L 132.91335 367.909864 
L 134.132023 368.73216 
L 136.163145 368.826726 
L 136.975594 368.782373 
L 137.381818 368.857439 
L 138.194267 368.838347 
L 139.41294 368.820119 
L 141.444062 368.89107 
L 144.287633 368.931207 
L 144.693857 368.852487 
L 146.318755 368.999862 
L 147.131204 368.955396 
L 147.537428 369.02347 
L 148.756102 368.967295 
L 153.22457 368.998791 
L 155.255692 369.071425 
L 157.286814 369.014891 
L 159.724161 369.072143 
L 161.755283 369.043595 
L 163.38018 369.068092 
L 168.254873 369.060172 
L 169.067322 369.077295 
L 184.097625 369.19188 
L 214.158231 369.244371 
L 218.626699 369.268292 
L 364.461261 369.318452 
L 498.109091 369.36 
L 498.109091 369.36 
" style="fill:none;stroke:#ff0000;stroke-linecap:square;stroke-width:1.5;"/>
   </g>
   <g id="patch_8">
    <path d="M 72 384.48 
L 72 51.84 
" style="fill:none;stroke:#000000;stroke-linecap:square;stroke-linejoin:miter;stroke-width:0.8;"/>
   </g>
   <g id="patch_9">
    <path d="M 518.4 384.48 
L 518.4 51.84 
" style="fill:none;stroke:#000000;stroke-linecap:square;stroke-linejoin:miter;stroke-width:0.8;"/>
   </g>
   <g id="patch_10">
    <path d="M 72 384.48 
L 518.4 384.48 
" style="fill:none;stroke:#000000;stroke-linecap:square;stroke-linejoin:miter;stroke-width:0.8;"/>
   </g>
   <g id="patch_11">
    <path d="M 72 51.84 
L 518.4 51.84 
" style="fill:none;stroke:#000000;stroke-linecap:square;stroke-linejoin:miter;stroke-width:0.8;"/>
   </g>
   <g id="text_23">
    <!-- The learning curve on 8clients_non_iid_agg/host/7 -->
    <g transform="translate(144.702188 45.84)scale(0.12 -0.12)">
     <defs>
      <path d="M -0.296875 72.90625 
L 61.375 72.90625 
L 61.375 64.59375 
L 35.5 64.59375 
L 35.5 0 
L 25.59375 0 
L 25.59375 64.59375 
L -0.296875 64.59375 
z
" id="DejaVuSans-84"/>
      <path id="DejaVuSans-32"/>
      <path d="M 45.40625 27.984375 
Q 45.40625 37.75 41.375 43.109375 
Q 37.359375 48.484375 30.078125 48.484375 
Q 22.859375 48.484375 18.828125 43.109375 
Q 14.796875 37.75 14.796875 27.984375 
Q 14.796875 18.265625 18.828125 12.890625 
Q 22.859375 7.515625 30.078125 7.515625 
Q 37.359375 7.515625 41.375 12.890625 
Q 45.40625 18.265625 45.40625 27.984375 
z
M 54.390625 6.78125 
Q 54.390625 -7.171875 48.1875 -13.984375 
Q 42 -20.796875 29.203125 -20.796875 
Q 24.46875 -20.796875 20.265625 -20.09375 
Q 16.0625 -19.390625 12.109375 -17.921875 
L 12.109375 -9.1875 
Q 16.0625 -11.328125 19.921875 -12.34375 
Q 23.78125 -13.375 27.78125 -13.375 
Q 36.625 -13.375 41.015625 -8.765625 
Q 45.40625 -4.15625 45.40625 5.171875 
L 45.40625 9.625 
Q 42.625 4.78125 38.28125 2.390625 
Q 33.9375 0 27.875 0 
Q 17.828125 0 11.671875 7.65625 
Q 5.515625 15.328125 5.515625 27.984375 
Q 5.515625 40.671875 11.671875 48.328125 
Q 17.828125 56 27.875 56 
Q 33.9375 56 38.28125 53.609375 
Q 42.625 51.21875 45.40625 46.390625 
L 45.40625 54.6875 
L 54.390625 54.6875 
z
" id="DejaVuSans-103"/>
      <path d="M 8.5 21.578125 
L 8.5 54.6875 
L 17.484375 54.6875 
L 17.484375 21.921875 
Q 17.484375 14.15625 20.5 10.265625 
Q 23.53125 6.390625 29.59375 6.390625 
Q 36.859375 6.390625 41.078125 11.03125 
Q 45.3125 15.671875 45.3125 23.6875 
L 45.3125 54.6875 
L 54.296875 54.6875 
L 54.296875 0 
L 45.3125 0 
L 45.3125 8.40625 
Q 42.046875 3.421875 37.71875 1 
Q 33.40625 -1.421875 27.6875 -1.421875 
Q 18.265625 -1.421875 13.375 4.4375 
Q 8.5 10.296875 8.5 21.578125 
z
M 31.109375 56 
z
" id="DejaVuSans-117"/>
      <path d="M 2.984375 54.6875 
L 12.5 54.6875 
L 29.59375 8.796875 
L 46.6875 54.6875 
L 56.203125 54.6875 
L 35.6875 0 
L 23.484375 0 
z
" id="DejaVuSans-118"/>
      <path d="M 50.984375 -16.609375 
L 50.984375 -23.578125 
L -0.984375 -23.578125 
L -0.984375 -16.609375 
z
" id="DejaVuSans-95"/>
      <path d="M 45.40625 46.390625 
L 45.40625 75.984375 
L 54.390625 75.984375 
L 54.390625 0 
L 45.40625 0 
L 45.40625 8.203125 
Q 42.578125 3.328125 38.25 0.953125 
Q 33.9375 -1.421875 27.875 -1.421875 
Q 17.96875 -1.421875 11.734375 6.484375 
Q 5.515625 14.40625 5.515625 27.296875 
Q 5.515625 40.1875 11.734375 48.09375 
Q 17.96875 56 27.875 56 
Q 33.9375 56 38.25 53.625 
Q 42.578125 51.265625 45.40625 46.390625 
z
M 14.796875 27.296875 
Q 14.796875 17.390625 18.875 11.75 
Q 22.953125 6.109375 30.078125 6.109375 
Q 37.203125 6.109375 41.296875 11.75 
Q 45.40625 17.390625 45.40625 27.296875 
Q 45.40625 37.203125 41.296875 42.84375 
Q 37.203125 48.484375 30.078125 48.484375 
Q 22.953125 48.484375 18.875 42.84375 
Q 14.796875 37.203125 14.796875 27.296875 
z
" id="DejaVuSans-100"/>
      <path d="M 25.390625 72.90625 
L 33.6875 72.90625 
L 8.296875 -9.28125 
L 0 -9.28125 
z
" id="DejaVuSans-47"/>
      <path d="M 8.203125 72.90625 
L 55.078125 72.90625 
L 55.078125 68.703125 
L 28.609375 0 
L 18.3125 0 
L 43.21875 64.59375 
L 8.203125 64.59375 
z
" id="DejaVuSans-55"/>
     </defs>
     <use xlink:href="#DejaVuSans-84"/>
     <use x="61.083984" xlink:href="#DejaVuSans-104"/>
     <use x="124.462891" xlink:href="#DejaVuSans-101"/>
     <use x="185.986328" xlink:href="#DejaVuSans-32"/>
     <use x="217.773438" xlink:href="#DejaVuSans-108"/>
     <use x="245.556641" xlink:href="#DejaVuSans-101"/>
     <use x="307.080078" xlink:href="#DejaVuSans-97"/>
     <use x="368.359375" xlink:href="#DejaVuSans-114"/>
     <use x="407.722656" xlink:href="#DejaVuSans-110"/>
     <use x="471.101562" xlink:href="#DejaVuSans-105"/>
     <use x="498.884766" xlink:href="#DejaVuSans-110"/>
     <use x="562.263672" xlink:href="#DejaVuSans-103"/>
     <use x="625.740234" xlink:href="#DejaVuSans-32"/>
     <use x="657.527344" xlink:href="#DejaVuSans-99"/>
     <use x="712.507812" xlink:href="#DejaVuSans-117"/>
     <use x="775.886719" xlink:href="#DejaVuSans-114"/>
     <use x="817" xlink:href="#DejaVuSans-118"/>
     <use x="876.179688" xlink:href="#DejaVuSans-101"/>
     <use x="937.703125" xlink:href="#DejaVuSans-32"/>
     <use x="969.490234" xlink:href="#DejaVuSans-111"/>
     <use x="1030.671875" xlink:href="#DejaVuSans-110"/>
     <use x="1094.050781" xlink:href="#DejaVuSans-32"/>
     <use x="1125.837891" xlink:href="#DejaVuSans-56"/>
     <use x="1189.460938" xlink:href="#DejaVuSans-99"/>
     <use x="1244.441406" xlink:href="#DejaVuSans-108"/>
     <use x="1272.224609" xlink:href="#DejaVuSans-105"/>
     <use x="1300.007812" xlink:href="#DejaVuSans-101"/>
     <use x="1361.53125" xlink:href="#DejaVuSans-110"/>
     <use x="1424.910156" xlink:href="#DejaVuSans-116"/>
     <use x="1464.119141" xlink:href="#DejaVuSans-115"/>
     <use x="1516.21875" xlink:href="#DejaVuSans-95"/>
     <use x="1566.21875" xlink:href="#DejaVuSans-110"/>
     <use x="1629.597656" xlink:href="#DejaVuSans-111"/>
     <use x="1690.779297" xlink:href="#DejaVuSans-110"/>
     <use x="1754.158203" xlink:href="#DejaVuSans-95"/>
     <use x="1804.158203" xlink:href="#DejaVuSans-105"/>
     <use x="1831.941406" xlink:href="#DejaVuSans-105"/>
     <use x="1859.724609" xlink:href="#DejaVuSans-100"/>
     <use x="1923.201172" xlink:href="#DejaVuSans-95"/>
     <use x="1973.201172" xlink:href="#DejaVuSans-97"/>
     <use x="2034.480469" xlink:href="#DejaVuSans-103"/>
     <use x="2097.957031" xlink:href="#DejaVuSans-103"/>
     <use x="2161.433594" xlink:href="#DejaVuSans-47"/>
     <use x="2195.125" xlink:href="#DejaVuSans-104"/>
     <use x="2258.503906" xlink:href="#DejaVuSans-111"/>
     <use x="2319.685547" xlink:href="#DejaVuSans-115"/>
     <use x="2371.785156" xlink:href="#DejaVuSans-116"/>
     <use x="2410.994141" xlink:href="#DejaVuSans-47"/>
     <use x="2444.685547" xlink:href="#DejaVuSans-55"/>
    </g>
   </g>
   <g id="legend_2">
    <g id="patch_12">
     <path d="M 460.084375 74.518125 
L 511.4 74.518125 
Q 513.4 74.518125 513.4 72.518125 
L 513.4 58.84 
Q 513.4 56.84 511.4 56.84 
L 460.084375 56.84 
Q 458.084375 56.84 458.084375 58.84 
L 458.084375 72.518125 
Q 458.084375 74.518125 460.084375 74.518125 
z
" style="fill:#ffffff;opacity:0.8;stroke:#cccccc;stroke-linejoin:miter;"/>
    </g>
    <g id="line2d_25">
     <path d="M 462.084375 64.938438 
L 482.084375 64.938438 
" style="fill:none;stroke:#ff0000;stroke-linecap:square;stroke-width:1.5;"/>
    </g>
    <g id="line2d_26"/>
    <g id="text_24">
     <!-- loss -->
     <g transform="translate(490.084375 68.438438)scale(0.1 -0.1)">
      <use xlink:href="#DejaVuSans-108"/>
      <use x="27.783203" xlink:href="#DejaVuSans-111"/>
      <use x="88.964844" xlink:href="#DejaVuSans-115"/>
      <use x="141.064453" xlink:href="#DejaVuSans-115"/>
     </g>
    </g>
   </g>
  </g>
 </g>
 <defs>
  <clipPath id="pad9b7b2253">
   <rect height="332.64" width="446.4" x="72" y="51.84"/>
  </clipPath>
 </defs>
</svg>
