<?xml version="1.0" encoding="utf-8" standalone="no"?>
<!DOCTYPE svg PUBLIC "-//W3C//DTD SVG 1.1//EN"
  "http://www.w3.org/Graphics/SVG/1.1/DTD/svg11.dtd">
<!-- Created with matplotlib (https://matplotlib.org/) -->
<svg height="432pt" version="1.1" viewBox="0 0 576 432" width="576pt" xmlns="http://www.w3.org/2000/svg" xmlns:xlink="http://www.w3.org/1999/xlink">
 <metadata>
  <rdf:RDF xmlns:cc="http://creativecommons.org/ns#" xmlns:dc="http://purl.org/dc/elements/1.1/" xmlns:rdf="http://www.w3.org/1999/02/22-rdf-syntax-ns#">
   <cc:Work>
    <dc:type rdf:resource="http://purl.org/dc/dcmitype/StillImage"/>
    <dc:date>2023-03-29T12:28:10.684971</dc:date>
    <dc:format>image/svg+xml</dc:format>
    <dc:creator>
     <cc:Agent>
      <dc:title>Matplotlib v3.3.4, https://matplotlib.org/</dc:title>
     </cc:Agent>
    </dc:creator>
   </cc:Work>
  </rdf:RDF>
 </metadata>
 <defs>
  <style type="text/css">*{stroke-linecap:butt;stroke-linejoin:round;}</style>
 </defs>
 <g id="figure_1">
  <g id="patch_1">
   <path d="M 0 432 
L 576 432 
L 576 0 
L 0 0 
z
" style="fill:#ffffff;"/>
  </g>
  <g id="axes_1">
   <g id="patch_2">
    <path d="M 72 384.48 
L 518.4 384.48 
L 518.4 51.84 
L 72 51.84 
z
" style="fill:#ffffff;"/>
   </g>
   <g id="matplotlib.axis_1">
    <g id="xtick_1">
     <g id="line2d_1">
      <defs>
       <path d="M 0 0 
L 0 3.5 
" id="m2baa6830aa" style="stroke:#000000;stroke-width:0.8;"/>
      </defs>
      <g>
       <use style="stroke:#000000;stroke-width:0.8;" x="92.290909" xlink:href="#m2baa6830aa" y="384.48"/>
      </g>
     </g>
     <g id="text_1">
      <!-- 0 -->
      <g transform="translate(89.109659 399.078438)scale(0.1 -0.1)">
       <defs>
        <path d="M 31.78125 66.40625 
Q 24.171875 66.40625 20.328125 58.90625 
Q 16.5 51.421875 16.5 36.375 
Q 16.5 21.390625 20.328125 13.890625 
Q 24.171875 6.390625 31.78125 6.390625 
Q 39.453125 6.390625 43.28125 13.890625 
Q 47.125 21.390625 47.125 36.375 
Q 47.125 51.421875 43.28125 58.90625 
Q 39.453125 66.40625 31.78125 66.40625 
z
M 31.78125 74.21875 
Q 44.046875 74.21875 50.515625 64.515625 
Q 56.984375 54.828125 56.984375 36.375 
Q 56.984375 17.96875 50.515625 8.265625 
Q 44.046875 -1.421875 31.78125 -1.421875 
Q 19.53125 -1.421875 13.0625 8.265625 
Q 6.59375 17.96875 6.59375 36.375 
Q 6.59375 54.828125 13.0625 64.515625 
Q 19.53125 74.21875 31.78125 74.21875 
z
" id="DejaVuSans-48"/>
       </defs>
       <use xlink:href="#DejaVuSans-48"/>
      </g>
     </g>
    </g>
    <g id="xtick_2">
     <g id="line2d_2">
      <g>
       <use style="stroke:#000000;stroke-width:0.8;" x="173.53579" xlink:href="#m2baa6830aa" y="384.48"/>
      </g>
     </g>
     <g id="text_2">
      <!-- 200 -->
      <g transform="translate(163.99204 399.078438)scale(0.1 -0.1)">
       <defs>
        <path d="M 19.1875 8.296875 
L 53.609375 8.296875 
L 53.609375 0 
L 7.328125 0 
L 7.328125 8.296875 
Q 12.9375 14.109375 22.625 23.890625 
Q 32.328125 33.6875 34.8125 36.53125 
Q 39.546875 41.84375 41.421875 45.53125 
Q 43.3125 49.21875 43.3125 52.78125 
Q 43.3125 58.59375 39.234375 62.25 
Q 35.15625 65.921875 28.609375 65.921875 
Q 23.96875 65.921875 18.8125 64.3125 
Q 13.671875 62.703125 7.8125 59.421875 
L 7.8125 69.390625 
Q 13.765625 71.78125 18.9375 73 
Q 24.125 74.21875 28.421875 74.21875 
Q 39.75 74.21875 46.484375 68.546875 
Q 53.21875 62.890625 53.21875 53.421875 
Q 53.21875 48.921875 51.53125 44.890625 
Q 49.859375 40.875 45.40625 35.40625 
Q 44.1875 33.984375 37.640625 27.21875 
Q 31.109375 20.453125 19.1875 8.296875 
z
" id="DejaVuSans-50"/>
       </defs>
       <use xlink:href="#DejaVuSans-50"/>
       <use x="63.623047" xlink:href="#DejaVuSans-48"/>
       <use x="127.246094" xlink:href="#DejaVuSans-48"/>
      </g>
     </g>
    </g>
    <g id="xtick_3">
     <g id="line2d_3">
      <g>
       <use style="stroke:#000000;stroke-width:0.8;" x="254.780672" xlink:href="#m2baa6830aa" y="384.48"/>
      </g>
     </g>
     <g id="text_3">
      <!-- 400 -->
      <g transform="translate(245.236922 399.078438)scale(0.1 -0.1)">
       <defs>
        <path d="M 37.796875 64.3125 
L 12.890625 25.390625 
L 37.796875 25.390625 
z
M 35.203125 72.90625 
L 47.609375 72.90625 
L 47.609375 25.390625 
L 58.015625 25.390625 
L 58.015625 17.1875 
L 47.609375 17.1875 
L 47.609375 0 
L 37.796875 0 
L 37.796875 17.1875 
L 4.890625 17.1875 
L 4.890625 26.703125 
z
" id="DejaVuSans-52"/>
       </defs>
       <use xlink:href="#DejaVuSans-52"/>
       <use x="63.623047" xlink:href="#DejaVuSans-48"/>
       <use x="127.246094" xlink:href="#DejaVuSans-48"/>
      </g>
     </g>
    </g>
    <g id="xtick_4">
     <g id="line2d_4">
      <g>
       <use style="stroke:#000000;stroke-width:0.8;" x="336.025553" xlink:href="#m2baa6830aa" y="384.48"/>
      </g>
     </g>
     <g id="text_4">
      <!-- 600 -->
      <g transform="translate(326.481803 399.078438)scale(0.1 -0.1)">
       <defs>
        <path d="M 33.015625 40.375 
Q 26.375 40.375 22.484375 35.828125 
Q 18.609375 31.296875 18.609375 23.390625 
Q 18.609375 15.53125 22.484375 10.953125 
Q 26.375 6.390625 33.015625 6.390625 
Q 39.65625 6.390625 43.53125 10.953125 
Q 47.40625 15.53125 47.40625 23.390625 
Q 47.40625 31.296875 43.53125 35.828125 
Q 39.65625 40.375 33.015625 40.375 
z
M 52.59375 71.296875 
L 52.59375 62.3125 
Q 48.875 64.0625 45.09375 64.984375 
Q 41.3125 65.921875 37.59375 65.921875 
Q 27.828125 65.921875 22.671875 59.328125 
Q 17.53125 52.734375 16.796875 39.40625 
Q 19.671875 43.65625 24.015625 45.921875 
Q 28.375 48.1875 33.59375 48.1875 
Q 44.578125 48.1875 50.953125 41.515625 
Q 57.328125 34.859375 57.328125 23.390625 
Q 57.328125 12.15625 50.6875 5.359375 
Q 44.046875 -1.421875 33.015625 -1.421875 
Q 20.359375 -1.421875 13.671875 8.265625 
Q 6.984375 17.96875 6.984375 36.375 
Q 6.984375 53.65625 15.1875 63.9375 
Q 23.390625 74.21875 37.203125 74.21875 
Q 40.921875 74.21875 44.703125 73.484375 
Q 48.484375 72.75 52.59375 71.296875 
z
" id="DejaVuSans-54"/>
       </defs>
       <use xlink:href="#DejaVuSans-54"/>
       <use x="63.623047" xlink:href="#DejaVuSans-48"/>
       <use x="127.246094" xlink:href="#DejaVuSans-48"/>
      </g>
     </g>
    </g>
    <g id="xtick_5">
     <g id="line2d_5">
      <g>
       <use style="stroke:#000000;stroke-width:0.8;" x="417.270434" xlink:href="#m2baa6830aa" y="384.48"/>
      </g>
     </g>
     <g id="text_5">
      <!-- 800 -->
      <g transform="translate(407.726684 399.078438)scale(0.1 -0.1)">
       <defs>
        <path d="M 31.78125 34.625 
Q 24.75 34.625 20.71875 30.859375 
Q 16.703125 27.09375 16.703125 20.515625 
Q 16.703125 13.921875 20.71875 10.15625 
Q 24.75 6.390625 31.78125 6.390625 
Q 38.8125 6.390625 42.859375 10.171875 
Q 46.921875 13.96875 46.921875 20.515625 
Q 46.921875 27.09375 42.890625 30.859375 
Q 38.875 34.625 31.78125 34.625 
z
M 21.921875 38.8125 
Q 15.578125 40.375 12.03125 44.71875 
Q 8.5 49.078125 8.5 55.328125 
Q 8.5 64.0625 14.71875 69.140625 
Q 20.953125 74.21875 31.78125 74.21875 
Q 42.671875 74.21875 48.875 69.140625 
Q 55.078125 64.0625 55.078125 55.328125 
Q 55.078125 49.078125 51.53125 44.71875 
Q 48 40.375 41.703125 38.8125 
Q 48.828125 37.15625 52.796875 32.3125 
Q 56.78125 27.484375 56.78125 20.515625 
Q 56.78125 9.90625 50.3125 4.234375 
Q 43.84375 -1.421875 31.78125 -1.421875 
Q 19.734375 -1.421875 13.25 4.234375 
Q 6.78125 9.90625 6.78125 20.515625 
Q 6.78125 27.484375 10.78125 32.3125 
Q 14.796875 37.15625 21.921875 38.8125 
z
M 18.3125 54.390625 
Q 18.3125 48.734375 21.84375 45.5625 
Q 25.390625 42.390625 31.78125 42.390625 
Q 38.140625 42.390625 41.71875 45.5625 
Q 45.3125 48.734375 45.3125 54.390625 
Q 45.3125 60.0625 41.71875 63.234375 
Q 38.140625 66.40625 31.78125 66.40625 
Q 25.390625 66.40625 21.84375 63.234375 
Q 18.3125 60.0625 18.3125 54.390625 
z
" id="DejaVuSans-56"/>
       </defs>
       <use xlink:href="#DejaVuSans-56"/>
       <use x="63.623047" xlink:href="#DejaVuSans-48"/>
       <use x="127.246094" xlink:href="#DejaVuSans-48"/>
      </g>
     </g>
    </g>
    <g id="xtick_6">
     <g id="line2d_6">
      <g>
       <use style="stroke:#000000;stroke-width:0.8;" x="498.515315" xlink:href="#m2baa6830aa" y="384.48"/>
      </g>
     </g>
     <g id="text_6">
      <!-- 1000 -->
      <g transform="translate(485.790315 399.078438)scale(0.1 -0.1)">
       <defs>
        <path d="M 12.40625 8.296875 
L 28.515625 8.296875 
L 28.515625 63.921875 
L 10.984375 60.40625 
L 10.984375 69.390625 
L 28.421875 72.90625 
L 38.28125 72.90625 
L 38.28125 8.296875 
L 54.390625 8.296875 
L 54.390625 0 
L 12.40625 0 
z
" id="DejaVuSans-49"/>
       </defs>
       <use xlink:href="#DejaVuSans-49"/>
       <use x="63.623047" xlink:href="#DejaVuSans-48"/>
       <use x="127.246094" xlink:href="#DejaVuSans-48"/>
       <use x="190.869141" xlink:href="#DejaVuSans-48"/>
      </g>
     </g>
    </g>
    <g id="text_7">
     <!-- epoch -->
     <g transform="translate(279.971875 412.756563)scale(0.1 -0.1)">
      <defs>
       <path d="M 56.203125 29.59375 
L 56.203125 25.203125 
L 14.890625 25.203125 
Q 15.484375 15.921875 20.484375 11.0625 
Q 25.484375 6.203125 34.421875 6.203125 
Q 39.59375 6.203125 44.453125 7.46875 
Q 49.3125 8.734375 54.109375 11.28125 
L 54.109375 2.78125 
Q 49.265625 0.734375 44.1875 -0.34375 
Q 39.109375 -1.421875 33.890625 -1.421875 
Q 20.796875 -1.421875 13.15625 6.1875 
Q 5.515625 13.8125 5.515625 26.8125 
Q 5.515625 40.234375 12.765625 48.109375 
Q 20.015625 56 32.328125 56 
Q 43.359375 56 49.78125 48.890625 
Q 56.203125 41.796875 56.203125 29.59375 
z
M 47.21875 32.234375 
Q 47.125 39.59375 43.09375 43.984375 
Q 39.0625 48.390625 32.421875 48.390625 
Q 24.90625 48.390625 20.390625 44.140625 
Q 15.875 39.890625 15.1875 32.171875 
z
" id="DejaVuSans-101"/>
       <path d="M 18.109375 8.203125 
L 18.109375 -20.796875 
L 9.078125 -20.796875 
L 9.078125 54.6875 
L 18.109375 54.6875 
L 18.109375 46.390625 
Q 20.953125 51.265625 25.265625 53.625 
Q 29.59375 56 35.59375 56 
Q 45.5625 56 51.78125 48.09375 
Q 58.015625 40.1875 58.015625 27.296875 
Q 58.015625 14.40625 51.78125 6.484375 
Q 45.5625 -1.421875 35.59375 -1.421875 
Q 29.59375 -1.421875 25.265625 0.953125 
Q 20.953125 3.328125 18.109375 8.203125 
z
M 48.6875 27.296875 
Q 48.6875 37.203125 44.609375 42.84375 
Q 40.53125 48.484375 33.40625 48.484375 
Q 26.265625 48.484375 22.1875 42.84375 
Q 18.109375 37.203125 18.109375 27.296875 
Q 18.109375 17.390625 22.1875 11.75 
Q 26.265625 6.109375 33.40625 6.109375 
Q 40.53125 6.109375 44.609375 11.75 
Q 48.6875 17.390625 48.6875 27.296875 
z
" id="DejaVuSans-112"/>
       <path d="M 30.609375 48.390625 
Q 23.390625 48.390625 19.1875 42.75 
Q 14.984375 37.109375 14.984375 27.296875 
Q 14.984375 17.484375 19.15625 11.84375 
Q 23.34375 6.203125 30.609375 6.203125 
Q 37.796875 6.203125 41.984375 11.859375 
Q 46.1875 17.53125 46.1875 27.296875 
Q 46.1875 37.015625 41.984375 42.703125 
Q 37.796875 48.390625 30.609375 48.390625 
z
M 30.609375 56 
Q 42.328125 56 49.015625 48.375 
Q 55.71875 40.765625 55.71875 27.296875 
Q 55.71875 13.875 49.015625 6.21875 
Q 42.328125 -1.421875 30.609375 -1.421875 
Q 18.84375 -1.421875 12.171875 6.21875 
Q 5.515625 13.875 5.515625 27.296875 
Q 5.515625 40.765625 12.171875 48.375 
Q 18.84375 56 30.609375 56 
z
" id="DejaVuSans-111"/>
       <path d="M 48.78125 52.59375 
L 48.78125 44.1875 
Q 44.96875 46.296875 41.140625 47.34375 
Q 37.3125 48.390625 33.40625 48.390625 
Q 24.65625 48.390625 19.8125 42.84375 
Q 14.984375 37.3125 14.984375 27.296875 
Q 14.984375 17.28125 19.8125 11.734375 
Q 24.65625 6.203125 33.40625 6.203125 
Q 37.3125 6.203125 41.140625 7.25 
Q 44.96875 8.296875 48.78125 10.40625 
L 48.78125 2.09375 
Q 45.015625 0.34375 40.984375 -0.53125 
Q 36.96875 -1.421875 32.421875 -1.421875 
Q 20.0625 -1.421875 12.78125 6.34375 
Q 5.515625 14.109375 5.515625 27.296875 
Q 5.515625 40.671875 12.859375 48.328125 
Q 20.21875 56 33.015625 56 
Q 37.15625 56 41.109375 55.140625 
Q 45.0625 54.296875 48.78125 52.59375 
z
" id="DejaVuSans-99"/>
       <path d="M 54.890625 33.015625 
L 54.890625 0 
L 45.90625 0 
L 45.90625 32.71875 
Q 45.90625 40.484375 42.875 44.328125 
Q 39.84375 48.1875 33.796875 48.1875 
Q 26.515625 48.1875 22.3125 43.546875 
Q 18.109375 38.921875 18.109375 30.90625 
L 18.109375 0 
L 9.078125 0 
L 9.078125 75.984375 
L 18.109375 75.984375 
L 18.109375 46.1875 
Q 21.34375 51.125 25.703125 53.5625 
Q 30.078125 56 35.796875 56 
Q 45.21875 56 50.046875 50.171875 
Q 54.890625 44.34375 54.890625 33.015625 
z
" id="DejaVuSans-104"/>
      </defs>
      <use xlink:href="#DejaVuSans-101"/>
      <use x="61.523438" xlink:href="#DejaVuSans-112"/>
      <use x="125" xlink:href="#DejaVuSans-111"/>
      <use x="186.181641" xlink:href="#DejaVuSans-99"/>
      <use x="241.162109" xlink:href="#DejaVuSans-104"/>
     </g>
    </g>
   </g>
   <g id="matplotlib.axis_2">
    <g id="ytick_1">
     <g id="line2d_7">
      <defs>
       <path d="M 0 0 
L -3.5 0 
" id="mc2876cb538" style="stroke:#000000;stroke-width:0.8;"/>
      </defs>
      <g>
       <use style="stroke:#000000;stroke-width:0.8;" x="72" xlink:href="#mc2876cb538" y="384.48"/>
      </g>
     </g>
     <g id="text_8">
      <!-- 0.0 -->
      <g transform="translate(49.096875 388.279219)scale(0.1 -0.1)">
       <defs>
        <path d="M 10.6875 12.40625 
L 21 12.40625 
L 21 0 
L 10.6875 0 
z
" id="DejaVuSans-46"/>
       </defs>
       <use xlink:href="#DejaVuSans-48"/>
       <use x="63.623047" xlink:href="#DejaVuSans-46"/>
       <use x="95.410156" xlink:href="#DejaVuSans-48"/>
      </g>
     </g>
    </g>
    <g id="ytick_2">
     <g id="line2d_8">
      <g>
       <use style="stroke:#000000;stroke-width:0.8;" x="72" xlink:href="#mc2876cb538" y="317.952"/>
      </g>
     </g>
     <g id="text_9">
      <!-- 0.2 -->
      <g transform="translate(49.096875 321.751219)scale(0.1 -0.1)">
       <use xlink:href="#DejaVuSans-48"/>
       <use x="63.623047" xlink:href="#DejaVuSans-46"/>
       <use x="95.410156" xlink:href="#DejaVuSans-50"/>
      </g>
     </g>
    </g>
    <g id="ytick_3">
     <g id="line2d_9">
      <g>
       <use style="stroke:#000000;stroke-width:0.8;" x="72" xlink:href="#mc2876cb538" y="251.424"/>
      </g>
     </g>
     <g id="text_10">
      <!-- 0.4 -->
      <g transform="translate(49.096875 255.223219)scale(0.1 -0.1)">
       <use xlink:href="#DejaVuSans-48"/>
       <use x="63.623047" xlink:href="#DejaVuSans-46"/>
       <use x="95.410156" xlink:href="#DejaVuSans-52"/>
      </g>
     </g>
    </g>
    <g id="ytick_4">
     <g id="line2d_10">
      <g>
       <use style="stroke:#000000;stroke-width:0.8;" x="72" xlink:href="#mc2876cb538" y="184.896"/>
      </g>
     </g>
     <g id="text_11">
      <!-- 0.6 -->
      <g transform="translate(49.096875 188.695219)scale(0.1 -0.1)">
       <use xlink:href="#DejaVuSans-48"/>
       <use x="63.623047" xlink:href="#DejaVuSans-46"/>
       <use x="95.410156" xlink:href="#DejaVuSans-54"/>
      </g>
     </g>
    </g>
    <g id="ytick_5">
     <g id="line2d_11">
      <g>
       <use style="stroke:#000000;stroke-width:0.8;" x="72" xlink:href="#mc2876cb538" y="118.368"/>
      </g>
     </g>
     <g id="text_12">
      <!-- 0.8 -->
      <g transform="translate(49.096875 122.167219)scale(0.1 -0.1)">
       <use xlink:href="#DejaVuSans-48"/>
       <use x="63.623047" xlink:href="#DejaVuSans-46"/>
       <use x="95.410156" xlink:href="#DejaVuSans-56"/>
      </g>
     </g>
    </g>
    <g id="ytick_6">
     <g id="line2d_12">
      <g>
       <use style="stroke:#000000;stroke-width:0.8;" x="72" xlink:href="#mc2876cb538" y="51.84"/>
      </g>
     </g>
     <g id="text_13">
      <!-- 1.0 -->
      <g transform="translate(49.096875 55.639219)scale(0.1 -0.1)">
       <use xlink:href="#DejaVuSans-49"/>
       <use x="63.623047" xlink:href="#DejaVuSans-46"/>
       <use x="95.410156" xlink:href="#DejaVuSans-48"/>
      </g>
     </g>
    </g>
    <g id="text_14">
     <!-- rate -->
     <g transform="translate(43.017187 228.31625)rotate(-90)scale(0.1 -0.1)">
      <defs>
       <path d="M 41.109375 46.296875 
Q 39.59375 47.171875 37.8125 47.578125 
Q 36.03125 48 33.890625 48 
Q 26.265625 48 22.1875 43.046875 
Q 18.109375 38.09375 18.109375 28.8125 
L 18.109375 0 
L 9.078125 0 
L 9.078125 54.6875 
L 18.109375 54.6875 
L 18.109375 46.1875 
Q 20.953125 51.171875 25.484375 53.578125 
Q 30.03125 56 36.53125 56 
Q 37.453125 56 38.578125 55.875 
Q 39.703125 55.765625 41.0625 55.515625 
z
" id="DejaVuSans-114"/>
       <path d="M 34.28125 27.484375 
Q 23.390625 27.484375 19.1875 25 
Q 14.984375 22.515625 14.984375 16.5 
Q 14.984375 11.71875 18.140625 8.90625 
Q 21.296875 6.109375 26.703125 6.109375 
Q 34.1875 6.109375 38.703125 11.40625 
Q 43.21875 16.703125 43.21875 25.484375 
L 43.21875 27.484375 
z
M 52.203125 31.203125 
L 52.203125 0 
L 43.21875 0 
L 43.21875 8.296875 
Q 40.140625 3.328125 35.546875 0.953125 
Q 30.953125 -1.421875 24.3125 -1.421875 
Q 15.921875 -1.421875 10.953125 3.296875 
Q 6 8.015625 6 15.921875 
Q 6 25.140625 12.171875 29.828125 
Q 18.359375 34.515625 30.609375 34.515625 
L 43.21875 34.515625 
L 43.21875 35.40625 
Q 43.21875 41.609375 39.140625 45 
Q 35.0625 48.390625 27.6875 48.390625 
Q 23 48.390625 18.546875 47.265625 
Q 14.109375 46.140625 10.015625 43.890625 
L 10.015625 52.203125 
Q 14.9375 54.109375 19.578125 55.046875 
Q 24.21875 56 28.609375 56 
Q 40.484375 56 46.34375 49.84375 
Q 52.203125 43.703125 52.203125 31.203125 
z
" id="DejaVuSans-97"/>
       <path d="M 18.3125 70.21875 
L 18.3125 54.6875 
L 36.8125 54.6875 
L 36.8125 47.703125 
L 18.3125 47.703125 
L 18.3125 18.015625 
Q 18.3125 11.328125 20.140625 9.421875 
Q 21.96875 7.515625 27.59375 7.515625 
L 36.8125 7.515625 
L 36.8125 0 
L 27.59375 0 
Q 17.1875 0 13.234375 3.875 
Q 9.28125 7.765625 9.28125 18.015625 
L 9.28125 47.703125 
L 2.6875 47.703125 
L 2.6875 54.6875 
L 9.28125 54.6875 
L 9.28125 70.21875 
z
" id="DejaVuSans-116"/>
      </defs>
      <use xlink:href="#DejaVuSans-114"/>
      <use x="41.113281" xlink:href="#DejaVuSans-97"/>
      <use x="102.392578" xlink:href="#DejaVuSans-116"/>
      <use x="141.601562" xlink:href="#DejaVuSans-101"/>
     </g>
    </g>
   </g>
   <g id="line2d_13">
    <path clip-path="url(#pd4036e1905)" d="M 92.290909 198.888501 
L 92.697133 223.555282 
L 93.103358 240.90949 
L 93.509582 316.797999 
L 93.915807 356.479255 
L 94.322031 333.86168 
L 94.728256 304.861986 
L 95.13448 347.760246 
L 95.540704 304.553274 
L 95.946929 340.214917 
L 96.353153 349.74352 
L 96.759378 326.260851 
L 97.165602 361.275537 
L 97.571826 353.927842 
L 97.978051 329.028041 
L 98.384275 321.638154 
L 98.7905 343.348616 
L 99.196724 349.62676 
L 99.602948 294.653925 
L 100.009173 266.469721 
L 100.415397 306.082001 
L 100.821622 254.246768 
L 101.63407 278.820342 
L 102.040295 247.06724 
L 102.446519 273.64309 
L 102.852744 346.234794 
L 103.258968 331.215297 
L 103.665192 245.652209 
L 104.071417 267.57836 
L 104.477641 305.587149 
L 104.883866 363.289097 
L 105.29009 292.43323 
L 106.102539 344.496467 
L 106.508763 339.892751 
L 106.914988 346.513313 
L 107.321212 362.841996 
L 107.727437 353.734043 
L 108.133661 330.231159 
L 108.94611 362.554937 
L 109.352334 363.760165 
L 109.758559 345.013676 
L 110.164783 362.301262 
L 110.571007 350.834377 
L 110.977232 364.777472 
L 111.383456 342.233247 
L 111.789681 329.234711 
L 112.195905 356.093951 
L 112.602129 351.38306 
L 113.008354 351.89609 
L 113.414578 264.79475 
L 113.820803 300.382795 
L 114.227027 311.488152 
L 114.633251 356.173368 
L 115.039476 355.226425 
L 115.4457 303.398113 
L 115.851925 270.703029 
L 116.258149 324.424187 
L 116.664373 357.834603 
L 117.070598 353.554689 
L 117.476822 339.402143 
L 117.883047 331.946902 
L 118.289271 361.995951 
L 118.695495 336.22469 
L 119.10172 335.887225 
L 119.507944 318.536639 
L 119.914169 351.775108 
L 120.320393 276.352335 
L 120.726618 309.894377 
L 121.132842 217.89093 
L 121.539066 289.429389 
L 121.945291 255.327065 
L 122.351515 258.002009 
L 122.75774 277.464022 
L 123.163964 246.03193 
L 123.570188 276.926803 
L 123.976413 253.081911 
L 124.382637 295.424119 
L 124.788862 359.427102 
L 125.195086 344.720007 
L 125.60131 306.799923 
L 126.007535 309.317674 
L 126.413759 340.991475 
L 126.819984 339.864868 
L 127.226208 262.1056 
L 127.632432 317.208341 
L 128.038657 343.37792 
L 128.444881 316.828821 
L 128.851106 328.862884 
L 129.25733 331.51917 
L 129.663554 293.807917 
L 130.069779 292.46471 
L 130.476003 356.21238 
L 130.882228 362.944722 
L 131.288452 365.942708 
L 131.694676 356.458975 
L 132.100901 246.943723 
L 132.507125 293.956342 
L 132.91335 324.875522 
L 133.319574 328.224292 
L 133.725799 354.439598 
L 134.132023 364.044227 
L 134.944472 296.428525 
L 135.350696 294.420836 
L 135.756921 287.880208 
L 136.163145 270.739729 
L 136.569369 260.276754 
L 136.975594 321.140574 
L 137.381818 310.615466 
L 137.788043 295.847638 
L 138.194267 290.090318 
L 138.600491 345.38534 
L 139.006716 358.413062 
L 139.41294 326.833803 
L 139.819165 317.056173 
L 140.225389 339.878504 
L 140.631613 349.2585 
L 141.037838 342.376226 
L 141.444062 340.945284 
L 141.850287 361.15612 
L 142.256511 363.602346 
L 142.662735 337.444639 
L 143.06896 341.981373 
L 143.475184 320.84437 
L 143.881409 344.437433 
L 144.287633 361.40898 
L 144.693857 364.397385 
L 145.100082 364.764677 
L 145.506306 343.311062 
L 145.912531 351.910556 
L 146.318755 333.124736 
L 146.72498 354.968963 
L 147.131204 362.521087 
L 147.537428 346.385045 
L 147.943653 321.551485 
L 148.349877 348.288913 
L 148.756102 347.966593 
L 149.162326 305.584889 
L 149.56855 289.759153 
L 149.974775 342.691528 
L 150.380999 367.42297 
L 150.787224 336.89507 
L 151.193448 362.38217 
L 151.599672 356.674806 
L 152.005897 331.610592 
L 152.412121 352.865119 
L 152.818346 347.457745 
L 153.22457 364.448524 
L 153.630794 363.876848 
L 154.037019 341.600242 
L 154.443243 334.352448 
L 154.849468 295.798603 
L 155.255692 281.046241 
L 155.661916 294.512837 
L 156.068141 290.515928 
L 156.474365 234.929756 
L 156.88059 286.707961 
L 157.286814 320.681226 
L 157.693038 282.681196 
L 158.099263 269.769717 
L 158.911712 363.157986 
L 159.317936 365.818281 
L 159.724161 297.457655 
L 160.130385 361.497556 
L 160.536609 362.998259 
L 160.942834 343.305422 
L 161.349058 364.842453 
L 161.755283 363.73193 
L 162.161507 363.480448 
L 162.567731 304.239929 
L 162.973956 281.520339 
L 163.38018 279.152915 
L 163.786405 281.461426 
L 164.192629 285.889552 
L 164.598853 259.305302 
L 165.005078 272.838297 
L 165.411302 306.097364 
L 165.817527 325.313901 
L 166.223751 305.080626 
L 166.629975 338.796504 
L 167.0362 337.736649 
L 167.442424 349.09818 
L 167.848649 294.698092 
L 168.254873 262.418457 
L 168.661097 276.352874 
L 169.067322 254.664302 
L 169.879771 348.670844 
L 170.285995 368.704454 
L 170.692219 348.702284 
L 171.098444 355.230811 
L 171.504668 284.377207 
L 171.910893 282.23701 
L 172.723342 339.186101 
L 173.129566 344.681304 
L 173.942015 361.274454 
L 174.348239 282.541302 
L 174.754464 349.690537 
L 175.160688 355.170209 
L 175.566912 362.612584 
L 175.973137 343.147015 
L 176.379361 346.94972 
L 176.785586 332.347197 
L 177.19181 296.573152 
L 177.598034 339.135887 
L 178.004259 341.542411 
L 178.410483 283.936242 
L 178.816708 256.733603 
L 179.222932 274.639384 
L 179.629156 265.272187 
L 180.035381 265.114109 
L 180.441605 267.223486 
L 180.84783 265.531399 
L 181.254054 277.462103 
L 181.660278 333.260914 
L 182.066503 351.027625 
L 182.472727 358.700383 
L 182.878952 329.215439 
L 183.285176 321.271863 
L 183.6914 310.7957 
L 184.503849 259.652144 
L 184.910074 258.850049 
L 185.316298 261.562112 
L 185.722523 354.552264 
L 186.128747 367.899514 
L 186.534971 367.771653 
L 186.941196 338.55891 
L 187.34742 336.004359 
L 187.753645 332.622408 
L 188.159869 323.959254 
L 188.566093 362.009277 
L 188.972318 348.497171 
L 189.378542 307.588925 
L 189.784767 360.919103 
L 190.190991 345.104176 
L 190.597215 304.317873 
L 191.00344 364.636899 
L 191.409664 283.567131 
L 191.815889 260.127002 
L 192.222113 261.562112 
L 192.628337 272.807548 
L 193.034562 248.529705 
L 193.440786 272.795248 
L 193.847011 327.78472 
L 194.253235 282.764769 
L 194.659459 261.130584 
L 195.065684 252.104523 
L 195.471908 277.698431 
L 195.878133 256.356499 
L 196.284357 273.852491 
L 196.690581 251.747752 
L 197.096806 277.252529 
L 197.50303 358.251497 
L 197.909255 358.511623 
L 198.315479 350.96472 
L 198.721704 311.636045 
L 199.534152 362.613483 
L 199.940377 314.997061 
L 200.346601 353.070929 
L 200.752826 306.354834 
L 201.15905 288.593425 
L 201.565274 302.647905 
L 201.971499 361.576366 
L 202.377723 279.514815 
L 202.783948 296.160456 
L 203.190172 300.942711 
L 204.002621 332.03562 
L 204.408845 360.985491 
L 204.81507 299.752725 
L 205.221294 258.611268 
L 205.627518 287.209664 
L 206.033743 357.628442 
L 206.439967 359.22476 
L 206.846192 300.309023 
L 207.252416 273.099408 
L 207.65864 350.554836 
L 208.064865 360.775696 
L 208.471089 361.119111 
L 208.877314 276.244217 
L 209.283538 306.998808 
L 209.689762 324.288231 
L 210.095987 302.456396 
L 210.502211 301.046061 
L 210.908436 324.507796 
L 211.31466 322.036917 
L 211.720885 343.160429 
L 212.127109 261.265286 
L 212.939558 283.53845 
L 213.345782 352.572324 
L 213.752007 308.998742 
L 214.158231 348.768983 
L 214.564455 350.17482 
L 214.97068 330.771809 
L 215.376904 347.483832 
L 215.783129 321.736711 
L 216.189353 264.309112 
L 216.595577 272.807548 
L 217.001802 248.529705 
L 217.408026 272.795248 
L 217.814251 269.275923 
L 218.220475 353.791458 
L 218.626699 359.834636 
L 219.032924 340.314583 
L 219.439148 335.269172 
L 219.845373 353.546178 
L 220.251597 261.836788 
L 220.657821 289.109932 
L 221.064046 246.308406 
L 221.47027 291.861973 
L 221.876495 258.783218 
L 222.282719 318.782473 
L 222.688943 347.354561 
L 223.095168 354.820182 
L 223.501392 334.063322 
L 223.907617 356.568598 
L 224.313841 270.160774 
L 224.720066 275.292241 
L 225.12629 345.95085 
L 225.532514 348.318072 
L 225.938739 351.741616 
L 226.344963 346.082402 
L 226.751188 364.17811 
L 227.157412 353.088241 
L 227.563636 310.560652 
L 227.969861 314.027303 
L 228.376085 311.408832 
L 228.78231 336.158709 
L 229.188534 352.172016 
L 229.594758 320.445812 
L 230.000983 358.697934 
L 230.407207 364.240175 
L 230.813432 363.1557 
L 231.219656 321.33771 
L 231.62588 248.902961 
L 232.032105 275.456711 
L 232.438329 258.807827 
L 233.657002 312.44459 
L 234.063227 316.220945 
L 234.469451 342.76914 
L 234.875676 342.122939 
L 235.2819 313.327654 
L 235.688124 329.144464 
L 236.094349 278.442163 
L 236.500573 269.769717 
L 236.906798 268.496117 
L 237.313022 280.245595 
L 237.719247 259.218295 
L 238.125471 276.352874 
L 238.531695 330.127641 
L 238.93792 343.821945 
L 239.344144 336.751063 
L 239.750369 323.745762 
L 240.156593 337.298985 
L 240.562817 346.902739 
L 240.969042 332.381026 
L 241.375266 307.869723 
L 241.781491 359.161328 
L 242.187715 315.519143 
L 242.593939 336.702339 
L 243.000164 339.808006 
L 243.406388 331.479 
L 243.812613 329.080389 
L 244.218837 348.768425 
L 244.625061 362.199114 
L 245.031286 364.000901 
L 245.43751 357.473982 
L 245.843735 273.73882 
L 246.249959 344.990789 
L 246.656183 362.197398 
L 247.062408 358.942948 
L 247.468632 348.04771 
L 247.874857 358.726647 
L 248.687305 339.081561 
L 249.09353 309.37103 
L 249.499754 237.494911 
L 249.905979 316.624173 
L 250.312203 331.376609 
L 250.718428 358.719537 
L 251.124652 355.467831 
L 251.530876 368.814338 
L 252.343325 257.857172 
L 252.74955 303.714363 
L 253.155774 277.804354 
L 253.561998 264.617868 
L 253.968223 266.177812 
L 254.374447 240.529346 
L 254.780672 361.341887 
L 255.186896 355.456029 
L 255.59312 308.867963 
L 255.999345 325.515848 
L 256.405569 355.36973 
L 256.811794 328.794318 
L 257.218018 266.88889 
L 257.624242 276.373721 
L 258.030467 299.38184 
L 258.436691 274.807307 
L 258.842916 355.901535 
L 259.24914 341.782788 
L 259.655364 343.002419 
L 260.061589 346.631825 
L 260.467813 365.000341 
L 260.874038 313.95054 
L 261.280262 296.244006 
L 261.686486 324.023828 
L 262.092711 271.077301 
L 262.498935 290.197021 
L 262.90516 270.883871 
L 263.311384 340.430945 
L 263.717609 367.188631 
L 264.123833 334.317213 
L 264.530057 270.344547 
L 264.936282 280.366467 
L 265.342506 258.277981 
L 265.748731 342.279981 
L 266.154955 325.567831 
L 266.561179 327.07762 
L 266.967404 336.23709 
L 267.373628 328.49207 
L 267.779853 324.183531 
L 268.186077 332.559601 
L 268.592301 309.636227 
L 268.998526 255.751384 
L 269.40475 280.027848 
L 269.810975 270.76869 
L 270.217199 269.533306 
L 270.623423 269.769717 
L 271.029648 362.612737 
L 271.435872 304.201632 
L 271.842097 293.506163 
L 272.248321 346.782058 
L 272.654545 341.962355 
L 273.06077 274.031615 
L 273.873219 263.063645 
L 274.279443 280.245595 
L 274.685667 258.250133 
L 275.091892 334.569106 
L 275.498116 325.119236 
L 275.904341 351.652823 
L 276.310565 346.252244 
L 276.71679 354.875317 
L 277.123014 352.981528 
L 277.529238 337.011741 
L 277.935463 309.542995 
L 278.341687 336.466947 
L 278.747912 278.731609 
L 279.154136 341.646154 
L 279.56036 354.904802 
L 279.966585 335.711486 
L 280.779034 350.602415 
L 281.185258 347.461058 
L 281.591482 283.305919 
L 281.997707 331.585484 
L 282.403931 365.05274 
L 282.810156 363.297096 
L 283.21638 349.926468 
L 284.028829 364.149419 
L 284.435053 364.840083 
L 284.841278 306.145659 
L 285.247502 317.40717 
L 285.653726 318.123572 
L 286.059951 332.679359 
L 286.466175 342.438906 
L 287.278624 365.086727 
L 287.684848 361.716999 
L 288.091073 339.05711 
L 288.497297 352.152005 
L 288.903522 359.427155 
L 289.309746 355.607667 
L 289.715971 291.835892 
L 290.122195 287.094289 
L 290.528419 341.583962 
L 290.934644 328.555204 
L 291.340868 364.699562 
L 291.747093 366.401563 
L 292.153317 354.309415 
L 292.559541 358.079636 
L 292.965766 345.898941 
L 293.37199 346.518671 
L 293.778215 342.403692 
L 294.184439 325.063825 
L 294.590663 334.402411 
L 294.996888 310.165444 
L 295.403112 314.941354 
L 295.809337 334.731867 
L 296.215561 317.909081 
L 297.02801 359.353113 
L 297.434234 349.353784 
L 297.840459 326.87004 
L 298.246683 275.921148 
L 298.652907 282.146227 
L 299.059132 297.254896 
L 299.465356 362.886567 
L 299.871581 351.970127 
L 300.277805 265.028416 
L 300.684029 262.700696 
L 301.090254 321.390386 
L 301.496478 354.222198 
L 301.902703 364.708918 
L 302.308927 361.032634 
L 302.715152 314.321465 
L 303.121376 323.730395 
L 303.5276 358.038746 
L 303.933825 351.46475 
L 304.340049 363.091638 
L 304.746274 367.527324 
L 305.152498 302.5986 
L 305.558722 312.069811 
L 305.964947 349.656785 
L 306.371171 363.260296 
L 306.777396 276.845678 
L 307.18362 258.016285 
L 307.589844 286.744219 
L 307.996069 276.044385 
L 308.402293 285.261316 
L 308.808518 312.650703 
L 309.214742 262.752771 
L 309.620966 282.677175 
L 310.027191 246.333153 
L 310.433415 273.379484 
L 310.83964 256.115764 
L 311.245864 247.227954 
L 311.652088 347.526707 
L 312.058313 300.945898 
L 312.464537 278.886429 
L 312.870762 342.117995 
L 313.276986 333.795705 
L 313.68321 311.331981 
L 314.089435 322.686587 
L 314.495659 329.519552 
L 314.901884 360.223317 
L 315.308108 353.732555 
L 315.714333 355.172477 
L 316.120557 357.461481 
L 316.526781 364.232906 
L 316.933006 364.67088 
L 317.33923 322.294368 
L 317.745455 261.244714 
L 318.151679 348.2099 
L 318.557903 348.73507 
L 318.964128 354.932993 
L 319.370352 358.488823 
L 319.776577 351.401562 
L 320.182801 263.5884 
L 320.589025 287.0868 
L 321.401474 272.342519 
L 321.807699 291.356765 
L 322.213923 319.631837 
L 322.620147 279.603921 
L 323.026372 286.985827 
L 323.432596 291.312625 
L 323.838821 349.691119 
L 324.245045 363.329923 
L 324.651269 335.118685 
L 325.057494 345.366213 
L 325.463718 263.335782 
L 325.869943 261.403483 
L 326.276167 271.635563 
L 326.682391 246.895243 
L 327.088616 272.994007 
L 327.49484 354.45361 
L 327.901065 355.910041 
L 328.307289 353.876109 
L 328.713514 317.376717 
L 329.119738 270.237559 
L 329.525962 275.279788 
L 329.932187 269.318708 
L 330.338411 268.731456 
L 330.744636 317.073773 
L 331.15086 306.849201 
L 331.557084 265.325816 
L 331.963309 357.101926 
L 332.369533 325.311511 
L 332.775758 278.934337 
L 333.181982 308.779996 
L 333.994431 347.884471 
L 334.400655 361.135958 
L 334.80688 353.682064 
L 335.213104 316.724866 
L 335.619328 263.497091 
L 336.025553 332.997455 
L 336.431777 327.902386 
L 336.838002 264.431456 
L 337.244226 330.746267 
L 338.056675 273.702719 
L 338.462899 331.075476 
L 338.869124 336.038246 
L 339.275348 343.754467 
L 340.087797 362.687241 
L 340.900246 355.809922 
L 341.30647 330.403977 
L 341.712695 333.607808 
L 342.118919 323.602796 
L 342.525143 336.880385 
L 342.931368 338.05866 
L 343.337592 284.242893 
L 343.743817 263.018951 
L 344.150041 340.537709 
L 344.556265 307.784909 
L 344.96249 319.954029 
L 345.368714 269.312585 
L 345.774939 258.972995 
L 346.181163 279.494476 
L 346.587387 269.622182 
L 346.993612 265.252061 
L 347.399836 266.809261 
L 347.806061 265.664705 
L 348.212285 320.17491 
L 348.618509 349.536512 
L 349.024734 361.104985 
L 349.430958 350.856281 
L 350.243407 341.758286 
L 350.649631 324.90384 
L 351.46208 344.323353 
L 351.868305 332.481227 
L 352.274529 350.730759 
L 352.680753 345.812282 
L 353.086978 351.482857 
L 353.493202 275.348072 
L 353.899427 307.599034 
L 354.305651 287.706927 
L 354.711876 249.165713 
L 355.1181 272.671313 
L 355.524324 246.572298 
L 356.742998 333.989178 
L 357.149222 339.316233 
L 357.555446 289.122723 
L 357.961671 290.476919 
L 358.367895 256.913696 
L 358.77412 279.920286 
L 359.180344 252.546398 
L 359.586568 271.874529 
L 359.992793 247.338392 
L 360.399017 340.078345 
L 360.805242 360.10387 
L 361.211466 361.993745 
L 361.61769 323.268195 
L 362.023915 322.45708 
L 362.430139 286.744844 
L 362.836364 272.795248 
L 363.242588 254.295403 
L 363.648812 275.673499 
L 364.055037 256.485851 
L 364.461261 331.109215 
L 364.867486 322.987574 
L 365.27371 352.030634 
L 365.679934 332.642986 
L 366.086159 273.917153 
L 366.492383 284.513101 
L 366.898608 305.310896 
L 367.304832 276.872086 
L 367.711057 279.468936 
L 368.117281 262.501548 
L 368.523505 332.239793 
L 368.92973 358.93161 
L 369.335954 363.776339 
L 369.742179 289.621979 
L 370.148403 331.309869 
L 370.554627 332.00188 
L 370.960852 347.607812 
L 371.367076 295.891081 
L 371.773301 326.691647 
L 372.179525 334.406928 
L 372.585749 346.372252 
L 372.991974 352.514979 
L 373.398198 297.694264 
L 374.210647 236.724733 
L 374.616871 324.46307 
L 375.023096 349.995782 
L 375.42932 362.099808 
L 375.835545 342.548015 
L 376.241769 310.696477 
L 376.647993 363.455104 
L 377.054218 335.100044 
L 377.460442 280.711742 
L 377.866667 260.448111 
L 378.679115 262.462218 
L 379.08534 261.766528 
L 379.491564 343.8405 
L 379.897789 357.595773 
L 380.304013 351.131881 
L 380.710238 337.665666 
L 381.116462 331.406459 
L 381.522686 327.364012 
L 381.928911 340.161085 
L 382.335135 269.701519 
L 382.74136 291.420504 
L 383.147584 321.709365 
L 383.553808 341.852162 
L 383.960033 335.546206 
L 384.366257 319.346457 
L 384.772482 358.157687 
L 385.178706 339.503648 
L 385.58493 287.878843 
L 385.991155 304.727645 
L 386.397379 309.826423 
L 387.209828 364.016124 
L 388.022277 268.386799 
L 388.428501 257.472463 
L 388.834726 317.917592 
L 389.24095 353.872384 
L 389.647174 304.689486 
L 390.053399 309.871767 
L 390.459623 352.35222 
L 390.865848 349.566724 
L 391.272072 340.021826 
L 391.678296 322.814125 
L 392.084521 261.40265 
L 392.490745 264.805244 
L 392.89697 350.960756 
L 393.303194 331.43138 
L 393.709419 346.202974 
L 394.115643 347.189987 
L 394.521867 363.208432 
L 394.928092 364.218891 
L 395.334316 341.344523 
L 395.740541 344.407544 
L 396.146765 360.379607 
L 396.552989 342.074046 
L 396.959214 358.3255 
L 397.365438 355.073939 
L 397.771663 336.998919 
L 398.177887 363.703439 
L 398.990336 365.837681 
L 399.39656 364.469885 
L 399.802785 364.346147 
L 400.209009 364.340174 
L 400.615233 328.546019 
L 401.021458 347.299927 
L 401.427682 342.398217 
L 401.833907 324.412379 
L 402.240131 366.241617 
L 402.646355 286.22727 
L 403.05258 352.043903 
L 403.865029 310.217845 
L 404.271253 272.62075 
L 404.677477 284.90717 
L 405.083702 350.520115 
L 405.489926 287.132157 
L 405.896151 259.230669 
L 406.302375 327.767512 
L 406.7086 364.892803 
L 407.114824 365.239112 
L 407.521048 352.913754 
L 407.927273 335.588304 
L 408.333497 300.403873 
L 408.739722 292.594652 
L 409.145946 311.703212 
L 409.55217 358.339348 
L 409.958395 303.802867 
L 410.364619 272.064316 
L 410.770844 283.100636 
L 411.177068 286.047293 
L 411.583292 234.929756 
L 411.989517 286.707961 
L 412.395741 247.297979 
L 412.801966 261.303818 
L 413.20819 330.03195 
L 413.614414 327.006028 
L 414.020639 332.057089 
L 414.426863 322.46839 
L 414.833088 284.537863 
L 415.239312 265.471669 
L 415.645536 261.562112 
L 416.051761 273.570947 
L 416.457985 253.009747 
L 416.86421 282.349631 
L 417.270434 371.380963 
L 417.676658 350.470087 
L 418.082883 238.154785 
L 418.489107 160.9875 
L 420.926454 160.9875 
L 421.332678 308.963382 
L 498.109091 308.963382 
L 498.109091 308.963382 
" style="fill:none;stroke:#0000ff;stroke-linecap:square;stroke-width:1.5;"/>
   </g>
   <g id="line2d_14">
    <path clip-path="url(#pd4036e1905)" d="M 92.290909 253.112749 
L 92.697133 246.435609 
L 93.103358 243.928389 
L 93.509582 225.067788 
L 93.915807 220.701199 
L 94.322031 214.679395 
L 94.728256 230.742219 
L 95.13448 214.60748 
L 95.540704 223.69513 
L 95.946929 224.329398 
L 96.353153 222.140777 
L 96.759378 230.793887 
L 97.165602 228.339402 
L 97.571826 224.304547 
L 97.978051 222.098021 
L 98.384275 224.668583 
L 98.7905 230.733248 
L 99.196724 219.740596 
L 99.602948 223.823304 
L 100.009173 224.920891 
L 100.415397 203.819628 
L 100.821622 232.364676 
L 101.227846 213.314682 
L 101.63407 216.079806 
L 102.040295 225.424462 
L 102.446519 223.006825 
L 102.852744 229.167986 
L 103.258968 214.532795 
L 103.665192 228.075367 
L 104.071417 219.821494 
L 104.477641 224.412898 
L 104.883866 219.226281 
L 105.29009 218.327922 
L 105.696314 205.286758 
L 106.102539 244.273824 
L 106.508763 232.249838 
L 106.914988 216.866127 
L 107.321212 221.280137 
L 107.727437 230.031224 
L 108.133661 209.044808 
L 108.539885 223.829161 
L 108.94611 224.437958 
L 109.352334 225.388415 
L 109.758559 224.762989 
L 110.164783 219.207394 
L 110.571007 216.880479 
L 110.977232 222.709428 
L 111.383456 222.528367 
L 111.789681 217.765219 
L 112.195905 231.386722 
L 112.602129 222.238337 
L 113.008354 222.882066 
L 113.414578 213.460069 
L 114.227027 224.937118 
L 114.633251 220.524943 
L 115.039476 225.810266 
L 115.4457 224.675067 
L 115.851925 223.947069 
L 116.258149 225.362018 
L 116.664373 206.651374 
L 117.070598 220.68723 
L 117.476822 218.439568 
L 117.883047 229.663886 
L 118.289271 223.584539 
L 118.695495 215.681709 
L 119.10172 227.704434 
L 119.507944 223.312225 
L 119.914169 223.182387 
L 120.320393 211.633674 
L 120.726618 205.859273 
L 121.132842 243.874528 
L 121.539066 208.636253 
L 121.945291 229.397429 
L 122.351515 223.579051 
L 122.75774 209.187487 
L 123.163964 235.341387 
L 123.570188 208.493522 
L 123.976413 222.204177 
L 124.382637 216.798127 
L 124.788862 229.434526 
L 125.195086 226.434324 
L 125.60131 219.801084 
L 126.007535 225.090644 
L 126.413759 219.129375 
L 126.819984 215.408028 
L 127.226208 228.122662 
L 127.632432 223.473349 
L 128.038657 221.822549 
L 128.444881 218.195905 
L 128.851106 227.215948 
L 129.25733 223.796924 
L 129.663554 223.787928 
L 130.069779 221.738549 
L 130.476003 228.136001 
L 130.882228 226.716476 
L 131.288452 226.421646 
L 131.694676 220.856116 
L 132.100901 225.481871 
L 132.507125 219.247648 
L 132.91335 216.314196 
L 133.319574 220.177748 
L 133.725799 218.795961 
L 134.132023 225.29348 
L 134.538247 213.435498 
L 134.944472 220.073592 
L 135.350696 231.268481 
L 135.756921 217.778147 
L 136.163145 220.633138 
L 136.569369 216.020974 
L 137.381818 227.843005 
L 137.788043 222.770005 
L 138.194267 212.748002 
L 138.600491 225.953901 
L 139.006716 220.929937 
L 139.41294 224.09261 
L 140.225389 218.61112 
L 141.037838 225.243639 
L 141.444062 211.725918 
L 141.850287 223.419417 
L 142.256511 226.321174 
L 142.662735 228.030367 
L 143.06896 212.139287 
L 143.881409 219.805524 
L 144.287633 215.301258 
L 144.693857 222.850115 
L 145.100082 234.576633 
L 145.506306 218.28731 
L 145.912531 215.152831 
L 146.318755 234.773036 
L 146.72498 217.981807 
L 147.131204 218.05305 
L 147.537428 225.831791 
L 147.943653 225.054853 
L 148.349877 216.275542 
L 148.756102 218.308811 
L 149.162326 217.314225 
L 149.56855 215.916137 
L 149.974775 221.301887 
L 150.380999 219.824916 
L 150.787224 232.343622 
L 151.193448 221.719153 
L 151.599672 223.251929 
L 152.005897 210.456142 
L 152.412121 228.978103 
L 152.818346 208.300191 
L 153.22457 227.342918 
L 153.630794 224.886212 
L 154.037019 210.623159 
L 154.849468 228.835282 
L 155.255692 217.852061 
L 155.661916 224.66317 
L 156.068141 209.336866 
L 156.474365 228.233235 
L 156.88059 213.06241 
L 157.286814 231.363877 
L 157.693038 212.677626 
L 158.099263 219.108378 
L 158.505487 231.004838 
L 158.911712 216.421669 
L 159.317936 225.939374 
L 159.724161 216.819313 
L 160.130385 216.190404 
L 160.536609 216.811632 
L 160.942834 226.308395 
L 161.349058 221.108586 
L 161.755283 220.895932 
L 162.161507 218.834062 
L 162.567731 215.135608 
L 162.973956 222.007161 
L 163.38018 218.300156 
L 163.786405 221.38601 
L 164.192629 218.787644 
L 164.598853 222.296149 
L 165.005078 217.816355 
L 165.411302 230.807827 
L 165.817527 219.622026 
L 166.223751 213.648899 
L 166.629975 221.039423 
L 167.0362 222.073673 
L 167.442424 229.344899 
L 167.848649 217.081781 
L 168.254873 219.511996 
L 168.661097 219.018073 
L 169.067322 221.158413 
L 169.473546 211.621879 
L 169.879771 226.096801 
L 170.285995 211.430371 
L 170.692219 222.823809 
L 171.098444 228.16006 
L 171.504668 213.174718 
L 171.910893 224.492085 
L 172.317117 211.779872 
L 172.723342 226.671155 
L 173.129566 213.544221 
L 173.53579 214.659077 
L 173.942015 215.440482 
L 174.348239 211.418754 
L 174.754464 220.176489 
L 175.160688 210.376628 
L 175.566912 242.775448 
L 175.973137 229.212322 
L 176.379361 210.709956 
L 176.785586 218.753698 
L 177.19181 221.68433 
L 177.598034 220.661209 
L 178.004259 213.05681 
L 178.410483 211.586613 
L 178.816708 229.355709 
L 179.222932 212.041161 
L 179.629156 215.704505 
L 180.035381 221.128945 
L 180.441605 217.389805 
L 180.84783 219.873549 
L 181.254054 215.30337 
L 181.660278 224.671197 
L 182.066503 220.93126 
L 182.472727 218.800214 
L 182.878952 219.059504 
L 183.285176 232.459284 
L 183.6914 209.787852 
L 184.097625 219.016763 
L 184.503849 223.112308 
L 184.910074 219.078815 
L 185.316298 221.876382 
L 185.722523 226.750182 
L 186.128747 219.110383 
L 186.534971 225.13801 
L 186.941196 229.054456 
L 187.34742 219.68623 
L 187.753645 217.345669 
L 188.159869 227.530392 
L 188.566093 216.157988 
L 188.972318 233.432542 
L 189.378542 211.576622 
L 189.784767 216.225704 
L 190.190991 226.429731 
L 190.597215 221.172965 
L 191.00344 218.177367 
L 191.409664 222.906551 
L 191.815889 217.46595 
L 192.222113 221.876382 
L 192.628337 216.526377 
L 193.034562 223.977774 
L 193.440786 216.961769 
L 193.847011 227.458835 
L 194.253235 208.854316 
L 194.659459 219.426068 
L 195.065684 219.980457 
L 195.471908 215.696447 
L 195.878133 222.098877 
L 196.284357 216.801356 
L 196.690581 220.775677 
L 197.50303 216.336655 
L 197.909255 223.972458 
L 198.315479 221.221413 
L 198.721704 215.307538 
L 199.127928 214.178064 
L 199.534152 214.27349 
L 199.940377 215.102066 
L 200.346601 228.533485 
L 200.752826 217.857737 
L 201.15905 218.939872 
L 201.565274 226.502382 
L 202.377723 213.492256 
L 202.783948 222.207064 
L 203.190172 219.416879 
L 203.596396 221.757197 
L 204.002621 219.316315 
L 204.408845 225.614104 
L 204.81507 218.923321 
L 205.221294 219.541267 
L 205.627518 220.450525 
L 206.033743 218.516032 
L 206.439967 220.703099 
L 206.846192 220.225736 
L 207.252416 224.281113 
L 207.65864 217.381511 
L 208.064865 213.679868 
L 208.877314 231.835598 
L 209.283538 220.809341 
L 209.689762 217.370743 
L 210.095987 223.850533 
L 210.502211 223.561932 
L 210.908436 212.940461 
L 211.31466 233.165268 
L 211.720885 217.632954 
L 212.127109 219.826652 
L 212.533333 213.730657 
L 212.939558 225.827348 
L 213.345782 224.432111 
L 213.752007 218.069 
L 214.158231 222.375166 
L 214.97068 210.879389 
L 215.376904 231.423973 
L 215.783129 213.696529 
L 216.189353 225.055669 
L 216.595577 216.526377 
L 217.001802 223.977774 
L 217.408026 216.961769 
L 217.814251 221.153898 
L 218.220475 211.193926 
L 218.626699 228.030381 
L 219.032924 225.913917 
L 219.439148 208.283497 
L 219.845373 213.910912 
L 220.251597 235.661841 
L 220.657821 215.462694 
L 221.064046 217.842632 
L 221.47027 209.686662 
L 221.876495 218.511551 
L 222.282719 212.653348 
L 222.688943 224.032663 
L 223.095168 212.144731 
L 223.501392 226.962981 
L 223.907617 214.889866 
L 224.313841 219.49488 
L 224.720066 217.167594 
L 225.12629 213.786723 
L 225.532514 221.469448 
L 225.938739 221.675279 
L 226.344963 213.530054 
L 226.751188 220.908687 
L 227.157412 220.951774 
L 227.563636 223.608997 
L 227.969861 220.460568 
L 228.376085 222.883428 
L 228.78231 219.356459 
L 229.188534 219.358712 
L 230.000983 213.997559 
L 230.407207 224.723166 
L 231.219656 212.241891 
L 231.62588 221.772413 
L 232.032105 218.444938 
L 232.438329 219.607909 
L 232.844554 224.112181 
L 233.250778 219.960569 
L 233.657002 217.984817 
L 234.063227 231.193073 
L 234.469451 215.186005 
L 234.875676 227.776084 
L 235.2819 219.46525 
L 235.688124 227.235604 
L 236.094349 215.162858 
L 236.500573 219.108378 
L 236.906798 220.314831 
L 237.313022 216.981881 
L 237.719247 219.338121 
L 238.125471 219.018073 
L 238.531695 217.769701 
L 238.93792 225.596844 
L 239.750369 214.270194 
L 240.156593 220.420113 
L 240.562817 211.98743 
L 240.969042 214.189574 
L 241.375266 237.953006 
L 241.781491 220.87958 
L 242.187715 214.821805 
L 242.593939 217.196076 
L 243.000164 225.557131 
L 243.406388 209.841386 
L 243.812613 222.396911 
L 244.218837 220.775988 
L 244.625061 222.892232 
L 245.031286 222.46715 
L 245.43751 219.25747 
L 245.843735 220.585108 
L 246.249959 228.396176 
L 246.656183 222.278447 
L 247.062408 222.881864 
L 247.468632 223.759725 
L 247.874857 209.80087 
L 248.281081 224.916852 
L 248.687305 222.295487 
L 249.09353 215.509813 
L 249.499754 240.457451 
L 249.905979 205.780198 
L 250.312203 211.216162 
L 250.718428 227.893657 
L 251.124652 202.083523 
L 251.530876 228.364344 
L 251.937101 231.860206 
L 252.343325 226.642683 
L 252.74955 217.88883 
L 253.155774 212.061921 
L 253.561998 223.156235 
L 253.968223 224.429647 
L 254.374447 218.620256 
L 255.186896 227.236969 
L 255.59312 218.773982 
L 255.999345 217.215916 
L 256.405569 224.945616 
L 256.811794 222.465404 
L 257.218018 217.699441 
L 257.624242 237.454062 
L 258.030467 198.917218 
L 258.436691 234.724332 
L 258.842916 224.68976 
L 259.24914 218.355735 
L 259.655364 220.365757 
L 260.467813 227.342178 
L 260.874038 216.271843 
L 261.280262 220.447447 
L 261.686486 218.270032 
L 262.092711 227.925009 
L 262.498935 201.999915 
L 262.90516 247.962345 
L 263.311384 190.202052 
L 263.717609 225.911266 
L 264.123833 225.789906 
L 264.530057 213.814339 
L 264.936282 217.689157 
L 265.342506 219.497072 
L 265.748731 213.301486 
L 266.154955 225.092689 
L 266.967404 219.302757 
L 267.373628 226.743423 
L 267.779853 209.343673 
L 268.186077 230.615154 
L 268.592301 214.544941 
L 268.998526 225.575325 
L 269.40475 216.370971 
L 269.810975 218.805547 
L 270.217199 218.725188 
L 270.623423 219.108378 
L 271.029648 231.29012 
L 271.435872 212.481787 
L 271.842097 208.594124 
L 272.248321 227.541415 
L 272.654545 226.500161 
L 273.06077 222.978687 
L 273.466994 221.218708 
L 273.873219 219.982057 
L 274.279443 216.981881 
L 274.685667 221.081164 
L 275.091892 228.74284 
L 275.498116 227.595643 
L 276.310565 217.634528 
L 276.71679 217.946478 
L 277.123014 218.994407 
L 277.529238 217.717633 
L 277.935463 222.479265 
L 278.341687 223.219711 
L 278.747912 220.172593 
L 279.154136 228.348017 
L 279.56036 224.637729 
L 279.966585 208.182316 
L 280.372809 217.64302 
L 280.779034 230.087268 
L 281.185258 232.307986 
L 281.591482 208.236113 
L 281.997707 227.469695 
L 282.403931 219.788631 
L 282.810156 223.1117 
L 283.21638 219.330812 
L 284.028829 225.003062 
L 284.435053 225.331529 
L 284.841278 210.195913 
L 285.247502 227.771686 
L 285.653726 224.284432 
L 286.059951 224.905107 
L 286.466175 220.277667 
L 286.8724 208.531222 
L 287.684848 230.834051 
L 288.091073 211.145197 
L 288.497297 238.065655 
L 288.903522 213.51779 
L 289.309746 226.706339 
L 289.715971 219.04236 
L 290.122195 222.356348 
L 290.528419 209.681734 
L 290.934644 227.878581 
L 291.340868 220.972401 
L 291.747093 222.796517 
L 292.153317 216.813022 
L 292.559541 226.967036 
L 292.965766 220.295666 
L 293.37199 226.067825 
L 293.778215 228.06617 
L 294.184439 222.41542 
L 294.590663 206.921278 
L 294.996888 218.278841 
L 295.403112 220.805541 
L 295.809337 228.799396 
L 296.215561 224.556193 
L 296.621785 207.879266 
L 297.02801 213.197873 
L 297.434234 226.974444 
L 297.840459 225.99962 
L 298.246683 210.420783 
L 298.652907 221.569796 
L 299.059132 222.877077 
L 299.465356 216.636334 
L 299.871581 223.219906 
L 300.277805 205.565408 
L 300.684029 227.520491 
L 301.090254 212.962485 
L 301.496478 213.256187 
L 301.902703 232.274464 
L 302.308927 230.936698 
L 302.715152 209.095844 
L 303.121376 217.612121 
L 303.5276 231.488523 
L 303.933825 212.961422 
L 304.340049 216.453626 
L 304.746274 233.040068 
L 305.152498 216.437255 
L 305.558722 210.407207 
L 305.964947 227.408075 
L 306.371171 221.068986 
L 306.777396 222.284078 
L 307.18362 226.30262 
L 307.589844 209.455073 
L 307.996069 225.441321 
L 308.402293 224.977003 
L 308.808518 218.161177 
L 309.214742 229.94545 
L 309.620966 220.402863 
L 310.027191 218.642907 
L 310.433415 219.083146 
L 310.83964 212.027014 
L 311.245864 221.460075 
L 311.652088 214.647666 
L 312.058313 221.257193 
L 312.464537 214.294522 
L 312.870762 212.710386 
L 313.276986 241.476272 
L 313.68321 216.275538 
L 314.089435 209.555073 
L 314.495659 208.486997 
L 314.901884 228.132822 
L 315.308108 220.198411 
L 315.714333 219.586754 
L 316.120557 217.959348 
L 316.526781 222.797605 
L 316.933006 219.997311 
L 317.33923 220.982117 
L 317.745455 222.397427 
L 318.151679 215.592139 
L 318.557903 226.895589 
L 318.964128 214.392562 
L 319.370352 225.835649 
L 319.776577 220.456603 
L 320.182801 230.036638 
L 320.589025 211.819434 
L 320.99525 211.767239 
L 321.401474 224.811641 
L 321.807699 218.54884 
L 322.213923 225.741346 
L 322.620147 220.153453 
L 323.026372 220.888634 
L 323.432596 223.314545 
L 323.838821 216.163584 
L 324.245045 218.739061 
L 324.651269 230.221387 
L 325.057494 217.60643 
L 325.463718 224.118306 
L 325.869943 223.630594 
L 326.276167 214.326621 
L 326.682391 227.540461 
L 327.088616 221.045409 
L 327.49484 230.576255 
L 327.901065 222.759962 
L 328.307289 227.142443 
L 328.713514 218.568877 
L 329.119738 220.727717 
L 329.525962 218.573258 
L 329.932187 221.457065 
L 330.744636 204.302946 
L 331.15086 218.89463 
L 331.557084 226.474034 
L 331.963309 223.956779 
L 332.369533 218.527085 
L 332.775758 217.639712 
L 333.181982 225.683036 
L 333.588206 218.661215 
L 334.80688 226.017809 
L 335.213104 209.908232 
L 335.619328 230.582954 
L 336.025553 207.331269 
L 336.431777 213.577942 
L 336.838002 221.565036 
L 337.244226 201.262334 
L 337.65045 224.550699 
L 338.056675 215.147402 
L 338.462899 218.908741 
L 338.869124 226.66689 
L 339.275348 226.453972 
L 339.681572 225.069601 
L 340.087797 216.56265 
L 340.494021 218.803052 
L 340.900246 223.042673 
L 341.30647 221.694669 
L 341.712695 221.971186 
L 342.118919 221.87142 
L 342.525143 215.831219 
L 342.931368 230.881782 
L 343.337592 220.340804 
L 343.743817 220.320178 
L 344.150041 226.482485 
L 344.556265 219.677287 
L 344.96249 220.716942 
L 345.368714 224.472031 
L 346.181163 216.522253 
L 346.587387 220.388177 
L 346.993612 222.581726 
L 347.399836 223.064657 
L 347.806061 221.836151 
L 348.212285 215.971824 
L 348.618509 218.609506 
L 349.024734 224.714828 
L 349.430958 228.162665 
L 349.837183 222.979252 
L 350.243407 225.057388 
L 350.649631 224.497455 
L 351.055856 219.746341 
L 351.46208 221.907451 
L 351.868305 218.716336 
L 352.274529 219.566522 
L 352.680753 211.664038 
L 353.086978 224.055777 
L 353.493202 226.184943 
L 353.899427 219.434184 
L 354.305651 223.935591 
L 354.711876 225.01535 
L 355.1181 214.725534 
L 355.524324 222.994326 
L 355.930549 216.827662 
L 356.336773 232.159187 
L 356.742998 228.859173 
L 357.149222 208.309487 
L 357.555446 229.020234 
L 357.961671 211.321497 
L 358.367895 226.431147 
L 358.77412 214.768686 
L 359.180344 226.526717 
L 359.586568 214.309973 
L 359.992793 223.548634 
L 360.805242 216.4527 
L 361.211466 209.973731 
L 361.61769 222.927878 
L 362.023915 221.685416 
L 362.430139 218.062381 
L 362.836364 216.961769 
L 363.242588 227.973214 
L 363.648812 220.893977 
L 364.055037 228.848003 
L 364.461261 207.53207 
L 364.867486 227.731703 
L 365.27371 216.687326 
L 365.679934 218.8998 
L 366.086159 219.360739 
L 366.492383 220.163288 
L 366.898608 212.496572 
L 367.304832 226.628633 
L 367.711057 224.48237 
L 368.117281 223.065134 
L 368.523505 228.976081 
L 368.92973 231.881456 
L 369.335954 225.498525 
L 369.742179 226.907376 
L 370.148403 225.447725 
L 370.554627 218.116076 
L 370.960852 219.218305 
L 371.367076 232.37492 
L 371.773301 219.79744 
L 372.179525 220.548617 
L 372.585749 226.206226 
L 372.991974 225.530149 
L 373.398198 226.932502 
L 373.804423 214.023788 
L 374.210647 229.478008 
L 374.616871 217.816911 
L 375.023096 220.597606 
L 375.42932 213.583187 
L 375.835545 219.248406 
L 376.241769 223.356193 
L 376.647993 210.370836 
L 377.054218 233.070144 
L 377.460442 217.366236 
L 377.866667 219.23022 
L 378.272891 221.966816 
L 378.679115 222.527598 
L 379.08534 225.603912 
L 379.491564 214.330953 
L 379.897789 240.757066 
L 380.304013 217.726174 
L 380.710238 212.312995 
L 381.116462 227.491864 
L 381.522686 231.242437 
L 381.928911 212.503671 
L 382.335135 219.62348 
L 382.74136 222.02539 
L 383.147584 223.088902 
L 383.553808 219.101725 
L 383.960033 216.533987 
L 384.366257 219.418058 
L 384.772482 227.862321 
L 385.178706 227.322368 
L 385.58493 220.095897 
L 385.991155 220.447281 
L 386.397379 215.090394 
L 386.803604 226.921935 
L 387.209828 223.6614 
L 387.616052 223.918035 
L 388.022277 220.307817 
L 388.428501 219.769924 
L 388.834726 211.610727 
L 389.24095 226.294976 
L 389.647174 224.517127 
L 390.053399 239.852251 
L 390.459623 212.370726 
L 390.865848 224.938519 
L 391.272072 227.632582 
L 391.678296 218.213673 
L 392.084521 216.711688 
L 392.490745 225.540133 
L 392.89697 220.717563 
L 393.303194 212.570198 
L 393.709419 231.028159 
L 394.115643 226.706735 
L 394.521867 220.318527 
L 394.928092 220.90022 
L 395.334316 224.137325 
L 395.740541 221.55106 
L 396.552989 229.027643 
L 396.959214 219.603859 
L 397.365438 234.902695 
L 397.771663 219.317117 
L 398.177887 231.246742 
L 398.584111 229.5242 
L 398.990336 228.33566 
L 399.39656 215.072247 
L 399.802785 214.396216 
L 400.209009 218.425312 
L 400.615233 229.40233 
L 401.021458 220.898932 
L 401.427682 220.513607 
L 401.833907 223.085902 
L 402.240131 220.119904 
L 402.646355 219.885869 
L 403.05258 231.941937 
L 403.458804 219.513319 
L 403.865029 230.202872 
L 404.271253 231.285291 
L 404.677477 219.866724 
L 405.083702 230.265829 
L 405.489926 224.711263 
L 405.896151 224.131429 
L 406.302375 236.057035 
L 406.7086 223.716425 
L 407.114824 228.407592 
L 407.521048 226.212224 
L 407.927273 220.443947 
L 408.333497 233.679481 
L 408.739722 217.764482 
L 409.145946 224.812173 
L 409.55217 221.86458 
L 409.958395 228.88528 
L 410.364619 241.686554 
L 410.770844 220.273778 
L 411.177068 213.253463 
L 411.583292 228.233235 
L 411.989517 213.06241 
L 412.395741 224.256945 
L 412.801966 221.673888 
L 413.20819 231.017452 
L 413.614414 223.002757 
L 414.020639 223.480646 
L 414.426863 231.389799 
L 414.833088 217.822071 
L 415.239312 224.700113 
L 415.645536 221.876382 
L 416.051761 230.465778 
L 416.457985 230.971069 
L 416.86421 231.887091 
L 417.270434 182.465282 
L 417.676658 187.29618 
L 418.082883 241.006718 
L 418.489107 254.795152 
L 420.926454 254.795152 
L 421.332678 369.885058 
L 498.109091 369.885058 
L 498.109091 369.885058 
" style="fill:none;stroke:#008000;stroke-linecap:square;stroke-width:1.5;"/>
   </g>
   <g id="patch_3">
    <path d="M 72 384.48 
L 72 51.84 
" style="fill:none;stroke:#000000;stroke-linecap:square;stroke-linejoin:miter;stroke-width:0.8;"/>
   </g>
   <g id="patch_4">
    <path d="M 518.4 384.48 
L 518.4 51.84 
" style="fill:none;stroke:#000000;stroke-linecap:square;stroke-linejoin:miter;stroke-width:0.8;"/>
   </g>
   <g id="patch_5">
    <path d="M 72 384.48 
L 518.4 384.48 
" style="fill:none;stroke:#000000;stroke-linecap:square;stroke-linejoin:miter;stroke-width:0.8;"/>
   </g>
   <g id="patch_6">
    <path d="M 72 51.84 
L 518.4 51.84 
" style="fill:none;stroke:#000000;stroke-linecap:square;stroke-linejoin:miter;stroke-width:0.8;"/>
   </g>
   <g id="legend_1">
    <g id="patch_7">
     <path d="M 79 89.19625 
L 156.107812 89.19625 
Q 158.107812 89.19625 158.107812 87.19625 
L 158.107812 58.84 
Q 158.107812 56.84 156.107812 56.84 
L 79 56.84 
Q 77 56.84 77 58.84 
L 77 87.19625 
Q 77 89.19625 79 89.19625 
z
" style="fill:#ffffff;opacity:0.8;stroke:#cccccc;stroke-linejoin:miter;"/>
    </g>
    <g id="line2d_15">
     <path d="M 81 64.938437 
L 101 64.938437 
" style="fill:none;stroke:#0000ff;stroke-linecap:square;stroke-width:1.5;"/>
    </g>
    <g id="line2d_16"/>
    <g id="text_15">
     <!-- precision -->
     <g transform="translate(109 68.438437)scale(0.1 -0.1)">
      <defs>
       <path d="M 9.421875 54.6875 
L 18.40625 54.6875 
L 18.40625 0 
L 9.421875 0 
z
M 9.421875 75.984375 
L 18.40625 75.984375 
L 18.40625 64.59375 
L 9.421875 64.59375 
z
" id="DejaVuSans-105"/>
       <path d="M 44.28125 53.078125 
L 44.28125 44.578125 
Q 40.484375 46.53125 36.375 47.5 
Q 32.28125 48.484375 27.875 48.484375 
Q 21.1875 48.484375 17.84375 46.4375 
Q 14.5 44.390625 14.5 40.28125 
Q 14.5 37.15625 16.890625 35.375 
Q 19.28125 33.59375 26.515625 31.984375 
L 29.59375 31.296875 
Q 39.15625 29.25 43.1875 25.515625 
Q 47.21875 21.78125 47.21875 15.09375 
Q 47.21875 7.46875 41.1875 3.015625 
Q 35.15625 -1.421875 24.609375 -1.421875 
Q 20.21875 -1.421875 15.453125 -0.5625 
Q 10.6875 0.296875 5.421875 2 
L 5.421875 11.28125 
Q 10.40625 8.6875 15.234375 7.390625 
Q 20.0625 6.109375 24.8125 6.109375 
Q 31.15625 6.109375 34.5625 8.28125 
Q 37.984375 10.453125 37.984375 14.40625 
Q 37.984375 18.0625 35.515625 20.015625 
Q 33.0625 21.96875 24.703125 23.78125 
L 21.578125 24.515625 
Q 13.234375 26.265625 9.515625 29.90625 
Q 5.8125 33.546875 5.8125 39.890625 
Q 5.8125 47.609375 11.28125 51.796875 
Q 16.75 56 26.8125 56 
Q 31.78125 56 36.171875 55.265625 
Q 40.578125 54.546875 44.28125 53.078125 
z
" id="DejaVuSans-115"/>
       <path d="M 54.890625 33.015625 
L 54.890625 0 
L 45.90625 0 
L 45.90625 32.71875 
Q 45.90625 40.484375 42.875 44.328125 
Q 39.84375 48.1875 33.796875 48.1875 
Q 26.515625 48.1875 22.3125 43.546875 
Q 18.109375 38.921875 18.109375 30.90625 
L 18.109375 0 
L 9.078125 0 
L 9.078125 54.6875 
L 18.109375 54.6875 
L 18.109375 46.1875 
Q 21.34375 51.125 25.703125 53.5625 
Q 30.078125 56 35.796875 56 
Q 45.21875 56 50.046875 50.171875 
Q 54.890625 44.34375 54.890625 33.015625 
z
" id="DejaVuSans-110"/>
      </defs>
      <use xlink:href="#DejaVuSans-112"/>
      <use x="63.476562" xlink:href="#DejaVuSans-114"/>
      <use x="102.339844" xlink:href="#DejaVuSans-101"/>
      <use x="163.863281" xlink:href="#DejaVuSans-99"/>
      <use x="218.84375" xlink:href="#DejaVuSans-105"/>
      <use x="246.626953" xlink:href="#DejaVuSans-115"/>
      <use x="298.726562" xlink:href="#DejaVuSans-105"/>
      <use x="326.509766" xlink:href="#DejaVuSans-111"/>
      <use x="387.691406" xlink:href="#DejaVuSans-110"/>
     </g>
    </g>
    <g id="line2d_17">
     <path d="M 81 79.616562 
L 101 79.616562 
" style="fill:none;stroke:#008000;stroke-linecap:square;stroke-width:1.5;"/>
    </g>
    <g id="line2d_18"/>
    <g id="text_16">
     <!-- recall -->
     <g transform="translate(109 83.116562)scale(0.1 -0.1)">
      <defs>
       <path d="M 9.421875 75.984375 
L 18.40625 75.984375 
L 18.40625 0 
L 9.421875 0 
z
" id="DejaVuSans-108"/>
      </defs>
      <use xlink:href="#DejaVuSans-114"/>
      <use x="38.863281" xlink:href="#DejaVuSans-101"/>
      <use x="100.386719" xlink:href="#DejaVuSans-99"/>
      <use x="155.367188" xlink:href="#DejaVuSans-97"/>
      <use x="216.646484" xlink:href="#DejaVuSans-108"/>
      <use x="244.429688" xlink:href="#DejaVuSans-108"/>
     </g>
    </g>
   </g>
  </g>
  <g id="axes_2">
   <g id="matplotlib.axis_3">
    <g id="ytick_7">
     <g id="line2d_19">
      <defs>
       <path d="M 0 0 
L 3.5 0 
" id="m4d9299f373" style="stroke:#000000;stroke-width:0.8;"/>
      </defs>
      <g>
       <use style="stroke:#000000;stroke-width:0.8;" x="518.4" xlink:href="#m4d9299f373" y="369.79527"/>
      </g>
     </g>
     <g id="text_17">
      <!-- 0 -->
      <g transform="translate(525.4 373.594489)scale(0.1 -0.1)">
       <use xlink:href="#DejaVuSans-48"/>
      </g>
     </g>
    </g>
    <g id="ytick_8">
     <g id="line2d_20">
      <g>
       <use style="stroke:#000000;stroke-width:0.8;" x="518.4" xlink:href="#m4d9299f373" y="300.953834"/>
      </g>
     </g>
     <g id="text_18">
      <!-- 100 -->
      <g transform="translate(525.4 304.753053)scale(0.1 -0.1)">
       <use xlink:href="#DejaVuSans-49"/>
       <use x="63.623047" xlink:href="#DejaVuSans-48"/>
       <use x="127.246094" xlink:href="#DejaVuSans-48"/>
      </g>
     </g>
    </g>
    <g id="ytick_9">
     <g id="line2d_21">
      <g>
       <use style="stroke:#000000;stroke-width:0.8;" x="518.4" xlink:href="#m4d9299f373" y="232.112399"/>
      </g>
     </g>
     <g id="text_19">
      <!-- 200 -->
      <g transform="translate(525.4 235.911617)scale(0.1 -0.1)">
       <use xlink:href="#DejaVuSans-50"/>
       <use x="63.623047" xlink:href="#DejaVuSans-48"/>
       <use x="127.246094" xlink:href="#DejaVuSans-48"/>
      </g>
     </g>
    </g>
    <g id="ytick_10">
     <g id="line2d_22">
      <g>
       <use style="stroke:#000000;stroke-width:0.8;" x="518.4" xlink:href="#m4d9299f373" y="163.270963"/>
      </g>
     </g>
     <g id="text_20">
      <!-- 300 -->
      <g transform="translate(525.4 167.070181)scale(0.1 -0.1)">
       <defs>
        <path d="M 40.578125 39.3125 
Q 47.65625 37.796875 51.625 33 
Q 55.609375 28.21875 55.609375 21.1875 
Q 55.609375 10.40625 48.1875 4.484375 
Q 40.765625 -1.421875 27.09375 -1.421875 
Q 22.515625 -1.421875 17.65625 -0.515625 
Q 12.796875 0.390625 7.625 2.203125 
L 7.625 11.71875 
Q 11.71875 9.328125 16.59375 8.109375 
Q 21.484375 6.890625 26.8125 6.890625 
Q 36.078125 6.890625 40.9375 10.546875 
Q 45.796875 14.203125 45.796875 21.1875 
Q 45.796875 27.640625 41.28125 31.265625 
Q 36.765625 34.90625 28.71875 34.90625 
L 20.21875 34.90625 
L 20.21875 43.015625 
L 29.109375 43.015625 
Q 36.375 43.015625 40.234375 45.921875 
Q 44.09375 48.828125 44.09375 54.296875 
Q 44.09375 59.90625 40.109375 62.90625 
Q 36.140625 65.921875 28.71875 65.921875 
Q 24.65625 65.921875 20.015625 65.03125 
Q 15.375 64.15625 9.8125 62.3125 
L 9.8125 71.09375 
Q 15.4375 72.65625 20.34375 73.4375 
Q 25.25 74.21875 29.59375 74.21875 
Q 40.828125 74.21875 47.359375 69.109375 
Q 53.90625 64.015625 53.90625 55.328125 
Q 53.90625 49.265625 50.4375 45.09375 
Q 46.96875 40.921875 40.578125 39.3125 
z
" id="DejaVuSans-51"/>
       </defs>
       <use xlink:href="#DejaVuSans-51"/>
       <use x="63.623047" xlink:href="#DejaVuSans-48"/>
       <use x="127.246094" xlink:href="#DejaVuSans-48"/>
      </g>
     </g>
    </g>
    <g id="ytick_11">
     <g id="line2d_23">
      <g>
       <use style="stroke:#000000;stroke-width:0.8;" x="518.4" xlink:href="#m4d9299f373" y="94.429527"/>
      </g>
     </g>
     <g id="text_21">
      <!-- 400 -->
      <g transform="translate(525.4 98.228746)scale(0.1 -0.1)">
       <use xlink:href="#DejaVuSans-52"/>
       <use x="63.623047" xlink:href="#DejaVuSans-48"/>
       <use x="127.246094" xlink:href="#DejaVuSans-48"/>
      </g>
     </g>
    </g>
    <g id="text_22">
     <!-- loss -->
     <g transform="translate(556.085938 227.817812)rotate(-90)scale(0.1 -0.1)">
      <use xlink:href="#DejaVuSans-108"/>
      <use x="27.783203" xlink:href="#DejaVuSans-111"/>
      <use x="88.964844" xlink:href="#DejaVuSans-115"/>
      <use x="141.064453" xlink:href="#DejaVuSans-115"/>
     </g>
    </g>
   </g>
   <g id="line2d_24">
    <path clip-path="url(#pd4036e1905)" d="M 92.290909 66.96 
L 92.697133 175.90157 
L 93.509582 290.837955 
L 93.915807 331.665818 
L 94.322031 357.573411 
L 94.728256 365.247368 
L 95.13448 367.287788 
L 95.540704 367.674275 
L 95.946929 367.817737 
L 96.353153 367.057954 
L 96.759378 367.767152 
L 97.571826 367.739957 
L 97.978051 367.818053 
L 99.196724 367.615977 
L 99.602948 367.811519 
L 100.009173 367.820203 
L 100.415397 367.650229 
L 101.227846 367.804794 
L 102.852744 367.864633 
L 104.071417 367.866616 
L 104.477641 367.692653 
L 104.883866 368.018085 
L 105.29009 367.815316 
L 105.696314 367.979485 
L 106.102539 367.874049 
L 107.321212 367.936046 
L 108.133661 367.727624 
L 108.539885 367.931996 
L 108.94611 367.86418 
L 109.352334 368.018609 
L 110.977232 367.946844 
L 111.383456 368.017495 
L 112.602129 367.732887 
L 113.008354 367.903995 
L 113.414578 367.776987 
L 114.227027 367.834741 
L 114.633251 367.753994 
L 115.039476 367.86572 
L 115.4457 367.695897 
L 115.851925 367.878629 
L 116.258149 367.84451 
L 116.664373 367.66316 
L 117.070598 367.880336 
L 117.476822 367.966921 
L 118.289271 367.937952 
L 119.10172 367.911709 
L 120.320393 367.920279 
L 121.539066 367.737893 
L 121.945291 367.863536 
L 124.382637 367.842747 
L 124.788862 368.020997 
L 128.851106 367.903791 
L 129.25733 368.074295 
L 130.069779 368.05252 
L 130.476003 368.129066 
L 130.882228 368.046568 
L 131.694676 368.116492 
L 132.507125 368.074796 
L 132.91335 368.015191 
L 133.319574 368.350362 
L 134.538247 368.769028 
L 137.381818 368.777526 
L 137.788043 368.744718 
L 138.600491 368.823282 
L 149.162326 368.959725 
L 149.974775 368.976036 
L 153.630794 369.023376 
L 154.849468 369.04322 
L 161.349058 369.078662 
L 162.567731 369.11909 
L 166.629975 369.124033 
L 253.968223 369.295629 
L 494.046847 369.357992 
L 498.109091 369.36 
L 498.109091 369.36 
" style="fill:none;stroke:#ff0000;stroke-linecap:square;stroke-width:1.5;"/>
   </g>
   <g id="patch_8">
    <path d="M 72 384.48 
L 72 51.84 
" style="fill:none;stroke:#000000;stroke-linecap:square;stroke-linejoin:miter;stroke-width:0.8;"/>
   </g>
   <g id="patch_9">
    <path d="M 518.4 384.48 
L 518.4 51.84 
" style="fill:none;stroke:#000000;stroke-linecap:square;stroke-linejoin:miter;stroke-width:0.8;"/>
   </g>
   <g id="patch_10">
    <path d="M 72 384.48 
L 518.4 384.48 
" style="fill:none;stroke:#000000;stroke-linecap:square;stroke-linejoin:miter;stroke-width:0.8;"/>
   </g>
   <g id="patch_11">
    <path d="M 72 51.84 
L 518.4 51.84 
" style="fill:none;stroke:#000000;stroke-linecap:square;stroke-linejoin:miter;stroke-width:0.8;"/>
   </g>
   <g id="text_23">
    <!-- The learning curve on 8clients_non_iid_agg/host/8 -->
    <g transform="translate(144.702188 45.84)scale(0.12 -0.12)">
     <defs>
      <path d="M -0.296875 72.90625 
L 61.375 72.90625 
L 61.375 64.59375 
L 35.5 64.59375 
L 35.5 0 
L 25.59375 0 
L 25.59375 64.59375 
L -0.296875 64.59375 
z
" id="DejaVuSans-84"/>
      <path id="DejaVuSans-32"/>
      <path d="M 45.40625 27.984375 
Q 45.40625 37.75 41.375 43.109375 
Q 37.359375 48.484375 30.078125 48.484375 
Q 22.859375 48.484375 18.828125 43.109375 
Q 14.796875 37.75 14.796875 27.984375 
Q 14.796875 18.265625 18.828125 12.890625 
Q 22.859375 7.515625 30.078125 7.515625 
Q 37.359375 7.515625 41.375 12.890625 
Q 45.40625 18.265625 45.40625 27.984375 
z
M 54.390625 6.78125 
Q 54.390625 -7.171875 48.1875 -13.984375 
Q 42 -20.796875 29.203125 -20.796875 
Q 24.46875 -20.796875 20.265625 -20.09375 
Q 16.0625 -19.390625 12.109375 -17.921875 
L 12.109375 -9.1875 
Q 16.0625 -11.328125 19.921875 -12.34375 
Q 23.78125 -13.375 27.78125 -13.375 
Q 36.625 -13.375 41.015625 -8.765625 
Q 45.40625 -4.15625 45.40625 5.171875 
L 45.40625 9.625 
Q 42.625 4.78125 38.28125 2.390625 
Q 33.9375 0 27.875 0 
Q 17.828125 0 11.671875 7.65625 
Q 5.515625 15.328125 5.515625 27.984375 
Q 5.515625 40.671875 11.671875 48.328125 
Q 17.828125 56 27.875 56 
Q 33.9375 56 38.28125 53.609375 
Q 42.625 51.21875 45.40625 46.390625 
L 45.40625 54.6875 
L 54.390625 54.6875 
z
" id="DejaVuSans-103"/>
      <path d="M 8.5 21.578125 
L 8.5 54.6875 
L 17.484375 54.6875 
L 17.484375 21.921875 
Q 17.484375 14.15625 20.5 10.265625 
Q 23.53125 6.390625 29.59375 6.390625 
Q 36.859375 6.390625 41.078125 11.03125 
Q 45.3125 15.671875 45.3125 23.6875 
L 45.3125 54.6875 
L 54.296875 54.6875 
L 54.296875 0 
L 45.3125 0 
L 45.3125 8.40625 
Q 42.046875 3.421875 37.71875 1 
Q 33.40625 -1.421875 27.6875 -1.421875 
Q 18.265625 -1.421875 13.375 4.4375 
Q 8.5 10.296875 8.5 21.578125 
z
M 31.109375 56 
z
" id="DejaVuSans-117"/>
      <path d="M 2.984375 54.6875 
L 12.5 54.6875 
L 29.59375 8.796875 
L 46.6875 54.6875 
L 56.203125 54.6875 
L 35.6875 0 
L 23.484375 0 
z
" id="DejaVuSans-118"/>
      <path d="M 50.984375 -16.609375 
L 50.984375 -23.578125 
L -0.984375 -23.578125 
L -0.984375 -16.609375 
z
" id="DejaVuSans-95"/>
      <path d="M 45.40625 46.390625 
L 45.40625 75.984375 
L 54.390625 75.984375 
L 54.390625 0 
L 45.40625 0 
L 45.40625 8.203125 
Q 42.578125 3.328125 38.25 0.953125 
Q 33.9375 -1.421875 27.875 -1.421875 
Q 17.96875 -1.421875 11.734375 6.484375 
Q 5.515625 14.40625 5.515625 27.296875 
Q 5.515625 40.1875 11.734375 48.09375 
Q 17.96875 56 27.875 56 
Q 33.9375 56 38.25 53.625 
Q 42.578125 51.265625 45.40625 46.390625 
z
M 14.796875 27.296875 
Q 14.796875 17.390625 18.875 11.75 
Q 22.953125 6.109375 30.078125 6.109375 
Q 37.203125 6.109375 41.296875 11.75 
Q 45.40625 17.390625 45.40625 27.296875 
Q 45.40625 37.203125 41.296875 42.84375 
Q 37.203125 48.484375 30.078125 48.484375 
Q 22.953125 48.484375 18.875 42.84375 
Q 14.796875 37.203125 14.796875 27.296875 
z
" id="DejaVuSans-100"/>
      <path d="M 25.390625 72.90625 
L 33.6875 72.90625 
L 8.296875 -9.28125 
L 0 -9.28125 
z
" id="DejaVuSans-47"/>
     </defs>
     <use xlink:href="#DejaVuSans-84"/>
     <use x="61.083984" xlink:href="#DejaVuSans-104"/>
     <use x="124.462891" xlink:href="#DejaVuSans-101"/>
     <use x="185.986328" xlink:href="#DejaVuSans-32"/>
     <use x="217.773438" xlink:href="#DejaVuSans-108"/>
     <use x="245.556641" xlink:href="#DejaVuSans-101"/>
     <use x="307.080078" xlink:href="#DejaVuSans-97"/>
     <use x="368.359375" xlink:href="#DejaVuSans-114"/>
     <use x="407.722656" xlink:href="#DejaVuSans-110"/>
     <use x="471.101562" xlink:href="#DejaVuSans-105"/>
     <use x="498.884766" xlink:href="#DejaVuSans-110"/>
     <use x="562.263672" xlink:href="#DejaVuSans-103"/>
     <use x="625.740234" xlink:href="#DejaVuSans-32"/>
     <use x="657.527344" xlink:href="#DejaVuSans-99"/>
     <use x="712.507812" xlink:href="#DejaVuSans-117"/>
     <use x="775.886719" xlink:href="#DejaVuSans-114"/>
     <use x="817" xlink:href="#DejaVuSans-118"/>
     <use x="876.179688" xlink:href="#DejaVuSans-101"/>
     <use x="937.703125" xlink:href="#DejaVuSans-32"/>
     <use x="969.490234" xlink:href="#DejaVuSans-111"/>
     <use x="1030.671875" xlink:href="#DejaVuSans-110"/>
     <use x="1094.050781" xlink:href="#DejaVuSans-32"/>
     <use x="1125.837891" xlink:href="#DejaVuSans-56"/>
     <use x="1189.460938" xlink:href="#DejaVuSans-99"/>
     <use x="1244.441406" xlink:href="#DejaVuSans-108"/>
     <use x="1272.224609" xlink:href="#DejaVuSans-105"/>
     <use x="1300.007812" xlink:href="#DejaVuSans-101"/>
     <use x="1361.53125" xlink:href="#DejaVuSans-110"/>
     <use x="1424.910156" xlink:href="#DejaVuSans-116"/>
     <use x="1464.119141" xlink:href="#DejaVuSans-115"/>
     <use x="1516.21875" xlink:href="#DejaVuSans-95"/>
     <use x="1566.21875" xlink:href="#DejaVuSans-110"/>
     <use x="1629.597656" xlink:href="#DejaVuSans-111"/>
     <use x="1690.779297" xlink:href="#DejaVuSans-110"/>
     <use x="1754.158203" xlink:href="#DejaVuSans-95"/>
     <use x="1804.158203" xlink:href="#DejaVuSans-105"/>
     <use x="1831.941406" xlink:href="#DejaVuSans-105"/>
     <use x="1859.724609" xlink:href="#DejaVuSans-100"/>
     <use x="1923.201172" xlink:href="#DejaVuSans-95"/>
     <use x="1973.201172" xlink:href="#DejaVuSans-97"/>
     <use x="2034.480469" xlink:href="#DejaVuSans-103"/>
     <use x="2097.957031" xlink:href="#DejaVuSans-103"/>
     <use x="2161.433594" xlink:href="#DejaVuSans-47"/>
     <use x="2195.125" xlink:href="#DejaVuSans-104"/>
     <use x="2258.503906" xlink:href="#DejaVuSans-111"/>
     <use x="2319.685547" xlink:href="#DejaVuSans-115"/>
     <use x="2371.785156" xlink:href="#DejaVuSans-116"/>
     <use x="2410.994141" xlink:href="#DejaVuSans-47"/>
     <use x="2444.685547" xlink:href="#DejaVuSans-56"/>
    </g>
   </g>
   <g id="legend_2">
    <g id="patch_12">
     <path d="M 460.084375 74.518125 
L 511.4 74.518125 
Q 513.4 74.518125 513.4 72.518125 
L 513.4 58.84 
Q 513.4 56.84 511.4 56.84 
L 460.084375 56.84 
Q 458.084375 56.84 458.084375 58.84 
L 458.084375 72.518125 
Q 458.084375 74.518125 460.084375 74.518125 
z
" style="fill:#ffffff;opacity:0.8;stroke:#cccccc;stroke-linejoin:miter;"/>
    </g>
    <g id="line2d_25">
     <path d="M 462.084375 64.938438 
L 482.084375 64.938438 
" style="fill:none;stroke:#ff0000;stroke-linecap:square;stroke-width:1.5;"/>
    </g>
    <g id="line2d_26"/>
    <g id="text_24">
     <!-- loss -->
     <g transform="translate(490.084375 68.438438)scale(0.1 -0.1)">
      <use xlink:href="#DejaVuSans-108"/>
      <use x="27.783203" xlink:href="#DejaVuSans-111"/>
      <use x="88.964844" xlink:href="#DejaVuSans-115"/>
      <use x="141.064453" xlink:href="#DejaVuSans-115"/>
     </g>
    </g>
   </g>
  </g>
 </g>
 <defs>
  <clipPath id="pd4036e1905">
   <rect height="332.64" width="446.4" x="72" y="51.84"/>
  </clipPath>
 </defs>
</svg>
