<?xml version="1.0" encoding="utf-8" standalone="no"?>
<!DOCTYPE svg PUBLIC "-//W3C//DTD SVG 1.1//EN"
  "http://www.w3.org/Graphics/SVG/1.1/DTD/svg11.dtd">
<svg xmlns:xlink="http://www.w3.org/1999/xlink" width="460.8pt" height="345.6pt" viewBox="0 0 460.8 345.6" xmlns="http://www.w3.org/2000/svg" version="1.1">
 <metadata>
  <rdf:RDF xmlns:dc="http://purl.org/dc/elements/1.1/" xmlns:cc="http://creativecommons.org/ns#" xmlns:rdf="http://www.w3.org/1999/02/22-rdf-syntax-ns#">
   <cc:Work>
    <dc:type rdf:resource="http://purl.org/dc/dcmitype/StillImage"/>
    <dc:date>2023-04-13T09:22:58.582087</dc:date>
    <dc:format>image/svg+xml</dc:format>
    <dc:creator>
     <cc:Agent>
      <dc:title>Matplotlib v3.7.1, https://matplotlib.org/</dc:title>
     </cc:Agent>
    </dc:creator>
   </cc:Work>
  </rdf:RDF>
 </metadata>
 <defs>
  <style type="text/css">*{stroke-linejoin: round; stroke-linecap: butt}</style>
 </defs>
 <g id="figure_1">
  <g id="patch_1">
   <path d="M 0 345.6 
L 460.8 345.6 
L 460.8 0 
L 0 0 
z
" style="fill: #ffffff"/>
  </g>
  <g id="axes_1">
   <g id="patch_2">
    <path d="M 57.6 307.584 
L 414.72 307.584 
L 414.72 41.472 
L 57.6 41.472 
z
" style="fill: #ffffff"/>
   </g>
   <g id="matplotlib.axis_1">
    <g id="xtick_1">
     <g id="line2d_1">
      <defs>
       <path id="m7eee075323" d="M 0 0 
L 0 3.5 
" style="stroke: #000000; stroke-width: 0.8"/>
      </defs>
      <g>
       <use xlink:href="#m7eee075323" x="73.832727" y="307.584" style="stroke: #000000; stroke-width: 0.8"/>
      </g>
     </g>
     <g id="text_1">
      <!-- 0 -->
      <g transform="translate(70.651477 322.182437) scale(0.1 -0.1)">
       <defs>
        <path id="DejaVuSans-30" d="M 2034 4250 
Q 1547 4250 1301 3770 
Q 1056 3291 1056 2328 
Q 1056 1369 1301 889 
Q 1547 409 2034 409 
Q 2525 409 2770 889 
Q 3016 1369 3016 2328 
Q 3016 3291 2770 3770 
Q 2525 4250 2034 4250 
z
M 2034 4750 
Q 2819 4750 3233 4129 
Q 3647 3509 3647 2328 
Q 3647 1150 3233 529 
Q 2819 -91 2034 -91 
Q 1250 -91 836 529 
Q 422 1150 422 2328 
Q 422 3509 836 4129 
Q 1250 4750 2034 4750 
z
" transform="scale(0.015625)"/>
       </defs>
       <use xlink:href="#DejaVuSans-30"/>
      </g>
     </g>
    </g>
    <g id="xtick_2">
     <g id="line2d_2">
      <g>
       <use xlink:href="#m7eee075323" x="138.893758" y="307.584" style="stroke: #000000; stroke-width: 0.8"/>
      </g>
     </g>
     <g id="text_2">
      <!-- 100 -->
      <g transform="translate(129.350008 322.182437) scale(0.1 -0.1)">
       <defs>
        <path id="DejaVuSans-31" d="M 794 531 
L 1825 531 
L 1825 4091 
L 703 3866 
L 703 4441 
L 1819 4666 
L 2450 4666 
L 2450 531 
L 3481 531 
L 3481 0 
L 794 0 
L 794 531 
z
" transform="scale(0.015625)"/>
       </defs>
       <use xlink:href="#DejaVuSans-31"/>
       <use xlink:href="#DejaVuSans-30" x="63.623047"/>
       <use xlink:href="#DejaVuSans-30" x="127.246094"/>
      </g>
     </g>
    </g>
    <g id="xtick_3">
     <g id="line2d_3">
      <g>
       <use xlink:href="#m7eee075323" x="203.95479" y="307.584" style="stroke: #000000; stroke-width: 0.8"/>
      </g>
     </g>
     <g id="text_3">
      <!-- 200 -->
      <g transform="translate(194.41104 322.182437) scale(0.1 -0.1)">
       <defs>
        <path id="DejaVuSans-32" d="M 1228 531 
L 3431 531 
L 3431 0 
L 469 0 
L 469 531 
Q 828 903 1448 1529 
Q 2069 2156 2228 2338 
Q 2531 2678 2651 2914 
Q 2772 3150 2772 3378 
Q 2772 3750 2511 3984 
Q 2250 4219 1831 4219 
Q 1534 4219 1204 4116 
Q 875 4013 500 3803 
L 500 4441 
Q 881 4594 1212 4672 
Q 1544 4750 1819 4750 
Q 2544 4750 2975 4387 
Q 3406 4025 3406 3419 
Q 3406 3131 3298 2873 
Q 3191 2616 2906 2266 
Q 2828 2175 2409 1742 
Q 1991 1309 1228 531 
z
" transform="scale(0.015625)"/>
       </defs>
       <use xlink:href="#DejaVuSans-32"/>
       <use xlink:href="#DejaVuSans-30" x="63.623047"/>
       <use xlink:href="#DejaVuSans-30" x="127.246094"/>
      </g>
     </g>
    </g>
    <g id="xtick_4">
     <g id="line2d_4">
      <g>
       <use xlink:href="#m7eee075323" x="269.015821" y="307.584" style="stroke: #000000; stroke-width: 0.8"/>
      </g>
     </g>
     <g id="text_4">
      <!-- 300 -->
      <g transform="translate(259.472071 322.182437) scale(0.1 -0.1)">
       <defs>
        <path id="DejaVuSans-33" d="M 2597 2516 
Q 3050 2419 3304 2112 
Q 3559 1806 3559 1356 
Q 3559 666 3084 287 
Q 2609 -91 1734 -91 
Q 1441 -91 1130 -33 
Q 819 25 488 141 
L 488 750 
Q 750 597 1062 519 
Q 1375 441 1716 441 
Q 2309 441 2620 675 
Q 2931 909 2931 1356 
Q 2931 1769 2642 2001 
Q 2353 2234 1838 2234 
L 1294 2234 
L 1294 2753 
L 1863 2753 
Q 2328 2753 2575 2939 
Q 2822 3125 2822 3475 
Q 2822 3834 2567 4026 
Q 2313 4219 1838 4219 
Q 1578 4219 1281 4162 
Q 984 4106 628 3988 
L 628 4550 
Q 988 4650 1302 4700 
Q 1616 4750 1894 4750 
Q 2613 4750 3031 4423 
Q 3450 4097 3450 3541 
Q 3450 3153 3228 2886 
Q 3006 2619 2597 2516 
z
" transform="scale(0.015625)"/>
       </defs>
       <use xlink:href="#DejaVuSans-33"/>
       <use xlink:href="#DejaVuSans-30" x="63.623047"/>
       <use xlink:href="#DejaVuSans-30" x="127.246094"/>
      </g>
     </g>
    </g>
    <g id="xtick_5">
     <g id="line2d_5">
      <g>
       <use xlink:href="#m7eee075323" x="334.076852" y="307.584" style="stroke: #000000; stroke-width: 0.8"/>
      </g>
     </g>
     <g id="text_5">
      <!-- 400 -->
      <g transform="translate(324.533102 322.182437) scale(0.1 -0.1)">
       <defs>
        <path id="DejaVuSans-34" d="M 2419 4116 
L 825 1625 
L 2419 1625 
L 2419 4116 
z
M 2253 4666 
L 3047 4666 
L 3047 1625 
L 3713 1625 
L 3713 1100 
L 3047 1100 
L 3047 0 
L 2419 0 
L 2419 1100 
L 313 1100 
L 313 1709 
L 2253 4666 
z
" transform="scale(0.015625)"/>
       </defs>
       <use xlink:href="#DejaVuSans-34"/>
       <use xlink:href="#DejaVuSans-30" x="63.623047"/>
       <use xlink:href="#DejaVuSans-30" x="127.246094"/>
      </g>
     </g>
    </g>
    <g id="xtick_6">
     <g id="line2d_6">
      <g>
       <use xlink:href="#m7eee075323" x="399.137883" y="307.584" style="stroke: #000000; stroke-width: 0.8"/>
      </g>
     </g>
     <g id="text_6">
      <!-- 500 -->
      <g transform="translate(389.594133 322.182437) scale(0.1 -0.1)">
       <defs>
        <path id="DejaVuSans-35" d="M 691 4666 
L 3169 4666 
L 3169 4134 
L 1269 4134 
L 1269 2991 
Q 1406 3038 1543 3061 
Q 1681 3084 1819 3084 
Q 2600 3084 3056 2656 
Q 3513 2228 3513 1497 
Q 3513 744 3044 326 
Q 2575 -91 1722 -91 
Q 1428 -91 1123 -41 
Q 819 9 494 109 
L 494 744 
Q 775 591 1075 516 
Q 1375 441 1709 441 
Q 2250 441 2565 725 
Q 2881 1009 2881 1497 
Q 2881 1984 2565 2268 
Q 2250 2553 1709 2553 
Q 1456 2553 1204 2497 
Q 953 2441 691 2322 
L 691 4666 
z
" transform="scale(0.015625)"/>
       </defs>
       <use xlink:href="#DejaVuSans-35"/>
       <use xlink:href="#DejaVuSans-30" x="63.623047"/>
       <use xlink:href="#DejaVuSans-30" x="127.246094"/>
      </g>
     </g>
    </g>
    <g id="text_7">
     <!-- epoch -->
     <g transform="translate(220.931875 335.860562) scale(0.1 -0.1)">
      <defs>
       <path id="DejaVuSans-65" d="M 3597 1894 
L 3597 1613 
L 953 1613 
Q 991 1019 1311 708 
Q 1631 397 2203 397 
Q 2534 397 2845 478 
Q 3156 559 3463 722 
L 3463 178 
Q 3153 47 2828 -22 
Q 2503 -91 2169 -91 
Q 1331 -91 842 396 
Q 353 884 353 1716 
Q 353 2575 817 3079 
Q 1281 3584 2069 3584 
Q 2775 3584 3186 3129 
Q 3597 2675 3597 1894 
z
M 3022 2063 
Q 3016 2534 2758 2815 
Q 2500 3097 2075 3097 
Q 1594 3097 1305 2825 
Q 1016 2553 972 2059 
L 3022 2063 
z
" transform="scale(0.015625)"/>
       <path id="DejaVuSans-70" d="M 1159 525 
L 1159 -1331 
L 581 -1331 
L 581 3500 
L 1159 3500 
L 1159 2969 
Q 1341 3281 1617 3432 
Q 1894 3584 2278 3584 
Q 2916 3584 3314 3078 
Q 3713 2572 3713 1747 
Q 3713 922 3314 415 
Q 2916 -91 2278 -91 
Q 1894 -91 1617 61 
Q 1341 213 1159 525 
z
M 3116 1747 
Q 3116 2381 2855 2742 
Q 2594 3103 2138 3103 
Q 1681 3103 1420 2742 
Q 1159 2381 1159 1747 
Q 1159 1113 1420 752 
Q 1681 391 2138 391 
Q 2594 391 2855 752 
Q 3116 1113 3116 1747 
z
" transform="scale(0.015625)"/>
       <path id="DejaVuSans-6f" d="M 1959 3097 
Q 1497 3097 1228 2736 
Q 959 2375 959 1747 
Q 959 1119 1226 758 
Q 1494 397 1959 397 
Q 2419 397 2687 759 
Q 2956 1122 2956 1747 
Q 2956 2369 2687 2733 
Q 2419 3097 1959 3097 
z
M 1959 3584 
Q 2709 3584 3137 3096 
Q 3566 2609 3566 1747 
Q 3566 888 3137 398 
Q 2709 -91 1959 -91 
Q 1206 -91 779 398 
Q 353 888 353 1747 
Q 353 2609 779 3096 
Q 1206 3584 1959 3584 
z
" transform="scale(0.015625)"/>
       <path id="DejaVuSans-63" d="M 3122 3366 
L 3122 2828 
Q 2878 2963 2633 3030 
Q 2388 3097 2138 3097 
Q 1578 3097 1268 2742 
Q 959 2388 959 1747 
Q 959 1106 1268 751 
Q 1578 397 2138 397 
Q 2388 397 2633 464 
Q 2878 531 3122 666 
L 3122 134 
Q 2881 22 2623 -34 
Q 2366 -91 2075 -91 
Q 1284 -91 818 406 
Q 353 903 353 1747 
Q 353 2603 823 3093 
Q 1294 3584 2113 3584 
Q 2378 3584 2631 3529 
Q 2884 3475 3122 3366 
z
" transform="scale(0.015625)"/>
       <path id="DejaVuSans-68" d="M 3513 2113 
L 3513 0 
L 2938 0 
L 2938 2094 
Q 2938 2591 2744 2837 
Q 2550 3084 2163 3084 
Q 1697 3084 1428 2787 
Q 1159 2491 1159 1978 
L 1159 0 
L 581 0 
L 581 4863 
L 1159 4863 
L 1159 2956 
Q 1366 3272 1645 3428 
Q 1925 3584 2291 3584 
Q 2894 3584 3203 3211 
Q 3513 2838 3513 2113 
z
" transform="scale(0.015625)"/>
      </defs>
      <use xlink:href="#DejaVuSans-65"/>
      <use xlink:href="#DejaVuSans-70" x="61.523438"/>
      <use xlink:href="#DejaVuSans-6f" x="125"/>
      <use xlink:href="#DejaVuSans-63" x="186.181641"/>
      <use xlink:href="#DejaVuSans-68" x="241.162109"/>
     </g>
    </g>
   </g>
   <g id="matplotlib.axis_2">
    <g id="ytick_1">
     <g id="line2d_7">
      <defs>
       <path id="m8892354b32" d="M 0 0 
L -3.5 0 
" style="stroke: #000000; stroke-width: 0.8"/>
      </defs>
      <g>
       <use xlink:href="#m8892354b32" x="57.6" y="294.62472" style="stroke: #000000; stroke-width: 0.8"/>
      </g>
     </g>
     <g id="text_8">
      <!-- 0.1 -->
      <g transform="translate(34.696875 298.423939) scale(0.1 -0.1)">
       <defs>
        <path id="DejaVuSans-2e" d="M 684 794 
L 1344 794 
L 1344 0 
L 684 0 
L 684 794 
z
" transform="scale(0.015625)"/>
       </defs>
       <use xlink:href="#DejaVuSans-30"/>
       <use xlink:href="#DejaVuSans-2e" x="63.623047"/>
       <use xlink:href="#DejaVuSans-31" x="95.410156"/>
      </g>
     </g>
    </g>
    <g id="ytick_2">
     <g id="line2d_8">
      <g>
       <use xlink:href="#m8892354b32" x="57.6" y="264.308234" style="stroke: #000000; stroke-width: 0.8"/>
      </g>
     </g>
     <g id="text_9">
      <!-- 0.2 -->
      <g transform="translate(34.696875 268.107453) scale(0.1 -0.1)">
       <use xlink:href="#DejaVuSans-30"/>
       <use xlink:href="#DejaVuSans-2e" x="63.623047"/>
       <use xlink:href="#DejaVuSans-32" x="95.410156"/>
      </g>
     </g>
    </g>
    <g id="ytick_3">
     <g id="line2d_9">
      <g>
       <use xlink:href="#m8892354b32" x="57.6" y="233.991747" style="stroke: #000000; stroke-width: 0.8"/>
      </g>
     </g>
     <g id="text_10">
      <!-- 0.3 -->
      <g transform="translate(34.696875 237.790966) scale(0.1 -0.1)">
       <use xlink:href="#DejaVuSans-30"/>
       <use xlink:href="#DejaVuSans-2e" x="63.623047"/>
       <use xlink:href="#DejaVuSans-33" x="95.410156"/>
      </g>
     </g>
    </g>
    <g id="ytick_4">
     <g id="line2d_10">
      <g>
       <use xlink:href="#m8892354b32" x="57.6" y="203.675261" style="stroke: #000000; stroke-width: 0.8"/>
      </g>
     </g>
     <g id="text_11">
      <!-- 0.4 -->
      <g transform="translate(34.696875 207.474479) scale(0.1 -0.1)">
       <use xlink:href="#DejaVuSans-30"/>
       <use xlink:href="#DejaVuSans-2e" x="63.623047"/>
       <use xlink:href="#DejaVuSans-34" x="95.410156"/>
      </g>
     </g>
    </g>
    <g id="ytick_5">
     <g id="line2d_11">
      <g>
       <use xlink:href="#m8892354b32" x="57.6" y="173.358774" style="stroke: #000000; stroke-width: 0.8"/>
      </g>
     </g>
     <g id="text_12">
      <!-- 0.5 -->
      <g transform="translate(34.696875 177.157993) scale(0.1 -0.1)">
       <use xlink:href="#DejaVuSans-30"/>
       <use xlink:href="#DejaVuSans-2e" x="63.623047"/>
       <use xlink:href="#DejaVuSans-35" x="95.410156"/>
      </g>
     </g>
    </g>
    <g id="ytick_6">
     <g id="line2d_12">
      <g>
       <use xlink:href="#m8892354b32" x="57.6" y="143.042287" style="stroke: #000000; stroke-width: 0.8"/>
      </g>
     </g>
     <g id="text_13">
      <!-- 0.6 -->
      <g transform="translate(34.696875 146.841506) scale(0.1 -0.1)">
       <defs>
        <path id="DejaVuSans-36" d="M 2113 2584 
Q 1688 2584 1439 2293 
Q 1191 2003 1191 1497 
Q 1191 994 1439 701 
Q 1688 409 2113 409 
Q 2538 409 2786 701 
Q 3034 994 3034 1497 
Q 3034 2003 2786 2293 
Q 2538 2584 2113 2584 
z
M 3366 4563 
L 3366 3988 
Q 3128 4100 2886 4159 
Q 2644 4219 2406 4219 
Q 1781 4219 1451 3797 
Q 1122 3375 1075 2522 
Q 1259 2794 1537 2939 
Q 1816 3084 2150 3084 
Q 2853 3084 3261 2657 
Q 3669 2231 3669 1497 
Q 3669 778 3244 343 
Q 2819 -91 2113 -91 
Q 1303 -91 875 529 
Q 447 1150 447 2328 
Q 447 3434 972 4092 
Q 1497 4750 2381 4750 
Q 2619 4750 2861 4703 
Q 3103 4656 3366 4563 
z
" transform="scale(0.015625)"/>
       </defs>
       <use xlink:href="#DejaVuSans-30"/>
       <use xlink:href="#DejaVuSans-2e" x="63.623047"/>
       <use xlink:href="#DejaVuSans-36" x="95.410156"/>
      </g>
     </g>
    </g>
    <g id="ytick_7">
     <g id="line2d_13">
      <g>
       <use xlink:href="#m8892354b32" x="57.6" y="112.725801" style="stroke: #000000; stroke-width: 0.8"/>
      </g>
     </g>
     <g id="text_14">
      <!-- 0.7 -->
      <g transform="translate(34.696875 116.525019) scale(0.1 -0.1)">
       <defs>
        <path id="DejaVuSans-37" d="M 525 4666 
L 3525 4666 
L 3525 4397 
L 1831 0 
L 1172 0 
L 2766 4134 
L 525 4134 
L 525 4666 
z
" transform="scale(0.015625)"/>
       </defs>
       <use xlink:href="#DejaVuSans-30"/>
       <use xlink:href="#DejaVuSans-2e" x="63.623047"/>
       <use xlink:href="#DejaVuSans-37" x="95.410156"/>
      </g>
     </g>
    </g>
    <g id="ytick_8">
     <g id="line2d_14">
      <g>
       <use xlink:href="#m8892354b32" x="57.6" y="82.409314" style="stroke: #000000; stroke-width: 0.8"/>
      </g>
     </g>
     <g id="text_15">
      <!-- 0.8 -->
      <g transform="translate(34.696875 86.208533) scale(0.1 -0.1)">
       <defs>
        <path id="DejaVuSans-38" d="M 2034 2216 
Q 1584 2216 1326 1975 
Q 1069 1734 1069 1313 
Q 1069 891 1326 650 
Q 1584 409 2034 409 
Q 2484 409 2743 651 
Q 3003 894 3003 1313 
Q 3003 1734 2745 1975 
Q 2488 2216 2034 2216 
z
M 1403 2484 
Q 997 2584 770 2862 
Q 544 3141 544 3541 
Q 544 4100 942 4425 
Q 1341 4750 2034 4750 
Q 2731 4750 3128 4425 
Q 3525 4100 3525 3541 
Q 3525 3141 3298 2862 
Q 3072 2584 2669 2484 
Q 3125 2378 3379 2068 
Q 3634 1759 3634 1313 
Q 3634 634 3220 271 
Q 2806 -91 2034 -91 
Q 1263 -91 848 271 
Q 434 634 434 1313 
Q 434 1759 690 2068 
Q 947 2378 1403 2484 
z
M 1172 3481 
Q 1172 3119 1398 2916 
Q 1625 2713 2034 2713 
Q 2441 2713 2670 2916 
Q 2900 3119 2900 3481 
Q 2900 3844 2670 4047 
Q 2441 4250 2034 4250 
Q 1625 4250 1398 4047 
Q 1172 3844 1172 3481 
z
" transform="scale(0.015625)"/>
       </defs>
       <use xlink:href="#DejaVuSans-30"/>
       <use xlink:href="#DejaVuSans-2e" x="63.623047"/>
       <use xlink:href="#DejaVuSans-38" x="95.410156"/>
      </g>
     </g>
    </g>
    <g id="ytick_9">
     <g id="line2d_15">
      <g>
       <use xlink:href="#m8892354b32" x="57.6" y="52.092827" style="stroke: #000000; stroke-width: 0.8"/>
      </g>
     </g>
     <g id="text_16">
      <!-- 0.9 -->
      <g transform="translate(34.696875 55.892046) scale(0.1 -0.1)">
       <defs>
        <path id="DejaVuSans-39" d="M 703 97 
L 703 672 
Q 941 559 1184 500 
Q 1428 441 1663 441 
Q 2288 441 2617 861 
Q 2947 1281 2994 2138 
Q 2813 1869 2534 1725 
Q 2256 1581 1919 1581 
Q 1219 1581 811 2004 
Q 403 2428 403 3163 
Q 403 3881 828 4315 
Q 1253 4750 1959 4750 
Q 2769 4750 3195 4129 
Q 3622 3509 3622 2328 
Q 3622 1225 3098 567 
Q 2575 -91 1691 -91 
Q 1453 -91 1209 -44 
Q 966 3 703 97 
z
M 1959 2075 
Q 2384 2075 2632 2365 
Q 2881 2656 2881 3163 
Q 2881 3666 2632 3958 
Q 2384 4250 1959 4250 
Q 1534 4250 1286 3958 
Q 1038 3666 1038 3163 
Q 1038 2656 1286 2365 
Q 1534 2075 1959 2075 
z
" transform="scale(0.015625)"/>
       </defs>
       <use xlink:href="#DejaVuSans-30"/>
       <use xlink:href="#DejaVuSans-2e" x="63.623047"/>
       <use xlink:href="#DejaVuSans-39" x="95.410156"/>
      </g>
     </g>
    </g>
    <g id="text_17">
     <!-- loss value -->
     <g transform="translate(28.617187 199.432687) rotate(-90) scale(0.1 -0.1)">
      <defs>
       <path id="DejaVuSans-6c" d="M 603 4863 
L 1178 4863 
L 1178 0 
L 603 0 
L 603 4863 
z
" transform="scale(0.015625)"/>
       <path id="DejaVuSans-73" d="M 2834 3397 
L 2834 2853 
Q 2591 2978 2328 3040 
Q 2066 3103 1784 3103 
Q 1356 3103 1142 2972 
Q 928 2841 928 2578 
Q 928 2378 1081 2264 
Q 1234 2150 1697 2047 
L 1894 2003 
Q 2506 1872 2764 1633 
Q 3022 1394 3022 966 
Q 3022 478 2636 193 
Q 2250 -91 1575 -91 
Q 1294 -91 989 -36 
Q 684 19 347 128 
L 347 722 
Q 666 556 975 473 
Q 1284 391 1588 391 
Q 1994 391 2212 530 
Q 2431 669 2431 922 
Q 2431 1156 2273 1281 
Q 2116 1406 1581 1522 
L 1381 1569 
Q 847 1681 609 1914 
Q 372 2147 372 2553 
Q 372 3047 722 3315 
Q 1072 3584 1716 3584 
Q 2034 3584 2315 3537 
Q 2597 3491 2834 3397 
z
" transform="scale(0.015625)"/>
       <path id="DejaVuSans-20" transform="scale(0.015625)"/>
       <path id="DejaVuSans-76" d="M 191 3500 
L 800 3500 
L 1894 563 
L 2988 3500 
L 3597 3500 
L 2284 0 
L 1503 0 
L 191 3500 
z
" transform="scale(0.015625)"/>
       <path id="DejaVuSans-61" d="M 2194 1759 
Q 1497 1759 1228 1600 
Q 959 1441 959 1056 
Q 959 750 1161 570 
Q 1363 391 1709 391 
Q 2188 391 2477 730 
Q 2766 1069 2766 1631 
L 2766 1759 
L 2194 1759 
z
M 3341 1997 
L 3341 0 
L 2766 0 
L 2766 531 
Q 2569 213 2275 61 
Q 1981 -91 1556 -91 
Q 1019 -91 701 211 
Q 384 513 384 1019 
Q 384 1609 779 1909 
Q 1175 2209 1959 2209 
L 2766 2209 
L 2766 2266 
Q 2766 2663 2505 2880 
Q 2244 3097 1772 3097 
Q 1472 3097 1187 3025 
Q 903 2953 641 2809 
L 641 3341 
Q 956 3463 1253 3523 
Q 1550 3584 1831 3584 
Q 2591 3584 2966 3190 
Q 3341 2797 3341 1997 
z
" transform="scale(0.015625)"/>
       <path id="DejaVuSans-75" d="M 544 1381 
L 544 3500 
L 1119 3500 
L 1119 1403 
Q 1119 906 1312 657 
Q 1506 409 1894 409 
Q 2359 409 2629 706 
Q 2900 1003 2900 1516 
L 2900 3500 
L 3475 3500 
L 3475 0 
L 2900 0 
L 2900 538 
Q 2691 219 2414 64 
Q 2138 -91 1772 -91 
Q 1169 -91 856 284 
Q 544 659 544 1381 
z
M 1991 3584 
L 1991 3584 
z
" transform="scale(0.015625)"/>
      </defs>
      <use xlink:href="#DejaVuSans-6c"/>
      <use xlink:href="#DejaVuSans-6f" x="27.783203"/>
      <use xlink:href="#DejaVuSans-73" x="88.964844"/>
      <use xlink:href="#DejaVuSans-73" x="141.064453"/>
      <use xlink:href="#DejaVuSans-20" x="193.164062"/>
      <use xlink:href="#DejaVuSans-76" x="224.951172"/>
      <use xlink:href="#DejaVuSans-61" x="284.130859"/>
      <use xlink:href="#DejaVuSans-6c" x="345.410156"/>
      <use xlink:href="#DejaVuSans-75" x="373.193359"/>
      <use xlink:href="#DejaVuSans-65" x="436.572266"/>
     </g>
    </g>
   </g>
   <g id="line2d_16">
    <path d="M 73.832727 90.45783 
L 74.483338 134.825601 
L 75.133948 196.095494 
L 75.784558 244.115453 
L 76.435169 270.354652 
L 77.085779 280.968222 
L 77.736389 285.777909 
L 78.386999 287.549667 
L 79.68822 287.989164 
L 80.33883 211.141282 
L 80.989441 242.298782 
L 81.640051 267.652567 
L 82.290661 281.858848 
L 82.941272 286.221732 
L 83.591882 287.193193 
L 84.893103 285.387366 
L 85.543713 284.867992 
L 86.194323 284.703582 
L 86.844934 222.55914 
L 87.495544 252.714269 
L 88.146154 273.403468 
L 88.796764 284.598631 
L 89.447375 289.436291 
L 90.097985 290.78531 
L 90.748595 289.947716 
L 91.399206 289.824465 
L 92.700426 289.870042 
L 93.351037 218.426858 
L 94.001647 248.864827 
L 94.652257 272.440796 
L 95.302868 284.794068 
L 95.953478 290.294485 
L 96.604088 291.299172 
L 97.254698 292.87222 
L 97.905309 292.795018 
L 98.555919 292.925019 
L 99.206529 291.522944 
L 99.85714 219.682906 
L 100.50775 250.607402 
L 101.15836 273.551024 
L 101.808971 285.975202 
L 102.459581 291.139803 
L 103.110191 293.401268 
L 103.760802 292.621851 
L 104.411412 292.341216 
L 105.062022 293.052604 
L 105.712633 293.117519 
L 106.363243 219.416237 
L 107.013853 249.626127 
L 107.664463 274.388556 
L 108.315074 287.049396 
L 108.965684 291.113222 
L 109.616294 293.003847 
L 110.266905 293.013361 
L 110.917515 293.821943 
L 111.568125 292.550081 
L 112.218736 292.338732 
L 112.869346 220.456213 
L 113.519956 251.358614 
L 114.170567 274.541496 
L 114.821177 286.70103 
L 115.471787 291.966939 
L 116.122398 293.338461 
L 116.773008 293.883496 
L 117.423618 294.031871 
L 118.074228 293.639655 
L 118.724839 293.447177 
L 119.375449 219.293912 
L 120.026059 250.172849 
L 120.67667 275.28675 
L 121.32728 287.478801 
L 121.97789 292.259113 
L 122.628501 294.608748 
L 123.279111 292.710588 
L 123.929721 294.665845 
L 124.580332 293.712477 
L 125.230942 293.741077 
L 125.881552 221.098124 
L 126.532163 251.744129 
L 127.182773 274.949373 
L 127.833383 288.226984 
L 128.483993 293.206938 
L 129.134604 294.702064 
L 129.785214 294.908467 
L 130.435824 293.623448 
L 131.737045 294.807754 
L 132.387655 219.366129 
L 133.038266 251.077891 
L 133.688876 276.032902 
L 134.339486 288.23409 
L 134.990097 293.30579 
L 135.640707 294.999285 
L 136.291317 295.3738 
L 136.941927 295.488 
L 137.592538 295.103876 
L 138.243148 295.444788 
L 138.893758 221.649585 
L 139.544369 253.054315 
L 140.845589 271.855765 
L 141.4962 279.476924 
L 142.14681 284.513526 
L 142.79742 288.136521 
L 143.448031 290.95597 
L 144.098641 292.796633 
L 144.749251 293.735629 
L 145.399862 220.574038 
L 146.701082 253.942023 
L 147.351692 266.752232 
L 148.002303 276.891839 
L 148.652913 283.386584 
L 149.954134 290.073777 
L 150.604744 291.017363 
L 151.255354 292.471632 
L 151.905965 220.225215 
L 152.556575 239.236074 
L 153.857796 267.286933 
L 154.508406 277.212754 
L 155.159016 283.372675 
L 156.460237 290.146186 
L 157.110847 291.345964 
L 157.761457 292.108007 
L 158.412068 221.485816 
L 159.713288 253.172005 
L 160.363899 266.405721 
L 161.014509 276.280959 
L 162.31573 286.273507 
L 162.96634 289.145079 
L 163.61695 290.591888 
L 164.267561 290.978442 
L 164.918171 221.186576 
L 166.219392 251.097466 
L 166.870002 263.627232 
L 167.520612 273.305547 
L 168.171222 279.575293 
L 169.472443 288.236834 
L 170.123053 289.273092 
L 170.773664 291.399192 
L 171.424274 220.705588 
L 172.725495 250.442617 
L 174.026715 271.93194 
L 174.677326 279.02418 
L 175.978546 286.809965 
L 177.279767 290.03019 
L 177.930377 221.329402 
L 178.580987 236.319697 
L 179.882208 260.475434 
L 180.532818 270.26979 
L 181.183429 277.219629 
L 181.834039 281.742139 
L 182.484649 285.160623 
L 183.78587 289.948376 
L 184.43648 221.022175 
L 185.737701 248.357683 
L 186.388311 259.566773 
L 187.689532 274.627153 
L 188.340142 280.372096 
L 188.990752 283.791574 
L 189.641363 286.428277 
L 190.291973 288.186943 
L 190.942583 221.014541 
L 192.243804 247.121846 
L 193.545025 266.095463 
L 194.846245 278.301207 
L 195.496856 282.920657 
L 196.798076 287.757795 
L 197.448686 221.790793 
L 199.400517 255.685786 
L 200.051128 264.310071 
L 200.701738 271.147619 
L 201.352348 275.676665 
L 202.002959 281.083761 
L 202.653569 283.491792 
L 203.304179 287.08758 
L 203.95479 221.264991 
L 205.906621 253.352751 
L 207.207841 269.504199 
L 207.858451 274.634657 
L 208.509062 278.765326 
L 209.159672 281.939843 
L 209.810282 284.317751 
L 210.460893 221.872343 
L 212.412724 252.596628 
L 213.713944 267.867334 
L 215.015165 277.617283 
L 215.665775 280.903169 
L 216.316385 282.751264 
L 216.966996 221.314585 
L 218.268216 241.851468 
L 219.569437 258.865624 
L 220.220047 265.852787 
L 220.870658 270.366551 
L 221.521268 275.762073 
L 222.171878 278.766158 
L 222.822489 280.967178 
L 223.473099 221.643378 
L 224.77432 241.041614 
L 225.42493 249.784795 
L 226.72615 263.687446 
L 227.376761 267.93586 
L 228.027371 273.602311 
L 229.328592 279.615323 
L 229.979202 221.463563 
L 230.629812 231.535086 
L 233.232254 261.515703 
L 233.882864 266.930019 
L 235.834695 278.109917 
L 236.485305 221.604798 
L 237.786526 239.215068 
L 238.437136 247.082833 
L 239.087746 252.537765 
L 239.738357 259.170836 
L 241.039577 269.710757 
L 242.340798 276.127734 
L 242.991408 221.487244 
L 244.292629 237.073895 
L 244.943239 244.713933 
L 245.59385 250.290332 
L 246.24446 257.365477 
L 247.54568 267.393754 
L 248.846901 274.239736 
L 249.497511 222.509122 
L 251.449342 243.309936 
L 252.750563 255.665326 
L 253.401173 261.007737 
L 255.353004 272.008733 
L 256.003615 222.06619 
L 257.304835 235.729864 
L 259.256666 253.785049 
L 259.907276 258.773576 
L 260.557887 262.387058 
L 261.208497 267.261446 
L 261.859107 270.362277 
L 262.509718 221.724657 
L 265.112159 246.983818 
L 267.06399 261.084444 
L 267.7146 265.050545 
L 268.36521 267.427401 
L 269.015821 222.063777 
L 269.666431 228.681024 
L 270.317041 233.294674 
L 270.967652 240.055532 
L 272.268872 250.178297 
L 273.570093 259.082894 
L 274.871314 265.698121 
L 275.521924 221.69139 
L 276.823144 233.811106 
L 280.076196 256.694428 
L 281.377417 262.815074 
L 282.028027 222.626948 
L 285.931689 250.378324 
L 287.232909 258.470853 
L 287.88352 261.157763 
L 288.53413 221.989365 
L 291.787182 245.454443 
L 293.739013 256.243012 
L 294.389623 258.409993 
L 295.040233 222.784139 
L 295.690844 226.879143 
L 296.992064 236.139819 
L 298.293285 243.399184 
L 299.594505 250.443701 
L 300.245116 253.992055 
L 300.895726 256.133024 
L 301.546336 221.913977 
L 302.196947 225.788662 
L 302.847557 231.059131 
L 303.498167 234.312631 
L 304.799388 242.321541 
L 307.401829 254.700802 
L 308.052439 221.533648 
L 309.35366 230.36619 
L 311.956101 244.185646 
L 312.606712 246.661783 
L 313.257322 250.022493 
L 313.907932 252.49338 
L 314.558543 222.069722 
L 315.859763 229.908855 
L 316.510373 233.067868 
L 317.160984 235.471697 
L 317.811594 239.532603 
L 318.462204 241.897591 
L 319.112815 245.67515 
L 320.414035 250.226752 
L 321.064646 222.289318 
L 321.715256 225.891923 
L 323.016477 231.751692 
L 323.667087 235.455498 
L 324.317697 238.36799 
L 324.968308 240.478308 
L 325.618918 243.478511 
L 326.269528 245.450549 
L 326.920138 248.823474 
L 327.570749 221.603579 
L 328.871969 228.269343 
L 329.52258 230.178433 
L 330.8238 237.710683 
L 331.474411 238.32042 
L 332.775631 244.511458 
L 333.426242 246.274949 
L 334.076852 222.782395 
L 334.727462 225.444211 
L 335.378073 227.081338 
L 336.028683 230.45439 
L 336.679293 232.471746 
L 337.329903 235.78814 
L 338.631124 240.322941 
L 339.281734 242.878641 
L 339.932345 244.719317 
L 340.582955 222.53218 
L 341.233565 223.954571 
L 341.884176 227.639729 
L 342.534786 230.271087 
L 343.185396 232.300036 
L 343.836007 233.677813 
L 344.486617 236.480123 
L 345.137227 238.716533 
L 345.787837 241.704368 
L 346.438448 243.458788 
L 347.089058 221.762243 
L 347.739668 224.655797 
L 349.691499 231.254332 
L 350.34211 233.921008 
L 352.293941 239.833379 
L 352.944551 241.927217 
L 353.595161 222.369992 
L 354.245772 223.935589 
L 355.546992 228.744666 
L 356.848213 232.575749 
L 358.149433 236.889653 
L 358.800044 238.080441 
L 359.450654 239.98861 
L 360.101264 222.793816 
L 361.402485 225.815125 
L 362.053095 228.397406 
L 363.354316 231.671732 
L 364.655537 235.732475 
L 365.956757 238.105441 
L 366.607367 222.158952 
L 367.257978 224.303576 
L 367.908588 225.311766 
L 368.559198 227.492034 
L 369.860419 230.384206 
L 370.511029 233.332711 
L 371.81225 235.782204 
L 372.46286 237.131177 
L 373.113471 222.521536 
L 373.764081 223.793604 
L 374.414691 225.614918 
L 375.065302 226.867262 
L 375.715912 229.263358 
L 376.366522 229.88101 
L 377.017132 231.555984 
L 378.318353 233.752776 
L 378.968963 235.51652 
L 379.619574 221.844642 
L 380.920794 224.980398 
L 381.571405 226.538234 
L 382.222015 228.822819 
L 383.523236 230.859809 
L 384.173846 232.519533 
L 384.824456 233.827839 
L 385.475066 234.602113 
L 386.125677 221.876481 
L 386.776287 223.626392 
L 387.426897 225.042153 
L 388.077508 225.585528 
L 388.728118 227.955422 
L 389.378728 228.676262 
L 390.029339 230.202918 
L 390.679949 231.271544 
L 391.330559 232.903982 
L 391.98117 233.617459 
L 392.63178 222.356936 
L 393.933001 223.703 
L 395.234221 227.228681 
L 395.884831 228.241642 
L 396.535442 228.948415 
L 397.186052 230.881629 
L 397.836662 231.477199 
L 398.487273 232.526417 
L 398.487273 232.526417 
" clip-path="url(#p336efc70a0)" style="fill: none; stroke: #0000ff; stroke-width: 1.5; stroke-linecap: square"/>
   </g>
   <g id="line2d_17">
    <path d="M 73.832727 288.05137 
L 79.68822 288.027949 
L 80.33883 290.00571 
L 114.170567 290.0039 
L 189.641363 289.994987 
L 380.270184 289.989975 
L 398.487273 289.989874 
L 398.487273 289.989874 
" clip-path="url(#p336efc70a0)" style="fill: none; stroke: #008000; stroke-width: 1.5; stroke-linecap: square"/>
   </g>
   <g id="line2d_18">
    <path d="M 73.832727 53.568 
L 74.483338 97.934975 
L 75.133948 159.203414 
L 75.784558 207.221205 
L 76.435169 233.457648 
L 77.085779 244.068082 
L 77.736389 248.87445 
L 78.386999 250.642846 
L 79.68822 251.075904 
L 80.33883 176.20578 
L 80.989441 207.361121 
L 81.640051 232.712503 
L 82.290661 246.916055 
L 82.941272 251.275966 
L 83.591882 252.244339 
L 84.893103 250.43252 
L 85.543713 249.910396 
L 86.194323 249.743437 
L 86.844934 187.61548 
L 87.495544 217.770048 
L 88.146154 238.458358 
L 88.796764 249.652256 
L 89.447375 254.488348 
L 90.097985 255.835623 
L 90.748595 254.99622 
L 91.399206 254.871176 
L 92.700426 254.913419 
L 93.351037 183.48561 
L 94.001647 213.923543 
L 94.652257 237.499083 
L 95.302868 249.85146 
L 95.953478 255.350605 
L 96.604088 256.353781 
L 97.254698 257.925179 
L 97.905309 257.846303 
L 98.555919 257.974636 
L 99.206529 256.570979 
L 99.85714 184.744413 
L 100.50775 215.668882 
L 101.15836 238.612053 
L 101.808971 251.035291 
L 102.459581 256.198578 
L 103.110191 258.45847 
L 103.760802 257.677343 
L 104.411412 257.394977 
L 105.062022 258.104664 
L 105.712633 258.167967 
L 106.363243 184.479163 
L 107.013853 214.689008 
L 107.664463 239.450954 
L 108.315074 252.11082 
L 108.965684 256.173271 
L 109.616294 258.062258 
L 110.266905 258.070019 
L 110.917515 258.876801 
L 111.568125 257.60318 
L 112.218736 257.390152 
L 112.869346 185.519527 
L 113.519956 216.421843 
L 114.170567 239.604188 
L 114.821177 251.762692 
L 115.471787 257.027179 
L 116.122398 258.397023 
L 116.773008 258.940254 
L 117.423618 259.086802 
L 118.074228 258.692785 
L 118.724839 258.498599 
L 119.375449 184.356847 
L 120.026059 215.235681 
L 120.67667 240.349016 
L 121.32728 252.540001 
L 121.97789 257.318843 
L 122.628501 259.666741 
L 123.279111 257.766722 
L 123.929721 259.720093 
L 124.580332 258.764866 
L 125.230942 258.791709 
L 125.881552 186.160246 
L 126.532163 216.806111 
L 127.182773 240.010763 
L 127.833383 253.287278 
L 128.483993 258.265735 
L 129.134604 259.759115 
L 129.785214 259.963641 
L 130.435824 258.67672 
L 131.737045 259.857416 
L 132.387655 184.427203 
L 133.038266 216.13883 
L 133.688876 241.093231 
L 134.339486 253.293309 
L 134.990097 258.363485 
L 135.640707 260.055202 
L 136.291317 260.427806 
L 136.941927 260.540066 
L 137.592538 260.154054 
L 138.243148 260.493165 
L 138.893758 186.709403 
L 139.544369 218.113948 
L 140.845589 236.91496 
L 141.4962 244.535762 
L 142.14681 249.571926 
L 142.79742 253.194435 
L 143.448031 256.01336 
L 144.098641 257.853472 
L 144.749251 258.791908 
L 145.399862 185.63326 
L 146.701082 219.001078 
L 147.351692 231.811016 
L 148.002303 241.950247 
L 148.652913 248.4445 
L 149.954134 255.130494 
L 150.604744 256.073452 
L 151.255354 257.527087 
L 151.905965 185.283894 
L 152.556575 204.2947 
L 153.857796 232.34513 
L 154.508406 242.270557 
L 155.159016 248.429981 
L 156.460237 255.202341 
L 157.110847 256.401491 
L 157.761457 257.162908 
L 158.412068 186.543882 
L 159.713288 218.229858 
L 160.363899 231.463321 
L 161.014509 241.338206 
L 162.31573 251.329806 
L 162.96634 254.200827 
L 163.61695 255.647071 
L 164.267561 256.03307 
L 164.918171 186.244045 
L 166.219392 216.154741 
L 166.870002 228.684285 
L 167.520612 238.362279 
L 168.171222 244.631615 
L 169.472443 253.292221 
L 170.123053 254.327959 
L 170.773664 256.453528 
L 171.424274 185.762452 
L 172.725495 215.499304 
L 174.026715 236.988135 
L 174.677326 244.080018 
L 175.978546 251.864927 
L 177.279767 255.084217 
L 177.930377 186.385696 
L 178.580987 201.375937 
L 179.882208 225.531372 
L 180.532818 235.325466 
L 181.183429 242.274975 
L 181.834039 246.797118 
L 182.484649 250.215196 
L 183.78587 255.00207 
L 184.43648 186.077891 
L 185.737701 213.413245 
L 186.388311 224.62216 
L 187.689532 239.682024 
L 188.340142 245.426624 
L 188.990752 248.845736 
L 189.641363 251.482055 
L 190.291973 253.240328 
L 190.942583 186.069706 
L 192.243804 212.176876 
L 193.545025 231.150131 
L 194.846245 243.35531 
L 195.496856 247.974435 
L 196.798076 252.810853 
L 197.448686 186.845425 
L 199.400517 220.740156 
L 200.051128 229.364252 
L 200.701738 236.201573 
L 201.352348 240.730348 
L 202.002959 246.137147 
L 202.653569 248.544861 
L 203.304179 252.140328 
L 203.95479 186.319135 
L 205.906621 218.406664 
L 207.207841 234.557733 
L 207.858451 239.68796 
L 208.509062 243.818364 
L 209.159672 246.9926 
L 209.810282 249.370205 
L 210.460893 186.926027 
L 212.412724 217.65009 
L 213.713944 232.92048 
L 215.015165 242.669968 
L 215.665775 245.955606 
L 216.316385 247.803448 
L 216.966996 186.367834 
L 218.268216 206.904618 
L 219.569437 223.918549 
L 220.220047 230.905544 
L 220.870658 235.419132 
L 221.521268 240.814437 
L 222.171878 243.8183 
L 222.822489 246.019086 
L 223.473099 186.696221 
L 224.77432 206.094376 
L 225.42493 214.837471 
L 226.72615 228.73986 
L 227.376761 232.988116 
L 228.027371 238.654373 
L 229.328592 244.666978 
L 229.979202 186.516036 
L 230.629812 196.587532 
L 233.232254 226.567796 
L 233.882864 231.981967 
L 235.834695 243.161337 
L 236.485305 186.656919 
L 237.786526 204.267116 
L 238.437136 212.134818 
L 239.087746 217.589664 
L 239.738357 224.222622 
L 241.039577 234.762268 
L 242.340798 241.178928 
L 242.991408 186.539039 
L 244.292629 202.125627 
L 244.943239 209.76561 
L 245.59385 215.341923 
L 246.24446 222.416974 
L 247.54568 232.445021 
L 248.846901 239.290709 
L 249.497511 187.560619 
L 251.449342 208.361316 
L 252.750563 220.716557 
L 253.401173 226.058872 
L 255.353004 237.059511 
L 256.003615 187.117406 
L 257.304835 200.781036 
L 259.256666 218.836044 
L 259.907276 223.824485 
L 260.557887 227.437869 
L 261.208497 232.312152 
L 261.859107 235.412861 
L 262.509718 186.775612 
L 265.112159 212.034646 
L 267.06399 226.135037 
L 267.7146 230.101048 
L 268.36521 232.477818 
L 269.015821 187.114497 
L 269.666431 193.731735 
L 270.317041 198.345358 
L 270.967652 205.10618 
L 272.268872 215.22885 
L 273.570093 224.133311 
L 274.871314 230.748362 
L 275.521924 186.741893 
L 276.823144 198.861573 
L 280.076196 221.74466 
L 281.377417 227.865162 
L 282.028027 187.677252 
L 285.931689 215.428452 
L 287.232909 223.520863 
L 287.88352 226.207706 
L 288.53413 187.039488 
L 291.787182 210.504449 
L 293.739013 221.292882 
L 294.389623 223.459805 
L 295.040233 187.834091 
L 295.690844 191.929086 
L 296.992064 201.189735 
L 298.293285 208.449036 
L 299.594505 215.493477 
L 300.245116 219.04179 
L 300.895726 221.182709 
L 301.546336 186.963775 
L 302.196947 190.838451 
L 302.847557 196.108911 
L 303.498167 199.362393 
L 304.799388 207.371258 
L 307.401829 219.75037 
L 308.052439 186.58331 
L 309.35366 195.415835 
L 311.956101 209.235209 
L 312.606712 211.711319 
L 313.257322 215.071993 
L 313.907932 217.542844 
L 314.558543 187.119259 
L 315.859763 194.958374 
L 316.510373 198.117377 
L 317.160984 200.521188 
L 317.811594 204.582076 
L 318.462204 206.947046 
L 319.112815 210.724569 
L 320.414035 215.276121 
L 321.064646 187.338746 
L 321.715256 190.941342 
L 323.016477 196.801092 
L 323.667087 200.50488 
L 324.317697 203.417354 
L 324.968308 205.527654 
L 325.618918 208.52784 
L 326.269528 210.49985 
L 326.920138 213.872748 
L 327.570749 186.652898 
L 328.871969 193.318645 
L 329.52258 195.227726 
L 330.8238 202.759957 
L 331.474411 203.369676 
L 332.775631 209.560678 
L 333.426242 211.324142 
L 334.076852 187.831615 
L 334.727462 190.493431 
L 335.378073 192.130549 
L 336.028683 195.503601 
L 336.679293 197.520939 
L 337.329903 200.837324 
L 338.631124 205.372098 
L 339.281734 207.927779 
L 339.932345 209.768429 
L 340.582955 187.581318 
L 341.233565 189.003701 
L 341.884176 192.688859 
L 342.534786 195.320208 
L 343.185396 197.349148 
L 343.836007 198.726915 
L 344.486617 201.529216 
L 345.137227 203.765618 
L 345.787837 206.753426 
L 346.438448 208.507836 
L 347.089058 186.8113 
L 347.739668 189.704855 
L 349.691499 196.303371 
L 350.34211 198.970039 
L 352.293941 204.882382 
L 352.944551 206.976202 
L 353.595161 187.418977 
L 354.245772 188.984574 
L 355.546992 193.793652 
L 356.848213 197.624716 
L 358.149433 201.938602 
L 358.800044 203.129372 
L 359.450654 205.037532 
L 360.101264 187.842738 
L 361.402485 190.864047 
L 362.053095 193.446327 
L 363.354316 196.720636 
L 364.655537 200.78137 
L 365.956757 203.154309 
L 366.607367 187.20782 
L 367.257978 189.352444 
L 367.908588 190.360634 
L 368.559198 192.540892 
L 369.860419 195.433055 
L 370.511029 198.381552 
L 371.81225 200.831026 
L 372.46286 202.18 
L 373.113471 187.57035 
L 373.764081 188.842408 
L 374.414691 190.663732 
L 375.065302 191.916076 
L 375.715912 194.312162 
L 376.366522 194.929805 
L 377.017132 196.60478 
L 378.318353 198.801563 
L 378.968963 200.565297 
L 379.619574 186.89341 
L 380.920794 190.029166 
L 381.571405 191.586993 
L 382.222015 193.871579 
L 383.523236 195.908568 
L 384.173846 197.568283 
L 384.824456 198.87658 
L 385.475066 199.650845 
L 386.125677 186.925213 
L 386.776287 188.675116 
L 387.426897 190.090876 
L 388.077508 190.634251 
L 388.728118 193.004136 
L 389.378728 193.724976 
L 390.029339 195.251632 
L 390.679949 196.320249 
L 391.330559 197.952687 
L 391.98117 198.666164 
L 392.63178 187.405623 
L 393.933001 188.751687 
L 395.234221 192.277359 
L 395.884831 193.29032 
L 396.535442 193.997093 
L 397.186052 195.930298 
L 397.836662 196.525859 
L 398.487273 197.575086 
L 398.487273 197.575086 
" clip-path="url(#p336efc70a0)" style="fill: none; stroke: #ff0000; stroke-width: 1.5; stroke-linecap: square"/>
   </g>
   <g id="patch_3">
    <path d="M 57.6 307.584 
L 57.6 41.472 
" style="fill: none; stroke: #000000; stroke-width: 0.8; stroke-linejoin: miter; stroke-linecap: square"/>
   </g>
   <g id="patch_4">
    <path d="M 414.72 307.584 
L 414.72 41.472 
" style="fill: none; stroke: #000000; stroke-width: 0.8; stroke-linejoin: miter; stroke-linecap: square"/>
   </g>
   <g id="patch_5">
    <path d="M 57.6 307.584 
L 414.72 307.584 
" style="fill: none; stroke: #000000; stroke-width: 0.8; stroke-linejoin: miter; stroke-linecap: square"/>
   </g>
   <g id="patch_6">
    <path d="M 57.6 41.472 
L 414.72 41.472 
" style="fill: none; stroke: #000000; stroke-width: 0.8; stroke-linejoin: miter; stroke-linecap: square"/>
   </g>
   <g id="text_18">
    <!-- The loss curve on λ_0.00025_non_iid/host/3 -->
    <g transform="translate(104.905313 35.472) scale(0.12 -0.12)">
     <defs>
      <path id="DejaVuSans-54" d="M -19 4666 
L 3928 4666 
L 3928 4134 
L 2272 4134 
L 2272 0 
L 1638 0 
L 1638 4134 
L -19 4134 
L -19 4666 
z
" transform="scale(0.015625)"/>
      <path id="DejaVuSans-72" d="M 2631 2963 
Q 2534 3019 2420 3045 
Q 2306 3072 2169 3072 
Q 1681 3072 1420 2755 
Q 1159 2438 1159 1844 
L 1159 0 
L 581 0 
L 581 3500 
L 1159 3500 
L 1159 2956 
Q 1341 3275 1631 3429 
Q 1922 3584 2338 3584 
Q 2397 3584 2469 3576 
Q 2541 3569 2628 3553 
L 2631 2963 
z
" transform="scale(0.015625)"/>
      <path id="DejaVuSans-6e" d="M 3513 2113 
L 3513 0 
L 2938 0 
L 2938 2094 
Q 2938 2591 2744 2837 
Q 2550 3084 2163 3084 
Q 1697 3084 1428 2787 
Q 1159 2491 1159 1978 
L 1159 0 
L 581 0 
L 581 3500 
L 1159 3500 
L 1159 2956 
Q 1366 3272 1645 3428 
Q 1925 3584 2291 3584 
Q 2894 3584 3203 3211 
Q 3513 2838 3513 2113 
z
" transform="scale(0.015625)"/>
      <path id="DejaVuSans-3bb" d="M 1981 4316 
L 3597 0 
L 2988 0 
L 2006 2588 
L 800 0 
L 191 0 
L 1725 3356 
L 1494 3975 
Q 1347 4369 1013 4369 
L 713 4369 
L 713 4863 
L 1078 4856 
Q 1784 4847 1981 4316 
z
" transform="scale(0.015625)"/>
      <path id="DejaVuSans-5f" d="M 3263 -1063 
L 3263 -1509 
L -63 -1509 
L -63 -1063 
L 3263 -1063 
z
" transform="scale(0.015625)"/>
      <path id="DejaVuSans-69" d="M 603 3500 
L 1178 3500 
L 1178 0 
L 603 0 
L 603 3500 
z
M 603 4863 
L 1178 4863 
L 1178 4134 
L 603 4134 
L 603 4863 
z
" transform="scale(0.015625)"/>
      <path id="DejaVuSans-64" d="M 2906 2969 
L 2906 4863 
L 3481 4863 
L 3481 0 
L 2906 0 
L 2906 525 
Q 2725 213 2448 61 
Q 2172 -91 1784 -91 
Q 1150 -91 751 415 
Q 353 922 353 1747 
Q 353 2572 751 3078 
Q 1150 3584 1784 3584 
Q 2172 3584 2448 3432 
Q 2725 3281 2906 2969 
z
M 947 1747 
Q 947 1113 1208 752 
Q 1469 391 1925 391 
Q 2381 391 2643 752 
Q 2906 1113 2906 1747 
Q 2906 2381 2643 2742 
Q 2381 3103 1925 3103 
Q 1469 3103 1208 2742 
Q 947 2381 947 1747 
z
" transform="scale(0.015625)"/>
      <path id="DejaVuSans-2f" d="M 1625 4666 
L 2156 4666 
L 531 -594 
L 0 -594 
L 1625 4666 
z
" transform="scale(0.015625)"/>
      <path id="DejaVuSans-74" d="M 1172 4494 
L 1172 3500 
L 2356 3500 
L 2356 3053 
L 1172 3053 
L 1172 1153 
Q 1172 725 1289 603 
Q 1406 481 1766 481 
L 2356 481 
L 2356 0 
L 1766 0 
Q 1100 0 847 248 
Q 594 497 594 1153 
L 594 3053 
L 172 3053 
L 172 3500 
L 594 3500 
L 594 4494 
L 1172 4494 
z
" transform="scale(0.015625)"/>
     </defs>
     <use xlink:href="#DejaVuSans-54"/>
     <use xlink:href="#DejaVuSans-68" x="61.083984"/>
     <use xlink:href="#DejaVuSans-65" x="124.462891"/>
     <use xlink:href="#DejaVuSans-20" x="185.986328"/>
     <use xlink:href="#DejaVuSans-6c" x="217.773438"/>
     <use xlink:href="#DejaVuSans-6f" x="245.556641"/>
     <use xlink:href="#DejaVuSans-73" x="306.738281"/>
     <use xlink:href="#DejaVuSans-73" x="358.837891"/>
     <use xlink:href="#DejaVuSans-20" x="410.9375"/>
     <use xlink:href="#DejaVuSans-63" x="442.724609"/>
     <use xlink:href="#DejaVuSans-75" x="497.705078"/>
     <use xlink:href="#DejaVuSans-72" x="561.083984"/>
     <use xlink:href="#DejaVuSans-76" x="602.197266"/>
     <use xlink:href="#DejaVuSans-65" x="661.376953"/>
     <use xlink:href="#DejaVuSans-20" x="722.900391"/>
     <use xlink:href="#DejaVuSans-6f" x="754.6875"/>
     <use xlink:href="#DejaVuSans-6e" x="815.869141"/>
     <use xlink:href="#DejaVuSans-20" x="879.248047"/>
     <use xlink:href="#DejaVuSans-3bb" x="911.035156"/>
     <use xlink:href="#DejaVuSans-5f" x="970.214844"/>
     <use xlink:href="#DejaVuSans-30" x="1020.214844"/>
     <use xlink:href="#DejaVuSans-2e" x="1083.837891"/>
     <use xlink:href="#DejaVuSans-30" x="1115.625"/>
     <use xlink:href="#DejaVuSans-30" x="1179.248047"/>
     <use xlink:href="#DejaVuSans-30" x="1242.871094"/>
     <use xlink:href="#DejaVuSans-32" x="1306.494141"/>
     <use xlink:href="#DejaVuSans-35" x="1370.117188"/>
     <use xlink:href="#DejaVuSans-5f" x="1433.740234"/>
     <use xlink:href="#DejaVuSans-6e" x="1483.740234"/>
     <use xlink:href="#DejaVuSans-6f" x="1547.119141"/>
     <use xlink:href="#DejaVuSans-6e" x="1608.300781"/>
     <use xlink:href="#DejaVuSans-5f" x="1671.679688"/>
     <use xlink:href="#DejaVuSans-69" x="1721.679688"/>
     <use xlink:href="#DejaVuSans-69" x="1749.462891"/>
     <use xlink:href="#DejaVuSans-64" x="1777.246094"/>
     <use xlink:href="#DejaVuSans-2f" x="1840.722656"/>
     <use xlink:href="#DejaVuSans-68" x="1874.414062"/>
     <use xlink:href="#DejaVuSans-6f" x="1937.792969"/>
     <use xlink:href="#DejaVuSans-73" x="1998.974609"/>
     <use xlink:href="#DejaVuSans-74" x="2051.074219"/>
     <use xlink:href="#DejaVuSans-2f" x="2090.283203"/>
     <use xlink:href="#DejaVuSans-33" x="2123.974609"/>
    </g>
   </g>
   <g id="legend_1">
    <g id="patch_7">
     <path d="M 317.418438 94.34075 
L 407.72 94.34075 
Q 409.72 94.34075 409.72 92.34075 
L 409.72 48.472 
Q 409.72 46.472 407.72 46.472 
L 317.418438 46.472 
Q 315.418438 46.472 315.418438 48.472 
L 315.418438 92.34075 
Q 315.418438 94.34075 317.418438 94.34075 
z
" style="fill: #ffffff; opacity: 0.8; stroke: #cccccc; stroke-linejoin: miter"/>
    </g>
    <g id="line2d_19">
     <path d="M 319.418438 54.570438 
L 329.418438 54.570438 
L 339.418438 54.570438 
" style="fill: none; stroke: #0000ff; stroke-width: 1.5; stroke-linecap: square"/>
    </g>
    <g id="text_19">
     <!-- obj_loss -->
     <g transform="translate(347.418438 58.070438) scale(0.1 -0.1)">
      <defs>
       <path id="DejaVuSans-62" d="M 3116 1747 
Q 3116 2381 2855 2742 
Q 2594 3103 2138 3103 
Q 1681 3103 1420 2742 
Q 1159 2381 1159 1747 
Q 1159 1113 1420 752 
Q 1681 391 2138 391 
Q 2594 391 2855 752 
Q 3116 1113 3116 1747 
z
M 1159 2969 
Q 1341 3281 1617 3432 
Q 1894 3584 2278 3584 
Q 2916 3584 3314 3078 
Q 3713 2572 3713 1747 
Q 3713 922 3314 415 
Q 2916 -91 2278 -91 
Q 1894 -91 1617 61 
Q 1341 213 1159 525 
L 1159 0 
L 581 0 
L 581 4863 
L 1159 4863 
L 1159 2969 
z
" transform="scale(0.015625)"/>
       <path id="DejaVuSans-6a" d="M 603 3500 
L 1178 3500 
L 1178 -63 
Q 1178 -731 923 -1031 
Q 669 -1331 103 -1331 
L -116 -1331 
L -116 -844 
L 38 -844 
Q 366 -844 484 -692 
Q 603 -541 603 -63 
L 603 3500 
z
M 603 4863 
L 1178 4863 
L 1178 4134 
L 603 4134 
L 603 4863 
z
" transform="scale(0.015625)"/>
      </defs>
      <use xlink:href="#DejaVuSans-6f"/>
      <use xlink:href="#DejaVuSans-62" x="61.181641"/>
      <use xlink:href="#DejaVuSans-6a" x="124.658203"/>
      <use xlink:href="#DejaVuSans-5f" x="152.441406"/>
      <use xlink:href="#DejaVuSans-6c" x="202.441406"/>
      <use xlink:href="#DejaVuSans-6f" x="230.224609"/>
      <use xlink:href="#DejaVuSans-73" x="291.40625"/>
      <use xlink:href="#DejaVuSans-73" x="343.505859"/>
     </g>
    </g>
    <g id="line2d_20">
     <path d="M 319.418438 69.526688 
L 329.418438 69.526688 
L 339.418438 69.526688 
" style="fill: none; stroke: #008000; stroke-width: 1.5; stroke-linecap: square"/>
    </g>
    <g id="text_20">
     <!-- reg_loss -->
     <g transform="translate(347.418438 73.026688) scale(0.1 -0.1)">
      <defs>
       <path id="DejaVuSans-67" d="M 2906 1791 
Q 2906 2416 2648 2759 
Q 2391 3103 1925 3103 
Q 1463 3103 1205 2759 
Q 947 2416 947 1791 
Q 947 1169 1205 825 
Q 1463 481 1925 481 
Q 2391 481 2648 825 
Q 2906 1169 2906 1791 
z
M 3481 434 
Q 3481 -459 3084 -895 
Q 2688 -1331 1869 -1331 
Q 1566 -1331 1297 -1286 
Q 1028 -1241 775 -1147 
L 775 -588 
Q 1028 -725 1275 -790 
Q 1522 -856 1778 -856 
Q 2344 -856 2625 -561 
Q 2906 -266 2906 331 
L 2906 616 
Q 2728 306 2450 153 
Q 2172 0 1784 0 
Q 1141 0 747 490 
Q 353 981 353 1791 
Q 353 2603 747 3093 
Q 1141 3584 1784 3584 
Q 2172 3584 2450 3431 
Q 2728 3278 2906 2969 
L 2906 3500 
L 3481 3500 
L 3481 434 
z
" transform="scale(0.015625)"/>
      </defs>
      <use xlink:href="#DejaVuSans-72"/>
      <use xlink:href="#DejaVuSans-65" x="38.863281"/>
      <use xlink:href="#DejaVuSans-67" x="100.386719"/>
      <use xlink:href="#DejaVuSans-5f" x="163.863281"/>
      <use xlink:href="#DejaVuSans-6c" x="213.863281"/>
      <use xlink:href="#DejaVuSans-6f" x="241.646484"/>
      <use xlink:href="#DejaVuSans-73" x="302.828125"/>
      <use xlink:href="#DejaVuSans-73" x="354.927734"/>
     </g>
    </g>
    <g id="line2d_21">
     <path d="M 319.418438 84.482938 
L 329.418438 84.482938 
L 339.418438 84.482938 
" style="fill: none; stroke: #ff0000; stroke-width: 1.5; stroke-linecap: square"/>
    </g>
    <g id="text_21">
     <!-- overall_loss -->
     <g transform="translate(347.418438 87.982938) scale(0.1 -0.1)">
      <use xlink:href="#DejaVuSans-6f"/>
      <use xlink:href="#DejaVuSans-76" x="61.181641"/>
      <use xlink:href="#DejaVuSans-65" x="120.361328"/>
      <use xlink:href="#DejaVuSans-72" x="181.884766"/>
      <use xlink:href="#DejaVuSans-61" x="222.998047"/>
      <use xlink:href="#DejaVuSans-6c" x="284.277344"/>
      <use xlink:href="#DejaVuSans-6c" x="312.060547"/>
      <use xlink:href="#DejaVuSans-5f" x="339.84375"/>
      <use xlink:href="#DejaVuSans-6c" x="389.84375"/>
      <use xlink:href="#DejaVuSans-6f" x="417.626953"/>
      <use xlink:href="#DejaVuSans-73" x="478.808594"/>
      <use xlink:href="#DejaVuSans-73" x="530.908203"/>
     </g>
    </g>
   </g>
  </g>
 </g>
 <defs>
  <clipPath id="p336efc70a0">
   <rect x="57.6" y="41.472" width="357.12" height="266.112"/>
  </clipPath>
 </defs>
</svg>
