<?xml version="1.0" encoding="utf-8" standalone="no"?>
<!DOCTYPE svg PUBLIC "-//W3C//DTD SVG 1.1//EN"
  "http://www.w3.org/Graphics/SVG/1.1/DTD/svg11.dtd">
<svg xmlns:xlink="http://www.w3.org/1999/xlink" width="460.8pt" height="345.6pt" viewBox="0 0 460.8 345.6" xmlns="http://www.w3.org/2000/svg" version="1.1">
 <metadata>
  <rdf:RDF xmlns:dc="http://purl.org/dc/elements/1.1/" xmlns:cc="http://creativecommons.org/ns#" xmlns:rdf="http://www.w3.org/1999/02/22-rdf-syntax-ns#">
   <cc:Work>
    <dc:type rdf:resource="http://purl.org/dc/dcmitype/StillImage"/>
    <dc:date>2023-04-13T09:22:58.667289</dc:date>
    <dc:format>image/svg+xml</dc:format>
    <dc:creator>
     <cc:Agent>
      <dc:title>Matplotlib v3.7.1, https://matplotlib.org/</dc:title>
     </cc:Agent>
    </dc:creator>
   </cc:Work>
  </rdf:RDF>
 </metadata>
 <defs>
  <style type="text/css">*{stroke-linejoin: round; stroke-linecap: butt}</style>
 </defs>
 <g id="figure_1">
  <g id="patch_1">
   <path d="M 0 345.6 
L 460.8 345.6 
L 460.8 0 
L 0 0 
z
" style="fill: #ffffff"/>
  </g>
  <g id="axes_1">
   <g id="patch_2">
    <path d="M 57.6 307.584 
L 414.72 307.584 
L 414.72 41.472 
L 57.6 41.472 
z
" style="fill: #ffffff"/>
   </g>
   <g id="matplotlib.axis_1">
    <g id="xtick_1">
     <g id="line2d_1">
      <defs>
       <path id="ma345c42c1c" d="M 0 0 
L 0 3.5 
" style="stroke: #000000; stroke-width: 0.8"/>
      </defs>
      <g>
       <use xlink:href="#ma345c42c1c" x="73.832727" y="307.584" style="stroke: #000000; stroke-width: 0.8"/>
      </g>
     </g>
     <g id="text_1">
      <!-- 0 -->
      <g transform="translate(70.651477 322.182437) scale(0.1 -0.1)">
       <defs>
        <path id="DejaVuSans-30" d="M 2034 4250 
Q 1547 4250 1301 3770 
Q 1056 3291 1056 2328 
Q 1056 1369 1301 889 
Q 1547 409 2034 409 
Q 2525 409 2770 889 
Q 3016 1369 3016 2328 
Q 3016 3291 2770 3770 
Q 2525 4250 2034 4250 
z
M 2034 4750 
Q 2819 4750 3233 4129 
Q 3647 3509 3647 2328 
Q 3647 1150 3233 529 
Q 2819 -91 2034 -91 
Q 1250 -91 836 529 
Q 422 1150 422 2328 
Q 422 3509 836 4129 
Q 1250 4750 2034 4750 
z
" transform="scale(0.015625)"/>
       </defs>
       <use xlink:href="#DejaVuSans-30"/>
      </g>
     </g>
    </g>
    <g id="xtick_2">
     <g id="line2d_2">
      <g>
       <use xlink:href="#ma345c42c1c" x="138.893758" y="307.584" style="stroke: #000000; stroke-width: 0.8"/>
      </g>
     </g>
     <g id="text_2">
      <!-- 100 -->
      <g transform="translate(129.350008 322.182437) scale(0.1 -0.1)">
       <defs>
        <path id="DejaVuSans-31" d="M 794 531 
L 1825 531 
L 1825 4091 
L 703 3866 
L 703 4441 
L 1819 4666 
L 2450 4666 
L 2450 531 
L 3481 531 
L 3481 0 
L 794 0 
L 794 531 
z
" transform="scale(0.015625)"/>
       </defs>
       <use xlink:href="#DejaVuSans-31"/>
       <use xlink:href="#DejaVuSans-30" x="63.623047"/>
       <use xlink:href="#DejaVuSans-30" x="127.246094"/>
      </g>
     </g>
    </g>
    <g id="xtick_3">
     <g id="line2d_3">
      <g>
       <use xlink:href="#ma345c42c1c" x="203.95479" y="307.584" style="stroke: #000000; stroke-width: 0.8"/>
      </g>
     </g>
     <g id="text_3">
      <!-- 200 -->
      <g transform="translate(194.41104 322.182437) scale(0.1 -0.1)">
       <defs>
        <path id="DejaVuSans-32" d="M 1228 531 
L 3431 531 
L 3431 0 
L 469 0 
L 469 531 
Q 828 903 1448 1529 
Q 2069 2156 2228 2338 
Q 2531 2678 2651 2914 
Q 2772 3150 2772 3378 
Q 2772 3750 2511 3984 
Q 2250 4219 1831 4219 
Q 1534 4219 1204 4116 
Q 875 4013 500 3803 
L 500 4441 
Q 881 4594 1212 4672 
Q 1544 4750 1819 4750 
Q 2544 4750 2975 4387 
Q 3406 4025 3406 3419 
Q 3406 3131 3298 2873 
Q 3191 2616 2906 2266 
Q 2828 2175 2409 1742 
Q 1991 1309 1228 531 
z
" transform="scale(0.015625)"/>
       </defs>
       <use xlink:href="#DejaVuSans-32"/>
       <use xlink:href="#DejaVuSans-30" x="63.623047"/>
       <use xlink:href="#DejaVuSans-30" x="127.246094"/>
      </g>
     </g>
    </g>
    <g id="xtick_4">
     <g id="line2d_4">
      <g>
       <use xlink:href="#ma345c42c1c" x="269.015821" y="307.584" style="stroke: #000000; stroke-width: 0.8"/>
      </g>
     </g>
     <g id="text_4">
      <!-- 300 -->
      <g transform="translate(259.472071 322.182437) scale(0.1 -0.1)">
       <defs>
        <path id="DejaVuSans-33" d="M 2597 2516 
Q 3050 2419 3304 2112 
Q 3559 1806 3559 1356 
Q 3559 666 3084 287 
Q 2609 -91 1734 -91 
Q 1441 -91 1130 -33 
Q 819 25 488 141 
L 488 750 
Q 750 597 1062 519 
Q 1375 441 1716 441 
Q 2309 441 2620 675 
Q 2931 909 2931 1356 
Q 2931 1769 2642 2001 
Q 2353 2234 1838 2234 
L 1294 2234 
L 1294 2753 
L 1863 2753 
Q 2328 2753 2575 2939 
Q 2822 3125 2822 3475 
Q 2822 3834 2567 4026 
Q 2313 4219 1838 4219 
Q 1578 4219 1281 4162 
Q 984 4106 628 3988 
L 628 4550 
Q 988 4650 1302 4700 
Q 1616 4750 1894 4750 
Q 2613 4750 3031 4423 
Q 3450 4097 3450 3541 
Q 3450 3153 3228 2886 
Q 3006 2619 2597 2516 
z
" transform="scale(0.015625)"/>
       </defs>
       <use xlink:href="#DejaVuSans-33"/>
       <use xlink:href="#DejaVuSans-30" x="63.623047"/>
       <use xlink:href="#DejaVuSans-30" x="127.246094"/>
      </g>
     </g>
    </g>
    <g id="xtick_5">
     <g id="line2d_5">
      <g>
       <use xlink:href="#ma345c42c1c" x="334.076852" y="307.584" style="stroke: #000000; stroke-width: 0.8"/>
      </g>
     </g>
     <g id="text_5">
      <!-- 400 -->
      <g transform="translate(324.533102 322.182437) scale(0.1 -0.1)">
       <defs>
        <path id="DejaVuSans-34" d="M 2419 4116 
L 825 1625 
L 2419 1625 
L 2419 4116 
z
M 2253 4666 
L 3047 4666 
L 3047 1625 
L 3713 1625 
L 3713 1100 
L 3047 1100 
L 3047 0 
L 2419 0 
L 2419 1100 
L 313 1100 
L 313 1709 
L 2253 4666 
z
" transform="scale(0.015625)"/>
       </defs>
       <use xlink:href="#DejaVuSans-34"/>
       <use xlink:href="#DejaVuSans-30" x="63.623047"/>
       <use xlink:href="#DejaVuSans-30" x="127.246094"/>
      </g>
     </g>
    </g>
    <g id="xtick_6">
     <g id="line2d_6">
      <g>
       <use xlink:href="#ma345c42c1c" x="399.137883" y="307.584" style="stroke: #000000; stroke-width: 0.8"/>
      </g>
     </g>
     <g id="text_6">
      <!-- 500 -->
      <g transform="translate(389.594133 322.182437) scale(0.1 -0.1)">
       <defs>
        <path id="DejaVuSans-35" d="M 691 4666 
L 3169 4666 
L 3169 4134 
L 1269 4134 
L 1269 2991 
Q 1406 3038 1543 3061 
Q 1681 3084 1819 3084 
Q 2600 3084 3056 2656 
Q 3513 2228 3513 1497 
Q 3513 744 3044 326 
Q 2575 -91 1722 -91 
Q 1428 -91 1123 -41 
Q 819 9 494 109 
L 494 744 
Q 775 591 1075 516 
Q 1375 441 1709 441 
Q 2250 441 2565 725 
Q 2881 1009 2881 1497 
Q 2881 1984 2565 2268 
Q 2250 2553 1709 2553 
Q 1456 2553 1204 2497 
Q 953 2441 691 2322 
L 691 4666 
z
" transform="scale(0.015625)"/>
       </defs>
       <use xlink:href="#DejaVuSans-35"/>
       <use xlink:href="#DejaVuSans-30" x="63.623047"/>
       <use xlink:href="#DejaVuSans-30" x="127.246094"/>
      </g>
     </g>
    </g>
    <g id="text_7">
     <!-- epoch -->
     <g transform="translate(220.931875 335.860562) scale(0.1 -0.1)">
      <defs>
       <path id="DejaVuSans-65" d="M 3597 1894 
L 3597 1613 
L 953 1613 
Q 991 1019 1311 708 
Q 1631 397 2203 397 
Q 2534 397 2845 478 
Q 3156 559 3463 722 
L 3463 178 
Q 3153 47 2828 -22 
Q 2503 -91 2169 -91 
Q 1331 -91 842 396 
Q 353 884 353 1716 
Q 353 2575 817 3079 
Q 1281 3584 2069 3584 
Q 2775 3584 3186 3129 
Q 3597 2675 3597 1894 
z
M 3022 2063 
Q 3016 2534 2758 2815 
Q 2500 3097 2075 3097 
Q 1594 3097 1305 2825 
Q 1016 2553 972 2059 
L 3022 2063 
z
" transform="scale(0.015625)"/>
       <path id="DejaVuSans-70" d="M 1159 525 
L 1159 -1331 
L 581 -1331 
L 581 3500 
L 1159 3500 
L 1159 2969 
Q 1341 3281 1617 3432 
Q 1894 3584 2278 3584 
Q 2916 3584 3314 3078 
Q 3713 2572 3713 1747 
Q 3713 922 3314 415 
Q 2916 -91 2278 -91 
Q 1894 -91 1617 61 
Q 1341 213 1159 525 
z
M 3116 1747 
Q 3116 2381 2855 2742 
Q 2594 3103 2138 3103 
Q 1681 3103 1420 2742 
Q 1159 2381 1159 1747 
Q 1159 1113 1420 752 
Q 1681 391 2138 391 
Q 2594 391 2855 752 
Q 3116 1113 3116 1747 
z
" transform="scale(0.015625)"/>
       <path id="DejaVuSans-6f" d="M 1959 3097 
Q 1497 3097 1228 2736 
Q 959 2375 959 1747 
Q 959 1119 1226 758 
Q 1494 397 1959 397 
Q 2419 397 2687 759 
Q 2956 1122 2956 1747 
Q 2956 2369 2687 2733 
Q 2419 3097 1959 3097 
z
M 1959 3584 
Q 2709 3584 3137 3096 
Q 3566 2609 3566 1747 
Q 3566 888 3137 398 
Q 2709 -91 1959 -91 
Q 1206 -91 779 398 
Q 353 888 353 1747 
Q 353 2609 779 3096 
Q 1206 3584 1959 3584 
z
" transform="scale(0.015625)"/>
       <path id="DejaVuSans-63" d="M 3122 3366 
L 3122 2828 
Q 2878 2963 2633 3030 
Q 2388 3097 2138 3097 
Q 1578 3097 1268 2742 
Q 959 2388 959 1747 
Q 959 1106 1268 751 
Q 1578 397 2138 397 
Q 2388 397 2633 464 
Q 2878 531 3122 666 
L 3122 134 
Q 2881 22 2623 -34 
Q 2366 -91 2075 -91 
Q 1284 -91 818 406 
Q 353 903 353 1747 
Q 353 2603 823 3093 
Q 1294 3584 2113 3584 
Q 2378 3584 2631 3529 
Q 2884 3475 3122 3366 
z
" transform="scale(0.015625)"/>
       <path id="DejaVuSans-68" d="M 3513 2113 
L 3513 0 
L 2938 0 
L 2938 2094 
Q 2938 2591 2744 2837 
Q 2550 3084 2163 3084 
Q 1697 3084 1428 2787 
Q 1159 2491 1159 1978 
L 1159 0 
L 581 0 
L 581 4863 
L 1159 4863 
L 1159 2956 
Q 1366 3272 1645 3428 
Q 1925 3584 2291 3584 
Q 2894 3584 3203 3211 
Q 3513 2838 3513 2113 
z
" transform="scale(0.015625)"/>
      </defs>
      <use xlink:href="#DejaVuSans-65"/>
      <use xlink:href="#DejaVuSans-70" x="61.523438"/>
      <use xlink:href="#DejaVuSans-6f" x="125"/>
      <use xlink:href="#DejaVuSans-63" x="186.181641"/>
      <use xlink:href="#DejaVuSans-68" x="241.162109"/>
     </g>
    </g>
   </g>
   <g id="matplotlib.axis_2">
    <g id="ytick_1">
     <g id="line2d_7">
      <defs>
       <path id="maf3f671803" d="M 0 0 
L -3.5 0 
" style="stroke: #000000; stroke-width: 0.8"/>
      </defs>
      <g>
       <use xlink:href="#maf3f671803" x="57.6" y="299.676252" style="stroke: #000000; stroke-width: 0.8"/>
      </g>
     </g>
     <g id="text_8">
      <!-- 0.1 -->
      <g transform="translate(34.696875 303.47547) scale(0.1 -0.1)">
       <defs>
        <path id="DejaVuSans-2e" d="M 684 794 
L 1344 794 
L 1344 0 
L 684 0 
L 684 794 
z
" transform="scale(0.015625)"/>
       </defs>
       <use xlink:href="#DejaVuSans-30"/>
       <use xlink:href="#DejaVuSans-2e" x="63.623047"/>
       <use xlink:href="#DejaVuSans-31" x="95.410156"/>
      </g>
     </g>
    </g>
    <g id="ytick_2">
     <g id="line2d_8">
      <g>
       <use xlink:href="#maf3f671803" x="57.6" y="270.0976" style="stroke: #000000; stroke-width: 0.8"/>
      </g>
     </g>
     <g id="text_9">
      <!-- 0.2 -->
      <g transform="translate(34.696875 273.896819) scale(0.1 -0.1)">
       <use xlink:href="#DejaVuSans-30"/>
       <use xlink:href="#DejaVuSans-2e" x="63.623047"/>
       <use xlink:href="#DejaVuSans-32" x="95.410156"/>
      </g>
     </g>
    </g>
    <g id="ytick_3">
     <g id="line2d_9">
      <g>
       <use xlink:href="#maf3f671803" x="57.6" y="240.518948" style="stroke: #000000; stroke-width: 0.8"/>
      </g>
     </g>
     <g id="text_10">
      <!-- 0.3 -->
      <g transform="translate(34.696875 244.318167) scale(0.1 -0.1)">
       <use xlink:href="#DejaVuSans-30"/>
       <use xlink:href="#DejaVuSans-2e" x="63.623047"/>
       <use xlink:href="#DejaVuSans-33" x="95.410156"/>
      </g>
     </g>
    </g>
    <g id="ytick_4">
     <g id="line2d_10">
      <g>
       <use xlink:href="#maf3f671803" x="57.6" y="210.940296" style="stroke: #000000; stroke-width: 0.8"/>
      </g>
     </g>
     <g id="text_11">
      <!-- 0.4 -->
      <g transform="translate(34.696875 214.739515) scale(0.1 -0.1)">
       <use xlink:href="#DejaVuSans-30"/>
       <use xlink:href="#DejaVuSans-2e" x="63.623047"/>
       <use xlink:href="#DejaVuSans-34" x="95.410156"/>
      </g>
     </g>
    </g>
    <g id="ytick_5">
     <g id="line2d_11">
      <g>
       <use xlink:href="#maf3f671803" x="57.6" y="181.361645" style="stroke: #000000; stroke-width: 0.8"/>
      </g>
     </g>
     <g id="text_12">
      <!-- 0.5 -->
      <g transform="translate(34.696875 185.160864) scale(0.1 -0.1)">
       <use xlink:href="#DejaVuSans-30"/>
       <use xlink:href="#DejaVuSans-2e" x="63.623047"/>
       <use xlink:href="#DejaVuSans-35" x="95.410156"/>
      </g>
     </g>
    </g>
    <g id="ytick_6">
     <g id="line2d_12">
      <g>
       <use xlink:href="#maf3f671803" x="57.6" y="151.782993" style="stroke: #000000; stroke-width: 0.8"/>
      </g>
     </g>
     <g id="text_13">
      <!-- 0.6 -->
      <g transform="translate(34.696875 155.582212) scale(0.1 -0.1)">
       <defs>
        <path id="DejaVuSans-36" d="M 2113 2584 
Q 1688 2584 1439 2293 
Q 1191 2003 1191 1497 
Q 1191 994 1439 701 
Q 1688 409 2113 409 
Q 2538 409 2786 701 
Q 3034 994 3034 1497 
Q 3034 2003 2786 2293 
Q 2538 2584 2113 2584 
z
M 3366 4563 
L 3366 3988 
Q 3128 4100 2886 4159 
Q 2644 4219 2406 4219 
Q 1781 4219 1451 3797 
Q 1122 3375 1075 2522 
Q 1259 2794 1537 2939 
Q 1816 3084 2150 3084 
Q 2853 3084 3261 2657 
Q 3669 2231 3669 1497 
Q 3669 778 3244 343 
Q 2819 -91 2113 -91 
Q 1303 -91 875 529 
Q 447 1150 447 2328 
Q 447 3434 972 4092 
Q 1497 4750 2381 4750 
Q 2619 4750 2861 4703 
Q 3103 4656 3366 4563 
z
" transform="scale(0.015625)"/>
       </defs>
       <use xlink:href="#DejaVuSans-30"/>
       <use xlink:href="#DejaVuSans-2e" x="63.623047"/>
       <use xlink:href="#DejaVuSans-36" x="95.410156"/>
      </g>
     </g>
    </g>
    <g id="ytick_7">
     <g id="line2d_13">
      <g>
       <use xlink:href="#maf3f671803" x="57.6" y="122.204341" style="stroke: #000000; stroke-width: 0.8"/>
      </g>
     </g>
     <g id="text_14">
      <!-- 0.7 -->
      <g transform="translate(34.696875 126.00356) scale(0.1 -0.1)">
       <defs>
        <path id="DejaVuSans-37" d="M 525 4666 
L 3525 4666 
L 3525 4397 
L 1831 0 
L 1172 0 
L 2766 4134 
L 525 4134 
L 525 4666 
z
" transform="scale(0.015625)"/>
       </defs>
       <use xlink:href="#DejaVuSans-30"/>
       <use xlink:href="#DejaVuSans-2e" x="63.623047"/>
       <use xlink:href="#DejaVuSans-37" x="95.410156"/>
      </g>
     </g>
    </g>
    <g id="ytick_8">
     <g id="line2d_14">
      <g>
       <use xlink:href="#maf3f671803" x="57.6" y="92.62569" style="stroke: #000000; stroke-width: 0.8"/>
      </g>
     </g>
     <g id="text_15">
      <!-- 0.8 -->
      <g transform="translate(34.696875 96.424908) scale(0.1 -0.1)">
       <defs>
        <path id="DejaVuSans-38" d="M 2034 2216 
Q 1584 2216 1326 1975 
Q 1069 1734 1069 1313 
Q 1069 891 1326 650 
Q 1584 409 2034 409 
Q 2484 409 2743 651 
Q 3003 894 3003 1313 
Q 3003 1734 2745 1975 
Q 2488 2216 2034 2216 
z
M 1403 2484 
Q 997 2584 770 2862 
Q 544 3141 544 3541 
Q 544 4100 942 4425 
Q 1341 4750 2034 4750 
Q 2731 4750 3128 4425 
Q 3525 4100 3525 3541 
Q 3525 3141 3298 2862 
Q 3072 2584 2669 2484 
Q 3125 2378 3379 2068 
Q 3634 1759 3634 1313 
Q 3634 634 3220 271 
Q 2806 -91 2034 -91 
Q 1263 -91 848 271 
Q 434 634 434 1313 
Q 434 1759 690 2068 
Q 947 2378 1403 2484 
z
M 1172 3481 
Q 1172 3119 1398 2916 
Q 1625 2713 2034 2713 
Q 2441 2713 2670 2916 
Q 2900 3119 2900 3481 
Q 2900 3844 2670 4047 
Q 2441 4250 2034 4250 
Q 1625 4250 1398 4047 
Q 1172 3844 1172 3481 
z
" transform="scale(0.015625)"/>
       </defs>
       <use xlink:href="#DejaVuSans-30"/>
       <use xlink:href="#DejaVuSans-2e" x="63.623047"/>
       <use xlink:href="#DejaVuSans-38" x="95.410156"/>
      </g>
     </g>
    </g>
    <g id="ytick_9">
     <g id="line2d_15">
      <g>
       <use xlink:href="#maf3f671803" x="57.6" y="63.047038" style="stroke: #000000; stroke-width: 0.8"/>
      </g>
     </g>
     <g id="text_16">
      <!-- 0.9 -->
      <g transform="translate(34.696875 66.846257) scale(0.1 -0.1)">
       <defs>
        <path id="DejaVuSans-39" d="M 703 97 
L 703 672 
Q 941 559 1184 500 
Q 1428 441 1663 441 
Q 2288 441 2617 861 
Q 2947 1281 2994 2138 
Q 2813 1869 2534 1725 
Q 2256 1581 1919 1581 
Q 1219 1581 811 2004 
Q 403 2428 403 3163 
Q 403 3881 828 4315 
Q 1253 4750 1959 4750 
Q 2769 4750 3195 4129 
Q 3622 3509 3622 2328 
Q 3622 1225 3098 567 
Q 2575 -91 1691 -91 
Q 1453 -91 1209 -44 
Q 966 3 703 97 
z
M 1959 2075 
Q 2384 2075 2632 2365 
Q 2881 2656 2881 3163 
Q 2881 3666 2632 3958 
Q 2384 4250 1959 4250 
Q 1534 4250 1286 3958 
Q 1038 3666 1038 3163 
Q 1038 2656 1286 2365 
Q 1534 2075 1959 2075 
z
" transform="scale(0.015625)"/>
       </defs>
       <use xlink:href="#DejaVuSans-30"/>
       <use xlink:href="#DejaVuSans-2e" x="63.623047"/>
       <use xlink:href="#DejaVuSans-39" x="95.410156"/>
      </g>
     </g>
    </g>
    <g id="text_17">
     <!-- loss value -->
     <g transform="translate(28.617187 199.432687) rotate(-90) scale(0.1 -0.1)">
      <defs>
       <path id="DejaVuSans-6c" d="M 603 4863 
L 1178 4863 
L 1178 0 
L 603 0 
L 603 4863 
z
" transform="scale(0.015625)"/>
       <path id="DejaVuSans-73" d="M 2834 3397 
L 2834 2853 
Q 2591 2978 2328 3040 
Q 2066 3103 1784 3103 
Q 1356 3103 1142 2972 
Q 928 2841 928 2578 
Q 928 2378 1081 2264 
Q 1234 2150 1697 2047 
L 1894 2003 
Q 2506 1872 2764 1633 
Q 3022 1394 3022 966 
Q 3022 478 2636 193 
Q 2250 -91 1575 -91 
Q 1294 -91 989 -36 
Q 684 19 347 128 
L 347 722 
Q 666 556 975 473 
Q 1284 391 1588 391 
Q 1994 391 2212 530 
Q 2431 669 2431 922 
Q 2431 1156 2273 1281 
Q 2116 1406 1581 1522 
L 1381 1569 
Q 847 1681 609 1914 
Q 372 2147 372 2553 
Q 372 3047 722 3315 
Q 1072 3584 1716 3584 
Q 2034 3584 2315 3537 
Q 2597 3491 2834 3397 
z
" transform="scale(0.015625)"/>
       <path id="DejaVuSans-20" transform="scale(0.015625)"/>
       <path id="DejaVuSans-76" d="M 191 3500 
L 800 3500 
L 1894 563 
L 2988 3500 
L 3597 3500 
L 2284 0 
L 1503 0 
L 191 3500 
z
" transform="scale(0.015625)"/>
       <path id="DejaVuSans-61" d="M 2194 1759 
Q 1497 1759 1228 1600 
Q 959 1441 959 1056 
Q 959 750 1161 570 
Q 1363 391 1709 391 
Q 2188 391 2477 730 
Q 2766 1069 2766 1631 
L 2766 1759 
L 2194 1759 
z
M 3341 1997 
L 3341 0 
L 2766 0 
L 2766 531 
Q 2569 213 2275 61 
Q 1981 -91 1556 -91 
Q 1019 -91 701 211 
Q 384 513 384 1019 
Q 384 1609 779 1909 
Q 1175 2209 1959 2209 
L 2766 2209 
L 2766 2266 
Q 2766 2663 2505 2880 
Q 2244 3097 1772 3097 
Q 1472 3097 1187 3025 
Q 903 2953 641 2809 
L 641 3341 
Q 956 3463 1253 3523 
Q 1550 3584 1831 3584 
Q 2591 3584 2966 3190 
Q 3341 2797 3341 1997 
z
" transform="scale(0.015625)"/>
       <path id="DejaVuSans-75" d="M 544 1381 
L 544 3500 
L 1119 3500 
L 1119 1403 
Q 1119 906 1312 657 
Q 1506 409 1894 409 
Q 2359 409 2629 706 
Q 2900 1003 2900 1516 
L 2900 3500 
L 3475 3500 
L 3475 0 
L 2900 0 
L 2900 538 
Q 2691 219 2414 64 
Q 2138 -91 1772 -91 
Q 1169 -91 856 284 
Q 544 659 544 1381 
z
M 1991 3584 
L 1991 3584 
z
" transform="scale(0.015625)"/>
      </defs>
      <use xlink:href="#DejaVuSans-6c"/>
      <use xlink:href="#DejaVuSans-6f" x="27.783203"/>
      <use xlink:href="#DejaVuSans-73" x="88.964844"/>
      <use xlink:href="#DejaVuSans-73" x="141.064453"/>
      <use xlink:href="#DejaVuSans-20" x="193.164062"/>
      <use xlink:href="#DejaVuSans-76" x="224.951172"/>
      <use xlink:href="#DejaVuSans-61" x="284.130859"/>
      <use xlink:href="#DejaVuSans-6c" x="345.410156"/>
      <use xlink:href="#DejaVuSans-75" x="373.193359"/>
      <use xlink:href="#DejaVuSans-65" x="436.572266"/>
     </g>
    </g>
   </g>
   <g id="line2d_16">
    <path d="M 73.832727 89.568795 
L 74.483338 135.195618 
L 75.133948 195.32006 
L 75.784558 243.184207 
L 76.435169 268.363571 
L 77.085779 279.46311 
L 77.736389 282.656653 
L 78.386999 283.006076 
L 79.03761 282.102349 
L 79.68822 282.359879 
L 80.33883 224.167117 
L 81.640051 269.485278 
L 82.290661 279.408147 
L 82.941272 282.38464 
L 83.591882 282.665556 
L 84.893103 281.310152 
L 85.543713 282.166294 
L 86.194323 281.911885 
L 86.844934 232.207692 
L 87.495544 255.195 
L 88.146154 273.809397 
L 88.796764 281.933936 
L 90.097985 288.11229 
L 90.748595 288.758148 
L 91.399206 289.079979 
L 92.049816 288.292295 
L 92.700426 289.159139 
L 93.351037 226.466427 
L 94.001647 252.744139 
L 94.652257 271.624656 
L 95.302868 282.59281 
L 95.953478 287.367289 
L 96.604088 289.014796 
L 97.254698 290.035649 
L 97.905309 290.241817 
L 98.555919 290.026843 
L 99.206529 290.462711 
L 99.85714 231.041354 
L 100.50775 256.989217 
L 101.15836 274.886997 
L 101.808971 284.519016 
L 103.110191 291.85856 
L 103.760802 291.433648 
L 104.411412 290.582799 
L 105.062022 293.326459 
L 105.712633 292.258801 
L 106.363243 228.872348 
L 107.013853 254.720499 
L 107.664463 274.718148 
L 108.315074 283.982933 
L 108.965684 289.136255 
L 109.616294 290.095953 
L 110.266905 291.800693 
L 110.917515 291.52038 
L 112.218736 292.780022 
L 112.869346 231.263821 
L 113.519956 257.944658 
L 114.170567 275.252834 
L 114.821177 285.210227 
L 115.471787 290.576571 
L 116.122398 292.218415 
L 116.773008 292.474353 
L 117.423618 292.30258 
L 118.074228 293.510371 
L 118.724839 294.151466 
L 119.375449 228.46836 
L 120.026059 255.684204 
L 120.67667 274.946222 
L 121.32728 287.010972 
L 121.97789 290.564301 
L 123.279111 294.135762 
L 123.929721 292.686097 
L 124.580332 294.650211 
L 125.230942 294.58266 
L 125.881552 232.615568 
L 126.532163 258.614378 
L 127.182773 276.491822 
L 127.833383 286.045972 
L 128.483993 292.161509 
L 129.134604 293.507393 
L 129.785214 293.607842 
L 130.435824 293.455602 
L 131.737045 294.940609 
L 132.387655 230.385562 
L 133.038266 257.042738 
L 133.688876 275.585305 
L 134.339486 286.666332 
L 134.990097 291.415833 
L 135.640707 294.372433 
L 136.291317 294.628547 
L 136.941927 295.488 
L 137.592538 294.89803 
L 138.243148 294.61549 
L 138.893758 233.077322 
L 139.544369 258.162625 
L 140.845589 274.856413 
L 142.14681 284.015641 
L 142.79742 288.075919 
L 144.098641 291.813814 
L 144.749251 291.679119 
L 145.399862 230.965923 
L 146.701082 259.123055 
L 147.351692 269.488355 
L 148.002303 277.372537 
L 148.652913 283.647059 
L 149.303523 286.001764 
L 149.954134 289.047372 
L 150.604744 289.622563 
L 151.255354 290.689304 
L 151.905965 231.122647 
L 153.207185 258.679535 
L 153.857796 269.583964 
L 155.159016 282.779042 
L 155.809627 286.323415 
L 156.460237 289.042312 
L 157.761457 291.501067 
L 158.412068 232.095802 
L 159.713288 257.427915 
L 160.363899 268.695857 
L 161.014509 275.613051 
L 162.31573 286.183065 
L 162.96634 287.717082 
L 163.61695 290.578617 
L 164.267561 289.869083 
L 164.918171 231.102681 
L 166.219392 257.290245 
L 166.870002 267.687486 
L 167.520612 274.804483 
L 168.171222 280.357047 
L 168.821833 284.495978 
L 169.472443 287.604358 
L 170.123053 288.457433 
L 170.773664 288.857878 
L 171.424274 232.018026 
L 172.725495 256.405017 
L 173.376105 265.904037 
L 174.026715 273.609897 
L 175.327936 282.696414 
L 175.978546 286.043724 
L 176.629156 287.489744 
L 177.279767 289.548106 
L 177.930377 232.093986 
L 179.231598 255.253127 
L 179.882208 264.293253 
L 181.183429 278.206487 
L 182.484649 285.316639 
L 183.13526 286.264437 
L 183.78587 288.804264 
L 184.43648 231.982457 
L 186.388311 262.677926 
L 187.038921 270.157313 
L 188.340142 280.702353 
L 188.990752 284.00698 
L 190.291973 287.323535 
L 190.942583 232.457248 
L 191.593194 243.683389 
L 192.894414 261.561953 
L 194.195635 275.819607 
L 194.846245 279.637988 
L 196.798076 287.383411 
L 197.448686 231.900388 
L 198.099297 242.55255 
L 200.051128 267.075514 
L 200.701738 273.140417 
L 202.002959 281.57245 
L 202.653569 283.657046 
L 203.304179 285.143929 
L 203.95479 231.816159 
L 205.25601 250.947529 
L 206.557231 265.993303 
L 207.207841 271.748174 
L 209.159672 281.895507 
L 209.810282 284.415059 
L 210.460893 231.845858 
L 212.412724 258.155092 
L 213.713944 269.48184 
L 214.364555 274.623756 
L 215.665775 280.895025 
L 216.316385 282.2764 
L 216.966996 231.615809 
L 217.617606 240.696384 
L 218.268216 247.912622 
L 218.918827 256.407498 
L 219.569437 262.854184 
L 220.870658 272.582442 
L 222.171878 279.763789 
L 222.822489 280.853894 
L 223.473099 232.41996 
L 225.42493 254.873979 
L 226.72615 266.069655 
L 227.376761 271.167173 
L 228.027371 273.995899 
L 228.677981 278.235687 
L 229.328592 279.899917 
L 229.979202 231.931823 
L 231.280423 247.22037 
L 231.931033 254.540344 
L 233.232254 265.392156 
L 234.533474 273.349653 
L 235.184085 275.597876 
L 235.834695 278.673636 
L 236.485305 232.213827 
L 237.135915 238.270585 
L 237.786526 246.515962 
L 239.087746 258.20447 
L 240.388967 267.328795 
L 241.039577 270.409434 
L 241.690188 274.535384 
L 242.340798 276.460784 
L 242.991408 233.122711 
L 243.642019 239.324539 
L 244.292629 244.303102 
L 244.943239 251.778716 
L 245.59385 257.530783 
L 247.54568 269.718897 
L 248.846901 275.422944 
L 249.497511 231.855942 
L 252.099953 255.33066 
L 253.401173 264.345055 
L 254.702394 271.135893 
L 255.353004 272.878661 
L 256.003615 232.795432 
L 259.256666 259.051679 
L 260.557887 264.670682 
L 261.859107 272.402164 
L 262.509718 232.471114 
L 265.762769 257.721247 
L 266.413379 260.496456 
L 267.7146 267.521824 
L 268.36521 269.027046 
L 269.015821 231.777928 
L 269.666431 238.147746 
L 270.317041 241.937589 
L 270.967652 247.129098 
L 272.268872 255.28628 
L 272.919483 259.494938 
L 274.220703 265.294162 
L 274.871314 267.669874 
L 275.521924 230.943462 
L 276.823144 241.013649 
L 278.124365 250.740779 
L 280.726806 263.761366 
L 281.377417 266.098044 
L 282.028027 233.102656 
L 282.678637 236.732787 
L 283.329248 241.220796 
L 283.979858 244.007416 
L 284.630468 249.059408 
L 285.281079 253.09819 
L 287.88352 264.85996 
L 288.53413 232.409585 
L 289.18474 236.719802 
L 289.835351 240.14885 
L 290.485961 244.538421 
L 293.088402 258.096701 
L 293.739013 260.912657 
L 294.389623 262.068109 
L 295.040233 232.738363 
L 296.992064 244.032142 
L 297.642674 245.81605 
L 298.293285 250.493506 
L 299.594505 255.898182 
L 300.245116 258.717925 
L 300.895726 259.952227 
L 301.546336 232.648501 
L 302.196947 235.880426 
L 302.847557 239.923456 
L 306.100608 254.302724 
L 307.401829 259.080032 
L 308.052439 231.758121 
L 309.35366 238.972252 
L 310.00427 242.409701 
L 310.654881 244.555196 
L 311.956101 251.133792 
L 312.606712 252.804831 
L 313.907932 257.340407 
L 314.558543 233.112256 
L 315.209153 234.939129 
L 315.859763 237.756884 
L 316.510373 241.23222 
L 317.160984 243.038924 
L 317.811594 246.942764 
L 318.462204 250.152836 
L 319.112815 251.102886 
L 319.763425 253.197069 
L 320.414035 255.797108 
L 321.064646 231.979539 
L 321.715256 235.50067 
L 322.365866 237.504498 
L 324.968308 248.707517 
L 325.618918 250.684036 
L 326.269528 251.705453 
L 326.920138 253.708937 
L 327.570749 232.653905 
L 328.871969 236.410999 
L 329.52258 240.480396 
L 330.17319 242.151744 
L 331.474411 246.987386 
L 332.125021 249.456459 
L 332.775631 250.12245 
L 333.426242 252.827125 
L 334.076852 231.715429 
L 334.727462 234.853182 
L 335.378073 236.603786 
L 336.679293 241.566746 
L 339.281734 249.667537 
L 339.932345 250.818942 
L 340.582955 232.525398 
L 343.185396 240.586909 
L 343.836007 242.98926 
L 344.486617 244.848194 
L 345.137227 245.906238 
L 345.787837 248.087065 
L 346.438448 249.564488 
L 347.089058 232.292467 
L 347.739668 234.887261 
L 348.390279 235.855444 
L 349.691499 239.479333 
L 350.34211 242.313413 
L 350.99272 243.918418 
L 351.64333 244.759505 
L 352.293941 246.797033 
L 352.944551 247.962877 
L 353.595161 232.044418 
L 354.245772 234.717173 
L 354.896382 236.080732 
L 355.546992 238.332291 
L 356.197602 239.454703 
L 356.848213 241.272585 
L 357.498823 242.345985 
L 358.149433 245.13182 
L 358.800044 245.57902 
L 359.450654 247.225518 
L 360.101264 232.995985 
L 360.751875 234.771289 
L 361.402485 237.318155 
L 362.053095 237.58706 
L 362.703706 238.592223 
L 363.354316 240.772397 
L 364.004926 241.773055 
L 364.655537 243.504372 
L 365.306147 244.899295 
L 365.956757 245.929554 
L 366.607367 233.265763 
L 367.257978 233.409529 
L 367.908588 235.183238 
L 368.559198 237.614599 
L 369.860419 239.921147 
L 370.511029 240.468646 
L 371.81225 244.244693 
L 372.46286 244.932889 
L 373.113471 232.29862 
L 373.764081 233.405068 
L 374.414691 235.25866 
L 375.065302 236.508653 
L 375.715912 236.924815 
L 377.667743 241.861867 
L 378.318353 242.902942 
L 378.968963 244.325086 
L 379.619574 231.897638 
L 380.270184 233.32917 
L 380.920794 235.044056 
L 382.222015 236.83655 
L 382.872625 238.083987 
L 383.523236 239.858789 
L 384.173846 240.321424 
L 385.475066 243.369976 
L 386.125677 232.387397 
L 386.776287 233.038994 
L 387.426897 235.061421 
L 388.077508 235.866595 
L 388.728118 236.928456 
L 389.378728 238.340225 
L 390.029339 238.550351 
L 390.679949 240.033698 
L 391.98117 241.813842 
L 392.63178 232.4832 
L 393.28239 233.032832 
L 393.933001 234.434384 
L 394.583611 234.974451 
L 395.234221 236.65665 
L 395.884831 236.539242 
L 396.535442 238.901836 
L 397.186052 238.997163 
L 397.836662 240.588029 
L 398.487273 240.992846 
L 398.487273 240.992846 
" clip-path="url(#p9b9fedc9d3)" style="fill: none; stroke: #0000ff; stroke-width: 1.5; stroke-linecap: square"/>
   </g>
   <g id="line2d_17">
    <path d="M 73.832727 293.254106 
L 79.68822 293.231579 
L 80.33883 295.169657 
L 118.724839 295.158718 
L 126.532163 295.167237 
L 288.53413 295.155624 
L 398.487273 295.154204 
L 398.487273 295.154204 
" clip-path="url(#p9b9fedc9d3)" style="fill: none; stroke: #008000; stroke-width: 1.5; stroke-linecap: square"/>
   </g>
   <g id="line2d_18">
    <path d="M 73.832727 53.568 
L 74.483338 99.194083 
L 75.133948 159.317132 
L 75.784558 207.179189 
L 76.435169 232.355883 
L 77.085779 243.45238 
L 77.736389 246.642715 
L 78.386999 246.988903 
L 79.03761 246.08202 
L 79.68822 246.336557 
L 80.33883 190.081866 
L 81.640051 235.3957 
L 82.290661 245.316048 
L 82.941272 248.289856 
L 83.591882 248.568044 
L 84.893103 247.207447 
L 85.543713 248.061236 
L 86.194323 247.804681 
L 86.844934 198.114482 
L 87.495544 221.101384 
L 88.146154 239.715093 
L 88.796764 247.838645 
L 90.097985 254.014399 
L 90.748595 254.65882 
L 91.399206 254.979205 
L 92.049816 254.190119 
L 92.700426 255.05565 
L 93.351037 192.375571 
L 94.001647 218.653353 
L 94.652257 237.533588 
L 95.302868 248.501058 
L 95.953478 253.274528 
L 96.604088 254.920796 
L 97.254698 255.940301 
L 97.905309 256.145076 
L 98.555919 255.928735 
L 99.206529 256.363295 
L 99.85714 196.953186 
L 100.50775 222.901097 
L 101.15836 240.79856 
L 101.808971 250.42986 
L 103.110191 257.767112 
L 103.760802 257.34083 
L 104.411412 256.488575 
L 105.062022 259.230855 
L 105.712633 258.161858 
L 106.363243 194.785564 
L 107.013853 220.633741 
L 107.664463 240.631029 
L 108.315074 249.895038 
L 108.965684 255.04724 
L 109.616294 256.005599 
L 110.266905 257.708888 
L 110.917515 257.427082 
L 112.218736 258.683867 
L 112.869346 197.177416 
L 113.519956 223.858235 
L 114.170567 241.166001 
L 114.821177 251.12257 
L 115.471787 256.487755 
L 116.122398 258.128215 
L 116.773008 258.382659 
L 117.423618 258.209349 
L 118.074228 259.415637 
L 118.724839 260.055281 
L 119.375449 194.381585 
L 120.026059 221.597384 
L 120.67667 240.858962 
L 121.32728 252.922839 
L 121.97789 256.474938 
L 123.279111 260.043371 
L 123.929721 258.592093 
L 124.580332 260.554631 
L 125.230942 260.485569 
L 125.881552 198.527999 
L 126.532163 224.526712 
L 127.182773 242.403662 
L 127.833383 251.956904 
L 128.483993 258.07119 
L 129.134604 259.415602 
L 129.785214 259.514464 
L 130.435824 259.360613 
L 131.737045 260.842524 
L 132.387655 196.29697 
L 133.038266 222.95405 
L 133.688876 241.496119 
L 134.339486 252.576211 
L 134.990097 257.324434 
L 135.640707 260.279515 
L 136.291317 260.533995 
L 136.941927 261.391786 
L 137.592538 260.800176 
L 138.243148 260.516074 
L 138.893758 198.987505 
L 139.544369 224.07268 
L 140.845589 240.766103 
L 142.14681 249.924674 
L 142.79742 253.98456 
L 144.098641 257.721564 
L 144.749251 257.586402 
L 145.399862 196.875525 
L 146.701082 225.032533 
L 147.351692 235.397613 
L 148.002303 243.281481 
L 148.652913 249.555594 
L 149.303523 251.909832 
L 149.954134 254.954911 
L 150.604744 255.529578 
L 151.255354 256.595789 
L 151.905965 197.031711 
L 153.207185 224.588444 
L 153.857796 235.492648 
L 155.159016 248.686987 
L 155.809627 252.230896 
L 156.460237 254.949287 
L 157.761457 257.406997 
L 158.412068 198.004266 
L 159.713288 223.336212 
L 160.363899 234.603943 
L 161.014509 241.520845 
L 162.31573 252.090066 
L 162.96634 253.623615 
L 163.61695 256.484688 
L 164.267561 255.774682 
L 164.918171 197.010572 
L 166.219392 223.197982 
L 166.870002 233.595025 
L 167.520612 240.711749 
L 168.171222 246.263973 
L 168.821833 250.402525 
L 169.472443 253.510482 
L 170.123053 254.363125 
L 170.773664 254.763129 
L 171.424274 197.925327 
L 172.725495 222.312176 
L 173.376105 231.811011 
L 174.026715 239.51663 
L 175.327936 248.602503 
L 175.978546 251.94942 
L 176.629156 253.395048 
L 177.279767 255.45301 
L 177.930377 198.000731 
L 179.231598 221.159722 
L 179.882208 230.199695 
L 181.183429 244.112422 
L 182.484649 251.221917 
L 183.13526 252.169358 
L 183.78587 254.70881 
L 184.43648 197.888638 
L 186.388311 228.583829 
L 187.038921 236.063013 
L 188.340142 246.607525 
L 188.990752 249.911839 
L 190.291973 253.227746 
L 190.942583 198.362892 
L 191.593194 209.588998 
L 192.894414 227.467341 
L 194.195635 241.724589 
L 194.846245 245.54272 
L 196.798076 253.287248 
L 197.448686 197.805511 
L 198.099297 208.457647 
L 200.051128 232.98025 
L 200.701738 239.04495 
L 202.002959 247.476503 
L 202.653569 249.56083 
L 203.304179 251.047448 
L 203.95479 197.720807 
L 205.25601 216.85207 
L 206.557231 231.897602 
L 207.207841 237.652292 
L 209.159672 247.79896 
L 209.810282 250.318261 
L 210.460893 197.750055 
L 212.412724 224.059105 
L 213.713944 235.385571 
L 214.364555 240.52731 
L 215.665775 246.798161 
L 216.316385 248.179315 
L 216.966996 197.519584 
L 217.617606 206.600124 
L 218.268216 213.816309 
L 218.918827 222.31111 
L 219.569437 228.757681 
L 220.870658 238.48563 
L 222.171878 245.666607 
L 222.822489 246.75651 
L 223.473099 198.323338 
L 225.42493 220.777207 
L 226.72615 231.972663 
L 227.376761 237.070036 
L 228.027371 239.898607 
L 228.677981 244.138223 
L 229.328592 245.802281 
L 229.979202 197.834839 
L 231.280423 213.123316 
L 231.931033 220.443229 
L 233.232254 231.294833 
L 234.533474 239.25207 
L 235.184085 241.500139 
L 235.834695 244.575736 
L 236.485305 198.1165 
L 237.135915 204.17324 
L 237.786526 212.418574 
L 239.087746 224.106936 
L 240.388967 233.231058 
L 241.039577 236.311565 
L 241.690188 240.437387 
L 242.340798 242.362646 
L 242.991408 199.025058 
L 243.642019 205.226868 
L 244.292629 210.205395 
L 244.943239 217.680965 
L 245.59385 223.432958 
L 247.54568 235.620785 
L 248.846901 241.324594 
L 249.497511 197.758007 
L 252.099953 221.232562 
L 253.401173 230.246803 
L 254.702394 237.037446 
L 255.353004 238.780099 
L 256.003615 198.697223 
L 259.256666 224.953267 
L 260.557887 230.572116 
L 261.859107 238.303404 
L 262.509718 198.37265 
L 265.762769 223.622606 
L 266.413379 226.397749 
L 267.7146 233.422963 
L 268.36521 234.928101 
L 269.015821 197.679235 
L 269.666431 204.049044 
L 270.317041 207.83886 
L 270.967652 213.030343 
L 272.268872 221.187428 
L 272.919483 225.396033 
L 274.220703 231.195125 
L 274.871314 233.570766 
L 275.521924 196.844557 
L 276.823144 206.914718 
L 278.124365 216.641785 
L 280.726806 229.662166 
L 281.377417 231.998774 
L 282.028027 199.003557 
L 282.678637 202.633679 
L 283.329248 207.121671 
L 283.979858 209.908264 
L 284.630468 214.96023 
L 285.281079 218.998967 
L 287.88352 230.760539 
L 288.53413 198.31031 
L 289.18474 202.620509 
L 289.835351 206.04954 
L 290.485961 210.439093 
L 293.088402 223.997232 
L 293.739013 226.813144 
L 294.389623 227.968551 
L 295.040233 198.63892 
L 296.992064 209.932664 
L 297.642674 211.716546 
L 298.293285 216.393966 
L 299.594505 221.798581 
L 300.245116 224.618275 
L 300.895726 225.852542 
L 301.546336 198.548909 
L 302.196947 201.780824 
L 302.847557 205.823846 
L 306.100608 220.20299 
L 307.401829 224.980233 
L 308.052439 197.658396 
L 309.35366 204.872509 
L 310.00427 208.30995 
L 310.654881 210.455419 
L 311.956101 217.03397 
L 312.606712 218.704983 
L 313.907932 223.240506 
L 314.558543 199.012408 
L 315.209153 200.839272 
L 315.859763 203.657018 
L 316.510373 207.132346 
L 317.160984 208.939032 
L 317.811594 212.842854 
L 318.462204 216.052909 
L 319.112815 217.002932 
L 319.763425 219.097097 
L 320.414035 221.697101 
L 321.064646 197.879585 
L 321.715256 201.400699 
L 322.365866 203.404526 
L 324.968308 214.607484 
L 325.618918 216.583985 
L 326.269528 217.605384 
L 326.920138 219.608842 
L 327.570749 198.553845 
L 328.871969 202.310931 
L 329.52258 206.38031 
L 330.17319 208.051649 
L 331.474411 212.887265 
L 332.125021 215.35632 
L 332.775631 216.022294 
L 333.426242 218.726942 
L 334.076852 197.615272 
L 334.727462 200.753034 
L 335.378073 202.503621 
L 336.679293 207.466562 
L 339.281734 215.567301 
L 339.932345 216.718689 
L 340.582955 198.425153 
L 343.185396 206.486638 
L 343.836007 208.888989 
L 344.486617 210.747905 
L 345.137227 211.805949 
L 345.787837 213.986758 
L 346.438448 215.464164 
L 347.089058 198.192152 
L 347.739668 200.786945 
L 348.390279 201.755128 
L 349.691499 205.379 
L 350.34211 208.213071 
L 350.99272 209.818068 
L 351.64333 210.659145 
L 352.293941 212.696664 
L 352.944551 213.862491 
L 353.595161 197.944041 
L 354.245772 200.616787 
L 354.896382 201.980346 
L 355.546992 204.231896 
L 356.197602 205.3543 
L 356.848213 207.172181 
L 357.498823 208.245573 
L 358.149433 211.031399 
L 358.800044 211.47859 
L 359.450654 213.125071 
L 360.101264 198.895537 
L 360.751875 200.670841 
L 361.402485 203.217707 
L 362.053095 203.486604 
L 362.703706 204.491766 
L 363.354316 206.671932 
L 364.004926 207.67259 
L 364.655537 209.403889 
L 365.306147 210.798803 
L 365.956757 211.829053 
L 366.607367 199.165262 
L 367.257978 199.309028 
L 367.908588 201.082737 
L 368.559198 203.514089 
L 369.860419 205.820629 
L 370.511029 206.368118 
L 371.81225 210.144157 
L 372.46286 210.832336 
L 373.113471 198.198067 
L 373.764081 199.304515 
L 374.414691 201.158106 
L 375.065302 202.408091 
L 375.715912 202.824253 
L 377.667743 207.761287 
L 378.318353 208.802362 
L 378.968963 210.224498 
L 379.619574 197.79704 
L 380.270184 199.228572 
L 380.920794 200.943458 
L 382.222015 202.735943 
L 382.872625 203.98338 
L 383.523236 205.758174 
L 384.173846 206.220809 
L 385.475066 209.269344 
L 386.125677 198.286756 
L 386.776287 198.938352 
L 387.426897 200.96078 
L 388.077508 201.765953 
L 388.728118 202.827806 
L 389.378728 204.239574 
L 390.029339 204.4497 
L 390.679949 205.933039 
L 391.98117 207.713174 
L 392.63178 198.382523 
L 393.28239 198.932155 
L 393.933001 200.333707 
L 394.583611 200.873766 
L 395.234221 202.555965 
L 395.884831 202.438556 
L 396.535442 204.801151 
L 397.186052 204.896469 
L 397.836662 206.487334 
L 398.487273 206.892151 
L 398.487273 206.892151 
" clip-path="url(#p9b9fedc9d3)" style="fill: none; stroke: #ff0000; stroke-width: 1.5; stroke-linecap: square"/>
   </g>
   <g id="patch_3">
    <path d="M 57.6 307.584 
L 57.6 41.472 
" style="fill: none; stroke: #000000; stroke-width: 0.8; stroke-linejoin: miter; stroke-linecap: square"/>
   </g>
   <g id="patch_4">
    <path d="M 414.72 307.584 
L 414.72 41.472 
" style="fill: none; stroke: #000000; stroke-width: 0.8; stroke-linejoin: miter; stroke-linecap: square"/>
   </g>
   <g id="patch_5">
    <path d="M 57.6 307.584 
L 414.72 307.584 
" style="fill: none; stroke: #000000; stroke-width: 0.8; stroke-linejoin: miter; stroke-linecap: square"/>
   </g>
   <g id="patch_6">
    <path d="M 57.6 41.472 
L 414.72 41.472 
" style="fill: none; stroke: #000000; stroke-width: 0.8; stroke-linejoin: miter; stroke-linecap: square"/>
   </g>
   <g id="text_18">
    <!-- The loss curve on λ_0.00025_non_iid/host/4 -->
    <g transform="translate(104.905313 35.472) scale(0.12 -0.12)">
     <defs>
      <path id="DejaVuSans-54" d="M -19 4666 
L 3928 4666 
L 3928 4134 
L 2272 4134 
L 2272 0 
L 1638 0 
L 1638 4134 
L -19 4134 
L -19 4666 
z
" transform="scale(0.015625)"/>
      <path id="DejaVuSans-72" d="M 2631 2963 
Q 2534 3019 2420 3045 
Q 2306 3072 2169 3072 
Q 1681 3072 1420 2755 
Q 1159 2438 1159 1844 
L 1159 0 
L 581 0 
L 581 3500 
L 1159 3500 
L 1159 2956 
Q 1341 3275 1631 3429 
Q 1922 3584 2338 3584 
Q 2397 3584 2469 3576 
Q 2541 3569 2628 3553 
L 2631 2963 
z
" transform="scale(0.015625)"/>
      <path id="DejaVuSans-6e" d="M 3513 2113 
L 3513 0 
L 2938 0 
L 2938 2094 
Q 2938 2591 2744 2837 
Q 2550 3084 2163 3084 
Q 1697 3084 1428 2787 
Q 1159 2491 1159 1978 
L 1159 0 
L 581 0 
L 581 3500 
L 1159 3500 
L 1159 2956 
Q 1366 3272 1645 3428 
Q 1925 3584 2291 3584 
Q 2894 3584 3203 3211 
Q 3513 2838 3513 2113 
z
" transform="scale(0.015625)"/>
      <path id="DejaVuSans-3bb" d="M 1981 4316 
L 3597 0 
L 2988 0 
L 2006 2588 
L 800 0 
L 191 0 
L 1725 3356 
L 1494 3975 
Q 1347 4369 1013 4369 
L 713 4369 
L 713 4863 
L 1078 4856 
Q 1784 4847 1981 4316 
z
" transform="scale(0.015625)"/>
      <path id="DejaVuSans-5f" d="M 3263 -1063 
L 3263 -1509 
L -63 -1509 
L -63 -1063 
L 3263 -1063 
z
" transform="scale(0.015625)"/>
      <path id="DejaVuSans-69" d="M 603 3500 
L 1178 3500 
L 1178 0 
L 603 0 
L 603 3500 
z
M 603 4863 
L 1178 4863 
L 1178 4134 
L 603 4134 
L 603 4863 
z
" transform="scale(0.015625)"/>
      <path id="DejaVuSans-64" d="M 2906 2969 
L 2906 4863 
L 3481 4863 
L 3481 0 
L 2906 0 
L 2906 525 
Q 2725 213 2448 61 
Q 2172 -91 1784 -91 
Q 1150 -91 751 415 
Q 353 922 353 1747 
Q 353 2572 751 3078 
Q 1150 3584 1784 3584 
Q 2172 3584 2448 3432 
Q 2725 3281 2906 2969 
z
M 947 1747 
Q 947 1113 1208 752 
Q 1469 391 1925 391 
Q 2381 391 2643 752 
Q 2906 1113 2906 1747 
Q 2906 2381 2643 2742 
Q 2381 3103 1925 3103 
Q 1469 3103 1208 2742 
Q 947 2381 947 1747 
z
" transform="scale(0.015625)"/>
      <path id="DejaVuSans-2f" d="M 1625 4666 
L 2156 4666 
L 531 -594 
L 0 -594 
L 1625 4666 
z
" transform="scale(0.015625)"/>
      <path id="DejaVuSans-74" d="M 1172 4494 
L 1172 3500 
L 2356 3500 
L 2356 3053 
L 1172 3053 
L 1172 1153 
Q 1172 725 1289 603 
Q 1406 481 1766 481 
L 2356 481 
L 2356 0 
L 1766 0 
Q 1100 0 847 248 
Q 594 497 594 1153 
L 594 3053 
L 172 3053 
L 172 3500 
L 594 3500 
L 594 4494 
L 1172 4494 
z
" transform="scale(0.015625)"/>
     </defs>
     <use xlink:href="#DejaVuSans-54"/>
     <use xlink:href="#DejaVuSans-68" x="61.083984"/>
     <use xlink:href="#DejaVuSans-65" x="124.462891"/>
     <use xlink:href="#DejaVuSans-20" x="185.986328"/>
     <use xlink:href="#DejaVuSans-6c" x="217.773438"/>
     <use xlink:href="#DejaVuSans-6f" x="245.556641"/>
     <use xlink:href="#DejaVuSans-73" x="306.738281"/>
     <use xlink:href="#DejaVuSans-73" x="358.837891"/>
     <use xlink:href="#DejaVuSans-20" x="410.9375"/>
     <use xlink:href="#DejaVuSans-63" x="442.724609"/>
     <use xlink:href="#DejaVuSans-75" x="497.705078"/>
     <use xlink:href="#DejaVuSans-72" x="561.083984"/>
     <use xlink:href="#DejaVuSans-76" x="602.197266"/>
     <use xlink:href="#DejaVuSans-65" x="661.376953"/>
     <use xlink:href="#DejaVuSans-20" x="722.900391"/>
     <use xlink:href="#DejaVuSans-6f" x="754.6875"/>
     <use xlink:href="#DejaVuSans-6e" x="815.869141"/>
     <use xlink:href="#DejaVuSans-20" x="879.248047"/>
     <use xlink:href="#DejaVuSans-3bb" x="911.035156"/>
     <use xlink:href="#DejaVuSans-5f" x="970.214844"/>
     <use xlink:href="#DejaVuSans-30" x="1020.214844"/>
     <use xlink:href="#DejaVuSans-2e" x="1083.837891"/>
     <use xlink:href="#DejaVuSans-30" x="1115.625"/>
     <use xlink:href="#DejaVuSans-30" x="1179.248047"/>
     <use xlink:href="#DejaVuSans-30" x="1242.871094"/>
     <use xlink:href="#DejaVuSans-32" x="1306.494141"/>
     <use xlink:href="#DejaVuSans-35" x="1370.117188"/>
     <use xlink:href="#DejaVuSans-5f" x="1433.740234"/>
     <use xlink:href="#DejaVuSans-6e" x="1483.740234"/>
     <use xlink:href="#DejaVuSans-6f" x="1547.119141"/>
     <use xlink:href="#DejaVuSans-6e" x="1608.300781"/>
     <use xlink:href="#DejaVuSans-5f" x="1671.679688"/>
     <use xlink:href="#DejaVuSans-69" x="1721.679688"/>
     <use xlink:href="#DejaVuSans-69" x="1749.462891"/>
     <use xlink:href="#DejaVuSans-64" x="1777.246094"/>
     <use xlink:href="#DejaVuSans-2f" x="1840.722656"/>
     <use xlink:href="#DejaVuSans-68" x="1874.414062"/>
     <use xlink:href="#DejaVuSans-6f" x="1937.792969"/>
     <use xlink:href="#DejaVuSans-73" x="1998.974609"/>
     <use xlink:href="#DejaVuSans-74" x="2051.074219"/>
     <use xlink:href="#DejaVuSans-2f" x="2090.283203"/>
     <use xlink:href="#DejaVuSans-34" x="2123.974609"/>
    </g>
   </g>
   <g id="legend_1">
    <g id="patch_7">
     <path d="M 317.418438 94.34075 
L 407.72 94.34075 
Q 409.72 94.34075 409.72 92.34075 
L 409.72 48.472 
Q 409.72 46.472 407.72 46.472 
L 317.418438 46.472 
Q 315.418438 46.472 315.418438 48.472 
L 315.418438 92.34075 
Q 315.418438 94.34075 317.418438 94.34075 
z
" style="fill: #ffffff; opacity: 0.8; stroke: #cccccc; stroke-linejoin: miter"/>
    </g>
    <g id="line2d_19">
     <path d="M 319.418438 54.570438 
L 329.418438 54.570438 
L 339.418438 54.570438 
" style="fill: none; stroke: #0000ff; stroke-width: 1.5; stroke-linecap: square"/>
    </g>
    <g id="text_19">
     <!-- obj_loss -->
     <g transform="translate(347.418438 58.070438) scale(0.1 -0.1)">
      <defs>
       <path id="DejaVuSans-62" d="M 3116 1747 
Q 3116 2381 2855 2742 
Q 2594 3103 2138 3103 
Q 1681 3103 1420 2742 
Q 1159 2381 1159 1747 
Q 1159 1113 1420 752 
Q 1681 391 2138 391 
Q 2594 391 2855 752 
Q 3116 1113 3116 1747 
z
M 1159 2969 
Q 1341 3281 1617 3432 
Q 1894 3584 2278 3584 
Q 2916 3584 3314 3078 
Q 3713 2572 3713 1747 
Q 3713 922 3314 415 
Q 2916 -91 2278 -91 
Q 1894 -91 1617 61 
Q 1341 213 1159 525 
L 1159 0 
L 581 0 
L 581 4863 
L 1159 4863 
L 1159 2969 
z
" transform="scale(0.015625)"/>
       <path id="DejaVuSans-6a" d="M 603 3500 
L 1178 3500 
L 1178 -63 
Q 1178 -731 923 -1031 
Q 669 -1331 103 -1331 
L -116 -1331 
L -116 -844 
L 38 -844 
Q 366 -844 484 -692 
Q 603 -541 603 -63 
L 603 3500 
z
M 603 4863 
L 1178 4863 
L 1178 4134 
L 603 4134 
L 603 4863 
z
" transform="scale(0.015625)"/>
      </defs>
      <use xlink:href="#DejaVuSans-6f"/>
      <use xlink:href="#DejaVuSans-62" x="61.181641"/>
      <use xlink:href="#DejaVuSans-6a" x="124.658203"/>
      <use xlink:href="#DejaVuSans-5f" x="152.441406"/>
      <use xlink:href="#DejaVuSans-6c" x="202.441406"/>
      <use xlink:href="#DejaVuSans-6f" x="230.224609"/>
      <use xlink:href="#DejaVuSans-73" x="291.40625"/>
      <use xlink:href="#DejaVuSans-73" x="343.505859"/>
     </g>
    </g>
    <g id="line2d_20">
     <path d="M 319.418438 69.526688 
L 329.418438 69.526688 
L 339.418438 69.526688 
" style="fill: none; stroke: #008000; stroke-width: 1.5; stroke-linecap: square"/>
    </g>
    <g id="text_20">
     <!-- reg_loss -->
     <g transform="translate(347.418438 73.026688) scale(0.1 -0.1)">
      <defs>
       <path id="DejaVuSans-67" d="M 2906 1791 
Q 2906 2416 2648 2759 
Q 2391 3103 1925 3103 
Q 1463 3103 1205 2759 
Q 947 2416 947 1791 
Q 947 1169 1205 825 
Q 1463 481 1925 481 
Q 2391 481 2648 825 
Q 2906 1169 2906 1791 
z
M 3481 434 
Q 3481 -459 3084 -895 
Q 2688 -1331 1869 -1331 
Q 1566 -1331 1297 -1286 
Q 1028 -1241 775 -1147 
L 775 -588 
Q 1028 -725 1275 -790 
Q 1522 -856 1778 -856 
Q 2344 -856 2625 -561 
Q 2906 -266 2906 331 
L 2906 616 
Q 2728 306 2450 153 
Q 2172 0 1784 0 
Q 1141 0 747 490 
Q 353 981 353 1791 
Q 353 2603 747 3093 
Q 1141 3584 1784 3584 
Q 2172 3584 2450 3431 
Q 2728 3278 2906 2969 
L 2906 3500 
L 3481 3500 
L 3481 434 
z
" transform="scale(0.015625)"/>
      </defs>
      <use xlink:href="#DejaVuSans-72"/>
      <use xlink:href="#DejaVuSans-65" x="38.863281"/>
      <use xlink:href="#DejaVuSans-67" x="100.386719"/>
      <use xlink:href="#DejaVuSans-5f" x="163.863281"/>
      <use xlink:href="#DejaVuSans-6c" x="213.863281"/>
      <use xlink:href="#DejaVuSans-6f" x="241.646484"/>
      <use xlink:href="#DejaVuSans-73" x="302.828125"/>
      <use xlink:href="#DejaVuSans-73" x="354.927734"/>
     </g>
    </g>
    <g id="line2d_21">
     <path d="M 319.418438 84.482938 
L 329.418438 84.482938 
L 339.418438 84.482938 
" style="fill: none; stroke: #ff0000; stroke-width: 1.5; stroke-linecap: square"/>
    </g>
    <g id="text_21">
     <!-- overall_loss -->
     <g transform="translate(347.418438 87.982938) scale(0.1 -0.1)">
      <use xlink:href="#DejaVuSans-6f"/>
      <use xlink:href="#DejaVuSans-76" x="61.181641"/>
      <use xlink:href="#DejaVuSans-65" x="120.361328"/>
      <use xlink:href="#DejaVuSans-72" x="181.884766"/>
      <use xlink:href="#DejaVuSans-61" x="222.998047"/>
      <use xlink:href="#DejaVuSans-6c" x="284.277344"/>
      <use xlink:href="#DejaVuSans-6c" x="312.060547"/>
      <use xlink:href="#DejaVuSans-5f" x="339.84375"/>
      <use xlink:href="#DejaVuSans-6c" x="389.84375"/>
      <use xlink:href="#DejaVuSans-6f" x="417.626953"/>
      <use xlink:href="#DejaVuSans-73" x="478.808594"/>
      <use xlink:href="#DejaVuSans-73" x="530.908203"/>
     </g>
    </g>
   </g>
  </g>
 </g>
 <defs>
  <clipPath id="p9b9fedc9d3">
   <rect x="57.6" y="41.472" width="357.12" height="266.112"/>
  </clipPath>
 </defs>
</svg>
