<?xml version="1.0" encoding="utf-8" standalone="no"?>
<!DOCTYPE svg PUBLIC "-//W3C//DTD SVG 1.1//EN"
  "http://www.w3.org/Graphics/SVG/1.1/DTD/svg11.dtd">
<svg xmlns:xlink="http://www.w3.org/1999/xlink" width="460.8pt" height="345.6pt" viewBox="0 0 460.8 345.6" xmlns="http://www.w3.org/2000/svg" version="1.1">
 <metadata>
  <rdf:RDF xmlns:dc="http://purl.org/dc/elements/1.1/" xmlns:cc="http://creativecommons.org/ns#" xmlns:rdf="http://www.w3.org/1999/02/22-rdf-syntax-ns#">
   <cc:Work>
    <dc:type rdf:resource="http://purl.org/dc/dcmitype/StillImage"/>
    <dc:date>2023-04-13T09:22:58.754015</dc:date>
    <dc:format>image/svg+xml</dc:format>
    <dc:creator>
     <cc:Agent>
      <dc:title>Matplotlib v3.7.1, https://matplotlib.org/</dc:title>
     </cc:Agent>
    </dc:creator>
   </cc:Work>
  </rdf:RDF>
 </metadata>
 <defs>
  <style type="text/css">*{stroke-linejoin: round; stroke-linecap: butt}</style>
 </defs>
 <g id="figure_1">
  <g id="patch_1">
   <path d="M 0 345.6 
L 460.8 345.6 
L 460.8 0 
L 0 0 
z
" style="fill: #ffffff"/>
  </g>
  <g id="axes_1">
   <g id="patch_2">
    <path d="M 57.6 307.584 
L 414.72 307.584 
L 414.72 41.472 
L 57.6 41.472 
z
" style="fill: #ffffff"/>
   </g>
   <g id="matplotlib.axis_1">
    <g id="xtick_1">
     <g id="line2d_1">
      <defs>
       <path id="m5f096dfa16" d="M 0 0 
L 0 3.5 
" style="stroke: #000000; stroke-width: 0.8"/>
      </defs>
      <g>
       <use xlink:href="#m5f096dfa16" x="73.832727" y="307.584" style="stroke: #000000; stroke-width: 0.8"/>
      </g>
     </g>
     <g id="text_1">
      <!-- 0 -->
      <g transform="translate(70.651477 322.182437) scale(0.1 -0.1)">
       <defs>
        <path id="DejaVuSans-30" d="M 2034 4250 
Q 1547 4250 1301 3770 
Q 1056 3291 1056 2328 
Q 1056 1369 1301 889 
Q 1547 409 2034 409 
Q 2525 409 2770 889 
Q 3016 1369 3016 2328 
Q 3016 3291 2770 3770 
Q 2525 4250 2034 4250 
z
M 2034 4750 
Q 2819 4750 3233 4129 
Q 3647 3509 3647 2328 
Q 3647 1150 3233 529 
Q 2819 -91 2034 -91 
Q 1250 -91 836 529 
Q 422 1150 422 2328 
Q 422 3509 836 4129 
Q 1250 4750 2034 4750 
z
" transform="scale(0.015625)"/>
       </defs>
       <use xlink:href="#DejaVuSans-30"/>
      </g>
     </g>
    </g>
    <g id="xtick_2">
     <g id="line2d_2">
      <g>
       <use xlink:href="#m5f096dfa16" x="138.893758" y="307.584" style="stroke: #000000; stroke-width: 0.8"/>
      </g>
     </g>
     <g id="text_2">
      <!-- 100 -->
      <g transform="translate(129.350008 322.182437) scale(0.1 -0.1)">
       <defs>
        <path id="DejaVuSans-31" d="M 794 531 
L 1825 531 
L 1825 4091 
L 703 3866 
L 703 4441 
L 1819 4666 
L 2450 4666 
L 2450 531 
L 3481 531 
L 3481 0 
L 794 0 
L 794 531 
z
" transform="scale(0.015625)"/>
       </defs>
       <use xlink:href="#DejaVuSans-31"/>
       <use xlink:href="#DejaVuSans-30" x="63.623047"/>
       <use xlink:href="#DejaVuSans-30" x="127.246094"/>
      </g>
     </g>
    </g>
    <g id="xtick_3">
     <g id="line2d_3">
      <g>
       <use xlink:href="#m5f096dfa16" x="203.95479" y="307.584" style="stroke: #000000; stroke-width: 0.8"/>
      </g>
     </g>
     <g id="text_3">
      <!-- 200 -->
      <g transform="translate(194.41104 322.182437) scale(0.1 -0.1)">
       <defs>
        <path id="DejaVuSans-32" d="M 1228 531 
L 3431 531 
L 3431 0 
L 469 0 
L 469 531 
Q 828 903 1448 1529 
Q 2069 2156 2228 2338 
Q 2531 2678 2651 2914 
Q 2772 3150 2772 3378 
Q 2772 3750 2511 3984 
Q 2250 4219 1831 4219 
Q 1534 4219 1204 4116 
Q 875 4013 500 3803 
L 500 4441 
Q 881 4594 1212 4672 
Q 1544 4750 1819 4750 
Q 2544 4750 2975 4387 
Q 3406 4025 3406 3419 
Q 3406 3131 3298 2873 
Q 3191 2616 2906 2266 
Q 2828 2175 2409 1742 
Q 1991 1309 1228 531 
z
" transform="scale(0.015625)"/>
       </defs>
       <use xlink:href="#DejaVuSans-32"/>
       <use xlink:href="#DejaVuSans-30" x="63.623047"/>
       <use xlink:href="#DejaVuSans-30" x="127.246094"/>
      </g>
     </g>
    </g>
    <g id="xtick_4">
     <g id="line2d_4">
      <g>
       <use xlink:href="#m5f096dfa16" x="269.015821" y="307.584" style="stroke: #000000; stroke-width: 0.8"/>
      </g>
     </g>
     <g id="text_4">
      <!-- 300 -->
      <g transform="translate(259.472071 322.182437) scale(0.1 -0.1)">
       <defs>
        <path id="DejaVuSans-33" d="M 2597 2516 
Q 3050 2419 3304 2112 
Q 3559 1806 3559 1356 
Q 3559 666 3084 287 
Q 2609 -91 1734 -91 
Q 1441 -91 1130 -33 
Q 819 25 488 141 
L 488 750 
Q 750 597 1062 519 
Q 1375 441 1716 441 
Q 2309 441 2620 675 
Q 2931 909 2931 1356 
Q 2931 1769 2642 2001 
Q 2353 2234 1838 2234 
L 1294 2234 
L 1294 2753 
L 1863 2753 
Q 2328 2753 2575 2939 
Q 2822 3125 2822 3475 
Q 2822 3834 2567 4026 
Q 2313 4219 1838 4219 
Q 1578 4219 1281 4162 
Q 984 4106 628 3988 
L 628 4550 
Q 988 4650 1302 4700 
Q 1616 4750 1894 4750 
Q 2613 4750 3031 4423 
Q 3450 4097 3450 3541 
Q 3450 3153 3228 2886 
Q 3006 2619 2597 2516 
z
" transform="scale(0.015625)"/>
       </defs>
       <use xlink:href="#DejaVuSans-33"/>
       <use xlink:href="#DejaVuSans-30" x="63.623047"/>
       <use xlink:href="#DejaVuSans-30" x="127.246094"/>
      </g>
     </g>
    </g>
    <g id="xtick_5">
     <g id="line2d_5">
      <g>
       <use xlink:href="#m5f096dfa16" x="334.076852" y="307.584" style="stroke: #000000; stroke-width: 0.8"/>
      </g>
     </g>
     <g id="text_5">
      <!-- 400 -->
      <g transform="translate(324.533102 322.182437) scale(0.1 -0.1)">
       <defs>
        <path id="DejaVuSans-34" d="M 2419 4116 
L 825 1625 
L 2419 1625 
L 2419 4116 
z
M 2253 4666 
L 3047 4666 
L 3047 1625 
L 3713 1625 
L 3713 1100 
L 3047 1100 
L 3047 0 
L 2419 0 
L 2419 1100 
L 313 1100 
L 313 1709 
L 2253 4666 
z
" transform="scale(0.015625)"/>
       </defs>
       <use xlink:href="#DejaVuSans-34"/>
       <use xlink:href="#DejaVuSans-30" x="63.623047"/>
       <use xlink:href="#DejaVuSans-30" x="127.246094"/>
      </g>
     </g>
    </g>
    <g id="xtick_6">
     <g id="line2d_6">
      <g>
       <use xlink:href="#m5f096dfa16" x="399.137883" y="307.584" style="stroke: #000000; stroke-width: 0.8"/>
      </g>
     </g>
     <g id="text_6">
      <!-- 500 -->
      <g transform="translate(389.594133 322.182437) scale(0.1 -0.1)">
       <defs>
        <path id="DejaVuSans-35" d="M 691 4666 
L 3169 4666 
L 3169 4134 
L 1269 4134 
L 1269 2991 
Q 1406 3038 1543 3061 
Q 1681 3084 1819 3084 
Q 2600 3084 3056 2656 
Q 3513 2228 3513 1497 
Q 3513 744 3044 326 
Q 2575 -91 1722 -91 
Q 1428 -91 1123 -41 
Q 819 9 494 109 
L 494 744 
Q 775 591 1075 516 
Q 1375 441 1709 441 
Q 2250 441 2565 725 
Q 2881 1009 2881 1497 
Q 2881 1984 2565 2268 
Q 2250 2553 1709 2553 
Q 1456 2553 1204 2497 
Q 953 2441 691 2322 
L 691 4666 
z
" transform="scale(0.015625)"/>
       </defs>
       <use xlink:href="#DejaVuSans-35"/>
       <use xlink:href="#DejaVuSans-30" x="63.623047"/>
       <use xlink:href="#DejaVuSans-30" x="127.246094"/>
      </g>
     </g>
    </g>
    <g id="text_7">
     <!-- epoch -->
     <g transform="translate(220.931875 335.860562) scale(0.1 -0.1)">
      <defs>
       <path id="DejaVuSans-65" d="M 3597 1894 
L 3597 1613 
L 953 1613 
Q 991 1019 1311 708 
Q 1631 397 2203 397 
Q 2534 397 2845 478 
Q 3156 559 3463 722 
L 3463 178 
Q 3153 47 2828 -22 
Q 2503 -91 2169 -91 
Q 1331 -91 842 396 
Q 353 884 353 1716 
Q 353 2575 817 3079 
Q 1281 3584 2069 3584 
Q 2775 3584 3186 3129 
Q 3597 2675 3597 1894 
z
M 3022 2063 
Q 3016 2534 2758 2815 
Q 2500 3097 2075 3097 
Q 1594 3097 1305 2825 
Q 1016 2553 972 2059 
L 3022 2063 
z
" transform="scale(0.015625)"/>
       <path id="DejaVuSans-70" d="M 1159 525 
L 1159 -1331 
L 581 -1331 
L 581 3500 
L 1159 3500 
L 1159 2969 
Q 1341 3281 1617 3432 
Q 1894 3584 2278 3584 
Q 2916 3584 3314 3078 
Q 3713 2572 3713 1747 
Q 3713 922 3314 415 
Q 2916 -91 2278 -91 
Q 1894 -91 1617 61 
Q 1341 213 1159 525 
z
M 3116 1747 
Q 3116 2381 2855 2742 
Q 2594 3103 2138 3103 
Q 1681 3103 1420 2742 
Q 1159 2381 1159 1747 
Q 1159 1113 1420 752 
Q 1681 391 2138 391 
Q 2594 391 2855 752 
Q 3116 1113 3116 1747 
z
" transform="scale(0.015625)"/>
       <path id="DejaVuSans-6f" d="M 1959 3097 
Q 1497 3097 1228 2736 
Q 959 2375 959 1747 
Q 959 1119 1226 758 
Q 1494 397 1959 397 
Q 2419 397 2687 759 
Q 2956 1122 2956 1747 
Q 2956 2369 2687 2733 
Q 2419 3097 1959 3097 
z
M 1959 3584 
Q 2709 3584 3137 3096 
Q 3566 2609 3566 1747 
Q 3566 888 3137 398 
Q 2709 -91 1959 -91 
Q 1206 -91 779 398 
Q 353 888 353 1747 
Q 353 2609 779 3096 
Q 1206 3584 1959 3584 
z
" transform="scale(0.015625)"/>
       <path id="DejaVuSans-63" d="M 3122 3366 
L 3122 2828 
Q 2878 2963 2633 3030 
Q 2388 3097 2138 3097 
Q 1578 3097 1268 2742 
Q 959 2388 959 1747 
Q 959 1106 1268 751 
Q 1578 397 2138 397 
Q 2388 397 2633 464 
Q 2878 531 3122 666 
L 3122 134 
Q 2881 22 2623 -34 
Q 2366 -91 2075 -91 
Q 1284 -91 818 406 
Q 353 903 353 1747 
Q 353 2603 823 3093 
Q 1294 3584 2113 3584 
Q 2378 3584 2631 3529 
Q 2884 3475 3122 3366 
z
" transform="scale(0.015625)"/>
       <path id="DejaVuSans-68" d="M 3513 2113 
L 3513 0 
L 2938 0 
L 2938 2094 
Q 2938 2591 2744 2837 
Q 2550 3084 2163 3084 
Q 1697 3084 1428 2787 
Q 1159 2491 1159 1978 
L 1159 0 
L 581 0 
L 581 4863 
L 1159 4863 
L 1159 2956 
Q 1366 3272 1645 3428 
Q 1925 3584 2291 3584 
Q 2894 3584 3203 3211 
Q 3513 2838 3513 2113 
z
" transform="scale(0.015625)"/>
      </defs>
      <use xlink:href="#DejaVuSans-65"/>
      <use xlink:href="#DejaVuSans-70" x="61.523438"/>
      <use xlink:href="#DejaVuSans-6f" x="125"/>
      <use xlink:href="#DejaVuSans-63" x="186.181641"/>
      <use xlink:href="#DejaVuSans-68" x="241.162109"/>
     </g>
    </g>
   </g>
   <g id="matplotlib.axis_2">
    <g id="ytick_1">
     <g id="line2d_7">
      <defs>
       <path id="m7a1a2d81ca" d="M 0 0 
L -3.5 0 
" style="stroke: #000000; stroke-width: 0.8"/>
      </defs>
      <g>
       <use xlink:href="#m7a1a2d81ca" x="57.6" y="268.730133" style="stroke: #000000; stroke-width: 0.8"/>
      </g>
     </g>
     <g id="text_8">
      <!-- 0.2 -->
      <g transform="translate(34.696875 272.529352) scale(0.1 -0.1)">
       <defs>
        <path id="DejaVuSans-2e" d="M 684 794 
L 1344 794 
L 1344 0 
L 684 0 
L 684 794 
z
" transform="scale(0.015625)"/>
       </defs>
       <use xlink:href="#DejaVuSans-30"/>
       <use xlink:href="#DejaVuSans-2e" x="63.623047"/>
       <use xlink:href="#DejaVuSans-32" x="95.410156"/>
      </g>
     </g>
    </g>
    <g id="ytick_2">
     <g id="line2d_8">
      <g>
       <use xlink:href="#m7a1a2d81ca" x="57.6" y="210.09648" style="stroke: #000000; stroke-width: 0.8"/>
      </g>
     </g>
     <g id="text_9">
      <!-- 0.4 -->
      <g transform="translate(34.696875 213.895698) scale(0.1 -0.1)">
       <use xlink:href="#DejaVuSans-30"/>
       <use xlink:href="#DejaVuSans-2e" x="63.623047"/>
       <use xlink:href="#DejaVuSans-34" x="95.410156"/>
      </g>
     </g>
    </g>
    <g id="ytick_3">
     <g id="line2d_9">
      <g>
       <use xlink:href="#m7a1a2d81ca" x="57.6" y="151.462826" style="stroke: #000000; stroke-width: 0.8"/>
      </g>
     </g>
     <g id="text_10">
      <!-- 0.6 -->
      <g transform="translate(34.696875 155.262045) scale(0.1 -0.1)">
       <defs>
        <path id="DejaVuSans-36" d="M 2113 2584 
Q 1688 2584 1439 2293 
Q 1191 2003 1191 1497 
Q 1191 994 1439 701 
Q 1688 409 2113 409 
Q 2538 409 2786 701 
Q 3034 994 3034 1497 
Q 3034 2003 2786 2293 
Q 2538 2584 2113 2584 
z
M 3366 4563 
L 3366 3988 
Q 3128 4100 2886 4159 
Q 2644 4219 2406 4219 
Q 1781 4219 1451 3797 
Q 1122 3375 1075 2522 
Q 1259 2794 1537 2939 
Q 1816 3084 2150 3084 
Q 2853 3084 3261 2657 
Q 3669 2231 3669 1497 
Q 3669 778 3244 343 
Q 2819 -91 2113 -91 
Q 1303 -91 875 529 
Q 447 1150 447 2328 
Q 447 3434 972 4092 
Q 1497 4750 2381 4750 
Q 2619 4750 2861 4703 
Q 3103 4656 3366 4563 
z
" transform="scale(0.015625)"/>
       </defs>
       <use xlink:href="#DejaVuSans-30"/>
       <use xlink:href="#DejaVuSans-2e" x="63.623047"/>
       <use xlink:href="#DejaVuSans-36" x="95.410156"/>
      </g>
     </g>
    </g>
    <g id="ytick_4">
     <g id="line2d_10">
      <g>
       <use xlink:href="#m7a1a2d81ca" x="57.6" y="92.829172" style="stroke: #000000; stroke-width: 0.8"/>
      </g>
     </g>
     <g id="text_11">
      <!-- 0.8 -->
      <g transform="translate(34.696875 96.628391) scale(0.1 -0.1)">
       <defs>
        <path id="DejaVuSans-38" d="M 2034 2216 
Q 1584 2216 1326 1975 
Q 1069 1734 1069 1313 
Q 1069 891 1326 650 
Q 1584 409 2034 409 
Q 2484 409 2743 651 
Q 3003 894 3003 1313 
Q 3003 1734 2745 1975 
Q 2488 2216 2034 2216 
z
M 1403 2484 
Q 997 2584 770 2862 
Q 544 3141 544 3541 
Q 544 4100 942 4425 
Q 1341 4750 2034 4750 
Q 2731 4750 3128 4425 
Q 3525 4100 3525 3541 
Q 3525 3141 3298 2862 
Q 3072 2584 2669 2484 
Q 3125 2378 3379 2068 
Q 3634 1759 3634 1313 
Q 3634 634 3220 271 
Q 2806 -91 2034 -91 
Q 1263 -91 848 271 
Q 434 634 434 1313 
Q 434 1759 690 2068 
Q 947 2378 1403 2484 
z
M 1172 3481 
Q 1172 3119 1398 2916 
Q 1625 2713 2034 2713 
Q 2441 2713 2670 2916 
Q 2900 3119 2900 3481 
Q 2900 3844 2670 4047 
Q 2441 4250 2034 4250 
Q 1625 4250 1398 4047 
Q 1172 3844 1172 3481 
z
" transform="scale(0.015625)"/>
       </defs>
       <use xlink:href="#DejaVuSans-30"/>
       <use xlink:href="#DejaVuSans-2e" x="63.623047"/>
       <use xlink:href="#DejaVuSans-38" x="95.410156"/>
      </g>
     </g>
    </g>
    <g id="text_12">
     <!-- loss value -->
     <g transform="translate(28.617187 199.432687) rotate(-90) scale(0.1 -0.1)">
      <defs>
       <path id="DejaVuSans-6c" d="M 603 4863 
L 1178 4863 
L 1178 0 
L 603 0 
L 603 4863 
z
" transform="scale(0.015625)"/>
       <path id="DejaVuSans-73" d="M 2834 3397 
L 2834 2853 
Q 2591 2978 2328 3040 
Q 2066 3103 1784 3103 
Q 1356 3103 1142 2972 
Q 928 2841 928 2578 
Q 928 2378 1081 2264 
Q 1234 2150 1697 2047 
L 1894 2003 
Q 2506 1872 2764 1633 
Q 3022 1394 3022 966 
Q 3022 478 2636 193 
Q 2250 -91 1575 -91 
Q 1294 -91 989 -36 
Q 684 19 347 128 
L 347 722 
Q 666 556 975 473 
Q 1284 391 1588 391 
Q 1994 391 2212 530 
Q 2431 669 2431 922 
Q 2431 1156 2273 1281 
Q 2116 1406 1581 1522 
L 1381 1569 
Q 847 1681 609 1914 
Q 372 2147 372 2553 
Q 372 3047 722 3315 
Q 1072 3584 1716 3584 
Q 2034 3584 2315 3537 
Q 2597 3491 2834 3397 
z
" transform="scale(0.015625)"/>
       <path id="DejaVuSans-20" transform="scale(0.015625)"/>
       <path id="DejaVuSans-76" d="M 191 3500 
L 800 3500 
L 1894 563 
L 2988 3500 
L 3597 3500 
L 2284 0 
L 1503 0 
L 191 3500 
z
" transform="scale(0.015625)"/>
       <path id="DejaVuSans-61" d="M 2194 1759 
Q 1497 1759 1228 1600 
Q 959 1441 959 1056 
Q 959 750 1161 570 
Q 1363 391 1709 391 
Q 2188 391 2477 730 
Q 2766 1069 2766 1631 
L 2766 1759 
L 2194 1759 
z
M 3341 1997 
L 3341 0 
L 2766 0 
L 2766 531 
Q 2569 213 2275 61 
Q 1981 -91 1556 -91 
Q 1019 -91 701 211 
Q 384 513 384 1019 
Q 384 1609 779 1909 
Q 1175 2209 1959 2209 
L 2766 2209 
L 2766 2266 
Q 2766 2663 2505 2880 
Q 2244 3097 1772 3097 
Q 1472 3097 1187 3025 
Q 903 2953 641 2809 
L 641 3341 
Q 956 3463 1253 3523 
Q 1550 3584 1831 3584 
Q 2591 3584 2966 3190 
Q 3341 2797 3341 1997 
z
" transform="scale(0.015625)"/>
       <path id="DejaVuSans-75" d="M 544 1381 
L 544 3500 
L 1119 3500 
L 1119 1403 
Q 1119 906 1312 657 
Q 1506 409 1894 409 
Q 2359 409 2629 706 
Q 2900 1003 2900 1516 
L 2900 3500 
L 3475 3500 
L 3475 0 
L 2900 0 
L 2900 538 
Q 2691 219 2414 64 
Q 2138 -91 1772 -91 
Q 1169 -91 856 284 
Q 544 659 544 1381 
z
M 1991 3584 
L 1991 3584 
z
" transform="scale(0.015625)"/>
      </defs>
      <use xlink:href="#DejaVuSans-6c"/>
      <use xlink:href="#DejaVuSans-6f" x="27.783203"/>
      <use xlink:href="#DejaVuSans-73" x="88.964844"/>
      <use xlink:href="#DejaVuSans-73" x="141.064453"/>
      <use xlink:href="#DejaVuSans-20" x="193.164062"/>
      <use xlink:href="#DejaVuSans-76" x="224.951172"/>
      <use xlink:href="#DejaVuSans-61" x="284.130859"/>
      <use xlink:href="#DejaVuSans-6c" x="345.410156"/>
      <use xlink:href="#DejaVuSans-75" x="373.193359"/>
      <use xlink:href="#DejaVuSans-65" x="436.572266"/>
     </g>
    </g>
   </g>
   <g id="line2d_11">
    <path d="M 73.832727 89.247676 
L 74.483338 134.624776 
L 75.133948 196.638477 
L 75.784558 243.592675 
L 76.435169 270.111493 
L 77.085779 282.009001 
L 77.736389 284.991518 
L 78.386999 287.072069 
L 79.03761 286.399737 
L 79.68822 286.944473 
L 80.33883 204.074548 
L 80.989441 236.940452 
L 81.640051 262.050365 
L 82.290661 276.054955 
L 82.941272 281.559181 
L 83.591882 282.982794 
L 84.242492 282.467699 
L 84.893103 281.304101 
L 86.194323 280.514622 
L 86.844934 221.451058 
L 87.495544 250.714613 
L 88.146154 271.747698 
L 88.796764 281.728305 
L 89.447375 286.980112 
L 90.097985 289.13813 
L 90.748595 289.839221 
L 91.399206 289.76299 
L 92.049816 288.391777 
L 92.700426 288.526014 
L 93.351037 215.205844 
L 94.001647 247.563737 
L 94.652257 270.860599 
L 95.302868 283.075578 
L 95.953478 289.388186 
L 96.604088 291.382611 
L 97.254698 290.191038 
L 97.905309 290.897998 
L 98.555919 289.23914 
L 99.206529 290.050462 
L 99.85714 220.349249 
L 100.50775 251.061887 
L 101.15836 273.605895 
L 101.808971 285.898538 
L 102.459581 290.585085 
L 103.110191 291.553675 
L 103.760802 290.760393 
L 104.411412 292.250524 
L 105.062022 292.585308 
L 105.712633 292.580662 
L 106.363243 218.132037 
L 107.013853 250.101295 
L 107.664463 272.950115 
L 108.315074 285.753205 
L 108.965684 291.278642 
L 109.616294 291.82255 
L 110.266905 293.573823 
L 110.917515 292.494505 
L 111.568125 293.539855 
L 112.218736 291.061665 
L 112.869346 220.724289 
L 113.519956 252.237384 
L 114.170567 274.799111 
L 114.821177 287.019905 
L 115.471787 291.316871 
L 116.122398 292.934387 
L 116.773008 292.106543 
L 117.423618 292.317913 
L 118.074228 293.627929 
L 118.724839 293.415694 
L 119.375449 219.323698 
L 120.026059 250.322772 
L 120.67667 274.591701 
L 121.32728 286.788158 
L 121.97789 292.924152 
L 122.628501 292.943463 
L 123.279111 294.102463 
L 123.929721 292.669824 
L 124.580332 294.364827 
L 125.230942 293.840092 
L 125.881552 221.8732 
L 126.532163 253.434445 
L 127.182773 275.241326 
L 127.833383 287.31611 
L 128.483993 291.478444 
L 129.134604 292.583047 
L 129.785214 294.584772 
L 130.435824 294.117445 
L 131.086435 295.394509 
L 131.737045 294.027147 
L 132.387655 219.879368 
L 133.038266 251.065347 
L 133.688876 274.347491 
L 134.339486 287.581368 
L 134.990097 292.683714 
L 135.640707 294.795823 
L 136.291317 295.372854 
L 136.941927 295.463905 
L 137.592538 294.922492 
L 138.243148 295.488 
L 138.893758 222.248502 
L 139.544369 253.050179 
L 140.845589 273.174374 
L 142.14681 285.556935 
L 142.79742 289.283616 
L 143.448031 290.939848 
L 144.098641 293.274876 
L 144.749251 293.775121 
L 145.399862 220.953612 
L 147.351692 268.190827 
L 148.652913 283.19618 
L 149.303523 287.105432 
L 150.604744 291.922568 
L 151.255354 292.298178 
L 151.905965 220.548936 
L 153.207185 253.748474 
L 153.857796 267.153803 
L 154.508406 277.177086 
L 155.159016 283.414966 
L 155.809627 286.147641 
L 156.460237 290.367855 
L 157.110847 292.501403 
L 157.761457 293.146249 
L 158.412068 221.685204 
L 159.713288 252.802805 
L 160.363899 266.061225 
L 161.014509 275.373505 
L 161.665119 282.376851 
L 162.96634 289.638853 
L 163.61695 291.384888 
L 164.267561 291.65788 
L 164.918171 221.839623 
L 166.219392 252.964608 
L 167.520612 274.652507 
L 168.171222 280.398794 
L 168.821833 285.113095 
L 170.123053 290.927243 
L 170.773664 290.530386 
L 171.424274 221.417019 
L 172.725495 250.456991 
L 174.026715 271.861966 
L 174.677326 279.138573 
L 175.978546 287.192737 
L 176.629156 288.57011 
L 177.279767 290.928173 
L 177.930377 222.045085 
L 179.231598 248.897682 
L 179.882208 261.250511 
L 181.183429 277.208522 
L 181.834039 282.274771 
L 182.484649 285.706505 
L 183.13526 287.866088 
L 183.78587 288.61006 
L 184.43648 221.320046 
L 186.388311 260.007628 
L 187.038921 268.448571 
L 187.689532 275.266908 
L 188.990752 285.203825 
L 189.641363 286.242312 
L 190.291973 289.257003 
L 190.942583 221.332548 
L 192.243804 247.967164 
L 193.545025 266.323788 
L 194.195635 274.000099 
L 194.846245 279.389463 
L 196.147466 285.134352 
L 196.798076 287.593233 
L 197.448686 222.457371 
L 200.051128 265.408595 
L 200.701738 271.665762 
L 201.352348 276.352698 
L 202.002959 282.175373 
L 202.653569 283.187308 
L 203.304179 286.109132 
L 203.95479 222.302453 
L 205.906621 254.625621 
L 207.207841 270.174684 
L 207.858451 275.496502 
L 209.159672 282.634949 
L 209.810282 285.327416 
L 210.460893 221.781915 
L 212.412724 253.470215 
L 213.713944 267.96153 
L 215.015165 277.639611 
L 216.316385 283.204603 
L 216.966996 222.757796 
L 218.918827 250.858557 
L 219.569437 259.547227 
L 220.220047 266.023415 
L 221.521268 275.769545 
L 222.822489 282.165666 
L 223.473099 222.736757 
L 225.42493 249.865018 
L 226.07554 258.621208 
L 226.72615 264.220271 
L 228.677981 277.767408 
L 229.328592 279.118141 
L 229.979202 222.230765 
L 231.931033 248.889556 
L 233.882864 267.292352 
L 235.834695 278.069196 
L 236.485305 222.150716 
L 238.437136 247.820381 
L 239.087746 253.289916 
L 239.738357 260.245443 
L 241.690188 273.831194 
L 242.340798 276.162709 
L 242.991408 221.291222 
L 243.642019 231.469527 
L 245.59385 252.592224 
L 246.24446 258.440294 
L 246.89507 262.450625 
L 248.196291 272.506309 
L 248.846901 274.470845 
L 249.497511 222.838666 
L 250.148122 231.265044 
L 250.798732 236.946489 
L 251.449342 244.649191 
L 252.750563 256.293637 
L 254.051784 265.346146 
L 254.702394 268.217466 
L 255.353004 272.841578 
L 256.003615 222.701459 
L 256.654225 228.877808 
L 257.304835 236.763097 
L 257.955445 242.632084 
L 258.606056 249.773759 
L 259.256666 253.816894 
L 259.907276 259.778105 
L 260.557887 263.853379 
L 261.859107 270.029671 
L 262.509718 222.428241 
L 263.160328 229.351743 
L 267.06399 261.944612 
L 267.7146 265.606704 
L 268.36521 267.958608 
L 269.015821 223.046531 
L 269.666431 228.626817 
L 270.317041 235.581493 
L 272.268872 251.258777 
L 272.919483 254.414467 
L 273.570093 259.612768 
L 274.220703 262.614043 
L 274.871314 266.328567 
L 275.521924 222.043748 
L 276.172534 228.914014 
L 277.473755 239.034157 
L 278.124365 242.857789 
L 279.425586 252.987193 
L 280.726806 260.30154 
L 281.377417 263.521421 
L 282.028027 222.25453 
L 283.979858 239.207274 
L 284.630468 242.754587 
L 285.281079 247.631703 
L 285.931689 250.496439 
L 286.582299 254.433641 
L 287.88352 261.164354 
L 288.53413 222.993086 
L 291.136571 241.896193 
L 291.787182 246.934457 
L 292.437792 249.282595 
L 293.088402 253.620169 
L 293.739013 256.393498 
L 294.389623 258.148287 
L 295.040233 222.503109 
L 298.293285 243.688276 
L 298.943895 247.813644 
L 300.245116 253.876647 
L 300.895726 257.518548 
L 301.546336 222.25135 
L 302.196947 226.118685 
L 302.847557 231.490435 
L 306.100608 249.466729 
L 306.751219 252.136261 
L 307.401829 255.808379 
L 308.052439 221.834119 
L 309.35366 230.77609 
L 310.00427 234.646414 
L 310.654881 237.591409 
L 311.305491 241.457233 
L 313.257322 249.720323 
L 313.907932 252.608248 
L 314.558543 222.733751 
L 315.859763 230.60521 
L 317.160984 235.732242 
L 317.811594 240.389499 
L 319.112815 246.378611 
L 319.763425 249.074398 
L 320.414035 251.064639 
L 321.064646 222.394953 
L 323.667087 235.180739 
L 324.317697 239.539711 
L 324.968308 241.420441 
L 326.269528 246.537487 
L 326.920138 248.163696 
L 327.570749 222.401375 
L 328.871969 228.958058 
L 331.474411 240.5237 
L 332.775631 245.063416 
L 333.426242 246.677936 
L 334.076852 222.621681 
L 334.727462 225.112093 
L 336.028683 231.896125 
L 336.679293 234.949652 
L 337.329903 236.078424 
L 337.980514 238.971643 
L 338.631124 240.853666 
L 339.932345 245.98532 
L 340.582955 222.602258 
L 341.233565 226.07659 
L 341.884176 227.902294 
L 342.534786 230.494695 
L 343.185396 232.208904 
L 343.836007 235.590369 
L 344.486617 236.713401 
L 345.137227 238.87764 
L 345.787837 242.171962 
L 346.438448 244.015227 
L 347.089058 222.756293 
L 347.739668 225.335457 
L 348.390279 227.254368 
L 349.040889 229.898038 
L 349.691499 232.018776 
L 350.34211 234.691593 
L 351.64333 237.889772 
L 352.293941 240.523683 
L 352.944551 242.635369 
L 353.595161 221.993667 
L 354.896382 227.764431 
L 357.498823 235.27406 
L 358.149433 236.259351 
L 358.800044 238.608879 
L 359.450654 240.207138 
L 360.101264 223.032639 
L 360.751875 224.133268 
L 361.402485 227.516909 
L 362.053095 228.792053 
L 364.655537 236.861556 
L 365.306147 236.946576 
L 365.956757 239.600775 
L 366.607367 222.131224 
L 367.257978 224.530683 
L 367.908588 226.378029 
L 368.559198 227.793779 
L 369.209809 230.466124 
L 369.860419 232.415877 
L 370.511029 233.831278 
L 371.16164 234.746951 
L 371.81225 237.168035 
L 372.46286 238.249015 
L 373.113471 222.869246 
L 373.764081 224.077473 
L 375.065302 227.735616 
L 375.715912 229.924293 
L 376.366522 230.869254 
L 377.017132 232.744575 
L 377.667743 233.986379 
L 378.968963 235.924284 
L 379.619574 222.91896 
L 380.270184 224.950396 
L 380.920794 226.48152 
L 381.571405 227.319424 
L 382.222015 229.039767 
L 382.872625 229.6379 
L 383.523236 232.370977 
L 384.173846 233.041864 
L 384.824456 234.813878 
L 385.475066 235.652377 
L 386.125677 222.450993 
L 386.776287 224.077115 
L 387.426897 225.169916 
L 388.077508 225.579336 
L 388.728118 227.680179 
L 389.378728 228.494109 
L 390.029339 230.361157 
L 390.679949 231.782778 
L 391.330559 233.475582 
L 391.98117 233.973893 
L 392.63178 222.679686 
L 396.535442 230.4977 
L 397.186052 230.989983 
L 397.836662 232.099996 
L 398.487273 233.745191 
L 398.487273 233.745191 
" clip-path="url(#pb1efd6eb96)" style="fill: none; stroke: #0000ff; stroke-width: 1.5; stroke-linecap: square"/>
   </g>
   <g id="line2d_12">
    <path d="M 73.832727 291.684107 
L 79.68822 291.661519 
L 80.33883 293.580257 
L 118.724839 293.567862 
L 125.881552 293.577957 
L 398.487273 293.56495 
L 398.487273 293.56495 
" clip-path="url(#pb1efd6eb96)" style="fill: none; stroke: #008000; stroke-width: 1.5; stroke-linecap: square"/>
   </g>
   <g id="line2d_13">
    <path d="M 73.832727 53.568 
L 74.483338 98.944366 
L 75.133948 160.956669 
L 75.784558 207.908788 
L 76.435169 234.424928 
L 77.085779 246.3194 
L 77.736389 249.298706 
L 78.386999 251.376003 
L 79.03761 250.700494 
L 79.68822 251.242203 
L 80.33883 170.291014 
L 80.989441 203.154987 
L 81.640051 228.262725 
L 82.290661 242.264829 
L 82.941272 247.766324 
L 83.591882 249.18709 
L 84.242492 248.669155 
L 84.893103 247.502822 
L 86.194323 246.708411 
L 86.844934 187.659635 
L 87.495544 216.92284 
L 88.146154 237.955248 
L 88.796764 247.934802 
L 89.447375 253.18528 
L 90.097985 255.34177 
L 90.748595 256.041236 
L 91.399206 255.963362 
L 92.049816 254.590555 
L 92.700426 254.72328 
L 93.351037 181.416753 
L 94.001647 213.774734 
L 94.652257 237.071272 
L 95.302868 249.28546 
L 95.953478 255.596898 
L 96.604088 257.589877 
L 97.254698 256.396713 
L 97.905309 257.102042 
L 98.555919 255.441574 
L 99.206529 256.251346 
L 99.85714 186.562823 
L 100.50775 217.275513 
L 101.15836 239.819141 
L 101.808971 252.110958 
L 102.459581 256.796296 
L 103.110191 257.763427 
L 103.760802 256.968556 
L 104.411412 258.45706 
L 105.062022 258.790245 
L 105.712633 258.784055 
L 106.363243 184.346982 
L 107.013853 216.316276 
L 107.664463 239.164689 
L 108.315074 251.966901 
L 108.965684 257.491043 
L 109.616294 258.033407 
L 110.266905 259.782989 
L 110.917515 258.701935 
L 111.568125 259.745555 
L 112.218736 257.2657 
L 112.869346 186.939611 
L 113.519956 218.452679 
L 114.170567 241.01393 
L 114.821177 253.23378 
L 115.471787 257.529399 
L 116.122398 259.145325 
L 116.773008 258.315764 
L 117.423618 258.525371 
L 118.074228 259.833659 
L 118.724839 259.619767 
L 119.375449 185.538644 
L 120.026059 216.537683 
L 120.67667 240.806136 
L 121.32728 253.0016 
L 121.97789 259.136212 
L 122.628501 259.153865 
L 123.279111 260.311076 
L 123.929721 258.876607 
L 124.580332 260.569812 
L 125.230942 260.04335 
L 125.881552 188.087368 
L 126.532163 219.648534 
L 127.182773 241.454891 
L 127.833383 253.52864 
L 128.483993 257.689559 
L 129.134604 258.792495 
L 129.785214 260.792433 
L 130.435824 260.323278 
L 131.086435 261.598561 
L 131.737045 260.229485 
L 132.387655 186.092523 
L 133.038266 217.278423 
L 133.688876 240.56002 
L 134.339486 253.792849 
L 134.990097 258.893749 
L 135.640707 261.004142 
L 136.291317 261.579327 
L 136.941927 261.668493 
L 137.592538 261.125225 
L 138.243148 261.688964 
L 138.893758 188.460433 
L 139.544369 219.261997 
L 140.845589 239.385799 
L 142.14681 251.767626 
L 142.79742 255.493857 
L 143.448031 257.149598 
L 144.098641 259.484101 
L 144.749251 259.983815 
L 145.399862 187.164975 
L 147.351692 234.401871 
L 148.652913 249.406426 
L 149.303523 253.31514 
L 150.604744 258.131079 
L 151.255354 258.50608 
L 151.905965 186.759775 
L 153.207185 219.959164 
L 153.857796 233.364254 
L 154.508406 243.387179 
L 155.159016 249.6246 
L 155.809627 252.35675 
L 156.460237 256.5764 
L 157.110847 258.709353 
L 157.761457 259.3536 
L 158.412068 187.89544 
L 159.713288 219.012902 
L 160.363899 232.271103 
L 161.014509 241.583064 
L 161.665119 248.585995 
L 162.96634 255.846993 
L 163.61695 257.592498 
L 164.267561 257.864952 
L 164.918171 188.049283 
L 166.219392 219.174136 
L 167.520612 240.861546 
L 168.171222 246.607453 
L 168.821833 251.321335 
L 170.123053 257.134517 
L 170.773664 256.737154 
L 171.424274 187.626102 
L 172.725495 216.665961 
L 174.026715 238.07049 
L 174.677326 245.346769 
L 175.978546 253.400099 
L 176.629156 254.777031 
L 177.279767 257.13464 
L 177.930377 188.253617 
L 179.231598 215.106092 
L 179.882208 227.458764 
L 181.183429 243.416238 
L 181.834039 248.482128 
L 182.484649 251.913483 
L 183.13526 254.072655 
L 183.78587 254.816208 
L 184.43648 187.528019 
L 186.388311 226.215344 
L 187.038921 234.656086 
L 187.689532 241.474148 
L 188.990752 251.410401 
L 189.641363 252.448525 
L 190.291973 255.462845 
L 190.942583 187.539989 
L 192.243804 214.174508 
L 193.545025 232.530813 
L 194.195635 240.206876 
L 194.846245 245.595969 
L 196.147466 251.340207 
L 196.798076 253.798747 
L 197.448686 188.664296 
L 200.051128 231.615148 
L 200.701738 237.872106 
L 201.352348 242.558797 
L 202.002959 248.38118 
L 202.653569 249.392822 
L 203.304179 252.314341 
L 203.95479 188.508907 
L 205.906621 220.831895 
L 207.207841 236.380614 
L 207.858451 241.702212 
L 209.159672 248.840139 
L 209.810282 251.532327 
L 210.460893 187.987922 
L 212.412724 219.676056 
L 213.713944 234.167079 
L 215.015165 243.844731 
L 216.316385 249.409248 
L 216.966996 188.963384 
L 218.918827 217.064005 
L 219.569437 225.75254 
L 220.220047 232.22858 
L 221.521268 241.974347 
L 222.822489 248.370031 
L 223.473099 188.941952 
L 225.42493 216.070082 
L 226.07554 224.826172 
L 226.72615 230.425104 
L 228.677981 243.971716 
L 229.328592 245.322253 
L 229.979202 188.435602 
L 231.931033 215.09428 
L 233.882864 233.496734 
L 235.834695 244.273085 
L 236.485305 188.355212 
L 238.437136 214.024772 
L 239.087746 219.494229 
L 239.738357 226.449655 
L 241.690188 240.035008 
L 242.340798 242.366371 
L 242.991408 187.495403 
L 243.642019 197.673691 
L 245.59385 218.796239 
L 246.24446 224.644231 
L 246.89507 228.654461 
L 248.196291 238.709897 
L 248.846901 240.674293 
L 249.497511 189.04256 
L 250.148122 197.468929 
L 250.798732 203.150347 
L 251.449342 210.853005 
L 252.750563 222.497317 
L 254.051784 231.549629 
L 254.702394 234.420839 
L 255.353004 239.044825 
L 256.003615 188.905081 
L 256.654225 195.081421 
L 257.304835 202.966685 
L 257.955445 208.835636 
L 258.606056 215.977268 
L 259.256666 220.020324 
L 259.907276 225.981461 
L 260.557887 230.056643 
L 261.859107 236.232729 
L 262.509718 188.63161 
L 263.160328 195.555112 
L 267.06399 228.147675 
L 267.7146 231.80968 
L 268.36521 234.161496 
L 269.015821 189.249672 
L 269.666431 194.829959 
L 270.317041 201.784617 
L 272.268872 217.461779 
L 272.919483 220.617408 
L 273.570093 225.815648 
L 274.220703 228.816849 
L 274.871314 232.531285 
L 275.521924 188.24668 
L 276.172534 195.116946 
L 277.473755 205.237045 
L 278.124365 209.060643 
L 279.425586 219.18995 
L 280.726806 226.504175 
L 281.377417 229.723987 
L 282.028027 188.45727 
L 283.979858 205.409979 
L 284.630468 208.957257 
L 285.281079 213.834338 
L 285.931689 216.699031 
L 286.582299 220.636184 
L 287.88352 227.366779 
L 288.53413 189.195642 
L 291.136571 208.098697 
L 291.787182 213.136935 
L 292.437792 215.485038 
L 293.088402 219.82256 
L 293.739013 222.595845 
L 294.389623 224.350586 
L 295.040233 188.705509 
L 298.293285 209.890597 
L 298.943895 214.015939 
L 300.245116 220.078863 
L 300.895726 223.72072 
L 301.546336 188.453601 
L 302.196947 192.320936 
L 302.847557 197.692677 
L 306.100608 215.668857 
L 306.751219 218.338355 
L 307.401829 222.010442 
L 308.052439 188.036238 
L 309.35366 196.978201 
L 310.00427 200.848516 
L 310.654881 203.793494 
L 311.305491 207.6593 
L 313.257322 215.922312 
L 313.907932 218.810201 
L 314.558543 188.935749 
L 315.859763 196.807199 
L 317.160984 201.934205 
L 317.811594 206.591452 
L 319.112815 212.580521 
L 319.763425 215.276291 
L 320.414035 217.266496 
L 321.064646 188.596837 
L 323.667087 201.382597 
L 324.317697 205.74156 
L 324.968308 207.622272 
L 326.269528 212.739283 
L 326.920138 214.365466 
L 327.570749 188.603162 
L 328.871969 195.159837 
L 331.474411 206.725436 
L 332.775631 211.265125 
L 333.426242 212.879618 
L 334.076852 188.823372 
L 334.727462 191.313794 
L 336.028683 198.097816 
L 336.679293 201.151326 
L 337.329903 202.280089 
L 337.980514 205.173299 
L 338.631124 207.055305 
L 339.932345 212.186933 
L 340.582955 188.803871 
L 341.233565 192.278203 
L 341.884176 194.103898 
L 342.534786 196.696299 
L 343.185396 198.410499 
L 343.836007 201.791956 
L 344.486617 202.914979 
L 345.137227 205.07921 
L 345.787837 208.373514 
L 346.438448 210.21677 
L 347.089058 188.957827 
L 347.739668 191.536992 
L 348.390279 193.455902 
L 349.040889 196.099573 
L 349.691499 198.22031 
L 350.34211 200.89311 
L 351.64333 204.091271 
L 352.293941 206.725174 
L 352.944551 208.836842 
L 353.595161 188.19514 
L 354.896382 193.965904 
L 357.498823 201.475507 
L 358.149433 202.46079 
L 358.800044 204.810308 
L 359.450654 206.408559 
L 360.101264 189.234042 
L 360.751875 190.33468 
L 361.402485 193.718312 
L 362.053095 194.993456 
L 364.655537 203.062933 
L 365.306147 203.147945 
L 365.956757 205.802143 
L 366.607367 188.332574 
L 367.257978 190.732043 
L 367.908588 192.579379 
L 368.559198 193.995121 
L 369.209809 196.667475 
L 369.860419 198.617219 
L 370.511029 200.032611 
L 371.16164 200.948285 
L 371.81225 203.36936 
L 372.46286 204.450331 
L 373.113471 189.070544 
L 373.764081 190.278771 
L 375.065302 193.936914 
L 375.715912 196.125592 
L 376.366522 197.070543 
L 377.017132 198.945865 
L 377.667743 200.187659 
L 378.968963 202.125547 
L 379.619574 189.120224 
L 380.270184 191.151651 
L 380.920794 192.682774 
L 381.571405 193.520679 
L 382.222015 195.241022 
L 382.872625 195.839146 
L 383.523236 198.572223 
L 384.173846 199.24311 
L 384.824456 201.015115 
L 385.475066 201.853614 
L 386.125677 188.652212 
L 386.776287 190.278326 
L 387.426897 191.371127 
L 388.077508 191.780547 
L 388.728118 193.88139 
L 389.378728 194.695312 
L 390.029339 196.562359 
L 390.679949 197.983981 
L 391.330559 199.676784 
L 391.98117 200.175087 
L 392.63178 188.880862 
L 396.535442 196.698867 
L 397.186052 197.19115 
L 397.836662 198.301163 
L 398.487273 199.946358 
L 398.487273 199.946358 
" clip-path="url(#pb1efd6eb96)" style="fill: none; stroke: #ff0000; stroke-width: 1.5; stroke-linecap: square"/>
   </g>
   <g id="patch_3">
    <path d="M 57.6 307.584 
L 57.6 41.472 
" style="fill: none; stroke: #000000; stroke-width: 0.8; stroke-linejoin: miter; stroke-linecap: square"/>
   </g>
   <g id="patch_4">
    <path d="M 414.72 307.584 
L 414.72 41.472 
" style="fill: none; stroke: #000000; stroke-width: 0.8; stroke-linejoin: miter; stroke-linecap: square"/>
   </g>
   <g id="patch_5">
    <path d="M 57.6 307.584 
L 414.72 307.584 
" style="fill: none; stroke: #000000; stroke-width: 0.8; stroke-linejoin: miter; stroke-linecap: square"/>
   </g>
   <g id="patch_6">
    <path d="M 57.6 41.472 
L 414.72 41.472 
" style="fill: none; stroke: #000000; stroke-width: 0.8; stroke-linejoin: miter; stroke-linecap: square"/>
   </g>
   <g id="text_13">
    <!-- The loss curve on λ_0.00025_non_iid/host/5 -->
    <g transform="translate(104.905313 35.472) scale(0.12 -0.12)">
     <defs>
      <path id="DejaVuSans-54" d="M -19 4666 
L 3928 4666 
L 3928 4134 
L 2272 4134 
L 2272 0 
L 1638 0 
L 1638 4134 
L -19 4134 
L -19 4666 
z
" transform="scale(0.015625)"/>
      <path id="DejaVuSans-72" d="M 2631 2963 
Q 2534 3019 2420 3045 
Q 2306 3072 2169 3072 
Q 1681 3072 1420 2755 
Q 1159 2438 1159 1844 
L 1159 0 
L 581 0 
L 581 3500 
L 1159 3500 
L 1159 2956 
Q 1341 3275 1631 3429 
Q 1922 3584 2338 3584 
Q 2397 3584 2469 3576 
Q 2541 3569 2628 3553 
L 2631 2963 
z
" transform="scale(0.015625)"/>
      <path id="DejaVuSans-6e" d="M 3513 2113 
L 3513 0 
L 2938 0 
L 2938 2094 
Q 2938 2591 2744 2837 
Q 2550 3084 2163 3084 
Q 1697 3084 1428 2787 
Q 1159 2491 1159 1978 
L 1159 0 
L 581 0 
L 581 3500 
L 1159 3500 
L 1159 2956 
Q 1366 3272 1645 3428 
Q 1925 3584 2291 3584 
Q 2894 3584 3203 3211 
Q 3513 2838 3513 2113 
z
" transform="scale(0.015625)"/>
      <path id="DejaVuSans-3bb" d="M 1981 4316 
L 3597 0 
L 2988 0 
L 2006 2588 
L 800 0 
L 191 0 
L 1725 3356 
L 1494 3975 
Q 1347 4369 1013 4369 
L 713 4369 
L 713 4863 
L 1078 4856 
Q 1784 4847 1981 4316 
z
" transform="scale(0.015625)"/>
      <path id="DejaVuSans-5f" d="M 3263 -1063 
L 3263 -1509 
L -63 -1509 
L -63 -1063 
L 3263 -1063 
z
" transform="scale(0.015625)"/>
      <path id="DejaVuSans-69" d="M 603 3500 
L 1178 3500 
L 1178 0 
L 603 0 
L 603 3500 
z
M 603 4863 
L 1178 4863 
L 1178 4134 
L 603 4134 
L 603 4863 
z
" transform="scale(0.015625)"/>
      <path id="DejaVuSans-64" d="M 2906 2969 
L 2906 4863 
L 3481 4863 
L 3481 0 
L 2906 0 
L 2906 525 
Q 2725 213 2448 61 
Q 2172 -91 1784 -91 
Q 1150 -91 751 415 
Q 353 922 353 1747 
Q 353 2572 751 3078 
Q 1150 3584 1784 3584 
Q 2172 3584 2448 3432 
Q 2725 3281 2906 2969 
z
M 947 1747 
Q 947 1113 1208 752 
Q 1469 391 1925 391 
Q 2381 391 2643 752 
Q 2906 1113 2906 1747 
Q 2906 2381 2643 2742 
Q 2381 3103 1925 3103 
Q 1469 3103 1208 2742 
Q 947 2381 947 1747 
z
" transform="scale(0.015625)"/>
      <path id="DejaVuSans-2f" d="M 1625 4666 
L 2156 4666 
L 531 -594 
L 0 -594 
L 1625 4666 
z
" transform="scale(0.015625)"/>
      <path id="DejaVuSans-74" d="M 1172 4494 
L 1172 3500 
L 2356 3500 
L 2356 3053 
L 1172 3053 
L 1172 1153 
Q 1172 725 1289 603 
Q 1406 481 1766 481 
L 2356 481 
L 2356 0 
L 1766 0 
Q 1100 0 847 248 
Q 594 497 594 1153 
L 594 3053 
L 172 3053 
L 172 3500 
L 594 3500 
L 594 4494 
L 1172 4494 
z
" transform="scale(0.015625)"/>
     </defs>
     <use xlink:href="#DejaVuSans-54"/>
     <use xlink:href="#DejaVuSans-68" x="61.083984"/>
     <use xlink:href="#DejaVuSans-65" x="124.462891"/>
     <use xlink:href="#DejaVuSans-20" x="185.986328"/>
     <use xlink:href="#DejaVuSans-6c" x="217.773438"/>
     <use xlink:href="#DejaVuSans-6f" x="245.556641"/>
     <use xlink:href="#DejaVuSans-73" x="306.738281"/>
     <use xlink:href="#DejaVuSans-73" x="358.837891"/>
     <use xlink:href="#DejaVuSans-20" x="410.9375"/>
     <use xlink:href="#DejaVuSans-63" x="442.724609"/>
     <use xlink:href="#DejaVuSans-75" x="497.705078"/>
     <use xlink:href="#DejaVuSans-72" x="561.083984"/>
     <use xlink:href="#DejaVuSans-76" x="602.197266"/>
     <use xlink:href="#DejaVuSans-65" x="661.376953"/>
     <use xlink:href="#DejaVuSans-20" x="722.900391"/>
     <use xlink:href="#DejaVuSans-6f" x="754.6875"/>
     <use xlink:href="#DejaVuSans-6e" x="815.869141"/>
     <use xlink:href="#DejaVuSans-20" x="879.248047"/>
     <use xlink:href="#DejaVuSans-3bb" x="911.035156"/>
     <use xlink:href="#DejaVuSans-5f" x="970.214844"/>
     <use xlink:href="#DejaVuSans-30" x="1020.214844"/>
     <use xlink:href="#DejaVuSans-2e" x="1083.837891"/>
     <use xlink:href="#DejaVuSans-30" x="1115.625"/>
     <use xlink:href="#DejaVuSans-30" x="1179.248047"/>
     <use xlink:href="#DejaVuSans-30" x="1242.871094"/>
     <use xlink:href="#DejaVuSans-32" x="1306.494141"/>
     <use xlink:href="#DejaVuSans-35" x="1370.117188"/>
     <use xlink:href="#DejaVuSans-5f" x="1433.740234"/>
     <use xlink:href="#DejaVuSans-6e" x="1483.740234"/>
     <use xlink:href="#DejaVuSans-6f" x="1547.119141"/>
     <use xlink:href="#DejaVuSans-6e" x="1608.300781"/>
     <use xlink:href="#DejaVuSans-5f" x="1671.679688"/>
     <use xlink:href="#DejaVuSans-69" x="1721.679688"/>
     <use xlink:href="#DejaVuSans-69" x="1749.462891"/>
     <use xlink:href="#DejaVuSans-64" x="1777.246094"/>
     <use xlink:href="#DejaVuSans-2f" x="1840.722656"/>
     <use xlink:href="#DejaVuSans-68" x="1874.414062"/>
     <use xlink:href="#DejaVuSans-6f" x="1937.792969"/>
     <use xlink:href="#DejaVuSans-73" x="1998.974609"/>
     <use xlink:href="#DejaVuSans-74" x="2051.074219"/>
     <use xlink:href="#DejaVuSans-2f" x="2090.283203"/>
     <use xlink:href="#DejaVuSans-35" x="2123.974609"/>
    </g>
   </g>
   <g id="legend_1">
    <g id="patch_7">
     <path d="M 317.418438 94.34075 
L 407.72 94.34075 
Q 409.72 94.34075 409.72 92.34075 
L 409.72 48.472 
Q 409.72 46.472 407.72 46.472 
L 317.418438 46.472 
Q 315.418438 46.472 315.418438 48.472 
L 315.418438 92.34075 
Q 315.418438 94.34075 317.418438 94.34075 
z
" style="fill: #ffffff; opacity: 0.8; stroke: #cccccc; stroke-linejoin: miter"/>
    </g>
    <g id="line2d_14">
     <path d="M 319.418438 54.570438 
L 329.418438 54.570438 
L 339.418438 54.570438 
" style="fill: none; stroke: #0000ff; stroke-width: 1.5; stroke-linecap: square"/>
    </g>
    <g id="text_14">
     <!-- obj_loss -->
     <g transform="translate(347.418438 58.070438) scale(0.1 -0.1)">
      <defs>
       <path id="DejaVuSans-62" d="M 3116 1747 
Q 3116 2381 2855 2742 
Q 2594 3103 2138 3103 
Q 1681 3103 1420 2742 
Q 1159 2381 1159 1747 
Q 1159 1113 1420 752 
Q 1681 391 2138 391 
Q 2594 391 2855 752 
Q 3116 1113 3116 1747 
z
M 1159 2969 
Q 1341 3281 1617 3432 
Q 1894 3584 2278 3584 
Q 2916 3584 3314 3078 
Q 3713 2572 3713 1747 
Q 3713 922 3314 415 
Q 2916 -91 2278 -91 
Q 1894 -91 1617 61 
Q 1341 213 1159 525 
L 1159 0 
L 581 0 
L 581 4863 
L 1159 4863 
L 1159 2969 
z
" transform="scale(0.015625)"/>
       <path id="DejaVuSans-6a" d="M 603 3500 
L 1178 3500 
L 1178 -63 
Q 1178 -731 923 -1031 
Q 669 -1331 103 -1331 
L -116 -1331 
L -116 -844 
L 38 -844 
Q 366 -844 484 -692 
Q 603 -541 603 -63 
L 603 3500 
z
M 603 4863 
L 1178 4863 
L 1178 4134 
L 603 4134 
L 603 4863 
z
" transform="scale(0.015625)"/>
      </defs>
      <use xlink:href="#DejaVuSans-6f"/>
      <use xlink:href="#DejaVuSans-62" x="61.181641"/>
      <use xlink:href="#DejaVuSans-6a" x="124.658203"/>
      <use xlink:href="#DejaVuSans-5f" x="152.441406"/>
      <use xlink:href="#DejaVuSans-6c" x="202.441406"/>
      <use xlink:href="#DejaVuSans-6f" x="230.224609"/>
      <use xlink:href="#DejaVuSans-73" x="291.40625"/>
      <use xlink:href="#DejaVuSans-73" x="343.505859"/>
     </g>
    </g>
    <g id="line2d_15">
     <path d="M 319.418438 69.526688 
L 329.418438 69.526688 
L 339.418438 69.526688 
" style="fill: none; stroke: #008000; stroke-width: 1.5; stroke-linecap: square"/>
    </g>
    <g id="text_15">
     <!-- reg_loss -->
     <g transform="translate(347.418438 73.026688) scale(0.1 -0.1)">
      <defs>
       <path id="DejaVuSans-67" d="M 2906 1791 
Q 2906 2416 2648 2759 
Q 2391 3103 1925 3103 
Q 1463 3103 1205 2759 
Q 947 2416 947 1791 
Q 947 1169 1205 825 
Q 1463 481 1925 481 
Q 2391 481 2648 825 
Q 2906 1169 2906 1791 
z
M 3481 434 
Q 3481 -459 3084 -895 
Q 2688 -1331 1869 -1331 
Q 1566 -1331 1297 -1286 
Q 1028 -1241 775 -1147 
L 775 -588 
Q 1028 -725 1275 -790 
Q 1522 -856 1778 -856 
Q 2344 -856 2625 -561 
Q 2906 -266 2906 331 
L 2906 616 
Q 2728 306 2450 153 
Q 2172 0 1784 0 
Q 1141 0 747 490 
Q 353 981 353 1791 
Q 353 2603 747 3093 
Q 1141 3584 1784 3584 
Q 2172 3584 2450 3431 
Q 2728 3278 2906 2969 
L 2906 3500 
L 3481 3500 
L 3481 434 
z
" transform="scale(0.015625)"/>
      </defs>
      <use xlink:href="#DejaVuSans-72"/>
      <use xlink:href="#DejaVuSans-65" x="38.863281"/>
      <use xlink:href="#DejaVuSans-67" x="100.386719"/>
      <use xlink:href="#DejaVuSans-5f" x="163.863281"/>
      <use xlink:href="#DejaVuSans-6c" x="213.863281"/>
      <use xlink:href="#DejaVuSans-6f" x="241.646484"/>
      <use xlink:href="#DejaVuSans-73" x="302.828125"/>
      <use xlink:href="#DejaVuSans-73" x="354.927734"/>
     </g>
    </g>
    <g id="line2d_16">
     <path d="M 319.418438 84.482938 
L 329.418438 84.482938 
L 339.418438 84.482938 
" style="fill: none; stroke: #ff0000; stroke-width: 1.5; stroke-linecap: square"/>
    </g>
    <g id="text_16">
     <!-- overall_loss -->
     <g transform="translate(347.418438 87.982938) scale(0.1 -0.1)">
      <use xlink:href="#DejaVuSans-6f"/>
      <use xlink:href="#DejaVuSans-76" x="61.181641"/>
      <use xlink:href="#DejaVuSans-65" x="120.361328"/>
      <use xlink:href="#DejaVuSans-72" x="181.884766"/>
      <use xlink:href="#DejaVuSans-61" x="222.998047"/>
      <use xlink:href="#DejaVuSans-6c" x="284.277344"/>
      <use xlink:href="#DejaVuSans-6c" x="312.060547"/>
      <use xlink:href="#DejaVuSans-5f" x="339.84375"/>
      <use xlink:href="#DejaVuSans-6c" x="389.84375"/>
      <use xlink:href="#DejaVuSans-6f" x="417.626953"/>
      <use xlink:href="#DejaVuSans-73" x="478.808594"/>
      <use xlink:href="#DejaVuSans-73" x="530.908203"/>
     </g>
    </g>
   </g>
  </g>
 </g>
 <defs>
  <clipPath id="pb1efd6eb96">
   <rect x="57.6" y="41.472" width="357.12" height="266.112"/>
  </clipPath>
 </defs>
</svg>
