<?xml version="1.0" encoding="utf-8" standalone="no"?>
<!DOCTYPE svg PUBLIC "-//W3C//DTD SVG 1.1//EN"
  "http://www.w3.org/Graphics/SVG/1.1/DTD/svg11.dtd">
<svg xmlns:xlink="http://www.w3.org/1999/xlink" width="576pt" height="432pt" viewBox="0 0 576 432" xmlns="http://www.w3.org/2000/svg" version="1.1">
 <metadata>
  <rdf:RDF xmlns:dc="http://purl.org/dc/elements/1.1/" xmlns:cc="http://creativecommons.org/ns#" xmlns:rdf="http://www.w3.org/1999/02/22-rdf-syntax-ns#">
   <cc:Work>
    <dc:type rdf:resource="http://purl.org/dc/dcmitype/StillImage"/>
    <dc:date>2023-04-13T09:22:57.218416</dc:date>
    <dc:format>image/svg+xml</dc:format>
    <dc:creator>
     <cc:Agent>
      <dc:title>Matplotlib v3.7.1, https://matplotlib.org/</dc:title>
     </cc:Agent>
    </dc:creator>
   </cc:Work>
  </rdf:RDF>
 </metadata>
 <defs>
  <style type="text/css">*{stroke-linejoin: round; stroke-linecap: butt}</style>
 </defs>
 <g id="figure_1">
  <g id="patch_1">
   <path d="M 0 432 
L 576 432 
L 576 0 
L 0 0 
z
" style="fill: #ffffff"/>
  </g>
  <g id="axes_1">
   <g id="patch_2">
    <path d="M 72 384.48 
L 518.4 384.48 
L 518.4 51.84 
L 72 51.84 
z
" style="fill: #ffffff"/>
   </g>
   <g id="matplotlib.axis_1">
    <g id="xtick_1">
     <g id="line2d_1">
      <defs>
       <path id="md636408734" d="M 0 0 
L 0 3.5 
" style="stroke: #000000; stroke-width: 0.8"/>
      </defs>
      <g>
       <use xlink:href="#md636408734" x="92.290909" y="384.48" style="stroke: #000000; stroke-width: 0.8"/>
      </g>
     </g>
     <g id="text_1">
      <!-- 0 -->
      <g transform="translate(89.109659 399.078438) scale(0.1 -0.1)">
       <defs>
        <path id="DejaVuSans-30" d="M 2034 4250 
Q 1547 4250 1301 3770 
Q 1056 3291 1056 2328 
Q 1056 1369 1301 889 
Q 1547 409 2034 409 
Q 2525 409 2770 889 
Q 3016 1369 3016 2328 
Q 3016 3291 2770 3770 
Q 2525 4250 2034 4250 
z
M 2034 4750 
Q 2819 4750 3233 4129 
Q 3647 3509 3647 2328 
Q 3647 1150 3233 529 
Q 2819 -91 2034 -91 
Q 1250 -91 836 529 
Q 422 1150 422 2328 
Q 422 3509 836 4129 
Q 1250 4750 2034 4750 
z
" transform="scale(0.015625)"/>
       </defs>
       <use xlink:href="#DejaVuSans-30"/>
      </g>
     </g>
    </g>
    <g id="xtick_2">
     <g id="line2d_2">
      <g>
       <use xlink:href="#md636408734" x="173.617198" y="384.48" style="stroke: #000000; stroke-width: 0.8"/>
      </g>
     </g>
     <g id="text_2">
      <!-- 100 -->
      <g transform="translate(164.073448 399.078438) scale(0.1 -0.1)">
       <defs>
        <path id="DejaVuSans-31" d="M 794 531 
L 1825 531 
L 1825 4091 
L 703 3866 
L 703 4441 
L 1819 4666 
L 2450 4666 
L 2450 531 
L 3481 531 
L 3481 0 
L 794 0 
L 794 531 
z
" transform="scale(0.015625)"/>
       </defs>
       <use xlink:href="#DejaVuSans-31"/>
       <use xlink:href="#DejaVuSans-30" x="63.623047"/>
       <use xlink:href="#DejaVuSans-30" x="127.246094"/>
      </g>
     </g>
    </g>
    <g id="xtick_3">
     <g id="line2d_3">
      <g>
       <use xlink:href="#md636408734" x="254.943487" y="384.48" style="stroke: #000000; stroke-width: 0.8"/>
      </g>
     </g>
     <g id="text_3">
      <!-- 200 -->
      <g transform="translate(245.399737 399.078438) scale(0.1 -0.1)">
       <defs>
        <path id="DejaVuSans-32" d="M 1228 531 
L 3431 531 
L 3431 0 
L 469 0 
L 469 531 
Q 828 903 1448 1529 
Q 2069 2156 2228 2338 
Q 2531 2678 2651 2914 
Q 2772 3150 2772 3378 
Q 2772 3750 2511 3984 
Q 2250 4219 1831 4219 
Q 1534 4219 1204 4116 
Q 875 4013 500 3803 
L 500 4441 
Q 881 4594 1212 4672 
Q 1544 4750 1819 4750 
Q 2544 4750 2975 4387 
Q 3406 4025 3406 3419 
Q 3406 3131 3298 2873 
Q 3191 2616 2906 2266 
Q 2828 2175 2409 1742 
Q 1991 1309 1228 531 
z
" transform="scale(0.015625)"/>
       </defs>
       <use xlink:href="#DejaVuSans-32"/>
       <use xlink:href="#DejaVuSans-30" x="63.623047"/>
       <use xlink:href="#DejaVuSans-30" x="127.246094"/>
      </g>
     </g>
    </g>
    <g id="xtick_4">
     <g id="line2d_4">
      <g>
       <use xlink:href="#md636408734" x="336.269776" y="384.48" style="stroke: #000000; stroke-width: 0.8"/>
      </g>
     </g>
     <g id="text_4">
      <!-- 300 -->
      <g transform="translate(326.726026 399.078438) scale(0.1 -0.1)">
       <defs>
        <path id="DejaVuSans-33" d="M 2597 2516 
Q 3050 2419 3304 2112 
Q 3559 1806 3559 1356 
Q 3559 666 3084 287 
Q 2609 -91 1734 -91 
Q 1441 -91 1130 -33 
Q 819 25 488 141 
L 488 750 
Q 750 597 1062 519 
Q 1375 441 1716 441 
Q 2309 441 2620 675 
Q 2931 909 2931 1356 
Q 2931 1769 2642 2001 
Q 2353 2234 1838 2234 
L 1294 2234 
L 1294 2753 
L 1863 2753 
Q 2328 2753 2575 2939 
Q 2822 3125 2822 3475 
Q 2822 3834 2567 4026 
Q 2313 4219 1838 4219 
Q 1578 4219 1281 4162 
Q 984 4106 628 3988 
L 628 4550 
Q 988 4650 1302 4700 
Q 1616 4750 1894 4750 
Q 2613 4750 3031 4423 
Q 3450 4097 3450 3541 
Q 3450 3153 3228 2886 
Q 3006 2619 2597 2516 
z
" transform="scale(0.015625)"/>
       </defs>
       <use xlink:href="#DejaVuSans-33"/>
       <use xlink:href="#DejaVuSans-30" x="63.623047"/>
       <use xlink:href="#DejaVuSans-30" x="127.246094"/>
      </g>
     </g>
    </g>
    <g id="xtick_5">
     <g id="line2d_5">
      <g>
       <use xlink:href="#md636408734" x="417.596065" y="384.48" style="stroke: #000000; stroke-width: 0.8"/>
      </g>
     </g>
     <g id="text_5">
      <!-- 400 -->
      <g transform="translate(408.052315 399.078438) scale(0.1 -0.1)">
       <defs>
        <path id="DejaVuSans-34" d="M 2419 4116 
L 825 1625 
L 2419 1625 
L 2419 4116 
z
M 2253 4666 
L 3047 4666 
L 3047 1625 
L 3713 1625 
L 3713 1100 
L 3047 1100 
L 3047 0 
L 2419 0 
L 2419 1100 
L 313 1100 
L 313 1709 
L 2253 4666 
z
" transform="scale(0.015625)"/>
       </defs>
       <use xlink:href="#DejaVuSans-34"/>
       <use xlink:href="#DejaVuSans-30" x="63.623047"/>
       <use xlink:href="#DejaVuSans-30" x="127.246094"/>
      </g>
     </g>
    </g>
    <g id="xtick_6">
     <g id="line2d_6">
      <g>
       <use xlink:href="#md636408734" x="498.922354" y="384.48" style="stroke: #000000; stroke-width: 0.8"/>
      </g>
     </g>
     <g id="text_6">
      <!-- 500 -->
      <g transform="translate(489.378604 399.078438) scale(0.1 -0.1)">
       <defs>
        <path id="DejaVuSans-35" d="M 691 4666 
L 3169 4666 
L 3169 4134 
L 1269 4134 
L 1269 2991 
Q 1406 3038 1543 3061 
Q 1681 3084 1819 3084 
Q 2600 3084 3056 2656 
Q 3513 2228 3513 1497 
Q 3513 744 3044 326 
Q 2575 -91 1722 -91 
Q 1428 -91 1123 -41 
Q 819 9 494 109 
L 494 744 
Q 775 591 1075 516 
Q 1375 441 1709 441 
Q 2250 441 2565 725 
Q 2881 1009 2881 1497 
Q 2881 1984 2565 2268 
Q 2250 2553 1709 2553 
Q 1456 2553 1204 2497 
Q 953 2441 691 2322 
L 691 4666 
z
" transform="scale(0.015625)"/>
       </defs>
       <use xlink:href="#DejaVuSans-35"/>
       <use xlink:href="#DejaVuSans-30" x="63.623047"/>
       <use xlink:href="#DejaVuSans-30" x="127.246094"/>
      </g>
     </g>
    </g>
    <g id="text_7">
     <!-- epoch -->
     <g transform="translate(279.971875 412.756563) scale(0.1 -0.1)">
      <defs>
       <path id="DejaVuSans-65" d="M 3597 1894 
L 3597 1613 
L 953 1613 
Q 991 1019 1311 708 
Q 1631 397 2203 397 
Q 2534 397 2845 478 
Q 3156 559 3463 722 
L 3463 178 
Q 3153 47 2828 -22 
Q 2503 -91 2169 -91 
Q 1331 -91 842 396 
Q 353 884 353 1716 
Q 353 2575 817 3079 
Q 1281 3584 2069 3584 
Q 2775 3584 3186 3129 
Q 3597 2675 3597 1894 
z
M 3022 2063 
Q 3016 2534 2758 2815 
Q 2500 3097 2075 3097 
Q 1594 3097 1305 2825 
Q 1016 2553 972 2059 
L 3022 2063 
z
" transform="scale(0.015625)"/>
       <path id="DejaVuSans-70" d="M 1159 525 
L 1159 -1331 
L 581 -1331 
L 581 3500 
L 1159 3500 
L 1159 2969 
Q 1341 3281 1617 3432 
Q 1894 3584 2278 3584 
Q 2916 3584 3314 3078 
Q 3713 2572 3713 1747 
Q 3713 922 3314 415 
Q 2916 -91 2278 -91 
Q 1894 -91 1617 61 
Q 1341 213 1159 525 
z
M 3116 1747 
Q 3116 2381 2855 2742 
Q 2594 3103 2138 3103 
Q 1681 3103 1420 2742 
Q 1159 2381 1159 1747 
Q 1159 1113 1420 752 
Q 1681 391 2138 391 
Q 2594 391 2855 752 
Q 3116 1113 3116 1747 
z
" transform="scale(0.015625)"/>
       <path id="DejaVuSans-6f" d="M 1959 3097 
Q 1497 3097 1228 2736 
Q 959 2375 959 1747 
Q 959 1119 1226 758 
Q 1494 397 1959 397 
Q 2419 397 2687 759 
Q 2956 1122 2956 1747 
Q 2956 2369 2687 2733 
Q 2419 3097 1959 3097 
z
M 1959 3584 
Q 2709 3584 3137 3096 
Q 3566 2609 3566 1747 
Q 3566 888 3137 398 
Q 2709 -91 1959 -91 
Q 1206 -91 779 398 
Q 353 888 353 1747 
Q 353 2609 779 3096 
Q 1206 3584 1959 3584 
z
" transform="scale(0.015625)"/>
       <path id="DejaVuSans-63" d="M 3122 3366 
L 3122 2828 
Q 2878 2963 2633 3030 
Q 2388 3097 2138 3097 
Q 1578 3097 1268 2742 
Q 959 2388 959 1747 
Q 959 1106 1268 751 
Q 1578 397 2138 397 
Q 2388 397 2633 464 
Q 2878 531 3122 666 
L 3122 134 
Q 2881 22 2623 -34 
Q 2366 -91 2075 -91 
Q 1284 -91 818 406 
Q 353 903 353 1747 
Q 353 2603 823 3093 
Q 1294 3584 2113 3584 
Q 2378 3584 2631 3529 
Q 2884 3475 3122 3366 
z
" transform="scale(0.015625)"/>
       <path id="DejaVuSans-68" d="M 3513 2113 
L 3513 0 
L 2938 0 
L 2938 2094 
Q 2938 2591 2744 2837 
Q 2550 3084 2163 3084 
Q 1697 3084 1428 2787 
Q 1159 2491 1159 1978 
L 1159 0 
L 581 0 
L 581 4863 
L 1159 4863 
L 1159 2956 
Q 1366 3272 1645 3428 
Q 1925 3584 2291 3584 
Q 2894 3584 3203 3211 
Q 3513 2838 3513 2113 
z
" transform="scale(0.015625)"/>
      </defs>
      <use xlink:href="#DejaVuSans-65"/>
      <use xlink:href="#DejaVuSans-70" x="61.523438"/>
      <use xlink:href="#DejaVuSans-6f" x="125"/>
      <use xlink:href="#DejaVuSans-63" x="186.181641"/>
      <use xlink:href="#DejaVuSans-68" x="241.162109"/>
     </g>
    </g>
   </g>
   <g id="matplotlib.axis_2">
    <g id="ytick_1">
     <g id="line2d_7">
      <defs>
       <path id="md1da35a334" d="M 0 0 
L -3.5 0 
" style="stroke: #000000; stroke-width: 0.8"/>
      </defs>
      <g>
       <use xlink:href="#md1da35a334" x="72" y="384.48" style="stroke: #000000; stroke-width: 0.8"/>
      </g>
     </g>
     <g id="text_8">
      <!-- 0.0 -->
      <g transform="translate(49.096875 388.279219) scale(0.1 -0.1)">
       <defs>
        <path id="DejaVuSans-2e" d="M 684 794 
L 1344 794 
L 1344 0 
L 684 0 
L 684 794 
z
" transform="scale(0.015625)"/>
       </defs>
       <use xlink:href="#DejaVuSans-30"/>
       <use xlink:href="#DejaVuSans-2e" x="63.623047"/>
       <use xlink:href="#DejaVuSans-30" x="95.410156"/>
      </g>
     </g>
    </g>
    <g id="ytick_2">
     <g id="line2d_8">
      <g>
       <use xlink:href="#md1da35a334" x="72" y="317.952" style="stroke: #000000; stroke-width: 0.8"/>
      </g>
     </g>
     <g id="text_9">
      <!-- 0.2 -->
      <g transform="translate(49.096875 321.751219) scale(0.1 -0.1)">
       <use xlink:href="#DejaVuSans-30"/>
       <use xlink:href="#DejaVuSans-2e" x="63.623047"/>
       <use xlink:href="#DejaVuSans-32" x="95.410156"/>
      </g>
     </g>
    </g>
    <g id="ytick_3">
     <g id="line2d_9">
      <g>
       <use xlink:href="#md1da35a334" x="72" y="251.424" style="stroke: #000000; stroke-width: 0.8"/>
      </g>
     </g>
     <g id="text_10">
      <!-- 0.4 -->
      <g transform="translate(49.096875 255.223219) scale(0.1 -0.1)">
       <use xlink:href="#DejaVuSans-30"/>
       <use xlink:href="#DejaVuSans-2e" x="63.623047"/>
       <use xlink:href="#DejaVuSans-34" x="95.410156"/>
      </g>
     </g>
    </g>
    <g id="ytick_4">
     <g id="line2d_10">
      <g>
       <use xlink:href="#md1da35a334" x="72" y="184.896" style="stroke: #000000; stroke-width: 0.8"/>
      </g>
     </g>
     <g id="text_11">
      <!-- 0.6 -->
      <g transform="translate(49.096875 188.695219) scale(0.1 -0.1)">
       <defs>
        <path id="DejaVuSans-36" d="M 2113 2584 
Q 1688 2584 1439 2293 
Q 1191 2003 1191 1497 
Q 1191 994 1439 701 
Q 1688 409 2113 409 
Q 2538 409 2786 701 
Q 3034 994 3034 1497 
Q 3034 2003 2786 2293 
Q 2538 2584 2113 2584 
z
M 3366 4563 
L 3366 3988 
Q 3128 4100 2886 4159 
Q 2644 4219 2406 4219 
Q 1781 4219 1451 3797 
Q 1122 3375 1075 2522 
Q 1259 2794 1537 2939 
Q 1816 3084 2150 3084 
Q 2853 3084 3261 2657 
Q 3669 2231 3669 1497 
Q 3669 778 3244 343 
Q 2819 -91 2113 -91 
Q 1303 -91 875 529 
Q 447 1150 447 2328 
Q 447 3434 972 4092 
Q 1497 4750 2381 4750 
Q 2619 4750 2861 4703 
Q 3103 4656 3366 4563 
z
" transform="scale(0.015625)"/>
       </defs>
       <use xlink:href="#DejaVuSans-30"/>
       <use xlink:href="#DejaVuSans-2e" x="63.623047"/>
       <use xlink:href="#DejaVuSans-36" x="95.410156"/>
      </g>
     </g>
    </g>
    <g id="ytick_5">
     <g id="line2d_11">
      <g>
       <use xlink:href="#md1da35a334" x="72" y="118.368" style="stroke: #000000; stroke-width: 0.8"/>
      </g>
     </g>
     <g id="text_12">
      <!-- 0.8 -->
      <g transform="translate(49.096875 122.167219) scale(0.1 -0.1)">
       <defs>
        <path id="DejaVuSans-38" d="M 2034 2216 
Q 1584 2216 1326 1975 
Q 1069 1734 1069 1313 
Q 1069 891 1326 650 
Q 1584 409 2034 409 
Q 2484 409 2743 651 
Q 3003 894 3003 1313 
Q 3003 1734 2745 1975 
Q 2488 2216 2034 2216 
z
M 1403 2484 
Q 997 2584 770 2862 
Q 544 3141 544 3541 
Q 544 4100 942 4425 
Q 1341 4750 2034 4750 
Q 2731 4750 3128 4425 
Q 3525 4100 3525 3541 
Q 3525 3141 3298 2862 
Q 3072 2584 2669 2484 
Q 3125 2378 3379 2068 
Q 3634 1759 3634 1313 
Q 3634 634 3220 271 
Q 2806 -91 2034 -91 
Q 1263 -91 848 271 
Q 434 634 434 1313 
Q 434 1759 690 2068 
Q 947 2378 1403 2484 
z
M 1172 3481 
Q 1172 3119 1398 2916 
Q 1625 2713 2034 2713 
Q 2441 2713 2670 2916 
Q 2900 3119 2900 3481 
Q 2900 3844 2670 4047 
Q 2441 4250 2034 4250 
Q 1625 4250 1398 4047 
Q 1172 3844 1172 3481 
z
" transform="scale(0.015625)"/>
       </defs>
       <use xlink:href="#DejaVuSans-30"/>
       <use xlink:href="#DejaVuSans-2e" x="63.623047"/>
       <use xlink:href="#DejaVuSans-38" x="95.410156"/>
      </g>
     </g>
    </g>
    <g id="ytick_6">
     <g id="line2d_12">
      <g>
       <use xlink:href="#md1da35a334" x="72" y="51.84" style="stroke: #000000; stroke-width: 0.8"/>
      </g>
     </g>
     <g id="text_13">
      <!-- 1.0 -->
      <g transform="translate(49.096875 55.639219) scale(0.1 -0.1)">
       <use xlink:href="#DejaVuSans-31"/>
       <use xlink:href="#DejaVuSans-2e" x="63.623047"/>
       <use xlink:href="#DejaVuSans-30" x="95.410156"/>
      </g>
     </g>
    </g>
    <g id="text_14">
     <!-- rate -->
     <g transform="translate(43.017187 228.31625) rotate(-90) scale(0.1 -0.1)">
      <defs>
       <path id="DejaVuSans-72" d="M 2631 2963 
Q 2534 3019 2420 3045 
Q 2306 3072 2169 3072 
Q 1681 3072 1420 2755 
Q 1159 2438 1159 1844 
L 1159 0 
L 581 0 
L 581 3500 
L 1159 3500 
L 1159 2956 
Q 1341 3275 1631 3429 
Q 1922 3584 2338 3584 
Q 2397 3584 2469 3576 
Q 2541 3569 2628 3553 
L 2631 2963 
z
" transform="scale(0.015625)"/>
       <path id="DejaVuSans-61" d="M 2194 1759 
Q 1497 1759 1228 1600 
Q 959 1441 959 1056 
Q 959 750 1161 570 
Q 1363 391 1709 391 
Q 2188 391 2477 730 
Q 2766 1069 2766 1631 
L 2766 1759 
L 2194 1759 
z
M 3341 1997 
L 3341 0 
L 2766 0 
L 2766 531 
Q 2569 213 2275 61 
Q 1981 -91 1556 -91 
Q 1019 -91 701 211 
Q 384 513 384 1019 
Q 384 1609 779 1909 
Q 1175 2209 1959 2209 
L 2766 2209 
L 2766 2266 
Q 2766 2663 2505 2880 
Q 2244 3097 1772 3097 
Q 1472 3097 1187 3025 
Q 903 2953 641 2809 
L 641 3341 
Q 956 3463 1253 3523 
Q 1550 3584 1831 3584 
Q 2591 3584 2966 3190 
Q 3341 2797 3341 1997 
z
" transform="scale(0.015625)"/>
       <path id="DejaVuSans-74" d="M 1172 4494 
L 1172 3500 
L 2356 3500 
L 2356 3053 
L 1172 3053 
L 1172 1153 
Q 1172 725 1289 603 
Q 1406 481 1766 481 
L 2356 481 
L 2356 0 
L 1766 0 
Q 1100 0 847 248 
Q 594 497 594 1153 
L 594 3053 
L 172 3053 
L 172 3500 
L 594 3500 
L 594 4494 
L 1172 4494 
z
" transform="scale(0.015625)"/>
      </defs>
      <use xlink:href="#DejaVuSans-72"/>
      <use xlink:href="#DejaVuSans-61" x="41.113281"/>
      <use xlink:href="#DejaVuSans-74" x="102.392578"/>
      <use xlink:href="#DejaVuSans-65" x="141.601562"/>
     </g>
    </g>
   </g>
   <g id="line2d_13">
    <path d="M 92.290909 365.20837 
L 93.104172 356.303815 
L 93.917435 317.951999 
L 94.730698 204.111162 
L 95.543961 147.361629 
L 96.357224 136.171273 
L 97.170486 135.58979 
L 97.983749 122.436256 
L 98.797012 134.720005 
L 99.610275 130.653668 
L 100.423538 298.516855 
L 101.236801 266.892699 
L 102.050064 193.366951 
L 102.863327 157.679998 
L 103.67659 136.848005 
L 104.489852 129.665199 
L 105.303115 141.877888 
L 106.116378 156.451167 
L 106.929641 162.344135 
L 107.742904 163.807062 
L 108.556167 277.059591 
L 110.182693 146.006461 
L 110.995956 135.94144 
L 111.809218 132.336515 
L 112.622481 130.24 
L 113.435744 131.039995 
L 114.249007 137.648416 
L 115.06227 148.075476 
L 115.875533 143.113163 
L 116.688796 291.806404 
L 117.502059 247.978323 
L 118.315322 170.79037 
L 119.128584 143.846817 
L 119.941847 124.680878 
L 120.75511 121.809111 
L 121.568373 126.397232 
L 122.381636 124.715198 
L 123.194899 126.141029 
L 124.008162 128.769777 
L 124.821425 282.092934 
L 125.634688 218.553187 
L 126.44795 165.290074 
L 127.261213 131.673603 
L 128.074476 120.944798 
L 128.887739 124.103181 
L 129.701002 137.717652 
L 130.514265 127.744429 
L 131.327528 129.853296 
L 132.140791 121.279991 
L 132.954054 287.57268 
L 133.767316 236.406071 
L 134.580579 168.212517 
L 135.393842 128.512345 
L 136.207105 122.051217 
L 137.020368 127.544277 
L 137.833631 119.051508 
L 138.646894 122.227994 
L 139.460157 119.051508 
L 140.27342 127.744429 
L 141.086682 282.67058 
L 142.713208 155.376946 
L 143.526471 131.206739 
L 144.339734 125.504229 
L 145.152997 118.367996 
L 145.96626 123.85485 
L 146.779523 131.144899 
L 147.592786 117.259197 
L 148.406048 119.267026 
L 149.219311 286.138204 
L 150.032574 238.866509 
L 150.845837 163.718912 
L 151.6591 129.225002 
L 152.472363 114.357453 
L 153.285626 118.367996 
L 154.098889 117.675007 
L 154.912152 123.519993 
L 156.538677 111.715202 
L 157.35194 280.268305 
L 158.978466 166.090208 
L 159.791729 123.85485 
L 160.604992 121.931998 
L 161.418255 119.282472 
L 162.231518 110.610309 
L 163.04478 112.745923 
L 163.858043 106.352901 
L 164.671306 111.280815 
L 165.484569 285.734608 
L 166.297832 241.919999 
L 167.111095 164.055909 
L 167.924358 133.302858 
L 168.737621 111.602447 
L 169.550884 114.926901 
L 170.364146 108.411428 
L 171.177409 110.08 
L 171.990672 108.388806 
L 172.803935 102.844791 
L 173.617198 280.014541 
L 174.430461 227.439658 
L 176.056987 166.029855 
L 176.87025 144.419418 
L 177.683512 126.002359 
L 178.496775 123.911991 
L 180.123301 106.124991 
L 180.936564 106.897665 
L 181.749827 283.260004 
L 182.56309 260.792659 
L 183.376353 216.04576 
L 184.189616 151.536141 
L 185.002878 141.684893 
L 185.816141 129.198137 
L 186.629404 120.425571 
L 187.442667 114.985212 
L 188.25593 105.155119 
L 189.069193 111.452912 
L 189.882456 282.93286 
L 190.695719 261.260415 
L 191.508982 218.513117 
L 192.322244 164.032196 
L 193.135507 133.43094 
L 193.94877 124.806203 
L 195.575296 110.674291 
L 196.388559 108.259514 
L 197.201822 109.938079 
L 198.015085 282.061895 
L 198.828348 254.806783 
L 199.64161 215.531926 
L 200.454873 167.877205 
L 201.268136 136.859802 
L 202.081399 129.198137 
L 202.894662 113.483087 
L 203.707925 116.259724 
L 204.521188 114.866528 
L 205.334451 113.754735 
L 206.147714 283.924284 
L 206.960976 256.258577 
L 207.774239 212.330221 
L 208.587502 181.104258 
L 209.400765 140.813621 
L 210.214028 126.769145 
L 211.027291 119.749197 
L 211.840554 117.447196 
L 212.653817 113.699378 
L 213.46708 112.645163 
L 214.280343 284.644972 
L 215.093605 258.323964 
L 215.906868 223.412212 
L 216.720131 180.118723 
L 217.533394 154.656001 
L 218.346657 133.688332 
L 219.15992 129.456005 
L 219.973183 115.416248 
L 220.786446 116.519991 
L 221.599709 116.745363 
L 222.412971 282.736178 
L 223.226234 261.260415 
L 224.039497 228.410333 
L 224.85276 181.248241 
L 226.479286 132.894682 
L 227.292549 107.851537 
L 228.105812 113.994184 
L 228.919075 113.268302 
L 229.732337 120.013568 
L 230.5456 283.874598 
L 231.358863 264.290737 
L 233.798652 153.424672 
L 234.611915 132.811587 
L 235.425178 119.495591 
L 236.238441 111.602447 
L 237.051703 117.447196 
L 237.864966 106.889576 
L 238.678229 284.261539 
L 239.491492 261.242888 
L 240.304755 231.645407 
L 241.118018 188.618986 
L 241.931281 157.636676 
L 242.744544 140.958496 
L 243.557807 128.093026 
L 245.184332 109.993852 
L 245.997595 115.809237 
L 246.810858 281.695543 
L 247.624121 262.7946 
L 248.437384 237.945282 
L 249.250647 206.280006 
L 250.06391 169.873555 
L 250.877173 155.10734 
L 251.690435 142.845282 
L 252.503698 119.749197 
L 253.316961 112.423915 
L 254.130224 119.515041 
L 254.943487 280.954286 
L 255.75675 267.76421 
L 256.570013 248.239145 
L 257.383276 207.527672 
L 258.196539 185.419838 
L 259.009801 148.860007 
L 259.823064 131.138079 
L 260.636327 131.360001 
L 261.44959 110.403376 
L 262.262853 114.866528 
L 263.076116 279.996924 
L 263.889379 271.997687 
L 264.702642 247.682535 
L 265.515905 213.184621 
L 267.14243 157.240456 
L 267.955693 140.406694 
L 268.768956 130.828085 
L 269.582219 125.02081 
L 270.395482 125.882784 
L 271.208745 281.734057 
L 272.022008 268.031436 
L 272.835271 236.971782 
L 273.648533 220.886554 
L 275.275059 157.592601 
L 276.088322 144.575991 
L 276.901585 127.780316 
L 277.714848 127.686257 
L 278.528111 117.200847 
L 279.341374 282.875134 
L 280.154637 267.300003 
L 280.967899 249.043949 
L 282.594425 196.089104 
L 283.407688 163.644006 
L 284.220951 150.624005 
L 285.034214 135.263995 
L 285.847477 126.602738 
L 286.66074 122.56745 
L 287.474003 282.816367 
L 288.287265 268.861539 
L 289.100528 248.899014 
L 289.913791 224.995072 
L 290.727054 205.366145 
L 291.540317 175.040006 
L 292.35358 157.547753 
L 293.166843 145.846954 
L 293.980106 139.431726 
L 294.793369 121.750781 
L 295.606631 281.968302 
L 296.419894 269.208717 
L 297.233157 252.488444 
L 298.04642 232.202027 
L 299.672946 180.631387 
L 300.486209 171.156513 
L 301.299472 156.040473 
L 302.112735 133.128223 
L 302.925997 134.456466 
L 303.73926 281.765582 
L 304.552523 268.696609 
L 306.179049 236.023997 
L 308.618838 173.560226 
L 309.432101 166.636954 
L 310.245363 139.922243 
L 311.058626 133.92001 
L 311.871889 280.371296 
L 312.685152 268.901698 
L 313.498415 260.514785 
L 314.311678 235.033039 
L 315.938204 195.726133 
L 317.564729 163.034111 
L 318.377992 153.034697 
L 319.191255 141.436542 
L 320.004518 280.163431 
L 320.817781 273.136067 
L 321.631044 257.661002 
L 322.444307 247.545155 
L 325.697358 164.508379 
L 326.510621 160.289752 
L 327.323884 145.868942 
L 328.137147 279.829209 
L 328.95041 273.905876 
L 329.763673 263.706092 
L 330.576936 245.355186 
L 331.390199 237.000937 
L 332.203461 208.113834 
L 333.829987 174.907879 
L 334.64325 151.064995 
L 335.456513 154.339544 
L 336.269776 281.091894 
L 337.896302 264.360002 
L 339.522827 231.711996 
L 340.33609 211.30517 
L 341.149353 202.759999 
L 341.962616 179.511227 
L 342.775879 180.40086 
L 343.589142 155.669829 
L 344.402405 285.271581 
L 345.215668 273.003069 
L 346.028931 263.564151 
L 346.842193 259.281642 
L 347.655456 243.396854 
L 349.281982 207.527672 
L 350.095245 196.977745 
L 350.908508 181.587023 
L 351.721771 168.966752 
L 352.535034 282.642912 
L 353.348297 275.639847 
L 354.161559 262.90105 
L 355.788085 245.500279 
L 356.601348 233.221734 
L 357.414611 223.051769 
L 358.227874 202.115011 
L 359.041137 184.217139 
L 359.8544 179.252228 
L 360.667663 282.946204 
L 361.480925 280.166246 
L 362.294188 264.20339 
L 363.107451 258.815998 
L 363.920714 247.609582 
L 364.733977 232.781538 
L 365.54724 229.653657 
L 366.360503 210.928697 
L 367.173766 195.070874 
L 367.987029 191.200407 
L 368.800291 281.246901 
L 369.613554 273.1529 
L 370.426817 271.720675 
L 371.24008 260.870579 
L 372.053343 247.637855 
L 372.866606 240.036325 
L 373.679869 228.457481 
L 374.493132 218.505781 
L 375.306395 212.112006 
L 376.119657 190.914424 
L 376.93292 284.34857 
L 377.746183 279.834215 
L 379.372709 264.195003 
L 380.185972 255.03158 
L 380.999235 248.245193 
L 382.625761 225.187601 
L 383.439024 210.712842 
L 384.252286 199.173692 
L 385.065549 283.278869 
L 386.692075 269.841354 
L 387.505338 261.015464 
L 388.318601 261.081289 
L 389.131864 248.939084 
L 389.945127 244.202986 
L 390.75839 237.131864 
L 391.571652 220.580457 
L 392.384915 214.156674 
L 393.198178 279.208716 
L 394.011441 276.178603 
L 394.824704 272.190513 
L 395.637967 265.058375 
L 396.45123 259.232927 
L 397.264493 247.573507 
L 398.077756 240.931717 
L 400.517544 217.802323 
L 401.330807 281.968302 
L 402.14407 280.148035 
L 402.957333 276.65876 
L 403.770596 269.279995 
L 404.583859 265.60865 
L 405.397122 255.972019 
L 406.210384 248.224473 
L 407.023647 244.231784 
L 407.83691 232.93701 
L 408.650173 230.902256 
L 409.463436 283.590459 
L 410.276699 279.887014 
L 411.089962 274.19294 
L 411.903225 264.294286 
L 412.716488 263.204997 
L 413.52975 257.858845 
L 414.343013 249.187763 
L 415.156276 239.134638 
L 415.969539 233.163919 
L 416.782802 233.802384 
L 417.596065 279.972418 
L 418.409328 281.797355 
L 419.222591 273.143701 
L 420.035854 267.492205 
L 420.849116 258.046694 
L 421.662379 257.17333 
L 422.475642 249.698801 
L 423.288905 245.594228 
L 424.102168 239.544004 
L 424.915431 234.371694 
L 425.728694 278.827594 
L 426.541957 275.165696 
L 427.35522 275.268509 
L 428.168482 270.952582 
L 428.981745 268.420202 
L 431.421534 251.313493 
L 432.234797 248.878007 
L 433.04806 238.543797 
L 433.861323 280.399896 
L 434.674586 275.981315 
L 435.487848 273.599997 
L 436.301111 274.205074 
L 437.114374 271.8576 
L 437.927637 262.414737 
L 438.7409 260.057409 
L 439.554163 256.138584 
L 440.367426 247.08522 
L 441.180689 242.584616 
L 441.993952 280.53 
L 442.807214 275.740537 
L 443.620477 274.64183 
L 444.43374 268.496734 
L 445.247003 268.496734 
L 446.060266 262.947773 
L 446.873529 263.519996 
L 448.500055 255.817359 
L 449.313318 249.641006 
L 450.12658 277.665133 
L 450.939843 278.934927 
L 451.753106 277.388281 
L 453.379632 268.056002 
L 454.192895 268.946566 
L 455.006158 261.503998 
L 455.819421 260.884408 
L 456.632684 258.287998 
L 457.445946 249.097104 
L 458.259209 281.159999 
L 459.072472 279.593517 
L 459.885735 276.525593 
L 460.698998 278.943611 
L 461.512261 266.996344 
L 462.325524 266.884729 
L 463.138787 263.345203 
L 463.95205 262.782436 
L 465.578575 257.386419 
L 466.391838 279.101681 
L 467.205101 278.943611 
L 468.018364 280.885149 
L 468.831627 271.942826 
L 469.64489 274.358415 
L 470.458153 273.134114 
L 471.271416 268.654268 
L 472.084678 266.305268 
L 472.897941 260.999999 
L 473.711204 260.596641 
L 474.524467 285.575606 
L 475.33773 279.261367 
L 476.150993 277.35864 
L 476.964256 274.935903 
L 477.777519 267.707078 
L 478.590782 271.908347 
L 480.217307 259.925352 
L 481.03057 265.538988 
L 481.843833 257.585937 
L 482.657096 280.504612 
L 483.470359 278.408572 
L 484.283622 280.863528 
L 485.096885 279.388913 
L 485.910148 276.474103 
L 486.72341 276.29344 
L 487.536673 268.465179 
L 488.349936 267.722405 
L 489.163199 260.114599 
L 490.789725 278.777273 
L 491.602988 282.946204 
L 492.416251 277.051521 
L 493.229514 278.65971 
L 494.042776 277.004858 
L 494.856039 270.804703 
L 495.669302 267.386894 
L 496.482565 271.210341 
L 497.295828 266.539622 
L 498.109091 263.909912 
L 498.109091 263.909912 
" clip-path="url(#p645ed3e887)" style="fill: none; stroke: #0000ff; stroke-width: 1.5; stroke-linecap: square"/>
   </g>
   <g id="line2d_14">
    <path d="M 92.290909 252.859851 
L 93.104172 244.882879 
L 93.917435 228.928925 
L 94.730698 225.738134 
L 95.543961 216.165752 
L 96.357224 215.368057 
L 97.170486 216.165752 
L 97.983749 209.78417 
L 98.797012 206.593389 
L 99.610275 209.78417 
L 100.423538 237.703593 
L 101.236801 235.310507 
L 102.050064 236.905897 
L 102.863327 228.928925 
L 103.67659 224.142734 
L 104.489852 222.547334 
L 105.303115 229.72662 
L 106.116378 229.72662 
L 106.929641 227.333525 
L 107.742904 222.547334 
L 108.556167 219.356543 
L 109.36943 233.715106 
L 110.182693 228.928925 
L 110.995956 226.53583 
L 112.622481 203.402589 
L 113.435744 193.032511 
L 115.06227 204.200284 
L 115.875533 194.627921 
L 116.688796 219.356543 
L 117.502059 220.154248 
L 118.315322 222.547334 
L 119.128584 221.749638 
L 119.941847 213.772666 
L 120.75511 201.807198 
L 122.381636 208.18878 
L 123.194899 204.200284 
L 124.008162 196.223312 
L 124.821425 211.379561 
L 125.634688 216.165752 
L 126.44795 225.738134 
L 127.261213 217.761142 
L 128.074476 204.997979 
L 128.887739 203.402589 
L 129.701002 203.402589 
L 130.514265 201.009503 
L 131.327528 197.021007 
L 132.140791 197.021007 
L 132.954054 212.974971 
L 133.767316 216.165752 
L 134.580579 216.963447 
L 135.393842 211.379561 
L 136.207105 202.604894 
L 137.020368 205.795674 
L 137.833631 198.616398 
L 138.646894 200.211808 
L 139.460157 198.616398 
L 140.27342 201.009503 
L 141.086682 211.379561 
L 141.899945 213.772666 
L 142.713208 218.558848 
L 144.339734 204.997979 
L 145.152997 202.604894 
L 145.96626 202.604894 
L 146.779523 201.009503 
L 147.592786 192.234816 
L 148.406048 196.223312 
L 149.219311 211.379561 
L 150.032574 210.581866 
L 150.845837 208.18878 
L 151.6591 208.18878 
L 152.472363 201.807198 
L 153.285626 202.604894 
L 154.098889 200.211808 
L 154.912152 198.616398 
L 155.725414 193.830206 
L 156.538677 188.24634 
L 157.35194 205.795674 
L 158.165203 209.78417 
L 158.978466 212.177276 
L 159.791729 202.604894 
L 160.604992 208.18878 
L 161.418255 199.414093 
L 162.231518 198.616398 
L 163.04478 199.414093 
L 163.858043 185.055539 
L 164.671306 193.830206 
L 165.484569 211.379561 
L 166.297832 219.356543 
L 167.111095 208.986475 
L 167.924358 207.391085 
L 168.737621 191.437121 
L 169.550884 197.021007 
L 170.364146 189.84173 
L 171.177409 189.044035 
L 171.990672 185.853234 
L 172.803935 181.864738 
L 173.617198 202.604894 
L 174.430461 208.986475 
L 175.243724 203.402589 
L 176.056987 208.986475 
L 176.87025 206.593389 
L 177.683512 195.425617 
L 178.496775 197.021007 
L 179.310038 202.604894 
L 180.123301 192.234816 
L 180.936564 191.437121 
L 181.749827 192.234816 
L 182.56309 197.021007 
L 184.189616 190.639425 
L 185.002878 203.402589 
L 185.816141 200.211808 
L 186.629404 200.211808 
L 187.442667 193.830206 
L 188.25593 192.234816 
L 189.069193 201.807198 
L 189.882456 190.639425 
L 190.695719 198.616398 
L 191.508982 197.021007 
L 192.322244 205.795674 
L 193.135507 193.032511 
L 193.94877 191.437121 
L 194.762033 195.425617 
L 195.575296 191.437121 
L 196.388559 197.021007 
L 197.201822 192.234816 
L 198.015085 197.818702 
L 198.828348 201.009503 
L 199.64161 204.997979 
L 200.454873 205.795674 
L 201.268136 198.616398 
L 202.081399 200.211808 
L 202.894662 198.616398 
L 203.707925 201.807198 
L 204.521188 200.211808 
L 205.334451 206.593389 
L 206.147714 195.425617 
L 207.774239 184.257844 
L 208.587502 196.223312 
L 209.400765 192.234816 
L 210.214028 203.402589 
L 211.027291 201.009503 
L 211.840554 199.414093 
L 212.653817 199.414093 
L 213.46708 202.604894 
L 214.280343 199.414093 
L 215.093605 189.044035 
L 215.906868 201.009503 
L 216.720131 200.211808 
L 217.533394 202.604894 
L 218.346657 193.830206 
L 219.15992 201.009503 
L 219.973183 195.425617 
L 220.786446 199.414093 
L 221.599709 200.211808 
L 222.412971 189.044035 
L 223.226234 198.616398 
L 224.039497 196.223312 
L 224.85276 197.818702 
L 225.666023 197.021007 
L 226.479286 193.830206 
L 227.292549 191.437121 
L 228.105812 197.021007 
L 228.919075 197.818702 
L 229.732337 204.997979 
L 230.5456 197.021007 
L 231.358863 192.234816 
L 232.172126 186.650929 
L 232.985389 190.639425 
L 233.798652 199.414093 
L 234.611915 201.009503 
L 235.425178 197.021007 
L 236.238441 191.437121 
L 237.051703 199.414093 
L 237.864966 195.425617 
L 238.678229 197.021007 
L 239.491492 188.24634 
L 240.304755 194.627921 
L 241.118018 191.437121 
L 241.931281 194.627921 
L 243.557807 199.414093 
L 244.371069 192.234816 
L 245.997595 200.211808 
L 246.810858 195.425617 
L 247.624121 189.84173 
L 248.437384 195.425617 
L 249.250647 193.032511 
L 250.06391 193.032511 
L 250.877173 200.211808 
L 251.690435 200.211808 
L 252.503698 201.009503 
L 253.316961 194.627921 
L 254.130224 200.211808 
L 254.943487 189.84173 
L 255.75675 193.032511 
L 256.570013 200.211808 
L 257.383276 198.616398 
L 258.196539 202.604894 
L 259.009801 194.627921 
L 259.823064 188.24634 
L 260.636327 204.200284 
L 261.44959 197.818702 
L 262.262853 200.211808 
L 263.076116 189.044035 
L 263.889379 197.818702 
L 264.702642 197.818702 
L 265.515905 192.234816 
L 266.329167 193.830206 
L 267.14243 197.021007 
L 267.955693 195.425617 
L 268.768956 202.604894 
L 269.582219 197.818702 
L 270.395482 197.818702 
L 271.208745 193.032511 
L 272.022008 195.425617 
L 272.835271 187.448625 
L 273.648533 193.032511 
L 274.461796 200.211808 
L 275.275059 196.223312 
L 276.901585 193.032511 
L 277.714848 195.425617 
L 278.528111 201.807198 
L 279.341374 192.234816 
L 280.154637 186.650929 
L 280.967899 193.830206 
L 281.781162 196.223312 
L 282.594425 193.830206 
L 283.407688 193.830206 
L 284.220951 199.414093 
L 285.034214 196.223312 
L 285.847477 194.627921 
L 286.66074 195.425617 
L 287.474003 193.830206 
L 288.287265 189.84173 
L 289.100528 187.448625 
L 289.913791 189.044035 
L 290.727054 194.627921 
L 291.540317 194.627921 
L 292.35358 197.818702 
L 293.166843 200.211808 
L 293.980106 197.021007 
L 294.793369 198.616398 
L 295.606631 189.044035 
L 296.419894 189.044035 
L 297.233157 186.650929 
L 298.04642 189.84173 
L 298.859683 195.425617 
L 299.672946 193.830206 
L 300.486209 196.223312 
L 301.299472 202.604894 
L 302.112735 197.021007 
L 302.925997 201.009503 
L 303.73926 193.830206 
L 304.552523 189.84173 
L 305.365786 184.257844 
L 306.179049 192.234816 
L 306.992312 195.425617 
L 307.805575 192.234816 
L 308.618838 203.402589 
L 309.432101 192.234816 
L 310.245363 196.223312 
L 311.058626 199.414093 
L 311.871889 188.24634 
L 312.685152 188.24634 
L 313.498415 193.032511 
L 314.311678 186.650929 
L 315.124941 193.830206 
L 315.938204 189.84173 
L 316.751467 192.234816 
L 317.564729 197.021007 
L 318.377992 200.211808 
L 319.191255 196.223312 
L 320.004518 185.853234 
L 320.817781 193.032511 
L 321.631044 189.84173 
L 322.444307 198.616398 
L 323.25757 197.818702 
L 324.884095 185.853234 
L 325.697358 188.24634 
L 326.510621 188.24634 
L 327.323884 196.223312 
L 328.137147 183.460149 
L 328.95041 192.234816 
L 329.763673 196.223312 
L 330.576936 190.639425 
L 331.390199 203.402589 
L 332.203461 195.425617 
L 333.016724 195.425617 
L 333.829987 197.021007 
L 334.64325 187.448625 
L 335.456513 194.627921 
L 336.269776 182.662453 
L 337.083039 186.650929 
L 337.896302 187.448625 
L 338.709565 187.448625 
L 339.522827 186.650929 
L 340.33609 193.032511 
L 341.149353 196.223312 
L 341.962616 196.223312 
L 342.775879 203.402589 
L 343.589142 194.627921 
L 344.402405 194.627921 
L 345.215668 185.853234 
L 346.028931 185.853234 
L 346.842193 193.830206 
L 347.655456 199.414093 
L 348.468719 195.425617 
L 349.281982 198.616398 
L 350.095245 193.830206 
L 350.908508 198.616398 
L 351.721771 201.009503 
L 352.535034 189.84173 
L 353.348297 185.853234 
L 354.161559 185.055539 
L 354.974822 189.044035 
L 355.788085 189.84173 
L 356.601348 196.223312 
L 357.414611 200.211808 
L 358.227874 198.616398 
L 359.041137 196.223312 
L 359.8544 193.032511 
L 360.667663 193.830206 
L 361.480925 198.616398 
L 362.294188 180.269348 
L 363.107451 194.627921 
L 363.920714 189.84173 
L 364.733977 185.853234 
L 365.54724 201.807198 
L 366.360503 193.032511 
L 367.173766 191.437121 
L 367.987029 198.616398 
L 368.800291 190.639425 
L 369.613554 185.853234 
L 370.426817 193.032511 
L 371.24008 188.24634 
L 372.053343 182.662453 
L 372.866606 192.234816 
L 373.679869 185.055539 
L 374.493132 193.032511 
L 375.306395 202.604894 
L 376.119657 194.627921 
L 376.93292 196.223312 
L 377.746183 197.021007 
L 378.559446 194.627921 
L 379.372709 190.639425 
L 380.185972 189.84173 
L 380.999235 193.032511 
L 381.812498 198.616398 
L 382.625761 194.627921 
L 383.439024 189.044035 
L 384.252286 189.84173 
L 385.065549 195.425617 
L 385.878812 189.84173 
L 386.692075 189.84173 
L 387.505338 191.437121 
L 388.318601 201.009503 
L 389.131864 193.032511 
L 389.945127 195.425617 
L 390.75839 198.616398 
L 391.571652 195.425617 
L 392.384915 197.818702 
L 393.198178 189.84173 
L 394.011441 183.460149 
L 394.824704 193.830206 
L 395.637967 187.448625 
L 396.45123 187.448625 
L 397.264493 180.269348 
L 398.077756 185.853234 
L 398.891018 186.650929 
L 399.704281 189.044035 
L 400.517544 198.616398 
L 401.330807 189.044035 
L 402.14407 193.830206 
L 402.957333 197.021007 
L 403.770596 193.032511 
L 404.583859 194.627921 
L 405.397122 190.639425 
L 406.210384 187.448625 
L 407.023647 197.818702 
L 407.83691 192.234816 
L 408.650173 201.807198 
L 409.463436 193.830206 
L 410.276699 189.84173 
L 411.089962 186.650929 
L 411.903225 181.864738 
L 412.716488 189.044035 
L 413.52975 189.84173 
L 414.343013 191.437121 
L 415.156276 188.24634 
L 415.969539 195.425617 
L 416.782802 196.223312 
L 417.596065 188.24634 
L 418.409328 194.627921 
L 419.222591 189.84173 
L 420.035854 185.853234 
L 420.849116 183.460149 
L 421.662379 186.650929 
L 422.475642 185.055539 
L 423.288905 190.639425 
L 424.102168 189.84173 
L 425.728694 180.269348 
L 426.541957 180.269348 
L 427.35522 193.032511 
L 428.168482 190.639425 
L 428.981745 193.830206 
L 429.795008 195.425617 
L 430.608271 190.639425 
L 431.421534 192.234816 
L 432.234797 189.044035 
L 433.04806 187.448625 
L 433.861323 185.055539 
L 434.674586 190.639425 
L 435.487848 187.448625 
L 436.301111 190.639425 
L 437.114374 195.425617 
L 437.927637 184.257844 
L 438.7409 189.044035 
L 439.554163 189.044035 
L 440.367426 187.448625 
L 441.180689 189.84173 
L 441.993952 189.044035 
L 442.807214 181.864738 
L 443.620477 188.24634 
L 444.43374 185.055539 
L 445.247003 185.055539 
L 446.060266 184.257844 
L 446.873529 189.84173 
L 447.686792 192.234816 
L 448.500055 188.24634 
L 449.313318 191.437121 
L 450.12658 181.864738 
L 450.939843 189.84173 
L 452.566369 188.24634 
L 453.379632 183.460149 
L 454.192895 193.032511 
L 455.006158 189.84173 
L 455.819421 190.639425 
L 456.632684 193.830206 
L 457.445946 180.269348 
L 458.259209 188.24634 
L 459.072472 189.044035 
L 459.885735 188.24634 
L 460.698998 195.425617 
L 461.512261 181.067043 
L 462.325524 184.257844 
L 463.138787 183.460149 
L 463.95205 193.032511 
L 464.765312 189.84173 
L 465.578575 190.639425 
L 466.391838 185.853234 
L 467.205101 195.425617 
L 468.018364 195.425617 
L 468.831627 185.853234 
L 469.64489 191.437121 
L 470.458153 193.830206 
L 471.271416 191.437121 
L 472.084678 190.639425 
L 472.897941 189.044035 
L 473.711204 197.021007 
L 474.524467 197.818702 
L 475.33773 181.864738 
L 476.150993 187.448625 
L 476.964256 188.24634 
L 477.777519 184.257844 
L 478.590782 189.84173 
L 479.404044 181.067043 
L 480.217307 183.460149 
L 481.03057 192.234816 
L 481.843833 190.639425 
L 482.657096 180.269348 
L 483.470359 185.055539 
L 484.283622 198.616398 
L 485.096885 196.223312 
L 485.910148 194.627921 
L 486.72341 192.234816 
L 487.536673 192.234816 
L 489.163199 185.853234 
L 489.976462 197.021007 
L 490.789725 189.044035 
L 491.602988 193.830206 
L 492.416251 185.853234 
L 493.229514 189.84173 
L 494.042776 191.437121 
L 494.856039 189.84173 
L 495.669302 189.044035 
L 496.482565 195.425617 
L 498.109091 182.662453 
L 498.109091 182.662453 
" clip-path="url(#p645ed3e887)" style="fill: none; stroke: #008000; stroke-width: 1.5; stroke-linecap: square"/>
   </g>
   <g id="patch_3">
    <path d="M 72 384.48 
L 72 51.84 
" style="fill: none; stroke: #000000; stroke-width: 0.8; stroke-linejoin: miter; stroke-linecap: square"/>
   </g>
   <g id="patch_4">
    <path d="M 518.4 384.48 
L 518.4 51.84 
" style="fill: none; stroke: #000000; stroke-width: 0.8; stroke-linejoin: miter; stroke-linecap: square"/>
   </g>
   <g id="patch_5">
    <path d="M 72 384.48 
L 518.4 384.48 
" style="fill: none; stroke: #000000; stroke-width: 0.8; stroke-linejoin: miter; stroke-linecap: square"/>
   </g>
   <g id="patch_6">
    <path d="M 72 51.84 
L 518.4 51.84 
" style="fill: none; stroke: #000000; stroke-width: 0.8; stroke-linejoin: miter; stroke-linecap: square"/>
   </g>
   <g id="legend_1">
    <g id="patch_7">
     <path d="M 79 89.19625 
L 156.107812 89.19625 
Q 158.107812 89.19625 158.107812 87.19625 
L 158.107812 58.84 
Q 158.107812 56.84 156.107812 56.84 
L 79 56.84 
Q 77 56.84 77 58.84 
L 77 87.19625 
Q 77 89.19625 79 89.19625 
z
" style="fill: #ffffff; opacity: 0.8; stroke: #cccccc; stroke-linejoin: miter"/>
    </g>
    <g id="line2d_15">
     <path d="M 81 64.938437 
L 91 64.938437 
L 101 64.938437 
" style="fill: none; stroke: #0000ff; stroke-width: 1.5; stroke-linecap: square"/>
    </g>
    <g id="text_15">
     <!-- precision -->
     <g transform="translate(109 68.438437) scale(0.1 -0.1)">
      <defs>
       <path id="DejaVuSans-69" d="M 603 3500 
L 1178 3500 
L 1178 0 
L 603 0 
L 603 3500 
z
M 603 4863 
L 1178 4863 
L 1178 4134 
L 603 4134 
L 603 4863 
z
" transform="scale(0.015625)"/>
       <path id="DejaVuSans-73" d="M 2834 3397 
L 2834 2853 
Q 2591 2978 2328 3040 
Q 2066 3103 1784 3103 
Q 1356 3103 1142 2972 
Q 928 2841 928 2578 
Q 928 2378 1081 2264 
Q 1234 2150 1697 2047 
L 1894 2003 
Q 2506 1872 2764 1633 
Q 3022 1394 3022 966 
Q 3022 478 2636 193 
Q 2250 -91 1575 -91 
Q 1294 -91 989 -36 
Q 684 19 347 128 
L 347 722 
Q 666 556 975 473 
Q 1284 391 1588 391 
Q 1994 391 2212 530 
Q 2431 669 2431 922 
Q 2431 1156 2273 1281 
Q 2116 1406 1581 1522 
L 1381 1569 
Q 847 1681 609 1914 
Q 372 2147 372 2553 
Q 372 3047 722 3315 
Q 1072 3584 1716 3584 
Q 2034 3584 2315 3537 
Q 2597 3491 2834 3397 
z
" transform="scale(0.015625)"/>
       <path id="DejaVuSans-6e" d="M 3513 2113 
L 3513 0 
L 2938 0 
L 2938 2094 
Q 2938 2591 2744 2837 
Q 2550 3084 2163 3084 
Q 1697 3084 1428 2787 
Q 1159 2491 1159 1978 
L 1159 0 
L 581 0 
L 581 3500 
L 1159 3500 
L 1159 2956 
Q 1366 3272 1645 3428 
Q 1925 3584 2291 3584 
Q 2894 3584 3203 3211 
Q 3513 2838 3513 2113 
z
" transform="scale(0.015625)"/>
      </defs>
      <use xlink:href="#DejaVuSans-70"/>
      <use xlink:href="#DejaVuSans-72" x="63.476562"/>
      <use xlink:href="#DejaVuSans-65" x="102.339844"/>
      <use xlink:href="#DejaVuSans-63" x="163.863281"/>
      <use xlink:href="#DejaVuSans-69" x="218.84375"/>
      <use xlink:href="#DejaVuSans-73" x="246.626953"/>
      <use xlink:href="#DejaVuSans-69" x="298.726562"/>
      <use xlink:href="#DejaVuSans-6f" x="326.509766"/>
      <use xlink:href="#DejaVuSans-6e" x="387.691406"/>
     </g>
    </g>
    <g id="line2d_16">
     <path d="M 81 79.616562 
L 91 79.616562 
L 101 79.616562 
" style="fill: none; stroke: #008000; stroke-width: 1.5; stroke-linecap: square"/>
    </g>
    <g id="text_16">
     <!-- recall -->
     <g transform="translate(109 83.116562) scale(0.1 -0.1)">
      <defs>
       <path id="DejaVuSans-6c" d="M 603 4863 
L 1178 4863 
L 1178 0 
L 603 0 
L 603 4863 
z
" transform="scale(0.015625)"/>
      </defs>
      <use xlink:href="#DejaVuSans-72"/>
      <use xlink:href="#DejaVuSans-65" x="38.863281"/>
      <use xlink:href="#DejaVuSans-63" x="100.386719"/>
      <use xlink:href="#DejaVuSans-61" x="155.367188"/>
      <use xlink:href="#DejaVuSans-6c" x="216.646484"/>
      <use xlink:href="#DejaVuSans-6c" x="244.429688"/>
     </g>
    </g>
   </g>
  </g>
  <g id="axes_2">
   <g id="matplotlib.axis_3">
    <g id="ytick_7">
     <g id="line2d_17">
      <defs>
       <path id="m5b869eb512" d="M 0 0 
L 3.5 0 
" style="stroke: #000000; stroke-width: 0.8"/>
      </defs>
      <g>
       <use xlink:href="#m5b869eb512" x="518.4" y="379.590827" style="stroke: #000000; stroke-width: 0.8"/>
      </g>
     </g>
     <g id="text_17">
      <!-- 0.2 -->
      <g transform="translate(525.4 383.390046) scale(0.1 -0.1)">
       <use xlink:href="#DejaVuSans-30"/>
       <use xlink:href="#DejaVuSans-2e" x="63.623047"/>
       <use xlink:href="#DejaVuSans-32" x="95.410156"/>
      </g>
     </g>
    </g>
    <g id="ytick_8">
     <g id="line2d_18">
      <g>
       <use xlink:href="#m5b869eb512" x="518.4" y="336.993444" style="stroke: #000000; stroke-width: 0.8"/>
      </g>
     </g>
     <g id="text_18">
      <!-- 0.3 -->
      <g transform="translate(525.4 340.792662) scale(0.1 -0.1)">
       <use xlink:href="#DejaVuSans-30"/>
       <use xlink:href="#DejaVuSans-2e" x="63.623047"/>
       <use xlink:href="#DejaVuSans-33" x="95.410156"/>
      </g>
     </g>
    </g>
    <g id="ytick_9">
     <g id="line2d_19">
      <g>
       <use xlink:href="#m5b869eb512" x="518.4" y="294.396061" style="stroke: #000000; stroke-width: 0.8"/>
      </g>
     </g>
     <g id="text_19">
      <!-- 0.4 -->
      <g transform="translate(525.4 298.195279) scale(0.1 -0.1)">
       <use xlink:href="#DejaVuSans-30"/>
       <use xlink:href="#DejaVuSans-2e" x="63.623047"/>
       <use xlink:href="#DejaVuSans-34" x="95.410156"/>
      </g>
     </g>
    </g>
    <g id="ytick_10">
     <g id="line2d_20">
      <g>
       <use xlink:href="#m5b869eb512" x="518.4" y="251.798677" style="stroke: #000000; stroke-width: 0.8"/>
      </g>
     </g>
     <g id="text_20">
      <!-- 0.5 -->
      <g transform="translate(525.4 255.597896) scale(0.1 -0.1)">
       <use xlink:href="#DejaVuSans-30"/>
       <use xlink:href="#DejaVuSans-2e" x="63.623047"/>
       <use xlink:href="#DejaVuSans-35" x="95.410156"/>
      </g>
     </g>
    </g>
    <g id="ytick_11">
     <g id="line2d_21">
      <g>
       <use xlink:href="#m5b869eb512" x="518.4" y="209.201294" style="stroke: #000000; stroke-width: 0.8"/>
      </g>
     </g>
     <g id="text_21">
      <!-- 0.6 -->
      <g transform="translate(525.4 213.000513) scale(0.1 -0.1)">
       <use xlink:href="#DejaVuSans-30"/>
       <use xlink:href="#DejaVuSans-2e" x="63.623047"/>
       <use xlink:href="#DejaVuSans-36" x="95.410156"/>
      </g>
     </g>
    </g>
    <g id="ytick_12">
     <g id="line2d_22">
      <g>
       <use xlink:href="#m5b869eb512" x="518.4" y="166.603911" style="stroke: #000000; stroke-width: 0.8"/>
      </g>
     </g>
     <g id="text_22">
      <!-- 0.7 -->
      <g transform="translate(525.4 170.40313) scale(0.1 -0.1)">
       <defs>
        <path id="DejaVuSans-37" d="M 525 4666 
L 3525 4666 
L 3525 4397 
L 1831 0 
L 1172 0 
L 2766 4134 
L 525 4134 
L 525 4666 
z
" transform="scale(0.015625)"/>
       </defs>
       <use xlink:href="#DejaVuSans-30"/>
       <use xlink:href="#DejaVuSans-2e" x="63.623047"/>
       <use xlink:href="#DejaVuSans-37" x="95.410156"/>
      </g>
     </g>
    </g>
    <g id="ytick_13">
     <g id="line2d_23">
      <g>
       <use xlink:href="#m5b869eb512" x="518.4" y="124.006528" style="stroke: #000000; stroke-width: 0.8"/>
      </g>
     </g>
     <g id="text_23">
      <!-- 0.8 -->
      <g transform="translate(525.4 127.805747) scale(0.1 -0.1)">
       <use xlink:href="#DejaVuSans-30"/>
       <use xlink:href="#DejaVuSans-2e" x="63.623047"/>
       <use xlink:href="#DejaVuSans-38" x="95.410156"/>
      </g>
     </g>
    </g>
    <g id="ytick_14">
     <g id="line2d_24">
      <g>
       <use xlink:href="#m5b869eb512" x="518.4" y="81.409145" style="stroke: #000000; stroke-width: 0.8"/>
      </g>
     </g>
     <g id="text_24">
      <!-- 0.9 -->
      <g transform="translate(525.4 85.208364) scale(0.1 -0.1)">
       <defs>
        <path id="DejaVuSans-39" d="M 703 97 
L 703 672 
Q 941 559 1184 500 
Q 1428 441 1663 441 
Q 2288 441 2617 861 
Q 2947 1281 2994 2138 
Q 2813 1869 2534 1725 
Q 2256 1581 1919 1581 
Q 1219 1581 811 2004 
Q 403 2428 403 3163 
Q 403 3881 828 4315 
Q 1253 4750 1959 4750 
Q 2769 4750 3195 4129 
Q 3622 3509 3622 2328 
Q 3622 1225 3098 567 
Q 2575 -91 1691 -91 
Q 1453 -91 1209 -44 
Q 966 3 703 97 
z
M 1959 2075 
Q 2384 2075 2632 2365 
Q 2881 2656 2881 3163 
Q 2881 3666 2632 3958 
Q 2384 4250 1959 4250 
Q 1534 4250 1286 3958 
Q 1038 3666 1038 3163 
Q 1038 2656 1286 2365 
Q 1534 2075 1959 2075 
z
" transform="scale(0.015625)"/>
       </defs>
       <use xlink:href="#DejaVuSans-30"/>
       <use xlink:href="#DejaVuSans-2e" x="63.623047"/>
       <use xlink:href="#DejaVuSans-39" x="95.410156"/>
      </g>
     </g>
    </g>
    <g id="text_25">
     <!-- loss -->
     <g transform="translate(552.901563 227.817812) rotate(-90) scale(0.1 -0.1)">
      <use xlink:href="#DejaVuSans-6c"/>
      <use xlink:href="#DejaVuSans-6f" x="27.783203"/>
      <use xlink:href="#DejaVuSans-73" x="88.964844"/>
      <use xlink:href="#DejaVuSans-73" x="141.064453"/>
     </g>
    </g>
   </g>
   <g id="line2d_25">
    <path d="M 92.290909 66.96 
L 93.104172 132.891912 
L 93.917435 222.995859 
L 94.730698 291.217342 
L 95.543961 329.745325 
L 96.357224 347.028006 
L 97.170486 351.356941 
L 97.983749 354.375255 
L 98.797012 353.393741 
L 99.610275 354.180844 
L 100.423538 236.558674 
L 101.236801 284.310063 
L 102.050064 320.791636 
L 102.863327 341.136709 
L 103.67659 349.130388 
L 104.489852 351.194762 
L 105.303115 350.442202 
L 106.116378 348.747519 
L 106.929641 348.098716 
L 107.742904 347.593238 
L 108.556167 261.795299 
L 109.36943 304.314771 
L 110.182693 334.874883 
L 110.995956 349.375186 
L 111.809218 357.004138 
L 112.622481 360.13752 
L 113.435744 361.153844 
L 114.249007 361.040694 
L 115.06227 359.046003 
L 115.875533 359.238853 
L 116.688796 252.724385 
L 117.502059 299.740568 
L 118.315322 333.590465 
L 119.128584 351.337695 
L 119.941847 360.508221 
L 120.75511 363.404022 
L 121.568373 361.670353 
L 122.381636 362.695196 
L 123.194899 360.282535 
L 124.008162 361.459134 
L 124.821425 260.201631 
L 125.634688 304.827205 
L 126.44795 337.583122 
L 127.261213 355.443147 
L 128.074476 362.250947 
L 128.887739 363.656189 
L 129.701002 362.501242 
L 130.514265 364.66404 
L 131.327528 365.148158 
L 132.140791 365.139163 
L 132.954054 256.982012 
L 133.767316 303.433432 
L 134.580579 336.632202 
L 135.393842 355.233831 
L 136.207105 363.260416 
L 137.020368 364.048472 
L 137.833631 366.590615 
L 138.646894 365.019843 
L 139.460157 366.536224 
L 140.27342 362.932993 
L 141.086682 260.749103 
L 141.899945 306.537629 
L 142.713208 339.319152 
L 143.526471 357.074608 
L 144.339734 363.316147 
L 145.152997 365.664089 
L 145.96626 364.458736 
L 146.779523 364.763296 
L 147.592786 366.66424 
L 148.406048 366.353454 
L 149.219311 258.713497 
L 150.032574 303.755136 
L 150.845837 339.017226 
L 151.6591 356.737251 
L 152.472363 365.650848 
L 153.285626 365.676499 
L 154.098889 367.357927 
L 154.912152 365.273641 
L 155.725414 367.733871 
L 156.538677 366.96892 
L 157.35194 262.416796 
L 158.165203 308.275207 
L 158.978466 339.959869 
L 159.791729 357.503039 
L 160.604992 363.548859 
L 161.418255 365.151427 
L 162.231518 368.05734 
L 163.04478 367.375656 
L 163.858043 369.228645 
L 164.671306 367.239375 
L 165.484569 259.518284 
L 166.297832 304.831432 
L 167.111095 338.659621 
L 167.924358 357.886936 
L 168.737621 365.298549 
L 169.550884 368.364952 
L 170.364146 369.200697 
L 171.177409 369.330256 
L 171.990672 368.540886 
L 172.803935 369.36 
L 173.617198 262.95886 
L 174.430461 307.713567 
L 175.243724 323.672591 
L 176.056987 336.953475 
L 177.683512 354.944284 
L 178.496775 360.358502 
L 179.310038 362.764295 
L 180.123301 366.156332 
L 180.936564 366.882417 
L 181.749827 261.076559 
L 183.376353 308.352177 
L 184.189616 329.711822 
L 185.816141 351.513457 
L 186.629404 357.192824 
L 188.25593 364.190389 
L 189.069193 364.735265 
L 189.882456 260.487802 
L 191.508982 308.726553 
L 192.322244 328.204163 
L 193.135507 342.767484 
L 193.94877 351.830464 
L 194.762033 355.800283 
L 195.575296 361.931439 
L 196.388559 365.030621 
L 197.201822 365.966713 
L 198.015085 262.137925 
L 199.64161 307.351633 
L 200.454873 326.615814 
L 201.268136 340.146105 
L 202.081399 350.32137 
L 203.707925 360.871609 
L 204.521188 363.407831 
L 205.334451 363.803705 
L 206.147714 262.361459 
L 207.774239 307.585906 
L 209.400765 339.097738 
L 210.214028 347.446548 
L 211.027291 354.295822 
L 212.653817 362.742384 
L 213.46708 362.165015 
L 214.280343 261.746576 
L 215.093605 284.768303 
L 216.720131 320.920617 
L 217.533394 335.04233 
L 218.346657 345.614772 
L 219.973183 357.31627 
L 220.786446 359.316953 
L 221.599709 362.742561 
L 222.412971 262.658357 
L 224.039497 301.675034 
L 224.85276 319.623479 
L 225.666023 332.232378 
L 226.479286 342.809708 
L 227.292549 350.170452 
L 228.105812 355.156214 
L 228.919075 358.293494 
L 229.732337 359.373877 
L 230.5456 261.604062 
L 232.985389 317.816789 
L 233.798652 330.081196 
L 234.611915 339.987849 
L 235.425178 347.741275 
L 236.238441 354.425235 
L 237.051703 355.933631 
L 237.864966 360.313441 
L 238.678229 261.621454 
L 240.304755 300.321441 
L 241.931281 326.993173 
L 242.744544 338.146501 
L 243.557807 345.976859 
L 245.184332 354.323244 
L 245.997595 357.895505 
L 246.810858 263.255073 
L 247.624121 279.019609 
L 248.437384 297.26268 
L 249.250647 312.674917 
L 250.06391 325.662711 
L 250.877173 334.754077 
L 251.690435 341.563845 
L 252.503698 350.023774 
L 253.316961 351.493691 
L 254.130224 355.738661 
L 254.943487 263.029292 
L 256.570013 295.283477 
L 257.383276 309.994632 
L 259.009801 332.586937 
L 259.823064 340.319226 
L 261.44959 350.690643 
L 262.262853 354.602394 
L 263.076116 262.272301 
L 265.515905 308.315196 
L 267.14243 329.370669 
L 268.768956 343.432309 
L 270.395482 351.517558 
L 271.208745 263.689648 
L 273.648533 304.519884 
L 274.461796 317.144334 
L 275.275059 326.554028 
L 276.088322 334.246975 
L 276.901585 340.714638 
L 278.528111 350.007575 
L 279.341374 263.658508 
L 280.967899 289.879643 
L 282.594425 315.798321 
L 283.407688 323.933575 
L 285.847477 343.616819 
L 286.66074 345.57915 
L 287.474003 262.922781 
L 289.913791 301.65787 
L 290.727054 310.400009 
L 291.540317 320.365871 
L 292.35358 328.396658 
L 294.793369 344.054708 
L 295.606631 262.805974 
L 298.04642 300.103874 
L 298.859683 308.051001 
L 299.672946 318.157244 
L 302.112735 337.896777 
L 302.925997 341.28425 
L 303.73926 261.556671 
L 304.552523 276.345735 
L 306.179049 296.749294 
L 306.992312 307.036822 
L 307.805575 315.53396 
L 308.618838 321.360829 
L 310.245363 335.971389 
L 311.058626 338.825659 
L 311.871889 263.804691 
L 312.685152 276.048215 
L 313.498415 284.303322 
L 314.311678 295.495294 
L 315.124941 304.647773 
L 316.751467 319.244241 
L 317.564729 325.567511 
L 318.377992 329.739383 
L 319.191255 336.458039 
L 320.004518 263.604935 
L 320.817781 272.579164 
L 321.631044 284.036461 
L 322.444307 292.564054 
L 323.25757 302.940853 
L 324.070833 308.815418 
L 324.884095 317.476956 
L 325.697358 323.398201 
L 327.323884 332.372062 
L 328.137147 263.207581 
L 328.95041 273.267436 
L 333.829987 320.624468 
L 334.64325 325.945365 
L 335.456513 329.362557 
L 336.269776 264.105626 
L 337.083039 272.213789 
L 337.896302 282.318915 
L 340.33609 305.097849 
L 341.149353 309.682982 
L 341.962616 317.23603 
L 342.775879 321.596779 
L 343.589142 326.993859 
L 344.402405 262.648277 
L 345.215668 272.630782 
L 346.842193 287.335297 
L 347.655456 292.890989 
L 349.281982 307.608884 
L 350.095245 313.318033 
L 351.721771 322.914851 
L 352.535034 262.954265 
L 354.974822 287.586569 
L 355.788085 292.740768 
L 356.601348 299.827174 
L 357.414611 303.989575 
L 358.227874 309.710264 
L 359.8544 319.489826 
L 360.667663 264.02712 
L 363.920714 291.493281 
L 364.733977 298.813845 
L 365.54724 302.225642 
L 366.360503 308.528066 
L 367.173766 312.557653 
L 367.987029 315.107293 
L 368.800291 263.314955 
L 369.613554 269.674736 
L 370.426817 274.980565 
L 372.053343 288.921983 
L 372.866606 294.096913 
L 373.679869 300.091039 
L 375.306395 308.900475 
L 376.119657 314.192097 
L 376.93292 262.948933 
L 377.746183 268.568176 
L 378.559446 276.373321 
L 382.625761 302.492732 
L 383.439024 306.371514 
L 384.252286 311.707062 
L 385.065549 262.342505 
L 386.692075 275.335187 
L 387.505338 280.958759 
L 388.318601 285.237815 
L 389.131864 290.854836 
L 391.571652 302.861001 
L 392.384915 307.057108 
L 393.198178 263.649494 
L 394.824704 275.08672 
L 396.45123 282.536266 
L 397.264493 289.303252 
L 398.891018 298.005376 
L 399.704281 301.922332 
L 400.517544 304.814103 
L 401.330807 263.157055 
L 404.583859 281.734779 
L 405.397122 288.068358 
L 406.210384 290.801035 
L 407.83691 298.236057 
L 408.650173 300.598903 
L 409.463436 263.166246 
L 411.089962 272.693102 
L 413.52975 285.236913 
L 414.343013 289.49793 
L 415.156276 293.070255 
L 415.969539 296.094104 
L 416.782802 298.439964 
L 417.596065 263.486211 
L 418.409328 267.104796 
L 420.035854 276.961989 
L 420.849116 281.398742 
L 421.662379 283.038836 
L 422.475642 287.242674 
L 423.288905 289.97723 
L 424.915431 297.433491 
L 425.728694 263.457876 
L 426.541957 268.506084 
L 427.35522 271.158821 
L 428.168482 274.925582 
L 428.981745 277.416318 
L 429.795008 282.329579 
L 430.608271 283.961332 
L 431.421534 287.105962 
L 432.234797 291.892589 
L 433.04806 294.570843 
L 433.861323 263.681574 
L 434.674586 267.429103 
L 435.487848 270.217283 
L 436.301111 274.058539 
L 437.114374 277.139973 
L 437.927637 281.023554 
L 439.554163 285.670486 
L 440.367426 289.497549 
L 441.180689 292.565806 
L 441.993952 262.573389 
L 443.620477 270.958316 
L 445.247003 276.095643 
L 446.060266 279.287854 
L 446.873529 281.869778 
L 447.686792 283.301394 
L 448.500055 286.715247 
L 449.313318 289.037507 
L 450.12658 264.082914 
L 450.939843 265.682143 
L 451.753106 270.598565 
L 452.566369 272.45135 
L 455.819421 284.176309 
L 456.632684 284.299831 
L 457.445946 288.156385 
L 458.259209 262.773082 
L 459.072472 266.259512 
L 459.885735 268.943694 
L 460.698998 271.000768 
L 461.512261 274.883702 
L 462.325524 277.716682 
L 463.138787 279.773248 
L 463.95205 281.103723 
L 464.765312 284.621548 
L 465.578575 286.1922 
L 466.391838 263.845353 
L 467.205101 265.600908 
L 468.831627 270.916194 
L 469.64489 274.096344 
L 470.458153 275.46936 
L 471.271416 278.194205 
L 472.084678 279.998534 
L 473.711204 282.814287 
L 474.524467 263.917537 
L 475.33773 266.869202 
L 476.150993 269.093927 
L 476.964256 270.311404 
L 477.777519 272.811064 
L 478.590782 273.680139 
L 479.404044 277.651303 
L 480.217307 278.626102 
L 481.03057 281.200827 
L 481.843833 282.419167 
L 482.657096 263.237516 
L 483.470359 265.60026 
L 484.283622 267.188101 
L 485.096885 267.782989 
L 485.910148 270.835517 
L 486.72341 272.018146 
L 487.536673 274.730968 
L 488.349936 276.796586 
L 489.163199 279.256231 
L 489.976462 279.980265 
L 490.789725 263.569744 
L 491.602988 265.404452 
L 493.229514 269.41784 
L 494.042776 270.720475 
L 495.669302 274.929315 
L 496.482565 275.644602 
L 497.295828 277.257453 
L 498.109091 279.647923 
L 498.109091 279.647923 
" clip-path="url(#p645ed3e887)" style="fill: none; stroke: #ff0000; stroke-width: 1.5; stroke-linecap: square"/>
   </g>
   <g id="patch_8">
    <path d="M 72 384.48 
L 72 51.84 
" style="fill: none; stroke: #000000; stroke-width: 0.8; stroke-linejoin: miter; stroke-linecap: square"/>
   </g>
   <g id="patch_9">
    <path d="M 518.4 384.48 
L 518.4 51.84 
" style="fill: none; stroke: #000000; stroke-width: 0.8; stroke-linejoin: miter; stroke-linecap: square"/>
   </g>
   <g id="patch_10">
    <path d="M 72 384.48 
L 518.4 384.48 
" style="fill: none; stroke: #000000; stroke-width: 0.8; stroke-linejoin: miter; stroke-linecap: square"/>
   </g>
   <g id="patch_11">
    <path d="M 72 51.84 
L 518.4 51.84 
" style="fill: none; stroke: #000000; stroke-width: 0.8; stroke-linejoin: miter; stroke-linecap: square"/>
   </g>
   <g id="text_26">
    <!-- The learning curve on _0.00025_non_iid/host/5 -->
    <g transform="translate(151.056562 45.84) scale(0.12 -0.12)">
     <defs>
      <path id="DejaVuSans-54" d="M -19 4666 
L 3928 4666 
L 3928 4134 
L 2272 4134 
L 2272 0 
L 1638 0 
L 1638 4134 
L -19 4134 
L -19 4666 
z
" transform="scale(0.015625)"/>
      <path id="DejaVuSans-20" transform="scale(0.015625)"/>
      <path id="DejaVuSans-67" d="M 2906 1791 
Q 2906 2416 2648 2759 
Q 2391 3103 1925 3103 
Q 1463 3103 1205 2759 
Q 947 2416 947 1791 
Q 947 1169 1205 825 
Q 1463 481 1925 481 
Q 2391 481 2648 825 
Q 2906 1169 2906 1791 
z
M 3481 434 
Q 3481 -459 3084 -895 
Q 2688 -1331 1869 -1331 
Q 1566 -1331 1297 -1286 
Q 1028 -1241 775 -1147 
L 775 -588 
Q 1028 -725 1275 -790 
Q 1522 -856 1778 -856 
Q 2344 -856 2625 -561 
Q 2906 -266 2906 331 
L 2906 616 
Q 2728 306 2450 153 
Q 2172 0 1784 0 
Q 1141 0 747 490 
Q 353 981 353 1791 
Q 353 2603 747 3093 
Q 1141 3584 1784 3584 
Q 2172 3584 2450 3431 
Q 2728 3278 2906 2969 
L 2906 3500 
L 3481 3500 
L 3481 434 
z
" transform="scale(0.015625)"/>
      <path id="DejaVuSans-75" d="M 544 1381 
L 544 3500 
L 1119 3500 
L 1119 1403 
Q 1119 906 1312 657 
Q 1506 409 1894 409 
Q 2359 409 2629 706 
Q 2900 1003 2900 1516 
L 2900 3500 
L 3475 3500 
L 3475 0 
L 2900 0 
L 2900 538 
Q 2691 219 2414 64 
Q 2138 -91 1772 -91 
Q 1169 -91 856 284 
Q 544 659 544 1381 
z
M 1991 3584 
L 1991 3584 
z
" transform="scale(0.015625)"/>
      <path id="DejaVuSans-76" d="M 191 3500 
L 800 3500 
L 1894 563 
L 2988 3500 
L 3597 3500 
L 2284 0 
L 1503 0 
L 191 3500 
z
" transform="scale(0.015625)"/>
      <path id="DejaVuSans-3bb" d="M 1981 4316 
L 3597 0 
L 2988 0 
L 2006 2588 
L 800 0 
L 191 0 
L 1725 3356 
L 1494 3975 
Q 1347 4369 1013 4369 
L 713 4369 
L 713 4863 
L 1078 4856 
Q 1784 4847 1981 4316 
z
" transform="scale(0.015625)"/>
      <path id="DejaVuSans-5f" d="M 3263 -1063 
L 3263 -1509 
L -63 -1509 
L -63 -1063 
L 3263 -1063 
z
" transform="scale(0.015625)"/>
      <path id="DejaVuSans-64" d="M 2906 2969 
L 2906 4863 
L 3481 4863 
L 3481 0 
L 2906 0 
L 2906 525 
Q 2725 213 2448 61 
Q 2172 -91 1784 -91 
Q 1150 -91 751 415 
Q 353 922 353 1747 
Q 353 2572 751 3078 
Q 1150 3584 1784 3584 
Q 2172 3584 2448 3432 
Q 2725 3281 2906 2969 
z
M 947 1747 
Q 947 1113 1208 752 
Q 1469 391 1925 391 
Q 2381 391 2643 752 
Q 2906 1113 2906 1747 
Q 2906 2381 2643 2742 
Q 2381 3103 1925 3103 
Q 1469 3103 1208 2742 
Q 947 2381 947 1747 
z
" transform="scale(0.015625)"/>
      <path id="DejaVuSans-2f" d="M 1625 4666 
L 2156 4666 
L 531 -594 
L 0 -594 
L 1625 4666 
z
" transform="scale(0.015625)"/>
     </defs>
     <use xlink:href="#DejaVuSans-54"/>
     <use xlink:href="#DejaVuSans-68" x="61.083984"/>
     <use xlink:href="#DejaVuSans-65" x="124.462891"/>
     <use xlink:href="#DejaVuSans-20" x="185.986328"/>
     <use xlink:href="#DejaVuSans-6c" x="217.773438"/>
     <use xlink:href="#DejaVuSans-65" x="245.556641"/>
     <use xlink:href="#DejaVuSans-61" x="307.080078"/>
     <use xlink:href="#DejaVuSans-72" x="368.359375"/>
     <use xlink:href="#DejaVuSans-6e" x="407.722656"/>
     <use xlink:href="#DejaVuSans-69" x="471.101562"/>
     <use xlink:href="#DejaVuSans-6e" x="498.884766"/>
     <use xlink:href="#DejaVuSans-67" x="562.263672"/>
     <use xlink:href="#DejaVuSans-20" x="625.740234"/>
     <use xlink:href="#DejaVuSans-63" x="657.527344"/>
     <use xlink:href="#DejaVuSans-75" x="712.507812"/>
     <use xlink:href="#DejaVuSans-72" x="775.886719"/>
     <use xlink:href="#DejaVuSans-76" x="817"/>
     <use xlink:href="#DejaVuSans-65" x="876.179688"/>
     <use xlink:href="#DejaVuSans-20" x="937.703125"/>
     <use xlink:href="#DejaVuSans-6f" x="969.490234"/>
     <use xlink:href="#DejaVuSans-6e" x="1030.671875"/>
     <use xlink:href="#DejaVuSans-20" x="1094.050781"/>
     <use xlink:href="#DejaVuSans-3bb" x="1125.837891"/>
     <use xlink:href="#DejaVuSans-5f" x="1185.017578"/>
     <use xlink:href="#DejaVuSans-30" x="1235.017578"/>
     <use xlink:href="#DejaVuSans-2e" x="1298.640625"/>
     <use xlink:href="#DejaVuSans-30" x="1330.427734"/>
     <use xlink:href="#DejaVuSans-30" x="1394.050781"/>
     <use xlink:href="#DejaVuSans-30" x="1457.673828"/>
     <use xlink:href="#DejaVuSans-32" x="1521.296875"/>
     <use xlink:href="#DejaVuSans-35" x="1584.919922"/>
     <use xlink:href="#DejaVuSans-5f" x="1648.542969"/>
     <use xlink:href="#DejaVuSans-6e" x="1698.542969"/>
     <use xlink:href="#DejaVuSans-6f" x="1761.921875"/>
     <use xlink:href="#DejaVuSans-6e" x="1823.103516"/>
     <use xlink:href="#DejaVuSans-5f" x="1886.482422"/>
     <use xlink:href="#DejaVuSans-69" x="1936.482422"/>
     <use xlink:href="#DejaVuSans-69" x="1964.265625"/>
     <use xlink:href="#DejaVuSans-64" x="1992.048828"/>
     <use xlink:href="#DejaVuSans-2f" x="2055.525391"/>
     <use xlink:href="#DejaVuSans-68" x="2089.216797"/>
     <use xlink:href="#DejaVuSans-6f" x="2152.595703"/>
     <use xlink:href="#DejaVuSans-73" x="2213.777344"/>
     <use xlink:href="#DejaVuSans-74" x="2265.876953"/>
     <use xlink:href="#DejaVuSans-2f" x="2305.085938"/>
     <use xlink:href="#DejaVuSans-35" x="2338.777344"/>
    </g>
   </g>
   <g id="legend_2">
    <g id="patch_12">
     <path d="M 460.084375 74.518125 
L 511.4 74.518125 
Q 513.4 74.518125 513.4 72.518125 
L 513.4 58.84 
Q 513.4 56.84 511.4 56.84 
L 460.084375 56.84 
Q 458.084375 56.84 458.084375 58.84 
L 458.084375 72.518125 
Q 458.084375 74.518125 460.084375 74.518125 
z
" style="fill: #ffffff; opacity: 0.8; stroke: #cccccc; stroke-linejoin: miter"/>
    </g>
    <g id="line2d_26">
     <path d="M 462.084375 64.938438 
L 472.084375 64.938438 
L 482.084375 64.938438 
" style="fill: none; stroke: #ff0000; stroke-width: 1.5; stroke-linecap: square"/>
    </g>
    <g id="text_27">
     <!-- loss -->
     <g transform="translate(490.084375 68.438438) scale(0.1 -0.1)">
      <use xlink:href="#DejaVuSans-6c"/>
      <use xlink:href="#DejaVuSans-6f" x="27.783203"/>
      <use xlink:href="#DejaVuSans-73" x="88.964844"/>
      <use xlink:href="#DejaVuSans-73" x="141.064453"/>
     </g>
    </g>
   </g>
  </g>
 </g>
 <defs>
  <clipPath id="p645ed3e887">
   <rect x="72" y="51.84" width="446.4" height="332.64"/>
  </clipPath>
 </defs>
</svg>
