<?xml version="1.0" encoding="utf-8" standalone="no"?>
<!DOCTYPE svg PUBLIC "-//W3C//DTD SVG 1.1//EN"
  "http://www.w3.org/Graphics/SVG/1.1/DTD/svg11.dtd">
<svg xmlns:xlink="http://www.w3.org/1999/xlink" width="460.8pt" height="345.6pt" viewBox="0 0 460.8 345.6" xmlns="http://www.w3.org/2000/svg" version="1.1">
 <metadata>
  <rdf:RDF xmlns:dc="http://purl.org/dc/elements/1.1/" xmlns:cc="http://creativecommons.org/ns#" xmlns:rdf="http://www.w3.org/1999/02/22-rdf-syntax-ns#">
   <cc:Work>
    <dc:type rdf:resource="http://purl.org/dc/dcmitype/StillImage"/>
    <dc:date>2023-04-13T09:22:58.827085</dc:date>
    <dc:format>image/svg+xml</dc:format>
    <dc:creator>
     <cc:Agent>
      <dc:title>Matplotlib v3.7.1, https://matplotlib.org/</dc:title>
     </cc:Agent>
    </dc:creator>
   </cc:Work>
  </rdf:RDF>
 </metadata>
 <defs>
  <style type="text/css">*{stroke-linejoin: round; stroke-linecap: butt}</style>
 </defs>
 <g id="figure_1">
  <g id="patch_1">
   <path d="M 0 345.6 
L 460.8 345.6 
L 460.8 0 
L 0 0 
z
" style="fill: #ffffff"/>
  </g>
  <g id="axes_1">
   <g id="patch_2">
    <path d="M 57.6 307.584 
L 414.72 307.584 
L 414.72 41.472 
L 57.6 41.472 
z
" style="fill: #ffffff"/>
   </g>
   <g id="matplotlib.axis_1">
    <g id="xtick_1">
     <g id="line2d_1">
      <defs>
       <path id="m6db727ad3c" d="M 0 0 
L 0 3.5 
" style="stroke: #000000; stroke-width: 0.8"/>
      </defs>
      <g>
       <use xlink:href="#m6db727ad3c" x="73.832727" y="307.584" style="stroke: #000000; stroke-width: 0.8"/>
      </g>
     </g>
     <g id="text_1">
      <!-- 0 -->
      <g transform="translate(70.651477 322.182437) scale(0.1 -0.1)">
       <defs>
        <path id="DejaVuSans-30" d="M 2034 4250 
Q 1547 4250 1301 3770 
Q 1056 3291 1056 2328 
Q 1056 1369 1301 889 
Q 1547 409 2034 409 
Q 2525 409 2770 889 
Q 3016 1369 3016 2328 
Q 3016 3291 2770 3770 
Q 2525 4250 2034 4250 
z
M 2034 4750 
Q 2819 4750 3233 4129 
Q 3647 3509 3647 2328 
Q 3647 1150 3233 529 
Q 2819 -91 2034 -91 
Q 1250 -91 836 529 
Q 422 1150 422 2328 
Q 422 3509 836 4129 
Q 1250 4750 2034 4750 
z
" transform="scale(0.015625)"/>
       </defs>
       <use xlink:href="#DejaVuSans-30"/>
      </g>
     </g>
    </g>
    <g id="xtick_2">
     <g id="line2d_2">
      <g>
       <use xlink:href="#m6db727ad3c" x="138.893758" y="307.584" style="stroke: #000000; stroke-width: 0.8"/>
      </g>
     </g>
     <g id="text_2">
      <!-- 100 -->
      <g transform="translate(129.350008 322.182437) scale(0.1 -0.1)">
       <defs>
        <path id="DejaVuSans-31" d="M 794 531 
L 1825 531 
L 1825 4091 
L 703 3866 
L 703 4441 
L 1819 4666 
L 2450 4666 
L 2450 531 
L 3481 531 
L 3481 0 
L 794 0 
L 794 531 
z
" transform="scale(0.015625)"/>
       </defs>
       <use xlink:href="#DejaVuSans-31"/>
       <use xlink:href="#DejaVuSans-30" x="63.623047"/>
       <use xlink:href="#DejaVuSans-30" x="127.246094"/>
      </g>
     </g>
    </g>
    <g id="xtick_3">
     <g id="line2d_3">
      <g>
       <use xlink:href="#m6db727ad3c" x="203.95479" y="307.584" style="stroke: #000000; stroke-width: 0.8"/>
      </g>
     </g>
     <g id="text_3">
      <!-- 200 -->
      <g transform="translate(194.41104 322.182437) scale(0.1 -0.1)">
       <defs>
        <path id="DejaVuSans-32" d="M 1228 531 
L 3431 531 
L 3431 0 
L 469 0 
L 469 531 
Q 828 903 1448 1529 
Q 2069 2156 2228 2338 
Q 2531 2678 2651 2914 
Q 2772 3150 2772 3378 
Q 2772 3750 2511 3984 
Q 2250 4219 1831 4219 
Q 1534 4219 1204 4116 
Q 875 4013 500 3803 
L 500 4441 
Q 881 4594 1212 4672 
Q 1544 4750 1819 4750 
Q 2544 4750 2975 4387 
Q 3406 4025 3406 3419 
Q 3406 3131 3298 2873 
Q 3191 2616 2906 2266 
Q 2828 2175 2409 1742 
Q 1991 1309 1228 531 
z
" transform="scale(0.015625)"/>
       </defs>
       <use xlink:href="#DejaVuSans-32"/>
       <use xlink:href="#DejaVuSans-30" x="63.623047"/>
       <use xlink:href="#DejaVuSans-30" x="127.246094"/>
      </g>
     </g>
    </g>
    <g id="xtick_4">
     <g id="line2d_4">
      <g>
       <use xlink:href="#m6db727ad3c" x="269.015821" y="307.584" style="stroke: #000000; stroke-width: 0.8"/>
      </g>
     </g>
     <g id="text_4">
      <!-- 300 -->
      <g transform="translate(259.472071 322.182437) scale(0.1 -0.1)">
       <defs>
        <path id="DejaVuSans-33" d="M 2597 2516 
Q 3050 2419 3304 2112 
Q 3559 1806 3559 1356 
Q 3559 666 3084 287 
Q 2609 -91 1734 -91 
Q 1441 -91 1130 -33 
Q 819 25 488 141 
L 488 750 
Q 750 597 1062 519 
Q 1375 441 1716 441 
Q 2309 441 2620 675 
Q 2931 909 2931 1356 
Q 2931 1769 2642 2001 
Q 2353 2234 1838 2234 
L 1294 2234 
L 1294 2753 
L 1863 2753 
Q 2328 2753 2575 2939 
Q 2822 3125 2822 3475 
Q 2822 3834 2567 4026 
Q 2313 4219 1838 4219 
Q 1578 4219 1281 4162 
Q 984 4106 628 3988 
L 628 4550 
Q 988 4650 1302 4700 
Q 1616 4750 1894 4750 
Q 2613 4750 3031 4423 
Q 3450 4097 3450 3541 
Q 3450 3153 3228 2886 
Q 3006 2619 2597 2516 
z
" transform="scale(0.015625)"/>
       </defs>
       <use xlink:href="#DejaVuSans-33"/>
       <use xlink:href="#DejaVuSans-30" x="63.623047"/>
       <use xlink:href="#DejaVuSans-30" x="127.246094"/>
      </g>
     </g>
    </g>
    <g id="xtick_5">
     <g id="line2d_5">
      <g>
       <use xlink:href="#m6db727ad3c" x="334.076852" y="307.584" style="stroke: #000000; stroke-width: 0.8"/>
      </g>
     </g>
     <g id="text_5">
      <!-- 400 -->
      <g transform="translate(324.533102 322.182437) scale(0.1 -0.1)">
       <defs>
        <path id="DejaVuSans-34" d="M 2419 4116 
L 825 1625 
L 2419 1625 
L 2419 4116 
z
M 2253 4666 
L 3047 4666 
L 3047 1625 
L 3713 1625 
L 3713 1100 
L 3047 1100 
L 3047 0 
L 2419 0 
L 2419 1100 
L 313 1100 
L 313 1709 
L 2253 4666 
z
" transform="scale(0.015625)"/>
       </defs>
       <use xlink:href="#DejaVuSans-34"/>
       <use xlink:href="#DejaVuSans-30" x="63.623047"/>
       <use xlink:href="#DejaVuSans-30" x="127.246094"/>
      </g>
     </g>
    </g>
    <g id="xtick_6">
     <g id="line2d_6">
      <g>
       <use xlink:href="#m6db727ad3c" x="399.137883" y="307.584" style="stroke: #000000; stroke-width: 0.8"/>
      </g>
     </g>
     <g id="text_6">
      <!-- 500 -->
      <g transform="translate(389.594133 322.182437) scale(0.1 -0.1)">
       <defs>
        <path id="DejaVuSans-35" d="M 691 4666 
L 3169 4666 
L 3169 4134 
L 1269 4134 
L 1269 2991 
Q 1406 3038 1543 3061 
Q 1681 3084 1819 3084 
Q 2600 3084 3056 2656 
Q 3513 2228 3513 1497 
Q 3513 744 3044 326 
Q 2575 -91 1722 -91 
Q 1428 -91 1123 -41 
Q 819 9 494 109 
L 494 744 
Q 775 591 1075 516 
Q 1375 441 1709 441 
Q 2250 441 2565 725 
Q 2881 1009 2881 1497 
Q 2881 1984 2565 2268 
Q 2250 2553 1709 2553 
Q 1456 2553 1204 2497 
Q 953 2441 691 2322 
L 691 4666 
z
" transform="scale(0.015625)"/>
       </defs>
       <use xlink:href="#DejaVuSans-35"/>
       <use xlink:href="#DejaVuSans-30" x="63.623047"/>
       <use xlink:href="#DejaVuSans-30" x="127.246094"/>
      </g>
     </g>
    </g>
    <g id="text_7">
     <!-- epoch -->
     <g transform="translate(220.931875 335.860562) scale(0.1 -0.1)">
      <defs>
       <path id="DejaVuSans-65" d="M 3597 1894 
L 3597 1613 
L 953 1613 
Q 991 1019 1311 708 
Q 1631 397 2203 397 
Q 2534 397 2845 478 
Q 3156 559 3463 722 
L 3463 178 
Q 3153 47 2828 -22 
Q 2503 -91 2169 -91 
Q 1331 -91 842 396 
Q 353 884 353 1716 
Q 353 2575 817 3079 
Q 1281 3584 2069 3584 
Q 2775 3584 3186 3129 
Q 3597 2675 3597 1894 
z
M 3022 2063 
Q 3016 2534 2758 2815 
Q 2500 3097 2075 3097 
Q 1594 3097 1305 2825 
Q 1016 2553 972 2059 
L 3022 2063 
z
" transform="scale(0.015625)"/>
       <path id="DejaVuSans-70" d="M 1159 525 
L 1159 -1331 
L 581 -1331 
L 581 3500 
L 1159 3500 
L 1159 2969 
Q 1341 3281 1617 3432 
Q 1894 3584 2278 3584 
Q 2916 3584 3314 3078 
Q 3713 2572 3713 1747 
Q 3713 922 3314 415 
Q 2916 -91 2278 -91 
Q 1894 -91 1617 61 
Q 1341 213 1159 525 
z
M 3116 1747 
Q 3116 2381 2855 2742 
Q 2594 3103 2138 3103 
Q 1681 3103 1420 2742 
Q 1159 2381 1159 1747 
Q 1159 1113 1420 752 
Q 1681 391 2138 391 
Q 2594 391 2855 752 
Q 3116 1113 3116 1747 
z
" transform="scale(0.015625)"/>
       <path id="DejaVuSans-6f" d="M 1959 3097 
Q 1497 3097 1228 2736 
Q 959 2375 959 1747 
Q 959 1119 1226 758 
Q 1494 397 1959 397 
Q 2419 397 2687 759 
Q 2956 1122 2956 1747 
Q 2956 2369 2687 2733 
Q 2419 3097 1959 3097 
z
M 1959 3584 
Q 2709 3584 3137 3096 
Q 3566 2609 3566 1747 
Q 3566 888 3137 398 
Q 2709 -91 1959 -91 
Q 1206 -91 779 398 
Q 353 888 353 1747 
Q 353 2609 779 3096 
Q 1206 3584 1959 3584 
z
" transform="scale(0.015625)"/>
       <path id="DejaVuSans-63" d="M 3122 3366 
L 3122 2828 
Q 2878 2963 2633 3030 
Q 2388 3097 2138 3097 
Q 1578 3097 1268 2742 
Q 959 2388 959 1747 
Q 959 1106 1268 751 
Q 1578 397 2138 397 
Q 2388 397 2633 464 
Q 2878 531 3122 666 
L 3122 134 
Q 2881 22 2623 -34 
Q 2366 -91 2075 -91 
Q 1284 -91 818 406 
Q 353 903 353 1747 
Q 353 2603 823 3093 
Q 1294 3584 2113 3584 
Q 2378 3584 2631 3529 
Q 2884 3475 3122 3366 
z
" transform="scale(0.015625)"/>
       <path id="DejaVuSans-68" d="M 3513 2113 
L 3513 0 
L 2938 0 
L 2938 2094 
Q 2938 2591 2744 2837 
Q 2550 3084 2163 3084 
Q 1697 3084 1428 2787 
Q 1159 2491 1159 1978 
L 1159 0 
L 581 0 
L 581 4863 
L 1159 4863 
L 1159 2956 
Q 1366 3272 1645 3428 
Q 1925 3584 2291 3584 
Q 2894 3584 3203 3211 
Q 3513 2838 3513 2113 
z
" transform="scale(0.015625)"/>
      </defs>
      <use xlink:href="#DejaVuSans-65"/>
      <use xlink:href="#DejaVuSans-70" x="61.523438"/>
      <use xlink:href="#DejaVuSans-6f" x="125"/>
      <use xlink:href="#DejaVuSans-63" x="186.181641"/>
      <use xlink:href="#DejaVuSans-68" x="241.162109"/>
     </g>
    </g>
   </g>
   <g id="matplotlib.axis_2">
    <g id="ytick_1">
     <g id="line2d_7">
      <defs>
       <path id="m0c926e0e47" d="M 0 0 
L -3.5 0 
" style="stroke: #000000; stroke-width: 0.8"/>
      </defs>
      <g>
       <use xlink:href="#m0c926e0e47" x="57.6" y="269.675915" style="stroke: #000000; stroke-width: 0.8"/>
      </g>
     </g>
     <g id="text_8">
      <!-- 0.2 -->
      <g transform="translate(34.696875 273.475133) scale(0.1 -0.1)">
       <defs>
        <path id="DejaVuSans-2e" d="M 684 794 
L 1344 794 
L 1344 0 
L 684 0 
L 684 794 
z
" transform="scale(0.015625)"/>
       </defs>
       <use xlink:href="#DejaVuSans-30"/>
       <use xlink:href="#DejaVuSans-2e" x="63.623047"/>
       <use xlink:href="#DejaVuSans-32" x="95.410156"/>
      </g>
     </g>
    </g>
    <g id="ytick_2">
     <g id="line2d_8">
      <g>
       <use xlink:href="#m0c926e0e47" x="57.6" y="211.084745" style="stroke: #000000; stroke-width: 0.8"/>
      </g>
     </g>
     <g id="text_9">
      <!-- 0.4 -->
      <g transform="translate(34.696875 214.883964) scale(0.1 -0.1)">
       <use xlink:href="#DejaVuSans-30"/>
       <use xlink:href="#DejaVuSans-2e" x="63.623047"/>
       <use xlink:href="#DejaVuSans-34" x="95.410156"/>
      </g>
     </g>
    </g>
    <g id="ytick_3">
     <g id="line2d_9">
      <g>
       <use xlink:href="#m0c926e0e47" x="57.6" y="152.493576" style="stroke: #000000; stroke-width: 0.8"/>
      </g>
     </g>
     <g id="text_10">
      <!-- 0.6 -->
      <g transform="translate(34.696875 156.292795) scale(0.1 -0.1)">
       <defs>
        <path id="DejaVuSans-36" d="M 2113 2584 
Q 1688 2584 1439 2293 
Q 1191 2003 1191 1497 
Q 1191 994 1439 701 
Q 1688 409 2113 409 
Q 2538 409 2786 701 
Q 3034 994 3034 1497 
Q 3034 2003 2786 2293 
Q 2538 2584 2113 2584 
z
M 3366 4563 
L 3366 3988 
Q 3128 4100 2886 4159 
Q 2644 4219 2406 4219 
Q 1781 4219 1451 3797 
Q 1122 3375 1075 2522 
Q 1259 2794 1537 2939 
Q 1816 3084 2150 3084 
Q 2853 3084 3261 2657 
Q 3669 2231 3669 1497 
Q 3669 778 3244 343 
Q 2819 -91 2113 -91 
Q 1303 -91 875 529 
Q 447 1150 447 2328 
Q 447 3434 972 4092 
Q 1497 4750 2381 4750 
Q 2619 4750 2861 4703 
Q 3103 4656 3366 4563 
z
" transform="scale(0.015625)"/>
       </defs>
       <use xlink:href="#DejaVuSans-30"/>
       <use xlink:href="#DejaVuSans-2e" x="63.623047"/>
       <use xlink:href="#DejaVuSans-36" x="95.410156"/>
      </g>
     </g>
    </g>
    <g id="ytick_4">
     <g id="line2d_10">
      <g>
       <use xlink:href="#m0c926e0e47" x="57.6" y="93.902407" style="stroke: #000000; stroke-width: 0.8"/>
      </g>
     </g>
     <g id="text_11">
      <!-- 0.8 -->
      <g transform="translate(34.696875 97.701626) scale(0.1 -0.1)">
       <defs>
        <path id="DejaVuSans-38" d="M 2034 2216 
Q 1584 2216 1326 1975 
Q 1069 1734 1069 1313 
Q 1069 891 1326 650 
Q 1584 409 2034 409 
Q 2484 409 2743 651 
Q 3003 894 3003 1313 
Q 3003 1734 2745 1975 
Q 2488 2216 2034 2216 
z
M 1403 2484 
Q 997 2584 770 2862 
Q 544 3141 544 3541 
Q 544 4100 942 4425 
Q 1341 4750 2034 4750 
Q 2731 4750 3128 4425 
Q 3525 4100 3525 3541 
Q 3525 3141 3298 2862 
Q 3072 2584 2669 2484 
Q 3125 2378 3379 2068 
Q 3634 1759 3634 1313 
Q 3634 634 3220 271 
Q 2806 -91 2034 -91 
Q 1263 -91 848 271 
Q 434 634 434 1313 
Q 434 1759 690 2068 
Q 947 2378 1403 2484 
z
M 1172 3481 
Q 1172 3119 1398 2916 
Q 1625 2713 2034 2713 
Q 2441 2713 2670 2916 
Q 2900 3119 2900 3481 
Q 2900 3844 2670 4047 
Q 2441 4250 2034 4250 
Q 1625 4250 1398 4047 
Q 1172 3844 1172 3481 
z
" transform="scale(0.015625)"/>
       </defs>
       <use xlink:href="#DejaVuSans-30"/>
       <use xlink:href="#DejaVuSans-2e" x="63.623047"/>
       <use xlink:href="#DejaVuSans-38" x="95.410156"/>
      </g>
     </g>
    </g>
    <g id="text_12">
     <!-- loss value -->
     <g transform="translate(28.617187 199.432687) rotate(-90) scale(0.1 -0.1)">
      <defs>
       <path id="DejaVuSans-6c" d="M 603 4863 
L 1178 4863 
L 1178 0 
L 603 0 
L 603 4863 
z
" transform="scale(0.015625)"/>
       <path id="DejaVuSans-73" d="M 2834 3397 
L 2834 2853 
Q 2591 2978 2328 3040 
Q 2066 3103 1784 3103 
Q 1356 3103 1142 2972 
Q 928 2841 928 2578 
Q 928 2378 1081 2264 
Q 1234 2150 1697 2047 
L 1894 2003 
Q 2506 1872 2764 1633 
Q 3022 1394 3022 966 
Q 3022 478 2636 193 
Q 2250 -91 1575 -91 
Q 1294 -91 989 -36 
Q 684 19 347 128 
L 347 722 
Q 666 556 975 473 
Q 1284 391 1588 391 
Q 1994 391 2212 530 
Q 2431 669 2431 922 
Q 2431 1156 2273 1281 
Q 2116 1406 1581 1522 
L 1381 1569 
Q 847 1681 609 1914 
Q 372 2147 372 2553 
Q 372 3047 722 3315 
Q 1072 3584 1716 3584 
Q 2034 3584 2315 3537 
Q 2597 3491 2834 3397 
z
" transform="scale(0.015625)"/>
       <path id="DejaVuSans-20" transform="scale(0.015625)"/>
       <path id="DejaVuSans-76" d="M 191 3500 
L 800 3500 
L 1894 563 
L 2988 3500 
L 3597 3500 
L 2284 0 
L 1503 0 
L 191 3500 
z
" transform="scale(0.015625)"/>
       <path id="DejaVuSans-61" d="M 2194 1759 
Q 1497 1759 1228 1600 
Q 959 1441 959 1056 
Q 959 750 1161 570 
Q 1363 391 1709 391 
Q 2188 391 2477 730 
Q 2766 1069 2766 1631 
L 2766 1759 
L 2194 1759 
z
M 3341 1997 
L 3341 0 
L 2766 0 
L 2766 531 
Q 2569 213 2275 61 
Q 1981 -91 1556 -91 
Q 1019 -91 701 211 
Q 384 513 384 1019 
Q 384 1609 779 1909 
Q 1175 2209 1959 2209 
L 2766 2209 
L 2766 2266 
Q 2766 2663 2505 2880 
Q 2244 3097 1772 3097 
Q 1472 3097 1187 3025 
Q 903 2953 641 2809 
L 641 3341 
Q 956 3463 1253 3523 
Q 1550 3584 1831 3584 
Q 2591 3584 2966 3190 
Q 3341 2797 3341 1997 
z
" transform="scale(0.015625)"/>
       <path id="DejaVuSans-75" d="M 544 1381 
L 544 3500 
L 1119 3500 
L 1119 1403 
Q 1119 906 1312 657 
Q 1506 409 1894 409 
Q 2359 409 2629 706 
Q 2900 1003 2900 1516 
L 2900 3500 
L 3475 3500 
L 3475 0 
L 2900 0 
L 2900 538 
Q 2691 219 2414 64 
Q 2138 -91 1772 -91 
Q 1169 -91 856 284 
Q 544 659 544 1381 
z
M 1991 3584 
L 1991 3584 
z
" transform="scale(0.015625)"/>
      </defs>
      <use xlink:href="#DejaVuSans-6c"/>
      <use xlink:href="#DejaVuSans-6f" x="27.783203"/>
      <use xlink:href="#DejaVuSans-73" x="88.964844"/>
      <use xlink:href="#DejaVuSans-73" x="141.064453"/>
      <use xlink:href="#DejaVuSans-20" x="193.164062"/>
      <use xlink:href="#DejaVuSans-76" x="224.951172"/>
      <use xlink:href="#DejaVuSans-61" x="284.130859"/>
      <use xlink:href="#DejaVuSans-6c" x="345.410156"/>
      <use xlink:href="#DejaVuSans-75" x="373.193359"/>
      <use xlink:href="#DejaVuSans-65" x="436.572266"/>
     </g>
    </g>
   </g>
   <g id="line2d_11">
    <path d="M 73.832727 89.219623 
L 74.483338 134.470949 
L 75.133948 197.85712 
L 75.784558 244.448452 
L 76.435169 271.000947 
L 77.085779 281.542088 
L 77.736389 284.221817 
L 78.386999 284.102433 
L 79.03761 285.210794 
L 79.68822 283.977928 
L 80.33883 228.748984 
L 80.989441 252.526688 
L 81.640051 270.123619 
L 82.290661 279.254789 
L 82.941272 282.07707 
L 83.591882 284.184506 
L 84.242492 283.408463 
L 84.893103 283.251886 
L 86.194323 284.37667 
L 86.844934 230.954689 
L 87.495544 255.330578 
L 88.146154 272.665166 
L 88.796764 282.774304 
L 89.447375 287.039388 
L 90.748595 289.10307 
L 91.399206 289.664689 
L 92.700426 291.223126 
L 93.351037 229.856149 
L 94.001647 255.32217 
L 94.652257 273.644203 
L 95.302868 283.648197 
L 95.953478 288.182018 
L 96.604088 291.015823 
L 97.254698 290.558318 
L 97.905309 290.386527 
L 98.555919 291.016181 
L 99.206529 292.475351 
L 99.85714 231.599168 
L 100.50775 256.904656 
L 101.15836 275.195324 
L 101.808971 284.61261 
L 102.459581 289.522565 
L 103.110191 291.802277 
L 103.760802 292.044569 
L 104.411412 292.459717 
L 105.062022 292.588777 
L 105.712633 293.769273 
L 106.363243 233.095507 
L 107.013853 257.867389 
L 107.664463 275.842239 
L 108.315074 286.051266 
L 108.965684 290.074922 
L 109.616294 292.407354 
L 110.266905 292.481876 
L 110.917515 293.072771 
L 111.568125 293.970824 
L 112.218736 294.420513 
L 112.869346 232.653539 
L 113.519956 257.644938 
L 114.170567 275.66146 
L 114.821177 285.993748 
L 115.471787 290.405853 
L 116.122398 292.920826 
L 117.423618 292.744329 
L 118.074228 294.118398 
L 118.724839 292.805453 
L 119.375449 234.164345 
L 120.026059 258.928054 
L 120.67667 277.734615 
L 121.32728 287.387859 
L 121.97789 291.559654 
L 122.628501 293.225617 
L 123.279111 294.391379 
L 124.580332 293.766974 
L 125.230942 295.10434 
L 125.881552 232.372033 
L 126.532163 257.46305 
L 127.182773 276.90682 
L 127.833383 288.406202 
L 128.483993 292.176583 
L 129.134604 293.418082 
L 129.785214 293.892713 
L 130.435824 294.902028 
L 131.086435 295.488 
L 131.737045 294.716397 
L 132.387655 234.64362 
L 133.038266 259.678167 
L 133.688876 278.36044 
L 134.339486 288.618652 
L 134.990097 293.023951 
L 135.640707 292.872422 
L 136.291317 294.912804 
L 136.941927 294.804608 
L 137.592538 295.125822 
L 138.243148 294.433605 
L 138.893758 233.841674 
L 139.544369 259.428615 
L 140.845589 274.600183 
L 142.14681 285.160374 
L 142.79742 288.870181 
L 143.448031 289.306584 
L 144.749251 293.389321 
L 145.399862 232.293072 
L 146.050472 246.887138 
L 147.351692 270.422246 
L 148.002303 278.2413 
L 148.652913 283.201618 
L 149.303523 286.859652 
L 149.954134 288.585623 
L 150.604744 290.882805 
L 151.255354 290.650785 
L 151.905965 233.164699 
L 152.556575 248.079027 
L 153.857796 270.657199 
L 154.508406 277.763609 
L 155.159016 283.126272 
L 156.460237 289.654286 
L 157.110847 289.726874 
L 157.761457 291.336046 
L 158.412068 233.705456 
L 159.062678 247.501941 
L 160.363899 269.297204 
L 161.014509 277.076022 
L 161.665119 282.987287 
L 162.31573 286.034346 
L 163.61695 289.668055 
L 164.267561 290.345824 
L 164.918171 233.493045 
L 166.219392 257.791658 
L 166.870002 267.996704 
L 167.520612 275.975413 
L 168.171222 280.955804 
L 168.821833 284.665842 
L 169.472443 287.412667 
L 170.123053 289.184545 
L 170.773664 289.655029 
L 171.424274 233.948145 
L 173.376105 266.600537 
L 174.677326 279.480942 
L 175.327936 283.458076 
L 176.629156 288.937613 
L 177.279767 289.855229 
L 177.930377 233.414442 
L 179.231598 256.327644 
L 180.532818 273.00409 
L 181.183429 278.694383 
L 183.13526 287.488236 
L 183.78587 289.307605 
L 184.43648 233.712249 
L 185.737701 254.638023 
L 187.038921 270.758 
L 187.689532 276.819093 
L 188.990752 284.067562 
L 189.641363 286.392582 
L 190.291973 287.615269 
L 190.942583 233.697022 
L 192.243804 253.406304 
L 192.894414 262.645815 
L 194.195635 275.231692 
L 194.846245 280.164797 
L 196.798076 287.467771 
L 197.448686 233.627988 
L 198.749907 252.871169 
L 199.400517 261.861268 
L 200.701738 273.837389 
L 201.352348 277.965473 
L 202.653569 284.555987 
L 203.304179 286.470067 
L 203.95479 233.322647 
L 205.25601 252.477456 
L 205.906621 260.050927 
L 206.557231 266.296593 
L 207.207841 271.231911 
L 207.858451 277.087438 
L 208.509062 280.442789 
L 209.810282 284.735413 
L 210.460893 233.167239 
L 211.762113 250.777881 
L 213.063334 264.867174 
L 214.364555 274.88254 
L 216.316385 283.844539 
L 216.966996 233.662012 
L 218.918827 257.163707 
L 220.220047 268.617077 
L 220.870658 271.737016 
L 221.521268 277.158284 
L 222.822489 281.445303 
L 223.473099 233.164524 
L 224.77432 249.593867 
L 226.07554 261.186686 
L 226.72615 267.382486 
L 227.376761 272.044884 
L 228.027371 275.228689 
L 228.677981 277.756284 
L 229.328592 281.337116 
L 229.979202 233.476902 
L 230.629812 241.51062 
L 232.581643 260.153103 
L 233.232254 266.040118 
L 234.533474 273.75948 
L 235.834695 279.679056 
L 236.485305 233.252522 
L 238.437136 253.81342 
L 239.738357 264.969931 
L 240.388967 267.499164 
L 241.039577 272.448787 
L 241.690188 273.737208 
L 242.340798 277.945358 
L 242.991408 233.490732 
L 243.642019 240.394697 
L 246.24446 262.490071 
L 247.54568 270.37049 
L 248.846901 275.364094 
L 249.497511 233.241931 
L 250.798732 245.91268 
L 252.099953 256.293044 
L 252.750563 260.456148 
L 253.401173 265.559878 
L 254.051784 267.803819 
L 254.702394 270.925159 
L 255.353004 273.501892 
L 256.003615 233.508446 
L 257.304835 245.278338 
L 258.606056 255.493743 
L 259.256666 258.463482 
L 259.907276 263.324972 
L 260.557887 266.677686 
L 261.208497 268.884225 
L 261.859107 271.77152 
L 262.509718 233.217249 
L 263.810938 244.506023 
L 265.112159 254.368417 
L 266.413379 261.54593 
L 267.06399 265.294956 
L 267.7146 268.342508 
L 268.36521 270.343232 
L 269.015821 232.878111 
L 269.666431 239.226547 
L 270.317041 243.137991 
L 270.967652 248.627223 
L 271.618262 252.337327 
L 272.268872 256.848962 
L 274.220703 266.394246 
L 274.871314 267.846976 
L 275.521924 234.07152 
L 276.172534 237.901069 
L 277.473755 247.557949 
L 278.124365 251.012983 
L 278.774975 255.252861 
L 279.425586 258.465931 
L 280.076196 260.711998 
L 280.726806 264.264512 
L 281.377417 266.477498 
L 282.028027 234.02378 
L 284.630468 249.591065 
L 286.582299 260.2303 
L 287.232909 261.983599 
L 287.88352 265.999716 
L 288.53413 233.648453 
L 289.18474 238.020968 
L 289.835351 240.866089 
L 291.136571 249.115168 
L 293.088402 259.24458 
L 293.739013 260.912767 
L 294.389623 264.427545 
L 295.040233 233.30495 
L 297.642674 248.417825 
L 298.293285 250.723253 
L 298.943895 254.059828 
L 300.245116 258.200236 
L 300.895726 262.178348 
L 301.546336 234.082302 
L 303.498167 244.126427 
L 304.148778 246.623557 
L 304.799388 250.113697 
L 305.449998 252.313544 
L 306.100608 255.308786 
L 307.401829 259.846535 
L 308.052439 233.330374 
L 309.35366 240.379645 
L 310.00427 243.05958 
L 310.654881 246.412429 
L 311.305491 248.032973 
L 311.956101 251.708616 
L 313.257322 255.995041 
L 313.907932 258.031767 
L 314.558543 233.929095 
L 315.209153 237.142688 
L 315.859763 238.772067 
L 316.510373 242.497755 
L 317.160984 245.064635 
L 317.811594 246.734289 
L 318.462204 250.449212 
L 319.112815 251.961258 
L 319.763425 254.71048 
L 320.414035 256.206789 
L 321.064646 234.480992 
L 321.715256 236.270572 
L 324.317697 246.898741 
L 326.269528 252.93679 
L 326.920138 254.821194 
L 327.570749 233.836426 
L 329.52258 240.489924 
L 330.8238 246.181841 
L 332.125021 249.261784 
L 332.775631 252.337065 
L 333.426242 253.198337 
L 334.076852 232.732046 
L 335.378073 238.263762 
L 336.028683 240.824076 
L 336.679293 242.490875 
L 337.329903 244.806431 
L 337.980514 246.408666 
L 339.281734 250.215061 
L 339.932345 251.750323 
L 340.582955 233.771758 
L 341.233565 235.334538 
L 341.884176 237.243607 
L 342.534786 240.109612 
L 343.185396 242.420078 
L 343.836007 243.508856 
L 344.486617 245.2669 
L 345.137227 248.111811 
L 346.438448 250.797587 
L 347.089058 232.710882 
L 347.739668 235.799198 
L 348.390279 237.118941 
L 349.040889 238.963332 
L 349.691499 241.533477 
L 350.34211 242.538772 
L 351.64333 246.551632 
L 352.293941 247.07354 
L 352.944551 249.839961 
L 353.595161 233.545552 
L 354.245772 235.849383 
L 356.848213 241.966401 
L 357.498823 244.605877 
L 358.149433 245.040747 
L 358.800044 247.28534 
L 359.450654 247.578615 
L 360.101264 233.718771 
L 360.751875 236.07468 
L 362.703706 239.679325 
L 363.354316 242.392026 
L 364.004926 242.475588 
L 364.655537 244.500348 
L 365.306147 245.047592 
L 365.956757 246.662697 
L 366.607367 233.428525 
L 367.257978 235.92617 
L 367.908588 236.488291 
L 369.860419 240.868996 
L 370.511029 241.660475 
L 371.16164 243.735943 
L 371.81225 245.19124 
L 372.46286 244.848112 
L 373.113471 233.501488 
L 373.764081 234.551336 
L 375.715912 239.108979 
L 376.366522 239.809361 
L 377.017132 241.791707 
L 377.667743 242.342348 
L 378.318353 244.228786 
L 378.968963 244.388105 
L 379.619574 233.784758 
L 380.270184 233.605602 
L 380.920794 236.834684 
L 381.571405 237.11193 
L 382.222015 239.014931 
L 383.523236 240.669821 
L 384.173846 241.100012 
L 384.824456 243.800376 
L 385.475066 244.201852 
L 386.125677 233.17955 
L 386.776287 235.122503 
L 387.426897 235.258886 
L 388.077508 237.93243 
L 388.728118 238.057018 
L 389.378728 239.364188 
L 390.029339 239.76947 
L 390.679949 241.93972 
L 391.330559 242.271026 
L 391.98117 243.285584 
L 392.63178 233.713401 
L 393.28239 234.7239 
L 393.933001 236.181117 
L 395.234221 237.231611 
L 395.884831 239.83695 
L 396.535442 239.921254 
L 397.186052 240.584426 
L 397.836662 240.906215 
L 398.487273 242.166379 
L 398.487273 242.166379 
" clip-path="url(#p5374628a6f)" style="fill: none; stroke: #0000ff; stroke-width: 1.5; stroke-linecap: square"/>
   </g>
   <g id="line2d_12">
    <path d="M 73.832727 292.615454 
L 79.68822 292.592785 
L 80.33883 294.508033 
L 118.724839 294.49708 
L 126.532163 294.505636 
L 291.136571 294.494061 
L 398.487273 294.492728 
L 398.487273 294.492728 
" clip-path="url(#p5374628a6f)" style="fill: none; stroke: #008000; stroke-width: 1.5; stroke-linecap: square"/>
   </g>
   <g id="line2d_13">
    <path d="M 73.832727 53.568 
L 74.483338 98.818575 
L 75.133948 162.203349 
L 75.784558 208.792577 
L 76.435169 235.342378 
L 77.085779 245.880464 
L 77.736389 248.556967 
L 78.386999 248.434326 
L 79.03761 249.539518 
L 79.68822 248.303626 
L 80.33883 194.989937 
L 80.989441 218.765608 
L 81.640051 236.360281 
L 82.290661 245.488985 
L 82.941272 248.308664 
L 83.591882 250.413468 
L 84.242492 249.63485 
L 84.893103 249.475819 
L 86.194323 250.596212 
L 86.844934 197.18775 
L 87.495544 221.563259 
L 88.146154 238.897197 
L 88.796764 249.005361 
L 89.447375 253.26924 
L 90.748595 255.330146 
L 91.399206 255.890338 
L 92.700426 257.446081 
L 93.351037 196.091541 
L 94.001647 221.557619 
L 94.652257 239.879364 
L 95.302868 249.882699 
L 95.953478 254.415537 
L 96.604088 257.248155 
L 97.254698 256.78934 
L 97.905309 256.616205 
L 98.555919 257.244523 
L 99.206529 258.702416 
L 99.85714 197.837214 
L 100.50775 223.14275 
L 101.15836 241.433091 
L 101.808971 250.849657 
L 102.459581 255.758573 
L 103.110191 258.037032 
L 103.760802 258.277957 
L 104.411412 258.691699 
L 105.062022 258.819361 
L 105.712633 259.99852 
L 106.363243 199.334933 
L 107.013853 224.10681 
L 107.664463 242.081271 
L 108.315074 252.289526 
L 108.965684 256.312077 
L 109.616294 258.643191 
L 110.266905 258.716285 
L 110.917515 259.305717 
L 111.568125 260.202314 
L 112.218736 260.650604 
L 112.869346 198.89334 
L 113.519956 223.884699 
L 114.170567 241.900807 
L 114.821177 252.232261 
L 115.471787 256.6432 
L 116.122398 259.156805 
L 117.423618 258.977292 
L 118.074228 260.349846 
L 118.724839 259.035447 
L 119.375449 200.403779 
L 120.026059 225.167414 
L 120.67667 243.973516 
L 121.32728 253.625883 
L 121.97789 257.796482 
L 122.628501 259.461033 
L 123.279111 260.625276 
L 124.580332 259.997769 
L 125.230942 261.333664 
L 125.881552 198.610681 
L 126.532163 223.701598 
L 127.182773 243.144888 
L 127.833383 254.643375 
L 128.483993 258.412525 
L 129.134604 259.652572 
L 129.785214 260.125632 
L 130.435824 261.133345 
L 131.086435 261.717748 
L 131.737045 260.94463 
L 132.387655 200.881256 
L 133.038266 225.915685 
L 133.688876 244.597443 
L 134.339486 254.854721 
L 134.990097 259.258763 
L 135.640707 259.105756 
L 136.291317 261.144547 
L 136.941927 261.03474 
L 137.592538 261.354364 
L 138.243148 260.660635 
L 138.893758 200.078087 
L 139.544369 225.66492 
L 140.845589 240.836125 
L 142.14681 251.39567 
L 142.79742 255.10508 
L 143.448031 255.541055 
L 144.749251 259.62287 
L 145.399862 198.528918 
L 146.050472 213.122958 
L 147.351692 236.657729 
L 148.002303 244.476469 
L 148.652913 249.436382 
L 149.303523 253.093944 
L 149.954134 254.819405 
L 150.604744 257.116067 
L 151.255354 256.883532 
L 151.905965 199.400021 
L 152.556575 214.314306 
L 153.857796 236.892124 
L 154.508406 243.998207 
L 155.159016 249.360468 
L 156.460237 255.887539 
L 157.110847 255.959612 
L 157.761457 257.568268 
L 158.412068 199.940176 
L 159.062678 213.736617 
L 160.363899 235.531548 
L 161.014509 243.310074 
L 161.665119 249.220976 
L 162.31573 252.267612 
L 163.61695 255.9004 
L 164.267561 256.577693 
L 164.918171 199.727198 
L 166.219392 224.025649 
L 166.870002 234.230507 
L 167.520612 242.20895 
L 168.171222 247.188996 
L 168.821833 250.898663 
L 169.472443 253.645073 
L 170.123053 255.416519 
L 170.773664 255.886566 
L 171.424274 200.181712 
L 173.376105 232.833777 
L 174.677326 245.713645 
L 175.327936 249.690438 
L 176.629156 255.169211 
L 177.279767 256.086435 
L 177.930377 199.64746 
L 179.231598 222.560522 
L 180.532818 239.236579 
L 181.183429 244.92661 
L 183.13526 253.719459 
L 183.78587 255.538457 
L 184.43648 199.944707 
L 185.737701 220.87035 
L 187.038921 236.989987 
L 187.689532 243.05084 
L 188.990752 250.298719 
L 189.641363 252.623425 
L 190.291973 253.845785 
L 190.942583 199.928948 
L 192.243804 219.638108 
L 192.894414 228.877492 
L 194.195635 241.462967 
L 194.846245 246.395823 
L 196.798076 253.697938 
L 197.448686 199.859399 
L 198.749907 219.102475 
L 199.400517 228.092456 
L 200.701738 240.068219 
L 201.352348 244.196081 
L 202.653569 250.786079 
L 203.304179 252.699889 
L 203.95479 199.553586 
L 205.25601 218.708299 
L 205.906621 226.281661 
L 206.557231 232.527178 
L 207.207841 237.462322 
L 207.858451 243.317653 
L 208.509062 246.672781 
L 209.810282 250.96492 
L 210.460893 199.397733 
L 211.762113 217.008279 
L 213.063334 231.09735 
L 214.364555 241.112392 
L 216.316385 250.073763 
L 216.966996 199.892087 
L 218.918827 223.393611 
L 220.220047 234.846733 
L 220.870658 237.966515 
L 221.521268 243.387603 
L 222.822489 247.674234 
L 223.473099 199.394206 
L 224.77432 215.82348 
L 226.07554 227.416119 
L 226.72615 233.611801 
L 227.376761 238.274064 
L 228.027371 241.457703 
L 228.677981 243.985137 
L 229.328592 247.565798 
L 229.979202 199.706226 
L 230.629812 207.739918 
L 232.581643 226.382204 
L 233.232254 232.269114 
L 234.533474 239.98821 
L 235.834695 245.907477 
L 236.485305 199.481505 
L 238.437136 220.042281 
L 239.738357 231.198618 
L 240.388967 233.727746 
L 241.039577 238.677234 
L 241.690188 239.965528 
L 242.340798 244.173547 
L 242.991408 199.719392 
L 243.642019 206.62334 
L 246.24446 228.71847 
L 247.54568 236.598692 
L 248.846901 241.592052 
L 249.497511 199.470312 
L 250.798732 212.141009 
L 252.099953 222.521268 
L 252.750563 226.684298 
L 253.401173 231.787945 
L 254.051784 234.031786 
L 254.702394 237.153034 
L 255.353004 239.729657 
L 256.003615 199.736557 
L 257.304835 211.506405 
L 258.606056 221.721713 
L 259.256666 224.691387 
L 259.907276 229.552799 
L 260.557887 232.90543 
L 261.208497 235.111886 
L 261.859107 237.99908 
L 262.509718 199.445107 
L 263.810938 210.733837 
L 265.112159 220.596152 
L 266.413379 227.773548 
L 267.06399 231.522503 
L 267.7146 234.569968 
L 268.36521 236.570614 
L 269.015821 199.105742 
L 269.666431 205.454169 
L 270.317041 209.365586 
L 270.967652 214.854793 
L 271.618262 218.564852 
L 272.268872 223.07644 
L 274.220703 232.621532 
L 274.871314 234.074191 
L 275.521924 200.29894 
L 276.172534 204.128481 
L 277.473755 213.785309 
L 278.124365 217.240308 
L 278.774975 221.480142 
L 279.425586 224.693168 
L 280.076196 226.939183 
L 280.726806 230.491636 
L 281.377417 232.704553 
L 282.028027 200.251009 
L 284.630468 215.818206 
L 286.582299 226.457315 
L 287.232909 228.210566 
L 287.88352 232.226631 
L 288.53413 199.875498 
L 289.18474 204.248005 
L 289.835351 207.093117 
L 291.136571 215.342144 
L 293.088402 225.471446 
L 293.739013 227.139589 
L 294.389623 230.654325 
L 295.040233 199.531838 
L 297.642674 214.644652 
L 298.293285 216.950045 
L 298.943895 220.286585 
L 300.245116 224.426923 
L 300.895726 228.405 
L 301.546336 200.309042 
L 303.498167 210.353132 
L 304.148778 212.850244 
L 304.799388 216.340358 
L 305.449998 218.540179 
L 306.100608 221.53539 
L 307.401829 226.073065 
L 308.052439 199.556983 
L 309.35366 206.606237 
L 310.00427 209.286154 
L 310.654881 212.638986 
L 311.305491 214.259512 
L 311.956101 217.935129 
L 313.257322 222.221506 
L 313.907932 224.258193 
L 314.558543 200.155581 
L 315.209153 203.369166 
L 315.859763 204.998536 
L 316.510373 208.724216 
L 317.160984 211.291078 
L 317.811594 212.960714 
L 318.462204 216.67562 
L 319.112815 218.18764 
L 319.763425 220.936844 
L 320.414035 222.433122 
L 321.064646 200.707366 
L 321.715256 202.496945 
L 324.317697 213.125062 
L 326.269528 219.163049 
L 326.920138 221.047437 
L 327.570749 200.062703 
L 329.52258 206.716175 
L 330.8238 212.408074 
L 332.125021 215.487983 
L 332.775631 218.563246 
L 333.426242 219.424492 
L 334.076852 198.958227 
L 335.378073 204.489934 
L 336.028683 207.05024 
L 336.679293 208.71703 
L 337.329903 211.032577 
L 337.980514 212.634795 
L 339.281734 216.441164 
L 339.932345 217.976399 
L 340.582955 199.997851 
L 341.233565 201.560632 
L 341.884176 203.469701 
L 342.534786 206.335697 
L 343.185396 208.646154 
L 343.836007 209.734924 
L 344.486617 211.492959 
L 345.137227 214.337853 
L 346.438448 217.023602 
L 347.089058 198.936906 
L 347.739668 202.025222 
L 348.390279 203.344956 
L 349.040889 205.189347 
L 349.691499 207.759484 
L 350.34211 208.76477 
L 351.64333 212.777613 
L 352.293941 213.299503 
L 352.944551 216.065915 
L 353.595161 199.771515 
L 354.245772 202.075337 
L 356.848213 208.192337 
L 357.498823 210.831805 
L 358.149433 211.266667 
L 358.800044 213.511241 
L 359.450654 213.804508 
L 360.101264 199.944663 
L 360.751875 202.300573 
L 362.703706 205.905209 
L 363.354316 208.617901 
L 364.004926 208.701463 
L 364.655537 210.726206 
L 365.306147 211.273442 
L 365.956757 212.888537 
L 366.607367 199.654366 
L 367.257978 202.15201 
L 367.908588 202.714132 
L 369.860419 207.094819 
L 370.511029 207.886289 
L 371.16164 209.961749 
L 371.81225 211.417045 
L 372.46286 211.073909 
L 373.113471 199.727276 
L 373.764081 200.777124 
L 375.715912 205.334758 
L 376.366522 206.03514 
L 377.017132 208.017478 
L 377.667743 208.568109 
L 378.318353 210.45454 
L 378.968963 210.613859 
L 379.619574 200.010511 
L 380.270184 199.831347 
L 380.920794 203.060429 
L 381.571405 203.337666 
L 382.222015 205.240667 
L 383.523236 206.895548 
L 384.173846 207.325739 
L 384.824456 210.026095 
L 385.475066 210.427562 
L 386.125677 199.405259 
L 386.776287 201.348204 
L 387.426897 201.484587 
L 388.077508 204.15813 
L 388.728118 204.28271 
L 389.378728 205.58988 
L 390.029339 205.995153 
L 390.679949 208.165403 
L 391.330559 208.496709 
L 391.98117 209.511259 
L 392.63178 199.939076 
L 393.28239 200.949566 
L 393.933001 202.406783 
L 395.234221 203.457268 
L 395.884831 206.062607 
L 396.535442 206.146911 
L 397.186052 206.810074 
L 397.836662 207.131864 
L 398.487273 208.392027 
L 398.487273 208.392027 
" clip-path="url(#p5374628a6f)" style="fill: none; stroke: #ff0000; stroke-width: 1.5; stroke-linecap: square"/>
   </g>
   <g id="patch_3">
    <path d="M 57.6 307.584 
L 57.6 41.472 
" style="fill: none; stroke: #000000; stroke-width: 0.8; stroke-linejoin: miter; stroke-linecap: square"/>
   </g>
   <g id="patch_4">
    <path d="M 414.72 307.584 
L 414.72 41.472 
" style="fill: none; stroke: #000000; stroke-width: 0.8; stroke-linejoin: miter; stroke-linecap: square"/>
   </g>
   <g id="patch_5">
    <path d="M 57.6 307.584 
L 414.72 307.584 
" style="fill: none; stroke: #000000; stroke-width: 0.8; stroke-linejoin: miter; stroke-linecap: square"/>
   </g>
   <g id="patch_6">
    <path d="M 57.6 41.472 
L 414.72 41.472 
" style="fill: none; stroke: #000000; stroke-width: 0.8; stroke-linejoin: miter; stroke-linecap: square"/>
   </g>
   <g id="text_13">
    <!-- The loss curve on λ_0.00025_non_iid/host/6 -->
    <g transform="translate(104.905313 35.472) scale(0.12 -0.12)">
     <defs>
      <path id="DejaVuSans-54" d="M -19 4666 
L 3928 4666 
L 3928 4134 
L 2272 4134 
L 2272 0 
L 1638 0 
L 1638 4134 
L -19 4134 
L -19 4666 
z
" transform="scale(0.015625)"/>
      <path id="DejaVuSans-72" d="M 2631 2963 
Q 2534 3019 2420 3045 
Q 2306 3072 2169 3072 
Q 1681 3072 1420 2755 
Q 1159 2438 1159 1844 
L 1159 0 
L 581 0 
L 581 3500 
L 1159 3500 
L 1159 2956 
Q 1341 3275 1631 3429 
Q 1922 3584 2338 3584 
Q 2397 3584 2469 3576 
Q 2541 3569 2628 3553 
L 2631 2963 
z
" transform="scale(0.015625)"/>
      <path id="DejaVuSans-6e" d="M 3513 2113 
L 3513 0 
L 2938 0 
L 2938 2094 
Q 2938 2591 2744 2837 
Q 2550 3084 2163 3084 
Q 1697 3084 1428 2787 
Q 1159 2491 1159 1978 
L 1159 0 
L 581 0 
L 581 3500 
L 1159 3500 
L 1159 2956 
Q 1366 3272 1645 3428 
Q 1925 3584 2291 3584 
Q 2894 3584 3203 3211 
Q 3513 2838 3513 2113 
z
" transform="scale(0.015625)"/>
      <path id="DejaVuSans-3bb" d="M 1981 4316 
L 3597 0 
L 2988 0 
L 2006 2588 
L 800 0 
L 191 0 
L 1725 3356 
L 1494 3975 
Q 1347 4369 1013 4369 
L 713 4369 
L 713 4863 
L 1078 4856 
Q 1784 4847 1981 4316 
z
" transform="scale(0.015625)"/>
      <path id="DejaVuSans-5f" d="M 3263 -1063 
L 3263 -1509 
L -63 -1509 
L -63 -1063 
L 3263 -1063 
z
" transform="scale(0.015625)"/>
      <path id="DejaVuSans-69" d="M 603 3500 
L 1178 3500 
L 1178 0 
L 603 0 
L 603 3500 
z
M 603 4863 
L 1178 4863 
L 1178 4134 
L 603 4134 
L 603 4863 
z
" transform="scale(0.015625)"/>
      <path id="DejaVuSans-64" d="M 2906 2969 
L 2906 4863 
L 3481 4863 
L 3481 0 
L 2906 0 
L 2906 525 
Q 2725 213 2448 61 
Q 2172 -91 1784 -91 
Q 1150 -91 751 415 
Q 353 922 353 1747 
Q 353 2572 751 3078 
Q 1150 3584 1784 3584 
Q 2172 3584 2448 3432 
Q 2725 3281 2906 2969 
z
M 947 1747 
Q 947 1113 1208 752 
Q 1469 391 1925 391 
Q 2381 391 2643 752 
Q 2906 1113 2906 1747 
Q 2906 2381 2643 2742 
Q 2381 3103 1925 3103 
Q 1469 3103 1208 2742 
Q 947 2381 947 1747 
z
" transform="scale(0.015625)"/>
      <path id="DejaVuSans-2f" d="M 1625 4666 
L 2156 4666 
L 531 -594 
L 0 -594 
L 1625 4666 
z
" transform="scale(0.015625)"/>
      <path id="DejaVuSans-74" d="M 1172 4494 
L 1172 3500 
L 2356 3500 
L 2356 3053 
L 1172 3053 
L 1172 1153 
Q 1172 725 1289 603 
Q 1406 481 1766 481 
L 2356 481 
L 2356 0 
L 1766 0 
Q 1100 0 847 248 
Q 594 497 594 1153 
L 594 3053 
L 172 3053 
L 172 3500 
L 594 3500 
L 594 4494 
L 1172 4494 
z
" transform="scale(0.015625)"/>
     </defs>
     <use xlink:href="#DejaVuSans-54"/>
     <use xlink:href="#DejaVuSans-68" x="61.083984"/>
     <use xlink:href="#DejaVuSans-65" x="124.462891"/>
     <use xlink:href="#DejaVuSans-20" x="185.986328"/>
     <use xlink:href="#DejaVuSans-6c" x="217.773438"/>
     <use xlink:href="#DejaVuSans-6f" x="245.556641"/>
     <use xlink:href="#DejaVuSans-73" x="306.738281"/>
     <use xlink:href="#DejaVuSans-73" x="358.837891"/>
     <use xlink:href="#DejaVuSans-20" x="410.9375"/>
     <use xlink:href="#DejaVuSans-63" x="442.724609"/>
     <use xlink:href="#DejaVuSans-75" x="497.705078"/>
     <use xlink:href="#DejaVuSans-72" x="561.083984"/>
     <use xlink:href="#DejaVuSans-76" x="602.197266"/>
     <use xlink:href="#DejaVuSans-65" x="661.376953"/>
     <use xlink:href="#DejaVuSans-20" x="722.900391"/>
     <use xlink:href="#DejaVuSans-6f" x="754.6875"/>
     <use xlink:href="#DejaVuSans-6e" x="815.869141"/>
     <use xlink:href="#DejaVuSans-20" x="879.248047"/>
     <use xlink:href="#DejaVuSans-3bb" x="911.035156"/>
     <use xlink:href="#DejaVuSans-5f" x="970.214844"/>
     <use xlink:href="#DejaVuSans-30" x="1020.214844"/>
     <use xlink:href="#DejaVuSans-2e" x="1083.837891"/>
     <use xlink:href="#DejaVuSans-30" x="1115.625"/>
     <use xlink:href="#DejaVuSans-30" x="1179.248047"/>
     <use xlink:href="#DejaVuSans-30" x="1242.871094"/>
     <use xlink:href="#DejaVuSans-32" x="1306.494141"/>
     <use xlink:href="#DejaVuSans-35" x="1370.117188"/>
     <use xlink:href="#DejaVuSans-5f" x="1433.740234"/>
     <use xlink:href="#DejaVuSans-6e" x="1483.740234"/>
     <use xlink:href="#DejaVuSans-6f" x="1547.119141"/>
     <use xlink:href="#DejaVuSans-6e" x="1608.300781"/>
     <use xlink:href="#DejaVuSans-5f" x="1671.679688"/>
     <use xlink:href="#DejaVuSans-69" x="1721.679688"/>
     <use xlink:href="#DejaVuSans-69" x="1749.462891"/>
     <use xlink:href="#DejaVuSans-64" x="1777.246094"/>
     <use xlink:href="#DejaVuSans-2f" x="1840.722656"/>
     <use xlink:href="#DejaVuSans-68" x="1874.414062"/>
     <use xlink:href="#DejaVuSans-6f" x="1937.792969"/>
     <use xlink:href="#DejaVuSans-73" x="1998.974609"/>
     <use xlink:href="#DejaVuSans-74" x="2051.074219"/>
     <use xlink:href="#DejaVuSans-2f" x="2090.283203"/>
     <use xlink:href="#DejaVuSans-36" x="2123.974609"/>
    </g>
   </g>
   <g id="legend_1">
    <g id="patch_7">
     <path d="M 317.418438 94.34075 
L 407.72 94.34075 
Q 409.72 94.34075 409.72 92.34075 
L 409.72 48.472 
Q 409.72 46.472 407.72 46.472 
L 317.418438 46.472 
Q 315.418438 46.472 315.418438 48.472 
L 315.418438 92.34075 
Q 315.418438 94.34075 317.418438 94.34075 
z
" style="fill: #ffffff; opacity: 0.8; stroke: #cccccc; stroke-linejoin: miter"/>
    </g>
    <g id="line2d_14">
     <path d="M 319.418438 54.570438 
L 329.418438 54.570438 
L 339.418438 54.570438 
" style="fill: none; stroke: #0000ff; stroke-width: 1.5; stroke-linecap: square"/>
    </g>
    <g id="text_14">
     <!-- obj_loss -->
     <g transform="translate(347.418438 58.070438) scale(0.1 -0.1)">
      <defs>
       <path id="DejaVuSans-62" d="M 3116 1747 
Q 3116 2381 2855 2742 
Q 2594 3103 2138 3103 
Q 1681 3103 1420 2742 
Q 1159 2381 1159 1747 
Q 1159 1113 1420 752 
Q 1681 391 2138 391 
Q 2594 391 2855 752 
Q 3116 1113 3116 1747 
z
M 1159 2969 
Q 1341 3281 1617 3432 
Q 1894 3584 2278 3584 
Q 2916 3584 3314 3078 
Q 3713 2572 3713 1747 
Q 3713 922 3314 415 
Q 2916 -91 2278 -91 
Q 1894 -91 1617 61 
Q 1341 213 1159 525 
L 1159 0 
L 581 0 
L 581 4863 
L 1159 4863 
L 1159 2969 
z
" transform="scale(0.015625)"/>
       <path id="DejaVuSans-6a" d="M 603 3500 
L 1178 3500 
L 1178 -63 
Q 1178 -731 923 -1031 
Q 669 -1331 103 -1331 
L -116 -1331 
L -116 -844 
L 38 -844 
Q 366 -844 484 -692 
Q 603 -541 603 -63 
L 603 3500 
z
M 603 4863 
L 1178 4863 
L 1178 4134 
L 603 4134 
L 603 4863 
z
" transform="scale(0.015625)"/>
      </defs>
      <use xlink:href="#DejaVuSans-6f"/>
      <use xlink:href="#DejaVuSans-62" x="61.181641"/>
      <use xlink:href="#DejaVuSans-6a" x="124.658203"/>
      <use xlink:href="#DejaVuSans-5f" x="152.441406"/>
      <use xlink:href="#DejaVuSans-6c" x="202.441406"/>
      <use xlink:href="#DejaVuSans-6f" x="230.224609"/>
      <use xlink:href="#DejaVuSans-73" x="291.40625"/>
      <use xlink:href="#DejaVuSans-73" x="343.505859"/>
     </g>
    </g>
    <g id="line2d_15">
     <path d="M 319.418438 69.526688 
L 329.418438 69.526688 
L 339.418438 69.526688 
" style="fill: none; stroke: #008000; stroke-width: 1.5; stroke-linecap: square"/>
    </g>
    <g id="text_15">
     <!-- reg_loss -->
     <g transform="translate(347.418438 73.026688) scale(0.1 -0.1)">
      <defs>
       <path id="DejaVuSans-67" d="M 2906 1791 
Q 2906 2416 2648 2759 
Q 2391 3103 1925 3103 
Q 1463 3103 1205 2759 
Q 947 2416 947 1791 
Q 947 1169 1205 825 
Q 1463 481 1925 481 
Q 2391 481 2648 825 
Q 2906 1169 2906 1791 
z
M 3481 434 
Q 3481 -459 3084 -895 
Q 2688 -1331 1869 -1331 
Q 1566 -1331 1297 -1286 
Q 1028 -1241 775 -1147 
L 775 -588 
Q 1028 -725 1275 -790 
Q 1522 -856 1778 -856 
Q 2344 -856 2625 -561 
Q 2906 -266 2906 331 
L 2906 616 
Q 2728 306 2450 153 
Q 2172 0 1784 0 
Q 1141 0 747 490 
Q 353 981 353 1791 
Q 353 2603 747 3093 
Q 1141 3584 1784 3584 
Q 2172 3584 2450 3431 
Q 2728 3278 2906 2969 
L 2906 3500 
L 3481 3500 
L 3481 434 
z
" transform="scale(0.015625)"/>
      </defs>
      <use xlink:href="#DejaVuSans-72"/>
      <use xlink:href="#DejaVuSans-65" x="38.863281"/>
      <use xlink:href="#DejaVuSans-67" x="100.386719"/>
      <use xlink:href="#DejaVuSans-5f" x="163.863281"/>
      <use xlink:href="#DejaVuSans-6c" x="213.863281"/>
      <use xlink:href="#DejaVuSans-6f" x="241.646484"/>
      <use xlink:href="#DejaVuSans-73" x="302.828125"/>
      <use xlink:href="#DejaVuSans-73" x="354.927734"/>
     </g>
    </g>
    <g id="line2d_16">
     <path d="M 319.418438 84.482938 
L 329.418438 84.482938 
L 339.418438 84.482938 
" style="fill: none; stroke: #ff0000; stroke-width: 1.5; stroke-linecap: square"/>
    </g>
    <g id="text_16">
     <!-- overall_loss -->
     <g transform="translate(347.418438 87.982938) scale(0.1 -0.1)">
      <use xlink:href="#DejaVuSans-6f"/>
      <use xlink:href="#DejaVuSans-76" x="61.181641"/>
      <use xlink:href="#DejaVuSans-65" x="120.361328"/>
      <use xlink:href="#DejaVuSans-72" x="181.884766"/>
      <use xlink:href="#DejaVuSans-61" x="222.998047"/>
      <use xlink:href="#DejaVuSans-6c" x="284.277344"/>
      <use xlink:href="#DejaVuSans-6c" x="312.060547"/>
      <use xlink:href="#DejaVuSans-5f" x="339.84375"/>
      <use xlink:href="#DejaVuSans-6c" x="389.84375"/>
      <use xlink:href="#DejaVuSans-6f" x="417.626953"/>
      <use xlink:href="#DejaVuSans-73" x="478.808594"/>
      <use xlink:href="#DejaVuSans-73" x="530.908203"/>
     </g>
    </g>
   </g>
  </g>
 </g>
 <defs>
  <clipPath id="p5374628a6f">
   <rect x="57.6" y="41.472" width="357.12" height="266.112"/>
  </clipPath>
 </defs>
</svg>
