<?xml version="1.0" encoding="utf-8" standalone="no"?>
<!DOCTYPE svg PUBLIC "-//W3C//DTD SVG 1.1//EN"
  "http://www.w3.org/Graphics/SVG/1.1/DTD/svg11.dtd">
<svg xmlns:xlink="http://www.w3.org/1999/xlink" width="460.8pt" height="345.6pt" viewBox="0 0 460.8 345.6" xmlns="http://www.w3.org/2000/svg" version="1.1">
 <metadata>
  <rdf:RDF xmlns:dc="http://purl.org/dc/elements/1.1/" xmlns:cc="http://creativecommons.org/ns#" xmlns:rdf="http://www.w3.org/1999/02/22-rdf-syntax-ns#">
   <cc:Work>
    <dc:type rdf:resource="http://purl.org/dc/dcmitype/StillImage"/>
    <dc:date>2023-04-13T09:22:58.900283</dc:date>
    <dc:format>image/svg+xml</dc:format>
    <dc:creator>
     <cc:Agent>
      <dc:title>Matplotlib v3.7.1, https://matplotlib.org/</dc:title>
     </cc:Agent>
    </dc:creator>
   </cc:Work>
  </rdf:RDF>
 </metadata>
 <defs>
  <style type="text/css">*{stroke-linejoin: round; stroke-linecap: butt}</style>
 </defs>
 <g id="figure_1">
  <g id="patch_1">
   <path d="M 0 345.6 
L 460.8 345.6 
L 460.8 0 
L 0 0 
z
" style="fill: #ffffff"/>
  </g>
  <g id="axes_1">
   <g id="patch_2">
    <path d="M 57.6 307.584 
L 414.72 307.584 
L 414.72 41.472 
L 57.6 41.472 
z
" style="fill: #ffffff"/>
   </g>
   <g id="matplotlib.axis_1">
    <g id="xtick_1">
     <g id="line2d_1">
      <defs>
       <path id="m2256268194" d="M 0 0 
L 0 3.5 
" style="stroke: #000000; stroke-width: 0.8"/>
      </defs>
      <g>
       <use xlink:href="#m2256268194" x="73.832727" y="307.584" style="stroke: #000000; stroke-width: 0.8"/>
      </g>
     </g>
     <g id="text_1">
      <!-- 0 -->
      <g transform="translate(70.651477 322.182437) scale(0.1 -0.1)">
       <defs>
        <path id="DejaVuSans-30" d="M 2034 4250 
Q 1547 4250 1301 3770 
Q 1056 3291 1056 2328 
Q 1056 1369 1301 889 
Q 1547 409 2034 409 
Q 2525 409 2770 889 
Q 3016 1369 3016 2328 
Q 3016 3291 2770 3770 
Q 2525 4250 2034 4250 
z
M 2034 4750 
Q 2819 4750 3233 4129 
Q 3647 3509 3647 2328 
Q 3647 1150 3233 529 
Q 2819 -91 2034 -91 
Q 1250 -91 836 529 
Q 422 1150 422 2328 
Q 422 3509 836 4129 
Q 1250 4750 2034 4750 
z
" transform="scale(0.015625)"/>
       </defs>
       <use xlink:href="#DejaVuSans-30"/>
      </g>
     </g>
    </g>
    <g id="xtick_2">
     <g id="line2d_2">
      <g>
       <use xlink:href="#m2256268194" x="138.893758" y="307.584" style="stroke: #000000; stroke-width: 0.8"/>
      </g>
     </g>
     <g id="text_2">
      <!-- 100 -->
      <g transform="translate(129.350008 322.182437) scale(0.1 -0.1)">
       <defs>
        <path id="DejaVuSans-31" d="M 794 531 
L 1825 531 
L 1825 4091 
L 703 3866 
L 703 4441 
L 1819 4666 
L 2450 4666 
L 2450 531 
L 3481 531 
L 3481 0 
L 794 0 
L 794 531 
z
" transform="scale(0.015625)"/>
       </defs>
       <use xlink:href="#DejaVuSans-31"/>
       <use xlink:href="#DejaVuSans-30" x="63.623047"/>
       <use xlink:href="#DejaVuSans-30" x="127.246094"/>
      </g>
     </g>
    </g>
    <g id="xtick_3">
     <g id="line2d_3">
      <g>
       <use xlink:href="#m2256268194" x="203.95479" y="307.584" style="stroke: #000000; stroke-width: 0.8"/>
      </g>
     </g>
     <g id="text_3">
      <!-- 200 -->
      <g transform="translate(194.41104 322.182437) scale(0.1 -0.1)">
       <defs>
        <path id="DejaVuSans-32" d="M 1228 531 
L 3431 531 
L 3431 0 
L 469 0 
L 469 531 
Q 828 903 1448 1529 
Q 2069 2156 2228 2338 
Q 2531 2678 2651 2914 
Q 2772 3150 2772 3378 
Q 2772 3750 2511 3984 
Q 2250 4219 1831 4219 
Q 1534 4219 1204 4116 
Q 875 4013 500 3803 
L 500 4441 
Q 881 4594 1212 4672 
Q 1544 4750 1819 4750 
Q 2544 4750 2975 4387 
Q 3406 4025 3406 3419 
Q 3406 3131 3298 2873 
Q 3191 2616 2906 2266 
Q 2828 2175 2409 1742 
Q 1991 1309 1228 531 
z
" transform="scale(0.015625)"/>
       </defs>
       <use xlink:href="#DejaVuSans-32"/>
       <use xlink:href="#DejaVuSans-30" x="63.623047"/>
       <use xlink:href="#DejaVuSans-30" x="127.246094"/>
      </g>
     </g>
    </g>
    <g id="xtick_4">
     <g id="line2d_4">
      <g>
       <use xlink:href="#m2256268194" x="269.015821" y="307.584" style="stroke: #000000; stroke-width: 0.8"/>
      </g>
     </g>
     <g id="text_4">
      <!-- 300 -->
      <g transform="translate(259.472071 322.182437) scale(0.1 -0.1)">
       <defs>
        <path id="DejaVuSans-33" d="M 2597 2516 
Q 3050 2419 3304 2112 
Q 3559 1806 3559 1356 
Q 3559 666 3084 287 
Q 2609 -91 1734 -91 
Q 1441 -91 1130 -33 
Q 819 25 488 141 
L 488 750 
Q 750 597 1062 519 
Q 1375 441 1716 441 
Q 2309 441 2620 675 
Q 2931 909 2931 1356 
Q 2931 1769 2642 2001 
Q 2353 2234 1838 2234 
L 1294 2234 
L 1294 2753 
L 1863 2753 
Q 2328 2753 2575 2939 
Q 2822 3125 2822 3475 
Q 2822 3834 2567 4026 
Q 2313 4219 1838 4219 
Q 1578 4219 1281 4162 
Q 984 4106 628 3988 
L 628 4550 
Q 988 4650 1302 4700 
Q 1616 4750 1894 4750 
Q 2613 4750 3031 4423 
Q 3450 4097 3450 3541 
Q 3450 3153 3228 2886 
Q 3006 2619 2597 2516 
z
" transform="scale(0.015625)"/>
       </defs>
       <use xlink:href="#DejaVuSans-33"/>
       <use xlink:href="#DejaVuSans-30" x="63.623047"/>
       <use xlink:href="#DejaVuSans-30" x="127.246094"/>
      </g>
     </g>
    </g>
    <g id="xtick_5">
     <g id="line2d_5">
      <g>
       <use xlink:href="#m2256268194" x="334.076852" y="307.584" style="stroke: #000000; stroke-width: 0.8"/>
      </g>
     </g>
     <g id="text_5">
      <!-- 400 -->
      <g transform="translate(324.533102 322.182437) scale(0.1 -0.1)">
       <defs>
        <path id="DejaVuSans-34" d="M 2419 4116 
L 825 1625 
L 2419 1625 
L 2419 4116 
z
M 2253 4666 
L 3047 4666 
L 3047 1625 
L 3713 1625 
L 3713 1100 
L 3047 1100 
L 3047 0 
L 2419 0 
L 2419 1100 
L 313 1100 
L 313 1709 
L 2253 4666 
z
" transform="scale(0.015625)"/>
       </defs>
       <use xlink:href="#DejaVuSans-34"/>
       <use xlink:href="#DejaVuSans-30" x="63.623047"/>
       <use xlink:href="#DejaVuSans-30" x="127.246094"/>
      </g>
     </g>
    </g>
    <g id="xtick_6">
     <g id="line2d_6">
      <g>
       <use xlink:href="#m2256268194" x="399.137883" y="307.584" style="stroke: #000000; stroke-width: 0.8"/>
      </g>
     </g>
     <g id="text_6">
      <!-- 500 -->
      <g transform="translate(389.594133 322.182437) scale(0.1 -0.1)">
       <defs>
        <path id="DejaVuSans-35" d="M 691 4666 
L 3169 4666 
L 3169 4134 
L 1269 4134 
L 1269 2991 
Q 1406 3038 1543 3061 
Q 1681 3084 1819 3084 
Q 2600 3084 3056 2656 
Q 3513 2228 3513 1497 
Q 3513 744 3044 326 
Q 2575 -91 1722 -91 
Q 1428 -91 1123 -41 
Q 819 9 494 109 
L 494 744 
Q 775 591 1075 516 
Q 1375 441 1709 441 
Q 2250 441 2565 725 
Q 2881 1009 2881 1497 
Q 2881 1984 2565 2268 
Q 2250 2553 1709 2553 
Q 1456 2553 1204 2497 
Q 953 2441 691 2322 
L 691 4666 
z
" transform="scale(0.015625)"/>
       </defs>
       <use xlink:href="#DejaVuSans-35"/>
       <use xlink:href="#DejaVuSans-30" x="63.623047"/>
       <use xlink:href="#DejaVuSans-30" x="127.246094"/>
      </g>
     </g>
    </g>
    <g id="text_7">
     <!-- epoch -->
     <g transform="translate(220.931875 335.860562) scale(0.1 -0.1)">
      <defs>
       <path id="DejaVuSans-65" d="M 3597 1894 
L 3597 1613 
L 953 1613 
Q 991 1019 1311 708 
Q 1631 397 2203 397 
Q 2534 397 2845 478 
Q 3156 559 3463 722 
L 3463 178 
Q 3153 47 2828 -22 
Q 2503 -91 2169 -91 
Q 1331 -91 842 396 
Q 353 884 353 1716 
Q 353 2575 817 3079 
Q 1281 3584 2069 3584 
Q 2775 3584 3186 3129 
Q 3597 2675 3597 1894 
z
M 3022 2063 
Q 3016 2534 2758 2815 
Q 2500 3097 2075 3097 
Q 1594 3097 1305 2825 
Q 1016 2553 972 2059 
L 3022 2063 
z
" transform="scale(0.015625)"/>
       <path id="DejaVuSans-70" d="M 1159 525 
L 1159 -1331 
L 581 -1331 
L 581 3500 
L 1159 3500 
L 1159 2969 
Q 1341 3281 1617 3432 
Q 1894 3584 2278 3584 
Q 2916 3584 3314 3078 
Q 3713 2572 3713 1747 
Q 3713 922 3314 415 
Q 2916 -91 2278 -91 
Q 1894 -91 1617 61 
Q 1341 213 1159 525 
z
M 3116 1747 
Q 3116 2381 2855 2742 
Q 2594 3103 2138 3103 
Q 1681 3103 1420 2742 
Q 1159 2381 1159 1747 
Q 1159 1113 1420 752 
Q 1681 391 2138 391 
Q 2594 391 2855 752 
Q 3116 1113 3116 1747 
z
" transform="scale(0.015625)"/>
       <path id="DejaVuSans-6f" d="M 1959 3097 
Q 1497 3097 1228 2736 
Q 959 2375 959 1747 
Q 959 1119 1226 758 
Q 1494 397 1959 397 
Q 2419 397 2687 759 
Q 2956 1122 2956 1747 
Q 2956 2369 2687 2733 
Q 2419 3097 1959 3097 
z
M 1959 3584 
Q 2709 3584 3137 3096 
Q 3566 2609 3566 1747 
Q 3566 888 3137 398 
Q 2709 -91 1959 -91 
Q 1206 -91 779 398 
Q 353 888 353 1747 
Q 353 2609 779 3096 
Q 1206 3584 1959 3584 
z
" transform="scale(0.015625)"/>
       <path id="DejaVuSans-63" d="M 3122 3366 
L 3122 2828 
Q 2878 2963 2633 3030 
Q 2388 3097 2138 3097 
Q 1578 3097 1268 2742 
Q 959 2388 959 1747 
Q 959 1106 1268 751 
Q 1578 397 2138 397 
Q 2388 397 2633 464 
Q 2878 531 3122 666 
L 3122 134 
Q 2881 22 2623 -34 
Q 2366 -91 2075 -91 
Q 1284 -91 818 406 
Q 353 903 353 1747 
Q 353 2603 823 3093 
Q 1294 3584 2113 3584 
Q 2378 3584 2631 3529 
Q 2884 3475 3122 3366 
z
" transform="scale(0.015625)"/>
       <path id="DejaVuSans-68" d="M 3513 2113 
L 3513 0 
L 2938 0 
L 2938 2094 
Q 2938 2591 2744 2837 
Q 2550 3084 2163 3084 
Q 1697 3084 1428 2787 
Q 1159 2491 1159 1978 
L 1159 0 
L 581 0 
L 581 4863 
L 1159 4863 
L 1159 2956 
Q 1366 3272 1645 3428 
Q 1925 3584 2291 3584 
Q 2894 3584 3203 3211 
Q 3513 2838 3513 2113 
z
" transform="scale(0.015625)"/>
      </defs>
      <use xlink:href="#DejaVuSans-65"/>
      <use xlink:href="#DejaVuSans-70" x="61.523438"/>
      <use xlink:href="#DejaVuSans-6f" x="125"/>
      <use xlink:href="#DejaVuSans-63" x="186.181641"/>
      <use xlink:href="#DejaVuSans-68" x="241.162109"/>
     </g>
    </g>
   </g>
   <g id="matplotlib.axis_2">
    <g id="ytick_1">
     <g id="line2d_7">
      <defs>
       <path id="m908dc3e34d" d="M 0 0 
L -3.5 0 
" style="stroke: #000000; stroke-width: 0.8"/>
      </defs>
      <g>
       <use xlink:href="#m908dc3e34d" x="57.6" y="262.301668" style="stroke: #000000; stroke-width: 0.8"/>
      </g>
     </g>
     <g id="text_8">
      <!-- 0.2 -->
      <g transform="translate(34.696875 266.100887) scale(0.1 -0.1)">
       <defs>
        <path id="DejaVuSans-2e" d="M 684 794 
L 1344 794 
L 1344 0 
L 684 0 
L 684 794 
z
" transform="scale(0.015625)"/>
       </defs>
       <use xlink:href="#DejaVuSans-30"/>
       <use xlink:href="#DejaVuSans-2e" x="63.623047"/>
       <use xlink:href="#DejaVuSans-32" x="95.410156"/>
      </g>
     </g>
    </g>
    <g id="ytick_2">
     <g id="line2d_8">
      <g>
       <use xlink:href="#m908dc3e34d" x="57.6" y="204.878549" style="stroke: #000000; stroke-width: 0.8"/>
      </g>
     </g>
     <g id="text_9">
      <!-- 0.4 -->
      <g transform="translate(34.696875 208.677767) scale(0.1 -0.1)">
       <use xlink:href="#DejaVuSans-30"/>
       <use xlink:href="#DejaVuSans-2e" x="63.623047"/>
       <use xlink:href="#DejaVuSans-34" x="95.410156"/>
      </g>
     </g>
    </g>
    <g id="ytick_3">
     <g id="line2d_9">
      <g>
       <use xlink:href="#m908dc3e34d" x="57.6" y="147.455429" style="stroke: #000000; stroke-width: 0.8"/>
      </g>
     </g>
     <g id="text_10">
      <!-- 0.6 -->
      <g transform="translate(34.696875 151.254648) scale(0.1 -0.1)">
       <defs>
        <path id="DejaVuSans-36" d="M 2113 2584 
Q 1688 2584 1439 2293 
Q 1191 2003 1191 1497 
Q 1191 994 1439 701 
Q 1688 409 2113 409 
Q 2538 409 2786 701 
Q 3034 994 3034 1497 
Q 3034 2003 2786 2293 
Q 2538 2584 2113 2584 
z
M 3366 4563 
L 3366 3988 
Q 3128 4100 2886 4159 
Q 2644 4219 2406 4219 
Q 1781 4219 1451 3797 
Q 1122 3375 1075 2522 
Q 1259 2794 1537 2939 
Q 1816 3084 2150 3084 
Q 2853 3084 3261 2657 
Q 3669 2231 3669 1497 
Q 3669 778 3244 343 
Q 2819 -91 2113 -91 
Q 1303 -91 875 529 
Q 447 1150 447 2328 
Q 447 3434 972 4092 
Q 1497 4750 2381 4750 
Q 2619 4750 2861 4703 
Q 3103 4656 3366 4563 
z
" transform="scale(0.015625)"/>
       </defs>
       <use xlink:href="#DejaVuSans-30"/>
       <use xlink:href="#DejaVuSans-2e" x="63.623047"/>
       <use xlink:href="#DejaVuSans-36" x="95.410156"/>
      </g>
     </g>
    </g>
    <g id="ytick_4">
     <g id="line2d_10">
      <g>
       <use xlink:href="#m908dc3e34d" x="57.6" y="90.03231" style="stroke: #000000; stroke-width: 0.8"/>
      </g>
     </g>
     <g id="text_11">
      <!-- 0.8 -->
      <g transform="translate(34.696875 93.831529) scale(0.1 -0.1)">
       <defs>
        <path id="DejaVuSans-38" d="M 2034 2216 
Q 1584 2216 1326 1975 
Q 1069 1734 1069 1313 
Q 1069 891 1326 650 
Q 1584 409 2034 409 
Q 2484 409 2743 651 
Q 3003 894 3003 1313 
Q 3003 1734 2745 1975 
Q 2488 2216 2034 2216 
z
M 1403 2484 
Q 997 2584 770 2862 
Q 544 3141 544 3541 
Q 544 4100 942 4425 
Q 1341 4750 2034 4750 
Q 2731 4750 3128 4425 
Q 3525 4100 3525 3541 
Q 3525 3141 3298 2862 
Q 3072 2584 2669 2484 
Q 3125 2378 3379 2068 
Q 3634 1759 3634 1313 
Q 3634 634 3220 271 
Q 2806 -91 2034 -91 
Q 1263 -91 848 271 
Q 434 634 434 1313 
Q 434 1759 690 2068 
Q 947 2378 1403 2484 
z
M 1172 3481 
Q 1172 3119 1398 2916 
Q 1625 2713 2034 2713 
Q 2441 2713 2670 2916 
Q 2900 3119 2900 3481 
Q 2900 3844 2670 4047 
Q 2441 4250 2034 4250 
Q 1625 4250 1398 4047 
Q 1172 3844 1172 3481 
z
" transform="scale(0.015625)"/>
       </defs>
       <use xlink:href="#DejaVuSans-30"/>
       <use xlink:href="#DejaVuSans-2e" x="63.623047"/>
       <use xlink:href="#DejaVuSans-38" x="95.410156"/>
      </g>
     </g>
    </g>
    <g id="text_12">
     <!-- loss value -->
     <g transform="translate(28.617187 199.432687) rotate(-90) scale(0.1 -0.1)">
      <defs>
       <path id="DejaVuSans-6c" d="M 603 4863 
L 1178 4863 
L 1178 0 
L 603 0 
L 603 4863 
z
" transform="scale(0.015625)"/>
       <path id="DejaVuSans-73" d="M 2834 3397 
L 2834 2853 
Q 2591 2978 2328 3040 
Q 2066 3103 1784 3103 
Q 1356 3103 1142 2972 
Q 928 2841 928 2578 
Q 928 2378 1081 2264 
Q 1234 2150 1697 2047 
L 1894 2003 
Q 2506 1872 2764 1633 
Q 3022 1394 3022 966 
Q 3022 478 2636 193 
Q 2250 -91 1575 -91 
Q 1294 -91 989 -36 
Q 684 19 347 128 
L 347 722 
Q 666 556 975 473 
Q 1284 391 1588 391 
Q 1994 391 2212 530 
Q 2431 669 2431 922 
Q 2431 1156 2273 1281 
Q 2116 1406 1581 1522 
L 1381 1569 
Q 847 1681 609 1914 
Q 372 2147 372 2553 
Q 372 3047 722 3315 
Q 1072 3584 1716 3584 
Q 2034 3584 2315 3537 
Q 2597 3491 2834 3397 
z
" transform="scale(0.015625)"/>
       <path id="DejaVuSans-20" transform="scale(0.015625)"/>
       <path id="DejaVuSans-76" d="M 191 3500 
L 800 3500 
L 1894 563 
L 2988 3500 
L 3597 3500 
L 2284 0 
L 1503 0 
L 191 3500 
z
" transform="scale(0.015625)"/>
       <path id="DejaVuSans-61" d="M 2194 1759 
Q 1497 1759 1228 1600 
Q 959 1441 959 1056 
Q 959 750 1161 570 
Q 1363 391 1709 391 
Q 2188 391 2477 730 
Q 2766 1069 2766 1631 
L 2766 1759 
L 2194 1759 
z
M 3341 1997 
L 3341 0 
L 2766 0 
L 2766 531 
Q 2569 213 2275 61 
Q 1981 -91 1556 -91 
Q 1019 -91 701 211 
Q 384 513 384 1019 
Q 384 1609 779 1909 
Q 1175 2209 1959 2209 
L 2766 2209 
L 2766 2266 
Q 2766 2663 2505 2880 
Q 2244 3097 1772 3097 
Q 1472 3097 1187 3025 
Q 903 2953 641 2809 
L 641 3341 
Q 956 3463 1253 3523 
Q 1550 3584 1831 3584 
Q 2591 3584 2966 3190 
Q 3341 2797 3341 1997 
z
" transform="scale(0.015625)"/>
       <path id="DejaVuSans-75" d="M 544 1381 
L 544 3500 
L 1119 3500 
L 1119 1403 
Q 1119 906 1312 657 
Q 1506 409 1894 409 
Q 2359 409 2629 706 
Q 2900 1003 2900 1516 
L 2900 3500 
L 3475 3500 
L 3475 0 
L 2900 0 
L 2900 538 
Q 2691 219 2414 64 
Q 2138 -91 1772 -91 
Q 1169 -91 856 284 
Q 544 659 544 1381 
z
M 1991 3584 
L 1991 3584 
z
" transform="scale(0.015625)"/>
      </defs>
      <use xlink:href="#DejaVuSans-6c"/>
      <use xlink:href="#DejaVuSans-6f" x="27.783203"/>
      <use xlink:href="#DejaVuSans-73" x="88.964844"/>
      <use xlink:href="#DejaVuSans-73" x="141.064453"/>
      <use xlink:href="#DejaVuSans-20" x="193.164062"/>
      <use xlink:href="#DejaVuSans-76" x="224.951172"/>
      <use xlink:href="#DejaVuSans-61" x="284.130859"/>
      <use xlink:href="#DejaVuSans-6c" x="345.410156"/>
      <use xlink:href="#DejaVuSans-75" x="373.193359"/>
      <use xlink:href="#DejaVuSans-65" x="436.572266"/>
     </g>
    </g>
   </g>
   <g id="line2d_11">
    <path d="M 73.832727 88.512121 
L 74.483338 134.749407 
L 75.133948 195.497969 
L 75.784558 243.295863 
L 76.435169 270.322142 
L 77.085779 280.384608 
L 77.736389 285.267444 
L 78.386999 285.91117 
L 79.03761 287.093684 
L 79.68822 287.033761 
L 80.33883 209.149715 
L 80.989441 240.680256 
L 81.640051 265.200052 
L 82.290661 278.84565 
L 82.941272 283.22026 
L 83.591882 284.755094 
L 84.242492 284.146626 
L 84.893103 283.875186 
L 85.543713 284.497343 
L 86.194323 284.363541 
L 86.844934 222.168974 
L 87.495544 251.68811 
L 88.146154 272.685878 
L 88.796764 282.309197 
L 89.447375 287.101456 
L 90.097985 289.216247 
L 91.399206 289.049742 
L 92.049816 290.359616 
L 92.700426 290.362525 
L 93.351037 215.875316 
L 94.001647 247.138947 
L 94.652257 270.609541 
L 95.302868 283.782051 
L 95.953478 288.417608 
L 96.604088 290.617571 
L 97.254698 289.9666 
L 97.905309 291.164046 
L 98.555919 291.288173 
L 99.206529 291.152922 
L 99.85714 221.270862 
L 100.50775 251.307238 
L 101.15836 273.476591 
L 101.808971 284.270921 
L 102.459581 288.924221 
L 103.110191 291.216481 
L 105.062022 292.677463 
L 105.712633 292.923524 
L 106.363243 218.523704 
L 107.013853 249.910274 
L 107.664463 272.600979 
L 108.315074 284.802071 
L 108.965684 289.967137 
L 109.616294 291.550409 
L 110.266905 292.719099 
L 110.917515 292.455619 
L 111.568125 293.789326 
L 112.218736 292.721247 
L 112.869346 221.298431 
L 113.519956 252.328494 
L 114.170567 275.244634 
L 114.821177 285.996771 
L 115.471787 290.412187 
L 116.122398 292.605242 
L 116.773008 292.732283 
L 117.423618 293.488121 
L 118.074228 293.512822 
L 118.724839 294.37118 
L 119.375449 220.636433 
L 120.026059 251.189887 
L 120.67667 274.244261 
L 121.32728 285.408136 
L 121.97789 291.319378 
L 122.628501 292.728249 
L 123.279111 293.582301 
L 123.929721 294.249606 
L 124.580332 294.494241 
L 125.230942 293.370197 
L 125.881552 221.653843 
L 126.532163 252.747919 
L 127.182773 275.07596 
L 127.833383 286.083827 
L 128.483993 291.718739 
L 129.134604 293.08996 
L 129.785214 293.736054 
L 130.435824 293.8059 
L 131.086435 294.46699 
L 131.737045 293.605812 
L 132.387655 220.702439 
L 133.038266 252.022802 
L 133.688876 275.664807 
L 134.339486 287.895144 
L 134.990097 291.633077 
L 135.640707 293.833352 
L 136.291317 295.256751 
L 136.941927 294.905921 
L 137.592538 295.283347 
L 138.243148 295.488 
L 138.893758 221.7834 
L 139.544369 253.215774 
L 140.194979 263.542446 
L 141.4962 278.797629 
L 142.14681 283.545488 
L 142.79742 287.044872 
L 143.448031 289.367756 
L 144.749251 292.579084 
L 145.399862 220.262462 
L 147.351692 265.474735 
L 148.002303 275.832759 
L 148.652913 282.211779 
L 149.303523 286.495241 
L 150.604744 289.746986 
L 151.255354 290.842653 
L 151.905965 220.010407 
L 153.207185 253.33354 
L 153.857796 266.882704 
L 154.508406 275.859995 
L 155.809627 286.163587 
L 156.460237 288.746869 
L 157.110847 290.142496 
L 157.761457 290.941143 
L 158.412068 221.086507 
L 160.363899 265.633496 
L 161.014509 275.026447 
L 162.31573 284.853389 
L 162.96634 287.806991 
L 163.61695 288.925993 
L 164.267561 290.648626 
L 164.918171 220.329486 
L 166.219392 250.520414 
L 166.870002 262.752524 
L 167.520612 272.743277 
L 168.171222 279.048285 
L 168.821833 283.692257 
L 169.472443 286.51032 
L 170.123053 287.927202 
L 170.773664 289.707965 
L 171.424274 220.519762 
L 172.725495 249.493635 
L 173.376105 261.180353 
L 174.026715 270.505705 
L 174.677326 277.055757 
L 175.327936 282.164969 
L 175.978546 285.391512 
L 177.279767 289.574589 
L 177.930377 220.77435 
L 179.231598 249.013941 
L 180.532818 268.732031 
L 181.183429 275.38265 
L 181.834039 280.136032 
L 183.13526 286.187347 
L 183.78587 287.868544 
L 184.43648 221.371146 
L 185.737701 247.057179 
L 187.038921 267.218366 
L 187.689532 273.722909 
L 188.340142 278.951962 
L 189.641363 285.138957 
L 190.291973 286.663643 
L 190.942583 221.260825 
L 192.894414 256.753512 
L 193.545025 264.800137 
L 194.195635 271.467257 
L 194.846245 276.65526 
L 195.496856 280.205144 
L 196.147466 284.611955 
L 196.798076 285.467329 
L 197.448686 220.913859 
L 198.749907 244.95898 
L 199.400517 254.934458 
L 200.701738 270.284364 
L 201.352348 276.063691 
L 202.653569 282.527466 
L 203.304179 284.281527 
L 203.95479 220.924443 
L 205.25601 242.902297 
L 205.906621 253.622586 
L 206.557231 261.41378 
L 207.858451 273.234162 
L 208.509062 277.96249 
L 209.810282 283.541171 
L 210.460893 220.71975 
L 211.762113 243.083982 
L 213.063334 259.355275 
L 213.713944 266.216191 
L 214.364555 271.705656 
L 215.015165 275.7721 
L 216.316385 282.478525 
L 216.966996 220.746849 
L 218.268216 240.805808 
L 219.569437 258.25599 
L 220.870658 269.942186 
L 222.171878 277.800909 
L 222.822489 280.213444 
L 223.473099 221.590438 
L 225.42493 248.828538 
L 226.72615 262.095228 
L 227.376761 267.727525 
L 228.677981 275.910702 
L 229.328592 278.831112 
L 229.979202 221.636036 
L 231.931033 247.759326 
L 232.581643 255.152261 
L 235.184085 274.132613 
L 235.834695 276.434167 
L 236.485305 221.092745 
L 238.437136 246.54168 
L 240.388967 263.578217 
L 241.039577 267.781406 
L 242.340798 274.968437 
L 242.991408 221.404167 
L 244.292629 237.103105 
L 246.24446 256.693765 
L 247.54568 265.701663 
L 248.846901 272.909914 
L 249.497511 221.044605 
L 250.798732 235.721719 
L 252.099953 249.607961 
L 254.051784 263.740401 
L 255.353004 270.947018 
L 256.003615 221.645868 
L 257.304835 235.563069 
L 259.256666 252.464148 
L 259.907276 257.741021 
L 261.208497 265.069836 
L 261.859107 268.500658 
L 262.509718 221.545934 
L 264.461549 240.2893 
L 265.762769 251.469786 
L 266.413379 255.0652 
L 267.06399 260.018313 
L 268.36521 266.529247 
L 269.015821 221.434885 
L 270.967652 239.490685 
L 271.618262 245.375169 
L 272.268872 249.022369 
L 272.919483 254.405384 
L 273.570093 257.224572 
L 274.871314 264.245688 
L 275.521924 220.94183 
L 276.172534 227.80534 
L 278.774975 247.967305 
L 280.726806 259.109385 
L 281.377417 261.854005 
L 282.028027 220.934934 
L 283.329248 232.417065 
L 284.630468 241.214828 
L 285.281079 247.067216 
L 287.88352 259.564161 
L 288.53413 221.263015 
L 289.835351 231.546882 
L 290.485961 236.289371 
L 291.136571 240.083382 
L 291.787182 244.798721 
L 293.088402 250.97733 
L 293.739013 255.27703 
L 294.389623 257.392211 
L 295.040233 221.259481 
L 296.992064 235.327648 
L 298.293285 243.871387 
L 298.943895 245.697629 
L 299.594505 249.923665 
L 300.245116 252.823239 
L 300.895726 255.185405 
L 301.546336 222.066405 
L 302.196947 225.009631 
L 302.847557 230.543077 
L 306.751219 251.707833 
L 307.401829 254.042844 
L 308.052439 221.375904 
L 308.70305 224.88644 
L 309.35366 229.745882 
L 311.956101 243.326179 
L 313.257322 248.851197 
L 313.907932 250.860471 
L 314.558543 221.782493 
L 315.209153 224.900405 
L 315.859763 228.564123 
L 316.510373 231.427952 
L 317.160984 235.529347 
L 317.811594 238.915571 
L 320.414035 249.075344 
L 321.064646 221.101216 
L 321.715256 225.040598 
L 323.016477 231.326914 
L 323.667087 235.06944 
L 324.968308 239.966669 
L 326.269528 245.09089 
L 326.920138 247.270404 
L 327.570749 221.290739 
L 328.221359 223.969178 
L 330.8238 237.110678 
L 331.474411 238.793527 
L 332.775631 243.877702 
L 333.426242 245.486407 
L 334.076852 221.22836 
L 334.727462 224.70467 
L 337.980514 237.403078 
L 338.631124 238.975134 
L 339.281734 241.647823 
L 339.932345 243.83189 
L 340.582955 222.058533 
L 341.233565 224.20892 
L 341.884176 227.283415 
L 342.534786 229.742066 
L 343.185396 231.513031 
L 344.486617 236.41678 
L 345.137227 238.667375 
L 345.787837 239.775461 
L 346.438448 241.401578 
L 347.089058 222.043695 
L 350.99272 235.359539 
L 352.293941 238.674896 
L 352.944551 240.618947 
L 353.595161 221.970664 
L 354.245772 223.414224 
L 354.896382 226.535344 
L 355.546992 228.047161 
L 356.197602 229.083961 
L 356.848213 232.465488 
L 357.498823 234.592951 
L 358.149433 235.676445 
L 358.800044 238.038765 
L 359.450654 239.340412 
L 360.101264 222.20321 
L 360.751875 223.457795 
L 361.402485 225.745004 
L 362.053095 226.864213 
L 362.703706 229.403853 
L 364.004926 233.202828 
L 364.655537 234.856438 
L 365.306147 236.003072 
L 365.956757 238.738413 
L 366.607367 221.842373 
L 367.257978 223.182825 
L 367.908588 224.95984 
L 369.209809 229.317918 
L 369.860419 230.023539 
L 370.511029 231.636727 
L 371.16164 234.059843 
L 371.81225 235.683564 
L 372.46286 236.251678 
L 373.113471 221.232528 
L 374.414691 225.465695 
L 375.065302 226.679619 
L 375.715912 228.329293 
L 376.366522 230.633256 
L 377.017132 231.112826 
L 378.318353 233.552746 
L 378.968963 235.676505 
L 379.619574 220.646786 
L 380.270184 223.877484 
L 380.920794 225.080532 
L 381.571405 225.868871 
L 382.222015 227.296506 
L 382.872625 229.526103 
L 383.523236 230.540424 
L 384.173846 231.293073 
L 384.824456 233.444144 
L 385.475066 234.155892 
L 386.125677 221.533638 
L 386.776287 223.560834 
L 387.426897 224.048884 
L 389.378728 228.469871 
L 390.029339 229.619115 
L 390.679949 231.4697 
L 391.330559 231.837211 
L 391.98117 233.239998 
L 392.63178 221.511271 
L 393.28239 222.890433 
L 393.933001 224.778686 
L 395.234221 226.669231 
L 395.884831 228.568984 
L 397.186052 229.882499 
L 397.836662 231.643581 
L 398.487273 232.149925 
L 398.487273 232.149925 
" clip-path="url(#p1ebdf20ed0)" style="fill: none; stroke: #0000ff; stroke-width: 1.5; stroke-linecap: square"/>
   </g>
   <g id="line2d_12">
    <path d="M 73.832727 284.78066 
L 79.68822 284.758068 
L 80.33883 286.638743 
L 118.724839 286.625572 
L 124.580332 286.626588 
L 162.96634 286.630364 
L 299.594505 286.624789 
L 398.487273 286.623741 
L 398.487273 286.623741 
" clip-path="url(#p1ebdf20ed0)" style="fill: none; stroke: #008000; stroke-width: 1.5; stroke-linecap: square"/>
   </g>
   <g id="line2d_13">
    <path d="M 73.832727 53.568 
L 74.483338 99.80455 
L 75.133948 160.551743 
L 75.784558 208.347566 
L 76.435169 235.371193 
L 77.085779 245.430626 
L 77.736389 250.310244 
L 78.386999 250.950706 
L 79.03761 252.130026 
L 79.68822 252.06704 
L 80.33883 176.063675 
L 80.989441 207.592214 
L 81.640051 232.109742 
L 82.290661 245.752751 
L 82.941272 250.124538 
L 83.591882 251.656438 
L 84.242492 251.045043 
L 84.893103 250.770775 
L 85.543713 251.390255 
L 86.194323 251.25396 
L 86.844934 189.075199 
L 87.495544 218.593869 
L 88.146154 239.590832 
L 88.796764 249.212974 
L 89.447375 254.003766 
L 90.097985 256.116914 
L 91.399206 255.946948 
L 92.049816 257.255137 
L 92.700426 257.256437 
L 93.351037 182.783826 
L 94.001647 214.047465 
L 94.652257 237.517652 
L 95.302868 250.689298 
L 95.953478 255.323609 
L 96.604088 257.522063 
L 97.254698 256.869443 
L 97.905309 258.065192 
L 98.555919 258.187639 
L 99.206529 258.050765 
L 99.85714 188.181981 
L 100.50775 218.21834 
L 101.15836 240.387231 
L 101.808971 251.180642 
L 102.459581 255.832643 
L 103.110191 258.123365 
L 105.062022 259.579268 
L 105.712633 259.823695 
L 106.363243 185.436166 
L 107.013853 216.822698 
L 107.664463 239.512915 
L 108.315074 251.71304 
L 108.965684 256.876742 
L 109.616294 258.45839 
L 110.266905 259.62532 
L 110.917515 259.360032 
L 111.568125 260.691948 
L 112.218736 259.622141 
L 112.869346 188.211262 
L 113.519956 219.241227 
L 114.170567 242.156811 
L 114.821177 252.907908 
L 115.471787 257.321896 
L 116.122398 259.51327 
L 116.773008 259.63851 
L 117.423618 260.392502 
L 118.074228 260.415374 
L 118.724839 261.271965 
L 119.375449 187.548904 
L 120.026059 218.102234 
L 120.67667 241.156018 
L 121.32728 252.318808 
L 121.97789 258.228565 
L 122.628501 259.635704 
L 123.279111 260.487888 
L 123.929721 261.153292 
L 124.580332 261.396042 
L 125.230942 260.270184 
L 125.881552 188.565544 
L 126.532163 219.65947 
L 127.182773 241.986891 
L 127.833383 252.99365 
L 128.483993 258.627064 
L 129.134604 259.996544 
L 129.785214 260.640775 
L 130.435824 260.708711 
L 131.086435 261.367929 
L 131.737045 260.504946 
L 132.387655 187.613148 
L 133.038266 218.933348 
L 133.688876 242.574729 
L 134.339486 254.80393 
L 134.990097 258.540321 
L 135.640707 260.738814 
L 136.291317 262.160297 
L 136.941927 261.807513 
L 137.592538 262.18302 
L 138.243148 262.385818 
L 138.893758 188.692919 
L 139.544369 220.125101 
L 140.194979 230.451589 
L 141.4962 245.706143 
L 142.14681 250.453561 
L 142.79742 253.952468 
L 143.448031 256.274837 
L 144.749251 259.485076 
L 145.399862 187.171416 
L 147.351692 232.383275 
L 148.002303 242.740934 
L 148.652913 249.119484 
L 149.303523 253.402383 
L 150.604744 256.652894 
L 151.255354 257.747935 
L 151.905965 186.918839 
L 153.207185 220.24178 
L 153.857796 233.790683 
L 154.508406 242.767589 
L 155.809627 253.070143 
L 156.460237 255.652837 
L 157.110847 257.047842 
L 157.761457 257.845866 
L 158.412068 187.994367 
L 160.363899 232.540906 
L 161.014509 241.933506 
L 162.31573 251.759512 
L 162.96634 254.71257 
L 163.61695 255.831018 
L 164.267561 257.553098 
L 164.918171 187.236772 
L 166.219392 217.427521 
L 166.870002 229.659417 
L 167.520612 239.649848 
L 168.171222 245.954459 
L 168.821833 250.597981 
L 169.472443 253.415556 
L 170.123053 254.831927 
L 170.773664 256.612168 
L 171.424274 187.426483 
L 172.725495 216.400193 
L 173.376105 228.086702 
L 174.026715 237.411772 
L 174.677326 243.961472 
L 175.327936 249.070283 
L 175.978546 252.296368 
L 177.279767 256.478521 
L 177.930377 187.680532 
L 179.231598 215.919965 
L 180.532818 235.637615 
L 181.183429 242.287908 
L 181.834039 247.04093 
L 183.13526 253.091419 
L 183.78587 254.772176 
L 184.43648 188.276781 
L 185.737701 213.962668 
L 187.038921 234.123462 
L 187.689532 240.627718 
L 188.340142 245.856442 
L 189.641363 252.042696 
L 190.291973 253.566989 
L 190.942583 188.165937 
L 192.894414 223.658347 
L 193.545025 231.704762 
L 194.195635 238.371629 
L 194.846245 243.559333 
L 195.496856 247.108896 
L 196.147466 251.515363 
L 196.798076 252.370384 
L 197.448686 187.818466 
L 198.749907 211.863467 
L 199.400517 221.838813 
L 200.701738 237.188313 
L 201.352348 242.967371 
L 202.653569 249.430546 
L 203.304179 251.184287 
L 203.95479 187.828589 
L 205.25601 209.806331 
L 205.906621 220.526505 
L 206.557231 228.317536 
L 207.858451 240.137478 
L 208.509062 244.865549 
L 209.810282 250.443661 
L 210.460893 187.623459 
L 211.762113 209.987588 
L 213.063334 226.258629 
L 213.713944 233.119374 
L 214.364555 238.608625 
L 215.015165 242.674834 
L 216.316385 249.380759 
L 216.966996 187.650147 
L 218.268216 207.709013 
L 219.569437 225.158971 
L 220.870658 236.84483 
L 222.171878 244.703125 
L 222.822489 247.115425 
L 223.473099 188.493351 
L 225.42493 215.731289 
L 226.72615 228.997726 
L 227.376761 234.629856 
L 228.677981 242.812648 
L 229.328592 245.732866 
L 229.979202 188.538608 
L 231.931033 214.661735 
L 232.581643 222.054571 
L 235.184085 241.034324 
L 235.834695 243.335686 
L 236.485305 187.994974 
L 238.437136 213.443772 
L 240.388967 230.479988 
L 241.039577 234.683036 
L 242.340798 241.86975 
L 242.991408 188.306088 
L 244.292629 204.004966 
L 246.24446 223.595395 
L 247.54568 232.603062 
L 248.846901 239.811031 
L 249.497511 187.946244 
L 250.798732 202.623297 
L 252.099953 216.509428 
L 254.051784 230.641573 
L 255.353004 237.84795 
L 256.003615 188.547241 
L 257.304835 202.464399 
L 259.256666 219.365299 
L 259.907276 224.642095 
L 261.208497 231.970704 
L 261.859107 235.401407 
L 262.509718 188.447059 
L 264.461549 207.190348 
L 265.762769 218.370718 
L 266.413379 221.96606 
L 267.06399 226.919087 
L 268.36521 233.429838 
L 269.015821 188.335788 
L 270.967652 206.391519 
L 271.618262 212.275952 
L 272.268872 215.923105 
L 272.919483 221.306055 
L 273.570093 224.125175 
L 274.871314 231.14612 
L 275.521924 187.842528 
L 276.172534 194.706029 
L 278.774975 214.867857 
L 280.726806 226.009748 
L 281.377417 228.754296 
L 282.028027 187.835443 
L 283.329248 199.317549 
L 284.630468 208.115251 
L 285.281079 213.967597 
L 287.88352 226.464315 
L 288.53413 188.163344 
L 289.835351 198.447194 
L 290.485961 203.189657 
L 291.136571 206.983635 
L 291.787182 211.698939 
L 293.088402 217.877467 
L 293.739013 222.177112 
L 294.389623 224.292245 
L 295.040233 188.159657 
L 296.992064 202.22778 
L 298.293285 210.77146 
L 298.943895 212.597668 
L 299.594505 216.823665 
L 300.245116 219.723201 
L 300.895726 222.085315 
L 301.546336 188.966435 
L 302.196947 191.909653 
L 302.847557 197.44309 
L 306.751219 218.607679 
L 307.401829 220.942652 
L 308.052439 188.275805 
L 308.70305 191.786333 
L 309.35366 196.645767 
L 311.956101 210.225978 
L 313.257322 215.750936 
L 313.907932 217.760171 
L 314.558543 188.682275 
L 315.209153 191.800178 
L 315.859763 195.463888 
L 316.510373 198.327708 
L 317.160984 202.429085 
L 317.811594 205.815293 
L 320.414035 215.974959 
L 321.064646 188.000887 
L 321.715256 191.94026 
L 323.016477 198.226568 
L 323.667087 201.969077 
L 324.968308 206.866271 
L 326.269528 211.990449 
L 326.920138 214.169938 
L 327.570749 188.190315 
L 328.221359 190.868746 
L 330.8238 204.010203 
L 331.474411 205.693035 
L 332.775631 210.777176 
L 333.426242 212.385855 
L 334.076852 188.127843 
L 334.727462 191.604152 
L 337.980514 204.302509 
L 338.631124 205.874548 
L 339.281734 208.547228 
L 339.932345 210.731269 
L 340.582955 188.957938 
L 341.233565 191.108316 
L 341.884176 194.182803 
L 342.534786 196.641454 
L 343.185396 198.412411 
L 344.486617 203.316134 
L 345.137227 205.56672 
L 345.787837 206.674789 
L 346.438448 208.300889 
L 347.089058 188.943023 
L 350.99272 202.258833 
L 352.293941 205.574165 
L 352.944551 207.518198 
L 353.595161 188.869924 
L 354.245772 190.313492 
L 354.896382 193.434604 
L 355.546992 194.946412 
L 356.197602 195.983212 
L 356.848213 199.36473 
L 357.498823 201.492185 
L 358.149433 202.57567 
L 358.800044 204.937973 
L 359.450654 206.239612 
L 360.101264 189.102409 
L 360.751875 190.356994 
L 361.402485 192.644203 
L 362.053095 193.763404 
L 362.703706 196.303045 
L 364.004926 200.102011 
L 364.655537 201.755604 
L 365.306147 202.902229 
L 365.956757 205.637553 
L 366.607367 188.741521 
L 367.257978 190.081973 
L 367.908588 191.858988 
L 369.209809 196.217058 
L 369.860419 196.92267 
L 370.511029 198.53585 
L 371.16164 200.958965 
L 371.81225 202.582678 
L 372.46286 203.150776 
L 373.113471 188.131625 
L 374.414691 192.364793 
L 375.065302 193.578716 
L 375.715912 195.228382 
L 376.366522 197.532336 
L 377.017132 198.011906 
L 378.318353 200.451809 
L 378.968963 202.575568 
L 379.619574 187.545841 
L 380.270184 190.776539 
L 380.920794 191.979587 
L 381.571405 192.767916 
L 382.222015 194.195552 
L 382.872625 196.425149 
L 383.523236 197.439462 
L 384.173846 198.19211 
L 384.824456 200.343173 
L 385.475066 201.054912 
L 386.125677 188.432658 
L 386.776287 190.459846 
L 387.426897 190.947895 
L 389.378728 195.368874 
L 390.029339 196.518118 
L 390.679949 198.368695 
L 391.330559 198.736206 
L 391.98117 200.138984 
L 392.63178 188.410257 
L 393.28239 189.789411 
L 393.933001 191.677663 
L 395.234221 193.5682 
L 395.884831 195.467952 
L 397.186052 196.781459 
L 397.836662 198.542542 
L 398.487273 199.048876 
L 398.487273 199.048876 
" clip-path="url(#p1ebdf20ed0)" style="fill: none; stroke: #ff0000; stroke-width: 1.5; stroke-linecap: square"/>
   </g>
   <g id="patch_3">
    <path d="M 57.6 307.584 
L 57.6 41.472 
" style="fill: none; stroke: #000000; stroke-width: 0.8; stroke-linejoin: miter; stroke-linecap: square"/>
   </g>
   <g id="patch_4">
    <path d="M 414.72 307.584 
L 414.72 41.472 
" style="fill: none; stroke: #000000; stroke-width: 0.8; stroke-linejoin: miter; stroke-linecap: square"/>
   </g>
   <g id="patch_5">
    <path d="M 57.6 307.584 
L 414.72 307.584 
" style="fill: none; stroke: #000000; stroke-width: 0.8; stroke-linejoin: miter; stroke-linecap: square"/>
   </g>
   <g id="patch_6">
    <path d="M 57.6 41.472 
L 414.72 41.472 
" style="fill: none; stroke: #000000; stroke-width: 0.8; stroke-linejoin: miter; stroke-linecap: square"/>
   </g>
   <g id="text_13">
    <!-- The loss curve on λ_0.00025_non_iid/host/7 -->
    <g transform="translate(104.905313 35.472) scale(0.12 -0.12)">
     <defs>
      <path id="DejaVuSans-54" d="M -19 4666 
L 3928 4666 
L 3928 4134 
L 2272 4134 
L 2272 0 
L 1638 0 
L 1638 4134 
L -19 4134 
L -19 4666 
z
" transform="scale(0.015625)"/>
      <path id="DejaVuSans-72" d="M 2631 2963 
Q 2534 3019 2420 3045 
Q 2306 3072 2169 3072 
Q 1681 3072 1420 2755 
Q 1159 2438 1159 1844 
L 1159 0 
L 581 0 
L 581 3500 
L 1159 3500 
L 1159 2956 
Q 1341 3275 1631 3429 
Q 1922 3584 2338 3584 
Q 2397 3584 2469 3576 
Q 2541 3569 2628 3553 
L 2631 2963 
z
" transform="scale(0.015625)"/>
      <path id="DejaVuSans-6e" d="M 3513 2113 
L 3513 0 
L 2938 0 
L 2938 2094 
Q 2938 2591 2744 2837 
Q 2550 3084 2163 3084 
Q 1697 3084 1428 2787 
Q 1159 2491 1159 1978 
L 1159 0 
L 581 0 
L 581 3500 
L 1159 3500 
L 1159 2956 
Q 1366 3272 1645 3428 
Q 1925 3584 2291 3584 
Q 2894 3584 3203 3211 
Q 3513 2838 3513 2113 
z
" transform="scale(0.015625)"/>
      <path id="DejaVuSans-3bb" d="M 1981 4316 
L 3597 0 
L 2988 0 
L 2006 2588 
L 800 0 
L 191 0 
L 1725 3356 
L 1494 3975 
Q 1347 4369 1013 4369 
L 713 4369 
L 713 4863 
L 1078 4856 
Q 1784 4847 1981 4316 
z
" transform="scale(0.015625)"/>
      <path id="DejaVuSans-5f" d="M 3263 -1063 
L 3263 -1509 
L -63 -1509 
L -63 -1063 
L 3263 -1063 
z
" transform="scale(0.015625)"/>
      <path id="DejaVuSans-69" d="M 603 3500 
L 1178 3500 
L 1178 0 
L 603 0 
L 603 3500 
z
M 603 4863 
L 1178 4863 
L 1178 4134 
L 603 4134 
L 603 4863 
z
" transform="scale(0.015625)"/>
      <path id="DejaVuSans-64" d="M 2906 2969 
L 2906 4863 
L 3481 4863 
L 3481 0 
L 2906 0 
L 2906 525 
Q 2725 213 2448 61 
Q 2172 -91 1784 -91 
Q 1150 -91 751 415 
Q 353 922 353 1747 
Q 353 2572 751 3078 
Q 1150 3584 1784 3584 
Q 2172 3584 2448 3432 
Q 2725 3281 2906 2969 
z
M 947 1747 
Q 947 1113 1208 752 
Q 1469 391 1925 391 
Q 2381 391 2643 752 
Q 2906 1113 2906 1747 
Q 2906 2381 2643 2742 
Q 2381 3103 1925 3103 
Q 1469 3103 1208 2742 
Q 947 2381 947 1747 
z
" transform="scale(0.015625)"/>
      <path id="DejaVuSans-2f" d="M 1625 4666 
L 2156 4666 
L 531 -594 
L 0 -594 
L 1625 4666 
z
" transform="scale(0.015625)"/>
      <path id="DejaVuSans-74" d="M 1172 4494 
L 1172 3500 
L 2356 3500 
L 2356 3053 
L 1172 3053 
L 1172 1153 
Q 1172 725 1289 603 
Q 1406 481 1766 481 
L 2356 481 
L 2356 0 
L 1766 0 
Q 1100 0 847 248 
Q 594 497 594 1153 
L 594 3053 
L 172 3053 
L 172 3500 
L 594 3500 
L 594 4494 
L 1172 4494 
z
" transform="scale(0.015625)"/>
      <path id="DejaVuSans-37" d="M 525 4666 
L 3525 4666 
L 3525 4397 
L 1831 0 
L 1172 0 
L 2766 4134 
L 525 4134 
L 525 4666 
z
" transform="scale(0.015625)"/>
     </defs>
     <use xlink:href="#DejaVuSans-54"/>
     <use xlink:href="#DejaVuSans-68" x="61.083984"/>
     <use xlink:href="#DejaVuSans-65" x="124.462891"/>
     <use xlink:href="#DejaVuSans-20" x="185.986328"/>
     <use xlink:href="#DejaVuSans-6c" x="217.773438"/>
     <use xlink:href="#DejaVuSans-6f" x="245.556641"/>
     <use xlink:href="#DejaVuSans-73" x="306.738281"/>
     <use xlink:href="#DejaVuSans-73" x="358.837891"/>
     <use xlink:href="#DejaVuSans-20" x="410.9375"/>
     <use xlink:href="#DejaVuSans-63" x="442.724609"/>
     <use xlink:href="#DejaVuSans-75" x="497.705078"/>
     <use xlink:href="#DejaVuSans-72" x="561.083984"/>
     <use xlink:href="#DejaVuSans-76" x="602.197266"/>
     <use xlink:href="#DejaVuSans-65" x="661.376953"/>
     <use xlink:href="#DejaVuSans-20" x="722.900391"/>
     <use xlink:href="#DejaVuSans-6f" x="754.6875"/>
     <use xlink:href="#DejaVuSans-6e" x="815.869141"/>
     <use xlink:href="#DejaVuSans-20" x="879.248047"/>
     <use xlink:href="#DejaVuSans-3bb" x="911.035156"/>
     <use xlink:href="#DejaVuSans-5f" x="970.214844"/>
     <use xlink:href="#DejaVuSans-30" x="1020.214844"/>
     <use xlink:href="#DejaVuSans-2e" x="1083.837891"/>
     <use xlink:href="#DejaVuSans-30" x="1115.625"/>
     <use xlink:href="#DejaVuSans-30" x="1179.248047"/>
     <use xlink:href="#DejaVuSans-30" x="1242.871094"/>
     <use xlink:href="#DejaVuSans-32" x="1306.494141"/>
     <use xlink:href="#DejaVuSans-35" x="1370.117188"/>
     <use xlink:href="#DejaVuSans-5f" x="1433.740234"/>
     <use xlink:href="#DejaVuSans-6e" x="1483.740234"/>
     <use xlink:href="#DejaVuSans-6f" x="1547.119141"/>
     <use xlink:href="#DejaVuSans-6e" x="1608.300781"/>
     <use xlink:href="#DejaVuSans-5f" x="1671.679688"/>
     <use xlink:href="#DejaVuSans-69" x="1721.679688"/>
     <use xlink:href="#DejaVuSans-69" x="1749.462891"/>
     <use xlink:href="#DejaVuSans-64" x="1777.246094"/>
     <use xlink:href="#DejaVuSans-2f" x="1840.722656"/>
     <use xlink:href="#DejaVuSans-68" x="1874.414062"/>
     <use xlink:href="#DejaVuSans-6f" x="1937.792969"/>
     <use xlink:href="#DejaVuSans-73" x="1998.974609"/>
     <use xlink:href="#DejaVuSans-74" x="2051.074219"/>
     <use xlink:href="#DejaVuSans-2f" x="2090.283203"/>
     <use xlink:href="#DejaVuSans-37" x="2123.974609"/>
    </g>
   </g>
   <g id="legend_1">
    <g id="patch_7">
     <path d="M 317.418438 94.34075 
L 407.72 94.34075 
Q 409.72 94.34075 409.72 92.34075 
L 409.72 48.472 
Q 409.72 46.472 407.72 46.472 
L 317.418438 46.472 
Q 315.418438 46.472 315.418438 48.472 
L 315.418438 92.34075 
Q 315.418438 94.34075 317.418438 94.34075 
z
" style="fill: #ffffff; opacity: 0.8; stroke: #cccccc; stroke-linejoin: miter"/>
    </g>
    <g id="line2d_14">
     <path d="M 319.418438 54.570438 
L 329.418438 54.570438 
L 339.418438 54.570438 
" style="fill: none; stroke: #0000ff; stroke-width: 1.5; stroke-linecap: square"/>
    </g>
    <g id="text_14">
     <!-- obj_loss -->
     <g transform="translate(347.418438 58.070438) scale(0.1 -0.1)">
      <defs>
       <path id="DejaVuSans-62" d="M 3116 1747 
Q 3116 2381 2855 2742 
Q 2594 3103 2138 3103 
Q 1681 3103 1420 2742 
Q 1159 2381 1159 1747 
Q 1159 1113 1420 752 
Q 1681 391 2138 391 
Q 2594 391 2855 752 
Q 3116 1113 3116 1747 
z
M 1159 2969 
Q 1341 3281 1617 3432 
Q 1894 3584 2278 3584 
Q 2916 3584 3314 3078 
Q 3713 2572 3713 1747 
Q 3713 922 3314 415 
Q 2916 -91 2278 -91 
Q 1894 -91 1617 61 
Q 1341 213 1159 525 
L 1159 0 
L 581 0 
L 581 4863 
L 1159 4863 
L 1159 2969 
z
" transform="scale(0.015625)"/>
       <path id="DejaVuSans-6a" d="M 603 3500 
L 1178 3500 
L 1178 -63 
Q 1178 -731 923 -1031 
Q 669 -1331 103 -1331 
L -116 -1331 
L -116 -844 
L 38 -844 
Q 366 -844 484 -692 
Q 603 -541 603 -63 
L 603 3500 
z
M 603 4863 
L 1178 4863 
L 1178 4134 
L 603 4134 
L 603 4863 
z
" transform="scale(0.015625)"/>
      </defs>
      <use xlink:href="#DejaVuSans-6f"/>
      <use xlink:href="#DejaVuSans-62" x="61.181641"/>
      <use xlink:href="#DejaVuSans-6a" x="124.658203"/>
      <use xlink:href="#DejaVuSans-5f" x="152.441406"/>
      <use xlink:href="#DejaVuSans-6c" x="202.441406"/>
      <use xlink:href="#DejaVuSans-6f" x="230.224609"/>
      <use xlink:href="#DejaVuSans-73" x="291.40625"/>
      <use xlink:href="#DejaVuSans-73" x="343.505859"/>
     </g>
    </g>
    <g id="line2d_15">
     <path d="M 319.418438 69.526688 
L 329.418438 69.526688 
L 339.418438 69.526688 
" style="fill: none; stroke: #008000; stroke-width: 1.5; stroke-linecap: square"/>
    </g>
    <g id="text_15">
     <!-- reg_loss -->
     <g transform="translate(347.418438 73.026688) scale(0.1 -0.1)">
      <defs>
       <path id="DejaVuSans-67" d="M 2906 1791 
Q 2906 2416 2648 2759 
Q 2391 3103 1925 3103 
Q 1463 3103 1205 2759 
Q 947 2416 947 1791 
Q 947 1169 1205 825 
Q 1463 481 1925 481 
Q 2391 481 2648 825 
Q 2906 1169 2906 1791 
z
M 3481 434 
Q 3481 -459 3084 -895 
Q 2688 -1331 1869 -1331 
Q 1566 -1331 1297 -1286 
Q 1028 -1241 775 -1147 
L 775 -588 
Q 1028 -725 1275 -790 
Q 1522 -856 1778 -856 
Q 2344 -856 2625 -561 
Q 2906 -266 2906 331 
L 2906 616 
Q 2728 306 2450 153 
Q 2172 0 1784 0 
Q 1141 0 747 490 
Q 353 981 353 1791 
Q 353 2603 747 3093 
Q 1141 3584 1784 3584 
Q 2172 3584 2450 3431 
Q 2728 3278 2906 2969 
L 2906 3500 
L 3481 3500 
L 3481 434 
z
" transform="scale(0.015625)"/>
      </defs>
      <use xlink:href="#DejaVuSans-72"/>
      <use xlink:href="#DejaVuSans-65" x="38.863281"/>
      <use xlink:href="#DejaVuSans-67" x="100.386719"/>
      <use xlink:href="#DejaVuSans-5f" x="163.863281"/>
      <use xlink:href="#DejaVuSans-6c" x="213.863281"/>
      <use xlink:href="#DejaVuSans-6f" x="241.646484"/>
      <use xlink:href="#DejaVuSans-73" x="302.828125"/>
      <use xlink:href="#DejaVuSans-73" x="354.927734"/>
     </g>
    </g>
    <g id="line2d_16">
     <path d="M 319.418438 84.482938 
L 329.418438 84.482938 
L 339.418438 84.482938 
" style="fill: none; stroke: #ff0000; stroke-width: 1.5; stroke-linecap: square"/>
    </g>
    <g id="text_16">
     <!-- overall_loss -->
     <g transform="translate(347.418438 87.982938) scale(0.1 -0.1)">
      <use xlink:href="#DejaVuSans-6f"/>
      <use xlink:href="#DejaVuSans-76" x="61.181641"/>
      <use xlink:href="#DejaVuSans-65" x="120.361328"/>
      <use xlink:href="#DejaVuSans-72" x="181.884766"/>
      <use xlink:href="#DejaVuSans-61" x="222.998047"/>
      <use xlink:href="#DejaVuSans-6c" x="284.277344"/>
      <use xlink:href="#DejaVuSans-6c" x="312.060547"/>
      <use xlink:href="#DejaVuSans-5f" x="339.84375"/>
      <use xlink:href="#DejaVuSans-6c" x="389.84375"/>
      <use xlink:href="#DejaVuSans-6f" x="417.626953"/>
      <use xlink:href="#DejaVuSans-73" x="478.808594"/>
      <use xlink:href="#DejaVuSans-73" x="530.908203"/>
     </g>
    </g>
   </g>
  </g>
 </g>
 <defs>
  <clipPath id="p1ebdf20ed0">
   <rect x="57.6" y="41.472" width="357.12" height="266.112"/>
  </clipPath>
 </defs>
</svg>
