<?xml version="1.0" encoding="utf-8" standalone="no"?>
<!DOCTYPE svg PUBLIC "-//W3C//DTD SVG 1.1//EN"
  "http://www.w3.org/Graphics/SVG/1.1/DTD/svg11.dtd">
<svg xmlns:xlink="http://www.w3.org/1999/xlink" width="460.8pt" height="345.6pt" viewBox="0 0 460.8 345.6" xmlns="http://www.w3.org/2000/svg" version="1.1">
 <metadata>
  <rdf:RDF xmlns:dc="http://purl.org/dc/elements/1.1/" xmlns:cc="http://creativecommons.org/ns#" xmlns:rdf="http://www.w3.org/1999/02/22-rdf-syntax-ns#">
   <cc:Work>
    <dc:type rdf:resource="http://purl.org/dc/dcmitype/StillImage"/>
    <dc:date>2023-04-13T09:22:58.973314</dc:date>
    <dc:format>image/svg+xml</dc:format>
    <dc:creator>
     <cc:Agent>
      <dc:title>Matplotlib v3.7.1, https://matplotlib.org/</dc:title>
     </cc:Agent>
    </dc:creator>
   </cc:Work>
  </rdf:RDF>
 </metadata>
 <defs>
  <style type="text/css">*{stroke-linejoin: round; stroke-linecap: butt}</style>
 </defs>
 <g id="figure_1">
  <g id="patch_1">
   <path d="M 0 345.6 
L 460.8 345.6 
L 460.8 0 
L 0 0 
z
" style="fill: #ffffff"/>
  </g>
  <g id="axes_1">
   <g id="patch_2">
    <path d="M 57.6 307.584 
L 414.72 307.584 
L 414.72 41.472 
L 57.6 41.472 
z
" style="fill: #ffffff"/>
   </g>
   <g id="matplotlib.axis_1">
    <g id="xtick_1">
     <g id="line2d_1">
      <defs>
       <path id="m4929535d72" d="M 0 0 
L 0 3.5 
" style="stroke: #000000; stroke-width: 0.8"/>
      </defs>
      <g>
       <use xlink:href="#m4929535d72" x="73.832727" y="307.584" style="stroke: #000000; stroke-width: 0.8"/>
      </g>
     </g>
     <g id="text_1">
      <!-- 0 -->
      <g transform="translate(70.651477 322.182437) scale(0.1 -0.1)">
       <defs>
        <path id="DejaVuSans-30" d="M 2034 4250 
Q 1547 4250 1301 3770 
Q 1056 3291 1056 2328 
Q 1056 1369 1301 889 
Q 1547 409 2034 409 
Q 2525 409 2770 889 
Q 3016 1369 3016 2328 
Q 3016 3291 2770 3770 
Q 2525 4250 2034 4250 
z
M 2034 4750 
Q 2819 4750 3233 4129 
Q 3647 3509 3647 2328 
Q 3647 1150 3233 529 
Q 2819 -91 2034 -91 
Q 1250 -91 836 529 
Q 422 1150 422 2328 
Q 422 3509 836 4129 
Q 1250 4750 2034 4750 
z
" transform="scale(0.015625)"/>
       </defs>
       <use xlink:href="#DejaVuSans-30"/>
      </g>
     </g>
    </g>
    <g id="xtick_2">
     <g id="line2d_2">
      <g>
       <use xlink:href="#m4929535d72" x="138.893758" y="307.584" style="stroke: #000000; stroke-width: 0.8"/>
      </g>
     </g>
     <g id="text_2">
      <!-- 100 -->
      <g transform="translate(129.350008 322.182437) scale(0.1 -0.1)">
       <defs>
        <path id="DejaVuSans-31" d="M 794 531 
L 1825 531 
L 1825 4091 
L 703 3866 
L 703 4441 
L 1819 4666 
L 2450 4666 
L 2450 531 
L 3481 531 
L 3481 0 
L 794 0 
L 794 531 
z
" transform="scale(0.015625)"/>
       </defs>
       <use xlink:href="#DejaVuSans-31"/>
       <use xlink:href="#DejaVuSans-30" x="63.623047"/>
       <use xlink:href="#DejaVuSans-30" x="127.246094"/>
      </g>
     </g>
    </g>
    <g id="xtick_3">
     <g id="line2d_3">
      <g>
       <use xlink:href="#m4929535d72" x="203.95479" y="307.584" style="stroke: #000000; stroke-width: 0.8"/>
      </g>
     </g>
     <g id="text_3">
      <!-- 200 -->
      <g transform="translate(194.41104 322.182437) scale(0.1 -0.1)">
       <defs>
        <path id="DejaVuSans-32" d="M 1228 531 
L 3431 531 
L 3431 0 
L 469 0 
L 469 531 
Q 828 903 1448 1529 
Q 2069 2156 2228 2338 
Q 2531 2678 2651 2914 
Q 2772 3150 2772 3378 
Q 2772 3750 2511 3984 
Q 2250 4219 1831 4219 
Q 1534 4219 1204 4116 
Q 875 4013 500 3803 
L 500 4441 
Q 881 4594 1212 4672 
Q 1544 4750 1819 4750 
Q 2544 4750 2975 4387 
Q 3406 4025 3406 3419 
Q 3406 3131 3298 2873 
Q 3191 2616 2906 2266 
Q 2828 2175 2409 1742 
Q 1991 1309 1228 531 
z
" transform="scale(0.015625)"/>
       </defs>
       <use xlink:href="#DejaVuSans-32"/>
       <use xlink:href="#DejaVuSans-30" x="63.623047"/>
       <use xlink:href="#DejaVuSans-30" x="127.246094"/>
      </g>
     </g>
    </g>
    <g id="xtick_4">
     <g id="line2d_4">
      <g>
       <use xlink:href="#m4929535d72" x="269.015821" y="307.584" style="stroke: #000000; stroke-width: 0.8"/>
      </g>
     </g>
     <g id="text_4">
      <!-- 300 -->
      <g transform="translate(259.472071 322.182437) scale(0.1 -0.1)">
       <defs>
        <path id="DejaVuSans-33" d="M 2597 2516 
Q 3050 2419 3304 2112 
Q 3559 1806 3559 1356 
Q 3559 666 3084 287 
Q 2609 -91 1734 -91 
Q 1441 -91 1130 -33 
Q 819 25 488 141 
L 488 750 
Q 750 597 1062 519 
Q 1375 441 1716 441 
Q 2309 441 2620 675 
Q 2931 909 2931 1356 
Q 2931 1769 2642 2001 
Q 2353 2234 1838 2234 
L 1294 2234 
L 1294 2753 
L 1863 2753 
Q 2328 2753 2575 2939 
Q 2822 3125 2822 3475 
Q 2822 3834 2567 4026 
Q 2313 4219 1838 4219 
Q 1578 4219 1281 4162 
Q 984 4106 628 3988 
L 628 4550 
Q 988 4650 1302 4700 
Q 1616 4750 1894 4750 
Q 2613 4750 3031 4423 
Q 3450 4097 3450 3541 
Q 3450 3153 3228 2886 
Q 3006 2619 2597 2516 
z
" transform="scale(0.015625)"/>
       </defs>
       <use xlink:href="#DejaVuSans-33"/>
       <use xlink:href="#DejaVuSans-30" x="63.623047"/>
       <use xlink:href="#DejaVuSans-30" x="127.246094"/>
      </g>
     </g>
    </g>
    <g id="xtick_5">
     <g id="line2d_5">
      <g>
       <use xlink:href="#m4929535d72" x="334.076852" y="307.584" style="stroke: #000000; stroke-width: 0.8"/>
      </g>
     </g>
     <g id="text_5">
      <!-- 400 -->
      <g transform="translate(324.533102 322.182437) scale(0.1 -0.1)">
       <defs>
        <path id="DejaVuSans-34" d="M 2419 4116 
L 825 1625 
L 2419 1625 
L 2419 4116 
z
M 2253 4666 
L 3047 4666 
L 3047 1625 
L 3713 1625 
L 3713 1100 
L 3047 1100 
L 3047 0 
L 2419 0 
L 2419 1100 
L 313 1100 
L 313 1709 
L 2253 4666 
z
" transform="scale(0.015625)"/>
       </defs>
       <use xlink:href="#DejaVuSans-34"/>
       <use xlink:href="#DejaVuSans-30" x="63.623047"/>
       <use xlink:href="#DejaVuSans-30" x="127.246094"/>
      </g>
     </g>
    </g>
    <g id="xtick_6">
     <g id="line2d_6">
      <g>
       <use xlink:href="#m4929535d72" x="399.137883" y="307.584" style="stroke: #000000; stroke-width: 0.8"/>
      </g>
     </g>
     <g id="text_6">
      <!-- 500 -->
      <g transform="translate(389.594133 322.182437) scale(0.1 -0.1)">
       <defs>
        <path id="DejaVuSans-35" d="M 691 4666 
L 3169 4666 
L 3169 4134 
L 1269 4134 
L 1269 2991 
Q 1406 3038 1543 3061 
Q 1681 3084 1819 3084 
Q 2600 3084 3056 2656 
Q 3513 2228 3513 1497 
Q 3513 744 3044 326 
Q 2575 -91 1722 -91 
Q 1428 -91 1123 -41 
Q 819 9 494 109 
L 494 744 
Q 775 591 1075 516 
Q 1375 441 1709 441 
Q 2250 441 2565 725 
Q 2881 1009 2881 1497 
Q 2881 1984 2565 2268 
Q 2250 2553 1709 2553 
Q 1456 2553 1204 2497 
Q 953 2441 691 2322 
L 691 4666 
z
" transform="scale(0.015625)"/>
       </defs>
       <use xlink:href="#DejaVuSans-35"/>
       <use xlink:href="#DejaVuSans-30" x="63.623047"/>
       <use xlink:href="#DejaVuSans-30" x="127.246094"/>
      </g>
     </g>
    </g>
    <g id="text_7">
     <!-- epoch -->
     <g transform="translate(220.931875 335.860562) scale(0.1 -0.1)">
      <defs>
       <path id="DejaVuSans-65" d="M 3597 1894 
L 3597 1613 
L 953 1613 
Q 991 1019 1311 708 
Q 1631 397 2203 397 
Q 2534 397 2845 478 
Q 3156 559 3463 722 
L 3463 178 
Q 3153 47 2828 -22 
Q 2503 -91 2169 -91 
Q 1331 -91 842 396 
Q 353 884 353 1716 
Q 353 2575 817 3079 
Q 1281 3584 2069 3584 
Q 2775 3584 3186 3129 
Q 3597 2675 3597 1894 
z
M 3022 2063 
Q 3016 2534 2758 2815 
Q 2500 3097 2075 3097 
Q 1594 3097 1305 2825 
Q 1016 2553 972 2059 
L 3022 2063 
z
" transform="scale(0.015625)"/>
       <path id="DejaVuSans-70" d="M 1159 525 
L 1159 -1331 
L 581 -1331 
L 581 3500 
L 1159 3500 
L 1159 2969 
Q 1341 3281 1617 3432 
Q 1894 3584 2278 3584 
Q 2916 3584 3314 3078 
Q 3713 2572 3713 1747 
Q 3713 922 3314 415 
Q 2916 -91 2278 -91 
Q 1894 -91 1617 61 
Q 1341 213 1159 525 
z
M 3116 1747 
Q 3116 2381 2855 2742 
Q 2594 3103 2138 3103 
Q 1681 3103 1420 2742 
Q 1159 2381 1159 1747 
Q 1159 1113 1420 752 
Q 1681 391 2138 391 
Q 2594 391 2855 752 
Q 3116 1113 3116 1747 
z
" transform="scale(0.015625)"/>
       <path id="DejaVuSans-6f" d="M 1959 3097 
Q 1497 3097 1228 2736 
Q 959 2375 959 1747 
Q 959 1119 1226 758 
Q 1494 397 1959 397 
Q 2419 397 2687 759 
Q 2956 1122 2956 1747 
Q 2956 2369 2687 2733 
Q 2419 3097 1959 3097 
z
M 1959 3584 
Q 2709 3584 3137 3096 
Q 3566 2609 3566 1747 
Q 3566 888 3137 398 
Q 2709 -91 1959 -91 
Q 1206 -91 779 398 
Q 353 888 353 1747 
Q 353 2609 779 3096 
Q 1206 3584 1959 3584 
z
" transform="scale(0.015625)"/>
       <path id="DejaVuSans-63" d="M 3122 3366 
L 3122 2828 
Q 2878 2963 2633 3030 
Q 2388 3097 2138 3097 
Q 1578 3097 1268 2742 
Q 959 2388 959 1747 
Q 959 1106 1268 751 
Q 1578 397 2138 397 
Q 2388 397 2633 464 
Q 2878 531 3122 666 
L 3122 134 
Q 2881 22 2623 -34 
Q 2366 -91 2075 -91 
Q 1284 -91 818 406 
Q 353 903 353 1747 
Q 353 2603 823 3093 
Q 1294 3584 2113 3584 
Q 2378 3584 2631 3529 
Q 2884 3475 3122 3366 
z
" transform="scale(0.015625)"/>
       <path id="DejaVuSans-68" d="M 3513 2113 
L 3513 0 
L 2938 0 
L 2938 2094 
Q 2938 2591 2744 2837 
Q 2550 3084 2163 3084 
Q 1697 3084 1428 2787 
Q 1159 2491 1159 1978 
L 1159 0 
L 581 0 
L 581 4863 
L 1159 4863 
L 1159 2956 
Q 1366 3272 1645 3428 
Q 1925 3584 2291 3584 
Q 2894 3584 3203 3211 
Q 3513 2838 3513 2113 
z
" transform="scale(0.015625)"/>
      </defs>
      <use xlink:href="#DejaVuSans-65"/>
      <use xlink:href="#DejaVuSans-70" x="61.523438"/>
      <use xlink:href="#DejaVuSans-6f" x="125"/>
      <use xlink:href="#DejaVuSans-63" x="186.181641"/>
      <use xlink:href="#DejaVuSans-68" x="241.162109"/>
     </g>
    </g>
   </g>
   <g id="matplotlib.axis_2">
    <g id="ytick_1">
     <g id="line2d_7">
      <defs>
       <path id="m1245b3e777" d="M 0 0 
L -3.5 0 
" style="stroke: #000000; stroke-width: 0.8"/>
      </defs>
      <g>
       <use xlink:href="#m1245b3e777" x="57.6" y="295.931329" style="stroke: #000000; stroke-width: 0.8"/>
      </g>
     </g>
     <g id="text_8">
      <!-- 0.1 -->
      <g transform="translate(34.696875 299.730547) scale(0.1 -0.1)">
       <defs>
        <path id="DejaVuSans-2e" d="M 684 794 
L 1344 794 
L 1344 0 
L 684 0 
L 684 794 
z
" transform="scale(0.015625)"/>
       </defs>
       <use xlink:href="#DejaVuSans-30"/>
       <use xlink:href="#DejaVuSans-2e" x="63.623047"/>
       <use xlink:href="#DejaVuSans-31" x="95.410156"/>
      </g>
     </g>
    </g>
    <g id="ytick_2">
     <g id="line2d_8">
      <g>
       <use xlink:href="#m1245b3e777" x="57.6" y="265.623777" style="stroke: #000000; stroke-width: 0.8"/>
      </g>
     </g>
     <g id="text_9">
      <!-- 0.2 -->
      <g transform="translate(34.696875 269.422996) scale(0.1 -0.1)">
       <use xlink:href="#DejaVuSans-30"/>
       <use xlink:href="#DejaVuSans-2e" x="63.623047"/>
       <use xlink:href="#DejaVuSans-32" x="95.410156"/>
      </g>
     </g>
    </g>
    <g id="ytick_3">
     <g id="line2d_9">
      <g>
       <use xlink:href="#m1245b3e777" x="57.6" y="235.316225" style="stroke: #000000; stroke-width: 0.8"/>
      </g>
     </g>
     <g id="text_10">
      <!-- 0.3 -->
      <g transform="translate(34.696875 239.115444) scale(0.1 -0.1)">
       <use xlink:href="#DejaVuSans-30"/>
       <use xlink:href="#DejaVuSans-2e" x="63.623047"/>
       <use xlink:href="#DejaVuSans-33" x="95.410156"/>
      </g>
     </g>
    </g>
    <g id="ytick_4">
     <g id="line2d_10">
      <g>
       <use xlink:href="#m1245b3e777" x="57.6" y="205.008673" style="stroke: #000000; stroke-width: 0.8"/>
      </g>
     </g>
     <g id="text_11">
      <!-- 0.4 -->
      <g transform="translate(34.696875 208.807892) scale(0.1 -0.1)">
       <use xlink:href="#DejaVuSans-30"/>
       <use xlink:href="#DejaVuSans-2e" x="63.623047"/>
       <use xlink:href="#DejaVuSans-34" x="95.410156"/>
      </g>
     </g>
    </g>
    <g id="ytick_5">
     <g id="line2d_11">
      <g>
       <use xlink:href="#m1245b3e777" x="57.6" y="174.701121" style="stroke: #000000; stroke-width: 0.8"/>
      </g>
     </g>
     <g id="text_12">
      <!-- 0.5 -->
      <g transform="translate(34.696875 178.50034) scale(0.1 -0.1)">
       <use xlink:href="#DejaVuSans-30"/>
       <use xlink:href="#DejaVuSans-2e" x="63.623047"/>
       <use xlink:href="#DejaVuSans-35" x="95.410156"/>
      </g>
     </g>
    </g>
    <g id="ytick_6">
     <g id="line2d_12">
      <g>
       <use xlink:href="#m1245b3e777" x="57.6" y="144.393569" style="stroke: #000000; stroke-width: 0.8"/>
      </g>
     </g>
     <g id="text_13">
      <!-- 0.6 -->
      <g transform="translate(34.696875 148.192788) scale(0.1 -0.1)">
       <defs>
        <path id="DejaVuSans-36" d="M 2113 2584 
Q 1688 2584 1439 2293 
Q 1191 2003 1191 1497 
Q 1191 994 1439 701 
Q 1688 409 2113 409 
Q 2538 409 2786 701 
Q 3034 994 3034 1497 
Q 3034 2003 2786 2293 
Q 2538 2584 2113 2584 
z
M 3366 4563 
L 3366 3988 
Q 3128 4100 2886 4159 
Q 2644 4219 2406 4219 
Q 1781 4219 1451 3797 
Q 1122 3375 1075 2522 
Q 1259 2794 1537 2939 
Q 1816 3084 2150 3084 
Q 2853 3084 3261 2657 
Q 3669 2231 3669 1497 
Q 3669 778 3244 343 
Q 2819 -91 2113 -91 
Q 1303 -91 875 529 
Q 447 1150 447 2328 
Q 447 3434 972 4092 
Q 1497 4750 2381 4750 
Q 2619 4750 2861 4703 
Q 3103 4656 3366 4563 
z
" transform="scale(0.015625)"/>
       </defs>
       <use xlink:href="#DejaVuSans-30"/>
       <use xlink:href="#DejaVuSans-2e" x="63.623047"/>
       <use xlink:href="#DejaVuSans-36" x="95.410156"/>
      </g>
     </g>
    </g>
    <g id="ytick_7">
     <g id="line2d_13">
      <g>
       <use xlink:href="#m1245b3e777" x="57.6" y="114.086017" style="stroke: #000000; stroke-width: 0.8"/>
      </g>
     </g>
     <g id="text_14">
      <!-- 0.7 -->
      <g transform="translate(34.696875 117.885236) scale(0.1 -0.1)">
       <defs>
        <path id="DejaVuSans-37" d="M 525 4666 
L 3525 4666 
L 3525 4397 
L 1831 0 
L 1172 0 
L 2766 4134 
L 525 4134 
L 525 4666 
z
" transform="scale(0.015625)"/>
       </defs>
       <use xlink:href="#DejaVuSans-30"/>
       <use xlink:href="#DejaVuSans-2e" x="63.623047"/>
       <use xlink:href="#DejaVuSans-37" x="95.410156"/>
      </g>
     </g>
    </g>
    <g id="ytick_8">
     <g id="line2d_14">
      <g>
       <use xlink:href="#m1245b3e777" x="57.6" y="83.778465" style="stroke: #000000; stroke-width: 0.8"/>
      </g>
     </g>
     <g id="text_15">
      <!-- 0.8 -->
      <g transform="translate(34.696875 87.577684) scale(0.1 -0.1)">
       <defs>
        <path id="DejaVuSans-38" d="M 2034 2216 
Q 1584 2216 1326 1975 
Q 1069 1734 1069 1313 
Q 1069 891 1326 650 
Q 1584 409 2034 409 
Q 2484 409 2743 651 
Q 3003 894 3003 1313 
Q 3003 1734 2745 1975 
Q 2488 2216 2034 2216 
z
M 1403 2484 
Q 997 2584 770 2862 
Q 544 3141 544 3541 
Q 544 4100 942 4425 
Q 1341 4750 2034 4750 
Q 2731 4750 3128 4425 
Q 3525 4100 3525 3541 
Q 3525 3141 3298 2862 
Q 3072 2584 2669 2484 
Q 3125 2378 3379 2068 
Q 3634 1759 3634 1313 
Q 3634 634 3220 271 
Q 2806 -91 2034 -91 
Q 1263 -91 848 271 
Q 434 634 434 1313 
Q 434 1759 690 2068 
Q 947 2378 1403 2484 
z
M 1172 3481 
Q 1172 3119 1398 2916 
Q 1625 2713 2034 2713 
Q 2441 2713 2670 2916 
Q 2900 3119 2900 3481 
Q 2900 3844 2670 4047 
Q 2441 4250 2034 4250 
Q 1625 4250 1398 4047 
Q 1172 3844 1172 3481 
z
" transform="scale(0.015625)"/>
       </defs>
       <use xlink:href="#DejaVuSans-30"/>
       <use xlink:href="#DejaVuSans-2e" x="63.623047"/>
       <use xlink:href="#DejaVuSans-38" x="95.410156"/>
      </g>
     </g>
    </g>
    <g id="ytick_9">
     <g id="line2d_15">
      <g>
       <use xlink:href="#m1245b3e777" x="57.6" y="53.470913" style="stroke: #000000; stroke-width: 0.8"/>
      </g>
     </g>
     <g id="text_16">
      <!-- 0.9 -->
      <g transform="translate(34.696875 57.270132) scale(0.1 -0.1)">
       <defs>
        <path id="DejaVuSans-39" d="M 703 97 
L 703 672 
Q 941 559 1184 500 
Q 1428 441 1663 441 
Q 2288 441 2617 861 
Q 2947 1281 2994 2138 
Q 2813 1869 2534 1725 
Q 2256 1581 1919 1581 
Q 1219 1581 811 2004 
Q 403 2428 403 3163 
Q 403 3881 828 4315 
Q 1253 4750 1959 4750 
Q 2769 4750 3195 4129 
Q 3622 3509 3622 2328 
Q 3622 1225 3098 567 
Q 2575 -91 1691 -91 
Q 1453 -91 1209 -44 
Q 966 3 703 97 
z
M 1959 2075 
Q 2384 2075 2632 2365 
Q 2881 2656 2881 3163 
Q 2881 3666 2632 3958 
Q 2384 4250 1959 4250 
Q 1534 4250 1286 3958 
Q 1038 3666 1038 3163 
Q 1038 2656 1286 2365 
Q 1534 2075 1959 2075 
z
" transform="scale(0.015625)"/>
       </defs>
       <use xlink:href="#DejaVuSans-30"/>
       <use xlink:href="#DejaVuSans-2e" x="63.623047"/>
       <use xlink:href="#DejaVuSans-39" x="95.410156"/>
      </g>
     </g>
    </g>
    <g id="text_17">
     <!-- loss value -->
     <g transform="translate(28.617187 199.432687) rotate(-90) scale(0.1 -0.1)">
      <defs>
       <path id="DejaVuSans-6c" d="M 603 4863 
L 1178 4863 
L 1178 0 
L 603 0 
L 603 4863 
z
" transform="scale(0.015625)"/>
       <path id="DejaVuSans-73" d="M 2834 3397 
L 2834 2853 
Q 2591 2978 2328 3040 
Q 2066 3103 1784 3103 
Q 1356 3103 1142 2972 
Q 928 2841 928 2578 
Q 928 2378 1081 2264 
Q 1234 2150 1697 2047 
L 1894 2003 
Q 2506 1872 2764 1633 
Q 3022 1394 3022 966 
Q 3022 478 2636 193 
Q 2250 -91 1575 -91 
Q 1294 -91 989 -36 
Q 684 19 347 128 
L 347 722 
Q 666 556 975 473 
Q 1284 391 1588 391 
Q 1994 391 2212 530 
Q 2431 669 2431 922 
Q 2431 1156 2273 1281 
Q 2116 1406 1581 1522 
L 1381 1569 
Q 847 1681 609 1914 
Q 372 2147 372 2553 
Q 372 3047 722 3315 
Q 1072 3584 1716 3584 
Q 2034 3584 2315 3537 
Q 2597 3491 2834 3397 
z
" transform="scale(0.015625)"/>
       <path id="DejaVuSans-20" transform="scale(0.015625)"/>
       <path id="DejaVuSans-76" d="M 191 3500 
L 800 3500 
L 1894 563 
L 2988 3500 
L 3597 3500 
L 2284 0 
L 1503 0 
L 191 3500 
z
" transform="scale(0.015625)"/>
       <path id="DejaVuSans-61" d="M 2194 1759 
Q 1497 1759 1228 1600 
Q 959 1441 959 1056 
Q 959 750 1161 570 
Q 1363 391 1709 391 
Q 2188 391 2477 730 
Q 2766 1069 2766 1631 
L 2766 1759 
L 2194 1759 
z
M 3341 1997 
L 3341 0 
L 2766 0 
L 2766 531 
Q 2569 213 2275 61 
Q 1981 -91 1556 -91 
Q 1019 -91 701 211 
Q 384 513 384 1019 
Q 384 1609 779 1909 
Q 1175 2209 1959 2209 
L 2766 2209 
L 2766 2266 
Q 2766 2663 2505 2880 
Q 2244 3097 1772 3097 
Q 1472 3097 1187 3025 
Q 903 2953 641 2809 
L 641 3341 
Q 956 3463 1253 3523 
Q 1550 3584 1831 3584 
Q 2591 3584 2966 3190 
Q 3341 2797 3341 1997 
z
" transform="scale(0.015625)"/>
       <path id="DejaVuSans-75" d="M 544 1381 
L 544 3500 
L 1119 3500 
L 1119 1403 
Q 1119 906 1312 657 
Q 1506 409 1894 409 
Q 2359 409 2629 706 
Q 2900 1003 2900 1516 
L 2900 3500 
L 3475 3500 
L 3475 0 
L 2900 0 
L 2900 538 
Q 2691 219 2414 64 
Q 2138 -91 1772 -91 
Q 1169 -91 856 284 
Q 544 659 544 1381 
z
M 1991 3584 
L 1991 3584 
z
" transform="scale(0.015625)"/>
      </defs>
      <use xlink:href="#DejaVuSans-6c"/>
      <use xlink:href="#DejaVuSans-6f" x="27.783203"/>
      <use xlink:href="#DejaVuSans-73" x="88.964844"/>
      <use xlink:href="#DejaVuSans-73" x="141.064453"/>
      <use xlink:href="#DejaVuSans-20" x="193.164062"/>
      <use xlink:href="#DejaVuSans-76" x="224.951172"/>
      <use xlink:href="#DejaVuSans-61" x="284.130859"/>
      <use xlink:href="#DejaVuSans-6c" x="345.410156"/>
      <use xlink:href="#DejaVuSans-75" x="373.193359"/>
      <use xlink:href="#DejaVuSans-65" x="436.572266"/>
     </g>
    </g>
   </g>
   <g id="line2d_16">
    <path d="M 73.832727 90.457111 
L 74.483338 134.215923 
L 75.133948 194.151049 
L 75.784558 242.611979 
L 76.435169 268.411106 
L 77.085779 279.52685 
L 77.736389 282.260307 
L 78.386999 282.616308 
L 79.03761 284.401124 
L 79.68822 283.903689 
L 80.33883 206.222213 
L 81.640051 260.584508 
L 82.290661 273.765653 
L 82.941272 278.411232 
L 83.591882 279.208414 
L 84.242492 278.215117 
L 85.543713 277.986549 
L 86.194323 277.9415 
L 86.844934 219.89904 
L 87.495544 248.955121 
L 88.146154 268.45448 
L 88.796764 279.905856 
L 89.447375 285.002557 
L 90.097985 286.614141 
L 90.748595 287.807184 
L 91.399206 286.737907 
L 92.049816 287.900289 
L 92.700426 287.467373 
L 93.351037 214.012032 
L 94.001647 245.19217 
L 94.652257 268.61759 
L 95.302868 281.902025 
L 95.953478 286.652334 
L 96.604088 289.046488 
L 97.254698 289.49466 
L 97.905309 289.357303 
L 98.555919 288.581546 
L 99.206529 290.220428 
L 99.85714 219.28157 
L 100.50775 249.633135 
L 101.15836 272.39395 
L 101.808971 283.415423 
L 102.459581 288.892649 
L 103.110191 291.199088 
L 103.760802 291.45094 
L 104.411412 290.471067 
L 105.062022 292.111686 
L 105.712633 292.834976 
L 106.363243 218.741896 
L 107.013853 248.43129 
L 107.664463 271.34425 
L 108.315074 283.78383 
L 108.965684 289.268772 
L 109.616294 291.171302 
L 110.266905 292.205706 
L 110.917515 291.125531 
L 111.568125 292.053267 
L 112.218736 293.353747 
L 112.869346 220.297819 
L 113.519956 251.493105 
L 114.170567 273.611308 
L 114.821177 286.149869 
L 115.471787 290.93783 
L 116.122398 292.600018 
L 116.773008 292.904022 
L 117.423618 291.910298 
L 118.074228 293.083675 
L 118.724839 293.203975 
L 119.375449 218.938115 
L 120.026059 250.506636 
L 120.67667 273.731538 
L 121.32728 286.031369 
L 121.97789 289.874767 
L 122.628501 292.313213 
L 123.279111 293.809321 
L 123.929721 293.996846 
L 124.580332 292.831101 
L 125.230942 294.334954 
L 125.881552 221.412619 
L 126.532163 252.138602 
L 127.182773 274.200909 
L 127.833383 286.943284 
L 128.483993 291.793431 
L 129.134604 294.061739 
L 129.785214 293.234172 
L 130.435824 295.488 
L 131.086435 294.315815 
L 131.737045 294.980438 
L 132.387655 219.69789 
L 133.038266 251.233217 
L 133.688876 274.945997 
L 134.339486 287.204916 
L 134.990097 291.250424 
L 136.291317 294.376756 
L 136.941927 293.514072 
L 137.592538 294.988538 
L 138.243148 295.076391 
L 138.893758 220.61555 
L 139.544369 252.329609 
L 140.845589 269.961081 
L 141.4962 278.068052 
L 142.79742 287.237391 
L 143.448031 289.835898 
L 144.098641 291.456849 
L 144.749251 291.843689 
L 145.399862 218.627321 
L 146.701082 253.48379 
L 148.002303 274.989514 
L 148.652913 282.584866 
L 149.303523 286.387126 
L 150.604744 291.22784 
L 151.255354 290.336812 
L 151.905965 217.810254 
L 152.556575 236.713165 
L 153.857796 266.254659 
L 154.508406 275.036727 
L 155.159016 281.692095 
L 155.809627 286.307569 
L 156.460237 288.539548 
L 157.110847 289.768569 
L 157.761457 291.496582 
L 158.412068 220.264137 
L 159.713288 252.374468 
L 161.014509 274.586757 
L 161.665119 280.288006 
L 162.96634 287.58987 
L 163.61695 290.271041 
L 164.267561 291.417502 
L 164.918171 220.570171 
L 166.870002 263.142814 
L 167.520612 272.150099 
L 168.171222 278.994347 
L 168.821833 283.209192 
L 169.472443 285.336704 
L 170.123053 289.32468 
L 170.773664 290.578904 
L 171.424274 219.248277 
L 172.074884 235.804284 
L 173.376105 261.344025 
L 174.026715 270.914807 
L 175.327936 282.430183 
L 175.978546 286.081851 
L 176.629156 287.808295 
L 177.279767 288.885873 
L 177.930377 219.196133 
L 179.231598 248.284397 
L 179.882208 259.791115 
L 180.532818 268.639674 
L 181.834039 280.853915 
L 183.13526 286.643609 
L 183.78587 287.904905 
L 184.43648 220.579023 
L 186.388311 257.724774 
L 187.689532 274.496813 
L 188.990752 282.778434 
L 189.641363 285.530258 
L 190.291973 287.60079 
L 190.942583 220.42177 
L 192.894414 256.724852 
L 193.545025 265.775659 
L 194.195635 272.14706 
L 195.496856 280.837977 
L 196.147466 283.221467 
L 196.798076 286.583476 
L 197.448686 220.631121 
L 198.099297 231.253279 
L 199.400517 255.524547 
L 200.701738 269.83227 
L 201.352348 275.59965 
L 202.002959 279.080652 
L 202.653569 283.243352 
L 203.304179 284.967854 
L 203.95479 219.798257 
L 204.6054 230.719611 
L 205.25601 243.650926 
L 205.906621 253.582699 
L 206.557231 260.334352 
L 207.207841 268.574551 
L 207.858451 273.028125 
L 208.509062 278.299624 
L 209.159672 281.82305 
L 209.810282 283.4393 
L 210.460893 220.121046 
L 211.762113 241.021047 
L 213.063334 259.97439 
L 214.364555 271.669939 
L 215.015165 276.248611 
L 216.316385 282.104883 
L 216.966996 220.609769 
L 218.268216 240.681449 
L 219.569437 257.325784 
L 220.220047 264.851668 
L 220.870658 270.332676 
L 221.521268 273.080883 
L 222.171878 277.451115 
L 222.822489 280.502714 
L 223.473099 220.614845 
L 224.77432 238.983077 
L 225.42493 248.385532 
L 226.72615 262.258095 
L 228.027371 272.299273 
L 228.677981 275.333525 
L 229.328592 279.04884 
L 229.979202 220.241249 
L 231.280423 239.039674 
L 232.581643 253.961755 
L 233.882864 265.484271 
L 234.533474 269.698217 
L 235.834695 276.989187 
L 236.485305 220.964533 
L 238.437136 245.037654 
L 239.738357 257.911265 
L 240.388967 263.715397 
L 241.039577 267.91033 
L 242.340798 275.001527 
L 242.991408 219.749374 
L 244.292629 236.199224 
L 245.59385 250.762175 
L 246.89507 261.273369 
L 248.846901 272.933994 
L 249.497511 220.109377 
L 251.449342 242.761004 
L 253.401173 260.089327 
L 254.702394 267.819108 
L 255.353004 269.645012 
L 256.003615 220.437946 
L 257.304835 235.065411 
L 257.955445 241.864705 
L 259.256666 253.171352 
L 259.907276 256.777036 
L 260.557887 261.832752 
L 261.859107 268.983536 
L 262.509718 220.59818 
L 263.160328 226.123524 
L 263.810938 234.062232 
L 265.762769 250.754719 
L 266.413379 255.499776 
L 267.06399 258.545892 
L 268.36521 265.624806 
L 269.015821 221.486702 
L 270.317041 233.914084 
L 270.967652 236.904136 
L 272.919483 253.652817 
L 273.570093 257.60636 
L 274.220703 260.719221 
L 274.871314 264.627927 
L 275.521924 220.62983 
L 277.473755 238.304955 
L 278.124365 242.210184 
L 278.774975 246.918208 
L 279.425586 250.567821 
L 280.076196 255.868513 
L 280.726806 258.422063 
L 281.377417 262.39704 
L 282.028027 220.055146 
L 283.979858 237.382092 
L 286.582299 253.271074 
L 287.232909 257.076554 
L 287.88352 259.858609 
L 288.53413 221.320588 
L 289.18474 225.748646 
L 289.835351 231.091906 
L 291.787182 243.649607 
L 293.739013 254.492844 
L 294.389623 258.093353 
L 295.040233 221.287954 
L 295.690844 224.358395 
L 296.992064 235.477539 
L 297.642674 239.418111 
L 298.943895 245.268991 
L 299.594505 249.823266 
L 300.245116 251.917901 
L 300.895726 255.34306 
L 301.546336 220.16778 
L 302.196947 225.399446 
L 304.148778 237.09732 
L 304.799388 240.112022 
L 305.449998 245.329309 
L 306.100608 247.016372 
L 306.751219 250.638906 
L 307.401829 252.622628 
L 308.052439 220.096623 
L 308.70305 224.766296 
L 310.654881 236.305481 
L 311.305491 239.301513 
L 311.956101 242.936231 
L 312.606712 245.011514 
L 313.257322 248.91696 
L 313.907932 250.223011 
L 314.558543 221.008927 
L 315.859763 228.097663 
L 317.160984 234.50433 
L 317.811594 238.969809 
L 319.112815 243.842565 
L 320.414035 249.487091 
L 321.064646 221.029114 
L 321.715256 223.676506 
L 323.016477 230.800198 
L 324.317697 236.158931 
L 324.968308 238.509131 
L 326.920138 247.716217 
L 327.570749 220.009226 
L 328.221359 222.71503 
L 328.871969 226.371697 
L 329.52258 228.784781 
L 330.17319 233.086205 
L 330.8238 235.031955 
L 331.474411 238.601641 
L 332.125021 240.525586 
L 332.775631 243.239592 
L 333.426242 244.775408 
L 334.076852 220.96624 
L 335.378073 226.631071 
L 336.028683 228.660189 
L 336.679293 232.423312 
L 337.329903 234.306548 
L 337.980514 237.372617 
L 339.281734 241.340467 
L 339.932345 243.334007 
L 340.582955 219.860761 
L 341.233565 223.689657 
L 342.534786 228.358707 
L 343.185396 231.663375 
L 343.836007 233.396819 
L 344.486617 236.466076 
L 345.137227 237.33553 
L 345.787837 240.263982 
L 346.438448 241.930136 
L 347.089058 220.582103 
L 347.739668 222.177524 
L 348.390279 225.538101 
L 349.691499 229.945367 
L 350.34211 231.401454 
L 350.99272 234.884818 
L 351.64333 236.051428 
L 352.944551 239.384096 
L 353.595161 222.178499 
L 354.245772 223.788291 
L 354.896382 225.077948 
L 355.546992 226.921524 
L 356.197602 229.479767 
L 356.848213 230.968886 
L 358.149433 235.959668 
L 358.800044 236.891039 
L 359.450654 238.350297 
L 360.101264 219.883938 
L 360.751875 221.854825 
L 361.402485 225.369251 
L 362.053095 227.178522 
L 362.703706 229.976664 
L 363.354316 231.33457 
L 364.004926 233.113393 
L 364.655537 234.139441 
L 365.306147 235.431591 
L 365.956757 236.238379 
L 366.607367 221.315485 
L 367.257978 221.077564 
L 367.908588 224.489075 
L 368.559198 225.560971 
L 369.209809 228.264301 
L 369.860419 229.059545 
L 370.511029 230.657486 
L 371.16164 232.819742 
L 371.81225 234.28992 
L 372.46286 236.81169 
L 373.113471 220.814406 
L 373.764081 222.295893 
L 374.414691 224.202054 
L 375.065302 225.181631 
L 375.715912 227.492567 
L 376.366522 229.18804 
L 377.017132 230.267036 
L 377.667743 232.785184 
L 378.318353 233.483051 
L 378.968963 235.243384 
L 379.619574 220.985632 
L 380.270184 222.59555 
L 380.920794 224.632066 
L 381.571405 225.480638 
L 382.222015 226.717068 
L 382.872625 228.637969 
L 383.523236 230.159388 
L 384.173846 230.418852 
L 384.824456 232.885551 
L 385.475066 234.350446 
L 386.125677 221.117613 
L 386.776287 223.078591 
L 388.728118 226.050706 
L 389.378728 228.037589 
L 390.029339 228.502701 
L 390.679949 230.767681 
L 391.330559 230.869729 
L 391.98117 232.398816 
L 392.63178 220.785078 
L 393.933001 222.984014 
L 395.234221 225.865371 
L 396.535442 227.694594 
L 397.836662 230.822507 
L 398.487273 231.316207 
L 398.487273 231.316207 
" clip-path="url(#p707eb228eb)" style="fill: none; stroke: #0000ff; stroke-width: 1.5; stroke-linecap: square"/>
   </g>
   <g id="line2d_17">
    <path d="M 73.832727 289.349775 
L 79.68822 289.326839 
L 80.33883 291.313679 
L 118.724839 291.301072 
L 124.580332 291.301924 
L 164.267561 291.303945 
L 190.942583 291.304344 
L 398.487273 291.29785 
L 398.487273 291.29785 
" clip-path="url(#p707eb228eb)" style="fill: none; stroke: #008000; stroke-width: 1.5; stroke-linecap: square"/>
   </g>
   <g id="line2d_18">
    <path d="M 73.832727 53.568 
L 74.483338 97.326054 
L 75.133948 157.259753 
L 75.784558 205.718551 
L 76.435169 231.514964 
L 77.085779 242.627614 
L 77.736389 245.357797 
L 78.386999 245.71051 
L 79.03761 247.492133 
L 79.68822 246.99165 
L 80.33883 171.297007 
L 81.640051 225.655116 
L 82.290661 238.833772 
L 82.941272 243.476646 
L 83.591882 244.271042 
L 84.242492 243.274999 
L 85.543713 243.041386 
L 86.194323 242.99412 
L 86.844934 184.965678 
L 87.495544 214.021452 
L 88.146154 233.520156 
L 88.796764 244.970543 
L 89.447375 250.065947 
L 90.097985 251.676046 
L 90.748595 252.867522 
L 91.399206 251.796668 
L 92.049816 252.957516 
L 92.700426 252.523145 
L 93.351037 179.081081 
L 94.001647 210.261337 
L 94.652257 233.686459 
L 95.302868 246.970135 
L 95.953478 251.719297 
L 96.604088 254.112054 
L 97.254698 254.558677 
L 97.905309 254.419732 
L 98.555919 253.642408 
L 99.206529 255.279793 
L 99.85714 184.353366 
L 100.50775 214.705021 
L 101.15836 237.465488 
L 101.808971 248.486134 
L 102.459581 253.962171 
L 103.110191 256.26716 
L 103.760802 256.517419 
L 104.411412 255.535923 
L 105.062022 257.174934 
L 105.712633 257.896673 
L 106.363243 183.815119 
L 107.013853 213.504531 
L 107.664463 236.417076 
L 108.315074 248.855747 
L 108.965684 254.339389 
L 109.616294 256.240366 
L 110.266905 257.27308 
L 110.917515 256.191166 
L 111.568125 257.117199 
L 112.218736 258.416052 
L 112.869346 185.371429 
L 113.519956 216.566679 
L 114.170567 238.684395 
L 114.821177 251.221989 
L 115.471787 256.008586 
L 116.122398 257.669167 
L 116.773008 257.971425 
L 117.423618 256.975915 
L 118.074228 258.147547 
L 118.724839 258.266169 
L 119.375449 184.011347 
L 120.026059 215.579804 
L 120.67667 238.804173 
L 121.32728 251.102979 
L 121.97789 254.944954 
L 122.628501 257.381721 
L 123.279111 258.876025 
L 123.929721 259.061694 
L 124.580332 257.894144 
L 125.230942 259.396266 
L 125.881552 186.485037 
L 126.532163 217.210912 
L 127.182773 239.272654 
L 127.833383 252.013969 
L 128.483993 256.862659 
L 129.134604 259.129256 
L 129.785214 258.299855 
L 130.435824 260.551824 
L 131.086435 259.377808 
L 131.737045 260.040674 
L 132.387655 184.76926 
L 133.038266 216.304461 
L 133.688876 240.016658 
L 134.339486 252.274494 
L 134.990097 256.318504 
L 136.291317 259.441229 
L 136.941927 258.576643 
L 137.592538 260.049251 
L 138.243148 260.135329 
L 138.893758 185.685656 
L 139.544369 217.399589 
L 140.845589 235.030654 
L 141.4962 243.137283 
L 142.79742 252.305746 
L 143.448031 254.903749 
L 144.098641 256.524176 
L 144.749251 256.910476 
L 145.399862 183.69684 
L 146.701082 218.553183 
L 148.002303 240.058307 
L 148.652913 247.653189 
L 149.303523 251.454898 
L 150.604744 256.294397 
L 151.255354 255.402741 
L 151.905965 182.879231 
L 152.556575 201.782106 
L 153.857796 231.323216 
L 154.508406 240.104904 
L 155.159016 246.759799 
L 155.809627 251.374745 
L 156.460237 253.606143 
L 157.110847 254.834561 
L 157.761457 256.561962 
L 158.412068 185.332491 
L 159.713288 217.442655 
L 161.014509 239.654371 
L 161.665119 245.355195 
L 162.96634 252.656029 
L 163.61695 255.336656 
L 164.267561 256.482568 
L 164.918171 185.637929 
L 166.870002 228.210206 
L 167.520612 237.217189 
L 168.171222 244.06104 
L 168.821833 248.275446 
L 169.472443 250.402484 
L 170.123053 254.389952 
L 170.773664 255.643666 
L 171.424274 184.315439 
L 172.074884 200.87141 
L 173.376105 226.410844 
L 174.026715 235.981364 
L 175.327936 247.49599 
L 175.978546 251.147211 
L 176.629156 252.873194 
L 177.279767 253.950311 
L 177.930377 184.262726 
L 179.231598 213.350845 
L 179.882208 224.857396 
L 180.532818 233.705698 
L 181.834039 245.919266 
L 183.13526 251.708142 
L 183.78587 252.969 
L 184.43648 185.645038 
L 186.388311 222.790495 
L 187.689532 239.562042 
L 188.990752 247.842977 
L 189.641363 250.594426 
L 190.291973 252.664574 
L 190.942583 185.487233 
L 192.894414 221.790054 
L 193.545025 230.840672 
L 194.195635 237.211805 
L 195.496856 245.902122 
L 196.147466 248.285264 
L 196.798076 251.646917 
L 197.448686 185.696052 
L 198.099297 196.318182 
L 199.400517 220.589247 
L 200.701738 234.896569 
L 201.352348 240.663682 
L 202.002959 244.14439 
L 202.653569 248.306788 
L 203.304179 250.030974 
L 203.95479 184.8627 
L 204.6054 195.784018 
L 205.25601 208.715269 
L 205.906621 218.646921 
L 206.557231 225.398425 
L 207.207841 233.638416 
L 207.858451 238.091764 
L 208.509062 243.363001 
L 209.159672 246.886152 
L 209.810282 248.502113 
L 210.460893 185.185029 
L 211.762113 206.084939 
L 213.063334 225.038052 
L 214.364555 236.733217 
L 215.015165 241.311645 
L 216.316385 247.16742 
L 216.966996 185.673318 
L 218.268216 205.744925 
L 219.569437 222.389043 
L 220.220047 229.914765 
L 220.870658 235.395588 
L 221.521268 238.143592 
L 222.171878 242.513608 
L 222.822489 245.564981 
L 223.473099 185.677988 
L 224.77432 204.046156 
L 225.42493 213.44853 
L 226.72615 227.320835 
L 228.027371 237.361679 
L 228.677981 240.395737 
L 229.328592 244.110853 
L 229.979202 185.304021 
L 231.280423 204.102383 
L 232.581643 219.024293 
L 233.882864 230.546551 
L 234.533474 234.760343 
L 235.834695 242.050952 
L 236.485305 186.026953 
L 238.437136 210.099947 
L 239.738357 222.973373 
L 240.388967 228.777375 
L 241.039577 232.972181 
L 242.340798 240.063058 
L 242.991408 184.811469 
L 244.292629 201.261265 
L 245.59385 215.824084 
L 246.89507 226.33508 
L 248.846901 237.995308 
L 249.497511 185.171173 
L 251.449342 207.82271 
L 253.401173 225.150794 
L 254.702394 232.880349 
L 255.353004 234.706131 
L 256.003615 185.499463 
L 257.304835 200.126891 
L 257.955445 206.926141 
L 259.256666 218.232661 
L 259.907276 221.838268 
L 260.557887 226.893885 
L 261.859107 234.044457 
L 262.509718 185.659435 
L 263.160328 191.18477 
L 263.810938 199.123451 
L 265.762769 215.815802 
L 266.413379 220.560786 
L 267.06399 223.606822 
L 268.36521 230.68555 
L 269.015821 186.547722 
L 270.317041 198.975085 
L 270.967652 201.965093 
L 272.919483 218.713616 
L 273.570093 222.667095 
L 274.220703 225.77988 
L 274.871314 229.688504 
L 275.521924 185.690633 
L 277.473755 203.365704 
L 278.124365 207.270896 
L 278.774975 211.978876 
L 279.425586 215.628435 
L 280.076196 220.929063 
L 280.726806 223.482545 
L 281.377417 227.45745 
L 282.028027 185.115751 
L 283.979858 202.442642 
L 286.582299 218.331457 
L 287.232909 222.136878 
L 287.88352 224.918861 
L 288.53413 186.381003 
L 289.18474 190.80906 
L 289.835351 196.152303 
L 291.787182 208.709922 
L 293.739013 219.55302 
L 294.389623 223.153479 
L 295.040233 186.348206 
L 295.690844 189.418647 
L 296.992064 200.537755 
L 297.642674 204.478309 
L 298.943895 210.329116 
L 299.594505 214.883356 
L 300.245116 216.97795 
L 300.895726 220.403064 
L 301.546336 185.227878 
L 302.196947 190.459544 
L 304.148778 202.157365 
L 304.799388 205.172048 
L 305.449998 210.389308 
L 306.100608 212.076335 
L 306.751219 215.698833 
L 307.401829 217.682518 
L 308.052439 185.156586 
L 308.70305 189.82625 
L 310.654881 201.365399 
L 311.305491 204.361403 
L 311.956101 207.996104 
L 312.606712 210.07136 
L 313.257322 213.976778 
L 313.907932 215.282784 
L 314.558543 186.068763 
L 315.859763 193.157481 
L 317.160984 199.56413 
L 317.811594 204.029591 
L 319.112815 208.902302 
L 320.414035 214.546774 
L 321.064646 186.088842 
L 321.715256 188.736225 
L 323.016477 195.859899 
L 324.317697 201.218605 
L 324.968308 203.568796 
L 326.920138 212.7758 
L 327.570749 185.068846 
L 328.221359 187.774641 
L 328.871969 191.431308 
L 329.52258 193.844383 
L 330.17319 198.145789 
L 330.8238 200.091539 
L 331.474411 203.661206 
L 332.125021 205.585125 
L 332.775631 208.299122 
L 333.426242 209.834911 
L 334.076852 186.02576 
L 335.378073 191.690591 
L 336.028683 193.7197 
L 336.679293 197.482814 
L 337.329903 199.366042 
L 337.980514 202.432093 
L 339.281734 206.399916 
L 339.932345 208.393437 
L 340.582955 184.9202 
L 341.233565 188.749087 
L 342.534786 193.418128 
L 343.185396 196.722796 
L 343.836007 198.456231 
L 344.486617 201.52547 
L 345.137227 202.394915 
L 345.787837 205.323349 
L 346.438448 206.989493 
L 347.089058 185.641461 
L 347.739668 187.236882 
L 348.390279 190.597459 
L 349.691499 195.004715 
L 350.34211 196.460794 
L 350.99272 199.94414 
L 351.64333 201.110749 
L 352.944551 204.44339 
L 353.595161 187.237794 
L 354.245772 188.847585 
L 354.896382 190.137234 
L 355.546992 191.98081 
L 356.197602 194.539043 
L 356.848213 196.028153 
L 358.149433 201.018918 
L 358.800044 201.95028 
L 359.450654 203.409529 
L 360.101264 184.94316 
L 360.751875 186.914047 
L 361.402485 190.428473 
L 362.053095 192.237744 
L 362.703706 195.035877 
L 363.354316 196.393774 
L 364.004926 198.172597 
L 364.655537 199.198636 
L 365.306147 200.490769 
L 365.956757 201.297557 
L 366.607367 186.374653 
L 367.257978 186.136732 
L 367.908588 189.548243 
L 368.559198 190.62014 
L 369.209809 193.32346 
L 369.860419 194.118696 
L 370.511029 195.716637 
L 371.16164 197.878883 
L 371.81225 199.349052 
L 372.46286 201.870813 
L 373.113471 185.87352 
L 373.764081 187.355007 
L 374.414691 189.261168 
L 375.065302 190.240745 
L 375.715912 192.551672 
L 376.366522 194.247136 
L 377.017132 195.326141 
L 377.667743 197.844271 
L 378.318353 198.542138 
L 378.968963 200.302462 
L 379.619574 186.04471 
L 380.270184 187.654619 
L 380.920794 189.691135 
L 381.571405 190.539697 
L 382.222015 191.776127 
L 382.872625 193.697029 
L 383.523236 195.218448 
L 384.173846 195.477902 
L 384.824456 197.944593 
L 385.475066 199.409487 
L 386.125677 186.176637 
L 386.776287 188.137615 
L 388.728118 191.109729 
L 389.378728 193.096603 
L 390.029339 193.561715 
L 390.679949 195.826696 
L 391.330559 195.928734 
L 391.98117 197.457812 
L 392.63178 185.844065 
L 393.933001 188.043001 
L 395.234221 190.924358 
L 396.535442 192.753573 
L 397.836662 195.881477 
L 398.487273 196.375176 
L 398.487273 196.375176 
" clip-path="url(#p707eb228eb)" style="fill: none; stroke: #ff0000; stroke-width: 1.5; stroke-linecap: square"/>
   </g>
   <g id="patch_3">
    <path d="M 57.6 307.584 
L 57.6 41.472 
" style="fill: none; stroke: #000000; stroke-width: 0.8; stroke-linejoin: miter; stroke-linecap: square"/>
   </g>
   <g id="patch_4">
    <path d="M 414.72 307.584 
L 414.72 41.472 
" style="fill: none; stroke: #000000; stroke-width: 0.8; stroke-linejoin: miter; stroke-linecap: square"/>
   </g>
   <g id="patch_5">
    <path d="M 57.6 307.584 
L 414.72 307.584 
" style="fill: none; stroke: #000000; stroke-width: 0.8; stroke-linejoin: miter; stroke-linecap: square"/>
   </g>
   <g id="patch_6">
    <path d="M 57.6 41.472 
L 414.72 41.472 
" style="fill: none; stroke: #000000; stroke-width: 0.8; stroke-linejoin: miter; stroke-linecap: square"/>
   </g>
   <g id="text_18">
    <!-- The loss curve on λ_0.00025_non_iid/host/8 -->
    <g transform="translate(104.905313 35.472) scale(0.12 -0.12)">
     <defs>
      <path id="DejaVuSans-54" d="M -19 4666 
L 3928 4666 
L 3928 4134 
L 2272 4134 
L 2272 0 
L 1638 0 
L 1638 4134 
L -19 4134 
L -19 4666 
z
" transform="scale(0.015625)"/>
      <path id="DejaVuSans-72" d="M 2631 2963 
Q 2534 3019 2420 3045 
Q 2306 3072 2169 3072 
Q 1681 3072 1420 2755 
Q 1159 2438 1159 1844 
L 1159 0 
L 581 0 
L 581 3500 
L 1159 3500 
L 1159 2956 
Q 1341 3275 1631 3429 
Q 1922 3584 2338 3584 
Q 2397 3584 2469 3576 
Q 2541 3569 2628 3553 
L 2631 2963 
z
" transform="scale(0.015625)"/>
      <path id="DejaVuSans-6e" d="M 3513 2113 
L 3513 0 
L 2938 0 
L 2938 2094 
Q 2938 2591 2744 2837 
Q 2550 3084 2163 3084 
Q 1697 3084 1428 2787 
Q 1159 2491 1159 1978 
L 1159 0 
L 581 0 
L 581 3500 
L 1159 3500 
L 1159 2956 
Q 1366 3272 1645 3428 
Q 1925 3584 2291 3584 
Q 2894 3584 3203 3211 
Q 3513 2838 3513 2113 
z
" transform="scale(0.015625)"/>
      <path id="DejaVuSans-3bb" d="M 1981 4316 
L 3597 0 
L 2988 0 
L 2006 2588 
L 800 0 
L 191 0 
L 1725 3356 
L 1494 3975 
Q 1347 4369 1013 4369 
L 713 4369 
L 713 4863 
L 1078 4856 
Q 1784 4847 1981 4316 
z
" transform="scale(0.015625)"/>
      <path id="DejaVuSans-5f" d="M 3263 -1063 
L 3263 -1509 
L -63 -1509 
L -63 -1063 
L 3263 -1063 
z
" transform="scale(0.015625)"/>
      <path id="DejaVuSans-69" d="M 603 3500 
L 1178 3500 
L 1178 0 
L 603 0 
L 603 3500 
z
M 603 4863 
L 1178 4863 
L 1178 4134 
L 603 4134 
L 603 4863 
z
" transform="scale(0.015625)"/>
      <path id="DejaVuSans-64" d="M 2906 2969 
L 2906 4863 
L 3481 4863 
L 3481 0 
L 2906 0 
L 2906 525 
Q 2725 213 2448 61 
Q 2172 -91 1784 -91 
Q 1150 -91 751 415 
Q 353 922 353 1747 
Q 353 2572 751 3078 
Q 1150 3584 1784 3584 
Q 2172 3584 2448 3432 
Q 2725 3281 2906 2969 
z
M 947 1747 
Q 947 1113 1208 752 
Q 1469 391 1925 391 
Q 2381 391 2643 752 
Q 2906 1113 2906 1747 
Q 2906 2381 2643 2742 
Q 2381 3103 1925 3103 
Q 1469 3103 1208 2742 
Q 947 2381 947 1747 
z
" transform="scale(0.015625)"/>
      <path id="DejaVuSans-2f" d="M 1625 4666 
L 2156 4666 
L 531 -594 
L 0 -594 
L 1625 4666 
z
" transform="scale(0.015625)"/>
      <path id="DejaVuSans-74" d="M 1172 4494 
L 1172 3500 
L 2356 3500 
L 2356 3053 
L 1172 3053 
L 1172 1153 
Q 1172 725 1289 603 
Q 1406 481 1766 481 
L 2356 481 
L 2356 0 
L 1766 0 
Q 1100 0 847 248 
Q 594 497 594 1153 
L 594 3053 
L 172 3053 
L 172 3500 
L 594 3500 
L 594 4494 
L 1172 4494 
z
" transform="scale(0.015625)"/>
     </defs>
     <use xlink:href="#DejaVuSans-54"/>
     <use xlink:href="#DejaVuSans-68" x="61.083984"/>
     <use xlink:href="#DejaVuSans-65" x="124.462891"/>
     <use xlink:href="#DejaVuSans-20" x="185.986328"/>
     <use xlink:href="#DejaVuSans-6c" x="217.773438"/>
     <use xlink:href="#DejaVuSans-6f" x="245.556641"/>
     <use xlink:href="#DejaVuSans-73" x="306.738281"/>
     <use xlink:href="#DejaVuSans-73" x="358.837891"/>
     <use xlink:href="#DejaVuSans-20" x="410.9375"/>
     <use xlink:href="#DejaVuSans-63" x="442.724609"/>
     <use xlink:href="#DejaVuSans-75" x="497.705078"/>
     <use xlink:href="#DejaVuSans-72" x="561.083984"/>
     <use xlink:href="#DejaVuSans-76" x="602.197266"/>
     <use xlink:href="#DejaVuSans-65" x="661.376953"/>
     <use xlink:href="#DejaVuSans-20" x="722.900391"/>
     <use xlink:href="#DejaVuSans-6f" x="754.6875"/>
     <use xlink:href="#DejaVuSans-6e" x="815.869141"/>
     <use xlink:href="#DejaVuSans-20" x="879.248047"/>
     <use xlink:href="#DejaVuSans-3bb" x="911.035156"/>
     <use xlink:href="#DejaVuSans-5f" x="970.214844"/>
     <use xlink:href="#DejaVuSans-30" x="1020.214844"/>
     <use xlink:href="#DejaVuSans-2e" x="1083.837891"/>
     <use xlink:href="#DejaVuSans-30" x="1115.625"/>
     <use xlink:href="#DejaVuSans-30" x="1179.248047"/>
     <use xlink:href="#DejaVuSans-30" x="1242.871094"/>
     <use xlink:href="#DejaVuSans-32" x="1306.494141"/>
     <use xlink:href="#DejaVuSans-35" x="1370.117188"/>
     <use xlink:href="#DejaVuSans-5f" x="1433.740234"/>
     <use xlink:href="#DejaVuSans-6e" x="1483.740234"/>
     <use xlink:href="#DejaVuSans-6f" x="1547.119141"/>
     <use xlink:href="#DejaVuSans-6e" x="1608.300781"/>
     <use xlink:href="#DejaVuSans-5f" x="1671.679688"/>
     <use xlink:href="#DejaVuSans-69" x="1721.679688"/>
     <use xlink:href="#DejaVuSans-69" x="1749.462891"/>
     <use xlink:href="#DejaVuSans-64" x="1777.246094"/>
     <use xlink:href="#DejaVuSans-2f" x="1840.722656"/>
     <use xlink:href="#DejaVuSans-68" x="1874.414062"/>
     <use xlink:href="#DejaVuSans-6f" x="1937.792969"/>
     <use xlink:href="#DejaVuSans-73" x="1998.974609"/>
     <use xlink:href="#DejaVuSans-74" x="2051.074219"/>
     <use xlink:href="#DejaVuSans-2f" x="2090.283203"/>
     <use xlink:href="#DejaVuSans-38" x="2123.974609"/>
    </g>
   </g>
   <g id="legend_1">
    <g id="patch_7">
     <path d="M 317.418438 94.34075 
L 407.72 94.34075 
Q 409.72 94.34075 409.72 92.34075 
L 409.72 48.472 
Q 409.72 46.472 407.72 46.472 
L 317.418438 46.472 
Q 315.418438 46.472 315.418438 48.472 
L 315.418438 92.34075 
Q 315.418438 94.34075 317.418438 94.34075 
z
" style="fill: #ffffff; opacity: 0.8; stroke: #cccccc; stroke-linejoin: miter"/>
    </g>
    <g id="line2d_19">
     <path d="M 319.418438 54.570438 
L 329.418438 54.570438 
L 339.418438 54.570438 
" style="fill: none; stroke: #0000ff; stroke-width: 1.5; stroke-linecap: square"/>
    </g>
    <g id="text_19">
     <!-- obj_loss -->
     <g transform="translate(347.418438 58.070438) scale(0.1 -0.1)">
      <defs>
       <path id="DejaVuSans-62" d="M 3116 1747 
Q 3116 2381 2855 2742 
Q 2594 3103 2138 3103 
Q 1681 3103 1420 2742 
Q 1159 2381 1159 1747 
Q 1159 1113 1420 752 
Q 1681 391 2138 391 
Q 2594 391 2855 752 
Q 3116 1113 3116 1747 
z
M 1159 2969 
Q 1341 3281 1617 3432 
Q 1894 3584 2278 3584 
Q 2916 3584 3314 3078 
Q 3713 2572 3713 1747 
Q 3713 922 3314 415 
Q 2916 -91 2278 -91 
Q 1894 -91 1617 61 
Q 1341 213 1159 525 
L 1159 0 
L 581 0 
L 581 4863 
L 1159 4863 
L 1159 2969 
z
" transform="scale(0.015625)"/>
       <path id="DejaVuSans-6a" d="M 603 3500 
L 1178 3500 
L 1178 -63 
Q 1178 -731 923 -1031 
Q 669 -1331 103 -1331 
L -116 -1331 
L -116 -844 
L 38 -844 
Q 366 -844 484 -692 
Q 603 -541 603 -63 
L 603 3500 
z
M 603 4863 
L 1178 4863 
L 1178 4134 
L 603 4134 
L 603 4863 
z
" transform="scale(0.015625)"/>
      </defs>
      <use xlink:href="#DejaVuSans-6f"/>
      <use xlink:href="#DejaVuSans-62" x="61.181641"/>
      <use xlink:href="#DejaVuSans-6a" x="124.658203"/>
      <use xlink:href="#DejaVuSans-5f" x="152.441406"/>
      <use xlink:href="#DejaVuSans-6c" x="202.441406"/>
      <use xlink:href="#DejaVuSans-6f" x="230.224609"/>
      <use xlink:href="#DejaVuSans-73" x="291.40625"/>
      <use xlink:href="#DejaVuSans-73" x="343.505859"/>
     </g>
    </g>
    <g id="line2d_20">
     <path d="M 319.418438 69.526688 
L 329.418438 69.526688 
L 339.418438 69.526688 
" style="fill: none; stroke: #008000; stroke-width: 1.5; stroke-linecap: square"/>
    </g>
    <g id="text_20">
     <!-- reg_loss -->
     <g transform="translate(347.418438 73.026688) scale(0.1 -0.1)">
      <defs>
       <path id="DejaVuSans-67" d="M 2906 1791 
Q 2906 2416 2648 2759 
Q 2391 3103 1925 3103 
Q 1463 3103 1205 2759 
Q 947 2416 947 1791 
Q 947 1169 1205 825 
Q 1463 481 1925 481 
Q 2391 481 2648 825 
Q 2906 1169 2906 1791 
z
M 3481 434 
Q 3481 -459 3084 -895 
Q 2688 -1331 1869 -1331 
Q 1566 -1331 1297 -1286 
Q 1028 -1241 775 -1147 
L 775 -588 
Q 1028 -725 1275 -790 
Q 1522 -856 1778 -856 
Q 2344 -856 2625 -561 
Q 2906 -266 2906 331 
L 2906 616 
Q 2728 306 2450 153 
Q 2172 0 1784 0 
Q 1141 0 747 490 
Q 353 981 353 1791 
Q 353 2603 747 3093 
Q 1141 3584 1784 3584 
Q 2172 3584 2450 3431 
Q 2728 3278 2906 2969 
L 2906 3500 
L 3481 3500 
L 3481 434 
z
" transform="scale(0.015625)"/>
      </defs>
      <use xlink:href="#DejaVuSans-72"/>
      <use xlink:href="#DejaVuSans-65" x="38.863281"/>
      <use xlink:href="#DejaVuSans-67" x="100.386719"/>
      <use xlink:href="#DejaVuSans-5f" x="163.863281"/>
      <use xlink:href="#DejaVuSans-6c" x="213.863281"/>
      <use xlink:href="#DejaVuSans-6f" x="241.646484"/>
      <use xlink:href="#DejaVuSans-73" x="302.828125"/>
      <use xlink:href="#DejaVuSans-73" x="354.927734"/>
     </g>
    </g>
    <g id="line2d_21">
     <path d="M 319.418438 84.482938 
L 329.418438 84.482938 
L 339.418438 84.482938 
" style="fill: none; stroke: #ff0000; stroke-width: 1.5; stroke-linecap: square"/>
    </g>
    <g id="text_21">
     <!-- overall_loss -->
     <g transform="translate(347.418438 87.982938) scale(0.1 -0.1)">
      <use xlink:href="#DejaVuSans-6f"/>
      <use xlink:href="#DejaVuSans-76" x="61.181641"/>
      <use xlink:href="#DejaVuSans-65" x="120.361328"/>
      <use xlink:href="#DejaVuSans-72" x="181.884766"/>
      <use xlink:href="#DejaVuSans-61" x="222.998047"/>
      <use xlink:href="#DejaVuSans-6c" x="284.277344"/>
      <use xlink:href="#DejaVuSans-6c" x="312.060547"/>
      <use xlink:href="#DejaVuSans-5f" x="339.84375"/>
      <use xlink:href="#DejaVuSans-6c" x="389.84375"/>
      <use xlink:href="#DejaVuSans-6f" x="417.626953"/>
      <use xlink:href="#DejaVuSans-73" x="478.808594"/>
      <use xlink:href="#DejaVuSans-73" x="530.908203"/>
     </g>
    </g>
   </g>
  </g>
 </g>
 <defs>
  <clipPath id="p707eb228eb">
   <rect x="57.6" y="41.472" width="357.12" height="266.112"/>
  </clipPath>
 </defs>
</svg>
