<?xml version="1.0" encoding="utf-8" standalone="no"?>
<!DOCTYPE svg PUBLIC "-//W3C//DTD SVG 1.1//EN"
  "http://www.w3.org/Graphics/SVG/1.1/DTD/svg11.dtd">
<svg xmlns:xlink="http://www.w3.org/1999/xlink" width="576pt" height="432pt" viewBox="0 0 576 432" xmlns="http://www.w3.org/2000/svg" version="1.1">
 <metadata>
  <rdf:RDF xmlns:dc="http://purl.org/dc/elements/1.1/" xmlns:cc="http://creativecommons.org/ns#" xmlns:rdf="http://www.w3.org/1999/02/22-rdf-syntax-ns#">
   <cc:Work>
    <dc:type rdf:resource="http://purl.org/dc/dcmitype/StillImage"/>
    <dc:date>2023-04-13T09:22:57.941217</dc:date>
    <dc:format>image/svg+xml</dc:format>
    <dc:creator>
     <cc:Agent>
      <dc:title>Matplotlib v3.7.1, https://matplotlib.org/</dc:title>
     </cc:Agent>
    </dc:creator>
   </cc:Work>
  </rdf:RDF>
 </metadata>
 <defs>
  <style type="text/css">*{stroke-linejoin: round; stroke-linecap: butt}</style>
 </defs>
 <g id="figure_1">
  <g id="patch_1">
   <path d="M 0 432 
L 576 432 
L 576 0 
L 0 0 
z
" style="fill: #ffffff"/>
  </g>
  <g id="axes_1">
   <g id="patch_2">
    <path d="M 72 384.48 
L 518.4 384.48 
L 518.4 51.84 
L 72 51.84 
z
" style="fill: #ffffff"/>
   </g>
   <g id="matplotlib.axis_1">
    <g id="xtick_1">
     <g id="line2d_1">
      <defs>
       <path id="m2ff66543a9" d="M 0 0 
L 0 3.5 
" style="stroke: #000000; stroke-width: 0.8"/>
      </defs>
      <g>
       <use xlink:href="#m2ff66543a9" x="92.290909" y="384.48" style="stroke: #000000; stroke-width: 0.8"/>
      </g>
     </g>
     <g id="text_1">
      <!-- 0 -->
      <g transform="translate(89.109659 399.078438) scale(0.1 -0.1)">
       <defs>
        <path id="DejaVuSans-30" d="M 2034 4250 
Q 1547 4250 1301 3770 
Q 1056 3291 1056 2328 
Q 1056 1369 1301 889 
Q 1547 409 2034 409 
Q 2525 409 2770 889 
Q 3016 1369 3016 2328 
Q 3016 3291 2770 3770 
Q 2525 4250 2034 4250 
z
M 2034 4750 
Q 2819 4750 3233 4129 
Q 3647 3509 3647 2328 
Q 3647 1150 3233 529 
Q 2819 -91 2034 -91 
Q 1250 -91 836 529 
Q 422 1150 422 2328 
Q 422 3509 836 4129 
Q 1250 4750 2034 4750 
z
" transform="scale(0.015625)"/>
       </defs>
       <use xlink:href="#DejaVuSans-30"/>
      </g>
     </g>
    </g>
    <g id="xtick_2">
     <g id="line2d_2">
      <g>
       <use xlink:href="#m2ff66543a9" x="173.617198" y="384.48" style="stroke: #000000; stroke-width: 0.8"/>
      </g>
     </g>
     <g id="text_2">
      <!-- 100 -->
      <g transform="translate(164.073448 399.078438) scale(0.1 -0.1)">
       <defs>
        <path id="DejaVuSans-31" d="M 794 531 
L 1825 531 
L 1825 4091 
L 703 3866 
L 703 4441 
L 1819 4666 
L 2450 4666 
L 2450 531 
L 3481 531 
L 3481 0 
L 794 0 
L 794 531 
z
" transform="scale(0.015625)"/>
       </defs>
       <use xlink:href="#DejaVuSans-31"/>
       <use xlink:href="#DejaVuSans-30" x="63.623047"/>
       <use xlink:href="#DejaVuSans-30" x="127.246094"/>
      </g>
     </g>
    </g>
    <g id="xtick_3">
     <g id="line2d_3">
      <g>
       <use xlink:href="#m2ff66543a9" x="254.943487" y="384.48" style="stroke: #000000; stroke-width: 0.8"/>
      </g>
     </g>
     <g id="text_3">
      <!-- 200 -->
      <g transform="translate(245.399737 399.078438) scale(0.1 -0.1)">
       <defs>
        <path id="DejaVuSans-32" d="M 1228 531 
L 3431 531 
L 3431 0 
L 469 0 
L 469 531 
Q 828 903 1448 1529 
Q 2069 2156 2228 2338 
Q 2531 2678 2651 2914 
Q 2772 3150 2772 3378 
Q 2772 3750 2511 3984 
Q 2250 4219 1831 4219 
Q 1534 4219 1204 4116 
Q 875 4013 500 3803 
L 500 4441 
Q 881 4594 1212 4672 
Q 1544 4750 1819 4750 
Q 2544 4750 2975 4387 
Q 3406 4025 3406 3419 
Q 3406 3131 3298 2873 
Q 3191 2616 2906 2266 
Q 2828 2175 2409 1742 
Q 1991 1309 1228 531 
z
" transform="scale(0.015625)"/>
       </defs>
       <use xlink:href="#DejaVuSans-32"/>
       <use xlink:href="#DejaVuSans-30" x="63.623047"/>
       <use xlink:href="#DejaVuSans-30" x="127.246094"/>
      </g>
     </g>
    </g>
    <g id="xtick_4">
     <g id="line2d_4">
      <g>
       <use xlink:href="#m2ff66543a9" x="336.269776" y="384.48" style="stroke: #000000; stroke-width: 0.8"/>
      </g>
     </g>
     <g id="text_4">
      <!-- 300 -->
      <g transform="translate(326.726026 399.078438) scale(0.1 -0.1)">
       <defs>
        <path id="DejaVuSans-33" d="M 2597 2516 
Q 3050 2419 3304 2112 
Q 3559 1806 3559 1356 
Q 3559 666 3084 287 
Q 2609 -91 1734 -91 
Q 1441 -91 1130 -33 
Q 819 25 488 141 
L 488 750 
Q 750 597 1062 519 
Q 1375 441 1716 441 
Q 2309 441 2620 675 
Q 2931 909 2931 1356 
Q 2931 1769 2642 2001 
Q 2353 2234 1838 2234 
L 1294 2234 
L 1294 2753 
L 1863 2753 
Q 2328 2753 2575 2939 
Q 2822 3125 2822 3475 
Q 2822 3834 2567 4026 
Q 2313 4219 1838 4219 
Q 1578 4219 1281 4162 
Q 984 4106 628 3988 
L 628 4550 
Q 988 4650 1302 4700 
Q 1616 4750 1894 4750 
Q 2613 4750 3031 4423 
Q 3450 4097 3450 3541 
Q 3450 3153 3228 2886 
Q 3006 2619 2597 2516 
z
" transform="scale(0.015625)"/>
       </defs>
       <use xlink:href="#DejaVuSans-33"/>
       <use xlink:href="#DejaVuSans-30" x="63.623047"/>
       <use xlink:href="#DejaVuSans-30" x="127.246094"/>
      </g>
     </g>
    </g>
    <g id="xtick_5">
     <g id="line2d_5">
      <g>
       <use xlink:href="#m2ff66543a9" x="417.596065" y="384.48" style="stroke: #000000; stroke-width: 0.8"/>
      </g>
     </g>
     <g id="text_5">
      <!-- 400 -->
      <g transform="translate(408.052315 399.078438) scale(0.1 -0.1)">
       <defs>
        <path id="DejaVuSans-34" d="M 2419 4116 
L 825 1625 
L 2419 1625 
L 2419 4116 
z
M 2253 4666 
L 3047 4666 
L 3047 1625 
L 3713 1625 
L 3713 1100 
L 3047 1100 
L 3047 0 
L 2419 0 
L 2419 1100 
L 313 1100 
L 313 1709 
L 2253 4666 
z
" transform="scale(0.015625)"/>
       </defs>
       <use xlink:href="#DejaVuSans-34"/>
       <use xlink:href="#DejaVuSans-30" x="63.623047"/>
       <use xlink:href="#DejaVuSans-30" x="127.246094"/>
      </g>
     </g>
    </g>
    <g id="xtick_6">
     <g id="line2d_6">
      <g>
       <use xlink:href="#m2ff66543a9" x="498.922354" y="384.48" style="stroke: #000000; stroke-width: 0.8"/>
      </g>
     </g>
     <g id="text_6">
      <!-- 500 -->
      <g transform="translate(489.378604 399.078438) scale(0.1 -0.1)">
       <defs>
        <path id="DejaVuSans-35" d="M 691 4666 
L 3169 4666 
L 3169 4134 
L 1269 4134 
L 1269 2991 
Q 1406 3038 1543 3061 
Q 1681 3084 1819 3084 
Q 2600 3084 3056 2656 
Q 3513 2228 3513 1497 
Q 3513 744 3044 326 
Q 2575 -91 1722 -91 
Q 1428 -91 1123 -41 
Q 819 9 494 109 
L 494 744 
Q 775 591 1075 516 
Q 1375 441 1709 441 
Q 2250 441 2565 725 
Q 2881 1009 2881 1497 
Q 2881 1984 2565 2268 
Q 2250 2553 1709 2553 
Q 1456 2553 1204 2497 
Q 953 2441 691 2322 
L 691 4666 
z
" transform="scale(0.015625)"/>
       </defs>
       <use xlink:href="#DejaVuSans-35"/>
       <use xlink:href="#DejaVuSans-30" x="63.623047"/>
       <use xlink:href="#DejaVuSans-30" x="127.246094"/>
      </g>
     </g>
    </g>
    <g id="text_7">
     <!-- epoch -->
     <g transform="translate(279.971875 412.756563) scale(0.1 -0.1)">
      <defs>
       <path id="DejaVuSans-65" d="M 3597 1894 
L 3597 1613 
L 953 1613 
Q 991 1019 1311 708 
Q 1631 397 2203 397 
Q 2534 397 2845 478 
Q 3156 559 3463 722 
L 3463 178 
Q 3153 47 2828 -22 
Q 2503 -91 2169 -91 
Q 1331 -91 842 396 
Q 353 884 353 1716 
Q 353 2575 817 3079 
Q 1281 3584 2069 3584 
Q 2775 3584 3186 3129 
Q 3597 2675 3597 1894 
z
M 3022 2063 
Q 3016 2534 2758 2815 
Q 2500 3097 2075 3097 
Q 1594 3097 1305 2825 
Q 1016 2553 972 2059 
L 3022 2063 
z
" transform="scale(0.015625)"/>
       <path id="DejaVuSans-70" d="M 1159 525 
L 1159 -1331 
L 581 -1331 
L 581 3500 
L 1159 3500 
L 1159 2969 
Q 1341 3281 1617 3432 
Q 1894 3584 2278 3584 
Q 2916 3584 3314 3078 
Q 3713 2572 3713 1747 
Q 3713 922 3314 415 
Q 2916 -91 2278 -91 
Q 1894 -91 1617 61 
Q 1341 213 1159 525 
z
M 3116 1747 
Q 3116 2381 2855 2742 
Q 2594 3103 2138 3103 
Q 1681 3103 1420 2742 
Q 1159 2381 1159 1747 
Q 1159 1113 1420 752 
Q 1681 391 2138 391 
Q 2594 391 2855 752 
Q 3116 1113 3116 1747 
z
" transform="scale(0.015625)"/>
       <path id="DejaVuSans-6f" d="M 1959 3097 
Q 1497 3097 1228 2736 
Q 959 2375 959 1747 
Q 959 1119 1226 758 
Q 1494 397 1959 397 
Q 2419 397 2687 759 
Q 2956 1122 2956 1747 
Q 2956 2369 2687 2733 
Q 2419 3097 1959 3097 
z
M 1959 3584 
Q 2709 3584 3137 3096 
Q 3566 2609 3566 1747 
Q 3566 888 3137 398 
Q 2709 -91 1959 -91 
Q 1206 -91 779 398 
Q 353 888 353 1747 
Q 353 2609 779 3096 
Q 1206 3584 1959 3584 
z
" transform="scale(0.015625)"/>
       <path id="DejaVuSans-63" d="M 3122 3366 
L 3122 2828 
Q 2878 2963 2633 3030 
Q 2388 3097 2138 3097 
Q 1578 3097 1268 2742 
Q 959 2388 959 1747 
Q 959 1106 1268 751 
Q 1578 397 2138 397 
Q 2388 397 2633 464 
Q 2878 531 3122 666 
L 3122 134 
Q 2881 22 2623 -34 
Q 2366 -91 2075 -91 
Q 1284 -91 818 406 
Q 353 903 353 1747 
Q 353 2603 823 3093 
Q 1294 3584 2113 3584 
Q 2378 3584 2631 3529 
Q 2884 3475 3122 3366 
z
" transform="scale(0.015625)"/>
       <path id="DejaVuSans-68" d="M 3513 2113 
L 3513 0 
L 2938 0 
L 2938 2094 
Q 2938 2591 2744 2837 
Q 2550 3084 2163 3084 
Q 1697 3084 1428 2787 
Q 1159 2491 1159 1978 
L 1159 0 
L 581 0 
L 581 4863 
L 1159 4863 
L 1159 2956 
Q 1366 3272 1645 3428 
Q 1925 3584 2291 3584 
Q 2894 3584 3203 3211 
Q 3513 2838 3513 2113 
z
" transform="scale(0.015625)"/>
      </defs>
      <use xlink:href="#DejaVuSans-65"/>
      <use xlink:href="#DejaVuSans-70" x="61.523438"/>
      <use xlink:href="#DejaVuSans-6f" x="125"/>
      <use xlink:href="#DejaVuSans-63" x="186.181641"/>
      <use xlink:href="#DejaVuSans-68" x="241.162109"/>
     </g>
    </g>
   </g>
   <g id="matplotlib.axis_2">
    <g id="ytick_1">
     <g id="line2d_7">
      <defs>
       <path id="mbdb5a25fdb" d="M 0 0 
L -3.5 0 
" style="stroke: #000000; stroke-width: 0.8"/>
      </defs>
      <g>
       <use xlink:href="#mbdb5a25fdb" x="72" y="384.48" style="stroke: #000000; stroke-width: 0.8"/>
      </g>
     </g>
     <g id="text_8">
      <!-- 0.0 -->
      <g transform="translate(49.096875 388.279219) scale(0.1 -0.1)">
       <defs>
        <path id="DejaVuSans-2e" d="M 684 794 
L 1344 794 
L 1344 0 
L 684 0 
L 684 794 
z
" transform="scale(0.015625)"/>
       </defs>
       <use xlink:href="#DejaVuSans-30"/>
       <use xlink:href="#DejaVuSans-2e" x="63.623047"/>
       <use xlink:href="#DejaVuSans-30" x="95.410156"/>
      </g>
     </g>
    </g>
    <g id="ytick_2">
     <g id="line2d_8">
      <g>
       <use xlink:href="#mbdb5a25fdb" x="72" y="317.952" style="stroke: #000000; stroke-width: 0.8"/>
      </g>
     </g>
     <g id="text_9">
      <!-- 0.2 -->
      <g transform="translate(49.096875 321.751219) scale(0.1 -0.1)">
       <use xlink:href="#DejaVuSans-30"/>
       <use xlink:href="#DejaVuSans-2e" x="63.623047"/>
       <use xlink:href="#DejaVuSans-32" x="95.410156"/>
      </g>
     </g>
    </g>
    <g id="ytick_3">
     <g id="line2d_9">
      <g>
       <use xlink:href="#mbdb5a25fdb" x="72" y="251.424" style="stroke: #000000; stroke-width: 0.8"/>
      </g>
     </g>
     <g id="text_10">
      <!-- 0.4 -->
      <g transform="translate(49.096875 255.223219) scale(0.1 -0.1)">
       <use xlink:href="#DejaVuSans-30"/>
       <use xlink:href="#DejaVuSans-2e" x="63.623047"/>
       <use xlink:href="#DejaVuSans-34" x="95.410156"/>
      </g>
     </g>
    </g>
    <g id="ytick_4">
     <g id="line2d_10">
      <g>
       <use xlink:href="#mbdb5a25fdb" x="72" y="184.896" style="stroke: #000000; stroke-width: 0.8"/>
      </g>
     </g>
     <g id="text_11">
      <!-- 0.6 -->
      <g transform="translate(49.096875 188.695219) scale(0.1 -0.1)">
       <defs>
        <path id="DejaVuSans-36" d="M 2113 2584 
Q 1688 2584 1439 2293 
Q 1191 2003 1191 1497 
Q 1191 994 1439 701 
Q 1688 409 2113 409 
Q 2538 409 2786 701 
Q 3034 994 3034 1497 
Q 3034 2003 2786 2293 
Q 2538 2584 2113 2584 
z
M 3366 4563 
L 3366 3988 
Q 3128 4100 2886 4159 
Q 2644 4219 2406 4219 
Q 1781 4219 1451 3797 
Q 1122 3375 1075 2522 
Q 1259 2794 1537 2939 
Q 1816 3084 2150 3084 
Q 2853 3084 3261 2657 
Q 3669 2231 3669 1497 
Q 3669 778 3244 343 
Q 2819 -91 2113 -91 
Q 1303 -91 875 529 
Q 447 1150 447 2328 
Q 447 3434 972 4092 
Q 1497 4750 2381 4750 
Q 2619 4750 2861 4703 
Q 3103 4656 3366 4563 
z
" transform="scale(0.015625)"/>
       </defs>
       <use xlink:href="#DejaVuSans-30"/>
       <use xlink:href="#DejaVuSans-2e" x="63.623047"/>
       <use xlink:href="#DejaVuSans-36" x="95.410156"/>
      </g>
     </g>
    </g>
    <g id="ytick_5">
     <g id="line2d_11">
      <g>
       <use xlink:href="#mbdb5a25fdb" x="72" y="118.368" style="stroke: #000000; stroke-width: 0.8"/>
      </g>
     </g>
     <g id="text_12">
      <!-- 0.8 -->
      <g transform="translate(49.096875 122.167219) scale(0.1 -0.1)">
       <defs>
        <path id="DejaVuSans-38" d="M 2034 2216 
Q 1584 2216 1326 1975 
Q 1069 1734 1069 1313 
Q 1069 891 1326 650 
Q 1584 409 2034 409 
Q 2484 409 2743 651 
Q 3003 894 3003 1313 
Q 3003 1734 2745 1975 
Q 2488 2216 2034 2216 
z
M 1403 2484 
Q 997 2584 770 2862 
Q 544 3141 544 3541 
Q 544 4100 942 4425 
Q 1341 4750 2034 4750 
Q 2731 4750 3128 4425 
Q 3525 4100 3525 3541 
Q 3525 3141 3298 2862 
Q 3072 2584 2669 2484 
Q 3125 2378 3379 2068 
Q 3634 1759 3634 1313 
Q 3634 634 3220 271 
Q 2806 -91 2034 -91 
Q 1263 -91 848 271 
Q 434 634 434 1313 
Q 434 1759 690 2068 
Q 947 2378 1403 2484 
z
M 1172 3481 
Q 1172 3119 1398 2916 
Q 1625 2713 2034 2713 
Q 2441 2713 2670 2916 
Q 2900 3119 2900 3481 
Q 2900 3844 2670 4047 
Q 2441 4250 2034 4250 
Q 1625 4250 1398 4047 
Q 1172 3844 1172 3481 
z
" transform="scale(0.015625)"/>
       </defs>
       <use xlink:href="#DejaVuSans-30"/>
       <use xlink:href="#DejaVuSans-2e" x="63.623047"/>
       <use xlink:href="#DejaVuSans-38" x="95.410156"/>
      </g>
     </g>
    </g>
    <g id="ytick_6">
     <g id="line2d_12">
      <g>
       <use xlink:href="#mbdb5a25fdb" x="72" y="51.84" style="stroke: #000000; stroke-width: 0.8"/>
      </g>
     </g>
     <g id="text_13">
      <!-- 1.0 -->
      <g transform="translate(49.096875 55.639219) scale(0.1 -0.1)">
       <use xlink:href="#DejaVuSans-31"/>
       <use xlink:href="#DejaVuSans-2e" x="63.623047"/>
       <use xlink:href="#DejaVuSans-30" x="95.410156"/>
      </g>
     </g>
    </g>
    <g id="text_14">
     <!-- rate -->
     <g transform="translate(43.017187 228.31625) rotate(-90) scale(0.1 -0.1)">
      <defs>
       <path id="DejaVuSans-72" d="M 2631 2963 
Q 2534 3019 2420 3045 
Q 2306 3072 2169 3072 
Q 1681 3072 1420 2755 
Q 1159 2438 1159 1844 
L 1159 0 
L 581 0 
L 581 3500 
L 1159 3500 
L 1159 2956 
Q 1341 3275 1631 3429 
Q 1922 3584 2338 3584 
Q 2397 3584 2469 3576 
Q 2541 3569 2628 3553 
L 2631 2963 
z
" transform="scale(0.015625)"/>
       <path id="DejaVuSans-61" d="M 2194 1759 
Q 1497 1759 1228 1600 
Q 959 1441 959 1056 
Q 959 750 1161 570 
Q 1363 391 1709 391 
Q 2188 391 2477 730 
Q 2766 1069 2766 1631 
L 2766 1759 
L 2194 1759 
z
M 3341 1997 
L 3341 0 
L 2766 0 
L 2766 531 
Q 2569 213 2275 61 
Q 1981 -91 1556 -91 
Q 1019 -91 701 211 
Q 384 513 384 1019 
Q 384 1609 779 1909 
Q 1175 2209 1959 2209 
L 2766 2209 
L 2766 2266 
Q 2766 2663 2505 2880 
Q 2244 3097 1772 3097 
Q 1472 3097 1187 3025 
Q 903 2953 641 2809 
L 641 3341 
Q 956 3463 1253 3523 
Q 1550 3584 1831 3584 
Q 2591 3584 2966 3190 
Q 3341 2797 3341 1997 
z
" transform="scale(0.015625)"/>
       <path id="DejaVuSans-74" d="M 1172 4494 
L 1172 3500 
L 2356 3500 
L 2356 3053 
L 1172 3053 
L 1172 1153 
Q 1172 725 1289 603 
Q 1406 481 1766 481 
L 2356 481 
L 2356 0 
L 1766 0 
Q 1100 0 847 248 
Q 594 497 594 1153 
L 594 3053 
L 172 3053 
L 172 3500 
L 594 3500 
L 594 4494 
L 1172 4494 
z
" transform="scale(0.015625)"/>
      </defs>
      <use xlink:href="#DejaVuSans-72"/>
      <use xlink:href="#DejaVuSans-61" x="41.113281"/>
      <use xlink:href="#DejaVuSans-74" x="102.392578"/>
      <use xlink:href="#DejaVuSans-65" x="141.601562"/>
     </g>
    </g>
   </g>
   <g id="line2d_13">
    <path d="M 92.290909 361.503114 
L 93.104172 353.249956 
L 93.917435 325.608861 
L 94.730698 232.969318 
L 95.543961 156.884206 
L 96.357224 146.879994 
L 97.170486 152.693615 
L 98.797012 135 
L 99.610275 128.329422 
L 100.423538 292.652616 
L 101.236801 269.454958 
L 102.050064 232.80995 
L 102.863327 170.971528 
L 103.67659 150.028921 
L 104.489852 134.441873 
L 105.303115 130.267322 
L 106.116378 110.19789 
L 107.742904 129.960005 
L 108.556167 285.919999 
L 109.36943 227.991728 
L 110.182693 183.021974 
L 110.995956 162.242066 
L 111.809218 150.992309 
L 112.622481 148.790355 
L 113.435744 126.17297 
L 114.249007 124.905437 
L 115.06227 122.97057 
L 115.875533 111.715202 
L 116.688796 291.523068 
L 117.502059 256.736117 
L 118.315322 205.821727 
L 119.128584 166.185 
L 119.941847 133.574407 
L 120.75511 123.706663 
L 121.568373 116.221934 
L 122.381636 99.038921 
L 123.194899 111.715202 
L 124.008162 108.367055 
L 124.821425 288.341269 
L 125.634688 234.377146 
L 127.261213 156.057683 
L 128.074476 134.086159 
L 128.887739 119.924209 
L 129.701002 108.683552 
L 130.514265 109.115758 
L 132.140791 99.670585 
L 132.954054 284.595087 
L 133.767316 254.121079 
L 134.580579 196.054169 
L 135.393842 154.972934 
L 136.207105 122.61446 
L 137.020368 118.750338 
L 137.833631 110.052004 
L 138.646894 110.927361 
L 139.460157 100.570706 
L 140.27342 108.6322 
L 141.086682 284.452086 
L 143.526471 146.671574 
L 144.339734 126.952266 
L 145.152997 122.573795 
L 145.96626 115.809237 
L 146.779523 100.304114 
L 147.592786 98.490727 
L 148.406048 104.056749 
L 149.219311 288.846002 
L 150.845837 195.271919 
L 151.6591 149.996068 
L 152.472363 131.673603 
L 153.285626 110.098974 
L 154.098889 107.280007 
L 154.912152 109.690441 
L 155.725414 113.283053 
L 156.538677 100.81767 
L 157.35194 280.226936 
L 158.165203 239.262967 
L 158.978466 182.945661 
L 160.604992 125.951504 
L 161.418255 111.103444 
L 162.231518 111.021341 
L 163.04478 98.750776 
L 163.858043 116.033677 
L 164.671306 93.42 
L 165.484569 286.074005 
L 167.924358 143.456941 
L 168.737621 132.931342 
L 169.550884 107.280007 
L 170.364146 106.307359 
L 171.177409 109.690441 
L 171.990672 108.6322 
L 172.803935 91.677117 
L 173.617198 285.446156 
L 174.430461 236.329411 
L 175.243724 219.790593 
L 176.056987 199.787433 
L 176.87025 173.007829 
L 177.683512 156.608513 
L 178.496775 132.029992 
L 179.310038 123.805382 
L 180.123301 113.115794 
L 180.936564 125.960862 
L 181.749827 289.378522 
L 182.56309 265.325373 
L 183.376353 232.081054 
L 184.189616 186.004791 
L 185.002878 157.485318 
L 186.629404 117.277378 
L 187.442667 105.677697 
L 188.25593 109.951799 
L 189.069193 108.288006 
L 189.882456 291.530146 
L 190.695719 266.818913 
L 191.508982 234.755126 
L 192.322244 185.508227 
L 193.135507 157.562782 
L 193.94877 144.918163 
L 194.762033 123.357591 
L 195.575296 133.267507 
L 196.388559 121.58709 
L 197.201822 113.220004 
L 198.015085 286.050202 
L 198.828348 265.641236 
L 201.268136 154.490625 
L 202.081399 143.75369 
L 202.894662 138.326397 
L 203.707925 114.771894 
L 204.521188 111.239992 
L 205.334451 117.180008 
L 206.147714 286.43874 
L 206.960976 269.040794 
L 207.774239 244.079999 
L 208.587502 193.968003 
L 209.400765 170.551674 
L 210.214028 152.640003 
L 211.027291 140.123605 
L 211.840554 124.153046 
L 212.653817 113.726521 
L 213.46708 114.454585 
L 214.280343 289.501955 
L 215.093605 268.442795 
L 215.906868 241.51557 
L 216.720131 198.707363 
L 218.346657 149.031113 
L 219.15992 135.394119 
L 219.973183 125.951504 
L 220.786446 117.989996 
L 221.599709 126.828209 
L 222.412971 289.815656 
L 223.226234 268.294738 
L 224.039497 241.615388 
L 224.85276 202.785873 
L 225.666023 169.508562 
L 226.479286 159.57765 
L 227.292549 135.372924 
L 228.105812 121.779688 
L 228.919075 122.61446 
L 229.732337 125.133565 
L 230.5456 287.514349 
L 231.358863 277.075859 
L 232.172126 248.555236 
L 233.798652 178.611602 
L 234.611915 153.989282 
L 235.425178 142.281286 
L 236.238441 128.73165 
L 237.051703 118.367996 
L 237.864966 119.095088 
L 238.678229 290.473046 
L 239.491492 278.95976 
L 241.931281 179.937386 
L 242.744544 164.812067 
L 243.557807 152.205517 
L 244.371069 132.132417 
L 245.184332 137.95492 
L 245.997595 117.277378 
L 246.810858 287.92082 
L 247.624121 277.080538 
L 249.250647 218.576841 
L 250.06391 200.919509 
L 250.877173 163.566403 
L 251.690435 148.025057 
L 252.503698 141.700101 
L 253.316961 118.02858 
L 254.130224 124.817148 
L 254.943487 287.496574 
L 255.75675 280.903469 
L 256.570013 256.262403 
L 257.383276 226.417017 
L 258.196539 206.280006 
L 259.009801 164.332792 
L 259.823064 165.140956 
L 260.636327 139.13918 
L 261.44959 135.807371 
L 262.262853 130.713407 
L 263.076116 286.230042 
L 263.889379 275.966346 
L 264.702642 255.187449 
L 265.515905 227.160843 
L 267.14243 183.085718 
L 267.955693 163.566403 
L 268.768956 139.535996 
L 269.582219 146.879994 
L 270.395482 126.311639 
L 271.208745 282.296467 
L 272.835271 261.623416 
L 273.648533 233.809364 
L 274.461796 214.658532 
L 275.275059 181.009486 
L 276.088322 161.43069 
L 276.901585 158.455388 
L 277.714848 143.75369 
L 278.528111 136.970614 
L 279.341374 290.053162 
L 280.154637 275.065372 
L 280.967899 265.308104 
L 281.781162 239.574597 
L 283.407688 195.848782 
L 284.220951 171.926649 
L 285.034214 158.712285 
L 285.847477 155.073099 
L 286.66074 138.356236 
L 287.474003 286.540898 
L 288.287265 278.617925 
L 289.913791 243.277714 
L 293.166843 158.760008 
L 293.980106 164.552732 
L 294.793369 144 
L 295.606631 287.441782 
L 297.233157 267.47095 
L 298.859683 226.263755 
L 299.672946 216.280669 
L 300.486209 185.10586 
L 301.299472 170.217234 
L 302.112735 159.143223 
L 302.925997 143.500799 
L 303.73926 288.753113 
L 304.552523 278.206764 
L 305.365786 269.627104 
L 306.179049 255.262157 
L 306.992312 226.51397 
L 307.805575 212.794844 
L 308.618838 194.549903 
L 309.432101 185.836322 
L 310.245363 174.261404 
L 311.058626 154.506665 
L 311.871889 288.451288 
L 314.311678 257.494526 
L 315.124941 237.146298 
L 315.938204 222.359999 
L 316.751467 191.366815 
L 317.564729 189.067728 
L 318.377992 179.427954 
L 319.191255 168.462792 
L 320.004518 290.712852 
L 322.444307 260.255152 
L 323.25757 240.428789 
L 324.070833 216.096477 
L 324.884095 208.265609 
L 325.697358 189.997193 
L 326.510621 176.148369 
L 327.323884 168.44812 
L 328.137147 285.552002 
L 328.95041 284.734391 
L 330.576936 256.028852 
L 331.390199 241.423969 
L 332.203461 229.987195 
L 333.016724 207.793174 
L 333.829987 197.626659 
L 334.64325 191.132996 
L 335.456513 169.599408 
L 336.269776 285.368594 
L 337.083039 277.594233 
L 337.896302 273.093697 
L 338.709565 270.447888 
L 339.522827 257.576876 
L 340.33609 234.903619 
L 341.149353 223.149595 
L 341.962616 197.251197 
L 342.775879 197.499133 
L 343.589142 183.267689 
L 344.402405 285.855919 
L 345.215668 280.703733 
L 346.028931 272.76127 
L 347.655456 254.28822 
L 348.468719 237.433134 
L 349.281982 237.905757 
L 350.095245 206.830301 
L 351.721771 192.287992 
L 352.535034 288.759378 
L 353.348297 282.556883 
L 354.161559 279.176805 
L 354.974822 262.098666 
L 355.788085 248.542378 
L 356.601348 247.43232 
L 357.414611 233.143785 
L 358.227874 223.075859 
L 359.041137 202.185753 
L 359.8544 196.992 
L 360.667663 284.731367 
L 361.480925 282.614639 
L 362.294188 273.766235 
L 363.107451 272.348127 
L 363.920714 255.559193 
L 365.54724 238.904507 
L 367.173766 225.175983 
L 367.987029 207.62181 
L 368.800291 287.371268 
L 369.613554 284.917403 
L 371.24008 266.207997 
L 372.053343 260.294399 
L 372.866606 256.926317 
L 373.679869 247.43232 
L 374.493132 235.885715 
L 375.306395 228.655919 
L 376.119657 213.664868 
L 376.93292 288.878736 
L 377.746183 282.378005 
L 378.559446 278.596046 
L 379.372709 273.079432 
L 380.185972 264.661133 
L 380.999235 264.492 
L 381.812498 245.880003 
L 382.625761 240.072569 
L 383.439024 224.030117 
L 384.252286 224.130461 
L 385.065549 289.007998 
L 385.878812 284.042988 
L 386.692075 276.804627 
L 387.505338 274.274042 
L 389.131864 260.325637 
L 389.945127 249.345 
L 390.75839 245.203906 
L 391.571652 238.533278 
L 392.384915 236.310734 
L 393.198178 290.181531 
L 394.011441 283.883223 
L 394.824704 284.069357 
L 395.637967 276.965096 
L 396.45123 267.337674 
L 397.264493 261.109185 
L 398.077756 256.218814 
L 398.891018 252.741386 
L 399.704281 246.671998 
L 400.517544 238.297398 
L 401.330807 286.899814 
L 402.14407 283.999775 
L 402.957333 277.695003 
L 403.770596 279.695932 
L 404.583859 271.151544 
L 405.397122 264.421188 
L 406.210384 262.054145 
L 407.023647 254.562109 
L 407.83691 249.807938 
L 408.650173 241.124683 
L 409.463436 290.97886 
L 410.276699 287.590226 
L 411.089962 282.826747 
L 411.903225 282.502775 
L 412.716488 277.974631 
L 413.52975 269.085345 
L 414.343013 262.949438 
L 415.156276 260.721015 
L 415.969539 254.425264 
L 416.782802 255.192187 
L 417.596065 286.063258 
L 419.222591 283.442332 
L 420.035854 278.841007 
L 420.849116 275.111995 
L 421.662379 272.704367 
L 422.475642 265.366336 
L 423.288905 263.731103 
L 424.102168 255.87569 
L 424.915431 256.968003 
L 425.728694 287.004679 
L 426.541957 287.004679 
L 427.35522 278.25882 
L 428.168482 280.926875 
L 428.981745 275.197697 
L 429.795008 273.259876 
L 430.608271 269.272976 
L 431.421534 261.128437 
L 432.234797 258.408258 
L 433.04806 253.074507 
L 433.861323 287.657231 
L 434.674586 286.271996 
L 435.487848 283.58227 
L 436.301111 277.577043 
L 437.114374 277.112033 
L 437.927637 277.160371 
L 438.7409 265.30166 
L 439.554163 270.895609 
L 440.367426 258.123821 
L 441.180689 262.869674 
L 441.993952 287.477887 
L 442.807214 282.337826 
L 443.620477 283.946738 
L 444.43374 281.002505 
L 445.247003 278.531539 
L 446.060266 276.758499 
L 446.873529 269.022384 
L 447.686792 267.895563 
L 448.500055 262.343152 
L 449.313318 263.941466 
L 450.12658 286.852587 
L 450.939843 288.107668 
L 451.753106 281.00187 
L 452.566369 280.002932 
L 453.379632 278.705262 
L 454.192895 278.370802 
L 455.006158 269.596482 
L 456.632684 271.993047 
L 457.445946 267.884539 
L 458.259209 286.569251 
L 459.072472 289.250173 
L 461.512261 278.246706 
L 462.325524 277.839531 
L 463.138787 278.405945 
L 463.95205 272.914502 
L 464.765312 270.185539 
L 465.578575 268.26923 
L 466.391838 288.707045 
L 467.205101 285.348876 
L 468.018364 283.004326 
L 468.831627 287.479067 
L 469.64489 280.233846 
L 470.458153 278.812307 
L 471.271416 276.702677 
L 472.084678 272.42222 
L 472.897941 273.250221 
L 473.711204 266.055945 
L 474.524467 286.141694 
L 475.33773 285.433041 
L 476.150993 283.776653 
L 476.964256 281.310713 
L 477.777519 277.011689 
L 478.590782 279.460795 
L 479.404044 275.393646 
L 480.217307 273.930491 
L 481.03057 272.067101 
L 481.843833 268.50409 
L 482.657096 287.100928 
L 483.470359 284.339687 
L 484.283622 284.37377 
L 485.096885 278.328036 
L 485.910148 283.221817 
L 486.72341 282.345469 
L 487.536673 279.636452 
L 488.349936 273.111541 
L 489.163199 277.290405 
L 489.976462 273.938045 
L 490.789725 286.922794 
L 491.602988 283.679997 
L 492.416251 286.220486 
L 493.229514 284.597605 
L 494.042776 281.74629 
L 494.856039 286.022237 
L 495.669302 282.534211 
L 496.482565 273.764758 
L 497.295828 277.128003 
L 498.109091 275.393646 
L 498.109091 275.393646 
" clip-path="url(#p8e8f9f2d10)" style="fill: none; stroke: #0000ff; stroke-width: 1.5; stroke-linecap: square"/>
   </g>
   <g id="line2d_14">
    <path d="M 92.290909 192.309682 
L 93.104172 194.260648 
L 94.730698 254.74065 
L 95.543961 257.667099 
L 96.357224 252.789674 
L 97.170486 256.691616 
L 97.983749 249.863225 
L 98.797012 255.716133 
L 99.610275 244.010318 
L 100.423538 193.285165 
L 101.236801 204.015478 
L 102.050064 212.794844 
L 102.863327 249.863225 
L 103.67659 270.348387 
L 104.489852 275.225802 
L 105.303115 292.784514 
L 106.116378 292.784514 
L 106.929641 290.833548 
L 107.742904 285.956134 
L 108.556167 197.187097 
L 109.36943 198.16258 
L 110.995956 233.279995 
L 111.809218 242.059352 
L 112.622481 246.936776 
L 113.435744 248.887742 
L 114.249007 252.789674 
L 115.06227 262.544513 
L 115.875533 264.495479 
L 116.688796 185.481282 
L 117.502059 187.432268 
L 118.315322 207.917429 
L 119.128584 241.083869 
L 119.941847 255.716133 
L 120.75511 260.593548 
L 121.568373 262.544513 
L 122.381636 260.593548 
L 123.194899 264.495479 
L 124.008162 260.593548 
L 124.821425 189.383233 
L 125.634688 190.358716 
L 126.44795 210.843878 
L 127.261213 228.402581 
L 128.074476 250.838708 
L 128.887739 251.814191 
L 129.701002 256.691616 
L 130.514265 262.544513 
L 132.140791 256.691616 
L 132.954054 174.750969 
L 133.767316 186.456765 
L 135.393842 230.353547 
L 137.020368 248.887742 
L 138.646894 262.544513 
L 139.460157 253.765157 
L 140.27342 251.814191 
L 141.086682 177.677418 
L 141.899945 189.383233 
L 144.339734 244.010318 
L 145.152997 250.838708 
L 145.96626 261.569031 
L 146.779523 258.642582 
L 147.592786 246.936776 
L 148.406048 243.034835 
L 149.219311 182.554833 
L 150.032574 181.57935 
L 150.845837 203.039995 
L 151.6591 216.696776 
L 152.472363 236.206454 
L 153.285626 242.059352 
L 154.098889 262.544513 
L 154.912152 254.74065 
L 155.725414 259.618065 
L 156.538677 248.887742 
L 157.35194 174.750969 
L 158.165203 186.456765 
L 158.978466 203.039995 
L 159.791729 214.74581 
L 160.604992 238.15742 
L 161.418255 244.985811 
L 162.231518 253.765157 
L 163.04478 253.765157 
L 163.858043 249.863225 
L 164.671306 241.083869 
L 165.484569 176.701935 
L 166.297832 173.775487 
L 167.111095 198.16258 
L 168.737621 236.206454 
L 169.550884 247.912259 
L 170.364146 244.985811 
L 171.177409 254.74065 
L 171.990672 251.814191 
L 172.803935 241.083869 
L 173.617198 180.603867 
L 174.430461 177.677418 
L 176.056987 198.16258 
L 176.87025 204.015478 
L 177.683512 214.74581 
L 178.496775 218.647741 
L 179.310038 225.476132 
L 180.123301 233.279995 
L 180.936564 244.985811 
L 181.749827 168.898072 
L 182.56309 173.775487 
L 183.376353 181.57935 
L 184.189616 209.868395 
L 185.002878 229.378064 
L 185.816141 237.181937 
L 186.629404 241.083869 
L 187.442667 243.034835 
L 188.25593 250.838708 
L 189.069193 250.838708 
L 189.882456 173.775487 
L 190.695719 175.726452 
L 191.508982 186.456765 
L 192.322244 194.260648 
L 193.94877 231.32903 
L 194.762033 231.32903 
L 195.575296 243.034835 
L 196.388559 241.083869 
L 197.201822 250.838708 
L 198.015085 165.971603 
L 198.828348 170.849038 
L 199.64161 191.334199 
L 200.454873 199.138063 
L 202.081399 223.525166 
L 202.894662 240.108386 
L 203.707925 238.15742 
L 204.521188 249.863225 
L 205.334451 252.789674 
L 206.147714 165.971603 
L 206.960976 178.652901 
L 207.774239 194.260648 
L 208.587502 200.113546 
L 209.400765 215.721293 
L 210.214028 227.427098 
L 211.027291 233.279995 
L 211.840554 244.010318 
L 212.653817 247.912259 
L 213.46708 249.863225 
L 214.280343 170.849038 
L 215.093605 164.99612 
L 215.906868 187.432268 
L 216.720131 198.16258 
L 217.533394 214.74581 
L 218.346657 216.696776 
L 219.15992 230.353547 
L 221.599709 253.765157 
L 222.412971 173.775487 
L 223.226234 170.849038 
L 224.039497 188.40775 
L 224.85276 194.260648 
L 225.666023 199.138063 
L 226.479286 221.57419 
L 227.292549 221.57419 
L 228.105812 234.255488 
L 228.919075 240.108386 
L 229.732337 249.863225 
L 230.5456 166.947106 
L 231.358863 183.530316 
L 232.172126 190.358716 
L 232.985389 198.16258 
L 233.798652 199.138063 
L 234.611915 212.794844 
L 235.425178 230.353547 
L 237.051703 240.108386 
L 237.864966 242.059352 
L 238.678229 168.898072 
L 239.491492 179.628384 
L 240.304755 181.57935 
L 241.118018 193.285165 
L 241.931281 191.334199 
L 242.744544 213.770327 
L 243.557807 226.451615 
L 245.184332 242.059352 
L 245.997595 241.083869 
L 246.810858 163.045154 
L 247.624121 173.775487 
L 248.437384 173.775487 
L 250.06391 207.917429 
L 250.877173 214.74581 
L 251.690435 211.819361 
L 252.503698 234.255488 
L 253.316961 231.32903 
L 254.130224 235.230971 
L 254.943487 168.898072 
L 255.75675 181.57935 
L 256.570013 177.677418 
L 257.383276 188.40775 
L 258.196539 208.892912 
L 259.009801 206.941926 
L 259.823064 237.181937 
L 260.636327 225.476132 
L 261.44959 234.255488 
L 262.262853 240.108386 
L 263.076116 166.947106 
L 263.889379 175.726452 
L 264.702642 176.701935 
L 265.515905 188.40775 
L 266.329167 195.236131 
L 267.14243 210.843878 
L 267.955693 214.74581 
L 269.582219 238.15742 
L 270.395482 232.304513 
L 271.208745 155.241291 
L 272.022008 170.849038 
L 272.835271 177.677418 
L 273.648533 182.554833 
L 274.461796 195.236131 
L 275.275059 210.843878 
L 276.088322 215.721293 
L 276.901585 229.378064 
L 277.714848 223.525166 
L 278.528111 231.32903 
L 279.341374 169.873555 
L 280.154637 165.971603 
L 280.967899 183.530316 
L 281.781162 186.456765 
L 282.594425 193.285165 
L 284.220951 211.819361 
L 285.847477 228.402581 
L 286.66074 223.525166 
L 287.474003 167.922589 
L 288.287265 171.824521 
L 289.100528 169.873555 
L 290.727054 193.285165 
L 291.540317 198.16258 
L 293.980106 228.402581 
L 294.793369 221.57419 
L 295.606631 167.922589 
L 296.419894 170.849038 
L 297.233157 179.628384 
L 298.04642 184.505799 
L 298.859683 184.505799 
L 299.672946 209.868395 
L 300.486209 199.138063 
L 301.299472 207.917429 
L 302.112735 220.598707 
L 302.925997 225.476132 
L 303.73926 170.849038 
L 304.552523 166.947106 
L 306.179049 187.432268 
L 306.992312 181.57935 
L 307.805575 197.187097 
L 309.432101 219.623224 
L 310.245363 218.647741 
L 311.058626 220.598707 
L 311.871889 167.922589 
L 312.685152 168.898072 
L 313.498415 174.750969 
L 315.124941 195.236131 
L 315.938204 196.211614 
L 316.751467 198.16258 
L 317.564729 210.843878 
L 318.377992 208.892912 
L 319.191255 225.476132 
L 320.004518 168.898072 
L 320.817781 175.726452 
L 321.631044 175.726452 
L 322.444307 178.652901 
L 323.25757 182.554833 
L 324.070833 185.481282 
L 324.884095 202.064512 
L 325.697358 205.966443 
L 326.510621 207.917429 
L 327.323884 212.794844 
L 328.137147 161.094188 
L 328.95041 174.750969 
L 329.763673 165.971603 
L 330.576936 177.677418 
L 331.390199 183.530316 
L 332.203461 180.603867 
L 333.829987 206.941926 
L 334.64325 203.039995 
L 335.456513 211.819361 
L 336.269776 157.192257 
L 337.083039 166.947106 
L 337.896302 169.873555 
L 338.709565 184.505799 
L 339.522827 191.334199 
L 340.33609 188.40775 
L 341.149353 195.236131 
L 341.962616 192.309682 
L 342.775879 207.917429 
L 343.589142 215.721293 
L 344.402405 162.069671 
L 345.215668 165.971603 
L 346.028931 167.922589 
L 346.842193 174.750969 
L 347.655456 189.383233 
L 348.468719 183.530316 
L 349.281982 196.211614 
L 350.095245 193.285165 
L 350.908508 199.138063 
L 351.721771 206.941926 
L 352.535034 168.898072 
L 353.348297 169.873555 
L 354.161559 175.726452 
L 354.974822 163.045154 
L 356.601348 183.530316 
L 357.414611 187.432268 
L 358.227874 192.309682 
L 359.041137 195.236131 
L 359.8544 203.039995 
L 360.667663 160.118706 
L 362.294188 167.922589 
L 363.107451 180.603867 
L 363.920714 177.677418 
L 364.733977 180.603867 
L 365.54724 189.383233 
L 366.360503 196.211614 
L 367.987029 196.211614 
L 368.800291 162.069671 
L 369.613554 172.800004 
L 370.426817 164.020637 
L 371.24008 165.971603 
L 372.053343 165.971603 
L 372.866606 185.481282 
L 373.679869 183.530316 
L 374.493132 192.309682 
L 375.306395 196.211614 
L 376.119657 199.138063 
L 376.93292 170.849038 
L 377.746183 168.898072 
L 378.559446 170.849038 
L 379.372709 175.726452 
L 380.185972 179.628384 
L 380.999235 187.432268 
L 381.812498 174.750969 
L 382.625761 188.40775 
L 383.439024 184.505799 
L 384.252286 201.089029 
L 385.065549 168.898072 
L 385.878812 171.824521 
L 386.692075 165.971603 
L 387.505338 171.824521 
L 388.318601 172.800004 
L 389.131864 177.677418 
L 389.945127 181.57935 
L 390.75839 183.530316 
L 391.571652 192.309682 
L 392.384915 189.383233 
L 393.198178 171.824521 
L 394.011441 164.99612 
L 394.824704 178.652901 
L 395.637967 176.701935 
L 396.45123 177.677418 
L 397.264493 175.726452 
L 398.077756 175.726452 
L 398.891018 189.383233 
L 399.704281 186.456765 
L 400.517544 193.285165 
L 401.330807 164.99612 
L 402.14407 170.849038 
L 402.957333 164.020637 
L 403.770596 177.677418 
L 404.583859 173.775487 
L 405.397122 171.824521 
L 406.210384 184.505799 
L 407.023647 182.554833 
L 407.83691 189.383233 
L 408.650173 183.530316 
L 409.463436 172.800004 
L 410.276699 172.800004 
L 411.089962 176.701935 
L 411.903225 179.628384 
L 412.716488 178.652901 
L 413.52975 176.701935 
L 414.343013 176.701935 
L 415.156276 184.505799 
L 415.969539 181.57935 
L 416.782802 190.358716 
L 417.596065 161.094188 
L 418.409328 164.020637 
L 419.222591 170.849038 
L 420.035854 174.750969 
L 420.849116 172.800004 
L 421.662379 181.57935 
L 422.475642 172.800004 
L 423.288905 181.57935 
L 424.102168 181.57935 
L 424.915431 182.554833 
L 425.728694 166.947106 
L 426.541957 166.947106 
L 427.35522 162.069671 
L 428.168482 177.677418 
L 428.981745 162.069671 
L 429.795008 171.824521 
L 430.608271 176.701935 
L 431.421534 178.652901 
L 432.234797 176.701935 
L 433.04806 182.554833 
L 433.861323 164.99612 
L 434.674586 172.800004 
L 435.487848 170.849038 
L 436.301111 165.971603 
L 437.114374 175.726452 
L 437.927637 178.652901 
L 438.7409 164.99612 
L 439.554163 179.628384 
L 440.367426 174.750969 
L 441.180689 185.481282 
L 441.993952 164.020637 
L 442.807214 164.020637 
L 443.620477 172.800004 
L 444.43374 170.849038 
L 445.247003 167.922589 
L 446.060266 173.775487 
L 446.873529 163.045154 
L 447.686792 171.824521 
L 448.500055 172.800004 
L 449.313318 181.57935 
L 450.12658 168.898072 
L 450.939843 172.800004 
L 451.753106 157.192257 
L 452.566369 166.947106 
L 453.379632 168.898072 
L 454.192895 174.750969 
L 455.006158 169.873555 
L 455.819421 177.677418 
L 456.632684 179.628384 
L 457.445946 185.481282 
L 458.259209 161.094188 
L 459.072472 174.750969 
L 459.885735 166.947106 
L 460.698998 170.849038 
L 461.512261 168.898072 
L 462.325524 171.824521 
L 463.138787 183.530316 
L 463.95205 172.800004 
L 464.765312 177.677418 
L 466.391838 165.971603 
L 467.205101 164.99612 
L 468.018364 166.947106 
L 468.831627 177.677418 
L 469.64489 169.873555 
L 470.458153 166.947106 
L 471.271416 169.873555 
L 472.084678 167.922589 
L 472.897941 177.677418 
L 473.711204 164.99612 
L 474.524467 160.118706 
L 475.33773 164.020637 
L 476.150993 168.898072 
L 476.964256 166.947106 
L 477.777519 159.143223 
L 478.590782 168.898072 
L 479.404044 166.947106 
L 480.217307 166.947106 
L 481.03057 169.873555 
L 481.843833 169.873555 
L 482.657096 164.020637 
L 483.470359 160.118706 
L 484.283622 166.947106 
L 485.096885 158.16774 
L 485.910148 168.898072 
L 486.72341 171.824521 
L 487.536673 169.873555 
L 488.349936 162.069671 
L 489.163199 176.701935 
L 489.976462 171.824521 
L 490.789725 163.045154 
L 491.602988 160.118706 
L 492.416251 171.824521 
L 493.229514 168.898072 
L 494.042776 163.045154 
L 494.856039 175.726452 
L 495.669302 176.701935 
L 496.482565 165.971603 
L 497.295828 176.701935 
L 498.109091 166.947106 
L 498.109091 166.947106 
" clip-path="url(#p8e8f9f2d10)" style="fill: none; stroke: #008000; stroke-width: 1.5; stroke-linecap: square"/>
   </g>
   <g id="patch_3">
    <path d="M 72 384.48 
L 72 51.84 
" style="fill: none; stroke: #000000; stroke-width: 0.8; stroke-linejoin: miter; stroke-linecap: square"/>
   </g>
   <g id="patch_4">
    <path d="M 518.4 384.48 
L 518.4 51.84 
" style="fill: none; stroke: #000000; stroke-width: 0.8; stroke-linejoin: miter; stroke-linecap: square"/>
   </g>
   <g id="patch_5">
    <path d="M 72 384.48 
L 518.4 384.48 
" style="fill: none; stroke: #000000; stroke-width: 0.8; stroke-linejoin: miter; stroke-linecap: square"/>
   </g>
   <g id="patch_6">
    <path d="M 72 51.84 
L 518.4 51.84 
" style="fill: none; stroke: #000000; stroke-width: 0.8; stroke-linejoin: miter; stroke-linecap: square"/>
   </g>
   <g id="legend_1">
    <g id="patch_7">
     <path d="M 79 89.19625 
L 156.107812 89.19625 
Q 158.107812 89.19625 158.107812 87.19625 
L 158.107812 58.84 
Q 158.107812 56.84 156.107812 56.84 
L 79 56.84 
Q 77 56.84 77 58.84 
L 77 87.19625 
Q 77 89.19625 79 89.19625 
z
" style="fill: #ffffff; opacity: 0.8; stroke: #cccccc; stroke-linejoin: miter"/>
    </g>
    <g id="line2d_15">
     <path d="M 81 64.938437 
L 91 64.938437 
L 101 64.938437 
" style="fill: none; stroke: #0000ff; stroke-width: 1.5; stroke-linecap: square"/>
    </g>
    <g id="text_15">
     <!-- precision -->
     <g transform="translate(109 68.438437) scale(0.1 -0.1)">
      <defs>
       <path id="DejaVuSans-69" d="M 603 3500 
L 1178 3500 
L 1178 0 
L 603 0 
L 603 3500 
z
M 603 4863 
L 1178 4863 
L 1178 4134 
L 603 4134 
L 603 4863 
z
" transform="scale(0.015625)"/>
       <path id="DejaVuSans-73" d="M 2834 3397 
L 2834 2853 
Q 2591 2978 2328 3040 
Q 2066 3103 1784 3103 
Q 1356 3103 1142 2972 
Q 928 2841 928 2578 
Q 928 2378 1081 2264 
Q 1234 2150 1697 2047 
L 1894 2003 
Q 2506 1872 2764 1633 
Q 3022 1394 3022 966 
Q 3022 478 2636 193 
Q 2250 -91 1575 -91 
Q 1294 -91 989 -36 
Q 684 19 347 128 
L 347 722 
Q 666 556 975 473 
Q 1284 391 1588 391 
Q 1994 391 2212 530 
Q 2431 669 2431 922 
Q 2431 1156 2273 1281 
Q 2116 1406 1581 1522 
L 1381 1569 
Q 847 1681 609 1914 
Q 372 2147 372 2553 
Q 372 3047 722 3315 
Q 1072 3584 1716 3584 
Q 2034 3584 2315 3537 
Q 2597 3491 2834 3397 
z
" transform="scale(0.015625)"/>
       <path id="DejaVuSans-6e" d="M 3513 2113 
L 3513 0 
L 2938 0 
L 2938 2094 
Q 2938 2591 2744 2837 
Q 2550 3084 2163 3084 
Q 1697 3084 1428 2787 
Q 1159 2491 1159 1978 
L 1159 0 
L 581 0 
L 581 3500 
L 1159 3500 
L 1159 2956 
Q 1366 3272 1645 3428 
Q 1925 3584 2291 3584 
Q 2894 3584 3203 3211 
Q 3513 2838 3513 2113 
z
" transform="scale(0.015625)"/>
      </defs>
      <use xlink:href="#DejaVuSans-70"/>
      <use xlink:href="#DejaVuSans-72" x="63.476562"/>
      <use xlink:href="#DejaVuSans-65" x="102.339844"/>
      <use xlink:href="#DejaVuSans-63" x="163.863281"/>
      <use xlink:href="#DejaVuSans-69" x="218.84375"/>
      <use xlink:href="#DejaVuSans-73" x="246.626953"/>
      <use xlink:href="#DejaVuSans-69" x="298.726562"/>
      <use xlink:href="#DejaVuSans-6f" x="326.509766"/>
      <use xlink:href="#DejaVuSans-6e" x="387.691406"/>
     </g>
    </g>
    <g id="line2d_16">
     <path d="M 81 79.616562 
L 91 79.616562 
L 101 79.616562 
" style="fill: none; stroke: #008000; stroke-width: 1.5; stroke-linecap: square"/>
    </g>
    <g id="text_16">
     <!-- recall -->
     <g transform="translate(109 83.116562) scale(0.1 -0.1)">
      <defs>
       <path id="DejaVuSans-6c" d="M 603 4863 
L 1178 4863 
L 1178 0 
L 603 0 
L 603 4863 
z
" transform="scale(0.015625)"/>
      </defs>
      <use xlink:href="#DejaVuSans-72"/>
      <use xlink:href="#DejaVuSans-65" x="38.863281"/>
      <use xlink:href="#DejaVuSans-63" x="100.386719"/>
      <use xlink:href="#DejaVuSans-61" x="155.367188"/>
      <use xlink:href="#DejaVuSans-6c" x="216.646484"/>
      <use xlink:href="#DejaVuSans-6c" x="244.429688"/>
     </g>
    </g>
   </g>
  </g>
  <g id="axes_2">
   <g id="matplotlib.axis_3">
    <g id="ytick_7">
     <g id="line2d_17">
      <defs>
       <path id="m7ccb7462bd" d="M 0 0 
L 3.5 0 
" style="stroke: #000000; stroke-width: 0.8"/>
      </defs>
      <g>
       <use xlink:href="#m7ccb7462bd" x="518.4" y="376.77004" style="stroke: #000000; stroke-width: 0.8"/>
      </g>
     </g>
     <g id="text_17">
      <!-- 0.2 -->
      <g transform="translate(525.4 380.569259) scale(0.1 -0.1)">
       <use xlink:href="#DejaVuSans-30"/>
       <use xlink:href="#DejaVuSans-2e" x="63.623047"/>
       <use xlink:href="#DejaVuSans-32" x="95.410156"/>
      </g>
     </g>
    </g>
    <g id="ytick_8">
     <g id="line2d_18">
      <g>
       <use xlink:href="#m7ccb7462bd" x="518.4" y="332.4912" style="stroke: #000000; stroke-width: 0.8"/>
      </g>
     </g>
     <g id="text_18">
      <!-- 0.3 -->
      <g transform="translate(525.4 336.290418) scale(0.1 -0.1)">
       <use xlink:href="#DejaVuSans-30"/>
       <use xlink:href="#DejaVuSans-2e" x="63.623047"/>
       <use xlink:href="#DejaVuSans-33" x="95.410156"/>
      </g>
     </g>
    </g>
    <g id="ytick_9">
     <g id="line2d_19">
      <g>
       <use xlink:href="#m7ccb7462bd" x="518.4" y="288.212359" style="stroke: #000000; stroke-width: 0.8"/>
      </g>
     </g>
     <g id="text_19">
      <!-- 0.4 -->
      <g transform="translate(525.4 292.011578) scale(0.1 -0.1)">
       <use xlink:href="#DejaVuSans-30"/>
       <use xlink:href="#DejaVuSans-2e" x="63.623047"/>
       <use xlink:href="#DejaVuSans-34" x="95.410156"/>
      </g>
     </g>
    </g>
    <g id="ytick_10">
     <g id="line2d_20">
      <g>
       <use xlink:href="#m7ccb7462bd" x="518.4" y="243.933519" style="stroke: #000000; stroke-width: 0.8"/>
      </g>
     </g>
     <g id="text_20">
      <!-- 0.5 -->
      <g transform="translate(525.4 247.732738) scale(0.1 -0.1)">
       <use xlink:href="#DejaVuSans-30"/>
       <use xlink:href="#DejaVuSans-2e" x="63.623047"/>
       <use xlink:href="#DejaVuSans-35" x="95.410156"/>
      </g>
     </g>
    </g>
    <g id="ytick_11">
     <g id="line2d_21">
      <g>
       <use xlink:href="#m7ccb7462bd" x="518.4" y="199.654679" style="stroke: #000000; stroke-width: 0.8"/>
      </g>
     </g>
     <g id="text_21">
      <!-- 0.6 -->
      <g transform="translate(525.4 203.453897) scale(0.1 -0.1)">
       <use xlink:href="#DejaVuSans-30"/>
       <use xlink:href="#DejaVuSans-2e" x="63.623047"/>
       <use xlink:href="#DejaVuSans-36" x="95.410156"/>
      </g>
     </g>
    </g>
    <g id="ytick_12">
     <g id="line2d_22">
      <g>
       <use xlink:href="#m7ccb7462bd" x="518.4" y="155.375838" style="stroke: #000000; stroke-width: 0.8"/>
      </g>
     </g>
     <g id="text_22">
      <!-- 0.7 -->
      <g transform="translate(525.4 159.175057) scale(0.1 -0.1)">
       <defs>
        <path id="DejaVuSans-37" d="M 525 4666 
L 3525 4666 
L 3525 4397 
L 1831 0 
L 1172 0 
L 2766 4134 
L 525 4134 
L 525 4666 
z
" transform="scale(0.015625)"/>
       </defs>
       <use xlink:href="#DejaVuSans-30"/>
       <use xlink:href="#DejaVuSans-2e" x="63.623047"/>
       <use xlink:href="#DejaVuSans-37" x="95.410156"/>
      </g>
     </g>
    </g>
    <g id="ytick_13">
     <g id="line2d_23">
      <g>
       <use xlink:href="#m7ccb7462bd" x="518.4" y="111.096998" style="stroke: #000000; stroke-width: 0.8"/>
      </g>
     </g>
     <g id="text_23">
      <!-- 0.8 -->
      <g transform="translate(525.4 114.896217) scale(0.1 -0.1)">
       <use xlink:href="#DejaVuSans-30"/>
       <use xlink:href="#DejaVuSans-2e" x="63.623047"/>
       <use xlink:href="#DejaVuSans-38" x="95.410156"/>
      </g>
     </g>
    </g>
    <g id="ytick_14">
     <g id="line2d_24">
      <g>
       <use xlink:href="#m7ccb7462bd" x="518.4" y="66.818158" style="stroke: #000000; stroke-width: 0.8"/>
      </g>
     </g>
     <g id="text_24">
      <!-- 0.9 -->
      <g transform="translate(525.4 70.617376) scale(0.1 -0.1)">
       <defs>
        <path id="DejaVuSans-39" d="M 703 97 
L 703 672 
Q 941 559 1184 500 
Q 1428 441 1663 441 
Q 2288 441 2617 861 
Q 2947 1281 2994 2138 
Q 2813 1869 2534 1725 
Q 2256 1581 1919 1581 
Q 1219 1581 811 2004 
Q 403 2428 403 3163 
Q 403 3881 828 4315 
Q 1253 4750 1959 4750 
Q 2769 4750 3195 4129 
Q 3622 3509 3622 2328 
Q 3622 1225 3098 567 
Q 2575 -91 1691 -91 
Q 1453 -91 1209 -44 
Q 966 3 703 97 
z
M 1959 2075 
Q 2384 2075 2632 2365 
Q 2881 2656 2881 3163 
Q 2881 3666 2632 3958 
Q 2384 4250 1959 4250 
Q 1534 4250 1286 3958 
Q 1038 3666 1038 3163 
Q 1038 2656 1286 2365 
Q 1534 2075 1959 2075 
z
" transform="scale(0.015625)"/>
       </defs>
       <use xlink:href="#DejaVuSans-30"/>
       <use xlink:href="#DejaVuSans-2e" x="63.623047"/>
       <use xlink:href="#DejaVuSans-39" x="95.410156"/>
      </g>
     </g>
    </g>
    <g id="text_25">
     <!-- loss -->
     <g transform="translate(552.901563 227.817812) rotate(-90) scale(0.1 -0.1)">
      <use xlink:href="#DejaVuSans-6c"/>
      <use xlink:href="#DejaVuSans-6f" x="27.783203"/>
      <use xlink:href="#DejaVuSans-73" x="88.964844"/>
      <use xlink:href="#DejaVuSans-73" x="141.064453"/>
     </g>
    </g>
   </g>
   <g id="line2d_25">
    <path d="M 92.290909 66.96 
L 93.104172 130.889804 
L 93.917435 218.451964 
L 94.730698 289.249479 
L 95.543961 326.937619 
L 96.357224 343.17302 
L 97.170486 347.161773 
L 97.983749 347.677081 
L 98.797012 350.280003 
L 99.610275 349.548806 
L 100.423538 238.960164 
L 101.236801 281.901496 
L 102.050064 318.376476 
L 102.863327 337.630279 
L 103.67659 344.413443 
L 104.489852 345.574042 
L 105.303115 344.118839 
L 106.929641 343.777535 
L 107.742904 343.708479 
L 108.556167 258.92987 
L 109.36943 301.379883 
L 110.182693 329.867172 
L 110.995956 346.596002 
L 111.809218 354.040304 
L 112.622481 356.392632 
L 113.435744 358.133359 
L 114.249007 356.56886 
L 115.06227 358.264839 
L 115.875533 357.63023 
L 116.688796 250.33257 
L 117.502059 295.886417 
L 118.315322 330.110139 
L 119.128584 349.517373 
L 119.941847 356.455822 
L 120.75511 359.9516 
L 121.568373 360.604109 
L 122.381636 360.401113 
L 123.194899 359.265454 
L 124.008162 361.657647 
L 124.821425 258.035292 
L 125.634688 302.378566 
L 126.44795 335.631238 
L 127.261213 351.732223 
L 128.074476 359.732623 
L 128.887739 363.100175 
L 129.701002 363.4658 
L 130.514265 362.03185 
L 131.327528 364.426418 
L 132.140791 365.480868 
L 132.954054 257.248921 
L 133.767316 300.624669 
L 134.580579 334.099525 
L 135.393842 352.272222 
L 136.207105 360.283733 
L 137.020368 363.061029 
L 137.833631 364.569807 
L 138.646894 362.989149 
L 139.460157 364.342069 
L 140.27342 366.239671 
L 141.086682 259.522666 
L 141.899945 305.098419 
L 142.713208 337.412042 
L 143.526471 355.729263 
L 144.339734 362.722403 
L 145.152997 365.148484 
L 145.96626 365.590079 
L 146.779523 364.135655 
L 147.592786 365.84739 
L 148.406048 366.020695 
L 149.219311 257.535607 
L 150.032574 303.65661 
L 150.845837 337.587035 
L 151.6591 355.555391 
L 152.472363 361.168454 
L 153.285626 364.72853 
L 154.098889 366.911684 
L 154.912152 367.182943 
L 155.725414 365.477173 
L 156.538677 367.671747 
L 157.35194 261.149629 
L 158.165203 306.039632 
L 158.978466 338.271479 
L 159.791729 356.886332 
L 160.604992 363.970189 
L 161.418255 367.28165 
L 162.231518 366.06991 
L 163.04478 369.36 
L 163.858043 367.644781 
L 164.671306 368.613218 
L 165.484569 258.642907 
L 166.297832 304.715322 
L 167.111095 339.358457 
L 167.924358 357.266954 
L 168.737621 363.175188 
L 170.364146 367.737438 
L 171.177409 366.474292 
L 171.990672 368.625748 
L 172.803935 368.751507 
L 173.617198 259.981746 
L 174.430461 306.315286 
L 176.056987 332.073986 
L 176.87025 343.917638 
L 178.496775 357.312613 
L 179.310038 361.108253 
L 180.123301 363.475671 
L 180.936564 364.040049 
L 181.749827 257.076118 
L 183.376353 308.000668 
L 185.002878 339.419304 
L 185.816141 350.515303 
L 186.629404 356.069538 
L 188.25593 363.139968 
L 189.069193 361.837273 
L 189.882456 255.881605 
L 190.695719 283.498398 
L 192.322244 326.657479 
L 193.135507 339.487383 
L 193.94877 349.210075 
L 194.762033 355.952436 
L 195.575296 359.212472 
L 196.388559 361.007171 
L 197.201822 363.530877 
L 198.015085 259.465778 
L 198.828348 284.967113 
L 199.64161 306.378205 
L 201.268136 338.82916 
L 202.081399 347.157972 
L 203.707925 357.824372 
L 204.521188 361.740724 
L 205.334451 363.414883 
L 206.147714 259.912018 
L 208.587502 322.109422 
L 209.400765 335.268477 
L 210.214028 345.267232 
L 211.027291 351.424411 
L 211.840554 354.531979 
L 212.653817 360.357605 
L 213.46708 362.18926 
L 214.280343 257.979881 
L 215.093605 282.167886 
L 216.720131 319.480583 
L 217.533394 333.462957 
L 219.15992 350.285638 
L 219.973183 355.620012 
L 220.786446 358.141646 
L 221.599709 359.715297 
L 222.412971 257.902868 
L 223.226234 280.82584 
L 224.039497 300.400137 
L 224.85276 317.211021 
L 225.666023 330.138246 
L 226.479286 339.894562 
L 227.292549 347.98207 
L 228.105812 352.612088 
L 228.919075 356.439524 
L 229.732337 358.281617 
L 230.5456 259.922403 
L 232.985389 314.191313 
L 234.611915 338.694269 
L 236.238441 350.79258 
L 237.051703 354.812403 
L 237.864966 357.836855 
L 238.678229 259.691854 
L 240.304755 295.65881 
L 241.118018 312.729684 
L 241.931281 325.952489 
L 242.744544 335.260612 
L 244.371069 347.957024 
L 245.184332 351.438755 
L 245.997595 356.350075 
L 246.810858 259.996935 
L 247.624121 275.515694 
L 249.250647 310.975325 
L 250.877173 331.878089 
L 251.690435 340.303748 
L 252.503698 345.389005 
L 253.316961 351.470201 
L 254.130224 353.989209 
L 254.943487 258.779421 
L 255.75675 274.735288 
L 256.570013 293.627636 
L 257.383276 308.137618 
L 258.196539 318.001456 
L 259.009801 330.039949 
L 259.823064 336.546218 
L 260.636327 344.247409 
L 261.44959 349.394675 
L 262.262853 351.755567 
L 263.076116 259.250338 
L 264.702642 289.784767 
L 266.329167 317.474957 
L 267.955693 334.561402 
L 268.768956 341.250411 
L 270.395482 349.805603 
L 271.208745 259.96372 
L 272.022008 275.750836 
L 273.648533 302.53399 
L 275.275059 324.599755 
L 276.088322 332.607149 
L 276.901585 336.621937 
L 277.714848 343.006459 
L 278.528111 347.464465 
L 279.341374 259.970543 
L 280.154637 274.583784 
L 282.594425 311.309214 
L 283.407688 320.810066 
L 285.034214 335.479575 
L 285.847477 339.912285 
L 286.66074 345.340008 
L 287.474003 259.424183 
L 289.100528 286.888284 
L 290.727054 308.688952 
L 292.35358 325.522784 
L 293.166843 331.679065 
L 294.793369 342.330527 
L 295.606631 260.480375 
L 298.04642 295.650628 
L 299.672946 314.458495 
L 300.486209 322.938046 
L 301.299472 329.066589 
L 302.925997 339.426245 
L 303.73926 258.704572 
L 305.365786 282.737457 
L 306.992312 304.0135 
L 307.805575 312.279947 
L 308.618838 319.369894 
L 311.058626 336.405296 
L 311.871889 259.230095 
L 313.498415 283.155246 
L 315.124941 300.705878 
L 315.938204 308.05534 
L 316.751467 317.639671 
L 318.377992 328.932424 
L 319.191255 331.599862 
L 320.004518 259.709721 
L 321.631044 281.080156 
L 322.444307 291.013748 
L 324.070833 307.532391 
L 324.884095 312.800125 
L 325.697358 320.186298 
L 327.323884 330.633167 
L 328.137147 259.943438 
L 328.95041 268.015862 
L 329.763673 279.614146 
L 332.203461 304.001399 
L 333.016724 310.933744 
L 333.829987 315.383952 
L 334.64325 320.970715 
L 335.456513 325.725859 
L 336.269776 261.24121 
L 337.896302 279.397386 
L 338.709565 283.765738 
L 340.33609 301.709179 
L 341.962616 314.011027 
L 342.775879 318.558754 
L 343.589142 324.269192 
L 344.402405 259.989017 
L 346.842193 285.812008 
L 347.655456 291.517431 
L 348.468719 298.395712 
L 349.281982 303.727658 
L 350.095245 311.47179 
L 350.908508 315.202386 
L 351.721771 321.009657 
L 352.535034 259.149123 
L 354.974822 284.46343 
L 358.227874 307.67673 
L 359.041137 313.236388 
L 359.8544 317.300821 
L 360.667663 260.997636 
L 361.480925 267.466956 
L 362.294188 275.273347 
L 364.733977 293.619824 
L 365.54724 298.632371 
L 366.360503 304.508077 
L 367.987029 314.721625 
L 368.800291 260.949721 
L 369.613554 265.435585 
L 371.24008 281.680421 
L 372.053343 287.437507 
L 372.866606 291.424504 
L 373.679869 295.98544 
L 374.493132 302.63911 
L 375.306395 305.699278 
L 376.119657 310.703314 
L 376.93292 259.31294 
L 377.746183 266.956319 
L 380.185972 284.046644 
L 380.999235 288.451048 
L 381.812498 296.073379 
L 382.625761 298.538098 
L 383.439024 303.830509 
L 384.252286 306.728641 
L 385.065549 259.208783 
L 385.878812 266.031086 
L 386.692075 271.610275 
L 387.505338 277.963113 
L 389.945127 292.576948 
L 390.75839 295.608863 
L 391.571652 301.314615 
L 392.384915 303.222669 
L 393.198178 260.54146 
L 394.824704 270.897961 
L 396.45123 280.257971 
L 397.264493 286.781936 
L 398.891018 293.900888 
L 400.517544 302.14737 
L 401.330807 260.570795 
L 402.14407 264.438578 
L 403.770596 274.846149 
L 405.397122 282.675132 
L 406.210384 286.108723 
L 408.650173 299.560006 
L 409.463436 259.080596 
L 410.276699 263.033719 
L 411.089962 268.37605 
L 411.903225 271.901513 
L 412.716488 278.185797 
L 413.52975 281.028506 
L 414.343013 286.243733 
L 415.156276 289.054546 
L 415.969539 293.019651 
L 416.782802 295.263414 
L 417.596065 260.478633 
L 419.222591 268.754858 
L 420.035854 271.719354 
L 420.849116 277.217202 
L 421.662379 279.968567 
L 422.475642 284.448017 
L 423.288905 287.145279 
L 424.915431 293.157445 
L 425.728694 258.863427 
L 426.541957 264.457369 
L 428.168482 271.278762 
L 428.981745 276.106827 
L 429.795008 278.639348 
L 430.608271 283.123457 
L 431.421534 284.393702 
L 432.234797 288.672096 
L 433.04806 291.106306 
L 433.861323 259.917177 
L 434.674586 262.248061 
L 435.487848 267.157811 
L 437.114374 273.59674 
L 437.927637 275.724047 
L 438.7409 280.813159 
L 439.554163 282.517557 
L 441.180689 287.38649 
L 441.993952 262.249394 
L 442.807214 264.601273 
L 443.620477 266.485429 
L 444.43374 269.178863 
L 445.247003 272.916401 
L 446.060266 275.091966 
L 447.686792 282.383392 
L 448.500055 283.744097 
L 449.313318 285.876036 
L 450.12658 258.896972 
L 450.939843 261.776406 
L 451.753106 266.910925 
L 452.566369 269.55424 
L 453.379632 273.642267 
L 454.192895 275.626132 
L 455.006158 278.224963 
L 455.819421 279.72399 
L 456.632684 281.611775 
L 457.445946 282.790479 
L 458.259209 260.988359 
L 459.072472 260.64076 
L 459.885735 265.624923 
L 460.698998 267.190946 
L 461.512261 271.140453 
L 462.325524 272.30228 
L 463.138787 274.636845 
L 463.95205 277.795852 
L 464.765312 279.943745 
L 465.578575 283.627997 
L 466.391838 260.256212 
L 467.205101 262.42064 
L 468.018364 265.20551 
L 468.831627 266.636656 
L 469.64489 270.012884 
L 470.458153 272.489929 
L 471.271416 274.066337 
L 472.084678 277.745284 
L 472.897941 278.764856 
L 473.711204 281.336662 
L 474.524467 260.506318 
L 475.33773 262.858369 
L 476.150993 265.833685 
L 476.964256 267.073422 
L 477.777519 268.879826 
L 478.590782 271.686232 
L 479.404044 273.909 
L 480.217307 274.288059 
L 481.03057 277.891854 
L 481.843833 280.032041 
L 482.657096 260.699061 
L 483.470359 263.564018 
L 485.910148 267.906229 
L 486.72341 270.80902 
L 487.536673 271.488541 
L 488.349936 274.79764 
L 489.163199 274.946717 
L 489.976462 277.180675 
L 490.789725 260.21318 
L 492.416251 263.425789 
L 494.042776 267.635405 
L 494.856039 268.866577 
L 495.669302 270.307857 
L 496.482565 272.808245 
L 497.295828 274.877675 
L 498.109091 275.598961 
L 498.109091 275.598961 
" clip-path="url(#p8e8f9f2d10)" style="fill: none; stroke: #ff0000; stroke-width: 1.5; stroke-linecap: square"/>
   </g>
   <g id="patch_8">
    <path d="M 72 384.48 
L 72 51.84 
" style="fill: none; stroke: #000000; stroke-width: 0.8; stroke-linejoin: miter; stroke-linecap: square"/>
   </g>
   <g id="patch_9">
    <path d="M 518.4 384.48 
L 518.4 51.84 
" style="fill: none; stroke: #000000; stroke-width: 0.8; stroke-linejoin: miter; stroke-linecap: square"/>
   </g>
   <g id="patch_10">
    <path d="M 72 384.48 
L 518.4 384.48 
" style="fill: none; stroke: #000000; stroke-width: 0.8; stroke-linejoin: miter; stroke-linecap: square"/>
   </g>
   <g id="patch_11">
    <path d="M 72 51.84 
L 518.4 51.84 
" style="fill: none; stroke: #000000; stroke-width: 0.8; stroke-linejoin: miter; stroke-linecap: square"/>
   </g>
   <g id="text_26">
    <!-- The learning curve on _0.00025_non_iid/host/8 -->
    <g transform="translate(151.056562 45.84) scale(0.12 -0.12)">
     <defs>
      <path id="DejaVuSans-54" d="M -19 4666 
L 3928 4666 
L 3928 4134 
L 2272 4134 
L 2272 0 
L 1638 0 
L 1638 4134 
L -19 4134 
L -19 4666 
z
" transform="scale(0.015625)"/>
      <path id="DejaVuSans-20" transform="scale(0.015625)"/>
      <path id="DejaVuSans-67" d="M 2906 1791 
Q 2906 2416 2648 2759 
Q 2391 3103 1925 3103 
Q 1463 3103 1205 2759 
Q 947 2416 947 1791 
Q 947 1169 1205 825 
Q 1463 481 1925 481 
Q 2391 481 2648 825 
Q 2906 1169 2906 1791 
z
M 3481 434 
Q 3481 -459 3084 -895 
Q 2688 -1331 1869 -1331 
Q 1566 -1331 1297 -1286 
Q 1028 -1241 775 -1147 
L 775 -588 
Q 1028 -725 1275 -790 
Q 1522 -856 1778 -856 
Q 2344 -856 2625 -561 
Q 2906 -266 2906 331 
L 2906 616 
Q 2728 306 2450 153 
Q 2172 0 1784 0 
Q 1141 0 747 490 
Q 353 981 353 1791 
Q 353 2603 747 3093 
Q 1141 3584 1784 3584 
Q 2172 3584 2450 3431 
Q 2728 3278 2906 2969 
L 2906 3500 
L 3481 3500 
L 3481 434 
z
" transform="scale(0.015625)"/>
      <path id="DejaVuSans-75" d="M 544 1381 
L 544 3500 
L 1119 3500 
L 1119 1403 
Q 1119 906 1312 657 
Q 1506 409 1894 409 
Q 2359 409 2629 706 
Q 2900 1003 2900 1516 
L 2900 3500 
L 3475 3500 
L 3475 0 
L 2900 0 
L 2900 538 
Q 2691 219 2414 64 
Q 2138 -91 1772 -91 
Q 1169 -91 856 284 
Q 544 659 544 1381 
z
M 1991 3584 
L 1991 3584 
z
" transform="scale(0.015625)"/>
      <path id="DejaVuSans-76" d="M 191 3500 
L 800 3500 
L 1894 563 
L 2988 3500 
L 3597 3500 
L 2284 0 
L 1503 0 
L 191 3500 
z
" transform="scale(0.015625)"/>
      <path id="DejaVuSans-3bb" d="M 1981 4316 
L 3597 0 
L 2988 0 
L 2006 2588 
L 800 0 
L 191 0 
L 1725 3356 
L 1494 3975 
Q 1347 4369 1013 4369 
L 713 4369 
L 713 4863 
L 1078 4856 
Q 1784 4847 1981 4316 
z
" transform="scale(0.015625)"/>
      <path id="DejaVuSans-5f" d="M 3263 -1063 
L 3263 -1509 
L -63 -1509 
L -63 -1063 
L 3263 -1063 
z
" transform="scale(0.015625)"/>
      <path id="DejaVuSans-64" d="M 2906 2969 
L 2906 4863 
L 3481 4863 
L 3481 0 
L 2906 0 
L 2906 525 
Q 2725 213 2448 61 
Q 2172 -91 1784 -91 
Q 1150 -91 751 415 
Q 353 922 353 1747 
Q 353 2572 751 3078 
Q 1150 3584 1784 3584 
Q 2172 3584 2448 3432 
Q 2725 3281 2906 2969 
z
M 947 1747 
Q 947 1113 1208 752 
Q 1469 391 1925 391 
Q 2381 391 2643 752 
Q 2906 1113 2906 1747 
Q 2906 2381 2643 2742 
Q 2381 3103 1925 3103 
Q 1469 3103 1208 2742 
Q 947 2381 947 1747 
z
" transform="scale(0.015625)"/>
      <path id="DejaVuSans-2f" d="M 1625 4666 
L 2156 4666 
L 531 -594 
L 0 -594 
L 1625 4666 
z
" transform="scale(0.015625)"/>
     </defs>
     <use xlink:href="#DejaVuSans-54"/>
     <use xlink:href="#DejaVuSans-68" x="61.083984"/>
     <use xlink:href="#DejaVuSans-65" x="124.462891"/>
     <use xlink:href="#DejaVuSans-20" x="185.986328"/>
     <use xlink:href="#DejaVuSans-6c" x="217.773438"/>
     <use xlink:href="#DejaVuSans-65" x="245.556641"/>
     <use xlink:href="#DejaVuSans-61" x="307.080078"/>
     <use xlink:href="#DejaVuSans-72" x="368.359375"/>
     <use xlink:href="#DejaVuSans-6e" x="407.722656"/>
     <use xlink:href="#DejaVuSans-69" x="471.101562"/>
     <use xlink:href="#DejaVuSans-6e" x="498.884766"/>
     <use xlink:href="#DejaVuSans-67" x="562.263672"/>
     <use xlink:href="#DejaVuSans-20" x="625.740234"/>
     <use xlink:href="#DejaVuSans-63" x="657.527344"/>
     <use xlink:href="#DejaVuSans-75" x="712.507812"/>
     <use xlink:href="#DejaVuSans-72" x="775.886719"/>
     <use xlink:href="#DejaVuSans-76" x="817"/>
     <use xlink:href="#DejaVuSans-65" x="876.179688"/>
     <use xlink:href="#DejaVuSans-20" x="937.703125"/>
     <use xlink:href="#DejaVuSans-6f" x="969.490234"/>
     <use xlink:href="#DejaVuSans-6e" x="1030.671875"/>
     <use xlink:href="#DejaVuSans-20" x="1094.050781"/>
     <use xlink:href="#DejaVuSans-3bb" x="1125.837891"/>
     <use xlink:href="#DejaVuSans-5f" x="1185.017578"/>
     <use xlink:href="#DejaVuSans-30" x="1235.017578"/>
     <use xlink:href="#DejaVuSans-2e" x="1298.640625"/>
     <use xlink:href="#DejaVuSans-30" x="1330.427734"/>
     <use xlink:href="#DejaVuSans-30" x="1394.050781"/>
     <use xlink:href="#DejaVuSans-30" x="1457.673828"/>
     <use xlink:href="#DejaVuSans-32" x="1521.296875"/>
     <use xlink:href="#DejaVuSans-35" x="1584.919922"/>
     <use xlink:href="#DejaVuSans-5f" x="1648.542969"/>
     <use xlink:href="#DejaVuSans-6e" x="1698.542969"/>
     <use xlink:href="#DejaVuSans-6f" x="1761.921875"/>
     <use xlink:href="#DejaVuSans-6e" x="1823.103516"/>
     <use xlink:href="#DejaVuSans-5f" x="1886.482422"/>
     <use xlink:href="#DejaVuSans-69" x="1936.482422"/>
     <use xlink:href="#DejaVuSans-69" x="1964.265625"/>
     <use xlink:href="#DejaVuSans-64" x="1992.048828"/>
     <use xlink:href="#DejaVuSans-2f" x="2055.525391"/>
     <use xlink:href="#DejaVuSans-68" x="2089.216797"/>
     <use xlink:href="#DejaVuSans-6f" x="2152.595703"/>
     <use xlink:href="#DejaVuSans-73" x="2213.777344"/>
     <use xlink:href="#DejaVuSans-74" x="2265.876953"/>
     <use xlink:href="#DejaVuSans-2f" x="2305.085938"/>
     <use xlink:href="#DejaVuSans-38" x="2338.777344"/>
    </g>
   </g>
   <g id="legend_2">
    <g id="patch_12">
     <path d="M 460.084375 74.518125 
L 511.4 74.518125 
Q 513.4 74.518125 513.4 72.518125 
L 513.4 58.84 
Q 513.4 56.84 511.4 56.84 
L 460.084375 56.84 
Q 458.084375 56.84 458.084375 58.84 
L 458.084375 72.518125 
Q 458.084375 74.518125 460.084375 74.518125 
z
" style="fill: #ffffff; opacity: 0.8; stroke: #cccccc; stroke-linejoin: miter"/>
    </g>
    <g id="line2d_26">
     <path d="M 462.084375 64.938438 
L 472.084375 64.938438 
L 482.084375 64.938438 
" style="fill: none; stroke: #ff0000; stroke-width: 1.5; stroke-linecap: square"/>
    </g>
    <g id="text_27">
     <!-- loss -->
     <g transform="translate(490.084375 68.438438) scale(0.1 -0.1)">
      <use xlink:href="#DejaVuSans-6c"/>
      <use xlink:href="#DejaVuSans-6f" x="27.783203"/>
      <use xlink:href="#DejaVuSans-73" x="88.964844"/>
      <use xlink:href="#DejaVuSans-73" x="141.064453"/>
     </g>
    </g>
   </g>
  </g>
 </g>
 <defs>
  <clipPath id="p8e8f9f2d10">
   <rect x="72" y="51.84" width="446.4" height="332.64"/>
  </clipPath>
 </defs>
</svg>
