<?xml version="1.0" encoding="utf-8" standalone="no"?>
<!DOCTYPE svg PUBLIC "-//W3C//DTD SVG 1.1//EN"
  "http://www.w3.org/Graphics/SVG/1.1/DTD/svg11.dtd">
<svg xmlns:xlink="http://www.w3.org/1999/xlink" width="460.8pt" height="345.6pt" viewBox="0 0 460.8 345.6" xmlns="http://www.w3.org/2000/svg" version="1.1">
 <metadata>
  <rdf:RDF xmlns:dc="http://purl.org/dc/elements/1.1/" xmlns:cc="http://creativecommons.org/ns#" xmlns:rdf="http://www.w3.org/1999/02/22-rdf-syntax-ns#">
   <cc:Work>
    <dc:type rdf:resource="http://purl.org/dc/dcmitype/StillImage"/>
    <dc:date>2023-04-13T09:22:59.090586</dc:date>
    <dc:format>image/svg+xml</dc:format>
    <dc:creator>
     <cc:Agent>
      <dc:title>Matplotlib v3.7.1, https://matplotlib.org/</dc:title>
     </cc:Agent>
    </dc:creator>
   </cc:Work>
  </rdf:RDF>
 </metadata>
 <defs>
  <style type="text/css">*{stroke-linejoin: round; stroke-linecap: butt}</style>
 </defs>
 <g id="figure_1">
  <g id="patch_1">
   <path d="M 0 345.6 
L 460.8 345.6 
L 460.8 0 
L 0 0 
z
" style="fill: #ffffff"/>
  </g>
  <g id="axes_1">
   <g id="patch_2">
    <path d="M 57.6 307.584 
L 414.72 307.584 
L 414.72 41.472 
L 57.6 41.472 
z
" style="fill: #ffffff"/>
   </g>
   <g id="matplotlib.axis_1">
    <g id="xtick_1">
     <g id="line2d_1">
      <defs>
       <path id="m1c5b1f1f0f" d="M 0 0 
L 0 3.5 
" style="stroke: #000000; stroke-width: 0.8"/>
      </defs>
      <g>
       <use xlink:href="#m1c5b1f1f0f" x="73.832727" y="307.584" style="stroke: #000000; stroke-width: 0.8"/>
      </g>
     </g>
     <g id="text_1">
      <!-- 0 -->
      <g transform="translate(70.651477 322.182437) scale(0.1 -0.1)">
       <defs>
        <path id="DejaVuSans-30" d="M 2034 4250 
Q 1547 4250 1301 3770 
Q 1056 3291 1056 2328 
Q 1056 1369 1301 889 
Q 1547 409 2034 409 
Q 2525 409 2770 889 
Q 3016 1369 3016 2328 
Q 3016 3291 2770 3770 
Q 2525 4250 2034 4250 
z
M 2034 4750 
Q 2819 4750 3233 4129 
Q 3647 3509 3647 2328 
Q 3647 1150 3233 529 
Q 2819 -91 2034 -91 
Q 1250 -91 836 529 
Q 422 1150 422 2328 
Q 422 3509 836 4129 
Q 1250 4750 2034 4750 
z
" transform="scale(0.015625)"/>
       </defs>
       <use xlink:href="#DejaVuSans-30"/>
      </g>
     </g>
    </g>
    <g id="xtick_2">
     <g id="line2d_2">
      <g>
       <use xlink:href="#m1c5b1f1f0f" x="138.893758" y="307.584" style="stroke: #000000; stroke-width: 0.8"/>
      </g>
     </g>
     <g id="text_2">
      <!-- 100 -->
      <g transform="translate(129.350008 322.182437) scale(0.1 -0.1)">
       <defs>
        <path id="DejaVuSans-31" d="M 794 531 
L 1825 531 
L 1825 4091 
L 703 3866 
L 703 4441 
L 1819 4666 
L 2450 4666 
L 2450 531 
L 3481 531 
L 3481 0 
L 794 0 
L 794 531 
z
" transform="scale(0.015625)"/>
       </defs>
       <use xlink:href="#DejaVuSans-31"/>
       <use xlink:href="#DejaVuSans-30" x="63.623047"/>
       <use xlink:href="#DejaVuSans-30" x="127.246094"/>
      </g>
     </g>
    </g>
    <g id="xtick_3">
     <g id="line2d_3">
      <g>
       <use xlink:href="#m1c5b1f1f0f" x="203.95479" y="307.584" style="stroke: #000000; stroke-width: 0.8"/>
      </g>
     </g>
     <g id="text_3">
      <!-- 200 -->
      <g transform="translate(194.41104 322.182437) scale(0.1 -0.1)">
       <defs>
        <path id="DejaVuSans-32" d="M 1228 531 
L 3431 531 
L 3431 0 
L 469 0 
L 469 531 
Q 828 903 1448 1529 
Q 2069 2156 2228 2338 
Q 2531 2678 2651 2914 
Q 2772 3150 2772 3378 
Q 2772 3750 2511 3984 
Q 2250 4219 1831 4219 
Q 1534 4219 1204 4116 
Q 875 4013 500 3803 
L 500 4441 
Q 881 4594 1212 4672 
Q 1544 4750 1819 4750 
Q 2544 4750 2975 4387 
Q 3406 4025 3406 3419 
Q 3406 3131 3298 2873 
Q 3191 2616 2906 2266 
Q 2828 2175 2409 1742 
Q 1991 1309 1228 531 
z
" transform="scale(0.015625)"/>
       </defs>
       <use xlink:href="#DejaVuSans-32"/>
       <use xlink:href="#DejaVuSans-30" x="63.623047"/>
       <use xlink:href="#DejaVuSans-30" x="127.246094"/>
      </g>
     </g>
    </g>
    <g id="xtick_4">
     <g id="line2d_4">
      <g>
       <use xlink:href="#m1c5b1f1f0f" x="269.015821" y="307.584" style="stroke: #000000; stroke-width: 0.8"/>
      </g>
     </g>
     <g id="text_4">
      <!-- 300 -->
      <g transform="translate(259.472071 322.182437) scale(0.1 -0.1)">
       <defs>
        <path id="DejaVuSans-33" d="M 2597 2516 
Q 3050 2419 3304 2112 
Q 3559 1806 3559 1356 
Q 3559 666 3084 287 
Q 2609 -91 1734 -91 
Q 1441 -91 1130 -33 
Q 819 25 488 141 
L 488 750 
Q 750 597 1062 519 
Q 1375 441 1716 441 
Q 2309 441 2620 675 
Q 2931 909 2931 1356 
Q 2931 1769 2642 2001 
Q 2353 2234 1838 2234 
L 1294 2234 
L 1294 2753 
L 1863 2753 
Q 2328 2753 2575 2939 
Q 2822 3125 2822 3475 
Q 2822 3834 2567 4026 
Q 2313 4219 1838 4219 
Q 1578 4219 1281 4162 
Q 984 4106 628 3988 
L 628 4550 
Q 988 4650 1302 4700 
Q 1616 4750 1894 4750 
Q 2613 4750 3031 4423 
Q 3450 4097 3450 3541 
Q 3450 3153 3228 2886 
Q 3006 2619 2597 2516 
z
" transform="scale(0.015625)"/>
       </defs>
       <use xlink:href="#DejaVuSans-33"/>
       <use xlink:href="#DejaVuSans-30" x="63.623047"/>
       <use xlink:href="#DejaVuSans-30" x="127.246094"/>
      </g>
     </g>
    </g>
    <g id="xtick_5">
     <g id="line2d_5">
      <g>
       <use xlink:href="#m1c5b1f1f0f" x="334.076852" y="307.584" style="stroke: #000000; stroke-width: 0.8"/>
      </g>
     </g>
     <g id="text_5">
      <!-- 400 -->
      <g transform="translate(324.533102 322.182437) scale(0.1 -0.1)">
       <defs>
        <path id="DejaVuSans-34" d="M 2419 4116 
L 825 1625 
L 2419 1625 
L 2419 4116 
z
M 2253 4666 
L 3047 4666 
L 3047 1625 
L 3713 1625 
L 3713 1100 
L 3047 1100 
L 3047 0 
L 2419 0 
L 2419 1100 
L 313 1100 
L 313 1709 
L 2253 4666 
z
" transform="scale(0.015625)"/>
       </defs>
       <use xlink:href="#DejaVuSans-34"/>
       <use xlink:href="#DejaVuSans-30" x="63.623047"/>
       <use xlink:href="#DejaVuSans-30" x="127.246094"/>
      </g>
     </g>
    </g>
    <g id="xtick_6">
     <g id="line2d_6">
      <g>
       <use xlink:href="#m1c5b1f1f0f" x="399.137883" y="307.584" style="stroke: #000000; stroke-width: 0.8"/>
      </g>
     </g>
     <g id="text_6">
      <!-- 500 -->
      <g transform="translate(389.594133 322.182437) scale(0.1 -0.1)">
       <defs>
        <path id="DejaVuSans-35" d="M 691 4666 
L 3169 4666 
L 3169 4134 
L 1269 4134 
L 1269 2991 
Q 1406 3038 1543 3061 
Q 1681 3084 1819 3084 
Q 2600 3084 3056 2656 
Q 3513 2228 3513 1497 
Q 3513 744 3044 326 
Q 2575 -91 1722 -91 
Q 1428 -91 1123 -41 
Q 819 9 494 109 
L 494 744 
Q 775 591 1075 516 
Q 1375 441 1709 441 
Q 2250 441 2565 725 
Q 2881 1009 2881 1497 
Q 2881 1984 2565 2268 
Q 2250 2553 1709 2553 
Q 1456 2553 1204 2497 
Q 953 2441 691 2322 
L 691 4666 
z
" transform="scale(0.015625)"/>
       </defs>
       <use xlink:href="#DejaVuSans-35"/>
       <use xlink:href="#DejaVuSans-30" x="63.623047"/>
       <use xlink:href="#DejaVuSans-30" x="127.246094"/>
      </g>
     </g>
    </g>
    <g id="text_7">
     <!-- epoch -->
     <g transform="translate(220.931875 335.860562) scale(0.1 -0.1)">
      <defs>
       <path id="DejaVuSans-65" d="M 3597 1894 
L 3597 1613 
L 953 1613 
Q 991 1019 1311 708 
Q 1631 397 2203 397 
Q 2534 397 2845 478 
Q 3156 559 3463 722 
L 3463 178 
Q 3153 47 2828 -22 
Q 2503 -91 2169 -91 
Q 1331 -91 842 396 
Q 353 884 353 1716 
Q 353 2575 817 3079 
Q 1281 3584 2069 3584 
Q 2775 3584 3186 3129 
Q 3597 2675 3597 1894 
z
M 3022 2063 
Q 3016 2534 2758 2815 
Q 2500 3097 2075 3097 
Q 1594 3097 1305 2825 
Q 1016 2553 972 2059 
L 3022 2063 
z
" transform="scale(0.015625)"/>
       <path id="DejaVuSans-70" d="M 1159 525 
L 1159 -1331 
L 581 -1331 
L 581 3500 
L 1159 3500 
L 1159 2969 
Q 1341 3281 1617 3432 
Q 1894 3584 2278 3584 
Q 2916 3584 3314 3078 
Q 3713 2572 3713 1747 
Q 3713 922 3314 415 
Q 2916 -91 2278 -91 
Q 1894 -91 1617 61 
Q 1341 213 1159 525 
z
M 3116 1747 
Q 3116 2381 2855 2742 
Q 2594 3103 2138 3103 
Q 1681 3103 1420 2742 
Q 1159 2381 1159 1747 
Q 1159 1113 1420 752 
Q 1681 391 2138 391 
Q 2594 391 2855 752 
Q 3116 1113 3116 1747 
z
" transform="scale(0.015625)"/>
       <path id="DejaVuSans-6f" d="M 1959 3097 
Q 1497 3097 1228 2736 
Q 959 2375 959 1747 
Q 959 1119 1226 758 
Q 1494 397 1959 397 
Q 2419 397 2687 759 
Q 2956 1122 2956 1747 
Q 2956 2369 2687 2733 
Q 2419 3097 1959 3097 
z
M 1959 3584 
Q 2709 3584 3137 3096 
Q 3566 2609 3566 1747 
Q 3566 888 3137 398 
Q 2709 -91 1959 -91 
Q 1206 -91 779 398 
Q 353 888 353 1747 
Q 353 2609 779 3096 
Q 1206 3584 1959 3584 
z
" transform="scale(0.015625)"/>
       <path id="DejaVuSans-63" d="M 3122 3366 
L 3122 2828 
Q 2878 2963 2633 3030 
Q 2388 3097 2138 3097 
Q 1578 3097 1268 2742 
Q 959 2388 959 1747 
Q 959 1106 1268 751 
Q 1578 397 2138 397 
Q 2388 397 2633 464 
Q 2878 531 3122 666 
L 3122 134 
Q 2881 22 2623 -34 
Q 2366 -91 2075 -91 
Q 1284 -91 818 406 
Q 353 903 353 1747 
Q 353 2603 823 3093 
Q 1294 3584 2113 3584 
Q 2378 3584 2631 3529 
Q 2884 3475 3122 3366 
z
" transform="scale(0.015625)"/>
       <path id="DejaVuSans-68" d="M 3513 2113 
L 3513 0 
L 2938 0 
L 2938 2094 
Q 2938 2591 2744 2837 
Q 2550 3084 2163 3084 
Q 1697 3084 1428 2787 
Q 1159 2491 1159 1978 
L 1159 0 
L 581 0 
L 581 4863 
L 1159 4863 
L 1159 2956 
Q 1366 3272 1645 3428 
Q 1925 3584 2291 3584 
Q 2894 3584 3203 3211 
Q 3513 2838 3513 2113 
z
" transform="scale(0.015625)"/>
      </defs>
      <use xlink:href="#DejaVuSans-65"/>
      <use xlink:href="#DejaVuSans-70" x="61.523438"/>
      <use xlink:href="#DejaVuSans-6f" x="125"/>
      <use xlink:href="#DejaVuSans-63" x="186.181641"/>
      <use xlink:href="#DejaVuSans-68" x="241.162109"/>
     </g>
    </g>
   </g>
   <g id="matplotlib.axis_2">
    <g id="ytick_1">
     <g id="line2d_7">
      <defs>
       <path id="m803ea78fac" d="M 0 0 
L -3.5 0 
" style="stroke: #000000; stroke-width: 0.8"/>
      </defs>
      <g>
       <use xlink:href="#m803ea78fac" x="57.6" y="296.078758" style="stroke: #000000; stroke-width: 0.8"/>
      </g>
     </g>
     <g id="text_8">
      <!-- 0.1 -->
      <g transform="translate(34.696875 299.877977) scale(0.1 -0.1)">
       <defs>
        <path id="DejaVuSans-2e" d="M 684 794 
L 1344 794 
L 1344 0 
L 684 0 
L 684 794 
z
" transform="scale(0.015625)"/>
       </defs>
       <use xlink:href="#DejaVuSans-30"/>
       <use xlink:href="#DejaVuSans-2e" x="63.623047"/>
       <use xlink:href="#DejaVuSans-31" x="95.410156"/>
      </g>
     </g>
    </g>
    <g id="ytick_2">
     <g id="line2d_8">
      <g>
       <use xlink:href="#m803ea78fac" x="57.6" y="266.435692" style="stroke: #000000; stroke-width: 0.8"/>
      </g>
     </g>
     <g id="text_9">
      <!-- 0.2 -->
      <g transform="translate(34.696875 270.23491) scale(0.1 -0.1)">
       <use xlink:href="#DejaVuSans-30"/>
       <use xlink:href="#DejaVuSans-2e" x="63.623047"/>
       <use xlink:href="#DejaVuSans-32" x="95.410156"/>
      </g>
     </g>
    </g>
    <g id="ytick_3">
     <g id="line2d_9">
      <g>
       <use xlink:href="#m803ea78fac" x="57.6" y="236.792625" style="stroke: #000000; stroke-width: 0.8"/>
      </g>
     </g>
     <g id="text_10">
      <!-- 0.3 -->
      <g transform="translate(34.696875 240.591844) scale(0.1 -0.1)">
       <use xlink:href="#DejaVuSans-30"/>
       <use xlink:href="#DejaVuSans-2e" x="63.623047"/>
       <use xlink:href="#DejaVuSans-33" x="95.410156"/>
      </g>
     </g>
    </g>
    <g id="ytick_4">
     <g id="line2d_10">
      <g>
       <use xlink:href="#m803ea78fac" x="57.6" y="207.149558" style="stroke: #000000; stroke-width: 0.8"/>
      </g>
     </g>
     <g id="text_11">
      <!-- 0.4 -->
      <g transform="translate(34.696875 210.948777) scale(0.1 -0.1)">
       <use xlink:href="#DejaVuSans-30"/>
       <use xlink:href="#DejaVuSans-2e" x="63.623047"/>
       <use xlink:href="#DejaVuSans-34" x="95.410156"/>
      </g>
     </g>
    </g>
    <g id="ytick_5">
     <g id="line2d_11">
      <g>
       <use xlink:href="#m803ea78fac" x="57.6" y="177.506492" style="stroke: #000000; stroke-width: 0.8"/>
      </g>
     </g>
     <g id="text_12">
      <!-- 0.5 -->
      <g transform="translate(34.696875 181.305711) scale(0.1 -0.1)">
       <use xlink:href="#DejaVuSans-30"/>
       <use xlink:href="#DejaVuSans-2e" x="63.623047"/>
       <use xlink:href="#DejaVuSans-35" x="95.410156"/>
      </g>
     </g>
    </g>
    <g id="ytick_6">
     <g id="line2d_12">
      <g>
       <use xlink:href="#m803ea78fac" x="57.6" y="147.863425" style="stroke: #000000; stroke-width: 0.8"/>
      </g>
     </g>
     <g id="text_13">
      <!-- 0.6 -->
      <g transform="translate(34.696875 151.662644) scale(0.1 -0.1)">
       <defs>
        <path id="DejaVuSans-36" d="M 2113 2584 
Q 1688 2584 1439 2293 
Q 1191 2003 1191 1497 
Q 1191 994 1439 701 
Q 1688 409 2113 409 
Q 2538 409 2786 701 
Q 3034 994 3034 1497 
Q 3034 2003 2786 2293 
Q 2538 2584 2113 2584 
z
M 3366 4563 
L 3366 3988 
Q 3128 4100 2886 4159 
Q 2644 4219 2406 4219 
Q 1781 4219 1451 3797 
Q 1122 3375 1075 2522 
Q 1259 2794 1537 2939 
Q 1816 3084 2150 3084 
Q 2853 3084 3261 2657 
Q 3669 2231 3669 1497 
Q 3669 778 3244 343 
Q 2819 -91 2113 -91 
Q 1303 -91 875 529 
Q 447 1150 447 2328 
Q 447 3434 972 4092 
Q 1497 4750 2381 4750 
Q 2619 4750 2861 4703 
Q 3103 4656 3366 4563 
z
" transform="scale(0.015625)"/>
       </defs>
       <use xlink:href="#DejaVuSans-30"/>
       <use xlink:href="#DejaVuSans-2e" x="63.623047"/>
       <use xlink:href="#DejaVuSans-36" x="95.410156"/>
      </g>
     </g>
    </g>
    <g id="ytick_7">
     <g id="line2d_13">
      <g>
       <use xlink:href="#m803ea78fac" x="57.6" y="118.220359" style="stroke: #000000; stroke-width: 0.8"/>
      </g>
     </g>
     <g id="text_14">
      <!-- 0.7 -->
      <g transform="translate(34.696875 122.019577) scale(0.1 -0.1)">
       <defs>
        <path id="DejaVuSans-37" d="M 525 4666 
L 3525 4666 
L 3525 4397 
L 1831 0 
L 1172 0 
L 2766 4134 
L 525 4134 
L 525 4666 
z
" transform="scale(0.015625)"/>
       </defs>
       <use xlink:href="#DejaVuSans-30"/>
       <use xlink:href="#DejaVuSans-2e" x="63.623047"/>
       <use xlink:href="#DejaVuSans-37" x="95.410156"/>
      </g>
     </g>
    </g>
    <g id="ytick_8">
     <g id="line2d_14">
      <g>
       <use xlink:href="#m803ea78fac" x="57.6" y="88.577292" style="stroke: #000000; stroke-width: 0.8"/>
      </g>
     </g>
     <g id="text_15">
      <!-- 0.8 -->
      <g transform="translate(34.696875 92.376511) scale(0.1 -0.1)">
       <defs>
        <path id="DejaVuSans-38" d="M 2034 2216 
Q 1584 2216 1326 1975 
Q 1069 1734 1069 1313 
Q 1069 891 1326 650 
Q 1584 409 2034 409 
Q 2484 409 2743 651 
Q 3003 894 3003 1313 
Q 3003 1734 2745 1975 
Q 2488 2216 2034 2216 
z
M 1403 2484 
Q 997 2584 770 2862 
Q 544 3141 544 3541 
Q 544 4100 942 4425 
Q 1341 4750 2034 4750 
Q 2731 4750 3128 4425 
Q 3525 4100 3525 3541 
Q 3525 3141 3298 2862 
Q 3072 2584 2669 2484 
Q 3125 2378 3379 2068 
Q 3634 1759 3634 1313 
Q 3634 634 3220 271 
Q 2806 -91 2034 -91 
Q 1263 -91 848 271 
Q 434 634 434 1313 
Q 434 1759 690 2068 
Q 947 2378 1403 2484 
z
M 1172 3481 
Q 1172 3119 1398 2916 
Q 1625 2713 2034 2713 
Q 2441 2713 2670 2916 
Q 2900 3119 2900 3481 
Q 2900 3844 2670 4047 
Q 2441 4250 2034 4250 
Q 1625 4250 1398 4047 
Q 1172 3844 1172 3481 
z
" transform="scale(0.015625)"/>
       </defs>
       <use xlink:href="#DejaVuSans-30"/>
       <use xlink:href="#DejaVuSans-2e" x="63.623047"/>
       <use xlink:href="#DejaVuSans-38" x="95.410156"/>
      </g>
     </g>
    </g>
    <g id="ytick_9">
     <g id="line2d_15">
      <g>
       <use xlink:href="#m803ea78fac" x="57.6" y="58.934225" style="stroke: #000000; stroke-width: 0.8"/>
      </g>
     </g>
     <g id="text_16">
      <!-- 0.9 -->
      <g transform="translate(34.696875 62.733444) scale(0.1 -0.1)">
       <defs>
        <path id="DejaVuSans-39" d="M 703 97 
L 703 672 
Q 941 559 1184 500 
Q 1428 441 1663 441 
Q 2288 441 2617 861 
Q 2947 1281 2994 2138 
Q 2813 1869 2534 1725 
Q 2256 1581 1919 1581 
Q 1219 1581 811 2004 
Q 403 2428 403 3163 
Q 403 3881 828 4315 
Q 1253 4750 1959 4750 
Q 2769 4750 3195 4129 
Q 3622 3509 3622 2328 
Q 3622 1225 3098 567 
Q 2575 -91 1691 -91 
Q 1453 -91 1209 -44 
Q 966 3 703 97 
z
M 1959 2075 
Q 2384 2075 2632 2365 
Q 2881 2656 2881 3163 
Q 2881 3666 2632 3958 
Q 2384 4250 1959 4250 
Q 1534 4250 1286 3958 
Q 1038 3666 1038 3163 
Q 1038 2656 1286 2365 
Q 1534 2075 1959 2075 
z
" transform="scale(0.015625)"/>
       </defs>
       <use xlink:href="#DejaVuSans-30"/>
       <use xlink:href="#DejaVuSans-2e" x="63.623047"/>
       <use xlink:href="#DejaVuSans-39" x="95.410156"/>
      </g>
     </g>
    </g>
    <g id="text_17">
     <!-- loss value -->
     <g transform="translate(28.617187 199.432687) rotate(-90) scale(0.1 -0.1)">
      <defs>
       <path id="DejaVuSans-6c" d="M 603 4863 
L 1178 4863 
L 1178 0 
L 603 0 
L 603 4863 
z
" transform="scale(0.015625)"/>
       <path id="DejaVuSans-73" d="M 2834 3397 
L 2834 2853 
Q 2591 2978 2328 3040 
Q 2066 3103 1784 3103 
Q 1356 3103 1142 2972 
Q 928 2841 928 2578 
Q 928 2378 1081 2264 
Q 1234 2150 1697 2047 
L 1894 2003 
Q 2506 1872 2764 1633 
Q 3022 1394 3022 966 
Q 3022 478 2636 193 
Q 2250 -91 1575 -91 
Q 1294 -91 989 -36 
Q 684 19 347 128 
L 347 722 
Q 666 556 975 473 
Q 1284 391 1588 391 
Q 1994 391 2212 530 
Q 2431 669 2431 922 
Q 2431 1156 2273 1281 
Q 2116 1406 1581 1522 
L 1381 1569 
Q 847 1681 609 1914 
Q 372 2147 372 2553 
Q 372 3047 722 3315 
Q 1072 3584 1716 3584 
Q 2034 3584 2315 3537 
Q 2597 3491 2834 3397 
z
" transform="scale(0.015625)"/>
       <path id="DejaVuSans-20" transform="scale(0.015625)"/>
       <path id="DejaVuSans-76" d="M 191 3500 
L 800 3500 
L 1894 563 
L 2988 3500 
L 3597 3500 
L 2284 0 
L 1503 0 
L 191 3500 
z
" transform="scale(0.015625)"/>
       <path id="DejaVuSans-61" d="M 2194 1759 
Q 1497 1759 1228 1600 
Q 959 1441 959 1056 
Q 959 750 1161 570 
Q 1363 391 1709 391 
Q 2188 391 2477 730 
Q 2766 1069 2766 1631 
L 2766 1759 
L 2194 1759 
z
M 3341 1997 
L 3341 0 
L 2766 0 
L 2766 531 
Q 2569 213 2275 61 
Q 1981 -91 1556 -91 
Q 1019 -91 701 211 
Q 384 513 384 1019 
Q 384 1609 779 1909 
Q 1175 2209 1959 2209 
L 2766 2209 
L 2766 2266 
Q 2766 2663 2505 2880 
Q 2244 3097 1772 3097 
Q 1472 3097 1187 3025 
Q 903 2953 641 2809 
L 641 3341 
Q 956 3463 1253 3523 
Q 1550 3584 1831 3584 
Q 2591 3584 2966 3190 
Q 3341 2797 3341 1997 
z
" transform="scale(0.015625)"/>
       <path id="DejaVuSans-75" d="M 544 1381 
L 544 3500 
L 1119 3500 
L 1119 1403 
Q 1119 906 1312 657 
Q 1506 409 1894 409 
Q 2359 409 2629 706 
Q 2900 1003 2900 1516 
L 2900 3500 
L 3475 3500 
L 3475 0 
L 2900 0 
L 2900 538 
Q 2691 219 2414 64 
Q 2138 -91 1772 -91 
Q 1169 -91 856 284 
Q 544 659 544 1381 
z
M 1991 3584 
L 1991 3584 
z
" transform="scale(0.015625)"/>
      </defs>
      <use xlink:href="#DejaVuSans-6c"/>
      <use xlink:href="#DejaVuSans-6f" x="27.783203"/>
      <use xlink:href="#DejaVuSans-73" x="88.964844"/>
      <use xlink:href="#DejaVuSans-73" x="141.064453"/>
      <use xlink:href="#DejaVuSans-20" x="193.164062"/>
      <use xlink:href="#DejaVuSans-76" x="224.951172"/>
      <use xlink:href="#DejaVuSans-61" x="284.130859"/>
      <use xlink:href="#DejaVuSans-6c" x="345.410156"/>
      <use xlink:href="#DejaVuSans-75" x="373.193359"/>
      <use xlink:href="#DejaVuSans-65" x="436.572266"/>
     </g>
    </g>
   </g>
   <g id="line2d_16">
    <path d="M 73.832727 89.641542 
L 74.483338 134.457263 
L 75.133948 196.529835 
L 75.784558 244.864506 
L 76.435169 269.475201 
L 77.085779 280.361047 
L 77.736389 284.51844 
L 78.386999 285.095489 
L 79.03761 284.378332 
L 79.68822 283.831598 
L 80.33883 219.312607 
L 80.989441 248.374259 
L 81.640051 268.89207 
L 82.290661 278.052308 
L 82.941272 282.815187 
L 84.242492 283.267606 
L 84.893103 282.566562 
L 85.543713 282.306564 
L 86.194323 283.211914 
L 86.844934 224.997344 
L 87.495544 252.178384 
L 88.146154 271.4171 
L 88.796764 281.247731 
L 89.447375 286.173978 
L 90.097985 288.285987 
L 90.748595 289.195445 
L 91.399206 288.724575 
L 92.049816 289.27828 
L 92.700426 289.559538 
L 93.351037 221.06736 
L 94.001647 250.783564 
L 94.652257 272.089524 
L 95.302868 283.502488 
L 95.953478 286.113309 
L 96.604088 289.429583 
L 97.254698 290.7601 
L 97.905309 290.414791 
L 98.555919 290.386515 
L 99.206529 290.996021 
L 99.85714 226.659786 
L 100.50775 254.0723 
L 101.15836 273.767052 
L 101.808971 284.437897 
L 102.459581 288.714765 
L 103.110191 290.917287 
L 103.760802 292.257251 
L 104.411412 292.372218 
L 105.062022 292.733573 
L 105.712633 292.130898 
L 106.363243 224.300925 
L 107.013853 254.059481 
L 107.664463 274.553002 
L 108.315074 285.250284 
L 108.965684 290.013806 
L 109.616294 291.362433 
L 110.266905 292.402348 
L 110.917515 292.498169 
L 111.568125 293.108981 
L 112.218736 291.182995 
L 112.869346 227.27606 
L 113.519956 255.520753 
L 114.170567 275.924862 
L 114.821177 285.475378 
L 115.471787 291.38324 
L 116.122398 292.080593 
L 116.773008 292.42738 
L 117.423618 293.401523 
L 118.074228 293.046083 
L 118.724839 292.864893 
L 119.375449 226.291713 
L 120.026059 255.307691 
L 120.67667 275.432746 
L 121.32728 286.687465 
L 121.97789 290.992335 
L 122.628501 293.040009 
L 123.929721 294.315732 
L 124.580332 294.131117 
L 125.230942 294.403477 
L 125.881552 226.365533 
L 126.532163 256.199255 
L 127.182773 276.708806 
L 127.833383 287.023659 
L 128.483993 292.411794 
L 129.785214 294.451345 
L 130.435824 294.107147 
L 131.086435 295.488 
L 131.737045 293.304728 
L 132.387655 226.073753 
L 133.038266 255.354942 
L 133.688876 277.376221 
L 134.339486 287.722931 
L 134.990097 291.885048 
L 135.640707 293.633139 
L 136.291317 294.867899 
L 136.941927 295.374475 
L 137.592538 295.345182 
L 138.243148 295.195822 
L 138.893758 227.879462 
L 139.544369 256.527473 
L 140.194979 265.841803 
L 141.4962 279.524521 
L 142.14681 285.152404 
L 142.79742 287.75098 
L 143.448031 289.818907 
L 144.098641 290.745089 
L 144.749251 292.375675 
L 145.399862 226.184323 
L 146.701082 254.732798 
L 147.351692 267.143519 
L 148.002303 276.081587 
L 148.652913 283.305288 
L 149.303523 286.520368 
L 149.954134 289.078238 
L 151.255354 291.514185 
L 151.905965 224.158525 
L 152.556575 242.088639 
L 153.207185 256.276132 
L 153.857796 267.600068 
L 154.508406 276.544258 
L 155.809627 286.885504 
L 156.460237 288.504534 
L 157.110847 290.678555 
L 157.761457 291.242984 
L 158.412068 226.496069 
L 160.363899 267.489365 
L 161.014509 275.732026 
L 161.665119 281.189773 
L 162.96634 287.783782 
L 163.61695 289.602442 
L 164.267561 290.534847 
L 164.918171 226.639785 
L 166.219392 254.344419 
L 166.870002 265.049422 
L 167.520612 273.709934 
L 168.171222 279.607175 
L 168.821833 283.861674 
L 169.472443 287.125784 
L 170.123053 287.572832 
L 170.773664 289.847972 
L 171.424274 225.404509 
L 172.725495 253.12689 
L 173.376105 263.06518 
L 174.677326 278.303048 
L 175.327936 282.085494 
L 176.629156 288.182572 
L 177.279767 289.763085 
L 177.930377 226.662172 
L 178.580987 240.073927 
L 180.532818 270.734551 
L 181.183429 277.698864 
L 182.484649 284.869608 
L 183.13526 287.205827 
L 183.78587 287.899326 
L 184.43648 226.416736 
L 185.737701 249.972397 
L 187.038921 269.392088 
L 188.340142 279.76102 
L 188.990752 283.705421 
L 189.641363 285.45736 
L 190.291973 287.869775 
L 190.942583 225.974755 
L 192.243804 249.393643 
L 193.545025 267.144119 
L 194.195635 273.54217 
L 194.846245 278.499422 
L 195.496856 281.940452 
L 196.147466 284.725525 
L 196.798076 286.713221 
L 197.448686 225.800754 
L 198.749907 248.324981 
L 200.051128 265.257444 
L 200.701738 271.705152 
L 201.352348 276.432248 
L 202.002959 280.233767 
L 202.653569 282.99944 
L 203.304179 285.253469 
L 203.95479 225.965709 
L 204.6054 237.875427 
L 207.207841 270.113865 
L 208.509062 278.898998 
L 209.159672 280.875117 
L 209.810282 284.068216 
L 210.460893 226.13918 
L 212.412724 254.606569 
L 213.713944 268.549196 
L 215.015165 276.458618 
L 215.665775 278.593021 
L 216.316385 281.684394 
L 216.966996 226.717404 
L 218.918827 253.086672 
L 220.220047 265.681655 
L 220.870658 271.136813 
L 221.521268 274.624909 
L 222.171878 277.498449 
L 222.822489 281.702146 
L 223.473099 226.134692 
L 225.42493 250.912422 
L 226.72615 264.262456 
L 227.376761 269.391363 
L 228.027371 272.357814 
L 228.677981 276.375006 
L 229.328592 278.720854 
L 229.979202 226.392168 
L 231.931033 250.698216 
L 233.232254 262.631252 
L 233.882864 267.570053 
L 234.533474 271.290314 
L 235.184085 274.18166 
L 235.834695 277.789049 
L 236.485305 226.802823 
L 239.087746 255.060679 
L 241.039577 270.20254 
L 241.690188 272.091994 
L 242.340798 275.99767 
L 242.991408 226.313967 
L 245.59385 254.267189 
L 246.89507 262.492986 
L 247.54568 267.872765 
L 248.846901 273.821136 
L 249.497511 225.366212 
L 250.148122 233.424404 
L 251.449342 245.845743 
L 252.099953 252.59593 
L 253.401173 261.410172 
L 255.353004 272.423192 
L 256.003615 226.1945 
L 257.304835 238.750016 
L 257.955445 245.329086 
L 259.256666 255.818615 
L 261.208497 266.916945 
L 261.859107 269.360739 
L 262.509718 226.590234 
L 265.112159 249.477233 
L 265.762769 252.96922 
L 266.413379 257.100564 
L 267.06399 262.320867 
L 267.7146 265.802411 
L 268.36521 267.491092 
L 269.015821 226.364146 
L 270.317041 237.764406 
L 273.570093 259.852221 
L 274.871314 266.089977 
L 275.521924 226.744013 
L 276.172534 231.602351 
L 276.823144 237.732072 
L 278.124365 246.458271 
L 278.774975 251.048223 
L 280.726806 261.399601 
L 281.377417 263.510448 
L 282.028027 226.879531 
L 282.678637 230.904749 
L 283.329248 236.553953 
L 285.281079 248.727517 
L 286.582299 255.946126 
L 287.232909 258.533261 
L 287.88352 262.583922 
L 288.53413 225.669123 
L 289.835351 235.579713 
L 292.437792 251.364757 
L 294.389623 259.687488 
L 295.040233 225.882004 
L 296.341454 235.057287 
L 298.293285 246.59439 
L 298.943895 248.77403 
L 300.245116 255.659213 
L 300.895726 257.924316 
L 301.546336 226.213662 
L 302.196947 230.750926 
L 305.449998 248.302427 
L 306.100608 251.125894 
L 306.751219 252.803439 
L 307.401829 255.666696 
L 308.052439 227.036738 
L 308.70305 229.575148 
L 310.654881 240.963552 
L 311.956101 245.863845 
L 312.606712 249.545761 
L 313.257322 251.106105 
L 313.907932 254.45862 
L 314.558543 226.120292 
L 315.209153 229.391368 
L 315.859763 233.271437 
L 317.811594 241.98692 
L 318.462204 244.224628 
L 319.112815 248.024667 
L 319.763425 250.108286 
L 320.414035 251.642141 
L 321.064646 226.490892 
L 321.715256 229.726957 
L 322.365866 232.126986 
L 323.016477 235.439512 
L 324.317697 240.63784 
L 325.618918 246.172905 
L 326.269528 248.297577 
L 326.920138 250.000622 
L 327.570749 225.878532 
L 328.221359 228.116036 
L 328.871969 232.05723 
L 330.8238 239.502302 
L 331.474411 241.010613 
L 332.125021 245.380325 
L 332.775631 246.544733 
L 333.426242 249.083284 
L 334.076852 226.069238 
L 334.727462 228.643215 
L 335.378073 231.735802 
L 336.028683 233.732872 
L 336.679293 236.579776 
L 337.980514 240.560204 
L 338.631124 243.436014 
L 339.932345 247.609896 
L 340.582955 226.400004 
L 341.233565 228.406509 
L 341.884176 231.403005 
L 342.534786 233.711475 
L 343.185396 234.150894 
L 343.836007 237.692689 
L 345.137227 241.749065 
L 346.438448 245.193214 
L 347.089058 226.838681 
L 347.739668 228.942195 
L 348.390279 230.645833 
L 349.040889 233.004782 
L 349.691499 234.09742 
L 350.34211 236.777974 
L 351.64333 240.45231 
L 352.293941 242.087234 
L 352.944551 244.426306 
L 353.595161 226.161469 
L 354.245772 227.990474 
L 354.896382 230.74286 
L 356.197602 233.578545 
L 356.848213 236.193822 
L 358.149433 238.410689 
L 358.800044 242.216577 
L 359.450654 242.928491 
L 360.101264 225.996726 
L 360.751875 227.535206 
L 361.402485 230.343098 
L 362.053095 232.095545 
L 363.354316 234.530567 
L 364.004926 236.99233 
L 365.306147 239.938479 
L 365.956757 241.070695 
L 366.607367 226.692986 
L 367.257978 227.62703 
L 367.908588 229.732355 
L 368.559198 230.635956 
L 369.860419 234.914701 
L 370.511029 235.779236 
L 371.16164 238.087079 
L 371.81225 237.567833 
L 372.46286 239.684811 
L 373.113471 226.197548 
L 373.764081 228.323113 
L 374.414691 229.475391 
L 375.715912 232.744832 
L 376.366522 233.476358 
L 378.318353 237.184777 
L 378.968963 239.203764 
L 379.619574 225.858469 
L 380.920794 228.776366 
L 381.571405 231.089581 
L 382.222015 231.234879 
L 382.872625 232.571741 
L 383.523236 234.579597 
L 384.173846 235.47083 
L 384.824456 237.208294 
L 385.475066 237.931525 
L 386.125677 225.774888 
L 386.776287 227.590049 
L 387.426897 228.630388 
L 388.728118 231.067265 
L 389.378728 233.067612 
L 390.029339 233.389411 
L 390.679949 235.349155 
L 391.330559 235.74321 
L 391.98117 237.397419 
L 392.63178 226.674186 
L 393.933001 228.351568 
L 394.583611 229.846335 
L 395.234221 231.782774 
L 395.884831 232.617715 
L 396.535442 234.003829 
L 397.186052 234.036278 
L 397.836662 235.254071 
L 398.487273 235.265326 
L 398.487273 235.265326 
" clip-path="url(#pfcdf42edb6)" style="fill: none; stroke: #0000ff; stroke-width: 1.5; stroke-linecap: square"/>
   </g>
   <g id="line2d_17">
    <path d="M 73.832727 289.648283 
L 79.68822 289.625433 
L 80.33883 291.56235 
L 118.724839 291.550713 
L 125.881552 291.560024 
L 398.487273 291.546859 
L 398.487273 291.546859 
" clip-path="url(#pfcdf42edb6)" style="fill: none; stroke: #008000; stroke-width: 1.5; stroke-linecap: square"/>
   </g>
   <g id="line2d_18">
    <path d="M 73.832727 53.568 
L 74.483338 98.38298 
L 75.133948 160.45413 
L 75.784558 208.786689 
L 76.435169 233.394694 
L 77.085779 244.277466 
L 77.736389 248.431594 
L 78.386999 249.005356 
L 79.03761 248.284997 
L 79.68822 247.735202 
L 80.33883 185.153128 
L 80.989441 214.212845 
L 81.640051 234.728456 
L 82.290661 243.886211 
L 82.941272 248.646444 
L 84.242492 249.093488 
L 84.893103 248.389896 
L 85.543713 248.127507 
L 86.194323 249.030658 
L 86.844934 190.829887 
L 87.495544 218.010614 
L 88.146154 237.248702 
L 88.796764 247.078361 
L 89.447375 252.003372 
L 90.097985 254.113962 
L 90.748595 255.021927 
L 91.399206 254.549547 
L 92.049816 255.10179 
L 92.700426 255.381661 
L 93.351037 186.902262 
L 94.001647 216.618616 
L 94.652257 237.924316 
L 95.302868 249.336582 
L 95.953478 251.946351 
L 96.604088 255.261346 
L 97.254698 256.590461 
L 97.905309 256.243705 
L 98.555919 256.213996 
L 99.206529 256.822124 
L 99.85714 192.497383 
L 100.50775 219.910011 
L 101.15836 239.604463 
L 101.808971 250.274557 
L 102.459581 254.550325 
L 103.110191 256.751511 
L 103.760802 258.090017 
L 104.411412 258.203476 
L 105.062022 258.563338 
L 105.712633 257.959225 
L 106.363243 190.139908 
L 107.013853 219.898517 
L 107.664463 240.391671 
L 108.315074 251.08811 
L 108.965684 255.850432 
L 109.616294 257.197613 
L 110.266905 258.23596 
L 110.917515 258.330174 
L 111.568125 258.939384 
L 112.218736 257.011867 
L 112.869346 193.115423 
L 113.519956 221.360121 
L 114.170567 241.763801 
L 114.821177 251.31342 
L 115.471787 257.220035 
L 116.122398 257.915901 
L 116.773008 258.26108 
L 117.423618 259.233585 
L 118.074228 258.876528 
L 118.724839 258.693781 
L 119.375449 192.130705 
L 120.026059 221.146648 
L 120.67667 241.271234 
L 121.32728 252.525003 
L 121.97789 256.828564 
L 122.628501 258.87469 
L 123.929721 260.147027 
L 124.580332 259.960729 
L 125.230942 260.231465 
L 125.881552 192.20373 
L 126.532163 222.037386 
L 127.182773 242.546433 
L 127.833383 252.86031 
L 128.483993 258.247109 
L 129.785214 260.283411 
L 130.435824 259.937495 
L 131.086435 261.316647 
L 131.737045 259.131734 
L 132.387655 191.910925 
L 133.038266 221.192039 
L 133.688876 243.21278 
L 134.339486 253.558482 
L 134.990097 257.719223 
L 135.640707 259.465715 
L 136.291317 260.698739 
L 136.941927 261.203555 
L 137.592538 261.172533 
L 138.243148 261.021501 
L 138.893758 193.715406 
L 139.544369 222.363311 
L 140.194979 231.677487 
L 141.4962 245.359661 
L 142.14681 250.987151 
L 142.79742 253.585299 
L 143.448031 255.652769 
L 144.098641 256.578464 
L 144.749251 258.208556 
L 145.399862 192.019684 
L 146.701082 220.568035 
L 147.351692 232.978535 
L 148.002303 241.916263 
L 148.652913 249.139541 
L 149.303523 252.354112 
L 149.954134 254.911419 
L 151.255354 257.346238 
L 151.905965 189.993347 
L 152.556575 207.923434 
L 153.207185 222.110808 
L 153.857796 233.434501 
L 154.508406 242.378343 
L 155.809627 252.718643 
L 156.460237 254.337135 
L 157.110847 256.51059 
L 157.761457 257.07445 
L 158.412068 192.33029 
L 160.363899 233.323206 
L 161.014509 241.56555 
L 161.665119 247.022899 
L 162.96634 253.615949 
L 163.61695 255.43411 
L 164.267561 256.366008 
L 164.918171 192.473424 
L 166.219392 220.177912 
L 166.870002 230.882725 
L 167.520612 239.54294 
L 168.171222 245.439815 
L 168.821833 249.693912 
L 169.472443 252.957572 
L 170.123053 253.404151 
L 170.773664 255.678812 
L 171.424274 191.237564 
L 172.725495 218.959809 
L 173.376105 228.897909 
L 174.677326 244.135198 
L 175.327936 247.917277 
L 176.629156 254.013516 
L 177.279767 255.593605 
L 177.930377 192.49467 
L 178.580987 205.906382 
L 180.532818 236.566507 
L 181.183429 243.530524 
L 182.484649 250.700566 
L 183.13526 253.036396 
L 183.78587 253.729484 
L 184.43648 192.24867 
L 185.737701 215.804206 
L 187.038921 235.223531 
L 188.340142 245.591898 
L 188.990752 249.535963 
L 189.641363 251.287553 
L 190.291973 253.699615 
L 190.942583 191.80615 
L 192.243804 215.224922 
L 193.545025 232.975072 
L 194.195635 239.37288 
L 194.846245 244.329862 
L 195.496856 247.770592 
L 196.147466 250.555347 
L 196.798076 252.542712 
L 197.448686 191.631628 
L 198.749907 214.155748 
L 200.051128 231.08792 
L 200.701738 237.535411 
L 201.352348 242.262268 
L 202.002959 246.063509 
L 202.653569 248.8289 
L 203.304179 251.082632 
L 203.95479 191.796105 
L 204.6054 203.705788 
L 207.207841 235.943714 
L 208.509062 244.728387 
L 209.159672 246.704245 
L 209.810282 249.897066 
L 210.460893 191.969125 
L 212.412724 220.436315 
L 213.713944 234.378652 
L 215.015165 242.287658 
L 215.665775 244.421836 
L 216.316385 247.512966 
L 216.966996 192.546925 
L 218.918827 218.916026 
L 220.220047 231.51073 
L 220.870658 236.965721 
L 221.521268 240.453626 
L 222.171878 243.326963 
L 222.822489 247.53044 
L 223.473099 191.963816 
L 225.42493 216.741396 
L 226.72615 230.091196 
L 227.376761 235.219953 
L 228.027371 238.186236 
L 228.677981 242.203237 
L 229.328592 244.5489 
L 229.979202 192.220939 
L 231.931033 216.526845 
L 233.232254 228.459665 
L 233.882864 233.398333 
L 234.533474 237.118449 
L 235.184085 240.009622 
L 235.834695 243.616844 
L 236.485305 192.63124 
L 239.087746 220.888889 
L 241.039577 236.030396 
L 241.690188 237.919713 
L 242.340798 241.825234 
L 242.991408 192.142066 
L 245.59385 220.095099 
L 246.89507 228.320701 
L 247.54568 233.70037 
L 248.846901 239.648475 
L 249.497511 191.19402 
L 250.148122 199.252194 
L 251.449342 211.673445 
L 252.099953 218.423574 
L 253.401173 227.237648 
L 255.353004 238.250338 
L 256.003615 192.022034 
L 257.304835 204.577506 
L 257.955445 211.156531 
L 259.256666 221.645929 
L 261.208497 232.744002 
L 261.859107 235.18769 
L 262.509718 192.417511 
L 265.112159 215.304387 
L 265.762769 218.796312 
L 266.413379 222.927594 
L 267.06399 228.147813 
L 267.7146 231.629269 
L 268.36521 233.317862 
L 269.015821 192.191194 
L 270.317041 203.591418 
L 273.570093 225.678973 
L 274.871314 231.916579 
L 275.521924 192.570849 
L 276.172534 197.429178 
L 276.823144 203.558873 
L 278.124365 212.28501 
L 278.774975 216.874917 
L 280.726806 227.226119 
L 281.377417 229.336895 
L 282.028027 192.706173 
L 282.678637 196.731382 
L 283.329248 202.380569 
L 285.281079 214.554026 
L 286.582299 221.772542 
L 287.232909 224.35962 
L 287.88352 228.410219 
L 288.53413 191.495588 
L 289.835351 201.406152 
L 292.437792 217.191071 
L 294.389623 225.513648 
L 295.040233 191.708301 
L 296.341454 200.883557 
L 298.293285 212.420599 
L 298.943895 214.600203 
L 300.245116 221.485303 
L 300.895726 223.750352 
L 301.546336 192.039809 
L 302.196947 196.577064 
L 305.449998 214.128459 
L 306.100608 216.951891 
L 306.751219 218.629405 
L 307.401829 221.492627 
L 308.052439 192.862752 
L 308.70305 195.401154 
L 310.654881 206.789514 
L 311.956101 211.689762 
L 312.606712 215.371652 
L 313.257322 216.931961 
L 313.907932 220.284436 
L 314.558543 191.946183 
L 315.209153 195.21725 
L 315.859763 199.09731 
L 317.811594 207.812749 
L 318.462204 210.05043 
L 319.112815 213.850452 
L 319.763425 215.934044 
L 320.414035 217.467868 
L 321.064646 192.316668 
L 321.715256 195.552733 
L 322.365866 197.952753 
L 323.016477 201.265271 
L 324.317697 206.463563 
L 325.618918 211.998584 
L 326.269528 214.123238 
L 326.920138 215.826266 
L 327.570749 191.704211 
L 328.221359 193.941706 
L 328.871969 197.882891 
L 330.8238 205.327928 
L 331.474411 206.83623 
L 332.125021 211.205915 
L 332.775631 212.370314 
L 333.426242 214.908839 
L 334.076852 191.89482 
L 334.727462 194.468797 
L 335.378073 197.561375 
L 336.028683 199.558435 
L 336.679293 202.405331 
L 337.980514 206.385732 
L 338.631124 209.261525 
L 339.932345 213.435371 
L 340.582955 192.225497 
L 341.233565 194.232002 
L 341.884176 197.228498 
L 342.534786 199.536959 
L 343.185396 199.97637 
L 343.836007 203.518155 
L 345.137227 207.574505 
L 346.438448 211.018628 
L 347.089058 192.664104 
L 347.739668 194.767618 
L 348.390279 196.471255 
L 349.040889 198.830196 
L 349.691499 199.922825 
L 350.34211 202.60337 
L 351.64333 206.27768 
L 352.293941 207.912595 
L 352.944551 210.251649 
L 353.595161 191.986829 
L 354.245772 193.815826 
L 354.896382 196.568212 
L 356.197602 199.403879 
L 356.848213 202.019148 
L 358.149433 204.235997 
L 358.800044 208.041876 
L 359.450654 208.753781 
L 360.101264 191.822016 
L 360.751875 193.360496 
L 361.402485 196.168388 
L 362.053095 197.920835 
L 363.354316 200.355839 
L 364.004926 202.817602 
L 365.306147 205.763725 
L 365.956757 206.895932 
L 366.607367 192.518223 
L 367.257978 193.452267 
L 367.908588 195.557592 
L 368.559198 196.461184 
L 369.860419 200.73992 
L 370.511029 201.604447 
L 371.16164 203.912281 
L 371.81225 203.393035 
L 372.46286 205.510004 
L 373.113471 192.022732 
L 373.764081 194.148288 
L 374.414691 195.300575 
L 375.715912 198.570007 
L 376.366522 199.301525 
L 378.318353 203.009926 
L 378.968963 205.028913 
L 379.619574 191.683618 
L 380.920794 194.601506 
L 381.571405 196.914712 
L 382.222015 197.06001 
L 382.872625 198.396872 
L 383.523236 200.404719 
L 384.173846 201.295943 
L 384.824456 203.033407 
L 385.475066 203.756629 
L 386.125677 191.599992 
L 386.776287 193.415145 
L 387.426897 194.455484 
L 388.728118 196.892352 
L 389.378728 198.892699 
L 390.029339 199.214498 
L 390.679949 201.174233 
L 391.330559 201.568288 
L 391.98117 203.222488 
L 392.63178 192.499255 
L 393.933001 194.176628 
L 394.583611 195.671387 
L 395.234221 197.607826 
L 395.884831 198.442767 
L 396.535442 199.828881 
L 397.186052 199.86132 
L 397.836662 201.079114 
L 398.487273 201.09036 
L 398.487273 201.09036 
" clip-path="url(#pfcdf42edb6)" style="fill: none; stroke: #ff0000; stroke-width: 1.5; stroke-linecap: square"/>
   </g>
   <g id="patch_3">
    <path d="M 57.6 307.584 
L 57.6 41.472 
" style="fill: none; stroke: #000000; stroke-width: 0.8; stroke-linejoin: miter; stroke-linecap: square"/>
   </g>
   <g id="patch_4">
    <path d="M 414.72 307.584 
L 414.72 41.472 
" style="fill: none; stroke: #000000; stroke-width: 0.8; stroke-linejoin: miter; stroke-linecap: square"/>
   </g>
   <g id="patch_5">
    <path d="M 57.6 307.584 
L 414.72 307.584 
" style="fill: none; stroke: #000000; stroke-width: 0.8; stroke-linejoin: miter; stroke-linecap: square"/>
   </g>
   <g id="patch_6">
    <path d="M 57.6 41.472 
L 414.72 41.472 
" style="fill: none; stroke: #000000; stroke-width: 0.8; stroke-linejoin: miter; stroke-linecap: square"/>
   </g>
   <g id="text_18">
    <!-- The loss curve on λ_0.00025_non_iid/host/9 -->
    <g transform="translate(104.905313 35.472) scale(0.12 -0.12)">
     <defs>
      <path id="DejaVuSans-54" d="M -19 4666 
L 3928 4666 
L 3928 4134 
L 2272 4134 
L 2272 0 
L 1638 0 
L 1638 4134 
L -19 4134 
L -19 4666 
z
" transform="scale(0.015625)"/>
      <path id="DejaVuSans-72" d="M 2631 2963 
Q 2534 3019 2420 3045 
Q 2306 3072 2169 3072 
Q 1681 3072 1420 2755 
Q 1159 2438 1159 1844 
L 1159 0 
L 581 0 
L 581 3500 
L 1159 3500 
L 1159 2956 
Q 1341 3275 1631 3429 
Q 1922 3584 2338 3584 
Q 2397 3584 2469 3576 
Q 2541 3569 2628 3553 
L 2631 2963 
z
" transform="scale(0.015625)"/>
      <path id="DejaVuSans-6e" d="M 3513 2113 
L 3513 0 
L 2938 0 
L 2938 2094 
Q 2938 2591 2744 2837 
Q 2550 3084 2163 3084 
Q 1697 3084 1428 2787 
Q 1159 2491 1159 1978 
L 1159 0 
L 581 0 
L 581 3500 
L 1159 3500 
L 1159 2956 
Q 1366 3272 1645 3428 
Q 1925 3584 2291 3584 
Q 2894 3584 3203 3211 
Q 3513 2838 3513 2113 
z
" transform="scale(0.015625)"/>
      <path id="DejaVuSans-3bb" d="M 1981 4316 
L 3597 0 
L 2988 0 
L 2006 2588 
L 800 0 
L 191 0 
L 1725 3356 
L 1494 3975 
Q 1347 4369 1013 4369 
L 713 4369 
L 713 4863 
L 1078 4856 
Q 1784 4847 1981 4316 
z
" transform="scale(0.015625)"/>
      <path id="DejaVuSans-5f" d="M 3263 -1063 
L 3263 -1509 
L -63 -1509 
L -63 -1063 
L 3263 -1063 
z
" transform="scale(0.015625)"/>
      <path id="DejaVuSans-69" d="M 603 3500 
L 1178 3500 
L 1178 0 
L 603 0 
L 603 3500 
z
M 603 4863 
L 1178 4863 
L 1178 4134 
L 603 4134 
L 603 4863 
z
" transform="scale(0.015625)"/>
      <path id="DejaVuSans-64" d="M 2906 2969 
L 2906 4863 
L 3481 4863 
L 3481 0 
L 2906 0 
L 2906 525 
Q 2725 213 2448 61 
Q 2172 -91 1784 -91 
Q 1150 -91 751 415 
Q 353 922 353 1747 
Q 353 2572 751 3078 
Q 1150 3584 1784 3584 
Q 2172 3584 2448 3432 
Q 2725 3281 2906 2969 
z
M 947 1747 
Q 947 1113 1208 752 
Q 1469 391 1925 391 
Q 2381 391 2643 752 
Q 2906 1113 2906 1747 
Q 2906 2381 2643 2742 
Q 2381 3103 1925 3103 
Q 1469 3103 1208 2742 
Q 947 2381 947 1747 
z
" transform="scale(0.015625)"/>
      <path id="DejaVuSans-2f" d="M 1625 4666 
L 2156 4666 
L 531 -594 
L 0 -594 
L 1625 4666 
z
" transform="scale(0.015625)"/>
      <path id="DejaVuSans-74" d="M 1172 4494 
L 1172 3500 
L 2356 3500 
L 2356 3053 
L 1172 3053 
L 1172 1153 
Q 1172 725 1289 603 
Q 1406 481 1766 481 
L 2356 481 
L 2356 0 
L 1766 0 
Q 1100 0 847 248 
Q 594 497 594 1153 
L 594 3053 
L 172 3053 
L 172 3500 
L 594 3500 
L 594 4494 
L 1172 4494 
z
" transform="scale(0.015625)"/>
     </defs>
     <use xlink:href="#DejaVuSans-54"/>
     <use xlink:href="#DejaVuSans-68" x="61.083984"/>
     <use xlink:href="#DejaVuSans-65" x="124.462891"/>
     <use xlink:href="#DejaVuSans-20" x="185.986328"/>
     <use xlink:href="#DejaVuSans-6c" x="217.773438"/>
     <use xlink:href="#DejaVuSans-6f" x="245.556641"/>
     <use xlink:href="#DejaVuSans-73" x="306.738281"/>
     <use xlink:href="#DejaVuSans-73" x="358.837891"/>
     <use xlink:href="#DejaVuSans-20" x="410.9375"/>
     <use xlink:href="#DejaVuSans-63" x="442.724609"/>
     <use xlink:href="#DejaVuSans-75" x="497.705078"/>
     <use xlink:href="#DejaVuSans-72" x="561.083984"/>
     <use xlink:href="#DejaVuSans-76" x="602.197266"/>
     <use xlink:href="#DejaVuSans-65" x="661.376953"/>
     <use xlink:href="#DejaVuSans-20" x="722.900391"/>
     <use xlink:href="#DejaVuSans-6f" x="754.6875"/>
     <use xlink:href="#DejaVuSans-6e" x="815.869141"/>
     <use xlink:href="#DejaVuSans-20" x="879.248047"/>
     <use xlink:href="#DejaVuSans-3bb" x="911.035156"/>
     <use xlink:href="#DejaVuSans-5f" x="970.214844"/>
     <use xlink:href="#DejaVuSans-30" x="1020.214844"/>
     <use xlink:href="#DejaVuSans-2e" x="1083.837891"/>
     <use xlink:href="#DejaVuSans-30" x="1115.625"/>
     <use xlink:href="#DejaVuSans-30" x="1179.248047"/>
     <use xlink:href="#DejaVuSans-30" x="1242.871094"/>
     <use xlink:href="#DejaVuSans-32" x="1306.494141"/>
     <use xlink:href="#DejaVuSans-35" x="1370.117188"/>
     <use xlink:href="#DejaVuSans-5f" x="1433.740234"/>
     <use xlink:href="#DejaVuSans-6e" x="1483.740234"/>
     <use xlink:href="#DejaVuSans-6f" x="1547.119141"/>
     <use xlink:href="#DejaVuSans-6e" x="1608.300781"/>
     <use xlink:href="#DejaVuSans-5f" x="1671.679688"/>
     <use xlink:href="#DejaVuSans-69" x="1721.679688"/>
     <use xlink:href="#DejaVuSans-69" x="1749.462891"/>
     <use xlink:href="#DejaVuSans-64" x="1777.246094"/>
     <use xlink:href="#DejaVuSans-2f" x="1840.722656"/>
     <use xlink:href="#DejaVuSans-68" x="1874.414062"/>
     <use xlink:href="#DejaVuSans-6f" x="1937.792969"/>
     <use xlink:href="#DejaVuSans-73" x="1998.974609"/>
     <use xlink:href="#DejaVuSans-74" x="2051.074219"/>
     <use xlink:href="#DejaVuSans-2f" x="2090.283203"/>
     <use xlink:href="#DejaVuSans-39" x="2123.974609"/>
    </g>
   </g>
   <g id="legend_1">
    <g id="patch_7">
     <path d="M 317.418438 94.34075 
L 407.72 94.34075 
Q 409.72 94.34075 409.72 92.34075 
L 409.72 48.472 
Q 409.72 46.472 407.72 46.472 
L 317.418438 46.472 
Q 315.418438 46.472 315.418438 48.472 
L 315.418438 92.34075 
Q 315.418438 94.34075 317.418438 94.34075 
z
" style="fill: #ffffff; opacity: 0.8; stroke: #cccccc; stroke-linejoin: miter"/>
    </g>
    <g id="line2d_19">
     <path d="M 319.418438 54.570438 
L 329.418438 54.570438 
L 339.418438 54.570438 
" style="fill: none; stroke: #0000ff; stroke-width: 1.5; stroke-linecap: square"/>
    </g>
    <g id="text_19">
     <!-- obj_loss -->
     <g transform="translate(347.418438 58.070438) scale(0.1 -0.1)">
      <defs>
       <path id="DejaVuSans-62" d="M 3116 1747 
Q 3116 2381 2855 2742 
Q 2594 3103 2138 3103 
Q 1681 3103 1420 2742 
Q 1159 2381 1159 1747 
Q 1159 1113 1420 752 
Q 1681 391 2138 391 
Q 2594 391 2855 752 
Q 3116 1113 3116 1747 
z
M 1159 2969 
Q 1341 3281 1617 3432 
Q 1894 3584 2278 3584 
Q 2916 3584 3314 3078 
Q 3713 2572 3713 1747 
Q 3713 922 3314 415 
Q 2916 -91 2278 -91 
Q 1894 -91 1617 61 
Q 1341 213 1159 525 
L 1159 0 
L 581 0 
L 581 4863 
L 1159 4863 
L 1159 2969 
z
" transform="scale(0.015625)"/>
       <path id="DejaVuSans-6a" d="M 603 3500 
L 1178 3500 
L 1178 -63 
Q 1178 -731 923 -1031 
Q 669 -1331 103 -1331 
L -116 -1331 
L -116 -844 
L 38 -844 
Q 366 -844 484 -692 
Q 603 -541 603 -63 
L 603 3500 
z
M 603 4863 
L 1178 4863 
L 1178 4134 
L 603 4134 
L 603 4863 
z
" transform="scale(0.015625)"/>
      </defs>
      <use xlink:href="#DejaVuSans-6f"/>
      <use xlink:href="#DejaVuSans-62" x="61.181641"/>
      <use xlink:href="#DejaVuSans-6a" x="124.658203"/>
      <use xlink:href="#DejaVuSans-5f" x="152.441406"/>
      <use xlink:href="#DejaVuSans-6c" x="202.441406"/>
      <use xlink:href="#DejaVuSans-6f" x="230.224609"/>
      <use xlink:href="#DejaVuSans-73" x="291.40625"/>
      <use xlink:href="#DejaVuSans-73" x="343.505859"/>
     </g>
    </g>
    <g id="line2d_20">
     <path d="M 319.418438 69.526688 
L 329.418438 69.526688 
L 339.418438 69.526688 
" style="fill: none; stroke: #008000; stroke-width: 1.5; stroke-linecap: square"/>
    </g>
    <g id="text_20">
     <!-- reg_loss -->
     <g transform="translate(347.418438 73.026688) scale(0.1 -0.1)">
      <defs>
       <path id="DejaVuSans-67" d="M 2906 1791 
Q 2906 2416 2648 2759 
Q 2391 3103 1925 3103 
Q 1463 3103 1205 2759 
Q 947 2416 947 1791 
Q 947 1169 1205 825 
Q 1463 481 1925 481 
Q 2391 481 2648 825 
Q 2906 1169 2906 1791 
z
M 3481 434 
Q 3481 -459 3084 -895 
Q 2688 -1331 1869 -1331 
Q 1566 -1331 1297 -1286 
Q 1028 -1241 775 -1147 
L 775 -588 
Q 1028 -725 1275 -790 
Q 1522 -856 1778 -856 
Q 2344 -856 2625 -561 
Q 2906 -266 2906 331 
L 2906 616 
Q 2728 306 2450 153 
Q 2172 0 1784 0 
Q 1141 0 747 490 
Q 353 981 353 1791 
Q 353 2603 747 3093 
Q 1141 3584 1784 3584 
Q 2172 3584 2450 3431 
Q 2728 3278 2906 2969 
L 2906 3500 
L 3481 3500 
L 3481 434 
z
" transform="scale(0.015625)"/>
      </defs>
      <use xlink:href="#DejaVuSans-72"/>
      <use xlink:href="#DejaVuSans-65" x="38.863281"/>
      <use xlink:href="#DejaVuSans-67" x="100.386719"/>
      <use xlink:href="#DejaVuSans-5f" x="163.863281"/>
      <use xlink:href="#DejaVuSans-6c" x="213.863281"/>
      <use xlink:href="#DejaVuSans-6f" x="241.646484"/>
      <use xlink:href="#DejaVuSans-73" x="302.828125"/>
      <use xlink:href="#DejaVuSans-73" x="354.927734"/>
     </g>
    </g>
    <g id="line2d_21">
     <path d="M 319.418438 84.482938 
L 329.418438 84.482938 
L 339.418438 84.482938 
" style="fill: none; stroke: #ff0000; stroke-width: 1.5; stroke-linecap: square"/>
    </g>
    <g id="text_21">
     <!-- overall_loss -->
     <g transform="translate(347.418438 87.982938) scale(0.1 -0.1)">
      <use xlink:href="#DejaVuSans-6f"/>
      <use xlink:href="#DejaVuSans-76" x="61.181641"/>
      <use xlink:href="#DejaVuSans-65" x="120.361328"/>
      <use xlink:href="#DejaVuSans-72" x="181.884766"/>
      <use xlink:href="#DejaVuSans-61" x="222.998047"/>
      <use xlink:href="#DejaVuSans-6c" x="284.277344"/>
      <use xlink:href="#DejaVuSans-6c" x="312.060547"/>
      <use xlink:href="#DejaVuSans-5f" x="339.84375"/>
      <use xlink:href="#DejaVuSans-6c" x="389.84375"/>
      <use xlink:href="#DejaVuSans-6f" x="417.626953"/>
      <use xlink:href="#DejaVuSans-73" x="478.808594"/>
      <use xlink:href="#DejaVuSans-73" x="530.908203"/>
     </g>
    </g>
   </g>
  </g>
 </g>
 <defs>
  <clipPath id="pfcdf42edb6">
   <rect x="57.6" y="41.472" width="357.12" height="266.112"/>
  </clipPath>
 </defs>
</svg>
