<?xml version="1.0" encoding="utf-8" standalone="no"?>
<!DOCTYPE svg PUBLIC "-//W3C//DTD SVG 1.1//EN"
  "http://www.w3.org/Graphics/SVG/1.1/DTD/svg11.dtd">
<svg xmlns:xlink="http://www.w3.org/1999/xlink" width="576pt" height="432pt" viewBox="0 0 576 432" xmlns="http://www.w3.org/2000/svg" version="1.1">
 <metadata>
  <rdf:RDF xmlns:dc="http://purl.org/dc/elements/1.1/" xmlns:cc="http://creativecommons.org/ns#" xmlns:rdf="http://www.w3.org/1999/02/22-rdf-syntax-ns#">
   <cc:Work>
    <dc:type rdf:resource="http://purl.org/dc/dcmitype/StillImage"/>
    <dc:date>2023-04-13T09:22:58.169517</dc:date>
    <dc:format>image/svg+xml</dc:format>
    <dc:creator>
     <cc:Agent>
      <dc:title>Matplotlib v3.7.1, https://matplotlib.org/</dc:title>
     </cc:Agent>
    </dc:creator>
   </cc:Work>
  </rdf:RDF>
 </metadata>
 <defs>
  <style type="text/css">*{stroke-linejoin: round; stroke-linecap: butt}</style>
 </defs>
 <g id="figure_1">
  <g id="patch_1">
   <path d="M 0 432 
L 576 432 
L 576 0 
L 0 0 
z
" style="fill: #ffffff"/>
  </g>
  <g id="axes_1">
   <g id="patch_2">
    <path d="M 72 384.48 
L 518.4 384.48 
L 518.4 51.84 
L 72 51.84 
z
" style="fill: #ffffff"/>
   </g>
   <g id="matplotlib.axis_1">
    <g id="xtick_1">
     <g id="line2d_1">
      <defs>
       <path id="m9a336ca0e8" d="M 0 0 
L 0 3.5 
" style="stroke: #000000; stroke-width: 0.8"/>
      </defs>
      <g>
       <use xlink:href="#m9a336ca0e8" x="92.290909" y="384.48" style="stroke: #000000; stroke-width: 0.8"/>
      </g>
     </g>
     <g id="text_1">
      <!-- 0 -->
      <g transform="translate(89.109659 399.078438) scale(0.1 -0.1)">
       <defs>
        <path id="DejaVuSans-30" d="M 2034 4250 
Q 1547 4250 1301 3770 
Q 1056 3291 1056 2328 
Q 1056 1369 1301 889 
Q 1547 409 2034 409 
Q 2525 409 2770 889 
Q 3016 1369 3016 2328 
Q 3016 3291 2770 3770 
Q 2525 4250 2034 4250 
z
M 2034 4750 
Q 2819 4750 3233 4129 
Q 3647 3509 3647 2328 
Q 3647 1150 3233 529 
Q 2819 -91 2034 -91 
Q 1250 -91 836 529 
Q 422 1150 422 2328 
Q 422 3509 836 4129 
Q 1250 4750 2034 4750 
z
" transform="scale(0.015625)"/>
       </defs>
       <use xlink:href="#DejaVuSans-30"/>
      </g>
     </g>
    </g>
    <g id="xtick_2">
     <g id="line2d_2">
      <g>
       <use xlink:href="#m9a336ca0e8" x="173.617198" y="384.48" style="stroke: #000000; stroke-width: 0.8"/>
      </g>
     </g>
     <g id="text_2">
      <!-- 100 -->
      <g transform="translate(164.073448 399.078438) scale(0.1 -0.1)">
       <defs>
        <path id="DejaVuSans-31" d="M 794 531 
L 1825 531 
L 1825 4091 
L 703 3866 
L 703 4441 
L 1819 4666 
L 2450 4666 
L 2450 531 
L 3481 531 
L 3481 0 
L 794 0 
L 794 531 
z
" transform="scale(0.015625)"/>
       </defs>
       <use xlink:href="#DejaVuSans-31"/>
       <use xlink:href="#DejaVuSans-30" x="63.623047"/>
       <use xlink:href="#DejaVuSans-30" x="127.246094"/>
      </g>
     </g>
    </g>
    <g id="xtick_3">
     <g id="line2d_3">
      <g>
       <use xlink:href="#m9a336ca0e8" x="254.943487" y="384.48" style="stroke: #000000; stroke-width: 0.8"/>
      </g>
     </g>
     <g id="text_3">
      <!-- 200 -->
      <g transform="translate(245.399737 399.078438) scale(0.1 -0.1)">
       <defs>
        <path id="DejaVuSans-32" d="M 1228 531 
L 3431 531 
L 3431 0 
L 469 0 
L 469 531 
Q 828 903 1448 1529 
Q 2069 2156 2228 2338 
Q 2531 2678 2651 2914 
Q 2772 3150 2772 3378 
Q 2772 3750 2511 3984 
Q 2250 4219 1831 4219 
Q 1534 4219 1204 4116 
Q 875 4013 500 3803 
L 500 4441 
Q 881 4594 1212 4672 
Q 1544 4750 1819 4750 
Q 2544 4750 2975 4387 
Q 3406 4025 3406 3419 
Q 3406 3131 3298 2873 
Q 3191 2616 2906 2266 
Q 2828 2175 2409 1742 
Q 1991 1309 1228 531 
z
" transform="scale(0.015625)"/>
       </defs>
       <use xlink:href="#DejaVuSans-32"/>
       <use xlink:href="#DejaVuSans-30" x="63.623047"/>
       <use xlink:href="#DejaVuSans-30" x="127.246094"/>
      </g>
     </g>
    </g>
    <g id="xtick_4">
     <g id="line2d_4">
      <g>
       <use xlink:href="#m9a336ca0e8" x="336.269776" y="384.48" style="stroke: #000000; stroke-width: 0.8"/>
      </g>
     </g>
     <g id="text_4">
      <!-- 300 -->
      <g transform="translate(326.726026 399.078438) scale(0.1 -0.1)">
       <defs>
        <path id="DejaVuSans-33" d="M 2597 2516 
Q 3050 2419 3304 2112 
Q 3559 1806 3559 1356 
Q 3559 666 3084 287 
Q 2609 -91 1734 -91 
Q 1441 -91 1130 -33 
Q 819 25 488 141 
L 488 750 
Q 750 597 1062 519 
Q 1375 441 1716 441 
Q 2309 441 2620 675 
Q 2931 909 2931 1356 
Q 2931 1769 2642 2001 
Q 2353 2234 1838 2234 
L 1294 2234 
L 1294 2753 
L 1863 2753 
Q 2328 2753 2575 2939 
Q 2822 3125 2822 3475 
Q 2822 3834 2567 4026 
Q 2313 4219 1838 4219 
Q 1578 4219 1281 4162 
Q 984 4106 628 3988 
L 628 4550 
Q 988 4650 1302 4700 
Q 1616 4750 1894 4750 
Q 2613 4750 3031 4423 
Q 3450 4097 3450 3541 
Q 3450 3153 3228 2886 
Q 3006 2619 2597 2516 
z
" transform="scale(0.015625)"/>
       </defs>
       <use xlink:href="#DejaVuSans-33"/>
       <use xlink:href="#DejaVuSans-30" x="63.623047"/>
       <use xlink:href="#DejaVuSans-30" x="127.246094"/>
      </g>
     </g>
    </g>
    <g id="xtick_5">
     <g id="line2d_5">
      <g>
       <use xlink:href="#m9a336ca0e8" x="417.596065" y="384.48" style="stroke: #000000; stroke-width: 0.8"/>
      </g>
     </g>
     <g id="text_5">
      <!-- 400 -->
      <g transform="translate(408.052315 399.078438) scale(0.1 -0.1)">
       <defs>
        <path id="DejaVuSans-34" d="M 2419 4116 
L 825 1625 
L 2419 1625 
L 2419 4116 
z
M 2253 4666 
L 3047 4666 
L 3047 1625 
L 3713 1625 
L 3713 1100 
L 3047 1100 
L 3047 0 
L 2419 0 
L 2419 1100 
L 313 1100 
L 313 1709 
L 2253 4666 
z
" transform="scale(0.015625)"/>
       </defs>
       <use xlink:href="#DejaVuSans-34"/>
       <use xlink:href="#DejaVuSans-30" x="63.623047"/>
       <use xlink:href="#DejaVuSans-30" x="127.246094"/>
      </g>
     </g>
    </g>
    <g id="xtick_6">
     <g id="line2d_6">
      <g>
       <use xlink:href="#m9a336ca0e8" x="498.922354" y="384.48" style="stroke: #000000; stroke-width: 0.8"/>
      </g>
     </g>
     <g id="text_6">
      <!-- 500 -->
      <g transform="translate(489.378604 399.078438) scale(0.1 -0.1)">
       <defs>
        <path id="DejaVuSans-35" d="M 691 4666 
L 3169 4666 
L 3169 4134 
L 1269 4134 
L 1269 2991 
Q 1406 3038 1543 3061 
Q 1681 3084 1819 3084 
Q 2600 3084 3056 2656 
Q 3513 2228 3513 1497 
Q 3513 744 3044 326 
Q 2575 -91 1722 -91 
Q 1428 -91 1123 -41 
Q 819 9 494 109 
L 494 744 
Q 775 591 1075 516 
Q 1375 441 1709 441 
Q 2250 441 2565 725 
Q 2881 1009 2881 1497 
Q 2881 1984 2565 2268 
Q 2250 2553 1709 2553 
Q 1456 2553 1204 2497 
Q 953 2441 691 2322 
L 691 4666 
z
" transform="scale(0.015625)"/>
       </defs>
       <use xlink:href="#DejaVuSans-35"/>
       <use xlink:href="#DejaVuSans-30" x="63.623047"/>
       <use xlink:href="#DejaVuSans-30" x="127.246094"/>
      </g>
     </g>
    </g>
    <g id="text_7">
     <!-- epoch -->
     <g transform="translate(279.971875 412.756563) scale(0.1 -0.1)">
      <defs>
       <path id="DejaVuSans-65" d="M 3597 1894 
L 3597 1613 
L 953 1613 
Q 991 1019 1311 708 
Q 1631 397 2203 397 
Q 2534 397 2845 478 
Q 3156 559 3463 722 
L 3463 178 
Q 3153 47 2828 -22 
Q 2503 -91 2169 -91 
Q 1331 -91 842 396 
Q 353 884 353 1716 
Q 353 2575 817 3079 
Q 1281 3584 2069 3584 
Q 2775 3584 3186 3129 
Q 3597 2675 3597 1894 
z
M 3022 2063 
Q 3016 2534 2758 2815 
Q 2500 3097 2075 3097 
Q 1594 3097 1305 2825 
Q 1016 2553 972 2059 
L 3022 2063 
z
" transform="scale(0.015625)"/>
       <path id="DejaVuSans-70" d="M 1159 525 
L 1159 -1331 
L 581 -1331 
L 581 3500 
L 1159 3500 
L 1159 2969 
Q 1341 3281 1617 3432 
Q 1894 3584 2278 3584 
Q 2916 3584 3314 3078 
Q 3713 2572 3713 1747 
Q 3713 922 3314 415 
Q 2916 -91 2278 -91 
Q 1894 -91 1617 61 
Q 1341 213 1159 525 
z
M 3116 1747 
Q 3116 2381 2855 2742 
Q 2594 3103 2138 3103 
Q 1681 3103 1420 2742 
Q 1159 2381 1159 1747 
Q 1159 1113 1420 752 
Q 1681 391 2138 391 
Q 2594 391 2855 752 
Q 3116 1113 3116 1747 
z
" transform="scale(0.015625)"/>
       <path id="DejaVuSans-6f" d="M 1959 3097 
Q 1497 3097 1228 2736 
Q 959 2375 959 1747 
Q 959 1119 1226 758 
Q 1494 397 1959 397 
Q 2419 397 2687 759 
Q 2956 1122 2956 1747 
Q 2956 2369 2687 2733 
Q 2419 3097 1959 3097 
z
M 1959 3584 
Q 2709 3584 3137 3096 
Q 3566 2609 3566 1747 
Q 3566 888 3137 398 
Q 2709 -91 1959 -91 
Q 1206 -91 779 398 
Q 353 888 353 1747 
Q 353 2609 779 3096 
Q 1206 3584 1959 3584 
z
" transform="scale(0.015625)"/>
       <path id="DejaVuSans-63" d="M 3122 3366 
L 3122 2828 
Q 2878 2963 2633 3030 
Q 2388 3097 2138 3097 
Q 1578 3097 1268 2742 
Q 959 2388 959 1747 
Q 959 1106 1268 751 
Q 1578 397 2138 397 
Q 2388 397 2633 464 
Q 2878 531 3122 666 
L 3122 134 
Q 2881 22 2623 -34 
Q 2366 -91 2075 -91 
Q 1284 -91 818 406 
Q 353 903 353 1747 
Q 353 2603 823 3093 
Q 1294 3584 2113 3584 
Q 2378 3584 2631 3529 
Q 2884 3475 3122 3366 
z
" transform="scale(0.015625)"/>
       <path id="DejaVuSans-68" d="M 3513 2113 
L 3513 0 
L 2938 0 
L 2938 2094 
Q 2938 2591 2744 2837 
Q 2550 3084 2163 3084 
Q 1697 3084 1428 2787 
Q 1159 2491 1159 1978 
L 1159 0 
L 581 0 
L 581 4863 
L 1159 4863 
L 1159 2956 
Q 1366 3272 1645 3428 
Q 1925 3584 2291 3584 
Q 2894 3584 3203 3211 
Q 3513 2838 3513 2113 
z
" transform="scale(0.015625)"/>
      </defs>
      <use xlink:href="#DejaVuSans-65"/>
      <use xlink:href="#DejaVuSans-70" x="61.523438"/>
      <use xlink:href="#DejaVuSans-6f" x="125"/>
      <use xlink:href="#DejaVuSans-63" x="186.181641"/>
      <use xlink:href="#DejaVuSans-68" x="241.162109"/>
     </g>
    </g>
   </g>
   <g id="matplotlib.axis_2">
    <g id="ytick_1">
     <g id="line2d_7">
      <defs>
       <path id="mb1784a88a3" d="M 0 0 
L -3.5 0 
" style="stroke: #000000; stroke-width: 0.8"/>
      </defs>
      <g>
       <use xlink:href="#mb1784a88a3" x="72" y="384.48" style="stroke: #000000; stroke-width: 0.8"/>
      </g>
     </g>
     <g id="text_8">
      <!-- 0.0 -->
      <g transform="translate(49.096875 388.279219) scale(0.1 -0.1)">
       <defs>
        <path id="DejaVuSans-2e" d="M 684 794 
L 1344 794 
L 1344 0 
L 684 0 
L 684 794 
z
" transform="scale(0.015625)"/>
       </defs>
       <use xlink:href="#DejaVuSans-30"/>
       <use xlink:href="#DejaVuSans-2e" x="63.623047"/>
       <use xlink:href="#DejaVuSans-30" x="95.410156"/>
      </g>
     </g>
    </g>
    <g id="ytick_2">
     <g id="line2d_8">
      <g>
       <use xlink:href="#mb1784a88a3" x="72" y="317.952" style="stroke: #000000; stroke-width: 0.8"/>
      </g>
     </g>
     <g id="text_9">
      <!-- 0.2 -->
      <g transform="translate(49.096875 321.751219) scale(0.1 -0.1)">
       <use xlink:href="#DejaVuSans-30"/>
       <use xlink:href="#DejaVuSans-2e" x="63.623047"/>
       <use xlink:href="#DejaVuSans-32" x="95.410156"/>
      </g>
     </g>
    </g>
    <g id="ytick_3">
     <g id="line2d_9">
      <g>
       <use xlink:href="#mb1784a88a3" x="72" y="251.424" style="stroke: #000000; stroke-width: 0.8"/>
      </g>
     </g>
     <g id="text_10">
      <!-- 0.4 -->
      <g transform="translate(49.096875 255.223219) scale(0.1 -0.1)">
       <use xlink:href="#DejaVuSans-30"/>
       <use xlink:href="#DejaVuSans-2e" x="63.623047"/>
       <use xlink:href="#DejaVuSans-34" x="95.410156"/>
      </g>
     </g>
    </g>
    <g id="ytick_4">
     <g id="line2d_10">
      <g>
       <use xlink:href="#mb1784a88a3" x="72" y="184.896" style="stroke: #000000; stroke-width: 0.8"/>
      </g>
     </g>
     <g id="text_11">
      <!-- 0.6 -->
      <g transform="translate(49.096875 188.695219) scale(0.1 -0.1)">
       <defs>
        <path id="DejaVuSans-36" d="M 2113 2584 
Q 1688 2584 1439 2293 
Q 1191 2003 1191 1497 
Q 1191 994 1439 701 
Q 1688 409 2113 409 
Q 2538 409 2786 701 
Q 3034 994 3034 1497 
Q 3034 2003 2786 2293 
Q 2538 2584 2113 2584 
z
M 3366 4563 
L 3366 3988 
Q 3128 4100 2886 4159 
Q 2644 4219 2406 4219 
Q 1781 4219 1451 3797 
Q 1122 3375 1075 2522 
Q 1259 2794 1537 2939 
Q 1816 3084 2150 3084 
Q 2853 3084 3261 2657 
Q 3669 2231 3669 1497 
Q 3669 778 3244 343 
Q 2819 -91 2113 -91 
Q 1303 -91 875 529 
Q 447 1150 447 2328 
Q 447 3434 972 4092 
Q 1497 4750 2381 4750 
Q 2619 4750 2861 4703 
Q 3103 4656 3366 4563 
z
" transform="scale(0.015625)"/>
       </defs>
       <use xlink:href="#DejaVuSans-30"/>
       <use xlink:href="#DejaVuSans-2e" x="63.623047"/>
       <use xlink:href="#DejaVuSans-36" x="95.410156"/>
      </g>
     </g>
    </g>
    <g id="ytick_5">
     <g id="line2d_11">
      <g>
       <use xlink:href="#mb1784a88a3" x="72" y="118.368" style="stroke: #000000; stroke-width: 0.8"/>
      </g>
     </g>
     <g id="text_12">
      <!-- 0.8 -->
      <g transform="translate(49.096875 122.167219) scale(0.1 -0.1)">
       <defs>
        <path id="DejaVuSans-38" d="M 2034 2216 
Q 1584 2216 1326 1975 
Q 1069 1734 1069 1313 
Q 1069 891 1326 650 
Q 1584 409 2034 409 
Q 2484 409 2743 651 
Q 3003 894 3003 1313 
Q 3003 1734 2745 1975 
Q 2488 2216 2034 2216 
z
M 1403 2484 
Q 997 2584 770 2862 
Q 544 3141 544 3541 
Q 544 4100 942 4425 
Q 1341 4750 2034 4750 
Q 2731 4750 3128 4425 
Q 3525 4100 3525 3541 
Q 3525 3141 3298 2862 
Q 3072 2584 2669 2484 
Q 3125 2378 3379 2068 
Q 3634 1759 3634 1313 
Q 3634 634 3220 271 
Q 2806 -91 2034 -91 
Q 1263 -91 848 271 
Q 434 634 434 1313 
Q 434 1759 690 2068 
Q 947 2378 1403 2484 
z
M 1172 3481 
Q 1172 3119 1398 2916 
Q 1625 2713 2034 2713 
Q 2441 2713 2670 2916 
Q 2900 3119 2900 3481 
Q 2900 3844 2670 4047 
Q 2441 4250 2034 4250 
Q 1625 4250 1398 4047 
Q 1172 3844 1172 3481 
z
" transform="scale(0.015625)"/>
       </defs>
       <use xlink:href="#DejaVuSans-30"/>
       <use xlink:href="#DejaVuSans-2e" x="63.623047"/>
       <use xlink:href="#DejaVuSans-38" x="95.410156"/>
      </g>
     </g>
    </g>
    <g id="ytick_6">
     <g id="line2d_12">
      <g>
       <use xlink:href="#mb1784a88a3" x="72" y="51.84" style="stroke: #000000; stroke-width: 0.8"/>
      </g>
     </g>
     <g id="text_13">
      <!-- 1.0 -->
      <g transform="translate(49.096875 55.639219) scale(0.1 -0.1)">
       <use xlink:href="#DejaVuSans-31"/>
       <use xlink:href="#DejaVuSans-2e" x="63.623047"/>
       <use xlink:href="#DejaVuSans-30" x="95.410156"/>
      </g>
     </g>
    </g>
    <g id="text_14">
     <!-- rate -->
     <g transform="translate(43.017187 228.31625) rotate(-90) scale(0.1 -0.1)">
      <defs>
       <path id="DejaVuSans-72" d="M 2631 2963 
Q 2534 3019 2420 3045 
Q 2306 3072 2169 3072 
Q 1681 3072 1420 2755 
Q 1159 2438 1159 1844 
L 1159 0 
L 581 0 
L 581 3500 
L 1159 3500 
L 1159 2956 
Q 1341 3275 1631 3429 
Q 1922 3584 2338 3584 
Q 2397 3584 2469 3576 
Q 2541 3569 2628 3553 
L 2631 2963 
z
" transform="scale(0.015625)"/>
       <path id="DejaVuSans-61" d="M 2194 1759 
Q 1497 1759 1228 1600 
Q 959 1441 959 1056 
Q 959 750 1161 570 
Q 1363 391 1709 391 
Q 2188 391 2477 730 
Q 2766 1069 2766 1631 
L 2766 1759 
L 2194 1759 
z
M 3341 1997 
L 3341 0 
L 2766 0 
L 2766 531 
Q 2569 213 2275 61 
Q 1981 -91 1556 -91 
Q 1019 -91 701 211 
Q 384 513 384 1019 
Q 384 1609 779 1909 
Q 1175 2209 1959 2209 
L 2766 2209 
L 2766 2266 
Q 2766 2663 2505 2880 
Q 2244 3097 1772 3097 
Q 1472 3097 1187 3025 
Q 903 2953 641 2809 
L 641 3341 
Q 956 3463 1253 3523 
Q 1550 3584 1831 3584 
Q 2591 3584 2966 3190 
Q 3341 2797 3341 1997 
z
" transform="scale(0.015625)"/>
       <path id="DejaVuSans-74" d="M 1172 4494 
L 1172 3500 
L 2356 3500 
L 2356 3053 
L 1172 3053 
L 1172 1153 
Q 1172 725 1289 603 
Q 1406 481 1766 481 
L 2356 481 
L 2356 0 
L 1766 0 
Q 1100 0 847 248 
Q 594 497 594 1153 
L 594 3053 
L 172 3053 
L 172 3500 
L 594 3500 
L 594 4494 
L 1172 4494 
z
" transform="scale(0.015625)"/>
      </defs>
      <use xlink:href="#DejaVuSans-72"/>
      <use xlink:href="#DejaVuSans-61" x="41.113281"/>
      <use xlink:href="#DejaVuSans-74" x="102.392578"/>
      <use xlink:href="#DejaVuSans-65" x="141.601562"/>
     </g>
    </g>
   </g>
   <g id="line2d_13">
    <path d="M 92.290909 356.898698 
L 93.104172 346.221599 
L 93.917435 287.271608 
L 94.730698 162.027004 
L 95.543961 119.332178 
L 96.357224 109.971269 
L 97.170486 111.66734 
L 97.983749 112.969551 
L 98.797012 112.246781 
L 99.610275 111.011546 
L 100.423538 216.06059 
L 101.236801 193.400379 
L 102.050064 129.55284 
L 102.863327 113.350068 
L 103.67659 103.412098 
L 104.489852 101.605035 
L 105.303115 103.288319 
L 106.116378 105.547493 
L 106.929641 117.701059 
L 107.742904 123.349561 
L 108.556167 212.018958 
L 109.36943 157.557567 
L 110.182693 124.251427 
L 110.995956 119.123995 
L 111.809218 114.979997 
L 112.622481 112.679146 
L 113.435744 106.464705 
L 114.249007 106.588722 
L 115.06227 104.964325 
L 115.875533 104.626693 
L 116.688796 225.291286 
L 117.502059 179.60138 
L 118.315322 124.348044 
L 119.128584 111.066149 
L 120.75511 101.651569 
L 122.381636 104.929668 
L 123.194899 108.51201 
L 124.008162 101.817937 
L 124.821425 215.07561 
L 125.634688 159.515373 
L 126.44795 127.168795 
L 127.261213 113.726521 
L 128.074476 105.386935 
L 128.887739 106.725607 
L 129.701002 101.11999 
L 130.514265 100.782041 
L 131.327528 103.891254 
L 132.140791 103.14269 
L 132.954054 224.083729 
L 134.580579 125.841405 
L 135.393842 109.518661 
L 136.207105 109.274235 
L 137.020368 104.01882 
L 137.833631 103.39919 
L 138.646894 99.005373 
L 139.460157 101.241985 
L 140.27342 101.941339 
L 141.086682 221.253223 
L 141.899945 161.235951 
L 142.713208 121.634992 
L 143.526471 108.749496 
L 144.339734 101.611578 
L 145.152997 100.208568 
L 145.96626 101.52547 
L 146.779523 101.695129 
L 147.592786 101.027359 
L 148.406048 103.583997 
L 149.219311 224.458229 
L 150.845837 131.815147 
L 151.6591 110.403376 
L 152.472363 103.077955 
L 153.285626 101.209925 
L 154.098889 102.694741 
L 154.912152 103.764283 
L 155.725414 97.350443 
L 156.538677 102.828612 
L 157.35194 225.536138 
L 158.165203 167.429197 
L 158.978466 121.908285 
L 159.791729 102.770519 
L 160.604992 98.888335 
L 161.418255 101.364575 
L 162.231518 96.472706 
L 163.04478 101.487759 
L 163.858043 98.311769 
L 164.671306 105.568074 
L 165.484569 225.772425 
L 167.111095 122.489213 
L 167.924358 109.932626 
L 168.737621 100.179304 
L 169.550884 99.122987 
L 170.364146 97.577996 
L 171.177409 96.746397 
L 171.990672 97.013326 
L 172.803935 98.554569 
L 173.617198 217.919302 
L 174.430461 172.24717 
L 175.243724 142.992893 
L 176.056987 129.628856 
L 176.87025 113.382287 
L 177.683512 103.203539 
L 178.496775 102.14165 
L 179.310038 105.914489 
L 180.123301 103.329737 
L 180.936564 101.611578 
L 181.749827 231.877114 
L 182.56309 204.646508 
L 184.189616 129.848498 
L 185.002878 111.605104 
L 185.816141 103.512224 
L 186.629404 104.405326 
L 187.442667 100.539162 
L 188.25593 102.762668 
L 189.069193 102.762668 
L 189.882456 233.279995 
L 190.695719 204.71497 
L 191.508982 162.513913 
L 192.322244 132.282348 
L 193.135507 116.820844 
L 193.94877 104.869572 
L 194.762033 101.451337 
L 195.575296 108.083471 
L 197.201822 105.673037 
L 198.015085 226.420189 
L 198.828348 201.346937 
L 199.64161 161.895611 
L 200.454873 128.267126 
L 201.268136 113.671898 
L 202.081399 111.239992 
L 202.894662 106.741746 
L 203.707925 105.934375 
L 204.521188 103.45655 
L 205.334451 103.712079 
L 206.147714 228.378352 
L 206.960976 201.25038 
L 207.774239 162.089994 
L 208.587502 137.477112 
L 209.400765 119.741286 
L 210.214028 109.274235 
L 211.027291 106.741746 
L 211.840554 106.182172 
L 212.653817 102.441096 
L 213.46708 101.364575 
L 214.280343 233.979637 
L 215.093605 208.234065 
L 215.906868 170.68265 
L 217.533394 118.675293 
L 218.346657 114.75064 
L 219.15992 109.163878 
L 219.973183 108.6322 
L 220.786446 103.690368 
L 221.599709 104.405326 
L 222.412971 227.097248 
L 223.226234 208.289382 
L 224.85276 143.934551 
L 225.666023 118.367996 
L 226.479286 109.551038 
L 227.292549 103.583997 
L 228.105812 103.015382 
L 228.919075 106.598913 
L 229.732337 106.048003 
L 230.5456 229.563574 
L 231.358863 206.440306 
L 232.172126 178.196189 
L 232.985389 144.050261 
L 233.798652 116.708565 
L 234.611915 117.58531 
L 235.425178 105.285759 
L 236.238441 108.083471 
L 237.051703 107.684673 
L 237.864966 101.241985 
L 238.678229 231.715188 
L 239.491492 207.169698 
L 240.304755 175.061419 
L 241.118018 153.788614 
L 241.931281 128.376629 
L 242.744544 116.347299 
L 243.557807 106.213855 
L 244.371069 106.87532 
L 245.184332 101.941339 
L 245.997595 105.649404 
L 246.810858 232.342322 
L 247.624121 212.358137 
L 249.250647 154.387981 
L 250.877173 117.290008 
L 251.690435 115.421542 
L 252.503698 106.331151 
L 253.316961 101.941339 
L 254.130224 103.512224 
L 254.943487 231.120005 
L 256.570013 190.71445 
L 257.383276 159.4779 
L 258.196539 136.589046 
L 259.009801 121.35803 
L 259.823064 111.605104 
L 260.636327 108.2062 
L 261.44959 108.219662 
L 262.262853 105.358821 
L 263.076116 230.131624 
L 263.889379 219.788303 
L 264.702642 185.995631 
L 265.515905 162.928037 
L 266.329167 135 
L 267.14243 119.725722 
L 267.955693 114.11146 
L 268.768956 111.011546 
L 269.582219 112.757205 
L 270.395482 111.66734 
L 271.208745 230.65554 
L 272.022008 217.204146 
L 274.461796 144.508936 
L 275.275059 127.539261 
L 276.088322 119.897383 
L 276.901585 109.412309 
L 277.714848 112.757205 
L 278.528111 108.071992 
L 279.341374 229.362906 
L 280.154637 216.275355 
L 280.967899 197.626659 
L 281.781162 171.63904 
L 282.594425 149.909166 
L 283.407688 137.11424 
L 284.220951 119.725722 
L 285.034214 113.817745 
L 285.847477 107.009568 
L 286.66074 111.381774 
L 287.474003 231.737146 
L 288.287265 217.209598 
L 291.540317 132.849318 
L 292.35358 124.91424 
L 293.166843 112.603288 
L 293.980106 113.238502 
L 294.793369 104.704553 
L 295.606631 231.715188 
L 296.419894 220.01315 
L 297.233157 200.137715 
L 298.04642 183.415062 
L 298.859683 159.05989 
L 299.672946 144.0847 
L 301.299472 118.070335 
L 302.112735 113.817745 
L 302.925997 112.889232 
L 303.73926 231.387539 
L 304.552523 222.729235 
L 306.179049 186.132159 
L 306.992312 162.082757 
L 307.805575 152.234365 
L 309.432101 125.250207 
L 310.245363 115.570085 
L 311.058626 111.746727 
L 311.871889 232.109416 
L 314.311678 187.463356 
L 315.938204 152.679677 
L 316.751467 142.812528 
L 317.564729 130.021468 
L 318.377992 115.08845 
L 319.191255 113.671898 
L 320.004518 236.361054 
L 320.817781 220.230373 
L 322.444307 198.201599 
L 323.25757 169.242346 
L 324.884095 143.070377 
L 325.697358 123.01298 
L 326.510621 122.422753 
L 327.323884 122.469049 
L 328.137147 230.527389 
L 328.95041 224.303143 
L 329.763673 203.719046 
L 330.576936 192.735286 
L 332.203461 159.963897 
L 333.016724 152.032765 
L 333.829987 133.753483 
L 335.456513 120.662066 
L 336.269776 229.763717 
L 337.083039 220.886554 
L 337.896302 214.314456 
L 338.709565 201.061687 
L 339.522827 181.388576 
L 340.33609 170.339249 
L 341.149353 151.432823 
L 342.775879 131.005417 
L 343.589142 119.431233 
L 344.402405 229.247999 
L 345.215668 225.587014 
L 346.028931 207.596095 
L 346.842193 200.422627 
L 347.655456 187.969893 
L 348.468719 172.309625 
L 349.281982 161.445521 
L 350.095245 142.368604 
L 350.908508 136.07999 
L 351.721771 130.970224 
L 352.535034 230.55247 
L 353.348297 223.412212 
L 354.161559 210.588904 
L 354.974822 203.269431 
L 355.788085 190.347296 
L 356.601348 179.467509 
L 357.414611 170.331437 
L 358.227874 157.532625 
L 359.041137 153.822221 
L 359.8544 129.600008 
L 360.667663 232.428173 
L 361.480925 223.118051 
L 362.294188 212.089919 
L 363.107451 206.532759 
L 364.733977 186.263016 
L 365.54724 171.908944 
L 366.360503 164.192794 
L 367.173766 152.87858 
L 367.987029 144.201421 
L 368.800291 232.972213 
L 370.426817 215.804189 
L 371.24008 212.307102 
L 372.053343 197.337048 
L 372.866606 187.668009 
L 373.679869 180.585071 
L 374.493132 169.27853 
L 375.306395 153.788614 
L 376.119657 149.477237 
L 376.93292 230.987293 
L 377.746183 223.104648 
L 378.559446 220.265318 
L 379.372709 206.706819 
L 380.185972 198.91854 
L 380.999235 189.896472 
L 381.812498 186.239997 
L 382.625761 171.80852 
L 383.439024 162.719993 
L 384.252286 155.298888 
L 385.065549 226.246516 
L 385.878812 229.784515 
L 386.692075 219.084002 
L 387.505338 213.846224 
L 388.318601 203.492028 
L 389.131864 196.072707 
L 389.945127 190.440007 
L 390.75839 175.845374 
L 391.571652 175.598985 
L 392.384915 159.931916 
L 393.198178 234.309606 
L 394.011441 228.073117 
L 394.824704 220.894029 
L 395.637967 215.300626 
L 397.264493 196.850258 
L 398.077756 192.300106 
L 399.704281 177.173994 
L 400.517544 170.508253 
L 401.330807 237.155934 
L 402.14407 228.841102 
L 402.957333 223.378774 
L 403.770596 213.883201 
L 404.583859 207.607971 
L 405.397122 203.918524 
L 406.210384 196.535724 
L 407.023647 190.994406 
L 407.83691 181.136715 
L 408.650173 175.905727 
L 409.463436 232.291764 
L 411.089962 219.310207 
L 411.903225 217.691491 
L 412.716488 208.057605 
L 413.52975 207.30232 
L 414.343013 202.147824 
L 415.156276 188.7777 
L 415.969539 191.613818 
L 416.782802 177.874874 
L 417.596065 232.415999 
L 418.409328 232.092563 
L 419.222591 222.691882 
L 420.035854 221.439546 
L 420.849116 208.973726 
L 421.662379 207.905692 
L 422.475642 205.641282 
L 423.288905 192.180867 
L 424.102168 194.248177 
L 424.915431 184.336933 
L 425.728694 230.319167 
L 426.541957 230.224662 
L 427.35522 223.145065 
L 428.168482 218.397258 
L 428.981745 217.228235 
L 429.795008 208.81065 
L 430.608271 206.027233 
L 432.234797 192.490028 
L 433.04806 188.776808 
L 433.861323 230.789193 
L 434.674586 225.200003 
L 435.487848 225.043737 
L 436.301111 217.236007 
L 437.114374 217.925408 
L 437.927637 214.032359 
L 438.7409 206.192767 
L 439.554163 207.765 
L 441.180689 190.528553 
L 441.993952 230.071509 
L 442.807214 234.920928 
L 443.620477 222.413135 
L 444.43374 220.018325 
L 445.247003 220.018325 
L 446.060266 216.730323 
L 446.873529 214.28081 
L 447.686792 204.633977 
L 449.313318 196.90504 
L 450.12658 236.457254 
L 450.939843 228.147885 
L 451.753106 227.814456 
L 452.566369 223.294708 
L 453.379632 215.843565 
L 454.192895 216.296471 
L 455.006158 207.564808 
L 455.819421 203.132626 
L 456.632684 207.373022 
L 457.445946 204.278977 
L 458.259209 233.279995 
L 459.072472 227.763778 
L 459.885735 223.895175 
L 460.698998 221.183997 
L 461.512261 219.982686 
L 462.325524 217.454262 
L 463.138787 211.910981 
L 463.95205 208.635063 
L 464.765312 211.40716 
L 465.578575 206.905266 
L 466.391838 232.96335 
L 467.205101 225.699839 
L 468.018364 229.040749 
L 468.831627 217.700552 
L 469.64489 219.303883 
L 470.458153 220.241893 
L 471.271416 219.545999 
L 472.084678 215.564938 
L 472.897941 213.519655 
L 473.711204 203.448032 
L 474.524467 235.644927 
L 475.33773 229.365176 
L 476.150993 227.891493 
L 476.964256 226.14518 
L 477.777519 222.494812 
L 478.590782 223.688639 
L 479.404044 215.790766 
L 480.217307 211.946887 
L 481.03057 212.607956 
L 481.843833 203.762149 
L 482.657096 233.166318 
L 483.470359 231.318908 
L 484.283622 227.508705 
L 485.096885 221.996414 
L 485.910148 225.627431 
L 486.72341 223.598258 
L 487.536673 218.620717 
L 488.349936 219.326337 
L 489.163199 209.955871 
L 489.976462 210.491058 
L 490.789725 230.024589 
L 491.602988 232.342322 
L 492.416251 229.394857 
L 493.229514 223.956679 
L 494.042776 219.744 
L 494.856039 222.482956 
L 495.669302 216.089617 
L 496.482565 220.218983 
L 498.109091 213.560182 
L 498.109091 213.560182 
" clip-path="url(#pe5d8f2bead)" style="fill: none; stroke: #0000ff; stroke-width: 1.5; stroke-linecap: square"/>
   </g>
   <g id="line2d_14">
    <path d="M 92.290909 232.266038 
L 93.104172 227.673378 
L 93.917435 186.995501 
L 94.730698 173.87361 
L 96.357224 161.40781 
L 97.170486 160.095627 
L 97.983749 160.095627 
L 98.797012 162.719993 
L 99.610275 160.095627 
L 100.423538 147.629827 
L 101.236801 151.566397 
L 102.050064 154.190763 
L 102.863327 164.688288 
L 103.67659 169.93704 
L 104.489852 171.905335 
L 105.303115 176.497996 
L 106.116378 173.217518 
L 106.929641 174.529701 
L 107.742904 171.249224 
L 108.556167 163.376085 
L 109.36943 163.376085 
L 110.182693 158.127332 
L 110.995956 154.190763 
L 111.809218 154.846855 
L 112.622481 158.783424 
L 113.435744 160.751719 
L 114.249007 164.688288 
L 115.06227 160.095627 
L 115.875533 165.34438 
L 116.688796 157.471241 
L 117.502059 150.910305 
L 118.315322 156.159058 
L 119.128584 163.376085 
L 119.941847 167.968766 
L 120.75511 164.688288 
L 121.568373 165.34438 
L 122.381636 163.376085 
L 123.194899 164.032196 
L 124.008162 158.127332 
L 124.821425 150.254194 
L 126.44795 158.127332 
L 127.261213 154.846855 
L 128.074476 158.783424 
L 128.887739 165.34438 
L 129.701002 158.127332 
L 130.514265 160.095627 
L 131.327528 158.127332 
L 132.140791 161.40781 
L 132.954054 153.534672 
L 133.767316 151.566397 
L 134.580579 152.87858 
L 135.393842 156.159058 
L 136.207105 158.127332 
L 137.020368 158.783424 
L 137.833631 162.719993 
L 138.646894 158.127332 
L 139.460157 158.783424 
L 140.27342 158.783424 
L 141.086682 159.439535 
L 141.899945 154.190763 
L 142.713208 152.222488 
L 143.526471 158.783424 
L 144.339734 160.751719 
L 145.152997 164.688288 
L 145.96626 164.032196 
L 146.779523 157.471241 
L 147.592786 161.40781 
L 148.406048 160.095627 
L 150.032574 158.783424 
L 150.845837 150.254194 
L 151.6591 154.190763 
L 152.472363 157.471241 
L 153.285626 154.846855 
L 154.098889 162.719993 
L 154.912152 157.471241 
L 156.538677 156.159058 
L 157.35194 165.34438 
L 158.165203 162.719993 
L 158.978466 150.910305 
L 159.791729 152.222488 
L 160.604992 157.471241 
L 161.418255 159.439535 
L 162.231518 160.095627 
L 163.04478 160.095627 
L 163.858043 154.190763 
L 164.671306 152.87858 
L 165.484569 158.783424 
L 166.297832 150.910305 
L 167.111095 150.910305 
L 167.924358 158.127332 
L 168.737621 156.815149 
L 169.550884 158.783424 
L 171.177409 157.471241 
L 171.990672 154.846855 
L 172.803935 151.566397 
L 173.617198 157.471241 
L 174.430461 155.502966 
L 175.243724 151.566397 
L 176.056987 158.783424 
L 176.87025 156.159058 
L 177.683512 158.127332 
L 178.496775 156.159058 
L 179.310038 161.40781 
L 180.123301 158.783424 
L 180.936564 160.751719 
L 181.749827 150.910305 
L 182.56309 157.471241 
L 183.376353 152.222488 
L 184.189616 157.471241 
L 185.816141 156.159058 
L 186.629404 160.751719 
L 187.442667 158.783424 
L 188.25593 159.439535 
L 189.069193 159.439535 
L 189.882456 154.846855 
L 190.695719 147.629827 
L 191.508982 148.942011 
L 192.322244 156.159058 
L 193.135507 157.471241 
L 193.94877 156.159058 
L 194.762033 156.159058 
L 195.575296 158.783424 
L 196.388559 159.439535 
L 197.201822 156.815149 
L 198.015085 152.222488 
L 198.828348 152.222488 
L 199.64161 148.285919 
L 200.454873 153.534672 
L 201.268136 157.471241 
L 202.894662 158.783424 
L 203.707925 158.127332 
L 205.334451 160.751719 
L 206.147714 148.942011 
L 206.960976 146.317624 
L 207.774239 152.87858 
L 208.587502 155.502966 
L 210.214028 158.127332 
L 211.027291 158.783424 
L 211.840554 162.719993 
L 212.653817 161.40781 
L 213.46708 159.439535 
L 214.280343 153.534672 
L 215.093605 145.661533 
L 215.906868 149.598102 
L 216.720131 152.222488 
L 217.533394 157.471241 
L 218.346657 159.439535 
L 219.15992 160.751719 
L 219.973183 161.40781 
L 220.786446 153.534672 
L 221.599709 160.751719 
L 222.412971 147.629827 
L 223.226234 150.254194 
L 224.039497 158.783424 
L 225.666023 150.910305 
L 226.479286 159.439535 
L 229.732337 162.063902 
L 230.5456 148.285919 
L 231.358863 150.254194 
L 232.172126 154.190763 
L 232.985389 153.534672 
L 233.798652 151.566397 
L 234.611915 160.751719 
L 235.425178 154.846855 
L 236.238441 158.783424 
L 237.051703 160.095627 
L 237.864966 158.783424 
L 238.678229 151.566397 
L 239.491492 146.317624 
L 240.304755 146.973736 
L 241.118018 152.87858 
L 241.931281 156.159058 
L 242.744544 158.127332 
L 243.557807 156.159058 
L 244.371069 159.439535 
L 245.184332 158.783424 
L 245.997595 160.095627 
L 246.810858 152.222488 
L 247.624121 150.910305 
L 248.437384 146.317624 
L 249.250647 148.942011 
L 250.06391 158.783424 
L 250.877173 156.815149 
L 251.690435 156.815149 
L 252.503698 160.095627 
L 253.316961 158.783424 
L 254.130224 156.159058 
L 254.943487 151.566397 
L 255.75675 145.661533 
L 256.570013 152.87858 
L 257.383276 156.815149 
L 258.196539 154.190763 
L 259.009801 153.534672 
L 259.823064 156.815149 
L 260.636327 156.159058 
L 261.44959 159.439535 
L 262.262853 162.063902 
L 263.076116 147.629827 
L 263.889379 152.222488 
L 264.702642 147.629827 
L 265.515905 151.566397 
L 266.329167 152.222488 
L 267.14243 154.190763 
L 267.955693 159.439535 
L 268.768956 160.095627 
L 269.582219 162.063902 
L 270.395482 160.095627 
L 271.208745 150.254194 
L 272.022008 154.846855 
L 272.835271 149.598102 
L 273.648533 150.254194 
L 274.461796 156.815149 
L 275.275059 152.87858 
L 276.088322 157.471241 
L 276.901585 158.783424 
L 277.714848 162.063902 
L 279.341374 148.285919 
L 280.154637 150.254194 
L 280.967899 145.661533 
L 281.781162 154.846855 
L 282.594425 152.222488 
L 283.407688 154.190763 
L 284.220951 154.190763 
L 285.034214 158.127332 
L 285.847477 160.095627 
L 286.66074 158.783424 
L 287.474003 148.285919 
L 288.287265 153.534672 
L 289.100528 146.973736 
L 289.913791 145.661533 
L 290.727054 150.254194 
L 291.540317 154.190763 
L 292.35358 160.751719 
L 293.166843 155.502966 
L 293.980106 155.502966 
L 294.793369 158.783424 
L 295.606631 151.566397 
L 296.419894 151.566397 
L 297.233157 149.598102 
L 298.04642 152.87858 
L 298.859683 155.502966 
L 299.672946 158.783424 
L 300.486209 153.534672 
L 301.299472 149.598102 
L 302.112735 158.127332 
L 302.925997 156.815149 
L 303.73926 152.87858 
L 304.552523 152.222488 
L 305.365786 152.222488 
L 306.179049 152.87858 
L 306.992312 155.502966 
L 307.805575 156.815149 
L 308.618838 160.751719 
L 309.432101 162.063902 
L 310.245363 157.471241 
L 311.058626 157.471241 
L 312.685152 145.005441 
L 313.498415 150.910305 
L 314.311678 152.87858 
L 315.124941 154.190763 
L 315.938204 152.222488 
L 316.751467 156.159058 
L 317.564729 158.127332 
L 318.377992 158.127332 
L 319.191255 157.471241 
L 320.004518 152.222488 
L 320.817781 150.254194 
L 321.631044 150.910305 
L 322.444307 154.846855 
L 323.25757 153.534672 
L 324.070833 151.566397 
L 324.884095 158.783424 
L 325.697358 155.502966 
L 326.510621 155.502966 
L 327.323884 158.127332 
L 328.137147 147.629827 
L 328.95041 153.534672 
L 329.763673 146.317624 
L 330.576936 146.973736 
L 331.390199 150.254194 
L 332.203461 152.87858 
L 333.016724 156.159058 
L 333.829987 153.534672 
L 334.64325 158.783424 
L 335.456513 158.127332 
L 336.269776 148.285919 
L 337.083039 148.285919 
L 337.896302 152.222488 
L 338.709565 152.222488 
L 339.522827 148.942011 
L 340.33609 150.910305 
L 341.149353 154.190763 
L 341.962616 150.910305 
L 342.775879 155.502966 
L 343.589142 155.502966 
L 344.402405 145.661533 
L 345.215668 152.87858 
L 346.028931 148.285919 
L 346.842193 149.598102 
L 347.655456 149.598102 
L 349.281982 154.846855 
L 350.095245 158.127332 
L 350.908508 158.127332 
L 351.721771 157.471241 
L 352.535034 152.222488 
L 353.348297 143.037167 
L 354.161559 150.910305 
L 354.974822 148.942011 
L 355.788085 155.502966 
L 356.601348 151.566397 
L 357.414611 156.815149 
L 358.227874 154.846855 
L 359.041137 163.376085 
L 359.8544 152.222488 
L 360.667663 150.254194 
L 361.480925 149.598102 
L 363.107451 153.534672 
L 363.920714 156.159058 
L 364.733977 156.159058 
L 365.54724 156.815149 
L 366.360503 155.502966 
L 367.173766 152.87858 
L 367.987029 157.471241 
L 368.800291 149.598102 
L 370.426817 149.598102 
L 371.24008 152.87858 
L 372.053343 151.566397 
L 372.866606 151.566397 
L 373.679869 154.846855 
L 374.493132 154.846855 
L 375.306395 152.87858 
L 376.119657 155.502966 
L 376.93292 152.87858 
L 377.746183 148.942011 
L 378.559446 154.190763 
L 379.372709 150.254194 
L 380.185972 153.534672 
L 380.999235 149.598102 
L 381.812498 152.222488 
L 382.625761 154.190763 
L 383.439024 148.285919 
L 384.252286 154.846855 
L 385.065549 146.973736 
L 385.878812 157.471241 
L 386.692075 149.598102 
L 387.505338 150.910305 
L 388.318601 145.661533 
L 389.131864 152.222488 
L 389.945127 150.254194 
L 390.75839 151.566397 
L 391.571652 157.471241 
L 392.384915 155.502966 
L 393.198178 149.598102 
L 394.011441 151.566397 
L 394.824704 148.942011 
L 395.637967 151.566397 
L 396.45123 148.942011 
L 397.264493 147.629827 
L 398.077756 152.87858 
L 398.891018 150.910305 
L 399.704281 155.502966 
L 400.517544 156.159058 
L 401.330807 155.502966 
L 402.14407 150.254194 
L 402.957333 151.566397 
L 403.770596 148.942011 
L 404.583859 153.534672 
L 405.397122 151.566397 
L 407.023647 155.502966 
L 407.83691 150.254194 
L 408.650173 156.159058 
L 409.463436 154.846855 
L 410.276699 150.910305 
L 411.089962 148.942011 
L 411.903225 150.910305 
L 412.716488 149.598102 
L 413.52975 148.942011 
L 414.343013 152.87858 
L 415.156276 146.317624 
L 415.969539 150.910305 
L 416.782802 148.942011 
L 417.596065 153.534672 
L 418.409328 154.846855 
L 419.222591 150.254194 
L 420.035854 156.159058 
L 420.849116 146.317624 
L 421.662379 152.87858 
L 422.475642 154.846855 
L 423.288905 148.942011 
L 424.102168 149.598102 
L 424.915431 149.598102 
L 425.728694 151.566397 
L 426.541957 149.598102 
L 427.35522 150.910305 
L 428.168482 154.846855 
L 428.981745 148.942011 
L 429.795008 150.254194 
L 431.421534 155.502966 
L 432.234797 148.942011 
L 433.04806 152.87858 
L 433.861323 148.942011 
L 434.674586 146.973736 
L 435.487848 148.942011 
L 436.301111 146.973736 
L 437.114374 151.566397 
L 437.927637 154.190763 
L 438.7409 145.005441 
L 439.554163 150.254194 
L 440.367426 157.471241 
L 441.180689 145.005441 
L 441.993952 154.846855 
L 442.807214 156.159058 
L 443.620477 146.973736 
L 444.43374 152.222488 
L 445.247003 152.222488 
L 446.060266 153.534672 
L 446.873529 154.190763 
L 447.686792 148.942011 
L 448.500055 148.285919 
L 449.313318 152.87858 
L 450.12658 148.285919 
L 450.939843 148.285919 
L 451.753106 150.254194 
L 452.566369 147.629827 
L 453.379632 145.661533 
L 454.192895 147.629827 
L 455.006158 148.942011 
L 456.632684 152.87858 
L 457.445946 150.254194 
L 458.259209 151.566397 
L 459.072472 148.942011 
L 459.885735 154.846855 
L 460.698998 154.190763 
L 461.512261 147.629827 
L 462.325524 151.566397 
L 463.138787 148.942011 
L 463.95205 148.285919 
L 464.765312 157.471241 
L 465.578575 151.566397 
L 466.391838 156.159058 
L 467.205101 149.598102 
L 468.018364 154.846855 
L 468.831627 146.317624 
L 469.64489 147.629827 
L 470.458153 151.566397 
L 471.271416 150.254194 
L 472.084678 149.598102 
L 472.897941 154.846855 
L 473.711204 146.317624 
L 474.524467 155.502966 
L 475.33773 152.87858 
L 476.150993 152.222488 
L 476.964256 156.815149 
L 477.777519 151.566397 
L 478.590782 155.502966 
L 479.404044 150.910305 
L 480.217307 147.629827 
L 481.03057 150.910305 
L 481.843833 145.661533 
L 482.657096 146.317624 
L 483.470359 151.566397 
L 484.283622 147.629827 
L 485.096885 148.285919 
L 485.910148 154.190763 
L 486.72341 151.566397 
L 487.536673 148.285919 
L 488.349936 152.222488 
L 489.163199 154.190763 
L 489.976462 146.317624 
L 490.789725 149.598102 
L 491.602988 152.222488 
L 492.416251 153.534672 
L 493.229514 148.285919 
L 494.042776 145.661533 
L 494.856039 150.910305 
L 495.669302 144.34935 
L 496.482565 148.942011 
L 497.295828 154.190763 
L 498.109091 152.87858 
L 498.109091 152.87858 
" clip-path="url(#pe5d8f2bead)" style="fill: none; stroke: #008000; stroke-width: 1.5; stroke-linecap: square"/>
   </g>
   <g id="patch_3">
    <path d="M 72 384.48 
L 72 51.84 
" style="fill: none; stroke: #000000; stroke-width: 0.8; stroke-linejoin: miter; stroke-linecap: square"/>
   </g>
   <g id="patch_4">
    <path d="M 518.4 384.48 
L 518.4 51.84 
" style="fill: none; stroke: #000000; stroke-width: 0.8; stroke-linejoin: miter; stroke-linecap: square"/>
   </g>
   <g id="patch_5">
    <path d="M 72 384.48 
L 518.4 384.48 
" style="fill: none; stroke: #000000; stroke-width: 0.8; stroke-linejoin: miter; stroke-linecap: square"/>
   </g>
   <g id="patch_6">
    <path d="M 72 51.84 
L 518.4 51.84 
" style="fill: none; stroke: #000000; stroke-width: 0.8; stroke-linejoin: miter; stroke-linecap: square"/>
   </g>
   <g id="legend_1">
    <g id="patch_7">
     <path d="M 79 89.19625 
L 156.107812 89.19625 
Q 158.107812 89.19625 158.107812 87.19625 
L 158.107812 58.84 
Q 158.107812 56.84 156.107812 56.84 
L 79 56.84 
Q 77 56.84 77 58.84 
L 77 87.19625 
Q 77 89.19625 79 89.19625 
z
" style="fill: #ffffff; opacity: 0.8; stroke: #cccccc; stroke-linejoin: miter"/>
    </g>
    <g id="line2d_15">
     <path d="M 81 64.938437 
L 91 64.938437 
L 101 64.938437 
" style="fill: none; stroke: #0000ff; stroke-width: 1.5; stroke-linecap: square"/>
    </g>
    <g id="text_15">
     <!-- precision -->
     <g transform="translate(109 68.438437) scale(0.1 -0.1)">
      <defs>
       <path id="DejaVuSans-69" d="M 603 3500 
L 1178 3500 
L 1178 0 
L 603 0 
L 603 3500 
z
M 603 4863 
L 1178 4863 
L 1178 4134 
L 603 4134 
L 603 4863 
z
" transform="scale(0.015625)"/>
       <path id="DejaVuSans-73" d="M 2834 3397 
L 2834 2853 
Q 2591 2978 2328 3040 
Q 2066 3103 1784 3103 
Q 1356 3103 1142 2972 
Q 928 2841 928 2578 
Q 928 2378 1081 2264 
Q 1234 2150 1697 2047 
L 1894 2003 
Q 2506 1872 2764 1633 
Q 3022 1394 3022 966 
Q 3022 478 2636 193 
Q 2250 -91 1575 -91 
Q 1294 -91 989 -36 
Q 684 19 347 128 
L 347 722 
Q 666 556 975 473 
Q 1284 391 1588 391 
Q 1994 391 2212 530 
Q 2431 669 2431 922 
Q 2431 1156 2273 1281 
Q 2116 1406 1581 1522 
L 1381 1569 
Q 847 1681 609 1914 
Q 372 2147 372 2553 
Q 372 3047 722 3315 
Q 1072 3584 1716 3584 
Q 2034 3584 2315 3537 
Q 2597 3491 2834 3397 
z
" transform="scale(0.015625)"/>
       <path id="DejaVuSans-6e" d="M 3513 2113 
L 3513 0 
L 2938 0 
L 2938 2094 
Q 2938 2591 2744 2837 
Q 2550 3084 2163 3084 
Q 1697 3084 1428 2787 
Q 1159 2491 1159 1978 
L 1159 0 
L 581 0 
L 581 3500 
L 1159 3500 
L 1159 2956 
Q 1366 3272 1645 3428 
Q 1925 3584 2291 3584 
Q 2894 3584 3203 3211 
Q 3513 2838 3513 2113 
z
" transform="scale(0.015625)"/>
      </defs>
      <use xlink:href="#DejaVuSans-70"/>
      <use xlink:href="#DejaVuSans-72" x="63.476562"/>
      <use xlink:href="#DejaVuSans-65" x="102.339844"/>
      <use xlink:href="#DejaVuSans-63" x="163.863281"/>
      <use xlink:href="#DejaVuSans-69" x="218.84375"/>
      <use xlink:href="#DejaVuSans-73" x="246.626953"/>
      <use xlink:href="#DejaVuSans-69" x="298.726562"/>
      <use xlink:href="#DejaVuSans-6f" x="326.509766"/>
      <use xlink:href="#DejaVuSans-6e" x="387.691406"/>
     </g>
    </g>
    <g id="line2d_16">
     <path d="M 81 79.616562 
L 91 79.616562 
L 101 79.616562 
" style="fill: none; stroke: #008000; stroke-width: 1.5; stroke-linecap: square"/>
    </g>
    <g id="text_16">
     <!-- recall -->
     <g transform="translate(109 83.116562) scale(0.1 -0.1)">
      <defs>
       <path id="DejaVuSans-6c" d="M 603 4863 
L 1178 4863 
L 1178 0 
L 603 0 
L 603 4863 
z
" transform="scale(0.015625)"/>
      </defs>
      <use xlink:href="#DejaVuSans-72"/>
      <use xlink:href="#DejaVuSans-65" x="38.863281"/>
      <use xlink:href="#DejaVuSans-63" x="100.386719"/>
      <use xlink:href="#DejaVuSans-61" x="155.367188"/>
      <use xlink:href="#DejaVuSans-6c" x="216.646484"/>
      <use xlink:href="#DejaVuSans-6c" x="244.429688"/>
     </g>
    </g>
   </g>
  </g>
  <g id="axes_2">
   <g id="matplotlib.axis_3">
    <g id="ytick_7">
     <g id="line2d_17">
      <defs>
       <path id="mae20706113" d="M 0 0 
L 3.5 0 
" style="stroke: #000000; stroke-width: 0.8"/>
      </defs>
      <g>
       <use xlink:href="#mae20706113" x="518.4" y="376.811308" style="stroke: #000000; stroke-width: 0.8"/>
      </g>
     </g>
     <g id="text_17">
      <!-- 0.2 -->
      <g transform="translate(525.4 380.610526) scale(0.1 -0.1)">
       <use xlink:href="#DejaVuSans-30"/>
       <use xlink:href="#DejaVuSans-2e" x="63.623047"/>
       <use xlink:href="#DejaVuSans-32" x="95.410156"/>
      </g>
     </g>
    </g>
    <g id="ytick_8">
     <g id="line2d_18">
      <g>
       <use xlink:href="#mae20706113" x="518.4" y="333.662707" style="stroke: #000000; stroke-width: 0.8"/>
      </g>
     </g>
     <g id="text_18">
      <!-- 0.3 -->
      <g transform="translate(525.4 337.461926) scale(0.1 -0.1)">
       <use xlink:href="#DejaVuSans-30"/>
       <use xlink:href="#DejaVuSans-2e" x="63.623047"/>
       <use xlink:href="#DejaVuSans-33" x="95.410156"/>
      </g>
     </g>
    </g>
    <g id="ytick_9">
     <g id="line2d_19">
      <g>
       <use xlink:href="#mae20706113" x="518.4" y="290.514107" style="stroke: #000000; stroke-width: 0.8"/>
      </g>
     </g>
     <g id="text_19">
      <!-- 0.4 -->
      <g transform="translate(525.4 294.313326) scale(0.1 -0.1)">
       <use xlink:href="#DejaVuSans-30"/>
       <use xlink:href="#DejaVuSans-2e" x="63.623047"/>
       <use xlink:href="#DejaVuSans-34" x="95.410156"/>
      </g>
     </g>
    </g>
    <g id="ytick_10">
     <g id="line2d_20">
      <g>
       <use xlink:href="#mae20706113" x="518.4" y="247.365507" style="stroke: #000000; stroke-width: 0.8"/>
      </g>
     </g>
     <g id="text_20">
      <!-- 0.5 -->
      <g transform="translate(525.4 251.164725) scale(0.1 -0.1)">
       <use xlink:href="#DejaVuSans-30"/>
       <use xlink:href="#DejaVuSans-2e" x="63.623047"/>
       <use xlink:href="#DejaVuSans-35" x="95.410156"/>
      </g>
     </g>
    </g>
    <g id="ytick_11">
     <g id="line2d_21">
      <g>
       <use xlink:href="#mae20706113" x="518.4" y="204.216906" style="stroke: #000000; stroke-width: 0.8"/>
      </g>
     </g>
     <g id="text_21">
      <!-- 0.6 -->
      <g transform="translate(525.4 208.016125) scale(0.1 -0.1)">
       <use xlink:href="#DejaVuSans-30"/>
       <use xlink:href="#DejaVuSans-2e" x="63.623047"/>
       <use xlink:href="#DejaVuSans-36" x="95.410156"/>
      </g>
     </g>
    </g>
    <g id="ytick_12">
     <g id="line2d_22">
      <g>
       <use xlink:href="#mae20706113" x="518.4" y="161.068306" style="stroke: #000000; stroke-width: 0.8"/>
      </g>
     </g>
     <g id="text_22">
      <!-- 0.7 -->
      <g transform="translate(525.4 164.867525) scale(0.1 -0.1)">
       <defs>
        <path id="DejaVuSans-37" d="M 525 4666 
L 3525 4666 
L 3525 4397 
L 1831 0 
L 1172 0 
L 2766 4134 
L 525 4134 
L 525 4666 
z
" transform="scale(0.015625)"/>
       </defs>
       <use xlink:href="#DejaVuSans-30"/>
       <use xlink:href="#DejaVuSans-2e" x="63.623047"/>
       <use xlink:href="#DejaVuSans-37" x="95.410156"/>
      </g>
     </g>
    </g>
    <g id="ytick_13">
     <g id="line2d_23">
      <g>
       <use xlink:href="#mae20706113" x="518.4" y="117.919706" style="stroke: #000000; stroke-width: 0.8"/>
      </g>
     </g>
     <g id="text_23">
      <!-- 0.8 -->
      <g transform="translate(525.4 121.718924) scale(0.1 -0.1)">
       <use xlink:href="#DejaVuSans-30"/>
       <use xlink:href="#DejaVuSans-2e" x="63.623047"/>
       <use xlink:href="#DejaVuSans-38" x="95.410156"/>
      </g>
     </g>
    </g>
    <g id="ytick_14">
     <g id="line2d_24">
      <g>
       <use xlink:href="#mae20706113" x="518.4" y="74.771105" style="stroke: #000000; stroke-width: 0.8"/>
      </g>
     </g>
     <g id="text_24">
      <!-- 0.9 -->
      <g transform="translate(525.4 78.570324) scale(0.1 -0.1)">
       <defs>
        <path id="DejaVuSans-39" d="M 703 97 
L 703 672 
Q 941 559 1184 500 
Q 1428 441 1663 441 
Q 2288 441 2617 861 
Q 2947 1281 2994 2138 
Q 2813 1869 2534 1725 
Q 2256 1581 1919 1581 
Q 1219 1581 811 2004 
Q 403 2428 403 3163 
Q 403 3881 828 4315 
Q 1253 4750 1959 4750 
Q 2769 4750 3195 4129 
Q 3622 3509 3622 2328 
Q 3622 1225 3098 567 
Q 2575 -91 1691 -91 
Q 1453 -91 1209 -44 
Q 966 3 703 97 
z
M 1959 2075 
Q 2384 2075 2632 2365 
Q 2881 2656 2881 3163 
Q 2881 3666 2632 3958 
Q 2384 4250 1959 4250 
Q 1534 4250 1286 3958 
Q 1038 3666 1038 3163 
Q 1038 2656 1286 2365 
Q 1534 2075 1959 2075 
z
" transform="scale(0.015625)"/>
       </defs>
       <use xlink:href="#DejaVuSans-30"/>
       <use xlink:href="#DejaVuSans-2e" x="63.623047"/>
       <use xlink:href="#DejaVuSans-39" x="95.410156"/>
      </g>
     </g>
    </g>
    <g id="text_25">
     <!-- loss -->
     <g transform="translate(552.901563 227.817812) rotate(-90) scale(0.1 -0.1)">
      <use xlink:href="#DejaVuSans-6c"/>
      <use xlink:href="#DejaVuSans-6f" x="27.783203"/>
      <use xlink:href="#DejaVuSans-73" x="88.964844"/>
      <use xlink:href="#DejaVuSans-73" x="141.064453"/>
     </g>
    </g>
   </g>
   <g id="line2d_25">
    <path d="M 92.290909 66.96 
L 93.104172 132.192915 
L 93.917435 222.544 
L 94.730698 292.897123 
L 95.543961 328.716661 
L 96.357224 344.55768 
L 97.170486 350.60445 
L 97.983749 351.439622 
L 98.797012 350.391063 
L 99.610275 349.590778 
L 100.423538 258.495989 
L 101.236801 300.795463 
L 102.050064 330.658092 
L 102.863327 343.988168 
L 103.67659 350.917188 
L 105.303115 351.567906 
L 106.116378 350.543754 
L 106.929641 350.161821 
L 107.742904 351.476451 
L 108.556167 266.759109 
L 109.36943 306.323515 
L 110.182693 334.326576 
L 110.995956 348.634678 
L 111.809218 355.803549 
L 112.622481 358.875735 
L 113.435744 360.197374 
L 114.249007 359.509775 
L 115.06227 360.313622 
L 115.875533 360.721004 
L 116.688796 261.042038 
L 117.502059 304.297316 
L 118.315322 335.310002 
L 119.128584 351.921755 
L 119.941847 355.720549 
L 120.75511 360.545873 
L 121.568373 362.48054 
L 122.381636 361.9758 
L 123.194899 361.932554 
L 124.008162 362.817749 
L 124.821425 269.186324 
L 125.634688 309.088287 
L 126.44795 337.755632 
L 127.261213 353.287077 
L 128.074476 359.510906 
L 128.887739 362.714964 
L 129.701002 364.6633 
L 130.514265 364.828452 
L 131.327528 365.352269 
L 132.140791 364.472919 
L 132.954054 265.754773 
L 133.767316 309.071557 
L 134.580579 338.901498 
L 135.393842 354.471288 
L 136.207105 361.40335 
L 137.020368 363.364313 
L 137.833631 364.875736 
L 138.646894 365.012874 
L 139.460157 365.899644 
L 140.27342 363.09394 
L 141.086682 270.085947 
L 141.899945 311.199074 
L 142.713208 340.898776 
L 143.526471 354.799252 
L 144.339734 363.39695 
L 145.152997 364.409857 
L 145.96626 364.912301 
L 146.779523 366.327883 
L 147.592786 365.80815 
L 148.406048 365.542143 
L 149.219311 268.652587 
L 150.032574 310.888343 
L 150.845837 340.181794 
L 151.6591 356.562838 
L 152.472363 362.827123 
L 153.285626 365.805475 
L 154.912152 367.657495 
L 155.725414 367.386318 
L 156.538677 367.780404 
L 157.35194 268.758882 
L 158.165203 312.184906 
L 158.978466 342.03798 
L 159.791729 357.050912 
L 160.604992 364.891964 
L 161.418255 366.250001 
L 162.231518 367.856017 
L 163.04478 367.352498 
L 163.858043 369.36 
L 164.671306 366.179629 
L 165.484569 268.332674 
L 166.297832 310.954414 
L 167.111095 343.007917 
L 167.924358 358.067175 
L 168.737621 364.123571 
L 169.550884 366.665774 
L 170.364146 368.46057 
L 171.177409 369.195382 
L 171.990672 369.150226 
L 172.803935 368.930384 
L 173.617198 270.959285 
L 174.430461 312.659323 
L 175.243724 326.217086 
L 176.056987 337.023129 
L 177.683512 354.324332 
L 178.496775 358.10621 
L 179.310038 361.115629 
L 180.123301 362.463077 
L 180.936564 364.835846 
L 181.749827 268.490984 
L 183.376353 310.046111 
L 184.189616 328.110899 
L 185.002878 341.120702 
L 185.816141 351.634942 
L 186.629404 356.314088 
L 187.442667 360.036517 
L 189.069193 363.580652 
L 189.882456 265.541437 
L 190.695719 291.640565 
L 191.508982 312.291779 
L 192.322244 328.774605 
L 193.135507 341.793306 
L 193.94877 349.952201 
L 194.762033 356.844701 
L 195.575296 359.200586 
L 196.388559 362.364279 
L 197.201822 363.185036 
L 198.015085 268.943104 
L 200.454873 328.612604 
L 201.268136 340.610201 
L 202.081399 348.553947 
L 203.707925 358.150825 
L 204.521188 360.797349 
L 205.334451 362.153824 
L 206.147714 269.15145 
L 207.774239 309.478245 
L 208.587502 325.060226 
L 209.400765 337.66608 
L 210.214028 346.249602 
L 211.027291 352.441887 
L 211.840554 357.192487 
L 212.653817 357.84253 
L 213.46708 361.153539 
L 214.280343 267.352526 
L 215.906868 307.705168 
L 216.720131 322.171118 
L 218.346657 344.350594 
L 219.15992 349.855808 
L 220.786446 358.729525 
L 221.599709 361.029511 
L 222.412971 269.182377 
L 223.226234 288.704533 
L 225.666023 333.333569 
L 226.479286 343.470427 
L 228.105812 353.907177 
L 228.919075 357.307224 
L 229.732337 358.316086 
L 230.5456 268.824297 
L 232.172126 303.111857 
L 233.798652 331.378726 
L 235.425178 346.470974 
L 236.238441 352.211976 
L 237.051703 354.7616 
L 237.864966 358.272609 
L 238.678229 268.180162 
L 240.304755 302.268648 
L 241.931281 328.105858 
L 242.744544 337.418539 
L 243.557807 344.633948 
L 244.371069 349.642293 
L 245.184332 353.695796 
L 245.997595 356.588615 
L 246.810858 267.926127 
L 248.437384 300.712353 
L 250.06391 325.358909 
L 250.877173 334.743911 
L 251.690435 341.624348 
L 252.503698 347.157454 
L 253.316961 351.182771 
L 254.130224 354.463316 
L 254.943487 268.165541 
L 255.75675 285.501336 
L 256.570013 297.282898 
L 258.196539 322.856376 
L 259.009801 332.427028 
L 260.636327 345.214043 
L 261.44959 348.090113 
L 262.262853 352.7376 
L 263.076116 268.417391 
L 265.515905 309.854379 
L 267.14243 330.148915 
L 268.768956 341.661306 
L 269.582219 344.767826 
L 270.395482 349.26729 
L 271.208745 269.258439 
L 273.648533 307.641437 
L 275.275059 325.974354 
L 276.088322 333.914667 
L 276.901585 338.99168 
L 277.714848 343.174124 
L 278.528111 349.292726 
L 279.341374 268.409662 
L 281.781162 304.476034 
L 283.407688 323.908073 
L 284.220951 331.373518 
L 285.034214 335.691254 
L 285.847477 341.538423 
L 286.66074 344.952781 
L 287.474003 268.783932 
L 289.913791 304.163734 
L 291.540317 321.533207 
L 292.35358 328.721959 
L 293.166843 334.136978 
L 293.980106 338.345385 
L 294.793369 343.596075 
L 295.606631 269.381168 
L 296.419894 279.820001 
L 297.233157 291.817277 
L 298.859683 310.513147 
L 301.299472 332.553203 
L 302.112735 335.303302 
L 302.925997 340.988199 
L 303.73926 268.669124 
L 306.992312 309.357702 
L 308.618838 321.330931 
L 309.432101 329.161605 
L 310.245363 333.88756 
L 311.058626 337.819697 
L 311.871889 267.289143 
L 312.685152 279.018662 
L 314.311678 297.0991 
L 315.124941 306.924622 
L 316.751467 319.754434 
L 317.564729 324.913823 
L 318.377992 330.794233 
L 319.191255 335.784561 
L 320.004518 268.494405 
L 320.817781 278.439069 
L 321.631044 286.770213 
L 322.444307 296.346677 
L 324.070833 311.615098 
L 326.510621 327.76951 
L 327.323884 331.326556 
L 328.137147 269.070064 
L 331.390199 302.384317 
L 332.203461 307.467181 
L 333.016724 313.480697 
L 333.829987 321.079274 
L 334.64325 326.1469 
L 335.456513 328.604824 
L 336.269776 268.740634 
L 337.896302 285.33486 
L 341.962616 317.485619 
L 343.589142 326.56511 
L 344.402405 269.293262 
L 345.215668 276.365072 
L 346.028931 285.287486 
L 346.842193 291.176473 
L 348.468719 304.67039 
L 350.908508 319.737652 
L 351.721771 322.810109 
L 352.535034 269.490241 
L 353.348297 275.349355 
L 354.161559 283.572341 
L 356.601348 301.292088 
L 358.227874 311.799397 
L 359.041137 315.565162 
L 359.8544 321.461234 
L 360.667663 267.728107 
L 362.294188 282.153975 
L 365.54724 305.130585 
L 367.987029 317.24497 
L 368.800291 268.037733 
L 370.426817 281.393284 
L 372.866606 298.186661 
L 373.679869 301.359304 
L 375.306395 311.38129 
L 376.119657 314.678308 
L 376.93292 268.520278 
L 377.746183 275.124729 
L 379.372709 285.165246 
L 380.185972 290.014341 
L 381.812498 300.672631 
L 382.625761 304.782433 
L 383.439024 307.224231 
L 384.252286 311.391951 
L 385.065549 269.718159 
L 385.878812 273.413068 
L 388.318601 289.990024 
L 389.945127 297.122851 
L 390.75839 302.482228 
L 391.571652 304.753422 
L 392.384915 309.633302 
L 393.198178 268.383995 
L 394.011441 273.145377 
L 394.824704 278.793213 
L 397.264493 291.479451 
L 398.077756 294.736631 
L 398.891018 300.267962 
L 399.704281 303.30085 
L 400.517544 305.533492 
L 401.330807 268.923275 
L 402.14407 273.633708 
L 402.957333 277.12719 
L 403.770596 281.948907 
L 405.397122 289.515568 
L 407.023647 297.572373 
L 407.83691 300.665031 
L 408.650173 303.143967 
L 409.463436 268.031779 
L 410.276699 271.288689 
L 411.089962 277.025499 
L 413.52975 287.862533 
L 414.343013 290.058024 
L 415.156276 296.418561 
L 415.969539 298.113466 
L 416.782802 301.808556 
L 417.596065 268.309231 
L 418.409328 272.055925 
L 419.222591 276.557498 
L 420.035854 279.464429 
L 420.849116 283.608385 
L 422.475642 289.402278 
L 423.288905 293.588296 
L 424.915431 299.663768 
L 425.728694 268.790567 
L 426.541957 271.711245 
L 427.35522 276.07296 
L 428.168482 279.433168 
L 428.981745 280.072776 
L 429.795008 285.228218 
L 430.608271 288.442718 
L 433.04806 296.145944 
L 433.861323 269.429005 
L 434.674586 272.490891 
L 435.487848 274.970714 
L 436.301111 278.4044 
L 437.114374 279.994836 
L 437.927637 283.896652 
L 439.554163 289.244996 
L 440.367426 291.624786 
L 441.180689 295.029526 
L 441.993952 268.443161 
L 442.807214 271.105457 
L 443.620477 275.111844 
L 445.247003 279.239456 
L 446.060266 283.046255 
L 446.873529 284.796956 
L 447.686792 286.273112 
L 448.500055 291.812969 
L 449.313318 292.849222 
L 450.12658 268.203258 
L 450.939843 270.442676 
L 451.753106 274.529859 
L 452.566369 277.080729 
L 454.192895 280.625134 
L 455.006158 284.20849 
L 455.819421 286.536046 
L 456.632684 288.496881 
L 457.445946 290.144927 
L 458.259209 269.216659 
L 459.072472 270.576259 
L 459.885735 273.640781 
L 460.698998 274.956054 
L 461.512261 277.849419 
L 462.325524 281.184204 
L 463.138787 282.442614 
L 463.95205 285.801909 
L 464.765312 285.046092 
L 465.578575 288.127562 
L 466.391838 268.495421 
L 467.205101 271.58939 
L 468.018364 273.266665 
L 469.64489 278.025668 
L 470.458153 279.090468 
L 472.897941 284.488436 
L 473.711204 287.427284 
L 474.524467 268.001804 
L 476.150993 272.249097 
L 476.964256 275.616211 
L 477.777519 275.827708 
L 478.590782 277.773652 
L 479.404044 280.696285 
L 480.217307 281.993555 
L 481.03057 284.522616 
L 481.843833 285.575342 
L 482.657096 267.880078 
L 483.470359 270.522224 
L 484.283622 272.036546 
L 485.910148 275.583664 
L 486.72341 278.495379 
L 487.536673 278.963792 
L 488.349936 281.816393 
L 489.163199 282.389981 
L 489.976462 284.797843 
L 490.789725 269.189051 
L 492.416251 271.630643 
L 493.229514 273.806421 
L 494.042776 276.625112 
L 494.856039 277.840456 
L 495.669302 279.858091 
L 496.482565 279.90531 
L 497.295828 281.677937 
L 498.109091 281.694307 
L 498.109091 281.694307 
" clip-path="url(#pe5d8f2bead)" style="fill: none; stroke: #ff0000; stroke-width: 1.5; stroke-linecap: square"/>
   </g>
   <g id="patch_8">
    <path d="M 72 384.48 
L 72 51.84 
" style="fill: none; stroke: #000000; stroke-width: 0.8; stroke-linejoin: miter; stroke-linecap: square"/>
   </g>
   <g id="patch_9">
    <path d="M 518.4 384.48 
L 518.4 51.84 
" style="fill: none; stroke: #000000; stroke-width: 0.8; stroke-linejoin: miter; stroke-linecap: square"/>
   </g>
   <g id="patch_10">
    <path d="M 72 384.48 
L 518.4 384.48 
" style="fill: none; stroke: #000000; stroke-width: 0.8; stroke-linejoin: miter; stroke-linecap: square"/>
   </g>
   <g id="patch_11">
    <path d="M 72 51.84 
L 518.4 51.84 
" style="fill: none; stroke: #000000; stroke-width: 0.8; stroke-linejoin: miter; stroke-linecap: square"/>
   </g>
   <g id="text_26">
    <!-- The learning curve on _0.00025_non_iid/host/9 -->
    <g transform="translate(151.056562 45.84) scale(0.12 -0.12)">
     <defs>
      <path id="DejaVuSans-54" d="M -19 4666 
L 3928 4666 
L 3928 4134 
L 2272 4134 
L 2272 0 
L 1638 0 
L 1638 4134 
L -19 4134 
L -19 4666 
z
" transform="scale(0.015625)"/>
      <path id="DejaVuSans-20" transform="scale(0.015625)"/>
      <path id="DejaVuSans-67" d="M 2906 1791 
Q 2906 2416 2648 2759 
Q 2391 3103 1925 3103 
Q 1463 3103 1205 2759 
Q 947 2416 947 1791 
Q 947 1169 1205 825 
Q 1463 481 1925 481 
Q 2391 481 2648 825 
Q 2906 1169 2906 1791 
z
M 3481 434 
Q 3481 -459 3084 -895 
Q 2688 -1331 1869 -1331 
Q 1566 -1331 1297 -1286 
Q 1028 -1241 775 -1147 
L 775 -588 
Q 1028 -725 1275 -790 
Q 1522 -856 1778 -856 
Q 2344 -856 2625 -561 
Q 2906 -266 2906 331 
L 2906 616 
Q 2728 306 2450 153 
Q 2172 0 1784 0 
Q 1141 0 747 490 
Q 353 981 353 1791 
Q 353 2603 747 3093 
Q 1141 3584 1784 3584 
Q 2172 3584 2450 3431 
Q 2728 3278 2906 2969 
L 2906 3500 
L 3481 3500 
L 3481 434 
z
" transform="scale(0.015625)"/>
      <path id="DejaVuSans-75" d="M 544 1381 
L 544 3500 
L 1119 3500 
L 1119 1403 
Q 1119 906 1312 657 
Q 1506 409 1894 409 
Q 2359 409 2629 706 
Q 2900 1003 2900 1516 
L 2900 3500 
L 3475 3500 
L 3475 0 
L 2900 0 
L 2900 538 
Q 2691 219 2414 64 
Q 2138 -91 1772 -91 
Q 1169 -91 856 284 
Q 544 659 544 1381 
z
M 1991 3584 
L 1991 3584 
z
" transform="scale(0.015625)"/>
      <path id="DejaVuSans-76" d="M 191 3500 
L 800 3500 
L 1894 563 
L 2988 3500 
L 3597 3500 
L 2284 0 
L 1503 0 
L 191 3500 
z
" transform="scale(0.015625)"/>
      <path id="DejaVuSans-3bb" d="M 1981 4316 
L 3597 0 
L 2988 0 
L 2006 2588 
L 800 0 
L 191 0 
L 1725 3356 
L 1494 3975 
Q 1347 4369 1013 4369 
L 713 4369 
L 713 4863 
L 1078 4856 
Q 1784 4847 1981 4316 
z
" transform="scale(0.015625)"/>
      <path id="DejaVuSans-5f" d="M 3263 -1063 
L 3263 -1509 
L -63 -1509 
L -63 -1063 
L 3263 -1063 
z
" transform="scale(0.015625)"/>
      <path id="DejaVuSans-64" d="M 2906 2969 
L 2906 4863 
L 3481 4863 
L 3481 0 
L 2906 0 
L 2906 525 
Q 2725 213 2448 61 
Q 2172 -91 1784 -91 
Q 1150 -91 751 415 
Q 353 922 353 1747 
Q 353 2572 751 3078 
Q 1150 3584 1784 3584 
Q 2172 3584 2448 3432 
Q 2725 3281 2906 2969 
z
M 947 1747 
Q 947 1113 1208 752 
Q 1469 391 1925 391 
Q 2381 391 2643 752 
Q 2906 1113 2906 1747 
Q 2906 2381 2643 2742 
Q 2381 3103 1925 3103 
Q 1469 3103 1208 2742 
Q 947 2381 947 1747 
z
" transform="scale(0.015625)"/>
      <path id="DejaVuSans-2f" d="M 1625 4666 
L 2156 4666 
L 531 -594 
L 0 -594 
L 1625 4666 
z
" transform="scale(0.015625)"/>
     </defs>
     <use xlink:href="#DejaVuSans-54"/>
     <use xlink:href="#DejaVuSans-68" x="61.083984"/>
     <use xlink:href="#DejaVuSans-65" x="124.462891"/>
     <use xlink:href="#DejaVuSans-20" x="185.986328"/>
     <use xlink:href="#DejaVuSans-6c" x="217.773438"/>
     <use xlink:href="#DejaVuSans-65" x="245.556641"/>
     <use xlink:href="#DejaVuSans-61" x="307.080078"/>
     <use xlink:href="#DejaVuSans-72" x="368.359375"/>
     <use xlink:href="#DejaVuSans-6e" x="407.722656"/>
     <use xlink:href="#DejaVuSans-69" x="471.101562"/>
     <use xlink:href="#DejaVuSans-6e" x="498.884766"/>
     <use xlink:href="#DejaVuSans-67" x="562.263672"/>
     <use xlink:href="#DejaVuSans-20" x="625.740234"/>
     <use xlink:href="#DejaVuSans-63" x="657.527344"/>
     <use xlink:href="#DejaVuSans-75" x="712.507812"/>
     <use xlink:href="#DejaVuSans-72" x="775.886719"/>
     <use xlink:href="#DejaVuSans-76" x="817"/>
     <use xlink:href="#DejaVuSans-65" x="876.179688"/>
     <use xlink:href="#DejaVuSans-20" x="937.703125"/>
     <use xlink:href="#DejaVuSans-6f" x="969.490234"/>
     <use xlink:href="#DejaVuSans-6e" x="1030.671875"/>
     <use xlink:href="#DejaVuSans-20" x="1094.050781"/>
     <use xlink:href="#DejaVuSans-3bb" x="1125.837891"/>
     <use xlink:href="#DejaVuSans-5f" x="1185.017578"/>
     <use xlink:href="#DejaVuSans-30" x="1235.017578"/>
     <use xlink:href="#DejaVuSans-2e" x="1298.640625"/>
     <use xlink:href="#DejaVuSans-30" x="1330.427734"/>
     <use xlink:href="#DejaVuSans-30" x="1394.050781"/>
     <use xlink:href="#DejaVuSans-30" x="1457.673828"/>
     <use xlink:href="#DejaVuSans-32" x="1521.296875"/>
     <use xlink:href="#DejaVuSans-35" x="1584.919922"/>
     <use xlink:href="#DejaVuSans-5f" x="1648.542969"/>
     <use xlink:href="#DejaVuSans-6e" x="1698.542969"/>
     <use xlink:href="#DejaVuSans-6f" x="1761.921875"/>
     <use xlink:href="#DejaVuSans-6e" x="1823.103516"/>
     <use xlink:href="#DejaVuSans-5f" x="1886.482422"/>
     <use xlink:href="#DejaVuSans-69" x="1936.482422"/>
     <use xlink:href="#DejaVuSans-69" x="1964.265625"/>
     <use xlink:href="#DejaVuSans-64" x="1992.048828"/>
     <use xlink:href="#DejaVuSans-2f" x="2055.525391"/>
     <use xlink:href="#DejaVuSans-68" x="2089.216797"/>
     <use xlink:href="#DejaVuSans-6f" x="2152.595703"/>
     <use xlink:href="#DejaVuSans-73" x="2213.777344"/>
     <use xlink:href="#DejaVuSans-74" x="2265.876953"/>
     <use xlink:href="#DejaVuSans-2f" x="2305.085938"/>
     <use xlink:href="#DejaVuSans-39" x="2338.777344"/>
    </g>
   </g>
   <g id="legend_2">
    <g id="patch_12">
     <path d="M 460.084375 74.518125 
L 511.4 74.518125 
Q 513.4 74.518125 513.4 72.518125 
L 513.4 58.84 
Q 513.4 56.84 511.4 56.84 
L 460.084375 56.84 
Q 458.084375 56.84 458.084375 58.84 
L 458.084375 72.518125 
Q 458.084375 74.518125 460.084375 74.518125 
z
" style="fill: #ffffff; opacity: 0.8; stroke: #cccccc; stroke-linejoin: miter"/>
    </g>
    <g id="line2d_26">
     <path d="M 462.084375 64.938438 
L 472.084375 64.938438 
L 482.084375 64.938438 
" style="fill: none; stroke: #ff0000; stroke-width: 1.5; stroke-linecap: square"/>
    </g>
    <g id="text_27">
     <!-- loss -->
     <g transform="translate(490.084375 68.438438) scale(0.1 -0.1)">
      <use xlink:href="#DejaVuSans-6c"/>
      <use xlink:href="#DejaVuSans-6f" x="27.783203"/>
      <use xlink:href="#DejaVuSans-73" x="88.964844"/>
      <use xlink:href="#DejaVuSans-73" x="141.064453"/>
     </g>
    </g>
   </g>
  </g>
 </g>
 <defs>
  <clipPath id="pe5d8f2bead">
   <rect x="72" y="51.84" width="446.4" height="332.64"/>
  </clipPath>
 </defs>
</svg>
