<?xml version="1.0" encoding="utf-8" standalone="no"?>
<!DOCTYPE svg PUBLIC "-//W3C//DTD SVG 1.1//EN"
  "http://www.w3.org/Graphics/SVG/1.1/DTD/svg11.dtd">
<!-- Created with matplotlib (https://matplotlib.org/) -->
<svg height="432pt" version="1.1" viewBox="0 0 576 432" width="576pt" xmlns="http://www.w3.org/2000/svg" xmlns:xlink="http://www.w3.org/1999/xlink">
 <metadata>
  <rdf:RDF xmlns:cc="http://creativecommons.org/ns#" xmlns:dc="http://purl.org/dc/elements/1.1/" xmlns:rdf="http://www.w3.org/1999/02/22-rdf-syntax-ns#">
   <cc:Work>
    <dc:type rdf:resource="http://purl.org/dc/dcmitype/StillImage"/>
    <dc:date>2023-04-17T00:04:52.871128</dc:date>
    <dc:format>image/svg+xml</dc:format>
    <dc:creator>
     <cc:Agent>
      <dc:title>Matplotlib v3.3.4, https://matplotlib.org/</dc:title>
     </cc:Agent>
    </dc:creator>
   </cc:Work>
  </rdf:RDF>
 </metadata>
 <defs>
  <style type="text/css">*{stroke-linecap:butt;stroke-linejoin:round;}</style>
 </defs>
 <g id="figure_1">
  <g id="patch_1">
   <path d="M 0 432 
L 576 432 
L 576 0 
L 0 0 
z
" style="fill:#ffffff;"/>
  </g>
  <g id="axes_1">
   <g id="patch_2">
    <path d="M 72 384.48 
L 518.4 384.48 
L 518.4 51.84 
L 72 51.84 
z
" style="fill:#ffffff;"/>
   </g>
   <g id="matplotlib.axis_1">
    <g id="xtick_1">
     <g id="line2d_1">
      <defs>
       <path d="M 0 0 
L 0 3.5 
" id="m82b83e278c" style="stroke:#000000;stroke-width:0.8;"/>
      </defs>
      <g>
       <use style="stroke:#000000;stroke-width:0.8;" x="92.290909" xlink:href="#m82b83e278c" y="384.48"/>
      </g>
     </g>
     <g id="text_1">
      <!-- 0 -->
      <g transform="translate(89.109659 399.078438)scale(0.1 -0.1)">
       <defs>
        <path d="M 31.78125 66.40625 
Q 24.171875 66.40625 20.328125 58.90625 
Q 16.5 51.421875 16.5 36.375 
Q 16.5 21.390625 20.328125 13.890625 
Q 24.171875 6.390625 31.78125 6.390625 
Q 39.453125 6.390625 43.28125 13.890625 
Q 47.125 21.390625 47.125 36.375 
Q 47.125 51.421875 43.28125 58.90625 
Q 39.453125 66.40625 31.78125 66.40625 
z
M 31.78125 74.21875 
Q 44.046875 74.21875 50.515625 64.515625 
Q 56.984375 54.828125 56.984375 36.375 
Q 56.984375 17.96875 50.515625 8.265625 
Q 44.046875 -1.421875 31.78125 -1.421875 
Q 19.53125 -1.421875 13.0625 8.265625 
Q 6.59375 17.96875 6.59375 36.375 
Q 6.59375 54.828125 13.0625 64.515625 
Q 19.53125 74.21875 31.78125 74.21875 
z
" id="DejaVuSans-48"/>
       </defs>
       <use xlink:href="#DejaVuSans-48"/>
      </g>
     </g>
    </g>
    <g id="xtick_2">
     <g id="line2d_2">
      <g>
       <use style="stroke:#000000;stroke-width:0.8;" x="173.617198" xlink:href="#m82b83e278c" y="384.48"/>
      </g>
     </g>
     <g id="text_2">
      <!-- 100 -->
      <g transform="translate(164.073448 399.078438)scale(0.1 -0.1)">
       <defs>
        <path d="M 12.40625 8.296875 
L 28.515625 8.296875 
L 28.515625 63.921875 
L 10.984375 60.40625 
L 10.984375 69.390625 
L 28.421875 72.90625 
L 38.28125 72.90625 
L 38.28125 8.296875 
L 54.390625 8.296875 
L 54.390625 0 
L 12.40625 0 
z
" id="DejaVuSans-49"/>
       </defs>
       <use xlink:href="#DejaVuSans-49"/>
       <use x="63.623047" xlink:href="#DejaVuSans-48"/>
       <use x="127.246094" xlink:href="#DejaVuSans-48"/>
      </g>
     </g>
    </g>
    <g id="xtick_3">
     <g id="line2d_3">
      <g>
       <use style="stroke:#000000;stroke-width:0.8;" x="254.943487" xlink:href="#m82b83e278c" y="384.48"/>
      </g>
     </g>
     <g id="text_3">
      <!-- 200 -->
      <g transform="translate(245.399737 399.078438)scale(0.1 -0.1)">
       <defs>
        <path d="M 19.1875 8.296875 
L 53.609375 8.296875 
L 53.609375 0 
L 7.328125 0 
L 7.328125 8.296875 
Q 12.9375 14.109375 22.625 23.890625 
Q 32.328125 33.6875 34.8125 36.53125 
Q 39.546875 41.84375 41.421875 45.53125 
Q 43.3125 49.21875 43.3125 52.78125 
Q 43.3125 58.59375 39.234375 62.25 
Q 35.15625 65.921875 28.609375 65.921875 
Q 23.96875 65.921875 18.8125 64.3125 
Q 13.671875 62.703125 7.8125 59.421875 
L 7.8125 69.390625 
Q 13.765625 71.78125 18.9375 73 
Q 24.125 74.21875 28.421875 74.21875 
Q 39.75 74.21875 46.484375 68.546875 
Q 53.21875 62.890625 53.21875 53.421875 
Q 53.21875 48.921875 51.53125 44.890625 
Q 49.859375 40.875 45.40625 35.40625 
Q 44.1875 33.984375 37.640625 27.21875 
Q 31.109375 20.453125 19.1875 8.296875 
z
" id="DejaVuSans-50"/>
       </defs>
       <use xlink:href="#DejaVuSans-50"/>
       <use x="63.623047" xlink:href="#DejaVuSans-48"/>
       <use x="127.246094" xlink:href="#DejaVuSans-48"/>
      </g>
     </g>
    </g>
    <g id="xtick_4">
     <g id="line2d_4">
      <g>
       <use style="stroke:#000000;stroke-width:0.8;" x="336.269776" xlink:href="#m82b83e278c" y="384.48"/>
      </g>
     </g>
     <g id="text_4">
      <!-- 300 -->
      <g transform="translate(326.726026 399.078438)scale(0.1 -0.1)">
       <defs>
        <path d="M 40.578125 39.3125 
Q 47.65625 37.796875 51.625 33 
Q 55.609375 28.21875 55.609375 21.1875 
Q 55.609375 10.40625 48.1875 4.484375 
Q 40.765625 -1.421875 27.09375 -1.421875 
Q 22.515625 -1.421875 17.65625 -0.515625 
Q 12.796875 0.390625 7.625 2.203125 
L 7.625 11.71875 
Q 11.71875 9.328125 16.59375 8.109375 
Q 21.484375 6.890625 26.8125 6.890625 
Q 36.078125 6.890625 40.9375 10.546875 
Q 45.796875 14.203125 45.796875 21.1875 
Q 45.796875 27.640625 41.28125 31.265625 
Q 36.765625 34.90625 28.71875 34.90625 
L 20.21875 34.90625 
L 20.21875 43.015625 
L 29.109375 43.015625 
Q 36.375 43.015625 40.234375 45.921875 
Q 44.09375 48.828125 44.09375 54.296875 
Q 44.09375 59.90625 40.109375 62.90625 
Q 36.140625 65.921875 28.71875 65.921875 
Q 24.65625 65.921875 20.015625 65.03125 
Q 15.375 64.15625 9.8125 62.3125 
L 9.8125 71.09375 
Q 15.4375 72.65625 20.34375 73.4375 
Q 25.25 74.21875 29.59375 74.21875 
Q 40.828125 74.21875 47.359375 69.109375 
Q 53.90625 64.015625 53.90625 55.328125 
Q 53.90625 49.265625 50.4375 45.09375 
Q 46.96875 40.921875 40.578125 39.3125 
z
" id="DejaVuSans-51"/>
       </defs>
       <use xlink:href="#DejaVuSans-51"/>
       <use x="63.623047" xlink:href="#DejaVuSans-48"/>
       <use x="127.246094" xlink:href="#DejaVuSans-48"/>
      </g>
     </g>
    </g>
    <g id="xtick_5">
     <g id="line2d_5">
      <g>
       <use style="stroke:#000000;stroke-width:0.8;" x="417.596065" xlink:href="#m82b83e278c" y="384.48"/>
      </g>
     </g>
     <g id="text_5">
      <!-- 400 -->
      <g transform="translate(408.052315 399.078438)scale(0.1 -0.1)">
       <defs>
        <path d="M 37.796875 64.3125 
L 12.890625 25.390625 
L 37.796875 25.390625 
z
M 35.203125 72.90625 
L 47.609375 72.90625 
L 47.609375 25.390625 
L 58.015625 25.390625 
L 58.015625 17.1875 
L 47.609375 17.1875 
L 47.609375 0 
L 37.796875 0 
L 37.796875 17.1875 
L 4.890625 17.1875 
L 4.890625 26.703125 
z
" id="DejaVuSans-52"/>
       </defs>
       <use xlink:href="#DejaVuSans-52"/>
       <use x="63.623047" xlink:href="#DejaVuSans-48"/>
       <use x="127.246094" xlink:href="#DejaVuSans-48"/>
      </g>
     </g>
    </g>
    <g id="xtick_6">
     <g id="line2d_6">
      <g>
       <use style="stroke:#000000;stroke-width:0.8;" x="498.922354" xlink:href="#m82b83e278c" y="384.48"/>
      </g>
     </g>
     <g id="text_6">
      <!-- 500 -->
      <g transform="translate(489.378604 399.078438)scale(0.1 -0.1)">
       <defs>
        <path d="M 10.796875 72.90625 
L 49.515625 72.90625 
L 49.515625 64.59375 
L 19.828125 64.59375 
L 19.828125 46.734375 
Q 21.96875 47.46875 24.109375 47.828125 
Q 26.265625 48.1875 28.421875 48.1875 
Q 40.625 48.1875 47.75 41.5 
Q 54.890625 34.8125 54.890625 23.390625 
Q 54.890625 11.625 47.5625 5.09375 
Q 40.234375 -1.421875 26.90625 -1.421875 
Q 22.3125 -1.421875 17.546875 -0.640625 
Q 12.796875 0.140625 7.71875 1.703125 
L 7.71875 11.625 
Q 12.109375 9.234375 16.796875 8.0625 
Q 21.484375 6.890625 26.703125 6.890625 
Q 35.15625 6.890625 40.078125 11.328125 
Q 45.015625 15.765625 45.015625 23.390625 
Q 45.015625 31 40.078125 35.4375 
Q 35.15625 39.890625 26.703125 39.890625 
Q 22.75 39.890625 18.8125 39.015625 
Q 14.890625 38.140625 10.796875 36.28125 
z
" id="DejaVuSans-53"/>
       </defs>
       <use xlink:href="#DejaVuSans-53"/>
       <use x="63.623047" xlink:href="#DejaVuSans-48"/>
       <use x="127.246094" xlink:href="#DejaVuSans-48"/>
      </g>
     </g>
    </g>
    <g id="text_7">
     <!-- epoch -->
     <g transform="translate(279.971875 412.756563)scale(0.1 -0.1)">
      <defs>
       <path d="M 56.203125 29.59375 
L 56.203125 25.203125 
L 14.890625 25.203125 
Q 15.484375 15.921875 20.484375 11.0625 
Q 25.484375 6.203125 34.421875 6.203125 
Q 39.59375 6.203125 44.453125 7.46875 
Q 49.3125 8.734375 54.109375 11.28125 
L 54.109375 2.78125 
Q 49.265625 0.734375 44.1875 -0.34375 
Q 39.109375 -1.421875 33.890625 -1.421875 
Q 20.796875 -1.421875 13.15625 6.1875 
Q 5.515625 13.8125 5.515625 26.8125 
Q 5.515625 40.234375 12.765625 48.109375 
Q 20.015625 56 32.328125 56 
Q 43.359375 56 49.78125 48.890625 
Q 56.203125 41.796875 56.203125 29.59375 
z
M 47.21875 32.234375 
Q 47.125 39.59375 43.09375 43.984375 
Q 39.0625 48.390625 32.421875 48.390625 
Q 24.90625 48.390625 20.390625 44.140625 
Q 15.875 39.890625 15.1875 32.171875 
z
" id="DejaVuSans-101"/>
       <path d="M 18.109375 8.203125 
L 18.109375 -20.796875 
L 9.078125 -20.796875 
L 9.078125 54.6875 
L 18.109375 54.6875 
L 18.109375 46.390625 
Q 20.953125 51.265625 25.265625 53.625 
Q 29.59375 56 35.59375 56 
Q 45.5625 56 51.78125 48.09375 
Q 58.015625 40.1875 58.015625 27.296875 
Q 58.015625 14.40625 51.78125 6.484375 
Q 45.5625 -1.421875 35.59375 -1.421875 
Q 29.59375 -1.421875 25.265625 0.953125 
Q 20.953125 3.328125 18.109375 8.203125 
z
M 48.6875 27.296875 
Q 48.6875 37.203125 44.609375 42.84375 
Q 40.53125 48.484375 33.40625 48.484375 
Q 26.265625 48.484375 22.1875 42.84375 
Q 18.109375 37.203125 18.109375 27.296875 
Q 18.109375 17.390625 22.1875 11.75 
Q 26.265625 6.109375 33.40625 6.109375 
Q 40.53125 6.109375 44.609375 11.75 
Q 48.6875 17.390625 48.6875 27.296875 
z
" id="DejaVuSans-112"/>
       <path d="M 30.609375 48.390625 
Q 23.390625 48.390625 19.1875 42.75 
Q 14.984375 37.109375 14.984375 27.296875 
Q 14.984375 17.484375 19.15625 11.84375 
Q 23.34375 6.203125 30.609375 6.203125 
Q 37.796875 6.203125 41.984375 11.859375 
Q 46.1875 17.53125 46.1875 27.296875 
Q 46.1875 37.015625 41.984375 42.703125 
Q 37.796875 48.390625 30.609375 48.390625 
z
M 30.609375 56 
Q 42.328125 56 49.015625 48.375 
Q 55.71875 40.765625 55.71875 27.296875 
Q 55.71875 13.875 49.015625 6.21875 
Q 42.328125 -1.421875 30.609375 -1.421875 
Q 18.84375 -1.421875 12.171875 6.21875 
Q 5.515625 13.875 5.515625 27.296875 
Q 5.515625 40.765625 12.171875 48.375 
Q 18.84375 56 30.609375 56 
z
" id="DejaVuSans-111"/>
       <path d="M 48.78125 52.59375 
L 48.78125 44.1875 
Q 44.96875 46.296875 41.140625 47.34375 
Q 37.3125 48.390625 33.40625 48.390625 
Q 24.65625 48.390625 19.8125 42.84375 
Q 14.984375 37.3125 14.984375 27.296875 
Q 14.984375 17.28125 19.8125 11.734375 
Q 24.65625 6.203125 33.40625 6.203125 
Q 37.3125 6.203125 41.140625 7.25 
Q 44.96875 8.296875 48.78125 10.40625 
L 48.78125 2.09375 
Q 45.015625 0.34375 40.984375 -0.53125 
Q 36.96875 -1.421875 32.421875 -1.421875 
Q 20.0625 -1.421875 12.78125 6.34375 
Q 5.515625 14.109375 5.515625 27.296875 
Q 5.515625 40.671875 12.859375 48.328125 
Q 20.21875 56 33.015625 56 
Q 37.15625 56 41.109375 55.140625 
Q 45.0625 54.296875 48.78125 52.59375 
z
" id="DejaVuSans-99"/>
       <path d="M 54.890625 33.015625 
L 54.890625 0 
L 45.90625 0 
L 45.90625 32.71875 
Q 45.90625 40.484375 42.875 44.328125 
Q 39.84375 48.1875 33.796875 48.1875 
Q 26.515625 48.1875 22.3125 43.546875 
Q 18.109375 38.921875 18.109375 30.90625 
L 18.109375 0 
L 9.078125 0 
L 9.078125 75.984375 
L 18.109375 75.984375 
L 18.109375 46.1875 
Q 21.34375 51.125 25.703125 53.5625 
Q 30.078125 56 35.796875 56 
Q 45.21875 56 50.046875 50.171875 
Q 54.890625 44.34375 54.890625 33.015625 
z
" id="DejaVuSans-104"/>
      </defs>
      <use xlink:href="#DejaVuSans-101"/>
      <use x="61.523438" xlink:href="#DejaVuSans-112"/>
      <use x="125" xlink:href="#DejaVuSans-111"/>
      <use x="186.181641" xlink:href="#DejaVuSans-99"/>
      <use x="241.162109" xlink:href="#DejaVuSans-104"/>
     </g>
    </g>
   </g>
   <g id="matplotlib.axis_2">
    <g id="ytick_1">
     <g id="line2d_7">
      <defs>
       <path d="M 0 0 
L -3.5 0 
" id="m74606f490e" style="stroke:#000000;stroke-width:0.8;"/>
      </defs>
      <g>
       <use style="stroke:#000000;stroke-width:0.8;" x="72" xlink:href="#m74606f490e" y="384.48"/>
      </g>
     </g>
     <g id="text_8">
      <!-- 0.0 -->
      <g transform="translate(49.096875 388.279219)scale(0.1 -0.1)">
       <defs>
        <path d="M 10.6875 12.40625 
L 21 12.40625 
L 21 0 
L 10.6875 0 
z
" id="DejaVuSans-46"/>
       </defs>
       <use xlink:href="#DejaVuSans-48"/>
       <use x="63.623047" xlink:href="#DejaVuSans-46"/>
       <use x="95.410156" xlink:href="#DejaVuSans-48"/>
      </g>
     </g>
    </g>
    <g id="ytick_2">
     <g id="line2d_8">
      <g>
       <use style="stroke:#000000;stroke-width:0.8;" x="72" xlink:href="#m74606f490e" y="317.952"/>
      </g>
     </g>
     <g id="text_9">
      <!-- 0.2 -->
      <g transform="translate(49.096875 321.751219)scale(0.1 -0.1)">
       <use xlink:href="#DejaVuSans-48"/>
       <use x="63.623047" xlink:href="#DejaVuSans-46"/>
       <use x="95.410156" xlink:href="#DejaVuSans-50"/>
      </g>
     </g>
    </g>
    <g id="ytick_3">
     <g id="line2d_9">
      <g>
       <use style="stroke:#000000;stroke-width:0.8;" x="72" xlink:href="#m74606f490e" y="251.424"/>
      </g>
     </g>
     <g id="text_10">
      <!-- 0.4 -->
      <g transform="translate(49.096875 255.223219)scale(0.1 -0.1)">
       <use xlink:href="#DejaVuSans-48"/>
       <use x="63.623047" xlink:href="#DejaVuSans-46"/>
       <use x="95.410156" xlink:href="#DejaVuSans-52"/>
      </g>
     </g>
    </g>
    <g id="ytick_4">
     <g id="line2d_10">
      <g>
       <use style="stroke:#000000;stroke-width:0.8;" x="72" xlink:href="#m74606f490e" y="184.896"/>
      </g>
     </g>
     <g id="text_11">
      <!-- 0.6 -->
      <g transform="translate(49.096875 188.695219)scale(0.1 -0.1)">
       <defs>
        <path d="M 33.015625 40.375 
Q 26.375 40.375 22.484375 35.828125 
Q 18.609375 31.296875 18.609375 23.390625 
Q 18.609375 15.53125 22.484375 10.953125 
Q 26.375 6.390625 33.015625 6.390625 
Q 39.65625 6.390625 43.53125 10.953125 
Q 47.40625 15.53125 47.40625 23.390625 
Q 47.40625 31.296875 43.53125 35.828125 
Q 39.65625 40.375 33.015625 40.375 
z
M 52.59375 71.296875 
L 52.59375 62.3125 
Q 48.875 64.0625 45.09375 64.984375 
Q 41.3125 65.921875 37.59375 65.921875 
Q 27.828125 65.921875 22.671875 59.328125 
Q 17.53125 52.734375 16.796875 39.40625 
Q 19.671875 43.65625 24.015625 45.921875 
Q 28.375 48.1875 33.59375 48.1875 
Q 44.578125 48.1875 50.953125 41.515625 
Q 57.328125 34.859375 57.328125 23.390625 
Q 57.328125 12.15625 50.6875 5.359375 
Q 44.046875 -1.421875 33.015625 -1.421875 
Q 20.359375 -1.421875 13.671875 8.265625 
Q 6.984375 17.96875 6.984375 36.375 
Q 6.984375 53.65625 15.1875 63.9375 
Q 23.390625 74.21875 37.203125 74.21875 
Q 40.921875 74.21875 44.703125 73.484375 
Q 48.484375 72.75 52.59375 71.296875 
z
" id="DejaVuSans-54"/>
       </defs>
       <use xlink:href="#DejaVuSans-48"/>
       <use x="63.623047" xlink:href="#DejaVuSans-46"/>
       <use x="95.410156" xlink:href="#DejaVuSans-54"/>
      </g>
     </g>
    </g>
    <g id="ytick_5">
     <g id="line2d_11">
      <g>
       <use style="stroke:#000000;stroke-width:0.8;" x="72" xlink:href="#m74606f490e" y="118.368"/>
      </g>
     </g>
     <g id="text_12">
      <!-- 0.8 -->
      <g transform="translate(49.096875 122.167219)scale(0.1 -0.1)">
       <defs>
        <path d="M 31.78125 34.625 
Q 24.75 34.625 20.71875 30.859375 
Q 16.703125 27.09375 16.703125 20.515625 
Q 16.703125 13.921875 20.71875 10.15625 
Q 24.75 6.390625 31.78125 6.390625 
Q 38.8125 6.390625 42.859375 10.171875 
Q 46.921875 13.96875 46.921875 20.515625 
Q 46.921875 27.09375 42.890625 30.859375 
Q 38.875 34.625 31.78125 34.625 
z
M 21.921875 38.8125 
Q 15.578125 40.375 12.03125 44.71875 
Q 8.5 49.078125 8.5 55.328125 
Q 8.5 64.0625 14.71875 69.140625 
Q 20.953125 74.21875 31.78125 74.21875 
Q 42.671875 74.21875 48.875 69.140625 
Q 55.078125 64.0625 55.078125 55.328125 
Q 55.078125 49.078125 51.53125 44.71875 
Q 48 40.375 41.703125 38.8125 
Q 48.828125 37.15625 52.796875 32.3125 
Q 56.78125 27.484375 56.78125 20.515625 
Q 56.78125 9.90625 50.3125 4.234375 
Q 43.84375 -1.421875 31.78125 -1.421875 
Q 19.734375 -1.421875 13.25 4.234375 
Q 6.78125 9.90625 6.78125 20.515625 
Q 6.78125 27.484375 10.78125 32.3125 
Q 14.796875 37.15625 21.921875 38.8125 
z
M 18.3125 54.390625 
Q 18.3125 48.734375 21.84375 45.5625 
Q 25.390625 42.390625 31.78125 42.390625 
Q 38.140625 42.390625 41.71875 45.5625 
Q 45.3125 48.734375 45.3125 54.390625 
Q 45.3125 60.0625 41.71875 63.234375 
Q 38.140625 66.40625 31.78125 66.40625 
Q 25.390625 66.40625 21.84375 63.234375 
Q 18.3125 60.0625 18.3125 54.390625 
z
" id="DejaVuSans-56"/>
       </defs>
       <use xlink:href="#DejaVuSans-48"/>
       <use x="63.623047" xlink:href="#DejaVuSans-46"/>
       <use x="95.410156" xlink:href="#DejaVuSans-56"/>
      </g>
     </g>
    </g>
    <g id="ytick_6">
     <g id="line2d_12">
      <g>
       <use style="stroke:#000000;stroke-width:0.8;" x="72" xlink:href="#m74606f490e" y="51.84"/>
      </g>
     </g>
     <g id="text_13">
      <!-- 1.0 -->
      <g transform="translate(49.096875 55.639219)scale(0.1 -0.1)">
       <use xlink:href="#DejaVuSans-49"/>
       <use x="63.623047" xlink:href="#DejaVuSans-46"/>
       <use x="95.410156" xlink:href="#DejaVuSans-48"/>
      </g>
     </g>
    </g>
    <g id="text_14">
     <!-- rate -->
     <g transform="translate(43.017187 228.31625)rotate(-90)scale(0.1 -0.1)">
      <defs>
       <path d="M 41.109375 46.296875 
Q 39.59375 47.171875 37.8125 47.578125 
Q 36.03125 48 33.890625 48 
Q 26.265625 48 22.1875 43.046875 
Q 18.109375 38.09375 18.109375 28.8125 
L 18.109375 0 
L 9.078125 0 
L 9.078125 54.6875 
L 18.109375 54.6875 
L 18.109375 46.1875 
Q 20.953125 51.171875 25.484375 53.578125 
Q 30.03125 56 36.53125 56 
Q 37.453125 56 38.578125 55.875 
Q 39.703125 55.765625 41.0625 55.515625 
z
" id="DejaVuSans-114"/>
       <path d="M 34.28125 27.484375 
Q 23.390625 27.484375 19.1875 25 
Q 14.984375 22.515625 14.984375 16.5 
Q 14.984375 11.71875 18.140625 8.90625 
Q 21.296875 6.109375 26.703125 6.109375 
Q 34.1875 6.109375 38.703125 11.40625 
Q 43.21875 16.703125 43.21875 25.484375 
L 43.21875 27.484375 
z
M 52.203125 31.203125 
L 52.203125 0 
L 43.21875 0 
L 43.21875 8.296875 
Q 40.140625 3.328125 35.546875 0.953125 
Q 30.953125 -1.421875 24.3125 -1.421875 
Q 15.921875 -1.421875 10.953125 3.296875 
Q 6 8.015625 6 15.921875 
Q 6 25.140625 12.171875 29.828125 
Q 18.359375 34.515625 30.609375 34.515625 
L 43.21875 34.515625 
L 43.21875 35.40625 
Q 43.21875 41.609375 39.140625 45 
Q 35.0625 48.390625 27.6875 48.390625 
Q 23 48.390625 18.546875 47.265625 
Q 14.109375 46.140625 10.015625 43.890625 
L 10.015625 52.203125 
Q 14.9375 54.109375 19.578125 55.046875 
Q 24.21875 56 28.609375 56 
Q 40.484375 56 46.34375 49.84375 
Q 52.203125 43.703125 52.203125 31.203125 
z
" id="DejaVuSans-97"/>
       <path d="M 18.3125 70.21875 
L 18.3125 54.6875 
L 36.8125 54.6875 
L 36.8125 47.703125 
L 18.3125 47.703125 
L 18.3125 18.015625 
Q 18.3125 11.328125 20.140625 9.421875 
Q 21.96875 7.515625 27.59375 7.515625 
L 36.8125 7.515625 
L 36.8125 0 
L 27.59375 0 
Q 17.1875 0 13.234375 3.875 
Q 9.28125 7.765625 9.28125 18.015625 
L 9.28125 47.703125 
L 2.6875 47.703125 
L 2.6875 54.6875 
L 9.28125 54.6875 
L 9.28125 70.21875 
z
" id="DejaVuSans-116"/>
      </defs>
      <use xlink:href="#DejaVuSans-114"/>
      <use x="41.113281" xlink:href="#DejaVuSans-97"/>
      <use x="102.392578" xlink:href="#DejaVuSans-116"/>
      <use x="141.601562" xlink:href="#DejaVuSans-101"/>
     </g>
    </g>
   </g>
   <g id="line2d_13">
    <path clip-path="url(#p8f5121afcb)" d="M 92.290909 206.597334 
L 93.104172 130.164708 
L 93.917435 129.80249 
L 94.730698 130.570995 
L 95.543961 128.402489 
L 96.357224 125.212213 
L 97.170486 125.697211 
L 97.983749 124.38114 
L 98.797012 124.111573 
L 99.610275 123.482699 
L 100.423538 110.802437 
L 101.236801 138.141095 
L 102.050064 121.883165 
L 102.863327 131.801229 
L 103.67659 121.242283 
L 104.489852 124.819277 
L 105.303115 122.654361 
L 106.116378 121.519113 
L 106.929641 121.12723 
L 107.742904 119.113765 
L 108.556167 112.63952 
L 109.36943 140.373897 
L 110.182693 119.240419 
L 110.995956 128.851602 
L 111.809218 120.008825 
L 112.622481 118.758888 
L 113.435744 120.139687 
L 114.249007 116.608974 
L 115.06227 116.833506 
L 115.875533 114.262861 
L 116.688796 113.335609 
L 117.502059 139.509519 
L 118.315322 120.402981 
L 119.128584 123.780598 
L 119.941847 120.738174 
L 120.75511 115.201047 
L 121.568373 117.127408 
L 122.381636 112.808777 
L 123.194899 111.584149 
L 124.008162 109.626551 
L 124.821425 110.217786 
L 125.634688 141.075152 
L 126.44795 121.93384 
L 127.261213 118.121982 
L 128.074476 121.310217 
L 128.887739 113.534062 
L 129.701002 116.048706 
L 130.514265 111.185924 
L 131.327528 108.516669 
L 132.140791 106.984202 
L 132.954054 109.197817 
L 133.767316 141.380618 
L 134.580579 124.862958 
L 135.393842 113.827118 
L 136.207105 119.971751 
L 137.020368 109.656311 
L 137.833631 110.241405 
L 138.646894 109.118291 
L 140.27342 103.256085 
L 141.086682 111.821898 
L 141.899945 140.706469 
L 143.526471 112.461219 
L 144.339734 118.898725 
L 145.152997 110.310623 
L 145.96626 105.140943 
L 146.779523 104.818803 
L 147.592786 103.52925 
L 148.406048 99.670107 
L 149.219311 116.174225 
L 150.032574 138.084311 
L 150.845837 126.589788 
L 151.6591 107.619554 
L 152.472363 116.735509 
L 154.098889 103.033171 
L 154.912152 101.761296 
L 155.725414 101.075915 
L 156.538677 97.857022 
L 157.35194 112.348047 
L 158.165203 137.422459 
L 158.978466 130.34939 
L 159.791729 108.461045 
L 160.604992 112.637958 
L 161.418255 108.322651 
L 162.231518 102.524877 
L 163.04478 99.72272 
L 163.858043 98.700887 
L 164.671306 94.295808 
L 165.484569 114.356449 
L 166.297832 137.91684 
L 167.111095 129.514705 
L 167.924358 108.096575 
L 168.737621 106.208386 
L 169.550884 110.026336 
L 170.364146 101.579238 
L 172.803935 93.526988 
L 173.617198 111.328595 
L 174.430461 131.91014 
L 175.243724 131.709118 
L 176.056987 122.593 
L 176.87025 115.634909 
L 177.683512 111.149103 
L 178.496775 111.879334 
L 179.310038 112.763361 
L 180.123301 106.666833 
L 180.936564 106.293235 
L 181.749827 109.433722 
L 182.56309 113.273249 
L 183.376353 128.507574 
L 184.189616 130.622136 
L 185.002878 123.340116 
L 185.816141 113.389702 
L 187.442667 106.778832 
L 188.25593 105.412294 
L 189.069193 105.902206 
L 189.882456 106.845438 
L 190.695719 110.704777 
L 191.508982 126.254364 
L 192.322244 129.364556 
L 193.135507 123.372566 
L 194.762033 108.880592 
L 195.575296 104.527551 
L 196.388559 103.934564 
L 197.201822 104.264961 
L 198.015085 114.68162 
L 198.828348 111.998429 
L 199.64161 123.404799 
L 200.454873 126.736874 
L 201.268136 123.426514 
L 202.081399 117.531239 
L 202.894662 110.692217 
L 203.707925 106.48991 
L 204.521188 103.347271 
L 205.334451 100.821524 
L 206.147714 109.377362 
L 206.960976 108.011443 
L 207.774239 120.440255 
L 208.587502 126.660052 
L 209.400765 122.464234 
L 210.214028 117.488242 
L 211.027291 110.674152 
L 212.653817 103.496362 
L 213.46708 100.9351 
L 214.280343 117.950875 
L 215.093605 107.455784 
L 216.720131 124.11199 
L 217.533394 123.47947 
L 218.346657 119.412271 
L 219.15992 112.546237 
L 219.973183 108.079199 
L 220.786446 102.519233 
L 221.599709 100.059653 
L 222.412971 122.000158 
L 223.226234 108.232654 
L 224.039497 112.767681 
L 224.85276 120.643602 
L 225.666023 123.181566 
L 227.292549 112.441231 
L 228.919075 103.04504 
L 229.732337 103.36119 
L 230.5456 116.55329 
L 231.358863 103.460285 
L 232.985389 120.538384 
L 233.798652 119.034628 
L 234.611915 117.977689 
L 235.425178 114.111961 
L 236.238441 107.649374 
L 237.051703 107.98686 
L 237.864966 103.479717 
L 238.678229 116.6344 
L 239.491492 101.723186 
L 240.304755 107.382222 
L 241.118018 114.593715 
L 241.931281 120.38736 
L 242.744544 116.796653 
L 244.371069 112.392665 
L 245.184332 107.174746 
L 245.997595 102.717081 
L 246.810858 117.122853 
L 247.624121 107.212831 
L 248.437384 105.934943 
L 249.250647 112.965942 
L 250.06391 118.368236 
L 250.877173 117.215965 
L 252.503698 111.402399 
L 253.316961 106.005363 
L 254.130224 103.22778 
L 254.943487 119.549966 
L 255.75675 108.033565 
L 256.570013 106.985426 
L 257.383276 113.135792 
L 258.196539 115.483863 
L 259.009801 115.65516 
L 259.823064 113.41629 
L 260.636327 111.921206 
L 261.44959 104.597493 
L 262.262853 103.699603 
L 263.076116 114.295156 
L 263.889379 106.562343 
L 264.702642 104.41807 
L 265.515905 105.172812 
L 266.329167 113.973468 
L 267.14243 115.640094 
L 267.955693 111.893704 
L 268.768956 111.176925 
L 269.582219 109.374063 
L 270.395482 105.497396 
L 271.208745 112.689345 
L 272.022008 104.006989 
L 272.835271 102.113038 
L 273.648533 108.407354 
L 274.461796 109.38645 
L 275.275059 111.408302 
L 276.088322 113.734561 
L 276.901585 109.993438 
L 277.714848 108.195218 
L 278.528111 107.283952 
L 279.341374 117.73222 
L 280.154637 106.125953 
L 280.967899 101.734203 
L 281.781162 103.168339 
L 283.407688 109.978974 
L 284.220951 111.219139 
L 285.034214 109.033479 
L 285.847477 109.068771 
L 286.66074 106.038878 
L 287.474003 115.904267 
L 288.287265 102.846211 
L 289.100528 101.10972 
L 289.913791 104.125085 
L 290.727054 106.451062 
L 291.540317 109.621775 
L 292.35358 108.647824 
L 293.166843 110.36485 
L 293.980106 107.484583 
L 294.793369 105.943937 
L 295.606631 111.048873 
L 296.419894 106.12196 
L 297.233157 98.572872 
L 298.04642 101.636952 
L 298.859683 104.022989 
L 299.672946 107.177529 
L 300.486209 107.946188 
L 301.299472 106.83326 
L 302.112735 105.916492 
L 302.925997 106.808055 
L 303.73926 113.416359 
L 304.552523 107.104526 
L 305.365786 103.325184 
L 306.179049 100.519404 
L 306.992312 98.743443 
L 307.805575 103.621467 
L 308.618838 107.720312 
L 309.432101 107.594858 
L 310.245363 107.037355 
L 311.058626 107.587095 
L 311.871889 114.753339 
L 312.685152 105.844698 
L 313.498415 100.935536 
L 314.311678 99.247673 
L 315.124941 101.446547 
L 315.938204 100.858751 
L 316.751467 104.344517 
L 318.377992 105.258432 
L 319.191255 106.686352 
L 320.004518 110.352887 
L 320.817781 109.083292 
L 321.631044 99.641363 
L 322.444307 95.4072 
L 323.25757 100.861098 
L 324.070833 100.189616 
L 324.884095 104.083637 
L 325.697358 103.01121 
L 326.510621 107.48206 
L 327.323884 105.626038 
L 328.137147 112.928241 
L 328.95041 109.963732 
L 329.763673 99.768082 
L 330.576936 99.355499 
L 332.203461 99.866274 
L 333.016724 98.751118 
L 333.829987 104.40486 
L 334.64325 103.926107 
L 335.456513 103.819964 
L 336.269776 115.55749 
L 337.083039 109.009343 
L 337.896302 97.23022 
L 338.709565 98.644014 
L 339.522827 95.410714 
L 340.33609 99.325563 
L 341.149353 101.706584 
L 341.962616 102.793519 
L 342.775879 101.473548 
L 343.589142 104.484747 
L 344.402405 120.602249 
L 345.215668 99.233239 
L 346.028931 104.168174 
L 346.842193 101.235445 
L 347.655456 95.536751 
L 348.468719 99.917326 
L 349.281982 96.912266 
L 350.095245 99.901636 
L 350.908508 101.014474 
L 351.721771 102.748556 
L 352.535034 122.147341 
L 353.348297 106.048457 
L 354.161559 99.251415 
L 354.974822 96.729559 
L 355.788085 97.494433 
L 356.601348 94.95555 
L 357.414611 99.750401 
L 358.227874 95.872968 
L 359.8544 101.41212 
L 360.667663 114.411374 
L 361.480925 102.253352 
L 362.294188 102.521424 
L 363.107451 100.156376 
L 363.920714 96.496065 
L 364.733977 98.42764 
L 365.54724 97.816796 
L 366.360503 94.35568 
L 367.173766 98.449933 
L 367.987029 99.020055 
L 368.800291 110.823181 
L 369.613554 109.582907 
L 370.426817 100.137843 
L 371.24008 97.486986 
L 372.053343 100.494735 
L 372.866606 97.334232 
L 373.679869 97.743154 
L 374.493132 97.199359 
L 375.306395 96.425164 
L 376.119657 98.981891 
L 376.93292 115.921137 
L 378.559446 95.493947 
L 379.372709 98.38785 
L 380.185972 97.820509 
L 380.999235 96.501156 
L 381.812498 94.306641 
L 382.625761 95.003772 
L 383.439024 95.340537 
L 384.252286 99.311139 
L 385.065549 110.092146 
L 385.878812 110.483896 
L 386.692075 95.573359 
L 387.505338 99.310259 
L 389.131864 94.183861 
L 389.945127 98.35805 
L 390.75839 95.228614 
L 391.571652 98.212062 
L 392.384915 93.132694 
L 393.198178 106.790825 
L 394.011441 103.299397 
L 394.824704 103.084245 
L 395.637967 98.081834 
L 396.45123 97.941738 
L 397.264493 96.420416 
L 398.077756 95.452928 
L 398.891018 95.173783 
L 399.704281 94.714718 
L 400.517544 92.285681 
L 401.330807 109.612799 
L 402.14407 103.170678 
L 402.957333 95.424528 
L 403.770596 99.186177 
L 404.583859 97.628359 
L 405.397122 92.081502 
L 406.210384 96.419912 
L 407.023647 96.797805 
L 408.650173 90.178663 
L 409.463436 113.743805 
L 410.276699 112.66438 
L 411.903225 96.5213 
L 412.716488 96.024703 
L 413.52975 91.802607 
L 414.343013 95.920652 
L 415.969539 93.943531 
L 416.782802 92.104657 
L 417.596065 109.261786 
L 418.409328 105.764922 
L 419.222591 100.793216 
L 420.035854 101.422554 
L 420.849116 98.620313 
L 421.662379 88.594899 
L 422.475642 93.669308 
L 423.288905 87.903966 
L 424.102168 91.71202 
L 424.915431 94.520219 
L 425.728694 113.037919 
L 426.541957 97.921512 
L 428.168482 102.624886 
L 428.981745 98.472372 
L 429.795008 91.060402 
L 430.608271 92.52408 
L 431.421534 96.115894 
L 432.234797 94.255664 
L 433.04806 91.586275 
L 433.861323 107.341187 
L 434.674586 107.222742 
L 435.487848 95.795502 
L 436.301111 100.828015 
L 437.114374 95.814436 
L 437.927637 90.026256 
L 438.7409 91.717039 
L 439.554163 88.561991 
L 440.367426 89.286079 
L 441.180689 90.893403 
L 441.993952 112.954294 
L 442.807214 104.123055 
L 443.620477 105.627158 
L 444.43374 101.234711 
L 445.247003 92.883271 
L 446.060266 95.305326 
L 447.686792 96.435011 
L 448.500055 95.042353 
L 449.313318 95.050132 
L 450.12658 109.485485 
L 450.939843 105.256759 
L 451.753106 106.225585 
L 452.566369 94.933637 
L 454.192895 95.05728 
L 455.006158 95.043163 
L 455.819421 88.429986 
L 456.632684 90.721533 
L 458.259209 102.205366 
L 459.072472 103.307937 
L 459.885735 96.180822 
L 460.698998 99.89367 
L 461.512261 99.212681 
L 462.325524 92.571736 
L 463.138787 95.426538 
L 463.95205 96.453943 
L 464.765312 92.370404 
L 465.578575 93.215486 
L 466.391838 104.618695 
L 467.205101 107.273434 
L 468.018364 102.215037 
L 468.831627 106.740249 
L 469.64489 97.089566 
L 470.458153 99.543726 
L 471.271416 91.626336 
L 472.084678 94.953149 
L 472.897941 92.011689 
L 473.711204 94.338434 
L 474.524467 116.00703 
L 475.33773 104.165829 
L 476.150993 101.088657 
L 476.964256 97.336113 
L 477.777519 97.903006 
L 478.590782 101.267592 
L 479.404044 100.289541 
L 480.217307 97.208049 
L 481.03057 94.980783 
L 481.843833 89.328764 
L 482.657096 108.819716 
L 483.470359 112.230917 
L 484.283622 96.886813 
L 485.096885 97.680679 
L 485.910148 94.504999 
L 486.72341 94.152457 
L 487.536673 99.189052 
L 488.349936 91.910078 
L 489.163199 95.373251 
L 489.976462 97.192658 
L 490.789725 115.835676 
L 491.602988 105.788271 
L 492.416251 100.626494 
L 493.229514 103.654754 
L 494.042776 97.390436 
L 494.856039 95.979161 
L 495.669302 94.816517 
L 496.482565 101.29155 
L 497.295828 96.937174 
L 498.109091 89.733314 
L 498.109091 89.733314 
" style="fill:none;stroke:#0000ff;stroke-linecap:square;stroke-width:1.5;"/>
   </g>
   <g id="line2d_14">
    <path clip-path="url(#p8f5121afcb)" d="M 92.290909 156.857418 
L 93.104172 141.883415 
L 93.917435 144.090039 
L 94.730698 134.693967 
L 95.543961 138.539826 
L 96.357224 135.080752 
L 97.170486 135.230795 
L 97.983749 133.220048 
L 98.797012 134.708488 
L 99.610275 134.534145 
L 100.423538 219.012164 
L 101.236801 120.484834 
L 102.050064 172.269104 
L 102.863327 126.147857 
L 103.67659 139.582445 
L 104.489852 123.223512 
L 105.303115 129.30002 
L 106.116378 125.188996 
L 106.929641 125.268445 
L 107.742904 122.452791 
L 108.556167 223.335252 
L 109.36943 114.467093 
L 110.182693 166.318797 
L 110.995956 131.330794 
L 111.809218 133.568714 
L 112.622481 125.496994 
L 113.435744 125.208964 
L 114.249007 123.434111 
L 115.06227 121.152021 
L 115.875533 120.023348 
L 116.688796 231.908137 
L 117.502059 111.000602 
L 118.315322 156.362521 
L 119.128584 137.069726 
L 119.941847 126.100374 
L 120.75511 127.076447 
L 121.568373 120.455242 
L 122.381636 122.866948 
L 123.194899 116.915379 
L 124.008162 118.997076 
L 124.821425 236.482793 
L 125.634688 110.341744 
L 126.44795 151.917942 
L 127.261213 143.154011 
L 128.074476 120.688719 
L 128.887739 129.492608 
L 129.701002 119.950095 
L 130.514265 119.518754 
L 131.327528 115.463431 
L 132.140791 113.464524 
L 132.954054 242.764649 
L 133.767316 109.963026 
L 134.580579 138.760581 
L 135.393842 148.17816 
L 136.207105 120.87556 
L 137.020368 125.798204 
L 137.833631 118.382903 
L 138.646894 115.429616 
L 139.460157 115.770341 
L 140.27342 111.917023 
L 141.086682 250.57591 
L 141.899945 110.403158 
L 143.526471 148.854311 
L 144.339734 118.871889 
L 145.152997 121.396846 
L 145.96626 117.617092 
L 146.779523 110.923324 
L 147.592786 113.072043 
L 148.406048 108.703545 
L 149.219311 255.509874 
L 150.032574 110.315545 
L 150.845837 125.09264 
L 151.6591 148.621197 
L 152.472363 121.451171 
L 153.285626 116.193997 
L 154.098889 116.919191 
L 154.912152 109.974905 
L 155.725414 106.652746 
L 156.538677 108.38485 
L 157.35194 261.905915 
L 158.165203 109.812183 
L 158.978466 119.045099 
L 159.791729 151.262785 
L 160.604992 121.614961 
L 161.418255 112.168281 
L 162.231518 116.853326 
L 163.04478 107.141922 
L 163.858043 106.445723 
L 164.671306 101.637611 
L 165.484569 264.700812 
L 166.297832 113.317475 
L 167.111095 114.056356 
L 167.924358 142.598018 
L 169.550884 112.39614 
L 170.364146 110.2489 
L 171.177409 109.978047 
L 171.990672 103.695228 
L 172.803935 98.882335 
L 173.617198 267.955506 
L 174.430461 124.217699 
L 175.243724 114.895274 
L 176.056987 121.751487 
L 176.87025 132.062864 
L 177.683512 133.272223 
L 178.496775 124.942815 
L 180.123301 114.850255 
L 180.936564 116.162203 
L 181.749827 314.638321 
L 182.56309 205.736215 
L 183.376353 123.968272 
L 184.189616 113.121843 
L 185.002878 116.304691 
L 185.816141 123.97396 
L 186.629404 126.353003 
L 187.442667 123.315633 
L 188.25593 115.976501 
L 189.069193 113.518525 
L 189.882456 315.446031 
L 191.508982 132.317224 
L 192.322244 113.247295 
L 193.135507 115.018025 
L 193.94877 120.370477 
L 194.762033 123.909398 
L 195.575296 122.517935 
L 196.388559 115.489541 
L 197.201822 113.543165 
L 198.015085 313.629376 
L 199.64161 140.086499 
L 200.454873 115.68772 
L 201.268136 113.438152 
L 202.081399 117.385613 
L 202.894662 120.414738 
L 203.707925 122.812634 
L 204.521188 117.295007 
L 205.334451 112.995065 
L 206.147714 314.394437 
L 206.960976 240.676089 
L 207.774239 149.904378 
L 208.587502 120.311609 
L 209.400765 115.577785 
L 210.214028 114.091834 
L 211.840554 120.294201 
L 212.653817 119.788221 
L 213.46708 113.173423 
L 214.280343 317.091493 
L 215.093605 253.758862 
L 215.906868 158.417593 
L 216.720131 122.529358 
L 217.533394 115.06639 
L 218.346657 115.733999 
L 219.15992 115.724636 
L 219.973183 121.805547 
L 220.786446 117.495561 
L 221.599709 115.701027 
L 222.412971 319.856742 
L 223.226234 258.517266 
L 224.039497 171.468023 
L 224.85276 128.557996 
L 225.666023 117.801403 
L 226.479286 115.586933 
L 227.292549 117.50055 
L 228.105812 117.942008 
L 228.919075 115.894743 
L 229.732337 116.065051 
L 230.5456 319.054912 
L 231.358863 268.138391 
L 232.172126 183.909699 
L 232.985389 137.692425 
L 233.798652 119.999836 
L 234.611915 116.840936 
L 235.425178 116.390427 
L 236.238441 117.206862 
L 237.051703 116.416812 
L 237.864966 117.359551 
L 238.678229 319.37356 
L 239.491492 273.20838 
L 240.304755 200.240649 
L 241.118018 143.861008 
L 241.931281 123.837414 
L 242.744544 118.428713 
L 243.557807 119.395413 
L 244.371069 116.530975 
L 245.184332 115.086809 
L 245.997595 114.556326 
L 246.810858 320.345142 
L 247.624121 278.830299 
L 248.437384 208.42318 
L 249.250647 155.143827 
L 250.06391 130.62687 
L 250.877173 120.572942 
L 251.690435 119.875784 
L 252.503698 120.156312 
L 253.316961 116.707511 
L 254.130224 116.695147 
L 254.943487 323.074756 
L 255.75675 287.073896 
L 257.383276 167.81111 
L 258.196539 135.143911 
L 259.823064 116.022019 
L 260.636327 117.573141 
L 261.44959 114.400782 
L 262.262853 112.916144 
L 263.076116 323.825095 
L 263.889379 290.807296 
L 265.515905 176.754962 
L 266.329167 144.966392 
L 267.14243 127.709279 
L 267.955693 120.90957 
L 268.768956 116.923439 
L 269.582219 119.739576 
L 270.395482 115.527812 
L 271.208745 320.087234 
L 272.022008 293.596339 
L 273.648533 188.255108 
L 274.461796 152.361591 
L 275.275059 134.622927 
L 276.901585 120.518487 
L 277.714848 119.406722 
L 278.528111 117.085461 
L 279.341374 322.132991 
L 280.154637 297.857716 
L 281.781162 199.404635 
L 282.594425 164.503246 
L 283.407688 142.592439 
L 284.220951 129.094613 
L 285.847477 117.808771 
L 286.66074 118.952379 
L 287.474003 323.585145 
L 288.287265 299.262055 
L 289.100528 261.2871 
L 289.913791 211.544539 
L 290.727054 175.496879 
L 291.540317 148.432281 
L 292.35358 134.320297 
L 293.166843 124.573165 
L 293.980106 123.630793 
L 294.793369 121.025738 
L 295.606631 321.581248 
L 296.419894 304.316343 
L 298.859683 181.475242 
L 300.486209 139.920912 
L 302.112735 123.624647 
L 302.925997 122.29141 
L 303.73926 322.772995 
L 304.552523 308.359499 
L 306.992312 194.796773 
L 308.618838 147.832471 
L 309.432101 138.89865 
L 310.245363 131.416228 
L 311.058626 125.265706 
L 311.871889 324.138247 
L 312.685152 308.258488 
L 313.498415 277.522925 
L 315.124941 206.643762 
L 315.938204 177.230892 
L 316.751467 155.496897 
L 317.564729 144.351883 
L 318.377992 137.534697 
L 319.191255 129.735465 
L 320.004518 323.404546 
L 320.817781 311.577589 
L 321.631044 284.14025 
L 323.25757 215.873059 
L 324.070833 189.508978 
L 324.884095 167.347832 
L 325.697358 154.546004 
L 326.510621 146.793143 
L 327.323884 136.291179 
L 328.137147 326.208878 
L 328.95041 312.453394 
L 329.763673 288.904344 
L 332.203461 198.144874 
L 333.016724 176.719532 
L 333.829987 161.622687 
L 334.64325 150.033503 
L 335.456513 142.080792 
L 336.269776 326.934982 
L 337.083039 312.628703 
L 338.709565 268.101169 
L 339.522827 238.583619 
L 341.149353 191.136052 
L 341.962616 173.003068 
L 342.775879 159.728433 
L 343.589142 148.39004 
L 344.402405 325.484049 
L 345.215668 314.622613 
L 346.028931 299.00474 
L 347.655456 244.269305 
L 350.095245 182.847632 
L 350.908508 167.089225 
L 351.721771 158.952785 
L 352.535034 326.781034 
L 353.348297 318.225138 
L 354.974822 280.318341 
L 358.227874 193.179803 
L 359.041137 178.014676 
L 359.8544 166.517839 
L 360.667663 327.850716 
L 361.480925 321.023174 
L 362.294188 305.151914 
L 365.54724 223.658758 
L 366.360503 203.14025 
L 367.173766 191.44928 
L 367.987029 176.804155 
L 368.800291 330.156268 
L 369.613554 321.413489 
L 371.24008 288.510066 
L 372.053343 271.90323 
L 373.679869 234.502816 
L 376.119657 189.9892 
L 376.93292 330.356599 
L 377.746183 324.620512 
L 379.372709 294.633066 
L 380.185972 277.371299 
L 380.999235 256.541514 
L 381.812498 246.823518 
L 382.625761 224.51804 
L 384.252286 201.359403 
L 385.065549 332.618541 
L 385.878812 325.151807 
L 386.692075 311.176007 
L 387.505338 300.694436 
L 388.318601 284.69073 
L 389.131864 271.308214 
L 390.75839 239.4179 
L 391.571652 228.102517 
L 392.384915 211.932151 
L 393.198178 331.461534 
L 394.011441 327.224403 
L 396.45123 291.550371 
L 397.264493 278.654805 
L 398.891018 249.226289 
L 399.704281 238.611721 
L 400.517544 225.157541 
L 401.330807 334.146042 
L 402.957333 319.777414 
L 404.583859 296.967491 
L 405.397122 281.749314 
L 407.023647 261.557681 
L 407.83691 248.108214 
L 408.650173 236.620105 
L 409.463436 336.397097 
L 410.276699 330.061408 
L 411.089962 320.131723 
L 411.903225 313.552255 
L 413.52975 289.23649 
L 414.343013 283.753083 
L 415.156276 270.641335 
L 416.782802 248.482667 
L 417.596065 336.734163 
L 419.222591 322.288769 
L 420.035854 318.53124 
L 421.662379 295.2453 
L 422.475642 287.537811 
L 423.288905 274.701535 
L 424.102168 268.204224 
L 424.915431 260.465488 
L 425.728694 336.408375 
L 426.541957 332.904934 
L 427.35522 326.880271 
L 428.981745 312.40562 
L 429.795008 302.46779 
L 430.608271 296.32553 
L 432.234797 278.992599 
L 433.04806 267.646595 
L 433.861323 336.705466 
L 434.674586 336.76498 
L 435.487848 327.626766 
L 436.301111 323.041712 
L 437.114374 317.64384 
L 437.927637 307.851157 
L 438.7409 302.863938 
L 439.554163 292.624808 
L 440.367426 286.294447 
L 441.180689 277.105831 
L 441.993952 340.513699 
L 442.807214 338.128487 
L 444.43374 325.862605 
L 445.247003 321.446498 
L 446.060266 313.365983 
L 446.873529 309.050016 
L 448.500055 293.026172 
L 449.313318 287.72995 
L 450.12658 339.943525 
L 450.939843 338.477766 
L 451.753106 334.354222 
L 452.566369 331.023091 
L 453.379632 324.468056 
L 454.192895 319.422575 
L 455.006158 311.635347 
L 455.819421 306.059136 
L 456.632684 301.275383 
L 457.445946 293.533265 
L 458.259209 341.977757 
L 459.072472 339.861268 
L 459.885735 334.287888 
L 460.698998 332.48006 
L 461.512261 325.857951 
L 462.325524 323.446666 
L 463.138787 318.88538 
L 464.765312 305.336064 
L 465.578575 302.037429 
L 466.391838 344.141353 
L 467.205101 340.971444 
L 468.018364 338.343768 
L 468.831627 336.618625 
L 470.458153 324.473541 
L 471.271416 322.847622 
L 472.084678 318.040615 
L 472.897941 311.391307 
L 473.711204 309.760213 
L 474.524467 345.944182 
L 475.33773 342.73819 
L 476.150993 339.077336 
L 476.964256 337.060107 
L 477.777519 332.619567 
L 478.590782 329.313686 
L 479.404044 326.787997 
L 480.217307 322.010366 
L 481.03057 318.832106 
L 481.843833 313.946023 
L 482.657096 347.106764 
L 483.470359 345.476452 
L 484.283622 342.753445 
L 485.096885 337.481685 
L 485.910148 335.468798 
L 486.72341 332.510476 
L 487.536673 327.855859 
L 488.349936 325.320985 
L 489.163199 321.603992 
L 489.976462 318.692351 
L 490.789725 348.772453 
L 491.602988 345.366083 
L 492.416251 340.784835 
L 493.229514 341.934071 
L 494.042776 337.107301 
L 494.856039 333.553415 
L 495.669302 332.563389 
L 496.482565 330.363978 
L 497.295828 327.531367 
L 498.109091 322.675973 
L 498.109091 322.675973 
" style="fill:none;stroke:#008000;stroke-linecap:square;stroke-width:1.5;"/>
   </g>
   <g id="patch_3">
    <path d="M 72 384.48 
L 72 51.84 
" style="fill:none;stroke:#000000;stroke-linecap:square;stroke-linejoin:miter;stroke-width:0.8;"/>
   </g>
   <g id="patch_4">
    <path d="M 518.4 384.48 
L 518.4 51.84 
" style="fill:none;stroke:#000000;stroke-linecap:square;stroke-linejoin:miter;stroke-width:0.8;"/>
   </g>
   <g id="patch_5">
    <path d="M 72 384.48 
L 518.4 384.48 
" style="fill:none;stroke:#000000;stroke-linecap:square;stroke-linejoin:miter;stroke-width:0.8;"/>
   </g>
   <g id="patch_6">
    <path d="M 72 51.84 
L 518.4 51.84 
" style="fill:none;stroke:#000000;stroke-linecap:square;stroke-linejoin:miter;stroke-width:0.8;"/>
   </g>
   <g id="legend_1">
    <g id="patch_7">
     <path d="M 79 89.19625 
L 156.107812 89.19625 
Q 158.107812 89.19625 158.107812 87.19625 
L 158.107812 58.84 
Q 158.107812 56.84 156.107812 56.84 
L 79 56.84 
Q 77 56.84 77 58.84 
L 77 87.19625 
Q 77 89.19625 79 89.19625 
z
" style="fill:#ffffff;opacity:0.8;stroke:#cccccc;stroke-linejoin:miter;"/>
    </g>
    <g id="line2d_15">
     <path d="M 81 64.938437 
L 101 64.938437 
" style="fill:none;stroke:#0000ff;stroke-linecap:square;stroke-width:1.5;"/>
    </g>
    <g id="line2d_16"/>
    <g id="text_15">
     <!-- precision -->
     <g transform="translate(109 68.438437)scale(0.1 -0.1)">
      <defs>
       <path d="M 9.421875 54.6875 
L 18.40625 54.6875 
L 18.40625 0 
L 9.421875 0 
z
M 9.421875 75.984375 
L 18.40625 75.984375 
L 18.40625 64.59375 
L 9.421875 64.59375 
z
" id="DejaVuSans-105"/>
       <path d="M 44.28125 53.078125 
L 44.28125 44.578125 
Q 40.484375 46.53125 36.375 47.5 
Q 32.28125 48.484375 27.875 48.484375 
Q 21.1875 48.484375 17.84375 46.4375 
Q 14.5 44.390625 14.5 40.28125 
Q 14.5 37.15625 16.890625 35.375 
Q 19.28125 33.59375 26.515625 31.984375 
L 29.59375 31.296875 
Q 39.15625 29.25 43.1875 25.515625 
Q 47.21875 21.78125 47.21875 15.09375 
Q 47.21875 7.46875 41.1875 3.015625 
Q 35.15625 -1.421875 24.609375 -1.421875 
Q 20.21875 -1.421875 15.453125 -0.5625 
Q 10.6875 0.296875 5.421875 2 
L 5.421875 11.28125 
Q 10.40625 8.6875 15.234375 7.390625 
Q 20.0625 6.109375 24.8125 6.109375 
Q 31.15625 6.109375 34.5625 8.28125 
Q 37.984375 10.453125 37.984375 14.40625 
Q 37.984375 18.0625 35.515625 20.015625 
Q 33.0625 21.96875 24.703125 23.78125 
L 21.578125 24.515625 
Q 13.234375 26.265625 9.515625 29.90625 
Q 5.8125 33.546875 5.8125 39.890625 
Q 5.8125 47.609375 11.28125 51.796875 
Q 16.75 56 26.8125 56 
Q 31.78125 56 36.171875 55.265625 
Q 40.578125 54.546875 44.28125 53.078125 
z
" id="DejaVuSans-115"/>
       <path d="M 54.890625 33.015625 
L 54.890625 0 
L 45.90625 0 
L 45.90625 32.71875 
Q 45.90625 40.484375 42.875 44.328125 
Q 39.84375 48.1875 33.796875 48.1875 
Q 26.515625 48.1875 22.3125 43.546875 
Q 18.109375 38.921875 18.109375 30.90625 
L 18.109375 0 
L 9.078125 0 
L 9.078125 54.6875 
L 18.109375 54.6875 
L 18.109375 46.1875 
Q 21.34375 51.125 25.703125 53.5625 
Q 30.078125 56 35.796875 56 
Q 45.21875 56 50.046875 50.171875 
Q 54.890625 44.34375 54.890625 33.015625 
z
" id="DejaVuSans-110"/>
      </defs>
      <use xlink:href="#DejaVuSans-112"/>
      <use x="63.476562" xlink:href="#DejaVuSans-114"/>
      <use x="102.339844" xlink:href="#DejaVuSans-101"/>
      <use x="163.863281" xlink:href="#DejaVuSans-99"/>
      <use x="218.84375" xlink:href="#DejaVuSans-105"/>
      <use x="246.626953" xlink:href="#DejaVuSans-115"/>
      <use x="298.726562" xlink:href="#DejaVuSans-105"/>
      <use x="326.509766" xlink:href="#DejaVuSans-111"/>
      <use x="387.691406" xlink:href="#DejaVuSans-110"/>
     </g>
    </g>
    <g id="line2d_17">
     <path d="M 81 79.616562 
L 101 79.616562 
" style="fill:none;stroke:#008000;stroke-linecap:square;stroke-width:1.5;"/>
    </g>
    <g id="line2d_18"/>
    <g id="text_16">
     <!-- recall -->
     <g transform="translate(109 83.116562)scale(0.1 -0.1)">
      <defs>
       <path d="M 9.421875 75.984375 
L 18.40625 75.984375 
L 18.40625 0 
L 9.421875 0 
z
" id="DejaVuSans-108"/>
      </defs>
      <use xlink:href="#DejaVuSans-114"/>
      <use x="38.863281" xlink:href="#DejaVuSans-101"/>
      <use x="100.386719" xlink:href="#DejaVuSans-99"/>
      <use x="155.367188" xlink:href="#DejaVuSans-97"/>
      <use x="216.646484" xlink:href="#DejaVuSans-108"/>
      <use x="244.429688" xlink:href="#DejaVuSans-108"/>
     </g>
    </g>
   </g>
  </g>
  <g id="axes_2">
   <g id="matplotlib.axis_3">
    <g id="ytick_7">
     <g id="line2d_19">
      <defs>
       <path d="M 0 0 
L 3.5 0 
" id="mc709a0f089" style="stroke:#000000;stroke-width:0.8;"/>
      </defs>
      <g>
       <use style="stroke:#000000;stroke-width:0.8;" x="518.4" xlink:href="#mc709a0f089" y="360.162391"/>
      </g>
     </g>
     <g id="text_17">
      <!-- 0.15 -->
      <g transform="translate(525.4 363.961609)scale(0.1 -0.1)">
       <use xlink:href="#DejaVuSans-48"/>
       <use x="63.623047" xlink:href="#DejaVuSans-46"/>
       <use x="95.410156" xlink:href="#DejaVuSans-49"/>
       <use x="159.033203" xlink:href="#DejaVuSans-53"/>
      </g>
     </g>
    </g>
    <g id="ytick_8">
     <g id="line2d_20">
      <g>
       <use style="stroke:#000000;stroke-width:0.8;" x="518.4" xlink:href="#mc709a0f089" y="321.037828"/>
      </g>
     </g>
     <g id="text_18">
      <!-- 0.20 -->
      <g transform="translate(525.4 324.837046)scale(0.1 -0.1)">
       <use xlink:href="#DejaVuSans-48"/>
       <use x="63.623047" xlink:href="#DejaVuSans-46"/>
       <use x="95.410156" xlink:href="#DejaVuSans-50"/>
       <use x="159.033203" xlink:href="#DejaVuSans-48"/>
      </g>
     </g>
    </g>
    <g id="ytick_9">
     <g id="line2d_21">
      <g>
       <use style="stroke:#000000;stroke-width:0.8;" x="518.4" xlink:href="#mc709a0f089" y="281.913265"/>
      </g>
     </g>
     <g id="text_19">
      <!-- 0.25 -->
      <g transform="translate(525.4 285.712483)scale(0.1 -0.1)">
       <use xlink:href="#DejaVuSans-48"/>
       <use x="63.623047" xlink:href="#DejaVuSans-46"/>
       <use x="95.410156" xlink:href="#DejaVuSans-50"/>
       <use x="159.033203" xlink:href="#DejaVuSans-53"/>
      </g>
     </g>
    </g>
    <g id="ytick_10">
     <g id="line2d_22">
      <g>
       <use style="stroke:#000000;stroke-width:0.8;" x="518.4" xlink:href="#mc709a0f089" y="242.788702"/>
      </g>
     </g>
     <g id="text_20">
      <!-- 0.30 -->
      <g transform="translate(525.4 246.58792)scale(0.1 -0.1)">
       <use xlink:href="#DejaVuSans-48"/>
       <use x="63.623047" xlink:href="#DejaVuSans-46"/>
       <use x="95.410156" xlink:href="#DejaVuSans-51"/>
       <use x="159.033203" xlink:href="#DejaVuSans-48"/>
      </g>
     </g>
    </g>
    <g id="ytick_11">
     <g id="line2d_23">
      <g>
       <use style="stroke:#000000;stroke-width:0.8;" x="518.4" xlink:href="#mc709a0f089" y="203.664139"/>
      </g>
     </g>
     <g id="text_21">
      <!-- 0.35 -->
      <g transform="translate(525.4 207.463357)scale(0.1 -0.1)">
       <use xlink:href="#DejaVuSans-48"/>
       <use x="63.623047" xlink:href="#DejaVuSans-46"/>
       <use x="95.410156" xlink:href="#DejaVuSans-51"/>
       <use x="159.033203" xlink:href="#DejaVuSans-53"/>
      </g>
     </g>
    </g>
    <g id="ytick_12">
     <g id="line2d_24">
      <g>
       <use style="stroke:#000000;stroke-width:0.8;" x="518.4" xlink:href="#mc709a0f089" y="164.539576"/>
      </g>
     </g>
     <g id="text_22">
      <!-- 0.40 -->
      <g transform="translate(525.4 168.338795)scale(0.1 -0.1)">
       <use xlink:href="#DejaVuSans-48"/>
       <use x="63.623047" xlink:href="#DejaVuSans-46"/>
       <use x="95.410156" xlink:href="#DejaVuSans-52"/>
       <use x="159.033203" xlink:href="#DejaVuSans-48"/>
      </g>
     </g>
    </g>
    <g id="ytick_13">
     <g id="line2d_25">
      <g>
       <use style="stroke:#000000;stroke-width:0.8;" x="518.4" xlink:href="#mc709a0f089" y="125.415013"/>
      </g>
     </g>
     <g id="text_23">
      <!-- 0.45 -->
      <g transform="translate(525.4 129.214232)scale(0.1 -0.1)">
       <use xlink:href="#DejaVuSans-48"/>
       <use x="63.623047" xlink:href="#DejaVuSans-46"/>
       <use x="95.410156" xlink:href="#DejaVuSans-52"/>
       <use x="159.033203" xlink:href="#DejaVuSans-53"/>
      </g>
     </g>
    </g>
    <g id="ytick_14">
     <g id="line2d_26">
      <g>
       <use style="stroke:#000000;stroke-width:0.8;" x="518.4" xlink:href="#mc709a0f089" y="86.29045"/>
      </g>
     </g>
     <g id="text_24">
      <!-- 0.50 -->
      <g transform="translate(525.4 90.089669)scale(0.1 -0.1)">
       <use xlink:href="#DejaVuSans-48"/>
       <use x="63.623047" xlink:href="#DejaVuSans-46"/>
       <use x="95.410156" xlink:href="#DejaVuSans-53"/>
       <use x="159.033203" xlink:href="#DejaVuSans-48"/>
      </g>
     </g>
    </g>
    <g id="text_25">
     <!-- loss -->
     <g transform="translate(559.264063 227.817812)rotate(-90)scale(0.1 -0.1)">
      <use xlink:href="#DejaVuSans-108"/>
      <use x="27.783203" xlink:href="#DejaVuSans-111"/>
      <use x="88.964844" xlink:href="#DejaVuSans-115"/>
      <use x="141.064453" xlink:href="#DejaVuSans-115"/>
     </g>
    </g>
   </g>
   <g id="line2d_27">
    <path clip-path="url(#p8f5121afcb)" d="M 92.290909 111.206365 
L 93.104172 255.869233 
L 93.917435 259.263097 
L 94.730698 268.571061 
L 96.357224 280.66695 
L 97.983749 285.598265 
L 98.797012 287.187438 
L 99.610275 289.61324 
L 100.423538 226.431293 
L 101.236801 268.489473 
L 102.050064 288.308085 
L 102.863327 296.028156 
L 104.489852 304.889747 
L 105.303115 305.641764 
L 106.116378 307.44894 
L 107.742904 311.838695 
L 108.556167 230.634366 
L 109.36943 275.646225 
L 110.182693 295.84829 
L 110.995956 304.726612 
L 111.809218 310.444991 
L 113.435744 316.152711 
L 115.06227 320.909599 
L 115.875533 322.767719 
L 116.688796 233.312797 
L 117.502059 283.525574 
L 118.315322 302.563576 
L 119.128584 313.304985 
L 119.941847 318.551533 
L 120.75511 321.559957 
L 121.568373 326.205247 
L 122.381636 327.523442 
L 123.194899 330.533183 
L 124.008162 331.793977 
L 124.821425 235.279217 
L 125.634688 287.251428 
L 126.44795 307.861629 
L 127.261213 319.439285 
L 128.074476 325.125161 
L 128.887739 328.268801 
L 129.701002 332.18475 
L 130.514265 334.493479 
L 131.327528 338.142228 
L 132.140791 341.078024 
L 132.954054 235.43357 
L 133.767316 292.165043 
L 134.580579 312.582449 
L 135.393842 324.148733 
L 136.207105 332.667673 
L 137.020368 336.996172 
L 138.646894 343.734515 
L 139.460157 346.222172 
L 140.27342 349.318667 
L 141.086682 234.182165 
L 141.899945 295.567841 
L 142.713208 318.304872 
L 143.526471 329.344594 
L 144.339734 337.048374 
L 145.96626 346.904463 
L 146.779523 350.422862 
L 147.592786 350.77229 
L 148.406048 355.487542 
L 149.219311 229.948496 
L 150.032574 300.335355 
L 150.845837 321.197565 
L 151.6591 334.561983 
L 152.472363 341.985969 
L 153.285626 346.768523 
L 154.098889 350.115934 
L 154.912152 355.927582 
L 155.725414 357.985757 
L 156.538677 359.053253 
L 157.35194 229.036247 
L 158.165203 304.103296 
L 159.791729 335.41765 
L 160.604992 344.863461 
L 161.418255 350.842753 
L 162.231518 353.331277 
L 163.04478 359.579765 
L 163.858043 361.569869 
L 164.671306 365.8219 
L 165.484569 223.581743 
L 166.297832 304.085874 
L 167.111095 323.560104 
L 167.924358 340.03589 
L 168.737621 348.338042 
L 170.364146 358.638856 
L 171.177409 361.919369 
L 171.990672 364.236027 
L 172.803935 369.36 
L 173.617198 222.441819 
L 174.430461 310.414496 
L 175.243724 318.037047 
L 176.056987 329.786212 
L 176.87025 336.634972 
L 178.496775 345.040883 
L 179.310038 346.4962 
L 180.123301 351.612014 
L 180.936564 354.0963 
L 181.749827 174.499288 
L 182.56309 284.862421 
L 183.376353 317.886072 
L 184.189616 326.044338 
L 185.002878 336.232319 
L 186.629404 346.616444 
L 187.442667 350.194442 
L 188.25593 355.85056 
L 189.069193 355.256199 
L 189.882456 170.071185 
L 190.695719 279.936509 
L 191.508982 316.883468 
L 193.94877 344.662771 
L 194.762033 346.828131 
L 195.575296 352.708895 
L 196.388559 357.716755 
L 197.201822 357.677048 
L 198.015085 164.659288 
L 198.828348 272.388083 
L 199.64161 316.77146 
L 200.454873 325.901334 
L 201.268136 336.589037 
L 202.081399 343.175714 
L 202.894662 348.569532 
L 203.707925 352.184105 
L 204.521188 356.395599 
L 205.334451 359.187868 
L 206.147714 159.035306 
L 206.960976 266.559435 
L 207.774239 313.330364 
L 208.587502 327.370665 
L 209.400765 337.625511 
L 211.027291 349.482061 
L 211.840554 350.940032 
L 212.653817 354.660823 
L 213.46708 360.112854 
L 214.280343 154.663649 
L 215.093605 259.397378 
L 215.906868 314.177253 
L 216.720131 326.818939 
L 217.533394 335.129043 
L 218.346657 341.307044 
L 219.15992 349.066551 
L 219.973183 351.783102 
L 220.786446 356.484065 
L 221.599709 359.495093 
L 222.412971 151.674059 
L 223.226234 250.864148 
L 224.039497 310.20174 
L 224.85276 326.000734 
L 225.666023 335.499028 
L 226.479286 340.24116 
L 227.292549 347.630435 
L 228.105812 352.682304 
L 228.919075 356.757194 
L 229.732337 359.537962 
L 230.5456 147.784198 
L 231.358863 243.414606 
L 232.172126 305.339884 
L 232.985389 324.74947 
L 234.611915 341.476402 
L 236.238441 352.134465 
L 237.051703 353.155244 
L 237.864966 357.101745 
L 238.678229 143.319646 
L 239.491492 235.573321 
L 240.304755 295.739143 
L 241.118018 323.566536 
L 241.931281 331.298349 
L 242.744544 340.389492 
L 243.557807 344.324727 
L 244.371069 351.361743 
L 245.184332 355.791957 
L 245.997595 359.006411 
L 246.810858 138.649224 
L 247.624121 229.422901 
L 248.437384 292.730333 
L 249.250647 319.034198 
L 250.06391 331.680691 
L 250.877173 337.7572 
L 251.690435 345.109079 
L 252.503698 345.852602 
L 253.316961 353.746009 
L 254.130224 357.265621 
L 254.943487 139.133352 
L 255.75675 221.727282 
L 256.570013 284.234087 
L 257.383276 313.539475 
L 258.196539 330.809366 
L 259.009801 335.962224 
L 259.823064 343.038114 
L 261.44959 354.052015 
L 262.262853 358.282208 
L 263.076116 138.077842 
L 263.889379 212.357913 
L 264.702642 275.641866 
L 265.515905 313.70407 
L 266.329167 327.394487 
L 267.955693 342.311665 
L 268.768956 348.311108 
L 269.582219 349.515441 
L 270.395482 356.293766 
L 271.208745 134.879234 
L 272.022008 207.813872 
L 272.835271 268.715837 
L 273.648533 306.368827 
L 274.461796 325.132097 
L 275.275059 334.887856 
L 276.088322 337.717923 
L 276.901585 344.755657 
L 277.714848 349.377199 
L 278.528111 354.852972 
L 279.341374 134.218431 
L 280.967899 262.938606 
L 281.781162 300.661502 
L 282.594425 320.688877 
L 283.407688 332.304144 
L 284.220951 340.012345 
L 285.847477 350.251672 
L 286.66074 352.636049 
L 287.474003 130.404928 
L 289.100528 256.202748 
L 289.913791 295.769336 
L 290.727054 318.56343 
L 291.540317 330.669587 
L 292.35358 338.069123 
L 293.166843 344.064832 
L 293.980106 345.316626 
L 294.793369 350.636535 
L 295.606631 130.360865 
L 297.233157 247.693306 
L 298.04642 286.503433 
L 298.859683 314.02155 
L 299.672946 326.436324 
L 300.486209 336.212899 
L 301.299472 340.588741 
L 302.112735 345.754952 
L 302.925997 348.013543 
L 303.73926 127.615182 
L 305.365786 239.388549 
L 306.179049 281.571336 
L 306.992312 305.38404 
L 307.805575 321.605468 
L 308.618838 330.751887 
L 309.432101 336.407862 
L 310.245363 342.94469 
L 311.058626 345.913563 
L 311.871889 127.135086 
L 314.311678 276.177143 
L 315.124941 302.460065 
L 315.938204 317.652906 
L 316.751467 328.204727 
L 318.377992 339.26313 
L 319.191255 343.748428 
L 320.004518 125.160283 
L 321.631044 224.616585 
L 322.444307 265.513691 
L 323.25757 294.279177 
L 324.070833 311.77877 
L 324.884095 321.705758 
L 325.697358 329.602673 
L 327.323884 340.374727 
L 328.137147 124.200417 
L 329.763673 221.989598 
L 330.576936 259.413415 
L 331.390199 287.992957 
L 332.203461 306.819184 
L 333.016724 318.79113 
L 333.829987 326.483671 
L 335.456513 338.867252 
L 336.269776 121.922785 
L 338.709565 252.163962 
L 339.522827 278.570167 
L 340.33609 299.522331 
L 341.962616 321.418757 
L 342.775879 329.328111 
L 343.589142 335.306741 
L 344.402405 119.168587 
L 346.028931 207.362486 
L 346.842193 243.725054 
L 347.655456 271.994154 
L 349.281982 308.422145 
L 350.095245 316.297595 
L 350.908508 325.308346 
L 351.721771 330.921959 
L 352.535034 119.319631 
L 354.974822 237.477246 
L 355.788085 263.127216 
L 356.601348 284.131365 
L 358.227874 312.372116 
L 359.041137 320.990088 
L 359.8544 326.654486 
L 360.667663 116.105714 
L 363.107451 230.556436 
L 363.920714 255.378311 
L 365.54724 293.98351 
L 366.360503 306.046065 
L 367.173766 314.160926 
L 367.987029 320.742025 
L 368.800291 115.153194 
L 371.24008 220.549815 
L 372.053343 247.247598 
L 372.866606 269.991069 
L 375.306395 306.973199 
L 376.119657 314.033161 
L 376.93292 112.480541 
L 379.372709 215.935965 
L 380.999235 258.235746 
L 381.812498 276.868084 
L 382.625761 290.45944 
L 384.252286 307.477709 
L 385.065549 110.67823 
L 387.505338 206.754459 
L 388.318601 231.723725 
L 389.131864 252.661101 
L 389.945127 265.03786 
L 390.75839 281.251195 
L 392.384915 303.646596 
L 393.198178 107.786336 
L 395.637967 198.879153 
L 397.264493 240.691765 
L 398.077756 258.800753 
L 399.704281 283.982987 
L 400.517544 294.770255 
L 401.330807 106.177847 
L 403.770596 190.228027 
L 405.397122 233.627236 
L 406.210384 249.239513 
L 408.650173 286.790267 
L 409.463436 100.501328 
L 411.089962 157.759743 
L 412.716488 207.039066 
L 413.52975 221.968998 
L 414.343013 240.134855 
L 415.156276 252.618332 
L 415.969539 266.840753 
L 416.782802 275.126337 
L 417.596065 99.847355 
L 420.035854 176.343519 
L 421.662379 215.548957 
L 422.475642 231.314942 
L 424.102168 254.433566 
L 424.915431 265.475627 
L 425.728694 97.140529 
L 428.168482 168.175043 
L 429.795008 205.560221 
L 431.421534 234.828755 
L 433.04806 256.822895 
L 433.861323 94.278123 
L 435.487848 137.59477 
L 436.301111 160.074247 
L 437.927637 194.934152 
L 439.554163 224.20807 
L 440.367426 236.75619 
L 441.180689 246.280641 
L 441.993952 91.314083 
L 443.620477 133.535646 
L 446.060266 186.264381 
L 448.500055 225.343934 
L 449.313318 235.401041 
L 450.12658 87.841907 
L 450.939843 105.540967 
L 452.566369 146.212959 
L 454.192895 177.486858 
L 456.632684 215.765725 
L 457.445946 221.755246 
L 458.259209 82.612119 
L 459.885735 120.006935 
L 460.698998 136.872455 
L 463.95205 192.567347 
L 464.765312 204.911236 
L 465.578575 214.323948 
L 466.391838 79.933396 
L 467.205101 93.247435 
L 468.018364 112.003978 
L 469.64489 146.217201 
L 470.458153 157.893676 
L 472.084678 183.412563 
L 472.897941 194.648656 
L 473.711204 203.24693 
L 474.524467 74.924117 
L 476.150993 105.883204 
L 476.964256 123.812777 
L 477.777519 134.845446 
L 479.404044 162.048598 
L 480.217307 174.226256 
L 481.03057 182.692577 
L 481.843833 193.405919 
L 482.657096 71.175403 
L 483.470359 87.125104 
L 484.283622 99.996318 
L 485.096885 115.182082 
L 485.910148 126.484611 
L 486.72341 143.125226 
L 489.163199 172.733741 
L 489.976462 179.895557 
L 490.789725 66.96 
L 491.602988 78.765298 
L 494.856039 135.168251 
L 496.482565 150.749066 
L 498.109091 170.954968 
L 498.109091 170.954968 
" style="fill:none;stroke:#ff0000;stroke-linecap:square;stroke-width:1.5;"/>
   </g>
   <g id="patch_8">
    <path d="M 72 384.48 
L 72 51.84 
" style="fill:none;stroke:#000000;stroke-linecap:square;stroke-linejoin:miter;stroke-width:0.8;"/>
   </g>
   <g id="patch_9">
    <path d="M 518.4 384.48 
L 518.4 51.84 
" style="fill:none;stroke:#000000;stroke-linecap:square;stroke-linejoin:miter;stroke-width:0.8;"/>
   </g>
   <g id="patch_10">
    <path d="M 72 384.48 
L 518.4 384.48 
" style="fill:none;stroke:#000000;stroke-linecap:square;stroke-linejoin:miter;stroke-width:0.8;"/>
   </g>
   <g id="patch_11">
    <path d="M 72 51.84 
L 518.4 51.84 
" style="fill:none;stroke:#000000;stroke-linecap:square;stroke-linejoin:miter;stroke-width:0.8;"/>
   </g>
   <g id="text_26">
    <!-- The learning curve on _non_iid_agg/host/6 -->
    <g transform="translate(164.573437 45.84)scale(0.12 -0.12)">
     <defs>
      <path d="M -0.296875 72.90625 
L 61.375 72.90625 
L 61.375 64.59375 
L 35.5 64.59375 
L 35.5 0 
L 25.59375 0 
L 25.59375 64.59375 
L -0.296875 64.59375 
z
" id="DejaVuSans-84"/>
      <path id="DejaVuSans-32"/>
      <path d="M 45.40625 27.984375 
Q 45.40625 37.75 41.375 43.109375 
Q 37.359375 48.484375 30.078125 48.484375 
Q 22.859375 48.484375 18.828125 43.109375 
Q 14.796875 37.75 14.796875 27.984375 
Q 14.796875 18.265625 18.828125 12.890625 
Q 22.859375 7.515625 30.078125 7.515625 
Q 37.359375 7.515625 41.375 12.890625 
Q 45.40625 18.265625 45.40625 27.984375 
z
M 54.390625 6.78125 
Q 54.390625 -7.171875 48.1875 -13.984375 
Q 42 -20.796875 29.203125 -20.796875 
Q 24.46875 -20.796875 20.265625 -20.09375 
Q 16.0625 -19.390625 12.109375 -17.921875 
L 12.109375 -9.1875 
Q 16.0625 -11.328125 19.921875 -12.34375 
Q 23.78125 -13.375 27.78125 -13.375 
Q 36.625 -13.375 41.015625 -8.765625 
Q 45.40625 -4.15625 45.40625 5.171875 
L 45.40625 9.625 
Q 42.625 4.78125 38.28125 2.390625 
Q 33.9375 0 27.875 0 
Q 17.828125 0 11.671875 7.65625 
Q 5.515625 15.328125 5.515625 27.984375 
Q 5.515625 40.671875 11.671875 48.328125 
Q 17.828125 56 27.875 56 
Q 33.9375 56 38.28125 53.609375 
Q 42.625 51.21875 45.40625 46.390625 
L 45.40625 54.6875 
L 54.390625 54.6875 
z
" id="DejaVuSans-103"/>
      <path d="M 8.5 21.578125 
L 8.5 54.6875 
L 17.484375 54.6875 
L 17.484375 21.921875 
Q 17.484375 14.15625 20.5 10.265625 
Q 23.53125 6.390625 29.59375 6.390625 
Q 36.859375 6.390625 41.078125 11.03125 
Q 45.3125 15.671875 45.3125 23.6875 
L 45.3125 54.6875 
L 54.296875 54.6875 
L 54.296875 0 
L 45.3125 0 
L 45.3125 8.40625 
Q 42.046875 3.421875 37.71875 1 
Q 33.40625 -1.421875 27.6875 -1.421875 
Q 18.265625 -1.421875 13.375 4.4375 
Q 8.5 10.296875 8.5 21.578125 
z
M 31.109375 56 
z
" id="DejaVuSans-117"/>
      <path d="M 2.984375 54.6875 
L 12.5 54.6875 
L 29.59375 8.796875 
L 46.6875 54.6875 
L 56.203125 54.6875 
L 35.6875 0 
L 23.484375 0 
z
" id="DejaVuSans-118"/>
      <path d="M 30.953125 67.4375 
L 56.203125 0 
L 46.6875 0 
L 31.34375 40.4375 
L 12.5 0 
L 2.984375 0 
L 26.953125 52.4375 
L 23.34375 62.109375 
Q 21.046875 68.265625 15.828125 68.265625 
L 11.140625 68.265625 
L 11.140625 75.984375 
L 16.84375 75.875 
Q 27.875 75.734375 30.953125 67.4375 
z
" id="DejaVuSans-955"/>
      <path d="M 50.984375 -16.609375 
L 50.984375 -23.578125 
L -0.984375 -23.578125 
L -0.984375 -16.609375 
z
" id="DejaVuSans-95"/>
      <path d="M 45.40625 46.390625 
L 45.40625 75.984375 
L 54.390625 75.984375 
L 54.390625 0 
L 45.40625 0 
L 45.40625 8.203125 
Q 42.578125 3.328125 38.25 0.953125 
Q 33.9375 -1.421875 27.875 -1.421875 
Q 17.96875 -1.421875 11.734375 6.484375 
Q 5.515625 14.40625 5.515625 27.296875 
Q 5.515625 40.1875 11.734375 48.09375 
Q 17.96875 56 27.875 56 
Q 33.9375 56 38.25 53.625 
Q 42.578125 51.265625 45.40625 46.390625 
z
M 14.796875 27.296875 
Q 14.796875 17.390625 18.875 11.75 
Q 22.953125 6.109375 30.078125 6.109375 
Q 37.203125 6.109375 41.296875 11.75 
Q 45.40625 17.390625 45.40625 27.296875 
Q 45.40625 37.203125 41.296875 42.84375 
Q 37.203125 48.484375 30.078125 48.484375 
Q 22.953125 48.484375 18.875 42.84375 
Q 14.796875 37.203125 14.796875 27.296875 
z
" id="DejaVuSans-100"/>
      <path d="M 25.390625 72.90625 
L 33.6875 72.90625 
L 8.296875 -9.28125 
L 0 -9.28125 
z
" id="DejaVuSans-47"/>
     </defs>
     <use xlink:href="#DejaVuSans-84"/>
     <use x="61.083984" xlink:href="#DejaVuSans-104"/>
     <use x="124.462891" xlink:href="#DejaVuSans-101"/>
     <use x="185.986328" xlink:href="#DejaVuSans-32"/>
     <use x="217.773438" xlink:href="#DejaVuSans-108"/>
     <use x="245.556641" xlink:href="#DejaVuSans-101"/>
     <use x="307.080078" xlink:href="#DejaVuSans-97"/>
     <use x="368.359375" xlink:href="#DejaVuSans-114"/>
     <use x="407.722656" xlink:href="#DejaVuSans-110"/>
     <use x="471.101562" xlink:href="#DejaVuSans-105"/>
     <use x="498.884766" xlink:href="#DejaVuSans-110"/>
     <use x="562.263672" xlink:href="#DejaVuSans-103"/>
     <use x="625.740234" xlink:href="#DejaVuSans-32"/>
     <use x="657.527344" xlink:href="#DejaVuSans-99"/>
     <use x="712.507812" xlink:href="#DejaVuSans-117"/>
     <use x="775.886719" xlink:href="#DejaVuSans-114"/>
     <use x="817" xlink:href="#DejaVuSans-118"/>
     <use x="876.179688" xlink:href="#DejaVuSans-101"/>
     <use x="937.703125" xlink:href="#DejaVuSans-32"/>
     <use x="969.490234" xlink:href="#DejaVuSans-111"/>
     <use x="1030.671875" xlink:href="#DejaVuSans-110"/>
     <use x="1094.050781" xlink:href="#DejaVuSans-32"/>
     <use x="1125.837891" xlink:href="#DejaVuSans-955"/>
     <use x="1185.017578" xlink:href="#DejaVuSans-95"/>
     <use x="1235.017578" xlink:href="#DejaVuSans-110"/>
     <use x="1298.396484" xlink:href="#DejaVuSans-111"/>
     <use x="1359.578125" xlink:href="#DejaVuSans-110"/>
     <use x="1422.957031" xlink:href="#DejaVuSans-95"/>
     <use x="1472.957031" xlink:href="#DejaVuSans-105"/>
     <use x="1500.740234" xlink:href="#DejaVuSans-105"/>
     <use x="1528.523438" xlink:href="#DejaVuSans-100"/>
     <use x="1592" xlink:href="#DejaVuSans-95"/>
     <use x="1642" xlink:href="#DejaVuSans-97"/>
     <use x="1703.279297" xlink:href="#DejaVuSans-103"/>
     <use x="1766.755859" xlink:href="#DejaVuSans-103"/>
     <use x="1830.232422" xlink:href="#DejaVuSans-47"/>
     <use x="1863.923828" xlink:href="#DejaVuSans-104"/>
     <use x="1927.302734" xlink:href="#DejaVuSans-111"/>
     <use x="1988.484375" xlink:href="#DejaVuSans-115"/>
     <use x="2040.583984" xlink:href="#DejaVuSans-116"/>
     <use x="2079.792969" xlink:href="#DejaVuSans-47"/>
     <use x="2113.484375" xlink:href="#DejaVuSans-54"/>
    </g>
   </g>
   <g id="legend_2">
    <g id="patch_12">
     <path d="M 460.084375 74.518125 
L 511.4 74.518125 
Q 513.4 74.518125 513.4 72.518125 
L 513.4 58.84 
Q 513.4 56.84 511.4 56.84 
L 460.084375 56.84 
Q 458.084375 56.84 458.084375 58.84 
L 458.084375 72.518125 
Q 458.084375 74.518125 460.084375 74.518125 
z
" style="fill:#ffffff;opacity:0.8;stroke:#cccccc;stroke-linejoin:miter;"/>
    </g>
    <g id="line2d_28">
     <path d="M 462.084375 64.938438 
L 482.084375 64.938438 
" style="fill:none;stroke:#ff0000;stroke-linecap:square;stroke-width:1.5;"/>
    </g>
    <g id="line2d_29"/>
    <g id="text_27">
     <!-- loss -->
     <g transform="translate(490.084375 68.438438)scale(0.1 -0.1)">
      <use xlink:href="#DejaVuSans-108"/>
      <use x="27.783203" xlink:href="#DejaVuSans-111"/>
      <use x="88.964844" xlink:href="#DejaVuSans-115"/>
      <use x="141.064453" xlink:href="#DejaVuSans-115"/>
     </g>
    </g>
   </g>
  </g>
 </g>
 <defs>
  <clipPath id="p8f5121afcb">
   <rect height="332.64" width="446.4" x="72" y="51.84"/>
  </clipPath>
 </defs>
</svg>
