<?xml version="1.0" encoding="utf-8" standalone="no"?>
<!DOCTYPE svg PUBLIC "-//W3C//DTD SVG 1.1//EN"
  "http://www.w3.org/Graphics/SVG/1.1/DTD/svg11.dtd">
<!-- Created with matplotlib (https://matplotlib.org/) -->
<svg height="345.6pt" version="1.1" viewBox="0 0 460.8 345.6" width="460.8pt" xmlns="http://www.w3.org/2000/svg" xmlns:xlink="http://www.w3.org/1999/xlink">
 <metadata>
  <rdf:RDF xmlns:cc="http://creativecommons.org/ns#" xmlns:dc="http://purl.org/dc/elements/1.1/" xmlns:rdf="http://www.w3.org/1999/02/22-rdf-syntax-ns#">
   <cc:Work>
    <dc:type rdf:resource="http://purl.org/dc/dcmitype/StillImage"/>
    <dc:date>2023-04-17T00:04:56.378932</dc:date>
    <dc:format>image/svg+xml</dc:format>
    <dc:creator>
     <cc:Agent>
      <dc:title>Matplotlib v3.3.4, https://matplotlib.org/</dc:title>
     </cc:Agent>
    </dc:creator>
   </cc:Work>
  </rdf:RDF>
 </metadata>
 <defs>
  <style type="text/css">*{stroke-linecap:butt;stroke-linejoin:round;}</style>
 </defs>
 <g id="figure_1">
  <g id="patch_1">
   <path d="M 0 345.6 
L 460.8 345.6 
L 460.8 0 
L 0 0 
z
" style="fill:#ffffff;"/>
  </g>
  <g id="axes_1">
   <g id="patch_2">
    <path d="M 57.6 307.584 
L 414.72 307.584 
L 414.72 41.472 
L 57.6 41.472 
z
" style="fill:#ffffff;"/>
   </g>
   <g id="matplotlib.axis_1">
    <g id="xtick_1">
     <g id="line2d_1">
      <defs>
       <path d="M 0 0 
L 0 3.5 
" id="mb719c982d6" style="stroke:#000000;stroke-width:0.8;"/>
      </defs>
      <g>
       <use style="stroke:#000000;stroke-width:0.8;" x="73.832727" xlink:href="#mb719c982d6" y="307.584"/>
      </g>
     </g>
     <g id="text_1">
      <!-- 0 -->
      <g transform="translate(70.651477 322.182437)scale(0.1 -0.1)">
       <defs>
        <path d="M 31.78125 66.40625 
Q 24.171875 66.40625 20.328125 58.90625 
Q 16.5 51.421875 16.5 36.375 
Q 16.5 21.390625 20.328125 13.890625 
Q 24.171875 6.390625 31.78125 6.390625 
Q 39.453125 6.390625 43.28125 13.890625 
Q 47.125 21.390625 47.125 36.375 
Q 47.125 51.421875 43.28125 58.90625 
Q 39.453125 66.40625 31.78125 66.40625 
z
M 31.78125 74.21875 
Q 44.046875 74.21875 50.515625 64.515625 
Q 56.984375 54.828125 56.984375 36.375 
Q 56.984375 17.96875 50.515625 8.265625 
Q 44.046875 -1.421875 31.78125 -1.421875 
Q 19.53125 -1.421875 13.0625 8.265625 
Q 6.59375 17.96875 6.59375 36.375 
Q 6.59375 54.828125 13.0625 64.515625 
Q 19.53125 74.21875 31.78125 74.21875 
z
" id="DejaVuSans-48"/>
       </defs>
       <use xlink:href="#DejaVuSans-48"/>
      </g>
     </g>
    </g>
    <g id="xtick_2">
     <g id="line2d_2">
      <g>
       <use style="stroke:#000000;stroke-width:0.8;" x="138.893758" xlink:href="#mb719c982d6" y="307.584"/>
      </g>
     </g>
     <g id="text_2">
      <!-- 100 -->
      <g transform="translate(129.350008 322.182437)scale(0.1 -0.1)">
       <defs>
        <path d="M 12.40625 8.296875 
L 28.515625 8.296875 
L 28.515625 63.921875 
L 10.984375 60.40625 
L 10.984375 69.390625 
L 28.421875 72.90625 
L 38.28125 72.90625 
L 38.28125 8.296875 
L 54.390625 8.296875 
L 54.390625 0 
L 12.40625 0 
z
" id="DejaVuSans-49"/>
       </defs>
       <use xlink:href="#DejaVuSans-49"/>
       <use x="63.623047" xlink:href="#DejaVuSans-48"/>
       <use x="127.246094" xlink:href="#DejaVuSans-48"/>
      </g>
     </g>
    </g>
    <g id="xtick_3">
     <g id="line2d_3">
      <g>
       <use style="stroke:#000000;stroke-width:0.8;" x="203.95479" xlink:href="#mb719c982d6" y="307.584"/>
      </g>
     </g>
     <g id="text_3">
      <!-- 200 -->
      <g transform="translate(194.41104 322.182437)scale(0.1 -0.1)">
       <defs>
        <path d="M 19.1875 8.296875 
L 53.609375 8.296875 
L 53.609375 0 
L 7.328125 0 
L 7.328125 8.296875 
Q 12.9375 14.109375 22.625 23.890625 
Q 32.328125 33.6875 34.8125 36.53125 
Q 39.546875 41.84375 41.421875 45.53125 
Q 43.3125 49.21875 43.3125 52.78125 
Q 43.3125 58.59375 39.234375 62.25 
Q 35.15625 65.921875 28.609375 65.921875 
Q 23.96875 65.921875 18.8125 64.3125 
Q 13.671875 62.703125 7.8125 59.421875 
L 7.8125 69.390625 
Q 13.765625 71.78125 18.9375 73 
Q 24.125 74.21875 28.421875 74.21875 
Q 39.75 74.21875 46.484375 68.546875 
Q 53.21875 62.890625 53.21875 53.421875 
Q 53.21875 48.921875 51.53125 44.890625 
Q 49.859375 40.875 45.40625 35.40625 
Q 44.1875 33.984375 37.640625 27.21875 
Q 31.109375 20.453125 19.1875 8.296875 
z
" id="DejaVuSans-50"/>
       </defs>
       <use xlink:href="#DejaVuSans-50"/>
       <use x="63.623047" xlink:href="#DejaVuSans-48"/>
       <use x="127.246094" xlink:href="#DejaVuSans-48"/>
      </g>
     </g>
    </g>
    <g id="xtick_4">
     <g id="line2d_4">
      <g>
       <use style="stroke:#000000;stroke-width:0.8;" x="269.015821" xlink:href="#mb719c982d6" y="307.584"/>
      </g>
     </g>
     <g id="text_4">
      <!-- 300 -->
      <g transform="translate(259.472071 322.182437)scale(0.1 -0.1)">
       <defs>
        <path d="M 40.578125 39.3125 
Q 47.65625 37.796875 51.625 33 
Q 55.609375 28.21875 55.609375 21.1875 
Q 55.609375 10.40625 48.1875 4.484375 
Q 40.765625 -1.421875 27.09375 -1.421875 
Q 22.515625 -1.421875 17.65625 -0.515625 
Q 12.796875 0.390625 7.625 2.203125 
L 7.625 11.71875 
Q 11.71875 9.328125 16.59375 8.109375 
Q 21.484375 6.890625 26.8125 6.890625 
Q 36.078125 6.890625 40.9375 10.546875 
Q 45.796875 14.203125 45.796875 21.1875 
Q 45.796875 27.640625 41.28125 31.265625 
Q 36.765625 34.90625 28.71875 34.90625 
L 20.21875 34.90625 
L 20.21875 43.015625 
L 29.109375 43.015625 
Q 36.375 43.015625 40.234375 45.921875 
Q 44.09375 48.828125 44.09375 54.296875 
Q 44.09375 59.90625 40.109375 62.90625 
Q 36.140625 65.921875 28.71875 65.921875 
Q 24.65625 65.921875 20.015625 65.03125 
Q 15.375 64.15625 9.8125 62.3125 
L 9.8125 71.09375 
Q 15.4375 72.65625 20.34375 73.4375 
Q 25.25 74.21875 29.59375 74.21875 
Q 40.828125 74.21875 47.359375 69.109375 
Q 53.90625 64.015625 53.90625 55.328125 
Q 53.90625 49.265625 50.4375 45.09375 
Q 46.96875 40.921875 40.578125 39.3125 
z
" id="DejaVuSans-51"/>
       </defs>
       <use xlink:href="#DejaVuSans-51"/>
       <use x="63.623047" xlink:href="#DejaVuSans-48"/>
       <use x="127.246094" xlink:href="#DejaVuSans-48"/>
      </g>
     </g>
    </g>
    <g id="xtick_5">
     <g id="line2d_5">
      <g>
       <use style="stroke:#000000;stroke-width:0.8;" x="334.076852" xlink:href="#mb719c982d6" y="307.584"/>
      </g>
     </g>
     <g id="text_5">
      <!-- 400 -->
      <g transform="translate(324.533102 322.182437)scale(0.1 -0.1)">
       <defs>
        <path d="M 37.796875 64.3125 
L 12.890625 25.390625 
L 37.796875 25.390625 
z
M 35.203125 72.90625 
L 47.609375 72.90625 
L 47.609375 25.390625 
L 58.015625 25.390625 
L 58.015625 17.1875 
L 47.609375 17.1875 
L 47.609375 0 
L 37.796875 0 
L 37.796875 17.1875 
L 4.890625 17.1875 
L 4.890625 26.703125 
z
" id="DejaVuSans-52"/>
       </defs>
       <use xlink:href="#DejaVuSans-52"/>
       <use x="63.623047" xlink:href="#DejaVuSans-48"/>
       <use x="127.246094" xlink:href="#DejaVuSans-48"/>
      </g>
     </g>
    </g>
    <g id="xtick_6">
     <g id="line2d_6">
      <g>
       <use style="stroke:#000000;stroke-width:0.8;" x="399.137883" xlink:href="#mb719c982d6" y="307.584"/>
      </g>
     </g>
     <g id="text_6">
      <!-- 500 -->
      <g transform="translate(389.594133 322.182437)scale(0.1 -0.1)">
       <defs>
        <path d="M 10.796875 72.90625 
L 49.515625 72.90625 
L 49.515625 64.59375 
L 19.828125 64.59375 
L 19.828125 46.734375 
Q 21.96875 47.46875 24.109375 47.828125 
Q 26.265625 48.1875 28.421875 48.1875 
Q 40.625 48.1875 47.75 41.5 
Q 54.890625 34.8125 54.890625 23.390625 
Q 54.890625 11.625 47.5625 5.09375 
Q 40.234375 -1.421875 26.90625 -1.421875 
Q 22.3125 -1.421875 17.546875 -0.640625 
Q 12.796875 0.140625 7.71875 1.703125 
L 7.71875 11.625 
Q 12.109375 9.234375 16.796875 8.0625 
Q 21.484375 6.890625 26.703125 6.890625 
Q 35.15625 6.890625 40.078125 11.328125 
Q 45.015625 15.765625 45.015625 23.390625 
Q 45.015625 31 40.078125 35.4375 
Q 35.15625 39.890625 26.703125 39.890625 
Q 22.75 39.890625 18.8125 39.015625 
Q 14.890625 38.140625 10.796875 36.28125 
z
" id="DejaVuSans-53"/>
       </defs>
       <use xlink:href="#DejaVuSans-53"/>
       <use x="63.623047" xlink:href="#DejaVuSans-48"/>
       <use x="127.246094" xlink:href="#DejaVuSans-48"/>
      </g>
     </g>
    </g>
    <g id="text_7">
     <!-- epoch -->
     <g transform="translate(220.931875 335.860562)scale(0.1 -0.1)">
      <defs>
       <path d="M 56.203125 29.59375 
L 56.203125 25.203125 
L 14.890625 25.203125 
Q 15.484375 15.921875 20.484375 11.0625 
Q 25.484375 6.203125 34.421875 6.203125 
Q 39.59375 6.203125 44.453125 7.46875 
Q 49.3125 8.734375 54.109375 11.28125 
L 54.109375 2.78125 
Q 49.265625 0.734375 44.1875 -0.34375 
Q 39.109375 -1.421875 33.890625 -1.421875 
Q 20.796875 -1.421875 13.15625 6.1875 
Q 5.515625 13.8125 5.515625 26.8125 
Q 5.515625 40.234375 12.765625 48.109375 
Q 20.015625 56 32.328125 56 
Q 43.359375 56 49.78125 48.890625 
Q 56.203125 41.796875 56.203125 29.59375 
z
M 47.21875 32.234375 
Q 47.125 39.59375 43.09375 43.984375 
Q 39.0625 48.390625 32.421875 48.390625 
Q 24.90625 48.390625 20.390625 44.140625 
Q 15.875 39.890625 15.1875 32.171875 
z
" id="DejaVuSans-101"/>
       <path d="M 18.109375 8.203125 
L 18.109375 -20.796875 
L 9.078125 -20.796875 
L 9.078125 54.6875 
L 18.109375 54.6875 
L 18.109375 46.390625 
Q 20.953125 51.265625 25.265625 53.625 
Q 29.59375 56 35.59375 56 
Q 45.5625 56 51.78125 48.09375 
Q 58.015625 40.1875 58.015625 27.296875 
Q 58.015625 14.40625 51.78125 6.484375 
Q 45.5625 -1.421875 35.59375 -1.421875 
Q 29.59375 -1.421875 25.265625 0.953125 
Q 20.953125 3.328125 18.109375 8.203125 
z
M 48.6875 27.296875 
Q 48.6875 37.203125 44.609375 42.84375 
Q 40.53125 48.484375 33.40625 48.484375 
Q 26.265625 48.484375 22.1875 42.84375 
Q 18.109375 37.203125 18.109375 27.296875 
Q 18.109375 17.390625 22.1875 11.75 
Q 26.265625 6.109375 33.40625 6.109375 
Q 40.53125 6.109375 44.609375 11.75 
Q 48.6875 17.390625 48.6875 27.296875 
z
" id="DejaVuSans-112"/>
       <path d="M 30.609375 48.390625 
Q 23.390625 48.390625 19.1875 42.75 
Q 14.984375 37.109375 14.984375 27.296875 
Q 14.984375 17.484375 19.15625 11.84375 
Q 23.34375 6.203125 30.609375 6.203125 
Q 37.796875 6.203125 41.984375 11.859375 
Q 46.1875 17.53125 46.1875 27.296875 
Q 46.1875 37.015625 41.984375 42.703125 
Q 37.796875 48.390625 30.609375 48.390625 
z
M 30.609375 56 
Q 42.328125 56 49.015625 48.375 
Q 55.71875 40.765625 55.71875 27.296875 
Q 55.71875 13.875 49.015625 6.21875 
Q 42.328125 -1.421875 30.609375 -1.421875 
Q 18.84375 -1.421875 12.171875 6.21875 
Q 5.515625 13.875 5.515625 27.296875 
Q 5.515625 40.765625 12.171875 48.375 
Q 18.84375 56 30.609375 56 
z
" id="DejaVuSans-111"/>
       <path d="M 48.78125 52.59375 
L 48.78125 44.1875 
Q 44.96875 46.296875 41.140625 47.34375 
Q 37.3125 48.390625 33.40625 48.390625 
Q 24.65625 48.390625 19.8125 42.84375 
Q 14.984375 37.3125 14.984375 27.296875 
Q 14.984375 17.28125 19.8125 11.734375 
Q 24.65625 6.203125 33.40625 6.203125 
Q 37.3125 6.203125 41.140625 7.25 
Q 44.96875 8.296875 48.78125 10.40625 
L 48.78125 2.09375 
Q 45.015625 0.34375 40.984375 -0.53125 
Q 36.96875 -1.421875 32.421875 -1.421875 
Q 20.0625 -1.421875 12.78125 6.34375 
Q 5.515625 14.109375 5.515625 27.296875 
Q 5.515625 40.671875 12.859375 48.328125 
Q 20.21875 56 33.015625 56 
Q 37.15625 56 41.109375 55.140625 
Q 45.0625 54.296875 48.78125 52.59375 
z
" id="DejaVuSans-99"/>
       <path d="M 54.890625 33.015625 
L 54.890625 0 
L 45.90625 0 
L 45.90625 32.71875 
Q 45.90625 40.484375 42.875 44.328125 
Q 39.84375 48.1875 33.796875 48.1875 
Q 26.515625 48.1875 22.3125 43.546875 
Q 18.109375 38.921875 18.109375 30.90625 
L 18.109375 0 
L 9.078125 0 
L 9.078125 75.984375 
L 18.109375 75.984375 
L 18.109375 46.1875 
Q 21.34375 51.125 25.703125 53.5625 
Q 30.078125 56 35.796875 56 
Q 45.21875 56 50.046875 50.171875 
Q 54.890625 44.34375 54.890625 33.015625 
z
" id="DejaVuSans-104"/>
      </defs>
      <use xlink:href="#DejaVuSans-101"/>
      <use x="61.523438" xlink:href="#DejaVuSans-112"/>
      <use x="125" xlink:href="#DejaVuSans-111"/>
      <use x="186.181641" xlink:href="#DejaVuSans-99"/>
      <use x="241.162109" xlink:href="#DejaVuSans-104"/>
     </g>
    </g>
   </g>
   <g id="matplotlib.axis_2">
    <g id="ytick_1">
     <g id="line2d_7">
      <defs>
       <path d="M 0 0 
L -3.5 0 
" id="md4c4a6dcba" style="stroke:#000000;stroke-width:0.8;"/>
      </defs>
      <g>
       <use style="stroke:#000000;stroke-width:0.8;" x="57.6" xlink:href="#md4c4a6dcba" y="255.837461"/>
      </g>
     </g>
     <g id="text_8">
      <!-- 0.2 -->
      <g transform="translate(34.696875 259.63668)scale(0.1 -0.1)">
       <defs>
        <path d="M 10.6875 12.40625 
L 21 12.40625 
L 21 0 
L 10.6875 0 
z
" id="DejaVuSans-46"/>
       </defs>
       <use xlink:href="#DejaVuSans-48"/>
       <use x="63.623047" xlink:href="#DejaVuSans-46"/>
       <use x="95.410156" xlink:href="#DejaVuSans-50"/>
      </g>
     </g>
    </g>
    <g id="ytick_2">
     <g id="line2d_8">
      <g>
       <use style="stroke:#000000;stroke-width:0.8;" x="57.6" xlink:href="#md4c4a6dcba" y="200.868152"/>
      </g>
     </g>
     <g id="text_9">
      <!-- 0.4 -->
      <g transform="translate(34.696875 204.667371)scale(0.1 -0.1)">
       <use xlink:href="#DejaVuSans-48"/>
       <use x="63.623047" xlink:href="#DejaVuSans-46"/>
       <use x="95.410156" xlink:href="#DejaVuSans-52"/>
      </g>
     </g>
    </g>
    <g id="ytick_3">
     <g id="line2d_9">
      <g>
       <use style="stroke:#000000;stroke-width:0.8;" x="57.6" xlink:href="#md4c4a6dcba" y="145.898842"/>
      </g>
     </g>
     <g id="text_10">
      <!-- 0.6 -->
      <g transform="translate(34.696875 149.698061)scale(0.1 -0.1)">
       <defs>
        <path d="M 33.015625 40.375 
Q 26.375 40.375 22.484375 35.828125 
Q 18.609375 31.296875 18.609375 23.390625 
Q 18.609375 15.53125 22.484375 10.953125 
Q 26.375 6.390625 33.015625 6.390625 
Q 39.65625 6.390625 43.53125 10.953125 
Q 47.40625 15.53125 47.40625 23.390625 
Q 47.40625 31.296875 43.53125 35.828125 
Q 39.65625 40.375 33.015625 40.375 
z
M 52.59375 71.296875 
L 52.59375 62.3125 
Q 48.875 64.0625 45.09375 64.984375 
Q 41.3125 65.921875 37.59375 65.921875 
Q 27.828125 65.921875 22.671875 59.328125 
Q 17.53125 52.734375 16.796875 39.40625 
Q 19.671875 43.65625 24.015625 45.921875 
Q 28.375 48.1875 33.59375 48.1875 
Q 44.578125 48.1875 50.953125 41.515625 
Q 57.328125 34.859375 57.328125 23.390625 
Q 57.328125 12.15625 50.6875 5.359375 
Q 44.046875 -1.421875 33.015625 -1.421875 
Q 20.359375 -1.421875 13.671875 8.265625 
Q 6.984375 17.96875 6.984375 36.375 
Q 6.984375 53.65625 15.1875 63.9375 
Q 23.390625 74.21875 37.203125 74.21875 
Q 40.921875 74.21875 44.703125 73.484375 
Q 48.484375 72.75 52.59375 71.296875 
z
" id="DejaVuSans-54"/>
       </defs>
       <use xlink:href="#DejaVuSans-48"/>
       <use x="63.623047" xlink:href="#DejaVuSans-46"/>
       <use x="95.410156" xlink:href="#DejaVuSans-54"/>
      </g>
     </g>
    </g>
    <g id="ytick_4">
     <g id="line2d_10">
      <g>
       <use style="stroke:#000000;stroke-width:0.8;" x="57.6" xlink:href="#md4c4a6dcba" y="90.929533"/>
      </g>
     </g>
     <g id="text_11">
      <!-- 0.8 -->
      <g transform="translate(34.696875 94.728752)scale(0.1 -0.1)">
       <defs>
        <path d="M 31.78125 34.625 
Q 24.75 34.625 20.71875 30.859375 
Q 16.703125 27.09375 16.703125 20.515625 
Q 16.703125 13.921875 20.71875 10.15625 
Q 24.75 6.390625 31.78125 6.390625 
Q 38.8125 6.390625 42.859375 10.171875 
Q 46.921875 13.96875 46.921875 20.515625 
Q 46.921875 27.09375 42.890625 30.859375 
Q 38.875 34.625 31.78125 34.625 
z
M 21.921875 38.8125 
Q 15.578125 40.375 12.03125 44.71875 
Q 8.5 49.078125 8.5 55.328125 
Q 8.5 64.0625 14.71875 69.140625 
Q 20.953125 74.21875 31.78125 74.21875 
Q 42.671875 74.21875 48.875 69.140625 
Q 55.078125 64.0625 55.078125 55.328125 
Q 55.078125 49.078125 51.53125 44.71875 
Q 48 40.375 41.703125 38.8125 
Q 48.828125 37.15625 52.796875 32.3125 
Q 56.78125 27.484375 56.78125 20.515625 
Q 56.78125 9.90625 50.3125 4.234375 
Q 43.84375 -1.421875 31.78125 -1.421875 
Q 19.734375 -1.421875 13.25 4.234375 
Q 6.78125 9.90625 6.78125 20.515625 
Q 6.78125 27.484375 10.78125 32.3125 
Q 14.796875 37.15625 21.921875 38.8125 
z
M 18.3125 54.390625 
Q 18.3125 48.734375 21.84375 45.5625 
Q 25.390625 42.390625 31.78125 42.390625 
Q 38.140625 42.390625 41.71875 45.5625 
Q 45.3125 48.734375 45.3125 54.390625 
Q 45.3125 60.0625 41.71875 63.234375 
Q 38.140625 66.40625 31.78125 66.40625 
Q 25.390625 66.40625 21.84375 63.234375 
Q 18.3125 60.0625 18.3125 54.390625 
z
" id="DejaVuSans-56"/>
       </defs>
       <use xlink:href="#DejaVuSans-48"/>
       <use x="63.623047" xlink:href="#DejaVuSans-46"/>
       <use x="95.410156" xlink:href="#DejaVuSans-56"/>
      </g>
     </g>
    </g>
    <g id="text_12">
     <!-- loss value -->
     <g transform="translate(28.617187 199.432687)rotate(-90)scale(0.1 -0.1)">
      <defs>
       <path d="M 9.421875 75.984375 
L 18.40625 75.984375 
L 18.40625 0 
L 9.421875 0 
z
" id="DejaVuSans-108"/>
       <path d="M 44.28125 53.078125 
L 44.28125 44.578125 
Q 40.484375 46.53125 36.375 47.5 
Q 32.28125 48.484375 27.875 48.484375 
Q 21.1875 48.484375 17.84375 46.4375 
Q 14.5 44.390625 14.5 40.28125 
Q 14.5 37.15625 16.890625 35.375 
Q 19.28125 33.59375 26.515625 31.984375 
L 29.59375 31.296875 
Q 39.15625 29.25 43.1875 25.515625 
Q 47.21875 21.78125 47.21875 15.09375 
Q 47.21875 7.46875 41.1875 3.015625 
Q 35.15625 -1.421875 24.609375 -1.421875 
Q 20.21875 -1.421875 15.453125 -0.5625 
Q 10.6875 0.296875 5.421875 2 
L 5.421875 11.28125 
Q 10.40625 8.6875 15.234375 7.390625 
Q 20.0625 6.109375 24.8125 6.109375 
Q 31.15625 6.109375 34.5625 8.28125 
Q 37.984375 10.453125 37.984375 14.40625 
Q 37.984375 18.0625 35.515625 20.015625 
Q 33.0625 21.96875 24.703125 23.78125 
L 21.578125 24.515625 
Q 13.234375 26.265625 9.515625 29.90625 
Q 5.8125 33.546875 5.8125 39.890625 
Q 5.8125 47.609375 11.28125 51.796875 
Q 16.75 56 26.8125 56 
Q 31.78125 56 36.171875 55.265625 
Q 40.578125 54.546875 44.28125 53.078125 
z
" id="DejaVuSans-115"/>
       <path id="DejaVuSans-32"/>
       <path d="M 2.984375 54.6875 
L 12.5 54.6875 
L 29.59375 8.796875 
L 46.6875 54.6875 
L 56.203125 54.6875 
L 35.6875 0 
L 23.484375 0 
z
" id="DejaVuSans-118"/>
       <path d="M 34.28125 27.484375 
Q 23.390625 27.484375 19.1875 25 
Q 14.984375 22.515625 14.984375 16.5 
Q 14.984375 11.71875 18.140625 8.90625 
Q 21.296875 6.109375 26.703125 6.109375 
Q 34.1875 6.109375 38.703125 11.40625 
Q 43.21875 16.703125 43.21875 25.484375 
L 43.21875 27.484375 
z
M 52.203125 31.203125 
L 52.203125 0 
L 43.21875 0 
L 43.21875 8.296875 
Q 40.140625 3.328125 35.546875 0.953125 
Q 30.953125 -1.421875 24.3125 -1.421875 
Q 15.921875 -1.421875 10.953125 3.296875 
Q 6 8.015625 6 15.921875 
Q 6 25.140625 12.171875 29.828125 
Q 18.359375 34.515625 30.609375 34.515625 
L 43.21875 34.515625 
L 43.21875 35.40625 
Q 43.21875 41.609375 39.140625 45 
Q 35.0625 48.390625 27.6875 48.390625 
Q 23 48.390625 18.546875 47.265625 
Q 14.109375 46.140625 10.015625 43.890625 
L 10.015625 52.203125 
Q 14.9375 54.109375 19.578125 55.046875 
Q 24.21875 56 28.609375 56 
Q 40.484375 56 46.34375 49.84375 
Q 52.203125 43.703125 52.203125 31.203125 
z
" id="DejaVuSans-97"/>
       <path d="M 8.5 21.578125 
L 8.5 54.6875 
L 17.484375 54.6875 
L 17.484375 21.921875 
Q 17.484375 14.15625 20.5 10.265625 
Q 23.53125 6.390625 29.59375 6.390625 
Q 36.859375 6.390625 41.078125 11.03125 
Q 45.3125 15.671875 45.3125 23.6875 
L 45.3125 54.6875 
L 54.296875 54.6875 
L 54.296875 0 
L 45.3125 0 
L 45.3125 8.40625 
Q 42.046875 3.421875 37.71875 1 
Q 33.40625 -1.421875 27.6875 -1.421875 
Q 18.265625 -1.421875 13.375 4.4375 
Q 8.5 10.296875 8.5 21.578125 
z
M 31.109375 56 
z
" id="DejaVuSans-117"/>
      </defs>
      <use xlink:href="#DejaVuSans-108"/>
      <use x="27.783203" xlink:href="#DejaVuSans-111"/>
      <use x="88.964844" xlink:href="#DejaVuSans-115"/>
      <use x="141.064453" xlink:href="#DejaVuSans-115"/>
      <use x="193.164062" xlink:href="#DejaVuSans-32"/>
      <use x="224.951172" xlink:href="#DejaVuSans-118"/>
      <use x="284.130859" xlink:href="#DejaVuSans-97"/>
      <use x="345.410156" xlink:href="#DejaVuSans-108"/>
      <use x="373.193359" xlink:href="#DejaVuSans-117"/>
      <use x="436.572266" xlink:href="#DejaVuSans-101"/>
     </g>
    </g>
   </g>
   <g id="line2d_11">
    <path clip-path="url(#pe36cd24c7c)" d="M 73.832727 87.023145 
L 73.832727 221.775303 
L 74.483338 272.179657 
L 74.483338 271.91446 
L 75.133948 264.753709 
L 75.133948 272.82527 
L 75.784558 267.998379 
L 75.784558 275.362986 
L 76.435169 270.627748 
L 76.435169 278.285229 
L 76.435169 278.284213 
L 77.085779 273.670753 
L 77.085779 279.679438 
L 77.736389 276.405467 
L 77.736389 280.979882 
L 77.736389 280.817225 
L 78.386999 276.033544 
L 78.386999 281.413792 
L 78.386999 281.39189 
L 79.03761 276.945899 
L 79.03761 282.033189 
L 79.03761 281.941907 
L 79.68822 278.840573 
L 79.68822 282.757611 
L 79.68822 282.69573 
L 80.33883 224.675531 
L 80.33883 231.782943 
L 80.33883 260.669035 
L 80.989441 269.273949 
L 80.989441 274.862155 
L 81.640051 276.431441 
L 81.640051 279.941368 
L 81.640051 279.885404 
L 82.290661 277.47828 
L 82.290661 281.673705 
L 82.941272 279.630486 
L 82.941272 283.21889 
L 82.941272 283.012006 
L 83.591882 279.420818 
L 83.591882 283.901924 
L 84.242492 279.715874 
L 84.242492 284.202924 
L 84.893103 281.716437 
L 84.893103 285.296656 
L 85.543713 282.700295 
L 85.543713 285.783411 
L 86.194323 281.844247 
L 86.194323 286.036591 
L 86.844934 224.444871 
L 86.844934 230.481092 
L 86.844934 259.909533 
L 87.495544 269.524104 
L 87.495544 275.162656 
L 88.146154 275.692603 
L 88.146154 280.300637 
L 88.796764 278.277115 
L 88.796764 282.456217 
L 89.447375 279.349473 
L 89.447375 283.735911 
L 90.097985 281.3075 
L 90.097985 284.69746 
L 90.097985 284.684819 
L 90.748595 281.785801 
L 90.748595 285.57134 
L 91.399206 282.534807 
L 91.399206 286.300169 
L 92.049816 284.163827 
L 92.049816 287.07725 
L 92.700426 283.107733 
L 92.700426 287.249851 
L 93.351037 222.7999 
L 93.351037 229.39963 
L 93.351037 258.998778 
L 94.001647 269.32337 
L 94.001647 275.196642 
L 94.652257 274.994589 
L 94.652257 280.447384 
L 95.302868 278.078116 
L 95.302868 282.987396 
L 95.953478 280.710474 
L 95.953478 284.304074 
L 96.604088 281.03217 
L 96.604088 285.524592 
L 97.254698 283.768385 
L 97.254698 286.576558 
L 97.905309 282.795162 
L 97.905309 287.26121 
L 98.555919 283.689139 
L 98.555919 287.956619 
L 98.555919 287.946 
L 99.206529 284.140126 
L 99.206529 288.493588 
L 99.85714 222.206269 
L 99.85714 228.285677 
L 99.85714 257.617603 
L 100.50775 273.774114 
L 100.50775 275.449822 
L 101.15836 274.3251 
L 101.15836 280.60756 
L 101.808971 278.923178 
L 101.808971 283.3402 
L 102.459581 280.720217 
L 102.459581 284.928595 
L 103.110191 283.400797 
L 103.110191 286.205891 
L 103.110191 286.113659 
L 103.760802 284.592892 
L 103.760802 287.668544 
L 103.760802 287.555312 
L 104.411412 283.745989 
L 104.411412 287.84139 
L 105.062022 284.952402 
L 105.062022 288.853173 
L 105.062022 288.841296 
L 105.712633 284.937029 
L 105.712633 289.243169 
L 106.363243 221.896335 
L 106.363243 233.027981 
L 106.363243 256.406161 
L 107.013853 271.512694 
L 107.013853 275.680727 
L 107.664463 275.168616 
L 107.664463 281.402601 
L 108.315074 280.390652 
L 108.315074 284.15278 
L 108.965684 282.062096 
L 108.965684 286.149988 
L 109.616294 284.06861 
L 109.616294 287.194287 
L 110.266905 285.009735 
L 110.266905 288.856972 
L 110.266905 288.752025 
L 110.917515 285.506558 
L 110.917515 288.805305 
L 111.568125 285.095594 
L 111.568125 289.609529 
L 112.218736 287.667404 
L 112.218736 290.419263 
L 112.869346 221.01125 
L 112.869346 232.046077 
L 112.869346 255.859513 
L 113.519956 273.410308 
L 113.519956 275.467057 
L 114.170567 275.671372 
L 114.170567 281.462002 
L 114.821177 280.270849 
L 114.821177 284.180039 
L 115.471787 283.108114 
L 115.471787 286.588786 
L 116.122398 284.916582 
L 116.122398 287.855506 
L 116.122398 287.771691 
L 116.773008 285.034204 
L 116.773008 288.644459 
L 116.773008 288.634413 
L 117.423618 286.509863 
L 117.423618 289.66979 
L 117.423618 289.553357 
L 118.074228 287.852608 
L 118.074228 290.715372 
L 118.724839 289.234723 
L 118.724839 291.198194 
L 119.375449 218.907202 
L 119.375449 230.36752 
L 119.375449 253.797512 
L 120.026059 275.695607 
L 120.67667 273.919147 
L 120.67667 280.851891 
L 121.32728 281.362819 
L 121.32728 284.821722 
L 121.97789 281.086323 
L 121.97789 286.492438 
L 122.628501 285.717167 
L 122.628501 288.588555 
L 122.628501 288.473795 
L 123.279111 284.031263 
L 123.279111 289.283755 
L 123.279111 289.26981 
L 123.929721 287.766887 
L 123.929721 290.552319 
L 123.929721 290.433952 
L 124.580332 287.989786 
L 124.580332 291.464412 
L 125.230942 289.385939 
L 125.230942 292.464654 
L 125.881552 219.032616 
L 125.881552 229.307472 
L 125.881552 252.375198 
L 126.532163 273.58727 
L 126.532163 275.791368 
L 127.182773 275.424972 
L 127.182773 281.171092 
L 127.833383 281.945394 
L 127.833383 285.181339 
L 128.483993 283.391807 
L 128.483993 287.158654 
L 129.134604 285.459291 
L 129.134604 289.222363 
L 129.785214 287.022978 
L 129.785214 290.241744 
L 130.435824 289.009647 
L 130.435824 291.712866 
L 130.435824 291.661398 
L 131.086435 290.510439 
L 131.086435 292.840491 
L 131.086435 292.730014 
L 131.737045 288.225498 
L 131.737045 292.784904 
L 132.387655 216.635066 
L 132.387655 227.377354 
L 132.387655 250.910359 
L 133.038266 275.01988 
L 133.038266 276.215213 
L 133.688876 272.868053 
L 133.688876 280.79636 
L 134.339486 282.824586 
L 134.339486 285.435 
L 134.990097 284.010349 
L 134.990097 287.798068 
L 135.640707 285.974903 
L 135.640707 289.515459 
L 135.640707 289.461179 
L 136.291317 286.426146 
L 136.291317 290.932227 
L 136.941927 288.409682 
L 136.941927 291.659057 
L 137.592538 290.227687 
L 137.592538 292.100614 
L 138.243148 291.130943 
L 138.243148 294.114388 
L 138.243148 294.04609 
L 138.893758 217.318275 
L 138.893758 230.13618 
L 138.893758 249.292918 
L 139.544369 274.043174 
L 139.544369 275.909706 
L 140.194979 275.810636 
L 140.194979 279.438138 
L 140.845589 278.554451 
L 140.845589 281.69028 
L 140.845589 281.683839 
L 141.4962 280.821574 
L 141.4962 284.216598 
L 142.14681 282.923493 
L 142.14681 285.629066 
L 142.79742 281.547925 
L 142.79742 286.770062 
L 143.448031 285.414329 
L 143.448031 287.618199 
L 143.448031 287.467542 
L 144.098641 285.132826 
L 144.098641 287.883537 
L 144.749251 285.828768 
L 144.749251 288.795163 
L 145.399862 215.684952 
L 145.399862 226.116669 
L 145.399862 235.711689 
L 146.050472 255.143956 
L 146.050472 268.97204 
L 146.701082 271.660379 
L 146.701082 277.40959 
L 147.351692 276.949137 
L 147.351692 280.980823 
L 148.002303 278.634537 
L 148.002303 283.362749 
L 148.652913 283.383532 
L 148.652913 285.657787 
L 148.652913 285.642303 
L 149.303523 283.11027 
L 149.303523 286.610557 
L 149.954134 283.51959 
L 149.954134 287.74922 
L 150.604744 285.747318 
L 150.604744 289.026613 
L 150.604744 288.961714 
L 151.255354 286.87034 
L 151.255354 289.892148 
L 151.905965 215.165917 
L 151.905965 226.130696 
L 151.905965 233.208071 
L 152.556575 253.839209 
L 152.556575 267.502128 
L 153.207185 269.806598 
L 153.207185 276.652987 
L 153.857796 277.354204 
L 153.857796 280.842711 
L 154.508406 280.156232 
L 154.508406 283.786544 
L 155.159016 283.344666 
L 155.159016 285.963318 
L 155.159016 285.804002 
L 155.809627 283.447396 
L 155.809627 287.012643 
L 156.460237 285.06258 
L 156.460237 288.014415 
L 156.460237 287.869255 
L 157.110847 285.756529 
L 157.110847 289.356706 
L 157.761457 286.294614 
L 157.761457 290.021227 
L 157.761457 290.012003 
L 158.412068 215.516044 
L 158.412068 227.016864 
L 158.412068 231.672972 
L 159.062678 256.55714 
L 159.062678 265.704538 
L 159.713288 271.119101 
L 159.713288 276.815608 
L 160.363899 275.839604 
L 160.363899 280.529142 
L 160.363899 280.44994 
L 161.014509 281.007621 
L 161.014509 283.744766 
L 161.665119 280.740648 
L 161.665119 285.345711 
L 162.31573 284.329475 
L 162.31573 287.4576 
L 162.96634 284.690992 
L 162.96634 288.151 
L 163.61695 284.740161 
L 163.61695 289.222288 
L 164.267561 287.755345 
L 164.267561 289.431162 
L 164.267561 289.382214 
L 164.918171 213.320699 
L 164.918171 224.781358 
L 164.918171 229.56934 
L 165.568781 249.324839 
L 165.568781 263.381909 
L 166.219392 269.53295 
L 166.219392 275.663814 
L 166.870002 275.983189 
L 166.870002 280.393793 
L 167.520612 278.438758 
L 167.520612 283.375595 
L 168.171222 281.429474 
L 168.171222 285.404065 
L 168.821833 281.276962 
L 168.821833 286.702493 
L 169.472443 283.648773 
L 169.472443 287.688537 
L 170.123053 285.082439 
L 170.123053 289.304914 
L 170.123053 289.13401 
L 170.773664 287.704589 
L 170.773664 289.754877 
L 170.773664 289.658194 
L 171.424274 212.275519 
L 171.424274 223.553198 
L 171.424274 228.000438 
L 172.074884 244.386077 
L 172.074884 261.134463 
L 172.725495 268.31471 
L 172.725495 274.998315 
L 173.376105 276.139679 
L 173.376105 279.357354 
L 173.376105 279.27841 
L 174.026715 278.293537 
L 174.026715 282.008085 
L 174.677326 280.946156 
L 174.677326 285.398395 
L 175.327936 284.5646 
L 175.327936 287.138522 
L 175.978546 285.954894 
L 175.978546 288.211706 
L 176.629156 284.736006 
L 176.629156 289.158935 
L 177.279767 287.761526 
L 177.279767 290.266772 
L 177.930377 212.110191 
L 177.930377 225.18241 
L 177.930377 227.147235 
L 178.580987 245.886024 
L 178.580987 259.450913 
L 179.231598 268.284304 
L 179.231598 273.786 
L 179.882208 274.678361 
L 179.882208 279.165685 
L 180.532818 276.342613 
L 180.532818 281.718884 
L 181.183429 280.341911 
L 181.183429 284.727889 
L 181.183429 284.655513 
L 181.834039 282.405253 
L 181.834039 285.977891 
L 181.834039 285.958232 
L 182.484649 283.40841 
L 182.484649 287.118331 
L 182.484649 286.930093 
L 183.13526 282.911203 
L 183.13526 288.285743 
L 183.78587 287.879063 
L 183.78587 289.892241 
L 184.43648 211.939874 
L 184.43648 225.093068 
L 185.087091 246.001613 
L 185.087091 257.316284 
L 185.737701 264.005443 
L 185.737701 273.246291 
L 186.388311 272.595831 
L 186.388311 278.264443 
L 187.038921 276.795999 
L 187.038921 281.818407 
L 187.689532 279.171946 
L 187.689532 284.023904 
L 188.340142 281.540833 
L 188.340142 286.071066 
L 188.340142 285.882711 
L 188.990752 285.183975 
L 188.990752 287.759008 
L 188.990752 287.702207 
L 189.641363 284.618745 
L 189.641363 288.297074 
L 190.291973 284.41689 
L 190.291973 288.856898 
L 190.291973 288.83802 
L 190.942583 212.475283 
L 190.942583 224.51504 
L 191.593194 240.907003 
L 191.593194 255.076136 
L 192.243804 263.474249 
L 192.243804 270.515023 
L 192.894414 272.352913 
L 192.894414 277.423831 
L 192.894414 277.076719 
L 193.545025 276.605411 
L 193.545025 281.333372 
L 194.195635 278.096038 
L 194.195635 283.612531 
L 194.846245 282.043558 
L 194.846245 285.998925 
L 194.846245 285.621567 
L 195.496856 283.332647 
L 195.496856 286.764939 
L 195.496856 286.537928 
L 196.147466 284.302889 
L 196.147466 287.811163 
L 196.798076 286.256729 
L 196.798076 289.506563 
L 197.448686 210.582508 
L 197.448686 223.239169 
L 198.099297 237.172295 
L 198.099297 252.249468 
L 198.749907 259.498158 
L 198.749907 269.309539 
L 199.400517 271.388251 
L 199.400517 277.034536 
L 200.051128 277.029682 
L 200.051128 280.349116 
L 200.701738 281.035385 
L 200.701738 283.538299 
L 200.701738 283.454628 
L 201.352348 281.10374 
L 201.352348 284.844027 
L 201.352348 284.553873 
L 202.002959 282.705175 
L 202.002959 286.081803 
L 202.653569 284.266793 
L 202.653569 287.059345 
L 202.653569 287.054747 
L 203.304179 285.367693 
L 203.304179 288.42792 
L 203.95479 209.810926 
L 203.95479 223.013315 
L 204.6054 234.27283 
L 204.6054 249.405219 
L 205.25601 259.742629 
L 205.25601 267.2065 
L 205.906621 270.195448 
L 205.906621 275.865979 
L 206.557231 275.158513 
L 206.557231 279.724612 
L 207.207841 277.604987 
L 207.207841 282.550492 
L 207.858451 278.837952 
L 207.858451 284.109898 
L 208.509062 281.386346 
L 208.509062 286.312947 
L 209.159672 284.89264 
L 209.159672 287.415616 
L 209.810282 285.304706 
L 209.810282 288.69871 
L 210.460893 209.52523 
L 210.460893 221.932054 
L 211.111503 234.812327 
L 211.111503 247.553543 
L 211.762113 256.158468 
L 211.762113 265.596659 
L 212.412724 269.8067 
L 212.412724 275.139929 
L 213.063334 275.187743 
L 213.063334 278.540329 
L 213.063334 278.445724 
L 213.713944 278.259808 
L 213.713944 280.906313 
L 213.713944 280.862519 
L 214.364555 279.369308 
L 214.364555 283.111568 
L 215.015165 280.586298 
L 215.015165 285.18924 
L 215.015165 284.995362 
L 215.665775 283.078892 
L 215.665775 286.885122 
L 216.316385 284.899979 
L 216.316385 288.092146 
L 216.316385 287.841451 
L 216.966996 207.307564 
L 216.966996 220.30274 
L 217.617606 232.127394 
L 217.617606 245.896801 
L 218.268216 257.770124 
L 218.268216 264.342989 
L 218.918827 263.473376 
L 218.918827 272.837541 
L 219.569437 273.583129 
L 219.569437 277.686424 
L 220.220047 276.129375 
L 220.220047 280.592699 
L 220.870658 279.929436 
L 220.870658 282.532864 
L 221.521268 282.537172 
L 221.521268 285.02862 
L 221.521268 284.499754 
L 222.171878 284.603761 
L 222.171878 284.347779 
L 222.171878 286.205244 
L 222.171878 286.017827 
L 222.822489 283.774916 
L 222.822489 286.741425 
L 222.822489 286.72288 
L 223.473099 206.061007 
L 223.473099 219.484076 
L 224.123709 228.160272 
L 224.123709 243.306081 
L 224.77432 252.111304 
L 224.77432 262.100244 
L 225.42493 268.105678 
L 225.42493 271.647914 
L 226.07554 272.103978 
L 226.07554 276.377305 
L 226.72615 274.305606 
L 226.72615 279.374481 
L 227.376761 277.786249 
L 227.376761 282.230299 
L 228.027371 281.896829 
L 228.027371 284.558921 
L 228.027371 284.29001 
L 228.677981 280.766708 
L 228.677981 285.110018 
L 228.677981 285.108332 
L 229.328592 283.276788 
L 229.328592 283.419928 
L 229.328592 286.323257 
L 229.979202 208.178152 
L 229.979202 219.64729 
L 230.629812 226.479982 
L 230.629812 241.512753 
L 231.280423 249.35078 
L 231.280423 259.471708 
L 231.931033 262.663284 
L 231.931033 269.97628 
L 232.581643 268.176842 
L 232.581643 275.410658 
L 233.232254 273.875284 
L 233.232254 278.862678 
L 233.882864 280.987277 
L 233.882864 280.490679 
L 233.882864 281.758484 
L 233.882864 281.734153 
L 234.533474 278.570526 
L 234.533474 282.890356 
L 235.184085 280.957189 
L 235.184085 284.257966 
L 235.834695 282.108796 
L 235.834695 286.027276 
L 235.834695 286.015873 
L 236.485305 208.221548 
L 236.485305 218.485339 
L 237.135915 226.90563 
L 237.135915 239.911785 
L 237.786526 250.438997 
L 237.786526 257.795606 
L 238.437136 260.45732 
L 238.437136 268.303486 
L 239.087746 268.839507 
L 239.087746 274.238908 
L 239.738357 272.540144 
L 239.738357 277.502264 
L 240.388967 276.834982 
L 240.388967 279.228613 
L 241.039577 278.502456 
L 241.039577 282.319891 
L 241.690188 279.752996 
L 241.690188 283.791744 
L 241.690188 283.714753 
L 242.340798 280.563971 
L 242.340798 285.06271 
L 242.991408 207.118179 
L 242.991408 217.786685 
L 243.642019 224.661426 
L 243.642019 238.430782 
L 244.292629 245.374374 
L 244.292629 255.478415 
L 244.943239 257.606685 
L 244.943239 266.302491 
L 245.59385 267.456573 
L 245.59385 272.016562 
L 246.24446 270.263999 
L 246.24446 276.124177 
L 246.89507 274.518209 
L 246.89507 278.801547 
L 247.54568 279.769075 
L 247.54568 281.347247 
L 247.54568 280.975933 
L 248.196291 278.869368 
L 248.196291 282.262241 
L 248.846901 279.543321 
L 248.846901 284.754559 
L 248.846901 284.203907 
L 249.497511 207.83801 
L 249.497511 217.1646 
L 250.148122 224.762299 
L 250.148122 237.044423 
L 250.798732 243.454982 
L 250.798732 252.920107 
L 251.449342 259.215599 
L 251.449342 264.237831 
L 252.099953 265.638164 
L 252.099953 270.411237 
L 252.750563 270.845405 
L 252.750563 274.963677 
L 253.401173 273.323378 
L 253.401173 277.615388 
L 254.051784 278.365028 
L 254.051784 280.336536 
L 254.051784 280.024382 
L 254.702394 277.630298 
L 254.702394 282.163445 
L 255.353004 279.793001 
L 255.353004 283.143282 
L 256.003615 207.250325 
L 256.003615 216.540869 
L 256.654225 225.352244 
L 256.654225 235.041594 
L 257.304835 241.6955 
L 257.304835 250.297702 
L 257.955445 253.979747 
L 257.955445 261.492272 
L 258.606056 261.935528 
L 258.606056 268.449014 
L 259.256666 266.052931 
L 259.256666 272.123065 
L 259.907276 271.675295 
L 259.907276 276.198784 
L 260.557887 274.669936 
L 260.557887 278.529342 
L 261.208497 277.62892 
L 261.208497 281.638864 
L 261.208497 281.495258 
L 261.859107 276.302563 
L 261.859107 281.860346 
L 262.509718 207.587666 
L 262.509718 216.10354 
L 263.160328 221.076385 
L 263.160328 232.449029 
L 263.810938 239.543707 
L 263.810938 248.68071 
L 264.461549 251.718555 
L 264.461549 260.032471 
L 265.112159 260.975712 
L 265.112159 266.490001 
L 265.762769 268.340512 
L 265.762769 271.938171 
L 266.413379 267.856096 
L 266.413379 274.567213 
L 267.06399 272.959085 
L 267.06399 277.650445 
L 267.7146 276.713906 
L 267.7146 279.298495 
L 268.36521 278.104159 
L 268.36521 281.536024 
L 269.015821 206.354796 
L 269.015821 216.028592 
L 269.666431 219.820555 
L 269.666431 232.171448 
L 270.317041 237.672368 
L 270.317041 246.73507 
L 270.967652 247.614691 
L 270.967652 257.269178 
L 271.618262 259.51968 
L 271.618262 265.259169 
L 272.268872 262.934552 
L 272.268872 270.249897 
L 272.919483 266.258556 
L 272.919483 273.819242 
L 273.570093 272.572274 
L 273.570093 276.736902 
L 274.220703 274.056573 
L 274.220703 278.972235 
L 274.220703 278.527638 
L 274.871314 277.457388 
L 274.871314 280.273665 
L 275.521924 206.117042 
L 275.521924 214.984557 
L 276.172534 220.679798 
L 276.172534 230.394303 
L 276.823144 234.393771 
L 276.823144 244.971806 
L 277.473755 247.546992 
L 277.473755 255.166673 
L 278.124365 254.871185 
L 278.124365 262.812951 
L 278.774975 262.180236 
L 278.774975 268.414607 
L 279.425586 266.679818 
L 279.425586 271.607793 
L 280.076196 271.206471 
L 280.076196 274.669997 
L 280.726806 272.394393 
L 280.726806 277.3517 
L 281.377417 274.49441 
L 281.377417 279.23352 
L 282.028027 204.337181 
L 282.028027 213.983714 
L 282.678637 218.682382 
L 282.678637 228.609071 
L 283.329248 232.886214 
L 283.329248 242.16274 
L 283.979858 244.587724 
L 283.979858 252.113322 
L 284.630468 252.863088 
L 284.630468 260.231776 
L 285.281079 260.154144 
L 285.281079 266.183388 
L 285.931689 262.815691 
L 285.931689 270.110482 
L 286.582299 269.550479 
L 286.582299 272.719081 
L 287.232909 270.514686 
L 287.232909 275.53905 
L 287.88352 273.475683 
L 287.88352 277.18731 
L 288.53413 205.239239 
L 288.53413 213.383435 
L 289.18474 215.613174 
L 289.18474 227.224698 
L 289.835351 231.847145 
L 289.835351 240.46756 
L 290.485961 243.005812 
L 290.485961 250.560581 
L 291.136571 250.40189 
L 291.136571 257.680915 
L 291.787182 258.478506 
L 291.787182 264.382807 
L 292.437792 263.725759 
L 292.437792 268.435261 
L 293.088402 263.335455 
L 293.088402 270.9015 
L 293.739013 269.053921 
L 293.739013 273.68271 
L 294.389623 271.159319 
L 294.389623 276.193474 
L 295.040233 205.597737 
L 295.040233 213.427113 
L 295.690844 215.577837 
L 295.690844 225.563556 
L 296.341454 228.285743 
L 296.341454 237.765105 
L 296.992064 239.390026 
L 296.992064 247.585645 
L 297.642674 249.643205 
L 297.642674 255.674851 
L 298.293285 257.831227 
L 298.293285 261.660257 
L 298.943895 260.009997 
L 298.943895 265.495465 
L 299.594505 263.796125 
L 299.594505 269.175982 
L 300.245116 268.567969 
L 300.245116 272.566329 
L 300.895726 268.043839 
L 300.895726 274.340024 
L 300.895726 274.096496 
L 301.546336 203.320899 
L 301.546336 212.62558 
L 302.196947 214.754816 
L 302.196947 224.253272 
L 302.847557 227.457299 
L 302.847557 236.534142 
L 303.498167 237.511635 
L 303.498167 246.123827 
L 304.148778 248.255544 
L 304.148778 254.501983 
L 304.799388 252.750338 
L 304.799388 258.455496 
L 305.449998 258.168367 
L 305.449998 263.82757 
L 306.100608 261.43417 
L 306.100608 267.206534 
L 306.751219 263.513377 
L 306.751219 270.339736 
L 306.751219 270.277339 
L 307.401829 267.072125 
L 307.401829 272.952574 
L 308.052439 203.76026 
L 308.052439 211.92738 
L 308.70305 215.038996 
L 308.70305 223.298048 
L 309.35366 224.405488 
L 309.35366 234.077081 
L 310.00427 236.105819 
L 310.00427 244.096304 
L 310.654881 243.672373 
L 310.654881 250.664612 
L 311.305491 248.89054 
L 311.305491 257.534845 
L 311.956101 256.163997 
L 311.956101 261.298703 
L 312.606712 258.70786 
L 312.606712 265.253657 
L 313.257322 262.495429 
L 313.257322 267.982746 
L 313.907932 263.361843 
L 313.907932 270.736752 
L 314.558543 201.645163 
L 314.558543 211.611115 
L 315.209153 212.51768 
L 315.209153 221.830134 
L 315.859763 225.136876 
L 315.859763 232.524131 
L 316.510373 232.450605 
L 316.510373 240.982292 
L 317.160984 239.603707 
L 317.160984 247.886585 
L 317.811594 247.482488 
L 317.811594 254.46754 
L 318.462204 253.27996 
L 318.462204 259.36656 
L 319.112815 257.150939 
L 319.112815 262.230063 
L 319.763425 259.759916 
L 319.763425 266.155756 
L 320.414035 262.143774 
L 320.414035 268.066201 
L 321.064646 204.892527 
L 321.064646 210.871004 
L 321.715256 210.126208 
L 321.715256 220.462305 
L 322.365866 220.953044 
L 322.365866 230.706977 
L 323.016477 232.41001 
L 323.016477 239.463436 
L 323.667087 236.520819 
L 323.667087 245.817001 
L 324.317697 246.110157 
L 324.317697 251.943851 
L 324.968308 250.528016 
L 324.968308 256.315673 
L 325.618918 256.71764 
L 325.618918 260.854365 
L 326.269528 258.415045 
L 326.269528 264.304689 
L 326.920138 262.835948 
L 326.920138 266.674966 
L 327.570749 203.14525 
L 327.570749 209.642917 
L 328.221359 210.209102 
L 328.221359 219.571152 
L 328.871969 221.230844 
L 328.871969 228.117364 
L 329.52258 230.571927 
L 329.52258 236.939595 
L 330.17319 235.634194 
L 330.17319 243.224068 
L 330.8238 242.979171 
L 330.8238 249.592078 
L 331.474411 249.4806 
L 331.474411 253.877082 
L 332.125021 251.171248 
L 332.125021 257.071991 
L 332.775631 255.522367 
L 332.775631 261.361339 
L 333.426242 258.29383 
L 333.426242 263.287173 
L 334.076852 203.95311 
L 334.076852 209.240956 
L 334.727462 210.42166 
L 334.727462 218.227145 
L 335.378073 219.974719 
L 335.378073 226.509588 
L 336.028683 226.681023 
L 336.028683 234.138217 
L 336.679293 232.054141 
L 336.679293 240.223524 
L 337.329903 239.292217 
L 337.329903 246.777217 
L 337.980514 244.075545 
L 337.980514 250.673395 
L 338.631124 249.989158 
L 338.631124 254.434633 
L 339.281734 252.927523 
L 339.281734 258.690517 
L 339.932345 255.402711 
L 339.932345 261.538959 
L 340.582955 200.989124 
L 340.582955 208.269918 
L 341.233565 207.284236 
L 341.233565 216.307124 
L 341.884176 217.325852 
L 341.884176 224.040652 
L 342.534786 224.630095 
L 342.534786 231.757653 
L 343.185396 230.772682 
L 343.185396 238.49904 
L 343.836007 238.702861 
L 343.836007 243.286932 
L 344.486617 243.66317 
L 344.486617 248.359029 
L 345.137227 247.849628 
L 345.137227 252.084533 
L 345.787837 249.611915 
L 345.787837 255.481942 
L 346.438448 252.305485 
L 346.438448 257.837259 
L 347.089058 200.646017 
L 347.089058 206.914974 
L 347.739668 206.929326 
L 347.739668 215.138202 
L 348.390279 217.873064 
L 348.390279 222.427191 
L 349.040889 221.626816 
L 349.040889 229.068527 
L 349.691499 231.762269 
L 349.691499 235.785737 
L 350.34211 235.117108 
L 350.34211 240.39973 
L 350.99272 237.516165 
L 350.99272 244.806999 
L 351.64333 242.545552 
L 351.64333 249.165053 
L 352.293941 247.886377 
L 352.293941 252.915429 
L 352.944551 251.365073 
L 352.944551 255.847018 
L 353.595161 198.690416 
L 353.595161 206.069429 
L 354.245772 206.563136 
L 354.245772 214.183807 
L 354.896382 213.000797 
L 354.896382 221.014501 
L 355.546992 219.618375 
L 355.546992 227.480158 
L 356.197602 227.274212 
L 356.197602 233.419061 
L 356.848213 231.789627 
L 356.848213 237.80978 
L 357.498823 236.867481 
L 357.498823 241.965918 
L 358.149433 238.781602 
L 358.149433 246.156391 
L 358.800044 243.639092 
L 358.800044 249.494311 
L 359.450654 248.550828 
L 359.450654 253.304623 
L 360.101264 198.061809 
L 360.101264 205.476756 
L 360.751875 204.073175 
L 360.751875 212.815536 
L 361.402485 211.780214 
L 361.402485 219.023071 
L 362.053095 219.050218 
L 362.053095 224.869727 
L 362.703706 223.707363 
L 362.703706 230.427952 
L 363.354316 228.877089 
L 363.354316 235.560893 
L 364.004926 233.684163 
L 364.004926 239.310979 
L 364.655537 237.760815 
L 364.655537 243.273586 
L 365.306147 240.458059 
L 365.306147 247.105733 
L 365.956757 245.173295 
L 365.956757 250.035794 
L 366.607367 196.901954 
L 366.607367 204.32937 
L 367.257978 201.575383 
L 367.257978 210.300576 
L 367.908588 210.588021 
L 367.908588 217.158537 
L 368.559198 215.565182 
L 368.559198 223.070598 
L 369.209809 220.840851 
L 369.209809 227.651537 
L 369.860419 226.861562 
L 369.860419 232.221535 
L 370.511029 230.87679 
L 370.511029 236.61723 
L 371.16164 233.137934 
L 371.16164 239.487211 
L 371.81225 237.022882 
L 371.81225 243.226502 
L 372.46286 240.598004 
L 372.46286 247.162602 
L 373.113471 196.480901 
L 373.113471 203.008248 
L 373.764081 202.681259 
L 373.764081 209.384439 
L 374.414691 210.017439 
L 374.414691 215.711691 
L 375.065302 211.23645 
L 375.065302 219.886681 
L 375.715912 217.626652 
L 375.715912 224.976868 
L 376.366522 223.688434 
L 376.366522 230.001499 
L 377.017132 226.24104 
L 377.017132 233.44277 
L 377.667743 230.959733 
L 377.667743 237.570268 
L 378.318353 232.141769 
L 378.318353 239.866022 
L 378.968963 237.971948 
L 378.968963 243.395065 
L 379.619574 193.488418 
L 379.619574 201.894749 
L 380.270184 198.646873 
L 380.270184 208.054315 
L 380.920794 204.966918 
L 380.920794 213.020189 
L 381.571405 211.004659 
L 381.571405 218.658318 
L 382.222015 218.769052 
L 382.222015 223.000392 
L 382.872625 222.618337 
L 382.872625 227.666165 
L 383.523236 224.7958 
L 383.523236 231.014958 
L 384.173846 228.410624 
L 384.173846 234.083979 
L 384.824456 232.240512 
L 384.824456 237.183365 
L 385.475066 234.341987 
L 385.475066 241.130942 
L 386.125677 194.132154 
L 386.125677 201.140876 
L 386.776287 200.598255 
L 386.776287 206.607835 
L 387.426897 204.691895 
L 387.426897 211.257069 
L 388.077508 208.977772 
L 388.077508 215.847916 
L 388.728118 215.707355 
L 388.728118 220.333924 
L 389.378728 219.175181 
L 389.378728 224.683342 
L 390.029339 222.871899 
L 390.029339 227.72001 
L 390.679949 225.733956 
L 390.679949 231.454724 
L 391.330559 229.311551 
L 391.330559 234.727038 
L 391.98117 231.506904 
L 391.98117 237.407297 
L 392.63178 192.847238 
L 392.63178 199.767664 
L 393.28239 197.0241 
L 393.28239 204.411955 
L 393.933001 201.104053 
L 393.933001 209.617668 
L 394.583611 206.937844 
L 394.583611 213.930817 
L 394.583611 213.908578 
L 395.234221 211.410207 
L 395.234221 217.635586 
L 395.884831 215.644455 
L 395.884831 221.418199 
L 396.535442 219.789782 
L 396.535442 225.297812 
L 397.186052 222.709814 
L 397.186052 227.926152 
L 397.836662 225.863506 
L 397.836662 231.77472 
L 398.487273 228.323659 
L 398.487273 233.403021 
L 398.487273 233.403021 
" style="fill:none;stroke:#0000ff;stroke-linecap:square;stroke-width:1.5;"/>
   </g>
   <g id="line2d_12">
    <path clip-path="url(#pe36cd24c7c)" d="M 73.832727 277.351619 
L 73.832727 277.343871 
L 79.68822 277.321544 
L 79.68822 277.322665 
L 80.33883 281.333192 
L 80.33883 281.332058 
L 86.194323 281.337523 
L 86.194323 281.338149 
L 86.844934 283.476232 
L 86.844934 283.475271 
L 92.700426 283.48168 
L 92.700426 283.482324 
L 93.351037 285.454367 
L 93.351037 285.45346 
L 99.206529 285.459142 
L 99.206529 285.459786 
L 99.85714 287.26324 
L 99.85714 287.262338 
L 105.712633 287.266658 
L 105.712633 287.267226 
L 106.363243 288.864758 
L 106.363243 288.863779 
L 112.218736 288.865728 
L 112.218736 288.866273 
L 112.869346 290.095064 
L 112.869346 290.093991 
L 118.724839 290.093858 
L 118.724839 290.094332 
L 119.375449 290.929426 
L 119.375449 290.928507 
L 125.230942 290.925458 
L 125.230942 290.925874 
L 125.881552 291.493682 
L 125.881552 291.492584 
L 131.737045 291.486613 
L 131.737045 291.48698 
L 132.387655 291.958258 
L 132.387655 291.957323 
L 138.243148 291.951624 
L 138.243148 291.951921 
L 138.893758 292.370425 
L 138.893758 292.369094 
L 144.749251 292.367429 
L 144.749251 292.367673 
L 145.399862 292.814865 
L 145.399862 292.814653 
L 151.255354 292.807554 
L 151.255354 292.807557 
L 151.905965 293.096534 
L 151.905965 293.096206 
L 157.761457 293.086649 
L 157.761457 293.086695 
L 158.412068 293.317891 
L 158.412068 293.317608 
L 164.267561 293.307553 
L 164.267561 293.307553 
L 164.918171 293.507313 
L 164.918171 293.507141 
L 170.773664 293.496963 
L 171.424274 293.675616 
L 171.424274 293.675405 
L 177.279767 293.665309 
L 177.930377 293.825434 
L 177.930377 293.82513 
L 183.78587 293.814362 
L 184.43648 293.96288 
L 184.43648 293.962631 
L 190.291973 293.951427 
L 190.942583 294.087649 
L 190.942583 294.087456 
L 196.798076 294.076764 
L 197.448686 294.201731 
L 197.448686 294.201596 
L 203.304179 294.191366 
L 203.95479 294.307918 
L 203.95479 294.307758 
L 216.316385 294.396066 
L 217.617606 294.496513 
L 217.617606 294.495649 
L 229.328592 294.571782 
L 230.629812 294.659884 
L 230.629812 294.659148 
L 242.340798 294.724006 
L 243.642019 294.799973 
L 243.642019 294.799336 
L 255.353004 294.854018 
L 256.654225 294.921098 
L 256.654225 294.920566 
L 268.36521 294.968125 
L 269.666431 295.025941 
L 269.666431 295.025523 
L 287.88352 295.108621 
L 289.835351 295.154434 
L 289.835351 295.153969 
L 307.401829 295.221054 
L 309.35366 295.257365 
L 309.35366 295.256988 
L 333.426242 295.334522 
L 336.679293 295.359455 
L 336.679293 295.359314 
L 378.968963 295.456482 
L 386.125677 295.478552 
L 398.487273 295.487672 
L 398.487273 295.487659 
" style="fill:none;stroke:#008000;stroke-linecap:square;stroke-width:1.5;"/>
   </g>
   <g id="line2d_13">
    <path clip-path="url(#pe36cd24c7c)" d="M 73.832727 53.568 
L 73.832727 188.312406 
L 74.483338 238.698997 
L 74.483338 238.428729 
L 75.133948 231.25978 
L 75.133948 239.328521 
L 75.784558 234.499575 
L 75.784558 241.864159 
L 76.435169 237.129456 
L 76.435169 244.787781 
L 76.435169 244.786896 
L 77.085779 240.174771 
L 77.085779 246.184687 
L 77.736389 242.912242 
L 77.736389 247.487576 
L 77.736389 247.325217 
L 78.386999 242.543025 
L 78.386999 247.924319 
L 78.386999 247.902563 
L 79.03761 243.458037 
L 79.03761 248.546219 
L 79.03761 248.455229 
L 79.68822 245.355346 
L 79.68822 249.273368 
L 79.68822 249.211624 
L 80.33883 195.201841 
L 80.33883 202.309339 
L 80.33883 231.194322 
L 80.989441 239.796475 
L 80.989441 245.383499 
L 81.640051 246.952169 
L 81.640051 250.462133 
L 81.640051 250.406184 
L 82.290661 247.999254 
L 82.290661 252.195174 
L 82.941272 250.152759 
L 82.941272 253.741574 
L 82.941272 253.53508 
L 83.591882 249.944853 
L 83.591882 254.426741 
L 84.242492 250.241656 
L 84.242492 254.729528 
L 84.893103 252.244052 
L 84.893103 255.825041 
L 85.543713 253.229577 
L 85.543713 256.313363 
L 86.194323 252.374999 
L 86.194323 256.567969 
L 86.844934 197.11416 
L 86.844934 203.150492 
L 86.844934 232.578035 
L 87.495544 242.190011 
L 87.495544 247.827408 
L 88.146154 248.356876 
L 88.146154 252.965112 
L 88.796764 250.941898 
L 88.796764 255.12148 
L 89.447375 252.015517 
L 89.447375 256.402862 
L 90.097985 253.975578 
L 90.097985 257.366277 
L 90.097985 257.353735 
L 90.748595 254.455697 
L 90.748595 258.242025 
L 91.399206 255.206478 
L 91.399206 258.972642 
L 92.049816 256.837229 
L 92.049816 259.751344 
L 92.700426 255.782642 
L 92.700426 259.925405 
L 93.351037 197.447307 
L 93.351037 204.047156 
L 93.351037 233.645467 
L 94.001647 243.967464 
L 94.001647 249.839443 
L 94.652257 249.636885 
L 94.652257 255.090076 
L 95.302868 252.721276 
L 95.302868 257.630964 
L 95.953478 255.35465 
L 95.953478 258.948998 
L 96.604088 255.678099 
L 96.604088 260.171338 
L 97.254698 258.416082 
L 97.254698 261.224999 
L 97.905309 257.444519 
L 97.905309 261.911288 
L 98.555919 258.340089 
L 98.555919 262.60814 
L 98.555919 262.597599 
L 99.206529 258.792498 
L 99.206529 263.146604 
L 99.85714 198.66255 
L 99.85714 204.742078 
L 99.85714 234.07317 
L 100.50775 250.226802 
L 100.50775 251.901339 
L 101.15836 250.77591 
L 101.15836 257.058761 
L 101.808971 255.374878 
L 101.808971 259.792237 
L 102.459581 257.172731 
L 102.459581 261.381737 
L 103.110191 259.854854 
L 103.110191 262.660334 
L 103.110191 262.568468 
L 103.760802 261.048588 
L 103.760802 264.124559 
L 103.760802 264.011627 
L 104.411412 260.203065 
L 104.411412 264.299147 
L 105.062022 261.410985 
L 105.062022 265.312216 
L 105.062022 265.300481 
L 105.712633 261.396917 
L 105.712633 265.703625 
L 106.363243 199.954158 
L 106.363243 211.085969 
L 106.363243 234.46317 
L 107.013853 249.566946 
L 107.013853 253.733375 
L 107.664463 253.220313 
L 107.664463 259.454598 
L 108.315074 258.443071 
L 108.315074 262.205441 
L 108.965684 260.115068 
L 108.965684 264.203396 
L 109.616294 262.122682 
L 109.616294 265.248953 
L 110.266905 263.065085 
L 110.266905 266.912728 
L 110.266905 266.807836 
L 110.917515 263.562913 
L 110.917515 266.862207 
L 111.568125 263.153224 
L 111.568125 267.667761 
L 112.218736 265.726362 
L 112.218736 268.478765 
L 112.869346 200.299387 
L 112.869346 211.334371 
L 112.869346 235.146734 
L 113.519956 252.69409 
L 113.519956 254.74929 
L 114.170567 254.952404 
L 114.170567 260.743093 
L 114.821177 259.55208 
L 114.821177 263.461435 
L 115.471787 262.389727 
L 115.471787 265.870681 
L 116.122398 264.198916 
L 116.122398 267.13804 
L 116.122398 267.054551 
L 116.773008 264.317695 
L 116.773008 267.928356 
L 116.773008 267.918371 
L 117.423618 265.79445 
L 117.423618 268.95491 
L 117.423618 268.838546 
L 118.074228 267.138481 
L 118.074228 270.001779 
L 118.724839 268.521813 
L 118.724839 270.485755 
L 119.375449 199.029649 
L 119.375449 210.490176 
L 119.375449 233.919248 
L 120.026059 255.812261 
L 120.67667 254.034349 
L 120.67667 260.967192 
L 121.32728 261.478365 
L 121.32728 264.937341 
L 121.97789 261.201957 
L 121.97789 266.608098 
L 122.628501 265.832964 
L 122.628501 268.704485 
L 122.628501 268.589858 
L 123.279111 264.147726 
L 123.279111 269.400535 
L 123.279111 269.386625 
L 123.929721 267.884048 
L 123.929721 270.669626 
L 123.929721 270.551423 
L 124.580332 268.107668 
L 124.580332 271.582616 
L 125.230942 269.504626 
L 125.230942 272.583757 
L 125.881552 199.719345 
L 125.881552 209.994384 
L 125.881552 233.061011 
L 126.532163 254.269289 
L 126.532163 256.471176 
L 127.182773 256.102675 
L 127.182773 261.848636 
L 127.833383 262.623136 
L 127.833383 265.859175 
L 128.483993 264.069547 
L 128.483993 267.836213 
L 129.134604 266.136861 
L 129.134604 269.900183 
L 129.785214 267.70115 
L 129.785214 270.920253 
L 130.435824 269.688515 
L 130.435824 272.391848 
L 130.435824 272.340417 
L 131.086435 271.189659 
L 131.086435 273.519816 
L 131.086435 273.409475 
L 131.737045 268.905343 
L 131.737045 273.465114 
L 132.387655 197.786303 
L 132.387655 208.528817 
L 132.387655 232.060911 
L 133.038266 256.166913 
L 133.038266 257.360166 
L 133.688876 254.011037 
L 133.688876 261.939069 
L 134.339486 263.967228 
L 134.339486 266.577531 
L 134.990097 265.152614 
L 134.990097 268.940187 
L 135.640707 267.116971 
L 135.640707 270.657835 
L 135.640707 270.603607 
L 136.291317 267.56911 
L 136.291317 272.075577 
L 136.941927 269.553391 
L 136.941927 272.802992 
L 137.592538 271.371886 
L 137.592538 273.245078 
L 138.243148 272.275794 
L 138.243148 275.259476 
L 138.243148 275.191241 
L 138.893758 198.8818 
L 138.893758 211.699794 
L 138.893758 230.855242 
L 139.544369 255.601378 
L 139.544369 257.467091 
L 140.194979 257.367314 
L 140.194979 260.994778 
L 140.845589 260.111251 
L 140.845589 263.247318 
L 140.845589 263.240961 
L 141.4962 262.37912 
L 141.4962 265.774494 
L 142.14681 264.481791 
L 142.14681 267.187614 
L 142.79742 263.106777 
L 142.79742 268.32917 
L 143.448031 266.973734 
L 143.448031 269.177743 
L 143.448031 269.027231 
L 144.098641 266.692887 
L 144.098641 269.443881 
L 144.749251 267.389426 
L 144.749251 270.356064 
L 145.399862 197.692916 
L 145.399862 208.124764 
L 145.399862 217.719573 
L 146.050472 237.150777 
L 146.050472 250.977158 
L 146.701082 253.663417 
L 146.701082 259.411447 
L 147.351692 258.949877 
L 147.351692 262.981161 
L 148.002303 260.634599 
L 148.002303 265.36292 
L 148.652913 265.38393 
L 148.652913 267.658231 
L 148.652913 267.642855 
L 149.303523 265.110942 
L 149.303523 268.611228 
L 149.954134 265.52025 
L 149.954134 269.749909 
L 150.604744 267.74806 
L 150.604744 271.027377 
L 150.604744 270.96248 
L 151.255354 268.871121 
L 151.255354 271.892934 
L 151.905965 197.455597 
L 151.905965 208.4204 
L 151.905965 215.497509 
L 152.556575 236.127337 
L 152.556575 249.78841 
L 153.207185 252.090593 
L 153.207185 258.935708 
L 153.857796 259.635743 
L 153.857796 263.123697 
L 154.508406 262.436719 
L 154.508406 266.066879 
L 155.159016 265.624891 
L 155.159016 268.243513 
L 155.159016 268.084158 
L 155.809627 265.727447 
L 155.809627 269.292663 
L 156.460237 267.342574 
L 156.460237 270.294408 
L 156.460237 270.149241 
L 157.110847 268.036504 
L 157.110847 271.63663 
L 157.761457 268.574493 
L 157.761457 272.301123 
L 157.761457 272.291927 
L 158.412068 198.027104 
L 158.412068 209.527884 
L 158.412068 214.18381 
L 159.062678 239.066533 
L 159.062678 248.212292 
L 159.713288 253.624574 
L 159.713288 259.319749 
L 160.363899 258.342473 
L 160.363899 263.031722 
L 160.363899 262.952329 
L 161.014509 263.509622 
L 161.014509 266.246563 
L 161.665119 263.242212 
L 161.665119 267.847103 
L 162.31573 266.830677 
L 162.31573 269.958708 
L 162.96634 267.191977 
L 162.96634 270.651931 
L 163.61695 267.241058 
L 163.61695 271.723152 
L 164.267561 270.256156 
L 164.267561 271.931953 
L 164.267561 271.882997 
L 164.918171 196.02112 
L 164.918171 207.481856 
L 164.918171 212.26971 
L 165.568781 232.024285 
L 165.568781 246.079773 
L 166.219392 252.228751 
L 166.219392 258.35822 
L 166.870002 258.676152 
L 166.870002 263.08605 
L 167.520612 261.130359 
L 167.520612 266.066961 
L 168.171222 264.120614 
L 168.171222 268.095082 
L 168.821833 263.967818 
L 168.821833 269.393272 
L 169.472443 266.339442 
L 169.472443 270.379102 
L 170.123053 267.772895 
L 170.123053 271.995347 
L 170.123053 271.824405 
L 170.773664 270.39488 
L 170.773664 272.445119 
L 170.773664 272.348385 
L 171.424274 195.144324 
L 171.424274 206.421966 
L 171.424274 210.869072 
L 172.074884 227.253808 
L 172.074884 244.000653 
L 172.725495 251.178845 
L 172.725495 257.861003 
L 173.376105 259.000833 
L 173.376105 262.217903 
L 173.376105 262.13881 
L 174.026715 261.153257 
L 174.026715 264.867521 
L 174.677326 263.805323 
L 174.677326 268.257408 
L 175.327936 267.423456 
L 175.327936 269.997299 
L 175.978546 268.813578 
L 175.978546 271.070318 
L 176.629156 267.594527 
L 176.629156 272.017458 
L 177.279767 270.620069 
L 177.279767 273.125311 
L 177.930377 195.128835 
L 177.930377 208.200863 
L 177.930377 210.165595 
L 178.580987 228.903308 
L 178.580987 242.466668 
L 179.231598 251.298095 
L 179.231598 256.798449 
L 179.882208 257.689296 
L 179.882208 262.175863 
L 180.532818 259.35207 
L 180.532818 264.728026 
L 181.183429 263.350732 
L 181.183429 267.736635 
L 181.183429 267.6642 
L 181.834039 265.413795 
L 181.834039 268.986377 
L 181.834039 268.966637 
L 182.484649 266.416598 
L 182.484649 270.1264 
L 182.484649 269.938129 
L 183.13526 265.919081 
L 183.13526 271.293523 
L 183.78587 270.886733 
L 183.78587 272.899832 
L 184.43648 195.095947 
L 184.43648 208.248928 
L 185.087091 229.1564 
L 185.087091 240.469857 
L 185.737701 247.157175 
L 185.737701 256.396678 
L 186.388311 255.744692 
L 186.388311 261.412431 
L 187.038921 259.94308 
L 187.038921 264.965002 
L 187.689532 262.317998 
L 187.689532 267.169658 
L 188.340142 264.68626 
L 188.340142 269.21639 
L 188.340142 269.027959 
L 188.990752 268.329048 
L 188.990752 270.903987 
L 188.990752 270.84716 
L 189.641363 267.763586 
L 189.641363 271.441893 
L 190.291973 267.561648 
L 190.291973 272.001614 
L 190.291973 271.982676 
L 190.942583 195.756123 
L 190.942583 207.795726 
L 191.593194 224.186926 
L 191.593194 238.3548 
L 192.243804 246.751226 
L 192.243804 253.790775 
L 192.894414 255.627335 
L 192.894414 260.697824 
L 192.894414 260.350333 
L 193.545025 259.878179 
L 193.545025 264.605649 
L 194.195635 261.367752 
L 194.195635 266.883901 
L 194.846245 265.314556 
L 194.846245 269.26981 
L 194.846245 268.892359 
L 195.496856 266.603236 
L 195.496856 270.035458 
L 195.496856 269.808372 
L 196.147466 267.573181 
L 196.147466 271.081366 
L 196.798076 269.526815 
L 196.798076 272.776557 
L 197.448686 193.977416 
L 197.448686 206.633994 
L 198.099297 220.566483 
L 198.099297 235.64252 
L 198.749907 242.88963 
L 198.749907 252.699864 
L 199.400517 254.777246 
L 199.400517 260.422713 
L 200.051128 260.416999 
L 200.051128 263.735945 
L 200.701738 264.421709 
L 200.701738 266.92434 
L 200.701738 266.840632 
L 201.352348 264.489404 
L 201.352348 268.229535 
L 201.352348 267.939337 
L 202.002959 266.090426 
L 202.002959 269.466935 
L 202.653569 267.65177 
L 202.653569 270.444233 
L 202.653569 270.43962 
L 203.304179 268.752407 
L 203.304179 271.812516 
L 203.95479 193.312032 
L 203.95479 206.514303 
L 204.6054 217.773174 
L 204.6054 232.904553 
L 205.25601 243.240499 
L 205.25601 250.703161 
L 205.906621 253.690697 
L 205.906621 259.360341 
L 206.557231 258.651931 
L 206.557231 263.217477 
L 207.207841 261.097267 
L 207.207841 266.042443 
L 207.858451 262.329519 
L 207.858451 267.601204 
L 208.509062 264.87737 
L 208.509062 269.803833 
L 209.159672 268.383347 
L 209.159672 270.906155 
L 209.810282 268.795046 
L 209.810282 272.188951 
L 210.460893 193.12489 
L 210.460893 205.531608 
L 211.111503 218.411332 
L 211.111503 231.151618 
L 211.762113 239.755176 
L 211.762113 249.192248 
L 212.412724 253.400975 
L 212.412724 258.733362 
L 213.063334 258.780236 
L 213.063334 262.132386 
L 213.063334 262.037648 
L 213.713944 261.851095 
L 213.713944 264.497328 
L 213.713944 264.453461 
L 214.364555 262.959899 
L 214.364555 266.701936 
L 215.015165 264.176424 
L 215.015165 268.779282 
L 215.015165 268.585315 
L 215.665775 266.668609 
L 215.665775 270.474687 
L 216.316385 268.489392 
L 216.316385 271.681498 
L 216.316385 271.430747 
L 216.966996 190.997957 
L 216.966996 203.993033 
L 217.617606 215.817139 
L 217.617606 229.585681 
L 218.268216 241.457662 
L 218.268216 248.029656 
L 218.918827 247.158846 
L 218.918827 256.522214 
L 219.569437 257.266916 
L 219.569437 261.369687 
L 220.220047 259.81206 
L 220.220047 264.275049 
L 220.870658 263.611416 
L 220.870658 266.214598 
L 221.521268 266.21862 
L 221.521268 268.710019 
L 221.521268 268.181025 
L 222.171878 268.284833 
L 222.171878 268.028831 
L 222.171878 269.886194 
L 222.171878 269.698735 
L 222.822489 267.455614 
L 222.822489 270.422059 
L 222.822489 270.403453 
L 223.473099 189.836178 
L 223.473099 203.259128 
L 224.123709 211.934796 
L 224.123709 227.079774 
L 224.77432 235.883816 
L 224.77432 245.871746 
L 225.42493 251.875868 
L 225.42493 255.41742 
L 226.07554 255.872584 
L 226.07554 260.145306 
L 226.72615 258.072913 
L 226.72615 263.141344 
L 227.376761 261.552633 
L 227.376761 265.996407 
L 228.027371 265.662631 
L 228.027371 268.324633 
L 228.027371 268.055639 
L 228.677981 264.532145 
L 228.677981 268.875425 
L 228.677981 268.873645 
L 229.328592 267.041937 
L 229.328592 267.185059 
L 229.328592 270.088268 
L 229.979202 192.031842 
L 229.979202 203.500878 
L 230.629812 210.333098 
L 230.629812 225.365131 
L 231.280423 233.202086 
L 231.280423 243.322064 
L 231.931033 246.512502 
L 231.931033 253.824703 
L 232.581643 252.024347 
L 232.581643 259.257604 
L 233.232254 257.721582 
L 233.232254 262.708604 
L 233.882864 264.832798 
L 233.882864 264.336168 
L 233.882864 265.603885 
L 233.882864 265.579444 
L 234.533474 262.415549 
L 234.533474 266.735216 
L 235.184085 264.801865 
L 235.184085 268.102514 
L 235.834695 265.953176 
L 235.834695 269.871576 
L 235.834695 269.860093 
L 236.485305 192.148048 
L 236.485305 202.411728 
L 237.135915 210.83159 
L 237.135915 223.837057 
L 237.786526 234.36319 
L 237.786526 241.719066 
L 238.437136 244.379753 
L 238.437136 252.225205 
L 239.087746 252.760364 
L 239.087746 258.159181 
L 239.738357 256.459752 
L 239.738357 261.42151 
L 240.388967 260.753803 
L 240.388967 263.147127 
L 241.039577 262.420607 
L 241.039577 266.237813 
L 241.690188 263.670687 
L 241.690188 267.709395 
L 241.690188 267.632292 
L 242.340798 264.481336 
L 242.340798 268.979946 
L 242.991408 191.111821 
L 242.991408 201.780273 
L 243.642019 208.654626 
L 243.642019 222.423348 
L 244.292629 229.366046 
L 244.292629 239.4693 
L 244.943239 241.596601 
L 244.943239 250.29172 
L 245.59385 251.445006 
L 245.59385 256.004469 
L 246.24446 254.251318 
L 246.24446 260.111146 
L 246.89507 258.50475 
L 246.89507 262.787804 
L 247.54568 263.754973 
L 247.54568 265.333073 
L 247.54568 264.961556 
L 248.196291 262.854664 
L 248.196291 266.247326 
L 248.846901 263.52817 
L 248.846901 268.739366 
L 248.846901 268.188586 
L 249.497511 191.894158 
L 249.497511 201.220649 
L 250.148122 208.817972 
L 250.148122 221.099506 
L 250.798732 227.509205 
L 250.798732 236.973608 
L 251.449342 243.268101 
L 251.449342 248.28977 
L 252.099953 249.689365 
L 252.099953 254.461933 
L 252.750563 254.895533 
L 252.750563 259.013392 
L 253.401173 257.372609 
L 253.401173 261.664299 
L 254.051784 262.413555 
L 254.051784 264.384922 
L 254.051784 264.072633 
L 254.702394 261.678227 
L 254.702394 266.211143 
L 255.353004 263.840438 
L 255.353004 267.19053 
L 256.003615 191.365065 
L 256.003615 200.655517 
L 256.654225 209.466574 
L 256.654225 219.155388 
L 257.304835 225.808535 
L 257.304835 234.410055 
L 257.955445 238.091251 
L 257.955445 245.603115 
L 258.606056 246.045599 
L 258.606056 252.558558 
L 259.256666 250.161883 
L 259.256666 256.231604 
L 259.907276 255.783354 
L 259.907276 260.30651 
L 260.557887 258.777271 
L 260.557887 262.636402 
L 261.208497 261.735675 
L 261.208497 265.745422 
L 261.208497 265.601791 
L 261.859107 260.408861 
L 261.859107 265.966495 
L 262.509718 191.756876 
L 262.509718 200.27272 
L 263.160328 205.2453 
L 263.160328 216.617427 
L 263.810938 223.711352 
L 263.810938 232.847709 
L 264.461549 235.884783 
L 264.461549 244.198155 
L 265.112159 245.140744 
L 265.112159 250.654556 
L 265.762769 252.504516 
L 265.762769 256.101777 
L 266.413379 252.01924 
L 266.413379 258.730037 
L 267.06399 257.121545 
L 267.06399 261.812662 
L 267.7146 260.87585 
L 267.7146 263.460251 
L 268.36521 262.265694 
L 268.36521 265.697377 
L 269.015821 190.574324 
L 269.015821 200.248057 
L 269.666431 204.039723 
L 269.666431 216.390199 
L 270.317041 221.890511 
L 270.317041 230.952636 
L 270.967652 231.831532 
L 270.967652 241.485498 
L 271.618262 243.735395 
L 271.618262 249.474446 
L 272.268872 247.1493 
L 272.268872 254.464269 
L 272.919483 250.472476 
L 272.919483 258.03286 
L 273.570093 256.785515 
L 273.570093 260.94987 
L 274.220703 258.269248 
L 274.220703 263.184814 
L 274.220703 262.74012 
L 274.871314 261.669634 
L 274.871314 264.485736 
L 275.521924 190.38271 
L 275.521924 199.250205 
L 276.172534 204.945261 
L 276.172534 214.659377 
L 276.823144 218.658268 
L 276.823144 229.235764 
L 277.473755 231.81026 
L 277.473755 239.429435 
L 278.124365 239.133351 
L 278.124365 247.074693 
L 278.774975 246.441469 
L 278.774975 252.675454 
L 279.425586 250.940199 
L 279.425586 255.867836 
L 280.076196 255.466106 
L 280.076196 258.929361 
L 280.726806 256.653438 
L 280.726806 261.610506 
L 281.377417 258.752939 
L 281.377417 263.491854 
L 282.028027 188.646049 
L 282.028027 198.292531 
L 282.678637 202.990947 
L 282.678637 212.917274 
L 283.329248 217.193886 
L 283.329248 226.469925 
L 283.979858 228.894282 
L 283.979858 236.419373 
L 284.630468 237.168527 
L 284.630468 244.536767 
L 285.281079 244.458617 
L 285.281079 250.487512 
L 285.931689 247.119394 
L 285.931689 254.413879 
L 286.582299 253.853507 
L 286.582299 257.021848 
L 287.232909 254.817153 
L 287.232909 259.841318 
L 287.88352 257.777711 
L 287.88352 261.489161 
L 288.53413 189.588037 
L 288.53413 197.732194 
L 289.18474 199.961711 
L 289.18474 211.572875 
L 289.835351 216.194805 
L 289.835351 224.814759 
L 290.485961 227.352412 
L 290.485961 234.90673 
L 291.136571 234.747486 
L 291.136571 242.026106 
L 291.787182 242.823201 
L 291.787182 248.727121 
L 292.437792 248.069623 
L 292.437792 252.778787 
L 293.088402 247.678586 
L 293.088402 255.244383 
L 293.739013 253.396511 
L 293.739013 258.025091 
L 294.389623 255.501442 
L 294.389623 260.5354 
L 295.040233 189.983265 
L 295.040233 197.812579 
L 295.690844 199.963095 
L 295.690844 209.948518 
L 296.341454 212.670288 
L 296.341454 222.149268 
L 296.992064 223.773711 
L 296.992064 231.968973 
L 297.642674 234.026083 
L 297.642674 240.057362 
L 298.293285 242.213282 
L 298.293285 246.041981 
L 298.943895 244.391311 
L 298.943895 249.876487 
L 299.594505 248.176807 
L 299.594505 253.556414 
L 300.245116 252.948099 
L 300.245116 256.946243 
L 300.895726 252.423494 
L 300.895726 258.719589 
L 300.895726 258.47597 
L 301.546336 187.74101 
L 301.546336 197.045641 
L 302.196947 199.174713 
L 302.196947 208.672899 
L 302.847557 211.876524 
L 302.847557 220.952988 
L 303.498167 221.93 
L 303.498167 230.54184 
L 304.148778 232.673107 
L 304.148778 238.919187 
L 304.799388 237.167119 
L 304.799388 242.87198 
L 305.449998 242.584489 
L 305.449998 248.24341 
L 306.100608 245.849664 
L 306.100608 251.621781 
L 306.751219 247.928327 
L 306.751219 254.754579 
L 306.751219 254.692076 
L 307.401829 251.4866 
L 307.401829 257.366857 
L 308.052439 188.211766 
L 308.052439 196.378835 
L 308.70305 199.490266 
L 308.70305 207.749038 
L 309.35366 208.856085 
L 309.35366 218.527298 
L 310.00427 220.555556 
L 310.00427 228.545663 
L 310.654881 228.121258 
L 310.654881 235.113149 
L 311.305491 233.338656 
L 311.305491 241.982669 
L 311.956101 240.611453 
L 311.956101 245.745864 
L 312.606712 243.154673 
L 312.606712 249.700214 
L 313.257322 246.941673 
L 313.257322 252.428765 
L 313.907932 247.807591 
L 313.907932 255.182311 
L 314.558543 186.125592 
L 314.558543 196.091547 
L 315.209153 196.998003 
L 315.209153 206.310236 
L 315.859763 209.616634 
L 315.859763 217.003552 
L 316.510373 216.929601 
L 316.510373 225.460975 
L 317.160984 224.081998 
L 317.160984 232.36458 
L 317.811594 231.960116 
L 317.811594 238.944913 
L 318.462204 237.757023 
L 318.462204 243.843408 
L 319.112815 241.627514 
L 319.112815 246.706415 
L 319.763425 244.235996 
L 319.763425 250.63162 
L 320.414035 246.619379 
L 320.414035 252.541615 
L 321.064646 189.399364 
L 321.064646 195.377886 
L 321.715256 194.633078 
L 321.715256 204.969041 
L 322.365866 205.459545 
L 322.365866 215.213219 
L 323.016477 216.915922 
L 323.016477 223.969076 
L 323.667087 221.026116 
L 323.667087 230.322036 
L 324.317697 230.614856 
L 324.317697 236.448286 
L 324.968308 235.032117 
L 324.968308 240.819527 
L 325.618918 241.221196 
L 325.618918 245.357694 
L 326.269528 242.918098 
L 326.269528 248.807529 
L 326.920138 247.338526 
L 326.920138 251.177365 
L 327.570749 187.676284 
L 327.570749 194.174039 
L 328.221359 194.740283 
L 328.221359 204.102293 
L 328.871969 205.761886 
L 328.871969 212.648246 
L 329.52258 215.102584 
L 329.52258 221.470054 
L 330.17319 220.1644 
L 330.17319 227.754063 
L 330.8238 227.508911 
L 330.8238 234.121613 
L 331.474411 234.009864 
L 331.474411 238.406145 
L 332.125021 235.70005 
L 332.125021 241.600582 
L 332.775631 240.050693 
L 332.775631 245.889472 
L 333.426242 242.821739 
L 333.426242 247.814924 
L 334.076852 188.506276 
L 334.076852 193.794216 
L 334.727462 194.97499 
L 334.727462 202.780448 
L 335.378073 204.527943 
L 335.378073 211.062703 
L 336.028683 211.233993 
L 336.028683 218.69106 
L 336.679293 216.606824 
L 336.679293 224.776066 
L 337.329903 223.84458 
L 337.329903 231.329425 
L 337.980514 228.627556 
L 337.980514 235.225249 
L 338.631124 234.540817 
L 338.631124 238.986124 
L 339.281734 237.478813 
L 339.281734 243.241642 
L 339.932345 239.953637 
L 339.932345 246.089744 
L 340.582955 185.562612 
L 340.582955 192.843484 
L 341.233565 191.857864 
L 341.233565 200.880746 
L 341.884176 201.899422 
L 341.884176 208.614161 
L 342.534786 209.203518 
L 342.534786 216.330998 
L 343.185396 215.345924 
L 343.185396 223.072184 
L 343.836007 223.275883 
L 343.836007 227.859853 
L 344.486617 228.235966 
L 344.486617 232.931726 
L 345.137227 232.422206 
L 345.137227 236.657013 
L 345.787837 234.184277 
L 345.787837 240.054213 
L 346.438448 236.877638 
L 346.438448 242.409321 
L 347.089058 185.23773 
L 347.089058 191.506766 
L 347.739668 191.521178 
L 347.739668 199.730063 
L 348.390279 202.4649 
L 348.390279 207.018974 
L 349.040889 206.218513 
L 349.040889 213.660146 
L 349.691499 216.353777 
L 349.691499 220.377175 
L 350.34211 219.708444 
L 350.34211 224.991001 
L 350.99272 222.107353 
L 350.99272 229.398112 
L 351.64333 227.136577 
L 351.64333 233.756013 
L 352.293941 232.477242 
L 352.293941 237.506217 
L 352.944551 235.955742 
L 352.944551 240.437598 
L 353.595161 183.298733 
L 353.595161 190.677833 
L 354.245772 191.171624 
L 354.245772 198.792317 
L 354.896382 197.60931 
L 354.896382 205.622986 
L 355.546992 204.226823 
L 355.546992 212.088566 
L 356.197602 211.882561 
L 356.197602 218.027363 
L 356.848213 216.39787 
L 356.848213 222.417982 
L 357.498823 221.475634 
L 357.498823 226.574042 
L 358.149433 223.389681 
L 358.149433 230.764429 
L 358.800044 228.247073 
L 358.800044 234.102233 
L 359.450654 233.158682 
L 359.450654 237.912429 
L 360.101264 182.685328 
L 360.101264 190.100348 
L 360.751875 188.696833 
L 360.751875 197.439206 
L 361.402485 196.40388 
L 361.402485 203.646704 
L 362.053095 203.673811 
L 362.053095 209.493282 
L 362.703706 208.330874 
L 362.703706 215.051424 
L 363.354316 213.500518 
L 363.354316 220.184282 
L 364.004926 218.307494 
L 364.004926 223.934266 
L 364.655537 222.384048 
L 364.655537 227.896782 
L 365.306147 225.081202 
L 365.306147 231.728831 
L 365.956757 229.796331 
L 365.956757 234.658781 
L 366.607367 181.539194 
L 366.607367 188.966687 
L 367.257978 186.21277 
L 367.257978 194.93799 
L 367.908588 195.225456 
L 367.908588 201.795966 
L 368.559198 200.202602 
L 368.559198 207.707995 
L 369.209809 205.478221 
L 369.209809 212.288878 
L 369.860419 211.498867 
L 369.860419 216.858815 
L 370.511029 215.514037 
L 370.511029 221.25444 
L 371.16164 217.775091 
L 371.16164 224.124331 
L 371.81225 221.659957 
L 371.81225 227.863551 
L 372.46286 225.235022 
L 372.46286 231.799589 
L 373.113471 181.130934 
L 373.113471 187.658352 
L 373.764081 187.331424 
L 373.764081 194.034617 
L 374.414691 194.66762 
L 374.414691 200.36186 
L 375.065302 195.88659 
L 375.065302 204.536789 
L 375.715912 202.276719 
L 375.715912 209.626908 
L 376.366522 208.338435 
L 376.366522 214.651475 
L 377.017132 210.890984 
L 377.017132 218.092698 
L 377.667743 215.609635 
L 377.667743 222.220135 
L 378.318353 216.79159 
L 378.318353 224.515808 
L 378.968963 222.621687 
L 378.968963 228.044776 
L 379.619574 178.149878 
L 379.619574 186.556271 
L 380.270184 183.308447 
L 380.270184 192.7159 
L 380.920794 189.628501 
L 380.920794 197.681758 
L 381.571405 195.666209 
L 381.571405 203.319851 
L 382.222015 203.430553 
L 382.222015 207.661862 
L 382.872625 207.279772 
L 382.872625 212.327574 
L 383.523236 209.457187 
L 383.523236 215.676325 
L 384.173846 213.071961 
L 384.173846 218.745295 
L 384.824456 216.9018 
L 384.824456 221.844632 
L 385.475066 219.003226 
L 385.475066 225.792161 
L 386.125677 178.803869 
L 386.125677 185.812658 
L 386.776287 185.270093 
L 386.776287 191.279693 
L 387.426897 189.363766 
L 387.426897 195.928929 
L 388.077508 193.64961 
L 388.077508 200.519731 
L 388.728118 200.379135 
L 388.728118 205.005685 
L 389.378728 203.846921 
L 389.378728 209.355068 
L 390.029339 207.543598 
L 390.029339 212.391688 
L 390.679949 210.405597 
L 390.679949 216.126336 
L 391.330559 213.983127 
L 391.330559 219.398587 
L 391.98117 216.178423 
L 391.98117 222.078791 
L 392.63178 177.528381 
L 392.63178 184.448856 
L 393.28239 181.705325 
L 393.28239 189.093185 
L 393.933001 185.785278 
L 393.933001 194.298879 
L 394.583611 191.619029 
L 394.583611 198.611982 
L 394.583611 198.589739 
L 395.234221 196.091334 
L 395.234221 202.316693 
L 395.884831 200.325541 
L 395.884831 206.099262 
L 396.535442 204.470818 
L 396.535442 209.978823 
L 397.186052 207.390794 
L 397.186052 212.607117 
L 397.836662 210.544452 
L 397.836662 216.455648 
L 398.487273 213.004565 
L 398.487273 218.08391 
L 398.487273 218.08391 
" style="fill:none;stroke:#ff0000;stroke-linecap:square;stroke-width:1.5;"/>
   </g>
   <g id="patch_3">
    <path d="M 57.6 307.584 
L 57.6 41.472 
" style="fill:none;stroke:#000000;stroke-linecap:square;stroke-linejoin:miter;stroke-width:0.8;"/>
   </g>
   <g id="patch_4">
    <path d="M 414.72 307.584 
L 414.72 41.472 
" style="fill:none;stroke:#000000;stroke-linecap:square;stroke-linejoin:miter;stroke-width:0.8;"/>
   </g>
   <g id="patch_5">
    <path d="M 57.6 307.584 
L 414.72 307.584 
" style="fill:none;stroke:#000000;stroke-linecap:square;stroke-linejoin:miter;stroke-width:0.8;"/>
   </g>
   <g id="patch_6">
    <path d="M 57.6 41.472 
L 414.72 41.472 
" style="fill:none;stroke:#000000;stroke-linecap:square;stroke-linejoin:miter;stroke-width:0.8;"/>
   </g>
   <g id="text_13">
    <!-- The loss curve on _non_iid_agg/host/9 -->
    <g transform="translate(118.422188 35.472)scale(0.12 -0.12)">
     <defs>
      <path d="M -0.296875 72.90625 
L 61.375 72.90625 
L 61.375 64.59375 
L 35.5 64.59375 
L 35.5 0 
L 25.59375 0 
L 25.59375 64.59375 
L -0.296875 64.59375 
z
" id="DejaVuSans-84"/>
      <path d="M 41.109375 46.296875 
Q 39.59375 47.171875 37.8125 47.578125 
Q 36.03125 48 33.890625 48 
Q 26.265625 48 22.1875 43.046875 
Q 18.109375 38.09375 18.109375 28.8125 
L 18.109375 0 
L 9.078125 0 
L 9.078125 54.6875 
L 18.109375 54.6875 
L 18.109375 46.1875 
Q 20.953125 51.171875 25.484375 53.578125 
Q 30.03125 56 36.53125 56 
Q 37.453125 56 38.578125 55.875 
Q 39.703125 55.765625 41.0625 55.515625 
z
" id="DejaVuSans-114"/>
      <path d="M 54.890625 33.015625 
L 54.890625 0 
L 45.90625 0 
L 45.90625 32.71875 
Q 45.90625 40.484375 42.875 44.328125 
Q 39.84375 48.1875 33.796875 48.1875 
Q 26.515625 48.1875 22.3125 43.546875 
Q 18.109375 38.921875 18.109375 30.90625 
L 18.109375 0 
L 9.078125 0 
L 9.078125 54.6875 
L 18.109375 54.6875 
L 18.109375 46.1875 
Q 21.34375 51.125 25.703125 53.5625 
Q 30.078125 56 35.796875 56 
Q 45.21875 56 50.046875 50.171875 
Q 54.890625 44.34375 54.890625 33.015625 
z
" id="DejaVuSans-110"/>
      <path d="M 30.953125 67.4375 
L 56.203125 0 
L 46.6875 0 
L 31.34375 40.4375 
L 12.5 0 
L 2.984375 0 
L 26.953125 52.4375 
L 23.34375 62.109375 
Q 21.046875 68.265625 15.828125 68.265625 
L 11.140625 68.265625 
L 11.140625 75.984375 
L 16.84375 75.875 
Q 27.875 75.734375 30.953125 67.4375 
z
" id="DejaVuSans-955"/>
      <path d="M 50.984375 -16.609375 
L 50.984375 -23.578125 
L -0.984375 -23.578125 
L -0.984375 -16.609375 
z
" id="DejaVuSans-95"/>
      <path d="M 9.421875 54.6875 
L 18.40625 54.6875 
L 18.40625 0 
L 9.421875 0 
z
M 9.421875 75.984375 
L 18.40625 75.984375 
L 18.40625 64.59375 
L 9.421875 64.59375 
z
" id="DejaVuSans-105"/>
      <path d="M 45.40625 46.390625 
L 45.40625 75.984375 
L 54.390625 75.984375 
L 54.390625 0 
L 45.40625 0 
L 45.40625 8.203125 
Q 42.578125 3.328125 38.25 0.953125 
Q 33.9375 -1.421875 27.875 -1.421875 
Q 17.96875 -1.421875 11.734375 6.484375 
Q 5.515625 14.40625 5.515625 27.296875 
Q 5.515625 40.1875 11.734375 48.09375 
Q 17.96875 56 27.875 56 
Q 33.9375 56 38.25 53.625 
Q 42.578125 51.265625 45.40625 46.390625 
z
M 14.796875 27.296875 
Q 14.796875 17.390625 18.875 11.75 
Q 22.953125 6.109375 30.078125 6.109375 
Q 37.203125 6.109375 41.296875 11.75 
Q 45.40625 17.390625 45.40625 27.296875 
Q 45.40625 37.203125 41.296875 42.84375 
Q 37.203125 48.484375 30.078125 48.484375 
Q 22.953125 48.484375 18.875 42.84375 
Q 14.796875 37.203125 14.796875 27.296875 
z
" id="DejaVuSans-100"/>
      <path d="M 45.40625 27.984375 
Q 45.40625 37.75 41.375 43.109375 
Q 37.359375 48.484375 30.078125 48.484375 
Q 22.859375 48.484375 18.828125 43.109375 
Q 14.796875 37.75 14.796875 27.984375 
Q 14.796875 18.265625 18.828125 12.890625 
Q 22.859375 7.515625 30.078125 7.515625 
Q 37.359375 7.515625 41.375 12.890625 
Q 45.40625 18.265625 45.40625 27.984375 
z
M 54.390625 6.78125 
Q 54.390625 -7.171875 48.1875 -13.984375 
Q 42 -20.796875 29.203125 -20.796875 
Q 24.46875 -20.796875 20.265625 -20.09375 
Q 16.0625 -19.390625 12.109375 -17.921875 
L 12.109375 -9.1875 
Q 16.0625 -11.328125 19.921875 -12.34375 
Q 23.78125 -13.375 27.78125 -13.375 
Q 36.625 -13.375 41.015625 -8.765625 
Q 45.40625 -4.15625 45.40625 5.171875 
L 45.40625 9.625 
Q 42.625 4.78125 38.28125 2.390625 
Q 33.9375 0 27.875 0 
Q 17.828125 0 11.671875 7.65625 
Q 5.515625 15.328125 5.515625 27.984375 
Q 5.515625 40.671875 11.671875 48.328125 
Q 17.828125 56 27.875 56 
Q 33.9375 56 38.28125 53.609375 
Q 42.625 51.21875 45.40625 46.390625 
L 45.40625 54.6875 
L 54.390625 54.6875 
z
" id="DejaVuSans-103"/>
      <path d="M 25.390625 72.90625 
L 33.6875 72.90625 
L 8.296875 -9.28125 
L 0 -9.28125 
z
" id="DejaVuSans-47"/>
      <path d="M 18.3125 70.21875 
L 18.3125 54.6875 
L 36.8125 54.6875 
L 36.8125 47.703125 
L 18.3125 47.703125 
L 18.3125 18.015625 
Q 18.3125 11.328125 20.140625 9.421875 
Q 21.96875 7.515625 27.59375 7.515625 
L 36.8125 7.515625 
L 36.8125 0 
L 27.59375 0 
Q 17.1875 0 13.234375 3.875 
Q 9.28125 7.765625 9.28125 18.015625 
L 9.28125 47.703125 
L 2.6875 47.703125 
L 2.6875 54.6875 
L 9.28125 54.6875 
L 9.28125 70.21875 
z
" id="DejaVuSans-116"/>
      <path d="M 10.984375 1.515625 
L 10.984375 10.5 
Q 14.703125 8.734375 18.5 7.8125 
Q 22.3125 6.890625 25.984375 6.890625 
Q 35.75 6.890625 40.890625 13.453125 
Q 46.046875 20.015625 46.78125 33.40625 
Q 43.953125 29.203125 39.59375 26.953125 
Q 35.25 24.703125 29.984375 24.703125 
Q 19.046875 24.703125 12.671875 31.3125 
Q 6.296875 37.9375 6.296875 49.421875 
Q 6.296875 60.640625 12.9375 67.421875 
Q 19.578125 74.21875 30.609375 74.21875 
Q 43.265625 74.21875 49.921875 64.515625 
Q 56.59375 54.828125 56.59375 36.375 
Q 56.59375 19.140625 48.40625 8.859375 
Q 40.234375 -1.421875 26.421875 -1.421875 
Q 22.703125 -1.421875 18.890625 -0.6875 
Q 15.09375 0.046875 10.984375 1.515625 
z
M 30.609375 32.421875 
Q 37.25 32.421875 41.125 36.953125 
Q 45.015625 41.5 45.015625 49.421875 
Q 45.015625 57.28125 41.125 61.84375 
Q 37.25 66.40625 30.609375 66.40625 
Q 23.96875 66.40625 20.09375 61.84375 
Q 16.21875 57.28125 16.21875 49.421875 
Q 16.21875 41.5 20.09375 36.953125 
Q 23.96875 32.421875 30.609375 32.421875 
z
" id="DejaVuSans-57"/>
     </defs>
     <use xlink:href="#DejaVuSans-84"/>
     <use x="61.083984" xlink:href="#DejaVuSans-104"/>
     <use x="124.462891" xlink:href="#DejaVuSans-101"/>
     <use x="185.986328" xlink:href="#DejaVuSans-32"/>
     <use x="217.773438" xlink:href="#DejaVuSans-108"/>
     <use x="245.556641" xlink:href="#DejaVuSans-111"/>
     <use x="306.738281" xlink:href="#DejaVuSans-115"/>
     <use x="358.837891" xlink:href="#DejaVuSans-115"/>
     <use x="410.9375" xlink:href="#DejaVuSans-32"/>
     <use x="442.724609" xlink:href="#DejaVuSans-99"/>
     <use x="497.705078" xlink:href="#DejaVuSans-117"/>
     <use x="561.083984" xlink:href="#DejaVuSans-114"/>
     <use x="602.197266" xlink:href="#DejaVuSans-118"/>
     <use x="661.376953" xlink:href="#DejaVuSans-101"/>
     <use x="722.900391" xlink:href="#DejaVuSans-32"/>
     <use x="754.6875" xlink:href="#DejaVuSans-111"/>
     <use x="815.869141" xlink:href="#DejaVuSans-110"/>
     <use x="879.248047" xlink:href="#DejaVuSans-32"/>
     <use x="911.035156" xlink:href="#DejaVuSans-955"/>
     <use x="970.214844" xlink:href="#DejaVuSans-95"/>
     <use x="1020.214844" xlink:href="#DejaVuSans-110"/>
     <use x="1083.59375" xlink:href="#DejaVuSans-111"/>
     <use x="1144.775391" xlink:href="#DejaVuSans-110"/>
     <use x="1208.154297" xlink:href="#DejaVuSans-95"/>
     <use x="1258.154297" xlink:href="#DejaVuSans-105"/>
     <use x="1285.9375" xlink:href="#DejaVuSans-105"/>
     <use x="1313.720703" xlink:href="#DejaVuSans-100"/>
     <use x="1377.197266" xlink:href="#DejaVuSans-95"/>
     <use x="1427.197266" xlink:href="#DejaVuSans-97"/>
     <use x="1488.476562" xlink:href="#DejaVuSans-103"/>
     <use x="1551.953125" xlink:href="#DejaVuSans-103"/>
     <use x="1615.429688" xlink:href="#DejaVuSans-47"/>
     <use x="1649.121094" xlink:href="#DejaVuSans-104"/>
     <use x="1712.5" xlink:href="#DejaVuSans-111"/>
     <use x="1773.681641" xlink:href="#DejaVuSans-115"/>
     <use x="1825.78125" xlink:href="#DejaVuSans-116"/>
     <use x="1864.990234" xlink:href="#DejaVuSans-47"/>
     <use x="1898.681641" xlink:href="#DejaVuSans-57"/>
    </g>
   </g>
   <g id="legend_1">
    <g id="patch_7">
     <path d="M 317.418438 94.34075 
L 407.72 94.34075 
Q 409.72 94.34075 409.72 92.34075 
L 409.72 48.472 
Q 409.72 46.472 407.72 46.472 
L 317.418438 46.472 
Q 315.418438 46.472 315.418438 48.472 
L 315.418438 92.34075 
Q 315.418438 94.34075 317.418438 94.34075 
z
" style="fill:#ffffff;opacity:0.8;stroke:#cccccc;stroke-linejoin:miter;"/>
    </g>
    <g id="line2d_14">
     <path d="M 319.418438 54.570438 
L 339.418438 54.570438 
" style="fill:none;stroke:#0000ff;stroke-linecap:square;stroke-width:1.5;"/>
    </g>
    <g id="line2d_15"/>
    <g id="text_14">
     <!-- obj_loss -->
     <g transform="translate(347.418438 58.070438)scale(0.1 -0.1)">
      <defs>
       <path d="M 48.6875 27.296875 
Q 48.6875 37.203125 44.609375 42.84375 
Q 40.53125 48.484375 33.40625 48.484375 
Q 26.265625 48.484375 22.1875 42.84375 
Q 18.109375 37.203125 18.109375 27.296875 
Q 18.109375 17.390625 22.1875 11.75 
Q 26.265625 6.109375 33.40625 6.109375 
Q 40.53125 6.109375 44.609375 11.75 
Q 48.6875 17.390625 48.6875 27.296875 
z
M 18.109375 46.390625 
Q 20.953125 51.265625 25.265625 53.625 
Q 29.59375 56 35.59375 56 
Q 45.5625 56 51.78125 48.09375 
Q 58.015625 40.1875 58.015625 27.296875 
Q 58.015625 14.40625 51.78125 6.484375 
Q 45.5625 -1.421875 35.59375 -1.421875 
Q 29.59375 -1.421875 25.265625 0.953125 
Q 20.953125 3.328125 18.109375 8.203125 
L 18.109375 0 
L 9.078125 0 
L 9.078125 75.984375 
L 18.109375 75.984375 
z
" id="DejaVuSans-98"/>
       <path d="M 9.421875 54.6875 
L 18.40625 54.6875 
L 18.40625 -0.984375 
Q 18.40625 -11.421875 14.421875 -16.109375 
Q 10.453125 -20.796875 1.609375 -20.796875 
L -1.8125 -20.796875 
L -1.8125 -13.1875 
L 0.59375 -13.1875 
Q 5.71875 -13.1875 7.5625 -10.8125 
Q 9.421875 -8.453125 9.421875 -0.984375 
z
M 9.421875 75.984375 
L 18.40625 75.984375 
L 18.40625 64.59375 
L 9.421875 64.59375 
z
" id="DejaVuSans-106"/>
      </defs>
      <use xlink:href="#DejaVuSans-111"/>
      <use x="61.181641" xlink:href="#DejaVuSans-98"/>
      <use x="124.658203" xlink:href="#DejaVuSans-106"/>
      <use x="152.441406" xlink:href="#DejaVuSans-95"/>
      <use x="202.441406" xlink:href="#DejaVuSans-108"/>
      <use x="230.224609" xlink:href="#DejaVuSans-111"/>
      <use x="291.40625" xlink:href="#DejaVuSans-115"/>
      <use x="343.505859" xlink:href="#DejaVuSans-115"/>
     </g>
    </g>
    <g id="line2d_16">
     <path d="M 319.418438 69.526688 
L 339.418438 69.526688 
" style="fill:none;stroke:#008000;stroke-linecap:square;stroke-width:1.5;"/>
    </g>
    <g id="line2d_17"/>
    <g id="text_15">
     <!-- reg_loss -->
     <g transform="translate(347.418438 73.026688)scale(0.1 -0.1)">
      <use xlink:href="#DejaVuSans-114"/>
      <use x="38.863281" xlink:href="#DejaVuSans-101"/>
      <use x="100.386719" xlink:href="#DejaVuSans-103"/>
      <use x="163.863281" xlink:href="#DejaVuSans-95"/>
      <use x="213.863281" xlink:href="#DejaVuSans-108"/>
      <use x="241.646484" xlink:href="#DejaVuSans-111"/>
      <use x="302.828125" xlink:href="#DejaVuSans-115"/>
      <use x="354.927734" xlink:href="#DejaVuSans-115"/>
     </g>
    </g>
    <g id="line2d_18">
     <path d="M 319.418438 84.482938 
L 339.418438 84.482938 
" style="fill:none;stroke:#ff0000;stroke-linecap:square;stroke-width:1.5;"/>
    </g>
    <g id="line2d_19"/>
    <g id="text_16">
     <!-- overall_loss -->
     <g transform="translate(347.418438 87.982938)scale(0.1 -0.1)">
      <use xlink:href="#DejaVuSans-111"/>
      <use x="61.181641" xlink:href="#DejaVuSans-118"/>
      <use x="120.361328" xlink:href="#DejaVuSans-101"/>
      <use x="181.884766" xlink:href="#DejaVuSans-114"/>
      <use x="222.998047" xlink:href="#DejaVuSans-97"/>
      <use x="284.277344" xlink:href="#DejaVuSans-108"/>
      <use x="312.060547" xlink:href="#DejaVuSans-108"/>
      <use x="339.84375" xlink:href="#DejaVuSans-95"/>
      <use x="389.84375" xlink:href="#DejaVuSans-108"/>
      <use x="417.626953" xlink:href="#DejaVuSans-111"/>
      <use x="478.808594" xlink:href="#DejaVuSans-115"/>
      <use x="530.908203" xlink:href="#DejaVuSans-115"/>
     </g>
    </g>
   </g>
  </g>
 </g>
 <defs>
  <clipPath id="pe36cd24c7c">
   <rect height="266.112" width="357.12" x="57.6" y="41.472"/>
  </clipPath>
 </defs>
</svg>
